<svg xmlns="http://www.w3.org/2000/svg" xmlns:xlink="http://www.w3.org/1999/xlink" height="680.553" viewBox="0 0 837.825 510.415" width="1117.1" stroke-linecap="butt" stroke-linejoin="round" xmlns:v="https://vecta.io/nano"><style><![CDATA[.B{fill:#fff}.C{clip-path:url(#j)}.D{clip-path:url(#h)}.E{clip-path:url(#i)}.F{clip-path:url(#k)}.G{clip-path:url(#l)}.H{stroke-linecap:butt}.I{stroke-linejoin:round}.J{stroke:#444}.K{stroke-width:.8}.L{fill:none}.M{clip-path:url(#m)}.N{stroke:#999}.O{stroke-linecap:round}.P{stroke-width:3}]]></style><g class="L N"><path d="M89.521 15.87l9.698 12.044" class="D"/><path d="M89.521 15.87l8.484.8 8.636 1.156 7.185 1.2 2.714.54 4.421.882 6.742 1.567 1 .233 1.557.404M89.521 15.87L61.426 38.203m37.793-10.289l12.628 15.697m-40.525 6.814l27.897-22.51m43.347 53.686L130.439 66.89m-8.147 6.6l8.147-6.6m0 .001l-18.592-23.279" class="D"/><path d="M130.439 66.891l-18.592-23.279m41.851 28.678l-11.132 9.311m-4.166 3.578l4.166-3.578M38.887 10.081l22.539 28.121M38.887 10.081l9.648 61.52m34.735-6.235L71.322 50.425m-9.896-12.222l.403.5 6.413 7.964 3.08 3.758" class="D"/><use xlink:href="#B" class="D"/><path d="M92.611 76.835l-3.162-3.76-1.867-2.329-1.101-1.376-.108-.136-3.102-3.869m24.911-11.203l-23.299 9.284-1.612 1.92m19.355 24.079l19.666-15.955m-7.05 31.644l-12.616-15.688" class="D"/><path d="M102.626 89.445l-10.015-12.61m29.13 35.976l-6.499-7.678m14.117-12.043l-14.117 12.044m0 0l-16.124 13.444m36.347 10.933l-7.533-9.193-.152-.182-6.04-7.324m12.494-1.034l-12.493 1.033m13.724 16.7l22.702-1.911m-22.702 1.911l21.324 24.644m1.378-26.555l1.874 23.548-3.252 3.007m-.038-44.221l1.417 17.666m-5.381-66.598l-2.606.178-3.601.244m0 0l7.118 10.866" class="D"/><path d="M146.58 61.424l-24.929-26.006m31.136 25.584l.911 11.289m0-.001l3.053 37.643m0 .001l-16.124 1.267M64.103 69.335l-15.568 2.267m3.308 23.399l-3.308-23.399m23.158 50.842l-15.618 2.244m-.001.001l-4.232-29.688" class="D"/><path d="M64.103 69.335l2.678 18.679m-2.678-18.679l-2.677-31.132m10.267 84.241l-4.912-34.43m55.511-14.524l2.8 3.467 4.267 16.133m9.041-7.911l-9.04 7.911m-.001 0l4.874 18.688m6.393-.578l-6.392.578m6.392-.578L138.4 85.179m-71.619 2.835L51.842 95m14.939-6.986l25.829-11.18m15.572-22.672l-4.166 12.942-1.525 1.96-5.972 4.875-3.908 2.895m19.236-33.223l-3.665 10.551m3.665-10.551l9.805-8.193m8.606-12.766l-8.607 12.766" class="D"/></g><defs><path d="M0 .5A.5.5 0 0 0 .354.354.5.5 0 0 0 .5 0a.5.5 0 0 0-.146-.354A.5.5 0 0 0 0-.5a.5.5 0 0 0-.354.146A.5.5 0 0 0-.5 0a.5.5 0 0 0 .146.354A.5.5 0 0 0 0 .5z" id="A" class="H I"/><path id="B" d="M64.103 69.335L77.847 67.2l4.37-.656 1.052-1.178"/></defs><g class="D B"><use x="89.521" xlink:href="#A" y="15.87"/></g><g class="D B"><use x="99.219" xlink:href="#A" y="27.914"/></g><g class="D B"><use x="130.439" xlink:href="#A" y="66.891"/></g><g class="D B"><use x="142.566" xlink:href="#A" y="81.601"/></g><g class="D B"><use x="38.887" xlink:href="#A" y="10.081"/></g><g class="D B"><use x="71.322" xlink:href="#A" y="50.425"/></g><g class="D B"><use x="83.27" xlink:href="#A" y="65.366"/></g><g class="D B"><use x="102.626" xlink:href="#A" y="89.445"/></g><g class="D B"><use x="115.242" xlink:href="#A" y="105.134"/></g><g class="D B"><use x="121.741" xlink:href="#A" y="112.811"/></g><g class="D B"><use x="135.465" xlink:href="#A" y="129.511"/></g><g class="D B"><use x="156.789" xlink:href="#A" y="154.154"/></g><g class="D B"><use x="158.167" xlink:href="#A" y="127.6"/></g><g class="D B"><use x="146.58" xlink:href="#A" y="61.424"/></g><g class="D B"><use x="152.787" xlink:href="#A" y="61.002"/></g><g class="D B"><use x="153.698" xlink:href="#A" y="72.29"/></g><g class="D B"><use x="156.751" xlink:href="#A" y="109.934"/></g><g class="D B"><use x="99.118" xlink:href="#A" y="118.578"/></g><g class="D B"><use x="48.535" xlink:href="#A" y="71.602"/></g><g class="D B"><use x="56.074" xlink:href="#A" y="124.689"/></g><g class="D B"><use x="64.103" xlink:href="#A" y="69.335"/></g><g class="D B"><use x="71.693" xlink:href="#A" y="122.444"/></g><g class="D B"><use x="122.292" xlink:href="#A" y="73.49"/></g><g class="D B"><use x="129.359" xlink:href="#A" y="93.09"/></g><g class="D B"><use x="134.234" xlink:href="#A" y="111.778"/></g><g class="D B"><use x="138.4" xlink:href="#A" y="85.179"/></g><g class="D B"><use x="140.626" xlink:href="#A" y="111.2"/></g><g class="D B"><use x="51.843" xlink:href="#A" y="95.001"/></g><g class="D B"><use x="66.781" xlink:href="#A" y="88.014"/></g><g class="D B"><use x="92.611" xlink:href="#A" y="76.835"/></g><g class="D B"><use x="108.182" xlink:href="#A" y="54.162"/></g><g class="D B"><use x="111.847" xlink:href="#A" y="43.611"/></g><g class="D B"><use x="130.258" xlink:href="#A" y="22.652"/></g><g class="D B"><use x="61.426" xlink:href="#A" y="38.203"/></g><g class="D B"><use x="121.651" xlink:href="#A" y="35.418"/></g><g class="L"><g stroke="#1f77b4" class="O P"><path d="M99.118 118.578l16.124-13.444m0 0l-12.616-15.688m0-.001l19.666-15.955m0 0l8.147-6.6m12.127 14.711L130.439 66.89m23.259 5.4l-11.132 9.311m11.132-9.311l-.911-11.289m0 .001l-2.606.178-3.601.244m0 0l-24.929-26.006m0 0l8.607-12.766M89.521 15.87l8.484.8 8.636 1.156 7.185 1.2 2.714.54 4.421.882 6.742 1.567 1 .233 1.557.404M89.521 15.87L61.426 38.203m0 0l2.677 31.132" class="D"/><use xlink:href="#B" class="D"/><path d="M83.27 65.366L71.322 50.425m0 0l27.897-22.51m0-.001l12.628 15.697m0 0l-3.665 10.551m0 0l-4.166 12.942-1.525 1.96-5.972 4.875-3.908 2.895m0 .001l-25.829 11.18m-.001-.001l4.912 34.43m0 0l-15.618 2.244m-.001.001l-4.232-29.688m.001 0l-3.308-23.399m0 0l-9.648-61.52" class="D"/></g><g class="N"><path d="M253.321 15.87l9.698 12.044" class="E"/><path d="M253.321 15.87l8.484.8 8.636 1.156 7.185 1.2 2.714.54 4.421.882 6.742 1.567 1 .233 1.557.404m-40.739-6.782l-28.095 22.333m37.793-10.289l12.628 15.697m-40.525 6.814l27.897-22.51m43.347 53.686L294.239 66.89m-8.147 6.6l8.147-6.6m0 .001l-18.592-23.279" class="E"/><path d="M294.239 66.891l-18.592-23.279m41.851 28.678l-11.132 9.311m-4.166 3.578l4.166-3.578m-103.679-71.52l22.539 28.121m-22.539-28.121l9.648 61.52m34.735-6.235l-11.948-14.942" class="E"/><path d="M225.226 38.203l.403.5 6.413 7.964 3.08 3.758m-7.219 18.91l13.745-2.135 4.37-.656 1.052-1.178m9.341 11.469l-3.162-3.76-1.867-2.329-1.101-1.376-.108-.136-3.102-3.869m24.911-11.203l-23.299 9.284-1.612 1.92m19.355 24.079l19.666-15.955m-7.05 31.644l-12.616-15.688m0-.001l-10.015-12.611m29.13 35.977l-6.499-7.678" class="E"/><path d="M293.159 93.09l-14.117 12.044m0 0l-16.124 13.444m36.347 10.933l-7.533-9.193-.152-.182-6.04-7.324m12.494-1.034l-12.493 1.033m13.724 16.7l22.702-1.911m-22.702 1.911l21.324 24.644m1.378-26.555l1.874 23.548-3.252 3.007m-.038-44.221l1.417 17.666m-5.381-66.598l-2.606.178-3.601.244m0 0l7.118 10.866" class="E"/><path d="M310.38 61.424l-24.929-26.006m31.136 25.584l.911 11.289m0-.001l3.053 37.643m0 .001l-16.124 1.267m-76.524-41.866l-15.568 2.267m3.308 23.399l-3.308-23.399m23.158 50.842l-15.618 2.244m-.001.001l-4.232-29.688" class="E"/><path d="M227.903 69.335l2.678 18.679m-2.678-18.679l-2.677-31.132m10.267 84.241l-4.912-34.43m55.511-14.524l2.8 3.467 4.267 16.133m9.041-7.911l-9.04 7.911m-.001 0l4.874 18.688m6.393-.578l-6.392.578m6.392-.578L302.2 85.179" class="E"/><path d="M230.581 88.014L215.642 95m14.939-6.986l25.829-11.18m15.572-22.672l-4.166 12.942-1.525 1.96-5.972 4.875-3.908 2.895m19.236-33.223l-3.665 10.551m3.665-10.551l9.805-8.193m8.606-12.766l-8.607 12.766" class="E"/></g></g><defs><path d="M0 .5A.5.5 0 0 0 .354.354.5.5 0 0 0 .5 0a.5.5 0 0 0-.146-.354A.5.5 0 0 0 0-.5a.5.5 0 0 0-.354.146A.5.5 0 0 0-.5 0a.5.5 0 0 0 .146.354A.5.5 0 0 0 0 .5z" id="C" class="H I"/></defs><g class="E B"><use x="253.321" xlink:href="#C" y="15.87"/></g><g class="E B"><use x="263.019" xlink:href="#C" y="27.914"/></g><g class="E B"><use x="294.239" xlink:href="#C" y="66.891"/></g><g class="E B"><use x="306.366" xlink:href="#C" y="81.601"/></g><g class="E B"><use x="202.687" xlink:href="#C" y="10.081"/></g><g class="E B"><use x="235.122" xlink:href="#C" y="50.425"/></g><g class="E B"><use x="247.07" xlink:href="#C" y="65.366"/></g><g class="E B"><use x="266.426" xlink:href="#C" y="89.445"/></g><g class="E B"><use x="279.042" xlink:href="#C" y="105.134"/></g><g class="E B"><use x="285.541" xlink:href="#C" y="112.811"/></g><g class="E B"><use x="299.265" xlink:href="#C" y="129.511"/></g><g class="E B"><use x="320.589" xlink:href="#C" y="154.154"/></g><g class="E B"><use x="321.967" xlink:href="#C" y="127.6"/></g><g class="E B"><use x="310.38" xlink:href="#C" y="61.424"/></g><g class="E B"><use x="316.587" xlink:href="#C" y="61.002"/></g><g class="E B"><use x="317.498" xlink:href="#C" y="72.29"/></g><g class="E B"><use x="320.551" xlink:href="#C" y="109.934"/></g><g class="E B"><use x="262.918" xlink:href="#C" y="118.578"/></g><g class="E B"><use x="212.335" xlink:href="#C" y="71.602"/></g><g class="E B"><use x="219.874" xlink:href="#C" y="124.689"/></g><g class="E B"><use x="227.903" xlink:href="#C" y="69.335"/></g><g class="E B"><use x="235.493" xlink:href="#C" y="122.444"/></g><g class="E B"><use x="286.092" xlink:href="#C" y="73.49"/></g><g class="E B"><use x="293.159" xlink:href="#C" y="93.09"/></g><g class="E B"><use x="298.034" xlink:href="#C" y="111.778"/></g><g class="E B"><use x="302.2" xlink:href="#C" y="85.179"/></g><g class="E B"><use x="304.426" xlink:href="#C" y="111.2"/></g><g class="E B"><use x="215.643" xlink:href="#C" y="95.001"/></g><g class="E B"><use x="230.581" xlink:href="#C" y="88.014"/></g><g class="E B"><use x="256.411" xlink:href="#C" y="76.835"/></g><g class="E B"><use x="271.982" xlink:href="#C" y="54.162"/></g><g class="E B"><use x="275.647" xlink:href="#C" y="43.611"/></g><g class="E B"><use x="294.058" xlink:href="#C" y="22.652"/></g><g class="E B"><use x="225.226" xlink:href="#C" y="38.203"/></g><g class="E B"><use x="285.451" xlink:href="#C" y="35.418"/></g><g class="L"><g stroke="#ff7f0e" class="O P"><path d="M262.918 118.578l16.124-13.444m0 0l-12.616-15.688m0-.001l19.666-15.955m0 0l8.147-6.6m12.127 14.711L294.239 66.89m7.961 18.289l4.166-3.578m-1.94 29.599L302.2 85.179m2.226 26.021l-6.392.578" class="E"/><path d="M298.034 111.778l-12.493 1.033m13.724 16.7l-7.533-9.193-.152-.182-6.04-7.324m13.725 16.699l21.324 24.644m1.378-26.555l1.874 23.548-3.252 3.007m-.038-44.221l1.417 17.666m-4.47-55.31l3.053 37.643m-3.053-37.643l-.911-11.289m0 .001l-2.606.178-3.601.244m0 0l-24.929-26.006m0 0l8.607-12.766m-40.737-6.782l8.484.8 8.636 1.156 7.185 1.2 2.714.54 4.421.882 6.742 1.567 1 .233 1.557.404m-40.739-6.782l-28.095 22.333m0 0l2.677 31.132m0 0l13.745-2.135 4.37-.656 1.052-1.178" class="E"/><path d="M247.07 65.366l-11.948-14.942m0 .001l27.897-22.51m0-.001l12.628 15.697m0 0l-3.665 10.551m0 0l-4.166 12.942-1.525 1.96-5.972 4.875-3.908 2.895m0 .001l-25.829 11.18m-.001-.001l4.912 34.43m0 0l-15.618 2.244m-.001.001l-4.232-29.688m.001 0l-3.308-23.399m0 0l-9.648-61.52" class="E"/></g><g class="N"><path d="M417.121 15.87l9.698 12.044" class="C"/><path d="M417.121 15.87l8.484.8 8.636 1.156 7.185 1.2 2.714.54 4.421.882 6.742 1.567 1 .233 1.557.404m-40.739-6.782l-28.095 22.333m37.793-10.289l12.628 15.697m-40.525 6.814l27.897-22.51m43.347 53.686L458.039 66.89m-8.147 6.6l8.147-6.6m0 .001l-18.592-23.279" class="C"/><path d="M458.039 66.891l-18.592-23.279m41.851 28.678l-11.132 9.311M466 85.179l4.166-3.578m-103.679-71.52l22.539 28.121m-22.539-28.121l9.648 61.52m34.735-6.235l-11.948-14.942" class="C"/><path d="M389.026 38.203l.403.5 6.413 7.964 3.08 3.758m-7.219 18.91l13.745-2.135 4.37-.656 1.052-1.178m9.341 11.469l-3.162-3.76-1.867-2.329-1.101-1.376-.108-.136-3.102-3.869m24.911-11.203l-23.299 9.284-1.612 1.92m19.355 24.079l19.666-15.955m-7.05 31.644l-12.616-15.688m0-.001l-10.015-12.611m29.13 35.977l-6.499-7.678" class="C"/><path d="M456.959 93.09l-14.117 12.044m0 0l-16.124 13.444m36.347 10.933l-7.533-9.193-.152-.182-6.04-7.324m12.494-1.034l-12.493 1.033m13.724 16.7l22.702-1.911m-22.702 1.911l21.324 24.644m1.378-26.555l1.874 23.548-3.252 3.007m-.038-44.221l1.417 17.666m-5.381-66.598l-2.606.178-3.601.244m0 0l7.118 10.866" class="C"/><path d="M474.18 61.424l-24.929-26.006m31.136 25.584l.911 11.289m0-.001l3.053 37.643m0 .001l-16.124 1.267m-76.524-41.866l-15.568 2.267m3.308 23.399l-3.308-23.399m23.158 50.842l-15.618 2.244m-.001.001l-4.232-29.688" class="C"/><path d="M391.703 69.335l2.678 18.679m-2.678-18.679l-2.677-31.132m10.267 84.241l-4.912-34.43m55.511-14.524l2.8 3.467 4.267 16.133M466 85.179l-9.04 7.911m-.001 0l4.874 18.688m6.393-.578l-6.392.578m6.392-.578L466 85.179" class="C"/><path d="M394.381 88.014L379.442 95m14.939-6.986l25.829-11.18m15.572-22.672l-4.166 12.942-1.525 1.96-5.972 4.875-3.908 2.895m19.236-33.223l-3.665 10.551m3.665-10.551l9.805-8.193m8.606-12.766l-8.607 12.766" class="C"/></g></g><defs><path d="M0 .5A.5.5 0 0 0 .354.354.5.5 0 0 0 .5 0a.5.5 0 0 0-.146-.354A.5.5 0 0 0 0-.5a.5.5 0 0 0-.354.146A.5.5 0 0 0-.5 0a.5.5 0 0 0 .146.354A.5.5 0 0 0 0 .5z" id="D" class="H I"/></defs><g class="C B"><use x="417.121" xlink:href="#D" y="15.87"/></g><g class="C B"><use x="426.819" xlink:href="#D" y="27.914"/></g><g class="C B"><use x="458.039" xlink:href="#D" y="66.891"/></g><g class="C B"><use x="470.166" xlink:href="#D" y="81.601"/></g><g class="C B"><use x="366.487" xlink:href="#D" y="10.081"/></g><g class="C B"><use x="398.922" xlink:href="#D" y="50.425"/></g><g class="C B"><use x="410.87" xlink:href="#D" y="65.366"/></g><g class="C B"><use x="430.226" xlink:href="#D" y="89.445"/></g><g class="C B"><use x="442.842" xlink:href="#D" y="105.134"/></g><g class="C B"><use x="449.341" xlink:href="#D" y="112.811"/></g><g class="C B"><use x="463.065" xlink:href="#D" y="129.511"/></g><g class="C B"><use x="484.389" xlink:href="#D" y="154.154"/></g><g class="C B"><use x="485.767" xlink:href="#D" y="127.6"/></g><g class="C B"><use x="474.18" xlink:href="#D" y="61.424"/></g><g class="C B"><use x="480.387" xlink:href="#D" y="61.002"/></g><g class="C B"><use x="481.298" xlink:href="#D" y="72.29"/></g><g class="C B"><use x="484.351" xlink:href="#D" y="109.934"/></g><g class="C B"><use x="426.718" xlink:href="#D" y="118.578"/></g><g class="C B"><use x="376.135" xlink:href="#D" y="71.602"/></g><g class="C B"><use x="383.674" xlink:href="#D" y="124.689"/></g><g class="C B"><use x="391.703" xlink:href="#D" y="69.335"/></g><g class="C B"><use x="399.293" xlink:href="#D" y="122.444"/></g><g class="C B"><use x="449.892" xlink:href="#D" y="73.49"/></g><g class="C B"><use x="456.959" xlink:href="#D" y="93.09"/></g><g class="C B"><use x="461.834" xlink:href="#D" y="111.778"/></g><g class="C B"><use x="466" xlink:href="#D" y="85.179"/></g><g class="C B"><use x="468.226" xlink:href="#D" y="111.2"/></g><g class="C B"><use x="379.443" xlink:href="#D" y="95.001"/></g><g class="C B"><use x="394.381" xlink:href="#D" y="88.014"/></g><g class="C B"><use x="420.211" xlink:href="#D" y="76.835"/></g><g class="C B"><use x="435.782" xlink:href="#D" y="54.162"/></g><g class="C B"><use x="439.447" xlink:href="#D" y="43.611"/></g><g class="C B"><use x="457.858" xlink:href="#D" y="22.652"/></g><g class="C B"><use x="389.026" xlink:href="#D" y="38.203"/></g><g class="C B"><use x="449.251" xlink:href="#D" y="35.418"/></g><g class="L"><g stroke="#2ca02c" class="O P"><path d="M426.718 118.578l16.124-13.444m6.499 7.677l-6.499-7.678m20.223 24.378l-7.533-9.193-.152-.182-6.04-7.324m13.725 16.699l21.324 24.644m1.378-26.555l1.874 23.548-3.252 3.007m-.038-44.221l1.417 17.666m-4.47-55.31l3.053 37.643m-3.053-37.643l-7.118-10.866m0 0l-24.929-26.006m0 0l8.607-12.766m-40.737-6.782l8.484.8 8.636 1.156 7.185 1.2 2.714.54 4.421.882 6.742 1.567 1 .233 1.557.404m-40.739-6.782l-28.095 22.333m0 0l.403.5 6.413 7.964 3.08 3.758m0 0l27.897-22.51m0-.001l12.628 15.697m0 0l18.592 23.279" class="C"/><path d="M470.166 81.601L458.039 66.89M466 85.179l4.166-3.578m-1.94 29.599L466 85.179m2.226 26.021l-6.392.578m-4.875-18.688l4.874 18.688M449.892 73.49l2.8 3.467 4.267 16.133m-26.733-3.645l19.666-15.955m-19.666 15.955l-10.015-12.611" class="C"/><path d="M435.782 54.162l-4.166 12.942-1.525 1.96-5.972 4.875-3.908 2.895" class="C"/><path d="M435.782 54.162l-23.299 9.284-1.612 1.92m-19.168 3.969l13.745-2.135 4.37-.656 1.052-1.178m-19.167 3.969l2.678 18.679m0 0l4.912 34.43m0 0l-15.618 2.244m-.001.001l-4.232-29.688m.001 0l-3.308-23.399m0 0l-9.648-61.52" class="C"/></g><g class="N"><path d="M580.921 15.87l9.698 12.044" class="F"/><path d="M580.921 15.87l8.484.8 8.636 1.156 7.185 1.2 2.714.54 4.421.882 6.742 1.567 1 .233 1.557.404m-40.739-6.782l-28.095 22.333m37.793-10.289l12.628 15.697m-40.525 6.814l27.897-22.51m43.347 53.686L621.839 66.89m-8.147 6.6l8.147-6.6m0 .001l-18.592-23.279" class="F"/><path d="M621.839 66.891l-18.592-23.279m41.851 28.678l-11.132 9.311m-4.166 3.578l4.166-3.578m-103.679-71.52l22.539 28.121m-22.539-28.121l9.648 61.52m34.735-6.235l-11.948-14.942m-9.896-12.221l.403.5 6.413 7.964 3.08 3.758m-7.219 18.91l13.745-2.135 4.37-.656 1.052-1.178m9.341 11.469l-3.162-3.76-1.867-2.329-1.101-1.376-.108-.136-3.102-3.869m24.911-11.203l-23.299 9.284-1.612 1.92m19.355 24.079l19.666-15.955m-7.05 31.644l-12.616-15.688" class="F"/><path d="M594.026 89.445l-10.015-12.611m29.13 35.977l-6.499-7.678m14.117-12.043l-14.117 12.044m0 0l-16.124 13.444m36.347 10.933l-7.533-9.193-.152-.182-6.04-7.324m12.494-1.034l-12.493 1.033m13.724 16.7l22.702-1.911m-22.702 1.911l21.324 24.644m1.378-26.555l1.874 23.548-3.252 3.007m-.038-44.221l1.417 17.666m-5.381-66.598l-2.606.178-3.601.244m0 0l7.118 10.866" class="F"/><path d="M637.98 61.424l-24.929-26.006m31.136 25.584l.911 11.289m0-.001l3.053 37.643m0 .001l-16.124 1.267m-76.524-41.866l-15.568 2.267m3.308 23.399l-3.308-23.399m23.158 50.842l-15.618 2.244m-.001.001l-4.232-29.688" class="F"/><path d="M555.503 69.335l2.678 18.679m-2.678-18.679l-2.677-31.132m10.267 84.241l-4.912-34.43m55.511-14.524l2.8 3.467 4.267 16.133m9.041-7.911l-9.04 7.911m-.001 0l4.874 18.688m6.393-.578l-6.392.578m6.392-.578L629.8 85.179" class="F"/><path d="M558.181 88.014L543.242 95m14.939-6.986l25.829-11.18m15.572-22.672l-4.166 12.942-1.525 1.96-5.972 4.875-3.908 2.895m19.236-33.223l-3.665 10.551m3.665-10.551l9.805-8.193m8.606-12.766l-8.607 12.766" class="F"/></g></g><defs><path d="M0 .5A.5.5 0 0 0 .354.354.5.5 0 0 0 .5 0a.5.5 0 0 0-.146-.354A.5.5 0 0 0 0-.5a.5.5 0 0 0-.354.146A.5.5 0 0 0-.5 0a.5.5 0 0 0 .146.354A.5.5 0 0 0 0 .5z" id="E" class="H I"/></defs><g class="F B"><use x="580.921" xlink:href="#E" y="15.87"/></g><g class="F B"><use x="590.619" xlink:href="#E" y="27.914"/></g><g class="F B"><use x="621.839" xlink:href="#E" y="66.891"/></g><g class="F B"><use x="633.966" xlink:href="#E" y="81.601"/></g><g class="F B"><use x="530.287" xlink:href="#E" y="10.081"/></g><g class="F B"><use x="562.722" xlink:href="#E" y="50.425"/></g><g class="F B"><use x="574.67" xlink:href="#E" y="65.366"/></g><g class="F B"><use x="594.026" xlink:href="#E" y="89.445"/></g><g class="F B"><use x="606.642" xlink:href="#E" y="105.134"/></g><g class="F B"><use x="613.141" xlink:href="#E" y="112.811"/></g><g class="F B"><use x="626.865" xlink:href="#E" y="129.511"/></g><g class="F B"><use x="648.189" xlink:href="#E" y="154.154"/></g><g class="F B"><use x="649.567" xlink:href="#E" y="127.6"/></g><g class="F B"><use x="637.98" xlink:href="#E" y="61.424"/></g><g class="F B"><use x="644.187" xlink:href="#E" y="61.002"/></g><g class="F B"><use x="645.098" xlink:href="#E" y="72.29"/></g><g class="F B"><use x="648.151" xlink:href="#E" y="109.934"/></g><g class="F B"><use x="590.518" xlink:href="#E" y="118.578"/></g><g class="F B"><use x="539.935" xlink:href="#E" y="71.602"/></g><g class="F B"><use x="547.474" xlink:href="#E" y="124.689"/></g><g class="F B"><use x="555.503" xlink:href="#E" y="69.335"/></g><g class="F B"><use x="563.093" xlink:href="#E" y="122.444"/></g><g class="F B"><use x="613.692" xlink:href="#E" y="73.49"/></g><g class="F B"><use x="620.759" xlink:href="#E" y="93.09"/></g><g class="F B"><use x="625.634" xlink:href="#E" y="111.778"/></g><g class="F B"><use x="629.8" xlink:href="#E" y="85.179"/></g><g class="F B"><use x="632.026" xlink:href="#E" y="111.2"/></g><g class="F B"><use x="543.243" xlink:href="#E" y="95.001"/></g><g class="F B"><use x="558.181" xlink:href="#E" y="88.014"/></g><g class="F B"><use x="584.011" xlink:href="#E" y="76.835"/></g><g class="F B"><use x="599.582" xlink:href="#E" y="54.162"/></g><g class="F B"><use x="603.247" xlink:href="#E" y="43.611"/></g><g class="F B"><use x="621.658" xlink:href="#E" y="22.652"/></g><g class="F B"><use x="552.826" xlink:href="#E" y="38.203"/></g><g class="F B"><use x="613.051" xlink:href="#E" y="35.418"/></g><g class="L"><g stroke="#d62728" class="O P"><path d="M590.518 118.578l16.124-13.444m6.499 7.677l-6.499-7.678m20.223 24.378l-7.533-9.193-.152-.182-6.04-7.324m13.725 16.699l21.324 24.644m1.378-26.555l1.874 23.548-3.252 3.007m-.038-44.221l1.417 17.666m-4.47-55.31l3.053 37.643m-3.053-37.643l-.911-11.289m0 .001l-2.606.178-3.601.244m0 0l-24.929-26.006m0 0l8.607-12.766m-40.737-6.782l8.484.8 8.636 1.156 7.185 1.2 2.714.54 4.421.882 6.742 1.567 1 .233 1.557.404" class="F"/><path d="M580.921 15.87l-28.095 22.333m0 0l.403.5 6.413 7.964 3.08 3.758m0 0l27.897-22.51m0-.001l12.628 15.697m0 0l18.592 23.279m12.127 14.711L621.839 66.89m7.961 18.289l4.166-3.578m-1.94 29.599L629.8 85.179" class="F"/><path d="M632.026 111.2l-6.392.578m-4.875-18.688l4.874 18.688M613.692 73.49l2.8 3.467 4.267 16.133m-26.733-3.645l19.666-15.955m-19.666 15.955l-10.015-12.611m15.571-22.672l-4.166 12.942-1.525 1.96-5.972 4.875-3.908 2.895m15.571-22.672l-23.299 9.284-1.612 1.92m-19.168 3.969l13.745-2.135 4.37-.656 1.052-1.178m-19.167 3.969l2.678 18.679m0 0l4.912 34.43m0 0l-15.618 2.244m-.001.001l-4.232-29.688m.001 0l-3.308-23.399m0 0l-9.648-61.52" class="F"/></g><g class="N"><path d="M744.721 15.87l9.698 12.044" class="G"/><path d="M744.721 15.87l8.484.8 8.636 1.156 7.185 1.2 2.714.54 4.421.882 6.742 1.567 1 .233 1.557.404m-40.739-6.782l-28.095 22.333m37.793-10.289l12.628 15.697m-40.525 6.814l27.897-22.51m43.347 53.686L785.639 66.89m-8.147 6.6l8.147-6.6m0 .001l-18.592-23.279" class="G"/><path d="M785.639 66.891l-18.592-23.279m41.851 28.678l-11.132 9.311m-4.166 3.578l4.166-3.578m-103.679-71.52l22.539 28.121m-22.539-28.121l9.648 61.52m34.735-6.235l-11.948-14.942" class="G"/><path d="M716.626 38.203l.403.5 6.413 7.964 3.08 3.758m-7.219 18.91l13.745-2.135 4.37-.656 1.052-1.178m9.341 11.469l-3.162-3.76-1.867-2.329-1.101-1.376-.108-.136-3.102-3.869m24.911-11.203l-23.299 9.284-1.612 1.92m19.355 24.079l19.666-15.955m-7.05 31.644l-12.616-15.688m0-.001l-10.015-12.611m29.13 35.977l-6.499-7.678" class="G"/><path d="M784.559 93.09l-14.117 12.044m0 0l-16.124 13.444m36.347 10.933l-7.533-9.193-.152-.182-6.04-7.324m12.494-1.034l-12.493 1.033m13.724 16.7l22.702-1.911m-22.702 1.911l21.324 24.644m1.378-26.555l1.874 23.548-3.252 3.007m-.038-44.221l1.417 17.666m-5.381-66.598l-2.606.178-3.601.244m0 0l7.118 10.866" class="G"/><path d="M801.78 61.424l-24.929-26.006m31.136 25.584l.911 11.289m0-.001l3.053 37.643m0 .001l-16.124 1.267m-76.524-41.866l-15.568 2.267m3.308 23.399l-3.308-23.399m23.158 50.842l-15.618 2.244m-.001.001l-4.232-29.688" class="G"/><path d="M719.303 69.335l2.678 18.679m-2.678-18.679l-2.677-31.132m10.267 84.241l-4.912-34.43m55.511-14.524l2.8 3.467 4.267 16.133m9.041-7.911l-9.04 7.911m-.001 0l4.874 18.688m6.393-.578l-6.392.578m6.392-.578L793.6 85.179" class="G"/><path d="M721.981 88.014L707.042 95m14.939-6.986l25.829-11.18m15.572-22.672l-4.166 12.942-1.525 1.96-5.972 4.875-3.908 2.895m19.236-33.223l-3.665 10.551m3.665-10.551l9.805-8.193m8.606-12.766l-8.607 12.766" class="G"/></g></g><defs><path d="M0 .5A.5.5 0 0 0 .354.354.5.5 0 0 0 .5 0a.5.5 0 0 0-.146-.354A.5.5 0 0 0 0-.5a.5.5 0 0 0-.354.146A.5.5 0 0 0-.5 0a.5.5 0 0 0 .146.354A.5.5 0 0 0 0 .5z" id="F" class="H I"/></defs><g class="G B"><use x="744.721" xlink:href="#F" y="15.87"/></g><g class="G B"><use x="754.419" xlink:href="#F" y="27.914"/></g><g class="G B"><use x="785.639" xlink:href="#F" y="66.891"/></g><g class="G B"><use x="797.766" xlink:href="#F" y="81.601"/></g><g class="G B"><use x="694.087" xlink:href="#F" y="10.081"/></g><g class="G B"><use x="726.522" xlink:href="#F" y="50.425"/></g><g class="G B"><use x="738.47" xlink:href="#F" y="65.366"/></g><g class="G B"><use x="757.826" xlink:href="#F" y="89.445"/></g><g class="G B"><use x="770.442" xlink:href="#F" y="105.134"/></g><g class="G B"><use x="776.941" xlink:href="#F" y="112.811"/></g><g class="G B"><use x="790.665" xlink:href="#F" y="129.511"/></g><g class="G B"><use x="811.989" xlink:href="#F" y="154.154"/></g><g class="G B"><use x="813.367" xlink:href="#F" y="127.6"/></g><g class="G B"><use x="801.78" xlink:href="#F" y="61.424"/></g><g class="G B"><use x="807.987" xlink:href="#F" y="61.002"/></g><g class="G B"><use x="808.898" xlink:href="#F" y="72.29"/></g><g class="G B"><use x="811.951" xlink:href="#F" y="109.934"/></g><g class="G B"><use x="754.318" xlink:href="#F" y="118.578"/></g><g class="G B"><use x="703.735" xlink:href="#F" y="71.602"/></g><g class="G B"><use x="711.274" xlink:href="#F" y="124.689"/></g><g class="G B"><use x="719.303" xlink:href="#F" y="69.335"/></g><g class="G B"><use x="726.893" xlink:href="#F" y="122.444"/></g><g class="G B"><use x="777.492" xlink:href="#F" y="73.49"/></g><g class="G B"><use x="784.559" xlink:href="#F" y="93.09"/></g><g class="G B"><use x="789.434" xlink:href="#F" y="111.778"/></g><g class="G B"><use x="793.6" xlink:href="#F" y="85.179"/></g><g class="G B"><use x="795.826" xlink:href="#F" y="111.2"/></g><g class="G B"><use x="707.043" xlink:href="#F" y="95.001"/></g><g class="G B"><use x="721.981" xlink:href="#F" y="88.014"/></g><g class="G B"><use x="747.811" xlink:href="#F" y="76.835"/></g><g class="G B"><use x="763.382" xlink:href="#F" y="54.162"/></g><g class="G B"><use x="767.047" xlink:href="#F" y="43.611"/></g><g class="G B"><use x="785.458" xlink:href="#F" y="22.652"/></g><g class="G B"><use x="716.626" xlink:href="#F" y="38.203"/></g><g class="G B"><use x="776.851" xlink:href="#F" y="35.418"/></g><path d="M754.318 118.578l16.124-13.444m14.117-12.044l-14.117 12.044m7.05-31.644l2.8 3.467 4.267 16.133m-26.733-3.645l19.666-15.955m-19.666 15.955l-10.015-12.611m15.571-22.672l-4.166 12.942-1.525 1.96-5.972 4.875-3.908 2.895m15.571-22.672l-23.299 9.284-1.612 1.92m-.001 0l-11.948-14.942m0 .001l27.897-22.51m0-.001l12.628 15.697m0 0l18.592 23.279m12.127 14.711L785.639 66.89m7.961 18.289l4.166-3.578m-1.94 29.599L793.6 85.179m2.226 26.021l-6.392.578m0 0l-12.493 1.033m13.724 16.7l-7.533-9.193-.152-.182-6.04-7.324m13.725 16.699l21.324 24.644m1.378-26.555l1.874 23.548-3.252 3.007m-.038-44.221l1.417 17.666m-4.47-55.31l3.053 37.643m-3.053-37.643l-.911-11.289m0 .001l-2.606.178-3.601.244m0 0l-24.929-26.006m0 0l8.607-12.766m-40.737-6.782l8.484.8 8.636 1.156 7.185 1.2 2.714.54 4.421.882 6.742 1.567 1 .233 1.557.404m-40.739-6.782l-28.095 22.333m0 0l2.677 31.132m0 0l2.678 18.679m0 0l4.912 34.43m0 0l-15.618 2.244m-.001.001l-4.232-29.688m.001 0l-3.308-23.399m0 0l-9.648-61.52" class="G L O P" stroke="#9467bd"/><path d="M85.377 401.252a8.66 8.66 0 0 0 8.66-8.66 8.66 8.66 0 0 0-8.66-8.66 8.66 8.66 0 0 0-8.66 8.66 8.66 8.66 0 0 0 8.66 8.66z" fill="#1f77b4" class="M"/><path d="M100.909 260.358a8.66 8.66 0 0 0 8.66-8.66 8.66 8.66 0 0 0-8.66-8.66 8.66 8.66 0 0 0-8.66 8.66 8.66 8.66 0 0 0 8.66 8.66z" fill="#ff7f0e" class="M"/><path d="M267.185 246.347a8.66 8.66 0 0 0 8.66-8.66 8.66 8.66 0 0 0-8.66-8.66 8.66 8.66 0 0 0-8.66 8.66 8.66 8.66 0 0 0 8.66 8.66z" fill="#2ca02c" class="M"/><path d="M446.144 238.916a8.66 8.66 0 0 0 8.66-8.66 8.66 8.66 0 0 0-8.66-8.66 8.66 8.66 0 0 0-8.66 8.66 8.66 8.66 0 0 0 8.66 8.66z" fill="#d62728" class="M"/><path d="M683.629 225.82a8.66 8.66 0 0 0 8.66-8.66 8.66 8.66 0 0 0-8.66-8.66 8.66 8.66 0 0 0-8.66 8.66 8.66 8.66 0 0 0 8.66 8.66z" fill="#9467bd" class="M"/><defs><path d="M0 0v3.5" id="G" class="H I J K"/></defs><g fill="#444"><use x="82.417" xlink:href="#G" y="482.665" class="J K"/><g transform="matrix(.14 0 0 -.14 77.963566 500.303114)"><defs><path d="M2034 4250q-487 0-733-480-245-479-245-1442 0-959 245-1439 246-480 733-480 491 0 736 480 246 480 246 1439 0 963-246 1442-245 480-736 480zm0 500q785 0 1199-621 414-620 414-1801 0-1178-414-1799Q2819-91 2034-91q-784 0-1198 620-414 621-414 1799 0 1181 414 1801 414 621 1198 621z" id="H" transform="scale(.015625)" class="H I"/></defs><use xlink:href="#H"/></g><use x="174.323" xlink:href="#G" y="482.665" class="J K"/><g transform="matrix(.14 0 0 -.14 165.816011 500.303114)"><defs><path d="M691 4666h2478v-532H1269V2991q137 47 274 70 138 23 276 23 781 0 1237-428 457-428 457-1159 0-753-469-1171Q2575-91 1722-91q-294 0-599 50Q819 9 494 109v635q281-153 581-228 300-75 634-75 541 0 856 284 316 284 316 772 0 487-316 771-315 285-856 285-253 0-505-56-251-56-513-175v2344z" id="I" transform="scale(.015625)" class="H I"/><path d="M581 4863h578V1991l1716 1509h734L1753 1863 3688 0h-750L1159 1709V0H581v4863z" id="J" transform="scale(.015625)" class="H I"/></defs><use xlink:href="#I"/><use x="63.623" xlink:href="#J"/></g><use x="266.229" xlink:href="#G" y="482.665" class="J K"/><g transform="matrix(.14 0 0 -.14 253.268143 500.303114)"><defs><path d="M794 531h1031v3560L703 3866v575l1116 225h631V531h1031V0H794v531z" id="K" transform="scale(.015625)" class="H I"/></defs><use xlink:href="#K"/><use x="63.623" xlink:href="#H"/><use x="127.246" xlink:href="#J"/></g><use x="358.135" xlink:href="#G" y="482.665" class="J K"/><g transform="matrix(.14 0 0 -.14 345.174026 500.303114)"><use xlink:href="#K"/><use x="63.623" xlink:href="#I"/><use x="127.246" xlink:href="#J"/></g><use x="450.041" xlink:href="#G" y="482.665" class="J K"/><g transform="matrix(.14 0 0 -.14 437.079908 500.303114)"><defs><path d="M1228 531h2203V0H469v531q359 372 979 998 621 627 780 809 303 340 423 576 121 236 121 464 0 372-261 606-261 235-680 235-297 0-627-103-329-103-704-313v638q381 153 712 231 332 78 607 78 725 0 1156-363 431-362 431-968 0-288-108-546-107-257-392-607-78-91-497-524-418-433-1181-1211z" id="L" transform="scale(.015625)" class="H I"/></defs><use xlink:href="#L"/><use x="63.623" xlink:href="#H"/><use x="127.246" xlink:href="#J"/></g><use x="541.947" xlink:href="#G" y="482.665" class="J K"/><g transform="matrix(.14 0 0 -.14 528.98579 500.303114)"><use xlink:href="#L"/><use x="63.623" xlink:href="#I"/><use x="127.246" xlink:href="#J"/></g><use x="633.853" xlink:href="#G" y="482.665" class="J K"/><g transform="matrix(.14 0 0 -.14 620.891673 500.303114)"><defs><path d="M2597 2516q453-97 707-404 255-306 255-756 0-690-475-1069Q2609-91 1734-91q-293 0-604 58-311 58-642 174v609q262-153 574-231 313-78 654-78 593 0 904 234 311 234 311 681 0 413-289 645-289 233-804 233h-544v519h569q465 0 712 186 247 186 247 536 0 359-255 551-254 193-729 193-260 0-557-57-297-56-653-174v562q360 100 674 150 314 50 592 50 719 0 1137-327 419-326 419-882 0-388-222-655-222-267-631-370z" id="M" transform="scale(.015625)" class="H I"/></defs><use xlink:href="#M"/><use x="63.623" xlink:href="#H"/><use x="127.246" xlink:href="#J"/></g><use x="725.758" xlink:href="#G" y="482.665" class="J K"/><g transform="matrix(.14 0 0 -.14 712.797555 500.303114)"><use xlink:href="#M"/><use x="63.623" xlink:href="#I"/><use x="127.246" xlink:href="#J"/></g><use x="817.664" xlink:href="#G" y="482.665" class="J K"/><g transform="matrix(.14 0 0 -.14 804.703438 500.303114)"><defs><path d="M2419 4116L825 1625h1594v2491zm-166 550h794V1625h666v-525h-666V0h-628v1100H313v609l1940 2957z" id="N" transform="scale(.015625)" class="H I"/></defs><use xlink:href="#N"/><use x="63.623" xlink:href="#H"/><use x="127.246" xlink:href="#J"/></g><g transform="matrix(.14 0 0 -.14 744.135937 467.852489)"><defs><path d="M2638 2394h1553V172Q3828 56 3453-3q-375-60-869-60-1037 0-1615 617-578 618-578 1730 0 713 286 1249 286 536 823 818 538 283 1259 283 732 0 1363-268l-206-469q-619 262-1191 262-834 0-1303-497-469-496-469-1378 0-925 451-1403 452-478 1327-478 475 0 928 110v1406H2638v475z" id="O" transform="scale(.015625)" class="H I"/><path d="M1997-63q-759 0-1199 463-439 463-439 1284 0 829 408 1316 408 488 1096 488 643 0 1018-424 375-423 375-1117v-328H897q16-603 305-916 289-312 814-312 553 0 1093 231V159Q2834 41 2589-11q-245-52-592-52zm-141 3116q-412 0-658-269-245-268-289-743h1791q0 490-219 751-218 261-625 261z" id="P" transform="scale(.015625)" class="H I"/><path d="M2894 0v2216q0 418-191 624-190 207-597 207-537 0-787-291-250-290-250-959V0H550v3425h422l84-469h25q160 253 447 392 288 140 641 140 619 0 931-299 313-298 313-955V0h-519z" id="Q" transform="scale(.015625)" class="H I"/><path d="M2113 3488q228 0 409-38l-72-481q-212 47-375 47-416 0-711-338-295-337-295-840V0H550v3425h428l60-634h25q190 334 459 515 269 182 591 182z" id="R" transform="scale(.015625)" class="H I"/><path d="M2656 0l-103 488h-25q-256-322-511-437-254-114-636-114-509 0-798 263-289 263-289 747 0 1037 1659 1087l581 19v213q0 403-173 595-173 192-555 192-428 0-968-262l-160 397q253 137 554 215 302 78 606 78 612 0 907-272 296-271 296-871V0h-385zM1484 366q485 0 761 265 277 266 277 744v309l-519-21q-619-22-892-193-273-170-273-529 0-282 170-429 170-146 476-146z" id="S" transform="scale(.015625)" class="H I"/><path d="M1656 366q138 0 266 20 128 20 203 42V31q-84-40-248-67-164-27-296-27-993 0-993 1047v2038H97v250l491 216 218 731h300v-794h994v-403h-994V1006q0-309 147-475 147-165 403-165z" id="T" transform="scale(.015625)" class="H I"/><path d="M1069 0H550v3425h519V0zM506 4353q0 178 87 261 88 83 220 83 125 0 215-85 91-84 91-259 0-175-91-261-90-86-215-86-132 0-220 86-87 86-87 261z" id="U" transform="scale(.015625)" class="H I"/><path d="M3506 1716q0-838-422-1309Q2663-63 1919-63q-460 0-816 216-356 216-550 619-194 403-194 944 0 837 419 1304 419 468 1163 468 718 0 1141-479 424-478 424-1293zm-2609 0q0-657 262-1001 263-343 772-343 510 0 774 342 264 342 264 1002 0 653-264 992-264 339-780 339-509 0-769-335-259-334-259-996z" id="V" transform="scale(.015625)" class="H I"/></defs><use xlink:href="#O"/><use x="72.803" xlink:href="#P"/><use x="128.906" xlink:href="#Q"/><use x="190.283" xlink:href="#P"/><use x="246.387" xlink:href="#R"/><use x="287.207" xlink:href="#S"/><use x="342.822" xlink:href="#T"/><use x="378.125" xlink:href="#U"/><use x="403.418" xlink:href="#V"/><use x="463.818" xlink:href="#Q"/></g></g><defs><path d="M0 0h-3.5" id="W" class="H I J K"/></defs><g fill="#444"><use x="36.464" xlink:href="#W" y="466.771" class="J K"/><g transform="matrix(.14 0 0 -.14 7.2 472.08947)"><defs><path d="M684 794h660V0H684v794z" id="X" transform="scale(.015625)" class="H I"/><path d="M2113 2584q-425 0-674-291-248-290-248-796 0-503 248-796 249-292 674-292 425 0 673 292 248 293 248 796 0 506-248 796-248 291-673 291zm1253 1979v-575q-238 112-480 171-242 60-480 60-625 0-955-422-329-422-376-1275 184 272 462 417 279 145 613 145 703 0 1111-427 408-426 408-1160 0-719-425-1154Q2819-91 2113-91q-810 0-1238 620-428 621-428 1799 0 1106 525 1764 525 658 1409 658 238 0 480-47 242-47 505-140z" id="Y" transform="scale(.015625)" class="H I"/></defs><use xlink:href="#L"/><use x="63.623" xlink:href="#X"/><use x="95.41" xlink:href="#Y"/></g><use x="36.464" xlink:href="#W" y="434.981" class="J K"/><g transform="matrix(.14 0 0 -.14 7.2 440.299997)"><defs><path d="M2034 2216q-450 0-708-241-257-241-257-662 0-422 257-663 258-241 708-241 450 0 709 242 260 243 260 662 0 421-258 662-257 241-711 241zm-631 268q-406 100-633 378-226 279-226 679 0 559 398 884 399 325 1092 325 697 0 1094-325 397-325 397-884 0-400-227-679-226-278-629-378 456-106 710-416 255-309 255-755 0-679-414-1042Q2806-91 2034-91q-771 0-1186 362-414 363-414 1042 0 446 256 755 257 310 713 416zm-231 997q0-362 226-565 227-203 636-203 407 0 636 203 230 203 230 565 0 363-230 566-229 203-636 203-409 0-636-203-226-203-226-566z" id="Z" transform="scale(.015625)" class="H I"/></defs><use xlink:href="#L"/><use x="63.623" xlink:href="#X"/><use x="95.41" xlink:href="#Z"/></g><use x="36.464" xlink:href="#W" y="403.192" class="J K"/><g transform="matrix(.14 0 0 -.14 7.2 408.510523)"><use xlink:href="#M"/><use x="63.623" xlink:href="#X"/><use x="95.41" xlink:href="#H"/></g><use x="36.464" xlink:href="#W" y="371.402" class="J K"/><g transform="matrix(.14 0 0 -.14 7.2 376.721049)"><use xlink:href="#M"/><use x="63.623" xlink:href="#X"/><use x="95.41" xlink:href="#L"/></g><use x="36.464" xlink:href="#W" y="339.613" class="J K"/><g transform="matrix(.14 0 0 -.14 7.2 344.931576)"><use xlink:href="#M"/><use x="63.623" xlink:href="#X"/><use x="95.41" xlink:href="#N"/></g><use x="36.464" xlink:href="#W" y="307.823" class="J K"/><g transform="matrix(.14 0 0 -.14 7.2 313.142102)"><use xlink:href="#M"/><use x="63.623" xlink:href="#X"/><use x="95.41" xlink:href="#Y"/></g><use x="36.464" xlink:href="#W" y="276.034" class="J K"/><g transform="matrix(.14 0 0 -.14 7.2 281.352628)"><use xlink:href="#M"/><use x="63.623" xlink:href="#X"/><use x="95.41" xlink:href="#Z"/></g><use x="36.464" xlink:href="#W" y="244.244" class="J K"/><g transform="matrix(.14 0 0 -.14 7.2 249.563155)"><use xlink:href="#N"/><use x="63.623" xlink:href="#X"/><use x="95.41" xlink:href="#H"/></g><use x="36.464" xlink:href="#W" y="212.455" class="J K"/><g transform="matrix(.14 0 0 -.14 7.2 217.773681)"><use xlink:href="#N"/><use x="63.623" xlink:href="#X"/><use x="95.41" xlink:href="#L"/></g><g transform="matrix(0 -.14 -.14 0 57.835625 285.120975)"><defs><path d="M4275 2328q0-1131-614-1730Q3047 0 1894 0H628v4569h1400q1066 0 1656-591 591-590 591-1650zm-562-19q0 894-449 1347-448 453-1333 453h-772V459h647q950 0 1428 467 479 468 479 1383z" id="a" transform="scale(.015625)" class="H I"/><path d="M2759 934q0-478-356-738Q2047-63 1403-63 722-63 341 153v481q247-125 529-197 283-71 546-71 406 0 624 129 219 130 219 396 0 200-173 342-173 142-677 336-478 178-680 311-201 133-300 301-98 169-98 403 0 419 341 661 341 243 934 243 553 0 1082-225l-185-422q-515 212-934 212-369 0-557-116-187-115-187-318 0-138 70-235 71-96 227-184 156-87 600-253 609-222 823-447 214-225 214-566z" id="b" transform="scale(.015625)" class="H I"/><path d="M1919-63q-744 0-1152 458-408 458-408 1296 0 859 414 1328 415 469 1180 469 247 0 494-54 247-53 387-125l-159-440q-172 69-375 114-203 45-359 45-1044 0-1044-1331 0-631 254-969 255-337 755-337 428 0 878 184V116Q2441-63 1919-63z" id="c" transform="scale(.015625)" class="H I"/><path d="M256 1753q0 828 242 1550 243 722 699 1266h506q-450-603-677-1325-226-722-226-1485 0-750 231-1466 232-715 666-1306h-500Q738-481 497 228 256 938 256 1753z" id="d" transform="scale(.015625)" class="H I"/><path d="M1063 1753q134 191 409 500l1106 1172h616L1806 1966 3291 0h-628L1453 1619l-390-338V0H550v4863h513V2284q0-171-25-531h25z" id="e" transform="scale(.015625)" class="H I"/><path d="M4916 0v2228q0 410-175 614-175 205-544 205-484 0-716-278-231-278-231-856V0h-519v2228q0 410-175 614-175 205-547 205-487 0-714-292-226-292-226-958V0H550v3425h422l84-469h25q147 250 414 391 268 141 599 141 803 0 1050-582h25q153 269 443 425 291 157 663 157 581 0 870-299 289-298 289-955V0h-518z" id="f" transform="scale(.015625)" class="H I"/><path d="M1638 1753q0-822-243-1532-242-709-698-1234H197Q631-425 862 292q232 717 232 1467 0 763-227 1485-226 722-676 1325h506q459-547 700-1271 241-723 241-1545z" id="g" transform="scale(.015625)" class="H I"/></defs><use xlink:href="#a"/><use x="72.9" xlink:href="#U"/><use x="98.193" xlink:href="#b"/><use x="145.898" xlink:href="#T"/><use x="181.201" xlink:href="#S"/><use x="236.816" xlink:href="#Q"/><use x="298.193" xlink:href="#c"/><use x="345.801" xlink:href="#P"/><use x="401.904" xlink:href="#EO"/><use x="427.881" xlink:href="#d"/><use x="457.471" xlink:href="#e"/><use x="509.961" xlink:href="#f"/><use x="602.979" xlink:href="#g"/></g></g><g stroke-linecap="square" class="L"><path d="M82.472 511.415v-16.246h.055v-3.308h.055v-32.967h.074v-12.962h.441v-.175h.46v-3.024h.698v-6.447h.515v-.297h.11v-21.478h.496v-21.919h3.106v-3.624h.202v-.958h.055v-3.308h.055v-32.967h.074v-12.962h.441v-.175h.46v-3.024h.698v-6.447h.515v-.297h.11v-21.478h.496v-21.919h3.106v-3.624h2.61v-4.568h.496v-21.919h3.106v-3.624h24.851v-.961h141.351v-9.427h.074v-3.624h166.478v-3.807h12.481v-3.624h237.411v-9.472h.074v-3.624h134.036" stroke="gray" stroke-width="2" class="M"/><path d="M36.464 482.665V196.56m0 286.105h781.2" stroke-linejoin="miter" class="J K"/></g><defs><clipPath id="h"><path d="M36.464 7.2h126v149.836h-126z" class="H I"/></clipPath><clipPath id="i"><path d="M200.264 7.2h126v149.836h-126z" class="H I"/></clipPath><clipPath id="j"><path d="M364.064 7.2h126v149.836h-126z" class="H I"/></clipPath><clipPath id="k"><path d="M527.864 7.2h126v149.836h-126z" class="H I"/></clipPath><clipPath id="l"><path d="M691.664 7.2h126v149.836h-126z" class="H I"/></clipPath><clipPath id="m"><path d="M36.464 196.56h781.2v286.105h-781.2z" class="H I"/></clipPath></defs></svg>