<svg xmlns="http://www.w3.org/2000/svg" xmlns:xlink="http://www.w3.org/1999/xlink" height="548.843" viewBox="0 0 760.496 411.632" width="1013.995" stroke-linecap="butt" stroke-linejoin="round" xmlns:v="https://vecta.io/nano"><style><![CDATA[.B{fill:#999}.C{clip-path:url(#O)}.D{clip-path:url(#P)}.E{stroke-linecap:butt}.F{stroke-linejoin:round}]]></style><g fill="none" stroke="#999"><path d="M141.941 45.931l24.629 30.587" class="C"/><path d="M141.941 45.931l21.545 2.032 21.931 2.935 18.247 3.047 6.892 1.371 11.227 2.24 17.121 3.979 2.54.593 3.954 1.027m-135.411 7.268l31.954-24.492m24.629 30.587l32.07 39.864M95.723 133.684l70.847-57.167m32.07 39.865l5.024 6.242m3.992 5.005l-3.992-5.006M153.42 205.75l9.449-8.335 7.967-7.026 11.634-10.265 21.194-57.5m42.192 52.877l-38.199-47.872" class="C"/><path d="M276.653 212.86l-30.798-37.359m-20.688 16.761l20.689-16.761m59.068 13.714l-28.27 23.646m-10.581 9.085l10.58-9.086M70.592 102.646l39.394-32.223M15.281 33.967l-1.928-2.737m1.928 2.737l2.035 14.046.604 4.362m8.344-4.954l-4.429-5.384-6.554-8.07" class="C"/><path d="M65.607 96.455L29.673 51.822l-3.41-4.402m-8.343 4.955l4.399-.767 3.945-4.187m99.803 124.209l-30.343-37.946m-25.132-31.038l1.024 1.27 16.285 20.226 7.821 9.543" class="C"/><path d="M77.39 181.709l34.905-5.423 11.098-1.665 2.673-2.991m23.722 29.125l-8.031-9.548-4.742-5.914-2.797-3.493-.274-.344-7.877-9.825m63.265-28.455l-59.171 23.578-4.095 4.876m23.722 29.125l3.632 4.994m4.776 5.92l-4.776-5.92m-37.351 17.326l37.351-17.325m21.803 27.031l49.944-40.519m-17.905 80.361l-32.04-39.842" class="C"/><path d="M158.196 211.669l17.026 21.112m48.544 59.34l-16.504-19.498m-32.939 28.104l2.373-2.026 30.566-26.078m35.852-30.587l-35.852 30.587m51.358 61.907l-19.13-23.346-.386-.463-15.339-18.6m31.728-2.625l-31.727 2.624m62.439 73.279L258.62 334.53m0 0l57.654-4.853m-3.499 67.437l-26.57-31.715m30.07-35.722l4.759 59.802-8.258 7.635m-.1-112.302l3.598 44.864m-29.426-168.057l13.219 17.545 3.915 2.827m-1.371-21.444l-6.618.451-9.145.621m-53.483-66.044l37.552 46.89 15.93 19.153m17.134 20.373l.942 7.223m-2.312-28.667l1.371 21.445m.942 7.223l7.753 95.598m-.001-.001l-40.949 3.217m-97.404 12.698l-8.01 6.038m-128.458-119.3L18.982 59.842l-.415-2.816-.647-4.65m59.47 129.333l-39.536 5.756m8.4 59.424l-8.4-59.424m47.375 48.928l-38.122 16.535m0 0l-.852-6.038m1.631 11.495l-.78-5.457m9.895 69.356l-9.115-63.899m48.779 58.199l-39.664 5.7m59.068-99.209l-1.833-6.428" class="C"/><path d="M85.229 236.393l30.84-13.318m1.362 6.738l-1.362-6.738M77.39 181.709l6.802 47.438m-17.309-123.47l10.507 76.032m7.839 54.684l.805 5.632m-1.842-12.878l1.037 7.246m.805 5.632l10.631 74.56m128.502-124.323l7.11 8.804 10.837 40.97m22.959-20.09l-22.959 20.09m0 0l12.379 47.46m5.277 22.133l-5.277-22.133m16.234-1.467l-16.234 1.467" class="C"/><path d="M271.727 288.029l-5.654-66.083m-148.642 7.867l40.765-18.143m-72.162 30.355l31.397-12.212m-69.545 28.572l38.148-16.36m-1.842-12.878L46.254 246.89m67.982-30.243l-30.044 12.5m74.004-17.478l25.563-20.175 6.588-9.345 2.604-8.888 14.705-45.632m-57.868 73.126l-35.552 15.892m75.096-73.471l-10.58 32.867-3.872 4.977-15.167 12.381-9.925 7.353m48.852-84.372l-9.308 26.794m18.324-15.547l2.609-5.152 23.1-26.902m12.032-32.421l-46.757 53.228M66.883 105.677l3.709-3.03m-4.985-6.192l1.276 9.221" class="C"/><path d="M70.592 102.646l-4.986-6.191" class="C"/></g><defs><path d="M0 1.871a1.87 1.87 0 0 0 1.323-.548A1.87 1.87 0 0 0 1.871 0a1.87 1.87 0 0 0-.548-1.323A1.87 1.87 0 0 0 0-1.871a1.87 1.87 0 0 0-1.323.548A1.87 1.87 0 0 0-1.871 0a1.87 1.87 0 0 0 .548 1.323A1.87 1.87 0 0 0 0 1.871z" id="A" class="E F"/></defs><g class="C B"><use x="141.941" xlink:href="#A" y="45.931"/></g><g class="C B"><use x="166.57" xlink:href="#A" y="76.518"/></g><g class="C B"><use x="203.664" xlink:href="#A" y="122.623"/></g><g class="C B"><use x="245.856" xlink:href="#A" y="175.501"/></g><g class="C B"><use x="276.653" xlink:href="#A" y="212.86"/></g><g class="C B"><use x="109.987" xlink:href="#A" y="70.423"/></g><g class="C B"><use x="13.354" xlink:href="#A" y="31.23"/></g><g class="C B"><use x="15.281" xlink:href="#A" y="33.967"/></g><g class="C B"><use x="26.264" xlink:href="#A" y="47.421"/></g><g class="C B"><use x="95.723" xlink:href="#A" y="133.684"/></g><g class="C B"><use x="126.067" xlink:href="#A" y="171.63"/></g><g class="C B"><use x="153.42" xlink:href="#A" y="205.75"/></g><g class="C B"><use x="175.223" xlink:href="#A" y="232.781"/></g><g class="C B"><use x="207.262" xlink:href="#A" y="272.623"/></g><g class="C B"><use x="223.766" xlink:href="#A" y="292.121"/></g><g class="C B"><use x="258.62" xlink:href="#A" y="334.53"/></g><g class="C B"><use x="286.205" xlink:href="#A" y="365.399"/></g><g class="C B"><use x="312.775" xlink:href="#A" y="397.114"/></g><g class="C B"><use x="316.275" xlink:href="#A" y="329.677"/></g><g class="C B"><use x="286.848" xlink:href="#A" y="161.619"/></g><g class="C B"><use x="303.981" xlink:href="#A" y="181.991"/></g><g class="C B"><use x="302.611" xlink:href="#A" y="160.547"/></g><g class="C B"><use x="304.924" xlink:href="#A" y="189.215"/></g><g class="C B"><use x="312.676" xlink:href="#A" y="284.812"/></g><g class="C B"><use x="166.313" xlink:href="#A" y="306.765"/></g><g class="C B"><use x="174.323" xlink:href="#A" y="300.727"/></g><g class="C B"><use x="17.92" xlink:href="#A" y="52.375"/></g><g class="C B"><use x="37.855" xlink:href="#A" y="187.465"/></g><g class="C B"><use x="47.107" xlink:href="#A" y="252.928"/></g><g class="C B"><use x="57.001" xlink:href="#A" y="322.284"/></g><g class="C B"><use x="116.069" xlink:href="#A" y="223.075"/></g><g class="C B"><use x="77.39" xlink:href="#A" y="181.709"/></g><g class="C B"><use x="85.229" xlink:href="#A" y="236.393"/></g><g class="C B"><use x="96.665" xlink:href="#A" y="316.584"/></g><g class="C B"><use x="225.167" xlink:href="#A" y="192.262"/></g><g class="C B"><use x="243.114" xlink:href="#A" y="242.036"/></g><g class="C B"><use x="255.493" xlink:href="#A" y="289.496"/></g><g class="C B"><use x="260.77" xlink:href="#A" y="311.629"/></g><g class="C B"><use x="266.073" xlink:href="#A" y="221.946"/></g><g class="C B"><use x="271.727" xlink:href="#A" y="288.029"/></g><g class="C B"><use x="117.431" xlink:href="#A" y="229.813"/></g><g class="C B"><use x="47.886" xlink:href="#A" y="258.385"/></g><g class="C B"><use x="46.254" xlink:href="#A" y="246.889"/></g><g class="C B"><use x="86.034" xlink:href="#A" y="242.025"/></g><g class="C B"><use x="84.192" xlink:href="#A" y="229.147"/></g><g class="C B"><use x="158.196" xlink:href="#A" y="211.669"/></g><g class="C B"><use x="149.788" xlink:href="#A" y="200.755"/></g><g class="C B"><use x="189.332" xlink:href="#A" y="143.176"/></g><g class="C B"><use x="207.656" xlink:href="#A" y="127.629"/></g><g class="C B"><use x="198.64" xlink:href="#A" y="116.382"/></g><g class="C B"><use x="233.365" xlink:href="#A" y="95.575"/></g><g class="C B"><use x="245.397" xlink:href="#A" y="63.154"/></g><g class="C B"><use x="114.236" xlink:href="#A" y="216.647"/></g><g class="C B"><use x="66.883" xlink:href="#A" y="105.677"/></g><g class="C B"><use x="65.607" xlink:href="#A" y="96.455"/></g><g class="C B"><use x="70.592" xlink:href="#A" y="102.646"/></g><g transform="matrix(.14 0 0 -.14 149.270189 17.912187)" fill="#444"><defs><path d="M628 0v4569h531V0H628z" id="B" transform="scale(.015625)" class="E F"/><path d="M2894 0v2216q0 418-191 624-190 207-597 207-537 0-787-291-250-290-250-959V0H550v3425h422l84-469h25q160 253 447 392 288 140 641 140 619 0 931-299 313-298 313-955V0h-519z" id="C" transform="scale(.015625)" class="E F"/><path d="M1069 0H550v3425h519V0zM506 4353q0 178 87 261 88 83 220 83 125 0 215-85 91-84 91-259 0-175-91-261-90-86-215-86-132 0-220 86-87 86-87 261z" id="D" transform="scale(.015625)" class="E F"/><path d="M1656 366q138 0 266 20 128 20 203 42V31q-84-40-248-67-164-27-296-27-993 0-993 1047v2038H97v250l491 216 218 731h300v-794h994v-403h-994V1006q0-309 147-475 147-165 403-165z" id="E" transform="scale(.015625)" class="E F"/><path d="M2656 0l-103 488h-25q-256-322-511-437-254-114-636-114-509 0-798 263-289 263-289 747 0 1037 1659 1087l581 19v213q0 403-173 595-173 192-555 192-428 0-968-262l-160 397q253 137 554 215 302 78 606 78 612 0 907-272 296-271 296-871V0h-385zM1484 366q485 0 761 265 277 266 277 744v309l-519-21q-619-22-892-193-273-170-273-529 0-282 170-429 170-146 476-146z" id="F" transform="scale(.015625)" class="E F"/><path d="M1069 0H550v4863h519V0z" id="G" transform="scale(.015625)" class="E F"/></defs><use xlink:href="#B"/><use x="27.881" xlink:href="#C"/><use x="89.258" xlink:href="#D"/><use x="114.551" xlink:href="#E"/><use x="149.854" xlink:href="#D"/><use x="175.146" xlink:href="#F"/><use x="230.762" xlink:href="#G"/></g><g fill="none" stroke="#999"><path d="M568.05 45.931l24.629 30.587" class="D"/><path d="M568.05 45.931l21.545 2.032 21.931 2.935 18.247 3.047 6.892 1.371 11.227 2.24 17.121 3.979 2.54.593 3.954 1.027M568.05 45.931l-71.348 56.715m95.977-26.128l32.07 39.864m-102.917 17.302l70.847-57.167M702.762 212.86l-30.798-37.359m-20.688 16.761l20.689-16.761m0 0l-47.216-59.119" class="D"/><path d="M671.965 175.501l-47.216-59.119m106.284 72.833l-28.27 23.646m-10.581 9.085l10.58-9.086M439.463 31.23l57.239 71.416M439.463 31.23l24.501 156.235m88.212-15.835l-30.343-37.946m-25.131-31.038l1.024 1.27 16.285 20.226 7.821 9.543m-18.333 48.024l34.905-5.423 11.098-1.665 2.673-2.991m23.722 29.125l-8.031-9.548-4.742-5.914-2.797-3.493-.274-.344-7.877-9.825m63.265-28.455l-59.171 23.578-4.095 4.876m49.157 61.151l49.944-40.519m-17.905 80.361l-32.04-39.842" class="D"/><path d="M601.332 232.781l-25.435-32.026m73.978 91.366l-16.504-19.498m35.852-30.587l-35.852 30.587m0 0l-40.949 34.142m92.307 27.765l-19.13-23.346-.386-.463-15.339-18.6m31.728-2.625l-31.727 2.624m34.854 42.41l57.654-4.853m-57.654 4.853l54.155 62.584m3.5-67.437l4.759 59.802-8.258 7.635m-.099-112.302l3.598 44.864M728.72 160.547l-6.618.451-9.145.621m0 0l18.076 27.596" class="D"/><path d="M712.957 161.619l-63.308-66.044m79.071 64.972l2.313 28.668m0 0l7.753 95.598m0-.001l-40.949 3.217m-194.338-106.32l-39.536 5.756m8.4 59.424l-8.4-59.424m58.812 129.119l-39.664 5.7m-.001 0l-10.747-75.395" class="D"/><path d="M503.499 181.709l6.802 47.438m-6.802-47.438l-6.798-79.063m26.074 213.938l-12.473-87.438m140.974-36.884l7.11 8.804 10.837 40.97m22.959-20.09l-22.959 20.09m0 0l12.379 47.46m16.234-1.467l-16.234 1.467m16.234-1.467l-5.654-66.083" class="D"/><path d="M510.301 229.147l-37.938 17.743m37.938-17.743l65.596-28.392m39.544-57.579l-10.58 32.867-3.872 4.977-15.167 12.381-9.925 7.353m48.852-84.372l-9.308 26.794m9.308-26.794l24.899-20.807m21.858-32.421l-21.858 32.421" class="D"/></g><defs><path d="M0 1.871a1.87 1.87 0 0 0 1.323-.548A1.87 1.87 0 0 0 1.871 0a1.87 1.87 0 0 0-.548-1.323A1.87 1.87 0 0 0 0-1.871a1.87 1.87 0 0 0-1.323.548A1.87 1.87 0 0 0-1.871 0a1.87 1.87 0 0 0 .548 1.323A1.87 1.87 0 0 0 0 1.871z" id="H" class="E F"/></defs><g class="D B"><use x="568.05" xlink:href="#H" y="45.931"/></g><g class="D B"><use x="592.679" xlink:href="#H" y="76.518"/></g><g class="D B"><use x="671.965" xlink:href="#H" y="175.501"/></g><g class="D B"><use x="702.762" xlink:href="#H" y="212.86"/></g><g class="D B"><use x="439.463" xlink:href="#H" y="31.23"/></g><g class="D B"><use x="521.832" xlink:href="#H" y="133.684"/></g><g class="D B"><use x="552.176" xlink:href="#H" y="171.63"/></g><g class="D B"><use x="601.332" xlink:href="#H" y="232.781"/></g><g class="D B"><use x="633.371" xlink:href="#H" y="272.623"/></g><g class="D B"><use x="649.875" xlink:href="#H" y="292.121"/></g><g class="D B"><use x="684.729" xlink:href="#H" y="334.53"/></g><g class="D B"><use x="738.884" xlink:href="#H" y="397.114"/></g><g class="D B"><use x="742.384" xlink:href="#H" y="329.677"/></g><g class="D B"><use x="712.957" xlink:href="#H" y="161.619"/></g><g class="D B"><use x="728.72" xlink:href="#H" y="160.547"/></g><g class="D B"><use x="731.033" xlink:href="#H" y="189.215"/></g><g class="D B"><use x="738.786" xlink:href="#H" y="284.812"/></g><g class="D B"><use x="592.422" xlink:href="#H" y="306.765"/></g><g class="D B"><use x="463.964" xlink:href="#H" y="187.465"/></g><g class="D B"><use x="483.11" xlink:href="#H" y="322.284"/></g><g class="D B"><use x="503.499" xlink:href="#H" y="181.709"/></g><g class="D B"><use x="522.775" xlink:href="#H" y="316.584"/></g><g class="D B"><use x="651.276" xlink:href="#H" y="192.262"/></g><g class="D B"><use x="669.223" xlink:href="#H" y="242.036"/></g><g class="D B"><use x="681.602" xlink:href="#H" y="289.496"/></g><g class="D B"><use x="692.182" xlink:href="#H" y="221.946"/></g><g class="D B"><use x="697.836" xlink:href="#H" y="288.029"/></g><g class="D B"><use x="472.363" xlink:href="#H" y="246.889"/></g><g class="D B"><use x="510.301" xlink:href="#H" y="229.147"/></g><g class="D B"><use x="575.897" xlink:href="#H" y="200.755"/></g><g class="D B"><use x="615.441" xlink:href="#H" y="143.176"/></g><g class="D B"><use x="624.749" xlink:href="#H" y="116.382"/></g><g class="D B"><use x="671.506" xlink:href="#H" y="63.154"/></g><g class="D B"><use x="496.702" xlink:href="#H" y="102.646"/></g><g class="D B"><use x="649.648" xlink:href="#H" y="95.575"/></g><g transform="matrix(.14 0 0 -.14 560.986623 17.912187)" fill="#444"><defs><path d="M3206 1216q0-603-438-941Q2331-63 1581-63 769-63 331 147v512q282-118 613-187 331-69 656-69 531 0 800 201 269 202 269 562 0 237-96 388-95 152-319 280-223 129-679 291-637 228-911 540-273 313-273 816 0 528 396 840 397 313 1051 313 681 0 1253-250l-166-462q-566 237-1100 237-422 0-660-181-237-181-237-503 0-237 87-389 88-152 296-279 208-126 636-279 719-256 989-550 270-294 270-762z" id="I" transform="scale(.015625)" class="E F"/><path d="M4916 0v2228q0 410-175 614-175 205-544 205-484 0-716-278-231-278-231-856V0h-519v2228q0 410-175 614-175 205-547 205-487 0-714-292-226-292-226-958V0H550v3425h422l84-469h25q147 250 414 391 268 141 599 141 803 0 1050-582h25q153 269 443 425 291 157 663 157 581 0 870-299 289-298 289-955V0h-518z" id="J" transform="scale(.015625)" class="E F"/><path d="M2144-63q-335 0-612 123-276 124-463 381h-38q38-300 38-569v-1410H550v4963h422l72-469h25q200 282 465 407 266 125 610 125 681 0 1051-466 371-466 371-1306 0-844-377-1312Q2813-63 2144-63zm-75 3110q-525 0-760-291-234-290-240-925v-115q0-722 240-1033 241-311 772-311 444 0 695 359 252 360 252 991 0 641-252 983-251 342-707 342z" id="K" transform="scale(.015625)" class="E F"/><path d="M2094 3022h-872V0H703v3022H91v234l612 188v190q0 1263 1103 1263 272 0 638-109l-135-416q-300 97-512 97-294 0-435-196-140-195-140-626v-222h872v-403z" id="L" transform="scale(.015625)" class="E F"/><path d="M1997-63q-759 0-1199 463-439 463-439 1284 0 829 408 1316 408 488 1096 488 643 0 1018-424 375-423 375-1117v-328H897q16-603 305-916 289-312 814-312 553 0 1093 231V159Q2834 41 2589-11q-245-52-592-52zm-141 3116q-412 0-658-269-245-268-289-743h1791q0 490-219 751-218 261-625 261z" id="M" transform="scale(.015625)" class="E F"/><path d="M2881 459h-28Q2494-63 1778-63q-672 0-1046 459-373 460-373 1307 0 847 375 1316 375 469 1044 469 697 0 1069-507h41l-22 247-13 241v1394h519V0h-422l-69 459zm-1037-87q531 0 770 289 239 289 239 933v109q0 728-242 1039-242 311-773 311-457 0-699-355-242-354-242-1001 0-656 240-991 241-334 707-334z" id="N" transform="scale(.015625)" class="E F"/></defs><use xlink:href="#I"/><use x="54.883" xlink:href="#D"/><use x="80.176" xlink:href="#J"/><use x="173.193" xlink:href="#K"/><use x="234.473" xlink:href="#G"/><use x="259.766" xlink:href="#D"/><use x="285.059" xlink:href="#L"/><use x="318.945" xlink:href="#D"/><use x="344.238" xlink:href="#M"/><use x="400.342" xlink:href="#N"/></g><defs><clipPath id="O"><path d="M7.2 23.912h319.987v380.52H7.2z" class="E F"/></clipPath><clipPath id="P"><path d="M433.309 23.912h319.987v380.52H433.309z" class="E F"/></clipPath></defs></svg>