<?xml version="1.0" encoding="utf-8" standalone="no"?>
<!DOCTYPE svg PUBLIC "-//W3C//DTD SVG 1.1//EN"
  "http://www.w3.org/Graphics/SVG/1.1/DTD/svg11.dtd">
<!-- Created with matplotlib (https://matplotlib.org/) -->
<svg height="568.8pt" version="1.1" viewBox="0 0 302.011978 568.8" width="302.011978pt" xmlns="http://www.w3.org/2000/svg" xmlns:xlink="http://www.w3.org/1999/xlink">
 <metadata>
  <rdf:RDF xmlns:cc="http://creativecommons.org/ns#" xmlns:dc="http://purl.org/dc/elements/1.1/" xmlns:rdf="http://www.w3.org/1999/02/22-rdf-syntax-ns#">
   <cc:Work>
    <dc:type rdf:resource="http://purl.org/dc/dcmitype/StillImage"/>
    <dc:date>2021-04-18T13:14:48.039979</dc:date>
    <dc:format>image/svg+xml</dc:format>
    <dc:creator>
     <cc:Agent>
      <dc:title>Matplotlib v3.3.3, https://matplotlib.org/</dc:title>
     </cc:Agent>
    </dc:creator>
   </cc:Work>
  </rdf:RDF>
 </metadata>
 <defs>
  <style type="text/css">*{stroke-linecap:butt;stroke-linejoin:round;}</style>
 </defs>
 <g id="figure_1">
  <g id="patch_1">
   <path d="M 0 568.8 
L 302.011978 568.8 
L 302.011978 0 
L 0 0 
z
" style="fill:#ffffff;"/>
  </g>
  <g id="axes_1">
   <g id="LineCollection_1">
    <path clip-path="url(#pa6c3cc217d)" d="M 25.827288 536.4 
L 30.115472 530.840693 
L 20.273272 526.868418 
L 21.531992 517.966015 
L 31.153738 504.819005 
L 37.411784 488.657574 
L 56.278371 460.08161 
L 82.263486 409.343544 
L 90.726071 401.333259 
L 103.988862 368.775629 
L 98.55574 360.333371 
L 110.552699 339.241811 
L 120.288227 331.250307 
L 132.683426 334.584013 
L 153.427426 312.590945 
L 154.657701 291.086193 
L 165.943519 279.789156 
L 170.992624 258.894802 
L 189.098289 228.421912 
L 201.116583 221.547904 
L 214.329594 220.06417 
L 239.92358 174.246842 
L 238.295066 143.764561 
L 253.236151 122.964114 
L 255.575807 102.238793 
L 265.361115 93.073449 
L 264.365517 86.847401 
L 251.806756 90.049637 
L 250.434253 84.048966 
L 260.255119 68.056568 
L 271.882284 66.920291 
L 281.738707 47.547233 
L 255.867375 32.4 
" style="fill:none;stroke:#000000;stroke-width:3;"/>
   </g>
  </g>
 </g>
 <defs>
  <clipPath id="pa6c3cc217d">
   <rect height="554.4" width="287.611978" x="7.2" y="7.2"/>
  </clipPath>
 </defs>
</svg>
