<?xml version="1.0" encoding="utf-8" standalone="no"?>
<!DOCTYPE svg PUBLIC "-//W3C//DTD SVG 1.1//EN"
  "http://www.w3.org/Graphics/SVG/1.1/DTD/svg11.dtd">
<!-- Created with matplotlib (https://matplotlib.org/) -->
<svg height="568.8pt" version="1.1" viewBox="0 0 300.986963 568.8" width="300.986963pt" xmlns="http://www.w3.org/2000/svg" xmlns:xlink="http://www.w3.org/1999/xlink">
 <metadata>
  <rdf:RDF xmlns:cc="http://creativecommons.org/ns#" xmlns:dc="http://purl.org/dc/elements/1.1/" xmlns:rdf="http://www.w3.org/1999/02/22-rdf-syntax-ns#">
   <cc:Work>
    <dc:type rdf:resource="http://purl.org/dc/dcmitype/StillImage"/>
    <dc:date>2021-04-18T13:14:48.578832</dc:date>
    <dc:format>image/svg+xml</dc:format>
    <dc:creator>
     <cc:Agent>
      <dc:title>Matplotlib v3.3.3, https://matplotlib.org/</dc:title>
     </cc:Agent>
    </dc:creator>
   </cc:Work>
  </rdf:RDF>
 </metadata>
 <defs>
  <style type="text/css">*{stroke-linecap:butt;stroke-linejoin:round;}</style>
 </defs>
 <g id="figure_1">
  <g id="patch_1">
   <path d="M 0 568.8 
L 300.986963 568.8 
L 300.986963 0 
L 0 0 
z
" style="fill:#ffffff;"/>
  </g>
  <g id="axes_1">
   <g id="LineCollection_1">
    <path clip-path="url(#p655e1f6c06)" d="M 275.601343 32.4 
L 280.760283 36.910194 
L 268.806119 56.111542 
L 254.66548 53.422409 
L 250.621214 63.829823 
L 258.516821 68.424937 
L 261.332087 85.418366 
L 242.989985 103.128896 
L 228.85649 110.658467 
L 220.860848 127.189553 
L 209.142481 140.040775 
L 208.134987 152.278686 
L 194.380196 159.751643 
L 185.126973 177.622578 
L 188.378106 191.247515 
L 185.305607 199.862174 
L 171.472217 215.242123 
L 170.964898 226.715754 
L 140.76152 257.890817 
L 138.918021 280.809773 
L 129.164624 288.962089 
L 113.980764 318.514238 
L 97.546468 336.753159 
L 96.54612 343.197641 
L 105.163407 356.681045 
L 92.173168 381.855097 
L 61.784012 434.948947 
L 48.093529 462.746083 
L 38.332987 473.927211 
L 20.22668 509.914406 
L 23.070528 515.88711 
L 59.804751 535.63572 
L 50.237133 536.4 
" style="fill:none;stroke:#000000;stroke-width:3;"/>
   </g>
  </g>
 </g>
 <defs>
  <clipPath id="p655e1f6c06">
   <rect height="554.4" width="286.586963" x="7.2" y="7.2"/>
  </clipPath>
 </defs>
</svg>
