<?xml version="1.0" encoding="utf-8" standalone="no"?>
<!DOCTYPE svg PUBLIC "-//W3C//DTD SVG 1.1//EN"
  "http://www.w3.org/Graphics/SVG/1.1/DTD/svg11.dtd">
<!-- Created with matplotlib (https://matplotlib.org/) -->
<svg height="568.8pt" version="1.1" viewBox="0 0 283.635162 568.8" width="283.635162pt" xmlns="http://www.w3.org/2000/svg" xmlns:xlink="http://www.w3.org/1999/xlink">
 <metadata>
  <rdf:RDF xmlns:cc="http://creativecommons.org/ns#" xmlns:dc="http://purl.org/dc/elements/1.1/" xmlns:rdf="http://www.w3.org/1999/02/22-rdf-syntax-ns#">
   <cc:Work>
    <dc:type rdf:resource="http://purl.org/dc/dcmitype/StillImage"/>
    <dc:date>2021-04-18T13:14:49.399522</dc:date>
    <dc:format>image/svg+xml</dc:format>
    <dc:creator>
     <cc:Agent>
      <dc:title>Matplotlib v3.3.3, https://matplotlib.org/</dc:title>
     </cc:Agent>
    </dc:creator>
   </cc:Work>
  </rdf:RDF>
 </metadata>
 <defs>
  <style type="text/css">*{stroke-linecap:butt;stroke-linejoin:round;}</style>
 </defs>
 <g id="figure_1">
  <g id="patch_1">
   <path d="M 0 568.8 
L 283.635162 568.8 
L 283.635162 0 
L 0 0 
z
" style="fill:#ffffff;"/>
  </g>
  <g id="axes_1">
   <g id="LineCollection_1">
    <path clip-path="url(#pd772320a7e)" d="M 27.055618 536.4 
L 19.437962 517.943928 
L 31.211354 501.358021 
L 53.94988 455.586207 
L 59.471787 450.806897 
L 65.258345 429.026087 
L 87.696456 396.902699 
L 103.51114 370.607046 
L 96.630215 360.207796 
L 107.867152 339.938231 
L 117.594864 330.568516 
L 129.203743 334.762219 
L 155.096622 305.576312 
L 152.428654 292.050675 
L 163.987465 279.573463 
L 172.506365 250.746477 
L 187.498485 227.322189 
L 198.520841 220.21934 
L 208.87084 222.429535 
L 217.353977 211.737481 
L 237.660575 175.146477 
L 240.335695 157.077661 
L 236.873775 146.026687 
L 253.847201 119.749925 
L 257.2519 97.251274 
L 264.1972 85.690255 
L 249.927505 87.881559 
L 259.462093 66.903598 
L 251.622702 53.236282 
L 262.594988 33.514543 
L 255.220525 32.4 
" style="fill:none;stroke:#000000;stroke-width:3;"/>
   </g>
  </g>
 </g>
 <defs>
  <clipPath id="pd772320a7e">
   <rect height="554.4" width="269.235162" x="7.2" y="7.2"/>
  </clipPath>
 </defs>
</svg>
