<?xml version="1.0" encoding="utf-8" standalone="no"?>
<!DOCTYPE svg PUBLIC "-//W3C//DTD SVG 1.1//EN"
  "http://www.w3.org/Graphics/SVG/1.1/DTD/svg11.dtd">
<!-- Created with matplotlib (https://matplotlib.org/) -->
<svg height="568.8pt" version="1.1" viewBox="0 0 279.770571 568.8" width="279.770571pt" xmlns="http://www.w3.org/2000/svg" xmlns:xlink="http://www.w3.org/1999/xlink">
 <metadata>
  <rdf:RDF xmlns:cc="http://creativecommons.org/ns#" xmlns:dc="http://purl.org/dc/elements/1.1/" xmlns:rdf="http://www.w3.org/1999/02/22-rdf-syntax-ns#">
   <cc:Work>
    <dc:type rdf:resource="http://purl.org/dc/dcmitype/StillImage"/>
    <dc:date>2021-04-18T13:14:49.656768</dc:date>
    <dc:format>image/svg+xml</dc:format>
    <dc:creator>
     <cc:Agent>
      <dc:title>Matplotlib v3.3.3, https://matplotlib.org/</dc:title>
     </cc:Agent>
    </dc:creator>
   </cc:Work>
  </rdf:RDF>
 </metadata>
 <defs>
  <style type="text/css">*{stroke-linecap:butt;stroke-linejoin:round;}</style>
 </defs>
 <g id="figure_1">
  <g id="patch_1">
   <path d="M 0 568.8 
L 279.770571 568.8 
L 279.770571 0 
L 0 0 
z
" style="fill:#ffffff;"/>
  </g>
  <g id="axes_1">
   <g id="LineCollection_1">
    <path clip-path="url(#p8bd5517833)" d="M 25.778575 536.4 
L 19.262299 527.370139 
L 46.12825 481.018662 
L 52.932009 464.802877 
L 71.03658 440.443042 
L 70.393166 425.800025 
L 89.544996 405.977718 
L 102.618618 383.38047 
L 95.027703 374.829671 
L 112.10555 344.016062 
L 125.45981 347.197755 
L 133.447725 343.13025 
L 146.350226 327.393526 
L 150.422899 316.971675 
L 148.38314 305.989412 
L 160.566934 292.61184 
L 167.439142 266.977521 
L 175.782988 258.734045 
L 184.188437 242.789426 
L 191.019575 238.143432 
L 206.769525 237.031647 
L 213.183129 221.864373 
L 231.280856 190.255342 
L 228.686666 164.422167 
L 244.169667 143.334414 
L 247.537323 120.646776 
L 255.819565 114.147808 
L 252.280789 107.233049 
L 240.548753 106.23877 
L 250.076754 87.60056 
L 242.65696 78.471271 
L 260.508272 41.908922 
L 242.848615 32.4 
L 233.033132 49.212353 
L 245.278529 56.398278 
" style="fill:none;stroke:#000000;stroke-width:3;"/>
   </g>
  </g>
 </g>
 <defs>
  <clipPath id="p8bd5517833">
   <rect height="554.4" width="265.370571" x="7.2" y="7.2"/>
  </clipPath>
 </defs>
</svg>
