<?xml version="1.0" encoding="utf-8" standalone="no"?>
<!DOCTYPE svg PUBLIC "-//W3C//DTD SVG 1.1//EN"
  "http://www.w3.org/Graphics/SVG/1.1/DTD/svg11.dtd">
<!-- Created with matplotlib (https://matplotlib.org/) -->
<svg height="568.8pt" version="1.1" viewBox="0 0 349.18912 568.8" width="349.18912pt" xmlns="http://www.w3.org/2000/svg" xmlns:xlink="http://www.w3.org/1999/xlink">
 <metadata>
  <rdf:RDF xmlns:cc="http://creativecommons.org/ns#" xmlns:dc="http://purl.org/dc/elements/1.1/" xmlns:rdf="http://www.w3.org/1999/02/22-rdf-syntax-ns#">
   <cc:Work>
    <dc:type rdf:resource="http://purl.org/dc/dcmitype/StillImage"/>
    <dc:date>2021-04-18T13:14:49.769946</dc:date>
    <dc:format>image/svg+xml</dc:format>
    <dc:creator>
     <cc:Agent>
      <dc:title>Matplotlib v3.3.3, https://matplotlib.org/</dc:title>
     </cc:Agent>
    </dc:creator>
   </cc:Work>
  </rdf:RDF>
 </metadata>
 <defs>
  <style type="text/css">*{stroke-linecap:butt;stroke-linejoin:round;}</style>
 </defs>
 <g id="figure_1">
  <g id="patch_1">
   <path d="M 0 568.8 
L 349.18912 568.8 
L 349.18912 0 
L 0 0 
z
" style="fill:#ffffff;"/>
  </g>
  <g id="axes_1">
   <g id="LineCollection_1">
    <path clip-path="url(#p5253325971)" d="M 232.525854 66.916409 
L 215.560124 57.928548 
L 204.465681 85.018013 
L 223.690331 96.938888 
L 198.260799 100.199191 
L 209.498212 114.436266 
L 212.081197 138.680833 
L 172.545329 169.206834 
L 157.971958 196.28371 
L 143.808433 210.973955 
L 140.539195 228.697917 
L 122.563147 238.201888 
L 111.363859 259.891083 
L 114.070751 287.408542 
L 126.146919 295.427124 
L 121.752985 307.47388 
L 150.956915 327.551806 
L 199.65237 353.823048 
L 159.639937 426.858864 
L 131.83711 411.627334 
L 120.39954 427.450502 
L 60.0187 536.4 
L 29.880702 520.866357 
L 22.417687 505.194245 
L 45.883769 469.43162 
L 68.606409 472.339458 
L 94.741257 444.998232 
L 100.317072 430.471632 
L 96.742832 414.749168 
L 111.706986 399.933044 
L 123.077837 362.206684 
L 145.371568 327.551806 
L 178.445209 316.713502 
L 213.33933 251.268275 
L 209.212273 218.312783 
L 229.9524 189.058175 
L 233.574298 160.923902 
L 244.59249 140.707508 
L 225.243934 138.114371 
L 242.733885 111.855717 
L 256.087249 113.970508 
L 262.568538 124.24235 
L 286.739937 132.600809 
L 295.823274 115.015315 
L 309.672265 120.415585 
L 326.771433 88.366432 
L 229.113645 32.4 
L 214.225741 57.941136 
L 231.706161 65.997482 
" style="fill:none;stroke:#000000;stroke-width:3;"/>
   </g>
  </g>
 </g>
 <defs>
  <clipPath id="p5253325971">
   <rect height="554.4" width="334.78912" x="7.2" y="7.2"/>
  </clipPath>
 </defs>
</svg>
