<?xml version="1.0" encoding="utf-8" standalone="no"?>
<!DOCTYPE svg PUBLIC "-//W3C//DTD SVG 1.1//EN"
  "http://www.w3.org/Graphics/SVG/1.1/DTD/svg11.dtd">
<!-- Created with matplotlib (https://matplotlib.org/) -->
<svg height="568.8pt" version="1.1" viewBox="0 0 279.906963 568.8" width="279.906963pt" xmlns="http://www.w3.org/2000/svg" xmlns:xlink="http://www.w3.org/1999/xlink">
 <metadata>
  <rdf:RDF xmlns:cc="http://creativecommons.org/ns#" xmlns:dc="http://purl.org/dc/elements/1.1/" xmlns:rdf="http://www.w3.org/1999/02/22-rdf-syntax-ns#">
   <cc:Work>
    <dc:type rdf:resource="http://purl.org/dc/dcmitype/StillImage"/>
    <dc:date>2021-04-18T13:14:49.924809</dc:date>
    <dc:format>image/svg+xml</dc:format>
    <dc:creator>
     <cc:Agent>
      <dc:title>Matplotlib v3.3.3, https://matplotlib.org/</dc:title>
     </cc:Agent>
    </dc:creator>
   </cc:Work>
  </rdf:RDF>
 </metadata>
 <defs>
  <style type="text/css">*{stroke-linecap:butt;stroke-linejoin:round;}</style>
 </defs>
 <g id="figure_1">
  <g id="patch_1">
   <path d="M 0 568.8 
L 279.906963 568.8 
L 279.906963 0 
L 0 0 
z
" style="fill:#ffffff;"/>
  </g>
  <g id="axes_1">
   <g id="LineCollection_1">
    <path clip-path="url(#p82357a9c19)" d="M 27.770754 536.4 
L 19.268498 528.035565 
L 35.148012 497.603066 
L 58.063874 459.976612 
L 75.613839 422.611265 
L 87.102452 410.537306 
L 100.316062 381.347318 
L 93.504712 372.550705 
L 106.888776 348.762935 
L 115.881939 342.847505 
L 126.838735 346.737103 
L 145.500061 328.000407 
L 150.279597 315.980471 
L 146.911422 306.229466 
L 158.972761 293.840377 
L 165.559112 268.702053 
L 182.509077 242.798414 
L 205.861303 236.144681 
L 230.256708 190.486929 
L 227.795349 167.149343 
L 230.774889 157.794501 
L 244.063498 140.597438 
L 244.963497 124.660893 
L 256.022565 113.280219 
L 250.220304 108.148111 
L 238.193056 108.310177 
L 248.877125 88.907208 
L 242.127139 78.498933 
L 260.638465 42.916319 
L 242.986228 32.4 
L 232.152159 49.633078 
L 244.54077 57.412273 
" style="fill:none;stroke:#000000;stroke-width:3;"/>
   </g>
  </g>
 </g>
 <defs>
  <clipPath id="p82357a9c19">
   <rect height="554.4" width="265.506963" x="7.2" y="7.2"/>
  </clipPath>
 </defs>
</svg>
