<?xml version="1.0" encoding="utf-8" standalone="no"?>
<!DOCTYPE svg PUBLIC "-//W3C//DTD SVG 1.1//EN"
  "http://www.w3.org/Graphics/SVG/1.1/DTD/svg11.dtd">
<!-- Created with matplotlib (https://matplotlib.org/) -->
<svg height="568.8pt" version="1.1" viewBox="0 0 299.171596 568.8" width="299.171596pt" xmlns="http://www.w3.org/2000/svg" xmlns:xlink="http://www.w3.org/1999/xlink">
 <metadata>
  <rdf:RDF xmlns:cc="http://creativecommons.org/ns#" xmlns:dc="http://purl.org/dc/elements/1.1/" xmlns:rdf="http://www.w3.org/1999/02/22-rdf-syntax-ns#">
   <cc:Work>
    <dc:type rdf:resource="http://purl.org/dc/dcmitype/StillImage"/>
    <dc:date>2021-04-18T13:14:50.701343</dc:date>
    <dc:format>image/svg+xml</dc:format>
    <dc:creator>
     <cc:Agent>
      <dc:title>Matplotlib v3.3.3, https://matplotlib.org/</dc:title>
     </cc:Agent>
    </dc:creator>
   </cc:Work>
  </rdf:RDF>
 </metadata>
 <defs>
  <style type="text/css">*{stroke-linecap:butt;stroke-linejoin:round;}</style>
 </defs>
 <g id="figure_1">
  <g id="patch_1">
   <path d="M 0 568.8 
L 299.171596 568.8 
L 299.171596 0 
L 0 0 
z
" style="fill:#ffffff;"/>
  </g>
  <g id="axes_1">
   <g id="LineCollection_1">
    <path clip-path="url(#pe91641fb8d)" d="M 273.926354 32.4 
L 279.027432 36.561048 
L 267.793755 57.123719 
L 253.317149 54.819281 
L 247.693245 63.570545 
L 257.301925 70.633132 
L 259.478008 84.739646 
L 238.670977 105.49824 
L 226.356324 112.598145 
L 215.864493 132.843605 
L 209.73896 137.079291 
L 205.619945 153.350297 
L 192.683553 160.20763 
L 183.505851 177.691498 
L 186.494433 193.710601 
L 170.569459 213.69483 
L 170.336307 225.245005 
L 149.797754 248.765191 
L 139.807553 256.751419 
L 136.126581 284.330027 
L 126.630944 289.480024 
L 115.121724 314.632909 
L 97.232623 334.738424 
L 95.91143 340.597479 
L 104.926632 352.558161 
L 100.270662 365.059966 
L 78.425046 400.802066 
L 50.814222 453.580208 
L 39.290871 466.343244 
L 38.23109 476.092786 
L 20.144163 507.263331 
L 61.76529 530.223735 
L 58.289209 536.4 
L 49.485963 529.160149 
" style="fill:none;stroke:#000000;stroke-width:3;"/>
   </g>
  </g>
 </g>
 <defs>
  <clipPath id="pe91641fb8d">
   <rect height="554.4" width="284.771596" x="7.2" y="7.2"/>
  </clipPath>
 </defs>
</svg>
