<?xml version="1.0" encoding="utf-8" standalone="no"?>
<!DOCTYPE svg PUBLIC "-//W3C//DTD SVG 1.1//EN"
  "http://www.w3.org/Graphics/SVG/1.1/DTD/svg11.dtd">
<!-- Created with matplotlib (https://matplotlib.org/) -->
<svg height="568.8pt" version="1.1" viewBox="0 0 331.679913 568.8" width="331.679913pt" xmlns="http://www.w3.org/2000/svg" xmlns:xlink="http://www.w3.org/1999/xlink">
 <metadata>
  <rdf:RDF xmlns:cc="http://creativecommons.org/ns#" xmlns:dc="http://purl.org/dc/elements/1.1/" xmlns:rdf="http://www.w3.org/1999/02/22-rdf-syntax-ns#">
   <cc:Work>
    <dc:type rdf:resource="http://purl.org/dc/dcmitype/StillImage"/>
    <dc:date>2021-04-18T13:14:51.176824</dc:date>
    <dc:format>image/svg+xml</dc:format>
    <dc:creator>
     <cc:Agent>
      <dc:title>Matplotlib v3.3.3, https://matplotlib.org/</dc:title>
     </cc:Agent>
    </dc:creator>
   </cc:Work>
  </rdf:RDF>
 </metadata>
 <defs>
  <style type="text/css">*{stroke-linecap:butt;stroke-linejoin:round;}</style>
 </defs>
 <g id="figure_1">
  <g id="patch_1">
   <path d="M 0 568.8 
L 331.679913 568.8 
L 331.679913 0 
L 0 0 
z
" style="fill:#ffffff;"/>
  </g>
  <g id="axes_1">
   <g id="LineCollection_1">
    <path clip-path="url(#p25bc145390)" d="M 29.455754 536.4 
L 21.621814 523.446543 
L 52.970964 473.551418 
L 54.765405 461.729731 
L 70.553807 431.675943 
L 68.759366 424.540489 
L 76.358957 411.091883 
L 84.688376 407.210266 
L 90.17883 393.098514 
L 100.958867 380.551787 
L 94.952846 369.384404 
L 105.565491 350.480314 
L 117.1624 342.230775 
L 127.239391 347.146899 
L 148.431202 323.141005 
L 147.708069 306.739187 
L 159.278195 294.599189 
L 164.5343 271.203389 
L 181.675228 244.217758 
L 201.407382 240.583716 
L 207.728099 232.334177 
L 228.364169 193.438438 
L 229.335042 161.854992 
L 242.954045 144.763502 
L 243.087958 129.847133 
L 255.180347 118.122707 
L 255.274087 109.607909 
L 263.168287 111.535454 
L 261.534543 125.081321 
L 278.943298 134.020533 
L 310.058099 76.680486 
L 285.029666 64.584699 
L 260.81141 49.694854 
L 257.222528 39.986393 
L 242.418391 32.4 
L 231.323658 55.327177 
L 243.215176 62.922412 
" style="fill:none;stroke:#000000;stroke-width:3;"/>
   </g>
  </g>
 </g>
 <defs>
  <clipPath id="p25bc145390">
   <rect height="554.4" width="317.279913" x="7.2" y="7.2"/>
  </clipPath>
 </defs>
</svg>
