<?xml version="1.0" encoding="utf-8" standalone="no"?>
<!DOCTYPE svg PUBLIC "-//W3C//DTD SVG 1.1//EN"
  "http://www.w3.org/Graphics/SVG/1.1/DTD/svg11.dtd">
<!-- Created with matplotlib (https://matplotlib.org/) -->
<svg height="568.8pt" version="1.1" viewBox="0 0 298.644663 568.8" width="298.644663pt" xmlns="http://www.w3.org/2000/svg" xmlns:xlink="http://www.w3.org/1999/xlink">
 <metadata>
  <rdf:RDF xmlns:cc="http://creativecommons.org/ns#" xmlns:dc="http://purl.org/dc/elements/1.1/" xmlns:rdf="http://www.w3.org/1999/02/22-rdf-syntax-ns#">
   <cc:Work>
    <dc:type rdf:resource="http://purl.org/dc/dcmitype/StillImage"/>
    <dc:date>2021-04-18T13:14:51.403240</dc:date>
    <dc:format>image/svg+xml</dc:format>
    <dc:creator>
     <cc:Agent>
      <dc:title>Matplotlib v3.3.3, https://matplotlib.org/</dc:title>
     </cc:Agent>
    </dc:creator>
   </cc:Work>
  </rdf:RDF>
 </metadata>
 <defs>
  <style type="text/css">*{stroke-linecap:butt;stroke-linejoin:round;}</style>
 </defs>
 <g id="figure_1">
  <g id="patch_1">
   <path d="M 0 568.8 
L 298.644663 568.8 
L 298.644663 0 
L 0 0 
z
" style="fill:#ffffff;"/>
  </g>
  <g id="axes_1">
   <g id="LineCollection_1">
    <path clip-path="url(#p0895994dcb)" d="M 273.513823 32.4 
L 278.524451 37.588757 
L 267.817679 56.178691 
L 252.616182 54.246906 
L 247.845838 63.364559 
L 256.616204 68.049372 
L 259.690426 82.71041 
L 239.040136 104.49199 
L 225.322747 113.217687 
L 216.100082 131.947606 
L 209.365063 136.987046 
L 207.34385 149.296345 
L 190.728918 161.829619 
L 184.460333 171.357894 
L 186.658225 189.042595 
L 181.223566 201.930497 
L 172.686417 209.359005 
L 169.810076 225.51321 
L 151.279939 246.725519 
L 139.322277 256.711077 
L 136.396466 283.121475 
L 125.491813 289.896723 
L 115.767378 313.236796 
L 101.51995 327.795178 
L 95.484581 338.900611 
L 104.84859 353.822953 
L 56.056804 445.036818 
L 41.039054 469.076814 
L 20.120212 507.171248 
L 62.37486 531.612532 
L 58.615122 536.4 
L 48.777612 529.755405 
" style="fill:none;stroke:#000000;stroke-width:3;"/>
   </g>
  </g>
 </g>
 <defs>
  <clipPath id="p0895994dcb">
   <rect height="554.4" width="284.244663" x="7.2" y="7.2"/>
  </clipPath>
 </defs>
</svg>
