<?xml version="1.0" encoding="utf-8" standalone="no"?>
<!DOCTYPE svg PUBLIC "-//W3C//DTD SVG 1.1//EN"
  "http://www.w3.org/Graphics/SVG/1.1/DTD/svg11.dtd">
<!-- Created with matplotlib (https://matplotlib.org/) -->
<svg height="568.8pt" version="1.1" viewBox="0 0 277.398139 568.8" width="277.398139pt" xmlns="http://www.w3.org/2000/svg" xmlns:xlink="http://www.w3.org/1999/xlink">
 <metadata>
  <rdf:RDF xmlns:cc="http://creativecommons.org/ns#" xmlns:dc="http://purl.org/dc/elements/1.1/" xmlns:rdf="http://www.w3.org/1999/02/22-rdf-syntax-ns#">
   <cc:Work>
    <dc:type rdf:resource="http://purl.org/dc/dcmitype/StillImage"/>
    <dc:date>2021-04-18T13:14:51.710607</dc:date>
    <dc:format>image/svg+xml</dc:format>
    <dc:creator>
     <cc:Agent>
      <dc:title>Matplotlib v3.3.3, https://matplotlib.org/</dc:title>
     </cc:Agent>
    </dc:creator>
   </cc:Work>
  </rdf:RDF>
 </metadata>
 <defs>
  <style type="text/css">*{stroke-linecap:butt;stroke-linejoin:round;}</style>
 </defs>
 <g id="figure_1">
  <g id="patch_1">
   <path d="M -0 568.8 
L 277.398139 568.8 
L 277.398139 0 
L -0 0 
z
" style="fill:#ffffff;"/>
  </g>
  <g id="axes_1">
   <g id="LineCollection_1">
    <path clip-path="url(#p02e9f3b572)" d="M 28.503079 536.4 
L 20.143128 534.348367 
L 19.154461 526.79907 
L 27.474058 508.787333 
L 40.118232 491.459475 
L 66.119495 437.077886 
L 99.592927 383.486753 
L 93.169956 374.400952 
L 103.44671 355.341195 
L 113.582226 344.443562 
L 126.280204 349.150771 
L 144.43939 330.144304 
L 148.689984 319.566405 
L 149.725731 302.709267 
L 159.208861 294.369514 
L 162.739813 275.869294 
L 180.199534 247.190844 
L 188.808333 241.027064 
L 202.064539 241.70206 
L 225.523516 201.424336 
L 228.953584 180.570511 
L 225.590772 167.949862 
L 241.77935 145.976964 
L 245.162339 124.634656 
L 252.177165 119.465607 
L 248.753822 113.390643 
L 237.79778 112.014006 
L 246.520915 97.341724 
L 241.221123 81.044122 
L 258.243678 49.647925 
L 256.737138 41.157185 
L 243.063944 32.4 
L 240.461128 39.682852 
L 257.02634 50.31404 
L 248.760548 65.794541 
L 242.337577 64.098169 
" style="fill:none;stroke:#000000;stroke-width:3;"/>
   </g>
  </g>
 </g>
 <defs>
  <clipPath id="p02e9f3b572">
   <rect height="554.4" width="262.998139" x="7.2" y="7.2"/>
  </clipPath>
 </defs>
</svg>
