<?xml version="1.0" encoding="utf-8" standalone="no"?>
<!DOCTYPE svg PUBLIC "-//W3C//DTD SVG 1.1//EN"
  "http://www.w3.org/Graphics/SVG/1.1/DTD/svg11.dtd">
<!-- Created with matplotlib (https://matplotlib.org/) -->
<svg height="568.8pt" version="1.1" viewBox="0 0 300.798089 568.8" width="300.798089pt" xmlns="http://www.w3.org/2000/svg" xmlns:xlink="http://www.w3.org/1999/xlink">
 <metadata>
  <rdf:RDF xmlns:cc="http://creativecommons.org/ns#" xmlns:dc="http://purl.org/dc/elements/1.1/" xmlns:rdf="http://www.w3.org/1999/02/22-rdf-syntax-ns#">
   <cc:Work>
    <dc:type rdf:resource="http://purl.org/dc/dcmitype/StillImage"/>
    <dc:date>2021-04-18T13:14:51.973531</dc:date>
    <dc:format>image/svg+xml</dc:format>
    <dc:creator>
     <cc:Agent>
      <dc:title>Matplotlib v3.3.3, https://matplotlib.org/</dc:title>
     </cc:Agent>
    </dc:creator>
   </cc:Work>
  </rdf:RDF>
 </metadata>
 <defs>
  <style type="text/css">*{stroke-linecap:butt;stroke-linejoin:round;}</style>
 </defs>
 <g id="figure_1">
  <g id="patch_1">
   <path d="M 0 568.8 
L 300.798089 568.8 
L 300.798089 0 
L 0 0 
z
" style="fill:#ffffff;"/>
  </g>
  <g id="axes_1">
   <g id="LineCollection_1">
    <path clip-path="url(#p06d14e3c53)" d="M 273.703131 32.4 
L 280.579994 36.661737 
L 269.960572 54.549693 
L 254.947399 51.866027 
L 248.778975 58.055467 
L 259.126471 68.979121 
L 261.037108 82.095065 
L 239.884135 103.120264 
L 227.998111 109.810529 
L 216.999423 130.580591 
L 208.662748 138.612689 
L 206.795046 151.379001 
L 186.329044 167.679436 
L 186.651061 194.232608 
L 165.312034 218.584041 
L 163.630386 233.013469 
L 139.035404 257.931873 
L 135.851008 283.99367 
L 125.324613 290.882376 
L 116.66592 312.370601 
L 99.806514 330.069567 
L 95.15515 341.881476 
L 104.643933 356.254207 
L 91.648737 377.024269 
L 70.9609 417.20366 
L 45.593076 461.427449 
L 20.218095 509.308205 
L 61.600924 536.4 
L 46.988485 532.79973 
" style="fill:none;stroke:#000000;stroke-width:3;"/>
   </g>
  </g>
 </g>
 <defs>
  <clipPath id="p06d14e3c53">
   <rect height="554.4" width="286.398089" x="7.2" y="7.2"/>
  </clipPath>
 </defs>
</svg>
