<?xml version="1.0" encoding="utf-8" standalone="no"?>
<!DOCTYPE svg PUBLIC "-//W3C//DTD SVG 1.1//EN"
  "http://www.w3.org/Graphics/SVG/1.1/DTD/svg11.dtd">
<!-- Created with matplotlib (https://matplotlib.org/) -->
<svg height="568.8pt" version="1.1" viewBox="0 0 326.973902 568.8" width="326.973902pt" xmlns="http://www.w3.org/2000/svg" xmlns:xlink="http://www.w3.org/1999/xlink">
 <metadata>
  <rdf:RDF xmlns:cc="http://creativecommons.org/ns#" xmlns:dc="http://purl.org/dc/elements/1.1/" xmlns:rdf="http://www.w3.org/1999/02/22-rdf-syntax-ns#">
   <cc:Work>
    <dc:type rdf:resource="http://purl.org/dc/dcmitype/StillImage"/>
    <dc:date>2021-04-18T13:14:52.463860</dc:date>
    <dc:format>image/svg+xml</dc:format>
    <dc:creator>
     <cc:Agent>
      <dc:title>Matplotlib v3.3.3, https://matplotlib.org/</dc:title>
     </cc:Agent>
    </dc:creator>
   </cc:Work>
  </rdf:RDF>
 </metadata>
 <defs>
  <style type="text/css">*{stroke-linecap:butt;stroke-linejoin:round;}</style>
 </defs>
 <g id="figure_1">
  <g id="patch_1">
   <path d="M -0 568.8 
L 326.973902 568.8 
L 326.973902 0 
L -0 0 
z
" style="fill:#ffffff;"/>
  </g>
  <g id="axes_1">
   <g id="LineCollection_1">
    <path clip-path="url(#p8af5de983c)" d="M 68.203696 536.4 
L 59.174307 531.310138 
L 59.966609 516.624944 
L 54.770249 511.440826 
L 24.305875 498.41455 
L 21.407905 494.851647 
L 37.560875 470.901019 
L 55.73386 432.859015 
L 62.222172 426.619222 
L 68.146593 409.634164 
L 81.965485 388.39813 
L 98.60383 356.925818 
L 115.706135 343.343427 
L 124.856868 353.65511 
L 141.480937 359.018316 
L 149.361132 342.287752 
L 157.947974 333.653839 
L 170.703325 337.018803 
L 192.145447 317.997801 
L 196.463851 303.199499 
L 194.750765 291.737884 
L 207.434737 280.002925 
L 210.161399 261.170436 
L 224.437113 241.225719 
L 231.467902 226.33316 
L 254.751592 221.865392 
L 280.283707 176.367683 
L 281.504281 155.188203 
L 278.34221 149.466821 
L 285.030382 133.961594 
L 292.696441 126.807511 
L 298.470967 100.048034 
L 305.565997 88.181115 
L 290.348086 85.984934 
L 300.283983 67.727411 
L 292.182515 56.972722 
L 301.890001 37.461585 
L 295.994131 32.4 
" style="fill:none;stroke:#000000;stroke-width:3;"/>
   </g>
  </g>
 </g>
 <defs>
  <clipPath id="p8af5de983c">
   <rect height="554.4" width="312.573902" x="7.2" y="7.2"/>
  </clipPath>
 </defs>
</svg>
