<?xml version="1.0" encoding="utf-8" standalone="no"?>
<!DOCTYPE svg PUBLIC "-//W3C//DTD SVG 1.1//EN"
  "http://www.w3.org/Graphics/SVG/1.1/DTD/svg11.dtd">
<!-- Created with matplotlib (https://matplotlib.org/) -->
<svg height="568.8pt" version="1.1" viewBox="0 0 300.640801 568.8" width="300.640801pt" xmlns="http://www.w3.org/2000/svg" xmlns:xlink="http://www.w3.org/1999/xlink">
 <metadata>
  <rdf:RDF xmlns:cc="http://creativecommons.org/ns#" xmlns:dc="http://purl.org/dc/elements/1.1/" xmlns:rdf="http://www.w3.org/1999/02/22-rdf-syntax-ns#">
   <cc:Work>
    <dc:type rdf:resource="http://purl.org/dc/dcmitype/StillImage"/>
    <dc:date>2021-04-18T13:14:53.579867</dc:date>
    <dc:format>image/svg+xml</dc:format>
    <dc:creator>
     <cc:Agent>
      <dc:title>Matplotlib v3.3.3, https://matplotlib.org/</dc:title>
     </cc:Agent>
    </dc:creator>
   </cc:Work>
  </rdf:RDF>
 </metadata>
 <defs>
  <style type="text/css">*{stroke-linecap:butt;stroke-linejoin:round;}</style>
 </defs>
 <g id="figure_1">
  <g id="patch_1">
   <path d="M 0 568.8 
L 300.640801 568.8 
L 300.640801 0 
L 0 0 
z
" style="fill:#ffffff;"/>
  </g>
  <g id="axes_1">
   <g id="LineCollection_1">
    <path clip-path="url(#pa094d71791)" d="M 274.687369 32.4 
L 280.429855 36.795157 
L 269.809113 55.790535 
L 254.167266 53.564661 
L 249.553278 61.628737 
L 258.788396 70.051215 
L 260.995396 83.906335 
L 230.504508 108.796504 
L 219.098102 128.895387 
L 210.32724 136.601059 
L 204.463333 154.624975 
L 192.285548 161.302596 
L 183.943229 174.950218 
L 184.636042 198.482228 
L 172.936797 210.979187 
L 170.129836 226.588596 
L 136.746277 266.635455 
L 138.217611 280.311372 
L 126.104107 291.129495 
L 114.212018 316.811924 
L 94.834698 341.447439 
L 103.09845 353.916103 
L 78.257197 407.393656 
L 52.780271 449.95877 
L 20.210945 513.282984 
L 61.022596 536.4 
L 48.251992 534.692868 
" style="fill:none;stroke:#000000;stroke-width:3;"/>
   </g>
  </g>
 </g>
 <defs>
  <clipPath id="pa094d71791">
   <rect height="554.4" width="286.240801" x="7.2" y="7.2"/>
  </clipPath>
 </defs>
</svg>
