<?xml version="1.0" encoding="utf-8" standalone="no"?>
<!DOCTYPE svg PUBLIC "-//W3C//DTD SVG 1.1//EN"
  "http://www.w3.org/Graphics/SVG/1.1/DTD/svg11.dtd">
<!-- Created with matplotlib (https://matplotlib.org/) -->
<svg height="568.8pt" version="1.1" viewBox="0 0 273.872464 568.8" width="273.872464pt" xmlns="http://www.w3.org/2000/svg" xmlns:xlink="http://www.w3.org/1999/xlink">
 <metadata>
  <rdf:RDF xmlns:cc="http://creativecommons.org/ns#" xmlns:dc="http://purl.org/dc/elements/1.1/" xmlns:rdf="http://www.w3.org/1999/02/22-rdf-syntax-ns#">
   <cc:Work>
    <dc:type rdf:resource="http://purl.org/dc/dcmitype/StillImage"/>
    <dc:date>2021-04-18T13:14:53.413350</dc:date>
    <dc:format>image/svg+xml</dc:format>
    <dc:creator>
     <cc:Agent>
      <dc:title>Matplotlib v3.3.3, https://matplotlib.org/</dc:title>
     </cc:Agent>
    </dc:creator>
   </cc:Work>
  </rdf:RDF>
 </metadata>
 <defs>
  <style type="text/css">*{stroke-linecap:butt;stroke-linejoin:round;}</style>
 </defs>
 <g id="figure_1">
  <g id="patch_1">
   <path d="M 0 568.8 
L 273.872464 568.8 
L 273.872464 0 
L 0 0 
z
" style="fill:#ffffff;"/>
  </g>
  <g id="axes_1">
   <g id="LineCollection_1">
    <path clip-path="url(#p4e3fed7e5e)" d="M 31.450503 536.4 
L 18.994203 531.593835 
L 19.296377 526.867477 
L 38.897424 491.23801 
L 47.653767 471.073399 
L 60.714416 454.180882 
L 63.575001 444.125179 
L 84.901799 410.712578 
L 84.888369 405.214751 
L 97.418534 381.955395 
L 90.938572 372.706631 
L 103.811202 350.591178 
L 110.915658 344.055858 
L 123.002634 347.540771 
L 143.18117 327.41163 
L 144.255568 308.612608 
L 156.463414 294.167511 
L 161.405644 272.841262 
L 179.415239 244.261428 
L 200.325708 239.60601 
L 213.654957 218.465978 
L 226.050822 190.400457 
L 224.82198 164.064092 
L 239.527801 146.267094 
L 241.824326 125.800989 
L 250.41951 117.935549 
L 234.088662 113.537287 
L 243.100174 101.016429 
L 243.435923 91.111473 
L 237.049971 85.125936 
L 254.878261 51.881816 
L 253.938163 40.620138 
L 240.488044 32.4 
L 236.579922 37.977634 
L 253.904588 49.638348 
L 245.03409 65.236216 
L 239.789685 62.42523 
" style="fill:none;stroke:#000000;stroke-width:3;"/>
   </g>
  </g>
 </g>
 <defs>
  <clipPath id="p4e3fed7e5e">
   <rect height="554.4" width="259.472464" x="7.2" y="7.2"/>
  </clipPath>
 </defs>
</svg>
