<?xml version="1.0" encoding="utf-8" standalone="no"?>
<!DOCTYPE svg PUBLIC "-//W3C//DTD SVG 1.1//EN"
  "http://www.w3.org/Graphics/SVG/1.1/DTD/svg11.dtd">
<!-- Created with matplotlib (https://matplotlib.org/) -->
<svg height="568.8pt" version="1.1" viewBox="0 0 298.448995 568.8" width="298.448995pt" xmlns="http://www.w3.org/2000/svg" xmlns:xlink="http://www.w3.org/1999/xlink">
 <metadata>
  <rdf:RDF xmlns:cc="http://creativecommons.org/ns#" xmlns:dc="http://purl.org/dc/elements/1.1/" xmlns:rdf="http://www.w3.org/1999/02/22-rdf-syntax-ns#">
   <cc:Work>
    <dc:type rdf:resource="http://purl.org/dc/dcmitype/StillImage"/>
    <dc:date>2021-04-18T13:14:53.662102</dc:date>
    <dc:format>image/svg+xml</dc:format>
    <dc:creator>
     <cc:Agent>
      <dc:title>Matplotlib v3.3.3, https://matplotlib.org/</dc:title>
     </cc:Agent>
    </dc:creator>
   </cc:Work>
  </rdf:RDF>
 </metadata>
 <defs>
  <style type="text/css">*{stroke-linecap:butt;stroke-linejoin:round;}</style>
 </defs>
 <g id="figure_1">
  <g id="patch_1">
   <path d="M 0 568.8 
L 298.448995 568.8 
L 298.448995 0 
L 0 0 
z
" style="fill:#ffffff;"/>
  </g>
  <g id="axes_1">
   <g id="LineCollection_1">
    <path clip-path="url(#pa9ee8a7304)" d="M 271.835039 32.4 
L 278.337677 34.366446 
L 269.154562 54.901756 
L 254.723952 52.79485 
L 248.299318 62.102692 
L 257.624257 68.123761 
L 259.850896 82.647366 
L 241.09465 102.37737 
L 226.869685 110.346157 
L 219.601197 125.946625 
L 209.439495 136.23769 
L 206.092444 151.67897 
L 192.151128 160.031682 
L 185.045737 169.676629 
L 185.93923 193.779633 
L 170.990962 212.058213 
L 170.728587 223.463597 
L 140.442036 255.497932 
L 136.392956 282.522513 
L 125.50795 290.266563 
L 113.623085 315.418338 
L 95.788695 338.313383 
L 104.291055 354.007491 
L 87.633806 387.025049 
L 44.164697 461.337963 
L 35.293595 482.416387 
L 20.111318 508.223644 
L 37.881887 515.845962 
L 61.6658 529.798361 
L 59.37534 536.4 
L 49.213638 529.742177 
" style="fill:none;stroke:#000000;stroke-width:3;"/>
   </g>
  </g>
 </g>
 <defs>
  <clipPath id="pa9ee8a7304">
   <rect height="554.4" width="284.048995" x="7.2" y="7.2"/>
  </clipPath>
 </defs>
</svg>
