<?xml version="1.0" encoding="utf-8" standalone="no"?>
<!DOCTYPE svg PUBLIC "-//W3C//DTD SVG 1.1//EN"
  "http://www.w3.org/Graphics/SVG/1.1/DTD/svg11.dtd">
<!-- Created with matplotlib (https://matplotlib.org/) -->
<svg height="568.8pt" version="1.1" viewBox="0 0 271.654039 568.8" width="271.654039pt" xmlns="http://www.w3.org/2000/svg" xmlns:xlink="http://www.w3.org/1999/xlink">
 <metadata>
  <rdf:RDF xmlns:cc="http://creativecommons.org/ns#" xmlns:dc="http://purl.org/dc/elements/1.1/" xmlns:rdf="http://www.w3.org/1999/02/22-rdf-syntax-ns#">
   <cc:Work>
    <dc:type rdf:resource="http://purl.org/dc/dcmitype/StillImage"/>
    <dc:date>2021-04-18T13:14:54.536634</dc:date>
    <dc:format>image/svg+xml</dc:format>
    <dc:creator>
     <cc:Agent>
      <dc:title>Matplotlib v3.3.3, https://matplotlib.org/</dc:title>
     </cc:Agent>
    </dc:creator>
   </cc:Work>
  </rdf:RDF>
 </metadata>
 <defs>
  <style type="text/css">*{stroke-linecap:butt;stroke-linejoin:round;}</style>
 </defs>
 <g id="figure_1">
  <g id="patch_1">
   <path d="M 0 568.8 
L 271.654039 568.8 
L 271.654039 0 
L 0 0 
z
" style="fill:#ffffff;"/>
  </g>
  <g id="axes_1">
   <g id="LineCollection_1">
    <path clip-path="url(#pe4cd3fd746)" d="M 29.315626 536.4 
L 18.893365 524.721855 
L 42.199159 485.149326 
L 54.525423 456.869468 
L 66.858322 441.862219 
L 81.181467 409.692565 
L 96.977395 382.2187 
L 90.482555 377.72441 
L 102.729209 355.708523 
L 112.813128 347.114179 
L 127.428176 349.611007 
L 133.97609 337.959144 
L 142.766348 332.404798 
L 145.154644 307.76067 
L 154.953294 301.277679 
L 158.92052 280.391935 
L 184.38905 246.697902 
L 199.26283 245.339978 
L 224.804335 198.942787 
L 222.28999 173.720447 
L 237.462307 152.300294 
L 239.36631 134.445786 
L 247.844763 126.114266 
L 244.806319 119.648796 
L 231.697224 121.12061 
L 242.623681 103.169734 
L 235.684353 93.14738 
L 252.760673 55.283207 
L 252.349356 32.4 
L 241.091191 34.187203 
L 251.599696 40.538782 
L 252.475405 57.359516 
L 243.539195 71.692183 
L 238.802407 69.642156 
" style="fill:none;stroke:#000000;stroke-width:3;"/>
   </g>
  </g>
 </g>
 <defs>
  <clipPath id="pe4cd3fd746">
   <rect height="554.4" width="257.254039" x="7.2" y="7.2"/>
  </clipPath>
 </defs>
</svg>
