<?xml version="1.0" encoding="utf-8" standalone="no"?>
<!DOCTYPE svg PUBLIC "-//W3C//DTD SVG 1.1//EN"
  "http://www.w3.org/Graphics/SVG/1.1/DTD/svg11.dtd">
<!-- Created with matplotlib (https://matplotlib.org/) -->
<svg height="568.8pt" version="1.1" viewBox="0 0 286.708159 568.8" width="286.708159pt" xmlns="http://www.w3.org/2000/svg" xmlns:xlink="http://www.w3.org/1999/xlink">
 <metadata>
  <rdf:RDF xmlns:cc="http://creativecommons.org/ns#" xmlns:dc="http://purl.org/dc/elements/1.1/" xmlns:rdf="http://www.w3.org/1999/02/22-rdf-syntax-ns#">
   <cc:Work>
    <dc:type rdf:resource="http://purl.org/dc/dcmitype/StillImage"/>
    <dc:date>2021-04-18T13:14:55.360089</dc:date>
    <dc:format>image/svg+xml</dc:format>
    <dc:creator>
     <cc:Agent>
      <dc:title>Matplotlib v3.3.3, https://matplotlib.org/</dc:title>
     </cc:Agent>
    </dc:creator>
   </cc:Work>
  </rdf:RDF>
 </metadata>
 <defs>
  <style type="text/css">*{stroke-linecap:butt;stroke-linejoin:round;}</style>
 </defs>
 <g id="figure_1">
  <g id="patch_1">
   <path d="M 0 568.8 
L 286.708159 568.8 
L 286.708159 0 
L 0 0 
z
" style="fill:#ffffff;"/>
  </g>
  <g id="axes_1">
   <g id="LineCollection_1">
    <path clip-path="url(#p4447bf5f91)" d="M 31.949244 536.4 
L 19.577644 524.748286 
L 55.177989 458.095976 
L 64.278936 436.538897 
L 73.78516 426.079583 
L 89.384752 392.889568 
L 104.195122 368.797466 
L 101.777682 364.009091 
L 115.8486 333.128763 
L 124.060783 328.161997 
L 134.157146 332.387034 
L 154.037027 310.501341 
L 154.940012 290.324441 
L 168.228817 275.846647 
L 172.615758 254.533681 
L 191.31536 224.132191 
L 216.499387 215.982563 
L 240.268501 174.126528 
L 242.159792 154.306408 
L 239.088222 142.495082 
L 254.502952 121.003726 
L 257.745164 98.808197 
L 267.130516 89.973174 
L 251.104317 83.513562 
L 260.333246 68.01237 
L 253.614187 53.055738 
L 264.407342 33.301341 
L 255.65479 32.4 
" style="fill:none;stroke:#000000;stroke-width:3;"/>
   </g>
  </g>
 </g>
 <defs>
  <clipPath id="p4447bf5f91">
   <rect height="554.4" width="272.308159" x="7.2" y="7.2"/>
  </clipPath>
 </defs>
</svg>
