<?xml version="1.0" encoding="utf-8" standalone="no"?>
<!DOCTYPE svg PUBLIC "-//W3C//DTD SVG 1.1//EN"
  "http://www.w3.org/Graphics/SVG/1.1/DTD/svg11.dtd">
<!-- Created with matplotlib (https://matplotlib.org/) -->
<svg height="568.8pt" version="1.1" viewBox="0 0 289.970735 568.8" width="289.970735pt" xmlns="http://www.w3.org/2000/svg" xmlns:xlink="http://www.w3.org/1999/xlink">
 <metadata>
  <rdf:RDF xmlns:cc="http://creativecommons.org/ns#" xmlns:dc="http://purl.org/dc/elements/1.1/" xmlns:rdf="http://www.w3.org/1999/02/22-rdf-syntax-ns#">
   <cc:Work>
    <dc:type rdf:resource="http://purl.org/dc/dcmitype/StillImage"/>
    <dc:date>2021-04-18T13:14:55.537191</dc:date>
    <dc:format>image/svg+xml</dc:format>
    <dc:creator>
     <cc:Agent>
      <dc:title>Matplotlib v3.3.3, https://matplotlib.org/</dc:title>
     </cc:Agent>
    </dc:creator>
   </cc:Work>
  </rdf:RDF>
 </metadata>
 <defs>
  <style type="text/css">*{stroke-linecap:butt;stroke-linejoin:round;}</style>
 </defs>
 <g id="figure_1">
  <g id="patch_1">
   <path d="M 0 568.8 
L 289.970735 568.8 
L 289.970735 0 
L 0 0 
z
" style="fill:#ffffff;"/>
  </g>
  <g id="axes_1">
   <g id="LineCollection_1">
    <path clip-path="url(#p662af1d981)" d="M 57.125827 479.362238 
L 48.60361 478.06993 
L 44.847734 501.482517 
L 43.379701 529.141259 
L 40.322888 536.4 
L 19.725943 523.955245 
L 27.682553 514.288112 
L 58.136291 452.735664 
L 72.149332 431.58042 
L 86.302185 402.897902 
L 89.352643 400.548252 
L 103.365683 370.128671 
L 106.61315 367.871329 
L 125.278139 335.152448 
L 120.34021 322.976224 
L 137.003336 299.303497 
L 151.105349 301.846154 
L 166.618198 285.516084 
L 172.147153 273.348252 
L 170.297813 263.655944 
L 181.133293 251.848951 
L 185.950474 231.826573 
L 202.295844 205.770629 
L 224.98998 197.639161 
L 246.305054 159.348252 
L 247.251967 127.594406 
L 259.415667 111.381818 
L 261.061644 94.212587 
L 270.244793 85.317483 
L 255.094186 80.223776 
L 264.112102 60.595804 
L 257.845953 53.706294 
L 266.126675 35.379021 
L 260.368936 32.4 
" style="fill:none;stroke:#000000;stroke-width:3;"/>
   </g>
  </g>
 </g>
 <defs>
  <clipPath id="p662af1d981">
   <rect height="554.4" width="275.570735" x="7.2" y="7.2"/>
  </clipPath>
 </defs>
</svg>
