<?xml version="1.0" encoding="utf-8" standalone="no"?>
<!DOCTYPE svg PUBLIC "-//W3C//DTD SVG 1.1//EN"
  "http://www.w3.org/Graphics/SVG/1.1/DTD/svg11.dtd">
<!-- Created with matplotlib (https://matplotlib.org/) -->
<svg height="568.8pt" version="1.1" viewBox="0 0 304.771787 568.8" width="304.771787pt" xmlns="http://www.w3.org/2000/svg" xmlns:xlink="http://www.w3.org/1999/xlink">
 <metadata>
  <rdf:RDF xmlns:cc="http://creativecommons.org/ns#" xmlns:dc="http://purl.org/dc/elements/1.1/" xmlns:rdf="http://www.w3.org/1999/02/22-rdf-syntax-ns#">
   <cc:Work>
    <dc:type rdf:resource="http://purl.org/dc/dcmitype/StillImage"/>
    <dc:date>2021-04-18T13:14:55.703641</dc:date>
    <dc:format>image/svg+xml</dc:format>
    <dc:creator>
     <cc:Agent>
      <dc:title>Matplotlib v3.3.3, https://matplotlib.org/</dc:title>
     </cc:Agent>
    </dc:creator>
   </cc:Work>
  </rdf:RDF>
 </metadata>
 <defs>
  <style type="text/css">*{stroke-linecap:butt;stroke-linejoin:round;}</style>
 </defs>
 <g id="figure_1">
  <g id="patch_1">
   <path d="M 0 568.8 
L 304.771787 568.8 
L 304.771787 0 
L 0 0 
z
" style="fill:#ffffff;"/>
  </g>
  <g id="axes_1">
   <g id="LineCollection_1">
    <path clip-path="url(#p4b3d5e8a4b)" d="M 279.042449 32.4 
L 284.37307 34.360643 
L 274.841689 53.967072 
L 258.690488 51.451711 
L 253.012218 57.037152 
L 262.529114 67.835034 
L 265.100269 83.080228 
L 245.168384 102.361478 
L 229.14031 113.819284 
L 213.31503 137.213101 
L 209.541588 152.993886 
L 197.656333 158.847122 
L 187.842487 173.384572 
L 190.312244 192.837976 
L 173.596114 216.279614 
L 173.212251 227.335727 
L 139.222303 264.281891 
L 140.410104 282.367626 
L 127.250135 293.768048 
L 117.262465 317.362711 
L 100.951925 335.324113 
L 97.35955 345.175148 
L 107.0213 358.383187 
L 72.857527 414.352369 
L 55.663379 446.344323 
L 43.307349 477.236404 
L 20.398718 512.27931 
L 49.565034 536.4 
" style="fill:none;stroke:#000000;stroke-width:3;"/>
   </g>
  </g>
 </g>
 <defs>
  <clipPath id="p4b3d5e8a4b">
   <rect height="554.4" width="290.371787" x="7.2" y="7.2"/>
  </clipPath>
 </defs>
</svg>
