<?xml version="1.0" encoding="utf-8" standalone="no"?>
<!DOCTYPE svg PUBLIC "-//W3C//DTD SVG 1.1//EN"
  "http://www.w3.org/Graphics/SVG/1.1/DTD/svg11.dtd">
<!-- Created with matplotlib (https://matplotlib.org/) -->
<svg height="568.8pt" version="1.1" viewBox="0 0 303.144499 568.8" width="303.144499pt" xmlns="http://www.w3.org/2000/svg" xmlns:xlink="http://www.w3.org/1999/xlink">
 <metadata>
  <rdf:RDF xmlns:cc="http://creativecommons.org/ns#" xmlns:dc="http://purl.org/dc/elements/1.1/" xmlns:rdf="http://www.w3.org/1999/02/22-rdf-syntax-ns#">
   <cc:Work>
    <dc:type rdf:resource="http://purl.org/dc/dcmitype/StillImage"/>
    <dc:date>2021-04-18T13:14:56.048237</dc:date>
    <dc:format>image/svg+xml</dc:format>
    <dc:creator>
     <cc:Agent>
      <dc:title>Matplotlib v3.3.3, https://matplotlib.org/</dc:title>
     </cc:Agent>
    </dc:creator>
   </cc:Work>
  </rdf:RDF>
 </metadata>
 <defs>
  <style type="text/css">*{stroke-linecap:butt;stroke-linejoin:round;}</style>
 </defs>
 <g id="figure_1">
  <g id="patch_1">
   <path d="M 0 568.8 
L 303.144499 568.8 
L 303.144499 0 
L 0 0 
z
" style="fill:#ffffff;"/>
  </g>
  <g id="axes_1">
   <g id="LineCollection_1">
    <path clip-path="url(#p106b52125e)" d="M 277.246531 32.4 
L 282.819749 36.056027 
L 274.046425 55.247797 
L 257.477785 52.028594 
L 251.940523 61.600739 
L 259.836515 66.453284 
L 264.316664 82.425851 
L 248.848286 94.827855 
L 245.267043 102.966078 
L 233.487776 108.179478 
L 221.161974 130.163123 
L 211.662333 139.744764 
L 208.419079 154.406858 
L 196.488796 159.962121 
L 187.988739 171.38602 
L 189.966332 194.395252 
L 175.648554 210.766658 
L 173.419267 226.62527 
L 152.327331 250.688578 
L 142.187669 258.010129 
L 138.922841 286.413189 
L 130.552227 290.316117 
L 116.306361 318.614719 
L 104.692492 329.202954 
L 98.443296 346.694909 
L 107.461124 357.064732 
L 85.592533 399.968452 
L 55.159164 449.434028 
L 43.379897 471.42717 
L 36.979684 490.011184 
L 20.32475 511.463044 
L 51.606687 531.813347 
L 51.354993 536.4 
" style="fill:none;stroke:#000000;stroke-width:3;"/>
   </g>
  </g>
 </g>
 <defs>
  <clipPath id="p106b52125e">
   <rect height="554.4" width="288.744499" x="7.2" y="7.2"/>
  </clipPath>
 </defs>
</svg>
