<?xml version="1.0" encoding="utf-8" standalone="no"?>
<!DOCTYPE svg PUBLIC "-//W3C//DTD SVG 1.1//EN"
  "http://www.w3.org/Graphics/SVG/1.1/DTD/svg11.dtd">
<!-- Created with matplotlib (https://matplotlib.org/) -->
<svg height="568.8pt" version="1.1" viewBox="0 0 270.302148 568.8" width="270.302148pt" xmlns="http://www.w3.org/2000/svg" xmlns:xlink="http://www.w3.org/1999/xlink">
 <metadata>
  <rdf:RDF xmlns:cc="http://creativecommons.org/ns#" xmlns:dc="http://purl.org/dc/elements/1.1/" xmlns:rdf="http://www.w3.org/1999/02/22-rdf-syntax-ns#">
   <cc:Work>
    <dc:type rdf:resource="http://purl.org/dc/dcmitype/StillImage"/>
    <dc:date>2021-04-18T13:14:56.135832</dc:date>
    <dc:format>image/svg+xml</dc:format>
    <dc:creator>
     <cc:Agent>
      <dc:title>Matplotlib v3.3.3, https://matplotlib.org/</dc:title>
     </cc:Agent>
    </dc:creator>
   </cc:Work>
  </rdf:RDF>
 </metadata>
 <defs>
  <style type="text/css">*{stroke-linecap:butt;stroke-linejoin:round;}</style>
 </defs>
 <g id="figure_1">
  <g id="patch_1">
   <path d="M 0 568.8 
L 270.302148 568.8 
L 270.302148 0 
L 0 0 
z
" style="fill:#ffffff;"/>
  </g>
  <g id="axes_1">
   <g id="LineCollection_1">
    <path clip-path="url(#peb1b5984c7)" d="M 32.354293 536.4 
L 18.831916 529.742198 
L 23.165754 516.885145 
L 34.891826 503.128628 
L 39.299119 491.259222 
L 58.250481 459.090135 
L 57.689553 452.996704 
L 69.502435 437.326619 
L 75.058296 422.847003 
L 99.078045 384.602121 
L 94.043046 374.311187 
L 106.650577 352.291941 
L 113.989388 345.27259 
L 125.33483 349.196725 
L 145.127584 330.061056 
L 149.294479 317.574371 
L 149.027371 302.512748 
L 157.534783 297.768513 
L 162.903667 276.939735 
L 181.26739 247.107492 
L 203.590999 241.57843 
L 226.802745 200.714519 
L 229.213401 183.280778 
L 225.594078 172.063926 
L 240.398577 150.106407 
L 242.221594 133.007761 
L 251.470232 122.690373 
L 249.647216 115.935571 
L 236.311814 116.790944 
L 245.573808 100.768128 
L 242.268338 90.785835 
L 222.475584 84.595402 
L 222.315319 74.798292 
L 186.536109 57.302824 
L 185.521096 49.692648 
L 167.404449 35.980222 
L 171.898553 32.4 
L 187.691354 42.073654 
L 182.896753 54.55152 
L 207.196966 69.533779 
L 222.98309 68.466767 
L 230.128248 59.242846 
L 241.847642 64.233992 
" style="fill:none;stroke:#000000;stroke-width:3;"/>
   </g>
  </g>
 </g>
 <defs>
  <clipPath id="peb1b5984c7">
   <rect height="554.4" width="255.902148" x="7.2" y="7.2"/>
  </clipPath>
 </defs>
</svg>
