<?xml version="1.0" encoding="utf-8" standalone="no"?>
<!DOCTYPE svg PUBLIC "-//W3C//DTD SVG 1.1//EN"
  "http://www.w3.org/Graphics/SVG/1.1/DTD/svg11.dtd">
<!-- Created with matplotlib (https://matplotlib.org/) -->
<svg height="568.8pt" version="1.1" viewBox="0 0 295.173058 568.8" width="295.173058pt" xmlns="http://www.w3.org/2000/svg" xmlns:xlink="http://www.w3.org/1999/xlink">
 <metadata>
  <rdf:RDF xmlns:cc="http://creativecommons.org/ns#" xmlns:dc="http://purl.org/dc/elements/1.1/" xmlns:rdf="http://www.w3.org/1999/02/22-rdf-syntax-ns#">
   <cc:Work>
    <dc:type rdf:resource="http://purl.org/dc/dcmitype/StillImage"/>
    <dc:date>2021-04-18T13:14:56.638950</dc:date>
    <dc:format>image/svg+xml</dc:format>
    <dc:creator>
     <cc:Agent>
      <dc:title>Matplotlib v3.3.3, https://matplotlib.org/</dc:title>
     </cc:Agent>
    </dc:creator>
   </cc:Work>
  </rdf:RDF>
 </metadata>
 <defs>
  <style type="text/css">*{stroke-linecap:butt;stroke-linejoin:round;}</style>
 </defs>
 <g id="figure_1">
  <g id="patch_1">
   <path d="M 0 568.8 
L 295.173058 568.8 
L 295.173058 0 
L 0 0 
z
" style="fill:#ffffff;"/>
  </g>
  <g id="axes_1">
   <g id="LineCollection_1">
    <path clip-path="url(#p2a8f2d3bbb)" d="M 269.917122 32.4 
L 275.210646 34.733161 
L 268.319877 53.77175 
L 250.665372 52.073209 
L 244.813519 59.660647 
L 254.043616 66.249493 
L 257.626816 84.840116 
L 242.205627 93.790119 
L 237.470432 102.674794 
L 225.604174 108.283712 
L 215.292756 128.451552 
L 205.511397 138.157499 
L 205.200429 148.694052 
L 190.64147 157.112095 
L 181.588059 171.335042 
L 183.637621 194.685312 
L 168.527401 209.178905 
L 168.61221 222.879224 
L 134.759097 259.313858 
L 134.419859 282.150833 
L 124.709174 286.901148 
L 115.316526 308.543545 
L 98.623195 325.846263 
L 92.453306 337.782712 
L 102.835399 352.25764 
L 95.555919 371.370891 
L 63.674626 421.216532 
L 61.349433 431.081135 
L 40.945688 470.586208 
L 19.962412 502.093208 
L 22.803529 507.888779 
L 59.8582 528.747234 
L 58.557788 536.4 
L 48.946048 529.503178 
" style="fill:none;stroke:#000000;stroke-width:3;"/>
   </g>
  </g>
 </g>
 <defs>
  <clipPath id="p2a8f2d3bbb">
   <rect height="554.4" width="280.773058" x="7.2" y="7.2"/>
  </clipPath>
 </defs>
</svg>
