<?xml version="1.0" encoding="utf-8" standalone="no"?>
<!DOCTYPE svg PUBLIC "-//W3C//DTD SVG 1.1//EN"
  "http://www.w3.org/Graphics/SVG/1.1/DTD/svg11.dtd">
<!-- Created with matplotlib (https://matplotlib.org/) -->
<svg height="568.8pt" version="1.1" viewBox="0 0 370.169046 568.8" width="370.169046pt" xmlns="http://www.w3.org/2000/svg" xmlns:xlink="http://www.w3.org/1999/xlink">
 <metadata>
  <rdf:RDF xmlns:cc="http://creativecommons.org/ns#" xmlns:dc="http://purl.org/dc/elements/1.1/" xmlns:rdf="http://www.w3.org/1999/02/22-rdf-syntax-ns#">
   <cc:Work>
    <dc:type rdf:resource="http://purl.org/dc/dcmitype/StillImage"/>
    <dc:date>2021-04-18T13:14:57.215591</dc:date>
    <dc:format>image/svg+xml</dc:format>
    <dc:creator>
     <cc:Agent>
      <dc:title>Matplotlib v3.3.3, https://matplotlib.org/</dc:title>
     </cc:Agent>
    </dc:creator>
   </cc:Work>
  </rdf:RDF>
 </metadata>
 <defs>
  <style type="text/css">*{stroke-linecap:butt;stroke-linejoin:round;}</style>
 </defs>
 <g id="figure_1">
  <g id="patch_1">
   <path d="M 0 568.8 
L 370.169046 568.8 
L 370.169046 0 
L 0 0 
z
" style="fill:#ffffff;"/>
  </g>
  <g id="axes_1">
   <g id="LineCollection_1">
    <path clip-path="url(#pea1e842442)" d="M 317.282433 59.184837 
L 321.118756 62.859608 
L 314.92631 75.377255 
L 345.644611 93.890196 
L 346.797726 98.663007 
L 318.369021 148.894641 
L 313.296427 160.233725 
L 299.231758 181.762614 
L 288.371416 203.145098 
L 260.946143 253.018039 
L 237.58449 297.203137 
L 216.501346 333.577516 
L 209.238943 354.227974 
L 199.293331 366.313725 
L 178.132574 406.318954 
L 158.124931 440.270327 
L 145.113587 467.655425 
L 132.689889 485.16549 
L 115.864398 518.428758 
L 104.488481 536.4 
L 88.189653 529.174902 
L 83.521757 524.37281 
L 56.052134 510.36915 
L 48.224261 503.341699 
L 30.350988 493.166536 
L 23.37132 491.709804 
L 34.09861 470.166275 
L 39.232187 470.188235 
L 67.671979 486.505098 
L 71.037077 478.650458 
L 102.792072 423.228758 
L 134.037037 439.003922 
L 152.669813 407.87085 
L 170.149474 371.372026 
L 178.443028 359.827974 
L 186.797563 342.142222 
L 193.705162 337.010719 
L 198.700143 325.042092 
L 193.938002 317.70719 
L 206.38942 294.311634 
L 219.43957 295.826928 
L 236.708566 279.334379 
L 238.027995 262.051242 
L 248.134377 250.353464 
L 251.216741 235.068758 
L 262.060451 220.56 
L 265.320217 212.390588 
L 274.290116 206.417255 
L 284.357691 206.84915 
L 304.359791 170.877386 
L 305.623781 156.053856 
L 303.306465 147.013333 
L 316.52293 128.002614 
L 317.936604 113.223007 
L 325.69795 104.64366 
L 312.11005 101.371503 
L 320.237288 87.023791 
L 314.942941 79.864575 
L 300.002349 76.497255 
L 297.563068 84.264052 
L 303.544849 86.599216 
L 306.588406 97.777255 
L 294.852141 108.00366 
L 290.561225 115.367843 
L 278.82496 119.035294 
L 273.763453 115.038431 
L 306.494161 53.67268 
L 319.400172 32.4 
L 327.416534 35.789281 
L 329.063048 47.677386 
L 322.210888 60.780654 
L 316.589455 59.83634 
" style="fill:none;stroke:#000000;stroke-width:3;"/>
   </g>
  </g>
 </g>
 <defs>
  <clipPath id="pea1e842442">
   <rect height="554.4" width="355.769046" x="7.2" y="7.2"/>
  </clipPath>
 </defs>
</svg>
