<?xml version="1.0" encoding="utf-8" standalone="no"?>
<!DOCTYPE svg PUBLIC "-//W3C//DTD SVG 1.1//EN"
  "http://www.w3.org/Graphics/SVG/1.1/DTD/svg11.dtd">
<!-- Created with matplotlib (https://matplotlib.org/) -->
<svg height="568.8pt" version="1.1" viewBox="0 0 299.810069 568.8" width="299.810069pt" xmlns="http://www.w3.org/2000/svg" xmlns:xlink="http://www.w3.org/1999/xlink">
 <metadata>
  <rdf:RDF xmlns:cc="http://creativecommons.org/ns#" xmlns:dc="http://purl.org/dc/elements/1.1/" xmlns:rdf="http://www.w3.org/1999/02/22-rdf-syntax-ns#">
   <cc:Work>
    <dc:type rdf:resource="http://purl.org/dc/dcmitype/StillImage"/>
    <dc:date>2021-04-18T13:14:58.195395</dc:date>
    <dc:format>image/svg+xml</dc:format>
    <dc:creator>
     <cc:Agent>
      <dc:title>Matplotlib v3.3.3, https://matplotlib.org/</dc:title>
     </cc:Agent>
    </dc:creator>
   </cc:Work>
  </rdf:RDF>
 </metadata>
 <defs>
  <style type="text/css">*{stroke-linecap:butt;stroke-linejoin:round;}</style>
 </defs>
 <g id="figure_1">
  <g id="patch_1">
   <path d="M 0 568.8 
L 299.810069 568.8 
L 299.810069 0 
L 0 0 
z
" style="fill:#ffffff;"/>
  </g>
  <g id="axes_1">
   <g id="LineCollection_1">
    <path clip-path="url(#p8db7bcb861)" d="M 274.393022 32.4 
L 279.636884 33.970329 
L 270.130594 52.918338 
L 254.01933 50.307429 
L 248.259679 59.133436 
L 258.826203 66.04856 
L 261.333514 78.459837 
L 241.353828 101.447186 
L 231.847538 105.33517 
L 220.765223 125.569714 
L 211.015366 134.471399 
L 205.313024 151.849078 
L 192.762142 159.152055 
L 185.648543 169.330816 
L 186.035385 194.862855 
L 171.571783 212.931101 
L 170.970028 224.878847 
L 139.478203 256.8341 
L 136.41212 283.208063 
L 123.624834 293.831435 
L 116.031264 313.678126 
L 96.373946 336.693855 
L 104.461815 353.106633 
L 80.062098 401.011134 
L 20.173185 509.013837 
L 35.482109 515.97626 
L 60.447762 536.4 
L 49.129044 532.162003 
" style="fill:none;stroke:#000000;stroke-width:3;"/>
   </g>
  </g>
 </g>
 <defs>
  <clipPath id="p8db7bcb861">
   <rect height="554.4" width="285.410069" x="7.2" y="7.2"/>
  </clipPath>
 </defs>
</svg>
