<?xml version="1.0" encoding="utf-8" standalone="no"?>
<!DOCTYPE svg PUBLIC "-//W3C//DTD SVG 1.1//EN"
  "http://www.w3.org/Graphics/SVG/1.1/DTD/svg11.dtd">
<!-- Created with matplotlib (https://matplotlib.org/) -->
<svg height="568.8pt" version="1.1" viewBox="0 0 273.530389 568.8" width="273.530389pt" xmlns="http://www.w3.org/2000/svg" xmlns:xlink="http://www.w3.org/1999/xlink">
 <metadata>
  <rdf:RDF xmlns:cc="http://creativecommons.org/ns#" xmlns:dc="http://purl.org/dc/elements/1.1/" xmlns:rdf="http://www.w3.org/1999/02/22-rdf-syntax-ns#">
   <cc:Work>
    <dc:type rdf:resource="http://purl.org/dc/dcmitype/StillImage"/>
    <dc:date>2021-04-18T13:14:58.276038</dc:date>
    <dc:format>image/svg+xml</dc:format>
    <dc:creator>
     <cc:Agent>
      <dc:title>Matplotlib v3.3.3, https://matplotlib.org/</dc:title>
     </cc:Agent>
    </dc:creator>
   </cc:Work>
  </rdf:RDF>
 </metadata>
 <defs>
  <style type="text/css">*{stroke-linecap:butt;stroke-linejoin:round;}</style>
 </defs>
 <g id="figure_1">
  <g id="patch_1">
   <path d="M 0 568.8 
L 273.530389 568.8 
L 273.530389 0 
L 0 0 
z
" style="fill:#ffffff;"/>
  </g>
  <g id="axes_1">
   <g id="LineCollection_1">
    <path clip-path="url(#pd94f08f47f)" d="M 25.853701 535.314884 
L 20.33449 536.4 
L 18.978654 522.872226 
L 47.862069 468.489852 
L 58.914187 456.029109 
L 61.00957 446.109344 
L 71.390617 427.825147 
L 82.346868 417.616018 
L 97.891048 380.514109 
L 91.529575 372.864045 
L 108.128295 345.790412 
L 126.062307 346.974996 
L 145.379546 325.887584 
L 146.434085 303.950165 
L 158.424332 291.905383 
L 165.107645 265.699842 
L 171.25684 260.509373 
L 181.507782 240.886867 
L 200.003303 238.264504 
L 207.138561 232.71233 
L 229.838542 188.195464 
L 225.414956 164.811224 
L 242.52725 142.37646 
L 246.546824 118.169341 
L 254.551735 112.535783 
L 249.607727 107.037864 
L 236.480769 108.855433 
L 247.02616 90.788259 
L 239.055488 78.833903 
L 222.504702 75.289192 
L 219.060331 84.666399 
L 228.523792 92.840936 
L 228.359448 109.0182 
L 216.814299 114.606545 
L 212.705706 122.518846 
L 198.22976 128.740175 
L 189.95779 124.273116 
L 200.441553 102.218143 
L 241.274129 32.4 
L 253.702625 40.06815 
L 248.532645 58.008727 
L 242.787461 56.218286 
" style="fill:none;stroke:#000000;stroke-width:3;"/>
   </g>
  </g>
 </g>
 <defs>
  <clipPath id="pd94f08f47f">
   <rect height="554.4" width="259.130389" x="7.2" y="7.2"/>
  </clipPath>
 </defs>
</svg>
