<?xml version="1.0" encoding="utf-8" standalone="no"?>
<!DOCTYPE svg PUBLIC "-//W3C//DTD SVG 1.1//EN"
  "http://www.w3.org/Graphics/SVG/1.1/DTD/svg11.dtd">
<!-- Created with matplotlib (https://matplotlib.org/) -->
<svg height="568.8pt" version="1.1" viewBox="0 0 301.027466 568.8" width="301.027466pt" xmlns="http://www.w3.org/2000/svg" xmlns:xlink="http://www.w3.org/1999/xlink">
 <metadata>
  <rdf:RDF xmlns:cc="http://creativecommons.org/ns#" xmlns:dc="http://purl.org/dc/elements/1.1/" xmlns:rdf="http://www.w3.org/1999/02/22-rdf-syntax-ns#">
   <cc:Work>
    <dc:type rdf:resource="http://purl.org/dc/dcmitype/StillImage"/>
    <dc:date>2021-04-18T13:14:58.537355</dc:date>
    <dc:format>image/svg+xml</dc:format>
    <dc:creator>
     <cc:Agent>
      <dc:title>Matplotlib v3.3.3, https://matplotlib.org/</dc:title>
     </cc:Agent>
    </dc:creator>
   </cc:Work>
  </rdf:RDF>
 </metadata>
 <defs>
  <style type="text/css">*{stroke-linecap:butt;stroke-linejoin:round;}</style>
 </defs>
 <g id="figure_1">
  <g id="patch_1">
   <path d="M 0 568.8 
L 301.027466 568.8 
L 301.027466 0 
L 0 0 
z
" style="fill:#ffffff;"/>
  </g>
  <g id="axes_1">
   <g id="LineCollection_1">
    <path clip-path="url(#pd9e311e389)" d="M 274.90282 32.4 
L 280.798945 41.234061 
L 270.23978 59.098702 
L 252.423847 57.330018 
L 250.708868 68.456817 
L 260.566451 74.24949 
L 260.849919 89.39092 
L 244.926131 100.040455 
L 240.248917 108.518907 
L 226.59287 116.950569 
L 217.309309 135.797813 
L 211.321058 139.503626 
L 208.670636 153.709245 
L 187.764907 170.703582 
L 187.54522 197.402284 
L 172.535615 214.780303 
L 171.224578 229.126294 
L 139.178576 265.856895 
L 138.39904 286.688059 
L 127.010733 293.004787 
L 119.987825 311.561929 
L 96.545062 341.59212 
L 105.445942 360.298992 
L 99.528558 376.451098 
L 89.911922 384.976341 
L 79.572445 406.687168 
L 57.88718 442.949864 
L 41.127163 466.25157 
L 45.698077 470.462722 
L 39.256278 483.489218 
L 31.638089 487.765876 
L 20.228521 511.310894 
L 31.411315 513.594274 
L 40.368888 523.729112 
L 63.152589 534.818479 
L 52.976105 536.4 
" style="fill:none;stroke:#000000;stroke-width:3;"/>
   </g>
  </g>
 </g>
 <defs>
  <clipPath id="pd9e311e389">
   <rect height="554.4" width="286.627466" x="7.2" y="7.2"/>
  </clipPath>
 </defs>
</svg>
