<?xml version="1.0" encoding="utf-8" standalone="no"?>
<!DOCTYPE svg PUBLIC "-//W3C//DTD SVG 1.1//EN"
  "http://www.w3.org/Graphics/SVG/1.1/DTD/svg11.dtd">
<!-- Created with matplotlib (https://matplotlib.org/) -->
<svg height="568.8pt" version="1.1" viewBox="0 0 248.070651 568.8" width="248.070651pt" xmlns="http://www.w3.org/2000/svg" xmlns:xlink="http://www.w3.org/1999/xlink">
 <metadata>
  <rdf:RDF xmlns:cc="http://creativecommons.org/ns#" xmlns:dc="http://purl.org/dc/elements/1.1/" xmlns:rdf="http://www.w3.org/1999/02/22-rdf-syntax-ns#">
   <cc:Work>
    <dc:type rdf:resource="http://purl.org/dc/dcmitype/StillImage"/>
    <dc:date>2021-04-18T13:14:58.841035</dc:date>
    <dc:format>image/svg+xml</dc:format>
    <dc:creator>
     <cc:Agent>
      <dc:title>Matplotlib v3.3.3, https://matplotlib.org/</dc:title>
     </cc:Agent>
    </dc:creator>
   </cc:Work>
  </rdf:RDF>
 </metadata>
 <defs>
  <style type="text/css">*{stroke-linecap:butt;stroke-linejoin:round;}</style>
 </defs>
 <g id="figure_1">
  <g id="patch_1">
   <path d="M -0 568.8 
L 248.070651 568.8 
L 248.070651 0 
L -0 0 
z
" style="fill:#ffffff;"/>
  </g>
  <g id="axes_1">
   <g id="LineCollection_1">
    <path clip-path="url(#pda93768563)" d="M 36.001387 474.206109 
L 25.815642 472.844767 
L 19.176351 502.273096 
L 17.821393 527.500712 
L 25.073361 536.4 
L 29.980663 531.662529 
L 45.562673 503.891148 
L 52.720383 488.138474 
L 48.455213 481.891858 
L 25.868662 470.806643 
L 37.556642 448.083897 
L 62.976821 403.338524 
L 72.714841 383.431811 
L 84.933022 365.15093 
L 96.296991 343.003837 
L 91.136371 333.225511 
L 100.903846 316.842729 
L 108.621212 309.911553 
L 120.344539 312.136375 
L 136.050263 295.286848 
L 139.696866 285.485184 
L 138.347799 275.629067 
L 148.221315 265.59403 
L 152.150691 247.422056 
L 169.181917 221.704357 
L 187.750724 216.982445 
L 208.552266 178.328105 
L 209.630341 163.423353 
L 206.631761 157.23119 
L 219.851432 137.371153 
L 222.908923 117.868953 
L 230.249258 111.132254 
L 227.350827 106.845971 
L 216.004532 106.698168 
L 224.688041 90.369841 
L 218.060532 82.660754 
L 204.251749 79.191276 
L 199.921776 85.056716 
L 208.004392 91.357786 
L 210.284255 102.730828 
L 195.438635 118.506839 
L 184.522391 124.70678 
L 175.638583 120.443835 
L 224.122494 32.4 
L 218.578951 37.759799 
L 209.960243 56.896381 
L 220.187226 63.142996 
" style="fill:none;stroke:#000000;stroke-width:3;"/>
   </g>
  </g>
 </g>
 <defs>
  <clipPath id="pda93768563">
   <rect height="554.4" width="233.670651" x="7.2" y="7.2"/>
  </clipPath>
 </defs>
</svg>
