<?xml version="1.0" encoding="utf-8" standalone="no"?>
<!DOCTYPE svg PUBLIC "-//W3C//DTD SVG 1.1//EN"
  "http://www.w3.org/Graphics/SVG/1.1/DTD/svg11.dtd">
<!-- Created with matplotlib (https://matplotlib.org/) -->
<svg height="568.8pt" version="1.1" viewBox="0 0 292.920563 568.8" width="292.920563pt" xmlns="http://www.w3.org/2000/svg" xmlns:xlink="http://www.w3.org/1999/xlink">
 <metadata>
  <rdf:RDF xmlns:cc="http://creativecommons.org/ns#" xmlns:dc="http://purl.org/dc/elements/1.1/" xmlns:rdf="http://www.w3.org/1999/02/22-rdf-syntax-ns#">
   <cc:Work>
    <dc:type rdf:resource="http://purl.org/dc/dcmitype/StillImage"/>
    <dc:date>2021-04-18T13:15:00.496067</dc:date>
    <dc:format>image/svg+xml</dc:format>
    <dc:creator>
     <cc:Agent>
      <dc:title>Matplotlib v3.3.3, https://matplotlib.org/</dc:title>
     </cc:Agent>
    </dc:creator>
   </cc:Work>
  </rdf:RDF>
 </metadata>
 <defs>
  <style type="text/css">*{stroke-linecap:butt;stroke-linejoin:round;}</style>
 </defs>
 <g id="figure_1">
  <g id="patch_1">
   <path d="M 0 568.8 
L 292.920563 568.8 
L 292.920563 0 
L 0 0 
z
" style="fill:#ffffff;"/>
  </g>
  <g id="axes_1">
   <g id="LineCollection_1">
    <path clip-path="url(#p95e025191c)" d="M 273.060537 32.4 
L 266.370913 56.947518 
L 250.202551 53.825328 
L 246.528567 64.734298 
L 255.037486 71.016069 
L 253.041217 89.207033 
L 237.347146 104.537547 
L 225.511112 111.296061 
L 216.492507 127.299622 
L 206.270478 136.310973 
L 205.704161 148.809081 
L 184.339837 162.279368 
L 180.7508 173.767906 
L 181.225091 196.913243 
L 171.831301 207.513732 
L 168.164396 225.321433 
L 135.969251 258.440953 
L 135.332144 278.875406 
L 122.292686 290.578945 
L 115.199561 310.415135 
L 96.21377 332.747207 
L 94.323685 343.618785 
L 101.905259 355.079279 
L 82.374388 388.086624 
L 53.343542 445.753661 
L 44.381569 458.494814 
L 31.455374 488.080837 
L 19.860026 503.523525 
L 41.69864 522.518406 
L 59.53056 530.688449 
L 56.337945 536.4 
L 46.753023 529.949967 
" style="fill:none;stroke:#000000;stroke-width:3;"/>
   </g>
  </g>
 </g>
 <defs>
  <clipPath id="p95e025191c">
   <rect height="554.4" width="278.520563" x="7.2" y="7.2"/>
  </clipPath>
 </defs>
</svg>
