<?xml version="1.0" encoding="utf-8" standalone="no"?>
<!DOCTYPE svg PUBLIC "-//W3C//DTD SVG 1.1//EN"
  "http://www.w3.org/Graphics/SVG/1.1/DTD/svg11.dtd">
<!-- Created with matplotlib (https://matplotlib.org/) -->
<svg height="568.8pt" version="1.1" viewBox="0 0 314.195684 568.8" width="314.195684pt" xmlns="http://www.w3.org/2000/svg" xmlns:xlink="http://www.w3.org/1999/xlink">
 <metadata>
  <rdf:RDF xmlns:cc="http://creativecommons.org/ns#" xmlns:dc="http://purl.org/dc/elements/1.1/" xmlns:rdf="http://www.w3.org/1999/02/22-rdf-syntax-ns#">
   <cc:Work>
    <dc:type rdf:resource="http://purl.org/dc/dcmitype/StillImage"/>
    <dc:date>2021-04-18T13:15:00.838032</dc:date>
    <dc:format>image/svg+xml</dc:format>
    <dc:creator>
     <cc:Agent>
      <dc:title>Matplotlib v3.3.3, https://matplotlib.org/</dc:title>
     </cc:Agent>
    </dc:creator>
   </cc:Work>
  </rdf:RDF>
 </metadata>
 <defs>
  <style type="text/css">*{stroke-linecap:butt;stroke-linejoin:round;}</style>
 </defs>
 <g id="figure_1">
  <g id="patch_1">
   <path d="M 0 568.8 
L 314.195684 568.8 
L 314.195684 0 
L 0 0 
z
" style="fill:#ffffff;"/>
  </g>
  <g id="axes_1">
   <g id="LineCollection_1">
    <path clip-path="url(#pb8b34ee57a)" d="M 293.368608 32.4 
L 275.914441 61.063374 
L 262.265751 58.199844 
L 257.035879 68.428074 
L 265.461784 73.107044 
L 268.416874 86.395321 
L 248.631233 108.695295 
L 235.393562 115.966415 
L 226.400734 134.523213 
L 217.436251 142.814349 
L 215.338633 155.775097 
L 196.615974 169.952378 
L 192.68294 182.660463 
L 195.297877 196.884533 
L 180.345261 216.058955 
L 175.682313 234.877775 
L 146.322747 265.506317 
L 146.514083 281.555186 
L 136.777167 292.045438 
L 122.242658 320.437432 
L 105.213684 339.508916 
L 113.299435 360.124461 
L 96.086211 387.374786 
L 86.972911 406.801872 
L 69.299062 436.167091 
L 25.624669 517.768339 
L 20.827077 522.980712 
L 39.86863 536.4 
L 44.03552 531.833325 
" style="fill:none;stroke:#000000;stroke-width:3;"/>
   </g>
  </g>
 </g>
 <defs>
  <clipPath id="pb8b34ee57a">
   <rect height="554.4" width="299.795684" x="7.2" y="7.2"/>
  </clipPath>
 </defs>
</svg>
