<?xml version="1.0" encoding="utf-8" standalone="no"?>
<!DOCTYPE svg PUBLIC "-//W3C//DTD SVG 1.1//EN"
  "http://www.w3.org/Graphics/SVG/1.1/DTD/svg11.dtd">
<!-- Created with matplotlib (https://matplotlib.org/) -->
<svg height="568.8pt" version="1.1" viewBox="0 0 291.415775 568.8" width="291.415775pt" xmlns="http://www.w3.org/2000/svg" xmlns:xlink="http://www.w3.org/1999/xlink">
 <metadata>
  <rdf:RDF xmlns:cc="http://creativecommons.org/ns#" xmlns:dc="http://purl.org/dc/elements/1.1/" xmlns:rdf="http://www.w3.org/1999/02/22-rdf-syntax-ns#">
   <cc:Work>
    <dc:type rdf:resource="http://purl.org/dc/dcmitype/StillImage"/>
    <dc:date>2021-04-18T13:15:00.754141</dc:date>
    <dc:format>image/svg+xml</dc:format>
    <dc:creator>
     <cc:Agent>
      <dc:title>Matplotlib v3.3.3, https://matplotlib.org/</dc:title>
     </cc:Agent>
    </dc:creator>
   </cc:Work>
  </rdf:RDF>
 </metadata>
 <defs>
  <style type="text/css">*{stroke-linecap:butt;stroke-linejoin:round;}</style>
 </defs>
 <g id="figure_1">
  <g id="patch_1">
   <path d="M 0 568.8 
L 291.415775 568.8 
L 291.415775 0 
L 0 0 
z
" style="fill:#ffffff;"/>
  </g>
  <g id="axes_1">
   <g id="LineCollection_1">
    <path clip-path="url(#p1323ae4f9e)" d="M 19.791626 536.4 
L 20.585155 529.209064 
L 33.987782 508.722588 
L 33.237934 499.512807 
L 45.373827 493.763903 
L 43.590207 480.804837 
L 50.317001 479.680052 
L 51.794857 465.519292 
L 61.368162 454.117621 
L 70.082418 429.71843 
L 84.693538 418.864731 
L 87.103245 404.684744 
L 104.750158 378.237867 
L 98.096165 367.941754 
L 117.70142 337.553321 
L 135.093531 340.206661 
L 156.249443 319.297188 
L 157.021131 299.550956 
L 169.011423 286.293869 
L 176.124061 258.251143 
L 197.709498 228.881746 
L 217.897159 225.632366 
L 243.741443 178.218334 
L 246.311311 160.365971 
L 243.814244 143.176943 
L 258.199681 126.81468 
L 260.529307 103.36723 
L 271.624149 94.772716 
L 264.897355 87.802892 
L 254.43588 87.793278 
L 261.832441 78.756541 
L 264.933755 64.605394 
L 258.250642 56.318514 
L 268.14427 37.485568 
L 259.189772 32.4 
" style="fill:none;stroke:#000000;stroke-width:3;"/>
   </g>
  </g>
 </g>
 <defs>
  <clipPath id="p1323ae4f9e">
   <rect height="554.4" width="277.015775" x="7.2" y="7.2"/>
  </clipPath>
 </defs>
</svg>
