<?xml version="1.0" encoding="utf-8" standalone="no"?>
<!DOCTYPE svg PUBLIC "-//W3C//DTD SVG 1.1//EN"
  "http://www.w3.org/Graphics/SVG/1.1/DTD/svg11.dtd">
<!-- Created with matplotlib (https://matplotlib.org/) -->
<svg height="568.8pt" version="1.1" viewBox="0 0 273.191583 568.8" width="273.191583pt" xmlns="http://www.w3.org/2000/svg" xmlns:xlink="http://www.w3.org/1999/xlink">
 <metadata>
  <rdf:RDF xmlns:cc="http://creativecommons.org/ns#" xmlns:dc="http://purl.org/dc/elements/1.1/" xmlns:rdf="http://www.w3.org/1999/02/22-rdf-syntax-ns#">
   <cc:Work>
    <dc:type rdf:resource="http://purl.org/dc/dcmitype/StillImage"/>
    <dc:date>2021-04-18T13:15:01.504809</dc:date>
    <dc:format>image/svg+xml</dc:format>
    <dc:creator>
     <cc:Agent>
      <dc:title>Matplotlib v3.3.3, https://matplotlib.org/</dc:title>
     </cc:Agent>
    </dc:creator>
   </cc:Work>
  </rdf:RDF>
 </metadata>
 <defs>
  <style type="text/css">*{stroke-linecap:butt;stroke-linejoin:round;}</style>
 </defs>
 <g id="figure_1">
  <g id="patch_1">
   <path d="M 0 568.8 
L 273.191583 568.8 
L 273.191583 0 
L 0 0 
z
" style="fill:#ffffff;"/>
  </g>
  <g id="axes_1">
   <g id="LineCollection_1">
    <path clip-path="url(#p17a1357dae)" d="M 28.474083 536.4 
L 18.963254 531.642965 
L 30.288518 505.681137 
L 58.940637 454.793146 
L 69.3753 433.368933 
L 77.942357 421.967846 
L 97.037124 387.299415 
L 91.201688 377.35528 
L 103.842916 355.290359 
L 110.927852 348.593647 
L 127.131487 351.683087 
L 132.36211 341.791613 
L 144.405172 330.750376 
L 145.189434 311.757342 
L 155.982995 300.566899 
L 161.35319 277.975369 
L 179.537417 249.503371 
L 188.702639 245.466035 
L 199.702235 247.133631 
L 225.16414 201.476623 
L 226.480104 185.713458 
L 223.529155 174.25971 
L 238.828895 149.623182 
L 240.018579 133.754695 
L 249.223679 125.320173 
L 246.372424 120.580691 
L 235.818129 124.618027 
L 236.3166 113.866425 
L 243.527816 101.429674 
L 236.595744 92.986375 
L 254.228329 55.939426 
L 253.989063 41.510337 
L 243.248672 32.4 
L 227.417229 62.697576 
L 238.582982 69.482056 
" style="fill:none;stroke:#000000;stroke-width:3;"/>
   </g>
  </g>
 </g>
 <defs>
  <clipPath id="p17a1357dae">
   <rect height="554.4" width="258.791583" x="7.2" y="7.2"/>
  </clipPath>
 </defs>
</svg>
