<?xml version="1.0" encoding="utf-8" standalone="no"?>
<!DOCTYPE svg PUBLIC "-//W3C//DTD SVG 1.1//EN"
  "http://www.w3.org/Graphics/SVG/1.1/DTD/svg11.dtd">
<!-- Created with matplotlib (https://matplotlib.org/) -->
<svg height="568.8pt" version="1.1" viewBox="0 0 286.431099 568.8" width="286.431099pt" xmlns="http://www.w3.org/2000/svg" xmlns:xlink="http://www.w3.org/1999/xlink">
 <metadata>
  <rdf:RDF xmlns:cc="http://creativecommons.org/ns#" xmlns:dc="http://purl.org/dc/elements/1.1/" xmlns:rdf="http://www.w3.org/1999/02/22-rdf-syntax-ns#">
   <cc:Work>
    <dc:type rdf:resource="http://purl.org/dc/dcmitype/StillImage"/>
    <dc:date>2021-04-18T13:15:01.925045</dc:date>
    <dc:format>image/svg+xml</dc:format>
    <dc:creator>
     <cc:Agent>
      <dc:title>Matplotlib v3.3.3, https://matplotlib.org/</dc:title>
     </cc:Agent>
    </dc:creator>
   </cc:Work>
  </rdf:RDF>
 </metadata>
 <defs>
  <style type="text/css">*{stroke-linecap:butt;stroke-linejoin:round;}</style>
 </defs>
 <g id="figure_1">
  <g id="patch_1">
   <path d="M 0 568.8 
L 286.431099 568.8 
L 286.431099 0 
L 0 0 
z
" style="fill:#ffffff;"/>
  </g>
  <g id="axes_1">
   <g id="LineCollection_1">
    <path clip-path="url(#p1018dd8f41)" d="M 33.321795 536.4 
L 19.56505 532.159682 
L 27.937509 510.856911 
L 47.266607 479.132708 
L 80.275829 417.100807 
L 103.505573 376.261299 
L 97.933221 369.896222 
L 112.61637 342.430733 
L 132.635046 341.584509 
L 150.160094 322.72843 
L 155.140384 311.782706 
L 153.280611 297.755623 
L 164.836277 287.242209 
L 168.367755 267.116794 
L 187.668991 237.002256 
L 214.708831 227.224689 
L 236.106664 186.182823 
L 235.96039 152.885747 
L 249.633549 134.627543 
L 253.854606 110.822893 
L 262.505684 103.878337 
L 245.558767 98.773399 
L 254.732252 84.047261 
L 249.152934 67.610278 
L 262.561407 46.436281 
L 266.866049 32.4 
L 256.585059 49.609621 
L 251.876421 44.845012 
" style="fill:none;stroke:#000000;stroke-width:3;"/>
   </g>
  </g>
 </g>
 <defs>
  <clipPath id="p1018dd8f41">
   <rect height="554.4" width="272.031099" x="7.2" y="7.2"/>
  </clipPath>
 </defs>
</svg>
