<?xml version="1.0" encoding="utf-8" standalone="no"?>
<!DOCTYPE svg PUBLIC "-//W3C//DTD SVG 1.1//EN"
  "http://www.w3.org/Graphics/SVG/1.1/DTD/svg11.dtd">
<!-- Created with matplotlib (https://matplotlib.org/) -->
<svg height="568.8pt" version="1.1" viewBox="0 0 280.239028 568.8" width="280.239028pt" xmlns="http://www.w3.org/2000/svg" xmlns:xlink="http://www.w3.org/1999/xlink">
 <metadata>
  <rdf:RDF xmlns:cc="http://creativecommons.org/ns#" xmlns:dc="http://purl.org/dc/elements/1.1/" xmlns:rdf="http://www.w3.org/1999/02/22-rdf-syntax-ns#">
   <cc:Work>
    <dc:type rdf:resource="http://purl.org/dc/dcmitype/StillImage"/>
    <dc:date>2021-04-18T13:15:02.014709</dc:date>
    <dc:format>image/svg+xml</dc:format>
    <dc:creator>
     <cc:Agent>
      <dc:title>Matplotlib v3.3.3, https://matplotlib.org/</dc:title>
     </cc:Agent>
    </dc:creator>
   </cc:Work>
  </rdf:RDF>
 </metadata>
 <defs>
  <style type="text/css">*{stroke-linecap:butt;stroke-linejoin:round;}</style>
 </defs>
 <g id="figure_1">
  <g id="patch_1">
   <path d="M 0 568.8 
L 280.239028 568.8 
L 280.239028 0 
L 0 0 
z
" style="fill:#ffffff;"/>
  </g>
  <g id="axes_1">
   <g id="LineCollection_1">
    <path clip-path="url(#p051b8425d4)" d="M 241.777509 62.850128 
L 230.240787 55.95105 
L 224.786351 65.722781 
L 219.863445 62.294434 
L 224.137098 44.003637 
L 228.161038 36.567702 
L 222.717304 32.4 
L 208.633514 56.610347 
L 194.710253 48.472732 
L 193.850528 44.196717 
L 181.229341 67.931428 
L 172.14337 80.815985 
L 172.856834 87.300648 
L 165.540255 92.099392 
L 162.261886 105.407783 
L 155.64807 110.64449 
L 148.666819 121.405167 
L 147.107899 134.581699 
L 143.847366 139.258002 
L 148.809512 140.576598 
L 146.847484 144.711335 
L 140.041033 139.644162 
L 133.880266 138.292603 
L 133.034811 143.548146 
L 124.608795 151.963608 
L 117.656083 169.251331 
L 119.928467 171.403467 
L 110.728342 184.424593 
L 98.04651 205.945948 
L 97.279536 215.147858 
L 93.294836 223.323147 
L 80.848447 243.714278 
L 74.495046 249.497259 
L 55.327821 283.752476 
L 49.281209 302.44827 
L 51.628507 314.913703 
L 49.224132 335.408437 
L 46.477293 350.925476 
L 43.359453 356.543633 
L 44.187072 364.313925 
L 42.278554 387.389339 
L 41.140578 410.375276 
L 34.92987 453.870077 
L 30.449312 474.595565 
L 27.52054 480.661103 
L 27.071058 490.169115 
L 24.41697 502.643966 
L 19.301429 514.71382 
L 19.283592 518.923906 
L 26.543094 521.250285 
L 27.402819 529.227785 
L 34.048741 531.940323 
L 36.060711 536.4 
L 47.65451 533.235372 
L 59.255443 521.763595 
L 70.0787 512.985519 
L 84.96157 503.496344 
L 98.078616 500.637818 
L 103.518783 496.253489 
L 129.588777 492.142298 
L 136.941029 493.008804 
L 159.272469 492.06695 
L 164.066951 486.957394 
L 170.805624 469.128105 
L 175.468114 451.623756 
L 180.201952 426.066558 
L 180.348212 412.866479 
L 182.067661 404.451017 
L 173.559597 391.557041 
L 170.934047 375.790411 
L 172.771219 365.731415 
L 177.241074 358.243678 
L 178.87134 342.717222 
L 185.042809 329.733769 
L 164.173971 317.758101 
L 171.772368 302.533037 
L 149.786958 291.296723 
L 137.497532 282.994283 
L 148.442078 262.819779 
L 140.20513 257.14982 
L 129.760009 252.280437 
L 131.408112 246.304376 
L 170.470295 176.724939 
L 201.174242 120.576336 
L 216.278286 93.841821 
L 234.400285 60.58497 
L 255.308364 70.380247 
L 260.955436 61.564497 
L 251.066817 56.855229 
L 248.844375 50.982772 
L 239.979578 47.950003 
L 235.827214 55.583727 
L 245.184302 61.573916 
L 241.930904 62.51577 
" style="fill:none;stroke:#000000;stroke-width:3;"/>
   </g>
  </g>
 </g>
 <defs>
  <clipPath id="p051b8425d4">
   <rect height="554.4" width="265.839028" x="7.2" y="7.2"/>
  </clipPath>
 </defs>
</svg>
