<?xml version="1.0" encoding="utf-8" standalone="no"?>
<!DOCTYPE svg PUBLIC "-//W3C//DTD SVG 1.1//EN"
  "http://www.w3.org/Graphics/SVG/1.1/DTD/svg11.dtd">
<!-- Created with matplotlib (https://matplotlib.org/) -->
<svg height="568.8pt" version="1.1" viewBox="0 0 306.34455 568.8" width="306.34455pt" xmlns="http://www.w3.org/2000/svg" xmlns:xlink="http://www.w3.org/1999/xlink">
 <metadata>
  <rdf:RDF xmlns:cc="http://creativecommons.org/ns#" xmlns:dc="http://purl.org/dc/elements/1.1/" xmlns:rdf="http://www.w3.org/1999/02/22-rdf-syntax-ns#">
   <cc:Work>
    <dc:type rdf:resource="http://purl.org/dc/dcmitype/StillImage"/>
    <dc:date>2021-04-18T13:15:02.178226</dc:date>
    <dc:format>image/svg+xml</dc:format>
    <dc:creator>
     <cc:Agent>
      <dc:title>Matplotlib v3.3.3, https://matplotlib.org/</dc:title>
     </cc:Agent>
    </dc:creator>
   </cc:Work>
  </rdf:RDF>
 </metadata>
 <defs>
  <style type="text/css">*{stroke-linecap:butt;stroke-linejoin:round;}</style>
 </defs>
 <g id="figure_1">
  <g id="patch_1">
   <path d="M 0 568.8 
L 306.34455 568.8 
L 306.34455 0 
L 0 0 
z
" style="fill:#ffffff;"/>
  </g>
  <g id="axes_1">
   <g id="LineCollection_1">
    <path clip-path="url(#p591bb00b6b)" d="M 280.001303 32.4 
L 285.874343 35.190069 
L 276.033419 53.935551 
L 258.929979 52.734403 
L 254.618308 62.107144 
L 264.10112 68.358791 
L 266.20682 82.961729 
L 248.351344 101.177571 
L 232.100211 111.590677 
L 223.118756 130.014592 
L 213.62162 139.57649 
L 212.754988 150.925925 
L 194.713294 163.637291 
L 188.668359 175.270461 
L 192.485836 191.528526 
L 177.50242 210.850937 
L 174.193463 228.499308 
L 142.285663 262.169296 
L 143.374324 281.406587 
L 129.379298 293.370782 
L 122.489219 311.756865 
L 106.5389 329.055295 
L 99.577199 341.369431 
L 110.155834 354.903631 
L 57.019141 451.600811 
L 20.470207 516.727647 
L 26.307436 523.518392 
L 53.559777 536.4 
" style="fill:none;stroke:#000000;stroke-width:3;"/>
   </g>
  </g>
 </g>
 <defs>
  <clipPath id="p591bb00b6b">
   <rect height="554.4" width="291.94455" x="7.2" y="7.2"/>
  </clipPath>
 </defs>
</svg>
