<?xml version="1.0" encoding="utf-8" standalone="no"?>
<!DOCTYPE svg PUBLIC "-//W3C//DTD SVG 1.1//EN"
  "http://www.w3.org/Graphics/SVG/1.1/DTD/svg11.dtd">
<!-- Created with matplotlib (https://matplotlib.org/) -->
<svg height="568.8pt" version="1.1" viewBox="0 0 284.601835 568.8" width="284.601835pt" xmlns="http://www.w3.org/2000/svg" xmlns:xlink="http://www.w3.org/1999/xlink">
 <metadata>
  <rdf:RDF xmlns:cc="http://creativecommons.org/ns#" xmlns:dc="http://purl.org/dc/elements/1.1/" xmlns:rdf="http://www.w3.org/1999/02/22-rdf-syntax-ns#">
   <cc:Work>
    <dc:type rdf:resource="http://purl.org/dc/dcmitype/StillImage"/>
    <dc:date>2021-04-18T13:15:02.623186</dc:date>
    <dc:format>image/svg+xml</dc:format>
    <dc:creator>
     <cc:Agent>
      <dc:title>Matplotlib v3.3.3, https://matplotlib.org/</dc:title>
     </cc:Agent>
    </dc:creator>
   </cc:Work>
  </rdf:RDF>
 </metadata>
 <defs>
  <style type="text/css">*{stroke-linecap:butt;stroke-linejoin:round;}</style>
 </defs>
 <g id="figure_1">
  <g id="patch_1">
   <path d="M -0 568.8 
L 284.601835 568.8 
L 284.601835 0 
L -0 0 
z
" style="fill:#ffffff;"/>
  </g>
  <g id="axes_1">
   <g id="LineCollection_1">
    <path clip-path="url(#p027a694716)" d="M 21.934395 536.4 
L 19.481902 531.080099 
L 39.179591 504.723253 
L 34.585584 492.216818 
L 48.636178 484.535627 
L 54.820419 464.469332 
L 59.887962 461.53872 
L 71.394183 436.955175 
L 104.032837 384.568145 
L 98.081831 371.688384 
L 116.231693 342.690254 
L 132.621697 345.228874 
L 154.114584 323.799937 
L 153.959094 306.169597 
L 166.334643 289.845899 
L 170.617671 269.686272 
L 193.100035 235.666902 
L 209.214399 234.033599 
L 219.285876 223.841788 
L 239.202665 184.698513 
L 240.566731 165.294872 
L 237.471077 155.625718 
L 252.984686 137.538053 
L 256.440793 112.525183 
L 265.119933 105.235985 
L 257.154631 97.676125 
L 248.645116 99.925416 
L 258.914489 79.009804 
L 247.478945 66.970026 
L 229.074646 66.494035 
L 229.180661 74.809881 
L 237.442807 80.083117 
L 238.326269 98.441444 
L 225.321695 106.645292 
L 222.141229 114.027822 
L 210.705685 119.581052 
L 199.128786 115.661125 
L 210.90358 92.038896 
L 235.046855 50.375667 
L 225.053122 41.994489 
L 230.69315 32.4 
L 252.857468 43.833122 
" style="fill:none;stroke:#000000;stroke-width:3;"/>
   </g>
  </g>
 </g>
 <defs>
  <clipPath id="p027a694716">
   <rect height="554.4" width="270.201835" x="7.2" y="7.2"/>
  </clipPath>
 </defs>
</svg>
