<?xml version="1.0" encoding="utf-8" standalone="no"?>
<!DOCTYPE svg PUBLIC "-//W3C//DTD SVG 1.1//EN"
  "http://www.w3.org/Graphics/SVG/1.1/DTD/svg11.dtd">
<!-- Created with matplotlib (https://matplotlib.org/) -->
<svg height="568.8pt" version="1.1" viewBox="0 0 296.473804 568.8" width="296.473804pt" xmlns="http://www.w3.org/2000/svg" xmlns:xlink="http://www.w3.org/1999/xlink">
 <metadata>
  <rdf:RDF xmlns:cc="http://creativecommons.org/ns#" xmlns:dc="http://purl.org/dc/elements/1.1/" xmlns:rdf="http://www.w3.org/1999/02/22-rdf-syntax-ns#">
   <cc:Work>
    <dc:type rdf:resource="http://purl.org/dc/dcmitype/StillImage"/>
    <dc:date>2021-04-18T13:15:02.979833</dc:date>
    <dc:format>image/svg+xml</dc:format>
    <dc:creator>
     <cc:Agent>
      <dc:title>Matplotlib v3.3.3, https://matplotlib.org/</dc:title>
     </cc:Agent>
    </dc:creator>
   </cc:Work>
  </rdf:RDF>
 </metadata>
 <defs>
  <style type="text/css">*{stroke-linecap:butt;stroke-linejoin:round;}</style>
 </defs>
 <g id="figure_1">
  <g id="patch_1">
   <path d="M 0 568.8 
L 296.473804 568.8 
L 296.473804 0 
L 0 0 
z
" style="fill:#ffffff;"/>
  </g>
  <g id="axes_1">
   <g id="LineCollection_1">
    <path clip-path="url(#pb1eb63db4b)" d="M 272.741752 32.4 
L 276.452267 39.768421 
L 266.799241 54.05471 
L 250.834073 51.257526 
L 259.413751 75.042977 
L 256.037324 85.011465 
L 244.294467 91.169024 
L 239.19784 101.456654 
L 223.154482 112.467047 
L 216.714392 128.086222 
L 207.630026 135.6236 
L 207.160881 147.159638 
L 191.572451 156.114381 
L 182.971448 174.77479 
L 186.703289 188.1412 
L 169.686097 211.14757 
L 169.735855 220.834462 
L 153.102511 241.409722 
L 136.113753 257.892457 
L 135.601957 280.992692 
L 122.999 289.487496 
L 111.59734 314.164666 
L 94.167869 335.293731 
L 103.700055 349.673885 
L 89.561712 373.431177 
L 82.524528 394.869997 
L 69.530616 413.661817 
L 40.315639 464.508615 
L 35.801889 481.103989 
L 20.021537 508.146564 
L 52.612941 528.393295 
L 52.911488 536.4 
L 42.298845 524.657459 
" style="fill:none;stroke:#000000;stroke-width:3;"/>
   </g>
  </g>
 </g>
 <defs>
  <clipPath id="pb1eb63db4b">
   <rect height="554.4" width="282.073804" x="7.2" y="7.2"/>
  </clipPath>
 </defs>
</svg>
