<?xml version="1.0" encoding="utf-8" standalone="no"?>
<!DOCTYPE svg PUBLIC "-//W3C//DTD SVG 1.1//EN"
  "http://www.w3.org/Graphics/SVG/1.1/DTD/svg11.dtd">
<!-- Created with matplotlib (https://matplotlib.org/) -->
<svg height="568.8pt" version="1.1" viewBox="0 0 298.829626 568.8" width="298.829626pt" xmlns="http://www.w3.org/2000/svg" xmlns:xlink="http://www.w3.org/1999/xlink">
 <metadata>
  <rdf:RDF xmlns:cc="http://creativecommons.org/ns#" xmlns:dc="http://purl.org/dc/elements/1.1/" xmlns:rdf="http://www.w3.org/1999/02/22-rdf-syntax-ns#">
   <cc:Work>
    <dc:type rdf:resource="http://purl.org/dc/dcmitype/StillImage"/>
    <dc:date>2021-04-18T13:15:03.304130</dc:date>
    <dc:format>image/svg+xml</dc:format>
    <dc:creator>
     <cc:Agent>
      <dc:title>Matplotlib v3.3.3, https://matplotlib.org/</dc:title>
     </cc:Agent>
    </dc:creator>
   </cc:Work>
  </rdf:RDF>
 </metadata>
 <defs>
  <style type="text/css">*{stroke-linecap:butt;stroke-linejoin:round;}</style>
 </defs>
 <g id="figure_1">
  <g id="patch_1">
   <path d="M 0 568.8 
L 298.829626 568.8 
L 298.829626 0 
L 0 0 
z
" style="fill:#ffffff;"/>
  </g>
  <g id="axes_1">
   <g id="LineCollection_1">
    <path clip-path="url(#pa595acef24)" d="M 277.070247 32.4 
L 278.701007 38.490348 
L 271.014166 54.740762 
L 250.144753 52.103509 
L 249.605956 59.540943 
L 259.117523 66.693781 
L 262.321571 80.458726 
L 240.690658 103.586869 
L 229.153213 108.908809 
L 216.825532 131.0883 
L 209.763696 136.315374 
L 207.37862 151.11435 
L 186.516391 166.473031 
L 184.231891 176.841801 
L 188.01784 191.460533 
L 173.068012 209.997199 
L 171.307941 224.084686 
L 137.435555 261.736696 
L 138.620909 280.463093 
L 121.731411 295.669989 
L 118.189717 310.051559 
L 95.567417 338.83367 
L 104.913753 355.454058 
L 96.307365 374.578889 
L 81.429377 397.678573 
L 68.900546 424.515946 
L 60.272606 436.563831 
L 50.279713 459.739407 
L 42.98799 462.794067 
L 42.60724 473.542298 
L 24.582677 507.7507 
L 20.128619 511.545309 
L 48.138892 536.4 
" style="fill:none;stroke:#000000;stroke-width:3;"/>
   </g>
  </g>
 </g>
 <defs>
  <clipPath id="pa595acef24">
   <rect height="554.4" width="284.429626" x="7.2" y="7.2"/>
  </clipPath>
 </defs>
</svg>
