<?xml version="1.0" encoding="utf-8" standalone="no"?>
<!DOCTYPE svg PUBLIC "-//W3C//DTD SVG 1.1//EN"
  "http://www.w3.org/Graphics/SVG/1.1/DTD/svg11.dtd">
<!-- Created with matplotlib (https://matplotlib.org/) -->
<svg height="568.8pt" version="1.1" viewBox="0 0 202.399168 568.8" width="202.399168pt" xmlns="http://www.w3.org/2000/svg" xmlns:xlink="http://www.w3.org/1999/xlink">
 <metadata>
  <rdf:RDF xmlns:cc="http://creativecommons.org/ns#" xmlns:dc="http://purl.org/dc/elements/1.1/" xmlns:rdf="http://www.w3.org/1999/02/22-rdf-syntax-ns#">
   <cc:Work>
    <dc:type rdf:resource="http://purl.org/dc/dcmitype/StillImage"/>
    <dc:date>2021-04-18T13:15:03.746809</dc:date>
    <dc:format>image/svg+xml</dc:format>
    <dc:creator>
     <cc:Agent>
      <dc:title>Matplotlib v3.3.3, https://matplotlib.org/</dc:title>
     </cc:Agent>
    </dc:creator>
   </cc:Work>
  </rdf:RDF>
 </metadata>
 <defs>
  <style type="text/css">*{stroke-linecap:butt;stroke-linejoin:round;}</style>
 </defs>
 <g id="figure_1">
  <g id="patch_1">
   <path d="M 0 568.8 
L 202.399168 568.8 
L 202.399168 0 
L 0 0 
z
" style="fill:#ffffff;"/>
  </g>
  <g id="axes_1">
   <g id="LineCollection_1">
    <path clip-path="url(#pb8dc7c23db)" d="M 30.489908 461.240404 
L 36.580211 461.206176 
L 47.405499 467.030688 
L 40.732495 481.326699 
L 53.828158 490.368669 
L 51.406712 496.404256 
L 63.73839 505.029782 
L 77.964925 512.622755 
L 74.50325 519.536868 
L 103.444062 536.4 
L 104.997931 530.535555 
L 116.487929 514.294236 
L 107.458223 508.110327 
L 126.087387 476.23239 
L 133.368991 461.411545 
L 125.789562 457.201467 
L 125.396779 453.191054 
L 95.212872 434.776239 
L 112.007607 403.560049 
L 115.616036 407.176837 
L 119.004334 399.606683 
L 117.821667 392.407335 
L 112.676634 387.130475 
L 104.833911 384.329461 
L 85.799015 373.450573 
L 108.895552 333.33503 
L 115.805953 319.746403 
L 103.461327 312.906452 
L 115.046284 291.673509 
L 114.459267 269.801639 
L 118.162655 266.721094 
L 136.424933 225.63575 
L 140.749869 210.592421 
L 146.86607 202.794078 
L 148.083268 196.598759 
L 156.884209 181.954761 
L 157.825163 176.660787 
L 171.08053 155.650328 
L 170.955357 133.162349 
L 186.653751 104.416299 
L 170.869031 75.55045 
L 169.902179 68.664862 
L 162.25369 59.662824 
L 170.769756 40.112772 
L 166.781492 32.4 
L 153.664247 33.267116 
L 148.946528 38.521157 
L 143.22311 50.615149 
L 139.571518 48.407425 
L 130.541812 67.831974 
L 133.084115 70.496075 
L 128.482935 85.522289 
L 118.689244 107.365636 
L 113.777291 113.475384 
L 96.835802 146.385874 
L 106.547484 131.416707 
L 114.101014 115.409281 
L 122.314938 101.763608 
L 130.576342 80.359524 
L 134.050966 80.222611 
L 146.045973 94.467279 
L 137.516958 109.727387 
L 137.905425 118.056268 
L 131.797856 132.911342 
L 127.770745 132.808657 
L 119.979819 151.982198 
L 117.07063 164.680889 
L 109.271071 183.654765 
L 93.779859 178.121193 
L 91.967012 186.952089 
L 99.309043 190.340689 
L 90.581479 218.927007 
L 84.27536 231.562947 
L 74.744963 267.131833 
L 76.734778 270.109693 
L 63.509626 295.227546 
L 75.84562 302.552397 
L 68.356834 316.072568 
L 73.570928 320.060162 
L 67.545369 333.061203 
L 58.468184 348.492453 
L 62.232 355.035759 
L 51.057092 373.439163 
L 53.267039 380.096564 
L 44.168272 395.835867 
L 38.889434 399.600978 
L 26.687245 419.750025 
L 16.064823 439.687997 
L 15.745417 453.55045 
L 30.705723 461.645438 
" style="fill:none;stroke:#000000;stroke-width:3;"/>
   </g>
  </g>
 </g>
 <defs>
  <clipPath id="pb8dc7c23db">
   <rect height="554.4" width="187.999168" x="7.2" y="7.2"/>
  </clipPath>
 </defs>
</svg>
