<?xml version="1.0" encoding="utf-8" standalone="no"?>
<!DOCTYPE svg PUBLIC "-//W3C//DTD SVG 1.1//EN"
  "http://www.w3.org/Graphics/SVG/1.1/DTD/svg11.dtd">
<!-- Created with matplotlib (https://matplotlib.org/) -->
<svg height="568.8pt" version="1.1" viewBox="0 0 300.73351 568.8" width="300.73351pt" xmlns="http://www.w3.org/2000/svg" xmlns:xlink="http://www.w3.org/1999/xlink">
 <metadata>
  <rdf:RDF xmlns:cc="http://creativecommons.org/ns#" xmlns:dc="http://purl.org/dc/elements/1.1/" xmlns:rdf="http://www.w3.org/1999/02/22-rdf-syntax-ns#">
   <cc:Work>
    <dc:type rdf:resource="http://purl.org/dc/dcmitype/StillImage"/>
    <dc:date>2021-04-18T13:15:04.574724</dc:date>
    <dc:format>image/svg+xml</dc:format>
    <dc:creator>
     <cc:Agent>
      <dc:title>Matplotlib v3.3.3, https://matplotlib.org/</dc:title>
     </cc:Agent>
    </dc:creator>
   </cc:Work>
  </rdf:RDF>
 </metadata>
 <defs>
  <style type="text/css">*{stroke-linecap:butt;stroke-linejoin:round;}</style>
 </defs>
 <g id="figure_1">
  <g id="patch_1">
   <path d="M 0 568.8 
L 300.73351 568.8 
L 300.73351 0 
L 0 0 
z
" style="fill:#ffffff;"/>
  </g>
  <g id="axes_1">
   <g id="LineCollection_1">
    <path clip-path="url(#p84e0918bd8)" d="M 275.745161 32.4 
L 280.518351 35.702505 
L 268.35672 56.451672 
L 253.494093 53.234088 
L 248.485102 60.046684 
L 257.895717 67.029123 
L 261.389864 80.77698 
L 255.351922 91.392174 
L 227.948953 111.112847 
L 220.774877 126.917692 
L 208.384591 138.844453 
L 207.891552 152.47908 
L 188.805939 163.839697 
L 184.568661 177.266739 
L 186.355034 197.16669 
L 172.335576 210.95229 
L 171.613881 223.275351 
L 151.727972 248.034703 
L 138.530245 260.102999 
L 137.23691 284.116928 
L 126.675871 291.222032 
L 117.415311 313.490351 
L 98.422588 333.645067 
L 96.457578 343.863961 
L 105.660974 355.186835 
L 79.165483 405.818954 
L 59.229555 439.551683 
L 20.21516 510.027139 
L 61.373203 536.4 
L 48.497024 536.041442 
" style="fill:none;stroke:#000000;stroke-width:3;"/>
   </g>
  </g>
 </g>
 <defs>
  <clipPath id="p84e0918bd8">
   <rect height="554.4" width="286.33351" x="7.2" y="7.2"/>
  </clipPath>
 </defs>
</svg>
