<?xml version="1.0" encoding="utf-8" standalone="no"?>
<!DOCTYPE svg PUBLIC "-//W3C//DTD SVG 1.1//EN"
  "http://www.w3.org/Graphics/SVG/1.1/DTD/svg11.dtd">
<!-- Created with matplotlib (https://matplotlib.org/) -->
<svg height="568.8pt" version="1.1" viewBox="0 0 300.257573 568.8" width="300.257573pt" xmlns="http://www.w3.org/2000/svg" xmlns:xlink="http://www.w3.org/1999/xlink">
 <metadata>
  <rdf:RDF xmlns:cc="http://creativecommons.org/ns#" xmlns:dc="http://purl.org/dc/elements/1.1/" xmlns:rdf="http://www.w3.org/1999/02/22-rdf-syntax-ns#">
   <cc:Work>
    <dc:type rdf:resource="http://purl.org/dc/dcmitype/StillImage"/>
    <dc:date>2021-04-18T13:15:05.429141</dc:date>
    <dc:format>image/svg+xml</dc:format>
    <dc:creator>
     <cc:Agent>
      <dc:title>Matplotlib v3.3.3, https://matplotlib.org/</dc:title>
     </cc:Agent>
    </dc:creator>
   </cc:Work>
  </rdf:RDF>
 </metadata>
 <defs>
  <style type="text/css">*{stroke-linecap:butt;stroke-linejoin:round;}</style>
 </defs>
 <g id="figure_1">
  <g id="patch_1">
   <path d="M 0 568.8 
L 300.257573 568.8 
L 300.257573 0 
L 0 0 
z
" style="fill:#ffffff;"/>
  </g>
  <g id="axes_1">
   <g id="LineCollection_1">
    <path clip-path="url(#pe1ff7c141e)" d="M 274.59085 32.4 
L 280.064047 35.835832 
L 269.982588 54.512901 
L 252.676793 53.10861 
L 249.564443 62.030538 
L 257.476475 67.179604 
L 260.773154 79.303316 
L 254.569725 89.891669 
L 240.34792 103.438395 
L 231.43625 107.164447 
L 219.717086 127.245807 
L 208.955022 138.358429 
L 208.373672 147.551853 
L 188.196575 165.367623 
L 185.19057 179.251379 
L 187.104771 193.481527 
L 171.266529 212.944999 
L 170.770255 224.506994 
L 138.959069 258.509557 
L 138.980338 276.877682 
L 124.04248 292.933408 
L 116.48493 312.209641 
L 97.321651 335.193201 
L 104.723228 350.406353 
L 100.015711 363.859459 
L 87.722287 380.514349 
L 81.837891 395.212594 
L 58.215231 436.339593 
L 48.034517 457.254166 
L 39.144117 467.430593 
L 33.734726 483.991864 
L 20.193526 506.507328 
L 62.483191 531.513068 
L 60.072715 536.4 
L 49.792747 528.62959 
" style="fill:none;stroke:#000000;stroke-width:3;"/>
   </g>
  </g>
 </g>
 <defs>
  <clipPath id="pe1ff7c141e">
   <rect height="554.4" width="285.857573" x="7.2" y="7.2"/>
  </clipPath>
 </defs>
</svg>
