<?xml version="1.0" encoding="utf-8" standalone="no"?>
<!DOCTYPE svg PUBLIC "-//W3C//DTD SVG 1.1//EN"
  "http://www.w3.org/Graphics/SVG/1.1/DTD/svg11.dtd">
<!-- Created with matplotlib (https://matplotlib.org/) -->
<svg height="568.8pt" version="1.1" viewBox="0 0 301.092692 568.8" width="301.092692pt" xmlns="http://www.w3.org/2000/svg" xmlns:xlink="http://www.w3.org/1999/xlink">
 <metadata>
  <rdf:RDF xmlns:cc="http://creativecommons.org/ns#" xmlns:dc="http://purl.org/dc/elements/1.1/" xmlns:rdf="http://www.w3.org/1999/02/22-rdf-syntax-ns#">
   <cc:Work>
    <dc:type rdf:resource="http://purl.org/dc/dcmitype/StillImage"/>
    <dc:date>2021-04-18T13:15:05.764341</dc:date>
    <dc:format>image/svg+xml</dc:format>
    <dc:creator>
     <cc:Agent>
      <dc:title>Matplotlib v3.3.3, https://matplotlib.org/</dc:title>
     </cc:Agent>
    </dc:creator>
   </cc:Work>
  </rdf:RDF>
 </metadata>
 <defs>
  <style type="text/css">*{stroke-linecap:butt;stroke-linejoin:round;}</style>
 </defs>
 <g id="figure_1">
  <g id="patch_1">
   <path d="M 0 568.8 
L 301.092692 568.8 
L 301.092692 0 
L 0 0 
z
" style="fill:#ffffff;"/>
  </g>
  <g id="axes_1">
   <g id="LineCollection_1">
    <path clip-path="url(#pb40388fb09)" d="M 275.34801 32.4 
L 280.861206 35.997424 
L 270.833945 54.914746 
L 255.228796 52.418381 
L 249.313071 60.590892 
L 259.268452 68.54509 
L 259.620664 87.006803 
L 241.276886 103.816927 
L 228.575689 110.802953 
L 220.654512 127.053057 
L 209.750315 138.063641 
L 207.974878 151.058029 
L 194.389557 159.638691 
L 184.484492 178.3377 
L 187.58252 193.866421 
L 173.494039 210.239919 
L 167.959278 230.628483 
L 137.094003 264.523997 
L 138.121887 279.388286 
L 128.209634 289.468665 
L 116.974789 313.625508 
L 95.619238 340.345158 
L 104.640179 356.813575 
L 59.83737 440.484523 
L 34.327156 480.872485 
L 21.590018 504.583208 
L 20.231486 514.881901 
L 57.012486 536.4 
L 48.235937 534.606034 
" style="fill:none;stroke:#000000;stroke-width:3;"/>
   </g>
  </g>
 </g>
 <defs>
  <clipPath id="pb40388fb09">
   <rect height="554.4" width="286.692692" x="7.2" y="7.2"/>
  </clipPath>
 </defs>
</svg>
