<?xml version="1.0" encoding="utf-8" standalone="no"?>
<!DOCTYPE svg PUBLIC "-//W3C//DTD SVG 1.1//EN"
  "http://www.w3.org/Graphics/SVG/1.1/DTD/svg11.dtd">
<!-- Created with matplotlib (https://matplotlib.org/) -->
<svg height="568.8pt" version="1.1" viewBox="0 0 284.48509 568.8" width="284.48509pt" xmlns="http://www.w3.org/2000/svg" xmlns:xlink="http://www.w3.org/1999/xlink">
 <metadata>
  <rdf:RDF xmlns:cc="http://creativecommons.org/ns#" xmlns:dc="http://purl.org/dc/elements/1.1/" xmlns:rdf="http://www.w3.org/1999/02/22-rdf-syntax-ns#">
   <cc:Work>
    <dc:type rdf:resource="http://purl.org/dc/dcmitype/StillImage"/>
    <dc:date>2021-04-18T13:15:05.856172</dc:date>
    <dc:format>image/svg+xml</dc:format>
    <dc:creator>
     <cc:Agent>
      <dc:title>Matplotlib v3.3.3, https://matplotlib.org/</dc:title>
     </cc:Agent>
    </dc:creator>
   </cc:Work>
  </rdf:RDF>
 </metadata>
 <defs>
  <style type="text/css">*{stroke-linecap:butt;stroke-linejoin:round;}</style>
 </defs>
 <g id="figure_1">
  <g id="patch_1">
   <path d="M 0 568.8 
L 284.48509 568.8 
L 284.48509 0 
L 0 0 
z
" style="fill:#ffffff;"/>
  </g>
  <g id="axes_1">
   <g id="LineCollection_1">
    <path clip-path="url(#p4ae9df6288)" d="M 24.613778 536.4 
L 30.337462 530.484091 
L 19.476595 525.109385 
L 22.076985 513.958736 
L 33.856467 498.683747 
L 59.528249 450.152763 
L 78.939309 410.019758 
L 91.552613 402.489571 
L 91.948324 392.831896 
L 106.222202 367.833914 
L 99.431511 355.69417 
L 117.711967 330.089667 
L 129.795299 332.310466 
L 138.614012 328.447396 
L 156.774342 303.262792 
L 154.364742 290.79646 
L 167.571612 275.969363 
L 174.489497 250.066266 
L 192.247049 223.295377 
L 214.06771 218.555185 
L 239.697094 172.786203 
L 238.368634 142.889401 
L 252.812102 122.808902 
L 256.528964 100.115698 
L 265.008495 92.856112 
L 262.782618 85.96977 
L 250.091586 84.131546 
L 258.952696 64.526932 
L 252.317463 57.052732 
L 261.969996 36.580327 
L 254.910786 32.4 
" style="fill:none;stroke:#000000;stroke-width:3;"/>
   </g>
  </g>
 </g>
 <defs>
  <clipPath id="p4ae9df6288">
   <rect height="554.4" width="270.08509" x="7.2" y="7.2"/>
  </clipPath>
 </defs>
</svg>
