<?xml version="1.0" encoding="utf-8" standalone="no"?>
<!DOCTYPE svg PUBLIC "-//W3C//DTD SVG 1.1//EN"
  "http://www.w3.org/Graphics/SVG/1.1/DTD/svg11.dtd">
<!-- Created with matplotlib (https://matplotlib.org/) -->
<svg height="568.8pt" version="1.1" viewBox="0 0 298.048992 568.8" width="298.048992pt" xmlns="http://www.w3.org/2000/svg" xmlns:xlink="http://www.w3.org/1999/xlink">
 <metadata>
  <rdf:RDF xmlns:cc="http://creativecommons.org/ns#" xmlns:dc="http://purl.org/dc/elements/1.1/" xmlns:rdf="http://www.w3.org/1999/02/22-rdf-syntax-ns#">
   <cc:Work>
    <dc:type rdf:resource="http://purl.org/dc/dcmitype/StillImage"/>
    <dc:date>2021-04-18T13:15:06.195218</dc:date>
    <dc:format>image/svg+xml</dc:format>
    <dc:creator>
     <cc:Agent>
      <dc:title>Matplotlib v3.3.3, https://matplotlib.org/</dc:title>
     </cc:Agent>
    </dc:creator>
   </cc:Work>
  </rdf:RDF>
 </metadata>
 <defs>
  <style type="text/css">*{stroke-linecap:butt;stroke-linejoin:round;}</style>
 </defs>
 <g id="figure_1">
  <g id="patch_1">
   <path d="M 0 568.8 
L 298.048992 568.8 
L 298.048992 0 
L 0 0 
z
" style="fill:#ffffff;"/>
  </g>
  <g id="axes_1">
   <g id="LineCollection_1">
    <path clip-path="url(#p64744f91c0)" d="M 272.969112 32.4 
L 277.955856 37.707227 
L 268.872353 56.483057 
L 252.704282 54.309799 
L 247.802298 63.553141 
L 257.316667 71.453354 
L 259.534568 83.382955 
L 240.053773 104.705136 
L 226.386138 112.540057 
L 215.480283 132.85489 
L 207.703504 140.00892 
L 206.135435 152.358249 
L 192.149947 160.696845 
L 183.58207 175.256741 
L 185.983619 194.834718 
L 170.825611 213.77844 
L 169.836738 225.344277 
L 137.910272 259.864569 
L 135.854829 284.040899 
L 126.050861 290.346146 
L 117.680759 309.989414 
L 99.125266 331.507467 
L 95.946746 338.876025 
L 105.100884 353.883631 
L 95.699528 371.913278 
L 86.093335 381.865495 
L 82.547519 393.05824 
L 54.703685 442.40892 
L 51.207314 452.696919 
L 34.057433 478.785343 
L 20.093136 506.403442 
L 26.089943 511.785287 
L 62.438084 530.5891 
L 60.926521 536.4 
L 50.889462 528.994133 
" style="fill:none;stroke:#000000;stroke-width:3;"/>
   </g>
  </g>
 </g>
 <defs>
  <clipPath id="p64744f91c0">
   <rect height="554.4" width="283.648992" x="7.2" y="7.2"/>
  </clipPath>
 </defs>
</svg>
