<?xml version="1.0" encoding="utf-8" standalone="no"?>
<!DOCTYPE svg PUBLIC "-//W3C//DTD SVG 1.1//EN"
  "http://www.w3.org/Graphics/SVG/1.1/DTD/svg11.dtd">
<!-- Created with matplotlib (https://matplotlib.org/) -->
<svg height="568.8pt" version="1.1" viewBox="0 0 295.218113 568.8" width="295.218113pt" xmlns="http://www.w3.org/2000/svg" xmlns:xlink="http://www.w3.org/1999/xlink">
 <metadata>
  <rdf:RDF xmlns:cc="http://creativecommons.org/ns#" xmlns:dc="http://purl.org/dc/elements/1.1/" xmlns:rdf="http://www.w3.org/1999/02/22-rdf-syntax-ns#">
   <cc:Work>
    <dc:type rdf:resource="http://purl.org/dc/dcmitype/StillImage"/>
    <dc:date>2021-04-18T13:15:06.635006</dc:date>
    <dc:format>image/svg+xml</dc:format>
    <dc:creator>
     <cc:Agent>
      <dc:title>Matplotlib v3.3.3, https://matplotlib.org/</dc:title>
     </cc:Agent>
    </dc:creator>
   </cc:Work>
  </rdf:RDF>
 </metadata>
 <defs>
  <style type="text/css">*{stroke-linecap:butt;stroke-linejoin:round;}</style>
 </defs>
 <g id="figure_1">
  <g id="patch_1">
   <path d="M 0 568.8 
L 295.218113 568.8 
L 295.218113 0 
L 0 0 
z
" style="fill:#ffffff;"/>
  </g>
  <g id="axes_1">
   <g id="LineCollection_1">
    <path clip-path="url(#p090a2a06cf)" d="M 270.168099 32.4 
L 275.253653 35.174003 
L 265.924242 53.6767 
L 245.320318 55.348574 
L 245.36983 73.020003 
L 254.727534 72.907922 
L 256.262395 82.191961 
L 236.5709 102.282471 
L 222.099349 111.72529 
L 215.089913 127.267182 
L 205.555382 135.729293 
L 204.572222 147.749975 
L 186.564124 161.059587 
L 180.820771 176.097115 
L 183.671228 187.930995 
L 168.669195 208.65663 
L 167.487988 222.685428 
L 138.410497 252.620381 
L 132.051786 282.611375 
L 124.469428 286.095224 
L 109.34008 315.18957 
L 92.895135 336.559671 
L 101.722357 351.952121 
L 80.290881 387.182899 
L 72.050726 390.050303 
L 72.673159 399.353022 
L 51.23461 440.52409 
L 46.89173 452.815634 
L 32.568714 464.696214 
L 19.96446 508.501184 
L 36.572085 519.260955 
L 57.565029 527.545605 
L 54.459941 536.4 
L 46.785633 527.508245 
" style="fill:none;stroke:#000000;stroke-width:3;"/>
   </g>
  </g>
 </g>
 <defs>
  <clipPath id="p090a2a06cf">
   <rect height="554.4" width="280.818113" x="7.2" y="7.2"/>
  </clipPath>
 </defs>
</svg>
