<?xml version="1.0" encoding="utf-8" standalone="no"?>
<!DOCTYPE svg PUBLIC "-//W3C//DTD SVG 1.1//EN"
  "http://www.w3.org/Graphics/SVG/1.1/DTD/svg11.dtd">
<!-- Created with matplotlib (https://matplotlib.org/) -->
<svg height="568.8pt" version="1.1" viewBox="0 0 288.699855 568.8" width="288.699855pt" xmlns="http://www.w3.org/2000/svg" xmlns:xlink="http://www.w3.org/1999/xlink">
 <metadata>
  <rdf:RDF xmlns:cc="http://creativecommons.org/ns#" xmlns:dc="http://purl.org/dc/elements/1.1/" xmlns:rdf="http://www.w3.org/1999/02/22-rdf-syntax-ns#">
   <cc:Work>
    <dc:type rdf:resource="http://purl.org/dc/dcmitype/StillImage"/>
    <dc:date>2021-04-18T13:15:07.200994</dc:date>
    <dc:format>image/svg+xml</dc:format>
    <dc:creator>
     <cc:Agent>
      <dc:title>Matplotlib v3.3.3, https://matplotlib.org/</dc:title>
     </cc:Agent>
    </dc:creator>
   </cc:Work>
  </rdf:RDF>
 </metadata>
 <defs>
  <style type="text/css">*{stroke-linecap:butt;stroke-linejoin:round;}</style>
 </defs>
 <g id="figure_1">
  <g id="patch_1">
   <path d="M 0 568.8 
L 288.699855 568.8 
L 288.699855 0 
L 0 0 
z
" style="fill:#ffffff;"/>
  </g>
  <g id="axes_1">
   <g id="LineCollection_1">
    <path clip-path="url(#p08694f4b7a)" d="M 33.426998 536.4 
L 19.668175 533.706223 
L 41.458327 490.464511 
L 53.647974 472.502859 
L 60.452493 455.718557 
L 79.232679 426.915866 
L 107.370863 375.734106 
L 101.122688 365.364007 
L 118.947104 337.653896 
L 135.872809 339.556494 
L 155.651563 318.778621 
L 157.727155 294.911381 
L 168.19784 285.34188 
L 174.267699 262.793272 
L 194.153442 231.01424 
L 213.361586 227.388002 
L 219.545567 221.1245 
L 242.191633 180.491796 
L 244.55253 161.720127 
L 241.050414 150.879088 
L 255.736477 128.989796 
L 259.30992 106.365838 
L 269.03168 97.267277 
L 252.74791 89.977126 
L 262.33415 70.225902 
L 252.041781 60.778845 
L 237.947725 57.727154 
L 232.448475 64.518109 
L 242.441275 74.86937 
L 241.906328 91.851467 
L 231.143206 97.964268 
L 224.566931 108.259017 
L 210.765312 113.053186 
L 203.190471 106.940385 
L 243.996186 32.4 
L 257.048879 37.806391 
" style="fill:none;stroke:#000000;stroke-width:3;"/>
   </g>
  </g>
 </g>
 <defs>
  <clipPath id="p08694f4b7a">
   <rect height="554.4" width="274.299855" x="7.2" y="7.2"/>
  </clipPath>
 </defs>
</svg>
