<?xml version="1.0" encoding="utf-8" standalone="no"?>
<!DOCTYPE svg PUBLIC "-//W3C//DTD SVG 1.1//EN"
  "http://www.w3.org/Graphics/SVG/1.1/DTD/svg11.dtd">
<!-- Created with matplotlib (https://matplotlib.org/) -->
<svg height="568.8pt" version="1.1" viewBox="0 0 301.47116 568.8" width="301.47116pt" xmlns="http://www.w3.org/2000/svg" xmlns:xlink="http://www.w3.org/1999/xlink">
 <metadata>
  <rdf:RDF xmlns:cc="http://creativecommons.org/ns#" xmlns:dc="http://purl.org/dc/elements/1.1/" xmlns:rdf="http://www.w3.org/1999/02/22-rdf-syntax-ns#">
   <cc:Work>
    <dc:type rdf:resource="http://purl.org/dc/dcmitype/StillImage"/>
    <dc:date>2021-04-18T13:15:07.471900</dc:date>
    <dc:format>image/svg+xml</dc:format>
    <dc:creator>
     <cc:Agent>
      <dc:title>Matplotlib v3.3.3, https://matplotlib.org/</dc:title>
     </cc:Agent>
    </dc:creator>
   </cc:Work>
  </rdf:RDF>
 </metadata>
 <defs>
  <style type="text/css">*{stroke-linecap:butt;stroke-linejoin:round;}</style>
 </defs>
 <g id="figure_1">
  <g id="patch_1">
   <path d="M 0 568.8 
L 301.47116 568.8 
L 301.47116 0 
L 0 0 
z
" style="fill:#ffffff;"/>
  </g>
  <g id="axes_1">
   <g id="LineCollection_1">
    <path clip-path="url(#p856a0b994e)" d="M 276.61991 32.4 
L 281.222471 35.476623 
L 270.044823 54.455427 
L 255.22229 52.29424 
L 250.033689 57.786862 
L 257.888059 66.469358 
L 261.032666 83.00385 
L 243.215609 101.425841 
L 229.893911 109.362774 
L 219.831169 128.284952 
L 211.133473 135.702824 
L 205.723319 153.16219 
L 189.692971 164.062497 
L 185.576395 171.801243 
L 188.199283 191.601109 
L 171.883061 213.128035 
L 167.82366 230.219339 
L 138.171446 263.288323 
L 136.856429 284.182938 
L 126.865155 290.39281 
L 116.337869 314.458423 
L 99.864417 331.851726 
L 97.205795 344.111033 
L 104.952963 353.935466 
L 91.431154 377.585829 
L 61.278662 436.390862 
L 38.244417 469.242783 
L 35.878815 479.982653 
L 20.248689 510.994263 
L 62.05052 535.248626 
L 50.286831 536.4 
" style="fill:none;stroke:#000000;stroke-width:3;"/>
   </g>
  </g>
 </g>
 <defs>
  <clipPath id="p856a0b994e">
   <rect height="554.4" width="287.07116" x="7.2" y="7.2"/>
  </clipPath>
 </defs>
</svg>
