<?xml version="1.0" encoding="utf-8" standalone="no"?>
<!DOCTYPE svg PUBLIC "-//W3C//DTD SVG 1.1//EN"
  "http://www.w3.org/Graphics/SVG/1.1/DTD/svg11.dtd">
<!-- Created with matplotlib (https://matplotlib.org/) -->
<svg height="568.8pt" version="1.1" viewBox="0 0 239.343631 568.8" width="239.343631pt" xmlns="http://www.w3.org/2000/svg" xmlns:xlink="http://www.w3.org/1999/xlink">
 <metadata>
  <rdf:RDF xmlns:cc="http://creativecommons.org/ns#" xmlns:dc="http://purl.org/dc/elements/1.1/" xmlns:rdf="http://www.w3.org/1999/02/22-rdf-syntax-ns#">
   <cc:Work>
    <dc:type rdf:resource="http://purl.org/dc/dcmitype/StillImage"/>
    <dc:date>2021-04-18T13:15:08.280720</dc:date>
    <dc:format>image/svg+xml</dc:format>
    <dc:creator>
     <cc:Agent>
      <dc:title>Matplotlib v3.3.3, https://matplotlib.org/</dc:title>
     </cc:Agent>
    </dc:creator>
   </cc:Work>
  </rdf:RDF>
 </metadata>
 <defs>
  <style type="text/css">*{stroke-linecap:butt;stroke-linejoin:round;}</style>
 </defs>
 <g id="figure_1">
  <g id="patch_1">
   <path d="M 0 568.8 
L 239.343631 568.8 
L 239.343631 0 
L 0 0 
z
" style="fill:#ffffff;"/>
  </g>
  <g id="axes_1">
   <g id="LineCollection_1">
    <path clip-path="url(#p11b2c016e7)" d="M 195.250495 75.741317 
L 146.721218 48.016766 
L 148.553539 61.777246 
L 173.371502 76.040719 
L 171.348693 96.184431 
L 198.697435 108.962874 
L 188.946225 129.813174 
L 142.349048 215.405988 
L 173.897613 233.250299 
L 170.541383 254.711377 
L 142.085992 317.070659 
L 141.986212 326.998802 
L 124.570098 311.585629 
L 97.520695 297.777246 
L 83.76015 318.831138 
L 122.882912 343.525749 
L 131.482118 355.178443 
L 114.365343 387.82515 
L 62.271205 358.495808 
L 45.517266 394.352096 
L 17.424711 441.549701 
L 34.967817 448.100599 
L 96.568251 487.178443 
L 121.821617 498.507784 
L 104.151518 536.4 
L 74.045224 522.615569 
L 89.864861 499.956886 
L 103.552839 463.669461 
L 121.94861 441.801198 
L 124.180049 431.789222 
L 101.43025 417.525749 
L 75.886615 409.465868 
L 71.904493 401.861078 
L 94.844782 366.723353 
L 102.428048 359.932934 
L 113.703168 328.208383 
L 134.457371 291.346108 
L 145.478506 278.076647 
L 165.298407 235.88503 
L 177.544112 223.082635 
L 175.820643 215.106587 
L 190.896467 191.106587 
L 221.918921 131.262275 
L 173.317076 104.447904 
L 174.16974 94.052695 
L 190.669694 70.926946 
L 147.483173 48.902994 
L 138.820471 72.28024 
L 155.68326 85.980838 
L 194.579249 106.196407 
L 197.391226 116.507784 
L 187.386031 131.501796 
L 171.548252 122.747305 
L 173.108446 100.364072 
L 195.958025 55.274251 
L 154.431477 32.4 
L 144.897969 55.525749 
L 175.312673 74.771257 
L 178.63262 67.094611 
L 192.55644 73.753293 
" style="fill:none;stroke:#000000;stroke-width:3;"/>
   </g>
  </g>
 </g>
 <defs>
  <clipPath id="p11b2c016e7">
   <rect height="554.4" width="224.943631" x="7.2" y="7.2"/>
  </clipPath>
 </defs>
</svg>
