<?xml version="1.0" encoding="utf-8" standalone="no"?>
<!DOCTYPE svg PUBLIC "-//W3C//DTD SVG 1.1//EN"
  "http://www.w3.org/Graphics/SVG/1.1/DTD/svg11.dtd">
<!-- Created with matplotlib (https://matplotlib.org/) -->
<svg height="568.8pt" version="1.1" viewBox="0 0 303.8798 568.8" width="303.8798pt" xmlns="http://www.w3.org/2000/svg" xmlns:xlink="http://www.w3.org/1999/xlink">
 <metadata>
  <rdf:RDF xmlns:cc="http://creativecommons.org/ns#" xmlns:dc="http://purl.org/dc/elements/1.1/" xmlns:rdf="http://www.w3.org/1999/02/22-rdf-syntax-ns#">
   <cc:Work>
    <dc:type rdf:resource="http://purl.org/dc/dcmitype/StillImage"/>
    <dc:date>2021-04-18T13:15:10.065542</dc:date>
    <dc:format>image/svg+xml</dc:format>
    <dc:creator>
     <cc:Agent>
      <dc:title>Matplotlib v3.3.3, https://matplotlib.org/</dc:title>
     </cc:Agent>
    </dc:creator>
   </cc:Work>
  </rdf:RDF>
 </metadata>
 <defs>
  <style type="text/css">*{stroke-linecap:butt;stroke-linejoin:round;}</style>
 </defs>
 <g id="figure_1">
  <g id="patch_1">
   <path d="M -0 568.8 
L 303.8798 568.8 
L 303.8798 0 
L -0 0 
z
" style="fill:#ffffff;"/>
  </g>
  <g id="axes_1">
   <g id="LineCollection_1">
    <path clip-path="url(#p76659a4e5c)" d="M 37.306506 536.4 
L 20.358173 535.243602 
L 29.621249 515.78422 
L 60.792593 460.047843 
L 64.521981 440.747964 
L 78.073099 427.748458 
L 107.387299 379.189722 
L 111.101588 366.708602 
L 104.956402 359.321613 
L 124.139349 329.045924 
L 146.123111 328.298253 
L 163.275278 309.556635 
L 165.736372 283.368214 
L 178.147534 270.807342 
L 186.248007 242.64507 
L 204.479734 215.140748 
L 228.766054 208.979939 
L 255.098253 161.657353 
L 257.129033 139.476448 
L 253.565731 133.036509 
L 258.389778 119.867532 
L 271.110464 104.555231 
L 272.257969 87.498364 
L 283.521627 73.192927 
L 266.188276 69.105659 
L 276.470516 45.559009 
L 269.902565 37.573883 
L 250.734718 32.4 
L 244.536686 40.454908 
L 253.414744 47.203885 
L 256.947848 64.928671 
L 237.493124 84.836656 
L 225.172554 90.877837 
L 213.191705 112.101723 
L 202.698082 121.562253 
L 201.158011 135.837783 
L 184.677739 146.036015 
L 177.973899 155.795613 
L 178.464608 182.78155 
L 164.196301 198.203509 
L 160.61035 217.044817 
L 140.815905 238.966529 
L 109.840844 221.042364 
L 98.569636 239.52479 
L 77.34081 228.728421 
L 83.938959 224.790688 
" style="fill:none;stroke:#000000;stroke-width:3;"/>
   </g>
  </g>
 </g>
 <defs>
  <clipPath id="p76659a4e5c">
   <rect height="554.4" width="289.4798" x="7.2" y="7.2"/>
  </clipPath>
 </defs>
</svg>
