<?xml version="1.0" encoding="utf-8" standalone="no"?>
<!DOCTYPE svg PUBLIC "-//W3C//DTD SVG 1.1//EN"
  "http://www.w3.org/Graphics/SVG/1.1/DTD/svg11.dtd">
<!-- Created with matplotlib (https://matplotlib.org/) -->
<svg height="568.8pt" version="1.1" viewBox="0 0 276.678714 568.8" width="276.678714pt" xmlns="http://www.w3.org/2000/svg" xmlns:xlink="http://www.w3.org/1999/xlink">
 <metadata>
  <rdf:RDF xmlns:cc="http://creativecommons.org/ns#" xmlns:dc="http://purl.org/dc/elements/1.1/" xmlns:rdf="http://www.w3.org/1999/02/22-rdf-syntax-ns#">
   <cc:Work>
    <dc:type rdf:resource="http://purl.org/dc/dcmitype/StillImage"/>
    <dc:date>2021-04-18T13:15:10.157629</dc:date>
    <dc:format>image/svg+xml</dc:format>
    <dc:creator>
     <cc:Agent>
      <dc:title>Matplotlib v3.3.3, https://matplotlib.org/</dc:title>
     </cc:Agent>
    </dc:creator>
   </cc:Work>
  </rdf:RDF>
 </metadata>
 <defs>
  <style type="text/css">*{stroke-linecap:butt;stroke-linejoin:round;}</style>
 </defs>
 <g id="figure_1">
  <g id="patch_1">
   <path d="M 0 568.8 
L 276.678714 568.8 
L 276.678714 0 
L 0 0 
z
" style="fill:#ffffff;"/>
  </g>
  <g id="axes_1">
   <g id="LineCollection_1">
    <path clip-path="url(#p57cc9cc8cf)" d="M 36.118292 476.262508 
L 41.073434 470.68639 
L 33.124287 467.302739 
L 21.991559 516.849057 
L 21.390143 533.145825 
L 31.856084 536.4 
L 48.153144 509.451636 
L 42.988813 501.752104 
L 19.12176 488.450557 
L 25.711184 473.267287 
L 52.434962 423.936762 
L 61.802666 409.297292 
L 108.706557 322.76387 
L 103.496466 312.492072 
L 114.008168 294.615691 
L 123.205906 287.356379 
L 135.587226 290.213492 
L 151.165201 273.096707 
L 156.251087 263.51545 
L 155.087478 249.80821 
L 164.494405 240.822545 
L 170.384357 219.588409 
L 187.629299 191.198541 
L 204.318586 187.711309 
L 211.574798 182.117926 
L 232.421698 143.741109 
L 234.232483 110.396609 
L 246.836065 93.16761 
L 248.032359 77.587278 
L 257.556954 67.186004 
L 242.050887 63.016863 
L 251.287849 42.620007 
L 243.430221 33.18549 
L 226.786694 32.4 
L 225.766902 42.09347 
L 232.670109 47.048102 
L 234.598562 58.54561 
L 217.719698 76.560099 
L 205.246858 83.672671 
L 196.493645 100.470082 
L 187.21746 109.447115 
L 184.864094 122.3516 
L 174.130131 128.411098 
L 164.540165 144.276278 
L 166.560137 161.582963 
L 152.812558 178.147315 
L 151.812377 190.197256 
L 129.180841 213.554807 
L 125.879592 204.664091 
L 107.242241 195.30726 
L 99.933732 205.302841 
L 86.016187 197.905421 
" style="fill:none;stroke:#000000;stroke-width:3;"/>
   </g>
  </g>
 </g>
 <defs>
  <clipPath id="p57cc9cc8cf">
   <rect height="554.4" width="262.278714" x="7.2" y="7.2"/>
  </clipPath>
 </defs>
</svg>
