<?xml version="1.0" encoding="utf-8" standalone="no"?>
<!DOCTYPE svg PUBLIC "-//W3C//DTD SVG 1.1//EN"
  "http://www.w3.org/Graphics/SVG/1.1/DTD/svg11.dtd">
<!-- Created with matplotlib (https://matplotlib.org/) -->
<svg height="568.8pt" version="1.1" viewBox="0 0 298.591914 568.8" width="298.591914pt" xmlns="http://www.w3.org/2000/svg" xmlns:xlink="http://www.w3.org/1999/xlink">
 <metadata>
  <rdf:RDF xmlns:cc="http://creativecommons.org/ns#" xmlns:dc="http://purl.org/dc/elements/1.1/" xmlns:rdf="http://www.w3.org/1999/02/22-rdf-syntax-ns#">
   <cc:Work>
    <dc:type rdf:resource="http://purl.org/dc/dcmitype/StillImage"/>
    <dc:date>2021-04-18T13:15:10.927200</dc:date>
    <dc:format>image/svg+xml</dc:format>
    <dc:creator>
     <cc:Agent>
      <dc:title>Matplotlib v3.3.3, https://matplotlib.org/</dc:title>
     </cc:Agent>
    </dc:creator>
   </cc:Work>
  </rdf:RDF>
 </metadata>
 <defs>
  <style type="text/css">*{stroke-linecap:butt;stroke-linejoin:round;}</style>
 </defs>
 <g id="figure_1">
  <g id="patch_1">
   <path d="M 0 568.8 
L 298.591914 568.8 
L 298.591914 0 
L 0 0 
z
" style="fill:#ffffff;"/>
  </g>
  <g id="axes_1">
   <g id="LineCollection_1">
    <path clip-path="url(#pdb7e7f2c58)" d="M 30.791843 536.4 
L 20.117814 530.673287 
L 21.364362 522.817539 
L 50.617172 469.128375 
L 65.620528 444.9993 
L 84.348596 405.26715 
L 100.180495 380.428397 
L 107.129811 361.819044 
L 102.38248 357.708822 
L 114.95992 332.495516 
L 121.700233 325.112886 
L 134.441889 328.42472 
L 142.951254 324.698907 
L 158.969762 306.375397 
L 163.134873 294.054587 
L 160.820922 282.256179 
L 173.577506 269.452393 
L 177.959083 249.325117 
L 199.254891 214.265019 
L 223.760371 207.779344 
L 250.811197 157.175311 
L 248.489782 132.839247 
L 254.170157 118.24155 
L 265.717515 104.580236 
L 267.949358 83.240592 
L 278.474099 72.891111 
L 260.73879 66.839129 
L 269.412371 53.611507 
L 269.330263 42.946614 
L 262.07491 36.648215 
L 245.489111 32.4 
L 239.778879 37.584597 
L 248.079242 46.711853 
L 250.88584 66.42515 
L 237.539572 74.852584 
L 233.180388 83.349015 
L 216.684162 94.171615 
L 209.189948 110.435085 
L 198.023272 121.91808 
L 193.910412 137.491585 
L 181.183685 144.706651 
L 172.398138 163.069587 
L 175.219665 179.50062 
L 161.104568 195.488104 
L 158.12629 212.540105 
L 132.40412 239.655745 
L 126.178847 229.089418 
L 106.532662 219.380619 
L 98.919019 229.81881 
L 82.534758 222.37704 
" style="fill:none;stroke:#000000;stroke-width:3;"/>
   </g>
  </g>
 </g>
 <defs>
  <clipPath id="pdb7e7f2c58">
   <rect height="554.4" width="284.191914" x="7.2" y="7.2"/>
  </clipPath>
 </defs>
</svg>
