<?xml version="1.0" encoding="utf-8" standalone="no"?>
<!DOCTYPE svg PUBLIC "-//W3C//DTD SVG 1.1//EN"
  "http://www.w3.org/Graphics/SVG/1.1/DTD/svg11.dtd">
<!-- Created with matplotlib (https://matplotlib.org/) -->
<svg height="568.8pt" version="1.1" viewBox="0 0 298.562249 568.8" width="298.562249pt" xmlns="http://www.w3.org/2000/svg" xmlns:xlink="http://www.w3.org/1999/xlink">
 <metadata>
  <rdf:RDF xmlns:cc="http://creativecommons.org/ns#" xmlns:dc="http://purl.org/dc/elements/1.1/" xmlns:rdf="http://www.w3.org/1999/02/22-rdf-syntax-ns#">
   <cc:Work>
    <dc:type rdf:resource="http://purl.org/dc/dcmitype/StillImage"/>
    <dc:date>2021-04-18T13:15:12.655269</dc:date>
    <dc:format>image/svg+xml</dc:format>
    <dc:creator>
     <cc:Agent>
      <dc:title>Matplotlib v3.3.3, https://matplotlib.org/</dc:title>
     </cc:Agent>
    </dc:creator>
   </cc:Work>
  </rdf:RDF>
 </metadata>
 <defs>
  <style type="text/css">*{stroke-linecap:butt;stroke-linejoin:round;}</style>
 </defs>
 <g id="figure_1">
  <g id="patch_1">
   <path d="M 0 568.8 
L 298.562249 568.8 
L 298.562249 0 
L 0 0 
z
" style="fill:#ffffff;"/>
  </g>
  <g id="axes_1">
   <g id="LineCollection_1">
    <path clip-path="url(#pfb704319a9)" d="M 32.241118 536.4 
L 22.365937 534.508837 
L 20.116466 526.320396 
L 50.896735 472.179655 
L 81.6995 411.870355 
L 91.244757 399.790672 
L 107.013553 366.729967 
L 100.902489 356.808786 
L 115.913962 331.114707 
L 125.931609 323.510448 
L 138.873569 327.282873 
L 160.96338 304.311673 
L 161.668214 281.588008 
L 174.767637 268.587498 
L 179.701478 246.299493 
L 200.231656 212.268453 
L 225.935618 205.07015 
L 251.519608 158.266331 
L 253.904048 140.285427 
L 250.567332 127.750281 
L 266.778523 103.68993 
L 269.807812 80.441491 
L 278.445783 73.134274 
L 274.546699 65.56962 
L 263.044401 64.688397 
L 272.237241 41.746902 
L 263.659256 34.073333 
L 243.826415 32.4 
L 243.046598 42.578618 
L 252.876789 48.41053 
L 254.383935 59.985242 
L 234.048712 83.382201 
L 219.419648 92.234034 
L 210.714193 110.809021 
L 202.076222 118.076634 
L 195.605242 137.07738 
L 183.578068 142.770673 
L 174.827623 155.355326 
L 177.189568 178.64337 
L 162.380547 194.950941 
L 159.928623 211.288217 
L 133.812258 239.259613 
L 132.072667 231.279101 
L 108.138289 218.318196 
L 100.445096 229.1206 
L 83.806505 220.734132 
" style="fill:none;stroke:#000000;stroke-width:3;"/>
   </g>
  </g>
 </g>
 <defs>
  <clipPath id="pfb704319a9">
   <rect height="554.4" width="284.162249" x="7.2" y="7.2"/>
  </clipPath>
 </defs>
</svg>
