<?xml version="1.0" encoding="utf-8" standalone="no"?>
<!DOCTYPE svg PUBLIC "-//W3C//DTD SVG 1.1//EN"
  "http://www.w3.org/Graphics/SVG/1.1/DTD/svg11.dtd">
<!-- Created with matplotlib (https://matplotlib.org/) -->
<svg height="568.8pt" version="1.1" viewBox="0 0 301.487714 568.8" width="301.487714pt" xmlns="http://www.w3.org/2000/svg" xmlns:xlink="http://www.w3.org/1999/xlink">
 <metadata>
  <rdf:RDF xmlns:cc="http://creativecommons.org/ns#" xmlns:dc="http://purl.org/dc/elements/1.1/" xmlns:rdf="http://www.w3.org/1999/02/22-rdf-syntax-ns#">
   <cc:Work>
    <dc:type rdf:resource="http://purl.org/dc/dcmitype/StillImage"/>
    <dc:date>2021-04-18T13:15:14.216720</dc:date>
    <dc:format>image/svg+xml</dc:format>
    <dc:creator>
     <cc:Agent>
      <dc:title>Matplotlib v3.3.3, https://matplotlib.org/</dc:title>
     </cc:Agent>
    </dc:creator>
   </cc:Work>
  </rdf:RDF>
 </metadata>
 <defs>
  <style type="text/css">*{stroke-linecap:butt;stroke-linejoin:round;}</style>
 </defs>
 <g id="figure_1">
  <g id="patch_1">
   <path d="M 0 568.8 
L 301.487714 568.8 
L 301.487714 0 
L 0 0 
z
" style="fill:#ffffff;"/>
  </g>
  <g id="axes_1">
   <g id="LineCollection_1">
    <path clip-path="url(#p7c65f61be8)" d="M 33.967203 536.4 
L 20.249442 528.127672 
L 23.628422 519.243309 
L 61.574667 453.745816 
L 92.531207 395.237355 
L 101.060889 385.247383 
L 110.988512 364.339517 
L 104.955687 357.814447 
L 120.213426 327.123911 
L 129.214072 323.313507 
L 140.053721 327.281855 
L 161.262054 306.235788 
L 163.437459 282.623128 
L 175.562914 269.454528 
L 181.214482 246.750047 
L 200.79313 214.539298 
L 211.191717 208.182043 
L 226.61392 206.750674 
L 252.55432 159.357537 
L 255.09603 140.868192 
L 251.41055 127.719336 
L 267.064497 105.863804 
L 272.663736 78.904701 
L 281.238272 71.599781 
L 264.036871 64.729207 
L 273.635567 49.191445 
L 262.975333 34.512504 
L 245.01142 32.4 
L 242.41738 40.731558 
L 253.451394 49.852836 
L 252.247819 68.07565 
L 223.406879 89.151332 
L 212.492474 108.617957 
L 202.12379 118.459856 
L 198.468212 134.935412 
L 176.811342 152.180946 
L 177.267355 180.383861 
L 160.903224 199.712285 
L 159.908966 213.058571 
L 134.858165 239.652429 
L 128.952426 228.477875 
L 108.641167 218.951865 
L 101.105743 229.761172 
L 85.055588 220.402977 
" style="fill:none;stroke:#000000;stroke-width:3;"/>
   </g>
  </g>
 </g>
 <defs>
  <clipPath id="p7c65f61be8">
   <rect height="554.4" width="287.087714" x="7.2" y="7.2"/>
  </clipPath>
 </defs>
</svg>
