<?xml version="1.0" encoding="utf-8" standalone="no"?>
<!DOCTYPE svg PUBLIC "-//W3C//DTD SVG 1.1//EN"
  "http://www.w3.org/Graphics/SVG/1.1/DTD/svg11.dtd">
<!-- Created with matplotlib (https://matplotlib.org/) -->
<svg height="568.8pt" version="1.1" viewBox="0 0 298.023367 568.8" width="298.023367pt" xmlns="http://www.w3.org/2000/svg" xmlns:xlink="http://www.w3.org/1999/xlink">
 <metadata>
  <rdf:RDF xmlns:cc="http://creativecommons.org/ns#" xmlns:dc="http://purl.org/dc/elements/1.1/" xmlns:rdf="http://www.w3.org/1999/02/22-rdf-syntax-ns#">
   <cc:Work>
    <dc:type rdf:resource="http://purl.org/dc/dcmitype/StillImage"/>
    <dc:date>2021-04-18T13:15:14.491225</dc:date>
    <dc:format>image/svg+xml</dc:format>
    <dc:creator>
     <cc:Agent>
      <dc:title>Matplotlib v3.3.3, https://matplotlib.org/</dc:title>
     </cc:Agent>
    </dc:creator>
   </cc:Work>
  </rdf:RDF>
 </metadata>
 <defs>
  <style type="text/css">*{stroke-linecap:butt;stroke-linejoin:round;}</style>
 </defs>
 <g id="figure_1">
  <g id="patch_1">
   <path d="M 0 568.8 
L 298.023367 568.8 
L 298.023367 0 
L 0 0 
z
" style="fill:#ffffff;"/>
  </g>
  <g id="axes_1">
   <g id="LineCollection_1">
    <path clip-path="url(#p320819a728)" d="M 32.232711 536.4 
L 20.091971 530.589093 
L 37.103949 493.257221 
L 56.021089 463.393697 
L 70.866412 428.755166 
L 87.803678 405.945629 
L 92.084689 392.686106 
L 108.416786 367.489065 
L 102.790954 356.853823 
L 115.073647 332.889997 
L 125.496005 324.060181 
L 135.298251 327.888079 
L 145.11544 323.014415 
L 160.692943 304.417539 
L 161.193515 285.15966 
L 174.484823 269.206796 
L 179.916403 245.686928 
L 200.15595 213.978515 
L 219.37941 209.696794 
L 227.216725 203.471526 
L 250.997632 160.378076 
L 251.094758 125.058811 
L 267.314786 102.584708 
L 269.055581 83.238038 
L 277.931396 74.654864 
L 275.958993 67.255577 
L 262.062515 66.298602 
L 269.511326 55.673226 
L 271.192351 43.350945 
L 264.617674 37.017155 
L 244.856285 32.4 
L 241.158029 42.65048 
L 250.840736 48.145684 
L 251.856823 67.867251 
L 234.807489 83.228172 
L 219.528835 92.531543 
L 208.859926 113.170622 
L 199.692734 120.865881 
L 198.26573 133.85903 
L 179.281349 147.730227 
L 173.595747 164.728857 
L 176.84573 176.301343 
L 161.58949 196.506331 
L 157.951003 214.935489 
L 132.997114 240.537024 
L 127.48335 229.132255 
L 107.296102 218.52661 
L 100.885792 230.049767 
L 82.835314 221.417265 
" style="fill:none;stroke:#000000;stroke-width:3;"/>
   </g>
  </g>
 </g>
 <defs>
  <clipPath id="p320819a728">
   <rect height="554.4" width="283.623367" x="7.2" y="7.2"/>
  </clipPath>
 </defs>
</svg>
