<?xml version="1.0" encoding="utf-8" standalone="no"?>
<!DOCTYPE svg PUBLIC "-//W3C//DTD SVG 1.1//EN"
  "http://www.w3.org/Graphics/SVG/1.1/DTD/svg11.dtd">
<!-- Created with matplotlib (https://matplotlib.org/) -->
<svg height="568.8pt" version="1.1" viewBox="0 0 242.893617 568.8" width="242.893617pt" xmlns="http://www.w3.org/2000/svg" xmlns:xlink="http://www.w3.org/1999/xlink">
 <metadata>
  <rdf:RDF xmlns:cc="http://creativecommons.org/ns#" xmlns:dc="http://purl.org/dc/elements/1.1/" xmlns:rdf="http://www.w3.org/1999/02/22-rdf-syntax-ns#">
   <cc:Work>
    <dc:type rdf:resource="http://purl.org/dc/dcmitype/StillImage"/>
    <dc:date>2021-04-18T13:15:14.844425</dc:date>
    <dc:format>image/svg+xml</dc:format>
    <dc:creator>
     <cc:Agent>
      <dc:title>Matplotlib v3.3.3, https://matplotlib.org/</dc:title>
     </cc:Agent>
    </dc:creator>
   </cc:Work>
  </rdf:RDF>
 </metadata>
 <defs>
  <style type="text/css">*{stroke-linecap:butt;stroke-linejoin:round;}</style>
 </defs>
 <g id="figure_1">
  <g id="patch_1">
   <path d="M 0 568.8 
L 242.893617 568.8 
L 242.893617 0 
L 0 0 
z
" style="fill:#ffffff;"/>
  </g>
  <g id="axes_1">
   <g id="LineCollection_1">
    <path clip-path="url(#pd2d4dfe0c2)" d="M 166.645636 34.304769 
L 203.371327 55.237391 
L 159.115629 136.190091 
L 147.805589 131.150389 
L 146.212414 158.243749 
L 149.782028 161.071141 
L 147.482445 183.184324 
L 137.464982 212.519757 
L 126.515661 232.490073 
L 129.83728 238.343271 
L 123.254161 253.164758 
L 78.577624 335.050001 
L 68.928394 351.042127 
L 17.586074 443.988922 
L 103.181658 495.258965 
L 107.983728 500.308588 
L 143.484478 520.090412 
L 175.393069 466.409645 
L 203.867315 484.375986 
L 209.360763 516.499128 
L 225.307544 536.4 
L 210.901334 465.000909 
L 221.069097 534.842454 
L 223.549039 532.967447 
L 203.273632 504.544716 
L 165.563479 483.770825 
L 168.47929 478.086278 
L 110.117981 445.496864 
L 110.125496 439.901604 
L 141.703428 383.552176 
L 166.89363 341.498439 
L 180.886517 314.891191 
L 159.371139 300.248277 
L 134.541656 287.470449 
L 153.268977 246.964337 
L 178.045856 204.6229 
L 191.783233 177.906525 
L 185.485683 169.890621 
L 194.924493 153.997701 
L 182.998225 140.555188 
L 165.067491 129.414271 
L 183.08089 94.949849 
L 149.759483 75.336677 
L 149.691849 54.711596 
L 161.753386 32.4 
L 165.480815 33.659926 
" style="fill:none;stroke:#000000;stroke-width:3;"/>
   </g>
  </g>
 </g>
 <defs>
  <clipPath id="pd2d4dfe0c2">
   <rect height="554.4" width="228.493617" x="7.2" y="7.2"/>
  </clipPath>
 </defs>
</svg>
