<?xml version="1.0" encoding="utf-8" standalone="no"?>
<!DOCTYPE svg PUBLIC "-//W3C//DTD SVG 1.1//EN"
  "http://www.w3.org/Graphics/SVG/1.1/DTD/svg11.dtd">
<!-- Created with matplotlib (https://matplotlib.org/) -->
<svg height="568.8pt" version="1.1" viewBox="0 0 301.396855 568.8" width="301.396855pt" xmlns="http://www.w3.org/2000/svg" xmlns:xlink="http://www.w3.org/1999/xlink">
 <metadata>
  <rdf:RDF xmlns:cc="http://creativecommons.org/ns#" xmlns:dc="http://purl.org/dc/elements/1.1/" xmlns:rdf="http://www.w3.org/1999/02/22-rdf-syntax-ns#">
   <cc:Work>
    <dc:type rdf:resource="http://purl.org/dc/dcmitype/StillImage"/>
    <dc:date>2021-04-18T13:15:15.739424</dc:date>
    <dc:format>image/svg+xml</dc:format>
    <dc:creator>
     <cc:Agent>
      <dc:title>Matplotlib v3.3.3, https://matplotlib.org/</dc:title>
     </cc:Agent>
    </dc:creator>
   </cc:Work>
  </rdf:RDF>
 </metadata>
 <defs>
  <style type="text/css">*{stroke-linecap:butt;stroke-linejoin:round;}</style>
 </defs>
 <g id="figure_1">
  <g id="patch_1">
   <path d="M 0 568.8 
L 301.396855 568.8 
L 301.396855 0 
L 0 0 
z
" style="fill:#ffffff;"/>
  </g>
  <g id="axes_1">
   <g id="LineCollection_1">
    <path clip-path="url(#p9769e52053)" d="M 33.924558 536.4 
L 20.439449 528.867016 
L 20.245312 521.077674 
L 38.740668 496.920855 
L 57.945374 459.709492 
L 65.658617 440.472776 
L 79.330396 417.15405 
L 84.572116 401.358447 
L 90.538119 399.958338 
L 109.324682 364.482323 
L 103.679752 355.184412 
L 118.859833 329.95286 
L 146.30046 323.849566 
L 165.176625 298.046138 
L 163.34725 282.122357 
L 176.459016 269.245293 
L 184.209594 240.957164 
L 205.310876 211.475984 
L 223.888367 209.198341 
L 228.95835 203.233086 
L 252.434087 160.450865 
L 254.808541 142.988935 
L 251.022855 129.875233 
L 266.322404 107.41432 
L 270.668104 82.744784 
L 281.151543 72.983457 
L 267.920307 71.721387 
L 264.313825 65.095516 
L 273.29643 44.133312 
L 261.536162 34.924141 
L 247.356637 32.4 
L 242.719731 42.299366 
L 253.091168 49.546412 
L 255.084814 63.488348 
L 239.882333 75.823116 
L 234.170203 85.406965 
L 218.713849 95.641568 
L 209.910448 113.931732 
L 202.286807 119.601189 
L 197.694702 136.875781 
L 183.836252 144.635543 
L 175.114986 164.572314 
L 177.65371 180.229877 
L 163.175513 197.031192 
L 158.41167 216.504547 
L 134.861265 240.533187 
L 130.605168 230.288724 
L 109.653222 218.70331 
L 100.78262 230.900039 
L 85.176929 221.286611 
" style="fill:none;stroke:#000000;stroke-width:3;"/>
   </g>
  </g>
 </g>
 <defs>
  <clipPath id="p9769e52053">
   <rect height="554.4" width="286.996855" x="7.2" y="7.2"/>
  </clipPath>
 </defs>
</svg>
