<?xml version="1.0" encoding="utf-8" standalone="no"?>
<!DOCTYPE svg PUBLIC "-//W3C//DTD SVG 1.1//EN"
  "http://www.w3.org/Graphics/SVG/1.1/DTD/svg11.dtd">
<!-- Created with matplotlib (https://matplotlib.org/) -->
<svg height="568.8pt" version="1.1" viewBox="0 0 383.048831 568.8" width="383.048831pt" xmlns="http://www.w3.org/2000/svg" xmlns:xlink="http://www.w3.org/1999/xlink">
 <metadata>
  <rdf:RDF xmlns:cc="http://creativecommons.org/ns#" xmlns:dc="http://purl.org/dc/elements/1.1/" xmlns:rdf="http://www.w3.org/1999/02/22-rdf-syntax-ns#">
   <cc:Work>
    <dc:type rdf:resource="http://purl.org/dc/dcmitype/StillImage"/>
    <dc:date>2021-04-18T13:15:15.834085</dc:date>
    <dc:format>image/svg+xml</dc:format>
    <dc:creator>
     <cc:Agent>
      <dc:title>Matplotlib v3.3.3, https://matplotlib.org/</dc:title>
     </cc:Agent>
    </dc:creator>
   </cc:Work>
  </rdf:RDF>
 </metadata>
 <defs>
  <style type="text/css">*{stroke-linecap:butt;stroke-linejoin:round;}</style>
 </defs>
 <g id="figure_1">
  <g id="patch_1">
   <path d="M 0 568.8 
L 383.048831 568.8 
L 383.048831 0 
L 0 0 
z
" style="fill:#ffffff;"/>
  </g>
  <g id="axes_1">
   <g id="LineCollection_1">
    <path clip-path="url(#p321f52c1ed)" d="M 48.203764 374.40514 
L 71.560798 371.286625 
L 72.35995 379.034936 
L 98.350554 389.92575 
L 45.851714 488.530795 
L 23.956765 523.206283 
L 53.162139 536.4 
L 57.103412 528.963541 
L 77.427301 530.930604 
L 88.016065 510.072537 
L 99.195112 500.165255 
L 111.454831 504.867016 
L 123.324055 499.193717 
L 140.705611 479.631033 
L 146.835471 464.626178 
L 143.420912 453.531461 
L 159.576497 433.069205 
L 163.708476 411.359543 
L 187.201729 370.54298 
L 195.756289 362.122989 
L 215.771414 360.58772 
L 228.57601 344.419419 
L 253.349722 299.14098 
L 250.943185 267.080248 
L 256.782444 250.744027 
L 271.575837 232.380771 
L 274.681633 206.485102 
L 285.352129 188.565635 
L 267.543752 191.840076 
L 278.568418 162.130224 
L 269.514388 149.908044 
L 296.821777 102.542599 
L 318.162768 114.249024 
L 326.272345 106.224845 
L 359.092066 44.862066 
L 332.256904 32.4 
L 266.036261 148.168872 
L 246.039298 144.390671 
L 243.387566 159.803332 
L 253.567673 166.328225 
L 255.856154 182.388577 
L 232.471876 206.856925 
L 213.037951 219.211042 
L 202.8306 240.476916 
L 189.408479 255.337839 
L 184.241234 273.197335 
L 168.430738 281.665302 
L 158.150737 301.215992 
L 162.146497 321.40238 
L 141.277732 348.8693 
L 140.542149 364.761733 
L 109.883771 397.350214 
L 106.723488 388.174584 
L 76.573661 372.582009 
L 68.600303 384.900143 
L 47.667969 375.736506 
" style="fill:none;stroke:#000000;stroke-width:3;"/>
   </g>
  </g>
 </g>
 <defs>
  <clipPath id="p321f52c1ed">
   <rect height="554.4" width="368.648831" x="7.2" y="7.2"/>
  </clipPath>
 </defs>
</svg>
