<?xml version="1.0" encoding="utf-8" standalone="no"?>
<!DOCTYPE svg PUBLIC "-//W3C//DTD SVG 1.1//EN"
  "http://www.w3.org/Graphics/SVG/1.1/DTD/svg11.dtd">
<!-- Created with matplotlib (https://matplotlib.org/) -->
<svg height="568.8pt" version="1.1" viewBox="0 0 300.605555 568.8" width="300.605555pt" xmlns="http://www.w3.org/2000/svg" xmlns:xlink="http://www.w3.org/1999/xlink">
 <metadata>
  <rdf:RDF xmlns:cc="http://creativecommons.org/ns#" xmlns:dc="http://purl.org/dc/elements/1.1/" xmlns:rdf="http://www.w3.org/1999/02/22-rdf-syntax-ns#">
   <cc:Work>
    <dc:type rdf:resource="http://purl.org/dc/dcmitype/StillImage"/>
    <dc:date>2021-04-18T13:15:16.359913</dc:date>
    <dc:format>image/svg+xml</dc:format>
    <dc:creator>
     <cc:Agent>
      <dc:title>Matplotlib v3.3.3, https://matplotlib.org/</dc:title>
     </cc:Agent>
    </dc:creator>
   </cc:Work>
  </rdf:RDF>
 </metadata>
 <defs>
  <style type="text/css">*{stroke-linecap:butt;stroke-linejoin:round;}</style>
 </defs>
 <g id="figure_1">
  <g id="patch_1">
   <path d="M -0 568.8 
L 300.605555 568.8 
L 300.605555 0 
L -0 0 
z
" style="fill:#ffffff;"/>
  </g>
  <g id="axes_1">
   <g id="LineCollection_1">
    <path clip-path="url(#p6f04d1c172)" d="M 34.029203 536.4 
L 20.209343 529.859926 
L 54.505006 468.690999 
L 79.418104 421.312454 
L 95.733008 394.313687 
L 96.285802 387.931443 
L 111.121608 365.411097 
L 104.495546 357.6873 
L 118.49469 331.231073 
L 128.952962 324.621948 
L 145.559204 324.967201 
L 160.589235 308.158323 
L 166.251642 294.821702 
L 163.330796 283.398767 
L 177.210417 268.385203 
L 185.248347 240.409864 
L 206.463698 211.211344 
L 223.107291 209.95857 
L 228.724877 204.51344 
L 253.242055 159.975832 
L 251.852599 133.026387 
L 256.058318 120.182984 
L 268.204854 105.445623 
L 270.453383 84.769914 
L 280.396212 74.787176 
L 278.371789 67.862392 
L 263.931903 67.211344 
L 274.061487 45.351911 
L 264.917969 36.533169 
L 248.162323 32.4 
L 243.04524 42.72799 
L 252.330691 47.956104 
L 255.281418 64.932676 
L 233.998835 85.864858 
L 219.237731 95.482614 
L 212.536966 110.959803 
L 200.890933 123.398767 
L 198.283836 137.051048 
L 177.516695 153.741554 
L 177.987318 181.085573 
L 161.739645 200.271763 
L 160.843222 213.608385 
L 134.876826 240.863625 
L 129.901677 229.894451 
L 77.304039 201.346979 
L 71.60428 216.78471 
" style="fill:none;stroke:#000000;stroke-width:3;"/>
   </g>
  </g>
 </g>
 <defs>
  <clipPath id="p6f04d1c172">
   <rect height="554.4" width="286.205555" x="7.2" y="7.2"/>
  </clipPath>
 </defs>
</svg>
