<?xml version="1.0" encoding="utf-8" standalone="no"?>
<!DOCTYPE svg PUBLIC "-//W3C//DTD SVG 1.1//EN"
  "http://www.w3.org/Graphics/SVG/1.1/DTD/svg11.dtd">
<!-- Created with matplotlib (https://matplotlib.org/) -->
<svg height="568.8pt" version="1.1" viewBox="0 0 327.987825 568.8" width="327.987825pt" xmlns="http://www.w3.org/2000/svg" xmlns:xlink="http://www.w3.org/1999/xlink">
 <metadata>
  <rdf:RDF xmlns:cc="http://creativecommons.org/ns#" xmlns:dc="http://purl.org/dc/elements/1.1/" xmlns:rdf="http://www.w3.org/1999/02/22-rdf-syntax-ns#">
   <cc:Work>
    <dc:type rdf:resource="http://purl.org/dc/dcmitype/StillImage"/>
    <dc:date>2021-04-18T13:15:18.452123</dc:date>
    <dc:format>image/svg+xml</dc:format>
    <dc:creator>
     <cc:Agent>
      <dc:title>Matplotlib v3.3.3, https://matplotlib.org/</dc:title>
     </cc:Agent>
    </dc:creator>
   </cc:Work>
  </rdf:RDF>
 </metadata>
 <defs>
  <style type="text/css">*{stroke-linecap:butt;stroke-linejoin:round;}</style>
 </defs>
 <g id="figure_1">
  <g id="patch_1">
   <path d="M -0 568.8 
L 327.987825 568.8 
L 327.987825 0 
L -0 0 
z
" style="fill:#ffffff;"/>
  </g>
  <g id="axes_1">
   <g id="LineCollection_1">
    <path clip-path="url(#pe610f27b6b)" d="M 24.848288 358.287405 
L 75.383304 388.083444 
L 86.919809 371.492468 
L 93.472543 383.004574 
L 82.899978 395.139688 
L 82.141132 425.098251 
L 67.476953 436.827055 
L 48.362248 476.090108 
L 21.453992 510.34201 
L 25.740444 521.515524 
L 52.443606 536.4 
L 78.408432 499.872765 
L 108.105958 499.696697 
L 127.948746 476.496418 
L 136.008917 457.548846 
L 133.486268 439.427437 
L 149.381007 424.610679 
L 156.76437 394.313525 
L 183.549569 350.391455 
L 199.844241 340.789004 
L 217.953989 339.556531 
L 252.501974 280.09989 
L 258.039496 250.060065 
L 253.322347 233.10341 
L 276.897835 197.361707 
L 280.230603 167.470862 
L 292.382388 156.432784 
L 287.152506 146.491742 
L 271.093692 149.403628 
L 284.301707 115.124639 
L 270.098988 102.542585 
L 248.164248 96.840706 
L 247.877117 79.924682 
L 275.944151 32.4 
L 306.533833 49.898401 
L 299.45811 52.011211 
L 270.078479 101.540354 
L 250.953519 97.761675 
L 241.652532 107.499562 
L 257.075557 122.600736 
L 257.885676 144.568543 
L 239.509306 156.893268 
L 228.895722 171.804832 
L 212.631815 180.107092 
L 199.393035 206.327606 
L 186.113237 217.636557 
L 181.232014 240.484702 
L 158.415372 254.746169 
L 150.201381 268.967006 
L 153.534149 293.616457 
L 146.930141 311.033596 
L 129.774077 331.281359 
L 129.281853 346.206465 
L 100.179098 379.659291 
L 86.26351 390.58902 
L 72.532506 411.771295 
L 63.651961 413.748668 
L 77.106089 387.582329 
L 26.150631 357.650853 
" style="fill:none;stroke:#000000;stroke-width:3;"/>
   </g>
  </g>
 </g>
 <defs>
  <clipPath id="pe610f27b6b">
   <rect height="554.4" width="313.587825" x="7.2" y="7.2"/>
  </clipPath>
 </defs>
</svg>
