<?xml version="1.0" encoding="utf-8" standalone="no"?>
<!DOCTYPE svg PUBLIC "-//W3C//DTD SVG 1.1//EN"
  "http://www.w3.org/Graphics/SVG/1.1/DTD/svg11.dtd">
<!-- Created with matplotlib (https://matplotlib.org/) -->
<svg height="568.8pt" version="1.1" viewBox="0 0 301.927586 568.8" width="301.927586pt" xmlns="http://www.w3.org/2000/svg" xmlns:xlink="http://www.w3.org/1999/xlink">
 <metadata>
  <rdf:RDF xmlns:cc="http://creativecommons.org/ns#" xmlns:dc="http://purl.org/dc/elements/1.1/" xmlns:rdf="http://www.w3.org/1999/02/22-rdf-syntax-ns#">
   <cc:Work>
    <dc:type rdf:resource="http://purl.org/dc/dcmitype/StillImage"/>
    <dc:date>2021-04-18T13:15:18.630400</dc:date>
    <dc:format>image/svg+xml</dc:format>
    <dc:creator>
     <cc:Agent>
      <dc:title>Matplotlib v3.3.3, https://matplotlib.org/</dc:title>
     </cc:Agent>
    </dc:creator>
   </cc:Work>
  </rdf:RDF>
 </metadata>
 <defs>
  <style type="text/css">*{stroke-linecap:butt;stroke-linejoin:round;}</style>
 </defs>
 <g id="figure_1">
  <g id="patch_1">
   <path d="M -0 568.8 
L 301.927586 568.8 
L 301.927586 0 
L -0 0 
z
" style="fill:#ffffff;"/>
  </g>
  <g id="axes_1">
   <g id="LineCollection_1">
    <path clip-path="url(#p2214994bd0)" d="M 34.167282 536.4 
L 20.269436 528.912993 
L 46.053007 485.778748 
L 52.08189 472.128295 
L 69.831937 444.708862 
L 84.694704 409.397452 
L 110.889675 370.619104 
L 104.815913 353.225148 
L 121.90772 327.40584 
L 139.740048 328.018234 
L 163.571338 303.976843 
L 163.444178 285.427241 
L 175.943264 270.354455 
L 181.298946 248.584847 
L 204.165316 212.56227 
L 226.710046 207.761894 
L 254.550618 155.678799 
L 251.925137 132.170784 
L 256.974139 119.340148 
L 269.084265 104.227852 
L 270.632625 85.204139 
L 281.65815 70.279512 
L 264.177382 67.652146 
L 274.522227 45.477568 
L 267.206784 35.353318 
L 248.162695 32.4 
L 243.128653 40.301854 
L 252.501097 47.038184 
L 256.061579 62.031952 
L 234.070369 86.063466 
L 217.457282 99.032383 
L 210.590639 114.154557 
L 202.033515 121.118065 
L 200.866635 132.467103 
L 176.915664 156.123278 
L 178.808105 179.591785 
L 161.918258 201.104582 
L 157.759376 218.350378 
L 113.829317 261.899471 
L 122.57344 242.243609 
L 86.145825 222.034618 
" style="fill:none;stroke:#000000;stroke-width:3;"/>
   </g>
  </g>
 </g>
 <defs>
  <clipPath id="p2214994bd0">
   <rect height="554.4" width="287.527586" x="7.2" y="7.2"/>
  </clipPath>
 </defs>
</svg>
