<?xml version="1.0" encoding="utf-8" standalone="no"?>
<!DOCTYPE svg PUBLIC "-//W3C//DTD SVG 1.1//EN"
  "http://www.w3.org/Graphics/SVG/1.1/DTD/svg11.dtd">
<!-- Created with matplotlib (https://matplotlib.org/) -->
<svg height="568.8pt" version="1.1" viewBox="0 0 301.36809 568.8" width="301.36809pt" xmlns="http://www.w3.org/2000/svg" xmlns:xlink="http://www.w3.org/1999/xlink">
 <metadata>
  <rdf:RDF xmlns:cc="http://creativecommons.org/ns#" xmlns:dc="http://purl.org/dc/elements/1.1/" xmlns:rdf="http://www.w3.org/1999/02/22-rdf-syntax-ns#">
   <cc:Work>
    <dc:type rdf:resource="http://purl.org/dc/dcmitype/StillImage"/>
    <dc:date>2021-04-18T13:15:20.539607</dc:date>
    <dc:format>image/svg+xml</dc:format>
    <dc:creator>
     <cc:Agent>
      <dc:title>Matplotlib v3.3.3, https://matplotlib.org/</dc:title>
     </cc:Agent>
    </dc:creator>
   </cc:Work>
  </rdf:RDF>
 </metadata>
 <defs>
  <style type="text/css">*{stroke-linecap:butt;stroke-linejoin:round;}</style>
 </defs>
 <g id="figure_1">
  <g id="patch_1">
   <path d="M 0 568.8 
L 301.36809 568.8 
L 301.36809 0 
L 0 0 
z
" style="fill:#ffffff;"/>
  </g>
  <g id="axes_1">
   <g id="LineCollection_1">
    <path clip-path="url(#pf9b8179ded)" d="M 34.598346 536.4 
L 20.244004 528.835809 
L 38.063702 501.715175 
L 68.542406 440.767714 
L 81.828761 422.010097 
L 88.811753 403.20317 
L 97.363117 396.575873 
L 110.880993 362.453185 
L 104.704593 357.255885 
L 115.929659 335.874963 
L 127.386246 324.711124 
L 137.871936 328.438979 
L 146.75938 324.35609 
L 166.020487 297.748283 
L 163.974134 282.866451 
L 177.618974 266.929381 
L 185.169567 240.430056 
L 202.780149 214.029351 
L 228.673231 205.123921 
L 253.154778 161.661873 
L 255.081635 143.604461 
L 251.504253 133.190138 
L 255.910632 120.408923 
L 269.189519 104.235163 
L 271.407646 83.288171 
L 281.124086 74.363017 
L 277.165813 67.775169 
L 267.143166 72.173643 
L 264.536681 65.654828 
L 274.193374 45.023422 
L 263.58072 35.861579 
L 248.711056 32.4 
L 243.102257 42.735427 
L 254.267575 51.256237 
L 255.918101 63.061109 
L 233.243916 86.739888 
L 220.734279 94.156149 
L 212.63849 111.769768 
L 204.520296 118.830995 
L 200.883165 133.407103 
L 186.820093 143.081773 
L 177.088715 155.685471 
L 177.820622 182.391899 
L 162.03234 200.666275 
L 161.494612 212.983974 
L 140.217026 237.668682 
L 127.953848 248.004109 
L 118.147786 263.625594 
L 113.457605 262.452011 
L 122.994803 243.368946 
L 84.771327 222.195128 
" style="fill:none;stroke:#000000;stroke-width:3;"/>
   </g>
  </g>
 </g>
 <defs>
  <clipPath id="pf9b8179ded">
   <rect height="554.4" width="286.96809" x="7.2" y="7.2"/>
  </clipPath>
 </defs>
</svg>
