<?xml version="1.0" encoding="utf-8" standalone="no"?>
<!DOCTYPE svg PUBLIC "-//W3C//DTD SVG 1.1//EN"
  "http://www.w3.org/Graphics/SVG/1.1/DTD/svg11.dtd">
<!-- Created with matplotlib (https://matplotlib.org/) -->
<svg height="568.8pt" version="1.1" viewBox="0 0 296.383081 568.8" width="296.383081pt" xmlns="http://www.w3.org/2000/svg" xmlns:xlink="http://www.w3.org/1999/xlink">
 <metadata>
  <rdf:RDF xmlns:cc="http://creativecommons.org/ns#" xmlns:dc="http://purl.org/dc/elements/1.1/" xmlns:rdf="http://www.w3.org/1999/02/22-rdf-syntax-ns#">
   <cc:Work>
    <dc:type rdf:resource="http://purl.org/dc/dcmitype/StillImage"/>
    <dc:date>2021-04-18T13:15:21.871239</dc:date>
    <dc:format>image/svg+xml</dc:format>
    <dc:creator>
     <cc:Agent>
      <dc:title>Matplotlib v3.3.3, https://matplotlib.org/</dc:title>
     </cc:Agent>
    </dc:creator>
   </cc:Work>
  </rdf:RDF>
 </metadata>
 <defs>
  <style type="text/css">*{stroke-linecap:butt;stroke-linejoin:round;}</style>
 </defs>
 <g id="figure_1">
  <g id="patch_1">
   <path d="M 0 568.8 
L 296.383081 568.8 
L 296.383081 0 
L 0 0 
z
" style="fill:#ffffff;"/>
  </g>
  <g id="axes_1">
   <g id="LineCollection_1">
    <path clip-path="url(#p13ad073ae5)" d="M 30.645648 536.4 
L 20.017413 523.786676 
L 49.106788 469.464505 
L 64.869762 442.826507 
L 90.550927 392.610081 
L 107.270592 364.126472 
L 101.014732 357.967853 
L 118.22769 327.69785 
L 134.797871 328.783504 
L 143.16144 324.253366 
L 160.905062 302.007332 
L 159.791415 285.929785 
L 173.887654 268.806063 
L 178.065701 247.734508 
L 197.902085 215.470849 
L 225.743278 204.17018 
L 250.53502 157.970673 
L 251.79815 142.258301 
L 247.590206 132.64533 
L 253.965653 118.107437 
L 263.988482 106.915333 
L 267.127624 84.442298 
L 276.365668 68.335143 
L 263.495189 72.026366 
L 261.664023 64.851181 
L 270.909541 46.434544 
L 261.252945 36.535354 
L 245.355437 32.4 
L 241.588467 44.697497 
L 249.52601 48.201198 
L 252.328815 62.462742 
L 247.022171 71.710539 
L 215.914776 95.279098 
L 208.672329 111.889602 
L 199.755673 119.21283 
L 194.254701 137.757772 
L 176.817519 149.394008 
L 172.392825 158.5135 
L 174.014714 182.003102 
L 161.218977 195.899471 
L 156.024445 216.763765 
L 123.99773 248.1589 
L 115.013807 263.575185 
L 109.811801 262.311879 
L 116.546007 249.747903 
L 96.022002 237.825449 
L 98.824807 231.824744 
L 82.47885 221.471554 
" style="fill:none;stroke:#000000;stroke-width:3;"/>
   </g>
  </g>
 </g>
 <defs>
  <clipPath id="p13ad073ae5">
   <rect height="554.4" width="281.983081" x="7.2" y="7.2"/>
  </clipPath>
 </defs>
</svg>
