<?xml version="1.0" encoding="utf-8" standalone="no"?>
<!DOCTYPE svg PUBLIC "-//W3C//DTD SVG 1.1//EN"
  "http://www.w3.org/Graphics/SVG/1.1/DTD/svg11.dtd">
<!-- Created with matplotlib (https://matplotlib.org/) -->
<svg height="568.8pt" version="1.1" viewBox="0 0 300.53905 568.8" width="300.53905pt" xmlns="http://www.w3.org/2000/svg" xmlns:xlink="http://www.w3.org/1999/xlink">
 <metadata>
  <rdf:RDF xmlns:cc="http://creativecommons.org/ns#" xmlns:dc="http://purl.org/dc/elements/1.1/" xmlns:rdf="http://www.w3.org/1999/02/22-rdf-syntax-ns#">
   <cc:Work>
    <dc:type rdf:resource="http://purl.org/dc/dcmitype/StillImage"/>
    <dc:date>2021-04-18T13:15:23.030863</dc:date>
    <dc:format>image/svg+xml</dc:format>
    <dc:creator>
     <cc:Agent>
      <dc:title>Matplotlib v3.3.3, https://matplotlib.org/</dc:title>
     </cc:Agent>
    </dc:creator>
   </cc:Work>
  </rdf:RDF>
 </metadata>
 <defs>
  <style type="text/css">*{stroke-linecap:butt;stroke-linejoin:round;}</style>
 </defs>
 <g id="figure_1">
  <g id="patch_1">
   <path d="M 0 568.8 
L 300.53905 568.8 
L 300.53905 0 
L 0 0 
z
" style="fill:#ffffff;"/>
  </g>
  <g id="axes_1">
   <g id="LineCollection_1">
    <path clip-path="url(#pe8897a2cfb)" d="M 31.404063 536.4 
L 20.20632 531.807655 
L 21.50298 524.305504 
L 74.448665 428.222556 
L 92.294599 393.79976 
L 108.903835 366.869218 
L 103.185041 353.854274 
L 121.360761 325.79544 
L 144.310887 324.528586 
L 164.150529 296.80626 
L 163.183655 279.951165 
L 175.738019 267.906156 
L 183.263142 240.629209 
L 202.248337 212.233867 
L 226.105375 206.03816 
L 251.551383 159.817788 
L 253.230295 137.390515 
L 250.029869 130.838505 
L 265.987027 106.124957 
L 270.656501 80.520653 
L 280.33273 70.296746 
L 262.981475 68.505336 
L 273.197354 44.732031 
L 255.651226 32.4 
L 243.186805 32.865173 
L 241.155621 39.733896 
L 250.681947 45.791041 
L 254.736819 59.81551 
L 247.953715 70.72233 
L 219.449689 92.149975 
L 210.470508 111.142886 
L 201.288959 118.645037 
L 199.085387 132.372586 
L 177.461902 150.514329 
L 174.224 164.034036 
L 177.282018 175.039829 
L 170.27406 189.964951 
L 160.148123 199.931528 
L 157.135076 216.351142 
L 129.065768 243.885419 
L 116.368996 262.601206 
L 111.384727 261.621373 
L 120.738664 242.767025 
L 83.592739 221.29979 
" style="fill:none;stroke:#000000;stroke-width:3;"/>
   </g>
  </g>
 </g>
 <defs>
  <clipPath id="pe8897a2cfb">
   <rect height="554.4" width="286.13905" x="7.2" y="7.2"/>
  </clipPath>
 </defs>
</svg>
