<?xml version="1.0" encoding="utf-8" standalone="no"?>
<!DOCTYPE svg PUBLIC "-//W3C//DTD SVG 1.1//EN"
  "http://www.w3.org/Graphics/SVG/1.1/DTD/svg11.dtd">
<!-- Created with matplotlib (https://matplotlib.org/) -->
<svg height="568.8pt" version="1.1" viewBox="0 0 299.797907 568.8" width="299.797907pt" xmlns="http://www.w3.org/2000/svg" xmlns:xlink="http://www.w3.org/1999/xlink">
 <metadata>
  <rdf:RDF xmlns:cc="http://creativecommons.org/ns#" xmlns:dc="http://purl.org/dc/elements/1.1/" xmlns:rdf="http://www.w3.org/1999/02/22-rdf-syntax-ns#">
   <cc:Work>
    <dc:type rdf:resource="http://purl.org/dc/dcmitype/StillImage"/>
    <dc:date>2021-04-18T13:15:24.327063</dc:date>
    <dc:format>image/svg+xml</dc:format>
    <dc:creator>
     <cc:Agent>
      <dc:title>Matplotlib v3.3.3, https://matplotlib.org/</dc:title>
     </cc:Agent>
    </dc:creator>
   </cc:Work>
  </rdf:RDF>
 </metadata>
 <defs>
  <style type="text/css">*{stroke-linecap:butt;stroke-linejoin:round;}</style>
 </defs>
 <g id="figure_1">
  <g id="patch_1">
   <path d="M 0 568.8 
L 299.797907 568.8 
L 299.797907 0 
L 0 0 
z
" style="fill:#ffffff;"/>
  </g>
  <g id="axes_1">
   <g id="LineCollection_1">
    <path clip-path="url(#p041df170b3)" d="M 34.06761 536.4 
L 20.172632 530.606329 
L 75.98425 426.734796 
L 110.598366 365.856838 
L 104.559021 357.733856 
L 119.56769 329.36757 
L 124.971707 325.172834 
L 139.950478 328.587843 
L 159.83248 308.41363 
L 165.812029 294.556196 
L 164.190076 281.162651 
L 176.649962 269.28908 
L 185.701505 239.077111 
L 199.282556 217.797462 
L 209.918679 209.832399 
L 224.800283 209.49682 
L 252.201567 161.666959 
L 254.735401 141.433527 
L 251.050504 132.984835 
L 256.723601 118.337804 
L 268.779867 103.680902 
L 271.306227 82.243334 
L 279.625275 75.127088 
L 277.614651 67.892402 
L 263.398273 67.803572 
L 272.569407 53.956008 
L 273.309376 44.076171 
L 262.164991 35.43008 
L 248.501721 32.4 
L 242.41753 40.937522 
L 253.644133 49.326994 
L 254.675606 66.490866 
L 241.034759 75.304747 
L 235.57842 84.266677 
L 219.769987 94.975591 
L 212.729067 110.017421 
L 201.22591 121.328404 
L 196.113395 138.748896 
L 182.973335 146.141501 
L 175.41668 161.982798 
L 175.566169 184.654112 
L 161.21525 201.729156 
L 160.901324 212.862478 
L 115.546443 264.354097 
L 70.74467 238.948802 
L 83.854832 221.932978 
" style="fill:none;stroke:#000000;stroke-width:3;"/>
   </g>
  </g>
 </g>
 <defs>
  <clipPath id="p041df170b3">
   <rect height="554.4" width="285.397907" x="7.2" y="7.2"/>
  </clipPath>
 </defs>
</svg>
