<?xml version="1.0" encoding="utf-8" standalone="no"?>
<!DOCTYPE svg PUBLIC "-//W3C//DTD SVG 1.1//EN"
  "http://www.w3.org/Graphics/SVG/1.1/DTD/svg11.dtd">
<!-- Created with matplotlib (https://matplotlib.org/) -->
<svg height="568.8pt" version="1.1" viewBox="0 0 301.843893 568.8" width="301.843893pt" xmlns="http://www.w3.org/2000/svg" xmlns:xlink="http://www.w3.org/1999/xlink">
 <metadata>
  <rdf:RDF xmlns:cc="http://creativecommons.org/ns#" xmlns:dc="http://purl.org/dc/elements/1.1/" xmlns:rdf="http://www.w3.org/1999/02/22-rdf-syntax-ns#">
   <cc:Work>
    <dc:type rdf:resource="http://purl.org/dc/dcmitype/StillImage"/>
    <dc:date>2021-04-18T13:15:24.598441</dc:date>
    <dc:format>image/svg+xml</dc:format>
    <dc:creator>
     <cc:Agent>
      <dc:title>Matplotlib v3.3.3, https://matplotlib.org/</dc:title>
     </cc:Agent>
    </dc:creator>
   </cc:Work>
  </rdf:RDF>
 </metadata>
 <defs>
  <style type="text/css">*{stroke-linecap:butt;stroke-linejoin:round;}</style>
 </defs>
 <g id="figure_1">
  <g id="patch_1">
   <path d="M -0 568.8 
L 301.843893 568.8 
L 301.843893 0 
L -0 0 
z
" style="fill:#ffffff;"/>
  </g>
  <g id="axes_1">
   <g id="LineCollection_1">
    <path clip-path="url(#ped5c55437f)" d="M 34.103524 536.4 
L 20.265631 531.858926 
L 20.848752 526.024633 
L 40.585129 493.763262 
L 52.935317 467.859396 
L 81.209173 418.667717 
L 87.466502 403.188577 
L 103.046279 381.184111 
L 109.453126 363.197509 
L 104.563887 354.085745 
L 117.235538 332.880903 
L 126.012246 324.627994 
L 137.360663 328.76432 
L 145.733671 325.299283 
L 163.055333 304.97304 
L 164.19167 281.951769 
L 177.693147 267.321612 
L 183.329976 244.221366 
L 204.912901 212.591797 
L 221.853291 210.874086 
L 228.813355 205.572876 
L 253.745483 159.382254 
L 252.452153 127.357809 
L 269.594393 102.312798 
L 270.753157 85.688518 
L 281.578261 73.269667 
L 277.765552 67.583453 
L 266.439563 72.085039 
L 264.742533 65.599201 
L 274.199548 45.835656 
L 267.650659 38.16519 
L 248.377787 32.4 
L 243.540879 43.446656 
L 252.601671 48.056834 
L 256.010681 61.808391 
L 250.874738 71.867858 
L 220.492678 94.346175 
L 209.63767 115.501657 
L 200.62921 124.958938 
L 200.360077 134.258268 
L 185.804499 144.041321 
L 175.794268 159.757386 
L 176.399816 184.703678 
L 161.791906 200.478975 
L 159.728557 216.431966 
L 130.168846 245.889717 
L 116.906599 263.856575 
L 71.206418 239.936961 
L 81.500733 220.44983 
L 85.163925 221.75292 
" style="fill:none;stroke:#000000;stroke-width:3;"/>
   </g>
  </g>
 </g>
 <defs>
  <clipPath id="ped5c55437f">
   <rect height="554.4" width="287.443893" x="7.2" y="7.2"/>
  </clipPath>
 </defs>
</svg>
