<?xml version="1.0" encoding="utf-8" standalone="no"?>
<!DOCTYPE svg PUBLIC "-//W3C//DTD SVG 1.1//EN"
  "http://www.w3.org/Graphics/SVG/1.1/DTD/svg11.dtd">
<!-- Created with matplotlib (https://matplotlib.org/) -->
<svg height="568.8pt" version="1.1" viewBox="0 0 314.257504 568.8" width="314.257504pt" xmlns="http://www.w3.org/2000/svg" xmlns:xlink="http://www.w3.org/1999/xlink">
 <metadata>
  <rdf:RDF xmlns:cc="http://creativecommons.org/ns#" xmlns:dc="http://purl.org/dc/elements/1.1/" xmlns:rdf="http://www.w3.org/1999/02/22-rdf-syntax-ns#">
   <cc:Work>
    <dc:type rdf:resource="http://purl.org/dc/dcmitype/StillImage"/>
    <dc:date>2021-04-18T13:15:25.580647</dc:date>
    <dc:format>image/svg+xml</dc:format>
    <dc:creator>
     <cc:Agent>
      <dc:title>Matplotlib v3.3.3, https://matplotlib.org/</dc:title>
     </cc:Agent>
    </dc:creator>
   </cc:Work>
  </rdf:RDF>
 </metadata>
 <defs>
  <style type="text/css">*{stroke-linecap:butt;stroke-linejoin:round;}</style>
 </defs>
 <g id="figure_1">
  <g id="patch_1">
   <path d="M -0 568.8 
L 314.257504 568.8 
L 314.257504 0 
L -0 0 
z
" style="fill:#ffffff;"/>
  </g>
  <g id="axes_1">
   <g id="LineCollection_1">
    <path clip-path="url(#p9ab76a0a05)" d="M 100.525098 220.757593 
L 115.535725 229.780711 
L 111.643806 241.785382 
L 81.592843 296.904865 
L 81.570561 314.019366 
L 87.82437 327.259812 
L 82.617814 338.558325 
L 85.165387 364.941138 
L 92.978935 369.472313 
L 84.994559 390.725679 
L 73.868424 407.114408 
L 65.252725 430.476438 
L 36.382708 478.593197 
L 20.829887 510.04661 
L 56.785573 531.094014 
L 55.166416 536.4 
L 37.808755 533.075177 
L 38.380659 519.952425 
L 69.783394 467.745839 
L 79.067552 456.025594 
L 90.037713 423.856215 
L 109.252207 392.422418 
L 105.984183 387.332202 
L 118.350681 379.329089 
L 126.372194 364.058442 
L 121.284475 357.202833 
L 139.325451 324.856916 
L 152.479246 327.269619 
L 161.889668 323.238639 
L 176.098144 307.340297 
L 181.200717 293.119078 
L 179.091356 281.938258 
L 192.49768 268.374157 
L 197.11005 246.767712 
L 216.428525 215.412376 
L 240.975839 208.085997 
L 268.880304 158.4 
L 270.380624 142.638966 
L 266.652106 132.291804 
L 271.153066 119.227898 
L 283.779521 103.633595 
L 286.995553 81.389647 
L 293.427618 68.031509 
L 279.189433 66.452464 
L 288.822675 45.365829 
L 278.275872 35.469822 
L 263.651466 32.4 
L 259.105943 43.414089 
L 270.14295 59.547817 
L 265.738545 69.93421 
L 233.66735 96.454332 
L 225.920649 112.960753 
L 217.356941 120.16944 
L 215.373845 133.145077 
L 201.083669 142.913583 
L 191.55441 155.771526 
L 193.448378 178.751055 
L 177.026559 201.171542 
L 174.620106 215.726224 
L 146.351702 243.315389 
L 133.413299 261.891243 
L 120.994809 257.22276 
L 87.846652 238.872484 
L 98.928223 221.689328 
" style="fill:none;stroke:#000000;stroke-width:3;"/>
   </g>
  </g>
 </g>
 <defs>
  <clipPath id="p9ab76a0a05">
   <rect height="554.4" width="299.857504" x="7.2" y="7.2"/>
  </clipPath>
 </defs>
</svg>
