<?xml version="1.0" encoding="utf-8" standalone="no"?>
<!DOCTYPE svg PUBLIC "-//W3C//DTD SVG 1.1//EN"
  "http://www.w3.org/Graphics/SVG/1.1/DTD/svg11.dtd">
<!-- Created with matplotlib (https://matplotlib.org/) -->
<svg height="568.8pt" version="1.1" viewBox="0 0 326.317494 568.8" width="326.317494pt" xmlns="http://www.w3.org/2000/svg" xmlns:xlink="http://www.w3.org/1999/xlink">
 <metadata>
  <rdf:RDF xmlns:cc="http://creativecommons.org/ns#" xmlns:dc="http://purl.org/dc/elements/1.1/" xmlns:rdf="http://www.w3.org/1999/02/22-rdf-syntax-ns#">
   <cc:Work>
    <dc:type rdf:resource="http://purl.org/dc/dcmitype/StillImage"/>
    <dc:date>2021-04-18T13:15:26.899252</dc:date>
    <dc:format>image/svg+xml</dc:format>
    <dc:creator>
     <cc:Agent>
      <dc:title>Matplotlib v3.3.3, https://matplotlib.org/</dc:title>
     </cc:Agent>
    </dc:creator>
   </cc:Work>
  </rdf:RDF>
 </metadata>
 <defs>
  <style type="text/css">*{stroke-linecap:butt;stroke-linejoin:round;}</style>
 </defs>
 <g id="figure_1">
  <g id="patch_1">
   <path d="M 0 568.8 
L 326.317494 568.8 
L 326.317494 0 
L 0 0 
z
" style="fill:#ffffff;"/>
  </g>
  <g id="axes_1">
   <g id="LineCollection_1">
    <path clip-path="url(#pf349c94d9a)" d="M 175.150964 164.819872 
L 186.900626 169.548817 
L 180.686931 185.016799 
L 105.701688 319.61274 
L 99.994506 323.870674 
L 101.692392 345.593675 
L 109.59684 355.032724 
L 98.610514 387.683167 
L 77.258518 420.399551 
L 76.245493 428.416149 
L 65.40898 444.628328 
L 56.976618 445.400785 
L 52.895983 463.007155 
L 41.153455 487.914186 
L 33.776922 488.177952 
L 21.378068 521.874038 
L 38.81351 536.4 
L 80.825507 465.682494 
L 91.184043 451.655804 
L 109.710984 406.240978 
L 121.660397 391.611394 
L 143.033795 347.590759 
L 137.833125 341.467624 
L 150.324721 318.406953 
L 158.892628 311.191073 
L 177.269756 311.106291 
L 192.543603 293.829629 
L 194.120212 270.514613 
L 206.918568 256.977773 
L 215.507878 229.28236 
L 231.309639 205.251407 
L 255.286939 197.6964 
L 278.35109 156.077919 
L 281.532844 137.812134 
L 279.756484 120.563732 
L 293.268238 102.929102 
L 296.528466 80.471324 
L 304.939426 66.444634 
L 290.122154 65.088124 
L 299.446263 44.278883 
L 290.771346 35.631132 
L 273.856684 32.4 
L 270.510848 40.501379 
L 278.664985 55.281687 
L 275.704384 67.16057 
L 259.588728 83.278547 
L 249.843714 88.054592 
L 240.234246 106.348637 
L 228.591594 119.075339 
L 227.856794 129.729595 
L 213.225005 139.074442 
L 204.906787 152.121431 
L 207.510688 171.922709 
L 191.416434 193.730492 
L 191.059735 203.480408 
L 171.997746 226.15485 
L 145.89452 250.176382 
L 155.061682 234.388113 
L 105.787296 207.088348 
L 113.634672 183.151598 
L 126.711253 163.953213 
L 136.520473 167.080722 
L 149.682663 146.488146 
L 168.844528 153.581563 
L 173.032173 168.088685 
" style="fill:none;stroke:#000000;stroke-width:3;"/>
   </g>
  </g>
 </g>
 <defs>
  <clipPath id="pf349c94d9a">
   <rect height="554.4" width="311.917494" x="7.2" y="7.2"/>
  </clipPath>
 </defs>
</svg>
