<?xml version="1.0" encoding="utf-8" standalone="no"?>
<!DOCTYPE svg PUBLIC "-//W3C//DTD SVG 1.1//EN"
  "http://www.w3.org/Graphics/SVG/1.1/DTD/svg11.dtd">
<!-- Created with matplotlib (https://matplotlib.org/) -->
<svg height="568.8pt" version="1.1" viewBox="0 0 329.609123 568.8" width="329.609123pt" xmlns="http://www.w3.org/2000/svg" xmlns:xlink="http://www.w3.org/1999/xlink">
 <metadata>
  <rdf:RDF xmlns:cc="http://creativecommons.org/ns#" xmlns:dc="http://purl.org/dc/elements/1.1/" xmlns:rdf="http://www.w3.org/1999/02/22-rdf-syntax-ns#">
   <cc:Work>
    <dc:type rdf:resource="http://purl.org/dc/dcmitype/StillImage"/>
    <dc:date>2021-04-18T13:15:27.039909</dc:date>
    <dc:format>image/svg+xml</dc:format>
    <dc:creator>
     <cc:Agent>
      <dc:title>Matplotlib v3.3.3, https://matplotlib.org/</dc:title>
     </cc:Agent>
    </dc:creator>
   </cc:Work>
  </rdf:RDF>
 </metadata>
 <defs>
  <style type="text/css">*{stroke-linecap:butt;stroke-linejoin:round;}</style>
 </defs>
 <g id="figure_1">
  <g id="patch_1">
   <path d="M 0 568.8 
L 329.609123 568.8 
L 329.609123 0 
L 0 0 
z
" style="fill:#ffffff;"/>
  </g>
  <g id="axes_1">
   <g id="LineCollection_1">
    <path clip-path="url(#pbecd99f055)" d="M 128.05791 130.462466 
L 125.08907 128.513053 
L 117.173919 139.91016 
L 128.738159 153.388963 
L 119.156662 171.77611 
L 89.056943 225.259665 
L 77.155215 248.165275 
L 62.7276 239.720136 
L 52.961538 255.976853 
L 74.792799 268.766399 
L 72.525301 288.7827 
L 67.800467 296.698711 
L 73.759241 315.294724 
L 81.16816 306.633758 
L 93.460108 313.052899 
L 85.555505 335.48508 
L 104.428471 361.321772 
L 83.799512 339.794676 
L 81.505648 350.342396 
L 70.716575 371.542269 
L 27.739577 449.421342 
L 22.719442 455.00502 
L 31.014266 462.245699 
L 30.587133 467.878112 
L 21.527687 483.870266 
L 26.468724 495.434466 
L 29.833058 495.566747 
L 102.113514 536.4 
L 117.74343 510.883568 
L 117.437582 488.813422 
L 113.94669 476.511229 
L 116.172002 467.293288 
L 112.549278 465.135008 
L 120.691178 454.740457 
L 125.800958 436.033048 
L 124.461553 432.489293 
L 135.830682 411.630567 
L 126.871428 406.736147 
L 139.210836 387.49265 
L 162.075654 343.895407 
L 206.223314 264.665668 
L 245.419391 192.801928 
L 257.358032 172.966645 
L 267.361389 152.957307 
L 308.081436 79.784675 
L 251.246333 47.61935 
L 245.946716 48.82381 
L 231.086694 41.861618 
L 224.321112 42.557837 
L 215.941916 35.602608 
L 202.563677 32.4 
L 199.473552 39.814734 
L 206.033477 44.284461 
L 207.024848 55.493589 
L 193.319668 69.710384 
L 182.177288 76.568142 
L 175.148044 90.694429 
L 168.698858 97.336359 
L 168.266451 104.42387 
L 157.419373 111.518343 
L 151.386774 120.541344 
L 152.072296 138.413289 
L 143.007577 147.951491 
L 140.671527 160.344192 
L 125.574209 177.485107 
L 118.935185 182.351679 
L 112.19597 193.588656 
L 107.608241 194.960208 
L 138.651872 137.730994 
L 128.289933 130.60171 
" style="fill:none;stroke:#000000;stroke-width:3;"/>
   </g>
  </g>
 </g>
 <defs>
  <clipPath id="pbecd99f055">
   <rect height="554.4" width="315.209123" x="7.2" y="7.2"/>
  </clipPath>
 </defs>
</svg>
