<?xml version="1.0" encoding="utf-8" standalone="no"?>
<!DOCTYPE svg PUBLIC "-//W3C//DTD SVG 1.1//EN"
  "http://www.w3.org/Graphics/SVG/1.1/DTD/svg11.dtd">
<!-- Created with matplotlib (https://matplotlib.org/) -->
<svg height="568.8pt" version="1.1" viewBox="0 0 320.765903 568.8" width="320.765903pt" xmlns="http://www.w3.org/2000/svg" xmlns:xlink="http://www.w3.org/1999/xlink">
 <metadata>
  <rdf:RDF xmlns:cc="http://creativecommons.org/ns#" xmlns:dc="http://purl.org/dc/elements/1.1/" xmlns:rdf="http://www.w3.org/1999/02/22-rdf-syntax-ns#">
   <cc:Work>
    <dc:type rdf:resource="http://purl.org/dc/dcmitype/StillImage"/>
    <dc:date>2021-04-18T13:15:28.060518</dc:date>
    <dc:format>image/svg+xml</dc:format>
    <dc:creator>
     <cc:Agent>
      <dc:title>Matplotlib v3.3.3, https://matplotlib.org/</dc:title>
     </cc:Agent>
    </dc:creator>
   </cc:Work>
  </rdf:RDF>
 </metadata>
 <defs>
  <style type="text/css">*{stroke-linecap:butt;stroke-linejoin:round;}</style>
 </defs>
 <g id="figure_1">
  <g id="patch_1">
   <path d="M 0 568.8 
L 320.765903 568.8 
L 320.765903 0 
L 0 0 
z
" style="fill:#ffffff;"/>
  </g>
  <g id="axes_1">
   <g id="LineCollection_1">
    <path clip-path="url(#p0daa8f5db4)" d="M 107.156809 279.778277 
L 133.415679 300.544377 
L 131.466237 334.774675 
L 126.289032 345.157725 
L 88.940718 381.6813 
L 81.515796 396.158479 
L 82.527801 419.850967 
L 59.230378 444.795612 
L 50.005153 469.177489 
L 21.125723 501.860179 
L 23.511924 519.03864 
L 52.710935 536.4 
L 78.074979 499.074483 
L 101.809161 503.056059 
L 134.427684 468.938313 
L 135.908407 436.635491 
L 154.358858 416.826095 
L 162.028791 385.170455 
L 187.21174 344.510544 
L 203.648833 333.874248 
L 227.084741 327.951126 
L 263.729978 260.447232 
L 264.507624 210.27656 
L 285.386887 182.166351 
L 291.608056 148.14709 
L 299.64018 131.418843 
L 284.353577 136.638506 
L 278.505253 128.028172 
L 292.822462 99.017536 
L 278.611779 86.256796 
L 255.580674 80.91051 
L 248.379459 94.487262 
L 265.594198 120.23385 
L 259.543473 134.429646 
L 238.54703 153.352684 
L 218.882173 163.63725 
L 203.339905 155.547475 
L 262.845805 47.341462 
L 251.745707 32.4 
L 236.736074 54.460464 
L 221.907536 50.056813 
L 208.63429 68.642191 
L 185.262298 114.141898 
L 144.941884 185.149016 
L 97.345686 274.263161 
L 104.632123 278.061837 
" style="fill:none;stroke:#000000;stroke-width:3;"/>
   </g>
  </g>
 </g>
 <defs>
  <clipPath id="p0daa8f5db4">
   <rect height="554.4" width="306.365903" x="7.2" y="7.2"/>
  </clipPath>
 </defs>
</svg>
