<?xml version="1.0" encoding="utf-8" standalone="no"?>
<!DOCTYPE svg PUBLIC "-//W3C//DTD SVG 1.1//EN"
  "http://www.w3.org/Graphics/SVG/1.1/DTD/svg11.dtd">
<!-- Created with matplotlib (https://matplotlib.org/) -->
<svg height="568.8pt" version="1.1" viewBox="0 0 282.193813 568.8" width="282.193813pt" xmlns="http://www.w3.org/2000/svg" xmlns:xlink="http://www.w3.org/1999/xlink">
 <metadata>
  <rdf:RDF xmlns:cc="http://creativecommons.org/ns#" xmlns:dc="http://purl.org/dc/elements/1.1/" xmlns:rdf="http://www.w3.org/1999/02/22-rdf-syntax-ns#">
   <cc:Work>
    <dc:type rdf:resource="http://purl.org/dc/dcmitype/StillImage"/>
    <dc:date>2021-04-18T13:15:28.875251</dc:date>
    <dc:format>image/svg+xml</dc:format>
    <dc:creator>
     <cc:Agent>
      <dc:title>Matplotlib v3.3.3, https://matplotlib.org/</dc:title>
     </cc:Agent>
    </dc:creator>
   </cc:Work>
  </rdf:RDF>
 </metadata>
 <defs>
  <style type="text/css">*{stroke-linecap:butt;stroke-linejoin:round;}</style>
 </defs>
 <g id="figure_1">
  <g id="patch_1">
   <path d="M 0 568.8 
L 282.193813 568.8 
L 282.193813 0 
L 0 0 
z
" style="fill:#ffffff;"/>
  </g>
  <g id="axes_1">
   <g id="LineCollection_1">
    <path clip-path="url(#p39466f0985)" d="M 101.291657 199.214995 
L 116.926728 206.395656 
L 103.796478 228.196613 
L 85.362427 267.419503 
L 89.997681 277.519514 
L 81.08373 290.138643 
L 80.575635 315.777134 
L 64.378986 331.51573 
L 51.275477 361.227187 
L 29.427383 385.347145 
L 27.644593 392.951582 
L 39.509062 409.361158 
L 39.134676 420.308724 
L 93.866336 451.303282 
L 115.206335 465.558659 
L 101.300571 495.034684 
L 76.198885 536.4 
L 64.619662 536.058624 
L 19.372446 504.710919 
L 47.201802 455.764709 
L 23.160875 446.653509 
L 34.793582 418.495901 
L 59.030615 430.255705 
L 53.842695 417.613033 
L 75.289662 383.381292 
L 93.607831 385.888637 
L 102.96748 381.403667 
L 126.33986 349.761672 
L 125.439551 328.831811 
L 139.710787 315.918393 
L 144.773911 291.362887 
L 169.652749 250.079972 
L 200.807008 239.7563 
L 230.847024 184.971389 
L 233.271618 165.524746 
L 229.144459 152.764358 
L 235.250516 136.119351 
L 249.263247 120.757445 
L 251.589788 95.672218 
L 262.821367 83.830013 
L 258.310907 74.648184 
L 244.60125 72.482214 
L 255.60998 47.208642 
L 243.92379 36.814341 
L 227.47755 32.4 
L 219.811552 44.595352 
L 229.046406 49.445241 
L 231.355119 74.118463 
L 208.624543 95.507416 
L 187.962005 100.239589 
L 153.866141 82.01719 
L 141.288556 103.206026 
L 92.948199 194.365106 
L 99.125567 202.39332 
" style="fill:none;stroke:#000000;stroke-width:3;"/>
   </g>
  </g>
 </g>
 <defs>
  <clipPath id="p39466f0985">
   <rect height="554.4" width="267.793813" x="7.2" y="7.2"/>
  </clipPath>
 </defs>
</svg>
