<?xml version="1.0" encoding="utf-8" standalone="no"?>
<!DOCTYPE svg PUBLIC "-//W3C//DTD SVG 1.1//EN"
  "http://www.w3.org/Graphics/SVG/1.1/DTD/svg11.dtd">
<!-- Created with matplotlib (https://matplotlib.org/) -->
<svg height="568.8pt" version="1.1" viewBox="0 0 243.794728 568.8" width="243.794728pt" xmlns="http://www.w3.org/2000/svg" xmlns:xlink="http://www.w3.org/1999/xlink">
 <metadata>
  <rdf:RDF xmlns:cc="http://creativecommons.org/ns#" xmlns:dc="http://purl.org/dc/elements/1.1/" xmlns:rdf="http://www.w3.org/1999/02/22-rdf-syntax-ns#">
   <cc:Work>
    <dc:type rdf:resource="http://purl.org/dc/dcmitype/StillImage"/>
    <dc:date>2021-04-18T13:15:29.080487</dc:date>
    <dc:format>image/svg+xml</dc:format>
    <dc:creator>
     <cc:Agent>
      <dc:title>Matplotlib v3.3.3, https://matplotlib.org/</dc:title>
     </cc:Agent>
    </dc:creator>
   </cc:Work>
  </rdf:RDF>
 </metadata>
 <defs>
  <style type="text/css">*{stroke-linecap:butt;stroke-linejoin:round;}</style>
 </defs>
 <g id="figure_1">
  <g id="patch_1">
   <path d="M 0 568.8 
L 243.794728 568.8 
L 243.794728 0 
L 0 0 
z
" style="fill:#ffffff;"/>
  </g>
  <g id="axes_1">
   <g id="LineCollection_1">
    <path clip-path="url(#pce3137c875)" d="M 225.856016 38.232174 
L 216.634369 42.418458 
L 197.723557 75.336249 
L 179.652924 112.145137 
L 155.308047 150.322618 
L 154.847304 165.180349 
L 161.683925 174.608434 
L 161.555188 184.063354 
L 169.157456 192.543263 
L 162.246303 209.064774 
L 145.395285 229.003294 
L 147.671901 250.766605 
L 142.96283 256.214142 
L 139.88669 273.093454 
L 130.014581 288.317933 
L 148.119093 301.485049 
L 169.780815 312.07599 
L 166.521732 322.121284 
L 155.999163 332.586994 
L 155.02347 344.591254 
L 133.605671 379.852648 
L 116.314236 413.575493 
L 97.464405 445.83135 
L 59.676658 515.531194 
L 48.903389 532.383672 
L 55.889075 536.4 
L 63.904657 529.109783 
L 36.178737 509.654295 
L 46.728409 486.817578 
L 30.08066 476.530768 
L 17.627033 453.112622 
L 29.86384 424.094874 
L 56.837664 377.509044 
L 64.805818 367.982564 
L 82.097252 330.96794 
L 94.991296 323.767173 
L 92.199732 313.337243 
L 112.33016 320.394889 
L 127.243345 298.712083 
L 124.187531 290.294789 
L 135.902613 286.278461 
L 147.177279 297.30771 
L 146.642003 306.771575 
L 160.037444 274.793014 
L 149.555529 269.166577 
L 170.526136 263.942666 
L 181.651737 239.415334 
L 188.888121 238.046741 
L 188.827141 248.93287 
L 201.016518 249.067045 
L 201.870249 242.617663 
L 191.029224 233.940963 
L 179.165077 232.751271 
L 169.442033 226.453954 
L 175.905994 204.395456 
L 162.076912 196.863723 
L 156.229534 168.74048 
L 151.723734 168.445293 
L 154.257823 142.710379 
L 143.796234 125.750561 
L 158.174143 104.416612 
L 176.326084 73.198381 
L 197.567717 32.4 
L 216.871517 40.361096 
L 226.167695 37.910152 
" style="fill:none;stroke:#000000;stroke-width:3;"/>
   </g>
  </g>
 </g>
 <defs>
  <clipPath id="pce3137c875">
   <rect height="554.4" width="229.394728" x="7.2" y="7.2"/>
  </clipPath>
 </defs>
</svg>
