<?xml version="1.0" encoding="utf-8" standalone="no"?>
<!DOCTYPE svg PUBLIC "-//W3C//DTD SVG 1.1//EN"
  "http://www.w3.org/Graphics/SVG/1.1/DTD/svg11.dtd">
<!-- Created with matplotlib (https://matplotlib.org/) -->
<svg height="568.8pt" version="1.1" viewBox="0 0 220.879743 568.8" width="220.879743pt" xmlns="http://www.w3.org/2000/svg" xmlns:xlink="http://www.w3.org/1999/xlink">
 <metadata>
  <rdf:RDF xmlns:cc="http://creativecommons.org/ns#" xmlns:dc="http://purl.org/dc/elements/1.1/" xmlns:rdf="http://www.w3.org/1999/02/22-rdf-syntax-ns#">
   <cc:Work>
    <dc:type rdf:resource="http://purl.org/dc/dcmitype/StillImage"/>
    <dc:date>2021-04-18T13:15:29.787414</dc:date>
    <dc:format>image/svg+xml</dc:format>
    <dc:creator>
     <cc:Agent>
      <dc:title>Matplotlib v3.3.3, https://matplotlib.org/</dc:title>
     </cc:Agent>
    </dc:creator>
   </cc:Work>
  </rdf:RDF>
 </metadata>
 <defs>
  <style type="text/css">*{stroke-linecap:butt;stroke-linejoin:round;}</style>
 </defs>
 <g id="figure_1">
  <g id="patch_1">
   <path d="M 0 568.8 
L 220.879743 568.8 
L 220.879743 0 
L 0 0 
z
" style="fill:#ffffff;"/>
  </g>
  <g id="axes_1">
   <g id="LineCollection_1">
    <path clip-path="url(#pb40e767dba)" d="M 190.053806 34.623933 
L 184.124596 32.4 
L 172.355224 57.793982 
L 190.194801 68.355213 
L 166.195969 114.881456 
L 118.851336 197.470679 
L 118.502559 228.762491 
L 110.89625 234.229251 
L 113.523209 247.984325 
L 99.757646 292.071099 
L 83.402227 311.126382 
L 72.412038 336.677117 
L 53.125408 372.622533 
L 53.095725 383.742197 
L 67.35106 378.059902 
L 94.637301 400.583345 
L 75.254201 431.796781 
L 69.191416 446.619734 
L 39.263374 504.490973 
L 29.705398 519.274738 
L 55.351644 536.4 
L 62.750171 515.238348 
L 16.585443 488.629531 
L 29.675715 469.544857 
L 39.307899 446.551155 
L 76.048225 379.607838 
L 54.995447 366.16627 
L 37.541751 348.717705 
L 43.775214 340.889853 
L 60.063845 308.422393 
L 82.200059 269.753394 
L 97.063899 256.057103 
L 108.462231 222.247446 
L 118.547083 207.855563 
L 115.140941 197.744997 
L 118.153782 179.208957 
L 115.445194 170.656123 
L 114.680852 115.90035 
L 118.932964 104.957033 
L 143.095053 109.179566 
L 123.793581 96.149475 
L 132.646582 79.641428 
L 175.457114 96.511966 
L 185.76459 83.325122 
L 201.452138 55.873758 
L 204.2943 45.136179 
L 189.957336 37.719804 
" style="fill:none;stroke:#000000;stroke-width:3;"/>
   </g>
  </g>
 </g>
 <defs>
  <clipPath id="pb40e767dba">
   <rect height="554.4" width="206.479743" x="7.2" y="7.2"/>
  </clipPath>
 </defs>
</svg>
