<?xml version="1.0" encoding="utf-8" standalone="no"?>
<!DOCTYPE svg PUBLIC "-//W3C//DTD SVG 1.1//EN"
  "http://www.w3.org/Graphics/SVG/1.1/DTD/svg11.dtd">
<!-- Created with matplotlib (https://matplotlib.org/) -->
<svg height="568.8pt" version="1.1" viewBox="0 0 185.47037 568.8" width="185.47037pt" xmlns="http://www.w3.org/2000/svg" xmlns:xlink="http://www.w3.org/1999/xlink">
 <metadata>
  <rdf:RDF xmlns:cc="http://creativecommons.org/ns#" xmlns:dc="http://purl.org/dc/elements/1.1/" xmlns:rdf="http://www.w3.org/1999/02/22-rdf-syntax-ns#">
   <cc:Work>
    <dc:type rdf:resource="http://purl.org/dc/dcmitype/StillImage"/>
    <dc:date>2021-04-18T13:15:30.087828</dc:date>
    <dc:format>image/svg+xml</dc:format>
    <dc:creator>
     <cc:Agent>
      <dc:title>Matplotlib v3.3.3, https://matplotlib.org/</dc:title>
     </cc:Agent>
    </dc:creator>
   </cc:Work>
  </rdf:RDF>
 </metadata>
 <defs>
  <style type="text/css">*{stroke-linecap:butt;stroke-linejoin:round;}</style>
 </defs>
 <g id="figure_1">
  <g id="patch_1">
   <path d="M 0 568.8 
L 185.47037 568.8 
L 185.47037 0 
L 0 0 
z
" style="fill:#ffffff;"/>
  </g>
  <g id="axes_1">
   <g id="LineCollection_1">
    <path clip-path="url(#p470d98a21d)" d="M 162.540603 32.4 
L 170.409011 36.712993 
L 145.214729 84.065708 
L 137.773488 96.322501 
L 120.87478 127.996219 
L 119.700072 142.682946 
L 125.065284 146.821164 
L 118.418573 162.099871 
L 113.386551 166.63838 
L 104.112766 187.819968 
L 94.343467 201.238168 
L 88.803117 214.639454 
L 71.003088 246.392102 
L 37.248389 308.087634 
L 19.837081 349.458538 
L 14.975926 385.11825 
L 21.315077 381.667856 
L 34.758008 385.168992 
L 38.077092 387.982303 
L 31.460282 401.389228 
L 33.647375 404.535175 
L 23.42528 420.479154 
L 27.363755 426.274915 
L 36.398327 429.612551 
L 43.194547 435.436501 
L 43.74132 427.09241 
L 62.989444 429.308104 
L 71.332006 450.562985 
L 75.646388 455.699111 
L 82.758711 485.51796 
L 88.128194 490.389105 
L 93.664272 505.436658 
L 95.624967 494.2116 
L 93.207204 490.152313 
L 85.868483 488.004273 
L 81.660893 491.668908 
L 73.31833 489.024733 
L 74.147034 495.395559 
L 66.560556 498.665541 
L 71.900138 500.14267 
L 78.98683 508.616433 
L 72.745927 528.34908 
L 79.708742 535.097645 
L 88.88855 536.4 
L 90.434893 533.755825 
L 90.537413 516.757559 
L 68.299124 493.371553 
L 61.374754 484.565155 
L 46.133453 469.900979 
L 22.955397 445.731305 
L 31.357762 433.108049 
L 43.30561 410.466245 
L 51.895929 397.160803 
L 57.068916 380.731965 
L 68.1368 360.807629 
L 82.993652 337.855741 
L 85.599368 325.965412 
L 85.522478 316.572672 
L 102.463903 284.301337 
L 107.448936 280.422462 
L 115.073859 261.039365 
L 135.082339 224.223883 
L 147.828988 219.099032 
L 145.966542 214.397024 
L 151.007107 199.546798 
L 146.568847 196.502332 
L 151.558152 181.251815 
L 157.649547 171.650473 
L 163.476098 155.193445 
L 159.204433 150.356127 
L 147.585503 144.723866 
L 136.49626 134.716595 
L 129.251516 134.643302 
L 125.757294 128.165356 
L 127.97856 118.09043 
L 170.494444 38.793378 
L 164.108305 33.685441 
" style="fill:none;stroke:#000000;stroke-width:3;"/>
   </g>
  </g>
 </g>
 <defs>
  <clipPath id="p470d98a21d">
   <rect height="554.4" width="171.07037" x="7.2" y="7.2"/>
  </clipPath>
 </defs>
</svg>
