<?xml version="1.0" encoding="utf-8" standalone="no"?>
<!DOCTYPE svg PUBLIC "-//W3C//DTD SVG 1.1//EN"
  "http://www.w3.org/Graphics/SVG/1.1/DTD/svg11.dtd">
<!-- Created with matplotlib (https://matplotlib.org/) -->
<svg height="568.8pt" version="1.1" viewBox="0 0 374.175326 568.8" width="374.175326pt" xmlns="http://www.w3.org/2000/svg" xmlns:xlink="http://www.w3.org/1999/xlink">
 <metadata>
  <rdf:RDF xmlns:cc="http://creativecommons.org/ns#" xmlns:dc="http://purl.org/dc/elements/1.1/" xmlns:rdf="http://www.w3.org/1999/02/22-rdf-syntax-ns#">
   <cc:Work>
    <dc:type rdf:resource="http://purl.org/dc/dcmitype/StillImage"/>
    <dc:date>2021-04-18T13:15:30.740791</dc:date>
    <dc:format>image/svg+xml</dc:format>
    <dc:creator>
     <cc:Agent>
      <dc:title>Matplotlib v3.3.3, https://matplotlib.org/</dc:title>
     </cc:Agent>
    </dc:creator>
   </cc:Work>
  </rdf:RDF>
 </metadata>
 <defs>
  <style type="text/css">*{stroke-linecap:butt;stroke-linejoin:round;}</style>
 </defs>
 <g id="figure_1">
  <g id="patch_1">
   <path d="M 0 568.8 
L 374.175326 568.8 
L 374.175326 0 
L 0 0 
z
" style="fill:#ffffff;"/>
  </g>
  <g id="axes_1">
   <g id="LineCollection_1">
    <path clip-path="url(#p715eb03919)" d="M 85.352318 32.4 
L 87.953438 34.232448 
L 78.882119 51.357914 
L 72.695023 61.719161 
L 69.610054 68.08522 
L 67.165071 71.089529 
L 67.779319 73.582562 
L 67.219976 79.315182 
L 64.4061 85.251408 
L 65.051232 87.631327 
L 59.572753 98.906535 
L 58.49696 99.214206 
L 55.592148 105.410593 
L 52.580957 110.328792 
L 51.146567 114.165621 
L 44.288602 125.56073 
L 37.362006 138.808647 
L 41.701208 141.426106 
L 41.591399 143.362619 
L 46.218852 145.943881 
L 41.141865 156.517782 
L 39.968273 157.112762 
L 32.151188 169.568881 
L 38.032875 173.803871 
L 32.657342 182.895978 
L 29.436827 187.359458 
L 23.553424 197.349691 
L 25.058161 199.510169 
L 28.180877 197.82477 
L 37.881887 207.953002 
L 41.334032 212.004747 
L 54.195504 225.030961 
L 56.11546 227.528519 
L 55.562979 234.351558 
L 62.583943 235.16598 
L 62.84131 237.977995 
L 66.144183 243.83504 
L 67.192523 248.431995 
L 69.083311 251.074339 
L 77.198941 266.161491 
L 79.039971 268.604754 
L 82.521284 275.807857 
L 86.519047 282.900108 
L 86.985739 287.392998 
L 89.555974 288.216468 
L 103.783206 314.669319 
L 106.288242 332.695174 
L 108.479291 343.671761 
L 108.717784 352.515017 
L 109.513905 356.392567 
L 117.09936 366.620339 
L 128.975976 381.144183 
L 144.965311 401.479826 
L 163.629545 423.448837 
L 184.426491 448.14842 
L 204.353537 472.381974 
L 228.712439 501.060909 
L 235.139743 515.501049 
L 239.034559 523.342114 
L 237.596737 525.133841 
L 242.423221 536.4 
L 243.917664 536.114953 
L 245.587116 532.893465 
L 251.139374 530.361972 
L 254.179732 531.461441 
L 260.588164 529.131291 
L 267.176751 525.464134 
L 266.29141 523.857914 
L 272.929755 519.935119 
L 302.633305 503.834466 
L 318.157665 496.968443 
L 324.694779 494.749145 
L 339.972067 488.751839 
L 339.977215 487.525682 
L 349.376247 482.976235 
L 350.462334 481.96952 
L 350.621902 478.239019 
L 349.307616 478.130429 
L 346.860916 473.841145 
L 344.131113 461.027585 
L 345.791986 457.740491 
L 344.345586 455.751946 
L 347.425407 428.738049 
L 345.474567 422.335794 
L 339.356103 412.951853 
L 336.116714 405.769111 
L 330.044575 377.814105 
L 327.146626 370.30107 
L 323.18661 363.312884 
L 317.551995 349.151005 
L 305.960199 288.621416 
L 305.716558 281.37533 
L 304.458893 276.022774 
L 303.588993 268.767639 
L 299.064487 256.248176 
L 295.373848 251.053979 
L 290.384365 239.253921 
L 289.499024 234.396804 
L 289.682612 229.306672 
L 285.437777 222.906679 
L 284.3963 216.972716 
L 279.228376 211.751372 
L 278.620991 209.923449 
L 275.240908 212.389335 
L 268.444711 201.795073 
L 265.912223 202.073334 
L 259.44374 204.783546 
L 257.132586 197.637001 
L 255.758248 185.683108 
L 252.946088 177.278735 
L 252.484544 173.344628 
L 258.223821 162.379352 
L 257.333333 155.413789 
L 259.167499 149.654022 
L 251.328109 146.434796 
L 246.788161 142.349117 
L 243.613971 141.335615 
L 225.850521 137.064428 
L 211.667899 133.32714 
L 150.955093 123.882117 
L 142.942409 113.206413 
L 130.813574 106.028196 
L 118.490856 99.216468 
L 114.29921 95.130789 
L 105.529868 89.837051 
L 97.999318 88.828074 
L 96.848031 89.87551 
L 94.034155 89.02263 
L 94.106218 87.10874 
L 88.178205 83.314895 
L 86.594542 85.952715 
L 84.556197 84.486757 
L 86.002598 80.496093 
L 82.468095 78.702104 
L 81.766342 79.530099 
L 77.011921 77.453325 
L 68.451904 72.299849 
L 69.160521 70.137109 
L 83.698308 43.267998 
L 88.475034 34.822903 
L 85.251087 32.623966 
L 85.251087 32.623966 
" style="fill:none;stroke:#000000;stroke-width:3;"/>
   </g>
  </g>
 </g>
 <defs>
  <clipPath id="p715eb03919">
   <rect height="554.4" width="359.775326" x="7.2" y="7.2"/>
  </clipPath>
 </defs>
</svg>
