<?xml version="1.0" encoding="utf-8" standalone="no"?>
<!DOCTYPE svg PUBLIC "-//W3C//DTD SVG 1.1//EN"
  "http://www.w3.org/Graphics/SVG/1.1/DTD/svg11.dtd">
<!-- Created with matplotlib (https://matplotlib.org/) -->
<svg height="568.8pt" version="1.1" viewBox="0 0 267.596846 568.8" width="267.596846pt" xmlns="http://www.w3.org/2000/svg" xmlns:xlink="http://www.w3.org/1999/xlink">
 <metadata>
  <rdf:RDF xmlns:cc="http://creativecommons.org/ns#" xmlns:dc="http://purl.org/dc/elements/1.1/" xmlns:rdf="http://www.w3.org/1999/02/22-rdf-syntax-ns#">
   <cc:Work>
    <dc:type rdf:resource="http://purl.org/dc/dcmitype/StillImage"/>
    <dc:date>2021-04-18T13:15:31.060507</dc:date>
    <dc:format>image/svg+xml</dc:format>
    <dc:creator>
     <cc:Agent>
      <dc:title>Matplotlib v3.3.3, https://matplotlib.org/</dc:title>
     </cc:Agent>
    </dc:creator>
   </cc:Work>
  </rdf:RDF>
 </metadata>
 <defs>
  <style type="text/css">*{stroke-linecap:butt;stroke-linejoin:round;}</style>
 </defs>
 <g id="figure_1">
  <g id="patch_1">
   <path d="M 0 568.8 
L 267.596846 568.8 
L 267.596846 0 
L 0 0 
z
" style="fill:#ffffff;"/>
  </g>
  <g id="axes_1">
   <g id="LineCollection_1">
    <path clip-path="url(#pf4b91c3cfd)" d="M 177.942304 105.240201 
L 185.091525 109.704467 
L 186.951581 107.212784 
L 206.295374 115.596259 
L 212.021043 125.900407 
L 217.880415 131.95312 
L 216.456863 135.529724 
L 194.78505 174.965799 
L 167.304988 223.102001 
L 145.955637 265.216636 
L 139.59291 274.929009 
L 122.640055 305.810306 
L 114.039755 320.028472 
L 107.641635 333.831358 
L 87.825945 367.349686 
L 77.432442 388.913127 
L 72.505063 394.161234 
L 56.739813 418.527818 
L 58.39538 421.450355 
L 52.189951 432.278794 
L 52.162424 439.027102 
L 58.599869 448.204802 
L 53.727545 457.143715 
L 57.939214 461.457441 
L 54.24663 468.247277 
L 52.689374 477.170617 
L 47.309763 483.84106 
L 34.379819 489.167033 
L 28.740665 493.802602 
L 22.248166 503.146413 
L 18.708948 513.772403 
L 30.305786 519.498083 
L 29.837822 525.576752 
L 24.819998 529.033962 
L 28.264837 536.4 
L 34.725876 532.184903 
L 32.614142 527.663536 
L 41.359944 520.401318 
L 60.562168 499.424462 
L 76.527975 476.786483 
L 86.197905 457.226771 
L 91.48707 441.010067 
L 102.572688 402.690058 
L 105.636078 395.786019 
L 96.288609 393.076314 
L 97.208806 391.088159 
L 87.786621 384.687648 
L 101.868777 363.337038 
L 104.928234 356.521247 
L 85.183329 345.03355 
L 104.715881 310.072122 
L 115.361063 288.472345 
L 126.348369 270.225957 
L 142.54619 240.112929 
L 148.787012 230.519949 
L 160.387782 207.534173 
L 157.253608 201.813684 
L 166.247155 187.398259 
L 174.430613 188.291112 
L 178.917556 186.204328 
L 189.350384 171.996543 
L 188.111658 166.167043 
L 195.194027 156.958198 
L 197.341152 146.49832 
L 208.363851 128.13254 
L 220.719654 125.381306 
L 234.125426 102.094452 
L 236.370864 88.976778 
L 234.758553 82.986357 
L 243.111108 71.093762 
L 245.31722 58.059145 
L 248.887898 51.077241 
L 243.209419 53.091351 
L 241.667893 49.62895 
L 246.343594 38.675927 
L 241.369026 34.299908 
L 234.192278 32.4 
L 230.464302 37.549478 
L 236.465243 46.882908 
L 233.873748 52.349038 
L 226.032414 59.99539 
L 219.571375 63.104803 
L 213.696273 74.011107 
L 208.320593 79.139821 
L 207.317815 86.241118 
L 198.898408 91.650147 
L 194.997403 97.734006 
L 196.011979 107.098582 
L 194.073274 113.410845 
L 188.013346 119.427222 
L 187.07742 110.997028 
L 178.4142 105.229819 
" style="fill:none;stroke:#000000;stroke-width:3;"/>
   </g>
  </g>
 </g>
 <defs>
  <clipPath id="pf4b91c3cfd">
   <rect height="554.4" width="253.196846" x="7.2" y="7.2"/>
  </clipPath>
 </defs>
</svg>
