<?xml version="1.0" encoding="utf-8" standalone="no"?>
<!DOCTYPE svg PUBLIC "-//W3C//DTD SVG 1.1//EN"
  "http://www.w3.org/Graphics/SVG/1.1/DTD/svg11.dtd">
<!-- Created with matplotlib (https://matplotlib.org/) -->
<svg height="568.8pt" version="1.1" viewBox="0 0 222.752328 568.8" width="222.752328pt" xmlns="http://www.w3.org/2000/svg" xmlns:xlink="http://www.w3.org/1999/xlink">
 <metadata>
  <rdf:RDF xmlns:cc="http://creativecommons.org/ns#" xmlns:dc="http://purl.org/dc/elements/1.1/" xmlns:rdf="http://www.w3.org/1999/02/22-rdf-syntax-ns#">
   <cc:Work>
    <dc:type rdf:resource="http://purl.org/dc/dcmitype/StillImage"/>
    <dc:date>2021-04-18T13:15:32.071316</dc:date>
    <dc:format>image/svg+xml</dc:format>
    <dc:creator>
     <cc:Agent>
      <dc:title>Matplotlib v3.3.3, https://matplotlib.org/</dc:title>
     </cc:Agent>
    </dc:creator>
   </cc:Work>
  </rdf:RDF>
 </metadata>
 <defs>
  <style type="text/css">*{stroke-linecap:butt;stroke-linejoin:round;}</style>
 </defs>
 <g id="figure_1">
  <g id="patch_1">
   <path d="M 0 568.8 
L 222.752328 568.8 
L 222.752328 0 
L 0 0 
z
" style="fill:#ffffff;"/>
  </g>
  <g id="axes_1">
   <g id="LineCollection_1">
    <path clip-path="url(#p2f27840da5)" d="M 195.705233 32.768485 
L 205.936132 39.016717 
L 196.160344 59.01907 
L 143.68299 152.526262 
L 141.025141 161.177659 
L 132.972707 167.954588 
L 132.104962 202.536148 
L 121.066998 224.084537 
L 124.14355 226.399587 
L 119.09485 240.858636 
L 102.722984 270.609832 
L 83.911721 298.558653 
L 65.8165 334.726303 
L 49.207976 363.067641 
L 35.044916 391.689349 
L 16.67056 424.204186 
L 26.919664 447.514897 
L 44.250298 458.064796 
L 41.471086 464.873767 
L 56.914526 475.527803 
L 52.193506 487.551644 
L 39.037758 507.994577 
L 49.790518 515.620624 
L 98.827232 536.4 
L 94.464233 533.163736 
L 98.347848 520.955653 
L 93.560078 515.676698 
L 76.739169 507.570018 
L 64.008192 498.021438 
L 83.911721 463.455899 
L 87.625428 450.086285 
L 84.967579 433.23208 
L 88.984694 424.556651 
L 81.963845 418.708947 
L 53.710543 403.008262 
L 58.953424 388.605286 
L 74.402931 362.266586 
L 110.150398 296.147477 
L 99.992316 310.542442 
L 111.813071 304.622643 
L 122.493013 276.994243 
L 108.924632 292.622833 
L 122.27456 273.597768 
L 125.508884 251.62482 
L 132.881685 243.149654 
L 144.119897 223.291492 
L 151.413812 200.437383 
L 162.773388 185.169267 
L 139.920738 174.475178 
L 140.023896 166.144203 
L 148.264443 145.829439 
L 168.762651 110.807299 
L 206.081768 40.522701 
L 195.474643 32.4 
" style="fill:none;stroke:#000000;stroke-width:3;"/>
   </g>
  </g>
 </g>
 <defs>
  <clipPath id="p2f27840da5">
   <rect height="554.4" width="208.352328" x="7.2" y="7.2"/>
  </clipPath>
 </defs>
</svg>
