<?xml version="1.0" encoding="utf-8" standalone="no"?>
<!DOCTYPE svg PUBLIC "-//W3C//DTD SVG 1.1//EN"
  "http://www.w3.org/Graphics/SVG/1.1/DTD/svg11.dtd">
<!-- Created with matplotlib (https://matplotlib.org/) -->
<svg height="568.8pt" version="1.1" viewBox="0 0 565.039832 568.8" width="565.039832pt" xmlns="http://www.w3.org/2000/svg" xmlns:xlink="http://www.w3.org/1999/xlink">
 <metadata>
  <rdf:RDF xmlns:cc="http://creativecommons.org/ns#" xmlns:dc="http://purl.org/dc/elements/1.1/" xmlns:rdf="http://www.w3.org/1999/02/22-rdf-syntax-ns#">
   <cc:Work>
    <dc:type rdf:resource="http://purl.org/dc/dcmitype/StillImage"/>
    <dc:date>2021-04-18T13:15:32.547608</dc:date>
    <dc:format>image/svg+xml</dc:format>
    <dc:creator>
     <cc:Agent>
      <dc:title>Matplotlib v3.3.3, https://matplotlib.org/</dc:title>
     </cc:Agent>
    </dc:creator>
   </cc:Work>
  </rdf:RDF>
 </metadata>
 <defs>
  <style type="text/css">*{stroke-linecap:butt;stroke-linejoin:round;}</style>
 </defs>
 <g id="figure_1">
  <g id="patch_1">
   <path d="M 0 568.8 
L 565.039832 568.8 
L 565.039832 0 
L 0 0 
z
" style="fill:#ffffff;"/>
  </g>
  <g id="axes_1">
   <g id="LineCollection_1">
    <path clip-path="url(#p055dca96b0)" d="M 406.285302 72.158737 
L 377.443552 56.336223 
L 371.30877 64.885987 
L 394.878626 85.271489 
L 389.323043 92.980292 
L 311.131168 32.4 
L 306.473935 41.12107 
L 381.202436 102.495603 
L 374.015639 110.188833 
L 284.677137 38.878509 
L 276.698374 47.023366 
L 367.041609 119.26809 
L 355.079375 123.940092 
L 258.270387 45.590619 
L 252.194707 54.171529 
L 267.726699 68.670309 
L 353.873696 135.744684 
L 346.805103 144.932954 
L 221.0007 44.220165 
L 212.19451 50.527368 
L 232.194609 68.545722 
L 330.693912 145.197701 
L 335.268403 162.406242 
L 300.24459 137.021698 
L 204.594 60.151692 
L 200.019509 70.570256 
L 326.036679 171.921552 
L 319.878256 179.972969 
L 191.898902 79.275753 
L 184.215648 85.442796 
L 311.781289 188.818626 
L 307.088595 197.477403 
L 150.693025 74.821778 
L 155.515743 94.070426 
L 296.828497 205.90258 
L 280.315413 207.273034 
L 137.702417 93.899119 
L 136.413994 107.167605 
L 284.204321 224.855335 
L 278.235025 233.280512 
L 122.962391 110.796193 
L 126.55579 127.630974 
L 269.960752 241.861422 
L 264.570655 250.551346 
L 237.572886 233.078058 
L 230.397909 239.977048 
L 205.681475 220.712826 
L 211.438005 210.932769 
L 187.501717 191.185774 
L 179.487493 198.474097 
L 153.967272 179.941822 
L 158.801812 167.732324 
L 128.009698 159.291574 
L 132.501445 146.692742 
L 108.387851 127.023613 
L 95.184477 146.007515 
L 248.364901 269.5041 
L 242.584731 279.330878 
L 208.175578 255.456948 
L 89.073335 157.095733 
L 91.874768 173.8215 
L 235.977133 287.024108 
L 230.066938 295.293551 
L 72.773018 173.525606 
L 67.96212 182.231103 
L 221.071622 304.497395 
L 214.61769 312.642252 
L 60.184304 190.84316 
L 54.167726 199.704391 
L 207.359971 321.814949 
L 201.059703 330.4893 
L 72.406586 228.639656 
L 66.7328 239.945901 
L 193.494654 341.266051 
L 187.726304 349.192881 
L 52.099158 243.979396 
L 44.640492 251.205426 
L 178.600964 357.867231 
L 171.922444 366.230115 
L 37.205467 259.319136 
L 32.229083 269.192634 
L 158.860913 370.481636 
L 159.36919 384.155029 
L 55.940784 303.204808 
L 49.959667 311.053771 
L 150.811228 392.471192 
L 145.007417 401.36357 
L 42.796511 320.787109 
L 35.526972 328.091005 
L 137.395087 409.726453 
L 129.00261 417.82459 
L 54.545978 358.941792 
L 49.179521 368.285796 
L 71.945591 386.02383 
L 65.739887 396.457967 
L 92.122996 417.653283 
L 100.799161 408.885493 
L 123.789819 427.838247 
L 119.558119 440.265773 
L 224.487715 522.524154 
L 232.974754 515.687458 
L 256.934683 533.674666 
L 264.239684 526.106022 
L 235.788007 507.059828 
L 237.69109 477.999975 
L 216.1307 498.837104 
L 216.627156 481.581843 
L 162.241545 444.641881 
L 166.579628 433.58481 
L 220.244195 475.570534 
L 226.248953 467.939598 
L 172.820793 422.917072 
L 179.664799 415.628749 
L 284.558933 498.790384 
L 279.440704 507.418014 
L 257.230193 491.688941 
L 250.173421 499.413318 
L 297.549541 536.4 
L 317.726945 511.124469 
L 186.118731 406.284745 
L 193.210965 397.719408 
L 351.296851 522.259407 
L 356.261414 513.258017 
L 200.598708 389.231938 
L 206.709849 380.900201 
L 364.228357 505.004147 
L 371.32059 497.70025 
L 214.452204 371.47833 
L 220.977059 362.6171 
L 403.980326 508.149961 
L 411.498093 498.16745 
L 228.695773 352.369842 
L 236.343565 344.801199 
L 417.230982 489.088193 
L 427.810231 482.376084 
L 242.407425 335.581782 
L 249.712425 327.250045 
L 427.278313 469.465785 
L 439.228727 463.641356 
L 256.402766 318.575694 
L 261.981989 309.449717 
L 445.339868 454.608819 
L 452.39664 447.102469 
L 270.114417 300.41718 
L 286.450195 305.961289 
L 297.254031 294.343578 
L 314.890052 326.860711 
L 330.114713 320.833829 
L 330.043791 337.201409 
L 457.621252 435.858517 
L 466.983001 429.006248 
L 366.308745 349.255174 
L 370.871415 336.578475 
L 290.977404 272.463035 
L 299.027089 264.146871 
L 403.282923 349.442054 
L 398.63751 359.066378 
L 422.491055 377.832253 
L 431.699139 369.952143 
L 455.954577 391.490072 
L 450.694504 401.316849 
L 477.574069 419.023737 
L 488.685235 400.740636 
L 333.589908 279.766931 
L 304.972745 255.020894 
L 312.892406 247.171931 
L 376.415178 298.859846 
L 495.919313 392.455619 
L 502.113197 383.485375 
L 344.996583 259.646176 
L 317.384154 240.226221 
L 325.76481 229.106857 
L 399.453117 288.752749 
L 509.571863 375.356092 
L 516.735019 366.307981 
L 492.16043 347.059333 
L 496.687639 335.768662 
L 472.396739 317.298681 
L 465.269044 324.10423 
L 391.261587 267.074659 
L 333.093451 219.716133 
L 338.448088 211.976183 
L 364.133794 230.586324 
L 371.356051 221.491493 
L 348.306292 203.535432 
L 352.47889 193.739802 
L 408.578457 235.164886 
L 432.36108 257.683935 
L 425.859866 264.878818 
L 400.327825 248.153051 
L 396.037024 253.681587 
L 445.446251 295.355845 
L 466.072831 270.282767 
L 442.006518 250.909532 
L 447.337514 240.833582 
L 499.1581 282.102932 
L 481.191108 305.478516 
L 505.564751 328.028712 
L 532.810748 294.250138 
L 400.398748 188.055533 
L 393.826611 194.954522 
L 420.777099 218.641572 
L 413.909453 227.440509 
L 360.38673 185.626092 
L 380.43411 158.52848 
L 529.772908 276.07605 
L 528.886379 262.433804 
L 501.132105 226.786429 
L 475.363657 205.123913 
L 480.115453 195.546309 
L 462.952248 181.56145 
L 456.95931 202.834632 
L 388.802946 149.091036 
L 394.003917 140.587992 
L 447.467538 182.86961 
L 455.493582 176.484541 
L 401.97086 132.894763 
L 408.602098 124.095825 
L 514.560067 207.226314 
L 519.583733 199.906844 
L 497.987882 179.848382 
L 416.190788 114.487075 
L 421.840934 107.525792 
L 475.552783 148.343516 
L 482.893245 140.385539 
L 430.20977 96.967067 
L 434.843362 88.30829 
L 407.420059 71.177616 
L 407.420059 71.177616 
" style="fill:none;stroke:#000000;stroke-width:3;"/>
   </g>
  </g>
 </g>
 <defs>
  <clipPath id="p055dca96b0">
   <rect height="554.4" width="550.639832" x="7.2" y="7.2"/>
  </clipPath>
 </defs>
</svg>
