<?xml version="1.0" encoding="utf-8" standalone="no"?>
<!DOCTYPE svg PUBLIC "-//W3C//DTD SVG 1.1//EN"
  "http://www.w3.org/Graphics/SVG/1.1/DTD/svg11.dtd">
<!-- Created with matplotlib (https://matplotlib.org/) -->
<svg height="568.8pt" version="1.1" viewBox="0 0 290.29883 568.8" width="290.29883pt" xmlns="http://www.w3.org/2000/svg" xmlns:xlink="http://www.w3.org/1999/xlink">
 <metadata>
  <rdf:RDF xmlns:cc="http://creativecommons.org/ns#" xmlns:dc="http://purl.org/dc/elements/1.1/" xmlns:rdf="http://www.w3.org/1999/02/22-rdf-syntax-ns#">
   <cc:Work>
    <dc:type rdf:resource="http://purl.org/dc/dcmitype/StillImage"/>
    <dc:date>2021-04-18T13:15:32.750906</dc:date>
    <dc:format>image/svg+xml</dc:format>
    <dc:creator>
     <cc:Agent>
      <dc:title>Matplotlib v3.3.3, https://matplotlib.org/</dc:title>
     </cc:Agent>
    </dc:creator>
   </cc:Work>
  </rdf:RDF>
 </metadata>
 <defs>
  <style type="text/css">*{stroke-linecap:butt;stroke-linejoin:round;}</style>
 </defs>
 <g id="figure_1">
  <g id="patch_1">
   <path d="M 0 568.8 
L 290.29883 568.8 
L 290.29883 0 
L 0 0 
z
" style="fill:#ffffff;"/>
  </g>
  <g id="axes_1">
   <g id="LineCollection_1">
    <path clip-path="url(#pba577a21d0)" d="M 199.1876 106.404237 
L 207.530765 107.409687 
L 226.455025 115.613952 
L 239.301535 133.613582 
L 203.333662 197.869099 
L 188.017575 226.099443 
L 186.451024 231.541312 
L 176.058385 245.648709 
L 171.284132 257.061086 
L 167.193037 260.911857 
L 165.763902 267.55612 
L 149.796067 292.04453 
L 145.720676 301.798433 
L 142.964487 303.379166 
L 139.057923 316.51221 
L 133.498431 324.581725 
L 102.638538 381.156432 
L 95.653837 391.6411 
L 97.452034 394.08735 
L 69.933333 437.73114 
L 65.060925 433.258441 
L 62.481415 436.596121 
L 60.479056 451.465381 
L 54.821409 462.623804 
L 65.724452 469.418366 
L 56.380108 487.552747 
L 50.62038 494.65309 
L 46.285861 496.156083 
L 45.897167 501.012303 
L 55.378928 506.677029 
L 52.391094 513.160628 
L 60.345565 519.457648 
L 55.838293 521.318249 
L 48.837887 531.27946 
L 33.698479 536.4 
L 31.146452 526.117459 
L 19.740856 526.107093 
L 25.908908 507.449257 
L 29.666277 491.802587 
L 30.675309 479.960044 
L 35.4103 465.588327 
L 43.26269 417.964198 
L 44.813537 403.105304 
L 48.351039 352.926088 
L 47.856339 346.001958 
L 50.993368 337.424536 
L 55.304331 314.921111 
L 59.521064 318.631948 
L 72.40291 323.021722 
L 84.845022 330.220538 
L 81.774738 336.284335 
L 91.868985 341.762483 
L 89.289475 349.645419 
L 99.340534 356.211941 
L 110.856064 360.746832 
L 128.300149 371.475088 
L 131.841577 372.387249 
L 142.791735 354.916258 
L 145.88165 353.262966 
L 138.296241 346.665348 
L 147.781929 331.148247 
L 155.390895 315.252806 
L 162.878149 304.177307 
L 176.525603 278.527964 
L 182.7604 275.050351 
L 181.704254 268.862168 
L 186.94965 262.751727 
L 197.746687 239.403517 
L 207.668182 223.394056 
L 181.433346 208.555893 
L 178.716419 205.171569 
L 185.390951 190.820583 
L 190.934738 186.715859 
L 200.13774 186.695128 
L 210.860178 172.732847 
L 209.68232 164.196886 
L 215.783627 157.827308 
L 220.436168 142.92177 
L 228.166846 130.400288 
L 234.68433 126.191909 
L 240.76208 126.26965 
L 244.605825 122.356687 
L 256.66317 101.211139 
L 258.300393 90.42069 
L 256.160617 83.180413 
L 264.225021 71.503716 
L 266.121373 58.961504 
L 270.557974 55.343957 
L 269.093503 51.358435 
L 261.845747 50.596574 
L 267.248191 39.194562 
L 262.124507 34.727047 
L 254.491984 32.4 
L 250.766025 35.343792 
L 257.067568 48.544212 
L 246.415801 60.666623 
L 238.779351 64.755799 
L 234.927754 73.177739 
L 229.152321 78.697349 
L 227.381607 87.419888 
L 219.611667 91.731921 
L 215.131878 99.583761 
L 216.61598 110.042515 
L 208.429863 119.827514 
L 207.695665 110.980589 
L 199.419246 105.994801 
" style="fill:none;stroke:#000000;stroke-width:3;"/>
   </g>
  </g>
 </g>
 <defs>
  <clipPath id="pba577a21d0">
   <rect height="554.4" width="275.89883" x="7.2" y="7.2"/>
  </clipPath>
 </defs>
</svg>
