<?xml version="1.0" encoding="utf-8" standalone="no"?>
<!DOCTYPE svg PUBLIC "-//W3C//DTD SVG 1.1//EN"
  "http://www.w3.org/Graphics/SVG/1.1/DTD/svg11.dtd">
<svg height="568.8pt" version="1.1" viewBox="0 0 292.253557 568.8" width="292.253557pt" xmlns="http://www.w3.org/2000/svg" xmlns:xlink="http://www.w3.org/1999/xlink">
 <metadata>
  <rdf:RDF xmlns:cc="http://creativecommons.org/ns#" xmlns:dc="http://purl.org/dc/elements/1.1/" xmlns:rdf="http://www.w3.org/1999/02/22-rdf-syntax-ns#">
   <cc:Work>
    <dc:type rdf:resource="http://purl.org/dc/dcmitype/StillImage"/>
    <dc:date>2021-04-18T17:51:04.631962</dc:date>
    <dc:format>image/svg+xml</dc:format>
    <dc:creator>
     <cc:Agent>
      <dc:title>Matplotlib v3.4.1, https://matplotlib.org/</dc:title>
     </cc:Agent>
    </dc:creator>
   </cc:Work>
  </rdf:RDF>
 </metadata>
 <defs>
  <style type="text/css">*{stroke-linecap:butt;stroke-linejoin:round;}</style>
 </defs>
 <g id="figure_1">
  <g id="patch_1">
   <path d="M 0 568.8 
L 292.253557 568.8 
L 292.253557 0 
L 0 0 
z
" style="fill:#ffffff;"/>
  </g>
  <g id="axes_1">
   <g id="LineCollection_1">
    <path clip-path="url(#p99f24e21c5)" d="M 200.999926 105.168513 
L 208.546738 108.686335 
L 209.898696 106.027397 
L 218.707854 108.814911 
L 230.485867 115.9277 
L 233.536539 122.788481 
L 242.361282 132.627068 
L 250.882127 136.510044 
L 248.637954 149.064143 
L 244.476883 154.556882 
L 229.324819 183.033754 
L 220.281892 197.778777 
L 203.528517 228.734582 
L 203.185657 231.691815 
L 189.377759 254.470227 
L 186.050461 255.123389 
L 169.312671 288.372979 
L 165.073677 299.039591 
L 156.034647 311.907413 
L 135.657867 354.059561 
L 126.607149 365.852493 
L 126.104547 375.824799 
L 116.399278 394.257363 
L 100.947212 417.827799 
L 93.735468 426.936078 
L 89.161407 435.941496 
L 70.039183 463.857779 
L 63.867707 477.625629 
L 52.214371 493.466114 
L 37.732442 518.003437 
L 28.993414 516.943976 
L 19.829707 519.073184 
L 31.880449 520.497799 
L 33.353187 529.976375 
L 43.572746 536.4 
L 54.879326 533.679345 
L 90.583496 505.253904 
L 97.21082 501.077776 
L 104.49659 501.149778 
L 124.444794 492.699805 
L 132.501999 497.703958 
L 136.838396 493.944415 
L 144.36183 493.532973 
L 166.842522 489.480278 
L 175.184144 485.484156 
L 172.795814 481.570322 
L 166.421739 481.359458 
L 165.026924 471.227719 
L 143.002079 461.903434 
L 148.589135 447.096695 
L 142.363114 443.830881 
L 147.096916 431.58022 
L 136.121507 424.698866 
L 138.373473 419.375846 
L 157.967129 382.747296 
L 145.472228 374.713908 
L 130.608478 367.163962 
L 132.76304 356.888219 
L 120.946066 350.145727 
L 109.043378 341.474604 
L 118.721374 324.898668 
L 139.631924 286.418633 
L 150.47876 268.145502 
L 155.01386 255.663406 
L 160.511305 249.604935 
L 161.937289 240.969813 
L 168.136038 233.034142 
L 170.095794 226.435654 
L 175.48025 221.837799 
L 183.097192 208.296242 
L 179.82444 205.565301 
L 187.308912 188.706499 
L 192.24921 184.962385 
L 199.784333 186.59272 
L 210.331167 175.406663 
L 212.851965 160.116481 
L 217.729925 156.367223 
L 222.635157 140.542168 
L 231.70146 126.928608 
L 241.963877 125.380561 
L 244.819743 122.773052 
L 257.5601 99.454624 
L 258.853616 89.852616 
L 257.330228 81.67008 
L 265.114703 71.517769 
L 267.729009 57.868208 
L 272.42385 52.231464 
L 263.310793 51.244005 
L 268.983564 39.71851 
L 264.428984 34.945792 
L 256.0484 32.4 
L 252.218501 37.018427 
L 257.010745 41.69857 
L 258.292573 49.541668 
L 249.109386 59.03053 
L 240.67036 64.322692 
L 236.111884 73.518402 
L 231.007949 78.229403 
L 229.858589 85.69706 
L 221.575409 91.107511 
L 217.00914 101.172391 
L 218.294864 108.197749 
L 211.620787 115.022529 
L 209.216873 109.95666 
L 201.14798 104.967936 
" style="fill:none;stroke:#000000;stroke-width:3;"/>
   </g>
  </g>
 </g>
 <defs>
  <clipPath id="p99f24e21c5">
   <rect height="554.4" width="277.853557" x="7.2" y="7.2"/>
  </clipPath>
 </defs>
</svg>
