<?xml version="1.0" encoding="utf-8" standalone="no"?>
<!DOCTYPE svg PUBLIC "-//W3C//DTD SVG 1.1//EN"
  "http://www.w3.org/Graphics/SVG/1.1/DTD/svg11.dtd">
<svg height="568.8pt" version="1.1" viewBox="0 0 288.842049 568.8" width="288.842049pt" xmlns="http://www.w3.org/2000/svg" xmlns:xlink="http://www.w3.org/1999/xlink">
 <metadata>
  <rdf:RDF xmlns:cc="http://creativecommons.org/ns#" xmlns:dc="http://purl.org/dc/elements/1.1/" xmlns:rdf="http://www.w3.org/1999/02/22-rdf-syntax-ns#">
   <cc:Work>
    <dc:type rdf:resource="http://purl.org/dc/dcmitype/StillImage"/>
    <dc:date>2021-04-27T02:30:19.193465</dc:date>
    <dc:format>image/svg+xml</dc:format>
    <dc:creator>
     <cc:Agent>
      <dc:title>Matplotlib v3.4.1, https://matplotlib.org/</dc:title>
     </cc:Agent>
    </dc:creator>
   </cc:Work>
  </rdf:RDF>
 </metadata>
 <defs>
  <style type="text/css">*{stroke-linecap:butt;stroke-linejoin:round;}</style>
 </defs>
 <g id="figure_1">
  <g id="patch_1">
   <path d="M 0 568.8 
L 288.842049 568.8 
L 288.842049 0 
L 0 0 
z
" style="fill:#ffffff;"/>
  </g>
  <g id="axes_1">
   <g id="LineCollection_1">
    <path clip-path="url(#pd6731321d8)" d="M 192.910198 99.073454 
L 194.725103 100.593327 
L 183.457083 122.13945 
L 156.159358 169.894357 
L 156.167164 193.00157 
L 157.759597 196.324681 
L 155.117252 204.753533 
L 149.297848 202.146565 
L 150.382888 215.552355 
L 136.663771 209.225564 
L 132.315807 214.078852 
L 109.57681 202.620559 
L 98.137057 224.243965 
L 95.510325 224.388224 
L 92.930428 233.461089 
L 80.354896 253.255496 
L 69.645009 276.027821 
L 56.413769 297.728508 
L 50.200161 335.282237 
L 47.507077 341.413248 
L 47.448532 353.144603 
L 44.216831 402.738813 
L 40.306004 430.647792 
L 36.250766 453.42527 
L 28.38618 484.518253 
L 23.331769 514.616879 
L 19.674639 521.469185 
L 28.842833 523.030275 
L 29.779558 530.408096 
L 36.703517 536.4 
L 49.809859 533.195388 
L 58.782903 527.394112 
L 65.390716 520.134789 
L 76.674348 511.819284 
L 80.058267 511.788371 
L 90.518362 503.740775 
L 100.151016 504.492983 
L 121.699591 495.651963 
L 130.114503 495.45103 
L 145.605591 491.49421 
L 163.520455 490.149509 
L 171.541162 486.17208 
L 174.476233 482.158587 
L 185.186121 454.883317 
L 188.269507 428.999117 
L 196.586843 410.266045 
L 198.557869 396.540824 
L 195.71647 389.796712 
L 186.887838 376.885525 
L 173.859556 370.058979 
L 166.225248 364.427723 
L 170.339031 355.519725 
L 150.410209 342.644603 
L 115.626492 325.292296 
L 116.180721 322.571982 
L 141.195178 278.104122 
L 143.275488 271.890677 
L 158.51288 245.192444 
L 160.737601 234.738813 
L 166.912179 226.665456 
L 170.218038 215.093817 
L 184.019118 188.390432 
L 188.741772 184.840628 
L 196.961533 186.13896 
L 205.942383 176.215996 
L 208.658885 169.152453 
L 207.448949 163.737586 
L 214.146532 156.586457 
L 216.917677 144.664475 
L 227.889067 127.209127 
L 240.214805 124.195142 
L 254.468636 98.367615 
L 255.561481 89.866634 
L 253.524105 83.174043 
L 262.661075 69.773405 
L 264.089581 58.227527 
L 269.16741 53.374239 
L 260.295845 49.93263 
L 265.213651 42.111727 
L 264.838961 38.247645 
L 257.833039 33.569529 
L 251.7092 32.4 
L 249.004407 35.970412 
L 254.195424 40.885525 
L 255.57319 47.526595 
L 244.718891 59.927723 
L 237.322667 62.534691 
L 221.538853 53.724583 
L 193.433203 101.525859 
L 196.321438 103.633072 
" style="fill:none;stroke:#000000;stroke-width:3;"/>
   </g>
  </g>
 </g>
 <defs>
  <clipPath id="pd6731321d8">
   <rect height="554.4" width="274.442049" x="7.2" y="7.2"/>
  </clipPath>
 </defs>
</svg>
