<?xml version="1.0" encoding="utf-8" standalone="no"?>
<!DOCTYPE svg PUBLIC "-//W3C//DTD SVG 1.1//EN"
  "http://www.w3.org/Graphics/SVG/1.1/DTD/svg11.dtd">
<svg height="568.8pt" version="1.1" viewBox="0 0 327.388695 568.8" width="327.388695pt" xmlns="http://www.w3.org/2000/svg" xmlns:xlink="http://www.w3.org/1999/xlink">
 <metadata>
  <rdf:RDF xmlns:cc="http://creativecommons.org/ns#" xmlns:dc="http://purl.org/dc/elements/1.1/" xmlns:rdf="http://www.w3.org/1999/02/22-rdf-syntax-ns#">
   <cc:Work>
    <dc:type rdf:resource="http://purl.org/dc/dcmitype/StillImage"/>
    <dc:date>2021-05-02T01:30:19.589897</dc:date>
    <dc:format>image/svg+xml</dc:format>
    <dc:creator>
     <cc:Agent>
      <dc:title>Matplotlib v3.4.1, https://matplotlib.org/</dc:title>
     </cc:Agent>
    </dc:creator>
   </cc:Work>
  </rdf:RDF>
 </metadata>
 <defs>
  <style type="text/css">*{stroke-linecap:butt;stroke-linejoin:round;}</style>
 </defs>
 <g id="figure_1">
  <g id="patch_1">
   <path d="M 0 568.8 
L 327.388695 568.8 
L 327.388695 0 
L 0 0 
z
" style="fill:#ffffff;"/>
  </g>
  <g id="axes_1">
   <g id="LineCollection_1">
    <path clip-path="url(#p458fb269a8)" d="M 135.860671 119.308312 
L 158.674278 126.356468 
L 211.30699 32.72683 
L 236.186735 32.4 
L 300.043312 70.582249 
L 305.961936 84.465411 
L 269.50321 153.255983 
L 137.022874 392.32489 
L 99.810868 450.401128 
L 90.965215 479.361092 
L 53.419614 536.4 
L 21.426759 527.845585 
L 41.657693 454.735175 
L 83.991999 396.332108 
L 37.751401 372.004601 
L 26.947221 358.860359 
L 29.551416 335.257562 
L 23.406808 314.695703 
L 21.954054 245.791451 
L 26.193942 220.938175 
L 34.42621 209.825961 
L 33.167157 187.246284 
L 40.96898 151.493944 
L 70.701997 99.414323 
L 91.750778 99.684313 
L 129.705302 115.201624 
" style="fill:none;stroke:#000000;stroke-width:3;"/>
   </g>
  </g>
 </g>
 <defs>
  <clipPath id="p458fb269a8">
   <rect height="554.4" width="312.988695" x="7.2" y="7.2"/>
  </clipPath>
 </defs>
</svg>
