<?xml version="1.0" encoding="utf-8" standalone="no"?>
<!DOCTYPE svg PUBLIC "-//W3C//DTD SVG 1.1//EN"
  "http://www.w3.org/Graphics/SVG/1.1/DTD/svg11.dtd">
<svg height="568.8pt" version="1.1" viewBox="0 0 431.284004 568.8" width="431.284004pt" xmlns="http://www.w3.org/2000/svg" xmlns:xlink="http://www.w3.org/1999/xlink">
 <metadata>
  <rdf:RDF xmlns:cc="http://creativecommons.org/ns#" xmlns:dc="http://purl.org/dc/elements/1.1/" xmlns:rdf="http://www.w3.org/1999/02/22-rdf-syntax-ns#">
   <cc:Work>
    <dc:type rdf:resource="http://purl.org/dc/dcmitype/StillImage"/>
    <dc:date>2021-05-15T02:15:03.678872</dc:date>
    <dc:format>image/svg+xml</dc:format>
    <dc:creator>
     <cc:Agent>
      <dc:title>Matplotlib v3.4.2, https://matplotlib.org/</dc:title>
     </cc:Agent>
    </dc:creator>
   </cc:Work>
  </rdf:RDF>
 </metadata>
 <defs>
  <style type="text/css">*{stroke-linecap:butt;stroke-linejoin:round;}</style>
 </defs>
 <g id="figure_1">
  <g id="patch_1">
   <path d="M 0 568.8 
L 431.284004 568.8 
L 431.284004 0 
L 0 0 
z
" style="fill:#ffffff;"/>
  </g>
  <g id="axes_1">
   <g id="LineCollection_1">
    <path clip-path="url(#p509dd60540)" d="M 82.896722 502.77949 
L 98.292635 505.588939 
L 115.199589 514.220448 
L 128.210344 533.242273 
L 135.119836 536.4 
L 143.197749 522.7823 
L 151.328373 526.119972 
L 154.012226 519.92061 
L 167.791678 525.475656 
L 171.898719 519.438824 
L 192.732619 529.382183 
L 196.756201 524.570131 
L 209.556114 500.701427 
L 214.620732 494.269879 
L 227.960929 468.694609 
L 262.886153 405.505232 
L 266.944876 400.739618 
L 282.859111 389.896539 
L 303.069268 355.45177 
L 318.372938 327.56625 
L 324.465415 322.997994 
L 336.347282 309.223569 
L 346.041657 291.240775 
L 357.141649 285.877282 
L 360.589807 277.541811 
L 368.632579 250.24256 
L 378.116111 224.284183 
L 389.00526 203.851829 
L 397.812338 210.07441 
L 402.112651 207.9383 
L 405.134731 213.690705 
L 400.342451 215.025773 
L 386.132528 209.145667 
L 392.435848 198.227128 
L 385.227661 191.743338 
L 375.256556 187.227323 
L 394.201656 141.724703 
L 393.753615 140.099402 
L 374.962254 133.743315 
L 373.257942 130.870015 
L 395.356898 94.05695 
L 379.108829 85.884008 
L 375.60796 81.954263 
L 387.428332 54.823348 
L 360.313075 53.674028 
L 350.038884 60.482877 
L 342.391441 58.834358 
L 314.195616 43.359172 
L 308.221738 32.4 
L 303.20983 33.230064 
L 281.550129 43.579748 
L 278.510479 38.210451 
L 267.059082 34.843756 
L 269.097229 42.842558 
L 263.988685 51.741081 
L 264.810093 59.165223 
L 259.714726 71.859984 
L 259.44678 78.674638 
L 253.683745 91.392618 
L 249.44932 105.886819 
L 240.743271 127.631023 
L 233.37256 137.162251 
L 228.022425 155.917063 
L 224.539127 177.423276 
L 192.288971 234.99956 
L 181.000098 229.351639 
L 177.652969 238.006367 
L 168.718508 240.978345 
L 162.472291 252.448326 
L 163.091642 264.249171 
L 142.833167 293.138895 
L 141.194743 292.639695 
L 130.841485 308.474769 
L 121.002157 320.91993 
L 113.284434 334.148719 
L 89.66126 379.982204 
L 79.048841 398.24362 
L 61.043749 431.852521 
L 62.374694 437.279865 
L 56.457919 440.582708 
L 32.856708 484.50066 
L 31.27978 492.714234 
L 26.149273 502.187416 
L 47.295044 511.96244 
L 57.810826 494.722642 
L 74.51133 503.934615 
L 82.641953 503.423806 
" style="fill:none;stroke:#000000;stroke-width:3;"/>
   </g>
  </g>
 </g>
 <defs>
  <clipPath id="p509dd60540">
   <rect height="554.4" width="416.884004" x="7.2" y="7.2"/>
  </clipPath>
 </defs>
</svg>
