<?xml version="1.0" encoding="utf-8" standalone="no"?>
<!DOCTYPE svg PUBLIC "-//W3C//DTD SVG 1.1//EN"
  "http://www.w3.org/Graphics/SVG/1.1/DTD/svg11.dtd">
<svg height="568.8pt" version="1.1" viewBox="0 0 287.436157 568.8" width="287.436157pt" xmlns="http://www.w3.org/2000/svg" xmlns:xlink="http://www.w3.org/1999/xlink">
 <metadata>
  <rdf:RDF xmlns:cc="http://creativecommons.org/ns#" xmlns:dc="http://purl.org/dc/elements/1.1/" xmlns:rdf="http://www.w3.org/1999/02/22-rdf-syntax-ns#">
   <cc:Work>
    <dc:type rdf:resource="http://purl.org/dc/dcmitype/StillImage"/>
    <dc:date>2021-05-18T02:20:57.039384</dc:date>
    <dc:format>image/svg+xml</dc:format>
    <dc:creator>
     <cc:Agent>
      <dc:title>Matplotlib v3.4.2, https://matplotlib.org/</dc:title>
     </cc:Agent>
    </dc:creator>
   </cc:Work>
  </rdf:RDF>
 </metadata>
 <defs>
  <style type="text/css">*{stroke-linecap:butt;stroke-linejoin:round;}</style>
 </defs>
 <g id="figure_1">
  <g id="patch_1">
   <path d="M 0 568.8 
L 287.436157 568.8 
L 287.436157 0 
L 0 0 
z
" style="fill:#ffffff;"/>
  </g>
  <g id="axes_1">
   <g id="LineCollection_1">
    <path clip-path="url(#p4a88cef833)" d="M 196.381001 104.54164 
L 193.606196 103.390908 
L 188.367924 110.295299 
L 173.236869 136.690211 
L 155.062479 170.05116 
L 154.813408 193.687398 
L 157.841175 198.089974 
L 156.665872 206.520113 
L 144.652094 236.069262 
L 137.464065 239.906748 
L 132.836795 246.4053 
L 121.013712 283.238994 
L 118.08713 286.932638 
L 104.559468 315.747168 
L 82.244275 356.459445 
L 87.937879 370.699751 
L 100.150135 377.55277 
L 97.881255 383.265332 
L 84.668824 401.949313 
L 86.198275 405.874131 
L 94.596633 411.447988 
L 88.821302 421.393599 
L 89.502356 427.306511 
L 72.067395 454.523374 
L 66.64232 461.201729 
L 63.077493 469.719199 
L 69.54166 474.748514 
L 77.916668 466.261867 
L 92.195434 474.265617 
L 80.956111 493.175635 
L 67.253322 507.323472 
L 70.837607 512.861369 
L 50.834103 532.233734 
L 38.715248 536.4 
L 32.671388 531.062454 
L 28.989809 522.498748 
L 19.610734 519.755486 
L 26.098252 499.443014 
L 29.363416 485.803759 
L 29.577461 478.359962 
L 36.438585 469.159245 
L 38.793083 459.979076 
L 38.940969 447.875843 
L 44.338802 394.757239 
L 47.720717 349.246822 
L 54.492331 307.799927 
L 55.582016 296.272059 
L 53.087416 283.922241 
L 58.064942 266.019114 
L 66.210337 250.699996 
L 93.117775 264.719403 
L 94.063466 267.442117 
L 104.411582 268.238382 
L 111.179305 274.742072 
L 133.385529 286.208293 
L 139.635652 278.908338 
L 151.832341 254.398777 
L 160.90786 246.107343 
L 161.308709 236.983683 
L 170.504872 224.356456 
L 177.190869 207.675982 
L 176.330796 200.586651 
L 182.997333 188.092991 
L 188.998385 184.661345 
L 194.956627 186.33607 
L 205.549922 175.522273 
L 207.951121 168.756587 
L 206.666849 163.115946 
L 213.150475 156.427317 
L 218.198052 140.260562 
L 226.631436 126.950088 
L 238.804775 124.165728 
L 243.720033 117.189416 
L 254.068149 97.149215 
L 253.488281 80.23243 
L 261.625893 69.434044 
L 262.322514 59.498708 
L 267.825423 53.811832 
L 259.271395 49.270551 
L 264.182762 38.523537 
L 258.205061 33.504497 
L 249.833944 32.4 
L 248.141041 37.434452 
L 252.6321 41.241114 
L 254.0915 47.123203 
L 243.529338 59.303494 
L 236.967877 63.007412 
L 231.834682 72.999258 
L 225.783039 79.728984 
L 225.004692 86.181302 
L 217.840013 90.260236 
L 212.737952 99.584246 
L 214.415288 106.832829 
L 206.075306 118.175757 
L 206.359402 111.276503 
L 196.552237 104.171762 
" style="fill:none;stroke:#000000;stroke-width:3;"/>
   </g>
  </g>
 </g>
 <defs>
  <clipPath id="p4a88cef833">
   <rect height="554.4" width="273.036157" x="7.2" y="7.2"/>
  </clipPath>
 </defs>
</svg>
