<?xml version="1.0" encoding="utf-8" standalone="no"?>
<!DOCTYPE svg PUBLIC "-//W3C//DTD SVG 1.1//EN"
  "http://www.w3.org/Graphics/SVG/1.1/DTD/svg11.dtd">
<svg height="568.8pt" version="1.1" viewBox="0 0 414.177904 568.8" width="414.177904pt" xmlns="http://www.w3.org/2000/svg" xmlns:xlink="http://www.w3.org/1999/xlink">
 <metadata>
  <rdf:RDF xmlns:cc="http://creativecommons.org/ns#" xmlns:dc="http://purl.org/dc/elements/1.1/" xmlns:rdf="http://www.w3.org/1999/02/22-rdf-syntax-ns#">
   <cc:Work>
    <dc:type rdf:resource="http://purl.org/dc/dcmitype/StillImage"/>
    <dc:date>2021-05-23T02:27:18.313380</dc:date>
    <dc:format>image/svg+xml</dc:format>
    <dc:creator>
     <cc:Agent>
      <dc:title>Matplotlib v3.4.2, https://matplotlib.org/</dc:title>
     </cc:Agent>
    </dc:creator>
   </cc:Work>
  </rdf:RDF>
 </metadata>
 <defs>
  <style type="text/css">*{stroke-linecap:butt;stroke-linejoin:round;}</style>
 </defs>
 <g id="figure_1">
  <g id="patch_1">
   <path d="M 0 568.8 
L 414.177904 568.8 
L 414.177904 0 
L 0 0 
z
" style="fill:#ffffff;"/>
  </g>
  <g id="axes_1">
   <g id="LineCollection_1">
    <path clip-path="url(#p83649da289)" d="M 309.257375 45.984164 
L 324.077258 53.158396 
L 327.89029 49.367467 
L 367.232446 67.700483 
L 388.806181 99.770524 
L 357.591804 158.071351 
L 284.943506 288.196025 
L 261.579035 331.669426 
L 235.227432 373.848612 
L 228.689703 389.277287 
L 197.575668 447.781928 
L 161.197488 513.521944 
L 168.954771 516.782959 
L 166.646883 536.4 
L 153.548268 533.566994 
L 138.496825 519.880923 
L 128.971963 516.619908 
L 134.58345 505.277692 
L 30.388871 447.557733 
L 33.090412 424.781584 
L 25.371723 403.044883 
L 35.892296 364.941966 
L 76.816783 289.94882 
L 97.348495 268.52803 
L 128.053439 211.643707 
L 167.735218 231.923141 
L 184.986487 200.729498 
L 208.026773 168.180496 
L 213.954726 151.080551 
L 231.368088 130.790925 
L 236.084206 113.08973 
L 280.62104 32.4 
L 309.311406 45.586728 
" style="fill:none;stroke:#000000;stroke-width:3;"/>
   </g>
  </g>
 </g>
 <defs>
  <clipPath id="p83649da289">
   <rect height="554.4" width="399.777904" x="7.2" y="7.2"/>
  </clipPath>
 </defs>
</svg>
