<?xml version="1.0" encoding="utf-8" standalone="no"?>
<!DOCTYPE svg PUBLIC "-//W3C//DTD SVG 1.1//EN"
  "http://www.w3.org/Graphics/SVG/1.1/DTD/svg11.dtd">
<svg height="317.203125pt" version="1.1" viewBox="0 0 324.353125 317.203125" width="324.353125pt" xmlns="http://www.w3.org/2000/svg" xmlns:xlink="http://www.w3.org/1999/xlink">
 <metadata>
  <rdf:RDF xmlns:cc="http://creativecommons.org/ns#" xmlns:dc="http://purl.org/dc/elements/1.1/" xmlns:rdf="http://www.w3.org/1999/02/22-rdf-syntax-ns#">
   <cc:Work>
    <dc:type rdf:resource="http://purl.org/dc/dcmitype/StillImage"/>
    <dc:date>2021-06-09T16:33:22.670815</dc:date>
    <dc:format>image/svg+xml</dc:format>
    <dc:creator>
     <cc:Agent>
      <dc:title>Matplotlib v3.4.2, https://matplotlib.org/</dc:title>
     </cc:Agent>
    </dc:creator>
   </cc:Work>
  </rdf:RDF>
 </metadata>
 <defs>
  <style type="text/css">*{stroke-linecap:butt;stroke-linejoin:round;}</style>
 </defs>
 <g id="figure_1">
  <g id="patch_1">
   <path d="M 0 317.203125 
L 324.353125 317.203125 
L 324.353125 0 
L 0 0 
z
" style="fill:none;"/>
  </g>
  <g id="axes_1">
   <g id="patch_2">
    <path d="M 45.353125 279 
L 317.153125 279 
L 317.153125 7.2 
L 45.353125 7.2 
z
" style="fill:none;"/>
   </g>
   <g id="matplotlib.axis_1">
    <g id="xtick_1">
     <g id="line2d_1">
      <defs>
       <path d="M 0 0 
L 0 3.5 
" id="m5d3d4712fb" style="stroke:#000000;stroke-width:0.8;"/>
      </defs>
      <g>
       <use style="stroke:#000000;stroke-width:0.8;" x="57.70767" xlink:href="#m5d3d4712fb" y="279"/>
      </g>
     </g>
     <g id="text_1">
      <!-- 0 -->
      <g transform="translate(54.849077 293.598437)scale(0.1 -0.1)">
       <defs>
        <path d="M 3341 2291 
Q 3341 1106 2967 521 
Q 2594 -63 1825 -63 
Q 1088 -63 703 535 
Q 319 1134 319 2291 
Q 319 3484 691 4062 
Q 1063 4641 1825 4641 
Q 2569 4641 2955 4037 
Q 3341 3434 3341 2291 
z
M 844 2291 
Q 844 1294 1078 839 
Q 1313 384 1825 384 
Q 2344 384 2576 845 
Q 2809 1306 2809 2291 
Q 2809 3275 2576 3733 
Q 2344 4191 1825 4191 
Q 1313 4191 1078 3739 
Q 844 3288 844 2291 
z
" id="OpenSans-Regular-30" transform="scale(0.015625)"/>
       </defs>
       <use xlink:href="#OpenSans-Regular-30"/>
      </g>
     </g>
    </g>
    <g id="xtick_2">
     <g id="line2d_2">
      <g>
       <use style="stroke:#000000;stroke-width:0.8;" x="304.79858" xlink:href="#m5d3d4712fb" y="279"/>
      </g>
     </g>
     <g id="text_2">
      <!-- 100 -->
      <g transform="translate(296.222798 293.598437)scale(0.1 -0.1)">
       <defs>
        <path d="M 2234 0 
L 1728 0 
L 1728 3256 
Q 1728 3663 1753 4025 
Q 1688 3959 1606 3887 
Q 1525 3816 863 3278 
L 588 3634 
L 1797 4569 
L 2234 4569 
L 2234 0 
z
" id="OpenSans-Regular-31" transform="scale(0.015625)"/>
       </defs>
       <use xlink:href="#OpenSans-Regular-31"/>
       <use x="57.177734" xlink:href="#OpenSans-Regular-30"/>
       <use x="114.355469" xlink:href="#OpenSans-Regular-30"/>
      </g>
     </g>
    </g>
    <g id="text_3">
     <!-- Steps (%) -->
     <g transform="translate(160.114063 307.6)scale(0.1 -0.1)">
      <defs>
       <path d="M 3206 1216 
Q 3206 613 2768 275 
Q 2331 -63 1581 -63 
Q 769 -63 331 147 
L 331 659 
Q 613 541 944 472 
Q 1275 403 1600 403 
Q 2131 403 2400 604 
Q 2669 806 2669 1166 
Q 2669 1403 2573 1554 
Q 2478 1706 2254 1834 
Q 2031 1963 1575 2125 
Q 938 2353 664 2665 
Q 391 2978 391 3481 
Q 391 4009 787 4321 
Q 1184 4634 1838 4634 
Q 2519 4634 3091 4384 
L 2925 3922 
Q 2359 4159 1825 4159 
Q 1403 4159 1165 3978 
Q 928 3797 928 3475 
Q 928 3238 1015 3086 
Q 1103 2934 1311 2807 
Q 1519 2681 1947 2528 
Q 2666 2272 2936 1978 
Q 3206 1684 3206 1216 
z
" id="OpenSans-Regular-53" transform="scale(0.015625)"/>
       <path d="M 1656 366 
Q 1794 366 1922 386 
Q 2050 406 2125 428 
L 2125 31 
Q 2041 -9 1877 -36 
Q 1713 -63 1581 -63 
Q 588 -63 588 984 
L 588 3022 
L 97 3022 
L 97 3272 
L 588 3488 
L 806 4219 
L 1106 4219 
L 1106 3425 
L 2100 3425 
L 2100 3022 
L 1106 3022 
L 1106 1006 
Q 1106 697 1253 531 
Q 1400 366 1656 366 
z
" id="OpenSans-Regular-74" transform="scale(0.015625)"/>
       <path d="M 1997 -63 
Q 1238 -63 798 400 
Q 359 863 359 1684 
Q 359 2513 767 3000 
Q 1175 3488 1863 3488 
Q 2506 3488 2881 3064 
Q 3256 2641 3256 1947 
L 3256 1619 
L 897 1619 
Q 913 1016 1202 703 
Q 1491 391 2016 391 
Q 2569 391 3109 622 
L 3109 159 
Q 2834 41 2589 -11 
Q 2344 -63 1997 -63 
z
M 1856 3053 
Q 1444 3053 1198 2784 
Q 953 2516 909 2041 
L 2700 2041 
Q 2700 2531 2481 2792 
Q 2263 3053 1856 3053 
z
" id="OpenSans-Regular-65" transform="scale(0.015625)"/>
       <path d="M 2144 -63 
Q 1809 -63 1532 60 
Q 1256 184 1069 441 
L 1031 441 
Q 1069 141 1069 -128 
L 1069 -1538 
L 550 -1538 
L 550 3425 
L 972 3425 
L 1044 2956 
L 1069 2956 
Q 1269 3238 1534 3363 
Q 1800 3488 2144 3488 
Q 2825 3488 3195 3022 
Q 3566 2556 3566 1716 
Q 3566 872 3189 404 
Q 2813 -63 2144 -63 
z
M 2069 3047 
Q 1544 3047 1309 2756 
Q 1075 2466 1069 1831 
L 1069 1716 
Q 1069 994 1309 683 
Q 1550 372 2081 372 
Q 2525 372 2776 731 
Q 3028 1091 3028 1722 
Q 3028 2363 2776 2705 
Q 2525 3047 2069 3047 
z
" id="OpenSans-Regular-70" transform="scale(0.015625)"/>
       <path d="M 2759 934 
Q 2759 456 2403 196 
Q 2047 -63 1403 -63 
Q 722 -63 341 153 
L 341 634 
Q 588 509 870 437 
Q 1153 366 1416 366 
Q 1822 366 2040 495 
Q 2259 625 2259 891 
Q 2259 1091 2086 1233 
Q 1913 1375 1409 1569 
Q 931 1747 729 1880 
Q 528 2013 429 2181 
Q 331 2350 331 2584 
Q 331 3003 672 3245 
Q 1013 3488 1606 3488 
Q 2159 3488 2688 3263 
L 2503 2841 
Q 1988 3053 1569 3053 
Q 1200 3053 1012 2937 
Q 825 2822 825 2619 
Q 825 2481 895 2384 
Q 966 2288 1122 2200 
Q 1278 2113 1722 1947 
Q 2331 1725 2545 1500 
Q 2759 1275 2759 934 
z
" id="OpenSans-Regular-73" transform="scale(0.015625)"/>
       <path id="OpenSans-Regular-20" transform="scale(0.015625)"/>
       <path d="M 256 1753 
Q 256 2581 498 3303 
Q 741 4025 1197 4569 
L 1703 4569 
Q 1253 3966 1026 3244 
Q 800 2522 800 1759 
Q 800 1009 1031 293 
Q 1263 -422 1697 -1013 
L 1197 -1013 
Q 738 -481 497 228 
Q 256 938 256 1753 
z
" id="OpenSans-Regular-28" transform="scale(0.015625)"/>
       <path d="M 756 3206 
Q 756 2675 872 2409 
Q 988 2144 1247 2144 
Q 1759 2144 1759 3206 
Q 1759 4263 1247 4263 
Q 988 4263 872 4000 
Q 756 3738 756 3206 
z
M 2188 3206 
Q 2188 2494 1948 2130 
Q 1709 1766 1247 1766 
Q 809 1766 567 2137 
Q 325 2509 325 3206 
Q 325 3916 558 4275 
Q 791 4634 1247 4634 
Q 1700 4634 1944 4262 
Q 2188 3891 2188 3206 
z
M 3506 1375 
Q 3506 841 3622 577 
Q 3738 313 4000 313 
Q 4263 313 4388 573 
Q 4513 834 4513 1375 
Q 4513 1909 4388 2167 
Q 4263 2425 4000 2425 
Q 3738 2425 3622 2167 
Q 3506 1909 3506 1375 
z
M 4941 1375 
Q 4941 666 4702 301 
Q 4463 -63 4000 -63 
Q 3556 -63 3317 309 
Q 3078 681 3078 1375 
Q 3078 2084 3311 2443 
Q 3544 2803 4000 2803 
Q 4444 2803 4692 2436 
Q 4941 2069 4941 1375 
z
M 4134 4569 
L 1600 0 
L 1141 0 
L 3675 4569 
L 4134 4569 
z
" id="OpenSans-Regular-25" transform="scale(0.015625)"/>
       <path d="M 1638 1753 
Q 1638 931 1395 221 
Q 1153 -488 697 -1013 
L 197 -1013 
Q 631 -425 862 292 
Q 1094 1009 1094 1759 
Q 1094 2522 867 3244 
Q 641 3966 191 4569 
L 697 4569 
Q 1156 4022 1397 3298 
Q 1638 2575 1638 1753 
z
" id="OpenSans-Regular-29" transform="scale(0.015625)"/>
      </defs>
      <use xlink:href="#OpenSans-Regular-53"/>
      <use x="54.882812" xlink:href="#OpenSans-Regular-74"/>
      <use x="90.185547" xlink:href="#OpenSans-Regular-65"/>
      <use x="146.289062" xlink:href="#OpenSans-Regular-70"/>
      <use x="207.568359" xlink:href="#OpenSans-Regular-73"/>
      <use x="255.273438" xlink:href="#OpenSans-Regular-20"/>
      <use x="281.25" xlink:href="#OpenSans-Regular-28"/>
      <use x="310.839844" xlink:href="#OpenSans-Regular-25"/>
      <use x="393.164062" xlink:href="#OpenSans-Regular-29"/>
     </g>
    </g>
   </g>
   <g id="matplotlib.axis_2">
    <g id="ytick_1">
     <g id="line2d_3">
      <defs>
       <path d="M 0 0 
L -3.5 0 
" id="mbfb84b3f9a" style="stroke:#000000;stroke-width:0.8;"/>
      </defs>
      <g>
       <use style="stroke:#000000;stroke-width:0.8;" x="45.353125" xlink:href="#mbfb84b3f9a" y="266.645455"/>
      </g>
     </g>
     <g id="text_4">
      <!-- 0 -->
      <g transform="translate(32.635937 270.444673)scale(0.1 -0.1)">
       <use xlink:href="#OpenSans-Regular-30"/>
      </g>
     </g>
    </g>
    <g id="ytick_2">
     <g id="line2d_4">
      <g>
       <use style="stroke:#000000;stroke-width:0.8;" x="45.353125" xlink:href="#mbfb84b3f9a" y="19.554545"/>
      </g>
     </g>
     <g id="text_5">
      <!-- 100 -->
      <g transform="translate(21.201562 23.353764)scale(0.1 -0.1)">
       <use xlink:href="#OpenSans-Regular-31"/>
       <use x="57.177734" xlink:href="#OpenSans-Regular-30"/>
       <use x="114.355469" xlink:href="#OpenSans-Regular-30"/>
      </g>
     </g>
    </g>
    <g id="text_6">
     <!-- T (%) -->
     <g transform="translate(14.798437 154.241406)rotate(-90)scale(0.1 -0.1)">
      <defs>
       <path d="M 2034 0 
L 1503 0 
L 1503 4097 
L 56 4097 
L 56 4569 
L 3481 4569 
L 3481 4097 
L 2034 4097 
L 2034 0 
z
" id="OpenSans-Regular-54" transform="scale(0.015625)"/>
      </defs>
      <use xlink:href="#OpenSans-Regular-54"/>
      <use x="55.322266" xlink:href="#OpenSans-Regular-20"/>
      <use x="81.298828" xlink:href="#OpenSans-Regular-28"/>
      <use x="110.888672" xlink:href="#OpenSans-Regular-25"/>
      <use x="193.212891" xlink:href="#OpenSans-Regular-29"/>
     </g>
    </g>
   </g>
   <g id="line2d_5">
    <path clip-path="url(#p1bc677c653)" d="M 57.70767 19.554545 
L 304.79858 266.645455 
L 304.79858 266.645455 
" style="fill:none;stroke:#1f77b4;stroke-linecap:square;stroke-width:1.5;"/>
   </g>
   <g id="line2d_6">
    <path clip-path="url(#p1bc677c653)" d="M 57.70767 19.554545 
L 61.414034 34.524266 
L 65.120398 48.604846 
L 68.826761 61.849096 
L 72.533125 74.306692 
L 76.239489 86.024357 
L 79.945852 97.046041 
L 83.652216 107.413081 
L 87.35858 117.164362 
L 91.312034 126.92819 
L 95.265489 136.074672 
L 99.218943 144.642842 
L 103.172398 152.669264 
L 107.125852 160.188194 
L 111.079307 167.231718 
L 115.032761 173.829895 
L 118.986216 180.010883 
L 122.93967 185.801061 
L 127.140216 191.552524 
L 131.340761 196.918385 
L 135.541307 201.924496 
L 139.741852 206.594977 
L 144.189489 211.199349 
L 148.637125 215.477525 
L 153.084761 219.452614 
L 157.779489 223.343432 
L 162.474216 226.943877 
L 167.416034 230.443919 
L 172.357852 233.669558 
L 177.546761 236.784669 
L 182.73567 239.643859 
L 188.17167 242.387596 
L 193.854761 245.004402 
L 199.784943 247.485286 
L 205.962216 249.823663 
L 212.38658 252.015231 
L 219.058034 254.057816 
L 226.22367 256.014891 
L 233.636398 257.809826 
L 241.543307 259.496984 
L 249.944398 261.063805 
L 259.086761 262.539068 
L 268.970398 263.902211 
L 279.595307 265.139441 
L 291.20858 266.265106 
L 304.057307 267.283009 
L 304.79858 267.3354 
L 304.79858 267.3354 
" style="fill:none;stroke:#ff7f0e;stroke-linecap:square;stroke-width:1.5;"/>
   </g>
   <g id="line2d_7">
    <path clip-path="url(#p1bc677c653)" d="M 57.70767 19.554545 
L 58.201852 66.040206 
L 58.696034 95.448274 
L 59.437307 124.059587 
L 60.17858 142.963692 
L 60.919852 156.539631 
L 61.661125 166.850944 
L 62.649489 177.362481 
L 63.637852 185.447293 
L 64.626216 191.904482 
L 65.86167 198.395405 
L 67.097125 203.646177 
L 68.33258 208.00544 
L 69.815125 212.372631 
L 71.29767 216.036209 
L 72.780216 219.167192 
L 74.509852 222.302542 
L 76.239489 225.004003 
L 78.216216 227.677416 
L 80.440034 230.272243 
L 82.663852 232.524161 
L 85.134761 234.709096 
L 87.852761 236.80639 
L 90.817852 238.804159 
L 94.030034 240.696942 
L 97.489307 242.48377 
L 101.442761 244.27156 
L 105.890398 246.025591 
L 110.832216 247.722414 
L 116.268216 249.347502 
L 122.445489 250.953001 
L 129.364034 252.512523 
L 137.023852 254.009415 
L 145.672034 255.473335 
L 155.55567 256.918343 
L 166.921852 258.348039 
L 179.77058 259.734835 
L 194.596034 261.104261 
L 211.645307 262.447253 
L 231.165489 263.75518 
L 253.650761 265.033712 
L 279.842398 266.293288 
L 304.79858 267.319891 
L 304.79858 267.319891 
" style="fill:none;stroke:#2ca02c;stroke-linecap:square;stroke-width:1.5;"/>
   </g>
   <g id="line2d_8">
    <path clip-path="url(#p1bc677c653)" d="M 57.70767 19.554545 
L 59.190216 19.652358 
L 60.672761 19.945375 
L 62.402398 20.532214 
L 64.132034 21.379576 
L 65.86167 22.482561 
L 67.591307 23.83486 
L 69.568034 25.675784 
L 71.544761 27.81902 
L 73.76858 30.572583 
L 76.239489 34.029102 
L 78.710398 37.868884 
L 81.428398 42.48991 
L 84.64058 48.417854 
L 88.346943 55.776956 
L 92.547489 64.62971 
L 98.23058 77.163397 
L 116.021125 116.783587 
L 121.457125 128.174026 
L 126.398943 138.041218 
L 131.09367 146.940623 
L 135.788398 155.356627 
L 140.236034 162.877925 
L 144.68367 169.963235 
L 149.131307 176.622591 
L 153.578943 182.870607 
L 158.02658 188.724994 
L 162.474216 194.205398 
L 166.921852 199.332498 
L 171.369489 204.127331 
L 176.064216 208.851153 
L 180.758943 213.251995 
L 185.45367 217.352874 
L 190.395489 221.369557 
L 195.337307 225.102099 
L 200.526216 228.739936 
L 205.715125 232.113175 
L 211.151125 235.387277 
L 216.834216 238.550778 
L 222.764398 241.59474 
L 228.94167 244.512586 
L 235.366034 247.299897 
L 242.037489 249.954184 
L 249.203125 252.560611 
L 256.615852 255.018861 
L 264.522761 257.403693 
L 272.923852 259.699873 
L 281.819125 261.895889 
L 291.20858 263.983633 
L 301.339307 266.004703 
L 304.79858 266.645455 
L 304.79858 266.645455 
" style="fill:none;stroke:#d62728;stroke-linecap:square;stroke-width:1.5;"/>
   </g>
   <g id="patch_3">
    <path d="M 45.353125 279 
L 45.353125 7.2 
" style="fill:none;stroke:#000000;stroke-linecap:square;stroke-linejoin:miter;stroke-width:0.8;"/>
   </g>
   <g id="patch_4">
    <path d="M 45.353125 279 
L 317.153125 279 
" style="fill:none;stroke:#000000;stroke-linecap:square;stroke-linejoin:miter;stroke-width:0.8;"/>
   </g>
   <g id="legend_1">
    <g id="patch_5">
     <path d="M 223.098438 75.20625 
L 310.153125 75.20625 
Q 312.153125 75.20625 312.153125 73.20625 
L 312.153125 14.2 
Q 312.153125 12.2 310.153125 12.2 
L 223.098438 12.2 
Q 221.098438 12.2 221.098438 14.2 
L 221.098438 73.20625 
Q 221.098438 75.20625 223.098438 75.20625 
z
" style="fill:none;opacity:0.8;"/>
    </g>
    <g id="line2d_9">
     <path d="M 225.098438 20.298437 
L 245.098438 20.298437 
" style="fill:none;stroke:#1f77b4;stroke-linecap:square;stroke-width:1.5;"/>
    </g>
    <g id="line2d_10"/>
    <g id="text_7">
     <!-- linear -->
     <g transform="translate(253.098438 23.798437)scale(0.1 -0.1)">
      <defs>
       <path d="M 1069 0 
L 550 0 
L 550 4863 
L 1069 4863 
L 1069 0 
z
" id="OpenSans-Regular-6c" transform="scale(0.015625)"/>
       <path d="M 1069 0 
L 550 0 
L 550 3425 
L 1069 3425 
L 1069 0 
z
M 506 4353 
Q 506 4531 593 4614 
Q 681 4697 813 4697 
Q 938 4697 1028 4612 
Q 1119 4528 1119 4353 
Q 1119 4178 1028 4092 
Q 938 4006 813 4006 
Q 681 4006 593 4092 
Q 506 4178 506 4353 
z
" id="OpenSans-Regular-69" transform="scale(0.015625)"/>
       <path d="M 2894 0 
L 2894 2216 
Q 2894 2634 2703 2840 
Q 2513 3047 2106 3047 
Q 1569 3047 1319 2756 
Q 1069 2466 1069 1797 
L 1069 0 
L 550 0 
L 550 3425 
L 972 3425 
L 1056 2956 
L 1081 2956 
Q 1241 3209 1528 3348 
Q 1816 3488 2169 3488 
Q 2788 3488 3100 3189 
Q 3413 2891 3413 2234 
L 3413 0 
L 2894 0 
z
" id="OpenSans-Regular-6e" transform="scale(0.015625)"/>
       <path d="M 2656 0 
L 2553 488 
L 2528 488 
Q 2272 166 2017 51 
Q 1763 -63 1381 -63 
Q 872 -63 583 200 
Q 294 463 294 947 
Q 294 1984 1953 2034 
L 2534 2053 
L 2534 2266 
Q 2534 2669 2361 2861 
Q 2188 3053 1806 3053 
Q 1378 3053 838 2791 
L 678 3188 
Q 931 3325 1232 3403 
Q 1534 3481 1838 3481 
Q 2450 3481 2745 3209 
Q 3041 2938 3041 2338 
L 3041 0 
L 2656 0 
z
M 1484 366 
Q 1969 366 2245 631 
Q 2522 897 2522 1375 
L 2522 1684 
L 2003 1663 
Q 1384 1641 1111 1470 
Q 838 1300 838 941 
Q 838 659 1008 512 
Q 1178 366 1484 366 
z
" id="OpenSans-Regular-61" transform="scale(0.015625)"/>
       <path d="M 2113 3488 
Q 2341 3488 2522 3450 
L 2450 2969 
Q 2238 3016 2075 3016 
Q 1659 3016 1364 2678 
Q 1069 2341 1069 1838 
L 1069 0 
L 550 0 
L 550 3425 
L 978 3425 
L 1038 2791 
L 1063 2791 
Q 1253 3125 1522 3306 
Q 1791 3488 2113 3488 
z
" id="OpenSans-Regular-72" transform="scale(0.015625)"/>
      </defs>
      <use xlink:href="#OpenSans-Regular-6c"/>
      <use x="25.292969" xlink:href="#OpenSans-Regular-69"/>
      <use x="50.585938" xlink:href="#OpenSans-Regular-6e"/>
      <use x="111.962891" xlink:href="#OpenSans-Regular-65"/>
      <use x="168.066406" xlink:href="#OpenSans-Regular-61"/>
      <use x="223.681641" xlink:href="#OpenSans-Regular-72"/>
     </g>
    </g>
    <g id="line2d_11">
     <path d="M 225.098438 35.3 
L 245.098438 35.3 
" style="fill:none;stroke:#ff7f0e;stroke-linecap:square;stroke-width:1.5;"/>
    </g>
    <g id="line2d_12"/>
    <g id="text_8">
     <!-- exponential -->
     <g transform="translate(253.098438 38.8)scale(0.1 -0.1)">
      <defs>
       <path d="M 1375 1753 
L 184 3425 
L 775 3425 
L 1678 2113 
L 2578 3425 
L 3163 3425 
L 1972 1753 
L 3225 0 
L 2638 0 
L 1678 1388 
L 709 0 
L 122 0 
L 1375 1753 
z
" id="OpenSans-Regular-78" transform="scale(0.015625)"/>
       <path d="M 3506 1716 
Q 3506 878 3084 407 
Q 2663 -63 1919 -63 
Q 1459 -63 1103 153 
Q 747 369 553 772 
Q 359 1175 359 1716 
Q 359 2553 778 3020 
Q 1197 3488 1941 3488 
Q 2659 3488 3082 3009 
Q 3506 2531 3506 1716 
z
M 897 1716 
Q 897 1059 1159 715 
Q 1422 372 1931 372 
Q 2441 372 2705 714 
Q 2969 1056 2969 1716 
Q 2969 2369 2705 2708 
Q 2441 3047 1925 3047 
Q 1416 3047 1156 2712 
Q 897 2378 897 1716 
z
" id="OpenSans-Regular-6f" transform="scale(0.015625)"/>
      </defs>
      <use xlink:href="#OpenSans-Regular-65"/>
      <use x="56.103516" xlink:href="#OpenSans-Regular-78"/>
      <use x="108.496094" xlink:href="#OpenSans-Regular-70"/>
      <use x="169.775391" xlink:href="#OpenSans-Regular-6f"/>
      <use x="230.175781" xlink:href="#OpenSans-Regular-6e"/>
      <use x="291.552734" xlink:href="#OpenSans-Regular-65"/>
      <use x="347.65625" xlink:href="#OpenSans-Regular-6e"/>
      <use x="409.033203" xlink:href="#OpenSans-Regular-74"/>
      <use x="444.335938" xlink:href="#OpenSans-Regular-69"/>
      <use x="469.628906" xlink:href="#OpenSans-Regular-61"/>
      <use x="525.244141" xlink:href="#OpenSans-Regular-6c"/>
     </g>
    </g>
    <g id="line2d_13">
     <path d="M 225.098438 50.301562 
L 245.098438 50.301562 
" style="fill:none;stroke:#2ca02c;stroke-linecap:square;stroke-width:1.5;"/>
    </g>
    <g id="line2d_14"/>
    <g id="text_9">
     <!-- logarithmic -->
     <g transform="translate(253.098438 53.801562)scale(0.1 -0.1)">
      <defs>
       <path d="M 3353 3425 
L 3353 3097 
L 2719 3022 
Q 2806 2913 2875 2736 
Q 2944 2559 2944 2338 
Q 2944 1834 2600 1534 
Q 2256 1234 1656 1234 
Q 1503 1234 1369 1259 
Q 1038 1084 1038 819 
Q 1038 678 1153 611 
Q 1269 544 1550 544 
L 2156 544 
Q 2713 544 3011 309 
Q 3309 75 3309 -372 
Q 3309 -941 2853 -1239 
Q 2397 -1538 1522 -1538 
Q 850 -1538 486 -1288 
Q 122 -1038 122 -581 
Q 122 -269 322 -40 
Q 522 188 884 269 
Q 753 328 664 453 
Q 575 578 575 744 
Q 575 931 675 1072 
Q 775 1213 991 1344 
Q 725 1453 558 1715 
Q 391 1978 391 2316 
Q 391 2878 728 3183 
Q 1066 3488 1684 3488 
Q 1953 3488 2169 3425 
L 3353 3425 
z
M 622 -575 
Q 622 -853 856 -997 
Q 1091 -1141 1528 -1141 
Q 2181 -1141 2495 -945 
Q 2809 -750 2809 -416 
Q 2809 -138 2637 -30 
Q 2466 78 1991 78 
L 1369 78 
Q 1016 78 819 -90 
Q 622 -259 622 -575 
z
M 903 2328 
Q 903 1969 1106 1784 
Q 1309 1600 1672 1600 
Q 2431 1600 2431 2338 
Q 2431 3109 1663 3109 
Q 1297 3109 1100 2912 
Q 903 2716 903 2328 
z
" id="OpenSans-Regular-67" transform="scale(0.015625)"/>
       <path d="M 2894 0 
L 2894 2216 
Q 2894 2634 2703 2840 
Q 2513 3047 2106 3047 
Q 1566 3047 1317 2753 
Q 1069 2459 1069 1791 
L 1069 0 
L 550 0 
L 550 4863 
L 1069 4863 
L 1069 3391 
Q 1069 3125 1044 2950 
L 1075 2950 
Q 1228 3197 1511 3339 
Q 1794 3481 2156 3481 
Q 2784 3481 3098 3182 
Q 3413 2884 3413 2234 
L 3413 0 
L 2894 0 
z
" id="OpenSans-Regular-68" transform="scale(0.015625)"/>
       <path d="M 4916 0 
L 4916 2228 
Q 4916 2638 4741 2842 
Q 4566 3047 4197 3047 
Q 3713 3047 3481 2769 
Q 3250 2491 3250 1913 
L 3250 0 
L 2731 0 
L 2731 2228 
Q 2731 2638 2556 2842 
Q 2381 3047 2009 3047 
Q 1522 3047 1295 2755 
Q 1069 2463 1069 1797 
L 1069 0 
L 550 0 
L 550 3425 
L 972 3425 
L 1056 2956 
L 1081 2956 
Q 1228 3206 1495 3347 
Q 1763 3488 2094 3488 
Q 2897 3488 3144 2906 
L 3169 2906 
Q 3322 3175 3612 3331 
Q 3903 3488 4275 3488 
Q 4856 3488 5145 3189 
Q 5434 2891 5434 2234 
L 5434 0 
L 4916 0 
z
" id="OpenSans-Regular-6d" transform="scale(0.015625)"/>
       <path d="M 1919 -63 
Q 1175 -63 767 395 
Q 359 853 359 1691 
Q 359 2550 773 3019 
Q 1188 3488 1953 3488 
Q 2200 3488 2447 3434 
Q 2694 3381 2834 3309 
L 2675 2869 
Q 2503 2938 2300 2983 
Q 2097 3028 1941 3028 
Q 897 3028 897 1697 
Q 897 1066 1151 728 
Q 1406 391 1906 391 
Q 2334 391 2784 575 
L 2784 116 
Q 2441 -63 1919 -63 
z
" id="OpenSans-Regular-63" transform="scale(0.015625)"/>
      </defs>
      <use xlink:href="#OpenSans-Regular-6c"/>
      <use x="25.292969" xlink:href="#OpenSans-Regular-6f"/>
      <use x="85.693359" xlink:href="#OpenSans-Regular-67"/>
      <use x="140.478516" xlink:href="#OpenSans-Regular-61"/>
      <use x="196.09375" xlink:href="#OpenSans-Regular-72"/>
      <use x="236.914062" xlink:href="#OpenSans-Regular-69"/>
      <use x="262.207031" xlink:href="#OpenSans-Regular-74"/>
      <use x="297.509766" xlink:href="#OpenSans-Regular-68"/>
      <use x="358.886719" xlink:href="#OpenSans-Regular-6d"/>
      <use x="451.904297" xlink:href="#OpenSans-Regular-69"/>
      <use x="477.197266" xlink:href="#OpenSans-Regular-63"/>
     </g>
    </g>
    <g id="line2d_15">
     <path d="M 225.098438 65.303125 
L 245.098438 65.303125 
" style="fill:none;stroke:#d62728;stroke-linecap:square;stroke-width:1.5;"/>
    </g>
    <g id="line2d_16"/>
    <g id="text_10">
     <!-- quadratic -->
     <g transform="translate(253.098438 68.803125)scale(0.1 -0.1)">
      <defs>
       <path d="M 1844 372 
Q 2363 372 2600 650 
Q 2838 928 2853 1588 
L 2853 1703 
Q 2853 2422 2609 2737 
Q 2366 3053 1838 3053 
Q 1381 3053 1139 2698 
Q 897 2344 897 1697 
Q 897 1050 1136 711 
Q 1375 372 1844 372 
z
M 1766 -63 
Q 1103 -63 731 403 
Q 359 869 359 1703 
Q 359 2544 734 3016 
Q 1109 3488 1778 3488 
Q 2481 3488 2859 2956 
L 2888 2956 
L 2963 3425 
L 3372 3425 
L 3372 -1538 
L 2853 -1538 
L 2853 -72 
Q 2853 241 2888 459 
L 2847 459 
Q 2488 -63 1766 -63 
z
" id="OpenSans-Regular-71" transform="scale(0.015625)"/>
       <path d="M 1038 3425 
L 1038 1203 
Q 1038 784 1228 578 
Q 1419 372 1825 372 
Q 2363 372 2611 665 
Q 2859 959 2859 1625 
L 2859 3425 
L 3378 3425 
L 3378 0 
L 2950 0 
L 2875 459 
L 2847 459 
Q 2688 206 2405 71 
Q 2122 -63 1759 -63 
Q 1134 -63 823 234 
Q 513 531 513 1184 
L 513 3425 
L 1038 3425 
z
" id="OpenSans-Regular-75" transform="scale(0.015625)"/>
       <path d="M 2881 459 
L 2853 459 
Q 2494 -63 1778 -63 
Q 1106 -63 732 396 
Q 359 856 359 1703 
Q 359 2550 734 3019 
Q 1109 3488 1778 3488 
Q 2475 3488 2847 2981 
L 2888 2981 
L 2866 3228 
L 2853 3469 
L 2853 4863 
L 3372 4863 
L 3372 0 
L 2950 0 
L 2881 459 
z
M 1844 372 
Q 2375 372 2614 661 
Q 2853 950 2853 1594 
L 2853 1703 
Q 2853 2431 2611 2742 
Q 2369 3053 1838 3053 
Q 1381 3053 1139 2698 
Q 897 2344 897 1697 
Q 897 1041 1137 706 
Q 1378 372 1844 372 
z
" id="OpenSans-Regular-64" transform="scale(0.015625)"/>
      </defs>
      <use xlink:href="#OpenSans-Regular-71"/>
      <use x="61.279297" xlink:href="#OpenSans-Regular-75"/>
      <use x="122.65625" xlink:href="#OpenSans-Regular-61"/>
      <use x="178.271484" xlink:href="#OpenSans-Regular-64"/>
      <use x="239.550781" xlink:href="#OpenSans-Regular-72"/>
      <use x="280.371094" xlink:href="#OpenSans-Regular-61"/>
      <use x="335.986328" xlink:href="#OpenSans-Regular-74"/>
      <use x="371.289062" xlink:href="#OpenSans-Regular-69"/>
      <use x="396.582031" xlink:href="#OpenSans-Regular-63"/>
     </g>
    </g>
   </g>
  </g>
 </g>
 <defs>
  <clipPath id="p1bc677c653">
   <rect height="271.8" width="271.8" x="45.353125" y="7.2"/>
  </clipPath>
 </defs>
</svg>
