<?xml version="1.0" encoding="UTF-8"?>
<!DOCTYPE svg  PUBLIC '-//W3C//DTD SVG 1.1//EN'  'http://www.w3.org/Graphics/SVG/1.1/DTD/svg11.dtd'>
<svg width="324.35pt" height="317.2pt" version="1.1" viewBox="0 0 324.353125 317.203125" xmlns="http://www.w3.org/2000/svg" xmlns:xlink="http://www.w3.org/1999/xlink">
<metadata>
<rdf:RDF xmlns:cc="http://creativecommons.org/ns#" xmlns:dc="http://purl.org/dc/elements/1.1/" xmlns:rdf="http://www.w3.org/1999/02/22-rdf-syntax-ns#">
<cc:Work>
<dc:type rdf:resource="http://purl.org/dc/dcmitype/StillImage"/>
<dc:date>2021-06-09T16:33:22.670815</dc:date>
<dc:format>image/svg+xml</dc:format>
<dc:creator>
<cc:Agent>
<dc:title>Matplotlib v3.4.2, https://matplotlib.org/</dc:title>
</cc:Agent>
</dc:creator>
</cc:Work>
</rdf:RDF>
</metadata>
<defs>
<style type="text/css">*{stroke-linecap:butt;stroke-linejoin:round;}</style>
</defs>
<path d="m0 317.2h324.35v-317.2h-324.35z" fill="none"/>
<path d="m45.353 279h271.8v-271.8h-271.8z" fill="none"/>
<defs>
<path id="k" d="m0 0v3.5" stroke="#000" stroke-width=".8"/>
</defs>
<use x="57.70767" y="279" stroke="#000000" stroke-width=".8" xlink:href="#k"/>
<g transform="translate(54.849 293.6) scale(.1 -.1)">
<defs>
<path id="a" transform="scale(.015625)" d="m3341 2291q0-1185-374-1770-373-584-1142-584-737 0-1122 598-384 599-384 1756 0 1193 372 1771 372 579 1134 579 744 0 1130-604 386-603 386-1746zm-2497 0q0-997 234-1452 235-455 747-455 519 0 751 461 233 461 233 1446 0 984-233 1442-232 458-751 458-512 0-747-452-234-451-234-1448z"/>
</defs>
<use xlink:href="#a"/>
</g>
<use x="304.79858" y="279" stroke="#000000" stroke-width=".8" xlink:href="#k"/>
<g transform="translate(296.22 293.6) scale(.1 -.1)">
<defs>
<path id="o" transform="scale(.015625)" d="m2234 0h-506v3256q0 407 25 769-65-66-147-138-81-71-743-609l-275 356 1209 935h437v-4569z"/>
</defs>
<use xlink:href="#o"/>
<use x="57.177734" xlink:href="#a"/>
<use x="114.355469" xlink:href="#a"/>
</g>
<g transform="translate(160.11 307.6) scale(.1 -.1)">
<defs>
<path id="ab" transform="scale(.015625)" d="m3206 1216q0-603-438-941-437-338-1187-338-812 0-1250 210v512q282-118 613-187t656-69q531 0 800 201 269 202 269 562 0 237-96 388-95 152-319 280-223 129-679 291-637 228-911 540-273 313-273 816 0 528 396 840 397 313 1051 313 681 0 1253-250l-166-462q-566 237-1100 237-422 0-660-181-237-181-237-503 0-237 87-389 88-152 296-279 208-126 636-279 719-256 989-550t270-762z"/>
<path id="e" transform="scale(.015625)" d="m1656 366q138 0 266 20t203 42v-397q-84-40-248-67t-296-27q-993 0-993 1047v2038h-491v250l491 216 218 731h300v-794h994v-403h-994v-2016q0-309 147-475 147-165 403-165z"/>
<path id="f" transform="scale(.015625)" d="m1997-63q-759 0-1199 463-439 463-439 1284 0 829 408 1316 408 488 1096 488 643 0 1018-424 375-423 375-1117v-328h-2359q16-603 305-916 289-312 814-312 553 0 1093 231v-463q-275-118-520-170t-592-52zm-141 3116q-412 0-658-269-245-268-289-743h1791q0 490-219 751-218 261-625 261z"/>
<path id="l" transform="scale(.015625)" d="m2144-63q-335 0-612 123-276 124-463 381h-38q38-300 38-569v-1410h-519v4963h422l72-469h25q200 282 465 407 266 125 610 125 681 0 1051-466 371-466 371-1306 0-844-377-1312-376-467-1045-467zm-75 3110q-525 0-760-291-234-290-240-925v-115q0-722 240-1033 241-311 772-311 444 0 695 359 252 360 252 991 0 641-252 983-251 342-707 342z"/>
<path id="u" transform="scale(.015625)" d="m2759 934q0-478-356-738-356-259-1e3 -259-681 0-1062 216v481q247-125 529-197 283-71 546-71 406 0 624 129 219 130 219 396 0 200-173 342t-677 336q-478 178-680 311-201 133-300 301-98 169-98 403 0 419 341 661 341 243 934 243 553 0 1082-225l-185-422q-515 212-934 212-369 0-557-116-187-115-187-318 0-138 70-235 71-96 227-184 156-87 600-253 609-222 823-447t214-566z"/>
<path id="q" transform="scale(.015625)" d="m256 1753q0 828 242 1550 243 722 699 1266h506q-450-603-677-1325-226-722-226-1485 0-750 231-1466 232-715 666-1306h-500q-459 532-700 1241-241 710-241 1525z"/>
<path id="r" transform="scale(.015625)" d="m756 3206q0-531 116-797 116-265 375-265 512 0 512 1062 0 1057-512 1057-259 0-375-263-116-262-116-794zm1432 0q0-712-240-1076-239-364-701-364-438 0-680 371-242 372-242 1069 0 710 233 1069t689 359q453 0 697-372 244-371 244-1056zm1318-1831q0-534 116-798t378-264q263 0 388 260 125 261 125 802 0 534-125 792t-388 258q-262 0-378-258t-116-792zm1435 0q0-709-239-1074-239-364-702-364-444 0-683 372t-239 1066q0 709 233 1068 233 360 689 360 444 0 692-367 249-367 249-1061zm-807 3194l-2534-4569h-459l2534 4569h459z"/>
<path id="p" transform="scale(.015625)" d="m1638 1753q0-822-243-1532-242-709-698-1234h-500q434 588 665 1305 232 717 232 1467 0 763-227 1485-226 722-676 1325h506q459-547 700-1271 241-723 241-1545z"/>
</defs>
<use xlink:href="#ab"/>
<use x="54.882812" xlink:href="#e"/>
<use x="90.185547" xlink:href="#f"/>
<use x="146.289062" xlink:href="#l"/>
<use x="207.568359" xlink:href="#u"/>
<use x="255.273438" xlink:href="#OpenSans-Regular-20"/>
<use x="281.25" xlink:href="#q"/>
<use x="310.839844" xlink:href="#r"/>
<use x="393.164062" xlink:href="#p"/>
</g>
<defs>
<path id="j" d="m0 0h-3.5" stroke="#000" stroke-width=".8"/>
</defs>
<use x="45.353125" y="266.645455" stroke="#000000" stroke-width=".8" xlink:href="#j"/>
<g transform="translate(32.636 270.44) scale(.1 -.1)">
<use xlink:href="#a"/>
</g>
<use x="45.353125" y="19.554545" stroke="#000000" stroke-width=".8" xlink:href="#j"/>
<g transform="translate(21.202 23.354) scale(.1 -.1)">
<use xlink:href="#o"/>
<use x="57.177734" xlink:href="#a"/>
<use x="114.355469" xlink:href="#a"/>
</g>
<g transform="translate(14.798 154.24) rotate(-90) scale(.1 -.1)">
<defs>
<path id="aa" transform="scale(.015625)" d="m2034 0h-531v4097h-1447v472h3425v-472h-1447v-4097z"/>
</defs>
<use xlink:href="#aa"/>
<use x="55.322266" xlink:href="#OpenSans-Regular-20"/>
<use x="81.298828" xlink:href="#q"/>
<use x="110.888672" xlink:href="#r"/>
<use x="193.212891" xlink:href="#p"/>
</g>
<path d="m57.708 19.555l247.09 247.09" clip-path="url(#d)" fill="none" stroke="#1f77b4" stroke-linecap="square" stroke-width="1.5"/>
<path d="m57.708 19.555l3.7064 14.97 3.7064 14.081 3.7064 13.244 3.7064 12.458 3.7064 11.718 3.7064 11.022 3.7064 10.367 3.7064 9.7513 3.9535 9.7638 3.9535 9.1465 3.9535 8.5682 3.9535 8.0264 3.9535 7.5189 3.9535 7.0435 3.9535 6.5982 3.9535 6.181 3.9535 5.7902 4.2005 5.7515 4.2005 5.3659 4.2005 5.0061 4.2005 4.6705 4.4476 4.6044 4.4476 4.2782 4.4476 3.9751 4.6947 3.8908 4.6947 3.6004 4.9418 3.5 4.9418 3.2256 5.1889 3.1151 5.1889 2.8592 5.436 2.7437 5.6831 2.6168 5.9302 2.4809 6.1773 2.3384 6.4244 2.1916 6.6715 2.0426 7.1656 1.9571 7.4127 1.7949 7.9069 1.6872 8.4011 1.5668 9.1424 1.4753 9.8836 1.3631 10.625 1.2372 11.613 1.1257 12.849 1.0179 0.74127 0.052391" clip-path="url(#d)" fill="none" stroke="#ff7f0e" stroke-linecap="square" stroke-width="1.5"/>
<path d="m57.708 19.555l0.49418 46.486 0.49418 29.408 0.74127 28.611 0.74127 18.904 0.74127 13.576 0.74127 10.311 0.98836 10.512 0.98836 8.0848 0.98836 6.4572 1.2355 6.4909 1.2355 5.2508 1.2355 4.3593 1.4825 4.3672 1.4825 3.6636 1.4825 3.131 1.7296 3.1354 1.7296 2.7015 1.9767 2.6734 2.2238 2.5948 2.2238 2.2519 2.4709 2.1849 2.718 2.0973 2.9651 1.9978 3.2122 1.8928 3.4593 1.7868 3.9535 1.7878 4.4476 1.754 4.9418 1.6968 5.436 1.6251 6.1773 1.6055 6.9185 1.5595 7.6598 1.4969 8.6482 1.4639 9.8836 1.445 11.366 1.4297 12.849 1.3868 14.825 1.3694 17.049 1.343 19.52 1.3079 22.485 1.2785 26.192 1.2596 24.956 1.0266" clip-path="url(#d)" fill="none" stroke="#2ca02c" stroke-linecap="square" stroke-width="1.5"/>
<path d="m57.708 19.555l1.4825 0.097813 1.4825 0.29302 1.7296 0.58684 1.7296 0.84736 1.7296 1.103 1.7296 1.3523 1.9767 1.8409 1.9767 2.1432 2.2238 2.7536 2.4709 3.4565 2.4709 3.8398 2.718 4.621 3.2122 5.9279 3.7064 7.3591 4.2005 8.8528 5.6831 12.534 17.791 39.62 5.436 11.39 4.9418 9.8672 4.6947 8.8994 4.6947 8.416 4.4476 7.5213 4.4476 7.0853 4.4476 6.6594 4.4476 6.248 4.4476 5.8544 4.4476 5.4804 4.4476 5.1271 4.4476 4.7948 4.6947 4.7238 4.6947 4.4008 4.6947 4.1009 4.9418 4.0167 4.9418 3.7325 5.1889 3.6378 5.1889 3.3732 5.436 3.2741 5.6831 3.1635 5.9302 3.044 6.1773 2.9178 6.4244 2.7873 6.6715 2.6543 7.1656 2.6064 7.4127 2.4582 7.9069 2.3848 8.4011 2.2962 8.8953 2.196 9.3895 2.0877 10.131 2.0211 3.4593 0.64075" clip-path="url(#d)" fill="none" stroke="#d62728" stroke-linecap="square" stroke-width="1.5"/>
<path d="m45.353 279v-271.8" fill="none" stroke="#000" stroke-linecap="square" stroke-width=".8"/>
<path d="m45.353 279h271.8" fill="none" stroke="#000" stroke-linecap="square" stroke-width=".8"/>
<path d="m223.1 75.206h87.055q2 0 2-2v-59.006q0-2-2-2h-87.055q-2 0-2 2v59.006q0 2 2 2z" fill="none" opacity=".8"/>
<path d="m225.1 20.298h20" fill="none" stroke="#1f77b4" stroke-linecap="square" stroke-width="1.5"/>
<g transform="translate(253.1 23.798) scale(.1 -.1)">
<defs>
<path id="i" transform="scale(.015625)" d="m1069 0h-519v4863h519v-4863z"/>
<path id="b" transform="scale(.015625)" d="m1069 0h-519v3425h519v-3425zm-563 4353q0 178 87 261 88 83 220 83 125 0 215-85 91-84 91-259t-91-261q-90-86-215-86-132 0-220 86-87 86-87 261z"/>
<path id="h" transform="scale(.015625)" d="m2894 0v2216q0 418-191 624-190 207-597 207-537 0-787-291-250-290-250-959v-1797h-519v3425h422l84-469h25q160 253 447 392 288 140 641 140 619 0 931-299 313-298 313-955v-2234h-519z"/>
<path id="c" transform="scale(.015625)" d="m2656 0l-103 488h-25q-256-322-511-437-254-114-636-114-509 0-798 263t-289 747q0 1037 1659 1087l581 19v213q0 403-173 595t-555 192q-428 0-968-262l-160 397q253 137 554 215 302 78 606 78 612 0 907-272 296-271 296-871v-2338h-385zm-1172 366q485 0 761 265 277 266 277 744v309l-519-21q-619-22-892-193-273-170-273-529 0-282 170-429 170-146 476-146z"/>
<path id="g" transform="scale(.015625)" d="m2113 3488q228 0 409-38l-72-481q-212 47-375 47-416 0-711-338-295-337-295-840v-1838h-519v3425h428l60-634h25q190 334 459 515 269 182 591 182z"/>
</defs>
<use xlink:href="#i"/>
<use x="25.292969" xlink:href="#b"/>
<use x="50.585938" xlink:href="#h"/>
<use x="111.962891" xlink:href="#f"/>
<use x="168.066406" xlink:href="#c"/>
<use x="223.681641" xlink:href="#g"/>
</g>
<path d="m225.1 35.3h20" fill="none" stroke="#ff7f0e" stroke-linecap="square" stroke-width="1.5"/>
<g transform="translate(253.1 38.8) scale(.1 -.1)">
<defs>
<path id="s" transform="scale(.015625)" d="m1375 1753l-1191 1672h591l903-1312 900 1312h585l-1191-1672 1253-1753h-587l-960 1388-969-1388h-587l1253 1753z"/>
<path id="m" transform="scale(.015625)" d="m3506 1716q0-838-422-1309-421-470-1165-470-460 0-816 216t-550 619-194 944q0 837 419 1304 419 468 1163 468 718 0 1141-479 424-478 424-1293zm-2609 0q0-657 262-1001 263-343 772-343 510 0 774 342t264 1002q0 653-264 992t-780 339q-509 0-769-335-259-334-259-996z"/>
</defs>
<use xlink:href="#f"/>
<use x="56.103516" xlink:href="#s"/>
<use x="108.496094" xlink:href="#l"/>
<use x="169.775391" xlink:href="#m"/>
<use x="230.175781" xlink:href="#h"/>
<use x="291.552734" xlink:href="#f"/>
<use x="347.65625" xlink:href="#h"/>
<use x="409.033203" xlink:href="#e"/>
<use x="444.335938" xlink:href="#b"/>
<use x="469.628906" xlink:href="#c"/>
<use x="525.244141" xlink:href="#i"/>
</g>
<path d="m225.1 50.302h20" fill="none" stroke="#2ca02c" stroke-linecap="square" stroke-width="1.5"/>
<g transform="translate(253.1 53.802) scale(.1 -.1)">
<defs>
<path id="y" transform="scale(.015625)" d="m3353 3425v-328l-634-75q87-109 156-286t69-398q0-504-344-804t-944-300q-153 0-287 25-331-175-331-440 0-141 115-208 116-67 397-67h606q557 0 855-235 298-234 298-681 0-569-456-867-456-299-1331-299-672 0-1036 250t-364 707q0 312 200 541 200 228 562 309-131 59-220 184t-89 291q0 187 100 328t316 272q-266 109-433 371-167 263-167 601 0 562 337 867 338 305 956 305 269 0 485-63h1184zm-2731-4e3q0-278 234-422 235-144 672-144 653 0 967 196 314 195 314 529 0 278-172 386-171 108-646 108h-622q-353 0-550-168-197-169-197-485zm281 2903q0-359 203-544 203-184 566-184 759 0 759 738 0 771-768 771-366 0-563-197-197-196-197-584z"/>
<path id="x" transform="scale(.015625)" d="m2894 0v2216q0 418-191 624-190 207-597 207-540 0-789-294-248-294-248-962v-1791h-519v4863h519v-1472q0-266-25-441h31q153 247 436 389t645 142q628 0 942-299 315-298 315-948v-2234h-519z"/>
<path id="w" transform="scale(.015625)" d="m4916 0v2228q0 410-175 614-175 205-544 205-484 0-716-278-231-278-231-856v-1913h-519v2228q0 410-175 614-175 205-547 205-487 0-714-292-226-292-226-958v-1797h-519v3425h422l84-469h25q147 250 414 391 268 141 599 141 803 0 1050-582h25q153 269 443 425 291 157 663 157 581 0 870-299 289-298 289-955v-2234h-518z"/>
<path id="n" transform="scale(.015625)" d="m1919-63q-744 0-1152 458t-408 1296q0 859 414 1328 415 469 1180 469 247 0 494-54 247-53 387-125l-159-440q-172 69-375 114t-359 45q-1044 0-1044-1331 0-631 254-969 255-337 755-337 428 0 878 184v-459q-343-179-865-179z"/>
</defs>
<use xlink:href="#i"/>
<use x="25.292969" xlink:href="#m"/>
<use x="85.693359" xlink:href="#y"/>
<use x="140.478516" xlink:href="#c"/>
<use x="196.09375" xlink:href="#g"/>
<use x="236.914062" xlink:href="#b"/>
<use x="262.207031" xlink:href="#e"/>
<use x="297.509766" xlink:href="#x"/>
<use x="358.886719" xlink:href="#w"/>
<use x="451.904297" xlink:href="#b"/>
<use x="477.197266" xlink:href="#n"/>
</g>
<path d="m225.1 65.303h20" fill="none" stroke="#d62728" stroke-linecap="square" stroke-width="1.5"/>
<g transform="translate(253.1 68.803) scale(.1 -.1)">
<defs>
<path id="v" transform="scale(.015625)" d="m1844 372q519 0 756 278 238 278 253 938v115q0 719-244 1034-243 316-771 316-457 0-699-355-242-354-242-1001t239-986 708-339zm-78-435q-663 0-1035 466t-372 1300q0 841 375 1313t1044 472q703 0 1081-532h29l75 469h409v-4963h-519v1466q0 313 35 531h-41q-359-522-1081-522z"/>
<path id="t" transform="scale(.015625)" d="m1038 3425v-2222q0-419 190-625 191-206 597-206 538 0 786 293 248 294 248 960v1800h519v-3425h-428l-75 459h-28q-159-253-442-388-283-134-646-134-625 0-936 297-310 297-310 950v2241h525z"/>
<path id="z" transform="scale(.015625)" d="m2881 459h-28q-359-522-1075-522-672 0-1046 459-373 460-373 1307t375 1316 1044 469q697 0 1069-507h41l-22 247-13 241v1394h519v-4863h-422l-69 459zm-1037-87q531 0 770 289t239 933v109q0 728-242 1039t-773 311q-457 0-699-355-242-354-242-1001 0-656 240-991 241-334 707-334z"/>
</defs>
<use xlink:href="#v"/>
<use x="61.279297" xlink:href="#t"/>
<use x="122.65625" xlink:href="#c"/>
<use x="178.271484" xlink:href="#z"/>
<use x="239.550781" xlink:href="#g"/>
<use x="280.371094" xlink:href="#c"/>
<use x="335.986328" xlink:href="#e"/>
<use x="371.289062" xlink:href="#b"/>
<use x="396.582031" xlink:href="#n"/>
</g>
<defs>
<clipPath id="d">
<rect x="45.353" y="7.2" width="271.8" height="271.8"/>
</clipPath>
</defs>
</svg>
