<?xml version="1.0" encoding="utf-8" standalone="no"?>
<!DOCTYPE svg PUBLIC "-//W3C//DTD SVG 1.1//EN"
  "http://www.w3.org/Graphics/SVG/1.1/DTD/svg11.dtd">
<svg height="208.483125pt" version="1.1" viewBox="0 0 607.496875 208.483125" width="607.496875pt" xmlns="http://www.w3.org/2000/svg" xmlns:xlink="http://www.w3.org/1999/xlink">
 <metadata>
  <rdf:RDF xmlns:cc="http://creativecommons.org/ns#" xmlns:dc="http://purl.org/dc/elements/1.1/" xmlns:rdf="http://www.w3.org/1999/02/22-rdf-syntax-ns#">
   <cc:Work>
    <dc:type rdf:resource="http://purl.org/dc/dcmitype/StillImage"/>
    <dc:date>2021-06-09T16:39:40.920980</dc:date>
    <dc:format>image/svg+xml</dc:format>
    <dc:creator>
     <cc:Agent>
      <dc:title>Matplotlib v3.4.2, https://matplotlib.org/</dc:title>
     </cc:Agent>
    </dc:creator>
   </cc:Work>
  </rdf:RDF>
 </metadata>
 <defs>
  <style type="text/css">*{stroke-linecap:butt;stroke-linejoin:round;}</style>
 </defs>
 <g id="figure_1">
  <g id="patch_1">
   <path d="M 0 208.483125 
L 607.496875 208.483125 
L 607.496875 0 
L 0 0 
z
" style="fill:none;"/>
  </g>
  <g id="axes_1">
   <g id="patch_2">
    <path d="M 42.296875 170.28 
L 600.296875 170.28 
L 600.296875 7.2 
L 42.296875 7.2 
z
" style="fill:none;"/>
   </g>
   <g id="PolyCollection_1">
    <path clip-path="url(#p9dc3baf83e)" d="M 46.870645 156.69 
L 46.870645 156.69 
L 56.018186 142.97769 
L 65.165727 142.5564 
L 74.313268 140.80329 
L 83.460809 136.5768 
L 92.60835 130.90977 
L 101.755891 120.41829 
L 110.903432 109.13859 
L 120.050973 101.33793 
L 129.198514 95.56218 
L 138.346055 88.78077 
L 147.493596 82.67886 
L 156.641137 79.39008 
L 165.788678 75.4218 
L 174.936219 72.2961 
L 184.08376 69.04809 
L 193.231301 65.92239 
L 202.378842 64.01979 
L 211.526383 61.4241 
L 220.673924 59.6574 
L 229.821465 57.8907 
L 238.969006 55.7163 
L 248.116547 54.6291 
L 257.264088 53.16138 
L 266.411629 52.5906 
L 275.55917 50.8239 
L 284.706711 49.7367 
L 293.854252 49.08438 
L 303.001793 47.8341 
L 312.149334 46.48869 
L 321.296875 45.94509 
L 330.444416 45.252 
L 339.591957 44.3007 
L 348.739498 43.36299 
L 357.887039 43.3494 
L 367.03458 42.83298 
L 376.182121 41.88168 
L 385.329662 41.59629 
L 394.477203 41.18859 
L 403.624744 40.3596 
L 412.772285 40.23729 
L 421.919826 39.44907 
L 431.067367 39.5442 
L 440.214908 38.74239 
L 449.362449 38.7288 
L 458.50999 37.79109 
L 467.657531 38.3211 
L 476.805072 36.97569 
L 485.952613 37.2339 
L 495.100154 36.70389 
L 504.247695 36.29619 
L 513.395236 36.5544 
L 522.542777 36.17388 
L 531.690318 35.4672 
L 540.837859 35.48079 
L 549.9854 34.9236 
L 559.132941 34.82847 
L 568.280482 34.5159 
L 577.428023 35.07309 
L 586.575564 34.12179 
L 595.723105 34.52949 
L 595.723105 30.8466 
L 595.723105 30.8466 
L 586.575564 31.1184 
L 577.428023 31.1184 
L 568.280482 31.2543 
L 559.132941 31.662 
L 549.9854 31.51251 
L 540.837859 32.05611 
L 531.690318 31.92021 
L 522.542777 32.4774 
L 513.395236 32.4774 
L 504.247695 32.46381 
L 495.100154 33.4287 
L 485.952613 33.5646 
L 476.805072 33.26562 
L 467.657531 34.1082 
L 458.50999 34.23051 
L 449.362449 34.63821 
L 440.214908 35.56233 
L 431.067367 35.04591 
L 421.919826 35.6031 
L 412.772285 36.13311 
L 403.624744 36.26901 
L 394.477203 36.9621 
L 385.329662 37.5057 
L 376.182121 37.20672 
L 367.03458 37.9134 
L 357.887039 38.57931 
L 348.739498 39.1365 
L 339.591957 40.0878 
L 330.444416 40.75371 
L 321.296875 41.16141 
L 312.149334 42.11271 
L 303.001793 43.0776 
L 293.854252 44.42301 
L 284.706711 44.83071 
L 275.55917 45.61893 
L 266.411629 46.31202 
L 257.264088 47.41281 
L 248.116547 49.30182 
L 238.969006 50.26671 
L 229.821465 51.3675 
L 220.673924 53.6778 
L 211.526383 55.0368 
L 202.378842 57.483 
L 193.231301 59.3856 
L 184.08376 61.56 
L 174.936219 64.65852 
L 165.788678 67.79781 
L 156.641137 70.8012 
L 147.493596 75.00051 
L 138.346055 79.4988 
L 129.198514 85.7502 
L 120.050973 92.80341 
L 110.903432 100.00611 
L 101.755891 106.2711 
L 92.60835 118.47492 
L 83.460809 128.2869 
L 74.313268 137.09322 
L 65.165727 138.99582 
L 56.018186 139.79763 
L 46.870645 156.69 
z
" style="fill:#16a085;fill-opacity:0.15;"/>
   </g>
   <g id="matplotlib.axis_1">
    <g id="xtick_1">
     <g id="line2d_1">
      <defs>
       <path d="M 0 0 
L 0 3.5 
" id="mbc727979e2" style="stroke:#000000;stroke-width:0.8;"/>
      </defs>
      <g>
       <use style="stroke:#000000;stroke-width:0.8;" x="46.870645" xlink:href="#mbc727979e2" y="170.28"/>
      </g>
     </g>
     <g id="text_1">
      <!-- 0 -->
      <g transform="translate(44.012052 184.878438)scale(0.1 -0.1)">
       <defs>
        <path d="M 3341 2291 
Q 3341 1106 2967 521 
Q 2594 -63 1825 -63 
Q 1088 -63 703 535 
Q 319 1134 319 2291 
Q 319 3484 691 4062 
Q 1063 4641 1825 4641 
Q 2569 4641 2955 4037 
Q 3341 3434 3341 2291 
z
M 844 2291 
Q 844 1294 1078 839 
Q 1313 384 1825 384 
Q 2344 384 2576 845 
Q 2809 1306 2809 2291 
Q 2809 3275 2576 3733 
Q 2344 4191 1825 4191 
Q 1313 4191 1078 3739 
Q 844 3288 844 2291 
z
" id="OpenSans-Regular-30" transform="scale(0.015625)"/>
       </defs>
       <use xlink:href="#OpenSans-Regular-30"/>
      </g>
     </g>
    </g>
    <g id="xtick_2">
     <g id="line2d_2">
      <g>
       <use style="stroke:#000000;stroke-width:0.8;" x="138.346055" xlink:href="#mbc727979e2" y="170.28"/>
      </g>
     </g>
     <g id="text_2">
      <!-- 1 -->
      <g transform="translate(135.487462 184.878438)scale(0.1 -0.1)">
       <defs>
        <path d="M 2234 0 
L 1728 0 
L 1728 3256 
Q 1728 3663 1753 4025 
Q 1688 3959 1606 3887 
Q 1525 3816 863 3278 
L 588 3634 
L 1797 4569 
L 2234 4569 
L 2234 0 
z
" id="OpenSans-Regular-31" transform="scale(0.015625)"/>
       </defs>
       <use xlink:href="#OpenSans-Regular-31"/>
      </g>
     </g>
    </g>
    <g id="xtick_3">
     <g id="line2d_3">
      <g>
       <use style="stroke:#000000;stroke-width:0.8;" x="229.821465" xlink:href="#mbc727979e2" y="170.28"/>
      </g>
     </g>
     <g id="text_3">
      <!-- 2 -->
      <g transform="translate(226.962871 184.878438)scale(0.1 -0.1)">
       <defs>
        <path d="M 3316 0 
L 313 0 
L 313 447 
L 1516 1656 
Q 2066 2213 2241 2450 
Q 2416 2688 2503 2913 
Q 2591 3138 2591 3397 
Q 2591 3763 2369 3977 
Q 2147 4191 1753 4191 
Q 1469 4191 1214 4097 
Q 959 4003 647 3756 
L 372 4109 
Q 1003 4634 1747 4634 
Q 2391 4634 2756 4304 
Q 3122 3975 3122 3419 
Q 3122 2984 2878 2559 
Q 2634 2134 1966 1484 
L 966 506 
L 966 481 
L 3316 481 
L 3316 0 
z
" id="OpenSans-Regular-32" transform="scale(0.015625)"/>
       </defs>
       <use xlink:href="#OpenSans-Regular-32"/>
      </g>
     </g>
    </g>
    <g id="xtick_4">
     <g id="line2d_4">
      <g>
       <use style="stroke:#000000;stroke-width:0.8;" x="321.296875" xlink:href="#mbc727979e2" y="170.28"/>
      </g>
     </g>
     <g id="text_4">
      <!-- 3 -->
      <g transform="translate(318.438281 184.878438)scale(0.1 -0.1)">
       <defs>
        <path d="M 3144 3494 
Q 3144 3056 2898 2778 
Q 2653 2500 2203 2406 
L 2203 2381 
Q 2753 2313 3018 2031 
Q 3284 1750 3284 1294 
Q 3284 641 2831 289 
Q 2378 -63 1544 -63 
Q 1181 -63 879 -8 
Q 578 47 294 184 
L 294 678 
Q 591 531 927 454 
Q 1263 378 1563 378 
Q 2747 378 2747 1306 
Q 2747 2138 1441 2138 
L 991 2138 
L 991 2584 
L 1447 2584 
Q 1981 2584 2293 2820 
Q 2606 3056 2606 3475 
Q 2606 3809 2376 4000 
Q 2147 4191 1753 4191 
Q 1453 4191 1187 4109 
Q 922 4028 581 3809 
L 319 4159 
Q 600 4381 967 4507 
Q 1334 4634 1741 4634 
Q 2406 4634 2775 4329 
Q 3144 4025 3144 3494 
z
" id="OpenSans-Regular-33" transform="scale(0.015625)"/>
       </defs>
       <use xlink:href="#OpenSans-Regular-33"/>
      </g>
     </g>
    </g>
    <g id="xtick_5">
     <g id="line2d_5">
      <g>
       <use style="stroke:#000000;stroke-width:0.8;" x="412.772285" xlink:href="#mbc727979e2" y="170.28"/>
      </g>
     </g>
     <g id="text_5">
      <!-- 4 -->
      <g transform="translate(409.913691 184.878438)scale(0.1 -0.1)">
       <defs>
        <path d="M 3531 1050 
L 2853 1050 
L 2853 0 
L 2356 0 
L 2356 1050 
L 134 1050 
L 134 1503 
L 2303 4594 
L 2853 4594 
L 2853 1522 
L 3531 1522 
L 3531 1050 
z
M 2356 1522 
L 2356 3041 
Q 2356 3488 2388 4050 
L 2363 4050 
Q 2213 3750 2081 3553 
L 653 1522 
L 2356 1522 
z
" id="OpenSans-Regular-34" transform="scale(0.015625)"/>
       </defs>
       <use xlink:href="#OpenSans-Regular-34"/>
      </g>
     </g>
    </g>
    <g id="xtick_6">
     <g id="line2d_6">
      <g>
       <use style="stroke:#000000;stroke-width:0.8;" x="504.247695" xlink:href="#mbc727979e2" y="170.28"/>
      </g>
     </g>
     <g id="text_6">
      <!-- 5 -->
      <g transform="translate(501.389101 184.878438)scale(0.1 -0.1)">
       <defs>
        <path d="M 1741 2791 
Q 2463 2791 2877 2433 
Q 3291 2075 3291 1453 
Q 3291 744 2839 340 
Q 2388 -63 1594 -63 
Q 822 -63 416 184 
L 416 684 
Q 634 544 959 464 
Q 1284 384 1600 384 
Q 2150 384 2454 643 
Q 2759 903 2759 1394 
Q 2759 2350 1588 2350 
Q 1291 2350 794 2259 
L 525 2431 
L 697 4569 
L 2969 4569 
L 2969 4091 
L 1141 4091 
L 1025 2719 
Q 1384 2791 1741 2791 
z
" id="OpenSans-Regular-35" transform="scale(0.015625)"/>
       </defs>
       <use xlink:href="#OpenSans-Regular-35"/>
      </g>
     </g>
    </g>
    <g id="xtick_7">
     <g id="line2d_7">
      <g>
       <use style="stroke:#000000;stroke-width:0.8;" x="595.723105" xlink:href="#mbc727979e2" y="170.28"/>
      </g>
     </g>
     <g id="text_7">
      <!-- 6 -->
      <g transform="translate(592.864511 184.878438)scale(0.1 -0.1)">
       <defs>
        <path d="M 366 1953 
Q 366 3300 889 3967 
Q 1413 4634 2438 4634 
Q 2791 4634 2994 4575 
L 2994 4128 
Q 2753 4206 2444 4206 
Q 1709 4206 1321 3748 
Q 934 3291 897 2309 
L 934 2309 
Q 1278 2847 2022 2847 
Q 2638 2847 2992 2475 
Q 3347 2103 3347 1466 
Q 3347 753 2958 345 
Q 2569 -63 1906 -63 
Q 1197 -63 781 470 
Q 366 1003 366 1953 
z
M 1900 378 
Q 2344 378 2589 658 
Q 2834 938 2834 1466 
Q 2834 1919 2606 2178 
Q 2378 2438 1925 2438 
Q 1644 2438 1409 2322 
Q 1175 2206 1036 2003 
Q 897 1800 897 1581 
Q 897 1259 1022 981 
Q 1147 703 1376 540 
Q 1606 378 1900 378 
z
" id="OpenSans-Regular-36" transform="scale(0.015625)"/>
       </defs>
       <use xlink:href="#OpenSans-Regular-36"/>
      </g>
     </g>
    </g>
    <g id="text_8">
     <!-- Max Temperature -->
     <g transform="translate(279.489062 198.88)scale(0.1 -0.1)">
      <defs>
       <path d="M 2650 0 
L 1100 4050 
L 1075 4050 
Q 1119 3569 1119 2906 
L 1119 0 
L 628 0 
L 628 4569 
L 1428 4569 
L 2875 800 
L 2900 800 
L 4359 4569 
L 5153 4569 
L 5153 0 
L 4622 0 
L 4622 2944 
Q 4622 3450 4666 4044 
L 4641 4044 
L 3078 0 
L 2650 0 
z
" id="OpenSans-Regular-4d" transform="scale(0.015625)"/>
       <path d="M 2656 0 
L 2553 488 
L 2528 488 
Q 2272 166 2017 51 
Q 1763 -63 1381 -63 
Q 872 -63 583 200 
Q 294 463 294 947 
Q 294 1984 1953 2034 
L 2534 2053 
L 2534 2266 
Q 2534 2669 2361 2861 
Q 2188 3053 1806 3053 
Q 1378 3053 838 2791 
L 678 3188 
Q 931 3325 1232 3403 
Q 1534 3481 1838 3481 
Q 2450 3481 2745 3209 
Q 3041 2938 3041 2338 
L 3041 0 
L 2656 0 
z
M 1484 366 
Q 1969 366 2245 631 
Q 2522 897 2522 1375 
L 2522 1684 
L 2003 1663 
Q 1384 1641 1111 1470 
Q 838 1300 838 941 
Q 838 659 1008 512 
Q 1178 366 1484 366 
z
" id="OpenSans-Regular-61" transform="scale(0.015625)"/>
       <path d="M 1375 1753 
L 184 3425 
L 775 3425 
L 1678 2113 
L 2578 3425 
L 3163 3425 
L 1972 1753 
L 3225 0 
L 2638 0 
L 1678 1388 
L 709 0 
L 122 0 
L 1375 1753 
z
" id="OpenSans-Regular-78" transform="scale(0.015625)"/>
       <path id="OpenSans-Regular-20" transform="scale(0.015625)"/>
       <path d="M 2034 0 
L 1503 0 
L 1503 4097 
L 56 4097 
L 56 4569 
L 3481 4569 
L 3481 4097 
L 2034 4097 
L 2034 0 
z
" id="OpenSans-Regular-54" transform="scale(0.015625)"/>
       <path d="M 1997 -63 
Q 1238 -63 798 400 
Q 359 863 359 1684 
Q 359 2513 767 3000 
Q 1175 3488 1863 3488 
Q 2506 3488 2881 3064 
Q 3256 2641 3256 1947 
L 3256 1619 
L 897 1619 
Q 913 1016 1202 703 
Q 1491 391 2016 391 
Q 2569 391 3109 622 
L 3109 159 
Q 2834 41 2589 -11 
Q 2344 -63 1997 -63 
z
M 1856 3053 
Q 1444 3053 1198 2784 
Q 953 2516 909 2041 
L 2700 2041 
Q 2700 2531 2481 2792 
Q 2263 3053 1856 3053 
z
" id="OpenSans-Regular-65" transform="scale(0.015625)"/>
       <path d="M 4916 0 
L 4916 2228 
Q 4916 2638 4741 2842 
Q 4566 3047 4197 3047 
Q 3713 3047 3481 2769 
Q 3250 2491 3250 1913 
L 3250 0 
L 2731 0 
L 2731 2228 
Q 2731 2638 2556 2842 
Q 2381 3047 2009 3047 
Q 1522 3047 1295 2755 
Q 1069 2463 1069 1797 
L 1069 0 
L 550 0 
L 550 3425 
L 972 3425 
L 1056 2956 
L 1081 2956 
Q 1228 3206 1495 3347 
Q 1763 3488 2094 3488 
Q 2897 3488 3144 2906 
L 3169 2906 
Q 3322 3175 3612 3331 
Q 3903 3488 4275 3488 
Q 4856 3488 5145 3189 
Q 5434 2891 5434 2234 
L 5434 0 
L 4916 0 
z
" id="OpenSans-Regular-6d" transform="scale(0.015625)"/>
       <path d="M 2144 -63 
Q 1809 -63 1532 60 
Q 1256 184 1069 441 
L 1031 441 
Q 1069 141 1069 -128 
L 1069 -1538 
L 550 -1538 
L 550 3425 
L 972 3425 
L 1044 2956 
L 1069 2956 
Q 1269 3238 1534 3363 
Q 1800 3488 2144 3488 
Q 2825 3488 3195 3022 
Q 3566 2556 3566 1716 
Q 3566 872 3189 404 
Q 2813 -63 2144 -63 
z
M 2069 3047 
Q 1544 3047 1309 2756 
Q 1075 2466 1069 1831 
L 1069 1716 
Q 1069 994 1309 683 
Q 1550 372 2081 372 
Q 2525 372 2776 731 
Q 3028 1091 3028 1722 
Q 3028 2363 2776 2705 
Q 2525 3047 2069 3047 
z
" id="OpenSans-Regular-70" transform="scale(0.015625)"/>
       <path d="M 2113 3488 
Q 2341 3488 2522 3450 
L 2450 2969 
Q 2238 3016 2075 3016 
Q 1659 3016 1364 2678 
Q 1069 2341 1069 1838 
L 1069 0 
L 550 0 
L 550 3425 
L 978 3425 
L 1038 2791 
L 1063 2791 
Q 1253 3125 1522 3306 
Q 1791 3488 2113 3488 
z
" id="OpenSans-Regular-72" transform="scale(0.015625)"/>
       <path d="M 1656 366 
Q 1794 366 1922 386 
Q 2050 406 2125 428 
L 2125 31 
Q 2041 -9 1877 -36 
Q 1713 -63 1581 -63 
Q 588 -63 588 984 
L 588 3022 
L 97 3022 
L 97 3272 
L 588 3488 
L 806 4219 
L 1106 4219 
L 1106 3425 
L 2100 3425 
L 2100 3022 
L 1106 3022 
L 1106 1006 
Q 1106 697 1253 531 
Q 1400 366 1656 366 
z
" id="OpenSans-Regular-74" transform="scale(0.015625)"/>
       <path d="M 1038 3425 
L 1038 1203 
Q 1038 784 1228 578 
Q 1419 372 1825 372 
Q 2363 372 2611 665 
Q 2859 959 2859 1625 
L 2859 3425 
L 3378 3425 
L 3378 0 
L 2950 0 
L 2875 459 
L 2847 459 
Q 2688 206 2405 71 
Q 2122 -63 1759 -63 
Q 1134 -63 823 234 
Q 513 531 513 1184 
L 513 3425 
L 1038 3425 
z
" id="OpenSans-Regular-75" transform="scale(0.015625)"/>
      </defs>
      <use xlink:href="#OpenSans-Regular-4d"/>
      <use x="90.283203" xlink:href="#OpenSans-Regular-61"/>
      <use x="145.898438" xlink:href="#OpenSans-Regular-78"/>
      <use x="198.291016" xlink:href="#OpenSans-Regular-20"/>
      <use x="224.267578" xlink:href="#OpenSans-Regular-54"/>
      <use x="279.589844" xlink:href="#OpenSans-Regular-65"/>
      <use x="335.693359" xlink:href="#OpenSans-Regular-6d"/>
      <use x="428.710938" xlink:href="#OpenSans-Regular-70"/>
      <use x="489.990234" xlink:href="#OpenSans-Regular-65"/>
      <use x="546.09375" xlink:href="#OpenSans-Regular-72"/>
      <use x="586.914062" xlink:href="#OpenSans-Regular-61"/>
      <use x="642.529297" xlink:href="#OpenSans-Regular-74"/>
      <use x="677.832031" xlink:href="#OpenSans-Regular-75"/>
      <use x="739.208984" xlink:href="#OpenSans-Regular-72"/>
      <use x="780.029297" xlink:href="#OpenSans-Regular-65"/>
     </g>
    </g>
   </g>
   <g id="matplotlib.axis_2">
    <g id="ytick_1">
     <g id="line2d_8">
      <defs>
       <path d="M 0 0 
L -3.5 0 
" id="m023e08989d" style="stroke:#000000;stroke-width:0.8;"/>
      </defs>
      <g>
       <use style="stroke:#000000;stroke-width:0.8;" x="42.296875" xlink:href="#m023e08989d" y="156.69"/>
      </g>
     </g>
     <g id="text_9">
      <!-- 0.0 -->
      <g transform="translate(21.201563 160.489219)scale(0.1 -0.1)">
       <defs>
        <path d="M 475 331 
Q 475 541 570 648 
Q 666 756 844 756 
Q 1025 756 1126 648 
Q 1228 541 1228 331 
Q 1228 128 1125 18 
Q 1022 -91 844 -91 
Q 684 -91 579 7 
Q 475 106 475 331 
z
" id="OpenSans-Regular-2e" transform="scale(0.015625)"/>
       </defs>
       <use xlink:href="#OpenSans-Regular-30"/>
       <use x="57.177734" xlink:href="#OpenSans-Regular-2e"/>
       <use x="83.789062" xlink:href="#OpenSans-Regular-30"/>
      </g>
     </g>
    </g>
    <g id="ytick_2">
     <g id="line2d_9">
      <g>
       <use style="stroke:#000000;stroke-width:0.8;" x="42.296875" xlink:href="#m023e08989d" y="47.97"/>
      </g>
     </g>
     <g id="text_10">
      <!-- 0.8 -->
      <g transform="translate(21.201563 51.769219)scale(0.1 -0.1)">
       <defs>
        <path d="M 1825 4634 
Q 2450 4634 2815 4343 
Q 3181 4053 3181 3541 
Q 3181 3203 2972 2925 
Q 2763 2647 2303 2419 
Q 2859 2153 3093 1861 
Q 3328 1569 3328 1184 
Q 3328 616 2931 276 
Q 2534 -63 1844 -63 
Q 1113 -63 719 257 
Q 325 578 325 1166 
Q 325 1950 1281 2388 
Q 850 2631 662 2914 
Q 475 3197 475 3547 
Q 475 4044 842 4339 
Q 1209 4634 1825 4634 
z
M 838 1153 
Q 838 778 1098 568 
Q 1359 359 1831 359 
Q 2297 359 2556 578 
Q 2816 797 2816 1178 
Q 2816 1481 2572 1717 
Q 2328 1953 1722 2175 
Q 1256 1975 1047 1733 
Q 838 1491 838 1153 
z
M 1819 4213 
Q 1428 4213 1206 4025 
Q 984 3838 984 3525 
Q 984 3238 1168 3031 
Q 1353 2825 1850 2619 
Q 2297 2806 2483 3022 
Q 2669 3238 2669 3525 
Q 2669 3841 2442 4027 
Q 2216 4213 1819 4213 
z
" id="OpenSans-Regular-38" transform="scale(0.015625)"/>
       </defs>
       <use xlink:href="#OpenSans-Regular-30"/>
       <use x="57.177734" xlink:href="#OpenSans-Regular-2e"/>
       <use x="83.789062" xlink:href="#OpenSans-Regular-38"/>
      </g>
     </g>
    </g>
    <g id="ytick_3">
     <g id="line2d_10">
      <g>
       <use style="stroke:#000000;stroke-width:0.8;" x="42.296875" xlink:href="#m023e08989d" y="20.79"/>
      </g>
     </g>
     <g id="text_11">
      <!-- 1.0 -->
      <g transform="translate(21.201563 24.589219)scale(0.1 -0.1)">
       <use xlink:href="#OpenSans-Regular-31"/>
       <use x="57.177734" xlink:href="#OpenSans-Regular-2e"/>
       <use x="83.789062" xlink:href="#OpenSans-Regular-30"/>
      </g>
     </g>
    </g>
    <g id="text_12">
     <!-- Acceptance rate (%) -->
     <g transform="translate(14.798438 134.400938)rotate(-90)scale(0.1 -0.1)">
      <defs>
       <path d="M 3500 0 
L 2931 1453 
L 1100 1453 
L 538 0 
L 0 0 
L 1806 4588 
L 2253 4588 
L 4050 0 
L 3500 0 
z
M 2766 1931 
L 2234 3347 
Q 2131 3616 2022 4006 
Q 1953 3706 1825 3347 
L 1288 1931 
L 2766 1931 
z
" id="OpenSans-Regular-41" transform="scale(0.015625)"/>
       <path d="M 1919 -63 
Q 1175 -63 767 395 
Q 359 853 359 1691 
Q 359 2550 773 3019 
Q 1188 3488 1953 3488 
Q 2200 3488 2447 3434 
Q 2694 3381 2834 3309 
L 2675 2869 
Q 2503 2938 2300 2983 
Q 2097 3028 1941 3028 
Q 897 3028 897 1697 
Q 897 1066 1151 728 
Q 1406 391 1906 391 
Q 2334 391 2784 575 
L 2784 116 
Q 2441 -63 1919 -63 
z
" id="OpenSans-Regular-63" transform="scale(0.015625)"/>
       <path d="M 2894 0 
L 2894 2216 
Q 2894 2634 2703 2840 
Q 2513 3047 2106 3047 
Q 1569 3047 1319 2756 
Q 1069 2466 1069 1797 
L 1069 0 
L 550 0 
L 550 3425 
L 972 3425 
L 1056 2956 
L 1081 2956 
Q 1241 3209 1528 3348 
Q 1816 3488 2169 3488 
Q 2788 3488 3100 3189 
Q 3413 2891 3413 2234 
L 3413 0 
L 2894 0 
z
" id="OpenSans-Regular-6e" transform="scale(0.015625)"/>
       <path d="M 256 1753 
Q 256 2581 498 3303 
Q 741 4025 1197 4569 
L 1703 4569 
Q 1253 3966 1026 3244 
Q 800 2522 800 1759 
Q 800 1009 1031 293 
Q 1263 -422 1697 -1013 
L 1197 -1013 
Q 738 -481 497 228 
Q 256 938 256 1753 
z
" id="OpenSans-Regular-28" transform="scale(0.015625)"/>
       <path d="M 756 3206 
Q 756 2675 872 2409 
Q 988 2144 1247 2144 
Q 1759 2144 1759 3206 
Q 1759 4263 1247 4263 
Q 988 4263 872 4000 
Q 756 3738 756 3206 
z
M 2188 3206 
Q 2188 2494 1948 2130 
Q 1709 1766 1247 1766 
Q 809 1766 567 2137 
Q 325 2509 325 3206 
Q 325 3916 558 4275 
Q 791 4634 1247 4634 
Q 1700 4634 1944 4262 
Q 2188 3891 2188 3206 
z
M 3506 1375 
Q 3506 841 3622 577 
Q 3738 313 4000 313 
Q 4263 313 4388 573 
Q 4513 834 4513 1375 
Q 4513 1909 4388 2167 
Q 4263 2425 4000 2425 
Q 3738 2425 3622 2167 
Q 3506 1909 3506 1375 
z
M 4941 1375 
Q 4941 666 4702 301 
Q 4463 -63 4000 -63 
Q 3556 -63 3317 309 
Q 3078 681 3078 1375 
Q 3078 2084 3311 2443 
Q 3544 2803 4000 2803 
Q 4444 2803 4692 2436 
Q 4941 2069 4941 1375 
z
M 4134 4569 
L 1600 0 
L 1141 0 
L 3675 4569 
L 4134 4569 
z
" id="OpenSans-Regular-25" transform="scale(0.015625)"/>
       <path d="M 1638 1753 
Q 1638 931 1395 221 
Q 1153 -488 697 -1013 
L 197 -1013 
Q 631 -425 862 292 
Q 1094 1009 1094 1759 
Q 1094 2522 867 3244 
Q 641 3966 191 4569 
L 697 4569 
Q 1156 4022 1397 3298 
Q 1638 2575 1638 1753 
z
" id="OpenSans-Regular-29" transform="scale(0.015625)"/>
      </defs>
      <use xlink:href="#OpenSans-Regular-41"/>
      <use x="63.28125" xlink:href="#OpenSans-Regular-63"/>
      <use x="110.888672" xlink:href="#OpenSans-Regular-63"/>
      <use x="158.496094" xlink:href="#OpenSans-Regular-65"/>
      <use x="214.599609" xlink:href="#OpenSans-Regular-70"/>
      <use x="275.878906" xlink:href="#OpenSans-Regular-74"/>
      <use x="311.181641" xlink:href="#OpenSans-Regular-61"/>
      <use x="366.796875" xlink:href="#OpenSans-Regular-6e"/>
      <use x="428.173828" xlink:href="#OpenSans-Regular-63"/>
      <use x="475.78125" xlink:href="#OpenSans-Regular-65"/>
      <use x="531.884766" xlink:href="#OpenSans-Regular-20"/>
      <use x="557.861328" xlink:href="#OpenSans-Regular-72"/>
      <use x="598.681641" xlink:href="#OpenSans-Regular-61"/>
      <use x="654.296875" xlink:href="#OpenSans-Regular-74"/>
      <use x="689.599609" xlink:href="#OpenSans-Regular-65"/>
      <use x="745.703125" xlink:href="#OpenSans-Regular-20"/>
      <use x="771.679688" xlink:href="#OpenSans-Regular-28"/>
      <use x="801.269531" xlink:href="#OpenSans-Regular-25"/>
      <use x="883.59375" xlink:href="#OpenSans-Regular-29"/>
     </g>
    </g>
   </g>
   <g id="LineCollection_1">
    <path clip-path="url(#p9dc3baf83e)" d="M 46.870645 47.97 
L 595.723105 47.97 
" style="fill:none;stroke:#000000;stroke-dasharray:3.7,1.6;stroke-dashoffset:0;"/>
   </g>
   <g id="line2d_11">
    <path clip-path="url(#p9dc3baf83e)" d="M 46.870645 156.69 
L 56.018186 141.37407 
L 65.165727 140.818239 
L 74.313268 139.124925 
L 83.460809 132.851781 
L 92.60835 124.382493 
L 101.755891 112.999509 
L 110.903432 104.598171 
L 120.050973 96.661611 
L 129.198514 90.426519 
L 138.346055 84.397995 
L 147.493596 78.836967 
L 156.641137 75.412287 
L 165.788678 71.69814 
L 174.936219 68.041071 
L 184.08376 64.746855 
L 193.231301 62.874153 
L 202.378842 60.625008 
L 211.526383 58.382658 
L 220.673924 56.592855 
L 229.821465 54.546201 
L 238.969006 53.275536 
L 248.116547 51.796944 
L 257.264088 50.291172 
L 266.411629 49.483926 
L 275.55917 48.134439 
L 284.706711 47.170908 
L 293.854252 46.500921 
L 303.001793 45.330822 
L 312.149334 44.171595 
L 321.296875 43.543737 
L 330.444416 42.949854 
L 339.591957 42.243174 
L 348.739498 41.28372 
L 357.887039 41.130153 
L 367.03458 40.452012 
L 376.182121 39.681459 
L 385.329662 39.527892 
L 394.477203 39.038652 
L 403.624744 38.414871 
L 412.772285 38.14443 
L 421.919826 37.580445 
L 431.067367 37.363005 
L 440.214908 37.217592 
L 449.362449 36.452475 
L 458.50999 35.97003 
L 467.657531 36.020313 
L 476.805072 35.312274 
L 485.952613 35.499816 
L 495.100154 35.014653 
L 504.247695 34.480566 
L 513.395236 34.476489 
L 522.542777 34.360974 
L 531.690318 33.813297 
L 540.837859 33.792912 
L 549.9854 33.26562 
L 559.132941 33.256107 
L 568.280482 32.746482 
L 577.428023 32.932665 
L 586.575564 32.609223 
L 595.723105 32.618736 
" style="fill:none;stroke:#16a085;stroke-linecap:square;"/>
   </g>
   <g id="patch_3">
    <path d="M 42.296875 170.28 
L 42.296875 7.2 
" style="fill:none;stroke:#000000;stroke-linecap:square;stroke-linejoin:miter;stroke-width:0.8;"/>
   </g>
   <g id="patch_4">
    <path d="M 42.296875 170.28 
L 600.296875 170.28 
" style="fill:none;stroke:#000000;stroke-linecap:square;stroke-linejoin:miter;stroke-width:0.8;"/>
   </g>
  </g>
 </g>
 <defs>
  <clipPath id="p9dc3baf83e">
   <rect height="163.08" width="558" x="42.296875" y="7.2"/>
  </clipPath>
 </defs>
</svg>
