<svg xmlns="http://www.w3.org/2000/svg" xmlns:xlink="http://www.w3.org/1999/xlink" height="664.768" viewBox="0 0 837.825 498.576" width="1117.1" stroke-linecap="butt" stroke-linejoin="round" xmlns:v="https://vecta.io/nano"><style><![CDATA[.B{fill:#fff}.C{clip-path:url(#i)}.D{clip-path:url(#j)}.E{clip-path:url(#g)}.F{clip-path:url(#k)}.G{clip-path:url(#h)}.H{stroke-linecap:butt}.I{stroke-linejoin:round}.J{stroke:#444}.K{stroke-width:.8}.L{fill:none}.M{clip-path:url(#l)}.N{stroke:#999}.O{stroke-linecap:round}.P{stroke-width:3}]]></style><g class="L N"><path d="M90.316 15.506l9.851 12.233" class="E"/><path d="M90.316 15.506l8.617.813 8.771 1.174 7.298 1.219 2.756.548 4.49.896 6.847 1.591 1.016.237 1.581.411m-41.376-6.889L61.78 38.189m38.387-10.45l12.826 15.944m-41.162 6.92l28.335-22.864m44.029 54.531l-12.318-14.942m-8.274 6.704l8.275-6.704m-.001 0l-18.884-23.645m42.508 29.13l-11.307 9.457" class="E"/><path d="M139.963 85.904l4.231-3.634M38.887 9.626L61.78 38.189M38.887 9.626l9.799 62.487m35.281-6.333L71.831 50.603" class="E"/><path d="M61.78 38.189l.409.508 6.513 8.089 3.128 3.817m-7.331 19.208l13.96-2.169 4.439-.666 1.069-1.196m9.488 11.649l-3.212-3.819-1.896-2.365-1.119-1.397-.11-.138-3.15-3.93M109.27 54.4l-23.665 9.43-1.638 1.95m19.66 24.458l19.975-16.206m-7.16 32.141l-12.814-15.935m-.001 0L93.455 77.429m29.587 36.542l-6.601-7.798" class="E"/><path d="M130.781 93.939l-14.339 12.233m0 .001l-16.378 13.655m36.918 11.105l-7.651-9.338-.154-.185-6.135-7.439m12.69-1.05l-12.689 1.05m13.939 16.962l23.059-1.941m-1.439-17.944l1.439 17.944m-5.465-67.645l-2.647.181-3.658.248m.001 0l7.229 11.037" class="E"/><path d="M148.272 61.776l-25.32-26.415m31.624 25.986l.925 11.466m0 0l3.101 38.235m0 0l-16.378 1.287M64.499 69.811l-15.812 2.302m3.359 23.767l-3.359-23.767m23.521 51.642l-15.864 2.28m0 0L52.046 95.88" class="E"/><path d="M64.499 69.811l2.72 18.973m-2.72-18.973L61.78 38.189m10.428 85.566l-4.989-34.971m56.384-14.752l2.844 3.521 4.334 16.386m9.182-8.035l-9.182 8.035m0 0l4.951 18.982m6.493-.587l-6.493.587m6.493-.587l-2.261-26.43" class="E"/><path d="M67.219 88.784L52.046 95.88m27.19-12.095L67.22 88.784m26.235-11.355l-14.219 6.356M109.27 54.4l-4.231 13.145-1.549 1.991-6.066 4.952-3.969 2.941m19.538-33.746L109.27 54.4m3.723-10.717l9.959-8.322m8.742-12.967l-8.742 12.967" class="E"/></g><defs><path d="M0 .5A.5.5 0 0 0 .354.354.5.5 0 0 0 .5 0a.5.5 0 0 0-.146-.354A.5.5 0 0 0 0-.5a.5.5 0 0 0-.354.146A.5.5 0 0 0-.5 0a.5.5 0 0 0 .146.354A.5.5 0 0 0 0 .5z" id="A" class="H I"/></defs><g class="E B"><use x="90.316" xlink:href="#A" y="15.506"/></g><g class="E B"><use x="100.167" xlink:href="#A" y="27.739"/></g><g class="E B"><use x="131.877" xlink:href="#A" y="67.328"/></g><g class="E B"><use x="144.195" xlink:href="#A" y="82.27"/></g><g class="E B"><use x="38.887" xlink:href="#A" y="9.626"/></g><g class="E B"><use x="71.831" xlink:href="#A" y="50.603"/></g><g class="E B"><use x="83.967" xlink:href="#A" y="65.78"/></g><g class="E B"><use x="103.627" xlink:href="#A" y="90.238"/></g><g class="E B"><use x="116.442" xlink:href="#A" y="106.173"/></g><g class="E B"><use x="123.042" xlink:href="#A" y="113.971"/></g><g class="E B"><use x="136.982" xlink:href="#A" y="130.933"/></g><g class="E B"><use x="160.041" xlink:href="#A" y="128.992"/></g><g class="E B"><use x="148.272" xlink:href="#A" y="61.776"/></g><g class="E B"><use x="154.576" xlink:href="#A" y="61.347"/></g><g class="E B"><use x="155.501" xlink:href="#A" y="72.813"/></g><g class="E B"><use x="158.602" xlink:href="#A" y="111.048"/></g><g class="E B"><use x="100.064" xlink:href="#A" y="119.828"/></g><g class="E B"><use x="48.687" xlink:href="#A" y="72.113"/></g><g class="E B"><use x="56.344" xlink:href="#A" y="126.035"/></g><g class="E B"><use x="64.499" xlink:href="#A" y="69.811"/></g><g class="E B"><use x="72.208" xlink:href="#A" y="123.755"/></g><g class="E B"><use x="123.603" xlink:href="#A" y="74.032"/></g><g class="E B"><use x="130.781" xlink:href="#A" y="93.939"/></g><g class="E B"><use x="135.732" xlink:href="#A" y="112.921"/></g><g class="E B"><use x="139.963" xlink:href="#A" y="85.904"/></g><g class="E B"><use x="142.225" xlink:href="#A" y="112.334"/></g><g class="E B"><use x="52.046" xlink:href="#A" y="95.88"/></g><g class="E B"><use x="67.219" xlink:href="#A" y="88.784"/></g><g class="E B"><use x="93.455" xlink:href="#A" y="77.429"/></g><g class="E B"><use x="109.27" xlink:href="#A" y="54.4"/></g><g class="E B"><use x="112.993" xlink:href="#A" y="43.683"/></g><g class="E B"><use x="131.694" xlink:href="#A" y="22.394"/></g><g class="E B"><use x="79.236" xlink:href="#A" y="83.785"/></g><g class="E B"><use x="61.78" xlink:href="#A" y="38.189"/></g><g class="E B"><use x="122.952" xlink:href="#A" y="35.361"/></g><g class="L"><g stroke="#1f77b4" class="O P"><path d="M100.064 119.828l16.378-13.655m0 0l-12.814-15.935m-.001 0l19.975-16.206m.001 0l8.275-6.704m12.317 14.942l-12.318-14.942m23.624 5.485l-11.307 9.457m11.307-9.457l-.925-11.466m0 0l-2.647.181-3.658.248m.001 0l-25.32-26.415m0 0l8.742-12.967m-41.378-6.888l8.617.813 8.771 1.174 7.298 1.219 2.756.548 4.49.896 6.847 1.591 1.016.237 1.581.411m-41.376-6.889L61.78 38.189m0 0l2.719 31.622m0 0l13.96-2.169 4.439-.666 1.069-1.196m0 0L71.831 50.603m0 0l28.335-22.864m.001 0l12.826 15.944m0 0L109.27 54.4m0 0l-4.231 13.145-1.549 1.991-6.066 4.952-3.969 2.941m0 0l-14.219 6.356m0 0L67.22 88.784m-.001 0l4.989 34.971" class="E"/><path d="M72.208 123.755l-15.864 2.28m0 0L52.046 95.88m0 0l-3.359-23.767m0 0l-9.8-62.487" class="E"/></g><g class="N"><path d="M254.116 15.506l9.851 12.233" class="G"/><path d="M254.116 15.506l8.617.813 8.771 1.174 7.298 1.219 2.756.548 4.49.896 6.847 1.591 1.016.237 1.581.411m-41.376-6.889L225.58 38.189m38.387-10.45l12.826 15.944m-41.162 6.92l28.335-22.864m44.029 54.531l-12.318-14.942m-8.274 6.704l8.275-6.704m-.001 0l-18.884-23.645m42.508 29.13l-11.307 9.457" class="G"/><path d="M303.763 85.904l4.231-3.634M202.687 9.626l22.893 28.563M202.687 9.626l9.799 62.487m35.281-6.333l-12.136-15.177" class="G"/><path d="M225.58 38.189l.409.508 6.513 8.089 3.128 3.817m-7.331 19.208l13.96-2.169 4.439-.666 1.069-1.196m9.488 11.649l-3.212-3.819-1.896-2.365-1.119-1.397-.11-.138-3.15-3.93M273.07 54.4l-23.665 9.43-1.638 1.95m19.66 24.458l19.975-16.206m-7.16 32.141l-12.814-15.935m-.001 0l-10.173-12.809m29.588 36.542l-6.601-7.798" class="G"/><path d="M294.581 93.939l-14.339 12.233m0 .001l-16.378 13.655m36.918 11.105l-7.651-9.338-.154-.185-6.135-7.439m12.69-1.05l-12.689 1.05m13.939 16.962l23.059-1.941m-1.439-17.944l1.439 17.944m-5.465-67.645l-2.647.181-3.658.248m.001 0l7.229 11.037" class="G"/><path d="M312.072 61.776l-25.32-26.415m31.624 25.986l.925 11.466m0 0l3.101 38.235m0 0l-16.378 1.287m-77.725-42.524l-15.812 2.302m3.359 23.767l-3.359-23.767m23.521 51.642l-15.864 2.28m0 0l-4.298-30.155" class="G"/><path d="M228.299 69.811l2.72 18.973m-2.72-18.973l-2.719-31.622m10.428 85.566l-4.989-34.971m56.384-14.752l2.844 3.521 4.334 16.386m9.182-8.035l-9.182 8.035m0 0l4.951 18.982m6.493-.587l-6.493.587m6.493-.587l-2.261-26.43" class="G"/><path d="M231.019 88.784l-15.173 7.096m27.19-12.095l-12.016 4.999m26.235-11.355l-14.219 6.356M273.07 54.4l-4.231 13.145-1.549 1.991-6.066 4.952-3.969 2.941m19.538-33.746L273.07 54.4m3.723-10.717l9.959-8.322m8.742-12.967l-8.742 12.967" class="G"/></g></g><defs><path d="M0 .5A.5.5 0 0 0 .354.354.5.5 0 0 0 .5 0a.5.5 0 0 0-.146-.354A.5.5 0 0 0 0-.5a.5.5 0 0 0-.354.146A.5.5 0 0 0-.5 0a.5.5 0 0 0 .146.354A.5.5 0 0 0 0 .5z" id="B" class="H I"/></defs><g class="G B"><use x="254.116" xlink:href="#B" y="15.506"/></g><g class="G B"><use x="263.967" xlink:href="#B" y="27.739"/></g><g class="G B"><use x="295.677" xlink:href="#B" y="67.328"/></g><g class="G B"><use x="307.995" xlink:href="#B" y="82.27"/></g><g class="G B"><use x="202.687" xlink:href="#B" y="9.626"/></g><g class="G B"><use x="235.631" xlink:href="#B" y="50.603"/></g><g class="G B"><use x="247.767" xlink:href="#B" y="65.78"/></g><g class="G B"><use x="267.427" xlink:href="#B" y="90.238"/></g><g class="G B"><use x="280.242" xlink:href="#B" y="106.173"/></g><g class="G B"><use x="286.842" xlink:href="#B" y="113.971"/></g><g class="G B"><use x="300.782" xlink:href="#B" y="130.933"/></g><g class="G B"><use x="323.841" xlink:href="#B" y="128.992"/></g><g class="G B"><use x="312.072" xlink:href="#B" y="61.776"/></g><g class="G B"><use x="318.376" xlink:href="#B" y="61.347"/></g><g class="G B"><use x="319.301" xlink:href="#B" y="72.813"/></g><g class="G B"><use x="322.402" xlink:href="#B" y="111.048"/></g><g class="G B"><use x="263.864" xlink:href="#B" y="119.828"/></g><g class="G B"><use x="212.487" xlink:href="#B" y="72.113"/></g><g class="G B"><use x="220.144" xlink:href="#B" y="126.035"/></g><g class="G B"><use x="228.299" xlink:href="#B" y="69.811"/></g><g class="G B"><use x="236.008" xlink:href="#B" y="123.755"/></g><g class="G B"><use x="287.403" xlink:href="#B" y="74.032"/></g><g class="G B"><use x="294.581" xlink:href="#B" y="93.939"/></g><g class="G B"><use x="299.532" xlink:href="#B" y="112.921"/></g><g class="G B"><use x="303.763" xlink:href="#B" y="85.904"/></g><g class="G B"><use x="306.025" xlink:href="#B" y="112.334"/></g><g class="G B"><use x="215.846" xlink:href="#B" y="95.88"/></g><g class="G B"><use x="231.019" xlink:href="#B" y="88.784"/></g><g class="G B"><use x="257.255" xlink:href="#B" y="77.429"/></g><g class="G B"><use x="273.07" xlink:href="#B" y="54.4"/></g><g class="G B"><use x="276.793" xlink:href="#B" y="43.683"/></g><g class="G B"><use x="295.494" xlink:href="#B" y="22.394"/></g><g class="G B"><use x="243.036" xlink:href="#B" y="83.785"/></g><g class="G B"><use x="225.58" xlink:href="#B" y="38.189"/></g><g class="G B"><use x="286.752" xlink:href="#B" y="35.361"/></g><g class="L"><path d="M263.864 119.828l16.378-13.655m0 0l-12.814-15.935m-.001 0l19.975-16.206m.001 0l8.275-6.704m12.317 14.942l-12.318-14.942m8.086 18.576l4.231-3.634m-4.231 3.634l-9.182 8.035m0 0l4.951 18.982m0 0l-12.689 1.05m13.939 16.962l-7.651-9.338-.154-.185-6.135-7.439m13.94 16.962l23.059-1.941m-1.439-17.944l1.439 17.944m-4.54-56.179l3.101 38.235m-3.101-38.235l-.925-11.466m0 0l-2.647.181-3.658.248m.001 0l-25.32-26.415m0 0l8.742-12.967m-41.378-6.888l8.617.813 8.771 1.174 7.298 1.219 2.756.548 4.49.896 6.847 1.591 1.016.237 1.581.411m-41.376-6.889L225.58 38.189m0 0l2.719 31.622m0 0l13.96-2.169 4.439-.666 1.069-1.196m0 0l-12.136-15.177m0 0l28.335-22.864m.001 0l12.826 15.944m0 0L273.07 54.4m0 0l-4.231 13.145-1.549 1.991-6.066 4.952-3.969 2.941m0 0l-14.219 6.356m0 0l-12.016 4.999m-.001 0l4.989 34.971m0 0l-15.864 2.28m0 0l-4.298-30.155m0 0l-3.359-23.767m0 0l-9.799-62.487" class="G O P" stroke="#ff7f0e"/><g class="N"><path d="M417.916 15.506l9.851 12.233" class="C"/><path d="M417.916 15.506l8.617.813 8.771 1.174 7.298 1.219 2.756.548 4.49.896 6.847 1.591 1.016.237 1.581.411m-41.376-6.889L389.38 38.189m38.387-10.45l12.826 15.944m-41.162 6.92l28.335-22.864m44.029 54.531l-12.318-14.942m-8.274 6.704l8.275-6.704m-.001 0l-18.884-23.645m42.508 29.13l-11.307 9.457" class="C"/><path d="M467.563 85.904l4.231-3.634M366.487 9.626l22.893 28.563M366.487 9.626l9.799 62.487m35.281-6.333l-12.136-15.177" class="C"/><path d="M389.38 38.189l.409.508 6.513 8.089 3.128 3.817m-7.331 19.208l13.96-2.169 4.439-.666 1.069-1.196m9.488 11.649l-3.212-3.819-1.896-2.365-1.119-1.397-.11-.138-3.15-3.93M436.87 54.4l-23.665 9.43-1.638 1.95m19.66 24.458l19.975-16.206m-7.16 32.141l-12.814-15.935m-.001 0l-10.173-12.809m29.588 36.542l-6.601-7.798" class="C"/><path d="M458.381 93.939l-14.339 12.233m0 .001l-16.378 13.655m36.918 11.105l-7.651-9.338-.154-.185-6.135-7.439m12.69-1.05l-12.689 1.05m13.939 16.962l23.059-1.941m-1.439-17.944l1.439 17.944m-5.465-67.645l-2.647.181-3.658.248m.001 0l7.229 11.037" class="C"/><path d="M475.872 61.776l-25.32-26.415m31.624 25.986l.925 11.466m0 0l3.101 38.235m0 0l-16.378 1.287m-77.725-42.524l-15.812 2.302m3.359 23.767l-3.359-23.767m23.521 51.642l-15.864 2.28m0 0l-4.298-30.155" class="C"/><path d="M392.099 69.811l2.72 18.973m-2.72-18.973l-2.719-31.622m10.428 85.566l-4.989-34.971m56.384-14.752l2.844 3.521 4.334 16.386m9.182-8.035l-9.182 8.035m0 0l4.951 18.982m6.493-.587l-6.493.587m6.493-.587l-2.261-26.43" class="C"/><path d="M394.819 88.784l-15.173 7.096m27.19-12.095l-12.016 4.999m26.235-11.355l-14.219 6.356M436.87 54.4l-4.231 13.145-1.549 1.991-6.066 4.952-3.969 2.941m19.538-33.746L436.87 54.4m3.723-10.717l9.959-8.322m8.742-12.967l-8.742 12.967" class="C"/></g></g><defs><path d="M0 .5A.5.5 0 0 0 .354.354.5.5 0 0 0 .5 0a.5.5 0 0 0-.146-.354A.5.5 0 0 0 0-.5a.5.5 0 0 0-.354.146A.5.5 0 0 0-.5 0a.5.5 0 0 0 .146.354A.5.5 0 0 0 0 .5z" id="C" class="H I"/></defs><g class="C B"><use x="417.916" xlink:href="#C" y="15.506"/></g><g class="C B"><use x="427.767" xlink:href="#C" y="27.739"/></g><g class="C B"><use x="459.477" xlink:href="#C" y="67.328"/></g><g class="C B"><use x="471.795" xlink:href="#C" y="82.27"/></g><g class="C B"><use x="366.487" xlink:href="#C" y="9.626"/></g><g class="C B"><use x="399.431" xlink:href="#C" y="50.603"/></g><g class="C B"><use x="411.567" xlink:href="#C" y="65.78"/></g><g class="C B"><use x="431.227" xlink:href="#C" y="90.238"/></g><g class="C B"><use x="444.042" xlink:href="#C" y="106.173"/></g><g class="C B"><use x="450.642" xlink:href="#C" y="113.971"/></g><g class="C B"><use x="464.582" xlink:href="#C" y="130.933"/></g><g class="C B"><use x="487.641" xlink:href="#C" y="128.992"/></g><g class="C B"><use x="475.872" xlink:href="#C" y="61.776"/></g><g class="C B"><use x="482.176" xlink:href="#C" y="61.347"/></g><g class="C B"><use x="483.101" xlink:href="#C" y="72.813"/></g><g class="C B"><use x="486.202" xlink:href="#C" y="111.048"/></g><g class="C B"><use x="427.664" xlink:href="#C" y="119.828"/></g><g class="C B"><use x="376.287" xlink:href="#C" y="72.113"/></g><g class="C B"><use x="383.944" xlink:href="#C" y="126.035"/></g><g class="C B"><use x="392.099" xlink:href="#C" y="69.811"/></g><g class="C B"><use x="399.808" xlink:href="#C" y="123.755"/></g><g class="C B"><use x="451.203" xlink:href="#C" y="74.032"/></g><g class="C B"><use x="458.381" xlink:href="#C" y="93.939"/></g><g class="C B"><use x="463.332" xlink:href="#C" y="112.921"/></g><g class="C B"><use x="467.563" xlink:href="#C" y="85.904"/></g><g class="C B"><use x="469.825" xlink:href="#C" y="112.334"/></g><g class="C B"><use x="379.646" xlink:href="#C" y="95.88"/></g><g class="C B"><use x="394.819" xlink:href="#C" y="88.784"/></g><g class="C B"><use x="421.055" xlink:href="#C" y="77.429"/></g><g class="C B"><use x="436.87" xlink:href="#C" y="54.4"/></g><g class="C B"><use x="440.593" xlink:href="#C" y="43.683"/></g><g class="C B"><use x="459.294" xlink:href="#C" y="22.394"/></g><g class="C B"><use x="406.836" xlink:href="#C" y="83.785"/></g><g class="C B"><use x="389.38" xlink:href="#C" y="38.189"/></g><g class="C B"><use x="450.552" xlink:href="#C" y="35.361"/></g><g class="L"><g stroke="#2ca02c" class="O P"><path d="M427.664 119.828l16.378-13.655m6.6 7.798l-6.601-7.798m20.541 24.76l-7.651-9.338-.154-.185-6.135-7.439m13.94 16.962l23.059-1.941" class="C"/><path d="M486.202 111.048l1.439 17.944m-4.54-56.179l3.101 38.235m-3.101-38.235l-7.229-11.037m0 0l-25.32-26.415m0 0l8.742-12.967m-41.378-6.888l8.617.813 8.771 1.174 7.298 1.219 2.756.548 4.49.896 6.847 1.591 1.016.237 1.581.411m-41.376-6.889L389.38 38.189m0 0l.409.508 6.513 8.089 3.128 3.817m.001 0l28.335-22.864m.001 0l12.826 15.944m0 0l18.884 23.645m12.318 14.942l-12.318-14.942m8.086 18.576l4.231-3.634m-1.969 30.064l-2.261-26.43" class="C"/><path d="M469.825 112.334l-6.493.587m-4.951-18.982l4.951 18.982m-12.129-38.889l2.844 3.521 4.334 16.386m-27.154-3.701l19.975-16.206m-19.975 16.206l-10.173-12.809M436.87 54.4l-4.231 13.145-1.549 1.991-6.066 4.952-3.969 2.941M436.87 54.4l-23.665 9.43-1.638 1.95m-19.468 4.031l13.96-2.169 4.439-.666 1.069-1.196m-19.468 4.031l2.72 18.973m0 0l4.989 34.971" class="C"/><path d="M399.808 123.755l-15.864 2.28m0 0l-4.298-30.155m0 0l-3.359-23.767m0 0l-9.799-62.487" class="C"/></g><g class="N"><path d="M581.716 15.506l9.851 12.233" class="D"/><path d="M581.716 15.506l8.617.813 8.771 1.174 7.298 1.219 2.756.548 4.49.896 6.847 1.591 1.016.237 1.581.411m-41.376-6.889L553.18 38.189m38.387-10.45l12.826 15.944m-41.162 6.92l28.335-22.864m44.029 54.531l-12.318-14.942m-8.274 6.704l8.275-6.704m-.001 0l-18.884-23.645m42.508 29.13l-11.307 9.457" class="D"/><path d="M631.363 85.904l4.231-3.634M530.287 9.626l22.893 28.563M530.287 9.626l9.799 62.487m35.281-6.333l-12.136-15.177" class="D"/><path d="M553.18 38.189l.409.508 6.513 8.089 3.128 3.817m-7.331 19.208l13.96-2.169 4.439-.666 1.069-1.196m9.488 11.649l-3.212-3.819-1.896-2.365-1.119-1.397-.11-.138-3.15-3.93M600.67 54.4l-23.665 9.43-1.638 1.95m19.66 24.458l19.975-16.206m-7.16 32.141l-12.814-15.935m-.001 0l-10.173-12.809m29.588 36.542l-6.601-7.798" class="D"/><path d="M622.181 93.939l-14.339 12.233m0 .001l-16.378 13.655m36.918 11.105l-7.651-9.338-.154-.185-6.135-7.439m12.69-1.05l-12.689 1.05m13.939 16.962l23.059-1.941m-1.439-17.944l1.439 17.944m-5.465-67.645l-2.647.181-3.658.248m.001 0l7.229 11.037" class="D"/><path d="M639.672 61.776l-25.32-26.415m31.624 25.986l.925 11.466m0 0l3.101 38.235m0 0l-16.378 1.287m-77.725-42.524l-15.812 2.302m3.359 23.767l-3.359-23.767m23.521 51.642l-15.864 2.28m0 0l-4.298-30.155" class="D"/><path d="M555.899 69.811l2.72 18.973m-2.72-18.973l-2.719-31.622m10.428 85.566l-4.989-34.971m56.384-14.752l2.844 3.521 4.334 16.386m9.182-8.035l-9.182 8.035m0 0l4.951 18.982m6.493-.587l-6.493.587m6.493-.587l-2.261-26.43" class="D"/><path d="M558.619 88.784l-15.173 7.096m27.19-12.095l-12.016 4.999m26.235-11.355l-14.219 6.356M600.67 54.4l-4.231 13.145-1.549 1.991-6.066 4.952-3.969 2.941m19.538-33.746L600.67 54.4m3.723-10.717l9.959-8.322m8.742-12.967l-8.742 12.967" class="D"/></g></g><defs><path d="M0 .5A.5.5 0 0 0 .354.354.5.5 0 0 0 .5 0a.5.5 0 0 0-.146-.354A.5.5 0 0 0 0-.5a.5.5 0 0 0-.354.146A.5.5 0 0 0-.5 0a.5.5 0 0 0 .146.354A.5.5 0 0 0 0 .5z" id="D" class="H I"/></defs><g class="D B"><use x="581.716" xlink:href="#D" y="15.506"/></g><g class="D B"><use x="591.567" xlink:href="#D" y="27.739"/></g><g class="D B"><use x="623.277" xlink:href="#D" y="67.328"/></g><g class="D B"><use x="635.595" xlink:href="#D" y="82.27"/></g><g class="D B"><use x="530.287" xlink:href="#D" y="9.626"/></g><g class="D B"><use x="563.231" xlink:href="#D" y="50.603"/></g><g class="D B"><use x="575.367" xlink:href="#D" y="65.78"/></g><g class="D B"><use x="595.027" xlink:href="#D" y="90.238"/></g><g class="D B"><use x="607.842" xlink:href="#D" y="106.173"/></g><g class="D B"><use x="614.442" xlink:href="#D" y="113.971"/></g><g class="D B"><use x="628.382" xlink:href="#D" y="130.933"/></g><g class="D B"><use x="651.441" xlink:href="#D" y="128.992"/></g><g class="D B"><use x="639.672" xlink:href="#D" y="61.776"/></g><g class="D B"><use x="645.976" xlink:href="#D" y="61.347"/></g><g class="D B"><use x="646.901" xlink:href="#D" y="72.813"/></g><g class="D B"><use x="650.002" xlink:href="#D" y="111.048"/></g><g class="D B"><use x="591.464" xlink:href="#D" y="119.828"/></g><g class="D B"><use x="540.087" xlink:href="#D" y="72.113"/></g><g class="D B"><use x="547.744" xlink:href="#D" y="126.035"/></g><g class="D B"><use x="555.899" xlink:href="#D" y="69.811"/></g><g class="D B"><use x="563.608" xlink:href="#D" y="123.755"/></g><g class="D B"><use x="615.003" xlink:href="#D" y="74.032"/></g><g class="D B"><use x="622.181" xlink:href="#D" y="93.939"/></g><g class="D B"><use x="627.132" xlink:href="#D" y="112.921"/></g><g class="D B"><use x="631.363" xlink:href="#D" y="85.904"/></g><g class="D B"><use x="633.625" xlink:href="#D" y="112.334"/></g><g class="D B"><use x="543.446" xlink:href="#D" y="95.88"/></g><g class="D B"><use x="558.619" xlink:href="#D" y="88.784"/></g><g class="D B"><use x="584.855" xlink:href="#D" y="77.429"/></g><g class="D B"><use x="600.67" xlink:href="#D" y="54.4"/></g><g class="D B"><use x="604.393" xlink:href="#D" y="43.683"/></g><g class="D B"><use x="623.094" xlink:href="#D" y="22.394"/></g><g class="D B"><use x="570.636" xlink:href="#D" y="83.785"/></g><g class="D B"><use x="553.18" xlink:href="#D" y="38.189"/></g><g class="D B"><use x="614.352" xlink:href="#D" y="35.361"/></g><g class="L"><g stroke="#d62728" class="O P"><path d="M591.464 119.828l16.378-13.655m14.339-12.234l-14.339 12.233m7.161-32.14l2.844 3.521 4.334 16.386m-27.154-3.701l19.975-16.206m-19.975 16.206l-10.173-12.809M600.67 54.4l-4.231 13.145-1.549 1.991-6.066 4.952-3.969 2.941M600.67 54.4l-23.665 9.43-1.638 1.95m0 0l-12.136-15.177m0 0l28.335-22.864m.001 0l12.826 15.944m0 0l18.884 23.645m12.318 14.942l-12.318-14.942m8.086 18.576l4.231-3.634m-1.969 30.064l-2.261-26.43m2.261 26.43l-6.493.587m0 0l-12.689 1.05m13.939 16.962l-7.651-9.338-.154-.185-6.135-7.439m13.94 16.962l23.059-1.941" class="D"/><path d="M650.002 111.048l1.439 17.944m-4.54-56.179l3.101 38.235m-3.101-38.235l-7.229-11.037m0 0l-25.32-26.415m0 0l8.742-12.967m-41.378-6.888l8.617.813 8.771 1.174 7.298 1.219 2.756.548 4.49.896 6.847 1.591 1.016.237 1.581.411m-41.376-6.889L553.18 38.189m0 0l2.719 31.622" class="D"/><path d="M555.899 69.811l2.72 18.973m0 0l4.989 34.971m0 0l-15.864 2.28m0 0l-4.298-30.155m0 0l-3.359-23.767m0 0l-9.799-62.487" class="D"/></g><g class="N"><path d="M745.516 15.506l9.851 12.233" class="F"/><path d="M745.516 15.506l8.617.813 8.771 1.174 7.298 1.219 2.756.548 4.49.896 6.847 1.591 1.016.237 1.581.411m-41.376-6.889L716.98 38.189m38.387-10.45l12.826 15.944m-41.162 6.92l28.335-22.864m44.029 54.531l-12.318-14.942m-8.274 6.704l8.275-6.704m-.001 0l-18.884-23.645m42.508 29.13l-11.307 9.457" class="F"/><path d="M795.163 85.904l4.231-3.634M694.087 9.626l22.893 28.563M694.087 9.626l9.799 62.487m35.281-6.333l-12.136-15.177" class="F"/><path d="M716.98 38.189l.409.508 6.513 8.089 3.128 3.817m-7.331 19.208l13.96-2.169 4.439-.666 1.069-1.196m9.488 11.649l-3.212-3.819-1.896-2.365-1.119-1.397-.11-.138-3.15-3.93M764.47 54.4l-23.665 9.43-1.638 1.95m19.66 24.458l19.975-16.206m-7.16 32.141l-12.814-15.935m-.001 0l-10.173-12.809m29.588 36.542l-6.601-7.798" class="F"/><path d="M785.981 93.939l-14.339 12.233m0 .001l-16.378 13.655m36.918 11.105l-7.651-9.338-.154-.185-6.135-7.439m12.69-1.05l-12.689 1.05m13.939 16.962l23.059-1.941m-1.439-17.944l1.439 17.944m-5.465-67.645l-2.647.181-3.658.248m.001 0l7.229 11.037" class="F"/><path d="M803.472 61.776l-25.32-26.415m31.624 25.986l.925 11.466m0 0l3.101 38.235m0 0l-16.378 1.287m-77.725-42.524l-15.812 2.302m3.359 23.767l-3.359-23.767m23.521 51.642l-15.864 2.28m0 0l-4.298-30.155" class="F"/><path d="M719.699 69.811l2.72 18.973m-2.72-18.973l-2.719-31.622m10.428 85.566l-4.989-34.971m56.384-14.752l2.844 3.521 4.334 16.386m9.182-8.035l-9.182 8.035m0 0l4.951 18.982m6.493-.587l-6.493.587m6.493-.587l-2.261-26.43" class="F"/><path d="M722.419 88.784l-15.173 7.096m27.19-12.095l-12.016 4.999m26.235-11.355l-14.219 6.356M764.47 54.4l-4.231 13.145-1.549 1.991-6.066 4.952-3.969 2.941m19.538-33.746L764.47 54.4m3.723-10.717l9.959-8.322m8.742-12.967l-8.742 12.967" class="F"/></g></g><defs><path d="M0 .5A.5.5 0 0 0 .354.354.5.5 0 0 0 .5 0a.5.5 0 0 0-.146-.354A.5.5 0 0 0 0-.5a.5.5 0 0 0-.354.146A.5.5 0 0 0-.5 0a.5.5 0 0 0 .146.354A.5.5 0 0 0 0 .5z" id="E" class="H I"/></defs><g class="F B"><use x="745.516" xlink:href="#E" y="15.506"/></g><g class="F B"><use x="755.367" xlink:href="#E" y="27.739"/></g><g class="F B"><use x="787.077" xlink:href="#E" y="67.328"/></g><g class="F B"><use x="799.395" xlink:href="#E" y="82.27"/></g><g class="F B"><use x="694.087" xlink:href="#E" y="9.626"/></g><g class="F B"><use x="727.031" xlink:href="#E" y="50.603"/></g><g class="F B"><use x="739.167" xlink:href="#E" y="65.78"/></g><g class="F B"><use x="758.827" xlink:href="#E" y="90.238"/></g><g class="F B"><use x="771.642" xlink:href="#E" y="106.173"/></g><g class="F B"><use x="778.242" xlink:href="#E" y="113.971"/></g><g class="F B"><use x="792.182" xlink:href="#E" y="130.933"/></g><g class="F B"><use x="815.241" xlink:href="#E" y="128.992"/></g><g class="F B"><use x="803.472" xlink:href="#E" y="61.776"/></g><g class="F B"><use x="809.776" xlink:href="#E" y="61.347"/></g><g class="F B"><use x="810.701" xlink:href="#E" y="72.813"/></g><g class="F B"><use x="813.802" xlink:href="#E" y="111.048"/></g><g class="F B"><use x="755.264" xlink:href="#E" y="119.828"/></g><g class="F B"><use x="703.887" xlink:href="#E" y="72.113"/></g><g class="F B"><use x="711.544" xlink:href="#E" y="126.035"/></g><g class="F B"><use x="719.699" xlink:href="#E" y="69.811"/></g><g class="F B"><use x="727.408" xlink:href="#E" y="123.755"/></g><g class="F B"><use x="778.803" xlink:href="#E" y="74.032"/></g><g class="F B"><use x="785.981" xlink:href="#E" y="93.939"/></g><g class="F B"><use x="790.932" xlink:href="#E" y="112.921"/></g><g class="F B"><use x="795.163" xlink:href="#E" y="85.904"/></g><g class="F B"><use x="797.425" xlink:href="#E" y="112.334"/></g><g class="F B"><use x="707.246" xlink:href="#E" y="95.88"/></g><g class="F B"><use x="722.419" xlink:href="#E" y="88.784"/></g><g class="F B"><use x="748.655" xlink:href="#E" y="77.429"/></g><g class="F B"><use x="764.47" xlink:href="#E" y="54.4"/></g><g class="F B"><use x="768.193" xlink:href="#E" y="43.683"/></g><g class="F B"><use x="786.894" xlink:href="#E" y="22.394"/></g><g class="F B"><use x="734.436" xlink:href="#E" y="83.785"/></g><g class="F B"><use x="716.98" xlink:href="#E" y="38.189"/></g><g class="F B"><use x="778.152" xlink:href="#E" y="35.361"/></g><g stroke="#9467bd" class="L O P"><path d="M755.264 119.828l16.378-13.655m14.339-12.234l-14.339 12.233m7.161-32.14l2.844 3.521 4.334 16.386m-27.154-3.701l19.975-16.206m-19.975 16.206l-10.173-12.809M764.47 54.4l-4.231 13.145-1.549 1.991-6.066 4.952-3.969 2.941M764.47 54.4l-23.665 9.43-1.638 1.95m0 0l-12.136-15.177m0 0l28.335-22.864m.001 0l12.826 15.944m0 0l18.884 23.645m12.318 14.942l-12.318-14.942m8.086 18.576l4.231-3.634m-1.969 30.064l-2.261-26.43m2.261 26.43l-6.493.587m0 0l-12.689 1.05m13.939 16.962l-7.651-9.338-.154-.185-6.135-7.439m13.94 16.962l23.059-1.941" class="F"/><path d="M813.802 111.048l1.439 17.944m-4.54-56.179l3.101 38.235m-3.101-38.235l-.925-11.466m0 0l-2.647.181-3.658.248m.001 0l-25.32-26.415m0 0l8.742-12.967m-41.378-6.888l8.617.813 8.771 1.174 7.298 1.219 2.756.548 4.49.896 6.847 1.591 1.016.237 1.581.411m-41.376-6.889L716.98 38.189m0 0l2.719 31.622m0 0l2.72 18.973m0 0l4.989 34.971m0 0l-15.864 2.28m0 0l-4.298-30.155m0 0l-3.359-23.767m0 0l-9.799-62.487" class="F"/></g><path d="M84.638 389.412a8.66 8.66 0 0 0 8.66-8.66 8.66 8.66 0 0 0-8.66-8.66 8.66 8.66 0 0 0-8.66 8.66 8.66 8.66 0 0 0 8.66 8.66z" fill="#1f77b4" class="M"/><path d="M92.942 282.253a8.66 8.66 0 0 0 8.66-8.66 8.66 8.66 0 0 0-8.66-8.66 8.66 8.66 0 0 0-8.66 8.66 8.66 8.66 0 0 0 8.66 8.66z" fill="#ff7f0e" class="M"/><path d="M220.169 264.619a8.66 8.66 0 0 0 8.66-8.66 8.66 8.66 0 0 0-8.66-8.66 8.66 8.66 0 0 0-8.66 8.66 8.66 8.66 0 0 0 8.66 8.66z" fill="#2ca02c" class="M"/><path d="M267.066 257.188a8.66 8.66 0 0 0 8.66-8.66 8.66 8.66 0 0 0-8.66-8.66 8.66 8.66 0 0 0-8.66 8.66 8.66 8.66 0 0 0 8.66 8.66z" fill="#d62728" class="M"/><path d="M494.007 244.092a8.66 8.66 0 0 0 8.66-8.66 8.66 8.66 0 0 0-8.66-8.66 8.66 8.66 0 0 0-8.66 8.66 8.66 8.66 0 0 0 8.66 8.66z" fill="#9467bd" class="M"/><defs><path d="M0 0v3.5" id="F" class="H I J K"/></defs><g fill="#444"><use x="80.683" xlink:href="#F" y="470.827" class="J K"/><g transform="matrix(.14 0 0 -.14 76.229493 488.464588)"><defs><path d="M2034 4250q-487 0-733-480-245-479-245-1442 0-959 245-1439 246-480 733-480 491 0 736 480 246 480 246 1439 0 963-246 1442-245 480-736 480zm0 500q785 0 1199-621 414-620 414-1801 0-1178-414-1799Q2819-91 2034-91q-784 0-1198 620-414 621-414 1799 0 1181 414 1801 414 621 1198 621z" id="G" transform="scale(.015625)" class="H I"/></defs><use xlink:href="#G"/></g><use x="203.513" xlink:href="#F" y="470.827" class="J K"/><g transform="matrix(.14 0 0 -.14 195.006244 488.464588)"><defs><path d="M691 4666h2478v-532H1269V2991q137 47 274 70 138 23 276 23 781 0 1237-428 457-428 457-1159 0-753-469-1171Q2575-91 1722-91q-294 0-599 50Q819 9 494 109v635q281-153 581-228 300-75 634-75 541 0 856 284 316 284 316 772 0 487-316 771-315 285-856 285-253 0-505-56-251-56-513-175v2344z" id="H" transform="scale(.015625)" class="H I"/><path d="M581 4863h578V1991l1716 1509h734L1753 1863 3688 0h-750L1159 1709V0H581v4863z" id="I" transform="scale(.015625)" class="H I"/></defs><use xlink:href="#H"/><use x="63.623" xlink:href="#I"/></g><use x="326.344" xlink:href="#F" y="470.827" class="J K"/><g transform="matrix(.14 0 0 -.14 313.382683 488.464588)"><defs><path d="M794 531h1031v3560L703 3866v575l1116 225h631V531h1031V0H794v531z" id="J" transform="scale(.015625)" class="H I"/></defs><use xlink:href="#J"/><use x="63.623" xlink:href="#G"/><use x="127.246" xlink:href="#I"/></g><use x="449.174" xlink:href="#F" y="470.827" class="J K"/><g transform="matrix(.14 0 0 -.14 436.212871 488.464588)"><use xlink:href="#J"/><use x="63.623" xlink:href="#H"/><use x="127.246" xlink:href="#I"/></g><use x="572.004" xlink:href="#F" y="470.827" class="J K"/><g transform="matrix(.14 0 0 -.14 559.04306 488.464588)"><defs><path d="M1228 531h2203V0H469v531q359 372 979 998 621 627 780 809 303 340 423 576 121 236 121 464 0 372-261 606-261 235-680 235-297 0-627-103-329-103-704-313v638q381 153 712 231 332 78 607 78 725 0 1156-363 431-362 431-968 0-288-108-546-107-257-392-607-78-91-497-524-418-433-1181-1211z" id="K" transform="scale(.015625)" class="H I"/></defs><use xlink:href="#K"/><use x="63.623" xlink:href="#G"/><use x="127.246" xlink:href="#I"/></g><use x="694.834" xlink:href="#F" y="470.827" class="J K"/><g transform="matrix(.14 0 0 -.14 681.873249 488.464588)"><use xlink:href="#K"/><use x="63.623" xlink:href="#H"/><use x="127.246" xlink:href="#I"/></g><use x="817.664" xlink:href="#F" y="470.827" class="J K"/><g transform="matrix(.14 0 0 -.14 804.703437 488.464588)"><defs><path d="M2597 2516q453-97 707-404 255-306 255-756 0-690-475-1069Q2609-91 1734-91q-293 0-604 58-311 58-642 174v609q262-153 574-231 313-78 654-78 593 0 904 234 311 234 311 681 0 413-289 645-289 233-804 233h-544v519h569q465 0 712 186 247 186 247 536 0 359-255 551-254 193-729 193-260 0-557-57-297-56-653-174v562q360 100 674 150 314 50 592 50 719 0 1137-327 419-326 419-882 0-388-222-655-222-267-631-370z" id="L" transform="scale(.015625)" class="H I"/></defs><use xlink:href="#L"/><use x="63.623" xlink:href="#G"/><use x="127.246" xlink:href="#I"/></g><g transform="matrix(.14 0 0 -.14 744.135937 456.013963)"><defs><path d="M2638 2394h1553V172Q3828 56 3453-3q-375-60-869-60-1037 0-1615 617-578 618-578 1730 0 713 286 1249 286 536 823 818 538 283 1259 283 732 0 1363-268l-206-469q-619 262-1191 262-834 0-1303-497-469-496-469-1378 0-925 451-1403 452-478 1327-478 475 0 928 110v1406H2638v475z" id="M" transform="scale(.015625)" class="H I"/><path d="M1997-63q-759 0-1199 463-439 463-439 1284 0 829 408 1316 408 488 1096 488 643 0 1018-424 375-423 375-1117v-328H897q16-603 305-916 289-312 814-312 553 0 1093 231V159Q2834 41 2589-11q-245-52-592-52zm-141 3116q-412 0-658-269-245-268-289-743h1791q0 490-219 751-218 261-625 261z" id="N" transform="scale(.015625)" class="H I"/><path d="M2894 0v2216q0 418-191 624-190 207-597 207-537 0-787-291-250-290-250-959V0H550v3425h422l84-469h25q160 253 447 392 288 140 641 140 619 0 931-299 313-298 313-955V0h-519z" id="O" transform="scale(.015625)" class="H I"/><path d="M2113 3488q228 0 409-38l-72-481q-212 47-375 47-416 0-711-338-295-337-295-840V0H550v3425h428l60-634h25q190 334 459 515 269 182 591 182z" id="P" transform="scale(.015625)" class="H I"/><path d="M2656 0l-103 488h-25q-256-322-511-437-254-114-636-114-509 0-798 263-289 263-289 747 0 1037 1659 1087l581 19v213q0 403-173 595-173 192-555 192-428 0-968-262l-160 397q253 137 554 215 302 78 606 78 612 0 907-272 296-271 296-871V0h-385zM1484 366q485 0 761 265 277 266 277 744v309l-519-21q-619-22-892-193-273-170-273-529 0-282 170-429 170-146 476-146z" id="Q" transform="scale(.015625)" class="H I"/><path d="M1656 366q138 0 266 20 128 20 203 42V31q-84-40-248-67-164-27-296-27-993 0-993 1047v2038H97v250l491 216 218 731h300v-794h994v-403h-994V1006q0-309 147-475 147-165 403-165z" id="R" transform="scale(.015625)" class="H I"/><path d="M1069 0H550v3425h519V0zM506 4353q0 178 87 261 88 83 220 83 125 0 215-85 91-84 91-259 0-175-91-261-90-86-215-86-132 0-220 86-87 86-87 261z" id="S" transform="scale(.015625)" class="H I"/><path d="M3506 1716q0-838-422-1309Q2663-63 1919-63q-460 0-816 216-356 216-550 619-194 403-194 944 0 837 419 1304 419 468 1163 468 718 0 1141-479 424-478 424-1293zm-2609 0q0-657 262-1001 263-343 772-343 510 0 774 342 264 342 264 1002 0 653-264 992-264 339-780 339-509 0-769-335-259-334-259-996z" id="T" transform="scale(.015625)" class="H I"/></defs><use xlink:href="#M"/><use x="72.803" xlink:href="#N"/><use x="128.906" xlink:href="#O"/><use x="190.283" xlink:href="#N"/><use x="246.387" xlink:href="#P"/><use x="287.207" xlink:href="#Q"/><use x="342.822" xlink:href="#R"/><use x="378.125" xlink:href="#S"/><use x="403.418" xlink:href="#T"/><use x="463.818" xlink:href="#O"/></g></g><defs><path d="M0 0h-3.5" id="U" class="H I J K"/></defs><g fill="#444"><use x="36.464" xlink:href="#U" y="454.932" class="J K"/><g transform="matrix(.14 0 0 -.14 7.2 460.250945)"><defs><path d="M684 794h660V0H684v794z" id="V" transform="scale(.015625)" class="H I"/><path d="M2113 2584q-425 0-674-291-248-290-248-796 0-503 248-796 249-292 674-292 425 0 673 292 248 293 248 796 0 506-248 796-248 291-673 291zm1253 1979v-575q-238 112-480 171-242 60-480 60-625 0-955-422-329-422-376-1275 184 272 462 417 279 145 613 145 703 0 1111-427 408-426 408-1160 0-719-425-1154Q2819-91 2113-91q-810 0-1238 620-428 621-428 1799 0 1106 525 1764 525 658 1409 658 238 0 480-47 242-47 505-140z" id="W" transform="scale(.015625)" class="H I"/></defs><use xlink:href="#K"/><use x="63.623" xlink:href="#V"/><use x="95.41" xlink:href="#W"/></g><use x="36.464" xlink:href="#U" y="423.143" class="J K"/><g transform="matrix(.14 0 0 -.14 7.2 428.461471)"><defs><path d="M2034 2216q-450 0-708-241-257-241-257-662 0-422 257-663 258-241 708-241 450 0 709 242 260 243 260 662 0 421-258 662-257 241-711 241zm-631 268q-406 100-633 378-226 279-226 679 0 559 398 884 399 325 1092 325 697 0 1094-325 397-325 397-884 0-400-227-679-226-278-629-378 456-106 710-416 255-309 255-755 0-679-414-1042Q2806-91 2034-91q-771 0-1186 362-414 363-414 1042 0 446 256 755 257 310 713 416zm-231 997q0-362 226-565 227-203 636-203 407 0 636 203 230 203 230 565 0 363-230 566-229 203-636 203-409 0-636-203-226-203-226-566z" id="X" transform="scale(.015625)" class="H I"/></defs><use xlink:href="#K"/><use x="63.623" xlink:href="#V"/><use x="95.41" xlink:href="#X"/></g><use x="36.464" xlink:href="#U" y="391.353" class="J K"/><g transform="matrix(.14 0 0 -.14 7.2 396.671997)"><use xlink:href="#L"/><use x="63.623" xlink:href="#V"/><use x="95.41" xlink:href="#G"/></g><use x="36.464" xlink:href="#U" y="359.564" class="J K"/><g transform="matrix(.14 0 0 -.14 7.2 364.882524)"><use xlink:href="#L"/><use x="63.623" xlink:href="#V"/><use x="95.41" xlink:href="#K"/></g><use x="36.464" xlink:href="#U" y="327.774" class="J K"/><g transform="matrix(.14 0 0 -.14 7.2 333.09305)"><defs><path d="M2419 4116L825 1625h1594v2491zm-166 550h794V1625h666v-525h-666V0h-628v1100H313v609l1940 2957z" id="Y" transform="scale(.015625)" class="H I"/></defs><use xlink:href="#L"/><use x="63.623" xlink:href="#V"/><use x="95.41" xlink:href="#Y"/></g><use x="36.464" xlink:href="#U" y="295.985" class="J K"/><g transform="matrix(.14 0 0 -.14 7.2 301.303576)"><use xlink:href="#L"/><use x="63.623" xlink:href="#V"/><use x="95.41" xlink:href="#W"/></g><use x="36.464" xlink:href="#U" y="264.195" class="J K"/><g transform="matrix(.14 0 0 -.14 7.2 269.514103)"><use xlink:href="#L"/><use x="63.623" xlink:href="#V"/><use x="95.41" xlink:href="#X"/></g><use x="36.464" xlink:href="#U" y="232.406" class="J K"/><g transform="matrix(.14 0 0 -.14 7.2 237.724629)"><use xlink:href="#Y"/><use x="63.623" xlink:href="#V"/><use x="95.41" xlink:href="#G"/></g><use x="36.464" xlink:href="#U" y="200.616" class="J K"/><g transform="matrix(.14 0 0 -.14 7.2 205.935155)"><use xlink:href="#Y"/><use x="63.623" xlink:href="#V"/><use x="95.41" xlink:href="#K"/></g><g transform="matrix(0 -.14 -.14 0 57.835625 273.28245)"><defs><path d="M4275 2328q0-1131-614-1730Q3047 0 1894 0H628v4569h1400q1066 0 1656-591 591-590 591-1650zm-562-19q0 894-449 1347-448 453-1333 453h-772V459h647q950 0 1428 467 479 468 479 1383z" id="Z" transform="scale(.015625)" class="H I"/><path d="M2759 934q0-478-356-738Q2047-63 1403-63 722-63 341 153v481q247-125 529-197 283-71 546-71 406 0 624 129 219 130 219 396 0 200-173 342-173 142-677 336-478 178-680 311-201 133-300 301-98 169-98 403 0 419 341 661 341 243 934 243 553 0 1082-225l-185-422q-515 212-934 212-369 0-557-116-187-115-187-318 0-138 70-235 71-96 227-184 156-87 600-253 609-222 823-447 214-225 214-566z" id="a" transform="scale(.015625)" class="H I"/><path d="M1919-63q-744 0-1152 458-408 458-408 1296 0 859 414 1328 415 469 1180 469 247 0 494-54 247-53 387-125l-159-440q-172 69-375 114-203 45-359 45-1044 0-1044-1331 0-631 254-969 255-337 755-337 428 0 878 184V116Q2441-63 1919-63z" id="b" transform="scale(.015625)" class="H I"/><path d="M256 1753q0 828 242 1550 243 722 699 1266h506q-450-603-677-1325-226-722-226-1485 0-750 231-1466 232-715 666-1306h-500Q738-481 497 228 256 938 256 1753z" id="c" transform="scale(.015625)" class="H I"/><path d="M1063 1753q134 191 409 500l1106 1172h616L1806 1966 3291 0h-628L1453 1619l-390-338V0H550v4863h513V2284q0-171-25-531h25z" id="d" transform="scale(.015625)" class="H I"/><path d="M4916 0v2228q0 410-175 614-175 205-544 205-484 0-716-278-231-278-231-856V0h-519v2228q0 410-175 614-175 205-547 205-487 0-714-292-226-292-226-958V0H550v3425h422l84-469h25q147 250 414 391 268 141 599 141 803 0 1050-582h25q153 269 443 425 291 157 663 157 581 0 870-299 289-298 289-955V0h-518z" id="e" transform="scale(.015625)" class="H I"/><path d="M1638 1753q0-822-243-1532-242-709-698-1234H197Q631-425 862 292q232 717 232 1467 0 763-227 1485-226 722-676 1325h506q459-547 700-1271 241-723 241-1545z" id="f" transform="scale(.015625)" class="H I"/></defs><use xlink:href="#Z"/><use x="72.9" xlink:href="#S"/><use x="98.193" xlink:href="#a"/><use x="145.898" xlink:href="#R"/><use x="181.201" xlink:href="#Q"/><use x="236.816" xlink:href="#O"/><use x="298.193" xlink:href="#b"/><use x="345.801" xlink:href="#N"/><use x="401.904" xlink:href="#EF"/><use x="427.881" xlink:href="#c"/><use x="457.471" xlink:href="#d"/><use x="509.961" xlink:href="#e"/><use x="602.979" xlink:href="#f"/></g></g><g stroke-linecap="square" class="L"><path d="M80.757 499.576v-16.246h.074v-3.31h.074v-32.967h.098v-12.962h.59v-.175h.614v-3.022h.934v-6.447h.688v-.299h.147v-21.478h.663v-21.919h4.152v-3.624h.27v-.957h.074v-3.31h.074v-32.967h.098v-12.962h.59v-.175h.614v-3.022h.934v-6.447h.688v-.299h.147v-21.478h.663v-21.919h4.152v-3.624h24.91v-.961h98.068v-9.425h.098v-3.624h36.481v-3.807h10.416v-3.624h226.843v-9.472h.098v-3.624h323.658" stroke="gray" stroke-width="2" class="M"/><path d="M36.464 470.827V184.722m0 286.105h781.2" stroke-linejoin="miter" class="J K"/></g><defs><clipPath id="g"><path d="M36.464 7.2h126v126.159h-126z" class="H I"/></clipPath><clipPath id="h"><path d="M200.264 7.2h126v126.159h-126z" class="H I"/></clipPath><clipPath id="i"><path d="M364.064 7.2h126v126.159h-126z" class="H I"/></clipPath><clipPath id="j"><path d="M527.864 7.2h126v126.159h-126z" class="H I"/></clipPath><clipPath id="k"><path d="M691.664 7.2h126v126.159h-126z" class="H I"/></clipPath><clipPath id="l"><path d="M36.464 184.722h781.2v286.105h-781.2z" class="H I"/></clipPath></defs></svg>