<svg xmlns="http://www.w3.org/2000/svg" xmlns:xlink="http://www.w3.org/1999/xlink" height="355.967" viewBox="0 0 795.6 266.975" width="1060.8" stroke-linecap="butt" stroke-linejoin="round" xmlns:v="https://vecta.io/nano"><style><![CDATA[.B{fill:#fff}.C{clip-path:url(#d)}.D{clip-path:url(#e)}.E{clip-path:url(#c)}.F{clip-path:url(#b)}.G{stroke-linecap:butt}.H{stroke-linejoin:round}.I{stroke-linecap:round}.J{stroke-width:4}.K{stroke:#999}.L{fill:none}.M{stroke:#16a085}.N{stroke:#e67e22}]]></style><g class="K L"><path d="M78.711 57.445l13.072 16.233" class="F"/><path d="M78.711 57.445l11.435 1.078 11.639 1.557 9.684 1.617 3.658.728 5.958 1.189 9.086 2.112 1.348.314 2.098.545m-54.906-9.14l-37.867 30.1m50.938-13.867l17.02 21.157m-54.62 9.183l37.601-30.34m58.423 72.361l-16.345-19.827m-10.98 8.895l10.98-8.895m0 0l-25.059-31.376m56.408 38.654l-15.004 12.549m-5.615 4.822l5.615-4.822M10.466 49.643l30.378 37.903M10.466 49.643l13.003 82.919m46.817-8.405l-16.104-20.139M40.844 87.545l.543.674 8.643 10.734 4.151 5.065m-9.729 25.488l18.525-2.878 5.89-.884 1.419-1.587m12.589 15.458l-4.262-5.068-2.517-3.139-1.484-1.854-.145-.183-4.181-5.214m33.577-15.101L72.459 121.57l-2.173 2.588m26.088 32.454l26.507-21.505m-9.502 42.65l-17.004-21.145m-.001 0l-13.499-16.997m39.263 48.49l-8.759-10.348" class="F"/><path d="M132.406 161.524l-19.028 16.233m.001 0l-21.733 18.12m48.99 14.736l-10.153-12.391-.205-.246-8.141-9.872m16.839-1.392l-16.838 1.393m33.138 38.891l-14.64-16.383m0 0l30.599-2.576m-1.858 35.791l-14.101-16.832m15.959-18.959l2.526 31.739-4.383 4.052m-.053-59.602l1.91 23.811m-7.252-89.762l-3.512.24-4.854.329m0 0l9.593 14.646m-9.593-14.646l-33.6-35.051m38.572-37.738l-2.694-2.534m0 0l-24.277 23.065m30.365 51.689l-3.394-72.22m3.394 72.22l1.228 15.215m-.001 0l4.115 50.737m0-.001l-21.733 1.707m-55.946 9.944l-15.254 2.097m-31.94-68.468l-20.983 3.055m4.458 31.539l-4.458-31.538m31.213 68.527l-21.051 3.025m0 0L27.927 164.1m48.465 33.874l-21.71 3.115" class="F"/><path d="M76.392 197.974l-12.385-49.925m-19.555-18.543l3.61 25.177m-3.61-25.177l-3.608-41.961m13.838 113.544l-6.62-46.406m74.819-19.576l3.774 4.672 5.751 21.744m12.185-10.662l-12.185 10.662m0 .001l6.57 25.189m8.616-.779l-8.616.779" class="F"/><path d="M147.592 185.934l-3.001-35.072m-96.529 3.821L27.927 164.1m36.08-16.051l-15.945 6.634m34.813-15.068l-18.868 8.434m39.856-38.993l-5.615 17.443-2.055 2.642-8.05 6.571-5.267 3.903m25.927-44.78l-4.94 14.221m4.94-14.221l13.215-11.043m11.6-17.206l-11.601 17.207" class="F"/></g><defs><path d="M0 .5A.5.5 0 0 0 .354.354.5.5 0 0 0 .5 0a.5.5 0 0 0-.146-.354A.5.5 0 0 0 0-.5a.5.5 0 0 0-.354.146A.5.5 0 0 0-.5 0a.5.5 0 0 0 .146.354A.5.5 0 0 0 0 .5z" id="A" class="G H"/><path id="B" d="M307.654 109.056L276.25 121.57l-2.173 2.588"/></defs><g class="F B"><use x="78.711" xlink:href="#A" y="57.445"/></g><g class="F B"><use x="91.782" xlink:href="#A" y="73.678"/></g><g class="F B"><use x="133.861" xlink:href="#A" y="126.212"/></g><g class="F B"><use x="150.206" xlink:href="#A" y="146.039"/></g><g class="F B"><use x="10.466" xlink:href="#A" y="49.643"/></g><g class="F B"><use x="54.182" xlink:href="#A" y="104.018"/></g><g class="F B"><use x="70.286" xlink:href="#A" y="124.157"/></g><g class="F B"><use x="96.374" xlink:href="#A" y="156.612"/></g><g class="F B"><use x="113.379" xlink:href="#A" y="177.757"/></g><g class="F B"><use x="122.138" xlink:href="#A" y="188.105"/></g><g class="F B"><use x="140.636" xlink:href="#A" y="210.613"/></g><g class="F B"><use x="155.276" xlink:href="#A" y="226.996"/></g><g class="F B"><use x="169.377" xlink:href="#A" y="243.828"/></g><g class="F B"><use x="171.235" xlink:href="#A" y="208.037"/></g><g class="F B"><use x="155.617" xlink:href="#A" y="118.844"/></g><g class="F B"><use x="157.895" xlink:href="#A" y="43.521"/></g><g class="F B"><use x="163.983" xlink:href="#A" y="118.275"/></g><g class="F B"><use x="165.21" xlink:href="#A" y="133.49"/></g><g class="F B"><use x="169.325" xlink:href="#A" y="184.226"/></g><g class="F B"><use x="91.646" xlink:href="#A" y="195.877"/></g><g class="F B"><use x="23.469" xlink:href="#A" y="132.561"/></g><g class="F B"><use x="33.631" xlink:href="#A" y="204.114"/></g><g class="F B"><use x="76.392" xlink:href="#A" y="197.974"/></g><g class="F B"><use x="44.452" xlink:href="#A" y="129.506"/></g><g class="F B"><use x="54.682" xlink:href="#A" y="201.089"/></g><g class="F B"><use x="122.881" xlink:href="#A" y="135.107"/></g><g class="F B"><use x="132.406" xlink:href="#A" y="161.524"/></g><g class="F B"><use x="138.976" xlink:href="#A" y="186.712"/></g><g class="F B"><use x="144.591" xlink:href="#A" y="150.861"/></g><g class="F B"><use x="147.592" xlink:href="#A" y="185.934"/></g><g class="F B"><use x="27.927" xlink:href="#A" y="164.1"/></g><g class="F B"><use x="48.062" xlink:href="#A" y="154.683"/></g><g class="F B"><use x="82.875" xlink:href="#A" y="139.615"/></g><g class="F B"><use x="103.863" xlink:href="#A" y="109.056"/></g><g class="F B"><use x="108.803" xlink:href="#A" y="94.835"/></g><g class="F B"><use x="133.618" xlink:href="#A" y="66.586"/></g><g class="F B"><use x="64.007" xlink:href="#A" y="148.049"/></g><g class="F B"><use x="160.589" xlink:href="#A" y="46.055"/></g><g class="F B"><use x="40.844" xlink:href="#A" y="87.545"/></g><g class="F B"><use x="122.017" xlink:href="#A" y="83.793"/></g><g class="I J L M"><path d="M91.646 195.877l-15.254 2.097m0 0l-12.385-49.925m0 0l-15.945 6.634m0 0l6.62 46.406" class="F"/><path d="M54.682 201.089l-21.051 3.025m0 0L27.927 164.1m0 0l-4.458-31.538m20.983-3.056l-20.983 3.055m20.983-3.055l18.525-2.878 5.89-.884 1.419-1.587m12.589 15.458l-4.262-5.068-2.517-3.139-1.484-1.854-.145-.183-4.181-5.214m33.577-15.101l-5.615 17.443-2.055 2.642-8.05 6.571-5.267 3.903m25.927-44.78l-4.94 14.221m4.94-14.221l25.059 31.376m16.344 19.828l-16.345-19.827m31.349 7.278l-15.004 12.549m15.004-12.549l-9.593-14.646m0 0l-33.6-35.051m0 0l11.601-17.207m-54.907-9.141l11.435 1.078 11.639 1.557 9.684 1.617 3.658.728 5.958 1.189 9.086 2.112 1.348.314 2.098.545m-54.906-9.14l-37.867 30.1m0 0L10.466 49.643" class="F"/></g><g transform="matrix(.14 0 0 -.14 60.338512 33.51475)" fill="#444"><defs><path d="M1259 4147V2394h794q441 0 681 228 241 228 241 650 0 419-241 647-240 228-681 228h-794zm-631 519h1425q785 0 1186-355 402-355 402-1039 0-691-402-1044-401-353-1186-353h-794V0H628v4666z" id="C" transform="scale(.015625)" class="G H"/><path d="M2194 1759q-697 0-966-159-269-159-269-544 0-306 202-486 202-179 548-179 479 0 768 339 289 339 289 901v128h-572zm1147 238V0h-575v531q-197-318-491-470-294-152-719-152-537 0-855 302-317 302-317 808 0 590 395 890 396 300 1180 300h807v57q0 397-261 614-261 217-733 217-300 0-585-72-284-72-546-216v532q315 122 612 182 297 61 578 61 760 0 1135-394 375-393 375-1193z" id="D" transform="scale(.015625)" class="G H"/><path d="M2631 2963q-97 56-211 82-114 27-251 27-488 0-749-317-261-317-261-911V0H581v3500h578v-544q182 319 472 473 291 155 707 155 59 0 131-8 72-7 159-23l3-590z" id="E" transform="scale(.015625)" class="G H"/><path d="M3597 1894v-281H953q38-594 358-905 320-311 892-311 331 0 642 81 311 81 618 244V178Q3153 47 2828-22q-325-69-659-69-838 0-1327 487-489 488-489 1320 0 859 464 1363 464 505 1252 505 706 0 1117-455 411-454 411-1235zm-575 169q-6 471-264 752-258 282-683 282-481 0-770-272-289-272-333-766l2050 4z" id="F" transform="scale(.015625)" class="G H"/><path d="M3513 2113V0h-575v2094q0 497-194 743-194 247-581 247-466 0-735-297-269-296-269-809V0H581v3500h578v-544q207 316 486 472 280 156 646 156 603 0 912-373 310-373 310-1098z" id="G" transform="scale(.015625)" class="G H"/><path d="M1172 4494v-994h1184v-447H1172V1153q0-428 117-550 117-122 477-122h590V0h-590q-666 0-919 248-253 249-253 905v1900H172v447h422v994h578z" id="H" transform="scale(.015625)" class="G H"/><path d="M750 794h659V0H750v794zm0 2515h659v-793H750v793z" id="I" transform="scale(.015625)" class="G H"/><path d="M2188 4044l-857-2322h1716l-859 2322zm-357 622h716L4325 0h-656l-425 1197H1141L716 0H50l1781 4666z" id="J" transform="scale(.015625)" class="G H"/></defs><use xlink:href="#C"/><use x="55.803" xlink:href="#D"/><use x="117.082" xlink:href="#E"/><use x="155.945" xlink:href="#F"/><use x="217.469" xlink:href="#G"/><use x="280.848" xlink:href="#H"/><use x="320.057" xlink:href="#I"/><use x="353.748" xlink:href="#k"/><use x="385.535" xlink:href="#J"/></g><g class="K L"><path d="M282.502 57.445l13.072 16.233" class="E"/><path d="M282.502 57.445l11.435 1.078 11.639 1.557 9.684 1.617 3.658.728 5.958 1.189 9.086 2.112 1.348.314 2.098.545m-54.906-9.14l-37.867 30.1m50.939-13.867l17.02 21.157m-54.621 9.183l37.601-30.34m58.424 72.361l-16.345-19.827m-10.981 8.895l10.98-8.895m.001 0l-25.059-31.376m56.408 38.654l-15.004 12.549" class="E"/><path d="M348.383 150.861l5.615-4.822M214.257 49.643l30.378 37.903m-30.378-37.903l13.003 82.919m46.817-8.405l-16.104-20.139m-13.338-16.473l.543.674 8.643 10.734 4.151 5.065m-9.729 25.488l18.525-2.878 5.89-.884 1.419-1.587m12.59 15.458l-4.262-5.068-2.517-3.139-1.484-1.854-.145-.183-4.181-5.214" class="E"/><use xlink:href="#B" class="E"/><path d="M300.166 156.612l26.507-21.505m-9.503 42.65l-17.004-21.145m0 0l-13.499-16.997m39.262 48.49l-8.759-10.348" class="E"/><path d="M336.198 161.524l-19.028 16.233m0 0l-21.733 18.12m48.99 14.736l-10.153-12.391-.205-.246-8.141-9.872m16.84-1.392l-16.838 1.393m33.137 38.891l-14.64-16.383m0 0l30.599-2.576" class="E"/><path d="M373.169 243.828l-14.101-16.832m15.958-18.959l2.526 31.739-4.383 4.052m-.053-59.602l1.91 23.811m-7.252-89.762l-3.512.24-4.854.329" class="E"/><path d="M359.408 118.844l9.593 14.646m-9.593-14.646l-33.6-35.051m38.572-37.738l-2.694-2.534m0 0l-24.277 23.065m30.365 51.689l-3.394-72.22m3.394 72.22l1.228 15.215m0 0l4.115 50.737m-.001-.001l-21.733 1.707m-55.946 9.944l-15.254 2.097m-31.94-68.468l-20.983 3.055m4.459 31.539l-4.458-31.538m31.212 68.527l-21.051 3.025m0 0l-5.704-40.014m48.465 33.874l-21.71 3.115" class="E"/><path d="M280.183 197.974l-12.385-49.925m-19.555-18.543l3.61 25.177m-3.61-25.177l-3.608-41.961m13.838 113.544l-6.62-46.406m74.819-19.576l3.774 4.672 5.751 21.744m12.186-10.662l-12.185 10.662m0 .001l6.57 25.189m8.615-.779l-8.616.779" class="E"/><path d="M351.383 185.934l-3.001-35.072m-96.529 3.821l-20.135 9.417m36.08-16.051l-15.945 6.634m34.814-15.068l-18.868 8.434m39.855-38.993l-5.615 17.443-2.055 2.642-8.05 6.571-5.267 3.903m25.927-44.78l-4.94 14.221m4.94-14.221l13.215-11.043m11.6-17.206l-11.601 17.207" class="E"/></g><defs><path d="M0 .5A.5.5 0 0 0 .354.354.5.5 0 0 0 .5 0a.5.5 0 0 0-.146-.354A.5.5 0 0 0 0-.5a.5.5 0 0 0-.354.146A.5.5 0 0 0-.5 0a.5.5 0 0 0 .146.354A.5.5 0 0 0 0 .5z" id="K" class="G H"/></defs><g class="E B"><use x="282.502" xlink:href="#K" y="57.445"/></g><g class="E B"><use x="295.574" xlink:href="#K" y="73.678"/></g><g class="E B"><use x="337.653" xlink:href="#K" y="126.212"/></g><g class="E B"><use x="353.998" xlink:href="#K" y="146.039"/></g><g class="E B"><use x="214.257" xlink:href="#K" y="49.643"/></g><g class="E B"><use x="257.973" xlink:href="#K" y="104.018"/></g><g class="E B"><use x="274.077" xlink:href="#K" y="124.157"/></g><g class="E B"><use x="300.166" xlink:href="#K" y="156.612"/></g><g class="E B"><use x="317.17" xlink:href="#K" y="177.757"/></g><g class="E B"><use x="325.929" xlink:href="#K" y="188.105"/></g><g class="E B"><use x="344.427" xlink:href="#K" y="210.613"/></g><g class="E B"><use x="359.067" xlink:href="#K" y="226.996"/></g><g class="E B"><use x="373.169" xlink:href="#K" y="243.828"/></g><g class="E B"><use x="375.026" xlink:href="#K" y="208.037"/></g><g class="E B"><use x="359.408" xlink:href="#K" y="118.844"/></g><g class="E B"><use x="361.686" xlink:href="#K" y="43.521"/></g><g class="E B"><use x="367.774" xlink:href="#K" y="118.275"/></g><g class="E B"><use x="369.002" xlink:href="#K" y="133.49"/></g><g class="E B"><use x="373.116" xlink:href="#K" y="184.226"/></g><g class="E B"><use x="295.437" xlink:href="#K" y="195.877"/></g><g class="E B"><use x="227.261" xlink:href="#K" y="132.561"/></g><g class="E B"><use x="237.422" xlink:href="#K" y="204.114"/></g><g class="E B"><use x="280.183" xlink:href="#K" y="197.974"/></g><g class="E B"><use x="248.243" xlink:href="#K" y="129.506"/></g><g class="E B"><use x="258.473" xlink:href="#K" y="201.089"/></g><g class="E B"><use x="326.672" xlink:href="#K" y="135.107"/></g><g class="E B"><use x="336.198" xlink:href="#K" y="161.524"/></g><g class="E B"><use x="342.768" xlink:href="#K" y="186.712"/></g><g class="E B"><use x="348.383" xlink:href="#K" y="150.861"/></g><g class="E B"><use x="351.383" xlink:href="#K" y="185.934"/></g><g class="E B"><use x="231.719" xlink:href="#K" y="164.1"/></g><g class="E B"><use x="251.853" xlink:href="#K" y="154.683"/></g><g class="E B"><use x="286.667" xlink:href="#K" y="139.615"/></g><g class="E B"><use x="307.654" xlink:href="#K" y="109.056"/></g><g class="E B"><use x="312.594" xlink:href="#K" y="94.835"/></g><g class="E B"><use x="337.409" xlink:href="#K" y="66.586"/></g><g class="E B"><use x="267.798" xlink:href="#K" y="148.049"/></g><g class="E B"><use x="364.38" xlink:href="#K" y="46.055"/></g><g class="E B"><use x="244.635" xlink:href="#K" y="87.545"/></g><g class="E B"><use x="325.809" xlink:href="#K" y="83.793"/></g><g class="I J L N"><path d="M295.437 195.877l-15.254 2.097m0 0l-12.385-49.925m18.869-8.434l-18.868 8.434m18.868-8.434l13.499 16.997m0 0l26.507-21.505m-.001 0l10.98-8.895m16.346 19.827l-16.345-19.827m10.73 24.649l5.615-4.822m-2.615 39.895l-3.001-35.072m3.001 35.072l-8.616.779m-6.569-25.189l6.57 25.189m-6.57-25.189l-19.028 16.233m8.759 10.348l-8.759-10.348m27.257 32.856l-10.153-12.391-.205-.246-8.141-9.872m18.499 22.509l30.599-2.576m-1.91-23.811l1.91 23.811m-6.024-74.547l4.115 50.737m-4.115-50.737l-1.228-15.215m0 0l-3.394-72.22m0 0l-2.694-2.534m0 0l-24.277 23.065m0 0l-11.601 17.207m.001 0l-13.215 11.043m0-.001l-4.94 14.221" class="E"/><use xlink:href="#B" class="E"/><path d="M248.243 129.506l18.525-2.878 5.89-.884 1.419-1.587m-25.834 5.349l3.61 25.177m0 0l6.62 46.406m0 0l-21.051 3.025m0 0l-5.704-40.014m.001 0l-4.458-31.538m0-.001l-13.003-82.919" class="E"/></g><g transform="matrix(.14 0 0 -.14 264.115598 33.51475)" fill="#444"><defs><path d="M1259 2228V519h1013q509 0 754 211 246 211 246 645 0 438-246 645-245 208-754 208H1259zm0 1919V2741h935q462 0 688 173 227 174 227 530 0 353-227 528-226 175-688 175h-935zm-631 519h1613q722 0 1112-300 391-300 391-853 0-429-200-682-200-253-588-315 466-100 724-418 258-317 258-792 0-625-425-966Q3088 0 2303 0H628v4666z" id="L" transform="scale(.015625)" class="G H"/></defs><use xlink:href="#C"/><use x="55.803" xlink:href="#D"/><use x="117.082" xlink:href="#E"/><use x="155.945" xlink:href="#F"/><use x="217.469" xlink:href="#G"/><use x="280.848" xlink:href="#H"/><use x="320.057" xlink:href="#I"/><use x="353.748" xlink:href="#k"/><use x="385.535" xlink:href="#L"/></g><g class="K L"><path d="M486.293 57.445l13.072 16.233" class="C"/><path d="M486.293 57.445l11.435 1.078 11.639 1.557 9.684 1.617 3.658.728 5.958 1.189 9.086 2.112 1.348.314 2.098.545m-54.906-9.14l-37.867 30.1m50.939-13.867l17.02 21.157m-54.621 9.183l37.601-30.34m58.424 72.361l-16.345-19.827m-10.98 8.895l10.98-8.895m0 0l-25.059-31.376m56.408 38.654l-15.004 12.549m-5.615 4.822l5.615-4.822M418.048 49.643l30.378 37.903m-30.378-37.903l13.003 82.919m46.817-8.405l-16.104-20.139" class="C"/><path d="M448.427 87.545l.543.674 8.643 10.734 4.151 5.065m-9.729 25.488l18.525-2.878 5.89-.884 1.419-1.587m12.589 15.458l-4.262-5.068-2.517-3.139-1.484-1.854-.145-.183-4.181-5.214m33.576-15.101l-31.404 12.513-2.173 2.588m26.089 32.455l26.507-21.505m-9.503 42.65l-17.004-21.145m0 0l-13.499-16.997m39.262 48.49l-8.759-10.348" class="C"/><path d="M539.989 161.524l-19.028 16.233m0 0l-21.733 18.12m48.99 14.736l-10.153-12.391-.205-.246-8.141-9.872m16.84-1.392l-16.838 1.393m33.138 38.891l-14.64-16.383m-.001 0l30.599-2.576" class="C"/><path d="M576.96 243.828l-14.101-16.832m15.958-18.959l2.526 31.739-4.383 4.052m-.052-59.602l1.91 23.811m-7.253-89.762l-3.512.24-4.854.329" class="C"/><path d="M563.2 118.844l9.593 14.646m-9.593-14.646l-33.6-35.051m38.571-37.738l-2.694-2.534m0 0L541.2 66.586" class="C"/><path d="M571.565 118.275l-3.394-72.22m3.394 72.22l1.228 15.215m0 0l4.115 50.737m0-.001l-21.733 1.707m-55.947 9.944l-15.254 2.097m-31.939-68.468l-20.983 3.055m4.458 31.539l-4.458-31.538m31.212 68.527l-21.051 3.025m.001 0L435.51 164.1m48.465 33.874l-21.71 3.115" class="C"/><path d="M483.975 197.974l-12.385-49.925m-19.555-18.543l3.61 25.177m-3.61-25.177l-3.608-41.961m13.837 113.544l-6.62-46.406m74.82-19.576l3.774 4.672 5.751 21.744m12.185-10.662l-12.185 10.662m0 .001l6.57 25.189m8.616-.779l-8.616.779" class="C"/><path d="M555.175 185.934l-3.001-35.072m-96.529 3.821L435.51 164.1m36.08-16.051l-15.945 6.634m34.813-15.068l-18.868 8.434m39.855-38.993l-5.615 17.443-2.055 2.642-8.05 6.571-5.267 3.903m25.927-44.78l-4.94 14.221m4.94-14.221L529.6 83.793m11.601-17.207L529.6 83.793" class="C"/></g><defs><path d="M0 .5A.5.5 0 0 0 .354.354.5.5 0 0 0 .5 0a.5.5 0 0 0-.146-.354A.5.5 0 0 0 0-.5a.5.5 0 0 0-.354.146A.5.5 0 0 0-.5 0a.5.5 0 0 0 .146.354A.5.5 0 0 0 0 .5z" id="M" class="G H"/></defs><g class="C B"><use x="486.293" xlink:href="#M" y="57.445"/></g><g class="C B"><use x="499.365" xlink:href="#M" y="73.678"/></g><g class="C B"><use x="541.444" xlink:href="#M" y="126.212"/></g><g class="C B"><use x="557.789" xlink:href="#M" y="146.039"/></g><g class="C B"><use x="418.048" xlink:href="#M" y="49.643"/></g><g class="C B"><use x="461.764" xlink:href="#M" y="104.018"/></g><g class="C B"><use x="477.868" xlink:href="#M" y="124.157"/></g><g class="C B"><use x="503.957" xlink:href="#M" y="156.612"/></g><g class="C B"><use x="520.961" xlink:href="#M" y="177.757"/></g><g class="C B"><use x="529.72" xlink:href="#M" y="188.105"/></g><g class="C B"><use x="548.218" xlink:href="#M" y="210.613"/></g><g class="C B"><use x="562.859" xlink:href="#M" y="226.996"/></g><g class="C B"><use x="576.96" xlink:href="#M" y="243.828"/></g><g class="C B"><use x="578.817" xlink:href="#M" y="208.037"/></g><g class="C B"><use x="563.2" xlink:href="#M" y="118.844"/></g><g class="C B"><use x="565.477" xlink:href="#M" y="43.521"/></g><g class="C B"><use x="571.565" xlink:href="#M" y="118.275"/></g><g class="C B"><use x="572.793" xlink:href="#M" y="133.49"/></g><g class="C B"><use x="576.908" xlink:href="#M" y="184.226"/></g><g class="C B"><use x="499.228" xlink:href="#M" y="195.877"/></g><g class="C B"><use x="431.052" xlink:href="#M" y="132.561"/></g><g class="C B"><use x="441.214" xlink:href="#M" y="204.114"/></g><g class="C B"><use x="483.975" xlink:href="#M" y="197.974"/></g><g class="C B"><use x="452.035" xlink:href="#M" y="129.506"/></g><g class="C B"><use x="462.264" xlink:href="#M" y="201.089"/></g><g class="C B"><use x="530.464" xlink:href="#M" y="135.107"/></g><g class="C B"><use x="539.989" xlink:href="#M" y="161.524"/></g><g class="C B"><use x="546.559" xlink:href="#M" y="186.712"/></g><g class="C B"><use x="552.174" xlink:href="#M" y="150.861"/></g><g class="C B"><use x="555.175" xlink:href="#M" y="185.934"/></g><g class="C B"><use x="435.51" xlink:href="#M" y="164.1"/></g><g class="C B"><use x="455.645" xlink:href="#M" y="154.683"/></g><g class="C B"><use x="490.458" xlink:href="#M" y="139.615"/></g><g class="C B"><use x="511.445" xlink:href="#M" y="109.056"/></g><g class="C B"><use x="516.385" xlink:href="#M" y="94.835"/></g><g class="C B"><use x="541.201" xlink:href="#M" y="66.586"/></g><g class="C B"><use x="471.59" xlink:href="#M" y="148.049"/></g><g class="C B"><use x="568.171" xlink:href="#M" y="46.055"/></g><g class="C B"><use x="448.427" xlink:href="#M" y="87.545"/></g><g class="C B"><use x="529.6" xlink:href="#M" y="83.793"/></g><g class="L I J"><path d="M499.228 195.877l-15.254 2.097m.001 0l-12.385-49.925" class="C K"/><path d="M471.59 148.049l-15.945 6.634" class="C M"/><path d="M455.645 154.683l6.62 46.406m-.001 0l-21.051 3.025m.001 0L435.51 164.1m0 0l-4.458-31.538" class="C K"/><path d="M452.035 129.506l-20.983 3.055" class="C M"/><path d="M452.035 129.506l18.525-2.878 5.89-.884 1.419-1.587" class="C K"/><path d="M490.458 139.615l-4.262-5.068-2.517-3.139-1.484-1.854-.145-.183-4.181-5.214m33.576-15.101l-5.615 17.443-2.055 2.642-8.05 6.571-5.267 3.903" class="C M"/><path d="M516.385 94.835l-4.94 14.221" class="C K"/><path d="M516.385 94.835l25.059 31.376" class="C M"/><path d="M557.789 146.039l-16.345-19.827" class="C K"/><path d="M572.793 133.49l-15.004 12.549" class="C M"/><path d="M572.793 133.49l-1.228-15.215m0 0l-3.394-72.22m0 0l-2.694-2.534m0 0L541.2 66.586" class="C N"/><path d="M486.293 57.445l11.435 1.078 11.639 1.557 9.684 1.617 3.658.728 5.958 1.189 9.086 2.112 1.348.314 2.098.545m-54.906-9.14l-37.867 30.1m.001 0l-30.378-37.903" class="C M"/></g><g fill="#444"><g transform="matrix(.14 0 0 -.14 434.736746 17.837813)"><defs><path d="M2841 2188q203-69 395-294 192-225 386-619L4263 0h-679l-596 1197q-232 469-449 622-217 153-592 153h-688V0H628v4666h1425q800 0 1194-335 394-334 394-1009 0-441-205-732-205-290-595-402zM1259 4147V2491h794q456 0 689 211 233 211 233 620 0 409-233 617-233 208-689 208h-794z" id="N" transform="scale(.015625)" class="G H"/><path d="M2906 2969v1894h575V0h-575v525q-181-312-458-464-276-152-664-152-634 0-1033 506-398 507-398 1332 0 825 398 1331 399 506 1033 506 388 0 664-152 277-151 458-463zM947 1747q0-634 261-995 261-361 717-361 456 0 718 361 263 361 263 995 0 634-263 995-262 361-718 361-456 0-717-361-261-361-261-995z" id="O" transform="scale(.015625)" class="G H"/><path d="M1959 3097q-462 0-731-361-269-361-269-989 0-628 267-989 268-361 733-361 460 0 728 362 269 363 269 988 0 622-269 986-268 364-728 364zm0 487q750 0 1178-488 429-487 429-1349 0-859-429-1349Q2709-91 1959-91q-753 0-1180 489-426 490-426 1349 0 862 426 1349 427 488 1180 488z" id="P" transform="scale(.015625)" class="G H"/><path d="M3328 2828q216 388 516 572 300 184 706 184 547 0 844-383 297-382 297-1088V0h-578v2094q0 503-179 746-178 244-543 244-447 0-707-297-259-296-259-809V0h-578v2094q0 506-178 748-178 242-550 242-441 0-701-298-259-298-259-808V0H581v3500h578v-544q197 322 472 475 275 153 653 153 382 0 649-194 267-193 395-562z" id="Q" transform="scale(.015625)" class="G H"/><path d="M3122 3366v-538q-244 135-489 202-245 67-495 67-560 0-870-355-309-354-309-995 0-641 309-996 310-354 870-354 250 0 495 67 245 67 489 202V134Q2881 22 2623-34q-257-57-548-57-791 0-1257 497-465 497-465 1341 0 856 470 1346 471 491 1290 491 265 0 518-55 253-54 491-163z" id="R" transform="scale(.015625)" class="G H"/><path d="M2834 3397v-544q-243 125-506 187-262 63-544 63-428 0-642-131-214-131-214-394 0-200 153-314 153-114 616-217l197-44q612-131 870-370 258-239 258-667 0-488-386-773Q2250-91 1575-91q-281 0-586 55-305 55-642 164v594q319-166 628-249 309-82 613-82 406 0 624 139 219 139 219 392 0 234-158 359-157 125-692 241l-200 47q-534 112-772 345-237 233-237 639 0 494 350 762 350 269 994 269 318 0 599-47 282-46 519-140z" id="S" transform="scale(.015625)" class="G H"/><path d="M191 3500h609L1894 563l1094 2937h609L2284 0h-781L191 3500z" id="T" transform="scale(.015625)" class="G H"/></defs><use xlink:href="#N"/><use x="67.232" xlink:href="#D"/><use x="128.512" xlink:href="#G"/><use x="191.891" xlink:href="#O"/><use x="255.367" xlink:href="#P"/><use x="316.549" xlink:href="#Q"/><use x="413.961" xlink:href="#k"/><use x="445.748" xlink:href="#R"/><use x="500.729" xlink:href="#E"/><use x="539.592" xlink:href="#P"/><use x="600.773" xlink:href="#S"/><use x="652.873" xlink:href="#S"/><use x="704.973" xlink:href="#P"/><use x="766.154" xlink:href="#T"/><use x="825.334" xlink:href="#F"/><use x="886.857" xlink:href="#E"/></g><g transform="matrix(.14 0 0 -.14 468.345496 33.51475)"><defs><path d="M1984 4856q-418-718-622-1422-203-703-203-1425 0-721 205-1429 205-708 620-1424h-500Q1016-109 783 600q-233 709-233 1409 0 697 231 1403 232 707 703 1444h500z" id="U" transform="scale(.015625)" class="G H"/><path d="M678 2906h4006v-525H678v525zm0-1275h4006v-531H678v531z" id="V" transform="scale(.015625)" class="G H"/><path d="M794 531h1031v3560L703 3866v575l1116 225h631V531h1031V0H794v531z" id="W" transform="scale(.015625)" class="G H"/><path d="M525 4666h3000v-269L1831 0h-659l1594 4134H525v532z" id="X" transform="scale(.015625)" class="G H"/><path d="M513 4856h500q468-737 701-1444 233-706 233-1403 0-700-233-1409-233-709-701-1444H513q415 716 620 1424 205 708 205 1429 0 722-205 1425-205 704-620 1422z" id="Y" transform="scale(.015625)" class="G H"/></defs><use xlink:href="#k"/><use x="31.787" xlink:href="#U"/><use x="70.801" xlink:href="#G"/><use x="134.18" xlink:href="#V"/><use x="217.969" xlink:href="#W"/><use x="281.592" xlink:href="#W"/><use x="345.215" xlink:href="#X"/><use x="408.838" xlink:href="#Y"/></g></g><g class="K L"><path d="M690.085 57.445l13.072 16.233" class="D"/><path d="M690.085 57.445l11.435 1.078 11.639 1.557 9.684 1.617 3.658.728 5.958 1.189 9.086 2.112 1.348.314 2.098.545m-54.906-9.14l-37.867 30.1m50.938-13.867l17.02 21.157m-54.62 9.183l37.601-30.34m58.423 72.361l-16.345-19.827m-10.98 8.895l10.98-8.895m0 0l-25.059-31.376m56.408 38.654l-15.004 12.549m-5.615 4.822l5.615-4.822M621.84 49.643l30.378 37.903M621.84 49.643l13.003 82.919m46.817-8.405l-16.104-20.139" class="D"/><path d="M652.218 87.545l.543.674 8.643 10.734 4.151 5.065m-9.729 25.488l18.525-2.878 5.89-.884 1.419-1.587m12.589 15.458l-4.262-5.068-2.517-3.139-1.484-1.854-.145-.183-4.181-5.214m33.577-15.101l-31.404 12.513-2.173 2.588m26.088 32.455l26.507-21.505m-9.502 42.65l-17.004-21.145m-.001 0l-13.499-16.997m39.263 48.49l-8.759-10.348" class="D"/><path d="M743.78 161.524l-19.028 16.233m.001 0l-21.733 18.12m48.99 14.736l-10.153-12.391-.205-.246-8.141-9.872m16.839-1.392l-16.838 1.393m33.138 38.891l-14.64-16.383m0 0l30.599-2.576" class="D"/><path d="M780.751 243.828l-14.101-16.832m15.958-18.959l2.526 31.739-4.383 4.052m-.052-59.602l1.91 23.811m-7.252-89.762l-3.512.24-4.854.329" class="D"/><path d="M766.991 118.844l9.593 14.646m-9.593-14.646l-33.6-35.051m38.572-37.738l-2.694-2.534m0 0l-24.277 23.065" class="D"/><path d="M775.357 118.275l-3.394-72.22m3.394 72.22l1.228 15.215m-.001 0l4.115 50.737m0-.001l-21.733 1.707m-55.946 9.944l-15.254 2.097m-31.94-68.468l-20.983 3.055m4.458 31.539l-4.458-31.538m31.213 68.527l-21.051 3.025m0 0l-5.704-40.014m48.465 33.874l-21.71 3.115" class="D"/><path d="M687.766 197.974l-12.385-49.925m-19.555-18.543l3.61 25.177m-3.61-25.177l-3.608-41.961m13.838 113.544l-6.62-46.406m74.819-19.576l3.774 4.672 5.751 21.744m12.185-10.662l-12.185 10.662m0 .001l6.57 25.189m8.616-.779l-8.616.779" class="D"/><path d="M758.966 185.934l-3.001-35.072m-96.529 3.821l-20.135 9.417m36.08-16.051l-15.945 6.634m34.813-15.068l-18.868 8.434m39.856-38.993l-5.615 17.443-2.055 2.642-8.05 6.571-5.267 3.903m25.926-44.78l-4.94 14.221m4.94-14.221l13.215-11.043m11.601-17.206l-11.601 17.207" class="D"/></g><defs><path d="M0 .5A.5.5 0 0 0 .354.354.5.5 0 0 0 .5 0a.5.5 0 0 0-.146-.354A.5.5 0 0 0 0-.5a.5.5 0 0 0-.354.146A.5.5 0 0 0-.5 0a.5.5 0 0 0 .146.354A.5.5 0 0 0 0 .5z" id="Z" class="G H"/></defs><g class="D B"><use x="690.085" xlink:href="#Z" y="57.445"/></g><g class="D B"><use x="703.156" xlink:href="#Z" y="73.678"/></g><g class="D B"><use x="745.235" xlink:href="#Z" y="126.212"/></g><g class="D B"><use x="761.58" xlink:href="#Z" y="146.039"/></g><g class="D B"><use x="621.84" xlink:href="#Z" y="49.643"/></g><g class="D B"><use x="665.556" xlink:href="#Z" y="104.018"/></g><g class="D B"><use x="681.66" xlink:href="#Z" y="124.157"/></g><g class="D B"><use x="707.748" xlink:href="#Z" y="156.612"/></g><g class="D B"><use x="724.753" xlink:href="#Z" y="177.757"/></g><g class="D B"><use x="733.512" xlink:href="#Z" y="188.105"/></g><g class="D B"><use x="752.01" xlink:href="#Z" y="210.613"/></g><g class="D B"><use x="766.65" xlink:href="#Z" y="226.996"/></g><g class="D B"><use x="780.751" xlink:href="#Z" y="243.828"/></g><g class="D B"><use x="782.608" xlink:href="#Z" y="208.037"/></g><g class="D B"><use x="766.991" xlink:href="#Z" y="118.844"/></g><g class="D B"><use x="769.269" xlink:href="#Z" y="43.521"/></g><g class="D B"><use x="775.357" xlink:href="#Z" y="118.275"/></g><g class="D B"><use x="776.584" xlink:href="#Z" y="133.49"/></g><g class="D B"><use x="780.699" xlink:href="#Z" y="184.226"/></g><g class="D B"><use x="703.02" xlink:href="#Z" y="195.877"/></g><g class="D B"><use x="634.843" xlink:href="#Z" y="132.561"/></g><g class="D B"><use x="645.005" xlink:href="#Z" y="204.114"/></g><g class="D B"><use x="687.766" xlink:href="#Z" y="197.974"/></g><g class="D B"><use x="655.826" xlink:href="#Z" y="129.506"/></g><g class="D B"><use x="666.056" xlink:href="#Z" y="201.089"/></g><g class="D B"><use x="734.255" xlink:href="#Z" y="135.107"/></g><g class="D B"><use x="743.78" xlink:href="#Z" y="161.524"/></g><g class="D B"><use x="750.35" xlink:href="#Z" y="186.712"/></g><g class="D B"><use x="755.965" xlink:href="#Z" y="150.861"/></g><g class="D B"><use x="758.966" xlink:href="#Z" y="185.934"/></g><g class="D B"><use x="639.301" xlink:href="#Z" y="164.1"/></g><g class="D B"><use x="659.436" xlink:href="#Z" y="154.683"/></g><g class="D B"><use x="694.249" xlink:href="#Z" y="139.615"/></g><g class="D B"><use x="715.237" xlink:href="#Z" y="109.056"/></g><g class="D B"><use x="720.176" xlink:href="#Z" y="94.835"/></g><g class="D B"><use x="744.992" xlink:href="#Z" y="66.586"/></g><g class="D B"><use x="675.381" xlink:href="#Z" y="148.049"/></g><g class="D B"><use x="771.963" xlink:href="#Z" y="46.055"/></g><g class="D B"><use x="652.218" xlink:href="#Z" y="87.545"/></g><g class="D B"><use x="733.391" xlink:href="#Z" y="83.793"/></g><g class="L I J"><path d="M703.02 195.877l-15.254 2.097m0 0l-12.385-49.925" class="D K"/><path d="M694.249 139.615l-18.868 8.434m18.868-8.434l13.499 16.997m0 0l26.507-21.505m0 0l10.98-8.895" class="D N"/><path d="M761.58 146.039l-16.345-19.827" class="D K"/><g class="N"><path d="M755.965 150.861l5.615-4.822m-2.614 39.895l-3.001-35.072" class="D"/><path d="M758.966 185.934l-8.616.779m-6.57-25.189l6.57 25.189m-6.57-25.189l-19.028 16.233m8.76 10.348l-8.759-10.348m27.257 32.856l-10.153-12.391-.205-.246-8.141-9.872m18.499 22.509l30.599-2.576m-1.91-23.811l1.91 23.811m-6.025-74.547l4.115 50.737m-4.115-50.737l-1.228-15.215m.001 0l-3.394-72.22m0 0l-2.694-2.534m0 0l-24.277 23.065" class="D"/></g><path d="M690.085 57.445l11.435 1.078 11.639 1.557 9.684 1.617 3.658.728 5.958 1.189 9.086 2.112 1.348.314 2.098.545m-54.906-9.14l-37.867 30.1m0 0L621.84 49.643" class="D M"/></g><g fill="#444"><g transform="matrix(.14 0 0 -.14 638.52805 17.837812)"><use xlink:href="#N"/><use x="67.232" xlink:href="#D"/><use x="128.512" xlink:href="#G"/><use x="191.891" xlink:href="#O"/><use x="255.367" xlink:href="#P"/><use x="316.549" xlink:href="#Q"/><use x="413.961" xlink:href="#k"/><use x="445.748" xlink:href="#R"/><use x="500.729" xlink:href="#E"/><use x="539.592" xlink:href="#P"/><use x="600.773" xlink:href="#S"/><use x="652.873" xlink:href="#S"/><use x="704.973" xlink:href="#P"/><use x="766.154" xlink:href="#T"/><use x="825.334" xlink:href="#F"/><use x="886.857" xlink:href="#E"/></g><g transform="matrix(.14 0 0 -.14 676.59055 33.51475)"><defs><path d="M2419 4116L825 1625h1594v2491zm-166 550h794V1625h666v-525h-666V0h-628v1100H313v609l1940 2957z" id="a" transform="scale(.015625)" class="G H"/></defs><use xlink:href="#k"/><use x="31.787" xlink:href="#U"/><use x="70.801" xlink:href="#G"/><use x="134.18" xlink:href="#V"/><use x="217.969" xlink:href="#W"/><use x="281.592" xlink:href="#a"/><use x="345.215" xlink:href="#Y"/></g></g><path d="M400.32 259.775v-252" stroke-linecap="square" class="K L"/><defs><clipPath id="b"><path d="M7.2 39.515h169.826v208.32H7.2z" class="G H"/></clipPath><clipPath id="c"><path d="M210.991 39.515h169.826v208.32H210.991z" class="G H"/></clipPath><clipPath id="d"><path d="M414.783 39.515h169.826v208.32H414.783z" class="G H"/></clipPath><clipPath id="e"><path d="M618.574 39.515H788.4v208.32H618.574z" class="G H"/></clipPath></defs></svg>