<?xml version="1.0" encoding="UTF-8"?>
<!DOCTYPE svg  PUBLIC '-//W3C//DTD SVG 1.1//EN'  'http://www.w3.org/Graphics/SVG/1.1/DTD/svg11.dtd'>
<svg width="722.87pt" height="327.58pt" version="1.1" viewBox="0 0 722.87 327.58" xmlns="http://www.w3.org/2000/svg" xmlns:xlink="http://www.w3.org/1999/xlink">
<metadata>
<rdf:RDF xmlns:cc="http://creativecommons.org/ns#" xmlns:dc="http://purl.org/dc/elements/1.1/" xmlns:rdf="http://www.w3.org/1999/02/22-rdf-syntax-ns#">
<cc:Work>
<dc:type rdf:resource="http://purl.org/dc/dcmitype/StillImage"/>
<dc:date>2021-11-16T17:52:15.331541</dc:date>
<dc:format>image/svg+xml</dc:format>
<dc:creator>
<cc:Agent>
<dc:title>Matplotlib v3.4.2, https://matplotlib.org/</dc:title>
</cc:Agent>
</dc:creator>
</cc:Work>
</rdf:RDF>
</metadata>
<defs>
<style type="text/css">*{stroke-linecap:butt;stroke-linejoin:round;}</style>
</defs>
<path d="m0 327.58h722.87v-327.58h-722.87z" fill="none"/>
<path d="m46.067 283.3h669.6v-271.8h-669.6z" fill="none"/>
<path d="m59.326 283.3h53.038v-258.86h-53.038z" clip-path="url(#c)" fill="#df8920"/>
<path d="m125.62 283.3h53.038v-99.216h-53.038z" clip-path="url(#c)" fill="#df8920"/>
<path d="m191.92 283.3h53.038v-35.697h-53.038z" clip-path="url(#c)" fill="#df8920"/>
<path d="m258.22 283.3h53.038v-15.718h-53.038z" clip-path="url(#c)" fill="#df8920"/>
<path d="m324.51 283.3h53.038v-7.0203h-53.038z" clip-path="url(#c)" fill="#df8920"/>
<path d="m390.81 283.3h53.038v-3.4213h-53.038z" clip-path="url(#c)" fill="#df8920"/>
<path d="m457.11 283.3h53.038v-1.8115h-53.038z" clip-path="url(#c)" fill="#df8920"/>
<path d="m523.41 283.3h53.038v-0.91778h-53.038z" clip-path="url(#c)" fill="#df8920"/>
<path d="m589.7 283.3h53.038v-0.54778h-53.038z" clip-path="url(#c)" fill="#df8920"/>
<path d="m656 283.3h53.038v-0.28831h-53.038z" clip-path="url(#c)" fill="#df8920"/>
<defs>
<path id="d" d="m0 0v3.5" stroke="#262626" stroke-width=".8"/>
</defs>
<use x="85.844937" y="283.301959" fill="#262626" stroke="#262626" stroke-width=".8" xlink:href="#d"/>
<g transform="translate(82.129 300.18) scale(.13 -.13)" fill="#262626">
<defs>
<path id="f" transform="scale(.015625)" d="m2234 0h-506v3256q0 407 25 769-65-66-147-138-81-71-743-609l-275 356 1209 935h437v-4569z"/>
</defs>
<use xlink:href="#f"/>
</g>
<use x="152.141966" y="283.301959" fill="#262626" stroke="#262626" stroke-width=".8" xlink:href="#d"/>
<g transform="translate(148.43 300.18) scale(.13 -.13)" fill="#262626">
<defs>
<path id="j" transform="scale(.015625)" d="m3316 0h-3003v447l1203 1209q550 557 725 794 175 238 262 463 88 225 88 484 0 366-222 580t-616 214q-284 0-539-94t-567-341l-275 353q631 525 1375 525 644 0 1009-330 366-329 366-885 0-435-244-860t-912-1075l-1e3 -978v-25h2350v-481z"/>
</defs>
<use xlink:href="#j"/>
</g>
<use x="218.438996" y="283.301959" fill="#262626" stroke="#262626" stroke-width=".8" xlink:href="#d"/>
<g transform="translate(214.72 300.18) scale(.13 -.13)" fill="#262626">
<defs>
<path id="h" transform="scale(.015625)" d="m3144 3494q0-438-246-716-245-278-695-372v-25q550-68 815-350 266-281 266-737 0-653-453-1005t-1287-352q-363 0-665 55-301 55-585 192v494q297-147 633-224 336-76 636-76 1184 0 1184 928 0 832-1306 832h-450v446h456q534 0 846 236 313 236 313 655 0 334-230 525-229 191-623 191-300 0-566-82-265-81-606-300l-262 350q281 222 648 348 367 127 774 127 665 0 1034-305 369-304 369-835z"/>
</defs>
<use xlink:href="#h"/>
</g>
<use x="284.736026" y="283.301959" fill="#262626" stroke="#262626" stroke-width=".8" xlink:href="#d"/>
<g transform="translate(281.02 300.18) scale(.13 -.13)" fill="#262626">
<defs>
<path id="n" transform="scale(.015625)" d="m3531 1050h-678v-1050h-497v1050h-2222v453l2169 3091h550v-3072h678v-472zm-1175 472v1519q0 447 32 1009h-25q-150-300-282-497l-1428-2031h1703z"/>
</defs>
<use xlink:href="#n"/>
</g>
<use x="351.033055" y="283.301959" fill="#262626" stroke="#262626" stroke-width=".8" xlink:href="#d"/>
<g transform="translate(347.32 300.18) scale(.13 -.13)" fill="#262626">
<defs>
<path id="r" transform="scale(.015625)" d="m1741 2791q722 0 1136-358t414-980q0-709-452-1113-451-403-1245-403-772 0-1178 247v500q218-140 543-220t641-80q550 0 854 259 305 260 305 751 0 956-1171 956-297 0-794-91l-269 172 172 2138h2272v-478h-1828l-116-1372q359 72 716 72z"/>
</defs>
<use xlink:href="#r"/>
</g>
<use x="417.330085" y="283.301959" fill="#262626" stroke="#262626" stroke-width=".8" xlink:href="#d"/>
<g transform="translate(413.61 300.18) scale(.13 -.13)" fill="#262626">
<defs>
<path id="m" transform="scale(.015625)" d="m366 1953q0 1347 523 2014 524 667 1549 667 353 0 556-59v-447q-241 78-550 78-735 0-1123-458-387-457-424-1439h37q344 538 1088 538 616 0 970-372 355-372 355-1009 0-713-389-1121t-1052-408q-709 0-1125 533-415 533-415 1483zm1534-1575q444 0 689 280t245 808q0 453-228 712-228 260-681 260-281 0-516-116-234-116-373-319t-139-422q0-322 125-600t354-441q230-162 524-162z"/>
</defs>
<use xlink:href="#m"/>
</g>
<use x="483.627115" y="283.301959" fill="#262626" stroke="#262626" stroke-width=".8" xlink:href="#d"/>
<g transform="translate(479.91 300.18) scale(.13 -.13)" fill="#262626">
<defs>
<path id="q" transform="scale(.015625)" d="m891 0 1893 4091h-2490v478h3040v-416l-1868-4153h-575z"/>
</defs>
<use xlink:href="#q"/>
</g>
<use x="549.924144" y="283.301959" fill="#262626" stroke="#262626" stroke-width=".8" xlink:href="#d"/>
<g transform="translate(546.21 300.18) scale(.13 -.13)" fill="#262626">
<defs>
<path id="l" transform="scale(.015625)" d="m1825 4634q625 0 990-291 366-290 366-802 0-338-209-616t-669-506q556-266 790-558 235-292 235-677 0-568-397-908-397-339-1087-339-731 0-1125 320-394 321-394 909 0 784 956 1222-431 243-619 526-187 283-187 633 0 497 367 792t983 295zm-987-3481q0-375 260-585 261-209 733-209 466 0 725 219 260 219 260 600 0 303-244 539t-850 458q-466-200-675-442t-209-580zm981 3060q-391 0-613-188-222-187-222-500 0-287 184-494 185-206 682-412 447 187 633 403t186 503q0 316-227 502-226 186-623 186z"/>
</defs>
<use xlink:href="#l"/>
</g>
<use x="616.221174" y="283.301959" fill="#262626" stroke="#262626" stroke-width=".8" xlink:href="#d"/>
<g transform="translate(612.51 300.18) scale(.13 -.13)" fill="#262626">
<defs>
<path id="al" transform="scale(.015625)" d="m3316 2619q0-2682-2075-2682-363 0-575 63v447q250-81 568-81 750 0 1133 464t417 1423h-37q-172-259-457-395-284-136-640-136-606 0-963 362-356 363-356 1013 0 712 398 1124 399 413 1049 413 466 0 814-239 349-239 536-697 188-457 188-1079zm-1538 1572q-447 0-691-288-243-287-243-800 0-450 225-708 225-257 684-257 285 0 524 115 239 116 376 316 138 200 138 419 0 328-129 606-128 278-358 437-229 160-526 160z"/>
</defs>
<use xlink:href="#al"/>
</g>
<use x="682.518204" y="283.301959" fill="#262626" stroke="#262626" stroke-width=".8" xlink:href="#d"/>
<g transform="translate(675.09 300.18) scale(.13 -.13)" fill="#262626">
<defs>
<path id="a" transform="scale(.015625)" d="m3341 2291q0-1185-374-1770-373-584-1142-584-737 0-1122 598-384 599-384 1756 0 1193 372 1771 372 579 1134 579 744 0 1130-604 386-603 386-1746zm-2497 0q0-997 234-1452 235-455 747-455 519 0 751 461 233 461 233 1446 0 984-233 1442-232 458-751 458-512 0-747-452-234-451-234-1448z"/>
</defs>
<use xlink:href="#f"/>
<use x="57.177734" xlink:href="#a"/>
</g>
<g transform="translate(273.25 317.25) scale(.13 -.13)" fill="#262626">
<defs>
<path id="aj" transform="scale(.015625)" d="m4197 0h-606l-2497 3834h-25q50-675 50-1237v-2597h-491v4569h600l2491-3819h25q-6 84-28 542t-16 655v2622h497v-4569z"/>
<path id="s" transform="scale(.015625)" d="m1038 3425v-2222q0-419 190-625 191-206 597-206 538 0 786 293 248 294 248 960v1800h519v-3425h-428l-75 459h-28q-159-253-442-388-283-134-646-134-625 0-936 297-310 297-310 950v2241h525z"/>
<path id="aa" transform="scale(.015625)" d="m4916 0v2228q0 410-175 614-175 205-544 205-484 0-716-278-231-278-231-856v-1913h-519v2228q0 410-175 614-175 205-547 205-487 0-714-292-226-292-226-958v-1797h-519v3425h422l84-469h25q147 250 414 391 268 141 599 141 803 0 1050-582h25q153 269 443 425 291 157 663 157 581 0 870-299 289-298 289-955v-2234h-518z"/>
<path id="ad" transform="scale(.015625)" d="m2144 3481q675 0 1048-461 374-461 374-1304 0-844-377-1312-376-467-1045-467-335 0-612 123-276 124-463 381h-38l-109-441h-372v4863h519v-1182q0-397-25-712h25q362 512 1075 512zm-75-434q-531 0-766-305-234-304-234-1026t240-1033q241-311 772-311 478 0 712 348 235 349 235 1002 0 669-235 997-234 328-724 328z"/>
<path id="i" transform="scale(.015625)" d="m1997-63q-759 0-1199 463-439 463-439 1284 0 829 408 1316 408 488 1096 488 643 0 1018-424 375-423 375-1117v-328h-2359q16-603 305-916 289-312 814-312 553 0 1093 231v-463q-275-118-520-170t-592-52zm-141 3116q-412 0-658-269-245-268-289-743h1791q0 490-219 751-218 261-625 261z"/>
<path id="p" transform="scale(.015625)" d="m2113 3488q228 0 409-38l-72-481q-212 47-375 47-416 0-711-338-295-337-295-840v-1838h-519v3425h428l60-634h25q190 334 459 515 269 182 591 182z"/>
<path id="k" transform="scale(.015625)" d="m3506 1716q0-838-422-1309-421-470-1165-470-460 0-816 216t-550 619-194 944q0 837 419 1304 419 468 1163 468 718 0 1141-479 424-478 424-1293zm-2609 0q0-657 262-1001 263-343 772-343 510 0 774 342t264 1002q0 653-264 992t-780 339q-509 0-769-335-259-334-259-996z"/>
<path id="x" transform="scale(.015625)" d="m2094 3022h-872v-3022h-519v3022h-612v234l612 188v190q0 1263 1103 1263 272 0 638-109l-135-416q-300 97-512 97-294 0-435-196-140-195-140-626v-222h872v-403z"/>
<path id="af" transform="scale(.015625)" d="m4078 4569v-2956q0-782-472-1229t-1297-447-1277 450q-451 451-451 1238v2944h532v-2981q0-572 312-879 313-306 919-306 578 0 890 308 313 308 313 883v2975h531z"/>
<path id="u" transform="scale(.015625)" d="m2894 0v2216q0 418-191 624-190 207-597 207-537 0-787-291-250-290-250-959v-1797h-519v3425h422l84-469h25q160 253 447 392 288 140 641 140 619 0 931-299 313-298 313-955v-2234h-519z"/>
<path id="v" transform="scale(.015625)" d="m1069 0h-519v3425h519v-3425zm-563 4353q0 178 87 261 88 83 220 83 125 0 215-85 91-84 91-259t-91-261q-90-86-215-86-132 0-220 86-87 86-87 261z"/>
<path id="z" transform="scale(.015625)" d="m1844 372q519 0 756 278 238 278 253 938v115q0 719-244 1034-243 316-771 316-457 0-699-355-242-354-242-1001t239-986 708-339zm-78-435q-663 0-1035 466t-372 1300q0 841 375 1313t1044 472q703 0 1081-532h29l75 469h409v-4963h-519v1466q0 313 35 531h-41q-359-522-1081-522z"/>
<path id="ak" transform="scale(.015625)" d="m4275 2328q0-1131-614-1730-614-598-1767-598h-1266v4569h1400q1066 0 1656-591 591-590 591-1650zm-562-19q0 894-449 1347-448 453-1333 453h-772v-3650h647q950 0 1428 467 479 468 479 1383z"/>
<path id="w" transform="scale(.015625)" d="m3353 3425v-328l-634-75q87-109 156-286t69-398q0-504-344-804t-944-300q-153 0-287 25-331-175-331-440 0-141 115-208 116-67 397-67h606q557 0 855-235 298-234 298-681 0-569-456-867-456-299-1331-299-672 0-1036 250t-364 707q0 312 200 541 200 228 562 309-131 59-220 184t-89 291q0 187 100 328t316 272q-266 109-433 371-167 263-167 601 0 562 337 867 338 305 956 305 269 0 485-63h1184zm-2731-4e3q0-278 234-422 235-144 672-144 653 0 967 196 314 195 314 529 0 278-172 386-171 108-646 108h-622q-353 0-550-168-197-169-197-485zm281 2903q0-359 203-544 203-184 566-184 759 0 759 738 0 771-768 771-366 0-563-197-197-196-197-584z"/>
<path id="o" transform="scale(.015625)" d="m2759 934q0-478-356-738-356-259-1e3 -259-681 0-1062 216v481q247-125 529-197 283-71 546-71 406 0 624 129 219 130 219 396 0 200-173 342t-677 336q-478 178-680 311-201 133-300 301-98 169-98 403 0 419 341 661 341 243 934 243 553 0 1082-225l-185-422q-515 212-934 212-369 0-557-116-187-115-187-318 0-138 70-235 71-96 227-184 156-87 600-253 609-222 823-447t214-566z"/>
<path id="ah" transform="scale(.015625)" d="m1159 1900v-1900h-531v4569h1253q841 0 1242-322 402-322 402-969 0-906-919-1225l1241-2053h-628l-1106 1900h-954zm0 456h729q562 0 824 223 263 224 263 671 0 453-267 653t-858 200h-691v-1747z"/>
<path id="t" transform="scale(.015625)" d="m1656 366q138 0 266 20t203 42v-397q-84-40-248-67t-296-27q-993 0-993 1047v2038h-491v250l491 216 218 731h300v-794h994v-403h-994v-2016q0-309 147-475 147-165 403-165z"/>
<path id="ac" transform="scale(.015625)" d="m2881 459h-28q-359-522-1075-522-672 0-1046 459-373 460-373 1307t375 1316 1044 469q697 0 1069-507h41l-22 247-13 241v1394h519v-4863h-422l-69 459zm-1037-87q531 0 770 289t239 933v109q0 728-242 1039t-773 311q-457 0-699-355-242-354-242-1001 0-656 240-991 241-334 707-334z"/>
</defs>
<use xlink:href="#aj"/>
<use x="75.390625" xlink:href="#s"/>
<use x="136.767578" xlink:href="#aa"/>
<use x="229.785156" xlink:href="#ad"/>
<use x="291.064453" xlink:href="#i"/>
<use x="347.167969" xlink:href="#p"/>
<use x="387.988281" xlink:href="#OpenSans-Regular-20"/>
<use x="413.964844" xlink:href="#k"/>
<use x="474.365234" xlink:href="#x"/>
<use x="508.251953" xlink:href="#OpenSans-Regular-20"/>
<use x="534.228516" xlink:href="#af"/>
<use x="607.03125" xlink:href="#u"/>
<use x="668.408203" xlink:href="#v"/>
<use x="693.701172" xlink:href="#z"/>
<use x="754.980469" xlink:href="#s"/>
<use x="816.357422" xlink:href="#i"/>
<use x="872.460938" xlink:href="#OpenSans-Regular-20"/>
<use x="898.4375" xlink:href="#ak"/>
<use x="971.337891" xlink:href="#k"/>
<use x="1031.738281" xlink:href="#w"/>
<use x="1086.523438" xlink:href="#o"/>
<use x="1134.228516" xlink:href="#OpenSans-Regular-20"/>
<use x="1160.205078" xlink:href="#ah"/>
<use x="1222.021484" xlink:href="#i"/>
<use x="1278.125" xlink:href="#w"/>
<use x="1332.910156" xlink:href="#v"/>
<use x="1358.203125" xlink:href="#o"/>
<use x="1405.908203" xlink:href="#t"/>
<use x="1441.210938" xlink:href="#i"/>
<use x="1497.314453" xlink:href="#p"/>
<use x="1538.134766" xlink:href="#i"/>
<use x="1594.238281" xlink:href="#ac"/>
</g>
<defs>
<path id="g" d="m0 0h-3.5" stroke="#262626" stroke-width=".8"/>
</defs>
<use x="46.066719" y="283.301959" fill="#262626" stroke="#262626" stroke-width=".8" xlink:href="#g"/>
<g transform="translate(31.634 288.24) scale(.13 -.13)" fill="#262626">
<use xlink:href="#a"/>
</g>
<use x="46.066719" y="240.874106" fill="#262626" stroke="#262626" stroke-width=".8" xlink:href="#g"/>
<g transform="translate(24.202 245.81) scale(.13 -.13)" fill="#262626">
<use xlink:href="#f"/>
<use x="57.177734" xlink:href="#a"/>
</g>
<use x="46.066719" y="198.446252" fill="#262626" stroke="#262626" stroke-width=".8" xlink:href="#g"/>
<g transform="translate(24.202 203.39) scale(.13 -.13)" fill="#262626">
<use xlink:href="#j"/>
<use x="57.177734" xlink:href="#a"/>
</g>
<use x="46.066719" y="156.018398" fill="#262626" stroke="#262626" stroke-width=".8" xlink:href="#g"/>
<g transform="translate(24.202 160.96) scale(.13 -.13)" fill="#262626">
<use xlink:href="#h"/>
<use x="57.177734" xlink:href="#a"/>
</g>
<use x="46.066719" y="113.590544" fill="#262626" stroke="#262626" stroke-width=".8" xlink:href="#g"/>
<g transform="translate(24.202 118.53) scale(.13 -.13)" fill="#262626">
<use xlink:href="#n"/>
<use x="57.177734" xlink:href="#a"/>
</g>
<use x="46.066719" y="71.16269" fill="#262626" stroke="#262626" stroke-width=".8" xlink:href="#g"/>
<g transform="translate(24.202 76.102) scale(.13 -.13)" fill="#262626">
<use xlink:href="#r"/>
<use x="57.177734" xlink:href="#a"/>
</g>
<use x="46.066719" y="28.734836" fill="#262626" stroke="#262626" stroke-width=".8" xlink:href="#g"/>
<g transform="translate(24.202 33.674) scale(.13 -.13)" fill="#262626">
<use xlink:href="#m"/>
<use x="57.177734" xlink:href="#a"/>
</g>
<g transform="translate(17.078 202.53) rotate(-90) scale(.13 -.13)" fill="#262626">
<defs>
<path id="b" transform="scale(.015625)" d="m756 3206q0-531 116-797 116-265 375-265 512 0 512 1062 0 1057-512 1057-259 0-375-263-116-262-116-794zm1432 0q0-712-240-1076-239-364-701-364-438 0-680 371-242 372-242 1069 0 710 233 1069t689 359q453 0 697-372 244-371 244-1056zm1318-1831q0-534 116-798t378-264q263 0 388 260 125 261 125 802 0 534-125 792t-388 258q-262 0-378-258t-116-792zm1435 0q0-709-239-1074-239-364-702-364-444 0-683 372t-239 1066q0 709 233 1068 233 360 689 360 444 0 692-367 249-367 249-1061zm-807 3194-2534-4569h-459l2534 4569h459z"/>
<path id="ag" transform="scale(.015625)" d="m2034 0h-531v4097h-1447v472h3425v-472h-1447v-4097z"/>
<path id="ae" transform="scale(.015625)" d="m2656 0-103 488h-25q-256-322-511-437-254-114-636-114-509 0-798 263t-289 747q0 1037 1659 1087l581 19v213q0 403-173 595t-555 192q-428 0-968-262l-160 397q253 137 554 215 302 78 606 78 612 0 907-272 296-271 296-871v-2338h-385zm-1172 366q485 0 761 265 277 266 277 744v309l-519-21q-619-22-892-193-273-170-273-529 0-282 170-429 170-146 476-146z"/>
<path id="ab" transform="scale(.015625)" d="m1069 0h-519v4863h519v-4863z"/>
<path id="ai" transform="scale(.015625)" d="m4594 2291q0-1097-555-1726-555-628-1542-628-1009 0-1558 617-548 618-548 1743 0 1116 550 1730t1562 614q985 0 1538-625t553-1725zm-3641 0q0-928 395-1408 396-480 1149-480 759 0 1146 478 388 478 388 1410 0 922-386 1398-386 477-1142 477-759 0-1155-480-395-480-395-1395z"/>
<path id="y" transform="scale(.015625)" d="m3347 0-628 2009q-60 185-222 838h-25q-125-547-219-844l-647-2003h-600l-934 3425h544q331-1291 504-1966 174-675 199-909h25q34 178 110 461 77 283 134 448l628 1966h562l613-1966q175-537 237-903h25q13 113 67 347 55 235 652 2522h537l-946-3425h-616z"/>
</defs>
<use xlink:href="#b"/>
<use x="82.324219" xlink:href="#OpenSans-Regular-20"/>
<use x="108.300781" xlink:href="#k"/>
<use x="168.701172" xlink:href="#x"/>
<use x="202.587891" xlink:href="#OpenSans-Regular-20"/>
<use x="228.564453" xlink:href="#ag"/>
<use x="283.886719" xlink:href="#k"/>
<use x="344.287109" xlink:href="#t"/>
<use x="379.589844" xlink:href="#ae"/>
<use x="435.205078" xlink:href="#ab"/>
<use x="460.498047" xlink:href="#OpenSans-Regular-20"/>
<use x="486.474609" xlink:href="#ai"/>
<use x="564.355469" xlink:href="#y"/>
<use x="642.138672" xlink:href="#u"/>
<use x="703.515625" xlink:href="#i"/>
<use x="759.619141" xlink:href="#p"/>
<use x="800.439453" xlink:href="#o"/>
</g>
<path d="m46.067 283.3v-271.8" fill="none" stroke="#262626" stroke-linecap="square" stroke-width=".8"/>
<path d="m46.067 283.3h669.6" fill="none" stroke="#262626" stroke-linecap="square" stroke-width=".8"/>
<g transform="translate(63.899 17.078) scale(.13 -.13)">
<defs>
<path id="e" transform="scale(.015625)" d="m475 331q0 210 95 317 96 108 274 108 181 0 282-108 102-107 102-317 0-203-103-313-103-109-281-109-160 0-265 98-104 99-104 324z"/>
</defs>
<use xlink:href="#m"/>
<use x="57.177734" xlink:href="#f"/>
<use x="114.355469" xlink:href="#e"/>
<use x="140.966797" xlink:href="#a"/>
<use x="198.144531" xlink:href="#f"/>
<use x="255.322266" xlink:href="#b"/>
</g>
<g transform="translate(130.2 176.72) scale(.13 -.13)">
<use xlink:href="#j"/>
<use x="57.177734" xlink:href="#h"/>
<use x="114.355469" xlink:href="#e"/>
<use x="140.966797" xlink:href="#h"/>
<use x="198.144531" xlink:href="#l"/>
<use x="255.322266" xlink:href="#b"/>
</g>
<g transform="translate(200.21 240.24) scale(.13 -.13)">
<use xlink:href="#l"/>
<use x="57.177734" xlink:href="#e"/>
<use x="83.789062" xlink:href="#n"/>
<use x="140.966797" xlink:href="#f"/>
<use x="198.144531" xlink:href="#b"/>
</g>
<g transform="translate(270.22 260.22) scale(.13 -.13)">
<use xlink:href="#h"/>
<use x="57.177734" xlink:href="#e"/>
<use x="83.789062" xlink:href="#q"/>
<use x="140.966797" xlink:href="#b"/>
</g>
<g transform="translate(332.8 268.91) scale(.13 -.13)">
<use xlink:href="#f"/>
<use x="57.177734" xlink:href="#e"/>
<use x="83.789062" xlink:href="#m"/>
<use x="140.966797" xlink:href="#r"/>
<use x="198.144531" xlink:href="#b"/>
</g>
<g transform="translate(399.1 272.51) scale(.13 -.13)">
<use xlink:href="#a"/>
<use x="57.177734" xlink:href="#e"/>
<use x="83.789062" xlink:href="#l"/>
<use x="140.966797" xlink:href="#f"/>
<use x="198.144531" xlink:href="#b"/>
</g>
<g transform="translate(465.4 274.12) scale(.13 -.13)">
<use xlink:href="#a"/>
<use x="57.177734" xlink:href="#e"/>
<use x="83.789062" xlink:href="#n"/>
<use x="140.966797" xlink:href="#h"/>
<use x="198.144531" xlink:href="#b"/>
</g>
<g transform="translate(531.69 275.02) scale(.13 -.13)">
<use xlink:href="#a"/>
<use x="57.177734" xlink:href="#e"/>
<use x="83.789062" xlink:href="#j"/>
<use x="140.966797" xlink:href="#j"/>
<use x="198.144531" xlink:href="#b"/>
</g>
<g transform="translate(597.99 275.39) scale(.13 -.13)">
<use xlink:href="#a"/>
<use x="57.177734" xlink:href="#e"/>
<use x="83.789062" xlink:href="#f"/>
<use x="140.966797" xlink:href="#h"/>
<use x="198.144531" xlink:href="#b"/>
</g>
<g transform="translate(664.29 275.65) scale(.13 -.13)">
<use xlink:href="#a"/>
<use x="57.177734" xlink:href="#e"/>
<use x="83.789062" xlink:href="#a"/>
<use x="140.966797" xlink:href="#q"/>
<use x="198.144531" xlink:href="#b"/>
</g>
<defs>
<clipPath id="c">
<rect x="46.067" y="11.502" width="669.6" height="271.8"/>
</clipPath>
</defs>
</svg>
