<?xml version="1.0" encoding="UTF-8" standalone="no"?>
<!DOCTYPE svg PUBLIC "-//W3C//DTD SVG 20010904//EN" "http://www.w3.org/TR/2001/REC-SVG-20010904/DTD/svg10.dtd">
<svg version="1.0" xmlns="http://www.w3.org/2000/svg" width="256.000000pt" height="256.000000pt" viewBox="0 0 256.000000 256.000000" preserveAspectRatio="xMidYMid meet">
<metadata>
Created by potrace 1.13, written by Peter Selinger 2001-2015
</metadata>
<g transform="translate(0.000000,256.000000) scale(0.100000,-0.100000)" fill="#808080" stroke="none">
<path d="M545 2070 l-330 -330 218 0 c130 0 216 -4 213 -9 -13 -21 15 -159 45 -219 38 -78 126 -170 198 -206 63 -32 164 -56 241 -56 l55 0 -3 -79 c-3 -65 0 -86 18 -121 12 -23 19 -44 16 -47 -2 -3 -42 -9 -88 -14 -142 -16 -255 -48 -360 -102 -112 -57 -174 -116 -217 -207 -22 -49 -25 -68 -26 -170 0 -99 3 -121 22 -155 54 -102 187 -194 332 -231 98 -25 470 -15 558 14 126 43 265 129 322 201 17 21 47 74 68 116 30 64 37 92 41 157 3 45 -1 104 -7 134 -18 77 -94 189 -175 255 -110 89 -208 183 -217 207 -15 39 16 85 122 183 109 101 149 157 173 238 20 68 21 179 2 251 l-15 55 135 135 134 135 0 -43 c0 -29 -6 -48 -20 -62 -19 -19 -20 -33 -20 -390 0 -357 1 -371 20 -390 27 -27 93 -27 120 0 19 19 20 33 20 390 l0 371 -25 23 c-22 21 -25 31 -25 97 l0 73 62 63 62 63 -669 0 -670 0 -330 -330z m702 41 c73 -34 132 -98 174 -188 51 -110 72 -193 72 -288 0 -124 -32 -183 -128 -233 -77 -40 -154 -37 -227 7 -96 58 -157 161 -194 327 -40 183 19 329 152 378 54 20 102 19 151 -3z m126 -1243 c51 -27 200 -155 226 -194 62 -94 63 -187 2 -284 -54 -87 -141 -126 -308 -137 -183 -12 -336 38 -430 140 -50 54 -67 103 -67 188 0 108 60 186 186 244 96 44 340 71 391 43z"/>
</g>
</svg>
