<?xml version="1.0" encoding="UTF-8"?>
<!DOCTYPE svg  PUBLIC '-//W3C//DTD SVG 1.1//EN'  'http://www.w3.org/Graphics/SVG/1.1/DTD/svg11.dtd'>
<svg width="572.4pt" height="176.3pt" version="1.1" viewBox="0 0 572.4 176.3" xmlns="http://www.w3.org/2000/svg" xmlns:xlink="http://www.w3.org/1999/xlink">
<metadata>
<rdf:RDF xmlns:cc="http://creativecommons.org/ns#" xmlns:dc="http://purl.org/dc/elements/1.1/" xmlns:rdf="http://www.w3.org/1999/02/22-rdf-syntax-ns#">
<cc:Work>
<dc:type rdf:resource="http://purl.org/dc/dcmitype/StillImage"/>
<dc:date>2021-06-09T15:45:26.156754</dc:date>
<dc:format>image/svg+xml</dc:format>
<dc:creator>
<cc:Agent>
<dc:title>Matplotlib v3.4.2, https://matplotlib.org/</dc:title>
</cc:Agent>
</dc:creator>
</cc:Work>
</rdf:RDF>
</metadata>
<defs>
<style type="text/css">*{stroke-linecap:butt;stroke-linejoin:round;}</style>
</defs>
<path d="m0 176.3h572.4v-176.3h-572.4z" fill="none"/>
<path d="m7.2 159.38h558v-152.18h-558z" fill="none"/>
<path d="m539.84 82.652l-73.183-10.747-217.65-19.814-149.7 1.7234-66.731 18.926v21.101l53.181 15.703 104.97 6.4292 205.8-12.715 143.32-19.328" clip-path="url(#f)" fill="none" stroke="#2c3e50" stroke-dasharray="3.7,1.6"/>
<path d="m539.84 82.652l-0.3476-0.051009-1.0418-0.15248-1.7332-0.25233-2.4199-0.34953-3.0999-0.44317-3.7714-0.53243-4.4326-0.61664-5.0816-0.69526-5.7167-0.7679-6.3361-0.83432-6.9382-0.89439-7.5212-0.94809-8.0837-0.99549-8.6239-1.0367-9.1406-1.072-9.6321-1.1017-10.097-1.1258-10.535-1.1449-10.943-1.1591-11.322-1.1689-11.67-1.1744-11.985-1.176-12.268-1.1739-12.517-1.1685-12.732-1.1572-12.912-1.1218-13.056-1.0746-13.165-1.0189-13.238-0.95476-13.274-0.88228-13.274-0.8016-13.238-0.7129-13.165-0.61644-13.056-0.5125-12.912-0.40145-12.732-0.28369-12.517-0.15972-12.268-0.030115-11.985 0.10357-11.67 0.22391-11.322 0.34288-10.943 0.46782-10.535 0.59883-10.097 0.73613-9.6321 0.88006-9.1406 1.0312-8.6239 1.1906-8.0837 1.3597-7.5212 1.5413-6.9382 1.7398-6.3361 1.8803-5.7167 1.9145-5.0816 1.9469-4.4326 1.9783-3.7714 2.0087-3.0999 2.038-2.4199 2.066-1.7332 2.0928-1.0418 2.1183-0.3476 2.1424 0.3476 2.3773 1.0418 2.3052 1.7332 2.2317 2.4199 2.157 3.0999 2.0814 3.7714 2.005 4.4326 1.928 5.0816 1.8506 5.7167 1.7723 6.3361 1.6659 6.9382 1.5442 7.5212 1.4225 8.0837 1.3016 8.6239 1.182 9.1406 1.0642 9.6321 0.94867 10.097 0.83572 10.535 0.72565 10.943 0.56894 11.322 0.36194 11.67 0.18343 11.985 0.026909 12.268-0.11214 12.517-0.23668 12.732-0.34874 12.912-0.44972 13.056-0.54067 13.165-0.62234 13.238-0.69529 13.274-0.75998 13.274-0.82 13.238-0.89653 13.165-0.96902 13.056-1.0322 12.912-1.0861 12.732-1.1307 12.517-1.1663 12.268-1.1927 11.985-1.2103 11.67-1.2192 11.322-1.2196 10.943-1.2116 10.535-1.1957 10.097-1.1719 9.6321-1.1408 9.1406-1.1025 8.6239-1.0574 8.0837-1.0059 7.5212-0.94841 6.9382-0.88531 6.3361-0.81703 5.7167-0.74402 5.0816-0.66673 4.4326-0.58564 3.7714-0.50122 3.0999-0.41398 2.4199-0.32441 1.7332-0.23302 1.0418-0.14034 0.3476-0.046866" clip-path="url(#f)" fill="none" stroke="#2980b9" stroke-linecap="square"/>
<defs>
<path id="a" d="m0 4c1.0608 0 2.0783-0.42146 2.8284-1.1716s1.1716-1.7676 1.1716-2.8284-0.42146-2.0783-1.1716-2.8284-1.7676-1.1716-2.8284-1.1716-2.0783 0.42146-2.8284 1.1716-1.1716 1.7676-1.1716 2.8284 0.42146 2.0783 1.1716 2.8284 1.7676 1.1716 2.8284 1.1716z" stroke="#f00"/>
</defs>
<g clip-path="url(#f)" fill-opacity="0" stroke="#ff0000">
<use x="539.836364" y="82.651745" xlink:href="#a"/>
<use x="466.653058" y="71.905063" xlink:href="#a"/>
<use x="248.998351" y="52.091098" xlink:href="#a"/>
<use x="99.295027" y="53.814459" xlink:href="#a"/>
<use x="32.563636" y="72.740291" xlink:href="#a"/>
<use x="32.563636" y="93.841527" xlink:href="#a"/>
<use x="85.744191" y="109.544199" xlink:href="#a"/>
<use x="190.717016" y="115.973371" xlink:href="#a"/>
<use x="396.515281" y="103.258268" xlink:href="#a"/>
<use x="539.836364" y="83.930073" xlink:href="#a"/>
</g>
<path d="m94.546 169.1h383.31q2.2 0 2.2-2.2v-15.402q0-2.2-2.2-2.2h-383.31q-2.2 0-2.2 2.2v15.402q0 2.2 2.2 2.2z" fill="none" opacity=".8"/>
<path d="m96.746 158.21h22" fill="none" stroke="#2c3e50" stroke-dasharray="3.7,1.6"/>
<g transform="translate(127.55 162.06) scale(.11 -.11)">
<defs>
<path id="r" transform="scale(.015625)" d="m2144 3481q675 0 1048-461 374-461 374-1304 0-844-377-1312-376-467-1045-467-335 0-612 123-276 124-463 381h-38l-109-441h-372v4863h519v-1182q0-397-25-712h25q362 512 1075 512zm-75-434q-531 0-766-305-234-304-234-1026t240-1033q241-311 772-311 478 0 712 348 235 349 235 1002 0 669-235 997-234 328-724 328z"/>
<path id="b" transform="scale(.015625)" d="m1997-63q-759 0-1199 463-439 463-439 1284 0 829 408 1316 408 488 1096 488 643 0 1018-424 375-423 375-1117v-328h-2359q16-603 305-916 289-312 814-312 553 0 1093 231v-463q-275-118-520-170t-592-52zm-141 3116q-412 0-658-269-245-268-289-743h1791q0 490-219 751-218 261-625 261z"/>
<path id="o" transform="scale(.015625)" d="m2741 0h-2485v353l1869 2669h-1753v403h2322v-403l-1844-2619h1891v-403z"/>
<path id="m" transform="scale(.015625)" d="m1069 0h-519v3425h519v-3425zm-563 4353q0 178 87 261 88 83 220 83 125 0 215-85 91-84 91-259t-91-261q-90-86-215-86-132 0-220 86-87 86-87 261z"/>
<path id="d" transform="scale(.015625)" d="m2113 3488q228 0 409-38l-72-481q-212 47-375 47-416 0-711-338-295-337-295-840v-1838h-519v3425h428l60-634h25q190 334 459 515 269 182 591 182z"/>
<path id="i" transform="scale(.015625)" d="m2759 934q0-478-356-738-356-259-1e3 -259-681 0-1062 216v481q247-125 529-197 283-71 546-71 406 0 624 129 219 130 219 396 0 200-173 342t-677 336q-478 178-680 311-201 133-300 301-98 169-98 403 0 419 341 661 341 243 934 243 553 0 1082-225l-185-422q-515 212-934 212-369 0-557-116-187-115-187-318 0-138 70-235 71-96 227-184 156-87 600-253 609-222 823-447t214-566z"/>
<path id="q" transform="scale(.015625)" d="m3353 3425v-328l-634-75q87-109 156-286t69-398q0-504-344-804t-944-300q-153 0-287 25-331-175-331-440 0-141 115-208 116-67 397-67h606q557 0 855-235 298-234 298-681 0-569-456-867-456-299-1331-299-672 0-1036 250t-364 707q0 312 200 541 200 228 562 309-131 59-220 184t-89 291q0 187 100 328t316 272q-266 109-433 371-167 263-167 601 0 562 337 867 338 305 956 305 269 0 485-63h1184zm-2731-4e3q0-278 234-422 235-144 672-144 653 0 967 196 314 195 314 529 0 278-172 386-171 108-646 108h-622q-353 0-550-168-197-169-197-485zm281 2903q0-359 203-544 203-184 566-184 759 0 759 738 0 771-768 771-366 0-563-197-197-196-197-584z"/>
<path id="l" transform="scale(.015625)" d="m4916 0v2228q0 410-175 614-175 205-544 205-484 0-716-278-231-278-231-856v-1913h-519v2228q0 410-175 614-175 205-547 205-487 0-714-292-226-292-226-958v-1797h-519v3425h422l84-469h25q147 250 414 391 268 141 599 141 803 0 1050-582h25q153 269 443 425 291 157 663 157 581 0 870-299 289-298 289-955v-2234h-518z"/>
<path id="g" transform="scale(.015625)" d="m2894 0v2216q0 418-191 624-190 207-597 207-537 0-787-291-250-290-250-959v-1797h-519v3425h422l84-469h25q160 253 447 392 288 140 641 140 619 0 931-299 313-298 313-955v-2234h-519z"/>
<path id="c" transform="scale(.015625)" d="m1656 366q138 0 266 20t203 42v-397q-84-40-248-67t-296-27q-993 0-993 1047v2038h-491v250l491 216 218 731h300v-794h994v-403h-994v-2016q0-309 147-475 147-165 403-165z"/>
</defs>
<use xlink:href="#r"/>
<use x="61.279297" xlink:href="#b"/>
<use x="117.382812" xlink:href="#o"/>
<use x="164.160156" xlink:href="#m"/>
<use x="189.453125" xlink:href="#b"/>
<use x="245.556641" xlink:href="#d"/>
<use x="286.376953" xlink:href="#OpenSans-Regular-20"/>
<use x="312.353516" xlink:href="#i"/>
<use x="360.058594" xlink:href="#b"/>
<use x="416.162109" xlink:href="#q"/>
<use x="470.947266" xlink:href="#l"/>
<use x="563.964844" xlink:href="#b"/>
<use x="620.068359" xlink:href="#g"/>
<use x="681.445312" xlink:href="#c"/>
</g>
<path d="m228.39 158.21h22" fill="none" stroke="#2980b9" stroke-linecap="square"/>
<g transform="translate(259.19 162.06) scale(.11 -.11)">
<defs>
<path id="j" transform="scale(.015625)" d="m2144-63q-335 0-612 123-276 124-463 381h-38q38-300 38-569v-1410h-519v4963h422l72-469h25q200 282 465 407 266 125 610 125 681 0 1051-466 371-466 371-1306 0-844-377-1312-376-467-1045-467zm-75 3110q-525 0-760-291-234-290-240-925v-115q0-722 240-1033 241-311 772-311 444 0 695 359 252 360 252 991 0 641-252 983-251 342-707 342z"/>
<path id="e" transform="scale(.015625)" d="m2656 0l-103 488h-25q-256-322-511-437-254-114-636-114-509 0-798 263t-289 747q0 1037 1659 1087l581 19v213q0 403-173 595t-555 192q-428 0-968-262l-160 397q253 137 554 215 302 78 606 78 612 0 907-272 296-271 296-871v-2338h-385zm-1172 366q485 0 761 265 277 266 277 744v309l-519-21q-619-22-892-193-273-170-273-529 0-282 170-429 170-146 476-146z"/>
<path id="h" transform="scale(.015625)" d="m1919-63q-744 0-1152 458t-408 1296q0 859 414 1328 415 469 1180 469 247 0 494-54 247-53 387-125l-159-440q-172 69-375 114t-359 45q-1044 0-1044-1331 0-631 254-969 255-337 755-337 428 0 878 184v-459q-343-179-865-179z"/>
<path id="n" transform="scale(.015625)" d="m3341 2291q0-1185-374-1770-373-584-1142-584-737 0-1122 598-384 599-384 1756 0 1193 372 1771 372 579 1134 579 744 0 1130-604 386-603 386-1746zm-2497 0q0-997 234-1452 235-455 747-455 519 0 751 461 233 461 233 1446 0 984-233 1442-232 458-751 458-512 0-747-452-234-451-234-1448z"/>
<path id="t" transform="scale(.015625)" d="m2234 0h-506v3256q0 407 25 769-65-66-147-138-81-71-743-609l-275 356 1209 935h437v-4569z"/>
<path id="s" transform="scale(.015625)" d="m3316 0h-3003v447l1203 1209q550 557 725 794 175 238 262 463 88 225 88 484 0 366-222 580t-616 214q-284 0-539-94t-567-341l-275 353q631 525 1375 525 644 0 1009-330 366-329 366-885 0-435-244-860t-912-1075l-1e3 -978v-25h2350v-481z"/>
</defs>
<use xlink:href="#j"/>
<use x="61.279297" xlink:href="#e"/>
<use x="116.894531" xlink:href="#d"/>
<use x="157.714844" xlink:href="#e"/>
<use x="213.330078" xlink:href="#l"/>
<use x="306.347656" xlink:href="#b"/>
<use x="362.451172" xlink:href="#c"/>
<use x="397.753906" xlink:href="#d"/>
<use x="438.574219" xlink:href="#m"/>
<use x="463.867188" xlink:href="#h"/>
<use x="511.474609" xlink:href="#OpenSans-Regular-20"/>
<use x="537.451172" xlink:href="#g"/>
<use x="598.828125" xlink:href="#e"/>
<use x="654.443359" xlink:href="#h"/>
<use x="702.050781" xlink:href="#e"/>
<use x="757.666016" xlink:href="#n"/>
<use x="814.84375" xlink:href="#n"/>
<use x="872.021484" xlink:href="#t"/>
<use x="929.199219" xlink:href="#s"/>
</g>
<use x="400.691094" y="158.206563" fill-opacity="0" stroke="#ff0000" xlink:href="#a"/>
<g transform="translate(420.49 162.06) scale(.11 -.11)">
<defs>
<path id="k" transform="scale(.015625)" d="m3506 1716q0-838-422-1309-421-470-1165-470-460 0-816 216t-550 619-194 944q0 837 419 1304 419 468 1163 468 718 0 1141-479 424-478 424-1293zm-2609 0q0-657 262-1001 263-343 772-343 510 0 774 342t264 1002q0 653-264 992t-780 339q-509 0-769-335-259-334-259-996z"/>
<path id="p" transform="scale(.015625)" d="m1069 0h-519v4863h519v-4863z"/>
</defs>
<use xlink:href="#h"/>
<use x="47.607422" xlink:href="#k"/>
<use x="108.007812" xlink:href="#g"/>
<use x="169.384766" xlink:href="#c"/>
<use x="204.6875" xlink:href="#d"/>
<use x="245.507812" xlink:href="#k"/>
<use x="305.908203" xlink:href="#p"/>
<use x="331.201172" xlink:href="#OpenSans-Regular-20"/>
<use x="357.177734" xlink:href="#j"/>
<use x="418.457031" xlink:href="#c"/>
<use x="453.759766" xlink:href="#i"/>
</g>
<defs>
<clipPath id="f">
<rect x="7.2" y="7.2" width="558" height="152.18"/>
</clipPath>
</defs>
</svg>
