<?xml version="1.0" encoding="UTF-8"?>
<!DOCTYPE svg  PUBLIC '-//W3C//DTD SVG 1.1//EN'  'http://www.w3.org/Graphics/SVG/1.1/DTD/svg11.dtd'>
<svg width="604.84pt" height="208.97pt" version="1.1" viewBox="0 0 604.835938 208.96535" xmlns="http://www.w3.org/2000/svg" xmlns:xlink="http://www.w3.org/1999/xlink">
<metadata>
<rdf:RDF xmlns:cc="http://creativecommons.org/ns#" xmlns:dc="http://purl.org/dc/elements/1.1/" xmlns:rdf="http://www.w3.org/1999/02/22-rdf-syntax-ns#">
<cc:Work>
<dc:type rdf:resource="http://purl.org/dc/dcmitype/StillImage"/>
<dc:date>2021-06-09T16:10:46.507100</dc:date>
<dc:format>image/svg+xml</dc:format>
<dc:creator>
<cc:Agent>
<dc:title>Matplotlib v3.4.2, https://matplotlib.org/</dc:title>
</cc:Agent>
</dc:creator>
</cc:Work>
</rdf:RDF>
</metadata>
<defs>
<style type="text/css">*{stroke-linecap:butt;stroke-linejoin:round;}</style>
</defs>
<path d="m0 208.97h604.84v-208.97h-604.84z" fill="none"/>
<path d="m39.636 170.76h558v-163.08h-558z" fill="none"/>
<defs>
<path id="k" d="m65-193.87v51.697l2.5491 23.898 2.5491 11.272 2.5491 7.1314 2.5491 4.2426 2.5491 3.4688 2.5491 2.4573h2.5491l2.5491 4.2426 2.5491 5.2442 2.5491 1.7853h2.5491 2.5491 2.5491l2.5491 1.7853h2.5491 2.5491 2.5491l2.5491 13.729h2.5491 2.5491 2.5491 2.5491 2.5491 2.5491 2.5491 2.5491 2.5491 2.5491 2.5491 2.5491 2.5491 2.5491 2.5491 2.5491 2.5491 2.5491 2.5491 2.5491 2.5491 2.5491 2.5491 2.5491 2.5491 2.5491 2.5491l2.5491 17.3h2.5491 2.5491 2.5491 2.5491 2.5491 2.5491 2.5491 2.5491 2.5491 2.5491 2.5491 2.5491 2.5491 2.5491 2.5491 2.5491 2.5491 2.5491 2.5491 2.5491 2.5491 2.5491 2.5491 2.5491 2.5491 2.5491 2.5491 2.5491 2.5491 2.5491 2.5491 2.5491 2.5491 2.5491 2.5491 2.5491 2.5491 2.5491 2.5491 2.5491 2.5491 2.5491 2.5491 2.5491 2.5491 2.5491 2.5491 2.5491 2.5491 2.5491 2.5491 2.5491 2.5491 2.5491 2.5491 2.5491 2.5491 2.5491 2.5491 2.5491 2.5491 2.5491 2.5491 2.5491 2.5491 2.5491 2.5491 2.5491 2.5491 2.5491 2.5491 2.5491 2.5491 2.5491 2.5491 2.5491 2.5491 2.5491 2.5491 2.5491 2.5491 2.5491 2.5491 2.5491 2.5491 2.5491 2.5491 2.5491 2.5491 2.5491 2.5491 2.5491 2.5491 2.5491 2.5491 2.5491 2.5491 2.5491 2.5491 2.5491 2.5491 2.5491 2.5491 2.5491 2.5491 2.5491 2.5491 2.5491 2.5491 2.5491 2.5491 2.5491 2.5491 2.5491 2.5491 2.5491 2.5491 2.5491 2.5491 2.5491 2.5491 2.5491 2.5491 2.5491 2.5491 2.5491 2.5491 2.5491 2.5491 2.5491 2.5491 2.5491 2.5491 2.5491 2.5491 2.5491 2.5491 2.5491 2.5491 2.5491 2.5491 2.5491 2.5491 2.5491 2.5491 2.5491 2.5491 2.5491 2.5491 2.5491 2.5491 2.5491 2.5491-2.5491-2.5491-2.5491-2.5491-2.5491-2.5491-2.5491-2.5491-2.5491-2.5491-2.5491-2.5491-2.5491-2.5491-2.5491-2.5491-2.5491-2.5491-2.5491-2.5491-2.5491-2.5491-2.5491-2.5491-2.5491-2.5491-2.5491-2.5491-2.5491-2.5491-2.5491-2.5491-2.5491-2.5491-2.5491-2.5491-2.5491-2.5491-2.5491-2.5491-2.5491-2.5491-2.5491-2.5491-2.5491l-2.5491-17.3h-2.5491-2.5491-2.5491-2.5491-2.5491-2.5491-2.5491-2.5491-2.5491-2.5491-2.5491-2.5491-2.5491-2.5491-2.5491-2.5491-2.5491-2.5491-2.5491-2.5491-2.5491-2.5491-2.5491-2.5491-2.5491-2.5491-2.5491-2.5491-2.5491-2.5491l-2.5491-13.729h-2.5491-2.5491-2.5491-2.5491-2.5491-2.5491-2.5491-2.5491-2.5491-2.5491l-2.5491-1.7853h-2.5491-2.5491-2.5491-2.5491-2.5491-2.5491-2.5491-2.5491-2.5491-2.5491-2.5491-2.5491-2.5491l-2.5491-1.7853h-2.5491-2.5491-2.5491-2.5491-2.5491-2.5491-2.5491-2.5491-2.5491-2.5491-2.5491-2.5491l-2.5491-5.2442h-2.5491-2.5491-2.5491l-2.5491-3.0374h-2.5491-2.5491l-2.5491-1.2052h-2.5491-2.5491-2.5491-2.5491-2.5491-2.5491-2.5491-2.5491-2.5491-2.5491-2.5491-2.5491-2.5491-2.5491-2.5491-2.5491-2.5491l-2.5491-1.7853h-2.5491-2.5491l-2.5491-2.4573h-2.5491-2.5491-2.5491l-2.5491-1.6835h-2.5491-2.5491-2.5491l-2.5491-0.10185h-2.5491-2.5491-2.5491-2.5491-2.5491-2.5491l-2.5491-2.3555h-2.5491l-2.5491-1.7853h-2.5491-2.5491-2.5491l-2.5491-1.1034h-2.5491-2.5491l-2.5491-0.68194-2.5491-1.1034h-2.5491l-2.5491-2.4573h-2.5491-2.5491-2.5491-2.5491l-2.5491-0.58009-2.5491-1.2052h-2.5491-2.5491-2.5491-2.5491-2.5491l-2.5491-2.4573-2.5491-1.6835-2.5491-0.10185-2.5491-1.6835-2.5491-0.10185-2.5491-2.3555-2.5491-1.7853-2.5491-2.4088-2.5491-1.1519-2.5491-1.7853-2.5491-1.7853-2.5491-4.1408-2.5491-4.2426-2.5491-5.346-2.5491-7.0295-2.5491-10.169-2.5491-17.3-2.5491-21.339z" stroke="#d35400" stroke-opacity=".15"/>
</defs>
<g clip-path="url(#f)">
<use y="208.96535" fill="#d35400" fill-opacity=".15" stroke="#d35400" stroke-opacity=".15" xlink:href="#k"/>
</g>
<defs>
<path id="c" d="m0 0v3.5" stroke="#000" stroke-width=".8"/>
</defs>
<use x="64.999574" y="170.762225" stroke="#000000" stroke-width=".8" xlink:href="#c"/>
<g transform="translate(62.141 185.36) scale(.1 -.1)">
<defs>
<path id="a" transform="scale(.015625)" d="m3341 2291q0-1185-374-1770-373-584-1142-584-737 0-1122 598-384 599-384 1756 0 1193 372 1771 372 579 1134 579 744 0 1130-604 386-603 386-1746zm-2497 0q0-997 234-1452 235-455 747-455 519 0 751 461 233 461 233 1446 0 984-233 1442-232 458-751 458-512 0-747-452-234-451-234-1448z"/>
</defs>
<use xlink:href="#a"/>
</g>
<use x="166.963941" y="170.762225" stroke="#000000" stroke-width=".8" xlink:href="#c"/>
<g transform="translate(158.39 185.36) scale(.1 -.1)">
<defs>
<path id="j" transform="scale(.015625)" d="m3316 0h-3003v447l1203 1209q550 557 725 794 175 238 262 463 88 225 88 484 0 366-222 580t-616 214q-284 0-539-94t-567-341l-275 353q631 525 1375 525 644 0 1009-330 366-329 366-885 0-435-244-860t-912-1075l-1e3 -978v-25h2350v-481z"/>
</defs>
<use xlink:href="#j"/>
<use x="57.177734" xlink:href="#a"/>
<use x="114.355469" xlink:href="#a"/>
</g>
<use x="268.928308" y="170.762225" stroke="#000000" stroke-width=".8" xlink:href="#c"/>
<g transform="translate(260.35 185.36) scale(.1 -.1)">
<defs>
<path id="i" transform="scale(.015625)" d="m3531 1050h-678v-1050h-497v1050h-2222v453l2169 3091h550v-3072h678v-472zm-1175 472v1519q0 447 32 1009h-25q-150-300-282-497l-1428-2031h1703z"/>
</defs>
<use xlink:href="#i"/>
<use x="57.177734" xlink:href="#a"/>
<use x="114.355469" xlink:href="#a"/>
</g>
<use x="370.892676" y="170.762225" stroke="#000000" stroke-width=".8" xlink:href="#c"/>
<g transform="translate(362.32 185.36) scale(.1 -.1)">
<defs>
<path id="e" transform="scale(.015625)" d="m366 1953q0 1347 523 2014 524 667 1549 667 353 0 556-59v-447q-241 78-550 78-735 0-1123-458-387-457-424-1439h37q344 538 1088 538 616 0 970-372 355-372 355-1009 0-713-389-1121t-1052-408q-709 0-1125 533-415 533-415 1483zm1534-1575q444 0 689 280t245 808q0 453-228 712-228 260-681 260-281 0-516-116-234-116-373-319t-139-422q0-322 125-600t354-441q230-162 524-162z"/>
</defs>
<use xlink:href="#e"/>
<use x="57.177734" xlink:href="#a"/>
<use x="114.355469" xlink:href="#a"/>
</g>
<use x="472.857043" y="170.762225" stroke="#000000" stroke-width=".8" xlink:href="#c"/>
<g transform="translate(464.28 185.36) scale(.1 -.1)">
<defs>
<path id="h" transform="scale(.015625)" d="m1825 4634q625 0 990-291 366-290 366-802 0-338-209-616t-669-506q556-266 790-558 235-292 235-677 0-568-397-908-397-339-1087-339-731 0-1125 320-394 321-394 909 0 784 956 1222-431 243-619 526-187 283-187 633 0 497 367 792t983 295zm-987-3481q0-375 260-585 261-209 733-209 466 0 725 219 260 219 260 600 0 303-244 539t-850 458q-466-200-675-442t-209-580zm981 3060q-391 0-613-188-222-187-222-500 0-287 184-494 185-206 682-412 447 187 633 403t186 503q0 316-227 502-226 186-623 186z"/>
</defs>
<use xlink:href="#h"/>
<use x="57.177734" xlink:href="#a"/>
<use x="114.355469" xlink:href="#a"/>
</g>
<use x="574.82141" y="170.762225" stroke="#000000" stroke-width=".8" xlink:href="#c"/>
<g transform="translate(563.39 185.36) scale(.1 -.1)">
<defs>
<path id="d" transform="scale(.015625)" d="m2234 0h-506v3256q0 407 25 769-65-66-147-138-81-71-743-609l-275 356 1209 935h437v-4569z"/>
</defs>
<use xlink:href="#d"/>
<use x="57.177734" xlink:href="#a"/>
<use x="114.355469" xlink:href="#a"/>
<use x="171.533203" xlink:href="#a"/>
</g>
<g transform="translate(308.26 199.36) scale(.1 -.1)">
<defs>
<path id="r" transform="scale(.015625)" d="m3206 1216q0-603-438-941-437-338-1187-338-812 0-1250 210v512q282-118 613-187t656-69q531 0 800 201 269 202 269 562 0 237-96 388-95 152-319 280-223 129-679 291-637 228-911 540-273 313-273 816 0 528 396 840 397 313 1051 313 681 0 1253-250l-166-462q-566 237-1100 237-422 0-660-181-237-181-237-503 0-237 87-389 88-152 296-279 208-126 636-279 719-256 989-550t270-762z"/>
<path id="m" transform="scale(.015625)" d="m1656 366q138 0 266 20t203 42v-397q-84-40-248-67t-296-27q-993 0-993 1047v2038h-491v250l491 216 218 731h300v-794h994v-403h-994v-2016q0-309 147-475 147-165 403-165z"/>
<path id="g" transform="scale(.015625)" d="m1997-63q-759 0-1199 463-439 463-439 1284 0 829 408 1316 408 488 1096 488 643 0 1018-424 375-423 375-1117v-328h-2359q16-603 305-916 289-312 814-312 553 0 1093 231v-463q-275-118-520-170t-592-52zm-141 3116q-412 0-658-269-245-268-289-743h1791q0 490-219 751-218 261-625 261z"/>
<path id="o" transform="scale(.015625)" d="m2144-63q-335 0-612 123-276 124-463 381h-38q38-300 38-569v-1410h-519v4963h422l72-469h25q200 282 465 407 266 125 610 125 681 0 1051-466 371-466 371-1306 0-844-377-1312-376-467-1045-467zm-75 3110q-525 0-760-291-234-290-240-925v-115q0-722 240-1033 241-311 772-311 444 0 695 359 252 360 252 991 0 641-252 983-251 342-707 342z"/>
</defs>
<use xlink:href="#r"/>
<use x="54.882812" xlink:href="#m"/>
<use x="90.185547" xlink:href="#g"/>
<use x="146.289062" xlink:href="#o"/>
</g>
<defs>
<path id="b" d="m0 0h-3.5" stroke="#000" stroke-width=".8"/>
</defs>
<use x="39.635938" y="166.147439" stroke="#000000" stroke-width=".8" xlink:href="#b"/>
<g transform="translate(26.919 169.95) scale(.1 -.1)">
<use xlink:href="#e"/>
</g>
<use x="39.635938" y="135.117795" stroke="#000000" stroke-width=".8" xlink:href="#b"/>
<g transform="translate(26.919 138.92) scale(.1 -.1)">
<use xlink:href="#h"/>
</g>
<use x="39.635938" y="104.088151" stroke="#000000" stroke-width=".8" xlink:href="#b"/>
<g transform="translate(21.202 107.89) scale(.1 -.1)">
<use xlink:href="#d"/>
<use x="57.177734" xlink:href="#a"/>
</g>
<use x="39.635938" y="73.058507" stroke="#000000" stroke-width=".8" xlink:href="#b"/>
<g transform="translate(21.202 76.858) scale(.1 -.1)">
<use xlink:href="#d"/>
<use x="57.177734" xlink:href="#j"/>
</g>
<use x="39.635938" y="42.028863" stroke="#000000" stroke-width=".8" xlink:href="#b"/>
<g transform="translate(21.202 45.828) scale(.1 -.1)">
<use xlink:href="#d"/>
<use x="57.177734" xlink:href="#i"/>
</g>
<use x="39.635938" y="10.999219" stroke="#000000" stroke-width=".8" xlink:href="#b"/>
<g transform="translate(21.202 14.798) scale(.1 -.1)">
<use xlink:href="#d"/>
<use x="57.177734" xlink:href="#e"/>
</g>
<g transform="translate(14.798 105.18) rotate(-90) scale(.1 -.1)">
<defs>
<path id="s" transform="scale(.015625)" d="m3175 0h-2547v4569h2547v-472h-2016v-1472h1894v-469h-1894v-1681h2016v-475z"/>
<path id="p" transform="scale(.015625)" d="m2894 0v2216q0 418-191 624-190 207-597 207-537 0-787-291-250-290-250-959v-1797h-519v3425h422l84-469h25q160 253 447 392 288 140 641 140 619 0 931-299 313-298 313-955v-2234h-519z"/>
<path id="n" transform="scale(.015625)" d="m2113 3488q228 0 409-38l-72-481q-212 47-375 47-416 0-711-338-295-337-295-840v-1838h-519v3425h428l60-634h25q190 334 459 515 269 182 591 182z"/>
<path id="q" transform="scale(.015625)" d="m3353 3425v-328l-634-75q87-109 156-286t69-398q0-504-344-804t-944-300q-153 0-287 25-331-175-331-440 0-141 115-208 116-67 397-67h606q557 0 855-235 298-234 298-681 0-569-456-867-456-299-1331-299-672 0-1036 250t-364 707q0 312 200 541 200 228 562 309-131 59-220 184t-89 291q0 187 100 328t316 272q-266 109-433 371-167 263-167 601 0 562 337 867 338 305 956 305 269 0 485-63h1184zm-2731-4e3q0-278 234-422 235-144 672-144 653 0 967 196 314 195 314 529 0 278-172 386-171 108-646 108h-622q-353 0-550-168-197-169-197-485zm281 2903q0-359 203-544 203-184 566-184 759 0 759 738 0 771-768 771-366 0-563-197-197-196-197-584z"/>
<path id="l" transform="scale(.015625)" d="m6 3425h557l750-1953q246-669 306-966h25q40 160 170 546t849 2373h556l-1472-3900q-219-578-511-820-292-243-717-243-238 0-469 54v415q172-37 384-37 535 0 763 600l191 487-1382 3444z"/>
</defs>
<use xlink:href="#s"/>
<use x="55.615234" xlink:href="#p"/>
<use x="116.992188" xlink:href="#g"/>
<use x="173.095703" xlink:href="#n"/>
<use x="213.916016" xlink:href="#q"/>
<use x="268.701172" xlink:href="#l"/>
</g>
<path d="m65 40.002l2.5491 23.55 2.5491 14.753 2.5491 8.2102 2.5491 5.8584 2.5491 4.2084 2.5491 3.4072 2.5491 2.442 2.5491 2.0839 5.0982 3.4236 2.5491 1.3795 10.196 4.3565 2.5491 0.97738 2.5491 0.818 5.0982 1.8752 2.5491 0.79914 12.746 3.0207 2.5491 0.7888 5.0982 1.2055 5.0982 1.0845 5.0982 1.126 2.5491 0.40072 7.6473 1.5909 22.942 3.8162 2.5491 0.48114 17.844 2.4333 12.746 1.9587 2.5491 0.45198 25.491 2.952 2.5491 0.18176 5.0982 0.68027 5.0982 0.55503 5.0982 0.54617 7.6473 0.91303 5.0982 0.52858 7.6473 0.87205 30.589 3.1787 5.0982 0.7559 7.6473 0.83197 5.0982 0.72376 5.0982 0.5973 7.6473 0.72504 2.5491 0.27918 7.6473 1.2473 10.196 1.2156 5.0982 0.62922 5.0982 0.43886 12.746 1.3686 7.6473 0.82104 2.5491 0.27736 2.5491 0.15046 7.6473 0.9094 12.746 1.1842 5.0982 0.2274 7.6473 0.56926 7.6473 0.45749 5.0982 0.36742 12.746 0.78257 33.138 1.0884 43.335 0.6468 15.295 0.034601 25.491 0.093421" clip-path="url(#f)" fill="none" stroke="#d35400" stroke-linecap="square" stroke-width="1.5"/>
<path d="m39.636 170.76v-163.08" fill="none" stroke="#000" stroke-linecap="square" stroke-width=".8"/>
<path d="m39.636 170.76h558" fill="none" stroke="#000" stroke-linecap="square" stroke-width=".8"/>
<defs>
<clipPath id="f">
<rect x="39.636" y="7.6822" width="558" height="163.08"/>
</clipPath>
</defs>
</svg>
