<svg xmlns="http://www.w3.org/2000/svg" height="744" viewBox="0 0 317.404 558" width="423.205" stroke-linecap="butt" stroke-linejoin="round" xmlns:v="https://vecta.io/nano"><path clip-path="url(#A)" d="M122.078 200.914l-.458-1.183-6.856-4.126-.95 1.45-2.236 8.84-3.462 8.093-.088-.454.061 1.823-4.108 4.367-7.536-3.548-6.513-4.295-3.529-3.095-10.089-4.607-5.442 1.254-5.038 7.826-3.037 10.761-4.108 10.796-6.277 9.862-6.513 7.408 2.896 3.842 1.408 3.584-3.105 4.082-.027 6.323 2.263 4.438-4.209 1.076-4.681 23.113-6.102 5.843-4.438 6.705 6.472 8.333 8.661 5.7 8.52 5.807 7.658 5.745 5.112 3.104-3.388 9.711-2.263 3.041-2.425 3.984-3.886 7.55-4.425 7.995-1.926 7.07 6.89 5.167 7.866 4.865 2.694-4.882-4.001-2.97-3.246-2.063-6.385-3.628-4.263 2.223-2.896 4.064-3.179 7.372-3.812 7.203-2.788 6.27-4.856 6.625-9.065 15.216 3.408 6.305 6.014 6.296 5.516 3.984 9.55 5.265 10.372 4.571 9.409 5.114 4.155 2.988 1.145 6.225 2.452 2.161 8.708 6.385 5.3 8.493 5.442 3.486 6.344 4.295 5.226 1.832 8.351 4.118 8.452 6.252 2.694.676 8.614 5.54.599.044 9.644 5.754 11.766 6.821 8.095 4.206 1.603.685.465-.169 2.627-4.1 10.264-16.835 2.344-4.562 8.412-17.084 6.041-9.676 3.516-9.24-8.412-5.469-5.657-3.041-10.931-6.243-1.239-7.283 18.171-33.278 9.712-16.897 5.044-9.951 6.903-12.299 2.371-6.047 3.731-5.318.593-3.495 4.809-5.629-6.668-7.239-1.414-1.183-5.913-4.278-9.57-5.789-6.654-2.001-4.701-2.25-6.189-5.238 1.63-3.477 6.095-10.903.64-2.819.168-3.148-4.586-3.353-.734-2.935 4.304-3.246-.633-5.291.977-4.206 6.061-8.137-.64-12.522 6.883-12.824 5.26-10.69 3.011-8.973 5.63-12.192 8.419-10.841 5.994-11.054 10.843-3.966 11.254-2.864 6.924-11.392 11.921-21.575 5.603-14.202-.748-16.39 2.559-14.914 10.022-11.828 1.812-13.678 4.735-11.766 1.542-9.702-10.695-1.272 9.112-14.451-6.614-11.294-10.621-3.682-9.005.249-1.327 7.346 6.068 4.029 2.916 7.39-5.947 15.198-10.049 11.357-11.342 5.878-6.263 9.133-4.364 9.542-8.708 7.781-1.744 11.134-6.391 6.492-8.809 5.176-6.883 12.682 1.866 12.095-1.387 9.898-8.351 8.991-5.166 13.42-8.089 12.61-9.698 11.481-10.648 9.098-6.068 9.836-4.519 5.505-9.671-3.095-31.917-17.76 1.994-6.519 5.657-9.996 3.367.836.216.578" fill="none" stroke="#000" stroke-width="3"/><defs><clipPath id="A"><path d="M7.2 7.2h303.004v543.6H7.2z" stroke-linecap="butt" stroke-linejoin="round"/></clipPath></defs></svg>