<svg xmlns="http://www.w3.org/2000/svg" height="744" viewBox="0 0 346.62 558" width="462.16" stroke-linecap="butt" stroke-linejoin="round" xmlns:v="https://vecta.io/nano"><path clip-path="url(#A)" d="M293.333 48.007l4.423 2.361-3.258 7.09-2.313 6.488 8.426 5.003 8.685 5.673 10.133 5.026 4.89 7.242-4.469 9.488-4.89 8.392-9.06 16.943-4.648 7.813-4.002 7.15-4.475 8.369-2.364 4.752-4.291 6.694-4.619 7.897-4.389 8.704-4.74 8.224-5.133 9.389-5.456 10.455-6.263 9.808-4.325 8.613-4.406 8.346-3.397 7.166-3.46 5.513-5.231 8.78-5.859 11.27-5.334 9.283-3.114 5.909-3.328 5.749-5.68 10.166-6.488 11.171-5.531 10.387-3.264 7.189-3.489 5.506-3.039 6.427 6.234 6.199 4.712-7.638-3.979-1.911-3.247-1.416-5.15 5.627.133 6.716-5.698 4.516-5.133 8.3-4.296 7.767-4.954 7.333-6.626-1.995-7.716-4.797-6.926-1.957 3.166-8.369-.507-5.163-9.671-3.678-5.865 11.087-11.672 19.411-5.063 11.483-6.788 7.569-2.935 8.91-6.99 11.879-5.386 8.133-6.586 10.912-4.648 8.788-4.129 10.547-5.202 8.049-4.048 9.412-13.333 19.852-4.746 9.884-5.363 8.955-9.971 17.454-4.729 1.79-9.031-4.973-1.125-7.668 4.902-8.064 4.291-10.059 5.075-9.488 9.141-15.42 5.086-9.344 5.877-9.458 2.93-6.998 3.581-6.754 4.608-7.333 4.008-8.209 4.268-9.146 5.138-7.524 1.067-8.574 7.474-4.698 2.065-4.082.208-3.579 3.328-2.696 1.194-2.018-.473-4.782 5.531 1.218 5.836 3.83 6.828 3.625 7.422 6.747 7.007-.046 4.302-9.024 5.484-10.448 6.424-7.425 4.366-5.772.006-5.886 4.608-8.217 5.179-.838 8.195-10.021 3.95-8.163-1.649-3.282-2.076-5.132 2.757-8.734 4.492-9.572 5.323-8.293-.219-5.536-8.074-4.036-3.812-4.592-5.138.069-6.188-.472-11.061-4.843-7.37-5.49-1.597-4.874-5.427-4.782-7.93-4.257-9.158-6.183-8.927-3.945-2.826-6.161 1.99-7.783 3.328-6.556-4.325-4.79-1.326 1.302-2.29 6.442-.923-1.729 1.817-5.445-.311-5.711 3.639-8.468 3.852-3.701 5.542-8.514 4.85-10.958 2.791-10.334 6.176-6.336 2.907-12.154 7.174-6.29 4.227-5.947 4.043-7.074 4.279-9.344 6.413-9.564 7.07-1.135 2.63 3.526 3.679-3.701 5.9 2.764 4.25-.107 3.633-6.191 3.829-8.369 5.058-8.034 6.517-9.869 3.362-6.191 2.907-6.602 3.847-6.511 3.547-8.041 5.992-3.648 2.641-8.453 4.037-8.392 6.194-.876 8.131 3.381 7.088 5.46 10.582 5.787 8.333 4.988 3.985 1.477 6.742 3.419 4.043-8.475 3.708-6.351 6.874 4.516 2.14 1.058" fill="none" stroke="#000" stroke-width="3"/><defs><clipPath id="A"><path d="M7.2 7.2h332.22v543.6H7.2z" stroke-linecap="butt" stroke-linejoin="round"/></clipPath></defs></svg>