<svg xmlns="http://www.w3.org/2000/svg" height="744" viewBox="0 0 339.794 558" width="453.059" stroke-linecap="butt" stroke-linejoin="round" xmlns:v="https://vecta.io/nano"><path clip-path="url(#A)" d="M89.557 526.091l-9.619-4.165-9.053-6.931-10.106-4.599-4.706 6.014-4.481 4.358-9.053-6.906-6.74-3.152-11.208-6.191-2.6-5.636 3.044-7.188.085-.113 5.966 3.546 5.522 3.57 7.519-1.801 6.265-7.469 3.184-9.021 3.093-6.504 4.731-8.137 5.266-5.958 4.779-.82 6.74 3.208 4.651.78 5.242 4.808 8.724 4.856 5.899-1.238 6.362-7.493 6.259-9.889 3.677-9.27 2.922-6.287 8.073-9.037 4.304-10.283 6.52-9.262 3.903-10.348 1.699-6.971 4.237-5.99-4.797-7.164 5.09-8.249 4.651-10.589 7.196-7.244 8.974 2.34 8.901-5.234 6.435-8.474 7.062-7.895-.858-11.843 5.741-10.5 5.479-7.493 1.82-8.651 2.837-8.812 6.667-8.072 5.114-9.286 5.565-7.726 10.24-2.243 8.846-2.927 5.516-9.889 5.924-10.516 5.857-10.709 4.694-11.65-.073-12.551-.371-12.253 8.377-11.095 3.848-11.369 2.496-11.393 7.422-9.045-12.316.265 3.878-10.894 2.234-11.328-7.062-6.328-9.114-1.753-7.555 1.142 1.017 7.244 6.289 4.88 1.601 9.085-7.531 9.029-8.383 8.9-9.388 4.84-6.618-.804-3.087-4.535-2.478-5.154-3.976-4.173 3.202-5.435 3.428-6.48 3.702-6.947-.865-7.911-6.691-4.125-7.373-3.522-6.374-3.795 2.027-5.451 3.878-8-3.464-4.647-7.081-3.481-3.793-5.146-.201-5.057 2.843-1.616 5.534-1.021 5.711 4.551 5.619 4.695 1.516 6.255 8.225 6.159 8.706 3.827 8.335-1.753 5.796-9.584 3.409-8.482 5.571-1.367 7.032 1.383 3.556-3.409 2.338-6.697-.384.233 2.533-3.819 4.457-6.529 4.414-8.563 3.781-9.56 4.846-7.767 5.175-1.487 5.778 3.184 5.796 3.087-2.253 6.826-4.323 7.324-3.896 7.381-2.971 7.743-4.846 6.721-4.317 6.577-2.715 5.765-3.72 6.496-4.323 7.308-5.285-1.817.25-.587" fill="none" stroke="#000" stroke-width="3"/><defs><clipPath id="A"><path d="M7.2 7.2h325.394v543.6H7.2z" stroke-linecap="butt" stroke-linejoin="round"/></clipPath></defs></svg>