<svg xmlns="http://www.w3.org/2000/svg" height="758.4" viewBox="0 0 513.094 568.8" width="684.125" stroke-linecap="butt" stroke-linejoin="round" xmlns:v="https://vecta.io/nano"><path d="M0 568.8h513.094V0H0z" fill="#fff"/><path clip-path="url(#A)" d="M96.218 301.799l.071-.119-.643-.399-.148.357-.727.136-.187-.102.199.025.238-.085 1.28.442 2.907 1.206.392.28.386-.017.051.246 1.139.612.495.221 1.576.773 1.229.901.148.025.135.161.759.204.425.408.103.068.444.076.367-.153.663-.841.006-.374.174-.255.219.076.45-.68.315-.654.476-1.138.772.085 2.226.799 2.329.518 1.524.467 1.377.365.663.093.444.221.682.042 2.284 1.648.675.357 1.158.892.515.076 3.859 2.107 2.946 2.149.585.059 1.074.731 1.068.187 1.164.493.457.272 1.685.527.585.408 2.039.909.553.314.437.11 1.171.629 1.627.943.515.229 1.589 1.308.38.518.502.45.566 1.215.341 1.376.277 2.039 1.016 3.424 1.389 2.532.444.671 1.254.943 1.113.561 2.226 2.387 1.081 1.844 1.094 1.929 1.261 1.487 3.088 3.109.032.136-.437.629-.566.901-.476 1.912.006.748-.476 1.206-2.457 4.316-2.888 5.012-.244.637-.65 1.121-.534 1.121-.399.544-1.634 3.772-.058.467-.521 1.07-.785 1.317-.656 2.2-.129.255-.92-.323-.244.697.006.076-.238.297-1.164 1.64-3.57 6.55-.727 1.036-7.417 14.757-.154.518-.913 1.206-1.023 1.801-.746 1.104-.444.561-.219.62-.334.544-.251.765-.463.501-.907 2.175-.907 1.189-.785 1.495-.47.399-2.29 3.823-.315.646-.135.586-.476.892-.026.195-.437.994-.682.986-.18.357-.058.603-.334.484-1.209 2.549-1.055 1.648-.367.501-.437.374-2.02 3.152-1.923 3.628-1.724 3.228-2.586 4.316-1.055 2.183-.843 1.215-.277.841-4.921 8.215-1.833 3.942-.18.739-1.19 1.793-.386 1.147-.277.629-.38.416-.585 1.045-.392.382-.585 1.249-1.139 2.676-.399.569-.624 1.529-.946.96-1.061 1.895-.714 2.064-.83.765-.566 1.172-.759 1.419-.746.833-.669 1.223-.283.68-1.248 1.971-1.37 2.311-.663.909-.515 1.546-.244.603-.058.518.09.348.791.527.232.153.527.153.386.28-.013.45.167.263 1.254.688 1.692.408.643.442.804.569 1.364.391 4.104 2.175.733.442.663.238 2.129 1.325.913.62.611.246.38-.136 1.698.637.116.11.039-.076-.199.178.174-.119.032.144.174.161-.437.314-.54.28.039.238.019-.408.006-.28.148.093.058.195.746.484.508.221.856.714 2.264 1.155 1.042.578.392.348 1.441.901.103.416.039.042.65.093.65.195.302.501.354.102.354.255.708.62.579.374.277.348 3.332 2.472.701.025.81.263.81.382 2.091 1.538.83.765.238.008.283.178-.026-.136.174-.076.064-.221-.084-.17-.212.153.605.297.849.62.367.28.637.161.682.552 1.75.969.958.272.663-.17.566-.017.354.663.508.195.206.331-.167.034.244-.034.296.68.727.28.412.034.431.153.791.085 2 .578.817.671 1.505 1.147 3.943 1.835.257-.093.521.195.225.059.026.178.064-.11.354.476-.058-.153.386-.246 1.377-.042.418.195.463.663-.103 1.376.077.433.354.28 1.499.289 1.859.901 1.531.875 2.663 1.487 1.299.688 1.055.433.714 1.827.277.416.386.221.572-.085 1.119.425.875-.255 1.042.714 1.048.476-.045.085.199.127.122.382.238.246.534.161.161.289.894.348 1.248.28.232.102.521.017.283.051.096.017.051.221.058-.093.566.11-.013.255.199.425.109-.059-.18.136.187.867-.109-.212-.18.153-.167.204.418-.042.817-.382.701-.034.611.017.592.34.63.705 1.145.459.109.068.077.331-.058-.025-.444-.195-2.046-.68-.167.195-.154-.28.006-.552.289-.884.013-.323.354-.399.856-1.98.232-.731.611-.425.553.187.823.501.431.017.482-.153.354.119.225-.102.238.076.219-.093-.187-.017-.251.042-.553-.391.367.297-.135.17.302.272.013.306.058.093-.225.042.045-.212.058-.136.412.161.116-.085.219-.008.277-.263h-.064l-.907-.629-.437-.229-.527-.255-.598-.374-.315-.11-.077-.161-.277.008-.212-.714.148-.391-.077-.374.064-.255-.103-.306-.193-.221-.225.11-.122-.45.051-.467.656-.697 1.846-1.011.244-.221.122-.391.746-1.164 2.02-3.203.72-.493.257-.34.116-.408.006-.459 2.374-4.163.425-.875.315-.416.154-.51.019-.578.18-.765.251-.433.142-.629.913-.935.206-.51.309-.272.38-1.045 1.151-2.54.064-.586.47-1.079.302-.238 1.66-3.271.161-.578.322-.629.849-1.257 1.962-3.356.958-2.226 1.306-1.971.103-.433.431-.833-.084-.799.135-.484.302-.246.135-.297.643-.501.958-1.002-.045-.255.264-1.053.071-.068.161-.246.309-.552-.109-.127.862-1.589.328-.348.392-.901.006-.45.302-.79.643-1.682.682-1.045.476-.357.733-1.062.92-1.767-.135-.374.058-1.376.437-.425.199-.518 1.923-3.16.521-.527 1.357-2.396.952-2.2.341-.637.257-.943.457-.433.154-.34 1.235-1.351.708-1.444.611-.943.489-.943.354-.493.875-.637.289-.629.74-1.096 1.685-2.421.225-.807.823-.841.077-.255.862-1.835.463-.399.302-.416.47-.348.778-1.827.386-.552.026-.399.695-1.062.135-.467.315-.433.277-1.232.991-1.41.817-1.631-.219.025 1.274-3.305.778-.799.334-.493.534-1.402.862-1.13.161-.646 1.615-1.912.45-.663.257-.161.058-.425-.006-.153.174-.374-.238-.501.309-1.155.328-.161.643-1.308.656-1.427.238-.331.225-.535.881-1.436.277-.552.63-.663.823-1.351.09-.629.257-.646.431-.646.515-.569.289-.782.675-.952.958-1.113.109-.331 1.274-2.03.251-.476.566-.561 2.123 1.164 1.229.382.849.51.527.051.836.518 4.316 1.878.463.127.367.34.289.068.206.238.489.195 1.055.229 1.737.467.476.025.238.153.006.102.36.374.148.034.199.212.991.612.534.654 1.216.731.476.884.129-.272 1.306.212.09.076.18-.025.006.059.405.654-.251.433-1.422 1.232-1.203.816-.399.348-.051.068-.81.433-.129.204.135-.136.116.093-.026-.093.656-.51.881-.467.913-1.036.399-.425.431-.289.418-.314.373-.586.592-.782.56-.221.682-.365.772-.314.392-.187.142-.076.65.034.039-.238.193-.374.225-.867.38-.714.187-.246.675-.034.392-.025.154-.816.116-.314.219-.229-.006-.246.328-.909.521-.782.187-.34.309-1.062 1.814-1.946.418-.629.656-.705.991-1.682 2.85-3.696.399-.714.656-1.13.663-1.07 1.389-1.699.618-1.045.701-1.385.611-1.232 1.647-4.817.457-2.056.463-.705.386-.263.907-.331.508-.926.322-2.03-.219-4.146.013-.085-.373-.807-.232-.569-.45-.501-.444-.408-.695-.748-.154-.595-.264-.943-.367-.697-.251-.595-.547-2.2-2.612-9.192-1.82-4.282-.296-1.147-.283-.501-.148-.51-.515-1.096-.257-1.087-.354-1.827-.412-2.149-.682-4.588-.212-1.521-.36-1.215-.013-.96.193-3.568.45-2.336.148-.476.103-1.062 1.074-5.446.45-.935 2.129-3.721 1.1-1.223 3.21-2.855.759-.731 1.724-1.215 5.017-3.39.804-.637 2.232-1.232 1.512-1.232 1.524-1.053 3.853-2.88.708-1.002.643-.62 1.132-1.793 2.052-3.228.534-.748.251-1.393.695-.96.283-.671.437-.297-.103.178-.296.646-.302.756-.45.382-.116-.076.026.008 1.312-2.124.103-.357.502-.365.978.62.823.459.283.195.746.17 1.126.705.92.399.174.221.322.034.47.229.682.527 2.425 1.691 1.808.833 1.672.646.032-.161.502.153.425.17.74.161.605.663.63.28.373.365.373.323.47.008.618.552 1.196.748.605.501 3.178 1.869.296.518.103.595-.039.629-1.081 2.583-.862 2.566-.039.909.283.833.958 1.64 1.711 1.963 1.853 1.674 1.589.79.991.374 1.383.433 3.924 2.549.56.365 3.184 1.478 1.717.433 1.074.246 2.714.187 1.582-.187 1.094-.306 1.139-.365 1.795-.569.92.127.437.127 1.756 1.181.399.144 1.1.671 1.132.442 2.161 1.478.264.34.618.476.534.646.084.34 1.081 1.036.437.68.862 1.096.682.501.399.238.244.314 1.473.824.547.544.006.578-.129.246.051.544 1.209 1.98.257.042.708.68 1.068.731 1.061.433.572-.017 2.232-.782 3.448-.263-3.049-.697-.039-.204-.174.025.277.255.933-.246 1.1-.816 1.216-1.359 1.486-1.257 1.113-.425.746-.187.733-.416.778-.535.778-.518 2.116-2.132 1.415-2.234.367-.892.244-.374.663-.374.347-.127-.039-.187-.708.255-.039.459.148-.102-.039-.127.566-.204 1.28-.501.984.017.624.068 1.666.119 1.859-.289 1.357-.884.765-.79.817-.807 1.042-.68 1.087-.756.277-.527.096-1.257-.482-1.776.167-.569.81-1.215.264-.17-.161-.314-1.865-1.257-4.001-4.86-.572-.977-1.486-2.481-.547-.969-1.029-2.158-1.119-2.676-.315-1.096-.74-2.141-1.016-4.486-.264-1.929-.084-1.249-.096-1.937-.154-.586.103-1.895v-2.396l.47-3.143-.09-.544.257-1.206.373-1.793.174-.476-.013-.459.47-1.223.849-2.702 2.335-5.335 1.196-2.09.753-1.351 2.862-3.823.54-.433.392-.535.142-.467.611-1.104.142-.501.302-.586.971-.952.746-1.453.135-.34 1.338-1.495 1.094-1.886 1.139-1.317-.142-.348-.457-.195-.006-.578-.109-.586-.521-.442-.579-.518-.836-.969-.109-.212-.006-1.546.637-1.13.605-.518.81-.544.585.085.444-.119 1.164-.076 1.074-.17.553-.229 1.865-1.657.534-.178.412-.017.328.161.251-.008.637-.476.09-.212 1.061-1.495 1.235-1.444 1.209-1.776.791-1.504 2.785-3.441 2.174-3.118.74-.909 1.434-1.971 1.132-1.189 1.151-1.767 1.023-1.07 1.531-1.725 4.811-4.894.328-.442 1.286-1.113 1.589-1.453 3.679-3.186.611-.654 1.209-.875 1.061-.646.611-.68.791-1.079.926-.697 1.814-1.742 2.168-1.996-.109-.059-.006-.221.367-.357 1.994-1.631 7.758-7.06.039-.229.489-.28 1.885-1.725.656-.586 2.181-1.861.296-.187.444-.637.656-.756.193-.255.045.042.521-.535-.032-.161-.823-.272-2.251-1.691-1.196-.884-.476-.663-.051-.68.148-.901.765-1.776.167-.671.148-.782.502-.739.553-.68 1.434-3.373.495-.773.039-.323.283-.603.167-.314-.019-.391.572-.816.109-.391.534-.722.836-1.716.289-.323.952-1.699.302-.357.238-.807.103-.442.643-1.028.592-1.334 1.113-1.929.244-.663.482-.807.315-.807 2.374-3.483.54-.629 1.029-2.039.695-.595.952-.399-.064-.476-.193-.17-.289-.034-.926-.731-.096-.493.006-.093.09.102.244.119.006-.051-.019-.059.071.051.077.034-1.145-.612-.489-.263-.36-.076-.302-.144-1.332-.816-.547-.042-5.706-3.279-5.532-2.889-.38-.357-.772-.433-1.634-1.011-.856-.297-.463-.391-1.023-.501-1.344-.858-.939-.391-.457-.306-.495-.127-1.402-.841-3.454-1.929-4.972-3.118-.527-.45-1.84-1.053-1.917-1.096-1.306-.731-.63-.204-4.573-2.608-2.033-1.232-1.46-.714-.553-.34-.881-.357-.238-.246-2.361-1.223-1.01-.688-.56-.34-.592-.127-2.123-1.113-.515-.399-1.621-.544-4.104-2.217-1.473-.977-2.238-1.274-.482-.459-3.377-2.43-.585-.085-1.203-.833.071-.008.058-.051-.039-.042-.109-.085-.039.042-.232.102.032.051-.122.034.302-.051-.212-.025-.084-.705-.334-.246-1.409-.136-.482-.263-.605-.195-7.976-4.044-.489-.17-.302-.289-1.492-.722-1.164-.858-.605-.289-.901-.824-.56-.161-1.544-.867-1.608-.731-.489-.314-.939-.765-1.074-.476-2.509-1.249-.83-.552-.56-.204-2.174-1.376-.65-.748-.894-.782-.071-.314-.83-1.113-1.666-1.249-1.801-1.665-.315-.416-.939-.714-.901-.986-.399-.238-.392-.918-.83-.799-1.422-1.07-.727-.884-1.248-1.189-.219-.246-.257-.272-.251-.34-.174-.569-.527-.442-.367-.552-.856-.688-1.151-1.062-.643-.714-.444-.399-1.126-.654.051.034-.013-.144-.598-.28.006-.085-1.216-.79-.489-.204-1.171-.901-1.473-1.121-.56-.476-1.344-.841-.219-.391v-.289l-.161-.17-.109-.042-.405-.17-1.66-.552-.843-.467-.328-.11-.958-.595-1.872-.663-1.762-.161-.798-.076h-.579l-1.293-.195-.965.093-.688-.102-.219.059-1.576-.085-1.627.144-4.117-.357-.495.161-2.142-.348-.894-.323-.933-.527-.83-.374-2.882-1.206-1.981-.204-.244-.102-.257.068-.482-.272-.72-.076-.669.807-.45.297-.238.501-2.74 5.573-.302.195-.257.323-.386.272-.167.569-.367.263-1.267 2.098-.978.918-1.248 2.2-.206.212-.74-.28-.161-.093-.521-.153-.463-.289-.63.144-1.769-.994-1.003-.391-.437-.102-.856-.544-.946-.476-.347-.357-.682-.059-1.705-.646-1.113-.365-.521-.306-1.023-.476-.476-.306-.515-.085-.553-.255-.437-.399-.856-.484-.463.008-1.73-.595-.36-.144-.27.306-.476-.204-1.402-1.087-.605-.306-2.47-2.039-1.492-.892-.618-.195-1.042-.544-.322-.459-1.139-.416-.527-.433-.476-.238-1.023-.824-1.029-.399-1.801-1.512-.56-.246-.939-.663-.47-.229-.418-.425-.347-.178-.322-.391-.888-.671-.322-.442-.566-.017-.251-.272-.65-.221-.412.306-.302.391-1.042-1.087-1.505-.425-.283-.331-1.338-.799-.36-.153-1.267-.918-.907-.442-1.023-.425-.817-.595-2.078-1.028-1.209-.833-1.814-1.062-.527-.187-1.685-1.053-.83-.442-2.136-1.376-.971-.28-1.943-1.546-1.75-.731-1.377-.476-.946-.637-.54-.008-.444-.297-.765.586-.064.229-.605.892-.238.399-1.409 4.647-.367.552-3.737 10.305-1.602 2.99-.084.433-.444.569-1.402 2.617-.585.493-.283.552-.187.705-.823 1.393-.18.595-1.177 1.912-.868 1.572-.643.96-.354.484-.399.297-2.483 3.823-.257.34-.167.527-1.106 1.368-.341.187-.219.306-.122.484-.399.433-.913 1.24-.785.714-.54.986-.174.425-.334.314-.283.442-.129.433-1.254 1.427-.521.144-.315.306-.708 1.393-.521.459-.54.884-.534 1.274-.72.612-.354.102-.328-.153-1.087-.076-.618-.246-.45-.323-1.389-.612-1.467-.824-.405-.212-.566-.578-.457-.297-2.592-.425-.579.901-1.106 2.149-.27.34-1.055 2.192-.894 1.478-.392.45-.714 1.291-.875.841-.418.518-1.833 3.56-.547 1.028-.534 1.164-2.091 3.526-.939 2.03-1.1 1.996-.142.603-.553.807-.65 1.844-3.95 7.238-.315.399-.83 1.691-.695 1.045-3.975 7.111-.534.96-.463.952-.83.986-.92 1.623-.032.552-.148.484-.289 2.2-.322.289v.731l-.096.578.232 1.019.135 2.88.084.578-.193 1.028.142 3.16-.026.476.515 2.158-.174 2.115.064 1.308-.367 1.708-.032.569-.174.552-.72 1.172-.392-.085-.264.399-.064.459-1.28 2.923-.888 1.011-.733.799-.682 1.104-.386 1.504-.63.858-.675.739-.508.943-.277.136-.257.348-.38.136-.63.544-.283.102-.65-.085-1.859-.909-.708-.034-.579-.246-2.2-.425-1.042-.297-.309.076-.81-.654-.084-.127-.167.076-.289-.025-.457-.365-.521-.221-.772-.45-1.094-.238-.399.017-.386-.501-1.171-.459-3.062-2.124-.592.059-.881-.348-1.074-.688-3.088-1.742-1.563-1.121-.38-.178-.238-.365-1.402-.807-2.914-1.623-3.358-2.396-.939-.552-1.042-.816-1.492-.858-1.209-.382-.611-.136-3.145-1.657-.618-.773-1.434-1.317-.103-.314.277-.374-.154.059-.212.127-.096-.017-.367.544-.322-.161-.058.076-.219-.127-.019.034-.199.008.013-.068-.103-.008-.013-.008-.084-.365.058-.255-.174-.569.09-.331-.386-.051-3.866-.994-1.023-.739-.971-.561-1.737-.739-.103-.017-.129-.884-.701-.391-.232-.212-.592-2.107.232-2.107.142-.416-.039-.382-.18-.399-.772-.501-.27.025-.309.408-.302 1.776-1.171 3.917-1.119 2.226-.958 1.801-.212.263-.431.255-1.306 3.713-1.196 2.744-.515.739-.437 1.147-.135.323-.431.535-.791 1.827-1.441 1.886-.778 1.172-.257.127-.302.671-.508.629-1.853 3.279-.823 1.359-.856 1.954-.264.569-.643.646-.309.272-1.962 3.339-.174.722-.72 1.028-1.82 2.37-.187 1.053-.431.255-.901.943-.457.493-.322.68-.637.442-1.396 1.623-.727.96-1.589 1.521-.901 1.41-1.344 1.725-.708 1.189-.624.756-2.817 4.987-.65 1.317-1.615 4.902-.109.799.161 2.336.199 1.529.167.612-.18 2.081-.161.722-1.306 1.682-.405.425-1.171 1.631-1.28 1.41-1.299 1.912-2.129 1.487-.798.722-1.132.629-1.473 1.028-1.081.459-.701.161-.289 1.045-1.016 1.478-.47.348-.74 1.164-.566.663-.946 2.243-.579 2.064-.457 2.804-.63 4.511.006 1.155-.18 1.223-.019 1.24-.212 1.104-.257.561-.167.654-1.351 2.676-.656.833-.238.773-.605.306-.508.391-1.499 1.58-1.254.671-.572.127-1.196 1.079-3.062 2.056-1.685 1.266-1.621 1.317-.862.739-.122.51-.425.561-1.113 1.996-.759.901-.894 2.047-.296.501-.598.569-.913 1.215-.193.603-.579 1.019-.412 1.402-.283.586-.804.943-.386.79-.392.425-1.396 3.288-.193.816-.045.756-.296.586-.161 1.376-.129 2.999-.103.748.026.816-.27 2.302-.019.875-.257.816.071 1.062-.843 6.355.187.663-.579 2.625-.74 1.453-.463.629-.135 1.206-.38.68-.482.697-.946 1.954-.508.833.135 1.002.47.144.978.382.302.042.508.323.457.051 1.833.697.926.552.714.399.72.833.476.892.476.433.81.459-.489-.127.624-.059.566.323.425.382 1.679.824-.206.212.077-.068.251.62-.026.11 3.338 1.266-.701-.28-.212.127-2.592.153.18-.28.09-.017.026.246-.116.212.74.306.663.195.187.144.605-.221.688-.45.167-.773.508-1.087.367-.28.264-.374.579-1.266-.122-.476.232.11.637-.195.386-.161.225-.578.232-.127.167-.229.026-.807.129-.399.572-.467 1.164-1.376.354-.544.328-.272-.013-.501-.129-.578.109-.433.019-.858.27-.578.019-1.019.534-.748.328-.977.154-1.062.392-.739.476-.739 1.512-1.606.849-.153 1.692.085.733.263.682-.212.598.272.36.008.277-.204.116-.238.27-.085.27-.221.412-.178.341-.025.708.255 1.325.688.759.535.457.195 1.222.85 1.048.127.502.025.187.501.515.051 1.486.637.605-.144 1.055.28.476.161.322.467.508.824 2.007 1.895.412.569.328.144 3.338 2.158.939.255.611-.059 1.557 1.674.328.085.347.238.334.034.212.178.315.102.437-.212 1.627 1.665.251.153.534.076 1.19.671 3.055 1.223.341-.017.856.263 2.502 1.062.289.153.38.331.952.323.753.297.817.603.553.238 2.444 2.022.45.059.63.314.881.229.315.119.868.918.302.068.598-.816.09.025.289-.246.219-.552.283-1.104.843-.85.187-.603-.457-.467-.907-.314-.328-.059-1.627-1.147-.547-.518-.592-.646-.753-.331-.309-.119-2.142-2.345-.663-.459-.38-.068-.759-.637-.476-.068.006.051-.148-.093.006.068" fill="none" stroke="#000" stroke-width="3"/><defs><clipPath id="A"><path d="M7.2 7.2h498.694v554.4H7.2z" stroke-linecap="butt" stroke-linejoin="round"/></clipPath></defs></svg>