<?xml version="1.0" encoding="utf-8" standalone="no"?>
<!DOCTYPE svg PUBLIC "-//W3C//DTD SVG 1.1//EN"
  "http://www.w3.org/Graphics/SVG/1.1/DTD/svg11.dtd">
<svg height="558pt" version="1.1" viewBox="0 0 480.493906 558" width="480.493906pt" xmlns="http://www.w3.org/2000/svg" xmlns:xlink="http://www.w3.org/1999/xlink">
 <metadata>
  <rdf:RDF xmlns:cc="http://creativecommons.org/ns#" xmlns:dc="http://purl.org/dc/elements/1.1/" xmlns:rdf="http://www.w3.org/1999/02/22-rdf-syntax-ns#">
   <cc:Work>
    <dc:type rdf:resource="http://purl.org/dc/dcmitype/StillImage"/>
    <dc:date>2021-05-26T19:20:23.178674</dc:date>
    <dc:format>image/svg+xml</dc:format>
    <dc:creator>
     <cc:Agent>
      <dc:title>Matplotlib v3.4.2, https://matplotlib.org/</dc:title>
     </cc:Agent>
    </dc:creator>
   </cc:Work>
  </rdf:RDF>
 </metadata>
 <defs>
  <style type="text/css">*{stroke-linecap:butt;stroke-linejoin:round;}</style>
 </defs>
 <g id="figure_1">
  <g id="patch_1">
   <path d="M 0 558 
L 480.493906 558 
L 480.493906 0 
L 0 0 
z
" style="fill:none;"/>
  </g>
  <g id="axes_1">
   <g id="LineCollection_1">
    <path clip-path="url(#p5be5d94b5d)" d="M 30.116623 31.909091 
L 49.873575 54.478579 
L 71.043798 72.119548 
L 91.521807 89.956093 
L 110.413492 105.993337 
L 128.959069 126.607063 
L 145.543372 146.4776 
L 162.243044 164.431491 
L 179.548404 182.033344 
L 197.488293 201.004231 
L 212.947748 217.706434 
L 227.8592 234.721559 
L 243.318655 250.915265 
L 258.633898 267.382777 
L 275.102832 284.632593 
L 293.186933 305.520126 
L 308.877126 321.870292 
L 323.903946 338.728956 
L 340.199827 356.761078 
L 355.428543 373.541511 
L 371.753266 390.478406 
L 386.174399 406.241844 
L 395.057817 426.073266 
L 409.738531 444.340078 
L 427.620736 462.137508 
L 441.378497 478.213867 
L 452.10782 495.620145 
L 450.982971 511.81385 
L 423.034815 513.261114 
L 400.018687 514.317225 
L 377.925511 515.451566 
L 349.227456 515.842719 
L 328.086075 516.664139 
L 297.455588 518.346094 
L 265.815622 520.380085 
L 231.320272 521.944695 
L 205.160336 524.213378 
L 176.116174 524.721876 
L 146.091375 525.34772 
L 116.412683 526.090909 
L 108.884852 507.393829 
L 105.654518 485.371954 
L 105.510307 464.562652 
L 108.019584 442.658123 
L 108.192637 420.479788 
L 104.443143 399.396679 
L 103.462506 376.084001 
L 109.519382 350.541756 
L 123.017562 331.844676 
L 142.918726 318.389037 
L 167.982655 310.996258 
L 193.709957 312.599983 
L 219.783365 310.213954 
L 240.46327 304.581361 
L 257.76863 293.003252 
L 249.663953 272.624217 
L 230.339635 250.680573 
L 216.005028 233.430757 
L 195.757758 214.107833 
L 181.192413 197.131823 
L 165.213798 179.6082 
L 148.629495 163.649186 
L 131.497188 144.717415 
L 117.277951 129.658051 
L 102.62608 113.425231 
L 87.541575 94.336998 
L 70.005477 74.349116 
L 52.065587 59.407098 
L 36.721502 42.118166 
L 28.386087 33.356354 
" style="fill:none;stroke:#000000;stroke-width:3;"/>
   </g>
  </g>
 </g>
 <defs>
  <clipPath id="p5be5d94b5d">
   <rect height="543.6" width="466.093906" x="7.2" y="7.2"/>
  </clipPath>
 </defs>
</svg>
