<?xml version="1.0" encoding="utf-8" standalone="no"?>
<!DOCTYPE svg PUBLIC "-//W3C//DTD SVG 1.1//EN"
  "http://www.w3.org/Graphics/SVG/1.1/DTD/svg11.dtd">
<svg height="397.513023pt" version="1.1" viewBox="0 0 572.4 397.513023" width="572.4pt" xmlns="http://www.w3.org/2000/svg" xmlns:xlink="http://www.w3.org/1999/xlink">
 <metadata>
  <rdf:RDF xmlns:cc="http://creativecommons.org/ns#" xmlns:dc="http://purl.org/dc/elements/1.1/" xmlns:rdf="http://www.w3.org/1999/02/22-rdf-syntax-ns#">
   <cc:Work>
    <dc:type rdf:resource="http://purl.org/dc/dcmitype/StillImage"/>
    <dc:date>2021-05-26T19:20:23.268501</dc:date>
    <dc:format>image/svg+xml</dc:format>
    <dc:creator>
     <cc:Agent>
      <dc:title>Matplotlib v3.4.2, https://matplotlib.org/</dc:title>
     </cc:Agent>
    </dc:creator>
   </cc:Work>
  </rdf:RDF>
 </metadata>
 <defs>
  <style type="text/css">*{stroke-linecap:butt;stroke-linejoin:round;}</style>
 </defs>
 <g id="figure_1">
  <g id="patch_1">
   <path d="M 0 397.513023 
L 572.4 397.513023 
L 572.4 0 
L 0 0 
z
" style="fill:none;"/>
  </g>
  <g id="axes_1">
   <g id="LineCollection_1">
    <path clip-path="url(#pb70ff558a4)" d="M 32.563636 47.650219 
L 99.207227 32.162191 
L 177.35126 32.456268 
L 244.510896 46.179836 
L 323.981903 51.473213 
L 397.997572 53.825824 
L 471.423474 54.512003 
L 528.630804 77.449968 
L 539.246597 132.83437 
L 537.62474 196.060811 
L 537.845902 268.599673 
L 539.836364 334.178726 
L 517.425245 372.016566 
L 453.877927 369.271852 
L 384.211785 372.212617 
L 321.180513 372.898795 
L 250.113675 372.506693 
L 188.335657 372.604719 
L 129.359028 365.154781 
L 131.128327 294.772479 
L 130.759723 219.684954 
L 130.907165 148.518448 
L 131.128327 69.313852 
L 98.838623 24.614228 
L 33.595727 42.84697 
L 33.964331 45.493658 
" style="fill:none;stroke:#000000;stroke-width:3;"/>
   </g>
  </g>
 </g>
 <defs>
  <clipPath id="pb70ff558a4">
   <rect height="383.113023" width="558" x="7.2" y="7.2"/>
  </clipPath>
 </defs>
</svg>
