<?xml version="1.0" encoding="utf-8" standalone="no"?>
<!DOCTYPE svg PUBLIC "-//W3C//DTD SVG 1.1//EN"
  "http://www.w3.org/Graphics/SVG/1.1/DTD/svg11.dtd">
<svg height="558pt" version="1.1" viewBox="0 0 117.109069 558" width="117.109069pt" xmlns="http://www.w3.org/2000/svg" xmlns:xlink="http://www.w3.org/1999/xlink">
 <metadata>
  <rdf:RDF xmlns:cc="http://creativecommons.org/ns#" xmlns:dc="http://purl.org/dc/elements/1.1/" xmlns:rdf="http://www.w3.org/1999/02/22-rdf-syntax-ns#">
   <cc:Work>
    <dc:type rdf:resource="http://purl.org/dc/dcmitype/StillImage"/>
    <dc:date>2021-05-26T19:20:23.428742</dc:date>
    <dc:format>image/svg+xml</dc:format>
    <dc:creator>
     <cc:Agent>
      <dc:title>Matplotlib v3.4.2, https://matplotlib.org/</dc:title>
     </cc:Agent>
    </dc:creator>
   </cc:Work>
  </rdf:RDF>
 </metadata>
 <defs>
  <style type="text/css">*{stroke-linecap:butt;stroke-linejoin:round;}</style>
 </defs>
 <g id="figure_1">
  <g id="patch_1">
   <path d="M 0 558 
L 117.109069 558 
L 117.109069 0 
L 0 0 
z
" style="fill:none;"/>
  </g>
  <g id="axes_1">
   <g id="LineCollection_1">
    <path clip-path="url(#p2fa9d42bfc)" d="M 79.015983 376.084816 
L 49.936405 378.470192 
L 27.730182 399.257043 
L 17.050046 438.377214 
L 16.309839 478.042615 
L 14.19496 518.389551 
L 11.868594 526.090909 
L 18.530461 479.882762 
L 20.751083 441.51228 
L 22.707346 404.845639 
L 23.553297 357.819649 
L 28.20603 312.293038 
L 31.959939 259.405837 
L 34.180561 214.628916 
L 41.053916 170.397224 
L 43.961874 132.640125 
L 45.336544 96.85948 
L 48.085886 59.374995 
L 64.740554 31.909091 
L 101.116462 32.590627 
L 105.240475 72.596795 
L 102.173901 120.168014 
L 96.252242 163.718171 
L 91.440893 207.404634 
L 91.017918 252.999398 
L 84.091691 301.933689 
L 77.482696 297.98078 
" style="fill:none;stroke:#000000;stroke-width:3;"/>
   </g>
  </g>
 </g>
 <defs>
  <clipPath id="p2fa9d42bfc">
   <rect height="543.6" width="102.709069" x="7.2" y="7.2"/>
  </clipPath>
 </defs>
</svg>
