<?xml version="1.0" encoding="utf-8" standalone="no"?>
<!DOCTYPE svg PUBLIC "-//W3C//DTD SVG 1.1//EN"
  "http://www.w3.org/Graphics/SVG/1.1/DTD/svg11.dtd">
<svg height="558pt" version="1.1" viewBox="0 0 485.293597 558" width="485.293597pt" xmlns="http://www.w3.org/2000/svg" xmlns:xlink="http://www.w3.org/1999/xlink">
 <metadata>
  <rdf:RDF xmlns:cc="http://creativecommons.org/ns#" xmlns:dc="http://purl.org/dc/elements/1.1/" xmlns:rdf="http://www.w3.org/1999/02/22-rdf-syntax-ns#">
   <cc:Work>
    <dc:type rdf:resource="http://purl.org/dc/dcmitype/StillImage"/>
    <dc:date>2021-05-26T19:20:23.626778</dc:date>
    <dc:format>image/svg+xml</dc:format>
    <dc:creator>
     <cc:Agent>
      <dc:title>Matplotlib v3.4.2, https://matplotlib.org/</dc:title>
     </cc:Agent>
    </dc:creator>
   </cc:Work>
  </rdf:RDF>
 </metadata>
 <defs>
  <style type="text/css">*{stroke-linecap:butt;stroke-linejoin:round;}</style>
 </defs>
 <g id="figure_1">
  <g id="patch_1">
   <path d="M 0 558 
L 485.293597 558 
L 485.293597 0 
L 0 0 
z
" style="fill:none;"/>
  </g>
  <g id="axes_1">
   <g id="LineCollection_1">
    <path clip-path="url(#p01b0550b7f)" d="M 28.604254 38.710999 
L 46.585994 39.870415 
L 67.303465 61.822028 
L 92.153033 76.005553 
L 106.800598 96.256688 
L 128.287495 114.730053 
L 143.220033 135.019835 
L 163.766521 154.691263 
L 182.403696 176.063168 
L 202.123766 197.0486 
L 218.965617 216.681381 
L 236.890362 233.956682 
L 252.649319 252.082221 
L 271.001522 271.096646 
L 288.726787 289.144891 
L 304.970196 307.463667 
L 321.099617 325.589206 
L 336.545105 344.217159 
L 356.692632 362.767818 
L 374.417897 376.98999 
L 391.202754 396.506829 
L 406.277778 412.545419 
L 409.269985 432.603319 
L 424.145528 447.096021 
L 441.357843 464.062144 
L 456.689342 489.144181 
L 443.43814 509.433963 
L 420.269908 517.240699 
L 399.438447 517.202052 
L 379.005948 517.704465 
L 358.487957 518.863882 
L 336.488111 519.868709 
L 315.770639 520.718948 
L 294.625709 516.854227 
L 274.250204 516.738285 
L 255.869504 522.34213 
L 234.924054 523.076427 
L 212.012298 523.965313 
L 186.336311 525.279318 
L 159.349454 526.090909 
L 137.948049 522.960485 
L 116.575141 517.743113 
L 114.209873 497.839802 
L 111.816107 476.970311 
L 112.842007 455.598406 
L 115.834214 430.207192 
L 114.665828 408.448815 
L 110.590727 387.579324 
L 111.27466 364.004529 
L 118.655438 345.531164 
L 135.3833 328.178569 
L 154.846894 315.193108 
L 181.691266 310.284913 
L 203.092671 310.207619 
L 228.113221 309.975735 
L 248.574218 304.255949 
L 267.524863 288.024123 
L 257.465347 270.90341 
L 242.276335 253.512168 
L 225.348992 234.729626 
L 210.159979 219.077508 
L 195.227441 203.96645 
L 181.862249 186.923033 
L 167.243181 172.391683 
L 153.336542 156.778212 
L 138.717474 141.512566 
L 124.497366 125.976389 
L 108.139967 110.015093 
L 95.886167 93.628678 
L 86.681568 74.38237 
L 66.420052 62.942797 
L 51.715492 47.561209 
L 37.808853 31.909091 
L 29.601657 37.242405 
" style="fill:none;stroke:#000000;stroke-width:3;"/>
   </g>
  </g>
 </g>
 <defs>
  <clipPath id="p01b0550b7f">
   <rect height="543.6" width="470.893597" x="7.2" y="7.2"/>
  </clipPath>
 </defs>
</svg>
