<?xml version="1.0" encoding="utf-8" standalone="no"?>
<!DOCTYPE svg PUBLIC "-//W3C//DTD SVG 1.1//EN"
  "http://www.w3.org/Graphics/SVG/1.1/DTD/svg11.dtd">
<svg height="401.818044pt" version="1.1" viewBox="0 0 572.4 401.818044" width="572.4pt" xmlns="http://www.w3.org/2000/svg" xmlns:xlink="http://www.w3.org/1999/xlink">
 <metadata>
  <rdf:RDF xmlns:cc="http://creativecommons.org/ns#" xmlns:dc="http://purl.org/dc/elements/1.1/" xmlns:rdf="http://www.w3.org/1999/02/22-rdf-syntax-ns#">
   <cc:Work>
    <dc:type rdf:resource="http://purl.org/dc/dcmitype/StillImage"/>
    <dc:date>2021-05-26T19:20:24.069348</dc:date>
    <dc:format>image/svg+xml</dc:format>
    <dc:creator>
     <cc:Agent>
      <dc:title>Matplotlib v3.4.2, https://matplotlib.org/</dc:title>
     </cc:Agent>
    </dc:creator>
   </cc:Work>
  </rdf:RDF>
 </metadata>
 <defs>
  <style type="text/css">*{stroke-linecap:butt;stroke-linejoin:round;}</style>
 </defs>
 <g id="figure_1">
  <g id="patch_1">
   <path d="M 0 401.818044 
L 572.4 401.818044 
L 572.4 -0 
L 0 -0 
z
" style="fill:none;"/>
  </g>
  <g id="axes_1">
   <g id="LineCollection_1">
    <path clip-path="url(#p4ff3ccc90d)" d="M 46.692719 37.547537 
L 83.840612 28.69403 
L 117.080461 35.148523 
L 151.007438 38.004493 
L 186.566345 39.204 
L 216.327605 58.853074 
L 243.383296 83.185938 
L 274.948268 87.412774 
L 307.458043 76.445849 
L 329.44616 53.997925 
L 358.949746 38.004493 
L 394.766327 30.350493 
L 425.601225 24.809911 
L 457.810381 32.977985 
L 491.307903 57.767805 
L 525.578444 85.984789 
L 539.836364 124.026309 
L 520.811489 150.244114 
L 513.338965 182.745053 
L 506.639461 217.645006 
L 506.038223 253.915826 
L 484.350725 283.96063 
L 483.062359 316.918524 
L 477.049983 353.303582 
L 441.147511 377.008133 
L 401.938232 373.580969 
L 363.287246 372.895536 
L 340.740837 351.361523 
L 336.446283 314.576629 
L 326.654699 282.189929 
L 291.482302 268.652631 
L 259.2302 261.741184 
L 226.763372 244.605363 
L 194.03887 233.352842 
L 164.191719 235.40914 
L 137.651375 205.992649 
L 112.098778 176.576158 
L 82.337518 157.441159 
L 48.925887 144.93201 
L 36.686408 113.573459 
L 32.563636 75.531939 
L 48.410541 42.97388 
L 47.852249 38.23297 
" style="fill:none;stroke:#000000;stroke-width:3;"/>
   </g>
  </g>
 </g>
 <defs>
  <clipPath id="p4ff3ccc90d">
   <rect height="387.418044" width="558" x="7.2" y="7.2"/>
  </clipPath>
 </defs>
</svg>
