<?xml version="1.0" encoding="utf-8" standalone="no"?>
<!DOCTYPE svg PUBLIC "-//W3C//DTD SVG 1.1//EN"
  "http://www.w3.org/Graphics/SVG/1.1/DTD/svg11.dtd">
<svg height="388.185857pt" version="1.1" viewBox="0 0 572.4 388.185857" width="572.4pt" xmlns="http://www.w3.org/2000/svg" xmlns:xlink="http://www.w3.org/1999/xlink">
 <metadata>
  <rdf:RDF xmlns:cc="http://creativecommons.org/ns#" xmlns:dc="http://purl.org/dc/elements/1.1/" xmlns:rdf="http://www.w3.org/1999/02/22-rdf-syntax-ns#">
   <cc:Work>
    <dc:type rdf:resource="http://purl.org/dc/dcmitype/StillImage"/>
    <dc:date>2021-05-26T19:20:24.336164</dc:date>
    <dc:format>image/svg+xml</dc:format>
    <dc:creator>
     <cc:Agent>
      <dc:title>Matplotlib v3.4.2, https://matplotlib.org/</dc:title>
     </cc:Agent>
    </dc:creator>
   </cc:Work>
  </rdf:RDF>
 </metadata>
 <defs>
  <style type="text/css">*{stroke-linecap:butt;stroke-linejoin:round;}</style>
 </defs>
 <g id="figure_1">
  <g id="patch_1">
   <path d="M 0 388.185857 
L 572.4 388.185857 
L 572.4 0 
L 0 0 
z
" style="fill:none;"/>
  </g>
  <g id="axes_1">
   <g id="LineCollection_1">
    <path clip-path="url(#pf61011bca5)" d="M 32.563636 39.675309 
L 111.623823 24.190266 
L 186.778017 29.095466 
L 257.519886 45.638494 
L 332.384748 45.927035 
L 400.160956 47.0812 
L 470.613492 50.062792 
L 528.769384 82.187043 
L 538.317366 143.069231 
L 539.836364 207.702454 
L 537.160035 277.91414 
L 534.194374 338.411607 
L 489.926456 359.667473 
L 428.153904 361.591081 
L 364.645355 361.39872 
L 297.809479 363.129967 
L 237.049591 363.995591 
L 173.251709 362.360524 
L 131.44312 329.37065 
L 131.804786 263.583262 
L 131.009121 194.621921 
L 132.455785 124.506415 
L 130.864454 47.562101 
L 78.133552 26.210054 
L 33.431635 43.907247 
" style="fill:none;stroke:#000000;stroke-width:3;"/>
   </g>
  </g>
 </g>
 <defs>
  <clipPath id="pf61011bca5">
   <rect height="373.785857" width="558" x="7.2" y="7.2"/>
  </clipPath>
 </defs>
</svg>
