<?xml version="1.0" encoding="utf-8" standalone="no"?>
<!DOCTYPE svg PUBLIC "-//W3C//DTD SVG 1.1//EN"
  "http://www.w3.org/Graphics/SVG/1.1/DTD/svg11.dtd">
<svg height="558pt" version="1.1" viewBox="0 0 485.613227 558" width="485.613227pt" xmlns="http://www.w3.org/2000/svg" xmlns:xlink="http://www.w3.org/1999/xlink">
 <metadata>
  <rdf:RDF xmlns:cc="http://creativecommons.org/ns#" xmlns:dc="http://purl.org/dc/elements/1.1/" xmlns:rdf="http://www.w3.org/1999/02/22-rdf-syntax-ns#">
   <cc:Work>
    <dc:type rdf:resource="http://purl.org/dc/dcmitype/StillImage"/>
    <dc:date>2021-05-26T19:20:30.451309</dc:date>
    <dc:format>image/svg+xml</dc:format>
    <dc:creator>
     <cc:Agent>
      <dc:title>Matplotlib v3.4.2, https://matplotlib.org/</dc:title>
     </cc:Agent>
    </dc:creator>
   </cc:Work>
  </rdf:RDF>
 </metadata>
 <defs>
  <style type="text/css">*{stroke-linecap:butt;stroke-linejoin:round;}</style>
 </defs>
 <g id="figure_1">
  <g id="patch_1">
   <path d="M 0 558 
L 485.613227 558 
L 485.613227 0 
L 0 0 
z
" style="fill:none;"/>
  </g>
  <g id="axes_1">
   <g id="LineCollection_1">
    <path clip-path="url(#p9f977c6131)" d="M 456.080414 524.369968 
L 446.7116 456.619235 
L 449.529861 397.020328 
L 446.635431 331.352839 
L 446.78777 268.946081 
L 443.89334 197.391162 
L 447.092447 136.614769 
L 446.7116 67.68655 
L 256.136226 327.095774 
L 221.555403 353.000467 
L 165.114015 343.852306 
L 167.094415 281.264396 
L 163.590631 224.020461 
L 164.885507 167.954012 
L 167.094415 114.333111 
L 162.219585 50.839443 
L 120.326517 31.909091 
L 58.781792 32.814849 
L 30.675352 78.736804 
L 28.618783 143.317382 
L 49.412979 186.793788 
L 110.119842 188.424154 
L 121.621394 249.744002 
L 121.240548 315.954945 
L 123.601793 378.089976 
L 123.144778 446.112437 
L 121.088209 505.983071 
L 159.858339 524.279392 
L 224.221325 524.369968 
L 281.95759 526.090909 
L 339.922362 521.290389 
L 401.010072 517.1239 
L 456.994444 518.935417 
" style="fill:none;stroke:#000000;stroke-width:3;"/>
   </g>
  </g>
 </g>
 <defs>
  <clipPath id="p9f977c6131">
   <rect height="543.6" width="471.213227" x="7.2" y="7.2"/>
  </clipPath>
 </defs>
</svg>
