<?xml version="1.0" encoding="utf-8" standalone="no"?>
<!DOCTYPE svg PUBLIC "-//W3C//DTD SVG 1.1//EN"
  "http://www.w3.org/Graphics/SVG/1.1/DTD/svg11.dtd">
<svg height="558pt" version="1.1" viewBox="0 0 299.193419 558" width="299.193419pt" xmlns="http://www.w3.org/2000/svg" xmlns:xlink="http://www.w3.org/1999/xlink">
 <metadata>
  <rdf:RDF xmlns:cc="http://creativecommons.org/ns#" xmlns:dc="http://purl.org/dc/elements/1.1/" xmlns:rdf="http://www.w3.org/1999/02/22-rdf-syntax-ns#">
   <cc:Work>
    <dc:type rdf:resource="http://purl.org/dc/dcmitype/StillImage"/>
    <dc:date>2021-05-26T19:20:30.830900</dc:date>
    <dc:format>image/svg+xml</dc:format>
    <dc:creator>
     <cc:Agent>
      <dc:title>Matplotlib v3.4.2, https://matplotlib.org/</dc:title>
     </cc:Agent>
    </dc:creator>
   </cc:Work>
  </rdf:RDF>
 </metadata>
 <defs>
  <style type="text/css">*{stroke-linecap:butt;stroke-linejoin:round;}</style>
 </defs>
 <g id="figure_1">
  <g id="patch_1">
   <path d="M 0 558 
L 299.193419 558 
L 299.193419 0 
L 0 0 
z
" style="fill:none;"/>
  </g>
  <g id="axes_1">
   <g id="LineCollection_1">
    <path clip-path="url(#p46379eb7f8)" d="M 28.094241 526.090909 
L 27.815326 517.942019 
L 20.145155 518.181422 
L 24.649637 506.496743 
L 30.932204 498.706957 
L 34.028163 489.766197 
L 39.12534 480.088815 
L 42.562971 477.317272 
L 46.69789 468.51463 
L 58.656383 447.557711 
L 65.043543 436.766187 
L 70.621848 426.398221 
L 76.709174 414.612257 
L 80.78831 406.214757 
L 83.675083 401.141267 
L 90.905962 393.876325 
L 96.254162 382.79936 
L 101.623282 371.510615 
L 104.963292 362.772427 
L 99.336176 354.724823 
L 106.260248 343.150638 
L 114.216306 328.51026 
L 126.035341 326.659495 
L 137.728864 324.550912 
L 145.601248 312.958311 
L 154.8961 302.967864 
L 154.136056 288.299863 
L 162.245518 276.854586 
L 166.917349 266.053854 
L 169.790176 256.081823 
L 173.764719 247.122649 
L 181.232675 238.338422 
L 186.706388 227.270664 
L 194.432341 218.735048 
L 207.262444 218.035256 
L 216.780428 209.425977 
L 223.209425 197.870207 
L 229.547775 186.286813 
L 236.206877 174.602134 
L 238.626467 160.302444 
L 236.130175 145.533157 
L 242.949654 129.925962 
L 252.314234 116.565466 
L 253.060333 101.980334 
L 262.397022 91.870186 
L 254.678041 87.091346 
L 249.943454 80.553819 
L 257.955296 66.87105 
L 268.937585 65.996311 
L 273.999897 57.939499 
L 279.048264 48.437065 
L 271.698846 42.175771 
L 262.73172 37.148321 
L 254.873282 32.691753 
L 253.653028 31.909091 
" style="fill:none;stroke:#000000;stroke-width:3;"/>
   </g>
  </g>
 </g>
 <defs>
  <clipPath id="p46379eb7f8">
   <rect height="543.6" width="284.793419" x="7.2" y="7.2"/>
  </clipPath>
 </defs>
</svg>
