<?xml version="1.0" encoding="utf-8" standalone="no"?>
<!DOCTYPE svg PUBLIC "-//W3C//DTD SVG 1.1//EN"
  "http://www.w3.org/Graphics/SVG/1.1/DTD/svg11.dtd">
<svg height="558pt" version="1.1" viewBox="0 0 300.332786 558" width="300.332786pt" xmlns="http://www.w3.org/2000/svg" xmlns:xlink="http://www.w3.org/1999/xlink">
 <metadata>
  <rdf:RDF xmlns:cc="http://creativecommons.org/ns#" xmlns:dc="http://purl.org/dc/elements/1.1/" xmlns:rdf="http://www.w3.org/1999/02/22-rdf-syntax-ns#">
   <cc:Work>
    <dc:type rdf:resource="http://purl.org/dc/dcmitype/StillImage"/>
    <dc:date>2021-05-26T19:20:31.384903</dc:date>
    <dc:format>image/svg+xml</dc:format>
    <dc:creator>
     <cc:Agent>
      <dc:title>Matplotlib v3.4.2, https://matplotlib.org/</dc:title>
     </cc:Agent>
    </dc:creator>
   </cc:Work>
  </rdf:RDF>
 </metadata>
 <defs>
  <style type="text/css">*{stroke-linecap:butt;stroke-linejoin:round;}</style>
 </defs>
 <g id="figure_1">
  <g id="patch_1">
   <path d="M 0 558 
L 300.332786 558 
L 300.332786 0 
L 0 0 
z
" style="fill:none;"/>
  </g>
  <g id="axes_1">
   <g id="LineCollection_1">
    <path clip-path="url(#p785715fd81)" d="M 275.939883 31.909091 
L 280.135841 37.607447 
L 274.178703 49.226534 
L 268.895164 55.916311 
L 258.833285 54.406015 
L 250.827285 56.852139 
L 253.233996 64.737181 
L 259.892799 68.953038 
L 261.555746 78.116736 
L 254.88291 90.690181 
L 243.6703 101.354909 
L 232.534873 107.386828 
L 225.83397 115.559104 
L 222.35371 124.185396 
L 215.83524 132.626375 
L 210.151752 141.96612 
L 206.966192 152.473332 
L 197.227079 157.050548 
L 189.480695 165.4452 
L 186.898567 178.945207 
L 189.150912 190.8052 
L 182.351776 201.710835 
L 173.405545 211.606516 
L 170.83745 226.329586 
L 160.151089 236.586627 
L 149.766444 248.057464 
L 140.44833 260.612378 
L 141.297344 274.853635 
L 134.231576 283.424333 
L 126.695691 291.290844 
L 122.647083 301.32551 
L 117.70736 311.94391 
L 108.389246 321.116874 
L 100.509545 331.410977 
L 102.298792 343.020798 
L 107.392881 352.138168 
L 104.368704 358.170086 
L 100.109596 365.128566 
L 96.096071 372.170437 
L 90.833582 382.112447 
L 83.978313 392.916159 
L 76.898511 405.276496 
L 69.987109 417.738754 
L 64.170304 430.590168 
L 59.335831 438.901429 
L 55.153906 446.156409 
L 50.698332 451.308094 
L 43.57643 461.036994 
L 40.559269 471.127254 
L 35.619546 480.78203 
L 32.30067 488.56515 
L 27.48023 496.079567 
L 24.392903 501.398033 
L 20.196945 508.402841 
L 31.451655 514.657135 
L 38.86124 518.872991 
L 46.179608 523.978348 
L 50.649215 526.090909 
" style="fill:none;stroke:#000000;stroke-width:3;"/>
   </g>
  </g>
 </g>
 <defs>
  <clipPath id="p785715fd81">
   <rect height="543.6" width="285.932786" x="7.2" y="7.2"/>
  </clipPath>
 </defs>
</svg>
