<?xml version="1.0" encoding="utf-8" standalone="no"?>
<!DOCTYPE svg PUBLIC "-//W3C//DTD SVG 1.1//EN"
  "http://www.w3.org/Graphics/SVG/1.1/DTD/svg11.dtd">
<svg height="558pt" version="1.1" viewBox="0 0 292.711961 558" width="292.711961pt" xmlns="http://www.w3.org/2000/svg" xmlns:xlink="http://www.w3.org/1999/xlink">
 <metadata>
  <rdf:RDF xmlns:cc="http://creativecommons.org/ns#" xmlns:dc="http://purl.org/dc/elements/1.1/" xmlns:rdf="http://www.w3.org/1999/02/22-rdf-syntax-ns#">
   <cc:Work>
    <dc:type rdf:resource="http://purl.org/dc/dcmitype/StillImage"/>
    <dc:date>2021-05-26T19:20:31.959627</dc:date>
    <dc:format>image/svg+xml</dc:format>
    <dc:creator>
     <cc:Agent>
      <dc:title>Matplotlib v3.4.2, https://matplotlib.org/</dc:title>
     </cc:Agent>
    </dc:creator>
   </cc:Work>
  </rdf:RDF>
 </metadata>
 <defs>
  <style type="text/css">*{stroke-linecap:butt;stroke-linejoin:round;}</style>
 </defs>
 <g id="figure_1">
  <g id="patch_1">
   <path d="M 0 558 
L 292.711961 558 
L 292.711961 0 
L 0 0 
z
" style="fill:none;"/>
  </g>
  <g id="axes_1">
   <g id="LineCollection_1">
    <path clip-path="url(#p7a3163b79d)" d="M 268.389934 31.909091 
L 272.861418 35.150681 
L 270.045009 42.056279 
L 265.809964 48.44763 
L 262.750162 54.83898 
L 254.099267 53.158496 
L 245.601362 53.562547 
L 244.078415 62.497582 
L 251.762691 66.969691 
L 253.779378 75.923092 
L 251.26895 87.401811 
L 239.523482 94.674727 
L 231.832252 103.224077 
L 222.520717 108.642033 
L 217.631988 117.806642 
L 213.786372 126.429456 
L 205.65008 133.564628 
L 203.723796 144.483186 
L 197.117404 152.077506 
L 188.000585 157.063862 
L 181.095167 168.147713 
L 182.006154 180.985513 
L 182.791967 190.600088 
L 177.131333 198.965778 
L 168.403942 206.321342 
L 166.776684 220.251915 
L 158.480447 230.270541 
L 149.933863 239.471883 
L 139.412316 249.095641 
L 134.49577 262.153832 
L 135.07296 274.936533 
L 127.040979 281.153408 
L 120.594532 289.261975 
L 116.832366 299.06021 
L 111.88105 309.345142 
L 102.715551 318.087335 
L 95.100816 328.115144 
L 97.193999 340.108109 
L 101.588988 348.923766 
L 97.972858 355.425312 
L 93.668273 363.791003 
L 90.587608 370.099707 
L 84.947836 378.052164 
L 79.634907 389.420687 
L 73.077194 401.358555 
L 66.143961 412.69953 
L 60.295566 423.682368 
L 55.622413 428.788102 
L 51.929788 437.309903 
L 48.779583 446.199024 
L 45.323397 456.327845 
L 36.860262 465.648565 
L 31.109225 476.163072 
L 24.906171 487.586693 
L 19.850544 496.641107 
L 26.679466 503.454875 
L 35.399902 508.156558 
L 44.787932 513.078633 
L 54.502804 519.424069 
L 59.933953 524.447157 
L 54.203778 526.090909 
L 49.057747 522.417719 
" style="fill:none;stroke:#000000;stroke-width:3;"/>
   </g>
  </g>
 </g>
 <defs>
  <clipPath id="p7a3163b79d">
   <rect height="543.6" width="278.311961" x="7.2" y="7.2"/>
  </clipPath>
 </defs>
</svg>
