<?xml version="1.0" encoding="utf-8" standalone="no"?>
<!DOCTYPE svg PUBLIC "-//W3C//DTD SVG 1.1//EN"
  "http://www.w3.org/Graphics/SVG/1.1/DTD/svg11.dtd">
<svg height="558pt" version="1.1" viewBox="0 0 291.039327 558" width="291.039327pt" xmlns="http://www.w3.org/2000/svg" xmlns:xlink="http://www.w3.org/1999/xlink">
 <metadata>
  <rdf:RDF xmlns:cc="http://creativecommons.org/ns#" xmlns:dc="http://purl.org/dc/elements/1.1/" xmlns:rdf="http://www.w3.org/1999/02/22-rdf-syntax-ns#">
   <cc:Work>
    <dc:type rdf:resource="http://purl.org/dc/dcmitype/StillImage"/>
    <dc:date>2021-05-26T19:20:32.269424</dc:date>
    <dc:format>image/svg+xml</dc:format>
    <dc:creator>
     <cc:Agent>
      <dc:title>Matplotlib v3.4.2, https://matplotlib.org/</dc:title>
     </cc:Agent>
    </dc:creator>
   </cc:Work>
  </rdf:RDF>
 </metadata>
 <defs>
  <style type="text/css">*{stroke-linecap:butt;stroke-linejoin:round;}</style>
 </defs>
 <g id="figure_1">
  <g id="patch_1">
   <path d="M 0 558 
L 291.039327 558 
L 291.039327 0 
L 0 0 
z
" style="fill:none;"/>
  </g>
  <g id="axes_1">
   <g id="LineCollection_1">
    <path clip-path="url(#p5c48b2fcb6)" d="M 267.546149 31.909091 
L 271.264812 34.998877 
L 270.080968 41.362364 
L 265.227207 51.100707 
L 258.7091 54.733045 
L 250.972329 53.215739 
L 243.792662 55.615841 
L 243.061464 62.549467 
L 249.885978 66.071455 
L 252.469544 72.628054 
L 253.743918 83.635416 
L 243.451437 91.507014 
L 235.178455 102.109761 
L 224.482074 107.241012 
L 218.367867 115.590791 
L 214.579565 124.216443 
L 207.929146 132.106432 
L 202.984855 141.780404 
L 198.78569 151.941753 
L 189.189588 156.374125 
L 181.508528 165.744636 
L 180.199336 178.683114 
L 181.940283 189.580127 
L 176.801006 199.070183 
L 168.528024 206.169334 
L 166.48067 219.117008 
L 158.381783 230.087587 
L 149.516879 240.267328 
L 139.516877 249.30679 
L 133.51409 261.059011 
L 134.447238 274.34693 
L 127.720217 281.464472 
L 121.494589 287.009534 
L 117.351135 295.874277 
L 113.590688 306.734506 
L 104.997372 315.948689 
L 95.993192 325.870948 
L 94.328846 337.862259 
L 101.661717 347.306337 
L 97.372022 356.207863 
L 93.186785 361.569009 
L 89.976478 369.780851 
L 83.590683 378.43409 
L 77.365055 387.979321 
L 71.891516 399.143012 
L 67.32327 410.637751 
L 62.009899 420.550814 
L 58.151959 423.787732 
L 54.280092 433.682403 
L 49.11296 441.508022 
L 44.565606 450.280807 
L 38.820479 461.187015 
L 33.848334 472.277139 
L 27.051675 480.838421 
L 23.507106 488.44334 
L 19.774515 498.374794 
L 27.755018 503.331326 
L 37.044713 511.120161 
L 48.555857 517.308929 
L 54.872014 523.727591 
L 58.31909 525.98056 
L 51.814911 526.090909 
L 47.685384 524.527625 
" style="fill:none;stroke:#000000;stroke-width:3;"/>
   </g>
  </g>
 </g>
 <defs>
  <clipPath id="p5c48b2fcb6">
   <rect height="543.6" width="276.639327" x="7.2" y="7.2"/>
  </clipPath>
 </defs>
</svg>
