<?xml version="1.0" encoding="utf-8" standalone="no"?>
<!DOCTYPE svg PUBLIC "-//W3C//DTD SVG 1.1//EN"
  "http://www.w3.org/Graphics/SVG/1.1/DTD/svg11.dtd">
<svg height="558pt" version="1.1" viewBox="0 0 406.39083 558" width="406.39083pt" xmlns="http://www.w3.org/2000/svg" xmlns:xlink="http://www.w3.org/1999/xlink">
 <metadata>
  <rdf:RDF xmlns:cc="http://creativecommons.org/ns#" xmlns:dc="http://purl.org/dc/elements/1.1/" xmlns:rdf="http://www.w3.org/1999/02/22-rdf-syntax-ns#">
   <cc:Work>
    <dc:type rdf:resource="http://purl.org/dc/dcmitype/StillImage"/>
    <dc:date>2021-05-26T19:20:33.408684</dc:date>
    <dc:format>image/svg+xml</dc:format>
    <dc:creator>
     <cc:Agent>
      <dc:title>Matplotlib v3.4.2, https://matplotlib.org/</dc:title>
     </cc:Agent>
    </dc:creator>
   </cc:Work>
  </rdf:RDF>
 </metadata>
 <defs>
  <style type="text/css">*{stroke-linecap:butt;stroke-linejoin:round;}</style>
 </defs>
 <g id="figure_1">
  <g id="patch_1">
   <path d="M 0 558 
L 406.39083 558 
L 406.39083 0 
L 0 0 
z
" style="fill:none;"/>
  </g>
  <g id="axes_1">
   <g id="LineCollection_1">
    <path clip-path="url(#pbc3cb5d5a0)" d="M 354.427241 60.634651 
L 381.373065 80.958268 
L 369.554721 120.867495 
L 354.12641 155.837742 
L 328.555812 193.703253 
L 291.424724 204.60307 
L 249.136541 198.415153 
L 209.340954 208.122803 
L 199.6714 239.005619 
L 226.101514 263.814057 
L 257.817652 281.29918 
L 264.221045 314.566331 
L 270.151705 350.842285 
L 264.392948 386.039612 
L 235.685117 413.345924 
L 204.871471 430.149809 
L 173.885922 456.150415 
L 154.245983 492.937298 
L 121.799257 505.710522 
L 83.894605 526.090909 
L 51.963589 521.265469 
L 25.017765 499.806454 
L 36.320399 463.41696 
L 52.952032 430.717508 
L 68.853077 399.210224 
L 90.684781 362.99104 
L 107.531293 329.21296 
L 131.167981 295.037492 
L 149.432694 262.962508 
L 166.537061 227.878722 
L 185.317484 191.375688 
L 207.965728 156.68929 
L 225.62878 124.500768 
L 241.486849 88.338353 
L 257.215991 54.446734 
L 279.692332 31.909091 
L 311.021687 46.953109 
L 346.175888 58.988324 
L 353.481773 61.656509 
" style="fill:none;stroke:#000000;stroke-width:3;"/>
   </g>
  </g>
 </g>
 <defs>
  <clipPath id="pbc3cb5d5a0">
   <rect height="543.6" width="391.99083" x="7.2" y="7.2"/>
  </clipPath>
 </defs>
</svg>
