<?xml version="1.0" encoding="utf-8" standalone="no"?>
<!DOCTYPE svg PUBLIC "-//W3C//DTD SVG 1.1//EN"
  "http://www.w3.org/Graphics/SVG/1.1/DTD/svg11.dtd">
<svg height="558pt" version="1.1" viewBox="0 0 455.179276 558" width="455.179276pt" xmlns="http://www.w3.org/2000/svg" xmlns:xlink="http://www.w3.org/1999/xlink">
 <metadata>
  <rdf:RDF xmlns:cc="http://creativecommons.org/ns#" xmlns:dc="http://purl.org/dc/elements/1.1/" xmlns:rdf="http://www.w3.org/1999/02/22-rdf-syntax-ns#">
   <cc:Work>
    <dc:type rdf:resource="http://purl.org/dc/dcmitype/StillImage"/>
    <dc:date>2021-05-26T19:20:34.296068</dc:date>
    <dc:format>image/svg+xml</dc:format>
    <dc:creator>
     <cc:Agent>
      <dc:title>Matplotlib v3.4.2, https://matplotlib.org/</dc:title>
     </cc:Agent>
    </dc:creator>
   </cc:Work>
  </rdf:RDF>
 </metadata>
 <defs>
  <style type="text/css">*{stroke-linecap:butt;stroke-linejoin:round;}</style>
 </defs>
 <g id="figure_1">
  <g id="patch_1">
   <path d="M 0 558 
L 455.179276 558 
L 455.179276 0 
L 0 0 
z
" style="fill:none;"/>
  </g>
  <g id="axes_1">
   <g id="LineCollection_1">
    <path clip-path="url(#p1483e456d0)" d="M 390.643105 31.909091 
L 427.943854 47.870791 
L 412.182974 82.254692 
L 391.216228 118.909822 
L 369.91516 156.13276 
L 338.536681 181.873368 
L 296.98527 176.384562 
L 254.669695 166.479475 
L 223.625538 193.418788 
L 223.912099 237.392326 
L 259.54124 254.237283 
L 288.006344 279.094635 
L 291.731643 322.437276 
L 300.328487 365.14902 
L 278.167734 398.586574 
L 246.741495 424.390272 
L 210.921313 440.288883 
L 186.324789 478.647436 
L 161.01186 513.094426 
L 117.167958 522.873333 
L 51.449864 526.090909 
L 27.235422 491.076112 
L 47.533525 450.383239 
L 67.831628 417.008774 
L 86.935724 377.388427 
L 107.042786 340.480937 
L 122.087263 302.185474 
L 148.928519 269.757355 
L 171.089271 222.8186 
L 197.882767 181.116291 
L 219.613677 141.243585 
L 250.801116 116.638592 
L 293.02117 142.631559 
L 332.51889 165.785488 
L 364.709293 161.243028 
L 385.532759 125.029525 
L 405.40102 91.150343 
L 424.696158 53.864315 
L 401.627961 36.70391 
" style="fill:none;stroke:#000000;stroke-width:3;"/>
   </g>
  </g>
 </g>
 <defs>
  <clipPath id="p1483e456d0">
   <rect height="543.6" width="440.779276" x="7.2" y="7.2"/>
  </clipPath>
 </defs>
</svg>
