<?xml version="1.0" encoding="utf-8" standalone="no"?>
<!DOCTYPE svg PUBLIC "-//W3C//DTD SVG 1.1//EN"
  "http://www.w3.org/Graphics/SVG/1.1/DTD/svg11.dtd">
<svg height="558pt" version="1.1" viewBox="0 0 403.260459 558" width="403.260459pt" xmlns="http://www.w3.org/2000/svg" xmlns:xlink="http://www.w3.org/1999/xlink">
 <metadata>
  <rdf:RDF xmlns:cc="http://creativecommons.org/ns#" xmlns:dc="http://purl.org/dc/elements/1.1/" xmlns:rdf="http://www.w3.org/1999/02/22-rdf-syntax-ns#">
   <cc:Work>
    <dc:type rdf:resource="http://purl.org/dc/dcmitype/StillImage"/>
    <dc:date>2021-05-26T19:20:36.164886</dc:date>
    <dc:format>image/svg+xml</dc:format>
    <dc:creator>
     <cc:Agent>
      <dc:title>Matplotlib v3.4.2, https://matplotlib.org/</dc:title>
     </cc:Agent>
    </dc:creator>
   </cc:Work>
  </rdf:RDF>
 </metadata>
 <defs>
  <style type="text/css">*{stroke-linecap:butt;stroke-linejoin:round;}</style>
 </defs>
 <g id="figure_1">
  <g id="patch_1">
   <path d="M 0 558 
L 403.260459 558 
L 403.260459 0 
L 0 0 
z
" style="fill:none;"/>
  </g>
  <g id="axes_1">
   <g id="LineCollection_1">
    <path clip-path="url(#p60cb807fd6)" d="M 352.45866 71.041521 
L 378.384984 95.236608 
L 360.799799 128.235072 
L 345.063424 162.88062 
L 328.33815 199.116455 
L 288.868224 205.931972 
L 247.592485 199.400435 
L 213.196036 195.311124 
L 198.147589 230.12706 
L 214.399912 261.47844 
L 249.183321 277.210927 
L 261.652034 310.152595 
L 269.864186 345.479694 
L 266.037581 384.214552 
L 242.905969 412.839726 
L 205.972781 430.730459 
L 172.17827 454.243995 
L 155.71097 491.04779 
L 116.928973 509.847259 
L 81.285652 526.090909 
L 24.875475 501.555046 
L 29.819965 465.716783 
L 52.005675 433.96783 
L 68.472975 401.139754 
L 86.918071 369.334005 
L 106.567043 331.167107 
L 125.227117 296.578356 
L 154.679076 271.758513 
L 176.950777 244.553238 
L 201.415252 218.2567 
L 230.566243 197.355779 
L 270.294142 207.635852 
L 314.278601 211.270794 
L 338.872063 177.761166 
L 355.640332 144.989886 
L 377.095117 110.969094 
L 341.70977 64.226003 
L 307.227329 47.414393 
L 275.066649 31.909091 
L 263.715821 43.552267 
" style="fill:none;stroke:#000000;stroke-width:3;"/>
   </g>
  </g>
 </g>
 <defs>
  <clipPath id="p60cb807fd6">
   <rect height="543.6" width="388.860459" x="7.2" y="7.2"/>
  </clipPath>
 </defs>
</svg>
