<?xml version="1.0" encoding="utf-8" standalone="no"?>
<!DOCTYPE svg PUBLIC "-//W3C//DTD SVG 1.1//EN"
  "http://www.w3.org/Graphics/SVG/1.1/DTD/svg11.dtd">
<svg height="558pt" version="1.1" viewBox="0 0 446.413142 558" width="446.413142pt" xmlns="http://www.w3.org/2000/svg" xmlns:xlink="http://www.w3.org/1999/xlink">
 <metadata>
  <rdf:RDF xmlns:cc="http://creativecommons.org/ns#" xmlns:dc="http://purl.org/dc/elements/1.1/" xmlns:rdf="http://www.w3.org/1999/02/22-rdf-syntax-ns#">
   <cc:Work>
    <dc:type rdf:resource="http://purl.org/dc/dcmitype/StillImage"/>
    <dc:date>2021-05-26T19:20:36.338832</dc:date>
    <dc:format>image/svg+xml</dc:format>
    <dc:creator>
     <cc:Agent>
      <dc:title>Matplotlib v3.4.2, https://matplotlib.org/</dc:title>
     </cc:Agent>
    </dc:creator>
   </cc:Work>
  </rdf:RDF>
 </metadata>
 <defs>
  <style type="text/css">*{stroke-linecap:butt;stroke-linejoin:round;}</style>
 </defs>
 <g id="figure_1">
  <g id="patch_1">
   <path d="M 0 558 
L 446.413142 558 
L 446.413142 0 
L 0 0 
z
" style="fill:none;"/>
  </g>
  <g id="axes_1">
   <g id="LineCollection_1">
    <path clip-path="url(#pf061115a89)" d="M 386.487734 31.909091 
L 419.576181 56.396149 
L 395.756341 94.522371 
L 375.826434 133.156098 
L 354.359764 170.521064 
L 315.98869 182.701155 
L 273.67966 165.699778 
L 233.195536 180.417388 
L 221.093521 220.573626 
L 258.936331 245.377874 
L 288.471012 277.096861 
L 292.072802 320.044369 
L 295.626569 370.287245 
L 269.21344 409.238161 
L 223.398666 429.728626 
L 189.637885 468.552667 
L 163.512899 509.660474 
L 118.466508 526.090909 
L 32.167611 516.702089 
L 26.836961 478.702742 
L 49.02399 431.1877 
L 76.829811 380.373883 
L 99.737198 339.837017 
L 124.421468 298.348582 
L 155.012674 262.633003 
L 186.612381 231.294643 
L 217.971969 206.300082 
L 238.526186 171.853262 
L 282.323957 171.409196 
L 331.260281 180.03676 
L 362.811965 164.621333 
L 381.541275 125.797293 
L 408.002428 82.532594 
L 416.982892 43.898868 
" style="fill:none;stroke:#000000;stroke-width:3;"/>
   </g>
  </g>
 </g>
 <defs>
  <clipPath id="pf061115a89">
   <rect height="543.6" width="432.013142" x="7.2" y="7.2"/>
  </clipPath>
 </defs>
</svg>
