<?xml version="1.0" encoding="utf-8" standalone="no"?>
<!DOCTYPE svg PUBLIC "-//W3C//DTD SVG 1.1//EN"
  "http://www.w3.org/Graphics/SVG/1.1/DTD/svg11.dtd">
<svg height="558pt" version="1.1" viewBox="0 0 291.781553 558" width="291.781553pt" xmlns="http://www.w3.org/2000/svg" xmlns:xlink="http://www.w3.org/1999/xlink">
 <metadata>
  <rdf:RDF xmlns:cc="http://creativecommons.org/ns#" xmlns:dc="http://purl.org/dc/elements/1.1/" xmlns:rdf="http://www.w3.org/1999/02/22-rdf-syntax-ns#">
   <cc:Work>
    <dc:type rdf:resource="http://purl.org/dc/dcmitype/StillImage"/>
    <dc:date>2021-05-26T19:20:37.515300</dc:date>
    <dc:format>image/svg+xml</dc:format>
    <dc:creator>
     <cc:Agent>
      <dc:title>Matplotlib v3.4.2, https://matplotlib.org/</dc:title>
     </cc:Agent>
    </dc:creator>
   </cc:Work>
  </rdf:RDF>
 </metadata>
 <defs>
  <style type="text/css">*{stroke-linecap:butt;stroke-linejoin:round;}</style>
 </defs>
 <g id="figure_1">
  <g id="patch_1">
   <path d="M 0 558 
L 291.781553 558 
L 291.781553 0 
L 0 0 
z
" style="fill:none;"/>
  </g>
  <g id="axes_1">
   <g id="LineCollection_1">
    <path clip-path="url(#p6056e27022)" d="M 266.847542 31.909091 
L 271.973301 34.162227 
L 267.599691 42.135572 
L 263.504656 48.959357 
L 256.42888 51.672317 
L 246.588259 49.75945 
L 241.204819 55.967071 
L 247.235943 62.239068 
L 251.602588 70.387145 
L 250.439542 83.768017 
L 237.527644 92.201186 
L 228.710782 101.351679 
L 219.94267 107.531711 
L 215.464595 116.295952 
L 211.390453 124.959032 
L 202.852164 132.352998 
L 201.67519 143.499127 
L 194.578521 150.093 
L 186.270056 154.856775 
L 179.159458 165.368346 
L 179.67482 178.087072 
L 180.587149 188.239981 
L 174.744063 197.197349 
L 165.913272 205.207479 
L 164.374151 219.553981 
L 153.878882 230.378233 
L 144.741659 241.487576 
L 134.08621 250.821998 
L 132.923164 263.752243 
L 131.467615 275.928377 
L 121.94039 281.372691 
L 117.427493 289.833448 
L 114.133358 299.894393 
L 106.779008 310.258821 
L 96.994102 320.365748 
L 92.000665 331.640627 
L 99.076441 341.775143 
L 97.927324 350.953226 
L 96.833922 353.325917 
L 90.976906 362.844269 
L 86.248115 371.709672 
L 76.365708 388.658776 
L 72.472639 396.337833 
L 66.601695 407.143692 
L 57.025719 418.869199 
L 50.381732 436.94947 
L 49.761906 443.175484 
L 39.990928 452.666247 
L 37.838945 458.046185 
L 36.759471 465.173454 
L 22.921315 482.987027 
L 19.808252 491.640911 
L 24.864368 500.708636 
L 35.596425 506.401255 
L 45.834014 512.332981 
L 55.528384 517.71292 
L 55.869637 526.090909 
L 47.853675 517.262292 
L 46.976167 517.666937 
" style="fill:none;stroke:#000000;stroke-width:3;"/>
   </g>
  </g>
 </g>
 <defs>
  <clipPath id="p6056e27022">
   <rect height="543.6" width="277.381553" x="7.2" y="7.2"/>
  </clipPath>
 </defs>
</svg>
