<?xml version="1.0" encoding="utf-8" standalone="no"?>
<!DOCTYPE svg PUBLIC "-//W3C//DTD SVG 1.1//EN"
  "http://www.w3.org/Graphics/SVG/1.1/DTD/svg11.dtd">
<svg height="558pt" version="1.1" viewBox="0 0 261.695864 558" width="261.695864pt" xmlns="http://www.w3.org/2000/svg" xmlns:xlink="http://www.w3.org/1999/xlink">
 <metadata>
  <rdf:RDF xmlns:cc="http://creativecommons.org/ns#" xmlns:dc="http://purl.org/dc/elements/1.1/" xmlns:rdf="http://www.w3.org/1999/02/22-rdf-syntax-ns#">
   <cc:Work>
    <dc:type rdf:resource="http://purl.org/dc/dcmitype/StillImage"/>
    <dc:date>2021-05-26T19:20:37.614125</dc:date>
    <dc:format>image/svg+xml</dc:format>
    <dc:creator>
     <cc:Agent>
      <dc:title>Matplotlib v3.4.2, https://matplotlib.org/</dc:title>
     </cc:Agent>
    </dc:creator>
   </cc:Work>
  </rdf:RDF>
 </metadata>
 <defs>
  <style type="text/css">*{stroke-linecap:butt;stroke-linejoin:round;}</style>
 </defs>
 <g id="figure_1">
  <g id="patch_1">
   <path d="M 0 558 
L 261.695864 558 
L 261.695864 0 
L 0 0 
z
" style="fill:none;"/>
  </g>
  <g id="axes_1">
   <g id="LineCollection_1">
    <path clip-path="url(#p5dfbd0d464)" d="M 24.857186 526.090909 
L 19.002989 519.539438 
L 18.440721 513.258761 
L 21.291748 502.907437 
L 28.879053 492.695878 
L 33.218436 482.038819 
L 41.083567 470.543171 
L 47.804318 460.523788 
L 51.971713 449.185376 
L 55.953891 444.022817 
L 60.015447 435.304993 
L 62.304207 425.73111 
L 68.872815 416.655139 
L 74.654249 404.862491 
L 82.287858 394.118079 
L 87.43426 387.496726 
L 93.361222 378.647872 
L 92.514513 369.895107 
L 92.71296 358.836224 
L 98.706071 346.53693 
L 105.823717 336.893165 
L 116.070217 338.526665 
L 126.528394 335.495517 
L 132.15107 325.598429 
L 139.811139 319.483723 
L 143.482415 309.342046 
L 142.080054 296.754486 
L 151.493074 288.569515 
L 153.7223 279.642044 
L 156.169818 269.989544 
L 159.880784 261.350337 
L 167.785604 251.496925 
L 173.7721 239.721748 
L 185.209284 233.930248 
L 197.612245 232.628689 
L 203.70458 220.573982 
L 210.405486 208.213541 
L 217.635586 195.512422 
L 221.201024 182.24351 
L 219.276084 167.498333 
L 224.8723 152.639597 
L 234.596222 140.759596 
L 235.700912 127.281037 
L 243.255143 116.405595 
L 238.809921 109.670683 
L 231.030784 105.879565 
L 239.094363 93.912212 
L 235.151875 83.071711 
L 234.569762 75.03524 
L 239.742624 66.369828 
L 239.30604 60.316269 
L 230.805877 58.193592 
L 224.085126 51.31018 
L 227.088296 44.426768 
L 230.461902 37.106591 
L 234.219172 31.909091 
L 232.267773 34.617032 
L 229.013236 41.911003 
L 224.343107 51.091798 
L 230.151001 56.167004 
L 235.866285 59.975592 
" style="fill:none;stroke:#000000;stroke-width:3;"/>
   </g>
  </g>
 </g>
 <defs>
  <clipPath id="p5dfbd0d464">
   <rect height="543.6" width="247.295864" x="7.2" y="7.2"/>
  </clipPath>
 </defs>
</svg>
