<?xml version="1.0" encoding="utf-8" standalone="no"?>
<!DOCTYPE svg PUBLIC "-//W3C//DTD SVG 1.1//EN"
  "http://www.w3.org/Graphics/SVG/1.1/DTD/svg11.dtd">
<svg height="558pt" version="1.1" viewBox="0 0 273.808022 558" width="273.808022pt" xmlns="http://www.w3.org/2000/svg" xmlns:xlink="http://www.w3.org/1999/xlink">
 <metadata>
  <rdf:RDF xmlns:cc="http://creativecommons.org/ns#" xmlns:dc="http://purl.org/dc/elements/1.1/" xmlns:rdf="http://www.w3.org/1999/02/22-rdf-syntax-ns#">
   <cc:Work>
    <dc:type rdf:resource="http://purl.org/dc/dcmitype/StillImage"/>
    <dc:date>2021-05-26T19:20:37.808580</dc:date>
    <dc:format>image/svg+xml</dc:format>
    <dc:creator>
     <cc:Agent>
      <dc:title>Matplotlib v3.4.2, https://matplotlib.org/</dc:title>
     </cc:Agent>
    </dc:creator>
   </cc:Work>
  </rdf:RDF>
 </metadata>
 <defs>
  <style type="text/css">*{stroke-linecap:butt;stroke-linejoin:round;}</style>
 </defs>
 <g id="figure_1">
  <g id="patch_1">
   <path d="M 0 558 
L 273.808022 558 
L 273.808022 0 
L 0 0 
z
" style="fill:none;"/>
  </g>
  <g id="axes_1">
   <g id="LineCollection_1">
    <path clip-path="url(#pc2b8c46f70)" d="M 25.807117 526.090909 
L 18.991274 520.605326 
L 23.078091 517.392088 
L 26.163369 505.187109 
L 33.254803 494.153808 
L 38.107898 483.298034 
L 45.340489 471.900802 
L 50.126367 463.068836 
L 55.32227 451.467448 
L 58.091627 449.132969 
L 65.136009 442.466831 
L 69.545469 432.303412 
L 70.43946 420.560004 
L 77.322521 409.100638 
L 86.63885 402.043941 
L 93.90505 391.410076 
L 97.252475 382.205302 
L 98.953075 371.748964 
L 94.14031 363.662611 
L 100.277258 354.626488 
L 105.97057 343.965994 
L 115.401169 336.607501 
L 126.350881 339.678717 
L 133.375098 332.417864 
L 141.81088 322.31658 
L 147.773062 313.404726 
L 146.469045 300.471887 
L 155.025818 289.838021 
L 158.151426 280.819651 
L 160.880452 272.005437 
L 164.194269 263.137965 
L 171.030277 255.362284 
L 176.367338 246.255151 
L 182.739546 236.89948 
L 193.749754 233.553096 
L 203.267735 232.274902 
L 209.034987 222.013844 
L 214.553534 210.936161 
L 220.193073 201.154425 
L 225.926716 190.272022 
L 227.997011 178.688387 
L 225.859499 165.498134 
L 227.949959 156.275608 
L 235.411089 146.112189 
L 241.131289 135.788996 
L 241.675749 124.462775 
L 246.999366 114.38812 
L 248.236166 104.641889 
L 236.607559 104.482115 
L 243.793097 95.064309 
L 243.779654 81.545631 
L 239.504628 75.092526 
L 242.737784 69.75784 
L 248.962114 56.407812 
L 254.816748 46.794727 
L 254.184905 39.453987 
L 247.758923 36.400523 
L 242.442028 31.909091 
L 236.540341 34.394468 
L 232.258594 41.167122 
L 230.712594 48.623255 
L 237.689758 53.265585 
L 241.359828 54.721306 
" style="fill:none;stroke:#000000;stroke-width:3;"/>
   </g>
  </g>
 </g>
 <defs>
  <clipPath id="pc2b8c46f70">
   <rect height="543.6" width="259.408022" x="7.2" y="7.2"/>
  </clipPath>
 </defs>
</svg>
