<?xml version="1.0" encoding="utf-8" standalone="no"?>
<!DOCTYPE svg PUBLIC "-//W3C//DTD SVG 1.1//EN"
  "http://www.w3.org/Graphics/SVG/1.1/DTD/svg11.dtd">
<svg height="558pt" version="1.1" viewBox="0 0 291.736728 558" width="291.736728pt" xmlns="http://www.w3.org/2000/svg" xmlns:xlink="http://www.w3.org/1999/xlink">
 <metadata>
  <rdf:RDF xmlns:cc="http://creativecommons.org/ns#" xmlns:dc="http://purl.org/dc/elements/1.1/" xmlns:rdf="http://www.w3.org/1999/02/22-rdf-syntax-ns#">
   <cc:Work>
    <dc:type rdf:resource="http://purl.org/dc/dcmitype/StillImage"/>
    <dc:date>2021-05-26T19:20:38.843846</dc:date>
    <dc:format>image/svg+xml</dc:format>
    <dc:creator>
     <cc:Agent>
      <dc:title>Matplotlib v3.4.2, https://matplotlib.org/</dc:title>
     </cc:Agent>
    </dc:creator>
   </cc:Work>
  </rdf:RDF>
 </metadata>
 <defs>
  <style type="text/css">*{stroke-linecap:butt;stroke-linejoin:round;}</style>
 </defs>
 <g id="figure_1">
  <g id="patch_1">
   <path d="M 0 558 
L 291.736728 558 
L 291.736728 0 
L 0 0 
z
" style="fill:none;"/>
  </g>
  <g id="axes_1">
   <g id="LineCollection_1">
    <path clip-path="url(#pabb746bf61)" d="M 266.372774 31.909091 
L 271.930513 35.216708 
L 268.232292 43.462845 
L 263.090863 51.85558 
L 255.888699 53.66973 
L 245.016069 52.267887 
L 242.358623 61.613508 
L 250.594623 67.239206 
L 252.690051 76.612315 
L 246.882526 88.743298 
L 236.12785 99.142593 
L 225.241342 104.1086 
L 217.699192 113.435897 
L 213.529153 123.21215 
L 204.252378 132.612746 
L 201.962672 145.485882 
L 195.273958 151.817083 
L 185.941674 156.984662 
L 178.461971 170.25178 
L 180.668414 184.151102 
L 179.023989 193.111904 
L 172.474045 201.770347 
L 165.570237 212.572787 
L 160.18596 226.536245 
L 149.674132 237.045488 
L 139.627183 247.563894 
L 132.758067 258.769478 
L 133.618441 273.539225 
L 125.701612 280.612578 
L 119.477777 288.519707 
L 114.946936 298.350934 
L 108.285975 310.14291 
L 97.184374 322.02651 
L 93.028212 334.899645 
L 100.001405 344.309404 
L 99.036954 351.639303 
L 96.247677 359.903765 
L 92.792303 364.5949 
L 87.463535 373.656488 
L 80.82339 385.136943 
L 74.377523 399.778418 
L 67.834516 410.01279 
L 61.333141 422.097961 
L 53.777114 434.732875 
L 48.344268 448.128266 
L 44.437892 456.795873 
L 39.809912 464.043311 
L 31.532281 475.816962 
L 24.968459 487.19663 
L 19.806215 497.504301 
L 26.966748 500.747782 
L 37.485515 508.792346 
L 47.005137 514.665428 
L 53.700791 518.577762 
L 55.712956 526.090909 
L 49.898492 522.334336 
L 46.20721 521.637995 
L 47.386755 523.342197 
" style="fill:none;stroke:#000000;stroke-width:3;"/>
   </g>
  </g>
 </g>
 <defs>
  <clipPath id="pabb746bf61">
   <rect height="543.6" width="277.336728" x="7.2" y="7.2"/>
  </clipPath>
 </defs>
</svg>
