<?xml version="1.0" encoding="utf-8" standalone="no"?>
<!DOCTYPE svg PUBLIC "-//W3C//DTD SVG 1.1//EN"
  "http://www.w3.org/Graphics/SVG/1.1/DTD/svg11.dtd">
<svg height="558pt" version="1.1" viewBox="0 0 290.537813 558" width="290.537813pt" xmlns="http://www.w3.org/2000/svg" xmlns:xlink="http://www.w3.org/1999/xlink">
 <metadata>
  <rdf:RDF xmlns:cc="http://creativecommons.org/ns#" xmlns:dc="http://purl.org/dc/elements/1.1/" xmlns:rdf="http://www.w3.org/1999/02/22-rdf-syntax-ns#">
   <cc:Work>
    <dc:type rdf:resource="http://purl.org/dc/dcmitype/StillImage"/>
    <dc:date>2021-05-26T19:20:40.048663</dc:date>
    <dc:format>image/svg+xml</dc:format>
    <dc:creator>
     <cc:Agent>
      <dc:title>Matplotlib v3.4.2, https://matplotlib.org/</dc:title>
     </cc:Agent>
    </dc:creator>
   </cc:Work>
  </rdf:RDF>
 </metadata>
 <defs>
  <style type="text/css">*{stroke-linecap:butt;stroke-linejoin:round;}</style>
 </defs>
 <g id="figure_1">
  <g id="patch_1">
   <path d="M -0 558 
L 290.537813 558 
L 290.537813 0 
L -0 0 
z
" style="fill:none;"/>
  </g>
  <g id="axes_1">
   <g id="LineCollection_1">
    <path clip-path="url(#p13b4bbdd02)" d="M 265.981177 31.909091 
L 270.786094 35.049515 
L 264.69848 46.036419 
L 257.03696 54.148417 
L 247.288456 52.427135 
L 240.417355 57.838186 
L 246.310832 64.769092 
L 250.4848 71.709153 
L 251.566427 84.096888 
L 238.84345 92.80401 
L 230.21124 101.886518 
L 220.337933 108.094119 
L 214.777265 117.423833 
L 210.520094 126.991595 
L 201.568943 135.497291 
L 200.320913 148.141387 
L 192.340452 152.939002 
L 184.054917 159.457899 
L 178.230775 171.232198 
L 180.685235 184.462263 
L 176.684604 195.375922 
L 169.6679 202.691369 
L 165.174991 215.271375 
L 155.932633 228.748645 
L 146.142528 240.303206 
L 134.521978 250.575962 
L 132.10912 265.206857 
L 129.918133 278.006601 
L 120.696575 283.756414 
L 115.669786 292.527626 
L 111.620621 305.116788 
L 102.003854 315.041625 
L 92.9487 326.303203 
L 94.654342 339.084635 
L 98.953113 347.773446 
L 95.139687 355.400189 
L 91.520399 361.049289 
L 86.403474 370.507183 
L 81.480688 381.393374 
L 73.257554 395.31012 
L 65.748571 407.716167 
L 59.674824 420.048967 
L 53.07413 429.928026 
L 48.082008 442.837639 
L 43.200823 448.50505 
L 39.248727 454.135839 
L 33.091777 466.129877 
L 26.269211 477.281585 
L 19.751719 491.189175 
L 22.303248 499.86883 
L 32.356826 506.213767 
L 34.866753 507.989984 
L 43.6515 511.496637 
L 54.800572 518.262739 
L 55.445387 526.090909 
L 46.417968 520.63408 
L 45.43341 518.537412 
" style="fill:none;stroke:#000000;stroke-width:3;"/>
   </g>
  </g>
 </g>
 <defs>
  <clipPath id="p13b4bbdd02">
   <rect height="543.6" width="276.137813" x="7.2" y="7.2"/>
  </clipPath>
 </defs>
</svg>
