<?xml version="1.0" encoding="utf-8" standalone="no"?>
<!DOCTYPE svg PUBLIC "-//W3C//DTD SVG 1.1//EN"
  "http://www.w3.org/Graphics/SVG/1.1/DTD/svg11.dtd">
<svg height="558pt" version="1.1" viewBox="0 0 287.113426 558" width="287.113426pt" xmlns="http://www.w3.org/2000/svg" xmlns:xlink="http://www.w3.org/1999/xlink">
 <metadata>
  <rdf:RDF xmlns:cc="http://creativecommons.org/ns#" xmlns:dc="http://purl.org/dc/elements/1.1/" xmlns:rdf="http://www.w3.org/1999/02/22-rdf-syntax-ns#">
   <cc:Work>
    <dc:type rdf:resource="http://purl.org/dc/dcmitype/StillImage"/>
    <dc:date>2021-05-26T19:20:40.570625</dc:date>
    <dc:format>image/svg+xml</dc:format>
    <dc:creator>
     <cc:Agent>
      <dc:title>Matplotlib v3.4.2, https://matplotlib.org/</dc:title>
     </cc:Agent>
    </dc:creator>
   </cc:Work>
  </rdf:RDF>
 </metadata>
 <defs>
  <style type="text/css">*{stroke-linecap:butt;stroke-linejoin:round;}</style>
 </defs>
 <g id="figure_1">
  <g id="patch_1">
   <path d="M 0 558 
L 287.113426 558 
L 287.113426 0 
L 0 0 
z
" style="fill:none;"/>
  </g>
  <g id="axes_1">
   <g id="LineCollection_1">
    <path clip-path="url(#p0594b13173)" d="M 263.929429 31.909091 
L 267.517361 36.069657 
L 264.956535 43.30941 
L 259.661385 52.68443 
L 251.222456 54.38898 
L 241.78418 53.930767 
L 238.72368 62.31605 
L 246.503318 66.522438 
L 249.202942 75.521725 
L 245.899546 88.140888 
L 233.685307 97.708358 
L 223.185225 105.672085 
L 214.794875 114.872985 
L 210.290875 125.063624 
L 201.400852 134.117896 
L 199.089862 145.582364 
L 190.86607 153.610241 
L 181.677631 160.162675 
L 175.861988 173.569963 
L 178.71429 186.32659 
L 173.731436 197.827715 
L 163.939225 207.065272 
L 161.662935 222.424544 
L 150.205146 234.182268 
L 138.768176 246.45319 
L 129.954492 258.330049 
L 130.88444 272.73624 
L 122.625949 281.607227 
L 115.630521 290.551529 
L 111.501275 302.04349 
L 103.166445 313.608765 
L 92.680243 325.247354 
L 91.195102 339.021211 
L 97.822715 348.625338 
L 93.762869 357.624625 
L 90.098597 364.626107 
L 84.734047 371.97583 
L 78.814305 384.338394 
L 71.291444 397.727354 
L 63.678365 411.849453 
L 56.911954 422.608274 
L 52.033198 433.495395 
L 46.280014 443.997618 
L 40.901584 450.724172 
L 38.021522 457.0475 
L 31.976862 467.641366 
L 25.078593 481.057818 
L 19.811202 490.313703 
L 19.596065 500.458521 
L 30.401503 507.185075 
L 36.480863 510.630831 
L 47.30018 517.036637 
L 56.41922 521.875357 
L 50.735435 526.090909 
L 42.692081 521.462966 
L 43.240334 520.308272 
" style="fill:none;stroke:#000000;stroke-width:3;"/>
   </g>
  </g>
 </g>
 <defs>
  <clipPath id="p0594b13173">
   <rect height="543.6" width="272.713426" x="7.2" y="7.2"/>
  </clipPath>
 </defs>
</svg>
