<?xml version="1.0" encoding="utf-8" standalone="no"?>
<!DOCTYPE svg PUBLIC "-//W3C//DTD SVG 1.1//EN"
  "http://www.w3.org/Graphics/SVG/1.1/DTD/svg11.dtd">
<svg height="558pt" version="1.1" viewBox="0 0 288.242644 558" width="288.242644pt" xmlns="http://www.w3.org/2000/svg" xmlns:xlink="http://www.w3.org/1999/xlink">
 <metadata>
  <rdf:RDF xmlns:cc="http://creativecommons.org/ns#" xmlns:dc="http://purl.org/dc/elements/1.1/" xmlns:rdf="http://www.w3.org/1999/02/22-rdf-syntax-ns#">
   <cc:Work>
    <dc:type rdf:resource="http://purl.org/dc/dcmitype/StillImage"/>
    <dc:date>2021-05-26T19:20:41.242254</dc:date>
    <dc:format>image/svg+xml</dc:format>
    <dc:creator>
     <cc:Agent>
      <dc:title>Matplotlib v3.4.2, https://matplotlib.org/</dc:title>
     </cc:Agent>
    </dc:creator>
   </cc:Work>
  </rdf:RDF>
 </metadata>
 <defs>
  <style type="text/css">*{stroke-linecap:butt;stroke-linejoin:round;}</style>
 </defs>
 <g id="figure_1">
  <g id="patch_1">
   <path d="M 0 558 
L 288.242644 558 
L 288.242644 0 
L 0 0 
z
" style="fill:none;"/>
  </g>
  <g id="axes_1">
   <g id="LineCollection_1">
    <path clip-path="url(#p3187213015)" d="M 264.036432 31.909091 
L 268.595251 33.706786 
L 267.582956 40.593342 
L 263.156782 47.848656 
L 259.275153 53.730346 
L 249.51523 51.785147 
L 240.586087 54.145198 
L 243.50429 62.700384 
L 249.98298 68.582074 
L 251.679447 80.391549 
L 239.629642 90.182074 
L 231.042585 100.903713 
L 220.80793 106.130858 
L 215.146057 114.741357 
L 211.201596 124.034059 
L 202.488875 132.580026 
L 200.289751 144.39872 
L 192.596306 151.451216 
L 183.841697 156.964149 
L 176.979033 169.852241 
L 179.234008 183.588476 
L 176.064476 194.466837 
L 166.311534 203.602817 
L 160.628718 211.521895 
L 156.914641 218.878617 
L 156.411984 228.014597 
L 147.238494 238.017157 
L 135.530774 248.729577 
L 131.027806 262.66863 
L 129.875883 276.773624 
L 121.002591 282.360307 
L 115.522233 291.404097 
L 112.101373 302.199488 
L 103.493372 312.810499 
L 93.517027 323.532138 
L 90.549955 335.055826 
L 98.787944 344.864789 
L 95.39501 353.954673 
L 90.535992 361.09936 
L 85.062616 370.825352 
L 78.625814 382.828425 
L 70.83463 397.366709 
L 63.127223 412.126248 
L 55.929454 425.28169 
L 49.611335 436.16927 
L 44.647597 446.042766 
L 38.343441 456.755186 
L 35.355424 463.263764 
L 31.278317 471.127529 
L 25.770034 481.166965 
L 19.647393 492.460179 
L 19.933628 500.877081 
L 28.478797 505.145455 
L 38.476086 511.239181 
L 47.782222 517.323688 
L 56.9976 522.292702 
L 51.991974 526.090909 
L 44.221735 520.983611 
L 42.853391 520.098592 
" style="fill:none;stroke:#000000;stroke-width:3;"/>
   </g>
  </g>
 </g>
 <defs>
  <clipPath id="p3187213015">
   <rect height="543.6" width="273.842644" x="7.2" y="7.2"/>
  </clipPath>
 </defs>
</svg>
