<?xml version="1.0" encoding="utf-8" standalone="no"?>
<!DOCTYPE svg PUBLIC "-//W3C//DTD SVG 1.1//EN"
  "http://www.w3.org/Graphics/SVG/1.1/DTD/svg11.dtd">
<svg height="558pt" version="1.1" viewBox="0 0 288.279667 558" width="288.279667pt" xmlns="http://www.w3.org/2000/svg" xmlns:xlink="http://www.w3.org/1999/xlink">
 <metadata>
  <rdf:RDF xmlns:cc="http://creativecommons.org/ns#" xmlns:dc="http://purl.org/dc/elements/1.1/" xmlns:rdf="http://www.w3.org/1999/02/22-rdf-syntax-ns#">
   <cc:Work>
    <dc:type rdf:resource="http://purl.org/dc/dcmitype/StillImage"/>
    <dc:date>2021-05-26T19:20:42.168236</dc:date>
    <dc:format>image/svg+xml</dc:format>
    <dc:creator>
     <cc:Agent>
      <dc:title>Matplotlib v3.4.2, https://matplotlib.org/</dc:title>
     </cc:Agent>
    </dc:creator>
   </cc:Work>
  </rdf:RDF>
 </metadata>
 <defs>
  <style type="text/css">*{stroke-linecap:butt;stroke-linejoin:round;}</style>
 </defs>
 <g id="figure_1">
  <g id="patch_1">
   <path d="M 0 558 
L 288.279667 558 
L 288.279667 0 
L 0 0 
z
" style="fill:none;"/>
  </g>
  <g id="axes_1">
   <g id="LineCollection_1">
    <path clip-path="url(#p5ec43024d8)" d="M 264.993587 31.909091 
L 268.630591 33.500792 
L 268.358861 39.775591 
L 263.641903 49.877833 
L 255.204332 53.696076 
L 244.537179 50.669084 
L 241.178872 61.00134 
L 249.755792 65.960456 
L 251.852992 76.0995 
L 244.96916 88.345479 
L 235.326221 98.410919 
L 224.303729 103.922069 
L 216.883404 113.067451 
L 212.6472 122.02882 
L 204.697349 131.266208 
L 201.025508 142.831343 
L 194.476113 151.479893 
L 184.359388 157.221058 
L 177.336207 170.479101 
L 179.649398 182.596271 
L 177.245631 193.535767 
L 167.82565 203.058372 
L 164.537018 218.570558 
L 153.194023 231.8102 
L 142.519903 243.77096 
L 132.256862 254.195223 
L 132.667941 268.557336 
L 127.365718 279.073605 
L 118.886342 286.8665 
L 114.761617 296.352303 
L 109.71719 308.423471 
L 98.485674 317.338837 
L 90.905098 329.373203 
L 95.921656 341.490373 
L 98.680763 348.99805 
L 93.733879 358.27224 
L 88.61281 366.203144 
L 82.746224 377.15184 
L 74.61522 390.621496 
L 68.233044 404.864002 
L 60.652468 419.014502 
L 53.176403 432.962588 
L 45.707306 443.828479 
L 39.548088 456.976115 
L 37.207028 462.818486 
L 32.392526 469.387704 
L 25.801326 480.575615 
L 19.649076 490.723861 
L 20.338852 499.059591 
L 29.675224 504.846758 
L 37.910739 509.060626 
L 47.769669 515.179015 
L 57.335966 520.772971 
L 53.071892 526.090909 
L 47.539743 521.039788 
L 45.129009 519.908116 
" style="fill:none;stroke:#000000;stroke-width:3;"/>
   </g>
  </g>
 </g>
 <defs>
  <clipPath id="p5ec43024d8">
   <rect height="543.6" width="273.879667" x="7.2" y="7.2"/>
  </clipPath>
 </defs>
</svg>
