<?xml version="1.0" encoding="utf-8" standalone="no"?>
<!DOCTYPE svg PUBLIC "-//W3C//DTD SVG 1.1//EN"
  "http://www.w3.org/Graphics/SVG/1.1/DTD/svg11.dtd">
<svg height="558pt" version="1.1" viewBox="0 0 291.559736 558" width="291.559736pt" xmlns="http://www.w3.org/2000/svg" xmlns:xlink="http://www.w3.org/1999/xlink">
 <metadata>
  <rdf:RDF xmlns:cc="http://creativecommons.org/ns#" xmlns:dc="http://purl.org/dc/elements/1.1/" xmlns:rdf="http://www.w3.org/1999/02/22-rdf-syntax-ns#">
   <cc:Work>
    <dc:type rdf:resource="http://purl.org/dc/dcmitype/StillImage"/>
    <dc:date>2021-05-26T19:20:42.845481</dc:date>
    <dc:format>image/svg+xml</dc:format>
    <dc:creator>
     <cc:Agent>
      <dc:title>Matplotlib v3.4.2, https://matplotlib.org/</dc:title>
     </cc:Agent>
    </dc:creator>
   </cc:Work>
  </rdf:RDF>
 </metadata>
 <defs>
  <style type="text/css">*{stroke-linecap:butt;stroke-linejoin:round;}</style>
 </defs>
 <g id="figure_1">
  <g id="patch_1">
   <path d="M -0 558 
L 291.559736 558 
L 291.559736 0 
L -0 0 
z
" style="fill:none;"/>
  </g>
  <g id="axes_1">
   <g id="LineCollection_1">
    <path clip-path="url(#p991f104657)" d="M 269.01133 31.909091 
L 271.761566 34.216848 
L 270.912126 42.031962 
L 265.912963 50.922803 
L 258.344592 54.913108 
L 247.74748 53.350085 
L 243.200887 60.742263 
L 249.87108 66.194454 
L 253.394167 73.577438 
L 253.310615 85.548354 
L 241.24439 93.437021 
L 233.787421 103.670223 
L 223.684655 108.874169 
L 218.476613 117.507571 
L 214.382591 126.288081 
L 206.326836 134.314663 
L 203.813329 145.310988 
L 197.477343 153.061742 
L 188.7114 157.815169 
L 181.149992 169.243624 
L 182.215273 182.722397 
L 181.407609 193.645167 
L 173.55377 202.903778 
L 167.085494 215.683788 
L 160.22731 229.778575 
L 150.368236 240.995562 
L 138.886871 251.063267 
L 134.702335 264.514457 
L 133.57439 279.114928 
L 123.972933 285.587681 
L 119.182649 295.140508 
L 114.615168 306.651711 
L 104.832683 316.940078 
L 96.073703 327.918015 
L 96.769966 340.284283 
L 102.646419 349.257872 
L 98.601135 357.063791 
L 93.441832 366.368374 
L 87.983135 376.408496 
L 84.919581 385.565971 
L 77.901258 396.166943 
L 70.458214 407.595397 
L 63.753208 418.407837 
L 58.280586 429.85468 
L 52.856703 441.053278 
L 46.395389 452.601258 
L 38.743467 464.930749 
L 31.759956 477.664787 
L 25.229016 489.985084 
L 19.79817 500.742358 
L 29.657244 505.560146 
L 37.789587 510.221631 
L 49.013335 514.873922 
L 56.679183 522.882115 
L 53.420676 526.090909 
L 46.827072 521.429424 
L 47.056838 521.696057 
" style="fill:none;stroke:#000000;stroke-width:3;"/>
   </g>
  </g>
 </g>
 <defs>
  <clipPath id="p991f104657">
   <rect height="543.6" width="277.159736" x="7.2" y="7.2"/>
  </clipPath>
 </defs>
</svg>
