<?xml version="1.0" encoding="utf-8" standalone="no"?>
<!DOCTYPE svg PUBLIC "-//W3C//DTD SVG 1.1//EN"
  "http://www.w3.org/Graphics/SVG/1.1/DTD/svg11.dtd">
<svg height="558pt" version="1.1" viewBox="0 0 269.566357 558" width="269.566357pt" xmlns="http://www.w3.org/2000/svg" xmlns:xlink="http://www.w3.org/1999/xlink">
 <metadata>
  <rdf:RDF xmlns:cc="http://creativecommons.org/ns#" xmlns:dc="http://purl.org/dc/elements/1.1/" xmlns:rdf="http://www.w3.org/1999/02/22-rdf-syntax-ns#">
   <cc:Work>
    <dc:type rdf:resource="http://purl.org/dc/dcmitype/StillImage"/>
    <dc:date>2021-05-26T19:20:42.941419</dc:date>
    <dc:format>image/svg+xml</dc:format>
    <dc:creator>
     <cc:Agent>
      <dc:title>Matplotlib v3.4.2, https://matplotlib.org/</dc:title>
     </cc:Agent>
    </dc:creator>
   </cc:Work>
  </rdf:RDF>
 </metadata>
 <defs>
  <style type="text/css">*{stroke-linecap:butt;stroke-linejoin:round;}</style>
 </defs>
 <g id="figure_1">
  <g id="patch_1">
   <path d="M 0 558 
L 269.566357 558 
L 269.566357 0 
L 0 0 
z
" style="fill:none;"/>
  </g>
  <g id="axes_1">
   <g id="LineCollection_1">
    <path clip-path="url(#p08670f8a4c)" d="M 31.035162 526.090909 
L 18.798471 521.369482 
L 20.361865 515.51561 
L 24.478143 504.635421 
L 32.090618 491.124475 
L 38.350791 481.725177 
L 42.638581 469.590587 
L 50.112528 457.847998 
L 55.818586 449.894745 
L 59.783142 445.321408 
L 62.197498 439.937936 
L 65.924576 430.190193 
L 71.894499 421.043517 
L 79.342059 409.658084 
L 83.5309 397.218605 
L 88.722424 387.706062 
L 93.570924 377.679563 
L 93.135548 370.536445 
L 94.065669 360.466391 
L 100.602899 347.181934 
L 107.35122 338.035258 
L 117.345068 339.829749 
L 128.803361 334.489832 
L 135.479119 325.264757 
L 142.643026 317.82546 
L 142.425339 305.203048 
L 148.698705 292.345435 
L 153.665944 284.200538 
L 156.00114 274.609596 
L 159.91952 265.140609 
L 167.644138 255.837133 
L 172.532218 244.730455 
L 180.712001 236.463603 
L 194.248223 235.758002 
L 203.034893 225.461459 
L 209.651282 214.363492 
L 215.581625 202.603481 
L 221.452598 189.380001 
L 222.57402 174.118119 
L 221.769235 159.405038 
L 231.74989 147.43596 
L 234.922854 134.761281 
L 239.395349 120.858334 
L 243.036671 109.986856 
L 230.615275 109.77779 
L 239.93627 94.742397 
L 234.955837 85.073054 
L 234.250001 79.036248 
L 240.22652 68.791972 
L 246.39434 57.119071 
L 250.767886 46.988039 
L 248.650377 38.573097 
L 240.147361 33.14607 
L 236.413686 31.909091 
L 233.201142 36.386606 
L 239.316189 40.332744 
L 243.287342 41.561011 
L 248.788906 47.109995 
L 246.427323 53.634623 
L 242.726631 59.897918 
L 236.835868 60.725475 
L 235.701253 60.472852 
" style="fill:none;stroke:#000000;stroke-width:3;"/>
   </g>
  </g>
 </g>
 <defs>
  <clipPath id="p08670f8a4c">
   <rect height="543.6" width="255.166357" x="7.2" y="7.2"/>
  </clipPath>
 </defs>
</svg>
