<?xml version="1.0" encoding="utf-8" standalone="no"?>
<!DOCTYPE svg PUBLIC "-//W3C//DTD SVG 1.1//EN"
  "http://www.w3.org/Graphics/SVG/1.1/DTD/svg11.dtd">
<svg height="558pt" version="1.1" viewBox="0 0 275.240192 558" width="275.240192pt" xmlns="http://www.w3.org/2000/svg" xmlns:xlink="http://www.w3.org/1999/xlink">
 <metadata>
  <rdf:RDF xmlns:cc="http://creativecommons.org/ns#" xmlns:dc="http://purl.org/dc/elements/1.1/" xmlns:rdf="http://www.w3.org/1999/02/22-rdf-syntax-ns#">
   <cc:Work>
    <dc:type rdf:resource="http://purl.org/dc/dcmitype/StillImage"/>
    <dc:date>2021-05-26T19:20:43.495257</dc:date>
    <dc:format>image/svg+xml</dc:format>
    <dc:creator>
     <cc:Agent>
      <dc:title>Matplotlib v3.4.2, https://matplotlib.org/</dc:title>
     </cc:Agent>
    </dc:creator>
   </cc:Work>
  </rdf:RDF>
 </metadata>
 <defs>
  <style type="text/css">*{stroke-linecap:butt;stroke-linejoin:round;}</style>
 </defs>
 <g id="figure_1">
  <g id="patch_1">
   <path d="M 0 558 
L 275.240192 558 
L 275.240192 0 
L 0 0 
z
" style="fill:none;"/>
  </g>
  <g id="axes_1">
   <g id="LineCollection_1">
    <path clip-path="url(#p7b4fc335c2)" d="M 27.678087 526.090909 
L 19.056372 521.024839 
L 21.990851 510.999353 
L 26.190656 504.70676 
L 33.722037 493.508079 
L 37.403597 487.091056 
L 43.514852 476.692281 
L 48.717495 467.475588 
L 55.474873 458.44554 
L 59.250659 449.913211 
L 63.719682 440.083257 
L 71.64816 426.013803 
L 80.074692 413.819683 
L 84.01874 408.7625 
L 87.902213 402.612113 
L 94.188459 390.124695 
L 98.644022 373.619971 
L 93.347152 365.354278 
L 98.46903 355.675417 
L 104.021657 343.570176 
L 112.421266 335.56223 
L 122.402534 338.495218 
L 132.626097 330.913888 
L 141.167047 321.003944 
L 147.682129 311.022896 
L 146.537951 296.340181 
L 156.633636 287.523441 
L 159.386393 276.511404 
L 162.253567 266.876983 
L 166.628364 257.935813 
L 174.644338 247.590365 
L 179.288353 237.511551 
L 189.525377 231.601136 
L 202.299784 230.845669 
L 209.124467 220.917949 
L 215.128034 208.92825 
L 221.521968 195.712028 
L 227.707258 182.380264 
L 227.310161 166.915418 
L 228.124546 152.508226 
L 238.119274 140.367433 
L 241.060483 126.982342 
L 244.755504 114.192737 
L 247.077512 103.358457 
L 236.342433 102.496336 
L 245.267019 88.817946 
L 240.42109 77.601489 
L 241.30278 68.74031 
L 248.457255 58.981459 
L 253.915656 49.284823 
L 256.183819 38.183908 
L 247.225582 31.909091 
L 251.553265 36.752965 
L 254.023343 43.063333 
L 248.342838 52.902175 
L 241.59219 52.768857 
L 241.659494 53.808735 
" style="fill:none;stroke:#000000;stroke-width:3;"/>
   </g>
  </g>
 </g>
 <defs>
  <clipPath id="p7b4fc335c2">
   <rect height="543.6" width="260.840192" x="7.2" y="7.2"/>
  </clipPath>
 </defs>
</svg>
