<?xml version="1.0" encoding="utf-8" standalone="no"?>
<!DOCTYPE svg PUBLIC "-//W3C//DTD SVG 1.1//EN"
  "http://www.w3.org/Graphics/SVG/1.1/DTD/svg11.dtd">
<svg height="558pt" version="1.1" viewBox="0 0 296.320745 558" width="296.320745pt" xmlns="http://www.w3.org/2000/svg" xmlns:xlink="http://www.w3.org/1999/xlink">
 <metadata>
  <rdf:RDF xmlns:cc="http://creativecommons.org/ns#" xmlns:dc="http://purl.org/dc/elements/1.1/" xmlns:rdf="http://www.w3.org/1999/02/22-rdf-syntax-ns#">
   <cc:Work>
    <dc:type rdf:resource="http://purl.org/dc/dcmitype/StillImage"/>
    <dc:date>2021-05-26T19:20:44.022365</dc:date>
    <dc:format>image/svg+xml</dc:format>
    <dc:creator>
     <cc:Agent>
      <dc:title>Matplotlib v3.4.2, https://matplotlib.org/</dc:title>
     </cc:Agent>
    </dc:creator>
   </cc:Work>
  </rdf:RDF>
 </metadata>
 <defs>
  <style type="text/css">*{stroke-linecap:butt;stroke-linejoin:round;}</style>
 </defs>
 <g id="figure_1">
  <g id="patch_1">
   <path d="M 0 558 
L 296.320745 558 
L 296.320745 0 
L 0 0 
z
" style="fill:none;"/>
  </g>
  <g id="axes_1">
   <g id="LineCollection_1">
    <path clip-path="url(#peff7a91d85)" d="M 253.763172 34.938899 
L 256.455917 37.328118 
L 253.583947 42.38934 
L 252.910761 48.512437 
L 259.612023 51.95199 
L 266.085976 55.732035 
L 273.552222 59.921826 
L 276.306166 65.889105 
L 272.62987 72.652789 
L 268.752492 79.191403 
L 265.277278 85.510716 
L 255.791473 104.220499 
L 252.412429 109.71455 
L 249.741541 113.685041 
L 246.869571 119.086755 
L 232.999313 144.058141 
L 226.997465 156.136974 
L 219.859069 168.435107 
L 216.152174 175.227647 
L 209.490254 186.717832 
L 205.717789 193.735443 
L 201.591245 201.11086 
L 197.989262 207.874545 
L 189.994084 222.336827 
L 180.372767 238.905546 
L 176.512875 245.813507 
L 174.305349 250.528465 
L 171.686917 254.654775 
L 168.159247 256.351467 
L 160.911567 252.000086 
L 154.302103 248.202727 
L 148.208457 246.217482 
L 143.806519 243.049169 
L 140.562986 247.539055 
L 136.68998 254.799051 
L 132.943743 262.94202 
L 128.13527 271.235036 
L 124.236036 278.806669 
L 120.140092 285.651149 
L 116.415711 293.522878 
L 112.547076 297.343321 
L 108.914494 303.524128 
L 112.022516 309.722249 
L 118.269159 312.682804 
L 122.972719 313.658113 
L 129.123193 317.207317 
L 134.355685 320.710351 
L 144.654559 325.881223 
L 148.698047 329.032223 
L 144.986781 335.53621 
L 141.725762 341.711246 
L 138.574027 348.14598 
L 133.734955 346.703215 
L 128.314495 343.921563 
L 123.125716 342.484569 
L 119.737928 348.463389 
L 116.953386 353.870874 
L 113.880335 360.25944 
L 110.584345 366.544126 
L 106.383489 373.307811 
L 102.580424 379.927219 
L 99.306292 386.321556 
L 91.647706 399.133314 
L 87.569247 406.901164 
L 84.461225 413.278187 
L 81.331347 418.685672 
L 77.641937 425.351249 
L 74.070553 432.074537 
L 70.888219 438.376536 
L 69.09597 440.89849 
L 64.930084 437.124216 
L 61.655952 436.425917 
L 51.23468 452.348278 
L 55.732788 457.057464 
L 54.508813 462.366841 
L 50.985514 467.826266 
L 48.642476 469.540272 
L 45.499484 476.817581 
L 43.034049 479.841617 
L 39.960998 484.781647 
L 36.494526 490.679672 
L 40.048424 493.542119 
L 45.704937 497.085551 
L 50.425982 500.738633 
L 56.222378 504.155102 
L 61.603495 507.715847 
L 67.391148 510.110838 
L 71.985425 512.171107 
L 75.180873 511.305448 
L 74.118638 505.216977 
L 69.856583 503.514514 
L 70.612824 500.819428 
L 71.561405 498.228221 
L 74.64757 496.04676 
L 79.670238 498.741846 
L 83.608814 499.001544 
L 85.575917 493.732564 
L 88.81945 490.933599 
L 93.396242 491.678066 
L 93.221388 491.608813 
L 91.17123 497.091322 
L 88.124407 497.593404 
L 88.434772 501.985183 
L 86.629409 507.508089 
L 83.451446 515.974237 
L 80.601333 522.876428 
L 81.89525 524.180688 
L 86.367129 526.090909 
L 89.531978 522.662898 
L 90.148337 520.683424 
L 88.159378 524.584662 
L 84.225173 525.473405 
L 84.225173 523.828653 
L 81.086552 523.794026 
L 77.987273 522.795633 
L 78.092185 519.269514 
L 78.420035 515.247083 
L 84.491825 517.647845 
L 88.570284 519.055984 
L 93.304444 512.321155 
L 94.585246 509.400998 
L 99.612285 496.300687 
L 102.187004 489.987145 
L 105.124543 488.705969 
L 98.886643 485.814667 
L 86.590067 481.018914 
L 86.410842 475.444068 
L 82.279927 474.31294 
L 82.406696 468.980479 
L 86.152933 462.52266 
L 89.781145 455.476193 
L 93.829004 448.758677 
L 87.140856 448.579774 
L 83.447075 452.815734 
L 77.742478 450.876657 
L 73.427967 447.835307 
L 70.267489 448.712509 
L 65.638241 447.841078 
L 61.306244 451.297944 
L 58.158881 456.33031 
L 54.548155 461.818591 
L 44.065685 458.430977 
L 36.061764 457.894268 
L 33.430218 458.350182 
L 31.213949 474.428361 
L 28.390064 491.147128 
L 27.896103 496.10447 
L 27.039321 501.056042 
L 27.152975 504.443655 
L 24.976049 503.681875 
L 20.014579 502.827758 
L 20.241889 496.035218 
L 20.11512 494.396236 
L 21.382808 488.769451 
L 22.112822 481.624876 
L 23.231885 473.891652 
L 24.276635 465.696744 
L 25.474381 458.39058 
L 26.453561 449.42812 
L 27.747477 433.044075 
L 28.140898 429.165921 
L 29.461042 423.34292 
L 30.094886 415.361541 
L 32.105702 408.447808 
L 37.91084 402.330482 
L 43.423098 396.12082 
L 47.422873 389.178232 
L 51.995293 380.931384 
L 56.384117 372.661452 
L 58.910751 367.571375 
L 52.550453 364.518484 
L 47.698267 360.080537 
L 42.107325 358.372303 
L 35.362349 355.677217 
L 37.115256 349.507951 
L 39.462665 345.075775 
L 43.510525 338.03508 
L 47.435987 330.64812 
L 50.456582 324.409602 
L 53.787542 319.204104 
L 58.368705 313.029068 
L 60.786055 306.657815 
L 63.483171 302.358374 
L 66.097232 297.060539 
L 69.253338 292.44946 
L 72.55807 285.097127 
L 79.683352 271.69095 
L 88.058837 257.701895 
L 91.534051 250.805476 
L 98.213457 238.81898 
L 100.2811 234.594563 
L 103.502777 229.46986 
L 106.510258 223.542979 
L 109.495882 219.168514 
L 115.104309 208.128472 
L 119.978352 199.887395 
L 124.05244 194.583789 
L 135.007014 200.816536 
L 137.760958 203.194214 
L 142.621886 205.67 
L 147.220535 206.778043 
L 150.258615 202.241989 
L 153.777543 196.032326 
L 157.257128 189.493712 
L 159.94113 183.607229 
L 163.097237 178.597947 
L 167.136354 171.210988 
L 171.354696 164.597351 
L 179.061366 150.57367 
L 181.33009 146.210747 
L 184.980158 138.51215 
L 189.014904 131.921597 
L 191.856274 126.491028 
L 195.654967 119.900475 
L 202.998816 106.205744 
L 206.749425 100.048021 
L 210.342665 92.863049 
L 213.29769 87.963417 
L 217.432976 80.726505 
L 221.441494 73.241438 
L 224.938565 66.339247 
L 228.470607 59.93914 
L 232.903144 52.581035 
L 236.977232 44.951691 
L 240.657899 38.366909 
L 244.299224 32.23227 
L 249.230094 31.909091 
L 253.404722 35.094717 
L 253.404722 35.094717 
" style="fill:none;stroke:#000000;stroke-width:3;"/>
   </g>
  </g>
 </g>
 <defs>
  <clipPath id="peff7a91d85">
   <rect height="543.6" width="281.920745" x="7.2" y="7.2"/>
  </clipPath>
 </defs>
</svg>
