<?xml version="1.0" encoding="utf-8" standalone="no"?>
<!DOCTYPE svg PUBLIC "-//W3C//DTD SVG 1.1//EN"
  "http://www.w3.org/Graphics/SVG/1.1/DTD/svg11.dtd">
<svg height="558pt" version="1.1" viewBox="0 0 285.09336 558" width="285.09336pt" xmlns="http://www.w3.org/2000/svg" xmlns:xlink="http://www.w3.org/1999/xlink">
 <metadata>
  <rdf:RDF xmlns:cc="http://creativecommons.org/ns#" xmlns:dc="http://purl.org/dc/elements/1.1/" xmlns:rdf="http://www.w3.org/1999/02/22-rdf-syntax-ns#">
   <cc:Work>
    <dc:type rdf:resource="http://purl.org/dc/dcmitype/StillImage"/>
    <dc:date>2021-05-26T19:20:44.654936</dc:date>
    <dc:format>image/svg+xml</dc:format>
    <dc:creator>
     <cc:Agent>
      <dc:title>Matplotlib v3.4.2, https://matplotlib.org/</dc:title>
     </cc:Agent>
    </dc:creator>
   </cc:Work>
  </rdf:RDF>
 </metadata>
 <defs>
  <style type="text/css">*{stroke-linecap:butt;stroke-linejoin:round;}</style>
 </defs>
 <g id="figure_1">
  <g id="patch_1">
   <path d="M 0 558 
L 285.09336 558 
L 285.09336 0 
L 0 0 
z
" style="fill:none;"/>
  </g>
  <g id="axes_1">
   <g id="LineCollection_1">
    <path clip-path="url(#pa0b7d0781c)" d="M 263.036055 31.909091 
L 265.589117 37.833966 
L 264.666987 46.757627 
L 259.849889 55.781248 
L 251.172232 58.371109 
L 241.317826 57.48056 
L 238.145423 65.440975 
L 245.467412 69.675625 
L 248.460894 77.617865 
L 246.699213 90.276378 
L 233.906378 99.245476 
L 224.822708 107.823822 
L 215.463775 115.302613 
L 210.873769 125.589359 
L 204.067898 134.631155 
L 198.782854 145.063296 
L 193.896941 154.822983 
L 185.102297 159.366599 
L 176.86506 169.589734 
L 176.837534 182.811656 
L 177.725256 193.280146 
L 171.001964 202.340116 
L 162.572043 212.127064 
L 159.557916 227.320915 
L 148.513 237.816667 
L 137.571307 249.848162 
L 130.290608 261.870569 
L 130.82737 275.992126 
L 123.161303 283.261912 
L 116.912839 291.349547 
L 112.942175 301.100147 
L 106.25329 312.849937 
L 95.435465 323.47291 
L 90.515144 335.522579 
L 98.181211 346.127378 
L 95.779544 355.014691 
L 92.042852 363.184112 
L 86.489427 370.735601 
L 80.213437 383.103323 
L 73.552079 395.398347 
L 66.918247 407.593412 
L 60.167429 419.406812 
L 53.829505 431.06573 
L 48.455 443.224446 
L 41.291288 455.119632 
L 35.11164 462.407591 
L 32.778788 471.394863 
L 25.553142 482.381326 
L 19.504244 492.522676 
L 22.174292 501.11011 
L 33.109104 506.317094 
L 42.729536 512.314666 
L 52.742217 518.366762 
L 55.247108 526.090909 
L 47.711791 521.738125 
L 43.211246 518.357675 
L 43.84435 519.021043 
" style="fill:none;stroke:#000000;stroke-width:3;"/>
   </g>
  </g>
 </g>
 <defs>
  <clipPath id="pa0b7d0781c">
   <rect height="543.6" width="270.69336" x="7.2" y="7.2"/>
  </clipPath>
 </defs>
</svg>
