<?xml version="1.0" encoding="utf-8" standalone="no"?>
<!DOCTYPE svg PUBLIC "-//W3C//DTD SVG 1.1//EN"
  "http://www.w3.org/Graphics/SVG/1.1/DTD/svg11.dtd">
<svg height="558pt" version="1.1" viewBox="0 0 289.264414 558" width="289.264414pt" xmlns="http://www.w3.org/2000/svg" xmlns:xlink="http://www.w3.org/1999/xlink">
 <metadata>
  <rdf:RDF xmlns:cc="http://creativecommons.org/ns#" xmlns:dc="http://purl.org/dc/elements/1.1/" xmlns:rdf="http://www.w3.org/1999/02/22-rdf-syntax-ns#">
   <cc:Work>
    <dc:type rdf:resource="http://purl.org/dc/dcmitype/StillImage"/>
    <dc:date>2021-05-26T19:20:47.065836</dc:date>
    <dc:format>image/svg+xml</dc:format>
    <dc:creator>
     <cc:Agent>
      <dc:title>Matplotlib v3.4.2, https://matplotlib.org/</dc:title>
     </cc:Agent>
    </dc:creator>
   </cc:Work>
  </rdf:RDF>
 </metadata>
 <defs>
  <style type="text/css">*{stroke-linecap:butt;stroke-linejoin:round;}</style>
 </defs>
 <g id="figure_1">
  <g id="patch_1">
   <path d="M 0 558 
L 289.264414 558 
L 289.264414 0 
L 0 0 
z
" style="fill:none;"/>
  </g>
  <g id="axes_1">
   <g id="LineCollection_1">
    <path clip-path="url(#p757f678504)" d="M 265.781937 31.909091 
L 269.410982 34.282278 
L 269.570577 41.282721 
L 267.211351 45.204435 
L 262.263915 54.294016 
L 249.871039 51.957481 
L 241.336191 56.025801 
L 245.790965 64.199094 
L 252.181693 70.988791 
L 252.979666 82.48821 
L 238.990843 91.541139 
L 229.581694 102.325854 
L 219.770089 109.298808 
L 214.864287 119.588727 
L 208.889893 129.108963 
L 201.923238 139.362231 
L 197.544791 150.641741 
L 186.914396 155.763793 
L 179.434262 166.814231 
L 180.412647 180.696 
L 179.802023 191.15085 
L 172.56475 200.3962 
L 166.264229 212.784419 
L 158.673072 227.069355 
L 147.341848 240.529632 
L 135.032238 250.223963 
L 133.040774 266.029938 
L 128.093338 279.151188 
L 119.225423 287.681833 
L 114.722077 299.850142 
L 106.166413 311.926823 
L 96.132763 323.087216 
L 93.933132 336.016045 
L 101.864295 345.774517 
L 98.831995 350.346796 
L 95.327851 358.657531 
L 90.227759 366.620077 
L 83.323553 380.025377 
L 75.96138 394.49357 
L 66.642437 409.777261 
L 58.884746 422.843533 
L 51.217261 436.36795 
L 45.034701 447.592483 
L 38.470501 462.491332 
L 31.85079 474.861225 
L 23.9682 487.185304 
L 19.693837 497.676806 
L 31.698135 501.772615 
L 37.297827 506.71141 
L 44.819595 512.218303 
L 54.957328 520.547364 
L 56.941854 526.090909 
L 46.311459 519.402004 
L 47.8172 518.219992 
" style="fill:none;stroke:#000000;stroke-width:3;"/>
   </g>
  </g>
 </g>
 <defs>
  <clipPath id="p757f678504">
   <rect height="543.6" width="274.864414" x="7.2" y="7.2"/>
  </clipPath>
 </defs>
</svg>
