<?xml version="1.0" encoding="utf-8" standalone="no"?>
<!DOCTYPE svg PUBLIC "-//W3C//DTD SVG 1.1//EN"
  "http://www.w3.org/Graphics/SVG/1.1/DTD/svg11.dtd">
<svg height="558pt" version="1.1" viewBox="0 0 261.934642 558" width="261.934642pt" xmlns="http://www.w3.org/2000/svg" xmlns:xlink="http://www.w3.org/1999/xlink">
 <metadata>
  <rdf:RDF xmlns:cc="http://creativecommons.org/ns#" xmlns:dc="http://purl.org/dc/elements/1.1/" xmlns:rdf="http://www.w3.org/1999/02/22-rdf-syntax-ns#">
   <cc:Work>
    <dc:type rdf:resource="http://purl.org/dc/dcmitype/StillImage"/>
    <dc:date>2021-05-26T19:20:47.170765</dc:date>
    <dc:format>image/svg+xml</dc:format>
    <dc:creator>
     <cc:Agent>
      <dc:title>Matplotlib v3.4.2, https://matplotlib.org/</dc:title>
     </cc:Agent>
    </dc:creator>
   </cc:Work>
  </rdf:RDF>
 </metadata>
 <defs>
  <style type="text/css">*{stroke-linecap:butt;stroke-linejoin:round;}</style>
 </defs>
 <g id="figure_1">
  <g id="patch_1">
   <path d="M 0 558 
L 261.934642 558 
L 261.934642 0 
L 0 0 
z
" style="fill:none;"/>
  </g>
  <g id="axes_1">
   <g id="LineCollection_1">
    <path clip-path="url(#pbb703f477c)" d="M 30.336124 524.861173 
L 29.626307 526.090909 
L 20.821972 519.503653 
L 18.451575 514.533112 
L 24.214767 504.574832 
L 31.918559 494.005983 
L 33.611701 485.44083 
L 41.002913 474.373207 
L 45.952095 465.274882 
L 48.491807 459.1864 
L 55.427174 447.6716 
L 63.469595 432.097813 
L 71.603185 415.870459 
L 79.567461 405.138219 
L 87.961534 388.222902 
L 95.066215 377.086483 
L 92.14229 370.086448 
L 91.725517 363.688382 
L 98.68042 353.308723 
L 105.18599 341.991714 
L 115.266692 339.979419 
L 127.353116 338.80988 
L 134.548966 327.381076 
L 141.888082 319.288898 
L 142.155077 305.271629 
L 148.986251 293.533242 
L 154.013578 284.684303 
L 156.598874 276.179347 
L 159.509775 268.542946 
L 166.770746 258.782455 
L 172.527426 248.824174 
L 180.485189 239.244274 
L 192.317642 238.874493 
L 200.815908 231.84006 
L 206.793999 220.557449 
L 212.726506 209.661817 
L 219.512095 198.241613 
L 222.409971 183.53638 
L 219.394877 167.62721 
L 227.404738 154.435499 
L 234.76339 143.591464 
L 235.212723 130.846929 
L 243.483067 121.559414 
L 235.551352 116.821061 
L 233.246075 109.133062 
L 238.234329 94.436429 
L 228.440159 86.834425 
L 218.229215 84.099768 
L 215.077367 79.395813 
L 209.314175 72.36998 
L 204.430114 69.807314 
L 196.185818 65.550536 
L 189.895147 61.543145 
L 183.747742 58.163521 
L 177.763139 54.973088 
L 178.355739 47.577473 
L 171.498517 42.907917 
L 163.306318 38.762933 
L 165.65718 31.909091 
L 166.197682 33.104429 
L 165.592059 33.869789 
L 172.266942 38.24696 
L 181.149422 45.315791 
L 177.177052 52.909195 
L 181.728997 57.630349 
L 191.106395 61.431351 
L 198.002689 67.081256 
L 204.404065 70.572674 
L 209.750484 67.451037 
L 217.916635 65.868719 
L 222.963498 60.519798 
L 229.293241 61.964523 
L 234.379177 64.449793 
L 234.633148 64.406795 
" style="fill:none;stroke:#000000;stroke-width:3;"/>
   </g>
  </g>
 </g>
 <defs>
  <clipPath id="pbb703f477c">
   <rect height="543.6" width="247.534642" x="7.2" y="7.2"/>
  </clipPath>
 </defs>
</svg>
