<?xml version="1.0" encoding="utf-8" standalone="no"?>
<!DOCTYPE svg PUBLIC "-//W3C//DTD SVG 1.1//EN"
  "http://www.w3.org/Graphics/SVG/1.1/DTD/svg11.dtd">
<svg height="558pt" version="1.1" viewBox="0 0 287.154103 558" width="287.154103pt" xmlns="http://www.w3.org/2000/svg" xmlns:xlink="http://www.w3.org/1999/xlink">
 <metadata>
  <rdf:RDF xmlns:cc="http://creativecommons.org/ns#" xmlns:dc="http://purl.org/dc/elements/1.1/" xmlns:rdf="http://www.w3.org/1999/02/22-rdf-syntax-ns#">
   <cc:Work>
    <dc:type rdf:resource="http://purl.org/dc/dcmitype/StillImage"/>
    <dc:date>2021-05-26T19:20:47.269625</dc:date>
    <dc:format>image/svg+xml</dc:format>
    <dc:creator>
     <cc:Agent>
      <dc:title>Matplotlib v3.4.2, https://matplotlib.org/</dc:title>
     </cc:Agent>
    </dc:creator>
   </cc:Work>
  </rdf:RDF>
 </metadata>
 <defs>
  <style type="text/css">*{stroke-linecap:butt;stroke-linejoin:round;}</style>
 </defs>
 <g id="figure_1">
  <g id="patch_1">
   <path d="M 0 558 
L 287.154103 558 
L 287.154103 0 
L 0 0 
z
" style="fill:none;"/>
  </g>
  <g id="axes_1">
   <g id="LineCollection_1">
    <path clip-path="url(#p7cdede0e77)" d="M 262.445435 31.909091 
L 267.55619 34.198369 
L 265.094429 40.397733 
L 261.01692 48.593347 
L 256.620423 54.041829 
L 245.171501 51.743394 
L 237.432556 56.47762 
L 243.056467 63.299668 
L 247.723411 71.980609 
L 246.572278 85.340835 
L 233.535346 94.16829 
L 224.041964 103.178887 
L 214.694206 110.907489 
L 210.172888 121.465638 
L 203.071921 130.192365 
L 198.19694 140.704729 
L 191.8241 150.466209 
L 181.900776 157.379828 
L 174.827547 169.723614 
L 177.421064 182.836597 
L 174.106355 194.228043 
L 164.821009 202.963927 
L 161.64499 217.514577 
L 150.383301 230.188019 
L 138.809557 243.795486 
L 128.969447 257.576938 
L 129.60049 274.123838 
L 119.677166 280.442245 
L 113.595577 291.577292 
L 108.29759 304.461348 
L 97.25087 316.017622 
L 89.518861 327.674624 
L 93.228838 340.55868 
L 95.191313 348.653566 
L 94.525597 349.670005 
L 90.149904 361.290379 
L 87.161118 367.544686 
L 80.947772 379.970886 
L 71.704032 394.814563 
L 62.266126 407.368963 
L 57.467426 418.623052 
L 51.108455 431.571208 
L 43.993619 444.885647 
L 38.154738 454.463986 
L 31.289545 464.820678 
L 31.525319 468.446894 
L 24.805752 477.567377 
L 19.597914 489.187751 
L 20.63116 496.009799 
L 31.275676 502.135906 
L 42.128228 509.809565 
L 51.40664 516.796441 
L 55.650577 526.090909 
L 52.148635 519.030776 
L 50.539822 517.519853 
" style="fill:none;stroke:#000000;stroke-width:3;"/>
   </g>
  </g>
 </g>
 <defs>
  <clipPath id="p7cdede0e77">
   <rect height="543.6" width="272.754103" x="7.2" y="7.2"/>
  </clipPath>
 </defs>
</svg>
