<?xml version="1.0" encoding="utf-8" standalone="no"?>
<!DOCTYPE svg PUBLIC "-//W3C//DTD SVG 1.1//EN"
  "http://www.w3.org/Graphics/SVG/1.1/DTD/svg11.dtd">
<svg height="558pt" version="1.1" viewBox="0 0 243.034199 558" width="243.034199pt" xmlns="http://www.w3.org/2000/svg" xmlns:xlink="http://www.w3.org/1999/xlink">
 <metadata>
  <rdf:RDF xmlns:cc="http://creativecommons.org/ns#" xmlns:dc="http://purl.org/dc/elements/1.1/" xmlns:rdf="http://www.w3.org/1999/02/22-rdf-syntax-ns#">
   <cc:Work>
    <dc:type rdf:resource="http://purl.org/dc/dcmitype/StillImage"/>
    <dc:date>2021-05-26T19:20:47.715484</dc:date>
    <dc:format>image/svg+xml</dc:format>
    <dc:creator>
     <cc:Agent>
      <dc:title>Matplotlib v3.4.2, https://matplotlib.org/</dc:title>
     </cc:Agent>
    </dc:creator>
   </cc:Work>
  </rdf:RDF>
 </metadata>
 <defs>
  <style type="text/css">*{stroke-linecap:butt;stroke-linejoin:round;}</style>
 </defs>
 <g id="figure_1">
  <g id="patch_1">
   <path d="M 0 558 
L 243.034199 558 
L 243.034199 0 
L 0 0 
z
" style="fill:none;"/>
  </g>
  <g id="axes_1">
   <g id="LineCollection_1">
    <path clip-path="url(#p470568610a)" d="M 201.586884 35.850082 
L 205.048416 37.148359 
L 200.664683 47.961561 
L 205.974988 50.627356 
L 211.879697 55.745451 
L 219.436502 58.624741 
L 225.441736 63.592813 
L 222.054504 71.71714 
L 218.029162 78.0585 
L 214.392805 85.392321 
L 210.192637 92.876165 
L 207.067643 98.698215 
L 200.197026 110.492338 
L 196.905948 116.591353 
L 193.448787 122.73076 
L 191.101763 127.318004 
L 187.386735 134.288307 
L 184.113139 139.677598 
L 180.144615 146.717143 
L 176.722419 153.502803 
L 173.413858 159.590278 
L 170.18834 165.827776 
L 165.568593 173.703988 
L 161.141153 181.020499 
L 157.417384 187.835009 
L 153.501307 195.399635 
L 149.663901 201.758306 
L 146.814256 207.978494 
L 142.48297 215.09305 
L 132.124598 233.372786 
L 128.357122 242.039505 
L 120.979513 253.302776 
L 118.28284 259.344091 
L 109.790722 274.323319 
L 105.240905 280.976266 
L 103.073077 285.967418 
L 100.192838 291.200916 
L 96.425362 299.406025 
L 90.918379 308.107364 
L 87.316987 313.392793 
L 79.991826 314.512196 
L 73.864214 306.503271 
L 68.663175 307.882329 
L 65.835383 306.993731 
L 60.787315 316.745232 
L 58.8555 331.557126 
L 53.37037 334.788393 
L 47.762863 329.958804 
L 44.253254 330.201149 
L 29.087198 358.618983 
L 25.179862 366.166299 
L 20.883542 373.205843 
L 17.592464 378.843249 
L 20.726199 380.037664 
L 26.757657 382.876562 
L 30.51202 385.796242 
L 33.007645 385.761622 
L 34.401874 387.1176 
L 36.936834 387.181071 
L 36.670226 389.327555 
L 39.502389 388.479348 
L 44.174583 391.070131 
L 47.928947 395.016892 
L 49.77772 394.601444 
L 48.208667 402.621909 
L 45.507623 410.746236 
L 43.44906 415.033434 
L 43.243641 417.791551 
L 45.267238 420.832403 
L 43.66322 432.83425 
L 48.877372 432.684227 
L 53.204287 436.907954 
L 54.401837 440.427727 
L 51.421073 446.43442 
L 48.588911 450.663917 
L 42.413223 463.808248 
L 38.296097 477.166072 
L 37.692951 482.186076 
L 35.14925 488.890954 
L 33.623903 495.451579 
L 37.085435 498.91942 
L 36.919351 503.408572 
L 36.329318 506.466735 
L 33.143135 512.894648 
L 30.267266 519.680307 
L 28.317969 523.263551 
L 25.074967 523.309712 
L 25.564477 522.871183 
L 28.619541 523.569367 
L 29.065345 523.528976 
L 33.331071 526.090909 
L 38.160608 523.944425 
L 40.359031 517.626145 
L 40.516373 515.745086 
L 42.509376 509.738393 
L 40.201688 506.010896 
L 42.059202 499.946501 
L 45.573182 494.032129 
L 47.688563 488.25047 
L 45.673706 485.486584 
L 41.827559 483.703617 
L 38.794348 479.543361 
L 40.359031 473.126989 
L 42.627383 465.423881 
L 45.424581 458.903647 
L 48.65447 452.596907 
L 57.421937 438.488967 
L 64.039057 424.0579 
L 68.492721 416.833711 
L 78.252318 399.050205 
L 80.962103 392.806937 
L 84.956851 387.100289 
L 88.086216 380.770469 
L 91.761909 374.221384 
L 95.249665 367.343403 
L 98.116793 362.375331 
L 101.381647 355.612751 
L 105.162234 348.884793 
L 108.588801 341.770237 
L 112.251382 334.696071 
L 115.844033 327.252618 
L 119.331789 318.984038 
L 124.786324 313.629368 
L 126.79244 305.666604 
L 130.271454 300.346554 
L 133.964629 295.851632 
L 136.836128 289.844938 
L 140.712869 284.472958 
L 144.126324 279.031736 
L 142.544159 272.886559 
L 139.318641 270.261155 
L 132.644702 265.760463 
L 125.380729 263.631289 
L 121.967274 260.082666 
L 116.167459 256.441721 
L 110.682329 253.227765 
L 107.277615 248.352014 
L 107.898243 243.551276 
L 105.726044 238.271617 
L 108.689326 233.326625 
L 111.622013 225.554275 
L 115.940187 219.645674 
L 121.735631 219.166754 
L 128.029325 219.9688 
L 132.373723 213.944796 
L 137.544168 209.444104 
L 138.274062 209.022885 
L 139.838745 205.745458 
L 140.170912 197.401866 
L 143.077375 189.202527 
L 147.880688 184.257536 
L 148.802889 178.885555 
L 150.857081 172.082585 
L 153.999558 166.98757 
L 158.523151 160.928946 
L 161.477691 155.481954 
L 167.963693 151.310158 
L 175.135883 150.363858 
L 179.541469 144.276383 
L 183.400728 137.80231 
L 191.704909 122.903863 
L 193.287074 114.687214 
L 191.031833 105.530036 
L 195.695286 96.528651 
L 201.433912 89.252531 
L 202.176918 80.47041 
L 206.289673 73.096198 
L 204.991598 67.874241 
L 198.094757 66.679826 
L 204.30104 59.432557 
L 202.032687 51.740989 
L 195.319413 48.290458 
L 189.121872 46.720986 
L 189.751241 42.589581 
L 190.44617 36.963715 
L 193.405081 31.909091 
L 198.138464 33.063115 
L 201.551919 35.342312 
L 201.599996 34.482564 
L 201.599996 34.482564 
" style="fill:none;stroke:#000000;stroke-width:3;"/>
   </g>
  </g>
 </g>
 <defs>
  <clipPath id="p470568610a">
   <rect height="543.6" width="228.634199" x="7.2" y="7.2"/>
  </clipPath>
 </defs>
</svg>
