<?xml version="1.0" encoding="utf-8" standalone="no"?>
<!DOCTYPE svg PUBLIC "-//W3C//DTD SVG 1.1//EN"
  "http://www.w3.org/Graphics/SVG/1.1/DTD/svg11.dtd">
<svg height="558pt" version="1.1" viewBox="0 0 278.122221 558" width="278.122221pt" xmlns="http://www.w3.org/2000/svg" xmlns:xlink="http://www.w3.org/1999/xlink">
 <metadata>
  <rdf:RDF xmlns:cc="http://creativecommons.org/ns#" xmlns:dc="http://purl.org/dc/elements/1.1/" xmlns:rdf="http://www.w3.org/1999/02/22-rdf-syntax-ns#">
   <cc:Work>
    <dc:type rdf:resource="http://purl.org/dc/dcmitype/StillImage"/>
    <dc:date>2021-05-26T19:20:49.013610</dc:date>
    <dc:format>image/svg+xml</dc:format>
    <dc:creator>
     <cc:Agent>
      <dc:title>Matplotlib v3.4.2, https://matplotlib.org/</dc:title>
     </cc:Agent>
    </dc:creator>
   </cc:Work>
  </rdf:RDF>
 </metadata>
 <defs>
  <style type="text/css">*{stroke-linecap:butt;stroke-linejoin:round;}</style>
 </defs>
 <g id="figure_1">
  <g id="patch_1">
   <path d="M 0 558 
L 278.122221 558 
L 278.122221 0 
L 0 0 
z
" style="fill:none;"/>
  </g>
  <g id="axes_1">
   <g id="LineCollection_1">
    <path clip-path="url(#p3cf1b0e7e1)" d="M 32.496258 526.090909 
L 19.187374 508.644666 
L 23.896885 506.901876 
L 28.634181 502.875114 
L 37.157147 487.859604 
L 42.602953 473.458656 
L 48.95871 469.697899 
L 55.022727 464.056763 
L 60.18374 436.447303 
L 67.831487 413.855243 
L 78.167405 406.929947 
L 88.392185 380.531267 
L 100.93699 385.411079 
L 102.680482 366.827435 
L 98.610019 355.875377 
L 103.777979 346.968804 
L 109.814211 334.530788 
L 119.010956 326.85334 
L 129.965085 331.366248 
L 139.286861 320.66185 
L 150.24099 311.782794 
L 154.408699 299.262225 
L 154.165583 284.90714 
L 164.279224 275.15669 
L 167.34249 263.48917 
L 171.232352 251.463921 
L 179.380224 241.14477 
L 185.083039 229.202073 
L 193.849121 221.387037 
L 206.991298 221.176068 
L 215.569832 212.581362 
L 221.717203 200.812944 
L 228.281346 188.02637 
L 235.033034 176.945896 
L 236.318078 162.049629 
L 233.852183 147.74958 
L 241.35406 133.431185 
L 251.224585 121.286692 
L 251.189854 107.26182 
L 258.934847 96.300589 
L 253.377901 89.641298 
L 248.175211 83.642431 
L 255.670141 71.213588 
L 247.216638 59.72952 
L 235.852684 56.381529 
L 227.385288 58.307771 
L 228.399431 66.563091 
L 235.866576 71.479593 
L 238.450556 82.046403 
L 229.802559 93.888201 
L 219.675026 103.941347 
L 207.824839 109.89435 
L 199.413013 107.243475 
L 199.558883 99.36423 
L 204.956066 90.604418 
L 210.381034 77.377561 
L 217.327216 67.012547 
L 223.662134 56.152215 
L 230.323523 45.28271 
L 235.262258 34.229753 
L 244.764635 31.909091 
L 250.981468 36.45869 
" style="fill:none;stroke:#000000;stroke-width:3;"/>
   </g>
  </g>
 </g>
 <defs>
  <clipPath id="p3cf1b0e7e1">
   <rect height="543.6" width="263.722221" x="7.2" y="7.2"/>
  </clipPath>
 </defs>
</svg>
