<?xml version="1.0" encoding="utf-8" standalone="no"?>
<!DOCTYPE svg PUBLIC "-//W3C//DTD SVG 1.1//EN"
  "http://www.w3.org/Graphics/SVG/1.1/DTD/svg11.dtd">
<svg height="558pt" version="1.1" viewBox="0 0 237.635097 558" width="237.635097pt" xmlns="http://www.w3.org/2000/svg" xmlns:xlink="http://www.w3.org/1999/xlink">
 <metadata>
  <rdf:RDF xmlns:cc="http://creativecommons.org/ns#" xmlns:dc="http://purl.org/dc/elements/1.1/" xmlns:rdf="http://www.w3.org/1999/02/22-rdf-syntax-ns#">
   <cc:Work>
    <dc:type rdf:resource="http://purl.org/dc/dcmitype/StillImage"/>
    <dc:date>2021-05-26T19:20:50.067687</dc:date>
    <dc:format>image/svg+xml</dc:format>
    <dc:creator>
     <cc:Agent>
      <dc:title>Matplotlib v3.4.2, https://matplotlib.org/</dc:title>
     </cc:Agent>
    </dc:creator>
   </cc:Work>
  </rdf:RDF>
 </metadata>
 <defs>
  <style type="text/css">*{stroke-linecap:butt;stroke-linejoin:round;}</style>
 </defs>
 <g id="figure_1">
  <g id="patch_1">
   <path d="M 0 558 
L 237.635097 558 
L 237.635097 0 
L 0 0 
z
" style="fill:none;"/>
  </g>
  <g id="axes_1">
   <g id="LineCollection_1">
    <path clip-path="url(#pff0fe4b2d5)" d="M 105.965802 422.144999 
L 114.77698 425.721949 
L 121.996265 425.387029 
L 131.922782 426.231029 
L 133.23077 440.646005 
L 132.642682 454.819838 
L 131.304276 464.988023 
L 126.264971 470.279766 
L 111.349847 462.255072 
L 95.410639 454.190187 
L 79.86687 450.59984 
L 71.603222 460.794819 
L 82.533544 469.127639 
L 87.481593 482.899568 
L 81.347229 503.704826 
L 64.951746 516.271042 
L 49.124071 526.090909 
L 33.042911 524.510085 
L 20.905995 517.356184 
L 17.34705 507.844443 
L 24.576474 495.921275 
L 30.224145 483.6096 
L 38.092355 470.989797 
L 48.343334 452.904093 
L 60.419414 432.808866 
L 71.674198 412.660052 
L 80.890954 394.681522 
L 89.195159 379.141214 
L 99.0507 361.229668 
L 107.993691 345.153487 
L 121.083715 348.181168 
L 128.526068 351.32942 
L 131.943061 336.927841 
L 139.050812 324.267848 
L 147.294181 308.593571 
L 157.423487 292.503992 
L 165.504625 276.481398 
L 172.054706 264.116135 
L 180.642816 250.799698 
L 189.210648 231.977169 
L 199.248699 216.343083 
L 207.07635 200.092743 
L 213.961034 188.491098 
L 220.288048 176.56793 
L 212.115655 166.922222 
L 201.682165 158.870734 
L 192.384294 155.682291 
L 183.857021 151.475691 
L 175.410863 146.492074 
L 167.126936 139.967824 
L 156.602192 135.506684 
L 146.442467 138.976459 
L 135.623679 134.85024 
L 135.268799 128.727894 
L 142.00139 117.019075 
L 149.413325 103.488289 
L 156.521076 89.314456 
L 164.581935 76.359733 
L 170.331001 65.441326 
L 176.881082 53.116254 
L 183.167538 41.528006 
L 184.901383 31.909091 
L 180.876024 38.875436 
L 179.233434 49.579494 
L 191.704951 55.125776 
L 203.304477 62.413645 
L 215.12707 69.875673 
L 213.737966 80.552937 
L 207.99904 91.364169 
L 201.398261 104.854764 
L 194.189115 118.291773 
L 192.333597 121.868723 
L 186.594671 127.535577 
L 182.356383 139.445348 
L 176.1916 150.913024 
L 177.590843 158.428639 
L 181.950805 166.587301 
L 181.464111 177.519105 
L 176.069927 187.526527 
L 168.475482 195.591412 
L 160.718806 203.441947 
L 156.592052 215.887591 
L 160.83034 229.190631 
L 154.99002 243.069734 
L 147.811293 255.997664 
L 138.675652 273.681463 
L 129.915172 275.690986 
L 122.158496 282.442982 
L 114.553912 295.746022 
L 107.253511 308.84811 
L 100.713569 322.874579 
L 94.994922 334.382445 
L 106.36124 341.335394 
L 115.922737 347.645295 
L 117.372678 357.599131 
L 116.632498 363.520524 
L 108.896101 372.014107 
L 104.242096 379.315372 
L 100.054505 388.076891 
L 93.179961 398.057521 
L 91.243327 410.69072 
L 102.112813 418.09916 
L 108.612197 418.447477 
" style="fill:none;stroke:#000000;stroke-width:3;"/>
   </g>
  </g>
 </g>
 <defs>
  <clipPath id="pff0fe4b2d5">
   <rect height="543.6" width="223.235097" x="7.2" y="7.2"/>
  </clipPath>
 </defs>
</svg>
