<?xml version="1.0" encoding="utf-8" standalone="no"?>
<!DOCTYPE svg PUBLIC "-//W3C//DTD SVG 1.1//EN"
  "http://www.w3.org/Graphics/SVG/1.1/DTD/svg11.dtd">
<svg height="558pt" version="1.1" viewBox="0 0 291.406072 558" width="291.406072pt" xmlns="http://www.w3.org/2000/svg" xmlns:xlink="http://www.w3.org/1999/xlink">
 <metadata>
  <rdf:RDF xmlns:cc="http://creativecommons.org/ns#" xmlns:dc="http://purl.org/dc/elements/1.1/" xmlns:rdf="http://www.w3.org/1999/02/22-rdf-syntax-ns#">
   <cc:Work>
    <dc:type rdf:resource="http://purl.org/dc/dcmitype/StillImage"/>
    <dc:date>2021-05-26T19:20:50.167836</dc:date>
    <dc:format>image/svg+xml</dc:format>
    <dc:creator>
     <cc:Agent>
      <dc:title>Matplotlib v3.4.2, https://matplotlib.org/</dc:title>
     </cc:Agent>
    </dc:creator>
   </cc:Work>
  </rdf:RDF>
 </metadata>
 <defs>
  <style type="text/css">*{stroke-linecap:butt;stroke-linejoin:round;}</style>
 </defs>
 <g id="figure_1">
  <g id="patch_1">
   <path d="M 0 558 
L 291.406072 558 
L 291.406072 0 
L 0 0 
z
" style="fill:none;"/>
  </g>
  <g id="axes_1">
   <g id="LineCollection_1">
    <path clip-path="url(#pcd3c93be8b)" d="M 266.335198 31.909091 
L 271.614887 34.097616 
L 267.013516 42.77784 
L 262.824729 50.673151 
L 252.992619 51.328785 
L 240.950731 56.961697 
L 251.139483 64.755431 
L 253.573035 75.993552 
L 244.454207 87.887306 
L 234.083638 99.310113 
L 222.81797 105.136945 
L 216.650174 115.99646 
L 211.475379 126.191107 
L 202.517389 135.34228 
L 199.391533 147.956309 
L 188.398591 154.346432 
L 179.706334 165.575318 
L 181.076955 180.830352 
L 178.692354 192.92726 
L 169.454646 202.023028 
L 165.958162 217.194953 
L 155.510671 229.624296 
L 144.944299 241.767376 
L 133.412898 253.596491 
L 133.706603 269.460987 
L 125.860495 279.766445 
L 117.972429 289.637892 
L 113.601825 302.732104 
L 103.66482 314.062568 
L 94.126415 325.429968 
L 94.790747 338.450305 
L 99.6089 348.571078 
L 96.483044 354.425613 
L 91.762792 362.533312 
L 87.60897 368.480189 
L 83.776825 376.587889 
L 76.720922 390.744043 
L 69.322364 404.650871 
L 62.790934 416.369174 
L 57.322434 426.286793 
L 52.881901 433.858904 
L 48.14067 444.164362 
L 45.798026 449.640291 
L 35.357528 463.002297 
L 30.014902 473.667892 
L 23.119837 486.595886 
L 19.791185 498.711264 
L 32.490412 503.70701 
L 42.385459 511.666961 
L 53.623155 519.165198 
L 55.490277 526.090909 
L 48.049761 521.64922 
L 46.441379 519.756192 
" style="fill:none;stroke:#000000;stroke-width:3;"/>
   </g>
  </g>
 </g>
 <defs>
  <clipPath id="pcd3c93be8b">
   <rect height="543.6" width="277.006072" x="7.2" y="7.2"/>
  </clipPath>
 </defs>
</svg>
