<?xml version="1.0" encoding="utf-8" standalone="no"?>
<!DOCTYPE svg PUBLIC "-//W3C//DTD SVG 1.1//EN"
  "http://www.w3.org/Graphics/SVG/1.1/DTD/svg11.dtd">
<svg height="558pt" version="1.1" viewBox="0 0 289.265004 558" width="289.265004pt" xmlns="http://www.w3.org/2000/svg" xmlns:xlink="http://www.w3.org/1999/xlink">
 <metadata>
  <rdf:RDF xmlns:cc="http://creativecommons.org/ns#" xmlns:dc="http://purl.org/dc/elements/1.1/" xmlns:rdf="http://www.w3.org/1999/02/22-rdf-syntax-ns#">
   <cc:Work>
    <dc:type rdf:resource="http://purl.org/dc/dcmitype/StillImage"/>
    <dc:date>2021-05-26T19:20:50.766757</dc:date>
    <dc:format>image/svg+xml</dc:format>
    <dc:creator>
     <cc:Agent>
      <dc:title>Matplotlib v3.4.2, https://matplotlib.org/</dc:title>
     </cc:Agent>
    </dc:creator>
   </cc:Work>
  </rdf:RDF>
 </metadata>
 <defs>
  <style type="text/css">*{stroke-linecap:butt;stroke-linejoin:round;}</style>
 </defs>
 <g id="figure_1">
  <g id="patch_1">
   <path d="M 0 558 
L 289.265004 558 
L 289.265004 0 
L 0 0 
z
" style="fill:none;"/>
  </g>
  <g id="axes_1">
   <g id="LineCollection_1">
    <path clip-path="url(#pc4b675572d)" d="M 265.793042 31.909091 
L 269.57114 40.294727 
L 263.924905 50.015069 
L 258.59932 57.010769 
L 247.034994 54.13885 
L 240.587133 59.45006 
L 245.843011 66.307687 
L 250.952505 74.757758 
L 248.233947 88.721544 
L 235.672817 97.134795 
L 226.067246 105.069392 
L 217.291184 113.215701 
L 213.059993 123.341058 
L 206.284511 132.012045 
L 200.589481 143.278805 
L 194.511065 153.505414 
L 185.017025 158.273537 
L 176.770733 173.259064 
L 179.635675 187.112392 
L 175.655428 196.933988 
L 165.729207 206.884451 
L 163.533449 222.753646 
L 151.780915 235.566824 
L 140.209618 247.698842 
L 130.673754 261.349663 
L 131.489321 277.136014 
L 120.991506 285.015382 
L 115.477713 296.862049 
L 110.605221 309.012476 
L 100.14923 318.64077 
L 91.868085 330.008783 
L 93.311012 344.552477 
L 98.044091 351.769094 
L 93.631662 359.574823 
L 88.591875 369.755409 
L 83.789089 376.152793 
L 79.976138 385.449711 
L 73.625866 396.026106 
L 65.553841 408.43427 
L 59.85184 417.657549 
L 55.021173 430.664029 
L 47.785627 441.010302 
L 42.836458 448.263739 
L 38.946829 452.544003 
L 34.492577 464.915348 
L 26.650583 479.1921 
L 19.693864 491.830386 
L 20.174839 503.281243 
L 32.31773 507.607532 
L 34.081308 509.49453 
L 45.959314 516.913654 
L 55.780975 524.360394 
L 52.720854 526.090909 
L 45.053128 521.626547 
L 42.836458 521.663367 
" style="fill:none;stroke:#000000;stroke-width:3;"/>
   </g>
  </g>
 </g>
 <defs>
  <clipPath id="pc4b675572d">
   <rect height="543.6" width="274.865004" x="7.2" y="7.2"/>
  </clipPath>
 </defs>
</svg>
