<?xml version="1.0" encoding="utf-8" standalone="no"?>
<!DOCTYPE svg PUBLIC "-//W3C//DTD SVG 1.1//EN"
  "http://www.w3.org/Graphics/SVG/1.1/DTD/svg11.dtd">
<svg height="558pt" version="1.1" viewBox="0 0 286.712486 558" width="286.712486pt" xmlns="http://www.w3.org/2000/svg" xmlns:xlink="http://www.w3.org/1999/xlink">
 <metadata>
  <rdf:RDF xmlns:cc="http://creativecommons.org/ns#" xmlns:dc="http://purl.org/dc/elements/1.1/" xmlns:rdf="http://www.w3.org/1999/02/22-rdf-syntax-ns#">
   <cc:Work>
    <dc:type rdf:resource="http://purl.org/dc/dcmitype/StillImage"/>
    <dc:date>2021-05-26T19:20:51.206048</dc:date>
    <dc:format>image/svg+xml</dc:format>
    <dc:creator>
     <cc:Agent>
      <dc:title>Matplotlib v3.4.2, https://matplotlib.org/</dc:title>
     </cc:Agent>
    </dc:creator>
   </cc:Work>
  </rdf:RDF>
 </metadata>
 <defs>
  <style type="text/css">*{stroke-linecap:butt;stroke-linejoin:round;}</style>
 </defs>
 <g id="figure_1">
  <g id="patch_1">
   <path d="M 0 558 
L 286.712486 558 
L 286.712486 0 
L 0 0 
z
" style="fill:none;"/>
  </g>
  <g id="axes_1">
   <g id="LineCollection_1">
    <path clip-path="url(#p7d53d2ae3d)" d="M 223.519147 79.008339 
L 229.727494 82.665791 
L 224.643429 93.223272 
L 220.592709 103.245782 
L 233.73688 111.357683 
L 247.129053 118.672587 
L 261.513239 126.456956 
L 267.134645 134.99465 
L 260.008686 149.962909 
L 253.61847 160.302034 
L 246.62478 172.999397 
L 240.011361 183.720645 
L 233.910482 195.904873 
L 227.826136 206.702545 
L 221.807925 218.428227 
L 216.49239 228.472573 
L 211.160321 235.907573 
L 204.406367 249.991492 
L 197.544944 262.645185 
L 190.857124 273.508363 
L 184.177571 287.090066 
L 177.853489 298.444544 
L 172.537954 310.912634 
L 165.24666 320.771378 
L 158.079367 335.608623 
L 149.738192 349.048395 
L 141.909557 363.25241 
L 133.353447 378.111491 
L 125.500012 391.867878 
L 119.870339 405.132965 
L 111.793701 419.216885 
L 102.906919 434.20698 
L 96.591104 444.415092 
L 90.167821 456.511978 
L 82.859993 470.792418 
L 73.700408 485.411308 
L 66.640583 500.019281 
L 58.745814 513.797503 
L 51.462786 526.090909 
L 41.261588 523.820013 
L 31.548129 512.683891 
L 19.57784 506.810132 
L 31.523328 503.895088 
L 38.607953 489.701991 
L 43.617618 477.135641 
L 47.469935 468.379591 
L 42.600805 455.682228 
L 51.586788 442.821098 
L 60.043697 428.92278 
L 73.700408 427.416128 
L 86.910712 424.577509 
L 95.582558 412.480623 
L 105.453085 402.676468 
L 107.536312 386.72561 
L 110.396616 371.102285 
L 121.631162 360.544804 
L 123.929325 346.952184 
L 127.93871 335.728719 
L 137.065228 324.101297 
L 144.447457 310.989058 
L 151.937154 300.671768 
L 164.543984 298.695652 
L 177.531085 294.350381 
L 185.136517 281.6421 
L 192.832883 268.78097 
L 200.520983 255.242938 
L 207.117868 240.700472 
L 208.176015 222.948183 
L 205.315712 205.294153 
L 216.120385 190.140292 
L 223.419946 175.248458 
L 225.081568 158.664369 
L 236.712918 146.545647 
L 220.510042 144.656874 
L 224.378892 128.771522 
L 226.486919 112.8425 
L 215.921982 104.610503 
L 203.025815 102.688976 
L 194.502772 106.608455 
L 196.470264 115.364504 
L 205.026375 120.670539 
L 207.084801 131.894004 
L 197.635879 146.567483 
L 184.152771 160.171021 
L 170.975534 165.247783 
L 159.203648 159.53779 
L 165.784 147.080618 
L 172.323018 134.143064 
L 179.936716 121.511207 
L 187.352012 108.005929 
L 196.701733 92.710137 
L 203.447421 78.997421 
L 211.094186 67.566519 
L 217.674538 56.353972 
L 219.923101 49.497614 
L 225.403972 39.114817 
L 229.322422 31.909091 
L 231.232047 35.33727 
L 240.044428 40.686976 
L 240.697503 50.436542 
L 241.590315 59.465536 
L 237.8868 67.151644 
L 232.670466 76.289815 
L 226.164515 78.298684 
L 224.800497 76.671937 
" style="fill:none;stroke:#000000;stroke-width:3;"/>
   </g>
  </g>
 </g>
 <defs>
  <clipPath id="p7d53d2ae3d">
   <rect height="543.6" width="272.312486" x="7.2" y="7.2"/>
  </clipPath>
 </defs>
</svg>
