<?xml version="1.0" encoding="utf-8" standalone="no"?>
<!DOCTYPE svg PUBLIC "-//W3C//DTD SVG 1.1//EN"
  "http://www.w3.org/Graphics/SVG/1.1/DTD/svg11.dtd">
<svg height="558pt" version="1.1" viewBox="0 0 291.491216 558" width="291.491216pt" xmlns="http://www.w3.org/2000/svg" xmlns:xlink="http://www.w3.org/1999/xlink">
 <metadata>
  <rdf:RDF xmlns:cc="http://creativecommons.org/ns#" xmlns:dc="http://purl.org/dc/elements/1.1/" xmlns:rdf="http://www.w3.org/1999/02/22-rdf-syntax-ns#">
   <cc:Work>
    <dc:type rdf:resource="http://purl.org/dc/dcmitype/StillImage"/>
    <dc:date>2021-05-26T19:20:51.411497</dc:date>
    <dc:format>image/svg+xml</dc:format>
    <dc:creator>
     <cc:Agent>
      <dc:title>Matplotlib v3.4.2, https://matplotlib.org/</dc:title>
     </cc:Agent>
    </dc:creator>
   </cc:Work>
  </rdf:RDF>
 </metadata>
 <defs>
  <style type="text/css">*{stroke-linecap:butt;stroke-linejoin:round;}</style>
 </defs>
 <g id="figure_1">
  <g id="patch_1">
   <path d="M 0 558 
L 291.491216 558 
L 291.491216 0 
L 0 0 
z
" style="fill:none;"/>
  </g>
  <g id="axes_1">
   <g id="LineCollection_1">
    <path clip-path="url(#p3f26492956)" d="M 266.00301 31.909091 
L 271.696161 37.67586 
L 266.870868 46.697323 
L 262.198319 55.49875 
L 250.825902 54.490253 
L 241.994575 56.89231 
L 245.889524 66.142977 
L 251.200817 72.899906 
L 250.943931 85.460276 
L 237.55114 94.885138 
L 227.220154 104.282496 
L 218.131941 113.789871 
L 213.667677 124.644965 
L 203.919892 134.45489 
L 201.920346 146.941915 
L 190.999216 155.294103 
L 181.425002 163.627954 
L 179.265771 179.24132 
L 180.230829 191.389124 
L 172.190989 202.299227 
L 165.949351 215.354677 
L 157.201339 231.27976 
L 145.634522 241.896482 
L 133.20679 255.832076 
L 133.491448 273.013196 
L 125.951494 281.594587 
L 118.60594 291.156972 
L 114.648506 303.240598 
L 104.018977 315.104189 
L 93.979591 325.913442 
L 96.347108 345.001538 
L 99.138141 351.245051 
L 95.104335 358.973804 
L 92.139731 363.236996 
L 87.286667 370.525678 
L 80.906172 381.967534 
L 74.865877 395.563906 
L 66.235894 408.445161 
L 58.79314 423.829323 
L 50.274242 436.710579 
L 45.067092 449.234277 
L 38.464425 453.451628 
L 34.930506 460.226893 
L 30.646757 470.907792 
L 25.13412 483.816553 
L 19.795055 496.899508 
L 29.126269 503.262206 
L 40.450085 510.202499 
L 50.982414 517.711217 
L 58.994483 521.626018 
L 52.357102 526.090909 
L 45.921064 522.845383 
L 44.428348 523.138764 
" style="fill:none;stroke:#000000;stroke-width:3;"/>
   </g>
  </g>
 </g>
 <defs>
  <clipPath id="p3f26492956">
   <rect height="543.6" width="277.091216" x="7.2" y="7.2"/>
  </clipPath>
 </defs>
</svg>
