<?xml version="1.0" encoding="utf-8" standalone="no"?>
<!DOCTYPE svg PUBLIC "-//W3C//DTD SVG 1.1//EN"
  "http://www.w3.org/Graphics/SVG/1.1/DTD/svg11.dtd">
<svg height="558pt" version="1.1" viewBox="0 0 258.675185 558" width="258.675185pt" xmlns="http://www.w3.org/2000/svg" xmlns:xlink="http://www.w3.org/1999/xlink">
 <metadata>
  <rdf:RDF xmlns:cc="http://creativecommons.org/ns#" xmlns:dc="http://purl.org/dc/elements/1.1/" xmlns:rdf="http://www.w3.org/1999/02/22-rdf-syntax-ns#">
   <cc:Work>
    <dc:type rdf:resource="http://purl.org/dc/dcmitype/StillImage"/>
    <dc:date>2021-05-26T19:20:52.590802</dc:date>
    <dc:format>image/svg+xml</dc:format>
    <dc:creator>
     <cc:Agent>
      <dc:title>Matplotlib v3.4.2, https://matplotlib.org/</dc:title>
     </cc:Agent>
    </dc:creator>
   </cc:Work>
  </rdf:RDF>
 </metadata>
 <defs>
  <style type="text/css">*{stroke-linecap:butt;stroke-linejoin:round;}</style>
 </defs>
 <g id="figure_1">
  <g id="patch_1">
   <path d="M 0 558 
L 258.675185 558 
L 258.675185 0 
L 0 0 
z
" style="fill:none;"/>
  </g>
  <g id="axes_1">
   <g id="LineCollection_1">
    <path clip-path="url(#p77b88409f8)" d="M 67.483327 422.748167 
L 56.065825 419.80389 
L 56.509724 426.135448 
L 55.642572 436.665326 
L 54.181834 447.263358 
L 53.768904 457.207107 
L 52.829489 465.058511 
L 49.231841 472.650927 
L 51.487468 477.135497 
L 51.053892 479.977541 
L 47.611092 494.603508 
L 46.165839 502.182293 
L 41.32424 509.154504 
L 41.411987 513.870798 
L 38.134359 515.261151 
L 33.654073 521.872143 
L 32.007517 526.090909 
L 34.799953 520.761223 
L 38.547289 514.859039 
L 40.735815 509.181766 
L 33.80376 505.249248 
L 26.94913 500.907803 
L 20.450651 496.034753 
L 18.303417 491.229857 
L 22.855966 482.840032 
L 27.408514 474.225297 
L 31.69782 466.114906 
L 35.589681 459.101803 
L 38.087904 453.247327 
L 42.304947 446.002499 
L 46.645869 438.812194 
L 49.660255 432.46019 
L 53.046277 423.729592 
L 58.894392 416.171253 
L 63.792769 407.011281 
L 66.290993 401.981476 
L 69.991874 393.537127 
L 76.16517 385.651646 
L 81.079032 375.735159 
L 85.456085 366.234415 
L 90.932563 356.706409 
L 94.77797 350.627023 
L 96.517436 345.379123 
L 101.178378 337.261916 
L 107.310382 331.18253 
L 111.697758 321.306936 
L 116.250306 312.051548 
L 119.145975 306.824095 
L 115.197336 300.417567 
L 119.058227 293.172738 
L 123.409472 284.742021 
L 128.586577 278.410463 
L 136.550955 280.400576 
L 143.99401 277.674394 
L 149.165953 269.52311 
L 156.113493 263.45054 
L 156.23221 252.648044 
L 161.078971 242.642956 
L 165.616034 236.890712 
L 166.720621 228.01699 
L 169.755653 220.976625 
L 175.376656 214.01123 
L 180.053083 205.77816 
L 185.385036 199.40571 
L 194.913385 198.635564 
L 202.439026 193.005998 
L 206.764463 183.961889 
L 211.5338 176.267241 
L 215.725035 167.536643 
L 218.207774 157.108997 
L 216.726389 146.265608 
L 219.735613 135.544898 
L 227.400618 127.427691 
L 228.794255 118.315428 
L 231.493782 108.303525 
L 236.655401 101.058696 
L 225.702445 101.856104 
L 230.848579 91.769231 
L 230.513074 82.118547 
L 223.286807 77.30002 
L 215.405014 76.645737 
L 211.058931 78.445017 
L 211.203456 83.665655 
L 217.743228 86.923443 
L 218.331652 93.732082 
L 214.873368 101.392653 
L 206.790272 109.121379 
L 199.233661 114.076215 
L 191.929969 113.599133 
L 189.664019 109.237242 
L 193.411354 102.660328 
L 198.263276 95.176959 
L 202.113844 87.380078 
L 206.805756 79.651352 
L 211.745426 71.261527 
L 215.317267 64.425626 
L 217.263197 61.604028 
L 220.762775 54.318307 
L 225.748899 45.540001 
L 230.187892 39.187997 
L 232.087368 31.909091 
L 235.648885 36.959343 
L 239.773019 42.398076 
L 240.371767 49.240793 
L 237.909675 54.856728 
L 234.435905 61.263255 
L 230.265316 60.540817 
L 229.738831 60.349984 
" style="fill:none;stroke:#000000;stroke-width:3;"/>
   </g>
  </g>
 </g>
 <defs>
  <clipPath id="p77b88409f8">
   <rect height="543.6" width="244.275185" x="7.2" y="7.2"/>
  </clipPath>
 </defs>
</svg>
