<?xml version="1.0" encoding="utf-8" standalone="no"?>
<!DOCTYPE svg PUBLIC "-//W3C//DTD SVG 1.1//EN"
  "http://www.w3.org/Graphics/SVG/1.1/DTD/svg11.dtd">
<svg height="558pt" version="1.1" viewBox="0 0 307.183048 558" width="307.183048pt" xmlns="http://www.w3.org/2000/svg" xmlns:xlink="http://www.w3.org/1999/xlink">
 <metadata>
  <rdf:RDF xmlns:cc="http://creativecommons.org/ns#" xmlns:dc="http://purl.org/dc/elements/1.1/" xmlns:rdf="http://www.w3.org/1999/02/22-rdf-syntax-ns#">
   <cc:Work>
    <dc:type rdf:resource="http://purl.org/dc/dcmitype/StillImage"/>
    <dc:date>2021-05-26T19:20:53.377322</dc:date>
    <dc:format>image/svg+xml</dc:format>
    <dc:creator>
     <cc:Agent>
      <dc:title>Matplotlib v3.4.2, https://matplotlib.org/</dc:title>
     </cc:Agent>
    </dc:creator>
   </cc:Work>
  </rdf:RDF>
 </metadata>
 <defs>
  <style type="text/css">*{stroke-linecap:butt;stroke-linejoin:round;}</style>
 </defs>
 <g id="figure_1">
  <g id="patch_1">
   <path d="M -0 558 
L 307.183048 558 
L 307.183048 0 
L -0 0 
z
" style="fill:none;"/>
  </g>
  <g id="axes_1">
   <g id="LineCollection_1">
    <path clip-path="url(#pa38840727c)" d="M 286.674727 31.909091 
L 280.97166 38.269455 
L 278.03287 46.104685 
L 272.664867 57.037136 
L 265.056123 59.120386 
L 256.037319 57.322892 
L 250.732141 61.544698 
L 252.316714 68.568752 
L 260.009223 73.242237 
L 261.600777 81.824119 
L 257.922054 92.75657 
L 247.311696 99.153805 
L 241.06415 107.846302 
L 231.570672 112.012801 
L 226.64244 119.672891 
L 223.319723 126.862867 
L 219.689864 133.951447 
L 211.878686 140.671309 
L 210.719923 151.170518 
L 203.823191 157.927252 
L 195.746754 162.545429 
L 188.947749 171.818655 
L 188.326484 183.608372 
L 189.931999 194.485516 
L 184.529093 203.860139 
L 176.187397 211.82442 
L 174.183994 223.521959 
L 168.348298 233.292952 
L 160.411471 241.238798 
L 152.565391 250.410626 
L 143.497723 258.356472 
L 141.35471 268.920206 
L 141.557144 279.760478 
L 135.588818 286.692353 
L 128.685105 292.674782 
L 124.371157 301.441022 
L 120.378312 312.419563 
L 112.099441 321.259546 
L 104.37901 330.071876 
L 100.707267 339.723037 
L 106.891989 348.728943 
L 107.247994 357.495183 
L 102.954988 363.256382 
L 100.567657 369.008363 
L 95.325303 377.608681 
L 89.985222 387.020176 
L 84.519491 396.818823 
L 79.59824 406.700431 
L 75.423902 413.328114 
L 71.849887 419.531773 
L 67.675549 427.468401 
L 62.879946 436.391346 
L 58.133207 445.563175 
L 54.608055 451.812923 
L 49.247033 460.828048 
L 45.226265 467.741486 
L 41.568484 475.825601 
L 36.696096 485.12648 
L 31.265269 495.432113 
L 25.666909 505.175452 
L 20.50832 513.748116 
L 25.855382 518.808754 
L 35.160387 526.090909 
L 40.94722 524.099839 
L 41.072869 523.869391 
" style="fill:none;stroke:#000000;stroke-width:3;"/>
   </g>
  </g>
 </g>
 <defs>
  <clipPath id="pa38840727c">
   <rect height="543.6" width="292.783048" x="7.2" y="7.2"/>
  </clipPath>
 </defs>
</svg>
