<?xml version="1.0" encoding="utf-8" standalone="no"?>
<!DOCTYPE svg PUBLIC "-//W3C//DTD SVG 1.1//EN"
  "http://www.w3.org/Graphics/SVG/1.1/DTD/svg11.dtd">
<svg height="558pt" version="1.1" viewBox="0 0 284.425028 558" width="284.425028pt" xmlns="http://www.w3.org/2000/svg" xmlns:xlink="http://www.w3.org/1999/xlink">
 <metadata>
  <rdf:RDF xmlns:cc="http://creativecommons.org/ns#" xmlns:dc="http://purl.org/dc/elements/1.1/" xmlns:rdf="http://www.w3.org/1999/02/22-rdf-syntax-ns#">
   <cc:Work>
    <dc:type rdf:resource="http://purl.org/dc/dcmitype/StillImage"/>
    <dc:date>2021-05-26T19:20:53.718229</dc:date>
    <dc:format>image/svg+xml</dc:format>
    <dc:creator>
     <cc:Agent>
      <dc:title>Matplotlib v3.4.2, https://matplotlib.org/</dc:title>
     </cc:Agent>
    </dc:creator>
   </cc:Work>
  </rdf:RDF>
 </metadata>
 <defs>
  <style type="text/css">*{stroke-linecap:butt;stroke-linejoin:round;}</style>
 </defs>
 <g id="figure_1">
  <g id="patch_1">
   <path d="M 0 558 
L 284.425028 558 
L 284.425028 0 
L 0 0 
z
" style="fill:none;"/>
  </g>
  <g id="axes_1">
   <g id="LineCollection_1">
    <path clip-path="url(#p377799f442)" d="M 19.473865 522.154062 
L 20.316553 526.090909 
L 19.523435 522.546812 
L 22.965003 511.026158 
L 30.011012 499.851498 
L 32.751521 487.844582 
L 37.977606 483.664605 
L 42.559282 476.015339 
L 48.451021 467.720843 
L 50.49755 456.480724 
L 58.917354 444.511213 
L 65.233978 430.054289 
L 68.675546 420.834025 
L 77.201571 410.192382 
L 82.04526 406.984927 
L 85.076106 393.491174 
L 93.821655 380.923188 
L 98.49539 371.282121 
L 97.334038 361.856132 
L 100.09579 351.186435 
L 107.014334 338.655854 
L 116.128117 328.042264 
L 130.120996 331.212314 
L 138.951522 325.208857 
L 147.68999 314.211869 
L 154.126997 306.880544 
L 152.958563 291.769037 
L 162.964605 279.883687 
L 166.54072 267.633641 
L 169.330798 257.72139 
L 174.471906 248.052269 
L 182.778408 237.887536 
L 187.777888 227.05887 
L 198.952363 220.943198 
L 212.095472 218.726968 
L 218.992771 207.673873 
L 225.479349 195.797874 
L 232.560765 184.679321 
L 237.680629 172.391871 
L 239.620937 157.065286 
L 237.13536 141.551678 
L 245.824258 129.180067 
L 252.997733 115.770475 
L 254.144922 99.836064 
L 264.951163 90.943091 
L 250.505074 90.886984 
L 254.909715 77.000482 
L 256.991651 62.075998 
L 253.118117 52.472336 
L 257.211175 41.40989 
L 257.019977 34.901469 
L 252.339161 31.909091 
" style="fill:none;stroke:#000000;stroke-width:3;"/>
   </g>
  </g>
 </g>
 <defs>
  <clipPath id="p377799f442">
   <rect height="543.6" width="270.025028" x="7.2" y="7.2"/>
  </clipPath>
 </defs>
</svg>
