<?xml version="1.0" encoding="utf-8" standalone="no"?>
<!DOCTYPE svg PUBLIC "-//W3C//DTD SVG 1.1//EN"
  "http://www.w3.org/Graphics/SVG/1.1/DTD/svg11.dtd">
<svg height="558pt" version="1.1" viewBox="0 0 294.612575 558" width="294.612575pt" xmlns="http://www.w3.org/2000/svg" xmlns:xlink="http://www.w3.org/1999/xlink">
 <metadata>
  <rdf:RDF xmlns:cc="http://creativecommons.org/ns#" xmlns:dc="http://purl.org/dc/elements/1.1/" xmlns:rdf="http://www.w3.org/1999/02/22-rdf-syntax-ns#">
   <cc:Work>
    <dc:type rdf:resource="http://purl.org/dc/dcmitype/StillImage"/>
    <dc:date>2021-05-26T19:20:58.027287</dc:date>
    <dc:format>image/svg+xml</dc:format>
    <dc:creator>
     <cc:Agent>
      <dc:title>Matplotlib v3.4.2, https://matplotlib.org/</dc:title>
     </cc:Agent>
    </dc:creator>
   </cc:Work>
  </rdf:RDF>
 </metadata>
 <defs>
  <style type="text/css">*{stroke-linecap:butt;stroke-linejoin:round;}</style>
 </defs>
 <g id="figure_1">
  <g id="patch_1">
   <path d="M 0 558 
L 294.612575 558 
L 294.612575 0 
L 0 0 
z
" style="fill:none;"/>
  </g>
  <g id="axes_1">
   <g id="LineCollection_1">
    <path clip-path="url(#p24fad9af09)" d="M 270.342754 31.909091 
L 274.675639 33.653262 
L 269.287487 44.201345 
L 264.919659 53.494362 
L 253.227858 51.833247 
L 244.436294 54.55563 
L 249.558883 63.525653 
L 254.716414 73.160122 
L 251.788222 86.255248 
L 239.788925 94.496226 
L 230.885545 102.737204 
L 221.905291 110.138396 
L 216.908496 120.566509 
L 209.053395 130.699312 
L 204.545797 142.022582 
L 198.899069 150.549641 
L 188.793663 156.483514 
L 180.966515 168.535829 
L 183.258751 182.193888 
L 180.316582 194.809137 
L 171.231501 203.465393 
L 167.988825 217.012712 
L 158.21188 230.15398 
L 148.162382 241.717189 
L 135.967406 252.292956 
L 135.247588 267.344507 
L 129.670746 279.535248 
L 121.179689 288.828266 
L 116.588228 303.56605 
L 107.503146 314.077219 
L 97.565465 324.136196 
L 95.713506 338.006509 
L 102.443455 347.428724 
L 99.228733 354.673033 
L 95.322148 362.830955 
L 93.246557 365.119603 
L 86.327917 377.27343 
L 79.003944 389.547227 
L 67.025613 412.027655 
L 58.303934 428.943346 
L 50.882121 441.29097 
L 43.635022 451.091551 
L 35.675092 468.763972 
L 28.330153 483.630955 
L 19.936935 497.639694 
L 28.400038 507.228021 
L 37.617902 509.57204 
L 44.578472 517.490023 
L 53.796336 526.090909 
L 58.080302 524.808159 
L 51.161662 520.396975 
L 48.925335 522.40877 
" style="fill:none;stroke:#000000;stroke-width:3;"/>
   </g>
  </g>
 </g>
 <defs>
  <clipPath id="p24fad9af09">
   <rect height="543.6" width="280.212575" x="7.2" y="7.2"/>
  </clipPath>
 </defs>
</svg>
