<?xml version="1.0" encoding="utf-8" standalone="no"?>
<!DOCTYPE svg PUBLIC "-//W3C//DTD SVG 1.1//EN"
  "http://www.w3.org/Graphics/SVG/1.1/DTD/svg11.dtd">
<svg height="558pt" version="1.1" viewBox="0 0 279.086615 558" width="279.086615pt" xmlns="http://www.w3.org/2000/svg" xmlns:xlink="http://www.w3.org/1999/xlink">
 <metadata>
  <rdf:RDF xmlns:cc="http://creativecommons.org/ns#" xmlns:dc="http://purl.org/dc/elements/1.1/" xmlns:rdf="http://www.w3.org/1999/02/22-rdf-syntax-ns#">
   <cc:Work>
    <dc:type rdf:resource="http://purl.org/dc/dcmitype/StillImage"/>
    <dc:date>2021-05-26T19:20:58.332575</dc:date>
    <dc:format>image/svg+xml</dc:format>
    <dc:creator>
     <cc:Agent>
      <dc:title>Matplotlib v3.4.2, https://matplotlib.org/</dc:title>
     </cc:Agent>
    </dc:creator>
   </cc:Work>
  </rdf:RDF>
 </metadata>
 <defs>
  <style type="text/css">*{stroke-linecap:butt;stroke-linejoin:round;}</style>
 </defs>
 <g id="figure_1">
  <g id="patch_1">
   <path d="M 0 558 
L 279.086615 558 
L 279.086615 0 
L 0 0 
z
" style="fill:none;"/>
  </g>
  <g id="axes_1">
   <g id="LineCollection_1">
    <path clip-path="url(#pfe02c6aab6)" d="M 28.497073 526.090909 
L 19.23121 518.218461 
L 21.755068 510.624518 
L 28.12447 500.078408 
L 34.845384 487.740573 
L 41.017939 477.08306 
L 47.682611 464.912329 
L 53.187293 453.883474 
L 58.670884 447.737765 
L 64.091203 439.001947 
L 68.499167 430.748873 
L 75.831712 416.136569 
L 79.972527 405.720428 
L 87.958885 396.798938 
L 94.082228 383.681285 
L 98.799523 371.018526 
L 100.908596 362.291991 
L 96.816994 353.463337 
L 103.798027 342.907943 
L 112.058565 328.666981 
L 124.038102 327.580806 
L 135.75049 324.312997 
L 143.891514 312.857099 
L 152.524655 305.216739 
L 151.434967 289.694647 
L 159.997806 277.700303 
L 164.532314 267.089208 
L 168.342706 256.246024 
L 172.202311 246.164091 
L 180.427698 235.033117 
L 185.897228 224.078531 
L 196.252779 217.450078 
L 210.784295 215.881158 
L 218.805805 203.524756 
L 225.076784 189.952209 
L 232.753811 178.15282 
L 237.295349 164.078961 
L 236.233782 148.87251 
L 238.581884 133.044061 
L 248.473439 122.033773 
L 251.116811 109.148209 
L 255.208414 95.260021 
L 259.855406 83.720571 
L 244.859893 86.849127 
L 254.069514 72.218256 
L 251.932319 59.69475 
L 239.994963 53.36337 
L 230.553344 53.409788 
L 225.597022 58.803529 
L 231.910182 64.206554 
L 235.537788 70.602918 
L 235.495607 83.869108 
L 222.236565 92.242868 
L 212.295798 102.742561 
L 201.813703 104.896344 
L 196.56211 99.54902 
L 201.300495 91.268096 
L 206.917661 79.89575 
L 212.225496 69.358923 
L 220.556336 58.107263 
L 226.517984 46.335724 
L 235.481546 44.590417 
L 246.118307 50.726842 
L 251.904198 44.246926 
L 257.915058 36.411612 
L 252.846251 32.475387 
L 251.130872 31.909091 
" style="fill:none;stroke:#000000;stroke-width:3;"/>
   </g>
  </g>
 </g>
 <defs>
  <clipPath id="pfe02c6aab6">
   <rect height="543.6" width="264.686615" x="7.2" y="7.2"/>
  </clipPath>
 </defs>
</svg>
