<?xml version="1.0" encoding="utf-8" standalone="no"?>
<!DOCTYPE svg PUBLIC "-//W3C//DTD SVG 1.1//EN"
  "http://www.w3.org/Graphics/SVG/1.1/DTD/svg11.dtd">
<svg height="558pt" version="1.1" viewBox="0 0 315.259174 558" width="315.259174pt" xmlns="http://www.w3.org/2000/svg" xmlns:xlink="http://www.w3.org/1999/xlink">
 <metadata>
  <rdf:RDF xmlns:cc="http://creativecommons.org/ns#" xmlns:dc="http://purl.org/dc/elements/1.1/" xmlns:rdf="http://www.w3.org/1999/02/22-rdf-syntax-ns#">
   <cc:Work>
    <dc:type rdf:resource="http://purl.org/dc/dcmitype/StillImage"/>
    <dc:date>2021-05-26T19:20:58.860346</dc:date>
    <dc:format>image/svg+xml</dc:format>
    <dc:creator>
     <cc:Agent>
      <dc:title>Matplotlib v3.4.2, https://matplotlib.org/</dc:title>
     </cc:Agent>
    </dc:creator>
   </cc:Work>
  </rdf:RDF>
 </metadata>
 <defs>
  <style type="text/css">*{stroke-linecap:butt;stroke-linejoin:round;}</style>
 </defs>
 <g id="figure_1">
  <g id="patch_1">
   <path d="M 0 558 
L 315.259174 558 
L 315.259174 0 
L 0 0 
z
" style="fill:none;"/>
  </g>
  <g id="axes_1">
   <g id="LineCollection_1">
    <path clip-path="url(#pab1be329b6)" d="M 294.383757 31.909091 
L 289.531537 37.940729 
L 285.255475 47.46485 
L 279.348122 56.530641 
L 270.80988 59.940624 
L 261.167915 58.189799 
L 257.88451 68.199752 
L 265.006653 71.820568 
L 267.283517 78.41137 
L 266.519935 91.592974 
L 254.531688 99.742102 
L 247.812161 108.606226 
L 238.100779 112.492875 
L 233.075017 121.228666 
L 229.395938 128.158634 
L 223.731543 136.289428 
L 218.025499 144.594389 
L 215.720868 154.888506 
L 206.717535 159.636817 
L 199.144184 167.025115 
L 194.409972 178.529227 
L 197.151928 190.253338 
L 193.917114 200.629956 
L 186.059155 209.824079 
L 181.526251 220.70486 
L 176.625439 231.91564 
L 167.649873 240.4681 
L 158.417466 250.89055 
L 149.615441 259.479676 
L 149.518258 273.385443 
L 147.220568 284.422058 
L 138.203352 289.252868 
L 133.746806 297.741161 
L 129.894185 308.997774 
L 123.112183 317.321068 
L 114.094967 326.698523 
L 108.187615 337.359306 
L 112.158244 347.415092 
L 115.344466 354.904223 
L 111.936111 365.015008 
L 106.41055 370.047484 
L 101.127947 382.08326 
L 94.102987 394.641534 
L 87.251569 407.263974 
L 80.594517 416.668929 
L 74.027707 429.502201 
L 69.119953 438.613825 
L 64.205258 450.585435 
L 59.755654 455.205413 
L 52.862586 466.608692 
L 48.732298 479.185299 
L 40.242648 488.067756 
L 33.946563 502.03769 
L 28.657018 512.038476 
L 20.875417 522.919257 
L 41.762872 526.090909 
L 46.448492 524.385917 
" style="fill:none;stroke:#000000;stroke-width:3;"/>
   </g>
  </g>
 </g>
 <defs>
  <clipPath id="pab1be329b6">
   <rect height="543.6" width="300.859174" x="7.2" y="7.2"/>
  </clipPath>
 </defs>
</svg>
