<?xml version="1.0" encoding="utf-8" standalone="no"?>
<!DOCTYPE svg PUBLIC "-//W3C//DTD SVG 1.1//EN"
  "http://www.w3.org/Graphics/SVG/1.1/DTD/svg11.dtd">
<svg height="558pt" version="1.1" viewBox="0 0 275.64785 558" width="275.64785pt" xmlns="http://www.w3.org/2000/svg" xmlns:xlink="http://www.w3.org/1999/xlink">
 <metadata>
  <rdf:RDF xmlns:cc="http://creativecommons.org/ns#" xmlns:dc="http://purl.org/dc/elements/1.1/" xmlns:rdf="http://www.w3.org/1999/02/22-rdf-syntax-ns#">
   <cc:Work>
    <dc:type rdf:resource="http://purl.org/dc/dcmitype/StillImage"/>
    <dc:date>2021-05-26T19:21:00.912421</dc:date>
    <dc:format>image/svg+xml</dc:format>
    <dc:creator>
     <cc:Agent>
      <dc:title>Matplotlib v3.4.2, https://matplotlib.org/</dc:title>
     </cc:Agent>
    </dc:creator>
   </cc:Work>
  </rdf:RDF>
 </metadata>
 <defs>
  <style type="text/css">*{stroke-linecap:butt;stroke-linejoin:round;}</style>
 </defs>
 <g id="figure_1">
  <g id="patch_1">
   <path d="M 0 558 
L 275.64785 558 
L 275.64785 0 
L 0 0 
z
" style="fill:none;"/>
  </g>
  <g id="axes_1">
   <g id="LineCollection_1">
    <path clip-path="url(#pc94ef1c5e1)" d="M 29.612266 526.090909 
L 19.074902 519.769152 
L 20.132005 512.513802 
L 25.262658 504.351533 
L 29.215011 495.96698 
L 33.409757 489.360699 
L 38.277817 480.931689 
L 42.553361 471.889175 
L 47.569551 464.473781 
L 50.767792 456.933907 
L 54.080497 451.46572 
L 57.608662 444.548242 
L 61.587948 435.505728 
L 67.459246 427.885832 
L 70.388162 422.533233 
L 73.976925 416.211476 
L 76.892375 409.347345 
L 80.460939 405.426255 
L 85.120272 398.917779 
L 87.786595 392.756067 
L 92.944181 383.420138 
L 96.108756 374.964454 
L 94.311008 365.477373 
L 97.994036 354.772174 
L 103.764337 342.422075 
L 112.261559 333.984174 
L 123.061516 336.856083 
L 132.407114 328.720488 
L 141.476653 319.971389 
L 147.637476 309.826347 
L 145.738731 296.764938 
L 154.761139 286.84218 
L 158.376835 276.954987 
L 161.420214 266.84551 
L 165.709224 257.687409 
L 173.714928 248.235893 
L 179.249569 236.828277 
L 189.281947 229.750754 
L 201.320801 229.33286 
L 208.087607 219.321188 
L 214.01277 208.713795 
L 220.281323 196.950525 
L 226.738405 184.938297 
L 228.253361 170.640989 
L 225.364844 156.957185 
L 233.693738 143.682384 
L 241.079993 131.936897 
L 242.029365 119.142229 
L 249.738811 109.495103 
L 243.584721 103.626805 
L 239.147582 97.171677 
L 245.321871 83.212241 
L 237.484496 74.392012 
L 228.367824 71.528993 
L 220.550649 71.075534 
L 216.67236 77.815185 
L 222.900515 82.892152 
L 226.590276 89.418411 
L 226.314217 101.759619 
L 213.790576 109.939671 
L 205.683876 119.177794 
L 195.644764 122.360902 
L 189.039554 117.568458 
L 193.786418 109.032752 
L 199.078666 98.49649 
L 204.714304 88.253643 
L 211.24545 76.899375 
L 217.406273 65.669587 
L 225.573571 64.469253 
L 236.225399 70.141941 
L 241.726374 66.460918 
L 247.267748 57.009402 
L 252.943785 46.730989 
L 256.572948 38.266414 
L 251.226835 35.438961 
L 246.890692 31.909091 
L 249.038564 33.14499 
L 254.869463 37.528431 
L 252.169474 43.850188 
L 248.36525 49.994118 
L 243.86078 51.852413 
L 241.16079 51.230017 
" style="fill:none;stroke:#000000;stroke-width:3;"/>
   </g>
  </g>
 </g>
 <defs>
  <clipPath id="pc94ef1c5e1">
   <rect height="543.6" width="261.24785" x="7.2" y="7.2"/>
  </clipPath>
 </defs>
</svg>
