<?xml version="1.0" encoding="utf-8" standalone="no"?>
<!DOCTYPE svg PUBLIC "-//W3C//DTD SVG 1.1//EN"
  "http://www.w3.org/Graphics/SVG/1.1/DTD/svg11.dtd">
<svg height="558pt" version="1.1" viewBox="0 0 453.59938 558" width="453.59938pt" xmlns="http://www.w3.org/2000/svg" xmlns:xlink="http://www.w3.org/1999/xlink">
 <metadata>
  <rdf:RDF xmlns:cc="http://creativecommons.org/ns#" xmlns:dc="http://purl.org/dc/elements/1.1/" xmlns:rdf="http://www.w3.org/1999/02/22-rdf-syntax-ns#">
   <cc:Work>
    <dc:type rdf:resource="http://purl.org/dc/dcmitype/StillImage"/>
    <dc:date>2021-05-26T19:21:02.987283</dc:date>
    <dc:format>image/svg+xml</dc:format>
    <dc:creator>
     <cc:Agent>
      <dc:title>Matplotlib v3.4.2, https://matplotlib.org/</dc:title>
     </cc:Agent>
    </dc:creator>
   </cc:Work>
  </rdf:RDF>
 </metadata>
 <defs>
  <style type="text/css">*{stroke-linecap:butt;stroke-linejoin:round;}</style>
 </defs>
 <g id="figure_1">
  <g id="patch_1">
   <path d="M 0 558 
L 453.59938 558 
L 453.59938 0 
L 0 0 
z
" style="fill:none;"/>
  </g>
  <g id="axes_1">
   <g id="LineCollection_1">
    <path clip-path="url(#p83fed2ac3b)" d="M 426.435772 55.890357 
L 412.225184 47.424032 
L 398.770479 39.796352 
L 386.071656 31.909091 
L 372.753009 32.348381 
L 364.196421 49.081355 
L 355.836362 63.438166 
L 346.962304 80.949882 
L 336.183422 99.839373 
L 326.43254 116.232895 
L 319.024893 129.331738 
L 311.602129 143.029614 
L 302.531541 158.384813 
L 291.253776 178.711981 
L 291.374717 198.480052 
L 300.248776 213.715445 
L 289.273365 235.200743 
L 279.719012 252.652555 
L 269.272718 267.009367 
L 257.405366 289.552955 
L 244.872837 312.775447 
L 232.415896 336.177649 
L 221.334661 355.426559 
L 209.013779 376.452599 
L 197.448779 399.655123 
L 183.767309 424.435099 
L 171.113839 445.521042 
L 149.873545 434.179361 
L 131.127664 422.398389 
L 117.446194 430.90465 
L 99.531782 423.316905 
L 81.058018 414.391322 
L 68.797607 407.302771 
L 53.241549 400.294091 
L 45.622255 411.515966 
L 35.266667 432.881457 
L 27.163608 457.881079 
L 33.951431 472.777019 
L 47.360784 479.486183 
L 55.448725 484.318378 
L 71.775783 492.525123 
L 84.822312 501.590481 
L 99.5469 509.617516 
L 116.31237 518.223616 
L 128.935605 526.090909 
L 142.360075 504.465837 
L 154.98331 482.141894 
L 166.971604 460.416983 
L 178.279603 440.489169 
L 189.360838 419.742678 
L 200.154838 400.413897 
L 210.540661 382.343085 
L 221.516073 360.91769 
L 234.940543 337.894875 
L 245.855484 314.812158 
L 257.450718 296.182248 
L 268.834306 274.996466 
L 283.513541 248.479296 
L 297.285717 224.218481 
L 311.133481 198.819504 
L 324.754481 175.477206 
L 338.178951 151.655681 
L 351.437127 127.534641 
L 365.36048 101.616502 
L 379.828068 82.247786 
L 386.993832 62.938973 
L 401.355596 41.034352 
L 417.062831 50.71871 
L 425.755478 58.08681 
" style="fill:none;stroke:#000000;stroke-width:3;"/>
   </g>
  </g>
 </g>
 <defs>
  <clipPath id="p83fed2ac3b">
   <rect height="543.6" width="439.19938" x="7.2" y="7.2"/>
  </clipPath>
 </defs>
</svg>
