<?xml version="1.0" encoding="utf-8" standalone="no"?>
<!DOCTYPE svg PUBLIC "-//W3C//DTD SVG 1.1//EN"
  "http://www.w3.org/Graphics/SVG/1.1/DTD/svg11.dtd">
<svg height="558pt" version="1.1" viewBox="0 0 280.26946 558" width="280.26946pt" xmlns="http://www.w3.org/2000/svg" xmlns:xlink="http://www.w3.org/1999/xlink">
 <metadata>
  <rdf:RDF xmlns:cc="http://creativecommons.org/ns#" xmlns:dc="http://purl.org/dc/elements/1.1/" xmlns:rdf="http://www.w3.org/1999/02/22-rdf-syntax-ns#">
   <cc:Work>
    <dc:type rdf:resource="http://purl.org/dc/dcmitype/StillImage"/>
    <dc:date>2021-05-26T19:21:03.605984</dc:date>
    <dc:format>image/svg+xml</dc:format>
    <dc:creator>
     <cc:Agent>
      <dc:title>Matplotlib v3.4.2, https://matplotlib.org/</dc:title>
     </cc:Agent>
    </dc:creator>
   </cc:Work>
  </rdf:RDF>
 </metadata>
 <defs>
  <style type="text/css">*{stroke-linecap:butt;stroke-linejoin:round;}</style>
 </defs>
 <g id="figure_1">
  <g id="patch_1">
   <path d="M 0 558 
L 280.26946 558 
L 280.26946 0 
L 0 0 
z
" style="fill:none;"/>
  </g>
  <g id="axes_1">
   <g id="LineCollection_1">
    <path clip-path="url(#pb0d2a4d8f8)" d="M 30.335093 526.090909 
L 20.62523 523.095086 
L 19.284975 517.997577 
L 26.209623 505.083273 
L 33.092387 491.68042 
L 38.753565 480.489867 
L 43.884227 472.322792 
L 47.241843 467.778358 
L 52.232894 457.592558 
L 58.487414 444.834959 
L 70.08201 429.496343 
L 75.296437 418.296572 
L 79.74999 407.382557 
L 89.69021 392.034723 
L 94.744086 385.499219 
L 98.408843 376.133814 
L 101.801362 366.196898 
L 97.145375 356.877583 
L 104.083983 346.276977 
L 110.903923 334.34899 
L 121.493328 331.509872 
L 132.487602 332.376356 
L 139.482054 321.738878 
L 149.540942 313.6732 
L 152.675182 300.685153 
L 155.125335 285.540113 
L 163.73228 275.787555 
L 166.56636 263.315712 
L 171.054816 252.622927 
L 179.515171 242.584614 
L 184.771481 231.615291 
L 193.985729 223.641792 
L 207.129994 223.466651 
L 215.122657 212.515764 
L 222.312563 200.486381 
L 229.300034 187.535206 
L 235.680203 174.602466 
L 236.685394 158.507981 
L 235.142706 143.611825 
L 244.915393 130.522381 
L 249.194434 117.055002 
L 252.468285 103.237343 
L 260.984484 92.682826 
L 245.348184 92.904056 
L 252.077377 79.519639 
L 252.25189 66.771258 
L 241.73927 59.931563 
L 231.51285 57.691608 
L 225.244369 62.816771 
L 229.446625 69.50898 
L 235.003096 74.883026 
L 236.825004 84.801506 
L 228.8114 94.885909 
L 218.529137 105.965847 
L 206.536653 111.671738 
L 198.781327 108.445467 
L 198.474185 102.002142 
L 202.460046 94.369705 
L 207.828043 84.257649 
L 214.291978 72.182176 
L 220.71403 60.327933 
L 227.136082 50.851913 
L 231.128923 42.970593 
L 234.92631 36.591793 
L 238.214122 31.909091 
L 245.14575 36.047936 
L 249.187454 38.131186 
" style="fill:none;stroke:#000000;stroke-width:3;"/>
   </g>
  </g>
 </g>
 <defs>
  <clipPath id="pb0d2a4d8f8">
   <rect height="543.6" width="265.86946" x="7.2" y="7.2"/>
  </clipPath>
 </defs>
</svg>
