<?xml version="1.0" encoding="utf-8" standalone="no"?>
<!DOCTYPE svg PUBLIC "-//W3C//DTD SVG 1.1//EN"
  "http://www.w3.org/Graphics/SVG/1.1/DTD/svg11.dtd">
<svg height="558pt" version="1.1" viewBox="0 0 253.294646 558" width="253.294646pt" xmlns="http://www.w3.org/2000/svg" xmlns:xlink="http://www.w3.org/1999/xlink">
 <metadata>
  <rdf:RDF xmlns:cc="http://creativecommons.org/ns#" xmlns:dc="http://purl.org/dc/elements/1.1/" xmlns:rdf="http://www.w3.org/1999/02/22-rdf-syntax-ns#">
   <cc:Work>
    <dc:type rdf:resource="http://purl.org/dc/dcmitype/StillImage"/>
    <dc:date>2021-05-26T19:21:05.196060</dc:date>
    <dc:format>image/svg+xml</dc:format>
    <dc:creator>
     <cc:Agent>
      <dc:title>Matplotlib v3.4.2, https://matplotlib.org/</dc:title>
     </cc:Agent>
    </dc:creator>
   </cc:Work>
  </rdf:RDF>
 </metadata>
 <defs>
  <style type="text/css">*{stroke-linecap:butt;stroke-linejoin:round;}</style>
 </defs>
 <g id="figure_1">
  <g id="patch_1">
   <path d="M 0 558 
L 253.294646 558 
L 253.294646 0 
L 0 0 
z
" style="fill:none;"/>
  </g>
  <g id="axes_1">
   <g id="LineCollection_1">
    <path clip-path="url(#p2337940d87)" d="M 182.533249 31.909091 
L 191.658925 36.54798 
L 206.679741 43.257246 
L 220.226773 52.348224 
L 229.128434 44.611553 
L 235.235799 59.649027 
L 222.844215 75.729472 
L 223.292245 95.452535 
L 218.694036 113.463257 
L 203.319512 123.908541 
L 195.042735 139.755485 
L 188.227954 159.073813 
L 173.773071 174.438188 
L 160.060976 190.036065 
L 154.413432 208.420388 
L 165.201538 224.812168 
L 164.45875 236.020223 
L 158.268853 251.524699 
L 151.843151 258.778801 
L 143.271617 271.699198 
L 134.641133 285.802667 
L 126.281824 301.244876 
L 115.352235 317.870157 
L 105.4484 335.336042 
L 98.126637 353.409031 
L 91.311855 364.570385 
L 82.186179 379.934761 
L 74.180579 394.302864 
L 62.201655 403.238175 
L 53.854137 430.806876 
L 43.797028 449.922836 
L 33.834242 468.073659 
L 25.026903 479.266147 
L 18.058848 499.518479 
L 25.392401 518.19857 
L 40.165622 526.090909 
L 53.241042 516.470662 
" style="fill:none;stroke:#000000;stroke-width:3;"/>
   </g>
  </g>
 </g>
 <defs>
  <clipPath id="p2337940d87">
   <rect height="543.6" width="238.894646" x="7.2" y="7.2"/>
  </clipPath>
 </defs>
</svg>
