<?xml version="1.0" encoding="utf-8" standalone="no"?>
<!DOCTYPE svg PUBLIC "-//W3C//DTD SVG 1.1//EN"
  "http://www.w3.org/Graphics/SVG/1.1/DTD/svg11.dtd">
<svg height="558pt" version="1.1" viewBox="0 0 291.752932 558" width="291.752932pt" xmlns="http://www.w3.org/2000/svg" xmlns:xlink="http://www.w3.org/1999/xlink">
 <metadata>
  <rdf:RDF xmlns:cc="http://creativecommons.org/ns#" xmlns:dc="http://purl.org/dc/elements/1.1/" xmlns:rdf="http://www.w3.org/1999/02/22-rdf-syntax-ns#">
   <cc:Work>
    <dc:type rdf:resource="http://purl.org/dc/dcmitype/StillImage"/>
    <dc:date>2021-05-26T19:21:06.986547</dc:date>
    <dc:format>image/svg+xml</dc:format>
    <dc:creator>
     <cc:Agent>
      <dc:title>Matplotlib v3.4.2, https://matplotlib.org/</dc:title>
     </cc:Agent>
    </dc:creator>
   </cc:Work>
  </rdf:RDF>
 </metadata>
 <defs>
  <style type="text/css">*{stroke-linecap:butt;stroke-linejoin:round;}</style>
 </defs>
 <g id="figure_1">
  <g id="patch_1">
   <path d="M 0 558 
L 291.752932 558 
L 291.752932 0 
L 0 0 
z
" style="fill:none;"/>
  </g>
  <g id="axes_1">
   <g id="LineCollection_1">
    <path clip-path="url(#p0ae1814479)" d="M 30.141419 526.090909 
L 22.511504 522.451811 
L 19.806951 514.921974 
L 26.264162 504.091785 
L 32.838642 491.877577 
L 34.744289 484.589702 
L 47.666038 464.671445 
L 53.866719 453.667044 
L 57.011036 446.99859 
L 64.179199 436.584574 
L 73.011138 419.221429 
L 80.516454 403.900438 
L 88.168357 396.970666 
L 96.347979 378.659032 
L 102.871154 368.525692 
L 105.766271 355.663027 
L 101.808389 345.365153 
L 109.394329 333.547762 
L 116.606468 321.604551 
L 126.215324 318.584873 
L 138.110956 320.675419 
L 146.283248 308.635424 
L 156.610387 300.128063 
L 159.776692 286.984724 
L 161.271892 272.863861 
L 171.899536 261.936887 
L 173.812512 248.919368 
L 177.68977 238.795706 
L 185.781438 228.517188 
L 191.945472 216.632048 
L 200.740764 207.089093 
L 215.546172 205.898643 
L 225.389569 195.310416 
L 232.455121 182.534857 
L 239.703907 169.362483 
L 246.549576 155.696507 
L 247.780917 139.001175 
L 245.354882 123.902788 
L 254.421362 110.643307 
L 261.376972 97.935498 
L 262.564336 84.104989 
L 271.945981 73.681295 
L 263.282618 68.909817 
L 259.41269 60.954129 
L 266.551535 47.55915 
L 259.595925 36.874137 
L 248.880328 33.264074 
L 241.199107 31.909091 
L 235.94392 37.435488 
L 239.953107 44.210405 
L 246.586223 50.782075 
L 247.61234 63.615703 
L 235.658073 72.819912 
L 225.909957 84.676018 
L 214.212219 91.654182 
L 208.920385 101.255208 
L 204.339504 110.74977 
L 195.676142 118.598996 
L 194.320201 129.729217 
L 187.108062 137.065484 
L 177.521193 142.562846 
L 169.913266 155.077086 
L 171.511077 168.481743 
L 169.949913 180.424955 
L 161.946197 189.696913 
L 155.613587 202.520863 
L 149.302965 216.109411 
L 139.05645 227.094456 
L 130.041276 235.38889 
L 129.015159 229.417284 
L 122.198808 223.56182 
L 112.531316 218.587095 
L 104.190447 216.4288 
L 100.335178 223.155325 
L 95.417144 231.933682 
L 93.174344 236.918086 
L 86.687817 236.850337 
L 79.44636 232.330499 
L 72.534726 227.384809 
L 74.997408 220.00015 
L 79.32176 218.335456 
" style="fill:none;stroke:#000000;stroke-width:3;"/>
   </g>
  </g>
 </g>
 <defs>
  <clipPath id="p0ae1814479">
   <rect height="543.6" width="277.352932" x="7.2" y="7.2"/>
  </clipPath>
 </defs>
</svg>
