<?xml version="1.0" encoding="utf-8" standalone="no"?>
<!DOCTYPE svg PUBLIC "-//W3C//DTD SVG 1.1//EN"
  "http://www.w3.org/Graphics/SVG/1.1/DTD/svg11.dtd">
<svg height="558pt" version="1.1" viewBox="0 0 296.314097 558" width="296.314097pt" xmlns="http://www.w3.org/2000/svg" xmlns:xlink="http://www.w3.org/1999/xlink">
 <metadata>
  <rdf:RDF xmlns:cc="http://creativecommons.org/ns#" xmlns:dc="http://purl.org/dc/elements/1.1/" xmlns:rdf="http://www.w3.org/1999/02/22-rdf-syntax-ns#">
   <cc:Work>
    <dc:type rdf:resource="http://purl.org/dc/dcmitype/StillImage"/>
    <dc:date>2021-05-26T19:21:07.525276</dc:date>
    <dc:format>image/svg+xml</dc:format>
    <dc:creator>
     <cc:Agent>
      <dc:title>Matplotlib v3.4.2, https://matplotlib.org/</dc:title>
     </cc:Agent>
    </dc:creator>
   </cc:Work>
  </rdf:RDF>
 </metadata>
 <defs>
  <style type="text/css">*{stroke-linecap:butt;stroke-linejoin:round;}</style>
 </defs>
 <g id="figure_1">
  <g id="patch_1">
   <path d="M 0 558 
L 296.314097 558 
L 296.314097 0 
L 0 0 
z
" style="fill:none;"/>
  </g>
  <g id="axes_1">
   <g id="LineCollection_1">
    <path clip-path="url(#p78c5d23471)" d="M 35.880241 524.627852 
L 25.458046 526.090909 
L 20.014277 522.511295 
L 20.1103 517.341825 
L 28.449533 504.174307 
L 35.754672 492.528369 
L 41.974012 481.243319 
L 48.577444 469.041419 
L 54.715533 458.604942 
L 58.504751 449.173098 
L 62.426923 436.229916 
L 70.965589 422.379638 
L 82.444038 406.841967 
L 91.352023 391.148236 
L 98.834435 379.053627 
L 103.391837 371.348191 
L 108.421968 360.463043 
L 102.069674 351.372579 
L 109.633336 340.029006 
L 116.066881 327.212622 
L 126.082825 320.404528 
L 134.318648 324.34503 
L 144.578343 318.229449 
L 152.577802 307.57839 
L 161.23465 297.590584 
L 160.281806 281.779809 
L 169.160246 269.070716 
L 174.027876 258.341628 
L 176.901182 249.134119 
L 181.067105 238.190449 
L 189.531907 228.105105 
L 195.31545 216.459168 
L 204.836505 207.261413 
L 218.257574 206.929786 
L 227.557038 196.980995 
L 234.374675 184.564513 
L 241.34004 171.962711 
L 248.526997 158.746425 
L 250.713368 143.374567 
L 247.566766 128.275813 
L 255.684408 112.67962 
L 265.020804 100.47772 
L 265.958875 84.588916 
L 276.29982 72.328494 
L 263.853754 69.997355 
L 265.316259 57.658903 
L 269.090704 42.803993 
L 258.336121 34.337766 
L 247.064492 31.909091 
L 238.791736 35.60575 
L 242.388907 43.886655 
L 249.250863 50.772779 
L 250.462231 64.086603 
L 238.134347 72.884455 
L 229.278067 84.491378 
L 218.176324 90.148534 
L 212.296758 99.785207 
L 207.968334 109.490155 
L 199.082508 117.302882 
L 196.903523 128.500149 
L 191.179072 137.180957 
L 181.473356 141.501853 
L 173.510829 152.240696 
L 173.791512 167.076099 
L 174.175604 178.117307 
L 167.550013 187.929546 
L 158.272708 197.946613 
L 154.609059 214.449902 
L 143.802772 225.149729 
L 133.077735 236.69813 
L 132.006709 232.084622 
L 126.37828 226.642048 
L 115.830517 221.082429 
L 106.627076 216.293354 
L 100.356031 226.43722 
L 97.534431 236.873697 
L 91.315091 231.840779 
L 83.611087 228.007568 
L 75.19799 223.823224 
L 78.610502 217.931979 
L 81.505966 219.74617 
" style="fill:none;stroke:#000000;stroke-width:3;"/>
   </g>
  </g>
 </g>
 <defs>
  <clipPath id="p78c5d23471">
   <rect height="543.6" width="281.914097" x="7.2" y="7.2"/>
  </clipPath>
 </defs>
</svg>
