<?xml version="1.0" encoding="utf-8" standalone="no"?>
<!DOCTYPE svg PUBLIC "-//W3C//DTD SVG 1.1//EN"
  "http://www.w3.org/Graphics/SVG/1.1/DTD/svg11.dtd">
<svg height="558pt" version="1.1" viewBox="0 0 212.450199 558" width="212.450199pt" xmlns="http://www.w3.org/2000/svg" xmlns:xlink="http://www.w3.org/1999/xlink">
 <metadata>
  <rdf:RDF xmlns:cc="http://creativecommons.org/ns#" xmlns:dc="http://purl.org/dc/elements/1.1/" xmlns:rdf="http://www.w3.org/1999/02/22-rdf-syntax-ns#">
   <cc:Work>
    <dc:type rdf:resource="http://purl.org/dc/dcmitype/StillImage"/>
    <dc:date>2021-05-26T19:21:09.123985</dc:date>
    <dc:format>image/svg+xml</dc:format>
    <dc:creator>
     <cc:Agent>
      <dc:title>Matplotlib v3.4.2, https://matplotlib.org/</dc:title>
     </cc:Agent>
    </dc:creator>
   </cc:Work>
  </rdf:RDF>
 </metadata>
 <defs>
  <style type="text/css">*{stroke-linecap:butt;stroke-linejoin:round;}</style>
 </defs>
 <g id="figure_1">
  <g id="patch_1">
   <path d="M 0 558 
L 212.450199 558 
L 212.450199 0 
L 0 0 
z
" style="fill:none;"/>
  </g>
  <g id="axes_1">
   <g id="LineCollection_1">
    <path clip-path="url(#p5251ef5b63)" d="M 173.461723 31.909091 
L 190.429919 39.728037 
L 196.247917 54.067862 
L 179.696118 84.015035 
L 166.047535 107.914743 
L 151.334825 134.593842 
L 138.43807 160.15813 
L 128.259465 180.927205 
L 111.811765 209.286156 
L 98.371381 235.369671 
L 83.323239 262.674896 
L 68.969093 288.773682 
L 57.784195 308.595932 
L 44.575142 331.762614 
L 30.637394 356.929846 
L 16.202282 384.55577 
L 38.722444 401.873514 
L 60.190047 413.937903 
L 86.504053 426.75059 
L 104.547943 440.876615 
L 133.822998 453.047904 
L 147.124584 466.349275 
L 134.52856 488.477503 
L 124.338389 504.985864 
L 109.093615 526.090909 
L 93.964508 518.867547 
L 95.040201 517.981807 
" style="fill:none;stroke:#000000;stroke-width:3;"/>
   </g>
  </g>
 </g>
 <defs>
  <clipPath id="p5251ef5b63">
   <rect height="543.6" width="198.050199" x="7.2" y="7.2"/>
  </clipPath>
 </defs>
</svg>
