<?xml version="1.0" encoding="utf-8" standalone="no"?>
<!DOCTYPE svg PUBLIC "-//W3C//DTD SVG 1.1//EN"
  "http://www.w3.org/Graphics/SVG/1.1/DTD/svg11.dtd">
<svg height="558pt" version="1.1" viewBox="0 0 297.036416 558" width="297.036416pt" xmlns="http://www.w3.org/2000/svg" xmlns:xlink="http://www.w3.org/1999/xlink">
 <metadata>
  <rdf:RDF xmlns:cc="http://creativecommons.org/ns#" xmlns:dc="http://purl.org/dc/elements/1.1/" xmlns:rdf="http://www.w3.org/1999/02/22-rdf-syntax-ns#">
   <cc:Work>
    <dc:type rdf:resource="http://purl.org/dc/dcmitype/StillImage"/>
    <dc:date>2021-05-26T19:21:09.487963</dc:date>
    <dc:format>image/svg+xml</dc:format>
    <dc:creator>
     <cc:Agent>
      <dc:title>Matplotlib v3.4.2, https://matplotlib.org/</dc:title>
     </cc:Agent>
    </dc:creator>
   </cc:Work>
  </rdf:RDF>
 </metadata>
 <defs>
  <style type="text/css">*{stroke-linecap:butt;stroke-linejoin:round;}</style>
 </defs>
 <g id="figure_1">
  <g id="patch_1">
   <path d="M 0 558 
L 297.036416 558 
L 297.036416 0 
L 0 0 
z
" style="fill:none;"/>
  </g>
  <g id="axes_1">
   <g id="LineCollection_1">
    <path clip-path="url(#pee7e6aeef6)" d="M 36.076222 526.090909 
L 25.983818 516.915915 
L 20.04711 511.186383 
L 28.76894 508.989417 
L 37.168283 494.510735 
L 45.362406 477.380208 
L 53.285346 463.801604 
L 64.308568 446.400087 
L 67.650714 440.912511 
L 79.53146 418.991244 
L 88.993547 403.283422 
L 97.151024 388.795062 
L 99.518378 382.05899 
L 108.62133 368.673951 
L 112.315282 355.763148 
L 108.042318 344.758962 
L 117.819563 327.918783 
L 131.364053 318.569581 
L 147.488446 317.253337 
L 159.17863 303.181142 
L 166.082802 287.144259 
L 171.865596 267.778053 
L 178.461938 252.699319 
L 183.116024 239.25621 
L 193.157123 225.93892 
L 201.490503 210.008498 
L 219.996908 206.021053 
L 231.276653 193.652232 
L 240.174386 177.228219 
L 249.079449 161.355867 
L 253.938754 139.047469 
L 255.038145 116.806819 
L 267.102122 101.602267 
L 269.388854 80.987566 
L 276.989306 66.102396 
L 264.632158 61.514899 
L 272.195964 43.668181 
L 259.787511 33.883457 
L 248.837583 31.909091 
L 241.750179 37.232136 
L 246.675448 44.974747 
L 252.48023 52.485079 
L 250.691888 67.244431 
L 234.486873 82.69094 
L 220.414676 90.636794 
L 213.972248 101.534519 
L 206.144589 114.048514 
L 199.775454 126.359265 
L 190.892379 137.740903 
L 178.608524 147.45788 
L 177.062048 166.85312 
L 176.175206 179.715533 
L 164.668253 191.416553 
L 159.17863 211.895759 
L 145.355628 225.813102 
L 136.194042 233.381504 
L 131.041565 224.942059 
L 114.704624 216.115482 
L 106.356586 220.441666 
L 97.876621 222.687023 
L 88.099376 217.547865 
L 87.549681 217.199448 
" style="fill:none;stroke:#000000;stroke-width:3;"/>
   </g>
  </g>
 </g>
 <defs>
  <clipPath id="pee7e6aeef6">
   <rect height="543.6" width="282.636416" x="7.2" y="7.2"/>
  </clipPath>
 </defs>
</svg>
