<?xml version="1.0" encoding="utf-8" standalone="no"?>
<!DOCTYPE svg PUBLIC "-//W3C//DTD SVG 1.1//EN"
  "http://www.w3.org/Graphics/SVG/1.1/DTD/svg11.dtd">
<svg height="558pt" version="1.1" viewBox="0 0 227.584378 558" width="227.584378pt" xmlns="http://www.w3.org/2000/svg" xmlns:xlink="http://www.w3.org/1999/xlink">
 <metadata>
  <rdf:RDF xmlns:cc="http://creativecommons.org/ns#" xmlns:dc="http://purl.org/dc/elements/1.1/" xmlns:rdf="http://www.w3.org/1999/02/22-rdf-syntax-ns#">
   <cc:Work>
    <dc:type rdf:resource="http://purl.org/dc/dcmitype/StillImage"/>
    <dc:date>2021-05-26T19:21:12.625860</dc:date>
    <dc:format>image/svg+xml</dc:format>
    <dc:creator>
     <cc:Agent>
      <dc:title>Matplotlib v3.4.2, https://matplotlib.org/</dc:title>
     </cc:Agent>
    </dc:creator>
   </cc:Work>
  </rdf:RDF>
 </metadata>
 <defs>
  <style type="text/css">*{stroke-linecap:butt;stroke-linejoin:round;}</style>
 </defs>
 <g id="figure_1">
  <g id="patch_1">
   <path d="M 0 558 
L 227.584378 558 
L 227.584378 0 
L 0 0 
z
" style="fill:none;"/>
  </g>
  <g id="axes_1">
   <g id="LineCollection_1">
    <path clip-path="url(#p5ab2565185)" d="M 139.351811 45.806083 
L 136.572975 31.909091 
L 157.385891 42.661289 
L 174.251726 52.934281 
L 197.094894 63.641554 
L 210.694179 61.664826 
L 200.213996 96.70681 
L 195.098669 127.705488 
L 175.964397 146.334645 
L 164.315969 174.413157 
L 140.100396 199.406777 
L 144.047477 230.10595 
L 143.741238 246.339074 
L 134.905673 265.702017 
L 125.797896 281.141455 
L 108.569111 308.920463 
L 90.035974 340.008992 
L 77.7297 368.896165 
L 65.310003 393.50043 
L 58.595427 403.503868 
L 41.049061 434.038314 
L 25.691737 460.963736 
L 16.890199 486.241884 
L 39.268337 500.288628 
L 61.601107 511.669785 
L 79.975453 526.090909 
L 66.489591 525.222347 
L 59.185221 521.05924 
" style="fill:none;stroke:#000000;stroke-width:3;"/>
   </g>
  </g>
 </g>
 <defs>
  <clipPath id="p5ab2565185">
   <rect height="543.6" width="213.184378" x="7.2" y="7.2"/>
  </clipPath>
 </defs>
</svg>
