<?xml version="1.0" encoding="utf-8" standalone="no"?>
<!DOCTYPE svg PUBLIC "-//W3C//DTD SVG 1.1//EN"
  "http://www.w3.org/Graphics/SVG/1.1/DTD/svg11.dtd">
<svg height="558pt" version="1.1" viewBox="0 0 294.069663 558" width="294.069663pt" xmlns="http://www.w3.org/2000/svg" xmlns:xlink="http://www.w3.org/1999/xlink">
 <metadata>
  <rdf:RDF xmlns:cc="http://creativecommons.org/ns#" xmlns:dc="http://purl.org/dc/elements/1.1/" xmlns:rdf="http://www.w3.org/1999/02/22-rdf-syntax-ns#">
   <cc:Work>
    <dc:type rdf:resource="http://purl.org/dc/dcmitype/StillImage"/>
    <dc:date>2021-05-26T19:21:14.204645</dc:date>
    <dc:format>image/svg+xml</dc:format>
    <dc:creator>
     <cc:Agent>
      <dc:title>Matplotlib v3.4.2, https://matplotlib.org/</dc:title>
     </cc:Agent>
    </dc:creator>
   </cc:Work>
  </rdf:RDF>
 </metadata>
 <defs>
  <style type="text/css">*{stroke-linecap:butt;stroke-linejoin:round;}</style>
 </defs>
 <g id="figure_1">
  <g id="patch_1">
   <path d="M 0 558 
L 294.069663 558 
L 294.069663 0 
L 0 0 
z
" style="fill:none;"/>
  </g>
  <g id="axes_1">
   <g id="LineCollection_1">
    <path clip-path="url(#p1b23067dfb)" d="M 33.119607 526.090909 
L 19.912257 521.977647 
L 25.262627 506.163364 
L 36.131938 488.065011 
L 42.574369 475.831686 
L 49.141398 463.124126 
L 59.292441 445.829069 
L 69.37752 426.617716 
L 75.83461 414.66506 
L 82.152443 403.777014 
L 87.048397 394.931081 
L 97.91038 378.719989 
L 107.409117 360.311932 
L 102.601114 351.998303 
L 109.138826 336.367908 
L 118.644893 320.205207 
L 132.438584 321.19239 
L 145.557983 311.407666 
L 157.775881 299.929245 
L 159.278382 280.717892 
L 169.348803 265.948862 
L 174.252086 251.789562 
L 178.400455 238.830367 
L 188.610132 225.600181 
L 196.071332 210.947289 
L 212.488903 205.498427 
L 225.556997 195.936303 
L 234.703929 179.425185 
L 242.421654 165.333633 
L 248.40967 147.215924 
L 245.969022 125.643074 
L 258.194249 107.128556 
L 263.507972 87.868811 
L 274.157405 72.751363 
L 263.002252 69.567215 
L 265.369607 54.304593 
L 263.376045 37.841867 
L 256.618455 32.91563 
L 246.657973 31.909091 
L 237.481724 35.615866 
L 244.510496 45.032816 
L 248.475633 54.662689 
L 243.029983 70.138232 
L 231.559671 80.590757 
L 218.05915 88.526933 
L 211.125658 99.424658 
L 206.075789 110.273991 
L 195.550953 122.42989 
L 188.712742 136.569834 
L 177.389015 143.94467 
L 170.946584 160.00091 
L 173.5045 176.879802 
L 163.807872 189.006666 
L 157.475381 202.575591 
L 147.983972 218.641509 
L 135.50955 232.723383 
L 130.401046 228.706903 
L 120.28665 221.283675 
L 106.903398 214.431464 
L 100.087174 223.770989 
L 90.024082 221.109466 
L 82.856053 217.092987 
" style="fill:none;stroke:#000000;stroke-width:3;"/>
   </g>
  </g>
 </g>
 <defs>
  <clipPath id="p1b23067dfb">
   <rect height="543.6" width="279.669663" x="7.2" y="7.2"/>
  </clipPath>
 </defs>
</svg>
