<?xml version="1.0" encoding="utf-8" standalone="no"?>
<!DOCTYPE svg PUBLIC "-//W3C//DTD SVG 1.1//EN"
  "http://www.w3.org/Graphics/SVG/1.1/DTD/svg11.dtd">
<svg height="558pt" version="1.1" viewBox="0 0 292.845347 558" width="292.845347pt" xmlns="http://www.w3.org/2000/svg" xmlns:xlink="http://www.w3.org/1999/xlink">
 <metadata>
  <rdf:RDF xmlns:cc="http://creativecommons.org/ns#" xmlns:dc="http://purl.org/dc/elements/1.1/" xmlns:rdf="http://www.w3.org/1999/02/22-rdf-syntax-ns#">
   <cc:Work>
    <dc:type rdf:resource="http://purl.org/dc/dcmitype/StillImage"/>
    <dc:date>2021-05-26T19:21:16.524932</dc:date>
    <dc:format>image/svg+xml</dc:format>
    <dc:creator>
     <cc:Agent>
      <dc:title>Matplotlib v3.4.2, https://matplotlib.org/</dc:title>
     </cc:Agent>
    </dc:creator>
   </cc:Work>
  </rdf:RDF>
 </metadata>
 <defs>
  <style type="text/css">*{stroke-linecap:butt;stroke-linejoin:round;}</style>
 </defs>
 <g id="figure_1">
  <g id="patch_1">
   <path d="M 0 558 
L 292.845347 558 
L 292.845347 0 
L 0 0 
z
" style="fill:none;"/>
  </g>
  <g id="axes_1">
   <g id="LineCollection_1">
    <path clip-path="url(#p46a96e427d)" d="M 30.552951 526.090909 
L 19.856607 520.995252 
L 25.190106 504.507025 
L 36.08453 485.432219 
L 46.964282 465.572721 
L 54.124523 451.060756 
L 60.521788 440.937255 
L 68.584396 424.875281 
L 77.820813 409.530185 
L 85.003064 391.898826 
L 90.908795 386.076602 
L 99.132802 374.364342 
L 105.632775 358.631744 
L 103.637298 342.346956 
L 111.406453 326.788734 
L 124.355045 317.643677 
L 140.487597 317.3143 
L 151.712155 303.257651 
L 159.129167 286.488484 
L 162.826669 269.012125 
L 171.740289 253.172965 
L 176.545574 238.564124 
L 186.904447 224.652788 
L 196.25091 208.261436 
L 213.080411 205.500481 
L 225.500788 192.538526 
L 234.385063 175.788734 
L 245.279488 156.142362 
L 246.856795 135.556297 
L 249.292451 115.202733 
L 260.964524 99.315134 
L 262.409778 81.993777 
L 272.988741 68.692757 
L 255.983168 64.817733 
L 265.535047 47.3995 
L 256.438019 34.747546 
L 244.920008 31.909091 
L 235.243412 36.55912 
L 243.115275 44.716045 
L 246.94483 56.031116 
L 238.075228 71.046834 
L 225.023928 84.396292 
L 212.023982 93.105408 
L 205.685408 106.774556 
L 194.548885 118.050876 
L 191.144836 133.754411 
L 176.883044 142.318214 
L 169.165243 159.746135 
L 171.813652 174.907166 
L 163.08344 188.159749 
L 155.284939 205.093604 
L 141.940187 222.095272 
L 129.615181 234.136909 
L 124.956623 225.553731 
L 108.537955 216.360236 
L 99.895778 222.395586 
L 87.438719 221.116828 
L 80.799356 217.41618 
" style="fill:none;stroke:#000000;stroke-width:3;"/>
   </g>
  </g>
 </g>
 <defs>
  <clipPath id="p46a96e427d">
   <rect height="543.6" width="278.445347" x="7.2" y="7.2"/>
  </clipPath>
 </defs>
</svg>
