<?xml version="1.0" encoding="utf-8" standalone="no"?>
<!DOCTYPE svg PUBLIC "-//W3C//DTD SVG 1.1//EN"
  "http://www.w3.org/Graphics/SVG/1.1/DTD/svg11.dtd">
<svg height="558pt" version="1.1" viewBox="0 0 292.966568 558" width="292.966568pt" xmlns="http://www.w3.org/2000/svg" xmlns:xlink="http://www.w3.org/1999/xlink">
 <metadata>
  <rdf:RDF xmlns:cc="http://creativecommons.org/ns#" xmlns:dc="http://purl.org/dc/elements/1.1/" xmlns:rdf="http://www.w3.org/1999/02/22-rdf-syntax-ns#">
   <cc:Work>
    <dc:type rdf:resource="http://purl.org/dc/dcmitype/StillImage"/>
    <dc:date>2021-05-26T19:21:17.874740</dc:date>
    <dc:format>image/svg+xml</dc:format>
    <dc:creator>
     <cc:Agent>
      <dc:title>Matplotlib v3.4.2, https://matplotlib.org/</dc:title>
     </cc:Agent>
    </dc:creator>
   </cc:Work>
  </rdf:RDF>
 </metadata>
 <defs>
  <style type="text/css">*{stroke-linecap:butt;stroke-linejoin:round;}</style>
 </defs>
 <g id="figure_1">
  <g id="patch_1">
   <path d="M -0 558 
L 292.966568 558 
L 292.966568 0 
L -0 0 
z
" style="fill:none;"/>
  </g>
  <g id="axes_1">
   <g id="LineCollection_1">
    <path clip-path="url(#p9354cfaa91)" d="M 30.807816 526.090909 
L 26.811534 525.489479 
L 19.862117 514.236909 
L 25.166006 503.314156 
L 34.635137 487.79337 
L 42.444049 473.17473 
L 47.747938 462.494489 
L 57.981064 445.567133 
L 68.948801 425.739329 
L 74.965263 414.438257 
L 83.192902 399.906921 
L 92.426958 387.858911 
L 98.516881 370.727844 
L 105.64995 356.22561 
L 104.885955 341.791279 
L 113.642514 323.816269 
L 131.23644 321.148634 
L 146.053537 308.004468 
L 159.004723 294.462583 
L 159.717295 273.85874 
L 171.19926 256.242648 
L 175.408579 242.157535 
L 187.110927 225.113772 
L 197.975819 206.944752 
L 220.065561 202.230313 
L 230.166458 184.012791 
L 240.208586 166.241492 
L 247.033119 148.460491 
L 244.667673 125.383023 
L 258.529776 105.186601 
L 263.290053 82.487451 
L 273.104451 66.617448 
L 258.573853 61.136671 
L 264.524199 39.756788 
L 250.059715 31.909091 
L 237.461142 32.704531 
L 239.055247 42.308017 
L 246.922927 50.175116 
L 243.426181 67.946415 
L 226.412598 83.341095 
L 212.623955 92.187943 
L 206.893992 106.011142 
L 195.698526 117.457722 
L 192.870275 132.008458 
L 179.397515 139.807653 
L 169.656578 157.966973 
L 171.522489 177.629868 
L 158.270112 191.317261 
L 153.451066 211.552485 
L 136.488906 229.847612 
L 120.48174 246.309345 
L 112.893211 257.261199 
L 111.666412 249.947029 
L 116.353228 236.870767 
L 103.431426 228.916364 
L 92.830994 223.610196 
L 80.225075 217.120567 
" style="fill:none;stroke:#000000;stroke-width:3;"/>
   </g>
  </g>
 </g>
 <defs>
  <clipPath id="p9354cfaa91">
   <rect height="543.6" width="278.566568" x="7.2" y="7.2"/>
  </clipPath>
 </defs>
</svg>
