<?xml version="1.0" encoding="utf-8" standalone="no"?>
<!DOCTYPE svg PUBLIC "-//W3C//DTD SVG 1.1//EN"
  "http://www.w3.org/Graphics/SVG/1.1/DTD/svg11.dtd">
<svg height="558pt" version="1.1" viewBox="0 0 296.486091 558" width="296.486091pt" xmlns="http://www.w3.org/2000/svg" xmlns:xlink="http://www.w3.org/1999/xlink">
 <metadata>
  <rdf:RDF xmlns:cc="http://creativecommons.org/ns#" xmlns:dc="http://purl.org/dc/elements/1.1/" xmlns:rdf="http://www.w3.org/1999/02/22-rdf-syntax-ns#">
   <cc:Work>
    <dc:type rdf:resource="http://purl.org/dc/dcmitype/StillImage"/>
    <dc:date>2021-05-26T19:21:18.739727</dc:date>
    <dc:format>image/svg+xml</dc:format>
    <dc:creator>
     <cc:Agent>
      <dc:title>Matplotlib v3.4.2, https://matplotlib.org/</dc:title>
     </cc:Agent>
    </dc:creator>
   </cc:Work>
  </rdf:RDF>
 </metadata>
 <defs>
  <style type="text/css">*{stroke-linecap:butt;stroke-linejoin:round;}</style>
 </defs>
 <g id="figure_1">
  <g id="patch_1">
   <path d="M 0 558 
L 296.486091 558 
L 296.486091 0 
L 0 0 
z
" style="fill:none;"/>
  </g>
  <g id="axes_1">
   <g id="LineCollection_1">
    <path clip-path="url(#padf7f7dab5)" d="M 33.866002 526.090909 
L 20.022095 520.616336 
L 26.9001 507.490901 
L 33.990524 495.971082 
L 41.84273 478.870295 
L 50.727735 464.042519 
L 60.975156 445.539234 
L 65.956033 436.563255 
L 70.446147 427.374483 
L 80.298028 413.620343 
L 87.696095 396.432503 
L 99.056888 382.185071 
L 100.748922 372.870558 
L 107.839346 356.959474 
L 108.352083 341.53201 
L 117.669253 323.908913 
L 132.846277 320.755713 
L 147.173622 311.141356 
L 160.1825 298.248059 
L 160.636639 281.418098 
L 172.165903 265.555376 
L 175.183729 253.687352 
L 179.007284 242.041793 
L 187.745793 228.626186 
L 195.825068 213.779065 
L 210.782347 205.151292 
L 225.468609 198.951289 
L 234.92495 181.657054 
L 244.168871 165.02054 
L 249.545288 146.149705 
L 247.787331 124.802737 
L 261.279647 105.554679 
L 265.081228 85.764966 
L 276.463996 69.863555 
L 258.95768 66.7297 
L 269.439495 46.311282 
L 255.925205 33.940293 
L 242.447539 31.909091 
L 238.536085 41.030156 
L 247.128098 45.905041 
L 251.164073 59.407699 
L 240.770155 72.591169 
L 225.952047 85.764966 
L 214.122465 96.50132 
L 208.160062 109.955617 
L 196.923791 121.533469 
L 193.891316 134.997438 
L 180.772565 141.603681 
L 172.217177 159.903845 
L 175.652517 175.195896 
L 167.961458 187.528195 
L 158.834734 205.441464 
L 143.467264 225.666434 
L 128.033871 240.349124 
L 118.658103 255.467072 
L 113.486781 253.542266 
L 121.251089 238.404974 
L 108.044441 231.11199 
L 97.738421 225.666434 
L 86.538773 220.385308 
L 84.231455 218.0059 
" style="fill:none;stroke:#000000;stroke-width:3;"/>
   </g>
  </g>
 </g>
 <defs>
  <clipPath id="padf7f7dab5">
   <rect height="543.6" width="282.086091" x="7.2" y="7.2"/>
  </clipPath>
 </defs>
</svg>
