<?xml version="1.0" encoding="utf-8" standalone="no"?>
<!DOCTYPE svg PUBLIC "-//W3C//DTD SVG 1.1//EN"
  "http://www.w3.org/Graphics/SVG/1.1/DTD/svg11.dtd">
<svg height="242.788987pt" version="1.1" viewBox="0 0 572.4 242.788987" width="572.4pt" xmlns="http://www.w3.org/2000/svg" xmlns:xlink="http://www.w3.org/1999/xlink">
 <metadata>
  <rdf:RDF xmlns:cc="http://creativecommons.org/ns#" xmlns:dc="http://purl.org/dc/elements/1.1/" xmlns:rdf="http://www.w3.org/1999/02/22-rdf-syntax-ns#">
   <cc:Work>
    <dc:type rdf:resource="http://purl.org/dc/dcmitype/StillImage"/>
    <dc:date>2021-05-26T19:20:26.786638</dc:date>
    <dc:format>image/svg+xml</dc:format>
    <dc:creator>
     <cc:Agent>
      <dc:title>Matplotlib v3.4.2, https://matplotlib.org/</dc:title>
     </cc:Agent>
    </dc:creator>
   </cc:Work>
  </rdf:RDF>
 </metadata>
 <defs>
  <style type="text/css">*{stroke-linecap:butt;stroke-linejoin:round;}</style>
 </defs>
 <g id="figure_1">
  <g id="patch_1">
   <path d="M 0 242.788987 
L 572.4 242.788987 
L 572.4 -0 
L 0 -0 
z
" style="fill:none;"/>
  </g>
  <g id="axes_1">
   <g id="LineCollection_1">
    <path clip-path="url(#p0e3e3d5e9e)" d="M 32.563636 179.406265 
L 49.643526 175.297167 
L 71.998088 156.72271 
L 92.493956 161.499954 
L 109.347788 148.771773 
L 123.363345 134.039155 
L 142.301928 123.816522 
L 155.312786 110.754269 
L 151.394458 90.977149 
L 156.87007 70.732327 
L 179.350219 70.598698 
L 198.640447 62.280281 
L 210.29496 43.304936 
L 230.96665 40.365094 
L 251.387166 29.774981 
L 270.22528 20.220494 
L 289.716448 21.657008 
L 309.961141 23.928704 
L 331.235651 25.264996 
L 347.963896 35.086741 
L 363.863264 48.917362 
L 381.219446 54.897268 
L 400.082677 49.585508 
L 413.897294 35.821702 
L 430.826479 25.532254 
L 450.317647 22.759449 
L 470.813515 17.581318 
L 489.073926 20.420938 
L 504.169535 32.948674 
L 520.772193 44.173526 
L 535.867801 59.139995 
L 539.836364 82.324659 
L 525.896159 96.322317 
L 522.831826 118.972464 
L 522.128537 140.052469 
L 515.321698 160.230476 
L 506.982693 178.003158 
L 505.977994 199.48405 
L 497.990634 218.258951 
L 480.609334 225.207669 
L 456.370961 219.929316 
L 434.041517 219.528429 
L 424.295933 202.757966 
L 422.186064 179.172414 
L 409.577086 162.669209 
L 384.710776 155.787306 
L 366.751774 151.177099 
L 349.42071 141.121502 
L 330.105364 143.192755 
L 314.607876 135.241818 
L 305.741403 116.333288 
L 292.102609 104.340068 
L 276.680473 96.622983 
L 256.259958 89.173155 
L 246.941371 71.367066 
L 244.35427 51.42291 
L 233.578869 38.828359 
L 214.48958 42.169088 
L 201.302901 60.44288 
L 185.855647 68.694482 
L 168.424113 66.289157 
L 151.77122 79.618668 
L 156.46819 105.642953 
L 144.688089 120.976902 
L 126.276973 133.838712 
L 109.096613 151.444357 
L 85.310355 156.856339 
L 65.316837 161.834027 
L 50.397051 178.437453 
L 35.452147 178.60449 
L 34.497683 178.203602 
" style="fill:none;stroke:#000000;stroke-width:3;"/>
   </g>
  </g>
 </g>
 <defs>
  <clipPath id="p0e3e3d5e9e">
   <rect height="228.388987" width="558" x="7.2" y="7.2"/>
  </clipPath>
 </defs>
</svg>
