<?xml version="1.0" encoding="utf-8" standalone="no"?>
<!DOCTYPE svg PUBLIC "-//W3C//DTD SVG 1.1//EN"
  "http://www.w3.org/Graphics/SVG/1.1/DTD/svg11.dtd">
<svg height="558pt" version="1.1" viewBox="0 0 266.054231 558" width="266.054231pt" xmlns="http://www.w3.org/2000/svg" xmlns:xlink="http://www.w3.org/1999/xlink">
 <metadata>
  <rdf:RDF xmlns:cc="http://creativecommons.org/ns#" xmlns:dc="http://purl.org/dc/elements/1.1/" xmlns:rdf="http://www.w3.org/1999/02/22-rdf-syntax-ns#">
   <cc:Work>
    <dc:type rdf:resource="http://purl.org/dc/dcmitype/StillImage"/>
    <dc:date>2021-05-26T19:21:20.177798</dc:date>
    <dc:format>image/svg+xml</dc:format>
    <dc:creator>
     <cc:Agent>
      <dc:title>Matplotlib v3.4.2, https://matplotlib.org/</dc:title>
     </cc:Agent>
    </dc:creator>
   </cc:Work>
  </rdf:RDF>
 </metadata>
 <defs>
  <style type="text/css">*{stroke-linecap:butt;stroke-linejoin:round;}</style>
 </defs>
 <g id="figure_1">
  <g id="patch_1">
   <path d="M 0 558 
L 266.054231 558 
L 266.054231 0 
L 0 0 
z
" style="fill:none;"/>
  </g>
  <g id="axes_1">
   <g id="LineCollection_1">
    <path clip-path="url(#pfdbc76c9ac)" d="M 61.836745 414.294486 
L 66.48656 420.942974 
L 62.057895 432.405626 
L 54.941409 447.237445 
L 46.713505 461.380456 
L 45.885611 466.471641 
L 37.396863 477.919319 
L 30.660302 489.906064 
L 24.195925 501.653223 
L 18.638829 512.509426 
L 26.004816 509.020467 
L 35.786439 514.867842 
L 46.395957 521.546278 
L 51.02876 524.586015 
L 58.043176 526.090909 
L 62.67598 518.529003 
L 66.152 512.090152 
L 72.338523 502.484284 
L 76.942974 492.354324 
L 82.607809 482.142007 
L 88.125212 472.214197 
L 93.472499 461.867113 
L 98.723388 451.931816 
L 106.236809 440.109786 
L 106.100717 434.546919 
L 95.905146 427.82356 
L 86.565823 422.283153 
L 83.770263 414.361869 
L 89.883069 403.595511 
L 93.59725 396.138423 
L 80.685508 387.76043 
L 71.091011 383.620099 
L 68.346486 378.828396 
L 72.837527 369.409704 
L 77.481672 359.916143 
L 84.382678 348.917687 
L 89.616555 337.806925 
L 96.925837 326.276889 
L 98.014575 322.668138 
L 106.58271 308.659894 
L 114.827626 296.126595 
L 119.522805 285.457569 
L 116.846326 273.93502 
L 123.134917 262.689492 
L 132.298455 253.450489 
L 143.287896 255.853828 
L 150.784306 245.940992 
L 160.486542 235.803545 
L 160.095277 220.739629 
L 170.024333 211.043917 
L 171.55537 201.131081 
L 174.872616 192.094228 
L 182.958758 181.38028 
L 188.634935 170.142239 
L 202.36323 166.608357 
L 211.668531 157.631401 
L 217.242638 147.636208 
L 225.152995 133.725295 
L 228.481582 120.765235 
L 226.298437 107.176265 
L 234.231475 92.696337 
L 239.471023 81.757777 
L 242.402674 68.483262 
L 247.415402 58.570426 
L 237.486346 55.306079 
L 243.122829 40.511695 
L 232.700438 33.533778 
L 224.739048 31.909091 
L 219.94747 37.337192 
L 224.7674 42.136382 
L 228.23775 49.451217 
L 224.041575 61.812313 
L 212.003091 73.080302 
L 201.410585 81.009074 
L 197.384526 89.926134 
L 188.91846 98.948012 
L 187.194626 109.983903 
L 177.71354 115.404518 
L 169.003642 127.585925 
L 171.164105 140.965259 
L 165.187391 152.397963 
L 158.303397 164.474552 
L 151.640552 176.416375 
L 139.380918 189.181771 
L 129.599294 200.846574 
L 122.862733 204.485273 
L 127.818755 195.590674 
L 123.934459 188.837368 
L 115.065787 183.851002 
L 107.875585 179.822976 
L 100.776111 175.735055 
L 100.600326 175.600288 
" style="fill:none;stroke:#000000;stroke-width:3;"/>
   </g>
  </g>
 </g>
 <defs>
  <clipPath id="pfdbc76c9ac">
   <rect height="543.6" width="251.654231" x="7.2" y="7.2"/>
  </clipPath>
 </defs>
</svg>
