<?xml version="1.0" encoding="utf-8" standalone="no"?>
<!DOCTYPE svg PUBLIC "-//W3C//DTD SVG 1.1//EN"
  "http://www.w3.org/Graphics/SVG/1.1/DTD/svg11.dtd">
<svg height="558pt" version="1.1" viewBox="0 0 173.137895 558" width="173.137895pt" xmlns="http://www.w3.org/2000/svg" xmlns:xlink="http://www.w3.org/1999/xlink">
 <metadata>
  <rdf:RDF xmlns:cc="http://creativecommons.org/ns#" xmlns:dc="http://purl.org/dc/elements/1.1/" xmlns:rdf="http://www.w3.org/1999/02/22-rdf-syntax-ns#">
   <cc:Work>
    <dc:type rdf:resource="http://purl.org/dc/dcmitype/StillImage"/>
    <dc:date>2021-05-26T19:21:21.753493</dc:date>
    <dc:format>image/svg+xml</dc:format>
    <dc:creator>
     <cc:Agent>
      <dc:title>Matplotlib v3.4.2, https://matplotlib.org/</dc:title>
     </cc:Agent>
    </dc:creator>
   </cc:Work>
  </rdf:RDF>
 </metadata>
 <defs>
  <style type="text/css">*{stroke-linecap:butt;stroke-linejoin:round;}</style>
 </defs>
 <g id="figure_1">
  <g id="patch_1">
   <path d="M 0 558 
L 173.137895 558 
L 173.137895 0 
L 0 0 
z
" style="fill:none;"/>
  </g>
  <g id="axes_1">
   <g id="LineCollection_1">
    <path clip-path="url(#pff000ec124)" d="M 139.095369 31.909091 
L 154.667336 42.280714 
L 158.722536 55.941273 
L 149.360818 75.628999 
L 136.523214 98.666851 
L 122.121462 124.289961 
L 108.148403 154.334012 
L 108.43806 180.523125 
L 107.291018 200.822746 
L 112.412156 226.904777 
L 111.740151 249.514303 
L 125.319277 268.773702 
L 118.668749 286.05974 
L 110.338211 301.632472 
L 90.409801 336.296332 
L 77.178264 358.446936 
L 59.010969 393.875665 
L 41.735818 421.349757 
L 24.935705 452.908249 
L 14.415359 472.595976 
L 32.907069 489.652553 
L 54.747216 503.90971 
L 76.819089 518.794059 
L 65.846877 526.090909 
L 59.393316 514.480199 
" style="fill:none;stroke:#000000;stroke-width:3;"/>
   </g>
  </g>
 </g>
 <defs>
  <clipPath id="pff000ec124">
   <rect height="543.6" width="158.737895" x="7.2" y="7.2"/>
  </clipPath>
 </defs>
</svg>
