<?xml version="1.0" encoding="utf-8" standalone="no"?>
<!DOCTYPE svg PUBLIC "-//W3C//DTD SVG 1.1//EN"
  "http://www.w3.org/Graphics/SVG/1.1/DTD/svg11.dtd">
<svg height="558pt" version="1.1" viewBox="0 0 293.198673 558" width="293.198673pt" xmlns="http://www.w3.org/2000/svg" xmlns:xlink="http://www.w3.org/1999/xlink">
 <metadata>
  <rdf:RDF xmlns:cc="http://creativecommons.org/ns#" xmlns:dc="http://purl.org/dc/elements/1.1/" xmlns:rdf="http://www.w3.org/1999/02/22-rdf-syntax-ns#">
   <cc:Work>
    <dc:type rdf:resource="http://purl.org/dc/dcmitype/StillImage"/>
    <dc:date>2021-05-26T19:21:23.522495</dc:date>
    <dc:format>image/svg+xml</dc:format>
    <dc:creator>
     <cc:Agent>
      <dc:title>Matplotlib v3.4.2, https://matplotlib.org/</dc:title>
     </cc:Agent>
    </dc:creator>
   </cc:Work>
  </rdf:RDF>
 </metadata>
 <defs>
  <style type="text/css">*{stroke-linecap:butt;stroke-linejoin:round;}</style>
 </defs>
 <g id="figure_1">
  <g id="patch_1">
   <path d="M 0 558 
L 293.198673 558 
L 293.198673 0 
L 0 0 
z
" style="fill:none;"/>
  </g>
  <g id="axes_1">
   <g id="LineCollection_1">
    <path clip-path="url(#p2eda531b62)" d="M 32.768359 526.090909 
L 19.872667 520.63823 
L 22.70648 513.494346 
L 30.861975 497.661167 
L 39.054272 482.168172 
L 48.505225 465.71294 
L 56.557671 451.405733 
L 59.288437 446.477911 
L 69.313513 426.795782 
L 78.602532 408.843736 
L 89.05452 392.728689 
L 98.483391 376.749716 
L 103.319275 366.952389 
L 102.664186 351.294162 
L 110.488455 334.537623 
L 120.36632 319.180702 
L 139.305027 320.580321 
L 150.338498 305.378913 
L 161.497099 293.92926 
L 162.667427 272.575364 
L 174.032124 262.117107 
L 176.453746 247.042054 
L 183.299062 232.336344 
L 193.500791 216.989143 
L 206.926442 204.334263 
L 224.238467 200.135409 
L 234.042726 182.202802 
L 244.119325 163.930011 
L 249.62502 142.955178 
L 249.36004 119.151951 
L 264.22836 99.372626 
L 266.097941 80.118158 
L 273.326006 64.625164 
L 261.04124 60.85397 
L 269.366027 43.028279 
L 255.211681 31.909091 
L 239.842843 32.113202 
L 241.094137 42.231274 
L 249.441006 49.55983 
L 245.061476 67.852061 
L 228.102758 83.218701 
L 213.742316 94.629476 
L 206.617299 110.326582 
L 196.577502 125.557148 
L 186.802686 136.744373 
L 173.273986 150.730834 
L 174.355988 168.420452 
L 169.328729 184.039801 
L 158.405666 195.295063 
L 153.098706 214.277383 
L 137.994848 230.557663 
L 124.171726 244.126183 
L 116.097198 256.372841 
L 104.423358 253.077907 
L 91.292129 245.584118 
L 75.820243 237.157251 
L 73.008511 226.290772 
L 80.832781 215.667282 
L 83.386893 216.474006 
" style="fill:none;stroke:#000000;stroke-width:3;"/>
   </g>
  </g>
 </g>
 <defs>
  <clipPath id="p2eda531b62">
   <rect height="543.6" width="278.798673" x="7.2" y="7.2"/>
  </clipPath>
 </defs>
</svg>
