<?xml version="1.0" encoding="utf-8" standalone="no"?>
<!DOCTYPE svg PUBLIC "-//W3C//DTD SVG 1.1//EN"
  "http://www.w3.org/Graphics/SVG/1.1/DTD/svg11.dtd">
<svg height="558pt" version="1.1" viewBox="0 0 165.501839 558" width="165.501839pt" xmlns="http://www.w3.org/2000/svg" xmlns:xlink="http://www.w3.org/1999/xlink">
 <metadata>
  <rdf:RDF xmlns:cc="http://creativecommons.org/ns#" xmlns:dc="http://purl.org/dc/elements/1.1/" xmlns:rdf="http://www.w3.org/1999/02/22-rdf-syntax-ns#">
   <cc:Work>
    <dc:type rdf:resource="http://purl.org/dc/dcmitype/StillImage"/>
    <dc:date>2021-05-26T19:21:24.687357</dc:date>
    <dc:format>image/svg+xml</dc:format>
    <dc:creator>
     <cc:Agent>
      <dc:title>Matplotlib v3.4.2, https://matplotlib.org/</dc:title>
     </cc:Agent>
    </dc:creator>
   </cc:Work>
  </rdf:RDF>
 </metadata>
 <defs>
  <style type="text/css">*{stroke-linecap:butt;stroke-linejoin:round;}</style>
 </defs>
 <g id="figure_1">
  <g id="patch_1">
   <path d="M 0 558 
L 165.501839 558 
L 165.501839 0 
L 0 0 
z
" style="fill:none;"/>
  </g>
  <g id="axes_1">
   <g id="LineCollection_1">
    <path clip-path="url(#p09988d4b68)" d="M 133.656615 31.909091 
L 151.087942 42.785107 
L 151.433573 60.871236 
L 141.709819 80.326375 
L 130.085094 100.73982 
L 112.665288 130.949285 
L 103.425418 163.410009 
L 102.307877 183.169372 
L 102.411567 212.861655 
L 108.379463 234.248618 
L 124.439787 255.148821 
L 118.667748 275.760012 
L 99.704123 311.719315 
L 84.692214 336.985136 
L 67.96367 368.791778 
L 55.129236 390.163529 
L 47.122117 402.880101 
L 30.47422 434.306463 
L 14.068265 464.561561 
L 21.937133 485.40092 
L 39.81778 496.261725 
L 68.482117 511.914061 
L 68.528201 526.090909 
L 53.689107 511.518569 
L 54.749042 513.343914 
" style="fill:none;stroke:#000000;stroke-width:3;"/>
   </g>
  </g>
 </g>
 <defs>
  <clipPath id="p09988d4b68">
   <rect height="543.6" width="151.101839" x="7.2" y="7.2"/>
  </clipPath>
 </defs>
</svg>
