<?xml version="1.0" encoding="utf-8" standalone="no"?>
<!DOCTYPE svg PUBLIC "-//W3C//DTD SVG 1.1//EN"
  "http://www.w3.org/Graphics/SVG/1.1/DTD/svg11.dtd">
<svg height="558pt" version="1.1" viewBox="0 0 418.153571 558" width="418.153571pt" xmlns="http://www.w3.org/2000/svg" xmlns:xlink="http://www.w3.org/1999/xlink">
 <metadata>
  <rdf:RDF xmlns:cc="http://creativecommons.org/ns#" xmlns:dc="http://purl.org/dc/elements/1.1/" xmlns:rdf="http://www.w3.org/1999/02/22-rdf-syntax-ns#">
   <cc:Work>
    <dc:type rdf:resource="http://purl.org/dc/dcmitype/StillImage"/>
    <dc:date>2021-05-26T19:21:25.194969</dc:date>
    <dc:format>image/svg+xml</dc:format>
    <dc:creator>
     <cc:Agent>
      <dc:title>Matplotlib v3.4.2, https://matplotlib.org/</dc:title>
     </cc:Agent>
    </dc:creator>
   </cc:Work>
  </rdf:RDF>
 </metadata>
 <defs>
  <style type="text/css">*{stroke-linecap:butt;stroke-linejoin:round;}</style>
 </defs>
 <g id="figure_1">
  <g id="patch_1">
   <path d="M 0 558 
L 418.153571 558 
L 418.153571 0 
L 0 0 
z
" style="fill:none;"/>
  </g>
  <g id="axes_1">
   <g id="LineCollection_1">
    <path clip-path="url(#pd8fb2e21ae)" d="M 25.552435 499.064296 
L 45.98503 510.532448 
L 62.582895 511.086742 
L 84.173144 514.680097 
L 106.573751 526.090909 
L 120.769484 503.823579 
L 137.873823 473.08893 
L 153.560036 443.080596 
L 168.363538 415.805506 
L 183.456453 388.81712 
L 201.240914 356.820974 
L 219.285848 322.263606 
L 238.083256 291.337821 
L 257.893612 255.00289 
L 276.705491 221.611452 
L 292.507469 191.870709 
L 312.882181 155.191734 
L 330.652171 122.794202 
L 344.09543 99.265375 
L 363.023074 64.535986 
L 376.119036 40.835137 
L 392.601136 44.810763 
L 379.056583 31.909091 
L 377.551633 36.802169 
L 359.275169 45.537079 
L 343.314013 48.499685 
L 330.970526 72.449011 
L 314.126659 98.214128 
L 292.377233 95.576453 
L 280.699397 118.990598 
L 267.545553 144.449897 
L 252.828875 170.310582 
L 236.419128 199.019191 
L 222.281278 226.256054 
L 206.204356 254.926436 
L 191.198265 282.507343 
L 178.420658 304.602651 
L 163.414567 330.195746 
L 149.56613 355.024296 
L 128.279765 392.716292 
L 108.541763 429.758425 
L 89.310234 463.895294 
L 66.981981 501.415267 
L 42.56995 507.13023 
L 26.72456 497.91748 
" style="fill:none;stroke:#000000;stroke-width:3;"/>
   </g>
  </g>
 </g>
 <defs>
  <clipPath id="pd8fb2e21ae">
   <rect height="543.6" width="403.753571" x="7.2" y="7.2"/>
  </clipPath>
 </defs>
</svg>
