<?xml version="1.0" encoding="utf-8" standalone="no"?>
<!DOCTYPE svg PUBLIC "-//W3C//DTD SVG 1.1//EN"
  "http://www.w3.org/Graphics/SVG/1.1/DTD/svg11.dtd">
<svg height="558pt" version="1.1" viewBox="0 0 346.758682 558" width="346.758682pt" xmlns="http://www.w3.org/2000/svg" xmlns:xlink="http://www.w3.org/1999/xlink">
 <metadata>
  <rdf:RDF xmlns:cc="http://creativecommons.org/ns#" xmlns:dc="http://purl.org/dc/elements/1.1/" xmlns:rdf="http://www.w3.org/1999/02/22-rdf-syntax-ns#">
   <cc:Work>
    <dc:type rdf:resource="http://purl.org/dc/dcmitype/StillImage"/>
    <dc:date>2021-05-26T19:21:25.297675</dc:date>
    <dc:format>image/svg+xml</dc:format>
    <dc:creator>
     <cc:Agent>
      <dc:title>Matplotlib v3.4.2, https://matplotlib.org/</dc:title>
     </cc:Agent>
    </dc:creator>
   </cc:Work>
  </rdf:RDF>
 </metadata>
 <defs>
  <style type="text/css">*{stroke-linecap:butt;stroke-linejoin:round;}</style>
 </defs>
 <g id="figure_1">
  <g id="patch_1">
   <path d="M 0 558 
L 346.758682 558 
L 346.758682 0 
L 0 0 
z
" style="fill:none;"/>
  </g>
  <g id="axes_1">
   <g id="LineCollection_1">
    <path clip-path="url(#p18a2488dc6)" d="M 38.271881 355.217728 
L 54.520006 362.477833 
L 58.518766 374.150156 
L 76.497999 386.343923 
L 81.549597 399.380022 
L 80.436018 424.355852 
L 70.069613 453.850862 
L 52.748404 478.947025 
L 36.550896 501.569672 
L 54.843956 526.090909 
L 75.718494 518.951138 
L 88.686623 496.702861 
L 112.922144 497.799231 
L 134.383842 475.00277 
L 149.093203 453.088752 
L 152.17073 426.281183 
L 164.177132 408.578829 
L 169.55268 389.165068 
L 184.717596 366.609274 
L 196.582271 344.427849 
L 219.663719 337.502003 
L 238.04789 321.658129 
L 250.884415 298.19315 
L 264.358716 274.113134 
L 269.197722 241.476089 
L 271.718459 213.799447 
L 288.260164 192.928318 
L 290.780901 165.478972 
L 302.696192 145.26299 
L 282.226592 141.693104 
L 294.739167 113.147389 
L 290.446827 92.022222 
L 300.205825 74.975015 
L 310.430502 56.88492 
L 322.204065 51.804184 
L 315.441606 46.710078 
L 324.451469 31.909091 
L 320.138883 33.540275 
L 313.356177 44.651042 
L 305.115695 59.385177 
L 294.48608 79.012864 
L 283.775479 99.964215 
L 263.984149 97.53081 
L 252.180215 107.291172 
L 268.195501 121.610826 
L 265.836739 146.452952 
L 244.182696 165.78649 
L 225.008896 176.669962 
L 213.84274 196.150574 
L 200.823993 212.903633 
L 196.005235 231.983135 
L 181.508465 244.417568 
L 164.328984 260.582331 
L 164.663057 287.363159 
L 158.163807 307.966882 
L 142.29025 327.68816 
L 130.709032 354.214951 
L 109.014495 377.733412 
L 90.873287 399.473615 
L 79.35281 409.514754 
L 61.211601 400.42291 
L 45.186192 393.577287 
L 22.307213 378.294967 
L 26.994367 363.50735 
L 38.7983 352.770953 
L 38.50472 352.543657 
" style="fill:none;stroke:#000000;stroke-width:3;"/>
   </g>
  </g>
 </g>
 <defs>
  <clipPath id="p18a2488dc6">
   <rect height="543.6" width="332.358682" x="7.2" y="7.2"/>
  </clipPath>
 </defs>
</svg>
