<?xml version="1.0" encoding="utf-8" standalone="no"?>
<!DOCTYPE svg PUBLIC "-//W3C//DTD SVG 1.1//EN"
  "http://www.w3.org/Graphics/SVG/1.1/DTD/svg11.dtd">
<svg height="243.415072pt" version="1.1" viewBox="0 0 572.4 243.415072" width="572.4pt" xmlns="http://www.w3.org/2000/svg" xmlns:xlink="http://www.w3.org/1999/xlink">
 <metadata>
  <rdf:RDF xmlns:cc="http://creativecommons.org/ns#" xmlns:dc="http://purl.org/dc/elements/1.1/" xmlns:rdf="http://www.w3.org/1999/02/22-rdf-syntax-ns#">
   <cc:Work>
    <dc:type rdf:resource="http://purl.org/dc/dcmitype/StillImage"/>
    <dc:date>2021-05-26T19:20:26.949497</dc:date>
    <dc:format>image/svg+xml</dc:format>
    <dc:creator>
     <cc:Agent>
      <dc:title>Matplotlib v3.4.2, https://matplotlib.org/</dc:title>
     </cc:Agent>
    </dc:creator>
   </cc:Work>
  </rdf:RDF>
 </metadata>
 <defs>
  <style type="text/css">*{stroke-linecap:butt;stroke-linejoin:round;}</style>
 </defs>
 <g id="figure_1">
  <g id="patch_1">
   <path d="M 0 243.415072 
L 572.4 243.415072 
L 572.4 0 
L 0 0 
z
" style="fill:none;"/>
  </g>
  <g id="axes_1">
   <g id="LineCollection_1">
    <path clip-path="url(#p332d068d06)" d="M 32.563636 171.346436 
L 49.575908 180.283446 
L 64.826554 161.338323 
L 87.123703 162.442897 
L 107.432732 155.413788 
L 121.173413 141.790705 
L 137.70753 126.360137 
L 155.37412 116.987991 
L 154.21648 97.942453 
L 153.662826 76.018326 
L 175.582484 70.294623 
L 197.804135 66.411877 
L 210.613671 45.659269 
L 232.130672 38.764047 
L 252.31387 30.161757 
L 272.220241 21.023915 
L 294.920048 23.032232 
L 315.027748 26.011235 
L 335.638769 27.718304 
L 354.060342 39.031823 
L 369.965306 53.357817 
L 389.796179 54.529335 
L 407.815094 44.420807 
L 425.330688 31.433691 
L 444.834402 25.776931 
L 464.489112 17.609776 
L 484.118657 18.346159 
L 500.954766 29.090654 
L 518.847851 39.533902 
L 532.890525 54.629751 
L 539.836364 74.244313 
L 530.122256 91.482366 
L 525.818856 114.109404 
L 524.409555 133.62355 
L 520.408148 157.589465 
L 508.806584 173.890304 
L 509.712563 196.483869 
L 500.9296 217.370365 
L 482.382197 225.805296 
L 462.148667 223.562675 
L 440.782662 221.420471 
L 425.38102 212.65082 
L 422.562419 190.258087 
L 418.686842 169.472007 
L 398.327481 161.739986 
L 379.352255 157.555993 
L 361.132011 150.962019 
L 344.069407 139.414197 
L 322.174915 146.51025 
L 308.33357 126.627912 
L 296.077687 108.285285 
L 278.486596 99.816882 
L 257.674245 91.616254 
L 245.896519 69.39088 
L 244.336222 48.537856 
L 232.583661 39.969038 
L 212.727622 44.286919 
L 199.741923 64.370088 
L 181.949503 71.466141 
L 163.276269 67.750755 
L 152.505186 86.695878 
L 156.733088 107.314598 
L 145.056026 122.109199 
L 126.433125 135.062843 
L 112.767942 152.936864 
L 94.044376 161.137491 
L 74.263835 157.890712 
L 56.169422 170.743941 
L 42.856564 187.111724 
L 34.224598 179.881783 
" style="fill:none;stroke:#000000;stroke-width:3;"/>
   </g>
  </g>
 </g>
 <defs>
  <clipPath id="p332d068d06">
   <rect height="229.015072" width="558" x="7.2" y="7.2"/>
  </clipPath>
 </defs>
</svg>
