<?xml version="1.0" encoding="utf-8" standalone="no"?>
<!DOCTYPE svg PUBLIC "-//W3C//DTD SVG 1.1//EN"
  "http://www.w3.org/Graphics/SVG/1.1/DTD/svg11.dtd">
<svg height="558pt" version="1.1" viewBox="0 0 232.048868 558" width="232.048868pt" xmlns="http://www.w3.org/2000/svg" xmlns:xlink="http://www.w3.org/1999/xlink">
 <metadata>
  <rdf:RDF xmlns:cc="http://creativecommons.org/ns#" xmlns:dc="http://purl.org/dc/elements/1.1/" xmlns:rdf="http://www.w3.org/1999/02/22-rdf-syntax-ns#">
   <cc:Work>
    <dc:type rdf:resource="http://purl.org/dc/dcmitype/StillImage"/>
    <dc:date>2021-05-26T19:21:27.315601</dc:date>
    <dc:format>image/svg+xml</dc:format>
    <dc:creator>
     <cc:Agent>
      <dc:title>Matplotlib v3.4.2, https://matplotlib.org/</dc:title>
     </cc:Agent>
    </dc:creator>
   </cc:Work>
  </rdf:RDF>
 </metadata>
 <defs>
  <style type="text/css">*{stroke-linecap:butt;stroke-linejoin:round;}</style>
 </defs>
 <g id="figure_1">
  <g id="patch_1">
   <path d="M 0 558 
L 232.048868 558 
L 232.048868 0 
L 0 0 
z
" style="fill:none;"/>
  </g>
  <g id="axes_1">
   <g id="LineCollection_1">
    <path clip-path="url(#pf6ce569ab8)" d="M 18.998903 149.923139 
L 27.200962 129.049906 
L 50.673324 120.989627 
L 65.774762 97.836394 
L 71.902182 69.641474 
L 91.056402 48.960917 
L 112.28526 33.611062 
L 140.992466 31.909091 
L 165.984622 35.955287 
L 190.0842 54.484295 
L 207.47739 75.646542 
L 208.345843 104.16259 
L 211.095945 124.457795 
L 185.042346 135.536664 
L 161.401118 140.803142 
L 137.663395 153.038067 
L 120.439071 172.33778 
L 117.664846 197.160871 
L 117.640722 225.259453 
L 112.09227 250.082544 
L 103.769593 272.689861 
L 98.076399 296.678023 
L 84.953105 321.308438 
L 65.364659 337.23632 
L 46.113944 348.218852 
L 34.848175 376.831237 
L 32.604671 400.723061 
L 41.26508 424.133194 
L 40.396627 448.763609 
L 40.107142 467.292618 
L 53.085694 490.188948 
L 68.766101 509.809787 
L 95.977637 518.99401 
L 115.204228 526.090909 
L 134.020716 517.292039 
L 156.455759 511.254857 
L 178.360081 505.314014 
L 200.336774 500.786128 
L 214.955737 485.661063 
L 213.846047 463.663886 
L 210.73409 441.66671 
L 207.405019 419.444745 
L 200.795124 398.860526 
L 187.237603 378.950673 
L 186.731006 356.15068 
L 187.720077 332.130406 
L 188.805644 307.628442 
L 188.250799 283.800844 
L 181.399667 260.39071 
L 161.594108 243.660011 
L 138.169993 244.944518 
L 115.131857 248.284235 
L 116.241547 225.869594 
L 119.425876 205.799178 
L 115.734949 183.577213 
L 125.625667 164.75919 
L 141.161332 149.666237 
L 160.194933 139.422297 
L 183.040079 133.931031 
L 203.400484 131.39413 
L 208.562956 108.562025 
L 208.297596 82.936117 
L 195.729147 61.29218 
L 179.011421 43.533876 
L 155.514935 34.702893 
L 132.862778 33.611062 
L 110.186498 35.602048 
L 87.896197 50.373874 
L 75.01414 68.806544 
L 67.294555 91.606537 
L 58.417033 114.502868 
L 38.563225 131.618919 
L 17.09313 131.522581 
" style="fill:none;stroke:#000000;stroke-width:3;"/>
   </g>
  </g>
 </g>
 <defs>
  <clipPath id="pf6ce569ab8">
   <rect height="543.6" width="217.648868" x="7.2" y="7.2"/>
  </clipPath>
 </defs>
</svg>
