<?xml version="1.0" encoding="utf-8" standalone="no"?>
<!DOCTYPE svg PUBLIC "-//W3C//DTD SVG 1.1//EN"
  "http://www.w3.org/Graphics/SVG/1.1/DTD/svg11.dtd">
<svg height="202.634191pt" version="1.1" viewBox="0 0 572.4 202.634191" width="572.4pt" xmlns="http://www.w3.org/2000/svg" xmlns:xlink="http://www.w3.org/1999/xlink">
 <metadata>
  <rdf:RDF xmlns:cc="http://creativecommons.org/ns#" xmlns:dc="http://purl.org/dc/elements/1.1/" xmlns:rdf="http://www.w3.org/1999/02/22-rdf-syntax-ns#">
   <cc:Work>
    <dc:type rdf:resource="http://purl.org/dc/dcmitype/StillImage"/>
    <dc:date>2021-05-26T19:21:27.512259</dc:date>
    <dc:format>image/svg+xml</dc:format>
    <dc:creator>
     <cc:Agent>
      <dc:title>Matplotlib v3.4.2, https://matplotlib.org/</dc:title>
     </cc:Agent>
    </dc:creator>
   </cc:Work>
  </rdf:RDF>
 </metadata>
 <defs>
  <style type="text/css">*{stroke-linecap:butt;stroke-linejoin:round;}</style>
 </defs>
 <g id="figure_1">
  <g id="patch_1">
   <path d="M 0 202.634191 
L 572.4 202.634191 
L 572.4 -0 
L 0 -0 
z
" style="fill:none;"/>
  </g>
  <g id="axes_1">
   <g id="LineCollection_1">
    <path clip-path="url(#p31ed6efc0d)" d="M 32.563636 186.878091 
L 36.464317 165.411175 
L 69.942597 153.635038 
L 89.660996 126.852504 
L 96.970933 94.059233 
L 117.610753 66.213576 
L 146.512644 49.367157 
L 181.618767 37.304795 
L 216.387036 42.08885 
L 246.333204 61.347741 
L 267.894445 89.847628 
L 274.313675 122.272895 
L 284.050019 151.140786 
L 318.019723 137.974411 
L 323.179678 109.147409 
L 345.877338 92.178322 
L 348.795169 119.819533 
L 353.955125 96.062812 
L 382.273449 82.978215 
L 391.057659 105.140251 
L 395.971902 94.181901 
L 421.034541 89.76585 
L 438.357247 107.879838 
L 478.009045 101.95088 
L 504.054532 92.260101 
L 529.854308 104.894915 
L 539.836364 138.424194 
L 538.914943 128.36541 
L 528.502891 98.311727 
L 523.035796 68.135376 
L 526.230054 42.415965 
L 500.430278 24.342866 
L 473.094802 30.844275 
L 490.878218 22.380177 
L 516.95442 15.7561 
L 533.570704 49.735162 
L 529.63931 79.870623 
L 511.917321 95.735697 
L 488.881807 81.506198 
L 493.273912 74.187002 
L 480.681164 93.732118 
L 458.352073 108.4114 
L 441.674361 91.605871 
L 441.981501 61.961082 
L 415.506017 42.702191 
L 398.920447 54.600996 
L 391.733367 78.071491 
L 360.005786 93.364114 
L 334.451723 102.686889 
L 327.725353 126.566278 
L 305.304119 142.676688 
L 277.907215 144.925603 
L 267.925159 113.767907 
L 258.895238 85.308909 
L 239.176838 55.541451 
L 211.073511 46.382234 
L 182.970184 43.029306 
L 155.41971 41.966182 
L 130.971351 57.504141 
L 106.553707 82.446653 
L 95.588802 108.861183 
L 81.798208 140.427773 
L 57.96413 160.749787 
L 42.699262 164.143604 
" style="fill:none;stroke:#000000;stroke-width:3;"/>
   </g>
  </g>
 </g>
 <defs>
  <clipPath id="p31ed6efc0d">
   <rect height="188.234191" width="558" x="7.2" y="7.2"/>
  </clipPath>
 </defs>
</svg>
