<?xml version="1.0" encoding="utf-8" standalone="no"?>
<!DOCTYPE svg PUBLIC "-//W3C//DTD SVG 1.1//EN"
  "http://www.w3.org/Graphics/SVG/1.1/DTD/svg11.dtd">
<svg height="248.283497pt" version="1.1" viewBox="0 0 572.4 248.283497" width="572.4pt" xmlns="http://www.w3.org/2000/svg" xmlns:xlink="http://www.w3.org/1999/xlink">
 <metadata>
  <rdf:RDF xmlns:cc="http://creativecommons.org/ns#" xmlns:dc="http://purl.org/dc/elements/1.1/" xmlns:rdf="http://www.w3.org/1999/02/22-rdf-syntax-ns#">
   <cc:Work>
    <dc:type rdf:resource="http://purl.org/dc/dcmitype/StillImage"/>
    <dc:date>2021-05-26T19:20:27.158964</dc:date>
    <dc:format>image/svg+xml</dc:format>
    <dc:creator>
     <cc:Agent>
      <dc:title>Matplotlib v3.4.2, https://matplotlib.org/</dc:title>
     </cc:Agent>
    </dc:creator>
   </cc:Work>
  </rdf:RDF>
 </metadata>
 <defs>
  <style type="text/css">*{stroke-linecap:butt;stroke-linejoin:round;}</style>
 </defs>
 <g id="figure_1">
  <g id="patch_1">
   <path d="M 0 248.283497 
L 572.4 248.283497 
L 572.4 -0 
L 0 -0 
z
" style="fill:none;"/>
  </g>
  <g id="axes_1">
   <g id="LineCollection_1">
    <path clip-path="url(#p0a7968bb75)" d="M 40.893652 147.827896 
L 48.239212 186.840373 
L 62.728391 168.1399 
L 83.553431 164.211793 
L 103.015377 160.250113 
L 119.170559 146.317085 
L 135.855834 134.566339 
L 152.793533 119.760399 
L 153.57605 95.688156 
L 163.849736 71.985222 
L 189.041723 72.25381 
L 204.363904 55.869912 
L 222.689939 41.936885 
L 246.544076 34.517128 
L 274.083613 22.397072 
L 296.069807 24.478633 
L 318.914244 25.989443 
L 341.102378 29.313226 
L 359.150746 44.018446 
L 379.521421 56.205648 
L 402.79498 51.303908 
L 422.787019 35.39004 
L 441.264509 25.855149 
L 459.590544 21.557733 
L 479.203945 17.831068 
L 498.716376 24.948663 
L 516.815229 38.613102 
L 532.945169 53.049733 
L 539.836364 71.850927 
L 538.018906 88.671281 
L 526.760763 104.081546 
L 523.857879 126.240096 
L 523.453999 148.43222 
L 517.95114 166.763384 
L 509.797821 185.027401 
L 509.671609 204.231478 
L 500.761016 222.764083 
L 480.516553 230.452429 
L 460.044908 225.785704 
L 438.639291 223.368408 
L 425.336508 214.303546 
L 424.402537 193.320071 
L 421.095773 175.156774 
L 403.325072 165.68903 
L 378.940844 158.537862 
L 355.465345 149.94303 
L 335.119912 144.034083 
L 316.667664 142.422552 
L 305.030884 123.285623 
L 294.075651 108.278241 
L 277.491347 98.541908 
L 253.586726 88.671281 
L 247.276107 67.083482 
L 246.468348 45.227094 
L 225.113217 40.358927 
L 208.60464 54.594117 
L 198.507651 71.045162 
L 176.269032 70.037955 
L 158.927454 74.402518 
L 153.702262 94.143772 
L 156.756601 119.088928 
L 134.99759 127.180156 
L 120.331713 145.343452 
L 103.166832 160.250113 
L 81.635003 160.585849 
L 58.134261 168.878518 
L 45.15963 187.612565 
L 32.563636 181.166442 
" style="fill:none;stroke:#000000;stroke-width:3;"/>
   </g>
  </g>
 </g>
 <defs>
  <clipPath id="p0a7968bb75">
   <rect height="233.883497" width="558" x="7.2" y="7.2"/>
  </clipPath>
 </defs>
</svg>
