<?xml version="1.0" encoding="utf-8" standalone="no"?>
<!DOCTYPE svg PUBLIC "-//W3C//DTD SVG 1.1//EN"
  "http://www.w3.org/Graphics/SVG/1.1/DTD/svg11.dtd">
<svg height="558pt" version="1.1" viewBox="0 0 434.087194 558" width="434.087194pt" xmlns="http://www.w3.org/2000/svg" xmlns:xlink="http://www.w3.org/1999/xlink">
 <metadata>
  <rdf:RDF xmlns:cc="http://creativecommons.org/ns#" xmlns:dc="http://purl.org/dc/elements/1.1/" xmlns:rdf="http://www.w3.org/1999/02/22-rdf-syntax-ns#">
   <cc:Work>
    <dc:type rdf:resource="http://purl.org/dc/dcmitype/StillImage"/>
    <dc:date>2021-05-26T19:21:31.239859</dc:date>
    <dc:format>image/svg+xml</dc:format>
    <dc:creator>
     <cc:Agent>
      <dc:title>Matplotlib v3.4.2, https://matplotlib.org/</dc:title>
     </cc:Agent>
    </dc:creator>
   </cc:Work>
  </rdf:RDF>
 </metadata>
 <defs>
  <style type="text/css">*{stroke-linecap:butt;stroke-linejoin:round;}</style>
 </defs>
 <g id="figure_1">
  <g id="patch_1">
   <path d="M 0 558 
L 434.087194 558 
L 434.087194 0 
L 0 0 
z
" style="fill:none;"/>
  </g>
  <g id="axes_1">
   <g id="LineCollection_1">
    <path clip-path="url(#pd033d79dff)" d="M 135.340162 197.426495 
L 141.81206 173.58579 
L 174.445494 165.654083 
L 197.11426 136.160896 
L 206.770743 104.935497 
L 220.570611 76.490755 
L 244.163933 52.376542 
L 276.59191 40.433397 
L 319.737899 40.342228 
L 357.918674 46.587307 
L 391.236965 79.636087 
L 406.851704 107.807322 
L 407.810504 144.457279 
L 396.887035 171.397733 
L 363.774201 177.82515 
L 329.394382 185.164259 
L 300.185232 203.580406 
L 281.968037 234.167621 
L 276.044024 275.239277 
L 275.804324 307.877796 
L 268.716055 338.920856 
L 257.313187 373.109249 
L 246.732146 410.123882 
L 226.426138 443.993182 
L 195.333632 468.15298 
L 170.713024 490.215889 
L 155.543442 524.541035 
L 126.77945 521.25895 
L 93.35843 515.241793 
L 63.224724 502.159034 
L 52.130041 467.469212 
L 52.472469 435.742384 
L 62.231681 408.665177 
L 69.833593 382.317322 
L 60.41681 352.413875 
L 26.276691 330.89798 
L 40.555958 318.40782 
L 57.882839 342.476449 
L 71.340279 369.416902 
L 65.929909 398.910089 
L 51.75337 432.916143 
L 54.492797 474.124552 
L 78.257334 512.780228 
L 113.698682 521.213365 
L 150.338529 526.090909 
L 169.925438 496.825645 
L 191.429947 474.899489 
L 217.728454 456.209835 
L 236.767478 434.466017 
L 252.279488 405.565429 
L 257.826829 370.055085 
L 267.346341 341.108913 
L 276.557667 313.803784 
L 279.125881 278.247855 
L 273.886725 248.16207 
L 286.522336 221.723046 
L 307.239259 198.611693 
L 333.298066 185.07309 
L 364.972701 180.013207 
L 395.346107 171.899162 
L 405.379262 141.357532 
L 404.420462 108.719013 
L 390.860294 80.000763 
L 369.663971 53.014725 
L 342.749092 36.011698 
L 309.602015 31.909091 
L 281.52288 33.458965 
L 248.136103 43.852236 
L 217.625726 71.886718 
L 206.2571 105.345758 
L 194.306346 143.545589 
L 170.404838 167.614217 
L 128.423106 171.16981 
L 89.831417 168.844999 
L 74.182435 195.420776 
L 101.542471 217.52927 
L 117.979038 214.657445 
" style="fill:none;stroke:#000000;stroke-width:3;"/>
   </g>
  </g>
 </g>
 <defs>
  <clipPath id="pd033d79dff">
   <rect height="543.6" width="419.687194" x="7.2" y="7.2"/>
  </clipPath>
 </defs>
</svg>
