<?xml version="1.0" encoding="utf-8" standalone="no"?>
<!DOCTYPE svg PUBLIC "-//W3C//DTD SVG 1.1//EN"
  "http://www.w3.org/Graphics/SVG/1.1/DTD/svg11.dtd">
<svg height="558pt" version="1.1" viewBox="0 0 235.711337 558" width="235.711337pt" xmlns="http://www.w3.org/2000/svg" xmlns:xlink="http://www.w3.org/1999/xlink">
 <metadata>
  <rdf:RDF xmlns:cc="http://creativecommons.org/ns#" xmlns:dc="http://purl.org/dc/elements/1.1/" xmlns:rdf="http://www.w3.org/1999/02/22-rdf-syntax-ns#">
   <cc:Work>
    <dc:type rdf:resource="http://purl.org/dc/dcmitype/StillImage"/>
    <dc:date>2021-05-26T19:21:32.388282</dc:date>
    <dc:format>image/svg+xml</dc:format>
    <dc:creator>
     <cc:Agent>
      <dc:title>Matplotlib v3.4.2, https://matplotlib.org/</dc:title>
     </cc:Agent>
    </dc:creator>
   </cc:Work>
  </rdf:RDF>
 </metadata>
 <defs>
  <style type="text/css">*{stroke-linecap:butt;stroke-linejoin:round;}</style>
 </defs>
 <g id="figure_1">
  <g id="patch_1">
   <path d="M -0 558 
L 235.711337 558 
L 235.711337 0 
L -0 0 
z
" style="fill:none;"/>
  </g>
  <g id="axes_1">
   <g id="LineCollection_1">
    <path clip-path="url(#pa92beaf1af)" d="M 22.955324 132.377994 
L 29.717473 127.409397 
L 53.397115 120.021028 
L 65.564136 100.275695 
L 74.919655 74.561592 
L 87.30481 57.623193 
L 108.24566 34.619235 
L 133.985455 31.909091 
L 158.028653 32.780209 
L 183.598788 42.104394 
L 201.946269 63.850072 
L 212.610591 84.563313 
L 213.095333 108.922344 
L 208.732656 126.699597 
L 182.677779 134.797765 
L 157.883231 139.21788 
L 136.53035 149.606765 
L 123.805875 171.481497 
L 118.740322 199.099153 
L 120.703527 226.910391 
L 115.274418 247.817214 
L 144.04385 242.525981 
L 165.517916 242.106554 
L 185.949787 259.206271 
L 192.542276 285.726964 
L 192.299905 312.505766 
L 191.281947 335.348407 
L 190.67602 358.610474 
L 190.409412 380.291625 
L 205.242514 397.778505 
L 212.634828 423.944298 
L 216.464289 452.917026 
L 218.451731 481.534854 
L 210.259593 502.893369 
L 187.331301 504.442022 
L 163.700133 511.701336 
L 140.359811 513.604889 
L 116.486273 526.090909 
L 100.441316 520.251194 
L 75.283211 511.604545 
L 59.844182 495.440473 
L 48.137665 478.179438 
L 43.217535 462.596111 
L 44.792946 439.495362 
L 40.527217 414.458795 
L 42.58737 389.873919 
L 43.581091 360.933455 
L 59.868419 345.285601 
L 77.004045 330.702446 
L 94.915258 309.214877 
L 103.616375 288.469372 
L 108.269898 266.465585 
L 116.098479 247.075151 
L 121.091321 229.588271 
L 121.697248 204.229068 
L 118.279818 186.548606 
L 126.52043 169.481153 
L 139.075245 153.865562 
L 159.507116 138.701662 
L 187.282827 132.184412 
L 210.720098 126.667333 
L 212.101612 107.051054 
L 211.810767 83.627669 
L 197.607829 60.62371 
L 181.465924 39.361986 
L 159.192034 33.006054 
L 137.402886 33.296426 
L 120.461156 36.780897 
L 93.703403 47.976372 
L 78.409797 67.947551 
L 70.144947 92.403372 
L 61.468067 116.181658 
L 42.223814 130.345386 
L 17.380792 132.732893 
L 17.259606 138.701662 
" style="fill:none;stroke:#000000;stroke-width:3;"/>
   </g>
  </g>
 </g>
 <defs>
  <clipPath id="pa92beaf1af">
   <rect height="543.6" width="221.311337" x="7.2" y="7.2"/>
  </clipPath>
 </defs>
</svg>
