<?xml version="1.0" encoding="utf-8" standalone="no"?>
<!DOCTYPE svg PUBLIC "-//W3C//DTD SVG 1.1//EN"
  "http://www.w3.org/Graphics/SVG/1.1/DTD/svg11.dtd">
<svg height="558pt" version="1.1" viewBox="0 0 276.74944 558" width="276.74944pt" xmlns="http://www.w3.org/2000/svg" xmlns:xlink="http://www.w3.org/1999/xlink">
 <metadata>
  <rdf:RDF xmlns:cc="http://creativecommons.org/ns#" xmlns:dc="http://purl.org/dc/elements/1.1/" xmlns:rdf="http://www.w3.org/1999/02/22-rdf-syntax-ns#">
   <cc:Work>
    <dc:type rdf:resource="http://purl.org/dc/dcmitype/StillImage"/>
    <dc:date>2021-05-26T19:21:33.498169</dc:date>
    <dc:format>image/svg+xml</dc:format>
    <dc:creator>
     <cc:Agent>
      <dc:title>Matplotlib v3.4.2, https://matplotlib.org/</dc:title>
     </cc:Agent>
    </dc:creator>
   </cc:Work>
  </rdf:RDF>
 </metadata>
 <defs>
  <style type="text/css">*{stroke-linecap:butt;stroke-linejoin:round;}</style>
 </defs>
 <g id="figure_1">
  <g id="patch_1">
   <path d="M 0 558 
L 276.74944 558 
L 276.74944 0 
L 0 0 
z
" style="fill:none;"/>
  </g>
  <g id="axes_1">
   <g id="LineCollection_1">
    <path clip-path="url(#pc06bfdb2da)" d="M 60.595822 145.458129 
L 70.030861 127.515843 
L 94.436803 121.78072 
L 107.048947 98.455748 
L 111.91088 71.894757 
L 124.474886 50.267894 
L 143.874481 35.753866 
L 168.641458 31.909091 
L 189.725882 33.414961 
L 218.199482 37.195657 
L 236.058663 57.25257 
L 250.620393 76.444408 
L 253.917843 99.993658 
L 252.449636 127.131366 
L 223.350243 133.475245 
L 202.193612 137.992856 
L 179.737257 151.417531 
L 164.573801 170.833648 
L 159.567454 194.831455 
L 160.746834 216.938915 
L 158.989799 234.817121 
L 149.338139 263.620898 
L 144.163309 286.273034 
L 133.765511 311.328154 
L 115.256468 331.865664 
L 94.484941 347.308846 
L 81.34328 367.301679 
L 77.059002 391.075207 
L 82.161625 416.835204 
L 84.351902 441.698086 
L 81.34328 465.759973 
L 93.305561 485.656686 
L 109.046672 505.072803 
L 133.572959 514.812901 
L 150.300898 526.090909 
L 174.273599 512.730314 
L 198.992438 508.244743 
L 221.737621 503.791211 
L 243.375631 498.088127 
L 256.421017 481.87599 
L 257.624466 457.141267 
L 254.375154 433.944455 
L 250.620393 410.587443 
L 240.800251 387.775108 
L 227.321624 365.988047 
L 233.411075 342.823274 
L 231.41335 316.166164 
L 233.074109 290.758605 
L 230.306177 267.91423 
L 216.298033 248.049557 
L 193.047401 239.65513 
L 168.184148 247.280602 
L 162.792697 238.14926 
L 161.180076 224.628466 
L 160.939386 191.627475 
L 167.052906 172.01912 
L 179.929809 157.152655 
L 199.257197 144.496935 
L 229.584108 136.454946 
L 246.961909 131.328579 
L 251.775704 106.433657 
L 249.585427 76.604607 
L 235.288455 57.989485 
L 218.367965 38.252971 
L 196.080092 32.806205 
L 174.153254 33.414961 
L 149.939863 37.612175 
L 126.857715 56.387495 
L 116.122951 77.886199 
L 108.228327 103.838434 
L 90.657974 125.401217 
L 69.260653 130.623703 
L 43.169882 130.463504 
L 19.124975 135.653951 
L 30.172635 157.665291 
L 48.705747 159.075042 
" style="fill:none;stroke:#000000;stroke-width:3;"/>
   </g>
  </g>
 </g>
 <defs>
  <clipPath id="pc06bfdb2da">
   <rect height="543.6" width="262.34944" x="7.2" y="7.2"/>
  </clipPath>
 </defs>
</svg>
