<?xml version="1.0" encoding="utf-8" standalone="no"?>
<!DOCTYPE svg PUBLIC "-//W3C//DTD SVG 1.1//EN"
  "http://www.w3.org/Graphics/SVG/1.1/DTD/svg11.dtd">
<svg height="452.156588pt" version="1.1" viewBox="0 0 572.4 452.156588" width="572.4pt" xmlns="http://www.w3.org/2000/svg" xmlns:xlink="http://www.w3.org/1999/xlink">
 <metadata>
  <rdf:RDF xmlns:cc="http://creativecommons.org/ns#" xmlns:dc="http://purl.org/dc/elements/1.1/" xmlns:rdf="http://www.w3.org/1999/02/22-rdf-syntax-ns#">
   <cc:Work>
    <dc:type rdf:resource="http://purl.org/dc/dcmitype/StillImage"/>
    <dc:date>2021-05-26T19:21:36.522861</dc:date>
    <dc:format>image/svg+xml</dc:format>
    <dc:creator>
     <cc:Agent>
      <dc:title>Matplotlib v3.4.2, https://matplotlib.org/</dc:title>
     </cc:Agent>
    </dc:creator>
   </cc:Work>
  </rdf:RDF>
 </metadata>
 <defs>
  <style type="text/css">*{stroke-linecap:butt;stroke-linejoin:round;}</style>
 </defs>
 <g id="figure_1">
  <g id="patch_1">
   <path d="M 0 452.156588 
L 572.4 452.156588 
L 572.4 0 
L 0 0 
z
" style="fill:none;"/>
  </g>
  <g id="axes_1">
   <g id="LineCollection_1">
    <path clip-path="url(#pd883c27483)" d="M 73.452627 290.398219 
L 80.918629 292.044215 
L 91.662936 296.93772 
L 93.358223 299.65139 
L 97.871506 294.357508 
L 99.982195 292.325963 
L 109.794654 277.437846 
L 118.046551 260.458869 
L 126.320902 247.320551 
L 135.426056 229.15527 
L 171.970171 163.84923 
L 182.456255 145.328058 
L 192.807614 125.724383 
L 202.294488 107.499786 
L 214.228864 86.724636 
L 226.129559 68.129319 
L 246.955775 76.314817 
L 265.222219 86.220457 
L 319.94296 116.693643 
L 331.821201 124.627051 
L 341.105988 128.85326 
L 345.31614 125.63541 
L 352.703552 114.528638 
L 360.461458 100.233674 
L 368.376543 86.101826 
L 374.933152 74.891253 
L 382.331791 61.055981 
L 395.355193 59.484128 
L 400.598235 63.146842 
L 400.306331 63.324788 
L 412.184572 69.73083 
L 430.417334 78.909858 
L 445.046207 87.718166 
L 460.112936 95.443971 
L 468.56692 101.256861 
L 487.596805 110.702807 
L 490.515843 112.956785 
L 489.965716 112.986443 
L 499.811857 117.702001 
L 513.452748 125.190546 
L 517.988484 122.284101 
L 529.035922 123.648351 
L 538.028805 126.970002 
L 538.915744 128.274936 
L 539.836364 128.48254 
L 527.172228 120.297041 
L 519.751134 125.561266 
L 514.766315 135.867283 
L 518.111982 138.877529 
L 518.583519 139.678284 
L 518.774379 139.722771 
L 488.11325 123.544549 
L 479.636812 118.680702 
L 465.344751 110.643492 
L 456.666225 116.278436 
L 454.723942 116.960561 
L 431.495133 104.222621 
L 430.85519 104.000189 
L 429.844754 103.110461 
L 415.328152 95.013936 
L 383.387136 77.441806 
L 369.2298 69.508398 
L 356.756525 65.845684 
L 347.381921 81.015547 
L 338.860574 96.541302 
L 326.15153 95.177052 
L 311.612474 87.199157 
L 303.450394 76.65588 
L 293.738978 65.623252 
L 288.754159 57.48224 
L 289.495145 45.752658 
L 289.775822 38.264114 
L 297.634771 42.060287 
L 299.779142 38.664492 
L 301.171299 34.378968 
L 301.844923 35.328011 
L 302.541001 35.891506 
L 302.473639 36.484658 
L 302.77677 37.092639 
L 304.07911 33.444754 
L 302.743088 31.798757 
L 292.548908 27.098027 
L 291.156752 27.572548 
L 285.071679 34.319653 
L 280.064406 38.634834 
L 276.011434 43.958374 
L 272.418771 51.105856 
L 268.006532 58.090221 
L 259.631138 70.546414 
L 241.353467 73.037652 
L 224.793538 82.305653 
L 222.918617 95.340169 
L 231.866592 104.044675 
L 236.492145 118.82899 
L 230.654069 137.468793 
L 213.330699 153.913933 
L 196.490093 164.827931 
L 183.410556 179.864335 
L 176.719222 195.627351 
L 162.39348 209.640568 
L 157.767927 229.674278 
L 144.957839 241.181428 
L 131.316949 250.92395 
L 120.763502 272.351568 
L 124.333711 292.459422 
L 120.774729 308.148293 
L 108.750537 322.072538 
L 99.1963 341.883816 
L 86.756706 365.135376 
L 69.792602 384.279358 
L 50.021731 401.984947 
L 40.085774 417.125153 
L 32.563636 425.058561 
L 33.416894 417.495873 
L 42.668 400.872787 
L 52.693774 380.082807 
L 71.588933 345.828277 
L 80.548136 329.397965 
L 88.620399 318.261536 
L 96.041493 302.884069 
L 87.677326 297.560529 
L 75.765404 290.843083 
L 75.765404 290.843083 
" style="fill:none;stroke:#000000;stroke-width:3;"/>
   </g>
  </g>
 </g>
 <defs>
  <clipPath id="pd883c27483">
   <rect height="437.756588" width="558" x="7.2" y="7.2"/>
  </clipPath>
 </defs>
</svg>
