<?xml version="1.0" encoding="utf-8" standalone="no"?>
<!DOCTYPE svg PUBLIC "-//W3C//DTD SVG 1.1//EN"
  "http://www.w3.org/Graphics/SVG/1.1/DTD/svg11.dtd">
<svg height="558pt" version="1.1" viewBox="0 0 306.348627 558" width="306.348627pt" xmlns="http://www.w3.org/2000/svg" xmlns:xlink="http://www.w3.org/1999/xlink">
 <metadata>
  <rdf:RDF xmlns:cc="http://creativecommons.org/ns#" xmlns:dc="http://purl.org/dc/elements/1.1/" xmlns:rdf="http://www.w3.org/1999/02/22-rdf-syntax-ns#">
   <cc:Work>
    <dc:type rdf:resource="http://purl.org/dc/dcmitype/StillImage"/>
    <dc:date>2021-05-26T19:21:36.798063</dc:date>
    <dc:format>image/svg+xml</dc:format>
    <dc:creator>
     <cc:Agent>
      <dc:title>Matplotlib v3.4.2, https://matplotlib.org/</dc:title>
     </cc:Agent>
    </dc:creator>
   </cc:Work>
  </rdf:RDF>
 </metadata>
 <defs>
  <style type="text/css">*{stroke-linecap:butt;stroke-linejoin:round;}</style>
 </defs>
 <g id="figure_1">
  <g id="patch_1">
   <path d="M 0 558 
L 306.348627 558 
L 306.348627 0 
L 0 0 
z
" style="fill:none;"/>
  </g>
  <g id="axes_1">
   <g id="LineCollection_1">
    <path clip-path="url(#p5291ea377b)" d="M 42.914362 505.130006 
L 57.160487 515.51303 
L 77.454893 526.090909 
L 79.161899 525.478506 
L 89.509307 517.489423 
L 94.819993 507.969332 
L 112.353685 478.935837 
L 129.381598 447.564074 
L 144.82895 419.532694 
L 161.056045 389.079536 
L 180.27567 353.949842 
L 194.606092 329.787739 
L 213.699271 294.518862 
L 238.01884 251.233067 
L 257.744244 216.68794 
L 272.60152 187.181224 
L 285.878234 156.338355 
L 262.991708 138.411633 
L 256.226906 140.137498 
L 246.174536 157.758018 
L 233.361453 168.39157 
L 215.21661 158.286912 
L 211.128225 149.267878 
L 214.310422 142.253074 
L 223.941308 125.495486 
L 226.849541 124.883083 
L 229.251994 120.039527 
L 230.326776 115.307318 
L 230.621814 115.808376 
L 230.70611 115.195972 
L 230.242479 114.500059 
L 229.188772 114.527895 
L 233.888307 116.420779 
L 207.166285 106.510976 
L 182.130195 94.15156 
L 172.857569 80.901374 
L 184.659093 61.805518 
L 197.935807 37.532069 
L 195.975911 35.834041 
L 197.261435 31.909091 
L 208.072473 42.542643 
L 246.95428 62.445758 
L 242.254744 84.492286 
L 229.525958 111.60506 
L 214.373644 137.326009 
L 199.389924 164.104745 
L 185.35454 194.112519 
L 171.024118 220.6964 
L 158.484999 240.822207 
L 141.899643 269.716519 
L 124.070912 298.750014 
L 109.698342 325.278222 
L 94.419584 350.191911 
L 81.943687 379.726464 
L 75.790035 399.267704 
L 62.66084 420.367789 
L 47.677119 445.170133 
L 34.063219 469.248726 
L 20.470392 489.819918 
L 36.887155 498.477077 
L 41.3338 500.202941 
L 42.513953 504.545439 
L 37.329712 513.620146 
L 40.322241 505.909429 
L 40.343315 511.031349 
L 37.772269 513.035579 
L 38.278049 516.014087 
L 38.278049 516.014087 
L 38.320197 516.654327 
L 38.320197 516.654327 
L 38.720606 516.570818 
L 38.720606 516.570818 
" style="fill:none;stroke:#000000;stroke-width:3;"/>
   </g>
  </g>
 </g>
 <defs>
  <clipPath id="p5291ea377b">
   <rect height="543.6" width="291.948627" x="7.2" y="7.2"/>
  </clipPath>
 </defs>
</svg>
