<?xml version="1.0" encoding="utf-8" standalone="no"?>
<!DOCTYPE svg PUBLIC "-//W3C//DTD SVG 1.1//EN"
  "http://www.w3.org/Graphics/SVG/1.1/DTD/svg11.dtd">
<svg height="242.210467pt" version="1.1" viewBox="0 0 572.4 242.210467" width="572.4pt" xmlns="http://www.w3.org/2000/svg" xmlns:xlink="http://www.w3.org/1999/xlink">
 <metadata>
  <rdf:RDF xmlns:cc="http://creativecommons.org/ns#" xmlns:dc="http://purl.org/dc/elements/1.1/" xmlns:rdf="http://www.w3.org/1999/02/22-rdf-syntax-ns#">
   <cc:Work>
    <dc:type rdf:resource="http://purl.org/dc/dcmitype/StillImage"/>
    <dc:date>2021-05-26T19:20:27.854469</dc:date>
    <dc:format>image/svg+xml</dc:format>
    <dc:creator>
     <cc:Agent>
      <dc:title>Matplotlib v3.4.2, https://matplotlib.org/</dc:title>
     </cc:Agent>
    </dc:creator>
   </cc:Work>
  </rdf:RDF>
 </metadata>
 <defs>
  <style type="text/css">*{stroke-linecap:butt;stroke-linejoin:round;}</style>
 </defs>
 <g id="figure_1">
  <g id="patch_1">
   <path d="M 0 242.210467 
L 572.4 242.210467 
L 572.4 0 
L 0 0 
z
" style="fill:none;"/>
  </g>
  <g id="axes_1">
   <g id="LineCollection_1">
    <path clip-path="url(#p7b9a9970f8)" d="M 32.563636 182.35722 
L 49.447527 174.715385 
L 67.868609 156.817404 
L 91.077659 162.213612 
L 112.169923 149.007985 
L 125.677036 132.41716 
L 148.382089 125.378628 
L 155.312044 107.413613 
L 150.952473 87.202971 
L 161.108007 69.271473 
L 186.585043 67.495082 
L 201.578946 54.75869 
L 218.00924 36.927743 
L 239.605501 34.581565 
L 263.520146 21.77814 
L 284.385612 20.437468 
L 307.040266 22.448477 
L 331.307709 23.386948 
L 352.223574 34.682116 
L 371.299851 51.80921 
L 393.576507 50.502054 
L 413.181981 34.514532 
L 434.400244 26.269394 
L 454.383715 21.442972 
L 475.879176 17.555021 
L 497.677036 21.945725 
L 515.921718 34.715633 
L 532.956808 49.898752 
L 539.836364 71.885785 
L 530.310825 90.68872 
L 527.538843 110.061442 
L 523.38087 132.752328 
L 521.062485 154.504744 
L 509.924157 172.77141 
L 508.437366 195.026578 
L 503.019401 215.404804 
L 485.303915 224.655446 
L 462.750061 222.778504 
L 440.246606 218.689452 
L 425.202303 208.198688 
L 422.480721 186.814957 
L 415.374367 166.503765 
L 396.172091 159.264132 
L 377.473811 154.471227 
L 357.893537 145.890921 
L 339.447256 138.182053 
L 320.799377 142.00297 
L 306.889067 124.708292 
L 297.590327 106.508659 
L 275.187671 94.911839 
L 252.835415 86.499118 
L 246.913453 64.914286 
L 244.721068 42.558568 
L 225.493592 41.318446 
L 203.292535 53.418018 
L 186.635442 66.992329 
L 164.635984 65.249455 
L 152.741661 84.05239 
L 157.655629 108.251533 
L 146.315702 121.792328 
L 127.945021 132.551227 
L 111.842325 147.935447 
L 93.244845 158.426211 
L 72.555778 155.510248 
L 55.29389 169.252144 
L 44.079962 184.837465 
L 34.453624 178.100584 
" style="fill:none;stroke:#000000;stroke-width:3;"/>
   </g>
  </g>
 </g>
 <defs>
  <clipPath id="p7b9a9970f8">
   <rect height="227.810467" width="558" x="7.2" y="7.2"/>
  </clipPath>
 </defs>
</svg>
