<?xml version="1.0" encoding="utf-8" standalone="no"?>
<!DOCTYPE svg PUBLIC "-//W3C//DTD SVG 1.1//EN"
  "http://www.w3.org/Graphics/SVG/1.1/DTD/svg11.dtd">
<svg height="558pt" version="1.1" viewBox="0 0 181.69661 558" width="181.69661pt" xmlns="http://www.w3.org/2000/svg" xmlns:xlink="http://www.w3.org/1999/xlink">
 <metadata>
  <rdf:RDF xmlns:cc="http://creativecommons.org/ns#" xmlns:dc="http://purl.org/dc/elements/1.1/" xmlns:rdf="http://www.w3.org/1999/02/22-rdf-syntax-ns#">
   <cc:Work>
    <dc:type rdf:resource="http://purl.org/dc/dcmitype/StillImage"/>
    <dc:date>2021-05-26T19:21:40.976298</dc:date>
    <dc:format>image/svg+xml</dc:format>
    <dc:creator>
     <cc:Agent>
      <dc:title>Matplotlib v3.4.2, https://matplotlib.org/</dc:title>
     </cc:Agent>
    </dc:creator>
   </cc:Work>
  </rdf:RDF>
 </metadata>
 <defs>
  <style type="text/css">*{stroke-linecap:butt;stroke-linejoin:round;}</style>
 </defs>
 <g id="figure_1">
  <g id="patch_1">
   <path d="M 0 558 
L 181.69661 558 
L 181.69661 0 
L 0 0 
z
" style="fill:none;"/>
  </g>
  <g id="axes_1">
   <g id="LineCollection_1">
    <path clip-path="url(#p48624c6d44)" d="M 90.772187 79.336886 
L 90.863528 79.59803 
L 93.073473 80.967363 
L 93.735695 83.408056 
L 92.847658 86.210333 
L 91.645001 88.992523 
L 90.571745 90.311636 
L 91.502915 89.099659 
L 91.774401 89.069527 
L 91.540974 89.069527 
L 90.853379 90.110756 
L 84.515329 101.403566 
L 83.079246 104.671216 
L 81.762413 106.596317 
L 79.681869 109.997887 
L 78.448765 113.359281 
L 76.132256 117.229571 
L 71.024772 126.617368 
L 68.60931 130.136118 
L 64.950596 130.457526 
L 64.676573 131.304571 
L 64.861793 133.273196 
L 63.816446 136.647982 
L 63.390188 135.519705 
L 67.660379 138.054143 
L 75.525853 140.545056 
L 80.668859 145.205475 
L 83.982507 149.102549 
L 86.606023 150.779898 
L 84.868007 153.783056 
L 82.267326 156.786213 
L 80.750051 161.406456 
L 79.481426 164.710934 
L 77.875347 167.325723 
L 75.921664 169.766417 
L 74.457671 173.22825 
L 72.250264 176.639864 
L 70.202703 180.533591 
L 67.665454 184.490929 
L 65.666101 188.538663 
L 64.290911 192.837497 
L 61.842465 197.22338 
L 59.543717 200.969794 
L 57.326161 203.822292 
L 56.247829 206.065453 
L 53.824756 209.269491 
L 51.046467 214.127441 
L 49.138456 218.817992 
L 46.679861 224.512943 
L 45.550784 229.826222 
L 45.005276 234.657389 
L 43.767098 240.757448 
L 42.569516 243.489418 
L 40.74777 246.88764 
L 42.04938 248.330629 
L 41.681478 252.391755 
L 40.981197 256.185041 
L 39.778541 260.165815 
L 39.301538 260.62784 
L 38.49723 260.748368 
L 37.276813 264.039454 
L 34.856276 266.758031 
L 33.176617 270.139513 
L 29.659989 274.866892 
L 27.064382 278.917974 
L 24.443403 282.483596 
L 23.646707 285.96217 
L 22.700313 286.440934 
L 21.928989 288.633875 
L 21.076473 289.634928 
L 20.043812 291.047785 
L 16.098389 297.358768 
L 14.804391 299.196821 
L 15.563029 300.331794 
L 22.83225 307.218634 
L 26.260074 309.491927 
L 28.206145 310.379148 
L 27.221692 313.466005 
L 28.018388 313.020721 
L 30.266392 314.704766 
L 31.737996 317.19568 
L 32.552454 319.492409 
L 33.186766 321.926406 
L 34.206741 324.507716 
L 35.668196 328.963906 
L 37.411287 331.063103 
L 38.215595 333.456925 
L 38.23843 335.084054 
L 39.38273 339.054784 
L 40.423003 341.214245 
L 42.808017 342.955206 
L 43.112487 344.555551 
L 45.586306 350.491558 
L 46.251065 351.412259 
L 46.86508 350.983715 
L 46.740755 351.271643 
L 47.060448 353.635332 
L 47.791176 354.3585 
L 47.915501 354.636385 
L 47.989081 354.599557 
L 47.966246 354.596209 
L 48.25803 354.880789 
L 49.384569 359.678475 
L 49.354122 361.955117 
L 51.427055 366.863287 
L 52.809856 367.5965 
L 53.015373 367.660112 
L 53.015373 367.660112 
L 52.891048 367.8476 
L 52.66777 369.039489 
L 52.137485 369.722481 
L 51.88376 372.672071 
L 52.310018 376.036813 
L 52.837766 378.745346 
L 56.67155 379.070102 
L 58.574488 381.781984 
L 59.959826 385.936854 
L 61.329941 390.597273 
L 63.730179 394.581395 
L 65.503717 398.645869 
L 66.171013 400.731675 
L 67.873508 404.0395 
L 69.867786 407.437722 
L 72.072656 411.910653 
L 76.274342 419.574229 
L 78.694878 424.010332 
L 79.930519 425.55376 
L 81.942558 429.049074 
L 83.442073 432.40712 
L 82.701196 432.815577 
L 82.30031 433.649229 
L 82.396726 433.686057 
L 83.442073 433.234077 
L 85.431277 436.414679 
L 87.100787 439.732548 
L 88.651047 442.133066 
L 90.896513 446.016748 
L 91.142626 446.669608 
L 92.545725 448.638233 
L 93.086159 452.762972 
L 93.804201 455.528421 
L 93.986883 457.28947 
L 95.395057 458.581799 
L 95.592962 459.375276 
L 93.124218 463.64063 
L 90.028773 468.321137 
L 88.940293 473.329747 
L 89.178795 478.599502 
L 86.283793 483.018865 
L 83.175662 487.495143 
L 78.354887 490.883321 
L 75.693312 495.607352 
L 79.653959 498.908482 
L 84.061162 502.176132 
L 87.156606 506.993906 
L 88.18673 513.726738 
L 90.089667 520.04107 
L 90.505776 524.219376 
L 94.67194 526.090909 
L 98.718854 523.151363 
L 100.758803 522.096743 
L 101.030288 522.615683 
L 102.798751 521.048818 
L 107.09939 519.495345 
L 110.425724 516.893948 
L 112.440301 513.445506 
L 113.046703 509.076364 
L 111.696886 504.439381 
L 111.00168 499.859314 
L 109.271276 496.072724 
L 107.675346 491.901114 
L 107.340429 487.7362 
L 105.627785 483.631549 
L 103.686789 479.359499 
L 100.667462 476.868585 
L 98.290059 473.517235 
L 97.523809 470.216106 
L 98.416921 466.349163 
L 97.498437 462.465481 
L 95.887283 458.712371 
L 96.113098 454.724901 
L 95.526994 450.278754 
L 93.162277 449.304486 
L 91.038599 445.658512 
L 83.771915 432.092408 
L 83.104619 430.428451 
L 81.216905 427.786878 
L 76.906117 419.734933 
L 73.031737 412.774437 
L 72.605479 410.337092 
L 84.162652 408.137455 
L 87.712264 407.752434 
L 107.629675 404.776061 
L 116.794221 403.389988 
L 121.173514 402.760564 
L 125.002224 402.760564 
L 128.356469 401.953695 
L 128.704072 401.407971 
L 128.747205 401.488323 
L 128.901977 401.357751 
L 131.677729 401.006211 
L 133.250823 401.053083 
L 132.208014 398.448337 
L 130.848048 388.427768 
L 128.112893 370.469085 
L 127.831258 367.603196 
L 127.17411 364.12797 
L 124.921032 360.67618 
L 122.903919 358.071435 
L 120.503681 355.305985 
L 118.953421 353.323968 
L 116.842429 351.043979 
L 114.832927 348.643461 
L 113.034017 346.875716 
L 112.29314 345.459511 
L 110.430799 343.202958 
L 109.319483 341.087021 
L 109.837082 338.974432 
L 110.21767 335.10749 
L 109.920812 333.081948 
L 110.118717 331.950324 
L 108.883076 332.854284 
L 108.543085 332.231556 
L 108.596367 331.250591 
L 108.733379 330.858875 
L 108.801884 330.812003 
L 107.792059 329.693771 
L 106.046431 328.481794 
L 103.595448 327.152637 
L 101.824448 326.412729 
L 101.124167 325.927268 
L 100.307172 325.776608 
L 101.11148 326.322333 
L 101.540276 325.850264 
L 101.464158 325.984184 
L 104.99601 327.875806 
L 106.56403 327.859066 
L 108.048321 325.60586 
L 112.574775 316.629867 
L 113.993098 313.984946 
L 117.733004 309.505319 
L 119.26804 307.399426 
L 126.641288 298.620965 
L 130.000606 294.442659 
L 130.018367 293.66927 
L 129.84076 293.71949 
L 129.769717 293.873498 
L 129.962548 294.144687 
L 133.489325 290.207436 
L 130.944463 288.141719 
L 128.145877 286.16305 
L 126.296222 283.631961 
L 126.737703 279.574182 
L 125.385349 277.675865 
L 123.654945 276.591113 
L 123.385996 273.437295 
L 122.541092 266.774771 
L 121.985434 263.162277 
L 121.510969 259.271899 
L 120.48592 252.642855 
L 121.03904 249.412033 
L 124.763723 248.504725 
L 129.27749 247.818384 
L 132.895608 247.527108 
L 132.509947 244.805183 
L 132.103987 242.990566 
L 133.017396 243.05083 
L 136.785212 242.481669 
L 138.200998 245.454695 
L 138.665315 246.927816 
L 138.378605 242.963782 
L 137.965034 239.418248 
L 138.322786 236.304606 
L 139.571113 231.550443 
L 141.245698 224.767391 
L 141.60345 221.958418 
L 142.483875 220.696221 
L 143.349078 217.478791 
L 145.069333 209.942439 
L 146.246617 205.425985 
L 148.268805 203.698416 
L 151.851402 204.488544 
L 155.418775 205.466161 
L 158.113334 205.780873 
L 159.189128 204.890304 
L 159.521508 206.728357 
L 161.196093 203.112515 
L 163.692746 196.014751 
L 164.628992 194.427798 
L 166.727297 196.731224 
L 166.892218 194.534934 
L 164.986744 192.181289 
L 162.459643 189.928084 
L 158.983611 187.869063 
L 155.839958 186.740786 
L 150.032194 183.540096 
L 140.537805 177.938889 
L 136.58477 174.520579 
L 134.707205 172.906842 
L 128.351394 169.722892 
L 127.004114 169.133644 
L 119.590271 165.28679 
L 117.314358 163.713229 
L 116.550645 163.448737 
L 116.477065 163.190941 
L 116.314681 163.391821 
L 112.947751 163.525741 
L 109.842157 162.698785 
L 107.819969 165.708638 
L 107.216103 166.907223 
L 107.345503 166.548987 
L 104.43274 165.233222 
L 102.344584 164.161861 
L 102.202498 163.596049 
L 99.789573 162.280284 
L 97.348739 161.948832 
L 94.177177 159.966815 
L 94.103596 158.96911 
L 92.292 158.309554 
L 88.493737 156.230445 
L 86.121409 155.11556 
L 86.4614 153.82658 
L 86.885121 152.959447 
L 87.755397 151.807734 
L 87.349437 150.026597 
L 84.175338 147.8437 
L 80.313644 145.898511 
L 77.799229 142.724605 
L 79.319042 139.108763 
L 81.23974 134.910369 
L 84.114444 131.890471 
L 88.331353 132.744212 
L 91.55366 131.378227 
L 94.603435 126.995692 
L 97.533958 123.778263 
L 97.315755 119.081016 
L 99.609428 114.249849 
L 101.903102 110.945371 
L 102.76323 107.470145 
L 103.930365 104.142232 
L 106.645222 100.61009 
L 108.56592 96.950724 
L 110.892578 93.532414 
L 115.530671 92.692065 
L 119.577584 90.465644 
L 125.829368 79.102525 
L 127.978418 74.187659 
L 128.293037 68.77394 
L 127.706933 63.621365 
L 130.789691 59.208698 
L 133.030083 54.996912 
L 133.48425 50.336493 
L 136.567009 47.122411 
L 134.118563 44.818986 
L 132.641884 42.331421 
L 134.882275 37.466774 
L 132.809342 34.416744 
L 129.282565 32.648999 
L 126.197269 31.909091 
L 124.124336 34.132164 
L 125.760862 36.559466 
L 127.402463 38.678751 
L 127.869317 43.041197 
L 124.015234 46.359067 
L 120.935013 50.246097 
L 117.491965 51.856486 
L 115.226201 55.21788 
L 113.909368 58.170818 
L 111.082872 61.140495 
L 109.720369 65.08779 
L 107.647436 68.318611 
L 104.501246 70.076312 
L 101.621468 73.956647 
L 101.695048 78.781117 
L 101.95131 82.303215 
L 99.830169 85.594301 
L 96.605325 88.871995 
L 95.955789 94.02457 
L 92.571098 97.59354 
L 88.559706 102.156866 
L 84.812188 105.722488 
L 82.462694 109.264674 
L 80.453193 109.756831 
L 83.436998 104.721436 
L 89.013873 94.54351 
L 90.526074 92.039205 
L 93.796589 85.989365 
L 95.349386 82.768588 
L 93.27899 80.930535 
L 91.010689 79.691774 
L 91.010689 79.691774 
" style="fill:none;stroke:#000000;stroke-width:3;"/>
   </g>
  </g>
 </g>
 <defs>
  <clipPath id="p48624c6d44">
   <rect height="543.6" width="167.29661" x="7.2" y="7.2"/>
  </clipPath>
 </defs>
</svg>
