<?xml version="1.0" encoding="utf-8" standalone="no"?>
<!DOCTYPE svg PUBLIC "-//W3C//DTD SVG 1.1//EN"
  "http://www.w3.org/Graphics/SVG/1.1/DTD/svg11.dtd">
<svg height="558pt" version="1.1" viewBox="0 0 430.883546 558" width="430.883546pt" xmlns="http://www.w3.org/2000/svg" xmlns:xlink="http://www.w3.org/1999/xlink">
 <metadata>
  <rdf:RDF xmlns:cc="http://creativecommons.org/ns#" xmlns:dc="http://purl.org/dc/elements/1.1/" xmlns:rdf="http://www.w3.org/1999/02/22-rdf-syntax-ns#">
   <cc:Work>
    <dc:type rdf:resource="http://purl.org/dc/dcmitype/StillImage"/>
    <dc:date>2021-05-26T19:21:41.071437</dc:date>
    <dc:format>image/svg+xml</dc:format>
    <dc:creator>
     <cc:Agent>
      <dc:title>Matplotlib v3.4.2, https://matplotlib.org/</dc:title>
     </cc:Agent>
    </dc:creator>
   </cc:Work>
  </rdf:RDF>
 </metadata>
 <defs>
  <style type="text/css">*{stroke-linecap:butt;stroke-linejoin:round;}</style>
 </defs>
 <g id="figure_1">
  <g id="patch_1">
   <path d="M 0 558 
L 430.883546 558 
L 430.883546 0 
L 0 0 
z
" style="fill:none;"/>
  </g>
  <g id="axes_1">
   <g id="LineCollection_1">
    <path clip-path="url(#pc2264a503a)" d="M 210.923881 76.97141 
L 203.540984 104.037906 
L 203.430791 135.421458 
L 192.007503 168.357212 
L 169.307849 191.543206 
L 144.441077 211.576293 
L 126.075661 233.986187 
L 105.322742 261.586251 
L 78.950005 285.111789 
L 53.128231 305.144876 
L 34.5057 330.41664 
L 28.518574 360.92708 
L 33.220121 395.560553 
L 35.350509 426.992612 
L 26.13107 454.835207 
L 27.783958 472.442981 
L 49.602071 492.233537 
L 73.917881 509.889817 
L 103.706585 508.774173 
L 128.463165 509.744298 
L 155.790904 519.785095 
L 181.392293 526.090909 
L 207.397721 520.561195 
L 212.576768 493.397687 
L 229.546412 468.17443 
L 251.621642 446.395117 
L 275.129373 428.302281 
L 277.663801 403.224542 
L 286.001699 370.337295 
L 292.833634 340.942499 
L 303.595767 314.749117 
L 318.2881 284.044651 
L 341.501985 257.754256 
L 361.961058 234.083199 
L 373.347615 206.628654 
L 388.664372 177.039833 
L 404.752476 152.93222 
L 402.548626 135.858015 
L 374.44954 126.205268 
L 358.655283 109.519113 
L 338.673711 90.068102 
L 312.851937 83.616768 
L 287.287278 78.184067 
L 270.795135 56.986829 
L 260.363579 32.44266 
L 259.004539 31.909091 
" style="fill:none;stroke:#000000;stroke-width:3;"/>
   </g>
  </g>
 </g>
 <defs>
  <clipPath id="pc2264a503a">
   <rect height="543.6" width="416.483546" x="7.2" y="7.2"/>
  </clipPath>
 </defs>
</svg>
