<?xml version="1.0" encoding="utf-8" standalone="no"?>
<!DOCTYPE svg PUBLIC "-//W3C//DTD SVG 1.1//EN"
  "http://www.w3.org/Graphics/SVG/1.1/DTD/svg11.dtd">
<svg height="558pt" version="1.1" viewBox="0 0 377.389736 558" width="377.389736pt" xmlns="http://www.w3.org/2000/svg" xmlns:xlink="http://www.w3.org/1999/xlink">
 <metadata>
  <rdf:RDF xmlns:cc="http://creativecommons.org/ns#" xmlns:dc="http://purl.org/dc/elements/1.1/" xmlns:rdf="http://www.w3.org/1999/02/22-rdf-syntax-ns#">
   <cc:Work>
    <dc:type rdf:resource="http://purl.org/dc/dcmitype/StillImage"/>
    <dc:date>2021-05-26T19:21:43.170307</dc:date>
    <dc:format>image/svg+xml</dc:format>
    <dc:creator>
     <cc:Agent>
      <dc:title>Matplotlib v3.4.2, https://matplotlib.org/</dc:title>
     </cc:Agent>
    </dc:creator>
   </cc:Work>
  </rdf:RDF>
 </metadata>
 <defs>
  <style type="text/css">*{stroke-linecap:butt;stroke-linejoin:round;}</style>
 </defs>
 <g id="figure_1">
  <g id="patch_1">
   <path d="M 0 558 
L 377.389736 558 
L 377.389736 0 
L 0 0 
z
" style="fill:none;"/>
  </g>
  <g id="axes_1">
   <g id="LineCollection_1">
    <path clip-path="url(#pa0c04cc558)" d="M 282.511867 41.100257 
L 268.790266 31.909091 
L 236.206406 55.670343 
L 206.509223 97.605036 
L 176.535236 150.558683 
L 150.752861 208.003468 
L 111.762951 273.4383 
L 75.422457 337.933127 
L 43.629467 396.056805 
L 26.111688 428.486997 
L 24.490404 436.58149 
L 31.450063 443.527086 
L 30.461475 443.944867 
L 23.699533 489.169579 
L 92.42617 504.731894 
L 115.321868 526.038687 
L 115.519585 526.090909 
L 117.615392 525.882019 
L 143.872289 493.034046 
L 174.716234 440.028177 
L 209.119096 375.167792 
L 242.968348 314.380765 
L 276.817601 255.421527 
L 294.098119 228.579146 
L 296.075295 228.422478 
L 318.377839 186.696675 
L 345.939672 129.408558 
L 353.690202 83.348285 
L 315.807511 61.623711 
L 291.132355 47.36696 
L 289.629701 46.479177 
L 289.431983 46.896958 
L 287.37572 54.260335 
L 290.301941 42.928045 
L 288.7202 56.140346 
L 285.952154 58.438137 
L 285.003109 59.169252 
L 284.56813 60.788151 
L 284.093608 59.95259 
" style="fill:none;stroke:#000000;stroke-width:3;"/>
   </g>
  </g>
 </g>
 <defs>
  <clipPath id="pa0c04cc558">
   <rect height="543.6" width="362.989736" x="7.2" y="7.2"/>
  </clipPath>
 </defs>
</svg>
