<?xml version="1.0" encoding="utf-8" standalone="no"?>
<!DOCTYPE svg PUBLIC "-//W3C//DTD SVG 1.1//EN"
  "http://www.w3.org/Graphics/SVG/1.1/DTD/svg11.dtd">
<svg height="558pt" version="1.1" viewBox="0 0 384.010058 558" width="384.010058pt" xmlns="http://www.w3.org/2000/svg" xmlns:xlink="http://www.w3.org/1999/xlink">
 <metadata>
  <rdf:RDF xmlns:cc="http://creativecommons.org/ns#" xmlns:dc="http://purl.org/dc/elements/1.1/" xmlns:rdf="http://www.w3.org/1999/02/22-rdf-syntax-ns#">
   <cc:Work>
    <dc:type rdf:resource="http://purl.org/dc/dcmitype/StillImage"/>
    <dc:date>2021-05-26T19:21:43.647091</dc:date>
    <dc:format>image/svg+xml</dc:format>
    <dc:creator>
     <cc:Agent>
      <dc:title>Matplotlib v3.4.2, https://matplotlib.org/</dc:title>
     </cc:Agent>
    </dc:creator>
   </cc:Work>
  </rdf:RDF>
 </metadata>
 <defs>
  <style type="text/css">*{stroke-linecap:butt;stroke-linejoin:round;}</style>
 </defs>
 <g id="figure_1">
  <g id="patch_1">
   <path d="M 0 558 
L 384.010058 558 
L 384.010058 0 
L 0 0 
z
" style="fill:none;"/>
  </g>
  <g id="axes_1">
   <g id="LineCollection_1">
    <path clip-path="url(#p8ef72b7420)" d="M 26.333275 443.062421 
L 36.185267 450.407884 
L 52.723282 456.900503 
L 64.908092 470.490984 
L 66.511904 486.502442 
L 75.30163 493.325194 
L 83.341522 499.350124 
L 99.233846 496.433948 
L 114.709596 505.732698 
L 123.35352 517.782558 
L 140.537226 524.880421 
L 156.533694 526.090909 
L 174.258947 522.872111 
L 191.630112 524.687843 
L 207.418292 519.515757 
L 219.769732 504.714787 
L 229.580066 489.446129 
L 237.599129 473.269605 
L 246.284711 457.423213 
L 254.491232 441.5218 
L 262.656096 425.427809 
L 271.674938 410.186661 
L 282.026819 393.982626 
L 287.796378 376.485569 
L 286.900743 357.805535 
L 289.920909 340.253455 
L 285.79682 321.710977 
L 279.006653 306.029652 
L 284.380466 288.340017 
L 293.52428 272.796248 
L 304.605167 258.600522 
L 316.0818 245.945418 
L 326.891913 233.372847 
L 327.975007 216.178412 
L 328.09998 200.029399 
L 331.22429 183.385186 
L 335.806611 167.841416 
L 346.345951 156.781956 
L 360.009601 147.868361 
L 359.009821 131.691836 
L 343.950646 131.801881 
L 328.620698 141.183164 
L 315.41528 134.002768 
L 318.268817 119.669487 
L 328.474897 105.69385 
L 337.410424 91.360569 
L 342.930038 75.844311 
L 338.264402 61.26343 
L 327.391803 48.828415 
L 313.165777 38.841887 
L 297.794171 34.825267 
L 282.630852 31.909091 
L 268.529799 32.596868 
L 258.46952 43.133618 
L 258.344548 57.604455 
L 270.008639 64.207118 
L 283.838919 73.973557 
L 287.171516 89.87497 
L 291.941297 104.868518 
L 291.816324 121.292642 
L 281.651902 135.158234 
L 267.967423 143.82423 
L 252.595817 150.922092 
L 244.181009 165.530484 
L 233.600012 180.386476 
L 219.519787 185.531051 
L 204.398126 192.849003 
L 192.442432 204.706285 
L 184.839944 219.149611 
L 178.695468 232.68507 
L 173.425798 246.468129 
L 164.157011 260.911454 
L 150.701649 270.045138 
L 140.495569 282.562687 
L 138.912585 300.252322 
L 136.746397 316.648935 
L 126.394516 327.295729 
L 111.481142 333.815859 
L 96.296994 343.004565 
L 82.987433 356.099847 
L 73.114613 373.046682 
L 68.532291 391.781738 
L 71.531629 408.756084 
L 76.738813 424.795053 
L 76.697155 443.227488 
L 67.157595 457.478236 
L 55.764277 458.85379 
L 42.433887 455.08477 
L 29.186812 448.56464 
L 24.000457 445.813531 
" style="fill:none;stroke:#000000;stroke-width:3;"/>
   </g>
  </g>
 </g>
 <defs>
  <clipPath id="p8ef72b7420">
   <rect height="543.6" width="369.610058" x="7.2" y="7.2"/>
  </clipPath>
 </defs>
</svg>
