<?xml version="1.0" encoding="utf-8" standalone="no"?>
<!DOCTYPE svg PUBLIC "-//W3C//DTD SVG 1.1//EN"
  "http://www.w3.org/Graphics/SVG/1.1/DTD/svg11.dtd">
<svg height="558pt" version="1.1" viewBox="0 0 250.800141 558" width="250.800141pt" xmlns="http://www.w3.org/2000/svg" xmlns:xlink="http://www.w3.org/1999/xlink">
 <metadata>
  <rdf:RDF xmlns:cc="http://creativecommons.org/ns#" xmlns:dc="http://purl.org/dc/elements/1.1/" xmlns:rdf="http://www.w3.org/1999/02/22-rdf-syntax-ns#">
   <cc:Work>
    <dc:type rdf:resource="http://purl.org/dc/dcmitype/StillImage"/>
    <dc:date>2021-05-26T19:21:45.936117</dc:date>
    <dc:format>image/svg+xml</dc:format>
    <dc:creator>
     <cc:Agent>
      <dc:title>Matplotlib v3.4.2, https://matplotlib.org/</dc:title>
     </cc:Agent>
    </dc:creator>
   </cc:Work>
  </rdf:RDF>
 </metadata>
 <defs>
  <style type="text/css">*{stroke-linecap:butt;stroke-linejoin:round;}</style>
 </defs>
 <g id="figure_1">
  <g id="patch_1">
   <path d="M 0 558 
L 250.800141 558 
L 250.800141 0 
L 0 0 
z
" style="fill:none;"/>
  </g>
  <g id="axes_1">
   <g id="LineCollection_1">
    <path clip-path="url(#p23fb5bbd4c)" d="M 221.104613 34.393095 
L 220.944445 34.6045 
L 214.537744 31.909091 
L 211.765957 40.065786 
L 208.749468 46.942309 
L 204.478334 55.069643 
L 200.994691 62.744806 
L 196.625677 68.946008 
L 192.639285 76.309936 
L 184.470742 90.661962 
L 180.559985 97.808613 
L 175.65263 107.081055 
L 171.8531 114.873665 
L 168.569666 120.399547 
L 164.983693 126.154451 
L 161.589032 132.619909 
L 157.891832 138.920941 
L 158.808346 143.41329 
L 165.735591 145.979507 
L 175.483564 150.794835 
L 181.436457 154.324118 
L 185.382807 157.424719 
L 191.224472 160.742597 
L 198.120574 165.657755 
L 204.914346 168.441249 
L 206.489327 174.11394 
L 204.669646 180.63225 
L 200.460799 186.393026 
L 196.287545 192.770399 
L 192.501363 200.398583 
L 183.340671 215.590355 
L 179.639021 221.87377 
L 184.662053 223.629603 
L 193.275506 228.074973 
L 199.27289 230.177275 
L 207.218979 235.292092 
L 210.199874 238.53363 
L 214.528846 240.729889 
L 216.984748 242.890914 
L 216.811233 244.05364 
L 220.52623 246.091346 
L 225.789513 248.011604 
L 230.336491 252.204463 
L 232.85468 254.829404 
L 232.254052 255.751363 
L 229.580144 254.242169 
L 227.13314 255.698512 
L 224.610502 259.973583 
L 219.716494 258.564219 
L 215.320786 259.028135 
L 212.19307 262.56329 
L 207.828505 264.11359 
L 207.330206 264.900485 
L 204.576215 269.974197 
L 201.533032 276.204761 
L 198.547687 280.867408 
L 195.571241 286.957035 
L 192.385687 292.594492 
L 189.173438 297.638842 
L 182.539833 310.681333 
L 178.664669 317.229004 
L 174.736116 323.506548 
L 170.923239 330.841114 
L 161.762547 347.037058 
L 158.866184 351.717321 
L 156.628288 356.456308 
L 153.26477 363.144916 
L 149.287276 370.07429 
L 146.110621 375.265448 
L 142.373378 382.006907 
L 139.303501 387.256789 
L 136.291462 392.999948 
L 131.602113 406.535717 
L 126.9795 417.511141 
L 126.58353 417.751907 
L 126.481201 417.540503 
L 124.21661 424.176259 
L 121.840792 431.504953 
L 119.38489 437.905816 
L 117.329407 442.803356 
L 113.939195 441.341141 
L 107.572536 438.451944 
L 103.728515 440.953566 
L 101.935529 444.73536 
L 100.289363 449.938263 
L 100.743171 454.912144 
L 101.988918 459.827301 
L 100.849949 466.081355 
L 107.69711 465.599822 
L 109.725899 470.608938 
L 111.683502 480.791594 
L 111.434353 482.876279 
L 111.785831 483.921557 
L 111.981592 485.1019 
L 111.799179 485.659773 
L 110.646862 486.95169 
L 106.896273 487.803181 
L 103.60839 487.668117 
L 100.427285 492.600892 
L 96.823515 492.559785 
L 95.413151 491.743529 
L 90.501348 495.12013 
L 87.569392 497.281156 
L 85.291454 498.514349 
L 77.501084 502.977336 
L 70.640575 508.168494 
L 64.576455 513.048418 
L 54.726152 521.486986 
L 50.584042 524.164778 
L 43.509977 526.090909 
L 38.727197 524.728524 
L 36.515995 523.424862 
L 31.332796 518.75047 
L 30.754413 514.680931 
L 28.988122 514.481271 
L 25.94049 515.279911 
L 23.52018 515.655742 
L 21.219997 517.534894 
L 19.484849 518.398129 
L 18.924262 517.640596 
L 18.021096 514.081951 
L 18.666215 512.584502 
L 17.972156 512.801779 
L 17.945461 512.707821 
L 18.216856 512.05599 
L 18.732951 509.137432 
L 19.551585 506.295214 
L 22.083122 499.694692 
L 25.522274 493.105914 
L 26.82586 485.947518 
L 28.391943 478.824357 
L 29.179433 471.859748 
L 30.545306 464.877523 
L 32.965615 455.528741 
L 35.924265 449.662262 
L 36.814085 442.345313 
L 38.144365 434.176873 
L 38.75834 425.908603 
L 39.799429 418.251057 
L 40.996237 411.145512 
L 42.695792 401.837836 
L 45.222879 385.729978 
L 47.300608 361.30687 
L 47.825602 353.496644 
L 48.239368 345.463268 
L 48.995714 337.694147 
L 49.56075 330.312602 
L 50.277055 322.449524 
L 50.490611 314.979894 
L 50.041252 306.799709 
L 52.488256 299.705909 
L 55.046487 288.660017 
L 55.157715 288.712868 
L 57.836072 289.065209 
L 61.577763 290.644872 
L 64.69658 292.165811 
L 68.972163 292.976195 
L 73.554734 297.104458 
L 79.854657 299.694165 
L 83.235971 302.565744 
L 84.601844 304.151279 
L 90.968503 306.67639 
L 101.561805 311.409505 
L 107.625925 314.791979 
L 113.925847 318.133346 
L 120.492716 322.696163 
L 126.903866 326.548425 
L 133.248279 330.676688 
L 143.654719 336.531422 
L 148.597666 337.993637 
L 150.679844 340.119428 
L 155.58275 341.628622 
L 160.863829 344.159606 
L 163.640066 342.004453 
L 164.445353 342.62105 
L 164.405311 342.574071 
L 160.298793 340.078322 
L 155.084451 337.606062 
L 155.102247 334.55244 
L 155.600546 334.299928 
L 155.053307 334.470227 
L 155.315804 334.200099 
L 155.82745 334.235333 
L 155.502666 335.198398 
L 155.791857 333.92997 
L 155.168984 333.894736 
L 155.062205 334.0298 
L 154.474924 334.358652 
L 154.902038 333.700949 
L 155.903085 334.675759 
L 155.734019 334.440865 
L 155.306906 335.398058 
L 155.796306 335.051589 
L 154.861996 333.906481 
L 154.977673 334.317546 
L 155.115595 334.141375 
L 154.946529 334.605291 
L 155.18678 334.487844 
L 155.871941 332.984522 
L 160.16977 327.376427 
L 167.675398 314.468999 
L 175.683774 300.751188 
L 178.580136 294.450155 
L 173.512614 290.650744 
L 167.822218 287.884867 
L 165.134963 285.301033 
L 167.02138 279.258383 
L 171.319209 271.788753 
L 175.594792 265.934019 
L 178.838184 261.095202 
L 182.103822 255.252213 
L 185.36501 248.123179 
L 188.764121 241.088103 
L 189.725126 238.286991 
L 194.236511 231.962469 
L 198.618873 227.188248 
L 205.012226 222.449261 
L 202.596366 214.756481 
L 203.054623 211.074517 
L 200.727745 209.306939 
L 200.002542 207.697915 
L 202.560773 200.61586 
L 206.560512 192.793889 
L 210.084198 184.384682 
L 212.548998 181.947657 
L 216.940257 177.055988 
L 219.071375 172.375725 
L 218.626465 171.68866 
L 214.800241 169.527634 
L 207.414739 165.974862 
L 201.519684 161.335705 
L 197.871424 157.871018 
L 199.063782 152.609391 
L 200.634314 151.505389 
L 187.553966 143.91244 
L 181.676708 140.300944 
L 178.326538 137.441109 
L 179.518896 131.063736 
L 183.060378 124.938874 
L 186.99338 117.668904 
L 193.360039 105.348711 
L 203.962239 86.868423 
L 207.570457 79.956666 
L 211.321047 73.426612 
L 218.537483 60.301908 
L 222.145702 53.683768 
L 225.856249 46.413798 
L 229.161929 40.470979 
L 229.855988 40.171489 
L 226.278913 37.247058 
L 221.642954 34.22867 
L 221.31372 34.422457 
L 221.31372 34.422457 
" style="fill:none;stroke:#000000;stroke-width:3;"/>
   </g>
  </g>
 </g>
 <defs>
  <clipPath id="p23fb5bbd4c">
   <rect height="543.6" width="236.400141" x="7.2" y="7.2"/>
  </clipPath>
 </defs>
</svg>
