<?xml version="1.0" encoding="utf-8" standalone="no"?>
<!DOCTYPE svg PUBLIC "-//W3C//DTD SVG 1.1//EN"
  "http://www.w3.org/Graphics/SVG/1.1/DTD/svg11.dtd">
<svg height="558pt" version="1.1" viewBox="0 0 395.257198 558" width="395.257198pt" xmlns="http://www.w3.org/2000/svg" xmlns:xlink="http://www.w3.org/1999/xlink">
 <metadata>
  <rdf:RDF xmlns:cc="http://creativecommons.org/ns#" xmlns:dc="http://purl.org/dc/elements/1.1/" xmlns:rdf="http://www.w3.org/1999/02/22-rdf-syntax-ns#">
   <cc:Work>
    <dc:type rdf:resource="http://purl.org/dc/dcmitype/StillImage"/>
    <dc:date>2021-05-26T19:21:47.490008</dc:date>
    <dc:format>image/svg+xml</dc:format>
    <dc:creator>
     <cc:Agent>
      <dc:title>Matplotlib v3.4.2, https://matplotlib.org/</dc:title>
     </cc:Agent>
    </dc:creator>
   </cc:Work>
  </rdf:RDF>
 </metadata>
 <defs>
  <style type="text/css">*{stroke-linecap:butt;stroke-linejoin:round;}</style>
 </defs>
 <g id="figure_1">
  <g id="patch_1">
   <path d="M 0 558 
L 395.257198 558 
L 395.257198 0 
L 0 0 
z
" style="fill:none;"/>
  </g>
  <g id="axes_1">
   <g id="LineCollection_1">
    <path clip-path="url(#pf1208561c8)" d="M 246.349216 31.909091 
L 254.583076 45.214316 
L 255.969831 64.013312 
L 252.156254 83.327349 
L 252.047914 103.299493 
L 251.614553 124.330333 
L 240.715522 142.013407 
L 225.287869 155.604766 
L 210.856945 169.510872 
L 198.961184 186.421384 
L 183.750211 201.042825 
L 167.022474 213.518262 
L 155.105045 228.454451 
L 151.616489 245.336349 
L 151.659825 266.138282 
L 152.613219 285.938747 
L 148.756306 303.564593 
L 133.371988 312.635037 
L 118.269356 322.220522 
L 109.840483 338.100952 
L 103.296731 353.037141 
L 96.904655 371.178028 
L 90.945941 388.489128 
L 79.223524 405.48548 
L 63.882543 417.102516 
L 50.621695 429.749633 
L 38.899278 443.941873 
L 29.517011 458.248567 
L 24.511691 474.329291 
L 30.708754 493.1569 
L 44.901329 507.635274 
L 59.093903 517.793027 
L 75.193266 526.090909 
L 93.632779 525.346961 
L 105.441868 511.183334 
L 112.332309 495.703491 
L 119.959464 479.30802 
L 130.078444 462.740869 
L 142.03921 451.610261 
L 158.203577 449.206736 
L 173.132865 456.932351 
L 189.730594 459.736463 
L 204.334861 450.236818 
L 214.107153 435.157563 
L 222.319345 419.277133 
L 236.056891 407.545644 
L 249.447747 397.817092 
L 258.895019 383.081198 
L 264.073683 364.825856 
L 258.65667 346.742195 
L 256.013168 329.516936 
L 265.048746 314.09432 
L 277.204523 301.418589 
L 291.310426 291.718651 
L 296.48909 276.925529 
L 298.04919 261.64598 
L 302.729489 245.822777 
L 307.301449 230.114027 
L 312.458445 215.750107 
L 321.385683 200.928372 
L 333.714805 186.821972 
L 345.632234 171.85717 
L 353.411065 155.633379 
L 361.428245 139.180681 
L 370.745507 126.190203 
L 367.018602 114.773462 
L 351.439272 108.59297 
L 341.103611 95.116064 
L 327.409402 85.7881 
L 310.248304 83.127055 
L 294.668974 75.973708 
L 288.991944 59.807144 
L 277.616216 45.557677 
L 263.596986 42.352977 
L 250.682827 34.055095 
L 248.017656 32.137998 
" style="fill:none;stroke:#000000;stroke-width:3;"/>
   </g>
  </g>
 </g>
 <defs>
  <clipPath id="pf1208561c8">
   <rect height="543.6" width="380.857198" x="7.2" y="7.2"/>
  </clipPath>
 </defs>
</svg>
