<?xml version="1.0" encoding="utf-8" standalone="no"?>
<!DOCTYPE svg PUBLIC "-//W3C//DTD SVG 1.1//EN"
  "http://www.w3.org/Graphics/SVG/1.1/DTD/svg11.dtd">
<svg height="558pt" version="1.1" viewBox="0 0 389.852106 558" width="389.852106pt" xmlns="http://www.w3.org/2000/svg" xmlns:xlink="http://www.w3.org/1999/xlink">
 <metadata>
  <rdf:RDF xmlns:cc="http://creativecommons.org/ns#" xmlns:dc="http://purl.org/dc/elements/1.1/" xmlns:rdf="http://www.w3.org/1999/02/22-rdf-syntax-ns#">
   <cc:Work>
    <dc:type rdf:resource="http://purl.org/dc/dcmitype/StillImage"/>
    <dc:date>2021-05-26T19:21:48.336408</dc:date>
    <dc:format>image/svg+xml</dc:format>
    <dc:creator>
     <cc:Agent>
      <dc:title>Matplotlib v3.4.2, https://matplotlib.org/</dc:title>
     </cc:Agent>
    </dc:creator>
   </cc:Work>
  </rdf:RDF>
 </metadata>
 <defs>
  <style type="text/css">*{stroke-linecap:butt;stroke-linejoin:round;}</style>
 </defs>
 <g id="figure_1">
  <g id="patch_1">
   <path d="M 0 558 
L 389.852106 558 
L 389.852106 0 
L 0 0 
z
" style="fill:none;"/>
  </g>
  <g id="axes_1">
   <g id="LineCollection_1">
    <path clip-path="url(#p35273f5d23)" d="M 24.266005 440.30882 
L 38.795579 446.742477 
L 52.388433 452.791214 
L 64.170294 462.57917 
L 69.624088 477.123633 
L 78.096204 490.155912 
L 83.570814 499.284006 
L 98.308548 493.5652 
L 114.003819 498.101753 
L 123.142047 512.481251 
L 136.172868 520.344609 
L 150.723258 526.090909 
L 168.91645 522.489161 
L 185.943945 522.021759 
L 202.908992 522.709115 
L 216.918166 513.718492 
L 225.411098 498.569155 
L 234.486878 481.522715 
L 243.167153 465.795998 
L 251.639269 450.014293 
L 260.132201 434.205094 
L 268.47942 418.835803 
L 277.596832 403.521501 
L 284.549379 387.932256 
L 290.398677 371.600666 
L 289.607669 353.371972 
L 293.375367 336.655462 
L 288.983189 320.021435 
L 281.78085 304.734627 
L 287.796676 286.698393 
L 296.789192 270.889193 
L 307.363725 256.674661 
L 319.145586 244.27475 
L 330.136438 231.407437 
L 331.135607 213.948582 
L 331.614375 197.094601 
L 334.591064 179.910689 
L 340.523627 164.871329 
L 352.492832 153.571189 
L 365.586101 143.425807 
L 360.298835 129.5687 
L 344.645196 131.905712 
L 330.511126 140.34645 
L 317.397041 131.548287 
L 322.601043 116.453939 
L 333.508632 103.394165 
L 341.668507 88.57476 
L 346.102317 73.617882 
L 342.292987 58.606017 
L 329.782566 47.388359 
L 315.5236 38.562702 
L 299.807513 35.098425 
L 285.173859 32.761413 
L 271.372845 31.909091 
L 262.609306 41.724542 
L 262.297065 55.774108 
L 272.829966 63.912409 
L 286.568532 70.428548 
L 291.606006 85.522897 
L 294.936567 101.469567 
L 294.957383 118.928422 
L 285.777523 133.280425 
L 271.289581 142.628473 
L 255.677575 149.144613 
L 246.331187 162.919237 
L 238.171311 177.628666 
L 223.829081 184.007334 
L 209.174611 191.21083 
L 197.205406 202.483476 
L 189.212059 216.945457 
L 183.008888 229.62031 
L 177.555094 244.46721 
L 169.291138 256.53719 
L 156.468477 267.204963 
L 145.81068 278.312644 
L 142.813175 294.369291 
L 143.146231 309.766076 
L 133.716579 323.375735 
L 119.291085 330.359277 
L 104.594983 337.370313 
L 92.709042 347.570683 
L 81.551661 361.125353 
L 74.432586 377.56692 
L 73.57913 396.180533 
L 78.241916 413.144492 
L 81.447581 431.235714 
L 75.473386 447.457327 
L 66.335159 461.589377 
L 55.261042 454.028455 
L 39.815563 454.248409 
L 30.469175 445.175304 
L 29.095319 443.195717 
" style="fill:none;stroke:#000000;stroke-width:3;"/>
   </g>
  </g>
 </g>
 <defs>
  <clipPath id="p35273f5d23">
   <rect height="543.6" width="375.452106" x="7.2" y="7.2"/>
  </clipPath>
 </defs>
</svg>
