<?xml version="1.0" encoding="utf-8" standalone="no"?>
<!DOCTYPE svg PUBLIC "-//W3C//DTD SVG 1.1//EN"
  "http://www.w3.org/Graphics/SVG/1.1/DTD/svg11.dtd">
<svg height="558pt" version="1.1" viewBox="0 0 379.308363 558" width="379.308363pt" xmlns="http://www.w3.org/2000/svg" xmlns:xlink="http://www.w3.org/1999/xlink">
 <metadata>
  <rdf:RDF xmlns:cc="http://creativecommons.org/ns#" xmlns:dc="http://purl.org/dc/elements/1.1/" xmlns:rdf="http://www.w3.org/1999/02/22-rdf-syntax-ns#">
   <cc:Work>
    <dc:type rdf:resource="http://purl.org/dc/dcmitype/StillImage"/>
    <dc:date>2021-05-26T19:21:48.588719</dc:date>
    <dc:format>image/svg+xml</dc:format>
    <dc:creator>
     <cc:Agent>
      <dc:title>Matplotlib v3.4.2, https://matplotlib.org/</dc:title>
     </cc:Agent>
    </dc:creator>
   </cc:Work>
  </rdf:RDF>
 </metadata>
 <defs>
  <style type="text/css">*{stroke-linecap:butt;stroke-linejoin:round;}</style>
 </defs>
 <g id="figure_1">
  <g id="patch_1">
   <path d="M 0 558 
L 379.308363 558 
L 379.308363 0 
L 0 0 
z
" style="fill:none;"/>
  </g>
  <g id="axes_1">
   <g id="LineCollection_1">
    <path clip-path="url(#p66ad4a295a)" d="M 241.376727 57.564672 
L 254.705269 67.707576 
L 271.319738 74.948634 
L 280.273889 89.051067 
L 287.975281 104.672224 
L 295.532913 114.326967 
L 312.250067 110.665759 
L 327.303721 118.422097 
L 337.551706 131.493968 
L 353.550063 138.111264 
L 355.521619 149.338971 
L 345.417394 165.095728 
L 338.640169 182.37121 
L 329.295814 198.751729 
L 316.809291 212.338881 
L 305.842509 226.902356 
L 298.46971 242.794714 
L 292.780949 259.148113 
L 287.810984 276.532074 
L 286.291243 295.109318 
L 275.653054 309.428713 
L 261.338734 320.276738 
L 251.337194 335.409734 
L 249.673693 352.549615 
L 255.752658 367.330051 
L 253.637343 383.92753 
L 248.359322 399.141886 
L 237.207707 411.834077 
L 222.051369 421.271859 
L 212.049828 433.747089 
L 204.902937 449.883527 
L 191.348488 461.653635 
L 174.918852 461.979076 
L 159.37231 454.439698 
L 143.723082 456.148262 
L 130.907967 466.616607 
L 120.59837 481.315682 
L 112.835368 497.09956 
L 106.366199 512.774957 
L 96.508417 526.090909 
L 80.243078 525.060347 
L 63.690221 519.066812 
L 48.61603 509.466309 
L 37.115285 496.719879 
L 28.654023 480.095279 
L 33.336469 464.175801 
L 42.352232 450.724249 
L 53.380625 437.571018 
L 65.394795 425.61107 
L 78.168837 414.654563 
L 88.2936 401.772533 
L 95.194047 387.290418 
L 100.184548 370.937019 
L 105.544717 356.020984 
L 114.149738 339.586224 
L 127.416669 328.602598 
L 142.942674 320.79202 
L 150.500307 305.496303 
L 150.705677 288.736103 
L 148.446602 270.40294 
L 149.247547 254.158021 
L 157.544513 238.808064 
L 169.189017 226.685395 
L 170.62661 212.311761 
L 162.124274 198.426288 
L 154.50503 209.301434 
L 143.825767 220.691861 
L 134.193894 223.946269 
L 118.873259 218.061215 
L 104.189272 210.277756 
L 90.737508 203.68758 
L 76.361577 194.819319 
L 61.431146 186.113779 
L 46.767696 179.333762 
L 24.526077 171.740144 
L 23.786744 166.831413 
L 28.962079 154.735864 
L 38.203749 138.626545 
L 48.800864 124.958033 
L 53.873514 110.286078 
L 60.301608 98.59733 
L 66.688629 85.90514 
L 80.694893 85.227138 
L 93.448398 90.786751 
L 107.598421 97.539647 
L 120.926963 104.943425 
L 132.448245 99.817733 
L 143.825767 91.003712 
L 147.76888 80.264166 
L 153.786234 67.897417 
L 163.479719 54.825546 
L 171.345407 39.529829 
L 180.566539 31.909091 
L 192.313729 35.082138 
" style="fill:none;stroke:#000000;stroke-width:3;"/>
   </g>
  </g>
 </g>
 <defs>
  <clipPath id="p66ad4a295a">
   <rect height="543.6" width="364.908363" x="7.2" y="7.2"/>
  </clipPath>
 </defs>
</svg>
