<?xml version="1.0" encoding="utf-8" standalone="no"?>
<!DOCTYPE svg PUBLIC "-//W3C//DTD SVG 1.1//EN"
  "http://www.w3.org/Graphics/SVG/1.1/DTD/svg11.dtd">
<svg height="558pt" version="1.1" viewBox="0 0 403.476227 558" width="403.476227pt" xmlns="http://www.w3.org/2000/svg" xmlns:xlink="http://www.w3.org/1999/xlink">
 <metadata>
  <rdf:RDF xmlns:cc="http://creativecommons.org/ns#" xmlns:dc="http://purl.org/dc/elements/1.1/" xmlns:rdf="http://www.w3.org/1999/02/22-rdf-syntax-ns#">
   <cc:Work>
    <dc:type rdf:resource="http://purl.org/dc/dcmitype/StillImage"/>
    <dc:date>2021-05-26T19:21:48.977069</dc:date>
    <dc:format>image/svg+xml</dc:format>
    <dc:creator>
     <cc:Agent>
      <dc:title>Matplotlib v3.4.2, https://matplotlib.org/</dc:title>
     </cc:Agent>
    </dc:creator>
   </cc:Work>
  </rdf:RDF>
 </metadata>
 <defs>
  <style type="text/css">*{stroke-linecap:butt;stroke-linejoin:round;}</style>
 </defs>
 <g id="figure_1">
  <g id="patch_1">
   <path d="M 0 558 
L 403.476227 558 
L 403.476227 0 
L 0 0 
z
" style="fill:none;"/>
  </g>
  <g id="axes_1">
   <g id="LineCollection_1">
    <path clip-path="url(#pe1129c2e59)" d="M 254.61435 31.909091 
L 259.345612 46.747562 
L 257.483773 63.986799 
L 254.680062 81.283885 
L 254.241982 100.605715 
L 254.61435 118.741623 
L 245.677521 134.332141 
L 232.272278 146.335973 
L 218.910843 158.744752 
L 206.776032 173.525373 
L 194.86026 188.710943 
L 180.535049 200.309825 
L 166.582207 211.764083 
L 155.542595 224.057163 
L 152.125572 238.924559 
L 152.8265 257.089393 
L 154.600723 275.6881 
L 152.38842 293.216586 
L 141.458328 307.505483 
L 126.059822 314.071434 
L 115.064018 325.641392 
L 107.61666 339.843515 
L 101.746391 355.058009 
L 95.876121 372.152622 
L 89.239211 388.234863 
L 78.265311 402.957634 
L 65.560996 414.006944 
L 52.659545 425.143028 
L 41.598029 438.44848 
L 31.916464 451.782856 
L 24.885283 466.187453 
L 28.389922 482.298619 
L 36.625823 497.599888 
L 50.009162 509.777269 
L 65.670516 519.987756 
L 83.281325 526.090909 
L 99.534087 522.590997 
L 108.733764 507.781451 
L 115.436385 491.091787 
L 122.730415 476.426866 
L 131.689147 462.137968 
L 143.539207 450.220911 
L 158.609153 447.559821 
L 173.02198 454.443946 
L 188.98999 458.377732 
L 204.563728 450.828334 
L 214.289101 437.204709 
L 221.14505 421.556341 
L 232.973206 410.073158 
L 246.006081 401.366765 
L 256.519997 389.738958 
L 264.186394 374.698013 
L 266.880585 356.938128 
L 259.696076 340.393088 
L 260.440812 324.773645 
L 269.158601 310.224423 
L 279.738229 297.873493 
L 293.603455 289.138175 
L 299.035645 275.4567 
L 300.634637 260.213281 
L 305.541131 244.912012 
L 309.177194 230.42064 
L 315.02556 215.582169 
L 322.976709 199.904877 
L 334.366784 186.5705 
L 344.683565 174.306345 
L 354.014665 160.567021 
L 359.775415 146.220273 
L 367.879892 131.410727 
L 378.590944 118.857323 
L 367.945604 110.006305 
L 354.343225 103.961002 
L 345.406396 91.638998 
L 332.504945 81.37066 
L 316.755975 79.750866 
L 301.883164 76.366653 
L 293.515839 62.019906 
L 287.163682 47.817783 
L 286.484658 47.441759 
" style="fill:none;stroke:#000000;stroke-width:3;"/>
   </g>
  </g>
 </g>
 <defs>
  <clipPath id="pe1129c2e59">
   <rect height="543.6" width="389.076227" x="7.2" y="7.2"/>
  </clipPath>
 </defs>
</svg>
