<?xml version="1.0" encoding="utf-8" standalone="no"?>
<!DOCTYPE svg PUBLIC "-//W3C//DTD SVG 1.1//EN"
  "http://www.w3.org/Graphics/SVG/1.1/DTD/svg11.dtd">
<svg height="558pt" version="1.1" viewBox="0 0 384.7619 558" width="384.7619pt" xmlns="http://www.w3.org/2000/svg" xmlns:xlink="http://www.w3.org/1999/xlink">
 <metadata>
  <rdf:RDF xmlns:cc="http://creativecommons.org/ns#" xmlns:dc="http://purl.org/dc/elements/1.1/" xmlns:rdf="http://www.w3.org/1999/02/22-rdf-syntax-ns#">
   <cc:Work>
    <dc:type rdf:resource="http://purl.org/dc/dcmitype/StillImage"/>
    <dc:date>2021-05-26T19:21:49.101342</dc:date>
    <dc:format>image/svg+xml</dc:format>
    <dc:creator>
     <cc:Agent>
      <dc:title>Matplotlib v3.4.2, https://matplotlib.org/</dc:title>
     </cc:Agent>
    </dc:creator>
   </cc:Work>
  </rdf:RDF>
 </metadata>
 <defs>
  <style type="text/css">*{stroke-linecap:butt;stroke-linejoin:round;}</style>
 </defs>
 <g id="figure_1">
  <g id="patch_1">
   <path d="M 0 558 
L 384.7619 558 
L 384.7619 0 
L 0 0 
z
" style="fill:none;"/>
  </g>
  <g id="axes_1">
   <g id="LineCollection_1">
    <path clip-path="url(#pbfc2184d2b)" d="M 24.034632 440.58739 
L 34.187108 446.236436 
L 47.017844 453.092074 
L 59.578678 462.059249 
L 66.014808 476.291554 
L 73.717402 489.618914 
L 80.402672 500.779893 
L 94.95663 495.240538 
L 109.676682 499.189385 
L 118.209744 512.516746 
L 130.770578 520.743511 
L 146.134243 526.090909 
L 164.279977 523.156696 
L 181.44991 522.800203 
L 199.637167 523.430922 
L 213.672082 511.035928 
L 222.765711 495.679298 
L 230.842016 479.966176 
L 239.39584 463.704602 
L 248.38566 447.278493 
L 258.185187 430.523314 
L 266.655964 414.481121 
L 275.521214 399.069646 
L 283.659804 382.588692 
L 285.341502 364.325272 
L 287.043962 345.650514 
L 287.293103 327.99039 
L 277.825763 312.030464 
L 280.317169 293.82189 
L 289.348512 275.695582 
L 300.580597 260.31153 
L 312.269439 247.697156 
L 323.771426 235.49412 
L 326.74035 218.738941 
L 326.366639 201.572423 
L 329.252517 183.939722 
L 334.505229 167.870106 
L 346.256356 155.721915 
L 360.727268 146.20629 
L 355.785981 130.877083 
L 339.757942 133.948409 
L 325.079413 141.708991 
L 313.266001 130.767393 
L 320.719454 114.999425 
L 331.141832 101.534952 
L 338.823665 85.245955 
L 341.398117 69.724791 
L 332.782007 55.273106 
L 321.487638 44.57831 
L 308.013288 38.216278 
L 293.957611 35.062684 
L 279.735841 31.909091 
L 266.261491 34.541656 
L 258.455089 46.168818 
L 259.20251 58.399277 
L 270.330786 65.693676 
L 283.057714 72.713849 
L 286.919392 86.644506 
L 290.262027 101.644642 
L 291.611538 116.946426 
L 284.261893 131.315844 
L 271.638774 141.489611 
L 256.316633 147.49515 
L 244.731599 160.328904 
L 236.343869 177.276042 
L 221.997528 184.13168 
L 206.530054 191.124431 
L 193.803127 202.3951 
L 185.975963 215.585347 
L 179.581356 229.488582 
L 174.16255 242.870787 
L 164.632926 259.077516 
L 150.245061 268.949635 
L 139.096023 283.40132 
L 139.158309 300.896908 
L 135.483486 318.090849 
L 121.92609 328.456573 
L 105.441293 335.367057 
L 91.510186 345.211753 
L 79.468395 360.074776 
L 71.433614 377.84459 
L 69.315919 395.367601 
L 73.115312 412.424429 
L 77.558318 428.905383 
L 73.385214 446.428394 
L 63.793305 460.688121 
L 53.620067 455.669794 
L 39.419058 454.819695 
L 29.370391 447.772099 
" style="fill:none;stroke:#000000;stroke-width:3;"/>
   </g>
  </g>
 </g>
 <defs>
  <clipPath id="pbfc2184d2b">
   <rect height="543.6" width="370.3619" x="7.2" y="7.2"/>
  </clipPath>
 </defs>
</svg>
