<?xml version="1.0" encoding="utf-8" standalone="no"?>
<!DOCTYPE svg PUBLIC "-//W3C//DTD SVG 1.1//EN"
  "http://www.w3.org/Graphics/SVG/1.1/DTD/svg11.dtd">
<svg height="558pt" version="1.1" viewBox="0 0 386.066402 558" width="386.066402pt" xmlns="http://www.w3.org/2000/svg" xmlns:xlink="http://www.w3.org/1999/xlink">
 <metadata>
  <rdf:RDF xmlns:cc="http://creativecommons.org/ns#" xmlns:dc="http://purl.org/dc/elements/1.1/" xmlns:rdf="http://www.w3.org/1999/02/22-rdf-syntax-ns#">
   <cc:Work>
    <dc:type rdf:resource="http://purl.org/dc/dcmitype/StillImage"/>
    <dc:date>2021-05-26T19:21:53.686050</dc:date>
    <dc:format>image/svg+xml</dc:format>
    <dc:creator>
     <cc:Agent>
      <dc:title>Matplotlib v3.4.2, https://matplotlib.org/</dc:title>
     </cc:Agent>
    </dc:creator>
   </cc:Work>
  </rdf:RDF>
 </metadata>
 <defs>
  <style type="text/css">*{stroke-linecap:butt;stroke-linejoin:round;}</style>
 </defs>
 <g id="figure_1">
  <g id="patch_1">
   <path d="M 0 558 
L 386.066402 558 
L 386.066402 0 
L 0 0 
z
" style="fill:none;"/>
  </g>
  <g id="axes_1">
   <g id="LineCollection_1">
    <path clip-path="url(#p906355163b)" d="M 24.093927 440.094863 
L 38.617836 451.335637 
L 55.930002 458.893615 
L 65.876174 472.085722 
L 72.201773 488.68579 
L 80.504122 500.806038 
L 96.21408 495.034491 
L 112.548275 502.537502 
L 121.391629 517.048819 
L 136.914317 522.655465 
L 153.352551 526.090909 
L 170.810373 520.924001 
L 188.934046 523.974675 
L 207.016104 519.412405 
L 219.438416 505.890496 
L 228.510657 489.977517 
L 236.563311 472.443008 
L 245.385857 456.694931 
L 254.603753 440.946853 
L 264.00892 424.759039 
L 272.540156 410.247721 
L 282.07017 392.38341 
L 288.000419 373.639625 
L 287.459414 353.74153 
L 289.727474 335.492449 
L 284.317422 317.738072 
L 280.530386 299.901244 
L 288.125267 282.284285 
L 297.135084 267.223296 
L 308.870735 252.684495 
L 320.731233 240.234444 
L 329.158429 225.420808 
L 327.410566 207.391595 
L 330.073977 190.406758 
L 333.465663 173.586821 
L 343.120525 159.625175 
L 356.29192 150.005931 
L 361.972475 135.302228 
L 347.032408 130.13532 
L 332.924658 139.397278 
L 316.985813 137.061176 
L 317.651665 120.32369 
L 327.681069 106.471978 
L 336.64927 91.658341 
L 342.974869 75.635428 
L 338.064207 58.897943 
L 326.39098 47.519751 
L 311.430105 37.653154 
L 295.387221 34.410094 
L 280.010189 31.909091 
L 266.485059 34.520029 
L 258.536444 47.684652 
L 262.073786 60.794308 
L 275.224374 66.318503 
L 286.210941 78.328817 
L 287.89638 94.7365 
L 292.4325 110.951798 
L 288.395769 126.699875 
L 275.536492 139.204893 
L 260.492386 145.581078 
L 247.945228 156.162247 
L 240.932968 171.443104 
L 227.407838 181.117316 
L 212.717467 186.916346 
L 199.296376 196.150821 
L 188.913238 210.964457 
L 182.129866 224.678752 
L 176.740622 239.190069 
L 169.020894 254.196091 
L 157.326859 265.271964 
L 144.7797 274.698824 
L 138.807835 291.381342 
L 139.036722 308.915851 
L 132.232541 322.492727 
L 118.811451 329.336133 
L 104.204311 335.629867 
L 92.655931 344.781891 
L 80.067156 359.045856 
L 71.63996 376.333013 
L 68.706047 393.565203 
L 71.972886 409.505665 
L 77.403746 425.006391 
L 77.112436 440.672017 
L 68.706047 455.018434 
L 57.615441 460.240309 
L 44.652124 454.248894 
L 31.002147 448.779666 
L 28.796511 445.728992 
" style="fill:none;stroke:#000000;stroke-width:3;"/>
   </g>
  </g>
 </g>
 <defs>
  <clipPath id="p906355163b">
   <rect height="543.6" width="371.666402" x="7.2" y="7.2"/>
  </clipPath>
 </defs>
</svg>
