<?xml version="1.0" encoding="utf-8" standalone="no"?>
<!DOCTYPE svg PUBLIC "-//W3C//DTD SVG 1.1//EN"
  "http://www.w3.org/Graphics/SVG/1.1/DTD/svg11.dtd">
<svg height="558pt" version="1.1" viewBox="0 0 385.733075 558" width="385.733075pt" xmlns="http://www.w3.org/2000/svg" xmlns:xlink="http://www.w3.org/1999/xlink">
 <metadata>
  <rdf:RDF xmlns:cc="http://creativecommons.org/ns#" xmlns:dc="http://purl.org/dc/elements/1.1/" xmlns:rdf="http://www.w3.org/1999/02/22-rdf-syntax-ns#">
   <cc:Work>
    <dc:type rdf:resource="http://purl.org/dc/dcmitype/StillImage"/>
    <dc:date>2021-05-26T19:21:54.002759</dc:date>
    <dc:format>image/svg+xml</dc:format>
    <dc:creator>
     <cc:Agent>
      <dc:title>Matplotlib v3.4.2, https://matplotlib.org/</dc:title>
     </cc:Agent>
    </dc:creator>
   </cc:Work>
  </rdf:RDF>
 </metadata>
 <defs>
  <style type="text/css">*{stroke-linecap:butt;stroke-linejoin:round;}</style>
 </defs>
 <g id="figure_1">
  <g id="patch_1">
   <path d="M 0 558 
L 385.733075 558 
L 385.733075 0 
L 0 0 
z
" style="fill:none;"/>
  </g>
  <g id="axes_1">
   <g id="LineCollection_1">
    <path clip-path="url(#p4029988200)" d="M 24.078776 441.338659 
L 38.782232 452.561936 
L 54.547836 458.916292 
L 64.502867 472.065132 
L 70.480051 487.607171 
L 78.789795 500.948567 
L 93.722341 494.704243 
L 110.112738 501.856332 
L 120.734215 516.738178 
L 136.708083 523.14755 
L 153.473355 526.090909 
L 171.717303 522.542373 
L 191.25249 524.440427 
L 208.684207 516.765686 
L 221.3675 501.278663 
L 230.114599 484.691319 
L 237.966161 468.324039 
L 247.546316 451.489123 
L 256.793249 435.451939 
L 265.248778 419.552296 
L 275.203809 403.515113 
L 283.971734 386.432624 
L 287.303962 367.809685 
L 287.595532 347.948885 
L 288.907597 328.610738 
L 278.80678 311.858346 
L 281.222646 293.785568 
L 290.282141 275.602758 
L 300.778659 260.363307 
L 312.7122 247.792136 
L 324.562436 234.368216 
L 327.6864 216.432978 
L 327.915491 198.882853 
L 330.581273 181.112664 
L 336.8292 164.8004 
L 349.512493 153.302042 
L 361.654299 141.748668 
L 353.177944 128.682352 
L 337.662257 135.091724 
L 321.834174 140.785887 
L 313.378646 126.261645 
L 322.875496 111.132227 
L 332.851353 97.24067 
L 340.348866 82.221284 
L 341.14027 66.074068 
L 330.602099 52.320052 
L 316.585915 41.591919 
L 301.153534 36.090312 
L 284.929749 34.907467 
L 270.122161 31.909091 
L 259.459032 41.564411 
L 257.855397 55.070855 
L 267.373073 64.038474 
L 280.993555 71.603183 
L 286.533384 86.099917 
L 290.302967 101.724479 
L 290.240488 119.577193 
L 282.055703 132.946097 
L 268.247783 142.711449 
L 253.336063 149.781014 
L 243.068635 165.433085 
L 232.155588 178.664449 
L 217.910314 184.331103 
L 203.560907 192.115877 
L 191.460754 204.522 
L 183.79663 218.798669 
L 177.756966 233.102846 
L 171.321601 247.46204 
L 162.345412 259.950687 
L 149.766251 269.578499 
L 139.311386 282.864879 
L 137.895189 299.012094 
L 136.478992 314.196529 
L 127.002969 325.887443 
L 113.07009 331.334033 
L 98.304155 339.476411 
L 86.97458 349.929464 
L 76.957069 363.738497 
L 69.355424 379.583124 
L 68.251624 396.170468 
L 71.70881 410.997298 
L 76.373929 426.126716 
L 75.540872 441.03607 
L 68.918069 455.917916 
L 56.672131 460.539266 
L 43.322393 454.652547 
L 30.659926 450.196245 
L 28.514805 447.968095 
" style="fill:none;stroke:#000000;stroke-width:3;"/>
   </g>
  </g>
 </g>
 <defs>
  <clipPath id="p4029988200">
   <rect height="543.6" width="371.333075" x="7.2" y="7.2"/>
  </clipPath>
 </defs>
</svg>
