<?xml version="1.0" encoding="utf-8" standalone="no"?>
<!DOCTYPE svg PUBLIC "-//W3C//DTD SVG 1.1//EN"
  "http://www.w3.org/Graphics/SVG/1.1/DTD/svg11.dtd">
<svg height="558pt" version="1.1" viewBox="0 0 384.947543 558" width="384.947543pt" xmlns="http://www.w3.org/2000/svg" xmlns:xlink="http://www.w3.org/1999/xlink">
 <metadata>
  <rdf:RDF xmlns:cc="http://creativecommons.org/ns#" xmlns:dc="http://purl.org/dc/elements/1.1/" xmlns:rdf="http://www.w3.org/1999/02/22-rdf-syntax-ns#">
   <cc:Work>
    <dc:type rdf:resource="http://purl.org/dc/dcmitype/StillImage"/>
    <dc:date>2021-05-26T19:21:56.282160</dc:date>
    <dc:format>image/svg+xml</dc:format>
    <dc:creator>
     <cc:Agent>
      <dc:title>Matplotlib v3.4.2, https://matplotlib.org/</dc:title>
     </cc:Agent>
    </dc:creator>
   </cc:Work>
  </rdf:RDF>
 </metadata>
 <defs>
  <style type="text/css">*{stroke-linecap:butt;stroke-linejoin:round;}</style>
 </defs>
 <g id="figure_1">
  <g id="patch_1">
   <path d="M 0 558 
L 384.947543 558 
L 384.947543 0 
L 0 0 
z
" style="fill:none;"/>
  </g>
  <g id="axes_1">
   <g id="LineCollection_1">
    <path clip-path="url(#p84a7768b4c)" d="M 24.063947 445.354141 
L 36.944678 452.826704 
L 52.497587 456.962809 
L 62.664389 471.246158 
L 67.319823 486.99093 
L 74.250784 501.357002 
L 87.945695 496.062787 
L 104.229278 498.820191 
L 115.773921 512.359041 
L 127.506451 521.293027 
L 142.516574 526.090909 
L 158.758404 524.877652 
L 175.626526 522.0651 
L 192.223255 525.180966 
L 207.588277 518.949235 
L 218.673639 504.69346 
L 227.045071 489.886204 
L 234.226548 474.417171 
L 242.890249 459.196305 
L 251.992355 443.258514 
L 260.071517 427.320723 
L 268.881353 412.623764 
L 277.941705 398.478285 
L 284.872666 383.422863 
L 284.830914 366.189092 
L 286.313137 347.163009 
L 286.647159 330.61859 
L 278.08784 315.066835 
L 279.048154 297.281584 
L 287.148193 281.012904 
L 297.732522 265.350854 
L 308.37948 252.005022 
L 320.86356 239.376115 
L 327.356117 224.072526 
L 325.727758 206.756034 
L 328.128543 189.798003 
L 331.510518 173.749916 
L 340.654376 160.266214 
L 354.829444 151.194357 
L 360.904473 137.517637 
L 347.961112 129.631464 
L 334.32883 137.517637 
L 318.212259 139.365097 
L 313.201925 125.274766 
L 323.326974 110.688103 
L 332.262068 97.287123 
L 339.568804 82.452293 
L 340.570871 67.920778 
L 331.155619 54.46465 
L 318.274888 44.317406 
L 304.517348 38.223544 
L 290.822437 35.631585 
L 277.085774 31.909091 
L 264.706075 34.473476 
L 256.543407 45.944274 
L 258.714552 58.931643 
L 270.259195 65.494263 
L 282.283994 72.939252 
L 286.271384 86.781416 
L 289.110573 100.899321 
L 290.822437 116.671668 
L 282.680646 131.782238 
L 271.261261 141.350428 
L 256.146756 147.196123 
L 243.224272 159.135679 
L 236.418569 173.749916 
L 224.62341 182.463311 
L 210.657106 188.391728 
L 197.588487 196.939678 
L 188.027101 208.30018 
L 181.764184 220.763642 
L 175.939672 232.868643 
L 171.054597 246.628085 
L 164.812557 257.933439 
L 155.251171 268.935478 
L 143.81091 278.476093 
L 141.243114 290.663816 
L 142.579203 303.320297 
L 142.474821 316.886721 
L 136.06577 327.778464 
L 125.731958 334.148066 
L 113.05999 336.243692 
L 101.056067 343.881699 
L 90.764007 353.229297 
L 82.789227 365.251575 
L 77.382242 378.459537 
L 75.670379 391.529628 
L 76.839456 405.123627 
L 77.945905 418.13857 
L 79.574263 430.326293 
L 74.543054 442.679459 
L 65.858476 455.694403 
L 56.171832 463.415132 
L 45.169975 455.528959 
L 31.433312 455.446237 
L 24.04307 446.677694 
" style="fill:none;stroke:#000000;stroke-width:3;"/>
   </g>
  </g>
 </g>
 <defs>
  <clipPath id="p84a7768b4c">
   <rect height="543.6" width="370.547543" x="7.2" y="7.2"/>
  </clipPath>
 </defs>
</svg>
