<?xml version="1.0" encoding="utf-8" standalone="no"?>
<!DOCTYPE svg PUBLIC "-//W3C//DTD SVG 1.1//EN"
  "http://www.w3.org/Graphics/SVG/1.1/DTD/svg11.dtd">
<svg height="558pt" version="1.1" viewBox="0 0 387.669211 558" width="387.669211pt" xmlns="http://www.w3.org/2000/svg" xmlns:xlink="http://www.w3.org/1999/xlink">
 <metadata>
  <rdf:RDF xmlns:cc="http://creativecommons.org/ns#" xmlns:dc="http://purl.org/dc/elements/1.1/" xmlns:rdf="http://www.w3.org/1999/02/22-rdf-syntax-ns#">
   <cc:Work>
    <dc:type rdf:resource="http://purl.org/dc/dcmitype/StillImage"/>
    <dc:date>2021-05-26T19:21:56.968109</dc:date>
    <dc:format>image/svg+xml</dc:format>
    <dc:creator>
     <cc:Agent>
      <dc:title>Matplotlib v3.4.2, https://matplotlib.org/</dc:title>
     </cc:Agent>
    </dc:creator>
   </cc:Work>
  </rdf:RDF>
 </metadata>
 <defs>
  <style type="text/css">*{stroke-linecap:butt;stroke-linejoin:round;}</style>
 </defs>
 <g id="figure_1">
  <g id="patch_1">
   <path d="M 0 558 
L 387.669211 558 
L 387.669211 0 
L 0 0 
z
" style="fill:none;"/>
  </g>
  <g id="axes_1">
   <g id="LineCollection_1">
    <path clip-path="url(#p797fbd96d3)" d="M 24.166782 440.065039 
L 37.725236 449.78827 
L 54.195013 454.512551 
L 68.148575 461.598973 
L 77.277656 448.250131 
L 81.686233 432.182081 
L 77.236066 416.168964 
L 73.139417 397.738773 
L 73.846453 378.759247 
L 81.249534 362.114394 
L 90.752929 348.710619 
L 103.874684 337.943652 
L 119.637425 330.472695 
L 134.173252 322.699604 
L 142.678478 307.895024 
L 141.76349 290.014168 
L 149.249753 274.77012 
L 163.22411 264.662355 
L 174.07919 252.631917 
L 180.941598 236.234266 
L 188.531836 219.259812 
L 197.515351 203.219229 
L 209.306215 191.435992 
L 224.23715 185.228506 
L 240.124663 175.642609 
L 247.673311 160.096427 
L 259.713716 148.835058 
L 273.646483 142.215571 
L 285.93643 132.32754 
L 293.900982 120.791503 
L 294.753584 104.970654 
L 290.885682 89.616739 
L 287.891177 74.262824 
L 275.455663 65.74813 
L 263.394462 56.079833 
L 263.436052 41.934456 
L 278.013469 31.909091 
L 292.882019 36.166438 
L 307.771363 38.858179 
L 324.137165 44.763531 
L 337.654028 55.00863 
L 345.868121 68.906807 
L 342.457713 84.810057 
L 334.243619 99.175169 
L 324.677839 112.414144 
L 316.255794 124.938983 
L 322.078443 139.688629 
L 335.408149 139.359028 
L 348.987398 130.679534 
L 363.502429 134.827014 
L 360.258382 149.356926 
L 347.843663 156.196148 
L 337.570847 167.951918 
L 332.580005 183.086099 
L 330.001404 198.632281 
L 329.5855 214.37073 
L 329.606296 230.136647 
L 319.520636 242.496685 
L 308.811122 254.307389 
L 298.746258 266.475161 
L 290.365803 279.686669 
L 282.31807 294.848316 
L 281.486263 311.081167 
L 289.887514 324.622277 
L 291.571923 340.525526 
L 288.847755 354.698371 
L 288.972526 370.601621 
L 285.354166 385.653402 
L 278.263011 399.798779 
L 271.920483 414.795626 
L 264.122293 427.897267 
L 255.263549 440.834108 
L 247.319793 454.842152 
L 239.417627 470.882736 
L 230.496497 486.016917 
L 223.342957 501.288431 
L 215.461586 516.010611 
L 202.443808 524.058369 
L 184.476777 521.037027 
L 168.173361 522.10823 
L 152.285848 526.090909 
L 136.89742 520.295424 
L 122.507159 512.275132 
L 113.003765 498.734023 
L 98.530324 493.817474 
L 81.748619 491.070799 
L 69.666623 480.056631 
L 63.781588 465.114718 
L 52.385833 453.386414 
L 37.246947 453.880816 
L 28.845696 443.333583 
" style="fill:none;stroke:#000000;stroke-width:3;"/>
   </g>
  </g>
 </g>
 <defs>
  <clipPath id="p797fbd96d3">
   <rect height="543.6" width="373.269211" x="7.2" y="7.2"/>
  </clipPath>
 </defs>
</svg>
