<?xml version="1.0" encoding="utf-8" standalone="no"?>
<!DOCTYPE svg PUBLIC "-//W3C//DTD SVG 1.1//EN"
  "http://www.w3.org/Graphics/SVG/1.1/DTD/svg11.dtd">
<svg height="558pt" version="1.1" viewBox="0 0 287.81043 558" width="287.81043pt" xmlns="http://www.w3.org/2000/svg" xmlns:xlink="http://www.w3.org/1999/xlink">
 <metadata>
  <rdf:RDF xmlns:cc="http://creativecommons.org/ns#" xmlns:dc="http://purl.org/dc/elements/1.1/" xmlns:rdf="http://www.w3.org/1999/02/22-rdf-syntax-ns#">
   <cc:Work>
    <dc:type rdf:resource="http://purl.org/dc/dcmitype/StillImage"/>
    <dc:date>2021-05-26T19:21:57.727920</dc:date>
    <dc:format>image/svg+xml</dc:format>
    <dc:creator>
     <cc:Agent>
      <dc:title>Matplotlib v3.4.2, https://matplotlib.org/</dc:title>
     </cc:Agent>
    </dc:creator>
   </cc:Work>
  </rdf:RDF>
 </metadata>
 <defs>
  <style type="text/css">*{stroke-linecap:butt;stroke-linejoin:round;}</style>
 </defs>
 <g id="figure_1">
  <g id="patch_1">
   <path d="M 0 558 
L 287.81043 558 
L 287.81043 0 
L 0 0 
z
" style="fill:none;"/>
  </g>
  <g id="axes_1">
   <g id="LineCollection_1">
    <path clip-path="url(#p0c725804be)" d="M 197.929026 102.836761 
L 197.394836 102.464041 
L 193.808129 103.531834 
L 191.50348 106.498486 
L 188.595958 111.182674 
L 185.783828 116.491421 
L 178.301348 129.733066 
L 174.279658 136.341296 
L 170.467828 143.211438 
L 166.54153 150.696065 
L 158.509597 164.511901 
L 157.22754 174.595497 
L 157.345825 188.683318 
L 158.860636 194.168351 
L 160.249531 194.405078 
L 158.334077 200.660736 
L 157.586211 207.26393 
L 151.500257 220.691935 
L 149.260473 226.559762 
L 149.233764 228.881708 
L 147.898288 230.825898 
L 139.751886 236.326041 
L 137.660912 239.086186 
L 135.22653 245.024528 
L 133.36068 252.478934 
L 130.033437 260.220436 
L 126.240686 271.47256 
L 122.157946 280.427922 
L 117.228133 289.438687 
L 113.175917 298.157321 
L 109.810519 305.727573 
L 106.658796 312.199811 
L 102.606581 318.803005 
L 99.515908 324.983111 
L 96.112353 331.284099 
L 88.942756 343.634237 
L 86.069575 349.607836 
L 88.358962 355.062648 
L 90.903997 360.653453 
L 91.442003 363.388414 
L 91.560288 363.610032 
L 95.963542 366.450765 
L 101.492412 369.306609 
L 103.079721 371.371681 
L 101.633591 375.647891 
L 99.016059 377.53164 
L 97.951494 380.06513 
L 92.445518 389.327734 
L 90.18284 392.128173 
L 89.393002 396.132398 
L 89.698253 397.497361 
L 92.849976 399.864638 
L 97.005214 402.619747 
L 98.134645 403.742945 
L 97.352437 406.115259 
L 96.016962 408.004044 
L 94.540307 411.187277 
L 92.670641 413.685511 
L 94.227424 416.732751 
L 91.983825 420.691646 
L 88.977096 425.028297 
L 85.283552 431.158035 
L 76.831898 444.716996 
L 73.672544 448.711148 
L 70.856598 452.468572 
L 67.197394 459.429376 
L 67.231735 460.874926 
L 71.440391 464.47621 
L 75.408662 464.501394 
L 80.372817 460.718786 
L 82.540103 457.334083 
L 86.256541 460.461912 
L 90.911628 462.471579 
L 93.479558 464.224372 
L 95.505665 465.972128 
L 89.309057 475.30021 
L 84.844753 483.641086 
L 79.65166 489.065678 
L 75.881802 493.890895 
L 71.863928 497.325966 
L 73.38637 500.851699 
L 72.604163 505.022137 
L 70.333854 508.678826 
L 62.549938 516.02746 
L 56.685292 520.95845 
L 50.385662 524.096352 
L 44.219579 526.090909 
L 41.846248 523.703484 
L 39.720934 522.439257 
L 36.943144 518.495473 
L 34.997165 513.574558 
L 28.525831 511.504449 
L 22.638291 510.174744 
L 19.627747 511.308015 
L 21.489782 511.665625 
L 23.668515 511.514522 
L 24.939125 508.487429 
L 26.827869 502.659896 
L 28.510569 496.046629 
L 31.055604 489.191597 
L 32.738303 482.180426 
L 34.134829 475.118886 
L 34.600338 469.0647 
L 36.939329 464.451026 
L 39.881191 461.544815 
L 41.697438 456.145407 
L 41.647835 453.863754 
L 43.30764 448.746405 
L 44.063138 436.058804 
L 49.019661 384.134833 
L 49.530957 376.625023 
L 49.859103 369.200837 
L 51.690613 347.53269 
L 51.797451 339.856666 
L 52.465188 332.714539 
L 54.670631 326.262448 
L 59.474528 298.555225 
L 59.882803 290.81876 
L 57.746041 284.05439 
L 57.898667 277.284983 
L 61.874569 262.864736 
L 64.606571 256.372351 
L 68.525239 249.381326 
L 70.906201 246.444894 
L 75.374322 248.560334 
L 79.174704 250.655627 
L 83.265076 253.184081 
L 87.286766 255.390182 
L 90.522433 256.18599 
L 91.487791 255.873711 
L 96.348923 259.666392 
L 104.857811 263.413743 
L 106.116974 263.383522 
L 107.307455 264.093705 
L 113.778789 268.279254 
L 115.564511 270.409804 
L 120.662213 273.814654 
L 124.271813 275.653072 
L 125.37835 276.766196 
L 130.430265 278.342703 
L 134.726681 280.090459 
L 135.749274 280.956782 
L 139.194801 277.345424 
L 142.293105 273.794507 
L 144.075011 269.392378 
L 145.631795 267.256791 
L 148.428662 261.932935 
L 151.729195 255.339815 
L 154.976309 249.114378 
L 160.47847 242.742875 
L 163.050214 237.101703 
L 163.107449 235.777034 
L 163.397438 233.006816 
L 165.591434 229.491156 
L 168.800392 224.953035 
L 172.558802 220.309141 
L 174.806217 213.680763 
L 177.87018 207.999297 
L 180.018388 203.058234 
L 180.995193 202.952462 
L 179.335388 199.562722 
L 180.861646 193.518608 
L 183.902715 186.48729 
L 188.313601 181.561338 
L 193.28157 182.891043 
L 199.562122 180.428066 
L 203.923405 174.479651 
L 207.361301 171.840389 
L 208.59757 163.912527 
L 210.837354 156.040069 
L 214.901016 150.640661 
L 216.610425 144.143239 
L 218.74337 138.723684 
L 223.234384 133.399828 
L 226.37466 126.6002 
L 231.781429 122.686637 
L 238.367233 122.711821 
L 243.205471 116.879251 
L 254.030456 96.848052 
L 254.908054 88.028683 
L 253.576394 79.974902 
L 258.395554 72.671599 
L 261.795294 65.620133 
L 262.920909 57.868558 
L 268.182684 51.476908 
L 259.601298 51.139445 
L 263.317736 43.629634 
L 262.947618 36.406919 
L 256.97995 32.704899 
L 250.86347 31.909091 
L 248.417642 35.998941 
L 250.699398 38.512285 
L 253.336009 42.043054 
L 253.770992 48.797351 
L 246.734943 53.824039 
L 242.083671 59.495432 
L 236.791371 63.242782 
L 234.303571 67.876602 
L 232.147731 72.540643 
L 227.34765 77.018324 
L 226.508208 83.938833 
L 217.129352 90.597432 
L 213.985261 97.538088 
L 215.423759 104.539186 
L 214.09973 109.389587 
L 209.845286 113.917636 
L 207.62458 114.869583 
L 208.223637 112.074181 
L 206.258579 107.722419 
L 202.255968 105.068046 
L 198.096915 102.474114 
L 198.096915 102.474114 
" style="fill:none;stroke:#000000;stroke-width:3;"/>
   </g>
  </g>
 </g>
 <defs>
  <clipPath id="p0c725804be">
   <rect height="543.6" width="273.41043" x="7.2" y="7.2"/>
  </clipPath>
 </defs>
</svg>
