<?xml version="1.0" encoding="utf-8" standalone="no"?>
<!DOCTYPE svg PUBLIC "-//W3C//DTD SVG 1.1//EN"
  "http://www.w3.org/Graphics/SVG/1.1/DTD/svg11.dtd">
<svg height="568.8pt" version="1.1" viewBox="0 0 418.215127 568.8" width="418.215127pt" xmlns="http://www.w3.org/2000/svg" xmlns:xlink="http://www.w3.org/1999/xlink">
 <metadata>
  <rdf:RDF xmlns:cc="http://creativecommons.org/ns#" xmlns:dc="http://purl.org/dc/elements/1.1/" xmlns:rdf="http://www.w3.org/1999/02/22-rdf-syntax-ns#">
   <cc:Work>
    <dc:type rdf:resource="http://purl.org/dc/dcmitype/StillImage"/>
    <dc:date>2021-06-06T03:01:23.576127</dc:date>
    <dc:format>image/svg+xml</dc:format>
    <dc:creator>
     <cc:Agent>
      <dc:title>Matplotlib v3.4.2, https://matplotlib.org/</dc:title>
     </cc:Agent>
    </dc:creator>
   </cc:Work>
  </rdf:RDF>
 </metadata>
 <defs>
  <style type="text/css">*{stroke-linecap:butt;stroke-linejoin:round;}</style>
 </defs>
 <g id="figure_1">
  <g id="patch_1">
   <path d="M 0 568.8 
L 418.215127 568.8 
L 418.215127 0 
L 0 0 
z
" style="fill:#ffffff;"/>
  </g>
  <g id="axes_1">
   <g id="LineCollection_1">
    <path clip-path="url(#pbae1c1ddd9)" d="M 217.822059 55.271905 
L 217.737263 55.60775 
L 218.069927 55.538859 
L 220.463804 57.25253 
L 220.900833 57.536706 
L 221.892303 58.027557 
L 222.407606 58.268676 
L 222.962046 58.29451 
L 228.193353 60.43014 
L 228.369469 60.826265 
L 229.726217 61.239612 
L 230.143678 61.058773 
L 230.58723 60.619591 
L 231.565654 59.121206 
L 232.426667 58.191173 
L 232.87022 57.450592 
L 233.385523 57.304198 
L 234.657474 58.113671 
L 235.903334 58.880086 
L 237.23399 59.474273 
L 241.239006 60.447363 
L 243.07192 61.153498 
L 244.930925 62.178256 
L 246.483358 63.426911 
L 246.946479 63.54747 
L 248.348886 63.564693 
L 249.444721 64.167492 
L 249.933933 65.01141 
L 253.586716 67.379548 
L 254.760824 67.93929 
L 265.608284 73.114747 
L 266.756302 73.855328 
L 268.4131 75.078149 
L 269.47632 76.128741 
L 270.506927 79.082454 
L 270.800454 80.710011 
L 271.015707 82.527018 
L 271.217915 83.319268 
L 272.672505 86.419376 
L 273.103012 87.013563 
L 274.32278 88.201938 
L 275.405569 89.037244 
L 275.718665 88.735845 
L 276.175263 88.511948 
L 277.310235 88.847793 
L 277.355895 89.967277 
L 279.012692 93.170721 
L 279.671498 94.496878 
L 280.467283 95.711087 
L 281.791416 97.149193 
L 282.711135 97.941442 
L 283.683036 99.069537 
L 284.491866 99.560388 
L 284.974556 100.292357 
L 285.548564 101.067384 
L 286.455237 101.825188 
L 286.931403 102.195479 
L 289.357895 103.332185 
L 289.931904 103.478579 
L 291.027738 104.003875 
L 291.549564 104.210549 
L 294.047807 105.751991 
L 294.582679 105.881163 
L 295.169733 106.156728 
L 295.795924 106.285899 
L 297.791909 107.680947 
L 299.279114 108.421529 
L 300.107512 109.144887 
L 300.935911 109.446286 
L 301.457738 109.799354 
L 302.012178 109.696017 
L 302.781871 110.221313 
L 303.668976 110.539935 
L 304.269076 110.849946 
L 304.732196 110.789666 
L 304.634354 110.56577 
L 304.862653 110.841335 
L 305.71062 111.452745 
L 305.697575 111.358019 
L 305.8476 112.244995 
L 306.219401 112.710011 
L 306.871683 113.200861 
L 307.863153 113.751991 
L 309.05683 114.036168 
L 309.604747 114.320344 
L 310.067868 114.742304 
L 310.628831 115.000646 
L 312.990094 116.774596 
L 313.609763 116.757374 
L 315.01217 117.403229 
L 315.344835 117.472121 
L 315.716636 117.377395 
L 316.036254 117.971582 
L 317.869168 119.1169 
L 318.384472 119.271905 
L 319.85863 120.141658 
L 320.732689 120.623897 
L 321.606748 121.330032 
L 322.219893 121.175027 
L 322.728674 121.528095 
L 323.302683 121.56254 
L 325.579149 122.656189 
L 326.140112 123.017869 
L 326.244477 122.802583 
L 326.316228 122.458127 
L 326.335797 122.561464 
L 326.427116 122.664801 
L 326.479299 122.544241 
L 326.8511 122.742304 
L 327.555565 122.811195 
L 328.984064 123.629279 
L 328.971019 123.629279 
L 329.081907 123.603445 
L 329.179749 124.068461 
L 330.008148 125.618515 
L 332.799918 128.124435 
L 333.615271 128.227772 
L 335.480799 129.691712 
L 337.235439 130.776749 
L 338.533482 130.992034 
L 339.740205 131.560388 
L 340.796903 131.474273 
L 340.894745 131.57761 
L 340.822994 131.629279 
L 340.614263 132.042626 
L 340.594695 132.137352 
L 340.607741 132.137352 
L 340.783857 132.30958 
L 341.279592 132.697094 
L 342.19931 133.127664 
L 342.695045 133.480732 
L 343.869154 134.006028 
L 350.078884 137.080301 
L 350.705076 137.243918 
L 351.859616 137.795048 
L 352.185757 138.303122 
L 352.635832 138.690635 
L 353.131567 138.880086 
L 353.666439 138.948977 
L 354.710091 139.560388 
L 355.075369 139.922067 
L 355.577627 140.111518 
L 356.640848 141.015716 
L 357.567089 141.627126 
L 358.095438 141.89408 
L 360.717614 143.883315 
L 361.53949 143.754144 
L 362.628802 144.227772 
L 364.950928 145.588375 
L 365.674962 145.734769 
L 366.196788 145.993111 
L 367.990565 146.948977 
L 368.368889 147.448439 
L 369.327745 148.102906 
L 369.679977 148.49042 
L 370.619264 148.929602 
L 371.017157 149.22239 
L 371.525937 149.239612 
L 372.126037 149.394618 
L 373.169689 150.152422 
L 373.698038 150.548547 
L 374.337275 150.772443 
L 375.38745 151.452745 
L 375.889708 151.642196 
L 377.990058 152.787513 
L 379.053278 153.416146 
L 383.090908 155.629279 
L 384.232403 156.128741 
L 386.528437 157.558235 
L 387.167674 158.126588 
L 388.700539 158.901615 
L 390.539976 159.943595 
L 391.459694 160.451668 
L 392.203296 161.063079 
L 392.659894 161.149193 
L 392.496823 161.028633 
L 391.831495 161.140581 
L 391.609719 160.606674 
L 390.22688 159.573305 
L 388.896223 158.824112 
L 387.52643 158.350484 
L 387.082878 158.548547 
L 386.652371 158.918837 
L 386.32623 159.375242 
L 386.182728 159.831647 
L 385.647856 160.649731 
L 384.865117 161.114747 
L 384.721614 161.373089 
L 384.441133 161.528095 
L 384.610726 162.225619 
L 385.530445 163.258988 
L 386.854579 164.206243 
L 387.493816 164.826265 
L 388.322215 165.084607 
L 389.157136 165.859634 
L 389.528937 165.911302 
L 389.67244 166.359096 
L 389.555029 166.393541 
L 389.32673 166.393541 
L 388.98102 166.049085 
L 388.511377 165.876857 
L 386.724122 164.705705 
L 385.106461 164.163186 
L 384.891208 163.896233 
L 384.238925 163.525942 
L 383.886693 162.750915 
L 383.593166 162.483961 
L 383.247456 161.86394 
L 381.668932 161.398924 
L 381.107969 161.347255 
L 380.53396 161.13197 
L 380.123022 160.649731 
L 379.196781 160.374166 
L 378.127037 159.487191 
L 377.14209 159.220237 
L 376.757244 158.591604 
L 376.085393 158.152422 
L 375.713591 157.851023 
L 375.080877 157.8338 
L 374.565574 157.618515 
L 373.965474 157.196555 
L 371.128045 155.93929 
L 369.966982 155.629279 
L 369.882185 155.250377 
L 369.653886 154.871475 
L 369.027695 154.432293 
L 368.192773 153.993111 
L 367.123029 153.441981 
L 366.079377 152.778902 
L 364.455193 152.4 
L 364.057301 152.055544 
L 363.528952 151.926372 
L 357.143105 148.094295 
L 356.575619 147.63789 
L 355.903768 147.327879 
L 355.388465 146.768138 
L 353.327252 146.087836 
L 352.994588 145.640043 
L 352.466239 145.304198 
L 351.905276 145.149193 
L 350.985557 144.417223 
L 350.444163 144.158881 
L 349.022186 143.151346 
L 348.017671 142.712164 
L 347.671961 142.333262 
L 346.315214 141.65296 
L 345.408541 140.929602 
L 344.769304 140.722928 
L 342.577634 139.75845 
L 342.264538 139.345102 
L 341.018679 138.664801 
L 339.772819 138.406459 
L 339.316221 138.027557 
L 338.957466 137.975888 
L 336.654908 136.675565 
L 333.569611 134.522713 
L 332.754258 133.670183 
L 331.240962 133.28267 
L 329.975534 132.722928 
L 329.284114 131.990958 
L 328.566603 131.508719 
L 327.868661 131.508719 
L 327.15115 131.095371 
L 326.609755 131.052314 
L 326.081407 130.699247 
L 325.624809 130.59591 
L 325.435647 130.277287 
L 324.913821 130.251453 
L 324.176741 129.631432 
L 323.915828 129.235307 
L 322.663446 128.391389 
L 321.35888 127.736921 
L 320.563096 127.1169 
L 319.017186 126.531324 
L 318.573634 126.031862 
L 318.35838 125.764909 
L 318.221401 125.403229 
L 317.171226 124.697094 
L 316.179756 124.275135 
L 315.207855 124.077072 
L 314.301182 123.930678 
L 313.851107 123.508719 
L 313.655423 123.155651 
L 313.146642 123.078149 
L 312.187787 122.423681 
L 310.700582 120.382777 
L 309.989594 119.926372 
L 309.422108 119.960818 
L 306.225923 118.858558 
L 304.55608 117.670183 
L 303.903797 117.497955 
L 303.016693 116.765985 
L 302.442684 116.524865 
L 302.129589 116.223466 
L 298.248507 114.466738 
L 297.433154 113.906997 
L 296.546049 113.330032 
L 295.365418 112.641119 
L 295.182779 112.632508 
L 294.126081 112.288052 
L 292.841084 111.030786 
L 291.569133 110.290205 
L 291.171241 109.859634 
L 290.603755 109.687406 
L 289.436169 108.869322 
L 286.97054 108.292357 
L 285.639884 107.439828 
L 285.078921 107.457051 
L 283.741741 107.103983 
L 283.409077 106.880086 
L 282.724181 107.103983 
L 281.947964 107.680947 
L 281.256545 108.5507 
L 280.310735 110.100753 
L 279.586701 111.60775 
L 279.717158 112.150269 
L 280.141141 112.641119 
L 281.497889 113.355867 
L 283.148164 114.036168 
L 284.557095 114.862863 
L 285.078921 115.043703 
L 285.51595 114.992034 
L 286.637876 115.534553 
L 288.072898 116.481808 
L 288.503405 116.499031 
L 288.751272 116.628202 
L 288.86216 116.955436 
L 288.894774 116.809042 
L 289.123073 116.800431 
L 289.383986 116.869322 
L 289.605762 117.127664 
L 289.886244 116.998493 
L 290.114543 117.110441 
L 290.975556 118.186868 
L 291.95398 118.410764 
L 292.899789 119.151346 
L 294.393517 120.193326 
L 295.965518 120.615285 
L 299.161703 121.941442 
L 299.533504 122.552853 
L 299.566118 122.509795 
L 299.631346 122.492573 
L 299.650915 122.940366 
L 300.10099 123.439828 
L 300.896774 124.016792 
L 302.403547 124.499031 
L 305.071383 125.911302 
L 306.545542 126.849946 
L 308.926374 127.986652 
L 309.219901 128.201938 
L 309.526474 128.727234 
L 310.041777 128.968353 
L 310.407055 129.166416 
L 310.537512 129.416146 
L 310.941927 129.80366 
L 311.842077 130.130893 
L 313.929381 130.983423 
L 316.166711 132.171798 
L 317.490844 132.714316 
L 317.973534 132.748762 
L 318.430131 132.912379 
L 318.769318 133.170721 
L 319.186779 133.187944 
L 320.510913 133.851023 
L 320.954465 134.049085 
L 322.513421 135.599139 
L 323.700575 135.874704 
L 324.228924 136.201938 
L 324.84207 136.374166 
L 325.370419 136.727234 
L 325.937904 136.968353 
L 326.472776 137.373089 
L 326.844577 137.898385 
L 327.412063 138.105059 
L 328.383964 138.682024 
L 328.990587 138.837029 
L 329.969011 139.439828 
L 330.569111 139.655113 
L 331.508398 140.412917 
L 331.964996 140.972659 
L 332.910806 141.420452 
L 334.671969 142.040474 
L 335.180749 142.737998 
L 336.322244 143.599139 
L 337.287622 144.201938 
L 339.035739 144.701399 
L 339.472769 145.080301 
L 340.014163 145.338644 
L 340.927359 145.993111 
L 343.125552 147.112594 
L 343.934382 147.715393 
L 344.410548 147.956512 
L 345.695545 148.30958 
L 346.576127 148.938213 
L 347.985057 149.446286 
L 349.713606 150.694941 
L 350.313706 151.358019 
L 350.542005 151.60775 
L 350.933375 151.685253 
L 352.127052 152.537783 
L 352.577127 152.804736 
L 354.260016 153.390312 
L 355.140597 154.130893 
L 357.273562 154.819806 
L 359.856601 156.318192 
L 361.232917 156.929602 
L 361.74822 156.964047 
L 362.622279 157.394618 
L 363.665931 158.238536 
L 364.376919 158.608827 
L 364.807426 158.893003 
L 365.074862 159.60775 
L 364.853086 159.392465 
L 364.905268 159.349408 
L 365.296638 159.995264 
L 368.068839 161.390312 
L 368.558051 161.459203 
L 368.962466 161.820883 
L 369.366882 161.993111 
L 369.999596 162.587298 
L 370.227895 163.009257 
L 371.18675 162.785361 
L 371.799896 162.923143 
L 372.295631 163.724004 
L 373.37842 164.206243 
L 375.348313 164.964047 
L 376.926837 165.334338 
L 377.872647 165.696017 
L 379.203303 166.049085 
L 380.501346 166.703552 
L 380.520914 166.798278 
L 380.305661 166.789666 
L 380.351321 166.824112 
L 380.801396 167.203014 
L 382.614742 168.735845 
L 383.377912 169.209473 
L 383.599688 169.56254 
L 383.762759 170.303122 
L 384.13456 170.742304 
L 384.401996 171.336491 
L 384.421564 170.854252 
L 384.336768 170.587298 
L 383.795373 170.397847 
L 383.449663 170.225619 
L 382.484285 169.183638 
L 381.662409 168.839182 
L 381.160151 168.744456 
L 380.749213 169.166416 
L 380.23391 170.621744 
L 379.509876 171.284822 
L 379.496831 171.861787 
L 379.366374 172.266523 
L 379.562059 172.929602 
L 379.457694 173.196555 
L 380.690508 174.970506 
L 380.618757 174.970506 
L 380.403504 174.961895 
L 379.999088 174.617438 
L 379.327237 174.634661 
L 379.020664 174.496878 
L 378.77932 174.50549 
L 378.518407 174.290205 
L 378.035718 173.265447 
L 377.27907 172.843488 
L 376.737675 172.731539 
L 374.826487 171.612056 
L 373.828495 170.062002 
L 372.367382 169.355867 
L 372.021672 169.045856 
L 371.545505 168.796125 
L 370.514899 168.744456 
L 368.642848 167.556082 
L 368.212341 167.530248 
L 366.725137 166.953283 
L 366.209834 167.048009 
L 365.179227 166.849946 
L 364.735675 166.531324 
L 364.311691 165.962971 
L 363.757251 165.885468 
L 361.943905 164.722928 
L 361.435125 164.516254 
L 360.972004 164.197632 
L 360.234925 164.025404 
L 359.021679 163.103983 
L 358.088915 162.41507 
L 357.417064 162.217008 
L 357.019171 161.829494 
L 356.445163 161.56254 
L 355.779834 161.441981 
L 355.244963 161.200861 
L 354.89273 160.856405 
L 353.177227 159.934984 
L 352.466239 159.314962 
L 349.178734 158.247147 
L 347.821986 157.523789 
L 346.778334 156.869322 
L 346.308691 156.516254 
L 345.852093 156.335414 
L 345.101968 155.57761 
L 344.612756 155.353714 
L 343.862631 154.776749 
L 343.464739 154.432293 
L 343.177734 153.820883 
L 342.740705 153.476426 
L 342.179742 153.269752 
L 341.64487 153.321421 
L 341.031724 152.968353 
L 340.516421 152.865016 
L 340.255508 152.262217 
L 339.472769 151.78859 
L 338.59871 151.263294 
L 337.763788 150.927449 
L 337.561581 150.763832 
L 337.013663 150.514101 
L 336.393995 150.522713 
L 335.402525 150.161033 
L 335.011156 149.919914 
L 334.665446 149.291281 
L 333.621794 149.205167 
L 333.667453 149.110441 
L 333.732682 148.964047 
L 333.784864 149.04155 
L 333.88923 149.032939 
L 333.615271 149.04155 
L 333.615271 148.972659 
L 333.439155 148.912379 
L 333.432632 148.98127 
L 333.386972 149.007104 
L 333.034739 148.705705 
L 331.038755 147.319268 
L 330.510406 147.112594 
L 329.336297 146.311733 
L 328.768811 146.087836 
L 328.44267 145.838105 
L 327.986072 145.751991 
L 327.679499 145.424758 
L 326.244477 144.572228 
L 325.768311 144.348332 
L 324.998617 143.736921 
L 324.111513 143.271905 
L 323.694052 142.953283 
L 323.270068 142.849946 
L 321.79591 142.066308 
L 319.989087 141.627126 
L 319.434647 141.231001 
L 319.180256 141.256835 
L 319.141119 141.058773 
L 319.147642 140.843488 
L 319.115028 140.662648 
L 319.115028 140.817653 
L 318.925866 140.705705 
L 318.821501 140.576534 
L 318.508405 140.533477 
L 318.169218 140.412917 
L 317.640869 140.085684 
L 317.373434 139.741227 
L 317.50389 139.396771 
L 317.197317 139.172874 
L 316.818993 139.060926 
L 315.468768 137.984499 
L 314.855623 137.786437 
L 314.536004 137.519483 
L 314.249 136.847793 
L 314.105498 136.675565 
L 313.688037 136.563617 
L 313.355373 136.253606 
L 312.709613 136.064155 
L 312.422608 135.702476 
L 310.061345 134.961895 
L 309.409063 133.962971 
L 307.719651 133.437675 
L 307.334804 133.291281 
L 306.441177 132.533477 
L 305.854122 132.145963 
L 305.293159 132.120129 
L 303.753772 131.293434 
L 301.842584 130.733692 
L 298.868175 129.424758 
L 298.646399 129.485038 
L 298.561603 129.493649 
L 298.052822 129.398924 
L 297.035261 128.882239 
L 296.80044 128.58084 
L 295.606762 127.676642 
L 295.058845 127.1169 
L 294.458745 126.961895 
L 290.714643 124.412917 
L 288.412085 123.327879 
L 287.811985 123.241765 
L 287.714143 123.190097 
L 287.701097 123.250377 
L 287.394524 123.465662 
L 287.120565 123.121206 
L 286.964018 123.172874 
L 282.913342 121.07169 
L 279.436676 118.712164 
L 277.675513 118.143811 
L 277.218915 117.95436 
L 276.390516 117.928525 
L 275.875213 118.393541 
L 275.307727 119.762756 
L 275.0142 120.288052 
L 274.896789 120.942519 
L 273.970548 122.776749 
L 274.231461 123.689559 
L 274.851129 124.421529 
L 276.207877 124.602368 
L 276.742749 124.86071 
L 277.740741 125.04155 
L 279.338834 126.031862 
L 279.815 126.092142 
L 281.067383 126.893003 
L 281.556595 127.280517 
L 282.182786 127.478579 
L 282.593724 127.401076 
L 283.141641 128.511948 
L 283.996132 129.088913 
L 284.113543 129.536706 
L 284.478821 129.975888 
L 285.548564 129.588375 
L 287.140134 130.458127 
L 287.688051 130.492573 
L 288.757795 131.121206 
L 289.351372 131.302045 
L 291.843092 132.697094 
L 292.475806 132.92099 
L 292.704105 132.989882 
L 292.893267 133.497955 
L 292.821516 133.627126 
L 292.560603 133.721851 
L 292.547557 133.782131 
L 292.886744 133.876857 
L 292.723673 133.859634 
L 292.593217 133.902691 
L 292.267075 133.868245 
L 292.619308 134.462433 
L 294.830546 135.022174 
L 296.683029 136.064155 
L 297.198332 136.589451 
L 297.557087 137.140581 
L 298.894267 137.80366 
L 299.448707 138.225619 
L 301.053322 138.828418 
L 302.06436 139.078149 
L 302.612278 139.215931 
L 303.127581 139.20732 
L 303.773341 139.672336 
L 305.117043 140.585145 
L 305.541027 141.067384 
L 306.023716 141.403229 
L 308.724166 142.195479 
L 309.285129 142.298816 
L 310.817993 143.228848 
L 311.326774 143.685253 
L 313.975041 145.097524 
L 314.855623 145.993111 
L 316.518943 146.897309 
L 318.74975 147.749839 
L 319.486829 148.834876 
L 320.086929 149.032939 
L 320.778349 148.636814 
L 322.422101 149.997417 
L 322.943927 150.040474 
L 323.374434 150.341873 
L 323.772326 150.824112 
L 324.013671 151.650807 
L 325.566103 152.598062 
L 325.944427 153.002799 
L 326.80544 153.588375 
L 327.562088 153.149193 
L 328.677491 153.123358 
L 329.368911 153.347255 
L 329.988579 153.820883 
L 330.973526 154.854252 
L 332.115021 155.551776 
L 332.68903 155.560388 
L 333.654408 156.094295 
L 334.039255 156.585145 
L 335.213363 157.093219 
L 335.859123 157.256835 
L 336.968004 157.747686 
L 337.470261 158.247147 
L 338.018179 158.582992 
L 338.520436 159.082454 
L 339.166196 159.013563 
L 340.222894 159.383854 
L 342.649385 160.365554 
L 343.086415 160.451668 
L 344.332274 161.74338 
L 345.278084 162.380624 
L 345.675977 162.828418 
L 347.906783 164.335414 
L 349.596195 165.084607 
L 350.072361 165.5324 
L 351.774819 166.066308 
L 352.942405 166.50549 
L 353.522937 166.522713 
L 356.536482 168.003875 
L 356.908283 168.46028 
L 357.495338 168.443057 
L 357.958458 168.658342 
L 358.356351 168.658342 
L 359.086907 169.028633 
L 359.021679 169.123358 
L 359.249978 170.328956 
L 359.458708 170.733692 
L 359.902261 171.155651 
L 360.143605 171.594833 
L 360.600203 172.068461 
L 362.576619 173.170721 
L 363.03974 173.437675 
L 363.770297 174.514101 
L 363.783342 174.867169 
L 365.022679 175.624973 
L 365.577119 175.995264 
L 366.666431 176.391389 
L 367.273054 176.546394 
L 371.297638 176.529171 
L 374.506869 177.528095 
L 374.624279 177.640043 
L 375.348313 177.648654 
L 375.635318 178.819806 
L 375.635318 178.699247 
L 375.785343 178.897309 
L 375.563566 179.190097 
L 374.591665 178.750915 
L 374.435118 178.397847 
L 374.161159 178.828418 
L 374.082885 179.612056 
L 373.189258 181.170721 
L 372.726137 181.71324 
L 372.673954 182.074919 
L 372.791365 182.548547 
L 372.204311 182.893003 
L 372.158651 183.142734 
L 373.247963 184.598062 
L 373.580627 184.899462 
L 373.645856 185.200861 
L 373.861109 184.968353 
L 373.619764 185.114747 
L 373.215349 185.063079 
L 371.428095 183.676642 
L 370.984542 183.556082 
L 370.371397 183.065231 
L 368.760259 182.471044 
L 368.297138 182.307427 
L 367.63181 181.876857 
L 366.849071 181.575457 
L 366.425087 181.317115 
L 366.196788 180.809042 
L 365.772804 180.481808 
L 365.211841 180.283746 
L 364.370397 180.094295 
L 363.881185 180.034015 
L 358.069346 177.450592 
L 358.088915 177.493649 
L 357.886707 177.295587 
L 357.430109 176.804736 
L 356.966989 176.52056 
L 356.314706 175.891927 
L 354.905776 175.039397 
L 352.753243 173.678794 
L 352.264031 173.463509 
L 351.076877 173.136276 
L 349.811448 172.679871 
L 349.172211 172.619591 
L 346.974019 171.724004 
L 346.067346 171.172874 
L 345.552043 170.914532 
L 344.501868 170.570075 
L 343.74522 170.027557 
L 343.595195 169.691712 
L 342.805933 169.312809 
L 341.957966 168.606674 
L 337.868154 165.885468 
L 337.450693 165.876857 
L 337.026709 165.601292 
L 336.041762 165.28267 
L 335.082907 165.136276 
L 335.024201 164.679871 
L 334.78938 164.352637 
L 333.621794 163.663724 
L 333.282607 163.327879 
L 332.8521 163.078149 
L 331.99761 162.854252 
L 330.875684 162.449516 
L 329.910306 162.29451 
L 328.357873 161.424758 
L 326.948942 160.434446 
L 325.657423 159.383854 
L 325.037754 159.375242 
L 324.54202 159.23746 
L 323.948442 158.944672 
L 322.356873 157.627126 
L 321.600225 157.360172 
L 320.693552 156.964047 
L 319.00414 156.421529 
L 318.762796 155.706781 
L 317.053815 154.957589 
L 315.716636 153.674489 
L 315.540519 153.631432 
L 314.823008 153.175027 
L 314.001132 153.123358 
L 313.524966 152.873628 
L 312.500882 151.943595 
L 311.555073 151.039397 
L 310.987587 150.574381 
L 310.798425 150.488267 
L 310.263553 150.582992 
L 307.76531 149.566846 
L 306.467268 148.852099 
L 305.54755 148.499031 
L 303.740727 148.318192 
L 302.292659 147.534553 
L 302.292659 146.9662 
L 302.246999 146.750915 
L 302.038269 146.389236 
L 300.916343 145.700323 
L 299.468275 144.994187 
L 299.148657 144.873628 
L 298.60074 144.52056 
L 298.287644 144.167492 
L 297.446199 143.72831 
L 296.6178 143.159957 
L 296.043792 142.893003 
L 295.60024 142.806889 
L 295.972041 142.832723 
L 295.658945 142.703552 
L 295.006662 142.591604 
L 294.497882 142.651884 
L 294.086944 142.367707 
L 292.273598 141.747686 
L 292.045299 141.549623 
L 291.640884 140.628202 
L 291.393017 140.068461 
L 291.340834 139.930678 
L 290.929896 139.482885 
L 289.181779 138.690635 
L 288.222923 138.018945 
L 287.290159 137.510872 
L 286.71615 136.761679 
L 285.842091 136.666954 
L 285.228946 136.46028 
L 284.791916 136.176103 
L 284.609277 135.917761 
L 284.276613 135.754144 
L 282.632861 135.383854 
L 282.2154 135.203014 
L 281.367433 135.1169 
L 281.334819 134.824112 
L 281.086951 134.737998 
L 279.945457 133.842411 
L 278.490866 133.541012 
L 277.297189 132.619591 
L 276.8145 132.412917 
L 276.436176 131.973735 
L 275.953487 131.629279 
L 275.35991 131.534553 
L 273.070398 130.199785 
L 271.902812 129.838105 
L 271.426645 129.459203 
L 270.8135 129.114747 
L 269.86769 128.21916 
L 268.380486 127.108288 
L 267.617315 126.62605 
L 264.72118 123.706781 
L 264.036283 123.327879 
L 262.855652 122.036168 
L 262.542556 121.993111 
L 261.264082 120.813348 
L 259.085458 120.055544 
L 258.230968 119.831647 
L 255.067397 119.659419 
L 253.704127 119.280517 
L 250.488373 118.514101 
L 248.935941 117.77352 
L 242.002176 114.337567 
L 240.697611 113.838105 
L 239.77137 113.286975 
L 238.114572 112.52056 
L 237.605791 112.124435 
L 236.014222 111.271905 
L 235.316279 111.349408 
L 234.553109 111.203014 
L 229.243528 107.741227 
L 227.364954 107.043703 
L 225.74077 106.217008 
L 222.92291 104.46028 
L 222.120602 103.943595 
L 221.703141 103.581916 
L 220.992153 103.538859 
L 220.346393 102.763832 
L 219.550608 101.420452 
L 219.302741 100.292357 
L 219.113579 96.718622 
L 218.9766 95.978041 
L 219.100533 94.419376 
L 219.433197 92.929602 
L 219.870227 91.078149 
L 220.307256 88.348332 
L 219.994161 87.487191 
L 218.963554 85.609903 
L 218.741778 85.334338 
L 218.291703 85.16211 
L 216.706656 84.094295 
L 215.545593 83.560388 
L 213.99316 82.84564 
L 213.516994 82.501184 
L 212.766869 82.492573 
L 212.264611 81.958665 
L 211.768877 81.62282 
L 211.247051 81.441981 
L 209.805506 80.365554 
L 208.716194 79.969429 
L 208.318302 79.762756 
L 207.874749 79.280517 
L 206.009221 78.186868 
L 203.732755 77.377395 
L 203.100041 76.602368 
L 200.471342 75.457051 
L 199.160254 75.999569 
L 197.738277 78.057696 
L 196.759853 79.091066 
L 195.846658 80.761679 
L 195.409628 81.665877 
L 194.783437 82.372013 
L 193.778922 84.180409 
L 192.996183 84.662648 
L 191.528547 83.913455 
L 189.878272 83.568999 
L 189.010736 83.164263 
L 188.18886 82.785361 
L 187.177822 82.41507 
L 186.59729 82.199785 
L 185.873256 82.122282 
L 185.423181 81.777826 
L 184.529554 81.485038 
L 184.118616 81.278364 
L 183.544607 81.175027 
L 182.09654 80.537783 
L 177.9415 78.462433 
L 177.674064 78.161033 
L 175.965083 77.403229 
L 175.691125 76.542088 
L 175.867241 76.223466 
L 175.802013 75.93929 
L 175.952038 75.560388 
L 176.00422 75.594833 
L 174.706178 74.682024 
L 174.673564 74.449516 
L 174.432219 74.148116 
L 171.529562 73.063079 
L 170.812051 72.313886 
L 170.479387 72.072766 
L 169.298755 71.693864 
L 168.763883 71.461356 
L 168.411651 71.1169 
L 166.409143 70.074919 
L 165.750338 69.919914 
L 165.424196 69.885468 
L 164.745822 69.119053 
L 164.726254 69.024327 
L 162.443265 67.706781 
L 161.575729 67.172874 
L 161.184359 66.802583 
L 161.112608 66.509795 
L 160.571213 66.544241 
L 158.483909 65.86394 
L 156.363991 64.933907 
L 155.092039 64.038321 
L 154.615873 63.857481 
L 152.385067 62.212702 
L 151.758875 61.997417 
L 150.513015 61.213778 
L 149.802027 60.929602 
L 147.851702 59.258988 
L 147.819088 58.974812 
L 147.890839 58.466738 
L 148.536599 58.165339 
L 149.710708 57.01141 
L 150.310808 56.227772 
L 151.197912 55.495802 
L 151.74583 55.866093 
L 155.848687 57.476426 
L 156.494447 57.898385 
L 157.211958 58.070614 
L 157.981651 58.716469 
L 158.222996 59.379548 
L 158.536092 59.732616 
L 158.933984 59.775673 
L 159.468856 59.982347 
L 159.768906 60.232078 
L 159.788474 60.404306 
L 160.082001 60.567922 
L 161.536592 60.705705 
L 162.397605 61.16211 
L 163.741307 61.523789 
L 164.582752 61.945748 
L 164.869756 62.066308 
L 165.332877 62.092142 
L 165.613358 62.376319 
L 165.685109 62.651884 
L 166.311301 63.401076 
L 166.520031 63.840258 
L 167.518023 64.434446 
L 168.255103 65.114747 
L 171.196897 66.010334 
L 172.892832 67.388159 
L 173.629912 68.240689 
L 173.982144 68.602368 
L 176.845665 69.308504 
L 177.928454 70.031862 
L 179.435227 70.824112 
L 179.878779 71.108288 
L 182.337885 71.711087 
L 183.224989 72.288052 
L 187.073456 74.070614 
L 187.471349 74.389236 
L 189.173807 75.155651 
L 190.882787 76.335414 
L 192.467834 77.153498 
L 193.224482 77.541012 
L 193.452781 77.885468 
L 193.857196 78.238536 
L 194.979122 78.806889 
L 195.513994 78.789666 
L 195.742293 78.496878 
L 196.564169 77.747686 
L 197.059903 76.826265 
L 197.39909 76.49042 
L 197.777414 75.680947 
L 198.547108 74.880086 
L 198.338377 74.260065 
L 197.842643 74.010334 
L 196.166276 72.718622 
L 195.853181 72.331109 
L 195.103056 71.814424 
L 192.611336 70.126588 
L 191.756846 69.506566 
L 190.993675 69.10183 
L 189.930454 68.61098 
L 187.477872 66.992034 
L 185.860211 66.23423 
L 185.240542 66.053391 
L 183.714201 65.261141 
L 183.192375 65.19225 
L 182.422681 64.968353 
L 180.439742 63.995264 
L 179.076472 63.142734 
L 175.488917 61.420452 
L 174.914908 60.955436 
L 173.799505 60.352637 
L 173.427704 60.068461 
L 172.971106 59.534553 
L 172.266641 59.405382 
L 169.083502 57.726157 
L 168.124646 56.865016 
L 167.452795 56.33972 
L 166.728761 55.659419 
L 166.389574 55.478579 
L 164.09354 55.05662 
L 163.245572 54.815501 
L 162.573721 54.333262 
L 161.888824 53.644349 
L 161.412658 53.411841 
L 161.021288 53.024327 
L 159.716723 52.163186 
L 158.607843 52.214855 
L 158.164291 52.714316 
L 157.988174 52.791819 
L 157.935992 53.144887 
L 157.688124 53.351561 
L 157.40112 53.377395 
L 157.016273 52.895156 
L 156.494447 52.628202 
L 156.481401 51.947901 
L 156.637949 51.241765 
L 156.624904 50.59591 
L 156.370513 49.889774 
L 156.75536 49.07169 
L 156.970613 48.115823 
L 156.853203 47.495802 
L 157.003228 46.918837 
L 157.264141 46.600215 
L 157.159775 46.092142 
L 157.303278 45.8338 
L 157.733784 45.635737 
L 159.905885 45.609903 
L 160.342915 45.790743 
L 161.869256 45.980194 
L 162.625904 46.531324 
L 162.828111 46.798278 
L 163.245572 47.004952 
L 163.689124 47.073843 
L 164.576229 47.624973 
L 164.713208 47.866093 
L 165.385059 48.262217 
L 165.50247 48.494726 
L 166.154753 49.149193 
L 166.539599 50.182562 
L 166.715716 50.776749 
L 167.178836 51.121206 
L 168.998705 51.319268 
L 169.722739 51.51733 
L 170.244565 51.706781 
L 170.662026 51.431216 
L 171.027304 51.525942 
L 171.444765 51.887621 
L 171.751338 51.930678 
L 172.429712 52.524865 
L 173.323339 53.179333 
L 173.786459 53.515178 
L 174.262626 53.678794 
L 175.286709 54.341873 
L 175.952038 54.884392 
L 176.917416 54.763832 
L 178.182844 55.366631 
L 178.352438 55.60775 
L 179.330862 56.115823 
L 179.859211 56.201938 
L 182.624889 57.50226 
L 182.924939 58.018945 
L 182.866234 57.984499 
L 182.840142 57.993111 
L 182.898848 58.087836 
L 182.977122 58.191173 
L 183.309786 58.53563 
L 184.086002 58.733692 
L 184.855696 59.319268 
L 185.455796 59.75845 
L 185.65148 60.352637 
L 186.068941 61.015716 
L 186.499448 60.989882 
L 188.214951 61.299892 
L 189.68911 62.049085 
L 190.119616 62.083531 
L 192.415651 63.013563 
L 193.139685 63.719699 
L 194.985645 64.348332 
L 196.277164 65.278364 
L 197.275157 65.734769 
L 198.116601 66.509795 
L 198.931955 67.138428 
L 200.288702 67.284822 
L 200.758346 67.500108 
L 201.143193 67.801507 
L 201.332355 68.171798 
L 203.028289 68.98127 
L 203.778415 69.721851 
L 204.22849 69.980194 
L 206.139678 70.488267 
L 207.496425 71.426911 
L 207.73777 71.719699 
L 209.720709 72.847793 
L 213.047351 73.881163 
L 213.536563 74.251453 
L 214.097526 74.449516 
L 215.023767 74.561464 
L 215.402091 74.707858 
L 216.210921 75.741227 
L 217.959039 76.542088 
L 218.350408 76.714316 
L 218.741778 77.058773 
L 219.061396 77.584069 
L 219.504949 77.945748 
L 219.994161 78.126588 
L 220.816037 77.928525 
L 221.063904 77.807966 
L 221.827075 76.98127 
L 222.257581 76.395694 
L 222.342378 75.586222 
L 222.596768 75.293434 
L 222.818544 74.811195 
L 222.929432 73.958665 
L 222.746793 73.510872 
L 222.427175 73.226695 
L 221.28568 72.882239 
L 219.472334 71.883315 
L 218.246043 71.022174 
L 216.817544 69.5324 
L 216.178307 68.791819 
L 214.586738 68.335414 
L 214.182322 68.344026 
L 213.856181 68.214855 
L 213.680065 67.810118 
L 213.151716 67.362325 
L 212.010221 67.009257 
L 210.927432 65.92422 
L 209.401091 65.338644 
L 208.370484 64.908073 
L 206.83762 64.322497 
L 206.185337 63.78859 
L 204.548108 62.824112 
L 203.478364 62.135199 
L 202.695625 61.95436 
L 201.573699 61.317115 
L 199.910379 60.361249 
L 198.892818 59.724004 
L 195.109578 57.993111 
L 194.803006 57.786437 
L 193.381029 57.261141 
L 193.041843 57.054467 
L 192.617859 56.976964 
L 192.448265 56.753068 
L 191.169791 55.934984 
L 188.808528 54.763832 
L 188.495433 54.522713 
L 188.325839 53.971582 
L 188.045358 53.661572 
L 187.471349 53.299892 
L 186.98866 53.127664 
L 186.245058 52.576534 
L 185.586252 52.292357 
L 185.194883 51.973735 
L 184.705671 51.767061 
L 184.099048 51.792896 
L 183.244557 51.02648 
L 182.69664 50.84564 
L 182.579229 50.561464 
L 181.646465 49.820883 
L 178.828604 48.632508 
L 177.191375 47.556082 
L 174.914908 46.591604 
L 173.99519 46.100753 
L 173.023289 45.661572 
L 171.823089 44.378471 
L 169.650988 43.689559 
L 168.966091 43.534553 
L 167.25711 42.311733 
L 166.904878 42.242842 
L 165.822089 41.62282 
L 164.582752 40.305274 
L 164.243565 40.167492 
L 163.806535 39.840258 
L 161.275679 38.987729 
L 161.008243 38.944672 
L 159.736292 39.013563 
L 158.431726 38.884392 
L 157.544622 38.014639 
L 157.35546 37.5324 
L 157.375029 36.585145 
L 157.427211 36.163186 
L 157.127161 34.725081 
L 157.648987 33.269752 
L 158.033834 33.149193 
L 158.620888 32.555005 
L 158.894847 32.52056 
L 159.729769 32.727234 
L 160.121138 32.46028 
L 160.408143 32.4 
L 160.877786 32.46028 
L 161.30177 32.727234 
L 161.758368 32.856405 
L 162.515016 33.381701 
L 162.958568 33.691712 
L 163.480394 33.80366 
L 164.771914 34.432293 
L 165.926454 34.707858 
L 166.200413 34.940366 
L 167.69414 35.250377 
L 168.24858 35.973735 
L 168.613858 35.999569 
L 169.820581 36.697094 
L 170.179337 36.791819 
L 170.498955 36.748762 
L 170.870756 37.187944 
L 171.353445 37.325727 
L 171.718724 37.618515 
L 171.855703 37.876857 
L 172.214458 38.238536 
L 172.631919 38.341873 
L 173.088517 38.910226 
L 173.251588 39.23746 
L 173.766891 39.556082 
L 174.230012 39.469968 
L 174.830112 39.986652 
L 175.938992 40.477503 
L 178.176321 40.985576 
L 179.617866 41.751991 
L 180.889817 42.690635 
L 181.724739 44.180409 
L 182.122631 44.292357 
L 182.468341 44.516254 
L 183.446765 44.412917 
L 184.249073 45.541012 
L 185.318816 46.229925 
L 185.99719 46.893003 
L 186.245058 47.05662 
L 187.236527 47.289128 
L 188.945508 47.418299 
L 189.43472 47.78859 
L 191.228497 49.037244 
L 191.678572 49.157804 
L 193.531054 50.303122 
L 194.548615 50.578687 
L 196.838127 51.474273 
L 197.705663 52.102906 
L 198.13617 52.464586 
L 199.029797 52.989882 
L 202.702148 54.987729 
L 203.44575 55.29774 
L 205.702648 56.623897 
L 208.109571 57.993111 
L 208.579215 58.423681 
L 212.466819 60.154575 
L 213.040828 60.206243 
L 213.497426 60.395694 
L 214.345393 61.050161 
L 215.206406 61.386006 
L 218.206906 62.453821 
L 218.735255 63.211625 
L 220.287688 63.857481 
L 221.155224 64.107212 
L 222.127125 64.46028 
L 222.303241 64.830571 
L 223.262096 65.25253 
L 224.090495 65.614209 
L 225.212422 66.260065 
L 225.492903 66.372013 
L 225.92341 66.931755 
L 227.267112 67.922067 
L 227.182315 67.990958 
L 226.993153 68.223466 
L 226.653966 68.068461 
L 226.699626 68.335414 
L 226.954016 68.567922 
L 227.025767 68.972659 
L 226.699626 70.20409 
L 225.792953 71.556082 
L 225.27765 72.133046 
L 224.651458 72.632508 
L 223.82306 73.786437 
L 223.607806 74.268676 
L 223.503441 74.837029 
L 222.401083 76.929602 
L 220.359439 80.072766 
L 220.392053 80.598062 
L 219.889795 81.373089 
L 218.232997 83.689559 
L 218.148201 83.594833 
L 217.978607 83.646502 
L 217.874242 83.362325 
L 218.148201 83.448439 
L 217.98513 83.620667 
L 217.867719 83.560388 
L 217.411121 83.706781 
L 217.300233 83.775673 
L 217.29371 83.930678 
L 217.169777 84.042626 
L 217.306756 84.2493 
L 217.33937 84.576534 
L 216.908864 85.756297 
L 216.256581 86.987729 
L 215.395568 88.882239 
L 214.691103 90.165339 
L 214.482372 91.439828 
L 213.667019 92.585145 
L 213.269127 93.127664 
L 212.701641 94.281593 
L 212.558139 94.901615 
L 212.153723 95.564693 
L 211.618852 96.158881 
L 210.862204 97.330032 
L 209.388045 99.525942 
L 208.755331 100.662648 
L 207.52904 102.893003 
L 206.407113 105.226695 
L 204.848158 107.413994 
L 203.289203 110.410764 
L 201.671542 113.218084 
L 201.104056 114.285899 
L 200.262611 115.612056 
L 199.19939 117.997417 
L 198.853681 118.462433 
L 198.78193 118.884392 
L 198.364469 119.814424 
L 198.403606 120.331109 
L 197.372999 122.156728 
L 197.033812 122.337567 
L 196.740285 122.638967 
L 196.557646 123.388159 
L 196.088002 123.887621 
L 195.631405 124.628202 
L 195.64445 124.955436 
L 195.09001 126.049085 
L 194.776914 126.453821 
L 194.333362 127.538859 
L 193.120116 129.407535 
L 192.193875 131.233154 
L 191.841642 131.724004 
L 191.44375 132.654037 
L 189.43472 135.004952 
L 189.095533 136.184715 
L 188.932462 136.865016 
L 187.314801 139.060926 
L 186.929954 139.620667 
L 186.3429 140.809042 
L 185.918916 141.394618 
L 185.671049 141.962971 
L 185.592775 142.643272 
L 185.18836 143.073843 
L 184.640442 144.107212 
L 184.066434 145.25253 
L 183.590267 145.751991 
L 183.061918 146.992034 
L 183.022781 147.551776 
L 182.507478 148.619591 
L 182.148723 148.964047 
L 181.731262 149.549623 
L 181.626897 150.152422 
L 180.478879 151.650807 
L 180.146215 152.994187 
L 179.246065 154.079225 
L 179.09604 154.53563 
L 177.210943 157.59268 
L 176.813051 158.117976 
L 176.39559 159.349408 
L 175.912901 159.90915 
L 175.508486 160.770291 
L 174.941 161.56254 
L 174.543107 162.690635 
L 174.393082 163.258988 
L 172.318824 166.867169 
L 172.455803 167.340797 
L 172.19489 167.564693 
L 171.992682 168.046932 
L 171.601313 168.477503 
L 171.523039 168.796125 
L 170.485909 170.492573 
L 169.631419 171.233154 
L 169.305278 172.059849 
L 169.233527 172.206243 
L 168.809543 172.18902 
L 168.555153 172.378471 
L 168.542107 172.628202 
L 168.646472 172.938213 
L 168.346422 173.747686 
L 168.111601 174.26437 
L 167.674571 174.806889 
L 167.381044 175.452745 
L 166.617873 176.692788 
L 166.409143 177.286975 
L 165.639449 178.492573 
L 164.863233 180.326803 
L 163.623896 181.842411 
L 163.252095 182.307427 
L 163.206435 182.703552 
L 162.991182 182.93606 
L 162.678086 183.099677 
L 162.20192 184.089989 
L 159.429719 189.015716 
L 158.966598 190.221313 
L 158.125154 191.762756 
L 157.114116 192.976964 
L 156.990182 193.347255 
L 156.514016 193.80366 
L 156.331376 194.337567 
L 156.207443 195.327879 
L 156.024804 195.792896 
L 155.842164 196.946825 
L 155.574729 197.687406 
L 154.791989 198.539935 
L 154.752852 198.910226 
L 153.989682 200.494726 
L 153.624404 201.175027 
L 153.304785 201.407535 
L 150.917431 202.130893 
L 149.94553 202.84564 
L 149.319338 203.827341 
L 149.143222 205.851023 
L 149.143222 206.910226 
L 149.443272 207.452745 
L 150.24558 208.425834 
L 151.047887 208.331109 
L 151.550145 208.167492 
L 152.398112 208.305274 
L 152.835142 207.90915 
L 153.161283 209.028633 
L 152.769913 211.14704 
L 152.835142 211.87901 
L 152.632934 212.516254 
L 152.385067 212.542088 
L 152.593797 212.765985 
L 152.293747 213.291281 
L 152.052402 214.901615 
L 151.856718 215.401076 
L 151.765398 216.055544 
L 151.14573 216.434446 
L 150.910908 217.62282 
L 150.721746 218.363402 
L 150.852202 218.587298 
L 151.126161 218.509795 
L 151.217481 218.837029 
L 151.178344 219.017869 
L 151.041364 219.138428 
L 150.741314 219.190097 
L 150.493447 220.800431 
L 150.643472 220.757374 
L 150.910908 221.205167 
L 151.015273 221.437675 
L 150.793497 222.660495 
L 150.102077 224.899462 
L 149.697662 225.312809 
L 149.404135 225.941442 
L 149.632434 226.742304 
L 149.528069 227.164263 
L 150.069463 227.413994 
L 150.695655 227.896233 
L 150.96309 228.318192 
L 151.178344 228.886545 
L 151.360983 229.8338 
L 151.14573 231.039397 
L 150.813065 231.900538 
L 150.402127 232.288052 
L 149.012765 233.209473 
L 148.190889 235.241765 
L 147.877794 235.431216 
L 147.740814 237.058773 
L 147.538607 237.851023 
L 147.40815 238.910226 
L 146.716731 242.062002 
L 146.638457 242.84564 
L 146.475386 243.293434 
L 145.496962 244.042626 
L 144.15326 244.972659 
L 144.440264 245.239612 
L 143.970621 246.479656 
L 149.071471 238.040474 
L 148.895354 237.110441 
L 148.458325 237.472121 
L 146.044879 240.925296 
L 144.909908 243.904844 
L 142.887832 247.633584 
L 142.979151 248.270829 
L 142.639964 249.183638 
L 141.563698 251.078149 
L 141.159283 252.171798 
L 137.369521 260.395694 
L 136.710715 261.541012 
L 136.456325 262.376319 
L 140.513523 253.541012 
L 140.376543 254.927449 
L 138.941522 255.246071 
L 139.502485 254.918837 
L 139.235049 254.893003 
L 139.013273 255.84887 
L 138.824111 256.046932 
L 138.295762 256.201938 
L 138.347944 256.038321 
L 138.374036 255.883315 
L 137.891347 254.720775 
L 137.995712 254.763832 
L 138.197919 253.851023 
L 138.582766 254.031862 
L 138.856725 253.032939 
L 139.985174 254.824112 
L 140.29827 254.600215 
L 128.674593 278.99634 
L 128.081016 281.510872 
L 129.398627 281.993111 
L 129.639971 282.363402 
L 129.816088 282.389236 
L 129.953067 282.027557 
L 130.148752 281.984499 
L 130.246594 282.802583 
L 130.161798 283.138428 
L 129.744337 284.619591 
L 130.944537 283.2676 
L 130.931491 283.370936 
L 130.833649 283.853175 
L 131.231541 283.999569 
L 130.931491 284.946825 
L 128.237564 289.381701 
L 127.585281 291.345102 
L 126.169828 293.196555 
L 125.374043 295.840258 
L 125.237064 296.623897 
L 124.160797 297.777826 
L 123.95859 298.544241 
L 123.436764 299.258988 
L 122.556182 300.722928 
L 121.336414 301.730463 
L 120.671085 302.56577 
L 120.273193 303.289128 
L 119.999234 304.133046 
L 119.451317 305.200861 
L 119.359997 305.751991 
L 117.748859 307.439828 
L 116.822618 308.645425 
L 115.981173 309.153498 
L 115.067978 309.497955 
L 114.578766 309.885468 
L 112.608872 312.666954 
L 112.739329 313.020022 
L 112.452324 313.476426 
L 111.480423 314.41507 
L 111.212987 315.08676 
L 110.789004 315.57761 
L 110.182381 315.896233 
L 109.882331 317.334338 
L 110.247609 318.169645 
L 110.338929 319.039397 
L 110.332406 320.623897 
L 109.804057 321.829494 
L 109.732306 322.458127 
L 109.243094 323.078149 
L 109.203957 324.300969 
L 108.923475 324.800431 
L 107.912437 325.575457 
L 107.155789 326.591604 
L 107.025333 327.185791 
L 106.783988 327.736921 
L 106.236071 328.4 
L 105.877315 329.838105 
L 105.733813 330.47535 
L 105.77295 332.929602 
L 105.42724 333.231001 
L 104.996734 333.77352 
L 104.938028 334.161033 
L 105.146759 334.26437 
L 104.683638 334.100753 
L 103.946559 334.186868 
L 103.97265 334.26437 
L 103.881331 334.298816 
L 103.887853 334.62605 
L 103.907422 334.557158 
L 103.705214 334.781055 
L 103.450824 335.478579 
L 103.033363 335.960818 
L 101.904914 338.130893 
L 101.298291 339.052314 
L 101.043901 339.672336 
L 99.993726 341.28267 
L 100.006772 341.95436 
L 96.347466 347.000646 
L 96.073508 347.724004 
L 95.564727 348.275135 
L 94.749374 348.61098 
L 93.907929 349.962971 
L 93.790518 350.643272 
L 93.059962 351.978041 
L 92.896891 352.623897 
L 92.596841 353.321421 
L 92.401156 354.096448 
L 91.729305 355.388159 
L 91.298799 355.93929 
L 91.161819 356.593757 
L 90.431263 357.859634 
L 90.085553 359.228848 
L 89.185403 361.045856 
L 88.689668 361.347255 
L 88.11566 362.001722 
L 87.861269 362.47535 
L 85.095591 365.95436 
L 84.841201 366.548547 
L 84.462877 367.073843 
L 84.345466 367.72831 
L 84.064984 368.331109 
L 83.438793 371.155651 
L 83.393133 371.896233 
L 83.151789 372.5507 
L 82.564734 373.110441 
L 82.225547 373.670183 
L 81.142758 374.746609 
L 80.725297 376.038321 
L 80.190426 376.52056 
L 78.88586 378.242842 
L 78.527105 378.854252 
L 78.096598 380.223466 
L 76.628963 381.851023 
L 76.107136 382.290205 
L 75.226555 383.521636 
L 75.115667 384.201938 
L 74.874322 384.796125 
L 74.659069 386.036168 
L 74.098106 387.396771 
L 73.543666 387.904844 
L 72.656561 388.972659 
L 71.919482 390.979117 
L 71.247631 392.133046 
L 70.947581 392.796125 
L 70.543166 393.338644 
L 69.740858 395.775673 
L 69.2386 396.92099 
L 68.116674 398.471044 
L 67.78401 398.987729 
L 67.549188 400.124435 
L 67.007794 400.675565 
L 66.192441 402.41507 
L 66.101121 402.948977 
L 65.259676 404.740151 
L 64.607394 405.170721 
L 63.909451 406.247147 
L 63.62897 406.867169 
L 62.898413 408.064155 
L 62.546181 408.701399 
L 62.109151 409.235307 
L 61.600371 409.571152 
L 60.739358 410.776749 
L 60.230577 411.930678 
L 57.425762 417.381701 
L 57.177895 417.975888 
L 57.151803 418.587298 
L 55.292798 422.109365 
L 54.907951 422.677718 
L 54.74488 423.314962 
L 53.492498 425.657266 
L 52.351003 427.465662 
L 51.848746 428.903767 
L 51.105143 430.169645 
L 50.159334 431.461356 
L 48.58081 434.242842 
L 48.352511 434.974812 
L 46.493505 438.38493 
L 46.199978 439.082454 
L 45.508559 440.382777 
L 44.158333 442.199785 
L 42.508058 445.127664 
L 41.744888 445.928525 
L 40.857783 447.831647 
L 40.479459 448.382777 
L 39.429284 450.41507 
L 38.457383 451.620667 
L 37.824669 453.067384 
L 37.557233 453.807966 
L 37.518096 454.557158 
L 36.48749 456.727234 
L 36.109166 457.123358 
L 35.652568 458.9662 
L 34.537165 460.964047 
L 33.317396 463.1169 
L 32.084582 465.166416 
L 32.808616 465.6831 
L 33.336965 466.363402 
L 34.922012 466.854252 
L 35.300335 467.396771 
L 35.691705 467.655113 
L 36.259191 467.792896 
L 36.917996 468.335414 
L 37.811624 468.585145 
L 38.529134 468.989882 
L 39.031392 469.601292 
L 39.964156 469.842411 
L 40.668621 470.729386 
L 41.536157 470.944672 
L 42.175394 471.590527 
L 42.710266 471.771367 
L 44.230085 471.90915 
L 45.671629 472.408611 
L 46.486982 472.976964 
L 47.060991 473.261141 
L 47.419747 473.50226 
L 48.639515 473.92422 
L 48.985225 474.096448 
L 49.115681 474.29451 
L 49.409209 474.440904 
L 49.68969 474.699247 
L 50.068014 474.880086 
L 50.165856 475.103983 
L 51.222554 475.724004 
L 51.809609 476.120129 
L 52.122704 476.542088 
L 52.200978 476.843488 
L 52.52712 476.989882 
L 53.466407 477.04155 
L 53.818639 476.98127 
L 54.712266 477.325727 
L 54.960134 477.627126 
L 56.0364 478.092142 
L 57.556219 478.117976 
L 58.097613 478.186868 
L 60.119689 479.392465 
L 60.654561 479.426911 
L 61.672122 480.003875 
L 62.278745 480.150269 
L 63.531127 481.286975 
L 65.572772 482.47535 
L 69.37558 485.342949 
L 69.982203 485.59268 
L 70.269207 485.859634 
L 70.386618 486.56577 
L 70.419232 487.1169 
L 70.367049 487.599139 
L 69.916974 488.262217 
L 69.571265 489.13197 
L 69.447331 489.510872 
L 68.22104 490.837029 
L 67.810101 491.078149 
L 67.48396 491.500108 
L 67.268707 492.163186 
L 66.922997 492.344026 
L 66.753404 493.463509 
L 66.414217 494.591604 
L 66.485968 495.17718 
L 66.02937 496.486114 
L 65.559726 497.476426 
L 65.38361 498.148116 
L 65.057469 498.621744 
L 65.103129 498.983423 
L 64.894398 499.474273 
L 64.744373 500.464586 
L 64.307344 500.774596 
L 64.020339 501.213778 
L 63.805086 502.367707 
L 63.557219 502.93606 
L 63.426762 503.84887 
L 63.094098 504.322497 
L 62.839708 505.123358 
L 62.552704 505.717546 
L 61.698213 507.396771 
L 61.039408 507.913455 
L 60.067507 509.515178 
L 59.695706 510.255759 
L 59.076037 511.969429 
L 58.906444 512.167492 
L 58.802078 512.408611 
L 58.280252 512.443057 
L 57.021347 515.224543 
L 55.155819 518.014639 
L 55.005794 518.849946 
L 54.164349 519.797201 
L 54.014324 520.038321 
L 53.616432 520.141658 
L 53.512066 520.46028 
L 53.59034 520.511948 
L 53.453361 520.666954 
L 53.283767 520.572228 
L 53.296813 520.606674 
L 53.179402 520.821959 
L 52.78151 521.304198 
L 52.722804 521.838105 
L 52.279252 522.47535 
L 52.037908 522.768138 
L 51.385625 523.02648 
L 50.942073 523.327879 
L 49.82667 524.352637 
L 49.363549 524.946825 
L 48.893905 525.386006 
L 48.783017 526.057696 
L 48.783017 526.479656 
L 48.913474 526.703552 
L 48.809109 527.969429 
L 48.404693 528.451668 
L 48.372079 528.46028 
L 48.039415 528.916685 
L 47.471929 529.450592 
L 46.773987 530.29451 
L 46.486982 530.492573 
L 45.815131 531.861787 
L 45.860791 531.956512 
L 45.423762 531.293434 
L 45.110666 531.689559 
L 45.228077 531.887621 
L 45.110666 531.93929 
L 45.045438 532.361249 
L 44.895413 533.032939 
L 43.029885 535.159957 
L 42.873337 535.349408 
L 42.625469 535.426911 
L 42.2341 535.194403 
L 41.653568 534.953283 
L 41.307858 535.022174 
L 41.118696 535.203014 
L 40.857783 535.866093 
L 40.244638 536.4 
L 39.925019 536.115823 
L 39.527127 535.969429 
L 38.959641 533.411841 
L 38.803093 533.265447 
L 37.08759 532.447363 
L 36.702743 532.111518 
L 36.317896 531.973735 
L 35.222062 531.02648 
L 34.530642 530.217008 
L 32.338972 529.218084 
L 31.98674 529.088913 
L 31.680167 528.761679 
L 31.569279 528.322497 
L 30.74088 527.702476 
L 30.329942 527.66803 
L 29.762456 527.289128 
L 29.410223 527.1169 
L 28.653576 526.117976 
L 27.146803 525.609903 
L 25.555233 524.49042 
L 25.979217 523.75845 
L 26.174902 523.112594 
L 26.370586 522.725081 
L 26.755433 521.373089 
L 27.64906 519.383854 
L 27.720811 518.746609 
L 28.59487 517.075996 
L 29.24063 515.896233 
L 30.643038 513.56254 
L 31.217046 512.589451 
L 31.627984 512.003875 
L 31.810623 511.306351 
L 33.578309 508.671259 
L 34.171887 507.568999 
L 34.863306 506.458127 
L 34.98724 505.872551 
L 35.222062 505.330032 
L 35.874344 504.348332 
L 36.389647 503.151346 
L 37.074544 502.074919 
L 37.537665 500.989882 
L 37.863806 500.464586 
L 38.307358 500.008181 
L 39.024869 498.328956 
L 39.879359 496.735845 
L 39.983725 496.227772 
L 40.316389 495.719699 
L 41.020854 494.901615 
L 41.770979 493.231001 
L 43.545188 490.242842 
L 44.458384 488.468891 
L 49.246138 479.917761 
L 49.213524 479.340797 
L 49.500528 478.781055 
L 49.839715 478.44521 
L 50.609409 476.843488 
L 51.28126 475.724004 
L 51.470422 475.043703 
L 51.8357 474.587298 
L 52.116182 473.485038 
L 53.407701 471.263294 
L 55.221047 466.656189 
L 56.023354 465.545318 
L 56.714774 464.563617 
L 57.445331 463.599139 
L 57.738858 463.013563 
L 58.143273 462.548547 
L 58.756419 461.480732 
L 59.42827 460.412917 
L 59.760934 459.853175 
L 59.943573 459.198708 
L 61.743873 456.537783 
L 62.565749 455.573305 
L 63.139758 454.488267 
L 63.602879 453.10183 
L 64.189933 452.120129 
L 64.848738 451.052314 
L 65.08356 450.518407 
L 65.807594 449.476426 
L 66.277237 448.374166 
L 66.440308 447.891927 
L 66.851246 447.54747 
L 67.510051 446.539935 
L 68.194948 444.697094 
L 69.401671 442.285899 
L 69.877837 441.838105 
L 70.190933 441.312809 
L 71.978187 439.254682 
L 73.719782 435.655113 
L 74.111152 434.303122 
L 75.272215 431.366631 
L 75.800564 430.307427 
L 76.107136 429.584069 
L 76.792033 428.352637 
L 77.000764 428.223466 
L 77.2682 427.75845 
L 77.38561 427.284822 
L 78.044416 426.432293 
L 78.324897 425.975888 
L 78.846723 424.882239 
L 78.924997 424.408611 
L 80.620932 421.541012 
L 81.188418 419.741227 
L 81.508037 419.310657 
L 81.762427 418.242842 
L 82.042908 417.74338 
L 82.799556 416.968353 
L 83.236586 416.641119 
L 83.875822 415.487191 
L 84.130213 414.350484 
L 84.691176 413.515178 
L 85.049931 412.585145 
L 85.597849 412.171798 
L 85.741351 411.792896 
L 86.43277 410.84564 
L 86.361019 410.165339 
L 86.967642 409.218084 
L 87.76995 408.365554 
L 88.552689 406.737998 
L 89.035378 406.272982 
L 89.674615 405.10183 
L 90.092076 404.748762 
L 90.287761 404.094295 
L 90.209487 403.431216 
L 90.392126 402.759526 
L 90.829155 401.975888 
L 91.794534 400.873628 
L 92.335928 400.382777 
L 94.051431 397.95436 
L 94.097091 397.22239 
L 96.197441 392.821959 
L 97.658554 390.651884 
L 97.795534 390.040474 
L 98.552182 388.912379 
L 100.124183 385.50226 
L 101.780981 383.17718 
L 103.940036 377.777826 
L 104.461862 377.175027 
L 105.17285 376.021098 
L 105.551174 375.469968 
L 105.779473 373.747686 
L 106.177365 373.179333 
L 107.01881 372.30958 
L 108.708222 369.355867 
L 108.923475 368.684177 
L 109.76492 367.676642 
L 110.045401 367.099677 
L 110.521568 366.488267 
L 112.497984 362.716469 
L 112.863262 360.899462 
L 113.222018 360.288052 
L 113.678616 359.831647 
L 113.776458 359.1169 
L 114.063462 358.548547 
L 114.591811 358.135199 
L 114.891861 357.5324 
L 115.270185 357.067384 
L 115.583281 356.102906 
L 115.792011 355.560388 
L 116.66607 354.725081 
L 117.396627 353.50226 
L 118.355482 352.348332 
L 118.472893 351.693864 
L 119.41218 350.479656 
L 121.362505 346.208396 
L 122.249609 345.01141 
L 123.351967 342.393541 
L 123.632448 341.609903 
L 124.154275 341.084607 
L 124.51303 340.507643 
L 125.119653 338.785361 
L 126.437264 337.045856 
L 127.069978 335.84887 
L 127.324368 335.254682 
L 127.996219 334.221313 
L 128.485431 333.825188 
L 128.798527 333.394618 
L 129.763905 331.198708 
L 131.016288 329.838105 
L 131.127176 329.13197 
L 131.394612 328.58084 
L 132.138214 327.736921 
L 132.673086 326.720775 
L 133.077501 325.937137 
L 133.331891 325.584069 
L 133.658032 324.352637 
L 133.834149 323.775673 
L 134.134199 323.293434 
L 134.342929 322.638967 
L 134.740822 322.156728 
L 134.949552 321.579763 
L 135.608357 320.847793 
L 136.254117 320.778902 
L 136.691147 319.934984 
L 136.697669 319.461356 
L 136.991197 319.211625 
L 137.069471 318.651884 
L 137.323861 318.057696 
L 137.395612 317.515178 
L 137.793504 316.619591 
L 137.800027 316.111518 
L 138.863248 314.17395 
L 139.86124 312.830571 
L 140.259133 311.616362 
L 141.394104 310.798278 
L 141.765905 310.44521 
L 141.583266 310.143811 
L 141.628926 309.5324 
L 141.518038 309.075996 
L 142.013773 308.275135 
L 142.046387 308.154575 
L 142.124661 307.198708 
L 142.281209 306.664801 
L 142.81608 306.346179 
L 143.181359 305.243918 
L 143.129176 303.72831 
L 143.279201 303.211625 
L 143.311815 302.539935 
L 144.01628 301.764909 
L 144.251102 301.248224 
L 144.172828 300.567922 
L 144.61638 298.682024 
L 145.170821 298.285899 
L 146.331884 295.736921 
L 146.566706 295.05662 
L 147.186374 294.62605 
L 146.977644 293.868245 
L 147.349445 293.334338 
L 148.034341 291.896233 
L 149.064948 290.750915 
L 149.736799 290.337567 
L 150.506493 288.916685 
L 150.54563 288.046932 
L 150.75436 287.280517 
L 150.604335 286.402153 
L 151.021796 284.938213 
L 151.778444 283.51733 
L 151.837149 282.819806 
L 151.621896 282.010334 
L 151.934992 281.321421 
L 152.098062 280.675565 
L 153.343922 279.66803 
L 153.715723 279.022174 
L 154.818081 278.023251 
L 154.95506 277.248224 
L 155.287724 276.585145 
L 155.405135 275.500108 
L 155.60082 274.785361 
L 156.168306 274.29451 
L 156.840157 273.312809 
L 157.883809 272.443057 
L 158.30127 271.969429 
L 158.151245 271.530248 
L 158.457818 270.789666 
L 158.64698 268.688482 
L 160.049387 267.930678 
L 160.773421 268.120129 
L 160.616873 267.904844 
L 161.164791 266.311733 
L 161.667048 265.950054 
L 162.162783 265.398924 
L 162.462833 263.831647 
L 162.978136 262.763832 
L 162.632427 261.687406 
L 163.004228 261.084607 
L 163.584759 260.438751 
L 164.90237 259.603445 
L 165.241557 259.08676 
L 166.480894 257.855328 
L 167.015766 256.778902 
L 167.061426 255.883315 
L 168.359468 255.254682 
L 168.89434 254.893003 
L 169.24005 254.496878 
L 169.200913 254.26437 
L 168.94 254.083531 
L 170.114108 254.44521 
L 170.446772 254.410764 
L 170.675071 254.074919 
L 171.105578 253.8338 
L 171.575221 253.334338 
L 172.468849 251.81873 
L 172.905878 251.379548 
L 173.519024 249.984499 
L 173.845165 249.243918 
L 174.24958 248.821959 
L 174.784452 248.813348 
L 175.234527 248.348332 
L 175.899855 246.049085 
L 176.408636 244.964047 
L 176.936985 243.663724 
L 177.497948 242.940366 
L 178.456803 242.165339 
L 178.854695 240.942519 
L 179.265633 239.823036 
L 179.807028 238.961895 
L 179.930962 238.531324 
L 179.852688 237.902691 
L 180.120124 237.5324 
L 180.433219 237.299892 
L 181.900855 237.446286 
L 182.155246 236.895156 
L 182.507478 236.378471 
L 182.65098 236.016792 
L 182.729254 235.422605 
L 182.983644 234.948977 
L 183.355446 232.744456 
L 183.64245 232.305274 
L 184.49694 231.469968 
L 184.783944 230.961895 
L 185.586252 230.229925 
L 185.7428 229.153498 
L 186.075464 228.619591 
L 186.166784 228.094295 
L 185.938485 227.388159 
L 187.503963 225.493649 
L 187.523532 225.054467 
L 187.308278 224.865016 
L 186.447265 224.718622 
L 185.592775 224.262217 
L 184.816559 223.831647 
L 184.757853 223.418299 
L 181.555145 222.066308 
L 181.092025 221.730463 
L 179.885302 221.136276 
L 177.452288 220.008181 
L 176.767391 219.922067 
L 174.406128 218.47535 
L 173.505978 217.777826 
L 172.579737 217.476426 
L 172.123139 217.416146 
L 169.396597 215.676642 
L 167.746322 215.108288 
L 165.326354 213.454898 
L 164.008743 212.791819 
L 162.025804 211.870398 
L 161.490932 211.646502 
L 161.034334 211.327879 
L 160.558168 211.233154 
L 159.684109 210.699247 
L 158.738299 210.191173 
L 158.268656 210.010334 
L 156.005235 208.391389 
L 155.659525 207.986652 
L 155.385567 207.891927 
L 155.463841 207.521636 
L 155.20945 205.928525 
L 154.35496 203.741227 
L 154.041864 203.215931 
L 153.852702 202.630355 
L 153.820088 202.027557 
L 154.217981 200.675565 
L 155.065948 199.590527 
L 155.502977 199.246071 
L 155.992189 198.195479 
L 156.722746 197.067384 
L 158.268656 193.86394 
L 158.686117 193.407535 
L 159.521038 191.211625 
L 159.59279 190.643272 
L 159.768906 190.143811 
L 159.873271 189.489343 
L 160.082001 188.955436 
L 161.203928 187.431216 
L 162.006235 186.544241 
L 162.104078 186.130893 
L 161.784459 184.365554 
L 160.649487 183.676642 
L 160.042865 183.426911 
L 159.397105 182.858558 
L 159.149237 182.781055 
L 158.757868 182.479656 
L 158.418681 182.040474 
L 156.533584 181.8338 
L 155.998712 181.885468 
L 155.274679 181.050161 
L 153.474379 179.896233 
L 153.167806 179.534553 
L 151.928469 179.155651 
L 151.537099 178.931755 
L 150.878294 179.164263 
L 150.910908 178.682024 
L 150.173828 176.158881 
L 149.775936 175.151346 
L 149.89987 174.135199 
L 149.880301 172.654037 
L 149.952052 172.111518 
L 149.841164 171.672336 
L 149.958575 169.846717 
L 149.893347 169.347255 
L 150.252102 167.306351 
L 150.356468 164.964047 
L 150.336899 164.240689 
L 150.45431 163.482885 
L 150.349945 162.397847 
L 150.49997 161.889774 
L 150.467356 161.295587 
L 150.669563 160.374166 
L 150.447787 156.748762 
L 150.513015 154.923143 
L 150.180351 153.80366 
L 150.075986 152.555005 
L 150.036849 151.926372 
L 150.317331 150.781055 
L 150.45431 150.186868 
L 150.45431 149.635737 
L 150.265148 149.075996 
L 150.310808 147.930678 
L 150.004235 147.422605 
L 150.19992 146.148116 
L 150.128169 145.571152 
L 149.919438 144.925296 
L 150.06294 143.581916 
L 150.147737 142.341873 
L 150.767406 141.429064 
L 149.94553 140.576534 
L 149.906393 140.042626 
L 150.15426 138.837029 
L 150.265148 134.582992 
L 150.271671 133.868245 
L 150.147737 133.179333 
L 150.173828 132.533477 
L 150.069463 131.913455 
L 150.173828 130.682024 
L 150.167306 130.096448 
L 150.017281 129.476426 
L 150.343422 126.376319 
L 150.493447 125.024327 
L 150.54563 123.749839 
L 150.480401 123.08676 
L 150.19992 122.406459 
L 150.271671 121.708934 
L 150.643472 121.020022 
L 150.702177 120.486114 
L 150.989182 119.943595 
L 151.191389 119.323574 
L 151.256618 118.255759 
L 151.882809 117.196555 
L 152.241564 115.706781 
L 152.769913 114.90592 
L 153.122146 114.570075 
L 153.983159 112.529171 
L 154.172321 112.081378 
L 154.537599 111.624973 
L 154.70067 111.151346 
L 155.25511 110.436598 
L 155.659525 110.109365 
L 155.953052 109.213778 
L 156.592289 108.421529 
L 157.277186 107.388159 
L 157.375029 106.84564 
L 157.60985 106.29451 
L 158.203428 105.321421 
L 158.392589 104.839182 
L 158.738299 104.503337 
L 159.344922 104.158881 
L 159.775429 103.676642 
L 161.216973 100.266523 
L 161.5105 99.715393 
L 161.843165 98.483961 
L 162.899862 96.942519 
L 163.252095 95.590527 
L 164.55666 93.342949 
L 164.94803 92.989882 
L 165.300262 92.481808 
L 167.113608 88.572228 
L 167.94853 87.168568 
L 168.483402 86.772443 
L 168.868248 86.281593 
L 169.409643 85.050161 
L 170.39459 83.422605 
L 170.94903 81.777826 
L 171.966591 80.632508 
L 172.618874 78.798278 
L 173.779937 76.654037 
L 175.058411 75.112594 
L 175.580237 73.898385 
L 178.156753 69.196555 
L 179.109086 67.474273 
L 179.728754 66.251453 
L 179.989667 65.553929 
L 182.09654 62.178256 
L 182.48791 61.609903 
L 183.205421 59.835953 
L 183.616359 59.457051 
L 184.686102 57.769214 
L 186.695133 54.729386 
L 187.230004 53.618515 
L 188.130154 51.956512 
L 188.293225 51.405382 
L 188.873757 50.483961 
L 191.44375 45.71324 
L 191.730754 44.567922 
L 192.278672 43.913455 
L 193.172299 43.276211 
L 193.557146 43.370936 
L 194.339885 43.913455 
L 194.692118 43.904844 
L 194.900848 43.732616 
L 196.074957 44.404306 
L 196.348915 44.344026 
L 197.660003 44.817653 
L 198.116601 45.10183 
L 198.579722 45.885468 
L 199.134162 45.919914 
L 199.792968 46.488267 
L 200.340885 46.643272 
L 200.869234 46.927449 
L 201.443243 47.108288 
L 201.9455 47.435522 
L 202.454281 48.210549 
L 203.197883 48.348332 
L 203.739278 48.710011 
L 204.189353 48.778902 
L 207.09201 49.915608 
L 208.063911 50.277287 
L 208.474849 50.518407 
L 210.39256 50.811195 
L 210.73827 51.2676 
L 211.690603 51.947901 
L 212.108064 52.197632 
L 212.982122 52.395694 
L 214.312779 53.489343 
L 215.336863 53.988805 
L 217.43069 54.44521 
L 217.59376 54.686329 
L 217.678557 54.677718 
L 217.672034 54.729386 
L 217.7764 54.918837 
L 217.7764 54.918837 
" style="fill:none;stroke:#000000;stroke-width:3;"/>
   </g>
  </g>
 </g>
 <defs>
  <clipPath id="pbae1c1ddd9">
   <rect height="554.4" width="403.815127" x="7.2" y="7.2"/>
  </clipPath>
 </defs>
</svg>
