<?xml version="1.0" encoding="utf-8" standalone="no"?>
<!DOCTYPE svg PUBLIC "-//W3C//DTD SVG 1.1//EN"
  "http://www.w3.org/Graphics/SVG/1.1/DTD/svg11.dtd">
<svg height="568.8pt" version="1.1" viewBox="0 0 389.964182 568.8" width="389.964182pt" xmlns="http://www.w3.org/2000/svg" xmlns:xlink="http://www.w3.org/1999/xlink">
 <metadata>
  <rdf:RDF xmlns:cc="http://creativecommons.org/ns#" xmlns:dc="http://purl.org/dc/elements/1.1/" xmlns:rdf="http://www.w3.org/1999/02/22-rdf-syntax-ns#">
   <cc:Work>
    <dc:type rdf:resource="http://purl.org/dc/dcmitype/StillImage"/>
    <dc:date>2021-06-26T01:54:29.311270</dc:date>
    <dc:format>image/svg+xml</dc:format>
    <dc:creator>
     <cc:Agent>
      <dc:title>Matplotlib v3.4.2, https://matplotlib.org/</dc:title>
     </cc:Agent>
    </dc:creator>
   </cc:Work>
  </rdf:RDF>
 </metadata>
 <defs>
  <style type="text/css">*{stroke-linecap:butt;stroke-linejoin:round;}</style>
 </defs>
 <g id="figure_1">
  <g id="patch_1">
   <path d="M 0 568.8 
L 389.964182 568.8 
L 389.964182 0 
L 0 0 
z
" style="fill:#ffffff;"/>
  </g>
  <g id="axes_1">
   <g id="LineCollection_1">
    <path clip-path="url(#pf9f9df15b0)" d="M 25.217262 365.028211 
L 25.717122 365.216842 
L 26.056312 365.994947 
L 24.271099 365.664842 
L 24.342508 366.820211 
L 24.485325 367.221053 
L 24.931628 367.268211 
L 25.949199 367.598316 
L 27.270257 368.635789 
L 28.859097 369.555368 
L 31.644029 371.229474 
L 33.786284 372.785684 
L 36.928259 374.884211 
L 37.731605 374.907789 
L 38.838437 375.473684 
L 38.963402 375.332211 
L 39.249036 375.379368 
L 39.481114 375.568 
L 40.355868 374.978526 
L 40.695059 375.12 
L 41.159214 374.907789 
L 41.409144 375.025684 
L 42.890871 374.176842 
L 45.31876 375.261474 
L 45.747211 375.756632 
L 46.854043 376.346105 
L 47.621685 376.935579 
L 48.371474 377.242105 
L 48.996299 377.902316 
L 50.103131 378.421053 
L 50.478026 378.562526 
L 51.209963 379.152 
L 52.798803 380.095158 
L 53.744966 380.849684 
L 55.066023 381.604211 
L 56.54775 381.957895 
L 58.243702 381.887158 
L 59.636168 381.580632 
L 61.046487 380.613895 
L 62.028354 379.788632 
L 63.295855 377.289263 
L 65.241737 373.823158 
L 65.59878 372.809263 
L 66.062935 371.866105 
L 66.830577 371.370947 
L 68.133782 371.158737 
L 69.651213 371.866105 
L 71.436426 372.950737 
L 74.792627 374.648421 
L 88.467358 378.232421 
L 90.431092 378.916211 
L 96.072365 382.005053 
L 99.053671 384.221474 
L 103.766633 387.758316 
L 104.819909 388.819368 
L 105.444734 389.762526 
L 106.58727 390.847158 
L 111.264528 393.723789 
L 116.977209 396.529684 
L 122.207884 399.099789 
L 125.52838 400.090105 
L 129.027397 401.693474 
L 130.544828 402.542316 
L 133.972437 403.909895 
L 137.221525 404.994526 
L 138.881773 405.678316 
L 140.470612 406.456421 
L 141.988043 406.928 
L 143.576883 407.706105 
L 148.468367 409.663158 
L 149.860833 410.370526 
L 151.68175 410.983579 
L 153.341998 411.714526 
L 156.751755 413.648 
L 160.036547 415.652211 
L 164.642396 419.707789 
L 166.124123 421.429053 
L 167.177399 423.268211 
L 167.927188 425.060211 
L 169.069724 429.210105 
L 169.890922 433.194947 
L 170.801381 437.604211 
L 172.086734 442.060632 
L 173.157862 443.899789 
L 174.068321 446.045474 
L 176.442654 450.195368 
L 177.906529 452.317474 
L 179.531072 454.015158 
L 181.405546 455.642105 
L 185.083085 458.047158 
L 189.135518 461.442526 
L 196.651265 474.293053 
L 197.829506 475.896421 
L 200.310952 478.372211 
L 203.720708 482.875789 
L 205.862964 485.092211 
L 207.076909 485.988211 
L 208.469375 487.615158 
L 209.915397 488.440421 
L 214.96755 492.967579 
L 216.217199 493.674947 
L 217.413292 494.005053 
L 220.198224 495.254737 
L 221.322908 495.820632 
L 222.34048 496.127158 
L 223.500868 496.952421 
L 224.571996 497.494737 
L 226.53573 499.145263 
L 228.71369 501.385263 
L 229.838374 502.045474 
L 230.695277 502.894316 
L 238.175319 505.558737 
L 239.478524 506.171789 
L 240.638913 507.067789 
L 241.745745 508.128842 
L 244.084374 509.142737 
L 245.369727 509.779368 
L 248.868745 511.217684 
L 250.118394 512.278737 
L 251.350191 513.552 
L 252.546284 514.542316 
L 254.27794 515.296842 
L 257.152133 517.136 
L 258.740973 517.796211 
L 260.419073 518.314947 
L 263.561048 519.894737 
L 265.328408 520.531368 
L 269.934258 523.195789 
L 273.094085 525.341474 
L 276.093243 526.638316 
L 276.932293 527.605053 
L 278.289055 528.100211 
L 280.181381 529.845053 
L 281.27036 531.165474 
L 282.252228 532.085053 
L 283.733954 532.556632 
L 285.572724 533.287579 
L 288.107726 533.971368 
L 289.161002 535.103158 
L 289.803679 536.117053 
L 291.303257 536.4 
L 292.99921 536.329263 
L 294.409528 534.843789 
L 295.659177 533.759158 
L 296.551784 532.533053 
L 298.158475 531.401263 
L 300.407844 528.996211 
L 301.836014 526.732632 
L 302.996402 526.001684 
L 303.585523 525.2 
L 304.388869 525.412211 
L 304.210347 525.058526 
L 303.942565 524.917053 
L 305.281475 521.804632 
L 306.120525 520.578526 
L 307.120244 519.352421 
L 308.655528 517.041684 
L 309.619543 515.957053 
L 310.476445 514.353684 
L 310.904896 512.938947 
L 311.369051 511.807158 
L 311.511868 510.604632 
L 312.065284 510.133053 
L 312.386623 510.062316 
L 312.672257 509.496421 
L 312.850778 508.765474 
L 312.975743 507.209263 
L 313.172116 507.138526 
L 313.207821 507.28 
L 313.225673 507.162105 
L 313.36849 507.020632 
L 313.886202 506.761263 
L 314.100427 506.478316 
L 314.296801 506.478316 
L 315.260816 503.648842 
L 317.313811 500.819368 
L 319.634587 496.268632 
L 320.259412 494.901053 
L 323.454943 489.053474 
L 324.240437 487.473684 
L 325.43653 486.035368 
L 325.847129 484.149053 
L 326.686179 482.946526 
L 327.186038 481.814737 
L 327.36456 480.918737 
L 328.096497 480.117053 
L 328.757026 479.857684 
L 328.489244 479.881263 
L 328.185758 479.621895 
L 328.20361 479.928421 
L 327.95368 479.857684 
L 327.70375 480.234947 
L 327.882271 480.211368 
L 328.257166 479.881263 
L 328.739174 479.857684 
L 328.721322 479.928421 
L 329.024808 479.598316 
L 328.774878 479.598316 
L 329.04266 478.16 
L 329.596076 477.617684 
L 330.631499 477.994947 
L 332.39886 478.867368 
L 334.898158 480.965895 
L 335.6658 482.003368 
L 336.736928 483.158737 
L 339.396895 484.172632 
L 340.253797 484.667789 
L 345.323802 486.860632 
L 347.287537 487.780211 
L 348.126587 488.440421 
L 349.144158 488.676211 
L 350.215286 489.242105 
L 351.679161 490.350316 
L 353.500078 489.902316 
L 353.839268 490.114526 
L 354.285572 490.067368 
L 354.678318 489.902316 
L 359.087794 486.483368 
L 363.122376 483.229474 
L 365.532413 484.172632 
L 364.58625 483.842526 
L 363.782905 486.082526 
L 363.318749 486.271158 
L 363.515123 485.257263 
L 363.961426 484.785684 
L 364.24706 483.630316 
L 365.175371 482.569263 
L 365.478857 483.205895 
L 365.693082 483.394526 
L 365.08611 481.413895 
L 363.836461 479.928421 
L 363.033115 478.348632 
L 361.694205 476.202947 
L 352.036203 469.388632 
L 351.375674 469.152842 
L 349.626166 468.304 
L 348.162291 467.077895 
L 346.430634 466.417684 
L 342.003306 463.706105 
L 340.128833 462.149895 
L 337.968725 461.442526 
L 336.665519 460.192842 
L 335.594392 458.990316 
L 333.969848 458.424421 
L 332.613086 457.811368 
L 331.131359 456.821053 
L 324.34755 453.590737 
L 321.134166 452.388211 
L 319.473918 451.798737 
L 317.510184 450.784842 
L 316.296239 450.454737 
L 315.117999 450.313263 
L 313.975462 449.959579 
L 312.975743 449.417263 
L 312.511588 448.804211 
L 311.494016 448.474105 
L 310.797783 447.861053 
L 310.012289 447.554526 
L 309.351761 446.139789 
L 309.458873 445.597474 
L 309.405317 445.338105 
L 307.994999 444.229895 
L 305.638518 443.121684 
L 298.212032 439.632 
L 295.391395 438.429474 
L 292.874245 436.684632 
L 291.6603 435.647158 
L 290.23213 434.633263 
L 287.982761 433.36 
L 286.536739 432.063158 
L 285.554872 431.544421 
L 283.323355 431.025684 
L 283.055573 430.789895 
L 282.841348 431.308632 
L 282.180819 431.261474 
L 281.752368 430.719158 
L 280.663388 429.705263 
L 278.342611 428.361263 
L 277.164371 427.795368 
L 276.093243 427.088 
L 272.790599 425.932632 
L 271.201759 424.918737 
L 269.916406 423.527579 
L 266.167459 421.546947 
L 262.436363 419.141895 
L 261.204566 418.670316 
L 258.919494 417.373474 
L 257.937627 417.066947 
L 256.384491 416.359579 
L 255.295512 416.029474 
L 254.385053 415.322105 
L 253.903045 414.025263 
L 253.831637 413.294316 
L 254.135123 411.950316 
L 254.402905 411.596632 
L 254.688539 410.912842 
L 254.974173 410.747789 
L 254.974173 410.464842 
L 255.099138 410.394105 
L 256.295231 409.285895 
L 256.920055 408.743579 
L 257.616288 407.965474 
L 258.151852 407.116632 
L 258.669564 405.866947 
L 259.544318 403.108211 
L 260.204847 401.787789 
L 260.454777 400.396632 
L 260.186995 399.099789 
L 258.72312 398.298105 
L 257.687697 397.543579 
L 257.348506 396.246737 
L 257.955479 394.360421 
L 258.294669 392.191158 
L 260.758263 386.154947 
L 264.685732 378.232421 
L 266.899396 374.271158 
L 268.756017 370.215579 
L 270.077075 368.329263 
L 271.094646 366.301474 
L 272.290739 364.391579 
L 273.361867 362.316632 
L 274.218769 360.100211 
L 275.39701 358.331789 
L 277.432153 354.205474 
L 281.555995 346.235789 
L 282.430749 344.184421 
L 283.591137 342.133053 
L 285.394202 338.077474 
L 286.786669 334.045474 
L 287.482902 332.041263 
L 288.107726 327.679158 
L 288.14343 325.627789 
L 287.768536 320.982737 
L 287.947057 314.451368 
L 287.80424 312.258526 
L 287.929205 309.971368 
L 288.232691 307.660632 
L 288.625438 305.538526 
L 289.339523 303.369263 
L 290.535616 299.030737 
L 290.856954 296.743579 
L 290.749841 294.550737 
L 289.696566 290.165053 
L 288.911072 288.160842 
L 286.090435 282.053895 
L 284.876491 280.120421 
L 282.234375 276.465684 
L 281.502438 274.437895 
L 281.306065 269.769263 
L 281.448882 267.364211 
L 282.341488 262.506947 
L 283.037721 260.125474 
L 284.894343 255.551158 
L 286.393922 253.499789 
L 287.607867 251.283368 
L 290.981919 244.280421 
L 294.08819 239.847579 
L 296.694601 235.792 
L 298.247736 233.929263 
L 299.729463 231.948632 
L 303.014255 228.506105 
L 307.459435 223.248 
L 312.208101 218.555789 
L 315.54645 215.301895 
L 317.081733 213.674947 
L 318.688425 212.213053 
L 320.098743 210.421053 
L 321.366244 208.487579 
L 322.294555 206.341895 
L 322.847971 204.196211 
L 323.187161 201.909053 
L 322.812267 194.835368 
L 322.794414 192.642526 
L 322.580189 187.997474 
L 323.151457 179.061053 
L 323.383535 176.915368 
L 323.865542 174.864 
L 324.811705 168.261895 
L 325.900685 161.966316 
L 327.418116 156.071579 
L 328.060793 154.232421 
L 328.953399 152.369684 
L 331.238472 148.997895 
L 332.434565 147.606737 
L 335.308757 144.800842 
L 336.933301 143.551158 
L 340.27165 140.745263 
L 342.074715 139.660632 
L 344.002745 138.741053 
L 345.877218 137.656421 
L 349.536905 135.274947 
L 351.00078 133.553684 
L 352.161168 131.596632 
L 352.964514 129.427368 
L 353.035922 126.998737 
L 352.750288 124.546526 
L 351.732717 122.259368 
L 350.322399 120.373053 
L 348.537186 118.722526 
L 346.377078 117.567158 
L 343.87778 117.142737 
L 341.414186 117.142737 
L 339.004148 117.543579 
L 336.594111 118.274526 
L 332.131078 120.561684 
L 330.417274 122.165053 
L 326.346988 125.018105 
L 324.061916 126.079158 
L 321.848252 126.975158 
L 319.473918 127.116632 
L 317.063881 126.385684 
L 314.79666 125.088842 
L 312.86863 123.296842 
L 311.77965 121.056842 
L 311.029861 118.746105 
L 310.779931 116.246737 
L 311.065565 114.053895 
L 312.100989 112.167579 
L 313.493455 110.304842 
L 314.903773 108.607158 
L 316.189126 106.602947 
L 317.528036 104.928842 
L 320.670011 101.627789 
L 323.633465 98.232421 
L 325.168748 96.416842 
L 328.614209 90.592842 
L 329.453259 88.494316 
L 330.524387 86.584421 
L 331.55981 84.415158 
L 334.059108 78.025263 
L 334.755341 75.856 
L 335.219497 73.851789 
L 335.844321 71.776842 
L 335.969286 69.701895 
L 335.844321 67.532632 
L 335.612244 65.481263 
L 335.183793 63.571368 
L 334.451855 61.920842 
L 333.48784 60.364632 
L 332.3096 58.714105 
L 331.095655 57.205053 
L 329.453259 55.813895 
L 328.185758 54.328421 
L 326.739735 53.078737 
L 325.454382 51.758316 
L 323.883394 50.437895 
L 322.276703 49.235368 
L 320.919941 47.938526 
L 319.420362 46.901053 
L 316.117718 44.873263 
L 312.957891 42.751158 
L 311.279791 41.902316 
L 309.530282 41.194947 
L 307.745069 40.346105 
L 302.514395 38.506947 
L 300.568513 38.436211 
L 298.7833 37.728842 
L 297.140904 37.210105 
L 295.319987 37.045053 
L 293.481217 36.644211 
L 289.964348 36.384842 
L 288.250543 36.314105 
L 282.912756 34.946526 
L 276.735919 32.517895 
L 275.111376 32.4 
L 273.55824 32.588632 
L 272.112218 32.965895 
L 269.434398 34.074105 
L 268.077636 34.875789 
L 265.84612 36.974316 
L 264.596471 37.893895 
L 263.5789 39.002105 
L 262.900519 40.251789 
L 262.23999 41.878737 
L 261.258123 44.684632 
L 261.061749 47.962105 
L 260.883228 50.885895 
L 260.686855 52.347789 
L 260.865376 53.904 
L 261.329531 55.460211 
L 262.864815 57.605895 
L 264.292985 59.798737 
L 265.310556 60.506105 
L 266.34598 61.472842 
L 268.381123 62.840421 
L 271.773027 63.689263 
L 272.71919 64.231579 
L 273.80817 64.538105 
L 278.485428 66.919579 
L 279.717225 67.226105 
L 280.645536 67.815579 
L 281.377473 68.735158 
L 282.716383 69.584 
L 283.44832 70.267789 
L 284.340927 71.352421 
L 284.983603 72.602105 
L 285.644132 73.592421 
L 285.894062 74.889263 
L 286.304661 76.044632 
L 286.536739 81.090526 
L 288.089874 89.979789 
L 288.803959 93.280842 
L 290.357095 98.538947 
L 290.785546 100.307368 
L 290.785546 104.009263 
L 290.517764 106.013474 
L 289.518044 110.399158 
L 288.661142 112.426947 
L 287.590014 114.525474 
L 285.179977 118.298105 
L 283.805363 120.090105 
L 282.305784 121.764211 
L 280.502719 123.249684 
L 278.735358 124.428632 
L 276.914441 126.008421 
L 272.897712 128.366316 
L 268.631053 130.299789 
L 261.829391 132.681263 
L 257.527028 135.062737 
L 253.760228 137.774316 
L 252.34991 139.519158 
L 251.26093 141.641263 
L 250.350472 143.857684 
L 249.100822 148.125474 
L 247.494131 152.228211 
L 246.601524 154.090947 
L 245.601805 155.835789 
L 243.04895 158.830316 
L 241.692189 159.797053 
L 237.300565 162.272842 
L 235.729577 162.791579 
L 232.444785 163.569684 
L 230.730981 164.394947 
L 226.214392 165.904 
L 223.143826 167.224421 
L 219.930442 168.686316 
L 213.325154 173.708632 
L 212.004097 174.958316 
L 210.843708 176.325895 
L 209.68332 177.504842 
L 207.630325 180.051368 
L 206.719866 181.277474 
L 205.702295 182.456421 
L 204.82754 183.729684 
L 201.756974 189.152842 
L 200.88222 190.355368 
L 199.436197 193.066947 
L 198.597147 194.387368 
L 198.2044 195.613474 
L 196.329927 198.678737 
L 195.544433 200.848 
L 195.258799 201.956211 
L 193.384325 206.719158 
L 192.830909 207.803789 
L 192.313197 209.218526 
L 191.83119 210.138105 
L 189.206927 216.763789 
L 188.617807 218.107789 
L 187.064671 220.630737 
L 185.654353 223.413053 
L 183.886992 225.865263 
L 183.172907 227.114947 
L 179.477516 230.793263 
L 176.74614 233.033263 
L 173.746982 234.919579 
L 170.729972 236.452211 
L 169.176837 237.301053 
L 167.820075 238.409263 
L 165.392186 240.837895 
L 164.6781 242.181895 
L 161.839612 246.449684 
L 160.589963 249.845053 
L 160.072251 251.566316 
L 159.715208 253.287579 
L 159.518835 254.985263 
L 159.197497 256.612211 
L 159.322461 258.309895 
L 159.340314 263.332211 
L 159.768765 269.132632 
L 159.376018 270.240842 
L 159.286757 272.08 
L 159.018975 273.754105 
L 158.55482 275.286737 
L 157.144502 278.304842 
L 156.591086 279.601684 
L 155.573514 280.615579 
L 153.806153 282.619789 
L 150.360692 285.237053 
L 149.521642 286.062316 
L 146.754562 287.335579 
L 145.469209 288.231579 
L 144.21956 288.750316 
L 143.077023 289.410526 
L 140.470612 290.165053 
L 139.220963 290.707368 
L 138.060575 291.037474 
L 136.882334 291.532632 
L 134.632966 292.617263 
L 133.401169 293.041684 
L 132.419302 293.701895 
L 130.116377 294.857263 
L 128.902432 295.706105 
L 127.831304 296.319158 
L 127.260036 297.050105 
L 123.368272 300.091789 
L 121.118904 301.978105 
L 120.047776 303.109895 
L 118.958796 303.888 
L 117.709147 304.949053 
L 115.281257 307.472 
L 113.049741 310.254316 
L 111.746535 311.669053 
L 107.283503 317.540211 
L 104.587831 323.104842 
L 102.409872 326.641684 
L 101.785047 328.787368 
L 101.05311 330.744421 
L 99.981982 334.493474 
L 100.05339 336.214737 
L 99.446418 338.218947 
L 99.285749 342.345263 
L 99.660644 347.957053 
L 100.713919 353.097263 
L 101.588674 356.374737 
L 102.159942 357.742316 
L 102.624097 361.279158 
L 103.516704 364.368 
L 104.141528 365.688421 
L 105.891037 371.606737 
L 107.104982 377.194947 
L 106.890756 378.468211 
L 107.104982 379.458526 
L 106.694383 382.712421 
L 106.105262 384.339368 
L 105.74822 385.848421 
L 105.230508 387.475368 
L 103.802338 390.658526 
L 102.034977 393.535158 
L 101.320892 395.209263 
L 100.517546 396.718316 
L 97.768318 400.750316 
L 96.715042 401.905684 
L 94.983385 404.970947 
L 93.965814 406.291368 
L 92.84113 407.470316 
L 90.448945 409.498105 
L 89.395669 410.464842 
L 86.057321 413.954526 
L 84.789819 414.921263 
L 83.700839 416.029474 
L 82.433338 417.019789 
L 81.02302 417.750737 
L 79.612702 418.670316 
L 78.273792 419.354105 
L 74.39988 422.16 
L 72.150511 424.352842 
L 71.061531 425.555368 
L 70.29389 426.852211 
L 69.508396 427.960421 
L 68.687198 428.290526 
L 68.240895 427.818947 
L 68.205191 427.064421 
L 68.330156 426.357053 
L 68.919276 424.824421 
L 69.347727 422.183579 
L 69.5441 420.698105 
L 69.918995 419.967158 
L 70.222481 417.750737 
L 70.525968 416.666105 
L 70.597376 413.860211 
L 70.918714 412.280421 
L 71.007975 411.313684 
L 71.311461 410.299789 
L 71.418574 405.890526 
L 69.776178 398.392421 
L 68.133782 394.832 
L 66.901985 392.709895 
L 65.330998 390.658526 
L 64.59906 389.550316 
L 63.849271 388.725053 
L 63.099482 388.277053 
L 61.546346 387.593263 
L 61.207156 387.168842 
L 61.010782 387.357474 
L 61.135747 387.263158 
L 60.975078 387.074526 
L 59.939655 386.508632 
L 59.082752 385.683368 
L 58.172294 385.093895 
L 55.905073 384.245053 
L 54.905354 383.679158 
L 52.798803 382.830316 
L 48.549996 381.274105 
L 46.336332 379.647158 
L 43.1408 377.477895 
L 42.266046 376.629053 
L 41.302031 375.992421 
L 40.266608 375.520842 
L 38.052943 373.776 
L 35.303715 372.290526 
L 34.054066 371.276632 
L 27.46663 367.079579 
L 26.62758 367.150316 
L 25.895643 366.348632 
L 25.913495 366.183579 
L 25.824234 366.537263 
L 25.5386 366.277895 
L 25.377931 365.924211 
L 25.377931 365.924211 
" style="fill:none;stroke:#000000;stroke-width:3;"/>
   </g>
  </g>
 </g>
 <defs>
  <clipPath id="pf9f9df15b0">
   <rect height="554.4" width="375.564182" x="7.2" y="7.2"/>
  </clipPath>
 </defs>
</svg>
