<?xml version="1.0" encoding="utf-8" standalone="no"?>
<!DOCTYPE svg PUBLIC "-//W3C//DTD SVG 1.1//EN"
  "http://www.w3.org/Graphics/SVG/1.1/DTD/svg11.dtd">
<svg height="568.8pt" version="1.1" viewBox="0 0 306.213369 568.8" width="306.213369pt" xmlns="http://www.w3.org/2000/svg" xmlns:xlink="http://www.w3.org/1999/xlink">
 <metadata>
  <rdf:RDF xmlns:cc="http://creativecommons.org/ns#" xmlns:dc="http://purl.org/dc/elements/1.1/" xmlns:rdf="http://www.w3.org/1999/02/22-rdf-syntax-ns#">
   <cc:Work>
    <dc:type rdf:resource="http://purl.org/dc/dcmitype/StillImage"/>
    <dc:date>2021-08-03T02:07:43.283567</dc:date>
    <dc:format>image/svg+xml</dc:format>
    <dc:creator>
     <cc:Agent>
      <dc:title>Matplotlib v3.4.2, https://matplotlib.org/</dc:title>
     </cc:Agent>
    </dc:creator>
   </cc:Work>
  </rdf:RDF>
 </metadata>
 <defs>
  <style type="text/css">*{stroke-linecap:butt;stroke-linejoin:round;}</style>
 </defs>
 <g id="figure_1">
  <g id="patch_1">
   <path d="M 0 568.8 
L 306.213369 568.8 
L 306.213369 0 
L 0 0 
z
" style="fill:#ffffff;"/>
  </g>
  <g id="axes_1">
   <g id="LineCollection_1">
    <path clip-path="url(#p268b6c7f40)" d="M 237.457449 32.486144 
L 237.457449 32.523063 
L 237.452788 32.492298 
L 237.634598 32.4 
L 237.634598 32.436919 
L 237.92363 32.603055 
L 238.245295 32.719965 
L 239.172995 33.169146 
L 239.667147 33.821382 
L 240.026106 33.649094 
L 241.382692 33.864454 
L 245.028227 35.77809 
L 245.690203 36.774904 
L 245.937279 37.03949 
L 245.983897 37.56251 
L 246.081795 37.636348 
L 246.338195 37.42714 
L 246.934906 36.984112 
L 247.746061 35.895001 
L 248.790306 34.467465 
L 249.037382 34.442852 
L 250.198172 35.064323 
L 253.228348 35.808856 
L 253.759794 35.870388 
L 255.866932 36.590309 
L 258.011364 37.999385 
L 258.845827 38.380881 
L 261.451778 39.81457 
L 263.703432 41.149808 
L 267.51213 42.601956 
L 267.936354 42.786551 
L 268.836083 43.475706 
L 270.621556 44.195627 
L 272.756664 45.395495 
L 273.1063 45.727766 
L 274.010691 46.373849 
L 274.765904 47.167608 
L 275.78684 50.97642 
L 276.010607 52.040919 
L 276.677245 53.63459 
L 277.367193 54.772926 
L 277.796079 55.314405 
L 278.770397 56.040479 
L 279.865922 56.785013 
L 280.593165 57.486474 
L 280.924153 58.064872 
L 281.376348 58.550972 
L 283.259719 61.572179 
L 285.399489 64.002681 
L 285.679198 64.378024 
L 285.749125 64.845665 
L 284.038241 68.125305 
L 283.758533 68.476036 
L 282.872789 70.377365 
L 280.248191 74.979936 
L 278.220304 78.801055 
L 277.838036 79.914779 
L 276.994248 81.939172 
L 276.504758 82.659092 
L 275.283365 85.02191 
L 274.444239 86.332535 
L 273.903469 87.421646 
L 272.896518 89.076849 
L 272.337101 89.993671 
L 272.062055 90.129041 
L 271.479329 90.910493 
L 271.306842 91.630414 
L 270.481702 93.279464 
L 268.514418 96.817537 
L 268.369902 97.285177 
L 267.801162 98.152774 
L 267.036625 99.71568 
L 264.505263 103.709087 
L 264.276834 104.23826 
L 262.943557 106.311878 
L 262.738438 106.828744 
L 262.034504 107.899396 
L 261.778105 108.416262 
L 261.628927 108.970047 
L 260.924994 110.360664 
L 260.533402 111.105197 
L 259.75488 112.668102 
L 259.307346 113.123437 
L 259.08358 113.806439 
L 258.640708 114.710955 
L 257.573154 116.907637 
L 256.929824 117.393737 
L 255.778357 119.713482 
L 255.438045 120.131898 
L 254.98585 121.196396 
L 254.715465 121.424063 
L 253.494071 123.386925 
L 252.995258 124.537567 
L 252.757505 124.839073 
L 252.034925 126.303527 
L 251.27505 127.607999 
L 251.065269 128.180244 
L 250.519837 129.275508 
L 249.759962 131.035315 
L 249.303105 132.284408 
L 247.909224 134.34572 
L 246.575947 136.671619 
L 245.806749 137.686892 
L 245.52704 138.351434 
L 243.862774 141.114207 
L 241.382692 145.852148 
L 241.037718 146.196726 
L 240.520258 147.095088 
L 240.082048 148.239578 
L 238.725461 150.491638 
L 238.436429 151.556137 
L 237.877012 152.651401 
L 236.138158 155.100363 
L 235.047294 156.921701 
L 234.539157 157.746226 
L 234.46923 158.053884 
L 233.294454 159.586024 
L 233.121967 159.727546 
L 232.669772 160.650522 
L 230.623238 164.85929 
L 230.003217 166.028392 
L 229.723509 166.163762 
L 229.271314 166.889836 
L 229.187401 167.726667 
L 228.898369 168.02202 
L 228.483468 169.308032 
L 228.273686 170.237161 
L 228.329628 170.981694 
L 228.138494 170.834018 
L 227.979993 170.630964 
L 227.569753 170.501747 
L 227.145529 170.594045 
L 226.833188 170.538666 
L 226.819202 172.107724 
L 226.548817 172.519987 
L 226.394978 173.122997 
L 226.367007 173.830612 
L 226.105945 174.679749 
L 225.630441 175.14739 
L 225.336747 175.750401 
L 225.271482 176.273421 
L 224.702741 177.80556 
L 224.320473 178.740842 
L 223.975499 179.134645 
L 223.294875 179.706889 
L 222.991857 180.519108 
L 222.963886 180.937523 
L 222.702825 181.909724 
L 222.726134 182.46351 
L 222.544324 182.968069 
L 221.980245 183.214196 
L 221.136457 184.087946 
L 220.735542 185.023228 
L 220.353274 186.499989 
L 220.19011 187.016855 
L 219.169174 188.056741 
L 218.903451 188.438238 
L 218.609757 189.361213 
L 217.397687 191.397912 
L 216.525929 191.890166 
L 215.971174 192.573168 
L 215.439727 194.26529 
L 214.870987 194.769849 
L 214.637896 195.182112 
L 214.637896 196.086628 
L 214.227657 197.704912 
L 213.929301 198.092561 
L 212.987616 198.646347 
L 212.796482 198.960158 
L 212.591362 199.581628 
L 210.829199 202.504384 
L 210.423621 202.965872 
L 210.125266 204.141127 
L 209.556525 205.101022 
L 209.444641 205.580969 
L 209.164933 206.042457 
L 208.805974 206.350115 
L 208.544912 206.830063 
L 208.004143 209.032897 
L 207.290886 210.485046 
L 206.745454 211.340336 
L 206.381833 212.275618 
L 204.195445 214.70612 
L 203.934384 215.050698 
L 202.974051 218.158049 
L 202.685019 218.637996 
L 202.340045 218.964114 
L 201.403022 221.283859 
L 201.058048 221.646896 
L 200.759692 222.126843 
L 200.335467 222.48988 
L 199.971846 222.951368 
L 199.30987 224.858851 
L 198.922939 225.197275 
L 198.596613 225.658763 
L 197.902003 226.163323 
L 197.412513 226.975541 
L 196.918362 228.667663 
L 196.918362 229.393737 
L 196.787831 229.818306 
L 196.717904 229.627557 
L 196.382254 229.092232 
L 196.307665 229.043006 
L 196.316988 229.006087 
L 196.181796 228.901483 
L 196.172472 228.932249 
L 195.710953 228.772267 
L 195.664335 228.747654 
L 194.862504 229.350665 
L 194.871828 229.873684 
L 194.713326 230.532073 
L 191.249602 236.186837 
L 190.997865 237.189803 
L 190.666876 237.522074 
L 189.837074 238.820393 
L 189.277657 241.810834 
L 188.983964 241.933897 
L 187.84182 245.072014 
L 187.520156 245.35506 
L 186.984048 246.130359 
L 186.57847 247.342534 
L 186.461925 248.431645 
L 186.326733 248.917745 
L 186.270791 249.889946 
L 186.093642 250.468344 
L 185.040073 250.369893 
L 184.648481 250.905219 
L 184.266213 252.049709 
L 183.860636 253.348028 
L 182.50405 254.492517 
L 181.296641 257.39066 
L 180.947005 257.630634 
L 180.275705 258.799736 
L 179.837495 259.93192 
L 179.357329 260.916427 
L 178.075331 261.9317 
L 177.786299 262.430107 
L 177.618474 262.983892 
L 176.592876 264.866762 
L 175.837663 266.57119 
L 175.450733 266.995759 
L 174.942596 268.011032 
L 174.737476 268.521745 
L 172.854106 270.644589 
L 172.136187 271.727546 
L 171.590756 272.761279 
L 170.677041 274.108823 
L 170.02905 275.49944 
L 169.781974 276.065531 
L 169.157291 276.970047 
L 168.667802 278.932908 
L 168.476667 279.505153 
L 168.085076 280.009713 
L 167.138728 280.766553 
L 166.798416 281.172662 
L 165.665597 284.033886 
L 164.635337 285.701395 
L 164.444203 286.187496 
L 164.290363 287.208922 
L 164.159833 287.645797 
L 163.054984 288.857972 
L 162.257815 290.654697 
L 162.22052 291.0485 
L 162.057357 291.208483 
L 161.926826 291.528447 
L 161.339438 292.180683 
L 161.017774 292.789847 
L 160.560916 293.798967 
L 159.805703 294.469663 
L 158.985225 295.128052 
L 158.579648 295.281881 
L 157.857067 296.321767 
L 157.358254 296.986309 
L 157.251032 297.435491 
L 157.055236 297.681617 
L 156.39326 299.736776 
L 155.945726 301.99499 
L 155.703312 302.610307 
L 155.325705 302.511856 
L 155.20916 302.671838 
L 154.962084 302.727217 
L 154.705685 302.979497 
L 153.889868 304.530096 
L 153.577527 304.880826 
L 153.134655 305.711504 
L 152.738402 306.505263 
L 152.659151 306.905219 
L 152.29553 307.102121 
L 151.98785 307.403626 
L 151.255946 310.018723 
L 150.82706 311.052456 
L 150.598631 311.144753 
L 150.193054 311.649313 
L 149.964625 312.067729 
L 149.824771 312.867641 
L 149.684917 313.298363 
L 149.367914 313.766004 
L 148.883086 314.892034 
L 148.486832 315.211999 
L 148.267727 315.79655 
L 147.927415 316.245731 
L 146.617447 318.663927 
L 145.862234 319.69766 
L 145.694409 320.251445 
L 145.354097 320.743698 
L 144.901901 321.765125 
L 144.263234 322.681947 
L 143.37749 324.047951 
L 142.888 325.007845 
L 142.375201 325.980046 
L 142.002256 326.349236 
L 141.307647 327.813691 
L 140.59439 329.468894 
L 139.913766 330.213427 
L 139.624734 330.699528 
L 139.22848 332.391649 
L 139.181862 333.093111 
L 138.524547 333.431535 
L 138.165588 333.794572 
L 136.361468 337.26496 
L 135.200678 338.815559 
L 135.065485 339.406263 
L 134.342905 340.612284 
L 133.806797 342.236721 
L 133.42919 342.501308 
L 132.883759 343.424283 
L 132.725257 343.928843 
L 132.329003 344.285727 
L 131.345362 346.045533 
L 130.543531 347.042347 
L 129.914187 347.860719 
L 128.47835 350.605032 
L 128.007507 351.497242 
L 127.727798 351.835666 
L 127.322221 352.974003 
L 126.627612 354.173871 
L 126.259329 355.429118 
L 125.224407 357.152005 
L 124.912066 357.379673 
L 124.61371 357.810394 
L 124.016999 359.422525 
L 123.639392 360.437798 
L 123.289757 360.591627 
L 122.776958 361.477684 
L 121.728051 363.711284 
L 121.173295 363.514383 
L 120.492671 364.640413 
L 120.217625 365.667993 
L 120.138374 366.01257 
L 119.672193 366.547896 
L 119.45775 366.615581 
L 119.038187 366.510977 
L 118.380872 366.732491 
L 117.476481 367.360114 
L 116.856461 368.350775 
L 116.847137 368.830722 
L 117.066242 369.606021 
L 116.62337 370.252104 
L 116.39028 370.492078 
L 115.79823 370.996638 
L 115.327387 371.359675 
L 115.02437 372.005758 
L 114.553527 372.578002 
L 114.315775 372.959499 
L 113.788991 373.40868 
L 113.644475 373.857862 
L 112.586244 375.266938 
L 111.919605 375.716119 
L 111.75178 376.073003 
L 111.658544 376.029931 
L 111.206349 376.860609 
L 110.646932 378.281991 
L 110.194736 378.700407 
L 109.649305 379.432634 
L 108.99199 380.275618 
L 108.619045 381.703153 
L 108.768223 381.973893 
L 109.033946 382.158488 
L 109.201771 382.441534 
L 109.574716 382.773805 
L 110.381209 383.942907 
L 110.549034 384.213647 
L 110.814757 384.429008 
L 111.094465 384.902802 
L 112.120063 386.022679 
L 112.875276 387.081024 
L 113.579209 387.677882 
L 114.595484 388.336271 
L 115.369344 388.791605 
L 115.816877 389.031579 
L 116.614047 389.696121 
L 116.893755 389.923789 
L 118.268989 390.551412 
L 118.856377 391.055972 
L 119.588281 391.566685 
L 120.250257 392.298912 
L 120.469362 392.428129 
L 120.464701 392.938842 
L 120.264243 393.461861 
L 119.863327 393.941809 
L 119.751444 394.464828 
L 118.436814 396.489221 
L 118.259665 397.430656 
L 118.059207 397.664476 
L 116.912402 397.719855 
L 117.005639 397.873684 
L 118.110487 400.15651 
L 118.730508 400.568773 
L 119.35519 401.036414 
L 120.110403 401.590199 
L 119.933254 401.577893 
L 119.625575 401.762488 
L 119.192027 402.463949 
L 118.306283 404.297594 
L 117.513776 406.481969 
L 115.243475 410.610746 
L 115.742288 411.213757 
L 115.523183 411.5891 
L 114.502247 412.59822 
L 113.784329 413.330447 
L 113.01513 415.164092 
L 112.735422 415.379453 
L 112.11074 416.185518 
L 111.555984 416.622393 
L 110.847389 417.643819 
L 109.952322 419.323635 
L 109.299669 419.858961 
L 108.945371 420.332755 
L 108.721605 420.941918 
L 108.316027 421.551082 
L 107.779919 422.572509 
L 107.341709 423.187826 
L 107.285768 423.784683 
L 106.297464 424.41846 
L 104.614551 427.076629 
L 105.243895 426.393627 
L 105.090056 426.76897 
L 104.292886 427.827316 
L 104.139047 428.485705 
L 104.064458 428.325722 
L 103.621586 428.331876 
L 103.253303 428.454939 
L 102.903668 429.094869 
L 102.614635 429.962466 
L 102.60065 430.473179 
L 101.943335 431.845336 
L 101.178798 433.549764 
L 100.931722 433.83281 
L 99.901463 434.645028 
L 99.668372 434.915767 
L 99.528518 435.506472 
L 99.192868 436.127942 
L 98.484273 436.675574 
L 98.419008 436.903241 
L 97.93418 437.573937 
L 97.579882 437.881595 
L 95.472745 440.459774 
L 95.193036 441.161235 
L 95.071829 442.231887 
L 94.498427 442.773366 
L 94.419176 443.284079 
L 92.750248 446.286826 
L 92.447231 446.483727 
L 91.822548 447.154423 
L 91.631414 447.788199 
L 91.351706 448.163542 
L 90.419344 450.304846 
L 90.018429 450.834018 
L 89.631498 451.073992 
L 89.435702 451.553939 
L 89.253892 452.729195 
L 89.048772 453.092232 
L 88.750417 453.356818 
L 88.251603 454.02136 
L 87.570979 454.316712 
L 87.039533 454.716668 
L 86.871708 455.079706 
L 85.916037 455.738095 
L 85.762197 456.144204 
L 84.508171 457.737875 
L 84.349669 458.211669 
L 84.116579 458.507021 
L 84.069961 458.882365 
L 83.822885 459.18387 
L 83.361366 459.94071 
L 82.932479 460.599099 
L 82.415019 461.718976 
L 82.396371 462.278914 
L 80.979182 463.023448 
L 80.708797 463.614152 
L 80.592251 464.026415 
L 80.475706 465.060147 
L 79.972231 465.995429 
L 79.655228 466.340007 
L 79.254312 467.275288 
L 79.161076 467.619866 
L 79.664552 468.825887 
L 79.645904 469.195077 
L 79.203033 469.361213 
L 78.797455 470.351873 
L 77.883741 471.853247 
L 77.007321 473.182332 
L 76.391962 473.526909 
L 75.865178 474.468344 
L 75.590131 475.299022 
L 75.445615 476.26507 
L 74.769653 477.212658 
L 74.130985 477.871047 
L 72.527323 480.03081 
L 71.632255 480.812262 
L 71.375856 481.29221 
L 71.259311 481.839842 
L 70.308302 482.910493 
L 69.254733 484.338029 
L 68.923745 485.162554 
L 68.210488 486.294737 
L 68.084619 486.780837 
L 67.832881 487.106955 
L 67.3667 487.346929 
L 66.271175 488.57141 
L 65.567242 489.525151 
L 64.756088 490.398901 
L 64.611572 490.860389 
L 63.469428 492.4356 
L 62.439169 493.59855 
L 62.122166 493.727766 
L 61.236422 494.533831 
L 61.026641 494.915328 
L 59.14327 496.410548 
L 58.802958 496.447467 
L 58.677089 498.231887 
L 57.455695 500.60701 
L 56.299567 501.745347 
L 55.996549 502.169915 
L 55.646914 502.360664 
L 55.43247 502.656016 
L 55.236674 503.369784 
L 54.933657 503.831271 
L 54.546727 504.7604 
L 53.875426 505.824898 
L 53.62835 506.304846 
L 52.756592 507.184749 
L 52.145895 508.384617 
L 51.866187 508.569212 
L 51.735656 509.369124 
L 50.616822 510.476695 
L 50.346437 511.036633 
L 49.894242 511.571959 
L 49.94086 512.821053 
L 49.65649 513.28254 
L 49.479341 513.817866 
L 49.162338 515.799187 
L 48.985189 516.414504 
L 49.017822 517.029821 
L 48.789393 517.835886 
L 47.88034 518.291221 
L 47.637926 518.783474 
L 47.507396 519.934117 
L 47.54469 520.5802 
L 47.269644 521.983123 
L 46.878052 522.296934 
L 46.463151 522.426151 
L 45.516804 524.044435 
L 45.465524 525.08432 
L 44.840841 526.764136 
L 44.892121 527.453291 
L 44.7849 527.791715 
L 44.878136 528.105527 
L 44.794223 528.511636 
L 44.183526 528.505483 
L 44.085628 528.930052 
L 44.160217 529.834568 
L 44.150894 531.046742 
L 44.09029 531.951258 
L 44.220821 532.197385 
L 44.132246 532.468124 
L 43.997054 532.468124 
L 42.910852 531.883573 
L 40.132415 531.114427 
L 36.687338 530.560642 
L 35.158265 530.523723 
L 36.668691 528.376266 
L 36.48688 528.22859 
L 33.386778 527.779409 
L 31.92297 528.160905 
L 31.703865 528.148599 
L 30.207424 528.677772 
L 28.80422 529.416152 
L 27.247176 529.520756 
L 24.795064 529.317701 
L 22.995606 529.797649 
L 22.655294 529.87764 
L 21.839478 529.803802 
L 20.916439 530.345281 
L 20.487553 531.015976 
L 20.492215 531.803582 
L 20.576127 532.105087 
L 20.81388 532.185079 
L 22.370924 532.037402 
L 22.66928 531.858961 
L 22.590029 531.815888 
L 22.618 531.815888 
L 31.307611 535.50779 
L 31.577996 536.4 
L 27.652753 533.428019 
L 24.412796 532.714251 
L 23.396522 532.425052 
L 22.683265 531.932799 
L 22.753192 531.840501 
L 22.860414 531.711284 
L 24.254294 531.840501 
L 25.307863 531.569762 
L 25.466365 531.23749 
L 25.42907 530.536029 
L 25.331172 530.376047 
L 25.86728 529.957631 
L 26.114356 529.828414 
L 26.319476 529.582288 
L 26.333461 529.280782 
L 26.533919 529.077728 
L 26.725053 529.145413 
L 27.867196 529.090034 
L 28.529173 528.782376 
L 28.780911 527.982463 
L 28.771587 527.711724 
L 28.39398 527.244083 
L 28.83219 526.567234 
L 28.710983 526.161125 
L 28.720307 525.72425 
L 28.734293 525.21969 
L 28.585115 524.48131 
L 28.641056 523.767542 
L 28.631733 523.35528 
L 28.930088 522.198484 
L 28.659704 520.906318 
L 29.200473 520.081793 
L 29.75989 519.349566 
L 29.741243 518.937304 
L 29.955686 518.715789 
L 30.002304 518.383518 
L 29.969672 518.094319 
L 29.261077 517.269795 
L 29.29371 516.962136 
L 29.624698 516.592946 
L 30.379911 514.531634 
L 30.911357 512.937963 
L 31.354229 511.701176 
L 32.286591 510.64283 
L 33.829649 507.990814 
L 34.002136 507.449335 
L 34.29583 506.89555 
L 34.221241 505.12959 
L 34.514935 504.575805 
L 34.915851 504.065092 
L 35.134956 503.055972 
L 35.470606 502.539106 
L 36.547484 499.314845 
L 36.79456 498.871816 
L 37.134872 498.656455 
L 37.56842 498.564158 
L 38.794475 499.001033 
L 39.228024 499.074871 
L 40.165047 499.444061 
L 40.691832 499.524052 
L 41.139365 499.61635 
L 41.199969 499.628656 
L 41.088085 499.73326 
L 41.199969 499.788639 
L 41.549604 499.764026 
L 42.039094 499.960927 
L 42.519261 500.557785 
L 42.54257 500.754686 
L 42.365421 500.797758 
L 42.584526 500.717767 
L 42.761675 500.422415 
L 43.279135 499.862477 
L 44.19285 499.36407 
L 44.402631 498.754906 
L 44.37466 498.551851 
L 44.714972 498.274959 
L 44.990019 497.46274 
L 45.460862 496.970487 
L 45.726585 496.872036 
L 46.644961 496.982793 
L 47.320923 497.315064 
L 49.898904 497.98576 
L 50.574866 498.10267 
L 51.143607 497.751939 
L 51.549184 497.09355 
L 51.931452 496.804351 
L 52.099277 496.059818 
L 52.719298 495.469113 
L 53.34398 494.459993 
L 53.814823 494.669201 
L 53.889412 493.936974 
L 53.423231 492.977079 
L 53.479173 492.694034 
L 53.339318 492.146401 
L 53.054948 491.807977 
L 52.868476 491.931041 
L 52.966374 491.758752 
L 52.663356 491.887968 
L 52.420942 491.457246 
L 52.304397 490.946533 
L 50.821942 490.472739 
L 50.500277 490.232766 
L 53.716925 485.377915 
L 53.702939 485.500978 
L 58.751678 484.356488 
L 59.870512 483.008944 
L 60.481209 481.747544 
L 61.203789 481.132227 
L 61.805163 480.78765 
L 62.9846 479.76007 
L 63.296942 479.083222 
L 63.697857 478.677112 
L 63.86102 478.086408 
L 64.467056 477.286496 
L 64.844662 477.046522 
L 65.166327 476.603494 
L 65.371446 475.99433 
L 65.651155 475.538996 
L 65.595213 475.163652 
L 65.804995 474.763696 
L 65.902893 473.785342 
L 66.448324 472.450104 
L 67.142934 471.619426 
L 67.431966 471.182551 
L 67.809572 470.198044 
L 68.005368 469.638106 
L 68.275753 469.23815 
L 68.73261 468.34594 
L 69.310675 467.847533 
L 69.678958 466.924558 
L 70.35492 465.595473 
L 70.63929 465.306274 
L 71.315252 464.020262 
L 71.837375 463.109592 
L 71.897978 462.598879 
L 73.431713 460.44527 
L 73.986469 459.054653 
L 74.336104 458.691616 
L 74.48062 458.230129 
L 75.198539 457.399451 
L 75.487571 457.061026 
L 75.916457 456.144204 
L 76.424595 455.541193 
L 76.997997 454.845885 
L 77.380265 454.562839 
L 77.627341 454.162883 
L 77.739225 453.018394 
L 79.697184 450.870937 
L 79.920951 450.27408 
L 79.948922 449.671069 
L 80.112085 449.14805 
L 80.657517 448.261993 
L 80.867298 447.720514 
L 81.188963 447.234414 
L 82.23787 444.687001 
L 82.452313 444.268586 
L 83.007068 443.511746 
L 83.529191 442.736447 
L 84.209815 441.431975 
L 84.410273 441.044325 
L 84.717952 440.7059 
L 85.417223 439.487573 
L 85.902052 438.810724 
L 86.251687 437.998506 
L 87.165402 437.118602 
L 89.002154 433.543611 
L 89.314495 433.242105 
L 89.887898 433.322096 
L 90.055723 433.451313 
L 90.38205 433.371322 
L 90.470624 433.063663 
L 90.908834 432.559103 
L 90.722362 432.694473 
L 90.633787 432.725239 
L 91.141924 432.04839 
L 91.430957 431.789957 
L 91.873828 430.768531 
L 92.312038 430.263971 
L 92.442569 429.845555 
L 92.451893 429.624041 
L 92.820175 429.113328 
L 93.043942 428.879508 
L 93.589374 428.584156 
L 93.990289 428.153434 
L 93.990289 428.153434 
" style="fill:none;stroke:#000000;stroke-width:3;"/>
   </g>
  </g>
 </g>
 <defs>
  <clipPath id="p268b6c7f40">
   <rect height="554.4" width="291.813369" x="7.2" y="7.2"/>
  </clipPath>
 </defs>
</svg>
