<?xml version="1.0" encoding="utf-8" standalone="no"?>
<!DOCTYPE svg PUBLIC "-//W3C//DTD SVG 1.1//EN"
  "http://www.w3.org/Graphics/SVG/1.1/DTD/svg11.dtd">
<svg height="517.116099pt" version="1.1" viewBox="0 0 572.4 517.116099" width="572.4pt" xmlns="http://www.w3.org/2000/svg" xmlns:xlink="http://www.w3.org/1999/xlink">
 <metadata>
  <rdf:RDF xmlns:cc="http://creativecommons.org/ns#" xmlns:dc="http://purl.org/dc/elements/1.1/" xmlns:rdf="http://www.w3.org/1999/02/22-rdf-syntax-ns#">
   <cc:Work>
    <dc:type rdf:resource="http://purl.org/dc/dcmitype/StillImage"/>
    <dc:date>2021-08-04T02:00:34.350731</dc:date>
    <dc:format>image/svg+xml</dc:format>
    <dc:creator>
     <cc:Agent>
      <dc:title>Matplotlib v3.4.2, https://matplotlib.org/</dc:title>
     </cc:Agent>
    </dc:creator>
   </cc:Work>
  </rdf:RDF>
 </metadata>
 <defs>
  <style type="text/css">*{stroke-linecap:butt;stroke-linejoin:round;}</style>
 </defs>
 <g id="figure_1">
  <g id="patch_1">
   <path d="M 0 517.116099 
L 572.4 517.116099 
L 572.4 0 
L 0 0 
z
" style="fill:#ffffff;"/>
  </g>
  <g id="axes_1">
   <g id="LineCollection_1">
    <path clip-path="url(#p1eb122cd52)" d="M 32.563636 343.02692 
L 33.7621 344.548881 
L 35.882458 346.009964 
L 37.772343 346.131721 
L 39.523944 346.436114 
L 43.764661 346.801384 
L 45.654545 347.714561 
L 47.774904 347.531926 
L 49.618694 347.531926 
L 52.10781 346.314357 
L 53.767222 345.705572 
L 56.071959 344.244489 
L 61.280666 343.270434 
L 63.032266 343.270434 
L 64.645583 343.02692 
L 69.531626 340.287389 
L 70.407426 339.617726 
L 77.275544 335.051841 
L 78.704481 333.164608 
L 81.79283 327.442033 
L 82.115493 324.824259 
L 83.037388 322.997905 
L 86.171831 319.771346 
L 87.185915 318.188506 
L 88.015621 316.240395 
L 89.905506 312.831201 
L 90.873496 311.491875 
L 91.242254 308.995858 
L 93.178233 303.212404 
L 93.546991 301.264293 
L 94.238412 299.133547 
L 94.791549 296.881043 
L 95.298592 292.436915 
L 94.468886 290.306169 
L 93.685275 288.601572 
L 93.82356 286.470826 
L 93.408707 284.461836 
L 92.947759 282.878996 
L 92.901665 281.052642 
L 92.025864 279.104532 
L 91.795391 277.156421 
L 91.518822 271.920873 
L 91.657106 270.03364 
L 91.334443 267.963772 
L 90.781306 266.198297 
L 90.089885 262.362954 
L 89.951601 260.232207 
L 89.0758 253.900847 
L 88.983611 252.074493 
L 88.707042 249.761111 
L 88.338284 247.934758 
L 87.785147 242.881845 
L 87.923431 241.238126 
L 87.370294 239.533529 
L 86.955442 237.707175 
L 86.817157 235.9417 
L 87.278105 233.628318 
L 87.001536 231.375815 
L 87.370294 229.427704 
L 87.278105 225.044455 
L 87.093726 222.609316 
L 87.001536 218.286945 
L 86.863252 216.399713 
L 87.139821 214.208088 
L 86.771063 209.703082 
L 87.001536 207.815849 
L 87.047631 205.685103 
L 87.416389 203.615235 
L 87.093726 201.484489 
L 87.278105 199.110229 
L 87.093726 197.040361 
L 87.3242 191.196028 
L 87.692958 189.308796 
L 88.476569 187.604199 
L 88.891421 185.412574 
L 91.97977 174.819721 
L 92.164149 172.87161 
L 93.777465 168.91451 
L 94.192318 166.844642 
L 94.883739 165.140045 
L 95.206402 163.131056 
L 95.344686 161.487337 
L 96.312676 159.41747 
L 97.925992 157.591116 
L 99.308835 153.938408 
L 100.507298 151.929418 
L 102.351088 147.789683 
L 103.687836 146.145964 
L 103.964405 145.476301 
L 104.287068 143.832583 
L 105.024584 141.823593 
L 105.900384 139.875482 
L 107.790269 137.98825 
L 109.034827 136.466288 
L 109.44968 134.213785 
L 110.095006 132.44831 
L 110.970807 130.682834 
L 111.662228 128.430331 
L 112.538028 126.786612 
L 113.874776 124.89938 
L 115.488092 122.951269 
L 116.548271 121.246672 
L 117.885019 119.602954 
L 118.57644 119.176804 
L 119.820999 117.289572 
L 120.189757 116.315517 
L 122.079641 114.550041 
L 125.029706 111.262604 
L 126.827401 110.22767 
L 128.394622 108.949222 
L 129.408707 107.183747 
L 131.252497 106.209691 
L 132.727529 104.626851 
L 134.248656 103.287525 
L 135.539309 101.948199 
L 136.507298 100.243602 
L 138.489373 98.843397 
L 142.822279 94.338391 
L 144.48169 92.877308 
L 146.279385 91.537981 
L 148.630218 90.320412 
L 150.335723 89.163721 
L 152.456082 88.00703 
L 154.438156 87.580881 
L 156.097567 86.119798 
L 157.664789 85.328378 
L 159.646863 84.719593 
L 161.813316 83.25851 
L 164.025864 82.710604 
L 166.007939 82.345333 
L 168.266581 82.345333 
L 170.340845 81.614792 
L 171.908067 80.762493 
L 173.797951 80.518979 
L 175.457362 79.788438 
L 177.623816 79.605802 
L 179.882458 79.910195 
L 182.141101 80.579858 
L 202.146223 74.492011 
L 199.795391 78.205597 
L 206.156466 79.240531 
L 209.751857 80.823371 
L 214.868374 80.153708 
L 219.385659 79.118774 
L 222.10525 78.814382 
L 223.94904 78.936139 
L 225.977209 79.240531 
L 230.26402 79.240531 
L 232.384379 79.605802 
L 234.504738 78.936139 
L 236.625096 79.057896 
L 238.745455 78.50999 
L 241.096287 78.570868 
L 245.844046 77.596813 
L 247.91831 77.414177 
L 249.716005 77.596813 
L 253.35749 76.92715 
L 255.29347 76.92715 
L 257.367734 76.196608 
L 264.466325 74.735525 
L 270.735211 73.213563 
L 274.192318 72.665657 
L 278.525224 70.474032 
L 280.645583 70.16964 
L 284.748015 68.769435 
L 286.499616 67.856258 
L 288.066837 66.760446 
L 290.141101 65.908148 
L 292.722407 65.055849 
L 294.427913 63.107738 
L 297.193598 62.316318 
L 299.406146 61.098749 
L 301.203841 59.272395 
L 303.692958 57.87219 
L 307.88758 54.950024 
L 309.869654 54.036847 
L 311.344686 53.062792 
L 313.603329 52.636642 
L 315.493214 51.419073 
L 317.10653 49.714476 
L 321.347247 46.853188 
L 326.002817 45.513862 
L 327.938796 43.626629 
L 330.474008 42.591696 
L 332.82484 40.947977 
L 336.328041 38.878109 
L 340.430474 37.112634 
L 342.412548 37.112634 
L 344.809475 37.295269 
L 347.252497 36.564728 
L 348.220487 35.955943 
L 350.571319 34.860131 
L 352.415109 33.399047 
L 354.673752 33.033777 
L 356.79411 31.998843 
L 359.144942 32.546749 
L 360.896543 33.094655 
L 363.155186 33.399047 
L 365.091165 34.312224 
L 367.303713 34.433981 
L 369.285787 34.190467 
L 371.406146 35.28628 
L 373.342125 35.955943 
L 377.767222 36.990877 
L 379.97977 36.86912 
L 381.777465 38.391081 
L 387.124456 41.61764 
L 390.719846 44.174536 
L 394.776184 46.00089 
L 399.109091 46.670553 
L 403.488092 48.679542 
L 406.069398 48.923056 
L 408.097567 49.410084 
L 414.873496 51.419073 
L 415.88758 51.54083 
L 417.593086 51.419073 
L 420.174392 52.088736 
L 422.479129 51.966979 
L 424.737772 51.662587 
L 426.489373 52.149615 
L 432.343406 50.871167 
L 434.786428 50.871167 
L 439.073239 51.906101 
L 441.239693 52.027858 
L 443.867093 52.027858 
L 444.927273 51.906101 
L 446.863252 52.088736 
L 449.0758 52.514885 
L 451.196159 52.636642 
L 454.100128 53.062792 
L 476.179513 40.156557 
L 477.239693 37.904054 
L 477.79283 36.808241 
L 479.267862 35.834186 
L 481.618694 36.199457 
L 482.955442 36.0777 
L 485.16799 34.738374 
L 488.025864 33.459926 
L 491.068118 30.050732 
L 498.535467 30.842152 
L 501.255058 31.390058 
L 503.651985 31.390058 
L 507.062996 33.216412 
L 511.395903 34.677495 
L 514.253777 36.382092 
L 515.774904 37.477905 
L 517.342125 38.878109 
L 522.13598 42.40906 
L 523.795391 43.687508 
L 525.500896 44.78332 
L 526.791549 46.061768 
L 528.54315 46.853188 
L 529.465045 48.253393 
L 530.986172 49.714476 
L 532.691677 50.992924 
L 533.659667 53.732455 
L 533.936236 55.071781 
L 534.673752 57.019892 
L 535.595647 58.724489 
L 536.240973 61.03787 
L 537.162868 62.925103 
L 537.854289 64.934092 
L 538.453521 67.79538 
L 539.421511 70.047883 
L 539.237132 72.300386 
L 539.421511 74.370254 
L 539.744174 76.13573 
L 539.651985 78.875261 
L 539.836364 83.319389 
L 539.144942 84.84135 
L 538.914469 88.494058 
L 538.453521 90.198655 
L 537.854289 93.546971 
L 536.563636 95.738595 
L 535.549552 99.026032 
L 533.613572 105.053001 
L 533.429193 107.06199 
L 532.276825 110.288548 
L 532.276825 112.297538 
L 531.954161 114.793555 
L 531.26274 116.802544 
L 531.216645 118.872412 
L 530.38694 120.637888 
L 530.202561 123.012148 
L 530.38694 125.508165 
L 529.741613 127.456276 
L 529.41895 129.6479 
L 528.773624 131.65689 
L 528.358771 133.970271 
L 528.358771 136.161896 
L 528.128297 140.240753 
L 529.096287 148.641981 
L 529.050192 149.49428 
L 529.695519 154.181922 
L 529.465045 156.312668 
L 529.741613 158.139022 
L 529.188476 159.843619 
L 529.188476 164.531261 
L 528.312676 166.54025 
L 528.958003 171.836676 
L 528.819718 173.845666 
L 529.050192 175.489384 
L 528.773624 177.985401 
L 528.312676 180.359662 
L 528.958003 182.7948 
L 528.865813 185.047303 
L 528.266581 186.934536 
L 527.990013 188.578254 
L 527.252497 190.34373 
L 526.284507 192.170084 
L 525.777465 194.239952 
L 524.302433 196.127184 
L 523.518822 198.501444 
L 522.550832 200.145163 
L 521.214085 204.163141 
L 520.660948 206.172131 
L 519.508579 207.694092 
L 518.955442 209.276932 
L 517.941357 211.103286 
L 517.803073 212.016463 
L 516.650704 213.416668 
L 515.083483 215.121265 
L 514.899104 217.373768 
L 513.885019 218.773973 
L 512.870935 220.782962 
L 510.01306 224.009521 
L 509.183355 226.444659 
L 508.399744 228.271013 
L 507.247375 230.40176 
L 506.32548 232.471627 
L 504.896543 236.611363 
L 504.57388 238.437717 
L 503.237132 240.142314 
L 501.116773 243.795022 
L 499.411268 245.560497 
L 499.226889 247.325973 
L 498.443278 248.847935 
L 497.98233 251.039559 
L 497.705762 252.926792 
L 496.369014 254.205239 
L 495.447119 256.335986 
L 494.571319 257.918826 
L 493.142382 259.379909 
L 491.022023 263.824037 
L 490.69936 264.919849 
L 490.422791 266.807082 
L 489.546991 268.937828 
L 487.933675 271.494723 
L 487.334443 273.321077 
L 485.767222 274.599525 
L 484.384379 276.304122 
L 483.785147 278.252233 
L 482.079641 279.895952 
L 480.788988 281.844062 
L 479.867093 283.91393 
L 478.161588 286.044677 
L 477.331882 288.236301 
L 476.363892 290.001777 
L 475.073239 291.645495 
L 474.197439 293.654485 
L 471.477849 296.820165 
L 470.832522 298.403005 
L 469.541869 299.864088 
L 468.297311 302.17747 
L 467.651985 304.429973 
L 466.315237 306.682476 
L 465.531626 308.752344 
L 464.148784 310.396063 
L 462.996415 312.344173 
L 461.797951 314.718434 
L 460.737772 316.118638 
L 459.539309 318.310263 
L 458.617414 320.258374 
L 457.41895 322.206485 
L 455.621255 323.667568 
L 454.284507 327.746425 
L 452.993854 329.877171 
L 452.486812 332.068796 
L 451.426633 333.651636 
L 450.91959 335.417112 
L 450.735211 337.182587 
L 448.153905 340.65266 
L 446.771063 342.174621 
L 445.664789 344.000975 
L 444.143662 348.262468 
L 442.714725 350.027943 
L 441.562356 352.280446 
L 440.225608 354.167679 
L 439.211524 356.054911 
L 438.612292 358.185657 
L 437.598207 359.707619 
L 435.800512 364.212625 
L 435.155186 365.917222 
L 433.772343 367.560941 
L 432.297311 368.352361 
L 431.052753 370.117837 
L 430.084763 371.822434 
L 429.531626 373.587909 
L 428.379257 375.109871 
L 427.595647 377.484131 
L 425.659667 380.528054 
L 425.19872 382.841436 
L 424.046351 384.363397 
L 423.26274 386.798536 
L 422.940077 388.807525 
L 422.018182 390.451244 
L 420.727529 392.155841 
L 418.837644 395.260643 
L 416.210243 398.487201 
L 414.643022 400.191798 
L 414.228169 401.896395 
L 413.536748 403.479235 
L 412.522663 404.818562 
L 411.739052 407.192822 
L 409.941357 408.166877 
L 409.019462 409.871474 
L 408.42023 411.880463 
L 406.853009 413.402425 
L 406.253777 415.837564 
L 405.470166 417.359525 
L 404.409987 419.855542 
L 404.087324 420.951355 
L 403.119334 422.412438 
L 401.459923 423.751764 
L 400.814597 425.821632 
L 399.846607 427.708864 
L 398.602049 429.535218 
L 397.219206 431.239815 
L 396.758259 432.700898 
L 395.375416 434.649009 
L 394.868374 436.901512 
L 393.992574 438.727866 
L 392.701921 440.615099 
L 391.872215 442.745845 
L 390.627657 444.633078 
L 390.212804 445.485376 
L 389.751857 447.798758 
L 388.783867 449.381598 
L 387.723688 451.451466 
L 387.078361 453.521333 
L 385.695519 455.104173 
L 383.66735 456.565257 
L 381.777465 458.269854 
L 381.224328 459.122152 
L 380.486812 460.583235 
L 376.10781 465.879662 
L 374.678873 467.218988 
L 371.728809 470.871696 
L 368.917029 473.124199 
L 367.580282 474.950553 
L 367.027145 475.437581 
L 365.413828 476.411636 
L 363.754417 477.020421 
L 360.066837 479.516438 
L 358.499616 480.673129 
L 356.701921 481.464549 
L 354.996415 482.377726 
L 352.922151 483.230024 
L 350.525224 484.021444 
L 348.681434 484.934621 
L 343.01178 485.78692 
L 339.3242 486.091312 
L 337.065557 486.943611 
L 334.899104 486.517461 
L 332.548271 486.943611 
L 330.335723 486.639218 
L 328.307554 486.760975 
L 325.956722 487.065368 
L 323.836364 487.004489 
L 322.223047 486.700097 
L 320.056594 486.030434 
L 317.567478 485.78692 
L 315.539309 484.9955 
L 313.465045 483.899687 
L 311.482971 483.41266 
L 306.827401 481.586306 
L 304.707042 481.099278 
L 303.093726 480.246979 
L 301.434315 479.212046 
L 299.913188 477.872719 
L 298.392061 477.142178 
L 296.087324 476.533393 
L 293.506018 476.350758 
L 290.648143 475.376702 
L 288.666069 474.707039 
L 288.020743 474.341768 
L 285.623816 473.915619 
L 281.521383 470.262911 
L 279.401024 468.619193 
L 277.649424 466.792839 
L 275.713444 465.14912 
L 274.238412 463.748916 
L 273.039949 461.98344 
L 271.288348 460.217965 
L 269.859411 458.269854 
L 269.0758 456.199986 
L 265.849168 451.451466 
L 264.835083 449.381598 
L 262.714725 446.033282 
L 261.654545 444.024293 
L 259.672471 438.301717 
L 259.027145 434.588131 
L 257.736492 430.996301 
L 257.459923 428.439406 
L 257.229449 423.569129 
L 256.860691 421.073112 
L 256.077081 419.246758 
L 254.832522 417.298647 
L 253.772343 415.411414 
L 253.495775 414.680873 
L 253.219206 412.550127 
L 252.435595 410.175866 
L 251.974648 409.323568 
L 250.407426 405.183832 
L 249.531626 403.783628 
L 248.701921 401.652881 
L 247.82612 400.13092 
L 247.226889 398.304566 
L 246.443278 396.356455 
L 244.553393 394.469222 
L 243.585403 392.58199 
L 241.879898 390.816515 
L 239.621255 387.83347 
L 236.302433 384.911303 
L 234.781306 383.267585 
L 231.692958 380.649811 
L 228.189757 377.849402 
L 226.299872 376.814468 
L 224.870935 375.718655 
L 222.704481 374.622843 
L 219.29347 371.822434 
L 217.541869 371.091892 
L 215.836364 370.604864 
L 213.854289 369.143781 
L 211.964405 368.108847 
L 210.351088 367.378306 
L 208.783867 366.465129 
L 206.709603 365.61283 
L 204.865813 364.151747 
L 202.791549 363.421205 
L 200.947759 362.995056 
L 198.873496 362.325393 
L 195.739052 361.046945 
L 193.664789 360.438161 
L 191.590525 358.916199 
L 186.151344 357.089845 
L 184.123175 356.054911 
L 181.772343 355.750519 
L 179.974648 355.080856 
L 178.269142 354.1068 
L 175.91831 353.924165 
L 174.212804 353.619773 
L 172.829962 352.706596 
L 171.124456 352.036932 
L 169.234571 351.062877 
L 167.529065 350.758485 
L 163.472727 347.714561 
L 161.721127 346.740506 
L 159.785147 345.827329 
L 156.235851 343.39219 
L 154.207682 342.539892 
L 152.041229 340.896173 
L 147.523944 338.887184 
L 146.371575 338.339278 
L 142.453521 335.417112 
L 140.840205 333.834271 
L 138.765941 332.555824 
L 135.631498 329.633657 
L 131.990013 327.502911 
L 130.422791 326.34622 
L 128.671191 325.372165 
L 124.983611 323.911082 
L 123.785147 322.571755 
L 121.572599 321.658579 
L 118.760819 320.684523 
L 117.101408 320.319252 
L 110.141101 316.970937 
L 109.034827 316.544787 
L 107.375416 316.666544 
L 105.808195 315.753367 
L 103.226889 315.753367 
L 101.705762 316.605666 
L 100.000256 316.727423 
L 98.29475 317.092694 
L 96.819718 318.066749 
L 94.883739 317.944992 
L 92.85557 318.371141 
L 89.905506 320.258374 
L 88.660948 322.449999 
L 87.23201 323.850203 
L 84.558515 326.833248 
L 82.806914 327.868182 
L 79.902945 329.024873 
L 78.381818 329.755414 
L 75.477849 330.668591 
L 73.495775 332.129674 
L 71.744174 333.10373 
L 70.269142 334.747448 
L 69.347247 336.512924 
L 68.148784 337.974007 
L 67.503457 340.043875 
L 66.120615 341.261444 
L 63.815877 341.687593 
L 62.847887 341.44408 
L 60.358771 339.252455 
L 59.66735 337.365222 
L 59.621255 336.756438 
L 59.621255 336.756438 
" style="fill:none;stroke:#000000;stroke-width:3;"/>
   </g>
  </g>
 </g>
 <defs>
  <clipPath id="p1eb122cd52">
   <rect height="502.716099" width="558" x="7.2" y="7.2"/>
  </clipPath>
 </defs>
</svg>
