<?xml version="1.0" encoding="utf-8" standalone="no"?>
<!DOCTYPE svg PUBLIC "-//W3C//DTD SVG 1.1//EN"
  "http://www.w3.org/Graphics/SVG/1.1/DTD/svg11.dtd">
<svg height="568.8pt" version="1.1" viewBox="0 0 256.956983 568.8" width="256.956983pt" xmlns="http://www.w3.org/2000/svg" xmlns:xlink="http://www.w3.org/1999/xlink">
 <metadata>
  <rdf:RDF xmlns:cc="http://creativecommons.org/ns#" xmlns:dc="http://purl.org/dc/elements/1.1/" xmlns:rdf="http://www.w3.org/1999/02/22-rdf-syntax-ns#">
   <cc:Work>
    <dc:type rdf:resource="http://purl.org/dc/dcmitype/StillImage"/>
    <dc:date>2021-08-16T01:56:08.959293</dc:date>
    <dc:format>image/svg+xml</dc:format>
    <dc:creator>
     <cc:Agent>
      <dc:title>Matplotlib v3.4.3, https://matplotlib.org/</dc:title>
     </cc:Agent>
    </dc:creator>
   </cc:Work>
  </rdf:RDF>
 </metadata>
 <defs>
  <style type="text/css">*{stroke-linecap:butt;stroke-linejoin:round;}</style>
 </defs>
 <g id="figure_1">
  <g id="patch_1">
   <path d="M 0 568.8 
L 256.956983 568.8 
L 256.956983 0 
L 0 0 
z
" style="fill:#ffffff;"/>
  </g>
  <g id="axes_1">
   <g id="LineCollection_1">
    <path clip-path="url(#pec409097e6)" d="M 237.757817 49.697061 
L 238.090975 49.840851 
L 238.731666 50.475218 
L 238.590714 50.229929 
L 238.449762 49.959266 
L 237.975651 49.578646 
L 236.969768 49.214943 
L 235.348821 48.343746 
L 234.644062 47.878544 
L 234.676097 47.438716 
L 234.118696 47.252636 
L 233.497227 47.193428 
L 232.984675 47.404884 
L 232.254288 48.495994 
L 230.178451 52.056905 
L 230.165638 52.69973 
L 230.031093 53.181848 
L 228.634388 55.22028 
L 228.576726 55.719315 
L 226.904524 58.83194 
L 226.558552 60.371336 
L 225.462972 62.232145 
L 225.13622 62.426684 
L 223.854839 64.422824 
L 223.297439 64.997983 
L 222.829735 66.562754 
L 222.086534 67.459325 
L 220.106801 70.783406 
L 219.780049 71.020236 
L 219.350787 71.866058 
L 218.88949 72.500425 
L 218.191138 73.955239 
L 217.133999 76.112085 
L 216.410019 77.194737 
L 216.230626 77.643023 
L 215.628377 78.31968 
L 214.475134 79.994408 
L 213.796003 80.730273 
L 212.348043 83.419988 
L 212.008477 83.749858 
L 211.451077 84.781761 
L 210.919304 85.399211 
L 209.759655 87.869012 
L 209.234289 88.613335 
L 208.292474 89.983567 
L 207.747887 91.641378 
L 207.062349 92.969319 
L 206.934211 93.442979 
L 206.671528 93.848974 
L 206.293521 94.737087 
L 205.595168 96.065028 
L 205.38374 96.547146 
L 204.851968 97.47755 
L 199.547053 107.509 
L 198.957618 108.337906 
L 198.457879 109.293685 
L 197.496844 111.052995 
L 196.997106 112.110272 
L 196.804899 112.490892 
L 196.708795 112.939178 
L 194.370276 117.227496 
L 194.146034 117.904154 
L 194.152441 118.073318 
L 193.915386 118.496229 
L 192.947944 119.308218 
L 192.634005 119.663464 
L 192.249591 120.67845 
L 191.583273 121.693436 
L 191.13479 122.683048 
L 191.006652 123.190542 
L 190.4941 124.171695 
L 190.276265 124.704563 
L 189.718865 125.728008 
L 189.174278 126.751452 
L 188.559216 127.639566 
L 187.912119 129.060547 
L 187.84805 129.610331 
L 187.41238 130.557652 
L 187.14329 130.94673 
L 187.136883 131.42039 
L 186.919049 131.9448 
L 186.553855 132.308504 
L 185.765806 133.602611 
L 185.464682 133.915565 
L 183.164604 137.924762 
L 183.126163 138.170051 
L 182.466252 138.973581 
L 181.242533 140.876681 
L 181.088768 141.341883 
L 180.77483 141.663296 
L 178.955269 144.843587 
L 178.590076 145.215748 
L 177.975013 146.315317 
L 177.731551 146.721312 
L 177.379172 147.000433 
L 176.437357 148.615953 
L 175.16879 150.569802 
L 174.438403 151.559414 
L 172.60603 154.731247 
L 171.907677 156.600514 
L 171.388718 157.733915 
L 170.959456 158.934982 
L 170.824911 160.888831 
L 170.728807 165.397063 
L 170.997897 167.105624 
L 170.972269 167.545451 
L 171.119628 168.095236 
L 170.99149 169.101764 
L 170.940235 169.609257 
L 171.07478 170.226707 
L 170.80569 172.552718 
L 170.562228 172.984087 
L 170.498159 173.373165 
L 170.568635 174.48965 
L 170.363614 175.310098 
L 170.587855 176.460416 
L 171.07478 177.441569 
L 171.273394 177.991354 
L 170.876166 179.801413 
L 171.023525 180.368114 
L 170.946642 182.017467 
L 171.17729 183.700653 
L 170.760842 184.977844 
L 170.7224 185.586836 
L 170.575042 186.153537 
L 170.9082 187.735224 
L 171.029932 190.475688 
L 171.170883 190.94089 
L 171.07478 191.55834 
L 171.15807 191.998167 
L 171.094001 192.750949 
L 171.497635 193.833601 
L 171.44638 194.400302 
L 170.184221 197.174598 
L 170.229069 197.83434 
L 170.587855 199.06924 
L 171.119628 199.940437 
L 171.286208 200.456388 
L 171.721877 200.997714 
L 172.279277 201.319127 
L 173.477368 201.412167 
L 174.021955 201.606706 
L 174.367928 201.894286 
L 174.79719 202.697817 
L 174.5281 202.976938 
L 174.316672 203.772011 
L 174.489659 204.186463 
L 174.476845 204.702415 
L 173.80412 207.070717 
L 173.752865 207.679709 
L 173.913038 208.305617 
L 173.631134 208.770819 
L 173.61832 210.944582 
L 173.746458 211.198328 
L 173.624727 211.528199 
L 173.317196 211.866528 
L 173.522216 211.773488 
L 173.727237 211.705822 
L 173.695203 211.612781 
L 173.688796 211.739655 
L 173.624727 211.891903 
L 173.682389 211.883444 
L 173.733644 212.069525 
L 173.233906 214.725407 
L 173.34923 215.241358 
L 173.567065 215.554312 
L 173.61832 215.892641 
L 173.381265 216.873795 
L 172.785423 217.110625 
L 172.420229 217.508161 
L 172.638064 218.150986 
L 172.593216 218.920684 
L 172.817457 219.800339 
L 172.702133 221.026781 
L 172.529147 221.60194 
L 172.215208 221.627315 
L 172.221615 221.98256 
L 171.837201 222.45622 
L 171.702656 224.317029 
L 170.568635 226.313169 
L 169.921538 227.302781 
L 169.146302 228.250102 
L 168.928468 228.63918 
L 170.408462 229.5865 
L 171.651401 230.077077 
L 172.151139 230.237783 
L 172.779016 230.170118 
L 173.567065 230.322366 
L 174.572948 230.58457 
L 175.367404 231.176646 
L 175.360997 230.905983 
L 175.290521 231.303519 
L 174.989397 232.623002 
L 174.944549 233.240452 
L 174.508879 234.881347 
L 174.188534 235.312716 
L 173.233906 237.706392 
L 172.516333 238.679088 
L 171.388718 242.113125 
L 170.594262 242.840532 
L 169.966386 243.838602 
L 169.248813 244.718257 
L 168.230115 245.403373 
L 167.845701 245.75016 
L 167.192197 246.096947 
L 166.621983 246.65519 
L 166.615576 247.374139 
L 166.141465 249.091157 
L 166.096617 250.021562 
L 165.750644 251.535583 
L 165.391858 252.254532 
L 165.18043 252.973481 
L 163.36087 256.212979 
L 163.123814 256.940386 
L 163.034118 257.811583 
L 162.28451 259.173357 
L 162.527973 260.289842 
L 161.823213 261.753114 
L 159.625646 265.66927 
L 159.593611 265.635437 
L 159.574391 265.584688 
L 159.587205 265.880726 
L 159.36937 266.227513 
L 159.068245 266.269804 
L 158.984956 266.151389 
L 158.837597 266.269804 
L 158.453183 267.115626 
L 158.260976 267.453955 
L 158.145652 268.511232 
L 157.671541 270.067545 
L 157.575437 270.896451 
L 157.312754 271.226321 
L 157.261499 271.32782 
L 156.966782 272.32589 
L 157.184616 274.0852 
L 157.806086 277.163992 
L 156.697692 277.874483 
L 156.435009 278.322768 
L 155.884015 278.678014 
L 154.73718 280.919442 
L 154.666704 281.629933 
L 154.852504 282.30659 
L 154.826876 282.797167 
L 154.589821 283.397701 
L 153.885062 283.710655 
L 152.815109 285.546089 
L 152.405067 286.882488 
L 152.462729 288.591048 
L 152.366626 289.242331 
L 151.982212 289.825949 
L 150.361266 291.162347 
L 150.008886 291.745965 
L 149.342568 292.245 
L 147.465346 294.215765 
L 146.997642 294.723258 
L 146.75418 295.281501 
L 145.524054 297.032353 
L 145.158861 297.303016 
L 144.409254 298.241878 
L 143.762156 298.681706 
L 143.166315 298.749372 
L 141.916969 299.806649 
L 141.007189 300.973884 
L 140.533078 301.244547 
L 140.084595 301.658999 
L 139.687367 301.878913 
L 138.726331 302.75011 
L 138.117676 303.029231 
L 137.598717 303.435226 
L 136.765819 304.407921 
L 136.490323 304.940789 
L 135.971364 305.380617 
L 134.747645 306.184148 
L 134.292755 306.50556 
L 133.895527 306.996137 
L 133.645658 307.495172 
L 132.864016 308.231037 
L 132.434754 308.746988 
L 130.390952 309.97343 
L 129.551648 310.996875 
L 129.468358 311.842697 
L 129.007061 312.8746 
L 128.88533 313.407468 
L 128.629054 313.982627 
L 128.353557 315.352859 
L 127.853819 316.604676 
L 127.584729 317.112169 
L 126.040665 319.159058 
L 125.810017 319.708843 
L 125.45123 320.224794 
L 125.220582 321.248239 
L 123.766215 323.751872 
L 123.247256 326.923705 
L 122.696262 327.94715 
L 122.177303 329.148217 
L 121.299558 330.163203 
L 120.876702 330.712988 
L 120.620426 331.956346 
L 120.428219 332.599171 
L 120.024584 333.258912 
L 119.781122 333.944028 
L 119.652984 334.798308 
L 118.525369 336.447661 
L 118.403638 337.090486 
L 117.942341 337.589521 
L 117.916714 338.080098 
L 117.122258 339.661785 
L 116.917237 339.864783 
L 116.737844 340.642939 
L 116.917237 340.947435 
L 117.55152 341.44647 
L 117.801389 341.429553 
L 118.000003 341.091225 
L 118.032038 340.888227 
L 118.032038 340.888227 
L 118.064072 340.837478 
L 118.083293 340.92206 
L 118.032038 341.573343 
L 118.493335 342.359958 
L 119.729867 343.053532 
L 120.165536 343.425694 
L 121.587868 344.212308 
L 122.555311 344.863591 
L 124.919457 346.208448 
L 125.995817 346.825898 
L 126.969666 347.494098 
L 127.757715 348.077715 
L 128.80204 348.449877 
L 130.474242 349.608653 
L 131.319953 350.04848 
L 131.665925 350.386809 
L 132.088781 350.488308 
L 132.42194 350.843553 
L 134.632321 351.976955 
L 134.369638 353.499434 
L 133.562368 356.011526 
L 133.338127 356.688184 
L 133.780203 356.865806 
L 133.812238 357.102636 
L 134.311976 357.982291 
L 134.689983 358.092248 
L 134.824528 358.329078 
L 134.606693 359.031111 
L 134.478555 359.141068 
L 134.318383 359.445564 
L 134.030072 359.665477 
L 134.010851 359.927682 
L 133.190768 361.103375 
L 132.908864 361.272539 
L 132.639774 361.966113 
L 132.896051 362.676604 
L 132.940899 363.285596 
L 132.678216 364.545871 
L 132.011898 365.569315 
L 132.024712 366.474345 
L 131.691553 368.538151 
L 131.845319 369.240183 
L 131.736401 369.950674 
L 131.845319 370.694997 
L 132.088781 371.39703 
L 132.52445 371.845315 
L 133.184361 373.418544 
L 133.088258 374.24745 
L 132.940899 374.644986 
L 133.075444 374.738027 
L 132.582112 374.95794 
L 132.620554 375.127105 
L 133.395789 376.074426 
L 133.459858 376.438129 
L 133.344534 377.453116 
L 133.049816 378.408895 
L 133.030595 378.874097 
L 132.742285 378.967137 
L 132.652588 378.628808 
L 132.377091 378.442727 
L 132.940899 377.292409 
L 132.633368 377.977525 
L 132.729471 378.112857 
L 132.806354 378.662641 
L 132.799947 379.085552 
L 132.883237 379.322382 
L 132.96012 380.024415 
L 132.921678 379.880625 
L 132.69103 379.457714 
L 132.42194 379.47463 
L 132.402719 379.897541 
L 132.229733 380.345827 
L 132.114408 381.656851 
L 132.33865 382.079762 
L 131.838912 383.551493 
L 131.685146 384.456522 
L 131.230256 386.587994 
L 131.166187 386.934781 
L 131.467311 386.317331 
L 131.364801 386.072043 
L 131.390429 385.496884 
L 131.332766 385.378468 
L 131.134152 385.386927 
L 131.409649 385.158555 
L 131.518567 385.234679 
L 131.787656 384.845601 
L 132.140036 383.712199 
L 132.447567 383.729115 
L 132.434754 383.839072 
L 132.402719 384.346566 
L 132.216919 384.634145 
L 132.114408 384.160485 
L 131.742808 385.04014 
L 130.032165 411.176042 
L 130.160303 411.649702 
L 128.052433 415.193697 
L 126.188024 418.670025 
L 124.406905 420.826872 
L 123.875132 421.917982 
L 123.843098 422.340893 
L 123.016608 423.897206 
L 122.670635 424.277826 
L 122.523276 424.793777 
L 121.869772 425.834138 
L 121.767262 426.510796 
L 121.17142 427.804904 
L 120.908737 428.413896 
L 120.883109 429.065179 
L 120.402592 430.291621 
L 117.82061 435.146639 
L 117.455417 436.432289 
L 117.122258 437.007448 
L 116.987713 437.692564 
L 113.995689 442.13313 
L 113.668937 442.691372 
L 112.855261 443.664068 
L 112.336302 444.780553 
L 112.233791 445.414919 
L 111.669984 446.59907 
L 111.272756 447.182687 
L 111.061328 447.825512 
L 109.824796 449.982359 
L 108.645926 452.223787 
L 107.133897 454.194553 
L 106.03191 456.258358 
L 103.776681 459.3879 
L 102.629845 462.568191 
L 101.348465 463.938423 
L 100.733402 465.384779 
L 100.515567 466.04452 
L 99.740332 467.389377 
L 99.240594 468.666568 
L 98.933063 469.03873 
L 98.21549 469.706929 
L 98.093759 470.070633 
L 97.843889 470.332838 
L 96.978958 472.278228 
L 96.677833 472.751889 
L 96.280605 473.733042 
L 95.889784 473.893749 
L 95.370825 474.232077 
L 95.005632 474.857986 
L 94.86468 475.399312 
L 94.172734 477.057123 
L 93.839576 478.089026 
L 93.352651 478.198983 
L 92.910575 478.706476 
L 92.801657 478.630352 
L 92.852913 478.748767 
L 92.852913 478.909474 
L 92.865726 478.884099 
L 92.673519 479.027889 
L 92.436464 479.696088 
L 92.218629 480.076708 
L 92.225036 480.313538 
L 91.994388 480.347371 
L 91.116642 480.930988 
L 90.918028 482.098223 
L 90.834738 482.614174 
L 90.636125 483.003252 
L 90.277338 483.392331 
L 90.001841 484.128196 
L 89.687903 485.312347 
L 88.919075 487.376153 
L 88.323233 488.298099 
L 87.79146 489.541457 
L 87.541591 489.482249 
L 87.221246 489.803662 
L 86.689473 491.080853 
L 86.593369 491.529139 
L 85.363244 493.914357 
L 84.62645 495.293047 
L 83.281001 497.635974 
L 83.050352 497.906637 
L 82.390442 498.93854 
L 81.269234 500.46102 
L 80.878413 501.577505 
L 80.500405 502.558659 
L 80.269757 502.854696 
L 79.72517 504.250303 
L 79.62266 504.639381 
L 79.135735 504.952335 
L 78.104224 506.178777 
L 77.841541 506.855435 
L 77.796693 507.794297 
L 77.694182 508.394831 
L 77.912017 508.623203 
L 78.059376 508.809284 
L 77.899203 508.758535 
L 77.841541 508.902324 
L 77.681369 520.591585 
L 73.600172 518.646195 
L 73.901296 518.164076 
L 74.253676 518.375532 
L 74.343373 518.705402 
L 74.061469 519.322852 
L 73.042771 521.242868 
L 72.530219 522.621558 
L 72.216281 523.036011 
L 72.158619 523.822626 
L 72.523812 523.864917 
L 72.293164 523.949499 
L 71.90875 523.864917 
L 71.236025 523.66192 
L 70.806763 522.99372 
L 69.711182 522.114065 
L 69.294734 521.860319 
L 68.980796 521.970275 
L 68.269629 522.689224 
L 67.776298 523.239009 
L 68.442616 523.213634 
L 67.385477 524.270911 
L 67.020284 524.448534 
L 66.565393 525.192858 
L 65.873448 526.385467 
L 65.546696 526.673046 
L 64.495964 527.620367 
L 64.355012 527.967154 
L 63.49008 529.015973 
L 63.060818 529.295095 
L 61.965238 530.859865 
L 61.273292 532.458469 
L 60.65823 533.287375 
L 60.088015 533.659536 
L 60.01754 533.820243 
L 59.351222 534.632232 
L 58.338931 535.92634 
L 58.11469 536.349251 
L 57.723869 536.4 
L 55.853053 535.858674 
L 53.200596 534.716814 
L 52.720078 534.657607 
L 52.483023 534.809854 
L 52.156271 534.809854 
L 51.964064 534.657607 
L 52.03454 534.674523 
L 52.175491 534.437693 
L 52.047353 534.251612 
L 52.047353 534.031698 
L 52.181898 533.980949 
L 52.796961 532.847547 
L 53.091678 532.856006 
L 53.809251 531.629563 
L 54.071934 531.544981 
L 54.161631 531.282776 
L 54.148817 530.631493 
L 54.257735 530.233957 
L 54.514011 530.090167 
L 54.898425 529.692631 
L 55.48786 529.252803 
L 56.269502 528.297025 
L 56.506557 527.772615 
L 56.775647 527.518868 
L 57.070365 527.062124 
L 58.953994 525.22669 
L 59.299967 524.287828 
L 59.876588 523.831084 
L 60.427581 523.019095 
L 60.959354 522.350895 
L 60.920913 521.818027 
L 61.02983 521.428949 
L 60.876064 521.149828 
L 60.555719 521.022955 
L 60.113643 520.498545 
L 59.74845 519.720389 
L 59.050097 519.043731 
L 57.717462 518.367073 
L 57.49322 518.054119 
L 57.063958 517.876497 
L 56.826902 518.09641 
L 55.366129 519.026815 
L 55.077818 519.119855 
L 55.417384 519.424351 
L 55.519894 519.585057 
L 55.03297 519.661181 
L 54.802321 519.686556 
L 53.681113 519.069106 
L 53.271072 518.722319 
L 52.96354 518.037203 
L 52.32285 517.588917 
L 51.823112 516.76847 
L 50.862077 516.751553 
L 50.528918 516.573931 
L 50.240607 516.303267 
L 49.497406 516.184852 
L 49.119399 515.964939 
L 47.056377 516.193311 
L 45.947983 516.666971 
L 44.711451 516.819219 
L 44.083574 516.557014 
L 42.731718 516.514723 
L 42.058993 516.895343 
L 40.649475 517.377462 
L 38.381431 518.2402 
L 37.894507 518.722319 
L 37.554941 519.052189 
L 37.215375 519.162146 
L 35.831484 519.441267 
L 35.165166 519.61889 
L 34.876856 519.686556 
L 34.70387 519.881095 
L 34.338676 519.720389 
L 33.97989 519.204437 
L 33.883786 519.026815 
L 33.608289 518.891483 
L 33.435303 518.189451 
L 33.102144 517.732707 
L 32.890716 517.250588 
L 32.595999 517.089882 
L 32.224398 516.24406 
L 31.148039 515.525111 
L 30.795659 515.034534 
L 30.520162 514.797704 
L 30.404838 514.823079 
L 30.302328 514.780788 
L 30.110121 514.39171 
L 29.815403 513.841925 
L 29.757741 513.419014 
L 29.956355 511.9642 
L 29.847438 511.718912 
L 29.136272 511.084545 
L 28.566057 510.20489 
L 28.348223 510.035726 
L 27.983029 509.384443 
L 27.669091 509.122238 
L 27.419222 508.49633 
L 27.489698 508.191834 
L 27.393594 507.845047 
L 27.508919 508.098793 
L 26.900263 507.921171 
L 26.458187 507.904254 
L 26.009703 507.455969 
L 24.638626 505.967322 
L 24.504081 505.713575 
L 23.536639 505.755866 
L 21.255782 505.231457 
L 20.877775 505.104583 
L 20.352409 505.172249 
L 19.487477 504.926961 
L 19.135098 504.605548 
L 18.92367 502.524826 
L 18.693021 501.55213 
L 18.577697 500.258023 
L 18.270166 500.258023 
L 18.257352 499.522158 
L 18.539256 499.361451 
L 18.801939 499.293786 
L 19.154318 499.446034 
L 19.442629 499.716697 
L 20.352409 499.911236 
L 20.986692 499.716697 
L 21.210934 499.386826 
L 23.075342 498.295716 
L 23.575081 498.008136 
L 24.138888 498.101176 
L 24.856461 497.576767 
L 26.0994 497.373769 
L 26.772125 496.933942 
L 27.265456 496.680195 
L 30.19341 495.918955 
L 31.634963 497.280729 
L 32.153922 497.94047 
L 32.672882 498.659419 
L 32.954785 498.972373 
L 33.326386 499.158454 
L 34.140062 498.727085 
L 36.369664 497.416061 
L 38.099528 497.026982 
L 39.034935 496.587155 
L 39.861426 496.384158 
L 40.252247 496.308034 
L 41.290165 495.783624 
L 42.731718 495.724416 
L 43.084097 495.885123 
L 43.442884 496.511031 
L 44.128422 496.900109 
L 44.416733 497.221521 
L 44.749892 497.424519 
L 44.922878 497.737473 
L 45.224003 497.898179 
L 45.461058 498.667877 
L 45.896727 499.149996 
L 45.890321 499.623656 
L 46.178631 499.84357 
L 46.86417 500.469478 
L 47.479232 501.061554 
L 48.478709 501.585963 
L 49.132213 502.304912 
L 49.32442 502.727823 
L 50.138097 503.286066 
L 50.118876 503.844308 
L 50.349524 504.394093 
L 50.58658 504.529424 
L 50.798007 504.656298 
L 51.067097 504.994626 
L 52.50865 505.83199 
L 53.181375 506.364858 
L 54.296176 506.846977 
L 55.334094 507.718173 
L 55.48786 508.039586 
L 55.507081 508.580912 
L 55.731322 508.699327 
L 57.736682 508.953074 
L 58.716938 508.707785 
L 59.754857 508.20875 
L 60.805589 507.252971 
L 61.805065 506.88081 
L 62.035714 506.610147 
L 62.080562 506.204152 
L 62.330431 505.713575 
L 63.240211 505.442912 
L 63.771984 505.332955 
L 64.124364 504.83392 
L 64.393454 504.867753 
L 65.194316 504.59709 
L 65.194316 504.267219 
L 65.629986 503.294524 
L 65.623579 503.083068 
L 65.770938 502.846238 
L 65.873448 502.228788 
L 66.296304 501.391424 
L 66.341152 501.036179 
L 66.187386 500.765516 
L 66.450069 499.877403 
L 67.327815 499.454492 
L 67.782705 498.70171 
L 68.397767 498.126551 
L 68.449023 497.720556 
L 68.308071 497.46681 
L 68.269629 497.094648 
L 69.358803 496.291117 
L 69.416465 496.316492 
L 69.422872 496.138869 
L 69.756031 495.597543 
L 69.852134 495.682125 
L 70.10841 495.487586 
L 70.27499 495.369171 
L 71.024597 495.386088 
L 72.036888 495.301505 
L 73.094027 495.868206 
L 73.856448 496.206535 
L 75.355663 496.79861 
L 76.054015 497.094648 
L 76.553754 497.221521 
L 76.91254 497.449893 
L 79.91097 498.414131 
L 80.135212 498.625586 
L 80.372267 498.55792 
L 80.769495 498.98929 
L 81.109061 499.192287 
L 81.275641 499.60674 
L 81.6088 499.775904 
L 82.018841 500.122691 
L 83.332256 500.503311 
L 83.678229 500.926222 
L 85.119782 502.051166 
L 85.414499 502.287996 
L 85.830948 502.905446 
L 86.644625 503.421397 
L 87.246873 503.971182 
L 89.559765 505.172249 
L 90.443917 505.07075 
L 90.764263 504.59709 
L 91.59716 504.258761 
L 91.987981 503.844308 
L 92.116119 503.421397 
L 92.558195 503.023861 
L 92.718368 502.550201 
L 92.603043 502.178039 
L 92.993864 500.757058 
L 94.749356 499.17537 
L 95.434894 497.79668 
L 96.222943 497.060815 
L 96.14606 496.646362 
L 96.453592 496.257284 
L 97.158351 495.978163 
L 97.459475 495.792082 
L 97.613241 495.352255 
L 97.587613 494.94626 
L 98.619124 493.821317 
L 99.074015 493.415322 
L 99.657043 492.518751 
L 100.099119 491.80826 
L 100.272105 491.368433 
L 100.611671 491.148519 
L 101.079375 490.556444 
L 102.572183 488.704093 
L 102.745169 488.365764 
L 103.526811 487.72294 
L 103.738239 487.494568 
L 104.29564 486.141252 
L 104.808192 485.473053 
L 105.026027 485.126266 
L 105.711565 483.054002 
L 106.128014 482.656465 
L 106.557276 481.937517 
L 107.063421 481.370816 
L 107.306884 481.277775 
L 107.435022 481.040945 
L 107.531125 480.085166 
L 108.440905 479.129387 
L 108.831726 478.807975 
L 109.145665 478.647269 
L 109.325058 478.275107 
L 109.350685 478.495021 
L 109.421161 478.579603 
L 109.145665 478.824891 
L 109.152071 479.340843 
L 109.305837 479.560757 
L 109.446789 479.4508 
L 109.440382 479.391592 
L 109.504451 479.493091 
L 107.659263 479.408509 
L 107.966795 479.366217 
L 107.960388 478.951765 
L 107.973201 478.909474 
L 108.062898 479.002514 
L 108.338395 478.824891 
L 108.517788 478.867182 
L 108.677961 478.588061 
L 109.107223 477.5477 
L 109.363499 476.972541 
L 109.773541 476.135177 
L 110.004189 475.534643 
L 110.484707 475.247064 
L 110.247652 475.052525 
L 110.779425 473.868374 
L 111.170246 473.513129 
L 112.176129 473.352423 
L 112.688681 472.811096 
L 112.727123 472.447393 
L 113.540799 471.711528 
L 113.93162 470.637334 
L 114.002096 470.425878 
L 114.463393 470.265172 
L 114.764518 470.189048 
L 114.828587 470.112924 
L 115.161746 469.368601 
L 115.411615 469.165603 
L 115.533346 468.65811 
L 115.642263 467.972994 
L 115.674298 467.51625 
L 116.033084 467.42321 
L 116.737844 465.545485 
L 116.99412 465.257905 
L 117.115851 464.928035 
L 117.532299 464.708121 
L 118.570218 464.61508 
L 119.172466 464.818078 
L 119.146839 465.342487 
L 118.493335 466.509722 
L 118.442079 466.51818 
L 117.782169 467.829204 
L 117.628403 467.989911 
L 117.673251 468.04066 
L 117.256803 468.793442 
L 117.276023 469.174061 
L 117.628403 469.56314 
L 117.769355 469.867636 
L 117.910307 469.977592 
L 117.782169 469.994509 
L 117.109444 470.087549 
L 116.936457 470.172132 
L 116.72503 470.324379 
L 116.603299 470.611959 
L 116.487974 471.390115 
L 116.513602 472.016024 
L 116.686588 472.718056 
L 117.545113 473.41163 
L 118.249872 473.572336 
L 118.345976 473.521587 
L 118.512555 473.276299 
L 118.685542 473.157883 
L 119.435149 472.79418 
L 119.524846 472.633474 
L 119.742681 472.405102 
L 120.319302 471.897609 
L 120.581985 471.110994 
L 120.569171 470.975662 
L 120.953585 470.146757 
L 121.498172 469.410892 
L 121.703193 468.844191 
L 122.061979 468.032202 
L 122.126048 467.761539 
L 122.446393 467.465501 
L 122.811587 467.583916 
L 123.157559 467.465501 
L 123.804656 467.51625 
L 123.952015 467.364002 
L 124.240326 466.501264 
L 124.515823 466.078353 
L 125.713913 464.462832 
L 125.7011 464.37825 
L 125.323092 464.023005 
L 124.836168 463.980714 
L 124.009677 463.532428 
L 123.099897 463.101059 
L 122.478428 462.788105 
L 121.965876 462.153738 
L 121.7096 462.035323 
L 121.581461 461.806951 
L 120.729344 461.316374 
L 120.191164 460.758132 
L 120.075839 460.707382 
L 119.749087 459.819269 
L 119.890039 459.557064 
L 119.858005 459.227194 
L 119.954108 458.939614 
L 119.460777 458.508245 
L 118.717576 458.169916 
L 118.249872 457.467884 
L 116.545636 456.825059 
L 115.251442 455.936946 
L 114.6556 455.514035 
L 113.508765 455.201081 
L 112.976992 454.947334 
L 112.156909 454.820461 
L 111.913446 454.592089 
L 111.163839 454.203011 
L 110.164362 453.771641 
L 109.498044 453.644768 
L 108.677961 453.34873 
L 108.235884 452.976569 
L 107.768181 452.841237 
L 106.083165 451.826251 
L 105.634682 451.284925 
L 102.565776 448.908165 
L 101.841796 448.688251 
L 101.495824 448.299173 
L 101.04734 448.087717 
L 100.387429 447.935469 
L 99.823622 447.630973 
L 99.131677 447.411059 
L 97.882331 447.131938 
L 94.851866 445.50796 
L 94.403383 445.152715 
L 93.551265 444.171561 
L 93.077154 443.917814 
L 92.59023 443.850149 
L 91.571532 443.36803 
L 90.565649 442.826704 
L 90.162014 442.488375 
L 89.495696 442.090839 
L 89.002364 441.625636 
L 87.996481 440.906688 
L 87.125142 440.382278 
L 87.022632 439.959367 
L 87.266094 438.885173 
L 87.612067 438.563761 
L 88.874226 436.398456 
L 89.707124 434.664521 
L 90.001841 434.157028 
L 90.174828 433.564952 
L 91.674043 431.137443 
L 91.834215 430.494618 
L 92.77603 429.217427 
L 93.653775 428.312397 
L 94.653252 426.696877 
L 94.928749 426.147092 
L 95.300349 425.766473 
L 95.755239 424.810694 
L 96.293419 423.854915 
L 96.677833 423.389713 
L 96.908482 422.916052 
L 97.010992 422.264769 
L 98.157828 420.378586 
L 98.561462 419.270559 
L 99.612194 417.494333 
L 99.970981 417.206753 
L 101.117816 415.337486 
L 101.354872 414.965325 
L 101.348465 414.46629 
L 101.694437 413.882672 
L 102.104479 413.46822 
L 102.424824 412.909977 
L 102.815645 411.641244 
L 103.731832 409.831185 
L 104.12906 408.57091 
L 105.090096 406.794683 
L 105.570613 405.593616 
L 105.865331 405.001541 
L 106.288186 404.477131 
L 107.697705 401.38988 
L 107.74896 400.696306 
L 109.177699 398.68325 
L 109.978562 397.143854 
L 110.39501 396.653277 
L 111.644356 393.828231 
L 113.015433 392.17042 
L 112.970585 391.781342 
L 113.585648 390.631024 
L 115.930574 386.60491 
L 117.320872 384.101277 
L 117.686065 383.627617 
L 118.954632 381.022485 
L 119.742681 380.252787 
L 120.26164 379.872167 
L 121.299558 377.698404 
L 121.850551 376.734167 
L 122.299035 375.896803 
L 122.914097 373.951412 
L 123.324139 373.858372 
L 124.016084 372.860302 
L 124.265953 372.318976 
L 124.81054 371.938356 
L 124.983526 371.287073 
L 125.393568 370.889536 
L 125.387161 370.25517 
L 125.53452 369.595429 
L 125.98941 369.147143 
L 126.143176 368.63965 
L 127.052956 367.675412 
L 127.328453 367.252501 
L 128.116502 366.406679 
L 128.507323 365.97531 
L 128.789226 365.374776 
L 128.910957 364.715035 
L 129.167234 364.216 
L 129.42351 362.625855 
L 129.686193 362.338275 
L 130.467835 361.763116 
L 131.550601 359.673936 
L 132.133629 357.576297 
L 132.280988 357.060345 
L 132.300209 356.392146 
L 133.094664 354.734335 
L 133.306092 354.252216 
L 133.831458 353.431769 
L 134.619507 352.433699 
L 134.645135 352.036162 
L 135.31786 350.775887 
L 135.484439 350.369893 
L 135.388335 349.904691 
L 135.542101 348.847413 
L 136.266081 347.384141 
L 137.073351 346.504486 
L 137.566682 345.920869 
L 137.810144 345.328793 
L 138.918538 343.865521 
L 140.59074 341.268847 
L 141.007189 340.82902 
L 141.225023 340.152362 
L 141.833679 339.154292 
L 142.564066 337.589521 
L 142.698611 337.065112 
L 143.03177 336.54916 
L 143.179128 336.092416 
L 143.512287 335.576465 
L 144.191419 335.212761 
L 144.646309 334.69681 
L 145.434358 333.233538 
L 145.805958 332.785252 
L 146.510717 331.288147 
L 146.837469 331.093608 
L 147.31158 330.636864 
L 147.49738 330.171662 
L 148.362312 329.148217 
L 149.336161 326.458503 
L 152.264115 321.654233 
L 152.520392 321.079074 
L 152.859957 320.605414 
L 153.058571 320.081004 
L 153.801772 319.015268 
L 154.3848 318.051031 
L 154.551379 317.509705 
L 155.858388 316.63005 
L 156.345312 316.477802 
L 156.454229 315.818061 
L 156.672064 315.39515 
L 156.793795 314.7777 
L 158.401928 311.047624 
L 158.779935 310.700837 
L 159.587205 309.02611 
L 160.074129 307.867333 
L 160.343219 307.529005 
L 160.714819 306.429436 
L 161.842434 304.712417 
L 162.194814 304.213382 
L 162.72018 303.807388 
L 163.399311 302.699361 
L 164.110477 302.073452 
L 164.796016 302.005786 
L 165.859562 301.109215 
L 165.673761 299.671318 
L 166.231162 299.282239 
L 167.096094 298.427959 
L 167.602239 298.030423 
L 168.396695 296.389528 
L 169.005351 295.273043 
L 169.146302 294.7148 
L 169.825434 293.725188 
L 170.331579 293.276903 
L 170.837725 292.160418 
L 170.824911 291.610633 
L 171.375904 290.138903 
L 171.465601 289.589118 
L 172.080664 288.802504 
L 172.304905 287.102402 
L 172.477891 286.44266 
L 173.458147 284.30273 
L 173.547844 284.015151 
L 173.791306 284.091275 
L 174.086024 284.040526 
L 174.143686 283.693739 
L 174.188534 281.765264 
L 174.3423 281.113981 
L 174.925328 280.285076 
L 174.7139 279.912914 
L 174.765155 279.659167 
L 174.669052 279.320838 
L 175.328963 278.60189 
L 176.05935 277.451572 
L 176.911468 276.301254 
L 177.110082 275.79376 
L 176.78333 275.17631 
L 176.898654 274.135949 
L 177.013978 273.822995 
L 179.794574 271.260154 
L 180.185395 270.718828 
L 180.499333 269.077933 
L 181.274568 267.673868 
L 181.876817 267.022585 
L 182.248417 266.320553 
L 183.04928 265.407065 
L 183.830922 264.332871 
L 184.465205 263.233303 
L 184.734295 262.827308 
L 185.291696 262.429772 
L 185.586413 261.930737 
L 187.053594 260.729669 
L 187.873677 259.384812 
L 188.399043 258.412117 
L 188.712981 257.549378 
L 188.905188 257.168758 
L 189.257568 257.126467 
L 190.090465 256.30602 
L 191.512797 255.367157 
L 192.191929 254.428295 
L 192.166301 253.954634 
L 192.806992 252.567486 
L 193.024826 252.017702 
L 193.133744 251.324128 
L 193.76162 250.732052 
L 194.037117 250.224559 
L 194.037117 249.657858 
L 194.274172 248.490624 
L 195.363346 247.636343 
L 195.491484 247.154225 
L 195.76698 246.824354 
L 195.914339 246.333778 
L 196.510181 245.504872 
L 196.567843 244.100807 
L 196.862561 243.551023 
L 197.746713 240.725977 
L 198.060651 240.421481 
L 198.265672 240.040861 
L 198.323334 239.38112 
L 197.772341 238.586047 
L 197.765934 237.393438 
L 198.496321 236.598365 
L 199.002466 236.327702 
L 200.841247 234.737557 
L 204.326602 232.453837 
L 204.525216 231.751805 
L 204.582878 230.982107 
L 204.486774 230.170118 
L 204.678981 229.535751 
L 204.845561 228.3516 
L 205.422182 226.127088 
L 205.415775 225.323557 
L 206.178196 224.494652 
L 206.434472 224.249363 
L 206.607459 223.843369 
L 207.786329 221.914894 
L 208.042605 221.288986 
L 208.305288 220.13021 
L 208.708923 219.394344 
L 209.074116 219.098307 
L 209.529006 218.996808 
L 209.932641 217.914156 
L 210.259393 217.558911 
L 210.419565 217.034501 
L 210.381124 216.011056 
L 210.201731 215.215983 
L 209.535413 214.133331 
L 208.523122 213.676587 
L 208.061826 213.202927 
L 207.55568 212.940722 
L 206.069279 211.604323 
L 205.614389 210.648544 
L 205.082616 209.286771 
L 204.986513 207.738916 
L 205.36452 207.189132 
L 205.787375 206.064188 
L 208.254033 203.543639 
L 208.657667 203.332183 
L 209.682772 201.953493 
L 210.502855 200.380264 
L 211.25887 198.561747 
L 211.566401 197.673634 
L 212.392891 195.702868 
L 212.373671 195.153084 
L 211.047442 193.867434 
L 210.797573 193.444523 
L 210.477228 192.17579 
L 210.09922 191.744421 
L 209.682772 191.524507 
L 208.555157 190.196566 
L 208.452647 189.917445 
L 207.715853 188.970124 
L 207.081569 187.955138 
L 206.697155 187.489936 
L 206.466507 187.303855 
L 205.691272 185.756 
L 203.871712 184.5211 
L 202.052151 183.785235 
L 201.37302 183.582238 
L 200.091639 183.243909 
L 199.771294 182.981704 
L 199.55346 182.634917 
L 199.399694 181.958259 
L 198.816666 181.044772 
L 198.694935 180.444238 
L 198.694935 179.843704 
L 198.470693 179.040173 
L 198.509135 178.202809 
L 198.989652 176.91716 
L 199.149825 176.604206 
L 199.527832 176.181295 
L 199.591901 175.86834 
L 199.873805 175.623052 
L 200.373543 174.599607 
L 201.462716 173.474664 
L 202.071372 171.774562 
L 202.36609 171.140195 
L 202.173883 169.812254 
L 202.052151 169.4993 
L 201.597261 169.034098 
L 201.398647 168.577354 
L 201.084709 168.002195 
L 200.527309 167.562368 
L 199.265149 167.12254 
L 198.432252 167.105624 
L 197.618575 167.114082 
L 197.041954 166.758837 
L 196.939444 166.615047 
L 196.164208 166.631963 
L 194.203696 166.615047 
L 193.422054 166.538923 
L 192.505867 166.26826 
L 192.198336 166.116012 
L 192.473833 165.769225 
L 192.531495 165.36323 
L 193.140151 164.483575 
L 193.281102 164.348244 
L 194.338241 161.819236 
L 195.139104 160.305214 
L 195.568366 159.713139 
L 195.734946 159.188729 
L 196.11936 158.765818 
L 197.554506 155.433279 
L 197.932513 154.85812 
L 198.015803 154.198379 
L 198.201603 153.936174 
L 198.175976 153.183392 
L 198.316927 152.878896 
L 198.355369 152.464444 
L 199.220301 150.39218 
L 199.406101 150.01156 
L 199.918653 149.495608 
L 201.424275 146.72977 
L 201.9112 145.452579 
L 202.410938 145.164999 
L 202.885049 145.122708 
L 203.038814 145.44412 
L 203.166952 145.672492 
L 203.474484 145.773991 
L 204.954478 146.704395 
L 205.268416 146.670562 
L 205.313265 146.569064 
L 205.627203 146.941225 
L 206.050058 146.805894 
L 206.248672 146.58598 
L 206.479321 146.027738 
L 207.241742 144.716713 
L 207.837584 144.099263 
L 208.772992 142.703657 
L 209.285544 141.900126 
L 209.766061 140.952805 
L 210.112034 139.861695 
L 210.297834 138.897457 
L 210.419565 137.518768 
L 210.4516 136.774444 
L 210.880862 134.820595 
L 211.098697 134.473808 
L 211.207614 133.602611 
L 211.335752 133.577237 
L 211.310125 135.235048 
L 211.265277 135.294255 
L 211.534366 135.421129 
L 211.502332 135.412671 
L 211.489518 135.497253 
L 212.194277 135.522627 
L 212.162243 135.412671 
L 212.418519 135.903247 
L 212.687609 136.436115 
L 212.738864 136.148536 
L 212.649167 135.125091 
L 212.950292 134.541474 
L 212.200684 133.830983 
L 211.989256 133.856358 
L 212.091767 133.788692 
L 211.995663 133.661819 
L 211.745794 132.249296 
L 211.873932 131.598013 
L 211.797049 131.56418 
L 211.803456 131.031312 
L 211.656098 130.718358 
L 211.27809 130.295447 
L 211.021814 130.117824 
L 211.463891 129.246628 
L 211.707353 128.375431 
L 212.604319 126.912159 
L 213.110464 126.100169 
L 213.26423 125.685717 
L 213.763968 124.856811 
L 215.026128 122.361636 
L 215.327252 122.099431 
L 216.621447 119.832628 
L 216.954606 119.705755 
L 217.17244 119.485841 
L 217.274951 118.952973 
L 217.492785 118.580811 
L 217.890013 117.405119 
L 218.4346 116.567755 
L 219.42767 114.512407 
L 219.818491 113.683501 
L 219.863339 112.78693 
L 219.466111 111.619696 
L 218.819014 111.103744 
L 218.075813 110.773873 
L 217.082744 110.334046 
L 216.217812 109.589723 
L 215.833398 109.479766 
L 214.660935 108.515529 
L 212.386484 106.620887 
L 212.149429 106.36714 
L 210.374717 105.682025 
L 208.164336 104.337168 
L 207.216114 104.074963 
L 205.447809 103.144558 
L 204.224091 102.747022 
L 202.904269 101.444456 
L 201.879165 101.063836 
L 201.328171 100.953879 
L 200.476053 100.116515 
L 199.713632 99.659771 
L 198.502728 99.084612 
L 195.773387 97.579049 
L 194.902049 97.223804 
L 194.58811 96.944683 
L 194.037117 96.851642 
L 191.897212 95.853572 
L 190.167348 95.041583 
L 189.443368 94.457966 
L 188.50796 94.305718 
L 188.258091 94.001222 
L 187.149697 93.586769 
L 186.803724 93.417605 
L 186.566669 93.426063 
L 185.77862 93.138483 
L 185.618448 91.10851 
L 185.810655 90.643308 
L 186.425717 89.72982 
L 186.810131 88.774041 
L 187.521298 87.226187 
L 187.726318 86.760985 
L 188.078698 86.388823 
L 188.418264 84.790219 
L 189.411334 82.937869 
L 190.03921 81.872133 
L 192.140674 78.471928 
L 192.685261 77.253945 
L 192.947944 76.695702 
L 192.999199 76.315082 
L 193.217033 76.061336 
L 193.313137 75.672257 
L 194.056338 74.505023 
L 194.094779 73.99753 
L 195.350532 71.011778 
L 195.523518 70.57195 
L 195.459449 70.428161 
L 195.574773 70.749573 
L 195.786201 70.910279 
L 196.907409 70.275913 
L 197.157278 70.030624 
L 197.048361 70.039082 
L 197.131651 69.286301 
L 197.48403 68.372813 
L 197.894072 67.594657 
L 198.694935 66.224425 
L 199.111383 65.302479 
L 199.354846 64.913401 
L 199.65597 63.839207 
L 201.751027 60.083757 
L 202.052151 59.787719 
L 202.827387 58.30753 
L 203.327125 57.301002 
L 203.948594 56.421347 
L 204.685388 55.228738 
L 205.338892 54.163002 
L 205.851444 52.725104 
L 206.338369 51.989239 
L 207.530053 49.807018 
L 207.978536 48.783574 
L 208.202777 48.225331 
L 209.118964 46.846641 
L 210.035151 44.968916 
L 213.661458 38.109299 
L 213.968989 37.322684 
L 214.186824 36.324614 
L 215.211928 34.675261 
L 215.243963 34.717552 
L 215.423356 34.929008 
L 215.359287 34.962841 
L 215.45539 35.01359 
L 215.423356 35.115089 
L 215.135045 35.529542 
L 215.256777 35.199671 
L 215.16708 34.8698 
L 215.224742 34.912092 
L 215.53868 35.055881 
L 215.859025 34.734469 
L 216.019198 34.759844 
L 215.775736 34.8698 
L 216.089674 32.865202 
L 216.26266 32.586081 
L 216.941792 32.822911 
L 218.030965 32.805995 
L 218.152696 32.442291 
L 218.415379 32.4 
L 218.953559 32.746787 
L 219.132952 32.68758 
L 219.280311 32.78062 
L 220.074767 33.508027 
L 220.395112 33.465736 
L 220.600133 33.25428 
L 220.933292 33.474194 
L 221.51632 33.54186 
L 221.932768 34.007062 
L 222.6119 34.023978 
L 224.316136 35.132005 
L 226.699504 36.146992 
L 226.840455 36.349989 
L 227.372228 36.451488 
L 227.743829 36.806733 
L 228.211532 37.415725 
L 229.04443 37.830178 
L 229.467285 38.456086 
L 229.550575 38.667542 
L 230.255334 38.828248 
L 230.5949 38.828248 
L 231.889094 39.225784 
L 232.113336 39.38649 
L 232.459309 39.394949 
L 232.965454 39.843234 
L 233.766317 40.350728 
L 233.894455 40.841304 
L 233.599737 41.687126 
L 233.663806 42.685196 
L 233.132033 42.981234 
L 232.22866 45.121164 
L 232.023639 46.110776 
L 232.516971 46.499854 
L 234.515924 47.996959 
L 234.983628 48.157665 
L 235.39367 48.589035 
L 237.174788 49.688603 
L 237.616865 49.908517 
L 237.725782 49.916975 
L 237.725782 49.916975 
" style="fill:none;stroke:#000000;stroke-width:3;"/>
   </g>
  </g>
 </g>
 <defs>
  <clipPath id="pec409097e6">
   <rect height="554.4" width="242.556983" x="7.2" y="7.2"/>
  </clipPath>
 </defs>
</svg>
