<?xml version="1.0" encoding="utf-8" standalone="no"?>
<!DOCTYPE svg PUBLIC "-//W3C//DTD SVG 1.1//EN"
  "http://www.w3.org/Graphics/SVG/1.1/DTD/svg11.dtd">
<svg height="568.8pt" version="1.1" viewBox="0 0 389.409144 568.8" width="389.409144pt" xmlns="http://www.w3.org/2000/svg" xmlns:xlink="http://www.w3.org/1999/xlink">
 <metadata>
  <rdf:RDF xmlns:cc="http://creativecommons.org/ns#" xmlns:dc="http://purl.org/dc/elements/1.1/" xmlns:rdf="http://www.w3.org/1999/02/22-rdf-syntax-ns#">
   <cc:Work>
    <dc:type rdf:resource="http://purl.org/dc/dcmitype/StillImage"/>
    <dc:date>2021-08-28T01:51:30.921248</dc:date>
    <dc:format>image/svg+xml</dc:format>
    <dc:creator>
     <cc:Agent>
      <dc:title>Matplotlib v3.4.3, https://matplotlib.org/</dc:title>
     </cc:Agent>
    </dc:creator>
   </cc:Work>
  </rdf:RDF>
 </metadata>
 <defs>
  <style type="text/css">*{stroke-linecap:butt;stroke-linejoin:round;}</style>
 </defs>
 <g id="figure_1">
  <g id="patch_1">
   <path d="M 0 568.8 
L 389.409144 568.8 
L 389.409144 0 
L 0 0 
z
" style="fill:#ffffff;"/>
  </g>
  <g id="axes_1">
   <g id="LineCollection_1">
    <path clip-path="url(#pa151bacd14)" d="M 24.24587 445.579923 
L 25.361355 446.914286 
L 25.992761 448.081853 
L 26.87673 448.804633 
L 28.013262 449.193822 
L 29.991669 450.611583 
L 30.496794 451.501158 
L 30.854591 451.80695 
L 31.443904 452.52973 
L 31.949029 453.6139 
L 32.95928 454.058687 
L 33.443358 455.03166 
L 36.642484 457.811583 
L 37.631687 458.256371 
L 38.221 459.118147 
L 39.273344 459.535135 
L 39.610094 459.840927 
L 40.494063 460.06332 
L 41.188611 460.369112 
L 41.988392 460.925097 
L 42.914455 460.619305 
L 45.061237 460.341313 
L 45.924159 460.535907 
L 46.850222 460.508108 
L 47.692097 460.674903 
L 48.533973 461.064093 
L 48.786535 461.314286 
L 49.607364 461.647876 
L 50.428192 461.759073 
L 51.206927 461.981467 
L 52.238224 462.676448 
L 53.858834 464.149807 
L 54.553381 465.067181 
L 55.395256 465.762162 
L 56.742257 467.791506 
L 57.478898 469.237066 
L 58.867992 470.432432 
L 59.604633 471.23861 
L 60.446508 471.433205 
L 61.30943 471.155212 
L 62.067118 470.432432 
L 63.119462 469.79305 
L 64.298088 468.458687 
L 64.992635 467.596911 
L 66.423823 465.261776 
L 67.097323 464.622394 
L 69.307246 461.036293 
L 70.043887 460.42471 
L 70.633199 459.618533 
L 71.159371 458.617761 
L 71.454028 457.644788 
L 74.337451 453.22471 
L 75.010951 451.501158 
L 75.200373 450.667181 
L 75.642357 449.944402 
L 76.463186 447.776062 
L 76.673655 446.3861 
L 76.631561 445.274131 
L 77.031452 444.328958 
L 77.262967 443.328185 
L 77.389249 441.799228 
L 77.599717 440.659459 
L 77.452389 439.769884 
L 77.641811 438.82471 
L 77.620764 436.628571 
L 77.452389 434.126641 
L 77.51553 433.125869 
L 77.389249 432.180695 
L 76.820983 431.152124 
L 76.021201 429.039382 
L 75.137232 427.176834 
L 74.505826 425.564479 
L 73.832325 423.674131 
L 73.411388 421.894981 
L 73.053591 420.088031 
L 72.885216 418.892664 
L 72.190669 416.807722 
L 72.085434 415.945946 
L 71.496121 413.722008 
L 71.327746 412.359846 
L 70.612152 411.359073 
L 69.875512 408.60695 
L 70.043887 407.494981 
L 69.728183 406.410811 
L 69.959699 404.075676 
L 69.223058 403.491892 
L 69.180964 402.546718 
L 69.559808 398.15444 
L 69.096777 390.787645 
L 69.475621 386.867954 
L 69.770277 385.783784 
L 69.433527 384.727413 
L 69.74923 383.115058 
L 70.675293 381.22471 
L 71.432981 380.52973 
L 71.538215 379.528958 
L 71.832872 378.528185 
L 72.485325 377.861004 
L 72.927309 377.054826 
L 73.537669 376.248649 
L 74.316404 374.302703 
L 75.158279 373.440927 
L 76.168529 371.328185 
L 77.85228 367.241699 
L 79.13614 365.629344 
L 80.230578 365.073359 
L 81.661766 363.405405 
L 82.650969 361.959846 
L 83.114001 360.764479 
L 84.439954 358.623938 
L 84.881939 357.539768 
L 86.271033 356.066409 
L 86.944533 354.95444 
L 87.596987 354.342857 
L 88.565143 352.897297 
L 89.091315 352.313514 
L 93.658489 348.894208 
L 94.479317 348.421622 
L 95.468521 347.587645 
L 96.184115 346.781467 
L 96.983896 346.114286 
L 97.741584 345.169112 
L 99.109631 344.112741 
L 99.719991 343.334363 
L 100.435585 342.806178 
L 101.27746 342.528185 
L 101.972007 342.055598 
L 102.982258 341.583012 
L 106.307665 340.498842 
L 107.233728 340.248649 
L 110.011916 338.997683 
L 110.811698 338.330502 
L 111.800902 337.718919 
L 112.832199 337.718919 
L 115.084215 336.940541 
L 115.86295 336.467954 
L 116.852153 336.023166 
L 117.904497 335.911969 
L 118.977888 335.52278 
L 121.145717 334.160618 
L 124.344844 332.99305 
L 126.302204 332.492664 
L 128.112235 331.603089 
L 129.206673 330.908108 
L 130.027502 330.185328 
L 130.701002 329.40695 
L 131.711252 328.68417 
L 132.74255 328.350579 
L 134.152691 326.654826 
L 134.805144 325.737452 
L 136.362613 324.180695 
L 136.636223 323.819305 
L 137.709614 321.901158 
L 138.383114 320.900386 
L 138.593583 319.899614 
L 139.267083 318.759846 
L 139.498599 317.786873 
L 139.982677 316.897297 
L 140.087912 314.200772 
L 140.130005 313.227799 
L 140.361521 311.170656 
L 140.29838 310.142085 
L 139.477552 306.611583 
L 139.351271 305.138224 
L 139.582786 303.498069 
L 139.393365 301.023938 
L 139.056614 299.772973 
L 139.035568 298.716602 
L 139.246036 297.771429 
L 139.330224 295.853282 
L 139.519646 294.713514 
L 139.351271 293.657143 
L 139.393365 292.600772 
L 140.172099 289.959846 
L 141.5191 286.429344 
L 142.150506 284.010811 
L 143.497507 281.036293 
L 144.802413 279.479537 
L 145.181257 278.673359 
L 145.938945 278.061776 
L 146.507211 277.227799 
L 147.328039 276.560618 
L 148.022586 275.726641 
L 150.148321 273.919691 
L 151.853119 272.86332 
L 153.768385 272.140541 
L 154.820729 271.834749 
L 155.915167 271.389961 
L 156.820183 270.833977 
L 157.998809 270.36139 
L 162.481795 267.859459 
L 163.849842 266.3861 
L 164.796952 265.579923 
L 165.323124 264.579151 
L 165.933483 263.967568 
L 167.133156 262.938996 
L 167.785609 261.882625 
L 168.52225 261.020849 
L 168.880047 260.020077 
L 169.764016 259.352896 
L 170.563798 257.657143 
L 172.037079 254.932819 
L 172.794767 254.015444 
L 173.889205 252.041699 
L 174.583752 251.235521 
L 174.878408 250.151351 
L 175.425627 249.233977 
L 175.846565 248.066409 
L 176.877862 246.037066 
L 177.319847 244.508108 
L 177.446128 243.451737 
L 178.498472 240.699614 
L 179.003597 238.809266 
L 179.466629 237.864093 
L 179.698145 236.807722 
L 180.666301 234.389189 
L 181.276661 233.249421 
L 182.202724 230.886486 
L 182.707849 229.969112 
L 183.086693 228.96834 
L 183.633912 227.856371 
L 184.265318 226.883398 
L 184.496834 225.827027 
L 185.696506 223.658687 
L 187.548632 219.461004 
L 188.116898 218.849421 
L 188.558882 217.820849 
L 189.169242 217.042471 
L 189.674367 216.180695 
L 190.011117 215.124324 
L 190.916133 214.262548 
L 192.010571 211.927413 
L 192.094758 210.982239 
L 193.378618 208.841699 
L 193.862697 207.785328 
L 199.04023 202.503475 
L 199.945246 201.502703 
L 200.934449 201.030116 
L 201.692137 200.251737 
L 202.34459 199.862548 
L 203.060184 199.250965 
L 203.670544 198.555985 
L 205.901513 196.637838 
L 206.86967 196.137452 
L 207.943061 195.748263 
L 208.805983 194.997683 
L 210.363452 193.913514 
L 211.100093 193.385328 
L 216.887986 190.327413 
L 217.793002 189.966023 
L 218.655924 189.827027 
L 219.581987 189.243243 
L 220.423862 188.881853 
L 222.12866 188.687259 
L 224.506957 187.408494 
L 225.70663 186.713514 
L 226.422224 186.074131 
L 228.169115 185.156757 
L 228.926803 184.545174 
L 232.168023 183.155212 
L 234.125383 183.127413 
L 235.051446 182.488031 
L 235.977508 182.126641 
L 236.735196 181.320463 
L 237.661259 180.569884 
L 238.503134 179.65251 
L 239.029306 178.735135 
L 239.786994 177.956757 
L 241.870636 175.176834 
L 243.806949 170.784556 
L 244.059511 169.811583 
L 244.690918 168.727413 
L 244.775105 167.75444 
L 245.069762 166.809266 
L 246.56409 163.779151 
L 247.153403 162.917375 
L 247.658528 161.583012 
L 248.752966 159.720463 
L 249.342279 159.053282 
L 250.226248 158.274903 
L 251.004983 157.357529 
L 251.42592 156.579151 
L 252.03628 155.856371 
L 253.004436 155.133591 
L 253.572702 154.410811 
L 254.140968 153.410039 
L 255.235406 152.63166 
L 258.666048 150.935907 
L 262.538674 148.962162 
L 264.285565 148.823166 
L 264.980113 148.32278 
L 266.221879 147.766795 
L 266.853285 146.988417 
L 267.716207 146.488031 
L 269.294724 145.932046 
L 273.946085 143.402317 
L 274.830054 143.040927 
L 275.46146 142.373745 
L 276.871601 141.48417 
L 278.639539 140.816988 
L 279.397227 140.177606 
L 280.260149 139.649421 
L 280.93365 138.982239 
L 282.301697 138.148263 
L 284.364291 136.230116 
L 284.595807 136.09112 
L 285.395589 135.340541 
L 286.910964 133.783784 
L 287.710746 133.227799 
L 288.363199 132.532819 
L 288.784137 131.75444 
L 289.43659 131.142857 
L 290.025903 130.197683 
L 291.267669 127.584556 
L 292.320013 125.916602 
L 293.182935 123.915058 
L 293.225029 122.886486 
L 294.256326 120.440154 
L 294.614123 117.799228 
L 294.340514 116.576062 
L 294.508889 112.739768 
L 294.319467 111.989189 
L 294.193186 110.960618 
L 293.561779 109.098069 
L 293.540732 108.236293 
L 292.362107 104.538996 
L 292.34106 103.427027 
L 291.520231 101.786873 
L 291.015106 101.091892 
L 290.825684 100.230116 
L 290.741497 99.312741 
L 289.983809 97.728185 
L 289.836481 96.866409 
L 289.941715 95.059459 
L 290.215325 94.169884 
L 290.194278 93.363707 
L 290.3837 91.334363 
L 290.341606 90.833977 
L 290.615216 88.832432 
L 290.299512 85.468726 
L 289.920668 83.661776 
L 289.647059 82.549807 
L 289.184028 81.660232 
L 289.015652 80.742857 
L 288.215871 78.963707 
L 287.647605 78.240927 
L 286.847824 76.934363 
L 285.585011 75.572201 
L 284.91151 75.071815 
L 283.56451 73.459459 
L 281.291447 71.513514 
L 280.428524 71.318919 
L 279.670837 71.013127 
L 278.913149 70.512741 
L 277.944992 70.123552 
L 276.997883 69.567568 
L 273.84085 68.955985 
L 272.872694 68.872587 
L 269.273677 67.705019 
L 268.326567 67.204633 
L 267.190035 66.871042 
L 266.200832 66.287259 
L 265.695707 65.342085 
L 263.675206 62.562162 
L 262.664956 60.088031 
L 261.865174 59.420849 
L 261.549471 58.225483 
L 260.833877 57.25251 
L 260.644455 56.307336 
L 260.602361 55.111969 
L 260.307705 53.972201 
L 259.970955 53.138224 
L 259.886767 51.247876 
L 259.781533 50.497297 
L 260.265611 46.938996 
L 261.991455 43.074903 
L 262.686002 41.796139 
L 263.7173 40.100386 
L 265.969316 37.959846 
L 267.989817 36.291892 
L 269.799849 35.235521 
L 270.662771 34.345946 
L 272.683272 33.317375 
L 273.714569 33.039382 
L 274.577491 32.483398 
L 275.566695 32.4 
L 276.682179 32.733591 
L 278.534305 33.956757 
L 279.733977 34.290347 
L 281.712384 35.26332 
L 282.848916 35.763707 
L 284.006494 36.125097 
L 285.606057 37.709653 
L 286.553167 37.487259 
L 287.563418 37.959846 
L 288.573668 37.959846 
L 289.373449 38.376834 
L 292.235825 38.849421 
L 294.214232 38.571429 
L 296.108452 38.849421 
L 297.729062 39.461004 
L 298.528843 39.683398 
L 300.065266 39.683398 
L 302.169954 40.016988 
L 303.243345 40.461776 
L 305.621643 40.767568 
L 306.484565 41.101158 
L 307.579003 41.295753 
L 309.788926 41.990734 
L 310.883363 42.074131 
L 311.598957 43.019305 
L 312.609208 43.2139 
L 314.48238 43.1861 
L 315.42949 42.935907 
L 316.397647 43.408494 
L 317.323709 43.714286 
L 318.165585 44.520463 
L 319.133741 44.937452 
L 319.828288 45.660232 
L 321.63832 46.994595 
L 322.374961 47.800772 
L 323.19579 48.301158 
L 324.416509 48.551351 
L 325.026868 49.246332 
L 325.910838 49.718919 
L 326.605385 50.441699 
L 327.552494 51.081081 
L 328.625885 51.609266 
L 329.257292 52.109653 
L 330.478011 52.832432 
L 331.446168 53.63861 
L 332.03548 54.528185 
L 332.708981 55.334363 
L 333.214106 56.112741 
L 334.034934 56.724324 
L 334.645294 57.5861 
L 336.013341 59.087259 
L 336.855216 59.532046 
L 338.118029 60.783012 
L 338.812577 61.755985 
L 339.528171 62.562162 
L 340.159577 63.562934 
L 341.401343 64.730502 
L 342.558922 65.17529 
L 343.295563 65.814672 
L 344.221625 68.455598 
L 344.810938 69.150579 
L 345.316063 70.20695 
L 345.568626 71.513514 
L 345.61072 72.681081 
L 345.421298 73.209266 
L 345.358157 74.237838 
L 344.895126 75.23861 
L 344.39 77.545946 
L 344.263719 78.630116 
L 344.39 79.519691 
L 343.463938 83.022394 
L 343.442891 83.300386 
L 342.811484 85.913514 
L 342.180078 87.10888 
L 341.653906 88.359846 
L 341.190874 89.138224 
L 340.117483 90.583784 
L 339.528171 91.751351 
L 339.317702 92.807722 
L 338.096983 95.671042 
L 337.044638 97.366795 
L 336.939404 98.256371 
L 335.339841 100.480309 
L 334.687388 102.092664 
L 332.919449 104.205405 
L 332.624793 105.233977 
L 331.656636 106.429344 
L 330.772667 107.179923 
L 330.120214 108.0139 
L 327.720869 110.404633 
L 326.50015 112.100386 
L 325.868744 112.739768 
L 325.321525 113.573745 
L 325.005822 114.435521 
L 324.121853 115.603089 
L 322.459149 117.243243 
L 321.617274 118.549807 
L 319.95457 120.134363 
L 319.365257 120.96834 
L 317.702553 123.998456 
L 317.239522 124.804633 
L 317.0501 125.666409 
L 316.629162 126.416988 
L 315.997756 128.335135 
L 315.913568 129.335907 
L 315.976709 130.30888 
L 315.913568 132.560618 
L 315.997756 134.756757 
L 316.208225 136.118919 
L 316.692303 137.203089 
L 316.923819 138.370656 
L 317.38685 139.371429 
L 318.039303 140.177606 
L 319.154788 142.20695 
L 320.585976 143.902703 
L 321.364711 144.430888 
L 322.143446 144.73668 
L 322.85904 145.737452 
L 323.553587 146.293436 
L 324.374415 146.682625 
L 325.342572 146.87722 
L 326.226541 147.266409 
L 327.089463 147.210811 
L 330.625339 146.15444 
L 331.340933 145.737452 
L 333.950747 144.875676 
L 335.508216 143.513514 
L 336.350091 143.124324 
L 337.191967 142.596139 
L 337.865467 141.956757 
L 338.85467 141.261776 
L 341.653906 138.509653 
L 345.989563 136.674903 
L 346.599923 136.09112 
L 347.483892 135.451737 
L 348.24158 135.201544 
L 351.419659 134.728958 
L 352.408863 134.228571 
L 353.377019 134.117375 
L 355.376473 134.339768 
L 355.73427 134.450965 
L 356.597192 134.228571 
L 357.35488 134.478764 
L 357.96524 135.173745 
L 358.63874 135.674131 
L 359.31224 136.369112 
L 360.238303 137.119691 
L 360.532959 137.50888 
L 361.164366 137.953668 
L 362.911257 139.788417 
L 363.248007 140.566795 
L 363.711039 141.345174 
L 364.994898 143.040927 
L 365.163273 144.180695 
L 364.300351 147.877992 
L 363.437429 149.379151 
L 363.079632 150.074131 
L 362.027288 151.158301 
L 360.175162 152.603861 
L 357.523255 154.8 
L 353.692722 156.523552 
L 351.419659 157.746718 
L 351.040815 158.02471 
L 349.925331 158.525097 
L 348.431002 159.581467 
L 347.652267 160.276448 
L 346.62097 160.971429 
L 345.231876 162.583784 
L 344.958266 162.889575 
L 343.484984 163.779151 
L 343.085094 164.418533 
L 342.495781 164.918919 
L 341.674953 165.335907 
L 340.47528 166.503475 
L 339.044092 167.921236 
L 338.433733 168.644015 
L 337.865467 169.505792 
L 335.908107 171.451737 
L 335.676591 172.396911 
L 335.108325 173.230888 
L 334.87681 174.176062 
L 333.824465 176.316602 
L 333.59295 177.289575 
L 332.751074 179.179923 
L 332.666887 180.125097 
L 332.351184 181.292664 
L 332.393277 183.461004 
L 331.951293 185.379151 
L 331.951293 186.185328 
L 331.63559 187.408494 
L 331.593496 188.298069 
L 331.235699 189.187645 
L 331.214652 190.188417 
L 330.814761 191.967568 
L 330.814761 193.023938 
L 330.499058 194.77529 
L 330.204402 195.720463 
L 330.141261 196.693436 
L 329.615089 199.334363 
L 329.572995 200.279537 
L 329.383573 201.113514 
L 329.194151 203.643243 
L 329.194151 204.532819 
L 328.73112 206.534363 
L 328.499604 207.785328 
L 328.141807 208.952896 
L 327.931338 210.259459 
L 327.889244 211.288031 
L 327.384119 213.567568 
L 327.489354 214.457143 
L 327.847151 215.124324 
L 327.847151 215.569112 
L 328.162854 218.293436 
L 328.099713 219.266409 
L 328.310182 220.267181 
L 328.099713 221.156757 
L 328.373323 223.019305 
L 328.667979 223.853282 
L 328.878448 224.881853 
L 329.257292 225.660232 
L 329.488808 226.494208 
L 329.425667 228.356757 
L 329.446714 229.32973 
L 329.236245 230.219305 
L 329.425667 231.10888 
L 328.79426 234.055598 
L 328.268088 234.945174 
L 327.78401 236.585328 
L 326.731666 238.030888 
L 326.415963 239.142857 
L 323.911384 241.92278 
L 323.322071 242.756757 
L 321.975071 243.952124 
L 321.554133 244.674903 
L 320.228179 245.786873 
L 319.807242 246.843243 
L 319.070601 247.399228 
L 318.418147 248.094208 
L 317.976163 249.039382 
L 317.365803 249.539768 
L 315.955662 251.124324 
L 314.545521 252.264093 
L 314.08249 252.931274 
L 310.862317 256.32278 
L 310.104629 256.906564 
L 309.304847 257.240154 
L 306.716081 260.659459 
L 301.980532 266.135907 
L 301.475407 266.914286 
L 299.644328 268.971429 
L 298.655125 270.472587 
L 297.981624 272.029344 
L 296.655671 273.697297 
L 296.192639 274.559073 
L 295.498092 275.448649 
L 294.151092 276.810811 
L 293.28817 277.839382 
L 292.783044 278.756757 
L 289.857528 282.982239 
L 289.604965 283.927413 
L 288.615762 285.511969 
L 288.342152 286.373745 
L 286.721542 289.264865 
L 285.816526 290.905019 
L 284.343245 293.518147 
L 283.753932 294.352124 
L 283.543463 295.519691 
L 281.228306 299.494981 
L 281.080978 300.495753 
L 280.32329 301.802317 
L 280.302243 302.77529 
L 279.902352 303.776062 
L 279.691883 304.721236 
L 279.628743 306.583784 
L 278.934196 310.197683 
L 279.081524 311.003861 
L 278.934196 311.865637 
L 279.165711 313.728185 
L 279.060477 314.673359 
L 279.481415 316.480309 
L 279.818165 317.592278 
L 280.154915 318.009266 
L 280.407477 318.787645 
L 280.828415 319.538224 
L 281.102025 320.483398 
L 281.480869 321.150579 
L 281.796572 322.20695 
L 283.985448 324.820077 
L 284.57476 326.432432 
L 285.479776 327.905792 
L 286.048042 328.517375 
L 287.584464 331.714286 
L 287.605511 332.075676 
L 288.026449 332.881853 
L 288.215871 333.71583 
L 289.036699 335.745174 
L 289.499731 336.579151 
L 289.689153 339.47027 
L 289.983809 340.387645 
L 290.152184 342.972973 
L 290.067997 346.781467 
L 289.415543 348.588417 
L 288.510527 351.229344 
L 288.468434 352.146718 
L 288.047496 352.980695 
L 287.773886 353.814672 
L 287.794933 354.59305 
L 287.373996 355.482625 
L 287.352949 356.677992 
L 287.016199 358.262548 
L 287.184574 360.458687 
L 286.974105 361.264865 
L 286.995152 362.098842 
L 286.847824 363.099614 
L 286.995152 364.072587 
L 286.953058 365.073359 
L 286.637355 366.101931 
L 286.658402 367.130502 
L 286.46898 368.742857 
L 286.616308 369.604633 
L 286.595261 371.772973 
L 287.016199 372.662548 
L 286.847824 373.440927 
L 286.511073 374.274903 
L 286.637355 375.025483 
L 286.511073 376.026255 
L 286.595261 376.804633 
L 286.426886 378.750579 
L 286.637355 383.115058 
L 285.774433 386.951351 
L 285.542917 388.230116 
L 284.658948 390.148263 
L 284.722088 391.176834 
L 282.322744 396.569884 
L 281.396681 397.987645 
L 281.186212 398.793822 
L 279.776071 401.295753 
L 279.081524 402.963707 
L 278.681633 403.992278 
L 278.408024 404.381467 
L 277.839758 405.410039 
L 277.587195 406.244015 
L 276.955789 406.938996 
L 276.13496 410.080309 
L 275.503554 410.77529 
L 274.977382 411.720463 
L 274.830054 412.637838 
L 272.662225 417.169112 
L 272.620131 418.197683 
L 272.136053 418.837066 
L 271.715115 419.810039 
L 271.378365 421.005405 
L 270.557536 421.811583 
L 270.157646 422.840154 
L 269.631474 423.674131 
L 268.768551 424.174517 
L 268.179239 425.286486 
L 267.779348 425.759073 
L 266.474441 427.871815 
L 266.327113 428.344402 
L 265.800941 429.261776 
L 265.485238 430.179151 
L 264.622316 431.179923 
L 263.948815 432.319691 
L 263.591018 433.209266 
L 262.49658 434.599228 
L 262.033549 435.433205 
L 261.275861 436.155985 
L 260.833877 436.767568 
L 260.728642 437.684942 
L 259.465829 439.130502 
L 258.813376 439.964479 
L 258.203016 440.937452 
L 257.782079 441.910425 
L 256.392985 443.494981 
L 256.266703 444.24556 
L 255.445875 445.885714 
L 255.045984 447.025483 
L 254.414578 447.83166 
L 253.99364 448.888031 
L 253.509562 449.63861 
L 252.793968 450.389189 
L 252.520358 451.306564 
L 251.468014 452.779923 
L 251.194405 454.003089 
L 250.710326 454.892664 
L 249.80531 455.976834 
L 249.46856 456.949807 
L 249.068669 457.700386 
L 248.437263 458.478764 
L 248.142607 459.562934 
L 247.553294 460.09112 
L 247.006075 460.980695 
L 246.648278 462.120463 
L 245.869543 463.593822 
L 245.701168 464.844788 
L 245.111855 465.511969 
L 243.827996 468.291892 
L 243.428105 469.153668 
L 242.775652 469.904247 
L 242.31262 470.960618 
L 241.765401 471.794595 
L 241.155042 472.211583 
L 240.565729 472.795367 
L 240.334213 473.907336 
L 239.050353 475.380695 
L 238.839884 476.409266 
L 238.040103 478.07722 
L 237.534978 478.911197 
L 236.377399 480.078764 
L 235.472383 481.830116 
L 235.219821 482.803089 
L 234.462133 484.304247 
L 234.251664 485.221622 
L 233.830726 486.027799 
L 233.493976 486.945174 
L 232.357445 488.613127 
L 231.978601 489.697297 
L 230.715788 491.170656 
L 229.34774 494.617761 
L 227.32724 497.703475 
L 226.906302 498.815444 
L 226.801068 499.705019 
L 226.485364 500.511197 
L 226.022333 501.345174 
L 225.748724 502.20695 
L 224.780567 503.819305 
L 223.349379 507.711197 
L 222.170754 509.462548 
L 221.623535 510.352124 
L 220.928987 511.074903 
L 218.634877 516.356757 
L 218.445455 517.190734 
L 216.214486 521.527413 
L 216.046111 522.667181 
L 214.509688 525.419305 
L 213.815141 526.114286 
L 213.35211 526.837066 
L 212.74175 527.476448 
L 211.878828 528.060232 
L 211.373703 529.227799 
L 208.090389 531.090347 
L 206.511873 532.591506 
L 205.522669 532.980695 
L 204.659747 533.620077 
L 203.607403 533.592278 
L 202.534012 533.981467 
L 201.776324 533.842471 
L 199.587449 533.703475 
L 198.808714 533.786873 
L 195.946338 533.425483 
L 193.652228 533.731274 
L 192.89454 533.425483 
L 192.052665 532.869498 
L 190.221586 532.897297 
L 188.30632 532.285714 
L 186.790944 531.757529 
L 186.012209 531.72973 
L 185.023006 531.396139 
L 183.423443 531.229344 
L 181.402942 531.562934 
L 180.455832 531.118147 
L 178.140675 530.339768 
L 177.193566 530.339768 
L 176.267503 530.006178 
L 175.236205 529.92278 
L 173.152564 530.478764 
L 172.184408 530.589961 
L 171.237298 531.034749 
L 170.058672 530.840154 
L 168.269687 531.757529 
L 167.259437 531.868726 
L 166.354421 532.174517 
L 164.249733 532.591506 
L 163.428904 532.396911 
L 162.355513 532.42471 
L 160.524435 533.592278 
L 159.47209 534.259459 
L 157.78834 534.620849 
L 156.735996 534.509653 
L 155.704698 534.759846 
L 154.694448 535.149035 
L 153.894667 535.649421 
L 152.379291 536.122008 
L 151.347994 536.4 
L 150.569259 536.03861 
L 150.043087 535.482625 
L 149.34854 535.121236 
L 148.548758 534.871042 
L 148.085727 534.176062 
L 147.222805 533.759073 
L 143.81321 533.14749 
L 143.118663 532.702703 
L 142.382022 532.42471 
L 140.361521 532.257915 
L 139.393365 532.369112 
L 138.362067 532.118919 
L 136.615176 531.340541 
L 135.794348 531.201544 
L 135.057707 530.951351 
L 134.131644 530.840154 
L 133.458144 530.423166 
L 131.879627 529.755985 
L 131.12194 529.255598 
L 130.216924 529.088803 
L 129.480283 528.699614 
L 127.480829 527.226255 
L 125.754985 526.614672 
L 124.36589 525.752896 
L 123.481921 525.752896 
L 121.461421 524.86332 
L 120.535358 522.36139 
L 119.483014 520.999228 
L 119.083123 520.137452 
L 118.514857 519.525869 
L 118.367529 518.552896 
L 117.82031 517.524324 
L 117.252044 516.718147 
L 116.8732 515.856371 
L 116.304934 514.994595 
L 115.757715 513.410039 
L 115.084215 512.687259 
L 114.24234 511.436293 
L 113.610933 510.685714 
L 113.063714 509.851737 
L 112.453355 509.128958 
L 110.769604 508.239382 
L 109.99087 507.488803 
L 109.085854 507.016216 
L 108.622822 506.15444 
L 107.654666 505.709653 
L 104.308211 504.73668 
L 102.813883 504.152896 
L 101.95096 504.097297 
L 99.951507 503.541313 
L 98.836022 503.124324 
L 97.9731 502.92973 
L 96.857615 503.096525 
L 96.07888 502.707336 
L 95.06863 502.429344 
L 94.752927 502.179151 
L 93.847911 502.234749 
L 92.585098 502.56834 
L 90.775066 502.290347 
L 89.449112 501.067181 
L 88.502003 501.623166 
L 87.30233 501.928958 
L 86.460455 502.012355 
L 85.450205 502.234749 
L 84.692517 501.873359 
L 82.882485 501.317375 
L 82.145844 501.039382 
L 81.156641 500.928185 
L 79.536031 499.816216 
L 77.683905 499.566023 
L 76.715748 499.121236 
L 75.789685 499.260232 
L 74.316404 498.370656 
L 73.221966 497.592278 
L 72.590559 496.8139 
L 71.685543 496.118919 
L 70.822621 495.757529 
L 69.74923 494.395367 
L 68.233855 492.755212 
L 67.476167 491.337452 
L 67.476167 490.559073 
L 66.381729 488.223938 
L 65.666135 482.830888 
L 64.803213 479.022394 
L 63.814009 477.187645 
L 63.5404 476.186873 
L 63.077368 475.325097 
L 61.625134 473.76834 
L 60.614883 473.267954 
L 60.109758 472.350579 
L 59.436258 471.544402 
L 58.636476 470.988417 
L 58.047164 470.237838 
L 57.163194 469.737452 
L 56.552835 468.903475 
L 55.247928 467.430116 
L 54.658615 466.540541 
L 54.279772 465.623166 
L 52.217177 464.261004 
L 51.333208 463.566023 
L 50.344005 463.037838 
L 49.312707 462.759846 
L 48.449785 462.676448 
L 44.261455 462.704247 
L 42.493517 462.759846 
L 40.620345 462.843243 
L 38.83136 463.260232 
L 36.979234 463.871815 
L 36.53725 464.094208 
L 35.442812 464.066409 
L 34.432561 463.67722 
L 32.896139 461.258687 
L 32.34892 460.313514 
L 28.918278 456.810811 
L 28.076403 456.227027 
L 27.571278 455.615444 
L 26.624168 454.892664 
L 26.624168 454.892664 
" style="fill:none;stroke:#000000;stroke-width:3;"/>
   </g>
  </g>
 </g>
 <defs>
  <clipPath id="pa151bacd14">
   <rect height="554.4" width="375.009144" x="7.2" y="7.2"/>
  </clipPath>
 </defs>
</svg>
