<?xml version="1.0" encoding="utf-8" standalone="no"?>
<!DOCTYPE svg PUBLIC "-//W3C//DTD SVG 1.1//EN"
  "http://www.w3.org/Graphics/SVG/1.1/DTD/svg11.dtd">
<svg height="568.8pt" version="1.1" viewBox="0 0 546.175796 568.8" width="546.175796pt" xmlns="http://www.w3.org/2000/svg" xmlns:xlink="http://www.w3.org/1999/xlink">
 <metadata>
  <rdf:RDF xmlns:cc="http://creativecommons.org/ns#" xmlns:dc="http://purl.org/dc/elements/1.1/" xmlns:rdf="http://www.w3.org/1999/02/22-rdf-syntax-ns#">
   <cc:Work>
    <dc:type rdf:resource="http://purl.org/dc/dcmitype/StillImage"/>
    <dc:date>2021-09-04T01:57:40.895859</dc:date>
    <dc:format>image/svg+xml</dc:format>
    <dc:creator>
     <cc:Agent>
      <dc:title>Matplotlib v3.4.3, https://matplotlib.org/</dc:title>
     </cc:Agent>
    </dc:creator>
   </cc:Work>
  </rdf:RDF>
 </metadata>
 <defs>
  <style type="text/css">*{stroke-linecap:butt;stroke-linejoin:round;}</style>
 </defs>
 <g id="figure_1">
  <g id="patch_1">
   <path d="M 0 568.8 
L 546.175796 568.8 
L 546.175796 0 
L 0 0 
z
" style="fill:#ffffff;"/>
  </g>
  <g id="axes_1">
   <g id="LineCollection_1">
    <path clip-path="url(#p758244c25f)" d="M 514.804169 108.094681 
L 513.634452 106.00174 
L 511.898744 105.104766 
L 509.257448 109.190983 
L 507.899068 110.885268 
L 506.352023 111.682579 
L 505.182306 111.98157 
L 503.786193 110.885268 
L 502.578744 109.63947 
L 499.597853 105.652917 
L 496.013238 100.370734 
L 492.428622 97.879138 
L 489.56093 96.683172 
L 485.297125 97.779474 
L 481.938906 97.031995 
L 477.637368 98.078465 
L 474.543279 100.470397 
L 471.675586 104.95527 
L 469.977611 107.646193 
L 470.732267 110.885268 
L 467.562712 116.815266 
L 461.789595 115.6193 
L 459.261498 117.9614 
L 457.865384 120.253668 
L 456.167409 123.891398 
L 454.129838 127.030809 
L 448.62085 136.498873 
L 447.375668 139.488788 
L 443.715587 144.322484 
L 442.847733 146.614752 
L 441.451619 148.90702 
L 440.281903 151.049792 
L 436.848219 156.232312 
L 432.282551 165.002729 
L 430.395911 167.743484 
L 429.414858 170.733399 
L 427.452753 173.573818 
L 426.433968 176.414238 
L 422.849353 179.952304 
L 421.226842 182.045244 
L 420.547652 184.586672 
L 418.849676 187.377259 
L 417.378098 190.217678 
L 416.623442 193.606249 
L 415.491458 196.097845 
L 414.019879 198.738936 
L 413.001094 201.679019 
L 411.680446 204.519438 
L 410.2466 207.16053 
L 407.378907 210.748428 
L 406.586519 211.994226 
L 405.228138 213.190192 
L 402.964171 214.784813 
L 401.417126 216.927586 
L 398.058908 222.409096 
L 396.662794 225.548507 
L 394.662956 228.189599 
L 391.229272 234.46842 
L 388.323847 240.44825 
L 387.191863 243.637493 
L 384.663766 247.125727 
L 383.22992 250.464465 
L 381.192349 253.952699 
L 379.645305 257.141942 
L 378.060527 260.082025 
L 377.004009 263.370931 
L 375.758827 266.759502 
L 373.570325 270.197904 
L 368.09907 276.875381 
L 366.287896 280.263951 
L 364.891783 284.101009 
L 362.665548 287.639075 
L 361.873159 290.878149 
L 359.72239 294.01756 
L 357.798018 297.854617 
L 355.949111 300.894364 
L 354.439799 304.233103 
L 352.175832 307.372513 
L 350.100528 310.860747 
L 348.77988 314.697805 
L 346.817775 318.883686 
L 346.327249 322.222424 
L 344.59154 325.411667 
L 342.138909 328.650742 
L 339.799476 332.388135 
L 335.309273 338.816452 
L 334.101824 342.803006 
L 331.535994 346.789559 
L 328.7815 349.629978 
L 326.442067 352.769389 
L 320.857614 362.486613 
L 316.631541 369.762072 
L 314.480772 373.300138 
L 310.594294 380.974254 
L 308.669921 383.366185 
L 304.406116 390.840973 
L 302.368545 394.179711 
L 300.557371 397.418786 
L 298.067007 401.006684 
L 291.992027 411.57105 
L 290.558181 415.258612 
L 289.46393 419.344829 
L 287.84142 422.982559 
L 285.95478 426.022306 
L 284.143606 429.909195 
L 281.502311 433.14827 
L 277.766764 439.476923 
L 276.181987 443.214317 
L 274.370813 446.802215 
L 270.40887 453.728851 
L 268.2581 457.067589 
L 266.824254 460.157168 
L 265.730003 463.446075 
L 261.76806 473.561954 
L 259.956886 476.751196 
L 257.84385 479.641447 
L 255.089356 486.966739 
L 253.580044 490.006486 
L 252.561259 492.946569 
L 250.938748 494.939846 
L 249.165307 498.079256 
L 247.505064 502.514297 
L 244.901502 505.554044 
L 239.166117 511.733202 
L 236.939882 514.723116 
L 235.241907 517.613368 
L 233.619397 520.852442 
L 232.261016 524.041685 
L 230.713972 527.380423 
L 226.978425 533.160925 
L 224.865389 535.253866 
L 222.676887 536.4 
L 221.884498 535.004706 
L 219.771462 533.559581 
L 216.63964 532.662606 
L 213.319154 531.516472 
L 210.526927 529.323868 
L 207.621502 528.07807 
L 204.980207 527.131264 
L 202.527575 524.888827 
L 199.62215 522.945383 
L 196.867656 520.403955 
L 191.132272 516.218074 
L 186.604337 515.121772 
L 178.869114 510.587067 
L 175.661827 508.344631 
L 172.718669 505.603876 
L 169.247252 503.909591 
L 166.190896 502.265137 
L 163.587333 499.972869 
L 161.096969 498.079256 
L 158.342475 495.687325 
L 155.814378 494.840182 
L 152.493892 492.946569 
L 148.456483 492.099427 
L 143.098427 492.946569 
L 139.438346 492.597746 
L 135.514135 492.647578 
L 131.325795 492.248922 
L 127.552516 491.003124 
L 126.760127 489.757326 
L 124.005633 488.362033 
L 123.213245 484.176152 
L 121.854864 480.388926 
L 122.986848 477.399011 
L 123.590573 473.113466 
L 124.194297 469.625232 
L 125.514945 466.485822 
L 126.495998 462.748428 
L 128.571301 457.8649 
L 129.061828 455.423136 
L 128.835431 453.380028 
L 127.326119 451.386751 
L 125.665876 449.642634 
L 124.23203 448.795491 
L 123.892435 448.4965 
L 122.722718 446.951711 
L 121.968063 446.204232 
L 117.213731 442.217678 
L 114.91203 440.822385 
L 111.365148 437.383983 
L 109.516241 436.437176 
L 108.006929 434.842555 
L 106.195755 431.703144 
L 102.648873 429.410876 
L 98.837861 427.218272 
L 95.253245 424.328021 
L 91.630897 422.683567 
L 84.423934 419.992644 
L 81.292112 418.049199 
L 78.311221 416.055922 
L 75.443529 414.810125 
L 72.198509 413.115839 
L 68.236566 411.272059 
L 65.180209 409.328614 
L 60.199481 407.285505 
L 57.48272 405.491556 
L 54.65276 404.345422 
L 52.652922 402.750801 
L 50.917214 401.554835 
L 48.313651 398.714416 
L 46.313813 396.272652 
L 44.502639 394.92719 
L 43.257457 395.17635 
L 43.71025 395.425509 
L 43.483854 395.97366 
L 43.219724 396.023492 
L 43.747983 395.624837 
L 43.97438 396.422148 
L 42.955594 397.219458 
L 42.804663 397.966937 
L 42.842396 398.365592 
L 42.163206 398.116433 
L 42.125473 399.412062 
L 41.936809 399.013407 
L 42.012275 399.063239 
L 40.955756 399.661222 
L 41.748145 398.714416 
L 41.597214 397.817441 
L 40.993489 398.515088 
L 39.52191 399.212735 
L 39.52191 399.661222 
L 38.84272 398.814079 
L 35.899562 395.076686 
L 35.409036 395.026854 
L 35.484501 394.379039 
L 35.409036 393.930552 
L 35.635433 393.88072 
L 34.729846 392.983745 
L 34.616647 393.083409 
L 35.031708 392.83425 
L 34.993975 392.884081 
L 35.069441 392.83425 
L 35.522234 392.734586 
L 35.748631 393.482064 
L 36.654218 394.528535 
L 36.578752 395.226182 
L 36.012761 394.080047 
L 35.786364 393.88072 
L 36.012761 394.229543 
L 35.446769 393.781056 
L 35.220372 393.332569 
L 34.993975 393.382401 
L 35.144906 393.432233 
L 35.446769 392.983745 
L 36.503287 393.482064 
L 37.031546 393.531896 
L 36.465554 394.379039 
L 37.107012 395.624837 
L 37.107012 396.272652 
L 36.767416 396.172988 
L 36.767416 395.425509 
L 36.54102 394.877358 
L 36.352356 394.92719 
L 36.465554 394.977022 
L 38.389927 395.674669 
L 36.503287 393.930552 
L 35.295838 393.083409 
L 32.465878 392.33593 
L 31.673489 391.189796 
L 31.371627 389.445679 
L 31.371627 386.904252 
L 31.899886 385.508958 
L 34.390251 382.220051 
L 34.465716 378.582322 
L 36.239157 376.489381 
L 38.012599 374.795096 
L 40.842558 369.562745 
L 41.597214 368.366779 
L 42.993327 367.469804 
L 43.861181 365.02804 
L 45.634623 363.234091 
L 45.974218 360.443504 
L 48.540048 358.749219 
L 51.143611 356.506783 
L 53.558509 355.809136 
L 55.030088 355.161321 
L 56.5394 354.214515 
L 59.142963 349.92897 
L 63.633165 343.251493 
L 62.991707 343.151829 
L 64.501019 338.318133 
L 63.067173 336.67368 
L 64.123691 335.278386 
L 64.91608 333.28511 
L 65.029278 329.697212 
L 65.293408 328.002927 
L 65.821667 326.408305 
L 67.48191 322.62108 
L 69.481748 318.883686 
L 71.368387 315.694443 
L 73.29276 313.701167 
L 74.085149 310.611588 
L 76.80191 304.781254 
L 78.348954 302.040498 
L 79.669602 299.349575 
L 81.744905 296.708483 
L 82.990088 293.419577 
L 84.008873 289.831679 
L 85.480452 287.090923 
L 87.178428 284.449832 
L 89.970654 282.805379 
L 92.083691 280.214119 
L 92.083691 277.473364 
L 93.593002 274.533281 
L 94.762719 271.294206 
L 97.102152 268.254459 
L 98.724662 264.168242 
L 100.347172 260.779672 
L 101.705553 257.490765 
L 103.629925 254.401186 
L 107.554136 248.820012 
L 111.516079 239.750603 
L 113.515917 237.159343 
L 115.628953 234.617916 
L 116.874136 231.179514 
L 118.647577 228.23943 
L 120.836079 225.399011 
L 122.269925 222.658256 
L 124.647091 220.266324 
L 125.17535 217.027249 
L 126.684662 215.2333 
L 127.892111 212.392881 
L 129.401423 209.303302 
L 130.835269 206.11406 
L 135.514135 197.443306 
L 136.947981 194.503223 
L 138.68369 191.911964 
L 140.230734 188.573225 
L 141.438184 185.533478 
L 142.494702 182.394068 
L 144.570006 179.703144 
L 146.607576 177.26138 
L 149.324337 171.431046 
L 150.946848 169.487601 
L 152.418426 166.447854 
L 152.758022 166.348191 
L 152.720289 165.999367 
L 153.286281 165.600712 
L 154.078669 165.501048 
L 153.739074 165.351552 
L 153.701341 165.650544 
L 154.040937 165.80004 
L 153.890005 166.198695 
L 154.418264 166.497686 
L 154.984256 166.497686 
L 156.493568 166.746846 
L 157.021827 166.996006 
L 158.078345 167.942812 
L 159.738588 168.540795 
L 161.398831 168.241803 
L 162.87041 167.394661 
L 165.17211 166.647182 
L 167.05875 166.996006 
L 169.171786 166.148863 
L 172.001746 166.746846 
L 174.039317 167.843148 
L 176.831543 168.789955 
L 178.793649 170.48424 
L 181.057616 171.381214 
L 183.095187 172.477516 
L 184.07624 173.175163 
L 185.811948 174.12197 
L 187.585389 175.218272 
L 189.660693 176.264742 
L 191.320936 177.610204 
L 193.396239 180.350959 
L 193.962231 181.596757 
L 195.207413 183.340874 
L 196.716725 184.138185 
L 200.527737 185.234487 
L 202.904903 186.181293 
L 205.848061 187.227763 
L 208.678021 188.822385 
L 211.77211 189.619695 
L 213.960611 190.715998 
L 216.149113 191.961796 
L 221.356239 195.45003 
L 223.733405 197.642634 
L 225.204984 199.635911 
L 225.544579 201.1807 
L 228.676401 202.376666 
L 230.374376 205.516077 
L 233.204336 207.110698 
L 236.90215 208.854815 
L 240.222635 211.59557 
L 243.278992 213.14036 
L 253.278182 215.930947 
L 256.183607 215.73162 
L 258.334376 216.030611 
L 260.296481 213.539015 
L 262.44725 211.495907 
L 264.032028 209.402966 
L 266.560125 206.562547 
L 268.597695 204.519438 
L 270.861663 201.878347 
L 272.597372 199.536247 
L 274.295347 196.695828 
L 276.21972 194.503223 
L 277.276238 193.058098 
L 277.955428 190.76583 
L 279.20061 189.22104 
L 279.917533 185.932134 
L 281.653242 183.689697 
L 283.539881 180.350959 
L 285.049193 176.763061 
L 287.803687 174.470793 
L 291.275104 168.839786 
L 293.161744 166.198695 
L 294.444659 163.507771 
L 294.972918 161.215503 
L 296.255833 158.923235 
L 297.350084 156.630967 
L 299.274456 153.940044 
L 300.557371 151.298952 
L 302.632675 145.717777 
L 304.443849 143.026854 
L 305.764496 140.784418 
L 308.179395 136.299545 
L 310.367897 133.957445 
L 311.650812 131.465849 
L 311.914942 129.422741 
L 315.27316 124.589045 
L 316.518342 121.798458 
L 318.027654 119.306862 
L 319.536966 117.463081 
L 320.819881 115.270477 
L 321.687735 112.579553 
L 324.442229 106.848883 
L 325.461014 104.70611 
L 327.309921 101.815859 
L 329.083362 98.676448 
L 330.215346 96.085189 
L 332.177451 92.895946 
L 333.686763 89.955863 
L 334.705549 86.916116 
L 335.347006 84.025865 
L 337.460042 82.780067 
L 339.384415 79.889816 
L 341.459718 77.298556 
L 342.28984 74.806961 
L 343.497289 72.066205 
L 345.459394 69.07629 
L 347.647896 66.435199 
L 350.40239 64.093099 
L 351.873969 61.103184 
L 353.91154 58.312596 
L 355.609516 55.223018 
L 358.401742 49.243188 
L 359.269597 46.203441 
L 360.477046 43.263358 
L 362.665548 40.47277 
L 363.571135 37.632351 
L 364.665386 34.99126 
L 365.608706 33.546134 
L 367.118018 32.499664 
L 367.910406 32.4 
L 368.702795 33.745462 
L 369.344252 33.795294 
L 370.627167 33.296974 
L 372.740204 33.645798 
L 375.419232 33.845126 
L 377.192673 34.393277 
L 378.815183 34.642436 
L 380.815021 35.140755 
L 382.324333 35.987898 
L 384.17324 37.831679 
L 386.437207 38.080838 
L 389.531296 39.027645 
L 392.248058 40.97109 
L 394.285628 46.751592 
L 397.115588 47.598734 
L 398.6249 48.246549 
L 400.700203 51.485624 
L 404.020689 54.027052 
L 406.209191 55.27285 
L 407.643037 56.369152 
L 412.699231 56.618311 
L 414.963199 56.917303 
L 417.529029 57.515286 
L 419.491134 57.814277 
L 423.000284 59.060075 
L 423.981336 60.256041 
L 428.320607 62.996797 
L 429.037531 63.544948 
L 431.641093 64.441922 
L 433.565466 65.239233 
L 434.923846 67.282341 
L 436.508624 69.07629 
L 438.848057 72.016373 
L 442.244008 74.00965 
L 444.998502 74.757129 
L 446.696478 74.657465 
L 448.734048 73.909986 
L 450.167895 74.856793 
L 453.601579 76.35175 
L 456.846599 78.295195 
L 459.865222 81.28511 
L 463.48757 82.08242 
L 466.31753 83.228554 
L 468.543765 84.773344 
L 472.883036 88.660233 
L 475.147003 90.055527 
L 476.392186 91.749812 
L 477.146841 93.942416 
L 478.542955 96.184853 
L 480.920121 97.430651 
L 484.240606 99.872414 
L 486.504574 101.267708 
L 488.88174 101.965355 
L 490.617448 101.915523 
L 492.617286 102.563338 
L 495.749108 102.961993 
L 497.484817 103.709472 
L 498.654533 102.961993 
L 499.069594 102.413842 
L 501.937286 101.965355 
L 502.541011 102.065019 
L 502.993804 102.413842 
L 502.956072 102.61317 
L 502.956072 102.61317 
" style="fill:none;stroke:#000000;stroke-width:3;"/>
   </g>
  </g>
 </g>
 <defs>
  <clipPath id="p758244c25f">
   <rect height="554.4" width="531.775796" x="7.2" y="7.2"/>
  </clipPath>
 </defs>
</svg>
