<?xml version="1.0" encoding="utf-8" standalone="no"?>
<!DOCTYPE svg PUBLIC "-//W3C//DTD SVG 1.1//EN"
  "http://www.w3.org/Graphics/SVG/1.1/DTD/svg11.dtd">
<svg height="568.8pt" version="1.1" viewBox="0 0 310.350803 568.8" width="310.350803pt" xmlns="http://www.w3.org/2000/svg" xmlns:xlink="http://www.w3.org/1999/xlink">
 <metadata>
  <rdf:RDF xmlns:cc="http://creativecommons.org/ns#" xmlns:dc="http://purl.org/dc/elements/1.1/" xmlns:rdf="http://www.w3.org/1999/02/22-rdf-syntax-ns#">
   <cc:Work>
    <dc:type rdf:resource="http://purl.org/dc/dcmitype/StillImage"/>
    <dc:date>2021-09-11T01:55:41.642384</dc:date>
    <dc:format>image/svg+xml</dc:format>
    <dc:creator>
     <cc:Agent>
      <dc:title>Matplotlib v3.4.3, https://matplotlib.org/</dc:title>
     </cc:Agent>
    </dc:creator>
   </cc:Work>
  </rdf:RDF>
 </metadata>
 <defs>
  <style type="text/css">*{stroke-linecap:butt;stroke-linejoin:round;}</style>
 </defs>
 <g id="figure_1">
  <g id="patch_1">
   <path d="M 0 568.8 
L 310.350803 568.8 
L 310.350803 0 
L 0 0 
z
" style="fill:#ffffff;"/>
  </g>
  <g id="axes_1">
   <g id="LineCollection_1">
    <path clip-path="url(#p0b0226db53)" d="M 183.446114 140.615641 
L 183.190769 140.493043 
L 182.981851 140.554342 
L 183.092113 140.393432 
L 183.242999 140.35512 
L 183.405491 140.362783 
L 185.483067 140.523693 
L 187.20084 142.102141 
L 187.763759 142.623182 
L 188.274448 142.799416 
L 188.703892 142.784091 
L 188.8954 143.075261 
L 189.237794 143.366432 
L 192.011765 144.814619 
L 193.091177 145.879689 
L 193.282685 146.814498 
L 193.149209 147.312552 
L 192.70816 148.009827 
L 192.429602 148.898662 
L 191.942126 149.963731 
L 191.43724 150.668669 
L 190.787272 151.703089 
L 190.688616 152.132182 
L 190.264976 153.028679 
L 189.928385 153.917514 
L 188.187399 156.790902 
L 187.728939 157.78701 
L 187.119594 158.760131 
L 186.643725 160.300268 
L 186.324544 160.828971 
L 185.483067 161.848066 
L 185.129067 162.759888 
L 185.007198 163.120019 
L 183.939393 164.683143 
L 183.759491 164.951326 
L 183.173359 165.372756 
L 182.488571 166.062369 
L 179.7146 171.579275 
L 178.896337 173.594478 
L 177.677647 175.816565 
L 177.61381 176.406568 
L 176.946432 177.601897 
L 176.725907 178.145926 
L 176.302268 178.682291 
L 173.795248 183.716468 
L 173.510887 184.62829 
L 172.866722 185.379202 
L 171.990425 185.785308 
L 171.845343 186.11479 
L 171.798917 187.723887 
L 171.456523 188.674021 
L 170.998063 189.562856 
L 170.829768 190.206495 
L 169.878029 191.478448 
L 168.763798 193.830795 
L 168.566486 194.688981 
L 168.357568 195.263658 
L 167.684386 196.121844 
L 167.133074 196.596911 
L 166.802287 197.562369 
L 165.577793 199.715495 
L 163.906447 201.860958 
L 163.616282 202.366675 
L 163.320315 203.332133 
L 162.972117 203.853174 
L 162.542674 204.956556 
L 162.281526 205.508246 
L 161.643165 206.03695 
L 160.082081 208.864364 
L 159.588801 209.155534 
L 158.10316 211.040477 
L 156.855453 213.952177 
L 155.810861 215.814133 
L 154.975188 216.825566 
L 154.980991 217.201022 
L 154.36004 218.373364 
L 153.628826 219.660642 
L 153.361874 220.128047 
L 152.944038 220.564802 
L 152.375316 221.56091 
L 152.346299 222.074288 
L 152.090955 222.671953 
L 151.551249 223.170007 
L 151.110199 224.273388 
L 149.218328 227.644831 
L 149.229934 228.066261 
L 149.021016 228.778862 
L 147.959014 230.334323 
L 147.541178 230.771078 
L 147.285833 231.299781 
L 147.216194 231.744198 
L 146.688094 232.755631 
L 146.293471 233.207711 
L 146.101962 233.667453 
L 145.277896 234.579275 
L 145.115404 235.04668 
L 144.587305 236.073437 
L 143.298975 238.617344 
L 142.997204 238.977475 
L 141.494153 240.349039 
L 138.801428 246.226076 
L 138.000574 247.850499 
L 136.596178 250.478691 
L 136.085489 251.421163 
L 135.650243 252.248699 
L 134.437356 254.578059 
L 134.089159 255.022476 
L 133.375354 256.547288 
L 132.580304 257.980151 
L 132.400402 258.531841 
L 131.274564 259.957042 
L 130.688432 261.474191 
L 130.11971 262.409 
L 129.846956 262.922379 
L 129.759906 263.412771 
L 129.109938 264.18667 
L 128.639872 265.205765 
L 128.721118 265.496935 
L 128.668889 265.903041 
L 128.193019 266.454731 
L 128.210429 266.799538 
L 127.270296 268.00253 
L 126.753804 268.546558 
L 126.301147 269.190197 
L 126.167672 269.573315 
L 125.204326 270.094357 
L 124.165538 270.385527 
L 123.782521 270.377864 
L 122.412945 271.33566 
L 122.204027 271.810727 
L 122.041535 273.412162 
L 122.407142 274.331647 
L 122.569634 275.320092 
L 124.124915 276.116979 
L 124.606588 276.50776 
L 125.12308 276.737631 
L 125.372622 277.22036 
L 125.471277 277.879324 
L 125.146293 278.683873 
L 125.308785 279.120628 
L 125.076654 279.457772 
L 124.774883 282.017003 
L 124.740063 283.066748 
L 124.519538 284.308052 
L 124.415079 285.120263 
L 124.606588 285.557018 
L 124.316423 285.733252 
L 123.997243 286.246631 
L 123.794128 288.407419 
L 123.846357 289.257942 
L 123.608422 291.380418 
L 122.958454 293.579518 
L 123.138356 294.805497 
L 122.662487 297.050572 
L 123.097733 297.602262 
L 123.266028 297.916419 
L 122.807569 298.483435 
L 122.523208 298.521747 
L 122.221437 298.805254 
L 122.087961 299.349282 
L 122.17501 299.977597 
L 122.180814 300.866432 
L 121.995109 302.44488 
L 121.925469 302.889297 
L 121.739764 303.257091 
L 121.176845 304.64398 
L 120.695172 305.555802 
L 119.633171 306.94269 
L 119.430056 307.877499 
L 119.064449 308.643736 
L 118.489923 310.934785 
L 118.43189 312.237387 
L 117.944414 312.750766 
L 117.160971 313.225833 
L 116.835987 314.007395 
L 116.319494 316.32143 
L 115.495427 318.022476 
L 114.207098 319.899757 
L 114.305753 320.290538 
L 113.969163 321.033787 
L 111.705881 324.964583 
L 109.924272 328.175116 
L 109.628304 328.987327 
L 109.494829 329.945123 
L 109.326533 330.159669 
L 108.148466 332.090586 
L 107.21994 332.649939 
L 106.987809 332.29747 
L 107.539121 332.795524 
L 107.631973 333.094357 
L 107.898925 333.209292 
L 108.096236 332.979421 
L 108.688172 332.718901 
L 108.769418 332.856823 
L 108.560499 332.933447 
L 108.403811 333.147993 
L 108.038204 334.94865 
L 107.788662 334.856702 
L 107.167711 336.504111 
L 106.836923 338.136196 
L 106.175348 339.76828 
L 105.426724 341.752834 
L 105.090134 342.028679 
L 104.840592 342.664656 
L 104.486592 343.086086 
L 104.155805 343.653101 
L 104.004919 344.373364 
L 103.888853 346.350255 
L 103.825017 347.185454 
L 103.12282 347.928703 
L 102.710786 348.350134 
L 102.118851 349.844296 
L 101.683604 351.66794 
L 101.120686 352.99353 
L 101.109079 353.844053 
L 101.00462 354.066261 
L 101.010423 355.200292 
L 100.778292 355.131331 
L 100.656423 355.138993 
L 100.685439 355.468475 
L 100.366258 356.433933 
L 100.058684 357.062248 
L 99.907799 357.330431 
L 99.907799 357.667575 
L 99.263634 358.07368 
L 99.27524 358.020044 
L 99.153371 358.027706 
L 98.88642 358.372513 
L 99.095338 359.360958 
L 98.967666 359.659791 
L 97.673533 360.72486 
L 96.071826 362.816687 
L 96.037006 363.399027 
L 95.375432 363.552274 
L 95.1433 363.429676 
L 94.70225 363.513963 
L 94.371463 363.751496 
L 94.005856 364.157602 
L 93.750511 364.257212 
L 93.506773 364.969813 
L 93.442937 365.621114 
L 92.607264 368.218657 
L 92.218443 368.410216 
L 90.645753 370.195549 
L 90.216309 370.39477 
L 89.972571 371.00776 
L 89.955162 371.751009 
L 89.061455 373.383094 
L 88.492733 374.509462 
L 87.018698 377.582072 
L 86.577649 378.218049 
L 86.223648 378.930649 
L 85.97991 379.819484 
L 85.016564 381.735077 
L 84.755416 382.29443 
L 84.575515 383.13729 
L 83.768858 384.156385 
L 83.571546 385.374702 
L 82.979611 386.340161 
L 82.532758 386.53172 
L 82.329643 386.914838 
L 82.457315 387.297957 
L 82.126528 387.489516 
L 81.685478 387.474191 
L 81.476559 387.742374 
L 81.081936 388.953028 
L 80.478394 390.378229 
L 79.816819 392.163561 
L 78.290555 394.025517 
L 78.08744 394.822403 
L 78.03521 395.381756 
L 77.327209 396.983191 
L 76.607602 396.638385 
L 75.684879 398.209171 
L 74.611271 400.500219 
L 74.228254 401.266456 
L 72.510481 403.848674 
L 72.197104 405.365823 
L 70.856544 407.863756 
L 70.694052 408.553369 
L 70.12533 409.618438 
L 69.614641 409.993894 
L 68.866017 411.702603 
L 68.680312 412.453515 
L 68.07677 412.629749 
L 67.235293 414.269496 
L 66.875489 414.790538 
L 65.674209 416.208076 
L 65.233159 416.38431 
L 64.873356 416.744442 
L 64.409093 416.851715 
L 63.991256 417.066261 
L 63.747518 417.518341 
L 63.428337 418.912892 
L 62.993091 419.977962 
L 62.755156 420.552639 
L 61.954302 421.709657 
L 61.832433 422.667453 
L 59.580758 428.942934 
L 57.775936 432.781781 
L 57.416132 433.218536 
L 57.114361 433.869837 
L 56.824197 434.161007 
L 56.359934 435.072829 
L 56.243868 435.816079 
L 56.00013 436.360107 
L 55.663539 437.762321 
L 55.802818 438.11479 
L 54.410029 440.260253 
L 53.736848 441.218049 
L 52.773502 442.267794 
L 52.245403 443.156629 
L 51.438746 444.443907 
L 51.154385 445.754172 
L 50.806188 446.114303 
L 50.591466 446.543396 
L 50.254876 447.823011 
L 50.016941 448.33639 
L 50.10399 448.811457 
L 49.633924 449.753928 
L 48.618349 450.811335 
L 47.985791 451.340039 
L 47.440282 452.543031 
L 46.349264 454.282389 
L 45.467164 455.768888 
L 44.927458 456.404865 
L 43.018177 460.688129 
L 41.149519 462.925541 
L 40.749092 464.005935 
L 39.443352 466.955947 
L 39.112565 467.41569 
L 38.712138 467.722184 
L 38.021547 468.810241 
L 37.209087 470.151155 
L 36.971152 470.741158 
L 36.599742 471.193238 
L 35.700232 472.710387 
L 35.433281 473.147142 
L 35.259182 473.660521 
L 34.847149 474.028314 
L 34.063705 475.353904 
L 33.570426 475.859621 
L 33.239639 476.487935 
L 32.879835 477.560667 
L 30.935734 480.717563 
L 30.668782 480.939771 
L 29.664814 483.376405 
L 29.125108 483.97407 
L 28.713075 484.870567 
L 27.842582 485.836025 
L 27.517598 486.357066 
L 27.175204 487.483435 
L 26.908253 487.797592 
L 26.774777 488.257334 
L 25.881071 489.943055 
L 25.492251 490.755266 
L 24.163298 492.701508 
L 23.954379 492.824106 
L 23.687428 493.429433 
L 23.501723 493.598005 
L 23.159329 494.433204 
L 22.404902 495.191778 
L 22.283033 495.65152 
L 20.890244 497.819971 
L 20.681326 498.256726 
L 20.652309 498.517246 
L 21.133982 498.954001 
L 21.470573 499.199197 
L 22.671853 499.804524 
L 23.548149 500.494138 
L 25.033791 500.930893 
L 25.50966 500.946217 
L 28.921993 502.616614 
L 29.624191 503.244928 
L 30.668782 503.589735 
L 31.672751 504.241036 
L 32.20085 504.532206 
L 32.688326 504.631817 
L 33.988263 505.19117 
L 34.290033 505.566626 
L 35.294002 506.148966 
L 36.135479 506.302214 
L 36.814463 505.719874 
L 37.830038 507.137412 
L 39.814763 508.55495 
L 42.1767 509.482097 
L 42.768636 509.620019 
L 43.256112 509.849891 
L 44.254277 510.654439 
L 46.372477 511.382364 
L 47.927758 512.148601 
L 48.450054 512.064315 
L 48.978153 512.202238 
L 49.941498 512.884189 
L 50.225859 513.489516 
L 51.061533 514.539261 
L 52.779306 515.336147 
L 53.49311 515.949136 
L 54.410029 516.041085 
L 54.839472 516.179008 
L 55.831834 516.975894 
L 56.238065 517.450961 
L 57.323279 518.002651 
L 58.396887 518.661615 
L 59.679414 519.764996 
L 66.446046 523.167088 
L 67.032178 523.511895 
L 69.597231 524.094235 
L 70.694052 524.707225 
L 71.326611 525.381513 
L 71.616775 525.212941 
L 71.831497 525.281902 
L 72.046218 525.749307 
L 73.375171 526.155412 
L 74.408156 526.852688 
L 75.255436 527.458015 
L 75.748715 528.032693 
L 75.760322 528.469448 
L 76.259404 529.074775 
L 76.468323 529.680102 
L 77.425865 530.024909 
L 78.656162 530.308416 
L 80.106984 531.565045 
L 80.954264 532.116736 
L 81.319871 532.231671 
L 82.428298 532.315957 
L 83.200136 532.637777 
L 85.004958 534.285186 
L 85.776795 534.438433 
L 86.01473 534.154926 
L 86.171418 534.017003 
L 86.206238 534.078302 
L 86.380337 534.338823 
L 87.662863 535.756361 
L 87.564207 535.94792 
L 87.227617 535.626101 
L 87.245027 534.959475 
L 87.361092 534.875189 
L 87.784732 535.112722 
L 87.860175 535.319606 
L 87.62224 535.518828 
L 87.361092 535.710387 
L 86.914239 536.346363 
L 86.502206 536.354026 
L 85.434401 536.170129 
L 84.662564 535.924933 
L 84.459449 535.702724 
L 84.28535 535.151034 
L 83.519316 534.545707 
L 83.94876 532.42323 
L 83.374234 532.03245 
L 82.358659 531.87154 
L 81.314067 531.519071 
L 79.700754 531.227901 
L 79.410589 530.83712 
L 78.406621 530.499976 
L 77.785669 530.423352 
L 77.483898 530.270105 
L 77.396849 529.733739 
L 77.344619 529.365945 
L 76.793307 528.369837 
L 76.566979 527.44269 
L 76.770094 526.446582 
L 77.820489 524.270469 
L 79.486032 521.741888 
L 79.996721 520.998638 
L 80.165017 520.607857 
L 80.478394 520.247726 
L 81.33728 517.887716 
L 82.468921 516.247969 
L 82.753282 515.581343 
L 82.573381 515.274848 
L 82.114921 515.198224 
L 81.662265 514.937704 
L 81.401117 515.044977 
L 80.693116 514.907054 
L 80.327509 514.853418 
L 79.37577 514.378351 
L 78.0178 513.56614 
L 76.642421 512.623668 
L 76.218781 512.271199 
L 75.638453 512.125614 
L 74.559041 511.420676 
L 73.317138 510.248334 
L 73.10822 509.75028 
L 72.661367 509.351837 
L 69.794543 507.911311 
L 69.243231 507.788713 
L 68.552639 507.819363 
L 68.018737 507.558842 
L 67.415195 507.52053 
L 67.003162 507.367283 
L 66.649161 506.961177 
L 66.329981 506.838579 
L 66.068833 506.601046 
L 65.546537 506.240915 
L 65.494307 506.102992 
L 65.238963 506.125979 
L 64.803716 504.846363 
L 64.844339 504.708441 
L 64.443912 504.493894 
L 64.229191 504.118438 
L 63.033714 503.497786 
L 62.076171 503.030382 
L 61.675744 502.739212 
L 61.165055 502.509341 
L 60.735612 502.156872 
L 60.161087 502.057261 
L 58.727675 501.053491 
L 57.723706 500.639723 
L 56.209048 500.003746 
L 55.599703 499.942447 
L 54.705997 499.459718 
L 54.28816 499.199197 
L 53.696225 499.007638 
L 51.995862 497.835296 
L 51.113762 497.743347 
L 49.970515 498.003868 
L 49.622318 497.766334 
L 49.088415 497.000097 
L 48.148283 496.226198 
L 46.976019 495.268402 
L 46.37828 495.145804 
L 46.239001 494.6171 
L 46.34346 493.498395 
L 47.968381 491.590465 
L 47.713036 491.237996 
L 47.736249 491.115398 
L 47.695626 491.000462 
L 47.788479 490.985137 
L 47.916151 490.326174 
L 48.403627 489.644223 
L 48.554513 489.284091 
L 48.92012 488.908635 
L 49.848646 487.245901 
L 50.469597 486.487327 
L 50.899041 485.445244 
L 51.37491 484.36485 
L 51.827567 484.020044 
L 52.082911 483.567964 
L 52.686453 482.786402 
L 52.953404 482.06614 
L 53.278388 481.90523 
L 53.736848 481.19263 
L 53.86452 480.625614 
L 54.555111 479.614181 
L 54.874292 479.238725 
L 56.545639 475.292605 
L 57.004098 475.001435 
L 57.247837 474.411433 
L 57.892001 473.4 
L 58.298231 472.288956 
L 58.884363 471.323498 
L 59.331217 470.978691 
L 59.772266 469.921284 
L 61.124432 467.423352 
L 60.584726 466.879324 
L 60.416431 466.457893 
L 60.758825 465.691657 
L 63.410927 462.465799 
L 63.625649 461.316444 
L 64.153748 460.565532 
L 64.414896 459.960204 
L 65.19834 459.086694 
L 67.391982 455.278497 
L 67.850442 454.213427 
L 68.181229 453.746023 
L 69.359296 452.86485 
L 69.597231 452.267186 
L 70.049887 451.70017 
L 70.235593 451.087181 
L 70.200773 450.627439 
L 70.340052 450.206008 
L 71.100282 448.819119 
L 71.285988 448.451326 
L 71.367234 447.608465 
L 71.680611 447.187035 
L 71.999792 446.321187 
L 72.098448 445.639236 
L 73.555073 443.96884 
L 74.263074 442.635587 
L 74.657697 442.260131 
L 75.917011 440.084018 
L 76.050486 439.654926 
L 76.00406 438.79674 
L 76.41029 438.145439 
L 76.712061 437.693359 
L 77.286586 436.33712 
L 78.029407 435.43296 
L 78.371801 434.237631 
L 78.08744 433.823863 
L 78.064227 433.55568 
L 78.284752 433.057626 
L 79.346753 431.900608 
L 80.106984 430.873851 
L 80.089574 430.590343 
L 80.878821 429.440988 
L 81.081936 429.326052 
L 81.511379 428.919946 
L 81.911806 428.383581 
L 81.935019 427.770591 
L 82.074298 427.096303 
L 82.840332 425.609803 
L 84.146071 424.88954 
L 84.74381 424.284213 
L 84.958532 423.617587 
L 85.260302 423.134858 
L 85.045581 422.322647 
L 85.080401 421.778618 
L 85.358958 421.380175 
L 85.231286 421.165629 
L 85.196466 420.767186 
L 85.707156 419.740428 
L 85.782598 419.449258 
L 86.79237 418.100681 
L 87.60483 417.250158 
L 87.778929 416.767429 
L 88.318635 415.740671 
L 88.411487 415.503138 
L 88.06329 415.028071 
L 88.295421 415.043396 
L 89.009226 414.660277 
L 89.398046 414.782875 
L 89.357423 414.629628 
L 89.305193 414.468718 
L 89.032439 414.821187 
L 88.864144 414.66794 
L 89.427062 413.541571 
L 89.090472 413.434298 
L 89.055652 413.150791 
L 89.572145 411.98611 
L 89.786866 411.1126 
L 90.599326 409.901946 
L 91.185458 408.683629 
L 92.24746 407.664534 
L 93.547396 406.898297 
L 94.145135 406.683751 
L 94.655824 406.262321 
L 95.033038 404.83712 
L 95.781662 402.959839 
L 97.511041 399.580735 
L 97.998517 399.189954 
L 98.654289 398.301119 
L 98.88642 397.695792 
L 98.8516 397.059815 
L 99.037306 396.431501 
L 99.321667 395.87981 
L 99.78593 395.412406 
L 100.000651 394.937339 
L 99.832356 394.209414 
L 100.673832 392.54668 
L 101.103276 392.186548 
L 101.236751 391.259402 
L 101.875113 390.401216 
L 102.107244 390.31693 
L 102.321966 389.910825 
L 102.739803 389.435758 
L 103.093803 388.830431 
L 103.674132 387.006787 
L 104.544625 386.148601 
L 105.606626 384.899635 
L 106.053479 383.926514 
L 106.384267 383.512746 
L 106.703448 383.2982 
L 107.446268 381.007152 
L 107.794466 380.401824 
L 108.281942 379.942082 
L 108.618532 379.367405 
L 108.804237 378.677791 
L 109.547058 377.482462 
L 109.993911 377.061031 
L 110.051944 376.363756 
L 110.823781 374.616736 
L 111.009486 374.065045 
L 111.711684 373.75855 
L 112.123718 372.91569 
L 112.616997 372.394649 
L 112.907161 371.283605 
L 113.237949 370.777889 
L 113.43526 370.226198 
L 113.43526 369.666845 
L 113.557129 369.245415 
L 114.172278 368.394892 
L 114.520475 367.881513 
L 114.984738 366.502287 
L 115.338739 365.942934 
L 115.785592 365.521503 
L 116.302084 365.245658 
L 116.493593 364.67098 
L 116.882413 364.272537 
L 118.379661 361.391486 
L 118.48412 360.770834 
L 118.797498 360.119533 
L 119.255957 359.728752 
L 119.3314 359.177062 
L 119.75504 358.533423 
L 120.12645 357.338093 
L 119.969761 356.985624 
L 119.940745 356.296011 
L 119.882712 355.935879 
L 120.155467 355.667696 
L 120.201893 354.916784 
L 119.975565 354.817173 
L 119.6854 355.00107 
L 119.958155 354.801849 
L 120.468844 353.890027 
L 120.370188 353.430285 
L 120.526877 353.300024 
L 120.428221 353.231063 
L 120.793828 352.67171 
L 120.996943 352.434177 
L 121.356747 351.606641 
L 121.519239 351.361445 
L 120.996943 350.403649 
L 122.082158 348.917149 
L 122.058945 348.717928 
L 122.848192 347.193116 
L 122.929438 346.725712 
L 123.486553 345.561031 
L 123.666455 344.725833 
L 123.794128 343.607127 
L 124.020456 343.139723 
L 124.240981 341.499976 
L 119.551925 352.449501 
L 119.459072 353.215738 
L 118.623399 354.617952 
L 118.037267 355.062369 
L 117.642643 355.062369 
L 117.207397 355.859256 
L 126.440426 335.201508 
L 127.107804 334.36631 
L 127.165837 333.94488 
L 127.525641 333.531112 
L 127.68233 333.071369 
L 128.187216 332.144223 
L 128.825577 330.895257 
L 131.007613 327.378229 
L 114.926705 335.416054 
L 117.306053 335.891121 
L 114.996345 335.431379 
L 113.464277 335.515665 
L 132.470041 325.255753 
L 133.52624 323.125614 
L 135.052504 318.742739 
L 136.108702 316.888446 
L 137.222933 315.677791 
L 137.455065 315.539869 
L 137.890311 314.972853 
L 138.273328 314.129993 
L 138.290738 313.723887 
L 138.11664 313.486354 
L 138.615722 312.927001 
L 135.905587 326.129263 
L 139.764773 312.206738 
L 140.937037 310.704914 
L 142.411072 308.291267 
L 144.813633 304.950474 
L 146.3457 303.280078 
L 146.862193 302.199684 
L 147.697866 301.226563 
L 149.154491 298.950839 
L 149.885706 297.632912 
L 151.87043 296.031477 
L 151.992299 295.855242 
L 152.038725 295.36485 
L 152.24184 294.698224 
L 155.5265 291.633277 
L 155.93273 290.767429 
L 156.246108 290.683143 
L 156.309944 290.215738 
L 156.031386 290.062491 
L 156.060403 289.717684 
L 155.694796 289.70236 
L 155.741222 289.733009 
L 155.810861 289.863269 
L 155.822468 289.733009 
L 155.468468 289.342228 
L 155.741222 289.112357 
L 155.741222 289.357553 
L 155.688992 289.058721 
L 155.20732 288.323133 
L 154.835909 288.039625 
L 154.592171 287.464948 
L 154.458696 286.614425 
L 154.110498 286.215982 
L 153.773908 285.342471 
L 153.472137 285.089613 
L 152.270856 284.69117 
L 151.986495 284.285064 
L 152.845382 283.764023 
L 152.868595 283.388567 
L 153.44312 282.392459 
L 153.855154 281.771807 
L 154.580565 281.319728 
L 156.01978 279.802578 
L 157.6447 275.779835 
L 158.741521 272.860472 
L 160.221359 270.278253 
L 161.590935 267.213306 
L 163.616282 263.834201 
L 164.161791 263.328485 
L 164.852382 262.462637 
L 165.989827 261.068086 
L 166.947369 260.393797 
L 168.386584 259.681197 
L 170.261046 259.566261 
L 170.690489 259.727171 
L 171.793114 259.857431 
L 172.779672 260.232887 
L 174.990725 261.37458 
L 176.743317 262.301727 
L 178.490107 262.462637 
L 179.099452 262.409 
L 180.9507 261.727049 
L 183.834934 259.742496 
L 184.949165 258.317295 
L 186.254905 255.566505 
L 186.666938 254.080005 
L 188.152579 252.110776 
L 189.063695 251.359864 
L 191.019403 249.934663 
L 193.677309 248.141669 
L 195.987017 245.927244 
L 196.758854 244.762564 
L 197.571314 242.540477 
L 197.757019 241.35281 
L 197.698986 240.916054 
L 197.826659 240.479299 
L 198.192266 239.751374 
L 198.644922 237.728509 
L 198.424397 237.015909 
L 198.865447 236.349282 
L 198.453414 234.46434 
L 197.728003 232.801605 
L 197.455248 231.690562 
L 197.414625 229.660034 
L 197.426232 229.062369 
L 198.227085 226.556775 
L 200.61804 222.970786 
L 201.44791 222.081951 
L 201.900566 221.729482 
L 202.300993 221.231428 
L 204.628111 219.775578 
L 205.231653 219.52272 
L 207.297623 217.974921 
L 208.231952 216.174264 
L 208.377034 215.668548 
L 208.406051 214.680102 
L 208.353821 214.273997 
L 208.469887 213.860229 
L 208.260969 211.952299 
L 209.003789 209.538652 
L 209.520282 209.055923 
L 209.415823 208.274361 
L 209.491265 207.799295 
L 209.949725 206.833836 
L 210.280512 206.489029 
L 210.425595 205.531233 
L 210.692546 204.328241 
L 210.994317 202.826417 
L 210.988513 202.558234 
L 211.632678 200.73459 
L 211.609465 199.999003 
L 214.232551 194.926514 
L 215.636946 193.125857 
L 219.658624 188.911554 
L 220.668396 187.317782 
L 222.200464 184.482705 
L 223.233449 181.571005 
L 223.09417 181.341134 
L 223.715122 180.283727 
L 224.29545 179.218657 
L 224.916402 178.276186 
L 225.485124 177.28774 
L 226.756044 175.425784 
L 228.404177 173.548504 
L 229.866606 172.514084 
L 230.934411 171.931744 
L 234.990908 170.39927 
L 237.033665 170.376283 
L 237.997011 170.514206 
L 238.809471 170.682778 
L 239.604521 170.728752 
L 241.026326 170.935636 
L 242.279836 170.882 
L 243.829314 170.483556 
L 245.349775 169.648358 
L 246.655515 168.269132 
L 247.665287 166.943542 
L 247.6885 166.399514 
L 248.315255 165.426393 
L 248.982633 164.376648 
L 251.44903 159.98611 
L 251.715981 159.472732 
L 252.534244 158.476624 
L 254.460936 155.534274 
L 254.994838 154.231671 
L 255.720249 152.852445 
L 257.287136 150.484773 
L 258.999106 147.53476 
L 259.823173 146.178521 
L 260.333862 145.289686 
L 261.279798 143.151885 
L 261.453896 142.661494 
L 262.040028 141.833958 
L 262.173504 141.397203 
L 262.533308 140.922136 
L 262.869898 139.972002 
L 262.631964 139.473948 
L 264.593475 136.355364 
L 266.131346 132.999246 
L 266.549182 131.895865 
L 267.338429 130.087546 
L 267.448692 129.459231 
L 267.355839 127.627925 
L 267.866528 124.800511 
L 267.924561 123.551545 
L 268.214726 122.111019 
L 268.829874 119.421528 
L 268.887907 117.804768 
L 268.55712 116.555802 
L 268.429447 115.835539 
L 266.607215 111.582924 
L 266.340264 110.379932 
L 266.346067 108.954731 
L 266.79292 106.908879 
L 267.820102 104.280686 
L 271.04673 98.909365 
L 274.517095 94.725712 
L 275.393392 93.94415 
L 276.182639 93.262199 
L 277.465165 91.867648 
L 278.167363 90.902189 
L 279.264184 89.476989 
L 279.850316 88.419582 
L 280.117267 87.323863 
L 280.076644 85.661129 
L 279.850316 83.937096 
L 279.792283 81.109681 
L 279.890939 80.021625 
L 280.761432 74.719265 
L 281.753794 71.508733 
L 282.618484 70.198468 
L 284.597405 68.2982 
L 286.535702 67.010922 
L 287.081211 66.604816 
L 288.15482 66.137412 
L 289.089149 65.302214 
L 289.414133 64.80416 
L 289.599838 64.283118 
L 289.698494 63.095451 
L 289.501182 62.436487 
L 289.176198 61.823498 
L 288.328918 60.835052 
L 287.197277 60.191413 
L 285.845111 60.030504 
L 284.487142 60.260375 
L 283.813961 60.467259 
L 282.659107 61.133885 
L 281.515859 62.030382 
L 280.331989 62.689346 
L 279.71684 62.965191 
L 279.090085 62.965191 
L 277.546411 62.513111 
L 277.140181 62.275578 
L 276.844213 61.823498 
L 276.525033 61.126222 
L 276.403164 60.513233 
L 276.623688 59.593748 
L 277.012509 59.003746 
L 278.915987 56.942569 
L 279.391856 56.321917 
L 279.75166 54.513598 
L 282.328319 50.896959 
L 282.966681 49.716955 
L 284.260814 45.977718 
L 284.382683 44.85135 
L 284.34206 43.249915 
L 284.086715 42.292119 
L 282.955074 40.675359 
L 282.560451 40.414838 
L 282.305106 39.702238 
L 281.777007 39.15821 
L 281.788614 38.767429 
L 281.626122 38.338336 
L 277.824969 36.100924 
L 277.29687 35.832741 
L 275.056801 35.304038 
L 273.455094 34.821309 
L 272.926995 34.72936 
L 271.899813 34.261956 
L 271.371714 34.131695 
L 271.023517 33.909487 
L 269.584301 33.786889 
L 268.06384 33.051301 
L 267.141118 32.859742 
L 265.022918 32.4 
L 264.593475 32.522598 
L 264.158228 32.491948 
L 263.485047 32.706495 
L 261.773077 33.733252 
L 261.134716 34.338579 
L 260.217796 35.863391 
L 259.956648 36.913135 
L 259.939239 37.38054 
L 260.211993 38.208076 
L 260.693666 39.119898 
L 261.007043 39.526003 
L 261.204355 39.863148 
L 262.64357 41.280686 
L 263.281932 41.556531 
L 264.245277 42.169521 
L 265.104164 43.111992 
L 265.458164 43.318876 
L 265.96305 43.824593 
L 266.235805 44.016152 
L 266.572395 44.759402 
L 267.007642 45.165507 
L 267.721446 48.360715 
L 268.481677 50.743712 
L 269.027186 51.716833 
L 269.421809 53.417879 
L 269.201284 55.325809 
L 268.690595 56.950231 
L 267.970988 58.107249 
L 267.779479 58.927122 
L 267.419675 59.869594 
L 266.531772 61.064923 
L 264.70954 62.114668 
L 263.363178 62.697008 
L 260.705272 63.777402 
L 259.950845 64.091559 
L 258.755368 64.988056 
L 257.844252 65.823255 
L 257.385792 66.505206 
L 257.072415 67.233131 
L 256.497889 69.470542 
L 255.842118 69.876648 
L 254.977428 71.838215 
L 253.648476 73.286402 
L 253.120376 73.654196 
L 250.416045 74.841863 
L 248.135353 75.6081 
L 247.63627 75.998881 
L 246.197055 76.749793 
L 245.053808 77.684602 
L 244.36902 78.381878 
L 243.515937 79.148115 
L 241.983869 81.140331 
L 241.351311 82.305011 
L 240.846425 83.009949 
L 239.917899 84.588397 
L 239.308554 85.737752 
L 238.890717 87.231914 
L 237.503731 90.151277 
L 237.405075 90.794916 
L 236.905993 91.61479 
L 236.40691 92.549599 
L 235.96586 93.461421 
L 235.344909 94.411554 
L 235.147597 94.970907 
L 234.805203 95.438312 
L 233.470447 96.733252 
L 232.6812 97.499489 
L 231.642412 98.05118 
L 230.61523 98.50326 
L 229.78536 99.031963 
L 228.404177 100.863269 
L 227.980538 101.890027 
L 227.574307 102.755874 
L 227.568504 103.368864 
L 227.388602 103.805619 
L 227.133258 105.246144 
L 227.110044 107.889662 
L 226.941749 109.429798 
L 226.657388 110.92396 
L 225.966797 112.425784 
L 225.032468 113.605789 
L 222.902661 115.008003 
L 222.595087 115.000341 
L 219.908165 116.111384 
L 218.950623 116.755023 
L 218.051114 117.191778 
L 216.124422 118.325809 
L 215.120454 119.283605 
L 214.754847 119.490489 
L 213.797304 120.563221 
L 213.269205 121.160885 
L 212.984844 121.704914 
L 212.526384 122.088032 
L 211.82999 123.061153 
L 210.466218 125.336877 
L 209.497069 127.137533 
L 208.649789 129.045463 
L 208.081067 132.508854 
L 207.843132 133.934055 
L 208.08687 136.071856 
L 209.032806 140.493043 
L 209.589921 142.2937 
L 209.69438 143.220847 
L 209.822053 143.971759 
L 209.514479 146.960083 
L 206.879786 152.162831 
L 206.258835 152.875432 
L 206.0209 153.312187 
L 204.906669 154.438555 
L 203.270142 156.392459 
L 200.084137 158.56091 
L 199.103382 159.281172 
L 197.582921 160.737023 
L 197.29856 160.675724 
L 197.176691 160.484164 
L 197.1941 160.215982 
L 197.437838 159.679616 
L 197.594527 158.85208 
L 198.238692 155.787132 
L 198.48243 155.266091 
L 198.459217 153.565045 
L 198.372168 152.952055 
L 198.261905 152.645561 
L 198.215479 151.871661 
L 198.04138 151.22036 
L 197.780232 150.806592 
L 197.728003 150.339188 
L 197.513281 149.465677 
L 196.503509 148.891 
L 195.720066 148.124763 
L 195.296426 147.657358 
L 194.205408 147.174629 
L 193.073767 146.622938 
L 192.801012 146.500341 
L 192.052388 145.94865 
L 191.355994 145.588519 
L 190.775665 145.197738 
L 189.765893 144.017733 
L 188.52399 143.504354 
L 186.481233 142.347336 
L 184.995591 141.734347 
L 184.479099 141.397203 
L 181.142209 139.504597 
L 179.499879 138.355242 
L 178.606172 137.880175 
L 177.753089 137.305497 
L 174.851446 136.140817 
L 174.543872 135.704062 
L 174.70056 135.719387 
L 173.859084 134.937825 
L 172.547541 134.094965 
L 172.048458 134.064315 
L 171.195375 133.619898 
L 171.143145 133.328728 
L 170.156587 132.432231 
L 166.581762 130.738847 
L 166.152319 130.470664 
L 166.129106 129.97261 
L 165.769302 129.535855 
L 165.914384 129.282997 
L 164.811759 128.317538 
L 163.732348 127.888446 
L 163.627889 127.888446 
L 163.569856 127.535977 
L 163.343528 127.06091 
L 162.873462 126.225712 
L 162.966314 126.593505 
L 162.937298 126.585843 
L 162.972117 126.28701 
L 162.722576 126.202724 
L 162.560084 125.903892 
L 162.809625 124.432717 
L 162.972117 124.156872 
L 163.639495 123.835052 
L 164.498382 123.582194 
L 165.223793 123.582194 
L 165.392088 123.789078 
L 165.891171 123.965313 
L 166.169729 125.229604 
L 166.738451 125.405838 
L 166.970582 125.459475 
L 167.405829 125.934541 
L 167.788846 126.340647 
L 168.206682 126.47857 
L 168.670945 126.854026 
L 168.769601 126.907662 
L 169.193241 127.306106 
L 170.220423 127.750523 
L 170.823965 128.378837 
L 171.125736 128.708319 
L 171.595802 128.899878 
L 172.065868 128.961177 
L 172.454688 129.175724 
L 173.09305 129.872999 
L 173.429641 129.949623 
L 173.505083 130.194819 
L 174.131838 130.784821 
L 175.63489 131.505084 
L 175.948267 131.328849 
L 176.795547 131.489759 
L 177.892368 132.118073 
L 178.228959 132.677426 
L 178.327615 132.669764 
L 178.49591 133.527949 
L 178.385648 133.612235 
L 177.956204 134.991462 
L 177.996827 135.152372 
L 177.602204 135.918609 
L 177.660237 135.887959 
L 177.845942 136.263415 
L 178.130303 136.615884 
L 178.93696 137.336147 
L 179.140075 137.504719 
L 179.256141 137.956799 
L 179.470862 138.18667 
L 180.677946 138.700049 
L 181.577455 139.535247 
L 181.658701 139.611871 
L 181.658701 139.611871 
" style="fill:none;stroke:#000000;stroke-width:3;"/>
   </g>
  </g>
 </g>
 <defs>
  <clipPath id="p0b0226db53">
   <rect height="554.4" width="295.950803" x="7.2" y="7.2"/>
  </clipPath>
 </defs>
</svg>
