<?xml version="1.0" encoding="utf-8" standalone="no"?>
<!DOCTYPE svg PUBLIC "-//W3C//DTD SVG 1.1//EN"
  "http://www.w3.org/Graphics/SVG/1.1/DTD/svg11.dtd">
<svg height="568.8pt" version="1.1" viewBox="0 0 316.65073 568.8" width="316.65073pt" xmlns="http://www.w3.org/2000/svg" xmlns:xlink="http://www.w3.org/1999/xlink">
 <metadata>
  <rdf:RDF xmlns:cc="http://creativecommons.org/ns#" xmlns:dc="http://purl.org/dc/elements/1.1/" xmlns:rdf="http://www.w3.org/1999/02/22-rdf-syntax-ns#">
   <cc:Work>
    <dc:type rdf:resource="http://purl.org/dc/dcmitype/StillImage"/>
    <dc:date>2021-09-30T02:06:33.434375</dc:date>
    <dc:format>image/svg+xml</dc:format>
    <dc:creator>
     <cc:Agent>
      <dc:title>Matplotlib v3.4.3, https://matplotlib.org/</dc:title>
     </cc:Agent>
    </dc:creator>
   </cc:Work>
  </rdf:RDF>
 </metadata>
 <defs>
  <style type="text/css">*{stroke-linecap:butt;stroke-linejoin:round;}</style>
 </defs>
 <g id="figure_1">
  <g id="patch_1">
   <path d="M -0 568.8 
L 316.65073 568.8 
L 316.65073 0 
L -0 0 
z
" style="fill:#ffffff;"/>
  </g>
  <g id="axes_1">
   <g id="LineCollection_1">
    <path clip-path="url(#p3db8424b89)" d="M 160.264847 170.716922 
L 160.463579 170.396182 
L 160.551905 170.230952 
L 158.225999 169.045184 
L 153.94221 167.179057 
L 153.559466 167.441481 
L 153.30185 168.073243 
L 152.919106 168.520336 
L 152.632048 169.016025 
L 151.999048 169.774139 
L 150.725689 171.766618 
L 149.901317 172.777437 
L 149.283038 173.623026 
L 148.223132 176.237547 
L 148.046481 176.538849 
L 148.017039 177.083136 
L 145.271587 181.408273 
L 144.668029 182.759271 
L 143.593401 184.557362 
L 142.261158 187.094128 
L 141.598716 188.347932 
L 140.847949 189.485103 
L 140.582973 189.980793 
L 139.633473 190.389008 
L 139.118241 190.340411 
L 138.558846 190.146023 
L 136.54944 189.135204 
L 136.048928 188.590917 
L 133.781906 187.405149 
L 131.529605 186.083309 
L 129.976547 185.198843 
L 129.439234 185.004455 
L 128.371967 184.43101 
L 126.774747 183.527104 
L 124.75798 182.302459 
L 124.323713 181.942841 
L 122.005168 180.951461 
L 120.268099 180.13503 
L 120.253378 179.9698 
L 119.745506 179.960081 
L 119.767587 179.960081 
L 119.81175 180.018397 
L 119.686622 180.008678 
L 119.517331 179.824009 
L 119.443727 179.707376 
L 118.347018 179.270003 
L 117.647774 178.725716 
L 116.727717 178.599364 
L 114.468055 176.956783 
L 113.363986 176.412496 
L 110.831987 175.080937 
L 107.917244 173.535551 
L 107.512419 173.438357 
L 106.953024 173.069019 
L 106.548198 173.137055 
L 106.187536 173.38004 
L 105.561896 174.128435 
L 105.009862 175.129534 
L 104.295897 176.052878 
L 103.412642 177.471912 
L 103.309595 177.753775 
L 102.396898 178.550767 
L 102.404258 179.250564 
L 102.323293 178.210587 
L 102.058317 177.549667 
L 102.080398 177.296963 
L 101.940549 177.384437 
L 101.219224 176.937345 
L 101.175061 177.092855 
L 101.285468 177.326121 
L 100.932166 177.539948 
L 101.211864 177.782933 
L 102.073038 177.977321 
L 101.763898 177.909286 
L 101.211864 178.016199 
L 100.902724 177.627423 
L 100.946887 177.880127 
L 101.189782 177.763494 
L 101.535724 177.899566 
L 101.660852 178.599364 
L 101.815421 178.82291 
L 100.225562 184.392132 
L 97.64204 187.998033 
L 97.259296 188.629795 
L 96.736703 188.892219 
L 95.367657 191.302632 
L 94.683134 193.207637 
L 94.329832 193.732485 
L 94.042774 194.364246 
L 93.711553 195.608331 
L 92.923984 196.842696 
L 92.467635 197.386983 
L 92.305705 198.835175 
L 91.657984 199.709922 
L 91.635903 200.302806 
L 91.297322 201.430257 
L 91.27524 202.071739 
L 90.760008 203.043679 
L 90.340462 203.519931 
L 90.553915 204.627943 
L 90.362543 205.765114 
L 89.251113 208.817009 
L 88.846288 209.341857 
L 88.684358 209.934741 
L 88.691718 210.488747 
L 88.426742 211.285739 
L 88.154405 211.800868 
L 88.176486 212.111889 
L 88.102881 212.763089 
L 87.344754 215.076309 
L 87.263789 216.767486 
L 86.80744 220.072086 
L 86.836882 220.907955 
L 86.174441 225.340006 
L 86.027231 226.039803 
L 85.114534 228.868152 
L 84.687627 230.38438 
L 84.430011 231.511831 
L 84.341686 232.979462 
L 84.268081 233.620943 
L 84.054628 234.340179 
L 83.900058 235.80781 
L 83.944221 236.624241 
L 83.613 237.285161 
L 83.524674 238.577842 
L 83.311221 239.229043 
L 83.281779 239.977437 
L 82.987361 240.599479 
L 82.943198 241.513104 
L 82.641419 242.06711 
L 82.479489 242.698872 
L 82.825431 244.526121 
L 82.560454 246.868499 
L 81.787605 248.462482 
L 81.647757 250.950651 
L 81.868571 254.060862 
L 81.566792 256.043622 
L 82.118826 259.20243 
L 82.383803 260.057738 
L 82.361721 261.467052 
L 82.207152 263.98438 
L 81.942175 264.557825 
L 81.809687 265.665837 
L 82.133547 268.348395 
L 82.089384 269.184264 
L 81.70664 269.777148 
L 81.471106 271.643275 
L 81.507908 272.391669 
L 81.323896 273.101186 
L 81.38278 273.577437 
L 81.147245 273.791264 
L 81.412222 274.471623 
L 81.22085 275.33665 
L 80.74242 275.929534 
L 80.624653 276.366908 
L 80.764501 276.950072 
L 80.74978 277.785942 
L 80.499525 279.175817 
L 80.536327 279.749262 
L 80.403839 281.518195 
L 80.043176 282.276309 
L 80.286071 283.189933 
L 80.396478 284.667284 
L 80.705618 285.347642 
L 80.955873 286.756957 
L 81.103083 288.010761 
L 81.007397 288.652242 
L 81.103083 289.322881 
L 81.073641 290.090714 
L 81.169327 291.665259 
L 81.154606 292.413653 
L 80.985315 292.996818 
L 80.889629 294.415852 
L 81.05892 296.223662 
L 80.992676 296.991496 
L 81.05892 297.788487 
L 81.478466 298.760428 
L 81.588873 299.518542 
L 81.566792 303.270234 
L 81.758164 304.057507 
L 81.625675 306.8081 
L 82.118826 308.93665 
L 81.794966 310.501475 
L 81.69928 311.881631 
L 81.684559 313.252068 
L 81.250292 314.787735 
L 81.06628 315.53613 
L 79.557386 317.684119 
L 79.358653 318.17009 
L 79.586827 318.646341 
L 79.446979 319.540526 
L 78.939107 320.318079 
L 79.31449 321.814868 
L 79.417537 322.757651 
L 80.035816 324.798727 
L 80.131502 326.55794 
L 79.778199 328.822563 
L 79.859165 329.483483 
L 79.734037 329.988892 
L 80.977955 332.506219 
L 82.074663 335.052705 
L 82.17771 335.78166 
L 82.486849 335.917732 
L 82.464768 338.629447 
L 82.795989 339.377842 
L 83.068326 340.777437 
L 83.811732 341.807695 
L 84.378488 342.21591 
L 84.952604 342.886549 
L 85.52672 343.217009 
L 86.056673 343.702979 
L 86.535103 345.00538 
L 85.799057 344.917906 
L 85.445755 345.6663 
L 85.431034 346.259184 
L 85.283825 346.881226 
L 85.283825 347.81429 
L 85.151336 348.47521 
L 85.129255 349.417992 
L 84.89372 350.331617 
L 84.363767 350.93422 
L 84.268081 351.731212 
L 83.642442 352.401851 
L 83.281779 353.08221 
L 83.252337 353.568181 
L 82.957919 354.336014 
L 83.318581 355.541221 
L 83.406907 356.581198 
L 83.303861 357.378189 
L 83.421628 358.223778 
L 83.208175 359.448423 
L 83.384826 361.042407 
L 82.854872 362.704426 
L 83.399547 363.579173 
L 83.613 364.706624 
L 84.106151 365.523055 
L 84.400569 366.242291 
L 85.762255 366.961527 
L 85.453115 368.380561 
L 84.923162 369.294186 
L 83.083047 371.043679 
L 82.707663 371.957304 
L 81.22085 373.940064 
L 80.58049 375.796471 
L 80.234548 376.612901 
L 79.778199 377.322418 
L 79.535304 377.95418 
L 79.608909 378.683136 
L 79.4617 379.460688 
L 79.579467 380.801967 
L 78.953828 382.668094 
L 78.468037 383.270697 
L 78.092654 384.232919 
L 77.224119 385.962974 
L 77.54798 386.759965 
L 76.627922 388.421984 
L 76.252538 389.306451 
L 75.715225 390.015968 
L 74.979178 391.823778 
L 74.831969 392.805438 
L 74.552272 393.573272 
L 73.278912 395.711542 
L 72.807842 396.3919 
L 72.417738 396.712641 
L 72.034994 397.431877 
L 71.681692 399.229968 
L 71.151738 399.842291 
L 71.01189 400.406017 
L 70.658588 401.028059 
L 70.54082 401.552907 
L 69.848937 403.370437 
L 70.025588 404.225745 
L 70.349448 404.96442 
L 70.791076 405.051895 
L 70.739553 405.090772 
L 71.026611 405.46011 
L 72.977133 406.908302 
L 73.440842 408.113509 
L 73.300993 408.900781 
L 72.822563 409.503384 
L 72.344133 410.825224 
L 71.954029 411.495863 
L 71.306308 411.962395 
L 68.421007 416.627712 
L 67.927856 417.949552 
L 67.361101 418.173098 
L 67.235973 420.010067 
L 67.007799 421.409662 
L 66.315915 422.663465 
L 65.572509 424.461556 
L 65.476823 424.636506 
L 65.27809 424.451837 
L 65.211846 424.966966 
L 64.939509 425.06416 
L 64.630369 424.937807 
L 64.372753 425.025282 
L 64.085695 425.346023 
L 63.938486 425.72508 
L 63.658789 427.066358 
L 63.298126 428.368759 
L 62.981626 428.903327 
L 62.539998 429.399016 
L 62.326545 429.904426 
L 61.980603 430.409835 
L 61.980603 430.711137 
L 61.075267 432.781371 
L 60.928057 433.578363 
L 60.066883 435.590281 
L 60.030081 435.979057 
L 59.514849 436.776049 
L 59.264593 436.999595 
L 58.329814 437.446688 
L 57.336152 438.904599 
L 56.776757 439.478045 
L 56.474978 439.983454 
L 56.077513 441.023431 
L 55.55492 441.227538 
L 55.532839 441.674631 
L 54.988165 441.927336 
L 54.701107 443.17142 
L 53.449828 445.873416 
L 52.426724 447.506277 
L 51.734841 448.293549 
L 51.256411 449.547353 
L 50.998795 450.149957 
L 50.255388 451.326005 
L 49.799039 452.054961 
L 49.1734 452.832514 
L 48.724412 453.425398 
L 47.208157 454.096037 
L 46.921099 454.358461 
L 46.979983 455.0291 
L 46.810692 455.437316 
L 46.501553 455.826092 
L 45.98632 456.691119 
L 45.743425 457.400636 
L 43.704577 460.695516 
L 43.380717 461.414753 
L 43.086298 463.203124 
L 43.152543 464.476367 
L 42.166241 465.195603 
L 41.99695 466.128666 
L 41.268264 467.703211 
L 40.951765 469.355511 
L 39.869777 470.978652 
L 39.074847 472.49488 
L 38.037022 473.855597 
L 36.815185 475.838357 
L 36.793104 476.586752 
L 36.218988 477.996066 
L 35.681674 478.676425 
L 35.416697 479.220712 
L 34.511361 480.299566 
L 33.134954 482.583627 
L 32.612362 483.468094 
L 32.185455 483.817992 
L 31.118188 484.041539 
L 31.029862 484.595545 
L 30.639758 485.023199 
L 30.234933 485.188429 
L 30.433665 485.936824 
L 30.308537 487.394735 
L 30.058281 487.909864 
L 29.955235 488.648539 
L 29.484165 489.542725 
L 28.667154 490.223084 
L 28.144561 490.893723 
L 27.555725 492.176685 
L 26.709271 493.449928 
L 25.627284 495.695111 
L 25.215098 496.472664 
L 23.890215 497.85282 
L 23.279296 499.155221 
L 23.286657 500.039688 
L 22.85975 500.583975 
L 22.778785 501.244894 
L 22.521169 501.837778 
L 21.858727 502.848597 
L 20.93867 504.316228 
L 21.291972 505.297888 
L 21.932332 505.686665 
L 22.013297 506.046283 
L 22.447564 506.610009 
L 23.110006 506.716922 
L 23.448587 506.950188 
L 24.272959 507.280648 
L 24.795551 507.329245 
L 25.700888 507.805496 
L 28.453701 509.418918 
L 29.432642 509.963205 
L 32.612362 511.984842 
L 33.723791 512.626323 
L 34.776337 513.141452 
L 35.806802 513.50107 
L 37.499708 514.65768 
L 38.589056 515.075615 
L 39.038045 515.221406 
L 39.354544 515.454672 
L 40.200998 515.862887 
L 40.605823 516.776511 
L 40.458614 516.591843 
L 40.164195 516.747353 
L 40.458614 516.689037 
L 40.701509 516.834828 
L 40.775114 517.184727 
L 41.547962 517.660978 
L 42.747717 518.166387 
L 43.991635 518.837026 
L 44.735042 519.050853 
L 45.574134 519.118889 
L 46.891657 519.60486 
L 49.342691 520.907261 
L 49.8064 521.441828 
L 51.07976 522.024993 
L 52.213271 522.851143 
L 53.405666 523.677292 
L 54.679025 524.396529 
L 55.128014 524.901938 
L 55.834618 525.076887 
L 56.460257 525.397628 
L 56.953408 525.951634 
L 57.490722 526.291814 
L 60.008 527.263755 
L 60.905976 527.99271 
L 61.29608 528.294012 
L 62.503196 529.528377 
L 63.496858 530.1407 
L 63.636707 530.422563 
L 63.511579 530.821059 
L 63.128835 531.501417 
L 62.436952 533.357825 
L 61.752429 535.525253 
L 61.561057 536.4 
L 59.367639 534.708823 
L 57.328792 533.834076 
L 56.210001 533.250911 
L 55.091211 533.075962 
L 54.443491 533.260631 
L 53.825212 533.250911 
L 53.16277 533.085681 
L 52.588654 531.375065 
L 52.04398 530.325369 
L 51.499306 530.247614 
L 50.520365 529.372867 
L 50.019853 528.81886 
L 48.591924 527.99271 
L 48.069331 527.982991 
L 47.524657 527.808042 
L 46.435308 527.740006 
L 45.206111 527.17628 
L 44.852809 526.52508 
L 44.043158 526.165461 
L 42.453299 526.077987 
L 41.238823 526.35013 
L 40.377649 526.291814 
L 38.537533 525.154643 
L 38.434487 524.600636 
L 38.684742 523.570379 
L 40.318765 519.692334 
L 40.826637 519.186925 
L 40.856079 518.759271 
L 41.150497 518.457969 
L 41.34923 517.758172 
L 41.047451 517.602661 
L 41.084253 517.660978 
L 41.025369 517.680417 
L 41.128416 517.573503 
L 41.960148 515.794851 
L 44.69824 511.382239 
L 45.552053 510.653283 
L 46.14089 509.88545 
L 46.854855 508.56361 
L 47.392168 508.116517 
L 47.752831 507.426439 
L 48.238622 506.162916 
L 49.136598 504.219034 
L 50.939911 499.864738 
L 51.08712 499.00943 
L 51.40362 498.299913 
L 52.132306 497.988892 
L 53.273177 496.103327 
L 53.508712 495.491004 
L 53.862014 494.966156 
L 55.260502 492.176685 
L 55.724211 491.564362 
L 55.967106 490.922881 
L 56.03335 490.310558 
L 56.239443 489.678797 
L 57.012292 488.337518 
L 58.050117 486.685218 
L 58.756721 485.596644 
L 59.823988 484.002661 
L 60.65572 482.778016 
L 61.693545 480.824414 
L 62.179336 480.250969 
L 65.631392 473.768123 
L 65.822764 473.048886 
L 66.55145 471.629852 
L 67.02988 470.035869 
L 68.406286 467.440787 
L 69.804774 465.807926 
L 70.86468 463.93208 
L 72.322052 461.220364 
L 73.205307 459.305641 
L 74.037039 458.090714 
L 74.279935 457.517269 
L 74.802527 457.303442 
L 74.898213 456.613364 
L 75.119027 455.991322 
L 75.626899 455.612265 
L 76.44391 454.475094 
L 77.040108 454.125195 
L 78.725653 452.132716 
L 78.379712 451.296847 
L 78.98327 450.480417 
L 79.167281 449.994446 
L 79.336572 449.984727 
L 79.159921 449.887533 
L 78.762456 449.60567 
L 78.696212 449.489037 
L 78.328188 449.479317 
L 78.364991 449.411281 
L 78.652049 448.915592 
L 78.850781 447.904773 
L 79.1452 446.485739 
L 79.402816 446.096963 
L 80.087339 443.297773 
L 80.330234 443.054787 
L 80.963234 443.064507 
L 81.353338 443.074226 
L 82.611977 441.830142 
L 83.14193 440.887359 
L 83.686605 437.611918 
L 86.80008 433.422852 
L 87.388917 432.188487 
L 87.646533 431.6442 
L 88.647556 430.283483 
L 89.339439 428.883888 
L 90.141729 427.513451 
L 90.583357 426.910848 
L 91.775752 424.72398 
L 92.349868 424.208852 
L 92.931344 423.849233 
L 93.792518 422.614868 
L 93.961809 421.915071 
L 95.014355 419.835117 
L 95.57375 419.45606 
L 95.985936 418.834018 
L 96.972238 417.745444 
L 97.141528 417.113682 
L 97.833412 415.704368 
L 98.157272 414.887938 
L 99.011086 413.789644 
L 99.526318 413.381429 
L 99.622004 411.699971 
L 100.593585 409.940758 
L 101.086736 409.270119 
L 101.351712 408.58004 
L 102.183444 407.462308 
L 102.728119 407.131848 
L 103.611374 406.091872 
L 105.046664 404.624241 
L 105.78271 404.274342 
L 106.10657 403.700897 
L 106.526117 403.506509 
L 106.688047 402.971941 
L 106.688047 402.49569 
L 107.446175 400.35742 
L 107.747953 399.754816 
L 107.799477 399.016141 
L 107.976128 398.413538 
L 109.058116 397.422158 
L 109.367255 397.043101 
L 109.934011 396.89731 
L 110.213708 396.207232 
L 110.08122 395.876772 
L 110.544929 395.186694 
L 110.662696 393.816257 
L 110.912952 392.008447 
L 112.15687 390.093723 
L 112.458649 389.802141 
L 112.488091 388.713567 
L 112.598498 388.383107 
L 113.371346 387.556957 
L 113.776171 386.84744 
L 114.23252 384.913277 
L 114.725671 384.524501 
L 115.82238 383.912178 
L 116.595228 382.765288 
L 116.897007 380.928319 
L 116.816042 380.286838 
L 116.514263 379.528724 
L 116.705635 378.896963 
L 117.58153 377.273821 
L 117.927472 376.457391 
L 118.310216 376.107492 
L 119.362762 376.719815 
L 119.384843 376.544865 
L 119.480529 376.46711 
L 119.671901 376.399074 
L 119.841192 375.98114 
L 121.489935 372.773734 
L 121.902121 372.3558 
L 122.086133 370.965924 
L 122.395272 370.421637 
L 122.903144 370.023141 
L 123.558225 368.769338 
L 124.154422 368.157015 
L 124.250108 367.369743 
L 124.448841 366.728261 
L 124.721178 366.232572 
L 124.993515 364.706624 
L 125.795805 363.413943 
L 126.369921 362.908533 
L 126.715863 362.296211 
L 126.951398 361.15904 
L 126.524491 359.215158 
L 126.244793 358.622274 
L 125.825247 358.097426 
L 125.317375 357.776685 
L 124.478283 356.882499 
L 123.47726 356.134105 
L 122.726493 355.181603 
L 122.446795 354.588719 
L 122.04197 354.06387 
L 121.56354 352.42129 
L 121.850598 352.09083 
L 121.946284 351.808967 
L 121.872679 350.730113 
L 122.645528 348.698756 
L 123.705434 347.396355 
L 124.573969 346.521608 
L 125.118643 346.142551 
L 126.612816 344.35418 
L 127.591758 342.390859 
L 128.872478 339.066821 
L 129.417152 337.667226 
L 130.374012 336.170437 
L 131.102698 334.731964 
L 131.323512 334.080764 
L 132.41286 331.855019 
L 132.641034 331.232977 
L 134.194092 328.521261 
L 135.047905 327.374371 
L 135.27608 326.791206 
L 136.203498 325.566561 
L 137.175079 324.536303 
L 140.722821 321.669077 
L 143.512436 320.765172 
L 145.632249 320.784611 
L 146.353574 320.881805 
L 147.163225 321.202546 
L 147.87719 321.348337 
L 148.524911 321.707955 
L 149.754108 322.543824 
L 150.365026 322.981198 
L 154.405919 324.400231 
L 155.878012 324.283598 
L 156.680302 324.157246 
L 157.843255 323.622679 
L 160.301649 322.067573 
L 161.464602 321.13451 
L 162.54659 319.987619 
L 163.444566 318.724096 
L 164.276298 317.489731 
L 164.62224 316.828811 
L 165.365647 314.661383 
L 165.976565 313.115997 
L 166.69789 311.852473 
L 168.405517 309.986347 
L 169.789284 308.956089 
L 172.343364 307.430142 
L 174.18348 306.176338 
L 174.66191 305.632051 
L 175.824863 304.698988 
L 176.318014 304.203298 
L 177.53985 302.482962 
L 178.356861 301.268036 
L 179.026663 299.88788 
L 179.600779 298.56604 
L 179.998244 297.953717 
L 181.485058 293.366156 
L 181.764755 291.840208 
L 181.485058 289.556147 
L 181.249523 288.768875 
L 180.491395 287.398438 
L 180.020326 286.747237 
L 179.483012 285.318484 
L 179.254838 281.654267 
L 179.44621 280.011686 
L 180.064488 278.369106 
L 181.028709 277.027828 
L 181.801557 275.560197 
L 182.809941 274.257796 
L 183.825684 272.984553 
L 185.415544 271.575239 
L 186.880276 270.56442 
L 188.418612 269.679954 
L 191.038937 267.706914 
L 192.20189 266.530865 
L 192.739203 265.140989 
L 192.665599 264.557825 
L 192.834889 263.002719 
L 193.033622 260.213248 
L 193.725505 257.598727 
L 194.027284 257.103037 
L 194.387947 255.965866 
L 194.984144 253.390223 
L 195.381609 251.971189 
L 196.183899 248.715187 
L 196.272225 248.122303 
L 197.015631 245.85768 
L 197.31741 244.71079 
L 199.3857 239.880243 
L 201.166932 236.954701 
L 203.05121 234.738675 
L 207.754545 229.762337 
L 208.15201 229.256928 
L 209.292881 227.313046 
L 209.712428 226.681284 
L 209.91116 226.039803 
L 211.015229 223.62939 
L 211.743915 221.850738 
L 211.861682 221.287012 
L 213.341135 218.51698 
L 215.954099 214.036332 
L 217.595482 212.073011 
L 217.978226 211.60648 
L 219.538644 210.401273 
L 220.090679 209.95418 
L 221.55541 209.264102 
L 222.924456 208.63234 
L 224.381828 208.272722 
L 225.066351 208.039456 
L 225.677269 207.699277 
L 227.61307 207.3105 
L 228.356477 207.193868 
L 229.416383 207.436853 
L 232.743312 207.932543 
L 234.553986 208.000579 
L 235.856787 208.058895 
L 237.01238 207.932543 
L 238.410867 207.48545 
L 239.662146 206.785652 
L 241.472819 204.968123 
L 242.60633 203.840671 
L 243.541109 202.460515 
L 244.586295 200.390281 
L 253.359965 184.897541 
L 253.558697 184.275499 
L 254.015046 183.614579 
L 254.927743 181.583222 
L 259.292497 173.827133 
L 260.536415 171.280648 
L 262.553181 167.752502 
L 263.789739 165.789181 
L 264.098878 165.079664 
L 264.93061 163.680069 
L 266.579354 160.151924 
L 267.013621 159.374371 
L 267.30804 158.587099 
L 268.169214 157.022274 
L 268.59612 155.389413 
L 268.515155 150.024299 
L 268.470992 148.216488 
L 268.647644 147.429216 
L 268.794853 145.699161 
L 269.324806 143.959387 
L 269.560341 142.171015 
L 269.501457 139.614811 
L 268.875818 137.243275 
L 267.79383 134.832861 
L 266.277575 131.790686 
L 266.211331 131.149205 
L 266.564633 127.562742 
L 267.219714 125.900723 
L 270.495119 119.563668 
L 270.922026 118.786115 
L 275.242617 113.061383 
L 277.428674 110.728724 
L 278.510662 109.591553 
L 280.291894 107.83234 
L 282.198253 105.353891 
L 283.066788 103.944576 
L 283.383288 102.428348 
L 283.339125 100.163726 
L 283.052067 95.041597 
L 283.839636 90.016662 
L 284.421113 87.0814 
L 284.516799 86.42048 
L 284.892182 84.93341 
L 285.061473 84.243332 
L 286.003612 82.221695 
L 286.629251 80.880417 
L 287.034077 80.287533 
L 289.588157 77.779925 
L 291.568121 76.652473 
L 293.820422 75.369511 
L 294.58591 74.747469 
L 295.189468 73.969916 
L 295.557491 73.124327 
L 295.712061 72.220422 
L 295.623735 71.238762 
L 295.299875 70.325137 
L 294.872968 69.489268 
L 294.247329 68.789471 
L 293.518643 68.206306 
L 292.642748 67.836968 
L 290.787912 67.671739 
L 288.21175 68.497888 
L 286.658693 69.479549 
L 284.502078 71.229043 
L 283.699787 71.656697 
L 281.925916 71.860804 
L 280.299254 71.238762 
L 279.607371 70.791669 
L 278.63579 69.081053 
L 278.466499 68.206306 
L 278.628429 67.31212 
L 279.798743 65.028059 
L 280.299254 64.328261 
L 280.983777 63.706219 
L 282.735567 61.54851 
L 286.872146 55.250333 
L 287.578751 53.656349 
L 288.35896 51.313972 
L 288.447285 50.575296 
L 288.800587 49.03963 
L 288.910994 48.300955 
L 288.815308 46.833324 
L 288.763785 46.162684 
L 288.439925 45.424009 
L 286.666054 43.013596 
L 282.419067 39.261903 
L 280.446463 37.706798 
L 279.43072 37.084756 
L 277.458116 35.986462 
L 276.214198 35.52965 
L 275.647443 35.481053 
L 274.506571 35.072838 
L 273.019758 34.616025 
L 269.891562 33.88707 
L 269.368969 33.595487 
L 267.653981 33.323344 
L 266.82961 33.022042 
L 265.732901 32.759618 
L 264.636192 32.4 
L 262.641507 32.89569 
L 261.780333 33.498293 
L 261.456473 33.896789 
L 260.668903 34.363321 
L 260.183113 34.965924 
L 259.542753 35.578247 
L 259.270416 36.316922 
L 259.005439 36.647382 
L 258.306195 38.338559 
L 258.269393 38.82453 
L 258.129544 39.242465 
L 258.357718 40.126931 
L 259.056962 41.730633 
L 259.307218 42.294359 
L 260.882357 43.548163 
L 261.588961 44.09245 
L 262.405972 44.286838 
L 263.208262 44.636737 
L 264.238727 45.171305 
L 266.476307 46.182123 
L 266.9989 46.73613 
L 267.771749 47.708071 
L 268.301702 49.302054 
L 268.345865 51.430605 
L 268.360586 52.32479 
L 268.618202 53.539717 
L 269.427852 57.155337 
L 269.847399 58.438299 
L 270.090294 59.90593 
L 269.604504 63.336882 
L 269.030388 65.17385 
L 268.544597 66.038878 
L 267.985202 66.806711 
L 267.602458 67.623141 
L 266.454226 69.149089 
L 265.791784 69.819728 
L 262.928565 71.744171 
L 262.133635 72.181545 
L 261.507996 72.706393 
L 257.599591 74.183743 
L 255.722673 75.38895 
L 254.898301 76.088747 
L 254.08129 76.934336 
L 253.507174 77.847961 
L 252.793209 79.850159 
L 252.241175 81.726005 
L 251.630256 83.154758 
L 251.159187 83.815678 
L 249.966792 84.952849 
L 249.348513 85.361065 
L 246.411689 86.702343 
L 245.616759 87.120278 
L 244.0269 87.615968 
L 242.370796 87.985305 
L 240.420273 89.025282 
L 239.507576 89.812554 
L 238.815693 90.113856 
L 236.946136 90.483194 
L 235.834706 90.483194 
L 233.589765 89.618166 
L 233.148137 89.540411 
L 228.871709 86.58571 
L 225.839199 85.409662 
L 223.954921 84.690425 
L 223.027503 83.980908 
L 221.70998 82.940931 
L 221.187387 82.668788 
L 220.775201 82.182817 
L 220.186365 81.774602 
L 217.617563 80.384727 
L 216.785831 80.345849 
L 216.388366 80.132022 
L 215.637599 79.451663 
L 214.702821 78.712988 
L 213.745961 78.032629 
L 212.818542 77.342551 
L 211.883764 76.749667 
L 211.287566 76.137345 
L 209.697707 75.204281 
L 206.834487 73.357593 
L 206.216208 73.172925 
L 205.723058 73.270119 
L 205.193104 73.74637 
L 203.713652 76.195661 
L 203.21314 77.167602 
L 202.926082 77.653572 
L 202.558059 78.547758 
L 201.969222 79.480822 
L 201.586478 80.404165 
L 201.277339 80.724906 
L 201.093327 81.939832 
L 201.093327 82.600752 
L 200.806269 82.280012 
L 200.924037 82.542436 
L 197.582387 84.369685 
L 195.602423 85.43882 
L 197.022992 85.672086 
L 196.846341 86.041423 
L 196.610806 87.207752 
L 196.102934 87.635406 
L 195.749632 88.23801 
L 194.991505 88.986404 
L 195.271202 89.569569 
L 194.59404 90.726179 
L 193.975761 92.01886 
L 193.526773 92.85473 
L 192.717122 95.061036 
L 192.84961 94.15713 
L 192.547831 94.944403 
L 191.870669 96.110732 
L 191.900111 96.723055 
L 191.671936 97.228464 
L 191.421681 98.326757 
L 191.186146 98.754411 
L 190.486902 99.288979 
L 189.103135 101.670234 
L 187.925461 104.158403 
L 187.623682 104.391669 
L 187.358706 104.770726 
L 187.064287 104.965114 
L 186.63002 105.577437 
L 186.173672 105.762106 
L 185.879253 106.52022 
L 185.849811 107.00619 
L 185.695242 107.433844 
L 185.238893 107.774024 
L 184.385079 109.902574 
L 184.0833 110.087243 
L 183.700556 110.067804 
L 183.317812 110.913393 
L 182.832022 112.196355 
L 181.094953 114.237431 
L 180.219058 116.783917 
L 179.887837 118.076598 
L 179.674384 118.513972 
L 179.409407 118.397339 
L 178.724884 119.515071 
L 178.202292 120.389818 
L 177.745943 121.692219 
L 177.606094 122.294822 
L 176.590351 124.083194 
L 176.332734 124.30674 
L 175.199223 126.474168 
L 174.654549 127.310038 
L 174.426375 127.883483 
L 173.609364 128.651316 
L 173.094131 129.730171 
L 172.12255 131.790686 
L 171.894376 132.160023 
L 171.548434 133.073648 
L 171.357062 133.462424 
L 171.033202 133.617935 
L 170.760865 133.919236 
L 169.428621 137.039167 
L 169.119482 137.427943 
L 166.85246 141.374024 
L 165.785193 143.07492 
L 165.159554 144.124617 
L 164.526554 145.05768 
L 164.077566 146.117096 
L 163.680101 146.603066 
L 161.464602 150.869887 
L 160.868405 151.618282 
L 160.213324 152.697136 
L 159.779056 153.999537 
L 158.586662 156.050333 
L 157.592999 158.110848 
L 156.97472 158.587099 
L 156.834872 159.06335 
L 156.518372 159.316054 
L 155.981058 160.832282 
L 155.37014 161.872259 
L 155.149326 162.377668 
L 154.825466 162.649812 
L 153.93485 164.311831 
L 154.067338 165.040787 
L 154.405919 165.944692 
L 154.773942 166.032167 
L 155.671919 166.761122 
L 155.929535 166.868036 
L 156.00314 166.974949 
L 156.290198 167.023546 
L 156.415325 167.013827 
L 156.415325 167.013827 
" style="fill:none;stroke:#000000;stroke-width:3;"/>
   </g>
  </g>
 </g>
 <defs>
  <clipPath id="p3db8424b89">
   <rect height="554.4" width="302.25073" x="7.2" y="7.2"/>
  </clipPath>
 </defs>
</svg>
