<?xml version="1.0" encoding="utf-8" standalone="no"?>
<!DOCTYPE svg PUBLIC "-//W3C//DTD SVG 1.1//EN"
  "http://www.w3.org/Graphics/SVG/1.1/DTD/svg11.dtd">
<svg height="568.8pt" version="1.1" viewBox="0 0 186.68327 568.8" width="186.68327pt" xmlns="http://www.w3.org/2000/svg" xmlns:xlink="http://www.w3.org/1999/xlink">
 <metadata>
  <rdf:RDF xmlns:cc="http://creativecommons.org/ns#" xmlns:dc="http://purl.org/dc/elements/1.1/" xmlns:rdf="http://www.w3.org/1999/02/22-rdf-syntax-ns#">
   <cc:Work>
    <dc:type rdf:resource="http://purl.org/dc/dcmitype/StillImage"/>
    <dc:date>2021-10-17T02:01:05.198066</dc:date>
    <dc:format>image/svg+xml</dc:format>
    <dc:creator>
     <cc:Agent>
      <dc:title>Matplotlib v3.4.3, https://matplotlib.org/</dc:title>
     </cc:Agent>
    </dc:creator>
   </cc:Work>
  </rdf:RDF>
 </metadata>
 <defs>
  <style type="text/css">*{stroke-linecap:butt;stroke-linejoin:round;}</style>
 </defs>
 <g id="figure_1">
  <g id="patch_1">
   <path d="M 0 568.8 
L 186.68327 568.8 
L 186.68327 0 
L 0 0 
z
" style="fill:#ffffff;"/>
  </g>
  <g id="axes_1">
   <g id="LineCollection_1">
    <path clip-path="url(#pa1438e65e9)" d="M 21.493218 536.4 
L 21.410173 536.340809 
L 21.11249 536.148015 
L 20.886353 536.017795 
L 20.468574 535.72184 
L 19.960084 535.713384 
L 19.589577 535.473237 
L 19.509087 535.356546 
L 17.734484 534.147358 
L 17.427857 533.966402 
L 17.06246 533.792211 
L 16.94492 533.768535 
L 15.116658 532.63714 
L 15.031058 532.381773 
L 15.245696 532.109494 
L 15.48461 531.827068 
L 15.984156 530.998393 
L 16.20135 530.710894 
L 16.905314 529.513543 
L 17.384419 528.742369 
L 17.758759 528.130164 
L 18.119045 527.624503 
L 18.328574 527.203401 
L 19.810603 524.700465 
L 19.984359 524.304731 
L 20.211774 523.873481 
L 20.979618 522.728557 
L 21.204478 522.412308 
L 21.65803 521.553192 
L 22.023427 520.979884 
L 22.212514 520.582459 
L 25.846042 513.127768 
L 26.36603 511.551595 
L 26.527009 510.464171 
L 26.581946 509.2516 
L 26.898794 507.261089 
L 27.242471 506.67087 
L 28.081862 504.952638 
L 28.097194 504.658374 
L 28.39871 504.16286 
L 28.647844 503.948081 
L 28.631235 503.724846 
L 29.014519 503.117715 
L 29.558782 502.290731 
L 31.28739 499.47662 
L 31.536525 499.021694 
L 31.90831 498.304637 
L 32.074399 497.941034 
L 36.606088 489.836933 
L 37.828763 487.59782 
L 38.544225 486.758998 
L 38.790805 486.608484 
L 39.147258 486.080838 
L 39.433443 485.849147 
L 40.073527 484.421797 
L 40.928249 483.728416 
L 40.966577 483.383417 
L 41.284703 482.529375 
L 41.450792 482.290919 
L 41.653933 481.837685 
L 41.832798 480.921069 
L 42.189252 479.989233 
L 42.838279 478.553427 
L 42.99287 477.963208 
L 43.058028 477.719679 
L 43.694279 476.821666 
L 44.029013 476.036962 
L 44.583497 475.072993 
L 44.901622 474.430347 
L 45.807449 472.937041 
L 47.087616 470.620134 
L 48.949096 467.303744 
L 49.217395 466.650951 
L 50.217765 464.920881 
L 50.440069 464.484559 
L 50.980499 463.652502 
L 51.758564 462.451769 
L 52.150791 461.513168 
L 52.407591 461.115742 
L 52.850923 460.312435 
L 53.120499 459.899789 
L 53.396463 459.323099 
L 55.963185 454.518476 
L 56.401406 453.671198 
L 56.508725 453.397228 
L 56.911173 452.593921 
L 57.256128 451.991864 
L 57.739065 451.291718 
L 58.430253 449.91003 
L 59.011567 449.050914 
L 59.155937 448.766797 
L 59.591602 448.049739 
L 59.735973 447.718269 
L 60.986755 445.463936 
L 61.118349 445.21026 
L 61.462026 444.741805 
L 63.046265 441.004312 
L 63.042432 440.407328 
L 63.191913 437.885789 
L 63.374611 436.957335 
L 64.143733 433.204623 
L 64.253608 432.918814 
L 64.486133 431.893963 
L 64.791483 431.112642 
L 65.173488 430.422643 
L 65.163268 430.119923 
L 65.650038 429.528012 
L 65.848067 429.370733 
L 65.642372 429.284483 
L 65.314026 429.172866 
L 64.308545 428.70272 
L 63.41805 428.631691 
L 63.384832 428.741617 
L 63.39633 428.920881 
L 63.082038 429.248969 
L 62.940223 429.397792 
L 62.900617 429.347057 
L 62.798408 429.191469 
L 62.104665 429.030808 
L 61.913023 429.139043 
L 61.628116 430.297496 
L 61.501632 430.368525 
L 60.931817 430.246761 
L 60.298122 429.893306 
L 60.41694 429.551689 
L 60.471877 428.998675 
L 59.945501 428.826176 
L 59.885453 429.14919 
L 59.692534 429.391027 
L 59.927614 428.922572 
L 59.802408 428.567426 
L 59.36802 428.3425 
L 56.84857 427.67956 
L 56.890731 427.600075 
L 56.807686 427.591619 
L 55.312881 427.109635 
L 54.251185 426.844121 
L 53.741418 426.730812 
L 53.468009 426.668239 
L 52.808761 426.51096 
L 51.570756 426.125372 
L 48.569645 425.347433 
L 47.640822 425.08361 
L 45.56598 424.55089 
L 43.515413 424.018171 
L 42.379616 423.727289 
L 41.234876 423.387363 
L 39.671079 423.030526 
L 38.525061 422.717659 
L 38.002518 422.584056 
L 37.540023 422.450453 
L 35.308035 421.934646 
L 34.739498 421.777366 
L 33.159092 421.418838 
L 31.752441 421.329206 
L 31.553134 421.648837 
L 31.297611 422.198469 
L 31.157074 423.279128 
L 31.10597 423.781406 
L 31.010149 424.422361 
L 31.001205 425.115742 
L 30.647307 426.649636 
L 30.621755 427.004782 
L 30.522101 427.985663 
L 30.382841 428.5725 
L 29.194662 432.052934 
L 29.307092 432.347198 
L 29.423355 432.675285 
L 29.801528 432.969549 
L 30.382841 433.15727 
L 30.711187 433.131902 
L 31.316775 432.709109 
L 31.74222 432.222051 
L 32.042459 431.741758 
L 32.738757 429.889923 
L 32.939342 429.353822 
L 33.114375 429.13566 
L 34.624512 426.128755 
L 35.388524 424.880669 
L 35.774363 424.188979 
L 35.951951 423.603833 
L 36.828393 420.640898 
L 36.894829 419.485827 
L 37.017479 418.790755 
L 37.358602 416.127157 
L 37.610291 414.96363 
L 37.812154 414.364955 
L 37.965467 414.138338 
L 38.099617 413.554883 
L 39.02333 411.065477 
L 39.688966 410.177611 
L 40.481085 409.661803 
L 41.241264 409.514671 
L 41.903067 409.616141 
L 42.203306 409.957758 
L 42.355342 410.257096 
L 42.950709 410.876065 
L 43.392762 411.270109 
L 43.424703 411.107756 
L 43.653395 410.339963 
L 43.566518 410.108273 
L 43.482195 409.969596 
L 43.609956 409.639818 
L 44.174661 409.112172 
L 44.418685 408.351144 
L 44.224488 408.139747 
L 43.515413 407.816733 
L 43.285443 407.684822 
L 43.038864 406.944088 
L 43.899974 405.57762 
L 44.349694 404.933283 
L 44.603938 404.359976 
L 44.771305 404.190858 
L 45.045992 403.700418 
L 46.225228 401.241453 
L 46.306995 400.913365 
L 46.367043 400.652924 
L 46.717108 399.027707 
L 47.239651 397.661239 
L 47.522004 396.766609 
L 47.668929 396.338742 
L 49.090911 393.643012 
L 49.196953 393.252351 
L 49.373263 392.641838 
L 49.923914 391.244929 
L 50.261203 390.9439 
L 50.381299 390.563386 
L 50.65343 389.766844 
L 50.84635 389.345742 
L 51.0546 388.769052 
L 51.170863 388.561037 
L 52.925024 385.865307 
L 53.133275 385.339353 
L 53.225263 384.786339 
L 53.225263 384.45656 
L 53.455233 383.621121 
L 52.866254 382.577667 
L 52.718051 382.044948 
L 52.576236 381.676272 
L 52.408869 380.896641 
L 52.269609 380.940612 
L 52.344988 380.827303 
L 52.500857 380.358848 
L 53.267424 378.474881 
L 53.747806 377.614074 
L 54.16303 375.594814 
L 54.606361 373.250848 
L 54.957704 372.729967 
L 56.954612 370.519604 
L 57.433716 369.968281 
L 58.135125 368.571372 
L 58.650003 367.130493 
L 58.807149 365.79954 
L 59.053728 364.825424 
L 59.628653 363.524912 
L 59.825405 363.076751 
L 59.976164 362.623517 
L 61.078743 360.014037 
L 61.873417 358.248452 
L 62.268199 357.204998 
L 62.592713 356.575882 
L 63.029656 355.591619 
L 63.110145 354.573533 
L 63.227686 354.06449 
L 64.037692 352.618537 
L 64.335375 352.040156 
L 66.047375 348.980824 
L 66.10359 348.353399 
L 66.212187 347.047813 
L 66.856103 345.001494 
L 66.944258 344.619289 
L 67.093739 343.636717 
L 67.368426 342.608484 
L 67.45147 342.075765 
L 68.147769 340.022681 
L 68.598766 339.37327 
L 68.858121 338.370404 
L 70.060354 335.82688 
L 70.962348 334.140781 
L 71.237034 332.706666 
L 71.452951 330.886964 
L 71.644592 330.122554 
L 72.21313 328.049176 
L 72.285953 327.396383 
L 72.657738 326.011312 
L 72.888986 325.076093 
L 73.538013 322.913083 
L 74.27775 320.61647 
L 74.395291 320.273162 
L 74.643147 319.562869 
L 74.70575 319.307502 
L 74.947219 318.64118 
L 75.175911 317.99177 
L 75.747004 316.388538 
L 76.07024 314.854644 
L 76.121344 314.628026 
L 77.436007 310.102448 
L 77.447505 306.578043 
L 78.072257 305.402678 
L 78.286896 304.976502 
L 78.628018 304.213783 
L 78.874598 301.876582 
L 78.943589 300.031512 
L 79.444412 299.00497 
L 80.287636 297.263062 
L 80.699027 295.632771 
L 80.728412 294.575788 
L 80.575099 293.205938 
L 80.562323 292.597116 
L 80.784627 291.76675 
L 81.374884 289.745798 
L 81.751779 288.499403 
L 81.995803 287.652126 
L 82.273045 285.213454 
L 82.920794 282.81368 
L 83.259361 280.001259 
L 84.195851 277.780749 
L 84.496089 277.224353 
L 84.957307 276.251928 
L 85.087624 275.999944 
L 85.312483 275.800385 
L 85.599946 275.673547 
L 85.90274 275.152666 
L 85.895074 275.132372 
L 85.852913 275.174651 
L 85.67277 275.181416 
L 85.612722 275.015681 
L 86.326907 273.867374 
L 86.476388 273.102964 
L 86.596483 272.424804 
L 86.965713 268.306798 
L 86.965713 267.911063 
L 86.857116 265.621215 
L 86.947827 265.093569 
L 86.843062 264.339306 
L 86.59265 263.285705 
L 86.224698 262.489162 
L 86.148042 262.225339 
L 86.188925 261.611444 
L 86.392065 260.129976 
L 86.452113 259.568507 
L 86.394621 258.224024 
L 86.214477 257.659172 
L 86.243862 257.009762 
L 86.324352 255.660206 
L 86.339683 255.418368 
L 86.458501 254.038371 
L 86.707636 253.189402 
L 87.116471 251.567567 
L 87.280006 251.246244 
L 87.447373 250.542716 
L 87.595576 249.950806 
L 87.658179 249.499262 
L 87.52914 248.953014 
L 86.121212 247.375149 
L 86.283468 246.538019 
L 86.583707 245.457359 
L 86.737021 243.95898 
L 86.797068 242.710894 
L 86.906943 241.264941 
L 87.268507 237.733772 
L 88.735205 232.430253 
L 89.450668 230.62408 
L 90.637569 228.001071 
L 91.460351 225.834678 
L 92.767348 221.344614 
L 95.635587 208.966919 
L 95.745461 207.272363 
L 95.185868 202.692667 
L 95.337903 201.481787 
L 95.878333 199.837967 
L 96.711336 197.179443 
L 96.900423 194.519228 
L 96.72539 192.934599 
L 96.294835 191.368572 
L 95.266357 188.781078 
L 93.969581 185.571231 
L 93.240065 183.567191 
L 92.98071 182.415502 
L 92.992208 181.571607 
L 93.195348 180.658374 
L 93.623348 179.770508 
L 94.170166 179.085583 
L 94.92779 178.535952 
L 96.036757 177.807056 
L 97.002632 176.953014 
L 97.560948 176.178456 
L 98.045163 175.16037 
L 98.404172 172.090891 
L 98.367121 171.744201 
L 98.092434 170.484277 
L 97.746202 169.740161 
L 97.253043 169.065383 
L 95.9601 168.307737 
L 93.002429 166.626711 
L 92.506716 166.016198 
L 92.249916 165.378625 
L 92.198811 164.724141 
L 92.407062 163.851496 
L 92.889999 163.09216 
L 94.347754 161.264002 
L 95.696912 159.290403 
L 95.912829 158.113346 
L 96.177294 154.577103 
L 96.448148 152.009903 
L 95.443945 147.183295 
L 94.903515 146.043444 
L 94.234047 144.7108 
L 92.854226 139.566252 
L 92.224363 136.667581 
L 91.098787 132.862442 
L 90.571134 130.565829 
L 90.090752 129.689801 
L 89.684471 129.243332 
L 88.151337 127.726349 
L 87.799994 127.296791 
L 87.788495 127.305247 
L 87.760388 127.432085 
L 88.400471 127.995246 
L 88.626608 127.809217 
L 88.58317 127.347527 
L 88.657271 126.752234 
L 88.875743 126.069 
L 89.007337 125.494001 
L 89.308853 125.253854 
L 89.554155 125.142237 
L 89.881223 124.895326 
L 90.718059 124.530032 
L 90.983802 124.442091 
L 91.342811 124.393047 
L 91.459074 124.303415 
L 91.315981 124.147827 
L 90.917366 123.865401 
L 90.714226 123.926284 
L 90.974859 123.953342 
L 92.22053 124.149518 
L 92.569319 124.070033 
L 92.81973 123.741946 
L 92.92705 123.380035 
L 93.315444 122.534448 
L 93.436817 121.328642 
L 93.680841 120.696143 
L 94.343921 119.417616 
L 95.193533 118.375854 
L 95.380065 117.799164 
L 95.693079 117.05843 
L 96.002261 115.9338 
L 96.138966 115.509316 
L 96.482643 115.330051 
L 96.528638 115.306375 
L 96.379157 114.570715 
L 96.245008 112.154028 
L 95.975432 111.445427 
L 95.914106 111.113957 
L 95.594703 110.447635 
L 95.295742 110.158444 
L 95.059384 110.073885 
L 93.388268 110.292047 
L 93.047145 110.261606 
L 93.111026 108.925579 
L 95.906441 107.242862 
L 96.344661 106.498746 
L 96.487754 105.428233 
L 96.878703 105.22191 
L 98.284076 105.103528 
L 100.261819 104.964852 
L 102.088804 104.743308 
L 105.663562 104.24103 
L 106.132446 103.562869 
L 106.974392 102.417945 
L 107.439442 102.272504 
L 109.159108 102.118608 
L 109.817078 101.993461 
L 110.564481 101.903829 
L 113.080099 101.611256 
L 114.449698 101.506403 
L 116.039047 101.164786 
L 116.730235 101.017654 
L 117.352432 100.933095 
L 117.646283 100.848537 
L 118.292755 100.792728 
L 117.507023 100.731846 
L 117.125018 100.765669 
L 115.594439 101.218904 
L 115.10128 101.34405 
L 113.629472 101.523315 
L 113.643525 101.553756 
L 113.657579 101.563903 
L 113.454439 101.513168 
L 111.571239 101.73302 
L 109.137388 102.013755 
L 107.310404 102.243754 
L 106.810857 102.480519 
L 106.490177 102.603974 
L 105.468087 102.429783 
L 104.554595 102.448386 
L 100.926177 102.700371 
L 99.773772 102.702062 
L 98.349234 102.661474 
L 97.043515 102.534636 
L 96.168351 102.466989 
L 95.679026 102.270813 
L 94.817915 102.326622 
L 94.577724 102.527871 
L 94.465294 102.544783 
L 93.772829 105.281101 
L 93.099527 105.949114 
L 92.667695 106.358378 
L 92.681748 106.267055 
L 92.617868 105.643012 
L 92.170704 103.633899 
L 91.798919 102.994635 
L 90.848375 100.180523 
L 90.425486 96.142002 
L 88.928125 90.031794 
L 88.271432 88.102166 
L 87.842155 85.289745 
L 87.720782 82.292986 
L 87.886871 79.798506 
L 86.498107 63.203025 
L 86.676973 61.001118 
L 86.494274 53.480472 
L 86.473833 52.883488 
L 86.524937 52.284812 
L 86.863504 50.999521 
L 87.004041 50.438051 
L 87.350274 49.044525 
L 87.764221 47.865777 
L 87.709283 47.848866 
L 87.640292 47.892836 
L 87.670955 47.816733 
L 87.64157 47.634087 
L 88.224161 46.5585 
L 88.507791 45.942914 
L 88.479683 45.425415 
L 88.130895 44.067403 
L 87.916256 41.216085 
L 88.24588 40.296087 
L 88.344256 40.017043 
L 88.796531 38.826457 
L 89.017558 37.821901 
L 89.414895 34.278893 
L 89.29991 33.771541 
L 88.985617 33.622718 
L 85.545009 32.499779 
L 85.504125 32.624926 
L 85.615277 33.07816 
L 85.746871 33.543233 
L 86.372901 35.354479 
L 86.24514 36.832564 
L 85.767313 38.415502 
L 85.693212 38.682708 
L 86.117379 41.241453 
L 86.472555 43.105125 
L 87.494644 45.597914 
L 87.746334 46.113722 
L 87.944364 46.714088 
L 89.443002 48.758717 
L 90.981247 50.223272 
L 92.555265 51.310697 
L 95.654751 52.579076 
L 98.904995 52.912238 
L 101.7809 52.91562 
L 102.854094 52.91562 
L 104.443443 52.907164 
L 109.170606 52.90209 
L 124.139106 52.802311 
L 125.276181 52.760032 
L 134.457099 52.651797 
L 135.721935 52.646723 
L 138.88658 52.650106 
L 144.387976 52.653488 
L 146.471761 52.839517 
L 148.188871 53.289369 
L 149.545695 53.820397 
L 151.407175 54.904439 
L 152.958196 56.138996 
L 154.928273 58.269874 
L 157.252249 61.094133 
L 158.036703 61.816263 
L 158.523473 62.233983 
L 159.682267 62.386189 
L 159.96973 62.507953 
L 160.409228 62.35913 
L 160.7133 62.433542 
L 160.927938 62.568835 
L 160.906219 63.279128 
L 160.902386 63.615672 
L 160.936882 64.112876 
L 160.949658 64.745375 
L 161.527138 71.190435 
L 161.974303 73.140358 
L 162.11484 74.276826 
L 162.220882 75.78197 
L 162.386971 78.355936 
L 161.656177 79.008728 
L 161.1413 79.409536 
L 160.892165 79.590492 
L 160.758016 79.752844 
L 160.553598 79.97777 
L 160.073216 80.473284 
L 159.666936 80.977254 
L 158.863318 81.680782 
L 157.765849 82.590633 
L 157.782458 82.60078 
L 157.549933 82.920412 
L 157.249694 83.924968 
L 157.359569 84.63357 
L 158.244954 87.095918 
L 158.458315 88.039592 
L 158.948918 90.283779 
L 159.224882 94.836417 
L 159.097121 95.788547 
L 158.485145 99.416113 
L 158.381658 100.745375 
L 158.305001 101.010889 
L 158.043091 101.749932 
L 157.695581 102.350298 
L 157.653419 102.470372 
L 156.276154 104.264706 
L 156.099843 104.433823 
L 155.851987 105.071396 
L 155.789384 105.507718 
L 155.615629 106.059041 
L 155.514697 106.333011 
L 155.443151 107.449185 
L 155.522363 107.606464 
L 157.213921 107.900728 
L 157.639366 107.959919 
L 157.760739 108.325213 
L 157.517993 109.784695 
L 157.491163 110.933001 
L 157.227975 113.82829 
L 156.766757 114.516597 
L 156.495903 114.979978 
L 156.329814 115.40108 
L 156.076846 116.429314 
L 156.103676 116.962033 
L 156.103676 117.521811 
L 156.162446 117.910781 
L 156.348978 118.961 
L 156.360476 120.178644 
L 156.354088 121.573862 
L 155.880094 123.476432 
L 155.43293 124.563856 
L 153.889575 129.006567 
L 153.469241 130.04833 
L 152.988859 131.798694 
L 152.77422 133.012956 
L 152.637515 133.53722 
L 152.546805 134.420012 
L 157.860393 134.321924 
L 157.994542 134.636482 
L 158.241121 135.871039 
L 158.344607 136.85361 
L 158.43404 137.274712 
L 158.773885 139.544266 
L 159.551951 144.844403 
L 160.125598 146.598149 
L 160.391342 147.354103 
L 160.613646 147.531677 
L 161.989634 148.071161 
L 162.163389 148.086381 
L 162.564559 148.196308 
L 163.239138 148.367116 
L 165.109562 148.925203 
L 165.289705 149.368291 
L 165.441741 149.961892 
L 165.638493 149.938216 
L 165.812248 149.983877 
L 165.826302 150.682332 
L 165.841633 152.212844 
L 166.034553 153.560708 
L 166.475329 155.290778 
L 166.631198 156.751952 
L 166.773013 157.895185 
L 166.97743 158.759374 
L 167.267448 160.707606 
L 167.050254 162.972086 
L 166.82795 163.518335 
L 166.567317 164.223554 
L 166.684857 164.812082 
L 166.548153 165.468258 
L 166.470219 165.913036 
L 166.424224 166.685902 
L 166.40506 168.471781 
L 166.664415 169.207441 
L 166.824117 169.324132 
L 167.038756 169.286926 
L 167.479532 169.03325 
L 168.17583 169.472955 
L 168.114505 169.493249 
L 168.049347 169.640381 
L 167.874314 170.211998 
L 168.140057 169.70972 
L 168.36875 169.423911 
L 168.896403 169.547367 
L 171.179496 170.540085 
L 171.633048 171.033908 
L 171.385191 171.59876 
L 170.79749 172.260008 
L 170.021979 173.134345 
L 166.350123 179.875361 
L 165.303759 182.457782 
L 163.608368 185.493437 
L 163.42567 185.851966 
L 161.971747 188.206079 
L 161.308667 190.709015 
L 161.051867 191.935115 
L 160.94327 192.105924 
L 160.25847 193.854597 
L 159.976118 194.458345 
L 159.724428 195.307314 
L 159.31176 196.506356 
L 158.563079 198.665984 
L 158.279449 199.516644 
L 157.474554 202.525241 
L 157.263748 204.192737 
L 157.387676 202.569211 
L 157.242028 202.347668 
L 156.724596 202.198844 
L 156.286375 202.151492 
L 156.175223 202.29355 
L 155.302614 205.804425 
L 155.066255 206.785306 
L 154.610148 209.722873 
L 154.615259 209.954564 
L 154.616536 210.905003 
L 154.634423 211.290591 
L 154.57693 211.838531 
L 154.384011 215.799258 
L 154.325241 216.996608 
L 153.935569 219.758294 
L 152.384548 223.73255 
L 151.86456 224.967107 
L 150.612501 228.08563 
L 150.392751 228.992098 
L 150.400417 229.962832 
L 150.567784 231.173712 
L 150.657217 232.102166 
L 150.972787 234.557749 
L 151.100548 235.097233 
L 151.366292 235.936055 
L 151.686972 237.231493 
L 151.906721 238.246197 
L 153.344035 242.854644 
L 153.653217 243.676554 
L 153.722208 243.970818 
L 153.88702 244.457876 
L 153.968787 244.706478 
L 154.09016 245.075154 
L 154.51816 246.191328 
L 154.688082 246.382431 
L 155.174852 247.671104 
L 155.298781 247.951839 
L 155.60924 248.709485 
L 155.820046 249.010513 
L 156.104954 249.406248 
L 156.452464 249.801982 
L 156.649217 249.991394 
L 157.105324 250.426025 
L 157.866781 251.256391 
L 158.380381 251.574332 
L 159.604333 251.993743 
L 161.484977 252.433448 
L 162.131449 252.957711 
L 162.356308 253.289181 
L 162.793252 253.544548 
L 163.508714 254.516973 
L 163.815341 254.978663 
L 163.93927 255.215427 
L 164.08875 255.426824 
L 164.418374 255.66697 
L 164.782493 255.905426 
L 164.962637 256.40094 
L 165.356141 256.864321 
L 165.545228 256.908291 
L 165.693431 257.134909 
L 167.273836 257.943289 
L 169.495603 258.876817 
L 170.186791 259.825565 
L 170.548355 261.827914 
L 170.437203 262.360633 
L 170.138242 263.003279 
L 169.37423 263.899601 
L 168.942397 264.579452 
L 168.672821 265.080039 
L 168.393024 265.457171 
L 167.956081 265.702391 
L 167.879424 266.045699 
L 167.301944 266.786433 
L 166.953156 267.276873 
L 166.20703 268.25268 
L 164.392822 270.200911 
L 163.757849 270.376793 
L 163.460165 270.512087 
L 163.097323 270.811425 
L 160.682637 271.19363 
L 159.329646 270.941645 
L 158.327998 270.877381 
L 157.695581 270.887528 
L 156.154781 271.367821 
L 155.7485 271.601203 
L 153.723485 274.093992 
L 153.29293 274.902372 
L 153.142172 275.20171 
L 152.896871 275.883253 
L 152.190351 277.434058 
L 151.376513 279.104937 
L 151.215533 279.64273 
L 151.031557 279.87273 
L 150.731319 280.66589 
L 150.317372 281.200301 
L 149.676011 282.52618 
L 149.076811 283.911251 
L 148.307689 285.017278 
L 148.020226 285.252351 
L 147.65994 285.720806 
L 146.400215 286.639113 
L 145.712859 286.919848 
L 145.008895 287.437347 
L 142.955773 289.250284 
L 142.251809 289.896312 
L 141.279546 291.387927 
L 141.126233 292.534542 
L 141.087905 293.172114 
L 140.529588 295.51608 
L 138.963236 298.091737 
L 138.3832 299.579969 
L 138.189003 300.166806 
L 137.869601 302.651139 
L 137.932203 302.827021 
L 137.620466 304.332165 
L 136.712084 307.000836 
L 136.566436 307.508188 
L 135.222389 311.849429 
L 135.122735 312.449796 
L 134.913207 313.660676 
L 134.83655 314.222145 
L 134.770114 314.599277 
L 134.342114 317.205374 
L 134.251404 317.744858 
L 132.616061 326.708075 
L 132.668443 328.312999 
L 132.581565 328.695204 
L 132.458914 329.276967 
L 132.368204 329.990642 
L 132.383535 331.314831 
L 132.228944 332.173947 
L 132.163786 332.818283 
L 127.906784 351.471922 
L 127.100611 353.193536 
L 126.690497 354.221769 
L 125.676073 356.479485 
L 125.29279 357.039263 
L 124.317972 358.136835 
L 124.12633 358.351614 
L 123.569292 358.962127 
L 123.23839 359.393376 
L 122.584253 360.01911 
L 122.253351 360.276169 
L 121.798522 360.700653 
L 121.636265 361.006755 
L 121.573662 361.187711 
L 115.024624 370.402913 
L 114.765269 370.720853 
L 113.322845 373.523127 
L 110.909436 378.576352 
L 110.803394 378.828337 
L 109.850296 379.6401 
L 107.127705 378.476573 
L 106.828744 378.720101 
L 104.880386 381.294067 
L 104.178977 381.699948 
L 103.850631 381.765904 
L 102.778715 382.467741 
L 102.124577 383.189872 
L 101.875443 383.6634 
L 101.630141 384.126782 
L 100.816303 384.93178 
L 100.858464 384.970677 
L 100.984948 385.268323 
L 100.891682 385.633617 
L 100.489234 386.039498 
L 99.439037 386.523174 
L 99.028924 387.214864 
L 98.614978 387.664716 
L 98.374787 388.041847 
L 97.985115 388.371626 
L 97.692542 388.539052 
L 97.424243 388.977066 
L 97.063957 389.616329 
L 96.669175 389.954564 
L 94.828136 391.781031 
L 94.760423 391.960295 
L 93.226011 393.396101 
L 91.142226 395.136318 
L 90.638847 395.41367 
L 88.829749 396.501095 
L 87.469092 396.945873 
L 86.509606 397.206314 
L 84.428376 398.161826 
L 84.056591 398.243003 
L 80.534215 400.022117 
L 79.665439 400.460131 
L 79.41886 400.625866 
L 78.828603 400.844027 
L 78.674012 400.930277 
L 78.375051 400.923512 
L 78.217905 401.006379 
L 76.402419 402.531818 
L 76.132843 402.930934 
L 75.784055 403.412919 
L 75.606467 403.702109 
L 75.13375 404.534166 
L 74.954884 404.843651 
L 74.943386 406.636294 
L 74.73258 407.382102 
L 74.017117 409.145995 
L 73.912353 409.633053 
L 72.780389 413.047531 
L 72.753559 413.26231 
L 72.564473 413.588707 
L 72.349834 414.104514 
L 72.27701 414.613558 
L 71.854121 415.447306 
L 71.631816 415.865026 
L 71.124604 417.050538 
L 70.768151 418.36627 
L 70.580342 418.937887 
L 70.543291 419.12899 
L 70.502407 419.507812 
L 70.264772 419.954282 
L 69.678348 421.628543 
L 69.535255 421.773984 
L 68.920724 422.871555 
L 68.587267 423.933612 
L 67.245775 427.053826 
L 67.024748 427.363311 
L 66.408939 428.257941 
L 66.293954 428.50147 
L 66.112533 428.662132 
L 65.998826 428.689191 
L 65.64876 429.484042 
L 65.566993 429.700512 
L 65.314026 430.253526 
L 65.177321 430.471687 
L 65.054671 430.689848 
L 64.755709 431.335876 
L 64.348151 433.329769 
L 63.844772 434.895796 
L 63.623745 436.262263 
L 63.44488 436.769615 
L 62.783077 441.055048 
L 62.660426 441.469385 
L 62.61571 441.756884 
L 61.890026 442.939014 
L 60.921596 444.684305 
L 60.603471 444.949819 
L 60.377334 445.044525 
L 60.240629 445.529891 
L 58.371483 449.571795 
L 58.154289 449.981059 
L 57.530815 450.933189 
L 57.355782 451.070174 
L 56.959722 451.783849 
L 56.783412 452.186348 
L 56.464009 452.962597 
L 56.237871 453.272082 
L 55.743436 454.087227 
L 55.47386 454.674064 
L 55.144236 455.367445 
L 54.585919 456.121708 
L 54.367448 456.41259 
L 53.982887 457.170235 
L 53.829573 457.481411 
L 53.630266 458.015822 
L 52.56346 459.497289 
L 51.607806 461.325447 
L 51.011162 462.264048 
L 50.737753 462.87118 
L 50.259926 463.787795 
L 50.014624 464.416912 
L 49.897084 464.47272 
L 49.662003 465.218528 
L 49.624953 465.355513 
L 49.119018 466.333011 
L 48.655245 466.831907 
L 48.406111 467.479626 
L 47.879735 468.575506 
L 47.574386 469.270578 
L 47.023735 470.187194 
L 46.741383 470.625208 
L 46.077025 472.123587 
L 45.626028 472.779762 
L 45.04727 473.841819 
L 44.845407 474.075201 
L 44.630768 474.303509 
L 44.51195 474.560567 
L 44.285813 474.919096 
L 44.141443 475.074684 
L 43.684058 475.898285 
L 43.215174 476.689754 
L 41.62838 479.617175 
L 41.397133 479.718645 
L 41.333252 479.728792 
L 41.323031 479.742322 
L 41.108392 480.281806 
L 40.556464 481.293127 
L 39.50499 483.368197 
L 39.183031 483.988857 
L 38.452237 484.919002 
L 38.408799 485.238634 
L 38.307867 485.487236 
L 38.190327 485.803486 
L 37.748273 486.451205 
L 37.233396 487.276497 
L 36.880775 487.761864 
L 36.249635 489.114802 
L 36.001778 489.524066 
L 35.557169 490.345976 
L 35.087008 491.179725 
L 34.988632 491.409724 
L 34.242507 493.095824 
L 33.875832 493.53722 
L 33.492548 494.134204 
L 33.279187 494.714276 
L 32.984059 495.468539 
L 32.581611 496.048612 
L 32.346531 496.510302 
L 32.039904 496.970301 
L 31.84954 497.465815 
L 31.632346 497.822652 
L 31.266949 498.461916 
L 31.068919 498.952356 
L 30.784011 499.432649 
L 30.226973 501.150881 
L 29.666101 502.001541 
L 29.248322 502.481834 
L 28.988967 502.799775 
L 28.444704 504.030948 
L 28.187904 504.244036 
L 27.486495 504.874844 
L 26.733982 506.667487 
L 26.610054 506.821384 
L 26.492513 507.183295 
L 26.325146 507.428515 
L 26.205051 507.579029 
L 26.217827 507.802264 
L 26.210161 508.791601 
L 26.170555 508.996232 
L 26.291928 509.386893 
L 26.405636 509.701452 
L 26.459295 509.931451 
L 26.438854 510.149612 
L 26.31748 510.599464 
L 25.921421 511.74608 
L 25.886925 511.830638 
L 25.806436 512.316005 
L 25.379713 513.156518 
L 24.730687 514.394457 
L 24.569707 514.720853 
L 24.412561 514.959308 
L 24.318018 515.322911 
L 23.772478 516.324085 
L 23.614054 516.537173 
L 23.303594 517.068201 
L 23.014854 517.416583 
L 22.571523 517.846141 
L 22.451427 518.03217 
L 22.25723 518.659595 
L 22.162687 518.837168 
L 22.071976 519.090844 
L 21.904609 519.779152 
L 21.702747 520.125842 
L 21.494496 520.389665 
L 21.306687 520.450547 
L 21.167427 520.783708 
L 21.02689 521.05937 
L 20.899129 521.21834 
L 20.817362 521.336722 
L 20.77009 521.497383 
L 20.798197 522.047015 
L 20.607833 522.737013 
L 20.397027 522.865542 
L 20.178556 523.158115 
L 20.030353 523.440541 
L 19.85532 523.756791 
L 18.800013 525.402302 
L 18.462723 526.325682 
L 18.239141 526.601344 
L 18.117768 526.802593 
L 17.766425 527.484136 
L 17.45852 528.162296 
L 17.30904 528.350016 
L 17.127619 528.68656 
L 16.88615 528.941927 
L 16.202628 529.75369 
L 15.970102 529.905896 
L 15.745243 530.644938 
L 15.415619 531.184422 
L 15.542102 531.471922 
L 16.019929 531.668098 
L 16.357219 531.821995 
L 16.878484 532.366552 
L 17.027965 532.777507 
L 17.191499 532.730155 
L 17.583726 532.620228 
L 17.889075 532.72339 
L 18.207201 532.990595 
L 19.050424 533.506403 
L 19.533362 533.572359 
L 19.818269 533.932579 
L 20.159392 534.039122 
L 20.372753 534.145666 
L 20.425135 534.642871 
L 20.048239 535.523972 
L 20.574615 535.838531 
L 21.006448 536.217353 
L 21.006448 536.217353 
" style="fill:none;stroke:#000000;stroke-width:3;"/>
   </g>
  </g>
 </g>
 <defs>
  <clipPath id="pa1438e65e9">
   <rect height="554.4" width="172.28327" x="7.2" y="7.2"/>
  </clipPath>
 </defs>
</svg>
