<?xml version="1.0" encoding="utf-8" standalone="no"?>
<!DOCTYPE svg PUBLIC "-//W3C//DTD SVG 1.1//EN"
  "http://www.w3.org/Graphics/SVG/1.1/DTD/svg11.dtd">
<svg height="516.171492pt" version="1.1" viewBox="0 0 572.4 516.171492" width="572.4pt" xmlns="http://www.w3.org/2000/svg" xmlns:xlink="http://www.w3.org/1999/xlink">
 <metadata>
  <rdf:RDF xmlns:cc="http://creativecommons.org/ns#" xmlns:dc="http://purl.org/dc/elements/1.1/" xmlns:rdf="http://www.w3.org/1999/02/22-rdf-syntax-ns#">
   <cc:Work>
    <dc:type rdf:resource="http://purl.org/dc/dcmitype/StillImage"/>
    <dc:date>2021-10-19T02:03:23.636465</dc:date>
    <dc:format>image/svg+xml</dc:format>
    <dc:creator>
     <cc:Agent>
      <dc:title>Matplotlib v3.4.3, https://matplotlib.org/</dc:title>
     </cc:Agent>
    </dc:creator>
   </cc:Work>
  </rdf:RDF>
 </metadata>
 <defs>
  <style type="text/css">*{stroke-linecap:butt;stroke-linejoin:round;}</style>
 </defs>
 <g id="figure_1">
  <g id="patch_1">
   <path d="M 0 516.171492 
L 572.4 516.171492 
L 572.4 0 
L 0 0 
z
" style="fill:#ffffff;"/>
  </g>
  <g id="axes_1">
   <g id="LineCollection_1">
    <path clip-path="url(#pb64c15965c)" d="M 34.426042 331.815987 
L 35.776286 334.029739 
L 36.195327 334.583177 
L 37.17309 336.366477 
L 38.663015 338.272763 
L 40.106379 339.687105 
L 40.758221 341.285926 
L 42.480946 342.331309 
L 44.855513 342.454295 
L 47.18352 343.253705 
L 48.254404 343.74565 
L 50.209929 344.791033 
L 51.653294 345.836416 
L 53.79506 346.758813 
L 54.726263 346.69732 
L 57.287071 347.49673 
L 59.475397 348.050168 
L 63.433009 346.69732 
L 64.736693 344.176102 
L 66.133497 342.269816 
L 67.623422 339.99457 
L 69.532388 337.719325 
L 71.115432 334.214218 
L 72.512237 332.246438 
L 73.070958 331.754493 
L 73.909041 329.663728 
L 75.073044 327.572962 
L 76.469849 324.498306 
L 77.773532 322.960979 
L 79.449698 321.977089 
L 81.218983 318.348995 
L 81.824265 316.012257 
L 83.081388 314.597915 
L 83.826351 312.50715 
L 83.59355 310.53937 
L 84.338512 308.879056 
L 85.083474 306.726797 
L 85.502516 304.820511 
L 86.8062 303.03721 
L 87.225241 300.823458 
L 87.830523 298.425227 
L 88.715165 295.781023 
L 88.901406 293.505778 
L 88.715165 288.647822 
L 88.249564 286.188098 
L 88.296124 285.081222 
L 88.249564 282.805977 
L 87.877083 280.838197 
L 86.99244 278.993404 
L 86.526839 276.902638 
L 85.688756 274.750379 
L 85.595636 273.950969 
L 85.036914 271.983189 
L 85.595636 269.461971 
L 85.688756 268.416589 
L 85.083474 266.325823 
L 84.850674 263.927591 
L 85.083474 261.713839 
L 83.779791 256.486925 
L 82.895148 247.69341 
L 82.103626 245.72563 
L 81.591464 243.14292 
L 81.498344 241.236633 
L 81.218983 239.576319 
L 80.613701 236.870622 
L 79.496258 233.980446 
L 78.658175 231.828187 
L 78.425374 229.491449 
L 78.239134 225.248424 
L 77.633852 223.342138 
L 77.354491 221.312865 
L 76.702649 218.976127 
L 76.609529 216.762375 
L 76.84233 214.118171 
L 78.378814 207.845874 
L 78.611615 205.693615 
L 78.937536 203.848821 
L 79.403137 199.790276 
L 79.356577 198.006976 
L 80.33434 195.91621 
L 80.660261 191.980651 
L 80.706821 185.83134 
L 81.451784 183.187136 
L 81.963945 180.911891 
L 81.870825 179.928001 
L 81.963945 177.714249 
L 82.755467 175.869456 
L 82.522667 173.840183 
L 83.221069 171.441952 
L 83.267629 169.105213 
L 83.73323 165.354134 
L 84.152272 163.386354 
L 85.269715 161.172602 
L 86.573399 159.94274 
L 87.551162 158.528398 
L 87.597722 156.560619 
L 88.854846 155.269263 
L 88.761726 153.055511 
L 90.018849 151.272211 
L 91.834695 149.857869 
L 93.184939 143.893038 
L 95.326705 140.879875 
L 95.792307 138.727616 
L 95.885427 136.82133 
L 96.90975 134.915043 
L 98.073754 133.193236 
L 99.517118 131.840388 
L 99.936159 129.811115 
L 101.472644 127.781842 
L 102.729768 126.428994 
L 104.452493 125.199132 
L 105.895857 123.661804 
L 106.73394 121.817011 
L 108.130744 120.464162 
L 108.596345 118.496383 
L 109.574108 116.959055 
L 111.389954 115.298741 
L 112.786758 113.207975 
L 114.462923 112.654537 
L 115.999408 111.178702 
L 116.83749 109.272416 
L 118.048054 107.796581 
L 119.817339 106.935678 
L 120.608861 105.213871 
L 123.076549 101.831749 
L 124.473353 100.294422 
L 126.196078 99.372025 
L 128.198164 98.511121 
L 129.734649 96.973794 
L 131.503934 95.989904 
L 132.900738 94.883028 
L 134.670024 93.960631 
L 138.301715 91.131948 
L 140.071 90.209551 
L 141.840285 89.59462 
L 144.028612 88.61073 
L 145.099495 87.257882 
L 147.148141 86.212499 
L 150.547032 83.937254 
L 152.595678 83.506802 
L 154.318403 82.645899 
L 155.994568 81.170064 
L 157.763853 80.555133 
L 160.417781 78.833326 
L 162.187067 78.587353 
L 168.239885 77.173012 
L 170.288531 77.173012 
L 174.199583 76.189122 
L 176.061988 75.143739 
L 178.343435 74.590301 
L 179.414318 74.528808 
L 184.256573 74.77478 
L 186.53802 74.405822 
L 188.959147 73.667904 
L 191.380275 73.483425 
L 193.382361 73.606411 
L 195.803488 72.745508 
L 197.898694 72.561028 
L 200.785423 73.852384 
L 203.29967 74.651794 
L 205.487997 74.159849 
L 207.257282 74.651794 
L 209.399049 74.713287 
L 211.587375 75.143739 
L 213.496341 75.389711 
L 215.172506 75.143739 
L 218.385156 75.512698 
L 222.529008 76.373601 
L 224.205173 76.312108 
L 226.207259 76.865546 
L 228.768067 76.681067 
L 231.142634 76.312108 
L 233.517201 76.927039 
L 235.752088 76.558081 
L 238.033535 76.066136 
L 240.268422 76.496587 
L 242.363628 75.635684 
L 244.319154 75.082246 
L 246.18156 75.943149 
L 248.183646 75.881656 
L 251.535976 75.205232 
L 253.677742 74.590301 
L 255.493588 74.221342 
L 257.402553 73.97537 
L 259.078718 73.544918 
L 263.269131 72.684014 
L 265.736818 71.761618 
L 267.412983 70.593249 
L 269.275389 70.285783 
L 271.510276 68.686962 
L 273.233001 68.010538 
L 276.026609 67.518593 
L 278.214936 66.65769 
L 280.123902 66.104252 
L 281.753507 64.443938 
L 282.96407 62.968103 
L 285.338637 62.045706 
L 287.154483 60.569872 
L 288.923768 59.708968 
L 291.065535 57.864175 
L 292.462339 56.511326 
L 294.324744 55.773409 
L 298.561717 53.744136 
L 300.610363 52.821739 
L 302.79869 50.546494 
L 304.893896 48.88618 
L 306.709742 48.08677 
L 307.687505 46.610935 
L 310.853594 44.889128 
L 312.995361 43.597773 
L 315.369928 42.736869 
L 319.28098 40.953569 
L 323.238592 38.063393 
L 324.961317 37.01801 
L 326.963403 36.895024 
L 328.360207 35.726654 
L 330.501973 35.23471 
L 332.59718 35.111723 
L 334.785506 33.758875 
L 336.834152 33.26693 
L 340.465843 31.729602 
L 342.188569 31.176164 
L 344.144094 31.422137 
L 350.336593 30.868699 
L 352.57148 30.069288 
L 358.019016 31.176164 
L 362.162869 31.29915 
L 363.885594 31.176164 
L 366.260161 32.46752 
L 368.495048 33.512902 
L 370.683374 33.697382 
L 372.918261 35.05023 
L 374.873787 35.665161 
L 376.596512 36.464572 
L 378.365797 37.632941 
L 381.857808 39.416241 
L 383.627093 40.092665 
L 385.117018 41.199541 
L 386.886303 42.36791 
L 390.378314 44.151211 
L 392.287279 44.520169 
L 393.916884 46.364963 
L 396.058651 47.164373 
L 402.57707 47.840797 
L 404.066995 49.255139 
L 406.441562 49.562605 
L 408.257407 49.993056 
L 412.44782 50.423508 
L 414.449906 50.116043 
L 418.686879 50.239029 
L 420.642405 49.624098 
L 422.784171 49.501111 
L 424.786257 49.07066 
L 426.788343 48.88618 
L 428.790429 48.947673 
L 430.745955 48.148263 
L 434.750127 47.164373 
L 436.845334 46.549442 
L 439.173341 46.487949 
L 441.268547 46.241977 
L 444.946798 43.843745 
L 448.85785 43.3518 
L 451.185857 41.875966 
L 452.070499 40.953569 
L 454.631307 40.523117 
L 459.147641 40.58461 
L 461.010046 40.892076 
L 462.825892 40.338638 
L 464.408937 39.231762 
L 465.852301 37.386968 
L 467.575026 35.419189 
L 468.087188 34.496792 
L 469.623672 33.881861 
L 471.765439 33.328423 
L 472.556961 33.26693 
L 473.069123 35.480682 
L 489.691093 126.55198 
L 489.830773 74.590301 
L 488.154608 46.918401 
L 488.94613 31.729602 
L 490.901656 31.29915 
L 492.484701 30.007795 
L 496.535433 30.007795 
L 498.72376 30.438247 
L 500.725846 30.684219 
L 502.541691 30.315261 
L 506.871784 30.376754 
L 509.292912 30.49974 
L 511.527798 31.791095 
L 513.343644 31.729602 
L 516.137252 33.451409 
L 518.977421 34.742765 
L 526.985765 42.306417 
L 528.289449 44.028225 
L 529.732813 45.627045 
L 531.036497 47.287359 
L 534.109466 49.931563 
L 535.45971 51.407398 
L 537.834278 55.40445 
L 538.439559 57.679695 
L 538.951721 60.200913 
L 539.650123 62.291679 
L 539.743243 64.382444 
L 539.696683 66.104252 
L 539.091401 70.347276 
L 539.836364 72.315056 
L 539.417322 77.910929 
L 539.324202 79.632736 
L 538.951721 81.907981 
L 538.905161 82.891871 
L 538.160199 84.736664 
L 536.996195 86.642951 
L 536.530594 88.426251 
L 535.599391 90.086565 
L 534.761308 92.300317 
L 533.736985 96.297369 
L 533.550745 98.326642 
L 532.805782 99.986956 
L 531.502099 102.508174 
L 531.176178 104.844912 
L 531.641779 106.812691 
L 531.362418 109.087937 
L 530.757136 111.240195 
L 529.686253 113.638427 
L 528.52225 115.421727 
L 527.684167 120.21819 
L 527.311686 123.846283 
L 526.333923 125.691077 
L 525.728641 128.33528 
L 525.821761 130.118581 
L 525.635521 132.578305 
L 525.21648 134.85355 
L 524.471517 137.497754 
L 524.192157 139.58852 
L 524.564638 141.802272 
L 524.192157 143.585572 
L 524.285277 145.614845 
L 525.030239 148.074569 
L 525.3096 152.133115 
L 525.868322 153.670442 
L 526.287363 155.515236 
L 527.404806 157.544508 
L 527.404806 160.065726 
L 527.730727 161.910519 
L 528.75505 164.739202 
L 528.475689 167.014448 
L 528.475689 167.998337 
L 526.194243 176.238414 
L 525.821761 178.267687 
L 525.21648 179.866508 
L 525.169919 181.957274 
L 524.424957 185.523874 
L 524.424957 187.737626 
L 522.190071 191.119747 
L 521.817589 193.333499 
L 521.212308 195.485758 
L 520.141424 197.638017 
L 517.953098 201.143125 
L 516.556294 203.787328 
L 515.53197 205.878094 
L 514.973249 207.661394 
L 513.623005 210.059626 
L 512.971163 210.982022 
L 509.944754 216.27043 
L 509.246352 218.115223 
L 508.361709 219.714044 
L 506.871784 221.312865 
L 505.754341 223.280645 
L 505.102499 224.940959 
L 503.193533 228.692039 
L 501.610489 230.290859 
L 500.399925 232.07416 
L 499.748083 234.410898 
L 498.351279 236.501664 
L 496.814794 238.284964 
L 495.650791 240.498716 
L 494.998949 242.466495 
L 494.021186 244.618754 
L 492.11222 246.70952 
L 491.134457 248.6773 
L 490.529175 250.891052 
L 489.039251 254.150187 
L 487.549326 258.639184 
L 486.431883 260.176512 
L 485.314439 262.205784 
L 483.126113 265.833878 
L 482.05523 268.170616 
L 480.658425 270.691834 
L 478.9357 272.475134 
L 477.492336 274.319927 
L 476.980174 277.763542 
L 476.142092 279.669828 
L 475.117769 281.699101 
L 472.0448 286.249591 
L 470.973916 288.586329 
L 469.623672 290.431123 
L 467.388786 294.674147 
L 465.340139 299.593596 
L 464.688297 301.622869 
L 463.617414 303.836621 
L 460.311644 307.218742 
L 459.101081 309.616973 
L 458.495799 310.53937 
L 456.726513 312.568643 
L 456.028111 315.08986 
L 454.724427 317.119133 
L 453.094822 319.148406 
L 451.372097 322.715006 
L 449.416571 324.990251 
L 448.112887 326.15862 
L 447.228245 329.725221 
L 445.78488 331.447028 
L 443.875915 333.291821 
L 442.711911 335.628559 
L 441.361667 337.473353 
L 441.128866 339.256653 
L 440.337344 340.793981 
L 439.732062 341.470405 
L 438.754299 343.622664 
L 437.357495 345.282978 
L 436.426292 346.881799 
L 435.867571 348.788085 
L 435.215729 351.432289 
L 432.515241 357.151149 
L 431.351237 360.902228 
L 430.420034 362.624035 
L 429.16291 363.915391 
L 426.602103 367.359005 
L 425.71746 369.080812 
L 425.019058 370.864112 
L 422.691051 374.307727 
L 421.806408 376.275506 
L 420.549284 378.243286 
L 419.0128 381.194955 
L 417.569436 385.007528 
L 416.498552 386.852321 
L 415.84671 389.00458 
L 414.962068 391.033853 
L 414.356786 393.124619 
L 410.957896 398.228547 
L 409.933573 399.827368 
L 409.933573 402.102613 
L 408.816129 403.393968 
L 407.046844 404.80831 
L 404.951638 407.636993 
L 403.741074 409.481786 
L 403.368593 411.449566 
L 402.204589 413.294359 
L 401.413067 415.262139 
L 400.481864 417.229919 
L 399.550661 418.890233 
L 398.433218 420.42756 
L 396.151771 421.718916 
L 394.289365 423.317737 
L 393.637523 425.16253 
L 392.42696 426.392392 
L 391.169836 430.69691 
L 389.912712 432.849169 
L 388.841829 435.493373 
L 388.236547 437.584138 
L 386.746623 439.428932 
L 387.025984 441.150739 
L 385.7223 442.934039 
L 384.046135 444.348381 
L 383.114932 446.439147 
L 381.531887 447.791995 
L 380.274763 450.005747 
L 378.691718 454.494744 
L 377.527715 456.401031 
L 376.829313 458.122838 
L 375.525629 460.090617 
L 374.966907 461.750931 
L 373.383862 463.226766 
L 371.661137 465.010066 
L 369.845292 465.993956 
L 368.262247 468.63816 
L 366.586082 470.359967 
L 364.583996 471.958788 
L 363.140632 473.496116 
L 361.185106 474.295526 
L 357.274054 476.263306 
L 355.271968 476.755251 
L 353.688923 477.862127 
L 352.75772 479.337961 
L 349.731311 480.629317 
L 346.611782 482.843069 
L 342.51449 484.749355 
L 340.279603 485.425779 
L 339.534641 485.917724 
L 337.811915 485.917724 
L 335.577029 486.163697 
L 333.202462 485.794738 
L 331.246936 485.671752 
L 329.24485 485.733245 
L 327.149643 485.548765 
L 324.402595 485.425779 
L 322.72643 486.163697 
L 315.044007 485.733245 
L 313.135041 484.749355 
L 311.132955 484.626369 
L 308.758388 484.134424 
L 306.383821 483.519493 
L 303.683333 483.458 
L 300.843164 482.966055 
L 298.328917 482.289631 
L 295.861229 481.797686 
L 293.346982 480.998275 
L 291.065535 480.137372 
L 288.132246 478.72303 
L 285.990479 477.985113 
L 282.312228 475.832854 
L 281.241345 474.480005 
L 279.56518 473.742088 
L 277.935575 472.512226 
L 276.771572 471.343857 
L 274.722925 469.868022 
L 273.233001 468.269201 
L 271.230915 466.547394 
L 269.50819 465.256039 
L 267.506104 463.90319 
L 266.993942 463.042287 
L 265.783379 461.504959 
L 264.246894 460.029124 
L 263.176011 458.061345 
L 261.639526 456.769989 
L 260.615203 455.171168 
L 259.358079 454.064292 
L 257.402553 452.588458 
L 256.890392 451.85054 
L 255.540148 448.406926 
L 254.934866 446.254667 
L 254.189904 444.594353 
L 253.491502 442.442094 
L 253.07246 441.704177 
L 252.420618 439.428932 
L 251.675656 437.338166 
L 251.396295 435.43188 
L 251.256615 432.972155 
L 250.697893 427.92972 
L 249.440769 424.055654 
L 249.301089 421.349957 
L 249.440769 420.304574 
L 248.975168 418.336795 
L 249.021728 416.307522 
L 248.230206 413.601825 
L 248.043965 411.880018 
L 247.019642 410.219704 
L 246.3678 408.620883 
L 245.203797 406.837583 
L 244.551955 405.054282 
L 243.01547 402.779037 
L 242.456748 401.733654 
L 241.153064 397.060178 
L 239.197538 394.661947 
L 237.986975 392.263715 
L 235.426167 389.066073 
L 233.982803 387.590239 
L 232.585999 386.42187 
L 231.561675 384.392597 
L 230.164871 383.101242 
L 228.162785 381.871379 
L 227.510943 381.256448 
L 226.160699 379.657627 
L 220.433802 375.045644 
L 218.245475 373.569809 
L 216.057149 372.708906 
L 212.006417 370.802619 
L 210.469932 369.572757 
L 208.188485 368.588867 
L 205.767358 367.912443 
L 203.718712 367.604978 
L 201.809746 366.498101 
L 200.180141 365.391225 
L 198.084935 364.468829 
L 196.129409 364.345843 
L 194.080763 363.423446 
L 193.28924 363.238967 
L 191.380275 362.378063 
L 189.331628 362.009104 
L 187.376102 361.209694 
L 185.420577 359.918339 
L 183.23225 359.180421 
L 181.323284 358.196531 
L 179.367758 357.458614 
L 177.412232 356.966669 
L 175.084225 355.982779 
L 173.454621 355.736807 
L 170.893813 355.490835 
L 169.776369 355.244862 
L 165.446276 353.338576 
L 163.30451 352.293193 
L 161.535225 350.755865 
L 159.300338 350.26392 
L 157.205132 349.341523 
L 155.342726 348.173154 
L 152.688798 347.742702 
L 151.291994 345.71343 
L 149.476148 344.545061 
L 148.265585 342.94624 
L 146.82222 342.146829 
L 145.239176 340.793981 
L 143.143969 339.564119 
L 141.560925 337.903805 
L 137.230831 336.612449 
L 135.834027 335.690053 
L 133.599141 335.136615 
L 131.829855 334.091232 
L 129.96745 333.230328 
L 123.914631 326.835045 
L 121.446944 325.666675 
L 119.305178 324.006361 
L 115.859727 322.407541 
L 111.622754 320.009309 
L 110.22595 318.226009 
L 108.270424 317.05764 
L 106.7805 315.520312 
L 104.964654 314.474929 
L 103.241929 313.614026 
L 100.727682 312.630136 
L 93.51086 311.400274 
L 91.834695 311.33878 
L 89.879169 311.953712 
L 87.783963 312.445656 
L 83.73323 314.044477 
L 82.103626 315.520312 
L 80.33434 316.811667 
L 78.751295 317.672571 
L 75.771446 319.455871 
L 74.234962 320.685733 
L 73.303759 322.469034 
L 72.372556 325.174731 
L 69.997989 327.265496 
L 68.927106 329.294769 
L 67.157821 330.586124 
L 65.621336 331.87748 
L 63.200209 332.738383 
L 59.847879 336.304984 
L 58.544195 338.334256 
L 56.774909 339.871584 
L 54.959064 342.208322 
L 54.260662 343.315198 
L 52.724177 345.221485 
L 51.932655 346.881799 
L 50.34961 348.972565 
L 48.859685 350.571386 
L 46.391998 354.137986 
L 45.041754 356.413231 
L 43.179348 358.258025 
L 41.642864 360.34879 
L 41.223822 362.193584 
L 39.501097 364.09987 
L 37.871492 365.637198 
L 36.055647 365.698691 
L 34.379482 363.423446 
L 33.7742 361.025215 
L 32.563636 359.303407 
L 32.563636 359.303407 
" style="fill:none;stroke:#000000;stroke-width:3;"/>
   </g>
  </g>
 </g>
 <defs>
  <clipPath id="pb64c15965c">
   <rect height="501.771492" width="558" x="7.2" y="7.2"/>
  </clipPath>
 </defs>
</svg>
