<?xml version="1.0" encoding="utf-8" standalone="no"?>
<!DOCTYPE svg PUBLIC "-//W3C//DTD SVG 1.1//EN"
  "http://www.w3.org/Graphics/SVG/1.1/DTD/svg11.dtd">
<svg height="540.509678pt" version="1.1" viewBox="0 0 572.4 540.509678" width="572.4pt" xmlns="http://www.w3.org/2000/svg" xmlns:xlink="http://www.w3.org/1999/xlink">
 <metadata>
  <rdf:RDF xmlns:cc="http://creativecommons.org/ns#" xmlns:dc="http://purl.org/dc/elements/1.1/" xmlns:rdf="http://www.w3.org/1999/02/22-rdf-syntax-ns#">
   <cc:Work>
    <dc:type rdf:resource="http://purl.org/dc/dcmitype/StillImage"/>
    <dc:date>2021-10-23T02:03:51.644439</dc:date>
    <dc:format>image/svg+xml</dc:format>
    <dc:creator>
     <cc:Agent>
      <dc:title>Matplotlib v3.4.3, https://matplotlib.org/</dc:title>
     </cc:Agent>
    </dc:creator>
   </cc:Work>
  </rdf:RDF>
 </metadata>
 <defs>
  <style type="text/css">*{stroke-linecap:butt;stroke-linejoin:round;}</style>
 </defs>
 <g id="figure_1">
  <g id="patch_1">
   <path d="M 0 540.509678 
L 572.4 540.509678 
L 572.4 0 
L 0 0 
z
" style="fill:#ffffff;"/>
  </g>
  <g id="axes_1">
   <g id="LineCollection_1">
    <path clip-path="url(#p57ac1e95c9)" d="M 32.563636 359.562388 
L 34.269984 358.78972 
L 36.12259 359.948722 
L 37.682679 360.206278 
L 38.413971 359.884333 
L 41.972924 358.78972 
L 44.313058 356.600494 
L 45.385619 354.604435 
L 46.068158 353.445433 
L 48.700808 352.093264 
L 51.040942 349.388925 
L 54.648648 344.688528 
L 57.622568 340.567632 
L 60.303971 337.541349 
L 61.230274 334.772621 
L 62.302835 333.291674 
L 63.521655 330.97367 
L 64.789227 328.977611 
L 66.739339 323.762102 
L 67.665642 321.444097 
L 68.396933 319.190482 
L 69.469495 317.258812 
L 69.90827 315.391531 
L 70.347045 312.815971 
L 71.760875 310.433578 
L 71.809628 307.214127 
L 71.614617 304.767345 
L 71.273348 302.900064 
L 70.005775 297.877722 
L 69.274483 295.881663 
L 68.201922 293.885604 
L 67.763147 291.631988 
L 66.885597 288.92765 
L 66.446822 286.674035 
L 66.739339 284.034086 
L 67.714394 281.072192 
L 68.006911 279.140522 
L 68.591944 276.886906 
L 68.104417 274.826458 
L 67.958158 272.701621 
L 68.104417 270.383617 
L 67.714394 267.292945 
L 68.494439 264.781774 
L 67.47063 262.721325 
L 67.031855 260.274543 
L 66.203058 257.698983 
L 65.910541 255.252201 
L 64.740474 252.998586 
L 64.155441 250.938138 
L 63.716666 248.233799 
L 62.985374 245.400683 
L 62.644105 242.889512 
L 61.717802 240.056396 
L 61.815307 237.480836 
L 61.327779 234.905275 
L 60.498982 228.852709 
L 60.547735 225.890815 
L 61.327779 223.379644 
L 60.98651 221.254806 
L 61.279027 218.808024 
L 62.059071 217.198299 
L 62.936621 212.948625 
L 62.887869 210.244287 
L 63.326644 202.646384 
L 62.985374 200.263991 
L 63.326644 197.945987 
L 63.424149 195.627983 
L 64.252947 193.88948 
L 64.740474 191.635864 
L 65.959294 187.064245 
L 67.519383 184.681852 
L 67.665642 182.428237 
L 68.835708 180.560956 
L 68.738203 177.792228 
L 70.542056 173.413776 
L 71.517112 170.516271 
L 74.101009 166.266597 
L 74.63729 165.300762 
L 75.466087 163.175924 
L 75.368582 160.729142 
L 76.489896 158.604305 
L 77.074929 156.930191 
L 79.36631 152.809295 
L 80.877646 150.169346 
L 81.46268 148.881565 
L 83.412791 143.923612 
L 84.875375 141.798775 
L 85.704172 139.158826 
L 85.996689 136.583266 
L 87.313014 134.651595 
L 88.385575 132.526758 
L 90.823214 128.663418 
L 92.919584 127.182471 
L 94.577179 125.701524 
L 95.698493 124.02741 
L 96.624796 122.224518 
L 99.013682 118.554344 
L 101.110052 115.077338 
L 104.766511 111.793499 
L 107.496667 109.15355 
L 109.203014 107.028713 
L 111.786912 103.422928 
L 113.834529 102.070759 
L 115.833393 101.104924 
L 117.100965 99.495199 
L 121.976244 97.434751 
L 124.121366 96.533305 
L 125.535197 94.92358 
L 128.119095 93.957745 
L 130.849251 92.798743 
L 132.896868 91.510962 
L 134.895732 90.931461 
L 137.040854 90.094404 
L 139.088471 89.06418 
L 143.329964 87.583233 
L 145.036311 86.166675 
L 146.93767 84.878895 
L 149.082792 83.655504 
L 152.105465 82.818447 
L 154.006824 81.98139 
L 156.005688 81.723834 
L 159.662147 80.371665 
L 161.758516 79.985331 
L 165.658739 80.307276 
L 167.511345 80.04972 
L 169.753973 80.371665 
L 172.289118 80.564832 
L 174.190477 79.985331 
L 176.286846 79.985331 
L 180.284575 80.242887 
L 183.502259 80.69361 
L 185.842392 80.500443 
L 188.523795 80.822388 
L 192.27776 82.62528 
L 195.202927 82.560891 
L 197.299297 82.882836 
L 199.688183 82.818447 
L 204.270945 83.397948 
L 206.952348 83.462337 
L 209.292482 82.947225 
L 212.120143 83.333559 
L 214.557783 83.204781 
L 217.14168 83.655504 
L 219.23805 83.011614 
L 221.188161 83.140392 
L 223.284531 82.882836 
L 226.59972 82.62528 
L 231.523752 82.045779 
L 233.230099 82.110168 
L 242.200612 82.045779 
L 243.029409 80.242887 
L 245.515801 79.727775 
L 247.465912 79.727775 
L 250.537338 78.568773 
L 254.096291 77.731716 
L 258.532795 77.087825 
L 260.677917 76.894658 
L 262.48177 76.443935 
L 266.820768 74.962988 
L 267.795824 74.447876 
L 270.477227 73.353263 
L 274.523708 71.357204 
L 277.058853 71.035259 
L 278.082661 71.035259 
L 280.130278 69.554312 
L 282.762929 67.815809 
L 285.151815 67.171919 
L 286.419388 65.562194 
L 287.979477 64.338803 
L 290.075846 63.566135 
L 291.928452 61.570075 
L 293.6348 60.217906 
L 294.414844 58.479403 
L 299.485134 53.585839 
L 301.093976 52.298059 
L 306.94431 49.851277 
L 311.478319 46.953771 
L 313.7697 46.181103 
L 316.012328 45.08649 
L 318.352462 44.185044 
L 320.400079 42.832875 
L 322.447696 41.673873 
L 324.202796 40.386093 
L 326.494177 39.355869 
L 329.663108 38.132478 
L 332.100747 37.552977 
L 335.903464 36.07203 
L 338.487362 34.977417 
L 339.608676 34.719861 
L 342.241326 34.913028 
L 344.678966 34.526694 
L 346.67783 33.947192 
L 349.31048 33.625247 
L 351.455603 33.818414 
L 356.623398 34.591083 
L 359.10979 34.269137 
L 361.352418 34.655472 
L 365.740169 36.265197 
L 367.836538 37.617366 
L 370.127919 38.840757 
L 372.370547 39.870981 
L 376.953309 42.253374 
L 378.464645 44.056266 
L 380.902285 44.120655 
L 382.803643 45.408435 
L 384.948766 46.438659 
L 389.141505 47.597661 
L 391.237875 48.30594 
L 393.675514 49.464943 
L 398.50204 50.495167 
L 400.647163 51.203446 
L 407.765069 52.87756 
L 409.666428 53.006338 
L 411.81155 52.555615 
L 414.200437 53.714617 
L 421.367096 52.684393 
L 423.853488 52.040503 
L 426.486139 51.847336 
L 429.167542 51.525391 
L 431.848945 50.688334 
L 433.896562 50.752723 
L 436.577965 50.302 
L 438.576829 50.495167 
L 441.599502 49.271776 
L 443.793377 48.177162 
L 445.9385 47.404494 
L 448.619903 46.309881 
L 450.521262 45.022101 
L 452.861395 44.506989 
L 457.444157 43.026042 
L 459.686785 41.351928 
L 461.880661 40.192926 
L 464.415805 39.549036 
L 466.804692 39.29148 
L 468.803556 37.552977 
L 472.850037 35.106195 
L 474.702643 33.625247 
L 477.140282 33.110135 
L 479.431663 31.951133 
L 481.674291 31.757966 
L 488.30467 31.436021 
L 490.742309 31.114076 
L 493.131196 31.564799 
L 495.325071 31.50041 
L 500.590372 32.1443 
L 504.880617 33.238913 
L 507.464514 33.689636 
L 508.342065 34.07597 
L 512.681062 35.492529 
L 515.021196 36.587142 
L 518.823913 39.484647 
L 520.822778 40.514871 
L 525.113023 44.378211 
L 526.234337 45.794769 
L 527.599415 47.275716 
L 528.91574 49.336165 
L 530.280818 51.010279 
L 531.694649 53.006338 
L 533.937277 56.612122 
L 536.082399 61.24813 
L 537.15496 63.759302 
L 537.691241 68.137754 
L 539.105072 70.455758 
L 539.787611 73.031318 
L 539.5926 83.462337 
L 539.446341 86.102286 
L 539.543847 88.227123 
L 539.836364 90.545127 
L 539.300083 92.798743 
L 539.348836 98.14303 
L 539.641352 100.976146 
L 539.25133 103.487317 
L 538.568791 105.418987 
L 538.276275 107.736992 
L 537.739994 109.861829 
L 536.521174 112.308611 
L 534.034782 120.936738 
L 533.693513 123.254742 
L 533.596007 125.122023 
L 532.279682 131.238978 
L 531.938412 133.363815 
L 531.255873 135.68182 
L 530.817098 137.871046 
L 530.037054 139.802716 
L 529.061998 142.828999 
L 529.208257 145.468948 
L 527.69692 152.036627 
L 527.258145 156.479468 
L 528.03819 160.729142 
L 527.940684 162.78959 
L 527.550662 165.236373 
L 528.135695 167.940711 
L 528.135695 170.387493 
L 528.330706 172.705497 
L 528.184448 175.152279 
L 527.648167 177.341505 
L 527.940684 179.466343 
L 528.671976 181.848736 
L 528.720729 184.231129 
L 528.91574 186.613522 
L 527.989437 188.931526 
L 527.648167 190.798807 
L 528.03819 193.24559 
L 527.355651 194.919704 
L 527.014381 197.044541 
L 526.380595 199.362545 
L 526.039325 202.968329 
L 522.870394 209.342841 
L 522.236608 211.145733 
L 520.87153 213.463737 
L 520.432755 214.429572 
L 519.408947 216.168075 
L 517.117566 221.70553 
L 516.045005 223.444033 
L 514.874938 225.053758 
L 513.461107 226.21276 
L 511.75476 228.080041 
L 511.315984 228.78832 
L 509.122109 233.102383 
L 508.000795 234.840886 
L 507.025739 236.965724 
L 505.270639 238.768616 
L 503.028011 242.825123 
L 502.150461 245.143127 
L 501.272911 246.88163 
L 500.882888 249.199634 
L 499.566563 250.616193 
L 498.10398 252.74103 
L 497.323935 254.865867 
L 497.177677 256.926315 
L 496.105116 258.793596 
L 494.740038 260.854044 
L 494.057499 263.04327 
L 492.107387 266.391499 
L 489.52349 269.997283 
L 487.719637 273.474289 
L 486.939592 275.663515 
L 486.159547 277.27324 
L 485.379503 279.462467 
L 483.673155 281.20097 
L 482.503089 283.583363 
L 481.625538 285.836978 
L 479.431663 290.408597 
L 478.944135 291.50321 
L 477.725316 293.241714 
L 476.457743 294.851439 
L 475.433935 296.461164 
L 474.410126 298.972335 
L 473.240059 301.22595 
L 470.558656 305.282457 
L 469.778612 307.278516 
L 468.218523 309.596521 
L 466.024647 313.588639 
L 463.245738 316.614922 
L 462.173177 318.997315 
L 459.881796 323.182601 
L 459.540527 325.564994 
L 457.005382 329.557112 
L 455.884068 330.909281 
L 455.201529 332.647784 
L 453.836451 334.643843 
L 452.812643 336.961848 
L 451.398812 338.829129 
L 449.253689 343.207581 
L 448.57115 345.139251 
L 447.108567 347.006532 
L 444.963444 350.290371 
L 443.744625 352.028875 
L 442.379547 354.540046 
L 441.843266 357.952663 
L 440.721952 360.592612 
L 440.33193 363.232561 
L 439.600638 365.035453 
L 438.186807 367.353458 
L 436.626718 369.091961 
L 434.530348 372.890912 
L 431.995203 376.23914 
L 429.606317 380.681982 
L 428.387497 382.09854 
L 425.949858 385.96188 
L 424.779791 388.279884 
L 423.463466 390.211554 
L 422.342152 392.078835 
L 421.708366 394.139284 
L 421.025827 395.942176 
L 420.148277 397.680679 
L 419.465738 399.354793 
L 418.344424 401.608408 
L 415.614268 406.244416 
L 414.882976 408.369254 
L 413.517898 410.365313 
L 411.567786 414.679376 
L 410.007697 416.99738 
L 407.4238 420.474386 
L 405.229924 424.466505 
L 404.011105 426.655731 
L 403.036049 427.492788 
L 401.768477 429.553236 
L 401.719724 431.291739 
L 401.085938 433.480965 
L 398.84331 437.988196 
L 396.941951 439.919866 
L 393.77302 444.233929 
L 392.115425 448.097269 
L 388.556472 453.956669 
L 386.850125 456.210284 
L 385.680058 458.528288 
L 384.656249 460.073624 
L 383.583688 462.005294 
L 382.706138 464.452076 
L 381.438565 465.675467 
L 379.537207 467.800305 
L 378.805915 469.667586 
L 377.684601 471.921201 
L 376.61204 473.595315 
L 375.929501 477.329877 
L 374.808187 478.875213 
L 374.223153 480.549328 
L 372.809322 482.480998 
L 371.785514 484.477057 
L 369.44538 487.760896 
L 368.129055 490.207678 
L 367.202752 491.044735 
L 365.301394 492.203737 
L 363.497541 493.555906 
L 357.988476 496.839746 
L 356.038364 497.483636 
L 354.332017 498.964583 
L 352.186894 499.994807 
L 349.017963 502.055255 
L 347.116605 503.02109 
L 345.45901 504.437648 
L 343.36264 505.274705 
L 340.925001 506.111762 
L 338.63362 506.691263 
L 336.488498 507.850265 
L 335.513442 507.914654 
L 332.978297 508.494155 
L 330.540658 508.687322 
L 328.29803 508.494155 
L 326.006649 509.395602 
L 323.56901 509.331213 
L 320.790101 509.395602 
L 318.596226 509.138046 
L 316.548609 508.751711 
L 314.598497 508.944879 
L 310.259499 509.009268 
L 308.016871 509.009268 
L 305.920502 508.558544 
L 303.580368 507.657098 
L 300.99647 507.335153 
L 298.120056 506.626874 
L 295.877428 505.532261 
L 291.635936 504.180092 
L 286.273129 502.312811 
L 283.49422 501.797699 
L 281.495356 500.831864 
L 279.252728 499.994807 
L 277.448875 500.059196 
L 273.15863 498.642638 
L 268.283352 496.131467 
L 266.430746 495.036854 
L 264.675645 494.199796 
L 262.433017 492.396904 
L 261.506714 491.431069 
L 259.459097 489.821344 
L 258.142772 488.018452 
L 256.826447 485.958004 
L 255.266358 484.799002 
L 254.047538 483.189277 
L 252.877471 481.837108 
L 251.317382 480.613717 
L 248.782238 476.879154 
L 247.95344 474.883095 
L 247.07589 473.144592 
L 245.808318 470.955366 
L 244.833262 468.444195 
L 244.784509 465.997413 
L 243.906959 463.808186 
L 243.175667 461.168237 
L 242.395623 458.914622 
L 241.371814 456.789785 
L 241.323061 454.214225 
L 240.933039 451.509887 
L 240.396759 449.127493 
L 239.957983 444.620263 
L 239.177939 442.752982 
L 237.861614 438.245752 
L 237.520344 435.863358 
L 237.032816 433.738521 
L 236.935311 431.87124 
L 235.960255 429.746403 
L 235.375222 427.621566 
L 234.595177 425.689896 
L 232.986335 424.015782 
L 231.767516 422.019722 
L 230.012415 418.478327 
L 228.842349 416.611046 
L 227.136001 412.683317 
L 225.283395 411.073592 
L 223.918317 409.399478 
L 222.114464 408.691199 
L 219.823083 407.339029 
L 218.701769 405.214192 
L 217.190433 403.604467 
L 215.337827 402.252298 
L 210.365043 398.002624 
L 208.414932 396.392899 
L 204.270945 394.911952 
L 202.857114 393.752949 
L 197.835577 390.597888 
L 195.544196 389.503275 
L 193.009052 388.859385 
L 189.645109 386.155047 
L 184.769831 385.253601 
L 181.649653 383.772654 
L 178.821991 382.871208 
L 176.920633 381.840984 
L 174.726757 381.068316 
L 168.535154 377.977643 
L 164.732436 376.689863 
L 161.027225 375.917195 
L 158.882102 374.500637 
L 157.078249 374.114303 
L 154.933127 373.148468 
L 153.129274 372.118244 
L 150.984151 371.409965 
L 149.326556 370.572908 
L 147.863973 369.542684 
L 145.767603 368.448071 
L 143.232458 366.967124 
L 139.380988 364.198396 
L 137.284618 363.232561 
L 135.432013 362.073559 
L 133.28689 360.528223 
L 131.678048 359.111665 
L 129.386667 357.823885 
L 127.046534 356.793661 
L 123.780097 354.733213 
L 121.537469 353.767378 
L 119.684863 352.286431 
L 117.685999 351.191818 
L 115.78464 349.904037 
L 113.493259 349.195758 
L 108.179206 345.20364 
L 104.766511 341.855412 
L 103.157669 340.567632 
L 101.695085 340.05252 
L 99.744974 338.829129 
L 98.672413 337.47696 
L 96.039762 336.317957 
L 92.285798 334.128731 
L 90.091923 333.291674 
L 88.141811 332.26145 
L 87.06925 332.26145 
L 84.387847 331.681949 
L 82.535241 331.166837 
L 80.292613 330.909281 
L 78.293749 330.136613 
L 76.148626 330.007835 
L 72.199651 331.295615 
L 70.44455 331.553171 
L 68.68945 332.519006 
L 67.178114 333.54923 
L 64.789227 335.674067 
L 62.887869 336.961848 
L 61.132768 337.863294 
L 59.085151 339.40863 
L 56.598759 340.760799 
L 52.9423 341.3403 
L 50.699672 343.207581 
L 49.334594 345.396807 
L 45.629383 349.002591 
L 44.508069 351.578152 
L 42.94798 353.767378 
L 39.437779 357.823885 
L 37.975195 359.047276 
L 35.78132 359.755555 
L 35.78132 359.755555 
" style="fill:none;stroke:#000000;stroke-width:3;"/>
   </g>
  </g>
 </g>
 <defs>
  <clipPath id="p57ac1e95c9">
   <rect height="526.109678" width="558" x="7.2" y="7.2"/>
  </clipPath>
 </defs>
</svg>
