<?xml version="1.0" encoding="utf-8" standalone="no"?>
<!DOCTYPE svg PUBLIC "-//W3C//DTD SVG 1.1//EN"
  "http://www.w3.org/Graphics/SVG/1.1/DTD/svg11.dtd">
<svg height="568.8pt" version="1.1" viewBox="0 0 200.13821 568.8" width="200.13821pt" xmlns="http://www.w3.org/2000/svg" xmlns:xlink="http://www.w3.org/1999/xlink">
 <metadata>
  <rdf:RDF xmlns:cc="http://creativecommons.org/ns#" xmlns:dc="http://purl.org/dc/elements/1.1/" xmlns:rdf="http://www.w3.org/1999/02/22-rdf-syntax-ns#">
   <cc:Work>
    <dc:type rdf:resource="http://purl.org/dc/dcmitype/StillImage"/>
    <dc:date>2021-11-03T01:58:22.103143</dc:date>
    <dc:format>image/svg+xml</dc:format>
    <dc:creator>
     <cc:Agent>
      <dc:title>Matplotlib v3.4.3, https://matplotlib.org/</dc:title>
     </cc:Agent>
    </dc:creator>
   </cc:Work>
  </rdf:RDF>
 </metadata>
 <defs>
  <style type="text/css">*{stroke-linecap:butt;stroke-linejoin:round;}</style>
 </defs>
 <g id="figure_1">
  <g id="patch_1">
   <path d="M 0 568.8 
L 200.13821 568.8 
L 200.13821 0 
L 0 0 
z
" style="fill:#ffffff;"/>
  </g>
  <g id="axes_1">
   <g id="LineCollection_1">
    <path clip-path="url(#pdae96a34e9)" d="M 159.352405 536.4 
L 159.528385 535.776421 
L 158.120544 532.95547 
L 153.149106 529.332776 
L 150.157444 525.828858 
L 149.189554 523.779956 
L 148.441638 522.88913 
L 145.581961 519.979096 
L 143.64618 518.939799 
L 139.818613 515.465575 
L 139.13669 513.95117 
L 137.530871 509.289177 
L 134.473217 504.686573 
L 132.251468 504.092688 
L 127.89596 501.835928 
L 125.366246 498.480481 
L 121.296706 496.22372 
L 116.105293 494.026348 
L 114.785442 493.877877 
L 108.626138 493.313686 
L 106.272404 492.630719 
L 101.014998 490.581818 
L 94.679714 488.770471 
L 90.632171 487.107594 
L 84.97881 483.692759 
L 79.985374 482.237742 
L 78.159581 481.228139 
L 73.848068 478.288411 
L 71.890289 476.358287 
L 70.944396 475.67532 
L 69.05261 474.606328 
L 62.475353 470.924244 
L 60.56157 470.003724 
L 55.634126 466.381029 
L 52.642465 462.312921 
L 52.576472 461.273623 
L 53.412378 459.402887 
L 55.568134 456.581936 
L 59.989634 452.009026 
L 64.675105 448.564497 
L 66.830861 447.495505 
L 71.494334 444.496388 
L 73.188143 443.130454 
L 77.587645 438.73571 
L 78.489544 436.597726 
L 80.601305 430.955824 
L 80.843278 424.630955 
L 80.975263 418.632723 
L 79.633414 412.664184 
L 79.215461 408.893018 
L 72.24225 390.987404 
L 68.678652 385.226725 
L 62.651333 375.962128 
L 62.123393 374.952525 
L 61.397475 369.904507 
L 61.375478 364.262605 
L 61.243493 359.71939 
L 61.243493 355.057397 
L 59.329709 346.624238 
L 58.515801 340.86356 
L 57.503915 334.74655 
L 57.525913 329.282814 
L 57.701893 327.976268 
L 56.404039 323.047028 
L 54.930206 318.088093 
L 53.962315 313.158852 
L 53.962315 311.406893 
L 53.368382 307.16062 
L 52.68646 304.220892 
L 50.376721 298.935321 
L 49.892775 298.400825 
L 45.42728 294.896907 
L 41.09377 294.392105 
L 35.726376 294.718742 
L 31.260881 295.668957 
L 29.787047 295.787733 
L 25.497532 295.965899 
L 19.756181 294.303022 
L 16.544544 290.027055 
L 16.236579 289.225311 
L 15.642646 285.751087 
L 16.170586 280.346739 
L 19.008266 267.54853 
L 19.690188 265.172992 
L 21.142024 261.906628 
L 21.867942 260.689165 
L 22.197905 258.669958 
L 22.85783 255.849007 
L 24.529642 250.682213 
L 25.145572 247.861262 
L 27.367321 242.070889 
L 27.829269 241.298839 
L 30.798933 235.241218 
L 32.624727 230.163507 
L 33.39464 228.678796 
L 38.102108 217.573157 
L 40.851797 212.376669 
L 43.293521 206.022106 
L 45.449277 199.103352 
L 49.474822 188.769764 
L 50.596696 184.434408 
L 51.190629 182.979391 
L 53.456373 173.47724 
L 53.698345 167.241454 
L 54.710231 161.629246 
L 55.370156 153.344559 
L 55.128184 147.940211 
L 55.260169 143.723632 
L 54.952203 139.655523 
L 54.974201 138.408366 
L 55.788109 130.361233 
L 56.272054 126.025876 
L 58.537798 114.266965 
L 59.417699 111.505403 
L 60.363592 104.913286 
L 60.869535 98.944748 
L 61.221495 96.777069 
L 63.179274 91.758746 
L 64.63111 87.185836 
L 65.137052 84.097637 
L 65.577003 80.296777 
L 66.170936 77.089801 
L 67.028839 71.774536 
L 66.786866 64.499452 
L 67.006841 57.16498 
L 67.644769 52.146656 
L 69.470563 44.723101 
L 70.460451 41.367655 
L 71.802299 38.606092 
L 75.739854 35.07248 
L 80.46932 32.489083 
L 84.934815 32.4 
L 90.346204 32.815719 
L 95.449627 33.558075 
L 101.498943 35.755447 
L 112.255728 38.992117 
L 116.083295 41.041018 
L 121.648666 44.930961 
L 123.804422 46.356284 
L 129.677759 51.760632 
L 134.363229 54.937913 
L 138.718737 58.441831 
L 140.258563 59.451435 
L 145.208004 62.895964 
L 146.615845 64.172816 
L 150.267432 68.359701 
L 151.807258 69.309916 
L 155.744813 72.991999 
L 159.594378 76.822553 
L 162.366065 79.227785 
L 171.824996 88.848713 
L 175.344598 93.302846 
L 177.192389 95.945631 
L 180.008071 101.468756 
L 182.4058 107.318518 
L 183.923628 112.099287 
L 184.495564 118.394462 
L 183.19771 123.739421 
L 181.217934 127.659059 
L 178.908195 132.499216 
L 177.632339 135.528027 
L 175.014635 141.288706 
L 172.682899 146.010087 
L 170.593135 150.493914 
L 168.723346 155.274683 
L 167.601473 160.886891 
L 167.227515 165.756743 
L 166.721572 168.993413 
L 166.083644 176.506051 
L 165.819674 186.216061 
L 166.017652 191.97674 
L 165.599699 201.47889 
L 165.335729 205.48761 
L 164.807789 210.951346 
L 164.037876 214.930372 
L 162.454055 225.828151 
L 160.936226 231.796689 
L 160.870234 232.895375 
L 159.616375 238.270029 
L 157.438621 248.544229 
L 151.96124 270.874283 
L 149.915472 277.911813 
L 148.441638 283.375549 
L 143.536193 298.78685 
L 141.908377 304.903859 
L 140.874493 307.902975 
L 138.300784 317.345737 
L 135.199135 326.877582 
L 135.045152 332.578872 
L 135.375115 334.152666 
L 138.78473 338.844353 
L 142.986255 343.357874 
L 148.397643 349.771826 
L 152.621166 354.58229 
L 154.160992 357.551712 
L 157.240644 363.193613 
L 158.42851 366.489672 
L 157.900569 371.89402 
L 154.314974 376.318459 
L 149.057569 378.753385 
L 147.847705 379.169104 
L 142.590299 380.713203 
L 139.070697 380.980451 
L 131.569545 381.930666 
L 126.356134 381.425865 
L 121.560676 379.347269 
L 113.883544 375.605797 
L 106.536374 370.231144 
L 101.520941 367.053862 
L 99.475172 366.014564 
L 93.601836 364.529853 
L 88.124455 363.282696 
L 87.332544 362.985754 
L 81.591193 361.501043 
L 79.347447 361.115018 
L 75.541877 360.046026 
L 67.578777 359.363059 
L 63.861197 360.877464 
L 61.79343 365.717622 
L 63.509236 371.478301 
L 65.818975 376.496624 
L 71.714309 383.415377 
L 73.694085 387.127155 
L 77.917608 394.431933 
L 80.095362 399.539339 
L 80.73329 401.499157 
L 82.405101 407.230142 
L 83.438984 411.892135 
L 83.636962 418.513946 
L 84.648847 423.947988 
L 84.692842 427.630071 
L 83.636962 433.628304 
L 81.745176 439.002958 
L 80.007372 442.655347 
L 75.717857 447.139174 
L 74.925946 447.762753 
L 68.854632 451.593307 
L 61.551458 454.978448 
L 57.37193 458.422978 
L 54.996199 463.352218 
L 57.679895 465.163566 
L 63.443244 468.726872 
L 70.724421 472.765286 
L 74.837956 475.764402 
L 77.807621 477.753915 
L 83.021031 480.010676 
L 84.296887 480.901502 
L 89.13634 483.633371 
L 95.097667 486.394933 
L 101.212976 487.820256 
L 109.022093 490.136405 
L 109.967986 490.255182 
L 115.753332 491.264785 
L 120.086843 492.571331 
L 126.026171 495.125034 
L 127.851965 496.312803 
L 132.339458 499.608861 
L 133.967274 500.559076 
L 138.190797 503.884829 
L 142.502309 508.160797 
L 147.869703 515.020161 
L 152.115223 520.21665 
L 155.50284 525.977329 
L 160.034328 532.569446 
L 161.046214 534.172933 
L 161.046214 534.172933 
" style="fill:none;stroke:#000000;stroke-width:3;"/>
   </g>
  </g>
 </g>
 <defs>
  <clipPath id="pdae96a34e9">
   <rect height="554.4" width="185.73821" x="7.2" y="7.2"/>
  </clipPath>
 </defs>
</svg>
