<?xml version="1.0" encoding="utf-8" standalone="no"?>
<!DOCTYPE svg PUBLIC "-//W3C//DTD SVG 1.1//EN"
  "http://www.w3.org/Graphics/SVG/1.1/DTD/svg11.dtd">
<svg height="568.8pt" version="1.1" viewBox="0 0 380.244045 568.8" width="380.244045pt" xmlns="http://www.w3.org/2000/svg" xmlns:xlink="http://www.w3.org/1999/xlink">
 <metadata>
  <rdf:RDF xmlns:cc="http://creativecommons.org/ns#" xmlns:dc="http://purl.org/dc/elements/1.1/" xmlns:rdf="http://www.w3.org/1999/02/22-rdf-syntax-ns#">
   <cc:Work>
    <dc:type rdf:resource="http://purl.org/dc/dcmitype/StillImage"/>
    <dc:date>2021-11-10T01:58:56.500541</dc:date>
    <dc:format>image/svg+xml</dc:format>
    <dc:creator>
     <cc:Agent>
      <dc:title>Matplotlib v3.4.3, https://matplotlib.org/</dc:title>
     </cc:Agent>
    </dc:creator>
   </cc:Work>
  </rdf:RDF>
 </metadata>
 <defs>
  <style type="text/css">*{stroke-linecap:butt;stroke-linejoin:round;}</style>
 </defs>
 <g id="figure_1">
  <g id="patch_1">
   <path d="M 0 568.8 
L 380.244045 568.8 
L 380.244045 0 
L 0 0 
z
" style="fill:#ffffff;"/>
  </g>
  <g id="axes_1">
   <g id="LineCollection_1">
    <path clip-path="url(#pc79a38ea35)" d="M 166.832808 267.313281 
L 166.926859 267.204596 
L 168.149513 267.204596 
L 169.101773 267.390912 
L 170.677116 268.07407 
L 171.4883 268.757229 
L 173.298769 270.82223 
L 174.803574 272.017757 
L 176.896194 272.887231 
L 180.68172 273.182231 
L 182.292332 274.657232 
L 184.243877 276.737759 
L 186.301228 278.430128 
L 187.18295 278.150655 
L 188.123453 277.467496 
L 190.557005 274.967758 
L 191.262383 272.76302 
L 191.65034 270.371966 
L 193.378515 266.630122 
L 194.142674 260.528277 
L 193.789986 257.935381 
L 193.14339 255.047485 
L 193.025827 253.929589 
L 190.557005 248.47985 
L 190.19256 246.616691 
L 189.569477 244.070374 
L 189.169763 239.738529 
L 189.510695 233.94721 
L 189.922166 231.043788 
L 190.462955 228.83905 
L 190.674568 226.370364 
L 191.391702 224.087995 
L 192.085323 223.09431 
L 193.23744 220.035624 
L 193.87228 217.240886 
L 195.776799 214.7722 
L 198.233864 213.12641 
L 198.868704 212.862463 
L 201.537382 210.921672 
L 202.548423 209.648514 
L 204.570505 207.474828 
L 206.674881 206.108512 
L 207.262696 205.891143 
L 208.908577 204.897458 
L 210.860121 204.136669 
L 214.586866 203.515616 
L 217.2673 202.428773 
L 220.923507 201.388509 
L 223.792042 199.99114 
L 224.567958 199.307982 
L 226.660577 197.134297 
L 227.260148 196.202717 
L 228.859004 193.392452 
L 229.693701 190.846135 
L 229.91707 189.277977 
L 229.740726 186.188238 
L 229.152911 181.57692 
L 229.164668 178.70455 
L 229.458575 176.934549 
L 230.469616 173.611916 
L 232.00969 171.112178 
L 232.726824 170.25823 
L 235.336721 167.38586 
L 238.369844 165.802175 
L 239.851137 165.119017 
L 241.7439 164.094279 
L 244.459603 161.765331 
L 246.058459 160.010856 
L 246.857887 158.660066 
L 248.280398 155.865328 
L 248.879969 154.42138 
L 249.79696 151.331641 
L 250.502337 148.366113 
L 250.984345 146.891112 
L 252.336319 144.018742 
L 254.005712 139.190056 
L 255.169585 136.457423 
L 256.58034 134.563211 
L 258.014608 132.047947 
L 259.425363 129.858735 
L 262.964007 125.821891 
L 265.291752 123.5861 
L 266.267525 123.042679 
L 270.311689 121.427941 
L 274.579223 120.216888 
L 276.64833 119.642414 
L 279.846042 118.338203 
L 282.679308 116.847676 
L 285.148129 114.37899 
L 286.876304 112.081094 
L 287.323043 111.165041 
L 288.510429 107.920039 
L 289.2981 104.597406 
L 289.697814 103.495037 
L 290.732368 101.600826 
L 293.16592 99.380561 
L 295.834599 98.278192 
L 296.293094 98.216087 
L 298.785428 97.501876 
L 301.31303 96.352928 
L 304.111028 95.871612 
L 306.967807 94.31898 
L 308.790032 92.642137 
L 310.718064 90.359767 
L 311.705592 89.474767 
L 313.010541 87.332134 
L 314.527102 84.863448 
L 314.985598 82.441342 
L 315.208967 79.879498 
L 315.761513 77.783445 
L 314.679934 74.647127 
L 313.304448 72.162915 
L 313.128104 71.588442 
L 312.434483 67.908703 
L 312.457995 64.818964 
L 312.646096 61.573963 
L 312.493264 60.595804 
L 311.129534 58.049487 
L 309.083939 55.472117 
L 306.626874 54.090274 
L 304.158053 52.894748 
L 302.606223 52.692905 
L 300.607653 51.807905 
L 298.656109 50.534746 
L 296.375388 47.910798 
L 295.822842 47.724482 
L 294.776532 45.209217 
L 294.553163 42.864742 
L 294.905851 41.234478 
L 295.458397 40.178688 
L 297.104278 37.244213 
L 298.950016 34.744475 
L 301.019123 33.564474 
L 302.888374 32.663948 
L 304.404935 32.4 
L 306.121354 33.16079 
L 307.332252 33.45579 
L 309.777561 34.34079 
L 313.04581 34.899738 
L 315.808538 35.660528 
L 319.500014 36.467897 
L 326.2011 37.834213 
L 328.787484 37.337371 
L 330.950642 37.55474 
L 333.325413 39.557635 
L 335.476815 41.218952 
L 336.770007 42.492111 
L 337.816317 42.973427 
L 340.696608 43.780795 
L 341.883994 44.727901 
L 343.682706 46.994744 
L 343.941345 47.569218 
L 345.904645 51.078168 
L 346.386653 53.98159 
L 346.057477 55.549749 
L 345.810595 60.751067 
L 344.917117 64.089227 
L 343.482849 66.946071 
L 342.448296 68.498703 
L 340.919978 71.262389 
L 340.367432 71.930021 
L 339.285853 75.004233 
L 338.944921 75.43897 
L 336.934595 78.404498 
L 334.747924 80.562657 
L 333.125556 83.388448 
L 331.350356 85.593186 
L 330.327559 87.596081 
L 329.234224 90.018188 
L 329.610425 92.347137 
L 330.503903 93.977401 
L 332.443691 95.219506 
L 335.018319 96.352928 
L 335.418033 96.352928 
L 337.416603 96.151086 
L 339.685567 94.458717 
L 341.836968 92.005557 
L 342.271951 91.679505 
L 345.081705 90.188978 
L 347.879702 89.179766 
L 351.230246 89.179766 
L 353.569748 89.909504 
L 354.674839 90.68582 
L 355.486023 91.865821 
L 356.41477 94.815822 
L 356.026813 97.331087 
L 355.215628 98.604245 
L 353.828386 100.746878 
L 353.358134 101.11951 
L 351.218489 102.485826 
L 349.678415 103.758985 
L 347.327157 105.389249 
L 346.786367 105.606617 
L 344.552672 107.190302 
L 342.083851 110.171356 
L 340.555533 112.624516 
L 339.121265 115.838465 
L 338.204274 118.508992 
L 338.169005 118.959256 
L 337.604703 121.862678 
L 337.534166 123.648206 
L 337.334309 125.40268 
L 336.864057 127.467681 
L 335.970579 132.979526 
L 335.853016 134.935843 
L 336.076385 138.025581 
L 336.817032 141.845057 
L 336.840544 143.366637 
L 336.370293 146.425323 
L 336.170436 146.906639 
L 334.336454 150.105061 
L 330.315802 154.918222 
L 327.870494 156.734802 
L 326.389201 158.163224 
L 324.625757 160.445593 
L 323.802817 161.718752 
L 318.46546 169.186914 
L 316.031908 172.307705 
L 312.987028 177.229549 
L 311.658567 179.092708 
L 310.365375 182.260078 
L 309.083939 186.809291 
L 308.660713 189.867977 
L 308.719494 190.908241 
L 309.636485 193.625347 
L 311.45871 196.420086 
L 313.269179 198.966403 
L 314.868035 201.481667 
L 315.303018 204.338511 
L 315.150186 205.099301 
L 314.997354 209.260356 
L 314.09212 212.815884 
L 313.610112 215.905622 
L 313.621868 220.765362 
L 313.7747 221.821152 
L 313.892263 224.926416 
L 313.86875 228.186944 
L 313.727675 228.776945 
L 312.328676 231.012735 
L 311.04724 235.593001 
L 310.647526 238.775897 
L 310.400644 239.179582 
L 307.943579 242.362478 
L 306.015547 245.31248 
L 305.063288 248.728271 
L 303.85239 250.59143 
L 302.747298 251.026167 
L 299.549587 257.888802 
L 299.196898 258.86696 
L 296.93969 263.26091 
L 296.410657 263.928542 
L 294.506138 266.754333 
L 292.037316 270.294335 
L 287.511144 278.321444 
L 286.605909 281.255919 
L 284.713146 284.563026 
L 284.336945 285.448027 
L 283.443467 288.273818 
L 278.164892 297.636191 
L 276.366179 301.533298 
L 274.955424 304.4833 
L 274.55571 306.113564 
L 273.062661 309.343039 
L 271.64015 311.811725 
L 270.652621 313.255673 
L 268.1838 315.227516 
L 266.961146 315.817516 
L 263.058057 315.444885 
L 258.120414 314.389095 
L 255.310661 313.146989 
L 253.605998 312.696725 
L 250.220186 311.935935 
L 247.269357 311.87383 
L 244.271503 312.867515 
L 242.272933 315.118832 
L 239.298591 316.050411 
L 236.524106 316.221201 
L 235.677653 316.966464 
L 233.326395 319.217781 
L 231.774564 320.009624 
L 229.388037 323.549626 
L 227.859719 325.583574 
L 226.754628 327.477786 
L 225.578999 330.303577 
L 225.026453 331.266209 
L 223.627454 334.278316 
L 221.758204 339.66595 
L 218.960206 345.876479 
L 218.254829 346.76148 
L 216.738267 349.183586 
L 216.103427 349.959903 
L 213.481774 352.490693 
L 211.048222 355.440695 
L 208.426569 357.117538 
L 207.709435 357.971486 
L 205.452227 360.036487 
L 203.618246 362.412014 
L 202.195734 364.834121 
L 201.807777 366.060701 
L 200.444047 368.715702 
L 199.033292 371.122282 
L 198.116301 373.280441 
L 196.352857 379.987813 
L 195.353572 387.673343 
L 194.765758 389.862555 
L 193.837011 392.579662 
L 193.578372 393.744136 
L 193.507835 396.802822 
L 193.613641 397.237559 
L 194.448338 403.789668 
L 194.072137 405.155984 
L 192.473281 407.74888 
L 191.685609 408.602828 
L 189.346107 410.512566 
L 188.217503 410.900724 
L 185.548825 412.220461 
L 184.337927 413.167567 
L 182.668533 413.586778 
L 181.328316 414.37862 
L 179.941074 415.387832 
L 178.49505 417.018096 
L 175.849884 421.722572 
L 174.62723 423.399415 
L 172.663929 425.681784 
L 171.946795 427.001522 
L 171.300199 430.525997 
L 171.476544 433.087841 
L 172.275972 436.426 
L 173.498626 438.646265 
L 175.168019 443.769952 
L 175.520708 446.0989 
L 175.802859 449.095481 
L 175.838128 450.663639 
L 174.838843 453.675746 
L 174.039415 457.510748 
L 172.781492 461.159434 
L 171.041561 463.472857 
L 169.442705 465.817332 
L 167.338329 467.649438 
L 164.434525 469.729965 
L 160.025915 473.518388 
L 156.581322 476.282074 
L 153.618736 479.263128 
L 152.184469 480.862339 
L 150.844252 483.004972 
L 146.224029 492.429451 
L 145.765533 492.879714 
L 143.543594 494.696294 
L 140.381152 497.770506 
L 136.983583 499.292086 
L 133.797628 500.347876 
L 129.753464 500.534192 
L 124.53367 498.313927 
L 123.604923 497.58419 
L 121.488791 496.109189 
L 118.008929 494.572083 
L 114.92878 494.323662 
L 112.342396 493.811294 
L 108.286475 494.649715 
L 107.028552 495.752084 
L 104.877151 497.786032 
L 103.337076 499.757876 
L 101.585389 502.599193 
L 100.691911 503.779193 
L 99.563307 506.465248 
L 97.717569 509.027091 
L 97.623518 509.53946 
L 96.295058 512.799988 
L 95.154697 515.470515 
L 93.779211 517.628674 
L 93.026808 519.80236 
L 92.109818 523.047361 
L 90.217055 526.866837 
L 89.135476 529.909997 
L 87.877553 531.664471 
L 87.501351 532.083682 
L 85.208874 534.350525 
L 84.468228 534.769736 
L 81.529155 536.198158 
L 78.484275 536.275789 
L 75.792085 536.120526 
L 75.274808 536.4 
L 70.137308 534.443683 
L 67.139454 534.055525 
L 64.999809 533.403419 
L 62.389912 532.363156 
L 59.862309 530.437892 
L 57.887252 528.947365 
L 57.170118 528.24868 
L 55.253843 525.981837 
L 53.443374 524.258415 
L 53.020147 524.134204 
L 52.079644 523.047361 
L 47.90616 517.287095 
L 46.742288 516.790253 
L 45.119919 516.277884 
L 45.143432 516.076042 
L 45.014113 515.765516 
L 44.179416 512.41183 
L 44.308735 511.588934 
L 45.002356 508.933933 
L 47.482934 504.012088 
L 48.376412 502.148929 
L 49.763655 499.478402 
L 50.386738 496.047084 
L 51.409535 493.23682 
L 52.585165 491.932608 
L 54.40739 489.72787 
L 54.91291 488.796291 
L 58.345748 484.200499 
L 60.638224 482.306288 
L 60.990913 481.57655 
L 62.14303 478.766286 
L 63.201096 477.788127 
L 66.046119 475.847337 
L 68.597234 473.984178 
L 69.996233 473.440757 
L 73.158675 471.049703 
L 73.370288 471.049703 
L 72.723692 473.456283 
L 72.100609 475.614442 
L 70.995518 478.207338 
L 68.938166 480.22576 
L 67.010135 483.206814 
L 65.69343 485.768658 
L 64.506044 490.007344 
L 64.623607 490.069449 
L 63.636079 489.122344 
L 61.849123 486.389711 
L 61.461165 483.579446 
L 61.461165 483.579446 
L 56.053271 477.663917 
L 55.688826 476.778916 
L 56.217859 475.800758 
L 56.652842 474.884705 
L 57.699151 471.251545 
L 58.451554 467.168122 
L 58.839512 467.137069 
L 59.039369 466.96628 
L 59.885822 465.599963 
L 60.508905 464.264699 
L 61.131989 462.57233 
L 60.026897 460.072592 
L 59.768259 459.793118 
L 60.038654 457.541801 
L 59.0041 458.17838 
L 58.78073 458.675223 
L 58.616142 459.467065 
L 58.322235 460.010486 
L 57.875496 461.299171 
L 57.134849 462.665488 
L 55.724094 464.652857 
L 53.537424 465.258384 
L 52.267745 464.482068 
L 48.435194 461.112855 
L 46.177986 460.072592 
L 43.94429 459.389433 
L 39.606218 457.184695 
L 37.207935 456.408379 
L 34.280618 455.30601 
L 32.65825 455.259431 
L 31.576671 454.871273 
L 30.024841 453.054693 
L 29.213656 453.147851 
L 28.15559 452.682062 
L 25.698525 452.076535 
L 25.028417 452.526798 
L 24.276014 452.651009 
L 23.829275 451.952324 
L 23.829275 451.098377 
L 24.346552 450.213376 
L 24.722753 449.281797 
L 24.687484 448.738375 
L 25.157736 447.744691 
L 25.569206 446.223111 
L 25.357593 444.064952 
L 25.040173 442.512319 
L 25.204761 440.664687 
L 25.369349 440.276529 
L 25.051929 439.671002 
L 24.69924 438.972318 
L 24.758022 438.553107 
L 25.216517 436.627843 
L 27.65007 430.991787 
L 28.813943 429.299418 
L 29.2019 429.03547 
L 29.942547 427.544943 
L 30.318748 420.309676 
L 30.459823 418.244675 
L 30.694949 417.903096 
L 31.188713 416.909411 
L 33.116745 414.161252 
L 35.138827 410.341776 
L 35.25639 408.928881 
L 36.326213 407.314143 
L 37.66643 406.56888 
L 39.25353 406.180721 
L 40.640772 403.649931 
L 41.063999 402.46993 
L 41.463712 400.979403 
L 42.415972 399.395718 
L 43.873752 397.594664 
L 44.661424 395.452032 
L 45.743003 393.72861 
L 46.906876 392.346767 
L 49.152327 390.405976 
L 50.668889 387.859659 
L 50.85699 386.539922 
L 51.36251 385.530711 
L 51.374266 385.095974 
L 51.762224 385.018342 
L 52.173694 383.822815 
L 52.761509 383.248341 
L 54.113482 383.170709 
L 54.865885 382.984394 
L 57.170118 381.121235 
L 56.993774 380.670971 
L 55.982733 379.397813 
L 55.794632 378.823339 
L 55.806389 378.047023 
L 56.194346 377.503601 
L 57.00553 377.115443 
L 58.063597 375.795706 
L 59.968116 372.969915 
L 60.591199 370.423598 
L 62.190055 368.80886 
L 63.28339 366.138332 
L 63.342172 365.129121 
L 64.024036 363.048594 
L 64.788195 361.604646 
L 66.151925 360.595435 
L 68.51494 358.049117 
L 69.4672 355.658064 
L 70.995518 353.406747 
L 73.135163 347.491217 
L 73.158675 346.233585 
L 73.911078 344.510163 
L 75.157245 342.103583 
L 77.07352 339.029371 
L 78.601838 337.430159 
L 79.848005 333.812526 
L 81.035391 331.04884 
L 81.764281 328.083312 
L 83.045717 325.521469 
L 83.739338 324.88489 
L 86.008302 321.717519 
L 86.972318 319.683571 
L 88.688737 316.764622 
L 91.416196 311.780672 
L 93.062077 309.280934 
L 94.590395 308.054354 
L 95.718999 305.259616 
L 96.447889 303.908826 
L 97.752838 303.148036 
L 98.352409 302.884089 
L 98.599291 302.495931 
L 100.162878 301.346983 
L 101.185675 300.104877 
L 102.314279 297.729349 
L 105.018226 290.183556 
L 105.747116 288.724081 
L 106.581813 285.230658 
L 108.486332 283.119078 
L 108.815508 282.932762 
L 109.861818 281.659604 
L 111.484187 276.737759 
L 112.048489 275.107495 
L 113.118311 273.135652 
L 113.929495 270.930914 
L 115.598889 267.344333 
L 117.715021 264.580648 
L 118.632012 261.894594 
L 119.584272 259.62775 
L 123.111159 253.556958 
L 123.863562 251.274588 
L 124.404351 250.156693 
L 126.297114 247.408533 
L 126.567509 247.268796 
L 127.190592 247.610376 
L 131.634471 250.498272 
L 132.657268 250.808798 
L 133.738847 251.290114 
L 136.936558 253.075642 
L 136.936558 253.075642 
" style="fill:none;stroke:#000000;stroke-width:3;"/>
   </g>
  </g>
 </g>
 <defs>
  <clipPath id="pc79a38ea35">
   <rect height="554.4" width="365.844045" x="7.2" y="7.2"/>
  </clipPath>
 </defs>
</svg>
