<?xml version="1.0" encoding="utf-8" standalone="no"?>
<!DOCTYPE svg PUBLIC "-//W3C//DTD SVG 1.1//EN"
  "http://www.w3.org/Graphics/SVG/1.1/DTD/svg11.dtd">
<svg height="530.608084pt" version="1.1" viewBox="0 0 572.4 530.608084" width="572.4pt" xmlns="http://www.w3.org/2000/svg" xmlns:xlink="http://www.w3.org/1999/xlink">
 <metadata>
  <rdf:RDF xmlns:cc="http://creativecommons.org/ns#" xmlns:dc="http://purl.org/dc/elements/1.1/" xmlns:rdf="http://www.w3.org/1999/02/22-rdf-syntax-ns#">
   <cc:Work>
    <dc:type rdf:resource="http://purl.org/dc/dcmitype/StillImage"/>
    <dc:date>2021-11-16T01:59:38.722997</dc:date>
    <dc:format>image/svg+xml</dc:format>
    <dc:creator>
     <cc:Agent>
      <dc:title>Matplotlib v3.4.3, https://matplotlib.org/</dc:title>
     </cc:Agent>
    </dc:creator>
   </cc:Work>
  </rdf:RDF>
 </metadata>
 <defs>
  <style type="text/css">*{stroke-linecap:butt;stroke-linejoin:round;}</style>
 </defs>
 <g id="figure_1">
  <g id="patch_1">
   <path d="M 0 530.608084 
L 572.4 530.608084 
L 572.4 0 
L 0 0 
z
" style="fill:#ffffff;"/>
  </g>
  <g id="axes_1">
   <g id="LineCollection_1">
    <path clip-path="url(#p61d06badc2)" d="M 35.669583 343.62257 
L 36.625259 345.137191 
L 41.021367 350.375255 
L 49.574666 352.647187 
L 53.301802 351.069456 
L 55.022018 349.681054 
L 56.646667 347.850887 
L 59.035857 343.62257 
L 62.524073 335.6077 
L 64.148722 333.083332 
L 72.55867 324.689807 
L 76.09467 322.670312 
L 87.323861 320.840145 
L 89.95197 321.28191 
L 95.25597 322.480985 
L 100.942242 324.752916 
L 104.430458 327.529722 
L 108.826567 332.515349 
L 111.88473 335.481482 
L 115.181811 338.447615 
L 123.639542 344.695426 
L 125.598678 345.452737 
L 136.254463 352.773405 
L 147.43587 358.705671 
L 155.224628 362.555332 
L 166.358252 366.972977 
L 170.133171 368.172052 
L 181.649065 372.715915 
L 193.403878 377.764652 
L 202.530582 380.857003 
L 207.977934 383.192044 
L 217.582476 389.439855 
L 224.367774 395.182793 
L 232.347667 404.586065 
L 235.7881 410.58144 
L 240.709831 422.004207 
L 242.812318 429.135548 
L 244.675885 436.266888 
L 244.723669 449.267385 
L 247.351778 460.690152 
L 248.450805 462.709647 
L 257.243023 473.690649 
L 262.594807 479.749133 
L 264.936213 481.326863 
L 267.994376 484.292996 
L 278.745729 489.026187 
L 290.309406 494.516688 
L 291.934055 495.14778 
L 299.197191 497.672148 
L 310.760869 499.94408 
L 310.760869 499.94408 
L 315.44368 499.312988 
L 327.867466 499.754752 
L 339.048873 497.482821 
L 341.008008 496.220636 
L 351.23374 489.972825 
L 352.906173 488.77375 
L 363.418607 480.632662 
L 364.85212 478.802495 
L 373.644338 470.282752 
L 381.098609 456.461835 
L 387.740556 444.155539 
L 390.034178 439.548567 
L 401.741207 419.606057 
L 407.331911 409.00371 
L 414.690615 395.687667 
L 419.80348 386.852378 
L 426.540995 376.754904 
L 429.838076 370.191547 
L 431.65386 366.215666 
L 436.766726 353.909371 
L 439.203699 349.744163 
L 445.558944 338.447615 
L 448.425971 331.947366 
L 456.596999 318.88376 
L 458.986189 315.286535 
L 466.201541 305.504608 
L 467.252785 303.863768 
L 470.21538 298.562595 
L 474.229218 290.042852 
L 477.191813 280.955126 
L 479.485435 277.484119 
L 486.987491 265.493369 
L 489.902302 259.750431 
L 495.254086 251.798671 
L 496.400897 250.410268 
L 502.134952 239.744812 
L 511.882846 222.705326 
L 516.087819 214.501129 
L 522.01301 202.510379 
L 525.692361 194.49551 
L 527.794848 187.364169 
L 528.033767 179.159972 
L 526.695821 166.411912 
L 526.456902 162.120486 
L 525.071172 152.21234 
L 525.357875 144.828562 
L 525.596794 131.44941 
L 526.409118 126.968656 
L 528.750524 117.944039 
L 530.948578 108.603877 
L 531.617552 106.773709 
L 535.965877 95.666489 
L 539.310742 85.127251 
L 539.836364 73.452047 
L 538.737336 67.141126 
L 536.109228 60.956424 
L 533.289984 54.645503 
L 529.753984 48.587019 
L 522.920902 39.877948 
L 519.337117 37.038034 
L 508.394629 31.989297 
L 505.049764 30.916441 
L 499.172357 30.664004 
L 494.776249 30.853331 
L 483.117003 32.178625 
L 480.632246 32.178625 
L 476.283921 32.620389 
L 465.05473 37.858454 
L 461.614297 39.877948 
L 452.392026 44.674248 
L 437.57905 46.251978 
L 437.531267 46.378197 
L 435.094293 48.965674 
L 424.916346 53.446428 
L 415.025101 55.276595 
L 412.970398 55.276595 
L 398.491909 53.257101 
L 394.048017 52.184244 
L 387.931691 48.902565 
L 375.794608 40.319713 
L 371.876338 38.741983 
L 360.31266 34.702993 
L 355.868768 33.503918 
L 349.84801 32.494171 
L 341.008008 33.125263 
L 328.488655 37.164252 
L 326.242817 38.300218 
L 318.454059 42.780972 
L 316.064869 43.853828 
L 306.555895 49.470548 
L 297.28584 57.864073 
L 290.070487 64.238103 
L 284.145297 67.582891 
L 273.871782 74.209358 
L 261.065726 77.617255 
L 257.004104 78.374566 
L 244.245831 79.573641 
L 231.63091 80.962043 
L 225.419018 80.520279 
L 213.664205 80.583388 
L 204.298582 79.889187 
L 191.014688 79.447422 
L 183.464849 79.321204 
L 171.75782 81.025152 
L 169.798685 81.466917 
L 156.467007 84.811705 
L 146.384627 88.598257 
L 135.872193 93.836322 
L 128.895759 97.685983 
L 119.386785 106.268836 
L 108.492081 115.924545 
L 106.676296 117.691603 
L 100.512187 123.118995 
L 94.156943 132.774703 
L 92.818997 134.604871 
L 86.415969 145.7752 
L 80.63413 158.333933 
L 80.012941 160.479646 
L 76.238022 172.975269 
L 74.565589 177.203586 
L 72.080832 189.509882 
L 71.650778 194.369291 
L 71.55521 196.767441 
L 70.026129 210.083484 
L 69.78721 216.646842 
L 70.838453 229.268684 
L 71.220723 231.351287 
L 72.510886 242.837163 
L 72.702021 248.643211 
L 74.470021 260.760179 
L 75.282346 264.294294 
L 76.333589 281.018235 
L 80.012941 297.174192 
L 77.86267 309.859143 
L 69.739426 317.558467 
L 61.425046 327.65594 
L 55.977694 339.772908 
L 52.728396 345.326518 
L 47.137693 355.802647 
L 42.407097 363.880626 
L 35.956286 375.177174 
L 32.563636 377.827761 
L 32.563636 377.827761 
" style="fill:none;stroke:#000000;stroke-width:3;"/>
   </g>
  </g>
 </g>
 <defs>
  <clipPath id="p61d06badc2">
   <rect height="516.208084" width="558" x="7.2" y="7.2"/>
  </clipPath>
 </defs>
</svg>
