<?xml version="1.0" encoding="utf-8" standalone="no"?>
<!DOCTYPE svg PUBLIC "-//W3C//DTD SVG 1.1//EN"
  "http://www.w3.org/Graphics/SVG/1.1/DTD/svg11.dtd">
<svg xmlns:xlink="http://www.w3.org/1999/xlink" width="474.044968pt" height="568.8pt" viewBox="0 0 474.044968 568.8" xmlns="http://www.w3.org/2000/svg" version="1.1">
 <metadata>
  <rdf:RDF xmlns:dc="http://purl.org/dc/elements/1.1/" xmlns:cc="http://creativecommons.org/ns#" xmlns:rdf="http://www.w3.org/1999/02/22-rdf-syntax-ns#">
   <cc:Work>
    <dc:type rdf:resource="http://purl.org/dc/dcmitype/StillImage"/>
    <dc:date>2021-11-28T01:56:02.990621</dc:date>
    <dc:format>image/svg+xml</dc:format>
    <dc:creator>
     <cc:Agent>
      <dc:title>Matplotlib v3.5.0, https://matplotlib.org/</dc:title>
     </cc:Agent>
    </dc:creator>
   </cc:Work>
  </rdf:RDF>
 </metadata>
 <defs>
  <style type="text/css">*{stroke-linejoin: round; stroke-linecap: butt}</style>
 </defs>
 <g id="figure_1">
  <g id="patch_1">
   <path d="M 0 568.8 
L 474.044968 568.8 
L 474.044968 0 
L 0 0 
z
" style="fill: #ffffff"/>
  </g>
  <g id="axes_1">
   <g id="LineCollection_1">
    <path d="M 422.628689 536.4 
L 421.390282 533.734039 
L 420.667878 522.270405 
L 424.795901 504.67506 
L 426.240709 486.01333 
L 428.820723 457.620841 
L 430.575132 434.960169 
L 432.12314 404.834806 
L 433.464748 391.904893 
L 435.115957 374.576144 
L 435.941561 358.447077 
L 436.354363 342.051415 
L 435.631959 323.656281 
L 434.909556 300.729013 
L 435.322358 286.332822 
L 437.799171 259.406612 
L 438.831177 242.344459 
L 439.553581 218.084211 
L 441.411191 203.688019 
L 442.030394 193.024173 
L 442.133595 151.568474 
L 443.1656 126.641735 
L 445.952015 98.249246 
L 443.991205 89.318276 
L 427.995118 77.721344 
L 405.497396 77.721344 
L 379.800457 80.653901 
L 370.409206 79.587517 
L 345.744273 77.721344 
L 336.662624 76.521661 
L 292.079982 70.123354 
L 254.514979 63.45845 
L 227.166831 59.726104 
L 213.234755 56.127056 
L 187.021814 51.461624 
L 182.584189 49.995345 
L 164.524092 47.062788 
L 155.648844 46.129701 
L 150.901618 45.463211 
L 121.902261 39.464798 
L 95.173316 35.999048 
L 90.735692 36.398942 
L 64.316349 33.866279 
L 59.362722 32.4 
L 42.747432 32.933192 
L 39.651416 35.732452 
L 37.690605 39.3315 
L 37.793806 46.396297 
L 39.135413 53.727691 
L 40.167418 78.521132 
L 38.722611 87.052208 
L 35.007391 122.376197 
L 32.427377 157.566887 
L 30.982569 184.093203 
L 30.776168 192.224385 
L 28.918558 211.685903 
L 28.092953 235.812854 
L 39.961017 239.411902 
L 64.52275 239.278604 
L 74.223603 238.612113 
L 86.814071 238.745411 
L 113.749417 240.078392 
L 118.393442 241.278075 
L 145.535189 249.809151 
L 150.592016 249.542555 
L 186.29941 255.141074 
L 212.821953 257.273843 
L 226.857229 257.940333 
L 250.180555 265.271727 
L 258.023798 266.071515 
L 280.315119 269.004073 
L 294.040793 269.803861 
L 321.388941 270.870246 
L 325.104161 270.070458 
L 342.957858 274.73589 
L 347.08588 274.602592 
L 417.159059 290.331764 
L 424.899101 291.798043 
L 435.941561 305.261148 
L 435.941561 333.253742 
L 435.322358 337.785877 
L 433.671149 372.176779 
L 434.393553 382.707326 
L 434.083951 387.506057 
L 431.091135 417.098228 
L 428.40792 441.09188 
L 427.375915 460.819995 
L 424.795901 488.545993 
L 423.351093 498.676646 
L 415.40465 520.804126 
L 407.045405 526.136049 
L 378.046048 526.535943 
L 373.608424 526.935837 
L 360.08915 527.335731 
L 344.609067 523.869981 
L 332.3282 522.270405 
L 312.204091 511.606559 
L 307.353665 492.544935 
L 309.727278 465.218831 
L 312.307292 437.226236 
L 313.442498 412.83269 
L 314.887306 393.371172 
L 316.641715 380.307961 
L 320.460136 350.449193 
L 323.452952 324.056176 
L 323.349752 310.326474 
L 323.762554 290.864956 
L 324.691359 266.738006 
L 326.239367 257.673737 
L 326.75537 232.6137 
L 328.096977 224.882412 
L 330.264189 200.355567 
L 332.3282 187.958847 
L 333.050604 163.165406 
L 333.876209 154.501031 
L 334.805014 127.841418 
L 335.217816 123.575879 
L 335.837019 114.245015 
L 341.409849 85.186035 
L 341.203448 66.524306 
L 336.146621 61.458979 
L 320.769738 59.9927 
L 294.969598 62.258768 
L 283.720737 61.059085 
L 258.230199 59.592806 
L 254.618179 60.659191 
L 249.14855 65.324623 
L 245.949333 69.323565 
L 248.426146 86.785612 
L 246.465335 110.512669 
L 245.43333 113.711822 
L 244.814126 139.971542 
L 243.782121 157.833483 
L 241.614909 185.292885 
L 241.511709 198.889289 
L 240.995706 224.482518 
L 238.931695 242.611055 
L 236.24848 270.60365 
L 234.803672 279.001428 
L 230.882051 304.861254 
L 230.572449 320.99032 
L 229.746845 347.383338 
L 228.611639 372.043481 
L 224.483616 394.437556 
L 223.038808 422.430151 
L 222.935608 427.628775 
L 220.768396 451.755726 
L 220.665196 465.618725 
L 221.4908 482.680878 
L 222.419605 491.345253 
L 226.754029 496.677175 
L 230.469249 498.010156 
L 255.443784 500.142925 
L 273.400681 502.675588 
L 293.42159 503.475377 
L 317.46732 501.342608 
L 322.524147 501.342608 
L 347.292281 504.941656 
L 354.619521 504.541761 
L 354.619521 504.541761 
" clip-path="url(#p361a250a9b)" style="fill: none; stroke: #000000; stroke-width: 3"/>
   </g>
  </g>
 </g>
 <defs>
  <clipPath id="p361a250a9b">
   <rect x="7.2" y="7.2" width="459.644968" height="554.4"/>
  </clipPath>
 </defs>
</svg>
