<?xml version="1.0" encoding="utf-8" standalone="no"?>
<!DOCTYPE svg PUBLIC "-//W3C//DTD SVG 1.1//EN"
  "http://www.w3.org/Graphics/SVG/1.1/DTD/svg11.dtd">
<svg xmlns:xlink="http://www.w3.org/1999/xlink" width="298.207702pt" height="568.8pt" viewBox="0 0 298.207702 568.8" xmlns="http://www.w3.org/2000/svg" version="1.1">
 <metadata>
  <rdf:RDF xmlns:dc="http://purl.org/dc/elements/1.1/" xmlns:cc="http://creativecommons.org/ns#" xmlns:rdf="http://www.w3.org/1999/02/22-rdf-syntax-ns#">
   <cc:Work>
    <dc:type rdf:resource="http://purl.org/dc/dcmitype/StillImage"/>
    <dc:date>2021-12-14T02:05:23.572889</dc:date>
    <dc:format>image/svg+xml</dc:format>
    <dc:creator>
     <cc:Agent>
      <dc:title>Matplotlib v3.5.1, https://matplotlib.org/</dc:title>
     </cc:Agent>
    </dc:creator>
   </cc:Work>
  </rdf:RDF>
 </metadata>
 <defs>
  <style type="text/css">*{stroke-linejoin: round; stroke-linecap: butt}</style>
 </defs>
 <g id="figure_1">
  <g id="patch_1">
   <path d="M -0 568.8 
L 298.207702 568.8 
L 298.207702 0 
L -0 0 
z
" style="fill: #ffffff"/>
  </g>
  <g id="axes_1">
   <g id="LineCollection_1">
    <path d="M 141.791598 168.935541 
L 141.784216 168.896547 
L 142.175482 168.594348 
L 142.419101 168.662587 
L 144.176109 169.71541 
L 145.054613 169.900629 
L 147.631065 171.089929 
L 149.528338 172.873879 
L 149.919605 173.068846 
L 151.137698 173.449032 
L 152.791353 174.326384 
L 155.279217 176.724481 
L 155.308746 177.943026 
L 154.385948 179.736725 
L 152.47391 184.250216 
L 151.034345 186.892021 
L 150.790726 188.061825 
L 147.756566 193.091979 
L 146.700885 195.460831 
L 145.69688 197.400754 
L 145.268702 198.707035 
L 143.843901 201.34884 
L 143.496929 201.797265 
L 143.327134 202.24569 
L 141.821128 203.532473 
L 142.286218 204.224607 
L 142.60366 204.380581 
L 142.994927 204.838754 
L 143.415723 206.817671 
L 143.445252 209.001304 
L 143.209016 211.808832 
L 142.596278 214.411644 
L 142.404336 216.127355 
L 142.596278 217.88206 
L 143.179487 219.66601 
L 143.659342 220.475124 
L 146.649208 222.551525 
L 152.769206 227.133255 
L 153.566503 227.454951 
L 159.885826 229.5411 
L 159.885826 229.5411 
L 167.674243 233.391702 
L 169.165485 233.976604 
L 174.65798 238.139154 
L 175.861309 238.802043 
L 178.474673 239.796375 
L 181.907483 240.566496 
L 182.682633 240.936934 
L 183.753079 240.829702 
L 185.126203 241.063662 
L 185.930883 241.063662 
L 188.293246 241.4341 
L 189.799253 242.048247 
L 190.530109 242.477175 
L 193.335416 244.270873 
L 196.13334 248.131224 
L 198.067525 250.129638 
L 200.097681 251.767362 
L 200.437271 252.118303 
L 200.872832 253.112636 
L 200.629213 254.467658 
L 200.37083 255.120798 
L 198.480939 258.415744 
L 196.878961 261.720439 
L 194.487068 266.682354 
L 193.667623 267.861906 
L 191.851556 271.673515 
L 191.135465 272.921305 
L 189.489193 276.167509 
L 185.938265 282.250486 
L 183.450401 285.194491 
L 183.162488 285.85738 
L 181.567893 289.941943 
L 179.279353 293.119909 
L 179.080029 294.075248 
L 177.25658 297.184975 
L 174.945893 301.591234 
L 174.355302 304.145305 
L 173.498945 305.851268 
L 169.866811 311.164124 
L 169.15072 313.045558 
L 168.641335 314.069136 
L 168.220539 315.258436 
L 167.984303 316.340504 
L 167.593036 317.159366 
L 166.478296 318.758098 
L 165.799117 320.064378 
L 164.861554 322.296752 
L 164.027344 322.920648 
L 163.052869 324.119696 
L 162.233424 325.52346 
L 159.90059 328.311491 
L 158.81538 329.763997 
L 158.246936 331.694172 
L 157.493933 332.815234 
L 156.785224 333.185671 
L 156.253692 333.770573 
L 156.091279 334.306733 
L 153.182619 339.707325 
L 150.783344 344.766724 
L 150.347783 346.921112 
L 148.317627 351.288377 
L 146.139823 354.076409 
L 145.519703 355.31445 
L 145.010318 356.513499 
L 142.862044 359.691464 
L 142.500307 360.295863 
L 140.676858 363.590809 
L 138.713143 366.749278 
L 137.80511 367.772855 
L 135.797101 371.19453 
L 135.095774 372.44232 
L 133.811239 375.269345 
L 132.76294 378.252343 
L 132.054231 380.348241 
L 131.891819 381.098865 
L 131.722024 382.824324 
L 130.223399 384.968964 
L 128.311362 387.289074 
L 127.602652 387.591273 
L 127.122797 388.049446 
L 126.303353 388.488122 
L 124.804728 392.494698 
L 123.763812 394.044688 
L 122.316864 397.212905 
L 120.906829 399.601253 
L 119.061232 401.99935 
L 117.872668 404.777633 
L 117.082753 405.927939 
L 113.05197 412.634812 
L 112.786204 413.2977 
L 110.866784 416.339189 
L 108.748039 419.692625 
L 108.34939 420.170295 
L 107.367533 421.642297 
L 107.175591 422.334431 
L 106.186351 424.732527 
L 105.322612 426.350755 
L 102.657571 430.474312 
L 100.664327 434.383405 
L 99.630793 435.787169 
L 94.440975 445.740245 
L 92.528937 448.771985 
L 91.118902 449.980782 
L 90.58737 450.253736 
L 90.262545 450.770399 
L 88.1438 455.352129 
L 87.117649 456.872873 
L 86.268674 458.37412 
L 85.23514 460.791714 
L 84.74052 462.059001 
L 84.179459 462.907108 
L 84.017047 463.531003 
L 83.50028 464.68131 
L 82.474128 466.007087 
L 81.949979 466.46526 
L 81.071475 468.239462 
L 79.188966 473.464583 
L 78.657434 474.215207 
L 77.284311 475.687209 
L 76.723249 476.496323 
L 75.556832 478.923665 
L 74.006531 481.662954 
L 73.032056 483.427408 
L 71.86564 486.722354 
L 69.540188 489.354411 
L 65.169816 498.098691 
L 63.663809 500.506536 
L 62.534304 502.251492 
L 61.079974 505.409961 
L 59.411555 507.720323 
L 58.577345 508.607423 
L 57.617635 510.274393 
L 54.118384 517.078749 
L 53.623764 517.614909 
L 53.26941 518.190062 
L 49.297686 526.076486 
L 46.809822 530.424255 
L 46.684321 530.784944 
L 44.860872 533.036816 
L 43.111247 536.28302 
L 41.94483 536.4 
L 41.154914 536.156291 
L 39.523407 535.308184 
L 37.980489 535.317932 
L 37.21272 535.200952 
L 35.455713 534.089638 
L 34.208089 532.685875 
L 25.172049 527.226793 
L 22.706332 526.690633 
L 21.06006 526.017996 
L 20.181556 525.023663 
L 20.10035 523.79537 
L 21.266767 521.611737 
L 22.322448 519.837535 
L 22.344595 518.628738 
L 22.994245 517.146987 
L 24.035162 515.070587 
L 25.614992 512.272807 
L 26.279407 510.77156 
L 31.469224 502.017532 
L 33.366497 498.235168 
L 33.742999 496.421972 
L 36.821454 490.923897 
L 36.939572 490.212267 
L 37.840223 488.213853 
L 44.572959 474.653883 
L 45.436698 473.279364 
L 46.765528 470.306114 
L 47.658796 468.229713 
L 49.792306 464.886025 
L 52.265405 460.333541 
L 52.730495 459.748639 
L 54.590857 456.307468 
L 55.68345 454.318802 
L 56.200217 452.993025 
L 57.654547 450.292729 
L 59.0572 446.334895 
L 60.66656 443.166678 
L 61.301445 441.460714 
L 61.714859 439.754751 
L 61.677947 439.101611 
L 63.412808 434.666107 
L 64.593989 433.681523 
L 65.52417 431.224936 
L 65.516788 428.076215 
L 65.472493 427.920241 
L 65.937584 427.286598 
L 67.185207 426.584716 
L 67.731503 425.853589 
L 69.163686 423.065558 
L 69.746895 421.437581 
L 70.662311 418.240119 
L 71.393167 416.914342 
L 73.644794 414.028827 
L 73.962237 413.326945 
L 74.811211 411.075074 
L 76.804456 408.062831 
L 77.542694 406.776047 
L 79.934587 404.114744 
L 80.842621 402.935193 
L 83.168072 400.108168 
L 83.825105 398.587424 
L 84.319724 395.633671 
L 84.548578 395.048769 
L 86.56397 391.822061 
L 87.774681 390.028363 
L 88.904186 387.337816 
L 90.757165 382.414893 
L 91.57661 379.490385 
L 93.820855 377.345746 
L 94.7658 375.532551 
L 96.943604 371.828174 
L 97.70399 368.718446 
L 98.287198 367.499901 
L 99.276438 365.092056 
L 100.132795 363.40559 
L 101.240153 361.884846 
L 101.373036 360.715042 
L 103.668958 358.901847 
L 104.32599 357.888018 
L 104.783698 357.117897 
L 104.746786 356.815698 
L 104.458873 355.67514 
L 104.599138 355.480173 
L 102.672336 353.89119 
L 102.089127 353.277043 
L 101.461624 352.438684 
L 100.92271 351.356616 
L 100.804592 350.830204 
L 101.092505 349.689646 
L 101.75692 348.471101 
L 102.797836 347.340291 
L 107.020561 343.489689 
L 107.478269 342.865794 
L 108.666833 340.80889 
L 109.862779 338.089097 
L 111.294962 335.525278 
L 114.454623 329.14985 
L 116.233778 326.751753 
L 119.245792 323.788252 
L 122.250423 321.692354 
L 122.981279 321.331665 
L 124.413462 320.912485 
L 125.926851 320.717518 
L 128.975776 320.931982 
L 130.371047 321.292671 
L 132.925353 322.706184 
L 134.903832 323.690768 
L 136.284338 324.022212 
L 139.082262 324.178186 
L 141.614421 323.076621 
L 143.386193 321.643612 
L 144.870053 320.298339 
L 145.600909 319.226019 
L 147.143828 315.365668 
L 147.564624 314.000897 
L 148.553863 311.992735 
L 149.90484 310.267275 
L 150.997433 309.292439 
L 153.322885 307.674211 
L 154.467154 306.972329 
L 156.7114 305.558817 
L 158.276466 304.301279 
L 159.546236 302.946256 
L 160.601917 301.396267 
L 162.336778 297.925851 
L 162.897839 295.84945 
L 163.517959 292.388782 
L 163.348165 290.156407 
L 163.097164 289.42528 
L 161.089155 284.863047 
L 160.697888 282.328473 
L 161.133449 279.023779 
L 162.949516 276.109019 
L 164.927995 273.457465 
L 166.094412 272.385145 
L 173.476798 267.140527 
L 174.355302 265.951227 
L 174.982805 264.547463 
L 175.226423 261.895909 
L 175.159982 261.242769 
L 175.086158 258.308512 
L 175.396218 256.592801 
L 175.794867 255.510733 
L 177.138461 250.149134 
L 177.19752 249.661716 
L 177.795494 247.507329 
L 178.747821 244.894768 
L 179.48606 243.247295 
L 181.139714 240.088826 
L 181.375951 239.542918 
L 182.527603 237.359285 
L 183.760461 235.809296 
L 188.83216 230.740148 
L 191.393848 226.938287 
L 192.781737 224.315978 
L 193.704535 222.317564 
L 194.856187 219.01287 
L 197.004462 215.415725 
L 199.293001 212.062289 
L 202.733193 209.254761 
L 206.424386 207.646282 
L 210.920259 206.671445 
L 218.863706 207.734017 
L 220.864333 207.275844 
L 221.499218 207.00289 
L 222.665635 206.281511 
L 223.625345 205.257933 
L 225.89912 201.582801 
L 226.659505 200.354508 
L 228.822544 196.523402 
L 231.487586 191.425009 
L 236.743844 182.193312 
L 239.622975 177.124164 
L 241.859838 172.912872 
L 244.746351 168.136175 
L 247.330186 163.213253 
L 249.47846 158.865484 
L 250.770378 154.449477 
L 250.77776 145.831926 
L 251.383116 141.454912 
L 251.375733 140.587308 
L 251.006614 137.809025 
L 249.042899 133.753707 
L 247.928159 130.419768 
L 248.20869 127.719472 
L 249.552284 124.083333 
L 251.331439 120.437446 
L 254.048157 116.01169 
L 257.303789 112.404797 
L 261.866103 107.823067 
L 264.841205 104.342902 
L 265.239854 103.572782 
L 266.059299 100.063372 
L 265.527767 96.573459 
L 265.564679 93.200526 
L 266.066681 88.384836 
L 266.649889 86.064726 
L 267.196186 82.974496 
L 267.845836 81.482996 
L 269.122989 79.406596 
L 269.639756 78.782701 
L 272.002119 76.686803 
L 276.844964 73.762295 
L 277.812057 72.280544 
L 278.107352 70.652568 
L 277.94494 69.814209 
L 277.546291 69.03434 
L 276.320815 67.718311 
L 274.689308 67.113913 
L 272.836329 67.172403 
L 271.130998 67.708563 
L 269.558549 68.644405 
L 266.672037 70.99376 
L 265.81568 71.295959 
L 264.951941 71.432437 
L 263.172786 71.237469 
L 261.637249 70.330872 
L 260.677539 68.819876 
L 260.374862 67.96202 
L 260.286273 67.143158 
L 260.507744 65.544427 
L 261.533896 63.585006 
L 263.623111 61.2454 
L 266.487477 57.599513 
L 267.358598 56.302981 
L 268.480721 54.080354 
L 270.451818 49.488876 
L 270.747114 47.997377 
L 270.665907 45.852738 
L 270.186052 44.507464 
L 269.831698 43.873821 
L 267.720335 41.251512 
L 264.907646 38.648699 
L 261.179542 36.231106 
L 259.082944 35.19778 
L 256.351461 34.583633 
L 254.926661 34.18395 
L 251.331439 33.881751 
L 248.127483 33.267604 
L 245.521501 32.4 
L 244.635615 32.429245 
L 243.853082 32.682702 
L 242.413517 33.901248 
L 241.461189 35.032057 
L 240.796774 36.240854 
L 240.361214 37.508141 
L 240.25786 37.946817 
L 240.139742 40.315669 
L 240.353831 41.300253 
L 240.855833 42.33358 
L 241.084687 42.577289 
L 242.02225 43.376654 
L 242.797401 43.834827 
L 248.496603 45.90148 
L 249.1684 46.447388 
L 249.94355 47.665933 
L 250.578436 49.576612 
L 251.013996 52.666842 
L 251.228085 55.113681 
L 251.515999 56.205497 
L 252.763622 59.841636 
L 252.859593 61.021187 
L 252.763622 62.483441 
L 251.8925 65.339711 
L 250.74823 67.318628 
L 249.781138 68.576167 
L 249.079811 69.258552 
L 247.271127 70.672064 
L 245.08594 71.968596 
L 243.328933 72.641233 
L 238.61897 74.600654 
L 237.902879 75.058827 
L 237.275376 75.594987 
L 236.153254 76.842777 
L 235.267367 78.314779 
L 234.10095 81.970414 
L 233.731831 82.584561 
L 231.849323 84.777942 
L 231.37685 85.119135 
L 228.93328 86.298687 
L 225.411882 87.565974 
L 222.18578 89.076969 
L 218.494587 92.313425 
L 216.700667 94.838251 
L 215.061777 97.801752 
L 213.127592 102.295747 
L 212.034999 105.551699 
L 211.01623 108.135015 
L 210.765229 109.675256 
L 210.05652 110.903549 
L 208.565278 112.872718 
L 206.948535 114.403211 
L 204.150611 116.304141 
L 202.474809 117.093758 
L 202.098308 117.337467 
L 201.14598 118.175826 
L 200.444653 119.062927 
L 199.440649 120.681155 
L 198.813146 122.543092 
L 198.252085 125.711309 
L 198.42188 131.482339 
L 198.097055 133.393018 
L 196.576283 135.781366 
L 196.185017 136.1713 
L 194.383715 137.497077 
L 192.442147 138.325688 
L 188.352305 139.885426 
L 187.392595 140.304605 
L 185.753706 140.606805 
L 184.786613 141.123468 
L 183.826903 142.049562 
L 182.73431 143.01465 
L 179.050499 146.913994 
L 177.455904 149.107375 
L 175.359306 153.045713 
L 173.801623 157.559204 
L 173.558004 159.167683 
L 173.535857 161.419555 
L 173.735181 163.34973 
L 174.148595 165.201919 
L 176.156604 172.279229 
L 176.702901 175.164743 
L 176.695518 176.938945 
L 176.496194 178.069755 
L 175.115688 181.735139 
L 172.805001 184.952098 
L 169.962782 188.354276 
L 166.493061 191.152055 
L 162.0341 194.183795 
L 161.709275 194.661465 
L 160.882448 196.113971 
L 160.454269 196.162713 
L 160.018709 195.860513 
L 159.767708 195.519321 
L 159.841531 194.788194 
L 160.572388 192.78978 
L 160.993184 190.762121 
L 161.207273 188.900184 
L 161.318009 186.940763 
L 160.461652 183.031671 
L 159.457647 180.799296 
L 159.140205 180.341123 
L 156.86643 177.650575 
L 156.814753 176.714733 
L 157.006695 175.525433 
L 158.593908 172.766647 
L 158.586526 171.109425 
L 158.047612 170.173583 
L 157.080519 169.510694 
L 154.127565 167.804731 
L 153.130943 167.122346 
L 152.082644 166.605683 
L 147.476035 163.94438 
L 144.508316 162.511371 
L 140.536592 159.89881 
L 137.871551 158.47555 
L 134.918597 156.730593 
L 132.098525 155.102617 
L 130.186488 154.166774 
L 123.756429 149.906741 
L 122.641689 148.912408 
L 121.645067 147.645121 
L 118.300846 147.303928 
L 117.318989 148.122791 
L 117.031076 148.512725 
L 116.506927 149.633787 
L 116.506927 151.788174 
L 116.787457 152.207354 
L 116.743163 152.090373 
L 117.186106 152.626533 
L 117.510931 153.83533 
L 116.211631 154.751676 
L 116.004924 155.590035 
L 115.99016 156.009215 
L 115.753923 156.106698 
L 115.968012 156.243175 
L 122.508806 158.670517 
L 124.760434 159.879314 
L 126.244293 161.097859 
L 128.702628 162.530868 
L 131.020697 163.924883 
L 133.759562 165.065442 
L 134.379683 165.699085 
L 135.221275 166.332729 
L 135.678983 166.420464 
L 137.738668 167.716996 
L 139.886942 168.52611 
L 140.699005 169.169502 
L 141.629186 169.491197 
L 141.629186 169.491197 
" clip-path="url(#pf18d8b0d14)" style="fill: none; stroke: #000000; stroke-width: 3"/>
   </g>
  </g>
 </g>
 <defs>
  <clipPath id="pf18d8b0d14">
   <rect x="7.2" y="7.2" width="283.807702" height="554.4"/>
  </clipPath>
 </defs>
</svg>
