<?xml version="1.0" encoding="utf-8" standalone="no"?>
<!DOCTYPE svg PUBLIC "-//W3C//DTD SVG 1.1//EN"
  "http://www.w3.org/Graphics/SVG/1.1/DTD/svg11.dtd">
<svg xmlns:xlink="http://www.w3.org/1999/xlink" width="359.589873pt" height="568.8pt" viewBox="0 0 359.589873 568.8" xmlns="http://www.w3.org/2000/svg" version="1.1">
 <metadata>
  <rdf:RDF xmlns:dc="http://purl.org/dc/elements/1.1/" xmlns:cc="http://creativecommons.org/ns#" xmlns:rdf="http://www.w3.org/1999/02/22-rdf-syntax-ns#">
   <cc:Work>
    <dc:type rdf:resource="http://purl.org/dc/dcmitype/StillImage"/>
    <dc:date>2021-12-19T02:09:08.101785</dc:date>
    <dc:format>image/svg+xml</dc:format>
    <dc:creator>
     <cc:Agent>
      <dc:title>Matplotlib v3.5.1, https://matplotlib.org/</dc:title>
     </cc:Agent>
    </dc:creator>
   </cc:Work>
  </rdf:RDF>
 </metadata>
 <defs>
  <style type="text/css">*{stroke-linejoin: round; stroke-linecap: butt}</style>
 </defs>
 <g id="figure_1">
  <g id="patch_1">
   <path d="M 0 568.8 
L 359.589873 568.8 
L 359.589873 0 
L 0 0 
z
" style="fill: #ffffff"/>
  </g>
  <g id="axes_1">
   <g id="LineCollection_1">
    <path d="M 166.152589 192.982008 
L 165.986432 193.594079 
L 164.027531 197.636057 
L 163.196747 198.894844 
L 160.28463 204.65755 
L 159.681219 205.20033 
L 158.89416 206.563054 
L 157.652357 210.050703 
L 157.4862 210.836002 
L 157.215102 211.47117 
L 156.296867 212.7877 
L 155.693456 213.457513 
L 154.836436 215.051208 
L 154.20679 216.356189 
L 153.096163 219.093185 
L 152.571457 220.06326 
L 152.361575 220.91785 
L 152.38781 221.934119 
L 152.177928 222.499995 
L 150.848673 224.255369 
L 148.338831 227.488951 
L 147.927812 228.331992 
L 145.216832 233.297851 
L 139.663697 242.398075 
L 135.763385 250.193318 
L 134.801425 252.595408 
L 132.300328 257.214811 
L 129.668054 260.436845 
L 128.653623 262.677256 
L 128.050212 264.247853 
L 127.612957 264.790633 
L 125.103115 268.670932 
L 123.878801 270.160689 
L 122.540802 274.225764 
L 120.424489 278.140708 
L 119.926019 278.810522 
L 117.582333 281.247257 
L 116.873981 282.425205 
L 115.745863 285.196847 
L 112.921198 290.197351 
L 112.037943 292.045113 
L 110.297669 295.336437 
L 109.624297 297.080262 
L 108.723552 298.731699 
L 107.639161 300.290747 
L 99.357556 316.06601 
L 97.932106 318.595133 
L 95.256107 324.046029 
L 94.189205 325.674369 
L 93.026108 328.122652 
L 92.046657 329.15047 
L 91.023481 331.356235 
L 90.061521 332.002951 
L 89.790423 333.538903 
L 86.178699 339.05909 
L 85.42662 340.491105 
L 84.307248 343.47062 
L 84.167327 345.202896 
L 84.96313 350.930956 
L 84.438425 352.501554 
L 84.420934 353.217561 
L 84.569601 355.400229 
L 85.35666 357.652188 
L 85.461601 359.014912 
L 84.92815 360.435379 
L 83.476464 362.895211 
L 83.319053 364.350323 
L 84.097366 365.37814 
L 84.805719 369.974447 
L 85.365405 375.379149 
L 85.968816 382.516127 
L 92.055402 384.641052 
L 94.810107 387.331855 
L 95.081205 388.325026 
L 94.941283 389.341295 
L 94.880068 392.898236 
L 94.60897 394.434187 
L 94.66144 395.762266 
L 96.532891 397.344411 
L 97.757204 397.806352 
L 98.649203 398.753329 
L 98.544262 399.307658 
L 98.238184 399.885083 
L 97.267478 401.236259 
L 96.532891 404.250419 
L 95.763322 411.699207 
L 94.477793 417.300234 
L 93.419637 420.337491 
L 93.297206 421.168984 
L 91.451991 423.397846 
L 90.612461 424.171596 
L 90.306383 423.594171 
L 89.055835 424.5296 
L 89.143286 430.361597 
L 88.732266 434.253444 
L 87.927717 435.98572 
L 87.289326 436.724825 
L 84.46466 438.722717 
L 82.059759 440.177829 
L 81.263955 440.916933 
L 79.943446 442.360497 
L 79.191368 444.104322 
L 78.963995 445.166784 
L 78.771603 447.44184 
L 78.273133 449.266505 
L 75.544663 455.040759 
L 73.131017 460.445461 
L 72.204037 462.223931 
L 71.57439 463.70214 
L 71.005959 464.24492 
L 69.169489 467.155144 
L 66.091216 470.296338 
L 65.225452 471.866936 
L 64.665766 473.553018 
L 62.820551 477.594996 
L 62.496982 479.200238 
L 62.418276 480.42438 
L 62.147178 481.498391 
L 61.220198 483.554026 
L 61.290159 484.766619 
L 62.339571 486.025407 
L 62.496982 486.394959 
L 62.348316 486.637478 
L 61.080277 488.138784 
L 60.835414 490.379194 
L 60.634277 491.152944 
L 56.602789 501.71983 
L 56.069338 502.678356 
L 54.993691 504.168113 
L 51.932908 505.542386 
L 50.743575 506.766528 
L 49.711654 507.655763 
L 49.729144 508.498804 
L 49.396831 508.99539 
L 49.396831 508.99539 
L 50.376281 510.23108 
L 49.702909 510.900894 
L 49.720399 513.002722 
L 47.717772 515.243133 
L 46.414753 515.855204 
L 46.021224 516.109271 
L 46.52844 516.536566 
L 46.712086 516.859924 
L 47.271773 519.273562 
L 47.175577 520.197443 
L 47.437929 521.005838 
L 47.709027 521.398488 
L 47.630321 521.895074 
L 47.857694 522.657275 
L 47.892674 523.292443 
L 48.155027 524.158581 
L 48.067576 524.689813 
L 48.058831 525.024719 
L 48.688478 536.018899 
L 48.723458 535.961157 
L 48.39989 536.4 
L 48.531066 536.134384 
L 48.810909 534.633078 
L 47.9364 532.669832 
L 47.236792 531.642015 
L 46.869498 529.967481 
L 47.070635 528.801082 
L 47.4904 527.091902 
L 48.111302 525.844663 
L 50.078948 523.54651 
L 51.635575 520.416864 
L 51.880437 519.111883 
L 52.719966 516.986958 
L 52.842398 516.132368 
L 52.754947 515.624234 
L 52.859888 515.277778 
L 53.165966 513.822666 
L 54.329064 511.651547 
L 55.492161 510.011658 
L 56.130553 509.434233 
L 56.856396 508.37177 
L 57.179965 507.343953 
L 57.101259 506.396975 
L 56.935102 505.935035 
L 57.276161 504.664699 
L 57.144984 503.659979 
L 57.494788 502.574419 
L 57.932043 501.789121 
L 59.182591 500.588076 
L 60.275728 498.324568 
L 60.022121 497.331396 
L 58.859023 496.003318 
L 58.797807 495.529829 
L 59.182591 494.559754 
L 59.182591 494.559754 
L 53.638201 533.790037 
L 53.507025 533.732295 
L 53.393339 533.824683 
L 53.681927 534.275074 
L 53.699417 534.529142 
L 53.297143 534.817854 
L 52.746202 534.840951 
L 51.381967 534.713918 
L 51.102124 534.933339 
L 50.131418 534.806306 
L 48.942086 534.459851 
L 48.128792 534.055653 
L 47.149341 532.669832 
L 44.560793 529.81735 
L 44.412127 530.279291 
L 44.359656 530.845167 
L 44.473342 530.926007 
L 44.639499 531.203171 
L 45.085499 530.5911 
L 45.286636 529.955932 
L 45.330362 529.020503 
L 45.68891 528.26985 
L 46.379773 527.311324 
L 46.143655 526.918675 
L 45.65393 526.526025 
L 44.438362 525.960148 
L 42.803029 524.689813 
L 39.987109 522.842051 
L 38.885227 521.513973 
L 36.795149 519.227368 
L 31.128328 515.947592 
L 31.276994 515.80901 
L 28.023819 512.968077 
L 26.948173 512.979625 
L 26.677075 513.291435 
L 25.31284 513.09511 
L 23.677507 511.074121 
L 23.170292 511.051024 
L 22.890449 510.843151 
L 23.135311 510.300371 
L 25.444016 508.013767 
L 26.930682 506.327684 
L 28.977035 499.490967 
L 30.201348 497.481527 
L 30.691073 496.003318 
L 30.796014 495.114083 
L 31.583073 494.040071 
L 33.253386 492.919866 
L 33.437033 492.065277 
L 36.38413 487.261097 
L 37.949502 483.981321 
L 38.885227 482.225947 
L 40.406873 479.685276 
L 40.53805 479.015462 
L 40.363148 478.599716 
L 39.978364 478.137776 
L 39.436168 477.664287 
L 39.331227 477.32938 
L 39.707266 476.382402 
L 40.634246 474.523092 
L 40.564285 472.259585 
L 41.263893 471.439641 
L 42.033461 470.030723 
L 43.310245 467.062756 
L 43.380205 466.323652 
L 45.61895 462.766711 
L 47.4904 461.092177 
L 52.116555 456.65755 
L 54.355299 453.320031 
L 54.608907 452.777251 
L 55.002436 451.460721 
L 56.3142 448.307979 
L 57.083769 446.321635 
L 57.346122 443.607736 
L 59.121376 440.143183 
L 57.442318 438.826653 
L 57.68718 437.510123 
L 58.106945 436.771019 
L 62.916747 429.25294 
L 63.21408 428.62932 
L 64.534589 427.31279 
L 66.309844 426.007809 
L 67.359255 424.772119 
L 68.268745 423.420943 
L 68.915882 422.716484 
L 71.215842 419.228835 
L 71.626861 418.304954 
L 72.43141 417.739077 
L 72.781214 415.660346 
L 73.620743 414.678722 
L 75.500938 411.641465 
L 77.127526 408.534916 
L 77.442349 407.599487 
L 80.31074 405.081912 
L 80.721759 404.365904 
L 81.211485 403.753833 
L 82.794347 402.033106 
L 84.866934 400.935997 
L 86.030032 400.104505 
L 86.913286 398.972751 
L 87.717835 396.674598 
L 87.779051 395.785363 
L 87.866502 392.286165 
L 88.251286 390.715568 
L 90.778618 383.948142 
L 91.950461 382.481481 
L 93.052343 380.841593 
L 93.069833 378.762861 
L 93.988068 376.441611 
L 96.05191 374.316686 
L 98.850341 372.746089 
L 98.937792 371.949242 
L 99.891007 369.085211 
L 101.316457 368.577077 
L 101.954849 366.371312 
L 101.919869 365.516722 
L 104.237319 361.624875 
L 106.204965 358.830136 
L 108.242572 354.603382 
L 108.504925 354.014408 
L 109.431905 353.171367 
L 110.096532 352.951945 
L 113.515864 352.824912 
L 116.305549 352.651684 
L 118.316921 352.316777 
L 120.398254 352.328326 
L 123.345351 353.309949 
L 124.16739 353.656404 
L 128.076447 355.642748 
L 134.84515 361.902039 
L 135.78962 362.698886 
L 144.333578 369.604894 
L 149.685576 374.605398 
L 149.685576 374.605398 
L 158.84169 381.800119 
L 161.290316 383.070455 
L 166.301255 384.664149 
L 172.31788 386.708235 
L 177.958467 389.272004 
L 181.473995 391.385381 
L 185.864032 394.515027 
L 188.00658 395.866202 
L 188.321404 396.443628 
L 188.338894 397.055699 
L 187.656776 398.868814 
L 186.834738 400.335475 
L 186.467444 401.30555 
L 185.68913 403.384281 
L 184.31615 406.132826 
L 182.435955 410.844618 
L 179.637525 413.685551 
L 179.506348 414.262976 
L 173.244861 425.326447 
L 172.825096 426.550589 
L 171.35592 428.998873 
L 168.846078 432.359489 
L 167.341922 433.941634 
L 166.589844 434.218798 
L 165.986432 433.837698 
L 164.587217 433.456597 
L 163.703962 431.932194 
L 163.730198 431.019862 
L 163.905099 429.992044 
L 167.105804 423.13223 
L 168.391333 419.529096 
L 168.435058 418.813088 
L 168.295137 417.323331 
L 167.779176 415.025178 
L 165.750314 410.648293 
L 164.954511 409.170084 
L 164.237413 406.814188 
L 163.651492 404.585326 
L 163.275453 401.755942 
L 163.153021 399.423143 
L 163.397884 394.849934 
L 164.86706 387.886183 
L 165.697844 385.368608 
L 166.519883 383.694075 
L 167.639255 381.984895 
L 168.653686 380.968627 
L 172.239175 378.578085 
L 173.507213 378.035305 
L 176.130742 376.349223 
L 177.433761 375.275212 
L 179.025368 373.346611 
L 180.57325 370.471032 
L 181.185406 369.154503 
L 181.94623 367.168159 
L 183.81768 363.634316 
L 184.832111 362.352431 
L 187.184541 360.227506 
L 192.667716 356.601274 
L 196.305675 353.61021 
L 197.276381 352.316777 
L 198.352027 350.353531 
L 200.092301 345.965098 
L 201.159203 342.893195 
L 201.561477 340.387168 
L 201.176693 337.881142 
L 198.736811 332.176179 
L 198.264576 330.132093 
L 198.054694 326.910059 
L 198.203361 325.928436 
L 198.509439 324.96991 
L 199.864929 322.232913 
L 200.46834 321.412969 
L 202.943202 318.398808 
L 206.222612 315.153678 
L 207.691788 314.079666 
L 209.711905 312.924816 
L 213.201198 310.072334 
L 214.206884 308.143733 
L 214.443001 306.723267 
L 214.504217 300.544815 
L 214.941472 298.593117 
L 215.168844 297.957949 
L 217.976019 287.88765 
L 219.270293 284.284515 
L 223.056919 276.58166 
L 223.817743 275.426809 
L 225.103272 273.752275 
L 227.272055 271.708189 
L 228.295231 270.54179 
L 230.91876 267.943376 
L 233.297425 264.848375 
L 234.049503 263.485651 
L 235.746052 260.159681 
L 237.337659 255.528729 
L 239.593893 251.082554 
L 242.610951 246.647926 
L 245.339421 243.703057 
L 247.438243 242.259493 
L 249.825654 241.069997 
L 253.927103 239.718821 
L 256.366985 239.303075 
L 257.224004 239.372366 
L 263.039492 240.665799 
L 265.59306 240.573411 
L 269.029882 240.19231 
L 270.778901 238.702553 
L 273.542351 235.561358 
L 273.962115 234.868448 
L 275.78984 231.196022 
L 278.457094 226.819138 
L 281.098112 221.864827 
L 284.202621 216.206058 
L 286.9136 211.124715 
L 292.449245 201.262289 
L 295.492538 195.707456 
L 299.095517 189.494359 
L 302.1563 183.927978 
L 303.730417 180.509619 
L 304.211397 178.627212 
L 304.666142 174.816205 
L 304.167672 167.563741 
L 304.963476 163.487118 
L 305.295789 160.415215 
L 304.814809 157.4357 
L 303.800378 154.640961 
L 301.474183 149.836781 
L 301.308026 147.873535 
L 301.552889 145.887191 
L 301.850222 144.882471 
L 302.707241 142.884579 
L 305.40073 137.791687 
L 308.898768 132.144466 
L 313.419982 126.289373 
L 318.448412 121.19648 
L 320.57347 118.667357 
L 321.404254 117.1776 
L 321.96394 115.537711 
L 322.182567 113.909372 
L 322.156332 113.124073 
L 321.806528 110.479465 
L 321.561665 106.910976 
L 321.649116 105.201796 
L 322.095116 101.783438 
L 323.004606 96.471124 
L 323.782919 93.075863 
L 326.030409 88.710527 
L 327.018604 87.497933 
L 329.449741 85.43075 
L 335.221503 81.862261 
L 336.279659 80.603474 
L 336.699424 79.032877 
L 336.611973 78.166738 
L 336.33213 77.277503 
L 335.300209 75.660712 
L 333.866013 74.367279 
L 332.991504 73.997727 
L 332.073269 73.789854 
L 330.105623 73.766757 
L 328.120486 74.425022 
L 327.202251 74.910059 
L 323.179508 78.23603 
L 321.290567 78.917392 
L 319.156764 78.92894 
L 318.151078 78.663324 
L 317.241588 78.166738 
L 315.824883 76.630787 
L 315.221472 74.66754 
L 315.221472 73.709014 
L 315.387628 72.796682 
L 316.139707 71.052857 
L 323.441861 61.987278 
L 323.949076 61.12114 
L 326.58135 55.820375 
L 327.875624 51.466587 
L 327.980565 49.803602 
L 327.814408 48.221456 
L 327.254722 46.639311 
L 326.423938 45.241941 
L 322.637312 41.419385 
L 320.520999 39.733303 
L 315.781158 36.938564 
L 312.685394 35.425709 
L 310.787709 35.03306 
L 304.666142 34.109179 
L 304.106456 34.086082 
L 301.666575 33.543302 
L 300.818301 32.94278 
L 300.354811 32.769552 
L 299.305399 32.503937 
L 298.238498 32.4 
L 297.224067 32.596325 
L 295.282656 33.48556 
L 294.513088 34.039888 
L 293.874696 34.825187 
L 292.318069 38.278191 
L 292.160657 38.740131 
L 292.073206 42.30862 
L 292.4405 43.763732 
L 292.816539 44.687613 
L 293.909676 45.819367 
L 296.13093 46.650859 
L 299.970027 47.57474 
L 301.797751 48.383136 
L 302.61979 49.237725 
L 304.316339 51.743751 
L 304.631162 52.875505 
L 304.876025 54.30752 
L 305.112142 58.869181 
L 305.33077 59.793062 
L 306.590063 63.638715 
L 307.141004 65.879126 
L 307.210965 67.692241 
L 307.044808 69.574648 
L 306.222769 72.126869 
L 305.38324 73.801402 
L 304.797319 74.609798 
L 302.611045 76.723175 
L 298.282223 79.506365 
L 291.97701 81.689033 
L 289.825717 82.64756 
L 288.347796 83.917896 
L 287.123483 85.51159 
L 286.187757 87.197672 
L 284.54368 92.163531 
L 282.488582 94.669557 
L 280.564662 95.986087 
L 278.212231 96.921516 
L 277.468898 97.164035 
L 272.466704 99.115733 
L 271.356077 99.785546 
L 267.665647 102.788158 
L 265.348197 104.832244 
L 264.587374 106.021741 
L 262.698433 109.370808 
L 260.879454 113.620659 
L 257.888631 121.681518 
L 257.092828 123.205921 
L 254.259417 127.940809 
L 253.262476 129.09566 
L 251.443497 130.64316 
L 245.313185 134.465717 
L 244.150088 135.724504 
L 242.567226 138.634728 
L 241.920089 142.595866 
L 241.920089 145.055699 
L 242.164951 147.21527 
L 241.902598 151.569057 
L 241.727696 152.134934 
L 240.582089 154.02889 
L 238.3346 156.685047 
L 236.568091 157.955382 
L 234.609189 158.786875 
L 230.52523 160.172696 
L 227.027192 162.089748 
L 224.027625 164.110737 
L 222.978214 164.572678 
L 221.727665 165.958499 
L 218.763078 169.66557 
L 216.996569 172.275533 
L 214.591668 176.906485 
L 213.778374 178.638761 
L 213.236178 181.318015 
L 212.807669 185.521672 
L 212.886374 187.184657 
L 213.8221 191.503799 
L 215.037668 195.026094 
L 216.218255 199.172009 
L 216.576804 201.932102 
L 216.568059 202.636561 
L 215.920922 206.851767 
L 214.932727 208.791916 
L 210.656375 215.097402 
L 208.242729 217.765107 
L 201.762614 223.042775 
L 200.555791 223.70104 
L 199.646301 224.728858 
L 198.780537 225.929902 
L 197.591204 226.64591 
L 196.900341 226.02229 
L 198.588145 219.023894 
L 198.684341 218.030723 
L 198.439478 217.314715 
L 197.468773 214.912625 
L 197.818576 212.47589 
L 197.2414 210.454901 
L 196.987792 209.92367 
L 195.641048 207.891132 
L 193.865794 206.308987 
L 192.003088 205.234975 
L 191.592069 205.073296 
L 189.869285 203.96464 
L 188.111521 202.64811 
L 184.954542 199.888016 
L 184.386111 199.633949 
L 182.339759 198.444453 
L 179.926113 196.793016 
L 178.920427 196.365721 
L 177.092702 195.176225 
L 176.253173 194.621896 
L 175.772193 194.494863 
L 175.772193 194.494863 
" clip-path="url(#pdc9b5848c0)" style="fill: none; stroke: #000000; stroke-width: 3"/>
   </g>
  </g>
 </g>
 <defs>
  <clipPath id="pdc9b5848c0">
   <rect x="7.2" y="7.2" width="345.189873" height="554.4"/>
  </clipPath>
 </defs>
</svg>
