<?xml version="1.0" encoding="utf-8" standalone="no"?>
<!DOCTYPE svg PUBLIC "-//W3C//DTD SVG 1.1//EN"
  "http://www.w3.org/Graphics/SVG/1.1/DTD/svg11.dtd">
<svg height="242.310066pt" version="1.1" viewBox="0 0 572.4 242.310066" width="572.4pt" xmlns="http://www.w3.org/2000/svg" xmlns:xlink="http://www.w3.org/1999/xlink">
 <metadata>
  <rdf:RDF xmlns:cc="http://creativecommons.org/ns#" xmlns:dc="http://purl.org/dc/elements/1.1/" xmlns:rdf="http://www.w3.org/1999/02/22-rdf-syntax-ns#">
   <cc:Work>
    <dc:type rdf:resource="http://purl.org/dc/dcmitype/StillImage"/>
    <dc:date>2021-05-26T19:20:29.718552</dc:date>
    <dc:format>image/svg+xml</dc:format>
    <dc:creator>
     <cc:Agent>
      <dc:title>Matplotlib v3.4.2, https://matplotlib.org/</dc:title>
     </cc:Agent>
    </dc:creator>
   </cc:Work>
  </rdf:RDF>
 </metadata>
 <defs>
  <style type="text/css">*{stroke-linecap:butt;stroke-linejoin:round;}</style>
 </defs>
 <g id="figure_1">
  <g id="patch_1">
   <path d="M 0 242.310066 
L 572.4 242.310066 
L 572.4 0 
L 0 0 
z
" style="fill:none;"/>
  </g>
  <g id="axes_1">
   <g id="LineCollection_1">
    <path clip-path="url(#p66a864e828)" d="M 32.563636 178.156696 
L 50.242309 177.557204 
L 66.64391 160.571608 
L 89.005177 160.538303 
L 108.086124 147.915673 
L 127.066908 128.965077 
L 145.596961 123.103381 
L 153.73516 103.952954 
L 151.181018 82.904136 
L 168.659365 69.149134 
L 190.569901 70.015066 
L 204.242075 52.396673 
L 221.570179 40.639976 
L 243.706081 34.212094 
L 263.638408 23.920821 
L 283.771061 21.589464 
L 305.781759 24.786753 
L 327.592132 25.919126 
L 348.250638 34.844891 
L 363.700696 49.465825 
L 383.50782 56.226759 
L 404.592016 51.430826 
L 419.215733 33.879043 
L 436.869365 25.919126 
L 457.828358 19.324718 
L 479.338244 17.559548 
L 498.744719 28.583533 
L 518.201274 41.472604 
L 531.92353 60.55642 
L 539.836364 81.272187 
L 527.466301 100.65575 
L 524.56159 122.90355 
L 524.16094 145.317876 
L 512.917705 165.667287 
L 506.306984 184.351442 
L 505.680968 204.001446 
L 491.85855 224.750517 
L 469.77273 224.184331 
L 448.989022 216.59077 
L 426.352308 215.591618 
L 422.971825 193.377122 
L 420.367602 171.528983 
L 401.962751 161.637371 
L 382.380992 157.474234 
L 362.24834 151.878979 
L 344.694871 140.322113 
L 326.515386 146.65008 
L 310.364191 131.296433 
L 298.194453 109.281768 
L 279.564238 101.288546 
L 258.279717 92.995579 
L 246.510629 74.211508 
L 245.083314 52.829639 
L 234.916826 39.640824 
L 214.608889 43.171163 
L 202.013461 63.88693 
L 182.632027 71.147439 
L 164.302299 67.783625 
L 153.109145 85.135577 
L 156.790115 106.950412 
L 145.196311 123.969313 
L 128.068532 136.225586 
L 114.296195 150.38025 
L 96.216873 160.238557 
L 76.009099 158.639912 
L 57.979858 171.229237 
L 45.584755 187.049155 
L 34.692088 181.820256 
" style="fill:none;stroke:#000000;stroke-width:3;"/>
   </g>
  </g>
 </g>
 <defs>
  <clipPath id="p66a864e828">
   <rect height="227.910066" width="558" x="7.2" y="7.2"/>
  </clipPath>
 </defs>
</svg>
