<?xml version="1.0" encoding="UTF-8"?>
<!DOCTYPE svg  PUBLIC '-//W3C//DTD SVG 1.1//EN'  'http://www.w3.org/Graphics/SVG/1.1/DTD/svg11.dtd'>
<svg width="208.09pt" height="77.616pt" version="1.1" viewBox="0 0 208.09125 77.616" xmlns="http://www.w3.org/2000/svg" xmlns:xlink="http://www.w3.org/1999/xlink">
<defs>
<style type="text/css">*{stroke-linecap:butt;stroke-linejoin:round;}</style>
</defs>
<path d="m0 77.616h208.09v-77.616h-208.09z" fill="#fff"/>
<defs>
<path id="d" d="m40.703 25.906q0 6.8906-3.1094 11.031-3.0938 4.1562-9.1875 4.1562-2 0-3.7031-0.15625-1.7031-0.14062-2.7969-0.34375v-26.891q1.3906-0.90625 3.6406-1.5156 2.25-0.59375 4.5469-0.59375 10.609 0 10.609 14.312zm15.203 0.39062q0-6.0938-1.5-11.094t-4.4062-8.6094q-2.9062-3.5938-7.2031-5.5938t-9.8906-2q-3.1094 0-5.8125 0.60938-2.6875 0.59375-5.1875 1.6875v-19.797h-14.906v69.297q2 0.60938 4.5938 1.1562 2.6094 0.54688 5.4531 0.9375 2.8594 0.40625 5.7969 0.65625 2.9531 0.25 5.6562 0.25 6.5 0 11.594-1.9531 5.1094-1.9375 8.6094-5.5 3.5-3.5469 5.3438-8.6562 1.8594-5.0938 1.8594-11.391z"/>
</defs>
<g transform="translate(0 56.448) scale(.72 -.72)" fill="#099">
<use xlink:href="#d"/>
</g>
<defs>
<path id="b" d="m54.406 0q-1.1094 3.5938-2.4688 7.3906-1.3438 3.8125-2.6406 7.6094h-27q-1.2969-3.7969-2.6562-7.6094-1.3438-3.7969-2.4375-7.3906h-16.203q3.9062 11.203 7.4062 20.703t6.8438 17.891q3.3438 8.4062 6.5938 15.953t6.75 14.75h14.906q3.4062-7.2031 6.7031-14.75t6.6406-15.953q3.3594-8.3906 6.8594-17.891t7.3906-20.703zm-18.703 53.594q-0.5-1.5-1.5-4.0938t-2.3125-6q-1.2969-3.4062-2.8438-7.5t-3.1406-8.5938h19.688q-1.5938 4.5-3.0938 8.5938t-2.8594 7.5q-1.3438 3.4062-2.3438 6t-1.5938 4.0938z"/>
<path id="c" d="m38.703 39.406q-2 0.5-4.7031 1.0469t-5.7969 0.54688q-1.4062 0-3.3594-0.25-1.9375-0.25-2.9375-0.54688v-40.203h-14.906v49.797q4 1.4062 9.4531 2.6562t12.141 1.25q1.2031 0 2.9062-0.15625 1.7031-0.14062 3.3906-0.39062 1.7031-0.25 3.4062-0.60938 1.7031-0.34375 2.9062-0.84375z"/>
<path id="e" d="m4.5 25.906q0 7 2.1406 12.25 2.1562 5.25 5.6562 8.75t8.0469 5.2969q4.5625 1.7969 9.3594 1.7969 11.203 0 17.703-6.8594 6.5-6.8438 6.5-20.141 0-1.2969-0.10938-2.8594-0.09375-1.5469-0.20312-2.7344h-33.797q0.5-4.6094 4.2969-7.3125 3.8125-2.6875 10.203-2.6875 4.1094 0 8.0469 0.75 3.9531 0.75 6.4531 1.8438l2-12.094q-1.2031-0.60938-3.2031-1.2188-2-0.59375-4.4531-1.0312-2.4375-0.45312-5.25-0.75-2.7969-0.3125-5.5938-0.3125-7.0938 0-12.344 2.0938-5.25 2.1094-8.7031 5.75-3.4531 3.6562-5.1094 8.6562-1.6406 5-1.6406 10.812zm35 5.6875q-0.09375 1.9062-0.65625 3.7031-0.54688 1.7969-1.7031 3.2031-1.1406 1.4062-2.8906 2.2969-1.75 0.90625-4.3438 0.90625-2.5 0-4.3125-0.85938-1.7969-0.84375-3-2.25-1.1875-1.3906-1.8438-3.25-0.65625-1.8438-0.95312-3.75z"/>
<path id="a" d="m27.094 10.406q2.2031 0 4.2031 0.09375t3.2031 0.29688v11.297q-0.90625 0.20312-2.7031 0.40625t-3.2969 0.20312q-2.0938 0-3.9531-0.25-1.8438-0.25-3.25-0.95312-1.3906-0.70312-2.2031-1.9062-0.79688-1.1875-0.79688-3 0-3.5 2.3438-4.8438 2.3594-1.3438 6.4531-1.3438zm-1.1875 43.594q6.5938 0 10.984-1.5 4.4062-1.5 7.0469-4.2969 2.6562-2.7969 3.75-6.7969 1.1094-4 1.1094-8.9062v-31q-3.2031-0.70312-8.9062-1.6406-5.6875-0.95312-13.797-0.95312-5.0938 0-9.25 0.90625-4.1406 0.89062-7.1406 2.9375t-4.6094 5.3438q-1.5938 3.3125-1.5938 8.1094 0 4.5938 1.8438 7.7969 1.8594 3.2031 4.9531 5.0938 3.1094 1.9062 7.1094 2.75 4 0.85938 8.2969 0.85938 2.8906 0 5.1406-0.25t3.6562-0.65625v1.4062q0 3.7969-2.2969 6.0938t-8 2.2969q-3.7969 0-7.5-0.54688t-6.4062-1.5469l-1.8906 12q1.2969 0.40625 3.2344 0.84375 1.9531 0.45312 4.25 0.79688 2.3125 0.35938 4.8594 0.60938t5.1562 0.25z"/>
</defs>
<g transform="translate(43.942 56.448) scale(.72 -.72)" fill="#b3b3b3">
<use xlink:href="#b"/>
<use x="72.099991" xlink:href="#c"/>
<use x="114.284363" xlink:href="#e"/>
<use x="172.684357" xlink:href="#a"/>
</g>
</svg>
