<?xml version="1.0" encoding="utf-8" standalone="no"?>
<!DOCTYPE svg PUBLIC "-//W3C//DTD SVG 1.1//EN"
  "http://www.w3.org/Graphics/SVG/1.1/DTD/svg11.dtd">
<svg xmlns:xlink="http://www.w3.org/1999/xlink" width="304.365525pt" height="568.8pt" viewBox="0 0 304.365525 568.8" xmlns="http://www.w3.org/2000/svg" version="1.1">
 <metadata>
  <rdf:RDF xmlns:dc="http://purl.org/dc/elements/1.1/" xmlns:cc="http://creativecommons.org/ns#" xmlns:rdf="http://www.w3.org/1999/02/22-rdf-syntax-ns#">
   <cc:Work>
    <dc:type rdf:resource="http://purl.org/dc/dcmitype/StillImage"/>
    <dc:date>2023-09-25T14:14:41.473695</dc:date>
    <dc:format>image/svg+xml</dc:format>
    <dc:creator>
     <cc:Agent>
      <dc:title>Matplotlib v3.6.2, https://matplotlib.org/</dc:title>
     </cc:Agent>
    </dc:creator>
   </cc:Work>
  </rdf:RDF>
 </metadata>
 <defs>
  <style type="text/css">*{stroke-linejoin: round; stroke-linecap: butt}</style>
 </defs>
 <g id="figure_1">
  <g id="patch_1">
   <path d="M 0 568.8 
L 304.365525 568.8 
L 304.365525 0 
L 0 0 
z
" style="fill: #ffffff"/>
  </g>
  <g id="axes_1">
   <g id="LineCollection_1">
    <path d="M 28.473699 535.55625 
L 27.976733 536.4 
L 30.887535 534.3375 
L 31.10052 533.025 
L 32.733409 530.025 
L 31.739476 528.15 
L 30.745544 529.18125 
L 29.893602 528.15 
L 26.982801 526.4625 
L 24.923941 526.93125 
L 24.568965 526.0875 
L 22.936077 526.0875 
L 21.658164 527.775 
L 20.380251 527.49375 
L 21.800154 526.4625 
L 25.278917 522.24375 
L 24.142995 519.61875 
L 24.21399 517.18125 
L 25.633893 513.9 
L 28.686685 511.93125 
L 29.325641 510.3375 
L 31.668481 507.99375 
L 33.940326 503.5875 
L 34.153312 499.93125 
L 35.218239 497.2125 
L 37.490084 494.2125 
L 37.632075 492.80625 
L 40.04591 487.93125 
L 42.459745 485.025 
L 43.737658 484.0875 
L 43.808653 482.86875 
L 45.938508 479.86875 
L 49.843242 472.55625 
L 58.859627 459.43125 
L 59.782564 457.65 
L 59.569578 455.5875 
L 60.208535 455.30625 
L 63.048341 449.5875 
L 65.888148 445.0875 
L 66.314119 443.2125 
L 69.36691 438.80625 
L 70.857809 435.43125 
L 74.833537 428.30625 
L 76.395431 426.61875 
L 76.537421 424.4625 
L 81.649073 416.4 
L 82.146039 413.49375 
L 84.843855 408.7125 
L 87.470676 405.7125 
L 89.45854 404.5875 
L 90.949438 401.5875 
L 93.292279 400.74375 
L 93.008298 397.36875 
L 97.409998 390.9 
L 99.823833 386.775 
L 102.237669 381.61875 
L 103.586577 376.65 
L 106.852354 371.4 
L 106.497378 368.2125 
L 102.166673 364.18125 
L 101.030751 361.74375 
L 101.101746 359.775 
L 102.308664 357.3375 
L 106.071407 353.4 
L 109.124199 346.55625 
L 113.028933 338.775 
L 117.217647 333.15 
L 119.773473 331.275 
L 124.885124 330.80625 
L 127.014979 331.65 
L 130.635732 333.9 
L 134.398475 334.36875 
L 137.309277 332.9625 
L 139.084156 331.55625 
L 141.568986 328.65 
L 144.266802 322.93125 
L 146.325662 320.11875 
L 148.100541 318.61875 
L 152.786221 315.7125 
L 155.839013 312.15 
L 157.542897 308.4 
L 159.033795 303.7125 
L 159.033795 301.18125 
L 157.613892 297.9 
L 156.90394 295.275 
L 157.116926 290.68125 
L 159.10479 287.025 
L 160.666684 285.15 
L 163.577485 282.61875 
L 165.84933 281.4 
L 169.399088 278.11875 
L 169.96705 275.86875 
L 169.612074 271.8375 
L 171.812924 264.80625 
L 173.374817 258.525 
L 177.066565 251.025 
L 179.409406 248.11875 
L 184.876033 242.11875 
L 186.08295 240.43125 
L 187.928825 235.8375 
L 191.478582 228.15 
L 193.253461 225.7125 
L 195.951277 223.55625 
L 199.28805 222.05625 
L 203.476764 221.30625 
L 210.079314 221.9625 
L 213.061111 221.68125 
L 216.681864 219.80625 
L 222.503467 210.05625 
L 230.596915 194.775 
L 237.625435 182.30625 
L 239.400314 179.775 
L 242.169125 174.05625 
L 243.021067 170.5875 
L 242.666092 166.4625 
L 243.021067 161.30625 
L 243.518033 158.5875 
L 243.305048 155.11875 
L 242.09813 151.8375 
L 240.678227 149.775 
L 240.110266 147.24375 
L 240.607232 143.5875 
L 242.950072 138.43125 
L 245.292912 134.775 
L 247.848738 131.4 
L 255.516215 122.86875 
L 256.794128 118.65 
L 256.297162 114.43125 
L 256.723133 108.61875 
L 258.072041 101.4 
L 259.775925 98.775 
L 262.118765 96.61875 
L 267.585392 92.9625 
L 268.508329 90.7125 
L 268.224349 88.8375 
L 266.59146 86.775 
L 264.958571 86.30625 
L 262.33175 86.5875 
L 258.427017 89.11875 
L 255.871191 90.15 
L 254.096312 89.9625 
L 251.824467 87.80625 
L 251.966457 85.4625 
L 252.676409 83.9625 
L 256.865123 79.0875 
L 258.640002 76.65 
L 260.272891 73.36875 
L 262.473741 68.025 
L 264.745586 66.24375 
L 267.514397 66.05625 
L 272.058087 67.4625 
L 274.116947 66.9 
L 276.956753 61.93125 
L 281.997409 53.775 
L 283.985274 49.275 
L 283.985274 47.5875 
L 277.382724 43.65 
L 277.027748 43.18125 
L 271.13515 39.80625 
L 268.79231 38.2125 
L 266.44947 37.36875 
L 265.171557 36.3375 
L 260.698862 34.18125 
L 258.143036 32.4 
L 258.143036 32.4 
" clip-path="url(#p67af2f7543)" style="fill: none; stroke: #000000; stroke-width: 3"/>
   </g>
  </g>
 </g>
 <defs>
  <clipPath id="p67af2f7543">
   <rect x="7.2" y="7.2" width="289.965525" height="554.4"/>
  </clipPath>
 </defs>
</svg>
