<?xml version="1.0" encoding="utf-8" standalone="no"?>
<!DOCTYPE svg PUBLIC "-//W3C//DTD SVG 1.1//EN"
  "http://www.w3.org/Graphics/SVG/1.1/DTD/svg11.dtd">
<svg xmlns:xlink="http://www.w3.org/1999/xlink" width="287.147808pt" height="568.8pt" viewBox="0 0 287.147808 568.8" xmlns="http://www.w3.org/2000/svg" version="1.1">
 <metadata>
  <rdf:RDF xmlns:dc="http://purl.org/dc/elements/1.1/" xmlns:cc="http://creativecommons.org/ns#" xmlns:rdf="http://www.w3.org/1999/02/22-rdf-syntax-ns#">
   <cc:Work>
    <dc:type rdf:resource="http://purl.org/dc/dcmitype/StillImage"/>
    <dc:date>2023-09-25T14:14:41.291612</dc:date>
    <dc:format>image/svg+xml</dc:format>
    <dc:creator>
     <cc:Agent>
      <dc:title>Matplotlib v3.6.2, https://matplotlib.org/</dc:title>
     </cc:Agent>
    </dc:creator>
   </cc:Work>
  </rdf:RDF>
 </metadata>
 <defs>
  <style type="text/css">*{stroke-linejoin: round; stroke-linecap: butt}</style>
 </defs>
 <g id="figure_1">
  <g id="patch_1">
   <path d="M 0 568.8 
L 287.147808 568.8 
L 287.147808 0 
L 0 0 
z
" style="fill: #ffffff"/>
  </g>
  <g id="axes_1">
   <g id="LineCollection_1">
    <path d="M 29.266488 534.224733 
L 28.263791 535.170501 
L 29.194867 536.305423 
L 27.619201 536.4 
L 24.969217 534.319309 
L 24.682732 532.900657 
L 20.528703 530.725389 
L 19.597628 528.360968 
L 20.528703 525.145356 
L 21.961127 524.199587 
L 22.032748 522.402627 
L 23.96652 519.470745 
L 24.109762 518.052092 
L 25.18408 517.579208 
L 26.902989 515.025633 
L 28.263791 510.769675 
L 31.343502 506.513717 
L 32.632684 502.82522 
L 34.781319 499.515031 
L 36.356986 494.313305 
L 37.359682 493.462113 
L 37.073197 492.04346 
L 37.717788 489.300732 
L 38.720485 487.882079 
L 39.866424 487.882079 
L 42.516408 484.57189 
L 44.736665 479.46474 
L 44.879907 477.194896 
L 46.169088 474.546744 
L 47.744754 473.317245 
L 50.824466 468.96671 
L 53.617692 461.873447 
L 54.763631 461.022256 
L 56.482539 458.18495 
L 56.554161 454.118146 
L 59.705493 449.389304 
L 60.564947 447.11946 
L 61.782507 445.700807 
L 61.710886 444.660462 
L 63.071689 443.52554 
L 67.440581 436.90516 
L 69.947323 434.162432 
L 71.236504 431.51428 
L 73.958109 428.676975 
L 74.244594 424.231863 
L 73.814867 423.002364 
L 74.531079 420.44879 
L 76.608093 419.975905 
L 78.971592 417.1386 
L 78.971592 415.152486 
L 80.189153 411.558566 
L 81.693197 409.761606 
L 82.337788 410.329067 
L 83.770212 405.789379 
L 84.916151 404.654457 
L 84.701287 402.668343 
L 86.276954 402.195459 
L 87.208029 399.736461 
L 88.640453 399.263577 
L 88.640453 397.561193 
L 90.86071 396.047964 
L 93.510693 393.210659 
L 92.221512 391.224545 
L 92.293133 390.089623 
L 93.725557 388.103509 
L 97.234995 387.914355 
L 97.736344 384.225859 
L 99.025525 380.537362 
L 101.389024 380.821092 
L 102.248478 374.484444 
L 104.039008 373.349521 
L 104.826841 370.228486 
L 104.253872 369.18814 
L 100.959297 366.539989 
L 98.810661 363.135222 
L 98.810661 362.0003 
L 100.744433 358.028073 
L 104.970084 352.73177 
L 105.686295 350.556502 
L 107.76331 347.057159 
L 110.628157 339.491011 
L 113.278141 335.707938 
L 118.434867 331.830287 
L 121.514578 331.357403 
L 123.663214 331.924864 
L 125.811849 333.910978 
L 128.103727 335.0459 
L 132.759104 335.32963 
L 135.695573 334.005555 
L 138.488799 331.73571 
L 140.995541 327.385175 
L 141.353647 325.777369 
L 143.573904 321.994295 
L 145.14957 320.197335 
L 148.086039 318.494952 
L 152.454931 315.090186 
L 154.245461 312.347457 
L 155.3914 309.320998 
L 156.752202 307.713192 
L 157.181929 302.795196 
L 156.394096 301.849428 
L 155.749506 297.688047 
L 154.460324 295.229049 
L 154.746809 292.580897 
L 157.754899 287.473747 
L 160.691368 284.258135 
L 166.564305 280.096754 
L 167.495381 278.961831 
L 168.211592 274.80045 
L 167.638623 272.908913 
L 167.853486 271.20653 
L 169.071047 268.463802 
L 169.500774 265.910227 
L 170.50347 264.01869 
L 171.219682 260.519347 
L 175.087226 251.345393 
L 176.949377 250.021317 
L 178.954771 246.805705 
L 184.183117 240.563633 
L 186.976344 234.416138 
L 188.050661 233.281216 
L 188.910116 231.011372 
L 190.843888 227.606605 
L 192.491175 226.28253 
L 194.281705 224.012685 
L 199.868157 221.837418 
L 201.80193 221.553687 
L 203.735702 222.499456 
L 207.818109 222.688609 
L 212.759971 221.837418 
L 215.338334 219.851304 
L 218.059939 216.162807 
L 220.423438 211.339388 
L 220.996408 208.974967 
L 223.359907 205.570201 
L 225.723406 200.557628 
L 227.084209 198.760668 
L 229.59095 194.315556 
L 231.524722 192.234866 
L 231.882828 190.437906 
L 234.103085 185.51991 
L 236.753069 181.358529 
L 237.469281 179.183261 
L 241.62331 172.846613 
L 242.339522 168.401501 
L 241.408446 163.388929 
L 242.912491 159.038394 
L 242.84087 155.349897 
L 241.121962 151.377669 
L 238.758462 147.783749 
L 239.259811 143.811522 
L 242.267901 137.947758 
L 244.6314 133.97553 
L 247.138141 131.611109 
L 249.215156 128.490073 
L 253.512427 124.423269 
L 255.589442 120.923926 
L 256.019169 116.762545 
L 255.732684 114.20897 
L 255.947548 108.156052 
L 256.878623 103.616363 
L 258.597531 99.360405 
L 260.388061 96.617677 
L 262.75156 94.631563 
L 264.900196 93.591218 
L 267.120453 91.13222 
L 267.55018 88.578645 
L 266.189377 86.403378 
L 262.178591 85.74134 
L 260.531304 87.159992 
L 257.594835 88.578645 
L 255.088093 87.82203 
L 251.578655 87.5383 
L 251.363791 84.417264 
L 253.154321 81.201651 
L 257.666456 75.24331 
L 259.242122 71.838544 
L 260.029955 71.176506 
L 261.319137 66.25851 
L 261.963727 65.407318 
L 261.677243 63.515782 
L 259.170501 60.300169 
L 256.663759 58.503209 
L 253.369185 55.571327 
L 255.016472 51.599099 
L 256.377275 49.896716 
L 258.52591 45.167874 
L 261.892106 38.547495 
L 261.963727 37.317996 
L 263.32453 36.655958 
L 262.966424 34.386114 
L 260.31644 32.4 
L 260.31644 32.4 
" clip-path="url(#p7cc2e1a494)" style="fill: none; stroke: #000000; stroke-width: 3"/>
   </g>
  </g>
 </g>
 <defs>
  <clipPath id="p7cc2e1a494">
   <rect x="7.2" y="7.2" width="272.747808" height="554.4"/>
  </clipPath>
 </defs>
</svg>
