<?xml version="1.0" encoding="utf-8" standalone="no"?>
<!DOCTYPE svg PUBLIC "-//W3C//DTD SVG 1.1//EN"
  "http://www.w3.org/Graphics/SVG/1.1/DTD/svg11.dtd">
<svg xmlns:xlink="http://www.w3.org/1999/xlink" width="255.555616pt" height="568.8pt" viewBox="0 0 255.555616 568.8" xmlns="http://www.w3.org/2000/svg" version="1.1">
 <metadata>
  <rdf:RDF xmlns:dc="http://purl.org/dc/elements/1.1/" xmlns:cc="http://creativecommons.org/ns#" xmlns:rdf="http://www.w3.org/1999/02/22-rdf-syntax-ns#">
   <cc:Work>
    <dc:type rdf:resource="http://purl.org/dc/dcmitype/StillImage"/>
    <dc:date>2023-09-25T14:14:40.972538</dc:date>
    <dc:format>image/svg+xml</dc:format>
    <dc:creator>
     <cc:Agent>
      <dc:title>Matplotlib v3.6.2, https://matplotlib.org/</dc:title>
     </cc:Agent>
    </dc:creator>
   </cc:Work>
  </rdf:RDF>
 </metadata>
 <defs>
  <style type="text/css">*{stroke-linejoin: round; stroke-linecap: butt}</style>
 </defs>
 <g id="figure_1">
  <g id="patch_1">
   <path d="M 0 568.8 
L 255.555616 568.8 
L 255.555616 0 
L 0 0 
z
" style="fill: #ffffff"/>
  </g>
  <g id="axes_1">
   <g id="LineCollection_1">
    <path d="M 27.656492 535.588908 
L 25.38906 536.4 
L 21.279339 534.653033 
L 20.145622 533.405199 
L 18.161619 532.968458 
L 19.767717 532.406932 
L 20.287337 530.47279 
L 20.098384 529.911265 
L 21.137624 528.663432 
L 21.610006 526.729289 
L 21.468291 525.793414 
L 22.129626 524.358406 
L 24.302582 521.613172 
L 24.916678 520.365338 
L 26.239347 518.680763 
L 27.042396 516.933795 
L 31.34107 509.945927 
L 32.144119 507.949393 
L 32.947168 507.07591 
L 34.033646 504.767418 
L 35.592506 502.458925 
L 38.190606 497.904333 
L 40.316324 494.410399 
L 40.221847 492.413865 
L 42.158613 490.479723 
L 43.197853 487.921664 
L 44.56776 485.301213 
L 46.740716 481.620104 
L 48.016147 478.87487 
L 49.575006 476.441594 
L 50.850437 475.505719 
L 51.842439 474.008319 
L 52.645488 472.074177 
L 53.448537 470.951127 
L 56.046637 466.084575 
L 56.235589 465.273484 
L 57.841687 462.715425 
L 59.5895 459.22149 
L 59.872929 459.283882 
L 61.431789 455.85234 
L 62.565505 454.354939 
L 62.848934 452.919931 
L 64.171603 452.296014 
L 66.911417 446.992721 
L 67.525513 446.181629 
L 67.714466 444.309879 
L 68.895421 442.50052 
L 69.981899 439.318544 
L 71.068377 437.072444 
L 73.099618 434.576776 
L 74.044382 432.517851 
L 75.178098 431.207626 
L 76.359053 429.273484 
L 77.067625 426.964991 
L 73.524762 424.282149 
L 72.391046 422.535182 
L 72.296569 421.34974 
L 73.335809 419.914731 
L 75.933909 417.668631 
L 77.114863 415.79688 
L 77.72896 413.425997 
L 79.193343 410.431196 
L 79.807439 408.621837 
L 81.271823 406.313345 
L 83.492017 403.817678 
L 85.145353 402.694627 
L 86.656975 402.320277 
L 88.924407 402.382669 
L 90.766696 403.692894 
L 93.364796 404.753553 
L 94.734703 404.691161 
L 96.529754 404.004853 
L 97.994137 403.006586 
L 99.600235 401.259619 
L 100.26157 399.699827 
L 102.151097 396.393068 
L 104.701958 394.022184 
L 107.961393 391.900867 
L 109.898158 389.280416 
L 111.126351 385.786482 
L 111.551494 383.977123 
L 111.504256 382.417331 
L 109.992634 378.549047 
L 110.323302 375.429463 
L 111.693209 373.058579 
L 112.874163 371.498787 
L 114.480261 370.250953 
L 117.267313 368.628769 
L 118.589982 366.257886 
L 118.40103 363.637435 
L 120.19608 356.711958 
L 121.140844 353.779549 
L 122.983133 349.72409 
L 124.967136 347.166031 
L 127.565236 344.483189 
L 128.982381 342.736222 
L 129.596478 341.55078 
L 130.871908 337.744887 
L 132.005625 335.498787 
L 133.753437 332.878336 
L 136.068108 330.881802 
L 138.949637 329.69636 
L 141.217069 329.134835 
L 145.893649 329.883536 
L 148.350034 329.32201 
L 149.200321 328.698094 
L 152.743184 323.270017 
L 155.95538 317.030849 
L 157.230811 315.159099 
L 158.647956 312.164298 
L 163.182821 304.490121 
L 164.552728 301.869671 
L 166.06435 299.498787 
L 166.867399 297.502253 
L 166.961875 295.068977 
L 166.820161 291.887002 
L 167.62321 287.644367 
L 167.339781 284.462392 
L 167.009113 283.526516 
L 165.261301 280.906066 
L 165.261301 278.784749 
L 165.875397 276.663432 
L 168.898641 271.859272 
L 172.630457 267.304679 
L 175.086842 264.74662 
L 176.220558 263.062045 
L 176.645702 261.00312 
L 176.409511 256.698094 
L 177.401512 250.583709 
L 178.110085 248.77435 
L 179.810659 246.52825 
L 182.975617 244.594107 
L 184.014857 243.595841 
L 184.345524 242.160832 
L 184.156572 241.162565 
L 182.833903 239.789948 
L 181.841901 239.540381 
L 179.905136 239.977123 
L 177.165321 241.786482 
L 175.228556 242.09844 
L 173.527982 241.162565 
L 173.0556 239.977123 
L 173.764173 238.042981 
L 175.323033 236.358406 
L 176.976369 234.174697 
L 178.346276 231.866205 
L 179.857898 227.99792 
L 179.905136 226.001386 
L 179.621707 225.065511 
L 177.73218 222.320277 
L 175.086842 219.887002 
L 175.086842 218.514385 
L 174.236555 217.016984 
L 173.0556 216.705026 
L 167.150828 212.961525 
L 165.780921 212.649567 
L 163.796917 211.401733 
L 163.182821 210.653033 
L 162.993868 209.342808 
L 164.458252 206.348007 
L 166.395017 203.041248 
L 168.426259 199.235355 
L 170.788168 195.304679 
L 172.866647 191.561179 
L 175.323033 186.632236 
L 179.479992 179.706759 
L 180.944376 176.961525 
L 182.12533 174.153899 
L 184.109333 171.720624 
L 183.117332 170.47279 
L 180.424756 168.97539 
L 179.668945 168.788215 
L 177.21256 166.916464 
L 179.621707 162.861005 
L 181.369519 160.178163 
L 179.857898 158.493588 
L 177.023607 157.183362 
L 174.756174 155.561179 
L 177.921132 150.382669 
L 179.479992 148.136568 
L 180.424756 146.077643 
L 183.353523 140.836742 
L 185.668193 136.282149 
L 185.951622 131.47799 
L 185.715431 126.049913 
L 186.376766 120.309879 
L 186.754671 119.124437 
L 186.990862 115.006586 
L 186.943624 112.635702 
L 187.746673 110.202426 
L 189.447247 106.833276 
L 186.28229 105.335875 
L 185.573717 104.649567 
L 186.754671 102.590641 
L 187.416006 100.718891 
L 188.738675 98.223224 
L 189.541724 97.224957 
L 190.580964 95.10364 
L 191.998109 93.231889 
L 194.974114 87.679029 
L 196.485736 85.682496 
L 197.619452 82.999653 
L 200.453743 78.008319 
L 200.737172 77.072444 
L 202.154317 74.70156 
L 203.38251 71.956326 
L 206.311276 67.027383 
L 209.240043 61.72409 
L 210.420998 59.353206 
L 213.774908 53.613172 
L 215.050339 51.679029 
L 221.899875 38.763951 
L 222.702924 37.765685 
L 224.545213 34.583709 
L 224.686927 33.835009 
L 223.931116 32.4 
L 223.647687 33.835009 
L 222.466733 36.393068 
L 219.44349 41.134835 
L 220.813397 41.446794 
L 219.726919 40.323744 
L 219.67968 40.94766 
L 218.026344 43.942461 
L 215.758912 47.374003 
L 215.522721 48.497054 
L 213.633194 51.616638 
L 211.979858 55.04818 
L 211.790905 56.982322 
L 212.68843 57.731023 
L 215.947864 59.602773 
L 218.451488 60.788215 
L 223.647687 63.720624 
L 224.545213 64.531716 
L 226.245787 65.405199 
L 227.804647 66.964991 
L 232.150559 69.273484 
L 232.764655 69.211092 
L 235.929613 70.770884 
L 237.393997 71.706759 
L 237.393997 72.517851 
L 235.457231 75.138302 
L 234.229039 79.318544 
L 233.048084 80.940728 
L 232.764655 82.063778 
L 231.725415 83.24922 
L 230.969605 84.996187 
L 230.922366 86.056846 
L 229.883127 87.055113 
L 227.426741 90.67383 
L 226.387502 92.857539 
L 224.923118 94.854073 
L 219.537966 104.212825 
L 218.593202 106.27175 
L 218.451488 107.207626 
L 216.231294 110.826343 
L 214.577957 114.320277 
L 212.310525 117.564645 
L 211.318523 119.374003 
L 210.704427 121.308146 
L 209.523472 122.743154 
L 207.77566 126.112305 
L 205.366513 129.855806 
L 204.846893 131.041248 
L 203.429748 133.037782 
L 202.107079 136.531716 
L 200.878886 138.9026 
L 199.272788 141.460659 
L 198.091834 144.455459 
L 194.690685 149.446794 
L 194.029351 151.006586 
L 192.2343 153.814211 
L 189.163818 160.05338 
L 187.982864 161.92513 
L 187.132577 163.984055 
L 184.628953 168.164298 
L 183.306284 170.09844 
L 179.479992 177.086308 
L 178.913134 178.521317 
L 177.307036 181.391334 
L 175.889891 184.386135 
L 170.835406 192.684229 
L 168.379021 198.424263 
L 169.229308 199.360139 
L 170.788168 200.358406 
L 173.433506 201.668631 
L 176.740178 204.101906 
L 176.740178 204.101906 
" clip-path="url(#pd4c60048bf)" style="fill: none; stroke: #000000; stroke-width: 3"/>
   </g>
  </g>
 </g>
 <defs>
  <clipPath id="pd4c60048bf">
   <rect x="7.2" y="7.2" width="241.155616" height="554.4"/>
  </clipPath>
 </defs>
</svg>
