<?xml version="1.0" encoding="utf-8" standalone="no"?>
<!DOCTYPE svg PUBLIC "-//W3C//DTD SVG 1.1//EN"
  "http://www.w3.org/Graphics/SVG/1.1/DTD/svg11.dtd">
<svg xmlns:xlink="http://www.w3.org/1999/xlink" width="296.446744pt" height="568.8pt" viewBox="0 0 296.446744 568.8" xmlns="http://www.w3.org/2000/svg" version="1.1">
 <metadata>
  <rdf:RDF xmlns:dc="http://purl.org/dc/elements/1.1/" xmlns:cc="http://creativecommons.org/ns#" xmlns:rdf="http://www.w3.org/1999/02/22-rdf-syntax-ns#">
   <cc:Work>
    <dc:type rdf:resource="http://purl.org/dc/dcmitype/StillImage"/>
    <dc:date>2023-09-25T14:14:40.771580</dc:date>
    <dc:format>image/svg+xml</dc:format>
    <dc:creator>
     <cc:Agent>
      <dc:title>Matplotlib v3.6.2, https://matplotlib.org/</dc:title>
     </cc:Agent>
    </dc:creator>
   </cc:Work>
  </rdf:RDF>
 </metadata>
 <defs>
  <style type="text/css">*{stroke-linejoin: round; stroke-linecap: butt}</style>
 </defs>
 <g id="figure_1">
  <g id="patch_1">
   <path d="M 0 568.8 
L 296.446744 568.8 
L 296.446744 0 
L 0 0 
z
" style="fill: #ffffff"/>
  </g>
  <g id="axes_1">
   <g id="LineCollection_1">
    <path d="M 270.407514 32.4 
L 269.557784 35.298701 
L 271.257244 34.644156 
L 274.656166 36.888312 
L 276.426437 36.607792 
L 276.001572 38.103896 
L 272.248596 45.303896 
L 269.628594 49.885714 
L 267.504269 54.935065 
L 265.521564 55.58961 
L 259.502641 54.187013 
L 256.032909 54 
L 252.704798 53.064935 
L 249.589121 53.532468 
L 247.88966 55.028571 
L 246.331821 58.955844 
L 246.119388 60.919481 
L 247.181551 63.257143 
L 249.447499 64.65974 
L 253.837772 65.875325 
L 255.749666 68.025974 
L 256.386963 69.709091 
L 256.528585 74.571429 
L 257.73237 78.311688 
L 258.015613 81.21039 
L 257.519937 83.641558 
L 256.528585 85.698701 
L 253.979394 88.503896 
L 250.013986 91.122078 
L 245.765334 92.244156 
L 243.641008 93.927273 
L 241.658304 97.012987 
L 240.383709 101.033766 
L 239.533978 102.249351 
L 237.19722 103.838961 
L 232.665325 105.335065 
L 228.20424 107.953247 
L 225.017751 110.851948 
L 223.459913 112.909091 
L 220.344235 119.454545 
L 218.432341 124.877922 
L 215.175042 130.488312 
L 213.333959 132.358442 
L 209.368551 134.696104 
L 207.244225 138.062338 
L 205.96963 141.522078 
L 206.182062 147.693506 
L 204.624223 150.779221 
L 202.641519 152.555844 
L 194.002594 156.67013 
L 190.957727 158.633766 
L 189.612321 160.597403 
L 186.779886 163.309091 
L 183.239343 168.825974 
L 181.964748 171.444156 
L 181.469071 174.249351 
L 182.743667 181.449351 
L 185.009615 189.023377 
L 184.372317 193.044156 
L 182.460424 196.971429 
L 180.619341 199.683117 
L 177.432852 203.516883 
L 175.59177 205.2 
L 172.192849 207.444156 
L 169.714468 209.875325 
L 168.22744 214.457143 
L 168.581495 222.124675 
L 167.873386 225.303896 
L 165.536628 228.950649 
L 158.31392 235.402597 
L 155.623107 238.207792 
L 150.170671 245.688312 
L 147.833912 248.212987 
L 140.540393 253.542857 
L 137.849581 256.722078 
L 136.645796 258.779221 
L 135.725255 261.958442 
L 135.512822 265.324675 
L 136.504174 277.574026 
L 135.3712 281.688312 
L 133.176064 284.212987 
L 126.30741 286.644156 
L 124.466328 289.075325 
L 121.633893 294.124675 
L 118.518215 301.137662 
L 116.535511 307.496104 
L 115.685781 309.45974 
L 113.13659 313.293506 
L 111.224697 315.631169 
L 105.843071 320.212987 
L 100.744689 325.823377 
L 97.770633 329.844156 
L 95.504685 333.958442 
L 94.584144 338.353247 
L 94.654955 339.755844 
L 97.770633 345.833766 
L 100.8155 349.106494 
L 103.152258 350.976623 
L 103.435502 353.220779 
L 101.523608 357.054545 
L 100.390635 358.363636 
L 97.699822 363.412987 
L 95.787929 368.742857 
L 96.000361 370.8 
L 93.805225 372.109091 
L 92.884683 374.914286 
L 91.82252 375.007792 
L 87.998734 382.581818 
L 86.86576 383.516883 
L 85.520354 386.135065 
L 83.962515 387.818182 
L 82.829541 390.436364 
L 81.909 391.371429 
L 80.705215 394.083117 
L 77.660348 398.664935 
L 76.668996 401.47013 
L 73.907372 407.454545 
L 71.783047 410.633766 
L 67.676017 418.488312 
L 66.826286 418.862338 
L 63.923041 424.379221 
L 61.657093 427.838961 
L 60.524119 431.85974 
L 59.957633 432.327273 
L 58.399794 436.441558 
L 57.408442 436.535065 
L 55.000872 440.92987 
L 55.000872 441.958442 
L 52.097627 446.353247 
L 49.760868 451.402597 
L 48.061408 452.431169 
L 46.645191 455.516883 
L 46.432758 457.012987 
L 44.591676 459.444156 
L 43.883567 462.062338 
L 40.413835 464.4 
L 39.564104 467.018182 
L 37.793833 468.794805 
L 36.235994 473.657143 
L 35.244642 475.714286 
L 34.040857 476.555844 
L 33.686803 478.238961 
L 28.375988 488.898701 
L 26.251662 492.358442 
L 25.26031 495.911688 
L 23.56085 498.249351 
L 23.490039 499.932468 
L 20.020307 506.477922 
L 20.940848 509.376623 
L 23.348417 509.750649 
L 28.588421 511.994805 
L 32.483018 514.519481 
L 34.961398 515.548052 
L 37.723022 517.698701 
L 38.077076 518.633766 
L 50.256545 524.992208 
L 52.451681 526.394805 
L 56.133846 527.797403 
L 60.311687 529.948052 
L 59.7452 532.192208 
L 58.328983 535.371429 
L 56.275468 536.4 
L 53.230601 535.371429 
L 52.168438 534.52987 
L 49.406814 533.875325 
L 47.282488 531.350649 
L 45.724649 533.781818 
L 47.919786 532.846753 
L 47.919786 532.846753 
" clip-path="url(#p0135fc5ed7)" style="fill: none; stroke: #000000; stroke-width: 3"/>
   </g>
  </g>
 </g>
 <defs>
  <clipPath id="p0135fc5ed7">
   <rect x="7.2" y="7.2" width="282.046744" height="554.4"/>
  </clipPath>
 </defs>
</svg>
