<?xml version="1.0" encoding="utf-8" standalone="no"?>
<!DOCTYPE svg PUBLIC "-//W3C//DTD SVG 1.1//EN"
  "http://www.w3.org/Graphics/SVG/1.1/DTD/svg11.dtd">
<svg xmlns:xlink="http://www.w3.org/1999/xlink" width="365.448429pt" height="568.8pt" viewBox="0 0 365.448429 568.8" xmlns="http://www.w3.org/2000/svg" version="1.1">
 <metadata>
  <rdf:RDF xmlns:dc="http://purl.org/dc/elements/1.1/" xmlns:cc="http://creativecommons.org/ns#" xmlns:rdf="http://www.w3.org/1999/02/22-rdf-syntax-ns#">
   <cc:Work>
    <dc:type rdf:resource="http://purl.org/dc/dcmitype/StillImage"/>
    <dc:date>2023-09-25T14:14:40.564656</dc:date>
    <dc:format>image/svg+xml</dc:format>
    <dc:creator>
     <cc:Agent>
      <dc:title>Matplotlib v3.6.2, https://matplotlib.org/</dc:title>
     </cc:Agent>
    </dc:creator>
   </cc:Work>
  </rdf:RDF>
 </metadata>
 <defs>
  <style type="text/css">*{stroke-linejoin: round; stroke-linecap: butt}</style>
 </defs>
 <g id="figure_1">
  <g id="patch_1">
   <path d="M 0 568.8 
L 365.448429 568.8 
L 365.448429 0 
L 0 0 
z
" style="fill: #ffffff"/>
  </g>
  <g id="axes_1">
   <g id="LineCollection_1">
    <path d="M 307.318722 105.09502 
L 306.677996 107.915389 
L 307.745872 109.255064 
L 310.308776 110.947286 
L 310.255383 111.934415 
L 305.983876 119.408394 
L 304.328667 123.286402 
L 304.435455 124.34404 
L 305.930482 125.33117 
L 308.867143 126.670845 
L 315.327797 130.337325 
L 320.293423 133.651259 
L 332.09346 139.926581 
L 333.90885 141.054729 
L 335.136908 144.227644 
L 334.60297 146.201903 
L 330.865402 152.477224 
L 329.637344 155.227084 
L 325.792988 161.713934 
L 322.375783 168.200783 
L 320.240029 171.444208 
L 318.424639 174.828651 
L 316.983005 177.931058 
L 315.594766 179.975825 
L 311.536835 187.590823 
L 309.2409 192.38545 
L 306.891571 195.840403 
L 305.129575 199.78892 
L 303.260791 202.397762 
L 301.071643 206.416788 
L 300.163948 208.461556 
L 297.387469 213.53822 
L 297.013712 213.890767 
L 294.290627 219.531505 
L 291.514147 224.044096 
L 289.431788 227.992613 
L 286.281552 232.434695 
L 283.344891 238.639508 
L 280.248049 244.139228 
L 278.966597 246.818579 
L 276.617268 250.626077 
L 272.8797 257.74751 
L 268.608193 265.433016 
L 267.753892 267.336766 
L 263.428992 274.176161 
L 260.545725 280.804029 
L 258.570153 283.48338 
L 256.007249 287.784443 
L 254.35204 291.380414 
L 251.255198 296.809625 
L 250.080534 299.347957 
L 248.478719 301.956799 
L 244.901332 308.514158 
L 244.207212 309.21925 
L 242.818973 311.898601 
L 242.23164 313.80235 
L 241.270551 314.71897 
L 239.508555 318.667487 
L 237.799952 320.994292 
L 234.489535 326.70554 
L 232.727538 331.218131 
L 231.49948 332.628316 
L 228.669607 337.916508 
L 227.868699 340.102294 
L 226.053309 342.35859 
L 224.131131 345.602015 
L 222.102166 349.550532 
L 216.709389 358.787241 
L 215.160967 362.101175 
L 214.787211 363.722888 
L 213.398971 366.120201 
L 212.170913 367.530386 
L 209.394434 366.754785 
L 207.685831 368.023951 
L 206.190804 369.645663 
L 202.93378 368.023951 
L 197.380821 364.42798 
L 196.045975 364.075434 
L 193.32289 362.735758 
L 192.094832 362.59474 
L 191.881257 361.607611 
L 189.264959 360.197426 
L 187.663144 359.84488 
L 182.537336 357.236038 
L 180.935521 355.966872 
L 178.212436 354.556687 
L 176.770802 354.345159 
L 176.290258 356.037381 
L 174.528261 359.351315 
L 172.819658 361.67812 
L 171.5916 362.806267 
L 168.708333 362.030666 
L 163.796101 360.408954 
L 162.194286 360.197426 
L 161.126409 356.389927 
L 159.04405 355.543816 
L 156.694721 355.755344 
L 155.947207 354.556687 
L 154.345393 353.35803 
L 150.768006 351.877336 
L 149.166191 351.595299 
L 147.991526 350.537661 
L 145.321835 349.339004 
L 144.467534 348.351875 
L 142.598749 347.294236 
L 140.676571 347.223727 
L 138.914575 350.678679 
L 137.633123 354.415669 
L 135.016825 358.787241 
L 134.376099 359.492334 
L 132.507315 363.51136 
L 131.332651 365.062563 
L 129.036716 368.870062 
L 125.833086 375.215893 
L 123.910908 378.459317 
L 122.629456 381.420705 
L 121.881943 382.196307 
L 118.891888 386.779407 
L 117.450254 389.811304 
L 116.542559 390.798433 
L 115.955227 392.490655 
L 113.338929 398.272412 
L 112.431234 399.048013 
L 110.135299 403.842641 
L 107.892758 408.002686 
L 106.6647 409.553889 
L 103.407677 415.194628 
L 101.485499 418.931617 
L 100.844773 420.694348 
L 97.587749 426.617124 
L 92.088184 435.853833 
L 89.52528 440.507443 
L 85.8945 447.699384 
L 83.918928 450.449245 
L 80.768692 456.442529 
L 80.288147 458.487297 
L 78.472757 461.94225 
L 77.671849 462.576833 
L 74.948764 467.018914 
L 74.20125 469.416228 
L 73.667312 469.909793 
L 71.638346 474.633912 
L 70.356894 476.819698 
L 68.434716 480.768215 
L 65.498056 485.915389 
L 63.789453 488.59474 
L 60.746005 494.870062 
L 57.969525 499.876217 
L 56.794861 501.356911 
L 54.285351 506.01052 
L 53.16408 507.632233 
L 50.974933 511.651259 
L 48.198454 515.599776 
L 44.94143 521.804589 
L 43.873554 523.285283 
L 41.577619 528.07991 
L 40.456348 531.393844 
L 39.174896 531.8169 
L 37.679869 535.412871 
L 36.345023 535.201343 
L 30.578489 531.887409 
L 29.297037 531.393844 
L 23.156747 528.009401 
L 23.47711 526.31718 
L 24.59838 524.342921 
L 25.239106 521.804589 
L 27.214678 519.759821 
L 27.588435 517.926581 
L 29.510613 516.445887 
L 31.219215 513.272971 
L 31.326003 512.426861 
L 34.262664 507.632233 
L 35.757691 503.895243 
L 36.878962 503.119642 
L 39.068109 504.741354 
L 42.538708 506.292557 
L 43.926947 507.420705 
L 49.319725 510.452602 
L 50.22742 510.523111 
L 52.950505 512.003805 
L 54.338745 513.343481 
L 56.260923 514.542138 
L 60.26546 516.304868 
L 64.697148 519.125238 
L 66.245569 518.984219 
L 68.541504 519.971349 
L 70.57047 521.240515 
L 71.798528 522.721209 
L 73.827494 524.131393 
L 75.108946 524.624958 
L 77.137911 526.176161 
L 78.472757 526.176161 
L 79.594027 527.515837 
L 80.928873 527.656855 
L 83.972322 529.701623 
L 84.025715 530.90028 
L 86.428438 532.663011 
L 87.870071 532.945048 
L 94.11715 536.258982 
L 96.252903 536.4 
L 97.053811 535.976945 
L 101.378711 529.208058 
L 101.592286 528.361947 
L 103.888221 524.554449 
L 103.621252 524.060884 
L 104.689129 522.086626 
L 106.718094 519.83033 
L 107.892758 516.798433 
L 107.679183 515.670285 
L 108.533484 514.824175 
L 110.882813 510.66413 
L 113.712686 506.504085 
L 114.193231 505.023391 
L 116.27559 501.568439 
L 116.756135 500.087745 
L 118.464737 497.549412 
L 120.013158 493.530386 
L 122.148912 489.299832 
L 120.920854 489.370341 
L 121.668367 487.537101 
L 124.338059 484.434695 
L 124.711816 483.306547 
L 125.405935 483.236038 
L 125.032179 484.575713 
L 128.876535 487.043537 
L 131.012288 487.043537 
L 131.813195 487.537101 
L 133.735373 487.607611 
L 135.443976 488.947286 
L 135.817733 490.42798 
L 135.550764 491.979183 
L 136.405065 493.036821 
L 139.501907 493.17784 
L 140.623178 492.825294 
L 140.729965 493.812423 
L 142.171599 492.331729 
L 142.865719 492.402238 
L 143.880201 495.081589 
L 144.894684 495.575154 
L 145.161653 496.985339 
L 146.496499 498.325014 
L 148.04492 499.241634 
L 150.768006 497.972468 
L 152.369821 496.350755 
L 152.316427 495.222608 
L 153.010547 493.882932 
L 154.45218 492.190711 
L 155.359875 490.286961 
L 155.092906 489.863906 
L 156.214177 487.960157 
L 156.107389 486.902518 
L 157.922779 485.985898 
L 159.4712 483.306547 
L 159.577988 482.530946 
L 161.179803 480.697706 
L 161.980711 479.075993 
L 164.116464 475.973587 
L 164.330039 474.351875 
L 163.742707 473.223727 
L 164.490221 472.871181 
L 165.024159 471.531505 
L 166.359005 470.332848 
L 167.320094 468.076553 
L 168.441364 467.018914 
L 168.815121 464.128036 
L 168.441364 464.762619 
L 169.722816 465.820257 
L 169.829604 464.198545 
L 171.004268 462.435814 
L 171.004268 461.448685 
L 173.140021 458.416788 
L 173.780747 455.4554 
L 174.635049 453.551651 
L 176.717408 452.423503 
L 179.173525 448.545495 
L 180.241401 447.558366 
L 180.668552 446.218691 
L 181.576247 445.443089 
L 182.003398 444.244432 
L 181.576247 442.693229 
L 182.857699 439.097258 
L 184.993452 435.501287 
L 185.473997 432.046335 
L 185.954541 431.623279 
L 186.435086 428.450364 
L 188.624233 423.867264 
L 189.104777 421.963514 
L 190.172654 421.258422 
L 191.614287 418.085506 
L 193.483072 417.944488 
L 195.031493 417.380414 
L 195.992582 415.476665 
L 196.900277 414.630554 
L 198.021547 410.893565 
L 197.861366 409.976945 
L 199.089424 409.48338 
L 198.769061 408.143705 
L 200.904814 405.323335 
L 201.385359 403.98366 
L 204.161838 402.926021 
L 205.870441 399.259541 
L 206.404379 397.144264 
L 206.511167 393.548293 
L 206.884923 392.772692 
L 209.180858 392.843201 
L 209.714797 391.926581 
L 209.76819 393.407275 
L 210.622492 390.445887 
L 213.719334 385.298713 
L 213.345577 383.183436 
L 214.627029 377.683716 
L 215.321149 376.978623 
L 215.801693 374.792837 
L 217.296721 374.017236 
L 218.044234 371.831449 
L 221.568227 369.716172 
L 222.208953 367.812423 
L 223.543799 366.472748 
L 224.504888 364.780526 
L 223.757374 362.876777 
L 224.771857 361.607611 
L 226.48046 360.973027 
L 227.868699 357.659093 
L 228.456032 357.659093 
L 229.844271 355.896363 
L 230.912148 355.19127 
L 231.606268 353.710576 
L 232.834326 349.621041 
L 233.902203 349.480022 
L 235.076867 347.646782 
L 236.358319 344.403358 
L 238.173709 340.877896 
L 238.013528 339.53822 
L 239.72213 338.410073 
L 240.790007 334.95512 
L 242.445216 333.474426 
L 242.979154 331.852714 
L 242.605397 330.936094 
L 244.047031 327.833688 
L 245.275089 326.987577 
L 248.265143 322.968551 
L 248.905869 320.994292 
L 250.988229 316.340683 
L 252.002712 316.199664 
L 252.323075 314.930498 
L 253.444345 313.943369 
L 253.390951 311.828092 
L 254.885979 310.699944 
L 255.473311 308.091102 
L 256.968338 306.610409 
L 256.968338 304.847678 
L 260.171968 301.110688 
L 261.026269 298.924902 
L 263.375598 296.245551 
L 263.055235 295.258422 
L 265.457957 291.450923 
L 266.312259 289.053609 
L 267.700498 287.713934 
L 268.5548 285.034583 
L 270.850734 281.861668 
L 273.467032 277.208058 
L 273.680608 275.727364 
L 274.69509 274.740235 
L 275.869755 272.836486 
L 276.296905 270.58019 
L 277.151207 270.298153 
L 277.791933 268.817459 
L 277.89872 266.91371 
L 279.340354 265.926581 
L 280.141261 264.16385 
L 281.048956 263.106212 
L 281.10235 261.766536 
L 284.145799 259.58075 
L 283.825436 258.170565 
L 286.067977 254.151539 
L 286.228158 252.17728 
L 288.951244 247.876217 
L 290.926815 246.325014 
L 291.247178 243.857191 
L 292.582024 241.459877 
L 293.810082 240.049692 
L 296.212805 235.67812 
L 297.494257 234.267935 
L 298.028195 231.870621 
L 298.722315 230.389927 
L 300.003767 229.543816 
L 300.484311 227.146503 
L 301.178431 225.313262 
L 302.780246 223.127476 
L 302.83364 221.928819 
L 304.702424 220.659653 
L 305.129575 218.473867 
L 308.973931 211.987017 
L 309.401081 212.269054 
L 311.163078 207.756463 
L 312.818287 205.993733 
L 313.352225 203.314382 
L 314.153132 201.692669 
L 314.900646 201.340123 
L 316.182098 199.506883 
L 317.410156 198.519754 
L 319.492516 194.571237 
L 320.240029 193.866144 
L 321.254512 190.270173 
L 323.336871 187.87286 
L 326.700683 181.315501 
L 328.142316 178.142585 
L 328.462679 176.520873 
L 330.171282 174.687633 
L 330.918796 172.501847 
L 334.122426 167.425182 
L 334.549576 167.143145 
L 336.258179 163.547174 
L 336.471754 161.995971 
L 337.486237 161.008842 
L 338.393932 159.105092 
L 340.155929 156.778288 
L 340.743261 154.73352 
L 341.70435 153.464354 
L 342.291682 151.06704 
L 341.544168 151.278567 
L 339.942353 149.727364 
L 339.19484 149.938892 
L 336.845511 148.881253 
L 335.083515 147.118523 
L 334.442789 147.40056 
L 333.695275 146.554449 
L 335.403878 145.003246 
L 337.272662 141.689312 
L 336.738723 140.138109 
L 335.99121 140.631673 
L 333.107943 140.631673 
L 328.783042 139.009961 
L 326.006563 137.599776 
L 324.778505 135.766536 
L 321.78845 134.215333 
L 320.453605 133.016676 
L 318.371245 132.100056 
L 317.944094 130.83089 
L 318.424639 129.209177 
L 319.919666 127.798993 
L 317.570338 126.036262 
L 316.021916 125.965753 
L 313.245437 123.42742 
L 311.376653 122.651819 
L 308.439992 120.959597 
L 306.571208 120.395523 
L 303.154003 118.421265 
L 299.683404 115.953442 
L 299.202859 115.953442 
L 294.290627 113.274091 
L 291.83451 112.568998 
L 290.286089 111.017795 
L 290.499665 110.242194 
L 293.863476 107.139787 
L 295.03814 104.742473 
L 295.945836 104.10789 
L 296.319592 102.697706 
L 297.494257 100.934975 
L 297.974801 99.383772 
L 299.523222 97.056967 
L 300.163948 97.409513 
L 300.804674 94.589144 
L 296.212805 91.768774 
L 294.664384 90.499608 
L 290.499665 88.384331 
L 288.630881 86.903637 
L 288.150336 83.801231 
L 288.470699 81.826973 
L 289.111425 80.346279 
L 291.353966 76.679799 
L 292.848993 73.436374 
L 293.436325 72.8723 
L 300.484311 59.475546 
L 303.95491 53.764298 
L 305.289756 50.591382 
L 305.076181 49.604253 
L 303.901517 48.405596 
L 299.790191 46.078791 
L 298.134983 44.739116 
L 293.436325 42.48282 
L 292.368449 42.130274 
L 288.470699 39.944488 
L 286.601915 38.534303 
L 280.301443 35.572916 
L 279.98108 34.867823 
L 277.631751 33.105092 
L 276.724056 33.034583 
L 274.374727 36.06648 
L 274.054364 37.265137 
L 272.559337 36.630554 
L 267.16656 33.598657 
L 265.77832 32.541018 
L 264.710444 32.4 
L 266.739409 33.739675 
L 267.006379 34.515277 
L 263.375598 41.495691 
L 263.322204 43.610968 
L 266.312259 45.30319 
L 266.792803 46.008282 
L 264.283293 51.296475 
L 262.84166 53.200224 
L 260.332149 57.924342 
L 259.851605 59.264018 
L 258.463365 61.520313 
L 255.419917 67.654617 
L 256.007249 68.782764 
L 258.623547 65.116284 
L 259.904999 65.186794 
L 262.361115 66.314941 
L 264.977413 68.148181 
L 269.035344 70.192949 
L 272.612731 71.744152 
L 272.8797 72.308226 
L 265.030807 86.833128 
L 263.589173 89.089424 
L 262.681478 89.724007 
L 259.424454 87.890767 
L 257.55567 87.115165 
L 255.847068 85.845999 
L 253.444345 84.576833 
L 250.294109 77.243872 
L 251.361986 77.4554 
L 252.483256 78.442529 
L 254.245253 78.583548 
L 256.487794 80.134751 
L 256.487794 80.628316 
L 258.409972 82.10901 
L 260.812694 82.602574 
L 262.57469 84.224287 
L 264.176505 84.717851 
L 265.244382 85.845999 
L 268.341224 87.467711 
L 269.355707 89.582988 
L 272.399156 90.217571 
L 273.787395 91.204701 
L 276.190118 91.768774 
L 275.175635 95.787801 
L 275.335816 97.268495 
L 274.321334 100.088864 
L 274.374727 101.569558 
L 273.413638 104.10789 
L 273.360245 106.293677 
L 273.947577 107.84488 
L 275.762967 109.67812 
L 276.670662 109.960157 
L 279.340354 112.851035 
L 281.689682 112.851035 
L 282.49059 113.767655 
L 286.38834 116.023951 
L 287.135853 117.363626 
L 289.004637 118.068719 
L 290.179302 117.081589 
L 289.538576 114.684275 
L 290.392877 113.062563 
L 291.40736 112.42798 
L 293.543113 107.633352 
L 295.999229 104.037381 
L 296.906925 101.922104 
L 297.1205 100.511919 
L 298.50874 99.172244 
L 300.217342 99.595299 
L 303.367578 101.710576 
L 306.998359 102.768215 
L 311.163078 105.588584 
L 311.857198 105.659093 
L 312.497924 107.280806 
L 311.002896 110.665249 
L 309.93502 111.229323 
L 307.906054 110.242194 
L 306.624602 108.973027 
L 305.556725 109.114046 
L 306.03727 109.960157 
L 305.022787 109.748629 
L 305.34315 108.832009 
L 305.34315 108.832009 
" clip-path="url(#p4649aaaa0d)" style="fill: none; stroke: #000000; stroke-width: 3"/>
   </g>
  </g>
 </g>
 <defs>
  <clipPath id="p4649aaaa0d">
   <rect x="7.2" y="7.2" width="351.048429" height="554.4"/>
  </clipPath>
 </defs>
</svg>
