<?xml version="1.0" encoding="utf-8" standalone="no"?>
<!DOCTYPE svg PUBLIC "-//W3C//DTD SVG 1.1//EN"
  "http://www.w3.org/Graphics/SVG/1.1/DTD/svg11.dtd">
<svg xmlns:xlink="http://www.w3.org/1999/xlink" width="297.233999pt" height="568.8pt" viewBox="0 0 297.233999 568.8" xmlns="http://www.w3.org/2000/svg" version="1.1">
 <metadata>
  <rdf:RDF xmlns:dc="http://purl.org/dc/elements/1.1/" xmlns:cc="http://creativecommons.org/ns#" xmlns:rdf="http://www.w3.org/1999/02/22-rdf-syntax-ns#">
   <cc:Work>
    <dc:type rdf:resource="http://purl.org/dc/dcmitype/StillImage"/>
    <dc:date>2023-09-25T14:14:40.491311</dc:date>
    <dc:format>image/svg+xml</dc:format>
    <dc:creator>
     <cc:Agent>
      <dc:title>Matplotlib v3.6.2, https://matplotlib.org/</dc:title>
     </cc:Agent>
    </dc:creator>
   </cc:Work>
  </rdf:RDF>
 </metadata>
 <defs>
  <style type="text/css">*{stroke-linejoin: round; stroke-linecap: butt}</style>
 </defs>
 <g id="figure_1">
  <g id="patch_1">
   <path d="M 0 568.8 
L 297.233999 568.8 
L 297.233999 0 
L 0 0 
z
" style="fill: #ffffff"/>
  </g>
  <g id="axes_1">
   <g id="LineCollection_1">
    <path d="M 271.475042 32.4 
L 272.390316 35.096182 
L 275.558575 36.211843 
L 277.177908 38.629109 
L 276.685067 40.581516 
L 274.502489 44.207416 
L 272.953562 48.205202 
L 266.476233 58.153182 
L 262.181482 57.409408 
L 260.56215 56.758605 
L 250.77575 55.271057 
L 248.029925 57.223464 
L 246.480999 60.012618 
L 246.058564 63.731489 
L 246.973839 65.590924 
L 248.804388 66.613614 
L 252.676705 67.915219 
L 254.57766 69.123852 
L 255.563341 70.518428 
L 256.40821 73.121638 
L 256.689833 77.584283 
L 257.816325 79.815606 
L 258.168354 83.999336 
L 257.182673 86.788489 
L 255.633747 89.298727 
L 252.958328 91.715993 
L 250.353315 93.203542 
L 245.776941 95.155949 
L 244.016797 96.457554 
L 242.256653 98.967792 
L 240.566915 103.05855 
L 239.229206 104.825014 
L 236.83541 106.405534 
L 230.428486 108.8228 
L 227.541851 110.682236 
L 224.796026 113.843276 
L 221.979796 118.21295 
L 219.445189 124.906918 
L 217.051393 130.020365 
L 213.390294 134.111123 
L 209.7996 136.435418 
L 207.969051 138.201882 
L 206.772153 140.433204 
L 206.138501 142.757499 
L 206.279313 148.707692 
L 206.068095 150.474156 
L 204.307951 153.82114 
L 202.054967 155.494632 
L 196.70413 157.725955 
L 192.761408 159.864305 
L 189.804366 162.374543 
L 186.636107 165.907471 
L 184.805557 168.97554 
L 182.904602 174.088987 
L 182.622979 179.109463 
L 183.467848 182.735362 
L 184.946369 187.198008 
L 185.650426 191.381738 
L 184.664746 195.565468 
L 182.27095 199.842169 
L 179.173097 203.746984 
L 176.568084 206.257222 
L 172.343739 209.325291 
L 170.090755 212.300387 
L 169.316291 215.089541 
L 169.597914 220.760819 
L 169.457103 223.921859 
L 168.119393 227.64073 
L 165.162352 231.359602 
L 160.022732 235.729275 
L 155.727981 240.098949 
L 152.207693 245.026453 
L 149.180245 248.652352 
L 141.64683 254.044715 
L 138.408165 257.391699 
L 137.281673 259.437078 
L 136.225586 264.829441 
L 137.281673 278.217377 
L 136.788832 280.820587 
L 135.732746 283.237853 
L 134.535848 284.725401 
L 132.35327 286.027006 
L 127.988113 287.421583 
L 125.3831 289.652905 
L 121.862812 295.882014 
L 119.821046 300.437631 
L 117.779279 307.596458 
L 115.878323 312.059103 
L 111.935601 317.079579 
L 107.359227 320.984394 
L 102.360418 326.097842 
L 99.262565 329.816713 
L 96.235118 334.37233 
L 95.179031 336.97554 
L 94.897408 338.927947 
L 96.727958 343.669507 
L 99.262565 346.830548 
L 103.275693 350.921306 
L 104.050156 353.2456 
L 103.557316 355.012064 
L 101.797172 357.522302 
L 99.544188 361.891976 
L 98.558508 364.402214 
L 97.572827 365.23896 
L 95.460654 369.701605 
L 92.292395 374.443165 
L 91.236309 376.581516 
L 89.969005 377.790149 
L 86.2375 385.041948 
L 81.238692 393.967239 
L 78.633679 400.103376 
L 77.577593 400.940122 
L 75.817449 404.566021 
L 74.057305 406.797344 
L 71.522698 411.352961 
L 70.466611 412.37565 
L 69.480931 414.97886 
L 65.890237 420.464195 
L 63.989282 424.369009 
L 62.581167 427.994909 
L 60.821023 429.482457 
L 58.849662 433.387272 
L 57.019112 439.337465 
L 54.766128 442.498506 
L 54.202882 445.101716 
L 51.386652 449.657333 
L 48.92245 452.353514 
L 48.500016 454.398893 
L 47.021495 457.188046 
L 45.12054 458.95451 
L 40.825789 465.183619 
L 40.051325 467.693857 
L 37.446312 472.063531 
L 36.601443 476.154289 
L 32.729127 483.0342 
L 31.884258 484.149862 
L 29.912897 488.79845 
L 26.815043 492.42435 
L 23.998813 499.025346 
L 23.787596 500.698838 
L 20.619337 505.626342 
L 20.056091 508.229552 
L 20.90096 509.438185 
L 23.858002 509.810072 
L 28.504781 511.111677 
L 30.053708 510.553846 
L 32.236286 511.855451 
L 35.967791 513.435971 
L 38.361587 514.086774 
L 39.628891 516.039181 
L 39.769702 517.805645 
L 42.022686 519.200221 
L 47.443929 520.966685 
L 50.612188 523.29098 
L 59.131285 527.102822 
L 62.017921 529.334145 
L 61.313863 532.123298 
L 59.060879 535.935141 
L 56.878301 536.4 
L 55.963026 535.470282 
L 55.681403 532.681129 
L 54.414099 528.404427 
L 51.527463 529.520089 
L 48.92245 527.009851 
L 47.866364 528.311455 
L 47.866364 528.311455 
" clip-path="url(#pc5de7a767f)" style="fill: none; stroke: #000000; stroke-width: 3"/>
   </g>
  </g>
 </g>
 <defs>
  <clipPath id="pc5de7a767f">
   <rect x="7.2" y="7.2" width="282.833999" height="554.4"/>
  </clipPath>
 </defs>
</svg>
