<?xml version="1.0" encoding="utf-8" standalone="no"?>
<!DOCTYPE svg PUBLIC "-//W3C//DTD SVG 1.1//EN"
  "http://www.w3.org/Graphics/SVG/1.1/DTD/svg11.dtd">
<svg xmlns:xlink="http://www.w3.org/1999/xlink" width="310.997261pt" height="568.8pt" viewBox="0 0 310.997261 568.8" xmlns="http://www.w3.org/2000/svg" version="1.1">
 <metadata>
  <rdf:RDF xmlns:dc="http://purl.org/dc/elements/1.1/" xmlns:cc="http://creativecommons.org/ns#" xmlns:rdf="http://www.w3.org/1999/02/22-rdf-syntax-ns#">
   <cc:Work>
    <dc:type rdf:resource="http://purl.org/dc/dcmitype/StillImage"/>
    <dc:date>2023-09-25T14:14:40.430032</dc:date>
    <dc:format>image/svg+xml</dc:format>
    <dc:creator>
     <cc:Agent>
      <dc:title>Matplotlib v3.6.2, https://matplotlib.org/</dc:title>
     </cc:Agent>
    </dc:creator>
   </cc:Work>
  </rdf:RDF>
 </metadata>
 <defs>
  <style type="text/css">*{stroke-linejoin: round; stroke-linecap: butt}</style>
 </defs>
 <g id="figure_1">
  <g id="patch_1">
   <path d="M 0 568.8 
L 310.997261 568.8 
L 310.997261 0 
L 0 0 
z
" style="fill: #ffffff"/>
  </g>
  <g id="axes_1">
   <g id="LineCollection_1">
    <path d="M 73.848936 92.891803 
L 60.668822 89.645902 
L 33.191633 72.531148 
L 39.223211 58.072131 
L 42.79748 53.055738 
L 53.073501 32.4 
L 55.307419 35.35082 
L 70.721452 43.022951 
L 73.402153 45.383607 
L 90.156536 54.82623 
L 98.422032 62.498361 
L 99.315599 69.285246 
L 105.347177 70.170492 
L 110.038404 66.92459 
L 112.495714 68.104918 
L 106.240744 78.432787 
L 101.549517 89.940984 
L 94.40098 99.97377 
L 91.94367 105.87541 
L 82.784607 122.4 
L 74.519112 135.678689 
L 65.583441 155.154098 
L 66.253616 158.990164 
L 79.433731 168.432787 
L 86.358876 169.613115 
L 90.60332 173.44918 
L 106.910919 184.662295 
L 120.091034 189.678689 
L 135.058283 199.121311 
L 157.397461 210.92459 
L 166.556523 217.121311 
L 189.342485 229.514754 
L 195.374063 242.793443 
L 183.534298 262.563934 
L 181.076989 274.367213 
L 187.331959 275.252459 
L 200.958857 279.97377 
L 207.884002 288.531148 
L 212.351838 287.940984 
L 219.500374 295.022951 
L 229.776396 302.4 
L 247.87113 310.662295 
L 256.806801 315.97377 
L 261.274637 312.432787 
L 266.636039 311.252459 
L 272.667617 321.580328 
L 280.039546 318.629508 
L 283.613814 322.170492 
L 290.315567 335.744262 
L 282.273463 342.82623 
L 267.306214 364.662295 
L 260.157678 379.711475 
L 255.913234 385.613115 
L 254.349491 392.104918 
L 240.27581 417.777049 
L 238.265284 426.039344 
L 231.786922 435.481967 
L 229.329613 443.744262 
L 223.521426 448.760656 
L 215.032539 464.104918 
L 207.437218 475.908197 
L 205.426693 481.514754 
L 194.480495 498.92459 
L 176.16237 532.563934 
L 173.481669 536.4 
L 167.450091 534.92459 
L 154.046584 526.367213 
L 148.685181 525.186885 
L 126.569396 512.498361 
L 112.495714 506.596721 
L 89.486361 493.022951 
L 77.646597 487.711475 
L 66.253616 485.35082 
L 62.679348 478.859016 
L 64.24309 472.957377 
L 55.307419 464.4 
L 44.361222 459.678689 
L 36.765902 454.367213 
L 22.245436 449.645902 
L 20.681694 444.629508 
L 22.245436 436.957377 
L 32.968241 417.777049 
L 45.031397 402.137705 
L 62.902739 382.367213 
L 70.051276 371.44918 
L 71.391627 363.481967 
L 71.615019 340.170492 
L 76.976421 311.252459 
L 83.007999 300.334426 
L 94.847763 289.711475 
L 104.006826 284.104918 
L 107.134311 279.97377 
L 108.474662 272.006557 
L 106.464136 266.695082 
L 99.315599 261.678689 
L 87.699227 263.154098 
L 74.965895 271.711475 
L 68.934317 273.481967 
L 60.668822 270.236066 
L 57.317945 265.219672 
L 57.317945 256.662295 
L 61.338997 249.87541 
L 71.615019 237.481967 
L 77.869988 228.334426 
L 86.358876 208.859016 
L 87.475835 198.531148 
L 85.018525 190.859016 
L 73.402153 176.695082 
L 64.24309 168.432787 
L 64.019698 164.301639 
L 80.55069 131.842623 
L 93.507413 109.711475 
L 93.060629 103.809836 
L 75.412679 93.481967 
L 73.625545 94.072131 
" clip-path="url(#p0180761242)" style="fill: none; stroke: #000000; stroke-width: 3"/>
   </g>
  </g>
 </g>
 <defs>
  <clipPath id="p0180761242">
   <rect x="7.2" y="7.2" width="296.597261" height="554.4"/>
  </clipPath>
 </defs>
</svg>
