<?xml version="1.0" encoding="utf-8" standalone="no"?>
<!DOCTYPE svg PUBLIC "-//W3C//DTD SVG 1.1//EN"
  "http://www.w3.org/Graphics/SVG/1.1/DTD/svg11.dtd">
<svg xmlns:xlink="http://www.w3.org/1999/xlink" width="270.791585pt" height="568.8pt" viewBox="0 0 270.791585 568.8" xmlns="http://www.w3.org/2000/svg" version="1.1">
 <metadata>
  <rdf:RDF xmlns:dc="http://purl.org/dc/elements/1.1/" xmlns:cc="http://creativecommons.org/ns#" xmlns:rdf="http://www.w3.org/1999/02/22-rdf-syntax-ns#">
   <cc:Work>
    <dc:type rdf:resource="http://purl.org/dc/dcmitype/StillImage"/>
    <dc:date>2023-09-25T14:14:40.309009</dc:date>
    <dc:format>image/svg+xml</dc:format>
    <dc:creator>
     <cc:Agent>
      <dc:title>Matplotlib v3.6.2, https://matplotlib.org/</dc:title>
     </cc:Agent>
    </dc:creator>
   </cc:Work>
  </rdf:RDF>
 </metadata>
 <defs>
  <style type="text/css">*{stroke-linejoin: round; stroke-linecap: butt}</style>
 </defs>
 <g id="figure_1">
  <g id="patch_1">
   <path d="M 0 568.8 
L 270.791585 568.8 
L 270.791585 0 
L 0 0 
z
" style="fill: #ffffff"/>
  </g>
  <g id="axes_1">
   <g id="LineCollection_1">
    <path d="M 26.407787 536.4 
L 28.903181 533.817212 
L 26.610116 533.015656 
L 21.282114 529.98756 
L 20.472797 530.254745 
L 19.596037 528.829758 
L 19.393708 526.157908 
L 18.854163 525.356353 
L 19.865809 523.396996 
L 19.258821 519.032974 
L 20.270467 517.607987 
L 21.956544 513.956459 
L 23.912393 511.37367 
L 24.924039 510.661177 
L 25.193812 508.523697 
L 26.340344 506.831525 
L 30.319485 503.35812 
L 32.679993 497.034741 
L 33.691639 495.609754 
L 33.354424 493.739459 
L 34.635842 492.670719 
L 36.187033 488.930129 
L 37.805666 485.81297 
L 39.154528 485.011415 
L 39.963845 483.319244 
L 41.717365 481.716134 
L 43.268555 479.133345 
L 42.863897 478.153667 
L 45.494177 474.502138 
L 46.23605 474.05683 
L 47.31514 470.672486 
L 49.810533 469.603746 
L 49.136103 466.219403 
L 50.012862 466.041279 
L 51.698939 463.725676 
L 50.215192 460.519456 
L 51.766382 460.252271 
L 55.071093 456.867927 
L 56.487397 456.333557 
L 56.959499 454.196077 
L 58.443247 452.592967 
L 58.106031 449.475808 
L 58.51069 447.96176 
L 60.466539 444.399293 
L 61.680514 444.310231 
L 63.973579 442.885245 
L 65.052668 440.925888 
L 62.422388 435.225941 
L 64.580566 434.157201 
L 66.941074 430.505672 
L 67.480618 428.813501 
L 70.043455 425.696342 
L 71.25743 424.894787 
L 71.45976 422.757307 
L 73.820267 421.065135 
L 73.752824 417.769853 
L 74.629584 415.98862 
L 77.799408 412.337091 
L 83.059968 412.24803 
L 85.622805 410.288673 
L 84.139057 407.794946 
L 83.599513 404.944973 
L 85.555362 400.937197 
L 87.511211 401.560629 
L 88.387971 398.265347 
L 90.815921 395.059127 
L 91.153137 391.941969 
L 92.839214 388.557625 
L 94.660177 386.68733 
L 95.941595 386.509207 
L 98.03233 383.926418 
L 98.504432 380.096766 
L 96.818355 378.137409 
L 94.929949 376.801484 
L 92.367112 372.526524 
L 92.029897 370.299982 
L 94.997392 366.203145 
L 96.211367 365.579714 
L 98.167216 361.750062 
L 98.436989 360.236013 
L 99.650964 358.365718 
L 103.29289 349.815798 
L 104.439422 348.034564 
L 107.47436 344.650221 
L 111.790717 342.334617 
L 116.107074 343.492419 
L 118.400138 344.917406 
L 122.716495 346.342393 
L 126.628193 345.273653 
L 130.06779 342.156494 
L 131.753866 338.326842 
L 132.49574 335.298745 
L 134.653919 332.715957 
L 137.7563 330.489415 
L 141.195897 328.975367 
L 143.151746 327.194133 
L 145.377367 321.761371 
L 145.916912 321.583248 
L 147.130887 318.822336 
L 147.400659 316.061424 
L 146.928558 313.478636 
L 145.309924 309.827107 
L 144.635493 305.997455 
L 144.77038 304.66153 
L 145.916912 302.613112 
L 149.221622 298.605337 
L 151.851902 296.467857 
L 153.537979 296.022548 
L 156.100816 293.43976 
L 157.247348 291.124156 
L 157.51712 285.780456 
L 159.338083 279.813324 
L 160.552058 274.202439 
L 162.507908 271.08528 
L 163.586997 267.077505 
L 167.094037 263.871285 
L 169.319658 260.93225 
L 172.826698 255.321364 
L 175.119762 250.868281 
L 177.682599 244.99021 
L 179.098903 243.208977 
L 180.987309 241.694928 
L 188.068832 238.310585 
L 193.127063 239.023078 
L 198.589951 240.448065 
L 200.276028 240.002757 
L 202.029548 238.666832 
L 203.580739 236.084043 
L 204.727271 233.055946 
L 210.527375 221.032621 
L 212.955326 217.202969 
L 219.699633 205.090581 
L 221.520596 202.418731 
L 224.083433 196.985969 
L 224.960193 195.828168 
L 225.634624 193.067256 
L 226.916042 190.128221 
L 226.578827 185.85326 
L 226.983485 181.311115 
L 227.52303 178.728327 
L 226.781156 174.186181 
L 224.622977 170.801838 
L 224.218319 168.397173 
L 226.309054 162.430041 
L 227.725359 159.669129 
L 230.355639 155.661354 
L 232.851032 152.366072 
L 234.739438 150.6739 
L 240.26977 143.548966 
L 240.809315 140.075561 
L 240.4721 135.978724 
L 240.876758 131.792826 
L 242.090733 126.18194 
L 243.439595 122.352288 
L 245.395444 120.83824 
L 251.262991 117.453896 
L 251.937422 115.850786 
L 251.397877 113.535183 
L 249.981573 111.486764 
L 246.002431 111.041456 
L 242.630278 113.267998 
L 238.651137 114.4258 
L 236.560401 113.535183 
L 235.616198 110.596148 
L 236.0883 108.903976 
L 242.225619 101.600919 
L 245.53033 93.763492 
L 245.260558 91.358827 
L 244.046582 88.241668 
L 241.281416 85.035448 
L 238.988352 83.076091 
L 238.179035 80.849549 
L 239.123238 78.355823 
L 242.630278 72.477752 
L 243.574481 70.25121 
L 245.260558 68.202792 
L 246.40709 65.174695 
L 247.486179 64.551263 
L 248.497825 62.23566 
L 245.867545 61.968475 
L 244.248912 60.899735 
L 238.246478 59.385687 
L 237.437161 59.830995 
L 235.751084 59.207563 
L 232.176602 55.021665 
L 229.883537 54.131048 
L 229.276549 53.151369 
L 230.692854 49.499841 
L 230.692854 48.074854 
L 232.109159 46.382682 
L 232.716146 44.067079 
L 235.616198 39.079625 
L 236.560401 35.962467 
L 238.111592 35.339035 
L 239.999998 32.4 
L 238.651137 33.379678 
L 237.774377 35.695282 
L 238.920909 36.407775 
L 237.167389 38.723379 
L 232.109159 46.738929 
L 230.355639 51.370136 
L 229.343993 52.616999 
L 233.255691 55.021665 
L 235.21154 57.070083 
L 240.674429 60.365365 
L 241.551189 61.16692 
L 241.551189 61.16692 
" clip-path="url(#p3f25f22967)" style="fill: none; stroke: #000000; stroke-width: 3"/>
   </g>
  </g>
 </g>
 <defs>
  <clipPath id="p3f25f22967">
   <rect x="7.2" y="7.2" width="256.391585" height="554.4"/>
  </clipPath>
 </defs>
</svg>
