<?xml version="1.0" encoding="utf-8" standalone="no"?>
<!DOCTYPE svg PUBLIC "-//W3C//DTD SVG 1.1//EN"
  "http://www.w3.org/Graphics/SVG/1.1/DTD/svg11.dtd">
<svg xmlns:xlink="http://www.w3.org/1999/xlink" width="298.095096pt" height="568.8pt" viewBox="0 0 298.095096 568.8" xmlns="http://www.w3.org/2000/svg" version="1.1">
 <metadata>
  <rdf:RDF xmlns:dc="http://purl.org/dc/elements/1.1/" xmlns:cc="http://creativecommons.org/ns#" xmlns:rdf="http://www.w3.org/1999/02/22-rdf-syntax-ns#">
   <cc:Work>
    <dc:type rdf:resource="http://purl.org/dc/dcmitype/StillImage"/>
    <dc:date>2023-09-25T14:14:40.248579</dc:date>
    <dc:format>image/svg+xml</dc:format>
    <dc:creator>
     <cc:Agent>
      <dc:title>Matplotlib v3.6.2, https://matplotlib.org/</dc:title>
     </cc:Agent>
    </dc:creator>
   </cc:Work>
  </rdf:RDF>
 </metadata>
 <defs>
  <style type="text/css">*{stroke-linejoin: round; stroke-linecap: butt}</style>
 </defs>
 <g id="figure_1">
  <g id="patch_1">
   <path d="M 0 568.8 
L 298.095096 568.8 
L 298.095096 0 
L 0 0 
z
" style="fill: #ffffff"/>
  </g>
  <g id="axes_1">
   <g id="LineCollection_1">
    <path d="M 272.848828 32.4 
L 276.376935 34.356739 
L 277.999864 36.406656 
L 275.953562 40.506489 
L 273.342763 44.419967 
L 268.615099 53.085524 
L 267.98004 54.855907 
L 266.498235 55.880865 
L 255.913913 54.110483 
L 253.938173 53.365058 
L 249.986693 53.830948 
L 247.517018 56.253577 
L 246.529148 58.95574 
L 246.458586 61.564725 
L 247.658143 63.987354 
L 248.857699 65.012313 
L 253.16199 66.130449 
L 256.337286 68.832612 
L 257.11347 71.441597 
L 257.184032 75.634609 
L 258.313026 78.42995 
L 258.736399 80.666223 
L 258.383588 83.18203 
L 257.254594 85.604659 
L 254.361546 88.959068 
L 250.692315 91.381697 
L 246.2469 92.872546 
L 243.494976 95.015641 
L 241.872047 98.090516 
L 241.095863 100.419967 
L 238.555626 103.401664 
L 231.42885 106.383361 
L 228.041867 108.246922 
L 225.360506 111.135441 
L 222.326333 116.167055 
L 220.209469 120.732779 
L 218.233729 126.137105 
L 215.905178 130.050582 
L 213.435503 132.286855 
L 209.836834 134.336772 
L 207.508283 136.852579 
L 206.449851 139.64792 
L 206.238165 142.443261 
L 206.661538 146.449917 
L 205.955916 149.711148 
L 205.038608 151.388353 
L 202.568933 153.531448 
L 196.782838 155.76772 
L 192.90192 157.910815 
L 190.432245 159.774376 
L 187.186386 163.221963 
L 184.99896 166.762729 
L 182.952658 172.353411 
L 182.811533 177.944093 
L 185.775143 187.634609 
L 185.916268 189.96406 
L 185.281208 193.411647 
L 181.611977 199.561398 
L 177.731059 203.940765 
L 172.297774 207.947421 
L 169.757537 212.047255 
L 169.54585 213.910815 
L 169.828099 219.221963 
L 169.404726 223.508153 
L 167.287862 227.607987 
L 163.548068 231.428286 
L 161.078393 233.105491 
L 156.844665 237.112146 
L 149.223953 246.989018 
L 143.014485 251.461564 
L 139.768626 254.256905 
L 138.216259 256.213644 
L 136.663892 259.288519 
L 136.169957 264.413311 
L 137.440075 276.712812 
L 136.028833 281.464892 
L 133.62972 283.887521 
L 128.125873 285.84426 
L 125.656198 287.800998 
L 123.257085 291.621298 
L 121.210783 295.721131 
L 119.728978 299.448253 
L 118.670545 303.920799 
L 115.565811 311.281864 
L 111.684893 315.754409 
L 108.509597 318.177038 
L 102.582377 324.233611 
L 97.219654 331.035607 
L 95.314476 335.787687 
L 95.243914 339.048918 
L 96.725719 342.31015 
L 98.489772 344.825957 
L 102.229566 348.92579 
L 103.570247 350.043927 
L 104.34643 352.466556 
L 100.747761 358.243594 
L 98.842583 365.604659 
L 100.677199 368.4 
L 100.183264 369.238602 
L 97.643027 367.375042 
L 96.302346 369.052246 
L 93.691547 375.108819 
L 92.985925 374.922463 
L 91.998055 376.599667 
L 91.856931 378.183694 
L 90.939623 378.463228 
L 89.387256 381.444925 
L 87.623202 385.731115 
L 85.153527 388.3401 
L 85.22409 390.017304 
L 83.530598 393.371714 
L 82.119355 394.117138 
L 79.226307 397.564725 
L 77.956189 400.825957 
L 77.67394 403.52812 
L 76.121573 405.484859 
L 75.34539 407.441597 
L 72.522904 410.982363 
L 70.688288 411.075541 
L 69.700418 413.125458 
L 67.79524 418.622962 
L 67.301305 421.045591 
L 66.736808 421.045591 
L 65.890062 423.561398 
L 64.549382 422.909151 
L 62.997015 424.679534 
L 61.091837 430.270216 
L 57.210919 432.786023 
L 58.269351 437.631281 
L 57.56373 439.308486 
L 55.023492 443.408319 
L 53.400563 443.87421 
L 52.271569 446.949085 
L 51.354261 452.539767 
L 50.930888 452.632945 
L 54.458995 447.787687 
L 53.894498 448.160399 
L 51.213137 453.098835 
L 51.424823 455.614642 
L 49.096272 458.782696 
L 48.955148 458.037271 
L 46.556035 459.06223 
L 42.11062 464.652912 
L 42.181182 465.67787 
L 39.640945 467.541431 
L 39.076448 466.516473 
L 39.288135 469.49817 
L 39.923194 470.42995 
L 38.653075 473.691181 
L 37.312395 475.368386 
L 36.959584 477.511481 
L 34.419347 482.170383 
L 34.137098 484.499834 
L 30.185618 488.692845 
L 28.562689 491.30183 
L 26.939759 492.699501 
L 25.669641 492.233611 
L 24.964019 493.258569 
L 25.457954 495.215308 
L 23.693901 499.87421 
L 20.095232 503.974043 
L 20.165794 505.837604 
L 25.105144 508.167055 
L 27.715943 510.030616 
L 31.102926 511.335108 
L 36.253962 512.546423 
L 37.735767 514.596339 
L 39.217572 515.621298 
L 39.217572 516.646256 
L 43.945236 518.696173 
L 47.896716 519.814309 
L 48.814024 521.491514 
L 54.317871 525.404992 
L 57.987102 526.802662 
L 60.386215 527.175374 
L 62.644204 528.573045 
L 60.809588 533.418303 
L 59.186659 536.4 
L 57.422605 532.486522 
L 53.400563 529.411647 
L 51.283699 526.336772 
L 50.930888 526.89584 
L 50.930888 526.89584 
" clip-path="url(#pc31b678241)" style="fill: none; stroke: #000000; stroke-width: 3"/>
   </g>
  </g>
 </g>
 <defs>
  <clipPath id="pc31b678241">
   <rect x="7.2" y="7.2" width="283.695096" height="554.4"/>
  </clipPath>
 </defs>
</svg>
