<?xml version="1.0" encoding="utf-8" standalone="no"?>
<!DOCTYPE svg PUBLIC "-//W3C//DTD SVG 1.1//EN"
  "http://www.w3.org/Graphics/SVG/1.1/DTD/svg11.dtd">
<svg xmlns:xlink="http://www.w3.org/1999/xlink" width="275.446584pt" height="568.8pt" viewBox="0 0 275.446584 568.8" xmlns="http://www.w3.org/2000/svg" version="1.1">
 <metadata>
  <rdf:RDF xmlns:dc="http://purl.org/dc/elements/1.1/" xmlns:cc="http://creativecommons.org/ns#" xmlns:rdf="http://www.w3.org/1999/02/22-rdf-syntax-ns#">
   <cc:Work>
    <dc:type rdf:resource="http://purl.org/dc/dcmitype/StillImage"/>
    <dc:date>2023-09-25T14:14:39.745756</dc:date>
    <dc:format>image/svg+xml</dc:format>
    <dc:creator>
     <cc:Agent>
      <dc:title>Matplotlib v3.6.2, https://matplotlib.org/</dc:title>
     </cc:Agent>
    </dc:creator>
   </cc:Work>
  </rdf:RDF>
 </metadata>
 <defs>
  <style type="text/css">*{stroke-linejoin: round; stroke-linecap: butt}</style>
 </defs>
 <g id="figure_1">
  <g id="patch_1">
   <path d="M 0 568.8 
L 275.446584 568.8 
L 275.446584 0 
L 0 0 
z
" style="fill: #ffffff"/>
  </g>
  <g id="axes_1">
   <g id="LineCollection_1">
    <path d="M 29.366464 528.852725 
L 29.034183 536.4 
L 27.17341 536.136723 
L 23.053126 534.64482 
L 20.660703 534.732579 
L 19.198666 533.591712 
L 19.065754 530.081351 
L 20.328422 526.307714 
L 21.790458 526.834268 
L 22.920213 525.517883 
L 22.986669 524.201497 
L 21.591089 522.270799 
L 24.780987 518.058367 
L 26.110111 512.880585 
L 27.837972 509.896779 
L 30.429763 509.633502 
L 34.350679 501.647432 
L 35.679803 497.259481 
L 36.942471 497.34724 
L 36.809558 496.381891 
L 39.334894 491.555145 
L 41.461492 486.552882 
L 42.126054 486.289605 
L 44.784302 480.409751 
L 46.645075 479.970956 
L 46.9109 477.513704 
L 48.439393 476.109559 
L 48.30648 475.056451 
L 49.834973 472.862476 
L 50.23371 470.054188 
L 51.496378 469.00108 
L 53.888801 463.384503 
L 55.151468 462.945708 
L 55.616662 461.278287 
L 56.879329 459.610865 
L 57.344523 457.241372 
L 59.537577 457.504649 
L 58.740103 456.188264 
L 60.002771 453.818771 
L 61.730632 454.78412 
L 63.126212 451.800313 
L 61.797088 446.359255 
L 62.062913 443.375448 
L 64.322423 445.130629 
L 65.585091 442.410099 
L 65.983828 440.391642 
L 68.04397 440.303883 
L 69.904744 438.022149 
L 69.904744 436.266968 
L 69.10727 435.389378 
L 69.173726 432.844367 
L 69.705375 431.966777 
L 69.240182 428.719694 
L 75.885802 429.685043 
L 74.888959 425.999164 
L 76.949101 426.701236 
L 78.942787 423.103117 
L 81.800403 419.329479 
L 81.667491 416.872227 
L 82.597877 416.60895 
L 82.398509 414.85377 
L 83.794089 410.114783 
L 86.585249 405.639074 
L 87.183355 405.639074 
L 89.309953 403.620616 
L 90.705533 403.357339 
L 92.16757 404.14717 
L 92.965044 403.620616 
L 92.16757 398.179558 
L 93.828975 394.493679 
L 95.158099 392.826258 
L 96.686591 391.860909 
L 96.221398 390.720042 
L 96.753047 389.228139 
L 95.423923 386.946404 
L 96.620135 385.454501 
L 97.351153 382.382936 
L 96.819503 381.066551 
L 94.360624 378.43378 
L 92.433394 375.449974 
L 92.234026 373.080481 
L 92.765675 371.676336 
L 97.018872 368.165976 
L 100.673963 360.179906 
L 102.202455 355.616437 
L 103.598035 353.422462 
L 105.458809 351.579523 
L 106.920845 349.21003 
L 108.316425 348.156921 
L 108.781619 346.928295 
L 110.177199 345.962946 
L 113.83229 345.524151 
L 117.155099 346.577259 
L 119.215242 348.332439 
L 122.870332 349.473307 
L 125.329212 349.122271 
L 129.914689 345.61191 
L 131.709006 343.066899 
L 133.702692 338.240153 
L 134.300798 337.976876 
L 138.088801 333.501167 
L 141.07933 331.833745 
L 143.671122 331.219432 
L 145.000246 329.727529 
L 145.000246 327.621313 
L 145.79772 325.778374 
L 146.196457 323.321121 
L 147.525581 320.425074 
L 146.794563 315.247292 
L 145.000246 312.175727 
L 146.063545 306.646909 
L 149.585723 302.434477 
L 156.031974 298.660839 
L 157.228186 297.168936 
L 156.231343 292.956504 
L 157.626923 289.972697 
L 158.690222 286.550096 
L 159.687065 281.811109 
L 162.478225 273.825039 
L 166.664966 268.559499 
L 168.725108 267.155354 
L 169.323214 265.575692 
L 170.984618 264.083789 
L 172.911848 261.36326 
L 174.307428 257.326345 
L 175.968833 253.815985 
L 179.69038 247.585095 
L 184.342314 244.338011 
L 186.269544 243.986975 
L 188.994248 242.846108 
L 192.516426 244.601289 
L 195.639867 244.51353 
L 199.228502 243.197144 
L 202.152574 241.705241 
L 203.28233 240.476615 
L 203.415242 239.247989 
L 205.143103 235.474351 
L 207.203245 232.753822 
L 207.269702 231.700714 
L 209.130475 227.57604 
L 212.918478 222.398259 
L 212.984934 221.520669 
L 215.177989 216.869441 
L 216.108376 216.167369 
L 217.570412 211.867177 
L 219.962835 207.654745 
L 221.557784 205.46077 
L 223.55147 200.634024 
L 224.481856 199.405398 
L 225.412243 195.105206 
L 225.146418 190.717256 
L 225.345787 187.206895 
L 226.741367 183.696535 
L 226.475542 180.361692 
L 222.953364 174.481839 
L 223.750838 170.532683 
L 225.611612 167.987672 
L 227.339473 164.740589 
L 227.339473 163.424203 
L 229.067334 161.581264 
L 230.728739 158.948494 
L 232.523056 157.105555 
L 234.583198 155.70141 
L 239.301588 148.154135 
L 238.637026 138.676162 
L 240.564256 132.533032 
L 241.826924 129.285948 
L 243.687697 126.653178 
L 249.270018 123.844889 
L 250.266861 122.704022 
L 250.200404 120.422288 
L 248.472543 118.403831 
L 245.415558 117.350723 
L 242.026292 118.316072 
L 241.162362 119.720216 
L 238.171833 120.948842 
L 234.915479 119.632457 
L 233.918636 115.683301 
L 237.241446 113.050531 
L 238.902851 110.856556 
L 241.494643 106.644123 
L 242.890223 103.572558 
L 243.554785 98.131499 
L 242.75731 95.762006 
L 240.231975 91.81285 
L 238.769939 90.320947 
L 237.17499 89.618875 
L 236.443972 87.951454 
L 237.972464 85.143166 
L 241.760467 80.228661 
L 242.624398 79.965384 
L 244.086434 75.489674 
L 245.415558 74.173289 
L 245.880752 71.891555 
L 247.409244 69.434303 
L 248.073806 66.889291 
L 252.72574 60.395124 
L 253.124477 60.307365 
L 254.054864 56.621487 
L 256.380831 52.935609 
L 254.254232 51.00491 
L 254.187776 47.757827 
L 253.656127 45.476093 
L 254.453601 44.510744 
L 249.203561 41.790214 
L 247.076963 41.175901 
L 245.947208 39.332962 
L 243.023135 37.226746 
L 241.760467 37.402264 
L 241.162362 36.173637 
L 242.292117 33.540867 
L 242.225661 32.4 
L 238.969307 38.806408 
L 237.440815 40.912624 
L 235.77941 44.510744 
L 232.98825 48.108863 
L 231.459757 51.355946 
L 229.798352 52.935609 
L 229.200246 55.392861 
L 227.405929 59.254257 
L 227.538841 61.360474 
L 230.197089 62.325823 
L 231.260388 62.062546 
L 237.307902 66.801532 
L 239.301588 67.679122 
L 239.301588 67.679122 
" clip-path="url(#p3611e04b51)" style="fill: none; stroke: #000000; stroke-width: 3"/>
   </g>
  </g>
 </g>
 <defs>
  <clipPath id="p3611e04b51">
   <rect x="7.2" y="7.2" width="261.046584" height="554.4"/>
  </clipPath>
 </defs>
</svg>
