<?xml version="1.0" encoding="utf-8" standalone="no"?>
<!DOCTYPE svg PUBLIC "-//W3C//DTD SVG 1.1//EN"
  "http://www.w3.org/Graphics/SVG/1.1/DTD/svg11.dtd">
<svg xmlns:xlink="http://www.w3.org/1999/xlink" width="297.9726pt" height="568.8pt" viewBox="0 0 297.9726 568.8" xmlns="http://www.w3.org/2000/svg" version="1.1">
 <metadata>
  <rdf:RDF xmlns:dc="http://purl.org/dc/elements/1.1/" xmlns:cc="http://creativecommons.org/ns#" xmlns:rdf="http://www.w3.org/1999/02/22-rdf-syntax-ns#">
   <cc:Work>
    <dc:type rdf:resource="http://purl.org/dc/dcmitype/StillImage"/>
    <dc:date>2023-09-25T14:14:39.621283</dc:date>
    <dc:format>image/svg+xml</dc:format>
    <dc:creator>
     <cc:Agent>
      <dc:title>Matplotlib v3.6.2, https://matplotlib.org/</dc:title>
     </cc:Agent>
    </dc:creator>
   </cc:Work>
  </rdf:RDF>
 </metadata>
 <defs>
  <style type="text/css">*{stroke-linejoin: round; stroke-linecap: butt}</style>
 </defs>
 <g id="figure_1">
  <g id="patch_1">
   <path d="M 0 568.8 
L 297.9726 568.8 
L 297.9726 0 
L 0 0 
z
" style="fill: #ffffff"/>
  </g>
  <g id="axes_1">
   <g id="LineCollection_1">
    <path d="M 28.697743 536.4 
L 29.670831 535.7081 
L 23.308337 531.754383 
L 20.987898 529.184468 
L 20.089664 529.777525 
L 20.164517 527.108766 
L 21.661574 526.120337 
L 22.559808 523.15505 
L 21.960985 522.067778 
L 24.281424 517.02679 
L 24.880247 514.358031 
L 27.200686 511.195058 
L 28.473185 508.625142 
L 30.569065 506.648284 
L 32.290681 505.857541 
L 35.434501 499.828123 
L 35.509354 497.159365 
L 36.931559 494.787135 
L 38.728027 493.007962 
L 39.775968 488.658874 
L 42.770082 485.990116 
L 45.539638 481.838713 
L 46.138461 478.873426 
L 47.485813 475.809296 
L 48.908017 475.315081 
L 51.902132 472.250951 
L 52.051838 470.965993 
L 54.821394 467.11112 
L 55.195658 464.244675 
L 58.339479 461.180545 
L 59.088007 456.9303 
L 60.659917 452.284683 
L 62.231828 451.098568 
L 64.552267 447.540224 
L 63.953444 446.05758 
L 66.124177 445.761051 
L 67.022411 443.487664 
L 66.573294 439.731634 
L 67.471528 437.260561 
L 69.043439 435.382546 
L 69.941673 432.021887 
L 70.91476 431.033458 
L 74.208286 430.242714 
L 74.582551 427.672799 
L 75.780197 427.277427 
L 78.774311 423.719082 
L 79.447987 421.841067 
L 81.244456 419.56768 
L 81.693573 416.800078 
L 81.319309 415.218592 
L 82.067837 412.945205 
L 84.837393 412.747519 
L 87.532097 407.904217 
L 91.199887 405.927358 
L 94.119149 401.57827 
L 94.044296 398.019925 
L 94.717972 393.967366 
L 96.963558 391.002079 
L 98.236057 387.839106 
L 99.35885 383.292332 
L 101.230171 382.89696 
L 102.203258 380.425887 
L 102.128406 378.251343 
L 104.373992 374.495313 
L 102.352964 370.838125 
L 106.544725 368.367052 
L 107.966929 366.983252 
L 105.496785 363.128378 
L 102.876934 361.250363 
L 101.080465 358.285076 
L 102.128406 354.133673 
L 105.721343 349.883428 
L 109.613692 343.952854 
L 109.538839 341.284095 
L 114.104864 332.28939 
L 119.344565 325.963444 
L 121.215887 324.876172 
L 123.835737 324.678486 
L 126.680146 325.469229 
L 128.177203 327.050716 
L 131.470729 328.137988 
L 136.18646 328.039145 
L 138.956016 327.149559 
L 142.099836 324.777329 
L 144.195717 322.306256 
L 147.264684 314.794195 
L 150.782769 311.828908 
L 154.824824 309.555521 
L 157.145263 307.47982 
L 160.289083 303.526103 
L 161.711288 299.473544 
L 162.684375 298.485115 
L 162.834081 294.531398 
L 161.112465 292.060326 
L 160.513642 286.920494 
L 160.7382 282.37372 
L 161.486729 280.594548 
L 165.229372 275.257031 
L 168.29834 273.082487 
L 172.639806 269.425299 
L 173.687746 266.06464 
L 174.810539 257.366464 
L 176.607008 253.215062 
L 177.056125 250.052089 
L 177.729801 249.75556 
L 178.777741 246.394901 
L 181.771856 240.167798 
L 188.733172 231.568464 
L 192.026699 226.230947 
L 194.571696 218.5212 
L 198.464045 213.974426 
L 200.93419 211.997568 
L 207.820653 208.735752 
L 213.584324 209.921867 
L 216.578439 210.119553 
L 221.443875 208.636909 
L 225.261371 205.671622 
L 226.833282 201.816748 
L 228.180633 199.83989 
L 229.153721 196.874603 
L 233.04607 190.054442 
L 234.09401 189.362542 
L 235.965331 184.519239 
L 237.986359 181.85048 
L 240.082239 177.600235 
L 241.205032 174.536105 
L 246.89385 164.750657 
L 250.636493 156.34901 
L 250.935905 153.680251 
L 250.411935 148.935791 
L 251.983845 141.324887 
L 250.861052 137.766542 
L 248.46576 133.417454 
L 248.091496 131.341753 
L 249.139436 126.498451 
L 252.208403 120.963248 
L 255.352224 114.637301 
L 259.618837 110.584742 
L 261.340453 109.49747 
L 264.858538 105.247225 
L 265.981331 101.095823 
L 264.858538 95.56062 
L 265.232802 93.089547 
L 268.226917 82.414513 
L 269.574269 79.745754 
L 273.316912 76.187409 
L 276.385879 74.408237 
L 277.733231 73.024436 
L 277.882937 69.367248 
L 275.787057 67.489233 
L 273.316912 67.093862 
L 270.098239 68.181134 
L 265.307655 71.245264 
L 262.313541 71.245264 
L 260.591925 69.466091 
L 261.939276 65.01816 
L 266.879565 58.8899 
L 269.125151 55.133869 
L 271.071326 50.883624 
L 271.595296 46.139165 
L 271.370737 44.063463 
L 267.25383 39.220161 
L 265.083097 37.342146 
L 260.591925 35.167601 
L 254.97796 34.278015 
L 253.780314 33.783801 
L 246.594438 32.4 
L 242.776942 32.4 
L 240.157092 33.882644 
L 238.585182 37.638674 
L 238.210917 40.406276 
L 240.231945 43.668092 
L 244.573411 44.854207 
L 247.193261 45.150735 
L 251.010758 42.679663 
L 251.385022 41.790076 
L 254.528842 44.458835 
L 256.400164 49.598666 
L 256.400164 49.598666 
" clip-path="url(#p141619557a)" style="fill: none; stroke: #000000; stroke-width: 3"/>
   </g>
  </g>
 </g>
 <defs>
  <clipPath id="p141619557a">
   <rect x="7.2" y="7.2" width="283.5726" height="554.4"/>
  </clipPath>
 </defs>
</svg>
