<?xml version="1.0" encoding="utf-8" standalone="no"?>
<!DOCTYPE svg PUBLIC "-//W3C//DTD SVG 1.1//EN"
  "http://www.w3.org/Graphics/SVG/1.1/DTD/svg11.dtd">
<svg xmlns:xlink="http://www.w3.org/1999/xlink" width="287.804585pt" height="568.8pt" viewBox="0 0 287.804585 568.8" xmlns="http://www.w3.org/2000/svg" version="1.1">
 <metadata>
  <rdf:RDF xmlns:dc="http://purl.org/dc/elements/1.1/" xmlns:cc="http://creativecommons.org/ns#" xmlns:rdf="http://www.w3.org/1999/02/22-rdf-syntax-ns#">
   <cc:Work>
    <dc:type rdf:resource="http://purl.org/dc/dcmitype/StillImage"/>
    <dc:date>2023-09-25T14:14:38.463197</dc:date>
    <dc:format>image/svg+xml</dc:format>
    <dc:creator>
     <cc:Agent>
      <dc:title>Matplotlib v3.6.2, https://matplotlib.org/</dc:title>
     </cc:Agent>
    </dc:creator>
   </cc:Work>
  </rdf:RDF>
 </metadata>
 <defs>
  <style type="text/css">*{stroke-linejoin: round; stroke-linecap: butt}</style>
 </defs>
 <g id="figure_1">
  <g id="patch_1">
   <path d="M -0 568.8 
L 287.804585 568.8 
L 287.804585 0 
L -0 0 
z
" style="fill: #ffffff"/>
  </g>
  <g id="axes_1">
   <g id="LineCollection_1">
    <path d="M 29.222886 536.4 
L 27.862343 535.170732 
L 26.000548 534.981614 
L 25.642511 532.806754 
L 24.138753 531.482927 
L 19.627481 530.06454 
L 20.558379 527.416886 
L 24.568398 521.64878 
L 26.215371 517.960976 
L 27.217876 517.015385 
L 28.291988 513.800375 
L 29.509316 511.436398 
L 32.230401 508.410507 
L 33.089691 505.95197 
L 35.237916 503.020638 
L 38.030608 496.779737 
L 39.462758 494.983114 
L 39.749188 493.186492 
L 40.894908 491.20075 
L 42.040628 490.727955 
L 43.6876 485.243527 
L 44.904928 484.203377 
L 46.480293 480.326454 
L 50.060667 474.180113 
L 50.347097 471.910694 
L 52.781752 469.16848 
L 55.502837 467.466417 
L 55.71766 463.684053 
L 56.720165 462.360225 
L 57.364632 459.996248 
L 56.86338 459.239775 
L 61.732689 452.809756 
L 62.735194 448.932833 
L 63.737699 449.311069 
L 66.029139 445.717824 
L 66.100747 444.204878 
L 67.174859 442.502814 
L 68.034149 442.502814 
L 70.182374 439.666041 
L 70.755234 436.451032 
L 73.333104 432.668668 
L 73.404712 431.344841 
L 75.839366 429.169981 
L 75.910974 428.413508 
L 77.987591 426.995122 
L 77.772769 424.914822 
L 79.419741 420.659662 
L 81.424751 418.863039 
L 82.427256 415.931707 
L 83.787799 414.891557 
L 84.575481 412.433021 
L 84.575481 410.258161 
L 86.222454 409.31257 
L 88.585501 406.854034 
L 92.738736 399.85666 
L 94.672138 398.060038 
L 96.104288 398.627392 
L 94.886961 396.168856 
L 96.175896 394.939587 
L 98.538943 391.062664 
L 98.825373 385.672795 
L 101.403243 382.552345 
L 102.190925 380.093809 
L 102.119318 377.351595 
L 104.267543 376.311445 
L 104.697188 375.365854 
L 103.909505 371.772608 
L 100.973598 367.706567 
L 99.684663 366.571857 
L 98.753766 361.843902 
L 100.114308 359.669043 
L 103.909505 358.061538 
L 105.055225 356.359475 
L 107.346665 350.875047 
L 107.704703 348.605629 
L 108.707208 346.147092 
L 112.430797 340.662664 
L 113.361695 338.676923 
L 114.93706 336.974859 
L 117.2285 335.367355 
L 122.599062 334.8 
L 124.962109 335.651032 
L 127.181942 337.069418 
L 130.404279 338.204128 
L 132.409289 337.825891 
L 137.636636 334.610882 
L 140.142899 331.301313 
L 141.288619 327.046154 
L 142.792376 324.682176 
L 147.876509 321.372608 
L 151.814921 320.427017 
L 155.395296 313.996998 
L 157.328698 307.945216 
L 157.328698 303.406379 
L 155.180473 298.205629 
L 154.965651 295.368856 
L 157.543521 289.69531 
L 160.909073 286.574859 
L 163.988195 285.061914 
L 166.494458 283.265291 
L 167.998215 281.374109 
L 168.571075 278.726454 
L 168.213038 275.889681 
L 168.571075 273.336585 
L 170.218048 269.74334 
L 170.504478 267.473921 
L 171.363768 265.393621 
L 171.220553 264.069794 
L 172.15145 262.556848 
L 171.936628 260.760225 
L 172.652703 258.396248 
L 175.445395 254.897561 
L 177.163975 251.587992 
L 182.677752 246.292683 
L 185.470445 241.659287 
L 188.048315 234.567355 
L 191.700297 228.79925 
L 194.421382 226.62439 
L 199.219084 224.922326 
L 203.801964 224.071295 
L 205.520544 224.922326 
L 210.533069 225.111445 
L 214.614696 223.409381 
L 216.977743 220.478049 
L 219.269183 218.492308 
L 222.205091 212.440525 
L 224.138493 209.88743 
L 225.212606 206.483302 
L 227.432438 201.755347 
L 232.373355 192.488555 
L 234.091935 190.030019 
L 234.951225 189.651782 
L 238.5316 183.127205 
L 242.111975 175.373358 
L 242.971265 170.645403 
L 242.971265 166.295685 
L 243.329302 162.040525 
L 243.902162 159.676548 
L 243.186087 156.083302 
L 240.035357 151.260788 
L 240.393395 145.870919 
L 241.96876 141.710319 
L 243.68734 138.684428 
L 248.055397 133.105441 
L 251.13452 130.363227 
L 253.497567 127.337336 
L 255.789007 123.176735 
L 256.433474 119.110694 
L 256.003829 113.058912 
L 256.576689 108.236398 
L 258.152054 102.279174 
L 260.658317 98.969606 
L 267.604244 94.33621 
L 268.177104 91.499437 
L 266.959776 88.568105 
L 262.162074 87.906191 
L 260.586709 88.851782 
L 257.722409 91.499437 
L 255.430969 92.25591 
L 252.853099 91.593996 
L 251.349342 88.946341 
L 251.564165 85.163977 
L 255.574184 80.814259 
L 258.653307 75.802627 
L 261.660822 69.561726 
L 261.231177 66.535835 
L 260.300279 64.455535 
L 256.863119 60.578612 
L 254.500072 58.592871 
L 254.428464 56.701689 
L 255.574184 54.054034 
L 255.216147 51.406379 
L 257.722409 48.285929 
L 259.369382 47.15122 
L 260.228672 44.692683 
L 263.952262 38.73546 
L 260.371887 35.047655 
L 259.154559 34.574859 
L 258.152054 32.4 
L 257.149549 32.778236 
L 257.149549 32.778236 
" clip-path="url(#p55aefc1230)" style="fill: none; stroke: #000000; stroke-width: 3"/>
   </g>
  </g>
 </g>
 <defs>
  <clipPath id="p55aefc1230">
   <rect x="7.2" y="7.2" width="273.404585" height="554.4"/>
  </clipPath>
 </defs>
</svg>
