<?xml version="1.0" encoding="utf-8" standalone="no"?>
<!DOCTYPE svg PUBLIC "-//W3C//DTD SVG 1.1//EN"
  "http://www.w3.org/Graphics/SVG/1.1/DTD/svg11.dtd">
<svg xmlns:xlink="http://www.w3.org/1999/xlink" width="297.8465pt" height="568.8pt" viewBox="0 0 297.8465 568.8" xmlns="http://www.w3.org/2000/svg" version="1.1">
 <metadata>
  <rdf:RDF xmlns:dc="http://purl.org/dc/elements/1.1/" xmlns:cc="http://creativecommons.org/ns#" xmlns:rdf="http://www.w3.org/1999/02/22-rdf-syntax-ns#">
   <cc:Work>
    <dc:type rdf:resource="http://purl.org/dc/dcmitype/StillImage"/>
    <dc:date>2023-09-25T14:14:38.097873</dc:date>
    <dc:format>image/svg+xml</dc:format>
    <dc:creator>
     <cc:Agent>
      <dc:title>Matplotlib v3.6.2, https://matplotlib.org/</dc:title>
     </cc:Agent>
    </dc:creator>
   </cc:Work>
  </rdf:RDF>
 </metadata>
 <defs>
  <style type="text/css">*{stroke-linejoin: round; stroke-linecap: butt}</style>
 </defs>
 <g id="figure_1">
  <g id="patch_1">
   <path d="M 0 568.8 
L 297.8465 568.8 
L 297.8465 0 
L 0 0 
z
" style="fill: #ffffff"/>
  </g>
  <g id="axes_1">
   <g id="LineCollection_1">
    <path d="M 273.020885 32.4 
L 273.020885 33.24109 
L 275.780969 35.764361 
L 277.762568 36.979269 
L 277.125626 39.128722 
L 273.516285 45.950899 
L 272.667028 46.698535 
L 269.482315 52.492713 
L 268.774602 55.202893 
L 267.996116 56.043983 
L 265.519118 56.230892 
L 262.051319 55.202893 
L 256.389608 54.268348 
L 253.558752 53.333803 
L 250.161726 53.987984 
L 248.746298 55.202893 
L 247.189327 58.473799 
L 247.189327 62.211978 
L 248.038584 63.613796 
L 250.090954 65.109067 
L 253.204895 66.230521 
L 256.814236 68.753792 
L 257.592722 71.277063 
L 257.380407 74.174152 
L 259.149692 79.594511 
L 258.725064 84.080326 
L 257.451179 86.697052 
L 253.41721 90.528685 
L 250.869439 91.837048 
L 246.34007 93.612683 
L 243.579986 96.416317 
L 241.24453 102.023586 
L 240.182959 103.238494 
L 237.564418 104.920675 
L 231.973478 106.883219 
L 228.222594 109.032672 
L 224.96711 112.864306 
L 221.782398 118.938847 
L 219.234627 124.63957 
L 218.031514 128.003931 
L 216.049915 130.714111 
L 214.422173 132.209383 
L 209.963575 135.29338 
L 208.548147 136.975561 
L 206.920405 140.246468 
L 206.708091 143.517374 
L 206.920405 148.563916 
L 206.212691 150.52646 
L 204.08955 153.143186 
L 202.60335 154.264639 
L 195.667754 157.161728 
L 191.421471 160.152271 
L 189.510643 162.021361 
L 186.609016 165.946449 
L 183.990475 171.366809 
L 183.141218 175.665715 
L 183.282761 178.562804 
L 186.396702 189.777341 
L 186.042845 192.954793 
L 184.485874 196.412609 
L 181.23039 201.178787 
L 178.824163 203.795513 
L 172.525509 208.561691 
L 170.685453 211.084962 
L 169.694653 214.16896 
L 169.906968 221.084591 
L 169.340796 224.542407 
L 167.713054 227.626405 
L 165.236056 230.336584 
L 158.371231 236.50458 
L 151.506406 245.289301 
L 149.241721 247.906026 
L 144.924666 250.990024 
L 140.253755 254.728203 
L 138.555241 256.690747 
L 137.352128 258.933655 
L 136.502871 262.111107 
L 136.573642 267.064194 
L 137.49367 276.316188 
L 137.069042 279.587094 
L 135.087443 283.792546 
L 132.185816 285.568181 
L 129.142646 286.409271 
L 127.019504 287.624179 
L 125.25022 289.399815 
L 120.579308 298.838717 
L 119.16388 302.576896 
L 118.243852 306.782347 
L 116.262253 310.894345 
L 113.785254 314.725978 
L 107.203515 320.707065 
L 100.692547 327.622696 
L 98.074005 331.267421 
L 95.880092 335.192509 
L 95.030835 338.743779 
L 95.313921 340.332505 
L 98.144777 345.565956 
L 103.098774 350.799407 
L 104.301888 352.481587 
L 104.44343 353.78995 
L 103.594174 356.219766 
L 101.612575 358.275765 
L 99.064805 363.883034 
L 94.606207 372.293937 
L 93.120008 375.471389 
L 90.855323 377.901205 
L 86.538268 384.629928 
L 81.938128 393.788467 
L 80.310386 395.93792 
L 77.196445 402.19937 
L 74.224046 407.152457 
L 71.463962 413.787725 
L 69.694677 417.338995 
L 65.660708 422.198628 
L 61.839053 429.674986 
L 60.494396 433.50662 
L 57.592769 439.487706 
L 56.885055 441.824068 
L 55.965027 442.291341 
L 54.691142 446.02952 
L 50.798716 452.384424 
L 49.595602 457.150603 
L 46.693975 460.795327 
L 45.703176 460.514964 
L 42.730777 465.094233 
L 41.598435 469.019321 
L 37.847551 474.065863 
L 37.706008 474.813499 
L 34.662838 480.327313 
L 34.308982 481.635676 
L 30.911955 486.121491 
L 28.788813 487.616762 
L 28.930356 489.112034 
L 27.373385 490.981124 
L 25.674872 494.906212 
L 22.702473 499.578936 
L 23.410187 500.606935 
L 21.923988 503.317115 
L 20.296246 505.186204 
L 20.083932 507.335657 
L 20.720874 508.550566 
L 26.807214 509.765474 
L 29.425755 511.914927 
L 31.053498 512.382199 
L 36.573666 516.494196 
L 37.989094 516.681105 
L 40.607635 518.643649 
L 43.792348 519.671648 
L 45.632404 520.699648 
L 49.949459 523.970554 
L 53.346486 526.120007 
L 56.60197 530.13855 
L 59.64514 531.353458 
L 61.555967 531.446913 
L 60.211311 535.372001 
L 58.725112 536.4 
L 52.709543 534.717819 
L 50.444859 532.474912 
L 48.038631 530.886186 
L 46.835518 531.166549 
L 45.561633 530.045095 
L 45.561633 530.045095 
" clip-path="url(#p1d7a54ee44)" style="fill: none; stroke: #000000; stroke-width: 3"/>
   </g>
  </g>
 </g>
 <defs>
  <clipPath id="p1d7a54ee44">
   <rect x="7.2" y="7.2" width="283.4465" height="554.4"/>
  </clipPath>
 </defs>
</svg>
