<?xml version="1.0" encoding="utf-8" standalone="no"?>
<!DOCTYPE svg PUBLIC "-//W3C//DTD SVG 1.1//EN"
  "http://www.w3.org/Graphics/SVG/1.1/DTD/svg11.dtd">
<svg xmlns:xlink="http://www.w3.org/1999/xlink" width="328.314578pt" height="568.8pt" viewBox="0 0 328.314578 568.8" xmlns="http://www.w3.org/2000/svg" version="1.1">
 <metadata>
  <rdf:RDF xmlns:dc="http://purl.org/dc/elements/1.1/" xmlns:cc="http://creativecommons.org/ns#" xmlns:rdf="http://www.w3.org/1999/02/22-rdf-syntax-ns#">
   <cc:Work>
    <dc:type rdf:resource="http://purl.org/dc/dcmitype/StillImage"/>
    <dc:date>2023-09-25T14:14:38.033434</dc:date>
    <dc:format>image/svg+xml</dc:format>
    <dc:creator>
     <cc:Agent>
      <dc:title>Matplotlib v3.6.2, https://matplotlib.org/</dc:title>
     </cc:Agent>
    </dc:creator>
   </cc:Work>
  </rdf:RDF>
 </metadata>
 <defs>
  <style type="text/css">*{stroke-linejoin: round; stroke-linecap: butt}</style>
 </defs>
 <g id="figure_1">
  <g id="patch_1">
   <path d="M 0 568.8 
L 328.314578 568.8 
L 328.314578 0 
L 0 0 
z
" style="fill: #ffffff"/>
  </g>
  <g id="axes_1">
   <g id="LineCollection_1">
    <path d="M 68.294067 536.4 
L 69.222006 535.363157 
L 66.795089 533.760763 
L 61.941255 533.006695 
L 59.300198 531.310043 
L 58.515019 529.04784 
L 59.442958 528.199514 
L 58.586399 526.408603 
L 60.085377 520.847354 
L 59.442958 519.716252 
L 60.085377 516.605723 
L 57.30156 515.097587 
L 54.874643 511.421507 
L 51.805307 510.101889 
L 50.092189 510.384664 
L 47.165613 508.593754 
L 45.523875 508.405237 
L 44.810076 506.425809 
L 44.024897 506.708584 
L 39.813482 505.483224 
L 39.171063 504.823415 
L 34.459988 503.409538 
L 32.104451 501.335852 
L 29.249255 500.20475 
L 28.606836 500.487526 
L 24.395421 498.41384 
L 21.468844 494.832018 
L 23.253342 491.344455 
L 24.96646 490.213353 
L 25.965779 486.065981 
L 30.462713 481.82435 
L 30.177194 480.127698 
L 32.389971 476.828652 
L 32.675491 474.095156 
L 37.672085 470.890368 
L 38.814163 468.062615 
L 40.027622 463.538208 
L 42.383159 459.108061 
L 44.952836 457.411408 
L 45.381115 453.169777 
L 48.307691 449.587956 
L 49.52115 449.022405 
L 50.377709 444.40374 
L 51.805307 441.010436 
L 54.517744 437.522873 
L 56.516381 437.428614 
L 57.94398 435.072153 
L 55.802582 432.80995 
L 62.298154 426.588891 
L 63.511613 421.687451 
L 65.010591 419.990799 
L 65.72439 417.351562 
L 68.222687 413.76974 
L 68.222687 409.622368 
L 69.293386 408.585525 
L 70.007185 406.040546 
L 72.148582 404.815186 
L 73.57618 402.930017 
L 74.432739 400.479297 
L 76.074477 398.217094 
L 76.217237 394.918048 
L 78.215875 391.619001 
L 80.999691 389.733832 
L 82.07039 388.414214 
L 81.92763 386.246269 
L 82.998329 384.266841 
L 82.28453 382.004638 
L 84.925586 378.988367 
L 88.423202 376.631906 
L 91.278399 372.1075 
L 91.635298 370.22233 
L 95.489813 365.886441 
L 96.631892 359.948158 
L 98.70191 356.931887 
L 101.699866 355.895044 
L 104.769202 357.120404 
L 106.05404 353.444324 
L 106.76784 349.579727 
L 108.909237 347.317524 
L 112.977892 346.092164 
L 114.119971 344.395512 
L 115.833088 343.358668 
L 118.616905 343.735702 
L 118.902425 346.469198 
L 122.68556 351.464896 
L 124.969717 353.632841 
L 134.106346 358.534281 
L 135.748084 358.817056 
L 141.601237 359.005573 
L 144.099534 355.046718 
L 145.384372 351.936189 
L 145.955411 349.014176 
L 146.95473 348.354367 
L 149.453027 342.321825 
L 152.736503 338.080195 
L 155.44894 335.346699 
L 158.661036 333.838564 
L 160.731053 333.46153 
L 164.300049 333.744305 
L 167.869045 336.477801 
L 170.795621 337.043351 
L 174.507376 335.535216 
L 177.933612 333.367271 
L 178.718791 331.482102 
L 179.50397 331.482102 
L 180.503289 327.428988 
L 183.215726 323.65865 
L 184.643324 322.244773 
L 189.711298 318.851468 
L 192.209595 318.003142 
L 193.066154 316.023714 
L 195.421691 312.441893 
L 196.563769 303.204563 
L 194.565132 297.831831 
L 194.350992 294.81556 
L 194.850651 291.705031 
L 198.562407 287.369142 
L 201.845883 284.918422 
L 205.272119 282.844735 
L 207.556276 280.016981 
L 207.984555 278.131812 
L 207.556276 275.963868 
L 208.055935 271.439461 
L 209.769053 266.255246 
L 210.268712 261.165289 
L 211.196651 259.939929 
L 213.052529 255.886815 
L 215.764966 251.833701 
L 219.333961 248.723172 
L 220.33328 246.36671 
L 221.618118 245.706901 
L 223.188477 242.69063 
L 224.544695 241.182495 
L 224.901594 239.297326 
L 225.972293 237.694932 
L 226.686092 235.244212 
L 228.898869 231.850907 
L 231.539926 226.289658 
L 234.395123 224.687264 
L 235.037542 225.158556 
L 237.250319 224.31023 
L 240.391035 222.330802 
L 243.817271 223.273387 
L 247.100747 224.781522 
L 251.026642 224.875781 
L 254.881158 221.85951 
L 257.379454 218.748981 
L 257.450834 217.617879 
L 260.163271 213.376248 
L 263.589507 206.495381 
L 264.945725 204.610211 
L 267.729542 198.294894 
L 271.155778 193.487713 
L 272.083716 191.414027 
L 273.868214 189.434599 
L 275.295812 185.381485 
L 280.363786 176.332673 
L 281.220345 172.656592 
L 280.934826 167.472377 
L 281.577245 162.476679 
L 281.791384 158.140789 
L 281.577245 155.218777 
L 278.436529 149.469011 
L 279.721367 144.284795 
L 281.577245 139.760389 
L 285.14624 133.916364 
L 287.287638 132.408229 
L 290.713874 128.355115 
L 292.783891 126.752721 
L 294.497009 123.830709 
L 295.210808 121.097213 
L 295.068048 112.142659 
L 295.353568 108.843613 
L 297.494965 101.962745 
L 298.565664 100.077576 
L 301.206721 98.569441 
L 303.062598 96.401496 
L 304.418817 95.930204 
L 306.060555 93.856518 
L 306.845734 90.745988 
L 305.632275 88.20101 
L 303.705018 87.635459 
L 300.136022 87.541201 
L 297.280825 89.42637 
L 293.64045 90.557471 
L 291.855952 90.086179 
L 290.214214 88.578044 
L 290.428354 85.938807 
L 291.570432 85.184739 
L 296.567026 79.152197 
L 298.137384 75.853151 
L 299.350843 71.988554 
L 300.207402 70.480419 
L 300.350162 67.746924 
L 298.922563 63.69381 
L 297.494965 61.80864 
L 292.998031 58.603853 
L 292.284232 57.001459 
L 293.997349 54.739256 
L 294.996668 52.194277 
L 296.852546 49.55504 
L 297.780485 47.198579 
L 299.422223 44.747859 
L 299.779122 42.862689 
L 301.42086 39.092351 
L 302.562939 38.244025 
L 299.993262 36.07608 
L 298.066004 35.133495 
L 295.853227 33.154068 
L 296.067367 32.4 
L 296.067367 32.4 
" clip-path="url(#p5848e4a851)" style="fill: none; stroke: #000000; stroke-width: 3"/>
   </g>
  </g>
 </g>
 <defs>
  <clipPath id="p5848e4a851">
   <rect x="7.2" y="7.2" width="313.914578" height="554.4"/>
  </clipPath>
 </defs>
</svg>
