<?xml version="1.0" encoding="utf-8" standalone="no"?>
<!DOCTYPE svg PUBLIC "-//W3C//DTD SVG 1.1//EN"
  "http://www.w3.org/Graphics/SVG/1.1/DTD/svg11.dtd">
<svg xmlns:xlink="http://www.w3.org/1999/xlink" width="288.962059pt" height="568.8pt" viewBox="0 0 288.962059 568.8" xmlns="http://www.w3.org/2000/svg" version="1.1">
 <metadata>
  <rdf:RDF xmlns:dc="http://purl.org/dc/elements/1.1/" xmlns:cc="http://creativecommons.org/ns#" xmlns:rdf="http://www.w3.org/1999/02/22-rdf-syntax-ns#">
   <cc:Work>
    <dc:type rdf:resource="http://purl.org/dc/dcmitype/StillImage"/>
    <dc:date>2023-09-25T14:14:37.669354</dc:date>
    <dc:format>image/svg+xml</dc:format>
    <dc:creator>
     <cc:Agent>
      <dc:title>Matplotlib v3.6.2, https://matplotlib.org/</dc:title>
     </cc:Agent>
    </dc:creator>
   </cc:Work>
  </rdf:RDF>
 </metadata>
 <defs>
  <style type="text/css">*{stroke-linejoin: round; stroke-linecap: butt}</style>
 </defs>
 <g id="figure_1">
  <g id="patch_1">
   <path d="M 0 568.8 
L 288.962059 568.8 
L 288.962059 0 
L 0 0 
z
" style="fill: #ffffff"/>
  </g>
  <g id="axes_1">
   <g id="LineCollection_1">
    <path d="M 34.282555 533.753338 
L 33.78149 535.643811 
L 28.269777 536.4 
L 26.050775 535.738335 
L 24.476 534.036909 
L 20.896965 532.808102 
L 19.894836 532.051913 
L 20.3959 526.475019 
L 19.680094 525.435259 
L 20.968546 524.300975 
L 22.614902 521.748837 
L 25.191807 518.818605 
L 27.62555 513.336234 
L 32.564618 505.301725 
L 34.139393 501.993398 
L 36.85946 498.968642 
L 36.787879 497.456264 
L 38.434235 496.605551 
L 39.651107 491.028657 
L 42.299592 486.775094 
L 43.731206 483.183196 
L 45.807046 480.914629 
L 46.737595 477.889872 
L 48.026047 477.133683 
L 50.746114 472.596549 
L 50.889275 471.556789 
L 54.53989 464.940135 
L 55.255697 461.915379 
L 56.687311 459.174194 
L 58.405248 458.134434 
L 59.836862 455.204201 
L 62.199024 451.328732 
L 63.916961 449.627307 
L 64.060122 447.925881 
L 67.567576 443.105176 
L 68.784448 440.174944 
L 71.07503 436.772093 
L 71.576095 434.787097 
L 73.795096 431.006152 
L 74.367742 428.170443 
L 78.161519 422.309977 
L 77.946776 421.837359 
L 79.736294 419.379745 
L 81.096327 415.693323 
L 83.243748 412.952138 
L 84.102716 410.872618 
L 86.679621 407.469767 
L 86.965944 403.499775 
L 87.681751 401.609302 
L 89.972333 400.002401 
L 91.260785 396.788597 
L 93.694529 393.574794 
L 96.271434 388.848612 
L 99.420984 384.122431 
L 99.635726 382.893623 
L 102.642115 378.356489 
L 104.14531 375.237209 
L 105.576923 373.346737 
L 105.075859 370.794599 
L 101.926308 368.242461 
L 100.279952 366.162941 
L 99.922049 364.83961 
L 100.279952 361.814854 
L 101.138921 360.68057 
L 104.574794 357.750338 
L 105.934827 355.954389 
L 107.724344 351.133683 
L 110.37283 345.651313 
L 111.589701 342.248462 
L 114.596091 338.372993 
L 117.530899 335.348237 
L 121.324676 333.835859 
L 124.760549 334.11943 
L 129.985939 337.049662 
L 131.990199 337.522281 
L 134.638684 337.144186 
L 138.289299 334.970143 
L 140.365139 332.607052 
L 141.868334 329.865866 
L 142.798883 326.746587 
L 144.087335 324.76159 
L 147.881112 321.547787 
L 151.81805 319.090173 
L 154.681278 316.538035 
L 156.327634 312.851613 
L 157.902409 307.84186 
L 158.260312 304.344486 
L 156.256053 298.956639 
L 156.041311 293.946887 
L 157.329763 291.300225 
L 160.765637 287.141185 
L 162.698315 285.43976 
L 166.921576 283.076669 
L 168.925835 281.375244 
L 169.784804 279.484771 
L 169.713223 272.962641 
L 170.786933 269.748837 
L 173.077516 261.525281 
L 176.65655 253.963391 
L 179.877681 249.426257 
L 183.027232 246.117929 
L 186.319943 240.824606 
L 188.395784 236.098425 
L 191.903237 229.765341 
L 194.623304 226.835109 
L 198.846564 224.755589 
L 203.141406 223.526782 
L 210.227894 224.282971 
L 213.162703 223.9994 
L 215.882769 222.487022 
L 219.032319 218.895124 
L 223.327161 210.482521 
L 224.25771 208.213953 
L 228.337809 201.030158 
L 231.55894 194.980645 
L 234.350587 190.443511 
L 239.289655 181.652813 
L 241.723399 176.926632 
L 243.011851 172.294974 
L 243.155013 164.827607 
L 243.9424 158.683571 
L 242.86869 154.335484 
L 240.86443 150.649062 
L 240.649688 147.340735 
L 241.580237 143.937884 
L 246.089821 136.565041 
L 248.881468 133.067667 
L 254.464762 127.112678 
L 256.32586 124.56054 
L 257.256409 122.197449 
L 257.471151 119.928882 
L 256.612183 114.541035 
L 257.471151 111.516279 
L 258.688023 104.994149 
L 259.618572 102.347487 
L 261.408089 99.511778 
L 263.55551 97.621305 
L 267.492448 95.069167 
L 268.566158 93.84036 
L 269.281965 91.382746 
L 268.7809 89.68132 
L 267.564028 88.263466 
L 265.989253 87.6018 
L 263.984994 87.696324 
L 261.336508 89.019655 
L 257.972216 91.288222 
L 255.037407 91.382746 
L 253.319471 90.153938 
L 252.532083 87.6018 
L 253.104729 85.994899 
L 256.898505 80.985146 
L 260.191217 75.691823 
L 261.909154 71.816354 
L 262.338638 69.35874 
L 262.267057 66.23946 
L 261.121766 63.403751 
L 259.045926 61.04066 
L 255.824795 58.583046 
L 255.180569 57.259715 
L 256.540602 54.802101 
L 257.39957 51.871868 
L 262.768122 41.852363 
L 265.058704 37.976894 
L 264.557639 36.653563 
L 258.258538 33.43976 
L 258.974345 32.4 
L 258.974345 32.4 
" clip-path="url(#pf2144e0c40)" style="fill: none; stroke: #000000; stroke-width: 3"/>
   </g>
  </g>
 </g>
 <defs>
  <clipPath id="pf2144e0c40">
   <rect x="7.2" y="7.2" width="274.562059" height="554.4"/>
  </clipPath>
 </defs>
</svg>
