<?xml version="1.0" encoding="utf-8" standalone="no"?>
<!DOCTYPE svg PUBLIC "-//W3C//DTD SVG 1.1//EN"
  "http://www.w3.org/Graphics/SVG/1.1/DTD/svg11.dtd">
<svg xmlns:xlink="http://www.w3.org/1999/xlink" width="296.485519pt" height="568.8pt" viewBox="0 0 296.485519 568.8" xmlns="http://www.w3.org/2000/svg" version="1.1">
 <metadata>
  <rdf:RDF xmlns:dc="http://purl.org/dc/elements/1.1/" xmlns:cc="http://creativecommons.org/ns#" xmlns:rdf="http://www.w3.org/1999/02/22-rdf-syntax-ns#">
   <cc:Work>
    <dc:type rdf:resource="http://purl.org/dc/dcmitype/StillImage"/>
    <dc:date>2023-09-25T14:14:37.610524</dc:date>
    <dc:format>image/svg+xml</dc:format>
    <dc:creator>
     <cc:Agent>
      <dc:title>Matplotlib v3.6.2, https://matplotlib.org/</dc:title>
     </cc:Agent>
    </dc:creator>
   </cc:Work>
  </rdf:RDF>
 </metadata>
 <defs>
  <style type="text/css">*{stroke-linejoin: round; stroke-linecap: butt}</style>
 </defs>
 <g id="figure_1">
  <g id="patch_1">
   <path d="M -0 568.8 
L 296.485519 568.8 
L 296.485519 0 
L -0 0 
z
" style="fill: #ffffff"/>
  </g>
  <g id="axes_1">
   <g id="LineCollection_1">
    <path d="M 269.142587 33.887274 
L 269.846516 32.4 
L 272.521447 35.188639 
L 276.252271 37.047731 
L 276.46345 37.698414 
L 274.77402 41.23069 
L 273.225376 43.461601 
L 268.790623 51.734563 
L 267.453157 55.173884 
L 265.83412 56.847068 
L 263.370368 56.661158 
L 258.58365 55.359793 
L 256.40147 55.359793 
L 253.374575 54.244338 
L 249.151 54.616156 
L 246.616855 57.404795 
L 245.560961 60.844117 
L 242.886031 62.796164 
L 240.422279 66.235485 
L 238.732849 67.815714 
L 236.902633 68.280487 
L 233.875738 69.860716 
L 230.426485 75.623903 
L 229.08902 78.319587 
L 225.358195 84.454592 
L 224.091123 87.522095 
L 218.178118 97.747104 
L 217.544582 98.118923 
L 214.799259 102.6737 
L 211.842756 109.087569 
L 207.83036 116.245076 
L 205.296215 121.171671 
L 202.128534 126.655994 
L 201.635784 127.957359 
L 198.045745 134.371228 
L 195.300422 138.554187 
L 191.569597 144.782147 
L 190.936061 146.827149 
L 185.234235 156.122612 
L 180.799482 164.860347 
L 175.238442 174.806492 
L 173.478619 177.502176 
L 170.803688 183.079454 
L 168.832687 186.239911 
L 165.172255 193.490373 
L 163.412432 196.279011 
L 162.215753 199.06765 
L 160.103965 202.414017 
L 156.513927 209.478569 
L 154.190961 212.546072 
L 150.882494 219.238805 
L 149.052278 222.213353 
L 141.309058 236.714275 
L 139.056484 240.525415 
L 126.174581 263.299299 
L 125.681831 264.693619 
L 123.077293 268.783622 
L 123.499651 271.293397 
L 126.244974 273.059535 
L 126.38576 275.011582 
L 125.681831 277.056584 
L 125.89301 282.354998 
L 126.596939 285.980229 
L 124.907509 288.397049 
L 122.373364 293.416599 
L 119.698433 299.644559 
L 118.783326 303.08388 
L 116.530752 309.125931 
L 115.122894 311.635706 
L 112.236785 315.632755 
L 105.83103 320.931169 
L 101.677848 325.021173 
L 98.721345 328.553449 
L 95.553664 334.037772 
L 94.779342 336.268683 
L 94.920128 339.243231 
L 98.087809 345.192328 
L 99.56606 346.772556 
L 102.592956 349.003467 
L 104.1416 350.86256 
L 104.000814 351.978015 
L 101.677848 355.975065 
L 100.551561 359.50734 
L 98.510167 363.690299 
L 97.665452 363.876208 
L 94.920128 368.33803 
L 95.272093 369.081667 
L 90.978125 372.613943 
L 89.781446 374.380081 
L 86.2618 384.791 
L 84.361191 386.278274 
L 83.868441 388.695094 
L 81.756654 393.063962 
L 81.19351 395.759646 
L 80.067224 397.061011 
L 79.574473 399.106013 
L 76.758757 403.288971 
L 76.195613 405.148063 
L 74.013433 406.449428 
L 73.027932 408.029657 
L 70.56418 413.885799 
L 68.100428 417.789893 
L 67.185321 420.485577 
L 65.847855 422.623534 
L 63.102532 424.854445 
L 62.32821 427.828993 
L 59.723672 432.848543 
L 57.823063 435.916046 
L 56.204026 439.913095 
L 54.866561 441.958097 
L 54.514596 443.817189 
L 52.262023 447.163556 
L 48.742377 451.625378 
L 48.179234 453.763335 
L 45.785875 457.946293 
L 45.574696 459.433567 
L 43.955659 461.29266 
L 41.632693 465.847436 
L 41.351122 468.078347 
L 40.224835 469.193803 
L 39.309727 471.424714 
L 35.438117 476.816083 
L 34.452616 479.232903 
L 32.552008 480.348359 
L 32.481615 482.114496 
L 29.173148 486.2045 
L 29.102755 487.784729 
L 26.779789 490.759277 
L 25.653502 494.198598 
L 22.626607 498.381557 
L 22.837786 499.218148 
L 20.022069 504.423608 
L 20.233248 506.189745 
L 23.682501 508.420657 
L 26.990967 511.116341 
L 31.496114 512.324751 
L 33.959866 514.369753 
L 38.183441 515.485208 
L 41.139943 517.344301 
L 43.181337 519.203394 
L 44.237231 519.203394 
L 48.038448 520.969532 
L 51.346915 523.386352 
L 55.992847 525.989082 
L 59.301314 528.684766 
L 61.272316 528.96363 
L 61.694673 529.800221 
L 57.823063 536.4 
L 55.57049 533.98318 
L 52.965952 532.031132 
L 51.628487 530.079085 
L 49.094342 527.476356 
L 49.094342 527.476356 
" clip-path="url(#pa8d825dce3)" style="fill: none; stroke: #000000; stroke-width: 3"/>
   </g>
  </g>
 </g>
 <defs>
  <clipPath id="pa8d825dce3">
   <rect x="7.2" y="7.2" width="282.085519" height="554.4"/>
  </clipPath>
 </defs>
</svg>
