<?xml version="1.0" encoding="utf-8" standalone="no"?>
<!DOCTYPE svg PUBLIC "-//W3C//DTD SVG 1.1//EN"
  "http://www.w3.org/Graphics/SVG/1.1/DTD/svg11.dtd">
<svg xmlns:xlink="http://www.w3.org/1999/xlink" width="281.329984pt" height="568.8pt" viewBox="0 0 281.329984 568.8" xmlns="http://www.w3.org/2000/svg" version="1.1">
 <metadata>
  <rdf:RDF xmlns:dc="http://purl.org/dc/elements/1.1/" xmlns:cc="http://creativecommons.org/ns#" xmlns:rdf="http://www.w3.org/1999/02/22-rdf-syntax-ns#">
   <cc:Work>
    <dc:type rdf:resource="http://purl.org/dc/dcmitype/StillImage"/>
    <dc:date>2023-09-25T14:14:37.104148</dc:date>
    <dc:format>image/svg+xml</dc:format>
    <dc:creator>
     <cc:Agent>
      <dc:title>Matplotlib v3.6.2, https://matplotlib.org/</dc:title>
     </cc:Agent>
    </dc:creator>
   </cc:Work>
  </rdf:RDF>
 </metadata>
 <defs>
  <style type="text/css">*{stroke-linejoin: round; stroke-linecap: butt}</style>
 </defs>
 <g id="figure_1">
  <g id="patch_1">
   <path d="M 0 568.8 
L 281.329984 568.8 
L 281.329984 0 
L 0 0 
z
" style="fill: #ffffff"/>
  </g>
  <g id="axes_1">
   <g id="LineCollection_1">
    <path d="M 28.114901 536.4 
L 25.576435 535.222218 
L 23.381005 535.403415 
L 22.214683 534.859824 
L 19.333181 532.141866 
L 19.539003 529.695704 
L 20.430896 529.333309 
L 21.254182 525.43757 
L 20.911146 523.172605 
L 22.28329 520.998238 
L 21.940254 518.914471 
L 23.655434 519.095668 
L 25.71365 517.193097 
L 26.125293 515.018731 
L 27.90908 513.025562 
L 28.732366 510.217005 
L 30.310331 510.035808 
L 34.289548 503.784505 
L 34.083726 500.794751 
L 35.044227 498.439187 
L 38.817622 496.35542 
L 40.807231 493.546863 
L 40.121159 492.731476 
L 44.23759 486.02718 
L 44.786448 482.13144 
L 46.570235 481.406651 
L 50.34363 474.974151 
L 50.412237 472.709186 
L 53.773989 469.447636 
L 53.636775 468.722847 
L 56.44967 467.454467 
L 56.586884 466.095488 
L 57.615992 466.276685 
L 57.959028 464.01172 
L 59.742815 459.119396 
L 61.183565 458.757002 
L 62.28128 459.48179 
L 60.634708 457.126227 
L 61.32078 456.220241 
L 63.03596 451.871508 
L 64.613925 448.791156 
L 67.152391 447.522775 
L 67.289605 445.710804 
L 69.553642 442.539853 
L 69.485035 439.731296 
L 72.915395 434.385979 
L 74.699181 432.936401 
L 78.060934 428.406471 
L 80.805221 422.336365 
L 81.834329 420.977386 
L 85.813546 419.799605 
L 86.087975 415.813266 
L 88.077583 414.27309 
L 89.175298 414.091893 
L 89.724156 409.74316 
L 92.742872 403.94485 
L 95.692981 400.320906 
L 95.692981 396.696962 
L 96.516267 392.710624 
L 96.379053 391.261046 
L 97.408161 389.992666 
L 98.711697 385.100342 
L 100.83852 379.483228 
L 99.740805 377.127665 
L 97.065125 375.949883 
L 95.555766 374.409707 
L 94.869695 371.872946 
L 95.075516 369.336186 
L 96.584874 367.161819 
L 98.986126 365.078051 
L 100.701306 361.816502 
L 101.730413 360.729319 
L 103.03395 356.471185 
L 104.680522 353.662628 
L 104.817737 352.122452 
L 107.973667 346.958332 
L 111.81567 343.153191 
L 115.040208 341.975409 
L 116.549566 341.975409 
L 120.871819 344.51217 
L 123.959142 345.418156 
L 128.350002 344.421571 
L 130.751254 342.700198 
L 133.426934 339.98224 
L 134.936292 337.898472 
L 137.268936 333.187345 
L 143.237762 327.751429 
L 146.325085 326.030056 
L 149.755445 319.597555 
L 150.510124 316.426604 
L 150.441516 314.252238 
L 149.686837 310.718893 
L 148.65773 308.363329 
L 148.589122 304.739385 
L 150.098481 300.481251 
L 152.088089 298.216286 
L 154.832376 296.223117 
L 156.478949 295.679525 
L 160.732595 291.783786 
L 161.007023 287.525652 
L 162.036131 284.898292 
L 162.241953 282.45213 
L 163.408275 277.9222 
L 164.162954 276.925616 
L 164.162954 273.482869 
L 165.466491 271.217904 
L 167.867742 265.057199 
L 171.09228 261.433255 
L 174.454032 258.443502 
L 176.786676 254.910156 
L 178.296035 251.648607 
L 180.971715 244.672515 
L 182.892716 241.682761 
L 185.088146 239.417796 
L 189.341792 236.971634 
L 191.743043 236.699838 
L 193.664045 235.884451 
L 197.780476 237.062233 
L 202.30855 236.790437 
L 205.121445 236.156247 
L 206.69941 234.706669 
L 209.992555 229.361352 
L 211.707735 227.730577 
L 213.697343 223.472443 
L 215.275309 220.845084 
L 217.333524 216.133956 
L 220.558062 210.335646 
L 221.724384 208.886069 
L 223.30235 205.805716 
L 223.439564 204.356139 
L 224.811708 200.732195 
L 226.526887 198.739026 
L 227.967638 196.292864 
L 229.476996 195.115082 
L 230.780533 191.853532 
L 231.946855 187.685997 
L 232.427106 180.891102 
L 232.221284 179.985116 
L 232.838749 176.270573 
L 232.221284 171.106453 
L 231.192176 169.113284 
L 228.928139 165.942333 
L 228.516496 163.496171 
L 230.36889 160.32522 
L 232.427106 155.523495 
L 235.788858 150.993565 
L 236.543537 150.449973 
L 238.944788 146.826029 
L 242.169326 143.926874 
L 245.188042 140.031134 
L 245.462471 135.410606 
L 245.188042 133.145641 
L 245.599686 129.521697 
L 245.325257 128.525112 
L 246.011329 122.545605 
L 247.863723 118.196872 
L 249.990546 115.75071 
L 254.655834 112.760956 
L 256.508228 110.042998 
L 256.645443 108.231026 
L 255.959371 107.415639 
L 251.774332 105.42247 
L 248.961438 106.509653 
L 247.040436 107.959231 
L 243.884506 109.590005 
L 240.248325 108.140428 
L 239.493646 107.143843 
L 239.973896 104.78828 
L 243.54147 102.704512 
L 245.119435 100.801941 
L 246.560186 97.63099 
L 248.824223 93.916448 
L 250.470796 88.480532 
L 250.333581 86.849757 
L 248.687009 83.678806 
L 246.628793 80.598454 
L 243.198434 77.518102 
L 242.786791 76.159123 
L 243.335648 74.618947 
L 245.393864 71.447996 
L 245.25665 70.723207 
L 250.12776 64.562502 
L 253.558119 59.670178 
L 254.930263 56.227431 
L 255.753549 55.68384 
L 257.537336 51.969297 
L 259.595552 48.435952 
L 260.144409 45.899191 
L 261.859589 42.818839 
L 261.996803 40.644472 
L 260.693267 38.651303 
L 258.360622 37.835916 
L 256.165192 35.842747 
L 255.204692 35.752148 
L 251.84294 32.4 
L 250.951046 33.577782 
L 252.185976 35.027359 
L 255.684942 37.382923 
L 258.42923 38.470106 
L 260.830481 40.82567 
L 257.743158 45.446198 
L 254.724441 51.244508 
L 252.117368 55.774438 
L 250.951046 56.771023 
L 248.206759 55.412044 
L 246.148543 53.871868 
L 246.21715 54.959051 
L 246.21715 54.959051 
" clip-path="url(#p51ef3187de)" style="fill: none; stroke: #000000; stroke-width: 3"/>
   </g>
  </g>
 </g>
 <defs>
  <clipPath id="p51ef3187de">
   <rect x="7.2" y="7.2" width="266.929984" height="554.4"/>
  </clipPath>
 </defs>
</svg>
