<?xml version="1.0" encoding="utf-8" standalone="no"?>
<!DOCTYPE svg PUBLIC "-//W3C//DTD SVG 1.1//EN"
  "http://www.w3.org/Graphics/SVG/1.1/DTD/svg11.dtd">
<svg xmlns:xlink="http://www.w3.org/1999/xlink" width="275.833005pt" height="568.8pt" viewBox="0 0 275.833005 568.8" xmlns="http://www.w3.org/2000/svg" version="1.1">
 <metadata>
  <rdf:RDF xmlns:dc="http://purl.org/dc/elements/1.1/" xmlns:cc="http://creativecommons.org/ns#" xmlns:rdf="http://www.w3.org/1999/02/22-rdf-syntax-ns#">
   <cc:Work>
    <dc:type rdf:resource="http://purl.org/dc/dcmitype/StillImage"/>
    <dc:date>2023-09-25T14:14:36.979964</dc:date>
    <dc:format>image/svg+xml</dc:format>
    <dc:creator>
     <cc:Agent>
      <dc:title>Matplotlib v3.6.2, https://matplotlib.org/</dc:title>
     </cc:Agent>
    </dc:creator>
   </cc:Work>
  </rdf:RDF>
 </metadata>
 <defs>
  <style type="text/css">*{stroke-linejoin: round; stroke-linecap: butt}</style>
 </defs>
 <g id="figure_1">
  <g id="patch_1">
   <path d="M 0 568.8 
L 275.833005 568.8 
L 275.833005 0 
L 0 0 
z
" style="fill: #ffffff"/>
  </g>
  <g id="axes_1">
   <g id="LineCollection_1">
    <path d="M 30.023082 533.420423 
L 31.253806 534.142745 
L 30.228203 536.4 
L 26.125791 535.858259 
L 19.083318 532.517521 
L 19.151692 530.892297 
L 20.177295 527.732139 
L 21.955006 524.662272 
L 23.18573 523.488499 
L 23.459224 521.863275 
L 25.442056 518.071086 
L 26.194165 515.90412 
L 29.886335 510.035256 
L 32.279408 506.875099 
L 34.330614 503.53436 
L 36.313446 499.471301 
L 36.723687 497.846077 
L 37.612543 497.575206 
L 39.458628 493.150985 
L 42.603811 488.636474 
L 43.492666 486.108348 
L 47.25321 480.600645 
L 49.304416 478.43368 
L 50.261645 475.273522 
L 52.244477 473.196847 
L 53.201707 471.571623 
L 53.338454 469.765819 
L 54.22731 468.682336 
L 55.184539 465.341598 
L 57.440865 461.820279 
L 57.509239 460.285346 
L 59.355324 459.382444 
L 59.492071 457.305769 
L 63.047494 454.867933 
L 61.543277 454.958223 
L 58.739962 453.062128 
L 59.697191 450.172841 
L 63.867976 443.491365 
L 66.46617 441.595271 
L 66.944785 439.518595 
L 69.201111 435.816697 
L 69.474605 433.19828 
L 70.773702 430.038123 
L 73.371896 429.857542 
L 74.465872 425.433321 
L 73.918884 424.440129 
L 75.97009 423.176066 
L 75.833343 422.363454 
L 77.611055 420.106198 
L 78.978525 421.370262 
L 80.140875 416.49459 
L 82.123707 413.063561 
L 83.901419 411.167467 
L 84.51678 409.361662 
L 83.627925 408.45876 
L 84.448407 406.652956 
L 88.619192 403.492798 
L 89.302927 403.492798 
L 92.037868 398.436546 
L 95.114677 394.734647 
L 94.97793 392.025941 
L 97.097509 388.233751 
L 97.917991 385.434755 
L 99.627329 381.552275 
L 100.858053 381.100824 
L 100.9948 379.024149 
L 100.174317 377.760086 
L 97.576123 375.773701 
L 94.772809 370.98832 
L 96.071906 370.446578 
L 96.482147 368.911645 
L 100.447811 365.932067 
L 101.610161 361.417556 
L 105.028838 356.090434 
L 107.285164 348.776926 
L 108.652634 346.700251 
L 112.139684 343.269223 
L 113.712275 342.18574 
L 117.199325 342.27603 
L 119.797519 342.817771 
L 121.301736 344.262415 
L 124.036677 345.977929 
L 127.5921 346.2488 
L 131.284271 344.623576 
L 133.198729 342.546901 
L 133.130356 341.282838 
L 137.301141 334.962522 
L 138.600238 333.96933 
L 141.95054 329.183948 
L 145.027349 327.829595 
L 147.557169 325.57234 
L 148.92464 323.766535 
L 150.497231 319.613185 
L 152.001448 317.175349 
L 151.864701 315.369545 
L 149.676748 309.410391 
L 149.950243 308.056037 
L 149.266507 306.069652 
L 152.069822 299.929918 
L 155.488498 296.137728 
L 160.069524 293.609602 
L 161.642115 290.630025 
L 161.778862 288.73393 
L 161.231874 285.844643 
L 162.12073 281.420423 
L 162.872838 280.878681 
L 163.693321 277.628234 
L 164.240309 277.357363 
L 165.265912 272.842852 
L 166.359888 270.946757 
L 167.658985 267.515729 
L 168.479467 266.793407 
L 170.325553 263.001218 
L 172.376758 261.195414 
L 174.564711 258.035256 
L 176.547543 256.590613 
L 178.188508 252.979004 
L 178.803869 250.631458 
L 183.111401 243.317951 
L 186.461704 240.067503 
L 188.786404 238.442279 
L 193.36743 237.178216 
L 196.717733 237.449086 
L 199.247553 238.261698 
L 203.555085 237.539377 
L 206.426773 235.643282 
L 208.956593 231.219061 
L 210.460811 230.045288 
L 211.691534 226.70455 
L 213.127378 225.079326 
L 215.588825 219.932784 
L 216.614428 218.939592 
L 218.050272 214.06392 
L 219.827984 211.806664 
L 220.853586 211.535794 
L 222.015936 208.646507 
L 222.699672 208.104765 
L 223.930395 205.034898 
L 228.784915 197.269939 
L 230.699374 193.206879 
L 232.135218 189.053529 
L 231.861724 187.699176 
L 232.545459 185.44192 
L 231.861724 182.642924 
L 233.160821 175.871157 
L 232.135218 171.085776 
L 229.46865 166.300394 
L 229.331903 164.76546 
L 230.084012 162.327625 
L 232.613833 158.083984 
L 233.434315 155.826729 
L 235.964135 152.3957 
L 238.152088 150.409316 
L 240.476788 146.707417 
L 243.963837 143.547259 
L 245.536428 140.206521 
L 246.15179 137.136654 
L 245.262934 133.525045 
L 246.083417 128.197922 
L 245.878296 126.121247 
L 246.903899 124.496023 
L 247.519261 121.606736 
L 249.63884 118.446578 
L 253.741251 115.01555 
L 256.749686 111.765102 
L 256.681313 109.146686 
L 254.971975 108.063203 
L 252.305407 107.340881 
L 249.365346 107.792332 
L 244.305705 111.223361 
L 241.844258 110.049588 
L 241.570764 107.882623 
L 242.049379 106.347689 
L 244.237332 104.090434 
L 248.544863 97.138087 
L 250.322575 89.373128 
L 250.390949 86.664421 
L 247.245767 81.96933 
L 245.126187 80.705267 
L 243.690343 77.003368 
L 241.160523 74.746113 
L 240.408414 72.488857 
L 237.946967 71.676245 
L 235.143653 70.231602 
L 233.434315 68.516087 
L 231.79335 68.064636 
L 230.836121 66.981154 
L 228.306301 65.987961 
L 225.844854 63.550125 
L 222.357804 64.001576 
L 220.716839 63.459835 
L 219.896357 62.195772 
L 218.39214 61.924901 
L 215.383705 59.125905 
L 218.187019 55.062845 
L 219.212622 54.340523 
L 219.55449 51.722107 
L 220.990334 49.193981 
L 221.605695 44.95034 
L 222.152683 44.408599 
L 220.306598 40.887281 
L 220.306598 36.37277 
L 221.400575 34.386385 
L 221.605695 32.4 
L 221.605695 32.4 
" clip-path="url(#p699a8c9ab2)" style="fill: none; stroke: #000000; stroke-width: 3"/>
   </g>
  </g>
 </g>
 <defs>
  <clipPath id="p699a8c9ab2">
   <rect x="7.2" y="7.2" width="261.433005" height="554.4"/>
  </clipPath>
 </defs>
</svg>
