<?xml version="1.0" encoding="utf-8" standalone="no"?>
<!DOCTYPE svg PUBLIC "-//W3C//DTD SVG 1.1//EN"
  "http://www.w3.org/Graphics/SVG/1.1/DTD/svg11.dtd">
<svg xmlns:xlink="http://www.w3.org/1999/xlink" width="297.496628pt" height="568.8pt" viewBox="0 0 297.496628 568.8" xmlns="http://www.w3.org/2000/svg" version="1.1">
 <metadata>
  <rdf:RDF xmlns:dc="http://purl.org/dc/elements/1.1/" xmlns:cc="http://creativecommons.org/ns#" xmlns:rdf="http://www.w3.org/1999/02/22-rdf-syntax-ns#">
   <cc:Work>
    <dc:type rdf:resource="http://purl.org/dc/dcmitype/StillImage"/>
    <dc:date>2023-09-25T14:14:37.044023</dc:date>
    <dc:format>image/svg+xml</dc:format>
    <dc:creator>
     <cc:Agent>
      <dc:title>Matplotlib v3.6.2, https://matplotlib.org/</dc:title>
     </cc:Agent>
    </dc:creator>
   </cc:Work>
  </rdf:RDF>
 </metadata>
 <defs>
  <style type="text/css">*{stroke-linejoin: round; stroke-linecap: butt}</style>
 </defs>
 <g id="figure_1">
  <g id="patch_1">
   <path d="M -0 568.8 
L 297.496628 568.8 
L 297.496628 0 
L -0 0 
z
" style="fill: #ffffff"/>
  </g>
  <g id="axes_1">
   <g id="LineCollection_1">
    <path d="M 272.563427 32.4 
L 272.210879 32.679328 
L 274.396681 34.913948 
L 274.46719 36.031258 
L 276.794012 37.148568 
L 277.4286 38.07966 
L 276.300444 40.966045 
L 272.774957 48.694107 
L 269.460999 53.722003 
L 267.768765 58.191243 
L 265.865002 58.470571 
L 259.942183 57.073933 
L 258.03842 57.073933 
L 252.186111 55.677295 
L 249.083682 56.980824 
L 248.026036 58.377462 
L 247.109409 61.729392 
L 247.532468 64.522668 
L 249.013172 66.664179 
L 252.961718 68.340144 
L 256.205166 70.295437 
L 257.333322 72.064511 
L 257.192303 75.788879 
L 257.474342 78.302827 
L 258.320459 80.444338 
L 258.673007 85.099797 
L 257.262813 88.637946 
L 256.205166 90.220802 
L 251.904072 93.665841 
L 250.282348 94.596933 
L 245.699214 96.08668 
L 242.667295 99.624829 
L 240.834042 104.280288 
L 239.846905 105.397598 
L 236.885496 107.259782 
L 230.25758 110.146167 
L 227.648719 112.194569 
L 224.82833 115.639608 
L 221.725901 121.319268 
L 220.104177 124.764308 
L 219.04653 128.02313 
L 216.014611 133.144134 
L 209.527715 137.892703 
L 207.482932 140.592869 
L 206.707325 143.758581 
L 206.848344 149.53135 
L 206.284267 151.85908 
L 204.027955 155.117901 
L 200.008899 157.259413 
L 195.355256 159.307815 
L 192.605376 161.263107 
L 190.701613 163.125291 
L 187.176125 167.315204 
L 185.342872 170.201589 
L 183.509619 175.229485 
L 183.22758 178.581415 
L 184.144206 183.609311 
L 185.413382 187.426787 
L 186.118479 191.058045 
L 185.624911 195.154849 
L 183.791658 198.879217 
L 182.381463 201.020728 
L 178.644446 205.489969 
L 172.933157 209.679882 
L 170.958884 212.380048 
L 169.830728 215.825088 
L 169.971748 225.322224 
L 168.632062 228.1155 
L 165.529634 231.932976 
L 161.228539 235.191798 
L 156.997954 239.47482 
L 153.190428 244.409607 
L 148.395765 250.182376 
L 145.434356 252.137669 
L 141.344791 255.489599 
L 138.453891 258.934639 
L 137.114206 262.286569 
L 136.620638 264.986736 
L 137.607774 278.673785 
L 137.043696 281.839498 
L 136.197579 283.8879 
L 133.729738 286.401847 
L 130.063232 287.23983 
L 127.383861 288.729577 
L 126.255705 290.033105 
L 122.871238 295.433438 
L 120.191867 300.92688 
L 117.865046 309.027379 
L 115.326695 314.241493 
L 112.788344 317.314096 
L 107.429603 321.783336 
L 103.269528 326.066359 
L 97.699258 333.88753 
L 96.359573 336.680805 
L 95.866005 339.939627 
L 96.077534 341.522483 
L 97.910788 345.805505 
L 99.109453 347.57458 
L 104.397684 352.13693 
L 105.032272 353.906004 
L 104.186155 356.140624 
L 102.141372 358.840791 
L 100.308119 363.403141 
L 99.814551 365.637761 
L 97.981297 368.337927 
L 94.59683 374.948679 
L 92.199498 376.810863 
L 92.199498 378.021282 
L 90.648284 381.280103 
L 90.436755 384.166488 
L 88.95605 383.607833 
L 89.520128 385.842453 
L 87.263816 389.65993 
L 86.770248 391.335895 
L 84.866485 394.780935 
L 80.70641 399.343285 
L 78.943666 403.719416 
L 76.546335 407.443783 
L 75.629708 409.678404 
L 73.161867 413.682099 
L 70.623516 418.896213 
L 69.42485 420.013523 
L 67.873636 423.365454 
L 66.463441 425.041419 
L 65.617324 427.369148 
L 63.290503 431.559062 
L 61.17521 434.631665 
L 60.540622 437.052503 
L 56.451057 443.383928 
L 54.758823 447.946277 
L 52.220473 451.298208 
L 50.669258 455.022575 
L 49.047534 456.605431 
L 47.002751 460.795345 
L 45.804086 461.447109 
L 43.759303 464.612821 
L 41.85554 466.754332 
L 41.291462 468.616516 
L 40.868403 472.433992 
L 38.823621 479.51029 
L 36.003231 482.582893 
L 35.580173 484.631295 
L 34.240487 485.376168 
L 31.772646 488.63499 
L 30.78551 490.683392 
L 29.445825 491.428265 
L 27.96512 495.152633 
L 26.061357 497.294144 
L 23.805045 501.763384 
L 22.747399 502.694476 
L 20.068029 507.629263 
L 21.196184 509.398337 
L 27.542062 512.284722 
L 30.080412 513.867578 
L 33.746919 515.077997 
L 37.906994 517.964382 
L 42.490128 520.571439 
L 47.848868 522.806059 
L 50.03467 522.899169 
L 55.463921 527.461519 
L 56.874116 531.092777 
L 60.117564 530.813449 
L 60.399603 532.861851 
L 57.790742 536.4 
L 55.74596 535.562017 
L 52.432002 532.210087 
L 51.233336 530.161685 
L 47.848868 529.696139 
L 48.342437 530.72034 
L 48.342437 530.72034 
" clip-path="url(#p5e108e3b78)" style="fill: none; stroke: #000000; stroke-width: 3"/>
   </g>
  </g>
 </g>
 <defs>
  <clipPath id="p5e108e3b78">
   <rect x="7.2" y="7.2" width="283.096628" height="554.4"/>
  </clipPath>
 </defs>
</svg>
