<?xml version="1.0" encoding="utf-8" standalone="no"?>
<!DOCTYPE svg PUBLIC "-//W3C//DTD SVG 1.1//EN"
  "http://www.w3.org/Graphics/SVG/1.1/DTD/svg11.dtd">
<svg xmlns:xlink="http://www.w3.org/1999/xlink" width="297.428208pt" height="568.8pt" viewBox="0 0 297.428208 568.8" xmlns="http://www.w3.org/2000/svg" version="1.1">
 <metadata>
  <rdf:RDF xmlns:dc="http://purl.org/dc/elements/1.1/" xmlns:cc="http://creativecommons.org/ns#" xmlns:rdf="http://www.w3.org/1999/02/22-rdf-syntax-ns#">
   <cc:Work>
    <dc:type rdf:resource="http://purl.org/dc/dcmitype/StillImage"/>
    <dc:date>2023-09-25T14:14:36.786122</dc:date>
    <dc:format>image/svg+xml</dc:format>
    <dc:creator>
     <cc:Agent>
      <dc:title>Matplotlib v3.6.2, https://matplotlib.org/</dc:title>
     </cc:Agent>
    </dc:creator>
   </cc:Work>
  </rdf:RDF>
 </metadata>
 <defs>
  <style type="text/css">*{stroke-linejoin: round; stroke-linecap: butt}</style>
 </defs>
 <g id="figure_1">
  <g id="patch_1">
   <path d="M 0 568.8 
L 297.428208 568.8 
L 297.428208 0 
L 0 0 
z
" style="fill: #ffffff"/>
  </g>
  <g id="axes_1">
   <g id="LineCollection_1">
    <path d="M 271.918943 34.454094 
L 272.413884 32.4 
L 275.242116 35.014302 
L 277.363289 37.628603 
L 274.888587 42.763838 
L 272.272472 47.058763 
L 268.9493 53.314413 
L 268.100831 56.302186 
L 265.484717 56.862393 
L 261.666604 55.835346 
L 256.292964 54.995035 
L 252.686968 53.687884 
L 250.14156 54.528196 
L 247.737563 56.675658 
L 246.818388 58.916488 
L 246.606271 61.157318 
L 247.666857 64.425195 
L 248.939562 65.732345 
L 253.181909 66.85276 
L 255.939435 68.626751 
L 256.717199 70.027269 
L 257.000022 75.162505 
L 258.696961 80.577844 
L 258.272726 84.032456 
L 257.565668 85.619711 
L 254.878848 88.700852 
L 252.899086 90.381475 
L 248.161798 92.902408 
L 244.980037 94.116191 
L 242.858864 97.010597 
L 240.525573 102.332568 
L 238.899339 104.01319 
L 233.949934 106.347388 
L 230.838879 107.467803 
L 227.445001 109.802001 
L 223.7683 114.657132 
L 221.152186 120.259207 
L 220.020893 122.126565 
L 218.465366 126.234754 
L 215.70784 131.276621 
L 213.445255 133.330715 
L 210.3342 135.198073 
L 207.859497 137.719007 
L 206.586793 142.294035 
L 206.657499 147.522638 
L 205.950441 150.417043 
L 204.112091 153.498185 
L 202.627269 154.618599 
L 196.617277 156.859429 
L 191.102225 160.127306 
L 189.122463 162.181401 
L 186.223526 166.009485 
L 183.748823 170.677881 
L 182.829648 174.786069 
L 182.900353 179.547833 
L 185.375056 188.231049 
L 185.445762 192.059133 
L 184.880116 194.673435 
L 183.395294 197.661208 
L 180.849886 201.395924 
L 178.516595 204.103594 
L 174.203541 207.371471 
L 171.516721 209.892405 
L 169.749077 213.533753 
L 169.395548 216.894998 
L 169.607665 220.256243 
L 169.395548 223.617488 
L 168.547078 225.951686 
L 165.365318 230.153242 
L 162.537086 232.48744 
L 156.739211 238.182883 
L 154.335214 240.98392 
L 151.789806 245.092108 
L 150.022161 247.332938 
L 144.436404 251.627862 
L 139.699116 255.642682 
L 138.497117 257.043201 
L 136.870884 260.124342 
L 136.163826 262.551908 
L 136.09312 265.072842 
L 137.012296 272.262171 
L 137.083001 278.050982 
L 136.588061 280.478548 
L 135.103239 283.839793 
L 133.052771 285.520415 
L 127.608426 287.014302 
L 125.133723 289.348499 
L 123.578195 291.776065 
L 119.547965 301.112857 
L 118.840908 303.820526 
L 114.810677 313.437421 
L 111.91174 316.985402 
L 104.063397 323.987996 
L 98.406934 330.430382 
L 96.568584 333.418155 
L 94.871645 337.713079 
L 94.730233 339.953909 
L 95.861526 342.848314 
L 99.962462 348.730493 
L 103.568457 351.905002 
L 104.134103 353.212153 
L 103.497751 355.452983 
L 100.033167 359.561171 
L 98.47764 364.322934 
L 97.982699 367.310708 
L 96.709995 370.391849 
L 94.659527 371.418896 
L 92.396942 374.126565 
L 91.124238 377.581178 
L 88.649535 382.342942 
L 88.649535 383.276621 
L 87.023302 385.330715 
L 85.326363 388.411856 
L 83.275895 393.547092 
L 81.084016 396.721601 
L 80.659781 398.215487 
L 77.336609 402.790515 
L 75.851787 405.871656 
L 74.720494 407.085439 
L 73.44779 410.820156 
L 72.316498 412.033938 
L 70.336735 416.795702 
L 65.952976 423.61156 
L 64.538861 426.505965 
L 62.629804 428.746795 
L 61.003571 431.361097 
L 60.437925 433.228455 
L 58.458163 433.135087 
L 56.407695 435.375917 
L 55.134991 438.83053 
L 54.286521 439.204001 
L 54.003698 441.351464 
L 52.589582 444.339237 
L 52.023936 444.525973 
L 50.963349 449.287736 
L 48.771469 453.395924 
L 45.801826 456.29033 
L 44.034181 460.118414 
L 42.054419 459.83831 
L 40.711009 461.612301 
L 40.781715 465.627121 
L 39.084776 466.280697 
L 38.165601 467.867951 
L 38.448424 470.668989 
L 38.165601 473.28329 
L 37.17572 476.644535 
L 35.690898 477.484846 
L 33.781842 482.059874 
L 31.024316 485.794591 
L 29.398083 489.996147 
L 28.549613 494.477807 
L 26.216322 495.784957 
L 25.509264 498.212523 
L 23.670914 502.414079 
L 20.064919 508.109522 
L 21.903269 509.416673 
L 25.297147 510.44372 
L 28.478908 512.124342 
L 32.650549 514.92538 
L 35.620192 515.952427 
L 36.680779 517.352946 
L 45.094768 520.994294 
L 47.428059 523.141756 
L 49.549233 523.515228 
L 54.852167 527.530048 
L 58.67028 529.117303 
L 59.801573 528.463727 
L 60.720748 530.984661 
L 59.235926 533.972434 
L 59.306632 536.4 
L 54.993579 534.812745 
L 53.579463 532.945387 
L 50.114879 530.797925 
L 46.013944 529.864246 
L 47.215942 529.584142 
L 47.215942 529.584142 
" clip-path="url(#pa2f8c000eb)" style="fill: none; stroke: #000000; stroke-width: 3"/>
   </g>
  </g>
 </g>
 <defs>
  <clipPath id="pa2f8c000eb">
   <rect x="7.2" y="7.2" width="283.028208" height="554.4"/>
  </clipPath>
 </defs>
</svg>
