<?xml version="1.0" encoding="utf-8" standalone="no"?>
<!DOCTYPE svg PUBLIC "-//W3C//DTD SVG 1.1//EN"
  "http://www.w3.org/Graphics/SVG/1.1/DTD/svg11.dtd">
<svg xmlns:xlink="http://www.w3.org/1999/xlink" width="263.741577pt" height="568.8pt" viewBox="0 0 263.741577 568.8" xmlns="http://www.w3.org/2000/svg" version="1.1">
 <metadata>
  <rdf:RDF xmlns:dc="http://purl.org/dc/elements/1.1/" xmlns:cc="http://creativecommons.org/ns#" xmlns:rdf="http://www.w3.org/1999/02/22-rdf-syntax-ns#">
   <cc:Work>
    <dc:type rdf:resource="http://purl.org/dc/dcmitype/StillImage"/>
    <dc:date>2023-09-25T14:14:36.666360</dc:date>
    <dc:format>image/svg+xml</dc:format>
    <dc:creator>
     <cc:Agent>
      <dc:title>Matplotlib v3.6.2, https://matplotlib.org/</dc:title>
     </cc:Agent>
    </dc:creator>
   </cc:Work>
  </rdf:RDF>
 </metadata>
 <defs>
  <style type="text/css">*{stroke-linejoin: round; stroke-linecap: butt}</style>
 </defs>
 <g id="figure_1">
  <g id="patch_1">
   <path d="M 0 568.8 
L 263.741577 568.8 
L 263.741577 0 
L 0 0 
z
" style="fill: #ffffff"/>
  </g>
  <g id="axes_1">
   <g id="LineCollection_1">
    <path d="M 145.209151 114.820278 
L 150.981308 121.001799 
L 159.873549 125.947016 
L 163.92966 130.686182 
L 166.581732 137.485854 
L 165.333698 143.873426 
L 163.461647 145.933933 
L 157.377481 156.648569 
L 153.009363 166.745053 
L 143.025091 183.64121 
L 134.13285 201.567621 
L 128.672701 211.458054 
L 118.844434 227.94211 
L 115.568345 237.00834 
L 116.036358 238.862796 
L 123.524561 245.044317 
L 128.204689 247.516926 
L 134.13285 252.050041 
L 135.536888 251.019787 
L 139.905007 252.668193 
L 148.173231 258.025511 
L 152.697354 263.58888 
L 156.753465 264.825184 
L 156.129448 268.740147 
L 164.241668 270.594603 
L 173.913931 274.097465 
L 180.466109 277.600327 
L 182.494164 277.394276 
L 199.65463 287.902862 
L 209.482898 293.054129 
L 218.219135 300.059853 
L 227.423385 305.623222 
L 232.727529 306.859526 
L 238.187678 311.598692 
L 245.207868 315.307604 
L 233.663555 334.264268 
L 229.139432 343.948651 
L 225.083322 350.336222 
L 221.027211 358.57825 
L 216.347084 366.408177 
L 212.290974 376.092559 
L 204.646766 388.0435 
L 194.506491 407.824366 
L 189.046342 415.654293 
L 187.4863 420.187408 
L 182.182156 427.399182 
L 177.658033 436.465413 
L 170.481838 448.004252 
L 167.673761 449.240556 
L 164.709681 457.894685 
L 158.157503 470.669828 
L 152.073337 484.269174 
L 149.889278 485.299428 
L 141.153041 505.080294 
L 138.656973 506.934751 
L 135.536888 513.734424 
L 130.700756 519.709894 
L 126.488642 526.921668 
L 124.304583 536.4 
L 126.80065 536.193949 
L 132.104795 529.394276 
L 137.408939 519.915944 
L 133.820841 517.031235 
L 136.940926 511.055765 
L 140.997036 507.346852 
L 147.705219 499.310875 
L 150.981308 492.717253 
L 148.641244 493.129354 
L 147.861223 497.250368 
L 153.945388 489.626492 
L 155.973443 483.444971 
L 153.63338 480.972363 
L 134.13285 470.875879 
L 127.112659 466.548814 
L 115.100332 460.985446 
L 106.520099 455.422077 
L 97.315849 451.507114 
L 85.615531 444.50139 
L 76.255277 440.586427 
L 71.419145 439.968275 
L 64.086946 433.580703 
L 58.314789 430.902044 
L 54.414683 427.399182 
L 49.266543 424.720523 
L 43.026374 420.187408 
L 37.566225 417.302698 
L 36.942208 415.654293 
L 26.645928 410.090924 
L 21.341784 408.030417 
L 18.533708 404.939657 
L 24.773878 394.843173 
L 23.369839 389.691905 
L 24.149861 387.013246 
L 33.510115 369.498937 
L 39.126268 360.226656 
L 47.550497 344.360752 
L 50.98259 336.118724 
L 51.762611 319.222567 
L 53.166649 309.332134 
L 52.698637 301.090106 
L 51.606607 297.175143 
L 46.302463 287.078659 
L 45.83445 281.30924 
L 47.550497 273.685364 
L 54.570687 258.643663 
L 62.994916 248.135078 
L 77.191302 232.475225 
L 80.155383 227.736059 
L 81.871429 220.524285 
L 81.403417 211.252003 
L 82.183438 201.979722 
L 84.679506 187.350123 
L 86.239548 182.404906 
L 89.98365 176.635487 
L 96.067815 171.278168 
L 102.932002 166.539002 
L 106.520099 163.036141 
L 107.612129 158.090924 
L 104.33604 151.909403 
L 97.627858 149.848896 
L 90.763671 152.527555 
L 83.275468 157.884873 
L 75.787264 158.090924 
L 71.263141 155.000164 
L 69.703099 149.642845 
L 71.263141 144.285527 
L 79.843374 134.807195 
L 85.771535 126.565168 
L 91.543692 113.171872 
L 92.479718 103.281439 
L 90.451663 98.130172 
L 87.175574 94.009158 
L 77.503311 85.561079 
L 76.567285 79.585609 
L 81.403417 71.755683 
L 87.175574 60.010793 
L 92.479718 52.592968 
L 93.727752 48.884056 
L 98.09587 41.466231 
L 96.379824 38.993622 
L 85.303523 32.4 
L 82.963459 33.430253 
L 82.963459 33.430253 
" clip-path="url(#p706091a11d)" style="fill: none; stroke: #000000; stroke-width: 3"/>
   </g>
  </g>
 </g>
 <defs>
  <clipPath id="p706091a11d">
   <rect x="7.2" y="7.2" width="249.341577" height="554.4"/>
  </clipPath>
 </defs>
</svg>
