<?xml version="1.0" encoding="utf-8" standalone="no"?>
<!DOCTYPE svg PUBLIC "-//W3C//DTD SVG 1.1//EN"
  "http://www.w3.org/Graphics/SVG/1.1/DTD/svg11.dtd">
<svg xmlns:xlink="http://www.w3.org/1999/xlink" width="297.521821pt" height="568.8pt" viewBox="0 0 297.521821 568.8" xmlns="http://www.w3.org/2000/svg" version="1.1">
 <metadata>
  <rdf:RDF xmlns:dc="http://purl.org/dc/elements/1.1/" xmlns:cc="http://creativecommons.org/ns#" xmlns:rdf="http://www.w3.org/1999/02/22-rdf-syntax-ns#">
   <cc:Work>
    <dc:type rdf:resource="http://purl.org/dc/dcmitype/StillImage"/>
    <dc:date>2023-09-25T14:14:36.608391</dc:date>
    <dc:format>image/svg+xml</dc:format>
    <dc:creator>
     <cc:Agent>
      <dc:title>Matplotlib v3.6.2, https://matplotlib.org/</dc:title>
     </cc:Agent>
    </dc:creator>
   </cc:Work>
  </rdf:RDF>
 </metadata>
 <defs>
  <style type="text/css">*{stroke-linejoin: round; stroke-linecap: butt}</style>
 </defs>
 <g id="figure_1">
  <g id="patch_1">
   <path d="M -0 568.8 
L 297.521821 568.8 
L 297.521821 0 
L -0 0 
z
" style="fill: #ffffff"/>
  </g>
  <g id="axes_1">
   <g id="LineCollection_1">
    <path d="M 269.557016 32.4 
L 269.627513 33.610196 
L 273.293342 33.517104 
L 273.786819 37.613151 
L 274.773773 37.706243 
L 276.11321 36.496047 
L 276.465693 38.357887 
L 277.452647 39.661175 
L 276.042713 40.592095 
L 273.293342 45.99143 
L 270.191487 50.459845 
L 268.076585 55.207536 
L 267.371618 57.627928 
L 264.904234 58.558847 
L 258.34804 56.883192 
L 254.823205 56.32464 
L 252.14433 55.486812 
L 248.760488 56.510824 
L 246.927574 58.372663 
L 245.588136 62.654895 
L 246.081613 64.609826 
L 247.562044 66.65785 
L 249.253965 67.774954 
L 253.342774 68.98515 
L 254.893701 70.288437 
L 256.162642 73.453565 
L 256.021649 77.177244 
L 257.361086 81.087107 
L 257.71357 83.879867 
L 256.021649 88.534466 
L 254.541218 90.303214 
L 250.593402 93.189065 
L 244.601182 96.074917 
L 242.627275 97.936757 
L 240.512373 102.684448 
L 238.749956 105.291023 
L 235.22512 107.525231 
L 227.96396 110.411082 
L 224.509621 113.855486 
L 221.407766 118.882453 
L 218.799388 124.467972 
L 217.671441 127.633099 
L 215.415546 131.729147 
L 213.441638 133.77717 
L 208.788856 136.756114 
L 207.026438 138.990321 
L 205.546007 143.272553 
L 205.616504 149.509716 
L 204.065576 153.512671 
L 201.950675 155.653786 
L 192.574613 160.215294 
L 187.710341 164.776801 
L 185.383949 167.941928 
L 183.692028 170.920872 
L 182.211598 175.110011 
L 181.859114 178.740598 
L 182.282094 181.62645 
L 185.031466 190.656372 
L 184.467492 195.497156 
L 183.410042 198.010639 
L 180.308186 202.944514 
L 177.206331 206.109642 
L 172.553549 209.274769 
L 169.592687 213.277724 
L 168.817223 215.977392 
L 168.88772 224.262579 
L 167.548283 228.358626 
L 165.785865 230.499741 
L 160.005135 235.992168 
L 156.339306 238.971112 
L 151.54553 246.139195 
L 148.866656 249.025046 
L 141.182515 255.169117 
L 139.420097 256.193129 
L 136.741222 260.0099 
L 135.754268 262.616476 
L 135.331288 266.153971 
L 136.036255 272.577318 
L 136.106752 279.559217 
L 135.683772 281.886516 
L 134.062347 285.051644 
L 132.51142 286.448024 
L 127.717644 288.216771 
L 124.615789 291.102623 
L 120.879463 297.153602 
L 118.623569 302.925305 
L 117.002144 308.7901 
L 114.393766 313.910159 
L 112.419859 316.423642 
L 105.722672 322.288437 
L 100.717405 327.59468 
L 96.5581 333.645659 
L 94.866179 337.927891 
L 94.936675 341.837754 
L 96.5581 345.375249 
L 100.646909 349.564389 
L 102.409326 350.867676 
L 103.889757 353.008792 
L 102.55032 357.291023 
L 100.858399 359.432139 
L 100.646909 360.549243 
L 97.968034 365.483118 
L 96.699093 365.855486 
L 95.641643 367.903509 
L 95.007172 367.810417 
L 93.385748 370.044625 
L 92.257801 373.209752 
L 90.706873 374.140672 
L 89.719919 375.816328 
L 89.226442 378.422904 
L 86.336077 380.843295 
L 85.8426 383.263687 
L 84.36217 385.684078 
L 83.022732 389.687034 
L 81.330811 391.828149 
L 80.907831 394.620909 
L 79.497897 398.251496 
L 78.158459 400.206428 
L 77.312499 404.209383 
L 76.607532 404.674843 
L 74.563127 409.422534 
L 71.743259 413.053122 
L 70.615312 413.797857 
L 69.416868 416.590617 
L 66.244516 422.083044 
L 64.693589 423.572516 
L 63.495145 426.551459 
L 61.23925 428.134023 
L 59.547329 430.554414 
L 58.278388 434.55737 
L 56.586467 437.163945 
L 54.753553 443.214924 
L 52.920639 444.42512 
L 53.273122 449.172811 
L 50.735241 455.968526 
L 48.690836 456.527078 
L 47.915373 457.55109 
L 46.505438 456.713262 
L 42.205139 455.968526 
L 43.192093 458.388918 
L 41.711662 461.833321 
L 38.891794 464.067529 
L 36.424409 463.788253 
L 35.719442 464.532989 
L 33.252058 471.142519 
L 35.648946 477.100406 
L 35.860436 480.54481 
L 34.309508 484.547765 
L 31.771627 485.664869 
L 29.586229 487.340525 
L 26.695864 492.460584 
L 25.144937 493.950055 
L 24.298976 496.835907 
L 22.395565 499.535574 
L 22.184075 501.304322 
L 20.210167 504.562542 
L 20.844637 507.634577 
L 20.069174 509.775693 
L 22.043081 509.310233 
L 22.607055 509.961877 
L 24.933446 510.241153 
L 29.868216 513.313188 
L 31.137157 513.592464 
L 33.322554 515.175028 
L 36.142423 516.478315 
L 37.90484 518.060879 
L 40.231232 518.433247 
L 42.134643 519.829627 
L 47.280902 522.715478 
L 50.453254 524.111858 
L 54.542063 526.346066 
L 58.771865 529.790469 
L 60.252296 529.976653 
L 61.168753 531.093757 
L 59.617826 533.234873 
L 59.406336 535.562172 
L 57.502925 536.4 
L 53.132129 534.0727 
L 51.863188 533.700332 
L 49.748287 531.745401 
L 49.184313 529.976653 
L 45.870968 528.207905 
L 45.870968 528.207905 
" clip-path="url(#p05c6d0afd3)" style="fill: none; stroke: #000000; stroke-width: 3"/>
   </g>
  </g>
 </g>
 <defs>
  <clipPath id="p05c6d0afd3">
   <rect x="7.2" y="7.2" width="283.121821" height="554.4"/>
  </clipPath>
 </defs>
</svg>
