<?xml version="1.0" encoding="utf-8" standalone="no"?>
<!DOCTYPE svg PUBLIC "-//W3C//DTD SVG 1.1//EN"
  "http://www.w3.org/Graphics/SVG/1.1/DTD/svg11.dtd">
<svg xmlns:xlink="http://www.w3.org/1999/xlink" width="295.751224pt" height="568.8pt" viewBox="0 0 295.751224 568.8" xmlns="http://www.w3.org/2000/svg" version="1.1">
 <metadata>
  <rdf:RDF xmlns:dc="http://purl.org/dc/elements/1.1/" xmlns:cc="http://creativecommons.org/ns#" xmlns:rdf="http://www.w3.org/1999/02/22-rdf-syntax-ns#">
   <cc:Work>
    <dc:type rdf:resource="http://purl.org/dc/dcmitype/StillImage"/>
    <dc:date>2023-09-25T14:14:36.368772</dc:date>
    <dc:format>image/svg+xml</dc:format>
    <dc:creator>
     <cc:Agent>
      <dc:title>Matplotlib v3.6.2, https://matplotlib.org/</dc:title>
     </cc:Agent>
    </dc:creator>
   </cc:Work>
  </rdf:RDF>
 </metadata>
 <defs>
  <style type="text/css">*{stroke-linejoin: round; stroke-linecap: butt}</style>
 </defs>
 <g id="figure_1">
  <g id="patch_1">
   <path d="M 0 568.8 
L 295.751224 568.8 
L 295.751224 0 
L 0 0 
z
" style="fill: #ffffff"/>
  </g>
  <g id="axes_1">
   <g id="LineCollection_1">
    <path d="M 269.890709 32.4 
L 270.869346 35.538462 
L 270.729541 37.846154 
L 272.267399 40.153846 
L 273.525647 40.8 
L 275.762532 46.523077 
L 274.364479 47.169231 
L 272.477107 50.030769 
L 267.863531 59.169231 
L 267.653823 60.646154 
L 265.766452 61.661538 
L 260.034433 60.553846 
L 254.372318 59.815385 
L 250.737379 58.984615 
L 248.91991 59.538462 
L 246.613122 61.753846 
L 245.424777 64.707692 
L 245.564582 67.2 
L 247.382051 69.6 
L 250.667477 71.261538 
L 253.183972 72 
L 254.512123 73.2 
L 255.910176 76.430769 
L 256.049982 80.4 
L 257.378132 84.646154 
L 257.448035 87.784615 
L 256.469398 90.830769 
L 253.044167 94.523077 
L 249.96845 96.369231 
L 244.166529 98.584615 
L 241.719936 101.446154 
L 240.391785 105.230769 
L 239.343245 107.169231 
L 237.10636 108.738462 
L 234.030643 109.661538 
L 228.927749 112.153846 
L 225.782129 114.738462 
L 223.265633 118.153846 
L 219.420987 125.446154 
L 217.463712 131.076923 
L 215.506438 134.769231 
L 212.780234 137.446154 
L 208.446269 140.123077 
L 206.279286 143.815385 
L 205.85987 145.846154 
L 206.209384 150 
L 205.300649 154.615385 
L 202.294834 157.938462 
L 195.514276 160.707692 
L 189.502647 164.676923 
L 185.867709 169.661538 
L 184.190045 172.707692 
L 183.0017 175.846154 
L 182.512381 181.569231 
L 182.931797 184.338462 
L 184.889072 190.430769 
L 185.448293 193.292308 
L 185.168682 196.246154 
L 183.071602 200.676923 
L 181.044425 203.723077 
L 178.667735 206.584615 
L 175.102699 209.723077 
L 172.23669 211.661538 
L 170.279415 214.153846 
L 169.440583 216.461538 
L 169.230875 219.046154 
L 169.510486 224.953846 
L 169.09107 227.630769 
L 166.364866 232.430769 
L 164.477494 234.276923 
L 157.207618 240.184615 
L 151.335794 248.123077 
L 148.749395 251.076923 
L 147.001829 251.907692 
L 140.570784 256.892308 
L 138.403801 259.476923 
L 137.075651 262.153846 
L 136.236819 266.215385 
L 136.236819 267.969231 
L 137.355261 278.492308 
L 137.355261 280.984615 
L 136.306722 284.4 
L 135.258182 286.061538 
L 133.300907 287.446154 
L 130.364995 288.184615 
L 126.590252 290.4 
L 123.514534 294.923077 
L 119.46018 304.430769 
L 118.062127 309.230769 
L 115.545631 314.676923 
L 113.518454 317.076923 
L 107.436922 322.615385 
L 101.914612 328.523077 
L 98.069965 333.876923 
L 96.951523 335.907692 
L 95.902983 339.415385 
L 95.763178 341.723077 
L 96.322399 343.846154 
L 97.860257 346.984615 
L 99.817532 349.753846 
L 101.495196 350.676923 
L 103.801984 352.8 
L 104.710718 354.553846 
L 104.081594 357.046154 
L 102.12432 360.184615 
L 101.495196 362.492308 
L 97.370939 369.138462 
L 96.462204 371.446154 
L 95.413664 372 
L 95.483567 373.2 
L 93.176779 376.615385 
L 91.35931 378.461538 
L 89.541841 381.415385 
L 88.423398 384.184615 
L 86.396221 387.230769 
L 85.137973 390.738462 
L 82.132159 395.630769 
L 81.64284 397.476923 
L 79.336052 401.261538 
L 78.706928 403.015385 
L 74.792379 410.861538 
L 74.093352 410.953846 
L 70.947733 416.123077 
L 67.802113 423.138462 
L 63.398245 431.353846 
L 62.769121 433.846154 
L 60.252625 436.338462 
L 58.784669 438.923077 
L 58.505059 440.584615 
L 57.037103 442.707692 
L 55.91866 445.661538 
L 54.660412 445.938462 
L 53.54197 448.984615 
L 52.633235 449.630769 
L 51.44489 451.938462 
L 50.885669 454.246154 
L 48.019659 458.215385 
L 44.734234 466.061538 
L 43.126473 467.630769 
L 41.029393 471.969231 
L 39.841048 469.846154 
L 39.211924 472.338462 
L 37.114844 474.092308 
L 34.947862 479.815385 
L 34.528446 482.030769 
L 33.549808 482.123077 
L 32.431366 484.8 
L 32.291561 486.738462 
L 29.705162 489.876923 
L 27.608082 492.923077 
L 27.398374 495.323077 
L 25.021684 499.107692 
L 24.742073 501.230769 
L 22.994506 503.446154 
L 20.478011 505.753846 
L 19.988692 507.230769 
L 20.478011 508.8 
L 23.763436 508.892308 
L 26.279932 508.338462 
L 27.887693 508.984615 
L 31.452729 511.476923 
L 34.947862 513.230769 
L 36.835234 514.892308 
L 39.701243 516.369231 
L 40.540075 517.753846 
L 46.481801 520.984615 
L 48.858491 522.553846 
L 50.256545 524.676923 
L 54.520607 527.261538 
L 56.9672 528 
L 59.413793 529.661538 
L 59.343891 531.784615 
L 61.301165 532.153846 
L 59.553599 534.184615 
L 59.134183 536.4 
L 56.617687 535.292308 
L 55.63905 534.276923 
L 54.59051 530.123077 
L 53.472067 531.507692 
L 52.563333 530.215385 
L 49.976934 528.738462 
L 49.976934 528.738462 
" clip-path="url(#p45fd1c4191)" style="fill: none; stroke: #000000; stroke-width: 3"/>
   </g>
  </g>
 </g>
 <defs>
  <clipPath id="p45fd1c4191">
   <rect x="7.2" y="7.2" width="281.351224" height="554.4"/>
  </clipPath>
 </defs>
</svg>
