<?xml version="1.0" encoding="utf-8" standalone="no"?>
<!DOCTYPE svg PUBLIC "-//W3C//DTD SVG 1.1//EN"
  "http://www.w3.org/Graphics/SVG/1.1/DTD/svg11.dtd">
<svg xmlns:xlink="http://www.w3.org/1999/xlink" width="287.856075pt" height="568.8pt" viewBox="0 0 287.856075 568.8" xmlns="http://www.w3.org/2000/svg" version="1.1">
 <metadata>
  <rdf:RDF xmlns:dc="http://purl.org/dc/elements/1.1/" xmlns:cc="http://creativecommons.org/ns#" xmlns:rdf="http://www.w3.org/1999/02/22-rdf-syntax-ns#">
   <cc:Work>
    <dc:type rdf:resource="http://purl.org/dc/dcmitype/StillImage"/>
    <dc:date>2023-09-25T14:14:36.308719</dc:date>
    <dc:format>image/svg+xml</dc:format>
    <dc:creator>
     <cc:Agent>
      <dc:title>Matplotlib v3.6.2, https://matplotlib.org/</dc:title>
     </cc:Agent>
    </dc:creator>
   </cc:Work>
  </rdf:RDF>
 </metadata>
 <defs>
  <style type="text/css">*{stroke-linejoin: round; stroke-linecap: butt}</style>
 </defs>
 <g id="figure_1">
  <g id="patch_1">
   <path d="M 0 568.8 
L 287.856075 568.8 
L 287.856075 0 
L 0 0 
z
" style="fill: #ffffff"/>
  </g>
  <g id="axes_1">
   <g id="LineCollection_1">
    <path d="M 27.794614 536.4 
L 23.927081 534.60304 
L 22.566282 533.278964 
L 22.064935 531.00912 
L 20.847378 531.860312 
L 19.629822 529.49589 
L 20.632515 528.455545 
L 20.847378 525.429086 
L 22.42304 520.132783 
L 25.3595 516.444286 
L 27.150025 513.134096 
L 27.651372 510.580522 
L 27.50813 508.121524 
L 30.44459 505.378795 
L 32.163494 501.784875 
L 35.52968 498.285532 
L 36.102648 495.921111 
L 37.821551 494.880766 
L 39.683697 490.151923 
L 42.476915 484.950197 
L 43.909335 483.342391 
L 45.341755 480.126778 
L 47.060658 477.478626 
L 49.782255 475.492513 
L 50.068739 470.952824 
L 52.28899 467.926365 
L 52.074127 466.318559 
L 54.151135 466.034828 
L 56.299765 461.400563 
L 56.084902 461.116832 
L 58.806499 457.144605 
L 58.949741 455.063914 
L 61.02675 453.172378 
L 62.172686 447.781497 
L 62.817274 447.308613 
L 64.321315 441.161118 
L 66.756428 439.553312 
L 68.761816 436.053969 
L 71.555034 434.729893 
L 72.772591 433.405817 
L 73.918527 428.960706 
L 76.425261 426.1234 
L 76.998229 423.758979 
L 78.430649 422.52948 
L 80.436036 418.084369 
L 80.00631 415.719947 
L 81.367109 414.395872 
L 82.298182 411.936874 
L 85.377884 411.463989 
L 87.741376 408.910415 
L 87.383272 406.167686 
L 89.030554 403.424958 
L 90.17649 399.547307 
L 91.322426 398.885269 
L 92.038635 397.088309 
L 93.972402 394.723888 
L 93.900781 393.494389 
L 95.476443 391.319122 
L 95.619685 389.900469 
L 99.63046 383.752974 
L 100.060186 381.577707 
L 102.925025 378.645825 
L 102.996646 376.848865 
L 104.214203 374.768174 
L 104.715549 371.836292 
L 105.575001 370.890524 
L 99.129113 363.986414 
L 99.988565 361.527416 
L 104.357445 357.082304 
L 111.949269 341.098818 
L 115.67356 336.464552 
L 118.251915 334.762169 
L 121.188376 333.627247 
L 122.692416 333.816401 
L 127.34778 337.221167 
L 130.713966 338.450666 
L 132.361249 337.788628 
L 135.011225 337.788628 
L 139.523347 334.289285 
L 142.244945 327.763483 
L 144.536816 324.169563 
L 146.971929 321.332257 
L 152.701608 317.832914 
L 155.924552 312.158304 
L 157.285351 309.320998 
L 157.92994 305.632501 
L 157.500214 303.930118 
L 155.566447 299.957891 
L 154.99348 297.309739 
L 155.136721 294.567011 
L 157.21373 290.216476 
L 159.43398 287.379171 
L 164.948796 283.123213 
L 166.381216 282.555752 
L 167.742014 280.947945 
L 168.529845 278.11064 
L 168.601466 274.043836 
L 170.033886 269.787878 
L 170.391991 266.004804 
L 170.821717 265.910227 
L 172.755483 259.479002 
L 172.612241 258.722387 
L 174.187903 255.128467 
L 174.832492 255.128467 
L 177.410847 252.007431 
L 179.917582 250.115894 
L 184.14322 243.779246 
L 185.432397 239.523288 
L 186.721575 238.199212 
L 189.228309 234.037831 
L 189.729656 232.335448 
L 191.878286 228.836104 
L 193.812052 227.039144 
L 198.610658 223.918108 
L 201.547118 223.161494 
L 206.202482 225.053031 
L 211.215951 225.053031 
L 213.722686 224.107262 
L 216.086178 222.310302 
L 217.375356 219.283843 
L 219.380743 217.297729 
L 220.383437 214.460424 
L 222.460446 211.433965 
L 228.906334 198.476938 
L 231.126584 195.639632 
L 232.487383 194.788441 
L 232.773867 192.518596 
L 233.776561 190.059598 
L 235.781948 187.31687 
L 237.787336 183.155489 
L 238.217062 181.074798 
L 242.156216 175.02188 
L 242.872426 171.806268 
L 242.012974 169.158116 
L 241.654869 166.320811 
L 242.299458 162.348583 
L 243.015668 160.835354 
L 243.15891 157.714318 
L 242.514321 155.349897 
L 240.079207 151.283093 
L 239.291377 147.689172 
L 239.864344 145.135598 
L 242.012974 140.87964 
L 244.376466 137.380296 
L 249.533177 131.800263 
L 251.825049 128.868381 
L 253.973678 126.882267 
L 256.766896 121.585964 
L 256.122308 118.937812 
L 256.33717 113.168625 
L 257.339864 108.439782 
L 258.342558 105.697054 
L 258.843905 102.481441 
L 261.493881 98.603791 
L 266.793834 94.915294 
L 268.226254 92.550873 
L 266.650592 88.673222 
L 264.000616 88.294915 
L 261.780365 88.578645 
L 257.984453 90.943066 
L 254.11692 92.077988 
L 252.326395 91.037643 
L 251.108839 88.767799 
L 251.538565 86.687108 
L 254.331783 82.904035 
L 256.910138 79.972152 
L 259.416873 75.905348 
L 260.777671 74.581272 
L 261.565502 72.689735 
L 261.207397 65.123588 
L 260.133083 63.042897 
L 256.26555 58.976093 
L 254.618267 57.841171 
L 254.260162 55.098442 
L 256.910138 49.802139 
L 257.626348 49.423832 
L 260.347946 45.357028 
L 263.642511 38.831225 
L 263.427648 37.223419 
L 260.204704 34.669844 
L 259.703357 33.818653 
L 255.979066 32.4 
L 255.979066 32.4 
" clip-path="url(#p8f1acd934f)" style="fill: none; stroke: #000000; stroke-width: 3"/>
   </g>
  </g>
 </g>
 <defs>
  <clipPath id="p8f1acd934f">
   <rect x="7.2" y="7.2" width="273.456075" height="554.4"/>
  </clipPath>
 </defs>
</svg>
