<?xml version="1.0" encoding="utf-8" standalone="no"?>
<!DOCTYPE svg PUBLIC "-//W3C//DTD SVG 1.1//EN"
  "http://www.w3.org/Graphics/SVG/1.1/DTD/svg11.dtd">
<svg xmlns:xlink="http://www.w3.org/1999/xlink" width="287.316604pt" height="568.8pt" viewBox="0 0 287.316604 568.8" xmlns="http://www.w3.org/2000/svg" version="1.1">
 <metadata>
  <rdf:RDF xmlns:dc="http://purl.org/dc/elements/1.1/" xmlns:cc="http://creativecommons.org/ns#" xmlns:rdf="http://www.w3.org/1999/02/22-rdf-syntax-ns#">
   <cc:Work>
    <dc:type rdf:resource="http://purl.org/dc/dcmitype/StillImage"/>
    <dc:date>2023-09-25T14:14:36.062255</dc:date>
    <dc:format>image/svg+xml</dc:format>
    <dc:creator>
     <cc:Agent>
      <dc:title>Matplotlib v3.6.2, https://matplotlib.org/</dc:title>
     </cc:Agent>
    </dc:creator>
   </cc:Work>
  </rdf:RDF>
 </metadata>
 <defs>
  <style type="text/css">*{stroke-linejoin: round; stroke-linecap: butt}</style>
 </defs>
 <g id="figure_1">
  <g id="patch_1">
   <path d="M 0 568.8 
L 287.316604 568.8 
L 287.316604 0 
L 0 0 
z
" style="fill: #ffffff"/>
  </g>
  <g id="axes_1">
   <g id="LineCollection_1">
    <path d="M 29.222368 536.115683 
L 23.480835 536.4 
L 20.46653 533.367281 
L 19.892377 532.230011 
L 21.471298 529.386837 
L 20.107684 527.396615 
L 19.6053 523.510944 
L 22.117221 520.478225 
L 25.920987 514.412787 
L 30.442444 508.915983 
L 31.590751 505.31463 
L 35.609824 500.196916 
L 37.116976 494.794885 
L 40.992511 487.213088 
L 42.356125 485.696728 
L 44.796277 480.105152 
L 45.729276 477.356751 
L 48.600043 474.134487 
L 48.81535 470.722678 
L 49.604811 470.912223 
L 50.250734 469.206318 
L 52.906193 465.794509 
L 54.700422 458.307484 
L 55.202806 459.255209 
L 56.351113 458.402256 
L 56.494651 457.075442 
L 59.293648 453.56886 
L 59.724263 451.104776 
L 61.087878 449.493644 
L 61.805569 447.503422 
L 63.312722 446.65047 
L 63.599798 442.670026 
L 65.250489 441.343212 
L 66.470565 436.130726 
L 67.547102 433.666642 
L 68.982486 432.05551 
L 69.915485 429.591425 
L 72.427406 427.222114 
L 73.216866 425.231892 
L 72.858021 423.431215 
L 75.011096 423.052125 
L 76.590017 420.303723 
L 76.805325 418.597819 
L 77.953631 417.839639 
L 79.532553 413.480105 
L 80.60909 405.61399 
L 82.977473 403.908086 
L 84.12578 401.728319 
L 88.503699 397.653103 
L 90.94385 396.610605 
L 93.599309 392.630162 
L 95.895923 390.071305 
L 96.97246 385.237909 
L 98.551382 381.541783 
L 100.273842 379.646333 
L 100.489149 375.950207 
L 103.359916 372.917488 
L 103.575223 369.789996 
L 102.857532 369.410906 
L 101.135072 365.999097 
L 97.977228 364.103648 
L 98.623151 360.976156 
L 103.431685 355.763671 
L 106.015375 350.74073 
L 107.666066 346.381196 
L 109.819141 342.021662 
L 114.555905 336.050997 
L 118.216133 334.060775 
L 121.517515 333.966002 
L 122.306975 334.62941 
L 129.196815 337.377811 
L 132.139351 337.567356 
L 134.220657 336.335314 
L 139.029191 331.881008 
L 141.110497 326.858067 
L 143.550648 323.161941 
L 145.273108 321.550809 
L 149.43572 319.086724 
L 152.234717 316.62264 
L 153.095947 313.874238 
L 153.957177 313.495149 
L 155.105484 311.125837 
L 156.756175 309.135615 
L 157.402097 305.913351 
L 156.899713 302.122452 
L 156.110252 300.13223 
L 154.53133 298.331553 
L 154.172485 294.445882 
L 156.756175 288.949079 
L 157.617405 288.664761 
L 159.914018 285.252952 
L 161.492939 283.64182 
L 164.937859 282.030688 
L 167.234473 279.566604 
L 167.736857 278.145017 
L 167.880395 273.406393 
L 168.741625 271.700489 
L 169.100471 268.28868 
L 170.105239 265.729823 
L 170.177008 263.644829 
L 172.545391 259.47484 
L 174.267851 253.31463 
L 175.918542 250.661 
L 177.497463 249.618503 
L 182.162459 244.216472 
L 183.669611 242.131478 
L 186.325071 236.539902 
L 187.688685 231.043099 
L 191.133605 227.346973 
L 195.296216 224.314253 
L 196.516292 224.219481 
L 201.540134 222.703121 
L 203.262593 223.650846 
L 207.066359 222.797894 
L 210.798356 223.271756 
L 214.386814 221.660624 
L 216.755196 218.722678 
L 220.343655 212.562467 
L 222.424961 209.814065 
L 224.506266 205.075442 
L 226.013419 202.800903 
L 228.094725 197.588417 
L 231.109029 193.039338 
L 233.262104 189.153667 
L 236.707024 183.751636 
L 238.78833 179.202557 
L 240.941405 175.695976 
L 241.37202 173.231892 
L 240.726098 171.24167 
L 241.300251 169.061903 
L 241.013174 166.123956 
L 242.448558 161.385333 
L 242.663865 156.931027 
L 241.946173 153.99308 
L 240.151944 151.528996 
L 238.931868 148.496277 
L 238.860099 145.084468 
L 240.151944 141.483114 
L 242.017943 139.492892 
L 244.601633 133.996089 
L 250.558473 128.499285 
L 253.716316 125.087476 
L 256.156468 117.695224 
L 256.156468 112.861828 
L 256.658852 106.512072 
L 257.591851 101.583904 
L 260.31908 96.940053 
L 263.548692 95.234148 
L 266.491228 93.149154 
L 267.711304 90.874615 
L 267.352458 88.884393 
L 265.629998 87.557578 
L 259.816696 86.988943 
L 255.797622 90.68507 
L 251.132627 90.68507 
L 250.127858 88.78962 
L 252.56801 82.818954 
L 256.371776 77.890786 
L 256.802391 76.469199 
L 258.524851 74.478977 
L 260.821464 68.603084 
L 263.189846 66.044227 
L 260.821464 64.717413 
L 258.166005 60.831741 
L 256.945929 60.357879 
L 255.1517 58.272885 
L 254.218701 58.08334 
L 252.926856 55.8088 
L 256.443545 50.311997 
L 257.807159 47.089733 
L 259.45785 44.530876 
L 261.036771 40.83475 
L 263.046308 37.422941 
L 259.601388 34.769312 
L 259.099004 35.243174 
L 256.443545 32.4 
L 256.443545 32.4 
" clip-path="url(#p5772900ccf)" style="fill: none; stroke: #000000; stroke-width: 3"/>
   </g>
  </g>
 </g>
 <defs>
  <clipPath id="p5772900ccf">
   <rect x="7.2" y="7.2" width="272.916604" height="554.4"/>
  </clipPath>
 </defs>
</svg>
