<?xml version="1.0" encoding="utf-8" standalone="no"?>
<!DOCTYPE svg PUBLIC "-//W3C//DTD SVG 1.1//EN"
  "http://www.w3.org/Graphics/SVG/1.1/DTD/svg11.dtd">
<svg xmlns:xlink="http://www.w3.org/1999/xlink" width="299.241977pt" height="568.8pt" viewBox="0 0 299.241977 568.8" xmlns="http://www.w3.org/2000/svg" version="1.1">
 <metadata>
  <rdf:RDF xmlns:dc="http://purl.org/dc/elements/1.1/" xmlns:cc="http://creativecommons.org/ns#" xmlns:rdf="http://www.w3.org/1999/02/22-rdf-syntax-ns#">
   <cc:Work>
    <dc:type rdf:resource="http://purl.org/dc/dcmitype/StillImage"/>
    <dc:date>2023-09-25T14:14:35.693537</dc:date>
    <dc:format>image/svg+xml</dc:format>
    <dc:creator>
     <cc:Agent>
      <dc:title>Matplotlib v3.6.2, https://matplotlib.org/</dc:title>
     </cc:Agent>
    </dc:creator>
   </cc:Work>
  </rdf:RDF>
 </metadata>
 <defs>
  <style type="text/css">*{stroke-linejoin: round; stroke-linecap: butt}</style>
 </defs>
 <g id="figure_1">
  <g id="patch_1">
   <path d="M 0 568.8 
L 299.241977 568.8 
L 299.241977 0 
L 0 0 
z
" style="fill: #ffffff"/>
  </g>
  <g id="axes_1">
   <g id="LineCollection_1">
    <path d="M 273.907142 33.995234 
L 273.765019 32.869186 
L 275.967918 32.4 
L 277.033837 34.089071 
L 279.094614 35.871979 
L 277.957634 40.65768 
L 276.03898 41.877565 
L 272.983345 48.727686 
L 271.135752 50.792106 
L 269.785588 55.10862 
L 268.293302 55.859319 
L 265.095545 54.827109 
L 263.034768 54.827109 
L 256.212886 53.701061 
L 253.938926 52.668851 
L 251.736027 53.419549 
L 249.746311 55.202458 
L 248.609331 56.985366 
L 248.325086 60.26967 
L 249.248882 63.272463 
L 250.24374 64.116999 
L 255.999703 66.369093 
L 257.705173 68.715025 
L 258.557908 73.594563 
L 259.979134 78.567939 
L 260.618685 81.852244 
L 260.192317 83.728989 
L 257.349867 88.139341 
L 252.375578 91.798995 
L 248.111902 92.831205 
L 246.690677 93.67574 
L 243.563981 96.77237 
L 242.427001 99.869 
L 240.650469 102.590281 
L 238.660754 104.091678 
L 235.391936 105.686911 
L 233.117975 106.249935 
L 229.209606 109.15889 
L 224.94593 113.850754 
L 224.519562 115.258313 
L 220.895438 121.545411 
L 220.753315 122.95297 
L 218.7636 126.987972 
L 215.210536 131.867511 
L 210.37837 135.621002 
L 209.383513 136.840886 
L 207.891226 141.626587 
L 207.749103 148.007522 
L 205.688327 152.324036 
L 203.556489 153.637758 
L 195.810811 157.485087 
L 194.034279 158.04811 
L 190.054848 161.895438 
L 189.273174 163.584509 
L 187.141336 166.399628 
L 186.146479 169.120909 
L 184.938437 170.528468 
L 183.517212 177.566263 
L 184.014641 181.319754 
L 184.867376 182.070452 
L 185.506927 185.167082 
L 186.288601 186.480804 
L 186.857091 191.360343 
L 184.938437 196.61523 
L 184.014641 196.802904 
L 181.314313 201.400931 
L 179.679904 203.653026 
L 174.776676 207.031167 
L 172.147409 210.315472 
L 170.441939 214.350475 
L 170.086633 219.417688 
L 170.299817 221.294433 
L 169.731326 224.297226 
L 170.086633 225.235599 
L 168.523285 227.863042 
L 166.036141 230.771998 
L 160.635484 235.557699 
L 158.503646 237.152932 
L 155.661196 241.469447 
L 153.458297 243.44003 
L 152.463439 245.598287 
L 149.69205 248.882592 
L 144.717761 253.011432 
L 141.448943 254.325154 
L 138.535431 257.515621 
L 136.687838 261.456786 
L 137.327389 271.591212 
L 138.038002 274.312493 
L 137.540573 276.283076 
L 137.895879 279.192031 
L 135.266613 283.602383 
L 133.561142 285.479129 
L 131.642488 286.042152 
L 127.591996 288.106572 
L 124.962729 290.452504 
L 122.475585 294.769019 
L 122.333462 296.739602 
L 120.841176 299.836232 
L 119.277828 304.058909 
L 118.354031 307.906237 
L 116.932806 309.970657 
L 115.156275 313.536474 
L 110.253047 319.072873 
L 106.202555 322.920201 
L 105.34982 324.890784 
L 103.573288 326.016831 
L 101.157205 328.4566 
L 99.16749 331.177881 
L 96.253978 335.869745 
L 95.472304 338.497189 
L 95.614427 340.84312 
L 96.751407 343.564401 
L 99.451735 347.41173 
L 102.081002 349.569987 
L 104.852391 352.666617 
L 105.136636 353.792664 
L 103.928595 356.513945 
L 102.294185 357.73383 
L 100.87296 361.487321 
L 99.096429 364.677788 
L 98.101571 364.865463 
L 97.248836 367.492906 
L 96.253978 367.305232 
L 94.12214 368.806628 
L 94.264262 371.809421 
L 93.766834 373.404655 
L 92.132424 373.686166 
L 92.274547 374.718376 
L 90.640138 378.565705 
L 88.081932 380.817799 
L 87.158136 382.600708 
L 86.518585 386.448036 
L 85.16842 387.011059 
L 82.681276 391.421411 
L 79.128213 396.582461 
L 78.133355 397.239322 
L 77.422743 399.491417 
L 74.793476 402.681884 
L 74.296047 405.215491 
L 72.732699 407.749097 
L 71.595719 408.68747 
L 69.96131 413.473171 
L 67.971594 417.038987 
L 67.900533 418.821895 
L 66.124001 420.510966 
L 65.555511 422.856898 
L 62.570938 425.953528 
L 59.657426 433.085161 
L 58.307262 435.900279 
L 56.672853 438.246211 
L 54.683138 440.122957 
L 54.82526 441.530516 
L 53.759341 445.940868 
L 51.343258 448.380637 
L 50.490523 452.227965 
L 47.50595 459.171923 
L 45.516234 459.64111 
L 45.800479 461.330181 
L 44.521377 463.863787 
L 44.450315 466.397393 
L 42.602722 470.432396 
L 38.978598 472.590654 
L 38.481169 476.15647 
L 34.146432 481.974381 
L 33.649003 484.507987 
L 31.375043 487.416943 
L 30.735491 488.824502 
L 26.75606 494.360901 
L 26.969244 495.580786 
L 26.116509 497.83288 
L 25.263774 498.302067 
L 23.416181 501.774046 
L 21.284343 504.213815 
L 20.147363 504.776839 
L 20.502669 506.747421 
L 23.487242 508.624167 
L 26.116509 511.439285 
L 28.958959 513.879054 
L 32.725207 514.817427 
L 36.136147 517.538708 
L 37.131005 519.040104 
L 38.55223 519.227779 
L 41.32362 520.541501 
L 39.049659 514.817427 
L 43.526519 521.761385 
L 47.292766 525.702551 
L 49.922033 526.734761 
L 59.373181 536.4 
L 54.82526 533.678719 
L 53.759341 533.678719 
L 51.627503 529.925228 
L 47.363827 528.893018 
L 48.713991 528.423832 
L 48.713991 528.423832 
" clip-path="url(#p63103a06ae)" style="fill: none; stroke: #000000; stroke-width: 3"/>
   </g>
  </g>
 </g>
 <defs>
  <clipPath id="p63103a06ae">
   <rect x="7.2" y="7.2" width="284.841977" height="554.4"/>
  </clipPath>
 </defs>
</svg>
