<?xml version="1.0" encoding="utf-8" standalone="no"?>
<!DOCTYPE svg PUBLIC "-//W3C//DTD SVG 1.1//EN"
  "http://www.w3.org/Graphics/SVG/1.1/DTD/svg11.dtd">
<svg xmlns:xlink="http://www.w3.org/1999/xlink" width="283.01219pt" height="568.8pt" viewBox="0 0 283.01219 568.8" xmlns="http://www.w3.org/2000/svg" version="1.1">
 <metadata>
  <rdf:RDF xmlns:dc="http://purl.org/dc/elements/1.1/" xmlns:cc="http://creativecommons.org/ns#" xmlns:rdf="http://www.w3.org/1999/02/22-rdf-syntax-ns#">
   <cc:Work>
    <dc:type rdf:resource="http://purl.org/dc/dcmitype/StillImage"/>
    <dc:date>2023-09-25T14:14:35.620532</dc:date>
    <dc:format>image/svg+xml</dc:format>
    <dc:creator>
     <cc:Agent>
      <dc:title>Matplotlib v3.6.2, https://matplotlib.org/</dc:title>
     </cc:Agent>
    </dc:creator>
   </cc:Work>
  </rdf:RDF>
 </metadata>
 <defs>
  <style type="text/css">*{stroke-linejoin: round; stroke-linecap: butt}</style>
 </defs>
 <g id="figure_1">
  <g id="patch_1">
   <path d="M 0 568.8 
L 283.01219 568.8 
L 283.01219 0 
L 0 0 
z
" style="fill: #ffffff"/>
  </g>
  <g id="axes_1">
   <g id="LineCollection_1">
    <path d="M 28.53771 535.403057 
L 29.155399 535.493688 
L 31.351625 533.046646 
L 32.449738 533.771696 
L 27.508229 536.4 
L 24.419786 535.312426 
L 22.90988 534.315483 
L 22.292192 533.046646 
L 20.301862 533.952958 
L 20.57639 530.871498 
L 19.409645 528.877612 
L 19.958702 526.611832 
L 19.684173 523.892897 
L 20.988183 523.983528 
L 23.458937 518.817551 
L 26.684644 513.923467 
L 27.302333 510.932638 
L 27.988654 510.570113 
L 29.429927 507.126128 
L 32.106578 503.954037 
L 33.067427 500.056896 
L 35.812709 494.98155 
L 37.871671 494.075238 
L 40.342426 491.084409 
L 39.793369 489.906204 
L 41.920963 486.190325 
L 42.401388 483.833915 
L 43.430869 482.836972 
L 44.666246 478.396044 
L 46.45068 477.217839 
L 47.823321 475.314584 
L 48.646906 472.776911 
L 51.186293 469.604819 
L 52.833462 465.707678 
L 54.961056 463.623161 
L 56.74549 460.813595 
L 56.676858 460.179176 
L 59.559405 456.282036 
L 59.284877 455.10383 
L 61.069311 452.384895 
L 61.069311 451.569214 
L 65.736291 443.684301 
L 69.030631 440.330948 
L 68.893366 438.337062 
L 70.197376 435.527495 
L 70.6778 431.630354 
L 71.844545 429.998993 
L 72.599498 427.46132 
L 71.913177 426.826902 
L 73.217187 425.739327 
L 74.109404 423.201654 
L 73.834875 420.029563 
L 76.854686 419.03262 
L 77.403743 416.223053 
L 79.188177 415.22611 
L 82.61978 411.872757 
L 84.335582 410.60392 
L 85.708223 408.247509 
L 87.424025 403.262794 
L 89.071195 401.903327 
L 90.5811 396.737349 
L 96.346194 394.199676 
L 94.2186 391.39011 
L 95.522609 388.036756 
L 97.787467 386.314764 
L 98.336524 384.411509 
L 98.816948 379.789318 
L 101.081807 378.33922 
L 101.287703 376.345334 
L 100.53275 374.985866 
L 98.405156 373.082611 
L 97.238411 372.629455 
L 96.140298 370.907463 
L 94.630392 369.819889 
L 96.963882 365.832117 
L 98.473788 365.016436 
L 100.670014 362.660025 
L 103.621193 357.67531 
L 104.444778 354.59385 
L 105.817419 352.781226 
L 108.562702 346.8902 
L 113.847371 341.180435 
L 116.592654 340.00223 
L 117.896663 340.183492 
L 121.053739 341.724222 
L 122.838172 343.264952 
L 125.171663 344.352527 
L 128.603266 344.261895 
L 132.72119 342.268009 
L 135.878265 339.458443 
L 137.388171 336.467614 
L 137.868595 333.929941 
L 139.309869 332.117317 
L 142.32968 329.217119 
L 146.241708 326.860709 
L 150.496896 321.966625 
L 152.212698 316.800647 
L 152.487226 312.087826 
L 149.947839 306.921849 
L 150.291 302.39029 
L 151.800905 299.036936 
L 155.712933 294.958533 
L 158.526848 293.508434 
L 161.134867 291.514548 
L 162.57614 289.701924 
L 162.9193 287.979932 
L 162.507508 284.354684 
L 162.713404 282.542061 
L 164.635102 277.919871 
L 165.801847 273.025787 
L 167.311753 271.485057 
L 167.105856 269.672433 
L 169.370715 263.146988 
L 172.733686 259.974897 
L 177.606563 254.08387 
L 179.665525 251.00241 
L 180.900902 247.467794 
L 183.920713 243.208128 
L 184.538402 241.486136 
L 186.597364 238.857831 
L 190.715288 236.229527 
L 196.549014 233.963748 
L 201.353259 235.867002 
L 204.167174 235.504478 
L 206.775192 234.507535 
L 208.69689 232.785542 
L 210.961748 229.52282 
L 212.952078 225.988204 
L 214.461984 222.63485 
L 219.266229 214.024888 
L 221.256559 209.040173 
L 223.590049 205.77745 
L 224.550898 203.692933 
L 227.570709 199.61453 
L 229.217879 196.079914 
L 229.904199 195.626758 
L 232.374954 191.820248 
L 233.678963 188.195001 
L 233.816227 185.02291 
L 233.610331 178.95062 
L 234.296652 173.603381 
L 233.884859 169.524978 
L 232.649482 166.534149 
L 231.208209 164.630894 
L 231.345473 161.096278 
L 232.169057 158.558605 
L 235.257501 152.758209 
L 237.796887 149.314224 
L 239.924481 147.410969 
L 245.277783 141.519942 
L 246.924952 138.891638 
L 247.954433 136.353965 
L 247.130848 132.366193 
L 246.719056 128.469052 
L 247.679905 124.300018 
L 247.611273 121.943607 
L 248.915282 119.134041 
L 250.013395 118.227729 
L 251.111508 115.780687 
L 258.180611 111.521021 
L 258.729668 109.527135 
L 257.906083 106.8082 
L 256.258914 105.26747 
L 252.758678 105.176839 
L 248.160329 108.077037 
L 246.444528 108.711455 
L 242.944292 108.258299 
L 241.983443 105.992519 
L 243.424717 101.823485 
L 245.20915 99.467074 
L 247.817169 97.201295 
L 250.287924 93.122892 
L 251.386037 89.9508 
L 252.072357 84.241036 
L 250.562452 81.5221 
L 248.983914 79.528214 
L 245.346415 76.356123 
L 245.140518 73.999712 
L 246.581792 71.643302 
L 248.709386 67.111742 
L 250.150659 65.027225 
L 253.17047 59.498723 
L 253.444999 58.229887 
L 257.906083 51.885704 
L 261.818111 44.000791 
L 262.710328 41.553749 
L 263.602545 40.738069 
L 263.465281 38.472289 
L 261.337687 35.934616 
L 260.78863 36.025247 
L 256.945234 34.121992 
L 253.788159 33.306312 
L 254.199951 32.4 
L 256.396178 33.306312 
L 259.278725 35.300198 
L 260.78863 37.384715 
L 261.474951 37.112821 
L 262.710328 39.559863 
L 255.915753 51.070023 
L 255.503961 52.882647 
L 253.994055 54.967164 
L 252.895942 55.42032 
L 249.327075 52.248229 
L 248.160329 52.248229 
L 248.160329 52.248229 
" clip-path="url(#pa02a8d0123)" style="fill: none; stroke: #000000; stroke-width: 3"/>
   </g>
  </g>
 </g>
 <defs>
  <clipPath id="pa02a8d0123">
   <rect x="7.2" y="7.2" width="268.61219" height="554.4"/>
  </clipPath>
 </defs>
</svg>
