<?xml version="1.0" encoding="utf-8" standalone="no"?>
<!DOCTYPE svg PUBLIC "-//W3C//DTD SVG 1.1//EN"
  "http://www.w3.org/Graphics/SVG/1.1/DTD/svg11.dtd">
<svg xmlns:xlink="http://www.w3.org/1999/xlink" width="267.829933pt" height="568.8pt" viewBox="0 0 267.829933 568.8" xmlns="http://www.w3.org/2000/svg" version="1.1">
 <metadata>
  <rdf:RDF xmlns:dc="http://purl.org/dc/elements/1.1/" xmlns:cc="http://creativecommons.org/ns#" xmlns:rdf="http://www.w3.org/1999/02/22-rdf-syntax-ns#">
   <cc:Work>
    <dc:type rdf:resource="http://purl.org/dc/dcmitype/StillImage"/>
    <dc:date>2023-09-25T14:14:35.377444</dc:date>
    <dc:format>image/svg+xml</dc:format>
    <dc:creator>
     <cc:Agent>
      <dc:title>Matplotlib v3.6.2, https://matplotlib.org/</dc:title>
     </cc:Agent>
    </dc:creator>
   </cc:Work>
  </rdf:RDF>
 </metadata>
 <defs>
  <style type="text/css">*{stroke-linejoin: round; stroke-linecap: butt}</style>
 </defs>
 <g id="figure_1">
  <g id="patch_1">
   <path d="M 0 568.8 
L 267.829933 568.8 
L 267.829933 0 
L 0 0 
z
" style="fill: #ffffff"/>
  </g>
  <g id="axes_1">
   <g id="LineCollection_1">
    <path d="M 32.027793 535.094977 
L 31.303086 536.4 
L 26.559551 532.48493 
L 22.606606 530.22289 
L 21.486604 528.56986 
L 19.905426 529.004868 
L 18.719542 528.56986 
L 20.498368 525.263801 
L 19.576014 522.740756 
L 20.893662 518.47768 
L 23.0019 515.867633 
L 26.757199 514.040601 
L 27.61367 512.735577 
L 26.954846 511.865562 
L 28.799554 509.51652 
L 30.907791 507.776489 
L 32.159558 505.166442 
L 33.608971 504.209425 
L 34.531325 502.295391 
L 33.872501 500.294355 
L 34.728972 498.641326 
L 34.39956 496.901295 
L 34.860737 495.422268 
L 36.178386 494.465251 
L 38.484271 491.420197 
L 38.879565 489.245158 
L 40.592508 487.592128 
L 41.910157 484.808079 
L 42.832511 484.025065 
L 44.677219 480.196996 
L 44.808984 478.630968 
L 46.258397 477.760953 
L 48.564282 473.584878 
L 49.157224 470.017815 
L 52.121933 466.885759 
L 54.361936 465.667737 
L 54.823113 464.188711 
L 57.590174 458.881616 
L 57.063115 452.878509 
L 58.907823 450.18146 
L 61.213708 447.91942 
L 62.663121 445.222372 
L 68.724305 437.392232 
L 69.976071 434.695184 
L 70.50313 432.346142 
L 73.401957 428.083066 
L 73.336075 425.212015 
L 74.456076 423.906991 
L 74.192546 423.123977 
L 77.55255 418.7739 
L 82.757262 413.292802 
L 82.296085 411.204764 
L 82.889027 410.94376 
L 84.07491 408.333713 
L 86.446678 405.201657 
L 89.279622 399.372553 
L 90.531388 395.892491 
L 92.639626 393.717452 
L 94.023157 390.585396 
L 95.538453 388.758364 
L 95.99963 386.32232 
L 97.91022 385.365303 
L 98.437279 382.059244 
L 96.197277 379.275194 
L 94.352569 378.405179 
L 92.903155 375.186121 
L 93.232568 373.533092 
L 94.879628 370.836044 
L 97.91022 368.487002 
L 100.150222 364.658933 
L 101.533753 360.656862 
L 103.641991 356.132781 
L 107.792584 350.129674 
L 110.296116 347.867633 
L 113.194943 346.475608 
L 123.802014 350.390678 
L 127.49143 349.259658 
L 130.719669 346.475608 
L 131.444375 345.43159 
L 133.882025 338.471466 
L 138.098501 334.730399 
L 143.303212 331.511341 
L 144.423214 329.423304 
L 144.884391 327.161264 
L 146.136157 324.72522 
L 147.256158 321.071155 
L 147.453805 319.244122 
L 145.938509 315.938063 
L 145.082038 312.022993 
L 145.543215 308.716934 
L 146.663216 307.237908 
L 147.190275 304.366857 
L 148.837336 302.626825 
L 155.557344 299.668773 
L 156.940875 298.015743 
L 157.863229 294.622683 
L 157.204404 292.099637 
L 157.599699 290.185603 
L 158.587935 289.315588 
L 159.312642 284.443501 
L 160.827938 279.136406 
L 162.409116 277.222372 
L 164.187942 272.263283 
L 169.195006 267.04319 
L 171.566774 263.911134 
L 173.477364 259.996064 
L 173.740894 258.691041 
L 175.585602 256.603004 
L 178.945605 249.729881 
L 180.526784 248.337856 
L 183.95267 246.162817 
L 189.684441 244.857794 
L 194.493858 245.988814 
L 197.26092 245.466805 
L 199.105628 245.640808 
L 201.016218 244.248783 
L 202.333867 241.638736 
L 203.453868 240.594718 
L 204.705634 238.071673 
L 205.693871 237.027654 
L 208.131521 231.546556 
L 210.371523 227.544485 
L 212.216231 224.847437 
L 213.995057 220.758364 
L 219.002121 212.232211 
L 219.858593 210.057172 
L 222.362125 206.751113 
L 223.877421 203.967064 
L 224.733892 198.74697 
L 225.326834 197.180943 
L 225.853894 191.43884 
L 226.380953 189.78581 
L 226.249188 186.740756 
L 225.392717 183.173692 
L 222.691537 177.257587 
L 222.691537 175.691559 
L 224.338598 170.993475 
L 227.039777 166.208389 
L 232.969196 158.291248 
L 237.317436 154.028172 
L 238.305672 152.201139 
L 238.898614 149.41709 
L 238.371555 143.500984 
L 239.228026 138.715898 
L 239.096261 137.149871 
L 239.689203 135.061833 
L 241.797441 131.49477 
L 246.343328 127.840704 
L 248.253919 126.970689 
L 249.11039 124.447644 
L 248.385684 122.0116 
L 246.409211 120.271569 
L 243.444502 120.010564 
L 240.809205 120.793578 
L 239.689203 122.272605 
L 237.449201 123.925634 
L 234.616256 122.968617 
L 233.298608 121.141585 
L 234.286844 118.879544 
L 236.263317 116.443501 
L 238.766849 111.832418 
L 240.67744 109.570378 
L 242.390383 105.307302 
L 242.917442 102.697255 
L 242.983325 100.17421 
L 239.162144 95.476126 
L 234.945669 93.040083 
L 230.333899 90.952046 
L 224.075068 90.430036 
L 221.637418 89.125013 
L 219.595063 89.386018 
L 219.990358 85.644951 
L 218.540944 83.469912 
L 219.463298 79.728845 
L 218.672709 78.249819 
L 217.157413 78.597825 
L 214.917411 77.553806 
L 211.162112 76.770792 
L 206.682107 73.899741 
L 202.13622 72.15971 
L 198.710334 69.89767 
L 196.865626 68.157639 
L 195.0868 67.548628 
L 192.64915 65.895598 
L 191.726796 64.416572 
L 189.882088 64.677576 
L 187.576203 63.024547 
L 184.545612 62.676541 
L 181.77855 59.805489 
L 183.162081 54.933402 
L 182.173844 52.671362 
L 177.562074 50.235318 
L 175.124425 48.321284 
L 174.202071 46.581253 
L 171.171479 45.624236 
L 170.11736 43.971207 
L 166.757356 42.927188 
L 165.900885 43.536199 
L 165.307943 41.36116 
L 167.086768 38.925117 
L 168.470299 37.707095 
L 168.931476 35.967064 
L 170.249125 34.401036 
L 168.997359 32.4 
L 168.338535 33.53102 
L 169.722066 37.881098 
L 168.20677 37.098084 
L 168.009122 38.490109 
L 170.446772 38.490109 
L 172.159715 40.143138 
L 174.597365 41.36116 
L 175.651484 42.840186 
L 178.023251 43.101191 
L 180.263254 44.14521 
L 184.018552 44.928224 
L 185.336201 47.451269 
L 185.270318 49.104298 
L 181.77855 54.411393 
L 181.580902 55.977421 
L 180.592666 57.630451 
L 180.592666 59.718488 
L 181.646785 60.93651 
L 183.820905 61.54552 
L 187.839733 63.894562 
L 191.858561 64.677576 
L 192.978562 65.9826 
L 194.691505 66.243604 
L 195.877389 67.374625 
L 200.291512 70.50668 
L 202.926809 73.29073 
L 204.57387 74.508752 
L 208.065638 74.856758 
L 208.592698 72.942724 
L 210.964465 70.419679 
L 214.653881 73.029726 
L 218.475062 73.203729 
L 219.331533 72.507716 
L 220.122122 73.464733 
L 222.164478 70.419679 
L 223.811538 70.158674 
L 223.877421 68.940653 
L 224.93154 68.331642 
L 226.908012 65.373589 
L 227.171542 64.32957 
L 229.675074 64.677576 
L 232.442136 67.11362 
L 233.62802 66.852615 
L 236.526847 69.027654 
L 238.700967 69.288659 
L 238.700967 69.288659 
" clip-path="url(#pa2c01a5aac)" style="fill: none; stroke: #000000; stroke-width: 3"/>
   </g>
  </g>
 </g>
 <defs>
  <clipPath id="pa2c01a5aac">
   <rect x="7.2" y="7.2" width="253.429933" height="554.4"/>
  </clipPath>
 </defs>
</svg>
