<?xml version="1.0" encoding="utf-8" standalone="no"?>
<!DOCTYPE svg PUBLIC "-//W3C//DTD SVG 1.1//EN"
  "http://www.w3.org/Graphics/SVG/1.1/DTD/svg11.dtd">
<svg xmlns:xlink="http://www.w3.org/1999/xlink" width="297.015032pt" height="568.8pt" viewBox="0 0 297.015032 568.8" xmlns="http://www.w3.org/2000/svg" version="1.1">
 <metadata>
  <rdf:RDF xmlns:dc="http://purl.org/dc/elements/1.1/" xmlns:cc="http://creativecommons.org/ns#" xmlns:rdf="http://www.w3.org/1999/02/22-rdf-syntax-ns#">
   <cc:Work>
    <dc:type rdf:resource="http://purl.org/dc/dcmitype/StillImage"/>
    <dc:date>2023-09-25T14:14:35.315819</dc:date>
    <dc:format>image/svg+xml</dc:format>
    <dc:creator>
     <cc:Agent>
      <dc:title>Matplotlib v3.6.2, https://matplotlib.org/</dc:title>
     </cc:Agent>
    </dc:creator>
   </cc:Work>
  </rdf:RDF>
 </metadata>
 <defs>
  <style type="text/css">*{stroke-linejoin: round; stroke-linecap: butt}</style>
 </defs>
 <g id="figure_1">
  <g id="patch_1">
   <path d="M 0 568.8 
L 297.015032 568.8 
L 297.015032 0 
L 0 0 
z
" style="fill: #ffffff"/>
  </g>
  <g id="axes_1">
   <g id="LineCollection_1">
    <path d="M 271.664956 32.4 
L 275.978826 33.800778 
L 276.968894 35.201556 
L 276.120264 40.431128 
L 274.705881 40.617899 
L 272.796463 43.419455 
L 272.372148 45.847471 
L 271.31136 46.687938 
L 270.109135 49.863035 
L 270.46273 51.170428 
L 268.76547 51.91751 
L 267.492525 54.625681 
L 266.502457 55.185992 
L 262.966498 54.06537 
L 257.945437 53.224903 
L 254.480197 52.944747 
L 252.853656 51.170428 
L 251.085677 51.077043 
L 248.751944 52.757977 
L 248.469068 53.878599 
L 246.064616 58.174319 
L 245.993896 60.135409 
L 246.771807 62.189883 
L 249.176259 63.590661 
L 252.853656 64.711284 
L 255.470266 67.699611 
L 256.389615 70.127626 
L 256.672492 73.302724 
L 258.016156 77.411673 
L 258.369752 80.58677 
L 257.733279 84.88249 
L 252.50006 89.925292 
L 250.024889 91.32607 
L 247.054684 91.699611 
L 243.730883 93.567315 
L 242.175061 95.901946 
L 240.265643 101.131518 
L 237.295438 103.372763 
L 233.052288 104.773541 
L 231.284308 105.707393 
L 227.889788 106.080934 
L 227.960507 106.641245 
L 223.646638 111.497276 
L 220.110679 118.968093 
L 219.049891 122.983658 
L 216.291844 127.746304 
L 213.958111 130.267704 
L 209.997837 133.629572 
L 206.249721 136.150973 
L 205.896125 139.699611 
L 206.32044 145.022568 
L 204.552461 150.25214 
L 202.07729 152.306615 
L 200.167872 152.866926 
L 197.692701 154.361089 
L 196.985509 154.174319 
L 194.227462 155.575097 
L 189.701435 159.590661 
L 187.226263 163.419455 
L 186.236195 163.792996 
L 184.96325 166.034241 
L 182.134483 172.10428 
L 182.629517 176.866926 
L 183.761024 181.816342 
L 184.609654 184.337743 
L 185.175407 187.699611 
L 185.033969 190.407782 
L 184.326777 194.143191 
L 181.356572 198.345525 
L 180.578661 200.21323 
L 177.962052 202.54786 
L 171.102292 208.057588 
L 169.54647 210.205447 
L 169.122155 213.567315 
L 169.475751 216.462257 
L 169.405032 220.197665 
L 168.839278 222.999222 
L 167.778491 224.960311 
L 164.949724 228.88249 
L 159.009313 232.804669 
L 153.563937 239.528405 
L 152.078834 242.329961 
L 149.674382 245.598444 
L 145.57267 248.493385 
L 139.137226 254.189883 
L 137.581404 255.964202 
L 136.025582 260.446693 
L 135.459829 265.582879 
L 135.671986 268.944747 
L 136.944931 274.921401 
L 136.23774 279.497276 
L 135.31839 281.458366 
L 132.560343 284.353307 
L 126.973528 285.754086 
L 125.417706 285.754086 
L 125.205548 286.874708 
L 122.730377 290.516732 
L 121.033117 295.559533 
L 119.90161 297.240467 
L 119.689453 299.855253 
L 119.1237 300.228794 
L 115.163426 307.886381 
L 114.456234 310.407782 
L 110.990995 315.357198 
L 106.818563 319.185992 
L 104.484831 320.58677 
L 103.211886 322.174319 
L 102.00966 324.88249 
L 98.898016 328.150973 
L 97.554352 330.672374 
L 96.705722 331.1393 
L 95.927811 333.567315 
L 94.937742 334.687938 
L 93.664797 338.049805 
L 95.715653 342.25214 
L 99.110174 347.201556 
L 101.93894 348.602335 
L 103.141166 351.403891 
L 103.141166 352.898054 
L 100.878153 355.699611 
L 98.473701 360.835798 
L 97.130037 361.396109 
L 95.362057 364.477821 
L 95.99853 368.306615 
L 94.30127 369.053696 
L 93.594078 372.88249 
L 92.179695 376.057588 
L 91.967537 379.979767 
L 89.845962 382.501167 
L 87.865825 384.182101 
L 87.229352 386.796887 
L 84.259147 389.505058 
L 83.905551 392.119844 
L 81.006065 394.828016 
L 80.369593 397.349416 
L 78.813771 400.524514 
L 76.621476 403.1393 
L 74.146305 406.874708 
L 72.87336 410.143191 
L 71.600415 410.703502 
L 70.256751 412.664591 
L 65.660005 417.053696 
L 64.033464 424.244358 
L 62.265484 427.792996 
L 59.719594 430.221012 
L 58.941683 431.995331 
L 58.729526 435.450584 
L 57.385861 438.438911 
L 55.052129 442.080934 
L 54.769252 444.602335 
L 52.930553 447.123735 
L 51.304012 451.792996 
L 48.899561 453.567315 
L 44.939287 459.263813 
L 43.100588 462.719066 
L 41.969082 466.174319 
L 41.969082 467.481712 
L 39.918226 468.415564 
L 38.079527 471.870817 
L 36.523705 473.084825 
L 35.816513 480.275486 
L 34.685007 479.901946 
L 29.31035 486.905837 
L 28.249562 489.987549 
L 28.603158 490.921401 
L 27.259494 492.228794 
L 26.976617 493.629572 
L 25.420795 495.497276 
L 24.925761 497.458366 
L 21.036206 502.594553 
L 20.046138 504.555642 
L 21.743398 505.396109 
L 26.69374 505.95642 
L 29.663945 507.450584 
L 30.724733 508.571206 
L 34.614288 509.785214 
L 35.957952 512.026459 
L 37.655212 512.773541 
L 38.716 514.454475 
L 41.049732 515.388327 
L 43.454184 518.003113 
L 45.858636 519.03035 
L 49.323876 521.738521 
L 53.496307 523.792996 
L 57.173704 527.435019 
L 59.365998 526.594553 
L 61.982608 527.435019 
L 62.336203 528.462257 
L 61.699731 533.598444 
L 60.780382 536.4 
L 58.093053 535.185992 
L 57.810176 532.384436 
L 58.163772 529.863035 
L 55.617882 527.715175 
L 55.617882 527.715175 
" clip-path="url(#p4bf143ab2f)" style="fill: none; stroke: #000000; stroke-width: 3"/>
   </g>
  </g>
 </g>
 <defs>
  <clipPath id="p4bf143ab2f">
   <rect x="7.2" y="7.2" width="282.615032" height="554.4"/>
  </clipPath>
 </defs>
</svg>
