<?xml version="1.0" encoding="utf-8" standalone="no"?>
<!DOCTYPE svg PUBLIC "-//W3C//DTD SVG 1.1//EN"
  "http://www.w3.org/Graphics/SVG/1.1/DTD/svg11.dtd">
<svg xmlns:xlink="http://www.w3.org/1999/xlink" width="274.411625pt" height="568.8pt" viewBox="0 0 274.411625 568.8" xmlns="http://www.w3.org/2000/svg" version="1.1">
 <metadata>
  <rdf:RDF xmlns:dc="http://purl.org/dc/elements/1.1/" xmlns:cc="http://creativecommons.org/ns#" xmlns:rdf="http://www.w3.org/1999/02/22-rdf-syntax-ns#">
   <cc:Work>
    <dc:type rdf:resource="http://purl.org/dc/dcmitype/StillImage"/>
    <dc:date>2023-09-25T14:14:35.254230</dc:date>
    <dc:format>image/svg+xml</dc:format>
    <dc:creator>
     <cc:Agent>
      <dc:title>Matplotlib v3.6.2, https://matplotlib.org/</dc:title>
     </cc:Agent>
    </dc:creator>
   </cc:Work>
  </rdf:RDF>
 </metadata>
 <defs>
  <style type="text/css">*{stroke-linejoin: round; stroke-linecap: butt}</style>
 </defs>
 <g id="figure_1">
  <g id="patch_1">
   <path d="M 0 568.8 
L 274.411625 568.8 
L 274.411625 0 
L 0 0 
z
" style="fill: #ffffff"/>
  </g>
  <g id="axes_1">
   <g id="LineCollection_1">
    <path d="M 30.056155 534.292683 
L 29.657212 536.4 
L 27.39653 535.785366 
L 27.330039 534.380488 
L 23.872527 533.502439 
L 21.944298 533.765854 
L 20.215542 533.326829 
L 19.01871 532.185366 
L 19.883088 527.531707 
L 21.07992 524.546341 
L 22.808676 521.560976 
L 25.069358 518.4 
L 25.867246 513.219512 
L 26.399171 513.131707 
L 27.529511 510.409756 
L 28.659852 510.321951 
L 30.322118 507.24878 
L 30.654571 505.141463 
L 33.71314 498.731707 
L 35.508387 494.429268 
L 36.173294 493.726829 
L 36.372766 491.004878 
L 37.237144 491.092683 
L 39.098882 489.160976 
L 40.229223 487.317073 
L 41.426054 483.365854 
L 42.556395 481.785366 
L 46.346361 478.8 
L 48.540552 475.112195 
L 50.136327 473.707317 
L 52.52999 470.634146 
L 53.460859 468.087805 
L 53.327877 464.75122 
L 54.125765 463.697561 
L 55.987503 458.517073 
L 57.450297 456.497561 
L 57.583278 453.95122 
L 58.647128 452.546341 
L 60.841319 451.756098 
L 60.575357 449.385366 
L 66.094079 442.360976 
L 66.825476 436.829268 
L 69.152648 436.565854 
L 72.809633 433.229268 
L 73.075596 430.946341 
L 74.870843 427.960976 
L 76.001184 427.258537 
L 76.267146 424.536585 
L 76.998543 422.165854 
L 79.724659 421.02439 
L 81.85236 418.478049 
L 84.113041 414.35122 
L 85.708816 412.419512 
L 87.371082 408.204878 
L 88.966857 406.360976 
L 89.698254 403.02439 
L 90.895086 401.707317 
L 90.895086 399.687805 
L 92.025427 396.965854 
L 93.621202 394.243902 
L 93.754183 392.57561 
L 94.48558 392.22439 
L 94.884524 390.117073 
L 96.280827 387.834146 
L 97.743621 386.780488 
L 98.275546 385.55122 
L 96.746262 383.004878 
L 93.754183 381.6 
L 93.022786 380.370732 
L 92.35788 377.297561 
L 92.490861 375.365854 
L 93.48822 372.819512 
L 96.679771 371.414634 
L 98.607999 369.921951 
L 99.605359 366.321951 
L 102.796909 359.297561 
L 105.855478 355.873171 
L 108.249141 351.921951 
L 110.642804 349.726829 
L 114.033826 348.936585 
L 116.427489 349.639024 
L 118.156246 350.780488 
L 122.212174 352.536585 
L 123.143043 352.009756 
L 126.135122 352.185366 
L 127.664406 350.692683 
L 130.058069 349.463415 
L 131.853316 346.917073 
L 131.720335 346.126829 
L 134.579432 341.473171 
L 137.305548 338.4 
L 141.959893 336.380488 
L 142.890762 334.8 
L 144.553028 333.307317 
L 146.680728 329.707317 
L 147.212653 326.897561 
L 147.478615 322.858537 
L 146.680728 319.434146 
L 145.483896 317.063415 
L 145.018462 314.956098 
L 145.284425 311.180488 
L 146.481256 308.985366 
L 148.874919 306 
L 151.468053 304.946341 
L 154.393641 301.960976 
L 155.391001 301.873171 
L 157.851154 299.765854 
L 156.986776 296.780488 
L 157.053267 293.268293 
L 158.183608 289.404878 
L 158.981495 289.580488 
L 159.712892 286.858537 
L 159.180967 282.819512 
L 161.840592 278.868293 
L 162.904443 275.795122 
L 167.625278 272.282927 
L 168.290184 270.526829 
L 170.484375 269.736585 
L 172.412603 266.04878 
L 173.011019 262.360976 
L 174.008378 260.868293 
L 174.340832 259.112195 
L 175.471172 257.004878 
L 178.596232 252.439024 
L 180.524461 250.068293 
L 183.981974 247.960976 
L 188.370355 247.082927 
L 189.301224 245.765854 
L 192.625756 246.907317 
L 195.817306 247.170732 
L 198.144479 246.995122 
L 200.804104 245.502439 
L 202.133917 243.395122 
L 203.264258 242.517073 
L 204.52758 239.882927 
L 206.455808 238.039024 
L 207.71913 235.229268 
L 208.184564 232.507317 
L 209.181924 230.926829 
L 210.977171 230.57561 
L 212.439965 228.292683 
L 214.767137 222.409756 
L 217.360272 218.458537 
L 217.293781 217.141463 
L 219.089028 213.629268 
L 220.418841 212.312195 
L 222.546541 207.921951 
L 224.142317 206.517073 
L 224.47477 203.443902 
L 226.270017 200.897561 
L 226.402998 199.141463 
L 228.131755 197.297561 
L 226.668961 193.346341 
L 226.137036 189.131707 
L 226.270017 184.565854 
L 225.605111 182.107317 
L 223.47741 177.892683 
L 223.47741 175.346341 
L 225.206167 171.307317 
L 227.998773 166.478049 
L 230.059983 163.492683 
L 231.921721 162 
L 234.714327 158.926829 
L 235.911159 158.04878 
L 238.038859 155.326829 
L 239.1692 153.307317 
L 239.634634 150.234146 
L 239.235691 144.614634 
L 239.834106 139.521951 
L 241.030938 134.253659 
L 242.29426 131.795122 
L 244.023016 130.039024 
L 246.017735 128.721951 
L 249.940683 126.878049 
L 250.539098 125.209756 
L 249.076304 121.258537 
L 247.148076 119.590244 
L 241.097428 121.521951 
L 239.302181 123.453659 
L 237.706406 123.717073 
L 235.113271 122.75122 
L 234.847309 119.326829 
L 237.174481 115.639024 
L 239.834106 112.653659 
L 242.826185 107.912195 
L 243.757054 104.4 
L 243.624072 99.131707 
L 241.961807 96.321951 
L 240.499013 96.146341 
L 238.504294 93.512195 
L 236.243612 92.195122 
L 235.113271 92.107317 
L 230.325946 90 
L 219.820425 87.804878 
L 220.219369 84.468293 
L 218.956047 83.678049 
L 219.620954 80.868293 
L 219.22201 78.058537 
L 220.152879 74.458537 
L 222.081107 74.546341 
L 224.275298 71.560976 
L 225.605111 67.609756 
L 225.671601 64.97561 
L 227.134395 63.921951 
L 228.929642 60.146341 
L 229.262095 58.302439 
L 231.389796 56.019512 
L 234.581346 50.75122 
L 235.113271 48.819512 
L 236.842028 46.097561 
L 238.903237 43.814634 
L 239.435163 42.146341 
L 241.762335 37.229268 
L 243.291619 32.4 
L 244.155998 34.946341 
L 245.219848 35.64878 
L 246.017735 38.546341 
L 251.071023 39.160976 
L 252.999252 40.741463 
L 252.733289 43.2 
L 253.265214 46.097561 
L 252.733289 46.712195 
L 254.063102 49.960976 
L 253.730649 52.770732 
L 255.392915 55.229268 
L 254.063102 56.809756 
L 253.730649 58.390244 
L 250.339627 63.921951 
L 249.275776 66.204878 
L 247.879473 67.873171 
L 246.815623 71.034146 
L 244.222488 72.526829 
L 239.900597 68.57561 
L 239.900597 68.57561 
" clip-path="url(#p83b45df868)" style="fill: none; stroke: #000000; stroke-width: 3"/>
   </g>
  </g>
 </g>
 <defs>
  <clipPath id="p83b45df868">
   <rect x="7.2" y="7.2" width="260.011625" height="554.4"/>
  </clipPath>
 </defs>
</svg>
