<?xml version="1.0" encoding="utf-8" standalone="no"?>
<!DOCTYPE svg PUBLIC "-//W3C//DTD SVG 1.1//EN"
  "http://www.w3.org/Graphics/SVG/1.1/DTD/svg11.dtd">
<svg xmlns:xlink="http://www.w3.org/1999/xlink" width="286.922027pt" height="568.8pt" viewBox="0 0 286.922027 568.8" xmlns="http://www.w3.org/2000/svg" version="1.1">
 <metadata>
  <rdf:RDF xmlns:dc="http://purl.org/dc/elements/1.1/" xmlns:cc="http://creativecommons.org/ns#" xmlns:rdf="http://www.w3.org/1999/02/22-rdf-syntax-ns#">
   <cc:Work>
    <dc:type rdf:resource="http://purl.org/dc/dcmitype/StillImage"/>
    <dc:date>2023-09-25T14:14:35.134031</dc:date>
    <dc:format>image/svg+xml</dc:format>
    <dc:creator>
     <cc:Agent>
      <dc:title>Matplotlib v3.6.2, https://matplotlib.org/</dc:title>
     </cc:Agent>
    </dc:creator>
   </cc:Work>
  </rdf:RDF>
 </metadata>
 <defs>
  <style type="text/css">*{stroke-linejoin: round; stroke-linecap: butt}</style>
 </defs>
 <g id="figure_1">
  <g id="patch_1">
   <path d="M 0 568.8 
L 286.922027 568.8 
L 286.922027 0 
L 0 0 
z
" style="fill: #ffffff"/>
  </g>
  <g id="axes_1">
   <g id="LineCollection_1">
    <path d="M 31.118721 527.244856 
L 25.529904 536.4 
L 22.275657 532.943466 
L 19.587365 531.729008 
L 20.719277 528.926413 
L 21.780445 527.711956 
L 24.893204 521.172567 
L 26.09586 517.809453 
L 27.440006 515.754217 
L 28.28894 512.110843 
L 29.208619 511.456905 
L 30.340531 508.18721 
L 31.684677 507.253012 
L 33.594779 503.703058 
L 36.070837 500.339944 
L 36.778282 498.284708 
L 37.20275 499.312326 
L 38.688384 497.817609 
L 40.174019 494.547915 
L 41.942632 489.503244 
L 43.640501 487.728267 
L 45.409113 483.430955 
L 49.087828 477.919184 
L 50.714952 474.088971 
L 53.615477 470.071918 
L 55.454835 466.615385 
L 57.011214 462.411492 
L 59.13355 459.048378 
L 59.204294 457.83392 
L 61.609608 452.695829 
L 61.680352 451.855051 
L 63.51971 448.959036 
L 65.359067 447.837998 
L 67.552147 443.167006 
L 69.32076 441.859129 
L 69.037782 440.551251 
L 69.674483 438.309175 
L 71.726074 435.226321 
L 73.282453 431.863207 
L 75.263299 430.08823 
L 76.041489 427.752734 
L 77.951591 424.66988 
L 78.517547 422.427804 
L 81.135094 419.998888 
L 82.47924 414.206858 
L 83.611152 413.833179 
L 84.389342 411.777943 
L 85.804232 409.816126 
L 89.341458 407.76089 
L 89.270714 405.799073 
L 91.959005 402.435959 
L 92.454217 400.287303 
L 95.00102 397.204449 
L 97.8308 391.786098 
L 99.104202 390.94532 
L 100.236114 386.554588 
L 102.075471 383.098054 
L 103.136639 381.977016 
L 106.178653 376.558665 
L 106.461631 373.102132 
L 105.612697 371.794254 
L 102.004727 369.085079 
L 100.660581 367.403522 
L 100.094625 365.348285 
L 101.509515 362.452271 
L 105.471208 358.715477 
L 108.1595 352.456348 
L 110.494069 347.878777 
L 112.333426 343.674884 
L 116.295119 338.630213 
L 118.841922 336.761816 
L 121.105746 336.014458 
L 125.208928 336.481557 
L 128.887643 338.723633 
L 132.071146 339.657831 
L 136.174328 338.536793 
L 140.065277 335.453939 
L 142.965802 329.848749 
L 145.512605 325.831696 
L 147.988663 323.77646 
L 152.091845 321.440964 
L 154.99237 317.98443 
L 157.326939 312.005561 
L 157.963639 307.895088 
L 157.539172 305.092493 
L 156.265771 302.289898 
L 155.699815 297.899166 
L 156.265771 295.283411 
L 157.892895 292.574235 
L 160.581187 289.678221 
L 166.523726 285.661168 
L 168.787551 282.391474 
L 168.858295 277.813902 
L 171.12212 269.779796 
L 172.112543 265.389064 
L 173.598178 261.465431 
L 176.640192 255.766821 
L 178.33806 253.524745 
L 182.158264 250.161631 
L 184.068366 247.639296 
L 186.756658 242.874884 
L 187.747081 239.885449 
L 189.374205 236.428916 
L 191.425796 233.159222 
L 194.397066 229.515848 
L 199.985882 227.367192 
L 202.744919 226.619833 
L 209.536392 227.834291 
L 212.295428 227.460612 
L 214.064041 226.526413 
L 216.469355 224.190918 
L 219.086902 220.080445 
L 220.218814 217.651529 
L 225.383164 208.402966 
L 227.929966 204.199073 
L 228.566667 202.143837 
L 232.952827 195.04393 
L 233.94325 192.988693 
L 239.461323 183.086191 
L 240.805468 180.190176 
L 241.937381 176.453383 
L 241.725147 171.408712 
L 242.291103 162.440408 
L 242.220359 160.758851 
L 241.017702 157.675996 
L 239.602812 155.71418 
L 238.753877 153.565524 
L 239.178345 150.576089 
L 240.52249 147.306395 
L 244.767161 139.832808 
L 251.700124 132.265802 
L 254.034693 130.303985 
L 255.308094 128.435589 
L 256.227773 125.539574 
L 255.449583 118.533086 
L 255.803306 115.543652 
L 257.076707 109.564782 
L 258.20862 106.201668 
L 259.057554 104.893791 
L 262.028823 102.184615 
L 265.778283 99.84912 
L 267.334662 97.513624 
L 267.263918 95.551807 
L 266.273494 93.77683 
L 264.717115 92.749212 
L 261.604356 92.936052 
L 257.571919 95.645227 
L 254.883627 96.486006 
L 253.04427 96.018906 
L 251.275657 93.77683 
L 251.063423 90.974235 
L 253.04427 87.891381 
L 255.025116 85.929564 
L 257.43043 82.84671 
L 260.4017 76.587581 
L 260.967656 73.504727 
L 260.543189 71.35607 
L 259.128298 69.113994 
L 256.722985 66.591659 
L 253.397992 64.256163 
L 250.285234 62.574606 
L 247.455453 61.640408 
L 242.220359 60.799629 
L 236.065586 59.118072 
L 235.782608 56.782576 
L 234.579951 52.672104 
L 235.782608 49.776089 
L 235.145907 48.187952 
L 235.570374 45.852456 
L 237.69271 42.302502 
L 240.734724 36.323633 
L 242.644826 33.053939 
L 244.201205 32.4 
L 255.732561 38.565709 
L 256.298518 39.499907 
L 256.298518 39.499907 
" clip-path="url(#pf73ee56981)" style="fill: none; stroke: #000000; stroke-width: 3"/>
   </g>
  </g>
 </g>
 <defs>
  <clipPath id="pf73ee56981">
   <rect x="7.2" y="7.2" width="272.522027" height="554.4"/>
  </clipPath>
 </defs>
</svg>
