<?xml version="1.0" encoding="utf-8" standalone="no"?>
<!DOCTYPE svg PUBLIC "-//W3C//DTD SVG 1.1//EN"
  "http://www.w3.org/Graphics/SVG/1.1/DTD/svg11.dtd">
<svg xmlns:xlink="http://www.w3.org/1999/xlink" width="273.920773pt" height="568.8pt" viewBox="0 0 273.920773 568.8" xmlns="http://www.w3.org/2000/svg" version="1.1">
 <metadata>
  <rdf:RDF xmlns:dc="http://purl.org/dc/elements/1.1/" xmlns:cc="http://creativecommons.org/ns#" xmlns:rdf="http://www.w3.org/1999/02/22-rdf-syntax-ns#">
   <cc:Work>
    <dc:type rdf:resource="http://purl.org/dc/dcmitype/StillImage"/>
    <dc:date>2023-09-25T14:14:34.948358</dc:date>
    <dc:format>image/svg+xml</dc:format>
    <dc:creator>
     <cc:Agent>
      <dc:title>Matplotlib v3.6.2, https://matplotlib.org/</dc:title>
     </cc:Agent>
    </dc:creator>
   </cc:Work>
  </rdf:RDF>
 </metadata>
 <defs>
  <style type="text/css">*{stroke-linejoin: round; stroke-linecap: butt}</style>
 </defs>
 <g id="figure_1">
  <g id="patch_1">
   <path d="M 0 568.8 
L 273.920773 568.8 
L 273.920773 0 
L 0 0 
z
" style="fill: #ffffff"/>
  </g>
  <g id="axes_1">
   <g id="LineCollection_1">
    <path d="M 29.424522 536.4 
L 25.239988 535.786008 
L 23.778723 534.908876 
L 21.055455 532.452906 
L 19.394926 531.838914 
L 18.996399 530.435503 
L 20.656928 526.839262 
L 22.051772 527.628681 
L 22.450299 524.909572 
L 23.513038 522.892168 
L 23.513038 520.699339 
L 24.77504 519.471354 
L 26.103463 516.05054 
L 28.096098 512.717438 
L 29.623785 511.40174 
L 31.417157 504.998677 
L 33.87474 500.876157 
L 32.479895 497.630769 
L 33.210528 495.525653 
L 34.406109 495.437939 
L 34.937478 494.297668 
L 37.527904 493.595962 
L 38.856327 492.631117 
L 39.454117 490.087435 
L 39.58696 487.192899 
L 41.712437 485.087783 
L 43.505808 482.368674 
L 46.893288 479.474139 
L 47.491078 474.737626 
L 48.819502 472.895649 
L 51.277085 472.895649 
L 51.077821 471.404525 
L 51.808454 470.43968 
L 51.675612 468.685416 
L 52.671929 466.668013 
L 52.804771 464.299756 
L 53.933931 461.9315 
L 56.12583 460.26495 
L 57.520674 459.73867 
L 59.048361 455.265298 
L 61.83805 451.055064 
L 61.970892 447.897389 
L 63.697842 446.318552 
L 64.229212 442.810024 
L 66.487531 440.354055 
L 67.018901 434.564984 
L 69.80859 430.267038 
L 72.863963 426.144518 
L 74.125965 425.179673 
L 74.923019 423.425409 
L 75.255125 419.215176 
L 77.513445 415.531222 
L 79.306816 415.004943 
L 82.36219 410.970136 
L 82.561453 408.426453 
L 81.83082 406.496763 
L 82.495032 404.830212 
L 82.428611 400.970832 
L 82.827138 400.444553 
L 85.2183 401.584824 
L 85.351142 400.707692 
L 87.410198 398.427149 
L 88.472937 398.514863 
L 91.063362 392.813505 
L 92.126101 392.374939 
L 94.185157 389.217264 
L 97.306952 387.463 
L 98.170427 386.498155 
L 96.908425 384.042186 
L 93.720209 380.445945 
L 92.723891 377.55141 
L 93.255261 374.481448 
L 94.583684 372.814897 
L 96.64274 371.148347 
L 98.635375 367.902959 
L 102.288539 359.921058 
L 104.347595 356.149391 
L 108.997076 350.184894 
L 109.395603 348.69377 
L 110.657606 347.728924 
L 111.720344 348.606056 
L 112.982346 348.518343 
L 113.7794 349.395475 
L 116.104141 349.044622 
L 120.886465 352.377724 
L 123.47689 353.167142 
L 126.200158 351.851444 
L 130.650376 348.43063 
L 131.580272 346.062374 
L 131.646694 343.255552 
L 133.240801 340.44873 
L 137.757441 337.115628 
L 139.550812 336.32621 
L 143.668924 332.642255 
L 145.528717 329.835433 
L 146.458613 325.88834 
L 147.654194 323.870936 
L 147.787036 320.274695 
L 146.458613 316.503028 
L 146.458613 312.205082 
L 147.255667 310.626244 
L 147.720615 307.994849 
L 149.248302 306.065158 
L 153.432835 301.942638 
L 156.288945 300.802367 
L 159.012213 297.469266 
L 158.348002 295.539575 
L 158.613686 292.118761 
L 159.676425 287.382249 
L 160.938427 285.627985 
L 161.13769 282.119457 
L 162.333271 279.575774 
L 161.868323 277.207518 
L 164.259485 274.751549 
L 165.65433 271.944727 
L 169.174651 268.699339 
L 171.100865 266.243369 
L 175.94961 257.910616 
L 178.739299 251.41984 
L 180.399828 249.577863 
L 182.923832 247.823599 
L 186.909102 246.157048 
L 189.366685 245.630769 
L 193.351955 246.946467 
L 196.407329 247.209607 
L 201.388916 244.753637 
L 203.91292 240.543404 
L 205.174922 239.490846 
L 205.772713 236.771737 
L 209.691562 229.754682 
L 213.145462 223.176192 
L 215.204518 220.36937 
L 218.525576 213.966307 
L 219.256209 212.036617 
L 220.318948 211.071772 
L 221.448108 208.177236 
L 223.772848 204.054716 
L 225.765483 198.879638 
L 226.761801 194.581692 
L 226.429695 190.897738 
L 227.160328 187.827776 
L 227.359591 184.582388 
L 226.69538 182.038705 
L 225.167693 179.670449 
L 224.104954 177.126766 
L 224.636324 171.513122 
L 225.101272 169.495719 
L 226.031168 169.408006 
L 226.894643 167.741455 
L 229.352226 165.285486 
L 230.14928 163.004943 
L 231.012755 162.741803 
L 233.403917 160.110407 
L 234.001708 158.443857 
L 237.588451 155.110755 
L 238.11982 153.707344 
L 239.84677 151.339088 
L 239.581086 143.357188 
L 239.913191 140.638079 
L 239.581086 138.971528 
L 240.776667 135.112148 
L 242.171511 132.919318 
L 244.097725 130.814201 
L 245.691833 128.358232 
L 247.352362 127.744239 
L 250.540578 124.761991 
L 249.012891 120.551758 
L 246.356044 119.762339 
L 243.83204 120.464045 
L 238.651189 124.411138 
L 236.459291 124.323425 
L 235.064446 121.341176 
L 235.927922 116.078385 
L 236.724976 116.078385 
L 238.584768 114.148695 
L 239.514664 112.043578 
L 241.640142 108.973616 
L 243.367092 105.903655 
L 244.363409 102.658267 
L 243.566355 99.851444 
L 241.507299 97.307762 
L 241.042351 95.728924 
L 238.319083 93.623808 
L 235.396552 92.658963 
L 234.200971 91.080125 
L 226.761801 88.887296 
L 223.972112 88.799582 
L 222.178741 89.238148 
L 220.318948 88.799582 
L 220.318948 86.080473 
L 219.256209 83.010512 
L 219.920421 80.466829 
L 219.787579 76.256596 
L 221.913056 73.6252 
L 222.178741 71.169231 
L 222.776531 70.028959 
L 225.632641 67.485277 
L 227.226749 65.292447 
L 228.953699 62.047059 
L 228.887278 60.117369 
L 230.082859 58.538531 
L 231.610546 54.766864 
L 234.200971 52.047755 
L 236.060764 47.398956 
L 237.522029 45.820118 
L 238.252662 43.890428 
L 240.046034 41.259032 
L 239.979613 39.680195 
L 242.769301 38.45221 
L 242.437196 35.645388 
L 243.898461 32.4 
L 244.894779 33.803411 
L 243.765619 35.557675 
L 246.289623 37.575078 
L 248.614364 38.627637 
L 252.732476 39.066203 
L 253.728794 41.960738 
L 253.263845 43.276436 
L 253.928057 52.574034 
L 254.924375 55.819422 
L 251.869001 61.169927 
L 251.005526 61.783919 
L 249.809945 65.117021 
L 249.610681 67.222137 
L 247.086677 69.414967 
L 246.820992 72.309502 
L 245.957517 73.449774 
L 242.902144 71.69551 
L 240.311718 68.800975 
L 240.776667 67.134424 
L 240.776667 67.134424 
" clip-path="url(#p5e56a349df)" style="fill: none; stroke: #000000; stroke-width: 3"/>
   </g>
  </g>
 </g>
 <defs>
  <clipPath id="p5e56a349df">
   <rect x="7.2" y="7.2" width="259.520773" height="554.4"/>
  </clipPath>
 </defs>
</svg>
