<?xml version="1.0" encoding="utf-8" standalone="no"?>
<!DOCTYPE svg PUBLIC "-//W3C//DTD SVG 1.1//EN"
  "http://www.w3.org/Graphics/SVG/1.1/DTD/svg11.dtd">
<svg xmlns:xlink="http://www.w3.org/1999/xlink" width="284.664911pt" height="568.8pt" viewBox="0 0 284.664911 568.8" xmlns="http://www.w3.org/2000/svg" version="1.1">
 <metadata>
  <rdf:RDF xmlns:dc="http://purl.org/dc/elements/1.1/" xmlns:cc="http://creativecommons.org/ns#" xmlns:rdf="http://www.w3.org/1999/02/22-rdf-syntax-ns#">
   <cc:Work>
    <dc:type rdf:resource="http://purl.org/dc/dcmitype/StillImage"/>
    <dc:date>2023-09-25T14:14:34.825402</dc:date>
    <dc:format>image/svg+xml</dc:format>
    <dc:creator>
     <cc:Agent>
      <dc:title>Matplotlib v3.6.2, https://matplotlib.org/</dc:title>
     </cc:Agent>
    </dc:creator>
   </cc:Work>
  </rdf:RDF>
 </metadata>
 <defs>
  <style type="text/css">*{stroke-linejoin: round; stroke-linecap: butt}</style>
 </defs>
 <g id="figure_1">
  <g id="patch_1">
   <path d="M 0 568.8 
L 284.664911 568.8 
L 284.664911 0 
L 0 0 
z
" style="fill: #ffffff"/>
  </g>
  <g id="axes_1">
   <g id="LineCollection_1">
    <path d="M 28.540055 536.4 
L 25.285811 534.438184 
L 23.375712 532.850046 
L 21.74859 533.036886 
L 20.475191 532.102688 
L 19.484769 527.338276 
L 20.262957 525.843559 
L 20.050724 521.546247 
L 21.465612 520.051529 
L 23.163479 519.67785 
L 24.083156 517.996293 
L 25.215067 517.716033 
L 27.408144 514.16608 
L 27.761866 512.017424 
L 28.823032 510.242447 
L 30.308665 509.401668 
L 31.016109 506.692493 
L 32.926209 502.67544 
L 34.977797 499.499166 
L 35.82673 495.295273 
L 37.453852 493.333457 
L 40.212884 488.662465 
L 42.830428 486.23355 
L 43.750105 483.150695 
L 45.943182 479.040222 
L 49.197425 475.770528 
L 50.046358 474.275811 
L 49.90487 470.258758 
L 52.663902 469.23114 
L 52.522413 466.615385 
L 53.371346 465.868026 
L 53.442091 461.103614 
L 54.574001 459.235218 
L 56.130379 458.861538 
L 59.0309 452.41557 
L 59.950577 452.882669 
L 60.940999 446.53012 
L 65.893109 439.710473 
L 65.539387 438.496015 
L 69.076608 435.50658 
L 71.481918 432.984245 
L 71.906385 431.582947 
L 70.632985 430.461909 
L 71.552662 429.90139 
L 71.340429 426.351437 
L 74.311695 425.417238 
L 77.707427 421.773865 
L 76.929238 418.87785 
L 77.424449 416.355514 
L 78.697849 415.327896 
L 81.952092 410.189805 
L 83.366981 410.937164 
L 85.772291 408.788508 
L 88.31909 407.38721 
L 87.187179 404.958295 
L 87.753135 403.276738 
L 89.451001 401.034662 
L 90.7244 400.193883 
L 91.219611 398.325487 
L 93.341944 395.149212 
L 95.888743 389.263763 
L 95.888743 388.236145 
L 97.232887 387.582206 
L 99.072242 384.499351 
L 99.142987 383.378313 
L 102.043508 382.257275 
L 102.750952 380.202039 
L 103.670629 379.921779 
L 103.104674 378.427062 
L 103.387652 376.465246 
L 102.255741 372.541613 
L 100.274897 371.327155 
L 99.921175 370.112697 
L 96.596187 366.282484 
L 97.091398 364.507507 
L 99.99192 361.518072 
L 102.467974 360.023355 
L 104.095096 358.154958 
L 104.873285 354.978684 
L 107.632317 349.186654 
L 108.834972 348.065616 
L 109.966883 345.076182 
L 112.79666 340.40519 
L 117.253558 336.294717 
L 119.092913 336.014458 
L 122.488645 336.574977 
L 128.784899 340.49861 
L 129.987554 340.685449 
L 133.454031 339.564411 
L 135.151897 338.630213 
L 137.415718 336.107878 
L 140.740706 330.876367 
L 140.882195 329.10139 
L 142.014106 327.232994 
L 145.268349 324.243559 
L 148.876314 322.001483 
L 149.937481 322.188323 
L 153.403957 318.544949 
L 153.262468 316.209453 
L 154.323635 314.341057 
L 155.52629 310.043744 
L 155.738523 305.372753 
L 153.616191 299.954402 
L 154.182146 294.816311 
L 155.031079 293.321594 
L 157.365645 291.453197 
L 160.690633 287.716404 
L 163.378921 286.034847 
L 166.420931 285.287488 
L 166.916142 284.35329 
L 166.774653 280.055978 
L 167.69433 274.077108 
L 169.958152 264.828545 
L 170.877829 262.866728 
L 173.424628 259.129935 
L 175.193239 255.766821 
L 176.891105 253.711585 
L 179.862371 251.00241 
L 181.913959 247.452456 
L 184.17778 244.276182 
L 185.592669 241.099907 
L 186.229369 238.670992 
L 191.039989 230.917146 
L 194.930932 228.20797 
L 199.741553 226.993513 
L 203.491007 227.460612 
L 205.825573 228.768489 
L 208.584606 228.861909 
L 212.475549 227.273772 
L 214.173415 225.965894 
L 216.861703 221.294903 
L 217.639891 219.239666 
L 221.177112 213.354217 
L 222.804234 209.710843 
L 224.5021 207.188508 
L 224.997311 204.292493 
L 227.331877 201.489898 
L 230.232398 195.791288 
L 231.22282 195.04393 
L 234.26483 187.570343 
L 235.891952 185.234847 
L 237.731307 181.311214 
L 238.863218 180.470436 
L 238.509496 179.162558 
L 239.995128 176.266543 
L 239.712151 171.315292 
L 240.136617 165.990361 
L 240.914806 162.720667 
L 239.570662 158.423355 
L 237.023863 154.686562 
L 236.740885 152.911585 
L 239.075451 145.905097 
L 240.561084 143.009082 
L 242.754161 140.767006 
L 243.886072 138.99203 
L 248.130737 135.161816 
L 251.314236 131.051344 
L 252.799869 128.155329 
L 253.931779 123.204078 
L 253.082846 120.121223 
L 253.224335 117.412048 
L 254.639223 110.77924 
L 256.195601 106.762187 
L 259.166866 103.212234 
L 261.925899 101.156997 
L 263.977487 100.129379 
L 265.109398 98.821501 
L 265.180142 96.018906 
L 263.906743 92.842632 
L 260.793988 92.842632 
L 256.124856 94.524189 
L 253.082846 97.233364 
L 252.02168 97.420204 
L 250.323814 96.299166 
L 248.413714 93.77683 
L 248.272226 90.320297 
L 250.182325 89.199259 
L 251.455725 87.237442 
L 254.285501 84.715107 
L 255.841879 82.56645 
L 257.893467 78.549398 
L 258.883889 72.757368 
L 256.266345 69.020575 
L 252.587635 65.657461 
L 251.172747 63.882484 
L 247.564781 62.387766 
L 247.352548 61.640408 
L 243.744583 61.640408 
L 241.692994 61.173309 
L 239.995128 60.052271 
L 237.802051 60.23911 
L 234.760041 58.650973 
L 232.991431 62.014087 
L 231.081331 62.107507 
L 229.312721 65.096942 
L 228.676021 67.058758 
L 229.595699 70.702132 
L 231.85952 72.196849 
L 233.415897 72.196849 
L 235.396741 73.691566 
L 237.519074 74.625765 
L 239.358429 78.269138 
L 239.499917 80.137535 
L 238.933962 82.84671 
L 240.136617 84.154588 
L 241.197784 88.63874 
L 240.98555 90.133457 
L 239.570662 93.309731 
L 235.750463 96.859685 
L 229.100488 100.129379 
L 226.553688 100.970158 
L 225.280289 102.558295 
L 224.077634 106.481928 
L 221.601579 109.938462 
L 216.578725 112.554217 
L 212.829271 113.301576 
L 209.009072 115.263392 
L 207.735672 114.142354 
L 203.20803 112.367377 
L 199.883042 110.218721 
L 199.034109 108.817424 
L 200.731975 104.613531 
L 204.198451 99.7557 
L 205.188873 97.326784 
L 207.735672 94.15051 
L 211.485127 85.369045 
L 213.253737 82.75329 
L 213.465971 81.258573 
L 215.517559 78.362558 
L 216.64947 75.466543 
L 219.832968 70.982391 
L 220.398924 69.113994 
L 222.309023 66.778499 
L 224.785078 61.827247 
L 228.039321 57.156256 
L 229.312721 54.63392 
L 231.718031 52.765524 
L 233.486642 50.803707 
L 233.557386 48.841891 
L 234.618552 45.105097 
L 236.457907 42.395922 
L 237.589818 39.780167 
L 241.692994 32.58684 
L 243.461605 32.4 
L 244.947238 33.988137 
L 248.059992 35.296015 
L 250.74828 36.977572 
L 251.667958 38.659129 
L 253.861035 40.527525 
L 253.861035 40.527525 
" clip-path="url(#p8a31f18ccc)" style="fill: none; stroke: #000000; stroke-width: 3"/>
   </g>
  </g>
 </g>
 <defs>
  <clipPath id="p8a31f18ccc">
   <rect x="7.2" y="7.2" width="270.264911" height="554.4"/>
  </clipPath>
 </defs>
</svg>
