<?xml version="1.0" encoding="utf-8" standalone="no"?>
<!DOCTYPE svg PUBLIC "-//W3C//DTD SVG 1.1//EN"
  "http://www.w3.org/Graphics/SVG/1.1/DTD/svg11.dtd">
<svg xmlns:xlink="http://www.w3.org/1999/xlink" width="296.10407pt" height="568.8pt" viewBox="0 0 296.10407 568.8" xmlns="http://www.w3.org/2000/svg" version="1.1">
 <metadata>
  <rdf:RDF xmlns:dc="http://purl.org/dc/elements/1.1/" xmlns:cc="http://creativecommons.org/ns#" xmlns:rdf="http://www.w3.org/1999/02/22-rdf-syntax-ns#">
   <cc:Work>
    <dc:type rdf:resource="http://purl.org/dc/dcmitype/StillImage"/>
    <dc:date>2023-09-25T14:14:34.764648</dc:date>
    <dc:format>image/svg+xml</dc:format>
    <dc:creator>
     <cc:Agent>
      <dc:title>Matplotlib v3.6.2, https://matplotlib.org/</dc:title>
     </cc:Agent>
    </dc:creator>
   </cc:Work>
  </rdf:RDF>
 </metadata>
 <defs>
  <style type="text/css">*{stroke-linejoin: round; stroke-linecap: butt}</style>
 </defs>
 <g id="figure_1">
  <g id="patch_1">
   <path d="M 0 568.8 
L 296.10407 568.8 
L 296.10407 0 
L 0 0 
z
" style="fill: #ffffff"/>
  </g>
  <g id="axes_1">
   <g id="LineCollection_1">
    <path d="M 270.240505 34.077825 
L 271.087565 32.4 
L 273.628747 33.1457 
L 275.393456 34.26425 
L 276.09934 36.035288 
L 275.322868 41.255188 
L 273.416982 42.560163 
L 273.134628 44.237988 
L 271.722861 47.034363 
L 269.746386 48.991825 
L 269.111091 51.7882 
L 267.134617 54.771001 
L 265.581672 55.609913 
L 255.911066 53.559238 
L 251.887528 52.16105 
L 248.640463 52.720326 
L 247.299284 53.652451 
L 246.240459 56.075976 
L 245.534575 59.804476 
L 247.228696 63.346551 
L 250.263996 64.558313 
L 253.299296 65.304013 
L 255.558124 68.659663 
L 255.981654 74.345626 
L 257.816952 79.285889 
L 258.099305 81.150139 
L 256.405184 85.903976 
L 252.593412 90.098539 
L 246.593401 92.335639 
L 245.393398 92.335639 
L 242.146333 94.106677 
L 240.028682 100.258702 
L 238.40515 101.656889 
L 234.875731 103.707564 
L 231.699254 104.546477 
L 227.887482 106.317514 
L 223.511003 110.325652 
L 219.416878 118.714777 
L 218.075699 123.934677 
L 215.816871 128.12924 
L 213.063925 131.671315 
L 209.252152 132.883077 
L 207.134501 134.933753 
L 205.722734 138.662253 
L 205.299204 144.90749 
L 204.805085 147.703865 
L 203.040376 150.87309 
L 201.346255 151.432365 
L 198.593309 153.949103 
L 193.158004 156.186203 
L 190.405057 157.584391 
L 185.252106 162.897503 
L 182.993279 166.346366 
L 181.793276 171.286628 
L 181.440334 174.735491 
L 181.793276 177.159016 
L 183.134455 181.912854 
L 185.11093 184.709229 
L 185.393283 188.437729 
L 184.757988 191.606954 
L 182.569748 196.360792 
L 175.863853 204.190642 
L 171.063844 207.359867 
L 169.440311 209.037692 
L 168.310897 211.740854 
L 167.957956 214.444017 
L 168.805016 218.452155 
L 167.463837 223.019567 
L 164.993244 228.146255 
L 162.946181 228.891955 
L 161.393237 230.383355 
L 158.569702 234.205068 
L 157.581465 234.577918 
L 155.040284 237.28108 
L 149.110861 244.272018 
L 146.075561 248.653005 
L 144.734382 248.83943 
L 140.781433 251.169743 
L 136.899072 254.711818 
L 135.981424 256.389643 
L 134.993186 259.745293 
L 134.993186 263.567006 
L 135.769659 269.625818 
L 135.981424 275.591419 
L 135.063775 280.531681 
L 131.957886 284.166969 
L 126.240228 285.844794 
L 123.13434 288.547956 
L 120.875512 293.581431 
L 119.604922 294.886407 
L 118.263743 298.242057 
L 117.557859 303.182319 
L 116.499033 305.699057 
L 114.169617 309.147919 
L 111.416671 313.808544 
L 109.087254 316.511707 
L 104.287245 320.892695 
L 103.440185 321.172332 
L 100.757827 323.875495 
L 95.322522 332.078195 
L 93.981343 335.62027 
L 94.616638 339.908045 
L 96.169583 342.611208 
L 98.922529 345.966858 
L 102.169594 347.831108 
L 103.934303 351.093545 
L 103.299008 353.051008 
L 100.475473 356.686296 
L 98.498999 362.931533 
L 96.593113 369.642833 
L 94.616638 369.269983 
L 94.334285 371.786721 
L 92.922517 371.413871 
L 92.004869 373.557758 
L 92.922517 376.913409 
L 91.93428 377.006621 
L 91.51075 378.591234 
L 91.93428 381.760459 
L 87.487213 383.345071 
L 85.793092 388.098909 
L 84.663678 388.937821 
L 82.757792 392.945959 
L 80.710729 393.132384 
L 79.581315 394.437359 
L 78.52249 397.047309 
L 76.757781 398.538709 
L 74.640129 402.453634 
L 71.463653 407.487109 
L 71.534241 408.792084 
L 69.628355 412.147734 
L 67.863646 416.621935 
L 66.38129 417.460847 
L 63.76952 420.816497 
L 62.357753 423.89251 
L 59.110688 425.197485 
L 57.910686 426.316035 
L 56.075388 429.951322 
L 54.945974 434.798372 
L 54.169502 436.289773 
L 51.557732 438.992935 
L 50.922437 440.67076 
L 51.557732 441.975735 
L 50.710672 443.467135 
L 50.075376 446.543148 
L 49.440081 446.915998 
L 46.828311 450.551285 
L 46.193016 453.161235 
L 44.781249 454.559423 
L 45.13419 456.889736 
L 42.945951 459.406473 
L 38.428295 463.694248 
L 37.793 467.236323 
L 36.310644 469.753061 
L 37.651823 470.219123 
L 36.592998 472.363011 
L 33.981228 474.972961 
L 32.710637 476.930424 
L 32.56946 479.913224 
L 31.792988 481.311411 
L 27.910628 484.667061 
L 27.698863 486.997374 
L 26.498861 490.725874 
L 22.334147 499.021787 
L 20.992968 500.047124 
L 20.569437 502.097799 
L 21.063556 503.216349 
L 20.00473 504.148474 
L 22.404735 505.826299 
L 26.922391 508.063399 
L 29.392984 509.648012 
L 31.228281 509.554799 
L 34.687112 511.512262 
L 36.381232 513.656149 
L 37.157705 515.893249 
L 42.240067 519.062475 
L 45.204779 520.36745 
L 48.593021 521.019937 
L 53.040088 523.443462 
L 56.710683 526.519475 
L 59.110688 526.892325 
L 60.169513 528.476937 
L 59.040099 530.80725 
L 59.393041 533.04435 
L 59.181276 536.4 
L 57.981274 535.001812 
L 53.957737 532.857925 
L 52.616558 530.900462 
L 48.028314 528.290512 
L 47.957725 526.146625 
L 47.957725 526.146625 
" clip-path="url(#p7ab1364b20)" style="fill: none; stroke: #000000; stroke-width: 3"/>
   </g>
  </g>
 </g>
 <defs>
  <clipPath id="p7ab1364b20">
   <rect x="7.2" y="7.2" width="281.70407" height="554.4"/>
  </clipPath>
 </defs>
</svg>
