<?xml version="1.0" encoding="utf-8" standalone="no"?>
<!DOCTYPE svg PUBLIC "-//W3C//DTD SVG 1.1//EN"
  "http://www.w3.org/Graphics/SVG/1.1/DTD/svg11.dtd">
<svg xmlns:xlink="http://www.w3.org/1999/xlink" width="276.92708pt" height="568.8pt" viewBox="0 0 276.92708 568.8" xmlns="http://www.w3.org/2000/svg" version="1.1">
 <metadata>
  <rdf:RDF xmlns:dc="http://purl.org/dc/elements/1.1/" xmlns:cc="http://creativecommons.org/ns#" xmlns:rdf="http://www.w3.org/1999/02/22-rdf-syntax-ns#">
   <cc:Work>
    <dc:type rdf:resource="http://purl.org/dc/dcmitype/StillImage"/>
    <dc:date>2023-09-25T14:14:34.702747</dc:date>
    <dc:format>image/svg+xml</dc:format>
    <dc:creator>
     <cc:Agent>
      <dc:title>Matplotlib v3.6.2, https://matplotlib.org/</dc:title>
     </cc:Agent>
    </dc:creator>
   </cc:Work>
  </rdf:RDF>
 </metadata>
 <defs>
  <style type="text/css">*{stroke-linejoin: round; stroke-linecap: butt}</style>
 </defs>
 <g id="figure_1">
  <g id="patch_1">
   <path d="M 0 568.8 
L 276.92708 568.8 
L 276.92708 0 
L 0 0 
z
" style="fill: #ffffff"/>
  </g>
  <g id="axes_1">
   <g id="LineCollection_1">
    <path d="M 33.439338 536.4 
L 30.431006 535.87031 
L 28.024341 534.016395 
L 27.222119 534.369522 
L 25.082861 533.22186 
L 23.478417 530.749974 
L 21.673418 530.749974 
L 19.133049 532.339044 
L 19.868419 531.367945 
L 20.536937 528.631214 
L 22.809899 525.806201 
L 22.943603 522.539779 
L 24.414343 522.539779 
L 24.614898 520.774146 
L 25.885082 520.156174 
L 27.021563 518.30226 
L 28.759711 516.71319 
L 29.027118 513.711613 
L 31.70119 509.82722 
L 33.506189 503.912349 
L 34.308411 503.912349 
L 35.244337 501.705307 
L 32.369709 493.759958 
L 34.64267 495.084183 
L 35.37804 493.31855 
L 38.252668 492.700578 
L 39.188594 491.111508 
L 41.261 489.787283 
L 42.598036 487.933368 
L 43.132851 485.90289 
L 45.806924 481.930215 
L 46.876553 482.283342 
L 47.210812 481.047399 
L 49.149514 478.928639 
L 49.483773 474.426274 
L 51.355624 473.278613 
L 53.361179 469.39422 
L 54.831919 467.80515 
L 57.10488 461.184025 
L 61.383397 456.240252 
L 61.249693 453.856647 
L 61.784508 453.768366 
L 63.121544 450.148818 
L 63.522655 447.676931 
L 64.859691 445.116763 
L 66.865245 443.439411 
L 66.731542 442.644877 
L 69.004504 438.760483 
L 70.876354 436.200315 
L 72.146539 432.227641 
L 73.082464 430.373726 
L 74.887463 429.137782 
L 75.355426 426.401051 
L 76.023944 426.401051 
L 76.826166 423.487756 
L 76.491907 422.07525 
L 77.962647 419.95649 
L 77.561536 419.250236 
L 79.968201 417.572885 
L 81.639497 417.572885 
L 83.24394 414.306463 
L 82.575422 413.776774 
L 84.179866 411.746295 
L 83.845607 409.186127 
L 84.447273 408.303311 
L 83.043385 405.919706 
L 83.578199 404.330636 
L 86.051717 404.154073 
L 88.190975 402.211876 
L 88.39153 400.799369 
L 90.463936 400.446243 
L 93.071157 397.444666 
L 92.870602 394.44309 
L 93.940231 393.825118 
L 95.277267 389.852444 
L 97.282822 388.881345 
L 97.082266 388.08681 
L 99.622635 386.939149 
L 100.625412 384.643826 
L 99.288376 382.260221 
L 98.553006 381.995376 
L 95.210415 379.082081 
L 94.207638 375.903941 
L 97.416525 371.04845 
L 100.692264 367.517183 
L 101.828745 364.868734 
L 101.494486 363.544509 
L 103.232633 360.984341 
L 106.307817 354.981188 
L 108.246519 353.480399 
L 109.449852 351.008513 
L 111.789666 349.507725 
L 114.797997 348.1835 
L 117.806329 347.830373 
L 120.079291 348.71319 
L 122.753363 350.83195 
L 126.764472 351.273358 
L 132.313173 348.536626 
L 133.583358 345.446768 
L 136.123727 341.738939 
L 135.923171 340.944404 
L 138.797799 336.706884 
L 141.070761 336.088912 
L 143.544278 334.764687 
L 147.555387 329.379506 
L 149.092979 324.78886 
L 149.828349 320.55134 
L 148.357609 315.960694 
L 147.354832 314.283342 
L 146.953721 311.723174 
L 148.424461 307.927063 
L 152.168162 304.042669 
L 152.43557 303.159853 
L 158.385381 298.922333 
L 159.989825 295.302785 
L 159.922973 291.241829 
L 160.792047 288.593379 
L 161.527417 283.826169 
L 162.329638 280.736311 
L 164.936859 276.9402 
L 166.006488 274.203468 
L 167.744635 271.466737 
L 173.761299 264.933894 
L 176.167964 261.579191 
L 177.438149 257.429953 
L 179.577407 253.104151 
L 179.376851 251.868208 
L 180.914443 249.219758 
L 182.65259 247.630688 
L 185.861477 245.688492 
L 186.864255 245.865055 
L 190.541105 244.629112 
L 195.020176 244.54083 
L 197.894804 245.60021 
L 202.774987 245.335365 
L 204.312579 243.834577 
L 205.649615 241.097846 
L 206.451837 240.744719 
L 207.120355 238.184551 
L 210.195538 234.211876 
L 210.99776 233.770468 
L 212.802759 227.855596 
L 215.677387 223.441513 
L 218.084053 218.056332 
L 220.891829 214.171939 
L 223.031087 210.199264 
L 223.833309 207.903941 
L 226.173122 203.931266 
L 227.57701 202.960168 
L 229.248306 196.16248 
L 228.245529 192.542932 
L 229.582565 188.393694 
L 229.515713 183.803048 
L 229.114602 179.830373 
L 227.042196 177.181923 
L 226.44053 175.239727 
L 226.641085 173.738939 
L 229.382009 165.705307 
L 231.187008 162.968576 
L 233.326267 161.291224 
L 234.262192 159.43731 
L 237.671635 154.581818 
L 240.746818 152.198213 
L 242.150706 148.578665 
L 242.083854 141.957541 
L 243.420891 136.748923 
L 243.01978 133.659065 
L 245.292742 129.244982 
L 247.766259 127.214503 
L 251.175701 125.184025 
L 253.448663 123.065265 
L 253.582367 122.27073 
L 252.512738 119.180872 
L 250.841442 118.033211 
L 249.036443 117.503521 
L 247.231444 117.768366 
L 241.749595 120.593379 
L 239.209226 120.946506 
L 237.13682 120.240252 
L 236.40145 118.562901 
L 237.537931 115.826169 
L 238.340153 115.473043 
L 241.816447 111.500368 
L 243.01978 109.381608 
L 246.228667 102.319075 
L 247.097741 99.582344 
L 246.830333 98.081555 
L 244.49052 94.197162 
L 242.150706 92.254966 
L 239.744041 91.283868 
L 236.000339 88.547136 
L 234.730155 88.458854 
L 228.780343 87.046348 
L 225.905715 87.222911 
L 223.565901 86.163531 
L 221.359792 87.840883 
L 219.554793 90.754178 
L 218.418312 93.844036 
L 219.153682 95.874514 
L 221.760902 98.258119 
L 224.167568 98.258119 
L 226.641085 99.40578 
L 228.847195 102.760483 
L 228.646639 106.468313 
L 230.117379 110.794115 
L 229.315158 116.973831 
L 227.911269 120.593379 
L 225.3709 122.535575 
L 222.76368 123.33011 
L 219.487941 123.241829 
L 217.415534 123.948082 
L 214.340351 125.890279 
L 212.869611 131.540305 
L 211.398871 134.012191 
L 205.85017 135.777824 
L 200.167766 138.426274 
L 194.819621 136.660641 
L 191.47703 134.365318 
L 190.474253 133.041093 
L 196.223509 121.652759 
L 197.159434 120.681661 
L 199.833507 116.091014 
L 200.034062 115.208198 
L 202.440728 114.501944 
L 203.978319 109.205045 
L 205.382208 107.527693 
L 206.318133 104.526117 
L 208.323687 101.701104 
L 208.724798 100.112034 
L 211.866834 94.373726 
L 212.669056 93.755754 
L 212.4685 92.166684 
L 214.407203 90.224488 
L 215.40998 87.046348 
L 216.546461 85.457278 
L 216.680164 83.250236 
L 218.618867 80.954913 
L 219.688496 78.65959 
L 222.295717 76.805675 
L 223.365346 76.717394 
L 224.501827 71.332212 
L 226.707937 66.123594 
L 229.04775 63.122018 
L 230.785898 61.532948 
L 233.058859 57.38371 
L 232.657748 55.706358 
L 233.45997 54.73526 
L 234.262192 51.02743 
L 235.732932 49.879769 
L 239.008671 43.700053 
L 239.944596 42.993799 
L 243.487743 36.284393 
L 244.356816 33.724225 
L 245.760704 32.4 
L 249.103295 33.635943 
L 250.908294 34.695323 
L 252.646441 34.695323 
L 254.986255 36.284393 
L 255.989032 38.050026 
L 256.122736 41.757856 
L 256.65755 44.229743 
L 256.323291 45.730531 
L 256.523847 49.43836 
L 256.991809 51.821965 
L 257.794031 52.881345 
L 256.189588 55.971203 
L 254.785699 57.030583 
L 253.782922 59.414188 
L 252.646441 60.738413 
L 252.646441 61.974356 
L 250.707739 64.357961 
L 249.771813 66.829848 
L 249.30385 69.478297 
L 248.16737 70.714241 
L 246.763482 70.096269 
L 244.824779 67.447819 
L 243.354039 66.300158 
L 242.351262 67.447819 
L 242.351262 67.447819 
" clip-path="url(#p5281a274d0)" style="fill: none; stroke: #000000; stroke-width: 3"/>
   </g>
  </g>
 </g>
 <defs>
  <clipPath id="p5281a274d0">
   <rect x="7.2" y="7.2" width="262.52708" height="554.4"/>
  </clipPath>
 </defs>
</svg>
