<?xml version="1.0" encoding="utf-8" standalone="no"?>
<!DOCTYPE svg PUBLIC "-//W3C//DTD SVG 1.1//EN"
  "http://www.w3.org/Graphics/SVG/1.1/DTD/svg11.dtd">
<svg xmlns:xlink="http://www.w3.org/1999/xlink" width="353.195171pt" height="568.8pt" viewBox="0 0 353.195171 568.8" xmlns="http://www.w3.org/2000/svg" version="1.1">
 <metadata>
  <rdf:RDF xmlns:dc="http://purl.org/dc/elements/1.1/" xmlns:cc="http://creativecommons.org/ns#" xmlns:rdf="http://www.w3.org/1999/02/22-rdf-syntax-ns#">
   <cc:Work>
    <dc:type rdf:resource="http://purl.org/dc/dcmitype/StillImage"/>
    <dc:date>2023-09-25T14:14:34.566313</dc:date>
    <dc:format>image/svg+xml</dc:format>
    <dc:creator>
     <cc:Agent>
      <dc:title>Matplotlib v3.6.2, https://matplotlib.org/</dc:title>
     </cc:Agent>
    </dc:creator>
   </cc:Work>
  </rdf:RDF>
 </metadata>
 <defs>
  <style type="text/css">*{stroke-linejoin: round; stroke-linecap: butt}</style>
 </defs>
 <g id="figure_1">
  <g id="patch_1">
   <path d="M -0 568.8 
L 353.195171 568.8 
L 353.195171 0 
L -0 0 
z
" style="fill: #ffffff"/>
  </g>
  <g id="axes_1">
   <g id="LineCollection_1">
    <path d="M 299.103116 51.154918 
L 299.976284 50.463139 
L 301.431565 51.462376 
L 303.58538 52.307885 
L 303.58538 53.537715 
L 301.256931 59.071954 
L 298.812059 63.299497 
L 299.685228 65.682294 
L 297.938891 67.219582 
L 298.695637 68.295684 
L 303.236113 70.063566 
L 308.067645 73.291871 
L 312.724543 75.828397 
L 315.227626 77.980601 
L 316.973963 78.288059 
L 319.70989 79.594754 
L 321.165171 80.670856 
L 326.578815 83.899161 
L 328.092307 84.283483 
L 329.896855 85.667043 
L 330.59539 88.126704 
L 330.420756 91.201281 
L 329.780433 92.969163 
L 328.790842 94.122129 
L 326.229548 98.272808 
L 325.589224 100.117554 
L 322.969719 104.268232 
L 321.921917 106.958487 
L 320.408425 109.033826 
L 319.70989 109.341284 
L 319.302412 110.878573 
L 318.138187 112.262132 
L 317.614286 115.18298 
L 314.761936 119.256794 
L 313.248444 120.870947 
L 312.258853 124.40671 
L 311.443896 126.251456 
L 309.522925 128.634253 
L 309.115447 130.402135 
L 307.485532 132.708068 
L 304.458549 137.934848 
L 303.992859 138.396035 
L 302.362944 142.469849 
L 300.325551 145.313833 
L 297.997102 150.002562 
L 296.541822 151.155528 
L 296.250765 153.538325 
L 295.494019 154.921885 
L 292.467036 158.227055 
L 292.467036 159.303157 
L 291.128177 161.455361 
L 290.080375 164.683666 
L 287.228025 168.142565 
L 286.413068 170.909684 
L 284.492097 173.44621 
L 283.327873 176.367058 
L 280.650156 180.440872 
L 279.078453 183.899771 
L 277.914228 185.667653 
L 275.178301 192.431722 
L 272.733429 195.198841 
L 272.558795 196.04435 
L 269.93929 200.348757 
L 269.00791 202.962147 
L 267.261574 205.729266 
L 266.097349 208.496386 
L 265.515237 208.803843 
L 263.885322 212.800793 
L 261.498662 214.184353 
L 261.440451 215.106726 
L 260.276226 217.028336 
L 259.98517 219.487998 
L 258.529889 221.332744 
L 257.423876 222.101388 
L 257.540298 223.023761 
L 254.28047 228.019948 
L 254.804371 228.40427 
L 252.941611 230.787067 
L 252.126654 232.708678 
L 251.952021 234.322831 
L 251.078852 234.322831 
L 249.914628 236.090712 
L 249.274304 238.934696 
L 247.236911 240.779442 
L 245.898053 244.468934 
L 244.966673 246.159951 
L 243.39497 247.236053 
L 243.336759 249.157664 
L 241.357577 251.463596 
L 239.378395 255.844868 
L 238.738072 256.152326 
L 237.69027 259.073174 
L 236.642467 260.610462 
L 235.36182 263.377581 
L 234.314018 264.530548 
L 234.022962 265.760378 
L 232.800526 267.297667 
L 232.800526 268.373768 
L 231.05419 270.679701 
L 230.006387 273.293091 
L 226.688347 277.904957 
L 226.979404 278.443007 
L 225.815179 279.903431 
L 225.233067 281.825042 
L 222.846406 284.899619 
L 222.788195 286.744365 
L 218.946254 291.740552 
L 217.782029 294.891993 
L 215.977481 297.735977 
L 215.802848 298.581485 
L 213.707243 301.348605 
L 213.590821 303.116486 
L 210.854893 306.421656 
L 208.584655 310.418606 
L 208.235388 312.801403 
L 206.197995 315.645387 
L 205.49946 318.028184 
L 203.753123 319.642336 
L 203.229222 321.717676 
L 204.04418 323.101235 
L 202.763532 323.254964 
L 199.736549 328.635474 
L 198.921591 328.866067 
L 197.408099 332.094372 
L 196.709565 332.478695 
L 194.322904 337.013695 
L 195.07965 339.319628 
L 194.439327 339.857679 
L 197.117043 340.242001 
L 199.154436 343.00912 
L 199.096225 345.084459 
L 201.133618 344.623273 
L 202.705321 342.624798 
L 203.985968 341.702425 
L 206.314417 338.397255 
L 206.139784 337.167424 
L 203.287434 335.860729 
L 202.123209 336.014458 
L 201.366463 334.861492 
L 198.86338 334.246576 
L 198.106634 333.401068 
L 195.952819 334.092847 
L 192.518356 339.780814 
L 192.343723 342.163611 
L 193.042257 345.853104 
L 191.470554 347.390392 
L 189.782429 348.082172 
L 188.734626 347.544121 
L 186.406177 352.770901 
L 184.368784 353.61641 
L 183.379193 355.691749 
L 182.098546 357.459631 
L 182.098546 358.84319 
L 181.050744 361.533445 
L 179.537252 362.917005 
L 178.780506 364.992344 
L 176.917747 367.913192 
L 174.589298 370.910904 
L 174.414664 372.140735 
L 172.435482 374.83099 
L 171.213047 374.83099 
L 167.080049 372.2176 
L 164.460544 371.987006 
L 161.89925 368.451243 
L 157.999098 366.990819 
L 156.019916 364.684886 
L 156.136339 365.299802 
L 151.01375 362.993869 
L 151.071962 364.531158 
L 152.585454 362.917005 
L 154.273579 360.149886 
L 154.622847 357.152173 
L 154.33179 355.922343 
L 155.204959 355.230563 
L 156.485606 355.922343 
L 156.718451 355.230563 
L 155.321381 354.385054 
L 152.934721 350.464969 
L 151.188384 350.234375 
L 150.780905 349.61946 
L 148.277823 348.773952 
L 147.346443 350.541833 
L 146.415063 349.312002 
L 144.261248 347.851578 
L 144.028403 351.617935 
L 142.631334 353.078359 
L 140.477518 356.460393 
L 138.964026 357.229038 
L 137.74159 360.841665 
L 137.101267 360.764801 
L 134.88924 365.914717 
L 134.772818 367.221412 
L 133.608593 368.528107 
L 131.978679 368.989294 
L 129.883074 371.833277 
L 127.496414 374.600397 
L 126.681457 377.213787 
L 126.448612 379.827177 
L 125.167965 380.672686 
L 124.644064 382.901754 
L 123.246994 382.824889 
L 122.723093 383.593534 
L 122.664882 385.668873 
L 122.08277 386.053195 
L 121.442446 390.203874 
L 120.918545 390.972518 
L 118.939364 391.126247 
L 118.29904 394.047095 
L 116.960182 396.891078 
L 114.806366 397.582858 
L 113.292874 399.043282 
L 113.874987 399.120146 
L 113.758564 401.810401 
L 112.070439 405.038707 
L 111.604749 406.883453 
L 110.149468 409.650572 
L 109.392722 409.496843 
L 108.286709 412.033369 
L 107.238907 412.57142 
L 104.852246 416.645234 
L 104.502979 419.412353 
L 102.64022 420.872777 
L 100.486404 423.716761 
L 97.866899 429.78905 
L 96.99373 430.250236 
L 95.829506 432.556169 
L 92.918944 436.39939 
L 92.453255 439.243373 
L 91.28903 439.935153 
L 90.765129 441.703035 
L 89.426271 442.548544 
L 87.854568 445.853714 
L 87.854568 448.159646 
L 86.399287 452.771511 
L 84.711161 453.693884 
L 83.72157 456.153546 
L 83.488725 458.690072 
L 82.673768 459.689309 
L 80.519953 460.688547 
L 78.657193 464.22431 
L 78.657193 467.145158 
L 77.434758 468.836175 
L 76.328744 468.682446 
L 75.048097 470.14287 
L 75.280942 472.141345 
L 74.291351 475.215922 
L 73.127127 476.368888 
L 72.661437 478.13677 
L 70.682255 479.443465 
L 68.295595 484.209059 
L 67.480638 485.208296 
L 66.374624 488.667195 
L 63.987964 492.279823 
L 61.42667 494.278298 
L 60.553501 496.04618 
L 58.57432 498.505841 
L 57.992207 500.965503 
L 57.002616 502.041604 
L 55.489125 507.652707 
L 54.674167 507.960165 
L 52.345718 511.265335 
L 49.726213 515.8772 
L 49.144101 516.415251 
L 48.15451 520.412201 
L 46.058906 521.565167 
L 45.185737 524.024828 
L 43.614034 525.485252 
L 42.857288 527.637456 
L 40.703473 531.326948 
L 40.12136 534.785847 
L 39.364614 536.4 
L 38.491446 536.169407 
L 36.279419 534.017203 
L 33.48528 532.787372 
L 30.225451 529.174745 
L 30.16724 529.635931 
L 28.304481 528.713558 
L 26.674566 528.713558 
L 25.102863 527.868049 
L 22.59978 525.869575 
L 23.06547 524.562879 
L 24.637173 522.871862 
L 25.510342 520.950252 
L 28.071636 517.568217 
L 27.955213 516.261522 
L 30.63293 513.494403 
L 30.458296 512.802623 
L 31.215042 510.266097 
L 32.495689 508.267622 
L 32.903168 506.730334 
L 34.474871 503.040842 
L 35.988363 501.119231 
L 37.7347 497.890926 
L 38.898924 496.353637 
L 39.015347 494.124569 
L 40.179571 492.433552 
L 42.682654 489.666433 
L 43.497611 487.667958 
L 45.476793 486.284398 
L 45.011103 484.823974 
L 45.360371 483.209822 
L 46.641018 480.903889 
L 49.144101 477.521855 
L 51.00686 473.371176 
L 52.986042 471.757023 
L 54.848801 466.8377 
L 56.827983 464.22431 
L 58.748953 460.688547 
L 58.807165 459.996767 
L 61.077402 457.690834 
L 61.717726 453.770749 
L 63.580485 450.619308 
L 64.861132 449.543206 
L 65.967146 446.622358 
L 66.141779 445.315663 
L 67.073159 444.547018 
L 69.052341 441.395577 
L 69.809087 439.627696 
L 71.730057 436.783712 
L 72.195747 436.860576 
L 74.000295 434.400915 
L 74.815252 430.403965 
L 76.154111 427.559982 
L 76.561589 425.638371 
L 78.657193 422.48693 
L 78.715405 420.719048 
L 80.86922 419.104896 
L 81.043854 418.336251 
L 83.779782 416.030319 
L 85.176851 413.878115 
L 85.002217 412.110233 
L 85.758963 409.727436 
L 85.176851 408.805063 
L 84.65295 406.345402 
L 83.605148 404.193198 
L 84.070838 403.501418 
L 86.050019 403.501418 
L 88.203835 402.65591 
L 90.35765 400.503706 
L 91.638297 400.196248 
L 93.617479 398.735824 
L 94.024958 399.427604 
L 96.411618 398.65896 
L 96.644463 397.659722 
L 95.654872 394.585146 
L 95.771295 393.355315 
L 94.432436 391.664298 
L 94.898126 391.049382 
L 98.041533 390.511331 
L 99.380391 388.589721 
L 98.681856 386.744975 
L 100.661038 386.206924 
L 99.787869 383.824127 
L 99.438602 381.518194 
L 101.941685 381.133872 
L 103.62981 382.209974 
L 106.365738 382.824889 
L 108.752399 385.361415 
L 111.313693 386.206924 
L 112.012227 387.129297 
L 114.166043 388.05167 
L 115.563112 389.281501 
L 117.775139 389.127772 
L 118.357251 390.434467 
L 120.103588 390.972518 
L 119.870743 392.663535 
L 121.500658 395.046332 
L 123.305206 395.968705 
L 125.40081 396.429892 
L 128.194949 398.274638 
L 130.057708 397.813451 
L 131.221933 398.428367 
L 131.978679 397.121671 
L 133.899649 396.122434 
L 133.550382 394.047095 
L 134.831029 390.280738 
L 136.053465 388.282263 
L 137.043056 388.359128 
L 138.090858 386.744975 
L 137.566957 385.976331 
L 137.916224 384.669636 
L 140.593941 381.825652 
L 143.737347 376.137685 
L 144.144825 374.984719 
L 145.77474 373.601159 
L 146.182218 372.678786 
L 147.986767 372.063871 
L 148.394245 370.757176 
L 149.674892 369.45048 
L 148.859935 368.528107 
L 151.828708 365.837853 
L 152.585454 364.531158 
L 153.516833 364.454293 
L 154.739269 362.532683 
L 153.807889 359.996157 
L 153.575044 358.151411 
L 153.924312 356.998444 
L 155.204959 357.152173 
L 155.845282 354.461919 
L 157.940887 349.388867 
L 159.0469 351.310477 
L 163.29632 351.387342 
L 163.878432 351.079884 
L 163.412742 345.161324 
L 164.693389 345.084459 
L 165.68298 341.779289 
L 168.360696 344.546408 
L 171.154835 344.469544 
L 171.969793 338.243526 
L 174.298242 333.708525 
L 174.589298 331.633186 
L 175.695311 330.941406 
L 176.219212 328.481745 
L 175.578889 326.867592 
L 174.822143 327.559372 
L 174.822143 324.715388 
L 173.425073 323.024371 
L 172.028004 322.025133 
L 170.805568 319.565472 
L 170.921991 317.182675 
L 172.435482 315.261065 
L 175.520678 312.417081 
L 176.393846 309.573097 
L 178.722295 304.500046 
L 180.410421 301.96352 
L 183.728461 295.737502 
L 186.347966 294.353942 
L 186.639022 292.586061 
L 185.940487 290.203264 
L 179.42083 287.820467 
L 174.414664 284.130975 
L 174.007186 282.516822 
L 170.980202 279.288516 
L 169.46671 278.981058 
L 166.847205 281.133262 
L 163.762009 280.210889 
L 163.529165 280.74894 
L 161.841039 280.287754 
L 160.385758 280.825804 
L 157.940887 280.441482 
L 154.215368 276.75199 
L 151.94513 276.367668 
L 149.907737 275.599024 
L 146.880753 273.677413 
L 144.901571 272.831905 
L 142.514911 270.064786 
L 141.117842 269.526735 
L 141.234264 267.52826 
L 140.826785 263.838768 
L 139.720772 262.762666 
L 136.926633 260.994784 
L 133.608593 259.764953 
L 132.851847 258.765716 
L 128.951695 257.305292 
L 125.691866 255.153088 
L 123.829107 253.462071 
L 120.511067 252.23224 
L 118.182618 249.772579 
L 116.901971 248.92707 
L 113.583931 248.158426 
L 108.286709 245.391307 
L 104.968669 243.00851 
L 105.317936 241.548086 
L 107.180695 238.396645 
L 108.053864 233.707915 
L 107.821019 232.862407 
L 108.461342 231.325118 
L 110.498735 228.327406 
L 111.546538 226.328931 
L 111.488326 223.254354 
L 109.567356 222.48571 
L 107.355329 220.564099 
L 107.471752 219.795455 
L 106.074682 219.641726 
L 106.307527 220.640964 
L 104.910457 222.562574 
L 104.211923 227.17444 
L 103.62981 227.71249 
L 103.62981 229.557237 
L 102.698431 226.021473 
L 104.037289 224.868507 
L 105.201514 222.408846 
L 104.0955 220.179777 
L 102.931276 219.949184 
L 103.571599 215.721641 
L 105.259725 214.338081 
L 107.122484 211.87842 
L 107.704596 210.341132 
L 108.81061 209.034436 
L 108.927032 207.958335 
L 107.87923 206.497911 
L 107.995653 204.038249 
L 112.186861 202.500961 
L 114.398888 199.810706 
L 115.272056 197.658502 
L 117.36766 194.199603 
L 119.579687 191.125027 
L 119.812532 189.357145 
L 120.743912 186.205704 
L 122.606671 182.362483 
L 123.130572 179.134177 
L 123.712684 177.289431 
L 125.051543 174.983499 
L 125.109754 172.677566 
L 126.041133 169.910447 
L 130.698032 167.220192 
L 133.899649 161.839683 
L 133.608593 158.688242 
L 134.016072 154.845021 
L 134.831029 152.462224 
L 135.995253 150.771206 
L 137.275901 150.31002 
L 140.361096 150.694342 
L 141.292475 147.69663 
L 142.398489 147.00485 
L 144.028403 143.853409 
L 147.579288 139.779594 
L 148.219611 136.705018 
L 149.849526 134.552814 
L 150.839117 131.939424 
L 151.828708 128.40366 
L 153.924312 125.713406 
L 154.972114 123.561202 
L 156.019916 122.638829 
L 157.824464 119.026201 
L 160.676814 115.490438 
L 162.423151 114.030014 
L 164.460544 111.339759 
L 165.68298 111.800946 
L 167.196472 113.107641 
L 168.942809 116.720268 
L 170.281667 117.412048 
L 172.31906 116.797133 
L 173.308651 114.260607 
L 174.181819 114.106878 
L 176.10279 114.952387 
L 177.499859 116.182217 
L 181.108956 117.565777 
L 181.923913 119.487388 
L 184.776263 116.489675 
L 184.950897 115.413573 
L 187.628613 111.800946 
L 187.745036 111.032301 
L 191.354132 105.113741 
L 191.412343 103.115266 
L 193.62437 98.887723 
L 195.719974 97.042977 
L 195.836396 96.120604 
L 197.233466 93.199756 
L 198.514113 91.893061 
L 198.514113 90.509501 
L 201.541097 88.434162 
L 201.133618 87.511789 
L 202.472476 84.360348 
L 203.636701 84.05289 
L 204.218813 81.670093 
L 204.975559 81.670093 
L 206.89653 78.288059 
L 206.954741 76.981363 
L 208.759289 72.369498 
L 210.272781 70.909074 
L 211.66985 68.833735 
L 212.019118 66.604667 
L 214.696834 63.376361 
L 215.104313 61.531615 
L 216.326749 58.380174 
L 217.374551 56.458563 
L 220.343323 51.923563 
L 223.428519 52.769071 
L 224.127053 52.615342 
L 225.756968 45.159494 
L 227.037615 41.008815 
L 228.72574 38.395425 
L 230.879556 34.32161 
L 231.05419 33.245509 
L 232.101992 32.4 
L 232.858738 33.322373 
L 236.467834 34.859661 
L 244.32635 37.934238 
L 247.295122 40.855086 
L 250.03105 42.31551 
L 250.904218 43.314748 
L 252.8834 44.313985 
L 254.455103 45.851273 
L 257.59851 48.157206 
L 260.043381 48.387799 
L 263.070365 49.771359 
L 266.271983 52.154156 
L 267.55263 52.692207 
L 270.40498 54.690682 
L 270.812459 54.30636 
L 274.6544 55.920512 
L 277.157482 57.842123 
L 279.194875 59.840598 
L 280.708367 60.22492 
L 281.756169 59.610005 
L 282.687549 56.151106 
L 284.259252 52.538478 
L 285.830955 51.078054 
L 286.0638 49.694494 
L 287.751926 47.542291 
L 289.032573 44.9289 
L 291.2446 45.082629 
L 294.388006 47.00424 
L 296.01792 48.848986 
L 298.637426 50.30941 
L 298.637426 50.30941 
" clip-path="url(#p102ebfe05b)" style="fill: none; stroke: #000000; stroke-width: 3"/>
   </g>
  </g>
 </g>
 <defs>
  <clipPath id="p102ebfe05b">
   <rect x="7.2" y="7.2" width="338.795171" height="554.4"/>
  </clipPath>
 </defs>
</svg>
