<?xml version="1.0" encoding="utf-8" standalone="no"?>
<!DOCTYPE svg PUBLIC "-//W3C//DTD SVG 1.1//EN"
  "http://www.w3.org/Graphics/SVG/1.1/DTD/svg11.dtd">
<svg xmlns:xlink="http://www.w3.org/1999/xlink" width="297.542979pt" height="568.8pt" viewBox="0 0 297.542979 568.8" xmlns="http://www.w3.org/2000/svg" version="1.1">
 <metadata>
  <rdf:RDF xmlns:dc="http://purl.org/dc/elements/1.1/" xmlns:cc="http://creativecommons.org/ns#" xmlns:rdf="http://www.w3.org/1999/02/22-rdf-syntax-ns#">
   <cc:Work>
    <dc:type rdf:resource="http://purl.org/dc/dcmitype/StillImage"/>
    <dc:date>2023-09-25T14:14:34.496283</dc:date>
    <dc:format>image/svg+xml</dc:format>
    <dc:creator>
     <cc:Agent>
      <dc:title>Matplotlib v3.6.2, https://matplotlib.org/</dc:title>
     </cc:Agent>
    </dc:creator>
   </cc:Work>
  </rdf:RDF>
 </metadata>
 <defs>
  <style type="text/css">*{stroke-linejoin: round; stroke-linecap: butt}</style>
 </defs>
 <g id="figure_1">
  <g id="patch_1">
   <path d="M 0 568.8 
L 297.542979 568.8 
L 297.542979 0 
L 0 0 
z
" style="fill: #ffffff"/>
  </g>
  <g id="axes_1">
   <g id="LineCollection_1">
    <path d="M 272.011281 32.4 
L 277.472843 35.397212 
L 276.621691 37.364133 
L 274.281022 40.267683 
L 274.139163 41.297974 
L 271.656635 44.576175 
L 271.372917 46.168445 
L 269.457824 49.446646 
L 269.528753 52.537521 
L 267.046225 54.691767 
L 263.428827 53.099498 
L 259.953287 53.005835 
L 252.718491 51.694555 
L 250.306892 52.256532 
L 248.179011 55.160082 
L 247.044141 59.936889 
L 248.675517 61.716484 
L 252.434773 64.713696 
L 254.917302 65.837651 
L 256.123101 68.647538 
L 256.406819 71.176436 
L 257.541689 72.95603 
L 258.605629 80.823713 
L 258.109124 83.539937 
L 257.187042 83.914588 
L 255.626595 86.818138 
L 254.208008 88.129418 
L 251.441762 89.534362 
L 246.547635 91.501282 
L 242.150014 95.809775 
L 241.937226 97.58937 
L 240.163991 101.335886 
L 236.191946 103.583795 
L 232.432689 104.052109 
L 230.446667 104.801412 
L 230.09202 105.644378 
L 225.410681 110.514849 
L 222.857223 115.385319 
L 220.587483 118.476194 
L 220.658413 119.131834 
L 219.097966 123.814979 
L 216.615438 129.0601 
L 213.920122 130.839695 
L 209.877147 134.024233 
L 208.742277 135.710165 
L 207.32369 136.365806 
L 206.614396 137.770749 
L 206.472537 143.671511 
L 206.898114 147.324364 
L 202.996998 152.194834 
L 199.30867 154.255417 
L 198.102871 154.255417 
L 194.84012 156.128675 
L 192.925026 158.001933 
L 191.151792 158.657573 
L 188.598334 161.46746 
L 183.562349 167.836536 
L 183.775137 169.147816 
L 182.853055 172.145029 
L 182.569337 177.202825 
L 183.349561 178.420442 
L 185.051866 183.665564 
L 186.044877 187.880394 
L 186.612312 187.974057 
L 185.406513 192.750864 
L 184.342572 194.905111 
L 178.313575 202.960119 
L 177.462422 204.92704 
L 174.554318 206.612972 
L 172.426437 207.081286 
L 171.220637 208.392566 
L 171.220637 209.79751 
L 169.305544 214.761643 
L 169.092756 221.786359 
L 166.893945 227.406133 
L 165.049781 229.935031 
L 162.283536 232.18294 
L 160.155654 232.932243 
L 158.169632 235.180152 
L 155.261527 239.488645 
L 151.644129 242.298532 
L 150.509259 244.733767 
L 148.381378 247.356328 
L 147.175578 247.730979 
L 143.700039 250.540866 
L 141.714016 252.882438 
L 140.295429 253.819067 
L 137.032678 258.12756 
L 136.607101 259.907155 
L 137.103607 261.124772 
L 136.252454 262.436053 
L 136.323384 265.152277 
L 137.174536 269.179781 
L 137.032678 271.989667 
L 137.387324 276.204497 
L 137.245466 279.85735 
L 135.543161 282.011596 
L 132.20948 284.353169 
L 128.733941 285.008809 
L 126.393271 286.320089 
L 122.492155 292.689166 
L 121.853791 296.623007 
L 121.002638 297.465973 
L 118.449181 302.055454 
L 118.165463 304.303364 
L 117.314311 305.333655 
L 116.959664 307.394239 
L 114.05156 313.201338 
L 111.427173 315.730236 
L 110.434161 315.917562 
L 105.965611 319.289426 
L 104.547023 321.537335 
L 102.986577 322.66129 
L 101.993565 324.253559 
L 97.737803 329.311355 
L 96.95758 329.873332 
L 95.609922 334.181825 
L 95.042487 338.490318 
L 94.61691 339.052295 
L 95.609922 341.674856 
L 97.454085 343.548114 
L 98.447097 345.327709 
L 101.851707 348.60591 
L 103.554012 349.823527 
L 103.7668 353.289054 
L 99.22732 360.313771 
L 98.09245 363.779298 
L 97.028509 363.87296 
L 94.758769 366.870173 
L 94.475052 368.368779 
L 92.914605 371.178666 
L 92.34717 373.520238 
L 90.006501 376.51745 
L 88.94256 379.233674 
L 88.516984 381.668909 
L 86.034456 384.197807 
L 85.325162 385.790076 
L 80.360106 391.690838 
L 80.714752 394.03241 
L 79.508953 396.654971 
L 78.374083 400.776138 
L 77.310142 400.963464 
L 76.45899 404.428991 
L 74.331109 406.489574 
L 72.274157 410.517079 
L 71.139287 411.828359 
L 66.24516 420.070693 
L 65.464936 422.974243 
L 63.833561 424.753838 
L 62.911479 429.343319 
L 61.492891 429.155993 
L 57.875493 435.337744 
L 54.896459 439.927225 
L 54.470883 443.580078 
L 54.612742 446.202639 
L 52.768578 445.640662 
L 50.711626 451.073109 
L 50.002332 451.447761 
L 48.867462 454.163984 
L 47.874451 454.163984 
L 46.739581 456.505557 
L 46.88144 458.285151 
L 43.618688 465.122542 
L 41.490807 465.028879 
L 39.079208 469.805687 
L 39.221067 470.367664 
L 36.66761 473.177551 
L 34.185081 478.048021 
L 32.128129 480.670582 
L 31.986271 482.918491 
L 28.439802 488.257276 
L 25.957274 493.034083 
L 24.609616 494.345363 
L 23.332887 497.529902 
L 20.070135 503.898978 
L 22.694522 507.364505 
L 24.184039 508.207471 
L 27.943296 511.392009 
L 30.709542 512.234975 
L 35.887386 515.513176 
L 36.242033 516.168816 
L 39.221067 517.480097 
L 44.398912 521.226612 
L 45.250064 522.350567 
L 50.427909 524.130162 
L 54.258095 527.127374 
L 56.882482 530.030924 
L 61.280103 530.592901 
L 59.081293 533.402788 
L 58.159211 536.4 
L 51.562779 532.653484 
L 49.363968 529.843598 
L 47.236087 527.876677 
L 49.576756 528.532317 
L 49.15118 529.187958 
L 49.15118 529.187958 
" clip-path="url(#pc08593cacf)" style="fill: none; stroke: #000000; stroke-width: 3"/>
   </g>
  </g>
 </g>
 <defs>
  <clipPath id="pc08593cacf">
   <rect x="7.2" y="7.2" width="283.142979" height="554.4"/>
  </clipPath>
 </defs>
</svg>
