<?xml version="1.0" encoding="utf-8" standalone="no"?>
<!DOCTYPE svg PUBLIC "-//W3C//DTD SVG 1.1//EN"
  "http://www.w3.org/Graphics/SVG/1.1/DTD/svg11.dtd">
<svg xmlns:xlink="http://www.w3.org/1999/xlink" width="295.714987pt" height="568.8pt" viewBox="0 0 295.714987 568.8" xmlns="http://www.w3.org/2000/svg" version="1.1">
 <metadata>
  <rdf:RDF xmlns:dc="http://purl.org/dc/elements/1.1/" xmlns:cc="http://creativecommons.org/ns#" xmlns:rdf="http://www.w3.org/1999/02/22-rdf-syntax-ns#">
   <cc:Work>
    <dc:type rdf:resource="http://purl.org/dc/dcmitype/StillImage"/>
    <dc:date>2023-09-25T14:14:34.101685</dc:date>
    <dc:format>image/svg+xml</dc:format>
    <dc:creator>
     <cc:Agent>
      <dc:title>Matplotlib v3.6.2, https://matplotlib.org/</dc:title>
     </cc:Agent>
    </dc:creator>
   </cc:Work>
  </rdf:RDF>
 </metadata>
 <defs>
  <style type="text/css">*{stroke-linejoin: round; stroke-linecap: butt}</style>
 </defs>
 <g id="figure_1">
  <g id="patch_1">
   <path d="M -0 568.8 
L 295.714987 568.8 
L 295.714987 0 
L -0 0 
z
" style="fill: #ffffff"/>
  </g>
  <g id="axes_1">
   <g id="LineCollection_1">
    <path d="M 270.857359 32.4 
L 270.575007 35.476013 
L 271.845594 36.314925 
L 274.245591 35.848863 
L 275.727942 37.806325 
L 274.316179 41.255188 
L 270.786771 45.44975 
L 270.363242 48.618975 
L 267.822069 52.906751 
L 267.822069 54.211726 
L 266.692658 56.542038 
L 265.492659 57.101313 
L 260.339724 57.008101 
L 255.822082 55.982763 
L 255.257376 56.542038 
L 249.822088 55.237063 
L 245.939739 58.313076 
L 245.657387 61.109451 
L 247.139738 64.744738 
L 249.892676 66.702201 
L 254.975024 68.752876 
L 256.810316 73.599926 
L 256.245611 77.142001 
L 258.786784 82.175476 
L 257.727962 86.183614 
L 255.539729 87.208951 
L 252.080909 90.937451 
L 247.986796 92.988127 
L 244.316212 94.293102 
L 241.422097 97.741964 
L 240.010334 101.284039 
L 238.033866 103.987202 
L 236.057397 104.732902 
L 232.669166 106.690364 
L 229.280934 108.088552 
L 227.233878 110.139227 
L 225.469174 110.978139 
L 222.716235 113.96094 
L 221.37506 118.248715 
L 218.69271 122.722915 
L 217.280947 127.103902 
L 215.375067 129.99349 
L 212.269188 133.535565 
L 209.798602 135.120178 
L 208.386839 135.493028 
L 206.198606 137.543703 
L 205.422137 142.111115 
L 206.05743 144.721065 
L 206.128018 147.89029 
L 204.222138 151.152728 
L 202.951551 154.042316 
L 199.210379 155.813353 
L 194.198619 156.931903 
L 192.928033 158.702941 
L 191.233917 159.448641 
L 188.904508 161.685741 
L 188.05745 163.083928 
L 183.398631 168.303828 
L 181.845692 172.591603 
L 181.845692 177.345441 
L 182.269221 180.701091 
L 181.633927 182.285704 
L 182.339809 183.124616 
L 184.316277 188.810579 
L 184.175101 193.750842 
L 182.128044 197.386129 
L 178.45746 202.419604 
L 176.269227 204.749917 
L 172.739819 207.359867 
L 170.622175 209.690179 
L 169.422176 212.206917 
L 168.928059 215.748992 
L 169.210411 221.714592 
L 168.645706 223.765267 
L 166.528061 227.493767 
L 163.210418 231.129055 
L 159.892775 233.739005 
L 152.904547 241.662068 
L 152.128077 243.433105 
L 148.528081 247.534455 
L 142.316323 251.356168 
L 140.057502 253.779693 
L 137.586917 255.737156 
L 135.822213 261.050268 
L 135.328095 263.567006 
L 135.328095 268.041206 
L 136.033977 271.956131 
L 135.610448 272.701831 
L 136.245742 278.014944 
L 134.198685 283.421269 
L 129.963395 286.404069 
L 128.198692 286.031219 
L 124.598695 289.107231 
L 122.763403 291.530756 
L 122.12811 293.301794 
L 120.928111 293.861069 
L 119.657524 296.471019 
L 118.245761 302.250194 
L 118.457526 303.928019 
L 117.53988 304.766932 
L 115.563411 309.986832 
L 113.586943 313.062844 
L 111.045769 315.299945 
L 106.03401 320.613057 
L 104.339894 323.409432 
L 102.645778 324.341557 
L 99.89284 328.16327 
L 97.916372 329.28182 
L 96.716373 332.26462 
L 95.022257 334.87457 
L 94.104611 338.416645 
L 96.222256 344.102608 
L 98.481077 347.085408 
L 100.810486 348.856445 
L 102.292837 350.90712 
L 102.786955 353.88992 
L 101.728132 357.431996 
L 99.963428 359.855521 
L 99.186958 363.117958 
L 96.786961 366.100758 
L 95.516374 370.108896 
L 94.316376 370.574958 
L 92.198731 372.532421 
L 90.786968 375.515221 
L 89.657557 376.260921 
L 88.034029 379.336934 
L 86.692854 381.014759 
L 86.975207 383.438284 
L 84.081093 388.937821 
L 82.386977 391.268134 
L 81.398743 394.344146 
L 79.56345 397.979434 
L 77.375218 400.589384 
L 76.739924 400.402959 
L 73.634045 408.046384 
L 71.798753 410.656334 
L 71.5164 413.266284 
L 68.692874 417.18121 
L 68.128169 418.67261 
L 64.881114 423.240022 
L 64.528173 424.824635 
L 61.422294 430.324172 
L 59.375237 434.518735 
L 59.445825 436.19656 
L 58.245827 438.43366 
L 55.916417 441.41646 
L 53.234067 445.89066 
L 52.598774 446.356723 
L 51.398775 449.339523 
L 50.128188 450.830923 
L 49.210542 450.73771 
L 45.892899 456.982948 
L 47.092898 458.660773 
L 45.751723 458.660773 
L 44.904665 457.355798 
L 42.716432 458.940411 
L 41.869374 462.202848 
L 41.939962 464.160311 
L 40.810552 465.931348 
L 39.751729 470.032698 
L 36.928203 474.972961 
L 34.598794 477.489699 
L 32.692913 481.591049 
L 31.210562 482.429961 
L 29.869387 484.107786 
L 29.516446 486.065249 
L 27.398801 489.327686 
L 26.763508 491.471574 
L 23.587041 496.225412 
L 22.739983 500.233549 
L 20.410574 504.428112 
L 19.987045 506.385574 
L 23.375276 509.461587 
L 26.269391 510.859774 
L 27.82233 511.139412 
L 31.704679 512.724024 
L 36.998791 517.291437 
L 41.728198 519.808175 
L 46.387016 523.536675 
L 47.939956 524.189162 
L 50.198777 526.7059 
L 52.598774 528.1973 
L 56.19877 528.756575 
L 58.810532 531.086887 
L 60.010531 531.1801 
L 59.022296 536.213575 
L 56.904652 536.4 
L 55.634065 534.815387 
L 52.38701 532.391862 
L 52.104657 531.086887 
L 50.622306 529.968337 
L 47.657603 529.409062 
L 47.516427 531.273312 
L 47.516427 531.273312 
" clip-path="url(#pa35e2b1d69)" style="fill: none; stroke: #000000; stroke-width: 3"/>
   </g>
  </g>
 </g>
 <defs>
  <clipPath id="pa35e2b1d69">
   <rect x="7.2" y="7.2" width="281.314987" height="554.4"/>
  </clipPath>
 </defs>
</svg>
