<?xml version="1.0" encoding="utf-8" standalone="no"?>
<!DOCTYPE svg PUBLIC "-//W3C//DTD SVG 1.1//EN"
  "http://www.w3.org/Graphics/SVG/1.1/DTD/svg11.dtd">
<svg xmlns:xlink="http://www.w3.org/1999/xlink" width="299.501629pt" height="568.8pt" viewBox="0 0 299.501629 568.8" xmlns="http://www.w3.org/2000/svg" version="1.1">
 <metadata>
  <rdf:RDF xmlns:dc="http://purl.org/dc/elements/1.1/" xmlns:cc="http://creativecommons.org/ns#" xmlns:rdf="http://www.w3.org/1999/02/22-rdf-syntax-ns#">
   <cc:Work>
    <dc:type rdf:resource="http://purl.org/dc/dcmitype/StillImage"/>
    <dc:date>2023-09-25T14:14:33.711817</dc:date>
    <dc:format>image/svg+xml</dc:format>
    <dc:creator>
     <cc:Agent>
      <dc:title>Matplotlib v3.6.2, https://matplotlib.org/</dc:title>
     </cc:Agent>
    </dc:creator>
   </cc:Work>
  </rdf:RDF>
 </metadata>
 <defs>
  <style type="text/css">*{stroke-linejoin: round; stroke-linecap: butt}</style>
 </defs>
 <g id="figure_1">
  <g id="patch_1">
   <path d="M 0 568.8 
L 299.501629 568.8 
L 299.501629 0 
L 0 0 
z
" style="fill: #ffffff"/>
  </g>
  <g id="axes_1">
   <g id="LineCollection_1">
    <path d="M 273.303379 33.994937 
L 273.942812 32.4 
L 276.074253 36.621891 
L 277.637311 34.464036 
L 279.342464 36.152792 
L 278.205695 39.624125 
L 275.505869 43.189278 
L 275.150629 45.347133 
L 271.242986 50.319583 
L 269.608881 54.260015 
L 266.056478 55.104393 
L 262.504075 54.353835 
L 261.580451 54.635294 
L 257.743856 53.227997 
L 252.84154 52.758898 
L 249.92857 54.447655 
L 248.649705 55.761132 
L 248.08132 59.701564 
L 250.212762 63.266716 
L 251.917915 64.298734 
L 254.049357 64.580194 
L 256.393943 65.799851 
L 257.814904 67.488608 
L 258.454336 74.243634 
L 260.372634 78.840804 
L 260.017393 82.405957 
L 258.170144 86.721668 
L 254.404597 89.911541 
L 251.065339 91.600298 
L 248.010272 92.350856 
L 245.52359 94.227252 
L 243.534245 96.385108 
L 243.676341 97.417126 
L 240.834419 102.389576 
L 237.49516 105.11035 
L 236.855728 104.172152 
L 234.653238 104.92271 
L 230.106163 107.455845 
L 226.909 110.551899 
L 224.990703 113.085034 
L 224.067078 115.805808 
L 222.077733 118.901862 
L 220.37258 124.155771 
L 216.464937 130.910797 
L 214.546639 132.881013 
L 210.994236 134.475949 
L 209.502227 135.789427 
L 207.868122 138.79166 
L 207.370786 141.887714 
L 207.93917 144.702308 
L 207.654978 148.173641 
L 206.091921 151.269695 
L 203.463143 153.990469 
L 202.681614 153.896649 
L 198.702923 155.866865 
L 196.713578 156.429784 
L 194.297944 157.837081 
L 190.248205 161.120774 
L 188.827244 163.37245 
L 184.635409 168.438719 
L 183.711784 171.534773 
L 183.782832 176.319583 
L 184.20912 179.227997 
L 186.553706 186.733582 
L 186.624754 191.799851 
L 185.985322 192.831869 
L 183.285496 199.493075 
L 182.503967 199.774535 
L 180.301477 202.776768 
L 177.033267 205.403723 
L 176.393834 206.435741 
L 172.344095 209.531794 
L 170.496846 213.753686 
L 170.35475 215.630082 
L 170.70999 220.977811 
L 168.933789 225.762621 
L 166.305011 229.609233 
L 163.463089 231.954728 
L 161.189551 233.080566 
L 160.12383 234.863142 
L 156.216187 238.803574 
L 155.647803 240.398511 
L 152.0954 244.714222 
L 149.750814 247.997915 
L 145.274787 251.750707 
L 141.50924 253.908563 
L 137.885789 257.942815 
L 136.606925 263.572003 
L 137.246357 267.606255 
L 137.885789 276.894415 
L 137.743693 279.52137 
L 136.749021 282.054505 
L 135.399108 283.743261 
L 133.12557 285.525838 
L 130.283648 286.370216 
L 127.583822 287.871333 
L 124.031419 291.624125 
L 123.24989 293.8758 
L 121.686833 296.033656 
L 121.757881 297.065674 
L 119.839584 300.818466 
L 118.702815 305.790916 
L 117.921286 307.948771 
L 115.079364 313.39032 
L 111.455914 317.706031 
L 106.624646 321.927923 
L 106.056262 322.866121 
L 102.930147 325.680715 
L 100.514513 329.527327 
L 97.601543 333.186299 
L 95.612198 337.408191 
L 95.683246 340.410424 
L 98.312024 345.382874 
L 101.36709 348.009829 
L 102.432811 349.792405 
L 104.919493 352.606999 
L 104.777397 353.639017 
L 101.580234 358.705287 
L 100.230321 362.458079 
L 97.885735 371.74624 
L 97.530495 369.682204 
L 96.25163 369.306925 
L 95.328005 370.151303 
L 91.988747 376.43723 
L 90.851978 377.656888 
L 88.507392 382.535517 
L 83.747173 390.604021 
L 83.676125 391.542219 
L 80.763155 394.825912 
L 79.342193 398.297245 
L 79.555338 399.423083 
L 76.571319 405.52137 
L 75.07931 407.210127 
L 73.800445 410.4 
L 71.740052 413.120774 
L 69.750706 416.404468 
L 67.477169 422.033656 
L 63.569526 427.662844 
L 62.148565 431.134177 
L 60.159219 434.980789 
L 58.31197 437.607744 
L 56.677864 441.548176 
L 54.617471 443.987491 
L 53.622798 446.708265 
L 52.272885 448.95994 
L 50.922972 449.804319 
L 49.715155 451.586895 
L 49.715155 452.712733 
L 48.365242 456.184066 
L 48.507338 458.248101 
L 45.16808 456.840804 
L 43.676071 462.657632 
L 42.326158 464.815488 
L 42.681398 466.410424 
L 42.041965 468.75592 
L 38.205371 474.572748 
L 37.779082 475.980045 
L 36.002881 478.23172 
L 35.150304 481.140134 
L 31.597902 484.611467 
L 31.100565 486.581683 
L 28.613883 489.302457 
L 27.832355 492.67997 
L 26.482442 493.524348 
L 25.345673 497.089501 
L 25.771961 498.215339 
L 23.64052 499.997915 
L 21.224886 504.125987 
L 20.585453 504.595086 
L 20.159165 507.5035 
L 20.798597 508.910797 
L 28.400739 509.848995 
L 33.587247 512.851229 
L 35.2924 514.258526 
L 36.926506 516.697841 
L 37.13965 518.105138 
L 38.773755 519.418615 
L 41.189389 520.169173 
L 43.818167 522.514669 
L 45.16808 522.608488 
L 48.223146 524.297245 
L 51.34926 525.516902 
L 54.475375 527.205659 
L 56.606816 529.926433 
L 57.743585 532.459568 
L 61.082844 531.896649 
L 60.088171 533.960685 
L 60.656555 536.4 
L 58.809306 534.898883 
L 56.393672 534.242144 
L 54.120134 532.647208 
L 54.049086 531.802829 
L 51.34926 529.363515 
L 50.709828 530.114073 
L 50.709828 530.114073 
" clip-path="url(#p54c310a5d9)" style="fill: none; stroke: #000000; stroke-width: 3"/>
   </g>
  </g>
 </g>
 <defs>
  <clipPath id="p54c310a5d9">
   <rect x="7.2" y="7.2" width="285.101629" height="554.4"/>
  </clipPath>
 </defs>
</svg>
