<?xml version="1.0" encoding="utf-8" standalone="no"?>
<!DOCTYPE svg PUBLIC "-//W3C//DTD SVG 1.1//EN"
  "http://www.w3.org/Graphics/SVG/1.1/DTD/svg11.dtd">
<svg xmlns:xlink="http://www.w3.org/1999/xlink" width="267.209468pt" height="568.8pt" viewBox="0 0 267.209468 568.8" xmlns="http://www.w3.org/2000/svg" version="1.1">
 <metadata>
  <rdf:RDF xmlns:dc="http://purl.org/dc/elements/1.1/" xmlns:cc="http://creativecommons.org/ns#" xmlns:rdf="http://www.w3.org/1999/02/22-rdf-syntax-ns#">
   <cc:Work>
    <dc:type rdf:resource="http://purl.org/dc/dcmitype/StillImage"/>
    <dc:date>2023-09-25T14:14:33.651417</dc:date>
    <dc:format>image/svg+xml</dc:format>
    <dc:creator>
     <cc:Agent>
      <dc:title>Matplotlib v3.6.2, https://matplotlib.org/</dc:title>
     </cc:Agent>
    </dc:creator>
   </cc:Work>
  </rdf:RDF>
 </metadata>
 <defs>
  <style type="text/css">*{stroke-linejoin: round; stroke-linecap: butt}</style>
 </defs>
 <g id="figure_1">
  <g id="patch_1">
   <path d="M 0 568.8 
L 267.209468 568.8 
L 267.209468 0 
L 0 0 
z
" style="fill: #ffffff"/>
  </g>
  <g id="axes_1">
   <g id="LineCollection_1">
    <path d="M 33.088535 530.033501 
L 30.909143 532.126596 
L 28.135371 536.4 
L 18.757382 523.667001 
L 18.691339 522.358816 
L 19.681972 522.009967 
L 19.549888 520.788995 
L 20.606563 520.352933 
L 22.389702 518.259837 
L 22.455744 516.253954 
L 24.106798 512.3294 
L 25.097431 512.3294 
L 25.031389 509.800242 
L 27.276823 507.271085 
L 28.333498 504.480291 
L 28.99392 501.340647 
L 29.984552 498.637065 
L 31.833733 495.584634 
L 33.352704 494.886935 
L 34.937716 492.881052 
L 36.522728 494.189237 
L 36.58877 492.270566 
L 38.107741 489.654196 
L 40.022964 488.433224 
L 41.607976 488.084374 
L 43.85341 486.77619 
L 45.306338 484.508669 
L 45.240296 483.723758 
L 46.627182 479.537567 
L 45.900718 478.927081 
L 46.957393 476.397924 
L 46.164887 474.043191 
L 48.410321 469.50815 
L 51.250135 466.455719 
L 53.693695 464.449836 
L 54.222033 463.141651 
L 52.967231 461.135767 
L 55.608918 457.036788 
L 57.78831 452.937809 
L 59.307281 452.240111 
L 60.49604 447.879495 
L 59.109154 447.792282 
L 61.024377 446.135248 
L 64.392529 440.902509 
L 64.458571 437.588441 
L 66.109625 435.931407 
L 66.637963 434.099948 
L 67.364427 434.274373 
L 68.949439 429.913757 
L 70.600494 428.343935 
L 72.053422 424.855442 
L 74.496982 422.500709 
L 73.902603 421.803011 
L 76.214079 419.971552 
L 77.204712 418.314518 
L 76.54429 417.61682 
L 79.58223 414.128327 
L 80.572863 413.51784 
L 81.167242 411.948019 
L 81.893706 412.296868 
L 82.950381 409.680498 
L 86.648743 407.325766 
L 87.309165 407.238553 
L 90.743359 401.918602 
L 92.130244 401.395328 
L 93.583172 399.127808 
L 95.498396 395.290465 
L 96.555071 390.057726 
L 96.489028 387.528569 
L 94.70589 386.220384 
L 96.819239 384.214501 
L 98.338209 381.336494 
L 98.66842 379.417823 
L 97.215492 378.5457 
L 93.979426 378.458488 
L 92.922751 377.237515 
L 91.601907 374.097872 
L 92.064202 371.830351 
L 94.837974 370.086105 
L 97.281535 367.905797 
L 98.404252 364.068455 
L 100.187391 360.754387 
L 100.78177 358.661291 
L 103.291373 353.777401 
L 105.272638 351.509881 
L 106.263271 350.986607 
L 108.178494 348.021388 
L 109.763507 346.538778 
L 112.405194 345.666655 
L 114.188333 345.753867 
L 115.377092 346.713203 
L 122.839859 349.852847 
L 126.20801 348.893511 
L 129.311992 346.625991 
L 131.425342 342.527012 
L 134.595367 338.515245 
L 136.312463 335.637238 
L 140.076868 333.718567 
L 143.973356 330.317287 
L 144.633778 327.613705 
L 146.21879 323.340301 
L 146.152748 319.764596 
L 144.69982 316.188891 
L 143.973356 313.049247 
L 144.303567 309.647967 
L 148.596309 303.891954 
L 150.115279 303.01983 
L 153.087177 300.403461 
L 155.926991 298.746427 
L 156.587413 294.909085 
L 156.455329 290.98453 
L 158.106383 285.315729 
L 158.370552 281.391175 
L 160.351817 277.989894 
L 160.814112 275.547949 
L 161.870787 273.629278 
L 165.767276 269.355875 
L 167.286246 268.745388 
L 168.937301 267.262779 
L 169.927933 264.820834 
L 171.116693 263.425437 
L 172.305452 260.809067 
L 173.097958 257.582211 
L 176.400067 251.913411 
L 179.966345 247.640007 
L 182.277821 246.855096 
L 184.985551 244.762 
L 189.080166 244.674788 
L 194.099372 245.808548 
L 197.335438 245.285274 
L 199.911083 243.802665 
L 200.373379 242.058418 
L 202.618813 239.616473 
L 202.750897 237.959439 
L 204.467994 236.825679 
L 208.232398 228.97657 
L 210.015537 226.621838 
L 210.742001 224.615954 
L 213.317646 220.953037 
L 214.04411 218.685517 
L 215.959333 214.67375 
L 217.08205 213.627202 
L 219.1954 209.964284 
L 221.044581 207.347915 
L 221.506877 204.818758 
L 222.299383 204.033847 
L 224.742943 198.975532 
L 225.271281 194.178854 
L 224.412733 192.434608 
L 224.148564 190.167088 
L 224.808986 187.812355 
L 224.742943 184.323862 
L 224.016479 181.707493 
L 222.629594 178.567849 
L 221.242708 176.474753 
L 222.101256 173.073473 
L 223.950437 168.712857 
L 226.129829 164.788302 
L 228.705474 161.735871 
L 234.385102 155.718221 
L 236.300325 153.189064 
L 237.158873 150.834331 
L 236.828662 145.950441 
L 236.432409 144.555044 
L 236.894705 142.985222 
L 237.819295 135.833812 
L 239.008054 132.432532 
L 240.460982 130.601073 
L 247.593538 125.455546 
L 247.65958 122.577539 
L 246.404779 120.048382 
L 244.819766 118.47856 
L 242.442248 118.216923 
L 240.527025 119.525108 
L 237.224916 120.920505 
L 236.564494 121.967053 
L 233.988849 122.751964 
L 231.479246 122.054265 
L 231.413204 121.356567 
L 232.800089 118.47856 
L 235.573861 114.641218 
L 238.347633 111.414362 
L 240.064729 108.797993 
L 241.979953 102.431493 
L 240.659109 98.332514 
L 239.866603 97.896453 
L 237.224916 94.756809 
L 236.630536 93.448624 
L 235.309692 93.2742 
L 232.734047 90.65783 
L 229.49798 88.651947 
L 226.790251 89.175221 
L 224.280648 89.088008 
L 219.657695 88.215885 
L 216.15746 88.04146 
L 214.63849 91.006679 
L 214.770574 93.884686 
L 216.75184 95.890569 
L 217.610388 97.547603 
L 217.67643 99.117425 
L 218.799147 98.855788 
L 221.176666 100.338398 
L 221.90313 101.55937 
L 223.4221 102.431493 
L 224.082522 108.972417 
L 224.742943 109.670116 
L 225.205239 112.809759 
L 224.214606 116.559889 
L 222.563551 119.873957 
L 221.110623 121.09493 
L 218.799147 121.443779 
L 214.704532 123.188026 
L 212.921393 123.624087 
L 211.402423 124.84506 
L 209.4872 128.24634 
L 208.826778 131.211559 
L 206.977597 134.525627 
L 205.392584 135.484963 
L 203.081108 135.921024 
L 197.467523 138.01412 
L 194.231456 138.799031 
L 188.749955 137.054785 
L 186.702647 135.048901 
L 185.381804 134.787264 
L 186.834732 131.822045 
L 187.0989 130.252224 
L 190.533094 126.502094 
L 191.787895 124.757847 
L 192.84457 121.792628 
L 194.36354 119.263471 
L 194.231456 118.391348 
L 197.07127 116.123828 
L 198.392113 111.152725 
L 200.043168 109.234054 
L 201.430054 106.094411 
L 205.986964 99.640699 
L 207.770103 97.80924 
L 208.364483 94.146323 
L 211.138254 89.000796 
L 213.383688 85.686728 
L 213.515773 84.378543 
L 215.497038 82.02381 
L 218.336852 80.628413 
L 218.27081 79.145804 
L 219.78978 76.616646 
L 219.591653 74.697975 
L 220.912497 72.430455 
L 221.572919 70.250147 
L 223.686269 67.546565 
L 224.34669 65.366257 
L 226.658167 62.749888 
L 228.177137 59.174182 
L 229.762149 57.255511 
L 230.884866 53.941443 
L 233.328427 50.714587 
L 233.72468 48.272642 
L 234.979481 47.05167 
L 236.432409 43.999239 
L 238.28159 42.254992 
L 238.809928 39.028136 
L 240.39494 36.586191 
L 241.517657 32.4 
L 239.206181 32.836062 
L 240.593067 33.795397 
L 239.404308 34.841945 
L 237.158873 39.90026 
L 235.441777 42.516629 
L 233.328427 47.138882 
L 232.271752 48.708704 
L 231.677372 50.976224 
L 232.535921 51.848347 
L 234.120933 51.93556 
L 235.441777 53.243745 
L 238.942012 55.598477 
L 240.857236 55.598477 
L 241.781826 57.691573 
L 244.62164 57.865998 
L 245.810399 58.650908 
L 244.885809 60.307943 
L 247.65958 60.395155 
L 248.518128 62.488251 
L 247.329369 65.017408 
L 246.074568 65.802319 
L 246.14061 67.110504 
L 244.357471 70.598996 
L 242.904543 71.47112 
L 238.87597 69.116387 
L 238.149506 66.063956 
L 238.149506 66.063956 
" clip-path="url(#pf446f4ac85)" style="fill: none; stroke: #000000; stroke-width: 3"/>
   </g>
  </g>
 </g>
 <defs>
  <clipPath id="pf446f4ac85">
   <rect x="7.2" y="7.2" width="252.809468" height="554.4"/>
  </clipPath>
 </defs>
</svg>
