<?xml version="1.0" encoding="utf-8" standalone="no"?>
<!DOCTYPE svg PUBLIC "-//W3C//DTD SVG 1.1//EN"
  "http://www.w3.org/Graphics/SVG/1.1/DTD/svg11.dtd">
<svg xmlns:xlink="http://www.w3.org/1999/xlink" width="298.948714pt" height="568.8pt" viewBox="0 0 298.948714 568.8" xmlns="http://www.w3.org/2000/svg" version="1.1">
 <metadata>
  <rdf:RDF xmlns:dc="http://purl.org/dc/elements/1.1/" xmlns:cc="http://creativecommons.org/ns#" xmlns:rdf="http://www.w3.org/1999/02/22-rdf-syntax-ns#">
   <cc:Work>
    <dc:type rdf:resource="http://purl.org/dc/dcmitype/StillImage"/>
    <dc:date>2023-09-25T14:14:33.465491</dc:date>
    <dc:format>image/svg+xml</dc:format>
    <dc:creator>
     <cc:Agent>
      <dc:title>Matplotlib v3.6.2, https://matplotlib.org/</dc:title>
     </cc:Agent>
    </dc:creator>
   </cc:Work>
  </rdf:RDF>
 </metadata>
 <defs>
  <style type="text/css">*{stroke-linejoin: round; stroke-linecap: butt}</style>
 </defs>
 <g id="figure_1">
  <g id="patch_1">
   <path d="M 0 568.8 
L 298.948714 568.8 
L 298.948714 0 
L 0 0 
z
" style="fill: #ffffff"/>
  </g>
  <g id="axes_1">
   <g id="LineCollection_1">
    <path d="M 273.563003 32.4 
L 274.485595 34.555448 
L 276.82756 35.117739 
L 278.814681 37.179472 
L 278.38887 39.990926 
L 276.898529 41.584083 
L 276.685623 42.98981 
L 274.130752 45.332689 
L 273.633972 48.050428 
L 272.498474 48.800149 
L 271.221038 52.736184 
L 270.227477 54.423057 
L 271.15007 54.610487 
L 266.962921 57.796802 
L 265.614517 57.234511 
L 259.22734 55.735069 
L 257.807968 55.828784 
L 253.336944 54.704202 
L 250.640136 54.891633 
L 248.723983 56.109929 
L 247.730422 60.13968 
L 248.582046 64.544292 
L 254.756317 68.292897 
L 255.891815 68.292897 
L 257.240219 74.946672 
L 259.582183 77.570695 
L 259.795089 81.881592 
L 258.517654 86.379918 
L 256.317626 89.659948 
L 253.478881 91.721681 
L 249.504638 92.752547 
L 245.175552 95.095426 
L 243.401336 97.157159 
L 241.910995 102.311491 
L 239.710967 105.404091 
L 234.38832 107.184678 
L 233.110885 106.903533 
L 227.575332 110.183563 
L 224.949493 113.557308 
L 222.749465 118.336779 
L 220.97525 121.335664 
L 219.697814 126.958572 
L 218.562316 128.645444 
L 215.79454 131.175753 
L 214.517105 133.237486 
L 210.968673 135.111789 
L 209.194457 136.892376 
L 207.562179 141.109557 
L 207.136367 144.202157 
L 207.065399 149.262774 
L 205.291183 152.917665 
L 202.736312 155.729119 
L 199.471755 156.47884 
L 196.278167 158.446858 
L 194.149108 159.290294 
L 191.949081 160.977166 
L 188.400649 162.945184 
L 184.994155 168.568092 
L 184.071563 170.817255 
L 183.007034 175.221867 
L 182.652191 179.626478 
L 183.148971 183.375084 
L 184.781249 185.155671 
L 185.987716 191.434585 
L 185.348998 194.152324 
L 182.510253 199.587802 
L 180.736038 202.399256 
L 178.819885 203.430123 
L 177.542449 205.679286 
L 175.200485 207.741019 
L 172.148834 209.521607 
L 170.019775 212.707921 
L 169.664932 214.582224 
L 169.664932 218.70569 
L 170.090743 220.861138 
L 169.452026 224.234883 
L 169.877838 225.921755 
L 168.245559 227.702343 
L 164.981002 232.200669 
L 162.071288 233.700112 
L 159.871261 236.04299 
L 159.445449 237.823578 
L 155.187332 242.134474 
L 152.774398 246.6328 
L 146.671096 251.505987 
L 143.761382 253.286575 
L 140.000045 256.285459 
L 137.232269 260.877501 
L 135.812896 263.9701 
L 136.025802 269.030718 
L 136.948394 274.278765 
L 137.516143 275.684492 
L 136.806457 278.683377 
L 136.806457 282.057122 
L 136.309676 283.650279 
L 134.393524 286.742878 
L 127.580535 288.898327 
L 125.664382 290.678914 
L 121.761108 297.238974 
L 119.56108 305.20476 
L 116.296523 313.357977 
L 113.315841 317.012867 
L 107.212539 322.1672 
L 105.509292 323.291781 
L 103.877013 325.63466 
L 102.102798 327.134102 
L 99.476959 330.882707 
L 97.773711 332.382149 
L 96.354339 334.631313 
L 96.212402 336.505615 
L 95.005935 338.473633 
L 94.367217 343.627966 
L 95.431747 345.314838 
L 94.793029 346.907996 
L 97.134994 349.344589 
L 97.205962 350.28174 
L 98.980178 351.593752 
L 101.180206 351.968613 
L 102.102798 353.37434 
L 104.160888 354.967497 
L 102.670547 358.434957 
L 101.180206 360.028115 
L 100.399551 361.808702 
L 98.128555 364.151581 
L 98.270492 365.932168 
L 97.205962 367.43161 
L 97.3479 368.649907 
L 95.715621 371.929937 
L 95.928527 372.492228 
L 91.741378 378.583711 
L 89.328445 380.551729 
L 88.263915 383.831759 
L 87.128417 385.331201 
L 84.076766 393.109557 
L 83.650954 394.702715 
L 80.457366 396.764448 
L 79.676711 400.700483 
L 77.050872 405.667386 
L 75.702468 407.073113 
L 73.360503 410.821718 
L 72.721786 412.414875 
L 66.689452 419.25608 
L 65.341048 423.192116 
L 63.850707 425.066419 
L 61.863586 431.157903 
L 61.721648 432.657345 
L 59.095809 437.905392 
L 57.960311 440.904277 
L 57.321594 441.091707 
L 55.476409 443.715731 
L 54.553817 446.714615 
L 53.418319 448.214057 
L 51.573135 448.870063 
L 49.515044 450.463221 
L 49.089233 452.899814 
L 48.024703 452.993529 
L 46.321456 454.399256 
L 46.534362 456.273559 
L 45.327895 456.648419 
L 45.327895 458.147862 
L 44.334335 460.022164 
L 43.198837 460.67817 
L 40.005248 459.553589 
L 38.940719 462.271328 
L 39.508468 468.737672 
L 38.514907 470.799405 
L 38.018127 473.235999 
L 36.031005 476.047453 
L 35.889068 478.765192 
L 33.547103 481.857791 
L 30.282546 487.293269 
L 28.650268 493.853328 
L 27.017989 495.16534 
L 25.172805 499.476237 
L 22.972778 500.600818 
L 21.340499 506.692302 
L 21.340499 507.816884 
L 20.134032 510.253477 
L 22.901809 512.221495 
L 25.172805 512.408925 
L 26.663146 513.533507 
L 31.489013 512.12778 
L 33.476135 515.126664 
L 35.534225 516.157531 
L 36.385848 517.844403 
L 36.953597 521.593009 
L 38.160064 520.937003 
L 37.30844 518.781554 
L 38.443938 518.406694 
L 43.056899 521.218148 
L 46.889205 522.53016 
L 47.882766 525.247899 
L 52.495727 527.778208 
L 53.631225 527.309632 
L 58.669997 533.213685 
L 61.224868 534.057122 
L 57.889343 536.4 
L 57.534499 535.369134 
L 56.328033 535.650279 
L 53.773162 534.806843 
L 51.076354 531.995389 
L 49.72795 531.901673 
L 47.315017 530.214801 
L 46.534362 530.964522 
L 46.534362 530.964522 
" clip-path="url(#p3b8d823a2b)" style="fill: none; stroke: #000000; stroke-width: 3"/>
   </g>
  </g>
 </g>
 <defs>
  <clipPath id="p3b8d823a2b">
   <rect x="7.2" y="7.2" width="284.548714" height="554.4"/>
  </clipPath>
 </defs>
</svg>
