<?xml version="1.0" encoding="utf-8" standalone="no"?>
<!DOCTYPE svg PUBLIC "-//W3C//DTD SVG 1.1//EN"
  "http://www.w3.org/Graphics/SVG/1.1/DTD/svg11.dtd">
<svg xmlns:xlink="http://www.w3.org/1999/xlink" width="548.60704pt" height="568.8pt" viewBox="0 0 548.60704 568.8" xmlns="http://www.w3.org/2000/svg" version="1.1">
 <metadata>
  <rdf:RDF xmlns:dc="http://purl.org/dc/elements/1.1/" xmlns:cc="http://creativecommons.org/ns#" xmlns:rdf="http://www.w3.org/1999/02/22-rdf-syntax-ns#">
   <cc:Work>
    <dc:type rdf:resource="http://purl.org/dc/dcmitype/StillImage"/>
    <dc:date>2023-09-25T14:14:33.159193</dc:date>
    <dc:format>image/svg+xml</dc:format>
    <dc:creator>
     <cc:Agent>
      <dc:title>Matplotlib v3.6.2, https://matplotlib.org/</dc:title>
     </cc:Agent>
    </dc:creator>
   </cc:Work>
  </rdf:RDF>
 </metadata>
 <defs>
  <style type="text/css">*{stroke-linejoin: round; stroke-linecap: butt}</style>
 </defs>
 <g id="figure_1">
  <g id="patch_1">
   <path d="M 0 568.8 
L 548.60704 568.8 
L 548.60704 0 
L 0 0 
z
" style="fill: #ffffff"/>
  </g>
  <g id="axes_1">
   <g id="LineCollection_1">
    <path d="M 440.376576 512.115976 
L 433.927137 508.707692 
L 409.096797 505.725444 
L 386.846232 490.814201 
L 382.654097 484.849704 
L 375.237242 483.145562 
L 361.69342 472.92071 
L 351.696789 469.938462 
L 343.957462 463.547929 
L 332.993416 461.843787 
L 327.18892 463.973964 
L 317.837234 477.607101 
L 307.840603 501.039053 
L 295.909141 514.672189 
L 290.427118 527.87929 
L 282.365319 536.4 
L 277.205767 535.121893 
L 269.143969 527.453254 
L 248.828236 518.932544 
L 241.411381 510.83787 
L 230.447334 508.707692 
L 215.936096 498.48284 
L 205.616994 485.701775 
L 188.52598 484.423669 
L 173.69227 478.459172 
L 157.2462 467.808284 
L 146.604626 464.826036 
L 143.379906 459.713609 
L 129.836084 455.453254 
L 126.288893 449.488757 
L 121.129342 450.340828 
L 103.393384 436.707692 
L 98.233833 436.281657 
L 79.207987 420.518343 
L 71.468661 417.96213 
L 67.921469 411.997633 
L 74.69338 404.75503 
L 79.530459 394.956213 
L 74.370908 392.826036 
L 64.051806 381.323077 
L 54.055175 374.080473 
L 46.63832 372.802367 
L 38.576521 361.725444 
L 31.482138 356.186982 
L 40.188881 337.44142 
L 40.833825 324.23432 
L 48.573152 310.175148 
L 46.63832 304.210651 
L 48.25068 288.873373 
L 55.990007 270.553846 
L 60.827086 255.216568 
L 71.468661 248.4 
L 83.722595 233.062722 
L 89.204618 222.411834 
L 94.364169 221.559763 
L 98.233833 207.926627 
L 98.556305 199.405917 
L 105.650688 184.92071 
L 115.96979 178.530178 
L 117.58215 167.453254 
L 123.709117 161.914793 
L 134.02822 139.334911 
L 141.122603 132.518343 
L 148.216986 116.75503 
L 148.86193 110.790533 
L 162.405752 117.607101 
L 167.565303 126.553846 
L 171.757438 123.571598 
L 185.946204 123.997633 
L 195.297891 122.293491 
L 197.555195 100.139645 
L 203.35969 89.062722 
L 205.939466 72.873373 
L 199.490026 69.891124 
L 185.623732 57.96213 
L 184.978789 51.997633 
L 192.718115 50.719527 
L 202.714746 60.092308 
L 209.809129 58.388166 
L 211.099017 50.719527 
L 199.812498 55.831953 
L 187.881036 49.867456 
L 176.91699 49.867456 
L 189.493396 59.240237 
L 199.167555 72.447337 
L 216.258568 76.281657 
L 232.059694 87.784615 
L 234.961941 93.323077 
L 252.052955 96.731361 
L 259.147338 105.252071 
L 274.625992 111.216568 
L 282.687791 111.642604 
L 287.847342 117.607101 
L 293.651837 116.75503 
L 326.221505 141.039053 
L 332.026 139.334911 
L 345.892294 126.553846 
L 345.24735 118.885207 
L 356.211396 100.991716 
L 359.436116 92.471006 
L 367.497915 83.098225 
L 369.755218 75.00355 
L 378.784433 61.79645 
L 397.487807 39.216568 
L 395.875447 32.4 
L 413.611404 58.814201 
L 416.513652 59.240237 
L 431.02489 91.618935 
L 434.894553 94.601183 
L 439.731633 106.104142 
L 450.695679 120.163314 
L 451.340623 125.27574 
L 443.278824 135.500592 
L 437.796801 159.784615 
L 455.532758 169.157396 
L 461.659725 174.695858 
L 462.304669 181.938462 
L 472.946244 195.145562 
L 469.07658 203.666272 
L 467.464221 214.31716 
L 475.52602 221.133728 
L 479.718155 219.429586 
L 485.52265 223.689941 
L 485.52265 234.340828 
L 496.809169 235.192899 
L 517.124902 244.991716 
L 511.642878 236.897041 
L 503.258608 247.547929 
L 493.584449 263.311243 
L 488.424898 277.370414 
L 481.652987 289.725444 
L 478.428267 291.00355 
L 471.333884 302.932544 
L 468.754108 315.287574 
L 463.917029 320.4 
L 452.308039 345.96213 
L 453.597927 350.648521 
L 477.460851 358.31716 
L 481.330515 363.429586 
L 498.421528 370.672189 
L 502.936136 397.512426 
L 503.258608 415.405917 
L 506.805799 420.092308 
L 509.063103 437.985799 
L 506.483327 453.323077 
L 494.229393 451.618935 
L 476.493435 429.039053 
L 465.529389 432.021302 
L 464.561973 423.926627 
L 451.985567 437.985799 
L 453.275455 431.169231 
L 469.07658 430.743195 
L 488.74737 434.577515 
L 489.714786 437.985799 
L 499.388944 441.820118 
L 505.515911 458.435503 
L 501.323776 460.56568 
L 494.551865 475.476923 
L 492.294561 475.902959 
L 466.174333 526.175148 
L 459.07995 531.287574 
L 450.373207 530.861538 
L 445.8586 524.897041 
L 433.927137 520.636686 
L 433.927137 520.636686 
" clip-path="url(#pf51769ae07)" style="fill: none; stroke: #000000; stroke-width: 3"/>
   </g>
  </g>
 </g>
 <defs>
  <clipPath id="pf51769ae07">
   <rect x="7.2" y="7.2" width="534.20704" height="554.4"/>
  </clipPath>
 </defs>
</svg>
