<?xml version="1.0" encoding="utf-8" standalone="no"?>
<!DOCTYPE svg PUBLIC "-//W3C//DTD SVG 1.1//EN"
  "http://www.w3.org/Graphics/SVG/1.1/DTD/svg11.dtd">
<svg xmlns:xlink="http://www.w3.org/1999/xlink" width="287.564788pt" height="568.8pt" viewBox="0 0 287.564788 568.8" xmlns="http://www.w3.org/2000/svg" version="1.1">
 <metadata>
  <rdf:RDF xmlns:dc="http://purl.org/dc/elements/1.1/" xmlns:cc="http://creativecommons.org/ns#" xmlns:rdf="http://www.w3.org/1999/02/22-rdf-syntax-ns#">
   <cc:Work>
    <dc:type rdf:resource="http://purl.org/dc/dcmitype/StillImage"/>
    <dc:date>2023-09-25T14:14:32.969116</dc:date>
    <dc:format>image/svg+xml</dc:format>
    <dc:creator>
     <cc:Agent>
      <dc:title>Matplotlib v3.6.2, https://matplotlib.org/</dc:title>
     </cc:Agent>
    </dc:creator>
   </cc:Work>
  </rdf:RDF>
 </metadata>
 <defs>
  <style type="text/css">*{stroke-linejoin: round; stroke-linecap: butt}</style>
 </defs>
 <g id="figure_1">
  <g id="patch_1">
   <path d="M -0 568.8 
L 287.564788 568.8 
L 287.564788 0 
L -0 0 
z
" style="fill: #ffffff"/>
  </g>
  <g id="axes_1">
   <g id="LineCollection_1">
    <path d="M 27.363618 536.4 
L 22.672752 534.42905 
L 19.829802 534.241341 
L 19.616581 533.115084 
L 20.966982 530.956425 
L 20.966982 529.173184 
L 22.175236 528.234637 
L 23.099194 526.357542 
L 24.947111 524.198883 
L 27.150397 518.379888 
L 28.92724 514.813408 
L 32.267706 510.683799 
L 33.333812 506.929609 
L 35.892466 502.987709 
L 38.237899 498.670391 
L 42.004807 493.602235 
L 43.213061 490.505028 
L 46.127084 485.812291 
L 48.33037 480.087151 
L 51.031171 475.394413 
L 51.528688 472.95419 
L 52.950162 469.2 
L 55.650964 467.322905 
L 57.072439 465.821229 
L 57.712102 463.381006 
L 60.057536 461.222346 
L 61.336863 457.843575 
L 61.194715 456.623464 
L 63.042632 454.18324 
L 64.819476 449.115084 
L 68.657457 442.545251 
L 76.902011 438.603352 
L 74.98302 436.444693 
L 76.617716 433.722905 
L 77.683822 430.625698 
L 79.958181 426.965363 
L 79.958181 424.618994 
L 81.095361 423.586592 
L 81.735024 421.240223 
L 85.146564 417.298324 
L 86.994481 413.919553 
L 89.482061 411.47933 
L 91.401052 405.941899 
L 92.893601 403.126257 
L 92.467158 401.906145 
L 93.106822 400.21676 
L 98.224131 392.614525 
L 97.939836 390.362011 
L 99.716679 385.012291 
L 101.422449 383.886034 
L 101.706744 382.759777 
L 104.833988 377.785475 
L 106.468684 376.753073 
L 104.12325 372.717318 
L 100.924932 370.652514 
L 100.072048 368.212291 
L 100.924932 364.458101 
L 102.77285 363.519553 
L 104.69184 361.642458 
L 105.82902 359.765363 
L 106.895126 356.386592 
L 109.098412 352.632402 
L 111.443845 345.87486 
L 113.504983 343.059218 
L 113.220688 342.402235 
L 115.139679 341.275978 
L 116.703301 339.211173 
L 119.688398 338.084916 
L 121.678463 337.803352 
L 124.450338 338.084916 
L 126.795771 339.586592 
L 131.557712 341.745251 
L 136.177504 340.149721 
L 137.954348 338.55419 
L 139.944412 337.521788 
L 141.579108 335.363128 
L 141.508034 334.330726 
L 142.716288 332.359777 
L 143.355951 329.26257 
L 145.203868 326.822346 
L 148.615408 324.382123 
L 152.098021 322.880447 
L 153.021979 320.815642 
L 156.149223 316.02905 
L 157.286403 312.837989 
L 157.854993 309.553073 
L 156.07815 304.109497 
L 155.367412 300.073743 
L 155.50956 297.44581 
L 157.002108 295.47486 
L 157.712846 293.597765 
L 159.205394 291.626816 
L 162.688007 289.092737 
L 166.099546 287.027933 
L 167.734242 285.526257 
L 168.800348 282.992179 
L 168.089611 279.144134 
L 168.871422 275.014525 
L 171.643297 269.38324 
L 172.425108 266.379888 
L 174.55732 261.217877 
L 175.623426 259.528492 
L 175.268058 258.402235 
L 178.324228 255.492737 
L 179.603556 253.052514 
L 181.522546 251.550838 
L 183.654758 249.01676 
L 186.071265 242.916201 
L 189.411731 237.472626 
L 189.624952 235.78324 
L 193.534007 231.278212 
L 197.443063 229.401117 
L 203.057888 227.336313 
L 207.748754 228.087151 
L 210.023113 228.744134 
L 213.292505 227.805587 
L 214.71398 226.67933 
L 220.897395 216.918436 
L 224.380008 210.911732 
L 227.578326 204.060335 
L 228.289063 203.497207 
L 230.13698 200.024581 
L 233.477446 194.67486 
L 235.538584 190.826816 
L 237.670796 185.57095 
L 239.874082 182.098324 
L 240.726966 178.907263 
L 242.077367 175.903911 
L 241.93522 169.146369 
L 243.001326 163.23352 
L 241.864146 159.47933 
L 239.589787 156.194413 
L 238.736902 153.097207 
L 240.300524 148.873743 
L 241.295556 145.025698 
L 242.148441 144.46257 
L 244.209579 141.083799 
L 247.336824 137.705028 
L 253.73346 131.792179 
L 255.154934 130.947486 
L 256.576409 125.316201 
L 256.22104 121.93743 
L 256.22104 116.963128 
L 257.642515 109.173184 
L 259.348285 104.386592 
L 263.470561 101.852514 
L 266.384584 100.632402 
L 267.806059 99.318436 
L 267.948206 96.972067 
L 266.597805 93.499441 
L 263.25734 92.560894 
L 260.272243 93.405587 
L 257.216073 92.936313 
L 253.946681 96.784358 
L 252.240911 96.878212 
L 251.103731 95.658101 
L 252.311985 93.217877 
L 252.240911 91.997765 
L 253.378091 88.055866 
L 259.63258 80.547486 
L 260.840833 77.07486 
L 261.267275 74.353073 
L 259.916874 69.660335 
L 256.22104 66.187709 
L 254.515271 65.718436 
L 252.454132 63.465922 
L 247.407897 61.401117 
L 245.488907 61.870391 
L 242.077367 60.744134 
L 240.940188 61.025698 
L 239.305492 59.993296 
L 234.756773 59.242458 
L 231.487381 61.776536 
L 230.563422 65.624581 
L 233.690667 72.382123 
L 235.112141 72.100559 
L 239.518713 73.32067 
L 241.224483 76.136313 
L 241.36663 80.547486 
L 241.864146 83.081564 
L 242.717031 84.113966 
L 242.50381 88.994413 
L 241.93522 90.496089 
L 238.452607 95.939665 
L 232.837782 98.286034 
L 230.989865 98.473743 
L 228.43121 100.163128 
L 227.151883 102.040223 
L 225.659335 106.263687 
L 223.953565 109.360894 
L 221.18169 111.237989 
L 218.551962 111.050279 
L 214.998275 111.894972 
L 212.581768 114.241341 
L 208.672713 115.179888 
L 205.332247 112.270391 
L 201.77856 110.205587 
L 201.352118 109.173184 
L 205.616542 101.195531 
L 207.535533 98.661453 
L 207.393385 97.253631 
L 208.885934 95.939665 
L 209.028081 94.907263 
L 211.089219 90.589944 
L 212.866063 88.33743 
L 215.85116 80.82905 
L 218.33874 77.919553 
L 220.897395 72.569832 
L 224.024639 67.97095 
L 226.938662 65.061453 
L 227.151883 62.621229 
L 229.56839 58.210056 
L 229.56839 56.70838 
L 232.127045 52.672626 
L 234.756773 51.264804 
L 236.462542 49.106145 
L 235.538584 48.073743 
L 236.107174 45.164246 
L 237.74187 43.381006 
L 237.670796 42.160894 
L 241.082335 36.623464 
L 241.93522 34.277095 
L 243.356695 32.4 
L 245.062464 32.4 
L 247.692192 34.840223 
L 251.743395 36.905028 
L 253.73346 39.157542 
L 256.078893 40.283799 
L 256.078893 40.283799 
" clip-path="url(#p7b338a928a)" style="fill: none; stroke: #000000; stroke-width: 3"/>
   </g>
  </g>
 </g>
 <defs>
  <clipPath id="p7b338a928a">
   <rect x="7.2" y="7.2" width="273.164788" height="554.4"/>
  </clipPath>
 </defs>
</svg>
