<?xml version="1.0" encoding="utf-8" standalone="no"?>
<!DOCTYPE svg PUBLIC "-//W3C//DTD SVG 1.1//EN"
  "http://www.w3.org/Graphics/SVG/1.1/DTD/svg11.dtd">
<svg xmlns:xlink="http://www.w3.org/1999/xlink" width="267.387221pt" height="568.8pt" viewBox="0 0 267.387221 568.8" xmlns="http://www.w3.org/2000/svg" version="1.1">
 <metadata>
  <rdf:RDF xmlns:dc="http://purl.org/dc/elements/1.1/" xmlns:cc="http://creativecommons.org/ns#" xmlns:rdf="http://www.w3.org/1999/02/22-rdf-syntax-ns#">
   <cc:Work>
    <dc:type rdf:resource="http://purl.org/dc/dcmitype/StillImage"/>
    <dc:date>2023-09-25T14:14:32.839378</dc:date>
    <dc:format>image/svg+xml</dc:format>
    <dc:creator>
     <cc:Agent>
      <dc:title>Matplotlib v3.6.2, https://matplotlib.org/</dc:title>
     </cc:Agent>
    </dc:creator>
   </cc:Work>
  </rdf:RDF>
 </metadata>
 <defs>
  <style type="text/css">*{stroke-linejoin: round; stroke-linecap: butt}</style>
 </defs>
 <g id="figure_1">
  <g id="patch_1">
   <path d="M 0 568.8 
L 267.387221 568.8 
L 267.387221 0 
L 0 0 
z
" style="fill: #ffffff"/>
  </g>
  <g id="axes_1">
   <g id="LineCollection_1">
    <path d="M 28.514379 534.473328 
L 27.320668 534.560904 
L 28.381744 536.4 
L 22.147919 534.560904 
L 20.821573 534.473328 
L 18.898371 531.583319 
L 18.699419 529.13119 
L 20.423669 525.365421 
L 22.943726 521.4245 
L 23.142678 520.461164 
L 25.596418 516.520243 
L 28.050158 511.52841 
L 29.376504 509.77689 
L 30.835484 505.222937 
L 33.952397 501.282016 
L 37.268262 495.589574 
L 38.130387 493.312598 
L 40.25254 489.459253 
L 41.645204 487.620156 
L 42.70628 484.554996 
L 44.762117 481.664987 
L 45.955828 480.701651 
L 47.680078 478.161946 
L 49.072741 474.834057 
L 50.995942 473.870721 
L 52.057019 472.469505 
L 51.460163 470.980712 
L 53.118096 466.952215 
L 54.311807 465.638575 
L 54.24549 464.324935 
L 56.765547 461.960382 
L 56.632913 460.296438 
L 57.296085 458.895222 
L 59.88246 456.443093 
L 59.948777 455.479757 
L 62.070931 448.823979 
L 66.978411 440.504257 
L 68.503709 436.91364 
L 71.686939 432.096959 
L 73.61014 430.608167 
L 74.6049 427.718158 
L 76.992322 424.039965 
L 79.180793 421.500261 
L 81.037677 420.361772 
L 80.772408 419.74874 
L 83.159831 415.982971 
L 85.480936 413.881147 
L 85.746206 411.779322 
L 87.404138 408.276281 
L 87.404138 407.225369 
L 90.454734 402.496264 
L 91.250541 399.255951 
L 91.847397 398.993223 
L 92.842156 396.365943 
L 92.709522 395.490182 
L 93.903233 391.636838 
L 95.362213 388.659253 
L 97.749636 387.258036 
L 97.086463 386.73258 
L 97.086463 384.280452 
L 95.826435 382.266203 
L 93.306377 379.989227 
L 91.714762 377.537098 
L 92.245301 376.311034 
L 92.643204 372.895569 
L 94.831675 371.932233 
L 96.356973 370.531017 
L 98.479126 365.977063 
L 100.866549 362.999479 
L 100.932866 361.598262 
L 102.126578 360.722502 
L 103.05502 357.219461 
L 104.514 354.854909 
L 107.630913 351.439444 
L 110.41624 349.687924 
L 114.395277 349.863076 
L 114.726864 350.476108 
L 116.981652 351.08914 
L 119.23644 352.227628 
L 122.353353 353.015812 
L 124.740776 352.84066 
L 126.465025 352.140052 
L 128.122958 350.21338 
L 128.918765 350.038228 
L 130.576698 346.885491 
L 130.643015 344.608514 
L 132.367265 341.368202 
L 135.019957 339.353953 
L 140.922196 335.850912 
L 142.580128 334.274544 
L 143.574888 332.347871 
L 146.360214 324.90391 
L 146.95707 322.714509 
L 144.635964 315.095395 
L 144.768599 310.191138 
L 145.498089 309.92841 
L 148.946589 305.549609 
L 152.328771 302.747176 
L 155.246732 301.34596 
L 156.705712 298.981407 
L 156.573078 294.777758 
L 157.833106 290.486533 
L 158.429962 286.545613 
L 159.689991 283.392876 
L 160.353164 280.765595 
L 161.082654 279.977411 
L 161.41424 277.700434 
L 163.271125 274.810426 
L 166.586989 271.482537 
L 169.902854 267.103736 
L 171.826056 265.089487 
L 173.483988 262.287055 
L 176.070363 255.368549 
L 177.264074 253.179149 
L 179.518862 250.376716 
L 180.977843 249.150652 
L 184.625294 248.274891 
L 186.084275 247.399131 
L 189.798043 247.486707 
L 195.103427 248.099739 
L 198.817195 247.749435 
L 201.867791 245.384883 
L 202.995185 243.02033 
L 204.122579 239.166985 
L 207.836348 234.700608 
L 209.693232 229.796351 
L 211.019578 227.694526 
L 211.94802 224.629366 
L 214.269125 221.739357 
L 214.600712 220.338141 
L 215.661789 219.637533 
L 218.115529 214.295395 
L 218.911336 213.945091 
L 219.110288 212.281147 
L 223.951451 204.136577 
L 225.277796 200.195656 
L 225.344114 197.743527 
L 224.879893 193.71503 
L 225.808335 189.073501 
L 225.874652 186.533797 
L 225.476748 184.081668 
L 221.829297 177.863771 
L 222.094566 175.761946 
L 224.813575 169.719201 
L 226.604142 166.65404 
L 228.262075 164.639791 
L 231.975843 161.311903 
L 234.03168 157.63371 
L 236.817006 154.831277 
L 238.143352 151.941268 
L 237.745448 146.248827 
L 238.541256 141.081842 
L 238.474938 138.892441 
L 239.270746 137.491225 
L 240.000236 132.76212 
L 241.923438 130.222415 
L 247.02987 127.770287 
L 248.090946 126.106342 
L 248.687802 123.566638 
L 247.361456 121.377237 
L 245.703524 120.589053 
L 241.989755 121.377237 
L 240.39814 122.953606 
L 238.209669 123.216334 
L 236.684371 124.442398 
L 233.434824 122.077845 
L 234.694853 118.049348 
L 240.066554 111.043267 
L 240.530775 109.466898 
L 242.453976 105.701129 
L 242.520293 100.884448 
L 240.796044 98.43232 
L 238.209669 95.805039 
L 235.026439 93.265334 
L 234.76117 92.564726 
L 228.85893 91.16351 
L 228.12944 91.60139 
L 223.553547 90.462902 
L 220.436634 89.324414 
L 217.253404 89.937446 
L 214.269125 94.228671 
L 214.865981 99.045352 
L 216.921817 100.446568 
L 220.900855 101.672632 
L 223.48723 103.511729 
L 224.481989 105.788705 
L 224.150402 109.116594 
L 225.874652 113.582971 
L 226.405191 116.122676 
L 226.206239 118.487228 
L 224.813575 120.326325 
L 220.105047 124.967854 
L 219.110288 125.05543 
L 212.544876 128.033015 
L 210.621674 129.609383 
L 209.49428 131.88636 
L 209.162694 135.214248 
L 206.244733 137.316073 
L 203.459406 138.892441 
L 201.204618 138.804865 
L 197.557167 140.994266 
L 195.302379 141.081842 
L 192.119148 139.680626 
L 187.941159 137.053345 
L 187.742207 135.914857 
L 189.930678 130.047263 
L 191.389658 128.033015 
L 192.3181 125.668462 
L 194.572888 122.515725 
L 196.164504 119.187837 
L 198.419292 116.297828 
L 201.138301 110.517811 
L 203.790993 106.226586 
L 204.852069 103.599305 
L 206.708954 100.62172 
L 210.687991 92.47715 
L 213.208049 89.061685 
L 216.324962 83.45682 
L 217.717625 82.58106 
L 219.242923 80.741964 
L 219.242923 78.377411 
L 219.906096 75.837706 
L 224.084085 69.181929 
L 226.67046 65.503736 
L 227.466267 63.577063 
L 229.522103 60.074023 
L 231.180036 55.344917 
L 233.03692 52.805213 
L 234.03168 52.630061 
L 235.092756 53.680973 
L 237.9444 55.169765 
L 238.67389 56.220678 
L 240.530775 56.570982 
L 244.443495 59.898871 
L 247.626725 60.862207 
L 246.565649 62.876455 
L 246.963552 60.599479 
L 243.780322 58.234926 
L 237.811765 55.169765 
L 236.153833 53.243093 
L 233.302189 52.630061 
L 233.501141 51.228844 
L 234.76117 48.426412 
L 236.286468 46.762467 
L 239.801284 40.632146 
L 242.652928 36.603649 
L 242.918197 34.939705 
L 244.045591 32.83788 
L 242.188707 32.4 
L 241.525534 33.27576 
L 240.597092 36.866377 
L 238.939159 40.10669 
L 236.684371 42.646394 
L 236.087516 45.186099 
L 234.76117 46.762467 
L 233.169555 49.827628 
L 231.975843 51.228844 
L 230.118959 56.308254 
L 229.256834 56.658558 
L 225.6757 63.226759 
L 226.537825 64.5404 
L 227.930488 64.452824 
L 230.052642 65.328584 
L 232.705334 67.517984 
L 234.827487 68.744049 
L 236.750689 70.670721 
L 238.939159 70.845873 
L 238.939159 70.845873 
" clip-path="url(#p0848c42045)" style="fill: none; stroke: #000000; stroke-width: 3"/>
   </g>
  </g>
 </g>
 <defs>
  <clipPath id="p0848c42045">
   <rect x="7.2" y="7.2" width="252.987221" height="554.4"/>
  </clipPath>
 </defs>
</svg>
