<?xml version="1.0" encoding="utf-8" standalone="no"?>
<!DOCTYPE svg PUBLIC "-//W3C//DTD SVG 1.1//EN"
  "http://www.w3.org/Graphics/SVG/1.1/DTD/svg11.dtd">
<svg xmlns:xlink="http://www.w3.org/1999/xlink" width="267.660789pt" height="568.8pt" viewBox="0 0 267.660789 568.8" xmlns="http://www.w3.org/2000/svg" version="1.1">
 <metadata>
  <rdf:RDF xmlns:dc="http://purl.org/dc/elements/1.1/" xmlns:cc="http://creativecommons.org/ns#" xmlns:rdf="http://www.w3.org/1999/02/22-rdf-syntax-ns#">
   <cc:Work>
    <dc:type rdf:resource="http://purl.org/dc/dcmitype/StillImage"/>
    <dc:date>2023-09-25T14:14:32.647188</dc:date>
    <dc:format>image/svg+xml</dc:format>
    <dc:creator>
     <cc:Agent>
      <dc:title>Matplotlib v3.6.2, https://matplotlib.org/</dc:title>
     </cc:Agent>
    </dc:creator>
   </cc:Work>
  </rdf:RDF>
 </metadata>
 <defs>
  <style type="text/css">*{stroke-linejoin: round; stroke-linecap: butt}</style>
 </defs>
 <g id="figure_1">
  <g id="patch_1">
   <path d="M 0 568.8 
L 267.660789 568.8 
L 267.660789 0 
L 0 0 
z
" style="fill: #ffffff"/>
  </g>
  <g id="axes_1">
   <g id="LineCollection_1">
    <path d="M 27.704457 536.4 
L 29.291387 534.740956 
L 25.720794 534.828274 
L 25.522428 533.955094 
L 23.406522 532.470686 
L 20.761638 532.034096 
L 20.629394 530.46237 
L 18.711854 530.02578 
L 19.637563 529.414553 
L 21.621226 525.485239 
L 22.546935 524.699376 
L 24.398353 521.032017 
L 27.836701 511.339709 
L 31.407293 506.362578 
L 32.729735 503.917672 
L 33.5232 501.210811 
L 36.630938 495.011227 
L 37.688891 491.081913 
L 40.664384 488.549688 
L 44.168855 481.913514 
L 44.168855 480.865696 
L 45.557418 479.206653 
L 47.012104 478.508108 
L 48.070057 476.325156 
L 47.342714 474.491476 
L 48.46679 474.404158 
L 49.590865 473.094387 
L 51.310039 469.165073 
L 53.293702 467.593347 
L 54.748387 464.886486 
L 55.674096 464.624532 
L 56.203073 461.306445 
L 60.038154 453.971726 
L 61.096107 451.177547 
L 63.807112 447.772141 
L 64.99731 444.454054 
L 66.58424 441.834511 
L 67.972803 437.206653 
L 68.898512 436.071518 
L 69.956466 433.451975 
L 70.220954 429.871933 
L 71.874006 429.086071 
L 73.527058 426.8158 
L 73.725424 425.156757 
L 75.18011 423.235759 
L 76.833162 422.27526 
L 79.147435 420.00499 
L 79.279679 418.345946 
L 81.924562 413.281497 
L 85.891887 408.479002 
L 88.404526 405.859459 
L 87.809427 404.986279 
L 88.272282 403.239917 
L 89.793089 401.755509 
L 90.652676 398.786694 
L 93.363682 393.722245 
L 94.355513 392.761746 
L 94.752245 391.190021 
L 94.024902 390.840748 
L 96.537541 388.657796 
L 96.868152 386.64948 
L 97.661617 386.21289 
L 98.190593 382.894802 
L 97.13264 381.323077 
L 93.62817 378.87817 
L 92.437973 374.77422 
L 92.636339 373.289813 
L 94.487757 371.630769 
L 96.405297 370.757588 
L 99.182425 365.431185 
L 101.166087 363.073597 
L 101.56282 360.541372 
L 104.207703 354.865696 
L 108.042783 350.15052 
L 111.216643 348.31684 
L 114.721113 348.054886 
L 117.365996 349.015385 
L 119.680269 351.111019 
L 124.110449 351.285655 
L 125.565134 350.761746 
L 129.201849 348.054886 
L 130.656534 346.395842 
L 134.822225 338.886486 
L 139.450771 335.131809 
L 143.418096 332.512266 
L 145.13727 330.241996 
L 146.525834 325.177547 
L 147.120932 321.946778 
L 144.740537 313.826195 
L 145.13727 310.071518 
L 147.649909 306.229522 
L 150.493158 303.609979 
L 155.121704 300.8158 
L 156.510267 299.331393 
L 157.039244 297.148441 
L 157.303732 291.385447 
L 159.022907 284.138046 
L 158.956784 282.828274 
L 160.279226 279.597505 
L 161.469423 278.287734 
L 163.91594 272.612058 
L 165.767359 270.167152 
L 169.205707 267.634927 
L 170.395904 265.626611 
L 172.313444 263.705613 
L 173.900374 260.824116 
L 174.032619 259.514345 
L 175.553426 255.235759 
L 176.545258 254.537214 
L 179.124019 250.345946 
L 182.760733 248.162994 
L 185.53786 247.551767 
L 187.852133 246.329314 
L 189.505185 246.678586 
L 191.55497 246.329314 
L 194.001487 247.027859 
L 194.861074 246.678586 
L 198.101055 246.853222 
L 199.357375 245.805405 
L 203.721432 240.479002 
L 203.589188 239.431185 
L 207.292024 234.541372 
L 208.4161 231.310603 
L 209.870786 228.25447 
L 210.796495 227.293971 
L 214.234843 221.094387 
L 216.284627 217.950936 
L 217.01197 215.855301 
L 219.061755 213.061123 
L 221.640516 207.298129 
L 223.822544 204.154678 
L 225.541718 199.96341 
L 225.27723 196.208732 
L 225.740085 195.335551 
L 226.335183 190.096466 
L 225.938451 185.817879 
L 225.078864 182.499792 
L 224.483765 181.888565 
L 222.632347 177.260707 
L 223.35969 173.506029 
L 225.673963 168.790852 
L 225.872329 167.743035 
L 227.657625 166.17131 
L 230.699241 161.892723 
L 233.145758 159.622453 
L 236.385739 155.693139 
L 237.774303 154.645322 
L 239.030623 151.938462 
L 238.898378 149.144283 
L 238.369402 148.445738 
L 238.567768 145.214969 
L 237.774303 140.761746 
L 238.832256 136.745114 
L 241.675506 130.10894 
L 243.196314 129.585031 
L 247.428127 127.227443 
L 248.948934 123.909356 
L 248.552202 122.512266 
L 247.031394 120.50395 
L 245.246098 120.06736 
L 242.799581 121.027859 
L 241.741628 121.988358 
L 237.575937 123.996674 
L 235.989007 123.822037 
L 234.005345 121.289813 
L 235.526152 117.535135 
L 237.509815 115.701455 
L 238.766134 113.518503 
L 240.485308 109.589189 
L 241.609384 108.1921 
L 242.997947 105.397921 
L 243.526924 103.476923 
L 242.667337 102.25447 
L 242.072238 99.634927 
L 237.972669 94.919751 
L 233.740856 91.601663 
L 230.831485 90.466528 
L 224.880498 90.37921 
L 221.376027 89.331393 
L 219.127877 89.244075 
L 216.482994 90.466528 
L 215.09443 90.117256 
L 214.631575 93.784615 
L 215.160552 96.31684 
L 216.284627 98.412474 
L 217.937679 99.896881 
L 222.301736 101.555925 
L 225.144986 105.223285 
L 224.483765 109.938462 
L 225.60784 113.169231 
L 226.136817 117.971726 
L 225.475596 119.543451 
L 223.029079 122.250312 
L 220.714807 124.17131 
L 217.342581 125.830353 
L 212.780157 126.965489 
L 207.358147 135.609979 
L 204.250409 137.094387 
L 200.15084 137.618295 
L 197.30759 140.15052 
L 193.80312 139.801247 
L 189.769673 136.832432 
L 187.653767 135.871933 
L 187.257034 134.911435 
L 188.182744 133.601663 
L 189.703551 133.514345 
L 189.901918 130.720166 
L 190.893749 129.148441 
L 191.55497 126.790852 
L 195.786783 119.805405 
L 197.241468 116.574636 
L 198.034933 113.955094 
L 199.291253 113.081913 
L 200.15084 111.422869 
L 200.349206 109.414553 
L 202.597357 106.35842 
L 202.729601 104.437422 
L 205.771217 101.119335 
L 207.688757 98.58711 
L 207.953245 97.190021 
L 209.606297 95.705613 
L 210.730373 92.824116 
L 213.705866 88.807484 
L 216.549116 83.219127 
L 218.995633 81.385447 
L 222.10337 71.693139 
L 225.27723 66.803326 
L 226.930282 64.79501 
L 228.980067 59.206653 
L 230.03802 58.158836 
L 230.963729 56.15052 
L 230.963729 52.48316 
L 232.220048 53.007069 
L 233.278002 52.133888 
L 234.79881 48.291892 
L 237.245326 45.672349 
L 240.353064 38.424948 
L 242.336727 35.368815 
L 242.535093 33.709771 
L 240.749797 32.4 
L 241.278773 33.709771 
L 240.154698 36.678586 
L 235.989007 43.664033 
L 233.476368 49.601663 
L 231.691072 52.570478 
L 230.434752 53.094387 
L 229.509043 56.15052 
L 228.715578 56.936383 
L 227.459259 59.817879 
L 226.467428 60.603742 
L 226.202939 62.000832 
L 226.798038 64.009148 
L 230.963729 66.104782 
L 234.997176 69.335551 
L 238.038791 70.558004 
L 238.038791 70.558004 
" clip-path="url(#pf65b429199)" style="fill: none; stroke: #000000; stroke-width: 3"/>
   </g>
  </g>
 </g>
 <defs>
  <clipPath id="pf65b429199">
   <rect x="7.2" y="7.2" width="253.260789" height="554.4"/>
  </clipPath>
 </defs>
</svg>
