<?xml version="1.0" encoding="utf-8" standalone="no"?>
<!DOCTYPE svg PUBLIC "-//W3C//DTD SVG 1.1//EN"
  "http://www.w3.org/Graphics/SVG/1.1/DTD/svg11.dtd">
<svg xmlns:xlink="http://www.w3.org/1999/xlink" width="298.398486pt" height="568.8pt" viewBox="0 0 298.398486 568.8" xmlns="http://www.w3.org/2000/svg" version="1.1">
 <metadata>
  <rdf:RDF xmlns:dc="http://purl.org/dc/elements/1.1/" xmlns:cc="http://creativecommons.org/ns#" xmlns:rdf="http://www.w3.org/1999/02/22-rdf-syntax-ns#">
   <cc:Work>
    <dc:type rdf:resource="http://purl.org/dc/dcmitype/StillImage"/>
    <dc:date>2023-09-25T14:14:32.585068</dc:date>
    <dc:format>image/svg+xml</dc:format>
    <dc:creator>
     <cc:Agent>
      <dc:title>Matplotlib v3.6.2, https://matplotlib.org/</dc:title>
     </cc:Agent>
    </dc:creator>
   </cc:Work>
  </rdf:RDF>
 </metadata>
 <defs>
  <style type="text/css">*{stroke-linejoin: round; stroke-linecap: butt}</style>
 </defs>
 <g id="figure_1">
  <g id="patch_1">
   <path d="M 0 568.8 
L 298.398486 568.8 
L 298.398486 0 
L 0 0 
z
" style="fill: #ffffff"/>
  </g>
  <g id="axes_1">
   <g id="LineCollection_1">
    <path d="M 273.185402 32.4 
L 274.248748 34.084993 
L 275.453874 34.553046 
L 278.289464 37.080535 
L 277.651456 39.04636 
L 276.58811 39.13997 
L 276.51722 40.544131 
L 274.532307 43.446062 
L 274.603197 44.382169 
L 273.185402 46.909658 
L 271.909387 48.220208 
L 269.782695 51.871025 
L 269.357356 54.211293 
L 266.592656 55.428232 
L 263.615287 54.866568 
L 261.488595 53.930461 
L 254.399621 53.556018 
L 251.493141 53.649629 
L 249.15378 55.053789 
L 248.090433 56.645171 
L 247.097977 59.921545 
L 247.735985 62.355423 
L 249.437339 64.976523 
L 252.414708 66.006241 
L 255.179408 66.099851 
L 256.597203 67.878455 
L 257.731438 70.780386 
L 257.873218 72.371768 
L 257.23521 74.618425 
L 257.37699 76.58425 
L 258.298556 77.239525 
L 259.149233 83.979495 
L 256.880762 87.536701 
L 252.981826 90.625854 
L 248.94111 91.842793 
L 245.680182 93.715007 
L 243.411711 96.429718 
L 242.631923 98.957207 
L 240.7179 102.13997 
L 238.945657 103.45052 
L 235.117611 105.509955 
L 233.061808 105.416345 
L 230.864226 107.47578 
L 227.886857 108.879941 
L 226.398172 110.471322 
L 224.838598 113.560475 
L 222.711906 115.900743 
L 221.294111 119.55156 
L 219.805426 124.512927 
L 217.395175 128.350966 
L 214.843144 131.720951 
L 212.929121 132.844279 
L 209.809973 133.967608 
L 207.612391 137.337593 
L 207.116162 140.426746 
L 207.470611 147.63477 
L 205.981927 150.723923 
L 203.004557 152.596137 
L 202.720998 153.625854 
L 200.523416 155.310847 
L 193.505332 157.651114 
L 193.009104 158.4 
L 189.322837 160.646657 
L 187.479704 163.454978 
L 185.77835 167.012184 
L 184.431445 167.480238 
L 183.438988 171.411887 
L 183.15543 175.905201 
L 184.218776 181.334621 
L 185.423901 181.521842 
L 187.337924 188.449034 
L 186.061909 194.346508 
L 182.94276 199.120654 
L 180.674289 201.554532 
L 176.208235 205.673403 
L 173.301755 207.264785 
L 170.891504 211.383655 
L 170.111717 214.191976 
L 169.686378 219.246954 
L 170.253496 222.80416 
L 169.33193 225.238039 
L 167.347017 228.233581 
L 165.220325 229.918574 
L 160.612491 234.78633 
L 158.27313 236.471322 
L 155.50843 239.654086 
L 152.956399 243.679346 
L 150.262589 246.768499 
L 149.553692 248.079049 
L 143.598953 251.542645 
L 141.330482 253.321248 
L 137.856884 257.440119 
L 137.077097 258.93789 
L 136.439089 262.495097 
L 136.3682 265.209807 
L 136.722648 270.358395 
L 137.289766 273.915602 
L 137.360656 278.502526 
L 136.651759 281.217236 
L 135.092184 284.119168 
L 133.178161 285.242496 
L 128.924777 286.178603 
L 125.734738 288.706092 
L 125.16762 290.110253 
L 122.899148 293.012184 
L 118.787543 303.12214 
L 117.08619 309.394056 
L 113.683482 315.478752 
L 110.706113 317.91263 
L 107.303405 320.065676 
L 106.594508 321.657058 
L 103.1918 324.184547 
L 100.639769 327.367311 
L 99.789092 327.835364 
L 98.442187 330.456464 
L 97.024393 331.29896 
L 95.677487 334.294502 
L 95.110369 337.664487 
L 95.890157 342.813076 
L 95.606598 343.936404 
L 96.599054 346.370282 
L 97.307952 346.463893 
L 100.49799 349.553046 
L 101.490446 351.238039 
L 102.766462 351.331649 
L 104.467815 353.297474 
L 100.852439 358.539673 
L 100.4271 362.377712 
L 99.647313 365.841308 
L 98.016849 365.841308 
L 95.677487 369.772957 
L 95.606598 370.989896 
L 93.763464 371.177117 
L 91.920331 373.517385 
L 90.006308 374.921545 
L 90.006308 376.512927 
L 89.155631 378.010698 
L 87.666947 378.385141 
L 86.461821 380.725409 
L 86.67449 382.784844 
L 84.831357 386.622883 
L 84.689577 388.401486 
L 81.712208 394.111738 
L 79.018398 400.945319 
L 76.111919 406.093908 
L 73.06366 409.931947 
L 72.567431 412.272214 
L 71.574975 413.208321 
L 70.511629 416.110253 
L 67.038032 421.16523 
L 62.359309 426.875483 
L 61.225073 431.649629 
L 59.09838 435.581278 
L 55.412114 439.512927 
L 54.632327 441.478752 
L 52.222075 444.006241 
L 51.229619 448.499554 
L 49.670045 450.465379 
L 48.606699 454.303418 
L 46.621786 459.358395 
L 43.998865 461.885884 
L 42.368401 465.068648 
L 40.241709 468.157801 
L 38.823914 472.183061 
L 34.995868 480.04636 
L 30.813373 486.973551 
L 30.317145 488.658544 
L 26.347319 492.309361 
L 24.433296 499.517385 
L 22.023045 503.449034 
L 20.67614 504.29153 
L 21.030589 505.50847 
L 20.109022 507.099851 
L 22.377494 508.878455 
L 25.567532 509.53373 
L 27.197996 510.750669 
L 28.82846 511.125111 
L 32.089389 513.6526 
L 34.924978 516.928975 
L 36.555442 517.58425 
L 43.927976 522.639227 
L 45.133101 523.107281 
L 47.472463 525.166716 
L 51.087839 526.102823 
L 52.860083 525.63477 
L 55.624783 527.506984 
L 57.964145 527.694205 
L 59.736388 530.034473 
L 61.792191 531.06419 
L 59.949057 534.246954 
L 59.878168 535.557504 
L 58.602152 536.4 
L 56.688129 536.212779 
L 53.71076 534.715007 
L 51.371398 529.379198 
L 49.670045 528.068648 
L 51.300509 527.506984 
L 51.087839 526.196434 
L 51.087839 526.196434 
" clip-path="url(#p690a45489f)" style="fill: none; stroke: #000000; stroke-width: 3"/>
   </g>
  </g>
 </g>
 <defs>
  <clipPath id="p690a45489f">
   <rect x="7.2" y="7.2" width="283.998486" height="554.4"/>
  </clipPath>
 </defs>
</svg>
