<?xml version="1.0" encoding="utf-8" standalone="no"?>
<!DOCTYPE svg PUBLIC "-//W3C//DTD SVG 1.1//EN"
  "http://www.w3.org/Graphics/SVG/1.1/DTD/svg11.dtd">
<svg xmlns:xlink="http://www.w3.org/1999/xlink" width="265.605972pt" height="568.8pt" viewBox="0 0 265.605972 568.8" xmlns="http://www.w3.org/2000/svg" version="1.1">
 <metadata>
  <rdf:RDF xmlns:dc="http://purl.org/dc/elements/1.1/" xmlns:cc="http://creativecommons.org/ns#" xmlns:rdf="http://www.w3.org/1999/02/22-rdf-syntax-ns#">
   <cc:Work>
    <dc:type rdf:resource="http://purl.org/dc/dcmitype/StillImage"/>
    <dc:date>2023-09-25T14:14:32.522610</dc:date>
    <dc:format>image/svg+xml</dc:format>
    <dc:creator>
     <cc:Agent>
      <dc:title>Matplotlib v3.6.2, https://matplotlib.org/</dc:title>
     </cc:Agent>
    </dc:creator>
   </cc:Work>
  </rdf:RDF>
 </metadata>
 <defs>
  <style type="text/css">*{stroke-linejoin: round; stroke-linecap: butt}</style>
 </defs>
 <g id="figure_1">
  <g id="patch_1">
   <path d="M 0 568.8 
L 265.605972 568.8 
L 265.605972 0 
L 0 0 
z
" style="fill: #ffffff"/>
  </g>
  <g id="axes_1">
   <g id="LineCollection_1">
    <path d="M 70.971628 429.761948 
L 70.394011 430.66331 
L 64.145236 429.900619 
L 62.674937 429.900619 
L 61.099615 429.276599 
L 60.311955 427.335204 
L 58.789144 426.225836 
L 58.526591 427.265869 
L 59.20923 429.137928 
L 60.101912 430.247297 
L 60.521998 432.188692 
L 58.894166 435.17012 
L 58.894166 438.082212 
L 58.631612 442.242344 
L 59.20923 443.143706 
L 58.631612 444.530417 
L 58.106505 447.858522 
L 57.423866 450.770615 
L 57.843952 451.879983 
L 57.581398 454.237392 
L 57.00378 455.208089 
L 57.528887 456.733471 
L 58.106505 461.517623 
L 57.581398 463.73636 
L 56.583695 465.955097 
L 56.95127 466.648452 
L 56.26863 468.173834 
L 55.848545 470.392571 
L 56.21612 471.293933 
L 55.953566 473.443335 
L 55.008373 475.038052 
L 54.955863 476.147421 
L 54.273223 476.216756 
L 52.015263 481.694263 
L 52.750413 481.694263 
L 53.433052 483.080974 
L 55.113395 483.635658 
L 54.168202 486.755757 
L 54.588288 486.963764 
L 53.853138 488.558481 
L 53.643095 490.915889 
L 52.907945 492.510607 
L 53.012967 493.55064 
L 52.487859 496.254726 
L 51.962752 497.156087 
L 51.647688 500.06818 
L 50.544963 503.604292 
L 51.01756 507.20974 
L 50.33492 507.348411 
L 49.389728 509.22047 
L 49.442238 511.508543 
L 48.129471 512.34057 
L 45.503935 515.807346 
L 44.3487 517.679406 
L 43.456018 520.175485 
L 42.773379 520.591498 
L 44.506232 522.186215 
L 44.191168 523.295584 
L 43.456018 523.018242 
L 42.825889 521.562196 
L 41.250568 523.711597 
L 40.042822 524.612959 
L 39.675247 525.583657 
L 37.312265 528.981098 
L 37.312265 530.783822 
L 36.577115 530.575815 
L 38.992608 536.053322 
L 38.467501 536.4 
L 36.367072 535.845316 
L 36.052008 534.943954 
L 34.161623 534.874618 
L 35.894476 532.933223 
L 37.889883 528.981098 
L 39.097629 527.802394 
L 39.780268 525.306314 
L 40.252865 525.306314 
L 44.191168 518.511432 
L 43.666061 516.98605 
L 41.723164 516.639373 
L 39.9378 514.559307 
L 36.734647 513.657945 
L 35.631922 513.033925 
L 34.634219 511.508543 
L 33.321451 511.161865 
L 31.116002 509.428477 
L 28.80553 509.22047 
L 27.28272 507.903095 
L 26.54757 507.83376 
L 25.129781 506.447049 
L 24.394631 505.199009 
L 23.291906 504.713661 
L 22.556756 503.534957 
L 18.618453 502.633595 
L 20.718882 499.860173 
L 21.769096 497.364094 
L 22.451735 496.670739 
L 23.344417 494.590673 
L 25.129781 491.955922 
L 25.707399 490.430541 
L 27.597784 488.697152 
L 28.280423 486.131738 
L 29.698213 483.566323 
L 30.643405 481.070243 
L 33.006387 477.187454 
L 33.95158 474.344697 
L 36.734647 470.739249 
L 37.627329 468.173834 
L 38.835076 465.955097 
L 38.152436 465.261742 
L 40.515418 461.240281 
L 42.930911 458.882872 
L 44.506232 455.000083 
L 45.713978 452.920017 
L 46.344107 450.562608 
L 48.392024 448.482542 
L 49.757303 446.055799 
L 51.227602 444.669088 
L 51.75271 441.68766 
L 52.855434 439.607594 
L 52.855434 437.319521 
L 54.01067 434.754106 
L 55.165905 433.92208 
L 55.375948 432.882047 
L 56.793737 429.692612 
L 57.686419 429.207264 
L 59.20923 426.78052 
L 62.097319 423.729757 
L 62.622426 421.927033 
L 63.777661 419.777631 
L 65.14294 418.321585 
L 65.352983 417.00421 
L 66.245665 415.201486 
L 67.505922 413.537433 
L 68.608647 410.347998 
L 69.553839 409.585307 
L 69.973925 407.505241 
L 71.8118 405.286504 
L 72.231885 403.414445 
L 72.967035 402.09707 
L 73.544653 400.017004 
L 75.014953 399.462319 
L 75.855124 396.896905 
L 76.537763 396.550227 
L 77.74551 394.539496 
L 78.53317 392.528766 
L 79.793427 391.974082 
L 81.106195 387.952621 
L 81.788834 387.744614 
L 82.366452 386.149897 
L 86.042201 380.256376 
L 88.720247 373.808172 
L 88.982801 372.560132 
L 90.40059 370.064053 
L 91.030719 369.578704 
L 93.236168 366.597276 
L 94.12885 363.685184 
L 97.174471 359.871729 
L 98.487239 357.37565 
L 99.537453 356.820966 
L 98.749792 356.404953 
L 98.53975 353.49286 
L 100.06256 352.106149 
L 101.847924 348.778044 
L 101.742903 347.946017 
L 102.425542 346.281965 
L 102.583074 344.687247 
L 103.370735 342.884523 
L 105.26112 342.815188 
L 106.153802 341.22047 
L 107.729123 339.417747 
L 109.251934 338.516385 
L 110.984787 338.516385 
L 113.610323 330.542798 
L 115.238155 327.214693 
L 115.973304 326.521337 
L 117.758668 322.985225 
L 118.073733 321.459843 
L 120.226672 317.923731 
L 121.119354 314.942303 
L 121.696972 314.179612 
L 123.429825 313.832934 
L 124.059953 312.376888 
L 123.587357 312.03021 
L 123.009739 309.811473 
L 120.541736 307.592736 
L 119.701565 306.344697 
L 119.228968 303.709946 
L 119.3865 302.87792 
L 121.276886 300.451176 
L 123.272293 298.925794 
L 123.587357 297.469748 
L 124.637571 295.944366 
L 125.32021 293.933636 
L 126.737999 290.952208 
L 128.890938 287.693438 
L 129.993663 285.33603 
L 131.884049 283.325299 
L 136.032395 282.354602 
L 137.765248 282.701279 
L 139.39308 283.602641 
L 140.443294 284.71201 
L 143.85649 285.33603 
L 145.221768 285.058688 
L 146.06194 283.949319 
L 147.374707 283.533306 
L 148.792496 282.146595 
L 150.840414 279.165167 
L 150.997946 277.085101 
L 151.733096 275.351713 
L 153.150885 274.242344 
L 156.826635 272.508956 
L 157.92936 272.578291 
L 160.239831 269.874206 
L 162.340259 264.396698 
L 162.655323 261.623277 
L 161.867663 259.543211 
L 160.869959 255.105737 
L 160.607406 252.817664 
L 163.495494 248.796203 
L 167.276265 245.676104 
L 169.11414 245.12142 
L 170.059333 243.526702 
L 170.846993 241.030623 
L 170.636951 238.049195 
L 171.267079 236.385142 
L 171.792186 232.155675 
L 172.317293 231.115642 
L 172.737379 228.758234 
L 174.417722 226.400825 
L 176.098064 220.992654 
L 178.303514 219.744614 
L 180.351431 218.011226 
L 181.454156 216.624515 
L 183.449563 212.395047 
L 185.077395 211.008337 
L 185.655013 208.373586 
L 186.547695 205.877507 
L 188.175527 203.866777 
L 190.485998 202.618737 
L 193.216555 201.717375 
L 196.57724 200.954684 
L 199.465329 201.856046 
L 202.458439 201.578704 
L 203.141078 201.786711 
L 205.609082 200.677342 
L 207.551978 197.002559 
L 209.599895 194.645151 
L 210.440067 191.317045 
L 212.645516 186.810235 
L 213.433177 186.255551 
L 213.380666 185.354189 
L 215.16603 182.372761 
L 216.373777 180.916715 
L 218.316673 177.588609 
L 218.84178 175.993892 
L 220.417101 173.428477 
L 220.102037 172.319109 
L 221.204762 170.239043 
L 222.097444 170.100371 
L 225.51064 163.998844 
L 224.250383 158.729344 
L 225.090554 155.262567 
L 225.090554 152.350475 
L 224.145361 150.40908 
L 222.780083 148.467685 
L 221.939912 146.179612 
L 222.780083 142.851506 
L 225.668172 138.414032 
L 225.878215 137.582006 
L 227.7686 135.155262 
L 229.97405 133.421874 
L 232.599585 130.717788 
L 232.757117 130.093768 
L 234.805035 127.805695 
L 235.120099 125.378952 
L 234.647503 121.704168 
L 235.855249 115.879983 
L 235.802738 113.869253 
L 236.432867 112.066529 
L 238.113209 109.57045 
L 239.058402 109.154437 
L 240.528702 107.69839 
L 242.209045 106.9357 
L 243.416791 105.895667 
L 243.784366 104.162278 
L 243.101727 102.498225 
L 240.738745 100.764837 
L 237.168017 101.388857 
L 235.435163 102.498225 
L 234.227417 104.370285 
L 232.809628 105.479653 
L 231.916946 103.330252 
L 231.49686 100.972844 
L 232.074478 98.754106 
L 232.914649 97.783409 
L 235.592695 95.772678 
L 236.485377 94.732645 
L 238.113209 90.503178 
L 238.743338 89.324474 
L 239.110913 87.105737 
L 238.90087 86.135039 
L 236.852952 83.222947 
L 235.225121 81.281552 
L 233.754821 80.588196 
L 230.76171 78.646801 
L 227.663579 78.022782 
L 225.300597 78.161453 
L 222.412508 77.537433 
L 220.049526 77.537433 
L 219.104333 76.566735 
L 218.054119 77.398762 
L 216.688841 80.796203 
L 217.686544 84.540322 
L 221.04723 85.927033 
L 222.359997 87.244408 
L 223.830297 88.076434 
L 224.355404 89.53248 
L 224.460426 95.009988 
L 224.880511 97.714073 
L 223.672765 100.55683 
L 221.572337 102.983574 
L 220.942208 102.844903 
L 219.997015 103.884936 
L 217.739055 105.132976 
L 213.64322 106.589022 
L 213.433177 108.738423 
L 212.277941 111.858522 
L 209.127299 114.631944 
L 205.766614 115.117293 
L 205.031464 115.741312 
L 202.826014 115.879983 
L 202.300907 117.058688 
L 200.042947 116.920017 
L 198.520136 115.533306 
L 195.579537 114.631944 
L 194.214258 113.245233 
L 194.056726 112.274536 
L 196.629751 109.431779 
L 198.257583 106.727693 
L 199.780393 102.636896 
L 201.618268 100.695501 
L 203.088568 98.407429 
L 203.141078 97.714073 
L 205.241507 95.009988 
L 204.926442 94.177961 
L 205.45155 91.959224 
L 207.394446 89.53248 
L 208.287128 87.452414 
L 210.545088 85.372348 
L 212.593006 81.420223 
L 213.538198 78.924144 
L 214.325859 78.300124 
L 216.163734 74.139992 
L 218.421694 71.227899 
L 219.734462 70.742551 
L 220.259569 67.275774 
L 221.467315 64.918366 
L 221.677358 65.611721 
L 223.200169 62.907635 
L 223.515233 61.798267 
L 225.090554 59.371523 
L 225.56315 59.163516 
L 227.558557 53.131325 
L 228.346218 52.021956 
L 229.869028 50.912588 
L 231.076775 49.040528 
L 232.23201 45.019067 
L 234.069885 42.245646 
L 235.435163 41.205613 
L 236.485377 39.54156 
L 238.060699 35.450764 
L 237.745634 32.885349 
L 238.953381 32.4 
L 237.955677 33.578704 
L 239.425977 34.896079 
L 239.898573 37.045481 
L 243.101727 37.184152 
L 245.674751 38.848205 
L 245.779773 41.066942 
L 246.672455 43.285679 
L 246.409901 45.296409 
L 246.672455 46.128436 
L 246.35739 48.55518 
L 246.987519 50.011226 
L 245.517219 53.131325 
L 245.464708 54.102022 
L 243.416791 56.736773 
L 240.843766 62.006273 
L 240.003595 63.046306 
L 238.690827 63.184977 
L 236.065292 61.104911 
L 236.065292 61.104911 
" clip-path="url(#p1a6c3c3505)" style="fill: none; stroke: #000000; stroke-width: 3"/>
   </g>
  </g>
 </g>
 <defs>
  <clipPath id="p1a6c3c3505">
   <rect x="7.2" y="7.2" width="251.205972" height="554.4"/>
  </clipPath>
 </defs>
</svg>
