<?xml version="1.0" encoding="utf-8" standalone="no"?>
<!DOCTYPE svg PUBLIC "-//W3C//DTD SVG 1.1//EN"
  "http://www.w3.org/Graphics/SVG/1.1/DTD/svg11.dtd">
<svg xmlns:xlink="http://www.w3.org/1999/xlink" width="299.954926pt" height="568.8pt" viewBox="0 0 299.954926 568.8" xmlns="http://www.w3.org/2000/svg" version="1.1">
 <metadata>
  <rdf:RDF xmlns:dc="http://purl.org/dc/elements/1.1/" xmlns:cc="http://creativecommons.org/ns#" xmlns:rdf="http://www.w3.org/1999/02/22-rdf-syntax-ns#">
   <cc:Work>
    <dc:type rdf:resource="http://purl.org/dc/dcmitype/StillImage"/>
    <dc:date>2023-09-25T14:14:31.963863</dc:date>
    <dc:format>image/svg+xml</dc:format>
    <dc:creator>
     <cc:Agent>
      <dc:title>Matplotlib v3.6.2, https://matplotlib.org/</dc:title>
     </cc:Agent>
    </dc:creator>
   </cc:Work>
  </rdf:RDF>
 </metadata>
 <defs>
  <style type="text/css">*{stroke-linejoin: round; stroke-linecap: butt}</style>
 </defs>
 <g id="figure_1">
  <g id="patch_1">
   <path d="M 0 568.8 
L 299.954926 568.8 
L 299.954926 0 
L 0 0 
z
" style="fill: #ffffff"/>
  </g>
  <g id="axes_1">
   <g id="LineCollection_1">
    <path d="M 273.965435 32.4 
L 274.603087 34.271171 
L 276.941146 34.084054 
L 278.924953 35.487433 
L 279.775157 37.545721 
L 278.570702 41.288064 
L 275.949242 42.597884 
L 274.390536 44.936848 
L 274.815638 45.872434 
L 273.256932 48.304956 
L 272.619279 50.550362 
L 270.564622 52.421533 
L 271.839926 53.170002 
L 271.131424 54.479822 
L 269.218467 55.602525 
L 260.574734 54.105588 
L 255.260963 52.234416 
L 253.843958 52.327975 
L 250.443145 54.57338 
L 249.09699 57.286579 
L 249.592942 58.128606 
L 248.955289 60.654687 
L 251.293348 64.39703 
L 252.993755 65.519733 
L 254.127359 65.426174 
L 255.544365 66.923111 
L 258.945177 68.045814 
L 259.58283 69.168517 
L 260.220482 74.501355 
L 261.212386 78.056581 
L 261.495787 82.547392 
L 261.070686 84.325005 
L 258.590926 87.88023 
L 255.827766 90.406311 
L 254.977562 90.49987 
L 247.609134 94.522888 
L 245.625327 98.265231 
L 244.775124 98.826583 
L 242.720466 103.691628 
L 237.194145 105.656358 
L 233.935032 106.311268 
L 229.046364 109.118025 
L 226.920856 112.67325 
L 226.779155 113.795953 
L 224.228545 117.25762 
L 222.88239 121.84199 
L 221.040283 126.052125 
L 218.773075 129.607351 
L 215.513962 132.975459 
L 211.971449 135.033748 
L 210.483593 136.624244 
L 209.349989 139.524559 
L 208.854037 142.986226 
L 209.349989 146.915686 
L 208.216385 150.096677 
L 205.594925 152.996993 
L 202.264962 154.868164 
L 200.918807 154.961723 
L 197.588844 156.926453 
L 196.242689 158.142714 
L 194.188031 158.891182 
L 193.408678 160.294561 
L 189.653614 163.849787 
L 187.811507 168.714832 
L 185.544298 171.802265 
L 185.544298 173.299202 
L 184.623245 177.228662 
L 186.961304 183.403527 
L 189.086812 190.139744 
L 187.882357 194.162762 
L 184.339844 198.560015 
L 183.631341 200.618303 
L 182.214336 202.77015 
L 178.459271 205.202673 
L 177.396517 206.512493 
L 175.341859 207.35452 
L 172.79125 210.535511 
L 171.799346 215.026323 
L 172.011897 219.610692 
L 170.949143 225.504882 
L 168.965335 229.060108 
L 167.61918 229.995693 
L 165.139421 232.708892 
L 162.730512 234.580063 
L 162.022009 235.983442 
L 156.99164 241.409839 
L 153.661677 245.90065 
L 149.481511 249.923668 
L 145.938998 252.075515 
L 141.829682 255.256506 
L 141.050329 256.379209 
L 137.720366 259.279525 
L 137.720366 261.992723 
L 138.358019 263.208985 
L 139.066522 269.945201 
L 139.491623 278.178355 
L 137.862067 281.733581 
L 136.941013 284.633896 
L 134.602955 285.756599 
L 132.052345 286.130833 
L 129.430885 287.159978 
L 125.53412 293.615519 
L 124.329665 295.018897 
L 123.904564 297.264303 
L 122.487558 298.76124 
L 120.432901 305.684574 
L 118.945045 309.801151 
L 117.59889 312.420791 
L 114.339777 316.350251 
L 109.521959 320.373269 
L 107.538152 322.618675 
L 104.774991 324.957639 
L 100.028023 331.693856 
L 99.036119 331.974531 
L 98.469317 335.061964 
L 97.264863 337.96228 
L 98.115066 341.330388 
L 99.602921 344.511379 
L 101.657579 347.598812 
L 106.758799 351.996065 
L 104.56244 357.703137 
L 103.783087 357.703137 
L 102.436932 360.603453 
L 101.586729 364.252237 
L 99.17782 366.123408 
L 97.335713 368.462372 
L 96.839761 370.427102 
L 93.297247 373.514535 
L 92.163643 375.198589 
L 91.45514 378.473139 
L 87.841777 384.92868 
L 86.637322 388.390347 
L 84.157563 391.384221 
L 82.315456 395.033005 
L 81.961204 396.71706 
L 79.410595 400.833637 
L 77.568488 402.704808 
L 76.222333 405.885799 
L 70.979413 416.2708 
L 69.349856 419.171116 
L 66.870097 422.071431 
L 66.870097 424.316837 
L 64.177787 427.965621 
L 63.540134 430.398144 
L 60.847824 432.456432 
L 60.210172 436.479451 
L 56.951059 443.02855 
L 55.675754 444.899722 
L 54.967252 449.203416 
L 53.833647 450.139001 
L 48.378177 456.688101 
L 47.173722 458.839948 
L 43.347807 462.301615 
L 43.206107 465.014813 
L 41.080599 467.728012 
L 40.726348 468.850715 
L 42.001652 472.031706 
L 40.797198 474.183553 
L 37.679786 477.832337 
L 35.412577 481.106887 
L 33.853871 484.84923 
L 31.799214 486.907518 
L 31.161561 489.152924 
L 28.32755 492.240356 
L 27.760748 494.485762 
L 25.56439 499.537925 
L 21.242523 503.280267 
L 20.179769 505.05788 
L 20.888272 506.648376 
L 23.08463 507.864637 
L 24.289085 507.583961 
L 26.910545 508.98734 
L 29.036053 509.174457 
L 31.232411 510.390718 
L 31.940914 511.419863 
L 34.491524 512.823241 
L 36.333631 513.291034 
L 39.734444 515.723557 
L 42.143353 518.436755 
L 42.993556 521.243512 
L 43.98546 522.740449 
L 49.015829 525.547206 
L 51.212187 525.453648 
L 52.912594 526.669909 
L 55.321503 527.511936 
L 58.084664 529.570225 
L 58.793166 530.599369 
L 63.185883 531.067162 
L 64.177787 532.189864 
L 62.902482 532.564099 
L 62.689931 533.967477 
L 61.485476 535.370856 
L 59.572519 536.4 
L 54.613 534.43527 
L 52.274941 529.757342 
L 50.291134 530.50581 
L 48.874128 529.663783 
L 48.803278 530.786486 
L 48.803278 530.786486 
" clip-path="url(#p2b93c123ca)" style="fill: none; stroke: #000000; stroke-width: 3"/>
   </g>
  </g>
 </g>
 <defs>
  <clipPath id="p2b93c123ca">
   <rect x="7.2" y="7.2" width="285.554926" height="554.4"/>
  </clipPath>
 </defs>
</svg>
