<?xml version="1.0" encoding="utf-8" standalone="no"?>
<!DOCTYPE svg PUBLIC "-//W3C//DTD SVG 1.1//EN"
  "http://www.w3.org/Graphics/SVG/1.1/DTD/svg11.dtd">
<svg xmlns:xlink="http://www.w3.org/1999/xlink" width="302.869633pt" height="568.8pt" viewBox="0 0 302.869633 568.8" xmlns="http://www.w3.org/2000/svg" version="1.1">
 <metadata>
  <rdf:RDF xmlns:dc="http://purl.org/dc/elements/1.1/" xmlns:cc="http://creativecommons.org/ns#" xmlns:rdf="http://www.w3.org/1999/02/22-rdf-syntax-ns#">
   <cc:Work>
    <dc:type rdf:resource="http://purl.org/dc/dcmitype/StillImage"/>
    <dc:date>2023-09-25T14:14:31.773694</dc:date>
    <dc:format>image/svg+xml</dc:format>
    <dc:creator>
     <cc:Agent>
      <dc:title>Matplotlib v3.6.2, https://matplotlib.org/</dc:title>
     </cc:Agent>
    </dc:creator>
   </cc:Work>
  </rdf:RDF>
 </metadata>
 <defs>
  <style type="text/css">*{stroke-linejoin: round; stroke-linecap: butt}</style>
 </defs>
 <g id="figure_1">
  <g id="patch_1">
   <path d="M 0 568.8 
L 302.869633 568.8 
L 302.869633 0 
L 0 0 
z
" style="fill: #ffffff"/>
  </g>
  <g id="axes_1">
   <g id="LineCollection_1">
    <path d="M 275.595752 32.4 
L 277.96414 32.77909 
L 279.255988 34.200677 
L 280.332528 33.53727 
L 282.557377 34.769312 
L 282.485608 36.096126 
L 280.619605 39.31839 
L 277.174678 44.246559 
L 273.72975 48.227003 
L 272.509671 52.776081 
L 270.715438 54.861076 
L 264.615045 53.344716 
L 263.538505 52.586536 
L 260.95481 52.776081 
L 260.452424 52.112674 
L 256.289803 51.638812 
L 254.49557 50.975404 
L 251.911874 54.481986 
L 251.050643 56.472208 
L 250.835335 58.841519 
L 251.33772 60.073561 
L 255.356802 63.86446 
L 256.720419 63.86446 
L 259.662962 65.286047 
L 261.816042 68.413539 
L 261.672503 72.393983 
L 262.246658 76.184882 
L 263.251428 77.890786 
L 263.897352 81.586912 
L 259.591192 88.78962 
L 256.64865 89.5478 
L 254.280262 90.874615 
L 251.553028 91.348477 
L 247.605715 93.528244 
L 246.170328 95.139376 
L 245.739712 98.645957 
L 244.304326 101.773449 
L 243.012478 102.057766 
L 237.558009 105.564347 
L 232.605926 107.365024 
L 230.093999 109.165701 
L 226.218455 115.325912 
L 225.71607 118.358631 
L 223.921837 119.211583 
L 222.917066 124.897932 
L 221.266372 128.68883 
L 220.118063 130.489507 
L 214.663594 133.427454 
L 212.008129 135.796766 
L 210.859819 137.88176 
L 210.500973 141.862204 
L 210.644511 145.368785 
L 209.567972 150.391726 
L 204.328811 154.561715 
L 200.596806 156.551937 
L 196.793031 157.783979 
L 194.78349 159.205566 
L 191.051485 163.18601 
L 190.405561 165.081459 
L 188.683097 167.166454 
L 186.960633 170.48349 
L 186.458248 174.369161 
L 186.745326 178.53915 
L 188.539559 183.846408 
L 188.898405 187.447762 
L 189.759637 190.101392 
L 190.620869 190.954344 
L 189.759637 193.702745 
L 186.530018 198.062279 
L 182.798013 203.8434 
L 179.281315 206.307484 
L 177.343544 206.402256 
L 174.688079 209.814065 
L 173.396231 213.699737 
L 173.180923 216.258593 
L 173.755077 223.082211 
L 173.252692 225.167206 
L 170.812535 228.958105 
L 164.209757 234.644453 
L 162.128446 236.160812 
L 159.472981 238.909214 
L 156.099823 243.74261 
L 153.946743 245.543287 
L 152.008971 247.817826 
L 147.774581 251.79827 
L 146.76981 252.082587 
L 142.463651 255.210079 
L 140.812956 257.958481 
L 139.3058 261.654607 
L 138.516338 265.161188 
L 139.808186 272.079579 
L 139.951724 276.533885 
L 139.521108 277.386837 
L 139.592878 280.514329 
L 139.018723 282.409778 
L 133.564254 287.527492 
L 131.626482 288.285671 
L 127.105015 291.128845 
L 125.239012 295.393607 
L 123.947164 297.573373 
L 121.435238 305.344716 
L 120.502237 306.387213 
L 118.277387 312.168334 
L 114.042997 317.570365 
L 111.746379 319.560587 
L 110.454531 319.844904 
L 108.44499 322.782851 
L 107.36845 323.351486 
L 105.000062 326.952839 
L 102.846982 328.848289 
L 100.765672 332.449643 
L 100.335056 332.449643 
L 98.181976 336.050997 
L 96.961897 339.368033 
L 96.961897 340.600075 
L 98.971439 345.907334 
L 100.98098 348.84528 
L 104.425907 351.025047 
L 107.583758 355.289808 
L 106.076602 355.479353 
L 103.421137 361.165701 
L 100.119748 365.240918 
L 99.402054 365.620008 
L 98.756131 368.368409 
L 97.105436 372.538398 
L 95.741819 373.77044 
L 91.794506 379.646333 
L 91.292121 382.394735 
L 89.139041 384.100639 
L 87.703654 388.365401 
L 87.918962 389.313125 
L 85.550574 394.999473 
L 84.474034 396.989695 
L 81.962108 399.264235 
L 81.890339 400.306732 
L 79.019566 405.708763 
L 77.44064 406.846032 
L 74.28279 411.300338 
L 73.565097 415.091237 
L 70.766093 418.976909 
L 68.756552 422.957352 
L 65.311624 427.695976 
L 63.948007 428.359383 
L 59.785386 434.330049 
L 59.211231 437.173223 
L 57.129921 441.153667 
L 54.689764 443.428206 
L 54.04384 445.5132 
L 52.249607 447.503422 
L 51.460144 449.777962 
L 50.81422 449.872734 
L 48.517602 453.56886 
L 48.589371 455.748627 
L 47.65637 455.748627 
L 44.642058 460.961113 
L 43.709057 463.425197 
L 44.570289 467.026551 
L 41.771285 469.301091 
L 42.058362 470.722678 
L 41.053592 470.912223 
L 39.546436 472.807672 
L 38.254588 476.882888 
L 34.379044 483.801279 
L 34.379044 485.507183 
L 31.723579 489.487627 
L 31.005886 492.236029 
L 29.068114 494.889658 
L 27.417419 498.396239 
L 26.484418 499.438736 
L 25.838494 502.28191 
L 25.19257 502.092366 
L 23.828953 505.504175 
L 22.608875 505.693719 
L 20.312256 510.242798 
L 22.537105 513.559835 
L 26.197341 513.654607 
L 26.699726 513.275517 
L 32.441272 515.076194 
L 36.245047 518.393231 
L 37.967511 520.383452 
L 39.761744 523.700489 
L 38.182818 526.733208 
L 38.613434 529.671155 
L 42.345439 531.471832 
L 43.493749 533.651598 
L 44.642058 533.935916 
L 47.010446 536.4 
L 48.804679 534.315006 
L 48.804679 534.315006 
" clip-path="url(#p61696c2fd4)" style="fill: none; stroke: #000000; stroke-width: 3"/>
   </g>
  </g>
 </g>
 <defs>
  <clipPath id="p61696c2fd4">
   <rect x="7.2" y="7.2" width="288.469633" height="554.4"/>
  </clipPath>
 </defs>
</svg>
