<?xml version="1.0" encoding="utf-8" standalone="no"?>
<!DOCTYPE svg PUBLIC "-//W3C//DTD SVG 1.1//EN"
  "http://www.w3.org/Graphics/SVG/1.1/DTD/svg11.dtd">
<svg xmlns:xlink="http://www.w3.org/1999/xlink" width="298.240307pt" height="568.8pt" viewBox="0 0 298.240307 568.8" xmlns="http://www.w3.org/2000/svg" version="1.1">
 <metadata>
  <rdf:RDF xmlns:dc="http://purl.org/dc/elements/1.1/" xmlns:cc="http://creativecommons.org/ns#" xmlns:rdf="http://www.w3.org/1999/02/22-rdf-syntax-ns#">
   <cc:Work>
    <dc:type rdf:resource="http://purl.org/dc/dcmitype/StillImage"/>
    <dc:date>2023-09-25T14:14:31.096519</dc:date>
    <dc:format>image/svg+xml</dc:format>
    <dc:creator>
     <cc:Agent>
      <dc:title>Matplotlib v3.6.2, https://matplotlib.org/</dc:title>
     </cc:Agent>
    </dc:creator>
   </cc:Work>
  </rdf:RDF>
 </metadata>
 <defs>
  <style type="text/css">*{stroke-linejoin: round; stroke-linecap: butt}</style>
 </defs>
 <g id="figure_1">
  <g id="patch_1">
   <path d="M -0 568.8 
L 298.240307 568.8 
L 298.240307 0 
L -0 0 
z
" style="fill: #ffffff"/>
  </g>
  <g id="axes_1">
   <g id="LineCollection_1">
    <path d="M 272.824705 32.4 
L 275.517015 34.271171 
L 277.713373 35.113198 
L 278.138475 36.890811 
L 277.146571 38.29419 
L 276.86317 40.352478 
L 274.595962 42.597884 
L 274.950213 44.001262 
L 273.391507 45.591758 
L 272.328753 47.930722 
L 270.061545 50.363245 
L 269.282192 53.637795 
L 268.57369 54.386263 
L 263.472471 54.57338 
L 258.583803 53.91847 
L 255.749793 53.076443 
L 251.215376 53.170002 
L 249.302419 54.105588 
L 247.318612 56.818786 
L 247.035211 59.81266 
L 247.743714 62.058066 
L 249.940072 64.303471 
L 253.836836 64.584147 
L 255.820643 65.70685 
L 257.025098 68.32649 
L 257.237648 71.788157 
L 257.66275 72.443067 
L 258.654653 77.963022 
L 259.646557 79.927752 
L 259.859108 81.98604 
L 258.300402 84.886356 
L 256.883397 85.821942 
L 255.112141 88.815816 
L 253.482585 90.780546 
L 251.853029 91.622573 
L 247.956264 92.371041 
L 245.547356 93.306627 
L 244.484602 94.616447 
L 242.996746 97.70388 
L 241.508891 101.726898 
L 239.808485 103.598069 
L 236.124271 105.282124 
L 232.227507 106.124151 
L 226.488636 110.614962 
L 223.087824 115.573566 
L 222.02507 119.409467 
L 220.891466 121.748431 
L 220.324663 124.368071 
L 218.411706 127.455504 
L 215.790247 130.35582 
L 215.506846 131.291405 
L 211.326681 133.911045 
L 209.484574 135.969334 
L 208.49267 135.969334 
L 206.792264 138.776091 
L 206.508863 140.647262 
L 207.217366 143.921812 
L 206.792264 148.59974 
L 205.72951 151.312939 
L 204.454206 152.903434 
L 202.541249 154.119696 
L 199.352987 155.242398 
L 197.227479 156.832894 
L 193.259865 158.797624 
L 190.780106 161.04303 
L 187.379293 165.159606 
L 185.608037 166.843661 
L 183.90763 167.685688 
L 183.90763 172.176499 
L 183.553379 173.299202 
L 183.76593 178.819157 
L 184.757834 181.719473 
L 186.103988 183.777761 
L 187.237593 189.017041 
L 186.38739 190.42042 
L 185.820587 193.133618 
L 183.269978 199.121366 
L 180.577668 202.676592 
L 177.956209 204.921997 
L 175.193049 206.418934 
L 172.71329 208.477223 
L 171.012883 210.722629 
L 169.879279 215.587674 
L 170.516932 222.323891 
L 166.478467 230.276369 
L 164.56551 231.866865 
L 163.361055 231.866865 
L 159.464291 235.141415 
L 156.559431 238.322406 
L 155.071575 239.257991 
L 151.741613 244.123037 
L 146.640394 248.988082 
L 145.36509 250.859254 
L 140.759823 254.040245 
L 137.571561 259.279525 
L 136.579658 262.273399 
L 137.14646 267.044886 
L 137.004759 268.916057 
L 137.925812 274.903805 
L 137.713262 278.271914 
L 136.863059 280.891554 
L 133.958198 284.166104 
L 131.265888 285.663041 
L 127.014873 286.972861 
L 125.597867 288.93759 
L 120.213248 298.667681 
L 120.071547 302.222907 
L 119.008793 305.497457 
L 117.520938 308.304214 
L 116.458184 311.391647 
L 113.836725 315.601782 
L 112.986521 315.695341 
L 110.861014 317.566512 
L 107.10595 320.186152 
L 103.917688 323.741377 
L 102.075582 325.238314 
L 100.091774 327.951513 
L 99.737523 329.44845 
L 97.257764 331.974531 
L 95.911609 336.278225 
L 95.699058 339.739892 
L 97.116063 344.043586 
L 100.020924 348.066605 
L 101.437929 348.253722 
L 103.705138 350.405569 
L 104.34279 352.089623 
L 103.705138 354.428587 
L 101.508779 357.890254 
L 99.241571 363.129534 
L 98.178817 364.439354 
L 95.628208 369.117282 
L 95.699058 369.959309 
L 93.290149 372.672508 
L 91.943995 375.572823 
L 91.802294 376.882643 
L 87.83468 380.250752 
L 86.913626 383.431743 
L 85.638322 385.302914 
L 84.292167 389.045257 
L 81.670707 394.471654 
L 79.190948 397.465528 
L 76.215237 403.453276 
L 72.743574 408.879673 
L 71.964222 410.563727 
L 66.0128 420.20026 
L 63.958142 424.503954 
L 61.407533 430.678819 
L 58.927774 435.356748 
L 56.873116 439.847559 
L 52.26785 444.431929 
L 48.229385 453.226434 
L 46.458128 457.623687 
L 45.537075 457.530128 
L 43.553268 460.149768 
L 41.215209 462.114498 
L 40.294156 466.698868 
L 38.239498 471.09612 
L 37.956097 473.902877 
L 36.539092 475.586932 
L 33.846782 480.26486 
L 32.571478 483.53941 
L 30.44597 486.907518 
L 29.737467 489.246482 
L 28.887264 489.714275 
L 24.777949 497.19896 
L 23.998596 501.409096 
L 20.385233 504.964322 
L 20.101832 506.929051 
L 21.589688 508.613106 
L 24.211147 508.800223 
L 27.541109 509.735808 
L 29.666617 511.326304 
L 32.075526 511.981214 
L 35.759739 513.945944 
L 38.877151 516.659142 
L 39.089701 518.249638 
L 40.931808 519.933692 
L 45.749626 521.337071 
L 48.796187 522.927566 
L 51.275946 524.892296 
L 55.952063 526.202116 
L 56.802266 527.792612 
L 60.62818 530.318693 
L 62.045185 532.47054 
L 60.911581 534.809504 
L 59.565426 536.4 
L 57.439919 535.932207 
L 55.456111 534.809504 
L 53.684855 533.12545 
L 52.622101 529.8509 
L 49.788091 530.131576 
L 49.788091 530.131576 
" clip-path="url(#pb402bb86f3)" style="fill: none; stroke: #000000; stroke-width: 3"/>
   </g>
  </g>
 </g>
 <defs>
  <clipPath id="pb402bb86f3">
   <rect x="7.2" y="7.2" width="283.840307" height="554.4"/>
  </clipPath>
 </defs>
</svg>
