<?xml version="1.0" encoding="utf-8" standalone="no"?>
<!DOCTYPE svg PUBLIC "-//W3C//DTD SVG 1.1//EN"
  "http://www.w3.org/Graphics/SVG/1.1/DTD/svg11.dtd">
<svg xmlns:xlink="http://www.w3.org/1999/xlink" width="284.963323pt" height="568.8pt" viewBox="0 0 284.963323 568.8" xmlns="http://www.w3.org/2000/svg" version="1.1">
 <metadata>
  <rdf:RDF xmlns:dc="http://purl.org/dc/elements/1.1/" xmlns:cc="http://creativecommons.org/ns#" xmlns:rdf="http://www.w3.org/1999/02/22-rdf-syntax-ns#">
   <cc:Work>
    <dc:type rdf:resource="http://purl.org/dc/dcmitype/StillImage"/>
    <dc:date>2023-09-25T14:14:30.913130</dc:date>
    <dc:format>image/svg+xml</dc:format>
    <dc:creator>
     <cc:Agent>
      <dc:title>Matplotlib v3.6.2, https://matplotlib.org/</dc:title>
     </cc:Agent>
    </dc:creator>
   </cc:Work>
  </rdf:RDF>
 </metadata>
 <defs>
  <style type="text/css">*{stroke-linejoin: round; stroke-linecap: butt}</style>
 </defs>
 <g id="figure_1">
  <g id="patch_1">
   <path d="M 0 568.8 
L 284.963323 568.8 
L 284.963323 0 
L 0 0 
z
" style="fill: #ffffff"/>
  </g>
  <g id="axes_1">
   <g id="LineCollection_1">
    <path d="M 27.333934 536.4 
L 26.407909 534.424636 
L 27.120236 533.766181 
L 24.840788 533.295857 
L 22.917504 533.954311 
L 21.920246 533.201792 
L 19.854497 533.107727 
L 19.498333 531.790817 
L 20.922988 530.379843 
L 22.347643 526.52318 
L 23.914763 524.735946 
L 25.268185 522.008063 
L 25.41065 519.750504 
L 26.122978 518.903919 
L 26.550374 515.423516 
L 27.405167 515.047256 
L 29.613382 510.532139 
L 29.898313 508.08645 
L 31.750364 506.957671 
L 32.106528 505.640761 
L 35.169536 502.254423 
L 35.596932 499.432475 
L 34.457209 499.15028 
L 35.810631 498.021501 
L 35.668165 494.917357 
L 36.30926 492.095409 
L 40.796923 491.531019 
L 41.936646 489.46159 
L 42.150345 487.768421 
L 44.714723 483.629563 
L 44.999654 482.500784 
L 47.065404 480.807615 
L 49.487317 475.728108 
L 50.128412 472.059574 
L 51.766765 470.178275 
L 52.194161 465.380963 
L 52.764023 464.440314 
L 55.470867 464.346249 
L 57.964013 458.796417 
L 58.818806 459.454871 
L 61.027021 458.232027 
L 61.169487 455.410078 
L 63.021538 453.434714 
L 63.021538 448.543337 
L 66.227011 443.934155 
L 66.369477 442.052856 
L 68.00783 438.384323 
L 67.081804 436.879283 
L 68.648925 434.997984 
L 70.287278 434.621725 
L 71.284536 430.953191 
L 72.637958 429.260022 
L 73.920148 426.061814 
L 76.84069 422.393281 
L 76.199595 419.006943 
L 79.120138 418.724748 
L 78.692741 417.125644 
L 75.558501 413.833371 
L 78.621508 410.917357 
L 79.832465 410.729227 
L 84.177662 415.056215 
L 85.531084 415.9028 
L 88.594092 408.847928 
L 88.665325 407.154759 
L 87.810532 404.615006 
L 88.451627 404.426876 
L 89.377652 397.842329 
L 91.229704 398.594849 
L 92.155729 398.030459 
L 93.509151 394.832251 
L 95.28997 386.742665 
L 96.643392 384.767301 
L 98.210512 384.296976 
L 99.991331 382.697872 
L 100.48996 379.405599 
L 101.202288 378.559015 
L 101.914615 375.737066 
L 101.415986 374.514222 
L 98.780374 371.504143 
L 96.643392 371.880403 
L 95.361203 368.77626 
L 96.215996 368.4 
L 97.498185 364.731467 
L 101.059822 361.251064 
L 101.344753 360.122284 
L 103.481735 357.488466 
L 105.547485 353.913998 
L 107.969398 347.705711 
L 112.457061 341.873684 
L 115.092672 339.333931 
L 121.00499 338.675476 
L 123.711834 339.427996 
L 127.131006 341.779619 
L 131.120039 342.532139 
L 136.035098 339.52206 
L 138.955641 333.878163 
L 139.240572 331.33841 
L 140.380296 329.551176 
L 143.728234 326.823292 
L 147.076173 326.258903 
L 147.788501 324.001344 
L 149.569319 323.813214 
L 153.059724 319.486226 
L 153.415887 317.228667 
L 154.484378 314.688914 
L 155.267939 311.020381 
L 155.125473 308.386562 
L 152.70356 303.58925 
L 152.70356 300.296976 
L 153.48712 296.722508 
L 156.193964 292.395521 
L 158.259714 291.548936 
L 162.818609 288.538858 
L 166.237781 284.870325 
L 166.522712 283.741545 
L 166.024083 280.543337 
L 166.309014 277.156999 
L 167.662436 273.864726 
L 168.374763 270.196193 
L 169.372021 267.844569 
L 169.015858 265.869205 
L 171.509004 261.730347 
L 172.363797 259.096529 
L 173.076124 259.096529 
L 175.284339 255.333931 
L 178.133649 252.700112 
L 180.698027 249.595969 
L 182.407613 246.58589 
L 184.971992 240.847928 
L 186.539112 239.342889 
L 189.388422 233.793057 
L 191.382939 232.005823 
L 195.087041 230.594849 
L 196.939092 229.08981 
L 199.788402 227.7729 
L 202.352781 227.678835 
L 203.63497 228.431355 
L 211.541805 229.08981 
L 213.322623 228.055095 
L 214.747278 223.916237 
L 216.88426 222.317133 
L 218.878777 219.307055 
L 218.736311 214.509742 
L 220.445897 213.380963 
L 224.292465 207.454871 
L 227.28424 203.692273 
L 227.569171 201.622844 
L 230.845878 195.884882 
L 234.478747 190.71131 
L 234.906144 187.983427 
L 235.974635 187.042777 
L 239.393807 180.83449 
L 239.180108 178.200672 
L 240.106134 175.849048 
L 240.106134 167.853527 
L 240.818461 165.407839 
L 240.53353 162.868085 
L 239.536272 159.481747 
L 236.900661 155.625084 
L 237.39929 151.109966 
L 238.96641 147.629563 
L 240.604763 145.842329 
L 242.243116 143.208511 
L 242.812978 141.327212 
L 243.596538 141.139082 
L 245.163659 138.787458 
L 250.292416 133.990146 
L 251.218442 133.707951 
L 253.711588 129.380963 
L 254.28145 125.618365 
L 254.138984 123.925196 
L 254.28145 113.201792 
L 254.993777 110.285778 
L 257.558156 105.394401 
L 259.695138 103.419037 
L 261.760887 102.478387 
L 265.322524 99.092049 
L 265.46499 97.116685 
L 263.684171 94.388802 
L 260.549931 92.883763 
L 256.418432 94.670997 
L 251.289674 97.77514 
L 248.796528 95.611646 
L 248.369132 93.636282 
L 251.43214 89.497424 
L 253.141726 88.46271 
L 256.133501 83.853527 
L 258.19925 79.33841 
L 258.98281 74.352968 
L 258.056785 71.531019 
L 256.63213 68.991265 
L 251.930769 66.169317 
L 249.152692 63.817693 
L 246.445848 63.065174 
L 244.237633 63.253303 
L 243.667771 62.688914 
L 241.103392 62.688914 
L 240.106134 62.124524 
L 236.045868 61.936394 
L 234.122584 60.619485 
L 232.412998 60.807615 
L 228.56643 64.193953 
L 227.854102 67.204031 
L 226.856844 66.921837 
L 226.358215 64.946473 
L 224.078767 61.842329 
L 225.218491 61.27794 
L 225.859586 59.302576 
L 226.999309 57.985666 
L 226.856844 56.856887 
L 228.993826 54.599328 
L 230.489714 53.752744 
L 230.845878 51.96551 
L 232.626696 51.307055 
L 232.697929 48.202912 
L 233.908885 46.791937 
L 234.336282 44.158119 
L 233.837653 43.123404 
L 235.832169 39.925196 
L 235.760937 38.890482 
L 237.39929 39.266741 
L 239.180108 37.855767 
L 240.889694 34.563494 
L 241.530789 32.4 
L 246.303382 33.716909 
L 247.371874 35.598208 
L 249.223925 36.726988 
L 250.506114 38.984546 
L 252.286933 40.207391 
L 253.284191 40.019261 
L 253.640355 37.291377 
L 253.640355 37.291377 
" clip-path="url(#p8feb653675)" style="fill: none; stroke: #000000; stroke-width: 3"/>
   </g>
  </g>
 </g>
 <defs>
  <clipPath id="p8feb653675">
   <rect x="7.2" y="7.2" width="270.563323" height="554.4"/>
  </clipPath>
 </defs>
</svg>
