<?xml version="1.0" encoding="utf-8" standalone="no"?>
<!DOCTYPE svg PUBLIC "-//W3C//DTD SVG 1.1//EN"
  "http://www.w3.org/Graphics/SVG/1.1/DTD/svg11.dtd">
<svg xmlns:xlink="http://www.w3.org/1999/xlink" width="280.34067pt" height="568.8pt" viewBox="0 0 280.34067 568.8" xmlns="http://www.w3.org/2000/svg" version="1.1">
 <metadata>
  <rdf:RDF xmlns:dc="http://purl.org/dc/elements/1.1/" xmlns:cc="http://creativecommons.org/ns#" xmlns:rdf="http://www.w3.org/1999/02/22-rdf-syntax-ns#">
   <cc:Work>
    <dc:type rdf:resource="http://purl.org/dc/dcmitype/StillImage"/>
    <dc:date>2023-09-25T14:14:30.729952</dc:date>
    <dc:format>image/svg+xml</dc:format>
    <dc:creator>
     <cc:Agent>
      <dc:title>Matplotlib v3.6.2, https://matplotlib.org/</dc:title>
     </cc:Agent>
    </dc:creator>
   </cc:Work>
  </rdf:RDF>
 </metadata>
 <defs>
  <style type="text/css">*{stroke-linejoin: round; stroke-linecap: butt}</style>
 </defs>
 <g id="figure_1">
  <g id="patch_1">
   <path d="M 0 568.8 
L 280.34067 568.8 
L 280.34067 0 
L 0 0 
z
" style="fill: #ffffff"/>
  </g>
  <g id="axes_1">
   <g id="LineCollection_1">
    <path d="M 241.859723 62.869819 
L 240.82517 62.493067 
L 240.076011 61.739563 
L 238.256626 60.562213 
L 238.04258 60.797683 
L 236.68696 60.279649 
L 235.25999 59.479051 
L 233.190885 57.877855 
L 232.72712 57.783667 
L 230.336947 55.947001 
L 229.409417 56.465035 
L 228.125145 58.537171 
L 227.019244 61.268623 
L 225.949017 62.210503 
L 225.092835 64.188451 
L 224.87879 65.742553 
L 224.129631 65.412895 
L 223.416147 64.518109 
L 220.633557 62.916913 
L 219.955746 62.304691 
L 220.24114 60.373837 
L 220.24114 58.678453 
L 220.597883 57.359821 
L 221.132996 56.559223 
L 221.382716 54.722557 
L 221.989177 53.921959 
L 222.702662 51.049224 
L 223.166427 48.317772 
L 223.558844 47.752644 
L 224.236654 44.785722 
L 224.058283 44.361876 
L 224.914464 42.76068 
L 225.306881 42.431022 
L 225.949017 40.87692 
L 227.197615 39.511194 
L 227.768402 38.569314 
L 228.232167 36.591366 
L 226.48413 34.566324 
L 225.235532 33.954102 
L 225.5566 33.624444 
L 224.415025 33.294786 
L 223.523169 32.541282 
L 222.809685 32.4 
L 222.310246 33.059316 
L 222.595639 33.483162 
L 222.238897 34.425042 
L 221.596761 34.707606 
L 220.134118 39.4641 
L 219.206588 40.029228 
L 217.886641 41.58333 
L 217.922315 41.912988 
L 216.923437 43.090338 
L 216.459672 44.40897 
L 216.10293 44.64444 
L 214.105173 47.281704 
L 213.926802 48.317772 
L 213.248992 49.683498 
L 212.571181 50.342814 
L 211.215561 53.215548 
L 210.216682 54.298711 
L 209.396175 56.323753 
L 208.468645 56.606317 
L 206.649259 55.287685 
L 203.688298 53.686489 
L 203.188859 53.686489 
L 201.833238 52.367856 
L 200.977057 52.17948 
L 198.9793 50.578284 
L 196.767498 49.82478 
L 194.805416 48.459054 
L 194.377325 47.375892 
L 194.983787 46.104354 
L 195.162158 44.974098 
L 194.555696 44.032218 
L 193.949234 44.220594 
L 192.629288 46.76367 
L 191.630409 48.129396 
L 191.13097 50.06025 
L 189.311584 53.733583 
L 189.061865 54.628369 
L 186.707366 58.019137 
L 186.386298 58.866829 
L 185.387419 60.138367 
L 183.96045 62.728537 
L 183.496685 63.952981 
L 182.676178 65.083237 
L 181.320557 67.955971 
L 177.931506 71.393833 
L 175.969423 73.936909 
L 174.578128 75.961951 
L 174.328408 76.009045 
L 172.223629 80.812633 
L 172.116606 81.566137 
L 172.65172 84.297589 
L 173.115485 85.145281 
L 173.186833 86.558101 
L 172.544697 87.452887 
L 170.975031 89.054083 
L 165.623897 92.115193 
L 164.339625 94.987927 
L 163.661814 95.60015 
L 163.198049 96.871688 
L 162.555913 99.932798 
L 162.520239 101.204336 
L 162.234845 101.533994 
L 162.484565 103.041002 
L 162.341868 105.395702 
L 160.451134 107.467838 
L 158.98849 108.174248 
L 157.311802 109.775444 
L 156.669665 109.869632 
L 156.419946 110.43476 
L 155.349719 110.952794 
L 153.209265 113.542964 
L 152.388758 115.285442 
L 151.532577 116.08604 
L 150.498024 118.346552 
L 148.749987 121.407662 
L 148.036502 123.762362 
L 147.644086 127.011848 
L 147.858131 128.189198 
L 147.67976 130.167146 
L 147.323018 131.721248 
L 147.180321 134.593982 
L 145.967397 136.760306 
L 143.96964 139.538853 
L 145.004193 139.350477 
L 146.716556 139.962699 
L 147.215995 139.821417 
L 148.892684 140.574921 
L 148.571616 142.223211 
L 147.644086 144.436629 
L 146.930601 144.719193 
L 145.8247 143.965689 
L 144.040989 143.070903 
L 142.828065 142.694151 
L 142.257277 141.328425 
L 141.115702 140.245263 
L 140.116824 139.633041 
L 138.368786 139.209195 
L 137.120188 139.491759 
L 136.906143 138.126033 
L 136.406704 137.466717 
L 135.015409 137.27834 
L 133.945182 138.314409 
L 133.802485 139.680135 
L 133.160349 140.998767 
L 133.374394 141.563895 
L 133.053326 142.411587 
L 133.124675 143.541843 
L 131.876077 144.248253 
L 131.162592 146.179107 
L 129.913994 147.215175 
L 129.414555 146.508765 
L 128.308654 147.450645 
L 129.592926 149.193123 
L 128.094609 147.827397 
L 127.024382 148.863465 
L 126.41792 150.229191 
L 125.74011 150.982695 
L 125.597413 151.830387 
L 124.705557 151.971669 
L 124.741231 153.714147 
L 124.277466 155.268249 
L 123.706679 155.597907 
L 124.206118 156.257223 
L 123.100217 156.916539 
L 122.814823 158.564829 
L 123.421285 159.789273 
L 124.491512 160.166025 
L 124.384489 160.825341 
L 123.742353 161.343375 
L 123.100217 160.684059 
L 121.138134 161.107905 
L 120.353301 161.673033 
L 119.889536 163.321323 
L 119.390097 163.603887 
L 119.49712 164.451579 
L 120.888414 165.205083 
L 120.353301 165.770211 
L 120.888414 166.429527 
L 120.032233 167.559783 
L 119.104703 167.842347 
L 119.104703 168.266193 
L 117.749082 169.255167 
L 119.996559 171.421491 
L 119.033355 172.928499 
L 117.606385 173.917473 
L 116.322113 176.413455 
L 115.180538 177.967557 
L 115.358909 178.862343 
L 113.717895 181.122856 
L 112.183903 182.959522 
L 111.506092 183.336274 
L 110.792608 184.419436 
L 110.863956 184.796188 
L 110.150472 186.209008 
L 109.829404 186.161914 
L 109.080245 187.29217 
L 108.794851 188.657896 
L 108.117041 189.64687 
L 107.082488 190.259092 
L 105.905239 191.719006 
L 105.691193 192.94345 
L 104.620966 193.41439 
L 103.622088 194.35627 
L 103.729111 195.721996 
L 101.945399 198.406354 
L 101.267589 200.337208 
L 100.375733 201.702934 
L 99.341181 203.77507 
L 98.91309 203.77507 
L 98.128257 205.941394 
L 98.270954 206.694898 
L 98.056908 207.966436 
L 98.306628 208.578658 
L 97.878537 213.288058 
L 97.165053 214.465408 
L 97.343424 215.171818 
L 96.665613 216.678826 
L 95.060273 219.363184 
L 94.703531 220.72891 
L 93.276562 222.989423 
L 93.383584 223.319081 
L 91.74257 225.862157 
L 91.278805 226.898225 
L 89.316722 230.053523 
L 88.852957 231.513437 
L 87.782731 233.350103 
L 87.176269 233.821043 
L 86.962223 234.574547 
L 85.677951 236.693777 
L 84.964467 238.342067 
L 83.537497 239.849075 
L 82.681316 241.497365 
L 80.933279 243.710783 
L 79.613332 244.605569 
L 77.972318 246.583517 
L 77.009114 247.525397 
L 74.583266 249.503345 
L 73.334668 252.281891 
L 72.692532 252.752831 
L 71.836351 254.401121 
L 70.766124 257.179667 
L 69.909942 258.074453 
L 69.695897 258.827957 
L 66.948981 262.783853 
L 66.948981 263.44317 
L 66.057126 264.290862 
L 66.164148 265.044366 
L 65.379315 265.892058 
L 64.91555 266.97522 
L 64.095043 267.728724 
L 63.452907 270.460176 
L 62.703748 270.836928 
L 61.490824 272.909064 
L 61.027059 274.839918 
L 58.280144 278.74872 
L 57.602333 279.125472 
L 57.031546 281.197608 
L 55.390531 283.787778 
L 54.213282 284.541282 
L 54.355979 284.918034 
L 53.678168 286.613418 
L 53.642494 287.743674 
L 53.071706 290.616408 
L 51.75176 294.52521 
L 51.109624 295.985124 
L 50.788556 298.669482 
L 50.217768 299.799738 
L 49.861026 301.400934 
L 49.361587 302.437002 
L 49.325912 304.603326 
L 49.861026 306.204523 
L 49.611306 307.711531 
L 50.075071 308.983069 
L 49.575632 310.490077 
L 50.360465 311.243581 
L 51.038275 313.127341 
L 51.858783 314.540161 
L 51.038275 318.778621 
L 51.109624 319.532125 
L 50.717207 320.992039 
L 50.57451 323.346739 
L 50.289117 324.618277 
L 50.467488 325.042123 
L 49.968049 327.867763 
L 50.324791 328.856737 
L 49.646981 329.751523 
L 49.861026 330.175369 
L 49.21889 332.200411 
L 49.004844 333.566137 
L 49.290238 335.402803 
L 48.862148 335.920837 
L 48.897822 338.087161 
L 48.327034 341.054083 
L 48.398383 341.619211 
L 47.720572 343.455877 
L 47.328156 345.810577 
L 46.900065 349.24844 
L 46.543323 350.943824 
L 45.75849 352.54502 
L 44.759611 353.533994 
L 44.83096 354.334592 
L 44.010452 355.088096 
L 43.546688 356.830574 
L 43.439665 360.127154 
L 44.260172 364.31852 
L 43.939104 365.542964 
L 44.260172 365.96681 
L 43.90343 367.049972 
L 44.153149 369.545954 
L 43.796407 370.770398 
L 43.760733 373.50185 
L 43.475339 374.490824 
L 43.261294 376.986806 
L 43.261294 379.482788 
L 43.689384 380.707232 
L 43.261294 382.308428 
L 43.332642 384.757316 
L 42.833203 386.782358 
L 42.226741 388.195178 
L 42.405112 389.466717 
L 42.191067 390.314409 
L 42.619158 391.962699 
L 42.405112 395.212185 
L 42.405112 398.273295 
L 41.941347 399.450645 
L 42.119718 400.486713 
L 41.548931 402.464661 
L 41.013817 405.949617 
L 40.978143 408.728163 
L 41.227863 410.376453 
L 40.942469 412.589871 
L 40.657075 413.296281 
L 40.585727 415.556793 
L 40.19331 416.969613 
L 39.479825 422.385423 
L 39.729545 424.033713 
L 39.658197 425.116875 
L 39.123083 426.388413 
L 38.58797 428.460549 
L 38.730667 429.119865 
L 38.231227 430.438497 
L 38.837689 432.840292 
L 38.302576 433.735078 
L 38.124205 435.100804 
L 37.41072 436.890376 
L 37.196675 438.82123 
L 36.875607 439.480546 
L 36.233471 443.248066 
L 36.233471 446.073706 
L 35.519986 448.287124 
L 35.448638 450.547636 
L 34.984873 452.666866 
L 35.020547 453.89131 
L 34.164365 455.727976 
L 34.021669 457.42336 
L 33.415207 458.223958 
L 33.343858 459.919342 
L 32.059586 465.42934 
L 32.130934 467.171818 
L 31.881215 467.878228 
L 31.952563 469.19686 
L 31.488798 469.243954 
L 30.168852 475.790021 
L 29.276996 477.909251 
L 27.600307 480.687797 
L 27.95705 481.535489 
L 26.744126 483.937283 
L 27.136542 484.832069 
L 26.993846 487.422239 
L 26.637103 487.987367 
L 26.530081 489.164717 
L 27.172217 489.023435 
L 27.243565 489.776939 
L 26.10199 493.261895 
L 25.673899 495.334031 
L 25.459854 497.359073 
L 25.566876 498.159671 
L 24.960415 499.572491 
L 24.889066 501.079499 
L 24.49665 502.680695 
L 23.462097 504.470267 
L 22.605915 506.730779 
L 22.070802 507.343001 
L 21.785408 508.473257 
L 22.106476 508.802915 
L 21.607037 509.415137 
L 20.572484 512.476247 
L 19.966023 513.371033 
L 19.323886 515.066417 
L 19.288212 518.833938 
L 19.966023 520.011288 
L 20.78653 520.62351 
L 21.785408 520.670604 
L 23.426423 521.612484 
L 24.425301 520.85898 
L 26.637103 521.282826 
L 27.743004 522.130518 
L 28.028398 523.354962 
L 27.350588 525.050346 
L 26.886823 527.169576 
L 26.922497 528.111456 
L 27.493285 529.241712 
L 28.920254 529.995216 
L 31.16773 531.784788 
L 34.128691 531.973164 
L 34.592456 532.444104 
L 34.699479 534.469146 
L 35.163244 534.610428 
L 35.377289 535.92906 
L 36.126448 536.4 
L 37.66044 536.023248 
L 38.552296 534.798804 
L 39.622522 534.092394 
L 40.514378 534.51624 
L 43.974778 534.327864 
L 47.720572 533.244702 
L 48.96917 532.208634 
L 49.076193 531.737694 
L 50.360465 530.937096 
L 52.821987 528.912054 
L 53.178729 527.92308 
L 55.21216 525.709662 
L 56.032667 526.321884 
L 56.888849 526.27479 
L 57.923402 525.144534 
L 58.886606 524.532312 
L 58.815257 523.967184 
L 59.493068 523.21368 
L 59.314696 521.80086 
L 60.848688 520.38804 
L 62.204309 520.058382 
L 62.703748 519.68163 
L 62.454029 518.645562 
L 63.096165 517.844964 
L 64.737179 517.232742 
L 65.736058 516.62052 
L 65.486338 516.14958 
L 67.805163 515.066417 
L 68.732693 515.348981 
L 69.874268 514.972229 
L 70.694775 515.490264 
L 71.907699 515.584452 
L 72.514161 516.14958 
L 73.084949 517.5624 
L 74.940008 519.304878 
L 75.760516 518.786844 
L 74.583266 518.127528 
L 74.083827 517.32693 
L 72.692532 517.421118 
L 72.977926 516.667614 
L 72.870903 515.254793 
L 71.622305 514.736759 
L 70.159662 512.994281 
L 70.373707 512.005307 
L 71.586631 510.357017 
L 72.442812 509.886077 
L 73.120623 510.592487 
L 74.975683 510.027359 
L 75.724841 509.415137 
L 76.402652 509.697701 
L 79.684681 507.390095 
L 80.86193 506.071463 
L 85.035815 503.528387 
L 86.890875 503.905139 
L 86.890875 503.387105 
L 88.139473 502.586507 
L 88.888632 503.151635 
L 90.493972 503.292917 
L 90.529646 502.963259 
L 93.062516 502.115567 
L 94.27544 501.267875 
L 94.917576 501.362063 
L 96.629939 500.655653 
L 98.163931 500.655653 
L 98.877416 499.525397 
L 100.197362 498.818987 
L 100.482756 497.641637 
L 102.37349 496.605569 
L 103.586414 496.275911 
L 106.119284 496.323005 
L 108.081367 495.899159 
L 109.151593 495.381125 
L 110.507214 495.475313 
L 111.577441 495.145655 
L 112.683342 495.239843 
L 113.896266 495.663689 
L 115.144864 495.710783 
L 118.034476 494.910185 
L 118.99768 494.203775 
L 121.138134 493.921211 
L 121.530551 493.544459 
L 123.135891 493.544459 
L 123.456959 493.120613 
L 124.348815 493.638647 
L 125.383367 492.838049 
L 127.202753 492.367109 
L 130.377759 492.225827 
L 130.80585 492.461297 
L 133.445743 492.508391 
L 134.551644 492.979331 
L 137.369908 493.026425 
L 139.403339 492.885143 
L 142.721042 492.461297 
L 147.715434 492.272921 
L 149.855888 491.990357 
L 150.533698 492.084545 
L 150.89044 493.120613 
L 152.246061 492.932237 
L 157.276127 492.743861 
L 159.345233 492.084545 
L 162.270519 489.494375 
L 163.87586 487.422239 
L 164.874738 485.538479 
L 165.445526 483.843095 
L 165.017435 482.241899 
L 165.088783 481.582583 
L 166.836821 480.311045 
L 167.693002 477.344123 
L 169.262668 473.388226 
L 169.904804 472.116688 
L 170.903683 469.149766 
L 171.47447 466.747972 
L 172.009584 465.288058 
L 173.008462 461.473444 
L 173.472227 460.154812 
L 174.435431 456.387292 
L 174.221386 455.727976 
L 174.613802 455.162848 
L 175.541332 451.630798 
L 176.290491 448.051654 
L 176.504536 446.35627 
L 177.218021 443.248066 
L 178.359596 436.278154 
L 178.716339 435.194992 
L 179.429823 430.391403 
L 179.679543 429.590805 
L 180.286005 426.105849 
L 180.464376 423.656961 
L 179.82224 422.762175 
L 179.750891 422.055765 
L 180.678421 419.418501 
L 181.356231 416.545767 
L 181.42758 414.709101 
L 180.74977 414.002691 
L 180.428702 412.872435 
L 181.070838 412.260213 
L 181.677299 410.753205 
L 182.319436 407.032779 
L 182.141064 404.489703 
L 181.855671 403.406541 
L 180.785444 401.381499 
L 179.715217 400.015773 
L 177.110998 397.566885 
L 176.076446 396.248253 
L 174.756499 394.176117 
L 173.721947 391.915605 
L 173.186833 389.089964 
L 171.831212 380.942702 
L 171.47447 377.834498 
L 171.010705 376.280396 
L 171.117728 373.97279 
L 171.688516 370.67621 
L 172.080932 369.357578 
L 173.507901 366.67322 
L 172.865765 365.73134 
L 175.006219 362.858606 
L 175.933749 360.833564 
L 176.932627 359.185274 
L 177.824483 356.359634 
L 179.358475 347.223397 
L 179.3228 345.951859 
L 178.930384 344.821603 
L 178.966058 342.749467 
L 179.394149 341.995963 
L 180.071959 341.713399 
L 180.286005 340.394767 
L 181.498928 340.159297 
L 181.784322 339.547075 
L 181.463254 338.463913 
L 182.034042 336.956905 
L 182.640504 336.438871 
L 184.138821 332.294599 
L 184.745283 331.823659 
L 185.351745 330.316651 
L 186.600343 328.244515 
L 187.313828 327.443917 
L 188.883494 326.313661 
L 190.45316 323.770585 
L 191.202318 322.922893 
L 193.699514 319.390843 
L 193.057378 319.155373 
L 192.236871 320.709475 
L 191.13097 321.933919 
L 190.524508 322.969987 
L 188.954842 324.712465 
L 186.885737 327.820669 
L 186.136578 328.621267 
L 185.530116 329.845711 
L 183.496685 328.903831 
L 181.605951 327.443917 
L 179.82224 326.737507 
L 178.216899 325.324687 
L 172.152281 322.028107 
L 171.117728 321.792637 
L 169.012948 320.615287 
L 167.693002 319.532125 
L 167.193563 319.532125 
L 166.051987 318.637339 
L 164.482321 318.025117 
L 164.30395 317.412895 
L 164.910412 316.423921 
L 165.160132 315.387853 
L 166.658449 312.703495 
L 167.33626 312.373837 
L 168.370812 310.254607 
L 168.584858 309.359821 
L 169.976153 307.287685 
L 170.54694 305.592301 
L 171.438796 304.556232 
L 171.866887 302.53119 
L 165.909291 299.328798 
L 164.446647 298.05726 
L 163.804511 298.010166 
L 163.162375 297.35085 
L 160.950573 296.314782 
L 159.91602 296.220594 
L 158.453377 295.090338 
L 156.562643 294.05427 
L 155.920507 294.101364 
L 154.814606 293.11239 
L 153.637356 292.500168 
L 149.855888 291.322818 
L 149.962911 290.428032 
L 147.501389 289.439058 
L 145.896049 288.308802 
L 142.11458 286.425042 
L 141.294073 285.436068 
L 140.009801 284.87094 
L 139.046597 283.976154 
L 137.512605 283.269744 
L 138.65418 282.28077 
L 139.33199 281.10342 
L 139.189294 280.585386 
L 140.009801 279.92607 
L 140.580588 277.618464 
L 141.543793 276.676584 
L 141.329747 275.875986 
L 142.542671 272.6265 
L 142.399974 272.296842 
L 143.96964 271.354962 
L 144.112337 269.518296 
L 145.218238 269.188638 
L 145.967397 266.786844 
L 146.787904 266.080434 
L 146.324139 265.32693 
L 147.108972 264.479238 
L 148.535941 263.537358 
L 148.535941 262.830947 
L 146.003071 261.135563 
L 145.539306 261.041375 
L 144.076663 259.911119 
L 143.04211 259.722743 
L 141.757838 258.733769 
L 140.295195 257.179667 
L 139.439013 257.179667 
L 137.04884 255.578471 
L 136.692098 255.766847 
L 134.765689 254.542403 
L 132.910629 253.600523 
L 132.41119 253.129583 
L 131.233941 252.988301 
L 129.699949 251.999327 
L 130.163714 249.974285 
L 131.269615 248.844029 
L 131.48366 246.300953 
L 132.66091 244.699757 
L 132.839281 243.804971 
L 133.838159 242.439245 
L 135.015409 240.461297 
L 135.372151 240.272921 
L 136.549401 238.200785 
L 137.013166 237.023435 
L 140.616263 231.183779 
L 141.864861 228.546515 
L 142.506997 228.876173 
L 142.935088 225.249935 
L 142.721042 224.873183 
L 143.648572 224.637713 
L 144.112337 223.695833 
L 145.860374 223.742927 
L 146.823578 222.424295 
L 147.180321 220.870192 
L 146.538185 219.55156 
L 147.108972 218.232928 
L 149.499146 213.66481 
L 150.248304 212.72293 
L 151.496902 210.509512 
L 153.209265 208.060624 
L 154.992977 204.764044 
L 155.064325 204.340198 
L 156.919385 201.608746 
L 159.416581 196.758064 
L 160.986247 194.214988 
L 162.69861 190.682938 
L 163.661814 189.128836 
L 166.016313 184.136872 
L 168.01407 181.16995 
L 170.54694 176.743113 
L 172.402 172.834311 
L 175.8624 166.947561 
L 178.002854 162.520725 
L 180.178982 158.988675 
L 181.320557 156.681069 
L 181.891345 156.163035 
L 182.747526 154.185087 
L 183.853427 152.395515 
L 184.780957 150.229191 
L 186.457646 147.544833 
L 188.170009 144.577911 
L 188.705122 143.353467 
L 190.310463 140.951673 
L 191.452038 138.408597 
L 191.594735 137.749281 
L 193.235749 135.347486 
L 194.270302 133.369538 
L 194.698393 132.003812 
L 196.517778 129.27236 
L 196.910195 128.377574 
L 198.194467 126.352532 
L 198.372838 125.74031 
L 200.120876 122.91467 
L 201.262451 120.55997 
L 201.868913 119.712278 
L 204.116389 115.991852 
L 204.580154 114.814502 
L 206.506562 111.046982 
L 208.896736 107.279462 
L 211.322583 102.66425 
L 216.352649 93.857671 
L 227.161941 73.465969 
L 229.445091 69.886825 
L 230.765038 68.850757 
L 230.836386 67.767595 
L 231.300151 66.496057 
L 232.655772 63.952981 
L 233.690324 62.493067 
L 234.617854 60.373837 
L 235.367013 59.949991 
L 237.257747 60.656401 
L 238.113929 61.456999 
L 240.718147 63.011101 
L 240.967867 63.623323 
L 241.824048 63.670417 
L 243.001298 64.235545 
L 244.28557 65.554177 
L 245.141752 65.742553 
L 245.926585 65.507083 
L 246.675743 65.978023 
L 249.030243 66.448963 
L 249.60103 67.626313 
L 251.598787 68.568193 
L 253.56087 69.039133 
L 255.201884 70.546141 
L 256.200762 69.462979 
L 256.807224 68.238535 
L 257.69908 67.485031 
L 258.091497 66.448963 
L 259.340095 65.083237 
L 259.910882 63.246571 
L 261.052457 61.551187 
L 259.55414 61.127341 
L 257.9488 60.373837 
L 256.272111 59.243581 
L 255.808346 59.196487 
L 253.810589 57.548197 
L 252.740362 57.030163 
L 251.135022 56.841787 
L 249.743727 55.428967 
L 249.279962 54.251617 
L 249.315636 52.697514 
L 248.92322 51.00213 
L 246.604395 49.966062 
L 244.820684 48.600336 
L 244.142873 48.317772 
L 243.036972 47.328798 
L 242.252139 47.281704 
L 242.644556 45.35085 
L 243.286692 43.749654 
L 243.001298 43.372902 
L 242.252139 44.503158 
L 242.252139 45.11538 
L 240.076011 47.94102 
L 239.719269 47.94102 
L 239.612246 49.495122 
L 237.650164 51.849822 
L 235.902127 55.570249 
L 236.472914 56.653411 
L 237.222073 56.794693 
L 238.327974 57.736573 
L 239.968989 58.584265 
L 242.00242 58.866829 
L 244.035851 60.373837 
L 244.749335 61.598281 
L 245.534168 61.786657 
L 243.786131 64.188451 
L 242.644556 62.775631 
L 242.00242 62.540161 
L 242.00242 62.540161 
" clip-path="url(#p19fc47e7d7)" style="fill: none; stroke: #000000; stroke-width: 3"/>
   </g>
  </g>
 </g>
 <defs>
  <clipPath id="p19fc47e7d7">
   <rect x="7.2" y="7.2" width="265.94067" height="554.4"/>
  </clipPath>
 </defs>
</svg>
