<?xml version="1.0" encoding="utf-8" standalone="no"?>
<!DOCTYPE svg PUBLIC "-//W3C//DTD SVG 1.1//EN"
  "http://www.w3.org/Graphics/SVG/1.1/DTD/svg11.dtd">
<svg xmlns:xlink="http://www.w3.org/1999/xlink" width="280.630406pt" height="568.8pt" viewBox="0 0 280.630406 568.8" xmlns="http://www.w3.org/2000/svg" version="1.1">
 <metadata>
  <rdf:RDF xmlns:dc="http://purl.org/dc/elements/1.1/" xmlns:cc="http://creativecommons.org/ns#" xmlns:rdf="http://www.w3.org/1999/02/22-rdf-syntax-ns#">
   <cc:Work>
    <dc:type rdf:resource="http://purl.org/dc/dcmitype/StillImage"/>
    <dc:date>2023-09-25T14:14:30.528858</dc:date>
    <dc:format>image/svg+xml</dc:format>
    <dc:creator>
     <cc:Agent>
      <dc:title>Matplotlib v3.6.2, https://matplotlib.org/</dc:title>
     </cc:Agent>
    </dc:creator>
   </cc:Work>
  </rdf:RDF>
 </metadata>
 <defs>
  <style type="text/css">*{stroke-linejoin: round; stroke-linecap: butt}</style>
 </defs>
 <g id="figure_1">
  <g id="patch_1">
   <path d="M -0 568.8 
L 280.630406 568.8 
L 280.630406 0 
L -0 0 
z
" style="fill: #ffffff"/>
  </g>
  <g id="axes_1">
   <g id="LineCollection_1">
    <path d="M 23.948989 535.005166 
L 23.244806 536.4 
L 20.921003 533.331365 
L 19.935147 531.378598 
L 20.568911 531.006642 
L 19.301382 525.334317 
L 19.79431 522.544649 
L 19.583055 521.056827 
L 20.568911 515.942435 
L 22.470205 513.710701 
L 23.033551 511.2 
L 24.512335 510.921033 
L 24.72359 509.247232 
L 26.836138 506.922509 
L 27.61074 503.016974 
L 29.582452 501.715129 
L 30.357053 501.901107 
L 31.835837 500.413284 
L 33.807549 497.344649 
L 35.004659 494.64797 
L 35.004659 491.579336 
L 35.708842 491.486347 
L 38.314319 488.510701 
L 40.849377 484.047232 
L 40.990213 483.210332 
L 43.314017 483.39631 
L 44.651964 480.327675 
L 45.215311 477.909963 
L 46.342003 475.771218 
L 48.806643 475.864207 
L 48.94748 475.213284 
L 47.609532 471.958672 
L 49.862917 467.309225 
L 53.735923 463.40369 
L 55.355543 459.870111 
L 54.933034 456.336531 
L 55.566798 453.732841 
L 58.172275 449.362362 
L 58.313111 447.595572 
L 59.651059 446.01476 
L 58.665203 444.619926 
L 60.284823 440.714391 
L 59.791895 440.063469 
L 63.594483 435.971956 
L 65.284521 432.345387 
L 65.918286 430.113653 
L 67.678743 426.580074 
L 68.594181 426.115129 
L 69.86171 423.790406 
L 71.270076 423.046494 
L 75.565591 417.002214 
L 76.199355 414.398524 
L 84.22704 410.307011 
L 85.494569 408.726199 
L 84.579131 404.727675 
L 87.114189 402.495941 
L 87.536699 400.264207 
L 90.071757 398.869373 
L 92.254724 394.963838 
L 93.451835 393.661993 
L 92.81807 386.501845 
L 91.973051 383.43321 
L 91.902633 381.108487 
L 92.81807 381.480443 
L 94.578527 380.550554 
L 95.916475 381.75941 
L 97.254422 380.178598 
L 96.198148 369.763838 
L 100.423245 372.088561 
L 102.535794 371.623616 
L 99.366971 368.461993 
L 96.338985 366.323247 
L 94.789782 365.765314 
L 94.367273 363.905535 
L 95.141874 362.045756 
L 97.254422 359.721033 
L 99.648644 357.768266 
L 100.775336 354.513653 
L 101.831611 353.211808 
L 102.747048 349.678229 
L 103.239976 349.492251 
L 106.338381 343.540959 
L 109.436785 338.705535 
L 113.521046 336.194834 
L 117.323633 335.450923 
L 119.858691 335.357934 
L 126.759683 338.984502 
L 128.238467 339.077491 
L 129.717251 338.054613 
L 131.970636 337.496679 
L 135.702805 333.498155 
L 136.547825 329.778598 
L 136.759079 327.267897 
L 137.95619 325.594096 
L 138.871628 325.594096 
L 143.30798 322.711439 
L 143.519235 321.78155 
L 145.702202 321.130627 
L 149.293534 317.225092 
L 149.997717 315.365314 
L 151.053991 314.714391 
L 151.265246 311.831734 
L 152.884866 308.856089 
L 152.039847 303.55572 
L 150.842736 301.045018 
L 149.645625 296.209594 
L 150.7019 293.605904 
L 154.856578 290.165314 
L 157.532473 286.817712 
L 160.842133 284.771956 
L 162.039243 283.470111 
L 163.870119 280.122509 
L 163.306772 276.123985 
L 163.7997 273.055351 
L 164.926393 271.567528 
L 165.348903 266.732103 
L 165.208066 265.058303 
L 166.405177 263.105535 
L 168.658562 256.968266 
L 171.123202 253.99262 
L 175.207462 250.645018 
L 178.094612 247.111439 
L 179.784651 243.856827 
L 184.221003 234.278967 
L 186.122296 231.303321 
L 187.953172 229.257565 
L 190.629067 227.583764 
L 195.628765 226.467897 
L 196.121693 226.002952 
L 200.628463 226.281919 
L 207.036527 227.02583 
L 207.388618 226.095941 
L 209.78284 225.166052 
L 212.24748 221.167528 
L 215.768394 216.704059 
L 216.824668 213.542435 
L 218.585125 209.822878 
L 221.049765 206.475277 
L 222.035621 204.336531 
L 224.429843 201.82583 
L 225.204444 198.571218 
L 228.584522 191.690037 
L 229.711214 190.667159 
L 232.880037 185.552768 
L 233.020873 184.250923 
L 234.992585 178.950554 
L 235.415095 179.22952 
L 236.04886 175.695941 
L 236.893879 173.18524 
L 235.274259 168.535793 
L 236.400951 165.002214 
L 236.119278 161.00369 
L 235.555932 158.585978 
L 233.232128 154.494465 
L 232.950455 152.448708 
L 234.288403 147.98524 
L 235.696768 144.544649 
L 237.175552 141.940959 
L 239.781029 138.686347 
L 240.414793 137.384502 
L 241.963995 137.105535 
L 242.949851 135.617712 
L 245.344073 133.664945 
L 249.005824 128.736531 
L 249.780425 126.318819 
L 249.99168 123.250185 
L 249.780425 117.949815 
L 250.625444 115.718081 
L 250.836699 111.905535 
L 251.681719 107.814022 
L 254.216777 103.164576 
L 257.948946 100.281919 
L 260.836096 99.259041 
L 261.329024 96.004428 
L 260.765677 94.051661 
L 259.075638 92.935793 
L 255.625143 92.470849 
L 253.301339 93.679705 
L 251.822555 95.074539 
L 248.583314 96.469373 
L 244.780727 93.772694 
L 245.344073 89.77417 
L 249.639588 85.961624 
L 254.357613 78.987454 
L 255.413888 76.569742 
L 255.061796 75.82583 
L 255.554724 72.850185 
L 254.216777 69.595572 
L 252.667575 67.642804 
L 249.005824 64.853137 
L 244.921563 62.714391 
L 241.259813 61.412546 
L 238.302245 61.877491 
L 236.471369 61.04059 
L 230.626652 60.20369 
L 228.091594 60.947601 
L 227.457829 62.063469 
L 225.486117 63.458303 
L 224.711516 66.154982 
L 226.61281 68.572694 
L 230.204142 70.990406 
L 231.753344 71.362362 
L 234.077148 73.501107 
L 235.274259 75.918819 
L 235.415095 79.35941 
L 236.119278 80.382288 
L 237.175552 84.659779 
L 236.189696 89.867159 
L 233.091292 95.074539 
L 229.147868 97.213284 
L 226.119882 97.58524 
L 222.598967 99.445018 
L 219.711818 103.164576 
L 219.6414 104.187454 
L 217.951361 107.628044 
L 214.923375 109.487823 
L 210.346186 111.068635 
L 208.163219 112.463469 
L 206.754854 112.37048 
L 205.628161 113.300369 
L 204.290214 112.556458 
L 199.50177 111.998524 
L 195.910438 109.115867 
L 195.276673 107.442066 
L 198.515914 103.536531 
L 198.515914 101.676753 
L 200.628463 97.306273 
L 202.741011 93.586716 
L 204.078959 92.563838 
L 203.938122 91.633948 
L 205.064815 88.937269 
L 206.121089 87.914391 
L 207.670291 84.473801 
L 209.008239 83.078967 
L 209.712421 80.103321 
L 211.40246 77.406642 
L 216.895086 70.804428 
L 218.725962 65.41107 
L 220.908929 61.505535 
L 224.077751 58.4369 
L 224.711516 55.647232 
L 227.387411 51.090775 
L 229.007031 49.974908 
L 230.69707 46.348339 
L 230.837907 44.860517 
L 230.27456 41.419926 
L 230.978743 41.605904 
L 232.246272 38.537269 
L 234.147566 37.514391 
L 235.555932 35.933579 
L 237.386807 32.585978 
L 238.020572 32.4 
L 241.963995 34.352768 
L 243.090688 35.747601 
L 244.851145 35.468635 
L 249.217079 37.700369 
L 249.217079 37.700369 
" clip-path="url(#pbd1b278225)" style="fill: none; stroke: #000000; stroke-width: 3"/>
   </g>
  </g>
 </g>
 <defs>
  <clipPath id="pbd1b278225">
   <rect x="7.2" y="7.2" width="266.230406" height="554.4"/>
  </clipPath>
 </defs>
</svg>
