<?xml version="1.0" encoding="utf-8" standalone="no"?>
<!DOCTYPE svg PUBLIC "-//W3C//DTD SVG 1.1//EN"
  "http://www.w3.org/Graphics/SVG/1.1/DTD/svg11.dtd">
<svg xmlns:xlink="http://www.w3.org/1999/xlink" width="302.98069pt" height="568.8pt" viewBox="0 0 302.98069 568.8" xmlns="http://www.w3.org/2000/svg" version="1.1">
 <metadata>
  <rdf:RDF xmlns:dc="http://purl.org/dc/elements/1.1/" xmlns:cc="http://creativecommons.org/ns#" xmlns:rdf="http://www.w3.org/1999/02/22-rdf-syntax-ns#">
   <cc:Work>
    <dc:type rdf:resource="http://purl.org/dc/dcmitype/StillImage"/>
    <dc:date>2023-09-25T14:14:30.468831</dc:date>
    <dc:format>image/svg+xml</dc:format>
    <dc:creator>
     <cc:Agent>
      <dc:title>Matplotlib v3.6.2, https://matplotlib.org/</dc:title>
     </cc:Agent>
    </dc:creator>
   </cc:Work>
  </rdf:RDF>
 </metadata>
 <defs>
  <style type="text/css">*{stroke-linejoin: round; stroke-linecap: butt}</style>
 </defs>
 <g id="figure_1">
  <g id="patch_1">
   <path d="M 0 568.8 
L 302.98069 568.8 
L 302.98069 0 
L 0 0 
z
" style="fill: #ffffff"/>
  </g>
  <g id="axes_1">
   <g id="LineCollection_1">
    <path d="M 277.797289 33.331264 
L 278.643566 32.4 
L 281.323446 33.983149 
L 282.663385 35.473171 
L 281.1824 39.291353 
L 278.996182 40.408869 
L 276.457349 46.83459 
L 274.623748 50.280266 
L 273.354331 51.397783 
L 272.719623 54.005322 
L 271.30916 54.843459 
L 267.924049 54.56408 
L 262.705337 53.167184 
L 260.378073 53.819069 
L 255.653023 52.794678 
L 251.562681 55.58847 
L 251.139542 57.264745 
L 251.77425 61.26918 
L 254.595176 63.597339 
L 260.166504 66.111752 
L 261.43592 67.788027 
L 261.506443 74.493126 
L 262.141152 75.238137 
L 263.410568 79.149446 
L 263.128476 83.247007 
L 259.320226 88.555211 
L 256.781393 89.486475 
L 253.043667 91.535255 
L 249.940648 92.094013 
L 246.343968 97.402217 
L 245.004029 101.406652 
L 242.535719 103.082927 
L 240.561071 103.455432 
L 237.387529 104.852328 
L 232.874049 107.366741 
L 230.476262 109.415521 
L 227.725859 113.419956 
L 226.38592 117.42439 
L 225.187026 117.983149 
L 223.847087 122.825721 
L 222.436624 125.805765 
L 220.179883 128.972062 
L 212.774954 135.21153 
L 211.717106 138.005322 
L 211.082398 141.450998 
L 211.435014 145.641685 
L 209.601412 150.949889 
L 205.370024 152.99867 
L 201.984913 153.557428 
L 196.625154 157.37561 
L 194.438937 159.517517 
L 190.91278 164.546341 
L 188.585517 168.830155 
L 187.457146 172.83459 
L 187.527669 177.025277 
L 189.713887 183.91663 
L 189.643364 185.499778 
L 190.348595 189.597339 
L 188.303424 195.371175 
L 184.354128 200.4 
L 181.744772 202.914412 
L 178.641754 205.335698 
L 176.243967 207.756984 
L 174.692458 211.109534 
L 174.128273 213.437694 
L 174.480888 215.85898 
L 174.128273 222.470953 
L 171.942055 226.94102 
L 167.569621 230.107317 
L 164.466603 233.180488 
L 162.350908 236.346785 
L 159.812075 238.581818 
L 156.709057 242.027494 
L 154.240747 245.286918 
L 151.701914 247.987583 
L 147.611572 250.222616 
L 144.931693 252.923282 
L 141.758151 255.344568 
L 141.123443 258.417738 
L 140.770827 263.53969 
L 141.405536 269.499778 
L 142.533906 274.528603 
L 141.758151 278.812417 
L 139.219318 281.419956 
L 136.962578 282.723725 
L 133.930083 283.561863 
L 130.192356 286.169401 
L 125.32626 294.364523 
L 125.396783 295.668293 
L 124.338936 297.903326 
L 123.210566 302.559645 
L 120.883302 309.544124 
L 120.107547 309.91663 
L 117.286622 313.548559 
L 111.362678 318.949889 
L 110.093262 319.601774 
L 108.04809 321.836807 
L 104.521933 326.4 
L 102.758855 329.286918 
L 99.796883 335.15388 
L 99.585314 337.109534 
L 100.995776 341.207095 
L 102.899901 344.652772 
L 105.650304 346.980931 
L 107.272336 348.936585 
L 108.823845 349.774723 
L 108.330183 352.196009 
L 106.426058 355.082927 
L 106.778674 356.014191 
L 105.509257 357.690466 
L 103.605133 363.184922 
L 102.335716 363.929933 
L 101.277869 365.792461 
L 100.995776 368.306874 
L 101.9831 368.493126 
L 101.630485 370.44878 
L 99.585314 370.44878 
L 99.51479 372.590687 
L 98.739036 373.987583 
L 96.623342 376.036364 
L 96.623342 378.550776 
L 95.91811 379.48204 
L 93.097185 380.50643 
L 90.346782 385.814634 
L 89.288935 389.53969 
L 86.961672 392.892239 
L 86.397486 400.435477 
L 86.044871 401.552993 
L 83.506038 401.925499 
L 82.025052 405.836807 
L 80.826158 407.233703 
L 78.710464 408.164967 
L 77.370524 411.610643 
L 77.370524 412.72816 
L 74.690645 418.12949 
L 71.587627 419.898891 
L 68.343563 423.8102 
L 67.215192 427.255876 
L 65.875253 427.814634 
L 63.547989 431.632816 
L 62.842758 433.867849 
L 61.78491 434.240355 
L 60.092355 437.686031 
L 60.021832 441.131707 
L 58.822939 443.366741 
L 56.848291 445.508647 
L 56.566198 450.35122 
L 55.790444 453.331264 
L 55.649397 455.659424 
L 57.200906 460.036364 
L 57.05986 460.874501 
L 53.674749 459.663858 
L 52.546379 461.340133 
L 48.597083 468.88337 
L 45.917204 469.628381 
L 44.647787 468.231486 
L 44.506741 470.280266 
L 43.519417 471.21153 
L 43.448894 476.705987 
L 41.192154 477.450998 
L 39.005936 480.803548 
L 38.300705 483.131707 
L 37.665997 482.945455 
L 35.902918 484.994235 
L 34.210363 486.111752 
L 32.870423 489.743681 
L 31.036821 492.537472 
L 30.402113 495.517517 
L 30.33159 500.546341 
L 29.20322 500.918847 
L 28.004326 502.688248 
L 25.959155 503.898891 
L 24.337123 503.898891 
L 20.45835 505.016408 
L 20.317304 504.643902 
L 30.33159 504.923282 
L 35.409256 507.437694 
L 36.114487 507.344568 
L 38.935413 509.765854 
L 40.698492 509.765854 
L 42.884709 512.745898 
L 44.154125 515.819069 
L 48.385514 518.519734 
L 51.418009 519.078492 
L 53.110564 518.799113 
L 57.341953 519.171619 
L 57.482999 519.823503 
L 60.938633 522.9898 
L 63.406943 526.528603 
L 64.605836 526.528603 
L 67.285715 528.856763 
L 65.522637 533.885588 
L 66.792053 536.4 
L 66.016299 533.792461 
L 64.394267 532.674945 
L 61.78491 528.577384 
L 61.220725 526.807982 
L 59.457647 525.504213 
L 57.553522 526.714856 
L 55.296782 524.200443 
L 55.296782 524.200443 
" clip-path="url(#p8e39438910)" style="fill: none; stroke: #000000; stroke-width: 3"/>
   </g>
  </g>
 </g>
 <defs>
  <clipPath id="p8e39438910">
   <rect x="7.2" y="7.2" width="288.58069" height="554.4"/>
  </clipPath>
 </defs>
</svg>
