<?xml version="1.0" encoding="utf-8" standalone="no"?>
<!DOCTYPE svg PUBLIC "-//W3C//DTD SVG 1.1//EN"
  "http://www.w3.org/Graphics/SVG/1.1/DTD/svg11.dtd">
<svg xmlns:xlink="http://www.w3.org/1999/xlink" width="264.698068pt" height="568.8pt" viewBox="0 0 264.698068 568.8" xmlns="http://www.w3.org/2000/svg" version="1.1">
 <metadata>
  <rdf:RDF xmlns:dc="http://purl.org/dc/elements/1.1/" xmlns:cc="http://creativecommons.org/ns#" xmlns:rdf="http://www.w3.org/1999/02/22-rdf-syntax-ns#">
   <cc:Work>
    <dc:type rdf:resource="http://purl.org/dc/dcmitype/StillImage"/>
    <dc:date>2023-09-25T14:14:30.407774</dc:date>
    <dc:format>image/svg+xml</dc:format>
    <dc:creator>
     <cc:Agent>
      <dc:title>Matplotlib v3.6.2, https://matplotlib.org/</dc:title>
     </cc:Agent>
    </dc:creator>
   </cc:Work>
  </rdf:RDF>
 </metadata>
 <defs>
  <style type="text/css">*{stroke-linejoin: round; stroke-linecap: butt}</style>
 </defs>
 <g id="figure_1">
  <g id="patch_1">
   <path d="M 0 568.8 
L 264.698068 568.8 
L 264.698068 0 
L 0 0 
z
" style="fill: #ffffff"/>
  </g>
  <g id="axes_1">
   <g id="LineCollection_1">
    <path d="M 25.110165 536.4 
L 23.084941 533.55303 
L 22.170324 531.65505 
L 20.406419 530.70606 
L 19.753121 527.945361 
L 18.577185 525.788566 
L 20.07977 524.063129 
L 20.34109 522.251421 
L 19.165153 521.561246 
L 19.165153 520.008353 
L 20.014441 518.714276 
L 21.713015 517.93783 
L 23.47692 515.781034 
L 23.41159 514.832044 
L 26.416761 511.122355 
L 25.959452 509.138103 
L 27.919347 506.981308 
L 28.768634 504.910784 
L 30.14056 503.702978 
L 32.492433 500.510921 
L 33.080401 498.354125 
L 33.929688 497.232592 
L 33.21106 494.730709 
L 32.361773 494.903252 
L 39.8747 489.295584 
L 41.442615 487.052516 
L 42.030584 483.515371 
L 42.879871 481.186032 
L 42.683882 479.029237 
L 45.427733 476.095995 
L 47.256968 472.903937 
L 50.000819 467.468812 
L 51.176756 463.759124 
L 51.438075 461.947415 
L 55.815172 457.288737 
L 57.121768 456.339747 
L 56.991108 455.390757 
L 62.80546 445.296953 
L 62.217492 443.74406 
L 65.157333 440.810818 
L 65.026674 438.395207 
L 65.875961 436.583499 
L 65.418653 433.995344 
L 67.247887 431.234646 
L 69.861079 430.544471 
L 69.861079 429.164122 
L 71.624984 424.764259 
L 73.062239 422.693735 
L 73.715537 420.364396 
L 74.303506 421.658473 
L 70.579707 419.15659 
L 74.172846 418.638959 
L 76.13274 417.862513 
L 77.374006 416.30962 
L 77.569996 412.945019 
L 78.157964 412.686203 
L 78.092634 410.011777 
L 81.881762 408.113797 
L 84.494955 405.784457 
L 85.736221 405.43937 
L 84.952263 403.455118 
L 87.565455 402.419856 
L 88.937381 401.298322 
L 91.093264 400.780692 
L 90.505296 398.192537 
L 90.635956 394.051489 
L 91.746562 393.533858 
L 91.681233 390.082985 
L 92.59585 389.651626 
L 93.706457 386.718384 
L 96.646298 385.769394 
L 96.776957 383.785142 
L 94.555744 380.161725 
L 92.987829 379.126464 
L 90.113317 375.761862 
L 89.656009 374.036426 
L 91.550573 370.671825 
L 94.751733 368.428757 
L 96.580968 365.064156 
L 97.626245 364.115166 
L 97.887564 362.38973 
L 99.782128 360.146662 
L 99.847458 359.283944 
L 102.46065 353.935091 
L 104.747193 351.51948 
L 107.556374 347.896063 
L 111.149513 347.29216 
L 117.617164 349.794043 
L 122.908878 349.966587 
L 125.783389 348.413694 
L 128.527241 345.998083 
L 130.748454 341.770763 
L 131.532412 339.010065 
L 133.100327 337.457172 
L 135.582859 335.818008 
L 136.824125 334.52393 
L 141.135892 331.504416 
L 141.527871 330.037795 
L 142.703808 328.916262 
L 144.598372 323.998768 
L 144.859691 321.496885 
L 143.945074 318.563643 
L 142.899797 316.838206 
L 141.98518 313.387333 
L 142.181169 310.799178 
L 142.834467 309.246286 
L 144.206393 308.03848 
L 146.362276 304.501335 
L 147.864862 303.207258 
L 151.71932 301.568093 
L 153.940533 298.634851 
L 154.593831 296.21924 
L 154.332512 294.493803 
L 154.92048 291.301746 
L 155.508449 290.697843 
L 156.619055 283.709825 
L 157.729662 282.674564 
L 159.166918 278.188429 
L 161.126812 274.047381 
L 164.654621 269.388702 
L 168.574409 265.93783 
L 170.272984 260.330161 
L 172.755516 256.447929 
L 174.127442 253.428415 
L 176.936623 249.89127 
L 179.680475 248.424649 
L 181.31372 247.0443 
L 185.364168 246.181582 
L 189.479945 247.0443 
L 194.37968 247.303115 
L 197.84216 245.922766 
L 197.90749 245.14632 
L 199.998043 243.162068 
L 201.17398 241.264088 
L 201.23931 239.711195 
L 202.676565 237.295584 
L 204.30981 236.087778 
L 205.224428 234.103526 
L 205.551077 232.033002 
L 208.033609 227.546868 
L 209.274875 223.578364 
L 210.189492 222.543102 
L 211.692078 219.178501 
L 214.893238 214.606094 
L 215.938515 213.743376 
L 218.159728 208.567066 
L 218.290388 207.100445 
L 222.014186 201.66532 
L 222.798144 200.198699 
L 222.144846 197.351729 
L 222.406165 192.089148 
L 222.863474 190.79507 
L 222.863474 187.171654 
L 221.556878 183.20315 
L 219.335665 180.787539 
L 218.617037 177.768025 
L 219.139675 175.611229 
L 222.667484 169.140842 
L 228.155188 161.980281 
L 229.592443 161.031291 
L 232.858933 156.976515 
L 234.884157 152.921739 
L 233.90421 149.470866 
L 234.1002 145.157275 
L 236.125424 137.306539 
L 237.1707 134.9772 
L 238.673286 132.820404 
L 241.939776 130.404793 
L 244.552968 128.8519 
L 246.120883 127.126464 
L 246.055553 126.263745 
L 244.03033 123.330503 
L 239.653233 122.381513 
L 235.537455 123.675591 
L 234.230859 125.228483 
L 231.748327 126.00493 
L 230.70305 125.832386 
L 230.180412 122.381513 
L 231.095029 120.052174 
L 233.838881 116.946388 
L 236.909381 110.993632 
L 238.281307 109.00938 
L 239.195924 106.076138 
L 238.803945 103.229168 
L 237.693339 100.727285 
L 232.662944 96.413694 
L 228.481837 93.307908 
L 226.587273 93.307908 
L 222.863474 92.704005 
L 218.290388 92.531462 
L 215.742526 91.841287 
L 213.521312 92.100103 
L 211.430759 94.429442 
L 210.90812 96.672509 
L 211.626748 100.295926 
L 212.476035 101.158644 
L 217.63709 104.005615 
L 220.250282 106.852585 
L 220.642261 109.440739 
L 221.883527 114.013146 
L 221.556878 115.393495 
L 222.014186 117.118932 
L 221.556878 119.016912 
L 219.466324 122.899144 
L 215.938515 124.969668 
L 213.782631 125.659843 
L 208.556247 129.024444 
L 207.445641 131.094967 
L 205.943055 135.322287 
L 204.897778 137.047723 
L 202.480576 138.514344 
L 201.696618 138.341801 
L 200.716671 139.635878 
L 198.234139 140.153509 
L 195.751606 141.447586 
L 190.917201 142.482848 
L 189.806594 142.051489 
L 185.756147 138.686888 
L 184.449551 138.082985 
L 184.057572 136.530092 
L 186.932083 133.941938 
L 186.736094 133.079219 
L 188.565328 130.922424 
L 190.459892 126.781376 
L 191.37451 125.918658 
L 194.641 119.103184 
L 195.751606 116.428757 
L 197.7115 113.840603 
L 199.148756 109.613283 
L 200.128703 107.542759 
L 203.329863 104.091886 
L 203.264533 103.574255 
L 205.681736 100.295926 
L 207.968279 95.637248 
L 208.556247 93.739267 
L 210.124163 91.237384 
L 210.712131 91.582472 
L 211.561418 90.115851 
L 211.888067 88.131599 
L 212.998674 86.233619 
L 215.546536 83.818008 
L 216.265164 82.52393 
L 216.069175 80.194591 
L 217.63709 79.073057 
L 215.219887 76.916262 
L 212.868014 76.916262 
L 211.822737 74.414379 
L 208.817567 72.688942 
L 207.902949 71.567408 
L 208.752237 69.238069 
L 210.058833 68.289079 
L 210.385482 66.391099 
L 212.410706 63.975488 
L 213.194663 61.73242 
L 214.17461 60.610887 
L 215.089228 57.850188 
L 217.57176 53.709141 
L 218.290388 51.983704 
L 219.531654 50.86217 
L 222.210176 45.081958 
L 222.928804 44.650599 
L 225.150017 41.199726 
L 227.240571 37.317494 
L 228.416507 36.023417 
L 229.004475 33.003903 
L 229.592443 32.4 
L 231.029699 35.333242 
L 233.316242 36.19596 
L 235.994764 38.5253 
L 238.346637 37.490038 
L 240.959829 37.231222 
L 239.065265 36.886135 
L 236.125424 38.09394 
L 232.401625 35.333242 
L 229.331124 33.952893 
L 228.547167 34.211708 
L 227.697879 32.745087 
L 226.783262 34.211708 
L 226.391283 36.972407 
L 224.562049 37.317494 
L 223.451442 38.352756 
L 222.863474 41.889901 
L 221.230229 42.838891 
L 220.77292 45.340774 
L 219.531654 48.274016 
L 218.551707 49.050462 
L 217.833079 51.034714 
L 216.134504 53.709141 
L 214.501259 54.916946 
L 212.606695 59.316809 
L 213.717302 62.595139 
L 216.722473 64.406847 
L 219.009016 66.304827 
L 221.164899 66.736186 
L 225.672655 69.151797 
L 231.487008 71.394865 
L 232.401625 70.100787 
L 234.16553 70.532147 
L 234.16553 70.532147 
" clip-path="url(#pca2321e01a)" style="fill: none; stroke: #000000; stroke-width: 3"/>
   </g>
  </g>
 </g>
 <defs>
  <clipPath id="pca2321e01a">
   <rect x="7.2" y="7.2" width="250.298068" height="554.4"/>
  </clipPath>
 </defs>
</svg>
