<?xml version="1.0" encoding="utf-8" standalone="no"?>
<!DOCTYPE svg PUBLIC "-//W3C//DTD SVG 1.1//EN"
  "http://www.w3.org/Graphics/SVG/1.1/DTD/svg11.dtd">
<svg xmlns:xlink="http://www.w3.org/1999/xlink" width="285.808274pt" height="568.8pt" viewBox="0 0 285.808274 568.8" xmlns="http://www.w3.org/2000/svg" version="1.1">
 <metadata>
  <rdf:RDF xmlns:dc="http://purl.org/dc/elements/1.1/" xmlns:cc="http://creativecommons.org/ns#" xmlns:rdf="http://www.w3.org/1999/02/22-rdf-syntax-ns#">
   <cc:Work>
    <dc:type rdf:resource="http://purl.org/dc/dcmitype/StillImage"/>
    <dc:date>2023-09-25T14:14:30.284230</dc:date>
    <dc:format>image/svg+xml</dc:format>
    <dc:creator>
     <cc:Agent>
      <dc:title>Matplotlib v3.6.2, https://matplotlib.org/</dc:title>
     </cc:Agent>
    </dc:creator>
   </cc:Work>
  </rdf:RDF>
 </metadata>
 <defs>
  <style type="text/css">*{stroke-linejoin: round; stroke-linecap: butt}</style>
 </defs>
 <g id="figure_1">
  <g id="patch_1">
   <path d="M 0 568.8 
L 285.808274 568.8 
L 285.808274 0 
L 0 0 
z
" style="fill: #ffffff"/>
  </g>
  <g id="axes_1">
   <g id="LineCollection_1">
    <path d="M 23.414001 535.096712 
L 20.946653 536.4 
L 19.607235 536.4 
L 19.53674 535.096712 
L 23.273009 533.141781 
L 23.061522 530.162837 
L 21.017148 529.790469 
L 22.356566 527.370078 
L 24.89441 524.949686 
L 26.374818 521.505283 
L 27.573244 521.319099 
L 30.111088 519.177983 
L 33.353888 515.361212 
L 33.706366 514.523384 
L 33.988349 510.054969 
L 34.904793 508.006945 
L 37.160654 507.076025 
L 37.86561 504.655634 
L 40.614941 503.53853 
L 36.103219 498.790839 
L 36.526193 496.835907 
L 36.032723 491.064204 
L 40.262462 489.9471 
L 42.870802 488.457628 
L 44.703689 486.223421 
L 46.043106 486.502697 
L 48.510454 485.013225 
L 50.061359 483.337569 
L 51.33028 480.824086 
L 52.176228 477.193498 
L 51.753254 474.773107 
L 54.573081 472.352715 
L 53.586141 471.049427 
L 54.150107 469.466864 
L 52.599202 468.722128 
L 54.925559 467.698116 
L 57.251915 464.532989 
L 56.264976 463.322793 
L 59.437281 461.181677 
L 61.270168 460.436941 
L 62.962064 458.109642 
L 62.962064 454.106686 
L 66.486846 448.893535 
L 66.416351 447.310972 
L 70.223116 442.377096 
L 73.042942 435.674474 
L 74.664342 434.55737 
L 74.664342 433.533358 
L 77.977638 431.29915 
L 77.272682 429.064943 
L 80.022012 424.968895 
L 79.599038 423.7587 
L 82.348369 420.407388 
L 86.014143 418.731733 
L 87.635543 415.566605 
L 87.635543 414.356409 
L 89.115952 410.63273 
L 91.442308 409.70181 
L 91.794787 407.467603 
L 91.230821 406.629775 
L 94.473622 403.278463 
L 94.8261 401.882083 
L 96.377004 400.951164 
L 97.504935 398.251496 
L 99.267326 397.413668 
L 99.619804 394.993277 
L 98.703361 390.711045 
L 98.773857 389.50085 
L 100.606744 389.407758 
L 100.818231 386.801182 
L 100.324761 385.125526 
L 102.369135 383.170595 
L 105.329952 383.636055 
L 104.977474 382.612043 
L 105.188961 379.446915 
L 104.484005 376.747248 
L 99.831291 372.744293 
L 99.408317 370.789361 
L 100.677239 368.927521 
L 101.452691 366.320946 
L 103.920039 364.272922 
L 107.021848 360.083783 
L 107.092344 358.315035 
L 111.745057 350.495308 
L 114.282901 347.981825 
L 113.859927 346.585445 
L 115.410831 344.071962 
L 117.525701 341.930846 
L 119.217597 341.093018 
L 121.825936 340.627558 
L 124.363779 341.465386 
L 127.042614 343.327226 
L 132.047806 344.723605 
L 133.810197 344.44433 
L 138.039937 341.372294 
L 138.885884 341.18611 
L 141.494224 338.020983 
L 142.69265 334.669671 
L 143.891076 333.645659 
L 143.750085 332.528556 
L 145.723963 330.108164 
L 148.684781 327.687772 
L 149.953702 327.59468 
L 151.857085 325.546657 
L 155.311372 323.033173 
L 155.099885 322.381529 
L 157.285251 316.051274 
L 157.355746 311.675951 
L 155.593355 308.417732 
L 155.099885 305.438788 
L 155.734346 300.691097 
L 156.862277 298.363798 
L 159.118138 295.477946 
L 163.488868 292.778279 
L 166.520181 290.357887 
L 167.718608 288.589139 
L 167.930095 282.817436 
L 169.128521 280.955597 
L 169.551495 277.697377 
L 170.397443 275.46317 
L 170.185956 274.159882 
L 171.595869 270.80857 
L 171.73686 269.039823 
L 173.217269 266.526339 
L 175.261643 264.571407 
L 176.530565 260.382268 
L 182.593191 254.610565 
L 183.721121 251.817806 
L 185.624504 248.931954 
L 185.483513 247.721758 
L 186.329461 245.115183 
L 187.668878 244.463539 
L 189.219783 241.20532 
L 191.264157 239.34348 
L 191.05267 238.319468 
L 192.533078 236.457628 
L 197.467774 233.292501 
L 200.851566 232.547765 
L 204.376348 232.640857 
L 207.830636 233.571777 
L 210.227488 233.478685 
L 212.060375 231.803029 
L 215.585158 229.94119 
L 216.995071 227.427706 
L 220.308367 223.331659 
L 220.378862 221.842187 
L 221.365801 220.818175 
L 222.916706 216.070484 
L 224.890584 214.115552 
L 226.723471 210.857333 
L 228.415367 206.295826 
L 232.504115 199.872479 
L 234.618985 197.917547 
L 235.605924 193.8215 
L 237.29782 191.121832 
L 240.117646 184.326117 
L 241.034089 179.578426 
L 240.822602 175.016919 
L 241.809542 171.013964 
L 241.527559 164.962985 
L 240.188141 163.845881 
L 238.42575 160.96003 
L 237.861785 158.446546 
L 238.42575 155.281419 
L 241.598055 151.371555 
L 243.924411 147.647876 
L 246.673742 143.831105 
L 251.114968 139.362689 
L 252.665872 138.431769 
L 254.639751 135.825194 
L 255.485699 130.984411 
L 254.921733 128.098559 
L 254.710246 124.467972 
L 255.697186 116.275877 
L 257.318586 112.272922 
L 260.98436 108.363059 
L 264.72063 106.128851 
L 265.989551 105.011747 
L 266.271534 102.498264 
L 265.84856 100.9157 
L 263.945177 98.960768 
L 261.971299 97.657481 
L 258.023542 97.471297 
L 252.877359 100.170964 
L 250.480507 100.264056 
L 249.564064 99.705504 
L 249.423072 98.122941 
L 250.198525 96.447285 
L 251.255959 96.261101 
L 255.697186 91.885778 
L 255.838177 90.675582 
L 257.953047 86.486443 
L 259.221968 85.090063 
L 260.138412 80.621648 
L 259.785934 78.8529 
L 256.472638 74.756853 
L 254.921733 71.964093 
L 248.436133 66.844034 
L 245.263829 65.540746 
L 242.584994 66.006206 
L 239.271698 65.354562 
L 236.240385 64.33055 
L 232.151637 65.168378 
L 230.036767 66.378574 
L 228.908837 69.729885 
L 230.177758 74.663761 
L 231.164698 75.967048 
L 233.209072 76.153232 
L 234.477993 77.45652 
L 236.733854 78.38744 
L 238.989715 81.180199 
L 239.342194 83.414407 
L 239.271698 86.951902 
L 240.258637 88.534466 
L 240.681611 94.306169 
L 240.329133 96.354193 
L 239.271698 98.309124 
L 236.874846 101.101884 
L 233.138576 103.336092 
L 231.305689 103.149908 
L 226.300497 106.408127 
L 223.128193 113.855486 
L 219.673906 117.020613 
L 218.545975 116.462061 
L 215.86714 117.858441 
L 211.707897 119.347913 
L 211.214427 118.975545 
L 207.689644 119.534097 
L 204.51734 118.696269 
L 202.613957 116.741337 
L 200.146609 115.43805 
L 200.710574 112.086738 
L 205.151801 106.966679 
L 206.420722 105.011747 
L 207.830636 100.729516 
L 208.465096 100.357148 
L 209.663523 97.564389 
L 210.720957 96.261101 
L 211.919384 91.885778 
L 213.11781 90.396306 
L 213.822766 88.25519 
L 217.700027 81.459475 
L 218.686967 80.342372 
L 219.673906 77.735796 
L 222.070758 74.756853 
L 222.987202 72.429553 
L 224.749593 71.033173 
L 225.595541 68.705874 
L 226.864463 67.216402 
L 229.331811 61.817067 
L 231.164698 59.303583 
L 233.914028 56.976284 
L 236.028898 50.366753 
L 232.715602 47.853269 
L 231.517176 44.408866 
L 230.812219 44.501958 
L 227.639915 42.826302 
L 225.948019 44.222682 
L 226.018515 41.988474 
L 228.838341 38.450979 
L 228.838341 37.240783 
L 230.107263 34.448024 
L 231.658167 32.4 
L 234.548489 32.958552 
L 235.605924 34.913484 
L 240.188141 37.985519 
L 242.937472 38.264795 
L 245.968785 39.381899 
L 247.590185 41.057554 
L 249.14109 41.33683 
L 251.467446 43.850314 
L 252.242899 45.52597 
L 253.793803 43.757222 
L 253.793803 43.757222 
" clip-path="url(#p82dccf7234)" style="fill: none; stroke: #000000; stroke-width: 3"/>
   </g>
  </g>
 </g>
 <defs>
  <clipPath id="p82dccf7234">
   <rect x="7.2" y="7.2" width="271.408274" height="554.4"/>
  </clipPath>
 </defs>
</svg>
