<?xml version="1.0" encoding="utf-8" standalone="no"?>
<!DOCTYPE svg PUBLIC "-//W3C//DTD SVG 1.1//EN"
  "http://www.w3.org/Graphics/SVG/1.1/DTD/svg11.dtd">
<svg xmlns:xlink="http://www.w3.org/1999/xlink" width="285.892692pt" height="568.8pt" viewBox="0 0 285.892692 568.8" xmlns="http://www.w3.org/2000/svg" version="1.1">
 <metadata>
  <rdf:RDF xmlns:dc="http://purl.org/dc/elements/1.1/" xmlns:cc="http://creativecommons.org/ns#" xmlns:rdf="http://www.w3.org/1999/02/22-rdf-syntax-ns#">
   <cc:Work>
    <dc:type rdf:resource="http://purl.org/dc/dcmitype/StillImage"/>
    <dc:date>2023-09-25T14:14:29.807389</dc:date>
    <dc:format>image/svg+xml</dc:format>
    <dc:creator>
     <cc:Agent>
      <dc:title>Matplotlib v3.6.2, https://matplotlib.org/</dc:title>
     </cc:Agent>
    </dc:creator>
   </cc:Work>
  </rdf:RDF>
 </metadata>
 <defs>
  <style type="text/css">*{stroke-linejoin: round; stroke-linecap: butt}</style>
 </defs>
 <g id="figure_1">
  <g id="patch_1">
   <path d="M -0 568.8 
L 285.892692 568.8 
L 285.892692 0 
L -0 0 
z
" style="fill: #ffffff"/>
  </g>
  <g id="axes_1">
   <g id="LineCollection_1">
    <path d="M 26.227929 536.4 
L 23.608141 535.125434 
L 21.402005 534.761272 
L 19.540577 532.940462 
L 20.781529 533.031503 
L 23.470258 531.392775 
L 24.021792 525.293064 
L 25.193802 524.65578 
L 26.29687 521.196243 
L 28.640891 517.463584 
L 29.881842 516.64422 
L 29.606075 515.096532 
L 30.915969 513.730925 
L 33.053164 510.453468 
L 34.776708 508.723699 
L 35.466126 505.719364 
L 38.982156 499.801734 
L 39.051098 497.889884 
L 39.809457 495.431792 
L 42.291361 491.243931 
L 42.015594 489.787283 
L 42.705012 487.966474 
L 45.255857 486.236705 
L 47.393052 481.957803 
L 52.287918 475.858092 
L 51.253791 474.765607 
L 53.322044 471.579191 
L 54.838763 470.941908 
L 56.424424 466.389884 
L 58.423735 464.113873 
L 58.423735 463.385549 
L 62.008707 459.743931 
L 61.73294 458.287283 
L 63.525426 455.465029 
L 64.559553 452.551734 
L 63.939077 451.186127 
L 64.973204 450.184682 
L 66.076272 447.453468 
L 67.799816 446.087861 
L 68.35135 444.813295 
L 71.315846 442.719364 
L 70.626429 441.80896 
L 71.109021 438.986705 
L 72.901507 436.710694 
L 73.453041 434.161561 
L 76.417537 429.791618 
L 77.934256 428.881214 
L 77.934256 427.788728 
L 80.760869 424.875434 
L 80.278277 423.509827 
L 82.208646 419.868208 
L 82.967006 416.681792 
L 85.379968 412.767052 
L 85.86256 409.762717 
L 88.20658 406.121098 
L 89.654357 405.028613 
L 90.13695 403.025723 
L 91.102134 402.57052 
L 93.997689 397.836416 
L 95.790175 395.742486 
L 96.548534 393.466474 
L 97.789486 391.918786 
L 98.892555 392.100867 
L 100.478215 390.917341 
L 101.305516 389.460694 
L 101.029749 387.275723 
L 100.202448 388.004046 
L 99.719856 384.544509 
L 101.029749 381.358092 
L 102.822235 381.813295 
L 104.063187 380.538728 
L 102.960119 377.079191 
L 100.616099 376.350867 
L 98.272079 373.710694 
L 97.92737 370.97948 
L 99.030438 369.249711 
L 101.098691 367.884104 
L 103.649537 364.606647 
L 105.097314 361.784393 
L 106.062499 358.689017 
L 107.234509 356.868208 
L 108.268635 353.954913 
L 109.164878 352.953468 
L 112.129374 347.49104 
L 116.334822 343.576301 
L 121.160746 344.031503 
L 121.712281 344.941908 
L 124.538893 345.761272 
L 126.676088 347.673121 
L 129.295875 347.673121 
L 134.328624 345.761272 
L 137.706771 342.301734 
L 139.085607 339.47948 
L 139.637141 336.384104 
L 144.394123 331.467919 
L 145.359308 331.285838 
L 151.357242 327.189017 
L 152.184543 326.096532 
L 151.839834 324.366763 
L 154.528563 319.450578 
L 154.942214 313.89711 
L 153.701262 310.801734 
L 152.322427 308.434682 
L 153.080786 302.699133 
L 157.837768 297.145665 
L 158.802953 297.054624 
L 162.112158 295.324855 
L 164.249353 293.777168 
L 165.283479 291.228035 
L 165.076654 289.771387 
L 165.283479 284.30896 
L 165.007712 282.39711 
L 166.731257 278.48237 
L 166.317606 277.845087 
L 168.316917 273.657225 
L 169.075277 271.199133 
L 170.316229 269.105202 
L 171.281413 266.373988 
L 173.349666 264.462139 
L 174.797444 262.459249 
L 178.382416 259.728035 
L 181.484795 255.084971 
L 182.794689 249.531503 
L 183.897757 247.07341 
L 188.172147 241.428902 
L 189.895691 239.972254 
L 190.378284 238.424566 
L 191.619236 237.878324 
L 195.066324 237.514162 
L 196.238334 236.603757 
L 201.1332 237.423121 
L 206.303833 237.969364 
L 209.544096 236.785838 
L 211.888116 234.236705 
L 214.301078 230.413006 
L 216.920865 225.31474 
L 220.23007 218.213584 
L 221.746789 216.756936 
L 222.57409 214.298844 
L 224.435518 210.839306 
L 228.640966 203.920231 
L 230.019802 200.460694 
L 232.984298 196.363873 
L 236.293503 189.262717 
L 236.086677 188.443353 
L 237.051862 184.437572 
L 236.362445 180.795954 
L 237.189746 175.970809 
L 236.913979 173.330636 
L 236.086677 170.508382 
L 233.46689 165.774277 
L 233.260065 163.225145 
L 234.501017 160.220809 
L 239.947417 152.118208 
L 241.877786 148.203468 
L 244.635457 145.290173 
L 248.358313 141.830636 
L 249.80609 138.280058 
L 249.530323 132.089306 
L 250.564449 126.9 
L 250.495507 124.441908 
L 250.9781 121.619653 
L 252.287994 118.97948 
L 254.356247 116.430347 
L 258.354869 113.881214 
L 260.285239 112.242486 
L 260.905715 107.872543 
L 260.492064 106.962139 
L 257.044976 104.868208 
L 255.114606 104.413006 
L 252.563761 105.23237 
L 250.21974 107.508382 
L 249.461381 107.508382 
L 246.979477 109.23815 
L 244.842282 107.963584 
L 245.462758 104.959249 
L 248.013604 100.771387 
L 252.770586 95.217919 
L 254.356247 91.849422 
L 254.907781 89.48237 
L 254.907781 86.478035 
L 253.32212 82.927457 
L 250.288682 79.832081 
L 247.737837 78.102312 
L 249.323497 72.730925 
L 250.840216 70.819075 
L 250.702333 70.090751 
L 252.012226 67.632659 
L 254.149421 64.628324 
L 255.66614 60.986705 
L 257.665452 58.07341 
L 251.322809 54.340751 
L 249.323497 53.97659 
L 250.633391 53.066185 
L 252.701644 54.795954 
L 255.597198 55.97948 
L 257.113917 57.071965 
L 258.906403 54.06763 
L 262.146667 49.879769 
L 264.973279 45.145665 
L 266.352115 41.048844 
L 265.731639 39.319075 
L 264.490687 38.135549 
L 260.698889 35.950578 
L 259.044287 35.404335 
L 256.010849 33.310405 
L 255.66614 32.4 
L 257.458626 33.128324 
L 260.974657 35.586416 
L 261.11254 36.496821 
L 264.283862 37.953468 
L 264.835396 40.775723 
L 264.008094 42.869653 
L 262.353492 44.14422 
L 260.767831 48.15 
L 257.734393 52.337861 
L 256.83815 55.888439 
L 254.632014 54.978035 
L 252.356935 52.975145 
L 251.529634 51.518497 
L 249.668206 51.154335 
L 249.530323 53.521387 
L 249.530323 53.521387 
" clip-path="url(#pd800200abd)" style="fill: none; stroke: #000000; stroke-width: 3"/>
   </g>
  </g>
 </g>
 <defs>
  <clipPath id="pd800200abd">
   <rect x="7.2" y="7.2" width="271.492692" height="554.4"/>
  </clipPath>
 </defs>
</svg>
