<?xml version="1.0" encoding="utf-8" standalone="no"?>
<!DOCTYPE svg PUBLIC "-//W3C//DTD SVG 1.1//EN"
  "http://www.w3.org/Graphics/SVG/1.1/DTD/svg11.dtd">
<svg xmlns:xlink="http://www.w3.org/1999/xlink" width="297.318618pt" height="568.8pt" viewBox="0 0 297.318618 568.8" xmlns="http://www.w3.org/2000/svg" version="1.1">
 <metadata>
  <rdf:RDF xmlns:dc="http://purl.org/dc/elements/1.1/" xmlns:cc="http://creativecommons.org/ns#" xmlns:rdf="http://www.w3.org/1999/02/22-rdf-syntax-ns#">
   <cc:Work>
    <dc:type rdf:resource="http://purl.org/dc/dcmitype/StillImage"/>
    <dc:date>2023-09-25T14:14:29.741659</dc:date>
    <dc:format>image/svg+xml</dc:format>
    <dc:creator>
     <cc:Agent>
      <dc:title>Matplotlib v3.6.2, https://matplotlib.org/</dc:title>
     </cc:Agent>
    </dc:creator>
   </cc:Work>
  </rdf:RDF>
 </metadata>
 <defs>
  <style type="text/css">*{stroke-linejoin: round; stroke-linecap: butt}</style>
 </defs>
 <g id="figure_1">
  <g id="patch_1">
   <path d="M 0 568.8 
L 297.318618 568.8 
L 297.318618 0 
L 0 0 
z
" style="fill: #ffffff"/>
  </g>
  <g id="axes_1">
   <g id="LineCollection_1">
    <path d="M 272.674662 32.4 
L 272.039951 32.679379 
L 277.258681 35.473171 
L 275.425073 37.987583 
L 274.296699 38.360089 
L 272.604138 43.48204 
L 271.405241 44.50643 
L 270.982101 47.672727 
L 270.065297 49.535255 
L 268.020119 50.466519 
L 267.103315 51.584035 
L 266.750698 54.284701 
L 264.917091 54.470953 
L 259.063651 52.422173 
L 255.678529 52.701552 
L 252.434454 51.770288 
L 249.966135 51.770288 
L 249.119855 51.21153 
L 246.29892 51.677162 
L 245.241069 55.215965 
L 245.734733 59.034146 
L 247.497817 61.362306 
L 252.15236 65.087361 
L 253.703874 65.087361 
L 255.325912 66.111752 
L 256.172192 68.253659 
L 256.031146 72.164967 
L 257.018473 74.772506 
L 258.21737 79.521951 
L 256.877426 82.222616 
L 254.268061 85.854545 
L 251.30608 87.717073 
L 247.850434 89.113969 
L 245.241069 90.88337 
L 241.362284 94.794678 
L 241.29176 96.56408 
L 239.105536 100.475388 
L 236.989835 102.244789 
L 231.347965 104.014191 
L 229.443834 104.852328 
L 225.635572 107.459867 
L 223.3083 110.812417 
L 222.391496 112.861197 
L 220.134748 115.934368 
L 219.570561 117.890022 
L 217.948524 120.218182 
L 216.961197 124.408869 
L 216.114916 126.178271 
L 214.281308 127.761419 
L 213.576075 129.251441 
L 206.594261 134.373392 
L 205.53641 135.863415 
L 205.042746 138.098448 
L 205.74798 141.91663 
L 205.395363 145.734812 
L 204.266989 148.901109 
L 200.670297 151.229268 
L 192.771679 154.395565 
L 189.527604 156.909978 
L 185.789865 162.404435 
L 183.815211 163.987583 
L 182.686837 166.12949 
L 181.840556 169.109534 
L 181.558463 174.138359 
L 182.475267 177.304656 
L 182.75736 180.284701 
L 184.379398 184.196009 
L 185.296202 188.479823 
L 182.33422 195.464302 
L 181.135323 196.954324 
L 177.820724 199.003104 
L 175.140836 203.007539 
L 170.62734 206.732594 
L 169.005302 210.830155 
L 168.582162 214.089579 
L 169.075826 215.020843 
L 168.864256 220.515299 
L 167.171695 224.147228 
L 165.40861 226.196009 
L 156.170048 234.67051 
L 154.054347 237.836807 
L 151.444982 239.978714 
L 150.739749 241.189357 
L 146.719916 246.125055 
L 140.090719 251.805765 
L 135.647747 257.486475 
L 135.436177 260.094013 
L 135.647747 264.750333 
L 136.282457 267.730377 
L 136.776121 275.832373 
L 135.71827 278.346785 
L 132.967858 281.606208 
L 126.620755 284.306874 
L 122.600923 287.75255 
L 121.331502 290.173836 
L 120.203128 290.825721 
L 119.286324 295.016408 
L 118.36952 296.692683 
L 117.73481 300.976497 
L 116.747483 304.887805 
L 114.913875 309.078492 
L 112.445557 311.499778 
L 110.682472 314.29357 
L 107.649967 316.34235 
L 105.534266 318.391131 
L 102.219668 322.395565 
L 100.38606 323.513082 
L 98.834546 326.586253 
L 97.494602 327.983149 
L 94.885237 331.894457 
L 94.814713 335.805765 
L 96.789368 340.368958 
L 99.328209 343.628381 
L 101.161817 345.025277 
L 102.783855 347.353437 
L 103.700658 349.495344 
L 102.713331 350.147228 
L 101.091294 354.337916 
L 100.879723 356.479823 
L 98.622975 360.484257 
L 96.507274 363.278049 
L 96.436751 365.699335 
L 94.32105 366.537472 
L 95.237854 368.306874 
L 82.755216 387.490909 
L 82.120506 389.632816 
L 80.639515 390.936585 
L 78.453291 398.014191 
L 75.279739 403.6949 
L 73.305084 405.184922 
L 72.106187 407.792461 
L 70.766243 408.258093 
L 70.90729 409.282483 
L 69.285252 410.213747 
L 69.637869 413.566297 
L 68.368448 417.291353 
L 67.451644 417.1051 
L 67.310598 418.688248 
L 65.547513 419.992018 
L 64.489663 423.8102 
L 62.656055 425.393348 
L 59.20041 430.794678 
L 57.155232 436.661641 
L 57.578372 439.455432 
L 52.853306 446.439911 
L 52.218596 448.674945 
L 51.513362 449.04745 
L 50.878651 453.051885 
L 50.032371 451.841242 
L 46.647249 451.934368 
L 46.858819 454.72816 
L 45.166258 455.659424 
L 42.90951 454.821286 
L 43.050557 462.178271 
L 42.556893 465.437694 
L 41.075903 467.207095 
L 40.934856 468.603991 
L 38.748631 474.56408 
L 35.716126 476.985366 
L 33.811995 479.406652 
L 32.401528 484.621729 
L 31.273154 486.484257 
L 29.862686 487.229268 
L 29.086929 491.04745 
L 28.311172 492.816851 
L 25.842854 493.841242 
L 24.855527 498.963193 
L 23.162966 499.428825 
L 22.528255 501.198226 
L 20.483077 502.688248 
L 20.059937 504.643902 
L 20.976741 505.854545 
L 22.880872 506.878936 
L 26.689134 507.251441 
L 28.522742 508.182705 
L 28.945882 509.113969 
L 31.4142 511.349002 
L 32.542574 511.162749 
L 35.504556 515.074058 
L 37.972874 514.887805 
L 41.922183 517.960976 
L 43.262127 520.94102 
L 44.743118 522.803548 
L 50.314465 523.641685 
L 52.007025 523.548559 
L 54.686914 525.969845 
L 56.943662 532.395565 
L 57.507849 533.140576 
L 60.117213 530.99867 
L 61.950821 530.626164 
L 63.572859 533.326829 
L 62.797102 536.4 
L 60.46983 534.07184 
L 56.802615 534.444346 
L 55.462671 535.096231 
L 53.699586 532.395565 
L 50.949175 530.99867 
L 48.903997 531.557428 
L 47.7051 531.091796 
L 47.987193 527.087361 
L 47.987193 527.087361 
" clip-path="url(#p24dfe7cc43)" style="fill: none; stroke: #000000; stroke-width: 3"/>
   </g>
  </g>
 </g>
 <defs>
  <clipPath id="p24dfe7cc43">
   <rect x="7.2" y="7.2" width="282.918618" height="554.4"/>
  </clipPath>
 </defs>
</svg>
