<?xml version="1.0" encoding="utf-8" standalone="no"?>
<!DOCTYPE svg PUBLIC "-//W3C//DTD SVG 1.1//EN"
  "http://www.w3.org/Graphics/SVG/1.1/DTD/svg11.dtd">
<svg xmlns:xlink="http://www.w3.org/1999/xlink" width="284.305321pt" height="568.8pt" viewBox="0 0 284.305321 568.8" xmlns="http://www.w3.org/2000/svg" version="1.1">
 <metadata>
  <rdf:RDF xmlns:dc="http://purl.org/dc/elements/1.1/" xmlns:cc="http://creativecommons.org/ns#" xmlns:rdf="http://www.w3.org/1999/02/22-rdf-syntax-ns#">
   <cc:Work>
    <dc:type rdf:resource="http://purl.org/dc/dcmitype/StillImage"/>
    <dc:date>2023-09-25T14:14:29.343652</dc:date>
    <dc:format>image/svg+xml</dc:format>
    <dc:creator>
     <cc:Agent>
      <dc:title>Matplotlib v3.6.2, https://matplotlib.org/</dc:title>
     </cc:Agent>
    </dc:creator>
   </cc:Work>
  </rdf:RDF>
 </metadata>
 <defs>
  <style type="text/css">*{stroke-linejoin: round; stroke-linecap: butt}</style>
 </defs>
 <g id="figure_1">
  <g id="patch_1">
   <path d="M 0 568.8 
L 284.305321 568.8 
L 284.305321 0 
L 0 0 
z
" style="fill: #ffffff"/>
  </g>
  <g id="axes_1">
   <g id="LineCollection_1">
    <path d="M 27.647373 536.4 
L 24.27957 535.310859 
L 20.361922 532.224959 
L 19.468424 532.76953 
L 21.461613 528.140681 
L 21.942728 526.143922 
L 25.104338 521.696596 
L 26.685143 517.975365 
L 28.197218 516.250891 
L 30.052946 512.438898 
L 31.633751 510.895948 
L 33.55821 506.720908 
L 34.58917 505.722528 
L 36.307437 500.821394 
L 38.438087 497.281686 
L 39.675239 493.288169 
L 38.781741 491.835981 
L 40.568738 490.928363 
L 41.049852 489.385413 
L 44.555116 487.751702 
L 45.92973 486.027229 
L 48.404034 481.579903 
L 47.510535 480.309238 
L 49.02261 478.31248 
L 52.252951 476.043436 
L 51.634375 473.592869 
L 56.376791 466.150405 
L 58.576172 463.246029 
L 58.919825 461.521556 
L 60.844284 458.61718 
L 61.119207 456.075851 
L 63.593511 452.808428 
L 65.724161 448.542626 
L 66.136545 447.090438 
L 70.466577 442.280065 
L 70.191654 441.463209 
L 71.497537 440.101783 
L 73.009612 437.469692 
L 73.559457 434.474554 
L 76.171222 430.11799 
L 75.690108 428.03047 
L 76.92726 423.583144 
L 78.989179 422.766288 
L 80.707446 420.951053 
L 81.669675 418.591248 
L 84.762555 415.233063 
L 86.343361 412.600972 
L 86.480822 411.511831 
L 88.474011 408.788979 
L 89.092587 405.430794 
L 89.779894 404.069368 
L 92.52912 401.437277 
L 92.941504 399.077472 
L 93.972464 399.258995 
L 97.340267 396.445381 
L 95.896923 393.450243 
L 96.58423 391.907293 
L 98.783611 389.365964 
L 98.508688 387.641491 
L 102.288875 383.738736 
L 102.701259 382.37731 
L 102.632528 378.111507 
L 98.852342 376.023987 
L 96.65296 371.122853 
L 96.927883 369.670665 
L 98.302496 368.127715 
L 99.883302 367.401621 
L 101.73903 365.132577 
L 103.526027 361.68363 
L 104.419525 358.325446 
L 106.000331 357.327066 
L 108.543365 350.610697 
L 110.399093 347.615559 
L 113.766896 344.348136 
L 116.791045 343.168233 
L 120.914885 343.077472 
L 124.626341 345.346515 
L 126.5508 346.072609 
L 129.71241 346.072609 
L 132.80529 344.711183 
L 134.935941 342.895948 
L 137.753898 339.719287 
L 140.365663 333.547488 
L 142.15266 331.732253 
L 145.795386 328.737115 
L 148.956996 326.831118 
L 151.087647 323.745219 
L 152.943375 319.479417 
L 153.287028 317.028849 
L 152.599722 313.94295 
L 151.637492 312.309238 
L 150.812724 309.223339 
L 150.675263 306.318963 
L 151.843684 303.868395 
L 154.661641 299.693355 
L 157.960713 295.972123 
L 160.435017 294.79222 
L 163.115513 292.16013 
L 164.352665 289.891086 
L 164.146473 282.630146 
L 164.696319 282.630146 
L 166.277124 277.093679 
L 167.92666 274.55235 
L 168.407774 271.557212 
L 171.844308 264.023987 
L 176.517993 259.4859 
L 180.023257 254.221718 
L 182.291369 248.866775 
L 186.483939 242.059643 
L 188.339667 239.881361 
L 190.195395 238.610697 
L 193.975582 236.976985 
L 196.999731 236.250891 
L 202.154531 237.158509 
L 204.697565 237.158509 
L 207.584253 236.432415 
L 210.608403 234.61718 
L 211.845555 231.803566 
L 213.013976 230.351378 
L 214.182397 227.537763 
L 216.175587 224.451864 
L 217.069085 221.456726 
L 219.131005 218.370827 
L 221.467848 213.469692 
L 224.079613 209.476175 
L 226.278994 204.938088 
L 228.203453 202.48752 
L 229.028221 200.490762 
L 231.502525 196.588006 
L 234.664135 190.143922 
L 235.420173 187.42107 
L 235.488903 182.701459 
L 235.007789 180.795462 
L 235.763826 174.442139 
L 234.732866 170.267099 
L 233.564445 169.177958 
L 231.846178 165.910535 
L 232.533485 162.461588 
L 236.244941 155.835981 
L 239.750205 151.751702 
L 240.437511 150.11799 
L 243.530391 146.48752 
L 244.49262 144.944571 
L 247.104386 142.31248 
L 248.960114 139.498865 
L 248.822652 137.229822 
L 247.929154 131.96564 
L 248.61646 129.242788 
L 249.235036 124.795462 
L 250.334727 121.618801 
L 252.259186 118.442139 
L 255.077143 115.447002 
L 258.857329 113.177958 
L 259.888289 111.907293 
L 260.094481 109.093679 
L 258.651137 106.824635 
L 255.695719 106.189303 
L 251.70934 106.643112 
L 249.372498 108.186062 
L 247.51677 108.63987 
L 245.729772 110.001297 
L 244.217698 109.63825 
L 242.293239 108.276823 
L 243.530391 105.190924 
L 245.042466 103.738736 
L 249.097575 98.74684 
L 251.159495 95.842464 
L 253.70253 90.305997 
L 254.183644 87.855429 
L 253.358876 85.3141 
L 250.265996 81.865154 
L 245.867234 78.688493 
L 243.874044 77.690113 
L 238.169399 76.147164 
L 233.839367 75.784117 
L 229.509336 73.696596 
L 227.8598 73.787358 
L 225.660418 74.785737 
L 223.873421 76.782496 
L 223.323576 80.412966 
L 223.667229 82.68201 
L 226.004072 85.586386 
L 227.8598 86.584765 
L 230.127911 87.129335 
L 232.602215 88.309238 
L 233.701906 92.484279 
L 233.770637 96.205511 
L 235.213981 99.654457 
L 234.457943 103.920259 
L 231.639986 107.823015 
L 227.584877 110.999676 
L 226.622648 110.908914 
L 222.155154 112.724149 
L 220.161965 114.720908 
L 218.856082 116.808428 
L 217.5502 120.620421 
L 216.656701 121.981848 
L 211.501901 124.523177 
L 207.652984 124.976985 
L 205.865987 126.701459 
L 203.460414 127.518314 
L 200.161342 126.79222 
L 196.724808 124.16013 
L 195.144003 122.526418 
L 196.312424 120.620421 
L 196.174963 119.077472 
L 198.305614 116.536143 
L 198.855459 114.993193 
L 200.436264 113.087196 
L 201.467224 110.455105 
L 204.07899 106.370827 
L 204.697565 104.283306 
L 206.896947 100.108266 
L 208.409021 98.202269 
L 210.127288 94.11799 
L 213.770013 88.581524 
L 213.976205 87.764668 
L 217.275277 82.228201 
L 218.718621 80.322204 
L 224.973112 68.432415 
L 226.691378 67.16175 
L 229.096952 64.166613 
L 228.409645 62.260616 
L 230.334103 58.993193 
L 232.258562 57.81329 
L 232.739677 54.636629 
L 234.801597 52.0953 
L 235.420173 48.283306 
L 235.970018 47.920259 
L 237.757015 49.100162 
L 239.544013 48.827877 
L 242.568162 51.369206 
L 243.186738 52.549109 
L 245.798503 52.63987 
L 247.379308 53.547488 
L 250.197266 52.912156 
L 249.784882 53.910535 
L 253.015223 56.179579 
L 253.427607 57.177958 
L 256.520487 57.26872 
L 257.620177 56.088817 
L 258.994791 52.367585 
L 262.637516 47.375689 
L 264.424513 44.199028 
L 264.836897 42.293031 
L 263.668476 39.842464 
L 259.407175 38.208752 
L 255.145874 35.939708 
L 253.496338 35.758185 
L 253.290146 32.4 
L 254.527298 34.941329 
L 257.688908 36.756564 
L 259.95702 38.753323 
L 261.537825 39.207131 
L 263.256092 40.568558 
L 261.675287 44.83436 
L 258.857329 48.918639 
L 255.764449 54.727391 
L 254.80222 55.090438 
L 254.046183 58.448622 
L 253.221415 58.720908 
L 250.67838 56.996434 
L 249.716151 55.362723 
L 248.61646 54.908914 
L 248.61646 54.908914 
" clip-path="url(#pcbd44289ba)" style="fill: none; stroke: #000000; stroke-width: 3"/>
   </g>
  </g>
 </g>
 <defs>
  <clipPath id="pcbd44289ba">
   <rect x="7.2" y="7.2" width="269.905321" height="554.4"/>
  </clipPath>
 </defs>
</svg>
