<?xml version="1.0" encoding="utf-8" standalone="no"?>
<!DOCTYPE svg PUBLIC "-//W3C//DTD SVG 1.1//EN"
  "http://www.w3.org/Graphics/SVG/1.1/DTD/svg11.dtd">
<svg xmlns:xlink="http://www.w3.org/1999/xlink" width="299.142905pt" height="568.8pt" viewBox="0 0 299.142905 568.8" xmlns="http://www.w3.org/2000/svg" version="1.1">
 <metadata>
  <rdf:RDF xmlns:dc="http://purl.org/dc/elements/1.1/" xmlns:cc="http://creativecommons.org/ns#" xmlns:rdf="http://www.w3.org/1999/02/22-rdf-syntax-ns#">
   <cc:Work>
    <dc:type rdf:resource="http://purl.org/dc/dcmitype/StillImage"/>
    <dc:date>2023-09-25T14:14:29.020353</dc:date>
    <dc:format>image/svg+xml</dc:format>
    <dc:creator>
     <cc:Agent>
      <dc:title>Matplotlib v3.6.2, https://matplotlib.org/</dc:title>
     </cc:Agent>
    </dc:creator>
   </cc:Work>
  </rdf:RDF>
 </metadata>
 <defs>
  <style type="text/css">*{stroke-linejoin: round; stroke-linecap: butt}</style>
 </defs>
 <g id="figure_1">
  <g id="patch_1">
   <path d="M 0 568.8 
L 299.142905 568.8 
L 299.142905 0 
L 0 0 
z
" style="fill: #ffffff"/>
  </g>
  <g id="axes_1">
   <g id="LineCollection_1">
    <path d="M 274.755326 32.4 
L 275.250543 33.707878 
L 277.585139 35.949954 
L 279.000046 36.323633 
L 278.717065 37.444671 
L 277.160667 38.472289 
L 275.109052 41.274884 
L 273.906382 44.824838 
L 272.703711 45.572196 
L 272.491475 47.066914 
L 269.661662 52.672104 
L 269.520171 54.91418 
L 265.063215 55.0076 
L 259.049861 53.606302 
L 256.927501 53.606302 
L 252.965762 52.111585 
L 251.126383 53.139203 
L 248.579551 56.035218 
L 247.730607 58.650973 
L 248.013589 60.23911 
L 249.35775 62.200927 
L 252.329054 64.349583 
L 256.078557 65.75088 
L 258.483898 68.179796 
L 258.90837 73.504727 
L 260.394022 80.511214 
L 259.120606 86.116404 
L 258.130172 87.704541 
L 257.068992 87.984801 
L 254.875886 89.946617 
L 252.399799 91.254495 
L 249.782222 91.254495 
L 245.537502 93.309731 
L 243.627378 95.364968 
L 242.07098 97.980723 
L 242.000235 100.596478 
L 240.86831 102.371455 
L 237.82626 104.613531 
L 235.350173 104.98721 
L 229.619801 107.696386 
L 226.719242 110.5924 
L 222.403777 118.065987 
L 221.271851 119.467285 
L 219.92769 123.017238 
L 219.149491 123.858017 
L 217.451603 128.342169 
L 214.197318 132.078962 
L 212.923902 132.546061 
L 208.183964 136.936793 
L 207.33502 141.047266 
L 208.042473 145.437998 
L 207.264275 148.053753 
L 204.858933 151.977386 
L 195.662039 156.181279 
L 193.539679 157.675996 
L 186.3944 165.710102 
L 184.201295 171.875811 
L 183.918314 174.678406 
L 184.342786 177.76126 
L 185.899183 184.487488 
L 187.45558 187.383503 
L 187.31409 189.999259 
L 185.262475 195.230769 
L 182.361916 199.341242 
L 178.400177 203.078035 
L 176.490053 204.199073 
L 174.155457 206.534569 
L 171.254898 210.738462 
L 170.830426 215.689713 
L 171.113408 222.042261 
L 170.264464 223.443559 
L 169.981482 226.059314 
L 169.41552 225.685635 
L 168.000613 227.927711 
L 162.411731 232.692122 
L 161.916514 233.81316 
L 158.449992 236.335496 
L 154.771235 240.259129 
L 153.7808 242.034106 
L 151.375459 244.463021 
L 150.102043 246.331418 
L 141.04664 254.085264 
L 139.06577 255.299722 
L 137.792354 257.168119 
L 137.014155 261.185171 
L 138.429062 271.928452 
L 138.570553 277.813902 
L 137.438627 280.523077 
L 134.113597 283.886191 
L 131.63751 284.54013 
L 129.51515 285.661168 
L 125.624156 289.491381 
L 123.855523 293.508434 
L 122.794343 293.695273 
L 121.025709 296.964968 
L 119.398567 302.663577 
L 118.974095 306.58721 
L 117.276206 310.043744 
L 113.951176 314.714736 
L 111.687325 317.143652 
L 109.423474 318.451529 
L 107.51335 320.880445 
L 106.169189 321.721223 
L 103.26863 325.364597 
L 102.065959 326.111956 
L 99.1654 330.502688 
L 97.821239 331.810565 
L 96.406332 334.89342 
L 96.406332 337.789435 
L 97.396767 341.339388 
L 98.740928 344.141983 
L 103.480866 348.345876 
L 105.673971 351.52215 
L 105.815462 352.362929 
L 103.480866 356.099722 
L 102.561176 356.099722 
L 101.924468 359.089157 
L 101.004779 359.649676 
L 100.651052 362.172011 
L 99.519127 364.133828 
L 98.670183 369.178499 
L 96.90155 370.206117 
L 96.052606 367.964041 
L 95.203661 368.15088 
L 94.637699 366.469323 
L 94.849935 369.925857 
L 95.345152 370.953475 
L 93.505773 373.84949 
L 91.949376 374.877108 
L 90.109997 380.669138 
L 88.5536 382.817794 
L 87.846146 386.180908 
L 86.289749 387.301946 
L 86.289749 388.236145 
L 84.804097 391.03874 
L 83.955153 391.505839 
L 81.903538 394.775533 
L 80.983849 397.111029 
L 78.861489 399.539944 
L 73.697079 407.013531 
L 73.697079 408.601668 
L 71.8577 411.777943 
L 70.442794 415.421316 
L 70.230558 417.102873 
L 68.67416 418.504171 
L 68.391179 421.026506 
L 61.953353 430.461909 
L 60.538447 430.929008 
L 59.335776 433.451344 
L 57.567142 438.869694 
L 55.586273 439.803892 
L 54.737329 441.39203 
L 55.02031 443.914365 
L 53.676149 443.353846 
L 52.261242 447.277479 
L 51.483043 448.305097 
L 50.987826 452.976089 
L 49.855901 453.723448 
L 49.289938 455.685264 
L 47.804286 456.619462 
L 47.167578 459.795737 
L 45.964907 461.944393 
L 44.55 462.224652 
L 43.630311 464.840408 
L 41.932423 467.269323 
L 40.093044 468.110102 
L 39.456336 469.23114 
L 40.517516 470.165338 
L 39.951554 472.220575 
L 40.446771 473.435032 
L 38.395156 473.808712 
L 36.555777 479.507322 
L 36.202051 481.469138 
L 35.211616 481.749398 
L 33.442983 484.738832 
L 30.330188 486.607229 
L 28.703045 490.344022 
L 27.71261 491.55848 
L 28.066337 492.772938 
L 26.297704 497.630769 
L 24.599816 498.471548 
L 24.52907 499.499166 
L 22.123729 503.516219 
L 20.142859 504.263577 
L 21.204039 505.571455 
L 24.246089 507.533272 
L 26.085468 507.626691 
L 34.574908 512.017424 
L 36.555777 514.726599 
L 37.970684 515.100278 
L 40.729752 517.996293 
L 44.196274 520.518628 
L 45.045218 522.387025 
L 46.53087 522.854124 
L 47.804286 524.255422 
L 49.502174 524.629101 
L 52.119751 527.338276 
L 53.95913 527.898795 
L 56.859689 531.07507 
L 57.850124 534.157924 
L 57.708633 535.372382 
L 60.113975 531.822428 
L 62.590061 532.569787 
L 62.236335 536.4 
L 60.538447 534.625023 
L 58.416086 533.690825 
L 56.293726 530.88823 
L 53.463913 528.739574 
L 51.766025 524.629101 
L 51.483043 525.936979 
L 50.068137 527.618536 
L 50.068137 527.618536 
" clip-path="url(#pb8e019fedc)" style="fill: none; stroke: #000000; stroke-width: 3"/>
   </g>
  </g>
 </g>
 <defs>
  <clipPath id="pb8e019fedc">
   <rect x="7.2" y="7.2" width="284.742905" height="554.4"/>
  </clipPath>
 </defs>
</svg>
