<?xml version="1.0" encoding="utf-8" standalone="no"?>
<!DOCTYPE svg PUBLIC "-//W3C//DTD SVG 1.1//EN"
  "http://www.w3.org/Graphics/SVG/1.1/DTD/svg11.dtd">
<svg xmlns:xlink="http://www.w3.org/1999/xlink" width="277.564239pt" height="568.8pt" viewBox="0 0 277.564239 568.8" xmlns="http://www.w3.org/2000/svg" version="1.1">
 <metadata>
  <rdf:RDF xmlns:dc="http://purl.org/dc/elements/1.1/" xmlns:cc="http://creativecommons.org/ns#" xmlns:rdf="http://www.w3.org/1999/02/22-rdf-syntax-ns#">
   <cc:Work>
    <dc:type rdf:resource="http://purl.org/dc/dcmitype/StillImage"/>
    <dc:date>2023-09-25T14:14:28.958637</dc:date>
    <dc:format>image/svg+xml</dc:format>
    <dc:creator>
     <cc:Agent>
      <dc:title>Matplotlib v3.6.2, https://matplotlib.org/</dc:title>
     </cc:Agent>
    </dc:creator>
   </cc:Work>
  </rdf:RDF>
 </metadata>
 <defs>
  <style type="text/css">*{stroke-linejoin: round; stroke-linecap: butt}</style>
 </defs>
 <g id="figure_1">
  <g id="patch_1">
   <path d="M 0 568.8 
L 277.564239 568.8 
L 277.564239 0 
L 0 0 
z
" style="fill: #ffffff"/>
  </g>
  <g id="axes_1">
   <g id="LineCollection_1">
    <path d="M 29.980544 536.4 
L 25.529882 535.947901 
L 23.407258 533.777826 
L 21.079219 533.325727 
L 19.162011 531.60775 
L 19.846728 530.884392 
L 20.394502 527.538859 
L 21.49005 527.17718 
L 21.695465 525.459203 
L 23.270315 521.751991 
L 25.529882 517.95436 
L 25.598353 516.055544 
L 29.02194 510.901615 
L 28.816524 508.46028 
L 29.43277 508.912379 
L 31.00762 505.838105 
L 32.719413 504.120129 
L 34.362734 503.93929 
L 34.910508 499.508719 
L 35.663697 498.062002 
L 37.512434 496.434446 
L 39.566586 495.439828 
L 39.908944 490.647578 
L 43.195587 486.940366 
L 42.9217 486.397847 
L 44.428078 483.594833 
L 44.154191 482.328956 
L 46.413759 478.893003 
L 47.166948 477.084607 
L 49.221099 474.462433 
L 49.494986 472.292357 
L 50.590534 469.941442 
L 51.001364 467.138428 
L 52.165384 466.957589 
L 56.547574 461.170721 
L 57.711594 458.548547 
L 62.504615 455.835953 
L 62.504615 453.756297 
L 64.216408 451.857481 
L 64.558766 447.60775 
L 65.654314 445.708934 
L 64.627238 445.075996 
L 66.612918 441.820883 
L 67.503051 442.182562 
L 68.735542 440.464586 
L 68.187768 438.927449 
L 69.899561 437.119053 
L 70.378863 437.842411 
L 68.872485 439.379548 
L 71.679826 434.225619 
L 75.377299 429.523789 
L 76.815206 425.997417 
L 77.842282 424.641119 
L 76.267432 422.651884 
L 77.910753 422.290205 
L 80.855038 418.492573 
L 81.060453 417.136276 
L 83.662378 414.694941 
L 86.675134 414.423681 
L 87.359852 412.796125 
L 87.976097 409.360172 
L 89.893306 406.647578 
L 90.030249 405.020022 
L 92.358288 401.493649 
L 92.906062 399.504413 
L 92.769118 397.424758 
L 95.028685 396.61098 
L 94.960214 393.988805 
L 98.109913 391.276211 
L 97.288252 387.388159 
L 98.246856 386.93606 
L 99.479348 383.952207 
L 99.136989 383.771367 
L 99.890178 379.340797 
L 99.136989 377.62282 
L 96.945894 375.724004 
L 94.617855 372.016792 
L 92.42676 370.750915 
L 92.015929 368.58084 
L 95.576459 366.591604 
L 97.014365 364.873628 
L 99.205461 359.629279 
L 100.711839 356.826265 
L 103.313764 350.406459 
L 105.91569 347.241765 
L 108.586087 344.529171 
L 111.393428 343.172874 
L 117.00811 345.16211 
L 121.458772 348.236383 
L 122.622792 347.422605 
L 125.293189 346.699247 
L 128.442888 344.167492 
L 130.633984 341.545318 
L 131.798003 339.013563 
L 132.962022 335.306351 
L 136.04325 332.322497 
L 138.234345 330.87578 
L 139.466837 330.694941 
L 143.57514 327.349408 
L 145.355405 324.817653 
L 146.793311 321.56254 
L 147.820387 318.126588 
L 148.162746 314.871475 
L 146.793311 311.797201 
L 145.903179 308.180409 
L 145.903179 304.563617 
L 146.72484 301.579763 
L 149.669124 298.686329 
L 152.202578 297.691712 
L 156.65324 294.527018 
L 158.22809 292.809042 
L 159.118222 288.740151 
L 158.570449 284.942519 
L 160.145298 277.075996 
L 161.720148 272.735845 
L 165.143735 266.496878 
L 170.553001 260.98127 
L 171.785492 260.167492 
L 174.318946 256.36986 
L 175.551437 252.843488 
L 176.646985 250.763832 
L 177.879476 246.9662 
L 180.755288 242.987729 
L 183.288742 240.727234 
L 186.164555 239.190097 
L 189.9305 237.65296 
L 191.710765 237.8338 
L 192.258539 238.828418 
L 198.557938 238.918837 
L 200.475146 238.647578 
L 204.241091 236.206243 
L 209.171055 228.33972 
L 209.718829 226.440904 
L 213.827133 219.568999 
L 216.155172 214.686329 
L 219.099456 210.346179 
L 220.400419 207.091066 
L 223.481647 202.389236 
L 224.851081 201.213778 
L 226.015101 198.501184 
L 226.152044 196.692788 
L 227.453007 194.703552 
L 228.890913 191.2676 
L 229.712574 186.927449 
L 229.438687 181.140581 
L 230.328819 177.342949 
L 230.260348 174.359096 
L 229.507159 171.917761 
L 227.726894 169.657266 
L 227.042176 166.402153 
L 228.480083 161.429064 
L 231.766726 156.275135 
L 234.847953 152.387083 
L 236.217388 150.126588 
L 239.777918 146.961895 
L 241.695126 144.791819 
L 243.269976 142.260065 
L 243.475391 133.760603 
L 243.201504 129.149193 
L 243.954693 125.984499 
L 243.680806 124.266523 
L 246.282732 119.474273 
L 250.664923 116.128741 
L 254.362396 114.772443 
L 255.526415 111.78859 
L 251.34964 107.17718 
L 248.268412 107.2676 
L 244.844826 109.437675 
L 241.558183 110.432293 
L 240.736522 111.51733 
L 239.161672 111.246071 
L 237.997653 108.895156 
L 238.134596 106.90592 
L 240.120276 103.831647 
L 244.091637 100.576534 
L 245.871902 97.86394 
L 247.720638 93.704629 
L 248.610771 89.816577 
L 248.268412 87.736921 
L 246.21426 85.205167 
L 240.941937 81.226695 
L 239.777918 79.508719 
L 237.312936 78.604521 
L 234.779482 78.423681 
L 232.246028 77.338644 
L 226.562874 76.976964 
L 223.413175 75.982347 
L 221.153608 76.072766 
L 219.373343 77.338644 
L 218.620154 79.508719 
L 218.346267 82.040474 
L 220.400419 86.471044 
L 226.836761 89.545318 
L 227.658422 90.720775 
L 228.274668 93.16211 
L 228.069252 94.699247 
L 230.191876 100.757374 
L 229.781046 105.549623 
L 228.206196 108.352637 
L 225.261912 111.336491 
L 223.20776 112.964047 
L 215.949757 115.224543 
L 214.032548 117.575457 
L 213.895605 119.022174 
L 211.978396 123.000646 
L 207.801621 124.266523 
L 207.527734 125.441981 
L 203.967204 126.798278 
L 203.214015 127.702476 
L 200.338203 129.420452 
L 197.393918 129.330032 
L 195.88754 127.702476 
L 193.080199 125.71324 
L 190.752161 124.537783 
L 190.204387 123.091066 
L 191.573821 120.016792 
L 194.518106 116.49042 
L 195.545182 113.325727 
L 197.393918 110.703552 
L 199.585014 106.725081 
L 200.954448 104.916685 
L 202.186939 101.571152 
L 203.830261 99.401076 
L 205.268167 96.145963 
L 207.253847 92.800431 
L 209.787301 89.545318 
L 210.472018 87.103983 
L 216.018228 77.700323 
L 217.798493 73.993111 
L 219.578758 72.094295 
L 220.468891 69.65296 
L 225.398855 66.036168 
L 224.782609 63.233154 
L 226.220516 60.2493 
L 226.357459 59.073843 
L 227.863837 56.451668 
L 229.57563 54.914532 
L 230.397291 51.02648 
L 231.698254 49.579763 
L 233.341575 46.053391 
L 235.258784 44.606674 
L 237.244464 39.181485 
L 239.777918 35.022174 
L 239.84639 33.846717 
L 242.516787 32.4 
L 245.940373 34.660495 
L 247.857582 37.10183 
L 248.062997 38.638967 
L 253.609207 41.80366 
L 256.758906 42.346179 
L 258.265284 41.261141 
L 258.402228 41.984499 
L 257.101265 45.330032 
L 255.937246 46.50549 
L 254.773226 49.760603 
L 253.061433 52.834876 
L 252.856018 54.191173 
L 251.075753 56.813348 
L 250.459507 58.712164 
L 249.569375 58.893003 
L 244.776354 58.169645 
L 243.680806 56.813348 
L 243.680806 58.440904 
L 243.680806 58.440904 
" clip-path="url(#p172c449159)" style="fill: none; stroke: #000000; stroke-width: 3"/>
   </g>
  </g>
 </g>
 <defs>
  <clipPath id="p172c449159">
   <rect x="7.2" y="7.2" width="263.164239" height="554.4"/>
  </clipPath>
 </defs>
</svg>
