<?xml version="1.0" encoding="utf-8" standalone="no"?>
<!DOCTYPE svg PUBLIC "-//W3C//DTD SVG 1.1//EN"
  "http://www.w3.org/Graphics/SVG/1.1/DTD/svg11.dtd">
<svg xmlns:xlink="http://www.w3.org/1999/xlink" width="298.602747pt" height="568.8pt" viewBox="0 0 298.602747 568.8" xmlns="http://www.w3.org/2000/svg" version="1.1">
 <metadata>
  <rdf:RDF xmlns:dc="http://purl.org/dc/elements/1.1/" xmlns:cc="http://creativecommons.org/ns#" xmlns:rdf="http://www.w3.org/1999/02/22-rdf-syntax-ns#">
   <cc:Work>
    <dc:type rdf:resource="http://purl.org/dc/dcmitype/StillImage"/>
    <dc:date>2023-09-25T14:14:28.833471</dc:date>
    <dc:format>image/svg+xml</dc:format>
    <dc:creator>
     <cc:Agent>
      <dc:title>Matplotlib v3.6.2, https://matplotlib.org/</dc:title>
     </cc:Agent>
    </dc:creator>
   </cc:Work>
  </rdf:RDF>
 </metadata>
 <defs>
  <style type="text/css">*{stroke-linejoin: round; stroke-linecap: butt}</style>
 </defs>
 <g id="figure_1">
  <g id="patch_1">
   <path d="M 0 568.8 
L 298.602747 568.8 
L 298.602747 0 
L 0 0 
z
" style="fill: #ffffff"/>
  </g>
  <g id="axes_1">
   <g id="LineCollection_1">
    <path d="M 273.739229 32.4 
L 273.101812 34.083429 
L 275.297358 35.205715 
L 278.48444 35.673335 
L 278.413616 37.730859 
L 273.951701 44.932195 
L 272.606044 47.644387 
L 272.53522 48.953721 
L 270.835443 50.730674 
L 270.127202 52.694674 
L 270.977091 54.004008 
L 269.773082 54.004008 
L 268.285777 55.50039 
L 266.444351 56.24858 
L 264.248806 55.406866 
L 260.565955 55.313342 
L 257.378873 54.658675 
L 251.712949 53.06877 
L 249.517404 54.28458 
L 246.755266 59.802487 
L 248.525867 63.636964 
L 249.375755 64.385155 
L 252.137893 65.22687 
L 253.271078 65.039822 
L 256.033216 66.723251 
L 257.378873 68.874299 
L 258.441234 74.766302 
L 258.795354 78.13316 
L 259.503595 80.377732 
L 258.866178 83.651067 
L 256.599809 87.579068 
L 255.3958 88.420783 
L 253.554374 90.852403 
L 252.279542 90.758879 
L 246.755266 93.096975 
L 243.780656 95.715643 
L 241.372638 99.176025 
L 240.310277 102.542884 
L 237.052371 104.787456 
L 230.819854 107.3126 
L 226.357939 110.398887 
L 224.020746 113.485174 
L 221.329432 118.816033 
L 219.275534 126.110893 
L 217.859053 128.72956 
L 214.884443 131.628799 
L 214.317851 132.844609 
L 210.989121 134.902134 
L 208.439455 135.743849 
L 206.95215 137.894897 
L 207.518742 143.225756 
L 207.66039 147.621377 
L 206.527205 151.455855 
L 203.056827 152.110521 
L 201.144578 154.448618 
L 198.453264 155.196808 
L 197.107607 155.009761 
L 192.928988 158.096048 
L 191.937451 158.189571 
L 189.600258 160.901763 
L 187.54636 162.678716 
L 187.263064 163.98805 
L 184.784222 169.038337 
L 183.651037 170.347671 
L 183.367741 175.959102 
L 183.721861 178.297198 
L 184.996694 182.038152 
L 185.209166 183.815105 
L 186.342351 186.62082 
L 186.554823 190.455298 
L 185.138342 195.692633 
L 183.438565 197.376062 
L 182.234556 199.807682 
L 177.985113 204.109779 
L 176.214512 205.138541 
L 174.868855 207.102542 
L 171.256829 209.347114 
L 170.265292 214.210354 
L 170.548588 221.598738 
L 169.6987 224.31093 
L 168.494691 226.27493 
L 165.803377 229.454741 
L 164.953488 229.735313 
L 161.058166 232.728076 
L 154.613177 240.677603 
L 152.417631 244.325032 
L 150.859502 246.101986 
L 145.972643 249.936463 
L 143.139681 252.742179 
L 142.43144 252.648655 
L 139.881775 255.080275 
L 137.757053 258.073038 
L 136.694692 260.785229 
L 136.48222 263.310373 
L 136.977989 266.209612 
L 137.119637 270.979328 
L 137.757053 277.525997 
L 136.48222 281.921618 
L 132.020305 285.007905 
L 129.470639 285.84962 
L 126.000261 288.935906 
L 123.096475 293.705623 
L 121.325874 297.446576 
L 120.830105 299.691149 
L 119.059504 303.525626 
L 116.793134 311.007534 
L 112.756164 315.77725 
L 108.223424 319.518204 
L 105.957055 322.230395 
L 104.611398 323.165634 
L 102.20338 326.532492 
L 100.574427 327.841826 
L 97.953937 330.928113 
L 95.262623 337.007163 
L 96.041688 341.122212 
L 99.016298 345.517833 
L 102.274204 347.855929 
L 104.753046 350.848692 
L 105.17799 352.345073 
L 100.645251 360.201076 
L 100.291131 363.193839 
L 99.299594 363.94203 
L 97.741465 367.495936 
L 95.90004 368.524698 
L 92.075541 375.258415 
L 90.517412 379.841084 
L 88.251042 383.862609 
L 84.993136 388.351754 
L 83.435007 391.999184 
L 81.239462 396.114233 
L 81.026989 397.797662 
L 78.902268 402.473854 
L 76.84837 404.531379 
L 74.298705 407.898237 
L 73.448816 410.329857 
L 69.978438 416.221859 
L 70.049262 417.531193 
L 67.287124 421.178623 
L 66.791355 423.423195 
L 63.391801 428.192911 
L 61.97532 431.279198 
L 60.275543 433.523771 
L 59.142358 435.955391 
L 57.300933 437.545296 
L 54.963739 441.192726 
L 53.263962 442.876155 
L 52.69737 446.14949 
L 51.280889 449.142253 
L 51.280889 450.54511 
L 49.581111 452.97673 
L 47.031446 458.214066 
L 46.323205 458.868733 
L 45.614965 461.580924 
L 44.977548 462.048543 
L 43.844363 465.415402 
L 41.790466 467.847022 
L 40.798929 470.185118 
L 39.311624 471.775023 
L 35.91207 478.415216 
L 35.841246 479.443978 
L 32.724988 484.400742 
L 32.158395 486.645315 
L 28.617193 490.853888 
L 26.634119 494.688365 
L 26.492471 495.997699 
L 24.509398 499.832177 
L 22.809621 501.796177 
L 21.039019 505.724179 
L 20.118307 505.25656 
L 23.305389 508.90399 
L 28.192248 511.148562 
L 30.31697 511.709705 
L 32.512515 513.206086 
L 35.345477 514.047801 
L 37.257727 515.637706 
L 37.541023 517.508183 
L 39.311624 519.939803 
L 44.977548 521.903804 
L 47.952158 522.371423 
L 49.297815 523.961329 
L 50.431 523.867805 
L 53.75973 526.486472 
L 56.0261 527.702282 
L 59.00071 530.32095 
L 59.071534 532.004379 
L 60.842135 530.788569 
L 61.26708 531.910855 
L 60.063071 534.903618 
L 58.64659 536.4 
L 54.255499 535.090666 
L 52.130777 533.874856 
L 48.306278 530.788569 
L 48.518751 531.630284 
L 48.518751 531.630284 
" clip-path="url(#p6dde7edb47)" style="fill: none; stroke: #000000; stroke-width: 3"/>
   </g>
  </g>
 </g>
 <defs>
  <clipPath id="p6dde7edb47">
   <rect x="7.2" y="7.2" width="284.202747" height="554.4"/>
  </clipPath>
 </defs>
</svg>
