<?xml version="1.0" encoding="utf-8" standalone="no"?>
<!DOCTYPE svg PUBLIC "-//W3C//DTD SVG 1.1//EN"
  "http://www.w3.org/Graphics/SVG/1.1/DTD/svg11.dtd">
<svg xmlns:xlink="http://www.w3.org/1999/xlink" width="283.666531pt" height="568.8pt" viewBox="0 0 283.666531 568.8" xmlns="http://www.w3.org/2000/svg" version="1.1">
 <metadata>
  <rdf:RDF xmlns:dc="http://purl.org/dc/elements/1.1/" xmlns:cc="http://creativecommons.org/ns#" xmlns:rdf="http://www.w3.org/1999/02/22-rdf-syntax-ns#">
   <cc:Work>
    <dc:type rdf:resource="http://purl.org/dc/dcmitype/StillImage"/>
    <dc:date>2023-09-25T14:14:28.770238</dc:date>
    <dc:format>image/svg+xml</dc:format>
    <dc:creator>
     <cc:Agent>
      <dc:title>Matplotlib v3.6.2, https://matplotlib.org/</dc:title>
     </cc:Agent>
    </dc:creator>
   </cc:Work>
  </rdf:RDF>
 </metadata>
 <defs>
  <style type="text/css">*{stroke-linejoin: round; stroke-linecap: butt}</style>
 </defs>
 <g id="figure_1">
  <g id="patch_1">
   <path d="M 0 568.8 
L 283.666531 568.8 
L 283.666531 0 
L 0 0 
z
" style="fill: #ffffff"/>
  </g>
  <g id="axes_1">
   <g id="LineCollection_1">
    <path d="M 98.332576 389.285066 
L 100.670521 389.810477 
L 101.466417 390.401564 
L 104.102822 391.321032 
L 104.65 390.926974 
L 105.545383 391.912119 
L 104.898718 394.801876 
L 103.306926 394.998905 
L 103.058209 396.509461 
L 101.416673 398.545426 
L 101.615647 400.97545 
L 100.471547 403.668178 
L 99.52642 403.602502 
L 97.437193 407.149023 
L 96.740784 408.002815 
L 95.994632 410.301486 
L 93.805918 413.256919 
L 93.109509 415.621267 
L 91.41823 417.52588 
L 90.57259 417.985614 
L 89.130029 421.400782 
L 88.43362 422.32025 
L 88.334133 423.436747 
L 86.095676 426.786239 
L 84.603371 430.267084 
L 83.011579 432.894136 
L 80.872608 437.09742 
L 79.380303 439.133385 
L 78.534664 442.154496 
L 77.539794 443.270993 
L 77.34082 444.650195 
L 75.699284 445.898045 
L 74.853645 447.671306 
L 72.664931 451.480532 
L 72.018266 453.779203 
L 70.525961 455.42111 
L 69.680321 457.588428 
L 67.690581 459.296013 
L 66.645968 462.054418 
L 66.297763 463.630649 
L 65.352637 465.009851 
L 64.25828 468.096638 
L 63.760845 468.293667 
L 63.114179 470.19828 
L 61.572131 473.679124 
L 61.074696 473.416419 
L 58.935725 477.094292 
L 57.045473 480.837842 
L 55.204963 484.055981 
L 53.16548 487.077091 
L 52.071123 489.835496 
L 50.927022 491.608757 
L 50.3301 493.184988 
L 48.688565 495.089601 
L 47.146516 498.373417 
L 45.902929 498.964504 
L 44.758828 497.913683 
L 41.326527 496.074746 
L 39.038326 494.564191 
L 37.496278 495.089601 
L 36.750125 496.928538 
L 34.163463 501.854261 
L 34.760385 502.708053 
L 37.297304 504.218608 
L 38.24243 504.481314 
L 41.127553 507.699453 
L 43.117293 508.750274 
L 43.863445 509.932447 
L 43.664471 511.245973 
L 42.470628 512.231118 
L 42.570115 512.822205 
L 41.028066 514.989523 
L 38.590635 519.192807 
L 37.347047 521.031744 
L 32.770645 527.073964 
L 30.13424 532.65645 
L 27.298861 536.4 
L 25.557838 535.217826 
L 25.01066 534.101329 
L 22.622972 532.722127 
L 20.832206 531.211572 
L 19.439388 530.489132 
L 21.926563 528.584519 
L 22.125537 527.730727 
L 23.468611 527.205317 
L 25.15989 525.694762 
L 25.607582 523.133385 
L 26.15476 521.885536 
L 28.542448 519.980923 
L 30.28347 515.777639 
L 32.024493 513.675997 
L 33.019363 512.099765 
L 33.666028 510.260829 
L 37.744995 505.335106 
L 36.799869 504.284285 
L 33.666028 502.905082 
L 33.865002 502.313995 
L 29.985009 498.964504 
L 29.686548 498.045035 
L 28.29373 496.862862 
L 28.243987 496.206099 
L 30.482444 492.922283 
L 31.527058 490.295231 
L 33.26808 487.668178 
L 34.710642 485.894918 
L 35.606025 482.676779 
L 37.048586 480.246755 
L 37.744995 479.589992 
L 38.24243 478.013761 
L 39.684992 476.174824 
L 40.182427 474.598593 
L 41.724475 471.774511 
L 42.172167 470.526661 
L 43.36601 468.687725 
L 45.057289 466.783112 
L 45.853185 463.564973 
L 47.19626 461.397654 
L 48.837795 459.296013 
L 49.882409 456.406255 
L 50.877279 454.370289 
L 51.872149 453.122439 
L 53.812145 449.116185 
L 55.005989 447.671306 
L 55.403937 446.554808 
L 56.896242 445.044253 
L 57.542908 441.103675 
L 58.885982 439.067709 
L 60.477774 437.425801 
L 60.825978 436.572009 
L 62.964949 433.944957 
L 64.208536 432.762783 
L 65.203406 430.989523 
L 65.899815 428.428147 
L 68.287503 425.078655 
L 67.342377 424.684597 
L 67.342377 423.830805 
L 69.680321 420.875371 
L 70.525961 420.284285 
L 70.575704 418.708053 
L 72.416214 417.197498 
L 72.515701 415.949648 
L 73.958262 413.650977 
L 74.903388 413.059891 
L 75.948002 410.76122 
L 77.390563 408.922283 
L 77.589537 407.674433 
L 79.430047 404.850352 
L 79.579277 403.865207 
L 80.47466 402.617357 
L 81.071582 403.077091 
L 81.270556 400.384363 
L 81.668504 398.939484 
L 82.812605 397.691634 
L 83.409527 393.356998 
L 86.045932 391.518061 
L 86.841828 388.891009 
L 88.483363 387.380453 
L 89.925925 385.475841 
L 90.771564 384.95043 
L 92.214126 381.797967 
L 91.915665 381.009851 
L 92.56233 378.90821 
L 92.4131 377.003597 
L 94.950018 375.033307 
L 94.950018 374.376544 
L 97.735654 371.224081 
L 97.884885 370.304613 
L 99.178216 367.414855 
L 101.217699 365.181861 
L 101.317186 363.671306 
L 102.610517 361.766693 
L 103.207439 360.124785 
L 103.754617 355.855825 
L 104.351539 355.199062 
L 105.843844 355.199062 
L 107.286406 352.703362 
L 108.828454 351.915246 
L 107.982815 350.60172 
L 109.425376 349.222518 
L 110.370503 349.222518 
L 111.564347 346.595465 
L 111.216142 345.150586 
L 112.857678 343.705708 
L 112.509473 342.786239 
L 112.857678 341.407037 
L 115.046392 340.027834 
L 115.941775 336.875371 
L 117.185362 336.218608 
L 117.682797 334.313995 
L 119.175102 331.161532 
L 119.821767 330.898827 
L 120.468433 328.403127 
L 121.314072 326.367162 
L 123.104838 323.411728 
L 123.055095 322.623612 
L 124.497656 322.229554 
L 126.338166 319.733855 
L 126.338166 318.223299 
L 128.079188 315.990305 
L 128.228419 314.085692 
L 129.422263 311.130258 
L 130.914568 310.145113 
L 133.003795 307.71509 
L 132.954051 305.21939 
L 133.550973 304.102893 
L 136.237122 301.016106 
L 137.182248 299.111493 
L 138.027888 298.717435 
L 139.321219 296.353088 
L 139.520193 295.236591 
L 142.554546 290.770602 
L 143.798134 289.91681 
L 143.549416 288.800313 
L 144.146338 286.8957 
L 145.340182 285.976231 
L 146.136078 286.632995 
L 147.329922 285.779203 
L 147.329922 283.677561 
L 146.036591 281.838624 
L 145.837617 280.722127 
L 146.534026 280.722127 
L 147.877101 279.736982 
L 147.280179 277.306959 
L 148.275049 275.86208 
L 150.314532 275.13964 
L 150.911454 274.417201 
L 150.762223 272.512588 
L 146.981718 269.294449 
L 146.384796 267.455512 
L 146.782744 266.404691 
L 149.070944 263.449257 
L 151.060684 262.201407 
L 152.453502 259.114621 
L 154.294012 256.618921 
L 155.089908 254.582955 
L 155.338625 252.54699 
L 157.328365 249.788585 
L 158.223748 248.212353 
L 159.417592 247.03018 
L 160.511949 246.504769 
L 160.611436 245.650977 
L 163.695533 246.242064 
L 165.884247 247.949648 
L 167.873987 248.475059 
L 170.460649 248.672088 
L 173.146798 247.227209 
L 174.141668 246.110711 
L 175.037051 246.767475 
L 174.838077 245.519625 
L 175.434999 245.059891 
L 177.275508 240.396873 
L 178.71807 238.820641 
L 181.354475 237.178733 
L 183.294471 236.587647 
L 185.433442 233.960594 
L 187.074977 229.297576 
L 187.373438 227.392963 
L 187.124721 225.291321 
L 185.682159 221.744801 
L 185.930877 219.117748 
L 186.577542 217.541517 
L 188.816 214.45473 
L 191.900097 212.68147 
L 194.437015 209.923065 
L 195.232911 207.558718 
L 194.984193 205.457076 
L 196.028807 202.304613 
L 196.675472 198.62674 
L 198.018547 194.948866 
L 199.311878 191.927756 
L 201.202131 188.84097 
L 202.296488 188.052854 
L 204.684176 185.491478 
L 205.927763 183.84957 
L 208.315451 178.464113 
L 209.608782 176.034089 
L 211.797496 173.012979 
L 214.682619 170.911337 
L 217.96569 169.79484 
L 221.895426 170.188898 
L 224.880036 170.188898 
L 225.874906 169.926192 
L 227.416954 168.612666 
L 230.799512 163.55559 
L 233.137457 159.746364 
L 235.574888 155.149023 
L 239.305651 148.515715 
L 241.991799 143.261611 
L 242.986669 141.816732 
L 245.772305 136.628303 
L 246.319484 133.672869 
L 246.219997 129.535262 
L 246.966149 125.331978 
L 246.468714 123.230336 
L 244.28 118.764347 
L 244.28 117.122439 
L 244.727692 115.283503 
L 246.468714 111.736982 
L 251.343577 105.103675 
L 254.626648 101.688507 
L 256.019466 99.127131 
L 256.118953 96.434402 
L 255.820492 94.923847 
L 256.118953 92.231118 
L 257.312797 86.057545 
L 258.456897 83.693198 
L 260.396894 81.854261 
L 263.381504 80.212353 
L 264.227143 78.504769 
L 263.530734 76.468804 
L 262.585608 75.615012 
L 261.292277 75.220954 
L 259.949202 75.352306 
L 256.417414 77.453948 
L 253.830752 78.110711 
L 252.786139 77.650977 
L 252.935369 74.170133 
L 253.979983 74.03878 
L 256.914849 69.638468 
L 259.053819 65.763565 
L 259.750228 62.282721 
L 259.153306 60.115403 
L 257.561514 57.882408 
L 254.576905 55.518061 
L 252.636908 54.401564 
L 247.513328 53.022361 
L 243.931796 52.562627 
L 242.936926 52.168569 
L 240.897442 52.299922 
L 239.106677 53.810477 
L 238.261037 56.306177 
L 238.509755 57.882408 
L 239.604112 59.261611 
L 243.931796 61.560281 
L 245.27487 63.136513 
L 245.871792 67.471149 
L 246.617945 69.638468 
L 246.617945 71.346052 
L 246.170253 73.053636 
L 245.175383 74.892572 
L 242.837439 77.191243 
L 238.857959 79.095856 
L 237.266167 80.081001 
L 235.972836 81.460203 
L 234.977966 83.167787 
L 233.883609 85.860516 
L 232.242074 87.108366 
L 228.113363 88.618921 
L 225.526701 89.866771 
L 223.586705 90.260829 
L 222.442605 90.0638 
L 219.756456 88.618921 
L 217.667229 87.108366 
L 217.716972 86.254574 
L 219.806199 83.102111 
L 221.547222 79.949648 
L 222.293374 78.176388 
L 224.929779 73.644722 
L 227.765159 67.27412 
L 230.550795 63.070837 
L 232.540535 58.933229 
L 235.475401 54.138858 
L 239.803086 46.717435 
L 241.444621 46.126349 
L 241.892312 45.272557 
L 241.494364 44.090383 
L 241.743082 42.973886 
L 243.683078 38.44222 
L 245.27487 36.14355 
L 247.11538 32.859734 
L 247.811789 32.4 
L 249.353837 33.844879 
L 254.07947 36.406255 
L 255.621518 38.310868 
L 255.621518 38.310868 
" clip-path="url(#pc342e3e555)" style="fill: none; stroke: #000000; stroke-width: 3"/>
   </g>
  </g>
 </g>
 <defs>
  <clipPath id="pc342e3e555">
   <rect x="7.2" y="7.2" width="269.266531" height="554.4"/>
  </clipPath>
 </defs>
</svg>
