<?xml version="1.0" encoding="utf-8" standalone="no"?>
<!DOCTYPE svg PUBLIC "-//W3C//DTD SVG 1.1//EN"
  "http://www.w3.org/Graphics/SVG/1.1/DTD/svg11.dtd">
<svg xmlns:xlink="http://www.w3.org/1999/xlink" width="189.031921pt" height="568.8pt" viewBox="0 0 189.031921 568.8" xmlns="http://www.w3.org/2000/svg" version="1.1">
 <metadata>
  <rdf:RDF xmlns:dc="http://purl.org/dc/elements/1.1/" xmlns:cc="http://creativecommons.org/ns#" xmlns:rdf="http://www.w3.org/1999/02/22-rdf-syntax-ns#">
   <cc:Work>
    <dc:type rdf:resource="http://purl.org/dc/dcmitype/StillImage"/>
    <dc:date>2023-09-25T14:14:28.436916</dc:date>
    <dc:format>image/svg+xml</dc:format>
    <dc:creator>
     <cc:Agent>
      <dc:title>Matplotlib v3.6.2, https://matplotlib.org/</dc:title>
     </cc:Agent>
    </dc:creator>
   </cc:Work>
  </rdf:RDF>
 </metadata>
 <defs>
  <style type="text/css">*{stroke-linejoin: round; stroke-linecap: butt}</style>
 </defs>
 <g id="figure_1">
  <g id="patch_1">
   <path d="M 0 568.8 
L 189.031921 568.8 
L 189.031921 0 
L 0 0 
z
" style="fill: #ffffff"/>
  </g>
  <g id="axes_1">
   <g id="LineCollection_1">
    <path d="M 134.137203 521.958588 
L 134.224984 521.82105 
L 134.616009 520.784231 
L 135.158657 519.747412 
L 135.302299 519.133784 
L 135.294319 518.213342 
L 137.241465 514.510416 
L 137.816033 513.621714 
L 138.32676 513.441857 
L 138.741726 513.092724 
L 139.220532 512.426198 
L 139.595598 512.140543 
L 139.842981 511.198942 
L 140.625032 509.654293 
L 140.864435 509.389798 
L 141.502844 508.977186 
L 141.909829 508.490516 
L 142.085392 508.099064 
L 143.545752 506.036005 
L 144.016578 505.094404 
L 144.240021 504.77701 
L 144.248001 504.470196 
L 144.383663 504.173962 
L 144.335782 503.634393 
L 144.623066 502.78801 
L 144.639027 501.962786 
L 144.487404 501.158722 
L 144.950251 499.529434 
L 145.63654 499.75161 
L 146.027566 499.518855 
L 146.290909 499.053344 
L 146.530312 498.936966 
L 147.424085 498.852328 
L 147.862991 498.672472 
L 147.83905 498.206961 
L 147.408124 497.434636 
L 147.025079 497.148982 
L 146.745775 496.619992 
L 146.769716 496.503615 
L 146.713855 495.837088 
L 146.961238 495.466795 
L 147.527826 495.096503 
L 148.956266 495.847668 
L 149.443052 494.440556 
L 150.00964 492.493875 
L 150.241063 492.197641 
L 150.520367 491.562853 
L 150.70391 490.282699 
L 151.613642 488.515874 
L 152.17225 486.854847 
L 152.483474 485.19382 
L 152.068508 485.140921 
L 151.142816 484.781208 
L 151.406159 484.040623 
L 150.903412 483.839607 
L 150.839571 484.072362 
L 150.815631 483.786708 
L 150.679969 483.638591 
L 150.121362 483.511634 
L 142.492377 481.353357 
L 137.863914 480.18958 
L 136.259912 479.67117 
L 133.307271 478.994064 
L 133.418993 478.824787 
L 133.92174 477.407095 
L 134.520248 475.915345 
L 135.350179 473.418515 
L 135.693324 472.65677 
L 136.10031 472.032562 
L 138.709805 468.890365 
L 139.563677 467.165859 
L 140.162185 466.255997 
L 140.329768 465.779907 
L 140.720793 462.203938 
L 141.23152 460.849725 
L 142.915323 457.845065 
L 143.250488 456.839985 
L 143.936777 453.528511 
L 144.511345 451.55009 
L 142.061451 449.645728 
L 141.98165 449.529351 
L 142.053471 449.296595 
L 144.607106 444.186557 
L 144.519325 444.006701 
L 140.752713 441.0232 
L 139.02103 439.658407 
L 139.06891 439.415072 
L 139.954702 437.732886 
L 141.159699 435.426491 
L 142.428536 432.770964 
L 142.787641 432.125597 
L 144.830549 427.110777 
L 145.022072 426.296133 
L 145.500878 424.994819 
L 145.285415 424.783223 
L 143.928797 424.582207 
L 142.596119 424.317713 
L 141.502844 423.958 
L 140.585131 423.344372 
L 139.890862 422.402771 
L 139.635498 421.820882 
L 139.404075 420.625366 
L 139.475896 419.683765 
L 139.627518 418.583467 
L 139.420035 418.117956 
L 139.659438 417.758243 
L 139.675399 417.483169 
L 136.682858 415.208514 
L 135.294319 414.288073 
L 134.719751 413.769663 
L 135.892827 410.352391 
L 136.076369 409.929199 
L 136.83448 407.569906 
L 136.794579 407.051497 
L 136.922261 406.501348 
L 137.361167 405.739603 
L 137.488849 403.782342 
L 137.728252 402.502187 
L 138.230999 401.190293 
L 138.566163 399.486947 
L 139.02901 398.989697 
L 139.435995 398.312591 
L 140.058444 397.646064 
L 141.095858 398.386649 
L 141.279401 398.259692 
L 141.702346 397.106495 
L 142.061451 396.672723 
L 142.141252 396.36591 
L 142.085392 396.111995 
L 141.23152 395.31851 
L 141.526784 394.789521 
L 141.99761 393.900819 
L 142.819562 391.901239 
L 142.867442 391.583845 
L 142.843502 390.991377 
L 142.636019 390.30369 
L 142.109332 389.467887 
L 141.167679 388.695562 
L 139.372154 387.373089 
L 138.414541 386.865259 
L 138.3507 386.674823 
L 138.797587 384.654083 
L 139.970663 382.993056 
L 141.143739 380.432747 
L 142.141252 377.872438 
L 147.83107 369.905857 
L 148.293917 369.323968 
L 149.219609 367.969755 
L 148.860504 367.631202 
L 147.168721 366.139452 
L 140.337748 360.71202 
L 140.138245 360.468685 
L 140.241986 360.20419 
L 140.880395 359.527083 
L 141.22354 358.998094 
L 141.622545 358.045913 
L 141.93377 357.601562 
L 142.340755 357.252429 
L 144.758728 355.527923 
L 145.046012 355.030673 
L 146.426571 353.136891 
L 147.559746 351.951954 
L 147.79915 351.306587 
L 148.102394 350.047592 
L 148.645041 347.000613 
L 149.115868 345.519442 
L 150.679969 343.562181 
L 150.943313 343.361165 
L 153.951814 340.430564 
L 155.10095 337.859675 
L 156.258066 334.728057 
L 156.289986 334.304866 
L 156.984255 331.765716 
L 157.479022 330.972232 
L 158.843621 329.469902 
L 159.418189 328.496562 
L 159.912956 323.090289 
L 160.20822 319.673017 
L 160.830668 310.331063 
L 160.894509 308.521919 
L 161.245634 303.433041 
L 161.397256 300.872732 
L 161.67656 299.793593 
L 162.42669 298.111407 
L 163.384303 295.498199 
L 164.070592 294.218044 
L 164.070592 293.95355 
L 163.90301 293.382241 
L 165.698535 290.144826 
L 166.991312 288.89641 
L 167.829224 288.325102 
L 168.754917 287.573937 
L 171.524014 284.505798 
L 171.476134 283.807532 
L 171.579875 283.638255 
L 173.511062 282.421579 
L 173.622783 282.104186 
L 173.638743 281.628095 
L 173.894107 281.353021 
L 173.574902 281.702154 
L 173.598843 282.114766 
L 173.495101 282.38984 
L 172.952454 282.929409 
L 172.250204 283.183324 
L 171.252691 283.754633 
L 170.279117 284.91841 
L 169.616768 285.976389 
L 168.036707 287.362341 
L 166.903531 287.92307 
L 166.560386 288.113506 
L 166.217242 288.293362 
L 164.908504 289.393661 
L 164.222214 290.187145 
L 163.599766 290.991209 
L 163.392283 291.086427 
L 162.674073 291.012368 
L 161.987784 290.568017 
L 161.373316 289.827432 
L 160.910469 288.303942 
L 160.487523 287.93365 
L 160.280041 287.91249 
L 159.737393 288.018288 
L 159.274547 288.303942 
L 158.74786 287.711474 
L 157.558823 286.791032 
L 155.037109 284.749133 
L 153.066022 283.204484 
L 152.842579 282.950569 
L 151.565761 281.998388 
L 148.55726 279.512137 
L 147.280443 278.591696 
L 146.33879 277.681834 
L 145.780182 276.729653 
L 145.389157 275.534137 
L 145.181674 273.936588 
L 144.87843 272.3602 
L 145.006112 272.106285 
L 144.990151 271.884109 
L 144.583166 271.397439 
L 144.495385 270.244242 
L 144.383663 270.022066 
L 144.032538 269.789311 
L 144.096379 269.376699 
L 143.864956 268.265821 
L 142.388636 265.398699 
L 141.191619 263.959847 
L 140.241986 263.018246 
L 138.230999 261.039825 
L 138.382621 260.256921 
L 138.223019 258.765171 
L 138.143218 258.617054 
L 138.167158 258.416038 
L 137.975635 256.606894 
L 137.863914 256.511676 
L 137.863914 256.151963 
L 137.401068 252.2586 
L 137.440968 251.518015 
L 137.313286 250.851488 
L 137.033982 250.174382 
L 136.044449 248.418137 
L 135.517762 247.011025 
L 135.270378 245.053764 
L 133.602536 242.324178 
L 133.562635 242.006784 
L 133.873859 240.832428 
L 134.161143 240.113002 
L 134.552169 239.351257 
L 134.815512 238.367337 
L 134.879353 237.774869 
L 134.767631 236.812108 
L 134.240944 234.643251 
L 134.121243 233.860347 
L 133.762138 231.818447 
L 133.474854 231.342357 
L 132.780584 230.474814 
L 132.245917 229.787128 
L 132.166116 229.469734 
L 132.118235 226.19 
L 132.4534 225.343616 
L 132.022474 224.15868 
L 129.51672 224.64535 
L 126.356596 224.68767 
L 125.430904 220.762568 
L 125.422924 219.926764 
L 125.678287 218.551392 
L 125.949611 217.694429 
L 126.204974 216.678769 
L 126.276795 215.504412 
L 126.332656 214.351215 
L 127.32219 210.881045 
L 127.521692 209.463353 
L 127.617454 207.527251 
L 127.832917 205.548831 
L 128.311723 201.782426 
L 128.223942 201.07358 
L 127.705235 198.396893 
L 128.128181 195.55093 
L 128.82245 192.588589 
L 128.774569 192.03844 
L 128.583047 191.562349 
L 128.09626 190.906402 
L 128.136161 190.737126 
L 129.125694 190.620748 
L 129.420958 190.631328 
L 129.811984 190.419732 
L 129.955626 190.165817 
L 130.203009 188.092179 
L 130.26685 186.431152 
L 130.649895 183.532289 
L 130.801517 182.939821 
L 130.929199 181.522129 
L 131.009 180.718065 
L 130.905259 178.697326 
L 131.096781 176.041799 
L 131.248403 174.401931 
L 131.280324 172.635106 
L 131.192543 170.593207 
L 131.088801 166.657526 
L 131.112741 160.330812 
L 130.969099 159.706604 
L 130.649895 157.738763 
L 130.466353 157.707024 
L 129.141654 157.833981 
L 129.069834 157.749343 
L 129.109734 156.014258 
L 129.029933 155.474688 
L 129.061853 153.707863 
L 128.966092 151.87756 
L 128.870331 151.475528 
L 128.686788 150.163634 
L 128.407484 149.87798 
L 127.314209 149.444208 
L 126.548119 148.566086 
L 126.460338 148.407389 
L 125.845869 144.609245 
L 124.872296 144.630404 
L 123.882763 144.810261 
L 120.75456 144.873739 
L 118.951055 144.683303 
L 118.687711 144.704463 
L 115.766991 144.619825 
L 114.625836 144.418809 
L 114.115109 144.439968 
L 114.051268 144.34475 
L 114.402393 140.260951 
L 113.724084 139.689643 
L 111.760977 138.166153 
L 111.409852 137.552525 
L 111.29015 135.28845 
L 110.747503 133.648583 
L 110.500119 128.602024 
L 110.635781 127.734481 
L 110.55598 127.343029 
L 110.396378 127.216071 
L 107.667181 127.586364 
L 107.060692 127.554624 
L 106.685627 127.671002 
L 105.177387 127.808539 
L 104.906063 127.988396 
L 103.828748 128.221151 
L 101.538457 128.496226 
L 101.299054 128.602024 
L 100.804287 128.665502 
L 99.966375 128.453907 
L 99.639191 128.496226 
L 98.410254 128.496226 
L 97.316979 128.665502 
L 96.295525 129.078114 
L 95.800758 129.035795 
L 94.755364 128.7713 
L 94.061094 128.908837 
L 93.909472 128.993476 
L 93.350865 129.956237 
L 92.911959 130.062035 
L 92.512953 129.79754 
L 92.225669 129.649423 
L 91.51544 129.649423 
L 91.076534 129.78696 
L 90.589747 129.712901 
L 89.903458 129.310869 
L 89.624154 129.226231 
L 87.589226 129.205072 
L 87.19022 129.226231 
L 85.450557 130.093774 
L 85.059531 130.136093 
L 84.500924 130.390008 
L 83.678972 130.326529 
L 82.370235 130.77088 
L 82.138811 131.373928 
L 82.06699 132.156833 
L 81.029576 133.553365 
L 80.957755 133.860179 
L 80.55077 134.28337 
L 78.978688 134.896998 
L 79.08243 135.066275 
L 79.066469 134.770041 
L 78.938788 134.706562 
L 78.739285 134.7912 
L 77.917334 134.960477 
L 75.826545 132.220312 
L 75.419559 131.479726 
L 75.180156 130.400588 
L 75.236017 129.310869 
L 75.531281 126.845779 
L 75.331778 126.824619 
L 70.479872 128.27405 
L 64.790054 130.760301 
L 64.51075 130.559285 
L 64.287307 130.580444 
L 62.914728 130.971896 
L 60.911721 130.665082 
L 60.86384 130.538125 
L 61.007482 130.114933 
L 61.246886 127.988396 
L 61.254866 127.226651 
L 60.408974 125.417507 
L 59.243878 122.222411 
L 58.765072 121.418347 
L 58.158583 120.445006 
L 57.879279 119.778479 
L 57.312692 119.24949 
L 56.722164 117.874117 
L 57.121169 115.990915 
L 58.509708 113.72684 
L 59.172057 112.774659 
L 59.3556 112.298568 
L 59.754605 110.838557 
L 59.890267 110.415366 
L 61.023442 107.622302 
L 61.286786 106.966355 
L 61.414468 106.236349 
L 61.893274 104.913875 
L 62.180558 103.305748 
L 62.3242 102.924875 
L 63.273833 98.714119 
L 63.273833 97.211789 
L 63.146151 94.926554 
L 63.608998 94.006113 
L 64.111745 93.731038 
L 66.649419 93.085671 
L 67.42349 92.831756 
L 68.12574 92.345086 
L 69.155174 91.900735 
L 69.905304 91.181309 
L 69.785602 91.075511 
L 68.460904 90.842756 
L 68.365143 90.906235 
L 67.503291 90.567681 
L 67.271868 90.11275 
L 67.184087 89.308686 
L 66.976604 88.885495 
L 66.904783 88.451723 
L 67.032465 88.017952 
L 67.303788 86.452143 
L 67.495311 85.394164 
L 67.367629 84.262127 
L 67.39157 83.775457 
L 69.147194 79.353105 
L 69.075373 79.236727 
L 68.556666 79.353105 
L 67.958157 79.141509 
L 66.936703 78.358604 
L 66.266374 78.252807 
L 63.904262 79.014551 
L 63.257873 79.755137 
L 62.587544 80.506302 
L 62.180558 80.749637 
L 61.725692 81.257467 
L 59.251858 82.876174 
L 58.573549 82.632839 
L 57.456334 81.564281 
L 56.498721 81.056451 
L 54.344091 80.315865 
L 52.995453 80.231227 
L 52.500686 80.337025 
L 50.896684 80.294706 
L 49.819369 80.770796 
L 47.768481 81.966313 
L 46.379942 82.57994 
L 45.956996 82.907914 
L 45.49415 83.701398 
L 45.166965 84.240967 
L 44.847761 84.420824 
L 43.29164 84.865175 
L 42.437768 85.436483 
L 42.310086 85.584601 
L 40.945488 86.420404 
L 40.530522 86.494462 
L 39.740491 86.378085 
L 38.511554 85.827936 
L 37.921026 85.309526 
L 36.70805 84.632419 
L 36.261164 84.12459 
L 35.862158 82.981972 
L 35.29557 81.331525 
L 35.471133 80.432243 
L 35.774377 80.07253 
L 38.974401 77.543961 
L 39.63675 77.120769 
L 43.052237 74.729737 
L 43.403361 74.380604 
L 44.113591 73.862194 
L 45.047264 72.878274 
L 45.358488 72.814795 
L 45.853255 72.878274 
L 48.095666 74.08437 
L 48.518611 74.126689 
L 48.638313 73.957412 
L 48.805895 73.407263 
L 49.15702 72.825375 
L 49.619866 72.486821 
L 50.473738 72.116529 
L 51.295689 71.57696 
L 53.186975 71.206667 
L 54.304191 71.196087 
L 55.74859 70.973912 
L 57.400473 70.243906 
L 58.206464 69.778395 
L 59.459341 68.678097 
L 60.80798 66.837214 
L 61.262846 65.662857 
L 61.462348 64.721256 
L 61.58205 62.880373 
L 61.653871 62.573559 
L 61.973075 61.716596 
L 62.858868 60.542239 
L 63.672839 59.907452 
L 64.47883 59.50542 
L 65.635946 59.283244 
L 66.218494 59.367883 
L 68.301302 59.664117 
L 68.381103 59.463101 
L 68.261401 59.367883 
L 66.872862 58.807154 
L 65.077338 58.616718 
L 64.861875 58.616718 
L 64.438929 58.458021 
L 63.808501 58.00309 
L 63.170092 57.717436 
L 61.677811 57.611638 
L 60.919701 57.463521 
L 60.799999 57.336563 
L 59.794506 56.913372 
L 58.868813 57.114388 
L 58.461827 57.304824 
L 57.240871 58.362803 
L 55.932133 58.764835 
L 55.557068 58.595558 
L 55.03038 58.574399 
L 54.455813 58.362803 
L 53.801444 57.960771 
L 52.628368 57.876132 
L 51.782476 57.325983 
L 51.407411 56.51134 
L 50.896684 55.686116 
L 50.298176 54.649297 
L 50.210394 54.617557 
L 50.002912 54.300164 
L 49.659767 54.046249 
L 49.1251 53.47494 
L 45.701633 52.46986 
L 44.233293 52.036089 
L 43.602864 51.538839 
L 42.294126 51.348403 
L 41.224792 51.433041 
L 39.556949 50.681876 
L 38.94248 50.099987 
L 38.695097 50.078828 
L 38.328012 49.803753 
L 38.072648 49.412301 
L 37.889106 48.915051 
L 37.226757 48.44954 
L 35.870138 48.354322 
L 35.774377 48.110987 
L 35.830238 47.878232 
L 36.133482 47.264604 
L 36.596328 46.735614 
L 37.035234 44.94763 
L 37.386359 44.270524 
L 37.48212 42.598917 
L 37.817285 41.530358 
L 37.609802 41.022528 
L 36.843712 40.345422 
L 36.676129 39.107586 
L 37.067155 37.711054 
L 37.186856 37.573517 
L 37.936987 35.658575 
L 37.881126 35.351761 
L 37.729504 35.193064 
L 36.827751 34.642915 
L 35.830238 33.92349 
L 35.678616 33.436819 
L 35.26365 32.88667 
L 34.920505 32.696234 
L 34.473619 32.622176 
L 34.170375 32.4 
L 33.938952 32.474059 
L 33.843191 32.89725 
L 32.406771 34.92857 
L 31.648661 35.997128 
L 30.962371 36.970469 
L 30.084559 38.165985 
L 29.565852 38.578597 
L 28.041651 40.609916 
L 27.443143 41.784273 
L 26.892515 43.498199 
L 26.230166 44.556178 
L 25.408215 45.783433 
L 25.208712 46.661556 
L 25.00123 48.936211 
L 24.402721 50.417381 
L 23.876034 52.152467 
L 23.676531 52.96711 
L 23.293486 53.824073 
L 22.83064 55.199446 
L 22.774779 56.193946 
L 23.173785 58.48976 
L 23.397228 64.403862 
L 23.508949 65.567639 
L 23.445108 66.138948 
L 23.101964 67.376783 
L 22.734879 69.355204 
L 22.11243 70.719997 
L 21.314419 71.608699 
L 18.984227 73.661178 
L 17.404166 74.782636 
L 15.808144 76.031051 
L 15.441059 76.031051 
L 15.241556 76.147429 
L 15.137815 76.443663 
L 15.209636 76.665838 
L 15.457019 76.813955 
L 15.824104 76.708157 
L 16.454533 76.792796 
L 17.316384 76.686998 
L 17.71539 76.750477 
L 18.289958 77.025551 
L 18.736844 76.813955 
L 19.008168 76.708157 
L 19.311412 76.739897 
L 19.734358 76.485982 
L 20.987235 76.08395 
L 23.117924 74.518141 
L 23.373287 74.475822 
L 23.772293 74.528721 
L 24.394741 74.338285 
L 25.01719 74.719157 
L 25.384275 74.761476 
L 26.716953 74.412343 
L 27.25162 74.433503 
L 28.376816 74.147848 
L 28.823702 74.56046 
L 28.759861 74.920173 
L 28.488537 75.523221 
L 28.472577 75.893514 
L 28.6641 76.327285 
L 28.951384 76.507141 
L 29.677574 76.59178 
L 30.435684 76.708157 
L 31.425217 77.163088 
L 31.888064 77.649759 
L 33.707529 79.839775 
L 34.784843 80.855435 
L 34.816764 81.014132 
L 35.431232 82.251967 
L 36.261164 84.050531 
L 36.827751 84.695898 
L 38.878639 86.10301 
L 40.235258 86.547361 
L 40.953468 86.505042 
L 41.512075 86.304026 
L 42.996376 85.140249 
L 43.730546 84.769957 
L 45.079184 84.367925 
L 45.414349 84.008212 
L 46.028817 82.950233 
L 46.635306 82.548201 
L 48.837816 81.490222 
L 50.154534 80.664999 
L 51.567013 80.294706 
L 52.213402 80.411084 
L 53.394458 80.241807 
L 54.439852 80.358185 
L 57.272791 81.564281 
L 59.618943 83.807196 
L 60.720198 85.383585 
L 61.773573 85.965473 
L 63.154132 86.653159 
L 63.960123 86.917654 
L 64.582571 87.340846 
L 65.484323 88.578681 
L 65.891309 89.456803 
L 66.298295 90.14449 
L 66.840942 90.514782 
L 69.027492 91.054352 
L 69.769642 91.223628 
L 69.226995 91.710299 
L 69.003552 91.879575 
L 68.189581 92.228708 
L 67.351669 92.810597 
L 66.186573 93.13857 
L 63.688799 93.688719 
L 63.521217 93.847416 
L 63.090291 94.598581 
L 63.01847 95.402645 
L 63.209992 96.947294 
L 63.02645 99.391225 
L 62.196519 102.903716 
L 61.805493 103.961694 
L 61.813473 104.68112 
L 60.959602 107.442445 
L 60.408974 108.542743 
L 58.908714 112.785239 
L 58.334146 113.652781 
L 57.081269 115.885117 
L 56.698223 117.651942 
L 56.690243 117.852958 
L 56.801965 118.25499 
L 57.448354 119.408187 
L 57.975041 119.947756 
L 58.150603 120.593123 
L 58.828912 121.502985 
L 59.211958 122.285889 
L 61.143144 127.512305 
L 61.199005 128.379848 
L 61.063343 128.813619 
L 60.600497 131.342189 
L 60.744139 131.543205 
L 62.579564 131.511466 
L 63.976083 131.183492 
L 65.268861 130.707402 
L 68.101799 129.395508 
L 71.636988 127.988396 
L 73.783637 127.417087 
L 73.98314 127.427667 
L 75.243997 127.036215 
L 75.371679 127.152592 
L 75.004594 129.734061 
L 75.004594 129.935077 
L 75.124295 130.79204 
L 75.531281 131.850019 
L 77.917334 134.939317 
L 78.938788 134.780621 
L 79.178191 135.013376 
L 79.018589 134.759461 
L 78.603623 134.759461 
L 77.997135 134.896998 
L 77.877433 135.076855 
L 78.324319 137.213972 
L 78.731305 139.795441 
L 79.058489 134.992216 
L 78.938788 134.780621 
L 77.997135 134.939317 
L 77.909353 135.076855 
L 77.909353 135.33077 
L 78.172697 136.230052 
L 78.428061 137.79586 
L 78.755245 139.425148 
L 78.731305 140.83226 
L 78.212598 142.027776 
L 77.342766 143.868659 
L 76.9278 145.085335 
L 75.946247 145.434468 
L 74.884892 146.016357 
L 74.118802 146.280851 
L 72.227516 146.725203 
L 71.421525 147.222453 
L 70.998579 147.592745 
L 61.055363 146.915639 
L 60.432914 147.084915 
L 59.714705 147.106075 
L 52.668268 146.450128 
L 51.981979 146.33375 
L 49.89917 146.386649 
L 49.420364 147.899559 
L 48.885696 151.274512 
L 48.694174 153.644385 
L 48.646293 153.707863 
L 48.40689 156.109476 
L 48.207387 157.146295 
L 44.680179 156.797162 
L 43.882168 157.283832 
L 42.59737 158.151375 
L 42.477669 158.161955 
L 40.059696 159.368051 
L 38.040728 160.627046 
L 37.713544 160.732844 
L 37.226757 161.187774 
L 34.912525 162.679525 
L 32.36687 164.615626 
L 31.896044 165.43027 
L 30.491545 165.313892 
L 29.294528 165.218674 
L 25.631658 164.93302 
L 25.112951 165.599547 
L 25.00921 165.92752 
L 25.591758 169.651606 
L 26.006723 172.47641 
L 26.349868 174.497149 
L 26.844635 178.073118 
L 26.860595 178.47515 
L 27.610725 182.51663 
L 27.506984 182.823443 
L 26.788774 183.701566 
L 26.700993 184.040119 
L 26.700993 186.346513 
L 26.102485 190.00712 
L 26.557351 192.810765 
L 26.333908 195.582669 
L 26.270067 196.333834 
L 25.950863 196.693547 
L 25.480036 197.116739 
L 24.785767 202.776926 
L 24.857588 203.210697 
L 25.200732 203.866644 
L 25.208712 205.009262 
L 24.658085 205.993182 
L 24.618184 207.273336 
L 24.634145 208.0774 
L 24.953349 208.61697 
L 25.328414 208.870885 
L 25.591758 209.685528 
L 25.807221 211.441773 
L 26.086524 213.303816 
L 26.246127 214.668609 
L 26.445629 215.948764 
L 27.076058 217.546312 
L 28.823702 220.953004 
L 29.198767 222.085041 
L 29.613733 228.030883 
L 29.246648 230.168 
L 29.118966 230.601772 
L 28.336915 233.648751 
L 27.850129 234.738469 
L 27.698506 234.960645 
L 27.451123 235.055863 
L 26.964336 235.426156 
L 26.118445 235.457895 
L 25.895002 237.69023 
L 25.240633 239.71097 
L 24.817687 240.493875 
L 24.530403 241.308518 
L 24.458582 244.101583 
L 24.650105 245.593333 
L 24.658085 246.175221 
L 24.490503 247.021605 
L 24.721926 247.793929 
L 25.00921 248.407557 
L 25.918942 249.24336 
L 26.214206 251.433377 
L 26.309967 252.089324 
L 26.158345 254.152383 
L 25.974803 256.331819 
L 25.855101 257.950527 
L 26.206226 259.082564 
L 25.679539 262.82781 
L 25.152852 264.80623 
L 24.650105 266.192183 
L 23.55683 271.534976 
L 22.758819 275.999647 
L 22.679018 277.131685 
L 22.902461 278.327201 
L 22.718918 282.40042 
L 22.758819 282.738973 
L 22.718918 285.669575 
L 22.750839 286.389 
L 22.639117 289.234964 
L 22.8067 290.546858 
L 23.492989 290.716134 
L 25.00123 290.43048 
L 25.04113 290.282363 
L 24.985269 289.890911 
L 25.128911 289.721634 
L 25.655599 289.91207 
L 26.006723 289.721634 
L 25.966823 289.964969 
L 26.070564 290.091927 
L 26.022684 290.800772 
L 31.58482 292.514698 
L 32.095547 292.41948 
L 32.877597 292.017448 
L 33.523986 291.340342 
L 33.651668 291.456719 
L 33.571867 291.657735 
L 33.563887 292.631076 
L 34.218256 293.741954 
L 34.896565 294.027608 
L 44.360974 297.222705 
L 44.656239 297.116907 
L 45.238786 296.4398 
L 46.292161 297.106327 
L 47.848282 297.94213 
L 47.912123 298.143146 
L 47.816362 299.190545 
L 47.856262 299.698375 
L 48.42285 302.396222 
L 48.327089 305.284504 
L 49.029338 308.923951 
L 49.045299 311.230346 
L 48.598412 312.891372 
L 47.138052 316.065309 
L 47.273714 316.382703 
L 47.832322 316.731836 
L 49.11712 317.165607 
L 50.090693 317.281985 
L 55.493227 319.387363 
L 55.980013 319.683597 
L 57.089249 320.678097 
L 58.366066 320.910853 
L 65.723727 321.334044 
L 69.131233 321.513901 
L 80.000142 320.847374 
L 84.125859 320.05389 
L 84.907909 319.948092 
L 87.988231 319.419102 
L 88.099953 317.186767 
L 87.940351 315.102548 
L 88.506938 315.00733 
L 89.959318 314.806314 
L 90.940872 314.637038 
L 95.529435 313.981091 
L 95.601256 314.097468 
L 95.720957 315.01791 
L 96.367346 319.683597 
L 97.492541 320.720416 
L 97.700024 321.006071 
L 98.226711 322.212167 
L 98.529956 327.956992 
L 98.737438 328.443663 
L 101.929482 334.273126 
L 102.591831 334.548201 
L 103.054678 334.516462 
L 105.959437 334.209648 
L 106.214801 334.357765 
L 108.217808 338.843595 
L 109.319063 339.943894 
L 109.79787 340.250707 
L 109.718069 340.345926 
L 109.167441 342.038692 
L 109.78989 344.6519 
L 110.077174 345.244368 
L 110.148995 346.13307 
L 110.412338 346.312927 
L 111.25823 346.291767 
L 112.295644 346.619741 
L 115.088682 347.677719 
L 118.719632 349.539762 
L 119.350061 349.878316 
L 118.328607 353.020513 
L 117.929601 355.591402 
L 117.937581 355.908795 
L 117.714138 359.378966 
L 117.610397 361.114052 
L 117.466755 362.976095 
L 117.243312 365.747999 
L 117.394934 365.991335 
L 118.440328 366.044234 
L 121.552571 366.181771 
L 121.991477 366.266409 
L 123.324155 366.276989 
L 124.353589 366.403946 
L 124.162066 368.75266 
L 124.337629 368.974835 
L 126.883284 369.133532 
L 129.397018 369.313388 
L 129.293277 370.508905 
L 128.966092 376.221991 
L 129.261356 377.988816 
L 129.819964 380.28463 
L 129.891785 380.929997 
L 129.628441 384.379008 
L 129.692282 385.849599 
L 129.827944 385.934237 
L 132.301778 385.775541 
L 133.857899 385.754381 
L 135.030975 386.717142 
L 138.30282 389.266871 
L 138.566163 390.621084 
L 139.01305 392.229212 
L 138.989109 392.652404 
L 138.566163 393.646904 
L 137.137724 394.83184 
L 136.87438 395.106915 
L 135.477861 397.84708 
L 135.214518 397.561426 
L 135.158657 397.698963 
L 135.40604 397.952878 
L 135.118756 398.661724 
L 134.528228 400.640144 
L 134.209024 402.798421 
L 134.001541 403.084076 
L 132.421479 404.840321 
L 132.44542 405.094236 
L 132.860385 405.538587 
L 132.158136 408.003678 
L 131.559628 410.447609 
L 130.681816 415.219094 
L 131.256383 415.684605 
L 131.942673 416.203014 
L 132.174096 416.298233 
L 135.062896 418.403611 
L 136.323753 419.376951 
L 137.632491 420.339712 
L 136.698818 421.757404 
L 136.467395 422.95292 
L 136.004548 423.735824 
L 135.701304 424.561048 
L 134.991075 425.238154 
L 134.568129 426.137437 
L 134.312765 426.391351 
L 133.546675 426.899181 
L 133.474854 427.110777 
L 133.626476 427.798463 
L 133.778098 428.115857 
L 133.802038 428.443831 
L 134.049422 429.142097 
L 133.825979 429.819203 
L 133.131709 431.310953 
L 131.136682 436.9923 
L 131.256383 437.182736 
L 132.557141 437.796364 
L 133.403033 438.579269 
L 133.754158 439.150577 
L 134.025481 439.298694 
L 134.384586 439.309274 
L 136.052429 440.049859 
L 136.515275 440.674067 
L 137.464908 441.933062 
L 137.59259 441.869583 
L 138.3507 440.769285 
L 138.526263 440.832764 
L 142.237014 443.689307 
L 142.173173 443.964381 
L 139.523777 447.836584 
L 139.850961 448.143398 
L 142.835522 450.396893 
L 143.011084 450.597909 
L 144.439524 451.634729 
L 143.864956 453.380394 
L 143.44999 455.379974 
L 142.659959 458.024921 
L 142.452477 458.543331 
L 141.143739 460.786246 
L 140.752713 461.770167 
L 140.465429 463.272497 
L 140.353708 463.907284 
L 140.186126 465.832806 
L 139.7951 466.63687 
L 139.412055 467.165859 
L 138.167158 469.429934 
L 135.940708 472.064302 
L 135.350179 473.079961 
L 135.262398 473.344456 
L 134.991075 474.688089 
L 133.90578 477.1426 
L 133.706277 477.438835 
L 133.17161 479.025803 
L 133.426973 479.16334 
L 135.142697 479.523053 
L 135.41402 479.65001 
L 137.680371 480.115521 
L 146.634054 482.453655 
L 147.240542 482.654671 
L 150.312884 483.501054 
L 150.70391 483.67033 
L 150.951293 483.934825 
L 151.206656 483.966565 
L 151.039074 484.68599 
L 150.679969 484.622511 
L 150.520367 484.760049 
L 150.376725 485.786288 
L 150.065501 486.611512 
L 150.065501 487.489634 
L 150.296924 488.378337 
L 150.177222 488.685151 
L 149.762257 490.272119 
L 150.408645 490.600092 
L 149.873978 492.663151 
L 149.618615 493.128662 
L 148.293917 492.335178 
L 147.248522 493.953886 
L 147.009119 494.641572 
L 146.314849 495.551434 
L 145.963725 495.879407 
L 145.421077 496.884487 
L 144.391643 501.2751 
L 144.535285 502.428297 
L 143.984658 504.808749 
L 143.537771 505.644553 
L 143.066945 506.512095 
L 142.604099 506.988186 
L 141.287381 508.892548 
L 140.856455 509.157043 
L 140.52927 509.495596 
L 139.962683 510.511256 
L 139.435995 511.854889 
L 138.358681 513.230262 
L 137.544709 513.716932 
L 136.83448 515.018246 
L 135.110776 518.012326 
L 134.304785 518.932768 
L 134.017501 519.652194 
L 133.17161 521.884529 
L 133.251411 522.86845 
L 133.538695 522.815551 
L 133.94568 522.445258 
L 134.057402 522.455838 
L 134.592069 522.942508 
L 134.999055 523.069466 
L 135.334219 523.418599 
L 136.906301 524.243822 
L 137.369147 524.434258 
L 137.488849 524.624695 
L 137.879874 524.793971 
L 138.358681 525.291221 
L 138.358681 525.650934 
L 137.855934 526.973408 
L 137.704312 527.185004 
L 137.185605 528.306461 
L 137.049943 528.475738 
L 136.467395 529.702993 
L 136.299812 529.967488 
L 135.709284 532.125765 
L 135.422 533.88201 
L 135.637463 534.125345 
L 137.233485 535.193904 
L 137.448948 535.490138 
L 138.151198 535.458399 
L 139.858941 536.4 
L 140.138245 536.283622 
L 141.151719 534.696654 
L 140.984137 534.37926 
L 140.297847 533.956069 
L 140.297847 533.956069 
" clip-path="url(#p18badfa63c)" style="fill: none; stroke: #000000; stroke-width: 3"/>
   </g>
  </g>
 </g>
 <defs>
  <clipPath id="p18badfa63c">
   <rect x="7.2" y="7.2" width="174.631921" height="554.4"/>
  </clipPath>
 </defs>
</svg>
