<?xml version="1.0" encoding="utf-8" standalone="no"?>
<!DOCTYPE svg PUBLIC "-//W3C//DTD SVG 1.1//EN"
  "http://www.w3.org/Graphics/SVG/1.1/DTD/svg11.dtd">
<svg xmlns:xlink="http://www.w3.org/1999/xlink" width="300.049086pt" height="568.8pt" viewBox="0 0 300.049086 568.8" xmlns="http://www.w3.org/2000/svg" version="1.1">
 <metadata>
  <rdf:RDF xmlns:dc="http://purl.org/dc/elements/1.1/" xmlns:cc="http://creativecommons.org/ns#" xmlns:rdf="http://www.w3.org/1999/02/22-rdf-syntax-ns#">
   <cc:Work>
    <dc:type rdf:resource="http://purl.org/dc/dcmitype/StillImage"/>
    <dc:date>2023-09-25T14:14:28.301808</dc:date>
    <dc:format>image/svg+xml</dc:format>
    <dc:creator>
     <cc:Agent>
      <dc:title>Matplotlib v3.6.2, https://matplotlib.org/</dc:title>
     </cc:Agent>
    </dc:creator>
   </cc:Work>
  </rdf:RDF>
 </metadata>
 <defs>
  <style type="text/css">*{stroke-linejoin: round; stroke-linecap: butt}</style>
 </defs>
 <g id="figure_1">
  <g id="patch_1">
   <path d="M 0 568.8 
L 300.049086 568.8 
L 300.049086 0 
L 0 0 
z
" style="fill: #ffffff"/>
  </g>
  <g id="axes_1">
   <g id="LineCollection_1">
    <path d="M 274.394329 32.4 
L 279.865036 34.933135 
L 279.651892 36.152792 
L 277.875688 39.717945 
L 274.891666 44.221296 
L 272.547077 48.349367 
L 270.202488 53.978555 
L 267.786851 54.635294 
L 262.600336 53.227997 
L 259.616314 52.852718 
L 254.998184 51.63306 
L 252.795691 52.289799 
L 249.882717 55.479672 
L 249.101188 58.481906 
L 250.16691 62.047059 
L 252.511499 63.735815 
L 256.561243 65.518392 
L 259.190025 68.989724 
L 259.900506 74.243634 
L 260.89518 77.245867 
L 260.824132 82.030678 
L 258.692688 85.50201 
L 255.353425 88.879523 
L 248.959091 91.694118 
L 245.122491 95.16545 
L 242.991047 100.32554 
L 241.285891 102.014296 
L 239.296543 103.046314 
L 233.541643 105.29799 
L 230.486572 107.174386 
L 226.934165 111.114818 
L 224.305383 115.711988 
L 221.889746 121.247357 
L 220.96612 124.061951 
L 218.408387 128.565302 
L 216.063798 130.910797 
L 211.658813 133.631571 
L 210.59309 134.663589 
L 208.887935 137.759643 
L 208.31955 141.043336 
L 208.67479 143.576471 
L 208.603742 146.860164 
L 207.822213 149.205659 
L 204.83819 152.489352 
L 198.870146 155.210127 
L 195.317738 157.180343 
L 191.481138 160.464036 
L 188.781309 163.46627 
L 187.360346 165.717945 
L 185.299949 170.878034 
L 184.731564 175.099926 
L 185.299949 179.321817 
L 187.715586 187.108861 
L 187.857683 190.204914 
L 187.431394 192.644229 
L 183.950034 198.648697 
L 180.042386 202.964408 
L 174.216438 207.373939 
L 172.298138 209.719434 
L 171.303464 213.847506 
L 171.729753 220.133433 
L 170.806127 224.542964 
L 167.680008 229.046314 
L 162.209301 233.549665 
L 158.3727 237.396277 
L 155.601823 240.77379 
L 153.044089 244.526582 
L 149.56273 248.091735 
L 143.594685 252.407446 
L 139.97123 256.347878 
L 138.834459 258.787193 
L 138.195026 263.947282 
L 138.621315 271.921966 
L 139.118652 276.143857 
L 138.834459 278.676992 
L 137.058256 282.429784 
L 133.718993 284.681459 
L 129.882392 285.807297 
L 127.466755 287.965153 
L 124.909022 292.374684 
L 121.072422 301.006106 
L 119.580411 306.541474 
L 116.667437 312.170663 
L 114.109703 315.266716 
L 109.065285 319.300968 
L 104.447155 324.085778 
L 100.04217 329.714966 
L 97.839677 333.655398 
L 96.773955 336.751452 
L 96.702907 338.909308 
L 97.413388 341.254803 
L 100.539507 346.414892 
L 103.665625 349.229486 
L 105.583925 351.668801 
L 105.01554 354.858675 
L 102.457807 358.986746 
L 100.539507 364.615934 
L 97.697581 366.58615 
L 95.210895 369.494564 
L 94.713558 371.65242 
L 92.582114 375.780491 
L 89.455995 379.627103 
L 88.674466 379.814743 
L 88.319225 382.160238 
L 86.756166 384.130454 
L 85.122058 387.883246 
L 84.056336 391.448399 
L 82.848517 393.043336 
L 79.864495 398.484885 
L 77.164665 401.205659 
L 75.530558 404.207893 
L 75.104269 405.990469 
L 73.114921 409.743261 
L 72.688632 412.182576 
L 70.344043 415.09099 
L 69.065176 417.811765 
L 67.78631 418.843783 
L 66.791636 422.315115 
L 63.594469 428.413403 
L 63.523421 430.852718 
L 62.741891 432.072375 
L 61.24988 436.294267 
L 59.757869 436.012807 
L 59.33158 439.202681 
L 58.194809 442.392554 
L 56.915943 443.424572 
L 49.953224 451.962174 
L 48.674357 454.776768 
L 48.745406 456.090246 
L 45.690335 456.090246 
L 45.264046 458.7172 
L 43.20365 462.469993 
L 41.072205 464.252569 
L 40.716965 465.378407 
L 38.443424 468.193001 
L 36.951413 474.666567 
L 33.754246 480.483395 
L 33.683198 483.579449 
L 31.978042 485.924944 
L 30.414983 489.396277 
L 30.13079 491.178853 
L 26.649431 495.213105 
L 25.583709 498.496798 
L 23.949601 500.748474 
L 20.184049 507.31586 
L 20.468242 507.972599 
L 24.944275 510.693373 
L 28.922972 512.475949 
L 32.475379 514.539985 
L 36.169883 516.228742 
L 38.017135 518.011318 
L 41.498494 518.949516 
L 44.34042 520.169173 
L 46.898154 522.702308 
L 54.429258 526.83038 
L 56.276509 526.73656 
L 57.981665 527.580938 
L 60.113109 530.207893 
L 62.670843 531.146091 
L 62.102458 533.116307 
L 60.184158 536.30618 
L 57.626424 536.4 
L 48.034924 530.207893 
L 46.969202 530.583172 
L 46.969202 530.583172 
" clip-path="url(#p13777195d6)" style="fill: none; stroke: #000000; stroke-width: 3"/>
   </g>
  </g>
 </g>
 <defs>
  <clipPath id="p13777195d6">
   <rect x="7.2" y="7.2" width="285.649086" height="554.4"/>
  </clipPath>
 </defs>
</svg>
