<?xml version="1.0" encoding="utf-8" standalone="no"?>
<!DOCTYPE svg PUBLIC "-//W3C//DTD SVG 1.1//EN"
  "http://www.w3.org/Graphics/SVG/1.1/DTD/svg11.dtd">
<svg xmlns:xlink="http://www.w3.org/1999/xlink" width="281.419995pt" height="568.8pt" viewBox="0 0 281.419995 568.8" xmlns="http://www.w3.org/2000/svg" version="1.1">
 <metadata>
  <rdf:RDF xmlns:dc="http://purl.org/dc/elements/1.1/" xmlns:cc="http://creativecommons.org/ns#" xmlns:rdf="http://www.w3.org/1999/02/22-rdf-syntax-ns#">
   <cc:Work>
    <dc:type rdf:resource="http://purl.org/dc/dcmitype/StillImage"/>
    <dc:date>2023-09-25T14:14:28.220681</dc:date>
    <dc:format>image/svg+xml</dc:format>
    <dc:creator>
     <cc:Agent>
      <dc:title>Matplotlib v3.6.2, https://matplotlib.org/</dc:title>
     </cc:Agent>
    </dc:creator>
   </cc:Work>
  </rdf:RDF>
 </metadata>
 <defs>
  <style type="text/css">*{stroke-linejoin: round; stroke-linecap: butt}</style>
 </defs>
 <g id="figure_1">
  <g id="patch_1">
   <path d="M 0 568.8 
L 281.419995 568.8 
L 281.419995 0 
L 0 0 
z
" style="fill: #ffffff"/>
  </g>
  <g id="axes_1">
   <g id="LineCollection_1">
    <path d="M 31.512164 536.4 
L 28.981428 533.870968 
L 26.450692 532.787097 
L 23.988355 530.709677 
L 19.884459 529.625806 
L 19.337272 528.632258 
L 20.021255 525.651613 
L 19.884459 524.387097 
L 21.184026 523.574194 
L 22.620389 521.587097 
L 22.757186 519.96129 
L 23.78316 517.883871 
L 26.450692 515.264516 
L 27.545065 513.548387 
L 27.681861 511.380645 
L 29.460216 509.032258 
L 32.743333 503.251613 
L 34.179696 501.806452 
L 33.837705 500.36129 
L 35.410865 499.096774 
L 36.642034 494.580645 
L 38.967575 491.419355 
L 40.33554 490.516129 
L 39.925151 488.258065 
L 41.087921 487.625806 
L 43.550259 482.83871 
L 47.175367 478.232258 
L 49.774501 473.806452 
L 49.911298 472.451613 
L 51.758051 469.290323 
L 53.604804 465.045161 
L 55.177964 463.6 
L 54.97277 462.335484 
L 58.324285 457.729032 
L 58.392683 456.374194 
L 59.555453 454.929032 
L 60.513029 451.587097 
L 61.470605 450.954839 
L 61.812596 449.058065 
L 63.317358 446.980645 
L 64.548527 443.63871 
L 66.190085 443.277419 
L 68.926016 438.219355 
L 71.046362 435.23871 
L 71.456752 433.070968 
L 72.961514 431.174194 
L 75.765843 425.664516 
L 77.749393 423.496774 
L 76.997012 421.509677 
L 78.706968 421.058065 
L 79.596146 417.806452 
L 80.895713 417.535484 
L 82.263678 416.270968 
L 83.76844 412.296774 
L 86.367574 411.212903 
L 87.940734 407.148387 
L 87.461946 405.612903 
L 88.077531 403.987097 
L 87.32515 403.264516 
L 89.3087 402.632258 
L 91.702639 399.470968 
L 92.591816 399.109677 
L 93.344197 395.948387 
L 95.396145 392.967742 
L 96.080128 390.529032 
L 97.58489 387.63871 
L 96.832509 386.103226 
L 98.268873 385.651613 
L 99.089652 382.851613 
L 99.910431 382.219355 
L 99.910431 380.683871 
L 101.073202 379.148387 
L 101.004803 376.348387 
L 97.242899 373.187097 
L 95.874933 370.748387 
L 96.01173 367.767742 
L 97.721686 365.509677 
L 99.636838 364.064516 
L 101.004803 362.348387 
L 102.783158 358.283871 
L 106.545063 350.425806 
L 110.033375 345.096774 
L 112.427314 342.567742 
L 114.821253 341.303226 
L 117.488786 340.941935 
L 120.429911 341.664516 
L 122.550257 343.2 
L 125.149392 344.012903 
L 127.885322 344.103226 
L 129.800474 343.290323 
L 132.741599 341.303226 
L 134.383158 339.587097 
L 136.229911 335.070968 
L 137.392681 332.903226 
L 139.376231 330.645161 
L 142.18056 328.477419 
L 144.16411 327.845161 
L 148.062811 324.232258 
L 149.430776 321.974194 
L 151.072335 318 
L 151.893114 314.025806 
L 151.551123 311.858065 
L 149.772768 307.703226 
L 149.362378 304.270968 
L 150.86714 300.567742 
L 153.603071 296.683871 
L 155.381426 295.148387 
L 159.280127 292.980645 
L 161.263677 291.083871 
L 162.358049 287.380645 
L 162.221252 284.4 
L 165.709564 271.845161 
L 167.82991 267.509677 
L 168.103503 266.154839 
L 170.155451 263.264516 
L 174.53294 258.929032 
L 178.294845 253.509677 
L 180.688784 247.187097 
L 182.603936 244.387097 
L 184.587486 240.774194 
L 186.160646 238.787097 
L 188.486187 237.070968 
L 193.752853 235.354839 
L 196.762377 235.445161 
L 202.713026 236.077419 
L 206.543329 234.541935 
L 208.663676 232.012903 
L 217.281857 217.109677 
L 220.975364 210.245161 
L 222.753719 206.090323 
L 226.857615 199.316129 
L 230.893112 191.819355 
L 232.329476 188.387097 
L 232.671467 184.412903 
L 232.466272 180.43871 
L 233.35545 174.387097 
L 232.534671 170.503226 
L 229.79874 165.445161 
L 229.935537 163.006452 
L 230.619519 160.567742 
L 233.218653 155.509677 
L 235.133805 152.529032 
L 239.374497 147.2 
L 244.572766 141.96129 
L 246.009129 139.974194 
L 246.419519 137.625806 
L 245.940731 131.303226 
L 246.898307 124.890323 
L 247.924281 120.193548 
L 248.881857 118.387097 
L 251.344194 115.677419 
L 256.405666 112.154839 
L 257.294843 110.8 
L 257.43164 109.174194 
L 256.405666 106.916129 
L 254.900904 106.012903 
L 252.233372 105.832258 
L 248.881857 107.187097 
L 244.983155 109.625806 
L 241.63164 107.909677 
L 241.152852 105.019355 
L 242.589216 102.76129 
L 246.898307 97.793548 
L 250.455017 89.754839 
L 250.660212 86.503226 
L 250.181424 84.425806 
L 245.940731 79.63871 
L 242.726013 77.470968 
L 238.48532 75.664516 
L 234.518221 74.670968 
L 227.746792 73.677419 
L 224.737268 74.580645 
L 222.069736 77.56129 
L 221.454152 80.632258 
L 222.343329 82.709677 
L 223.848091 84.516129 
L 229.319952 86.683871 
L 231.235104 88.941935 
L 231.577095 92.283871 
L 233.013459 99.148387 
L 232.739866 102.309677 
L 231.3719 105.290323 
L 228.088783 108.722581 
L 225.900039 109.896774 
L 221.590948 111.341935 
L 219.197009 112.967742 
L 217.623849 115.135484 
L 215.845494 119.470968 
L 214.545927 121.187097 
L 212.288784 122.451613 
L 206.953719 124.529032 
L 203.670602 126.335484 
L 201.892247 126.787097 
L 197.03597 124.529032 
L 193.547659 121.909677 
L 193.752853 120.103226 
L 198.677529 112.245161 
L 200.729477 107.729032 
L 202.16584 105.741935 
L 203.670602 101.948387 
L 205.72255 98.606452 
L 207.637702 94.36129 
L 210.578827 89.845161 
L 210.715624 89.032258 
L 216.871468 78.735484 
L 220.906965 70.967742 
L 223.232506 67.083871 
L 226.447225 65.548387 
L 230.003935 67.354839 
L 231.303502 67.535484 
L 234.381424 68.980645 
L 238.211727 71.419355 
L 242.862809 74.03871 
L 244.367571 73.496774 
L 245.735536 71.6 
L 250.933805 62.567742 
L 253.054151 59.316129 
L 260.099172 46.580645 
L 261.740731 43.148387 
L 262.082722 40.8 
L 258.868004 39.535484 
L 250.591813 32.941935 
L 251.89138 32.4 
L 253.190947 33.664516 
L 253.327744 34.929032 
L 254.764108 35.741935 
L 255.44809 37.277419 
L 257.636835 38.993548 
L 260.509562 40.258065 
L 259.346791 43.690323 
L 255.106099 49.922581 
L 252.096575 55.793548 
L 251.138999 56.154839 
L 247.58229 53.354839 
L 246.145926 52.812903 
L 246.419519 53.987097 
L 246.419519 53.987097 
" clip-path="url(#p8436ae955e)" style="fill: none; stroke: #000000; stroke-width: 3"/>
   </g>
  </g>
 </g>
 <defs>
  <clipPath id="p8436ae955e">
   <rect x="7.2" y="7.2" width="267.019995" height="554.4"/>
  </clipPath>
 </defs>
</svg>
