<?xml version="1.0" encoding="utf-8" standalone="no"?>
<!DOCTYPE svg PUBLIC "-//W3C//DTD SVG 1.1//EN"
  "http://www.w3.org/Graphics/SVG/1.1/DTD/svg11.dtd">
<svg xmlns:xlink="http://www.w3.org/1999/xlink" width="299.445946pt" height="568.8pt" viewBox="0 0 299.445946 568.8" xmlns="http://www.w3.org/2000/svg" version="1.1">
 <metadata>
  <rdf:RDF xmlns:dc="http://purl.org/dc/elements/1.1/" xmlns:cc="http://creativecommons.org/ns#" xmlns:rdf="http://www.w3.org/1999/02/22-rdf-syntax-ns#">
   <cc:Work>
    <dc:type rdf:resource="http://purl.org/dc/dcmitype/StillImage"/>
    <dc:date>2023-09-25T14:14:28.002186</dc:date>
    <dc:format>image/svg+xml</dc:format>
    <dc:creator>
     <cc:Agent>
      <dc:title>Matplotlib v3.6.2, https://matplotlib.org/</dc:title>
     </cc:Agent>
    </dc:creator>
   </cc:Work>
  </rdf:RDF>
 </metadata>
 <defs>
  <style type="text/css">*{stroke-linejoin: round; stroke-linecap: butt}</style>
 </defs>
 <g id="figure_1">
  <g id="patch_1">
   <path d="M 0 568.8 
L 299.445946 568.8 
L 299.445946 0 
L 0 0 
z
" style="fill: #ffffff"/>
  </g>
  <g id="axes_1">
   <g id="LineCollection_1">
    <path d="M 274.461635 32.4 
L 276.875474 34.4625 
L 279.289313 34.93125 
L 279.218317 37.36875 
L 276.804479 40.93125 
L 275.242583 44.30625 
L 271.976801 49.8375 
L 270.911873 52.55625 
L 268.143058 54.525 
L 261.540499 53.30625 
L 258.203722 52.93125 
L 255.789883 52.0875 
L 253.234054 52.18125 
L 250.323249 54.525 
L 248.690358 58.18125 
L 248.690358 60.15 
L 250.039268 62.4 
L 253.660026 64.55625 
L 255.292917 64.93125 
L 257.848746 66.9 
L 258.700689 68.30625 
L 259.12666 73.55625 
L 260.47557 77.49375 
L 260.617561 80.775 
L 260.191589 82.93125 
L 258.345712 86.025 
L 255.505902 88.65 
L 253.44704 89.86875 
L 248.761353 91.65 
L 246.631496 93.24375 
L 244.359647 96.61875 
L 243.365714 99.61875 
L 241.306851 101.86875 
L 239.38998 103.0875 
L 234.775288 104.68125 
L 231.793487 106.275 
L 229.095668 108.43125 
L 225.545905 113.4 
L 223.203062 118.36875 
L 220.505242 125.025 
L 218.162398 128.86875 
L 215.74856 131.2125 
L 210.281925 134.775 
L 209.146001 136.36875 
L 208.152068 139.8375 
L 208.365053 144.7125 
L 207.797091 148.93125 
L 206.164201 151.0875 
L 204.034343 152.68125 
L 198.780694 155.025 
L 195.017946 157.18125 
L 190.829226 160.93125 
L 188.202401 164.49375 
L 185.575577 169.55625 
L 184.581643 173.9625 
L 185.2206 179.49375 
L 187.208468 186.05625 
L 187.634439 191.025 
L 186.285529 194.4 
L 182.664771 199.93125 
L 179.256999 203.49375 
L 176.275198 205.74375 
L 172.938421 208.93125 
L 171.447521 211.93125 
L 171.234535 216.43125 
L 171.518516 220.18125 
L 171.234535 222.99375 
L 170.169607 225.525 
L 167.826763 228.7125 
L 164.277 231.80625 
L 157.532451 238.18125 
L 154.26667 242.775 
L 150.148945 247.36875 
L 143.120415 252.9 
L 140.422595 255.80625 
L 138.434728 259.93125 
L 137.724775 264.43125 
L 138.718709 273.9 
L 138.576718 277.0875 
L 137.298804 281.49375 
L 136.30487 282.80625 
L 133.181079 284.49375 
L 130.838236 285.15 
L 128.211411 286.74375 
L 125.939563 290.025 
L 122.602786 296.49375 
L 120.330938 302.30625 
L 119.833971 304.93125 
L 118.272076 309.05625 
L 115.645251 313.4625 
L 112.805441 316.55625 
L 106.699849 321.9 
L 103.718048 325.0875 
L 99.245347 331.18125 
L 97.25748 334.8375 
L 96.547528 338.025 
L 97.25748 341.4 
L 100.239281 346.36875 
L 103.363072 349.0875 
L 105.279944 352.4625 
L 104.853972 353.86875 
L 101.233214 360.43125 
L 100.168286 364.275 
L 99.174352 364.55625 
L 95.340608 367.4625 
L 93.849708 368.11875 
L 92.642789 371.86875 
L 91.57786 377.025 
L 90.512931 380.30625 
L 88.809045 381.61875 
L 88.028097 386.2125 
L 85.756249 389.025 
L 85.188287 391.65 
L 83.555396 393.43125 
L 81.070562 397.18125 
L 80.715586 399.3375 
L 78.159757 401.30625 
L 76.810847 404.5875 
L 73.971037 408.7125 
L 73.403075 411.05625 
L 71.699189 412.18125 
L 71.131227 414.3375 
L 69.498336 417.99375 
L 66.090564 423.3375 
L 64.528668 427.0875 
L 63.037768 428.86875 
L 62.327815 428.30625 
L 58.21009 433.74375 
L 57.926109 437.68125 
L 56.648195 441.24375 
L 55.867247 441.61875 
L 54.376347 445.18125 
L 51.820517 448.0875 
L 50.613598 450.24375 
L 49.69066 448.36875 
L 48.838717 454.0875 
L 47.915778 454.74375 
L 48.199759 456.525 
L 46.566869 455.5875 
L 45.64393 456.7125 
L 44.579001 459.9 
L 43.088101 461.86875 
L 41.952177 465.7125 
L 39.183362 468.3375 
L 37.834452 470.68125 
L 37.408481 474.43125 
L 35.91758 476.30625 
L 33.929713 483.15 
L 31.941846 486.99375 
L 29.669998 489.3375 
L 28.74706 491.68125 
L 26.759193 494.2125 
L 24.913316 498.24375 
L 23.067439 500.4 
L 20.440615 505.275 
L 20.156634 506.86875 
L 23.493411 509.68125 
L 29.953979 512.86875 
L 36.414547 515.775 
L 36.840519 517.93125 
L 37.905448 519.43125 
L 38.899381 519.3375 
L 43.088101 520.65 
L 45.288954 522.99375 
L 48.199759 524.49375 
L 52.814451 526.0875 
L 57.713124 528.9 
L 59.842981 531.3375 
L 61.262886 531.24375 
L 61.759853 532.18125 
L 59.771986 536.4 
L 55.512271 535.0875 
L 51.678527 531.24375 
L 48.767721 529.36875 
L 48.554736 530.49375 
L 48.554736 530.49375 
" clip-path="url(#pfbb651d8b1)" style="fill: none; stroke: #000000; stroke-width: 3"/>
   </g>
  </g>
 </g>
 <defs>
  <clipPath id="pfbb651d8b1">
   <rect x="7.2" y="7.2" width="285.045946" height="554.4"/>
  </clipPath>
 </defs>
</svg>
