<?xml version="1.0" encoding="utf-8" standalone="no"?>
<!DOCTYPE svg PUBLIC "-//W3C//DTD SVG 1.1//EN"
  "http://www.w3.org/Graphics/SVG/1.1/DTD/svg11.dtd">
<svg xmlns:xlink="http://www.w3.org/1999/xlink" width="289.350318pt" height="568.8pt" viewBox="0 0 289.350318 568.8" xmlns="http://www.w3.org/2000/svg" version="1.1">
 <metadata>
  <rdf:RDF xmlns:dc="http://purl.org/dc/elements/1.1/" xmlns:cc="http://creativecommons.org/ns#" xmlns:rdf="http://www.w3.org/1999/02/22-rdf-syntax-ns#">
   <cc:Work>
    <dc:type rdf:resource="http://purl.org/dc/dcmitype/StillImage"/>
    <dc:date>2023-09-25T14:14:27.924538</dc:date>
    <dc:format>image/svg+xml</dc:format>
    <dc:creator>
     <cc:Agent>
      <dc:title>Matplotlib v3.6.2, https://matplotlib.org/</dc:title>
     </cc:Agent>
    </dc:creator>
   </cc:Work>
  </rdf:RDF>
 </metadata>
 <defs>
  <style type="text/css">*{stroke-linejoin: round; stroke-linecap: butt}</style>
 </defs>
 <g id="figure_1">
  <g id="patch_1">
   <path d="M 0 568.8 
L 289.350318 568.8 
L 289.350318 0 
L 0 0 
z
" style="fill: #ffffff"/>
  </g>
  <g id="axes_1">
   <g id="LineCollection_1">
    <path d="M 29.228703 536.4 
L 28.512089 535.548329 
L 26.43391 535.264439 
L 22.850842 533.277206 
L 21.560937 533.371836 
L 21.20263 531.952385 
L 19.697742 530.154412 
L 19.697742 527.220879 
L 20.414355 525.706797 
L 22.707519 524.381975 
L 22.850842 521.637702 
L 24.212408 519.7451 
L 25.645635 518.893428 
L 28.512089 513.120991 
L 29.515348 510.565978 
L 31.306883 508.484116 
L 35.678226 501.197597 
L 36.681485 498.926474 
L 38.043051 497.790913 
L 38.401357 494.573489 
L 39.906246 491.450695 
L 40.694521 488.517161 
L 43.919282 486.813819 
L 49.007239 475.836725 
L 51.802032 472.335411 
L 52.518646 469.023357 
L 54.31018 466.846864 
L 57.033312 460.128126 
L 59.398137 456.342922 
L 60.401396 453.787908 
L 61.977946 451.611416 
L 64.414432 447.35306 
L 67.352548 441.296733 
L 70.219003 438.079309 
L 73.945394 431.455201 
L 74.948653 428.994818 
L 79.03335 421.708299 
L 81.039868 419.247916 
L 83.404693 414.70567 
L 84.26463 412.056027 
L 87.489391 408.743973 
L 88.49265 406.66211 
L 87.489391 404.958768 
L 88.922618 402.876906 
L 89.997539 399.943372 
L 91.359105 394.738716 
L 92.290702 394.738716 
L 94.727189 392.656853 
L 97.163675 388.777018 
L 98.596902 384.613293 
L 101.033389 381.206609 
L 102.179971 380.828089 
L 103.469875 377.799925 
L 105.548055 375.718062 
L 105.8347 371.365077 
L 101.176711 366.917462 
L 99.886807 364.551709 
L 100.531759 361.807435 
L 103.541536 359.063162 
L 105.906361 355.845738 
L 108.414509 349.31626 
L 110.922657 343.733083 
L 112.857514 340.421029 
L 118.088793 334.743222 
L 121.456877 333.4184 
L 125.039945 333.702291 
L 129.984579 336.541194 
L 132.13442 337.298235 
L 135.717488 336.446564 
L 138.44062 335.027112 
L 140.375477 333.32377 
L 142.596979 329.917086 
L 143.313593 326.321142 
L 144.675159 324.333909 
L 147.183307 322.157416 
L 153.059538 318.182952 
L 156.069316 314.303117 
L 157.789188 309.760871 
L 158.720786 305.691776 
L 158.505802 303.420653 
L 156.069316 296.228765 
L 156.570945 293.295231 
L 157.789188 290.929478 
L 162.160531 285.914082 
L 168.466731 281.466466 
L 169.541652 279.668494 
L 170.186604 277.018851 
L 169.756636 274.558468 
L 171.476509 266.136388 
L 173.698011 260.26932 
L 175.77619 256.768006 
L 178.141015 251.75261 
L 182.512359 247.304994 
L 187.385331 240.870146 
L 189.678495 234.529929 
L 192.688272 229.419902 
L 196.056356 226.297109 
L 198.707827 224.783027 
L 203.724122 223.363575 
L 209.528692 224.025986 
L 213.255083 224.120616 
L 216.408183 222.417274 
L 218.199717 220.903192 
L 220.42122 218.064288 
L 224.219272 210.777769 
L 225.72416 206.519414 
L 228.30397 202.450319 
L 237.333301 185.227638 
L 240.41474 180.496132 
L 243.281194 174.345175 
L 243.782824 172.641833 
L 243.56784 165.639204 
L 244.427776 159.677507 
L 244.499438 157.217124 
L 243.997808 155.135261 
L 241.274676 150.214495 
L 241.632983 145.009839 
L 244.069469 139.805182 
L 248.29749 133.181074 
L 255.391965 125.326774 
L 257.470144 122.582501 
L 257.971774 120.406008 
L 257.541806 114.538941 
L 257.900112 109.902065 
L 258.975033 104.792039 
L 259.834969 102.142396 
L 261.554842 99.019602 
L 266.141169 95.707548 
L 268.147687 94.666617 
L 269.652576 92.111603 
L 269.007624 88.98881 
L 267.144428 87.474728 
L 263.704683 87.663988 
L 259.261678 90.408261 
L 256.825192 91.354563 
L 253.457108 90.692152 
L 252.597172 88.610289 
L 252.955478 86.244536 
L 255.320303 82.459332 
L 259.190017 78.011716 
L 262.056472 71.860759 
L 262.844747 68.643335 
L 262.844747 66.466842 
L 261.698165 64.006459 
L 257.040176 59.558843 
L 254.173722 57.666241 
L 249.730717 56.057529 
L 246.21931 55.111228 
L 241.561322 54.543447 
L 238.264899 53.597146 
L 235.541767 54.732707 
L 232.961958 58.328652 
L 232.675313 60.789035 
L 233.750233 63.627938 
L 236.330042 65.709801 
L 240.988031 67.791664 
L 242.779565 70.914457 
L 243.424517 75.645963 
L 244.571099 81.22914 
L 244.069469 84.825084 
L 241.131354 88.894179 
L 238.83819 90.976042 
L 235.756751 92.584754 
L 233.03362 93.531055 
L 230.597133 95.045137 
L 228.87726 97.127 
L 226.655758 102.426286 
L 223.932626 104.886669 
L 219.847929 106.022231 
L 214.401665 108.766504 
L 211.821856 109.239655 
L 208.597095 108.009463 
L 202.864186 104.034998 
L 203.365815 101.290725 
L 208.310449 92.111603 
L 209.313708 91.165302 
L 211.248565 87.285468 
L 214.974956 81.32377 
L 217.554765 76.308374 
L 220.349558 70.252047 
L 222.069431 67.886294 
L 224.720901 62.965528 
L 225.580838 62.019226 
L 228.30397 56.152159 
L 231.170424 51.136763 
L 233.248604 46.973038 
L 234.10854 46.121367 
L 238.264899 44.891175 
L 248.010844 50.285092 
L 249.945701 51.042133 
L 254.675351 53.786406 
L 256.681869 53.218626 
L 259.261678 49.433421 
L 260.479922 46.594517 
L 265.496217 37.415396 
L 264.994587 36.469095 
L 262.271456 35.144273 
L 259.33334 32.4 
L 258.688387 32.873151 
L 258.688387 32.873151 
" clip-path="url(#pc6ea9e6841)" style="fill: none; stroke: #000000; stroke-width: 3"/>
   </g>
  </g>
 </g>
 <defs>
  <clipPath id="pc6ea9e6841">
   <rect x="7.2" y="7.2" width="274.950318" height="554.4"/>
  </clipPath>
 </defs>
</svg>
