<?xml version="1.0" encoding="utf-8" standalone="no"?>
<!DOCTYPE svg PUBLIC "-//W3C//DTD SVG 1.1//EN"
  "http://www.w3.org/Graphics/SVG/1.1/DTD/svg11.dtd">
<svg xmlns:xlink="http://www.w3.org/1999/xlink" width="299.259127pt" height="568.8pt" viewBox="0 0 299.259127 568.8" xmlns="http://www.w3.org/2000/svg" version="1.1">
 <metadata>
  <rdf:RDF xmlns:dc="http://purl.org/dc/elements/1.1/" xmlns:cc="http://creativecommons.org/ns#" xmlns:rdf="http://www.w3.org/1999/02/22-rdf-syntax-ns#">
   <cc:Work>
    <dc:type rdf:resource="http://purl.org/dc/dcmitype/StillImage"/>
    <dc:date>2023-09-25T14:14:27.852791</dc:date>
    <dc:format>image/svg+xml</dc:format>
    <dc:creator>
     <cc:Agent>
      <dc:title>Matplotlib v3.6.2, https://matplotlib.org/</dc:title>
     </cc:Agent>
    </dc:creator>
   </cc:Work>
  </rdf:RDF>
 </metadata>
 <defs>
  <style type="text/css">*{stroke-linejoin: round; stroke-linecap: butt}</style>
 </defs>
 <g id="figure_1">
  <g id="patch_1">
   <path d="M 0 568.8 
L 299.259127 568.8 
L 299.259127 0 
L 0 0 
z
" style="fill: #ffffff"/>
  </g>
  <g id="axes_1">
   <g id="LineCollection_1">
    <path d="M 273.649429 32.4 
L 276.486601 34.554246 
L 279.110985 35.95919 
L 277.266823 39.612042 
L 275.848237 41.672626 
L 273.152924 46.543096 
L 269.60646 54.317116 
L 266.698359 55.066419 
L 262.655389 54.036127 
L 257.051975 53.193161 
L 253.789228 52.162869 
L 250.171834 53.848801 
L 248.966036 55.534733 
L 247.902096 59.093923 
L 248.327672 61.248169 
L 251.093915 64.058056 
L 256.129894 66.305965 
L 257.761268 68.08556 
L 258.683349 70.801784 
L 258.683349 73.237019 
L 260.314722 79.512433 
L 259.889147 83.165285 
L 258.115914 86.349823 
L 255.56246 88.691396 
L 253.221793 90.096339 
L 248.043955 92.250585 
L 246.483511 93.187214 
L 244.710278 95.154135 
L 242.724258 100.024605 
L 240.028945 102.928155 
L 232.794157 105.644378 
L 229.034905 108.173276 
L 227.474461 109.765545 
L 224.708218 113.79305 
L 222.438481 118.195205 
L 219.672239 125.875562 
L 218.324582 128.029809 
L 215.912986 130.839695 
L 211.373511 133.930571 
L 208.890986 136.740457 
L 207.756118 140.580636 
L 208.039835 146.668723 
L 207.188683 149.47861 
L 205.982885 151.258205 
L 203.074784 153.225125 
L 197.613229 155.473035 
L 193.783047 158.001933 
L 189.52729 162.1231 
L 185.697108 167.836536 
L 184.349451 172.145029 
L 183.994805 176.453522 
L 184.562239 179.357071 
L 187.186623 187.505742 
L 187.044765 191.720572 
L 184.349451 196.965694 
L 181.228563 201.086861 
L 179.171613 203.147445 
L 174.277492 206.89396 
L 172.149613 209.14187 
L 170.801957 211.951756 
L 170.589169 213.637688 
L 170.872886 219.257461 
L 170.51824 222.910314 
L 169.879876 224.783572 
L 167.681068 228.061773 
L 156.970745 238.083702 
L 153.282422 243.141498 
L 149.523169 247.169002 
L 142.217452 252.788775 
L 138.670988 257.097268 
L 137.536119 259.626166 
L 137.181473 264.215648 
L 137.677978 267.962163 
L 138.245412 276.110834 
L 137.819836 279.482698 
L 136.188463 282.854562 
L 134.840806 283.884854 
L 128.45717 286.132763 
L 127.393231 286.882067 
L 124.48513 291.471548 
L 122.144463 296.342018 
L 119.661938 303.179409 
L 118.952645 306.176621 
L 117.3922 309.923137 
L 115.335251 313.295001 
L 113.207372 315.54291 
L 108.738827 319.289426 
L 104.483069 323.410593 
L 100.156383 329.124029 
L 98.099433 332.214904 
L 95.971555 337.647352 
L 96.680847 341.48753 
L 98.808726 345.234046 
L 104.41214 350.666493 
L 104.979575 353.195391 
L 101.787756 358.34685 
L 98.028504 365.090578 
L 95.900625 366.214533 
L 95.191332 368.837093 
L 91.290221 377.266753 
L 89.091413 379.421 
L 89.44606 380.73228 
L 88.240262 381.762572 
L 86.183312 385.790076 
L 85.544949 388.599963 
L 83.771716 391.316187 
L 83.204282 393.283107 
L 77.033434 403.773351 
L 73.132323 411.922022 
L 70.649798 415.668537 
L 68.876565 419.040401 
L 64.266161 426.346107 
L 63.202222 428.594016 
L 61.783636 433.183497 
L 60.506909 436.087047 
L 57.456949 441.238506 
L 55.967434 442.549786 
L 51.924465 450.042817 
L 50.080303 452.946367 
L 48.448929 454.538636 
L 47.455919 458.378814 
L 44.973394 460.158409 
L 43.696667 462.593644 
L 42.490869 463.717599 
L 41.994364 465.309868 
L 39.157192 469.150046 
L 37.242101 473.645865 
L 35.468869 475.706449 
L 34.050283 479.733953 
L 34.121213 482.450177 
L 31.142182 486.103029 
L 29.085233 489.849545 
L 26.38992 493.408734 
L 25.680627 495.375655 
L 23.269031 498.372867 
L 20.36093 504.554618 
L 20.148142 506.708865 
L 21.921374 508.582122 
L 32.560768 514.295558 
L 33.695637 515.419513 
L 36.39095 516.262479 
L 36.958384 517.105445 
L 39.299051 518.135737 
L 39.653697 518.88504 
L 43.696667 521.320275 
L 47.526849 524.036499 
L 50.151232 524.879465 
L 54.903495 528.064003 
L 58.166242 529.749935 
L 61.925495 530.87389 
L 60.648767 533.402788 
L 59.797616 536.4 
L 57.173232 535.74436 
L 55.896505 534.526742 
L 54.761636 535.08872 
L 52.35004 534.339416 
L 50.718667 530.967552 
L 49.583798 529.749935 
L 48.023354 529.562609 
L 49.512869 527.97034 
L 49.512869 527.97034 
" clip-path="url(#pd4312e1d4c)" style="fill: none; stroke: #000000; stroke-width: 3"/>
   </g>
  </g>
 </g>
 <defs>
  <clipPath id="pd4312e1d4c">
   <rect x="7.2" y="7.2" width="284.859127" height="554.4"/>
  </clipPath>
 </defs>
</svg>
