<?xml version="1.0" encoding="utf-8" standalone="no"?>
<!DOCTYPE svg PUBLIC "-//W3C//DTD SVG 1.1//EN"
  "http://www.w3.org/Graphics/SVG/1.1/DTD/svg11.dtd">
<svg xmlns:xlink="http://www.w3.org/1999/xlink" width="450.651348pt" height="568.8pt" viewBox="0 0 450.651348 568.8" xmlns="http://www.w3.org/2000/svg" version="1.1">
 <metadata>
  <rdf:RDF xmlns:dc="http://purl.org/dc/elements/1.1/" xmlns:cc="http://creativecommons.org/ns#" xmlns:rdf="http://www.w3.org/1999/02/22-rdf-syntax-ns#">
   <cc:Work>
    <dc:type rdf:resource="http://purl.org/dc/dcmitype/StillImage"/>
    <dc:date>2023-09-25T14:14:27.728204</dc:date>
    <dc:format>image/svg+xml</dc:format>
    <dc:creator>
     <cc:Agent>
      <dc:title>Matplotlib v3.6.2, https://matplotlib.org/</dc:title>
     </cc:Agent>
    </dc:creator>
   </cc:Work>
  </rdf:RDF>
 </metadata>
 <defs>
  <style type="text/css">*{stroke-linejoin: round; stroke-linecap: butt}</style>
 </defs>
 <g id="figure_1">
  <g id="patch_1">
   <path d="M 0 568.8 
L 450.651348 568.8 
L 450.651348 0 
L 0 0 
z
" style="fill: #ffffff"/>
  </g>
  <g id="axes_1">
   <g id="LineCollection_1">
    <path d="M 423.621741 51.250394 
L 418.363891 47.777953 
L 411.979358 46.041732 
L 407.66041 42.32126 
L 387.38013 33.144094 
L 379.493355 43.561417 
L 373.108823 54.722835 
L 369.540996 58.93937 
L 365.409827 66.628346 
L 361.090879 70.844882 
L 356.58415 73.077165 
L 353.767445 87.214961 
L 344.002866 103.585039 
L 334.426067 123.179528 
L 326.163731 136.077165 
L 311.704643 162.864567 
L 306.071232 170.05748 
L 305.13233 174.025984 
L 291.799924 198.829134 
L 291.236583 201.061417 
L 282.035345 213.959055 
L 278.467518 221.896063 
L 267.388476 241.738583 
L 258.750579 259.348819 
L 244.667052 284.896063 
L 242.038127 288.616535 
L 236.029155 301.01811 
L 229.081281 311.683465 
L 225.137894 320.116535 
L 219.128922 328.797638 
L 218.3778 331.774016 
L 212.93217 339.214961 
L 211.054366 344.671654 
L 204.669834 355.088976 
L 200.350885 364.266142 
L 195.093035 371.707087 
L 195.093035 373.691339 
L 185.140675 393.533858 
L 177.44168 404.447244 
L 172.747171 415.608661 
L 167.677101 422.553543 
L 165.799298 427.01811 
L 160.541447 433.466929 
L 153.781354 446.86063 
L 148.147943 455.541732 
L 142.890093 466.70315 
L 140.261168 474.144094 
L 131.623271 488.28189 
L 130.684369 492.746457 
L 127.116542 497.459055 
L 115.474159 517.549606 
L 106.085141 534.66378 
L 101.766193 533.423622 
L 91.813833 527.718898 
L 86.368203 523.254331 
L 57.637806 509.364567 
L 52.755517 511.348819 
L 47.122106 520.774016 
L 44.11762 521.51811 
L 27.968509 514.077165 
L 27.029607 516.309449 
L 31.724116 516.061417 
L 40.174232 523.750394 
L 44.493181 521.766142 
L 51.065494 509.612598 
L 88.809347 528.959055 
L 97.635025 532.431496 
L 103.268436 535.903937 
L 107.211823 536.4 
L 112.469674 531.935433 
L 124.487617 508.372441 
L 131.623271 498.451181 
L 134.252196 490.762205 
L 137.444462 486.545669 
L 139.697827 479.848819 
L 143.453434 475.384252 
L 149.086845 464.966929 
L 156.78584 453.805512 
L 159.226985 445.620472 
L 165.235957 431.482677 
L 175.751657 414.120472 
L 185.328456 400.230709 
L 193.215231 384.852756 
L 197.90974 377.659843 
L 203.355371 365.754331 
L 208.613221 358.065354 
L 210.115464 352.856693 
L 215.748875 345.167717 
L 221.382286 333.014173 
L 232.085767 316.644094 
L 236.029155 307.466929 
L 245.605954 294.569291 
L 252.178266 281.175591 
L 259.31392 269.022047 
L 264.571771 258.356693 
L 273.585228 243.722835 
L 275.463032 238.514173 
L 285.603172 221.4 
L 293.489947 205.277953 
L 296.682213 201.309449 
L 299.686699 193.868504 
L 308.324596 180.474803 
L 316.399152 166.337008 
L 321.281441 155.919685 
L 331.421581 138.061417 
L 345.880669 109.537795 
L 352.077421 95.648031 
L 357.710832 87.711024 
L 368.226533 79.277953 
L 368.226533 69.604724 
L 371.79436 66.380315 
L 374.611065 58.195276 
L 381.558939 45.545669 
L 389.633495 34.13622 
L 395.454686 32.4 
L 404.280363 38.848819 
L 418.739452 48.274016 
L 422.307279 52.986614 
" clip-path="url(#pa7ad408327)" style="fill: none; stroke: #000000; stroke-width: 3"/>
   </g>
  </g>
 </g>
 <defs>
  <clipPath id="pa7ad408327">
   <rect x="7.2" y="7.2" width="436.251348" height="554.4"/>
  </clipPath>
 </defs>
</svg>
