<?xml version="1.0" encoding="utf-8" standalone="no"?>
<!DOCTYPE svg PUBLIC "-//W3C//DTD SVG 1.1//EN"
  "http://www.w3.org/Graphics/SVG/1.1/DTD/svg11.dtd">
<svg xmlns:xlink="http://www.w3.org/1999/xlink" width="297.473278pt" height="568.8pt" viewBox="0 0 297.473278 568.8" xmlns="http://www.w3.org/2000/svg" version="1.1">
 <metadata>
  <rdf:RDF xmlns:dc="http://purl.org/dc/elements/1.1/" xmlns:cc="http://creativecommons.org/ns#" xmlns:rdf="http://www.w3.org/1999/02/22-rdf-syntax-ns#">
   <cc:Work>
    <dc:type rdf:resource="http://purl.org/dc/dcmitype/StillImage"/>
    <dc:date>2023-09-25T14:14:27.667571</dc:date>
    <dc:format>image/svg+xml</dc:format>
    <dc:creator>
     <cc:Agent>
      <dc:title>Matplotlib v3.6.2, https://matplotlib.org/</dc:title>
     </cc:Agent>
    </dc:creator>
   </cc:Work>
  </rdf:RDF>
 </metadata>
 <defs>
  <style type="text/css">*{stroke-linejoin: round; stroke-linecap: butt}</style>
 </defs>
 <g id="figure_1">
  <g id="patch_1">
   <path d="M 0 568.8 
L 297.473278 568.8 
L 297.473278 0 
L 0 0 
z
" style="fill: #ffffff"/>
  </g>
  <g id="axes_1">
   <g id="LineCollection_1">
    <path d="M 252.171319 37.847279 
L 255.673514 40.127536 
L 258.45608 36.897172 
L 260.662942 33.160085 
L 260.423066 32.4 
L 259.799387 33.033405 
L 257.784426 36.137087 
L 255.961366 39.684152 
L 252.699047 45.258112 
L 251.115863 47.411688 
L 250.828012 48.678497 
L 249.580655 50.832072 
L 249.580655 52.542265 
L 255.337687 55.329245 
L 259.943313 57.989544 
L 261.142695 58.369587 
L 263.637409 60.20646 
L 269.394441 63.246802 
L 276.590731 67.490612 
L 277.406311 70.150911 
L 276.254904 73.001232 
L 273.66424 77.561744 
L 270.92965 83.009024 
L 268.099109 87.696217 
L 266.371999 90.989921 
L 263.349557 96.120498 
L 258.45608 104.86148 
L 257.736451 106.444992 
L 253.850454 113.475782 
L 250.396234 119.999849 
L 249.868506 120.253211 
L 247.949496 123.926957 
L 246.558213 126.270554 
L 243.487796 132.351238 
L 242.240439 134.504813 
L 237.538862 143.689179 
L 236.483406 145.082669 
L 231.87778 153.443609 
L 227.176204 161.614528 
L 225.545045 165.161594 
L 223.434133 169.025361 
L 222.570578 170.988915 
L 220.651567 174.535981 
L 218.39673 178.209727 
L 216.429744 182.326857 
L 209.56928 194.424884 
L 206.594814 199.42878 
L 204.675803 203.165867 
L 203.956174 204.242654 
L 201.365509 209.056529 
L 200.070177 210.5767 
L 197.671414 215.200553 
L 192.777936 223.941536 
L 191.866406 226.095111 
L 189.275741 230.275581 
L 188.124335 232.429157 
L 185.197844 237.306372 
L 182.415278 242.436949 
L 182.175402 243.577077 
L 180.640193 246.934121 
L 180.16044 247.250823 
L 178.24143 250.544527 
L 176.322419 254.344954 
L 174.931136 256.435189 
L 171.620842 262.452532 
L 168.694351 268.216514 
L 167.399019 270.49677 
L 165.000255 274.043836 
L 163.992775 274.107176 
L 162.745418 273.28375 
L 157.803965 270.876813 
L 155.932929 269.610004 
L 154.349746 269.166621 
L 152.142883 267.64645 
L 148.688664 265.809576 
L 147.633208 265.049491 
L 142.212002 262.262511 
L 137.3665 259.28551 
L 136.35902 258.208722 
L 134.823811 257.575317 
L 130.601987 255.295061 
L 128.730952 254.724997 
L 126.236238 253.458188 
L 125.228757 252.254719 
L 124.79698 250.354505 
L 123.357722 249.024356 
L 121.726563 249.087696 
L 120.767057 249.911122 
L 120.143379 251.367953 
L 121.150859 254.344954 
L 121.774538 254.344954 
L 122.829994 255.611763 
L 122.398216 258.652105 
L 121.534661 261.059042 
L 121.24681 265.492874 
L 121.006933 266.823024 
L 121.294785 267.899811 
L 119.615651 270.116727 
L 118.704121 270.940153 
L 118.368294 274.993942 
L 117.840566 277.46422 
L 116.641184 279.744477 
L 116.113456 282.594797 
L 115.297876 284.748373 
L 114.242421 286.648586 
L 109.78072 293.362674 
L 108.821215 295.51625 
L 107.333982 300.330124 
L 105.942699 302.357019 
L 106.038649 303.623828 
L 105.702823 305.650723 
L 104.839268 306.72751 
L 103.160133 305.017318 
L 100.425543 303.370466 
L 94.140783 298.36657 
L 92.989376 298.239889 
L 90.830489 297.353123 
L 88.239825 295.769612 
L 86.944492 295.51625 
L 86.224863 294.566143 
L 82.290891 291.842503 
L 81.475312 292.095865 
L 79.892128 294.692824 
L 79.316425 296.403016 
L 77.013612 300.393465 
L 75.81423 303.053764 
L 73.847244 306.600829 
L 71.496456 311.161342 
L 71.640382 311.858087 
L 70.009222 315.02511 
L 68.665915 316.735302 
L 67.898311 318.382154 
L 67.226657 318.888878 
L 64.683967 323.512731 
L 64.348141 324.589519 
L 63.148759 326.299711 
L 61.373674 329.783436 
L 57.823504 335.737439 
L 59.69454 337.32095 
L 61.037847 337.764333 
L 62.52508 339.221164 
L 64.492066 340.297951 
L 66.698929 341.058037 
L 68.61794 341.058037 
L 70.345049 342.071484 
L 70.53695 343.084932 
L 71.400505 343.528315 
L 74.279021 343.591655 
L 76.054106 345.111826 
L 78.980598 348.152168 
L 80.659732 349.102275 
L 80.611757 350.369084 
L 81.427336 350.052382 
L 81.763163 351.319191 
L 83.586224 351.635893 
L 84.113951 351.19251 
L 83.346347 354.486213 
L 80.755683 358.096619 
L 79.268449 359.870152 
L 77.397414 362.910494 
L 76.054106 365.887495 
L 73.031664 370.828051 
L 72.647862 371.714817 
L 71.208604 373.425009 
L 69.289593 376.528692 
L 68.042236 379.252331 
L 66.842855 381.025864 
L 64.731943 386.473143 
L 63.580536 388.436697 
L 61.949377 391.857082 
L 59.934416 394.580721 
L 58.543133 397.304361 
L 57.679578 398.127787 
L 56.192345 401.738193 
L 55.088914 403.321704 
L 51.538744 410.035792 
L 51.011016 411.555963 
L 49.475807 414.596305 
L 43.430923 425.490863 
L 42.375467 428.467865 
L 41.655838 428.974588 
L 40.072654 432.521654 
L 39.065174 433.851803 
L 36.234633 439.615785 
L 33.93182 443.416212 
L 32.780414 444.873043 
L 30.909378 447.976725 
L 29.757972 450.637024 
L 30.333675 452.030514 
L 31.053304 452.663919 
L 31.29318 454.627473 
L 32.20471 455.957622 
L 32.828389 458.047857 
L 33.883845 459.694709 
L 35.035251 462.735051 
L 35.610954 463.368455 
L 36.042732 466.028755 
L 36.522485 467.548925 
L 38.249594 469.829182 
L 41.895715 471.666055 
L 43.478899 472.806183 
L 45.925637 474.072992 
L 49.235931 476.416589 
L 52.114447 477.240015 
L 52.354323 478.126781 
L 51.298867 479.646952 
L 49.907585 480.977102 
L 49.475807 481.927209 
L 50.05151 483.890763 
L 50.387337 483.954103 
L 56.000444 487.754531 
L 55.184864 488.514616 
L 56.048419 488.514616 
L 52.402299 494.65864 
L 52.498249 495.482066 
L 54.033458 497.318939 
L 55.472716 497.572301 
L 58.159331 499.029132 
L 58.591108 499.725877 
L 57.247801 502.196154 
L 55.520691 503.906347 
L 54.992963 505.236496 
L 53.50573 507.580093 
L 52.018496 510.430413 
L 51.346843 510.683775 
L 50.05151 513.470755 
L 47.844648 512.203946 
L 47.844648 514.040819 
L 46.741217 516.194395 
L 46.117538 516.701119 
L 46.261464 519.234737 
L 48.996054 521.13495 
L 49.619733 521.895036 
L 50.195436 521.578334 
L 56.528172 524.111952 
L 57.823504 524.111952 
L 58.735034 524.682016 
L 58.303257 525.695463 
L 59.742515 524.555335 
L 62.621031 526.138846 
L 62.333179 528.545784 
L 61.133798 531.332764 
L 60.893921 533.106296 
L 59.982391 534.626467 
L 59.646564 536.4 
L 57.199826 534.94317 
L 56.720073 534.246425 
L 54.321309 533.232977 
L 50.723164 530.82604 
L 47.892623 529.179188 
L 47.172994 528.165741 
L 45.637786 527.849039 
L 44.006626 526.455549 
L 34.84335 521.198291 
L 32.636488 519.361418 
L 31.005329 518.854694 
L 27.838961 516.384416 
L 26.351727 515.624331 
L 22.36978 512.837351 
L 20.066967 511.000478 
L 20.162918 509.036923 
L 21.746102 504.476411 
L 23.041434 503.652985 
L 24.576642 504.856453 
L 28.702516 506.820008 
L 29.757972 505.679879 
L 30.669502 504.096368 
L 32.684463 501.56275 
L 35.419053 497.192258 
L 38.489471 493.011788 
L 41.03216 488.704637 
L 41.751789 488.451276 
L 43.622824 490.098127 
L 47.31692 492.505065 
L 48.708203 493.011788 
L 51.346843 494.975342 
L 53.121928 492.568405 
L 54.081433 491.80832 
L 55.472716 490.034787 
L 57.007924 487.501169 
L 58.399207 485.980998 
L 60.462144 482.750635 
L 60.558094 482.180571 
L 63.43661 477.366696 
L 66.07525 473.439588 
L 67.514508 471.729396 
L 68.330088 469.955863 
L 69.961247 468.372351 
L 72.168109 464.0652 
L 73.127615 463.115094 
L 74.710799 460.011411 
L 75.478403 459.061305 
L 76.965636 455.64092 
L 78.692746 452.980621 
L 81.331386 447.660023 
L 81.811139 447.406661 
L 78.404894 444.809702 
L 74.950675 443.036169 
L 72.743813 442.149403 
L 70.249099 440.755913 
L 69.721371 439.679125 
L 66.746904 437.715571 
L 64.875869 437.208848 
L 62.573056 435.688677 
L 61.037847 435.118613 
L 59.550614 433.978484 
L 58.399207 433.598442 
L 58.303257 432.965037 
L 59.118836 430.811462 
L 61.61355 427.011034 
L 65.019794 420.80367 
L 65.451572 419.600201 
L 66.842855 417.319945 
L 68.61794 413.582858 
L 69.577445 412.379389 
L 70.105173 411.04924 
L 72.503936 407.628855 
L 74.231046 404.651854 
L 76.054106 400.471384 
L 77.205513 399.141234 
L 77.157537 398.317808 
L 78.644771 395.72085 
L 78.836672 394.897424 
L 77.301463 392.99721 
L 75.430428 391.983763 
L 74.08712 391.857082 
L 71.160629 390.14689 
L 69.721371 389.766847 
L 65.931324 387.296569 
L 65.883349 386.283122 
L 63.820413 385.523036 
L 59.166812 383.179439 
L 56.624122 381.152545 
L 52.642175 379.252331 
L 52.642175 378.175544 
L 55.280815 373.931733 
L 56.14437 371.081413 
L 58.639084 366.267538 
L 60.60607 362.783813 
L 63.916363 357.716577 
L 65.211695 354.676235 
L 66.411077 352.712681 
L 65.9793 351.699233 
L 67.754385 350.369084 
L 69.049717 347.07538 
L 70.297074 345.428528 
L 71.544431 342.83157 
L 72.647862 341.754782 
L 73.751293 339.917909 
L 74.854725 337.32095 
L 75.91018 336.624205 
L 75.958156 335.167375 
L 77.63729 331.937011 
L 77.589315 331.430288 
L 78.692746 329.213372 
L 81.139485 325.286264 
L 81.715188 324.77954 
L 84.545729 320.472389 
L 85.121432 318.762197 
L 86.800567 315.785195 
L 88.431726 312.111449 
L 91.214291 308.374362 
L 91.885945 306.284127 
L 93.277228 304.130552 
L 95.628016 299.380018 
L 98.218681 294.819505 
L 99.609963 291.715823 
L 100.85732 289.878949 
L 103.543936 285.065075 
L 104.167614 284.36833 
L 105.894724 280.18786 
L 107.04613 279.111072 
L 108.581339 276.387432 
L 109.588819 275.627347 
L 111.172003 273.28375 
L 111.603781 273.093729 
L 112.563286 271.130175 
L 112.707212 270.116727 
L 109.828696 265.239512 
L 110.740226 266.126279 
L 112.275434 268.469876 
L 112.755187 267.583109 
L 113.474816 267.64645 
L 114.818124 266.759683 
L 116.449283 262.389192 
L 117.888541 259.792233 
L 118.080442 258.905467 
L 119.135898 257.321956 
L 120.623131 253.648209 
L 123.213796 252.44474 
L 123.933425 251.747995 
L 124.125326 250.544527 
L 123.789499 248.13759 
L 125.70851 243.95712 
L 127.819422 240.473394 
L 128.826902 239.586628 
L 130.649963 236.419605 
L 131.609468 234.202689 
L 132.9048 232.365816 
L 135.207613 227.868644 
L 135.831292 227.171899 
L 137.174599 224.57494 
L 138.134105 223.878195 
L 140.053115 219.761066 
L 140.724769 217.987533 
L 142.068077 216.087319 
L 143.507335 213.36368 
L 144.898618 211.210104 
L 145.37837 209.943295 
L 148.736639 203.862612 
L 149.888045 202.025738 
L 150.511724 200.188865 
L 151.231353 199.302099 
L 152.814537 195.881714 
L 153.869993 194.551565 
L 157.084336 188.407541 
L 159.387149 184.290411 
L 160.826407 182.010155 
L 165.959761 172.762448 
L 166.247612 171.812341 
L 168.454475 168.265276 
L 171.956669 162.057911 
L 173.443903 158.954229 
L 173.827705 158.700867 
L 174.931136 155.977228 
L 176.322419 153.696971 
L 177.281924 151.480055 
L 178.961059 148.249692 
L 181.695649 144.195903 
L 182.079451 142.485711 
L 183.086932 142.42237 
L 184.909992 137.988538 
L 187.116854 134.504813 
L 188.795989 131.147769 
L 189.659544 130.134322 
L 191.578554 126.713937 
L 196.855834 116.072741 
L 198.391043 113.919166 
L 199.158647 112.272314 
L 200.358029 110.562121 
L 201.413485 108.408546 
L 201.893237 106.571673 
L 203.428446 104.7348 
L 208.225973 96.247179 
L 209.137503 94.093603 
L 210.097008 92.636773 
L 214.078956 85.859344 
L 216.237843 81.805555 
L 217.437224 78.828553 
L 218.972433 76.738318 
L 223.290207 69.390826 
L 225.49707 64.703632 
L 229.910794 56.976097 
L 231.493978 54.442478 
L 232.165632 52.795626 
L 233.173113 51.338796 
L 234.42047 48.741837 
L 235.619851 47.031645 
L 238.546343 46.27156 
L 240.273453 47.158326 
L 245.118955 50.071987 
L 248.285323 51.528817 
L 249.196853 52.225562 
L 250.348259 52.225562 
L 250.971938 51.528817 
L 251.931443 49.375242 
L 253.514627 46.524921 
L 254.426157 45.448134 
L 256.393143 41.774387 
L 256.441118 41.014302 
L 255.577563 40.190876 
L 252.794998 38.354003 
L 251.643591 37.91062 
L 251.643591 37.91062 
" clip-path="url(#p108f09fa1d)" style="fill: none; stroke: #000000; stroke-width: 3"/>
   </g>
  </g>
 </g>
 <defs>
  <clipPath id="p108f09fa1d">
   <rect x="7.2" y="7.2" width="283.073278" height="554.4"/>
  </clipPath>
 </defs>
</svg>
