<?xml version="1.0" encoding="utf-8" standalone="no"?>
<!DOCTYPE svg PUBLIC "-//W3C//DTD SVG 1.1//EN"
  "http://www.w3.org/Graphics/SVG/1.1/DTD/svg11.dtd">
<svg xmlns:xlink="http://www.w3.org/1999/xlink" width="572.4pt" height="466.011221pt" viewBox="0 0 572.4 466.011221" xmlns="http://www.w3.org/2000/svg" version="1.1">
 <metadata>
  <rdf:RDF xmlns:dc="http://purl.org/dc/elements/1.1/" xmlns:cc="http://creativecommons.org/ns#" xmlns:rdf="http://www.w3.org/1999/02/22-rdf-syntax-ns#">
   <cc:Work>
    <dc:type rdf:resource="http://purl.org/dc/dcmitype/StillImage"/>
    <dc:date>2023-09-25T14:14:27.598078</dc:date>
    <dc:format>image/svg+xml</dc:format>
    <dc:creator>
     <cc:Agent>
      <dc:title>Matplotlib v3.6.2, https://matplotlib.org/</dc:title>
     </cc:Agent>
    </dc:creator>
   </cc:Work>
  </rdf:RDF>
 </metadata>
 <defs>
  <style type="text/css">*{stroke-linejoin: round; stroke-linecap: butt}</style>
 </defs>
 <g id="figure_1">
  <g id="patch_1">
   <path d="M 0 466.011221 
L 572.4 466.011221 
L 572.4 0 
L 0 0 
z
" style="fill: #ffffff"/>
  </g>
  <g id="axes_1">
   <g id="LineCollection_1">
    <path d="M 537.859463 365.678812 
L 525.998059 370.379831 
L 503.85677 355.754438 
L 498.321448 347.919407 
L 473.412499 334.338685 
L 467.877177 328.07066 
L 471.830979 322.32497 
L 448.89893 311.355926 
L 446.131269 312.922932 
L 431.106823 305.610236 
L 421.6177 305.087901 
L 405.011734 292.029515 
L 381.288925 334.861021 
L 372.985942 353.142761 
L 363.496819 364.634141 
L 354.007695 383.960552 
L 345.704712 390.228577 
L 338.192489 381.87121 
L 298.259094 358.366116 
L 255.162659 336.428027 
L 239.347453 325.458983 
L 219.973826 317.101616 
L 214.833884 317.101616 
L 195.855637 306.654907 
L 193.878736 298.29754 
L 148.805399 275.314781 
L 132.990193 269.569091 
L 120.338029 260.689389 
L 106.499724 257.03304 
L 78.823113 239.795971 
L 86.335336 233.00561 
L 99.778261 199.053807 
L 115.593467 187.040092 
L 112.035046 175.026377 
L 105.313583 177.638054 
L 88.312237 202.187819 
L 61.426387 189.651769 
L 55.100305 190.174104 
L 32.563636 169.803022 
L 48.774222 144.208586 
L 55.100305 117.047143 
L 59.449486 110.779118 
L 62.217147 96.153725 
L 57.867966 87.796358 
L 59.449486 67.425276 
L 57.472586 59.590245 
L 66.961709 60.11258 
L 88.312237 69.514618 
L 91.079898 75.260308 
L 103.336682 81.005998 
L 117.570368 92.497377 
L 135.362474 102.421751 
L 154.736101 108.16744 
L 163.039085 114.957801 
L 170.946687 115.480136 
L 211.275462 142.119244 
L 255.558039 168.758351 
L 269.791724 171.892364 
L 278.885467 181.816737 
L 283.630029 177.115718 
L 296.282194 184.95075 
L 298.654475 190.174104 
L 330.284886 208.97818 
L 340.56477 187.040092 
L 340.96015 178.682725 
L 348.867753 161.445655 
L 358.356877 147.342598 
L 362.310678 136.895889 
L 371.799802 122.270497 
L 395.917991 71.60396 
L 391.173429 64.813599 
L 377.730504 61.157251 
L 355.193835 44.964852 
L 355.984596 27.727783 
L 358.752257 41.308504 
L 372.195182 55.411561 
L 394.73185 71.081624 
L 389.196528 87.274023 
L 379.312024 91.975042 
L 371.799802 113.91313 
L 354.403075 141.074573 
L 338.983249 173.981706 
L 330.284886 213.156864 
L 315.260441 262.77873 
L 305.375937 287.328496 
L 304.980557 299.342211 
L 298.654475 334.861021 
L 291.142252 353.665097 
L 296.677574 363.58947 
L 304.585177 369.857495 
L 325.144944 378.214862 
L 349.263133 400.152951 
L 359.147637 403.809299 
L 389.987288 421.046368 
L 397.499511 438.283438 
L 411.733196 432.537748 
L 421.6177 420.524033 
L 426.362262 401.197622 
L 470.644838 330.682337 
L 474.203259 328.592996 
L 495.158407 342.173717 
L 511.368993 355.232103 
L 539.836364 368.290489 
" clip-path="url(#pd5c5a59ecf)" style="fill: none; stroke: #000000; stroke-width: 3"/>
   </g>
  </g>
 </g>
 <defs>
  <clipPath id="pd5c5a59ecf">
   <rect x="7.2" y="7.2" width="558" height="451.611221"/>
  </clipPath>
 </defs>
</svg>
