<?xml version="1.0" encoding="utf-8" standalone="no"?>
<!DOCTYPE svg PUBLIC "-//W3C//DTD SVG 1.1//EN"
  "http://www.w3.org/Graphics/SVG/1.1/DTD/svg11.dtd">
<svg xmlns:xlink="http://www.w3.org/1999/xlink" width="280.522934pt" height="568.8pt" viewBox="0 0 280.522934 568.8" xmlns="http://www.w3.org/2000/svg" version="1.1">
 <metadata>
  <rdf:RDF xmlns:dc="http://purl.org/dc/elements/1.1/" xmlns:cc="http://creativecommons.org/ns#" xmlns:rdf="http://www.w3.org/1999/02/22-rdf-syntax-ns#">
   <cc:Work>
    <dc:type rdf:resource="http://purl.org/dc/dcmitype/StillImage"/>
    <dc:date>2023-09-25T14:14:27.219127</dc:date>
    <dc:format>image/svg+xml</dc:format>
    <dc:creator>
     <cc:Agent>
      <dc:title>Matplotlib v3.6.2, https://matplotlib.org/</dc:title>
     </cc:Agent>
    </dc:creator>
   </cc:Work>
  </rdf:RDF>
 </metadata>
 <defs>
  <style type="text/css">*{stroke-linejoin: round; stroke-linecap: butt}</style>
 </defs>
 <g id="figure_1">
  <g id="patch_1">
   <path d="M 0 568.8 
L 280.522934 568.8 
L 280.522934 0 
L 0 0 
z
" style="fill: #ffffff"/>
  </g>
  <g id="axes_1">
   <g id="LineCollection_1">
    <path d="M 24.70043 536.4 
L 26.016773 533.563914 
L 32.113518 524.964168 
L 31.005019 524.872681 
L 31.212863 526.336468 
L 29.757958 531.642694 
L 28.233771 534.021347 
L 27.679522 532.374587 
L 24.146181 529.995934 
L 23.52265 529.995934 
L 21.929182 526.336468 
L 20.61284 524.140788 
L 21.097808 521.487675 
L 19.296497 519.932402 
L 20.959246 518.743075 
L 21.513495 517.096315 
L 21.097808 515.906989 
L 22.34487 514.077255 
L 22.414151 512.887929 
L 25.601086 508.222109 
L 27.125272 506.666836 
L 27.679522 505.20305 
L 29.89652 502.001017 
L 33.014174 496.877764 
L 34.469079 495.139517 
L 35.508297 492.120457 
L 38.625951 488.369504 
L 38.279545 486.448285 
L 37.378889 485.716391 
L 38.210264 482.422872 
L 39.249482 480.501652 
L 40.981512 480.318679 
L 42.921385 479.220839 
L 44.861259 475.927319 
L 45.761914 473.640152 
L 48.117475 473.091233 
L 48.879568 472.359339 
L 48.602443 470.072173 
L 50.403754 466.961626 
L 51.927941 465.589327 
L 50.680879 462.570267 
L 53.382846 460.649047 
L 54.144939 458.087421 
L 57.331874 453.604574 
L 57.816843 451.774841 
L 62.805089 445.645235 
L 64.675681 442.717662 
L 62.805089 439.058196 
L 64.467837 437.502922 
L 66.546273 434.483863 
L 67.51621 431.83075 
L 68.555428 430.641423 
L 70.703145 425.701144 
L 72.019488 424.42033 
L 74.375049 420.120457 
L 74.236486 419.022618 
L 75.62211 418.839644 
L 76.799891 416.735451 
L 79.363295 414.448285 
L 79.778982 411.978145 
L 81.857418 409.050572 
L 83.520167 407.861245 
L 82.688792 406.305972 
L 84.559385 403.286912 
L 87.261351 401.548666 
L 86.914945 400.908259 
L 89.755474 398.621093 
L 90.309724 395.876493 
L 89.755474 394.687166 
L 89.824756 390.936213 
L 93.496659 388.740534 
L 93.219534 386.453367 
L 96.337188 382.793901 
L 96.752875 380.781194 
L 99.593404 375.749428 
L 101.602559 374.926048 
L 101.67184 373.462262 
L 104.165963 371.175095 
L 104.304526 367.332656 
L 103.542433 365.960356 
L 100.009092 362.849809 
L 98.069218 359.373316 
L 98.692749 356.81169 
L 100.771185 354.61601 
L 101.463997 353.152224 
L 103.95812 350.041677 
L 106.452243 343.180178 
L 108.738522 338.331385 
L 109.916303 336.501652 
L 113.033957 333.116645 
L 116.220892 330.646506 
L 118.784296 330.006099 
L 121.209138 330.006099 
L 122.941168 330.646506 
L 125.643134 332.384752 
L 127.513727 332.933672 
L 130.562099 332.842186 
L 132.501973 332.110292 
L 135.411783 329.731639 
L 137.5595 326.621093 
L 139.430093 322.412706 
L 140.607873 320.67446 
L 143.448402 317.92986 
L 149.891553 313.721474 
L 151.762146 311.251334 
L 153.217051 308.323761 
L 154.32555 302.468615 
L 153.979144 300.272935 
L 152.385676 296.430496 
L 151.900708 292.222109 
L 152.870645 289.111563 
L 155.295487 285.63507 
L 158.482422 282.707497 
L 162.015763 280.603304 
L 164.371324 278.316137 
L 165.133417 276.303431 
L 164.648448 271.912071 
L 166.172635 268.344091 
L 166.311197 266.514358 
L 167.904665 261.208132 
L 169.775257 255.810419 
L 171.160881 252.882846 
L 173.239317 250.138247 
L 178.158282 245.197967 
L 180.167436 242.270394 
L 182.869403 236.781194 
L 183.700778 234.585515 
L 187.164837 228.364422 
L 188.966148 226.351715 
L 192.638052 224.156036 
L 197.14133 222.600762 
L 204.277293 223.241169 
L 208.364884 222.417789 
L 211.759662 219.032783 
L 216.193659 210.981957 
L 218.202814 208.054384 
L 222.290404 200.460991 
L 225.408058 195.337738 
L 229.495649 187.835832 
L 233.167552 181.797713 
L 235.800238 175.759593 
L 236.354487 171.45972 
L 236.146644 168.349174 
L 237.047299 161.579161 
L 236.770174 158.194155 
L 233.791083 151.881576 
L 233.998927 147.581703 
L 236.215925 142.366963 
L 237.947955 139.256417 
L 242.31267 133.858704 
L 248.409416 127.454638 
L 249.795039 124.527065 
L 249.933602 115.927319 
L 251.457788 106.412706 
L 252.774131 103.85108 
L 255.337535 101.38094 
L 259.702251 98.636341 
L 261.226437 95.617281 
L 260.464344 92.964168 
L 257.485252 91.134435 
L 254.852567 91.408895 
L 250.903539 93.879034 
L 248.340134 94.793901 
L 245.915292 94.153494 
L 244.945356 92.415248 
L 244.945356 90.036595 
L 249.656477 84.638882 
L 251.942757 81.162389 
L 253.813349 77.594409 
L 254.783286 72.471156 
L 254.021192 69.63507 
L 250.210727 65.24371 
L 248.340134 63.87141 
L 243.836857 61.675731 
L 229.842055 58.839644 
L 227.8329 59.937484 
L 225.477339 63.04803 
L 225.130933 65.24371 
L 225.823745 67.530877 
L 227.694338 69.269123 
L 231.366241 70.641423 
L 234.068208 72.65413 
L 234.899582 74.575349 
L 235.038144 77.685896 
L 236.354487 82.351715 
L 236.562331 84.638882 
L 235.9388 88.023888 
L 234.76102 90.128081 
L 232.544021 92.964168 
L 229.634211 95.159848 
L 225.893026 96.532147 
L 223.468185 97.812961 
L 221.597592 99.917154 
L 219.242032 105.22338 
L 217.717845 106.87014 
L 210.235476 110.072173 
L 205.24723 112.450826 
L 202.96095 112.084879 
L 196.58708 107.602033 
L 196.517799 106.138247 
L 199.150484 101.10648 
L 201.506045 97.538501 
L 205.524355 89.670648 
L 206.840697 88.115375 
L 210.096914 82.534689 
L 213.768817 75.490216 
L 214.946597 72.837103 
L 217.717845 68.26277 
L 219.865562 63.04803 
L 223.537466 57.009911 
L 226.170151 52.252605 
L 229.495649 50.148412 
L 229.980617 47.037865 
L 231.851209 43.103939 
L 232.059053 41.182719 
L 233.998927 38.255146 
L 235.107426 37.523253 
L 235.245988 36.24244 
L 237.532268 32.67446 
L 238.363642 32.4 
L 242.520514 33.955273 
L 244.321825 35.96798 
L 247.300916 37.523253 
L 249.587196 39.352986 
L 249.587196 39.352986 
" clip-path="url(#p3b0e498983)" style="fill: none; stroke: #000000; stroke-width: 3"/>
   </g>
  </g>
 </g>
 <defs>
  <clipPath id="p3b0e498983">
   <rect x="7.2" y="7.2" width="266.122934" height="554.4"/>
  </clipPath>
 </defs>
</svg>
