<?xml version="1.0" encoding="utf-8" standalone="no"?>
<!DOCTYPE svg PUBLIC "-//W3C//DTD SVG 1.1//EN"
  "http://www.w3.org/Graphics/SVG/1.1/DTD/svg11.dtd">
<svg xmlns:xlink="http://www.w3.org/1999/xlink" width="458.482326pt" height="568.8pt" viewBox="0 0 458.482326 568.8" xmlns="http://www.w3.org/2000/svg" version="1.1">
 <metadata>
  <rdf:RDF xmlns:dc="http://purl.org/dc/elements/1.1/" xmlns:cc="http://creativecommons.org/ns#" xmlns:rdf="http://www.w3.org/1999/02/22-rdf-syntax-ns#">
   <cc:Work>
    <dc:type rdf:resource="http://purl.org/dc/dcmitype/StillImage"/>
    <dc:date>2023-09-25T14:14:27.021941</dc:date>
    <dc:format>image/svg+xml</dc:format>
    <dc:creator>
     <cc:Agent>
      <dc:title>Matplotlib v3.6.2, https://matplotlib.org/</dc:title>
     </cc:Agent>
    </dc:creator>
   </cc:Work>
  </rdf:RDF>
 </metadata>
 <defs>
  <style type="text/css">*{stroke-linejoin: round; stroke-linecap: butt}</style>
 </defs>
 <g id="figure_1">
  <g id="patch_1">
   <path d="M 0 568.8 
L 458.482326 568.8 
L 458.482326 0 
L 0 0 
z
" style="fill: #ffffff"/>
  </g>
  <g id="axes_1">
   <g id="LineCollection_1">
    <path d="M 431.096766 60.624 
L 430.333607 58.8096 
L 422.396751 55.9872 
L 407.744095 46.1088 
L 401.944085 44.2944 
L 389.580907 36.0288 
L 382.254579 32.4 
L 378.133519 32.6016 
L 375.69141 39.8592 
L 373.401932 42.6816 
L 366.838763 56.7936 
L 362.107176 62.8416 
L 358.29138 69.2928 
L 353.101898 82.1952 
L 349.13347 88.6464 
L 343.33346 100.944 
L 340.433456 104.1696 
L 334.480814 115.6608 
L 332.954496 117.072 
L 324.254481 130.9824 
L 317.996576 144.288 
L 315.096571 148.7232 
L 307.617611 163.2384 
L 305.938661 164.2464 
L 304.717606 169.6896 
L 294.491273 184.8096 
L 289.301791 198.72 
L 290.828109 201.744 
L 301.054442 209.4048 
L 307.159715 216.4608 
L 302.886024 221.0976 
L 300.138651 227.5488 
L 294.338641 237.8304 
L 290.980741 245.2896 
L 282.891253 259.4016 
L 280.754408 260.208 
L 278.46493 265.8528 
L 272.970184 272.5056 
L 270.222811 278.1504 
L 266.101752 283.392 
L 265.491224 286.416 
L 257.096473 303.3504 
L 252.212254 311.4144 
L 242.443817 330.768 
L 234.659593 345.2832 
L 226.112211 360.2016 
L 221.533255 364.032 
L 221.227992 367.056 
L 216.496405 373.3056 
L 214.664823 379.5552 
L 208.864813 387.4176 
L 208.559549 390.6432 
L 202.75954 400.9248 
L 199.859535 407.7792 
L 195.891107 414.0288 
L 192.380575 421.8912 
L 188.106883 428.3424 
L 186.885829 431.7696 
L 181.848978 438.4224 
L 178.64371 446.2848 
L 173.759491 452.5344 
L 170.248959 453.744 
L 167.501586 451.5264 
L 159.412098 447.2928 
L 145.522601 439.0272 
L 134.685741 431.1648 
L 127.96994 431.7696 
L 125.069935 433.7856 
L 125.833094 435.6 
L 123.238353 440.2368 
L 114.996234 437.616 
L 110.417279 437.8176 
L 104.769901 434.7936 
L 102.17516 431.3664 
L 97.748837 430.7616 
L 94.848832 428.9472 
L 86.606713 426.528 
L 84.927762 423.3024 
L 81.722494 422.0928 
L 81.569862 419.2704 
L 78.211962 416.6496 
L 68.13826 415.2384 
L 63.559305 413.0208 
L 62.490883 414.0288 
L 57.606664 412.0128 
L 55.62245 408.9888 
L 53.027709 410.6016 
L 42.34348 428.1408 
L 33.643466 446.8896 
L 27.538192 467.6544 
L 27.38556 475.5168 
L 36.238207 482.5728 
L 37.459261 485.1936 
L 41.122426 487.008 
L 44.327694 484.7904 
L 47.532963 487.8144 
L 55.62245 492.8544 
L 75.159325 502.5312 
L 83.554076 507.7728 
L 86.911976 511.2 
L 91.033036 512.8128 
L 100.954105 518.8608 
L 107.97517 522.0864 
L 124.61204 530.9568 
L 129.801522 536.4 
L 137.738378 524.9088 
L 138.348905 522.288 
L 144.301547 513.6192 
L 154.985775 494.8704 
L 172.080541 463.2192 
L 182.764769 445.4784 
L 185.970038 438.624 
L 194.212157 423.3024 
L 201.843749 410.6016 
L 203.980594 405.36 
L 213.138504 390.24 
L 217.71746 379.7568 
L 225.654315 366.4512 
L 233.591171 351.936 
L 237.71223 345.4848 
L 241.375394 338.2272 
L 245.801717 327.3408 
L 251.143832 317.664 
L 254.501732 313.2288 
L 263.659642 297.504 
L 266.559647 291.456 
L 276.480716 273.5136 
L 279.228089 267.6672 
L 283.196517 261.8208 
L 292.507059 244.2816 
L 307.922875 218.6784 
L 313.722884 206.3808 
L 320.591317 196.0992 
L 322.728163 189.0432 
L 326.543959 184.4064 
L 330.970282 175.7376 
L 336.159764 167.8752 
L 341.959774 157.392 
L 346.691361 147.7152 
L 357.680853 128.7648 
L 364.701917 114.048 
L 368.670345 108.4032 
L 378.591415 89.856 
L 385.154583 86.832 
L 386.680902 81.792 
L 385.612479 78.1632 
L 386.986166 74.736 
L 403.623036 46.512 
L 406.370409 45.7056 
L 427.433602 59.4144 
L 430.333607 62.8416 
L 430.333607 62.8416 
" clip-path="url(#p6fc6a1a5fa)" style="fill: none; stroke: #000000; stroke-width: 3"/>
   </g>
  </g>
 </g>
 <defs>
  <clipPath id="p6fc6a1a5fa">
   <rect x="7.2" y="7.2" width="444.082326" height="554.4"/>
  </clipPath>
 </defs>
</svg>
