<?xml version="1.0" encoding="utf-8" standalone="no"?>
<!DOCTYPE svg PUBLIC "-//W3C//DTD SVG 1.1//EN"
  "http://www.w3.org/Graphics/SVG/1.1/DTD/svg11.dtd">
<svg xmlns:xlink="http://www.w3.org/1999/xlink" width="287.826944pt" height="568.8pt" viewBox="0 0 287.826944 568.8" xmlns="http://www.w3.org/2000/svg" version="1.1">
 <metadata>
  <rdf:RDF xmlns:dc="http://purl.org/dc/elements/1.1/" xmlns:cc="http://creativecommons.org/ns#" xmlns:rdf="http://www.w3.org/1999/02/22-rdf-syntax-ns#">
   <cc:Work>
    <dc:type rdf:resource="http://purl.org/dc/dcmitype/StillImage"/>
    <dc:date>2023-09-25T14:14:26.830636</dc:date>
    <dc:format>image/svg+xml</dc:format>
    <dc:creator>
     <cc:Agent>
      <dc:title>Matplotlib v3.6.2, https://matplotlib.org/</dc:title>
     </cc:Agent>
    </dc:creator>
   </cc:Work>
  </rdf:RDF>
 </metadata>
 <defs>
  <style type="text/css">*{stroke-linejoin: round; stroke-linecap: butt}</style>
 </defs>
 <g id="figure_1">
  <g id="patch_1">
   <path d="M 0 568.8 
L 287.826944 568.8 
L 287.826944 0 
L 0 0 
z
" style="fill: #ffffff"/>
  </g>
  <g id="axes_1">
   <g id="LineCollection_1">
    <path d="M 33.343192 535.555465 
L 29.861223 536.4 
L 25.455466 534.054068 
L 23.039406 532.083485 
L 20.765467 533.491044 
L 19.628497 532.834184 
L 22.115618 528.517669 
L 21.689255 527.954645 
L 23.252588 525.984063 
L 23.750012 520.823012 
L 24.389557 521.292199 
L 26.023951 519.415453 
L 28.937435 515.005101 
L 32.064101 508.905679 
L 32.277283 507.028933 
L 34.622282 502.712419 
L 38.246372 497.363694 
L 38.317433 495.76846 
L 40.804554 492.108807 
L 41.941523 489.106014 
L 45.707735 483.663452 
L 48.123795 479.159263 
L 49.331825 478.314727 
L 52.600612 472.872165 
L 53.5244 471.839955 
L 54.306066 468.086464 
L 57.14849 463.206926 
L 58.640762 459.828784 
L 58.640762 458.702737 
L 60.275156 455.13692 
L 64.609852 449.131335 
L 64.538791 448.005288 
L 66.386367 446.222379 
L 66.954851 444.81482 
L 70.863184 439.559933 
L 73.066062 438.152374 
L 73.279244 436.181791 
L 74.913638 432.991324 
L 76.40591 431.771439 
L 76.761213 429.894694 
L 79.461516 425.953528 
L 79.106213 425.765854 
L 80.598485 421.824688 
L 80.456364 420.510966 
L 82.161818 416.663638 
L 81.806515 416.006777 
L 89.409998 408.593632 
L 89.267877 407.936772 
L 92.891967 401.086651 
L 94.526361 397.145485 
L 96.587118 396.394787 
L 98.932118 392.172109 
L 99.358481 392.265947 
L 100.069087 388.324781 
L 102.200905 385.228151 
L 102.698329 382.882219 
L 105.25651 377.721169 
L 106.606662 376.782796 
L 107.033025 375.469075 
L 106.109237 372.747794 
L 102.76939 369.932675 
L 101.277117 367.868255 
L 100.779693 365.146974 
L 101.348178 363.270229 
L 105.753935 358.672203 
L 108.454237 352.478942 
L 110.657115 347.974753 
L 113.5706 342.719866 
L 115.418175 340.373934 
L 118.544841 337.558816 
L 121.103022 336.620443 
L 126.148324 337.464979 
L 131.193626 340.092422 
L 133.325444 340.092422 
L 135.457262 339.435561 
L 138.512867 337.464979 
L 140.502564 335.306721 
L 141.994836 332.866952 
L 143.273927 329.394973 
L 144.481957 327.518228 
L 147.750744 324.515435 
L 150.308925 323.014038 
L 154.714682 319.260547 
L 156.064833 317.008453 
L 158.338772 311.472054 
L 158.480893 308.938447 
L 157.628166 305.091119 
L 156.278015 301.525303 
L 155.993773 298.616347 
L 157.201803 294.956693 
L 159.831045 291.29704 
L 162.88665 288.575759 
L 167.64771 285.385291 
L 169.282103 282.288661 
L 169.068922 278.347496 
L 170.845436 272.904934 
L 172.124527 267.462372 
L 173.68786 262.958183 
L 176.601344 257.140272 
L 178.591041 254.325154 
L 183.352101 249.351778 
L 186.265585 245.035263 
L 188.397403 239.968051 
L 191.097705 234.431651 
L 192.589977 232.273394 
L 196.49831 229.082927 
L 201.33043 227.206181 
L 203.817551 227.018507 
L 208.081186 227.863042 
L 211.847398 227.769205 
L 213.979216 227.206181 
L 216.253154 225.329436 
L 218.811336 221.482108 
L 224.851486 210.596984 
L 228.830879 204.122212 
L 230.18103 201.119419 
L 235.936938 190.891156 
L 238.850423 185.073245 
L 241.337543 180.944405 
L 242.403452 177.753938 
L 242.829816 174.375796 
L 242.545573 170.80998 
L 243.469361 165.179743 
L 243.682543 162.270788 
L 243.32724 160.394042 
L 240.98224 155.702178 
L 240.200574 153.262409 
L 240.769059 148.852057 
L 241.834967 146.224614 
L 245.174815 140.50054 
L 249.36739 135.527164 
L 254.839056 129.615416 
L 256.189207 127.457159 
L 256.899813 124.172854 
L 256.189207 119.950177 
L 256.331328 116.572035 
L 257.041934 112.443195 
L 258.392085 107.09447 
L 259.102691 105.686911 
L 261.518751 102.96563 
L 266.990417 99.493651 
L 268.127386 98.086092 
L 268.198447 94.332601 
L 265.995569 92.174344 
L 263.934811 91.892832 
L 260.026479 93.394228 
L 256.828752 95.927835 
L 253.844207 96.021672 
L 252.280874 94.520276 
L 251.854511 90.766785 
L 257.75254 83.165965 
L 259.529055 80.163173 
L 261.30557 75.658983 
L 261.447691 71.154794 
L 259.742237 68.527351 
L 257.112995 65.712232 
L 253.204662 62.70944 
L 251.143905 61.67723 
L 246.596027 60.551182 
L 241.337543 59.706647 
L 238.139817 58.768274 
L 235.297393 59.23746 
L 233.73406 60.363508 
L 232.312848 62.33409 
L 231.673303 65.899907 
L 232.099666 67.307466 
L 234.018302 69.653398 
L 239.845271 72.750028 
L 241.621786 75.752821 
L 242.11921 80.350847 
L 243.540422 86.356433 
L 243.114058 88.983876 
L 241.550725 92.080506 
L 237.713453 95.552486 
L 230.323152 98.742953 
L 228.333455 100.713536 
L 226.272698 105.780748 
L 223.785577 108.971216 
L 221.653759 110.097263 
L 215.329367 112.443195 
L 212.202701 113.850754 
L 208.720732 113.193893 
L 202.4674 108.877379 
L 203.391187 105.780748 
L 208.436489 96.397021 
L 208.720732 94.332601 
L 210.284065 92.268181 
L 213.694973 86.45027 
L 215.613609 82.696779 
L 220.019366 75.002123 
L 223.288153 68.339676 
L 232.597091 51.918153 
L 233.73406 51.730478 
L 236.007999 48.727686 
L 235.723757 46.381754 
L 240.697998 38.217911 
L 241.621786 37.467213 
L 243.540422 32.963024 
L 244.53527 32.4 
L 248.443602 34.089071 
L 249.509511 35.215118 
L 252.422996 36.904189 
L 252.849359 37.748725 
L 256.189207 38.780935 
L 256.189207 38.780935 
" clip-path="url(#p15f154fda8)" style="fill: none; stroke: #000000; stroke-width: 3"/>
   </g>
  </g>
 </g>
 <defs>
  <clipPath id="p15f154fda8">
   <rect x="7.2" y="7.2" width="273.426944" height="554.4"/>
  </clipPath>
 </defs>
</svg>
