<?xml version="1.0" encoding="utf-8" standalone="no"?>
<!DOCTYPE svg PUBLIC "-//W3C//DTD SVG 1.1//EN"
  "http://www.w3.org/Graphics/SVG/1.1/DTD/svg11.dtd">
<svg xmlns:xlink="http://www.w3.org/1999/xlink" width="299.850272pt" height="568.8pt" viewBox="0 0 299.850272 568.8" xmlns="http://www.w3.org/2000/svg" version="1.1">
 <metadata>
  <rdf:RDF xmlns:dc="http://purl.org/dc/elements/1.1/" xmlns:cc="http://creativecommons.org/ns#" xmlns:rdf="http://www.w3.org/1999/02/22-rdf-syntax-ns#">
   <cc:Work>
    <dc:type rdf:resource="http://purl.org/dc/dcmitype/StillImage"/>
    <dc:date>2023-09-25T14:14:26.514858</dc:date>
    <dc:format>image/svg+xml</dc:format>
    <dc:creator>
     <cc:Agent>
      <dc:title>Matplotlib v3.6.2, https://matplotlib.org/</dc:title>
     </cc:Agent>
    </dc:creator>
   </cc:Work>
  </rdf:RDF>
 </metadata>
 <defs>
  <style type="text/css">*{stroke-linejoin: round; stroke-linecap: butt}</style>
 </defs>
 <g id="figure_1">
  <g id="patch_1">
   <path d="M 0 568.8 
L 299.850272 568.8 
L 299.850272 0 
L 0 0 
z
" style="fill: #ffffff"/>
  </g>
  <g id="axes_1">
   <g id="LineCollection_1">
    <path d="M 32.638786 534.133281 
L 32.564153 536.4 
L 34.206087 533.640516 
L 31.892452 535.513023 
L 30.549052 534.231834 
L 28.459317 533.541963 
L 27.339816 534.42894 
L 23.608148 532.753539 
L 23.085714 530.48682 
L 20.175012 528.614314 
L 20.921346 525.263512 
L 22.861814 523.391005 
L 23.234981 521.715604 
L 25.921782 516.393743 
L 27.787617 513.732812 
L 29.504184 509.889245 
L 31.146119 508.016738 
L 33.011953 503.976066 
L 33.310487 502.300665 
L 35.027054 500.526711 
L 37.489956 495.796167 
L 38.833356 494.21932 
L 38.90799 492.543919 
L 41.221624 488.996011 
L 46.222061 480.619007 
L 48.087895 478.549394 
L 49.505929 473.917403 
L 51.371763 473.424638 
L 51.670297 471.453578 
L 53.834665 467.610012 
L 56.222933 464.062104 
L 57.640967 459.134454 
L 60.402402 455.783653 
L 61.372636 451.447321 
L 63.163837 449.673367 
L 63.611637 447.899413 
L 66.298439 444.844271 
L 67.194039 442.577552 
L 69.731574 438.832538 
L 71.000341 435.087524 
L 73.985676 431.342511 
L 76.373944 425.626437 
L 78.239779 423.064059 
L 80.180246 418.13641 
L 82.867048 415.672585 
L 83.911915 410.843488 
L 86.150917 410.744935 
L 87.494317 407.197028 
L 88.912351 405.62018 
L 91.449886 404.338991 
L 91.449886 402.66359 
L 93.688887 397.735941 
L 94.808388 391.527102 
L 97.71909 389.457489 
L 99.361024 387.092217 
L 103.018059 383.642863 
L 103.839027 380.686273 
L 103.988293 378.222448 
L 107.570695 370.239656 
L 107.570695 369.05702 
L 109.137996 366.790301 
L 109.137996 362.651075 
L 103.540493 357.821979 
L 103.24196 353.387094 
L 104.80926 351.416034 
L 107.570695 349.543528 
L 109.958963 346.094173 
L 111.451631 341.856394 
L 115.556467 333.47939 
L 118.243268 329.044505 
L 122.945171 325.102386 
L 126.154406 324.215409 
L 129.886075 324.708174 
L 134.886511 327.467657 
L 137.050879 327.861869 
L 139.588414 327.467657 
L 142.051315 325.989363 
L 144.81275 323.722644 
L 146.454684 321.061713 
L 148.096618 316.725381 
L 150.33562 313.670239 
L 152.723888 311.699179 
L 157.873591 308.44693 
L 160.485759 306.081658 
L 163.769627 298.394525 
L 164.441328 295.043723 
L 164.068161 291.594368 
L 162.351593 287.750802 
L 162.202326 283.611576 
L 163.39646 280.359327 
L 165.113028 277.402738 
L 167.426663 274.84036 
L 172.874899 271.095346 
L 175.263167 269.025733 
L 175.934868 266.95612 
L 175.636334 263.30966 
L 178.994836 251.187642 
L 179.74117 247.541181 
L 180.786037 244.88025 
L 184.069906 239.065624 
L 190.861543 232.265467 
L 193.025911 228.126242 
L 197.578547 218.270943 
L 200.190715 214.328823 
L 202.877516 211.864998 
L 204.817984 210.780915 
L 209.743787 209.204067 
L 211.982788 209.006961 
L 215.78909 210.091044 
L 219.744659 210.386703 
L 221.909027 209.795385 
L 225.043629 207.627219 
L 227.28263 204.572077 
L 231.611366 196.589284 
L 235.343035 189.000704 
L 237.731303 185.25569 
L 242.806372 175.893156 
L 251.239944 160.814548 
L 252.732611 155.886899 
L 252.732611 151.452014 
L 253.628212 142.483692 
L 252.956511 138.344466 
L 250.195076 133.219711 
L 250.04581 130.657333 
L 250.792143 127.207978 
L 253.702845 121.393352 
L 259.748149 113.016347 
L 264.897851 108.088698 
L 266.838319 105.230661 
L 267.659286 102.076965 
L 267.211486 93.601408 
L 267.883186 88.476652 
L 269.002687 83.943215 
L 271.689489 79.212671 
L 276.913825 75.763316 
L 279.003559 74.087916 
L 279.67526 71.229879 
L 277.734792 67.879077 
L 275.868958 67.189206 
L 273.182156 67.681971 
L 268.62952 70.244349 
L 265.569552 71.032773 
L 263.703717 70.047243 
L 262.285683 67.386312 
L 263.032017 64.429722 
L 266.912953 59.896285 
L 270.346088 54.870082 
L 272.510456 49.548221 
L 272.734356 46.098866 
L 271.988022 43.832147 
L 269.749021 40.875557 
L 266.465152 38.31318 
L 261.091549 35.060931 
L 256.613547 34.075401 
L 253.852112 34.075401 
L 246.761941 32.4 
L 243.627339 33.779742 
L 241.537605 37.229097 
L 241.089805 39.791474 
L 243.552706 44.127806 
L 249.448743 46.690184 
L 251.538477 49.351115 
L 252.284811 54.574423 
L 253.777478 59.107861 
L 253.777478 64.331169 
L 252.956511 66.203676 
L 250.568243 68.864607 
L 246.463408 71.722644 
L 244.597573 72.313962 
L 238.850803 75.171998 
L 236.537169 78.424247 
L 235.417668 82.169261 
L 234.522068 83.647556 
L 230.417232 86.407039 
L 225.864596 87.786781 
L 221.237327 90.644818 
L 217.580291 95.079703 
L 216.311524 98.036293 
L 213.475456 103.358154 
L 212.953022 105.230661 
L 210.26622 111.833711 
L 208.773553 113.804771 
L 201.235582 118.929527 
L 199.519014 121.196246 
L 198.623414 124.842706 
L 198.996581 130.657333 
L 198.399514 134.008135 
L 196.832213 136.373406 
L 193.473711 138.640125 
L 184.741606 142.08948 
L 179.74117 146.327259 
L 177.129002 147.115682 
L 178.397769 148.101212 
L 177.875335 149.776613 
L 175.636334 153.817286 
L 174.069033 157.759406 
L 173.397333 161.20876 
L 173.845133 165.15088 
L 176.681201 173.429331 
L 176.979735 177.371451 
L 175.710967 181.510677 
L 171.307598 188.507939 
L 166.605696 192.745718 
L 163.321827 194.913883 
L 161.157459 196.983496 
L 159.515525 201.024169 
L 159.216991 204.079312 
L 159.664792 209.204067 
L 159.515525 211.175127 
L 158.545291 213.836058 
L 156.53019 217.482519 
L 155.485323 217.679625 
L 153.768755 216.595542 
L 152.798521 214.23027 
L 149.813186 211.27368 
L 148.619052 209.204067 
L 147.872718 206.641689 
L 145.70835 204.67063 
L 140.931814 202.995229 
L 136.155278 200.531404 
L 132.199709 197.180602 
L 131.229475 197.180602 
L 126.154406 194.519671 
L 124.437838 192.745718 
L 122.945171 192.844271 
L 118.168635 199.74298 
L 115.6311 202.896676 
L 114.9594 203.093782 
L 112.869665 206.148925 
L 111.675531 209.401173 
L 110.257497 211.864998 
L 107.719962 217.778178 
L 104.13756 223.395698 
L 102.719526 226.549394 
L 100.331258 230.787172 
L 96.972756 229.505984 
L 95.554722 228.323348 
L 90.628919 225.859523 
L 89.434785 224.77544 
L 83.911915 221.720297 
L 83.090948 222.607274 
L 83.090948 222.607274 
" clip-path="url(#pb266069e24)" style="fill: none; stroke: #000000; stroke-width: 3"/>
   </g>
  </g>
 </g>
 <defs>
  <clipPath id="pb266069e24">
   <rect x="7.2" y="7.2" width="285.450272" height="554.4"/>
  </clipPath>
 </defs>
</svg>
