<?xml version="1.0" encoding="utf-8" standalone="no"?>
<!DOCTYPE svg PUBLIC "-//W3C//DTD SVG 1.1//EN"
  "http://www.w3.org/Graphics/SVG/1.1/DTD/svg11.dtd">
<svg xmlns:xlink="http://www.w3.org/1999/xlink" width="387.807433pt" height="568.8pt" viewBox="0 0 387.807433 568.8" xmlns="http://www.w3.org/2000/svg" version="1.1">
 <metadata>
  <rdf:RDF xmlns:dc="http://purl.org/dc/elements/1.1/" xmlns:cc="http://creativecommons.org/ns#" xmlns:rdf="http://www.w3.org/1999/02/22-rdf-syntax-ns#">
   <cc:Work>
    <dc:type rdf:resource="http://purl.org/dc/dcmitype/StillImage"/>
    <dc:date>2023-09-25T14:14:26.251093</dc:date>
    <dc:format>image/svg+xml</dc:format>
    <dc:creator>
     <cc:Agent>
      <dc:title>Matplotlib v3.6.2, https://matplotlib.org/</dc:title>
     </cc:Agent>
    </dc:creator>
   </cc:Work>
  </rdf:RDF>
 </metadata>
 <defs>
  <style type="text/css">*{stroke-linejoin: round; stroke-linecap: butt}</style>
 </defs>
 <g id="figure_1">
  <g id="patch_1">
   <path d="M 0 568.8 
L 387.807433 568.8 
L 387.807433 0 
L 0 0 
z
" style="fill: #ffffff"/>
  </g>
  <g id="axes_1">
   <g id="LineCollection_1">
    <path d="M 27.629398 521.888192 
L 24.173065 519.768489 
L 30.71541 507.376383 
L 35.406148 499.875898 
L 39.356243 492.049304 
L 46.39235 480.14636 
L 49.478362 473.298091 
L 52.811255 468.732578 
L 62.069291 453.242446 
L 69.105398 440.03507 
L 73.302374 433.023746 
L 76.635266 425.523261 
L 94.040373 394.216888 
L 94.657576 391.771077 
L 98.48423 386.553348 
L 100.582718 381.172566 
L 105.643778 374.48735 
L 114.284611 358.67111 
L 115.889337 356.551407 
L 120.333194 348.072598 
L 121.073837 344.648463 
L 126.752099 335.19133 
L 131.689718 323.940602 
L 134.158527 319.212035 
L 138.108622 313.994306 
L 143.293122 305.352443 
L 162.056074 270.132773 
L 173.165717 251.218505 
L 175.140764 246.489939 
L 183.040955 231.815076 
L 185.633205 228.553995 
L 193.286514 213.879133 
L 196.495966 208.824458 
L 200.199181 201.323973 
L 208.840014 186.975218 
L 213.777633 176.865869 
L 213.16043 173.767842 
L 209.333776 170.83287 
L 211.185383 173.767842 
L 213.777633 173.604788 
L 218.468371 163.332384 
L 205.383681 155.994953 
L 204.643038 154.690521 
L 196.125645 149.309738 
L 192.669312 145.396441 
L 187.237931 143.276739 
L 188.472336 139.852604 
L 192.545871 132.515173 
L 196.002205 127.623552 
L 207.72905 107.894015 
L 210.691621 101.697962 
L 215.012037 94.523585 
L 215.382359 92.566936 
L 218.715252 88.001423 
L 222.171585 81.153154 
L 225.381037 76.261533 
L 224.516954 72.837399 
L 222.048144 74.630993 
L 221.430942 72.674345 
L 226.245121 71.043805 
L 229.084251 67.782724 
L 232.787466 60.445293 
L 238.712608 51.640375 
L 240.687656 47.400971 
L 249.205049 32.4 
L 254.63643 34.519702 
L 266.857036 42.346296 
L 280.435489 50.335943 
L 281.546453 50.172889 
L 287.718476 54.412294 
L 290.434167 55.553672 
L 296.976512 59.793077 
L 298.704679 62.238887 
L 301.66725 63.380265 
L 300.432845 67.782724 
L 295.495226 77.565966 
L 289.940405 86.696991 
L 285.496548 91.09945 
L 279.941727 105.28515 
L 276.732274 111.155095 
L 273.893143 119.307797 
L 272.288417 127.623552 
L 270.066489 133.004335 
L 268.091441 142.135361 
L 265.25231 150.288062 
L 262.66006 164.147654 
L 259.697489 170.506762 
L 261.919417 174.09395 
L 267.968001 178.496409 
L 275.991631 183.38803 
L 279.447965 184.855516 
L 290.063845 191.866839 
L 291.792012 195.454028 
L 298.087476 196.432352 
L 300.309405 195.454028 
L 306.111107 197.736784 
L 317.714512 204.421999 
L 323.022452 206.704756 
L 327.71319 210.12889 
L 331.169523 210.454998 
L 333.268011 209.476674 
L 336.847785 204.095891 
L 348.327749 181.594435 
L 337.588428 174.90922 
L 337.588428 176.865869 
L 345.365178 180.290003 
L 347.587106 179.637787 
L 351.413761 175.072274 
L 356.968582 166.919573 
L 361.782761 158.114655 
L 363.634368 153.223035 
L 362.646844 149.146684 
L 359.06707 145.885603 
L 343.513571 136.102362 
L 345.85894 135.939308 
L 344.377654 133.982659 
L 339.440035 131.210741 
L 334.502416 129.743255 
L 333.268011 127.623552 
L 335.48994 121.916661 
L 340.79788 111.155095 
L 342.279166 104.632934 
L 336.354023 115.231446 
L 327.342869 132.352119 
L 323.392773 138.711226 
L 321.541166 144.744225 
L 318.084833 148.820576 
L 312.900333 158.277709 
L 313.517535 160.071304 
L 322.034928 167.245681 
L 326.231904 168.876221 
L 329.317916 171.485086 
L 338.20563 175.235328 
L 339.563475 177.681139 
L 345.735499 181.105273 
L 344.871416 183.714138 
L 340.427559 189.094921 
L 332.774249 203.280621 
L 330.42888 206.378648 
L 330.30544 209.802782 
L 328.577273 212.248593 
L 326.231904 212.900809 
L 318.825476 212.411647 
L 314.875381 211.270269 
L 308.579917 210.781106 
L 303.271976 208.987512 
L 299.445321 209.31362 
L 294.507703 212.248593 
L 291.792012 216.487997 
L 290.681048 222.194888 
L 293.8905 227.412617 
L 296.853072 229.695374 
L 303.889179 232.7934 
L 307.715833 238.174183 
L 308.826797 247.631317 
L 311.048726 254.479586 
L 310.925286 263.284503 
L 307.098631 268.502232 
L 303.025095 272.741637 
L 296.235869 276.165772 
L 289.323203 278.93769 
L 286.11375 282.035717 
L 283.027738 286.601229 
L 282.657417 289.04704 
L 279.818286 294.101715 
L 277.226036 296.547525 
L 273.399382 298.504173 
L 265.005429 301.113038 
L 255.870834 307.472145 
L 252.414501 312.689874 
L 246.98312 323.614494 
L 243.403346 328.506115 
L 241.79862 333.723843 
L 239.08293 339.430734 
L 235.009394 345.463733 
L 226.862323 350.029246 
L 223.52943 353.127273 
L 220.81374 359.975542 
L 220.443418 364.378001 
L 220.690299 373.67208 
L 219.579335 377.748431 
L 217.357406 381.498674 
L 209.333776 386.390294 
L 201.803907 389.162213 
L 196.619407 392.260239 
L 190.200502 397.96713 
L 185.139443 404.978454 
L 180.201824 414.761695 
L 179.461181 421.773018 
L 179.584622 428.621288 
L 183.658157 444.437528 
L 183.781598 453.894662 
L 178.226776 463.188742 
L 175.017324 467.428146 
L 167.857777 475.091686 
L 160.94511 480.14636 
L 157.488777 485.690197 
L 156.377812 490.25571 
L 156.748134 498.73452 
L 156.377812 506.561113 
L 153.662122 512.594112 
L 151.810515 514.713814 
L 149.218265 515.36603 
L 145.761932 512.431058 
L 144.774408 509.985247 
L 139.836789 504.767519 
L 137.36798 496.777871 
L 133.047563 493.679845 
L 130.949075 494.332061 
L 126.875539 492.538467 
L 110.581397 483.733549 
L 107.989147 481.776901 
L 104.285933 480.635522 
L 99.595195 475.091686 
L 96.632623 473.950307 
L 91.324683 478.026658 
L 89.226195 480.961631 
L 85.646421 487.972954 
L 82.80729 491.234034 
L 78.610314 498.73452 
L 76.758707 500.202006 
L 73.302374 509.169977 
L 68.735076 514.387706 
L 67.006909 520.909867 
L 59.23016 534.443352 
L 57.131672 536.4 
L 53.675338 535.58473 
L 50.712767 532.486703 
L 47.379874 530.530055 
L 41.20785 528.736461 
L 31.209172 524.170948 
L 31.209172 524.170948 
" clip-path="url(#pa14326a0ad)" style="fill: none; stroke: #000000; stroke-width: 3"/>
   </g>
  </g>
 </g>
 <defs>
  <clipPath id="pa14326a0ad">
   <rect x="7.2" y="7.2" width="373.407433" height="554.4"/>
  </clipPath>
 </defs>
</svg>
