<?xml version="1.0" encoding="utf-8" standalone="no"?>
<!DOCTYPE svg PUBLIC "-//W3C//DTD SVG 1.1//EN"
  "http://www.w3.org/Graphics/SVG/1.1/DTD/svg11.dtd">
<svg xmlns:xlink="http://www.w3.org/1999/xlink" width="262.728835pt" height="568.8pt" viewBox="0 0 262.728835 568.8" xmlns="http://www.w3.org/2000/svg" version="1.1">
 <metadata>
  <rdf:RDF xmlns:dc="http://purl.org/dc/elements/1.1/" xmlns:cc="http://creativecommons.org/ns#" xmlns:rdf="http://www.w3.org/1999/02/22-rdf-syntax-ns#">
   <cc:Work>
    <dc:type rdf:resource="http://purl.org/dc/dcmitype/StillImage"/>
    <dc:date>2023-09-25T14:14:25.868851</dc:date>
    <dc:format>image/svg+xml</dc:format>
    <dc:creator>
     <cc:Agent>
      <dc:title>Matplotlib v3.6.2, https://matplotlib.org/</dc:title>
     </cc:Agent>
    </dc:creator>
   </cc:Work>
  </rdf:RDF>
 </metadata>
 <defs>
  <style type="text/css">*{stroke-linejoin: round; stroke-linecap: butt}</style>
 </defs>
 <g id="figure_1">
  <g id="patch_1">
   <path d="M -0 568.8 
L 262.728835 568.8 
L 262.728835 0 
L -0 0 
z
" style="fill: #ffffff"/>
  </g>
  <g id="axes_1">
   <g id="LineCollection_1">
    <path d="M 189.2115 32.4 
L 197.124262 36.515578 
L 207.19505 40.947739 
L 214.148689 44.588442 
L 228.295747 53.769347 
L 233.211251 50.761809 
L 236.56818 45.379899 
L 238.366535 45.854774 
L 242.442806 51.553266 
L 244.241161 56.143719 
L 242.802477 60.734171 
L 236.328399 66.274372 
L 232.012347 71.814573 
L 229.734431 77.98794 
L 229.49465 86.535678 
L 230.333883 92.392462 
L 230.813444 105.055779 
L 229.854321 109.171357 
L 227.936076 113.286935 
L 225.058708 116.294472 
L 220.382986 118.035678 
L 215.467482 120.884925 
L 212.230443 123.575879 
L 206.715488 131.332161 
L 203.958011 136.397487 
L 199.641959 148.58593 
L 197.124262 157.608543 
L 193.887223 163.940201 
L 188.851829 170.271859 
L 181.058958 176.286935 
L 168.110803 190.216583 
L 163.075409 197.656281 
L 160.198041 204.779397 
L 159.71848 208.261809 
L 162.356067 218.234171 
L 164.514093 222.033166 
L 174.704771 231.847236 
L 173.505868 235.804523 
L 169.789267 241.977889 
L 167.15168 250.050754 
L 166.552229 253.691457 
L 164.514093 255.749246 
L 161.037274 261.922613 
L 159.478699 261.131156 
L 155.522318 266.038191 
L 150.606815 273.477889 
L 147.609557 279.492965 
L 143.413395 283.925126 
L 142.094602 288.515578 
L 138.857563 293.264322 
L 138.258111 295.480402 
L 132.863047 302.920101 
L 131.903924 306.402513 
L 129.266337 307.985427 
L 125.549737 314.158794 
L 119.795001 325.239196 
L 113.320923 336.003015 
L 107.206517 349.141206 
L 105.408162 356.580905 
L 102.051232 360.221608 
L 99.173865 366.078392 
L 96.536277 369.560804 
L 95.936826 371.935176 
L 87.424613 385.231658 
L 85.026806 391.088442 
L 80.590864 398.053266 
L 79.751632 401.377387 
L 77.713496 400.427638 
L 74.236677 401.69397 
L 72.318431 400.111055 
L 68.601831 405.967839 
L 66.803476 410.083417 
L 64.52556 417.839698 
L 64.765341 420.688945 
L 63.206766 422.905025 
L 63.806218 427.970352 
L 60.329399 435.884925 
L 58.291263 438.101005 
L 57.691811 442.058291 
L 53.975211 446.965327 
L 50.738172 455.038191 
L 47.261353 458.678894 
L 41.986178 467.701508 
L 38.86903 474.666332 
L 35.631991 479.88995 
L 34.313198 483.847236 
L 31.196049 487.329648 
L 29.038023 487.329648 
L 28.678352 492.236683 
L 25.561204 500.942714 
L 21.964494 507.907538 
L 18.487674 512.49799 
L 21.604823 516.613568 
L 24.841862 522.628643 
L 29.038023 526.269347 
L 29.997146 528.327136 
L 32.155172 528.010553 
L 36.471223 530.701508 
L 41.386727 532.442714 
L 45.462998 536.4 
L 47.381243 533.234171 
L 49.77905 534.18392 
L 52.176856 528.960302 
L 56.612798 524.686432 
L 57.691811 525.161307 
" clip-path="url(#p383683ccc5)" style="fill: none; stroke: #000000; stroke-width: 3"/>
   </g>
  </g>
 </g>
 <defs>
  <clipPath id="p383683ccc5">
   <rect x="7.2" y="7.2" width="248.328835" height="554.4"/>
  </clipPath>
 </defs>
</svg>
