<?xml version="1.0" encoding="utf-8" standalone="no"?>
<!DOCTYPE svg PUBLIC "-//W3C//DTD SVG 1.1//EN"
  "http://www.w3.org/Graphics/SVG/1.1/DTD/svg11.dtd">
<svg xmlns:xlink="http://www.w3.org/1999/xlink" width="300.81592pt" height="568.8pt" viewBox="0 0 300.81592 568.8" xmlns="http://www.w3.org/2000/svg" version="1.1">
 <metadata>
  <rdf:RDF xmlns:dc="http://purl.org/dc/elements/1.1/" xmlns:cc="http://creativecommons.org/ns#" xmlns:rdf="http://www.w3.org/1999/02/22-rdf-syntax-ns#">
   <cc:Work>
    <dc:type rdf:resource="http://purl.org/dc/dcmitype/StillImage"/>
    <dc:date>2023-09-25T14:14:25.815549</dc:date>
    <dc:format>image/svg+xml</dc:format>
    <dc:creator>
     <cc:Agent>
      <dc:title>Matplotlib v3.6.2, https://matplotlib.org/</dc:title>
     </cc:Agent>
    </dc:creator>
   </cc:Work>
  </rdf:RDF>
 </metadata>
 <defs>
  <style type="text/css">*{stroke-linejoin: round; stroke-linecap: butt}</style>
 </defs>
 <g id="figure_1">
  <g id="patch_1">
   <path d="M 0 568.8 
L 300.81592 568.8 
L 300.81592 0 
L 0 0 
z
" style="fill: #ffffff"/>
  </g>
  <g id="axes_1">
   <g id="LineCollection_1">
    <path d="M 61.911068 477.16737 
L 59.206355 477.341583 
L 56.963422 475.599447 
L 53.335148 474.292845 
L 51.751902 473.247563 
L 50.762373 476.731835 
L 51.158184 478.648185 
L 49.311063 480.651642 
L 49.904781 485.35541 
L 49.047189 487.881507 
L 49.113157 489.884964 
L 47.859754 492.933702 
L 48.453471 493.717663 
L 48.651377 496.417974 
L 47.463942 498.856965 
L 46.804256 502.341237 
L 46.012632 511.226132 
L 45.286978 512.271414 
L 45.155041 516.800968 
L 44.099543 517.759143 
L 45.550852 520.633667 
L 43.439857 525.337435 
L 44.033574 529.083028 
L 43.967606 532.218873 
L 43.373888 532.131766 
L 41.460798 536.4 
L 39.217866 536.225786 
L 34.072314 533.351262 
L 32.225193 532.828621 
L 29.98226 530.825164 
L 28.267076 530.825164 
L 24.902677 529.170135 
L 20.94456 527.602212 
L 20.218905 526.208503 
L 21.538278 523.246872 
L 24.440897 520.198133 
L 25.958175 517.236502 
L 26.15608 515.581473 
L 27.871264 512.445627 
L 28.728856 511.574559 
L 29.718385 508.00318 
L 31.367601 505.912617 
L 31.631475 504.606015 
L 33.082785 502.167024 
L 35.655561 499.292499 
L 37.700587 494.240304 
L 41.064987 488.491255 
L 40.933049 487.707293 
L 42.054516 483.961701 
L 44.495354 481.26139 
L 47.463942 476.906049 
L 48.255565 474.989699 
L 50.564467 471.940961 
L 51.883839 468.369582 
L 51.488027 467.58562 
L 52.213682 465.843484 
L 53.071274 461.749464 
L 56.303736 456.523056 
L 58.348763 454.955133 
L 62.900597 447.376841 
L 65.539341 443.631248 
L 65.473373 442.76018 
L 67.848243 437.882198 
L 68.705835 435.268994 
L 70.882799 433.526858 
L 72.993795 428.997304 
L 73.983324 427.603595 
L 75.170759 424.554857 
L 76.885943 421.767439 
L 78.601127 419.676875 
L 82.295369 412.098583 
L 82.757149 410.095126 
L 84.670239 406.523747 
L 86.187517 405.130038 
L 89.024167 400.16495 
L 88.232544 399.729416 
L 90.079665 396.767784 
L 91.003225 393.631939 
L 91.201131 390.757414 
L 89.81579 390.06056 
L 91.333068 388.405531 
L 92.652441 388.666851 
L 94.10375 387.098928 
L 96.676526 383.353336 
L 98.787522 380.827238 
L 101.888046 379.259316 
L 102.943544 377.430073 
L 104.328885 376.12347 
L 103.999042 373.074732 
L 105.648257 370.548635 
L 106.373912 368.632285 
L 105.648257 368.545178 
L 106.769724 365.844867 
L 107.89119 365.060906 
L 110.793809 360.095817 
L 112.904804 359.137643 
L 113.036742 357.482613 
L 114.092239 353.562807 
L 116.005329 352.865952 
L 117.85245 349.207466 
L 120.161352 346.245835 
L 120.095383 345.200553 
L 122.536222 342.413135 
L 124.581249 338.319115 
L 126.296433 335.967231 
L 125.570778 334.050881 
L 127.285962 330.218182 
L 129.660832 327.866298 
L 129.858738 325.427307 
L 128.605334 323.946492 
L 126.956119 322.988317 
L 125.306903 320.897753 
L 124.317374 317.674801 
L 124.713186 315.845558 
L 127.088056 314.016315 
L 129.067114 311.925752 
L 132.431513 304.782993 
L 133.816854 301.472935 
L 137.115285 296.072312 
L 139.424186 293.110681 
L 141.930993 291.020118 
L 144.437801 290.323263 
L 148.593823 291.368545 
L 151.760317 293.372001 
L 154.135187 293.981749 
L 155.454559 293.807535 
L 158.621052 292.500933 
L 160.666079 290.845904 
L 163.040949 287.535845 
L 164.624196 283.703146 
L 166.075505 281.525475 
L 168.516344 279.173591 
L 173.134147 276.21196 
L 175.772891 273.163222 
L 177.422106 270.027376 
L 178.939384 264.104113 
L 178.279698 261.75223 
L 176.630483 258.18085 
L 176.432577 255.045005 
L 176.894357 252.867335 
L 180.390694 247.902247 
L 181.973941 246.508538 
L 187.119492 242.850052 
L 188.17499 241.369236 
L 188.570802 238.320498 
L 188.240959 236.142828 
L 188.702739 234.052264 
L 192.067138 222.554165 
L 195.167663 216.718009 
L 198.004313 213.40795 
L 200.643058 210.794746 
L 202.160336 208.791289 
L 205.128923 203.564881 
L 206.184421 200.429036 
L 208.757197 195.463947 
L 209.812695 193.983132 
L 213.704843 190.76018 
L 219.444112 188.58251 
L 221.225264 188.58251 
L 225.843067 189.453578 
L 228.811655 189.192257 
L 231.450399 187.885655 
L 234.682861 183.617421 
L 238.970821 176.300449 
L 242.599094 169.331905 
L 248.272395 159.314622 
L 253.417947 149.907086 
L 255.726848 144.854891 
L 256.386534 140.847978 
L 256.386534 136.928171 
L 256.848314 133.182579 
L 257.639938 130.13384 
L 257.04622 125.604286 
L 254.275539 120.900518 
L 254.20957 118.548635 
L 255.462974 114.367508 
L 258.035749 109.66374 
L 262.455646 104.001797 
L 267.535229 98.426962 
L 269.580256 94.681369 
L 269.580256 90.326028 
L 269.184445 88.409679 
L 269.514288 84.576979 
L 270.437848 79.786104 
L 271.427378 76.650259 
L 274.725808 72.643346 
L 279.475548 69.855928 
L 280.597014 66.981403 
L 280.201203 65.500588 
L 278.617956 63.845558 
L 275.715337 63.497131 
L 272.944656 64.62952 
L 269.118476 67.155617 
L 267.403292 66.80719 
L 265.358265 64.542413 
L 265.424234 62.451849 
L 267.139418 59.925752 
L 270.437848 55.744625 
L 273.406436 49.995576 
L 273.934185 46.59841 
L 273.802248 44.072312 
L 273.076593 42.417283 
L 271.097534 40.065399 
L 267.931041 37.277981 
L 265.754077 35.797166 
L 262.389678 34.403457 
L 254.407476 33.096854 
L 252.164543 32.4 
L 249.261924 33.096854 
L 247.018991 35.274525 
L 246.227368 39.020118 
L 246.887054 41.372001 
L 249.129987 43.288351 
L 251.306951 43.985206 
L 254.20957 45.814449 
L 255.528942 48.253439 
L 255.858785 52.173246 
L 257.573969 58.183616 
L 256.848314 61.145247 
L 253.022135 66.110335 
L 250.317422 67.852471 
L 246.359305 69.24618 
L 244.182341 70.639889 
L 242.005377 73.775735 
L 240.817942 76.998686 
L 239.102758 78.827929 
L 235.276578 80.744279 
L 233.033646 81.441134 
L 230.526838 82.747736 
L 227.888094 84.838299 
L 225.975004 87.451504 
L 222.610605 93.200553 
L 218.916363 102.259661 
L 216.805367 104.872866 
L 214.892278 106.440788 
L 211.791753 108.270031 
L 210.0106 110.447701 
L 208.757197 114.454615 
L 208.955103 119.76813 
L 207.767668 123.60083 
L 205.524735 125.7785 
L 202.556147 127.259316 
L 198.663999 128.740131 
L 193.716353 131.963083 
L 190.879703 135.186035 
L 188.63677 138.496094 
L 186.921586 143.112755 
L 186.789649 147.990736 
L 187.251429 150.691047 
L 189.428394 158.26934 
L 189.560331 161.579399 
L 189.164519 163.060214 
L 186.591743 167.415555 
L 182.831532 172.119323 
L 180.522631 174.296993 
L 177.290169 176.56177 
L 175.970797 177.955479 
L 174.717393 180.394469 
L 174.255613 184.74981 
L 174.453519 188.321189 
L 174.189644 191.282821 
L 172.606398 194.505773 
L 169.967653 197.206084 
L 165.613725 200.951676 
L 162.97498 203.564881 
L 158.884927 209.05261 
L 154.860841 213.669271 
L 151.562411 216.108261 
L 150.902725 215.672727 
L 151.364505 213.582164 
L 150.572882 211.4916 
L 148.26398 208.791289 
L 147.472357 207.223367 
L 142.986491 205.132803 
L 141.733088 204.174628 
L 138.434657 202.606706 
L 132.629419 199.383754 
L 128.605334 197.641618 
L 126.758213 199.296647 
L 125.240935 201.387211 
L 121.612661 207.484687 
L 118.907948 205.916765 
L 114.949831 204.784376 
L 113.10271 203.651988 
L 106.637786 200.603249 
L 106.637786 200.603249 
" clip-path="url(#pd60c5fddd9)" style="fill: none; stroke: #000000; stroke-width: 3"/>
   </g>
  </g>
 </g>
 <defs>
  <clipPath id="pd60c5fddd9">
   <rect x="7.2" y="7.2" width="286.41592" height="554.4"/>
  </clipPath>
 </defs>
</svg>
