<?xml version="1.0" encoding="utf-8" standalone="no"?>
<!DOCTYPE svg PUBLIC "-//W3C//DTD SVG 1.1//EN"
  "http://www.w3.org/Graphics/SVG/1.1/DTD/svg11.dtd">
<svg xmlns:xlink="http://www.w3.org/1999/xlink" width="257.599257pt" height="568.8pt" viewBox="0 0 257.599257 568.8" xmlns="http://www.w3.org/2000/svg" version="1.1">
 <metadata>
  <rdf:RDF xmlns:dc="http://purl.org/dc/elements/1.1/" xmlns:cc="http://creativecommons.org/ns#" xmlns:rdf="http://www.w3.org/1999/02/22-rdf-syntax-ns#">
   <cc:Work>
    <dc:type rdf:resource="http://purl.org/dc/dcmitype/StillImage"/>
    <dc:date>2023-09-25T14:14:25.604519</dc:date>
    <dc:format>image/svg+xml</dc:format>
    <dc:creator>
     <cc:Agent>
      <dc:title>Matplotlib v3.6.2, https://matplotlib.org/</dc:title>
     </cc:Agent>
    </dc:creator>
   </cc:Work>
  </rdf:RDF>
 </metadata>
 <defs>
  <style type="text/css">*{stroke-linejoin: round; stroke-linecap: butt}</style>
 </defs>
 <g id="figure_1">
  <g id="patch_1">
   <path d="M -0 568.8 
L 257.599257 568.8 
L 257.599257 0 
L -0 0 
z
" style="fill: #ffffff"/>
  </g>
  <g id="axes_1">
   <g id="LineCollection_1">
    <path d="M 179.497732 79.249576 
L 190.314675 84.054661 
L 198.40211 89.927542 
L 201.738176 91.662712 
L 201.333805 93.664831 
L 198.098831 97.936017 
L 197.290087 100.338559 
L 193.448556 106.077966 
L 191.628883 111.15 
L 185.664401 121.827966 
L 183.035985 125.031356 
L 180.407568 129.436017 
L 177.880245 135.308898 
L 174.139807 141.448729 
L 173.432156 143.584322 
L 168.680789 150.124576 
L 167.669859 149.991102 
L 165.749094 157.332203 
L 164.2327 151.592797 
L 161.604284 149.724153 
L 157.156195 144.385169 
L 156.852916 148.522881 
L 155.336522 148.656356 
L 156.246359 146.253814 
L 156.246359 143.050424 
L 152.404827 140.380932 
L 149.270947 139.580085 
L 147.451274 137.177542 
L 142.49772 134.374576 
L 140.880234 136.24322 
L 139.161654 141.715678 
L 137.240888 140.781356 
L 137.240888 145.186017 
L 140.880234 145.719915 
L 144.014114 148.122458 
L 147.350181 151.859746 
L 150.585155 152.527119 
L 152.202641 156.397881 
L 152.101549 165.340678 
L 150.686248 168.143644 
L 150.989526 178.955085 
L 149.675318 184.427542 
L 148.158924 186.69661 
L 143.50865 196.440254 
L 141.183512 199.777119 
L 134.713565 196.707203 
L 127.738153 192.569492 
L 116.516838 187.897881 
L 114.090608 184.827966 
L 114.899351 183.893644 
L 119.145254 175.61822 
L 126.525038 162.137288 
L 129.658918 161.069492 
L 131.882963 163.338559 
L 136.229959 165.474153 
L 138.454003 167.476271 
L 144.317393 170.679661 
L 146.541437 172.548305 
L 150.281876 174.416949 
L 152.303734 176.952966 
L 152.809199 179.355508 
L 150.78734 184.961441 
L 149.270947 184.827966 
L 145.328322 188.164831 
L 144.620672 193.236864 
L 140.475862 202.44661 
L 138.858375 204.982627 
L 137.847446 210.455085 
L 147.350181 216.995339 
L 152.000456 217.796186 
L 154.2245 220.732627 
L 155.538708 219.664831 
L 155.639801 216.461441 
L 157.964938 211.255932 
L 156.852916 207.652119 
L 158.167124 203.113983 
L 157.257288 197.908475 
L 157.156195 188.565254 
L 158.470403 189.9 
L 163.626142 191.902119 
L 166.456744 193.770763 
L 168.680789 193.904237 
L 169.186253 195.238983 
L 174.544179 199.24322 
L 178.587896 200.711441 
L 180.407568 200.444492 
L 182.631613 197.908475 
L 186.372051 191.234746 
L 187.888445 187.363983 
L 190.516861 183.760169 
L 193.852928 175.751695 
L 195.975879 173.082203 
L 199.817411 166.942373 
L 206.69173 153.72839 
L 208.309217 151.592797 
L 210.229982 146.120339 
L 210.331075 140.781356 
L 197.290087 132.505932 
L 193.044184 130.770763 
L 189.910304 128.768644 
L 182.429427 125.43178 
L 175.555108 120.092797 
L 171.81467 118.491102 
L 165.749094 115.154237 
L 159.885704 113.552542 
L 155.336522 111.416949 
L 155.033243 109.548305 
L 158.773682 104.74322 
L 160.492262 100.872458 
L 166.153466 92.597034 
L 167.265488 89.260169 
L 170.80374 85.122458 
L 171.713577 84.988983 
L 173.836528 76.179661 
L 176.363851 73.109746 
L 180.003197 63.232627 
L 182.227241 58.027119 
L 186.776423 54.022881 
L 190.82014 48.550424 
L 191.628883 43.47839 
L 193.650742 41.609746 
L 193.24637 38.139407 
L 197.997738 35.736864 
L 199.817411 32.4 
L 206.792823 37.472034 
L 208.612495 38.005932 
L 214.071513 41.476271 
L 219.429439 44.145763 
L 224.787364 47.749576 
L 231.257311 40.808898 
L 230.650754 43.211441 
L 227.921245 47.349153 
L 225.090643 53.355508 
L 222.967691 55.624576 
L 219.631625 62.698729 
L 217.003208 67.370339 
L 211.443097 73.777119 
L 212.959491 75.245339 
L 218.519602 78.048305 
L 228.932174 84.722034 
L 232.874798 86.323729 
L 234.694471 88.592797 
L 239.344746 90.72839 
L 239.344746 94.065254 
L 234.391192 103.008051 
L 228.325616 111.683898 
L 226.000479 114.35339 
L 224.686271 117.823729 
L 222.158948 120.893644 
L 221.350204 123.563136 
L 218.014138 129.969915 
L 216.69993 131.304661 
L 214.779164 135.575847 
L 212.352934 139.313136 
L 210.229982 144.518644 
L 206.388451 152.393644 
L 203.355663 157.599153 
L 201.53599 162.137288 
L 196.885716 170.012288 
L 192.943091 174.817373 
L 190.213582 180.289831 
L 184.046914 189.099153 
L 182.328334 193.770763 
L 179.902104 197.775 
L 176.464944 205.516525 
L 174.847457 207.518644 
L 172.926692 211.789831 
L 169.388439 215.393644 
L 168.882975 218.330085 
L 166.65893 222.334322 
L 164.2327 228.741102 
L 161.098819 232.47839 
L 160.492262 235.014407 
L 158.571496 238.084322 
L 155.336522 238.217797 
L 152.404827 241.287712 
L 151.697177 244.891525 
L 152.404827 246.626695 
L 156.347452 251.298305 
L 159.076961 259.840678 
L 157.560567 269.851271 
L 156.246359 271.986864 
L 156.347452 275.857627 
L 157.358381 278.660593 
L 155.336522 278.393644 
L 154.932151 284.4 
L 155.94308 287.202966 
L 152.809199 289.338559 
L 149.473132 295.878814 
L 149.372039 299.082203 
L 154.022314 300.683898 
L 160.593354 303.887288 
L 153.112478 317.234746 
L 151.596084 320.705085 
L 147.350181 326.97839 
L 148.462203 327.512288 
L 143.104278 335.120339 
L 139.768211 342.327966 
L 136.735423 345.397881 
L 135.724494 351.137288 
L 133.197171 353.940254 
L 126.019573 366.620339 
L 120.257276 374.361864 
L 119.34744 375.029237 
L 115.809187 384.505932 
L 113.180771 386.908475 
L 112.270935 390.111864 
L 106.508638 397.719915 
L 101.75727 405.861864 
L 97.915739 414.671186 
L 97.814646 418.008051 
L 95.691695 420.677542 
L 93.973115 420.811017 
L 92.658907 424.014407 
L 91.951256 428.285593 
L 90.535955 429.620339 
L 87.806446 436.294068 
L 85.986774 438.69661 
L 84.066008 442.834322 
L 82.145242 445.503814 
L 80.426662 451.109746 
L 78.60699 452.444492 
L 74.664366 458.984746 
L 73.855622 461.654237 
L 72.137042 463.656356 
L 69.30644 470.463559 
L 65.464909 474.467797 
L 62.634307 479.940254 
L 61.117913 485.94661 
L 58.085125 489.683898 
L 56.669824 492.486864 
L 53.232665 496.491102 
L 52.525014 499.961441 
L 47.470368 507.436017 
L 44.235394 514.910593 
L 43.932115 517.313136 
L 40.494956 519.715678 
L 37.462168 517.847034 
L 34.631566 518.247458 
L 36.653425 519.715678 
L 44.639766 523.719915 
L 45.852881 523.452966 
L 49.391134 526.122458 
L 51.109713 528.791949 
L 51.918457 525.988983 
L 55.15343 528.124576 
L 59.803705 529.325847 
L 61.01682 533.19661 
L 64.150701 534.130932 
L 66.779117 535.999576 
L 69.508626 536.4 
L 74.361087 532.662712 
L 74.765459 529.459322 
L 65.262723 524.387288 
L 62.229935 522.251695 
L 59.601519 522.11822 
L 54.142501 519.048305 
L 50.402063 515.044068 
L 48.986762 512.775 
L 46.86381 511.30678 
L 45.347416 512.908475 
L 37.765447 507.969915 
L 31.598778 502.363983 
L 27.352875 500.094915 
L 26.13976 500.361864 
L 18.254512 495.823729 
L 20.781835 492.486864 
L 23.612437 487.147881 
L 29.981291 477.938136 
L 33.317358 472.599153 
L 35.137031 470.597034 
L 35.844681 465.258051 
L 38.473097 461.520763 
L 41.303699 455.247458 
L 44.740859 449.508051 
L 46.257253 448.440254 
L 45.751788 446.972034 
L 48.481297 442.567373 
L 51.311899 439.497458 
L 50.604249 438.029237 
L 51.514085 435.893644 
L 54.041408 434.025 
L 59.904798 423.880932 
L 61.320099 419.74322 
L 62.432121 419.74322 
L 64.656166 415.738983 
L 66.071467 410.533475 
L 68.295511 407.330085 
L 69.407533 402.791949 
L 71.530485 401.190254 
L 74.158901 396.385169 
L 73.653436 394.783475 
L 75.270923 393.048305 
L 77.494968 388.24322 
L 78.910269 388.376695 
L 79.921198 383.037712 
L 81.336499 381.969915 
L 82.448521 378.232627 
L 85.582402 373.961441 
L 88.817376 372.226271 
L 89.221747 370.090678 
L 94.781858 360.347034 
L 96.803717 354.607627 
L 99.937598 350.469915 
L 101.656177 345.664831 
L 103.981315 342.194492 
L 105.699895 341.126695 
L 107.822846 335.921186 
L 111.05782 330.982627 
L 112.372028 331.116102 
L 114.393886 325.643644 
L 113.585143 323.908475 
L 116.415745 321.772881 
L 118.134325 317.768644 
L 118.639789 314.965678 
L 123.087878 308.158475 
L 126.626131 300.950847 
L 130.265476 295.878814 
L 132.388428 290.673305 
L 135.92668 286.402119 
L 138.251817 284.800424 
L 137.544167 283.732627 
L 134.612472 287.60339 
L 137.341981 288.804661 
L 138.150724 287.870339 
L 137.746353 283.732627 
L 138.858375 282.264407 
L 136.634331 278.527119 
L 136.128866 275.190254 
L 139.262747 275.323729 
L 145.328322 270.251695 
L 149.169854 266.380932 
L 150.382969 261.308898 
L 154.628872 256.904237 
L 155.639801 254.234746 
L 155.134336 252.766525 
L 156.751823 249.029237 
L 160.492262 249.69661 
L 162.817399 247.694492 
L 163.322864 242.488983 
L 162.716306 238.751695 
L 163.626142 233.94661 
L 174.139807 216.72839 
L 183.440356 200.97839 
L 187.079702 193.904237 
L 188.191724 188.698729 
L 189.708118 186.563136 
L 188.899374 184.827966 
L 182.126148 179.889407 
L 178.284617 178.82161 
L 172.926692 176.018644 
L 172.52232 175.084322 
L 168.882975 173.349153 
L 165.344722 170.679661 
L 161.705377 170.813136 
L 163.626142 165.340678 
L 160.188983 167.609746 
L 157.358381 164.139407 
L 157.358381 157.732627 
L 156.751823 150.258051 
L 158.066031 140.647881 
L 158.066031 136.109746 
L 157.459474 132.372458 
L 158.167124 127.567373 
L 157.358381 121.961441 
L 157.459474 116.355508 
L 158.672589 114.086441 
L 158.066031 108.347034 
L 158.571496 106.611864 
L 162.51412 101.673305 
L 166.355651 95.666949 
L 167.669859 91.395763 
L 172.219041 85.656356 
L 176.161665 77.914831 
L 176.161665 76.847034 
L 179.396639 79.916949 
L 179.396639 80.984746 
L 179.396639 80.984746 
" clip-path="url(#peb4b204731)" style="fill: none; stroke: #000000; stroke-width: 3"/>
   </g>
  </g>
 </g>
 <defs>
  <clipPath id="peb4b204731">
   <rect x="7.2" y="7.2" width="243.199257" height="554.4"/>
  </clipPath>
 </defs>
</svg>
