<?xml version="1.0" encoding="utf-8" standalone="no"?>
<!DOCTYPE svg PUBLIC "-//W3C//DTD SVG 1.1//EN"
  "http://www.w3.org/Graphics/SVG/1.1/DTD/svg11.dtd">
<svg xmlns:xlink="http://www.w3.org/1999/xlink" width="239.46998pt" height="568.8pt" viewBox="0 0 239.46998 568.8" xmlns="http://www.w3.org/2000/svg" version="1.1">
 <metadata>
  <rdf:RDF xmlns:dc="http://purl.org/dc/elements/1.1/" xmlns:cc="http://creativecommons.org/ns#" xmlns:rdf="http://www.w3.org/1999/02/22-rdf-syntax-ns#">
   <cc:Work>
    <dc:type rdf:resource="http://purl.org/dc/dcmitype/StillImage"/>
    <dc:date>2023-09-25T14:14:25.532129</dc:date>
    <dc:format>image/svg+xml</dc:format>
    <dc:creator>
     <cc:Agent>
      <dc:title>Matplotlib v3.6.2, https://matplotlib.org/</dc:title>
     </cc:Agent>
    </dc:creator>
   </cc:Work>
  </rdf:RDF>
 </metadata>
 <defs>
  <style type="text/css">*{stroke-linejoin: round; stroke-linecap: butt}</style>
 </defs>
 <g id="figure_1">
  <g id="patch_1">
   <path d="M 0 568.8 
L 239.46998 568.8 
L 239.46998 0 
L 0 0 
z
" style="fill: #ffffff"/>
  </g>
  <g id="axes_1">
   <g id="LineCollection_1">
    <path d="M 143.715312 44.244531 
L 142.565176 40.448207 
L 140.264906 39.233384 
L 143.945339 33.007412 
L 145.095474 32.4 
L 157.746962 37.411148 
L 161.312382 39.385237 
L 165.912923 43.333414 
L 171.203546 46.522326 
L 174.423925 47.129738 
L 176.494168 48.800121 
L 180.749669 50.470503 
L 184.430102 53.35571 
L 191.445927 56.392769 
L 193.17113 58.063152 
L 203.637362 62.466888 
L 207.432808 65.200241 
L 211.573295 62.618741 
L 214.793674 56.696475 
L 217.438985 57.000181 
L 221.119418 63.378005 
L 222.039527 67.629889 
L 221.349446 70.363242 
L 219.049175 73.704007 
L 212.723431 79.778126 
L 210.42316 84.030009 
L 208.237903 92.230069 
L 209.618065 109.845014 
L 210.193133 114.096897 
L 209.618065 118.045074 
L 207.892862 122.904369 
L 203.062294 127.459958 
L 197.771672 128.978487 
L 193.861211 130.952576 
L 191.330914 133.534077 
L 183.740021 146.897138 
L 178.909452 159.956493 
L 178.679425 162.082434 
L 176.264141 168.460259 
L 171.318559 176.20476 
L 167.868153 180.001085 
L 160.622301 185.771497 
L 152.571354 194.123411 
L 145.785555 203.234589 
L 143.255257 207.334619 
L 140.954987 213.712444 
L 141.875095 219.482856 
L 143.945339 222.671769 
L 148.890921 228.290328 
L 154.641597 233.453329 
L 156.021759 236.03483 
L 148.890921 251.827538 
L 139.11477 268.075806 
L 135.434337 272.023983 
L 133.824148 276.275866 
L 131.408864 277.642543 
L 131.063823 279.920337 
L 128.418512 285.994456 
L 123.932984 292.524134 
L 114.846915 310.290931 
L 113.811793 314.239108 
L 107.141008 322.894727 
L 104.495697 327.754022 
L 104.26567 330.335523 
L 102.195427 334.435553 
L 98.169953 340.205966 
L 95.869682 345.368967 
L 93.569412 348.254173 
L 88.62383 356.606086 
L 85.403451 362.832058 
L 80.457869 370.576559 
L 79.307734 373.917324 
L 75.512287 380.598855 
L 71.831854 385.306297 
L 69.991638 390.469298 
L 66.886272 396.847123 
L 66.196191 399.428623 
L 61.135596 407.780536 
L 60.675542 409.299066 
L 58.03023 410.058331 
L 54.694838 418.562097 
L 51.014405 423.421392 
L 47.563999 426.306598 
L 48.139067 428.43254 
L 44.918688 439.821513 
L 42.963458 442.554866 
L 39.973106 449.843808 
L 31.232077 462.903164 
L 24.79132 473.532871 
L 20.995873 482.036638 
L 17.430454 488.566315 
L 18.695603 490.84411 
L 30.196956 497.373787 
L 35.717605 499.955288 
L 40.088119 502.840494 
L 46.988931 505.573848 
L 49.979283 504.814583 
L 51.014405 506.484965 
L 59.755433 511.951672 
L 62.975812 514.836879 
L 71.026759 518.329497 
L 76.547409 522.429527 
L 81.838031 523.948057 
L 83.10318 525.314733 
L 86.438573 524.251763 
L 86.6686 525.618439 
L 83.448221 532.451823 
L 75.742314 536.4 
L 71.486814 535.033323 
L 70.106651 536.248147 
L 69.41657 532.907382 
L 67.46134 533.362941 
L 61.825677 529.262911 
L 63.320853 525.922145 
L 65.966164 525.466586 
" clip-path="url(#p250c0774ff)" style="fill: none; stroke: #000000; stroke-width: 3"/>
   </g>
  </g>
 </g>
 <defs>
  <clipPath id="p250c0774ff">
   <rect x="7.2" y="7.2" width="225.06998" height="554.4"/>
  </clipPath>
 </defs>
</svg>
