<?xml version="1.0" encoding="utf-8" standalone="no"?>
<!DOCTYPE svg PUBLIC "-//W3C//DTD SVG 1.1//EN"
  "http://www.w3.org/Graphics/SVG/1.1/DTD/svg11.dtd">
<svg xmlns:xlink="http://www.w3.org/1999/xlink" width="239.701021pt" height="568.8pt" viewBox="0 0 239.701021 568.8" xmlns="http://www.w3.org/2000/svg" version="1.1">
 <metadata>
  <rdf:RDF xmlns:dc="http://purl.org/dc/elements/1.1/" xmlns:cc="http://creativecommons.org/ns#" xmlns:rdf="http://www.w3.org/1999/02/22-rdf-syntax-ns#">
   <cc:Work>
    <dc:type rdf:resource="http://purl.org/dc/dcmitype/StillImage"/>
    <dc:date>2023-09-25T14:14:25.146114</dc:date>
    <dc:format>image/svg+xml</dc:format>
    <dc:creator>
     <cc:Agent>
      <dc:title>Matplotlib v3.6.2, https://matplotlib.org/</dc:title>
     </cc:Agent>
    </dc:creator>
   </cc:Work>
  </rdf:RDF>
 </metadata>
 <defs>
  <style type="text/css">*{stroke-linejoin: round; stroke-linecap: butt}</style>
 </defs>
 <g id="figure_1">
  <g id="patch_1">
   <path d="M 0 568.8 
L 239.701021 568.8 
L 239.701021 0 
L 0 0 
z
" style="fill: #ffffff"/>
  </g>
  <g id="axes_1">
   <g id="LineCollection_1">
    <path d="M 145.914203 43.667674 
L 143.031051 42.449547 
L 139.455943 39.708761 
L 139.225291 37.120242 
L 142.454421 32.856798 
L 144.991595 32.4 
L 154.333007 37.729305 
L 156.29355 38.186103 
L 162.75181 42.145015 
L 167.134201 43.972205 
L 180.858004 52.803625 
L 182.472569 52.65136 
L 191.352677 57.219335 
L 193.774524 59.351057 
L 197.118981 60.416918 
L 202.654632 63.462236 
L 205.883762 66.050755 
L 209.804849 65.746224 
L 214.302566 59.351057 
L 215.801805 58.589728 
L 221.568109 66.507553 
L 222.260065 68.639275 
L 219.607565 74.729909 
L 214.648544 78.841088 
L 211.188762 82.647734 
L 207.959632 89.499698 
L 207.383001 93.915408 
L 207.844306 101.376435 
L 208.997566 110.512387 
L 209.112892 117.973414 
L 207.498327 122.845921 
L 203.807893 127.413897 
L 199.540828 129.697885 
L 194.466481 131.525076 
L 191.237351 133.961329 
L 186.508982 141.726888 
L 179.820069 156.192145 
L 176.706265 167.003021 
L 172.439201 174.616314 
L 167.595505 180.250151 
L 157.216159 189.538369 
L 152.257137 194.563142 
L 147.75942 200.349245 
L 142.569747 209.332931 
L 140.955182 215.880363 
L 143.838334 224.559517 
L 148.797355 231.563746 
L 151.103877 233.238671 
L 154.217681 237.045317 
L 154.678985 238.872508 
L 151.565181 244.963142 
L 150.988551 247.551662 
L 148.451377 252.728701 
L 147.298116 256.687613 
L 141.416486 262.016918 
L 139.686595 266.432628 
L 134.26627 275.111782 
L 128.845944 278.766163 
L 128.153988 281.202417 
L 123.425619 288.81571 
L 121.465075 293.535952 
L 117.082684 300.540181 
L 115.237467 307.087613 
L 112.469641 310.89426 
L 111.316381 314.54864 
L 107.856598 319.268882 
L 106.357359 324.902719 
L 100.821708 334.8 
L 94.824752 344.392749 
L 93.786817 347.894864 
L 91.018991 351.853776 
L 84.330079 366.319033 
L 80.870297 369.973414 
L 80.17834 376.36858 
L 76.94921 378.804834 
L 75.79595 384.438671 
L 70.260298 391.747432 
L 68.991711 394.945015 
L 64.378668 403.471903 
L 61.264864 408.192145 
L 58.843016 410.476133 
L 57.805082 413.673716 
L 55.613886 414.587311 
L 53.768669 417.023565 
L 54.691278 420.52568 
L 51.116169 424.94139 
L 48.002365 431.336556 
L 47.195083 436.056798 
L 44.427257 442.756495 
L 39.468236 450.978852 
L 39.237584 452.501511 
L 33.355954 459.50574 
L 33.125302 461.028399 
L 29.204215 466.814502 
L 28.050954 470.16435 
L 23.091933 478.843505 
L 21.938672 482.650151 
L 18.47889 486.304532 
L 17.440955 490.567976 
L 22.053998 494.374622 
L 26.436389 495.592749 
L 39.698888 504.880967 
L 53.307365 510.514804 
L 63.571386 516.300906 
L 65.762581 516.90997 
L 75.103993 523.000604 
L 78.102471 524.370997 
L 85.598666 531.070695 
L 82.25421 536.4 
L 68.530407 532.136556 
L 68.184429 530.004834 
L 63.571386 526.502719 
L 64.493994 524.827795 
" clip-path="url(#pf8085fedad)" style="fill: none; stroke: #000000; stroke-width: 3"/>
   </g>
  </g>
 </g>
 <defs>
  <clipPath id="pf8085fedad">
   <rect x="7.2" y="7.2" width="225.301021" height="554.4"/>
  </clipPath>
 </defs>
</svg>
