<?xml version="1.0" encoding="utf-8" standalone="no"?>
<!DOCTYPE svg PUBLIC "-//W3C//DTD SVG 1.1//EN"
  "http://www.w3.org/Graphics/SVG/1.1/DTD/svg11.dtd">
<svg xmlns:xlink="http://www.w3.org/1999/xlink" width="238.499552pt" height="568.8pt" viewBox="0 0 238.499552 568.8" xmlns="http://www.w3.org/2000/svg" version="1.1">
 <metadata>
  <rdf:RDF xmlns:dc="http://purl.org/dc/elements/1.1/" xmlns:cc="http://creativecommons.org/ns#" xmlns:rdf="http://www.w3.org/1999/02/22-rdf-syntax-ns#">
   <cc:Work>
    <dc:type rdf:resource="http://purl.org/dc/dcmitype/StillImage"/>
    <dc:date>2023-09-25T14:14:25.035124</dc:date>
    <dc:format>image/svg+xml</dc:format>
    <dc:creator>
     <cc:Agent>
      <dc:title>Matplotlib v3.6.2, https://matplotlib.org/</dc:title>
     </cc:Agent>
    </dc:creator>
   </cc:Work>
  </rdf:RDF>
 </metadata>
 <defs>
  <style type="text/css">*{stroke-linejoin: round; stroke-linecap: butt}</style>
 </defs>
 <g id="figure_1">
  <g id="patch_1">
   <path d="M 0 568.8 
L 238.499552 568.8 
L 238.499552 0 
L 0 0 
z
" style="fill: #ffffff"/>
  </g>
  <g id="axes_1">
   <g id="LineCollection_1">
    <path d="M 142.447536 46.652708 
L 142.906898 44.226715 
L 139.691367 41.345848 
L 139.461686 38.313357 
L 142.332696 32.4 
L 148.878598 35.129242 
L 153.701895 35.887365 
L 165.415616 44.226715 
L 167.023381 44.529964 
L 171.961518 48.320578 
L 184.708802 54.992058 
L 195.388959 61.511913 
L 206.98784 66.818773 
L 210.892413 63.786282 
L 214.337625 58.934296 
L 216.060231 59.237545 
L 220.309326 64.241155 
L 221.113208 69.548014 
L 220.079645 72.580505 
L 211.007253 81.829603 
L 208.480765 85.771841 
L 207.10268 90.472202 
L 207.332361 100.327798 
L 208.480765 114.883755 
L 208.021403 118.977617 
L 206.298797 123.374729 
L 201.934862 127.771841 
L 195.848321 129.894585 
L 191.369545 132.623827 
L 189.187578 135.353069 
L 185.627526 141.418051 
L 178.966783 155.519134 
L 176.325453 164.919856 
L 174.373167 169.468592 
L 168.286626 177.807942 
L 158.06583 187.360289 
L 147.041152 199.490253 
L 142.677217 206.768231 
L 140.035888 214.349458 
L 140.150728 216.927076 
L 143.710781 224.811552 
L 151.405087 235.880144 
L 153.127693 237.244765 
L 153.357374 240.580505 
L 150.486364 247.40361 
L 147.270833 252.862094 
L 145.433386 257.865704 
L 140.265569 264.992058 
L 137.624239 265.598556 
L 137.164878 267.7213 
L 132.800943 277.273646 
L 129.12605 280.306137 
L 127.403444 283.035379 
L 126.1402 287.129242 
L 122.694988 292.132852 
L 116.034245 303.201444 
L 115.689724 305.324188 
L 107.765736 316.241155 
L 104.665045 324.125632 
L 98.693345 335.649097 
L 98.463664 337.316968 
L 94.44425 344.74657 
L 91.4584 347.627437 
L 89.046751 352.327798 
L 88.472549 355.208664 
L 83.878933 363.851264 
L 80.893083 367.945126 
L 79.859519 371.432491 
L 72.739415 385.381949 
L 65.61931 397.815162 
L 64.241225 402.212274 
L 61.829577 405.699639 
L 56.546919 411.461372 
L 54.594632 412.219495 
L 52.872026 414.797112 
L 52.527505 418.73935 
L 50.804899 420.710469 
L 48.27841 427.381949 
L 49.771335 431.627437 
L 47.819049 434.508303 
L 46.211283 439.360289 
L 44.144156 441.028159 
L 40.928625 445.576895 
L 38.287296 451.338628 
L 33.119478 458.768231 
L 32.545276 461.800722 
L 30.592989 464.378339 
L 26.803256 471.656318 
L 22.554161 478.631047 
L 19.568311 481.360289 
L 17.386343 486.515523 
L 17.845705 492.73213 
L 23.817406 496.977617 
L 27.032937 498.190614 
L 31.396872 498.190614 
L 36.220168 500.616606 
L 41.273146 502.132852 
L 45.177719 504.40722 
L 52.412664 507.591336 
L 60.106971 511.836823 
L 61.944417 513.656318 
L 67.456757 516.08231 
L 71.935532 519.872924 
L 84.682816 526.999278 
L 85.027337 530.031769 
L 81.352445 535.187004 
L 79.629839 536.4 
L 78.940796 534.580505 
L 75.265904 533.06426 
L 74.34718 531.548014 
L 70.098086 528.667148 
L 68.720001 529.425271 
L 62.977981 523.663538 
L 65.389629 521.085921 
" clip-path="url(#p0eb4bf46e8)" style="fill: none; stroke: #000000; stroke-width: 3"/>
   </g>
  </g>
 </g>
 <defs>
  <clipPath id="p0eb4bf46e8">
   <rect x="7.2" y="7.2" width="224.099552" height="554.4"/>
  </clipPath>
 </defs>
</svg>
