<?xml version="1.0" encoding="utf-8" standalone="no"?>
<!DOCTYPE svg PUBLIC "-//W3C//DTD SVG 1.1//EN"
  "http://www.w3.org/Graphics/SVG/1.1/DTD/svg11.dtd">
<svg xmlns:xlink="http://www.w3.org/1999/xlink" width="237.666509pt" height="568.8pt" viewBox="0 0 237.666509 568.8" xmlns="http://www.w3.org/2000/svg" version="1.1">
 <metadata>
  <rdf:RDF xmlns:dc="http://purl.org/dc/elements/1.1/" xmlns:cc="http://creativecommons.org/ns#" xmlns:rdf="http://www.w3.org/1999/02/22-rdf-syntax-ns#">
   <cc:Work>
    <dc:type rdf:resource="http://purl.org/dc/dcmitype/StillImage"/>
    <dc:date>2023-09-25T14:14:24.921095</dc:date>
    <dc:format>image/svg+xml</dc:format>
    <dc:creator>
     <cc:Agent>
      <dc:title>Matplotlib v3.6.2, https://matplotlib.org/</dc:title>
     </cc:Agent>
    </dc:creator>
   </cc:Work>
  </rdf:RDF>
 </metadata>
 <defs>
  <style type="text/css">*{stroke-linejoin: round; stroke-linecap: butt}</style>
 </defs>
 <g id="figure_1">
  <g id="patch_1">
   <path d="M 0 568.8 
L 237.666509 568.8 
L 237.666509 0 
L 0 0 
z
" style="fill: #ffffff"/>
  </g>
  <g id="axes_1">
   <g id="LineCollection_1">
    <path d="M 141.838001 47.851758 
L 142.641159 46.639856 
L 138.395894 43.004148 
L 138.16642 40.277367 
L 141.264316 33.005951 
L 142.411685 32.4 
L 146.198002 33.76339 
L 151.361162 37.853562 
L 153.885374 38.762489 
L 156.868533 41.337782 
L 160.31064 42.095221 
L 163.867483 44.670514 
L 169.719064 47.094319 
L 176.488541 51.184491 
L 188.30644 57.244004 
L 196.567496 62.091614 
L 198.976971 64.212444 
L 202.419077 65.121371 
L 205.2875 67.545176 
L 208.729606 65.727322 
L 213.089608 58.91037 
L 215.95803 59.970784 
L 220.318032 69.211542 
L 218.711715 73.150225 
L 212.63066 78.452299 
L 209.418027 82.239495 
L 206.664342 88.299008 
L 205.861184 95.11596 
L 207.4675 109.204328 
L 207.696974 113.445987 
L 207.008553 118.748061 
L 205.2875 124.504599 
L 202.992762 126.47394 
L 196.108548 130.261136 
L 192.322231 131.776014 
L 187.503282 136.169161 
L 181.192753 147.530748 
L 178.324331 155.256628 
L 174.767487 157.680433 
L 174.423277 160.710189 
L 175.685383 162.679531 
L 171.554855 171.920289 
L 167.424327 177.37385 
L 159.048534 184.948242 
L 150.787478 193.886023 
L 145.16537 201.005951 
L 140.920106 208.277367 
L 139.428526 212.97349 
L 140.00221 219.94193 
L 141.608527 223.880613 
L 147.689582 232.060956 
L 152.967479 237.211542 
L 153.770637 239.938323 
L 153.196953 242.362128 
L 150.443267 244.937421 
L 148.607477 249.330568 
L 144.706423 255.844545 
L 142.296948 260.995131 
L 141.264316 265.23679 
L 138.969579 266.60018 
L 136.101156 270.0844 
L 133.00326 270.387376 
L 131.626418 277.05284 
L 128.872732 280.53706 
L 125.430626 282.354914 
L 125.889573 286.14211 
L 124.512731 289.777818 
L 121.759045 294.170965 
L 120.267466 300.533454 
L 116.825359 306.289991 
L 112.235884 311.440577 
L 106.957987 322.953652 
L 105.581144 327.346799 
L 101.450616 333.406312 
L 92.84535 349.464022 
L 91.124296 353.554193 
L 85.961136 360.371145 
L 82.289556 362.491975 
L 79.535871 362.946438 
L 78.388502 369.005951 
L 76.323238 373.853562 
L 74.946395 375.065464 
L 74.716921 381.579441 
L 73.684289 382.488368 
L 70.127446 389.759784 
L 67.488498 393.849955 
L 66.800076 396.27376 
L 52.687439 420.814788 
L 49.015859 423.844545 
L 46.262173 428.843643 
L 44.082173 434.297205 
L 42.70533 440.962669 
L 38.919013 447.022182 
L 38.460065 449.900451 
L 33.067431 454.748061 
L 31.461115 456.868891 
L 32.149536 459.292696 
L 28.248482 466.412624 
L 27.560061 469.290893 
L 24.462165 472.623625 
L 23.200059 476.865284 
L 19.413742 481.864382 
L 17.348478 486.711993 
L 17.807425 490.196213 
L 19.528479 491.408115 
L 21.020058 494.58936 
L 23.314796 495.649775 
L 28.936903 500.042922 
L 31.231641 500.497385 
L 36.05059 504.133093 
L 41.787435 507.011362 
L 44.54112 507.011362 
L 50.048491 508.677728 
L 57.276915 512.919387 
L 60.489547 514.131289 
L 67.144287 517.918485 
L 70.35692 518.827412 
L 73.225342 520.948242 
L 79.880081 524.58395 
L 85.272715 528.825609 
L 85.043241 530.643463 
L 82.51903 535.03661 
L 80.109555 536.4 
L 74.0285 534.127683 
L 66.570602 529.280072 
L 61.063232 528.674121 
L 61.981127 525.94734 
" clip-path="url(#p9be74ace41)" style="fill: none; stroke: #000000; stroke-width: 3"/>
   </g>
  </g>
 </g>
 <defs>
  <clipPath id="p9be74ace41">
   <rect x="7.2" y="7.2" width="223.266509" height="554.4"/>
  </clipPath>
 </defs>
</svg>
