<?xml version="1.0" encoding="utf-8" standalone="no"?>
<!DOCTYPE svg PUBLIC "-//W3C//DTD SVG 1.1//EN"
  "http://www.w3.org/Graphics/SVG/1.1/DTD/svg11.dtd">
<svg xmlns:xlink="http://www.w3.org/1999/xlink" width="256.21073pt" height="568.8pt" viewBox="0 0 256.21073 568.8" xmlns="http://www.w3.org/2000/svg" version="1.1">
 <metadata>
  <rdf:RDF xmlns:dc="http://purl.org/dc/elements/1.1/" xmlns:cc="http://creativecommons.org/ns#" xmlns:rdf="http://www.w3.org/1999/02/22-rdf-syntax-ns#">
   <cc:Work>
    <dc:type rdf:resource="http://purl.org/dc/dcmitype/StillImage"/>
    <dc:date>2023-09-25T14:14:24.656107</dc:date>
    <dc:format>image/svg+xml</dc:format>
    <dc:creator>
     <cc:Agent>
      <dc:title>Matplotlib v3.6.2, https://matplotlib.org/</dc:title>
     </cc:Agent>
    </dc:creator>
   </cc:Work>
  </rdf:RDF>
 </metadata>
 <defs>
  <style type="text/css">*{stroke-linejoin: round; stroke-linecap: butt}</style>
 </defs>
 <g id="figure_1">
  <g id="patch_1">
   <path d="M 0 568.8 
L 256.21073 568.8 
L 256.21073 0 
L 0 0 
z
" style="fill: #ffffff"/>
  </g>
  <g id="axes_1">
   <g id="LineCollection_1">
    <path d="M 210.761139 33.175623 
L 212.053553 32.4 
L 217.223211 35.347368 
L 222.862837 37.674238 
L 238.019333 46.826593 
L 237.901841 48.843213 
L 233.08466 57.375069 
L 230.264847 63.424931 
L 224.507728 74.128532 
L 217.693179 85.452632 
L 214.52089 92.278116 
L 209.116248 101.430471 
L 200.421824 117.253186 
L 195.134674 125.785042 
L 193.254799 130.128532 
L 190.317493 134.161773 
L 188.320125 138.815512 
L 181.270592 152.001108 
L 175.983443 163.325208 
L 171.753723 171.08144 
L 170.108832 172.477562 
L 168.111464 177.286427 
L 161.414408 188.455402 
L 159.182056 193.109141 
L 157.419673 194.350139 
L 152.132523 202.106371 
L 150.017663 207.845983 
L 146.962865 210.327978 
L 146.492897 213.895845 
L 143.673083 220.255956 
L 137.445996 230.959557 
L 128.986556 249.109141 
L 124.051883 257.485873 
L 115.004983 275.325208 
L 110.892755 282.771191 
L 106.075574 290.372299 
L 105.135637 292.854294 
L 101.375886 298.904155 
L 99.730995 302.782271 
L 93.503907 313.020499 
L 88.216757 322.638227 
L 83.752053 329.618837 
L 79.639826 337.530194 
L 74.822645 343.424931 
L 71.415371 351.801662 
L 58.021258 375.380609 
L 53.791538 383.602216 
L 50.031787 389.652078 
L 49.209342 393.06482 
L 42.629778 404.699169 
L 34.875291 419.74626 
L 29.353157 428.588366 
L 22.656101 441.463712 
L 18.191397 448.909695 
L 19.366319 451.39169 
L 32.17297 458.372299 
L 36.050214 461.319668 
L 48.151912 467.990028 
L 52.146647 469.231025 
L 61.898501 475.280886 
L 77.172489 484.278116 
L 83.987038 487.07036 
L 91.624032 491.568975 
L 104.665668 499.945706 
L 109.835325 503.978947 
L 119.587179 507.236565 
L 128.63408 512.976177 
L 140.030825 519.181163 
L 152.954968 528.333518 
L 148.372772 536.4 
L 146.022928 534.538504 
L 137.328504 530.350139 
L 131.453893 528.333518 
L 129.339033 526.161773 
L 129.809002 524.145152 
L 133.451261 526.472022 
L 134.391198 524.610526 
" clip-path="url(#p4f670f99fa)" style="fill: none; stroke: #000000; stroke-width: 3"/>
   </g>
  </g>
 </g>
 <defs>
  <clipPath id="p4f670f99fa">
   <rect x="7.2" y="7.2" width="241.81073" height="554.4"/>
  </clipPath>
 </defs>
</svg>
