<?xml version="1.0" encoding="utf-8" standalone="no"?>
<!DOCTYPE svg PUBLIC "-//W3C//DTD SVG 1.1//EN"
  "http://www.w3.org/Graphics/SVG/1.1/DTD/svg11.dtd">
<svg xmlns:xlink="http://www.w3.org/1999/xlink" width="298.674302pt" height="568.8pt" viewBox="0 0 298.674302 568.8" xmlns="http://www.w3.org/2000/svg" version="1.1">
 <metadata>
  <rdf:RDF xmlns:dc="http://purl.org/dc/elements/1.1/" xmlns:cc="http://creativecommons.org/ns#" xmlns:rdf="http://www.w3.org/1999/02/22-rdf-syntax-ns#">
   <cc:Work>
    <dc:type rdf:resource="http://purl.org/dc/dcmitype/StillImage"/>
    <dc:date>2023-09-25T14:14:24.378884</dc:date>
    <dc:format>image/svg+xml</dc:format>
    <dc:creator>
     <cc:Agent>
      <dc:title>Matplotlib v3.6.2, https://matplotlib.org/</dc:title>
     </cc:Agent>
    </dc:creator>
   </cc:Work>
  </rdf:RDF>
 </metadata>
 <defs>
  <style type="text/css">*{stroke-linejoin: round; stroke-linecap: butt}</style>
 </defs>
 <g id="figure_1">
  <g id="patch_1">
   <path d="M 0 568.8 
L 298.674302 568.8 
L 298.674302 0 
L 0 0 
z
" style="fill: #ffffff"/>
  </g>
  <g id="axes_1">
   <g id="LineCollection_1">
    <path d="M 30.796215 536.4 
L 28.332833 536.005711 
L 23.107477 532.851398 
L 20.868039 532.259965 
L 20.121559 530.682809 
L 20.121559 528.11993 
L 20.718743 527.035635 
L 21.390574 522.797027 
L 22.883533 520.825582 
L 24.376492 516.981263 
L 27.511706 512.644084 
L 31.617343 504.758302 
L 34.60326 498.055388 
L 36.917347 494.408214 
L 39.082137 489.972462 
L 41.022984 487.212439 
L 43.411718 481.889536 
L 45.725804 477.946646 
L 47.592003 475.679484 
L 50.130033 471.145159 
L 50.652568 469.173714 
L 54.384966 463.062234 
L 50.428625 466.906552 
L 50.652568 467.103696 
L 56.176516 461.18936 
L 57.744123 458.232192 
L 56.7737 458.725054 
L 60.282153 451.923567 
L 63.118775 448.966399 
L 65.656805 445.023509 
L 69.46385 436.644866 
L 70.434274 433.490553 
L 71.628641 431.420536 
L 70.135682 431.420536 
L 72.599064 428.759085 
L 76.256813 422.844749 
L 77.152589 420.774731 
L 79.839915 416.437551 
L 81.332874 411.903227 
L 83.124424 408.748915 
L 84.393439 405.298885 
L 86.856822 401.454567 
L 89.693443 396.328809 
L 90.663867 393.174496 
L 92.455417 392.681635 
L 95.217391 388.245883 
L 95.963871 388.048739 
L 97.979365 383.711559 
L 100.368099 379.86724 
L 101.487819 376.220066 
L 104.324441 371.390025 
L 105.668104 367.545707 
L 107.907542 365.377117 
L 107.907542 363.109955 
L 107.161062 361.828516 
L 103.727257 359.462781 
L 102.383594 357.68848 
L 101.78641 354.928457 
L 102.234298 353.055584 
L 103.577961 351.379855 
L 107.310358 348.225543 
L 110.818812 340.73405 
L 112.087827 338.664033 
L 114.999097 332.45398 
L 117.163887 329.201095 
L 121.04558 325.455349 
L 123.732906 324.469626 
L 126.49488 324.371054 
L 128.734318 325.159632 
L 133.213195 328.1168 
L 135.825873 328.511089 
L 138.065311 328.018228 
L 141.797709 325.751066 
L 143.962499 323.483904 
L 145.604754 320.822453 
L 146.649825 317.963857 
L 149.710391 313.528105 
L 151.949829 311.556659 
L 156.27941 308.796636 
L 158.966736 306.332329 
L 161.35547 302.093722 
L 162.773781 297.855114 
L 163.147021 294.010796 
L 162.848429 292.532212 
L 160.832934 287.702171 
L 160.459695 284.054997 
L 160.832934 282.280696 
L 163.445613 277.746372 
L 166.43153 274.592059 
L 171.955478 271.437747 
L 173.597733 269.466302 
L 174.41886 267.100567 
L 174.41886 263.354821 
L 175.314636 259.214786 
L 176.359707 256.257618 
L 177.778018 249.85042 
L 181.361119 241.668922 
L 184.421685 237.331743 
L 187.631547 234.473147 
L 190.020281 231.614551 
L 192.856903 226.488793 
L 194.275214 222.44733 
L 196.663948 218.011578 
L 198.903386 214.660121 
L 201.441416 212.392959 
L 205.024518 210.618658 
L 210.249874 209.041502 
L 215.549878 209.928652 
L 219.207627 210.027225 
L 222.044249 209.140074 
L 225.104815 205.88719 
L 228.16538 200.564287 
L 232.793553 191.692783 
L 235.704823 186.567025 
L 237.347078 183.116996 
L 245.632999 168.725445 
L 248.917509 162.121103 
L 250.858355 157.19249 
L 251.156947 154.925328 
L 251.231595 148.419558 
L 252.276666 143.589517 
L 252.276666 140.23806 
L 251.530187 137.773753 
L 248.544269 132.84514 
L 248.618917 130.085116 
L 249.58934 126.437942 
L 250.933003 123.579347 
L 254.217513 118.256444 
L 257.203431 114.313554 
L 263.847098 107.314923 
L 265.787944 104.554899 
L 266.31048 101.203442 
L 265.787944 96.964835 
L 266.161184 92.43051 
L 267.952735 83.26329 
L 269.520342 80.503266 
L 271.834428 78.137532 
L 276.537248 75.377508 
L 278.478095 72.913202 
L 278.552743 71.040329 
L 277.20908 68.674594 
L 274.820346 67.590299 
L 272.13302 67.984588 
L 266.31048 71.631762 
L 264.369633 71.927479 
L 261.682307 70.448895 
L 260.786532 68.674594 
L 260.786532 66.801721 
L 261.831603 64.435987 
L 266.534424 58.817367 
L 269.445694 53.593037 
L 270.938653 46.988695 
L 269.371046 42.947233 
L 264.444281 38.215764 
L 260.413292 35.652885 
L 257.352727 34.56859 
L 245.558351 32.4 
L 242.72173 33.484295 
L 240.930179 35.258596 
L 239.81046 37.525758 
L 239.661164 40.778643 
L 240.706235 43.341522 
L 243.692153 45.411539 
L 247.05131 46.002973 
L 249.738636 48.467279 
L 250.559764 51.325875 
L 251.082299 56.944494 
L 252.127371 59.507373 
L 252.425962 61.675963 
L 252.052723 64.041698 
L 250.933003 66.407432 
L 247.573846 69.857461 
L 245.334408 71.336045 
L 240.109051 73.307491 
L 237.571021 74.786075 
L 235.256935 78.137532 
L 234.659752 80.503266 
L 233.241441 83.361862 
L 230.404819 85.727596 
L 222.71608 88.48762 
L 221.073826 89.473342 
L 218.162556 92.134794 
L 216.744245 94.106239 
L 213.459735 100.414864 
L 211.966776 104.357755 
L 209.503394 109.877802 
L 207.637196 112.736397 
L 204.94987 115.496421 
L 200.620289 118.453589 
L 198.082259 121.903618 
L 197.186483 126.733659 
L 197.410427 132.253706 
L 195.693525 135.90088 
L 193.454086 137.773753 
L 189.647041 139.449482 
L 185.018868 141.913788 
L 181.211823 144.673812 
L 178.001962 148.222413 
L 174.344212 153.348171 
L 172.62731 157.882496 
L 172.403366 163.008253 
L 173.075197 166.655427 
L 174.642804 171.189752 
L 175.53858 174.836925 
L 175.53858 177.498377 
L 174.941396 180.652689 
L 170.387871 187.65132 
L 166.879418 191.199922 
L 161.72871 194.945668 
L 158.81744 198.987131 
L 158.294904 201.55001 
L 158.742792 208.154352 
L 158.145608 212.491531 
L 156.130114 215.744416 
L 151.875181 220.081596 
L 149.561095 221.855897 
L 144.261091 227.375944 
L 141.275173 230.924545 
L 138.886439 234.276002 
L 135.22869 237.824604 
L 132.466716 239.598905 
L 132.616011 236.444592 
L 130.525869 232.797418 
L 127.166712 229.741678 
L 112.759658 221.855897 
L 106.563879 219.39159 
L 102.682186 225.010209 
L 98.949789 229.84025 
L 95.441335 228.854528 
L 91.26105 226.291649 
L 85.81175 224.123059 
L 82.527241 222.348758 
L 82.527241 222.348758 
" clip-path="url(#pe875ce64c0)" style="fill: none; stroke: #000000; stroke-width: 3"/>
   </g>
  </g>
 </g>
 <defs>
  <clipPath id="pe875ce64c0">
   <rect x="7.2" y="7.2" width="284.274302" height="554.4"/>
  </clipPath>
 </defs>
</svg>
