<?xml version="1.0" encoding="utf-8" standalone="no"?>
<!DOCTYPE svg PUBLIC "-//W3C//DTD SVG 1.1//EN"
  "http://www.w3.org/Graphics/SVG/1.1/DTD/svg11.dtd">
<svg xmlns:xlink="http://www.w3.org/1999/xlink" width="299.633221pt" height="568.8pt" viewBox="0 0 299.633221 568.8" xmlns="http://www.w3.org/2000/svg" version="1.1">
 <metadata>
  <rdf:RDF xmlns:dc="http://purl.org/dc/elements/1.1/" xmlns:cc="http://creativecommons.org/ns#" xmlns:rdf="http://www.w3.org/1999/02/22-rdf-syntax-ns#">
   <cc:Work>
    <dc:type rdf:resource="http://purl.org/dc/dcmitype/StillImage"/>
    <dc:date>2023-09-25T14:14:24.248786</dc:date>
    <dc:format>image/svg+xml</dc:format>
    <dc:creator>
     <cc:Agent>
      <dc:title>Matplotlib v3.6.2, https://matplotlib.org/</dc:title>
     </cc:Agent>
    </dc:creator>
   </cc:Work>
  </rdf:RDF>
 </metadata>
 <defs>
  <style type="text/css">*{stroke-linejoin: round; stroke-linecap: butt}</style>
 </defs>
 <g id="figure_1">
  <g id="patch_1">
   <path d="M 0 568.8 
L 299.633221 568.8 
L 299.633221 0 
L 0 0 
z
" style="fill: #ffffff"/>
  </g>
  <g id="axes_1">
   <g id="LineCollection_1">
    <path d="M 32.335137 536.4 
L 27.556736 536.202817 
L 22.479684 533.738028 
L 22.181034 534.230986 
L 20.165146 532.55493 
L 20.911772 529.991549 
L 23.52496 524.076056 
L 26.436798 519.935211 
L 30.319249 511.456338 
L 32.409799 508.4 
L 35.470963 502.385915 
L 36.740226 500.611268 
L 37.486851 497.850704 
L 42.041264 488.484507 
L 46.745003 481.385915 
L 49.432854 476.061972 
L 51.299417 473.498592 
L 54.211255 467.68169 
L 56.451131 464.033803 
L 60.258919 456.540845 
L 62.872107 452.597183 
L 65.783945 447.470423 
L 67.874496 444.512676 
L 70.039709 439.583099 
L 73.32486 434.55493 
L 74.892773 432.977465 
L 76.311361 428.442254 
L 79.596511 421.343662 
L 81.164424 419.174648 
L 81.388412 417.498592 
L 86.465463 408.625352 
L 88.854664 405.174648 
L 91.243864 400.047887 
L 94.827665 394.921127 
L 96.246253 391.96338 
L 98.859441 387.625352 
L 99.382079 385.55493 
L 104.235143 377.273239 
L 104.608455 375.794366 
L 106.699006 373.230986 
L 108.864219 369.583099 
L 109.312194 364.949296 
L 108.341581 363.174648 
L 104.085818 359.132394 
L 102.592567 355.385915 
L 103.413855 352.822535 
L 107.893606 349.076056 
L 110.058819 346.019718 
L 113.34397 338.723944 
L 116.106483 333.202817 
L 118.794334 329.55493 
L 122.004822 326.4 
L 124.394023 325.315493 
L 127.679174 325.019718 
L 129.471074 325.315493 
L 135.668063 328.470423 
L 138.281251 328.667606 
L 140.894439 327.780282 
L 145.374191 324.329577 
L 147.912716 318.414085 
L 149.779279 315.850704 
L 153.139092 312.4 
L 155.229643 311.315493 
L 159.336082 308.061972 
L 160.754669 306.484507 
L 163.44252 301.061972 
L 164.63712 297.11831 
L 164.711783 295.047887 
L 163.591845 291.4 
L 162.173257 288.540845 
L 161.94927 285.090141 
L 163.14387 281.442254 
L 166.055708 277.202817 
L 169.042209 274.738028 
L 173.52196 271.583099 
L 175.089873 269.907042 
L 175.985823 267.146479 
L 175.836498 261.723944 
L 179.644287 248.315493 
L 181.958825 242.991549 
L 183.676063 240.329577 
L 188.305139 235.4 
L 193.158203 228.202817 
L 196.368691 220.11831 
L 199.056542 215.68169 
L 202.491017 212.526761 
L 204.35758 211.540845 
L 210.106594 210.061972 
L 217.871496 210.55493 
L 221.007322 210.357746 
L 223.91916 209.076056 
L 225.561736 207.301408 
L 231.833387 196.061972 
L 234.819888 191.329577 
L 240.344914 180.878873 
L 241.912827 177.526761 
L 250.499017 161.949296 
L 252.141592 157.907042 
L 252.514905 154.850704 
L 252.36558 149.526761 
L 253.56018 142.723944 
L 253.186868 139.96338 
L 250.125704 133.259155 
L 250.57368 128.329577 
L 253.709505 121.625352 
L 256.472019 117.484507 
L 258.935882 114.329577 
L 264.834221 107.822535 
L 266.924771 104.470423 
L 267.223421 102.597183 
L 266.924771 96.977465 
L 268.343359 86.428169 
L 268.865997 83.864789 
L 270.359247 81.104225 
L 273.71906 78.047887 
L 278.422799 75.090141 
L 279.468074 73.11831 
L 279.393412 70.949296 
L 277.526849 68.68169 
L 275.361636 68.090141 
L 270.956547 69.470423 
L 268.418022 71.442254 
L 265.207533 71.83662 
L 262.370358 69.96338 
L 261.922382 68.385915 
L 262.519683 66.11831 
L 268.268697 59.019718 
L 270.583235 54.878873 
L 271.777835 51.921127 
L 272.449798 48.96338 
L 272.151148 45.315493 
L 270.73256 43.047887 
L 268.642009 40.780282 
L 265.506183 38.11831 
L 260.35447 35.357746 
L 256.397356 34.273239 
L 251.992267 33.68169 
L 246.765891 32.4 
L 243.77939 33.583099 
L 241.315527 37.033803 
L 240.643565 39.498592 
L 240.79289 41.569014 
L 241.838165 43.83662 
L 243.18209 44.723944 
L 248.632454 46.991549 
L 251.245642 50.047887 
L 251.76828 55.076056 
L 253.112205 59.709859 
L 253.485518 63.752113 
L 252.813555 65.822535 
L 250.723005 68.977465 
L 249.080429 70.55493 
L 244.824666 73.11831 
L 239.224977 75.68169 
L 236.761114 79.033803 
L 235.641176 82.484507 
L 233.177313 85.540845 
L 231.385412 86.526761 
L 225.785723 88.498592 
L 221.604622 90.864789 
L 218.842109 93.230986 
L 217.722171 95.005634 
L 212.34647 106.343662 
L 210.554569 110.977465 
L 209.285307 113.047887 
L 207.045431 115.512676 
L 202.341692 118.470423 
L 200.251142 120.639437 
L 198.981879 123.597183 
L 198.683229 126.259155 
L 198.981879 131.878873 
L 197.637954 135.625352 
L 195.099428 138.385915 
L 186.587901 141.83662 
L 183.526738 143.709859 
L 178.897661 149.033803 
L 176.209811 152.977465 
L 174.193923 157.512676 
L 173.671285 161.456338 
L 173.745948 164.512676 
L 174.492573 168.357746 
L 176.583123 174.371831 
L 176.583123 179.202817 
L 175.985823 181.273239 
L 174.193923 184.230986 
L 170.983434 188.667606 
L 166.429021 193.202817 
L 163.069207 195.569014 
L 160.829332 198.230986 
L 159.634732 201.287324 
L 159.858719 208.878873 
L 159.037431 213.907042 
L 157.693506 216.273239 
L 154.25903 219.921127 
L 147.688729 225.540845 
L 143.656953 229.780282 
L 139.998489 235.202817 
L 135.070763 239.639437 
L 133.726838 239.146479 
L 134.10015 238.061972 
L 132.457575 234.019718 
L 130.441687 231.160563 
L 126.409911 228.301408 
L 122.004822 226.230986 
L 118.047709 223.569014 
L 110.432132 219.822535 
L 108.789556 219.428169 
L 102.443242 227.11831 
L 99.979379 230.569014 
L 99.008766 230.569014 
L 95.872941 228.104225 
L 84.150925 222.090141 
L 84.150925 222.090141 
" clip-path="url(#p001478ec0c)" style="fill: none; stroke: #000000; stroke-width: 3"/>
   </g>
  </g>
 </g>
 <defs>
  <clipPath id="p001478ec0c">
   <rect x="7.2" y="7.2" width="285.233221" height="554.4"/>
  </clipPath>
 </defs>
</svg>
