<?xml version="1.0" encoding="utf-8" standalone="no"?>
<!DOCTYPE svg PUBLIC "-//W3C//DTD SVG 1.1//EN"
  "http://www.w3.org/Graphics/SVG/1.1/DTD/svg11.dtd">
<svg xmlns:xlink="http://www.w3.org/1999/xlink" width="221.17612pt" height="568.8pt" viewBox="0 0 221.17612 568.8" xmlns="http://www.w3.org/2000/svg" version="1.1">
 <metadata>
  <rdf:RDF xmlns:dc="http://purl.org/dc/elements/1.1/" xmlns:cc="http://creativecommons.org/ns#" xmlns:rdf="http://www.w3.org/1999/02/22-rdf-syntax-ns#">
   <cc:Work>
    <dc:type rdf:resource="http://purl.org/dc/dcmitype/StillImage"/>
    <dc:date>2023-09-25T14:14:24.172370</dc:date>
    <dc:format>image/svg+xml</dc:format>
    <dc:creator>
     <cc:Agent>
      <dc:title>Matplotlib v3.6.2, https://matplotlib.org/</dc:title>
     </cc:Agent>
    </dc:creator>
   </cc:Work>
  </rdf:RDF>
 </metadata>
 <defs>
  <style type="text/css">*{stroke-linejoin: round; stroke-linecap: butt}</style>
 </defs>
 <g id="figure_1">
  <g id="patch_1">
   <path d="M 0 568.8 
L 221.17612 568.8 
L 221.17612 0 
L 0 0 
z
" style="fill: #ffffff"/>
  </g>
  <g id="axes_1">
   <g id="LineCollection_1">
    <path d="M 176.881344 32.4 
L 181.359824 34.111639 
L 191.259621 38.779747 
L 203.634367 45.781908 
L 204.577205 47.337944 
L 202.45582 52.317258 
L 200.098725 55.118123 
L 190.552493 72.39012 
L 188.077543 77.836246 
L 181.00626 89.662118 
L 177.824182 93.707811 
L 175.113523 99.776351 
L 171.813591 104.755665 
L 168.749368 110.979809 
L 163.917324 118.915591 
L 160.028118 124.361717 
L 158.142442 130.274653 
L 155.667493 133.697931 
L 152.367561 141.633714 
L 145.885551 153.148379 
L 140.935652 164.351837 
L 138.814267 166.063476 
L 135.985754 172.75443 
L 135.39648 176.64452 
L 133.039385 180.223402 
L 123.493152 197.339796 
L 118.778963 204.808768 
L 117.128997 206.053597 
L 114.064774 213.211362 
L 108.879166 221.147144 
L 107.700619 225.192837 
L 102.515011 234.684656 
L 99.922207 240.753195 
L 94.147325 251.956653 
L 86.015349 265.649768 
L 81.654724 274.363569 
L 70.929944 293.191602 
L 66.922883 301.749799 
L 60.440873 310.930411 
L 57.140941 318.399383 
L 48.419691 332.092498 
L 47.241144 335.048966 
L 42.17339 343.91837 
L 38.991313 350.920531 
L 35.69138 356.989071 
L 30.387918 365.547268 
L 25.438019 372.393825 
L 23.788053 376.439518 
L 20.959539 381.107626 
L 17.777462 388.576598 
L 16.598915 393.867119 
L 23.316634 397.601605 
L 31.330755 403.981352 
L 37.812766 408.64946 
L 45.355468 412.695153 
L 55.726684 417.052053 
L 61.501566 421.720161 
L 67.983576 425.299043 
L 73.758457 429.344736 
L 81.065451 431.367583 
L 88.136734 434.324051 
L 91.200957 436.346897 
L 98.154386 442.882248 
L 105.343524 448.483977 
L 110.529132 450.662427 
L 115.95045 451.596048 
L 133.275095 459.376227 
L 137.40001 462.177092 
L 146.474824 465.755974 
L 152.721125 471.046496 
L 145.178422 482.249954 
L 143.292747 486.918061 
L 140.346379 490.808151 
L 139.167831 494.69824 
L 135.39648 500.299969 
L 133.275095 504.656869 
L 125.614538 515.237913 
L 127.264504 514.148688 
L 117.364707 530.020253 
L 114.182629 535.933189 
L 112.179099 536.4 
L 102.515011 531.887496 
L 96.150856 529.86465 
L 96.975839 527.686199 
" clip-path="url(#p4cb3042315)" style="fill: none; stroke: #000000; stroke-width: 3"/>
   </g>
  </g>
 </g>
 <defs>
  <clipPath id="p4cb3042315">
   <rect x="7.2" y="7.2" width="206.77612" height="554.4"/>
  </clipPath>
 </defs>
</svg>
