<?xml version="1.0" encoding="utf-8" standalone="no"?>
<!DOCTYPE svg PUBLIC "-//W3C//DTD SVG 1.1//EN"
  "http://www.w3.org/Graphics/SVG/1.1/DTD/svg11.dtd">
<svg xmlns:xlink="http://www.w3.org/1999/xlink" width="208.420528pt" height="568.8pt" viewBox="0 0 208.420528 568.8" xmlns="http://www.w3.org/2000/svg" version="1.1">
 <metadata>
  <rdf:RDF xmlns:dc="http://purl.org/dc/elements/1.1/" xmlns:cc="http://creativecommons.org/ns#" xmlns:rdf="http://www.w3.org/1999/02/22-rdf-syntax-ns#">
   <cc:Work>
    <dc:type rdf:resource="http://purl.org/dc/dcmitype/StillImage"/>
    <dc:date>2023-09-25T14:14:24.062676</dc:date>
    <dc:format>image/svg+xml</dc:format>
    <dc:creator>
     <cc:Agent>
      <dc:title>Matplotlib v3.6.2, https://matplotlib.org/</dc:title>
     </cc:Agent>
    </dc:creator>
   </cc:Work>
  </rdf:RDF>
 </metadata>
 <defs>
  <style type="text/css">*{stroke-linejoin: round; stroke-linecap: butt}</style>
 </defs>
 <g id="figure_1">
  <g id="patch_1">
   <path d="M 0 568.8 
L 208.420528 568.8 
L 208.420528 0 
L 0 0 
z
" style="fill: #ffffff"/>
  </g>
  <g id="axes_1">
   <g id="LineCollection_1">
    <path d="M 166.718086 32.4 
L 177.507429 39.212903 
L 190.055903 45.870968 
L 192.401413 49.277419 
L 192.049586 51.445161 
L 187.710394 58.412903 
L 183.488477 66.929032 
L 176.100123 78.232258 
L 173.637338 84.890323 
L 169.767248 91.858065 
L 166.718086 95.729032 
L 165.193505 99.445161 
L 160.502486 107.187097 
L 159.447007 110.43871 
L 155.576917 118.645161 
L 148.071287 130.877419 
L 143.262993 140.477419 
L 137.868322 149.458065 
L 134.115507 156.580645 
L 130.245417 166.180645 
L 122.505236 178.258065 
L 113.240474 193.432258 
L 110.77769 198.232258 
L 105.383018 204.735484 
L 99.871072 213.870968 
L 87.439872 238.8 
L 83.217956 245.767742 
L 78.292386 255.058065 
L 77.002356 259.703226 
L 72.897715 269.303226 
L 67.033942 279.522581 
L 65.978463 282.154839 
L 60.34924 292.219355 
L 58.472833 297.329032 
L 53.781814 304.606452 
L 49.794449 312.812903 
L 46.862562 317.148387 
L 43.227023 324.116129 
L 31.382201 345.019355 
L 26.573907 355.083871 
L 21.531062 361.741935 
L 18.833726 366.696774 
L 16.019115 369.793548 
L 17.19187 371.496774 
L 23.172918 376.451613 
L 29.271242 379.703226 
L 34.079536 384.03871 
L 46.041634 391.16129 
L 48.035317 393.63871 
L 75.125949 406.645161 
L 79.816967 410.051613 
L 81.927926 414.232258 
L 82.279752 416.709677 
L 80.637896 420.270968 
L 83.687058 421.974194 
L 89.199004 422.283871 
L 93.420921 428.167742 
L 99.871072 431.883871 
L 105.031192 433.741935 
L 107.845803 431.419355 
L 111.715893 430.335484 
L 116.406912 430.490323 
L 120.746104 431.883871 
L 128.017183 435.445161 
L 135.170986 439.625806 
L 140.565658 442.258065 
L 147.954012 448.141935 
L 151.589551 449.535484 
L 152.762306 451.703226 
L 149.478593 456.658065 
L 144.553023 461.148387 
L 139.862005 467.651613 
L 133.294579 478.954839 
L 128.838111 488.245161 
L 126.258051 495.367742 
L 123.208889 499.083871 
L 121.097931 503.109677 
L 117.579667 507.909677 
L 113.005924 516.116129 
L 110.894965 521.070968 
L 108.549456 524.322581 
L 102.685683 536.4 
L 101.512928 536.4 
L 94.4764 532.83871 
L 90.840861 531.909677 
L 85.211639 526.490323 
L 86.267118 526.180645 
" clip-path="url(#p29b5c09819)" style="fill: none; stroke: #000000; stroke-width: 3"/>
   </g>
  </g>
 </g>
 <defs>
  <clipPath id="p29b5c09819">
   <rect x="7.2" y="7.2" width="194.020528" height="554.4"/>
  </clipPath>
 </defs>
</svg>
