<?xml version="1.0" encoding="utf-8" standalone="no"?>
<!DOCTYPE svg PUBLIC "-//W3C//DTD SVG 1.1//EN"
  "http://www.w3.org/Graphics/SVG/1.1/DTD/svg11.dtd">
<svg xmlns:xlink="http://www.w3.org/1999/xlink" width="184.118672pt" height="568.8pt" viewBox="0 0 184.118672 568.8" xmlns="http://www.w3.org/2000/svg" version="1.1">
 <metadata>
  <rdf:RDF xmlns:dc="http://purl.org/dc/elements/1.1/" xmlns:cc="http://creativecommons.org/ns#" xmlns:rdf="http://www.w3.org/1999/02/22-rdf-syntax-ns#">
   <cc:Work>
    <dc:type rdf:resource="http://purl.org/dc/dcmitype/StillImage"/>
    <dc:date>2023-09-25T14:14:23.834125</dc:date>
    <dc:format>image/svg+xml</dc:format>
    <dc:creator>
     <cc:Agent>
      <dc:title>Matplotlib v3.6.2, https://matplotlib.org/</dc:title>
     </cc:Agent>
    </dc:creator>
   </cc:Work>
  </rdf:RDF>
 </metadata>
 <defs>
  <style type="text/css">*{stroke-linejoin: round; stroke-linecap: butt}</style>
 </defs>
 <g id="figure_1">
  <g id="patch_1">
   <path d="M 0 568.8 
L 184.118672 568.8 
L 184.118672 0 
L 0 0 
z
" style="fill: #ffffff"/>
  </g>
  <g id="axes_1">
   <g id="LineCollection_1">
    <path d="M 145.955054 32.4 
L 146.072474 33.330175 
L 151.826047 34.880468 
L 155.935742 36.895847 
L 157.109941 38.44614 
L 165.799011 42.786958 
L 168.617088 45.887542 
L 169.204187 50.073331 
L 168.499668 52.553799 
L 158.988659 69.917072 
L 155.466063 77.513504 
L 151.943467 82.009351 
L 145.250535 93.326484 
L 143.489237 97.667302 
L 133.743388 113.635312 
L 128.929174 122.471978 
L 125.876257 125.572562 
L 122.118821 134.409228 
L 122.471081 135.649462 
L 118.478806 142.470747 
L 116.247828 148.051799 
L 114.72137 148.671916 
L 102.861964 172.236358 
L 100.278727 177.972439 
L 92.059336 192.855245 
L 92.059336 190.374777 
L 90.415458 191.925069 
L 87.245122 199.056413 
L 88.3019 199.366472 
L 79.61283 214.714365 
L 74.681196 225.56641 
L 70.454081 230.992433 
L 67.401165 237.348631 
L 61.530171 248.355706 
L 50.023025 268.199446 
L 44.269451 279.206521 
L 37.224259 290.988742 
L 33.114564 300.135466 
L 21.724837 319.824177 
L 18.671921 326.335404 
L 15.384165 331.606398 
L 14.914485 333.776807 
L 20.785478 334.706982 
L 30.883587 341.373239 
L 35.932641 344.008736 
L 45.20881 345.403999 
L 47.322368 348.504583 
L 46.500429 350.830022 
L 55.776598 356.566103 
L 65.639867 359.821716 
L 73.741837 366.487973 
L 79.495411 367.263119 
L 87.832221 376.564872 
L 95.816772 382.611012 
L 98.634849 385.556567 
L 102.861964 387.726976 
L 111.081354 390.207444 
L 113.664591 392.687911 
L 114.134271 396.098554 
L 113.312332 401.679606 
L 114.134271 405.245278 
L 120.005264 404.625161 
L 125.758837 399.199139 
L 135.622106 388.96721 
L 141.610519 385.711596 
L 145.485375 385.711596 
L 146.776993 391.757736 
L 151.356368 400.749431 
L 149.47765 405.245278 
L 149.47765 407.415687 
L 145.602794 416.562412 
L 143.606657 419.042879 
L 140.55374 427.104399 
L 135.269846 435.010889 
L 132.686609 439.816795 
L 124.702058 456.094863 
L 121.296882 460.74574 
L 118.948485 466.326792 
L 111.081354 480.434451 
L 108.732957 486.325561 
L 103.801323 494.852169 
L 99.691627 500.743279 
L 94.759993 510.975208 
L 92.998695 515.471055 
L 92.294176 514.695909 
L 87.832221 523.532575 
L 85.836083 524.46275 
L 80.904449 533.609474 
L 77.851533 536.4 
L 72.215379 535.934912 
L 63.526309 528.028422 
L 62.82179 525.082867 
L 64.935347 526.013042 
" clip-path="url(#p459e1db237)" style="fill: none; stroke: #000000; stroke-width: 3"/>
   </g>
  </g>
 </g>
 <defs>
  <clipPath id="p459e1db237">
   <rect x="7.2" y="7.2" width="169.718672" height="554.4"/>
  </clipPath>
 </defs>
</svg>
