<?xml version="1.0" encoding="utf-8" standalone="no"?>
<!DOCTYPE svg PUBLIC "-//W3C//DTD SVG 1.1//EN"
  "http://www.w3.org/Graphics/SVG/1.1/DTD/svg11.dtd">
<svg xmlns:xlink="http://www.w3.org/1999/xlink" width="300.214985pt" height="568.8pt" viewBox="0 0 300.214985 568.8" xmlns="http://www.w3.org/2000/svg" version="1.1">
 <metadata>
  <rdf:RDF xmlns:dc="http://purl.org/dc/elements/1.1/" xmlns:cc="http://creativecommons.org/ns#" xmlns:rdf="http://www.w3.org/1999/02/22-rdf-syntax-ns#">
   <cc:Work>
    <dc:type rdf:resource="http://purl.org/dc/dcmitype/StillImage"/>
    <dc:date>2023-09-25T14:14:23.672082</dc:date>
    <dc:format>image/svg+xml</dc:format>
    <dc:creator>
     <cc:Agent>
      <dc:title>Matplotlib v3.6.2, https://matplotlib.org/</dc:title>
     </cc:Agent>
    </dc:creator>
   </cc:Work>
  </rdf:RDF>
 </metadata>
 <defs>
  <style type="text/css">*{stroke-linejoin: round; stroke-linecap: butt}</style>
 </defs>
 <g id="figure_1">
  <g id="patch_1">
   <path d="M 0 568.8 
L 300.214985 568.8 
L 300.214985 0 
L 0 0 
z
" style="fill: #ffffff"/>
  </g>
  <g id="axes_1">
   <g id="LineCollection_1">
    <path d="M 32.674879 534.919389 
L 31.254624 532.550411 
L 32.301128 536.4 
L 29.75962 534.425852 
L 25.797858 533.537485 
L 21.163343 531.365922 
L 20.19159 531.365922 
L 21.312844 526.52926 
L 26.54536 518.53396 
L 26.993861 516.954642 
L 29.610119 511.427027 
L 33.19813 505.899412 
L 35.590138 501.358872 
L 36.561891 500.569213 
L 37.458894 498.00282 
L 39.4024 495.041598 
L 40.673154 491.981669 
L 44.634916 485.46698 
L 47.550175 479.741951 
L 51.212936 471.253114 
L 53.081692 467.798355 
L 54.501946 467.107403 
L 57.566706 461.579788 
L 59.435462 459.803055 
L 60.631465 457.039248 
L 63.397224 452.202585 
L 64.742728 450.524559 
L 68.55499 444.207286 
L 70.124745 440.061575 
L 72.890503 434.040423 
L 74.535008 431.770153 
L 76.702765 427.32832 
L 77.898769 425.946416 
L 80.739278 420.023972 
L 83.878787 415.384724 
L 86.943547 411.535135 
L 89.260804 405.612691 
L 91.578061 403.145006 
L 92.923565 400.677321 
L 95.315573 399.394125 
L 96.137825 397.913514 
L 94.41857 396.038073 
L 96.436826 395.050999 
L 95.315573 394.360047 
L 96.586327 391.793655 
L 95.614574 392.188484 
L 96.960078 390.115629 
L 103.014847 382.515159 
L 105.033103 378.66557 
L 110.415119 366.228437 
L 109.443366 363.662045 
L 105.406854 360.503408 
L 103.911849 358.233137 
L 103.837099 354.482256 
L 105.631105 352.014571 
L 107.948362 350.13913 
L 109.667617 347.671445 
L 113.330379 339.380024 
L 116.619389 332.766627 
L 120.954902 327.436428 
L 124.542913 325.46228 
L 127.233922 325.06745 
L 129.326928 325.363572 
L 135.456447 328.620917 
L 138.521206 328.719624 
L 140.688963 327.831257 
L 143.529472 325.955817 
L 145.622478 323.784254 
L 147.192233 321.119154 
L 148.462987 317.664395 
L 151.153996 313.913514 
L 158.330018 309.076851 
L 160.722025 306.609166 
L 161.693778 304.832432 
L 164.310036 298.317744 
L 164.758538 295.257814 
L 164.085786 292.00047 
L 162.441281 288.743126 
L 161.918029 286.078026 
L 162.36653 282.327145 
L 163.637284 280.056874 
L 166.253542 276.898237 
L 169.243552 274.430552 
L 173.205314 272.061575 
L 175.14882 270.087427 
L 176.045823 266.830082 
L 175.746822 263.967568 
L 176.195323 260.808931 
L 177.391327 257.847709 
L 179.932835 248.569213 
L 183.072344 241.166157 
L 184.268348 239.290717 
L 189.127113 234.256639 
L 192.341373 230.209636 
L 194.135379 226.853584 
L 197.499139 219.055699 
L 200.264898 214.909988 
L 202.133653 213.231962 
L 205.048912 211.455229 
L 208.487423 210.073325 
L 212.598686 209.481081 
L 217.382701 210.566863 
L 221.568714 210.369448 
L 224.259722 209.184959 
L 226.128478 207.210811 
L 229.492238 200.893537 
L 232.257997 196.155582 
L 233.37925 193.589189 
L 237.939014 185.495182 
L 240.405772 180.658519 
L 243.844283 174.834783 
L 247.282793 168.023972 
L 250.796054 162.101528 
L 252.066808 159.239013 
L 252.889061 156.179083 
L 252.81431 148.776028 
L 253.711313 143.643243 
L 253.786063 141.274266 
L 252.81431 137.720799 
L 250.048552 132.982844 
L 250.347553 128.343596 
L 253.487062 121.828907 
L 255.80432 118.275441 
L 258.794329 114.623267 
L 264.325846 109.095652 
L 266.867354 105.640893 
L 267.764357 102.186134 
L 267.390605 96.362397 
L 267.614856 93.697297 
L 268.81086 86.590364 
L 269.707863 83.036898 
L 271.277617 80.371798 
L 273.594875 78.200235 
L 277.930388 75.73255 
L 279.948644 73.560987 
L 280.023395 70.501058 
L 278.752641 68.428202 
L 276.435383 67.441128 
L 274.716128 67.441128 
L 271.651369 68.823032 
L 269.109861 71.093302 
L 266.867354 71.981669 
L 264.475346 71.488132 
L 263.279343 70.40235 
L 262.45709 67.243713 
L 262.905592 65.664395 
L 264.774347 62.999295 
L 268.138108 59.248414 
L 270.679616 55.003995 
L 272.17462 51.253114 
L 272.772622 45.922914 
L 271.202867 42.862985 
L 268.212858 40.00047 
L 263.802594 36.743126 
L 257.972076 34.472855 
L 250.721304 33.288367 
L 247.357543 32.4 
L 245.787789 32.893537 
L 242.87253 35.361222 
L 242.199777 36.545711 
L 241.601776 40.691422 
L 242.349278 43.553937 
L 244.218034 45.231962 
L 249.3758 46.811281 
L 251.394056 48.291892 
L 252.365809 50.956992 
L 252.515309 55.20141 
L 254.159814 61.419976 
L 254.010314 63.690247 
L 251.992058 68.033373 
L 248.329296 71.488132 
L 246.834292 72.475206 
L 241.153274 74.548061 
L 239.583519 75.535135 
L 237.266262 78.200235 
L 235.472257 83.234313 
L 233.528751 85.307168 
L 228.296234 87.478731 
L 223.138468 89.946416 
L 219.027206 93.20376 
L 217.30795 95.967568 
L 214.392691 102.087427 
L 211.776433 108.996945 
L 210.057178 111.859459 
L 207.291419 115.215511 
L 201.460901 119.163807 
L 199.965897 121.434078 
L 199.068894 123.901763 
L 198.844643 126.468155 
L 199.068894 131.403525 
L 198.396142 134.463455 
L 197.499139 136.042773 
L 194.957631 138.214336 
L 189.874615 140.287192 
L 185.240101 142.754877 
L 180.530837 146.604465 
L 177.241826 150.947591 
L 174.326567 157.758402 
L 173.952816 159.140306 
L 173.952816 165.358872 
L 176.942825 175.427027 
L 176.718575 178.684371 
L 175.971072 181.448179 
L 174.251817 184.705523 
L 170.215305 189.7396 
L 166.477793 193.391774 
L 163.039282 195.859459 
L 160.946276 198.425852 
L 159.600772 203.361222 
L 160.049273 208.790129 
L 159.675522 212.541011 
L 158.554269 215.20611 
L 156.237011 218.759577 
L 147.790235 225.274266 
L 146.444731 226.656169 
L 141.137465 233.565687 
L 137.923205 237.217861 
L 133.811942 240.376498 
L 133.961442 236.329495 
L 132.242187 233.565687 
L 130.298681 231.394125 
L 126.411669 228.729025 
L 121.851905 226.360047 
L 113.405129 222.313043 
L 108.920115 219.647944 
L 108.247363 219.647944 
L 103.089597 227.149706 
L 100.99659 231.394125 
L 99.053084 230.703173 
L 94.56807 227.741951 
L 89.260804 225.372973 
L 83.505036 222.313043 
L 83.430286 222.016921 
L 83.430286 222.016921 
" clip-path="url(#p0bca0553e8)" style="fill: none; stroke: #000000; stroke-width: 3"/>
   </g>
  </g>
 </g>
 <defs>
  <clipPath id="p0bca0553e8">
   <rect x="7.2" y="7.2" width="285.814985" height="554.4"/>
  </clipPath>
 </defs>
</svg>
