<?xml version="1.0" encoding="utf-8" standalone="no"?>
<!DOCTYPE svg PUBLIC "-//W3C//DTD SVG 1.1//EN"
  "http://www.w3.org/Graphics/SVG/1.1/DTD/svg11.dtd">
<svg xmlns:xlink="http://www.w3.org/1999/xlink" width="299.718554pt" height="568.8pt" viewBox="0 0 299.718554 568.8" xmlns="http://www.w3.org/2000/svg" version="1.1">
 <metadata>
  <rdf:RDF xmlns:dc="http://purl.org/dc/elements/1.1/" xmlns:cc="http://creativecommons.org/ns#" xmlns:rdf="http://www.w3.org/1999/02/22-rdf-syntax-ns#">
   <cc:Work>
    <dc:type rdf:resource="http://purl.org/dc/dcmitype/StillImage"/>
    <dc:date>2023-09-25T14:14:23.170865</dc:date>
    <dc:format>image/svg+xml</dc:format>
    <dc:creator>
     <cc:Agent>
      <dc:title>Matplotlib v3.6.2, https://matplotlib.org/</dc:title>
     </cc:Agent>
    </dc:creator>
   </cc:Work>
  </rdf:RDF>
 </metadata>
 <defs>
  <style type="text/css">*{stroke-linejoin: round; stroke-linecap: butt}</style>
 </defs>
 <g id="figure_1">
  <g id="patch_1">
   <path d="M -0 568.8 
L 299.718554 568.8 
L 299.718554 0 
L -0 0 
z
" style="fill: #ffffff"/>
  </g>
  <g id="axes_1">
   <g id="LineCollection_1">
    <path d="M 32.794401 536.4 
L 29.806146 535.413506 
L 23.007867 534.525661 
L 20.169025 532.158074 
L 20.766676 526.337757 
L 23.306693 522.983676 
L 26.369654 517.952554 
L 28.610845 513.020082 
L 35.110298 501.478097 
L 38.098553 494.178039 
L 39.144442 493.586142 
L 40.563863 489.344216 
L 44.075062 484.115796 
L 46.988611 478.591427 
L 48.85627 475.631944 
L 51.396286 472.475161 
L 53.114533 468.430534 
L 56.102787 463.498062 
L 56.924557 460.834527 
L 59.763399 455.902055 
L 62.676948 448.404698 
L 65.142258 443.866823 
L 70.745235 435.974868 
L 72.837013 431.634292 
L 74.181728 429.661304 
L 75.750562 425.518027 
L 76.721744 424.235584 
L 78.66411 419.303112 
L 80.755888 416.14633 
L 82.100603 412.299002 
L 83.071786 413.581445 
L 85.835921 409.635467 
L 86.88181 409.536817 
L 87.852993 406.971932 
L 91.588311 400.26377 
L 94.950098 391.286671 
L 98.237178 386.255549 
L 99.656599 383.000117 
L 103.989568 376.390605 
L 105.931934 370.668937 
L 107.351355 367.314856 
L 106.753704 363.664827 
L 103.616036 361.494539 
L 102.121909 359.718849 
L 101.225433 357.449912 
L 101.748377 354.490429 
L 102.644853 353.109336 
L 106.903116 349.262008 
L 109.816665 343.047093 
L 114.971404 333.774046 
L 118.930841 328.545625 
L 121.396151 325.98074 
L 124.757938 324.500998 
L 129.016201 324.599648 
L 130.360915 325.092895 
L 133.946821 327.559131 
L 137.532727 328.348326 
L 139.026854 328.052378 
L 142.313934 326.079389 
L 145.376895 322.922607 
L 146.945729 320.259072 
L 149.261626 315.227951 
L 152.922238 311.479272 
L 158.375803 308.026541 
L 161.065232 305.165708 
L 163.007597 301.022431 
L 164.427018 295.399413 
L 163.97878 292.045332 
L 162.185827 288.395302 
L 161.438764 285.435819 
L 161.737589 282.574985 
L 162.634066 280.799295 
L 165.995852 276.064122 
L 169.208226 273.400587 
L 172.495306 271.427598 
L 174.811203 269.553259 
L 175.70768 267.58027 
L 175.483561 261.957252 
L 177.276513 256.827481 
L 178.695934 250.316618 
L 179.741823 247.357134 
L 183.551848 239.859777 
L 190.574247 231.869172 
L 192.591318 228.416442 
L 195.504867 221.60963 
L 198.194296 216.38121 
L 200.211368 213.421726 
L 203.124916 211.251439 
L 207.831417 209.475749 
L 210.371434 208.883852 
L 212.91145 208.883852 
L 215.451467 209.475749 
L 219.933848 209.771697 
L 222.249746 209.1798 
L 225.835651 206.318967 
L 230.243327 198.328362 
L 237.116313 186.29313 
L 238.461027 183.432296 
L 241.225163 178.795772 
L 245.1846 171.002466 
L 247.201672 167.648385 
L 250.563459 161.236171 
L 251.908173 157.98074 
L 252.580531 154.626659 
L 252.505824 151.075279 
L 253.701126 141.703582 
L 252.954062 137.363006 
L 250.488752 132.825132 
L 250.264633 130.161597 
L 250.787578 127.498062 
L 252.206999 123.552085 
L 255.195253 118.225015 
L 259.154691 112.996594 
L 261.84412 109.938462 
L 266.475915 105.301938 
L 267.745923 102.243805 
L 267.073566 96.12754 
L 268.194161 86.657193 
L 269.538876 82.119319 
L 272.303011 78.37064 
L 278.130108 74.81926 
L 279.549529 72.550323 
L 279.549529 69.886788 
L 277.084219 67.420552 
L 274.245377 67.321903 
L 271.555948 68.702995 
L 268.343574 71.169231 
L 266.401208 71.563829 
L 264.533549 70.971932 
L 262.815303 68.407046 
L 262.740596 66.434058 
L 264.533549 63.277275 
L 268.119455 59.232648 
L 269.837701 56.371814 
L 271.481241 52.327187 
L 272.676543 46.901468 
L 271.929479 43.547387 
L 268.791812 39.798708 
L 263.935898 36.247328 
L 262.292358 35.458133 
L 257.511151 34.077041 
L 251.534641 33.386494 
L 248.322268 32.4 
L 244.661656 33.386494 
L 242.495171 35.754081 
L 241.523988 37.62842 
L 241.07575 40.291955 
L 241.523988 42.264944 
L 242.868703 44.435232 
L 250.040514 47.296066 
L 251.75876 48.677158 
L 252.655237 50.255549 
L 252.655237 54.793423 
L 254.149364 61.698884 
L 253.701126 64.362419 
L 251.16111 68.801644 
L 248.621093 70.873282 
L 241.523988 73.931415 
L 239.058678 75.805755 
L 237.265725 78.37064 
L 236.294543 81.724721 
L 233.903939 85.078802 
L 231.363923 86.459894 
L 224.864469 88.630182 
L 221.652095 90.80047 
L 219.336198 93.858602 
L 215.899705 100.369466 
L 213.284982 105.992484 
L 212.164386 109.642513 
L 210.670259 112.404698 
L 207.308473 116.153376 
L 202.004321 119.606107 
L 199.987249 122.762889 
L 199.240185 125.229125 
L 199.464304 131.838638 
L 198.044883 136.277863 
L 195.579573 138.5468 
L 190.723659 140.815737 
L 186.315984 142.492777 
L 183.626554 144.268467 
L 180.937125 146.932002 
L 176.902982 152.357722 
L 174.88591 156.796947 
L 174.288259 160.940223 
L 174.437671 164.294304 
L 175.110029 167.648385 
L 177.425926 176.033588 
L 177.201807 179.979565 
L 175.483561 183.629595 
L 171.748242 188.463417 
L 169.955289 190.239107 
L 163.530542 195.07293 
L 161.588176 197.637816 
L 160.318168 201.682443 
L 160.542287 208.883852 
L 160.019343 212.533881 
L 158.749335 215.098767 
L 156.284024 218.255549 
L 148.813388 224.963711 
L 144.181593 230.38943 
L 141.641577 234.532707 
L 136.935076 238.873282 
L 134.021527 240.353024 
L 134.395059 238.182736 
L 134.096234 235.223253 
L 131.556217 231.770523 
L 126.177359 228.120493 
L 121.470858 225.456958 
L 111.236086 220.129888 
L 108.47195 219.537992 
L 106.305465 222.793423 
L 104.661925 223.878567 
L 100.777194 230.290781 
L 99.43248 230.290781 
L 96.817757 228.515091 
L 89.944771 225.259659 
L 84.192381 221.905578 
L 84.192381 221.905578 
" clip-path="url(#p53fcfb5cc4)" style="fill: none; stroke: #000000; stroke-width: 3"/>
   </g>
  </g>
 </g>
 <defs>
  <clipPath id="p53fcfb5cc4">
   <rect x="7.2" y="7.2" width="285.318554" height="554.4"/>
  </clipPath>
 </defs>
</svg>
