<?xml version="1.0" encoding="utf-8" standalone="no"?>
<!DOCTYPE svg PUBLIC "-//W3C//DTD SVG 1.1//EN"
  "http://www.w3.org/Graphics/SVG/1.1/DTD/svg11.dtd">
<svg xmlns:xlink="http://www.w3.org/1999/xlink" width="230.787096pt" height="568.8pt" viewBox="0 0 230.787096 568.8" xmlns="http://www.w3.org/2000/svg" version="1.1">
 <metadata>
  <rdf:RDF xmlns:dc="http://purl.org/dc/elements/1.1/" xmlns:cc="http://creativecommons.org/ns#" xmlns:rdf="http://www.w3.org/1999/02/22-rdf-syntax-ns#">
   <cc:Work>
    <dc:type rdf:resource="http://purl.org/dc/dcmitype/StillImage"/>
    <dc:date>2023-09-25T14:14:23.106673</dc:date>
    <dc:format>image/svg+xml</dc:format>
    <dc:creator>
     <cc:Agent>
      <dc:title>Matplotlib v3.6.2, https://matplotlib.org/</dc:title>
     </cc:Agent>
    </dc:creator>
   </cc:Work>
  </rdf:RDF>
 </metadata>
 <defs>
  <style type="text/css">*{stroke-linejoin: round; stroke-linecap: butt}</style>
 </defs>
 <g id="figure_1">
  <g id="patch_1">
   <path d="M -0 568.8 
L 230.787096 568.8 
L 230.787096 0 
L -0 0 
z
" style="fill: #ffffff"/>
  </g>
  <g id="axes_1">
   <g id="LineCollection_1">
    <path d="M 144.653297 54.241981 
L 144.540759 53.201887 
L 140.714484 50.675943 
L 137.113284 49.190094 
L 128.898047 43.395283 
L 122.708485 40.86934 
L 115.168473 36.263208 
L 110.104286 34.480189 
L 107.403386 32.4 
L 104.927561 34.628774 
L 102.339198 40.423585 
L 101.551436 44.435377 
L 99.975911 46.218396 
L 98.625461 50.230189 
L 95.024261 54.390566 
L 87.934399 65.831604 
L 80.506924 80.392925 
L 76.905725 86.187736 
L 68.465412 101.194811 
L 65.201825 105.503774 
L 58.111963 119.916509 
L 52.710163 127.49434 
L 48.883888 134.923585 
L 45.282688 138.935377 
L 43.031938 145.027358 
L 37.292526 156.616981 
L 31.440576 163.749057 
L 28.402064 171.772642 
L 23.900564 178.607547 
L 20.974589 178.607547 
L 19.624139 180.241981 
L 17.035777 186.928302 
L 18.048615 191.385849 
L 24.463252 195.546226 
L 26.263852 198.07217 
L 25.701164 199.706604 
L 31.102964 201.786792 
L 29.977589 199.706604 
L 39.655814 206.392925 
L 44.720001 209.067453 
L 47.871051 209.958962 
L 50.684488 211.890566 
L 55.861213 213.22783 
L 62.388388 214.11934 
L 66.439737 215.605189 
L 67.67765 217.239623 
L 78.143637 224.520283 
L 82.082449 226.154717 
L 83.095287 229.126415 
L 88.834699 231.355189 
L 91.648136 233.286792 
L 97.500086 235.515566 
L 99.863374 237.298585 
L 105.490248 239.973113 
L 112.355036 245.32217 
L 117.53176 247.105189 
L 122.370873 249.928302 
L 125.859535 253.345755 
L 132.611785 257.803302 
L 136.663135 258.991981 
L 140.376872 261.963679 
L 149.942559 266.718396 
L 159.508246 269.392925 
L 162.434221 271.473113 
L 169.299008 278.902358 
L 177.851858 283.508491 
L 183.253658 284.845755 
L 192.031582 290.491981 
L 197.433382 292.86934 
L 211.388031 301.338679 
L 213.751319 302.230189 
L 211.838181 307.579245 
L 205.761157 316.49434 
L 203.172794 320.951887 
L 201.709807 326.300943 
L 198.446219 331.204245 
L 195.745319 339.376415 
L 191.468895 346.211321 
L 188.99307 346.508491 
L 187.079932 350.371698 
L 187.305007 354.532075 
L 185.054257 355.720755 
L 184.266495 359.583962 
L 177.851858 367.458962 
L 173.350358 374.591038 
L 171.662296 378.454245 
L 166.823183 387.07217 
L 164.572433 394.204245 
L 157.370034 402.82217 
L 154.556596 407.725472 
L 152.643459 413.668868 
L 149.830021 416.491981 
L 147.916884 422.286792 
L 144.878372 427.933019 
L 141.052097 436.253774 
L 138.238659 441.30566 
L 133.061935 446.208962 
L 131.148797 451.706604 
L 126.872372 458.690094 
L 121.920723 469.091038 
L 121.358035 473.10283 
L 118.544598 476.668868 
L 116.63146 480.532075 
L 114.943398 482.017925 
L 113.592948 485.881132 
L 107.740998 496.579245 
L 101.326361 504.157075 
L 96.712324 512.923585 
L 94.123961 516.935377 
L 89.847536 527.187736 
L 84.220662 536.4 
L 81.632299 535.062736 
L 77.918562 528.673585 
L 76.005425 526.741981 
L 68.690487 525.404717 
L 68.57795 527.782075 
" clip-path="url(#pccc82dfb6d)" style="fill: none; stroke: #000000; stroke-width: 3"/>
   </g>
  </g>
 </g>
 <defs>
  <clipPath id="pccc82dfb6d">
   <rect x="7.2" y="7.2" width="216.387096" height="554.4"/>
  </clipPath>
 </defs>
</svg>
