<?xml version="1.0" encoding="utf-8" standalone="no"?>
<!DOCTYPE svg PUBLIC "-//W3C//DTD SVG 1.1//EN"
  "http://www.w3.org/Graphics/SVG/1.1/DTD/svg11.dtd">
<svg xmlns:xlink="http://www.w3.org/1999/xlink" width="345.07367pt" height="568.8pt" viewBox="0 0 345.07367 568.8" xmlns="http://www.w3.org/2000/svg" version="1.1">
 <metadata>
  <rdf:RDF xmlns:dc="http://purl.org/dc/elements/1.1/" xmlns:cc="http://creativecommons.org/ns#" xmlns:rdf="http://www.w3.org/1999/02/22-rdf-syntax-ns#">
   <cc:Work>
    <dc:type rdf:resource="http://purl.org/dc/dcmitype/StillImage"/>
    <dc:date>2023-09-25T14:14:22.872785</dc:date>
    <dc:format>image/svg+xml</dc:format>
    <dc:creator>
     <cc:Agent>
      <dc:title>Matplotlib v3.6.2, https://matplotlib.org/</dc:title>
     </cc:Agent>
    </dc:creator>
   </cc:Work>
  </rdf:RDF>
 </metadata>
 <defs>
  <style type="text/css">*{stroke-linejoin: round; stroke-linecap: butt}</style>
 </defs>
 <g id="figure_1">
  <g id="patch_1">
   <path d="M 0 568.8 
L 345.07367 568.8 
L 345.07367 0 
L 0 0 
z
" style="fill: #ffffff"/>
  </g>
  <g id="axes_1">
   <g id="LineCollection_1">
    <path d="M 207.608285 35.106444 
L 208.519231 32.4 
L 216.490016 39.015752 
L 221.500223 41.120764 
L 259.304513 60.366587 
L 252.016939 71.793795 
L 246.323522 84.724582 
L 234.708951 105.774702 
L 228.56006 118.404773 
L 219.450592 133.440573 
L 211.707545 148.476372 
L 200.320711 168.022912 
L 183.012723 201.402387 
L 175.269675 213.431026 
L 167.754364 233.879714 
L 159.10037 248.314081 
L 157.506214 255.230549 
L 149.079956 268.161337 
L 127.672708 307.254415 
L 112.642086 332.815274 
L 104.443565 349.053938 
L 95.789571 360.481146 
L 93.284468 368.299761 
L 87.591051 378.524105 
L 83.49179 382.734129 
L 80.303477 392.657757 
L 63.223225 423.030072 
L 59.351701 432.352267 
L 52.291864 443.779475 
L 41.132766 464.228162 
L 29.745932 487.383294 
L 22.230621 499.712649 
L 23.597041 504.223389 
L 58.440755 521.664916 
L 70.738536 530.987112 
L 82.12537 536.4 
L 90.323891 529.182816 
L 95.334098 518.357041 
L 108.542826 496.705489 
L 114.236243 491.593317 
L 115.8304 493.096897 
L 116.51361 484.376134 
L 121.751554 471.14463 
L 130.177811 456.710263 
L 136.326702 443.478759 
L 143.386539 433.855847 
L 148.852219 418.519332 
L 155.00111 411.90358 
L 163.427367 408.294988 
L 168.209838 403.483532 
L 169.348521 398.972792 
L 167.754364 388.748449 
L 168.893048 380.929833 
L 171.398151 377.621957 
L 176.863832 364.089737 
L 190.983507 338.829594 
L 197.815607 324.395227 
L 203.509024 315.674463 
L 207.836021 306.051551 
L 218.311909 289.211456 
L 233.34253 262.748449 
L 237.441791 254.328401 
L 254.522042 223.354654 
L 262.26509 210.12315 
L 270.691347 192.681623 
L 276.384764 183.960859 
L 279.800815 175.841527 
L 286.632915 166.519332 
L 290.048966 158.4 
L 295.514646 151.483532 
L 298.475223 144.567064 
L 314.416791 114.796181 
L 322.843048 95.550358 
L 321.021155 93.14463 
L 303.029957 84.12315 
L 285.266495 72.094511 
L 266.592087 63.373747 
L 263.63151 60.366587 
L 256.571672 57.960859 
L 241.541051 48.638663 
L 226.51043 41.722196 
L 211.024335 33.001432 
" clip-path="url(#p131946e621)" style="fill: none; stroke: #000000; stroke-width: 3"/>
   </g>
  </g>
 </g>
 <defs>
  <clipPath id="p131946e621">
   <rect x="7.2" y="7.2" width="330.67367" height="554.4"/>
  </clipPath>
 </defs>
</svg>
