<?xml version="1.0" encoding="utf-8" standalone="no"?>
<!DOCTYPE svg PUBLIC "-//W3C//DTD SVG 1.1//EN"
  "http://www.w3.org/Graphics/SVG/1.1/DTD/svg11.dtd">
<svg xmlns:xlink="http://www.w3.org/1999/xlink" width="300.727121pt" height="568.8pt" viewBox="0 0 300.727121 568.8" xmlns="http://www.w3.org/2000/svg" version="1.1">
 <metadata>
  <rdf:RDF xmlns:dc="http://purl.org/dc/elements/1.1/" xmlns:cc="http://creativecommons.org/ns#" xmlns:rdf="http://www.w3.org/1999/02/22-rdf-syntax-ns#">
   <cc:Work>
    <dc:type rdf:resource="http://purl.org/dc/dcmitype/StillImage"/>
    <dc:date>2023-09-25T14:14:22.415642</dc:date>
    <dc:format>image/svg+xml</dc:format>
    <dc:creator>
     <cc:Agent>
      <dc:title>Matplotlib v3.6.2, https://matplotlib.org/</dc:title>
     </cc:Agent>
    </dc:creator>
   </cc:Work>
  </rdf:RDF>
 </metadata>
 <defs>
  <style type="text/css">*{stroke-linejoin: round; stroke-linecap: butt}</style>
 </defs>
 <g id="figure_1">
  <g id="patch_1">
   <path d="M 0 568.8 
L 300.727121 568.8 
L 300.727121 0 
L 0 0 
z
" style="fill: #ffffff"/>
  </g>
  <g id="axes_1">
   <g id="LineCollection_1">
    <path d="M 33.875443 536.4 
L 27.828959 533.147115 
L 23.648675 532.259965 
L 21.035997 529.992803 
L 20.214869 528.021357 
L 20.886701 525.852767 
L 21.857124 526.345629 
L 22.827547 524.768473 
L 26.261353 516.192685 
L 29.172622 511.954078 
L 30.665581 508.99691 
L 33.950091 504.561158 
L 36.338825 500.125406 
L 38.055728 498.351105 
L 42.012069 488.395306 
L 44.550099 485.53671 
L 46.416298 482.283826 
L 47.162777 479.326658 
L 47.834609 478.833796 
L 49.25292 474.792333 
L 49.028976 473.905183 
L 50.372639 472.426599 
L 54.478276 464.737962 
L 58.583913 460.499355 
L 59.852928 456.359319 
L 63.883917 450.7407 
L 67.467018 443.840642 
L 66.795186 439.897751 
L 68.661385 436.940583 
L 68.885329 435.560571 
L 72.319134 432.800548 
L 73.364206 430.927675 
L 72.319134 429.84338 
L 74.409277 426.886212 
L 79.634633 420.971876 
L 80.157169 419.296147 
L 85.307877 413.874672 
L 88.44309 408.157481 
L 92.474079 403.820301 
L 93.817742 400.074555 
L 95.236053 397.413104 
L 95.683941 390.217328 
L 97.326196 386.964444 
L 100.536057 384.992998 
L 102.029016 382.922981 
L 105.089582 374.64291 
L 107.105076 371.981459 
L 109.643107 367.052846 
L 108.971275 365.377117 
L 109.86705 363.405672 
L 109.269867 362.321377 
L 105.836061 360.054215 
L 103.820567 356.604185 
L 103.895215 354.435596 
L 106.134653 351.084138 
L 108.224796 349.802699 
L 110.165642 347.042676 
L 112.181137 342.114062 
L 117.033253 332.355408 
L 120.093819 328.313945 
L 123.378328 325.553921 
L 126.886782 324.371054 
L 130.320587 324.666771 
L 136.889606 327.722511 
L 139.576932 327.919656 
L 142.264258 326.835361 
L 145.324824 324.469626 
L 147.116375 322.103892 
L 149.355813 316.485273 
L 151.147364 313.922394 
L 153.386802 311.950949 
L 158.686806 308.796636 
L 161.523428 305.93804 
L 164.061458 301.107999 
L 165.181177 297.460825 
L 165.405121 293.32079 
L 163.016387 287.899315 
L 163.016387 282.970702 
L 164.210754 280.112106 
L 167.719207 275.774927 
L 170.406533 273.507765 
L 174.064283 271.043458 
L 176.378369 268.677723 
L 176.975552 265.621983 
L 176.602313 261.087659 
L 177.722032 258.031919 
L 180.260062 248.766126 
L 181.678373 245.118952 
L 184.365699 239.894622 
L 186.455841 237.134598 
L 192.054437 231.515979 
L 193.920636 228.263094 
L 197.727681 219.490162 
L 200.788247 214.857266 
L 202.729093 212.88582 
L 205.938955 210.914375 
L 211.089663 209.140074 
L 214.448821 209.041502 
L 217.882626 209.83008 
L 220.943192 209.928652 
L 223.107982 209.435791 
L 226.168548 207.070057 
L 228.333338 203.7186 
L 233.558694 194.354234 
L 235.648837 190.017055 
L 241.247433 179.864111 
L 248.786875 166.852572 
L 250.727722 163.796832 
L 252.96716 158.868218 
L 253.564343 155.122472 
L 253.489696 150.391003 
L 254.310823 143.688089 
L 254.385471 140.829493 
L 253.3404 137.280892 
L 250.951665 132.647995 
L 251.026313 128.902249 
L 252.668568 124.565069 
L 254.385471 121.312185 
L 258.640404 115.397849 
L 266.329142 107.117778 
L 268.195341 104.062038 
L 268.56858 101.302014 
L 268.046045 96.964835 
L 268.195341 93.514805 
L 269.762947 84.840446 
L 270.584075 82.277567 
L 272.002386 80.207549 
L 274.839008 77.546098 
L 279.019293 75.081792 
L 280.512251 73.011774 
L 280.512251 70.350323 
L 279.616476 68.674594 
L 278.048869 67.590299 
L 276.257319 67.294582 
L 273.569993 68.083161 
L 269.613652 70.941756 
L 267.971397 71.730334 
L 265.209423 71.336045 
L 263.268576 69.3646 
L 263.193928 66.900293 
L 263.791112 65.421709 
L 269.389708 58.225934 
L 272.599569 52.213026 
L 273.346049 49.847291 
L 273.569993 45.904401 
L 272.375625 43.341522 
L 270.061539 40.778643 
L 266.77703 37.920047 
L 264.761535 36.638607 
L 261.103786 35.061451 
L 256.102374 33.878584 
L 251.548849 33.28715 
L 248.413635 32.4 
L 245.651661 33.28715 
L 243.262927 35.751457 
L 242.740392 36.934324 
L 242.4418 41.172932 
L 243.860111 43.440094 
L 245.800957 45.01725 
L 249.458707 46.101545 
L 251.175609 47.087268 
L 253.191104 49.945863 
L 253.3404 54.480188 
L 254.982654 60.690241 
L 254.460119 65.224565 
L 252.892512 67.886016 
L 250.05589 70.64604 
L 246.771381 72.518913 
L 241.471376 74.490358 
L 239.381234 76.067514 
L 237.888275 78.137532 
L 236.022077 83.164717 
L 233.260103 85.727596 
L 226.840379 88.191903 
L 222.660094 90.754782 
L 219.823473 93.613378 
L 218.330514 95.781968 
L 214.896708 102.484882 
L 212.806566 108.49779 
L 211.612199 110.962097 
L 209.298112 114.214981 
L 206.312195 116.580716 
L 204.147404 117.763583 
L 201.38543 120.523606 
L 200.340359 122.790769 
L 199.743176 126.437942 
L 200.041767 131.662273 
L 199.59388 133.535146 
L 197.279793 137.083747 
L 195.712187 138.365187 
L 192.129085 139.745199 
L 186.082602 142.800939 
L 182.723444 145.758107 
L 178.991047 150.193859 
L 176.229073 155.0239 
L 174.88541 160.741091 
L 175.333298 166.063994 
L 177.572736 173.259769 
L 178.095272 175.822648 
L 178.020624 178.286955 
L 177.0502 181.244123 
L 173.093859 187.454176 
L 168.689631 192.185644 
L 163.762866 195.931391 
L 161.82202 198.395697 
L 160.478357 202.732877 
L 160.851596 209.140074 
L 160.702301 211.604381 
L 159.433286 214.857266 
L 155.99948 219.095873 
L 150.400884 223.72877 
L 145.623416 228.854528 
L 142.040314 234.17743 
L 139.800876 236.543164 
L 134.874112 240.486055 
L 134.276928 235.951731 
L 132.336082 232.501702 
L 128.305093 229.051672 
L 122.855793 225.700215 
L 113.748744 221.264463 
L 110.165642 219.293018 
L 107.926204 218.997301 
L 105.014934 223.72877 
L 104.567046 225.503071 
L 101.282537 230.135967 
L 92.921967 225.404498 
L 87.547315 222.841619 
L 85.382525 221.363035 
L 84.412101 221.56018 
L 84.412101 221.56018 
" clip-path="url(#p2c66316bfa)" style="fill: none; stroke: #000000; stroke-width: 3"/>
   </g>
  </g>
 </g>
 <defs>
  <clipPath id="p2c66316bfa">
   <rect x="7.2" y="7.2" width="286.327121" height="554.4"/>
  </clipPath>
 </defs>
</svg>
