<?xml version="1.0" encoding="utf-8" standalone="no"?>
<!DOCTYPE svg PUBLIC "-//W3C//DTD SVG 1.1//EN"
  "http://www.w3.org/Graphics/SVG/1.1/DTD/svg11.dtd">
<svg xmlns:xlink="http://www.w3.org/1999/xlink" width="190.577618pt" height="568.8pt" viewBox="0 0 190.577618 568.8" xmlns="http://www.w3.org/2000/svg" version="1.1">
 <metadata>
  <rdf:RDF xmlns:dc="http://purl.org/dc/elements/1.1/" xmlns:cc="http://creativecommons.org/ns#" xmlns:rdf="http://www.w3.org/1999/02/22-rdf-syntax-ns#">
   <cc:Work>
    <dc:type rdf:resource="http://purl.org/dc/dcmitype/StillImage"/>
    <dc:date>2023-09-25T14:14:21.557139</dc:date>
    <dc:format>image/svg+xml</dc:format>
    <dc:creator>
     <cc:Agent>
      <dc:title>Matplotlib v3.6.2, https://matplotlib.org/</dc:title>
     </cc:Agent>
    </dc:creator>
   </cc:Work>
  </rdf:RDF>
 </metadata>
 <defs>
  <style type="text/css">*{stroke-linejoin: round; stroke-linecap: butt}</style>
 </defs>
 <g id="figure_1">
  <g id="patch_1">
   <path d="M 0 568.8 
L 190.577618 568.8 
L 190.577618 0 
L 0 0 
z
" style="fill: #ffffff"/>
  </g>
  <g id="axes_1">
   <g id="LineCollection_1">
    <path d="M 34.121013 536.4 
L 31.248161 534.661524 
L 21.911394 531.816745 
L 15.56718 528.023706 
L 15.208074 511.429163 
L 20.59467 505.107432 
L 24.185734 502.262653 
L 28.614714 496.573095 
L 30.889055 492.305927 
L 29.452629 492.780056 
L 34.360417 484.087676 
L 38.669694 479.504421 
L 39.747013 476.501599 
L 44.175993 470.970085 
L 44.415397 469.231609 
L 48.724674 458.642709 
L 52.435441 453.901411 
L 58.420548 444.260771 
L 60.096378 437.148824 
L 61.772208 435.726435 
L 64.764762 430.66905 
L 68.355826 421.97667 
L 75.059146 414.548636 
L 78.410806 409.333208 
L 83.438296 404.275823 
L 86.311148 400.482785 
L 87.747574 394.635183 
L 90.740127 388.945626 
L 90.141617 386.73302 
L 86.191446 380.727375 
L 88.226382 373.299341 
L 89.902212 372.351082 
L 96.48583 365.713264 
L 101.034512 363.974788 
L 103.308853 357.653057 
L 103.667959 354.650235 
L 113.962344 342.32286 
L 116.116982 335.843086 
L 116.595791 337.739605 
L 120.785366 327.782879 
L 126.770473 318.774412 
L 129.40392 312.452681 
L 131.917665 311.030292 
L 133.952602 307.711383 
L 138.022475 303.602258 
L 141.852943 300.757479 
L 143.289369 298.544873 
L 147.119838 289.69445 
L 146.880434 285.585325 
L 151.070009 274.996425 
L 149.394179 273.890122 
L 154.661073 267.884478 
L 156.217201 263.459266 
L 155.738392 260.140357 
L 152.26703 258.243838 
L 142.331752 255.082973 
L 137.543666 252.238194 
L 135.389028 251.922107 
L 125.094643 244.019944 
L 118.750429 241.017121 
L 103.548257 232.798871 
L 98.879873 231.218438 
L 96.48583 227.89953 
L 93.373574 217.78476 
L 96.964639 208.776294 
L 104.027065 198.187394 
L 107.139321 195.500659 
L 110.131875 189.969144 
L 113.004726 183.01524 
L 119.468642 172.426341 
L 121.02477 168.475259 
L 123.777919 164.840263 
L 131.558559 150.142239 
L 139.578603 136.234431 
L 146.162221 123.274882 
L 152.386732 112.211853 
L 161.244691 94.827093 
L 163.99784 91.034055 
L 164.476649 88.505362 
L 167.110096 85.344497 
L 172.736097 74.123424 
L 175.369544 67.16952 
L 172.37699 63.376482 
L 166.391883 60.847789 
L 160.287074 55.316275 
L 156.217201 53.893885 
L 149.872987 50.574976 
L 142.092348 45.833678 
L 132.276772 41.250423 
L 129.523622 40.61825 
L 115.99728 32.4 
" clip-path="url(#p9d83c04858)" style="fill: none; stroke: #000000; stroke-width: 3"/>
   </g>
  </g>
 </g>
 <defs>
  <clipPath id="p9d83c04858">
   <rect x="7.2" y="7.2" width="176.177618" height="554.4"/>
  </clipPath>
 </defs>
</svg>
