<?xml version="1.0" encoding="utf-8" standalone="no"?>
<!DOCTYPE svg PUBLIC "-//W3C//DTD SVG 1.1//EN"
  "http://www.w3.org/Graphics/SVG/1.1/DTD/svg11.dtd">
<svg xmlns:xlink="http://www.w3.org/1999/xlink" width="186.615317pt" height="568.8pt" viewBox="0 0 186.615317 568.8" xmlns="http://www.w3.org/2000/svg" version="1.1">
 <metadata>
  <rdf:RDF xmlns:dc="http://purl.org/dc/elements/1.1/" xmlns:cc="http://creativecommons.org/ns#" xmlns:rdf="http://www.w3.org/1999/02/22-rdf-syntax-ns#">
   <cc:Work>
    <dc:type rdf:resource="http://purl.org/dc/dcmitype/StillImage"/>
    <dc:date>2023-09-25T14:14:21.414890</dc:date>
    <dc:format>image/svg+xml</dc:format>
    <dc:creator>
     <cc:Agent>
      <dc:title>Matplotlib v3.6.2, https://matplotlib.org/</dc:title>
     </cc:Agent>
    </dc:creator>
   </cc:Work>
  </rdf:RDF>
 </metadata>
 <defs>
  <style type="text/css">*{stroke-linejoin: round; stroke-linecap: butt}</style>
 </defs>
 <g id="figure_1">
  <g id="patch_1">
   <path d="M 0 568.8 
L 186.615317 568.8 
L 186.615317 0 
L 0 0 
z
" style="fill: #ffffff"/>
  </g>
  <g id="axes_1">
   <g id="LineCollection_1">
    <path d="M 146.948108 32.4 
L 148.362801 33.645213 
L 154.493138 35.824336 
L 162.273951 40.338233 
L 170.880001 46.564299 
L 171.587348 48.276467 
L 169.70109 52.167758 
L 167.461159 54.813836 
L 162.15606 63.841631 
L 150.484841 85.788511 
L 144.826068 95.12761 
L 138.106276 107.735392 
L 133.862196 114.272761 
L 131.386483 120.81013 
L 129.382334 123.456208 
L 125.845601 132.328351 
L 124.548799 138.087461 
L 121.483631 141.667449 
L 118.418462 147.115256 
L 117.003769 153.496973 
L 116.178531 166.883014 
L 116.532205 168.750834 
L 115.824858 176.844719 
L 117.475333 186.183817 
L 118.300571 194.589006 
L 117.12166 203.6168 
L 117.829007 209.998518 
L 117.829007 217.002841 
L 115.589076 222.139345 
L 116.06064 226.341939 
L 122.544651 233.346263 
L 122.42676 236.770599 
L 119.833155 241.284497 
L 118.536353 251.246201 
L 118.418462 263.387029 
L 117.475333 269.768746 
L 115.117511 273.815689 
L 112.406016 280.041754 
L 109.812412 283.777393 
L 107.100917 296.696479 
L 104.035748 307.125139 
L 99.202213 315.374676 
L 95.783371 322.845954 
L 94.368678 327.2042 
L 96.7265 332.807659 
L 99.673778 330.784188 
L 97.905411 340.434589 
L 91.421401 352.108462 
L 88.945688 355.532798 
L 87.177321 359.735392 
L 84.347935 362.537122 
L 83.87637 365.650154 
L 79.278618 374.210994 
L 70.318894 389.93181 
L 63.363319 403.784805 
L 59.944477 406.742187 
L 59.472913 409.232613 
L 56.643527 414.991723 
L 50.277407 426.042989 
L 47.212239 430.089932 
L 45.20809 434.759481 
L 33.890545 455.6168 
L 33.301089 458.885485 
L 25.048712 471.493267 
L 22.69089 476.629771 
L 19.154157 481.299321 
L 15.027969 488.926251 
L 17.2679 491.105374 
L 26.817079 494.218406 
L 40.138773 499.977517 
L 44.500744 502.467943 
L 47.801694 503.401853 
L 48.626932 506.047931 
L 51.927883 507.760099 
L 59.11924 509.627918 
L 69.375765 518.033107 
L 74.680865 520.523533 
L 78.924944 525.97134 
L 81.046984 527.527857 
L 86.823648 525.815689 
L 86.941539 527.527857 
L 81.400657 536.4 
L 73.14828 531.574799 
L 71.733587 530.173935 
L 70.554676 524.414824 
L 67.843181 523.325263 
L 64.660121 523.480914 
L 62.891755 525.348734 
L 65.839032 527.83916 
" clip-path="url(#paf917399d1)" style="fill: none; stroke: #000000; stroke-width: 3"/>
   </g>
  </g>
 </g>
 <defs>
  <clipPath id="paf917399d1">
   <rect x="7.2" y="7.2" width="172.215317" height="554.4"/>
  </clipPath>
 </defs>
</svg>
