<?xml version="1.0" encoding="utf-8" standalone="no"?>
<!DOCTYPE svg PUBLIC "-//W3C//DTD SVG 1.1//EN"
  "http://www.w3.org/Graphics/SVG/1.1/DTD/svg11.dtd">
<svg xmlns:xlink="http://www.w3.org/1999/xlink" width="184.36423pt" height="568.8pt" viewBox="0 0 184.36423 568.8" xmlns="http://www.w3.org/2000/svg" version="1.1">
 <metadata>
  <rdf:RDF xmlns:dc="http://purl.org/dc/elements/1.1/" xmlns:cc="http://creativecommons.org/ns#" xmlns:rdf="http://www.w3.org/1999/02/22-rdf-syntax-ns#">
   <cc:Work>
    <dc:type rdf:resource="http://purl.org/dc/dcmitype/StillImage"/>
    <dc:date>2023-09-25T14:14:21.169484</dc:date>
    <dc:format>image/svg+xml</dc:format>
    <dc:creator>
     <cc:Agent>
      <dc:title>Matplotlib v3.6.2, https://matplotlib.org/</dc:title>
     </cc:Agent>
    </dc:creator>
   </cc:Work>
  </rdf:RDF>
 </metadata>
 <defs>
  <style type="text/css">*{stroke-linejoin: round; stroke-linecap: butt}</style>
 </defs>
 <g id="figure_1">
  <g id="patch_1">
   <path d="M 0 568.8 
L 184.36423 568.8 
L 184.36423 0 
L 0 0 
z
" style="fill: #ffffff"/>
  </g>
  <g id="axes_1">
   <g id="LineCollection_1">
    <path d="M 146.622212 32.4 
L 146.503993 34.585197 
L 152.29675 38.175163 
L 152.533189 36.770393 
L 155.488678 37.706906 
L 163.291167 42.38947 
L 169.438583 46.759864 
L 168.965705 50.662001 
L 165.06446 60.651471 
L 159.389922 70.328771 
L 154.661141 80.786497 
L 151.469213 84.688634 
L 141.184113 104.667575 
L 135.864234 112.627934 
L 131.253672 120.744379 
L 129.007501 123.397832 
L 121.205012 138.382038 
L 118.604182 145.56197 
L 115.412254 152.429731 
L 115.057596 154.771013 
L 115.766913 162.10703 
L 115.766913 171.472159 
L 116.830889 173.969526 
L 115.412254 190.358501 
L 114.939376 199.72363 
L 116.35801 214.239579 
L 116.239791 218.766058 
L 113.757181 224.229049 
L 114.584717 228.131186 
L 116.712669 230.316383 
L 122.387207 232.033323 
L 125.224476 229.37987 
L 131.135453 230.784639 
L 141.656992 234.998947 
L 143.903163 237.340229 
L 150.287018 240.149768 
L 151.705652 242.803221 
L 148.631944 249.04664 
L 141.184113 260.909136 
L 139.056162 267.464726 
L 135.746015 274.176401 
L 133.145185 281.200248 
L 133.618063 284.634128 
L 128.298184 289.941034 
L 121.323231 300.08659 
L 115.412254 310.076061 
L 111.27457 318.504676 
L 105.954691 328.338061 
L 102.880983 332.86454 
L 101.22591 336.766677 
L 97.915763 340.980985 
L 96.615348 344.414865 
L 92.595883 351.906968 
L 90.586151 353.779994 
L 86.921346 359.867327 
L 86.212028 363.457293 
L 83.13832 369.388541 
L 77.345563 377.192815 
L 74.981172 382.343636 
L 69.306634 391.084422 
L 65.760048 402.790833 
L 61.622364 404.039517 
L 63.159218 404.97603 
L 62.68634 407.629483 
L 60.913047 406.380799 
L 61.504145 409.190338 
L 57.130022 414.341158 
L 53.701655 419.960235 
L 44.480531 432.134902 
L 44.480531 436.34921 
L 46.490263 441.031775 
L 46.372044 442.748715 
L 39.988189 450.240818 
L 36.441603 452.426014 
L 35.141188 454.611211 
L 32.776797 463.039827 
L 28.048016 468.190647 
L 24.38321 476.307092 
L 19.536209 485.203964 
L 15.043866 492.071725 
L 14.925647 494.881264 
L 18.117574 495.505605 
L 32.185699 496.754289 
L 39.278872 499.095571 
L 43.061897 502.061195 
L 48.736435 504.402478 
L 48.263557 506.74376 
L 52.51946 510.645897 
L 60.558389 513.455435 
L 70.48883 521.259709 
L 81.365027 523.28882 
L 85.73915 526.098359 
L 85.384492 528.439641 
L 81.837905 536.4 
L 78.764197 535.775658 
L 71.789245 532.810034 
L 66.942244 528.751812 
L 66.232926 529.84441 
" clip-path="url(#pad2aea4b2d)" style="fill: none; stroke: #000000; stroke-width: 3"/>
   </g>
  </g>
 </g>
 <defs>
  <clipPath id="pad2aea4b2d">
   <rect x="7.2" y="7.2" width="169.96423" height="554.4"/>
  </clipPath>
 </defs>
</svg>
