<?xml version="1.0" encoding="utf-8" standalone="no"?>
<!DOCTYPE svg PUBLIC "-//W3C//DTD SVG 1.1//EN"
  "http://www.w3.org/Graphics/SVG/1.1/DTD/svg11.dtd">
<svg xmlns:xlink="http://www.w3.org/1999/xlink" width="300.719538pt" height="568.8pt" viewBox="0 0 300.719538 568.8" xmlns="http://www.w3.org/2000/svg" version="1.1">
 <metadata>
  <rdf:RDF xmlns:dc="http://purl.org/dc/elements/1.1/" xmlns:cc="http://creativecommons.org/ns#" xmlns:rdf="http://www.w3.org/1999/02/22-rdf-syntax-ns#">
   <cc:Work>
    <dc:type rdf:resource="http://purl.org/dc/dcmitype/StillImage"/>
    <dc:date>2023-09-25T14:14:21.111593</dc:date>
    <dc:format>image/svg+xml</dc:format>
    <dc:creator>
     <cc:Agent>
      <dc:title>Matplotlib v3.6.2, https://matplotlib.org/</dc:title>
     </cc:Agent>
    </dc:creator>
   </cc:Work>
  </rdf:RDF>
 </metadata>
 <defs>
  <style type="text/css">*{stroke-linejoin: round; stroke-linecap: butt}</style>
 </defs>
 <g id="figure_1">
  <g id="patch_1">
   <path d="M 0 568.8 
L 300.719538 568.8 
L 300.719538 0 
L 0 0 
z
" style="fill: #ffffff"/>
  </g>
  <g id="axes_1">
   <g id="LineCollection_1">
    <path d="M 33.933645 536.4 
L 34.157326 536.006173 
L 26.17936 531.57562 
L 24.315349 530.197226 
L 20.214524 532.067904 
L 21.407491 525.766673 
L 24.017107 521.139207 
L 25.955678 516.117914 
L 28.192491 512.967298 
L 31.39859 506.862981 
L 35.201173 501.447861 
L 37.661667 496.426568 
L 39.078315 492.586755 
L 41.837052 486.974722 
L 42.209854 485.399414 
L 43.32826 485.497871 
L 45.341392 482.248799 
L 45.937876 479.49201 
L 49.815018 474.864544 
L 49.889579 473.289236 
L 52.573755 468.858683 
L 56.003535 461.572885 
L 59.284194 457.142332 
L 65.39815 444.441414 
L 68.604249 440.109318 
L 70.691941 435.777222 
L 71.064743 433.512717 
L 72.928754 430.657472 
L 74.345403 426.226919 
L 80.011996 420.122602 
L 82.174249 415.199766 
L 83.590897 410.966126 
L 85.007545 409.095448 
L 88.810127 402.991131 
L 90.003095 400.332799 
L 93.581996 394.425396 
L 94.700402 393.342372 
L 96.564413 389.896386 
L 98.577545 388.222622 
L 103.125732 382.512131 
L 103.647655 380.14917 
L 103.200292 378.278492 
L 103.647655 375.91553 
L 105.362545 373.749482 
L 110.283534 366.365228 
L 110.208973 364.888377 
L 108.941446 362.525415 
L 105.437105 360.162454 
L 103.945896 358.291776 
L 103.498534 355.534987 
L 104.095017 353.073569 
L 109.165127 348.347646 
L 111.774742 342.144872 
L 116.173808 333.283766 
L 118.559742 329.542411 
L 120.125511 327.770189 
L 123.406171 325.210315 
L 126.239467 324.422661 
L 129.296445 324.619574 
L 134.963039 327.967103 
L 138.243698 328.36093 
L 140.778753 327.671733 
L 144.059412 325.505685 
L 146.594467 322.355069 
L 149.129522 316.152295 
L 153.006665 312.017113 
L 158.300456 308.768041 
L 161.506555 305.223598 
L 163.221445 301.482243 
L 164.638093 297.150147 
L 164.787214 293.507248 
L 162.40128 287.599844 
L 162.177599 284.350772 
L 163.072324 281.298613 
L 166.352983 276.474233 
L 169.037159 274.012815 
L 174.032708 270.763743 
L 175.896719 268.302325 
L 176.269521 266.136277 
L 176.04584 262.198007 
L 177.909851 256.09369 
L 179.773862 248.610979 
L 181.041389 245.55882 
L 183.576444 240.635984 
L 185.440455 237.977652 
L 189.988642 233.251729 
L 192.896499 229.60883 
L 194.238587 227.245868 
L 196.251719 222.027662 
L 197.817488 218.877046 
L 200.054301 215.332604 
L 202.067433 213.265013 
L 205.571774 211.000508 
L 211.685729 209.228287 
L 217.799685 210.508224 
L 222.496993 209.917484 
L 225.553971 207.456066 
L 229.729355 200.564095 
L 232.935454 194.361321 
L 240.093256 181.955773 
L 243.150234 176.048369 
L 250.680839 162.264427 
L 252.917652 156.357023 
L 253.141333 147.10209 
L 253.961498 142.966908 
L 253.141333 138.142528 
L 250.308036 133.711975 
L 250.308036 129.872163 
L 250.97908 127.312288 
L 255.750948 118.549639 
L 258.733366 114.808283 
L 265.592926 107.424028 
L 267.829739 103.584216 
L 268.053421 101.319711 
L 267.456937 97.479898 
L 267.606058 95.116937 
L 269.022706 86.157374 
L 270.663036 81.726822 
L 273.869135 78.280836 
L 278.641003 75.622504 
L 280.281332 73.65337 
L 280.505014 72.274976 
L 279.684849 69.616644 
L 278.19364 68.23825 
L 276.329629 67.745966 
L 271.930563 69.222817 
L 268.500783 71.782692 
L 265.816607 72.176519 
L 263.057871 70.108928 
L 262.610509 67.253682 
L 263.952597 64.595351 
L 268.127981 59.967884 
L 269.842871 57.211096 
L 272.825289 50.220668 
L 273.04897 47.070053 
L 272.303366 44.510178 
L 270.215673 41.654933 
L 264.54908 37.027466 
L 262.535948 35.845986 
L 261.939465 34.762962 
L 258.658805 34.762962 
L 255.676388 34.073764 
L 251.575564 33.778394 
L 247.101938 32.4 
L 244.790564 33.483024 
L 241.808146 37.421293 
L 241.211663 40.079625 
L 241.659026 43.23024 
L 244.11952 45.396288 
L 249.935234 47.365423 
L 251.501003 48.34999 
L 252.768531 50.122211 
L 252.992212 56.817269 
L 254.557981 62.429303 
L 254.185179 64.792264 
L 252.097487 68.730533 
L 248.071223 72.274976 
L 241.957267 74.637937 
L 238.303806 77.394726 
L 236.365234 82.022192 
L 234.724905 84.77898 
L 233.308256 85.960461 
L 223.466279 90.1941 
L 219.887378 93.344716 
L 217.203202 97.086071 
L 213.997103 103.978043 
L 212.058532 109.393163 
L 209.374356 114.119086 
L 207.212103 116.08822 
L 202.514796 119.041922 
L 200.128862 122.192538 
L 199.159576 125.73698 
L 199.756059 130.56136 
L 199.383257 133.613518 
L 197.966609 136.370307 
L 195.133312 138.930182 
L 189.243038 141.3916 
L 183.129082 145.034499 
L 177.387928 151.92647 
L 175.747598 155.273999 
L 174.629192 158.621528 
L 174.107269 163.445907 
L 174.852873 167.482633 
L 177.462488 176.048369 
L 177.313367 179.198984 
L 176.567763 181.660402 
L 173.436225 186.583239 
L 170.826609 189.930768 
L 167.844192 192.786013 
L 163.817928 195.641258 
L 162.326719 197.216566 
L 160.68639 200.071811 
L 160.164467 202.139402 
L 160.537269 209.4252 
L 160.239027 212.280445 
L 157.554851 217.400195 
L 155.61628 219.467787 
L 152.782983 221.633835 
L 148.75672 225.37519 
L 145.028698 229.60883 
L 142.120841 233.842469 
L 139.734907 236.599258 
L 134.590236 240.537527 
L 133.695511 235.122407 
L 131.309577 231.774878 
L 128.998204 229.707287 
L 124.151775 227.048955 
L 121.020237 225.867474 
L 116.54661 223.209142 
L 110.656336 220.353897 
L 108.419523 218.975503 
L 106.555512 220.846181 
L 104.691501 224.981364 
L 103.945896 225.473647 
L 101.559962 229.707287 
L 98.428424 229.411916 
L 96.11705 227.935065 
L 93.731116 227.245868 
L 89.555732 225.07982 
L 88.735567 225.178277 
L 85.231226 223.602969 
L 84.560183 222.027662 
L 84.560183 222.027662 
" clip-path="url(#p7c0ac40616)" style="fill: none; stroke: #000000; stroke-width: 3"/>
   </g>
  </g>
 </g>
 <defs>
  <clipPath id="p7c0ac40616">
   <rect x="7.2" y="7.2" width="286.319538" height="554.4"/>
  </clipPath>
 </defs>
</svg>
