<?xml version="1.0" encoding="utf-8" standalone="no"?>
<!DOCTYPE svg PUBLIC "-//W3C//DTD SVG 1.1//EN"
  "http://www.w3.org/Graphics/SVG/1.1/DTD/svg11.dtd">
<svg xmlns:xlink="http://www.w3.org/1999/xlink" width="182.181886pt" height="568.8pt" viewBox="0 0 182.181886 568.8" xmlns="http://www.w3.org/2000/svg" version="1.1">
 <metadata>
  <rdf:RDF xmlns:dc="http://purl.org/dc/elements/1.1/" xmlns:cc="http://creativecommons.org/ns#" xmlns:rdf="http://www.w3.org/1999/02/22-rdf-syntax-ns#">
   <cc:Work>
    <dc:type rdf:resource="http://purl.org/dc/dcmitype/StillImage"/>
    <dc:date>2023-09-25T14:14:21.053439</dc:date>
    <dc:format>image/svg+xml</dc:format>
    <dc:creator>
     <cc:Agent>
      <dc:title>Matplotlib v3.6.2, https://matplotlib.org/</dc:title>
     </cc:Agent>
    </dc:creator>
   </cc:Work>
  </rdf:RDF>
 </metadata>
 <defs>
  <style type="text/css">*{stroke-linejoin: round; stroke-linecap: butt}</style>
 </defs>
 <g id="figure_1">
  <g id="patch_1">
   <path d="M 0 568.8 
L 182.181886 568.8 
L 182.181886 0 
L 0 0 
z
" style="fill: #ffffff"/>
  </g>
  <g id="axes_1">
   <g id="LineCollection_1">
    <path d="M 141.174216 32.4 
L 155.19987 41.196081 
L 163.498381 45.825597 
L 167.355436 50.146479 
L 164.784066 57.553705 
L 163.03086 59.405511 
L 158.589403 67.584323 
L 156.368674 70.670667 
L 154.498587 75.608818 
L 152.979141 77.306307 
L 149.005206 85.330802 
L 146.784477 87.954195 
L 142.459901 96.133007 
L 140.589813 98.447765 
L 127.732964 123.447152 
L 120.135735 135.638212 
L 118.733169 137.335701 
L 114.174832 147.674954 
L 111.837223 154.773546 
L 111.720342 164.49553 
L 112.187864 167.118922 
L 111.720342 173.445928 
L 112.421625 182.859277 
L 112.304744 189.186283 
L 113.239788 193.044213 
L 113.70731 201.53166 
L 113.006027 204.926638 
L 114.057951 219.278138 
L 112.187864 224.061972 
L 111.25282 230.23466 
L 118.031887 234.555542 
L 118.85005 237.178934 
L 117.798126 240.573913 
L 116.746202 240.265279 
L 116.39556 245.975015 
L 116.979962 252.610655 
L 115.694278 260.480833 
L 114.525473 264.184446 
L 113.70731 270.511451 
L 111.486581 275.140968 
L 109.733375 281.62229 
L 105.87632 292.733129 
L 102.954308 303.535334 
L 97.110286 315.109124 
L 93.720753 317.886834 
L 91.266264 325.139743 
L 96.058362 330.232211 
L 95.59084 339.336926 
L 94.071394 341.651684 
L 90.4481 349.984813 
L 88.110491 354.151378 
L 85.889763 360.632701 
L 78.760055 372.206491 
L 77.24061 376.373056 
L 67.890174 391.959094 
L 60.292944 408.625352 
L 56.319009 413.563503 
L 54.565802 418.810288 
L 49.773704 424.674342 
L 43.345279 435.785181 
L 38.085659 448.902143 
L 32.358517 456.155052 
L 30.955951 459.087079 
L 25.46257 467.420208 
L 20.08607 476.524923 
L 16.579656 484.858053 
L 14.826449 485.783956 
L 15.761493 487.79008 
L 21.371755 491.030741 
L 28.968984 496.277526 
L 34.929887 499.518187 
L 39.721985 505.382241 
L 42.059594 506.771096 
L 46.033529 506.616779 
L 51.643791 509.548806 
L 55.267085 514.332639 
L 62.630553 515.721494 
L 70.695304 520.042376 
L 73.266674 522.820086 
L 79.110697 530.998898 
L 81.565186 528.838457 
L 78.175653 536.4 
L 71.396587 532.850704 
L 66.95513 529.610043 
L 62.981195 525.134844 
L 61.69551 522.665769 
L 59.474781 521.894182 
L 57.370933 523.745989 
L 62.396792 524.208941 
" clip-path="url(#pc34242a249)" style="fill: none; stroke: #000000; stroke-width: 3"/>
   </g>
  </g>
 </g>
 <defs>
  <clipPath id="pc34242a249">
   <rect x="7.2" y="7.2" width="167.781886" height="554.4"/>
  </clipPath>
 </defs>
</svg>
