<?xml version="1.0" encoding="utf-8" standalone="no"?>
<!DOCTYPE svg PUBLIC "-//W3C//DTD SVG 1.1//EN"
  "http://www.w3.org/Graphics/SVG/1.1/DTD/svg11.dtd">
<svg xmlns:xlink="http://www.w3.org/1999/xlink" width="293.438573pt" height="568.8pt" viewBox="0 0 293.438573 568.8" xmlns="http://www.w3.org/2000/svg" version="1.1">
 <metadata>
  <rdf:RDF xmlns:dc="http://purl.org/dc/elements/1.1/" xmlns:cc="http://creativecommons.org/ns#" xmlns:rdf="http://www.w3.org/1999/02/22-rdf-syntax-ns#">
   <cc:Work>
    <dc:type rdf:resource="http://purl.org/dc/dcmitype/StillImage"/>
    <dc:date>2023-09-25T14:14:20.688958</dc:date>
    <dc:format>image/svg+xml</dc:format>
    <dc:creator>
     <cc:Agent>
      <dc:title>Matplotlib v3.6.2, https://matplotlib.org/</dc:title>
     </cc:Agent>
    </dc:creator>
   </cc:Work>
  </rdf:RDF>
 </metadata>
 <defs>
  <style type="text/css">*{stroke-linejoin: round; stroke-linecap: butt}</style>
 </defs>
 <g id="figure_1">
  <g id="patch_1">
   <path d="M 0 568.8 
L 293.438573 568.8 
L 293.438573 0 
L 0 0 
z
" style="fill: #ffffff"/>
  </g>
  <g id="axes_1">
   <g id="LineCollection_1">
    <path d="M 32.683506 536.4 
L 28.465346 533.999085 
L 23.883551 530.061585 
L 22.50174 529.293293 
L 19.883571 529.677439 
L 20.974475 528.81311 
L 21.192656 525.547866 
L 21.919925 524.779573 
L 25.119908 519.401524 
L 29.483522 510.758232 
L 31.083514 508.26128 
L 31.738056 504.9 
L 35.374401 500.770427 
L 39.301654 494.239939 
L 40.756192 490.494512 
L 42.21073 487.901524 
L 42.501638 485.50061 
L 43.447087 483.675915 
L 47.010705 479.162195 
L 48.101609 476.281098 
L 49.919781 473.97622 
L 51.810681 470.710976 
L 53.119765 467.637805 
L 55.083391 464.276524 
L 56.610656 460.627134 
L 58.86519 456.401524 
L 62.719716 447.662195 
L 64.465162 444.589024 
L 68.901503 438.442683 
L 70.937856 433.544817 
L 73.119663 429.223171 
L 74.937835 427.590549 
L 76.319646 425.477744 
L 78.137819 421.444207 
L 79.083269 417.218598 
L 82.501433 414.3375 
L 83.083248 411.936585 
L 84.392332 409.055488 
L 86.283232 407.326829 
L 87.083228 407.518902 
L 86.937774 405.502134 
L 89.919577 401.468598 
L 91.374115 397.531098 
L 93.483195 393.209451 
L 96.101363 389.464024 
L 96.464998 388.215549 
L 99.155893 384.374085 
L 100.17407 381.973171 
L 102.210423 379.47622 
L 104.39223 377.555488 
L 105.119499 375.058537 
L 107.883121 368.528049 
L 106.719491 366.895427 
L 102.864965 364.014329 
L 101.628608 362.285671 
L 101.046793 360.076829 
L 101.483154 357.964024 
L 106.064949 353.642378 
L 107.519487 351.817683 
L 110.064928 346.151524 
L 113.846727 338.564634 
L 115.810354 335.5875 
L 119.664879 331.65 
L 122.137594 330.497561 
L 126.137573 330.209451 
L 127.446658 330.593598 
L 130.792095 332.706402 
L 133.410264 333.666768 
L 136.53752 333.666768 
L 139.519323 332.322256 
L 141.628403 330.497561 
L 144.028391 326.848171 
L 146.064744 322.046341 
L 147.373828 320.221646 
L 149.555635 318.396951 
L 154.791972 315.035671 
L 157.773775 311.482317 
L 159.882855 307.352744 
L 161.264666 302.166768 
L 160.828305 299.093598 
L 158.937406 294.483841 
L 158.791952 290.642378 
L 159.591948 288.145427 
L 163.882835 282.575305 
L 170.137348 278.349695 
L 172.246428 275.372561 
L 172.464609 272.971646 
L 172.100975 269.130183 
L 174.210055 262.311585 
L 174.573689 260.19878 
L 177.337312 252.707927 
L 179.591845 248.098171 
L 181.991833 245.025 
L 185.628178 241.66372 
L 188.609981 237.43811 
L 192.319053 229.178963 
L 195.955398 223.320732 
L 198.064478 221.303963 
L 201.482643 219.383232 
L 206.209891 217.846646 
L 208.609879 217.942683 
L 213.482581 218.903049 
L 217.482561 218.326829 
L 220.028002 216.598171 
L 223.300713 211.604268 
L 240.682442 180.200305 
L 245.264237 171.557012 
L 246.427867 168.867988 
L 247.082409 165.98689 
L 247.082409 158.97622 
L 247.955132 153.88628 
L 247.809678 150.525 
L 246.646048 147.451829 
L 244.464241 144.090549 
L 244.24606 141.785671 
L 244.682422 139.28872 
L 246.064233 136.119512 
L 249.191489 130.741463 
L 252.173292 126.419817 
L 259.664163 118.544817 
L 261.409609 115.951829 
L 262.136878 112.782622 
L 261.264155 107.116463 
L 261.84597 102.410671 
L 263.300508 95.880183 
L 265.409588 92.134756 
L 268.609572 89.445732 
L 272.900459 86.468598 
L 273.555001 84.355793 
L 272.391371 81.186585 
L 269.409568 79.842073 
L 266.936853 80.418293 
L 261.336882 84.16372 
L 258.064171 83.5875 
L 256.245999 80.610366 
L 256.609633 78.881707 
L 258.355079 76.096646 
L 261.627789 72.447256 
L 264.755046 67.165244 
L 265.991404 63.9 
L 266.718673 60.634756 
L 266.500492 58.425915 
L 264.827773 55.640854 
L 263.009601 53.720122 
L 257.045995 49.590549 
L 252.246019 47.86189 
L 245.627871 46.613415 
L 240.900623 44.980793 
L 239.882446 39.314634 
L 240.827896 36.3375 
L 239.736992 34.608841 
L 237.773366 33.552439 
L 234.791563 33.360366 
L 233.555206 32.4 
L 232.100668 33.072256 
L 235.227925 34.032622 
L 235.882467 36.817683 
L 237.627912 38.066159 
L 241.046077 37.489939 
L 239.809719 39.122561 
L 240.755169 43.828354 
L 240.536988 45.268902 
L 237.118824 48.822256 
L 236.173374 50.839024 
L 235.737013 53.912195 
L 236.537009 56.31311 
L 238.500635 57.753659 
L 244.973329 60.25061 
L 247.155136 63.515854 
L 247.227863 68.317683 
L 248.391494 72.831402 
L 248.536947 77.345122 
L 247.227863 80.130183 
L 245.19151 82.723171 
L 240.900623 85.508232 
L 237.337005 86.276524 
L 234.209748 87.717073 
L 232.973391 88.965549 
L 231.373399 91.942683 
L 230.209768 95.496037 
L 228.246142 97.704878 
L 225.627974 99.04939 
L 220.173456 100.778049 
L 217.846195 102.410671 
L 214.646212 105.387805 
L 212.537131 108.076829 
L 209.337148 114.607317 
L 207.737156 119.793293 
L 206.282618 122.9625 
L 203.591723 126.227744 
L 201.700823 127.956402 
L 198.50084 129.877134 
L 196.028125 132.085976 
L 195.009948 133.718598 
L 194.719041 136.983841 
L 195.082675 142.36189 
L 193.55541 146.779573 
L 190.937242 149.180488 
L 188.319074 150.525 
L 184.028186 152.061585 
L 179.591845 154.942683 
L 175.664593 158.784146 
L 172.973698 163.105793 
L 170.864617 168.771951 
L 170.646437 174.15 
L 171.082798 176.935061 
L 173.410059 184.521951 
L 173.62824 187.403049 
L 172.391882 191.724695 
L 169.991895 195.758232 
L 168.246449 197.871037 
L 163.882835 202.096646 
L 159.591948 205.265854 
L 157.919229 207.282622 
L 156.682872 211.988415 
L 157.119233 217.4625 
L 156.319237 222.264329 
L 154.573792 225.3375 
L 151.955623 228.026524 
L 144.537479 234.364939 
L 140.610227 239.166768 
L 138.42842 242.528049 
L 136.392066 244.73689 
L 131.810272 248.578354 
L 130.864822 248.578354 
L 131.446637 246.753659 
L 130.792095 243.680488 
L 128.537561 240.415244 
L 122.93759 235.997561 
L 116.610349 233.020427 
L 113.192185 230.907622 
L 108.901298 229.275 
L 106.864945 228.122561 
L 105.701314 228.506707 
L 102.428604 234.364939 
L 101.3377 237.246037 
L 98.864986 239.358841 
L 96.683179 238.590549 
L 91.01048 235.613415 
L 84.465059 231.579878 
L 82.646887 229.947256 
L 82.646887 229.947256 
" clip-path="url(#p69d126b592)" style="fill: none; stroke: #000000; stroke-width: 3"/>
   </g>
  </g>
 </g>
 <defs>
  <clipPath id="p69d126b592">
   <rect x="7.2" y="7.2" width="279.038573" height="554.4"/>
  </clipPath>
 </defs>
</svg>
