<?xml version="1.0" encoding="utf-8" standalone="no"?>
<!DOCTYPE svg PUBLIC "-//W3C//DTD SVG 1.1//EN"
  "http://www.w3.org/Graphics/SVG/1.1/DTD/svg11.dtd">
<svg xmlns:xlink="http://www.w3.org/1999/xlink" width="182.594613pt" height="568.8pt" viewBox="0 0 182.594613 568.8" xmlns="http://www.w3.org/2000/svg" version="1.1">
 <metadata>
  <rdf:RDF xmlns:dc="http://purl.org/dc/elements/1.1/" xmlns:cc="http://creativecommons.org/ns#" xmlns:rdf="http://www.w3.org/1999/02/22-rdf-syntax-ns#">
   <cc:Work>
    <dc:type rdf:resource="http://purl.org/dc/dcmitype/StillImage"/>
    <dc:date>2023-09-25T14:14:20.292705</dc:date>
    <dc:format>image/svg+xml</dc:format>
    <dc:creator>
     <cc:Agent>
      <dc:title>Matplotlib v3.6.2, https://matplotlib.org/</dc:title>
     </cc:Agent>
    </dc:creator>
   </cc:Work>
  </rdf:RDF>
 </metadata>
 <defs>
  <style type="text/css">*{stroke-linejoin: round; stroke-linecap: butt}</style>
 </defs>
 <g id="figure_1">
  <g id="patch_1">
   <path d="M 0 568.8 
L 182.594613 568.8 
L 182.594613 0 
L 0 0 
z
" style="fill: #ffffff"/>
  </g>
  <g id="axes_1">
   <g id="LineCollection_1">
    <path d="M 142.128255 32.4 
L 142.598367 33.175862 
L 152.118152 37.986207 
L 156.701752 41.555172 
L 167.749403 48.537931 
L 166.691649 53.193103 
L 160.815239 64.831034 
L 154.703772 77.865517 
L 149.65006 86.710345 
L 146.476798 90.589655 
L 142.715896 98.037931 
L 138.132296 105.02069 
L 137.19207 107.503448 
L 134.136337 111.537931 
L 128.377455 121.77931 
L 124.263968 130.313793 
L 120.85565 136.210345 
L 117.682388 143.348276 
L 112.863732 152.813793 
L 112.863732 162.124138 
L 113.803957 172.986207 
L 113.568901 177.486207 
L 116.389578 183.537931 
L 116.859691 181.675862 
L 114.979239 179.503448 
L 114.156542 183.693103 
L 113.686429 192.227586 
L 114.27407 208.365517 
L 113.686429 218.141379 
L 111.100809 223.417241 
L 113.098788 228.848276 
L 115.684409 231.486207 
L 119.092727 233.503448 
L 117.917445 242.658621 
L 115.56688 256.313793 
L 116.036993 264.072414 
L 114.509127 267.175862 
L 112.041034 268.262069 
L 111.100809 271.365517 
L 111.335865 275.089655 
L 109.102829 279.124138 
L 108.867773 283.003448 
L 109.807998 289.52069 
L 109.102829 293.244828 
L 104.519229 300.693103 
L 98.525291 308.451724 
L 97.585065 313.882759 
L 93.001465 320.089655 
L 90.885958 321.951724 
L 88.065281 322.572414 
L 87.125055 324.434483 
L 87.595168 329.865517 
L 87.125055 332.968966 
L 84.539435 339.641379 
L 82.071342 344.296552 
L 85.714717 344.762069 
L 84.069322 346.003448 
L 81.953814 354.382759 
L 77.957855 372.693103 
L 72.904142 378.124138 
L 69.730881 383.555172 
L 65.734922 395.193103 
L 65.147281 400.624138 
L 63.26683 403.882759 
L 59.505927 406.986207 
L 52.924348 418.934483 
L 49.51603 420.486207 
L 46.812881 428.089655 
L 42.581866 436.313793 
L 40.231302 441.744828 
L 37.293097 446.555172 
L 36.235343 449.658621 
L 29.771292 456.951724 
L 25.30522 465.796552 
L 21.309261 476.037931 
L 14.84521 488.296552 
L 15.902964 484.417241 
L 17.078246 488.762069 
L 19.076225 491.710345 
L 22.367015 494.503448 
L 31.416686 499.158621 
L 40.113774 504.9 
L 44.109732 505.986207 
L 52.219179 510.486207 
L 55.862553 511.727586 
L 59.97604 516.227586 
L 65.85245 518.244828 
L 72.669086 521.658621 
L 76.194932 524.296552 
L 78.545496 528.486207 
L 81.131117 528.486207 
L 80.778532 531.124138 
L 77.957855 536.4 
L 68.438071 532.52069 
L 65.734922 530.037931 
L 62.914245 525.227586 
L 61.974019 525.537931 
" clip-path="url(#p3b3cbdd4ef)" style="fill: none; stroke: #000000; stroke-width: 3"/>
   </g>
  </g>
 </g>
 <defs>
  <clipPath id="p3b3cbdd4ef">
   <rect x="7.2" y="7.2" width="168.194613" height="554.4"/>
  </clipPath>
 </defs>
</svg>
