<?xml version="1.0" encoding="utf-8" standalone="no"?>
<!DOCTYPE svg PUBLIC "-//W3C//DTD SVG 1.1//EN"
  "http://www.w3.org/Graphics/SVG/1.1/DTD/svg11.dtd">
<svg xmlns:xlink="http://www.w3.org/1999/xlink" width="500.842827pt" height="568.8pt" viewBox="0 0 500.842827 568.8" xmlns="http://www.w3.org/2000/svg" version="1.1">
 <metadata>
  <rdf:RDF xmlns:dc="http://purl.org/dc/elements/1.1/" xmlns:cc="http://creativecommons.org/ns#" xmlns:rdf="http://www.w3.org/1999/02/22-rdf-syntax-ns#">
   <cc:Work>
    <dc:type rdf:resource="http://purl.org/dc/dcmitype/StillImage"/>
    <dc:date>2023-09-25T14:14:20.183718</dc:date>
    <dc:format>image/svg+xml</dc:format>
    <dc:creator>
     <cc:Agent>
      <dc:title>Matplotlib v3.6.2, https://matplotlib.org/</dc:title>
     </cc:Agent>
    </dc:creator>
   </cc:Work>
  </rdf:RDF>
 </metadata>
 <defs>
  <style type="text/css">*{stroke-linejoin: round; stroke-linecap: butt}</style>
 </defs>
 <g id="figure_1">
  <g id="patch_1">
   <path d="M 0 568.8 
L 500.842827 568.8 
L 500.842827 0 
L 0 0 
z
" style="fill: #ffffff"/>
  </g>
  <g id="axes_1">
   <g id="LineCollection_1">
    <path d="M 47.871852 521.920078 
L 43.138222 519.780999 
L 39.899422 519.45191 
L 44.010206 511.060137 
L 47.498145 506.946523 
L 52.97919 496.580215 
L 58.460236 487.859354 
L 61.200759 489.998433 
L 69.17319 493.453869 
L 77.768466 497.896572 
L 91.221943 506.1238 
L 91.72022 507.440157 
L 89.104266 514.515573 
L 91.346512 518.464643 
L 97.699543 522.084623 
L 103.180588 526.033692 
L 107.291373 528.172772 
L 115.512942 533.602742 
L 121.741403 536.4 
L 123.85908 535.248188 
L 126.599603 531.299119 
L 133.201772 518.793732 
L 138.30911 510.566503 
L 145.783264 497.402938 
L 154.50311 480.290304 
L 161.478986 467.784917 
L 162.101832 464.65857 
L 165.963478 459.722233 
L 171.693663 449.52047 
L 177.174709 440.964153 
L 178.046693 438.002351 
L 183.154031 428.458766 
L 187.264816 421.712439 
L 191.998446 412.497943 
L 196.2338 405.587071 
L 197.105785 403.118903 
L 203.583384 392.258962 
L 210.060984 380.740842 
L 213.424353 373.171792 
L 219.528245 362.805485 
L 227.002399 350.958276 
L 231.113183 341.908325 
L 234.601122 336.478355 
L 237.964491 329.238394 
L 240.954152 324.466601 
L 252.289952 303.569442 
L 256.276167 296.65857 
L 264.622305 280.533203 
L 267.362828 276.584133 
L 272.470166 266.711459 
L 288.539596 238.24525 
L 303.114196 211.095397 
L 310.339211 198.260921 
L 312.955165 194.476396 
L 316.318534 192.008227 
L 317.813365 189.21097 
L 318.311641 182.793732 
L 321.425872 179.50284 
L 331.266841 160.415671 
L 335.626764 153.17571 
L 345.094025 136.063075 
L 349.578517 127.506758 
L 368.139332 136.22762 
L 382.215654 144.125759 
L 385.329885 146.264838 
L 404.638115 156.79569 
L 414.603653 162.883839 
L 417.717884 164.200196 
L 418.091591 162.061117 
L 420.458407 160.580215 
L 422.202376 156.631146 
L 426.811437 154.492067 
L 429.302822 151.694809 
L 431.794206 146.100294 
L 439.14379 134.911263 
L 448.486482 117.140451 
L 451.725282 112.039569 
L 467.421005 82.915181 
L 471.531789 74.523408 
L 471.531789 72.384329 
L 466.299882 68.928893 
L 463.683928 65.802547 
L 457.704605 61.853477 
L 453.095544 59.878942 
L 441.635175 53.461704 
L 441.510606 51.651714 
L 433.662745 49.677179 
L 428.555406 47.373555 
L 426.188591 44.905387 
L 423.07436 43.918119 
L 415.600207 38.323604 
L 406.631223 32.4 
L 403.143284 34.045446 
L 396.665684 41.449951 
L 390.437223 53.132615 
L 384.084193 63.334378 
L 378.852285 73.86523 
L 369.634162 90.81332 
L 363.031994 101.837806 
L 361.786301 101.837806 
L 360.914317 105.95142 
L 357.301809 111.71048 
L 351.447056 122.734966 
L 349.204809 124.874045 
L 349.952225 126.190402 
L 366.021655 134.911263 
L 377.731162 140.999412 
L 383.336777 144.619393 
L 383.710485 145.935749 
L 392.679469 149.884819 
L 395.669131 152.188443 
L 400.153623 153.504799 
L 399.530777 151.201175 
L 391.932054 147.252106 
L 385.329885 143.138492 
L 377.855731 140.012145 
L 366.021655 133.430362 
L 358.049224 128.494025 
L 345.094025 121.583154 
L 332.637102 114.178648 
L 317.065949 106.938688 
L 314.823703 108.913222 
L 313.951719 112.533203 
L 315.446549 119.444074 
L 315.197411 130.633105 
L 315.820257 135.404897 
L 315.32198 141.98668 
L 313.951719 147.41665 
L 309.716365 156.137512 
L 298.505135 176.047405 
L 295.515473 177.034672 
L 290.906412 174.237414 
L 282.186566 170.452889 
L 262.504628 158.605681 
L 254.407629 155.150245 
L 246.933475 150.542997 
L 240.206737 147.087561 
L 230.241199 140.999412 
L 221.272215 134.582174 
L 213.548923 130.46856 
L 207.818738 130.962194 
L 203.334246 136.392165 
L 197.604062 147.252106 
L 194.6144 159.263859 
L 194.365262 178.515573 
L 191.873877 194.476396 
L 189.507062 202.703624 
L 186.517401 210.930852 
L 183.901447 215.867189 
L 181.78377 218.006268 
L 177.548416 225.739863 
L 169.949694 240.713418 
L 167.209171 244.00431 
L 165.589771 247.953379 
L 160.85614 255.522429 
L 154.129402 268.685994 
L 150.018617 274.938688 
L 146.904387 281.026836 
L 143.416448 285.798629 
L 138.931956 294.025857 
L 135.693156 301.430362 
L 130.33668 309.98668 
L 128.219003 314.923017 
L 122.737957 324.137512 
L 115.76208 336.807444 
L 111.526727 345.69285 
L 108.038788 350.958276 
L 103.554296 359.679138 
L 101.187481 363.299119 
L 93.837897 378.437218 
L 90.972804 382.879922 
L 89.851681 386.335357 
L 86.363743 389.132615 
L 82.377528 395.549853 
L 72.536559 410.358864 
L 68.052067 418.750637 
L 59.955067 432.736925 
L 57.712821 437.179628 
L 52.480914 445.077767 
L 35.913207 474.860333 
L 32.549837 485.062096 
L 29.311038 497.073849 
L 31.179576 498.883839 
L 41.892529 505.301077 
L 45.629606 509.085602 
L 42.639945 514.680118 
L 44.259345 517.971009 
L 44.259345 517.971009 
" clip-path="url(#p8cba765690)" style="fill: none; stroke: #000000; stroke-width: 3"/>
   </g>
  </g>
 </g>
 <defs>
  <clipPath id="p8cba765690">
   <rect x="7.2" y="7.2" width="486.442827" height="554.4"/>
  </clipPath>
 </defs>
</svg>
