<?xml version="1.0" encoding="utf-8" standalone="no"?>
<!DOCTYPE svg PUBLIC "-//W3C//DTD SVG 1.1//EN"
  "http://www.w3.org/Graphics/SVG/1.1/DTD/svg11.dtd">
<svg xmlns:xlink="http://www.w3.org/1999/xlink" width="185.433746pt" height="568.8pt" viewBox="0 0 185.433746 568.8" xmlns="http://www.w3.org/2000/svg" version="1.1">
 <metadata>
  <rdf:RDF xmlns:dc="http://purl.org/dc/elements/1.1/" xmlns:cc="http://creativecommons.org/ns#" xmlns:rdf="http://www.w3.org/1999/02/22-rdf-syntax-ns#">
   <cc:Work>
    <dc:type rdf:resource="http://purl.org/dc/dcmitype/StillImage"/>
    <dc:date>2023-09-25T14:14:20.069324</dc:date>
    <dc:format>image/svg+xml</dc:format>
    <dc:creator>
     <cc:Agent>
      <dc:title>Matplotlib v3.6.2, https://matplotlib.org/</dc:title>
     </cc:Agent>
    </dc:creator>
   </cc:Work>
  </rdf:RDF>
 </metadata>
 <defs>
  <style type="text/css">*{stroke-linejoin: round; stroke-linecap: butt}</style>
 </defs>
 <g id="figure_1">
  <g id="patch_1">
   <path d="M 0 568.8 
L 185.433746 568.8 
L 185.433746 0 
L 0 0 
z
" style="fill: #ffffff"/>
  </g>
  <g id="axes_1">
   <g id="LineCollection_1">
    <path d="M 145.846907 32.4 
L 144.90027 33.337384 
L 149.278469 33.962306 
L 157.916537 38.649225 
L 168.21122 43.648605 
L 170.459485 46.929448 
L 165.252978 57.3969 
L 164.661329 60.365282 
L 157.561548 71.145195 
L 154.129986 77.706882 
L 145.136929 93.017483 
L 138.865455 105.047241 
L 132.94897 114.889771 
L 130.700706 122.388841 
L 129.16242 125.357223 
L 124.665891 128.325604 
L 124.074243 131.293986 
L 121.35266 136.449597 
L 116.619472 146.917049 
L 117.32945 151.760198 
L 116.501142 154.884811 
L 117.21112 157.540732 
L 115.317845 158.165654 
L 113.30624 161.758958 
L 115.436175 160.509113 
L 119.341055 160.196652 
L 122.299297 161.134036 
L 128.097453 164.414879 
L 134.013938 164.72734 
L 135.670553 167.383261 
L 140.048752 170.507874 
L 143.953632 175.663484 
L 135.907213 189.255549 
L 132.593981 193.630006 
L 132.357322 198.004464 
L 129.16242 202.691383 
L 127.150815 206.909609 
L 123.955913 209.877991 
L 122.535957 214.252449 
L 118.276088 215.189833 
L 115.199516 217.689523 
L 114.016219 223.001364 
L 114.252878 228.469436 
L 118.039428 229.094358 
L 116.146153 243.155115 
L 116.501142 248.779417 
L 113.30624 254.40372 
L 113.779559 262.05902 
L 114.844526 267.370862 
L 113.779559 270.026782 
L 112.832922 279.40062 
L 109.874679 288.930688 
L 105.73314 296.89845 
L 102.064919 302.678983 
L 101.473271 309.084439 
L 109.283031 308.615747 
L 111.412965 310.646745 
L 110.466328 313.146435 
L 105.73314 319.708122 
L 103.129886 328.769498 
L 96.385094 337.987105 
L 91.651906 347.673404 
L 86.445399 356.109857 
L 83.605486 363.296466 
L 76.742364 375.169994 
L 71.772516 381.262988 
L 70.23423 386.73106 
L 68.340955 390.168134 
L 63.607767 396.72982 
L 61.951151 401.260508 
L 57.217963 407.353503 
L 51.183149 418.289647 
L 50.236511 421.101798 
L 47.514928 424.382641 
L 44.793345 431.100558 
L 41.953432 435.631246 
L 40.060157 440.318165 
L 34.025343 453.129076 
L 23.13901 471.876751 
L 21.364065 476.40744 
L 14.974261 486.4062 
L 16.867536 491.093118 
L 29.883803 498.748419 
L 40.178487 503.279107 
L 44.201697 506.55995 
L 46.92328 510.153255 
L 66.21102 518.90217 
L 75.085748 522.495474 
L 84.433794 529.682083 
L 81.475552 536.4 
L 78.635639 535.931308 
L 69.287593 529.213391 
L 64.554405 522.964166 
L 64.672734 527.026162 
" clip-path="url(#pb8996a9296)" style="fill: none; stroke: #000000; stroke-width: 3"/>
   </g>
  </g>
 </g>
 <defs>
  <clipPath id="pb8996a9296">
   <rect x="7.2" y="7.2" width="171.033746" height="554.4"/>
  </clipPath>
 </defs>
</svg>
