<?xml version="1.0" encoding="utf-8" standalone="no"?>
<!DOCTYPE svg PUBLIC "-//W3C//DTD SVG 1.1//EN"
  "http://www.w3.org/Graphics/SVG/1.1/DTD/svg11.dtd">
<svg xmlns:xlink="http://www.w3.org/1999/xlink" width="300.017672pt" height="568.8pt" viewBox="0 0 300.017672 568.8" xmlns="http://www.w3.org/2000/svg" version="1.1">
 <metadata>
  <rdf:RDF xmlns:dc="http://purl.org/dc/elements/1.1/" xmlns:cc="http://creativecommons.org/ns#" xmlns:rdf="http://www.w3.org/1999/02/22-rdf-syntax-ns#">
   <cc:Work>
    <dc:type rdf:resource="http://purl.org/dc/dcmitype/StillImage"/>
    <dc:date>2023-09-25T14:14:19.732922</dc:date>
    <dc:format>image/svg+xml</dc:format>
    <dc:creator>
     <cc:Agent>
      <dc:title>Matplotlib v3.6.2, https://matplotlib.org/</dc:title>
     </cc:Agent>
    </dc:creator>
   </cc:Work>
  </rdf:RDF>
 </metadata>
 <defs>
  <style type="text/css">*{stroke-linejoin: round; stroke-linecap: butt}</style>
 </defs>
 <g id="figure_1">
  <g id="patch_1">
   <path d="M 0 568.8 
L 300.017672 568.8 
L 300.017672 0 
L 0 0 
z
" style="fill: #ffffff"/>
  </g>
  <g id="axes_1">
   <g id="LineCollection_1">
    <path d="M 33.251122 536.4 
L 31.309516 535.21667 
L 27.575659 534.427783 
L 25.559376 533.343064 
L 23.020353 530.877793 
L 20.257299 529.201409 
L 20.182621 527.919468 
L 22.57229 522.988926 
L 25.783407 517.170886 
L 26.978242 514.311172 
L 30.488067 508.591743 
L 31.98161 505.732029 
L 35.267405 501.294541 
L 35.267405 498.730659 
L 37.507719 496.857053 
L 42.137702 487.291802 
L 43.556568 485.023753 
L 45.199465 480.191822 
L 48.410582 474.768225 
L 50.650896 472.598787 
L 53.637982 467.175191 
L 53.189919 467.175191 
L 55.803619 463.230757 
L 56.699745 459.286324 
L 57.819902 457.905772 
L 61.479082 450.60857 
L 66.258419 442.621092 
L 67.975994 435.028057 
L 70.739048 432.365564 
L 74.995645 426.744747 
L 76.563865 423.096146 
L 81.193848 414.615613 
L 82.538037 411.755899 
L 85.151737 408.501741 
L 85.002382 407.712855 
L 86.64528 401.105928 
L 88.064145 401.401761 
L 90.8272 399.823987 
L 92.39542 398.147603 
L 92.992837 395.879554 
L 94.262348 394.400391 
L 96.726694 389.667071 
L 95.755891 390.258736 
L 95.457183 392.033731 
L 102.551511 378.819879 
L 102.924897 377.439327 
L 105.314566 373.199061 
L 106.658754 369.846292 
L 108.824391 367.085189 
L 109.571163 365.112972 
L 109.347131 363.535199 
L 104.642471 358.9991 
L 103.298283 356.533829 
L 103.298283 353.575504 
L 104.866503 351.406065 
L 108.226974 348.644962 
L 109.048423 347.363021 
L 112.483571 339.769986 
L 116.217429 332.571395 
L 119.05516 328.528351 
L 121.370151 325.964469 
L 123.087726 324.781139 
L 126.448197 323.992252 
L 129.435283 324.485306 
L 134.289297 327.147799 
L 136.902997 327.936686 
L 141.01024 327.049188 
L 143.250555 325.471415 
L 145.938932 322.414479 
L 147.80586 317.779769 
L 150.195529 314.32839 
L 153.481323 311.370065 
L 157.663243 308.806183 
L 159.828881 306.932577 
L 161.770486 304.072862 
L 164.309509 297.663158 
L 164.533541 292.831227 
L 162.367903 288.49235 
L 161.546455 284.745138 
L 162.367903 281.195148 
L 167.147241 275.278497 
L 172.598672 271.925729 
L 175.511081 269.066014 
L 176.257852 266.304911 
L 175.959144 262.65631 
L 176.332529 260.486871 
L 177.900749 255.950773 
L 180.663804 245.793856 
L 183.426858 239.778595 
L 185.069755 237.609157 
L 189.699738 233.368891 
L 191.641344 231.199452 
L 194.255044 226.26891 
L 196.121973 221.53559 
L 199.183735 216.111994 
L 201.797435 213.055058 
L 205.381938 210.787008 
L 210.31063 209.209235 
L 211.804173 209.110624 
L 219.346564 210.195343 
L 222.85639 209.406457 
L 224.648641 208.321737 
L 227.262342 204.475915 
L 231.892324 196.192604 
L 235.551505 189.092624 
L 237.49311 186.134299 
L 241.450999 178.442653 
L 247.723879 167.299628 
L 251.308382 161.5802 
L 252.951279 157.832988 
L 252.951279 148.070515 
L 253.69805 143.435805 
L 253.772728 140.773312 
L 252.727248 137.124711 
L 250.188225 132.29278 
L 250.636288 127.953903 
L 252.65257 123.220583 
L 254.594176 119.571982 
L 256.237073 117.303933 
L 260.269639 112.866445 
L 265.945102 107.54146 
L 267.587999 104.780356 
L 268.036062 102.315085 
L 267.587999 95.905381 
L 267.812031 91.073449 
L 269.156219 83.874858 
L 271.545888 79.831814 
L 274.607651 77.366543 
L 277.968122 75.591548 
L 279.835051 72.830444 
L 279.760374 70.069341 
L 277.968122 68.097124 
L 275.429099 67.60407 
L 273.562171 67.899902 
L 269.604282 70.365173 
L 267.065259 71.449892 
L 265.123653 71.252671 
L 263.107371 69.576286 
L 262.733985 67.899902 
L 264.078173 63.856858 
L 266.915905 60.6027 
L 268.932188 57.545764 
L 271.993951 51.431892 
L 272.740722 46.698572 
L 271.620565 43.444414 
L 269.305574 40.781921 
L 263.555433 36.541655 
L 260.717702 35.161104 
L 257.058522 34.174995 
L 247.649202 32.4 
L 245.035502 32.498611 
L 242.347125 35.654158 
L 241.67503 37.231931 
L 241.600353 41.472197 
L 243.317927 43.937468 
L 245.782273 45.515242 
L 248.694682 46.008296 
L 251.383059 47.487458 
L 252.65257 49.558286 
L 252.801925 54.784661 
L 254.444822 61.194365 
L 253.772728 65.533242 
L 252.12983 68.195735 
L 247.350493 71.745725 
L 241.749707 73.915163 
L 239.509393 75.295715 
L 237.791819 77.563764 
L 235.626182 82.88875 
L 234.730056 84.269302 
L 232.340387 86.142907 
L 223.229776 89.890119 
L 220.690753 91.862336 
L 218.077053 95.412326 
L 214.343196 102.117863 
L 211.35611 109.710898 
L 209.862567 112.27478 
L 206.502096 115.923381 
L 201.648081 119.473371 
L 199.258413 123.713637 
L 198.959704 128.151125 
L 198.959704 133.180278 
L 197.540838 136.039992 
L 192.985532 139.491372 
L 187.758132 141.463588 
L 184.920401 143.337194 
L 181.410575 146.492741 
L 178.647521 149.944121 
L 176.929947 152.705224 
L 175.511081 155.860771 
L 174.241569 161.67881 
L 174.614955 166.31352 
L 176.332529 171.145451 
L 177.153978 177.555156 
L 176.556561 180.710702 
L 174.166892 185.14819 
L 169.910295 190.670397 
L 162.815966 196.093993 
L 161.098392 198.460653 
L 159.679526 203.785639 
L 160.127589 207.828683 
L 160.127589 211.181452 
L 159.455495 213.646723 
L 156.767118 217.393935 
L 150.120852 223.409196 
L 145.117483 228.832792 
L 139.740729 236.031383 
L 134.886715 239.975817 
L 130.854149 242.835531 
L 126.746906 247.075797 
L 123.685143 251.809118 
L 119.428546 259.204931 
L 116.142751 263.050753 
L 114.649209 263.642418 
L 111.512768 261.47298 
L 105.98666 259.10632 
L 101.80474 256.73966 
L 98.14556 253.781334 
L 91.424617 249.836901 
L 89.856397 249.639679 
L 84.55432 246.484132 
L 79.102888 244.018861 
L 76.937251 242.441088 
L 73.128717 240.567482 
L 69.693568 238.299433 
L 69.394859 237.510546 
L 70.365662 234.848053 
L 71.635174 233.960556 
L 73.726134 230.016122 
L 76.563865 226.170299 
L 78.505471 221.930033 
L 79.550951 220.549482 
L 83.060777 221.53559 
L 83.060777 221.53559 
" clip-path="url(#p6c5f1997ab)" style="fill: none; stroke: #000000; stroke-width: 3"/>
   </g>
  </g>
 </g>
 <defs>
  <clipPath id="p6c5f1997ab">
   <rect x="7.2" y="7.2" width="285.617672" height="554.4"/>
  </clipPath>
 </defs>
</svg>
