<?xml version="1.0" encoding="utf-8" standalone="no"?>
<!DOCTYPE svg PUBLIC "-//W3C//DTD SVG 1.1//EN"
  "http://www.w3.org/Graphics/SVG/1.1/DTD/svg11.dtd">
<svg xmlns:xlink="http://www.w3.org/1999/xlink" width="298.814692pt" height="568.8pt" viewBox="0 0 298.814692 568.8" xmlns="http://www.w3.org/2000/svg" version="1.1">
 <metadata>
  <rdf:RDF xmlns:dc="http://purl.org/dc/elements/1.1/" xmlns:cc="http://creativecommons.org/ns#" xmlns:rdf="http://www.w3.org/1999/02/22-rdf-syntax-ns#">
   <cc:Work>
    <dc:type rdf:resource="http://purl.org/dc/dcmitype/StillImage"/>
    <dc:date>2023-09-25T14:14:19.470484</dc:date>
    <dc:format>image/svg+xml</dc:format>
    <dc:creator>
     <cc:Agent>
      <dc:title>Matplotlib v3.6.2, https://matplotlib.org/</dc:title>
     </cc:Agent>
    </dc:creator>
   </cc:Work>
  </rdf:RDF>
 </metadata>
 <defs>
  <style type="text/css">*{stroke-linejoin: round; stroke-linecap: butt}</style>
 </defs>
 <g id="figure_1">
  <g id="patch_1">
   <path d="M 0 568.8 
L 298.814692 568.8 
L 298.814692 0 
L 0 0 
z
" style="fill: #ffffff"/>
  </g>
  <g id="axes_1">
   <g id="LineCollection_1">
    <path d="M 31.333899 536.4 
L 29.914477 535.117557 
L 27.897405 535.808103 
L 24.909149 534.032413 
L 21.622068 529.494539 
L 20.127941 529.198591 
L 22.219719 522.490429 
L 27.225047 514.006577 
L 34.322154 501.0835 
L 36.264521 498.025367 
L 37.086291 495.75643 
L 42.166325 485.398238 
L 44.706342 480.860364 
L 47.096947 475.927892 
L 60.095859 452.843922 
L 63.905884 444.951967 
L 64.951774 445.050617 
L 67.267672 441.499237 
L 69.732983 436.764063 
L 72.273 432.818086 
L 72.870651 431.141045 
L 76.307145 424.630182 
L 80.117171 416.540928 
L 83.628371 409.931415 
L 85.869563 405.196242 
L 88.185461 402.828655 
L 88.110754 401.644862 
L 92.74255 397.698884 
L 94.460797 395.824545 
L 97.673172 388.228538 
L 101.333785 382.112272 
L 100.512015 380.928479 
L 103.873802 377.475749 
L 108.206773 367.512155 
L 108.505598 365.539166 
L 106.41382 362.579683 
L 103.425564 360.212096 
L 102.006143 357.84451 
L 101.557904 355.871521 
L 102.379675 353.306635 
L 105.816168 349.952554 
L 107.907947 347.19037 
L 109.775607 342.652496 
L 114.48211 333.182149 
L 118.068016 328.052378 
L 120.383914 325.684792 
L 124.418059 324.303699 
L 128.078672 324.698297 
L 132.635762 327.263183 
L 134.652834 327.953729 
L 136.744613 327.855079 
L 139.434043 326.967234 
L 142.272886 325.191544 
L 145.933499 320.357722 
L 146.755269 317.694187 
L 148.697636 314.636054 
L 151.835304 311.87387 
L 156.4671 308.519789 
L 159.903594 304.277863 
L 162.817143 297.372402 
L 163.265381 293.722372 
L 160.501245 287.211509 
L 160.351832 284.843922 
L 161.472428 280.897945 
L 165.35716 275.965473 
L 167.822471 273.795185 
L 171.78191 271.526248 
L 173.798982 269.553259 
L 174.695459 266.495126 
L 174.321927 262.647798 
L 176.11488 257.123429 
L 177.758421 250.809865 
L 181.643153 241.438168 
L 183.286694 238.577334 
L 188.665554 232.855666 
L 192.326167 227.331298 
L 196.509724 217.565003 
L 200.31975 212.73118 
L 204.279189 210.363594 
L 208.836278 208.883852 
L 211.824534 208.785203 
L 216.45633 209.673048 
L 219.369879 209.870346 
L 221.386952 209.081151 
L 223.70285 207.40411 
L 228.857591 199.117557 
L 231.845846 193.39589 
L 236.552349 185.306635 
L 238.345302 181.459307 
L 243.724162 172.580857 
L 245.143583 169.522725 
L 247.011243 166.661891 
L 250.59715 158.473987 
L 251.194801 156.500998 
L 251.568333 151.864474 
L 251.41892 149.694187 
L 252.390103 142.887375 
L 252.016571 139.138696 
L 250.970682 136.77111 
L 248.281252 132.331885 
L 248.72949 128.089959 
L 251.344214 122.466941 
L 253.809524 118.718262 
L 256.648367 115.364181 
L 258.067789 113.095244 
L 260.981338 109.543864 
L 264.343125 106.091133 
L 265.837253 103.920846 
L 266.509611 100.862713 
L 266.210785 96.818086 
L 266.584317 92.57616 
L 268.153151 84.289607 
L 269.497866 80.836876 
L 270.693168 79.258485 
L 277.043211 74.81926 
L 278.686752 72.648972 
L 278.387926 69.689489 
L 277.342037 68.308397 
L 275.100845 67.124604 
L 272.784947 67.223253 
L 270.020811 68.407046 
L 267.331381 70.380035 
L 265.090189 71.465179 
L 263.297236 71.26788 
L 260.831925 68.900294 
L 260.757219 67.223253 
L 261.803108 65.151615 
L 267.480794 57.752907 
L 270.095517 53.017733 
L 271.141407 50.255549 
L 271.589645 46.112272 
L 270.394343 43.547387 
L 265.762547 38.812214 
L 261.429576 35.95138 
L 257.768963 34.471638 
L 254.706001 33.682443 
L 252.464809 33.682443 
L 246.787124 32.4 
L 244.097694 32.4 
L 240.960026 35.063535 
L 240.138255 36.839225 
L 239.690017 39.700059 
L 240.063549 41.377099 
L 242.454153 44.237933 
L 247.384775 45.816324 
L 249.028316 47.197416 
L 250.59715 49.959601 
L 250.746563 53.806929 
L 252.24069 59.528597 
L 252.390103 64.16512 
L 250.148911 68.209748 
L 245.143583 71.662478 
L 238.942953 74.326013 
L 236.925881 75.805755 
L 235.058221 78.567939 
L 234.087038 81.527422 
L 232.667616 83.895009 
L 228.558765 86.558544 
L 223.478731 88.432883 
L 220.266356 90.307223 
L 215.933385 95.535643 
L 212.646304 101.158661 
L 211.301589 104.216794 
L 208.985691 110.924956 
L 206.445674 114.574985 
L 201.290933 117.929066 
L 198.526797 120.7899 
L 197.256788 124.834527 
L 197.63032 131.148092 
L 196.733844 134.206224 
L 194.642065 137.067058 
L 185.976124 141.111685 
L 181.568447 143.972519 
L 178.356072 147.129301 
L 174.546046 152.752319 
L 173.051918 156.599648 
L 172.304854 160.348326 
L 172.528974 163.998356 
L 174.919578 172.580857 
L 175.442523 175.63899 
L 175.367816 178.203876 
L 174.396633 181.064709 
L 171.931322 185.207986 
L 169.466012 188.562067 
L 165.431867 192.113447 
L 161.696547 194.481033 
L 158.932411 198.229712 
L 158.035934 203.359483 
L 158.409466 209.771697 
L 157.662402 213.421726 
L 154.898266 217.367704 
L 148.324104 222.892073 
L 144.588784 226.83805 
L 141.525822 230.586729 
L 139.209924 234.03946 
L 135.77343 237.788139 
L 129.199268 242.523312 
L 124.716885 247.455784 
L 122.475693 251.69771 
L 118.81508 257.715326 
L 116.648595 260.773459 
L 114.183284 263.436994 
L 112.913275 263.338344 
L 110.373258 261.858602 
L 110.373258 261.266706 
L 114.556816 254.953142 
L 119.039199 246.271991 
L 119.86097 243.904404 
L 119.338025 242.91791 
L 116.349769 240.648972 
L 109.402075 236.012449 
L 104.620866 233.644862 
L 102.6785 233.151615 
L 99.98907 231.079977 
L 98.12141 230.290781 
L 92.144899 226.542102 
L 84.67426 223.188021 
L 80.789528 220.919084 
L 77.054209 219.735291 
L 70.181221 215.493365 
L 69.882395 216.085261 
L 69.882395 216.085261 
" clip-path="url(#p4821a663ed)" style="fill: none; stroke: #000000; stroke-width: 3"/>
   </g>
  </g>
 </g>
 <defs>
  <clipPath id="p4821a663ed">
   <rect x="7.2" y="7.2" width="284.414692" height="554.4"/>
  </clipPath>
 </defs>
</svg>
