<?xml version="1.0" encoding="utf-8" standalone="no"?>
<!DOCTYPE svg PUBLIC "-//W3C//DTD SVG 1.1//EN"
  "http://www.w3.org/Graphics/SVG/1.1/DTD/svg11.dtd">
<svg xmlns:xlink="http://www.w3.org/1999/xlink" width="310.791147pt" height="568.8pt" viewBox="0 0 310.791147 568.8" xmlns="http://www.w3.org/2000/svg" version="1.1">
 <metadata>
  <rdf:RDF xmlns:dc="http://purl.org/dc/elements/1.1/" xmlns:cc="http://creativecommons.org/ns#" xmlns:rdf="http://www.w3.org/1999/02/22-rdf-syntax-ns#">
   <cc:Work>
    <dc:type rdf:resource="http://purl.org/dc/dcmitype/StillImage"/>
    <dc:date>2023-09-25T14:14:19.362361</dc:date>
    <dc:format>image/svg+xml</dc:format>
    <dc:creator>
     <cc:Agent>
      <dc:title>Matplotlib v3.6.2, https://matplotlib.org/</dc:title>
     </cc:Agent>
    </dc:creator>
   </cc:Work>
  </rdf:RDF>
 </metadata>
 <defs>
  <style type="text/css">*{stroke-linejoin: round; stroke-linecap: butt}</style>
 </defs>
 <g id="figure_1">
  <g id="patch_1">
   <path d="M -0 568.8 
L 310.791147 568.8 
L 310.791147 0 
L -0 0 
z
" style="fill: #ffffff"/>
  </g>
  <g id="axes_1">
   <g id="LineCollection_1">
    <path d="M 32.201132 536.4 
L 29.303181 535.152063 
L 28.232199 534.153714 
L 24.137267 531.491449 
L 20.798323 530.326708 
L 20.672325 529.827534 
L 22.373296 528.080423 
L 22.940287 526.250116 
L 25.649242 521.424761 
L 27.350213 517.930538 
L 31.697141 511.774051 
L 32.768123 509.194982 
L 36.044068 504.452823 
L 37.619042 502.872103 
L 38.564026 498.545923 
L 41.965969 491.224695 
L 44.611925 487.397689 
L 45.241914 485.567382 
L 47.446877 482.905117 
L 49.147849 482.239551 
L 50.722823 480.575636 
L 51.604808 476.332651 
L 53.368778 475.500693 
L 53.494776 472.921624 
L 54.061767 471.840079 
L 54.187765 469.094619 
L 55.69974 466.931529 
L 57.022717 466.016375 
L 59.164682 463.35411 
L 61.873636 461.274216 
L 62.818621 460.026279 
L 63.322612 456.532057 
L 64.519592 453.786596 
L 65.212581 450.874744 
L 69.43351 443.803103 
L 70.504492 440.641664 
L 71.82747 438.145791 
L 73.150448 436.565071 
L 73.528442 435.150743 
L 75.229413 434.401981 
L 76.237396 433.070848 
L 76.993384 430.242192 
L 77.056383 426.498382 
L 81.151314 425.250446 
L 83.860269 422.920964 
L 85.246246 420.092308 
L 85.372244 415.51654 
L 85.939234 414.019016 
L 87.829203 411.19036 
L 89.15218 408.361704 
L 90.223163 407.113767 
L 91.105148 404.701089 
L 92.806119 401.456454 
L 93.121114 400.042126 
L 94.444092 398.295015 
L 95.074082 398.295015 
L 96.460058 395.715946 
L 97.216046 393.136877 
L 96.460058 390.391416 
L 92.554124 387.146781 
L 91.105148 384.650908 
L 90.916151 382.903797 
L 91.924134 380.740707 
L 95.578073 377.745659 
L 96.712054 376.33133 
L 98.287028 372.920304 
L 100.869985 368.011753 
L 103.704937 363.103202 
L 105.279911 360.940112 
L 107.925867 358.527435 
L 110.256828 357.695477 
L 112.272794 357.612281 
L 114.603755 358.277847 
L 119.139679 360.607329 
L 121.533639 360.690525 
L 123.675604 359.858567 
L 125.376575 358.610631 
L 127.329543 356.364345 
L 129.912499 350.873424 
L 131.424474 348.710333 
L 132.810451 347.545593 
L 138.480356 344.05137 
L 140.685319 341.472301 
L 143.268276 335.066226 
L 143.709269 332.653549 
L 143.142278 330.157676 
L 141.441307 326.33067 
L 141.504306 322.254077 
L 143.079279 319.342225 
L 145.473239 316.180786 
L 150.82815 312.35378 
L 152.214127 310.856256 
L 152.844116 309.025949 
L 152.655119 305.781314 
L 153.096112 303.618224 
L 154.356091 301.039155 
L 155.994064 294.300297 
L 156.939048 291.554837 
L 159.899998 285.98072 
L 164.435922 281.404952 
L 167.900865 276.413206 
L 170.798816 269.674348 
L 172.37379 266.928887 
L 175.523737 263.268273 
L 177.980696 261.770749 
L 183.020612 260.356421 
L 189.446504 261.354771 
L 191.210475 261.105183 
L 193.28944 260.19003 
L 194.927413 258.692506 
L 196.565386 256.529416 
L 198.203358 252.785606 
L 202.046294 245.297986 
L 205.070243 240.389435 
L 209.102176 232.81862 
L 214.142092 224.665434 
L 216.158058 220.505645 
L 217.796031 216.262661 
L 218.048027 214.432354 
L 217.922029 209.357412 
L 219.182008 203.200924 
L 218.615017 200.621855 
L 217.670033 198.708353 
L 216.03206 196.545262 
L 215.717065 193.966193 
L 216.347055 191.220733 
L 218.552018 186.312182 
L 220.063993 183.816309 
L 223.21394 179.822912 
L 225.733898 177.327039 
L 229.576834 172.751271 
L 230.521818 169.589832 
L 230.080825 164.847672 
L 230.710815 159.606339 
L 231.655799 154.86418 
L 232.915778 152.201915 
L 236.317721 148.95728 
L 239.341671 147.043777 
L 240.475652 145.546253 
L 240.727648 143.549554 
L 239.278672 141.136877 
L 237.262705 140.637702 
L 235.120741 141.136877 
L 231.277805 143.799142 
L 229.765831 144.381512 
L 227.371871 143.799142 
L 225.922895 141.885639 
L 225.922895 140.304919 
L 227.371871 137.559459 
L 230.017826 134.813998 
L 233.167774 129.65586 
L 236.002726 123.998547 
L 237.5777 122.833807 
L 239.089675 122.667415 
L 243.310604 124.164939 
L 246.334554 123.16659 
L 248.035525 120.254738 
L 249.988493 117.675669 
L 250.429485 115.429383 
L 253.075441 111.186398 
L 256.351386 104.697128 
L 257.611365 102.783625 
L 261.832295 95.379201 
L 265.549233 89.389105 
L 268.447184 83.066226 
L 270.463151 79.821591 
L 277.771028 66.26068 
L 282.117956 59.022648 
L 283.944925 55.445229 
L 287.598864 49.288742 
L 289.362835 45.877715 
L 290.118822 43.714625 
L 289.173838 43.049059 
L 289.110839 41.551535 
L 286.401884 39.88762 
L 282.621947 36.975768 
L 279.912993 36.559789 
L 278.212021 35.894223 
L 273.550099 32.4 
L 273.235104 34.147111 
L 271.72313 33.231958 
L 269.014175 36.809376 
L 268.006192 37.391746 
L 265.234238 41.551535 
L 264.100257 44.380191 
L 262.336286 47.208848 
L 260.824312 51.451832 
L 257.863361 56.942753 
L 256.792379 58.19069 
L 255.973393 60.769759 
L 252.130457 68.257379 
L 250.870478 70.254077 
L 248.098524 75.661803 
L 245.893561 79.322417 
L 243.499601 82.733443 
L 240.979643 87.475603 
L 238.270689 91.635391 
L 235.81373 95.878376 
L 233.98676 99.954969 
L 233.104775 100.703731 
L 231.277805 104.281149 
L 227.43487 112.767118 
L 225.733898 113.848663 
L 221.512969 112.933509 
L 216.599051 112.184747 
L 213.6381 111.186398 
L 211.181141 111.768769 
L 209.543169 113.349488 
L 208.724182 114.847012 
L 208.28319 117.84206 
L 208.787181 120.00515 
L 209.795164 121.253087 
L 215.654067 123.332981 
L 216.977044 125.496071 
L 217.544035 131.153384 
L 218.678016 134.98039 
L 218.804014 138.141829 
L 217.85903 140.804094 
L 216.158058 143.05038 
L 214.898079 144.048729 
L 207.779198 147.126973 
L 206.45622 148.042126 
L 204.629251 150.787587 
L 203.49527 154.115418 
L 201.227308 156.528095 
L 197.636368 158.108815 
L 193.982429 159.356751 
L 192.470454 160.188709 
L 189.6985 162.518191 
L 186.170559 168.341895 
L 184.532587 172.085705 
L 183.14661 176.328689 
L 181.823632 178.824563 
L 178.610686 182.235589 
L 175.775733 183.566722 
L 173.507771 185.979399 
L 172.625786 188.059293 
L 172.310791 190.638362 
L 172.562787 193.300627 
L 172.37379 195.879696 
L 171.680801 197.876395 
L 169.664835 200.289072 
L 166.892881 201.786596 
L 162.16796 203.616903 
L 158.766017 205.530406 
L 154.482089 210.854936 
L 153.537105 212.435655 
L 151.647136 217.344206 
L 151.39514 221.836778 
L 151.647136 223.916672 
L 152.970114 228.076461 
L 153.978097 232.485837 
L 153.7891 234.648927 
L 152.844116 237.727171 
L 150.639153 241.138197 
L 145.977231 246.21314 
L 142.386291 248.875404 
L 141.126312 250.206537 
L 139.740335 252.951997 
L 139.362341 254.782304 
L 139.614337 260.106834 
L 139.047347 264.017035 
L 137.66137 266.346517 
L 135.960398 268.426411 
L 131.109479 272.503004 
L 127.896533 275.747639 
L 125.754569 278.326708 
L 123.234611 281.904127 
L 121.659637 283.651238 
L 116.934716 287.478244 
L 113.217778 290.223704 
L 112.272794 291.305249 
L 108.366859 297.461737 
L 105.153913 303.451832 
L 103.011949 306.030901 
L 100.806986 306.613272 
L 99.232012 305.531727 
L 99.106014 304.699769 
L 101.184979 301.787917 
L 101.814969 299.791218 
L 105.972899 292.46999 
L 107.73687 289.058963 
L 104.208929 287.727831 
L 102.192963 286.479894 
L 98.980016 285.315154 
L 95.893068 281.904127 
L 93.058115 280.489799 
L 89.845169 279.990624 
L 88.774187 278.992275 
L 87.325211 278.659492 
L 83.860269 276.829185 
L 80.773321 274.416507 
L 78.127365 273.16857 
L 74.851419 271.00548 
L 74.851419 271.00548 
" clip-path="url(#p8dd784e15b)" style="fill: none; stroke: #000000; stroke-width: 3"/>
   </g>
  </g>
 </g>
 <defs>
  <clipPath id="p8dd784e15b">
   <rect x="7.2" y="7.2" width="296.391147" height="554.4"/>
  </clipPath>
 </defs>
</svg>
