<?xml version="1.0" encoding="utf-8" standalone="no"?>
<!DOCTYPE svg PUBLIC "-//W3C//DTD SVG 1.1//EN"
  "http://www.w3.org/Graphics/SVG/1.1/DTD/svg11.dtd">
<svg xmlns:xlink="http://www.w3.org/1999/xlink" width="302.348218pt" height="568.8pt" viewBox="0 0 302.348218 568.8" xmlns="http://www.w3.org/2000/svg" version="1.1">
 <metadata>
  <rdf:RDF xmlns:dc="http://purl.org/dc/elements/1.1/" xmlns:cc="http://creativecommons.org/ns#" xmlns:rdf="http://www.w3.org/1999/02/22-rdf-syntax-ns#">
   <cc:Work>
    <dc:type rdf:resource="http://purl.org/dc/dcmitype/StillImage"/>
    <dc:date>2023-09-25T14:14:19.248017</dc:date>
    <dc:format>image/svg+xml</dc:format>
    <dc:creator>
     <cc:Agent>
      <dc:title>Matplotlib v3.6.2, https://matplotlib.org/</dc:title>
     </cc:Agent>
    </dc:creator>
   </cc:Work>
  </rdf:RDF>
 </metadata>
 <defs>
  <style type="text/css">*{stroke-linejoin: round; stroke-linecap: butt}</style>
 </defs>
 <g id="figure_1">
  <g id="patch_1">
   <path d="M 0 568.8 
L 302.348218 568.8 
L 302.348218 0 
L 0 0 
z
" style="fill: #ffffff"/>
  </g>
  <g id="axes_1">
   <g id="LineCollection_1">
    <path d="M 34.258646 536.4 
L 30.67274 535.906753 
L 23.052691 530.776982 
L 20.288555 530.086436 
L 22.828572 525.647211 
L 24.397406 521.503934 
L 27.086835 517.163359 
L 27.684486 515.584968 
L 30.523328 511.441691 
L 34.333352 505.226776 
L 36.64925 502.563241 
L 39.712211 494.769935 
L 43.073997 490.034762 
L 45.091069 486.384733 
L 47.481673 483.227951 
L 48.303443 479.77522 
L 50.096395 477.308984 
L 50.61934 474.44815 
L 51.739936 473.856254 
L 55.251135 468.430534 
L 56.147611 465.372402 
L 60.704699 458.960188 
L 62.12412 455.704756 
L 65.560613 450.476336 
L 66.382383 447.220904 
L 69.594757 441.104639 
L 72.060067 438.243805 
L 72.732424 435.876218 
L 76.168917 431.831591 
L 77.289513 428.082913 
L 79.157172 423.840986 
L 80.576593 422.163946 
L 83.863673 416.343629 
L 86.777221 414.074692 
L 87.076047 411.509806 
L 88.346055 409.734116 
L 89.914889 404.900294 
L 93.575501 400.658368 
L 95.741985 399.178626 
L 96.190223 397.698884 
L 96.489049 391.483969 
L 105.229694 381.125778 
L 105.528519 376.291955 
L 106.424996 373.233823 
L 108.516774 370.274339 
L 109.41325 367.018908 
L 110.832671 365.637816 
L 110.982084 363.368878 
L 110.384433 362.382384 
L 107.396178 360.310746 
L 105.229694 356.956665 
L 105.005575 354.687728 
L 106.94794 351.432296 
L 109.786782 349.163359 
L 111.654441 346.795772 
L 113.820926 341.370053 
L 117.481538 333.379448 
L 120.619205 328.940223 
L 123.308634 326.375338 
L 126.296889 324.599648 
L 129.957501 324.303699 
L 131.675747 324.796947 
L 137.129312 327.75643 
L 140.491099 327.953729 
L 142.582877 327.263183 
L 146.094076 324.698297 
L 148.708799 320.555021 
L 150.202926 316.806342 
L 152.145292 314.044157 
L 154.834721 311.87387 
L 159.98946 308.815737 
L 161.857119 306.941398 
L 163.874191 303.488667 
L 166.115382 296.188608 
L 166.115382 292.933177 
L 163.575366 287.01421 
L 163.351247 284.252026 
L 163.874191 281.884439 
L 168.879518 275.472225 
L 170.597764 273.893834 
L 176.275448 269.947857 
L 177.620163 266.297827 
L 177.545456 261.168056 
L 179.637235 255.15044 
L 180.608417 251.204463 
L 182.40137 245.778743 
L 185.016093 239.859777 
L 188.527292 235.617851 
L 192.785555 231.770523 
L 195.250865 227.824545 
L 197.492056 222.004228 
L 200.330898 216.578509 
L 202.273264 213.816324 
L 205.63505 211.251439 
L 207.726828 210.166295 
L 212.283917 208.686553 
L 213.778044 208.587904 
L 219.978672 209.673048 
L 222.966927 209.574398 
L 226.254007 208.094656 
L 228.495198 205.036524 
L 237.08643 189.449912 
L 240.522923 183.728244 
L 246.1259 173.567352 
L 247.395909 171.791662 
L 252.251823 162.814563 
L 254.119482 157.388843 
L 254.418307 155.218555 
L 254.418307 148.806342 
L 255.613609 141.604932 
L 254.418307 136.968409 
L 252.700061 134.304874 
L 251.878291 131.148092 
L 252.177116 127.991309 
L 254.268894 123.453435 
L 257.107736 118.816911 
L 260.469523 114.279037 
L 267.118389 107.472225 
L 269.210168 104.315443 
L 269.807819 101.257311 
L 269.35958 96.719436 
L 270.106644 88.235584 
L 271.152533 83.303112 
L 273.020192 80.343629 
L 275.33609 78.074692 
L 279.893178 75.509806 
L 281.835544 73.240869 
L 282.059663 71.662478 
L 281.163186 69.294891 
L 278.473757 67.519201 
L 276.904923 67.420552 
L 273.767256 68.604345 
L 269.508993 71.465179 
L 266.819564 71.36653 
L 264.727786 69.788139 
L 264.130135 68.209748 
L 264.503667 65.644862 
L 265.773675 63.474574 
L 270.330763 58.344803 
L 273.543137 51.93259 
L 274.738439 47.493365 
L 274.215494 44.533881 
L 272.721367 42.264944 
L 269.210168 38.614915 
L 265.997794 36.345978 
L 261.664825 34.471638 
L 255.538903 33.189196 
L 250.010632 32.4 
L 247.395909 32.794598 
L 244.855892 35.260834 
L 243.361765 38.516265 
L 243.66059 42.264944 
L 244.557067 43.448738 
L 246.947671 44.928479 
L 250.981814 46.309571 
L 252.849473 47.690664 
L 254.343601 50.748796 
L 255.015958 56.766412 
L 256.360673 61.402936 
L 255.987141 64.559718 
L 254.119482 67.81515 
L 251.205933 70.380035 
L 248.068266 72.254375 
L 243.66059 73.931415 
L 241.19528 75.411157 
L 238.804677 78.271991 
L 237.310549 82.809865 
L 235.218771 85.078802 
L 232.753461 86.459894 
L 226.851658 88.432883 
L 224.012816 90.109924 
L 220.053379 94.2532 
L 217.588069 98.692425 
L 215.570997 103.230299 
L 213.703338 108.557369 
L 211.238027 112.897945 
L 207.502709 116.547974 
L 204.81328 118.027716 
L 201.600906 121.677745 
L 200.629723 126.018321 
L 200.853843 131.739988 
L 199.658541 135.094069 
L 197.043818 138.053553 
L 188.826118 141.506283 
L 185.016093 144.071169 
L 181.504894 147.819847 
L 178.29252 152.65367 
L 175.976623 158.868585 
L 175.677797 163.20916 
L 176.126035 165.675396 
L 178.740758 174.849794 
L 178.815465 178.401174 
L 177.844282 181.459307 
L 176.126035 184.51744 
L 172.988368 188.858015 
L 168.655399 193.099941 
L 166.190089 194.382384 
L 163.500659 196.651321 
L 161.931826 200.104052 
L 161.558294 203.655432 
L 162.006532 209.081151 
L 161.259468 213.421726 
L 159.317103 216.578509 
L 157.374737 218.847446 
L 149.904101 225.555608 
L 148.036442 227.528597 
L 141.387575 236.407046 
L 132.796343 243.016559 
L 128.015135 247.850382 
L 125.998064 251.59906 
L 122.78569 256.235584 
L 120.469792 260.773459 
L 117.406831 263.239695 
L 115.912704 263.239695 
L 113.895632 262.055901 
L 116.659768 257.715326 
L 117.556244 255.347739 
L 119.423903 252.092308 
L 121.515682 247.554433 
L 123.980992 243.016559 
L 120.395086 241.14222 
L 114.717402 238.675984 
L 106.051464 232.757017 
L 103.137916 231.079977 
L 100.672605 230.48808 
L 91.931961 225.456958 
L 89.167825 224.470464 
L 84.909562 221.806929 
L 84.909562 221.806929 
" clip-path="url(#p56725dc97b)" style="fill: none; stroke: #000000; stroke-width: 3"/>
   </g>
  </g>
 </g>
 <defs>
  <clipPath id="p56725dc97b">
   <rect x="7.2" y="7.2" width="287.948218" height="554.4"/>
  </clipPath>
 </defs>
</svg>
