<?xml version="1.0" encoding="utf-8" standalone="no"?>
<!DOCTYPE svg PUBLIC "-//W3C//DTD SVG 1.1//EN"
  "http://www.w3.org/Graphics/SVG/1.1/DTD/svg11.dtd">
<svg xmlns:xlink="http://www.w3.org/1999/xlink" width="182.156197pt" height="568.8pt" viewBox="0 0 182.156197 568.8" xmlns="http://www.w3.org/2000/svg" version="1.1">
 <metadata>
  <rdf:RDF xmlns:dc="http://purl.org/dc/elements/1.1/" xmlns:cc="http://creativecommons.org/ns#" xmlns:rdf="http://www.w3.org/1999/02/22-rdf-syntax-ns#">
   <cc:Work>
    <dc:type rdf:resource="http://purl.org/dc/dcmitype/StillImage"/>
    <dc:date>2023-09-25T14:14:19.189575</dc:date>
    <dc:format>image/svg+xml</dc:format>
    <dc:creator>
     <cc:Agent>
      <dc:title>Matplotlib v3.6.2, https://matplotlib.org/</dc:title>
     </cc:Agent>
    </dc:creator>
   </cc:Work>
  </rdf:RDF>
 </metadata>
 <defs>
  <style type="text/css">*{stroke-linejoin: round; stroke-linecap: butt}</style>
 </defs>
 <g id="figure_1">
  <g id="patch_1">
   <path d="M 0 568.8 
L 182.156197 568.8 
L 182.156197 0 
L 0 0 
z
" style="fill: #ffffff"/>
  </g>
  <g id="axes_1">
   <g id="LineCollection_1">
    <path d="M 140.899724 32.4 
L 146.981238 35.642647 
L 160.898546 44.752941 
L 165.342729 46.451471 
L 167.330916 49.539706 
L 164.290159 55.098529 
L 161.951116 62.819118 
L 159.261216 66.679412 
L 154.583129 76.561765 
L 144.291338 92.620588 
L 141.250581 99.414706 
L 136.689446 107.907353 
L 131.543551 115.936765 
L 129.321459 120.723529 
L 125.929846 125.819118 
L 123.941659 131.377941 
L 116.105864 145.275 
L 112.480346 152.532353 
L 113.182059 155.929412 
L 112.363394 172.760294 
L 111.544729 179.4 
L 110.375207 181.561765 
L 112.012538 186.194118 
L 110.609112 191.907353 
L 112.12949 199.936765 
L 112.012538 213.833824 
L 111.427777 217.848529 
L 109.556542 221.708824 
L 110.375207 226.186765 
L 112.597299 230.047059 
L 117.275385 231.591176 
L 118.912716 235.142647 
L 117.041481 239.466176 
L 115.755007 253.054412 
L 114.000725 258.613235 
L 114.000725 261.855882 
L 111.661681 267.723529 
L 109.556542 271.429412 
L 109.907399 276.061765 
L 108.270068 285.635294 
L 105.229312 291.966176 
L 100.785129 303.238235 
L 100.31732 305.554412 
L 103.475029 308.951471 
L 109.322638 311.113235 
L 108.971781 314.510294 
L 101.019033 326.4 
L 98.329133 332.267647 
L 95.405329 336.9 
L 88.856007 348.944118 
L 87.803438 352.958824 
L 85.23049 358.980882 
L 79.733738 367.319118 
L 75.874316 375.348529 
L 71.547086 383.223529 
L 68.506329 387.855882 
L 66.868999 392.025 
L 64.179099 396.039706 
L 61.840055 401.752941 
L 52.834738 414.723529 
L 49.910934 422.135294 
L 45.232847 429.701471 
L 41.139521 437.422059 
L 33.537629 453.017647 
L 23.479743 470.002941 
L 21.257651 475.407353 
L 18.567751 479.267647 
L 14.825282 486.833824 
L 17.047373 489.922059 
L 26.520499 493.782353 
L 39.268286 501.348529 
L 43.478564 504.591176 
L 53.068642 509.995588 
L 57.980634 514.164706 
L 61.723103 515.708824 
L 69.324994 519.877941 
L 74.587842 524.201471 
L 82.891447 527.289706 
L 77.277742 536.4 
L 73.769177 534.238235 
L 65.114716 526.208824 
L 60.436629 524.201471 
L 58.448442 524.201471 
L 60.553581 522.348529 
L 61.723103 523.429412 
" clip-path="url(#p1f03b2a8a5)" style="fill: none; stroke: #000000; stroke-width: 3"/>
   </g>
  </g>
 </g>
 <defs>
  <clipPath id="p1f03b2a8a5">
   <rect x="7.2" y="7.2" width="167.756197" height="554.4"/>
  </clipPath>
 </defs>
</svg>
