<?xml version="1.0" encoding="utf-8" standalone="no"?>
<!DOCTYPE svg PUBLIC "-//W3C//DTD SVG 1.1//EN"
  "http://www.w3.org/Graphics/SVG/1.1/DTD/svg11.dtd">
<svg xmlns:xlink="http://www.w3.org/1999/xlink" width="284.370577pt" height="568.8pt" viewBox="0 0 284.370577 568.8" xmlns="http://www.w3.org/2000/svg" version="1.1">
 <metadata>
  <rdf:RDF xmlns:dc="http://purl.org/dc/elements/1.1/" xmlns:cc="http://creativecommons.org/ns#" xmlns:rdf="http://www.w3.org/1999/02/22-rdf-syntax-ns#">
   <cc:Work>
    <dc:type rdf:resource="http://purl.org/dc/dcmitype/StillImage"/>
    <dc:date>2023-09-25T14:14:18.954686</dc:date>
    <dc:format>image/svg+xml</dc:format>
    <dc:creator>
     <cc:Agent>
      <dc:title>Matplotlib v3.6.2, https://matplotlib.org/</dc:title>
     </cc:Agent>
    </dc:creator>
   </cc:Work>
  </rdf:RDF>
 </metadata>
 <defs>
  <style type="text/css">*{stroke-linejoin: round; stroke-linecap: butt}</style>
 </defs>
 <g id="figure_1">
  <g id="patch_1">
   <path d="M 0 568.8 
L 284.370577 568.8 
L 284.370577 0 
L 0 0 
z
" style="fill: #ffffff"/>
  </g>
  <g id="axes_1">
   <g id="LineCollection_1">
    <path d="M 32.269139 536.4 
L 29.172909 534.582802 
L 28.760079 535.037101 
L 20.572272 531.675284 
L 19.540195 530.857545 
L 19.47139 529.494646 
L 21.741958 526.587128 
L 24.287747 521.589832 
L 28.828884 514.684478 
L 31.030647 510.595782 
L 32.544359 508.506003 
L 37.773547 498.874851 
L 40.250531 493.695836 
L 43.140345 489.879719 
L 45.066888 486.427042 
L 45.686134 484.064684 
L 48.713558 477.250189 
L 52.016203 472.071174 
L 53.392305 470.617415 
L 54.974822 467.800757 
L 56.763755 465.983559 
L 58.139857 463.530341 
L 57.589416 462.621741 
L 61.167282 457.442726 
L 64.813952 452.62715 
L 65.570808 449.265333 
L 68.116597 444.994916 
L 73.82742 435.908924 
L 74.309056 433.183126 
L 76.166794 429.730449 
L 80.2951 425.914332 
L 81.258371 424.460573 
L 79.056608 423.461114 
L 79.263023 421.643916 
L 78.506167 422.098215 
L 78.712582 419.554137 
L 79.675854 417.100919 
L 79.607049 419.372418 
L 82.359253 415.647161 
L 85.868313 409.559546 
L 88.620517 404.28967 
L 92.473603 398.928935 
L 96.739519 395.112818 
L 96.464299 393.204759 
L 100.592605 386.753705 
L 102.794368 383.937047 
L 101.968707 383.482747 
L 103.069588 381.574689 
L 103.482419 379.575771 
L 103.069588 377.758572 
L 100.93663 375.214494 
L 98.459647 373.397296 
L 97.014739 370.489778 
L 97.221155 367.9457 
L 98.941282 365.855922 
L 103.138394 362.130665 
L 106.372233 354.316712 
L 108.642802 349.955435 
L 111.807836 345.412439 
L 114.216015 342.959221 
L 116.692999 341.687182 
L 119.995643 341.505462 
L 121.646966 341.868902 
L 124.880806 343.776961 
L 128.183451 344.77642 
L 130.522824 344.41298 
L 133.756664 342.595782 
L 135.958427 340.324283 
L 138.02258 336.780746 
L 138.848241 334.327528 
L 140.224343 332.05603 
L 142.150886 330.420552 
L 147.655294 327.058734 
L 149.513032 325.241536 
L 151.714795 321.516279 
L 153.090897 317.881882 
L 153.847753 314.610925 
L 153.641338 312.430287 
L 151.852406 308.61417 
L 151.164355 305.524932 
L 151.64599 302.617415 
L 155.774296 296.62066 
L 158.457695 294.258302 
L 162.654806 291.714224 
L 163.686883 290.351325 
L 164.168519 288.352407 
L 163.962103 284.80887 
L 165.407011 278.993835 
L 166.232672 277.449216 
L 166.783113 274.541698 
L 168.09041 270.180422 
L 171.73708 262.911628 
L 177.516708 256.914873 
L 179.924887 253.825635 
L 182.057845 249.555219 
L 183.227532 246.375122 
L 185.016465 242.649865 
L 188.59433 238.561168 
L 191.896975 236.65311 
L 196.231696 235.562791 
L 198.158239 235.471931 
L 204.006673 236.19881 
L 207.240512 235.653651 
L 209.373471 234.109032 
L 213.639387 227.476257 
L 218.662159 218.117685 
L 221.551974 212.30265 
L 222.44644 210.939751 
L 226.437136 202.944078 
L 231.253493 195.130124 
L 233.730477 190.041969 
L 234.968968 186.225852 
L 234.968968 179.683937 
L 235.93224 175.504381 
L 236.06985 173.323743 
L 235.175384 169.780206 
L 232.904815 165.964089 
L 232.56079 164.60119 
L 233.111231 160.875933 
L 235.93224 154.697458 
L 240.955012 147.701244 
L 244.808098 143.612547 
L 248.317158 138.887831 
L 248.936404 136.434613 
L 248.317158 132.709356 
L 248.798794 126.530882 
L 249.762065 121.351866 
L 250.656532 118.898648 
L 253.752761 115.173391 
L 258.637923 111.902434 
L 259.67 110.176095 
L 260.014025 108.268037 
L 259.188364 106.450838 
L 256.780186 105.087939 
L 253.20232 105.814819 
L 249.486845 108.449757 
L 246.597031 108.722336 
L 244.188852 106.814278 
L 243.776021 105.178799 
L 244.808098 102.453002 
L 249.624455 96.092807 
L 252.651879 89.732612 
L 253.339931 87.006814 
L 253.339931 84.826176 
L 251.895023 81.736939 
L 249.83087 79.192861 
L 246.803446 76.830503 
L 247.009861 74.559005 
L 247.904327 73.377826 
L 254.234397 62.383775 
L 257.468237 55.660141 
L 261.527738 48.754786 
L 264.555162 41.940292 
L 264.899188 39.668794 
L 263.591891 37.669876 
L 258.775534 34.944078 
L 255.128863 33.672039 
L 254.234397 32.4 
L 256.504965 33.126879 
L 258.706728 35.125798 
L 264.073526 38.760195 
L 263.385475 41.395133 
L 260.702076 46.755868 
L 257.055406 53.206923 
L 255.335278 55.751001 
L 252.307854 61.656896 
L 246.45942 72.650946 
L 246.04659 74.740725 
L 244.395267 75.921904 
L 239.372495 74.559005 
L 232.767205 73.377826 
L 232.147959 73.741266 
L 229.05173 72.832666 
L 226.505941 74.195565 
L 224.992229 76.921363 
L 224.441788 80.10146 
L 225.405059 82.645538 
L 227.193992 83.917577 
L 233.042426 86.279935 
L 234.074502 87.188534 
L 234.900163 90.186912 
L 234.831358 94.003029 
L 235.93224 97.092266 
L 236.34507 100.090644 
L 235.381799 103.179881 
L 233.524061 105.814819 
L 231.115883 108.177177 
L 228.982925 109.540076 
L 223.409711 111.720714 
L 221.483168 113.447052 
L 220.244677 115.536831 
L 219.419015 118.262628 
L 217.836498 120.806706 
L 215.634735 122.351325 
L 210.199132 124.441103 
L 207.102902 126.349162 
L 204.350698 128.80238 
L 202.974596 131.255598 
L 200.841638 134.072255 
L 198.364654 139.705571 
L 196.644527 144.521147 
L 194.511569 147.973824 
L 192.860246 149.700162 
L 189.901627 151.699081 
L 186.667787 154.424878 
L 185.22288 157.150676 
L 185.566905 164.87377 
L 185.08527 166.509248 
L 183.158727 169.507626 
L 181.782625 170.416225 
L 175.039725 173.232883 
L 172.356326 174.868361 
L 169.879342 177.230719 
L 166.439087 181.228556 
L 163.549273 186.589292 
L 162.586001 191.859167 
L 162.861222 195.220984 
L 165.407011 204.034397 
L 165.2694 208.213953 
L 164.581349 210.212872 
L 162.517196 213.665549 
L 159.076941 218.117685 
L 156.324737 220.843483 
L 153.572533 222.569822 
L 151.23316 225.023039 
L 149.719447 228.021417 
L 149.444227 230.111195 
L 149.719447 236.01709 
L 148.549761 240.287507 
L 145.935167 243.831044 
L 139.054657 250.100379 
L 135.614402 254.098215 
L 132.105341 258.913791 
L 128.389866 262.639048 
L 121.440551 267.818064 
L 119.307592 269.998702 
L 115.798532 276.268037 
L 110.982175 283.445971 
L 109.330853 284.99059 
L 107.885946 285.444889 
L 105.477767 284.44543 
L 105.477767 283.90027 
L 109.743683 275.995457 
L 111.739031 272.63364 
L 113.596769 267.091184 
L 113.527964 265.819145 
L 106.716259 263.002488 
L 104.514496 260.45841 
L 100.317384 258.459492 
L 97.221155 256.551433 
L 92.267187 254.189075 
L 89.996619 252.099297 
L 87.038 250.463818 
L 83.460134 249.010059 
L 81.464787 247.192861 
L 80.019879 247.192861 
L 80.019879 247.192861 
" clip-path="url(#p3a590f5256)" style="fill: none; stroke: #000000; stroke-width: 3"/>
   </g>
  </g>
 </g>
 <defs>
  <clipPath id="p3a590f5256">
   <rect x="7.2" y="7.2" width="269.970577" height="554.4"/>
  </clipPath>
 </defs>
</svg>
