<?xml version="1.0" encoding="utf-8" standalone="no"?>
<!DOCTYPE svg PUBLIC "-//W3C//DTD SVG 1.1//EN"
  "http://www.w3.org/Graphics/SVG/1.1/DTD/svg11.dtd">
<svg xmlns:xlink="http://www.w3.org/1999/xlink" width="303.983286pt" height="568.8pt" viewBox="0 0 303.983286 568.8" xmlns="http://www.w3.org/2000/svg" version="1.1">
 <metadata>
  <rdf:RDF xmlns:dc="http://purl.org/dc/elements/1.1/" xmlns:cc="http://creativecommons.org/ns#" xmlns:rdf="http://www.w3.org/1999/02/22-rdf-syntax-ns#">
   <cc:Work>
    <dc:type rdf:resource="http://purl.org/dc/dcmitype/StillImage"/>
    <dc:date>2023-09-25T14:14:18.711102</dc:date>
    <dc:format>image/svg+xml</dc:format>
    <dc:creator>
     <cc:Agent>
      <dc:title>Matplotlib v3.6.2, https://matplotlib.org/</dc:title>
     </cc:Agent>
    </dc:creator>
   </cc:Work>
  </rdf:RDF>
 </metadata>
 <defs>
  <style type="text/css">*{stroke-linejoin: round; stroke-linecap: butt}</style>
 </defs>
 <g id="figure_1">
  <g id="patch_1">
   <path d="M 0 568.8 
L 303.983286 568.8 
L 303.983286 0 
L 0 0 
z
" style="fill: #ffffff"/>
  </g>
  <g id="axes_1">
   <g id="LineCollection_1">
    <path d="M 35.85742 536.4 
L 33.611834 535.411571 
L 35.034039 535.016199 
L 31.441101 533.632399 
L 25.602577 532.050912 
L 21.710228 531.754383 
L 20.437729 532.446284 
L 20.362877 530.27174 
L 24.479784 526.120337 
L 25.602577 524.341165 
L 29.195515 517.02679 
L 33.23757 511.096215 
L 38.103006 503.188782 
L 39.674916 499.926966 
L 39.600063 498.048951 
L 41.845649 495.083663 
L 44.166088 489.746146 
L 46.785939 484.902844 
L 50.004612 478.082683 
L 53.223285 472.745166 
L 58.537839 465.331947 
L 60.334307 460.982859 
L 63.253569 454.854599 
L 69.690916 444.871465 
L 73.807823 435.777917 
L 76.427674 433.702216 
L 77.10135 432.219572 
L 75.679145 431.033458 
L 78.972671 425.498255 
L 83.613549 418.678094 
L 85.110606 414.922063 
L 87.880162 411.166033 
L 86.907075 411.857933 
L 90.275454 407.212316 
L 93.868392 400.19447 
L 95.215743 398.118768 
L 98.50927 395.845381 
L 99.108092 391.39745 
L 99.931474 388.728692 
L 103.150147 383.490018 
L 104.347793 382.106217 
L 104.946616 379.83283 
L 103.374706 382.600431 
L 103.674117 381.018945 
L 109.587494 370.146225 
L 112.132491 367.477466 
L 112.731314 364.116807 
L 111.533668 362.041106 
L 108.539554 360.953834 
L 106.743085 359.273505 
L 105.84485 356.802432 
L 106.743085 353.540616 
L 109.886905 351.168386 
L 112.282197 348.203099 
L 116.997928 337.72575 
L 119.617778 332.684762 
L 124.183803 327.050716 
L 125.830566 325.963444 
L 129.348651 324.777329 
L 132.866735 325.172701 
L 137.582466 328.137988 
L 139.304082 328.731045 
L 143.495842 328.039145 
L 147.238486 325.568072 
L 149.109807 323.591214 
L 150.457159 321.021298 
L 151.879364 316.869896 
L 154.274655 313.904609 
L 156.595094 312.026593 
L 161.535383 309.061306 
L 164.454645 305.700647 
L 167.44876 298.188586 
L 167.97273 294.531398 
L 167.598466 293.048755 
L 165.427732 288.501981 
L 164.978615 286.030908 
L 165.128321 283.559835 
L 166.176261 281.286448 
L 170.06861 276.24546 
L 172.463902 274.268602 
L 176.955074 271.204471 
L 178.901248 269.029927 
L 179.350366 266.954226 
L 178.901248 263.198196 
L 179.275513 261.32018 
L 181.071982 257.465307 
L 182.045069 251.337046 
L 183.766685 246.592587 
L 186.760799 240.266641 
L 188.257857 238.289782 
L 192.299912 234.336066 
L 195.368879 230.481192 
L 197.165348 227.417062 
L 199.860051 221.091116 
L 202.554754 216.247813 
L 205.474016 213.08484 
L 208.542984 211.206825 
L 214.306654 209.625338 
L 215.728859 209.526495 
L 223.139293 210.416082 
L 226.357966 209.32881 
L 228.453846 207.549637 
L 231.672519 202.90402 
L 232.795312 200.334105 
L 236.837367 193.316258 
L 244.921477 178.687507 
L 246.56824 176.216435 
L 254.727202 160.895783 
L 255.550584 159.017768 
L 256.299113 155.459423 
L 256.074554 150.714964 
L 256.823083 145.080918 
L 256.299113 139.249186 
L 254.203232 134.603569 
L 253.604409 132.330182 
L 253.828968 130.056795 
L 255.400878 124.818121 
L 258.918963 118.393332 
L 263.335282 113.253501 
L 268.574983 107.915984 
L 270.895422 104.258796 
L 271.344539 101.491194 
L 270.820569 95.659463 
L 272.542185 84.984428 
L 273.664978 81.722612 
L 274.862624 80.042283 
L 277.482474 77.768896 
L 281.150264 75.693195 
L 283.320998 73.518651 
L 283.620409 71.146421 
L 282.572469 68.971877 
L 279.503501 67.489233 
L 276.209975 68.082291 
L 272.542185 70.751049 
L 269.922334 71.838321 
L 267.302484 71.146421 
L 265.955132 69.663777 
L 265.655721 67.192704 
L 267.003073 64.425103 
L 271.718803 58.8899 
L 273.739831 55.430398 
L 276.135122 49.499823 
L 276.209975 45.743793 
L 273.814683 41.691234 
L 269.398364 38.132889 
L 265.655721 35.859502 
L 263.110724 34.871073 
L 257.347053 33.388429 
L 251.283971 32.4 
L 248.963532 32.894215 
L 247.391622 33.882644 
L 245.071183 37.243303 
L 244.47236 39.121318 
L 244.696918 41.790076 
L 247.840739 44.854207 
L 252.706175 46.534536 
L 254.502644 47.522965 
L 256.448818 50.784781 
L 256.299113 55.035026 
L 257.945876 60.965601 
L 257.347053 64.425103 
L 254.12838 69.169563 
L 250.610295 71.739478 
L 244.771771 74.012865 
L 241.328539 76.978153 
L 239.681776 81.426084 
L 238.48413 83.501785 
L 235.34031 86.170543 
L 229.052669 88.542773 
L 223.738116 92.199961 
L 221.866794 94.473348 
L 220.145178 97.537478 
L 216.55224 104.950696 
L 214.306654 111.1778 
L 211.237687 115.329202 
L 205.997986 118.492175 
L 203.677547 121.062091 
L 202.105637 125.905393 
L 202.629607 130.847539 
L 201.65652 134.998941 
L 200.234315 137.074642 
L 198.362994 138.557286 
L 191.626236 141.028359 
L 187.659034 143.301745 
L 184.889478 145.575132 
L 181.221687 149.92422 
L 178.976101 153.97678 
L 177.479044 158.622397 
L 177.10478 163.959914 
L 177.778455 167.320573 
L 179.350366 170.878917 
L 180.548011 175.623377 
L 180.398306 178.687507 
L 178.67669 183.629653 
L 174.484929 189.461385 
L 172.089638 191.833614 
L 166.40082 195.886174 
L 163.855822 199.642204 
L 163.107294 202.805177 
L 163.481558 208.735752 
L 163.331852 211.305668 
L 162.209059 214.666327 
L 159.589209 218.422357 
L 154.873478 222.57376 
L 149.70863 227.614748 
L 144.019813 235.423338 
L 140.801139 238.586311 
L 134.962616 242.935399 
L 131.519384 246.197215 
L 129.722915 248.865974 
L 123.510127 259.639851 
L 119.842337 263.988939 
L 118.494985 264.384311 
L 115.800282 263.00051 
L 115.949987 261.616709 
L 119.093808 256.180349 
L 124.10895 246.790273 
L 124.408361 245.604158 
L 122.986157 242.836556 
L 119.018955 241.156227 
L 113.180431 237.103667 
L 105.470586 232.655736 
L 104.048382 231.568464 
L 98.808681 228.998549 
L 93.419275 225.539047 
L 87.505898 222.672602 
L 83.014726 220.89343 
L 80.619434 219.015415 
L 74.331794 215.852442 
L 73.508412 216.14897 
L 73.508412 216.14897 
" clip-path="url(#p4acf585826)" style="fill: none; stroke: #000000; stroke-width: 3"/>
   </g>
  </g>
 </g>
 <defs>
  <clipPath id="p4acf585826">
   <rect x="7.2" y="7.2" width="289.583286" height="554.4"/>
  </clipPath>
 </defs>
</svg>
