<?xml version="1.0" encoding="utf-8" standalone="no"?>
<!DOCTYPE svg PUBLIC "-//W3C//DTD SVG 1.1//EN"
  "http://www.w3.org/Graphics/SVG/1.1/DTD/svg11.dtd">
<svg xmlns:xlink="http://www.w3.org/1999/xlink" width="302.019553pt" height="568.8pt" viewBox="0 0 302.019553 568.8" xmlns="http://www.w3.org/2000/svg" version="1.1">
 <metadata>
  <rdf:RDF xmlns:dc="http://purl.org/dc/elements/1.1/" xmlns:cc="http://creativecommons.org/ns#" xmlns:rdf="http://www.w3.org/1999/02/22-rdf-syntax-ns#">
   <cc:Work>
    <dc:type rdf:resource="http://purl.org/dc/dcmitype/StillImage"/>
    <dc:date>2023-09-25T14:14:18.582144</dc:date>
    <dc:format>image/svg+xml</dc:format>
    <dc:creator>
     <cc:Agent>
      <dc:title>Matplotlib v3.6.2, https://matplotlib.org/</dc:title>
     </cc:Agent>
    </dc:creator>
   </cc:Work>
  </rdf:RDF>
 </metadata>
 <defs>
  <style type="text/css">*{stroke-linejoin: round; stroke-linecap: butt}</style>
 </defs>
 <g id="figure_1">
  <g id="patch_1">
   <path d="M -0 568.8 
L 302.019553 568.8 
L 302.019553 0 
L -0 0 
z
" style="fill: #ffffff"/>
  </g>
  <g id="axes_1">
   <g id="LineCollection_1">
    <path d="M 34.393121 536.4 
L 33.646058 534.821609 
L 31.479573 535.117557 
L 28.192492 534.722959 
L 20.497735 531.368878 
L 20.273616 530.875631 
L 22.365395 526.239107 
L 27.296016 519.333647 
L 27.669547 516.176864 
L 29.985445 511.540341 
L 34.542534 505.720023 
L 35.887249 501.971345 
L 37.530789 498.518614 
L 39.024917 494.276688 
L 46.122023 481.945508 
L 49.48381 477.703582 
L 57.253273 461.623723 
L 59.195639 459.256136 
L 61.212711 455.507457 
L 65.545681 448.700646 
L 67.786872 443.965473 
L 67.637459 442.880329 
L 69.729238 438.441104 
L 74.43574 431.535643 
L 77.349288 428.773459 
L 78.992829 426.405872 
L 79.814599 424.235584 
L 81.756965 421.670699 
L 84.521101 415.159836 
L 84.670513 412.59495 
L 86.089935 410.424662 
L 86.612879 406.675984 
L 91.095262 402.828655 
L 93.709985 399.671873 
L 98.117661 397.205637 
L 99.014138 393.456958 
L 100.20944 391.483969 
L 102.375925 386.05825 
L 104.392997 381.717675 
L 102.375925 379.941985 
L 103.347108 377.27845 
L 106.783601 373.233823 
L 109.099499 369.287845 
L 111.191277 366.920258 
L 109.024792 362.776982 
L 105.289474 359.422901 
L 104.168878 356.562067 
L 104.467703 354.29313 
L 106.484776 351.728244 
L 108.950086 349.853905 
L 112.16246 345.217381 
L 114.254239 339.693012 
L 118.138971 332.491603 
L 121.575464 327.953729 
L 124.264894 325.290194 
L 127.253149 324.20505 
L 132.034357 324.895596 
L 135.396144 326.967234 
L 137.936161 327.953729 
L 140.700297 327.953729 
L 145.033266 325.586142 
L 146.676807 324.007751 
L 148.245641 321.344216 
L 149.963887 317.20094 
L 153.400381 312.169818 
L 160.273367 307.730593 
L 161.692789 306.349501 
L 163.635154 303.390018 
L 166.100465 297.66835 
L 166.473997 293.426424 
L 163.709861 286.915561 
L 163.560448 284.350675 
L 164.083393 281.983089 
L 166.62341 277.938462 
L 169.312839 274.781679 
L 174.467579 271.526248 
L 175.961707 270.243805 
L 177.530541 267.67892 
L 177.829366 265.114034 
L 177.75466 260.47751 
L 179.547613 255.15044 
L 180.668208 252.782854 
L 182.610574 246.173341 
L 185.897655 238.971932 
L 188.06414 236.111098 
L 191.35122 233.052965 
L 193.891237 230.093482 
L 195.385365 227.627246 
L 200.315986 216.085261 
L 203.901892 212.237933 
L 207.711917 210.363594 
L 212.642538 208.982501 
L 220.113176 209.870346 
L 223.624376 209.475749 
L 226.164392 207.996007 
L 228.779116 204.641926 
L 232.439728 198.427011 
L 234.979745 193.29724 
L 254.104578 158.473987 
L 254.776935 155.021257 
L 254.328697 149.694187 
L 255.598705 143.084674 
L 255.29988 139.434645 
L 254.403403 136.968409 
L 252.386331 133.910276 
L 251.713973 131.641339 
L 252.61045 127.103464 
L 254.552816 122.466941 
L 257.092833 118.225015 
L 264.339351 109.642513 
L 268.373496 105.203288 
L 269.269972 103.13165 
L 269.269972 98.495126 
L 268.89644 94.154551 
L 271.137632 83.895009 
L 273.079997 80.244979 
L 276.74061 76.989548 
L 281.07358 74.227363 
L 281.745937 72.747622 
L 281.447112 69.393541 
L 279.579452 67.519201 
L 277.039435 67.025954 
L 274.350006 67.81515 
L 269.94233 70.971932 
L 267.327606 71.563829 
L 265.684066 70.873282 
L 264.115232 68.801644 
L 264.264645 66.335408 
L 265.011709 64.757017 
L 270.166449 58.048855 
L 272.930585 53.510981 
L 274.200593 50.255549 
L 274.723538 47.098767 
L 274.424712 45.323077 
L 272.781172 42.363594 
L 269.419385 39.009513 
L 265.534653 36.148679 
L 263.218756 35.162184 
L 258.437547 33.978391 
L 251.863386 33.189196 
L 248.949838 32.4 
L 245.886876 32.991897 
L 243.94451 35.556782 
L 243.272153 37.431122 
L 243.048034 41.27845 
L 243.94451 43.152789 
L 247.530416 45.323077 
L 251.938093 46.704169 
L 254.478109 49.762302 
L 254.776935 55.483969 
L 256.196356 61.205637 
L 256.046943 64.16512 
L 254.926348 67.025954 
L 252.535744 70.084087 
L 248.576306 72.648972 
L 241.105668 75.411157 
L 238.640357 78.863887 
L 236.922111 83.500411 
L 234.830332 85.572049 
L 232.290315 86.755843 
L 228.48029 87.939636 
L 224.371439 90.109924 
L 221.383184 92.872108 
L 219.664938 95.338344 
L 215.257261 104.414093 
L 213.165483 109.938462 
L 211.37253 113.391192 
L 208.832513 115.956078 
L 203.752479 118.619612 
L 201.959526 121.085849 
L 200.614811 124.43993 
L 200.913637 131.148092 
L 199.120684 136.080564 
L 195.833603 138.645449 
L 193.442999 139.434645 
L 187.167663 142.394128 
L 182.9094 145.55091 
L 179.771732 149.496888 
L 177.455834 153.541515 
L 176.559358 155.909102 
L 175.737588 159.855079 
L 175.513468 162.913212 
L 176.409945 167.056489 
L 178.202898 172.482208 
L 179.024668 176.625484 
L 178.427017 180.86741 
L 175.438762 186.095831 
L 172.450507 189.943159 
L 169.387545 192.705344 
L 165.203988 195.763476 
L 163.186916 197.933764 
L 162.215733 200.104052 
L 161.842201 203.754081 
L 161.991614 206.516265 
L 161.767495 212.435232 
L 160.049248 216.085261 
L 157.95747 218.650147 
L 154.894508 221.215032 
L 149.067411 226.640752 
L 147.349164 228.61374 
L 143.165607 234.335408 
L 139.579701 238.182736 
L 132.109063 243.509806 
L 129.49434 246.074692 
L 126.506085 250.809865 
L 123.069591 257.123429 
L 118.661915 263.239695 
L 116.644843 263.831591 
L 114.478358 263.239695 
L 113.731294 262.35185 
L 114.254239 260.378861 
L 117.54132 254.953142 
L 120.230749 251.105813 
L 123.966068 243.312507 
L 120.678987 241.832766 
L 112.984231 237.59084 
L 108.05361 234.335408 
L 104.094172 232.855666 
L 102.749457 231.375925 
L 101.180623 230.981327 
L 93.560572 227.232648 
L 90.273492 225.259659 
L 87.434649 224.569113 
L 85.417577 223.286671 
L 85.791109 222.201527 
L 85.791109 222.201527 
" clip-path="url(#p044327ecd1)" style="fill: none; stroke: #000000; stroke-width: 3"/>
   </g>
  </g>
 </g>
 <defs>
  <clipPath id="p044327ecd1">
   <rect x="7.2" y="7.2" width="287.619553" height="554.4"/>
  </clipPath>
 </defs>
</svg>
