<?xml version="1.0" encoding="utf-8" standalone="no"?>
<!DOCTYPE svg PUBLIC "-//W3C//DTD SVG 1.1//EN"
  "http://www.w3.org/Graphics/SVG/1.1/DTD/svg11.dtd">
<svg xmlns:xlink="http://www.w3.org/1999/xlink" width="239.005052pt" height="568.8pt" viewBox="0 0 239.005052 568.8" xmlns="http://www.w3.org/2000/svg" version="1.1">
 <metadata>
  <rdf:RDF xmlns:dc="http://purl.org/dc/elements/1.1/" xmlns:cc="http://creativecommons.org/ns#" xmlns:rdf="http://www.w3.org/1999/02/22-rdf-syntax-ns#">
   <cc:Work>
    <dc:type rdf:resource="http://purl.org/dc/dcmitype/StillImage"/>
    <dc:date>2023-09-25T14:14:18.514147</dc:date>
    <dc:format>image/svg+xml</dc:format>
    <dc:creator>
     <cc:Agent>
      <dc:title>Matplotlib v3.6.2, https://matplotlib.org/</dc:title>
     </cc:Agent>
    </dc:creator>
   </cc:Work>
  </rdf:RDF>
 </metadata>
 <defs>
  <style type="text/css">*{stroke-linejoin: round; stroke-linecap: butt}</style>
 </defs>
 <g id="figure_1">
  <g id="patch_1">
   <path d="M -0 568.8 
L 239.005052 568.8 
L 239.005052 0 
L -0 0 
z
" style="fill: #ffffff"/>
  </g>
  <g id="axes_1">
   <g id="LineCollection_1">
    <path d="M 144.078393 41.649097 
L 138.68089 38.919856 
L 139.255092 36.948736 
L 142.355786 32.551625 
L 144.308074 32.4 
L 152.46175 36.493863 
L 153.954676 39.677978 
L 156.481167 41.952347 
L 160.270904 40.890975 
L 164.864524 42.558845 
L 166.012929 43.771841 
L 181.975759 52.262816 
L 185.306133 53.324188 
L 188.866189 56.811552 
L 192.311404 58.327798 
L 200.120558 62.876534 
L 208.044552 66.212274 
L 209.882001 64.544404 
L 214.36078 57.7213 
L 215.624026 58.024549 
L 220.447327 64.241155 
L 221.595732 67.576895 
L 221.25121 70.154513 
L 218.265357 74.854874 
L 212.867854 79.100361 
L 209.192958 84.40722 
L 207.125828 91.685199 
L 207.125828 94.41444 
L 208.618755 111.548014 
L 208.848436 116.551625 
L 208.044552 119.887365 
L 205.518061 124.890975 
L 200.120558 128.378339 
L 193.459809 130.804332 
L 190.359115 133.685199 
L 188.062305 137.172563 
L 182.894483 146.876534 
L 180.712513 152.183394 
L 177.61182 163.555235 
L 174.511126 170.529964 
L 172.558838 173.714079 
L 169.113623 177.201444 
L 160.156064 185.085921 
L 152.691431 192.515523 
L 146.030682 201.309747 
L 142.585467 206.768231 
L 140.518338 212.681588 
L 141.09254 218.898195 
L 146.375203 227.237545 
L 151.887547 231.786282 
L 154.299198 234.515523 
L 155.447603 238.457762 
L 150.624302 247.40361 
L 147.179087 254.681588 
L 145.801001 259.0787 
L 140.748019 267.569675 
L 133.627908 278.486643 
L 131.79046 285.158123 
L 128.345245 289.40361 
L 119.961888 305.020939 
L 116.516673 310.176173 
L 111.578532 321.093141 
L 105.721666 330.797112 
L 103.539696 336.40722 
L 98.371874 346.566065 
L 90.103358 355.360289 
L 87.691707 360.212274 
L 86.543302 365.822383 
L 77.930265 378.710469 
L 75.174093 381.136462 
L 72.647602 385.230325 
L 66.446215 399.634657 
L 65.757172 403.273646 
L 62.197116 411.461372 
L 56.569931 420.710469 
L 55.191845 421.165343 
L 52.665354 427.230325 
L 45.430403 440.270036 
L 45.200722 442.544404 
L 41.066464 450.428881 
L 33.486991 459.829603 
L 31.190181 467.259206 
L 27.744966 471.807942 
L 26.252039 476.508303 
L 20.969376 483.028159 
L 17.409321 490.761011 
L 17.868683 492.580505 
L 28.434009 495.461372 
L 44.626519 501.223105 
L 47.15301 501.677978 
L 51.976311 506.378339 
L 59.900306 511.533574 
L 66.905577 515.020939 
L 82.179363 523.360289 
L 85.9691 523.208664 
L 86.658143 524.573285 
L 82.179363 535.338628 
L 78.619308 536.4 
L 74.140528 531.548014 
L 71.843718 528.06065 
L 66.790736 523.511913 
L 70.580473 528.515523 
L 74.370209 532.457762 
L 67.70946 527.150903 
L 66.216534 525.331408 
" clip-path="url(#pa252119af5)" style="fill: none; stroke: #000000; stroke-width: 3"/>
   </g>
  </g>
 </g>
 <defs>
  <clipPath id="pa252119af5">
   <rect x="7.2" y="7.2" width="224.605052" height="554.4"/>
  </clipPath>
 </defs>
</svg>
