<?xml version="1.0" encoding="utf-8" standalone="no"?>
<!DOCTYPE svg PUBLIC "-//W3C//DTD SVG 1.1//EN"
  "http://www.w3.org/Graphics/SVG/1.1/DTD/svg11.dtd">
<svg xmlns:xlink="http://www.w3.org/1999/xlink" width="300.955012pt" height="568.8pt" viewBox="0 0 300.955012 568.8" xmlns="http://www.w3.org/2000/svg" version="1.1">
 <metadata>
  <rdf:RDF xmlns:dc="http://purl.org/dc/elements/1.1/" xmlns:cc="http://creativecommons.org/ns#" xmlns:rdf="http://www.w3.org/1999/02/22-rdf-syntax-ns#">
   <cc:Work>
    <dc:type rdf:resource="http://purl.org/dc/dcmitype/StillImage"/>
    <dc:date>2023-09-25T14:14:18.461274</dc:date>
    <dc:format>image/svg+xml</dc:format>
    <dc:creator>
     <cc:Agent>
      <dc:title>Matplotlib v3.6.2, https://matplotlib.org/</dc:title>
     </cc:Agent>
    </dc:creator>
   </cc:Work>
  </rdf:RDF>
 </metadata>
 <defs>
  <style type="text/css">*{stroke-linejoin: round; stroke-linecap: butt}</style>
 </defs>
 <g id="figure_1">
  <g id="patch_1">
   <path d="M 0 568.8 
L 300.955012 568.8 
L 300.955012 0 
L 0 0 
z
" style="fill: #ffffff"/>
  </g>
  <g id="axes_1">
   <g id="LineCollection_1">
    <path d="M 33.605519 536.4 
L 29.793257 535.610341 
L 21.346481 531.365922 
L 20.225228 530.378848 
L 20.82323 527.516334 
L 23.065737 525.443478 
L 24.11224 521.988719 
L 26.504247 518.237838 
L 29.120505 512.907638 
L 37.04403 499.878261 
L 43.098799 487.441128 
L 44.668553 485.07215 
L 46.612059 480.729025 
L 48.331315 475.793655 
L 49.90107 474.016921 
L 53.19008 467.107403 
L 54.834585 465.429377 
L 59.469099 457.7302 
L 63.356111 449.636193 
L 70.083632 437.791304 
L 73.372642 434.830082 
L 74.792897 431.671445 
L 77.184904 428.216686 
L 79.05366 426.341246 
L 80.623415 421.60329 
L 82.641671 417.753702 
L 83.015422 416.27309 
L 87.948937 406.79718 
L 93.181454 399.788954 
L 92.13495 398.209636 
L 94.825959 394.853584 
L 97.516967 389.523384 
L 104.91724 376.592714 
L 107.159747 374.421152 
L 107.682999 371.756052 
L 109.103253 368.79483 
L 111.046759 366.623267 
L 111.196259 364.747826 
L 107.907249 361.589189 
L 105.739493 360.207286 
L 103.945487 357.640893 
L 103.721236 354.975793 
L 104.244488 353.59389 
L 108.654752 349.349471 
L 109.850755 347.770153 
L 111.49526 343.920564 
L 114.63477 337.99812 
L 117.026777 332.766627 
L 119.344035 329.015746 
L 123.081546 325.659694 
L 124.875552 324.67262 
L 129.211065 324.67262 
L 134.14458 327.33772 
L 138.031592 328.324794 
L 140.872101 327.929965 
L 145.805617 324.179083 
L 148.048123 320.428202 
L 149.916879 316.183784 
L 152.009886 313.518684 
L 154.028142 311.939365 
L 159.484909 308.484606 
L 161.652666 306.016921 
L 163.297171 302.562162 
L 165.390177 295.0604 
L 165.016426 292.494007 
L 163.371921 289.434078 
L 162.325418 285.880611 
L 162.92342 282.228437 
L 167.184183 276.305993 
L 168.978188 274.726675 
L 174.733956 270.679671 
L 176.677462 267.422327 
L 176.378461 262.881786 
L 176.677462 260.808931 
L 178.172467 257.255464 
L 180.564474 248.27309 
L 184.675737 239.488132 
L 191.328507 232.085076 
L 193.720515 229.025147 
L 195.215519 226.26134 
L 198.130779 218.858284 
L 201.86829 213.922914 
L 203.886546 212.244888 
L 211.137319 209.283666 
L 212.408073 209.086251 
L 218.687092 210.073325 
L 222.349853 209.777203 
L 224.218609 208.790129 
L 227.133868 205.7302 
L 229.226875 201.979318 
L 233.338137 195.859459 
L 239.093905 185.791304 
L 239.467656 184.409401 
L 242.382915 178.585664 
L 250.530691 164.569213 
L 253.3712 158.449354 
L 253.894451 156.179083 
L 253.894451 153.119154 
L 253.296449 149.170858 
L 254.716704 143.445828 
L 254.716704 140.385899 
L 253.6702 137.424677 
L 251.278193 134.068625 
L 250.680191 132.588014 
L 251.128693 128.343596 
L 252.922698 124.099177 
L 255.837957 119.262515 
L 258.977467 115.018096 
L 266.975742 106.726675 
L 268.545496 104.061575 
L 268.620247 101.59389 
L 268.096995 95.86886 
L 269.442499 85.800705 
L 270.190002 83.036898 
L 273.03051 79.088602 
L 275.347768 77.213161 
L 279.45903 74.844183 
L 280.729784 72.771328 
L 280.729784 71.290717 
L 278.861028 68.52691 
L 275.497268 67.539835 
L 272.208258 68.724324 
L 267.797994 71.784254 
L 265.854488 71.685546 
L 264.284733 70.79718 
L 263.013979 68.52691 
L 263.462481 65.86181 
L 266.078739 62.012221 
L 268.395996 59.643243 
L 271.161755 55.793655 
L 273.254761 51.154407 
L 273.703262 46.317744 
L 272.283008 43.455229 
L 269.965751 40.987544 
L 264.957485 37.039248 
L 262.341227 35.657344 
L 258.005714 34.176733 
L 253.3712 33.485781 
L 250.23169 32.696122 
L 246.568928 32.4 
L 244.700173 33.387074 
L 242.756667 36.545711 
L 242.457666 40.296592 
L 244.102171 43.652644 
L 248.213434 45.429377 
L 250.007439 45.725499 
L 252.175196 47.403525 
L 253.44595 50.858284 
L 253.59545 54.115629 
L 255.538956 62.209636 
L 254.342953 65.960517 
L 252.324696 68.724324 
L 249.783188 71.093302 
L 247.391181 72.475206 
L 242.009164 74.449354 
L 239.617157 76.028672 
L 238.346403 77.607991 
L 236.926149 81.654994 
L 235.356394 84.418801 
L 232.441135 86.491657 
L 225.937865 88.761927 
L 222.424604 90.834783 
L 218.986093 94.585664 
L 216.967837 98.435253 
L 213.604076 106.035723 
L 213.080825 108.305993 
L 211.66057 111.563337 
L 207.923059 115.807756 
L 203.811796 118.275441 
L 202.316791 119.854759 
L 200.597536 122.717274 
L 199.850034 126.172033 
L 200.074285 132.390599 
L 198.953031 135.647944 
L 197.607527 137.128555 
L 195.140769 138.707873 
L 189.983003 140.879436 
L 183.853484 144.729025 
L 180.265473 148.479906 
L 177.574465 152.428202 
L 176.00471 155.685546 
L 175.107707 159.140306 
L 174.883457 163.286016 
L 175.331958 166.345946 
L 176.15421 168.418801 
L 177.948216 174.834783 
L 178.247217 178.388249 
L 177.125963 181.843008 
L 173.014701 188.258989 
L 168.529687 192.898237 
L 165.016426 195.0698 
L 162.474918 197.636193 
L 161.054664 200.4 
L 160.755663 202.867685 
L 160.905163 211.652644 
L 158.961657 215.99577 
L 156.4949 219.055699 
L 151.337134 223.300118 
L 147.898623 226.557462 
L 145.805617 229.123854 
L 143.114608 233.269565 
L 139.078096 237.810106 
L 135.116333 240.968743 
L 129.809067 244.522209 
L 127.790811 246.989894 
L 125.772555 250.345946 
L 121.362291 258.439953 
L 118.895533 261.99342 
L 116.653026 263.86886 
L 115.382272 264.164982 
L 112.840765 262.388249 
L 116.653026 255.182609 
L 120.689539 248.569213 
L 122.408794 245.114454 
L 120.98854 242.844183 
L 115.756024 239.784254 
L 113.962018 238.204935 
L 110.149756 235.73725 
L 105.365741 233.565687 
L 102.001981 231.098002 
L 99.460473 230.407051 
L 94.153207 227.544536 
L 91.761199 225.965217 
L 88.84594 224.780729 
L 85.033678 222.510458 
L 81.968919 221.227262 
L 80.623415 219.845358 
L 81.894169 218.26604 
L 83.912425 214.416451 
L 86.827684 209.777203 
L 87.948937 206.914689 
L 91.536949 199.807756 
L 95.722962 192.996945 
L 94.900709 192.79953 
L 96.993715 187.074501 
L 93.704705 184.508108 
L 90.116694 183.027497 
L 86.827684 180.658519 
L 84.659927 182.13913 
L 83.015422 185.692597 
L 79.05366 192.305993 
L 75.91415 200.4 
L 75.091898 203.558637 
L 74.643396 207.112103 
L 76.287901 209.974618 
L 78.231407 209.777203 
L 81.221417 211.652644 
L 81.296167 214.811281 
L 83.164923 219.647944 
L 83.314423 221.918214 
L 83.314423 221.918214 
" clip-path="url(#p3d3099185e)" style="fill: none; stroke: #000000; stroke-width: 3"/>
   </g>
  </g>
 </g>
 <defs>
  <clipPath id="p3d3099185e">
   <rect x="7.2" y="7.2" width="286.555012" height="554.4"/>
  </clipPath>
 </defs>
</svg>
