<?xml version="1.0" encoding="utf-8" standalone="no"?>
<!DOCTYPE svg PUBLIC "-//W3C//DTD SVG 1.1//EN"
  "http://www.w3.org/Graphics/SVG/1.1/DTD/svg11.dtd">
<svg xmlns:xlink="http://www.w3.org/1999/xlink" width="185.087551pt" height="568.8pt" viewBox="0 0 185.087551 568.8" xmlns="http://www.w3.org/2000/svg" version="1.1">
 <metadata>
  <rdf:RDF xmlns:dc="http://purl.org/dc/elements/1.1/" xmlns:cc="http://creativecommons.org/ns#" xmlns:rdf="http://www.w3.org/1999/02/22-rdf-syntax-ns#">
   <cc:Work>
    <dc:type rdf:resource="http://purl.org/dc/dcmitype/StillImage"/>
    <dc:date>2023-09-25T14:14:18.286612</dc:date>
    <dc:format>image/svg+xml</dc:format>
    <dc:creator>
     <cc:Agent>
      <dc:title>Matplotlib v3.6.2, https://matplotlib.org/</dc:title>
     </cc:Agent>
    </dc:creator>
   </cc:Work>
  </rdf:RDF>
 </metadata>
 <defs>
  <style type="text/css">*{stroke-linejoin: round; stroke-linecap: butt}</style>
 </defs>
 <g id="figure_1">
  <g id="patch_1">
   <path d="M 0 568.8 
L 185.087551 568.8 
L 185.087551 0 
L 0 0 
z
" style="fill: #ffffff"/>
  </g>
  <g id="axes_1">
   <g id="LineCollection_1">
    <path d="M 144.522944 33.023184 
L 146.056949 32.4 
L 154.906977 38.476043 
L 160.924997 40.034003 
L 168.831022 45.019474 
L 170.129026 47.044822 
L 167.415018 55.925193 
L 165.527011 57.483153 
L 159.508992 68.233076 
L 155.73298 75.867079 
L 133.902909 115.595054 
L 126.586886 126.500773 
L 122.456872 135.53694 
L 113.724844 152.20711 
L 113.488843 158.750541 
L 113.960845 163.736012 
L 113.724844 174.485935 
L 112.190839 185.235858 
L 112.662841 193.025657 
L 112.30884 197.076352 
L 114.432846 205.800927 
L 118.208859 209.851623 
L 117.854857 213.123338 
L 113.960845 220.134158 
L 112.898841 223.873261 
L 113.724844 228.079753 
L 116.910854 231.974652 
L 119.506863 231.818856 
L 120.214865 234.155796 
L 119.388862 239.297063 
L 117.500856 244.749923 
L 116.674854 253.474498 
L 115.61285 257.369397 
L 114.904848 263.912828 
L 113.016842 268.742504 
L 109.47683 273.572179 
L 106.998822 291.177125 
L 103.694812 305.35456 
L 98.384795 315.481298 
L 95.670786 318.285626 
L 93.546779 325.452241 
L 90.006767 333.553632 
L 85.522753 341.810819 
L 84.46075 348.510046 
L 85.876754 351.158578 
L 88.118761 350.379598 
L 88.118761 352.716538 
L 84.814751 358.325193 
L 81.62874 367.672952 
L 73.250713 385.901082 
L 69.356701 395.093045 
L 65.108687 402.103864 
L 63.692682 407.245131 
L 61.450675 411.295827 
L 54.724654 416.904482 
L 52.128645 420.176198 
L 48.352633 423.447913 
L 46.818628 427.187017 
L 45.166623 434.82102 
L 43.160616 440.429675 
L 37.968599 450.089026 
L 29.590572 463.643277 
L 27.466565 469.251932 
L 26.758563 472.991036 
L 24.634556 474.704791 
L 14.958525 488.882226 
L 16.49253 492.465533 
L 29.236571 497.606801 
L 33.012583 498.229985 
L 37.260597 501.5017 
L 45.874625 505.552396 
L 54.724654 511.005255 
L 59.79867 515.83493 
L 63.102681 517.237094 
L 67.704695 521.755178 
L 72.542711 524.403709 
L 77.262726 532.816692 
L 82.454743 530.635549 
L 82.100742 534.06306 
L 75.25672 536.4 
L 71.362707 535.309428 
L 66.288691 531.726121 
L 63.692682 528.610201 
L 64.046684 527.519629 
" clip-path="url(#pa6d882d5f7)" style="fill: none; stroke: #000000; stroke-width: 3"/>
   </g>
  </g>
 </g>
 <defs>
  <clipPath id="pa6d882d5f7">
   <rect x="7.2" y="7.2" width="170.687551" height="554.4"/>
  </clipPath>
 </defs>
</svg>
