<?xml version="1.0" encoding="utf-8" standalone="no"?>
<!DOCTYPE svg PUBLIC "-//W3C//DTD SVG 1.1//EN"
  "http://www.w3.org/Graphics/SVG/1.1/DTD/svg11.dtd">
<svg xmlns:xlink="http://www.w3.org/1999/xlink" width="181.922106pt" height="568.8pt" viewBox="0 0 181.922106 568.8" xmlns="http://www.w3.org/2000/svg" version="1.1">
 <metadata>
  <rdf:RDF xmlns:dc="http://purl.org/dc/elements/1.1/" xmlns:cc="http://creativecommons.org/ns#" xmlns:rdf="http://www.w3.org/1999/02/22-rdf-syntax-ns#">
   <cc:Work>
    <dc:type rdf:resource="http://purl.org/dc/dcmitype/StillImage"/>
    <dc:date>2023-09-25T14:14:18.166317</dc:date>
    <dc:format>image/svg+xml</dc:format>
    <dc:creator>
     <cc:Agent>
      <dc:title>Matplotlib v3.6.2, https://matplotlib.org/</dc:title>
     </cc:Agent>
    </dc:creator>
   </cc:Work>
  </rdf:RDF>
 </metadata>
 <defs>
  <style type="text/css">*{stroke-linejoin: round; stroke-linecap: butt}</style>
 </defs>
 <g id="figure_1">
  <g id="patch_1">
   <path d="M 0 568.8 
L 181.922106 568.8 
L 181.922106 0 
L 0 0 
z
" style="fill: #ffffff"/>
  </g>
  <g id="axes_1">
   <g id="LineCollection_1">
    <path d="M 141.705727 32.4 
L 147.585759 33.95268 
L 159.933826 40.784473 
L 164.637851 44.355638 
L 167.107465 48.08207 
L 161.109832 61.43512 
L 157.934615 66.403697 
L 145.704149 89.383364 
L 139.706516 99.631054 
L 136.413699 106.307579 
L 127.35845 121.834381 
L 119.126405 138.448059 
L 113.716776 147.298336 
L 111.011961 153.664325 
L 110.894361 158.943438 
L 111.952766 175.401848 
L 111.364763 179.749353 
L 111.599964 188.289094 
L 110.894361 203.660628 
L 113.363974 208.629205 
L 113.599175 213.75305 
L 111.599964 221.671719 
L 109.718354 225.398152 
L 109.835955 228.037708 
L 111.952766 229.900924 
L 119.244006 233.627357 
L 118.891204 235.645841 
L 120.06721 240.614418 
L 122.066421 253.191128 
L 123.830431 258.159704 
L 125.124038 259.712384 
L 133.473683 263.904621 
L 135.590494 264.370425 
L 134.649689 268.252126 
L 135.120092 270.581146 
L 132.768079 274.462847 
L 134.532088 269.339002 
L 131.592073 274.773383 
L 124.771236 285.642144 
L 124.888836 287.350092 
L 122.301622 291.852865 
L 122.301622 289.368577 
L 119.008805 295.579298 
L 113.599175 309.398152 
L 111.599964 312.192976 
L 108.189546 319.490573 
L 106.307936 320.422181 
L 103.36792 325.546026 
L 98.781495 334.862107 
L 95.371077 339.36488 
L 92.548661 344.954529 
L 93.019064 349.146765 
L 83.846214 359.860259 
L 81.1414 364.828835 
L 80.082994 369.021072 
L 73.85016 379.42403 
L 70.322141 386.721627 
L 69.028534 390.448059 
L 67.499726 398.677264 
L 64.55971 402.403697 
L 61.854895 407.527542 
L 59.03248 409.856562 
L 53.622851 416.377819 
L 49.859631 424.296488 
L 46.449212 426.780776 
L 48.683624 426.780776 
L 39.275573 441.37597 
L 37.746765 444.791867 
L 42.097989 438.891682 
L 40.098778 443.239187 
L 35.512353 450.381516 
L 30.573126 460.473937 
L 21.165076 472.895379 
L 14.814641 486.248429 
L 17.401855 490.130129 
L 33.748344 499.601479 
L 41.862787 502.706839 
L 46.09641 506.122736 
L 65.147713 516.525693 
L 76.437374 523.82329 
L 82.787809 526.928651 
L 83.258211 528.015527 
L 80.788598 532.518299 
L 79.965393 536.4 
L 75.378969 528.481331 
L 74.202962 525.531238 
L 70.204541 521.649538 
L 65.970918 519.786322 
L 61.737295 523.668022 
L 63.148502 526.152311 
" clip-path="url(#p1f70411f8d)" style="fill: none; stroke: #000000; stroke-width: 3"/>
   </g>
  </g>
 </g>
 <defs>
  <clipPath id="p1f70411f8d">
   <rect x="7.2" y="7.2" width="167.522106" height="554.4"/>
  </clipPath>
 </defs>
</svg>
