<?xml version="1.0" encoding="utf-8" standalone="no"?>
<!DOCTYPE svg PUBLIC "-//W3C//DTD SVG 1.1//EN"
  "http://www.w3.org/Graphics/SVG/1.1/DTD/svg11.dtd">
<svg xmlns:xlink="http://www.w3.org/1999/xlink" width="302.374181pt" height="568.8pt" viewBox="0 0 302.374181 568.8" xmlns="http://www.w3.org/2000/svg" version="1.1">
 <metadata>
  <rdf:RDF xmlns:dc="http://purl.org/dc/elements/1.1/" xmlns:cc="http://creativecommons.org/ns#" xmlns:rdf="http://www.w3.org/1999/02/22-rdf-syntax-ns#">
   <cc:Work>
    <dc:type rdf:resource="http://purl.org/dc/dcmitype/StillImage"/>
    <dc:date>2023-09-25T14:14:18.114809</dc:date>
    <dc:format>image/svg+xml</dc:format>
    <dc:creator>
     <cc:Agent>
      <dc:title>Matplotlib v3.6.2, https://matplotlib.org/</dc:title>
     </cc:Agent>
    </dc:creator>
   </cc:Work>
  </rdf:RDF>
 </metadata>
 <defs>
  <style type="text/css">*{stroke-linejoin: round; stroke-linecap: butt}</style>
 </defs>
 <g id="figure_1">
  <g id="patch_1">
   <path d="M -0 568.8 
L 302.374181 568.8 
L 302.374181 0 
L -0 0 
z
" style="fill: #ffffff"/>
  </g>
  <g id="axes_1">
   <g id="LineCollection_1">
    <path d="M 35.004017 536.4 
L 35.078709 535.610959 
L 33.062031 534.328767 
L 28.505832 532.454795 
L 25.816928 532.158904 
L 21.559496 532.849315 
L 20.289735 532.652055 
L 21.708879 529.693151 
L 23.501482 528.90411 
L 25.592852 522.29589 
L 28.132373 519.534247 
L 31.34412 511.150685 
L 33.211414 507.89589 
L 35.452168 505.627397 
L 37.020696 504.838356 
L 36.199086 503.852055 
L 38.962682 500.20274 
L 39.933675 496.356164 
L 41.80097 492.805479 
L 42.622579 490.043836 
L 44.489874 485.80274 
L 48.000388 479.687671 
L 51.884361 473.868493 
L 53.901039 469.331507 
L 56.589943 464.30137 
L 59.726998 460.060274 
L 62.415903 455.030137 
L 64.955423 449.605479 
L 67.420252 445.660274 
L 69.138163 441.813699 
L 72.872753 435.89589 
L 75.785732 432.147945 
L 78.250561 426.230137 
L 81.238233 421.10137 
L 82.433301 419.917808 
L 84.375288 415.578082 
L 89.603713 405.123288 
L 91.471007 402.460274 
L 94.832138 396.345205 
L 97.296967 392.59726 
L 98.641419 388.553425 
L 102.226625 383.917808 
L 105.438371 380.465753 
L 104.467378 379.972603 
L 106.110598 377.506849 
L 107.081591 374.153425 
L 109.098269 371.09589 
L 110.368029 368.038356 
L 112.235324 365.375342 
L 111.787173 363.40274 
L 110.143954 361.134247 
L 106.558748 358.865753 
L 105.737139 357.682192 
L 105.587755 353.736986 
L 107.230974 351.271233 
L 111.339023 347.523288 
L 115.671146 337.167123 
L 118.135975 332.728767 
L 120.152653 329.967123 
L 124.036626 325.627397 
L 127.024298 324.443836 
L 128.966284 324.246575 
L 132.103339 324.739726 
L 136.958305 327.40274 
L 140.09536 327.89589 
L 142.560189 327.50137 
L 145.846628 325.430137 
L 147.340463 323.950685 
L 149.207758 320.893151 
L 151.821971 315.468493 
L 155.257793 312.016438 
L 160.560909 308.268493 
L 163.473889 305.013699 
L 166.01341 298.70137 
L 166.760328 294.953425 
L 166.461561 292.586301 
L 164.594266 288.739726 
L 163.92204 286.273973 
L 164.370191 282.131507 
L 167.357862 277.29863 
L 171.689986 273.452055 
L 175.424575 271.183562 
L 177.515945 269.013699 
L 178.337555 266.646575 
L 178.038787 262.306849 
L 179.308548 258.361644 
L 182.445603 247.216438 
L 185.507966 240.805479 
L 188.19687 237.156164 
L 193.574679 231.534247 
L 195.815432 227.884932 
L 199.848789 218.317808 
L 202.463001 214.175342 
L 206.795125 210.723288 
L 212.397009 208.947945 
L 215.235297 208.849315 
L 219.940879 209.736986 
L 223.451393 209.441096 
L 225.542763 208.652055 
L 227.708825 206.778082 
L 233.011942 197.605479 
L 237.11999 189.912329 
L 242.647182 180.641096 
L 243.543484 178.569863 
L 249.444135 168.608219 
L 253.402799 161.210959 
L 254.747252 157.068493 
L 254.67256 149.473973 
L 255.718245 143.161644 
L 255.344786 138.328767 
L 252.506498 133.594521 
L 251.908964 132.016438 
L 252.58119 127.873973 
L 254.67256 122.942466 
L 256.913313 118.89863 
L 261.39482 113.276712 
L 267.743622 106.865753 
L 269.685609 103.808219 
L 270.133759 101.441096 
L 269.610917 95.621918 
L 270.357835 89.210959 
L 271.40352 84.279452 
L 272.747972 81.123288 
L 276.034411 77.671233 
L 280.889377 74.613699 
L 282.084445 72.739726 
L 281.785678 69.682192 
L 280.665301 68.30137 
L 278.424548 67.315068 
L 276.706637 67.315068 
L 273.49489 68.69589 
L 269.984376 71.358904 
L 267.22078 71.556164 
L 265.577561 70.767123 
L 264.382492 68.4 
L 264.531876 66.821918 
L 266.100403 63.961644 
L 270.208451 58.931507 
L 272.225129 55.479452 
L 274.540575 49.758904 
L 274.914034 46.50411 
L 274.465883 44.432877 
L 271.552903 40.783562 
L 268.191773 38.021918 
L 265.428177 36.246575 
L 261.469512 34.865753 
L 248.921292 32.4 
L 246.456463 33.386301 
L 244.141018 35.753425 
L 242.945949 39.89589 
L 243.692867 42.657534 
L 245.709545 44.630137 
L 250.713895 46.89863 
L 252.357114 47.194521 
L 253.776258 48.871233 
L 254.747252 55.380822 
L 256.017012 60.115068 
L 256.166395 64.060274 
L 254.448484 67.709589 
L 250.713895 70.767123 
L 247.57684 72.542466 
L 242.647182 74.515068 
L 239.958278 76.882192 
L 238.539134 79.150685 
L 237.269374 82.89863 
L 234.655161 85.561644 
L 227.48475 88.421918 
L 223.526085 90.986301 
L 221.061256 93.550685 
L 218.895194 96.608219 
L 217.177283 100.257534 
L 213.816153 109.035616 
L 212.098242 111.994521 
L 209.782796 114.854795 
L 203.882145 118.8 
L 201.865467 121.463014 
L 200.819782 126 
L 201.193241 130.734247 
L 200.595707 133.890411 
L 199.400638 135.961644 
L 196.56235 138.230137 
L 189.616014 141.287671 
L 185.283891 144.049315 
L 182.445603 147.008219 
L 179.607315 150.657534 
L 176.320876 156.378082 
L 175.64865 160.421918 
L 176.47026 166.438356 
L 179.159164 175.117808 
L 178.636322 180.147945 
L 176.843719 183.69863 
L 173.856047 188.630137 
L 168.92639 193.167123 
L 164.967725 195.731507 
L 163.175122 198 
L 162.278821 200.071233 
L 161.755978 203.227397 
L 162.278821 210.230137 
L 161.531903 213.484932 
L 158.469539 218.712329 
L 152.344813 223.347945 
L 147.639231 227.786301 
L 144.576867 232.027397 
L 142.933648 234.887671 
L 140.767586 237.156164 
L 130.982962 244.356164 
L 128.966284 246.328767 
L 126.949606 250.865753 
L 120.600804 261.813699 
L 117.837208 263.786301 
L 115.895221 264.082192 
L 113.803851 262.50411 
L 113.953235 260.630137 
L 119.405735 251.556164 
L 119.331044 248.794521 
L 110.442721 244.060274 
L 104.317995 240.410959 
L 99.53772 237.945205 
L 100.434022 235.380822 
L 102.525392 232.915068 
L 102.824159 231.830137 
L 97.44635 228.378082 
L 86.317274 222.164384 
L 85.869124 221.769863 
L 85.869124 221.769863 
" clip-path="url(#pcbd79199b3)" style="fill: none; stroke: #000000; stroke-width: 3"/>
   </g>
  </g>
 </g>
 <defs>
  <clipPath id="pcbd79199b3">
   <rect x="7.2" y="7.2" width="287.974181" height="554.4"/>
  </clipPath>
 </defs>
</svg>
