<?xml version="1.0" encoding="utf-8" standalone="no"?>
<!DOCTYPE svg PUBLIC "-//W3C//DTD SVG 1.1//EN"
  "http://www.w3.org/Graphics/SVG/1.1/DTD/svg11.dtd">
<svg xmlns:xlink="http://www.w3.org/1999/xlink" width="183.325505pt" height="568.8pt" viewBox="0 0 183.325505 568.8" xmlns="http://www.w3.org/2000/svg" version="1.1">
 <metadata>
  <rdf:RDF xmlns:dc="http://purl.org/dc/elements/1.1/" xmlns:cc="http://creativecommons.org/ns#" xmlns:rdf="http://www.w3.org/1999/02/22-rdf-syntax-ns#">
   <cc:Work>
    <dc:type rdf:resource="http://purl.org/dc/dcmitype/StillImage"/>
    <dc:date>2023-09-25T14:14:18.050344</dc:date>
    <dc:format>image/svg+xml</dc:format>
    <dc:creator>
     <cc:Agent>
      <dc:title>Matplotlib v3.6.2, https://matplotlib.org/</dc:title>
     </cc:Agent>
    </dc:creator>
   </cc:Work>
  </rdf:RDF>
 </metadata>
 <defs>
  <style type="text/css">*{stroke-linejoin: round; stroke-linecap: butt}</style>
 </defs>
 <g id="figure_1">
  <g id="patch_1">
   <path d="M 0 568.8 
L 183.325505 568.8 
L 183.325505 0 
L 0 0 
z
" style="fill: #ffffff"/>
  </g>
  <g id="axes_1">
   <g id="LineCollection_1">
    <path d="M 142.872033 32.4 
L 155.896359 39.903722 
L 160.75088 43.1866 
L 163.592551 44.124566 
L 168.447073 49.283375 
L 166.907834 55.067494 
L 164.658178 57.88139 
L 160.987686 65.541439 
L 158.146015 69.605955 
L 155.659553 74.764764 
L 151.278643 81.174194 
L 142.635227 98.057568 
L 138.135915 105.873945 
L 136.004661 108.687841 
L 132.689378 115.253598 
L 126.295619 126.509181 
L 120.849082 138.077419 
L 113.271293 151.365261 
L 111.96886 154.179156 
L 112.916084 159.494293 
L 113.034487 169.342928 
L 114.336919 172.000496 
L 113.981711 179.660546 
L 114.573725 181.067494 
L 111.850457 192.635732 
L 111.140039 197.481886 
L 112.916084 205.141935 
L 111.495248 214.677916 
L 108.890383 221.243672 
L 108.653577 224.057568 
L 111.140039 228.747395 
L 118.125814 233.437221 
L 116.34977 236.094789 
L 115.994561 242.035236 
L 113.626502 249.38263 
L 111.96886 260.012903 
L 111.850457 263.608437 
L 114.928934 266.109677 
L 114.455322 268.298263 
L 111.495248 273.457072 
L 108.416771 281.273449 
L 108.061563 288.933499 
L 105.5751 294.248635 
L 102.259817 304.878908 
L 101.5494 308.318114 
L 104.035862 313.633251 
L 104.035862 321.136973 
L 102.851832 330.672953 
L 99.891758 335.988089 
L 97.050087 343.179156 
L 94.090013 346.618362 
L 94.090013 350.057568 
L 87.933059 358.655583 
L 83.315344 366.940943 
L 80.35527 370.692804 
L 77.632001 381.010422 
L 74.198316 386.169231 
L 71.001436 394.141935 
L 68.39657 399.144417 
L 64.134064 410.712655 
L 58.805931 412.744913 
L 56.201065 414.620844 
L 51.938559 420.404963 
L 50.39932 426.032754 
L 46.847232 430.253598 
L 46.610426 435.099752 
L 40.098263 447.136973 
L 30.862832 459.643176 
L 28.139564 464.176675 
L 14.878432 491.22134 
L 17.364894 493.09727 
L 23.99546 496.536476 
L 26.126713 501.538958 
L 29.20519 503.414888 
L 37.138189 506.385112 
L 45.071187 508.730025 
L 56.437871 515.452109 
L 64.489273 519.047643 
L 70.409421 523.112159 
L 71.356645 524.988089 
L 76.566375 531.241191 
L 82.36812 531.084864 
L 80.236867 535.931017 
L 76.921584 536.4 
" clip-path="url(#p77cc061473)" style="fill: none; stroke: #000000; stroke-width: 3"/>
   </g>
  </g>
 </g>
 <defs>
  <clipPath id="p77cc061473">
   <rect x="7.2" y="7.2" width="168.925505" height="554.4"/>
  </clipPath>
 </defs>
</svg>
