<?xml version="1.0" encoding="utf-8" standalone="no"?>
<!DOCTYPE svg PUBLIC "-//W3C//DTD SVG 1.1//EN"
  "http://www.w3.org/Graphics/SVG/1.1/DTD/svg11.dtd">
<svg xmlns:xlink="http://www.w3.org/1999/xlink" width="299.830505pt" height="568.8pt" viewBox="0 0 299.830505 568.8" xmlns="http://www.w3.org/2000/svg" version="1.1">
 <metadata>
  <rdf:RDF xmlns:dc="http://purl.org/dc/elements/1.1/" xmlns:cc="http://creativecommons.org/ns#" xmlns:rdf="http://www.w3.org/1999/02/22-rdf-syntax-ns#">
   <cc:Work>
    <dc:type rdf:resource="http://purl.org/dc/dcmitype/StillImage"/>
    <dc:date>2023-09-25T14:14:17.769667</dc:date>
    <dc:format>image/svg+xml</dc:format>
    <dc:creator>
     <cc:Agent>
      <dc:title>Matplotlib v3.6.2, https://matplotlib.org/</dc:title>
     </cc:Agent>
    </dc:creator>
   </cc:Work>
  </rdf:RDF>
 </metadata>
 <defs>
  <style type="text/css">*{stroke-linejoin: round; stroke-linecap: butt}</style>
 </defs>
 <g id="figure_1">
  <g id="patch_1">
   <path d="M 0 568.8 
L 299.830505 568.8 
L 299.830505 0 
L 0 0 
z
" style="fill: #ffffff"/>
  </g>
  <g id="axes_1">
   <g id="LineCollection_1">
    <path d="M 31.683408 536.4 
L 30.861316 535.511807 
L 25.106669 532.551165 
L 20.24885 531.26822 
L 20.174114 528.603642 
L 21.220413 526.925945 
L 21.818299 521.596789 
L 24.060369 518.636146 
L 27.423475 513.405678 
L 29.441338 508.569963 
L 32.879179 502.648678 
L 37.811734 495.345761 
L 38.783298 492.28643 
L 44.313738 482.713687 
L 46.481073 477.779283 
L 49.395764 471.857999 
L 51.936777 467.614412 
L 55.598826 462.285256 
L 56.271447 460.804934 
L 56.495654 458.041668 
L 58.737724 455.081026 
L 61.57768 449.25843 
L 62.474508 449.850558 
L 66.435499 441.659448 
L 66.883913 440.080439 
L 69.424926 436.034228 
L 71.666997 431.198512 
L 74.357481 427.941805 
L 78.467943 420.5402 
L 80.411071 418.270374 
L 81.606842 415.40842 
L 82.952084 414.421539 
L 82.428934 413.237282 
L 86.090983 405.6383 
L 91.32248 398.927511 
L 96.105564 388.565263 
L 99.991819 382.742667 
L 101.486533 379.683337 
L 99.468669 378.400392 
L 99.692876 380.078089 
L 101.262326 377.808263 
L 102.308625 378.301704 
L 107.839065 370.209281 
L 109.632722 366.261758 
L 108.885365 362.314235 
L 104.47596 359.156217 
L 103.280189 357.379832 
L 103.055982 353.728373 
L 104.550695 351.359859 
L 106.867501 349.78085 
L 108.661158 347.7084 
L 111.351642 341.194987 
L 115.163162 333.102565 
L 118.077853 328.957666 
L 120.843073 326.095712 
L 124.804064 324.12195 
L 128.69032 324.418014 
L 131.007126 325.306207 
L 134.74391 327.773409 
L 138.331222 327.970785 
L 140.7975 327.082593 
L 143.637455 325.108831 
L 146.32794 321.259996 
L 148.271068 316.029528 
L 149.989988 313.562326 
L 151.708909 312.082005 
L 154.773072 310.30562 
L 158.808798 307.443666 
L 161.275076 304.186959 
L 163.816089 297.47617 
L 164.189767 295.305032 
L 163.591882 291.85095 
L 161.872961 288.199491 
L 161.424547 284.64672 
L 162.24664 280.995261 
L 165.833952 276.060858 
L 168.225494 273.88972 
L 171.513864 271.915958 
L 174.35382 269.646133 
L 175.474855 267.474995 
L 175.250648 262.145839 
L 179.510581 247.441316 
L 183.621044 239.052829 
L 185.788378 236.388251 
L 190.048312 232.243352 
L 191.916704 230.072215 
L 193.635625 227.012884 
L 195.653488 221.486352 
L 198.568179 215.95982 
L 202.304963 211.913609 
L 206.041747 210.038535 
L 210.226945 208.854278 
L 212.39428 208.854278 
L 218.074192 209.841159 
L 220.764676 209.643783 
L 223.97831 208.163462 
L 226.594059 204.906755 
L 228.537187 201.650049 
L 233.096063 192.669434 
L 237.879147 184.083572 
L 240.868574 179.05048 
L 245.352714 170.661993 
L 250.135798 162.372195 
L 252.078926 157.437791 
L 252.377868 153.588956 
L 252.228397 149.444057 
L 253.125225 143.621461 
L 253.199961 140.266066 
L 252.52734 137.700176 
L 249.986327 133.555277 
L 249.537913 130.298571 
L 250.061062 127.732681 
L 252.901018 122.008772 
L 254.76941 118.949442 
L 259.328286 112.929469 
L 264.933462 107.304249 
L 266.727119 104.738359 
L 267.623947 101.777717 
L 266.951326 97.830194 
L 266.87659 94.178735 
L 267.250268 91.316781 
L 268.744982 83.915175 
L 269.567074 81.842726 
L 272.556502 78.092579 
L 278.535356 74.539808 
L 279.656391 72.36867 
L 279.656391 70.592285 
L 277.713263 67.829019 
L 276.143814 67.236891 
L 273.45333 67.434267 
L 271.061788 68.618524 
L 268.296568 70.690973 
L 266.502912 71.283102 
L 263.214542 70.098845 
L 262.317714 68.618524 
L 262.616656 65.361817 
L 264.410313 62.697239 
L 268.446039 57.861523 
L 269.940753 55.098257 
L 272.108088 49.473037 
L 272.40703 45.920266 
L 270.538638 42.170119 
L 267.623947 39.406853 
L 264.335577 36.939651 
L 261.121943 35.261954 
L 255.367295 33.781633 
L 247.594785 32.4 
L 245.277979 32.498688 
L 243.633794 33.288193 
L 241.391724 36.840963 
L 241.092781 40.393734 
L 242.886437 43.847817 
L 244.231679 44.637321 
L 248.940027 45.920266 
L 251.331569 47.894028 
L 252.228397 49.670413 
L 252.452604 55.295633 
L 254.096789 60.920854 
L 254.096789 62.401175 
L 252.826282 65.855257 
L 251.182097 68.322459 
L 248.117935 70.987037 
L 245.203243 72.467359 
L 240.569631 74.145056 
L 238.551768 75.625377 
L 237.13179 77.697827 
L 235.487605 81.941414 
L 233.84342 84.408616 
L 231.451878 85.888937 
L 227.042473 87.467946 
L 221.810976 90.231212 
L 219.568905 92.303662 
L 216.504742 96.843313 
L 212.842694 104.442295 
L 211.049038 110.067515 
L 207.013311 115.297983 
L 201.707078 118.850754 
L 199.76395 121.317956 
L 198.568179 125.364167 
L 198.867122 130.792011 
L 198.493444 133.653965 
L 197.596616 135.529039 
L 195.27981 137.798864 
L 185.788378 142.042452 
L 181.154766 145.496534 
L 178.464282 148.555864 
L 174.802234 155.069277 
L 173.681198 159.608929 
L 173.905405 165.431525 
L 176.894833 175.201645 
L 176.371683 180.234737 
L 173.83067 184.6757 
L 170.915978 188.623223 
L 166.581309 192.86681 
L 162.396111 195.728764 
L 160.303512 198.393342 
L 159.406684 202.834306 
L 159.556155 210.729352 
L 158.734063 213.788682 
L 157.463556 215.861132 
L 153.128887 220.696847 
L 149.765781 223.460114 
L 145.356376 227.802389 
L 141.918535 232.638105 
L 137.359658 238.065949 
L 131.007126 242.408224 
L 127.868227 244.974114 
L 125.551421 248.132132 
L 119.049417 259.086509 
L 116.134726 262.639279 
L 114.640012 263.527472 
L 111.725321 262.540591 
L 111.874792 259.777325 
L 117.106289 251.882279 
L 121.739902 243.000352 
L 114.640012 239.54627 
L 104.700167 233.92105 
L 100.66444 232.144664 
L 100.589704 231.059095 
L 98.945519 230.565655 
L 95.582414 228.591893 
L 86.165718 223.854866 
L 79.73845 220.104719 
L 79.140565 220.203407 
L 76.823758 223.65749 
L 76.45008 226.71682 
L 76.45008 226.71682 
" clip-path="url(#pf38ca331a2)" style="fill: none; stroke: #000000; stroke-width: 3"/>
   </g>
  </g>
 </g>
 <defs>
  <clipPath id="pf38ca331a2">
   <rect x="7.2" y="7.2" width="285.430505" height="554.4"/>
  </clipPath>
 </defs>
</svg>
