<?xml version="1.0" encoding="utf-8" standalone="no"?>
<!DOCTYPE svg PUBLIC "-//W3C//DTD SVG 1.1//EN"
  "http://www.w3.org/Graphics/SVG/1.1/DTD/svg11.dtd">
<svg xmlns:xlink="http://www.w3.org/1999/xlink" width="300.712128pt" height="568.8pt" viewBox="0 0 300.712128 568.8" xmlns="http://www.w3.org/2000/svg" version="1.1">
 <metadata>
  <rdf:RDF xmlns:dc="http://purl.org/dc/elements/1.1/" xmlns:cc="http://creativecommons.org/ns#" xmlns:rdf="http://www.w3.org/1999/02/22-rdf-syntax-ns#">
   <cc:Work>
    <dc:type rdf:resource="http://purl.org/dc/dcmitype/StillImage"/>
    <dc:date>2023-09-25T14:14:17.438976</dc:date>
    <dc:format>image/svg+xml</dc:format>
    <dc:creator>
     <cc:Agent>
      <dc:title>Matplotlib v3.6.2, https://matplotlib.org/</dc:title>
     </cc:Agent>
    </dc:creator>
   </cc:Work>
  </rdf:RDF>
 </metadata>
 <defs>
  <style type="text/css">*{stroke-linejoin: round; stroke-linecap: butt}</style>
 </defs>
 <g id="figure_1">
  <g id="patch_1">
   <path d="M 0 568.8 
L 300.712128 568.8 
L 300.712128 0 
L 0 0 
z
" style="fill: #ffffff"/>
  </g>
  <g id="axes_1">
   <g id="LineCollection_1">
    <path d="M 32.330845 536.4 
L 31.807286 536.004938 
L 27.618812 536.004938 
L 24.926221 534.819753 
L 29.039901 535.511111 
L 23.430337 532.054321 
L 21.261306 531.165432 
L 20.214188 526.622222 
L 21.111718 526.918519 
L 24.402662 521.48642 
L 26.496899 517.338272 
L 28.366753 512.696296 
L 33.452758 502.622222 
L 36.145348 498.375309 
L 39.436292 491.659259 
L 41.00697 489.48642 
L 42.802031 485.930864 
L 47.663652 478.622222 
L 49.757889 474.671605 
L 49.982272 472.202469 
L 52.45048 468.745679 
L 54.021158 465.585185 
L 56.040601 463.609877 
L 58.35922 460.054321 
L 60.977017 454.22716 
L 62.248518 452.350617 
L 63.819196 447.807407 
L 66.287404 443.362963 
L 68.00767 439.31358 
L 70.251495 435.264198 
L 74.888735 428.350617 
L 76.23503 425.881481 
L 78.55365 422.819753 
L 79.974739 421.832099 
L 82.891712 417.980247 
L 85.35992 412.153086 
L 88.202099 409.091358 
L 90.221542 403.955556 
L 92.614956 400.103704 
L 95.606723 398.918519 
L 96.653842 393.48642 
L 99.271638 387.659259 
L 102.338199 383.609877 
L 101.440669 380.646914 
L 104.507231 376.893827 
L 107.199821 372.745679 
L 107.573792 370.079012 
L 108.994882 366.02963 
L 108.695705 364.350617 
L 107.125027 362.375309 
L 103.534906 359.609877 
L 102.786964 355.362963 
L 104.507231 352.301235 
L 107.34941 350.22716 
L 109.14447 347.85679 
L 111.46309 341.930864 
L 116.399506 332.646914 
L 119.092096 328.893827 
L 122.981394 325.239506 
L 125.000836 324.646914 
L 127.843015 324.548148 
L 130.012047 325.239506 
L 134.350109 328.202469 
L 137.790642 328.795062 
L 140.333644 328.202469 
L 143.250617 326.128395 
L 145.195266 324.054321 
L 147.364297 320.4 
L 148.635798 317.140741 
L 150.28127 314.77037 
L 152.824272 312.4 
L 157.162335 309.733333 
L 159.705337 307.362963 
L 161.051632 305.387654 
L 163.594634 299.461728 
L 164.41737 295.807407 
L 164.192988 293.239506 
L 162.397927 288.992593 
L 161.874368 284.350617 
L 162.771898 281.48642 
L 165.913254 277.140741 
L 169.204198 273.980247 
L 174.738967 270.02963 
L 175.86088 267.264198 
L 175.561703 263.116049 
L 176.010469 260.449383 
L 177.356764 257.288889 
L 179.525795 249.387654 
L 181.769621 244.153086 
L 184.611799 239.017284 
L 191.792041 231.214815 
L 194.110661 226.869136 
L 195.830927 222.325926 
L 199.196665 216.202469 
L 201.96405 213.041975 
L 205.329788 211.066667 
L 210.490586 209.387654 
L 212.061264 209.288889 
L 219.017123 210.276543 
L 222.756832 209.585185 
L 225.150246 207.609877 
L 228.216807 202.967901 
L 240.857024 180.745679 
L 246.616176 169.881481 
L 252.001357 160.103704 
L 252.749299 157.832099 
L 252.973682 152.992593 
L 252.824093 148.844444 
L 253.796418 142.720988 
L 253.796418 140.94321 
L 252.749299 137.585185 
L 250.355885 133.930864 
L 249.90712 131.560494 
L 250.355885 128.992593 
L 253.796418 121.782716 
L 255.741066 118.720988 
L 258.732834 114.967901 
L 266.436634 106.474074 
L 268.082106 102.819753 
L 267.483753 97.288889 
L 267.558547 95.017284 
L 269.353608 84.646914 
L 270.101549 82.57284 
L 273.916053 78.128395 
L 278.852469 75.264198 
L 280.497941 72.597531 
L 280.198764 70.02963 
L 278.328909 68.153086 
L 276.683437 67.560494 
L 274.140435 67.85679 
L 269.57799 70.918519 
L 267.184576 72.103704 
L 264.491986 71.511111 
L 263.14569 70.22716 
L 262.622131 66.967901 
L 263.893632 64.498765 
L 267.483753 60.350617 
L 270.325932 55.609877 
L 272.569757 50.869136 
L 273.018522 47.116049 
L 272.345375 44.153086 
L 270.99908 42.375309 
L 267.334165 38.918519 
L 263.14569 36.251852 
L 260.228717 35.165432 
L 252.150946 33.683951 
L 247.438912 32.4 
L 244.970704 33.387654 
L 243.10085 35.165432 
L 241.305789 39.412346 
L 241.380583 40.893827 
L 243.549615 44.548148 
L 250.131503 46.622222 
L 252.599711 48.992593 
L 253.272858 51.85679 
L 253.347653 55.906173 
L 254.319977 59.659259 
L 254.619154 64.202469 
L 253.871212 66.375309 
L 251.926563 69.140741 
L 249.981914 71.017284 
L 247.289324 72.301235 
L 241.604966 74.276543 
L 237.940051 77.930864 
L 235.77102 82.967901 
L 233.4524 85.634568 
L 224.402304 89.387654 
L 221.410537 91.461728 
L 218.41877 94.720988 
L 214.454678 102.325926 
L 211.08894 110.918519 
L 209.368674 113.782716 
L 206.302112 116.745679 
L 200.991725 120.004938 
L 199.346253 122.77037 
L 198.897488 126.622222 
L 199.346253 130.967901 
L 199.121871 133.338272 
L 197.775575 136.202469 
L 193.811484 139.066667 
L 187.603567 141.832099 
L 185.434535 143.116049 
L 180.722502 147.066667 
L 176.75841 152.795062 
L 174.738967 157.041975 
L 174.140614 162.177778 
L 174.738967 166.918519 
L 177.581146 176.795062 
L 177.356764 178.869136 
L 175.935674 182.622222 
L 171.074053 189.437037 
L 168.605845 192.004938 
L 162.697104 196.350617 
L 160.004514 200.893827 
L 159.854925 205.140741 
L 160.228896 209.48642 
L 159.854925 212.94321 
L 157.162335 217.683951 
L 155.591657 219.461728 
L 148.261827 225.782716 
L 144.896089 229.338272 
L 140.931997 234.967901 
L 136.818317 239.214815 
L 129.787664 244.251852 
L 126.122749 248.301235 
L 121.410716 257.288889 
L 118.718125 261.140741 
L 115.875946 263.807407 
L 114.828828 264.103704 
L 112.435414 263.214815 
L 111.986649 262.424691 
L 112.809385 260.449383 
L 120.363597 247.31358 
L 122.233452 243.461728 
L 116.025535 239.807407 
L 114.679239 239.412346 
L 105.03079 234.276543 
L 100.842316 231.412346 
L 99.570815 231.116049 
L 94.48481 227.659259 
L 84.312802 222.720988 
L 84.312802 222.720988 
" clip-path="url(#p04fd62b55b)" style="fill: none; stroke: #000000; stroke-width: 3"/>
   </g>
  </g>
 </g>
 <defs>
  <clipPath id="p04fd62b55b">
   <rect x="7.2" y="7.2" width="286.312128" height="554.4"/>
  </clipPath>
 </defs>
</svg>
