<?xml version="1.0" encoding="utf-8" standalone="no"?>
<!DOCTYPE svg PUBLIC "-//W3C//DTD SVG 1.1//EN"
  "http://www.w3.org/Graphics/SVG/1.1/DTD/svg11.dtd">
<svg xmlns:xlink="http://www.w3.org/1999/xlink" width="300.446128pt" height="568.8pt" viewBox="0 0 300.446128 568.8" xmlns="http://www.w3.org/2000/svg" version="1.1">
 <metadata>
  <rdf:RDF xmlns:dc="http://purl.org/dc/elements/1.1/" xmlns:cc="http://creativecommons.org/ns#" xmlns:rdf="http://www.w3.org/1999/02/22-rdf-syntax-ns#">
   <cc:Work>
    <dc:type rdf:resource="http://purl.org/dc/dcmitype/StillImage"/>
    <dc:date>2023-09-25T14:14:17.329276</dc:date>
    <dc:format>image/svg+xml</dc:format>
    <dc:creator>
     <cc:Agent>
      <dc:title>Matplotlib v3.6.2, https://matplotlib.org/</dc:title>
     </cc:Agent>
    </dc:creator>
   </cc:Work>
  </rdf:RDF>
 </metadata>
 <defs>
  <style type="text/css">*{stroke-linejoin: round; stroke-linecap: butt}</style>
 </defs>
 <g id="figure_1">
  <g id="patch_1">
   <path d="M 0 568.8 
L 300.446128 568.8 
L 300.446128 0 
L 0 0 
z
" style="fill: #ffffff"/>
  </g>
  <g id="axes_1">
   <g id="LineCollection_1">
    <path d="M 32.035802 536.4 
L 28.440752 535.905495 
L 25.220187 533.630769 
L 22.074518 532.246154 
L 20.426787 530.367033 
L 20.202097 529.081319 
L 20.801272 525.718681 
L 24.321425 521.465934 
L 29.414412 513.158242 
L 30.313174 510.586813 
L 33.009462 506.72967 
L 34.657193 502.971429 
L 35.780646 501.685714 
L 38.327139 495.454945 
L 40.94853 491.4 
L 42.671158 487.938462 
L 44.318889 485.96044 
L 47.689248 479.235165 
L 50.76002 472.50989 
L 53.231617 468.751648 
L 54.879348 465.29011 
L 56.302388 463.806593 
L 58.998676 459.356044 
L 61.620066 457.378022 
L 59.747644 456.784615 
L 64.316353 450.158242 
L 69.259547 442.641758 
L 70.682587 437.597802 
L 73.303978 435.421978 
L 75.026606 433.345055 
L 77.498203 428.894505 
L 78.99614 424.83956 
L 80.718768 423.553846 
L 83.415055 420.092308 
L 83.714643 417.817582 
L 86.261136 413.663736 
L 88.80763 405.553846 
L 93.226545 403.081319 
L 92.702267 401.004396 
L 96.372214 398.037363 
L 95.473451 397.740659 
L 92.028195 399.125275 
L 92.852061 396.751648 
L 95.248761 392.103297 
L 98.394429 387.751648 
L 98.019945 386.762637 
L 101.540098 382.015385 
L 104.985354 375.883516 
L 106.782879 373.707692 
L 110.228135 367.575824 
L 110.003444 364.312088 
L 108.655301 362.927473 
L 105.060251 360.652747 
L 103.562313 358.773626 
L 103.262726 354.817582 
L 103.936798 353.432967 
L 108.43061 349.674725 
L 109.62896 347.795604 
L 110.82731 344.531868 
L 115.62071 334.345055 
L 117.867616 330.883516 
L 121.013284 327.323077 
L 124.907922 325.443956 
L 128.353178 325.443956 
L 130.600084 326.235165 
L 135.46838 329.004396 
L 138.464255 329.103297 
L 140.486471 328.410989 
L 143.407449 326.531868 
L 144.905386 325.048352 
L 146.777808 322.18022 
L 148.275745 317.828571 
L 149.773683 315.356044 
L 151.870795 313.378022 
L 157.937441 309.61978 
L 160.259244 307.542857 
L 161.757182 304.971429 
L 164.004088 299.037363 
L 164.528366 293.993407 
L 161.981872 287.96044 
L 161.757182 284.795604 
L 163.180222 281.136264 
L 166.925066 276.389011 
L 169.321766 274.50989 
L 172.392537 272.72967 
L 175.313515 270.257143 
L 176.287175 267.784615 
L 175.987587 262.641758 
L 177.560421 257.795604 
L 179.882224 248.795604 
L 181.230368 245.531868 
L 183.851759 240.883516 
L 186.023768 238.015385 
L 190.592477 233.169231 
L 192.689589 230.301099 
L 195.53567 225.059341 
L 197.333195 220.50989 
L 200.478864 215.07033 
L 203.624532 212.498901 
L 206.245923 211.213187 
L 212.53726 209.828571 
L 216.506794 210.718681 
L 219.128185 210.916484 
L 222.573441 210.125275 
L 224.820347 208.542857 
L 226.842562 205.773626 
L 231.486168 198.059341 
L 233.882868 193.213187 
L 236.654052 188.564835 
L 239.275443 183.61978 
L 248.113273 167.894505 
L 252.157704 160.378022 
L 253.206261 155.531868 
L 252.831776 149.4 
L 253.880332 144.356044 
L 253.955229 140.597802 
L 253.206261 138.421978 
L 250.509973 133.971429 
L 250.060592 131.894505 
L 250.659767 129.026374 
L 252.831776 124.378022 
L 255.60296 119.531868 
L 259.272907 114.487912 
L 265.564244 107.861538 
L 267.960944 103.608791 
L 267.58646 95.597802 
L 269.683572 84.323077 
L 271.705788 80.564835 
L 274.926353 77.795604 
L 279.045681 75.125275 
L 280.244031 73.345055 
L 279.719753 69.784615 
L 278.072022 68.202198 
L 275.825115 67.707692 
L 272.230066 68.795604 
L 268.410325 71.762637 
L 266.837491 72.158242 
L 263.916513 71.268132 
L 262.867957 69.982418 
L 262.568369 66.916484 
L 263.317338 65.432967 
L 268.709913 59.202198 
L 270.732128 55.83956 
L 272.679447 50.795604 
L 273.053931 46.740659 
L 272.379859 44.268132 
L 270.507438 41.795604 
L 265.489347 37.740659 
L 261.519813 35.663736 
L 255.078682 33.982418 
L 251.034251 33.389011 
L 247.514098 32.4 
L 244.36843 33.784615 
L 241.821936 37.246154 
L 241.222761 40.312088 
L 241.97173 42.784615 
L 243.919049 44.861538 
L 249.012036 46.345055 
L 250.659767 47.136264 
L 252.681982 50.301099 
L 253.056467 56.334066 
L 254.404611 60.784615 
L 254.404611 63.751648 
L 253.730539 66.125275 
L 252.382395 68.301099 
L 248.637551 71.465934 
L 245.416986 73.048352 
L 239.949515 75.224176 
L 237.702608 77.696703 
L 235.605496 83.037363 
L 232.759415 86.202198 
L 225.045037 89.07033 
L 221.899369 91.246154 
L 218.379216 95.004396 
L 217.180866 97.081319 
L 213.885404 105.092308 
L 209.990766 113.301099 
L 207.069788 116.465934 
L 202.875564 118.740659 
L 200.029483 121.806593 
L 199.430308 123.092308 
L 198.90603 127.246154 
L 199.280514 131.696703 
L 199.055823 133.081319 
L 197.183402 137.136264 
L 193.962836 139.410989 
L 187.596602 142.081319 
L 183.627068 144.652747 
L 181.380162 146.72967 
L 177.11104 152.465934 
L 175.463309 155.72967 
L 174.040269 160.773626 
L 174.414753 166.905495 
L 177.036143 175.312088 
L 177.185937 178.18022 
L 176.736556 180.751648 
L 174.789237 184.806593 
L 172.09295 188.663736 
L 167.674035 193.312088 
L 162.730841 196.971429 
L 160.633729 200.136264 
L 159.88476 204.982418 
L 160.259244 210.817582 
L 159.734966 214.18022 
L 158.611513 216.454945 
L 156.364607 219.125275 
L 151.27162 223.378022 
L 147.152292 227.136264 
L 144.755592 229.806593 
L 141.385233 234.751648 
L 139.363018 237.224176 
L 132.322712 242.564835 
L 129.25194 245.136264 
L 126.63055 248.202198 
L 121.537562 257.103297 
L 119.515347 260.169231 
L 115.8454 264.61978 
L 114.871741 265.015385 
L 111.950763 263.235165 
L 112.25035 261.356044 
L 116.444575 254.828571 
L 119.290656 249.191209 
L 120.339212 243.850549 
L 119.814934 243.059341 
L 116.369678 241.476923 
L 111.126897 238.015385 
L 102.43886 233.367033 
L 101.165614 231.982418 
L 96.671801 230.103297 
L 89.182114 226.147253 
L 84.838096 223.575824 
L 83.190365 222.982418 
L 83.190365 222.982418 
" clip-path="url(#pf5d3a9b38b)" style="fill: none; stroke: #000000; stroke-width: 3"/>
   </g>
  </g>
 </g>
 <defs>
  <clipPath id="pf5d3a9b38b">
   <rect x="7.2" y="7.2" width="286.046128" height="554.4"/>
  </clipPath>
 </defs>
</svg>
