<?xml version="1.0" encoding="utf-8" standalone="no"?>
<!DOCTYPE svg PUBLIC "-//W3C//DTD SVG 1.1//EN"
  "http://www.w3.org/Graphics/SVG/1.1/DTD/svg11.dtd">
<svg xmlns:xlink="http://www.w3.org/1999/xlink" width="300.842943pt" height="568.8pt" viewBox="0 0 300.842943 568.8" xmlns="http://www.w3.org/2000/svg" version="1.1">
 <metadata>
  <rdf:RDF xmlns:dc="http://purl.org/dc/elements/1.1/" xmlns:cc="http://creativecommons.org/ns#" xmlns:rdf="http://www.w3.org/1999/02/22-rdf-syntax-ns#">
   <cc:Work>
    <dc:type rdf:resource="http://purl.org/dc/dcmitype/StillImage"/>
    <dc:date>2023-09-25T14:14:17.215857</dc:date>
    <dc:format>image/svg+xml</dc:format>
    <dc:creator>
     <cc:Agent>
      <dc:title>Matplotlib v3.6.2, https://matplotlib.org/</dc:title>
     </cc:Agent>
    </dc:creator>
   </cc:Work>
  </rdf:RDF>
 </metadata>
 <defs>
  <style type="text/css">*{stroke-linejoin: round; stroke-linecap: butt}</style>
 </defs>
 <g id="figure_1">
  <g id="patch_1">
   <path d="M 0 568.8 
L 300.842943 568.8 
L 300.842943 0 
L 0 0 
z
" style="fill: #ffffff"/>
  </g>
  <g id="axes_1">
   <g id="LineCollection_1">
    <path d="M 33.819355 536.4 
L 28.364722 532.946594 
L 25.301162 531.367894 
L 22.312322 530.479875 
L 20.220134 531.269225 
L 22.088159 526.039781 
L 23.6573 524.263743 
L 24.553952 522.093031 
L 27.019745 518.639624 
L 29.410816 513.015505 
L 34.118239 504.825998 
L 37.630126 498.116523 
L 40.618966 491.308379 
L 43.458364 486.276273 
L 44.205574 485.585591 
L 46.671367 479.172122 
L 49.211881 474.041347 
L 50.407417 472.659984 
L 51.677674 469.699922 
L 54.068746 465.753171 
L 59.747541 458.155677 
L 64.15608 449.966171 
L 65.202174 448.782146 
L 67.518525 444.342052 
L 68.041572 442.664683 
L 70.582086 437.533908 
L 71.927064 433.685826 
L 74.467578 429.936413 
L 77.008092 424.608301 
L 79.324443 421.352232 
L 80.295816 418.984182 
L 81.491351 417.701488 
L 86.198774 409.807987 
L 89.710661 402.703837 
L 93.446711 399.447768 
L 95.165294 397.079718 
L 95.389457 393.428974 
L 96.510272 391.652937 
L 98.004692 387.607518 
L 99.648554 385.04213 
L 100.769369 382.180736 
L 103.683488 378.628661 
L 106.971212 372.807204 
L 110.258935 364.913704 
L 109.063399 362.742991 
L 105.103187 359.190916 
L 103.758209 356.033516 
L 103.907651 354.652153 
L 105.626234 351.79076 
L 109.362283 348.732028 
L 110.184214 347.449334 
L 113.62138 339.555834 
L 116.909104 332.74769 
L 119.449618 329.195615 
L 122.363737 326.038215 
L 125.352577 324.656852 
L 129.088627 324.459514 
L 130.358884 324.85419 
L 135.888237 328.110258 
L 139.026519 328.307596 
L 140.969265 327.715583 
L 145.377804 324.558183 
L 147.096387 321.598121 
L 149.188575 316.566014 
L 152.700462 312.421926 
L 159.425352 307.981832 
L 162.488912 303.837745 
L 164.655821 298.410963 
L 165.253589 294.760219 
L 164.879984 292.490838 
L 162.862517 288.34675 
L 162.488912 286.76805 
L 162.862517 282.03195 
L 165.851357 277.493187 
L 170.409338 273.250431 
L 173.921225 271.178387 
L 175.639808 269.402349 
L 176.760623 265.554268 
L 176.53646 261.508849 
L 178.03088 257.660767 
L 179.600021 251.049961 
L 180.720836 247.497886 
L 183.560234 241.873767 
L 187.819331 235.953641 
L 190.80817 233.092247 
L 193.348684 229.638841 
L 195.141988 225.692091 
L 196.337524 222.041347 
L 198.429712 217.79859 
L 200.746063 214.345184 
L 202.539367 212.766484 
L 206.125975 210.990446 
L 211.804771 209.214409 
L 214.494727 209.11574 
L 217.78245 210.102428 
L 222.489873 209.609084 
L 224.806224 208.425059 
L 226.375365 206.945027 
L 227.869785 204.478309 
L 234.22107 192.736727 
L 239.45154 183.363195 
L 241.618449 179.81112 
L 244.158962 174.779013 
L 249.165269 166.490838 
L 253.125482 158.696006 
L 253.648529 155.735944 
L 253.424366 150.407831 
L 253.648529 147.151762 
L 254.694623 143.402349 
L 254.321018 139.455599 
L 252.751877 135.706186 
L 250.883852 132.450117 
L 251.108015 128.30603 
L 252.602435 124.556617 
L 257.085695 117.452467 
L 261.344792 112.42036 
L 266.948867 106.598904 
L 268.891613 103.342835 
L 269.115776 100.974785 
L 268.443287 95.646672 
L 268.443287 91.995928 
L 269.041055 87.753171 
L 270.087148 83.313078 
L 271.805731 80.649021 
L 273.599035 78.774315 
L 279.352552 74.926233 
L 280.622809 72.952858 
L 280.622809 70.387471 
L 279.800878 68.907439 
L 276.737317 67.526077 
L 273.22543 68.118089 
L 268.069682 71.472827 
L 266.201657 71.571496 
L 263.362259 69.499452 
L 262.913933 67.131402 
L 263.43698 65.65137 
L 268.966334 58.843226 
L 271.432126 54.797807 
L 273.599035 48.187001 
L 273.300151 45.226938 
L 269.937706 40.2935 
L 264.333632 36.149413 
L 260.44814 34.570713 
L 254.246297 33.584025 
L 248.716943 32.4 
L 246.475313 32.4 
L 244.532567 33.18935 
L 242.290938 36.248081 
L 241.767891 39.208144 
L 242.813984 42.858888 
L 243.934799 44.141582 
L 246.624755 45.522944 
L 250.809131 46.706969 
L 252.452993 48.384338 
L 253.499087 51.245732 
L 253.872692 56.771182 
L 255.21767 61.901958 
L 255.068228 64.270008 
L 254.246297 66.44072 
L 251.182736 69.499452 
L 246.923639 72.262177 
L 241.992054 74.038215 
L 240.422913 74.926233 
L 238.480167 77.096946 
L 236.686863 81.833046 
L 235.491327 84.003759 
L 233.324418 85.977134 
L 227.047854 88.049178 
L 222.714036 90.417228 
L 219.127428 94.659984 
L 217.558287 97.324041 
L 213.299191 107.190916 
L 212.701423 109.065623 
L 209.862025 113.604385 
L 206.424859 116.564448 
L 202.688809 118.932498 
L 200.372458 121.596554 
L 199.326364 125.444636 
L 200.148295 130.180736 
L 200.073574 132.548786 
L 197.831944 136.594205 
L 196.03864 138.074236 
L 186.25019 142.415662 
L 181.76693 146.263743 
L 180.048347 148.434456 
L 177.28367 153.071887 
L 175.340924 157.807987 
L 174.892598 160.866719 
L 175.266203 165.208144 
L 176.611181 170.536257 
L 177.956159 174.483007 
L 178.180322 176.851057 
L 177.731996 179.120439 
L 176.312297 182.17917 
L 173.54762 186.224589 
L 170.185175 190.467345 
L 168.018266 192.539389 
L 164.282216 195.104777 
L 161.816423 198.064839 
L 160.994493 200.136883 
L 160.546167 203.491621 
L 160.845051 209.017071 
L 160.620888 211.286453 
L 159.649515 214.443853 
L 155.091534 219.969303 
L 152.401578 222.041347 
L 147.694155 226.678778 
L 145.377804 229.342835 
L 141.118707 235.164291 
L 137.083773 238.913704 
L 131.255536 243.255129 
L 127.519486 246.807204 
L 126.099787 248.977917 
L 124.007599 253.220673 
L 120.34627 259.535474 
L 116.311336 263.580893 
L 113.173054 262.692874 
L 112.724728 261.903524 
L 115.937731 255.983399 
L 117.581593 253.615348 
L 120.420991 247.892561 
L 123.484552 242.465779 
L 119.897944 240.985748 
L 111.828076 236.249648 
L 101.516579 231.513547 
L 94.418084 227.468128 
L 89.710661 225.396085 
L 83.807702 221.942678 
L 83.807702 221.942678 
" clip-path="url(#p8794754519)" style="fill: none; stroke: #000000; stroke-width: 3"/>
   </g>
  </g>
 </g>
 <defs>
  <clipPath id="p8794754519">
   <rect x="7.2" y="7.2" width="286.442943" height="554.4"/>
  </clipPath>
 </defs>
</svg>
