<?xml version="1.0" encoding="utf-8" standalone="no"?>
<!DOCTYPE svg PUBLIC "-//W3C//DTD SVG 1.1//EN"
  "http://www.w3.org/Graphics/SVG/1.1/DTD/svg11.dtd">
<svg xmlns:xlink="http://www.w3.org/1999/xlink" width="183.531996pt" height="568.8pt" viewBox="0 0 183.531996 568.8" xmlns="http://www.w3.org/2000/svg" version="1.1">
 <metadata>
  <rdf:RDF xmlns:dc="http://purl.org/dc/elements/1.1/" xmlns:cc="http://creativecommons.org/ns#" xmlns:rdf="http://www.w3.org/1999/02/22-rdf-syntax-ns#">
   <cc:Work>
    <dc:type rdf:resource="http://purl.org/dc/dcmitype/StillImage"/>
    <dc:date>2023-09-25T14:14:17.047030</dc:date>
    <dc:format>image/svg+xml</dc:format>
    <dc:creator>
     <cc:Agent>
      <dc:title>Matplotlib v3.6.2, https://matplotlib.org/</dc:title>
     </cc:Agent>
    </dc:creator>
   </cc:Work>
  </rdf:RDF>
 </metadata>
 <defs>
  <style type="text/css">*{stroke-linejoin: round; stroke-linecap: butt}</style>
 </defs>
 <g id="figure_1">
  <g id="patch_1">
   <path d="M 0 568.8 
L 183.531996 568.8 
L 183.531996 0 
L 0 0 
z
" style="fill: #ffffff"/>
  </g>
  <g id="axes_1">
   <g id="LineCollection_1">
    <path d="M 142.407505 33.804334 
L 144.534803 32.4 
L 152.807628 39.733746 
L 161.198636 44.570898 
L 168.644178 46.911455 
L 167.107797 51.59257 
L 162.144102 60.018576 
L 156.707674 71.253251 
L 145.834818 89.977709 
L 135.198329 110.262539 
L 127.51642 122.589474 
L 124.91639 128.050774 
L 115.343549 145.370898 
L 112.507152 152.080495 
L 112.743519 160.506502 
L 112.270786 163.31517 
L 112.625335 171.897214 
L 109.434389 174.705882 
L 111.798053 184.380186 
L 111.088954 188.281115 
L 111.67987 194.366563 
L 113.334435 203.104644 
L 113.570801 214.651393 
L 113.216251 216.99195 
L 110.616221 222.297214 
L 111.443503 224.637771 
L 114.870816 227.914551 
L 119.361779 230.411146 
L 120.070878 235.404334 
L 119.125412 238.993189 
L 114.870816 246.170898 
L 114.398084 249.135604 
L 114.989 254.596904 
L 112.979885 260.370279 
L 112.625335 265.519505 
L 109.670755 269.732508 
L 109.670755 274.413622 
L 108.488923 285.804334 
L 104.116144 297.039009 
L 100.807014 302.656347 
L 97.497884 311.23839 
L 91.943273 320.912693 
L 91.352357 323.253251 
L 92.652372 326.842105 
L 98.206983 327.778328 
L 99.152449 330.899071 
L 97.616067 334.487926 
L 99.979732 336.048297 
L 103.997961 333.239628 
L 101.988846 329.806811 
L 100.097915 330.586997 
L 100.216098 327.778328 
L 97.261518 332.771517 
L 92.297823 343.226006 
L 82.25225 355.708978 
L 76.343089 364.447059 
L 71.852127 374.121362 
L 70.197562 381.455108 
L 68.070264 385.980186 
L 63.461119 400.491641 
L 61.215638 404.704644 
L 57.079225 407.045201 
L 49.515499 416.095356 
L 45.970003 422.804954 
L 45.379087 425.613622 
L 42.54269 432.479257 
L 36.633529 443.713932 
L 33.797132 449.955418 
L 31.197101 453.544272 
L 28.597071 460.097833 
L 24.106109 466.183282 
L 21.506078 473.204954 
L 20.560612 473.360991 
L 14.887818 484.751703 
L 16.187833 488.340557 
L 17.960582 490.056966 
L 28.833437 496.610526 
L 35.215331 499.263158 
L 43.133606 505.19257 
L 52.233713 510.029721 
L 58.970157 512.058204 
L 65.35205 516.271207 
L 72.797593 518.767802 
L 78.23402 521.576471 
L 84.85228 525.789474 
L 84.615914 528.598142 
L 80.361318 534.995666 
L 77.997654 536.4 
L 75.63399 535.463777 
L 68.188447 529.690402 
L 63.815668 527.349845 
L 61.806554 525.165325 
L 60.033805 525.633437 
" clip-path="url(#p0644da207a)" style="fill: none; stroke: #000000; stroke-width: 3"/>
   </g>
  </g>
 </g>
 <defs>
  <clipPath id="p0644da207a">
   <rect x="7.2" y="7.2" width="169.131996" height="554.4"/>
  </clipPath>
 </defs>
</svg>
