<?xml version="1.0" encoding="utf-8" standalone="no"?>
<!DOCTYPE svg PUBLIC "-//W3C//DTD SVG 1.1//EN"
  "http://www.w3.org/Graphics/SVG/1.1/DTD/svg11.dtd">
<svg xmlns:xlink="http://www.w3.org/1999/xlink" width="183.137293pt" height="568.8pt" viewBox="0 0 183.137293 568.8" xmlns="http://www.w3.org/2000/svg" version="1.1">
 <metadata>
  <rdf:RDF xmlns:dc="http://purl.org/dc/elements/1.1/" xmlns:cc="http://creativecommons.org/ns#" xmlns:rdf="http://www.w3.org/1999/02/22-rdf-syntax-ns#">
   <cc:Work>
    <dc:type rdf:resource="http://purl.org/dc/dcmitype/StillImage"/>
    <dc:date>2023-09-25T14:14:16.934752</dc:date>
    <dc:format>image/svg+xml</dc:format>
    <dc:creator>
     <cc:Agent>
      <dc:title>Matplotlib v3.6.2, https://matplotlib.org/</dc:title>
     </cc:Agent>
    </dc:creator>
   </cc:Work>
  </rdf:RDF>
 </metadata>
 <defs>
  <style type="text/css">*{stroke-linejoin: round; stroke-linecap: butt}</style>
 </defs>
 <g id="figure_1">
  <g id="patch_1">
   <path d="M 0 568.8 
L 183.137293 568.8 
L 183.137293 0 
L 0 0 
z
" style="fill: #ffffff"/>
  </g>
  <g id="axes_1">
   <g id="LineCollection_1">
    <path d="M 142.192184 32.4 
L 142.192184 33.330462 
L 147.59516 36.897231 
L 151.471208 38.137846 
L 155.582168 40.929231 
L 167.680136 46.822154 
L 168.267416 47.907692 
L 166.153208 53.490462 
L 161.337512 61.554462 
L 154.64252 73.650462 
L 152.058488 77.062154 
L 147.59516 84.660923 
L 141.957272 95.826462 
L 133.852808 109.628308 
L 130.916408 116.606769 
L 125.983255 126.841846 
L 122.694487 132.269538 
L 118.818439 137.542154 
L 116.469319 143.900308 
L 114.237655 147.312 
L 112.123447 147.156923 
L 113.180551 151.964308 
L 113.532919 157.702154 
L 113.298007 171.659077 
L 111.418711 177.707077 
L 110.948887 182.049231 
L 112.005991 187.632 
L 111.066343 192.904615 
L 112.005991 195.385846 
L 111.418711 201.123692 
L 112.123447 209.342769 
L 111.653623 216.321231 
L 109.187047 221.748923 
L 108.834679 224.385231 
L 110.479063 226.091077 
L 117.174055 229.812923 
L 120.227911 234.310154 
L 118.700983 237.411692 
L 119.170807 241.753846 
L 124.573783 243.149538 
L 127.745095 244.700308 
L 130.446584 244.08 
L 134.909912 244.545231 
L 140.665256 246.251077 
L 142.662008 249.042462 
L 138.78596 254.16 
L 137.376488 261.758769 
L 131.973512 271.528615 
L 129.272024 275.715692 
L 127.392727 277.266462 
L 122.929399 288.897231 
L 116.939143 296.806154 
L 112.123447 310.142769 
L 105.780823 320.067692 
L 95.444695 341.623385 
L 89.102071 350.772923 
L 84.168919 359.302154 
L 80.762694 367.366154 
L 72.540774 380.547692 
L 63.379206 399.312 
L 59.503158 404.584615 
L 51.51615 411.718154 
L 47.287734 417.300923 
L 45.525894 421.332923 
L 44.116422 426.760615 
L 40.94511 434.824615 
L 36.599237 444.439385 
L 32.723189 450.952615 
L 30.021701 453.588923 
L 26.732933 463.048615 
L 22.269605 469.406769 
L 20.272853 474.214154 
L 14.869877 483.828923 
L 16.514261 487.860923 
L 29.082053 496.855385 
L 38.948358 502.128 
L 44.703702 506.935385 
L 44.938614 505.229538 
L 50.811414 511.587692 
L 53.043078 513.138462 
L 57.271494 514.224 
L 68.312358 519.961846 
L 74.889894 522.908308 
L 77.121558 524.769231 
L 82.524534 527.250462 
L 77.591382 536.244923 
L 75.712086 536.4 
L 69.369462 533.918769 
L 59.972982 526.630154 
L 56.684214 524.924308 
L 60.677718 522.598154 
" clip-path="url(#pa4a3ab3091)" style="fill: none; stroke: #000000; stroke-width: 3"/>
   </g>
  </g>
 </g>
 <defs>
  <clipPath id="pa4a3ab3091">
   <rect x="7.2" y="7.2" width="168.737293" height="554.4"/>
  </clipPath>
 </defs>
</svg>
