<?xml version="1.0" encoding="utf-8" standalone="no"?>
<!DOCTYPE svg PUBLIC "-//W3C//DTD SVG 1.1//EN"
  "http://www.w3.org/Graphics/SVG/1.1/DTD/svg11.dtd">
<svg xmlns:xlink="http://www.w3.org/1999/xlink" width="301.530675pt" height="568.8pt" viewBox="0 0 301.530675 568.8" xmlns="http://www.w3.org/2000/svg" version="1.1">
 <metadata>
  <rdf:RDF xmlns:dc="http://purl.org/dc/elements/1.1/" xmlns:cc="http://creativecommons.org/ns#" xmlns:rdf="http://www.w3.org/1999/02/22-rdf-syntax-ns#">
   <cc:Work>
    <dc:type rdf:resource="http://purl.org/dc/dcmitype/StillImage"/>
    <dc:date>2023-09-25T14:14:16.675798</dc:date>
    <dc:format>image/svg+xml</dc:format>
    <dc:creator>
     <cc:Agent>
      <dc:title>Matplotlib v3.6.2, https://matplotlib.org/</dc:title>
     </cc:Agent>
    </dc:creator>
   </cc:Work>
  </rdf:RDF>
 </metadata>
 <defs>
  <style type="text/css">*{stroke-linejoin: round; stroke-linecap: butt}</style>
 </defs>
 <g id="figure_1">
  <g id="patch_1">
   <path d="M -0 568.8 
L 301.530675 568.8 
L 301.530675 0 
L -0 0 
z
" style="fill: #ffffff"/>
  </g>
  <g id="axes_1">
   <g id="LineCollection_1">
    <path d="M 33.70644 536.4 
L 33.033688 535.610341 
L 28.922424 534.721974 
L 26.754666 533.833608 
L 23.017154 530.971093 
L 20.251394 530.181434 
L 24.213158 522.877086 
L 26.081914 517.941716 
L 27.277918 516.658519 
L 29.296175 511.723149 
L 33.63169 504.912338 
L 35.201445 500.865335 
L 40.134962 493.363572 
L 41.256216 489.711398 
L 46.563484 481.123854 
L 47.460487 478.360047 
L 49.553494 474.016921 
L 52.618254 469.87121 
L 53.739508 467.107403 
L 57.701272 459.60564 
L 59.794279 456.545711 
L 65.400548 446.280141 
L 64.653045 446.477556 
L 66.372301 442.13443 
L 67.942056 441.147356 
L 69.586562 438.975793 
L 69.960313 437.495182 
L 72.277571 433.941716 
L 74.669579 431.177908 
L 75.342331 429.006345 
L 82.144605 416.075676 
L 83.78911 411.140306 
L 84.985114 408.771328 
L 87.900374 405.415276 
L 88.872127 403.243713 
L 91.338886 399.492832 
L 95.001648 392.385899 
L 100.009915 384.291892 
L 101.579671 381.33067 
L 105.989936 374.322444 
L 106.288937 372.644418 
L 109.876949 366.919389 
L 110.2507 365.438778 
L 109.054696 362.477556 
L 105.765685 360.108578 
L 104.42018 358.035723 
L 104.046429 355.962867 
L 104.42018 353.890012 
L 106.214186 351.619741 
L 109.054696 349.349471 
L 110.624451 347.079201 
L 112.717458 341.946416 
L 116.00647 334.93819 
L 117.576225 332.075676 
L 120.865236 328.12738 
L 123.107744 326.054524 
L 126.546255 324.573913 
L 129.087764 324.573913 
L 131.554522 325.264865 
L 136.338539 328.12738 
L 138.805297 328.522209 
L 141.122555 328.12738 
L 144.785317 325.659694 
L 146.654074 323.685546 
L 147.924828 321.217861 
L 149.494583 316.973443 
L 151.51284 314.110928 
L 159.062616 308.879436 
L 162.351627 305.227262 
L 163.921382 301.673796 
L 165.416387 297.034548 
L 165.341637 292.592714 
L 163.09913 287.558637 
L 162.949629 283.511633 
L 163.472881 282.031022 
L 166.761892 277.391774 
L 170.200404 274.13443 
L 174.760169 271.271915 
L 176.255174 269.495182 
L 177.077427 266.830082 
L 176.778426 261.697297 
L 178.497682 257.156757 
L 181.03919 247.779553 
L 183.356448 242.844183 
L 185.449455 239.290717 
L 187.916214 236.428202 
L 191.354725 233.269565 
L 195.316489 226.754877 
L 198.156999 219.944066 
L 201.819761 214.021622 
L 203.389516 212.639718 
L 207.052279 210.566863 
L 213.40605 209.086251 
L 219.535571 210.172033 
L 223.048833 209.875911 
L 225.515592 208.3953 
L 227.384348 206.421152 
L 232.243114 197.932315 
L 235.457375 191.516334 
L 242.85765 177.796005 
L 248.76292 168.023972 
L 253.621687 158.548061 
L 254.070188 153.513984 
L 253.920688 148.085076 
L 254.817691 143.347121 
L 254.59344 139.398825 
L 253.322686 136.437603 
L 251.154929 133.180259 
L 251.45393 128.343596 
L 254.36919 122.223737 
L 256.163196 119.163807 
L 261.769465 111.859459 
L 266.702981 106.924089 
L 268.571738 103.46933 
L 268.795989 100.606816 
L 268.422237 95.079201 
L 268.870739 90.93349 
L 270.515244 82.839483 
L 272.384001 80.075676 
L 274.402258 78.39765 
L 279.784276 74.942891 
L 281.204531 72.573913 
L 281.279281 71.093302 
L 280.232777 69.020447 
L 277.467018 67.73725 
L 275.07501 67.934665 
L 272.907252 68.921739 
L 268.945489 71.685546 
L 267.375734 71.882961 
L 264.983726 70.895887 
L 263.638221 68.823032 
L 264.310973 64.973443 
L 270.066743 58.162632 
L 271.636498 55.398825 
L 274.028506 49.180259 
L 274.178007 46.317744 
L 273.056753 43.652644 
L 268.347487 38.717274 
L 266.17973 37.33537 
L 261.769465 35.262515 
L 256.387446 33.979318 
L 252.724684 33.387074 
L 249.510423 32.4 
L 247.043665 32.4 
L 243.455652 35.459929 
L 242.334399 39.704348 
L 243.081901 43.257814 
L 244.950658 44.93584 
L 248.61342 45.824207 
L 251.752931 47.107403 
L 253.771187 49.87121 
L 253.920688 55.300118 
L 255.639944 61.716099 
L 255.490443 64.282491 
L 254.668191 66.651469 
L 251.45393 70.698472 
L 247.791167 72.376498 
L 242.7829 74.153231 
L 239.86764 76.226087 
L 238.821137 77.607991 
L 237.101881 82.148531 
L 234.859373 85.307168 
L 233.663369 86.096827 
L 227.533848 88.26839 
L 222.824582 91.130905 
L 220.357824 93.499882 
L 217.367814 98.13913 
L 215.125306 102.679671 
L 212.658548 108.996945 
L 210.042289 113.833608 
L 208.098782 115.807756 
L 203.464267 118.67027 
L 201.59551 120.545711 
L 200.324756 123.803055 
L 200.100505 126.468155 
L 200.549007 131.502233 
L 199.353003 135.055699 
L 197.932748 137.227262 
L 194.793237 139.003995 
L 188.215215 141.86651 
L 183.206948 145.617391 
L 179.170434 150.256639 
L 177.451178 152.921739 
L 175.657172 156.67262 
L 174.834919 160.818331 
L 175.582422 166.839483 
L 177.525929 172.564512 
L 178.273431 177.99342 
L 177.077427 182.040423 
L 173.190414 188.061575 
L 170.050903 191.516334 
L 163.32338 196.747826 
L 161.604124 199.116804 
L 160.856622 202.078026 
L 161.155623 207.803055 
L 161.006122 211.159107 
L 159.660618 215.304818 
L 156.969609 218.759577 
L 152.409843 222.707873 
L 147.401576 227.544536 
L 143.439813 232.381199 
L 139.5528 237.612691 
L 130.88177 244.226087 
L 127.592759 248.075676 
L 124.228997 253.60329 
L 121.537988 258.736075 
L 119.669232 261.401175 
L 116.604472 264.164982 
L 113.614461 263.375323 
L 113.16596 261.894712 
L 113.913462 259.821857 
L 115.707469 257.650294 
L 118.099477 253.899412 
L 119.519731 250.642068 
L 117.725725 248.766627 
L 112.866959 245.213161 
L 110.32545 244.324794 
L 107.33544 242.350646 
L 99.486663 238.40235 
L 98.963412 237.513984 
L 102.177673 231.788954 
L 98.813911 230.505758 
L 94.478396 227.544536 
L 88.946878 224.583314 
L 85.358865 222.313043 
L 85.134615 221.622092 
L 85.134615 221.622092 
" clip-path="url(#p43a6c69f88)" style="fill: none; stroke: #000000; stroke-width: 3"/>
   </g>
  </g>
 </g>
 <defs>
  <clipPath id="p43a6c69f88">
   <rect x="7.2" y="7.2" width="287.130675" height="554.4"/>
  </clipPath>
 </defs>
</svg>
