<?xml version="1.0" encoding="utf-8" standalone="no"?>
<!DOCTYPE svg PUBLIC "-//W3C//DTD SVG 1.1//EN"
  "http://www.w3.org/Graphics/SVG/1.1/DTD/svg11.dtd">
<svg xmlns:xlink="http://www.w3.org/1999/xlink" width="297.496101pt" height="568.8pt" viewBox="0 0 297.496101 568.8" xmlns="http://www.w3.org/2000/svg" version="1.1">
 <metadata>
  <rdf:RDF xmlns:dc="http://purl.org/dc/elements/1.1/" xmlns:cc="http://creativecommons.org/ns#" xmlns:rdf="http://www.w3.org/1999/02/22-rdf-syntax-ns#">
   <cc:Work>
    <dc:type rdf:resource="http://purl.org/dc/dcmitype/StillImage"/>
    <dc:date>2023-09-25T14:14:16.569487</dc:date>
    <dc:format>image/svg+xml</dc:format>
    <dc:creator>
     <cc:Agent>
      <dc:title>Matplotlib v3.6.2, https://matplotlib.org/</dc:title>
     </cc:Agent>
    </dc:creator>
   </cc:Work>
  </rdf:RDF>
 </metadata>
 <defs>
  <style type="text/css">*{stroke-linejoin: round; stroke-linecap: butt}</style>
 </defs>
 <g id="figure_1">
  <g id="patch_1">
   <path d="M 0 568.8 
L 297.496101 568.8 
L 297.496101 0 
L 0 0 
z
" style="fill: #ffffff"/>
  </g>
  <g id="axes_1">
   <g id="LineCollection_1">
    <path d="M 29.992299 535.316129 
L 28.873018 536.4 
L 28.201449 535.020528 
L 23.873561 534.330792 
L 21.187286 531.37478 
L 20.068005 531.177713 
L 20.515717 527.433431 
L 22.530424 520.733138 
L 24.022799 518.269795 
L 25.73903 513.047507 
L 27.231405 512.160704 
L 28.350687 508.712023 
L 29.843062 507.135484 
L 32.081624 500.533724 
L 34.245568 496.887977 
L 35.215612 492.848094 
L 36.334894 492.552493 
L 37.827269 490.581818 
L 43.946007 475.01349 
L 46.035332 471.466276 
L 48.497751 465.948387 
L 51.706357 460.627566 
L 55.885008 454.91261 
L 59.317471 451.956598 
L 63.123027 447.621114 
L 64.466165 443.482698 
L 67.227059 436.486804 
L 72.375753 429.490909 
L 74.539697 425.451026 
L 76.927497 419.637537 
L 78.867585 415.597654 
L 80.882291 414.218182 
L 82.896998 411.754839 
L 83.867041 408.700293 
L 84.314754 405.350147 
L 85.956367 401.507331 
L 90.657348 396.087977 
L 92.522817 390.570088 
L 96.925324 383.672727 
L 97.671511 380.913783 
L 98.790793 379.23871 
L 101.626306 373.129619 
L 103.417156 372.63695 
L 106.625762 366.035191 
L 106.775 364.16305 
L 104.536437 360.911437 
L 102.148637 359.334897 
L 100.581643 356.773021 
L 100.656262 353.718475 
L 101.402449 352.339003 
L 104.536437 349.678592 
L 106.775 346.426979 
L 109.75975 339.332551 
L 112.893738 332.829326 
L 115.356157 329.282111 
L 118.78862 325.636364 
L 123.489601 324.158358 
L 127.14592 324.74956 
L 130.578383 326.720235 
L 132.891565 327.607038 
L 136.17479 327.705572 
L 137.96564 327.11437 
L 140.726534 325.340762 
L 143.263572 322.680352 
L 145.725991 316.177126 
L 147.889935 313.122581 
L 149.456929 311.743109 
L 154.904098 308.392962 
L 158.261942 304.64868 
L 160.948217 298.441056 
L 161.694405 294.007038 
L 161.321311 291.839296 
L 159.381223 287.799413 
L 158.858892 285.631672 
L 159.008129 283.365396 
L 160.202029 280.409384 
L 164.156824 275.187097 
L 166.470005 273.216422 
L 171.320224 270.457478 
L 172.737981 268.585337 
L 173.409549 266.319062 
L 173.185693 262.57478 
L 174.901925 256.76129 
L 175.573493 251.834604 
L 177.065868 247.203519 
L 179.229812 242.769501 
L 182.438419 238.039883 
L 186.990163 233.014663 
L 189.452582 229.565982 
L 191.094195 226.609971 
L 194.078945 219.811144 
L 196.989076 215.278592 
L 199.078402 213.11085 
L 201.391583 211.632845 
L 205.79409 209.760704 
L 208.331127 209.169501 
L 210.868165 209.169501 
L 215.867622 210.056305 
L 220.270129 209.268035 
L 222.807166 207.100293 
L 224.299541 204.735484 
L 229.895948 194.389443 
L 233.40303 187.196481 
L 236.760874 181.580059 
L 245.715125 165.22346 
L 249.520681 157.53783 
L 249.893775 155.468622 
L 249.5953 150.246334 
L 250.043012 146.896188 
L 251.087675 143.053372 
L 250.266869 137.535484 
L 247.655212 133.889736 
L 247.132881 130.145455 
L 248.550637 126.105572 
L 252.654669 118.222874 
L 256.833319 112.902053 
L 263.175914 106.398827 
L 264.668289 103.147214 
L 264.892145 100.289736 
L 264.295195 96.249853 
L 265.78757 86.692082 
L 267.056089 82.652199 
L 269.220033 79.597654 
L 272.428639 77.035777 
L 276.60729 74.375367 
L 277.428096 71.517889 
L 276.084958 68.660411 
L 274.667202 67.773607 
L 272.130164 67.57654 
L 268.996177 68.660411 
L 265.489095 71.222287 
L 262.504345 71.81349 
L 260.340401 70.532551 
L 259.370357 67.57654 
L 260.191163 65.507331 
L 265.265239 59.004106 
L 269.070795 51.909677 
L 270.040839 46.490323 
L 269.443889 43.829912 
L 268.548464 42.548974 
L 265.116001 39.395894 
L 261.534301 36.834018 
L 259.071882 35.651613 
L 252.803906 33.878006 
L 250.341487 33.779472 
L 244.968937 32.4 
L 241.834949 33.582405 
L 238.924818 37.326686 
L 238.402486 40.8739 
L 239.074055 42.548974 
L 241.461855 44.913783 
L 246.759787 46.490323 
L 249.819156 49.150733 
L 250.341487 50.92434 
L 250.266869 56.048094 
L 251.236912 59.299707 
L 251.684625 62.452786 
L 251.311531 65.113196 
L 249.296825 68.956012 
L 246.237456 71.222287 
L 242.506518 72.995894 
L 238.477105 74.375367 
L 236.313161 75.853372 
L 234.59693 77.922581 
L 232.955317 82.652199 
L 230.865992 85.017009 
L 222.210216 88.958358 
L 218.031566 91.91437 
L 216.091478 94.180645 
L 213.703678 98.121994 
L 210.196596 105.314956 
L 209.450409 107.679765 
L 206.98799 112.606452 
L 203.779383 115.956598 
L 198.929164 119.208211 
L 197.36217 121.178886 
L 196.019033 125.711437 
L 196.541364 131.032258 
L 196.242889 133.594135 
L 194.675895 136.353079 
L 192.138857 138.323754 
L 186.915544 140.491496 
L 183.632319 142.265103 
L 177.961294 147.191789 
L 175.946587 149.458065 
L 172.066412 156.158358 
L 171.245605 160.789443 
L 171.693318 165.913196 
L 174.528831 175.175367 
L 174.528831 178.328446 
L 173.185693 181.678592 
L 170.35018 186.408211 
L 167.663905 189.955425 
L 164.306061 193.108504 
L 161.246692 194.980645 
L 159.008129 197.049853 
L 157.814229 199.020528 
L 156.918804 203.84868 
L 157.291898 209.070968 
L 157.14266 211.632845 
L 155.799523 215.278592 
L 153.486341 218.333138 
L 146.770653 224.048094 
L 142.14429 228.97478 
L 139.15954 233.408798 
L 135.652459 237.547214 
L 126.101258 244.937243 
L 124.683501 246.71085 
L 119.534807 255.283284 
L 115.356157 261.293842 
L 113.565307 263.36305 
L 112.296788 263.855718 
L 104.760293 259.91437 
L 100.656262 256.958358 
L 93.56748 253.214076 
L 92.224342 251.933138 
L 87.747217 250.159531 
L 83.493948 247.696188 
L 72.450372 242.276833 
L 67.376296 239.02522 
L 67.227059 236.561877 
L 70.211809 232.029326 
L 77.151353 219.909677 
L 80.882291 221.683284 
L 80.882291 221.683284 
" clip-path="url(#p611036bf7d)" style="fill: none; stroke: #000000; stroke-width: 3"/>
   </g>
  </g>
 </g>
 <defs>
  <clipPath id="p611036bf7d">
   <rect x="7.2" y="7.2" width="283.096101" height="554.4"/>
  </clipPath>
 </defs>
</svg>
