<?xml version="1.0" encoding="utf-8" standalone="no"?>
<!DOCTYPE svg PUBLIC "-//W3C//DTD SVG 1.1//EN"
  "http://www.w3.org/Graphics/SVG/1.1/DTD/svg11.dtd">
<svg xmlns:xlink="http://www.w3.org/1999/xlink" width="182.827428pt" height="568.8pt" viewBox="0 0 182.827428 568.8" xmlns="http://www.w3.org/2000/svg" version="1.1">
 <metadata>
  <rdf:RDF xmlns:dc="http://purl.org/dc/elements/1.1/" xmlns:cc="http://creativecommons.org/ns#" xmlns:rdf="http://www.w3.org/1999/02/22-rdf-syntax-ns#">
   <cc:Work>
    <dc:type rdf:resource="http://purl.org/dc/dcmitype/StillImage"/>
    <dc:date>2023-09-25T14:14:16.510957</dc:date>
    <dc:format>image/svg+xml</dc:format>
    <dc:creator>
     <cc:Agent>
      <dc:title>Matplotlib v3.6.2, https://matplotlib.org/</dc:title>
     </cc:Agent>
    </dc:creator>
   </cc:Work>
  </rdf:RDF>
 </metadata>
 <defs>
  <style type="text/css">*{stroke-linejoin: round; stroke-linecap: butt}</style>
 </defs>
 <g id="figure_1">
  <g id="patch_1">
   <path d="M 0 568.8 
L 182.827428 568.8 
L 182.827428 0 
L 0 0 
z
" style="fill: #ffffff"/>
  </g>
  <g id="axes_1">
   <g id="LineCollection_1">
    <path d="M 141.864326 32.4 
L 145.745142 36.126433 
L 159.269199 44.045102 
L 165.972427 46.684658 
L 167.971636 49.013678 
L 166.325229 52.429575 
L 159.5044 64.229945 
L 150.566763 81.309427 
L 144.216336 91.867652 
L 135.396299 108.326063 
L 127.164264 122.610721 
L 120.578637 135.342699 
L 118.814629 136.895379 
L 115.051413 144.814048 
L 114.933813 149.316821 
L 112.817004 154.595933 
L 112.346602 166.241035 
L 112.581803 169.656932 
L 111.170597 180.836229 
L 112.111401 176.643993 
L 111.640999 185.183734 
L 111.8762 190.462847 
L 111.288197 196.363031 
L 111.9938 197.915712 
L 111.523398 203.350092 
L 111.9938 215.771534 
L 109.641791 222.758595 
L 110.464994 227.261368 
L 112.581803 229.745656 
L 117.403423 232.229945 
L 118.461828 233.782625 
L 117.403423 237.198521 
L 117.403423 242.632902 
L 115.639416 251.327911 
L 115.404215 257.072828 
L 113.287406 261.575601 
L 113.875408 266.854713 
L 110.229793 274.462847 
L 110.112193 279.276155 
L 107.17218 285.021072 
L 105.760974 292.473937 
L 102.115359 299.150462 
L 101.527356 301.945287 
L 98.469744 309.863956 
L 94.941729 315.76414 
L 90.943312 326.01183 
L 88.356101 329.738262 
L 84.592885 337.346396 
L 85.65129 338.899076 
L 80.476868 344.643993 
L 82.358476 344.488725 
L 84.828086 341.849168 
L 85.76889 343.557116 
L 85.180888 350.544177 
L 81.182471 362.189279 
L 77.419255 368.244732 
L 71.892032 378.802957 
L 66.247208 391.534935 
L 60.837585 399.76414 
L 61.425588 401.937893 
L 63.071995 401.627357 
L 58.132774 407.061738 
L 55.192762 411.098706 
L 48.959936 422.433272 
L 46.255124 425.538632 
L 42.727109 436.71793 
L 39.434295 441.220702 
L 31.672663 456.592237 
L 26.027839 465.908318 
L 15.678996 485.782625 
L 14.855792 489.819593 
L 24.851834 495.098706 
L 35.553479 501.775231 
L 38.611092 502.706839 
L 43.079911 505.967468 
L 55.192762 513.575601 
L 64.718402 518.388909 
L 75.302446 526.152311 
L 82.476076 530.655083 
L 79.771265 535.002588 
L 78.007258 536.244732 
L 74.832044 536.4 
L 70.480826 534.07098 
L 65.306404 527.860259 
L 60.837585 525.065434 
L 61.072786 527.083919 
" clip-path="url(#pd11aed8489)" style="fill: none; stroke: #000000; stroke-width: 3"/>
   </g>
  </g>
 </g>
 <defs>
  <clipPath id="pd11aed8489">
   <rect x="7.2" y="7.2" width="168.427428" height="554.4"/>
  </clipPath>
 </defs>
</svg>
