<?xml version="1.0" encoding="utf-8" standalone="no"?>
<!DOCTYPE svg PUBLIC "-//W3C//DTD SVG 1.1//EN"
  "http://www.w3.org/Graphics/SVG/1.1/DTD/svg11.dtd">
<svg xmlns:xlink="http://www.w3.org/1999/xlink" width="282.082166pt" height="568.8pt" viewBox="0 0 282.082166 568.8" xmlns="http://www.w3.org/2000/svg" version="1.1">
 <metadata>
  <rdf:RDF xmlns:dc="http://purl.org/dc/elements/1.1/" xmlns:cc="http://creativecommons.org/ns#" xmlns:rdf="http://www.w3.org/1999/02/22-rdf-syntax-ns#">
   <cc:Work>
    <dc:type rdf:resource="http://purl.org/dc/dcmitype/StillImage"/>
    <dc:date>2023-09-25T14:14:15.780251</dc:date>
    <dc:format>image/svg+xml</dc:format>
    <dc:creator>
     <cc:Agent>
      <dc:title>Matplotlib v3.6.2, https://matplotlib.org/</dc:title>
     </cc:Agent>
    </dc:creator>
   </cc:Work>
  </rdf:RDF>
 </metadata>
 <defs>
  <style type="text/css">*{stroke-linejoin: round; stroke-linecap: butt}</style>
 </defs>
 <g id="figure_1">
  <g id="patch_1">
   <path d="M 0 568.8 
L 282.082166 568.8 
L 282.082166 0 
L 0 0 
z
" style="fill: #ffffff"/>
  </g>
  <g id="axes_1">
   <g id="LineCollection_1">
    <path d="M 32.146357 536.4 
L 28.524505 535.768308 
L 25.176001 534.595166 
L 23.194233 533.24154 
L 19.367371 531.978156 
L 22.100844 527.827037 
L 22.237518 526.563653 
L 21.007455 525.210027 
L 22.305855 524.30761 
L 25.107664 519.254073 
L 26.952758 515.373679 
L 29.27621 511.854252 
L 32.761388 507.161683 
L 35.153177 502.378872 
L 37.818313 496.152193 
L 40.825133 490.73769 
L 42.328543 487.57923 
L 45.745385 481.713518 
L 47.385468 477.833124 
L 49.162226 475.306356 
L 51.00732 470.613787 
L 53.057425 468.087019 
L 54.355824 465.740734 
L 56.405929 463.033483 
L 59.481086 457.077529 
L 59.071065 455.994628 
L 60.779485 453.016652 
L 61.599527 452.38496 
L 62.692916 449.2265 
L 63.444622 448.865533 
L 64.059653 450.941092 
L 64.879695 446.789973 
L 69.048241 439.570636 
L 66.724789 441.465712 
L 67.886515 439.209669 
L 71.781714 435.329275 
L 72.875103 432.080573 
L 78.000365 422.966159 
L 78.137038 420.8906 
L 79.708785 415.65658 
L 84.082342 410.42256 
L 85.517415 406.632408 
L 90.300993 400.135004 
L 91.326045 398.149687 
L 95.08457 392.915667 
L 95.631265 390.388899 
L 99.458127 384.613429 
L 100.483179 381.274485 
L 100.756526 378.837959 
L 100.278169 377.664816 
L 97.749706 375.950224 
L 96.314633 373.964906 
L 95.699602 371.077171 
L 97.271349 368.369919 
L 99.936485 366.204118 
L 101.508232 364.128559 
L 104.720062 357.90188 
L 105.540104 355.736079 
L 109.025282 349.148433 
L 110.118671 347.524082 
L 114.21888 343.643688 
L 116.610669 342.831513 
L 119.685826 342.65103 
L 121.394247 343.19248 
L 125.767803 345.629006 
L 128.979634 346.080215 
L 130.414707 345.719248 
L 134.44658 343.011996 
L 136.428348 339.853536 
L 137.65841 336.514593 
L 140.050199 333.265891 
L 145.927166 329.295255 
L 149.27567 326.227037 
L 152.28249 319.188183 
L 152.624175 316.751656 
L 152.350827 314.676097 
L 149.890702 308.359176 
L 150.164049 305.020233 
L 150.77908 303.486124 
L 154.400932 298.703312 
L 157.954447 295.725336 
L 161.166277 294.010743 
L 162.533014 292.837601 
L 163.353056 290.130349 
L 163.284719 285.798747 
L 164.173098 282.369561 
L 165.129813 277.135542 
L 167.384928 271.089346 
L 170.118401 265.404118 
L 176.542062 258.816473 
L 180.368924 252.860519 
L 182.965724 246.543599 
L 185.357512 242.663205 
L 186.997596 241.038854 
L 190.209427 239.053536 
L 195.539699 237.429185 
L 196.906435 237.429185 
L 203.398433 238.782811 
L 206.815275 237.609669 
L 208.933716 235.624351 
L 215.015693 224.614861 
L 215.562388 222.900269 
L 218.227524 217.936974 
L 220.68765 213.966338 
L 223.352786 210.446911 
L 226.974637 203.949508 
L 228.136363 201.422739 
L 232.236572 193.661952 
L 233.466635 190.864458 
L 233.944993 188.066965 
L 233.261625 182.742704 
L 234.355014 176.606267 
L 233.261625 171.282005 
L 231.416531 167.943062 
L 231.21152 165.596777 
L 231.689878 163.250492 
L 233.739983 158.467681 
L 236.541792 153.594628 
L 238.181876 151.609311 
L 243.990506 145.472874 
L 246.313958 142.765622 
L 247.407347 139.607162 
L 247.065663 134.824351 
L 247.202337 131.214682 
L 248.84242 123.634378 
L 249.457452 121.919785 
L 251.507556 119.03205 
L 257.247849 115.151656 
L 258.751259 112.805372 
L 258.477912 110.549329 
L 257.521197 109.195703 
L 255.539429 108.112802 
L 253.967682 108.02256 
L 251.64423 108.744494 
L 248.090715 111.361504 
L 246.313958 111.812713 
L 244.605537 111.271262 
L 243.238801 110.09812 
L 242.487096 108.473769 
L 242.897117 106.037243 
L 244.605537 103.329991 
L 248.569073 98.186213 
L 250.755851 93.944852 
L 252.054251 89.523008 
L 252.054251 87.447449 
L 251.029199 85.191406 
L 248.432399 82.393912 
L 244.195516 79.325694 
L 239.070255 77.520859 
L 232.988278 76.618442 
L 227.726342 74.723366 
L 227.863016 72.557565 
L 226.837964 70.121038 
L 227.931353 66.240645 
L 227.384658 63.443151 
L 233.808319 51.080036 
L 238.660234 43.319248 
L 241.53038 38.265712 
L 241.803728 36.731603 
L 243.443811 33.573142 
L 244.5372 32.4 
L 245.972274 32.490242 
L 251.097535 35.377977 
L 251.780904 36.190152 
L 253.420987 35.829185 
L 258.819596 39.077887 
L 262.714795 41.87538 
L 262.441448 42.958281 
L 257.042839 52.794628 
L 253.14764 60.374933 
L 250.755851 64.43581 
L 247.270673 71.203939 
L 245.972274 73.099015 
L 244.33219 77.611101 
L 242.418759 78.333035 
L 236.81514 77.250134 
L 232.304909 76.618442 
L 228.751395 75.535542 
L 226.291269 76.618442 
L 223.626133 79.776902 
L 223.079438 81.311012 
L 223.831143 84.469472 
L 224.856196 86.003581 
L 228.273037 87.357207 
L 231.689878 89.071799 
L 233.603309 91.869293 
L 233.944993 93.674127 
L 233.808319 96.742346 
L 235.106719 102.24709 
L 235.038382 103.690958 
L 234.01333 106.307968 
L 230.801499 110.188362 
L 228.273037 111.812713 
L 223.626133 113.617547 
L 220.209292 116.144315 
L 218.637545 118.851567 
L 218.022513 120.836885 
L 216.314093 123.363653 
L 213.922304 124.717278 
L 208.523695 127.063563 
L 204.081802 130.131782 
L 201.553339 133.560967 
L 199.503235 137.260877 
L 197.111446 143.036347 
L 196.018057 146.555774 
L 193.284584 150.616652 
L 191.302816 152.331244 
L 187.817638 154.497046 
L 185.904207 156.572605 
L 184.537471 160.452999 
L 184.742481 166.589436 
L 183.170734 170.46983 
L 181.257303 172.364906 
L 173.876926 175.342883 
L 171.075117 177.057475 
L 166.633223 181.659803 
L 163.831413 185.810922 
L 162.39634 189.240107 
L 161.644635 193.932677 
L 161.986319 196.910654 
L 163.763077 203.227574 
L 164.446445 206.386034 
L 164.036424 210.717637 
L 163.011372 212.973679 
L 160.209562 217.305282 
L 157.134405 220.734467 
L 151.735796 224.885586 
L 149.549018 227.68308 
L 148.797313 229.668397 
L 148.592302 232.826858 
L 148.933986 237.429185 
L 148.455628 240.587645 
L 147.77226 242.302238 
L 145.790492 245.00949 
L 137.590074 252.228827 
L 135.129948 255.116562 
L 131.303086 260.440824 
L 127.817908 264.140734 
L 120.300858 269.735721 
L 118.934121 271.450313 
L 111.485408 283.903671 
L 108.478587 287.242614 
L 107.385198 287.513339 
L 104.993409 286.701164 
L 104.856736 285.528021 
L 108.751935 278.128201 
L 110.802039 274.96974 
L 113.467175 270.186929 
L 114.082207 268.201611 
L 112.100439 266.577261 
L 110.392018 266.03581 
L 105.950125 262.426141 
L 101.371558 261.072516 
L 96.451307 258.545748 
L 94.606212 257.282363 
L 83.945668 251.506893 
L 79.230427 248.528917 
L 79.230427 248.528917 
" clip-path="url(#p02455794bd)" style="fill: none; stroke: #000000; stroke-width: 3"/>
   </g>
  </g>
 </g>
 <defs>
  <clipPath id="p02455794bd">
   <rect x="7.2" y="7.2" width="267.682166" height="554.4"/>
  </clipPath>
 </defs>
</svg>
