<?xml version="1.0" encoding="utf-8" standalone="no"?>
<!DOCTYPE svg PUBLIC "-//W3C//DTD SVG 1.1//EN"
  "http://www.w3.org/Graphics/SVG/1.1/DTD/svg11.dtd">
<svg xmlns:xlink="http://www.w3.org/1999/xlink" width="174.162602pt" height="568.8pt" viewBox="0 0 174.162602 568.8" xmlns="http://www.w3.org/2000/svg" version="1.1">
 <metadata>
  <rdf:RDF xmlns:dc="http://purl.org/dc/elements/1.1/" xmlns:cc="http://creativecommons.org/ns#" xmlns:rdf="http://www.w3.org/1999/02/22-rdf-syntax-ns#">
   <cc:Work>
    <dc:type rdf:resource="http://purl.org/dc/dcmitype/StillImage"/>
    <dc:date>2023-09-25T14:14:15.435553</dc:date>
    <dc:format>image/svg+xml</dc:format>
    <dc:creator>
     <cc:Agent>
      <dc:title>Matplotlib v3.6.2, https://matplotlib.org/</dc:title>
     </cc:Agent>
    </dc:creator>
   </cc:Work>
  </rdf:RDF>
 </metadata>
 <defs>
  <style type="text/css">*{stroke-linejoin: round; stroke-linecap: butt}</style>
 </defs>
 <g id="figure_1">
  <g id="patch_1">
   <path d="M 0 568.8 
L 174.162602 568.8 
L 174.162602 0 
L 0 0 
z
" style="fill: #ffffff"/>
  </g>
  <g id="axes_1">
   <g id="LineCollection_1">
    <path d="M 32.616778 534.507635 
L 31.54182 536.4 
L 19.717285 531.511389 
L 15.059135 531.038298 
L 14.461936 529.934418 
L 15.298015 524.099625 
L 26.405911 500.918148 
L 26.286471 498.079599 
L 32.139019 491.929412 
L 32.019579 491.298623 
L 44.202433 467.801752 
L 46.949547 461.020776 
L 50.532739 456.289862 
L 56.743606 445.408761 
L 59.251841 440.047059 
L 61.879515 435.946934 
L 64.14887 430.900626 
L 69.523659 422.858073 
L 75.973405 409.769212 
L 80.392676 402.672841 
L 84.931386 394.314894 
L 88.872897 385.168461 
L 91.739451 381.068335 
L 94.247686 375.86433 
L 99.025276 370.344931 
L 102.369589 363.563955 
L 106.19166 354.575219 
L 110.013732 348.109637 
L 116.224599 334.705382 
L 116.941237 331.078348 
L 125.18258 319.724155 
L 128.765772 311.208511 
L 131.393446 306.792991 
L 137.843193 293.70413 
L 141.068066 288.342428 
L 143.456861 287.080851 
L 147.876131 280.772966 
L 149.189968 276.357447 
L 151.817643 270.68035 
L 155.281395 266.107134 
L 154.445317 262.637797 
L 145.487336 259.168461 
L 129.482411 251.125907 
L 122.554905 248.445056 
L 117.538436 245.291114 
L 97.353119 233.779224 
L 96.039282 232.675344 
L 93.769927 222.740426 
L 94.128246 218.797997 
L 97.353119 213.593992 
L 107.505498 195.458824 
L 112.163648 188.204756 
L 121.957707 170.700375 
L 125.660339 164.707885 
L 127.332495 160.923154 
L 136.648795 144.68035 
L 143.5763 131.276095 
L 151.459324 118.187234 
L 154.684197 111.406258 
L 159.103467 103.363705 
L 159.700666 100.209762 
L 156.834112 97.371214 
L 141.187506 90.117146 
L 137.843193 87.278598 
L 129.243531 82.547685 
L 123.749303 78.605257 
L 114.791322 74.505131 
L 107.386058 69.458824 
L 93.411608 61.731665 
L 96.9948 54.162203 
L 103.325106 43.754193 
L 107.863817 34.923154 
L 110.372051 32.4 
L 115.388521 35.396245 
" clip-path="url(#p9bcfc14bda)" style="fill: none; stroke: #000000; stroke-width: 3"/>
   </g>
  </g>
 </g>
 <defs>
  <clipPath id="p9bcfc14bda">
   <rect x="7.2" y="7.2" width="159.762602" height="554.4"/>
  </clipPath>
 </defs>
</svg>
