<?xml version="1.0" encoding="utf-8" standalone="no"?>
<!DOCTYPE svg PUBLIC "-//W3C//DTD SVG 1.1//EN"
  "http://www.w3.org/Graphics/SVG/1.1/DTD/svg11.dtd">
<svg xmlns:xlink="http://www.w3.org/1999/xlink" width="183.29303pt" height="568.8pt" viewBox="0 0 183.29303 568.8" xmlns="http://www.w3.org/2000/svg" version="1.1">
 <metadata>
  <rdf:RDF xmlns:dc="http://purl.org/dc/elements/1.1/" xmlns:cc="http://creativecommons.org/ns#" xmlns:rdf="http://www.w3.org/1999/02/22-rdf-syntax-ns#">
   <cc:Work>
    <dc:type rdf:resource="http://purl.org/dc/dcmitype/StillImage"/>
    <dc:date>2023-09-25T14:14:15.486408</dc:date>
    <dc:format>image/svg+xml</dc:format>
    <dc:creator>
     <cc:Agent>
      <dc:title>Matplotlib v3.6.2, https://matplotlib.org/</dc:title>
     </cc:Agent>
    </dc:creator>
   </cc:Work>
  </rdf:RDF>
 </metadata>
 <defs>
  <style type="text/css">*{stroke-linejoin: round; stroke-linecap: butt}</style>
 </defs>
 <g id="figure_1">
  <g id="patch_1">
   <path d="M 0 568.8 
L 183.29303 568.8 
L 183.29303 0 
L 0 0 
z
" style="fill: #ffffff"/>
  </g>
  <g id="axes_1">
   <g id="LineCollection_1">
    <path d="M 142.669468 32.4 
L 142.199211 33.020881 
L 147.959867 36.746166 
L 153.015136 39.074469 
L 164.654013 46.059378 
L 167.710687 47.145919 
L 168.416074 49.163782 
L 165.359399 53.975608 
L 155.719118 71.825932 
L 148.547689 83.312227 
L 141.493824 95.729843 
L 130.795463 115.908469 
L 129.619819 116.839791 
L 128.091481 121.185956 
L 124.564549 126.618663 
L 124.446985 128.326086 
L 120.567359 136.242316 
L 114.336446 150.522575 
L 113.043237 151.764336 
L 112.455415 155.955282 
L 112.102722 177.065229 
L 110.221691 181.877056 
L 111.750029 186.688882 
L 110.809513 195.070773 
L 111.867593 199.416939 
L 112.102722 208.10927 
L 111.632464 209.195812 
L 112.102722 216.646381 
L 110.45682 221.458208 
L 110.45682 226.735694 
L 113.748624 229.840099 
L 118.216071 232.944503 
L 117.628249 243.499476 
L 115.394525 250.639606 
L 116.687734 248.932184 
L 117.157991 251.570927 
L 116.217476 256.382753 
L 116.335041 260.418479 
L 115.51209 264.919864 
L 111.750029 272.059994 
L 111.044642 277.182261 
L 108.223096 284.011949 
L 105.754244 296.429566 
L 101.63949 305.121897 
L 95.996398 315.21121 
L 95.408576 319.091715 
L 91.881644 325.921404 
L 90.706 334.148075 
L 98.112557 335.700277 
L 96.58422 340.512103 
L 92.351901 345.78959 
L 86.473681 355.258023 
L 83.181877 361.777271 
L 73.65916 377.144071 
L 68.016069 388.009486 
L 64.84183 393.286973 
L 61.902719 400.116662 
L 57.435272 405.238928 
L 54.496162 412.999938 
L 51.674616 416.880443 
L 50.263843 417.190884 
L 50.498972 420.916169 
L 48.030119 423.865353 
L 45.208573 422.00271 
L 46.384217 426.504096 
L 40.741126 436.438189 
L 36.508807 445.906621 
L 32.86431 455.375054 
L 29.102249 462.670403 
L 14.876956 485.332553 
L 14.876956 488.436957 
L 16.757986 489.989159 
L 34.510212 498.991931 
L 37.331758 500.078472 
L 48.500377 507.529042 
L 58.493352 512.806529 
L 61.902719 515.134832 
L 70.955179 520.101879 
L 74.834804 521.49886 
L 83.417006 526.621127 
L 83.769699 529.10465 
L 79.77251 536.4 
L 77.303657 536.08956 
L 59.904124 524.913705 
L 61.667591 525.068925 
" clip-path="url(#p8546f21757)" style="fill: none; stroke: #000000; stroke-width: 3"/>
   </g>
  </g>
 </g>
 <defs>
  <clipPath id="p8546f21757">
   <rect x="7.2" y="7.2" width="168.89303" height="554.4"/>
  </clipPath>
 </defs>
</svg>
