<?xml version="1.0" encoding="utf-8" standalone="no"?>
<!DOCTYPE svg PUBLIC "-//W3C//DTD SVG 1.1//EN"
  "http://www.w3.org/Graphics/SVG/1.1/DTD/svg11.dtd">
<svg xmlns:xlink="http://www.w3.org/1999/xlink" width="572.4pt" height="358.192679pt" viewBox="0 0 572.4 358.192679" xmlns="http://www.w3.org/2000/svg" version="1.1">
 <metadata>
  <rdf:RDF xmlns:dc="http://purl.org/dc/elements/1.1/" xmlns:cc="http://creativecommons.org/ns#" xmlns:rdf="http://www.w3.org/1999/02/22-rdf-syntax-ns#">
   <cc:Work>
    <dc:type rdf:resource="http://purl.org/dc/dcmitype/StillImage"/>
    <dc:date>2023-09-25T14:14:15.202749</dc:date>
    <dc:format>image/svg+xml</dc:format>
    <dc:creator>
     <cc:Agent>
      <dc:title>Matplotlib v3.6.2, https://matplotlib.org/</dc:title>
     </cc:Agent>
    </dc:creator>
   </cc:Work>
  </rdf:RDF>
 </metadata>
 <defs>
  <style type="text/css">*{stroke-linejoin: round; stroke-linecap: butt}</style>
 </defs>
 <g id="figure_1">
  <g id="patch_1">
   <path d="M 0 358.192679 
L 572.4 358.192679 
L 572.4 0 
L 0 0 
z
" style="fill: #ffffff"/>
  </g>
  <g id="axes_1">
   <g id="LineCollection_1">
    <path d="M 539.836364 213.293266 
L 539.206512 212.589494 
L 539.012712 210.990012 
L 537.849909 210.478178 
L 537.607658 211.693784 
L 537.462308 215.276624 
L 537.753009 218.155692 
L 538.43131 221.482615 
L 537.946809 223.018117 
L 536.202605 223.65791 
L 533.973899 223.65791 
L 533.586299 224.937496 
L 534.894452 236.453767 
L 535.475853 239.524772 
L 535.572753 241.316192 
L 536.832456 251.296961 
L 537.316958 253.856132 
L 537.316958 256.031428 
L 538.092159 258.910495 
L 538.722011 263.453024 
L 539.012712 266.779947 
L 539.351862 267.867595 
L 539.400313 270.234828 
L 538.867361 271.514414 
L 538.043709 271.578393 
L 534.749101 272.666041 
L 533.683199 272.730021 
L 531.260693 273.753689 
L 528.886637 274.457461 
L 516.483407 276.37684 
L 511.493045 276.888674 
L 508.101537 277.464487 
L 504.564678 277.784384 
L 493.614952 279.511825 
L 492.7913 279.447845 
L 489.787393 280.023659 
L 487.461787 280.215597 
L 477.481063 281.559162 
L 476.26981 281.879058 
L 468.13019 282.902727 
L 465.320083 283.414561 
L 463.81813 283.350582 
L 456.211461 284.630167 
L 450.930399 285.333939 
L 449.573795 285.845774 
L 447.102839 286.037711 
L 446.521438 286.357608 
L 441.773326 286.997401 
L 437.267465 287.445256 
L 436.395363 287.829131 
L 429.563897 288.532903 
L 427.480542 288.980758 
L 424.137484 289.300655 
L 422.58708 289.236676 
L 417.887419 290.324323 
L 393.953061 293.587267 
L 391.433655 294.16308 
L 386.540193 294.482977 
L 383.826986 295.12277 
L 382.325033 294.994811 
L 376.99552 291.603909 
L 367.111696 286.357608 
L 362.848085 283.734457 
L 359.747278 282.646809 
L 357.760823 281.239265 
L 350.154155 276.696736 
L 340.609482 270.554725 
L 335.086168 267.291781 
L 325.686846 261.277729 
L 325.105444 261.789563 
L 323.167439 264.924548 
L 320.648033 267.867595 
L 317.498776 272.346145 
L 315.657671 274.58542 
L 315.17317 274.777358 
L 312.847564 279.127949 
L 310.81266 281.815079 
L 306.8882 288.213007 
L 305.967648 289.108717 
L 303.884293 288.468924 
L 299.959833 286.613525 
L 298.55478 285.781794 
L 297.537327 286.293629 
L 295.066371 290.068406 
L 293.661318 292.691557 
L 292.207815 294.355018 
L 290.608961 293.26737 
L 288.428705 292.43564 
L 284.165095 290.196365 
L 283.486793 289.300655 
L 281.258088 287.95709 
L 281.161188 287.509235 
L 279.659234 286.997401 
L 276.316176 284.566188 
L 272.973118 282.518851 
L 270.986663 281.495182 
L 269.145559 280.151617 
L 267.643605 279.575804 
L 264.688148 277.528467 
L 262.653243 276.504798 
L 259.213285 274.009606 
L 257.12993 273.049917 
L 256.015577 272.090228 
L 251.073665 269.147181 
L 247.585257 266.715968 
L 246.761605 267.099844 
L 245.114301 269.722994 
L 242.401094 273.497772 
L 241.722792 274.073585 
L 238.670435 278.616115 
L 233.873873 284.950064 
L 232.61417 286.933421 
L 231.693618 287.765152 
L 228.835061 292.115743 
L 220.889242 302.544367 
L 219.629539 304.527724 
L 218.127585 306.383124 
L 216.238031 309.454129 
L 216.334931 310.221881 
L 215.414379 311.885342 
L 212.652722 315.404202 
L 210.375567 317.579498 
L 208.292212 320.650504 
L 205.918156 323.65753 
L 205.530555 324.937116 
L 205.918156 325.832826 
L 207.080959 326.34466 
L 209.309664 328.008121 
L 210.036416 329.223728 
L 210.084866 330.183417 
L 212.071321 331.143106 
L 212.313571 332.806568 
L 214.300026 335.045842 
L 215.414379 335.365739 
L 214.832977 333.44636 
L 213.912425 332.934526 
L 211.63527 330.631272 
L 208.728263 328.13608 
L 207.51701 327.560266 
L 202.284397 323.273654 
L 196.470383 319.498877 
L 194.774629 318.027353 
L 192.449023 316.55583 
L 187.11951 313.676762 
L 183.098151 311.18157 
L 178.59229 308.878316 
L 177.913988 308.174543 
L 175.733733 307.086896 
L 173.068976 305.359455 
L 168.320865 303.312118 
L 165.316958 301.712636 
L 163.039802 300.177133 
L 163.621203 298.513672 
L 161.925449 297.8099 
L 160.617296 296.402355 
L 159.745194 293.26737 
L 158.533941 292.37166 
L 157.128888 291.923805 
L 155.093983 290.196365 
L 153.010628 289.812489 
L 151.944725 288.788821 
L 150.345871 288.021069 
L 145.69466 286.485566 
L 144.483407 285.653836 
L 142.109351 284.694146 
L 139.541495 282.966706 
L 135.956187 280.919369 
L 135.084084 279.511825 
L 134.163532 278.872032 
L 132.661579 278.744073 
L 131.159625 277.976322 
L 127.041365 276.568778 
L 124.182808 276.31286 
L 122.777755 275.225213 
L 120.8882 274.58542 
L 120.064548 273.945627 
L 122.293253 271.514414 
L 122.680854 270.618704 
L 115.267986 266.588009 
L 110.907476 264.412714 
L 108.38807 262.749252 
L 101.314353 258.782537 
L 98.116645 257.438972 
L 97.632144 256.799179 
L 93.707684 254.559904 
L 92.06038 253.856132 
L 85.761865 250.145334 
L 82.031206 248.289934 
L 81.692055 247.906059 
L 76.847044 245.218929 
L 74.327637 244.259239 
L 74.230737 243.811384 
L 70.209377 241.636089 
L 69.773326 241.124255 
L 68.271373 243.427509 
L 66.866319 244.259239 
L 65.751967 243.747405 
L 64.298463 244.451177 
L 62.699609 245.98668 
L 60.664704 245.666784 
L 58.048398 244.387198 
L 50.73243 240.356503 
L 49.133576 238.501104 
L 47.292472 236.901622 
L 46.51727 235.30214 
L 46.42037 233.958575 
L 46.807971 232.678989 
L 49.036676 230.503694 
L 50.247929 227.880543 
L 51.023131 225.321372 
L 51.943683 223.338014 
L 52.137484 221.610573 
L 54.027038 217.771816 
L 57.321646 213.86908 
L 59.501902 212.97337 
L 61.682157 212.909391 
L 65.025215 214.892748 
L 67.350821 215.084686 
L 68.416723 214.892748 
L 70.693879 213.549183 
L 71.905132 212.461536 
L 73.019484 210.798074 
L 74.376088 207.59911 
L 75.19974 206.319524 
L 76.653243 205.039939 
L 79.075749 203.632395 
L 83.77541 209.966344 
L 83.77541 205.871669 
L 80.723053 203.312498 
L 79.899401 203.18454 
L 82.031206 201.840975 
L 83.63006 199.217824 
L 83.58161 198.64201 
L 84.938213 194.867233 
L 85.180464 193.395709 
L 83.58161 189.492973 
L 83.290909 187.189719 
L 83.58161 185.462278 
L 85.761865 182.199335 
L 88.378171 179.768122 
L 90.946028 178.232619 
L 92.10883 176.825075 
L 92.496431 175.545489 
L 92.254181 173.562131 
L 92.544881 171.322856 
L 93.320083 169.595416 
L 95.354988 162.557695 
L 97.099192 158.910876 
L 98.310445 157.183435 
L 101.362803 153.920491 
L 103.010107 151.809175 
L 104.36671 149.377962 
L 106.207815 145.027371 
L 107.806668 142.212283 
L 109.066371 140.6128 
L 111.052826 139.077298 
L 115.510237 137.98965 
L 120.112998 138.565463 
L 122.777755 138.053629 
L 124.667309 136.454147 
L 126.508414 133.767017 
L 129.754572 127.816944 
L 131.934827 123.530332 
L 133.24298 121.546974 
L 134.357333 119.307699 
L 138.087992 112.845792 
L 140.946549 107.535511 
L 142.400052 104.272568 
L 142.642303 102.161251 
L 142.400052 99.154225 
L 143.029904 95.507406 
L 143.126804 93.843944 
L 142.787653 92.116504 
L 140.704298 86.934182 
L 141.188799 84.694907 
L 143.562855 80.216357 
L 145.258609 77.785144 
L 147.002813 75.673828 
L 150.685022 71.89905 
L 151.654024 70.683444 
L 152.090076 69.2759 
L 152.283876 66.844687 
L 152.041625 62.430116 
L 152.719927 58.207484 
L 153.83428 54.880561 
L 156.159885 52.32139 
L 159.115343 50.657928 
L 160.035895 49.186405 
L 159.793644 47.331005 
L 157.807189 45.795503 
L 155.336233 46.179378 
L 151.799375 48.610591 
L 150.491222 48.610591 
L 148.940818 47.522943 
L 148.504767 45.603565 
L 149.473769 43.36429 
L 152.526127 39.78145 
L 154.561032 36.070652 
L 155.336233 32.935667 
L 155.287783 31.144247 
L 154.561032 30.056599 
L 151.896275 27.433448 
L 149.328419 25.578049 
L 145.985361 24.106526 
L 142.157802 23.72265 
L 139.783746 22.82694 
L 138.184892 22.82694 
L 136.634488 23.786629 
L 135.520135 25.706008 
L 135.035634 27.497428 
L 135.277885 28.904972 
L 135.956187 30.248537 
L 138.184892 31.464143 
L 140.365147 33.063625 
L 141.4795 35.238921 
L 141.915551 38.054009 
L 142.981454 41.508891 
L 142.642303 44.323979 
L 141.4795 46.243358 
L 139.299245 48.162736 
L 137.700391 49.058446 
L 134.793384 50.146094 
L 132.613128 52.32139 
L 131.983277 53.920872 
L 130.287523 56.416064 
L 128.494868 57.823608 
L 124.473509 59.359111 
L 122.196353 60.830634 
L 119.967648 63.069909 
L 117.690492 67.292542 
L 115.704038 72.218947 
L 114.589685 74.58618 
L 112.65168 76.697496 
L 109.308622 79.000751 
L 107.903569 81.176046 
L 107.322167 83.287363 
L 107.322167 87.765912 
L 107.031467 88.981519 
L 106.014014 90.581001 
L 104.657411 91.604669 
L 101.362803 92.820276 
L 98.068195 94.867613 
L 96.03329 96.659033 
L 94.773587 98.194536 
L 93.077833 101.073603 
L 92.593332 101.3935 
L 91.430529 104.08063 
L 91.188278 107.279594 
L 92.06038 112.333957 
L 92.932482 115.340984 
L 92.932482 118.220051 
L 91.721229 121.163098 
L 89.928575 123.72227 
L 87.457619 126.4094 
L 83.58161 129.288467 
L 82.564157 131.271825 
L 82.079656 133.575079 
L 82.176556 135.878334 
L 81.740505 139.973008 
L 81.013754 141.700448 
L 79.947851 143.36391 
L 77.089294 145.923081 
L 75.635791 146.754812 
L 72.050482 150.529589 
L 68.319823 155.83987 
L 64.928315 158.590979 
L 61.585257 160.958213 
L 60.277103 162.749633 
L 56.207294 169.915312 
L 53.833238 172.538463 
L 51.798333 172.282546 
L 51.507632 171.514794 
L 52.718885 170.043271 
L 55.044491 165.244825 
L 56.352644 163.197487 
L 56.982495 161.534026 
L 56.885595 159.614648 
L 42.544361 151.681217 
L 35.761344 147.906439 
L 32.951237 145.795122 
L 32.563636 146.562874 
L 32.563636 146.562874 
" clip-path="url(#pba5b9ad165)" style="fill: none; stroke: #000000; stroke-width: 3"/>
   </g>
  </g>
 </g>
 <defs>
  <clipPath id="pba5b9ad165">
   <rect x="7.2" y="7.2" width="558" height="343.792679"/>
  </clipPath>
 </defs>
</svg>
