<?xml version="1.0" encoding="utf-8" standalone="no"?>
<!DOCTYPE svg PUBLIC "-//W3C//DTD SVG 1.1//EN"
  "http://www.w3.org/Graphics/SVG/1.1/DTD/svg11.dtd">
<svg xmlns:xlink="http://www.w3.org/1999/xlink" width="273.307413pt" height="568.8pt" viewBox="0 0 273.307413 568.8" xmlns="http://www.w3.org/2000/svg" version="1.1">
 <metadata>
  <rdf:RDF xmlns:dc="http://purl.org/dc/elements/1.1/" xmlns:cc="http://creativecommons.org/ns#" xmlns:rdf="http://www.w3.org/1999/02/22-rdf-syntax-ns#">
   <cc:Work>
    <dc:type rdf:resource="http://purl.org/dc/dcmitype/StillImage"/>
    <dc:date>2023-09-25T14:14:15.141861</dc:date>
    <dc:format>image/svg+xml</dc:format>
    <dc:creator>
     <cc:Agent>
      <dc:title>Matplotlib v3.6.2, https://matplotlib.org/</dc:title>
     </cc:Agent>
    </dc:creator>
   </cc:Work>
  </rdf:RDF>
 </metadata>
 <defs>
  <style type="text/css">*{stroke-linejoin: round; stroke-linecap: butt}</style>
 </defs>
 <g id="figure_1">
  <g id="patch_1">
   <path d="M 0 568.8 
L 273.307413 568.8 
L 273.307413 0 
L 0 0 
z
" style="fill: #ffffff"/>
  </g>
  <g id="axes_1">
   <g id="LineCollection_1">
    <path d="M 129.1473 33.072 
L 131.43739 32.4 
L 145.941294 40.128 
L 165.534288 49.2 
L 180.038192 59.28 
L 180.038192 68.352 
L 171.641195 85.488 
L 167.061014 92.208 
L 155.101655 120.096 
L 139.325478 147.648 
L 136.272025 155.04 
L 123.040393 177.216 
L 96.06822 226.944 
L 91.233585 235.008 
L 84.872224 250.128 
L 82.327679 251.808 
L 74.9485 266.256 
L 64.006958 283.392 
L 60.69905 294.144 
L 61.716868 327.744 
L 62.734686 339.168 
L 60.190141 346.56 
L 60.69905 367.392 
L 54.083234 375.12 
L 57.391142 380.832 
L 57.136688 397.296 
L 50.775326 410.064 
L 53.574325 416.784 
L 56.627779 434.592 
L 54.337689 442.32 
L 57.391142 452.4 
L 56.882233 458.448 
L 49.757508 471.552 
L 40.851602 484.32 
L 37.034785 495.408 
L 18.968519 528.336 
L 18.968519 536.4 
L 22.021972 529.68 
L 28.128879 522.624 
L 24.566517 519.936 
L 28.128879 513.216 
L 32.454605 514.56 
L 39.070421 510.192 
L 40.851602 500.448 
L 48.739691 490.704 
L 61.207959 489.36 
L 68.07823 476.928 
L 67.569321 460.8 
L 77.493045 440.976 
L 91.48804 417.456 
L 96.577129 402.336 
L 108.790943 385.2 
L 109.808761 380.496 
L 117.18794 369.408 
L 120.750303 358.992 
L 127.875028 348.576 
L 131.946299 335.808 
L 145.68684 312.288 
L 148.740293 304.224 
L 154.8472 294.48 
L 157.900654 286.08 
L 162.480834 280.032 
L 171.132286 262.224 
L 177.748102 255.504 
L 186.399553 240.72 
L 190.979734 235.008 
L 195.814368 224.928 
L 203.193548 214.512 
L 205.483638 206.112 
L 209.809364 200.064 
L 224.567722 170.832 
L 233.728083 157.728 
L 243.906261 132.864 
L 246.959715 128.16 
L 249.50426 117.408 
L 254.338894 106.656 
L 254.08444 102.624 
L 237.5449 92.208 
L 228.384539 85.152 
L 205.992547 71.712 
L 192.252006 67.344 
L 172.659013 55.584 
L 167.061014 54.24 
L 129.910663 33.744 
" clip-path="url(#p6719960e3f)" style="fill: none; stroke: #000000; stroke-width: 3"/>
   </g>
  </g>
 </g>
 <defs>
  <clipPath id="p6719960e3f">
   <rect x="7.2" y="7.2" width="258.907413" height="554.4"/>
  </clipPath>
 </defs>
</svg>
