<?xml version="1.0" encoding="utf-8" standalone="no"?>
<!DOCTYPE svg PUBLIC "-//W3C//DTD SVG 1.1//EN"
  "http://www.w3.org/Graphics/SVG/1.1/DTD/svg11.dtd">
<svg xmlns:xlink="http://www.w3.org/1999/xlink" width="380.271817pt" height="568.8pt" viewBox="0 0 380.271817 568.8" xmlns="http://www.w3.org/2000/svg" version="1.1">
 <metadata>
  <rdf:RDF xmlns:dc="http://purl.org/dc/elements/1.1/" xmlns:cc="http://creativecommons.org/ns#" xmlns:rdf="http://www.w3.org/1999/02/22-rdf-syntax-ns#">
   <cc:Work>
    <dc:type rdf:resource="http://purl.org/dc/dcmitype/StillImage"/>
    <dc:date>2023-09-25T14:14:15.018599</dc:date>
    <dc:format>image/svg+xml</dc:format>
    <dc:creator>
     <cc:Agent>
      <dc:title>Matplotlib v3.6.2, https://matplotlib.org/</dc:title>
     </cc:Agent>
    </dc:creator>
   </cc:Work>
  </rdf:RDF>
 </metadata>
 <defs>
  <style type="text/css">*{stroke-linejoin: round; stroke-linecap: butt}</style>
 </defs>
 <g id="figure_1">
  <g id="patch_1">
   <path d="M 0 568.8 
L 380.271817 568.8 
L 380.271817 0 
L 0 0 
z
" style="fill: #ffffff"/>
  </g>
  <g id="axes_1">
   <g id="LineCollection_1">
    <path d="M 47.454127 333.061534 
L 49.687203 332.751093 
L 54.505945 334.768956 
L 58.619505 338.804681 
L 66.023914 343.150847 
L 68.139459 343.150847 
L 68.962171 345.16871 
L 70.490065 343.926948 
L 72.135489 346.100031 
L 71.782899 348.273114 
L 68.49205 355.258023 
L 68.844641 357.120665 
L 72.25302 358.517647 
L 75.191277 360.84595 
L 98.579806 373.729227 
L 99.99017 375.126209 
L 96.816852 382.731999 
L 91.057867 392.976532 
L 92.468231 396.546597 
L 96.11167 400.892763 
L 94.466246 406.170249 
L 94.818837 411.913397 
L 96.816852 418.587866 
L 96.699322 421.381829 
L 89.177383 432.712904 
L 84.24111 442.957438 
L 80.950262 451.960209 
L 79.774959 458.013797 
L 76.13152 464.843486 
L 72.723141 469.034432 
L 62.027884 478.968525 
L 57.914323 481.917709 
L 49.687203 491.696581 
L 45.221051 498.21583 
L 43.223036 504.269418 
L 43.693157 508.149923 
L 48.394369 516.842254 
L 55.563717 522.585402 
L 59.794808 526.776347 
L 66.611565 531.898614 
L 73.310792 535.158238 
L 79.187307 536.4 
L 84.35864 534.071697 
L 87.414428 530.812073 
L 89.765034 524.292824 
L 95.759079 510.943887 
L 99.167458 505.200739 
L 103.045958 499.768032 
L 105.749155 496.974068 
L 109.980245 494.490545 
L 113.388624 493.714444 
L 119.61773 494.645765 
L 124.436472 498.06061 
L 128.902623 499.457592 
L 134.661608 499.147151 
L 140.420592 496.197967 
L 144.886744 491.541361 
L 150.528198 480.055066 
L 156.992364 473.380597 
L 159.930622 472.138836 
L 164.984425 468.413551 
L 169.920697 462.359963 
L 173.681667 453.822852 
L 174.85697 446.837943 
L 173.799197 442.336557 
L 170.155758 433.954666 
L 170.625879 427.745858 
L 172.741424 424.175793 
L 176.972515 418.898306 
L 182.261378 413.93126 
L 186.84506 411.602957 
L 191.781333 406.48069 
L 192.721575 396.701817 
L 197.422787 378.696273 
L 200.008453 371.090484 
L 203.651893 363.484694 
L 207.647923 358.051986 
L 215.992574 348.738774 
L 219.636013 343.616508 
L 221.986619 339.270342 
L 225.277467 330.888451 
L 230.4488 321.575239 
L 235.737664 316.297752 
L 244.552436 313.503788 
L 249.371178 312.727687 
L 257.128178 314.124669 
L 262.299511 313.814229 
L 268.176026 311.175485 
L 270.644162 308.381521 
L 280.986828 292.704281 
L 284.277677 285.408931 
L 309.899282 238.998091 
L 313.30766 231.392301 
L 314.012842 226.114814 
L 313.0726 216.491161 
L 315.775797 208.574931 
L 315.305675 204.073545 
L 314.012842 199.882599 
L 309.899282 190.724607 
L 309.899282 187.775423 
L 311.192115 181.877056 
L 315.893327 173.184724 
L 319.301706 168.062458 
L 324.473039 162.00887 
L 335.168296 150.522575 
L 337.283841 145.400308 
L 336.69619 135.621435 
L 336.81372 130.188728 
L 339.046796 115.908469 
L 340.457159 112.183184 
L 344.68825 106.905698 
L 354.208204 100.696889 
L 355.971158 98.368586 
L 356.44128 95.108962 
L 355.383507 92.159778 
L 351.269946 89.210594 
L 347.744038 89.055374 
L 344.453189 90.297136 
L 340.339629 93.24632 
L 334.815705 95.264182 
L 331.759917 94.488081 
L 329.291781 92.004558 
L 329.996963 85.48531 
L 337.989023 76.172097 
L 342.925295 67.169326 
L 345.275901 58.942655 
L 345.275901 54.906929 
L 343.160356 50.095103 
L 335.755947 43.420634 
L 330.937205 40.00579 
L 325.883402 37.367047 
L 317.891342 34.883523 
L 314.835554 35.504404 
L 309.31163 34.262642 
L 306.020782 32.4 
L 301.789691 33.331321 
L 299.086494 34.883523 
L 295.678116 40.937111 
L 295.207994 44.662396 
L 297.32354 50.250323 
L 305.903252 55.06215 
L 309.781751 60.339637 
L 310.604463 66.393225 
L 312.602479 72.757253 
L 313.660251 78.34518 
L 313.542721 81.294364 
L 311.074585 86.882291 
L 308.371388 90.452356 
L 302.612403 95.108962 
L 295.325525 97.747706 
L 292.622328 99.299908 
L 289.68407 103.490853 
L 286.393222 111.407083 
L 282.749783 115.753249 
L 266.648132 123.8247 
L 262.181981 127.860425 
L 258.656072 132.361811 
L 253.014618 142.295904 
L 248.665997 153.937419 
L 243.847254 161.077549 
L 239.381103 165.268494 
L 235.267543 167.752017 
L 231.153982 171.787743 
L 228.803376 177.065229 
L 228.450785 179.548753 
L 228.568316 189.172405 
L 226.21771 195.225993 
L 222.22168 198.640838 
L 204.592135 208.574931 
L 197.305257 216.646381 
L 192.368984 223.941731 
L 190.135908 229.529658 
L 189.430727 235.272806 
L 190.60603 246.914321 
L 194.71959 261.19458 
L 194.83712 263.212442 
L 192.956635 267.248168 
L 187.902833 275.785279 
L 183.554212 281.217986 
L 178.853 285.719372 
L 171.21353 291.462519 
L 168.510334 295.808685 
L 167.687621 298.602649 
L 166.864909 307.13976 
L 166.864909 315.05599 
L 163.574061 322.66178 
L 160.518273 326.542285 
L 150.528198 334.924176 
L 143.006259 343.306067 
L 137.599865 351.067077 
L 134.309017 354.637142 
L 122.085866 363.950354 
L 118.677487 366.899538 
L 113.741215 373.574007 
L 111.97826 377.764952 
L 105.631624 386.922944 
L 97.522034 394.373514 
L 93.290943 394.528734 
L 85.063822 390.95867 
L 82.008034 390.493009 
L 71.547838 384.905082 
L 57.326672 376.833631 
L 52.860521 374.815768 
L 47.924248 371.711364 
L 25.946082 359.604188 
L 23.830537 356.655005 
L 30.882355 347.341792 
L 34.525794 341.443425 
L 36.288749 336.942039 
L 40.519839 330.42279 
L 44.985991 332.130213 
L 44.985991 332.130213 
" clip-path="url(#p3eed6f4217)" style="fill: none; stroke: #000000; stroke-width: 3"/>
   </g>
  </g>
 </g>
 <defs>
  <clipPath id="p3eed6f4217">
   <rect x="7.2" y="7.2" width="365.871817" height="554.4"/>
  </clipPath>
 </defs>
</svg>
