<?xml version="1.0" encoding="utf-8" standalone="no"?>
<!DOCTYPE svg PUBLIC "-//W3C//DTD SVG 1.1//EN"
  "http://www.w3.org/Graphics/SVG/1.1/DTD/svg11.dtd">
<svg xmlns:xlink="http://www.w3.org/1999/xlink" width="502.543949pt" height="568.8pt" viewBox="0 0 502.543949 568.8" xmlns="http://www.w3.org/2000/svg" version="1.1">
 <metadata>
  <rdf:RDF xmlns:dc="http://purl.org/dc/elements/1.1/" xmlns:cc="http://creativecommons.org/ns#" xmlns:rdf="http://www.w3.org/1999/02/22-rdf-syntax-ns#">
   <cc:Work>
    <dc:type rdf:resource="http://purl.org/dc/dcmitype/StillImage"/>
    <dc:date>2023-09-25T14:14:14.893894</dc:date>
    <dc:format>image/svg+xml</dc:format>
    <dc:creator>
     <cc:Agent>
      <dc:title>Matplotlib v3.6.2, https://matplotlib.org/</dc:title>
     </cc:Agent>
    </dc:creator>
   </cc:Work>
  </rdf:RDF>
 </metadata>
 <defs>
  <style type="text/css">*{stroke-linejoin: round; stroke-linecap: butt}</style>
 </defs>
 <g id="figure_1">
  <g id="patch_1">
   <path d="M 0 568.8 
L 502.543949 568.8 
L 502.543949 0 
L 0 0 
z
" style="fill: #ffffff"/>
  </g>
  <g id="axes_1">
   <g id="LineCollection_1">
    <path d="M 137.190305 479.724191 
L 129.445311 473.641909 
L 119.8164 470.877235 
L 112.071406 465.347888 
L 107.675598 465.071421 
L 96.372094 459.542074 
L 91.976286 460.371476 
L 84.859265 452.906857 
L 82.13805 447.930444 
L 74.602381 444.889303 
L 64.764145 439.083489 
L 61.624282 435.76588 
L 48.855508 428.854196 
L 46.552943 430.236533 
L 31.272279 422.21898 
L 29.388361 415.583763 
L 30.434982 411.71322 
L 39.017273 394.019309 
L 45.92497 386.278223 
L 71.253194 354.208009 
L 70.834546 348.402194 
L 83.60332 333.472957 
L 89.045748 328.220077 
L 90.720341 324.349534 
L 97.837363 315.779046 
L 99.72128 307.208557 
L 103.070467 299.743939 
L 103.070467 289.238179 
L 104.74506 279.838289 
L 104.535736 272.097202 
L 106.001005 259.932639 
L 104.954384 242.238727 
L 109.978164 235.050576 
L 111.652757 227.862425 
L 118.560455 218.186067 
L 121.490993 211.274383 
L 127.35207 203.256829 
L 133.841119 190.539331 
L 140.330168 179.757104 
L 140.330168 173.121887 
L 137.818278 175.886561 
L 142.842058 175.057159 
L 148.703134 167.869007 
L 149.121783 164.551399 
L 152.889618 164.551399 
L 166.705012 158.469117 
L 178.217841 149.345694 
L 187.846753 136.351728 
L 193.498505 123.634229 
L 196.638368 121.146023 
L 199.359582 115.063741 
L 201.034175 103.728579 
L 202.918093 99.581569 
L 203.964713 81.334723 
L 208.151197 70.276029 
L 221.757267 55.899726 
L 243.317656 38.205815 
L 249.597381 32.4 
L 262.994128 36.823478 
L 274.716281 46.776303 
L 281.20533 49.540976 
L 286.647758 48.711574 
L 294.183428 55.899726 
L 302.765719 58.940867 
L 309.673416 63.640812 
L 313.441251 63.917279 
L 317.41841 67.511355 
L 328.303266 74.146572 
L 334.164343 76.634778 
L 343.165282 76.081843 
L 355.306084 82.164125 
L 363.888374 84.652331 
L 377.703769 94.052222 
L 382.099576 100.687438 
L 391.937812 101.240373 
L 403.031993 105.663851 
L 404.706586 108.981459 
L 418.312657 116.169611 
L 432.128051 118.934284 
L 440.919666 126.398903 
L 446.362095 132.481185 
L 453.68844 133.863522 
L 450.339254 145.751618 
L 451.17655 152.386835 
L 458.084248 159.851454 
L 463.108028 168.698409 
L 466.875863 168.974877 
L 473.155587 172.84542 
L 464.991945 178.0983 
L 459.968165 173.398354 
L 451.17655 169.251344 
L 448.036688 169.527811 
L 441.756963 179.757104 
L 433.383996 196.621613 
L 428.778865 199.662754 
L 425.848327 209.892046 
L 422.289816 212.65672 
L 413.498201 229.797696 
L 409.102394 236.156445 
L 406.381179 242.791662 
L 399.682806 252.191552 
L 396.542944 261.038508 
L 388.79795 271.820735 
L 386.914032 276.52068 
L 381.26228 284.261766 
L 377.703769 293.385189 
L 372.052017 300.296873 
L 368.70283 307.761492 
L 355.934056 331.261218 
L 351.747573 337.067032 
L 346.514469 350.337466 
L 341.281365 358.078552 
L 331.861777 374.943061 
L 327.047322 385.725288 
L 314.90652 405.354471 
L 309.254768 418.624904 
L 301.719098 428.854196 
L 293.76478 443.783434 
L 290.415593 452.077455 
L 285.182489 459.818541 
L 282.042626 467.559627 
L 267.808583 490.506418 
L 251.690623 520.917828 
L 242.689684 536.123533 
L 240.387118 536.4 
L 213.593625 520.364893 
L 195.801071 507.923862 
L 183.869594 503.223917 
L 162.727853 491.059353 
L 139.91152 479.171256 
L 139.91152 479.171256 
" clip-path="url(#pa0075a4357)" style="fill: none; stroke: #000000; stroke-width: 3"/>
   </g>
  </g>
 </g>
 <defs>
  <clipPath id="pa0075a4357">
   <rect x="7.2" y="7.2" width="488.143949" height="554.4"/>
  </clipPath>
 </defs>
</svg>
