<?xml version="1.0" encoding="utf-8" standalone="no"?>
<!DOCTYPE svg PUBLIC "-//W3C//DTD SVG 1.1//EN"
  "http://www.w3.org/Graphics/SVG/1.1/DTD/svg11.dtd">
<svg xmlns:xlink="http://www.w3.org/1999/xlink" width="328.048961pt" height="568.8pt" viewBox="0 0 328.048961 568.8" xmlns="http://www.w3.org/2000/svg" version="1.1">
 <metadata>
  <rdf:RDF xmlns:dc="http://purl.org/dc/elements/1.1/" xmlns:cc="http://creativecommons.org/ns#" xmlns:rdf="http://www.w3.org/1999/02/22-rdf-syntax-ns#">
   <cc:Work>
    <dc:type rdf:resource="http://purl.org/dc/dcmitype/StillImage"/>
    <dc:date>2023-09-25T14:14:14.357506</dc:date>
    <dc:format>image/svg+xml</dc:format>
    <dc:creator>
     <cc:Agent>
      <dc:title>Matplotlib v3.6.2, https://matplotlib.org/</dc:title>
     </cc:Agent>
    </dc:creator>
   </cc:Work>
  </rdf:RDF>
 </metadata>
 <defs>
  <style type="text/css">*{stroke-linejoin: round; stroke-linecap: butt}</style>
 </defs>
 <g id="figure_1">
  <g id="patch_1">
   <path d="M 0 568.8 
L 328.048961 568.8 
L 328.048961 0 
L 0 0 
z
" style="fill: #ffffff"/>
  </g>
  <g id="axes_1">
   <g id="LineCollection_1">
    <path d="M 124.450891 205.587792 
L 124.519417 204.321005 
L 123.491532 204.230521 
L 120.750504 202.149372 
L 118.42063 201.335009 
L 116.913065 200.249192 
L 116.296334 200.97307 
L 114.857294 204.954399 
L 114.514665 208.845242 
L 113.829408 211.197846 
L 112.321843 212.102693 
L 110.060495 219.793896 
L 109.717867 224.951526 
L 108.55293 225.675404 
L 104.167285 223.865709 
L 102.522669 222.870377 
L 101.563309 223.594255 
L 99.781641 222.779892 
L 100.672475 222.146499 
L 97.040613 220.427289 
L 91.901186 217.441293 
L 91.078878 215.450628 
L 84.226308 211.197846 
L 79.840664 209.478636 
L 75.59207 208.211849 
L 72.782517 209.116697 
L 72.234311 210.473968 
L 67.848667 216.536445 
L 65.861422 222.417953 
L 65.176165 225.765889 
L 63.325971 232.009336 
L 62.435137 233.638061 
L 61.133149 237.981329 
L 57.158658 245.401077 
L 54.075002 249.65386 
L 50.374614 254.087612 
L 46.537175 258.068941 
L 46.46865 259.064273 
L 48.798523 260.873968 
L 52.224808 262.864632 
L 52.567437 263.950449 
L 51.265448 264.674327 
L 50.374614 267.207899 
L 48.524421 267.479354 
L 47.633587 272.998923 
L 47.016855 274.446679 
L 48.387369 276.165889 
L 49.894935 276.980251 
L 51.676603 279.151885 
L 49.826409 280.509156 
L 48.250318 282.861759 
L 46.46865 283.947576 
L 46.194547 282.771275 
L 46.057496 294.443806 
L 44.961085 297.882226 
L 43.453519 293.810413 
L 41.260697 298.696589 
L 41.397748 304.940036 
L 40.164286 307.473609 
L 38.588195 304.397127 
L 36.60095 308.921364 
L 34.134025 312.721724 
L 32.557934 313.174147 
L 30.70774 318.241293 
L 31.6671 319.689048 
L 33.859922 321.589228 
L 35.847167 324.575224 
L 38.314092 327.018312 
L 42.425634 329.370916 
L 43.796148 330.728187 
L 46.674227 332.266427 
L 47.770638 333.352244 
L 52.910065 336.428725 
L 58.049492 340.1386 
L 62.22956 342.853142 
L 62.914817 344.029443 
L 67.780141 346.83447 
L 68.054244 348.101257 
L 66.478153 350.634829 
L 64.696485 356.516338 
L 60.584943 361.492998 
L 60.242315 363.121724 
L 57.364235 367.284022 
L 56.404876 370.270018 
L 48.524421 384.204668 
L 48.181792 386.104847 
L 51.196923 388.63842 
L 54.349105 391.714901 
L 56.130773 392.167325 
L 58.597698 394.519928 
L 64.148279 397.143986 
L 66.889307 395.877199 
L 67.711615 392.800718 
L 63.531548 389.995691 
L 62.161034 388.276481 
L 59.488532 387.009695 
L 56.747504 384.838061 
L 52.567437 383.29982 
L 51.4025 382.485458 
L 49.894935 383.661759 
L 49.415255 384.928546 
L 47.42801 386.91921 
L 45.714867 389.633752 
L 44.275828 394.519928 
L 42.494159 397.23447 
L 39.547555 403.749372 
L 37.971464 406.101975 
L 37.628835 408.002154 
L 35.367487 411.712029 
L 33.243191 413.883662 
L 30.981843 417.412567 
L 28.583443 422.298743 
L 26.25357 425.465709 
L 24.129273 427.818312 
L 22.142028 432.794973 
L 21.456771 433.337882 
L 22.758759 434.333214 
L 24.33485 438.495512 
L 26.185044 441.300539 
L 26.25357 442.386355 
L 28.926072 444.105566 
L 32.078254 446.910592 
L 36.189795 448.539318 
L 37.217681 450.620467 
L 40.09576 451.434829 
L 45.02961 454.782765 
L 49.826409 456.954399 
L 51.128397 456.501975 
L 56.884556 459.759425 
L 57.432761 461.026212 
L 59.077378 461.297666 
L 62.777765 463.107361 
L 69.630335 466.90772 
L 70.795272 466.998205 
L 70.384118 471.884381 
L 71.61758 474.508438 
L 72.028734 477.22298 
L 75.043865 476.680072 
L 76.894059 478.94219 
L 81.759383 482.109156 
L 84.431885 484.371275 
L 86.41913 487.71921 
L 86.89881 489.43842 
L 88.81753 491.429084 
L 88.81753 492.967325 
L 90.736249 494.234111 
L 94.299585 495.500898 
L 96.081253 497.129623 
L 102.18004 500.749013 
L 104.372862 500.839497 
L 107.250942 502.015799 
L 109.443764 503.37307 
L 113.829408 505.27325 
L 117.392745 508.440215 
L 118.694733 508.71167 
L 119.791144 510.43088 
L 124.999097 513.326391 
L 127.191919 512.964452 
L 130.275575 516.040934 
L 135.209425 518.845961 
L 138.704236 519.931777 
L 142.199046 521.831957 
L 144.391869 524.003591 
L 154.39662 529.885099 
L 159.056367 532.78061 
L 160.632458 533.142549 
L 166.525668 536.4 
L 168.033234 535.676122 
L 169.403748 532.147217 
L 169.609325 529.52316 
L 169.951953 532.418671 
L 171.802147 529.613645 
L 174.337598 526.446679 
L 176.461894 521.650987 
L 179.819653 515.40754 
L 181.121641 514.502693 
L 185.370235 505.001795 
L 185.644337 504.006463 
L 188.248314 499.93465 
L 189.413251 496.586715 
L 192.29133 491.700539 
L 193.730369 490.524237 
L 196.334346 485.728546 
L 198.938322 480.208977 
L 201.268196 478.489767 
L 202.15903 476.137163 
L 202.15903 474.327469 
L 199.280951 471.793896 
L 188.727994 465.912388 
L 184.547926 463.28833 
L 183.725618 463.197846 
L 172.624455 456.954399 
L 172.487404 455.506643 
L 173.789392 453.877917 
L 173.857918 452.339677 
L 178.106511 444.829443 
L 178.243562 444.105566 
L 181.875424 437.862118 
L 187.288954 427.999282 
L 189.344725 424.560862 
L 189.824405 422.841652 
L 191.126393 421.303411 
L 192.976587 417.774506 
L 194.415626 413.702693 
L 195.374986 413.250269 
L 197.567808 409.902334 
L 199.349476 408.726032 
L 198.527168 407.91167 
L 202.227556 401.668223 
L 205.311212 394.972352 
L 201.131145 397.958348 
L 199.418002 398.501257 
L 207.709611 390.5386 
L 211.135896 384.204668 
L 212.574936 382.214004 
L 215.727118 376.332496 
L 216.343849 373.075045 
L 220.455391 367.645961 
L 221.483276 365.745781 
L 221.277699 363.574147 
L 222.237059 361.221544 
L 224.978087 359.23088 
L 227.102383 356.063914 
L 226.005972 353.982765 
L 222.922316 352.354039 
L 217.577311 347.196409 
L 212.163782 343.486535 
L 209.833908 342.400718 
L 206.544674 339.867145 
L 202.433133 337.514542 
L 199.555054 336.247756 
L 196.128769 336.066786 
L 191.194919 333.623698 
L 188.316839 331.18061 
L 185.027606 329.4614 
L 185.164657 327.289767 
L 187.426005 323.851346 
L 188.111262 321.589228 
L 190.37261 318.150808 
L 192.77101 313.626571 
L 194.072998 308.107002 
L 192.359856 306.206822 
L 188.933571 304.125673 
L 187.288954 301.954039 
L 191.81165 298.787074 
L 192.77101 297.339318 
L 192.017227 294.443806 
L 191.743124 291.27684 
L 193.319215 287.476481 
L 195.923192 285.033393 
L 198.047488 282.047397 
L 200.514413 276.075404 
L 200.24031 271.460682 
L 198.664219 267.931777 
L 198.116014 265.217235 
L 198.869797 261.416876 
L 200.171785 259.245242 
L 203.392492 255.625853 
L 209.354228 251.282585 
L 210.450639 250.196768 
L 211.204422 247.301257 
L 210.656216 243.953321 
L 213.054616 237.709874 
L 213.671347 234.542908 
L 215.247438 229.475763 
L 218.262568 223.50377 
L 219.564557 221.694075 
L 223.744624 217.622262 
L 225.663344 215.179174 
L 227.582063 212.012208 
L 229.363731 207.487971 
L 232.584439 201.515978 
L 235.188415 198.439497 
L 238.477649 196.539318 
L 242.657716 195.001077 
L 244.302333 195.001077 
L 248.276823 195.996409 
L 252.114262 195.724955 
L 254.786764 194.548654 
L 258.281575 190.65781 
L 262.80427 182.785637 
L 266.16203 176.361221 
L 269.588314 170.479713 
L 273.083125 163.964811 
L 278.702232 154.01149 
L 281.100631 148.67289 
L 281.648837 146.139318 
L 281.511785 141.072172 
L 281.854414 137.633752 
L 282.539671 134.738241 
L 282.539671 132.023698 
L 282.059991 130.304488 
L 280.00422 126.32316 
L 279.181912 123.880072 
L 279.730117 120.079713 
L 282.539671 114.10772 
L 287.199418 107.321364 
L 293.161154 101.258887 
L 294.600193 99.177738 
L 295.353976 96.101257 
L 294.942822 92.029443 
L 295.011347 89.67684 
L 296.24481 82.166607 
L 297.20417 78.547217 
L 299.25994 75.651706 
L 301.589814 73.842011 
L 305.906933 71.127469 
L 306.59219 69.408259 
L 306.523664 67.598564 
L 305.495779 65.969838 
L 302.823277 64.703052 
L 299.25994 65.788869 
L 295.696604 68.593896 
L 293.092628 68.593896 
L 290.899806 66.784201 
L 290.557177 65.155476 
L 291.31096 62.802873 
L 294.120513 59.726391 
L 296.793015 56.287971 
L 300.013723 49.77307 
L 300.561929 47.058528 
L 299.534043 43.167684 
L 295.970707 39.095871 
L 292.338845 36.471813 
L 287.953201 34.481149 
L 284.321339 34.11921 
L 283.224928 33.576302 
L 279.935694 33.485817 
L 277.948449 32.4 
L 275.138896 32.671454 
L 272.946073 34.481149 
L 271.575559 37.467145 
L 271.781137 40.905566 
L 274.248062 43.258169 
L 277.742872 44.796409 
L 279.935694 47.510952 
L 280.141271 50.496948 
L 282.059991 55.11167 
L 282.059991 59.092998 
L 280.209797 63.617235 
L 278.428129 66.060323 
L 276.920564 67.32711 
L 270.13652 71.217953 
L 268.69748 72.394255 
L 266.641709 75.470736 
L 266.16203 77.913824 
L 264.037733 81.08079 
L 255.197918 84.609695 
L 251.360479 87.595691 
L 248.276823 92.572352 
L 245.878424 97.729982 
L 243.342973 103.79246 
L 241.629831 106.597487 
L 239.779637 108.588151 
L 234.64021 111.755117 
L 233.406747 113.383842 
L 232.310336 116.641293 
L 232.310336 122.432316 
L 231.693605 125.870736 
L 230.939822 127.499461 
L 229.021103 129.309156 
L 221.962956 132.295153 
L 218.39962 134.376302 
L 215.521541 137.271813 
L 212.574936 141.162657 
L 210.861793 144.058169 
L 209.902434 146.501257 
L 209.491279 150.663555 
L 209.970959 155.821185 
L 212.095256 163.331418 
L 211.889679 167.312747 
L 210.450639 170.841652 
L 207.435509 175.094434 
L 204.077749 178.623339 
L 199.760631 181.790305 
L 197.22518 185.047756 
L 196.471397 187.943268 
L 196.26582 191.562657 
L 196.402872 195.81544 
L 195.923192 198.439497 
L 194.210049 201.515978 
L 191.606073 204.321005 
L 188.111262 206.945063 
L 183.999721 211.016876 
L 181.806898 213.640934 
L 178.243562 218.708079 
L 175.845163 221.151167 
L 170.500159 225.22298 
L 166.799771 228.480431 
L 165.018103 231.194973 
L 160.28983 239.429084 
L 157.685854 242.867504 
L 155.630083 244.043806 
L 152.409375 243.229443 
L 146.173537 240.062478 
L 114.309088 222.327469 
L 114.034986 220.970197 
L 115.268448 219.250987 
L 115.542551 217.079354 
L 116.776013 214.817235 
L 117.392745 212.645601 
L 118.763259 211.28833 
L 121.846915 205.678276 
L 125.752879 206.945063 
L 125.752879 206.945063 
" clip-path="url(#p1080626373)" style="fill: none; stroke: #000000; stroke-width: 3"/>
   </g>
  </g>
 </g>
 <defs>
  <clipPath id="p1080626373">
   <rect x="7.2" y="7.2" width="313.648961" height="554.4"/>
  </clipPath>
 </defs>
</svg>
