<?xml version="1.0" encoding="utf-8" standalone="no"?>
<!DOCTYPE svg PUBLIC "-//W3C//DTD SVG 1.1//EN"
  "http://www.w3.org/Graphics/SVG/1.1/DTD/svg11.dtd">
<svg xmlns:xlink="http://www.w3.org/1999/xlink" width="329.665691pt" height="568.8pt" viewBox="0 0 329.665691 568.8" xmlns="http://www.w3.org/2000/svg" version="1.1">
 <metadata>
  <rdf:RDF xmlns:dc="http://purl.org/dc/elements/1.1/" xmlns:cc="http://creativecommons.org/ns#" xmlns:rdf="http://www.w3.org/1999/02/22-rdf-syntax-ns#">
   <cc:Work>
    <dc:type rdf:resource="http://purl.org/dc/dcmitype/StillImage"/>
    <dc:date>2023-09-25T14:14:13.941669</dc:date>
    <dc:format>image/svg+xml</dc:format>
    <dc:creator>
     <cc:Agent>
      <dc:title>Matplotlib v3.6.2, https://matplotlib.org/</dc:title>
     </cc:Agent>
    </dc:creator>
   </cc:Work>
  </rdf:RDF>
 </metadata>
 <defs>
  <style type="text/css">*{stroke-linejoin: round; stroke-linecap: butt}</style>
 </defs>
 <g id="figure_1">
  <g id="patch_1">
   <path d="M 0 568.8 
L 329.665691 568.8 
L 329.665691 0 
L 0 0 
z
" style="fill: #ffffff"/>
  </g>
  <g id="axes_1">
   <g id="LineCollection_1">
    <path d="M 128.051409 130.498632 
L 124.781948 128.409946 
L 123.410883 130.707501 
L 121.40702 132.587319 
L 119.561357 136.207708 
L 117.293827 138.992623 
L 117.188361 139.967344 
L 119.192224 141.707915 
L 121.143354 142.334521 
L 122.514418 144.353585 
L 123.094484 145.885288 
L 122.936284 146.999254 
L 124.043682 148.391712 
L 126.469411 150.271529 
L 128.842407 151.455118 
L 128.789674 153.19569 
L 127.049477 157.233817 
L 119.930489 170.183672 
L 119.192224 171.784998 
L 116.344629 176.171239 
L 115.184497 178.468794 
L 111.756837 184.525984 
L 110.596705 187.102031 
L 109.120175 189.190717 
L 106.852645 193.159221 
L 103.635917 199.286034 
L 102.370319 202.210195 
L 101.262921 203.602652 
L 99.100858 208.197762 
L 98.889925 209.172482 
L 97.413395 211.609283 
L 96.51693 212.305512 
L 95.304065 214.185329 
L 94.882199 215.64741 
L 93.300202 218.362702 
L 91.981871 219.964028 
L 89.081542 225.255367 
L 88.026878 227.76179 
L 86.44488 230.825197 
L 84.546484 233.958226 
L 83.228152 236.743141 
L 82.173488 237.996353 
L 80.644224 241.825611 
L 77.902095 247.047327 
L 76.531031 248.300539 
L 75.107233 247.743556 
L 75.001767 245.654869 
L 73.10337 245.376378 
L 71.257706 243.705429 
L 67.144513 241.54712 
L 65.509783 241.05976 
L 62.714921 239.736925 
L 62.029389 240.154662 
L 61.449323 242.382594 
L 60.605591 242.869954 
L 59.023594 246.072607 
L 57.125197 248.57903 
L 55.385 251.363945 
L 52.959271 256.028678 
L 54.330336 257.560381 
L 55.385 257.76925 
L 66.669914 263.617571 
L 66.511715 263.199834 
L 70.677641 265.567012 
L 73.367036 267.93419 
L 74.790834 268.769664 
L 76.267364 268.212681 
L 77.902095 266.263241 
L 71.837772 272.807791 
L 71.15224 273.921757 
L 73.841635 276.149689 
L 74.7381 278.238375 
L 73.894369 281.928388 
L 72.839704 284.922172 
L 72.892437 287.289349 
L 72.523304 288.821053 
L 70.572174 291.397099 
L 68.568311 295.852963 
L 67.830046 296.758061 
L 69.992109 299.334107 
L 70.255775 300.239204 
L 70.572174 304.834314 
L 70.413975 308.176212 
L 70.677641 309.150932 
L 72.628771 310.613013 
L 73.525236 312.353585 
L 73.788902 315.347368 
L 79.167693 307.479983 
L 81.171556 306.644509 
L 83.333619 307.688852 
L 84.862883 309.429424 
L 89.872541 312.492831 
L 89.767075 315.1385 
L 90.452607 316.11322 
L 90.821739 314.929631 
L 92.561936 313.328305 
L 93.458402 313.049814 
L 91.454538 316.461334 
L 91.770938 318.062661 
L 91.085406 320.429838 
L 90.241674 320.499461 
L 89.345209 322.309656 
L 89.556142 325.233817 
L 89.081542 328.018732 
L 87.552278 329.271944 
L 87.868678 330.525155 
L 86.075748 333.518939 
L 85.548415 335.538002 
L 104.426916 361.36809 
L 83.808218 339.784998 
L 83.017219 341.03821 
L 82.753553 342.918027 
L 82.015288 344.380108 
L 82.331687 346.190303 
L 81.435222 350.228429 
L 80.696957 350.576544 
L 80.433291 351.829755 
L 79.589559 352.734853 
L 78.851293 354.475425 
L 77.374763 356.494488 
L 74.052568 364.083382 
L 72.101438 367.216411 
L 72.206905 368.260754 
L 71.204973 369.444343 
L 70.730374 371.533029 
L 68.990177 373.273601 
L 67.513646 376.615499 
L 66.880847 378.56494 
L 66.142582 379.400414 
L 63.400453 384.62213 
L 63.242254 385.805719 
L 61.55479 388.172897 
L 60.394658 390.888189 
L 58.759928 392.976875 
L 57.230664 395.901036 
L 54.804935 399.034065 
L 54.857668 400.078409 
L 52.484672 403.350684 
L 52.273739 404.812764 
L 51.219074 407.388811 
L 50.00621 408.850891 
L 48.582412 411.357315 
L 47.89688 413.863738 
L 49.373411 413.446001 
L 42.781755 421.731123 
L 41.199758 425.212267 
L 37.719364 430.85172 
L 35.293635 435.93419 
L 33.184305 438.301368 
L 32.973372 439.276088 
L 31.233175 443.035723 
L 29.018379 446.238375 
L 27.752781 449.441028 
L 25.748918 452.295566 
L 23.586855 453.896892 
L 22.743123 455.010858 
L 24.166921 457.935019 
L 26.961783 459.675591 
L 28.807446 461.34654 
L 29.545712 461.137671 
L 30.811309 461.8339 
L 31.022242 463.435226 
L 30.969509 466.91637 
L 30.231244 468.726564 
L 28.754713 471.024119 
L 26.43445 475.201492 
L 26.328984 477.220555 
L 25.379785 478.264898 
L 24.430587 478.125653 
L 23.059523 480.423208 
L 23.270456 481.119436 
L 21.530259 483.904351 
L 22.373991 487.176627 
L 23.745055 489.613427 
L 23.745055 490.588148 
L 25.168852 491.702114 
L 26.223517 494.069291 
L 26.487183 495.461749 
L 29.862111 495.600995 
L 31.549575 497.689681 
L 34.23897 498.38591 
L 35.451835 499.291007 
L 40.936092 502.354414 
L 42.20169 503.259511 
L 47.105881 505.765935 
L 54.119403 509.734438 
L 55.226801 511.057273 
L 58.021663 512.240862 
L 59.339994 512.519354 
L 62.662188 514.051057 
L 66.037115 516.627103 
L 69.886642 518.437298 
L 75.581832 521.570327 
L 79.431359 524.076751 
L 81.540689 524.981848 
L 89.819808 529.576958 
L 92.509203 530.899793 
L 95.409531 532.709988 
L 102.05392 536.4 
L 103.266785 536.260754 
L 104.796049 534.102445 
L 107.010845 530.412433 
L 109.647507 525.329963 
L 117.873893 510.569913 
L 117.399294 509.03821 
L 117.979359 508.759718 
L 117.82116 506.044426 
L 118.295759 501.658185 
L 117.768426 498.38591 
L 118.084826 497.550435 
L 117.610227 494.904766 
L 118.137559 492.607211 
L 117.452027 488.847576 
L 116.133696 486.480398 
L 114.288032 481.467551 
L 113.9189 478.404144 
L 113.971633 476.524327 
L 114.815365 470.884874 
L 116.344629 467.960713 
L 115.184497 466.568255 
L 112.547835 465.175798 
L 114.604432 463.574472 
L 116.291896 461.555408 
L 117.979359 458.909739 
L 119.192224 456.333692 
L 120.721488 454.801989 
L 122.092552 451.738583 
L 123.727283 446.377621 
L 125.098347 440.390054 
L 124.940147 439.833071 
L 125.783879 436.630419 
L 125.098347 433.497389 
L 125.520213 431.617571 
L 124.992881 431.269457 
L 124.465548 432.522669 
L 129.36974 425.490758 
L 130.477138 422.984335 
L 131.268136 420.269043 
L 132.744667 417.344882 
L 134.168465 416.439785 
L 135.434063 414.351098 
L 135.908662 412.680149 
L 139.969121 405.43937 
L 141.709318 403.002569 
L 140.91832 405.021633 
L 138.914457 407.528056 
L 136.963327 409.477497 
L 135.855929 411.635806 
L 135.012197 411.98392 
L 132.902867 410.869954 
L 130.84627 409.199005 
L 129.264273 408.363531 
L 126.891277 408.015416 
L 126.891277 406.762205 
L 129.317006 403.072192 
L 131.795469 398.825197 
L 132.322801 398.477082 
L 134.432131 394.856693 
L 137.121526 391.16668 
L 139.441789 387.058931 
L 140.707387 383.925901 
L 142.447584 381.140986 
L 144.187781 377.172482 
L 145.136979 375.780025 
L 149.250172 367.703771 
L 150.568503 366.798674 
L 151.781368 365.058102 
L 154.787163 359.279403 
L 156.36916 356.77298 
L 156.158227 356.007128 
L 156.843759 354.475425 
L 157.845691 353.431082 
L 160.218687 352.247493 
L 161.800684 351.063904 
L 161.326085 350.437298 
L 161.273351 347.165023 
L 160.746019 347.165023 
L 162.486216 344.240862 
L 162.06435 343.892748 
L 164.701012 339.854621 
L 166.230276 336.791214 
L 167.390408 335.329134 
L 167.865007 333.936676 
L 169.816137 331.012516 
L 169.86887 329.968172 
L 171.398134 327.392126 
L 172.716465 324.676834 
L 175.458594 319.942478 
L 176.882391 317.853792 
L 177.198791 316.739826 
L 179.149921 312.910568 
L 181.470183 309.150932 
L 183.315847 305.321674 
L 186.848974 299.542976 
L 188.483705 296.201077 
L 192.385965 289.169167 
L 193.546096 287.567841 
L 196.024558 282.276502 
L 200.61235 274.617986 
L 202.194348 271.136842 
L 203.354479 269.814007 
L 205.094676 266.402487 
L 206.254807 264.661915 
L 207.045806 262.503605 
L 209.629735 257.76925 
L 210.262534 256.098301 
L 211.528132 254.496975 
L 211.369932 253.452632 
L 212.688263 251.2247 
L 214.322993 249.484128 
L 216.432323 245.654869 
L 217.065122 244.958641 
L 219.96545 238.831828 
L 223.023978 233.679735 
L 227.189905 225.81235 
L 228.139103 224.419892 
L 230.142966 220.590634 
L 238.474819 205.830584 
L 239.740416 203.881144 
L 243.748143 196.431496 
L 245.435607 192.811107 
L 248.388668 188.007128 
L 249.865199 185.918442 
L 250.392531 184.595607 
L 251.658129 183.272772 
L 253.451059 179.165023 
L 254.76939 177.494074 
L 255.982255 174.98765 
L 257.353319 172.968587 
L 257.458786 171.993867 
L 258.618917 169.278574 
L 260.253648 166.424036 
L 262.89031 161.341567 
L 264.735973 158.556651 
L 267.372635 152.986821 
L 268.796433 150.898135 
L 271.485828 146.16378 
L 272.224094 144.353585 
L 275.440822 138.505263 
L 280.503213 129.593535 
L 284.563672 121.935019 
L 286.673002 118.801989 
L 287.991333 115.66896 
L 291.102595 110.168753 
L 294.793922 103.972317 
L 296.797785 99.864567 
L 301.649243 91.300953 
L 302.862108 87.889432 
L 305.235104 84.826026 
L 308.135432 79.465064 
L 307.608099 78.14223 
L 304.655038 76.540903 
L 302.809374 76.053543 
L 302.176576 75.426937 
L 297.325117 72.642022 
L 291.418994 69.578616 
L 287.464001 67.350684 
L 284.458206 66.445586 
L 280.503213 63.799917 
L 279.501281 63.521426 
L 268.058168 57.185744 
L 267.689035 56.071778 
L 264.735973 54.540075 
L 263.206709 54.400829 
L 254.558457 49.457605 
L 250.445265 47.299295 
L 248.125002 48.970245 
L 245.962939 48.830999 
L 241.638813 46.951181 
L 234.783492 43.330792 
L 231.092165 41.868711 
L 230.090233 42.495317 
L 228.455502 42.634563 
L 228.191836 43.191546 
L 226.029773 42.495317 
L 224.131377 42.56494 
L 220.229117 39.780025 
L 217.856121 37.064733 
L 215.957724 35.602652 
L 213.690195 34.627932 
L 211.211732 34.001326 
L 206.149341 33.235475 
L 202.56348 32.4 
L 200.717817 33.722835 
L 198.97762 36.02039 
L 198.766687 37.691339 
L 199.504952 39.849648 
L 200.717817 40.754745 
L 203.829078 41.799088 
L 205.200142 42.704186 
L 206.149341 44.792872 
L 206.518474 48.482884 
L 207.731338 51.894405 
L 207.045806 55.514795 
L 205.411075 58.021218 
L 203.881811 59.552922 
L 201.456082 61.015002 
L 198.81942 61.850477 
L 196.973757 63.034065 
L 195.708159 64.705015 
L 194.389828 68.46465 
L 192.175032 70.41409 
L 186.848974 72.363531 
L 184.475978 73.895234 
L 182.208449 76.610526 
L 179.30812 81.971488 
L 177.620657 86.705843 
L 175.511327 90.326233 
L 173.243797 92.066805 
L 171.82 92.763034 
L 169.394271 95.269457 
L 168.708739 97.358143 
L 168.550539 99.44683 
L 168.708739 102.510236 
L 168.286873 104.459677 
L 166.968542 106.409117 
L 165.492011 107.45346 
L 161.958884 109.124409 
L 160.693286 109.402901 
L 157.792957 111.213096 
L 154.57623 114.69424 
L 152.941499 117.061417 
L 151.412235 120.542561 
L 151.201302 124.998425 
L 153.152432 133.492416 
L 153.099699 135.99884 
L 152.097767 138.43564 
L 149.882971 141.847161 
L 147.140842 144.910568 
L 143.027649 147.973974 
L 141.656585 150.201906 
L 141.07652 153.334936 
L 141.181986 157.860423 
L 140.707387 160.366846 
L 139.230856 162.803647 
L 136.277794 165.588562 
L 131.584536 169.696312 
L 129.475206 172.341981 
L 127.945942 174.709159 
L 125.572946 177.494074 
L 118.928558 182.367675 
L 117.030161 185.15259 
L 115.079031 188.494488 
L 114.182566 190.72242 
L 111.65137 194.34281 
L 110.333039 195.456776 
L 107.90731 195.178284 
L 107.590911 194.760547 
L 108.487376 193.437712 
L 110.754905 188.28562 
L 112.389636 186.475425 
L 113.338834 184.038624 
L 114.920831 180.975218 
L 120.932421 170.044426 
L 123.832749 165.031579 
L 128.262342 156.81608 
L 131.373603 151.663987 
L 132.639201 149.018317 
L 133.799332 147.208123 
L 134.432131 145.537174 
L 135.855929 143.448487 
L 136.488727 141.290178 
L 138.65079 137.739412 
L 138.80899 136.346954 
L 134.115732 133.910153 
L 128.315075 130.637878 
L 128.315075 130.637878 
" clip-path="url(#pea730e8110)" style="fill: none; stroke: #000000; stroke-width: 3"/>
   </g>
  </g>
 </g>
 <defs>
  <clipPath id="pea730e8110">
   <rect x="7.2" y="7.2" width="315.265691" height="554.4"/>
  </clipPath>
 </defs>
</svg>
