<?xml version="1.0" encoding="utf-8" standalone="no"?>
<!DOCTYPE svg PUBLIC "-//W3C//DTD SVG 1.1//EN"
  "http://www.w3.org/Graphics/SVG/1.1/DTD/svg11.dtd">
<svg xmlns:xlink="http://www.w3.org/1999/xlink" width="347.69011pt" height="568.8pt" viewBox="0 0 347.69011 568.8" xmlns="http://www.w3.org/2000/svg" version="1.1">
 <metadata>
  <rdf:RDF xmlns:dc="http://purl.org/dc/elements/1.1/" xmlns:cc="http://creativecommons.org/ns#" xmlns:rdf="http://www.w3.org/1999/02/22-rdf-syntax-ns#">
   <cc:Work>
    <dc:type rdf:resource="http://purl.org/dc/dcmitype/StillImage"/>
    <dc:date>2023-09-25T14:14:13.876135</dc:date>
    <dc:format>image/svg+xml</dc:format>
    <dc:creator>
     <cc:Agent>
      <dc:title>Matplotlib v3.6.2, https://matplotlib.org/</dc:title>
     </cc:Agent>
    </dc:creator>
   </cc:Work>
  </rdf:RDF>
 </metadata>
 <defs>
  <style type="text/css">*{stroke-linejoin: round; stroke-linecap: butt}</style>
 </defs>
 <g id="figure_1">
  <g id="patch_1">
   <path d="M 0 568.8 
L 347.69011 568.8 
L 347.69011 0 
L 0 0 
z
" style="fill: #ffffff"/>
  </g>
  <g id="axes_1">
   <g id="LineCollection_1">
    <path d="M 224.221432 163.911312 
L 224.116753 164.602386 
L 225.163535 165.777211 
L 227.257099 166.468285 
L 228.251542 166.05364 
L 228.408559 166.882929 
L 231.130192 168.817935 
L 232.019957 168.265076 
L 233.799486 168.67972 
L 231.653583 172.687947 
L 231.182531 174.208309 
L 230.973175 176.627067 
L 230.08341 178.769395 
L 229.245985 179.94422 
L 229.298324 181.049938 
L 227.832829 183.054052 
L 227.047743 184.919951 
L 225.529909 187.062279 
L 224.587805 187.200494 
L 223.645702 189.481037 
L 221.499799 193.489264 
L 220.243661 195.493377 
L 219.353896 197.566598 
L 214.643378 205.583052 
L 214.015309 207.794488 
L 212.235779 210.62789 
L 210.665607 213.737721 
L 209.671164 215.050761 
L 208.100991 217.884163 
L 206.844853 220.648457 
L 203.024099 227.351872 
L 202.029656 227.490086 
L 201.24457 231.429206 
L 200.040771 232.673139 
L 198.36592 235.506541 
L 197.162121 238.201728 
L 195.644287 240.620485 
L 194.440488 243.039243 
L 192.922654 245.250679 
L 192.242246 247.254792 
L 190.88143 248.982476 
L 189.67763 251.470341 
L 188.473831 253.267133 
L 186.589624 256.99893 
L 185.281147 259.003044 
L 182.873548 263.771452 
L 182.402496 265.153599 
L 180.570628 267.848787 
L 179.052795 270.682188 
L 177.5873 274.068449 
L 177.063909 274.344879 
L 174.70865 278.76775 
L 174.551633 279.942575 
L 173.661868 281.255615 
L 171.515965 281.877581 
L 170.783218 282.845084 
L 170.312166 284.849198 
L 170.783218 286.438667 
L 171.672982 286.922419 
L 171.25427 290.101357 
L 171.463626 290.723324 
L 170.10281 293.003867 
L 171.411287 293.764048 
L 170.940235 294.731551 
L 170.887896 297.63406 
L 170.259827 299.914603 
L 169.422401 301.29675 
L 169.684097 303.162649 
L 168.37562 305.857836 
L 167.433516 307.170876 
L 167.695211 312.146606 
L 165.706326 317.744303 
L 165.130596 320.301275 
L 163.71744 323.825751 
L 161.623877 327.004689 
L 161.676216 327.903085 
L 160.420077 329.561662 
L 159.216278 333.01703 
L 158.169496 334.399177 
L 158.274175 337.647223 
L 157.593766 339.651337 
L 158.483531 340.480625 
L 158.849905 342.139202 
L 157.593766 344.005101 
L 156.285289 347.045825 
L 153.511317 351.537803 
L 152.255179 354.647635 
L 150.423311 357.342822 
L 150.318633 358.794077 
L 148.225069 360.936405 
L 148.015712 364.875524 
L 147.125948 364.599095 
L 145.241741 365.77392 
L 144.875367 365.428383 
L 141.159291 370.058577 
L 140.164849 370.196791 
L 138.804032 371.509831 
L 136.972164 371.855368 
L 135.663687 372.546442 
L 130.377438 371.648046 
L 135.977721 379.042534 
L 134.564566 382.359687 
L 134.041175 385.607733 
L 133.465445 385.538626 
L 132.889715 387.473632 
L 131.528898 390.030605 
L 128.022179 392.103826 
L 125.09119 395.075442 
L 124.620138 396.457589 
L 123.782712 396.734019 
L 121.427453 401.15689 
L 120.799384 403.161004 
L 121.008741 405.165117 
L 120.380671 406.13262 
L 119.33389 410.209955 
L 117.240326 413.527108 
L 117.816056 415.876759 
L 116.926291 419.055697 
L 115.722492 420.576059 
L 114.780388 423.340354 
L 113.419572 425.206253 
L 111.273669 429.490909 
L 110.6456 430.25109 
L 106.249116 437.230934 
L 103.789179 441.722912 
L 102.742397 444.14167 
L 101.643276 445.178281 
L 101.067546 446.698643 
L 99.445034 448.910078 
L 98.293574 451.812587 
L 97.037436 453.609379 
L 92.74563 461.625833 
L 91.280136 465.219416 
L 89.709963 466.601563 
L 88.192129 469.918717 
L 87.250026 471.231756 
L 86.046226 473.857836 
L 84.528393 475.58552 
L 84.476054 476.967668 
L 82.95822 479.040889 
L 81.649743 482.012505 
L 80.969334 482.219827 
L 76.782207 490.443603 
L 73.275488 496.594159 
L 72.228706 499.151131 
L 69.507073 504.472398 
L 68.617309 507.444015 
L 63.488077 519.88334 
L 62.074922 522.647635 
L 60.557088 526.863184 
L 58.463525 530.456767 
L 56.317622 532.391773 
L 55.166162 532.599095 
L 52.549207 533.704813 
L 49.618218 535.570712 
L 47.524654 536.4 
L 43.075831 535.847141 
L 42.395423 536.054463 
L 38.312974 535.432497 
L 36.952157 535.017853 
L 37.580226 531.977129 
L 37.109175 530.318552 
L 37.056836 528.521761 
L 34.596898 528.452653 
L 31.718248 528.936405 
L 30.828483 529.351049 
L 28.473224 529.489264 
L 26.327321 529.973015 
L 24.861827 529.765693 
L 24.495453 530.594981 
L 22.34955 530.042123 
L 22.506568 520.090662 
L 22.715924 517.049938 
L 22.558907 514.216536 
L 23.082298 509.102592 
L 23.343993 507.996874 
L 23.710367 503.504895 
L 24.181419 491.825751 
L 23.55335 487.12645 
L 23.658028 484.362155 
L 25.071183 478.48803 
L 26.798373 475.516413 
L 27.688138 472.821226 
L 27.897494 470.540683 
L 29.153633 464.182805 
L 30.933162 480.768573 
L 29.938719 461.072974 
L 30.619127 454.36956 
L 31.404214 450.845084 
L 30.933162 449.462937 
L 31.770587 446.145784 
L 33.393099 445.869354 
L 34.230525 442.275771 
L 35.957715 441.239161 
L 37.37087 442.897738 
L 40.982267 445.040066 
L 42.029049 445.385603 
L 44.907699 442.275771 
L 45.378751 440.893624 
L 47.472315 439.027725 
L 48.257401 438.88951 
L 51.345408 440.47898 
L 53.229615 441.100946 
L 57.207386 443.796133 
L 62.022583 446.214891 
L 63.959129 447.527931 
L 65.63398 448.08079 
L 76.468172 454.09313 
L 77.357937 454.438667 
L 78.090684 453.125627 
L 80.498283 450.361333 
L 81.754421 447.735253 
L 87.511721 437.783793 
L 90.338032 432.324311 
L 92.850309 428.246977 
L 92.850309 427.486796 
L 94.106447 424.99893 
L 96.932758 420.576059 
L 98.502931 417.811765 
L 99.183339 416.014973 
L 100.962868 412.836035 
L 101.747954 410.831921 
L 103.265788 408.413163 
L 103.73684 406.616372 
L 104.783622 405.09601 
L 106.301455 402.055286 
L 106.929525 401.295105 
L 108.290341 398.392596 
L 110.331566 395.351872 
L 114.09998 389.063102 
L 115.042084 385.538626 
L 116.97863 382.636117 
L 118.70582 378.62789 
L 120.275993 376.554669 
L 121.165758 376.278239 
L 121.165758 375.034307 
L 123.259322 370.473221 
L 123.678034 367.570712 
L 124.096747 366.879638 
L 123.049965 366.810531 
L 122.369557 365.912135 
L 122.631252 364.391773 
L 121.741488 364.806417 
L 127.080075 360.936405 
L 126.24265 360.038009 
L 127.446449 357.550144 
L 128.807265 355.753353 
L 130.586795 355.684245 
L 127.39411 356.306211 
L 129.435334 353.887454 
L 130.168082 352.367092 
L 128.440892 351.676018 
L 137.076842 346.423858 
L 138.228302 344.903497 
L 140.845257 340.687947 
L 141.682682 337.509009 
L 142.781803 336.541506 
L 143.828585 334.744714 
L 144.613671 332.533278 
L 145.974488 330.805594 
L 146.707235 329.216125 
L 147.597 328.801481 
L 148.905477 326.72826 
L 150.527989 323.411107 
L 151.417753 323.06557 
L 152.830909 321.683422 
L 153.092604 319.955738 
L 154.767455 316.638585 
L 154.872134 315.18733 
L 156.861019 311.179103 
L 155.866576 307.792842 
L 158.53587 304.959441 
L 160.577095 301.089428 
L 161.676216 300.398355 
L 163.612762 297.91049 
L 165.182935 296.942986 
L 166.125039 293.833155 
L 166.910125 293.142081 
L 166.753108 291.829042 
L 165.601648 289.963143 
L 166.177378 289.617606 
L 175.650753 289.617606 
L 178.843438 290.723324 
L 176.383501 290.101357 
L 179.000455 291.483505 
L 180.047237 291.621719 
L 188.107458 289.410284 
L 187.845762 290.930646 
L 188.630849 289.824928 
L 188.892544 288.304566 
L 192.242246 289.686713 
L 195.225574 290.516002 
L 197.580833 290.861538 
L 199.098667 290.446894 
L 200.66884 288.926532 
L 203.233455 283.536158 
L 203.390473 282.499548 
L 206.478479 276.625422 
L 208.572043 274.206664 
L 211.03198 272.340765 
L 214.277004 271.718799 
L 215.742499 272.133443 
L 219.406235 274.206664 
L 220.453017 274.413986 
L 223.17465 273.861127 
L 226.314995 271.580584 
L 228.094525 268.747182 
L 228.879611 266.673961 
L 230.135749 264.669848 
L 231.391887 263.495023 
L 234.427555 261.490909 
L 236.99217 259.141259 
L 238.405326 256.99893 
L 239.87082 253.267133 
L 240.184855 250.779268 
L 239.92316 249.535335 
L 238.300648 245.872645 
L 238.091291 243.799424 
L 238.928717 241.173344 
L 243.115844 236.266722 
L 245.575782 235.091896 
L 247.459989 233.364212 
L 248.035719 227.213657 
L 249.239518 223.620074 
L 250.129283 220.026491 
L 252.327525 214.843439 
L 253.897697 212.217359 
L 257.718451 208.209132 
L 259.759676 205.513945 
L 260.701779 203.786261 
L 263.057039 198.395886 
L 264.574872 195.838914 
L 266.406741 193.627478 
L 269.91346 191.830687 
L 273.106144 190.932291 
L 278.54941 191.76158 
L 280.171922 191.554258 
L 282.998233 189.1355 
L 285.196475 185.19638 
L 286.452613 183.330481 
L 288.650855 179.460469 
L 291.581844 173.93188 
L 295.664293 167.021144 
L 298.961656 160.801481 
L 301.840306 154.443603 
L 302.154341 151.195557 
L 301.997324 148.431263 
L 302.625393 145.114109 
L 302.677732 143.248211 
L 301.997324 140.414809 
L 300.584168 138.134266 
L 299.851421 136.337474 
L 300.636507 132.951213 
L 302.259019 129.703167 
L 303.776853 127.28441 
L 306.341468 124.105471 
L 310.947309 119.129741 
L 312.308125 116.849198 
L 312.412803 114.361333 
L 312.04643 112.288112 
L 312.151108 109.800247 
L 313.040872 104.409872 
L 313.878298 102.129329 
L 314.820401 100.608968 
L 316.181218 99.365035 
L 319.897293 97.015385 
L 320.630041 95.978774 
L 320.944075 94.112875 
L 320.368345 92.730728 
L 318.641155 91.555903 
L 316.599931 91.694118 
L 312.517481 94.112875 
L 310.423918 94.112875 
L 308.906084 92.730728 
L 308.592049 91.279473 
L 309.010762 90.035541 
L 310.162222 88.376964 
L 313.616602 84.576059 
L 315.762505 79.600329 
L 316.128879 77.458001 
L 315.971861 76.006746 
L 314.035315 72.966022 
L 310.790291 69.787084 
L 311.837073 66.46993 
L 317.385017 57.278651 
L 319.269224 53.201316 
L 323.142317 46.705224 
L 324.346116 43.871822 
L 325.340559 42.282353 
L 324.032082 41.176635 
L 321.153432 39.379844 
L 320.316006 38.412341 
L 317.437356 36.753764 
L 317.385017 36.408227 
L 313.982976 34.542328 
L 311.680056 32.745537 
L 309.69117 32.4 
L 310.005205 34.058577 
L 307.806963 36.408227 
L 307.126555 38.066804 
L 306.81252 37.721267 
L 305.399365 39.656273 
L 305.137669 40.969313 
L 303.201123 43.733608 
L 302.259019 45.875936 
L 300.531829 48.294694 
L 300.165455 49.538626 
L 298.019553 52.786672 
L 296.920432 55.067215 
L 295.611954 56.034718 
L 294.355816 56.24204 
L 291.791201 54.998108 
L 289.906993 54.859893 
L 287.708751 53.063102 
L 284.934779 52.164706 
L 280.014905 49.676841 
L 278.601749 49.193089 
L 275.67076 47.465405 
L 272.739771 45.323077 
L 265.621654 41.867709 
L 264.73189 41.591279 
L 258.503538 38.205019 
L 257.299738 38.135911 
L 254.682784 36.546442 
L 252.798576 34.265899 
L 251.856473 34.127684 
L 248.454432 36.961086 
L 246.465546 40.209132 
L 244.686017 43.94093 
L 244.005609 46.359687 
L 243.95327 48.985767 
L 243.37754 51.404525 
L 243.639235 52.85578 
L 243.325201 57.624188 
L 243.848592 59.075442 
L 243.063505 62.53081 
L 242.749471 65.15689 
L 241.859706 66.815467 
L 241.126959 69.026903 
L 239.190412 71.860304 
L 239.29509 72.482271 
L 236.99217 75.730317 
L 237.096849 76.352283 
L 233.747147 81.189798 
L 232.38633 83.884986 
L 231.077853 85.059811 
L 229.088967 88.307857 
L 227.152421 92.108762 
L 224.483127 97.91378 
L 220.924069 104.409872 
L 220.296 105.999342 
L 218.882844 107.727026 
L 218.254775 109.523817 
L 217.41735 110.353106 
L 215.219108 114.223118 
L 214.224665 115.121514 
L 213.648935 116.78009 
L 211.712388 119.613492 
L 208.15333 127.00798 
L 207.315905 128.390128 
L 203.756846 135.369971 
L 200.66884 140.622131 
L 199.046328 142.349815 
L 200.250127 143.870177 
L 200.66884 143.593747 
L 203.390473 144.699465 
L 205.902749 146.081613 
L 206.897192 147.532867 
L 206.897192 148.293048 
L 208.519704 149.260551 
L 210.822624 149.951625 
L 212.916188 151.195557 
L 213.177883 152.024846 
L 218.673488 155.203784 
L 219.929626 155.549321 
L 221.238103 156.931469 
L 221.081086 157.968079 
L 220.034304 160.110407 
L 219.458574 160.594159 
L 220.243661 161.907199 
L 222.075529 162.66738 
L 222.755937 163.358453 
L 224.064414 163.427561 
L 224.064414 163.427561 
" clip-path="url(#pf0df1425ea)" style="fill: none; stroke: #000000; stroke-width: 3"/>
   </g>
  </g>
 </g>
 <defs>
  <clipPath id="pf0df1425ea">
   <rect x="7.2" y="7.2" width="333.29011" height="554.4"/>
  </clipPath>
 </defs>
</svg>
