<?xml version="1.0" encoding="utf-8" standalone="no"?>
<!DOCTYPE svg PUBLIC "-//W3C//DTD SVG 1.1//EN"
  "http://www.w3.org/Graphics/SVG/1.1/DTD/svg11.dtd">
<svg xmlns:xlink="http://www.w3.org/1999/xlink" width="195.730043pt" height="568.8pt" viewBox="0 0 195.730043 568.8" xmlns="http://www.w3.org/2000/svg" version="1.1">
 <metadata>
  <rdf:RDF xmlns:dc="http://purl.org/dc/elements/1.1/" xmlns:cc="http://creativecommons.org/ns#" xmlns:rdf="http://www.w3.org/1999/02/22-rdf-syntax-ns#">
   <cc:Work>
    <dc:type rdf:resource="http://purl.org/dc/dcmitype/StillImage"/>
    <dc:date>2023-09-25T14:14:13.809016</dc:date>
    <dc:format>image/svg+xml</dc:format>
    <dc:creator>
     <cc:Agent>
      <dc:title>Matplotlib v3.6.2, https://matplotlib.org/</dc:title>
     </cc:Agent>
    </dc:creator>
   </cc:Work>
  </rdf:RDF>
 </metadata>
 <defs>
  <style type="text/css">*{stroke-linejoin: round; stroke-linecap: butt}</style>
 </defs>
 <g id="figure_1">
  <g id="patch_1">
   <path d="M 0 568.8 
L 195.730043 568.8 
L 195.730043 0 
L 0 0 
z
" style="fill: #ffffff"/>
  </g>
  <g id="axes_1">
   <g id="LineCollection_1">
    <path d="M 173.035249 32.4 
L 177.130789 35.271634 
L 177.472084 35.778393 
L 179.17856 36.848218 
L 180.159783 36.791912 
L 179.818488 38.143269 
L 179.093236 39.382013 
L 178.239998 39.550933 
L 178.837265 40.226612 
L 177.941365 41.521662 
L 177.813379 42.422567 
L 177.088128 42.87302 
L 175.850933 46.1388 
L 175.211005 46.701866 
L 174.528415 48.447369 
L 173.675177 49.91134 
L 172.523307 51.093777 
L 170.219565 55.541995 
L 169.664961 56.330287 
L 168.427766 59.033002 
L 167.574529 60.328053 
L 166.038701 63.537527 
L 164.929493 65.001497 
L 163.05237 68.605117 
L 161.772514 70.801073 
L 161.260571 72.15243 
L 160.535319 73.109641 
L 159.212801 75.868663 
L 157.634312 78.402458 
L 155.458556 82.231304 
L 154.264023 83.413741 
L 153.922728 85.271858 
L 152.301577 87.69304 
L 152.045606 88.650251 
L 149.955174 91.747112 
L 148.97395 93.886761 
L 147.992727 95.125506 
L 147.224813 96.983622 
L 145.944957 97.602994 
L 146.158267 99.010658 
L 145.433015 99.517417 
L 144.067835 102.501665 
L 140.740208 108.188627 
L 139.503014 110.553502 
L 139.588337 110.891342 
L 138.095172 112.862071 
L 136.388697 116.127852 
L 135.706107 118.042275 
L 134.340927 119.787778 
L 133.018408 122.096347 
L 132.079847 124.235996 
L 132.079847 124.799062 
L 130.672005 127.558083 
L 128.922868 129.359893 
L 128.538911 130.148185 
L 128.581573 131.555849 
L 130.927976 131.893688 
L 134.468912 134.202257 
L 135.79143 134.089644 
L 136.602006 134.427483 
L 141.081503 136.904972 
L 142.105388 137.91849 
L 144.579777 138.875701 
L 151.618987 142.81716 
L 154.392009 144.224824 
L 163.478989 149.292414 
L 164.545536 150.474852 
L 165.569421 151.150531 
L 166.209349 152.107742 
L 165.526759 154.303698 
L 163.009708 158.808223 
L 162.412442 160.497419 
L 161.601866 161.342018 
L 160.492657 163.7632 
L 159.255463 164.945637 
L 158.615535 167.085287 
L 156.994383 169.788001 
L 156.69575 171.195665 
L 155.415894 172.715942 
L 154.093376 174.855592 
L 153.112153 177.107854 
L 150.467116 181.556072 
L 149.315245 183.920947 
L 147.438123 187.130421 
L 145.646324 190.508815 
L 145.134382 192.310625 
L 143.427906 194.112434 
L 141.892079 197.209295 
L 140.612223 198.954798 
L 140.484237 199.799397 
L 138.180496 203.571936 
L 137.924524 204.360228 
L 136.303373 206.387264 
L 136.00474 207.738621 
L 135.32215 208.076461 
L 134.767545 209.315205 
L 134.682222 210.441336 
L 132.250495 214.833248 
L 131.397257 216.91659 
L 129.520134 219.619305 
L 129.733444 221.026969 
L 128.069631 223.054005 
L 127.216393 224.686895 
L 126.533803 225.193654 
L 121.45704 234.25901 
L 120.56114 236.22974 
L 119.537255 237.468484 
L 118.428046 239.833359 
L 117.916104 239.833359 
L 116.806895 242.704994 
L 115.356391 244.90095 
L 114.929772 246.308614 
L 113.479269 248.448263 
L 111.388837 252.952787 
L 110.919556 253.515853 
L 109.213081 256.725327 
L 107.079987 259.991107 
L 106.952001 260.610479 
L 104.392289 265.452843 
L 100.851353 271.421338 
L 99.230202 274.687119 
L 98.376964 276.770461 
L 96.414518 279.529483 
L 92.660272 286.398883 
L 90.825812 289.38313 
L 89.972574 291.691699 
L 87.882142 294.056575 
L 87.583509 295.239012 
L 86.815595 296.027304 
L 85.066458 300.306603 
L 83.999911 301.545347 
L 81.184228 307.232309 
L 81.056242 308.133214 
L 80.288328 309.653491 
L 79.221781 310.554396 
L 78.155234 312.187286 
L 77.643292 313.538644 
L 76.150126 315.959826 
L 75.766169 316.917037 
L 73.035809 321.703095 
L 71.371996 324.968875 
L 67.191132 332.457647 
L 66.46588 334.597296 
L 65.314009 336.061267 
L 64.332786 335.836041 
L 63.863505 336.905865 
L 62.924944 337.131091 
L 62.37034 337.80677 
L 62.15703 340.115339 
L 60.749188 342.198682 
L 62.455663 343.662652 
L 62.711635 344.225718 
L 67.14847 347.209965 
L 68.343002 348.392403 
L 68.854945 348.27979 
L 72.737176 350.700972 
L 75.851493 353.178461 
L 75.296888 354.923964 
L 75.168903 356.500547 
L 74.230342 356.951 
L 73.462428 358.58389 
L 71.841276 360.55462 
L 70.305449 363.201028 
L 69.409549 364.045626 
L 68.044369 366.804648 
L 66.977822 368.268618 
L 66.807175 369.22583 
L 65.868614 369.788895 
L 64.588757 372.041157 
L 63.650196 372.942062 
L 62.199692 376.264149 
L 61.389116 377.108748 
L 60.450555 379.023171 
L 59.42667 380.149302 
L 57.848181 382.514177 
L 56.653648 384.879053 
L 51.192928 393.26873 
L 50.808971 394.338554 
L 49.571776 395.633605 
L 49.102496 396.816043 
L 47.182711 399.743984 
L 44.19638 403.066071 
L 43.385804 405.093107 
L 39.844868 411.005295 
L 38.863645 412.018814 
L 35.664004 416.917484 
L 35.194724 417.31163 
L 30.928536 423.955804 
L 30.373932 424.34995 
L 29.520694 426.208066 
L 28.838104 426.940051 
L 27.728895 429.136007 
L 26.491701 430.88151 
L 25.510478 431.838722 
L 24.87055 433.809451 
L 22.908103 436.399553 
L 22.652132 437.244151 
L 21.24429 439.045961 
L 20.860333 440.172093 
L 19.111196 441.861289 
L 18.769901 442.931114 
L 17.660692 444.507697 
L 18.215297 445.014456 
L 16.636807 448.449157 
L 15.442275 447.717171 
L 17.234074 447.491945 
L 17.959325 446.534734 
L 18.940549 447.435638 
L 19.665801 447.097799 
L 21.116304 447.379332 
L 23.97465 446.928879 
L 24.998535 447.097799 
L 27.174291 448.730689 
L 28.198176 448.786996 
L 30.245946 451.264484 
L 32.165731 449.350061 
L 36.47458 446.703653 
L 37.583789 445.802748 
L 38.607674 444.338778 
L 39.674221 443.719406 
L 42.404581 441.579756 
L 43.769761 440.847771 
L 46.92674 439.72164 
L 50.638323 438.708122 
L 52.686094 438.820735 
L 57.634871 438.426589 
L 57.805519 438.032443 
L 55.459116 436.399553 
L 53.75264 434.879276 
L 53.581993 434.203597 
L 52.003503 433.02116 
L 47.524006 430.205832 
L 47.097388 430.318445 
L 44.836308 429.023394 
L 44.87897 429.924299 
L 43.51379 430.374751 
L 43.727099 429.58646 
L 42.8312 429.530153 
L 41.679329 431.106737 
L 39.375588 432.289174 
L 36.901199 434.710356 
L 35.493357 436.512166 
L 34.298824 437.525684 
L 32.464364 440.453625 
L 31.611126 442.255435 
L 34.256163 446.478427 
L 36.0053 447.998704 
L 41.423358 453.516747 
L 43.727099 456.106848 
L 46.457459 458.809563 
L 47.694654 460.386147 
L 48.803863 461.399665 
L 54.605878 467.762306 
L 56.312353 469.451503 
L 57.805519 471.253312 
L 59.384008 472.660976 
L 60.066598 473.787108 
L 66.636527 480.600201 
L 68.385664 481.895252 
L 75.254227 489.158798 
L 76.70473 490.284929 
L 78.197896 492.255659 
L 81.354875 495.408826 
L 84.682501 499.012446 
L 89.972574 504.474182 
L 93.129553 507.965188 
L 95.219985 509.992224 
L 99.358187 513.539537 
L 100.040777 514.496749 
L 100.766029 516.411172 
L 100.851353 517.59361 
L 100.680705 522.999039 
L 100.424734 525.194995 
L 100.382072 528.911228 
L 100.083439 532.233315 
L 99.699482 533.246833 
L 100.126101 533.922511 
L 99.998115 535.161256 
L 102.643152 535.611708 
L 107.719915 535.780628 
L 109.511714 535.668015 
L 115.399053 536.005854 
L 117.020204 535.724321 
L 117.190852 536.4 
L 117.83078 534.823416 
L 116.380276 529.868439 
L 116.166967 527.334644 
L 115.868334 526.658965 
L 117.702794 526.490046 
L 119.025313 527.278338 
L 121.499702 527.222031 
L 123.888767 526.827885 
L 124.443371 525.420221 
L 124.486033 524.012557 
L 124.86999 523.055346 
L 124.784666 520.352631 
L 124.997975 516.129639 
L 125.296609 515.397654 
L 124.784666 515.003508 
L 122.480925 514.665669 
L 120.603802 514.665669 
L 118.086751 514.046297 
L 118.086751 514.440442 
L 116.166967 513.764764 
L 111.559484 513.258005 
L 110.919556 513.764764 
L 112.455384 513.877377 
L 115.143082 515.45396 
L 114.801787 516.636398 
L 112.83934 516.354865 
L 111.303513 515.003508 
L 110.79157 514.046297 
L 109.341066 509.654385 
L 109.42639 508.809787 
L 108.530491 507.28951 
L 108.103872 505.825539 
L 106.69603 502.784985 
L 106.312073 500.814255 
L 105.032217 498.167847 
L 102.941785 494.84576 
L 102.131209 492.931337 
L 101.149986 489.552944 
L 99.998115 487.188068 
L 98.931568 484.316434 
L 98.50495 483.697062 
L 97.054446 479.248844 
L 94.110776 472.323137 
L 93.641496 470.80286 
L 91.721711 467.36816 
L 89.716603 462.863635 
L 87.83948 459.260016 
L 86.815595 456.782527 
L 85.877034 455.600089 
L 85.365091 453.009988 
L 83.445307 448.336543 
L 81.781494 444.845537 
L 80.373652 441.072997 
L 79.605738 439.609027 
L 78.240558 436.174327 
L 78.240558 435.160809 
L 76.70473 432.176561 
L 76.320774 430.599978 
L 75.040917 428.967087 
L 74.528975 425.757614 
L 75.55286 425.701307 
L 76.320774 425.025628 
L 74.784946 423.730578 
L 75.33955 421.365702 
L 77.003364 416.241805 
L 79.051134 411.737281 
L 81.397537 405.656172 
L 81.653508 404.473735 
L 84.895811 396.872349 
L 85.450415 394.789007 
L 87.583509 389.890336 
L 87.711495 388.989431 
L 88.607394 386.680862 
L 89.460632 385.273199 
L 89.759265 383.865535 
L 90.953797 380.430835 
L 91.423078 378.629025 
L 90.527179 376.883521 
L 88.095452 375.419551 
L 86.858257 374.912792 
L 85.706387 373.674048 
L 85.578401 372.998369 
L 86.303653 370.6898 
L 85.919696 370.408267 
L 86.431638 367.705552 
L 87.284876 364.552385 
L 88.223437 361.84967 
L 88.73538 359.428488 
L 90.271207 355.712256 
L 91.081783 354.755044 
L 91.039121 354.023059 
L 89.972574 352.559088 
L 90.569841 349.293308 
L 91.721711 345.577075 
L 92.489625 342.367601 
L 93.300201 337.97569 
L 93.257539 337.300011 
L 93.854805 334.991442 
L 93.812143 334.20315 
L 94.537395 329.754932 
L 95.390633 327.50267 
L 95.262647 326.0387 
L 95.77459 323.392291 
L 95.006676 317.19857 
L 95.475956 314.721081 
L 98.675597 308.639973 
L 99.230202 308.245827 
L 99.65682 306.612937 
L 101.448619 303.966529 
L 102.472504 301.714267 
L 101.70459 300.531829 
L 99.955454 299.293085 
L 93.897467 296.027304 
L 87.242214 292.311071 
L 86.431638 291.691699 
L 79.563076 288.031773 
L 75.55286 285.666898 
L 75.680845 283.808781 
L 78.496529 278.741191 
L 79.136457 278.741191 
L 79.861709 277.108301 
L 81.952141 274.01144 
L 82.890703 273.054229 
L 84.213221 270.74566 
L 85.279768 269.619529 
L 85.962358 268.155558 
L 87.15689 264.833471 
L 87.15689 264.157792 
L 91.209769 256.781633 
L 94.836028 250.982058 
L 96.115885 248.110423 
L 97.097108 246.53384 
L 97.651712 244.73203 
L 99.358187 242.254541 
L 101.192648 238.988761 
L 101.320634 238.087856 
L 102.984447 235.328835 
L 103.496389 233.583331 
L 104.136317 232.851346 
L 104.904231 231.162149 
L 106.610706 228.797274 
L 107.719915 225.700413 
L 108.018548 225.75672 
L 109.511714 222.885085 
L 110.407613 222.096794 
L 110.876894 220.632823 
L 111.730132 219.900838 
L 113.479269 216.128299 
L 115.441715 212.975131 
L 116.166967 212.186839 
L 116.550924 210.666562 
L 120.689126 203.571936 
L 121.798335 200.812915 
L 123.462148 198.335426 
L 123.888767 197.997587 
L 125.211285 195.013339 
L 127.173731 192.085398 
L 129.050854 188.707005 
L 129.306825 187.918713 
L 131.141286 185.103385 
L 131.439919 183.920947 
L 132.847761 182.231751 
L 134.340927 181.387152 
L 135.236826 179.529036 
L 135.151502 178.008759 
L 135.492797 177.051547 
L 136.260711 176.657401 
L 137.36992 173.842074 
L 140.78287 168.718177 
L 139.844309 167.085287 
L 140.057618 166.128075 
L 143.683878 161.229405 
L 144.451791 161.229405 
L 144.110496 160.384806 
L 145.475677 161.62355 
L 146.030281 160.891565 
L 146.798195 157.682091 
L 148.035389 155.767668 
L 148.97395 154.866763 
L 149.016612 154.022165 
L 150.083159 152.164049 
L 150.168483 151.150531 
L 149.741864 150.193319 
L 150.509778 147.096458 
L 153.368124 142.535627 
L 149.997836 140.902737 
L 146.840857 139.832913 
L 145.816972 139.663993 
L 144.87841 138.763088 
L 142.83064 137.524344 
L 139.247042 135.046855 
L 135.10884 132.907206 
L 133.359703 131.724768 
L 132.335818 131.386929 
L 132.165171 129.922958 
L 131.482581 128.402681 
L 129.562796 126.995017 
L 129.520134 124.911675 
L 129.221501 123.166171 
L 129.904091 121.758507 
L 129.64812 120.57607 
L 130.245386 118.999486 
L 129.434811 118.098581 
L 128.666897 115.508479 
L 129.093516 114.100816 
L 128.794883 113.36883 
L 128.880206 109.314758 
L 128.453588 105.542219 
L 128.581573 104.416088 
L 128.538911 101.037694 
L 128.752221 98.391286 
L 128.410926 94.73136 
L 128.624235 90.733594 
L 129.264163 89.888996 
L 128.453588 87.805653 
L 128.496249 84.934019 
L 127.984307 83.582661 
L 128.112292 82.118691 
L 128.581573 81.555625 
L 128.368264 79.641202 
L 129.221501 77.501553 
L 129.306825 76.375422 
L 128.880206 75.361904 
L 129.64812 73.95424 
L 130.245386 71.758284 
L 129.008192 70.688459 
L 130.373372 71.026299 
L 132.037185 72.096123 
L 134.724883 73.334868 
L 140.697546 76.544341 
L 141.721431 77.276327 
L 143.555892 78.064618 
L 153.026829 83.413741 
L 153.880066 84.145727 
L 155.54388 83.470048 
L 157.250355 81.161479 
L 159.682082 76.825874 
L 160.961938 73.6164 
L 162.924384 70.913686 
L 163.095032 69.956474 
L 164.118917 67.704212 
L 166.294673 63.65014 
L 168.299781 60.440666 
L 170.219565 56.499207 
L 173.376544 51.37531 
L 173.931149 50.136566 
L 175.509638 47.602771 
L 176.746833 44.787443 
L 178.453308 42.53518 
L 180.287768 37.974349 
L 179.989135 36.791912 
L 178.794603 36.228846 
L 177.60007 35.102715 
L 175.125681 33.526131 
L 172.907264 32.512613 
L 172.907264 32.512613 
" clip-path="url(#p50e8b05d0b)" style="fill: none; stroke: #000000; stroke-width: 3"/>
   </g>
  </g>
 </g>
 <defs>
  <clipPath id="p50e8b05d0b">
   <rect x="7.2" y="7.2" width="181.330043" height="554.4"/>
  </clipPath>
 </defs>
</svg>
