<?xml version="1.0" encoding="utf-8" standalone="no"?>
<!DOCTYPE svg PUBLIC "-//W3C//DTD SVG 1.1//EN"
  "http://www.w3.org/Graphics/SVG/1.1/DTD/svg11.dtd">
<svg xmlns:xlink="http://www.w3.org/1999/xlink" width="331.551337pt" height="568.8pt" viewBox="0 0 331.551337 568.8" xmlns="http://www.w3.org/2000/svg" version="1.1">
 <metadata>
  <rdf:RDF xmlns:dc="http://purl.org/dc/elements/1.1/" xmlns:cc="http://creativecommons.org/ns#" xmlns:rdf="http://www.w3.org/1999/02/22-rdf-syntax-ns#">
   <cc:Work>
    <dc:type rdf:resource="http://purl.org/dc/dcmitype/StillImage"/>
    <dc:date>2023-09-25T14:14:13.747964</dc:date>
    <dc:format>image/svg+xml</dc:format>
    <dc:creator>
     <cc:Agent>
      <dc:title>Matplotlib v3.6.2, https://matplotlib.org/</dc:title>
     </cc:Agent>
    </dc:creator>
   </cc:Work>
  </rdf:RDF>
 </metadata>
 <defs>
  <style type="text/css">*{stroke-linejoin: round; stroke-linecap: butt}</style>
 </defs>
 <g id="figure_1">
  <g id="patch_1">
   <path d="M 0 568.8 
L 331.551337 568.8 
L 331.551337 0 
L 0 0 
z
" style="fill: #ffffff"/>
  </g>
  <g id="axes_1">
   <g id="LineCollection_1">
    <path d="M 124.995882 276.010673 
L 125.965674 278.5723 
L 130.135783 280.621601 
L 133.627038 283.43939 
L 136.536416 283.055146 
L 135.372665 284.592122 
L 139.154856 286.001017 
L 141.288401 285.488691 
L 139.833711 289.843456 
L 130.717659 306.878272 
L 124.220047 316.868615 
L 114.813057 335.312325 
L 109.188259 345.686912 
L 108.024508 349.017027 
L 105.697005 350.29784 
L 104.630233 354.396442 
L 96.96887 368.485388 
L 92.89574 375.273698 
L 90.374279 380.525032 
L 88.531673 383.086658 
L 85.040419 390.259212 
L 82.809895 391.540025 
L 81.937082 395.638628 
L 78.542807 400.761881 
L 76.409263 405.628971 
L 74.566656 408.062516 
L 71.269361 415.106989 
L 67.875086 414.722745 
L 51.388609 406.269377 
L 50.224857 406.653621 
L 43.727246 403.195426 
L 42.175577 403.323507 
L 40.623909 405.244727 
L 38.296406 409.983736 
L 33.156504 418.949428 
L 32.283691 421.126811 
L 23.167638 436.496569 
L 21.712949 443.284879 
L 21.61597 448.408132 
L 22.294825 458.910801 
L 22.003887 463.521728 
L 22.876701 469.285388 
L 21.809928 471.847014 
L 22.682742 474.024396 
L 22.391804 478.635324 
L 23.846493 482.221601 
L 23.555555 488.369504 
L 23.943473 489.266074 
L 22.779721 496.054384 
L 23.070659 500.281067 
L 25.398162 501.561881 
L 26.270975 503.4831 
L 25.6891 506.813215 
L 27.628685 511.552224 
L 29.66525 512.064549 
L 31.992753 514.241931 
L 33.350463 512.704956 
L 48.867147 521.414485 
L 74.469677 535.503431 
L 75.633428 536.4 
L 76.700201 533.838374 
L 79.221662 531.404828 
L 80.288434 527.818551 
L 79.318641 524.872681 
L 76.894159 522.567217 
L 75.051553 519.749428 
L 73.887801 515.394663 
L 74.469677 511.936468 
L 75.827387 509.24676 
L 78.445828 507.32554 
L 80.87031 504.123507 
L 87.658859 489.90648 
L 91.150113 483.246252 
L 94.059492 479.531893 
L 98.908456 474.664803 
L 104.242316 473.512071 
L 109.382218 475.177128 
L 112.388575 477.994917 
L 117.431498 478.763405 
L 120.825773 478.122999 
L 125.480778 475.177128 
L 128.196198 472.743583 
L 132.366307 463.521728 
L 134.208913 460.575858 
L 137.506209 457.629987 
L 144.779655 453.147141 
L 148.464867 448.920457 
L 150.598411 444.565693 
L 153.119873 437.649301 
L 153.216852 433.934943 
L 149.822577 424.841169 
L 149.725598 421.254892 
L 150.404453 418.693266 
L 154.962479 412.033037 
L 159.908422 407.550191 
L 166.503013 403.835832 
L 167.860723 402.170775 
L 168.442599 398.584498 
L 167.569785 397.047522 
L 173.388542 377.194917 
L 176.3949 369.253875 
L 176.588858 367.460737 
L 181.243864 360.92859 
L 186.480745 355.293011 
L 190.262937 349.785515 
L 193.948149 340.819822 
L 197.148466 334.928081 
L 199.766906 330.95756 
L 201.99743 328.780178 
L 206.458476 326.346633 
L 213.828902 323.913088 
L 224.108705 325.578145 
L 229.151628 324.041169 
L 230.606317 322.760356 
L 236.716012 313.922745 
L 242.631748 303.163914 
L 247.868629 292.661245 
L 249.03238 291.124269 
L 253.978323 281.774333 
L 257.08166 277.163405 
L 265.033961 262.946379 
L 267.84636 256.414231 
L 268.137298 252.827954 
L 267.555422 246.680051 
L 269.010112 239.251334 
L 268.622194 233.103431 
L 263.967189 224.778145 
L 264.161148 220.935705 
L 265.906775 215.55629 
L 270.56178 206.84676 
L 273.665117 202.620076 
L 284.429817 191.092757 
L 286.854299 186.866074 
L 287.145237 184.432529 
L 286.66034 175.85108 
L 287.339195 170.087421 
L 288.890864 162.27446 
L 290.830449 157.663532 
L 292.770035 155.358069 
L 299.073688 150.362897 
L 301.207232 149.338247 
L 302.661921 147.288945 
L 303.146818 144.599238 
L 302.274004 141.781449 
L 299.946502 139.98831 
L 297.134103 139.091741 
L 294.418683 139.732147 
L 288.793885 143.702668 
L 284.720755 144.727319 
L 281.423459 142.678018 
L 280.550646 139.732147 
L 281.229501 136.530114 
L 283.750962 134.224651 
L 287.727112 129.485642 
L 292.382118 121.160356 
L 293.739828 116.549428 
L 294.127745 112.066582 
L 293.351911 109.248793 
L 290.73347 105.278272 
L 285.011693 99.898856 
L 284.720755 96.824905 
L 288.01805 91.445489 
L 289.957636 86.834562 
L 294.515662 79.021601 
L 297.618999 73.001779 
L 299.558585 70.055909 
L 306.92901 56.223126 
L 309.353492 51.099873 
L 309.935367 47.769759 
L 303.825673 42.774587 
L 296.940144 38.804066 
L 294.224724 37.651334 
L 288.01805 33.680813 
L 286.75732 33.936976 
L 283.944921 32.4 
L 278.029185 39.956798 
L 277.156371 42.13418 
L 271.434594 51.868361 
L 262.318541 69.415502 
L 260.766873 70.952478 
L 258.051453 77.100381 
L 255.433012 78.253113 
L 255.336033 80.174333 
L 259.021246 83.120203 
L 259.506142 89.908513 
L 258.342391 93.49479 
L 256.984681 94.007116 
L 256.014888 96.312579 
L 256.014888 99.002287 
L 260.475935 101.948158 
L 262.900417 105.278272 
L 263.385313 107.711817 
L 262.706458 111.298094 
L 263.288334 114.884371 
L 265.906775 122.056925 
L 266.779588 127.436341 
L 266.58563 134.480813 
L 265.518857 139.475985 
L 263.191355 143.062262 
L 257.954474 146.392376 
L 253.299468 147.929352 
L 250.099152 149.978653 
L 247.67467 153.052605 
L 245.347167 159.712834 
L 242.34081 162.786785 
L 232.545903 166.501144 
L 228.569752 168.934689 
L 222.557037 175.594917 
L 219.356721 180.846252 
L 216.641301 186.353748 
L 212.859109 195.831766 
L 210.919523 199.033799 
L 208.010145 201.97967 
L 202.385347 205.565947 
L 198.506175 210.817281 
L 197.730341 215.55629 
L 197.245445 224.521982 
L 196.469611 227.083609 
L 193.269294 230.797967 
L 190.650854 232.591105 
L 186.771683 233.615756 
L 179.01334 237.84244 
L 175.910003 240.404066 
L 170.576143 246.808132 
L 168.539578 249.882084 
L 165.921138 256.28615 
L 165.339262 262.562135 
L 166.309055 270.375095 
L 168.927495 278.956544 
L 168.539578 285.616773 
L 166.115096 290.740025 
L 162.235925 296.375604 
L 157.48394 301.242694 
L 151.083308 306.109784 
L 149.628619 307.64676 
L 147.592054 311.617281 
L 146.81622 318.789835 
L 147.010178 325.321982 
L 146.137365 328.652097 
L 144.391738 332.238374 
L 141.191421 335.952732 
L 134.208913 341.972554 
L 127.614322 348.248539 
L 121.407648 357.214231 
L 117.334519 361.312834 
L 106.763777 369.253875 
L 102.981585 374.633291 
L 101.235958 378.347649 
L 97.550746 384.23939 
L 93.380637 390.00305 
L 89.986362 392.692757 
L 86.980004 392.94892 
L 85.622294 391.540025 
L 88.337714 386.929098 
L 90.18032 381.933926 
L 93.089699 377.45108 
L 99.393352 364.642948 
L 101.235958 362.209403 
L 103.563461 357.598475 
L 111.70972 344.278018 
L 112.388575 343.637611 
L 118.304311 332.238374 
L 118.886187 330.445235 
L 122.668379 324.681576 
L 135.372665 300.089962 
L 137.603188 297.01601 
L 139.251836 292.533164 
L 142.064235 286.769504 
L 142.064235 284.976366 
L 124.026089 274.72986 
L 122.280462 278.316137 
L 122.280462 278.316137 
" clip-path="url(#pf8d9ada348)" style="fill: none; stroke: #000000; stroke-width: 3"/>
   </g>
  </g>
 </g>
 <defs>
  <clipPath id="pf8d9ada348">
   <rect x="7.2" y="7.2" width="317.151337" height="554.4"/>
  </clipPath>
 </defs>
</svg>
