<?xml version="1.0" encoding="utf-8" standalone="no"?>
<!DOCTYPE svg PUBLIC "-//W3C//DTD SVG 1.1//EN"
  "http://www.w3.org/Graphics/SVG/1.1/DTD/svg11.dtd">
<svg xmlns:xlink="http://www.w3.org/1999/xlink" width="331.264625pt" height="568.8pt" viewBox="0 0 331.264625 568.8" xmlns="http://www.w3.org/2000/svg" version="1.1">
 <metadata>
  <rdf:RDF xmlns:dc="http://purl.org/dc/elements/1.1/" xmlns:cc="http://creativecommons.org/ns#" xmlns:rdf="http://www.w3.org/1999/02/22-rdf-syntax-ns#">
   <cc:Work>
    <dc:type rdf:resource="http://purl.org/dc/dcmitype/StillImage"/>
    <dc:date>2023-09-25T14:14:13.682963</dc:date>
    <dc:format>image/svg+xml</dc:format>
    <dc:creator>
     <cc:Agent>
      <dc:title>Matplotlib v3.6.2, https://matplotlib.org/</dc:title>
     </cc:Agent>
    </dc:creator>
   </cc:Work>
  </rdf:RDF>
 </metadata>
 <defs>
  <style type="text/css">*{stroke-linejoin: round; stroke-linecap: butt}</style>
 </defs>
 <g id="figure_1">
  <g id="patch_1">
   <path d="M -0 568.8 
L 331.264625 568.8 
L 331.264625 0 
L -0 0 
z
" style="fill: #ffffff"/>
  </g>
  <g id="axes_1">
   <g id="LineCollection_1">
    <path d="M 156.220591 36.034457 
L 157.47215 36.89351 
L 158.173023 36.761348 
L 161.877636 39.602832 
L 162.778759 40.72621 
L 164.230567 40.858372 
L 165.081627 42.906883 
L 163.780006 42.179992 
L 163.780006 42.774721 
L 162.628572 44.558909 
L 159.574768 50.506202 
L 159.574768 51.563498 
L 158.223085 53.347686 
L 157.422087 55.264036 
L 155.77003 56.717818 
L 155.169282 58.303763 
L 152.966538 62.929435 
L 152.015354 64.383218 
L 149.1618 69.867943 
L 147.609867 72.379022 
L 147.709992 73.964967 
L 146.358309 74.493615 
L 146.057934 75.683073 
L 144.005378 79.119287 
L 142.503508 82.225095 
L 139.700016 87.181172 
L 139.499767 88.502793 
L 137.947834 90.617386 
L 135.895278 94.251842 
L 134.743844 95.243058 
L 133.742597 97.820218 
L 132.340851 99.670486 
L 131.89029 101.917241 
L 130.338357 104.560482 
L 129.887796 104.890888 
L 127.985427 108.128858 
L 127.034242 110.375613 
L 124.230751 114.010069 
L 123.079317 115.9925 
L 122.378444 118.305336 
L 120.926636 119.8252 
L 119.925389 122.270198 
L 119.174454 122.997089 
L 117.622521 127.292356 
L 115.920401 129.869516 
L 113.11691 135.618566 
L 111.665101 137.270591 
L 111.21454 138.724374 
L 109.312171 141.03721 
L 108.711423 143.416127 
L 107.259615 144.803829 
L 107.409802 147.116664 
L 108.210799 148.504366 
L 107.660114 150.552878 
L 108.561236 151.94058 
L 112.0656 154.385578 
L 117.021773 157.557467 
L 117.972957 158.482601 
L 119.925389 159.275574 
L 124.981686 162.24922 
L 128.035489 164.297732 
L 131.539854 166.280163 
L 132.440976 166.544487 
L 135.394654 168.65908 
L 138.248208 170.443267 
L 140.651201 171.632726 
L 141.552323 171.500564 
L 144.956563 173.8134 
L 146.258184 175.002858 
L 148.210615 175.72975 
L 147.259431 177.05137 
L 146.80887 178.835558 
L 146.158059 179.694611 
L 145.557311 181.875285 
L 144.305752 184.716769 
L 144.25569 186.03839 
L 141.952822 189.342441 
L 140.951575 191.721358 
L 139.34958 194.628924 
L 139.249455 196.082706 
L 138.348333 197.073922 
L 136.445964 201.303107 
L 135.494779 202.558647 
L 135.494779 203.483781 
L 134.143096 204.937564 
L 133.342098 207.316481 
L 131.690041 209.034588 
L 129.987921 213.131611 
L 128.285801 215.444447 
L 126.233245 218.946742 
L 122.829005 222.71336 
L 121.277072 223.902819 
L 116.871586 233.418487 
L 115.569965 237.44943 
L 115.119403 237.713754 
L 111.064353 245.577396 
L 108.661361 248.220637 
L 108.461111 249.608339 
L 107.35974 251.722932 
L 104.956747 255.093064 
L 104.456123 257.868467 
L 102.453629 260.974276 
L 101.852881 262.56022 
L 100.100699 265.864272 
L 99.7002 267.119811 
L 98.648891 268.375351 
L 96.045649 273.199266 
L 94.693965 275.115616 
L 93.392344 277.560614 
L 92.040661 279.212639 
L 91.540038 280.53426 
L 89.787855 283.441825 
L 88.586359 286.085066 
L 87.735299 287.142363 
L 86.033179 291.635873 
L 84.581371 294.080871 
L 82.078254 296.856274 
L 81.928067 298.045732 
L 78.824201 302.208837 
L 77.772892 303.993025 
L 76.621458 304.98424 
L 78.974388 303.728701 
L 78.223453 306.041537 
L 77.222206 308.15613 
L 76.421208 308.618697 
L 75.720336 310.402884 
L 74.068278 312.71572 
L 74.168403 313.376531 
L 72.61647 315.2268 
L 69.712854 320.116796 
L 68.661545 321.504497 
L 67.409986 323.883414 
L 67.71036 325.403278 
L 69.112106 325.469359 
L 68.160921 328.575167 
L 67.810485 330.623679 
L 67.460048 334.654622 
L 66.959425 336.504891 
L 67.109612 338.553402 
L 66.709113 339.808942 
L 66.909362 341.130562 
L 65.407492 344.897181 
L 65.207243 346.350964 
L 63.65531 350.844474 
L 63.755434 353.421634 
L 63.204749 356.263118 
L 64.556432 357.188252 
L 63.204749 359.435007 
L 63.404998 359.831493 
L 57.197267 364.985814 
L 56.696643 366.241353 
L 57.998264 367.761217 
L 60.45132 369.545404 
L 60.000758 373.906752 
L 59.349948 377.078642 
L 60.000758 377.673371 
L 59.349948 379.259316 
L 59.700384 380.18445 
L 59.800509 382.365124 
L 61.002005 383.025934 
L 61.552691 384.347555 
L 59.60026 389.039308 
L 56.997017 390.955658 
L 53.342466 397.762003 
L 51.189785 399.744434 
L 50.238601 401.066055 
L 48.035857 402.982405 
L 47.23486 405.096998 
L 46.784299 405.163079 
L 45.482677 407.013347 
L 45.082179 408.46713 
L 42.929498 411.837262 
L 42.629124 413.357126 
L 41.828126 415.075233 
L 40.676692 416.066448 
L 39.124759 418.577527 
L 38.323762 420.427796 
L 37.472702 421.088606 
L 34.86946 424.52482 
L 33.768088 426.44117 
L 32.917028 428.820087 
L 28.461479 436.089 
L 27.159858 439.789537 
L 24.456491 442.498859 
L 22.353873 445.406425 
L 21.602938 445.538587 
L 22.003436 447.190612 
L 25.657988 450.098178 
L 26.458985 451.155474 
L 27.159858 452.939662 
L 29.612913 453.270067 
L 32.416405 456.04547 
L 35.970831 457.036685 
L 36.471455 458.490468 
L 36.121018 460.142494 
L 36.321268 462.191006 
L 38.323762 463.050059 
L 41.227378 465.098571 
L 44.080932 466.089786 
L 44.68168 466.618435 
L 50.338725 469.790324 
L 52.741718 470.318972 
L 56.446332 471.640593 
L 57.69789 472.433565 
L 62.253564 474.482077 
L 63.955684 474.746401 
L 68.761669 477.125318 
L 70.163415 477.323561 
L 71.615223 478.050452 
L 72.716595 477.720047 
L 75.770398 478.843425 
L 78.323578 480.165045 
L 79.875511 480.561531 
L 84.280997 482.808286 
L 89.487481 485.121122 
L 90.73904 485.253284 
L 95.394838 486.90531 
L 107.459864 491.597063 
L 108.160737 491.993549 
L 116.220775 495.033277 
L 121.727633 497.412194 
L 123.78019 497.676518 
L 130.738856 500.319759 
L 136.496026 502.963 
L 139.399642 504.020296 
L 143.40463 505.870565 
L 144.405877 506.795699 
L 146.358309 507.258267 
L 148.460927 508.315563 
L 152.716227 509.637184 
L 155.619843 510.760561 
L 158.523459 512.214344 
L 160.576015 512.875154 
L 164.430816 514.791504 
L 166.283123 515.452314 
L 166.783747 516.047043 
L 169.787487 516.707854 
L 170.48836 517.10434 
L 174.243036 517.963393 
L 176.846278 519.351095 
L 178.348149 519.879743 
L 180.550892 519.747581 
L 183.955132 521.201364 
L 188.060244 522.522984 
L 195.619659 525.430549 
L 198.573337 526.686089 
L 208.43562 530.518789 
L 210.087677 530.981356 
L 211.889922 528.205953 
L 219.749711 531.510004 
L 221.151456 532.765543 
L 224.055073 533.558516 
L 226.157691 536.069595 
L 227.509375 536.4 
L 228.91112 534.946217 
L 227.709624 533.16203 
L 227.659562 531.972571 
L 225.356694 532.5673 
L 224.255322 531.510004 
L 225.006257 529.593654 
L 224.806008 528.866763 
L 226.107629 526.950413 
L 227.058813 524.703658 
L 227.709624 523.976767 
L 228.310372 521.796093 
L 230.212741 518.954609 
L 232.615734 512.478668 
L 234.217729 509.505022 
L 235.018727 507.588672 
L 232.415485 505.672322 
L 230.563178 503.62381 
L 230.663302 502.764757 
L 232.916108 500.518002 
L 236.670784 495.958411 
L 239.223964 493.183008 
L 241.777144 490.011118 
L 242.578141 488.755579 
L 244.881009 486.2445 
L 245.631945 484.856798 
L 246.683254 484.063826 
L 250.838429 479.239911 
L 251.889738 480.098964 
L 252.240174 479.239911 
L 252.690736 474.944644 
L 252.540549 473.556942 
L 248.986122 469.988567 
L 247.284002 468.468703 
L 243.178889 465.296814 
L 242.32783 464.966409 
L 237.822218 460.671142 
L 234.568166 458.424387 
L 233.767168 457.565334 
L 229.712118 454.723849 
L 228.310372 453.005743 
L 223.554449 449.63561 
L 222.50314 448.049666 
L 223.254075 446.199397 
L 226.057566 441.838049 
L 226.357941 440.978996 
L 226.908626 435.097784 
L 227.809749 428.489681 
L 227.559437 426.705494 
L 222.553202 427.234142 
L 221.702142 426.44117 
L 221.051332 420.69212 
L 220.901145 416.264691 
L 220.100147 413.555369 
L 218.698401 414.017936 
L 214.042603 413.885774 
L 214.793538 414.28226 
L 217.847341 413.885774 
L 218.848588 413.489288 
L 219.499399 412.498073 
L 219.549461 410.912128 
L 220.000022 410.185237 
L 219.94996 408.533211 
L 219.449337 407.608077 
L 219.499399 404.832673 
L 219.048838 404.63443 
L 212.090171 404.766592 
L 210.388052 404.964835 
L 210.13774 403.511053 
L 209.336742 401.726865 
L 206.433126 401.198217 
L 208.685932 401.330379 
L 209.186555 400.405245 
L 213.191543 399.810515 
L 216.195284 399.149705 
L 217.196531 399.281867 
L 217.647092 393.863223 
L 217.546967 391.153901 
L 217.096406 388.510659 
L 217.046344 385.074446 
L 216.645845 383.488501 
L 216.896157 381.638233 
L 216.045097 377.60729 
L 215.844848 375.558778 
L 215.093912 371.85824 
L 216.846094 371.395673 
L 218.147716 370.668782 
L 222.653327 370.074053 
L 222.453077 367.629055 
L 222.603264 365.448381 
L 222.102641 360.954871 
L 219.199025 358.047306 
L 220.150209 358.179468 
L 221.351706 359.765412 
L 225.757192 358.245549 
L 229.511868 355.536227 
L 230.713365 354.875416 
L 237.171408 353.950282 
L 237.922343 352.892985 
L 238.122592 350.64623 
L 239.173902 344.368533 
L 238.222717 343.839885 
L 238.473029 345.227586 
L 236.57066 349.192448 
L 237.271532 352.033932 
L 237.722094 352.760823 
L 242.878515 353.025148 
L 248.034937 352.496499 
L 248.485498 353.025148 
L 252.14005 353.950282 
L 256.996098 355.866632 
L 251.789613 356.527442 
L 251.739551 357.7169 
L 250.988616 360.558385 
L 250.738304 362.540816 
L 250.938553 367.166487 
L 251.188865 365.448381 
L 250.688242 359.897574 
L 249.737057 353.553796 
L 249.436683 349.060286 
L 250.187618 345.161505 
L 252.089987 338.090835 
L 254.793354 326.923141 
L 257.04616 318.398689 
L 256.595599 316.878825 
L 258.54803 313.839098 
L 259.949776 309.609912 
L 260.200088 307.891805 
L 262.002332 300.821135 
L 263.554265 293.750465 
L 266.407819 283.573987 
L 266.958505 280.864665 
L 267.759502 280.269936 
L 269.461622 280.468179 
L 271.714428 281.393313 
L 273.516672 281.591556 
L 275.81954 282.45061 
L 279.22378 283.11142 
L 280.775713 283.177501 
L 285.031012 284.433041 
L 288.585439 285.093851 
L 290.037247 282.913177 
L 290.387684 284.366959 
L 289.786935 286.018985 
L 293.591674 278.089262 
L 293.591674 276.70156 
L 295.143607 274.322643 
L 297.99716 270.88643 
L 298.347597 269.895214 
L 300.450216 266.723325 
L 301.101026 265.269542 
L 301.501525 263.15495 
L 302.452709 261.89941 
L 304.705515 261.701167 
L 305.856949 262.295896 
L 309.661688 263.022787 
L 307.35882 260.379546 
L 307.108508 259.190088 
L 308.410129 259.256169 
L 301.201151 256.150361 
L 292.990926 251.524689 
L 290.688058 250.863878 
L 285.131137 247.559827 
L 282.62802 246.238206 
L 279.273842 244.189695 
L 275.919665 242.405507 
L 274.067358 241.083886 
L 272.064864 240.158752 
L 269.661872 238.506726 
L 268.460375 238.044159 
L 264.3052 235.731323 
L 263.504203 234.806189 
L 261.301459 233.550649 
L 256.245162 230.973489 
L 253.241421 229.189301 
L 250.588117 227.272951 
L 245.832194 224.695791 
L 239.874775 221.061335 
L 237.021221 219.739714 
L 236.470535 219.078904 
L 231.964924 216.699987 
L 226.107629 213.924584 
L 219.29915 209.761479 
L 218.147716 208.836345 
L 214.793538 206.787833 
L 214.19279 206.655671 
L 208.836119 202.955133 
L 208.135246 201.633513 
L 206.433126 200.377973 
L 205.131505 200.113649 
L 204.530757 201.765675 
L 202.378076 201.104864 
L 200.12527 200.774459 
L 196.871218 199.51892 
L 194.217913 199.717163 
L 193.116542 201.170945 
L 191.864983 203.549862 
L 189.111554 206.787833 
L 186.408187 205.928779 
L 184.505818 205.730536 
L 178.248024 202.492566 
L 177.847525 201.104864 
L 179.149146 198.990271 
L 180.400705 197.999056 
L 181.15164 195.818382 
L 183.654758 190.333657 
L 187.10906 184.055959 
L 187.509559 182.932582 
L 189.512052 179.892854 
L 190.963861 176.787046 
L 192.966354 173.416914 
L 189.361865 170.443267 
L 186.458249 168.923404 
L 185.707314 168.791242 
L 184.305568 171.23624 
L 185.457002 171.632726 
L 184.605942 172.029212 
L 182.753636 171.170159 
L 181.802451 170.311105 
L 177.747401 169.055566 
L 175.494595 168.857323 
L 175.39447 168.196512 
L 173.091602 166.74273 
L 171.639794 166.148001 
L 170.288111 164.892461 
L 168.185492 164.297732 
L 167.584744 163.703002 
L 166.883871 164.429894 
L 166.483372 163.636921 
L 163.379507 161.390167 
L 161.927699 160.729356 
L 160.225579 159.473817 
L 159.124207 159.143412 
L 157.422087 160.99368 
L 156.320716 163.769084 
L 155.319469 164.892461 
L 154.818845 166.412325 
L 152.666164 169.9807 
L 150.062922 169.518133 
L 148.561052 170.245024 
L 147.209368 172.227455 
L 146.408371 172.293536 
L 143.855191 171.23624 
L 140.551076 169.518133 
L 125.932871 161.58841 
L 120.776449 158.548682 
L 119.474828 158.152196 
L 117.622521 156.632333 
L 116.721399 156.301927 
L 109.51242 152.337066 
L 108.661361 151.213688 
L 108.511174 148.834771 
L 107.860363 147.975718 
L 108.01055 147.050583 
L 109.262109 144.935991 
L 110.063106 142.821398 
L 111.21454 140.640724 
L 111.915413 138.592212 
L 113.717658 136.477619 
L 114.518655 134.164783 
L 123.279566 118.371417 
L 124.581187 116.388986 
L 125.632497 114.010069 
L 127.184429 111.631152 
L 128.385926 109.186154 
L 129.53736 107.60021 
L 130.288295 105.68386 
L 133.292036 100.926026 
L 134.042971 100.463459 
L 134.24322 99.207919 
L 143.805129 81.762528 
L 145.10675 78.854963 
L 147.559805 74.956182 
L 150.363296 69.07497 
L 151.364543 67.555107 
L 153.967785 62.665111 
L 159.925205 52.885119 
L 161.727449 48.920257 
L 163.429569 46.475259 
L 163.830068 44.823233 
L 165.031564 41.717425 
L 165.031564 40.527966 
L 161.577262 38.677698 
L 160.876389 37.818644 
L 157.972773 35.373646 
L 156.871402 34.97716 
L 152.515977 32.796486 
L 152.966538 32.4 
L 152.966538 32.4 
" clip-path="url(#p5625c4e672)" style="fill: none; stroke: #000000; stroke-width: 3"/>
   </g>
  </g>
 </g>
 <defs>
  <clipPath id="p5625c4e672">
   <rect x="7.2" y="7.2" width="316.864625" height="554.4"/>
  </clipPath>
 </defs>
</svg>
