<?xml version="1.0" encoding="utf-8" standalone="no"?>
<!DOCTYPE svg PUBLIC "-//W3C//DTD SVG 1.1//EN"
  "http://www.w3.org/Graphics/SVG/1.1/DTD/svg11.dtd">
<svg xmlns:xlink="http://www.w3.org/1999/xlink" width="572.4pt" height="279.037432pt" viewBox="0 0 572.4 279.037432" xmlns="http://www.w3.org/2000/svg" version="1.1">
 <metadata>
  <rdf:RDF xmlns:dc="http://purl.org/dc/elements/1.1/" xmlns:cc="http://creativecommons.org/ns#" xmlns:rdf="http://www.w3.org/1999/02/22-rdf-syntax-ns#">
   <cc:Work>
    <dc:type rdf:resource="http://purl.org/dc/dcmitype/StillImage"/>
    <dc:date>2023-09-25T14:14:13.316556</dc:date>
    <dc:format>image/svg+xml</dc:format>
    <dc:creator>
     <cc:Agent>
      <dc:title>Matplotlib v3.6.2, https://matplotlib.org/</dc:title>
     </cc:Agent>
    </dc:creator>
   </cc:Work>
  </rdf:RDF>
 </metadata>
 <defs>
  <style type="text/css">*{stroke-linejoin: round; stroke-linecap: butt}</style>
 </defs>
 <g id="figure_1">
  <g id="patch_1">
   <path d="M 0 279.037432 
L 572.4 279.037432 
L 572.4 0 
L 0 0 
z
" style="fill: #ffffff"/>
  </g>
  <g id="axes_1">
   <g id="LineCollection_1">
    <path d="M 535.248819 147.222 
L 535.049361 144.061678 
L 534.800038 143.469118 
L 533.304099 143.929998 
L 533.653151 145.180959 
L 533.653151 147.48536 
L 534.052068 152.225842 
L 534.999496 157.953925 
L 534.949631 158.414806 
L 535.847194 163.418648 
L 535.398413 165.459689 
L 536.096518 166.77649 
L 536.645028 169.673451 
L 538.639613 183.565699 
L 539.636905 189.425462 
L 539.836364 191.729863 
L 539.287853 192.454103 
L 533.154505 194.100104 
L 528.616825 194.626824 
L 518.544173 196.009465 
L 509.718136 197.194586 
L 505.080727 198.050506 
L 503.335466 198.050506 
L 499.944672 198.708906 
L 494.509429 199.433147 
L 493.163084 199.433147 
L 488.376081 200.157387 
L 479.799367 201.276668 
L 474.21453 202.330108 
L 470.773872 202.593468 
L 468.879017 203.186029 
L 467.283349 203.186029 
L 463.393909 203.646909 
L 452.772746 205.16123 
L 443.946709 206.28051 
L 442.500635 206.741391 
L 439.508758 207.004751 
L 432.976494 207.992351 
L 427.790574 208.387391 
L 424.449645 209.111632 
L 417.668057 210.033392 
L 414.875639 210.099232 
L 411.43498 210.955153 
L 405.152039 211.745233 
L 403.157454 211.350193 
L 400.564494 210.033392 
L 395.32871 206.67555 
L 391.489134 204.502829 
L 382.064722 198.577226 
L 379.571491 196.865385 
L 376.330291 195.087705 
L 353.242975 180.668737 
L 351.846766 179.944497 
L 345.314501 175.796575 
L 344.217479 175.269854 
L 340.178446 172.438733 
L 335.989818 170.134332 
L 331.302544 167.17153 
L 326.365947 163.879528 
L 324.321498 165.130489 
L 323.922581 165.98641 
L 322.975153 166.24977 
L 322.17732 167.76409 
L 319.035849 171.780333 
L 318.238015 175.269854 
L 315.794649 176.520815 
L 315.345867 176.191615 
L 313.351283 176.323295 
L 311.655886 175.796575 
L 305.073757 171.846173 
L 304.325788 171.714493 
L 301.782692 170.134332 
L 301.234181 170.200172 
L 297.793523 173.821374 
L 295.848803 176.191615 
L 290.463425 183.565699 
L 288.618434 186.39682 
L 287.122495 188.174501 
L 285.925745 190.149702 
L 283.781566 192.519943 
L 282.435222 194.890184 
L 276.401603 202.856829 
L 274.805935 205.35875 
L 265.082336 218.131716 
L 264.633554 218.987637 
L 262.738699 220.765318 
L 261.492083 223.069719 
L 255.059548 232.155644 
L 251.170108 238.015407 
L 247.330533 242.953409 
L 243.939739 248.286452 
L 241.89529 251.051733 
L 242.643259 252.500214 
L 244.288791 252.829414 
L 246.632428 255.067975 
L 248.726742 256.187256 
L 249.424847 257.043176 
L 251.768483 258.359977 
L 253.414016 259.808458 
L 254.311579 258.491657 
L 253.064963 258.096617 
L 250.023222 256.516456 
L 247.480127 254.936295 
L 245.734865 253.553655 
L 243.939739 253.026934 
L 241.89529 251.380933 
L 240.299622 250.788373 
L 239.800976 249.866613 
L 237.307745 248.944852 
L 234.664921 246.969651 
L 230.426428 245.19197 
L 225.340238 242.097489 
L 221.051881 240.056448 
L 217.361899 237.817886 
L 211.577604 235.184285 
L 207.139653 232.155644 
L 205.494121 231.563083 
L 202.951025 229.785402 
L 198.46321 227.481001 
L 196.019844 225.57164 
L 191.432299 222.542999 
L 188.988933 221.094518 
L 187.193807 220.370278 
L 184.900035 218.987637 
L 182.057752 217.604996 
L 178.018718 215.103075 
L 176.672373 214.510514 
L 173.481038 212.271953 
L 171.9851 211.745233 
L 169.142817 209.835872 
L 166.300533 208.321551 
L 165.253377 207.399791 
L 160.765561 204.700349 
L 156.975851 202.922669 
L 156.078287 202.264268 
L 150.443586 199.235627 
L 149.895075 199.103947 
L 146.454417 196.799545 
L 140.470663 193.507544 
L 139.024589 192.256583 
L 138.376349 192.190743 
L 135.284743 189.688822 
L 134.586638 189.622982 
L 130.348146 187.450261 
L 129.550312 187.713621 
L 129.650042 189.030421 
L 127.356269 187.779461 
L 125.411549 187.318581 
L 124.164934 187.450261 
L 123.067912 189.030421 
L 121.771432 190.281382 
L 120.824005 190.281382 
L 119.577389 191.005622 
L 119.078743 192.124903 
L 116.934565 194.297624 
L 114.890116 193.375864 
L 111.299863 192.256583 
L 109.355143 191.334823 
L 104.069494 188.372021 
L 102.573556 188.306181 
L 97.886282 185.80426 
L 89.75835 181.129617 
L 83.674867 178.364336 
L 82.976762 177.508415 
L 74.649371 172.767933 
L 71.308442 171.319452 
L 69.712774 170.924412 
L 69.363722 169.936812 
L 62.183218 165.92057 
L 61.485113 165.196329 
L 59.241205 163.879528 
L 59.839581 161.377607 
L 62.033624 162.036008 
L 60.338227 160.455847 
L 61.036331 159.402406 
L 61.834165 157.229685 
L 62.53227 156.307925 
L 61.933895 154.925284 
L 60.537685 154.266884 
L 57.34635 152.028322 
L 56.897568 151.369922 
L 48.520313 146.69528 
L 46.376135 145.312639 
L 44.082362 144.193358 
L 38.746849 141.296397 
L 37.25091 140.242956 
L 36.453076 136.490074 
L 36.851993 135.173274 
L 39.19563 131.288712 
L 40.442246 128.58927 
L 40.143058 126.94327 
L 37.749556 125.297269 
L 34.259033 123.256228 
L 33.36147 120.030066 
L 33.560929 118.318225 
L 33.112147 115.289584 
L 33.062283 106.071979 
L 33.36147 104.162618 
L 32.962553 102.384937 
L 32.912689 98.895415 
L 32.563636 97.051894 
L 33.012418 95.471733 
L 32.663366 93.299012 
L 33.162012 90.138691 
L 32.763095 89.28277 
L 32.962553 86.122449 
L 32.71323 83.949727 
L 32.862824 77.760764 
L 33.311606 76.180603 
L 33.411335 73.481162 
L 34.807544 69.99164 
L 36.104024 67.489719 
L 37.400504 65.712038 
L 35.804836 63.605157 
L 36.303482 59.193875 
L 38.148473 55.770193 
L 38.796713 55.638513 
L 38.048744 54.519232 
L 38.198338 52.280671 
L 39.345224 50.23963 
L 39.295359 49.31787 
L 40.143058 46.881788 
L 39.84387 45.169948 
L 41.240079 42.338826 
L 41.589132 40.692825 
L 44.581009 42.404666 
L 45.279113 43.392267 
L 46.425999 42.799706 
L 48.320855 43.392267 
L 48.021667 42.602186 
L 49.068824 41.219545 
L 51.063408 39.573545 
L 53.107858 36.413223 
L 53.556639 36.215703 
L 55.650953 33.121221 
L 57.446079 29.302499 
L 63.230375 19.228974 
L 66.072658 19.953215 
L 70.510608 22.455136 
L 76.79355 25.812978 
L 77.790842 25.747138 
L 79.436374 23.311056 
L 80.284073 23.113536 
L 83.525273 24.166977 
L 84.173513 23.903617 
L 84.273242 26.010498 
L 84.722024 25.417937 
L 82.976762 23.640256 
L 80.732854 22.850176 
L 80.184344 23.113536 
L 78.09003 25.483777 
L 77.990301 26.339698 
L 75.098153 31.01434 
L 70.161556 39.836905 
L 69.263993 41.087865 
L 67.867784 44.116507 
L 66.42171 46.552588 
L 64.975636 49.64707 
L 64.526855 50.04211 
L 61.385384 55.506833 
L 60.637415 56.296913 
L 56.947433 63.012597 
L 55.950141 63.670997 
L 54.354473 62.749237 
L 53.706233 62.946757 
L 43.533852 57.284514 
L 41.539267 56.691953 
L 38.746849 55.375153 
L 37.25091 55.111793 
L 36.901858 52.609871 
L 37.699692 52.148991 
L 37.350639 50.30547 
L 37.649827 48.396109 
L 38.796713 47.342669 
L 42.985341 46.223388 
L 43.982633 46.355068 
L 45.67803 45.894188 
L 46.675322 46.025868 
L 47.373427 44.840747 
L 50.115981 42.602186 
L 52.310024 39.376025 
L 54.204879 37.005783 
L 55.202172 34.767222 
L 58.942018 29.170819 
L 61.285655 24.693697 
L 62.631999 22.850176 
L 64.028208 19.624014 
L 67.219544 20.545775 
L 67.967513 21.928416 
L 70.460744 22.389296 
L 75.49707 25.154577 
L 77.292196 25.352097 
L 78.987593 22.652656 
L 80.932313 22.916016 
L 82.827168 24.035297 
L 84.123648 24.166977 
L 84.123648 24.166977 
" clip-path="url(#pf7af637686)" style="fill: none; stroke: #000000; stroke-width: 3"/>
   </g>
  </g>
 </g>
 <defs>
  <clipPath id="pf7af637686">
   <rect x="7.2" y="7.2" width="558" height="264.637432"/>
  </clipPath>
 </defs>
</svg>
