<?xml version="1.0" encoding="utf-8" standalone="no"?>
<!DOCTYPE svg PUBLIC "-//W3C//DTD SVG 1.1//EN"
  "http://www.w3.org/Graphics/SVG/1.1/DTD/svg11.dtd">
<svg xmlns:xlink="http://www.w3.org/1999/xlink" width="219.739574pt" height="568.8pt" viewBox="0 0 219.739574 568.8" xmlns="http://www.w3.org/2000/svg" version="1.1">
 <metadata>
  <rdf:RDF xmlns:dc="http://purl.org/dc/elements/1.1/" xmlns:cc="http://creativecommons.org/ns#" xmlns:rdf="http://www.w3.org/1999/02/22-rdf-syntax-ns#">
   <cc:Work>
    <dc:type rdf:resource="http://purl.org/dc/dcmitype/StillImage"/>
    <dc:date>2023-09-25T14:14:13.192096</dc:date>
    <dc:format>image/svg+xml</dc:format>
    <dc:creator>
     <cc:Agent>
      <dc:title>Matplotlib v3.6.2, https://matplotlib.org/</dc:title>
     </cc:Agent>
    </dc:creator>
   </cc:Work>
  </rdf:RDF>
 </metadata>
 <defs>
  <style type="text/css">*{stroke-linejoin: round; stroke-linecap: butt}</style>
 </defs>
 <g id="figure_1">
  <g id="patch_1">
   <path d="M 0 568.8 
L 219.739574 568.8 
L 219.739574 0 
L 0 0 
z
" style="fill: #ffffff"/>
  </g>
  <g id="axes_1">
   <g id="LineCollection_1">
    <path d="M 203.205957 32.4 
L 200.309005 34.790892 
L 191.799209 48.179886 
L 190.350733 54.396205 
L 179.668223 74.718786 
L 173.5122 81.413283 
L 172.425843 85.477799 
L 165.726642 94.085009 
L 160.656976 104.604934 
L 158.665321 111.299431 
L 144.542681 133.534725 
L 136.032884 151.705503 
L 129.876862 161.26907 
L 124.807196 171.549905 
L 122.272363 174.179886 
L 120.280708 179.918027 
L 113.038328 190.67704 
L 107.425484 204.066034 
L 102.717937 211.955977 
L 98.553569 216.737761 
L 88.595296 236.343074 
L 74.110537 262.164706 
L 60.712134 287.508159 
L 50.391743 306.157116 
L 50.753862 308.308918 
L 58.72048 315.242505 
L 70.670406 321.697913 
L 72.662061 325.762429 
L 71.937823 332.696015 
L 69.765109 338.912334 
L 66.324978 344.172296 
L 59.625777 351.82315 
L 50.210683 359.474004 
L 34.639567 375.25389 
L 22.68964 390.794687 
L 17.801033 400.358254 
L 16.533617 411.356357 
L 21.965402 422.832638 
L 29.026722 430.722581 
L 38.079697 437.656167 
L 40.252411 445.067932 
L 34.820626 456.066034 
L 37.1744 459.652372 
L 40.071352 459.652372 
L 53.650814 468.259583 
L 57.090944 472.563188 
L 65.238621 475.910436 
L 67.592395 479.496774 
L 79.542322 486.430361 
L 80.990798 488.582163 
L 87.14682 487.386717 
L 97.648271 493.363947 
L 110.684555 504.362049 
L 122.815541 508.426565 
L 134.765468 518.7074 
L 140.378312 521.81556 
L 146.715395 520.141935 
L 147.439633 524.206452 
L 151.96612 526.119165 
L 153.595656 528.749146 
L 162.82969 527.5537 
L 171.520546 530.66186 
L 171.339486 536.4 
" clip-path="url(#pfc075c0dbf)" style="fill: none; stroke: #000000; stroke-width: 3"/>
   </g>
  </g>
 </g>
 <defs>
  <clipPath id="pfc075c0dbf">
   <rect x="7.2" y="7.2" width="205.339574" height="554.4"/>
  </clipPath>
 </defs>
</svg>
