<?xml version="1.0" encoding="utf-8" standalone="no"?>
<!DOCTYPE svg PUBLIC "-//W3C//DTD SVG 1.1//EN"
  "http://www.w3.org/Graphics/SVG/1.1/DTD/svg11.dtd">
<svg xmlns:xlink="http://www.w3.org/1999/xlink" width="464.429141pt" height="568.8pt" viewBox="0 0 464.429141 568.8" xmlns="http://www.w3.org/2000/svg" version="1.1">
 <metadata>
  <rdf:RDF xmlns:dc="http://purl.org/dc/elements/1.1/" xmlns:cc="http://creativecommons.org/ns#" xmlns:rdf="http://www.w3.org/1999/02/22-rdf-syntax-ns#">
   <cc:Work>
    <dc:type rdf:resource="http://purl.org/dc/dcmitype/StillImage"/>
    <dc:date>2023-09-25T14:14:13.081319</dc:date>
    <dc:format>image/svg+xml</dc:format>
    <dc:creator>
     <cc:Agent>
      <dc:title>Matplotlib v3.6.2, https://matplotlib.org/</dc:title>
     </cc:Agent>
    </dc:creator>
   </cc:Work>
  </rdf:RDF>
 </metadata>
 <defs>
  <style type="text/css">*{stroke-linejoin: round; stroke-linecap: butt}</style>
 </defs>
 <g id="figure_1">
  <g id="patch_1">
   <path d="M 0 568.8 
L 464.429141 568.8 
L 464.429141 0 
L 0 0 
z
" style="fill: #ffffff"/>
  </g>
  <g id="axes_1">
   <g id="LineCollection_1">
    <path d="M 162.76228 372.102808 
L 165.203962 371.565304 
L 172.529008 376.940348 
L 180.803597 380.344543 
L 185.686962 384.823747 
L 190.434677 383.211234 
L 195.45369 376.582012 
L 202.100491 366.011091 
L 214.5802 343.615073 
L 217.021882 337.702524 
L 220.955703 330.535798 
L 227.466855 320.502382 
L 232.757166 309.931461 
L 236.284041 305.093921 
L 237.640531 301.152222 
L 244.151683 290.402133 
L 250.255888 277.502026 
L 259.751319 261.376893 
L 264.363385 251.701813 
L 272.773623 237.547529 
L 282.676001 219.272378 
L 285.52463 215.330679 
L 291.357537 203.863918 
L 294.613113 199.384714 
L 299.08953 189.888802 
L 305.465033 177.884536 
L 311.43359 163.909421 
L 320.793371 147.605119 
L 324.99849 141.334234 
L 327.575821 135.959189 
L 329.339258 134.167508 
L 333.27308 126.284109 
L 344.667596 106.396445 
L 347.109278 106.396445 
L 350.771801 100.842232 
L 349.957907 95.108852 
L 352.399589 92.242161 
L 352.942185 89.554639 
L 356.197762 82.925418 
L 367.049682 63.754426 
L 374.917324 51.75016 
L 376.81641 46.91262 
L 383.056265 35.625027 
L 384.819702 34.729186 
L 400.554986 41.537576 
L 415.476377 48.88347 
L 419.817145 50.137647 
L 421.987529 55.691859 
L 427.820437 57.841877 
L 433.653344 60.887736 
L 427.277841 56.408532 
L 426.463946 54.796018 
L 429.719523 46.91262 
L 431.754258 43.508425 
L 436.773271 32.4 
L 434.060291 33.475009 
L 428.091735 40.641735 
L 427.549139 42.791753 
L 422.801423 49.958478 
L 419.817145 56.946036 
L 416.561569 61.604408 
L 410.728662 71.637824 
L 405.438351 82.567081 
L 401.911476 88.121294 
L 400.690635 92.242161 
L 397.028112 97.25887 
L 396.078569 99.946392 
L 389.567417 108.367295 
L 387.261384 114.817348 
L 385.091 116.429861 
L 382.920616 121.984074 
L 378.851146 123.775755 
L 365.828841 121.625738 
L 363.115861 121.984074 
L 354.976921 118.759047 
L 350.771801 119.296552 
L 343.582404 124.671596 
L 342.090265 128.613295 
L 343.039808 136.675862 
L 349.279662 140.259225 
L 353.213483 144.021756 
L 355.11257 147.605119 
L 356.604709 154.234341 
L 358.910742 158.713544 
L 359.18204 164.267757 
L 357.011656 171.076146 
L 354.434325 175.55535 
L 350.771801 179.676218 
L 344.531947 183.797085 
L 340.598126 187.20128 
L 334.900868 196.159687 
L 330.424451 209.238962 
L 326.083682 214.793175 
L 321.471616 217.659865 
L 313.739623 220.526555 
L 305.736332 226.080768 
L 299.767775 234.322503 
L 294.884411 243.101742 
L 286.474173 262.989406 
L 283.489895 267.110274 
L 276.843093 272.664486 
L 273.587517 274.097831 
L 268.161557 279.472876 
L 265.584226 285.743761 
L 264.770332 289.864629 
L 265.584226 299.898045 
L 261.921703 308.318948 
L 255.41055 312.798151 
L 242.930842 318.352364 
L 233.028465 325.877426 
L 224.346928 337.881692 
L 221.905246 342.8984 
L 219.734862 349.885958 
L 219.327915 359.202702 
L 221.498299 367.802773 
L 225.025173 379.448702 
L 225.025173 384.107074 
L 222.040895 392.707145 
L 216.750584 401.486385 
L 207.526451 410.982296 
L 201.829193 414.923996 
L 197.759723 419.224031 
L 195.046743 424.240739 
L 193.961551 430.511625 
L 194.368498 442.336722 
L 193.554604 446.815926 
L 189.078187 454.699325 
L 185.95826 458.282688 
L 174.292445 468.136936 
L 164.390068 479.245361 
L 163.033578 482.112051 
L 156.658074 489.457945 
L 154.623339 493.041308 
L 149.468677 497.341344 
L 137.124618 505.762247 
L 132.512551 511.853964 
L 127.629187 520.095699 
L 123.831015 524.216566 
L 122.474525 527.083256 
L 115.01383 535.683327 
L 105.925346 536.4 
L 94.802128 531.741628 
L 90.597009 528.874938 
L 81.101578 524.75407 
L 75.268671 523.141557 
L 70.656605 520.812371 
L 61.161174 513.108141 
L 53.157883 510.24145 
L 44.205049 503.253893 
L 36.337406 498.058016 
L 29.283658 497.341344 
L 27.65587 495.72883 
L 31.72534 492.145467 
L 35.387863 485.337078 
L 35.252214 484.082901 
L 39.050387 476.020334 
L 41.35642 473.51198 
L 45.018943 464.016068 
L 50.309254 454.16182 
L 58.176896 440.903377 
L 64.688049 427.644934 
L 67.129731 424.240739 
L 69.97836 417.790686 
L 74.319128 410.982296 
L 80.152035 403.278066 
L 83.136313 397.007181 
L 90.054413 385.719588 
L 90.732658 383.032065 
L 97.922055 369.236118 
L 103.754962 359.202702 
L 107.010538 355.081834 
L 111.758254 346.302595 
L 120.168492 345.944259 
L 121.118035 347.915108 
L 125.594452 350.602631 
L 129.93522 351.140135 
L 136.310724 355.081834 
L 139.430651 358.127693 
L 144.99226 358.844365 
L 147.298293 364.040242 
L 148.519134 363.681905 
L 154.080743 366.19026 
L 158.014564 371.0278 
L 158.014564 371.0278 
" clip-path="url(#pfedddf00bc)" style="fill: none; stroke: #000000; stroke-width: 3"/>
   </g>
  </g>
 </g>
 <defs>
  <clipPath id="pfedddf00bc">
   <rect x="7.2" y="7.2" width="450.029141" height="554.4"/>
  </clipPath>
 </defs>
</svg>
