<?xml version="1.0" encoding="utf-8" standalone="no"?>
<!DOCTYPE svg PUBLIC "-//W3C//DTD SVG 1.1//EN"
  "http://www.w3.org/Graphics/SVG/1.1/DTD/svg11.dtd">
<svg xmlns:xlink="http://www.w3.org/1999/xlink" width="342.127819pt" height="568.8pt" viewBox="0 0 342.127819 568.8" xmlns="http://www.w3.org/2000/svg" version="1.1">
 <metadata>
  <rdf:RDF xmlns:dc="http://purl.org/dc/elements/1.1/" xmlns:cc="http://creativecommons.org/ns#" xmlns:rdf="http://www.w3.org/1999/02/22-rdf-syntax-ns#">
   <cc:Work>
    <dc:type rdf:resource="http://purl.org/dc/dcmitype/StillImage"/>
    <dc:date>2023-09-25T14:14:12.524606</dc:date>
    <dc:format>image/svg+xml</dc:format>
    <dc:creator>
     <cc:Agent>
      <dc:title>Matplotlib v3.6.2, https://matplotlib.org/</dc:title>
     </cc:Agent>
    </dc:creator>
   </cc:Work>
  </rdf:RDF>
 </metadata>
 <defs>
  <style type="text/css">*{stroke-linejoin: round; stroke-linecap: butt}</style>
 </defs>
 <g id="figure_1">
  <g id="patch_1">
   <path d="M 0 568.8 
L 342.127819 568.8 
L 342.127819 0 
L 0 0 
z
" style="fill: #ffffff"/>
  </g>
  <g id="axes_1">
   <g id="LineCollection_1">
    <path d="M 57.123583 494.490713 
L 55.47526 497.212095 
L 71.134328 504.287689 
L 74.843055 509.730454 
L 109.045757 531.501512 
L 131.710198 536.4 
L 141.188055 526.058747 
L 146.133024 513.540389 
L 159.319608 496.123542 
L 173.742434 466.188337 
L 185.692776 446.594384 
L 210.00554 401.419438 
L 226.48877 375.294168 
L 240.499516 356.788769 
L 253.274019 329.574946 
L 272.641814 294.741253 
L 296.542497 256.097624 
L 309.317001 225.618143 
L 318.794858 209.834125 
L 320.0311 192.417279 
L 295.718336 178.810367 
L 260.279392 154.317927 
L 244.620323 149.419438 
L 214.538428 135.812527 
L 213.714267 123.838445 
L 224.840447 106.421598 
L 236.378708 83.017711 
L 251.625696 62.335205 
L 252.037777 54.715335 
L 241.735758 46.006911 
L 251.625696 32.4 
L 232.257901 77.574946 
L 224.428366 88.460475 
L 215.774671 112.952916 
L 206.708894 125.471274 
L 200.939764 145.065227 
L 191.049826 155.406479 
L 188.989422 165.203456 
L 181.159888 173.367603 
L 170.445788 190.784449 
L 164.676658 206.568467 
L 149.01759 227.795248 
L 146.957186 238.136501 
L 137.891409 249.566307 
L 125.116906 285.488553 
L 114.814887 294.741253 
L 109.457838 309.436717 
L 101.216223 320.322246 
L 86.793397 350.257451 
L 78.551782 360.054428 
L 72.37057 374.205616 
L 59.596067 391.078186 
L 43.112837 422.64622 
L 34.459141 432.987473 
L 25.393365 450.948596 
L 22.096719 462.922678 
L 53.002775 485.782289 
L 49.294048 508.641901 
L 56.299421 493.40216 
L 48.881968 498.300648 
L 46.821564 510.819006 
" clip-path="url(#p7d6ce39dc7)" style="fill: none; stroke: #000000; stroke-width: 3"/>
   </g>
  </g>
 </g>
 <defs>
  <clipPath id="p7d6ce39dc7">
   <rect x="7.2" y="7.2" width="327.727819" height="554.4"/>
  </clipPath>
 </defs>
</svg>
