<?xml version="1.0" encoding="utf-8" standalone="no"?>
<!DOCTYPE svg PUBLIC "-//W3C//DTD SVG 1.1//EN"
  "http://www.w3.org/Graphics/SVG/1.1/DTD/svg11.dtd">
<svg xmlns:xlink="http://www.w3.org/1999/xlink" width="406.288756pt" height="568.8pt" viewBox="0 0 406.288756 568.8" xmlns="http://www.w3.org/2000/svg" version="1.1">
 <metadata>
  <rdf:RDF xmlns:dc="http://purl.org/dc/elements/1.1/" xmlns:cc="http://creativecommons.org/ns#" xmlns:rdf="http://www.w3.org/1999/02/22-rdf-syntax-ns#">
   <cc:Work>
    <dc:type rdf:resource="http://purl.org/dc/dcmitype/StillImage"/>
    <dc:date>2023-09-25T14:14:12.183767</dc:date>
    <dc:format>image/svg+xml</dc:format>
    <dc:creator>
     <cc:Agent>
      <dc:title>Matplotlib v3.6.2, https://matplotlib.org/</dc:title>
     </cc:Agent>
    </dc:creator>
   </cc:Work>
  </rdf:RDF>
 </metadata>
 <defs>
  <style type="text/css">*{stroke-linejoin: round; stroke-linecap: butt}</style>
 </defs>
 <g id="figure_1">
  <g id="patch_1">
   <path d="M 0 568.8 
L 406.288756 568.8 
L 406.288756 0 
L 0 0 
z
" style="fill: #ffffff"/>
  </g>
  <g id="axes_1">
   <g id="LineCollection_1">
    <path d="M 58.178704 500.130841 
L 69.590516 501.543925 
L 83.142043 510.493458 
L 98.476665 517.558879 
L 114.524525 522.740187 
L 131.285624 536.4 
L 137.348149 532.160748 
L 145.907008 516.616822 
L 155.535725 504.370093 
L 169.087251 477.521495 
L 194.05059 430.88972 
L 217.944071 392.736449 
L 219.013929 388.968224 
L 242.90741 344.220561 
L 253.249365 327.734579 
L 265.017796 303.71215 
L 271.793559 294.291589 
L 281.422276 274.979439 
L 288.911277 264.145794 
L 295.330421 250.014953 
L 323.146713 197.730841 
L 338.481335 172.766355 
L 355.242434 139.794393 
L 379.135916 100.228037 
L 381.27563 88.923364 
L 351.676243 71.495327 
L 343.830622 63.48785 
L 323.859951 59.248598 
L 304.602519 47.943925 
L 292.120849 37.581308 
L 281.422276 32.4 
L 269.653844 47.001869 
L 263.2347 64.900935 
L 251.10965 79.031776 
L 241.480934 77.147664 
L 235.418409 88.923364 
L 231.138979 103.996262 
L 225.433073 104.938318 
L 223.649977 115.300935 
L 207.602117 134.142056 
L 202.966068 147.801869 
L 189.771161 174.650467 
L 174.436538 196.317757 
L 167.660775 212.803738 
L 145.550389 244.833645 
L 136.278292 255.196262 
L 129.859148 273.566355 
L 118.803955 283.928972 
L 112.74143 305.125234 
L 103.825952 317.842991 
L 87.421472 351.757009 
L 79.93247 374.366355 
L 74.226564 380.018692 
L 64.597848 403.570093 
L 55.68237 410.635514 
L 44.983796 429.005607 
L 37.851414 436.071028 
L 25.013125 462.448598 
L 28.222697 471.398131 
L 48.193368 487.884112 
L 54.255893 495.420561 
" clip-path="url(#pd452b7124d)" style="fill: none; stroke: #000000; stroke-width: 3"/>
   </g>
  </g>
 </g>
 <defs>
  <clipPath id="pd452b7124d">
   <rect x="7.2" y="7.2" width="391.888756" height="554.4"/>
  </clipPath>
 </defs>
</svg>
