<?xml version="1.0" encoding="utf-8" standalone="no"?>
<!DOCTYPE svg PUBLIC "-//W3C//DTD SVG 1.1//EN"
  "http://www.w3.org/Graphics/SVG/1.1/DTD/svg11.dtd">
<svg xmlns:xlink="http://www.w3.org/1999/xlink" width="302.818838pt" height="568.8pt" viewBox="0 0 302.818838 568.8" xmlns="http://www.w3.org/2000/svg" version="1.1">
 <metadata>
  <rdf:RDF xmlns:dc="http://purl.org/dc/elements/1.1/" xmlns:cc="http://creativecommons.org/ns#" xmlns:rdf="http://www.w3.org/1999/02/22-rdf-syntax-ns#">
   <cc:Work>
    <dc:type rdf:resource="http://purl.org/dc/dcmitype/StillImage"/>
    <dc:date>2023-09-25T14:14:12.007147</dc:date>
    <dc:format>image/svg+xml</dc:format>
    <dc:creator>
     <cc:Agent>
      <dc:title>Matplotlib v3.6.2, https://matplotlib.org/</dc:title>
     </cc:Agent>
    </dc:creator>
   </cc:Work>
  </rdf:RDF>
 </metadata>
 <defs>
  <style type="text/css">*{stroke-linejoin: round; stroke-linecap: butt}</style>
 </defs>
 <g id="figure_1">
  <g id="patch_1">
   <path d="M 0 568.8 
L 302.818838 568.8 
L 302.818838 0 
L 0 0 
z
" style="fill: #ffffff"/>
  </g>
  <g id="axes_1">
   <g id="LineCollection_1">
    <path d="M 250.129462 34.857338 
L 254.967767 39.280546 
L 262.783492 44.195222 
L 266.133088 44.932423 
L 279.345384 52.795904 
L 281.764537 55.498976 
L 271.157482 76.386348 
L 267.063531 82.529693 
L 262.96958 92.359044 
L 255.898211 102.188396 
L 256.270388 107.103072 
L 252.362526 113.49215 
L 250.129462 113.246416 
L 245.477245 120.372696 
L 239.708496 131.430717 
L 236.544988 140.031399 
L 219.610919 170.993857 
L 211.981283 182.543345 
L 206.026446 195.567235 
L 203.793381 198.516041 
L 195.419391 213.99727 
L 192.81415 220.877816 
L 189.464553 225.546758 
L 185.370603 234.638908 
L 176.252257 249.874403 
L 168.80871 260.686689 
L 160.062543 276.413652 
L 154.665971 287.96314 
L 152.06073 290.174744 
L 149.455488 300.004096 
L 142.570207 311.062116 
L 138.662345 319.417065 
L 129.171822 333.178157 
L 127.497024 338.092833 
L 123.96134 342.761775 
L 118.936945 352.345392 
L 115.773438 355.294198 
L 113.726462 361.191809 
L 106.282915 374.2157 
L 103.677674 381.096246 
L 101.258521 382.324915 
L 99.025457 389.205461 
L 91.209733 401.49215 
L 82.835742 418.939249 
L 74.275663 433.437543 
L 72.042599 439.826621 
L 69.251269 442.529693 
L 66.087761 449.164505 
L 57.341594 453.096246 
L 54.364175 457.027986 
L 52.875465 463.908532 
L 53.991997 468.331741 
L 47.851071 480.372696 
L 38.732726 493.396587 
L 38.360549 499.785666 
L 33.522243 510.352218 
L 23.659543 521.655973 
L 20.309947 530.748123 
L 24.031721 534.188396 
L 30.730913 528.045051 
L 32.5918 531.23959 
L 32.219622 536.4 
L 21.240391 518.952901 
L 21.984745 530.010922 
L 23.845632 533.696928 
L 28.125672 528.045051 
L 28.497849 522.638908 
L 33.894421 516.004096 
L 42.082322 501.260068 
L 44.129298 491.430717 
L 47.664983 486.516041 
L 52.689377 476.195222 
L 60.319012 473.246416 
L 65.343407 469.314676 
L 68.506914 464.645734 
L 69.06518 460.468259 
L 67.948648 450.393174 
L 71.484333 443.02116 
L 76.508727 435.403413 
L 81.71921 425.574061 
L 83.952274 417.956314 
L 90.651467 411.321502 
L 93.628885 406.898294 
L 95.489772 400.263481 
L 97.722836 397.56041 
L 102.002876 387.485324 
L 105.538561 382.079181 
L 115.587349 362.420478 
L 137.359724 324.577474 
L 143.872828 311.799317 
L 151.502464 300.004096 
L 167.878267 268.795904 
L 170.483508 266.5843 
L 175.507903 255.772014 
L 189.650642 230.952901 
L 195.419391 218.420478 
L 202.304672 208.099659 
L 211.795194 189.178157 
L 220.355274 173.942662 
L 221.285717 170.256655 
L 228.729264 157.969966 
L 240.080673 137.328328 
L 250.873816 118.898294 
L 254.781679 110.051877 
L 269.854861 85.478498 
L 278.787118 68.277133 
L 282.508891 53.287372 
L 265.946999 41.49215 
L 248.826841 32.4 
L 245.291156 40.754949 
" clip-path="url(#p3963ffe10c)" style="fill: none; stroke: #000000; stroke-width: 3"/>
   </g>
  </g>
 </g>
 <defs>
  <clipPath id="p3963ffe10c">
   <rect x="7.2" y="7.2" width="288.418838" height="554.4"/>
  </clipPath>
 </defs>
</svg>
