<?xml version="1.0" encoding="utf-8" standalone="no"?>
<!DOCTYPE svg PUBLIC "-//W3C//DTD SVG 1.1//EN"
  "http://www.w3.org/Graphics/SVG/1.1/DTD/svg11.dtd">
<svg xmlns:xlink="http://www.w3.org/1999/xlink" width="303.889613pt" height="568.8pt" viewBox="0 0 303.889613 568.8" xmlns="http://www.w3.org/2000/svg" version="1.1">
 <metadata>
  <rdf:RDF xmlns:dc="http://purl.org/dc/elements/1.1/" xmlns:cc="http://creativecommons.org/ns#" xmlns:rdf="http://www.w3.org/1999/02/22-rdf-syntax-ns#">
   <cc:Work>
    <dc:type rdf:resource="http://purl.org/dc/dcmitype/StillImage"/>
    <dc:date>2023-09-25T14:14:11.548284</dc:date>
    <dc:format>image/svg+xml</dc:format>
    <dc:creator>
     <cc:Agent>
      <dc:title>Matplotlib v3.6.2, https://matplotlib.org/</dc:title>
     </cc:Agent>
    </dc:creator>
   </cc:Work>
  </rdf:RDF>
 </metadata>
 <defs>
  <style type="text/css">*{stroke-linejoin: round; stroke-linecap: butt}</style>
 </defs>
 <g id="figure_1">
  <g id="patch_1">
   <path d="M 0 568.8 
L 303.889613 568.8 
L 303.889613 0 
L 0 0 
z
" style="fill: #ffffff"/>
  </g>
  <g id="axes_1">
   <g id="LineCollection_1">
    <path d="M 80.918749 536.4 
L 80.647786 535.773468 
L 76.447866 533.446351 
L 75.431757 533.356846 
L 68.31899 529.508151 
L 64.05133 527.002025 
L 62.222333 525.301438 
L 53.754753 521.273735 
L 53.009606 519.662653 
L 48.064539 516.709004 
L 45.96458 516.44049 
L 41.76466 514.560895 
L 37.835703 511.965264 
L 35.464781 511.070218 
L 33.703524 509.548641 
L 27.742348 506.326478 
L 25.77787 505.520938 
L 20.358619 502.20927 
L 20.561841 501.314225 
L 23.67791 495.943953 
L 24.829501 493.527331 
L 28.284273 488.157059 
L 31.535824 482.607778 
L 33.974487 480.45967 
L 39.055035 477.864038 
L 42.035623 475.984443 
L 44.542026 473.836335 
L 46.438764 469.898135 
L 46.845208 465.959936 
L 46.777467 459.51561 
L 47.658096 454.861375 
L 48.809686 451.639212 
L 51.790275 446.447949 
L 54.161197 445.463399 
L 57.480488 442.688759 
L 59.85141 441.346191 
L 63.102961 438.750559 
L 65.812586 434.006819 
L 66.15129 431.590197 
L 65.473883 427.114971 
L 65.812586 423.445285 
L 68.183509 417.985509 
L 71.299578 412.794246 
L 75.838201 407.065956 
L 78.005901 404.738839 
L 81.663896 401.785189 
L 82.950968 399.100053 
L 85.050927 396.414917 
L 88.437959 390.597123 
L 89.657291 387.732978 
L 93.044323 382.541716 
L 99.547424 369.832072 
L 101.444162 366.520405 
L 104.018306 360.971124 
L 105.711822 356.316889 
L 109.437557 347.276931 
L 112.756848 339.758551 
L 116.550324 333.493234 
L 122.105056 327.317421 
L 123.121166 324.990304 
L 127.388826 317.650932 
L 128.404935 316.308364 
L 127.998491 315.592328 
L 131.588745 308.789984 
L 134.366111 304.583271 
L 136.601552 300.197549 
L 141.275656 292.679169 
L 142.76595 289.098988 
L 145.272354 284.355248 
L 146.152982 280.506553 
L 147.236832 278.26894 
L 151.301271 271.287587 
L 152.994787 263.769206 
L 152.385121 258.756953 
L 152.588343 256.429835 
L 155.568931 250.79105 
L 157.872113 247.031859 
L 163.291363 236.470325 
L 166.475173 231.010549 
L 172.233128 220.628023 
L 175.213716 217.942888 
L 178.465266 216.510815 
L 179.752338 214.899734 
L 186.865105 208.007885 
L 189.168287 203.622163 
L 190.59084 199.504955 
L 194.248835 192.344592 
L 195.806869 190.196484 
L 197.432645 186.974321 
L 201.15838 182.320085 
L 205.358299 179.008418 
L 208.67759 174.891209 
L 209.761441 173.996164 
L 210.574328 171.848055 
L 211.8614 170.326478 
L 214.096841 165.851252 
L 215.519395 164.41918 
L 216.874208 162.002557 
L 219.922536 158.69089 
L 224.190196 150.635482 
L 226.290156 147.413319 
L 227.915931 144.101652 
L 229.203004 138.462866 
L 229.338485 135.509217 
L 231.032001 130.317954 
L 232.04811 125.574214 
L 232.04811 122.441556 
L 231.506185 120.114438 
L 230.96426 115.191689 
L 231.573926 111.163985 
L 233.470664 102.482046 
L 235.367402 98.096324 
L 235.773845 94.963665 
L 237.264139 89.056367 
L 239.160877 82.970059 
L 239.49958 79.8374 
L 240.244727 76.973255 
L 243.225315 71.244965 
L 245.8672 68.022802 
L 248.576826 65.516676 
L 251.828376 61.130954 
L 253.521892 57.908791 
L 254.808964 53.970591 
L 256.773443 49.584869 
L 259.076625 46.183697 
L 263.547507 40.634417 
L 266.257132 36.785722 
L 268.221611 32.4 
L 265.918429 38.933831 
L 266.866798 40.007885 
L 273.776343 44.930634 
L 274.589231 45.915184 
L 274.318268 48.421311 
L 272.827974 53.612573 
L 273.369899 54.597123 
L 277.908522 57.729782 
L 283.395513 61.041449 
L 283.530995 61.936494 
L 280.143963 68.828343 
L 277.976262 72.140011 
L 269.779645 86.281726 
L 267.950648 90.577944 
L 267.07002 91.651998 
L 263.344285 100.154928 
L 259.754031 105.346191 
L 256.705702 110.716462 
L 255.079927 114.117635 
L 252.573523 118.145338 
L 245.663978 131.123495 
L 243.496278 134.614172 
L 241.328578 139.626425 
L 238.822174 143.564624 
L 237.535102 144.817688 
L 235.706105 148.576878 
L 231.573926 155.110709 
L 230.083632 158.959403 
L 228.322375 161.734044 
L 227.170784 164.329675 
L 224.799862 168.17837 
L 219.041908 178.829409 
L 215.04521 185.363239 
L 211.387216 192.344592 
L 208.745331 196.282792 
L 208.271147 198.072882 
L 203.32608 206.844326 
L 202.580933 208.992435 
L 201.497083 210.424507 
L 197.839089 216.868833 
L 196.213313 220.35951 
L 193.435947 224.476718 
L 187.881215 235.396271 
L 185.645774 239.244965 
L 183.816777 241.840597 
L 181.513595 246.85285 
L 177.110453 254.818753 
L 175.281456 258.756953 
L 172.233128 263.500693 
L 173.791162 267.438892 
L 175.620159 269.676505 
L 177.110453 273.883218 
L 179.074932 276.836867 
L 182.868408 281.849121 
L 184.697405 285.160788 
L 184.561924 286.592861 
L 180.700707 294.469259 
L 178.397526 297.064891 
L 177.855601 298.675972 
L 174.536309 303.061694 
L 174.807272 304.672776 
L 172.50409 309.148002 
L 171.013796 312.728183 
L 170.607352 312.728183 
L 167.626764 317.650932 
L 165.120361 322.75269 
L 162.207513 327.585935 
L 159.023703 333.940757 
L 156.652781 337.96846 
L 157.736631 339.221524 
L 156.449559 341.817155 
L 154.620562 343.338732 
L 153.062527 345.66585 
L 149.810977 351.931167 
L 148.591645 353.273735 
L 147.575536 356.227384 
L 146.152982 358.196484 
L 144.323985 362.67171 
L 139.988584 367.862973 
L 136.940256 373.233245 
L 136.533812 374.844326 
L 134.366111 378.066489 
L 130.708117 376.634417 
L 125.424347 374.217794 
L 122.57924 372.427704 
L 121.021206 370.906127 
L 118.514802 369.742568 
L 116.279361 367.41545 
L 112.079442 372.427704 
L 110.318185 376.455408 
L 106.863413 382.541716 
L 106.795672 392.476718 
L 106.59245 395.430368 
L 105.982784 398.115503 
L 105.644081 403.664784 
L 103.882825 406.797443 
L 103.747343 408.31902 
L 101.105458 414.584337 
L 97.176501 422.192222 
L 96.566836 424.161321 
L 93.044323 429.621097 
L 90.6734 434.006819 
L 87.828294 438.57155 
L 87.015406 441.077677 
L 88.776662 442.957272 
L 91.079844 443.673308 
L 95.144282 446.000426 
L 95.212023 447.611508 
L 93.518507 450.565157 
L 92.705619 454.145338 
L 90.6734 457.277997 
L 89.115366 460.947682 
L 87.354109 463.543314 
L 87.625072 464.527864 
L 92.841101 468.197549 
L 95.347504 470.435162 
L 99.344202 471.77773 
L 104.086046 474.462866 
L 105.779562 474.820884 
L 108.489188 471.330208 
L 108.963372 470.077144 
L 112.418145 464.796377 
L 109.708519 468.108045 
L 109.302076 470.166649 
L 106.389228 474.73138 
L 105.644081 477.148002 
L 104.086046 479.296111 
L 103.002196 479.833138 
L 102.460271 481.712733 
L 99.479683 484.845392 
L 95.618467 493.437826 
L 92.841101 497.107512 
L 92.366916 499.076612 
L 90.6734 501.22472 
L 89.521809 504.267874 
L 87.625072 505.699947 
L 86.40574 509.190623 
L 83.560633 513.218327 
L 83.289671 514.918913 
L 81.528414 517.246031 
L 78.005901 521.005221 
L 76.989792 522.705807 
L 75.364016 527.181034 
L 75.77046 529.776665 
L 78.276864 531.566755 
L 81.05423 535.504955 
L 81.05423 535.504955 
" clip-path="url(#pf07ff4379b)" style="fill: none; stroke: #000000; stroke-width: 3"/>
   </g>
  </g>
 </g>
 <defs>
  <clipPath id="pf07ff4379b">
   <rect x="7.2" y="7.2" width="289.489613" height="554.4"/>
  </clipPath>
 </defs>
</svg>
