<?xml version="1.0" encoding="utf-8" standalone="no"?>
<!DOCTYPE svg PUBLIC "-//W3C//DTD SVG 1.1//EN"
  "http://www.w3.org/Graphics/SVG/1.1/DTD/svg11.dtd">
<svg xmlns:xlink="http://www.w3.org/1999/xlink" width="258.683196pt" height="568.8pt" viewBox="0 0 258.683196 568.8" xmlns="http://www.w3.org/2000/svg" version="1.1">
 <metadata>
  <rdf:RDF xmlns:dc="http://purl.org/dc/elements/1.1/" xmlns:cc="http://creativecommons.org/ns#" xmlns:rdf="http://www.w3.org/1999/02/22-rdf-syntax-ns#">
   <cc:Work>
    <dc:type rdf:resource="http://purl.org/dc/dcmitype/StillImage"/>
    <dc:date>2023-09-25T14:14:11.347388</dc:date>
    <dc:format>image/svg+xml</dc:format>
    <dc:creator>
     <cc:Agent>
      <dc:title>Matplotlib v3.6.2, https://matplotlib.org/</dc:title>
     </cc:Agent>
    </dc:creator>
   </cc:Work>
  </rdf:RDF>
 </metadata>
 <defs>
  <style type="text/css">*{stroke-linejoin: round; stroke-linecap: butt}</style>
 </defs>
 <g id="figure_1">
  <g id="patch_1">
   <path d="M -0 568.8 
L 258.683196 568.8 
L 258.683196 0 
L -0 0 
z
" style="fill: #ffffff"/>
  </g>
  <g id="axes_1">
   <g id="LineCollection_1">
    <path d="M 132.025849 125.020009 
L 131.20623 124.262602 
L 129.485031 123.505195 
L 128.624432 123.883899 
L 126.534405 126.751224 
L 125.714786 127.346329 
L 124.362416 129.834951 
L 123.870645 129.78085 
L 122.723179 131.836668 
L 122.35435 133.405582 
L 121.370808 135.136797 
L 120.346285 136.381108 
L 118.993915 139.518935 
L 115.961326 144.983083 
L 114.445032 147.038901 
L 113.379528 149.20292 
L 112.846776 149.852125 
L 112.355005 151.312838 
L 111.412443 152.827651 
L 108.17495 159.103306 
L 107.27337 161.267325 
L 105.101381 164.729755 
L 104.486667 165.974066 
L 102.560564 169.111894 
L 102.273697 169.977501 
L 100.060727 173.656333 
L 98.831299 175.387548 
L 98.380509 176.794161 
L 97.06912 178.417175 
L 96.249501 180.256591 
L 92.889065 185.558437 
L 91.495714 188.696264 
L 91.618657 189.453671 
L 89.856477 192.7538 
L 88.749992 194.160412 
L 89.241763 195.945728 
L 90.676095 197.839244 
L 89.446668 199.354058 
L 89.241763 201.842679 
L 88.627049 203.357492 
L 89.159801 203.898497 
L 88.913916 207.469128 
L 89.282744 207.847832 
L 88.954897 212.28407 
L 90.184324 213.907085 
L 88.913916 215.259596 
L 88.21724 216.395706 
L 88.381164 217.802319 
L 87.192717 220.020438 
L 86.700946 219.10073 
L 90.962962 221.751653 
L 90.348248 224.673079 
L 90.225305 226.079691 
L 89.774515 227.1076 
L 89.815496 228.676514 
L 88.995877 230.461829 
L 89.446668 231.922542 
L 89.364706 233.707857 
L 89.610591 234.411164 
L 89.200782 236.737484 
L 88.586068 237.765393 
L 87.807431 238.035895 
L 87.233698 239.983512 
L 85.963289 242.472134 
L 86.00427 243.554143 
L 84.733861 246.746071 
L 85.14367 247.665779 
L 87.31566 248.152684 
L 87.643507 248.639588 
L 85.512499 251.18231 
L 84.733861 253.184027 
L 83.545414 254.157836 
L 83.012662 255.456247 
L 81.947158 255.834951 
L 81.906177 256.321855 
L 83.053643 259.784285 
L 83.053643 260.32529 
L 82.02912 261.569601 
L 81.57833 263.354916 
L 80.635769 264.382825 
L 79.570265 266.817347 
L 78.422799 267.899356 
L 76.537676 271.253585 
L 75.472172 274.607815 
L 74.447649 275.743924 
L 74.119802 277.204637 
L 73.013317 280.180163 
L 71.906832 281.045771 
L 71.538003 283.480292 
L 70.595442 284.4541 
L 69.939747 284.616402 
L 68.587377 287.105024 
L 68.874243 287.537827 
L 68.013644 288.187033 
L 66.661273 290.13465 
L 65.472826 290.621554 
L 65.513807 291.27076 
L 64.858113 292.190468 
L 63.464761 295.111894 
L 63.013971 295.274195 
L 62.276314 297.654616 
L 60.227268 301.387548 
L 59.530592 301.874453 
L 57.850374 303.713869 
L 57.727432 304.254873 
L 55.555443 307.987806 
L 55.268576 309.232117 
L 53.137568 314.263461 
L 52.276969 315.074968 
L 50.760674 317.725891 
L 49.285361 318.375097 
L 49.859094 319.186604 
L 50.678712 319.511207 
L 52.154026 319.294805 
L 53.260511 319.457106 
L 55.350538 320.917819 
L 56.948794 321.404723 
L 57.19468 322.108029 
L 58.710974 322.973637 
L 60.555115 323.514641 
L 61.825524 324.867153 
L 61.866505 325.67866 
L 63.259856 326.165565 
L 64.73517 327.193474 
L 67.153044 327.031172 
L 68.382472 327.842679 
L 70.390537 328.491885 
L 71.701927 329.141091 
L 72.193698 329.736196 
L 75.718058 331.846114 
L 74.447649 332.819923 
L 73.341164 335.470846 
L 73.341164 336.336453 
L 71.701927 339.907085 
L 70.021709 342.503907 
L 68.956205 345.371232 
L 68.136587 346.23684 
L 66.989121 348.617261 
L 66.005578 349.969772 
L 65.841655 351.105882 
L 65.390865 351.322284 
L 64.571246 353.053499 
L 62.809066 355.542121 
L 62.481219 356.353628 
L 61.169829 358.193044 
L 60.923944 359.599657 
L 61.046887 360.952168 
L 60.473154 364.522799 
L 59.817459 367.336024 
L 59.038821 369.337742 
L 58.629012 371.934564 
L 58.260184 373.070674 
L 58.219203 375.018291 
L 57.850374 375.559296 
L 56.948794 379.184027 
L 56.948794 381.077544 
L 56.375061 381.510348 
L 56.620947 382.86286 
L 56.33408 385.567883 
L 55.350538 387.082696 
L 54.612881 388.868012 
L 53.301492 390.869729 
L 52.850702 392.005839 
L 52.113045 392.763246 
L 51.949121 394.33216 
L 50.514789 396.387978 
L 50.719693 397.091284 
L 53.752282 398.876599 
L 53.260511 402.501331 
L 52.932663 403.150537 
L 52.850702 406.071962 
L 53.014625 406.721168 
L 52.891682 409.317991 
L 52.031083 411.103306 
L 52.072064 411.644311 
L 51.416369 414.565736 
L 51.416369 415.539545 
L 52.195007 416.188751 
L 53.711301 416.837956 
L 56.170156 418.569171 
L 57.276641 418.947875 
L 58.792936 420.192185 
L 60.30923 420.624989 
L 60.227268 421.8693 
L 59.776478 422.302104 
L 58.874897 424.898927 
L 58.09626 425.710434 
L 56.457023 429.172864 
L 55.309557 430.308974 
L 53.711301 433.555002 
L 52.440892 435.827222 
L 52.072064 437.396136 
L 51.334407 438.586346 
L 51.00656 440.101159 
L 51.703236 441.020867 
L 53.260511 442.265178 
L 58.629012 445.132503 
L 61.251791 446.971919 
L 62.153372 447.188321 
L 64.407322 448.378532 
L 65.63675 449.460541 
L 68.7513 450.813053 
L 69.652881 451.516359 
L 73.546069 453.463976 
L 77.931028 455.844397 
L 77.357295 457.683813 
L 76.209829 458.819923 
L 75.922962 459.847832 
L 74.160783 462.444654 
L 72.72645 465.582482 
L 71.660946 467.151395 
L 71.210156 469.261314 
L 69.816804 472.669644 
L 69.488957 474.022155 
L 68.095606 477.268184 
L 68.095606 478.566595 
L 67.316968 479.269901 
L 66.046559 483.219236 
L 64.489284 486.519365 
L 63.751628 488.791584 
L 63.218876 491.117905 
L 62.563181 492.091713 
L 61.866505 494.418033 
L 60.678058 495.770545 
L 60.268249 497.339459 
L 59.038821 500.531387 
L 57.727432 502.965908 
L 56.989775 505.779133 
L 56.129176 508.051353 
L 56.293099 510.377673 
L 56.047214 510.918678 
L 56.457023 512.974495 
L 56.375061 514.164706 
L 57.891355 513.786003 
L 60.473154 514.056505 
L 61.702581 513.569601 
L 63.095933 517.410734 
L 62.932009 518.05994 
L 65.267922 518.05994 
L 67.84972 517.248433 
L 69.366014 517.735337 
L 71.82487 517.140232 
L 73.669011 517.086131 
L 75.144325 516.653328 
L 76.7016 516.869729 
L 77.644161 521.738772 
L 77.685142 523.902791 
L 78.258875 525.742207 
L 78.627703 528.825934 
L 78.504761 529.47514 
L 74.03784 530.124345 
L 70.51348 530.016144 
L 68.505415 530.286647 
L 63.956532 530.178446 
L 62.809066 530.286647 
L 62.317295 531.314556 
L 61.005906 530.773551 
L 60.514135 532.342465 
L 57.481546 533.370374 
L 57.317622 534.506483 
L 54.612881 535.372091 
L 53.21953 536.021297 
L 51.088522 536.3459 
L 49.777132 536.183598 
L 45.638059 536.4 
L 42.60547 536.129498 
L 39.572882 535.101589 
L 38.999149 534.614684 
L 37.195988 534.290082 
L 34.204381 534.939287 
L 32.40122 534.939287 
L 32.237296 534.398283 
L 30.884926 534.560584 
L 30.147269 530.394848 
L 29.532555 527.689824 
L 28.87686 522.874882 
L 28.139204 522.333877 
L 26.131138 522.333877 
L 20.188904 523.145384 
L 18.303782 523.037183 
L 20.393809 520.115758 
L 22.688741 517.518935 
L 23.09855 516.761529 
L 22.975607 515.841821 
L 22.319912 515.030313 
L 26.540948 512.162988 
L 27.319585 511.080979 
L 28.467051 508.86286 
L 29.368631 506.698841 
L 30.18825 505.292228 
L 30.925907 503.18231 
L 31.212773 502.965908 
L 33.671629 498.259167 
L 35.023999 495.229541 
L 35.105961 494.418033 
L 36.171465 492.145814 
L 37.236969 489.062087 
L 37.892664 487.709575 
L 39.122092 483.76024 
L 39.49092 482.029025 
L 35.187923 479.432203 
L 34.819094 479.378102 
L 31.048849 477.105882 
L 27.114681 475.320567 
L 26.336043 474.671361 
L 26.950757 471.966337 
L 25.721329 470.667926 
L 28.262146 466.393989 
L 29.491574 461.254444 
L 30.311193 459.63143 
L 30.802964 459.306827 
L 32.237296 457.35921 
L 34.245362 453.680378 
L 36.130484 451.245857 
L 36.37637 450.380249 
L 38.507378 446.593216 
L 40.884271 442.806183 
L 42.769394 439.289652 
L 46.908467 432.743495 
L 48.629666 430.254873 
L 49.613208 428.361357 
L 51.949121 425.602233 
L 53.096587 424.736625 
L 54.653862 421.436496 
L 54.653862 420.516788 
L 56.129176 416.783856 
L 56.252118 415.214942 
L 57.973317 406.071962 
L 58.014298 403.58334 
L 58.342145 402.447231 
L 57.809393 401.365221 
L 57.64547 399.363504 
L 58.014298 398.660198 
L 57.604489 396.333877 
L 59.735497 392.925547 
L 60.719039 390.653328 
L 60.514135 389.78772 
L 57.932336 388.110605 
L 56.579966 386.920395 
L 56.416042 385.784285 
L 56.866832 383.457965 
L 56.825851 382.375955 
L 57.850374 379.725032 
L 57.809393 378.697123 
L 58.219203 376.965908 
L 58.792936 376.370803 
L 60.432173 376.587205 
L 61.907486 377.723315 
L 64.858113 378.913525 
L 65.472826 378.913525 
L 66.661273 380.482439 
L 66.743235 379.725032 
L 67.726777 377.993817 
L 68.956205 377.074109 
L 70.144652 374.423186 
L 70.923289 372.205067 
L 71.538003 371.609961 
L 71.906832 370.473851 
L 72.767431 369.554143 
L 74.03784 366.686818 
L 75.677077 364.631 
L 76.25081 363.170288 
L 78.504761 360.573465 
L 78.996532 359.166853 
L 80.26694 356.678231 
L 81.865196 355.650322 
L 82.397949 354.947016 
L 82.275006 353.919107 
L 82.643834 352.728897 
L 83.914243 351.376385 
L 84.24209 350.294375 
L 85.307594 348.725462 
L 85.840346 346.831945 
L 87.31566 344.01872 
L 87.807431 342.287505 
L 89.651572 339.582482 
L 89.528629 338.067669 
L 90.184324 336.390554 
L 91.454733 335.200343 
L 91.618657 333.847832 
L 93.134951 333.144526 
L 93.790646 332.008416 
L 95.061054 330.547703 
L 95.798711 328.924689 
L 98.749338 323.839244 
L 99.73288 322.757235 
L 100.060727 321.621125 
L 100.716422 320.809618 
L 100.470536 320.052211 
L 101.740945 317.725891 
L 103.175278 315.615973 
L 103.871953 315.074968 
L 106.084923 311.125633 
L 106.781599 309.232117 
L 108.011027 307.717304 
L 108.912607 304.904079 
L 110.060073 305.823787 
L 111.002634 305.661486 
L 113.215604 303.659768 
L 109.814187 301.982653 
L 114.608956 300.630142 
L 115.838383 298.520223 
L 116.862907 297.600515 
L 116.207212 296.518506 
L 116.617021 294.516788 
L 116.289174 293.705281 
L 116.780945 291.865865 
L 117.969391 289.918248 
L 118.625086 286.996823 
L 119.813533 284.886904 
L 120.018438 284.129498 
L 121.247865 282.290082 
L 121.821598 280.017862 
L 123.337893 278.557149 
L 124.649282 276.447231 
L 126.821271 271.524088 
L 127.64089 270.712581 
L 128.337566 268.115758 
L 129.444051 266.438643 
L 129.771898 265.356634 
L 130.591516 264.112323 
L 130.714459 262.922112 
L 131.493097 261.353199 
L 134.402742 257.944869 
L 135.796094 255.023444 
L 136.902579 253.129927 
L 138.377892 251.290511 
L 138.459854 249.505195 
L 139.443396 248.314985 
L 140.631843 247.557578 
L 141.492442 245.44766 
L 142.639908 244.203349 
L 145.016802 240.740919 
L 144.893859 239.496608 
L 145.836421 238.901503 
L 146.492115 237.657192 
L 146.656039 236.412881 
L 148.869009 232.788149 
L 150.26236 229.488021 
L 151.204922 227.865006 
L 152.106502 226.945298 
L 153.008082 224.727179 
L 154.360453 223.969772 
L 155.466938 220.669644 
L 156.655385 218.235122 
L 158.66345 215.097295 
L 161.450153 209.524946 
L 163.868028 206.711722 
L 163.786066 206.224818 
L 165.056474 204.169 
L 165.220398 202.491885 
L 166.531788 200.977072 
L 166.900616 199.299957 
L 168.457891 196.21623 
L 169.318491 195.296522 
L 169.974185 193.781709 
L 170.711842 192.7538 
L 171.736365 190.589781 
L 172.84285 189.129068 
L 174.686992 185.287935 
L 176.326229 183.286217 
L 176.858981 183.015715 
L 177.26879 181.933705 
L 178.785084 180.094289 
L 178.703122 179.390983 
L 179.522741 177.335165 
L 181.325902 174.521941 
L 182.350425 172.303821 
L 183.129062 171.384113 
L 184.973204 168.246286 
L 185.055166 167.434779 
L 186.448517 164.837956 
L 187.759907 162.890339 
L 191.817019 154.829369 
L 192.554675 154.342465 
L 192.636637 153.476857 
L 193.292332 152.71945 
L 194.193912 150.880034 
L 194.931569 150.33903 
L 195.915111 148.06681 
L 197.349443 145.578188 
L 199.603394 142.169858 
L 201.447536 138.653328 
L 202.267154 136.056505 
L 203.168735 134.595792 
L 203.701487 132.918678 
L 204.644048 131.025161 
L 206.119361 130.159553 
L 205.955438 129.185745 
L 207.758598 126.643023 
L 207.963503 125.723315 
L 208.988026 124.208502 
L 209.889606 122.369085 
L 211.037072 120.529669 
L 211.81571 119.880464 
L 211.774729 119.339459 
L 214.520451 114.037613 
L 215.79086 112.252297 
L 216.815383 109.547274 
L 224.478816 95.751653 
L 224.069007 94.886046 
L 225.216472 92.613826 
L 225.339415 91.802319 
L 223.946064 90.77441 
L 220.175819 88.339888 
L 220.175819 87.636582 
L 221.077399 86.175869 
L 225.011568 78.493602 
L 226.363938 75.572177 
L 227.552385 73.786861 
L 227.921214 72.163847 
L 229.806336 68.971919 
L 231.404592 66.8079 
L 232.63402 64.211078 
L 236.363284 57.232117 
L 237.141922 56.42061 
L 237.838597 54.743495 
L 238.658216 53.986088 
L 238.863121 53.228682 
L 240.379415 50.631859 
L 237.838597 48.792443 
L 235.010914 47.27763 
L 232.552058 45.654616 
L 231.32263 45.113611 
L 229.847317 44.031602 
L 228.822794 43.761099 
L 226.363938 42.462688 
L 222.839579 40.136368 
L 219.847971 38.513353 
L 217.553039 37.052641 
L 216.159688 36.457535 
L 209.807645 32.724603 
L 209.561759 33.157407 
L 208.783121 32.670502 
L 207.594675 34.509918 
L 206.48819 35.213225 
L 205.094838 37.864148 
L 204.398163 38.351052 
L 202.51304 37.431344 
L 200.955765 36.403435 
L 199.521432 35.916531 
L 196.652768 34.293517 
L 193.784103 32.4 
L 192.923503 33.806612 
L 191.489171 35.375526 
L 190.259743 37.810047 
L 188.169716 41.110176 
L 186.817346 42.083985 
L 187.268136 43.652898 
L 188.374621 44.031602 
L 189.153258 43.706999 
L 191.038381 44.843109 
L 192.349771 45.384113 
L 193.989008 46.682525 
L 197.021596 48.359639 
L 198.496909 49.495749 
L 198.046119 50.361357 
L 196.283939 49.982653 
L 194.726664 49.333448 
L 193.415275 49.279347 
L 189.931896 48.197338 
L 188.579525 48.846544 
L 187.43206 49.766252 
L 186.57146 51.064663 
L 186.284594 53.06638 
L 187.186174 55.068098 
L 189.645029 56.258308 
L 190.874457 57.286217 
L 191.653095 58.476428 
L 192.144866 61.614255 
L 193.005465 63.670073 
L 193.128408 64.752082 
L 192.882523 66.212795 
L 191.284266 68.971919 
L 190.013858 69.999828 
L 188.497564 70.757235 
L 186.284594 71.29824 
L 185.342032 71.893345 
L 184.235547 73.137656 
L 182.924158 76.491885 
L 181.940616 77.465693 
L 180.260398 78.331301 
L 177.678599 79.088708 
L 176.121324 79.846114 
L 174.359144 81.63143 
L 173.416583 82.983942 
L 170.916747 87.961185 
L 170.17909 90.125204 
L 169.154567 92.505625 
L 167.556311 94.128639 
L 164.728627 96.022155 
L 163.499199 97.753371 
L 163.08939 99.484586 
L 163.212333 102.514212 
L 162.433695 104.678231 
L 161.122306 106.030743 
L 154.811243 109.439073 
L 153.172006 110.845685 
L 151.245903 113.388407 
L 149.606666 116.634435 
L 149.237837 119.339459 
L 149.606666 122.423186 
L 150.959036 126.534822 
L 150.959036 128.59064 
L 149.975494 131.349764 
L 148.131352 133.892486 
L 146.164268 135.948304 
L 144.074241 137.354916 
L 142.475985 138.869729 
L 143.17266 135.190897 
L 143.090699 133.513783 
L 142.353042 131.457965 
L 141.697347 130.700558 
L 139.402415 128.969343 
L 136.902579 128.049635 
L 134.689609 126.643023 
L 133.542143 125.615114 
L 132.271734 124.911808 
L 132.271734 124.911808 
" clip-path="url(#pf4c070ed1c)" style="fill: none; stroke: #000000; stroke-width: 3"/>
   </g>
  </g>
 </g>
 <defs>
  <clipPath id="pf4c070ed1c">
   <rect x="7.2" y="7.2" width="244.283196" height="554.4"/>
  </clipPath>
 </defs>
</svg>
