<?xml version="1.0" encoding="utf-8" standalone="no"?>
<!DOCTYPE svg PUBLIC "-//W3C//DTD SVG 1.1//EN"
  "http://www.w3.org/Graphics/SVG/1.1/DTD/svg11.dtd">
<svg xmlns:xlink="http://www.w3.org/1999/xlink" width="395.982894pt" height="568.8pt" viewBox="0 0 395.982894 568.8" xmlns="http://www.w3.org/2000/svg" version="1.1">
 <metadata>
  <rdf:RDF xmlns:dc="http://purl.org/dc/elements/1.1/" xmlns:cc="http://creativecommons.org/ns#" xmlns:rdf="http://www.w3.org/1999/02/22-rdf-syntax-ns#">
   <cc:Work>
    <dc:type rdf:resource="http://purl.org/dc/dcmitype/StillImage"/>
    <dc:date>2023-09-25T14:14:11.219001</dc:date>
    <dc:format>image/svg+xml</dc:format>
    <dc:creator>
     <cc:Agent>
      <dc:title>Matplotlib v3.6.2, https://matplotlib.org/</dc:title>
     </cc:Agent>
    </dc:creator>
   </cc:Work>
  </rdf:RDF>
 </metadata>
 <defs>
  <style type="text/css">*{stroke-linejoin: round; stroke-linecap: butt}</style>
 </defs>
 <g id="figure_1">
  <g id="patch_1">
   <path d="M 0 568.8 
L 395.982894 568.8 
L 395.982894 0 
L 0 0 
z
" style="fill: #ffffff"/>
  </g>
  <g id="axes_1">
   <g id="LineCollection_1">
    <path d="M 59.591653 502.86298 
L 77.115141 510.892971 
L 91.777652 523.646485 
L 107.513029 532.148828 
L 121.460295 536.4 
L 129.327983 529.787067 
L 141.844761 507.586504 
L 143.275249 501.445923 
L 153.646293 484.441237 
L 153.646293 480.662418 
L 163.659715 462.240675 
L 179.03747 438.150703 
L 184.044181 424.924836 
L 216.587802 371.076664 
L 232.323179 337.539644 
L 240.906112 323.841425 
L 251.277156 302.113215 
L 260.217711 292.193814 
L 273.807355 270.465604 
L 288.827487 241.179756 
L 293.476576 235.511528 
L 305.278109 210.476851 
L 317.794886 191.110403 
L 327.808308 169.854545 
L 371.438217 92.861106 
L 365.358639 86.720525 
L 343.543685 73.022306 
L 314.933908 56.962324 
L 298.840909 46.570572 
L 289.18511 37.123524 
L 276.31071 32.4 
L 255.926244 63.575258 
L 246.270445 67.354077 
L 243.409467 76.328772 
L 236.614645 80.579944 
L 239.833245 85.77582 
L 228.031712 91.916401 
L 219.091157 116.478725 
L 208.720113 103.252858 
L 204.786269 110.810497 
L 211.581091 128.759888 
L 204.786269 135.372821 
L 195.488092 160.87985 
L 185.47467 150.015745 
L 183.686559 158.045736 
L 169.38167 180.71865 
L 160.798738 200.085098 
L 148.639583 218.506842 
L 144.348116 229.843299 
L 133.977072 239.762699 
L 127.897495 251.099157 
L 126.467006 260.546204 
L 114.665473 272.827366 
L 110.016384 287.942643 
L 106.797784 288.414995 
L 97.857229 309.1985 
L 81.406608 339.901406 
L 78.903252 341.318463 
L 67.459342 366.35314 
L 62.095009 389.970759 
L 53.154453 404.613683 
L 44.929143 426.341893 
L 30.266632 450.431865 
L 25.617544 455.627741 
L 24.544677 467.436551 
L 34.200477 468.853608 
L 42.068165 477.355951 
" clip-path="url(#p985b792329)" style="fill: none; stroke: #000000; stroke-width: 3"/>
   </g>
  </g>
 </g>
 <defs>
  <clipPath id="p985b792329">
   <rect x="7.2" y="7.2" width="381.582894" height="554.4"/>
  </clipPath>
 </defs>
</svg>
