<?xml version="1.0" encoding="utf-8" standalone="no"?>
<!DOCTYPE svg PUBLIC "-//W3C//DTD SVG 1.1//EN"
  "http://www.w3.org/Graphics/SVG/1.1/DTD/svg11.dtd">
<svg xmlns:xlink="http://www.w3.org/1999/xlink" width="292.650602pt" height="568.8pt" viewBox="0 0 292.650602 568.8" xmlns="http://www.w3.org/2000/svg" version="1.1">
 <metadata>
  <rdf:RDF xmlns:dc="http://purl.org/dc/elements/1.1/" xmlns:cc="http://creativecommons.org/ns#" xmlns:rdf="http://www.w3.org/1999/02/22-rdf-syntax-ns#">
   <cc:Work>
    <dc:type rdf:resource="http://purl.org/dc/dcmitype/StillImage"/>
    <dc:date>2023-09-25T14:14:10.797450</dc:date>
    <dc:format>image/svg+xml</dc:format>
    <dc:creator>
     <cc:Agent>
      <dc:title>Matplotlib v3.6.2, https://matplotlib.org/</dc:title>
     </cc:Agent>
    </dc:creator>
   </cc:Work>
  </rdf:RDF>
 </metadata>
 <defs>
  <style type="text/css">*{stroke-linejoin: round; stroke-linecap: butt}</style>
 </defs>
 <g id="figure_1">
  <g id="patch_1">
   <path d="M -0 568.8 
L 292.650602 568.8 
L 292.650602 0 
L -0 0 
z
" style="fill: #ffffff"/>
  </g>
  <g id="axes_1">
   <g id="LineCollection_1">
    <path d="M 201.264716 105.127421 
L 201.927106 105.075987 
L 203.134994 105.950362 
L 205.628698 107.236208 
L 206.680729 108.059149 
L 208.823756 108.676355 
L 208.706863 107.853414 
L 210.148536 106.001796 
L 211.940886 106.773303 
L 214.863195 107.236208 
L 216.032119 107.699112 
L 218.40893 109.447862 
L 218.253074 108.676355 
L 218.954428 108.779222 
L 221.954666 110.836575 
L 222.227414 110.733708 
L 225.656257 112.79106 
L 226.864145 113.819737 
L 229.201993 114.951281 
L 230.760558 115.928523 
L 232.280158 117.728707 
L 233.098405 121.174773 
L 233.799759 122.769221 
L 237.228602 126.369589 
L 237.696172 127.243964 
L 239.917127 130.02139 
L 241.008122 131.204368 
L 242.644615 132.593081 
L 244.631786 133.313154 
L 245.800709 133.364588 
L 247.047561 134.033228 
L 247.359274 134.959037 
L 248.333377 135.216206 
L 251.138794 136.502051 
L 251.09983 137.376426 
L 250.203655 140.102419 
L 249.697122 143.239882 
L 249.229552 143.805654 
L 249.11266 145.708705 
L 248.489234 147.611756 
L 248.917839 149.051903 
L 248.216485 149.617675 
L 246.65792 151.520727 
L 246.112422 152.755138 
L 244.748678 154.555322 
L 243.268041 157.692785 
L 240.618481 162.527564 
L 239.722306 164.430615 
L 239.176808 164.739218 
L 238.280633 167.362343 
L 237.423423 168.442453 
L 236.137607 170.808409 
L 235.124539 172.094255 
L 234.072508 174.357343 
L 234.579042 174.665946 
L 233.215297 176.157526 
L 232.319122 177.906276 
L 230.448845 181.095173 
L 229.591634 182.998224 
L 227.877212 185.36418 
L 227.409643 186.495724 
L 226.123827 188.553077 
L 225.500401 189.015981 
L 223.824943 192.153444 
L 223.279446 192.667782 
L 220.551957 197.759731 
L 220.318172 198.994142 
L 219.577854 200.742892 
L 218.993392 201.051495 
L 217.785504 203.571752 
L 216.694509 206.349178 
L 215.915226 207.532156 
L 215.019051 208.355097 
L 213.538415 211.08109 
L 213.031881 212.521237 
L 212.018814 213.90995 
L 211.51228 215.144362 
L 210.460249 216.893112 
L 209.797859 218.693295 
L 208.940648 220.082008 
L 208.161366 220.750648 
L 207.304155 222.39653 
L 206.602801 225.739729 
L 205.394913 226.408368 
L 205.161128 227.591346 
L 203.797384 228.72289 
L 203.173958 229.803 
L 202.979137 231.037412 
L 203.446707 231.706052 
L 202.589496 233.249066 
L 200.991967 234.792081 
L 200.368541 236.437963 
L 199.043761 238.186713 
L 198.537227 239.575426 
L 197.563124 240.244066 
L 196.783841 241.478477 
L 196.589021 243.278661 
L 194.718743 246.930462 
L 194.056353 246.724727 
L 191.718505 249.553587 
L 191.095079 251.868109 
L 190.237869 252.588182 
L 189.653407 254.4398 
L 188.679304 255.005572 
L 187.861057 254.696969 
L 186.302492 255.10844 
L 186.224564 255.725645 
L 185.211497 256.651454 
L 184.354286 258.503072 
L 184.276358 260.714726 
L 183.224326 262.874946 
L 183.029506 261.383366 
L 182.367116 262.977814 
L 181.93851 263.337851 
L 181.509905 265.34377 
L 181.003371 266.218145 
L 181.315084 266.835351 
L 181.93851 266.42388 
L 182.211259 265.446637 
L 181.431977 265.960976 
L 179.990304 265.549505 
L 180.185125 266.321012 
L 178.62656 270.898622 
L 168.690708 290.340606 
L 168.184174 291.986488 
L 166.742502 294.96965 
L 167.365928 294.198143 
L 167.132143 295.278253 
L 165.339793 299.032922 
L 164.092941 300.010164 
L 163.586408 299.907297 
L 162.729197 301.398877 
L 161.871986 303.970568 
L 158.793821 308.136708 
L 158.092466 309.731156 
L 156.300117 311.891377 
L 156.455973 313.125788 
L 155.637727 313.742994 
L 155.715655 314.771671 
L 155.131193 315.800347 
L 154.741552 317.343362 
L 154.001233 318.834942 
L 153.611592 318.680641 
L 152.286812 320.532258 
L 141.221001 342.957404 
L 141.298929 344.551852 
L 140.168969 345.889132 
L 139.818292 346.81494 
L 137.90905 349.489499 
L 137.636301 350.672477 
L 136.350485 352.215491 
L 135.92188 354.067109 
L 133.389212 356.998837 
L 129.609692 363.068027 
L 127.583557 364.662476 
L 126.609454 366.822696 
L 125.947064 370.885968 
L 125.479495 371.297439 
L 125.869136 372.068946 
L 125.518459 374.126299 
L 126.375669 375.823615 
L 125.830172 377.315195 
L 125.050889 378.446739 
L 122.518221 382.870048 
L 121.816867 384.773099 
L 120.764836 386.779018 
L 119.517984 387.859128 
L 119.440055 388.322033 
L 117.258064 391.716665 
L 116.673603 394.236922 
L 115.543643 395.059863 
L 114.530576 397.220084 
L 112.816154 399.071701 
L 112.309621 400.871885 
L 110.12763 403.340708 
L 108.685957 405.758098 
L 107.439105 408.381223 
L 106.231217 409.461333 
L 105.140222 412.033024 
L 104.321975 412.341627 
L 103.075123 413.421737 
L 101.945164 415.839126 
L 101.204845 417.845045 
L 100.659348 417.793612 
L 99.256639 420.313869 
L 96.840864 422.731258 
L 96.295366 424.788611 
L 95.00955 426.177324 
L 93.996482 426.948832 
L 93.645805 428.028942 
L 92.710666 429.057618 
L 91.113137 432.863721 
L 89.398716 435.94975 
L 88.502541 436.669823 
L 87.255689 438.315706 
L 85.736088 441.298867 
L 85.034734 441.453169 
L 83.748918 443.921992 
L 81.800712 446.493683 
L 80.787644 448.139565 
L 80.631788 449.065374 
L 79.735613 450.042617 
L 78.76151 452.254271 
L 78.09912 453.077212 
L 77.125017 453.59155 
L 76.735376 454.67166 
L 75.215775 456.626146 
L 73.774102 457.963425 
L 72.99482 459.352138 
L 73.150676 460.380814 
L 72.410358 461.152322 
L 70.07251 464.855557 
L 70.773865 464.649821 
L 70.267331 463.878314 
L 64.110999 477.662578 
L 62.552434 479.9771 
L 59.747018 483.526033 
L 59.630125 484.040371 
L 57.487098 486.097724 
L 56.512995 487.38357 
L 57.175385 485.480518 
L 57.798811 485.686254 
L 58.422237 484.914746 
L 54.681681 490.469599 
L 52.460726 493.45276 
L 51.915229 495.098643 
L 51.720408 496.590223 
L 50.824233 498.184672 
L 49.421525 497.876069 
L 47.39539 499.007613 
L 46.577144 502.762282 
L 45.447184 504.408164 
L 42.992444 508.93434 
L 42.29109 510.68309 
L 41.550772 511.35173 
L 41.784556 513.151913 
L 41.278023 514.129156 
L 40.070135 514.283457 
L 39.758422 515.620737 
L 38.745355 516.546546 
L 38.472606 517.935259 
L 37.966072 518.038126 
L 35.39444 517.163751 
L 33.874839 516.906582 
L 31.770777 517.00945 
L 31.575956 516.803715 
L 29.238108 516.958016 
L 28.419862 517.575222 
L 28.147113 518.295295 
L 27.289902 518.655332 
L 25.38066 518.243862 
L 23.744167 518.603898 
L 22.107674 518.655332 
L 20.120503 519.066803 
L 19.847755 520.50695 
L 20.860822 521.895663 
L 20.666001 522.358567 
L 27.796436 524.621655 
L 26.198907 523.644413 
L 22.770064 522.615736 
L 22.341459 522.204266 
L 23.783131 521.689928 
L 24.133808 520.661251 
L 27.328866 520.558384 
L 28.49779 520.301214 
L 32.121454 520.50695 
L 33.056593 521.329891 
L 33.60209 522.307133 
L 33.835875 523.490111 
L 33.173485 524.878824 
L 33.017629 526.010368 
L 33.368306 527.964854 
L 33.290377 529.044964 
L 33.60209 529.970773 
L 34.887906 531.462353 
L 36.134758 532.233861 
L 37.420575 532.645331 
L 39.875314 532.439596 
L 41.433879 533.879743 
L 42.836588 535.834228 
L 43.343121 536.039963 
L 42.992444 534.188346 
L 43.810691 536.4 
L 49.343596 535.011287 
L 51.915229 534.65125 
L 55.110287 533.674008 
L 56.668852 532.696765 
L 59.708053 530.279375 
L 61.929008 527.656251 
L 63.058968 527.193346 
L 64.77339 525.856067 
L 65.981277 526.421839 
L 65.007174 525.598898 
L 65.669564 524.467354 
L 66.76056 524.930258 
L 68.864623 522.461435 
L 69.760797 522.358567 
L 71.631075 520.866986 
L 83.554097 510.940259 
L 86.554335 509.345811 
L 87.801187 508.059965 
L 90.022142 506.208348 
L 90.840388 505.282539 
L 93.918554 503.019451 
L 97.46429 501.064966 
L 97.814967 502.402245 
L 98.750106 502.402245 
L 100.503491 501.939341 
L 103.269944 500.653495 
L 104.750581 501.167833 
L 106.075361 500.44776 
L 110.244522 498.596142 
L 114.257827 497.516032 
L 115.972248 496.693091 
L 119.167307 495.510113 
L 120.258302 495.355812 
L 121.349297 494.327135 
L 123.180611 494.275702 
L 124.076786 492.784121 
L 124.700212 492.732687 
L 125.830172 494.532871 
L 127.388737 495.458679 
L 129.259015 496.075885 
L 129.921405 497.053128 
L 131.168257 497.516032 
L 132.765786 497.721768 
L 135.571203 497.104562 
L 135.804987 496.230187 
L 135.688095 493.45276 
L 135.804987 492.784121 
L 136.857019 493.298459 
L 137.090804 493.967099 
L 141.727534 492.989856 
L 142.935422 493.555628 
L 144.610879 493.555628 
L 145.974624 493.195591 
L 150.455498 492.321216 
L 153.260915 491.601143 
L 155.910475 491.189672 
L 158.326251 490.6239 
L 162.222664 490.160996 
L 165.339793 489.646658 
L 167.093179 489.492356 
L 171.184412 488.309379 
L 172.820905 487.38357 
L 173.872937 487.126401 
L 174.613255 487.743606 
L 175.431502 485.480518 
L 174.18465 484.246107 
L 173.05469 481.571548 
L 171.651981 481.262945 
L 167.132143 481.46868 
L 166.274932 480.800041 
L 165.339793 476.273865 
L 165.417722 474.06221 
L 165.183937 473.445005 
L 165.300829 471.23335 
L 164.015013 470.410409 
L 162.807125 470.101806 
L 160.703063 469.175998 
L 155.48187 467.170079 
L 151.897171 465.524196 
L 150.689283 465.215593 
L 147.26044 463.312542 
L 145.623947 463.003939 
L 144.416059 462.283866 
L 143.247135 461.923829 
L 144.14331 459.815042 
L 143.909525 459.352138 
L 144.260202 457.654822 
L 145.507054 455.906072 
L 145.662911 454.67166 
L 146.403229 453.18008 
L 146.948727 451.482764 
L 147.728009 449.991183 
L 148.58522 448.911073 
L 148.857969 447.110889 
L 148.273507 446.390815 
L 147.455261 446.133646 
L 144.961557 444.179161 
L 142.623709 443.819124 
L 143.247135 440.93883 
L 144.104346 438.624309 
L 145.039485 436.926993 
L 147.338368 431.577875 
L 147.026655 430.960669 
L 145.93566 430.549199 
L 141.49375 428.080376 
L 140.402754 427.000265 
L 138.961082 426.280192 
L 136.389449 424.685743 
L 137.090804 422.936994 
L 137.675265 422.782692 
L 138.649369 419.38806 
L 139.467615 418.513685 
L 139.584507 417.742178 
L 140.675503 415.530524 
L 141.065144 414.038943 
L 141.415821 413.884641 
L 141.883391 412.341627 
L 142.389924 412.187325 
L 143.402992 410.027105 
L 143.792633 409.82137 
L 144.961557 407.918318 
L 145.662911 406.426737 
L 146.325301 405.912399 
L 147.689045 402.82637 
L 149.091754 400.66615 
L 151.117888 396.037106 
L 152.793346 394.031187 
L 152.83231 393.67115 
L 154.312946 391.048025 
L 154.741552 389.813614 
L 156.572866 386.573283 
L 157.819717 384.10446 
L 158.443143 383.281519 
L 157.819717 382.458577 
L 157.118363 382.304276 
L 155.754619 381.327033 
L 152.598525 379.475416 
L 150.416534 377.726666 
L 148.58522 377.212328 
L 146.987691 375.823615 
L 145.896696 375.154975 
L 145.740839 374.692071 
L 144.299166 374.023431 
L 142.506817 373.61196 
L 141.532714 372.789019 
L 141.259965 373.149056 
L 139.428651 371.914644 
L 138.688333 371.657475 
L 137.24666 370.423064 
L 136.428413 369.085784 
L 135.493274 368.417145 
L 134.246423 367.95424 
L 133.194391 368.057108 
L 132.259252 367.491336 
L 130.856544 367.182733 
L 130.15519 365.691152 
L 130.311046 363.325196 
L 131.402041 360.342035 
L 131.947539 359.776263 
L 132.921642 357.358873 
L 132.921642 356.793101 
L 129.960369 355.198653 
L 128.129055 353.347035 
L 126.804275 352.369793 
L 123.92093 351.135381 
L 123.45336 350.518175 
L 122.401329 350.158139 
L 121.193441 350.158139 
L 121.115513 349.6438 
L 118.816629 348.357955 
L 117.530813 347.226411 
L 114.530576 345.271926 
L 113.010975 343.780345 
L 111.335518 343.368874 
L 110.166594 342.494499 
L 109.309383 341.465823 
L 108.763885 341.671558 
L 109.699024 340.385713 
L 110.595199 338.534095 
L 111.842051 337.042515 
L 114.10197 333.236412 
L 114.842289 332.362037 
L 116.439818 328.915971 
L 116.946351 327.527258 
L 118.972486 324.904133 
L 119.01145 322.641045 
L 120.8038 320.789427 
L 121.037584 319.966486 
L 122.050652 318.732075 
L 123.375432 316.674722 
L 123.609217 315.903215 
L 124.544356 314.771671 
L 124.972961 313.125788 
L 126.180849 311.685641 
L 126.375669 310.965568 
L 127.856306 309.268252 
L 128.479732 307.776671 
L 129.375907 306.28509 
L 130.15519 304.022002 
L 131.168257 303.147627 
L 131.67479 301.450311 
L 132.33718 300.524503 
L 133.077499 298.364282 
L 134.869848 296.255495 
L 134.947777 294.866782 
L 135.843952 293.88954 
L 137.168732 291.420716 
L 138.415584 290.906378 
L 138.766261 289.620533 
L 138.025943 289.157628 
L 137.597337 288.334687 
L 138.025943 286.585937 
L 138.610404 286.791673 
L 139.89622 286.431636 
L 141.844427 282.419798 
L 141.68857 280.876783 
L 143.091279 279.385203 
L 143.831597 279.282335 
L 144.844664 277.482151 
L 144.727772 276.504909 
L 145.93566 275.527666 
L 146.403229 273.984651 
L 147.104583 272.904541 
L 148.507292 271.618696 
L 149.442431 270.281416 
L 149.71518 269.149872 
L 150.728247 268.121196 
L 151.195816 267.195387 
L 151.351673 265.806674 
L 152.442668 263.543586 
L 153.066094 261.126197 
L 154.235018 259.377447 
L 154.273982 258.143035 
L 154.936372 256.960057 
L 155.287049 255.674212 
L 156.222188 255.057006 
L 157.196292 253.719727 
L 157.858682 251.353771 
L 158.754856 250.427962 
L 160.780991 249.605021 
L 161.05374 248.422043 
L 160.703063 247.753403 
L 161.443381 245.387448 
L 161.326489 243.432963 
L 162.105771 241.684213 
L 162.183699 240.964139 
L 163.976049 238.289581 
L 165.02808 237.260904 
L 166.002184 235.563588 
L 168.378995 233.043331 
L 167.989354 232.374691 
L 168.534852 230.523074 
L 169.586883 228.05425 
L 170.288237 227.231309 
L 170.366165 226.408368 
L 172.002659 225.482559 
L 172.704013 224.402449 
L 172.470228 223.836677 
L 173.171582 223.528074 
L 174.262578 221.727891 
L 174.457398 222.447964 
L 175.743215 221.830758 
L 176.600425 219.927707 
L 177.457636 219.56767 
L 178.197954 218.48756 
L 179.444806 215.195795 
L 180.730622 212.82984 
L 183.146398 209.280906 
L 183.107434 207.892193 
L 182.094367 207.737892 
L 181.393012 207.223553 
L 180.068232 205.577671 
L 180.535802 204.651862 
L 179.678591 204.08609 
L 179.756519 202.748811 
L 181.431977 201.308664 
L 182.756757 199.76565 
L 185.679066 192.35918 
L 187.588308 188.707378 
L 190.004084 185.827084 
L 192.497788 184.952709 
L 194.952528 185.467048 
L 196.783841 186.701459 
L 198.420335 186.958628 
L 199.706151 186.701459 
L 201.693321 185.518481 
L 203.018101 183.975467 
L 204.225989 180.889438 
L 204.927343 179.809327 
L 206.914514 178.112011 
L 208.39515 177.340504 
L 210.577141 175.386019 
L 211.862957 172.29999 
L 212.330527 170.602674 
L 212.486383 168.853924 
L 211.239531 165.459292 
L 211.161603 164.122012 
L 211.629173 162.321829 
L 213.382558 159.750138 
L 215.09698 158.361425 
L 216.265903 157.89852 
L 217.590684 156.921278 
L 218.253074 155.686866 
L 218.837536 151.366425 
L 219.811639 148.434697 
L 219.889567 147.354587 
L 220.824706 145.194367 
L 221.837773 142.365507 
L 222.889804 140.513889 
L 225.929006 137.222125 
L 227.175858 135.524809 
L 228.227889 133.467456 
L 229.240957 130.844331 
L 230.760558 128.324074 
L 232.241194 126.678192 
L 233.643903 125.855251 
L 235.903822 124.980876 
L 237.033781 124.77514 
L 240.579517 125.44378 
L 242.605651 125.186611 
L 243.852503 124.415104 
L 245.099355 122.769221 
L 245.33314 121.94628 
L 246.65792 119.837494 
L 249.11266 115.157016 
L 251.645328 111.093744 
L 252.346682 109.55073 
L 254.645565 105.127421 
L 255.191063 104.407348 
L 257.840624 99.418267 
L 258.46405 97.823819 
L 258.541978 94.017716 
L 259.12644 89.851577 
L 258.775763 87.948525 
L 257.528911 85.788305 
L 257.178234 83.525217 
L 257.606839 81.673599 
L 260.139507 77.353158 
L 261.892893 75.141504 
L 265.399664 71.489703 
L 266.256874 70.10099 
L 266.568587 68.557975 
L 266.139982 65.626248 
L 267.036157 59.917094 
L 267.542691 58.52838 
L 269.451933 56.36816 
L 272.25735 54.773712 
L 272.802847 53.847903 
L 272.685955 52.202021 
L 271.594959 50.967609 
L 270.387072 50.659006 
L 269.179184 50.864741 
L 266.841336 52.510624 
L 265.906197 52.973528 
L 264.89313 52.922094 
L 263.957991 52.253454 
L 263.56835 51.224778 
L 264.074883 49.424594 
L 266.919265 46.287131 
L 268.633686 43.046801 
L 269.257112 39.703602 
L 269.023327 38.880661 
L 267.737511 37.337647 
L 265.010022 35.125992 
L 263.373529 34.303051 
L 261.074646 33.428676 
L 259.477117 33.120073 
L 258.425086 33.171507 
L 256.321023 32.4 
L 254.372817 32.811471 
L 253.593534 33.685845 
L 252.697359 35.331728 
L 252.502539 36.97761 
L 253.437678 38.314889 
L 254.68453 38.932095 
L 256.749628 40.732279 
L 257.295126 41.658088 
L 257.762695 43.71544 
L 258.697834 46.5443 
L 258.853691 47.778712 
L 258.386121 49.938933 
L 256.749628 51.996285 
L 253.866283 53.847903 
L 251.957041 54.567976 
L 251.177758 55.185182 
L 250.281584 56.471028 
L 249.385409 58.991285 
L 247.826844 60.379998 
L 243.735611 61.820145 
L 241.514656 63.620329 
L 240.034019 65.729115 
L 236.371391 73.495622 
L 235.124539 75.141504 
L 231.695696 77.661761 
L 230.565737 79.66768 
L 230.331952 81.313563 
L 230.487809 83.885254 
L 230.137132 85.685437 
L 229.591634 86.559812 
L 228.383746 87.588489 
L 225.188688 88.925768 
L 223.552195 89.800143 
L 221.837773 91.085988 
L 220.318172 92.834738 
L 218.525823 95.509297 
L 217.863432 97.000878 
L 217.317935 98.903929 
L 217.278971 101.167017 
L 218.564787 108.162017 
L 218.253074 109.9622 
L 217.74654 111.145178 
L 215.837298 113.922604 
L 214.473554 115.311317 
L 213.070845 116.237126 
L 210.84989 118.44878 
L 211.901922 115.002715 
L 211.901922 113.511134 
L 211.122639 111.762384 
L 209.447182 109.859333 
L 207.109334 108.367752 
L 204.771487 107.13334 
L 203.797384 106.156098 
L 201.420572 104.97312 
L 201.420572 104.97312 
" clip-path="url(#pa5fb94e8a0)" style="fill: none; stroke: #000000; stroke-width: 3"/>
   </g>
  </g>
 </g>
 <defs>
  <clipPath id="pa5fb94e8a0">
   <rect x="7.2" y="7.2" width="278.250602" height="554.4"/>
  </clipPath>
 </defs>
</svg>
