<?xml version="1.0" encoding="utf-8" standalone="no"?>
<!DOCTYPE svg PUBLIC "-//W3C//DTD SVG 1.1//EN"
  "http://www.w3.org/Graphics/SVG/1.1/DTD/svg11.dtd">
<svg xmlns:xlink="http://www.w3.org/1999/xlink" width="330.459632pt" height="568.8pt" viewBox="0 0 330.459632 568.8" xmlns="http://www.w3.org/2000/svg" version="1.1">
 <metadata>
  <rdf:RDF xmlns:dc="http://purl.org/dc/elements/1.1/" xmlns:cc="http://creativecommons.org/ns#" xmlns:rdf="http://www.w3.org/1999/02/22-rdf-syntax-ns#">
   <cc:Work>
    <dc:type rdf:resource="http://purl.org/dc/dcmitype/StillImage"/>
    <dc:date>2023-09-25T14:14:10.518610</dc:date>
    <dc:format>image/svg+xml</dc:format>
    <dc:creator>
     <cc:Agent>
      <dc:title>Matplotlib v3.6.2, https://matplotlib.org/</dc:title>
     </cc:Agent>
    </dc:creator>
   </cc:Work>
  </rdf:RDF>
 </metadata>
 <defs>
  <style type="text/css">*{stroke-linejoin: round; stroke-linecap: butt}</style>
 </defs>
 <g id="figure_1">
  <g id="patch_1">
   <path d="M 0 568.8 
L 330.459632 568.8 
L 330.459632 0 
L 0 0 
z
" style="fill: #ffffff"/>
  </g>
  <g id="axes_1">
   <g id="LineCollection_1">
    <path d="M 158.246646 245.85461 
L 158.992421 247.376728 
L 155.670331 245.048783 
L 155.39914 244.063883 
L 153.636398 242.810375 
L 151.466869 242.541766 
L 145.907452 239.318458 
L 142.992148 237.08005 
L 140.890417 236.274223 
L 139.331069 234.752105 
L 135.195405 232.066015 
L 132.280101 232.066015 
L 131.059741 230.543898 
L 126.381695 227.141517 
L 123.601987 226.783372 
L 121.839245 226.067081 
L 117.703581 222.93331 
L 114.110299 221.321656 
L 112.211962 219.441393 
L 104.347421 215.054113 
L 102.042297 214.695967 
L 97.838835 211.741268 
L 100.279555 207.712134 
L 103.330454 201.265518 
L 103.940634 200.7283 
L 104.754207 197.594528 
L 107.737309 192.938639 
L 110.110231 190.879304 
L 118.584952 186.492023 
L 120.008705 186.939705 
L 123.534189 189.357186 
L 128.619021 191.595594 
L 133.975045 184.432688 
L 136.619158 179.776799 
L 139.331069 176.105809 
L 141.771788 171.718529 
L 142.31417 169.659193 
L 145.500666 164.555623 
L 148.076981 158.377616 
L 142.992148 155.333381 
L 139.941249 153.184509 
L 135.873383 151.125173 
L 134.653023 148.439083 
L 136.144574 147.185575 
L 137.636124 145.036703 
L 138.788687 141.276177 
L 139.466664 137.78426 
L 140.21244 131.69579 
L 140.348035 128.382945 
L 141.365002 125.875928 
L 141.568395 123.100302 
L 143.466732 121.130503 
L 144.890486 117.907195 
L 149.026149 110.296607 
L 150.585498 108.058199 
L 151.263476 106.177936 
L 155.060151 99.999929 
L 156.009319 96.149867 
L 157.433073 94.717285 
L 158.992421 92.031196 
L 160.009388 89.255569 
L 161.16195 88.002061 
L 166.382378 78.690282 
L 167.195951 76.630947 
L 166.721367 75.466975 
L 168.348513 74.12393 
L 169.229884 70.184331 
L 170.518042 69.647113 
L 171.331615 68.304068 
L 171.46721 65.976124 
L 174.246919 57.649245 
L 177.772403 50.21773 
L 179.535145 47.889785 
L 181.772471 43.771114 
L 182.653842 42.786214 
L 185.636944 36.250062 
L 187.399686 36.07099 
L 189.908203 33.474436 
L 191.467552 32.4 
L 194.111665 32.758145 
L 193.908271 34.10119 
L 196.145598 35.444235 
L 196.620182 37.234962 
L 203.67115 38.757079 
L 208.145802 40.726879 
L 208.552589 42.517605 
L 210.315331 43.054823 
L 211.196702 44.397868 
L 213.97641 45.382768 
L 216.078141 45.382768 
L 218.112074 46.367667 
L 221.705356 48.874685 
L 223.739289 49.770048 
L 224.959649 51.113093 
L 228.891919 53.082892 
L 230.315672 53.351501 
L 231.875021 55.231764 
L 234.858123 56.753882 
L 236.553067 56.932954 
L 241.434506 59.798117 
L 241.773495 61.499307 
L 241.02772 63.37957 
L 238.722596 66.602878 
L 238.248011 69.736649 
L 237.298842 72.333203 
L 236.824258 77.168165 
L 235.5361 80.033327 
L 234.858123 83.346172 
L 234.993718 84.689217 
L 233.298774 90.509078 
L 231.536032 97.940593 
L 231.332639 99.641784 
L 232.010617 101.074365 
L 233.569965 102.148801 
L 238.925989 104.924427 
L 241.231113 106.536081 
L 247.265114 109.848925 
L 249.841429 112.087333 
L 251.807565 112.445479 
L 254.112689 111.997797 
L 263.875567 116.832759 
L 269.909568 121.040966 
L 274.72321 123.547984 
L 277.16393 124.443347 
L 278.519885 124.353811 
L 280.418222 125.249174 
L 289.028539 129.994599 
L 292.825214 132.501617 
L 299.537193 135.993533 
L 304.825419 139.037769 
L 308.486498 142.082004 
L 308.893285 143.245976 
L 307.876318 147.722793 
L 306.181374 151.931 
L 306.31697 153.094972 
L 305.232205 156.945035 
L 304.215239 158.467152 
L 302.04571 163.839332 
L 299.808384 166.704495 
L 298.859215 169.121975 
L 296.350698 172.882501 
L 295.943911 174.494155 
L 294.316765 176.374418 
L 293.774383 178.165145 
L 292.350629 180.22448 
L 288.621752 186.671096 
L 287.265797 189.894404 
L 285.842044 191.864203 
L 282.723347 199.474791 
L 280.350425 202.698099 
L 277.638514 207.80167 
L 276.757143 208.607497 
L 273.977435 215.143649 
L 272.011299 217.919275 
L 270.451951 218.008812 
L 268.35022 222.217019 
L 267.265456 225.529863 
L 265.028129 229.290389 
L 263.672174 233.677669 
L 261.299252 237.706804 
L 259.400915 239.855676 
L 258.31615 241.735939 
L 257.502577 244.511565 
L 254.655071 249.973281 
L 252.756733 252.032617 
L 252.688936 253.107053 
L 251.197385 255.345461 
L 249.977025 258.121087 
L 248.960058 259.195523 
L 246.519339 263.761876 
L 244.688799 267.970083 
L 241.298911 273.700409 
L 239.942955 277.371398 
L 236.959854 281.937751 
L 232.891988 288.832048 
L 231.671628 290.085557 
L 227.739357 296.621709 
L 225.773222 301.008989 
L 223.4003 304.769515 
L 222.518929 306.828851 
L 219.739221 311.305667 
L 219.400232 312.738248 
L 216.891714 317.57321 
L 214.993377 323.034926 
L 212.213669 322.139563 
L 211.467893 325.004726 
L 209.094971 330.287369 
L 206.179667 334.674649 
L 205.094903 336.823521 
L 203.264363 342.374773 
L 201.569419 344.971327 
L 200.281261 348.463244 
L 198.654115 350.164434 
L 197.29816 353.477278 
L 194.85744 357.058732 
L 194.111665 359.028531 
L 191.874338 362.430911 
L 190.992967 364.490247 
L 188.077663 368.877527 
L 188.009866 370.041499 
L 185.975933 372.369444 
L 184.619977 375.324143 
L 182.789438 378.189305 
L 182.314853 380.159105 
L 181.433482 380.785859 
L 180.552111 383.20334 
L 179.128358 385.083603 
L 178.585976 387.142938 
L 177.094425 389.023201 
L 174.992694 393.320945 
L 171.263817 398.872198 
L 167.060356 406.303713 
L 165.772198 409.974702 
L 162.856894 414.899201 
L 161.907725 416.063173 
L 160.822961 419.55509 
L 158.517837 424.300515 
L 156.551702 427.702896 
L 154.110982 430.568058 
L 151.873656 431.194813 
L 150.721094 434.41812 
L 150.653296 435.850702 
L 149.636329 435.940238 
L 149.568532 437.193747 
L 147.602396 441.760099 
L 144.958283 445.968307 
L 145.093879 448.743933 
L 142.992148 451.698632 
L 141.703991 455.190549 
L 140.890417 455.817303 
L 139.059878 460.204583 
L 137.500529 460.831338 
L 136.822551 463.786037 
L 135.398798 463.965109 
L 132.483494 467.188417 
L 131.534325 468.889607 
L 129.974977 469.426825 
L 127.941044 466.651199 
L 124.890144 465.845372 
L 121.093469 464.233718 
L 120.076503 462.890673 
L 117.635783 462.801137 
L 113.432322 461.099947 
L 108.483085 457.966175 
L 106.381354 457.518494 
L 101.838903 455.280085 
L 97.838835 454.653331 
L 96.076093 452.23585 
L 92.889598 451.161414 
L 87.736968 448.743933 
L 86.720001 451.430023 
L 85.160653 453.22075 
L 84.482675 458.503393 
L 82.584337 460.562729 
L 81.567371 462.801137 
L 81.092787 465.308154 
L 80.143618 465.6663 
L 80.347011 467.994244 
L 78.85546 469.06868 
L 76.550336 472.202452 
L 76.685932 473.814106 
L 74.177414 474.530396 
L 71.397706 474.799005 
L 69.702762 476.052514 
L 69.024784 477.753704 
L 70.584133 480.439794 
L 68.685795 481.335157 
L 69.228177 482.140984 
L 67.058649 490.378327 
L 62.855187 498.167987 
L 62.448401 500.227323 
L 61.295839 501.212222 
L 61.295839 499.869177 
L 59.668692 501.74944 
L 60.550063 502.644804 
L 59.73649 504.077385 
L 57.634759 505.330894 
L 57.499164 506.315793 
L 54.244871 508.016983 
L 54.855051 510.613537 
L 51.871949 513.836845 
L 49.160038 514.19499 
L 46.583723 519.298561 
L 47.126105 521.26836 
L 46.651521 522.700942 
L 46.651521 525.566104 
L 44.753183 526.909149 
L 43.32943 531.206893 
L 40.481924 536.4 
L 39.329362 536.4 
L 35.532687 532.997619 
L 32.685181 531.744111 
L 30.380057 528.789412 
L 28.685112 528.789412 
L 26.515584 527.356831 
L 25.769808 526.282395 
L 23.193493 525.297495 
L 21.634145 526.282395 
L 21.566347 525.476568 
L 23.735875 522.074187 
L 25.363022 520.283461 
L 27.939337 516.164789 
L 28.14273 513.4787 
L 33.973338 505.599503 
L 36.210665 500.675004 
L 37.227631 499.331959 
L 37.498822 497.183088 
L 40.00734 493.601634 
L 41.49889 490.826008 
L 43.32943 489.214354 
L 46.651521 482.140984 
L 47.465094 479.81304 
L 48.414263 478.649067 
L 50.448196 474.351324 
L 54.58386 469.516362 
L 56.007613 466.472126 
L 56.617793 463.427891 
L 56.956781 463.965109 
L 59.261906 460.652265 
L 60.34667 458.055711 
L 60.821254 453.757968 
L 61.56703 452.504459 
L 63.465367 450.982341 
L 63.465367 449.281151 
L 64.617929 447.400888 
L 67.465435 446.236916 
L 69.024784 444.446189 
L 68.753593 441.581027 
L 71.668897 437.283283 
L 71.736695 435.940238 
L 73.906223 433.075076 
L 75.465572 430.209913 
L 76.211347 430.120377 
L 76.550336 427.881968 
L 77.6351 426.62846 
L 80.414809 419.823699 
L 82.719933 416.689927 
L 83.940293 412.929401 
L 86.787799 407.736294 
L 88.414945 405.318813 
L 90.855665 403.707159 
L 91.940429 403.528087 
L 93.296385 400.75246 
L 91.533643 398.693125 
L 89.364114 396.991935 
L 88.753934 395.917499 
L 89.092923 391.619755 
L 90.10989 390.187174 
L 89.296316 387.142938 
L 89.364114 383.91963 
L 89.906496 380.696323 
L 89.635305 377.83116 
L 89.025125 376.488115 
L 90.10989 373.802025 
L 89.567507 368.519382 
L 88.88953 365.654219 
L 88.957328 359.744821 
L 89.228519 358.31224 
L 88.88953 345.329472 
L 89.228519 343.538746 
L 88.957328 338.972393 
L 89.364114 337.09213 
L 89.092923 334.585113 
L 89.431912 332.078096 
L 89.364114 324.915189 
L 89.635305 321.154663 
L 89.431912 317.125529 
L 89.567507 312.648712 
L 90.10989 310.49984 
L 91.262452 308.619577 
L 92.347216 305.754415 
L 94.584542 301.546207 
L 94.516744 300.919453 
L 92.143823 299.755481 
L 91.601441 298.681045 
L 94.923531 284.981986 
L 96.415082 280.594706 
L 96.686273 276.476035 
L 97.432048 275.401599 
L 97.70324 272.984118 
L 98.923599 270.835246 
L 100.008364 267.432866 
L 102.449083 263.314194 
L 104.550814 260.538568 
L 105.364387 257.494333 
L 106.516949 254.987316 
L 102.110094 252.032617 
L 97.70324 248.630236 
L 99.330386 245.944146 
L 100.957532 244.601101 
L 101.499915 243.347593 
L 103.533848 241.288257 
L 104.822005 238.512631 
L 108.144096 233.677669 
L 108.686478 231.886943 
L 111.330591 228.305489 
L 114.720479 230.454361 
L 118.178165 231.439261 
L 118.720547 232.245088 
L 121.703649 234.214887 
L 123.127402 234.214887 
L 124.822346 235.11025 
L 127.805448 235.557932 
L 130.517359 237.706804 
L 131.805517 237.79634 
L 136.415765 240.571967 
L 139.331069 243.616202 
L 143.805721 245.586001 
L 147.602396 247.824409 
L 149.093947 247.645337 
L 151.941453 243.526665 
L 153.094015 244.690638 
L 157.704264 246.212755 
L 157.704264 246.212755 
" clip-path="url(#p8cebdb3d28)" style="fill: none; stroke: #000000; stroke-width: 3"/>
   </g>
  </g>
 </g>
 <defs>
  <clipPath id="p8cebdb3d28">
   <rect x="7.2" y="7.2" width="316.059632" height="554.4"/>
  </clipPath>
 </defs>
</svg>
