<?xml version="1.0" encoding="utf-8" standalone="no"?>
<!DOCTYPE svg PUBLIC "-//W3C//DTD SVG 1.1//EN"
  "http://www.w3.org/Graphics/SVG/1.1/DTD/svg11.dtd">
<svg xmlns:xlink="http://www.w3.org/1999/xlink" width="301.24873pt" height="568.8pt" viewBox="0 0 301.24873 568.8" xmlns="http://www.w3.org/2000/svg" version="1.1">
 <metadata>
  <rdf:RDF xmlns:dc="http://purl.org/dc/elements/1.1/" xmlns:cc="http://creativecommons.org/ns#" xmlns:rdf="http://www.w3.org/1999/02/22-rdf-syntax-ns#">
   <cc:Work>
    <dc:type rdf:resource="http://purl.org/dc/dcmitype/StillImage"/>
    <dc:date>2023-09-25T14:14:10.008643</dc:date>
    <dc:format>image/svg+xml</dc:format>
    <dc:creator>
     <cc:Agent>
      <dc:title>Matplotlib v3.6.2, https://matplotlib.org/</dc:title>
     </cc:Agent>
    </dc:creator>
   </cc:Work>
  </rdf:RDF>
 </metadata>
 <defs>
  <style type="text/css">*{stroke-linejoin: round; stroke-linecap: butt}</style>
 </defs>
 <g id="figure_1">
  <g id="patch_1">
   <path d="M 0 568.8 
L 301.24873 568.8 
L 301.24873 0 
L 0 0 
z
" style="fill: #ffffff"/>
  </g>
  <g id="axes_1">
   <g id="LineCollection_1">
    <path d="M 248.57496 41.160985 
L 235.85889 33.373443 
L 231.6202 32.4 
L 225.354311 44.081313 
L 206.925224 76.204925 
L 201.949371 86.669435 
L 197.342099 93.726895 
L 195.130609 100.297634 
L 180.203049 121.226654 
L 172.647124 136.071656 
L 169.145597 140.93887 
L 167.118398 147.022887 
L 159.0096 161.86789 
L 151.085092 178.173056 
L 133.57746 211.270111 
L 121.782845 232.442492 
L 116.806992 240.230034 
L 112.384011 249.23438 
L 101.142268 267.486432 
L 97.27216 276.977499 
L 90.82198 287.685369 
L 77.368747 308.371028 
L 72.024312 319.32226 
L 66.495586 327.839884 
L 62.625477 339.034476 
L 55.622425 353.149396 
L 54.332389 368.724481 
L 54.516679 386.976533 
L 51.936607 390.626944 
L 52.673771 395.980879 
L 56.175297 403.52506 
L 51.752316 410.582521 
L 56.912461 414.476292 
L 54.516679 417.39662 
L 53.226643 432.241622 
L 56.175297 438.32564 
L 56.175297 444.896379 
L 46.407881 467.772284 
L 52.305189 466.068759 
L 49.172244 490.161468 
L 48.066499 479.696958 
L 44.380682 484.077451 
L 43.090646 488.457943 
L 36.271884 496.732207 
L 32.954648 502.086142 
L 32.954648 506.466634 
L 30.005994 515.22762 
L 27.978795 517.661226 
L 23.002942 509.873684 
L 22.63436 518.391309 
L 20.238579 523.745244 
L 25.214432 531.289425 
L 20.60716 528.369097 
L 22.818651 536.4 
L 25.583014 531.046065 
L 25.030141 522.771801 
L 26.135886 520.824915 
L 30.190285 523.501883 
L 28.715958 516.201062 
L 33.876103 508.170159 
L 38.114793 498.192371 
L 44.749264 496.732207 
L 41.432028 501.599421 
L 46.592172 496.975567 
L 48.619372 489.188025 
L 52.120898 483.104008 
L 59.308242 475.559826 
L 66.679876 471.666055 
L 70.734275 465.825398 
L 70.181403 453.900724 
L 72.024312 448.79015 
L 80.501691 430.781458 
L 82.713182 423.967359 
L 88.241908 413.98957 
L 91.927725 402.064896 
L 98.746487 393.06055 
L 100.589396 388.680058 
L 105.933831 382.109319 
L 107.223867 378.458909 
L 111.646847 373.835056 
L 115.885537 365.804153 
L 128.970189 345.361854 
L 132.840297 335.384066 
L 140.027641 324.676195 
L 142.05484 319.32226 
L 150.900802 303.503815 
L 151.269383 301.556929 
L 159.0096 291.822501 
L 170.804215 268.703235 
L 182.59883 248.747658 
L 190.154756 234.876099 
L 192.550537 231.712409 
L 194.393445 225.385031 
L 207.293806 203.239208 
L 211.163914 199.102076 
L 217.245513 186.44732 
L 231.435909 161.86789 
L 234.015981 153.350266 
L 241.019034 140.208788 
L 250.233577 127.554032 
L 267.188337 93.970256 
L 274.19139 82.532303 
L 279.167243 70.85099 
L 281.010152 62.090005 
L 257.973794 47.731724 
L 250.970741 41.404346 
" clip-path="url(#p382a6bf4cd)" style="fill: none; stroke: #000000; stroke-width: 3"/>
   </g>
  </g>
 </g>
 <defs>
  <clipPath id="p382a6bf4cd">
   <rect x="7.2" y="7.2" width="286.84873" height="554.4"/>
  </clipPath>
 </defs>
</svg>
