<?xml version="1.0" encoding="utf-8" standalone="no"?>
<!DOCTYPE svg PUBLIC "-//W3C//DTD SVG 1.1//EN"
  "http://www.w3.org/Graphics/SVG/1.1/DTD/svg11.dtd">
<svg xmlns:xlink="http://www.w3.org/1999/xlink" width="301.125719pt" height="568.8pt" viewBox="0 0 301.125719 568.8" xmlns="http://www.w3.org/2000/svg" version="1.1">
 <metadata>
  <rdf:RDF xmlns:dc="http://purl.org/dc/elements/1.1/" xmlns:cc="http://creativecommons.org/ns#" xmlns:rdf="http://www.w3.org/1999/02/22-rdf-syntax-ns#">
   <cc:Work>
    <dc:type rdf:resource="http://purl.org/dc/dcmitype/StillImage"/>
    <dc:date>2023-09-25T14:14:09.883726</dc:date>
    <dc:format>image/svg+xml</dc:format>
    <dc:creator>
     <cc:Agent>
      <dc:title>Matplotlib v3.6.2, https://matplotlib.org/</dc:title>
     </cc:Agent>
    </dc:creator>
   </cc:Work>
  </rdf:RDF>
 </metadata>
 <defs>
  <style type="text/css">*{stroke-linejoin: round; stroke-linecap: butt}</style>
 </defs>
 <g id="figure_1">
  <g id="patch_1">
   <path d="M 0 568.8 
L 301.125719 568.8 
L 301.125719 0 
L 0 0 
z
" style="fill: #ffffff"/>
  </g>
  <g id="axes_1">
   <g id="LineCollection_1">
    <path d="M 206.469991 106.596917 
L 209.312387 107.7067 
L 211.394142 108.71079 
L 214.636876 111.036049 
L 212.835357 113.519849 
L 211.79448 116.003649 
L 210.83367 117.430513 
L 209.712725 119.914313 
L 209.032151 120.812708 
L 208.031307 123.085121 
L 207.3107 123.613589 
L 206.590092 124.776219 
L 205.589248 127.312866 
L 204.588405 129.321044 
L 202.466616 132.86178 
L 199.584186 138.093614 
L 199.464085 138.780623 
L 197.662566 141.31727 
L 196.861891 143.378295 
L 195.14044 146.390563 
L 194.459866 147.92312 
L 193.699225 148.92721 
L 190.136221 155.110286 
L 189.615782 155.37452 
L 189.575748 156.325763 
L 187.77423 159.338031 
L 187.45396 160.500661 
L 185.932677 162.720226 
L 185.292137 164.252784 
L 184.331327 165.785341 
L 183.050247 168.321988 
L 182.249572 169.326077 
L 181.208695 171.704184 
L 180.72829 172.074111 
L 179.76748 174.452218 
L 178.926771 175.350613 
L 178.246197 177.041711 
L 177.085219 178.627115 
L 176.044341 180.740988 
L 175.083531 182.220698 
L 173.962586 184.757345 
L 172.040966 187.716766 
L 171.280325 189.777792 
L 169.398739 193.054294 
L 167.877456 194.798238 
L 167.27695 196.436489 
L 165.515465 196.964958 
L 164.71479 198.867443 
L 165.475431 200.928468 
L 166.476275 201.139855 
L 167.91749 200.928468 
L 169.398739 202.091098 
L 171.240291 202.513872 
L 172.201101 203.517962 
L 173.522215 203.570808 
L 175.203632 204.733438 
L 175.563936 205.420447 
L 176.684881 205.948915 
L 177.605657 205.473293 
L 180.08775 206.953004 
L 188.494837 211.49783 
L 189.135377 211.550676 
L 190.096187 212.449072 
L 193.138752 214.14017 
L 194.139596 215.408493 
L 195.540777 216.676817 
L 196.501587 216.835357 
L 197.262228 217.7866 
L 198.142971 218.156527 
L 199.023713 219.054923 
L 199.824388 219.160617 
L 200.985367 220.006165 
L 201.185536 220.851714 
L 199.664253 223.335514 
L 198.903612 223.546902 
L 197.942802 225.819314 
L 195.941115 228.831582 
L 195.060372 231.368229 
L 194.17963 233.323561 
L 193.258853 234.380497 
L 191.737571 237.181378 
L 190.536558 239.083863 
L 188.895175 242.201824 
L 187.77423 243.892922 
L 185.932677 246.271029 
L 185.412238 246.376722 
L 184.57153 249.917458 
L 183.971023 250.974394 
L 183.370517 254.937905 
L 182.289606 256.99893 
L 178.126096 260.909594 
L 176.164442 262.442152 
L 176.404645 262.864926 
L 176.044341 264.925952 
L 174.523059 267.039824 
L 173.922552 269.41793 
L 173.081844 270.844794 
L 172.081 271.90173 
L 170.960055 272.430198 
L 171.160224 272.958666 
L 171.080156 275.019692 
L 170.119346 275.125385 
L 170.079312 276.076628 
L 168.838266 278.560428 
L 167.997557 279.141743 
L 166.596376 282.101164 
L 165.915802 282.946713 
L 165.275262 284.426423 
L 165.795701 286.223215 
L 164.234385 287.967159 
L 163.914115 289.499717 
L 163.11344 290.979427 
L 161.672225 291.93067 
L 160.831516 294.203083 
L 160.110909 294.942938 
L 159.670537 296.528342 
L 158.269356 298.21944 
L 157.108377 300.280466 
L 155.547061 303.821202 
L 155.226791 303.398427 
L 153.545374 306.939163 
L 151.90399 308.947342 
L 151.383551 310.479899 
L 149.34183 314.654797 
L 148.020716 316.715823 
L 147.42021 318.036993 
L 147.260075 319.199623 
L 146.579501 319.41101 
L 145.298421 320.785027 
L 144.497746 322.05335 
L 143.857206 324.220069 
L 142.93643 324.37861 
L 142.576126 326.809563 
L 142.736261 327.02095 
L 141.375114 328.500661 
L 140.934743 330.086065 
L 136.931368 337.008997 
L 134.92968 339.704184 
L 134.008904 341.712362 
L 132.927993 343.192073 
L 131.526811 346.521422 
L 131.126474 346.891349 
L 128.404179 351.647562 
L 127.483403 352.704498 
L 127.2432 353.550047 
L 126.28239 355.082605 
L 125.801985 357.196477 
L 125.081378 358.411953 
L 122.959589 360.842907 
L 122.639319 362.903932 
L 121.47834 365.070651 
L 121.238138 366.338975 
L 119.87699 368.452847 
L 119.076315 369.298396 
L 118.235606 370.936647 
L 116.954526 372.416357 
L 116.67429 373.314753 
L 115.473278 374.635923 
L 115.032907 376.274174 
L 112.150477 381.770242 
L 111.349802 382.668638 
L 110.429025 384.676817 
L 108.787642 386.684995 
L 108.107068 388.059012 
L 107.466528 388.534634 
L 106.10538 391.229821 
L 105.424807 392.23391 
L 106.065347 393.343693 
L 105.104537 395.88034 
L 103.343052 396.778735 
L 101.94187 397.941365 
L 100.900993 399.315382 
L 98.659103 404.177288 
L 97.978529 406.185467 
L 95.936808 408.827807 
L 95.416369 409.144888 
L 92.413838 413.319786 
L 90.612319 416.701982 
L 90.131914 417.970305 
L 89.45134 418.604467 
L 88.050159 421.141114 
L 86.088505 423.994841 
L 84.96756 426.055867 
L 81.484624 430.706386 
L 80.403713 432.608871 
L 78.321958 434.986977 
L 75.239359 439.109028 
L 77.040878 441.117207 
L 76.640541 442.808304 
L 77.361148 443.442466 
L 77.441216 444.446556 
L 78.361992 446.084807 
L 78.241891 447.247436 
L 79.402869 448.621453 
L 80.043409 450.101164 
L 80.403713 452.426423 
L 82.205232 453.853287 
L 84.00675 455.597232 
L 84.367054 455.597232 
L 82.565535 460.670525 
L 81.164354 462.361623 
L 80.964186 463.260019 
L 79.723139 465.743819 
L 77.641384 468.386159 
L 76.240203 471.821202 
L 75.879899 472.138282 
L 75.959967 473.248065 
L 75.559629 474.569236 
L 74.678887 475.15055 
L 74.358617 476.15464 
L 72.877368 477.211576 
L 71.676356 478.691287 
L 70.034972 481.545014 
L 63.309302 491.744448 
L 60.386838 495.972193 
L 60.506939 496.500661 
L 58.905589 498.614533 
L 56.623666 503.212205 
L 55.582788 504.057754 
L 54.301708 505.696005 
L 53.260831 506.43586 
L 53.140729 507.59849 
L 52.580257 508.602579 
L 52.019784 508.708273 
L 50.698671 510.346524 
L 49.897996 512.143316 
L 49.978063 513.253098 
L 49.457624 513.940107 
L 46.895465 514.521422 
L 48.496815 514.732809 
L 47.656106 517.850771 
L 45.694452 519.700409 
L 45.13398 522.237056 
L 44.253237 523.716766 
L 44.413372 524.139541 
L 42.25155 525.724945 
L 42.091415 526.623341 
L 41.370807 526.887575 
L 39.849525 528.420132 
L 40.049693 529.95269 
L 38.968782 531.590941 
L 39.128917 532.013715 
L 38.488377 533.123498 
L 36.967095 533.810506 
L 35.686015 533.282038 
L 32.163045 532.277949 
L 28.80021 532.542183 
L 27.679265 533.704813 
L 26.278083 533.75766 
L 24.516598 534.286128 
L 23.03535 534.07474 
L 20.232987 535.765838 
L 20.47319 536.4 
L 21.393966 535.712992 
L 23.075383 535.712992 
L 24.516598 535.448757 
L 25.037037 533.599119 
L 25.557476 533.176345 
L 28.079602 533.493426 
L 30.201391 533.070651 
L 31.842775 533.176345 
L 33.964563 532.700723 
L 34.324867 532.225102 
L 34.805272 529.159987 
L 33.92453 526.781881 
L 34.084665 525.619251 
L 36.046318 523.82246 
L 37.607635 522.976911 
L 38.007972 522.237056 
L 39.168951 521.4972 
L 40.00966 520.545958 
L 41.130605 520.17603 
L 42.731955 517.586537 
L 43.53263 516.582447 
L 44.613541 513.147405 
L 45.974688 513.992954 
L 46.895465 513.094558 
L 46.495127 511.139226 
L 47.536005 509.870903 
L 47.135667 509.236741 
L 47.776207 508.179805 
L 49.137354 504.057754 
L 48.857118 502.419503 
L 49.217422 501.204026 
L 49.017253 499.882856 
L 49.337523 499.090154 
L 50.738704 498.244605 
L 51.699514 496.817741 
L 51.979751 497.346209 
L 53.501033 494.228248 
L 56.143261 492.801384 
L 57.464374 489.313495 
L 57.824678 487.939478 
L 58.785488 487.41101 
L 60.346804 483.92312 
L 61.267581 482.44341 
L 62.588694 480.805159 
L 63.229234 479.166908 
L 65.431091 475.256244 
L 66.311833 474.305002 
L 66.632103 473.300912 
L 69.274331 470.764265 
L 69.994938 469.073168 
L 72.276862 468.016232 
L 72.236828 466.747908 
L 73.197638 465.796666 
L 74.478718 463.999874 
L 75.079224 461.621768 
L 76.040034 459.77213 
L 75.959967 457.975338 
L 76.680574 456.707015 
L 77.521283 454.593142 
L 79.202701 451.845109 
L 79.843241 449.99547 
L 78.722296 448.727147 
L 78.522127 447.775904 
L 77.801519 447.564517 
L 76.600507 445.450645 
L 78.522127 441.698522 
L 79.082599 440.271658 
L 79.563004 440.060271 
L 80.403713 438.369173 
L 81.164354 437.576471 
L 81.764861 436.149607 
L 81.564692 435.726832 
L 83.646447 433.295879 
L 86.608944 428.856747 
L 87.169417 427.641271 
L 87.930058 426.848569 
L 89.051003 424.68185 
L 89.971779 423.67776 
L 91.37296 421.19396 
L 91.933433 420.824033 
L 93.254547 418.71016 
L 94.855897 416.649135 
L 95.176167 415.750739 
L 96.617382 413.108399 
L 100.941027 405.762693 
L 102.342208 404.335829 
L 102.222107 403.913054 
L 104.143727 401.534948 
L 105.384773 401.16502 
L 106.986123 401.112174 
L 107.306393 401.534948 
L 110.148789 399.156842 
L 110.388992 398.36414 
L 112.83105 395.404718 
L 115.032907 391.705442 
L 116.113818 390.437119 
L 116.313986 389.221642 
L 117.95537 387.213463 
L 118.796079 385.628059 
L 119.196416 385.680906 
L 121.118036 383.038566 
L 121.678509 381.770242 
L 123.359926 379.550676 
L 124.801141 376.696949 
L 126.002154 375.534319 
L 126.562626 374.371689 
L 127.843706 373.52614 
L 129.845394 374.53023 
L 130.485934 375.375779 
L 132.087284 375.745706 
L 134.008904 376.749796 
L 134.689478 377.489651 
L 138.732886 378.599434 
L 139.693696 379.180749 
L 141.054844 379.286442 
L 141.935586 378.863668 
L 142.415991 379.180749 
L 142.335924 380.871846 
L 141.174945 379.233595 
L 139.533561 378.757974 
L 138.572751 378.810821 
L 136.250794 376.644102 
L 137.291671 378.070966 
L 136.21076 377.701038 
L 134.209073 376.221327 
L 134.129005 372.997672 
L 134.569376 371.676502 
L 134.209073 371.676502 
L 137.81211 365.123498 
L 138.532718 365.123498 
L 138.893021 364.277949 
L 138.77292 363.115319 
L 139.173258 363.168166 
L 139.893865 362.11123 
L 140.134068 360.261592 
L 141.815485 358.4648 
L 141.815485 357.566405 
L 142.856363 356.350928 
L 143.496903 355.188298 
L 145.258388 352.651651 
L 146.13913 350.537779 
L 146.939805 349.53369 
L 147.220041 348.053979 
L 148.180851 346.415728 
L 149.782201 345.517332 
L 150.422741 343.086379 
L 151.103315 342.08229 
L 151.063281 341.289588 
L 151.543686 339.968418 
L 153.18507 338.488707 
L 153.785576 336.427682 
L 154.626285 335.529286 
L 157.188445 331.407235 
L 157.228479 329.50475 
L 158.509559 329.029129 
L 159.029997 327.390878 
L 159.150099 325.805473 
L 159.710571 324.325763 
L 160.911584 322.740359 
L 161.151786 320.785027 
L 162.192664 320.467946 
L 163.43371 317.878452 
L 164.234385 316.768669 
L 164.514621 314.813338 
L 165.875769 313.069393 
L 165.915802 312.276691 
L 167.036747 311.061214 
L 168.197726 310.691287 
L 168.798232 309.105882 
L 169.598907 308.524567 
L 170.559717 306.780623 
L 171.200257 304.666751 
L 172.241135 303.821202 
L 172.641472 303.0285 
L 172.521371 301.654483 
L 173.722384 300.121925 
L 174.362924 300.121925 
L 174.523059 298.536521 
L 176.484712 295.524253 
L 178.366299 292.194904 
L 179.006839 289.499717 
L 179.647379 288.759862 
L 180.40802 286.540296 
L 180.72829 287.174457 
L 181.929302 286.698836 
L 182.810045 285.271972 
L 182.930146 284.32073 
L 183.650753 283.528028 
L 184.811732 284.532117 
L 184.211226 284.743504 
L 184.531496 286.540296 
L 184.171192 286.645989 
L 184.491462 284.690657 
L 186.212913 282.206858 
L 186.333015 281.044228 
L 189.495681 278.243347 
L 190.056153 277.397798 
L 189.976086 276.129475 
L 190.936896 274.279836 
L 190.97693 273.117207 
L 190.456491 272.430198 
L 188.134533 274.54407 
L 188.054466 275.336773 
L 187.093656 273.804215 
L 186.132846 272.747279 
L 184.731665 271.690343 
L 183.570686 270.210632 
L 181.568999 266.828437 
L 180.40802 264.503177 
L 179.967649 264.238943 
L 180.007682 266.458509 
L 177.565624 260.48682 
L 176.604814 259.271343 
L 176.044341 258.108713 
L 174.523059 256.99893 
L 173.722384 255.624913 
L 172.761574 255.572067 
L 169.999245 254.462284 
L 170.599751 253.775275 
L 170.559717 253.088267 
L 171.840797 252.559799 
L 174.122721 249.494684 
L 174.723227 250.181692 
L 174.96343 249.019063 
L 175.644004 248.754829 
L 171.880831 242.307518 
L 172.72154 240.510727 
L 173.642316 240.986348 
L 173.802451 239.559484 
L 174.082687 241.039195 
L 174.242822 239.612331 
L 173.842485 239.189556 
L 173.161911 240.246493 
L 181.568999 225.819314 
L 182.369673 223.282668 
L 184.291293 220.376093 
L 185.372205 217.892293 
L 185.292137 216.306889 
L 185.692475 215.249953 
L 186.773386 214.034476 
L 187.213757 212.819 
L 187.814263 212.343378 
L 187.854297 211.339289 
L 188.334702 210.810821 
L 188.0945 210.018119 
L 188.574905 209.119723 
L 186.573217 206.371689 
L 186.613251 204.997672 
L 187.574061 204.152123 
L 188.134533 202.936647 
L 188.975242 201.985404 
L 191.337233 196.647877 
L 193.85936 192.155898 
L 196.10125 189.724945 
L 197.662566 189.196477 
L 199.904456 189.249324 
L 202.586717 190.729034 
L 203.987898 191.151809 
L 205.349046 191.046115 
L 206.550058 190.4648 
L 208.59178 188.720856 
L 210.713568 184.387417 
L 212.074716 182.907707 
L 215.717787 180.529601 
L 216.798698 179.314124 
L 218.279947 176.196162 
L 218.840419 174.452218 
L 218.960521 172.391192 
L 217.879609 169.960239 
L 217.559339 167.740673 
L 217.919643 166.155269 
L 220.161533 162.82592 
L 223.404267 160.764895 
L 224.805448 159.232337 
L 225.125718 157.805473 
L 225.045651 155.797295 
L 225.486022 154.000503 
L 226.446832 151.146776 
L 226.967271 148.92721 
L 228.288384 145.756401 
L 230.089903 143.061214 
L 232.251726 140.735955 
L 234.173346 138.146461 
L 235.614561 134.394338 
L 237.856451 130.536521 
L 239.137531 129.162504 
L 240.138374 128.528342 
L 243.180939 127.471406 
L 245.222661 127.471406 
L 247.464551 127.788487 
L 249.546305 127.73564 
L 251.227723 126.731551 
L 253.509647 123.349355 
L 255.391233 120.1257 
L 257.633123 116.003649 
L 258.874169 113.414155 
L 259.434642 112.832841 
L 261.035992 109.714879 
L 263.998489 104.535892 
L 265.639873 101.25939 
L 266.240379 99.621139 
L 266.36048 94.336458 
L 266.760818 92.803901 
L 266.920953 90.584335 
L 266.640717 89.421705 
L 264.999333 86.462284 
L 264.959299 83.819943 
L 265.960143 81.653224 
L 267.96183 78.271029 
L 270.443923 75.364454 
L 272.365543 73.356276 
L 274.04696 71.13671 
L 274.327197 69.287071 
L 274.006927 67.595974 
L 274.327197 64.108084 
L 275.047804 60.197421 
L 275.368074 59.404718 
L 276.92939 57.502233 
L 278.690875 56.23391 
L 279.931922 55.599748 
L 280.532428 54.91274 
L 280.892732 53.538723 
L 280.332259 52.164706 
L 279.531584 51.530544 
L 278.010302 51.372004 
L 277.089525 51.636238 
L 274.407264 53.221642 
L 272.885982 53.221642 
L 271.965205 52.58748 
L 271.564868 51.530544 
L 271.80507 49.997987 
L 273.486488 48.148349 
L 275.047804 46.14017 
L 276.649154 42.969361 
L 277.089525 41.119723 
L 276.809289 38.900157 
L 274.767568 36.574898 
L 272.285475 34.72526 
L 271.324665 34.249638 
L 267.64156 33.192702 
L 266.560649 33.139855 
L 264.11859 32.4 
L 262.717409 32.55854 
L 261.596464 33.139855 
L 260.195283 34.936647 
L 260.115215 36.839132 
L 261.156093 38.318842 
L 263.758287 39.534319 
L 265.479738 41.33111 
L 265.880075 43.920604 
L 266.720784 46.457251 
L 266.960987 48.359736 
L 266.36048 50.10368 
L 264.478894 52.42894 
L 262.19697 53.697263 
L 259.594777 54.701353 
L 258.273663 55.758289 
L 257.633123 56.709531 
L 256.632279 59.668953 
L 255.391233 60.884429 
L 253.669782 61.677131 
L 251.62806 62.152752 
L 250.266913 62.945455 
L 248.905765 64.108084 
L 247.584652 65.957723 
L 244.902391 70.925322 
L 244.462019 72.61642 
L 242.980771 75.258761 
L 241.699691 76.685624 
L 238.857294 78.693803 
L 237.976552 79.750739 
L 237.336012 81.970305 
L 237.496147 85.246807 
L 237.295978 86.303743 
L 236.455269 87.889148 
L 235.574527 88.734696 
L 231.531118 90.531488 
L 228.648688 92.48682 
L 226.767102 94.653539 
L 225.365921 96.608871 
L 224.285009 98.828437 
L 223.844638 101.048003 
L 224.084841 103.848883 
L 225.566089 108.816483 
L 225.405954 111.564517 
L 224.605279 113.149921 
L 223.164064 115.369487 
L 221.963052 116.796351 
L 220.802073 117.80044 
L 218.279947 119.597232 
L 217.038901 121.024096 
L 217.719474 117.6419 
L 217.559339 114.682479 
L 216.758664 112.832841 
L 215.437551 111.617364 
L 215.437551 111.036049 
L 212.995492 109.979113 
L 211.234007 108.552249 
L 208.992117 107.178232 
L 207.63097 106.649764 
L 207.63097 106.649764 
" clip-path="url(#p9136d0ffd6)" style="fill: none; stroke: #000000; stroke-width: 3"/>
   </g>
  </g>
 </g>
 <defs>
  <clipPath id="p9136d0ffd6">
   <rect x="7.2" y="7.2" width="286.725719" height="554.4"/>
  </clipPath>
 </defs>
</svg>
