<?xml version="1.0" encoding="utf-8" standalone="no"?>
<!DOCTYPE svg PUBLIC "-//W3C//DTD SVG 1.1//EN"
  "http://www.w3.org/Graphics/SVG/1.1/DTD/svg11.dtd">
<svg xmlns:xlink="http://www.w3.org/1999/xlink" width="414.603708pt" height="568.8pt" viewBox="0 0 414.603708 568.8" xmlns="http://www.w3.org/2000/svg" version="1.1">
 <metadata>
  <rdf:RDF xmlns:dc="http://purl.org/dc/elements/1.1/" xmlns:cc="http://creativecommons.org/ns#" xmlns:rdf="http://www.w3.org/1999/02/22-rdf-syntax-ns#">
   <cc:Work>
    <dc:type rdf:resource="http://purl.org/dc/dcmitype/StillImage"/>
    <dc:date>2023-09-25T14:14:09.419566</dc:date>
    <dc:format>image/svg+xml</dc:format>
    <dc:creator>
     <cc:Agent>
      <dc:title>Matplotlib v3.6.2, https://matplotlib.org/</dc:title>
     </cc:Agent>
    </dc:creator>
   </cc:Work>
  </rdf:RDF>
 </metadata>
 <defs>
  <style type="text/css">*{stroke-linejoin: round; stroke-linecap: butt}</style>
 </defs>
 <g id="figure_1">
  <g id="patch_1">
   <path d="M 0 568.8 
L 414.603708 568.8 
L 414.603708 0 
L 0 0 
z
" style="fill: #ffffff"/>
  </g>
  <g id="axes_1">
   <g id="LineCollection_1">
    <path d="M 217.707007 55.222967 
L 220.773102 57.548325 
L 230.036624 61.079426 
L 232.776539 57.462201 
L 233.233191 57.289952 
L 236.429759 59.184689 
L 242.366241 60.734928 
L 246.345641 63.404785 
L 248.237487 63.577033 
L 252.869248 67.108134 
L 264.93792 72.70622 
L 269.373973 76.151196 
L 270.41775 79.079426 
L 271.070111 83.299522 
L 272.961957 87.002871 
L 275.310455 89.069856 
L 277.202301 88.811483 
L 277.267537 89.9311 
L 280.333633 95.701435 
L 285.422046 101.041148 
L 286.792003 102.160766 
L 291.423764 104.227751 
L 293.902735 105.77799 
L 295.664109 106.294737 
L 301.339647 109.825837 
L 304.536214 110.600957 
L 306.75424 113.184689 
L 309.494155 114.304306 
L 312.886431 116.801914 
L 315.626345 117.404785 
L 317.257247 118.955024 
L 321.497592 121.280383 
L 324.107034 121.883254 
L 325.99888 123.002871 
L 326.194589 122.486124 
L 328.934503 123.433493 
L 329.456392 124.983732 
L 332.652959 128.084211 
L 333.501028 128.256459 
L 336.501887 130.409569 
L 339.633219 131.529187 
L 340.481288 132.218182 
L 348.701032 136.610526 
L 351.767127 137.816268 
L 354.115626 139.194258 
L 360.639233 143.844976 
L 361.422065 143.758852 
L 367.880436 146.945455 
L 369.576574 148.495694 
L 371.990308 149.356938 
L 373.62121 150.562679 
L 378.448679 153.060287 
L 381.449538 154.955024 
L 385.885591 157.108134 
L 387.451257 158.313876 
L 385.559411 160.639234 
L 384.319925 161.500478 
L 385.102758 162.964593 
L 389.212631 166.409569 
L 384.124217 163.48134 
L 383.145676 161.844976 
L 380.405761 161.155981 
L 376.622069 158.572249 
L 371.011767 155.902392 
L 365.98859 152.801914 
L 363.444384 151.94067 
L 359.399747 149.615311 
L 355.289875 146.773206 
L 353.202321 146.084211 
L 345.308757 140.916746 
L 342.43837 139.711005 
L 340.93794 138.677512 
L 335.588582 136.09378 
L 332.652959 133.682297 
L 329.847808 132.734928 
L 328.477851 131.529187 
L 324.824631 130.237321 
L 323.780854 129.203828 
L 320.453815 127.136842 
L 318.888149 126.533971 
L 317.583428 124.983732 
L 314.191152 123.950239 
L 312.103598 122.4 
L 310.603168 120.333014 
L 306.10188 118.8689 
L 301.992007 116.199043 
L 298.46926 114.734928 
L 289.33621 108.878469 
L 286.857239 108.275598 
L 285.552518 107.414354 
L 283.269256 106.897608 
L 281.116465 108.533971 
L 279.616036 111.117703 
L 280.007452 112.667943 
L 284.052088 114.734928 
L 286.00917 115.251675 
L 287.574836 116.371292 
L 289.988571 117.060287 
L 294.294151 120.160766 
L 298.79544 121.711005 
L 299.643509 123.17512 
L 304.536214 125.586603 
L 309.102739 128.170335 
L 310.798876 129.806699 
L 312.755958 130.495694 
L 317.387719 132.734928 
L 320.845231 134.026794 
L 322.410897 135.577033 
L 324.759395 136.352153 
L 326.716477 137.902392 
L 330.434933 139.62488 
L 331.870126 141.002871 
L 334.544805 142.036364 
L 336.762832 144.017225 
L 338.915622 144.70622 
L 343.808327 147.720574 
L 347.461547 149.184689 
L 350.462406 151.596172 
L 355.028931 154.09378 
L 357.181721 154.782775 
L 358.747387 155.816268 
L 362.531079 157.366507 
L 364.683869 158.744498 
L 365.205757 159.950239 
L 368.467561 161.414354 
L 370.098463 162.964593 
L 371.664128 162.878469 
L 372.186017 163.739713 
L 374.664987 164.85933 
L 379.10104 166.065072 
L 383.276148 169.251675 
L 384.254689 170.543541 
L 381.188594 168.648804 
L 379.42722 171.31866 
L 379.361984 173.213397 
L 380.144817 174.505263 
L 378.644387 174.505263 
L 377.926791 173.299522 
L 374.730223 171.577033 
L 373.751682 170.026794 
L 370.424643 168.734928 
L 367.358548 167.098565 
L 365.075285 166.840191 
L 356.920777 161.844976 
L 355.159403 161.155981 
L 352.354252 159.347368 
L 350.462406 158.830622 
L 345.765409 156.333014 
L 342.046953 153.232536 
L 336.893304 150.476555 
L 333.501028 149.184689 
L 331.348238 147.462201 
L 327.890726 145.739713 
L 323.585146 142.983732 
L 319.86669 141.605742 
L 317.387719 139.366507 
L 314.713041 137.816268 
L 313.995444 136.696651 
L 312.299306 135.663158 
L 310.016044 135.060287 
L 309.298447 133.94067 
L 307.210893 133.251675 
L 305.710463 132.132057 
L 301.731063 130.754067 
L 299.056384 129.376077 
L 296.903594 128.85933 
L 291.097584 124.639234 
L 288.292433 123.347368 
L 287.248656 123.433493 
L 283.20402 121.366507 
L 279.746508 118.8689 
L 277.071829 117.921531 
L 275.962816 118.179904 
L 273.875262 122.744498 
L 274.723331 124.380861 
L 277.593718 125.069856 
L 282.421187 127.309091 
L 284.378269 129.978947 
L 285.422046 129.548325 
L 292.532777 132.993301 
L 292.532777 134.457416 
L 296.055525 135.663158 
L 297.425482 137.127273 
L 300.361106 138.677512 
L 303.035784 139.194258 
L 305.906171 141.433493 
L 309.167975 142.294737 
L 313.343083 144.70622 
L 315.88729 146.687081 
L 318.627205 147.720574 
L 319.344801 148.840191 
L 320.649523 148.667943 
L 323.258965 150.304306 
L 323.911326 151.682297 
L 326.716477 153.577033 
L 329.260684 153.31866 
L 330.891585 154.8689 
L 334.544805 156.935885 
L 336.828068 157.711005 
L 339.046094 159.002871 
L 342.960258 160.466986 
L 346.548242 163.653589 
L 349.940517 165.548325 
L 353.398029 166.495694 
L 356.072708 167.701435 
L 356.790305 168.476555 
L 358.877859 168.821053 
L 359.334511 170.715789 
L 360.50876 172.09378 
L 362.922495 173.47177 
L 363.705328 174.849761 
L 367.162839 176.572249 
L 371.207476 176.572249 
L 375.252112 177.605742 
L 375.44782 179.155981 
L 374.338807 178.380861 
L 372.055545 183.117703 
L 373.099322 185.098565 
L 370.294171 183.031579 
L 366.314771 181.309091 
L 365.66241 180.447847 
L 363.770564 180.017225 
L 357.964554 177.519617 
L 355.811764 175.538756 
L 352.615196 173.644019 
L 348.048671 172.266029 
L 344.395452 170.543541 
L 339.046094 166.581818 
L 335.001458 165.117703 
L 332.718195 163.050718 
L 329.782572 162.275598 
L 325.542228 159.347368 
L 324.433215 159.261244 
L 322.215188 157.62488 
L 318.888149 156.419139 
L 315.88729 153.835407 
L 313.408319 152.888038 
L 310.864112 150.562679 
L 309.298447 150.304306 
L 305.449519 148.495694 
L 302.252951 147.63445 
L 301.535355 146.084211 
L 295.533636 142.725359 
L 291.945653 141.519617 
L 290.83664 139.452632 
L 289.075266 138.677512 
L 286.596295 136.782775 
L 282.095006 135.232536 
L 279.811744 133.854545 
L 278.37655 133.510048 
L 275.832344 131.615311 
L 270.678694 129.117703 
L 267.482127 126.620096 
L 264.61174 123.691866 
L 261.154228 120.763636 
L 258.088133 119.816268 
L 254.956802 119.644019 
L 250.390277 118.524402 
L 243.344782 114.993301 
L 238.517313 112.754067 
L 235.90787 111.289952 
L 234.40744 111.203828 
L 230.10186 108.275598 
L 225.600571 106.208612 
L 221.555935 103.538756 
L 220.838338 103.538756 
L 219.403145 101.385646 
L 218.881256 95.959809 
L 219.1422 93.548325 
L 220.185978 88.294737 
L 219.272673 86.141627 
L 216.597994 84.074641 
L 212.618594 82.438278 
L 209.682971 80.371292 
L 205.899279 78.132057 
L 203.616016 77.356938 
L 202.963656 76.581818 
L 200.354213 75.462201 
L 199.049491 75.978947 
L 196.635757 79.079426 
L 193.634898 84.160766 
L 192.852065 84.677512 
L 183.392835 81.146411 
L 175.825451 77.356938 
L 175.890687 75.548325 
L 174.325022 74.170335 
L 171.389398 73.050718 
L 166.822874 70.122488 
L 165.322444 69.950239 
L 164.604847 69.002871 
L 161.799696 67.452632 
L 160.951628 66.505263 
L 156.254631 64.955024 
L 152.797119 62.457416 
L 149.665788 60.907177 
L 147.708706 59.270813 
L 151.035745 55.48134 
L 152.405703 56.256459 
L 157.1027 58.065072 
L 158.407421 59.701435 
L 159.973087 60.562679 
L 165.191972 62.112919 
L 166.366221 63.835407 
L 168.127595 65.127273 
L 171.063218 65.988517 
L 173.868369 68.572249 
L 176.021159 69.002871 
L 179.739615 71.069856 
L 182.218586 71.672727 
L 189.068373 75.117703 
L 190.242622 76.151196 
L 195.396272 78.734928 
L 196.440049 77.701435 
L 198.201423 74.256459 
L 195.722452 72.275598 
L 191.61258 69.519617 
L 186.785111 66.677512 
L 183.588543 65.213397 
L 180.848628 64.352153 
L 175.368799 61.423923 
L 172.824592 59.529187 
L 168.975664 57.720574 
L 166.235749 55.48134 
L 163.104418 54.792344 
L 159.58167 52.122488 
L 158.472657 52.208612 
L 157.298408 53.32823 
L 156.385103 52.639234 
L 156.254631 49.883254 
L 157.167936 45.835407 
L 158.668365 45.490909 
L 161.277808 45.749282 
L 164.278667 47.385646 
L 166.040041 49.108134 
L 167.018582 51.088995 
L 170.54133 51.433493 
L 175.825451 54.878469 
L 176.803992 54.70622 
L 178.82631 55.911962 
L 182.15335 57.289952 
L 183.197127 58.495694 
L 185.349917 59.701435 
L 185.937042 60.993301 
L 188.089832 61.251675 
L 191.808288 62.629665 
L 192.982537 63.663158 
L 194.874383 64.352153 
L 198.788547 67.108134 
L 200.615157 67.452632 
L 204.072669 69.950239 
L 206.029751 70.466986 
L 209.617735 72.878469 
L 215.293272 74.687081 
L 216.076105 75.720574 
L 218.228896 76.667943 
L 219.403145 77.959809 
L 220.96881 77.78756 
L 222.14306 76.409569 
L 222.79542 73.911962 
L 222.273532 73.222967 
L 219.729325 72.275598 
L 216.858938 69.864115 
L 216.076105 68.744498 
L 213.727607 68.227751 
L 210.791984 65.902392 
L 206.682111 64.266029 
L 198.788547 59.701435 
L 192.460649 56.945455 
L 189.068373 54.792344 
L 187.698416 53.500478 
L 185.088973 51.950239 
L 183.97996 51.77799 
L 181.892405 49.969378 
L 179.087255 48.849761 
L 177.064936 47.557895 
L 172.889828 45.663158 
L 171.715579 44.371292 
L 168.845192 43.510048 
L 165.713861 41.615311 
L 163.691542 39.806699 
L 161.147336 38.945455 
L 158.276949 38.85933 
L 157.233172 37.48134 
L 156.972227 34.725359 
L 158.472657 32.572249 
L 160.755919 32.4 
L 162.843474 33.691866 
L 167.54047 35.242105 
L 169.36708 36.620096 
L 170.345621 36.70622 
L 173.607425 39.548325 
L 175.825451 40.495694 
L 178.043477 40.926316 
L 180.457212 42.304306 
L 181.566225 44.199043 
L 183.327599 44.371292 
L 186.13275 47.041148 
L 188.807429 47.385646 
L 193.373954 50.313876 
L 196.440049 51.261244 
L 198.005714 52.466986 
L 206.551639 57.117703 
L 208.443485 58.409569 
L 214.640912 61.251675 
L 218.098423 62.457416 
L 218.620312 63.232536 
L 222.012587 64.438278 
L 225.339627 66.333014 
L 227.166237 67.883254 
L 226.579112 70.208612 
L 223.708725 73.739713 
L 222.599712 76.495694 
L 220.251214 80.026794 
L 219.990269 81.060287 
L 217.054646 85.02201 
L 214.575676 90.189474 
L 214.379967 91.395215 
L 212.031469 95.529187 
L 209.487262 98.888038 
L 206.943056 104.141627 
L 204.725029 107.414354 
L 200.158505 115.596172 
L 198.723311 118.438278 
L 198.266659 120.333014 
L 195.526744 124.639234 
L 194.222022 127.567464 
L 191.286399 132.648804 
L 189.329317 134.974163 
L 188.807429 136.8689 
L 187.176527 139.02201 
L 183.458071 145.739713 
L 182.675238 148.065072 
L 180.32674 151.682297 
L 180.00056 152.974163 
L 176.67352 158.141627 
L 174.781674 161.586603 
L 174.259785 163.222967 
L 172.172231 166.754067 
L 172.302703 167.356938 
L 169.106136 172.179904 
L 168.453775 172.352153 
L 167.997123 174.24689 
L 166.822874 175.969378 
L 164.73532 180.361722 
L 162.517293 183.117703 
L 159.320726 188.974163 
L 158.276949 191.299522 
L 156.385103 193.797129 
L 155.471798 197.672727 
L 153.579952 201.031579 
L 151.361926 201.806699 
L 149.209135 203.78756 
L 148.948191 206.457416 
L 150.12244 208.438278 
L 152.27523 208.266029 
L 152.992827 209.041148 
L 152.731883 211.883254 
L 151.62287 216.103349 
L 151.035745 216.447847 
L 150.252912 220.667943 
L 150.905273 221.443062 
L 149.404843 227.127273 
L 150.579093 227.902392 
L 151.231453 229.797129 
L 150.709565 231.864115 
L 148.882955 233.242105 
L 147.773942 235.395215 
L 146.534456 242.888038 
L 143.99025 244.955024 
L 143.859778 246.505263 
L 148.948191 238.065072 
L 148.29583 237.462201 
L 145.882096 240.907177 
L 144.773083 243.921531 
L 142.750765 247.538756 
L 142.816001 248.313876 
L 140.402266 253.567464 
L 140.271794 254.945455 
L 139.097545 254.85933 
L 138.18424 256.237321 
L 137.858059 254.773206 
L 138.706128 253.050718 
L 140.141322 254.600957 
L 128.529302 278.974163 
L 127.942177 281.557895 
L 130.029731 281.988517 
L 129.638315 284.658373 
L 130.812564 283.280383 
L 130.812564 284.916746 
L 128.072649 289.395215 
L 127.420288 291.376077 
L 126.050331 293.184689 
L 125.07179 296.629665 
L 122.397111 300.763636 
L 120.505265 302.572249 
L 119.200544 305.758852 
L 116.656337 308.687081 
L 114.438311 309.892823 
L 112.481229 312.648804 
L 112.611701 313.079426 
L 110.654619 315.577033 
L 109.741314 317.385646 
L 110.197966 320.658373 
L 109.088953 323.069856 
L 109.088953 324.275598 
L 107.001399 326.600957 
L 105.566206 330.476555 
L 105.631442 332.974163 
L 104.783373 334.179904 
L 103.804832 334.179904 
L 99.890668 342.017225 
L 96.628864 346.323445 
L 95.911267 347.78756 
L 93.758477 349.94067 
L 92.258048 354.160766 
L 91.149034 355.969378 
L 89.06148 361.050718 
L 84.951608 365.959809 
L 83.907831 368.371292 
L 82.994526 372.591388 
L 80.972208 374.744498 
L 80.580791 376.036364 
L 78.362765 378.878469 
L 77.971349 380.256459 
L 75.100962 383.529187 
L 73.926712 387.404785 
L 72.491519 389.041148 
L 70.403965 393.347368 
L 69.099243 396.964593 
L 67.66405 399.031579 
L 65.119843 404.801914 
L 64.076066 405.749282 
L 62.379928 408.763636 
L 60.618555 410.830622 
L 57.030571 417.978947 
L 57.030571 418.581818 
L 54.747308 422.715789 
L 53.703531 425.127273 
L 52.203102 427.452632 
L 51.355033 429.605742 
L 49.137007 432.792344 
L 48.223702 435.031579 
L 45.353315 440.371292 
L 43.26576 443.385646 
L 39.28636 450.447847 
L 38.307819 451.653589 
L 37.394514 454.581818 
L 35.959321 457.16555 
L 35.502668 458.974163 
L 33.545586 462.677512 
L 31.914684 465.17512 
L 33.219406 466.380861 
L 34.785071 466.897608 
L 36.742154 468.361722 
L 39.808249 469.911962 
L 42.026275 471.63445 
L 45.549023 472.409569 
L 48.810826 474.132057 
L 51.681213 476.199043 
L 55.921558 478.09378 
L 57.943876 478.179904 
L 62.118984 480.160766 
L 63.358469 481.280383 
L 69.81684 485.586603 
L 70.208257 487.653589 
L 69.294952 489.548325 
L 66.750745 492.390431 
L 66.359329 495.232536 
L 63.880358 501.261244 
L 62.18422 506.514833 
L 59.640013 509.959809 
L 58.726709 512.457416 
L 58.139584 512.457416 
L 57.161043 514.782775 
L 55.660613 516.849761 
L 54.877781 518.916746 
L 52.659754 521.32823 
L 51.876921 522.792344 
L 48.74559 525.462201 
L 48.680354 528.045933 
L 45.679495 531.577033 
L 44.76619 533.041148 
L 42.482928 535.452632 
L 41.178206 535.02201 
L 40.069193 536.4 
L 39.351596 535.969378 
L 38.829708 533.47177 
L 36.155029 532.007656 
L 34.393655 530.285167 
L 31.849448 529.16555 
L 30.936143 527.873684 
L 29.240006 527.184689 
L 28.522409 526.151196 
L 25.391078 524.514833 
L 25.84773 523.825837 
L 27.543868 518.744498 
L 31.65374 511.337799 
L 34.719835 506.514833 
L 37.394514 501.002871 
L 38.177347 500.055502 
L 39.808249 496.266029 
L 40.852026 494.974163 
L 45.157606 486.878469 
L 48.354174 481.538756 
L 49.07177 479.385646 
L 50.24602 477.490909 
L 52.72499 472.409569 
L 55.073489 466.725359 
L 58.009112 462.591388 
L 59.770486 459.232536 
L 62.771345 455.01244 
L 63.749886 452.514833 
L 67.33787 446.572249 
L 69.229716 442.352153 
L 71.839158 439.251675 
L 73.404824 436.409569 
L 74.383365 433.136842 
L 76.340447 428.744498 
L 79.993667 422.715789 
L 81.624569 418.237321 
L 83.124998 416.687081 
L 86.191093 410.227751 
L 89.974785 404.801914 
L 90.692382 401.959809 
L 93.562769 398.600957 
L 95.324143 394.036364 
L 97.215989 391.280383 
L 99.955904 385.510048 
L 101.652041 383.184689 
L 103.804832 377.758852 
L 105.435733 375.519617 
L 105.631442 373.797129 
L 107.97994 370.696651 
L 108.762773 368.715789 
L 110.393675 366.476555 
L 112.350757 362.773206 
L 112.742173 360.878469 
L 113.916422 358.55311 
L 115.155908 357.088995 
L 119.26578 350.457416 
L 120.766209 346.926316 
L 122.136167 345.031579 
L 123.506124 341.586603 
L 127.159344 335.299522 
L 128.659774 333.404785 
L 129.246898 331.596172 
L 130.8778 329.873684 
L 131.269216 328.581818 
L 133.161062 325.567464 
L 134.791964 321.605742 
L 136.096686 320.830622 
L 136.879518 319.194258 
L 137.662351 316.09378 
L 139.749905 312.821053 
L 140.141322 311.615311 
L 141.641751 310.495694 
L 141.380807 309.117703 
L 143.076945 305.242105 
L 143.207417 302.572249 
L 144.120722 301.280383 
L 144.512138 298.696651 
L 146.012568 296.457416 
L 147.904414 291.892823 
L 149.600552 290.342584 
L 150.383384 288.964593 
L 150.448621 286.380861 
L 151.62287 283.538756 
L 151.94905 280.696651 
L 154.688965 278.026794 
L 155.471798 274.754067 
L 158.146477 271.998086 
L 158.537893 268.725359 
L 160.494975 267.950239 
L 161.016864 266.313876 
L 162.060641 265.452632 
L 162.843474 262.782775 
L 162.517293 261.663158 
L 163.430598 260.457416 
L 166.170513 258.218182 
L 166.953346 255.892823 
L 169.106136 254.514833 
L 170.345621 254.428708 
L 172.759356 251.414354 
L 173.737897 249.261244 
L 174.912146 248.658373 
L 175.760215 246.074641 
L 177.130172 243.232536 
L 178.304422 242.199043 
L 180.32674 237.289952 
L 181.631461 237.63445 
L 182.870947 234.964593 
L 183.197127 232.725359 
L 185.480389 230.227751 
L 185.80657 227.385646 
L 187.372235 225.490909 
L 187.176527 224.888038 
L 185.023737 224.112919 
L 184.63232 223.423923 
L 177.325881 219.978947 
L 176.608284 219.892823 
L 173.346481 217.739713 
L 171.976523 217.395215 
L 169.236608 215.672727 
L 167.605707 215.155981 
L 165.191972 213.433493 
L 160.429739 211.280383 
L 155.27609 207.921531 
L 155.080381 205.94067 
L 153.710424 202.667943 
L 154.10184 200.687081 
L 155.341326 199.222967 
L 158.537893 193.366507 
L 159.712142 189.490909 
L 161.864933 186.562679 
L 161.669224 184.323445 
L 159.90785 183.462201 
L 158.276949 181.998086 
L 155.863214 181.911962 
L 155.145617 181.050718 
L 151.427162 178.897608 
L 150.774801 179.155981 
L 149.665788 175.108134 
L 149.926732 170.371292 
L 149.731024 169.337799 
L 150.318148 165.203828 
L 150.187676 162.361722 
L 150.513857 160.380861 
L 149.926732 151.94067 
L 150.318148 150.218182 
L 149.79626 144.964593 
L 149.991968 142.294737 
L 150.644329 141.433493 
L 149.79626 140.572249 
L 150.12244 134.543541 
L 149.861496 129.462201 
L 150.318148 126.964593 
L 150.12244 121.711005 
L 152.079522 115.682297 
L 152.992827 114.562679 
L 154.558493 111.117703 
L 157.167936 107.414354 
L 158.276949 104.830622 
L 159.646906 103.711005 
L 162.778237 96.907177 
L 163.104418 95.615311 
L 165.191972 92.514833 
L 165.844333 90.70622 
L 167.801415 87.17512 
L 168.71472 86.227751 
L 170.802274 81.749282 
L 171.846051 80.629665 
L 173.281244 77.184689 
L 174.912146 75.117703 
L 176.34734 72.103349 
L 179.348199 66.849761 
L 180.457212 64.352153 
L 183.458071 59.443062 
L 186.589402 54.70622 
L 188.155068 51.347368 
L 190.894983 46.782775 
L 191.61258 44.543541 
L 193.047773 43.251675 
L 194.222022 43.94067 
L 197.092409 44.543541 
L 198.462367 45.835407 
L 201.789406 47.385646 
L 202.311295 48.160766 
L 208.378249 50.486124 
L 210.270095 50.830622 
L 215.228036 53.9311 
L 217.641771 54.878469 
L 217.641771 54.878469 
" clip-path="url(#p5ae2ca413d)" style="fill: none; stroke: #000000; stroke-width: 3"/>
   </g>
  </g>
 </g>
 <defs>
  <clipPath id="p5ae2ca413d">
   <rect x="7.2" y="7.2" width="400.203708" height="554.4"/>
  </clipPath>
 </defs>
</svg>
