<?xml version="1.0" encoding="utf-8" standalone="no"?>
<!DOCTYPE svg PUBLIC "-//W3C//DTD SVG 1.1//EN"
  "http://www.w3.org/Graphics/SVG/1.1/DTD/svg11.dtd">
<svg xmlns:xlink="http://www.w3.org/1999/xlink" width="572.4pt" height="483.914365pt" viewBox="0 0 572.4 483.914365" xmlns="http://www.w3.org/2000/svg" version="1.1">
 <metadata>
  <rdf:RDF xmlns:dc="http://purl.org/dc/elements/1.1/" xmlns:cc="http://creativecommons.org/ns#" xmlns:rdf="http://www.w3.org/1999/02/22-rdf-syntax-ns#">
   <cc:Work>
    <dc:type rdf:resource="http://purl.org/dc/dcmitype/StillImage"/>
    <dc:date>2023-09-25T14:14:09.344510</dc:date>
    <dc:format>image/svg+xml</dc:format>
    <dc:creator>
     <cc:Agent>
      <dc:title>Matplotlib v3.6.2, https://matplotlib.org/</dc:title>
     </cc:Agent>
    </dc:creator>
   </cc:Work>
  </rdf:RDF>
 </metadata>
 <defs>
  <style type="text/css">*{stroke-linejoin: round; stroke-linecap: butt}</style>
 </defs>
 <g id="figure_1">
  <g id="patch_1">
   <path d="M 0 483.914365 
L 572.4 483.914365 
L 572.4 0 
L 0 0 
z
" style="fill: #ffffff"/>
  </g>
  <g id="axes_1">
   <g id="LineCollection_1">
    <path d="M 214.624781 331.488957 
L 209.914537 329.595536 
L 203.361155 324.45625 
L 192.09753 319.046475 
L 186.9777 314.448166 
L 181.857871 312.284256 
L 165.884002 302.81715 
L 160.968965 300.923729 
L 148.271788 291.9976 
L 136.803369 287.940269 
L 124.106192 277.932185 
L 118.167189 276.309253 
L 110.589841 271.169967 
L 101.169354 268.735568 
L 90.724902 260.891394 
L 83.147554 258.186507 
L 63.282615 245.744025 
L 54.476508 238.17034 
L 32.563636 228.162256 
L 39.731398 214.36733 
L 44.646434 214.637819 
L 60.005924 223.02297 
L 76.594172 229.785189 
L 85.400279 234.383497 
L 89.496143 240.875227 
L 100.964561 244.66207 
L 114.480912 254.670153 
L 131.683539 261.973349 
L 138.032128 266.301169 
L 144.380717 268.735568 
L 164.245656 280.366584 
L 173.666143 293.079555 
L 186.158528 297.948353 
L 190.663978 297.407375 
L 198.241326 300.382751 
L 203.156362 300.112263 
L 204.999501 304.440082 
L 213.805608 309.579369 
L 224.045267 313.6367 
L 226.912372 316.612076 
L 239.814343 322.833317 
L 245.343759 322.833317 
L 255.788212 329.325047 
L 261.112834 330.407002 
L 262.1368 336.357754 
L 267.051837 333.382378 
L 270.123735 329.054558 
L 272.581253 319.316964 
L 269.304562 315.80061 
L 261.727214 312.013767 
L 258.860109 309.038391 
L 251.897141 306.063015 
L 249.439623 301.735195 
L 228.755511 290.915645 
L 219.539817 284.694404 
L 210.324124 281.17805 
L 202.746776 275.497787 
L 190.254391 268.465079 
L 186.9777 269.276546 
L 178.785973 265.489703 
L 172.027798 260.350417 
L 163.426484 256.834063 
L 158.921034 251.694777 
L 153.186824 249.260378 
L 146.019063 243.039137 
L 137.827335 241.145716 
L 123.287019 233.031054 
L 118.781569 228.703234 
L 109.156289 223.02297 
L 90.520109 215.178796 
L 79.05169 208.957555 
L 51.609403 192.187253 
L 52.018989 189.211877 
L 59.596337 179.203793 
L 66.559306 179.474282 
L 75.570206 185.154546 
L 81.099622 186.777478 
L 83.761933 189.752854 
L 100.145388 198.949472 
L 102.8077 198.138005 
L 107.92753 201.113382 
L 130.45478 211.662443 
L 132.093126 217.342706 
L 137.827335 217.883684 
L 146.838235 224.645903 
L 160.354586 226.539324 
L 163.22169 233.031054 
L 167.727141 232.490076 
L 169.160693 235.194964 
L 177.762007 238.17034 
L 188.616046 245.203047 
L 196.193394 252.506243 
L 211.552883 260.350417 
L 215.648747 260.620906 
L 224.659647 265.760192 
L 225.683613 269.006057 
L 237.356825 273.333877 
L 240.428722 277.391208 
L 248.415657 283.882938 
L 255.993005 286.587825 
L 256.607384 288.481247 
L 269.304562 293.620533 
L 273.400426 297.677864 
L 282.820912 302.005684 
L 288.350328 297.407375 
L 292.650985 285.50587 
L 279.339428 274.68632 
L 270.328528 268.465079 
L 266.437457 263.866771 
L 260.293662 263.055304 
L 250.054002 255.752108 
L 244.524586 254.129176 
L 239.199963 250.071845 
L 233.670547 248.178423 
L 229.98427 244.121092 
L 213.191228 236.276919 
L 194.964635 225.727858 
L 181.448284 218.965639 
L 181.857871 220.318083 
L 170.594245 214.36733 
L 164.040863 209.228044 
L 157.077895 205.982179 
L 147.657408 199.21996 
L 138.441715 196.785562 
L 118.371982 183.531613 
L 108.337116 178.121838 
L 99.531009 174.605485 
L 92.158454 168.654732 
L 78.846897 161.081047 
L 81.304415 157.294205 
L 94.411179 152.695896 
L 111.613807 159.728604 
L 120.624707 167.302288 
L 126.768503 166.220334 
L 126.973296 168.384243 
L 135.57461 171.089131 
L 143.356751 181.367703 
L 148.681374 183.261124 
L 151.548479 186.506989 
L 159.125827 187.588944 
L 164.45045 190.834809 
L 169.160693 189.482366 
L 175.304489 190.834809 
L 181.038698 195.433118 
L 188.411253 204.359247 
L 195.988601 208.146089 
L 203.770742 215.449285 
L 220.35899 221.941015 
L 229.98427 223.293459 
L 237.152031 229.244211 
L 243.295827 231.67861 
L 243.091034 233.84252 
L 258.655316 242.768649 
L 262.341594 252.506243 
L 266.847044 259.809439 
L 272.37646 261.161883 
L 279.544221 258.456996 
L 287.121569 258.186507 
L 287.735949 259.809439 
L 300.842713 259.809439 
L 304.733784 263.866771 
L 307.600888 262.243838 
L 311.287166 252.235755 
L 305.962543 246.285002 
L 289.169501 237.629362 
L 271.966873 227.891768 
L 263.36556 224.375414 
L 252.511521 217.072218 
L 238.380791 208.957555 
L 223.635681 197.326539 
L 211.757676 191.375787 
L 206.433053 189.752854 
L 192.302323 181.097215 
L 185.544148 174.875973 
L 179.605146 173.253041 
L 174.690109 170.007176 
L 170.184659 170.277665 
L 157.282688 163.785935 
L 139.670474 150.531986 
L 131.478746 148.368076 
L 113.456946 136.196083 
L 109.975462 132.40924 
L 113.047359 125.91751 
L 118.986362 121.048713 
L 129.635608 124.294578 
L 135.984196 129.163375 
L 143.561544 130.24533 
L 147.452615 136.466572 
L 159.740206 140.523903 
L 161.173759 139.982925 
L 171.618211 144.310745 
L 175.304489 150.531986 
L 185.953734 155.400784 
L 193.531082 155.671272 
L 200.289258 159.187626 
L 205.61388 166.490822 
L 216.877506 171.089131 
L 225.47882 177.85135 
L 235.718479 181.638192 
L 242.067068 191.105298 
L 249.23483 197.867517 
L 255.173832 201.38387 
L 260.088868 199.760938 
L 267.051837 204.629735 
L 279.339428 207.334623 
L 286.916776 212.20342 
L 294.698917 211.932932 
L 302.481058 213.555864 
L 312.515925 221.670526 
L 315.383029 226.268835 
L 322.141205 230.596655 
L 326.237068 228.162256 
L 329.104173 215.719774 
L 317.021375 207.8756 
L 312.925511 206.252668 
L 299.818747 196.785562 
L 295.51809 195.703607 
L 289.579088 189.482366 
L 275.653151 181.097215 
L 260.908041 174.334996 
L 255.583418 170.277665 
L 251.897141 170.007176 
L 233.87534 158.105671 
L 225.888406 156.482739 
L 217.082299 148.638565 
L 212.167262 148.368076 
L 203.975535 144.851723 
L 194.555048 134.57315 
L 186.9777 133.491195 
L 177.557214 129.433864 
L 168.34152 123.212623 
L 164.245656 118.073337 
L 153.801204 115.638938 
L 149.500547 111.311118 
L 140.69444 105.360366 
L 135.57461 103.466945 
L 123.901398 96.975215 
L 124.310985 89.131041 
L 127.178089 81.286867 
L 136.598576 82.368822 
L 147.247822 89.40153 
L 155.234756 90.753974 
L 157.487481 94.270327 
L 162.812104 96.163748 
L 164.655243 101.032546 
L 170.799038 101.573523 
L 181.038698 107.524276 
L 189.230425 110.770141 
L 192.71191 117.532359 
L 199.879671 119.425781 
L 205.818674 118.073337 
L 215.648747 123.483112 
L 220.563783 128.892887 
L 220.768576 132.679729 
L 228.345924 136.196083 
L 238.380791 136.196083 
L 239.404756 140.523903 
L 246.982104 143.22879 
L 249.849209 147.55661 
L 255.583418 148.909054 
L 263.36556 154.859806 
L 274.629185 159.728604 
L 278.520255 165.408867 
L 287.326363 169.466198 
L 291.627019 174.875973 
L 295.313297 175.416951 
L 304.938577 181.638192 
L 308.010475 180.826726 
L 322.141205 185.154546 
L 329.104173 185.154546 
L 332.995244 187.859433 
L 343.849282 191.646276 
L 347.53556 183.261124 
L 346.511594 180.01526 
L 328.89938 168.113755 
L 317.635754 162.433491 
L 313.744684 158.37616 
L 300.842713 150.531986 
L 290.807847 147.827099 
L 283.640085 142.958301 
L 272.990839 137.819015 
L 261.317628 131.056797 
L 252.511521 122.942134 
L 242.886241 120.778224 
L 237.356825 116.991382 
L 234.48972 118.343826 
L 219.539817 106.983298 
L 210.324124 102.114501 
L 208.071399 102.655478 
L 200.494051 98.868636 
L 189.844805 91.56544 
L 180.833905 83.721266 
L 153.596411 73.172205 
L 143.151958 64.516565 
L 134.755437 61.811678 
L 136.18899 59.377279 
L 155.029963 44.229909 
L 162.197725 37.738179 
L 161.583345 28.541562 
L 145.609476 34.492314 
L 144.995097 38.279157 
L 153.801204 43.959421 
L 155.644342 49.098707 
L 176.942834 56.672392 
L 182.881837 61.811678 
L 185.953734 68.573896 
L 196.60298 73.172205 
L 199.470085 76.41807 
L 203.770742 76.688559 
L 214.624781 84.532732 
L 224.659647 87.778597 
L 229.98427 91.024462 
L 239.814343 94.811305 
L 241.657482 98.598147 
L 248.415657 102.114501 
L 253.945073 106.712809 
L 262.955973 111.040629 
L 267.87101 111.311118 
L 276.062737 117.261871 
L 285.278431 120.237247 
L 297.975608 128.08142 
L 302.481058 133.491195 
L 311.287166 138.089504 
L 335.452762 147.55661 
L 341.801351 148.909054 
L 355.727287 158.646649 
L 357.16084 165.408867 
L 371.701156 167.302288 
L 387.675025 162.974469 
L 397.709891 162.70398 
L 410.611862 166.761311 
L 416.755658 172.171086 
L 423.718626 176.228417 
L 438.463735 188.400411 
L 445.017117 195.703607 
L 460.376607 204.359247 
L 473.073784 206.793645 
L 485.156582 211.121465 
L 517.513906 228.432745 
L 526.7296 238.17034 
L 531.030257 249.530867 
L 532.054222 256.834063 
L 539.836364 268.735568 
L 523.862495 295.513954 
L 518.537872 308.497414 
L 514.851595 314.177677 
L 505.021522 333.652867 
L 499.082519 342.849484 
L 483.313444 373.95569 
L 469.797093 396.406256 
L 462.424538 411.824114 
L 460.990986 412.635581 
L 451.980086 427.78295 
L 441.740426 447.25814 
L 436.006217 455.372803 
L 426.995317 450.774494 
L 407.744757 443.200809 
L 394.4332 434.545169 
L 388.289404 420.750243 
L 384.193541 404.25043 
L 380.712056 396.406256 
L 374.158674 388.832571 
L 361.871083 382.61133 
L 346.511594 377.201555 
L 338.934246 373.685201 
L 325.622689 369.086893 
L 310.877579 360.160764 
L 306.986509 359.078809 
L 302.071472 352.857568 
L 297.361229 349.611703 
L 281.182567 342.849484 
L 264.389525 337.169221 
L 254.969039 352.857568 
L 251.487555 352.857568 
L 239.404756 344.742906 
L 224.454854 333.652867 
L 219.949404 331.488957 
L 219.949404 331.488957 
" clip-path="url(#p180d239125)" style="fill: none; stroke: #000000; stroke-width: 3"/>
   </g>
  </g>
 </g>
 <defs>
  <clipPath id="p180d239125">
   <rect x="7.2" y="7.2" width="558" height="469.514365"/>
  </clipPath>
 </defs>
</svg>
