<?xml version="1.0" encoding="utf-8" standalone="no"?>
<!DOCTYPE svg PUBLIC "-//W3C//DTD SVG 1.1//EN"
  "http://www.w3.org/Graphics/SVG/1.1/DTD/svg11.dtd">
<svg xmlns:xlink="http://www.w3.org/1999/xlink" width="465.85436pt" height="568.8pt" viewBox="0 0 465.85436 568.8" xmlns="http://www.w3.org/2000/svg" version="1.1">
 <metadata>
  <rdf:RDF xmlns:dc="http://purl.org/dc/elements/1.1/" xmlns:cc="http://creativecommons.org/ns#" xmlns:rdf="http://www.w3.org/1999/02/22-rdf-syntax-ns#">
   <cc:Work>
    <dc:type rdf:resource="http://purl.org/dc/dcmitype/StillImage"/>
    <dc:date>2023-09-25T14:14:09.149647</dc:date>
    <dc:format>image/svg+xml</dc:format>
    <dc:creator>
     <cc:Agent>
      <dc:title>Matplotlib v3.6.2, https://matplotlib.org/</dc:title>
     </cc:Agent>
    </dc:creator>
   </cc:Work>
  </rdf:RDF>
 </metadata>
 <defs>
  <style type="text/css">*{stroke-linejoin: round; stroke-linecap: butt}</style>
 </defs>
 <g id="figure_1">
  <g id="patch_1">
   <path d="M 0 568.8 
L 465.85436 568.8 
L 465.85436 0 
L 0 0 
z
" style="fill: #ffffff"/>
  </g>
  <g id="axes_1">
   <g id="LineCollection_1">
    <path d="M 27.720653 41.049886 
L 32.097225 40.473227 
L 33.410197 41.48238 
L 33.629025 49.267277 
L 30.784253 49.843936 
L 31.987811 55.178032 
L 34.285511 90.786728 
L 34.723168 93.093364 
L 35.707897 108.230664 
L 36.692626 113.708924 
L 38.552669 144.992677 
L 39.756226 154.651716 
L 49.056442 166.617391 
L 50.916485 164.599085 
L 50.041171 158.4 
L 49.822342 142.974371 
L 47.852885 116.880549 
L 46.649327 106.212357 
L 46.649327 103.329062 
L 45.44577 88.480092 
L 45.008113 86.60595 
L 43.804555 66.567048 
L 42.600998 52.583066 
L 41.616269 47.104805 
L 41.288026 41.914874 
L 42.382169 39.752403 
L 51.463557 39.464073 
L 52.229457 44.077346 
L 53.651843 62.530435 
L 55.183643 77.379405 
L 56.168372 92.37254 
L 57.590758 107.798169 
L 57.700172 113.708924 
L 58.575486 119.763844 
L 59.122558 131.585355 
L 60.763773 148.308467 
L 61.96733 166.905721 
L 63.608544 182.475515 
L 64.155616 184.782151 
L 72.14286 194.729519 
L 74.440561 196.459497 
L 74.549975 189.395423 
L 73.67466 180.745538 
L 73.346418 172.383982 
L 72.361689 160.850801 
L 70.61106 145.569336 
L 70.392231 138.505263 
L 69.735745 133.171167 
L 68.532188 115.871396 
L 66.890974 95.11167 
L 66.234488 91.075057 
L 66.234488 84.155149 
L 65.687416 79.830206 
L 63.49913 54.024714 
L 62.73323 51.141419 
L 62.295573 39.464073 
L 65.468588 37.878261 
L 71.924032 37.589931 
L 72.689932 39.752403 
L 73.893489 53.59222 
L 74.549975 65.702059 
L 75.862947 77.091076 
L 76.847675 89.921739 
L 77.832404 97.274142 
L 78.051233 104.914874 
L 78.817133 110.681465 
L 78.817133 116.30389 
L 80.78659 134.324485 
L 81.224247 144.848513 
L 82.646633 157.967506 
L 83.303119 171.374828 
L 85.381991 185.791304 
L 86.36672 210.443478 
L 89.102077 215.777574 
L 93.806892 220.679176 
L 95.448107 223.850801 
L 98.402293 225.436613 
L 97.636393 217.075057 
L 97.526979 203.956064 
L 95.77635 191.557895 
L 95.666936 185.64714 
L 94.24455 170.50984 
L 93.478649 158.255835 
L 92.603335 150.038444 
L 93.478649 148.020137 
L 102.122379 147.875973 
L 102.778865 148.740961 
L 102.778865 154.651716 
L 103.873008 161.283295 
L 103.982423 166.184897 
L 104.967151 172.095652 
L 105.514223 183.772998 
L 106.936609 197.46865 
L 108.249581 216.065904 
L 108.249581 221.4 
L 109.015481 230.19405 
L 110.000209 236.393135 
L 108.468409 239.420595 
L 106.389537 237.113959 
L 103.544765 235.816476 
L 98.183465 231.203204 
L 93.369235 231.491533 
L 89.211492 232.789016 
L 88.117349 234.663158 
L 89.320906 247.637986 
L 90.524463 249.367963 
L 97.30815 248.502975 
L 109.453138 246.196339 
L 111.53201 245.33135 
L 112.844981 242.736384 
L 118.972182 242.015561 
L 121.160468 240.429748 
L 119.738082 225.869108 
L 118.643939 207.560183 
L 117.987454 203.379405 
L 116.12741 179.448055 
L 115.252096 176.853089 
L 115.252096 171.230664 
L 114.59561 168.635698 
L 114.705024 161.42746 
L 113.610881 153.354233 
L 113.06381 144.848513 
L 112.29791 138.937757 
L 114.267367 138.216934 
L 123.23934 136.775286 
L 125.208798 135.477803 
L 126.850012 144.560183 
L 123.567583 145.713501 
L 124.114655 149.173455 
L 125.974698 171.374828 
L 127.834741 186.800458 
L 128.600641 200.784439 
L 129.804198 217.507551 
L 130.788927 226.013272 
L 131.335999 227.45492 
L 139.651486 226.878261 
L 140.855043 223.418307 
L 139.213829 211.885126 
L 137.900857 197.324485 
L 138.010271 190.260412 
L 136.6973 181.322197 
L 136.6973 175.988101 
L 135.931399 166.040732 
L 134.946671 158.832494 
L 133.961942 140.811899 
L 136.478471 139.802746 
L 136.369057 136.486957 
L 133.852528 135.477803 
L 132.320727 129.422883 
L 130.898341 128.1254 
L 122.47344 128.702059 
L 117.659211 127.837071 
L 102.778865 128.846224 
L 98.402293 129.567048 
L 93.040992 129.711213 
L 92.275092 127.692906 
L 91.837435 122.214645 
L 90.19622 112.123112 
L 88.445591 111.402288 
L 89.43032 109.672311 
L 87.89852 96.409153 
L 87.460863 86.31762 
L 85.819648 74.640275 
L 86.038477 72.910297 
L 85.381991 61.377117 
L 84.506677 50.997254 
L 83.740776 37.157437 
L 85.163162 36.148284 
L 92.603335 35.571625 
L 93.697478 39.319908 
L 95.448107 54.745538 
L 95.666936 63.251259 
L 96.761079 74.063616 
L 97.417564 84.010984 
L 98.511707 92.084211 
L 98.511707 96.985812 
L 99.387022 109.239817 
L 100.481165 110.825629 
L 100.152922 115.150572 
L 98.402293 116.015561 
L 98.730536 122.502975 
L 102.88828 122.070481 
L 108.796652 122.214645 
L 110.766109 117.457208 
L 109.781381 111.546453 
L 110.219038 110.393135 
L 109.671966 101.743249 
L 109.671966 95.4 
L 108.358995 77.667735 
L 107.155437 71.18032 
L 106.170709 57.628833 
L 105.623637 44.942334 
L 104.529494 35.42746 
L 106.827195 34.274142 
L 113.392053 33.697483 
L 115.033267 34.562471 
L 115.580339 43.644851 
L 116.346239 48.978947 
L 116.565068 56.33135 
L 118.534525 76.370252 
L 118.972182 88.624256 
L 120.503983 100.878261 
L 121.488711 117.313043 
L 124.442898 118.466362 
L 131.88307 116.59222 
L 131.992484 112.123112 
L 130.570099 101.310755 
L 129.804198 85.596796 
L 128.381812 73.631121 
L 127.944155 66.278719 
L 126.850012 57.628833 
L 126.850012 52.727231 
L 125.646455 36.004119 
L 126.302941 33.264989 
L 134.399599 32.4 
L 135.821985 33.697483 
L 136.916128 48.258124 
L 137.134957 55.322197 
L 138.995 72.910297 
L 140.198557 93.093364 
L 140.964457 97.850801 
L 142.168015 109.816476 
L 142.277429 116.736384 
L 143.262158 125.6746 
L 144.356301 140.956064 
L 145.012787 144.848513 
L 145.012787 149.750114 
L 147.091658 171.086499 
L 148.185801 186.512128 
L 148.732873 190.404577 
L 149.17053 199.342792 
L 150.155259 206.118535 
L 150.811745 225.004119 
L 152.781202 226.157437 
L 161.096689 225.004119 
L 162.081418 222.264989 
L 160.659032 204.388558 
L 159.127232 192.567048 
L 158.798989 183.917162 
L 157.157774 169.644851 
L 156.829532 157.679176 
L 155.844803 145.569336 
L 155.297731 135.189474 
L 153.547102 119.187185 
L 152.452959 102.608238 
L 151.796474 98.283295 
L 151.577645 91.651716 
L 150.155259 74.49611 
L 149.279945 68.44119 
L 148.295216 56.33135 
L 147.748144 45.086499 
L 148.732873 43.644851 
L 156.173046 43.212357 
L 157.486017 43.933181 
L 158.033089 51.862243 
L 159.455475 63.683753 
L 160.221375 78.100229 
L 161.753175 93.670023 
L 162.847318 109.383982 
L 163.722633 115.871396 
L 166.45799 151.191762 
L 166.676819 157.823341 
L 167.880376 172.095652 
L 168.427448 181.322197 
L 170.943977 204.244394 
L 171.600463 216.786728 
L 172.366363 222.985812 
L 173.788749 224.283295 
L 181.994821 222.985812 
L 182.870136 221.68833 
L 181.994821 213.759268 
L 181.44775 204.821053 
L 180.463021 196.027002 
L 179.697121 184.349657 
L 178.493564 173.5373 
L 175.758206 137.640275 
L 174.33582 122.935469 
L 173.679334 110.5373 
L 172.147534 97.562471 
L 171.819291 88.912586 
L 171.053391 78.676888 
L 169.959248 69.017849 
L 168.974519 52.294737 
L 168.208619 45.230664 
L 168.974519 42.491533 
L 177.180592 42.059039 
L 178.274735 43.212357 
L 178.931221 56.33135 
L 179.697121 62.242105 
L 181.557164 84.443478 
L 181.119507 84.731808 
L 182.432479 95.4 
L 183.198379 106.356522 
L 184.401936 118.178032 
L 185.605493 135.045309 
L 187.79378 159.841648 
L 188.669094 173.393135 
L 189.434994 181.322197 
L 189.763237 189.683753 
L 191.076209 201.361098 
L 191.404452 207.127689 
L 193.264495 222.553318 
L 200.485839 221.544165 
L 202.236468 220.390847 
L 202.892954 214.768421 
L 202.127053 198.189474 
L 201.361153 187.953776 
L 200.157596 182.61968 
L 200.157596 175.267277 
L 197.750481 147.875973 
L 195.562195 120.052174 
L 193.702152 99.724943 
L 193.483323 93.525858 
L 192.060937 80.2627 
L 190.419723 54.745538 
L 189.434994 43.068192 
L 190.529137 41.338215 
L 198.078724 41.049886 
L 199.391696 41.626545 
L 201.79881 68.15286 
L 202.455296 78.821053 
L 204.096511 97.994966 
L 204.752997 110.825629 
L 205.628311 118.610526 
L 205.518897 122.64714 
L 206.722454 132.450343 
L 208.035426 149.029291 
L 208.14484 155.516705 
L 209.348397 161.42746 
L 210.223712 172.528146 
L 211.646098 186.656293 
L 212.740241 187.232952 
L 220.289828 186.367963 
L 221.493385 184.637986 
L 220.070999 170.798169 
L 220.180414 167.48238 
L 219.305099 156.525858 
L 219.961585 154.651716 
L 224.119328 152.63341 
L 223.462843 146.001831 
L 223.244014 138.649428 
L 222.259285 134.18032 
L 222.3687 129.711213 
L 221.712214 121.205492 
L 217.226227 120.484668 
L 216.569742 119.475515 
L 215.147356 106.789016 
L 214.272041 91.795881 
L 213.177898 82.857666 
L 211.974341 65.557895 
L 211.208441 58.782151 
L 210.114298 40.473227 
L 215.366184 39.752403 
L 219.633342 40.040732 
L 220.508656 41.338215 
L 220.399242 45.374828 
L 222.040457 60.223799 
L 222.696943 73.054462 
L 223.572257 80.2627 
L 224.009914 88.912586 
L 224.6664 92.084211 
L 225.104057 103.473227 
L 226.417029 116.59222 
L 226.307615 119.763844 
L 227.292343 124.521281 
L 232.106573 124.953776 
L 233.528959 137.351945 
L 233.528959 141.532723 
L 234.513687 151.912586 
L 231.121844 152.921739 
L 229.918287 154.795881 
L 230.684187 161.283295 
L 230.24653 165.464073 
L 231.450087 177.141419 
L 231.77833 185.35881 
L 241.078546 184.926316 
L 242.938589 182.475515 
L 241.735031 170.22151 
L 240.750303 162.869108 
L 240.312645 152.056751 
L 239.874988 149.60595 
L 238.562017 132.017849 
L 238.014945 128.557895 
L 237.577288 118.466362 
L 236.154902 106.933181 
L 235.279588 95.976659 
L 234.404273 78.965217 
L 232.54423 60.367963 
L 232.106573 53.59222 
L 233.200716 52.150572 
L 241.95386 51.429748 
L 242.391517 52.727231 
L 242.938589 62.242105 
L 243.704489 67.287872 
L 243.813903 73.486957 
L 245.126875 86.461785 
L 247.096332 110.5373 
L 247.643404 113.56476 
L 247.315161 118.322197 
L 247.862232 120.196339 
L 249.06579 134.901144 
L 249.83169 148.020137 
L 250.378761 150.903432 
L 259.678977 150.470938 
L 260.77312 149.029291 
L 260.663706 143.2627 
L 258.037763 110.825629 
L 257.053034 96.409153 
L 255.958891 85.164302 
L 256.615377 84.010984 
L 265.368521 83.001831 
L 267.009736 91.651716 
L 267.556807 101.310755 
L 269.088607 121.205492 
L 271.495722 146.722654 
L 272.808694 149.60595 
L 281.561838 148.740961 
L 281.671252 145.569336 
L 279.482966 122.791304 
L 279.482966 119.33135 
L 277.29468 94.535011 
L 276.309952 84.875973 
L 277.841752 82.136842 
L 286.376067 81.416018 
L 286.923139 83.001831 
L 289.002011 107.077346 
L 289.549082 118.466362 
L 290.314982 123.944622 
L 291.080883 134.901144 
L 292.065611 143.55103 
L 291.956197 146.866819 
L 296.004526 148.020137 
L 302.45997 147.299314 
L 304.429428 146.145995 
L 303.335285 140.667735 
L 302.569384 133.027002 
L 302.350556 126.539588 
L 301.584656 120.340503 
L 296.661012 119.475515 
L 296.770426 114.862243 
L 300.818756 113.56476 
L 301.256413 112.411442 
L 299.068127 89.489245 
L 298.521055 81.992677 
L 299.615198 80.118535 
L 306.727128 79.541876 
L 308.696586 79.830206 
L 309.462486 88.480092 
L 309.462486 93.381693 
L 312.088429 121.782151 
L 312.088429 124.953776 
L 313.291986 138.216934 
L 314.057886 138.937757 
L 319.74743 136.054462 
L 322.263959 134.036156 
L 322.701616 138.505263 
L 321.826302 141.100229 
L 323.358102 141.676888 
L 324.56166 145.425172 
L 328.828817 146.145995 
L 330.907689 145.425172 
L 340.098491 139.370252 
L 348.632807 133.315332 
L 353.228207 130.720366 
L 354.541179 130.864531 
L 355.416493 136.198627 
L 357.057708 158.832494 
L 358.37068 171.807323 
L 360.558966 173.393135 
L 368.436796 167.770709 
L 367.670895 158.4 
L 367.889724 153.786728 
L 367.342652 150.470938 
L 366.357924 134.901144 
L 369.530939 132.017849 
L 370.625082 132.162014 
L 372.37571 147.587643 
L 372.37571 153.210069 
L 373.579268 162.004119 
L 376.42404 162.580778 
L 379.049983 161.42746 
L 381.675926 166.040732 
L 383.754798 168.059039 
L 377.080526 170.22151 
L 374.454582 171.951487 
L 372.485125 175.555606 
L 369.093281 178.727231 
L 367.01441 182.61968 
L 362.96608 183.052174 
L 360.011894 186.800458 
L 360.121308 195.594508 
L 360.887209 198.189474 
L 365.592024 198.333638 
L 367.01441 199.198627 
L 369.202696 197.756979 
L 373.032196 200.351945 
L 376.42404 197.324485 
L 375.001654 193.432037 
L 372.37571 190.692906 
L 372.485125 185.35881 
L 373.907511 182.475515 
L 380.144126 181.754691 
L 381.894755 194.873684 
L 382.660655 195.594508 
L 386.927813 195.306178 
L 388.021956 194.44119 
L 386.380741 186.223799 
L 386.490156 182.475515 
L 387.693713 180.745538 
L 391.085556 180.457208 
L 394.696229 181.898856 
L 401.261087 181.610526 
L 402.245815 197.036156 
L 402.245815 200.928604 
L 403.558787 215.63341 
L 403.449373 219.237529 
L 404.215273 228.175744 
L 405.090587 232.212357 
L 405.200002 238.699771 
L 406.731802 255.855378 
L 407.716531 259.603661 
L 420.40859 267.388558 
L 425.988719 269.983524 
L 434.413621 275.029291 
L 434.960692 276.326773 
L 431.459435 282.381693 
L 429.927634 283.679176 
L 427.739348 282.814188 
L 419.861518 277.624256 
L 411.76486 272.722654 
L 408.591845 274.596796 
L 408.591845 279.354233 
L 410.451888 284.832494 
L 419.64269 290.45492 
L 423.034533 292.040732 
L 424.128676 294.347368 
L 418.220304 300.402288 
L 414.500218 303.285584 
L 412.968417 306.745538 
L 413.077832 313.953776 
L 413.624903 320.15286 
L 414.609632 320.729519 
L 422.159219 314.818764 
L 429.161734 308.33135 
L 434.632449 314.6746 
L 437.148978 315.827918 
L 438.133707 318.134554 
L 427.629934 327.793593 
L 420.518004 333.416018 
L 413.953146 340.768421 
L 414.609632 345.381693 
L 420.627419 353.599085 
L 429.599391 363.834783 
L 429.708806 366.573913 
L 423.581605 371.475515 
L 418.439132 376.521281 
L 419.64269 382.287872 
L 417.673232 386.46865 
L 418.657961 404.200915 
L 419.64269 417.752403 
L 418.439132 418.761556 
L 410.014231 420.203204 
L 408.154188 409.102517 
L 408.591845 407.084211 
L 407.388288 400.020137 
L 405.747073 369.024714 
L 404.543516 363.834783 
L 403.668201 349.418307 
L 403.12113 347.11167 
L 403.230544 340.768421 
L 401.58933 321.594508 
L 400.82343 315.972082 
L 400.604601 306.601373 
L 399.401044 295.644851 
L 399.182215 290.16659 
L 397.869243 279.786728 
L 397.869243 272.722654 
L 395.462129 247.493822 
L 394.805643 243.024714 
L 394.805643 234.374828 
L 393.7115 225.724943 
L 393.273843 213.326773 
L 391.413799 201.793593 
L 389.991413 201.505263 
L 385.943084 205.830206 
L 382.441826 208.713501 
L 382.660655 217.219222 
L 383.535969 226.013272 
L 384.520698 240.573913 
L 383.973627 243.168879 
L 385.06777 246.340503 
L 386.490156 266.23524 
L 387.584299 277.047597 
L 388.021956 285.697483 
L 388.678442 289.301602 
L 389.444342 303.429748 
L 390.210242 309.196339 
L 391.851457 327.216934 
L 392.1797 334.569336 
L 392.9456 340.768421 
L 394.367986 365.132265 
L 395.133886 371.908009 
L 395.899786 383.15286 
L 397.541 398.57849 
L 398.525729 410.976659 
L 399.072801 421.644851 
L 400.604601 439.232952 
L 401.151672 442.116247 
L 401.58933 451.775286 
L 403.011716 468.498398 
L 401.917573 471.093364 
L 396.0092 476.283295 
L 394.149157 476.859954 
L 393.273843 472.823341 
L 392.398528 465.038444 
L 392.289114 460.281007 
L 391.413799 454.370252 
L 390.757314 443.990389 
L 391.085556 441.683753 
L 390.210242 435.196339 
L 388.021956 409.823341 
L 388.13137 407.516705 
L 386.380741 388.919451 
L 386.271327 384.162014 
L 385.396013 376.232952 
L 384.739527 364.988101 
L 383.973627 362.681465 
L 382.988898 350.715789 
L 382.879484 345.093364 
L 381.01944 320.729519 
L 380.25354 314.818764 
L 379.597055 300.546453 
L 377.846426 282.670023 
L 377.737011 275.894279 
L 376.971111 273.875973 
L 376.861697 267.388558 
L 375.548725 253.404577 
L 374.673411 249.800458 
L 374.454582 240.573913 
L 372.703953 221.255835 
L 372.156882 211.452632 
L 370.406253 209.001831 
L 364.279052 209.29016 
L 362.20018 210.155149 
L 362.090766 220.246682 
L 363.403738 240.141419 
L 364.497881 251.818764 
L 364.826124 258.594508 
L 366.139095 271.713501 
L 366.686167 280.363387 
L 368.54621 299.825629 
L 368.983867 311.070481 
L 370.07801 320.15286 
L 371.500396 337.164302 
L 372.922782 356.626545 
L 372.922782 361.528146 
L 374.016925 369.745538 
L 375.767554 394.109382 
L 376.642868 403.047597 
L 377.408768 415.301602 
L 379.706469 439.665446 
L 380.144126 447.594508 
L 381.128855 456.388558 
L 382.332412 475.274142 
L 383.426555 485.365675 
L 383.098312 486.807323 
L 376.42404 492.862243 
L 374.563997 493.727231 
L 373.907511 490.555606 
L 369.859181 446.729519 
L 370.07801 444.711213 
L 367.342652 415.878261 
L 367.670895 410.4 
L 366.029681 399.155149 
L 365.154366 387.621968 
L 363.950809 377.242105 
L 363.075495 363.546453 
L 362.96608 358.068192 
L 361.981352 343.940046 
L 360.449551 327.937757 
L 360.121308 320.297025 
L 358.151851 303.429748 
L 356.948294 287.42746 
L 356.182393 280.219222 
L 355.416493 262.198627 
L 353.994107 255.134554 
L 353.228207 246.772998 
L 353.447036 242.736384 
L 352.352893 232.789016 
L 352.243479 228.608238 
L 350.821093 212.461785 
L 349.72695 194.297025 
L 348.195149 180.024714 
L 348.195149 174.834783 
L 345.897449 151.624256 
L 345.131549 150.615103 
L 337.03489 154.651716 
L 336.159576 155.949199 
L 337.472547 172.095652 
L 337.472547 175.843936 
L 338.785519 186.367963 
L 339.223176 195.306178 
L 339.879662 198.621968 
L 340.754977 210.010984 
L 340.536148 211.308467 
L 342.724434 236.825629 
L 343.271506 239.132265 
L 343.599749 247.349657 
L 345.022134 262.342792 
L 344.803306 265.081922 
L 345.350377 273.443478 
L 346.225692 277.191762 
L 346.772763 288.724943 
L 348.851635 310.349657 
L 351.696407 347.4 
L 352.571721 361.960641 
L 354.760008 387.910297 
L 355.416493 398.866819 
L 356.291808 406.651716 
L 357.933022 426.690618 
L 358.589508 436.782151 
L 360.449551 458.406865 
L 360.996623 461.866819 
L 361.762523 472.823341 
L 361.543694 475.994966 
L 362.528423 479.310755 
L 362.856666 487.960641 
L 364.060223 502.521281 
L 363.622566 503.6746 
L 355.854151 510.162014 
L 354.212936 509.008696 
L 353.55645 496.322197 
L 352.79055 492.429748 
L 350.49285 459.848513 
L 348.523392 441.107094 
L 347.866906 426.978947 
L 345.897449 405.786728 
L 344.365649 387.045309 
L 344.365649 384.162014 
L 343.052677 375.079634 
L 342.177363 361.672311 
L 341.08322 349.994966 
L 340.973805 345.237529 
L 338.129033 310.782151 
L 337.253719 295.933181 
L 336.706647 292.473227 
L 336.050162 279.786728 
L 335.393676 276.903432 
L 334.73719 266.52357 
L 333.752461 259.027002 
L 332.986561 244.322197 
L 332.548904 241.727231 
L 329.15706 196.171167 
L 328.281746 189.539588 
L 327.953503 178.150572 
L 326.749946 165.608238 
L 324.342831 163.445767 
L 318.106216 167.48238 
L 316.574415 169.212357 
L 317.230901 178.727231 
L 316.902658 181.466362 
L 320.841573 229.329062 
L 321.607473 243.601373 
L 322.045131 245.908009 
L 322.920445 261.189474 
L 324.342831 274.164302 
L 324.671074 279.498398 
L 326.09346 292.473227 
L 328.281746 324.045309 
L 329.594718 337.596796 
L 330.032375 344.66087 
L 332.220661 368.880549 
L 332.767732 378.251259 
L 334.190118 391.802746 
L 334.627776 405.498398 
L 335.721919 412.562471 
L 335.940747 419.626545 
L 337.03489 436.637986 
L 338.566691 451.919451 
L 339.770248 469.075057 
L 340.645562 477.292449 
L 342.177363 496.322197 
L 343.818577 512.901144 
L 343.490334 519.821053 
L 342.396191 520.109382 
L 334.408947 510.306178 
L 332.658318 506.557895 
L 330.470032 477.724943 
L 330.470032 472.535011 
L 329.15706 459.560183 
L 328.500575 447.594508 
L 327.953503 443.846224 
L 325.32756 415.589931 
L 324.014588 393.244394 
L 322.263959 376.665446 
L 321.27923 364.267277 
L 321.169816 355.473227 
L 318.872116 331.397712 
L 318.98153 328.946911 
L 317.887387 321.450343 
L 317.777973 314.530435 
L 317.121487 311.791304 
L 316.68383 302.420595 
L 316.027344 300.402288 
L 314.714372 285.264989 
L 314.714372 281.084211 
L 311.760186 248.502975 
L 312.088429 245.61968 
L 311.1037 238.555606 
L 309.462486 220.390847 
L 307.930685 196.747826 
L 306.836542 186.800458 
L 305.632985 183.628833 
L 305.742399 181.178032 
L 303.007042 180.313043 
L 297.317498 180.745538 
L 296.004526 181.466362 
L 294.58214 184.926316 
L 295.34804 191.269565 
L 295.238626 197.036156 
L 296.004526 200.784439 
L 297.645741 216.354233 
L 298.63047 231.203204 
L 299.724613 241.871396 
L 299.724613 246.772998 
L 301.037584 259.459497 
L 303.007042 284.11167 
L 304.210599 294.635698 
L 304.538842 302.420595 
L 306.070642 322.315332 
L 307.930685 339.182609 
L 307.821271 344.66087 
L 309.134243 357.203204 
L 310.3378 372.484668 
L 310.228386 378.251259 
L 311.650772 389.640275 
L 313.073158 408.814188 
L 316.136758 442.548741 
L 316.902658 456.532723 
L 317.668558 465.903432 
L 319.200359 478.301602 
L 318.653287 479.599085 
L 319.309773 485.798169 
L 319.638016 495.168879 
L 318.325044 495.168879 
L 309.462486 484.789016 
L 308.0401 478.878261 
L 307.711857 470.949199 
L 306.727128 457.974371 
L 305.414156 448.027002 
L 304.757671 436.782151 
L 303.99177 431.448055 
L 304.210599 426.690618 
L 303.116456 411.697483 
L 302.131727 401.173455 
L 300.271684 375.367963 
L 298.958712 363.834783 
L 297.973984 351.004119 
L 297.864569 344.805034 
L 295.676283 324.477803 
L 295.129212 314.097941 
L 293.706826 295.068192 
L 292.831511 289.013272 
L 292.940926 282.525858 
L 291.299711 268.541876 
L 291.409125 265.370252 
L 289.98674 249.223799 
L 289.220839 243.457208 
L 287.251382 216.642563 
L 288.017282 214.624256 
L 286.376067 210.010984 
L 286.70431 207.416018 
L 284.297196 187.953776 
L 284.297196 183.484668 
L 283.531296 182.33135 
L 276.966437 182.475515 
L 267.447393 183.340503 
L 264.383792 184.205492 
L 263.946135 185.64714 
L 264.602621 202.081922 
L 265.477935 208.425172 
L 266.790907 211.885126 
L 270.948651 211.308467 
L 271.167479 206.983524 
L 269.963922 195.882838 
L 272.152208 194.297025 
L 277.075852 193.720366 
L 278.388823 194.585355 
L 279.373552 200.49611 
L 279.811209 206.839359 
L 276.419366 208.136842 
L 276.966437 217.363387 
L 277.732337 219.670023 
L 277.841752 225.580778 
L 279.154723 237.113959 
L 279.264138 241.583066 
L 280.686524 260.756979 
L 281.999495 274.308467 
L 283.093638 296.365675 
L 284.297196 309.628833 
L 285.063096 314.6746 
L 286.157239 332.839359 
L 286.813725 337.452632 
L 287.470211 349.562471 
L 289.767911 373.061327 
L 291.299711 395.55103 
L 294.144483 427.843936 
L 295.019798 445.432037 
L 295.566869 448.171167 
L 296.332769 460.136842 
L 297.208084 468.354233 
L 295.019798 467.200915 
L 289.98674 462.010984 
L 285.828996 456.821053 
L 284.734853 447.306178 
L 285.063096 443.990389 
L 283.968953 427.699771 
L 282.655981 415.734096 
L 281.999495 412.562471 
L 281.780667 405.354233 
L 280.467695 394.686041 
L 279.701795 378.107094 
L 277.404095 353.743249 
L 277.404095 350.571625 
L 275.981709 336.443478 
L 276.309952 332.406865 
L 274.887566 326.49611 
L 274.778151 317.557895 
L 273.246351 304.727231 
L 273.136937 299.393135 
L 272.261622 292.473227 
L 271.933379 282.237529 
L 269.198022 252.539588 
L 269.526265 249.512128 
L 268.541536 239.708924 
L 268.322707 234.086499 
L 267.11915 222.553318 
L 265.806178 217.795881 
L 256.94362 218.228375 
L 255.630648 219.381693 
L 256.17772 222.841648 
L 257.490691 241.583066 
L 258.913077 248.214645 
L 258.366006 250.088787 
L 259.022491 257.297025 
L 259.131906 264.072769 
L 260.663706 281.805034 
L 261.429606 286.129977 
L 261.429606 290.45492 
L 262.414335 299.681465 
L 262.961406 308.763844 
L 265.259107 334.281007 
L 266.462664 352.589931 
L 268.432122 377.242105 
L 269.635679 390.072769 
L 270.620408 406.795881 
L 271.605136 418.761556 
L 273.355765 434.33135 
L 273.574594 440.097941 
L 272.589865 440.818764 
L 263.617892 431.30389 
L 260.663706 427.411442 
L 254.864748 420.924027 
L 259.24132 419.770709 
L 261.101363 418.473227 
L 260.77312 407.949199 
L 259.350734 390.649428 
L 258.47542 384.306178 
L 257.600106 368.736384 
L 256.94362 363.690618 
L 255.630648 342.354233 
L 254.536505 333.127689 
L 253.661191 322.747826 
L 253.770605 319.287872 
L 251.144662 301.267277 
L 251.035247 288.436613 
L 250.269347 282.958352 
L 248.409304 259.315332 
L 247.53399 252.972082 
L 247.643404 249.367963 
L 246.549261 230.626545 
L 245.345703 219.814188 
L 243.704489 219.237529 
L 235.936073 219.958352 
L 234.951345 221.68833 
L 235.498416 233.22151 
L 239.874988 283.246682 
L 239.874988 285.985812 
L 241.516203 300.258124 
L 241.95386 310.782151 
L 241.078546 313.232952 
L 231.997158 314.097941 
L 229.590044 290.310755 
L 229.699458 288.148284 
L 228.495901 279.642563 
L 228.605315 275.173455 
L 226.417029 249.512128 
L 225.322886 240.862243 
L 224.009914 221.68833 
L 223.572257 220.967506 
L 216.679156 220.967506 
L 214.162627 221.976659 
L 214.49087 228.896568 
L 215.803841 246.484668 
L 217.007399 257.008696 
L 218.976856 280.075057 
L 219.195685 287.571625 
L 220.618071 302.56476 
L 220.946314 312.079634 
L 220.399242 315.251259 
L 213.943798 315.827918 
L 211.208441 314.962929 
L 210.551955 308.763844 
L 209.020155 288.869108 
L 208.254254 283.679176 
L 207.488354 271.281007 
L 205.956554 256.576201 
L 205.737725 249.800458 
L 203.658854 228.175744 
L 203.658854 224.42746 
L 202.236468 222.985812 
L 199.50111 223.418307 
L 198.406967 225.436613 
L 194.139809 227.310755 
L 193.592738 230.049886 
L 195.015124 245.61968 
L 195.452781 254.557895 
L 196.656338 267.244394 
L 196.656338 272.866819 
L 198.954039 298.960641 
L 199.50111 309.772998 
L 200.157596 316.692906 
L 199.172867 317.557895 
L 190.747966 317.557895 
L 190.200894 316.837071 
L 187.79378 292.761556 
L 188.122022 291.031579 
L 186.809051 277.768421 
L 186.152565 267.100229 
L 185.386665 259.603661 
L 183.854865 259.315332 
L 182.760722 264.072769 
L 184.401936 270.127689 
L 183.74545 275.461785 
L 184.51135 281.084211 
L 184.401936 286.562471 
L 183.307793 287.42746 
L 180.463021 286.274142 
L 179.697121 281.228375 
L 179.697121 276.038444 
L 178.165321 270.560183 
L 178.274735 262.631121 
L 176.633521 259.891991 
L 175.10172 260.18032 
L 175.977035 274.308467 
L 177.290006 287.571625 
L 177.290006 292.329062 
L 178.712392 302.997254 
L 179.806535 317.557895 
L 179.040635 318.711213 
L 174.664063 319.287872 
L 172.585191 320.297025 
L 173.022849 323.901144 
L 172.366363 326.20778 
L 173.898163 331.686041 
L 174.445234 337.740961 
L 175.648792 344.66087 
L 178.055906 363.113959 
L 179.91595 373.926316 
L 180.134778 377.242105 
L 181.885407 388.919451 
L 182.651307 389.640275 
L 189.763237 389.351945 
L 191.951523 388.486957 
L 190.747966 382.143707 
L 190.638551 377.818764 
L 189.544408 371.908009 
L 189.872651 369.601373 
L 188.122022 361.239817 
L 188.012608 358.789016 
L 185.714908 345.525858 
L 185.933736 340.335927 
L 187.137294 337.740961 
L 192.170352 334.136842 
L 204.534168 324.333638 
L 210.333126 324.766133 
L 223.1346 326.784439 
L 228.824144 328.081922 
L 231.340673 329.956064 
L 227.401758 335.57849 
L 227.401758 336.443478 
L 240.859717 353.16659 
L 245.455118 354.608238 
L 246.877504 367.583066 
L 248.628133 389.928604 
L 250.488176 411.697483 
L 247.862232 411.553318 
L 240.093817 403.624256 
L 227.401758 388.054462 
L 229.918287 386.901144 
L 237.467874 385.603661 
L 236.373731 370.466362 
L 238.999674 366.573913 
L 231.231258 357.779863 
L 229.808872 355.617391 
L 221.602799 345.670023 
L 212.083755 333.127689 
L 210.223712 332.406865 
L 202.345882 338.894279 
L 196.546924 343.219222 
L 193.920981 345.814188 
L 196.765752 349.850801 
L 201.251739 355.040732 
L 207.269526 353.022426 
L 210.333126 351.292449 
L 215.147356 349.706636 
L 216.02267 350.13913 
L 214.49087 356.626545 
L 212.959069 360.951487 
L 208.582497 364.411442 
L 209.348397 367.871396 
L 211.646098 370.610526 
L 214.162627 371.33135 
L 225.4323 361.816476 
L 226.526443 361.816476 
L 228.386486 364.843936 
L 230.24653 373.782151 
L 224.009914 379.692906 
L 221.712214 381.278719 
L 213.287312 388.919451 
L 214.49087 390.937757 
L 219.523928 396.560183 
L 242.500932 424.383982 
L 253.004705 436.782151 
L 254.645919 438.223799 
L 259.350734 444.278719 
L 272.808694 460.425172 
L 274.668737 462.155149 
L 280.686524 469.651716 
L 290.971468 481.473227 
L 297.426912 489.258124 
L 298.958712 490.555606 
L 304.210599 497.475515 
L 319.74743 515.063616 
L 322.920445 519.388558 
L 329.922961 527.173455 
L 331.673589 531.210069 
L 326.202874 535.679176 
L 324.342831 536.4 
L 315.91793 527.31762 
L 312.526086 522.704348 
L 305.632985 515.063616 
L 305.085913 513.333638 
L 295.457455 503.097941 
L 288.783182 494.448055 
L 286.70431 492.573913 
L 281.780667 486.230664 
L 276.966437 481.905721 
L 274.449908 477.869108 
L 266.790907 468.498398 
L 257.70952 458.118535 
L 254.317676 454.658581 
L 245.236289 442.981236 
L 237.358459 434.33135 
L 224.994643 419.19405 
L 213.396727 406.075057 
L 209.457812 400.885126 
L 204.971825 395.839359 
L 203.330611 392.23524 
L 185.496079 393.965217 
L 183.854865 396.416018 
L 185.386665 409.246682 
L 186.371394 411.697483 
L 190.200894 409.102517 
L 196.109267 403.912586 
L 204.096511 397.713501 
L 208.582497 393.676888 
L 211.208441 392.091076 
L 220.399242 383.873684 
L 219.086271 380.557895 
L 211.099026 371.043021 
L 209.348397 366.862243 
L 209.67664 365.132265 
L 206.503626 361.960641 
L 199.172867 352.734096 
L 187.137294 338.461785 
L 176.961763 325.775286 
L 172.694606 319.864531 
L 165.363847 311.502975 
L 154.203588 297.807323 
L 147.748144 289.013272 
L 146.435173 286.706636 
L 138.666757 277.768421 
L 133.743113 271.136842 
L 126.959426 263.49611 
L 126.850012 261.621968 
L 121.70754 256.720366 
L 114.157953 247.349657 
L 112.844981 245.043021 
L 107.374266 239.132265 
L 100.481165 232.356522 
L 100.262336 230.049886 
L 96.761079 226.589931 
L 88.992663 215.200915 
L 88.992663 215.200915 
" clip-path="url(#p1a640bd75c)" style="fill: none; stroke: #000000; stroke-width: 3"/>
   </g>
  </g>
 </g>
 <defs>
  <clipPath id="p1a640bd75c">
   <rect x="7.2" y="7.2" width="451.45436" height="554.4"/>
  </clipPath>
 </defs>
</svg>
