<?xml version="1.0" encoding="utf-8" standalone="no"?>
<!DOCTYPE svg PUBLIC "-//W3C//DTD SVG 1.1//EN"
  "http://www.w3.org/Graphics/SVG/1.1/DTD/svg11.dtd">
<svg xmlns:xlink="http://www.w3.org/1999/xlink" width="299.672033pt" height="568.8pt" viewBox="0 0 299.672033 568.8" xmlns="http://www.w3.org/2000/svg" version="1.1">
 <metadata>
  <rdf:RDF xmlns:dc="http://purl.org/dc/elements/1.1/" xmlns:cc="http://creativecommons.org/ns#" xmlns:rdf="http://www.w3.org/1999/02/22-rdf-syntax-ns#">
   <cc:Work>
    <dc:type rdf:resource="http://purl.org/dc/dcmitype/StillImage"/>
    <dc:date>2023-09-25T14:14:08.806955</dc:date>
    <dc:format>image/svg+xml</dc:format>
    <dc:creator>
     <cc:Agent>
      <dc:title>Matplotlib v3.6.2, https://matplotlib.org/</dc:title>
     </cc:Agent>
    </dc:creator>
   </cc:Work>
  </rdf:RDF>
 </metadata>
 <defs>
  <style type="text/css">*{stroke-linejoin: round; stroke-linecap: butt}</style>
 </defs>
 <g id="figure_1">
  <g id="patch_1">
   <path d="M 0 568.8 
L 299.672033 568.8 
L 299.672033 0 
L 0 0 
z
" style="fill: #ffffff"/>
  </g>
  <g id="axes_1">
   <g id="LineCollection_1">
    <path d="M 205.874722 106.321401 
L 202.810105 104.850328 
L 202.292702 105.11302 
L 201.337497 107.529782 
L 200.541493 108.370395 
L 198.790283 111.575232 
L 198.432081 112.625998 
L 197.277875 114.569916 
L 194.651061 119.561055 
L 193.934657 120.401668 
L 192.143647 123.869196 
L 190.94964 124.814886 
L 190.233237 126.653727 
L 188.760628 128.545106 
L 186.691017 133.326092 
L 184.780607 137.10885 
L 182.113992 141.46953 
L 180.760785 144.516752 
L 177.815569 149.665506 
L 173.994748 156.810716 
L 172.203738 159.700323 
L 169.736125 164.323694 
L 169.139122 165.059231 
L 168.382918 166.95061 
L 164.203895 174.305973 
L 164.084494 178.614114 
L 164.442696 180.085187 
L 164.442696 181.661336 
L 164.084494 182.974794 
L 164.044694 185.076326 
L 164.283495 189.647159 
L 164.124294 191.223309 
L 164.562097 193.692609 
L 164.402896 195.951756 
L 163.686492 197.632982 
L 164.522297 199.366747 
L 166.432707 200.785281 
L 166.591908 201.941124 
L 165.955104 203.254581 
L 165.955104 204.042656 
L 165.278501 207.772876 
L 165.1989 210.084562 
L 164.482496 211.923402 
L 163.805893 214.655395 
L 163.36809 215.023163 
L 163.129289 216.231544 
L 163.28849 218.490691 
L 163.009888 220.959992 
L 161.736281 223.271677 
L 161.298479 226.318899 
L 160.223873 228.367893 
L 160.144273 229.261045 
L 158.711465 231.2575 
L 156.960255 234.252184 
L 156.04485 237.614636 
L 155.089645 240.031398 
L 154.532442 240.924549 
L 153.975239 243.971771 
L 154.612043 244.654769 
L 154.09464 245.495382 
L 153.656837 247.071531 
L 152.781233 248.700219 
L 152.38323 250.696675 
L 151.467825 251.747441 
L 150.592221 253.901512 
L 149.756416 255.425122 
L 148.841011 256.475889 
L 148.164407 259.207881 
L 145.855995 260.78403 
L 145.099791 262.097488 
L 145.139591 262.885562 
L 143.706783 265.14471 
L 142.433176 265.932784 
L 140.602366 268.87493 
L 140.880968 269.557928 
L 140.283965 271.449307 
L 139.010358 272.867841 
L 138.055152 275.179527 
L 136.781545 276.072678 
L 136.502944 277.491212 
L 135.82634 279.224977 
L 134.512933 281.694277 
L 134.075131 283.270426 
L 133.478128 283.795809 
L 130.17471 289.942792 
L 128.542901 292.46463 
L 127.229493 294.933931 
L 126.55289 295.406776 
L 125.398684 295.459314 
L 125.518084 296.562619 
L 125.159882 297.718461 
L 123.965876 299.189534 
L 122.85147 301.974064 
L 120.065454 306.597436 
L 118.672447 310.012426 
L 117.47844 311.536037 
L 114.931227 317.525404 
L 114.135222 318.786323 
L 112.861615 319.994704 
L 112.662614 320.835317 
L 110.951205 323.935078 
L 108.961194 327.927989 
L 105.896577 333.759741 
L 104.702571 335.651121 
L 103.946367 337.279808 
L 101.956356 340.747337 
L 99.767344 345.370708 
L 98.016134 348.155238 
L 96.901728 350.572 
L 95.548521 353.093839 
L 95.747522 353.724299 
L 98.613138 354.93268 
L 103.150362 357.139289 
L 104.065767 357.401981 
L 105.697576 358.6629 
L 106.37418 359.450975 
L 107.369185 359.818743 
L 109.757198 361.184739 
L 113.936221 363.33881 
L 117.000838 365.17765 
L 118.473446 365.755572 
L 119.22965 366.701261 
L 123.169871 368.697717 
L 124.76188 369.275638 
L 125.199682 369.748483 
L 130.015509 372.743167 
L 129.736907 376.263234 
L 129.219504 379.310456 
L 128.940903 383.250829 
L 128.304099 387.138664 
L 127.906097 388.452121 
L 126.51309 391.60442 
L 124.72208 394.336412 
L 124.523079 395.124487 
L 123.766875 395.860023 
L 122.93107 397.331096 
L 120.622658 400.168164 
L 119.548052 402.059543 
L 118.314245 403.11031 
L 117.31924 405.57961 
L 114.851626 408.574294 
L 114.015822 409.992828 
L 113.259617 411.779131 
L 112.622814 412.619744 
L 111.428807 413.302742 
L 110.155201 416.13981 
L 109.199995 417.453268 
L 108.125389 420.027645 
L 107.329385 421.44618 
L 106.175179 422.654561 
L 105.060773 424.598478 
L 104.662771 425.859397 
L 103.667765 427.908392 
L 101.279752 430.797999 
L 100.80215 431.008152 
L 99.369342 433.372376 
L 98.533537 435.368831 
L 96.861928 438.573668 
L 96.026124 439.256666 
L 95.588321 440.465047 
L 94.394315 441.095507 
L 92.961507 442.461503 
L 91.011296 445.98157 
L 88.02628 450.447326 
L 87.508877 451.550631 
L 84.961663 455.491004 
L 84.205459 457.067153 
L 82.892052 459.168685 
L 79.668235 463.529365 
L 78.87223 465.000438 
L 77.757824 465.998666 
L 76.563818 468.257813 
L 75.290211 470.254269 
L 74.096204 471.094882 
L 73.539001 471.988033 
L 73.101199 473.564182 
L 72.185794 475.5081 
L 71.50919 476.401251 
L 70.593785 478.345168 
L 67.966971 482.180465 
L 66.693364 483.598999 
L 63.787948 488.432524 
L 63.151145 488.85283 
L 62.195939 490.954363 
L 60.48453 492.215282 
L 59.927327 493.371125 
L 58.812921 494.211738 
L 58.016917 497.048806 
L 57.340313 498.414802 
L 57.101512 499.570645 
L 54.434897 501.829793 
L 53.718493 502.722944 
L 53.320491 503.878787 
L 51.529481 505.192244 
L 50.255874 507.136162 
L 49.738472 507.031085 
L 48.504665 508.975003 
L 47.62906 509.868154 
L 47.469859 510.971458 
L 46.594254 513.493297 
L 46.355453 516.593057 
L 45.997251 518.536975 
L 45.559449 519.32505 
L 43.330637 521.111352 
L 41.460027 522.10958 
L 40.544622 524.158574 
L 38.912813 525.366955 
L 38.594411 526.15503 
L 38.43521 528.3091 
L 39.987419 531.198707 
L 39.868018 533.30024 
L 40.624222 534.613697 
L 39.868018 534.771312 
L 37.679006 536.4 
L 36.723801 535.979694 
L 35.330793 536.189847 
L 36.405399 534.193391 
L 36.206398 532.35455 
L 35.012391 531.513937 
L 31.669173 530.883478 
L 29.519962 531.198707 
L 28.405555 530.988554 
L 26.136943 531.041092 
L 25.062337 531.408861 
L 23.112127 531.619014 
L 20.166911 532.249474 
L 20.803714 533.405316 
L 23.231527 533.037548 
L 24.067332 533.878161 
L 25.221538 532.66978 
L 25.301139 531.356322 
L 25.937942 530.463171 
L 28.166754 530.410633 
L 31.231371 530.095403 
L 32.504978 530.305556 
L 34.415388 529.990326 
L 34.853191 528.781945 
L 35.489994 525.419493 
L 36.6044 523.055269 
L 38.833212 521.426582 
L 39.310815 520.533431 
L 40.982424 518.589513 
L 42.654033 516.277828 
L 44.047041 515.857521 
L 45.161447 513.913604 
L 45.320648 512.495069 
L 45.121646 511.496841 
L 45.71865 508.239466 
L 46.236053 507.766621 
L 47.828061 505.087168 
L 49.579271 501.146795 
L 51.131479 499.675722 
L 51.091679 499.202877 
L 51.887683 497.994496 
L 52.007084 497.153883 
L 52.683688 496.786115 
L 53.559292 495.630272 
L 53.678693 493.160972 
L 54.554298 491.164516 
L 55.310502 490.323903 
L 58.65372 484.597227 
L 59.648726 482.33808 
L 60.802932 480.867007 
L 63.509347 475.770791 
L 64.305351 474.667487 
L 66.05656 471.410112 
L 67.330167 469.466194 
L 70.275383 465.368206 
L 70.832586 463.844595 
L 72.145994 461.900678 
L 73.937003 458.380611 
L 74.414606 457.802689 
L 75.25041 455.858772 
L 77.359822 452.128552 
L 77.638423 451.393016 
L 79.668235 448.503409 
L 80.106037 448.45087 
L 81.698046 450.079558 
L 83.568656 451.603169 
L 84.484061 452.759012 
L 86.036269 453.44201 
L 87.787479 455.018159 
L 88.265081 455.806234 
L 89.339687 456.54177 
L 91.289898 458.328073 
L 92.125702 457.907766 
L 94.314714 455.123236 
L 96.105724 456.016387 
L 96.742528 455.701157 
L 98.613138 452.759012 
L 101.001151 449.659252 
L 102.951361 447.452643 
L 103.667765 445.03588 
L 104.782171 443.039425 
L 104.901572 441.515814 
L 105.657776 439.361743 
L 105.896577 437.838132 
L 107.568186 432.636839 
L 109.279596 429.326926 
L 112.702414 424.808631 
L 113.81682 422.286792 
L 120.423656 410.25552 
L 123.209672 405.737225 
L 125.398684 402.847618 
L 127.348894 399.38009 
L 127.906097 398.697092 
L 129.537906 397.541249 
L 130.453311 394.914333 
L 131.368716 394.021182 
L 132.881124 388.031815 
L 133.040325 386.298051 
L 134.393532 380.09853 
L 134.552733 376.105619 
L 133.87613 374.266778 
L 133.756729 372.217784 
L 133.91593 371.167018 
L 136.264143 366.963953 
L 136.303943 365.965725 
L 136.980547 364.021808 
L 135.866141 362.918503 
L 133.517928 361.605045 
L 131.448316 360.186511 
L 129.020503 359.345898 
L 128.264299 359.29336 
L 126.751891 358.452747 
L 124.005676 356.456291 
L 120.941059 354.985218 
L 120.025654 354.144605 
L 118.393845 353.671761 
L 115.64763 351.465152 
L 114.175022 350.88723 
L 112.423813 349.153466 
L 112.503413 348.41793 
L 115.369029 343.42679 
L 117.47844 340.169415 
L 119.070449 337.122193 
L 120.742058 333.654665 
L 121.259461 332.971667 
L 123.249472 328.978755 
L 127.707096 321.308162 
L 130.532911 317.525404 
L 132.761724 312.639341 
L 134.910935 309.224351 
L 136.343743 305.756823 
L 137.57755 303.812905 
L 138.413354 301.50122 
L 139.726762 299.504764 
L 140.880968 297.035463 
L 141.676972 294.933931 
L 142.313776 294.250933 
L 143.547582 291.991786 
L 144.383387 291.151173 
L 145.378392 289.102179 
L 146.094796 288.524257 
L 146.612199 287.263338 
L 147.965406 285.371959 
L 147.885806 284.478807 
L 149.875817 281.641739 
L 150.114618 280.538434 
L 151.069823 279.382591 
L 151.706627 277.911519 
L 152.582232 276.913291 
L 153.736438 274.654144 
L 154.930444 273.130533 
L 154.930444 272.657688 
L 155.845849 270.923924 
L 156.761254 267.508934 
L 158.631864 264.251558 
L 159.58707 262.938101 
L 160.502475 262.150026 
L 162.293484 259.523111 
L 162.930288 258.997728 
L 163.845693 257.316502 
L 166.074505 254.479433 
L 166.034705 253.901512 
L 166.98991 251.852517 
L 167.865515 251.274596 
L 168.78092 249.750985 
L 169.298323 247.596914 
L 170.173927 246.651225 
L 170.850531 244.654769 
L 171.845536 243.341311 
L 172.243539 242.185469 
L 174.31315 240.083936 
L 174.989754 238.612864 
L 176.661363 236.931638 
L 176.701163 235.145335 
L 177.059365 233.726801 
L 177.656368 233.201418 
L 178.253371 231.57273 
L 179.88518 229.313583 
L 181.954791 228.578046 
L 182.591595 227.632357 
L 182.472194 226.791744 
L 183.268199 224.690212 
L 184.064203 223.744522 
L 184.541806 222.325988 
L 185.41741 221.485375 
L 186.611417 217.91277 
L 186.890018 216.126467 
L 189.158631 211.975941 
L 189.317832 210.45233 
L 188.880029 209.401564 
L 186.850218 208.771104 
L 187.526822 208.666027 
L 186.054214 207.825414 
L 185.099009 205.934035 
L 185.059208 204.935807 
L 185.497011 203.674888 
L 186.213415 202.729198 
L 187.725823 201.573356 
L 189.07903 199.5769 
L 190.710839 195.373835 
L 192.979451 191.275847 
L 194.770461 189.174315 
L 196.680872 188.228625 
L 197.954479 188.07101 
L 199.864889 188.543855 
L 201.496698 189.699698 
L 203.168307 190.225081 
L 205.237918 189.962389 
L 207.267729 188.333702 
L 208.541336 186.547399 
L 209.377141 184.078099 
L 210.411946 182.607026 
L 211.645753 181.608798 
L 213.158161 180.820723 
L 214.949171 179.454727 
L 215.745175 178.4565 
L 217.217783 175.777046 
L 217.894387 173.570437 
L 217.774986 170.838445 
L 216.66058 168.158991 
L 216.62078 166.162535 
L 217.934187 163.85085 
L 220.2426 161.329011 
L 222.192811 160.225706 
L 223.187816 159.385093 
L 223.90422 158.334327 
L 224.143021 157.178484 
L 224.143021 155.339643 
L 224.381822 153.816033 
L 224.819625 153.027958 
L 225.81463 148.824893 
L 226.570834 146.565746 
L 227.924042 143.93883 
L 228.799646 142.572834 
L 232.341866 138.737538 
L 233.416472 136.846159 
L 234.92888 133.326092 
L 236.003486 131.329636 
L 237.237292 129.490795 
L 238.272098 128.545106 
L 239.943707 127.704493 
L 243.127724 126.706265 
L 246.391342 127.389263 
L 248.938556 127.074033 
L 250.251963 126.075805 
L 252.918578 122.030355 
L 259.087611 110.419389 
L 263.664636 102.591181 
L 264.898443 99.911727 
L 265.296445 97.494965 
L 265.057644 95.708663 
L 265.216845 93.869822 
L 265.734248 92.188596 
L 265.654647 89.929449 
L 265.097444 88.510914 
L 263.784037 86.356844 
L 263.744237 84.360388 
L 264.460641 82.206317 
L 266.769053 78.213406 
L 268.679464 75.796643 
L 272.261483 72.1715 
L 272.739086 71.383425 
L 273.057487 69.176816 
L 272.818686 66.917669 
L 273.017687 63.870447 
L 273.813692 60.192766 
L 274.689296 58.406463 
L 275.763902 57.25062 
L 278.748918 55.254164 
L 279.505123 53.993245 
L 279.505123 52.942479 
L 278.98772 51.996789 
L 278.112115 51.313791 
L 276.997709 51.103638 
L 275.3261 51.576483 
L 273.57489 52.889941 
L 272.142082 53.415324 
L 271.027676 52.942479 
L 270.112271 51.471406 
L 270.510274 50.052872 
L 273.893292 45.744731 
L 275.3261 42.487355 
L 275.684302 40.17567 
L 275.2863 38.91475 
L 273.097288 36.392911 
L 270.629674 34.606609 
L 268.201861 33.765996 
L 264.460641 33.03046 
L 262.032827 32.4 
L 261.037822 32.662692 
L 259.724415 33.976149 
L 259.008011 36.13022 
L 259.246812 37.601293 
L 260.241818 38.757135 
L 261.674625 39.492672 
L 263.823837 40.963744 
L 264.540241 42.014511 
L 264.818843 44.851579 
L 265.654647 47.110727 
L 265.734248 48.003878 
L 265.376046 49.79018 
L 264.619841 51.103638 
L 262.948232 52.784864 
L 261.157223 53.730554 
L 259.047811 54.308475 
L 258.172206 54.78132 
L 256.699598 56.357469 
L 255.863794 59.299614 
L 255.346391 60.035151 
L 253.953383 61.085917 
L 252.122573 61.6113 
L 251.724571 62.031606 
L 249.933562 62.767143 
L 248.460954 63.765371 
L 247.187347 64.973752 
L 245.038135 68.493818 
L 243.406326 71.751194 
L 243.048124 72.959575 
L 242.172519 74.588262 
L 240.54071 76.427103 
L 238.112897 77.793099 
L 236.79949 79.31671 
L 236.481088 80.052246 
L 236.242287 82.10124 
L 236.520889 83.940081 
L 236.122886 86.356844 
L 235.406482 87.565225 
L 234.252276 88.563453 
L 230.471256 90.244678 
L 228.322044 91.715751 
L 226.650435 93.344439 
L 224.620624 95.813739 
L 223.665419 97.600042 
L 222.750014 99.754112 
L 222.590813 100.647264 
L 223.108215 103.169102 
L 224.541023 107.950089 
L 224.660424 109.999083 
L 224.143021 111.62777 
L 222.829614 113.729303 
L 220.003799 116.934139 
L 217.416785 118.983134 
L 216.54118 120.191515 
L 216.103377 120.0339 
L 216.66058 118.300136 
L 216.978982 115.410529 
L 216.939182 114.307224 
L 216.182978 112.415845 
L 215.386973 111.62777 
L 212.083555 109.999083 
L 209.775143 108.107704 
L 206.829927 106.268863 
L 206.551325 106.426478 
L 206.551325 106.426478 
" clip-path="url(#pad87459e12)" style="fill: none; stroke: #000000; stroke-width: 3"/>
   </g>
  </g>
 </g>
 <defs>
  <clipPath id="pad87459e12">
   <rect x="7.2" y="7.2" width="285.272033" height="554.4"/>
  </clipPath>
 </defs>
</svg>
