<?xml version="1.0" encoding="utf-8" standalone="no"?>
<!DOCTYPE svg PUBLIC "-//W3C//DTD SVG 1.1//EN"
  "http://www.w3.org/Graphics/SVG/1.1/DTD/svg11.dtd">
<svg xmlns:xlink="http://www.w3.org/1999/xlink" width="180.411474pt" height="568.8pt" viewBox="0 0 180.411474 568.8" xmlns="http://www.w3.org/2000/svg" version="1.1">
 <metadata>
  <rdf:RDF xmlns:dc="http://purl.org/dc/elements/1.1/" xmlns:cc="http://creativecommons.org/ns#" xmlns:rdf="http://www.w3.org/1999/02/22-rdf-syntax-ns#">
   <cc:Work>
    <dc:type rdf:resource="http://purl.org/dc/dcmitype/StillImage"/>
    <dc:date>2023-09-25T14:14:08.537140</dc:date>
    <dc:format>image/svg+xml</dc:format>
    <dc:creator>
     <cc:Agent>
      <dc:title>Matplotlib v3.6.2, https://matplotlib.org/</dc:title>
     </cc:Agent>
    </dc:creator>
   </cc:Work>
  </rdf:RDF>
 </metadata>
 <defs>
  <style type="text/css">*{stroke-linejoin: round; stroke-linecap: butt}</style>
 </defs>
 <g id="figure_1">
  <g id="patch_1">
   <path d="M 0 568.8 
L 180.411474 568.8 
L 180.411474 0 
L 0 0 
z
" style="fill: #ffffff"/>
  </g>
  <g id="axes_1">
   <g id="LineCollection_1">
    <path d="M 14.745976 534.17343 
L 21.370536 536.4 
L 19.925178 533.537267 
L 23.779467 527.33468 
L 28.356436 516.678952 
L 31.247153 511.907731 
L 32.692511 506.023225 
L 42.810021 490.755317 
L 44.737166 486.143137 
L 47.507437 483.439445 
L 49.434581 480.09959 
L 50.277707 476.600694 
L 54.252443 471.988514 
L 56.420481 466.899211 
L 57.986286 464.990723 
L 61.599682 463.082234 
L 63.406381 456.243484 
L 66.417544 452.426507 
L 67.140223 447.178163 
L 72.319425 441.452698 
L 74.126123 436.363395 
L 78.221306 432.387378 
L 79.666664 427.298075 
L 81.473362 425.389587 
L 83.882293 418.709877 
L 89.543281 412.189208 
L 90.26596 409.803597 
L 92.915784 407.577027 
L 94.722482 402.487725 
L 99.058558 395.330893 
L 100.624363 388.810224 
L 103.755973 381.494352 
L 104.23776 378.154497 
L 106.044458 374.019438 
L 108.573835 370.361502 
L 110.019194 364.476996 
L 112.307678 360.660019 
L 109.176068 357.002083 
L 103.635527 354.616472 
L 97.372306 350.958536 
L 91.590872 348.891007 
L 83.520954 344.914989 
L 79.787111 344.119785 
L 74.487463 338.553361 
L 65.815311 333.782139 
L 60.515663 331.71461 
L 52.325298 327.26147 
L 51.361726 321.217924 
L 48.832349 315.96958 
L 49.314135 313.902051 
L 52.445745 309.13083 
L 56.420481 301.337835 
L 57.263607 298.316062 
L 64.490399 284.32048 
L 63.045041 280.980625 
L 54.37289 277.481729 
L 50.87994 274.937078 
L 47.146097 273.346671 
L 44.134933 269.688735 
L 44.616719 258.396844 
L 42.930468 254.102745 
L 43.050914 235.972105 
L 42.448682 226.111581 
L 42.328235 217.364342 
L 42.810021 216.092016 
L 43.050914 205.118208 
L 42.087342 194.939602 
L 43.171361 180.784979 
L 44.496273 177.922247 
L 45.098506 172.991985 
L 44.616719 165.835153 
L 44.978059 160.427769 
L 50.157261 149.135879 
L 56.902267 137.048785 
L 62.442808 128.460587 
L 64.490399 123.848406 
L 69.187815 115.73733 
L 71.476299 110.966109 
L 73.644337 108.262417 
L 75.330589 103.968318 
L 82.196042 92.994509 
L 82.196042 91.086021 
L 84.484526 88.382329 
L 84.36408 86.3148 
L 88.218369 81.225497 
L 91.590872 74.704828 
L 93.277124 72.79634 
L 98.938112 61.66349 
L 105.562672 50.3716 
L 108.935175 43.373809 
L 112.187232 39.556832 
L 115.439288 33.354244 
L 117.607326 32.4 
L 125.677245 37.171221 
L 145.310032 47.667908 
L 150.730126 49.894478 
L 156.029774 41.783402 
L 164.822372 45.759419 
L 165.665498 44.964216 
" clip-path="url(#pcc91950bfe)" style="fill: none; stroke: #000000; stroke-width: 3"/>
   </g>
  </g>
 </g>
 <defs>
  <clipPath id="pcc91950bfe">
   <rect x="7.2" y="7.2" width="166.011474" height="554.4"/>
  </clipPath>
 </defs>
</svg>
