<?xml version="1.0" encoding="utf-8" standalone="no"?>
<!DOCTYPE svg PUBLIC "-//W3C//DTD SVG 1.1//EN"
  "http://www.w3.org/Graphics/SVG/1.1/DTD/svg11.dtd">
<svg xmlns:xlink="http://www.w3.org/1999/xlink" width="309.712001pt" height="568.8pt" viewBox="0 0 309.712001 568.8" xmlns="http://www.w3.org/2000/svg" version="1.1">
 <metadata>
  <rdf:RDF xmlns:dc="http://purl.org/dc/elements/1.1/" xmlns:cc="http://creativecommons.org/ns#" xmlns:rdf="http://www.w3.org/1999/02/22-rdf-syntax-ns#">
   <cc:Work>
    <dc:type rdf:resource="http://purl.org/dc/dcmitype/StillImage"/>
    <dc:date>2023-09-25T14:14:08.346949</dc:date>
    <dc:format>image/svg+xml</dc:format>
    <dc:creator>
     <cc:Agent>
      <dc:title>Matplotlib v3.6.2, https://matplotlib.org/</dc:title>
     </cc:Agent>
    </dc:creator>
   </cc:Work>
  </rdf:RDF>
 </metadata>
 <defs>
  <style type="text/css">*{stroke-linejoin: round; stroke-linecap: butt}</style>
 </defs>
 <g id="figure_1">
  <g id="patch_1">
   <path d="M 0 568.8 
L 309.712001 568.8 
L 309.712001 0 
L 0 0 
z
" style="fill: #ffffff"/>
  </g>
  <g id="axes_1">
   <g id="LineCollection_1">
    <path d="M 182.502378 140.913817 
L 178.503217 138.541512 
L 177.459957 138.158882 
L 175.141603 141.219921 
L 173.22896 144.434012 
L 172.359577 146.423687 
L 169.983264 150.785667 
L 167.491033 155.989432 
L 164.361254 161.422776 
L 161.869023 165.019496 
L 157.869861 172.059885 
L 156.131096 175.580079 
L 153.8707 179.635955 
L 151.958057 183.538779 
L 151.146633 185.758032 
L 148.306649 190.043486 
L 145.6985 195.0942 
L 145.292788 195.247252 
L 143.554022 198.69092 
L 142.568721 200.068387 
L 142.105051 201.828485 
L 140.771997 203.588582 
L 139.149149 207.185302 
L 135.729576 212.389068 
L 134.628357 214.761373 
L 133.585098 216.062314 
L 131.614496 220.271242 
L 129.238183 223.332281 
L 127.267582 226.622897 
L 126.861869 227.770787 
L 124.949227 230.984877 
L 124.195762 232.898026 
L 122.456996 235.576435 
L 121.23986 238.33137 
L 121.008024 244.606499 
L 121.181901 245.830914 
L 121.008024 254.401822 
L 121.645572 257.080231 
L 120.950065 259.529062 
L 120.834148 262.054418 
L 121.181901 266.186821 
L 121.761489 269.171333 
L 120.660271 273.915943 
L 121.297819 275.67604 
L 123.848009 276.747404 
L 124.717392 278.890131 
L 123.79005 279.502338 
L 124.021885 281.109384 
L 123.442297 282.869481 
L 123.616173 284.246948 
L 122.862708 285.471363 
L 122.688831 288.226298 
L 121.587613 292.052596 
L 121.645572 293.200486 
L 120.138641 295.649317 
L 118.921505 300.317401 
L 119.443135 301.159186 
L 118.573752 306.745582 
L 115.443973 313.173763 
L 114.57459 313.479866 
L 114.168878 315.928697 
L 113.299495 316.923535 
L 112.198277 319.678469 
L 110.343593 323.198664 
L 109.706046 325.264865 
L 108.025239 328.325903 
L 106.750144 332.075676 
L 105.359131 334.754084 
L 104.141995 338.733435 
L 104.89546 339.804798 
L 106.46035 340.72311 
L 105.590967 341.564895 
L 103.968118 346.386031 
L 102.055476 349.523596 
L 101.591805 352.584634 
L 98.404068 357.176192 
L 97.534685 361.155542 
L 96.25959 363.604373 
L 94.115112 365.7471 
L 92.086551 369.72645 
L 91.15921 370.49171 
L 90.521662 373.017067 
L 88.551061 375.236319 
L 85.653118 382.888916 
L 83.276804 385.490799 
L 81.595997 388.934467 
L 80.43682 390.082357 
L 78.234383 393.602551 
L 78.40826 394.138233 
L 76.205823 398.347161 
L 74.698892 400.336836 
L 72.844209 404.010082 
L 70.525854 409.366899 
L 67.569952 413.805405 
L 66.584651 414.570665 
L 61.020601 423.830307 
L 59.629588 428.039235 
L 58.00674 430.717643 
L 55.108797 436.992773 
L 53.659825 439.365077 
L 51.051676 444.415791 
L 45.429666 453.828485 
L 43.864777 456.966049 
L 42.473764 459.185302 
L 38.300726 468.215366 
L 36.156248 471.046827 
L 34.359523 474.796599 
L 32.794634 477.168904 
L 28.853431 484.515396 
L 27.578336 486.122442 
L 26.187324 488.877376 
L 22.82571 493.92809 
L 22.362039 495.458609 
L 20.971026 497.983966 
L 20.623273 499.437959 
L 22.130203 501.045005 
L 26.593036 503.111206 
L 30.47628 505.253933 
L 32.678716 506.172244 
L 38.242767 509.768964 
L 39.517862 511.069906 
L 41.024793 511.529062 
L 47.748021 515.431886 
L 51.109635 516.732827 
L 53.370031 518.263346 
L 55.398591 518.95208 
L 56.210015 519.71734 
L 58.528369 520.788703 
L 60.093259 522.013119 
L 65.947104 524.768053 
L 67.338117 526.068995 
L 70.294019 527.599514 
L 71.279319 528.747404 
L 75.916029 530.966657 
L 77.480918 532.879806 
L 79.741313 534.180747 
L 82.929051 534.792955 
L 83.566598 535.864318 
L 85.826994 536.4 
L 87.56576 535.252111 
L 84.783735 533.262435 
L 82.523339 532.956332 
L 77.075206 530.890131 
L 76.669494 528.364774 
L 77.191124 525.380261 
L 82.813133 514.97273 
L 84.609858 511.146432 
L 87.623719 506.554874 
L 90.463703 503.646887 
L 91.738798 500.050167 
L 92.086551 497.754388 
L 93.245729 497.295232 
L 93.18777 495.305557 
L 95.795919 490.560947 
L 96.375507 488.80085 
L 97.476726 487.270331 
L 98.056314 485.357182 
L 100.026916 482.296143 
L 100.664463 480.689098 
L 102.635065 478.010689 
L 103.91016 475.638384 
L 104.89546 474.567021 
L 105.706884 470.817249 
L 106.808103 469.057152 
L 108.952581 467.067476 
L 109.821964 465.001275 
L 111.444812 462.935074 
L 111.734606 461.634133 
L 114.11092 457.578257 
L 116.197439 455.205952 
L 116.255397 453.828485 
L 119.906806 446.864622 
L 121.065983 445.334103 
L 123.848009 437.758032 
L 123.905967 436.839721 
L 126.282281 434.696994 
L 127.267582 432.248163 
L 129.470018 429.340176 
L 131.730414 425.590404 
L 132.773674 422.988521 
L 133.585098 422.299787 
L 133.932851 420.845794 
L 136.135288 417.555178 
L 139.554861 411.356575 
L 140.945873 409.213848 
L 141.525462 407.224172 
L 143.438104 404.545764 
L 143.496063 403.4744 
L 147.495225 397.811479 
L 148.016855 396.127908 
L 149.929497 397.199271 
L 147.669101 396.816641 
L 148.24869 395.286122 
L 149.407867 394.214759 
L 152.82744 393.219921 
L 155.551507 390.311934 
L 158.333532 388.475311 
L 158.913121 387.710052 
L 158.101697 384.113331 
L 158.565368 381.741026 
L 155.551507 381.817552 
L 155.89926 378.986092 
L 154.798042 378.297358 
L 156.015178 377.225995 
L 159.202915 375.772001 
L 158.913121 373.246644 
L 155.551507 371.103917 
L 154.913959 369.037716 
L 152.769481 367.124567 
L 150.219291 366.435834 
L 149.465826 365.7471 
L 148.190731 365.976678 
L 145.930336 364.522684 
L 144.307487 364.369633 
L 143.090351 363.680899 
L 141.583421 361.538172 
L 138.801395 359.395445 
L 138.395683 358.553659 
L 136.367123 358.247555 
L 134.280604 357.329244 
L 133.758974 356.487458 
L 131.382661 355.798725 
L 129.006347 354.650835 
L 126.919828 354.344731 
L 126.282281 352.584634 
L 126.456157 350.824537 
L 127.615335 348.987914 
L 127.093705 347.993076 
L 127.731252 346.386031 
L 127.32554 344.243304 
L 128.021047 342.100577 
L 127.151664 340.417006 
L 127.209623 338.044701 
L 126.572075 337.509019 
L 126.282281 334.447981 
L 126.687993 331.61652 
L 124.949227 330.774734 
L 124.891268 328.402429 
L 126.224322 325.264865 
L 128.310841 323.122138 
L 133.295303 318.836684 
L 133.701015 317.841846 
L 137.062629 315.546067 
L 140.134449 313.173763 
L 144.481364 308.888309 
L 145.17687 306.975159 
L 147.031554 305.215062 
L 139.207107 309.959672 
L 138.917313 308.276101 
L 144.481364 306.439478 
L 145.060953 304.755906 
L 146.625842 301.771394 
L 148.364608 299.399089 
L 152.537646 293.047434 
L 151.32051 294.195323 
L 152.653564 291.516915 
L 153.754782 290.445551 
L 152.595605 289.068084 
L 151.204592 286.313149 
L 150.509086 283.558214 
L 151.436428 282.180747 
L 154.798042 279.27276 
L 156.131096 277.742241 
L 157.92782 273.227209 
L 161.347393 266.56945 
L 163.260036 263.73799 
L 166.331855 260.676951 
L 169.809387 259.452536 
L 171.258359 259.452536 
L 174.909767 261.671789 
L 178.445258 262.283996 
L 180.241983 261.824841 
L 183.139926 259.988217 
L 185.226445 257.462861 
L 186.385622 254.401822 
L 188.00847 252.029517 
L 189.979072 250.192894 
L 194.905575 246.749226 
L 197.050053 243.994291 
L 199.136572 238.33137 
L 199.078613 234.581597 
L 197.513724 231.061403 
L 197.22393 228.84215 
L 197.629642 226.852475 
L 200.643503 222.337443 
L 202.150433 220.88345 
L 206.845101 217.669359 
L 207.946319 216.444944 
L 208.178155 213.919587 
L 207.888361 211.623808 
L 209.569168 206.726146 
L 210.438551 202.134589 
L 211.597728 198.843972 
L 214.032 194.175888 
L 218.668709 189.125175 
L 220.465434 186.905922 
L 222.783788 181.855208 
L 223.827048 179.176799 
L 227.362539 173.819982 
L 229.622934 171.983359 
L 234.201685 170.223261 
L 236.98371 169.840632 
L 242.026131 170.529365 
L 243.764897 170.223261 
L 245.851416 169.151898 
L 247.300388 167.621379 
L 250.893837 161.805405 
L 253.096274 157.902581 
L 255.008917 154.076283 
L 258.254613 148.566414 
L 259.471749 145.734953 
L 260.572967 144.204434 
L 263.412952 138.924142 
L 265.55743 135.250896 
L 266.832525 132.342909 
L 267.875784 128.593137 
L 268.049661 122.394534 
L 268.687208 119.716125 
L 268.629249 116.195931 
L 267.470072 113.594048 
L 266.194977 111.757425 
L 265.673347 109.079016 
L 266.716607 105.40577 
L 267.759867 103.186517 
L 272.16474 96.68181 
L 277.78675 91.095415 
L 278.540215 90.024051 
L 279.467557 87.269116 
L 279.177763 81.070513 
L 280.278981 74.183176 
L 281.264282 71.351716 
L 282.655294 69.438567 
L 284.683855 67.831521 
L 287.813633 65.841846 
L 289.030769 64.081749 
L 289.088728 62.321652 
L 287.98751 60.791133 
L 286.480579 59.949347 
L 284.741814 60.025873 
L 282.3655 60.867659 
L 278.887968 63.010386 
L 276.685532 62.780808 
L 275.178601 60.867659 
L 275.178601 59.337139 
L 276.279819 57.577042 
L 278.250421 55.587367 
L 280.510816 52.449803 
L 282.3655 48.623504 
L 283.40876 45.409414 
L 283.176924 42.348375 
L 281.380199 39.97607 
L 277.670832 36.838506 
L 275.816149 35.537565 
L 272.222699 34.083571 
L 267.122319 33.16526 
L 264.51417 32.4 
L 262.48561 32.706104 
L 260.167255 34.160097 
L 259.587667 35.078409 
L 258.89216 38.598603 
L 259.761543 40.435226 
L 261.210515 41.736168 
L 264.572129 43.037109 
L 266.368854 44.950258 
L 267.122319 46.786881 
L 267.470072 49.694868 
L 268.803126 54.439478 
L 268.919044 55.587367 
L 268.10762 58.801458 
L 267.006401 60.485029 
L 265.499471 61.939022 
L 262.253775 64.005223 
L 258.486448 65.382691 
L 257.153395 66.224476 
L 255.762382 68.061099 
L 254.255451 72.040449 
L 252.574644 73.953599 
L 249.73466 75.024962 
L 246.14121 75.943274 
L 243.185308 77.397267 
L 241.852255 77.473793 
L 239.186147 76.402429 
L 236.346163 74.48928 
L 232.289042 72.652657 
L 229.507017 70.662982 
L 225.391937 68.596781 
L 222.72583 66.454054 
L 219.248298 64.464379 
L 217.857285 64.158275 
L 216.408314 65.688794 
L 215.07526 69.132463 
L 214.55363 69.591619 
L 212.814864 74.030125 
L 211.713646 74.259702 
L 210.264674 77.014637 
L 209.685085 79.004312 
L 208.467949 81.223565 
L 206.207554 84.055026 
L 205.396129 86.427331 
L 204.063076 88.493532 
L 203.019816 90.865837 
L 201.918598 91.17194 
L 201.107174 92.243304 
L 199.77412 92.396356 
L 198.672901 93.926875 
L 198.441066 95.610446 
L 196.7023 97.753173 
L 195.832917 100.66116 
L 193.63048 104.25788 
L 192.355385 109.00249 
L 191.196208 109.844276 
L 189.805195 113.976678 
L 188.588059 115.430671 
L 187.081129 118.950865 
L 185.690116 121.017067 
L 184.357062 125.149469 
L 181.806872 128.593137 
L 181.227283 129.970604 
L 178.387299 134.944792 
L 177.981587 136.934467 
L 180.299942 138.847616 
L 180.299942 138.847616 
" clip-path="url(#p1daa1e218e)" style="fill: none; stroke: #000000; stroke-width: 3"/>
   </g>
  </g>
 </g>
 <defs>
  <clipPath id="p1daa1e218e">
   <rect x="7.2" y="7.2" width="295.312001" height="554.4"/>
  </clipPath>
 </defs>
</svg>
