<?xml version="1.0" encoding="utf-8" standalone="no"?>
<!DOCTYPE svg PUBLIC "-//W3C//DTD SVG 1.1//EN"
  "http://www.w3.org/Graphics/SVG/1.1/DTD/svg11.dtd">
<svg xmlns:xlink="http://www.w3.org/1999/xlink" width="251.515636pt" height="568.8pt" viewBox="0 0 251.515636 568.8" xmlns="http://www.w3.org/2000/svg" version="1.1">
 <metadata>
  <rdf:RDF xmlns:dc="http://purl.org/dc/elements/1.1/" xmlns:cc="http://creativecommons.org/ns#" xmlns:rdf="http://www.w3.org/1999/02/22-rdf-syntax-ns#">
   <cc:Work>
    <dc:type rdf:resource="http://purl.org/dc/dcmitype/StillImage"/>
    <dc:date>2023-09-25T14:14:08.282256</dc:date>
    <dc:format>image/svg+xml</dc:format>
    <dc:creator>
     <cc:Agent>
      <dc:title>Matplotlib v3.6.2, https://matplotlib.org/</dc:title>
     </cc:Agent>
    </dc:creator>
   </cc:Work>
  </rdf:RDF>
 </metadata>
 <defs>
  <style type="text/css">*{stroke-linejoin: round; stroke-linecap: butt}</style>
 </defs>
 <g id="figure_1">
  <g id="patch_1">
   <path d="M 0 568.8 
L 251.515636 568.8 
L 251.515636 0 
L 0 0 
z
" style="fill: #ffffff"/>
  </g>
  <g id="axes_1">
   <g id="LineCollection_1">
    <path d="M 225.61299 44.320696 
L 225.347359 44.963478 
L 226.32134 45.372522 
L 229.90736 47.709913 
L 232.740759 48.878609 
L 233.00639 49.521391 
L 231.81105 51.741913 
L 231.191244 52.44313 
L 230.438623 54.196174 
L 227.251049 58.578783 
L 226.188524 60.448696 
L 224.90464 63.662609 
L 224.329106 64.363826 
L 223.133766 67.285565 
L 220.167552 72.661565 
L 216.360172 78.914087 
L 215.651822 81.017739 
L 214.589298 82.420174 
L 211.401724 88.614261 
L 209.055316 92.061913 
L 208.081335 94.165565 
L 206.930267 95.568 
L 205.602111 97.846957 
L 205.690655 98.431304 
L 204.805218 100.359652 
L 203.964052 101.177739 
L 203.388518 102.813913 
L 201.396285 106.027826 
L 199.448323 109.475478 
L 198.872789 110.877913 
L 196.880555 113.799652 
L 196.216477 115.435826 
L 195.5524 115.903304 
L 194.578419 118.29913 
L 192.054923 122.857043 
L 191.435117 124.317913 
L 189.929874 126.830609 
L 188.336087 130.219826 
L 185.724048 134.134957 
L 183.466183 137.991652 
L 182.802105 140.387478 
L 181.606765 141.965217 
L 181.296862 143.250783 
L 179.880162 143.776696 
L 178.463463 145.062261 
L 178.286376 146.289391 
L 178.950453 147.925565 
L 180.809871 149.386435 
L 180.7656 151.957565 
L 179.703075 155.054609 
L 179.437444 156.457043 
L 178.463463 158.151652 
L 178.109288 160.19687 
L 178.419191 162.826435 
L 177.622298 163.819826 
L 176.648317 165.806609 
L 176.338414 167.559652 
L 176.205598 171.883826 
L 175.364433 174.396522 
L 174.523268 174.74713 
L 173.726374 176.32487 
L 173.283656 179.772522 
L 172.265403 182.109913 
L 171.645597 182.694261 
L 169.56482 186.667826 
L 168.85647 189.355826 
L 167.749674 190.699826 
L 166.155887 194.498087 
L 165.358994 195.725217 
L 165.358994 197.653565 
L 166.377246 198.121043 
L 166.200159 199.17287 
L 164.916275 201.568696 
L 164.07511 202.445217 
L 164.030838 203.20487 
L 163.012585 205.250087 
L 162.569867 205.600696 
L 161.285983 209.282087 
L 161.064623 212.145391 
L 160.223458 213.197217 
L 160.312002 213.72313 
L 159.426565 215.30087 
L 159.55938 215.943652 
L 157.744234 215.651478 
L 156.637438 216.995478 
L 155.309282 220.618435 
L 153.626952 222.897391 
L 153.626952 223.540174 
L 152.652971 225.468522 
L 151.811805 227.805913 
L 149.465397 231.896348 
L 148.137241 234.818087 
L 146.986173 235.811478 
L 146.941901 236.688 
L 145.923649 238.908522 
L 144.639765 240.077217 
L 142.426172 244.226087 
L 141.850638 245.570087 
L 140.920929 246.680348 
L 139.637045 249.835826 
L 137.954714 252.582261 
L 137.733355 253.809391 
L 136.051025 257.023304 
L 134.9885 258.07513 
L 133.261898 261.698087 
L 132.465004 262.457739 
L 131.756655 263.801739 
L 131.535295 265.145739 
L 130.782674 266.256 
L 129.675877 268.593391 
L 128.967528 269.236174 
L 126.798207 272.800696 
L 123.256458 279.988174 
L 122.548108 280.747826 
L 120.157428 284.95513 
L 119.227719 286.825043 
L 115.730242 292.785391 
L 114.889077 294.538435 
L 113.29529 296.700522 
L 111.878591 299.73913 
L 109.089464 304.00487 
L 107.052959 308.153739 
L 104.883638 312.127304 
L 104.042472 314.347826 
L 103.112763 315.516522 
L 101.740336 318.262957 
L 100.367908 320.249739 
L 99.349656 322.762435 
L 97.844412 325.333565 
L 97.180335 327.203478 
L 94.789654 330.709565 
L 94.21412 330.943304 
L 91.513537 330.242087 
L 90.495284 330.709565 
L 88.414507 330.592696 
L 87.706157 330.88487 
L 85.049846 331.177043 
L 83.146156 331.761391 
L 82.216447 331.702957 
L 80.357029 332.462609 
L 78.984602 332.521043 
L 76.771009 333.163826 
L 73.494891 333.865043 
L 71.856833 334.449391 
L 70.927124 334.215652 
L 68.802075 334.624696 
L 65.216054 334.975304 
L 62.471199 335.618087 
L 56.361683 336.786783 
L 56.184596 337.254261 
L 54.280906 338.072348 
L 54.280906 341.578435 
L 54.103818 343.623652 
L 54.059546 347.246609 
L 53.351197 352.622609 
L 52.775663 355.427478 
L 52.598575 357.414261 
L 52.642847 360.043826 
L 52.288672 364.952348 
L 52.332944 367.17287 
L 52.111585 370.153043 
L 51.536051 372.841043 
L 51.226148 379.444174 
L 51.004788 381.372522 
L 50.871973 387.33287 
L 50.207895 392.650435 
L 48.968283 399.662609 
L 48.702652 402.292174 
L 47.772943 408.018783 
L 47.197409 412.752 
L 46.976049 413.511652 
L 45.913525 419.997913 
L 45.160903 422.685913 
L 44.452554 426.133565 
L 43.345757 434.314435 
L 42.681679 436.82713 
L 42.017602 441.034435 
L 41.574883 442.20313 
L 40.866533 446.001391 
L 40.379543 447.57913 
L 40.158184 450.033391 
L 38.830028 454.825043 
L 38.210222 456.519652 
L 38.298766 457.337739 
L 37.103425 459.792 
L 36.749251 461.837217 
L 37.014882 463.239652 
L 36.129445 466.62887 
L 35.288279 468.557217 
L 34.491386 469.609043 
L 33.16323 472.530783 
L 32.720512 474.225391 
L 33.340318 475.569391 
L 33.207502 476.796522 
L 33.827308 479.250783 
L 32.941871 481.120696 
L 32.233521 484.685217 
L 32.543424 485.44487 
L 31.923618 487.197913 
L 30.993909 492.632348 
L 30.374103 495.320348 
L 29.001676 500.345739 
L 28.780316 502.332522 
L 28.16051 502.8 
L 27.496433 504.728348 
L 27.540704 505.838609 
L 26.610995 507.650087 
L 25.504199 512.266435 
L 23.998956 516.24 
L 23.423422 517.116522 
L 19.57177 517.642435 
L 18.110799 517.46713 
L 17.977983 518.285217 
L 18.509246 519.220174 
L 19.08478 518.986435 
L 27.230801 521.090087 
L 21.608276 520.213565 
L 19.306139 519.220174 
L 19.306139 518.928 
L 21.962451 519.220174 
L 23.069247 518.869565 
L 23.821869 517.525565 
L 24.707306 516.649043 
L 26.655267 516.941217 
L 28.514685 517.584 
L 29.710025 517.058087 
L 31.835075 517.116522 
L 33.428861 517.934609 
L 34.402842 519.103304 
L 34.845561 520.505739 
L 34.048667 523.135304 
L 34.447114 524.946783 
L 34.668473 527.459478 
L 35.908085 529.037217 
L 38.387309 530.556522 
L 39.184203 530.673391 
L 41.929058 530.381217 
L 42.94731 531.082435 
L 43.080126 532.426435 
L 43.832748 534.179478 
L 45.515078 536.4 
L 47.994302 535.990957 
L 51.403235 534.705391 
L 58.132557 532.660174 
L 59.682072 531.725217 
L 64.064986 528.277565 
L 65.658773 526.816696 
L 66.588482 525.414261 
L 67.473919 525.355826 
L 68.182269 526.466087 
L 69.953143 525.472696 
L 69.953143 524.596174 
L 70.661493 522.901565 
L 71.812561 522.025043 
L 72.919357 521.908174 
L 74.070426 520.797913 
L 73.981882 520.213565 
L 77.213727 518.285217 
L 78.010621 516.882783 
L 80.179942 515.305043 
L 81.729457 513.66887 
L 80.976835 512.558609 
L 75.619941 515.188174 
L 76.018387 516.006261 
L 90.583828 506.94887 
L 92.398974 506.890435 
L 97.667325 500.988522 
L 98.862665 500.287304 
L 97.31315 505.020522 
L 98.685578 505.37113 
L 99.92519 507.065739 
L 101.518977 506.189217 
L 101.253345 505.312696 
L 102.670045 503.851826 
L 102.80286 504.903652 
L 104.131016 506.306087 
L 105.547715 506.832 
L 119.316263 492.573913 
L 122.016846 491.580522 
L 124.584614 490.178087 
L 128.524809 489.24313 
L 131.535295 488.13287 
L 132.420732 487.431652 
L 124.938789 491.405217 
L 125.20442 492.340174 
L 127.10811 492.749217 
L 127.816459 494.034783 
L 127.019566 493.742609 
L 143.444425 487.490087 
L 145.348114 486.438261 
L 146.587726 486.087652 
L 147.517435 486.262957 
L 149.731028 485.561739 
L 151.324815 484.568348 
L 152.254524 484.393043 
L 148.270057 487.256348 
L 148.358601 487.490087 
L 146.277823 488.249739 
L 146.145008 488.892522 
L 147.296076 489.944348 
L 149.908116 488.950957 
L 150.218019 489.769043 
L 152.918602 489.067826 
L 158.408312 487.197913 
L 160.621905 486.730435 
L 159.736468 487.314783 
L 161.153167 487.490087 
L 163.145401 488.541913 
L 164.119382 488.366609 
L 167.17414 485.328 
L 170.892976 484.860522 
L 176.781133 483.458087 
L 179.437444 482.698435 
L 176.382686 485.035826 
L 177.578026 484.685217 
L 186.388125 481.529739 
L 193.737254 478.49113 
L 195.508128 477.030261 
L 196.083662 476.03687 
L 198.120167 473.874783 
L 199.226964 472.063304 
L 200.466576 469.141565 
L 201.617644 465.577043 
L 202.281722 464.466783 
L 204.318227 459.441391 
L 205.070849 456.928696 
L 206.177645 454.474435 
L 207.505801 450.676174 
L 208.878228 447.57913 
L 210.649103 442.612174 
L 211.53454 439.74887 
L 213.615317 419.764174 
L 213.526773 418.829217 
L 214.545026 412.810435 
L 215.961725 409.070609 
L 219.282115 402.11687 
L 217.7326 401.824696 
L 218.263862 400.77287 
L 216.802891 402 
L 215.12056 401.123478 
L 214.102307 400.130087 
L 212.110074 399.662609 
L 210.472015 398.786087 
L 210.294928 397.734261 
L 211.445996 395.922783 
L 213.172599 392.241391 
L 212.906967 391.481739 
L 210.649103 389.553391 
L 209.320947 389.085913 
L 206.841723 387.040696 
L 205.070849 386.690087 
L 202.635897 385.170783 
L 199.404051 384.294261 
L 198.164439 383.417739 
L 194.932594 380.61287 
L 193.073176 379.853217 
L 193.383079 378.801391 
L 195.198225 376.58087 
L 195.685215 375.00313 
L 196.969099 373.542261 
L 197.23473 372.607304 
L 196.836283 371.730783 
L 190.416864 367.932522 
L 186.565213 366.296348 
L 183.554727 364.368 
L 178.950453 362.089043 
L 176.648317 360.803478 
L 174.788899 359.517913 
L 171.557053 358.407652 
L 166.819965 355.894957 
L 165.713168 354.609391 
L 164.5621 353.849739 
L 161.684429 352.564174 
L 160.002099 352.038261 
L 157.035885 350.577391 
L 155.353554 349.233391 
L 154.335301 348.999652 
L 152.962874 347.947826 
L 152.652971 346.603826 
L 151.723262 345.552 
L 149.642485 344.617043 
L 149.111222 344.09113 
L 145.746561 342.74713 
L 144.418405 341.812174 
L 145.126755 337.37113 
L 146.897629 334.449391 
L 147.118989 332.521043 
L 147.738795 330.65113 
L 143.532968 327.670957 
L 141.89491 325.976348 
L 138.308889 323.814261 
L 136.847918 323.580522 
L 135.431219 322.82087 
L 134.103063 322.58713 
L 132.199373 321.36 
L 130.738402 320.834087 
L 128.967528 319.665391 
L 127.905003 318.379826 
L 126.665391 318.087652 
L 125.602866 317.21113 
L 124.053351 316.743652 
L 123.566361 316.042435 
L 122.371021 315.808696 
L 119.670438 314.114087 
L 119.847525 313.354435 
L 123.433546 309.088696 
L 124.540342 306.926609 
L 126.178401 304.647652 
L 127.10811 302.485565 
L 127.683644 301.725913 
L 128.259178 299.914435 
L 129.587334 298.102957 
L 130.162868 296.758957 
L 131.800926 294.304696 
L 132.376461 292.201043 
L 134.235878 289.746783 
L 134.944228 288.110609 
L 135.785393 287.000348 
L 136.228112 285.481043 
L 137.37918 284.429217 
L 138.530249 282.851478 
L 138.972967 281.624348 
L 140.522482 279.345391 
L 140.920929 278.059826 
L 141.983453 276.657391 
L 144.197046 272.742261 
L 146.322095 267.424696 
L 148.535688 264.444522 
L 148.978407 263.158957 
L 150.572194 260.295652 
L 151.900349 258.951652 
L 151.988893 257.373913 
L 152.87433 255.679304 
L 152.962874 253.283478 
L 153.715495 251.764174 
L 156.150447 248.842435 
L 156.725982 248.433391 
L 158.408312 245.511652 
L 160.179186 243.408 
L 159.78074 242.882087 
L 160.134914 241.888696 
L 161.418798 241.012174 
L 162.835498 238.966957 
L 163.278216 237.564522 
L 165.181906 234.058435 
L 166.200159 231.370435 
L 166.775693 230.610783 
L 169.520548 228.799304 
L 169.432004 227.221565 
L 171.114335 225.468522 
L 171.645597 225.293217 
L 172.132588 222.780522 
L 173.593559 221.261217 
L 174.390452 219.157565 
L 175.76288 218.397913 
L 176.869676 217.404522 
L 176.559773 216.235826 
L 176.913948 215.30087 
L 178.15356 214.190609 
L 179.614531 210.976696 
L 180.632784 209.749565 
L 180.7656 209.048348 
L 182.138027 207.704348 
L 183.64327 206.710957 
L 183.953173 204.724174 
L 185.325601 204.198261 
L 185.281329 201.568696 
L 186.432397 199.874087 
L 187.096475 197.069217 
L 188.070456 195.842087 
L 188.468903 194.439652 
L 189.929874 192.745043 
L 190.638224 191.517913 
L 190.682495 190.524522 
L 192.364826 188.537739 
L 193.604438 185.849739 
L 195.242497 184.973217 
L 195.596672 183.453913 
L 196.52638 181.876174 
L 197.633177 180.765913 
L 198.164439 179.129739 
L 199.049876 178.603826 
L 199.891042 177.142957 
L 199.802498 176.208 
L 200.953566 173.40313 
L 199.581139 172.000696 
L 197.013371 171.124174 
L 195.729487 170.072348 
L 192.586185 168.319304 
L 190.815311 167.734957 
L 188.247543 165.865043 
L 187.229291 164.813217 
L 186.166766 164.404174 
L 186.432397 165.046957 
L 184.484436 163.878261 
L 182.669289 163.177043 
L 180.809871 161.891478 
L 179.658803 161.54087 
L 177.799385 160.138435 
L 176.47123 158.794435 
L 176.028511 157.801043 
L 176.426958 156.690783 
L 177.179579 156.281739 
L 177.932201 154.879304 
L 177.710842 153.593739 
L 178.374919 152.834087 
L 178.729094 151.256348 
L 179.570259 150.78887 
L 180.234337 149.737043 
L 182.182299 147.925565 
L 182.359386 145.997217 
L 181.783852 144.536348 
L 182.580746 142.374261 
L 183.731814 140.679652 
L 184.484436 138.809739 
L 185.192785 138.050087 
L 187.804825 132.265043 
L 189.000165 130.862609 
L 194.666963 120.694957 
L 195.508128 119.64313 
L 196.083662 118.123826 
L 199.669682 111.403826 
L 199.713954 110.936348 
L 201.661916 107.664 
L 204.14114 103.982609 
L 204.982305 102.288 
L 206.266189 100.534957 
L 207.284442 98.080696 
L 209.852209 93.405913 
L 211.047549 90.659478 
L 212.198618 89.140174 
L 215.209104 83.413565 
L 215.961725 82.420174 
L 217.245609 79.907478 
L 217.7326 78.388174 
L 219.41493 75.52487 
L 220.300367 73.479652 
L 222.912407 69.506087 
L 225.303087 65.123478 
L 228.00367 60.682435 
L 228.800564 59.805913 
L 230.12872 56.416696 
L 231.501147 54.371478 
L 233.537652 49.75513 
L 231.545419 48.528 
L 229.951632 47.826783 
L 229.508914 47.184 
L 226.80833 45.138783 
L 223.399397 43.327304 
L 222.115514 43.03513 
L 217.776872 40.873043 
L 217.112794 40.054957 
L 214.102307 38.418783 
L 212.72988 37.366957 
L 209.498034 35.730783 
L 209.365219 35.029565 
L 210.206384 34.094609 
L 209.852209 33.276522 
L 210.737646 32.4 
L 212.72988 33.042783 
L 213.615317 33.802435 
L 218.573765 36.31513 
L 221.584251 37.250087 
L 221.982698 38.243478 
L 220.698814 41.165217 
L 221.849882 42.859826 
L 223.974931 44.145391 
L 223.974931 44.145391 
" clip-path="url(#pe1f4948a5d)" style="fill: none; stroke: #000000; stroke-width: 3"/>
   </g>
  </g>
 </g>
 <defs>
  <clipPath id="pe1f4948a5d">
   <rect x="7.2" y="7.2" width="237.115636" height="554.4"/>
  </clipPath>
 </defs>
</svg>
