<?xml version="1.0" encoding="utf-8" standalone="no"?>
<!DOCTYPE svg PUBLIC "-//W3C//DTD SVG 1.1//EN"
  "http://www.w3.org/Graphics/SVG/1.1/DTD/svg11.dtd">
<svg xmlns:xlink="http://www.w3.org/1999/xlink" width="480.483737pt" height="568.8pt" viewBox="0 0 480.483737 568.8" xmlns="http://www.w3.org/2000/svg" version="1.1">
 <metadata>
  <rdf:RDF xmlns:dc="http://purl.org/dc/elements/1.1/" xmlns:cc="http://creativecommons.org/ns#" xmlns:rdf="http://www.w3.org/1999/02/22-rdf-syntax-ns#">
   <cc:Work>
    <dc:type rdf:resource="http://purl.org/dc/dcmitype/StillImage"/>
    <dc:date>2023-09-25T14:14:08.078552</dc:date>
    <dc:format>image/svg+xml</dc:format>
    <dc:creator>
     <cc:Agent>
      <dc:title>Matplotlib v3.6.2, https://matplotlib.org/</dc:title>
     </cc:Agent>
    </dc:creator>
   </cc:Work>
  </rdf:RDF>
 </metadata>
 <defs>
  <style type="text/css">*{stroke-linejoin: round; stroke-linecap: butt}</style>
 </defs>
 <g id="figure_1">
  <g id="patch_1">
   <path d="M 0 568.8 
L 480.483737 568.8 
L 480.483737 0 
L 0 0 
z
" style="fill: #ffffff"/>
  </g>
  <g id="axes_1">
   <g id="LineCollection_1">
    <path d="M 452.098112 43.145921 
L 446.794769 40.54085 
L 444.143097 41.029301 
L 444.019763 43.797189 
L 443.341429 44.367049 
L 442.663094 46.565078 
L 440.134756 50.879729 
L 439.209754 53.077758 
L 436.249748 58.287902 
L 434.523078 59.753255 
L 431.748073 64.637764 
L 430.638071 67.56847 
L 429.034734 69.359457 
L 426.321396 74.65101 
L 424.039725 78.640026 
L 422.991389 79.779745 
L 420.894719 84.257212 
L 418.736381 89.385947 
L 417.194711 91.583977 
L 416.824711 92.805104 
L 415.159708 95.165951 
L 412.81637 99.480601 
L 411.706368 102.167081 
L 409.239696 106.156098 
L 408.068027 107.458634 
L 407.266359 109.982297 
L 404.923021 114.052722 
L 403.011351 118.367372 
L 393.329665 134.079212 
L 391.356328 138.312454 
L 387.841321 143.441189 
L 386.792986 145.964852 
L 383.154645 152.965983 
L 382.10631 155.489646 
L 379.392972 159.560071 
L 379.146304 160.944016 
L 377.666302 164.281764 
L 375.816298 167.21247 
L 374.336295 169.003457 
L 373.411293 171.364303 
L 372.362958 172.178388 
L 369.526286 177.876983 
L 369.402952 179.09811 
L 367.861283 182.110225 
L 365.641278 185.122339 
L 364.83961 185.122339 
L 359.597933 182.110225 
L 357.74793 180.482055 
L 355.404592 179.342336 
L 352.136252 177.144306 
L 344.30457 173.15529 
L 342.207899 172.58543 
L 336.596222 169.736133 
L 334.252884 168.026555 
L 331.601212 167.131061 
L 331.107878 165.095849 
L 328.086205 170.143176 
L 327.654538 173.806558 
L 324.509532 177.225715 
L 323.091196 180.889097 
L 320.254524 184.959522 
L 320.007856 186.506283 
L 315.691181 194.24009 
L 312.977843 199.450234 
L 311.436173 201.404038 
L 308.661168 207.184041 
L 305.947829 211.335875 
L 303.296157 216.138976 
L 301.13782 219.476724 
L 300.151151 220.372218 
L 295.772809 229.652786 
L 292.442803 232.909126 
L 290.654466 236.328283 
L 290.099465 239.584623 
L 288.372795 242.840963 
L 287.32446 243.166597 
L 286.461125 245.608852 
L 284.796121 247.969698 
L 278.197775 260.750832 
L 277.087773 261.890551 
L 276.717772 263.193087 
L 272.956099 269.949992 
L 270.304427 274.183234 
L 268.762757 277.032531 
L 267.036087 279.393377 
L 265.186083 283.626619 
L 259.697739 280.940139 
L 250.139388 275.160136 
L 247.919383 275.892812 
L 246.377714 275.078727 
L 246.192713 274.264642 
L 247.611049 271.415345 
L 249.091052 269.217315 
L 251.927724 263.681538 
L 251.866058 262.867453 
L 255.134397 256.598999 
L 254.456063 255.540688 
L 256.059399 252.284348 
L 258.896071 247.806881 
L 259.821073 245.771669 
L 255.874399 245.201809 
L 254.517729 245.853077 
L 255.442731 244.306316 
L 254.209396 244.957584 
L 253.284394 247.074204 
L 255.196064 244.550541 
L 137.597503 309.351704 
L 133.897496 309.514521 
L 132.725827 310.898466 
L 132.540826 312.445227 
L 133.157494 313.584946 
L 132.602493 317.655371 
L 131.677491 320.667485 
L 131.492491 322.53988 
L 130.382489 327.505799 
L 131.184157 332.715942 
L 128.347485 344.601583 
L 126.867482 346.229753 
L 127.114149 347.695106 
L 131.430824 355.59173 
L 137.474169 367.640187 
L 137.65917 370.570893 
L 135.809166 377.327798 
L 133.959162 379.770053 
L 126.312481 384.898789 
L 121.502472 388.399354 
L 117.987465 392.306962 
L 115.76746 396.703021 
L 114.410791 401.261896 
L 111.635786 404.84387 
L 109.970783 406.064998 
L 107.750778 406.064998 
L 104.050771 405.332321 
L 103.372436 406.227815 
L 101.275766 406.064998 
L 100.659098 407.367534 
L 99.795763 411.193733 
L 99.85743 412.821903 
L 99.240762 415.834017 
L 97.945759 419.253174 
L 96.959091 425.114586 
L 96.219089 426.986981 
L 95.602421 430.975997 
L 94.615753 434.720788 
L 93.999085 438.546988 
L 92.457415 442.21037 
L 91.779081 442.617412 
L 91.22408 447.257697 
L 90.484078 449.374318 
L 89.559076 449.618543 
L 86.290737 449.211501 
L 72.539043 446.199386 
L 68.284035 445.385301 
L 63.289025 443.919948 
L 59.589018 443.26868 
L 53.299006 441.477693 
L 47.255661 440.419383 
L 43.925655 439.361073 
L 41.088982 438.791213 
L 37.820643 438.709805 
L 39.238979 440.989242 
L 38.745644 445.955161 
L 37.820643 449.537135 
L 37.820643 455.561363 
L 37.388975 456.049814 
L 36.648974 462.643902 
L 36.278973 464.272072 
L 35.230638 475.506445 
L 34.860637 476.808981 
L 34.058969 483.32166 
L 32.640633 496.102794 
L 31.653964 503.510968 
L 31.098963 510.267873 
L 30.605629 512.547311 
L 29.988961 518.571539 
L 29.43396 521.339428 
L 28.570625 522.723373 
L 28.755625 524.51436 
L 28.385624 533.632111 
L 34.428969 536.4 
L 35.168971 536.318592 
L 37.018974 534.201971 
L 37.080641 530.050137 
L 37.820643 526.63098 
L 41.70565 528.177742 
L 38.128977 524.025909 
L 38.930645 517.594637 
L 41.33565 519.711258 
L 39.917313 511.896043 
L 40.348981 509.616605 
L 41.212316 501.557164 
L 41.643983 500.905896 
L 45.898992 499.277726 
L 45.960658 500.091811 
L 41.643983 500.66167 
L 40.718982 502.452657 
L 40.163981 507.011533 
L 39.97898 511.896043 
L 38.930645 519.05999 
L 38.498977 523.456049 
L 38.868978 524.107317 
L 38.375644 530.701405 
L 37.820643 534.934647 
L 35.538972 535.992958 
L 29.988961 534.120562 
L 29.248959 533.387886 
L 29.80396 526.956614 
L 30.482295 521.665062 
L 30.543962 517.920271 
L 32.023965 507.418575 
L 33.195634 495.858569 
L 33.935635 492.358004 
L 34.79897 482.426167 
L 37.697309 460.445873 
L 37.758976 455.968406 
L 38.683978 451.328121 
L 39.423979 446.117978 
L 40.472315 440.826425 
L 41.828984 440.337974 
L 43.678987 440.5822 
L 47.625662 442.047553 
L 58.479016 444.245582 
L 64.769028 445.873752 
L 68.777369 446.52502 
L 77.287386 448.804458 
L 83.269064 449.944177 
L 90.360745 450.269811 
L 90.977412 449.618543 
L 92.025748 446.443612 
L 92.642416 446.199386 
L 96.527423 446.932063 
L 97.514092 446.362203 
L 99.549096 439.52389 
L 100.412431 437.488677 
L 105.345774 438.465579 
L 106.579109 437.32586 
L 107.010777 432.929801 
L 107.750778 431.38304 
L 108.120779 428.289517 
L 109.662449 424.381909 
L 109.970783 421.776837 
L 110.957451 417.543596 
L 111.635786 416.078243 
L 113.547456 406.634857 
L 112.869122 404.518236 
L 115.027459 401.180488 
L 117.617464 393.528089 
L 118.912467 391.33006 
L 120.700803 389.13203 
L 127.545817 384.328929 
L 133.774162 379.770053 
L 135.809166 377.327798 
L 137.535836 371.629204 
L 137.905837 368.698498 
L 135.377498 363.651171 
L 133.589162 359.580746 
L 131.677491 356.080181 
L 130.690823 353.637926 
L 127.114149 346.718204 
L 128.594152 344.438766 
L 129.39582 340.856792 
L 130.93749 335.321014 
L 131.245824 333.204393 
L 131.12249 327.017348 
L 133.157494 328.645518 
L 136.179167 329.866645 
L 139.262506 330.355096 
L 139.509173 329.459603 
L 133.465828 329.133969 
L 131.924158 328.645518 
L 131.369157 327.342982 
L 132.294159 324.493684 
L 132.602493 322.051429 
L 133.650828 318.469456 
L 134.637497 316.841286 
L 134.699164 314.073397 
L 133.527495 311.875367 
L 134.39083 309.921564 
L 138.214171 310.002972 
L 262.164411 245.364626 
L 262.041077 248.051106 
L 260.376074 247.481247 
L 260.252741 246.26012 
L 262.349411 244.143499 
L 268.022756 235.025747 
L 270.05776 232.257858 
L 275.114436 227.373348 
L 279.739445 223.465741 
L 281.527782 221.023486 
L 284.549454 215.406299 
L 293.306138 200.182911 
L 301.507821 185.447973 
L 303.974492 180.400646 
L 307.057831 174.702051 
L 306.872831 172.748247 
L 307.8595 170.46881 
L 308.784501 165.502891 
L 308.969502 162.246551 
L 310.017837 156.954999 
L 316.86285 144.336682 
L 319.761189 141.568793 
L 319.267855 138.963722 
L 319.452855 137.498369 
L 318.651187 135.78879 
L 318.527854 131.47414 
L 319.452855 128.136392 
L 320.254524 126.915264 
L 320.007856 124.880052 
L 320.254524 122.193571 
L 320.747858 120.972444 
L 321.241192 116.902019 
L 320.377857 114.622581 
L 321.611193 112.50596 
L 322.967862 111.203424 
L 323.76953 109.412437 
L 325.866201 108.679761 
L 327.654538 107.214408 
L 329.319541 106.56314 
L 331.231211 104.609336 
L 330.367876 101.515813 
L 334.314551 97.282571 
L 336.164554 94.758908 
L 338.569559 92.886513 
L 339.679561 90.200032 
L 341.467898 88.897496 
L 342.516233 87.187918 
L 341.159564 85.47834 
L 338.93956 83.443127 
L 338.261225 83.524536 
L 338.261225 87.187918 
L 340.357896 86.862284 
L 340.85123 87.350735 
L 343.071234 86.943692 
L 353.492921 78.232983 
L 354.356256 76.523405 
L 355.836259 76.197771 
L 357.871263 73.918333 
L 358.611265 71.964529 
L 358.796265 69.929317 
L 361.509604 65.858892 
L 362.92794 64.149314 
L 364.777943 60.648748 
L 366.319613 55.927055 
L 369.094618 49.577193 
L 369.649619 46.402261 
L 371.006289 43.634372 
L 371.252956 41.029301 
L 372.486291 42.820288 
L 375.261297 42.657471 
L 376.987967 43.145921 
L 381.181308 45.995219 
L 387.656321 49.495784 
L 394.686335 53.810435 
L 397.769674 55.275787 
L 399.989678 56.822549 
L 402.086349 56.171281 
L 404.614687 52.833533 
L 405.663022 50.147052 
L 408.499695 45.099725 
L 411.706368 42.006203 
L 413.00137 38.91268 
L 417.009711 32.4 
L 420.833052 33.376902 
L 424.348059 35.65634 
L 426.136395 36.307608 
L 430.021403 38.34282 
L 434.461412 41.029301 
L 439.579755 43.471555 
L 442.231427 45.018317 
L 443.464762 45.181134 
L 445.129766 42.820288 
L 446.363101 41.924794 
L 451.481445 43.634372 
L 451.851445 43.308738 
L 451.851445 43.308738 
" clip-path="url(#pa31486dcd1)" style="fill: none; stroke: #000000; stroke-width: 3"/>
   </g>
  </g>
 </g>
 <defs>
  <clipPath id="pa31486dcd1">
   <rect x="7.2" y="7.2" width="466.083737" height="554.4"/>
  </clipPath>
 </defs>
</svg>
