<?xml version="1.0" encoding="utf-8" standalone="no"?>
<!DOCTYPE svg PUBLIC "-//W3C//DTD SVG 1.1//EN"
  "http://www.w3.org/Graphics/SVG/1.1/DTD/svg11.dtd">
<svg xmlns:xlink="http://www.w3.org/1999/xlink" width="344.159433pt" height="568.8pt" viewBox="0 0 344.159433 568.8" xmlns="http://www.w3.org/2000/svg" version="1.1">
 <metadata>
  <rdf:RDF xmlns:dc="http://purl.org/dc/elements/1.1/" xmlns:cc="http://creativecommons.org/ns#" xmlns:rdf="http://www.w3.org/1999/02/22-rdf-syntax-ns#">
   <cc:Work>
    <dc:type rdf:resource="http://purl.org/dc/dcmitype/StillImage"/>
    <dc:date>2023-09-25T14:14:08.016135</dc:date>
    <dc:format>image/svg+xml</dc:format>
    <dc:creator>
     <cc:Agent>
      <dc:title>Matplotlib v3.6.2, https://matplotlib.org/</dc:title>
     </cc:Agent>
    </dc:creator>
   </cc:Work>
  </rdf:RDF>
 </metadata>
 <defs>
  <style type="text/css">*{stroke-linejoin: round; stroke-linecap: butt}</style>
 </defs>
 <g id="figure_1">
  <g id="patch_1">
   <path d="M 0 568.8 
L 344.159433 568.8 
L 344.159433 0 
L 0 0 
z
" style="fill: #ffffff"/>
  </g>
  <g id="axes_1">
   <g id="LineCollection_1">
    <path d="M 321.970368 48.1743 
L 314.482145 45.286048 
L 310.695966 52.173419 
L 309.60218 53.506458 
L 304.89049 61.504695 
L 302.450507 65.170553 
L 300.262937 69.391845 
L 298.327778 71.946837 
L 295.13056 77.723341 
L 290.250595 85.832665 
L 287.978887 91.053736 
L 285.959591 93.830901 
L 283.351334 99.274146 
L 280.32239 104.495217 
L 278.892055 107.716729 
L 273.423129 117.825612 
L 272.076932 121.15821 
L 269.805224 124.490809 
L 267.449379 129.37862 
L 264.841121 133.488825 
L 263.158375 137.154684 
L 261.559766 139.043156 
L 253.482582 154.150937 
L 251.631561 156.928102 
L 249.191578 161.704827 
L 246.91987 164.481993 
L 244.311613 169.81415 
L 242.460592 171.924796 
L 239.768197 178.589993 
L 237.748902 181.367159 
L 236.907528 184.144324 
L 231.859288 192.697994 
L 230.008267 197.030372 
L 226.474499 202.251444 
L 224.286929 208.250121 
L 222.604182 209.360987 
L 219.82765 216.137271 
L 218.144904 218.359004 
L 216.462157 222.580295 
L 212.760115 227.801367 
L 209.899446 234.91091 
L 208.973935 235.799603 
L 206.61809 242.575887 
L 205.103618 244.575446 
L 200.391928 254.017809 
L 199.971241 255.906282 
L 196.353336 260.127573 
L 193.576804 265.570818 
L 189.958899 270.569716 
L 186.172719 278.123606 
L 184.658247 280.234252 
L 178.095535 293.45356 
L 174.561768 299.785497 
L 172.963158 300.896363 
L 170.859725 305.673088 
L 169.513528 307.561561 
L 166.484584 314.226758 
L 162.866679 320.669782 
L 161.352207 322.669341 
L 156.556379 331.556271 
L 155.126045 335.444302 
L 154.116397 336.555169 
L 149.236432 345.331012 
L 148.142646 346.552965 
L 147.217136 349.552303 
L 143.262681 354.440115 
L 140.1496 360.327706 
L 135.43791 370.214415 
L 134.512399 371.325281 
L 131.988279 376.657439 
L 130.137258 378.990258 
L 128.117962 383.211549 
L 125.762117 386.766321 
L 125.593842 387.988274 
L 122.564898 392.542826 
L 120.293191 396.875204 
L 118.526307 398.98585 
L 113.141518 409.094732 
L 112.216007 411.982984 
L 108.682239 417.870575 
L 108.261552 419.981221 
L 105.400883 423.202733 
L 105.316746 424.980119 
L 103.465725 426.202072 
L 100.77333 430.756623 
L 99.931957 433.755962 
L 96.229914 440.310073 
L 93.53752 445.642231 
L 91.854773 448.197223 
L 87.647907 456.084373 
L 86.049298 459.639145 
L 82.51553 465.415649 
L 77.130741 475.302358 
L 74.522484 479.301477 
L 72.7556 483.522768 
L 69.979068 487.966233 
L 66.613575 494.742517 
L 65.099103 496.63099 
L 62.65912 501.963147 
L 57.610881 510.516817 
L 53.488151 518.9594 
L 51.132306 522.069826 
L 49.617834 525.513511 
L 45.999929 531.734362 
L 45.915792 532.956315 
L 44.064771 536.4 
L 42.129612 534.178268 
L 37.333784 530.956756 
L 30.434523 528.623937 
L 29.004189 526.957637 
L 24.797322 524.180472 
L 22.189065 521.625479 
L 22.862164 517.293101 
L 24.292498 514.404849 
L 23.955949 512.627463 
L 25.470421 511.849857 
L 28.33109 506.295526 
L 31.444171 502.740754 
L 33.800017 498.408376 
L 34.136566 495.63121 
L 35.5669 494.63143 
L 38.679982 488.188406 
L 40.867552 484.966894 
L 44.906144 476.635398 
L 48.439912 471.30324 
L 53.404014 462.194137 
L 56.769507 457.195239 
L 60.639824 450.418955 
L 62.574983 448.863743 
L 64.762553 440.865506 
L 67.875635 435.755521 
L 68.801145 433.533789 
L 71.830089 428.868151 
L 75.532132 422.31404 
L 75.532132 419.981221 
L 76.625917 419.092528 
L 78.224526 415.982103 
L 81.758294 410.983205 
L 81.25347 409.872339 
L 83.44104 406.20648 
L 85.460336 403.873661 
L 86.638259 403.873661 
L 86.806534 402.096275 
L 89.078242 399.652369 
L 91.265812 395.764338 
L 93.958207 394.431298 
L 96.06164 390.543266 
L 98.669897 386.988495 
L 100.77333 385.100022 
L 101.782978 382.87829 
L 101.530566 379.767864 
L 103.718137 377.101785 
L 104.980197 374.102447 
L 103.802274 372.102887 
L 111.038084 358.55032 
L 113.39393 352.329469 
L 118.694581 343.442539 
L 121.386976 339.887767 
L 123.911096 335.555389 
L 127.86555 327.446066 
L 130.38967 323.891294 
L 136.784107 312.449372 
L 139.560639 306.783954 
L 143.178544 300.896363 
L 148.98402 288.121402 
L 152.265375 282.678157 
L 155.041907 277.346 
L 161.688756 266.237337 
L 164.465288 262.016046 
L 166.736996 257.239321 
L 169.429391 252.906943 
L 171.616961 248.019132 
L 173.636257 245.130879 
L 173.804532 243.79784 
L 176.581063 240.465241 
L 176.833475 237.688076 
L 180.872067 231.022879 
L 181.881715 228.134626 
L 184.069286 224.802028 
L 185.331346 221.469429 
L 188.949251 215.026405 
L 192.903705 210.027507 
L 195.091276 205.806216 
L 195.848512 203.02905 
L 198.877456 198.363412 
L 203.084322 194.586467 
L 205.440167 190.365175 
L 206.870502 189.143222 
L 207.375326 186.92149 
L 208.80566 184.588671 
L 210.235995 183.588891 
L 214.106312 176.146088 
L 214.695273 172.813489 
L 216.966981 168.703284 
L 217.976629 165.592859 
L 221.257985 160.149614 
L 224.87589 154.928543 
L 226.13795 154.03985 
L 229.503443 147.15248 
L 232.784799 142.597928 
L 234.215134 138.59881 
L 235.813743 136.377077 
L 237.412352 131.04492 
L 239.095099 127.712321 
L 238.253725 125.379502 
L 239.68406 121.713643 
L 242.544729 117.714525 
L 239.768197 115.048446 
L 241.787493 107.827816 
L 241.955768 102.940004 
L 243.049553 100.051752 
L 243.722652 93.719815 
L 245.910222 87.832224 
L 245.573673 86.388098 
L 246.91987 84.610712 
L 247.761244 80.72268 
L 249.948814 77.056822 
L 251.042599 74.057483 
L 252.641209 72.057924 
L 256.174977 63.059907 
L 258.025998 59.282962 
L 255.501878 57.172317 
L 255.670153 58.505356 
L 257.773586 58.727529 
L 262.232864 53.062112 
L 264.083885 49.729513 
L 266.860417 46.285828 
L 269.973498 40.176063 
L 270.730734 37.621071 
L 273.927953 32.4 
L 276.199661 33.06652 
L 283.519608 38.287591 
L 288.315436 40.064977 
L 294.541598 44.286268 
L 301.10431 47.729954 
L 304.974627 49.17408 
L 307.919434 51.173639 
L 311.032515 50.284946 
L 311.537339 48.1743 
L 314.061459 46.063654 
L 318.015913 48.396473 
L 321.213132 49.285166 
L 321.213132 49.285166 
" clip-path="url(#pc481e3de2c)" style="fill: none; stroke: #000000; stroke-width: 3"/>
   </g>
  </g>
 </g>
 <defs>
  <clipPath id="pc481e3de2c">
   <rect x="7.2" y="7.2" width="329.759433" height="554.4"/>
  </clipPath>
 </defs>
</svg>
