<?xml version="1.0" encoding="utf-8" standalone="no"?>
<!DOCTYPE svg PUBLIC "-//W3C//DTD SVG 1.1//EN"
  "http://www.w3.org/Graphics/SVG/1.1/DTD/svg11.dtd">
<svg xmlns:xlink="http://www.w3.org/1999/xlink" width="297.00253pt" height="568.8pt" viewBox="0 0 297.00253 568.8" xmlns="http://www.w3.org/2000/svg" version="1.1">
 <metadata>
  <rdf:RDF xmlns:dc="http://purl.org/dc/elements/1.1/" xmlns:cc="http://creativecommons.org/ns#" xmlns:rdf="http://www.w3.org/1999/02/22-rdf-syntax-ns#">
   <cc:Work>
    <dc:type rdf:resource="http://purl.org/dc/dcmitype/StillImage"/>
    <dc:date>2023-09-25T14:14:07.476259</dc:date>
    <dc:format>image/svg+xml</dc:format>
    <dc:creator>
     <cc:Agent>
      <dc:title>Matplotlib v3.6.2, https://matplotlib.org/</dc:title>
     </cc:Agent>
    </dc:creator>
   </cc:Work>
  </rdf:RDF>
 </metadata>
 <defs>
  <style type="text/css">*{stroke-linejoin: round; stroke-linecap: butt}</style>
 </defs>
 <g id="figure_1">
  <g id="patch_1">
   <path d="M -0 568.8 
L 297.00253 568.8 
L 297.00253 0 
L -0 0 
z
" style="fill: #ffffff"/>
  </g>
  <g id="axes_1">
   <g id="LineCollection_1">
    <path d="M 177.945043 59.461255 
L 180.927909 61.112881 
L 183.333446 61.239929 
L 191.512273 67.592337 
L 194.880026 68.481674 
L 196.227127 69.625107 
L 197.478006 68.73577 
L 201.134423 63.780892 
L 215.182761 67.33824 
L 218.454292 69.116915 
L 222.688038 73.182455 
L 234.811946 79.02667 
L 239.334356 80.297151 
L 249.341392 84.362692 
L 254.056245 88.428233 
L 255.884453 92.239677 
L 257.905105 100.878951 
L 259.637092 104.055155 
L 262.042629 106.977262 
L 265.602824 109.010033 
L 267.527254 111.423948 
L 270.606342 117.268162 
L 276.956961 124.25581 
L 276.956961 126.542677 
L 275.802303 127.559062 
L 272.819437 134.038518 
L 269.644127 139.628636 
L 269.451684 141.153214 
L 264.351945 148.903151 
L 260.214421 157.923569 
L 257.905105 162.243206 
L 257.327776 165.673506 
L 253.960024 168.976758 
L 253.671359 171.771817 
L 247.416962 181.427477 
L 240.8739 194.005243 
L 238.179698 200.611747 
L 235.774161 204.042047 
L 233.945953 208.107588 
L 227.210448 218.90668 
L 224.901132 223.988606 
L 221.725823 228.689387 
L 217.203413 237.582758 
L 216.626084 239.742576 
L 212.969667 244.189261 
L 209.794357 250.414621 
L 208.6397 251.558054 
L 202.192859 264.516965 
L 194.591361 278.111117 
L 191.223609 283.574187 
L 188.72185 289.164306 
L 185.642762 293.738039 
L 184.776769 296.024905 
L 181.793902 300.471591 
L 180.639245 303.774842 
L 172.171753 317.877187 
L 170.535988 321.307487 
L 165.243805 329.946761 
L 163.223154 335.028687 
L 159.374294 339.60242 
L 158.027193 344.303201 
L 155.717877 348.241694 
L 154.755662 354.721149 
L 152.927454 355.102294 
L 150.040809 357.135064 
L 150.137031 360.692412 
L 148.212601 362.089942 
L 147.923936 360.946509 
L 146.095728 364.122712 
L 144.844848 368.061205 
L 143.882633 367.68006 
L 141.861982 371.11036 
L 141.573318 376.827527 
L 139.745109 376.954575 
L 137.628236 378.860297 
L 134.837813 384.577464 
L 129.256966 390.548727 
L 128.390973 393.470834 
L 124.542113 394.741316 
L 123.483677 395.757701 
L 123.002569 400.458482 
L 119.923481 405.286312 
L 117.229279 413.925586 
L 115.112406 417.10179 
L 113.284198 417.991127 
L 110.397553 424.59763 
L 106.163807 431.331182 
L 104.239378 433.745097 
L 104.335599 437.937686 
L 101.064068 445.052382 
L 98.177423 450.388404 
L 97.407651 453.945752 
L 94.424785 457.503101 
L 92.885241 460.679304 
L 92.78902 465.125989 
L 92.115469 467.539904 
L 89.902375 468.683338 
L 86.919509 471.859541 
L 82.012212 478.720141 
L 82.108434 480.498815 
L 79.221789 487.105319 
L 78.163352 487.613511 
L 76.623809 493.584774 
L 74.12205 497.269171 
L 70.658076 500.06423 
L 69.118532 503.49453 
L 66.616773 506.670734 
L 64.307457 510.990371 
L 61.132148 515.8182 
L 59.97749 518.994404 
L 55.936187 524.07633 
L 52.472213 532.080363 
L 50.451562 535.891807 
L 48.912018 536.4 
L 42.657621 532.9697 
L 40.925634 533.350844 
L 34.575015 529.793496 
L 32.361921 528.014822 
L 26.299967 525.346811 
L 22.162442 525.473859 
L 20.04557 523.314041 
L 20.526677 519.375548 
L 21.681335 516.199345 
L 23.509543 514.166574 
L 25.626416 509.338745 
L 27.454625 507.051878 
L 29.475276 502.986337 
L 33.6128 498.158508 
L 34.86368 494.982304 
L 36.78811 493.330678 
L 38.808761 490.281523 
L 38.038989 488.883993 
L 41.021855 484.818452 
L 44.485829 477.830804 
L 46.987588 474.273456 
L 47.949803 470.970204 
L 51.798663 465.507134 
L 52.568435 462.712075 
L 58.822832 450.388404 
L 63.345242 443.400756 
L 65.654558 439.208167 
L 70.080747 434.88853 
L 70.94674 432.982808 
L 69.407196 431.45823 
L 69.503418 429.806604 
L 71.235405 426.884497 
L 73.544721 420.786186 
L 74.506936 419.388656 
L 79.125567 415.323116 
L 82.878206 413.925586 
L 84.129085 409.097756 
L 87.68928 404.905168 
L 88.170388 402.491253 
L 90.575925 397.790471 
L 92.115469 395.884749 
L 94.424785 390.548727 
L 94.71345 388.007764 
L 96.830322 385.085657 
L 96.349215 382.036501 
L 99.716967 378.225057 
L 101.352733 374.413612 
L 104.624264 369.966927 
L 106.35625 365.774338 
L 105.586479 364.376809 
L 107.60713 361.454701 
L 110.589996 355.610487 
L 113.284198 352.307235 
L 115.882178 348.114646 
L 117.133058 344.049105 
L 118.865045 340.491757 
L 120.789475 338.713083 
L 126.081657 329.184472 
L 126.94765 326.262365 
L 130.700289 319.655861 
L 135.511363 322.959113 
L 136.184914 325.88122 
L 138.013122 327.151702 
L 134.934034 322.832065 
L 134.549148 320.291102 
L 135.31892 317.496042 
L 133.683155 314.573935 
L 134.741591 311.270683 
L 132.336054 309.110865 
L 127.236315 305.807613 
L 123.67612 304.664179 
L 120.885696 302.631409 
L 110.589996 297.295387 
L 106.163807 294.37328 
L 96.734101 289.291354 
L 90.575925 286.242198 
L 86.053515 282.303706 
L 84.706414 274.045576 
L 88.555274 269.980035 
L 89.806153 266.168591 
L 93.558792 258.164558 
L 95.771886 256.131787 
L 96.349215 253.463776 
L 100.390518 246.730224 
L 102.988498 240.631913 
L 105.875143 236.439324 
L 106.35625 234.279506 
L 109.916446 229.070532 
L 112.321983 224.623847 
L 115.497292 217.382102 
L 118.191494 213.824754 
L 119.731038 210.267406 
L 123.002569 205.439577 
L 126.851429 198.32488 
L 128.487194 194.386388 
L 133.202048 187.271691 
L 137.147129 179.14061 
L 140.611103 173.804588 
L 143.978855 166.943988 
L 146.961721 162.370255 
L 149.944588 156.907184 
L 151.676575 152.714595 
L 154.178333 148.903151 
L 160.047845 137.34177 
L 165.147584 129.337736 
L 171.30576 118.157499 
L 173.711297 113.202622 
L 176.597942 108.755936 
L 180.639245 100.751903 
L 181.986345 99.227325 
L 184.969212 92.620822 
L 186.316313 91.096244 
L 187.759635 87.2848 
L 190.64628 84.362692 
L 193.24426 78.010285 
L 194.880026 75.723418 
L 196.41957 71.022637 
L 194.398918 68.862818 
L 189.202958 66.448903 
L 182.467453 61.87517 
L 177.463935 59.334207 
L 176.694163 59.588304 
L 168.13045 54.760474 
L 162.934489 52.473607 
L 157.1612 48.281018 
L 143.112862 39.387648 
L 142.824197 38.117167 
L 144.267519 35.576204 
L 142.631754 35.703252 
L 145.037291 32.4 
L 151.772796 36.846685 
L 161.394946 39.895841 
L 164.762698 44.08843 
L 169.573773 44.72367 
L 171.113317 47.899874 
L 168.611558 52.9818 
L 168.900222 55.522763 
L 171.97931 57.428485 
L 176.213056 59.080111 
L 176.213056 59.080111 
" clip-path="url(#p0a7523eefc)" style="fill: none; stroke: #000000; stroke-width: 3"/>
   </g>
  </g>
 </g>
 <defs>
  <clipPath id="p0a7523eefc">
   <rect x="7.2" y="7.2" width="282.60253" height="554.4"/>
  </clipPath>
 </defs>
</svg>
