<?xml version="1.0" encoding="utf-8" standalone="no"?>
<!DOCTYPE svg PUBLIC "-//W3C//DTD SVG 1.1//EN"
  "http://www.w3.org/Graphics/SVG/1.1/DTD/svg11.dtd">
<svg xmlns:xlink="http://www.w3.org/1999/xlink" width="351.563224pt" height="568.8pt" viewBox="0 0 351.563224 568.8" xmlns="http://www.w3.org/2000/svg" version="1.1">
 <metadata>
  <rdf:RDF xmlns:dc="http://purl.org/dc/elements/1.1/" xmlns:cc="http://creativecommons.org/ns#" xmlns:rdf="http://www.w3.org/1999/02/22-rdf-syntax-ns#">
   <cc:Work>
    <dc:type rdf:resource="http://purl.org/dc/dcmitype/StillImage"/>
    <dc:date>2023-09-25T14:14:07.228060</dc:date>
    <dc:format>image/svg+xml</dc:format>
    <dc:creator>
     <cc:Agent>
      <dc:title>Matplotlib v3.6.2, https://matplotlib.org/</dc:title>
     </cc:Agent>
    </dc:creator>
   </cc:Work>
  </rdf:RDF>
 </metadata>
 <defs>
  <style type="text/css">*{stroke-linejoin: round; stroke-linecap: butt}</style>
 </defs>
 <g id="figure_1">
  <g id="patch_1">
   <path d="M 0 568.8 
L 351.563224 568.8 
L 351.563224 0 
L 0 0 
z
" style="fill: #ffffff"/>
  </g>
  <g id="axes_1">
   <g id="LineCollection_1">
    <path d="M 244.024538 56.185994 
L 249.420876 58.378251 
L 250.749206 59.255154 
L 256.477626 61.557025 
L 258.3871 62.872379 
L 261.790944 61.776251 
L 263.451356 59.583993 
L 268.930715 61.557025 
L 277.813918 63.858895 
L 281.134742 65.503088 
L 284.289524 65.831927 
L 285.202751 67.695346 
L 289.021698 70.545281 
L 297.240737 73.724054 
L 303.716343 77.01244 
L 308.365496 80.191214 
L 309.610805 81.506568 
L 311.022155 84.575729 
L 312.682566 91.262114 
L 313.844855 94.112049 
L 315.671308 96.413919 
L 317.995884 98.277338 
L 320.403481 101.01766 
L 326.547005 109.677077 
L 328.70554 111.759722 
L 329.037623 113.732753 
L 324.637532 122.721009 
L 319.739317 132.257329 
L 317.580781 134.668813 
L 316.750575 136.641844 
L 311.76934 145.191649 
L 310.856113 148.041583 
L 307.867372 153.851066 
L 300.063437 167.552675 
L 298.403025 171.717964 
L 296.493551 174.129448 
L 293.255748 181.144672 
L 289.519822 186.625315 
L 286.614101 192.763636 
L 284.870668 194.955894 
L 284.206504 197.367377 
L 282.712133 198.792344 
L 278.976207 205.47873 
L 276.734651 211.068987 
L 272.168518 218.084211 
L 269.179777 223.78408 
L 267.934468 226.962853 
L 263.866459 234.08769 
L 262.53813 235.622271 
L 259.134285 242.418269 
L 255.315338 247.570074 
L 252.492638 254.585298 
L 250.168061 258.202523 
L 246.183073 265.436973 
L 244.771723 268.944585 
L 240.786735 275.302131 
L 237.964035 280.563549 
L 236.801746 281.550065 
L 233.979046 287.688386 
L 231.073326 291.63445 
L 228.665728 296.238191 
L 226.673234 301.828447 
L 224.265637 305.555285 
L 223.186369 308.843671 
L 219.533463 316.955024 
L 217.457949 319.147281 
L 215.797537 322.545281 
L 213.223898 326.052893 
L 211.97859 330.218182 
L 209.570992 332.520052 
L 208.325684 335.589213 
L 204.340695 342.604437 
L 200.687789 348.413919 
L 198.778316 352.798434 
L 194.710307 357.621401 
L 194.212183 359.594432 
L 191.887607 364.08856 
L 189.895112 366.719269 
L 189.230948 369.240365 
L 187.819598 370.884559 
L 184.664815 376.474815 
L 183.170445 377.242105 
L 181.343992 382.613136 
L 178.770353 385.353458 
L 177.275983 389.737973 
L 172.543809 396.972423 
L 170.136212 401.466551 
L 169.970171 403.32997 
L 167.313512 406.837582 
L 164.905915 411.660548 
L 162.249256 415.277773 
L 159.260514 420.539191 
L 154.860423 430.952414 
L 152.867929 434.350413 
L 150.792414 439.17338 
L 149.048982 440.488734 
L 147.803673 443.229056 
L 144.64889 447.723184 
L 143.071499 450.901957 
L 140.497861 454.299957 
L 140.165778 456.053763 
L 137.59214 459.999826 
L 134.437358 467.672727 
L 133.192049 468.768856 
L 132.527884 471.509178 
L 130.120287 476.441757 
L 127.629669 480.168595 
L 127.380607 483.566594 
L 126.218319 484.005046 
L 124.88999 487.512658 
L 122.980516 487.622271 
L 121.818228 490.362592 
L 119.493651 493.32214 
L 117.501157 497.706655 
L 115.176581 501.214267 
L 112.021798 507.571814 
L 109.116077 511.737103 
L 106.542439 516.340844 
L 105.795254 518.423488 
L 100.149854 527.959809 
L 98.406421 532.234711 
L 95.666742 536.4 
L 93.923309 534.755807 
L 87.613744 531.686646 
L 85.953333 530.480905 
L 80.556994 527.850196 
L 76.239923 526.644454 
L 73.998367 525.219487 
L 70.345461 524.452197 
L 67.439741 523.027229 
L 65.696308 521.383036 
L 60.964135 518.752327 
L 59.801846 517.108134 
L 49.00917 511.517877 
L 45.854387 508.339104 
L 43.778872 508.229491 
L 38.880658 504.941105 
L 34.231504 502.529622 
L 28.835166 500.337364 
L 22.525601 496.610526 
L 22.774663 493.32214 
L 25.929445 488.499174 
L 27.672878 484.991562 
L 30.495578 480.826272 
L 32.405051 477.31866 
L 40.042946 465.48047 
L 42.118461 462.740148 
L 43.197728 459.670987 
L 45.522305 456.382601 
L 47.929902 450.792344 
L 51.250726 445.859765 
L 56.979146 433.911962 
L 59.054661 430.513963 
L 59.386743 428.979382 
L 62.043402 425.033319 
L 63.205691 422.292997 
L 63.786835 422.731448 
L 64.118917 419.771901 
L 66.360473 416.264289 
L 67.605782 412.975903 
L 69.598276 409.797129 
L 71.009626 406.289517 
L 74.911594 400.699261 
L 75.7418 398.39739 
L 78.730541 393.684037 
L 82.383447 389.518747 
L 83.545735 386.230361 
L 87.779786 379.653589 
L 90.602486 375.707525 
L 91.681753 375.269074 
L 92.428939 371.651849 
L 94.753515 367.596172 
L 96.662989 362.992431 
L 100.564957 357.182949 
L 102.723492 354.771466 
L 104.799007 350.496564 
L 107.621707 346.440887 
L 108.534933 343.919791 
L 110.444407 341.069856 
L 111.606695 337.671857 
L 119.493651 324.737538 
L 120.572919 322.216442 
L 122.648434 319.695346 
L 124.474887 316.078121 
L 127.629669 311.803219 
L 131.033513 306.541801 
L 132.112781 302.595737 
L 132.693925 302.266899 
L 137.177037 293.717094 
L 138.422346 292.511353 
L 140.248799 287.359548 
L 142.573376 283.63271 
L 145.645137 279.796259 
L 147.47159 278.261679 
L 149.879188 272.671422 
L 151.456579 270.259939 
L 152.286785 267.62923 
L 155.109485 262.258199 
L 154.777402 260.614006 
L 157.018958 255.681427 
L 157.101979 252.941105 
L 158.59635 251.296912 
L 160.837906 250.529622 
L 162.581338 248.885428 
L 163.079462 246.035494 
L 160.173741 243.075946 
L 158.67937 237.924141 
L 156.520835 236.060722 
L 156.935938 233.868465 
L 159.509576 230.689691 
L 159.841659 228.058982 
L 162.581338 224.441757 
L 162.664359 221.591823 
L 161.834153 218.193823 
L 162.498317 216.220792 
L 164.656853 214.138147 
L 166.732368 208.986342 
L 165.570079 207.122923 
L 164.490812 199.559635 
L 163.411544 197.696216 
L 162.91342 193.859765 
L 161.41905 188.159896 
L 160.256761 180.267769 
L 161.253009 167.881514 
L 160.505823 164.593127 
L 161.253009 162.839321 
L 160.837906 158.783645 
L 159.841659 154.727969 
L 160.505823 149.576164 
L 161.169988 148.918486 
L 160.256761 146.726229 
L 160.505823 143.109004 
L 161.585091 141.135972 
L 161.50207 134.668813 
L 162.498317 129.297782 
L 165.985182 124.694041 
L 166.898409 122.830622 
L 169.306006 119.980687 
L 172.460788 115.157721 
L 174.03818 110.882819 
L 178.106189 103.757982 
L 179.351497 100.469595 
L 182.5893 95.646629 
L 186.076165 88.521792 
L 188.981886 83.918051 
L 190.310215 80.629665 
L 192.219689 78.54702 
L 192.219689 77.560505 
L 195.623533 71.312571 
L 196.204677 69.229926 
L 201.434975 60.789735 
L 202.099139 59.145542 
L 208.823807 47.197738 
L 211.563487 41.16903 
L 214.469207 37.990257 
L 213.971084 34.153806 
L 216.959825 33.16729 
L 218.869299 33.605742 
L 221.027834 32.4 
L 223.435431 33.605742 
L 224.016575 35.140322 
L 226.673234 35.359548 
L 235.805499 40.620966 
L 237.548932 40.730579 
L 236.303623 45.772771 
L 240.869755 49.609221 
L 242.364126 51.911092 
L 242.364126 51.911092 
" clip-path="url(#p26e1fefb2f)" style="fill: none; stroke: #000000; stroke-width: 3"/>
   </g>
  </g>
 </g>
 <defs>
  <clipPath id="p26e1fefb2f">
   <rect x="7.2" y="7.2" width="337.163224" height="554.4"/>
  </clipPath>
 </defs>
</svg>
