<?xml version="1.0" encoding="utf-8" standalone="no"?>
<!DOCTYPE svg PUBLIC "-//W3C//DTD SVG 1.1//EN"
  "http://www.w3.org/Graphics/SVG/1.1/DTD/svg11.dtd">
<svg xmlns:xlink="http://www.w3.org/1999/xlink" width="301.490946pt" height="568.8pt" viewBox="0 0 301.490946 568.8" xmlns="http://www.w3.org/2000/svg" version="1.1">
 <metadata>
  <rdf:RDF xmlns:dc="http://purl.org/dc/elements/1.1/" xmlns:cc="http://creativecommons.org/ns#" xmlns:rdf="http://www.w3.org/1999/02/22-rdf-syntax-ns#">
   <cc:Work>
    <dc:type rdf:resource="http://purl.org/dc/dcmitype/StillImage"/>
    <dc:date>2023-09-25T14:14:06.973851</dc:date>
    <dc:format>image/svg+xml</dc:format>
    <dc:creator>
     <cc:Agent>
      <dc:title>Matplotlib v3.6.2, https://matplotlib.org/</dc:title>
     </cc:Agent>
    </dc:creator>
   </cc:Work>
  </rdf:RDF>
 </metadata>
 <defs>
  <style type="text/css">*{stroke-linejoin: round; stroke-linecap: butt}</style>
 </defs>
 <g id="figure_1">
  <g id="patch_1">
   <path d="M 0 568.8 
L 301.490946 568.8 
L 301.490946 0 
L 0 0 
z
" style="fill: #ffffff"/>
  </g>
  <g id="axes_1">
   <g id="LineCollection_1">
    <path d="M 180.754639 51.501665 
L 182.807383 51.63073 
L 186.619622 54.082971 
L 191.995857 56.793342 
L 199.424836 59.245583 
L 203.139326 54.986428 
L 207.049315 56.535211 
L 214.380545 57.825864 
L 219.268031 59.374648 
L 222.689271 61.697823 
L 223.27577 63.504738 
L 228.163256 67.118566 
L 234.712488 69.958003 
L 242.141467 72.281178 
L 253.284936 78.089117 
L 257.585924 81.57388 
L 259.540918 85.574904 
L 260.909414 92.028169 
L 264.135155 98.739565 
L 267.263146 101.579001 
L 270.977636 103.644046 
L 274.789875 111.000768 
L 281.241357 118.744686 
L 278.797614 124.165429 
L 276.060622 128.424584 
L 275.083124 131.134955 
L 268.827142 141.847375 
L 267.654145 145.074008 
L 263.841906 151.527273 
L 263.255408 153.850448 
L 259.834167 158.496799 
L 258.074672 162.885019 
L 255.33768 166.498848 
L 253.773684 169.596415 
L 250.547943 173.85557 
L 250.547943 175.791549 
L 244.096461 186.7621 
L 238.622477 196.829193 
L 231.291247 208.574136 
L 227.870007 215.285531 
L 228.163256 216.318054 
L 223.960018 220.448143 
L 219.46353 230.257106 
L 216.628788 235.290653 
L 214.185045 238.13009 
L 212.816549 242.260179 
L 209.786307 246.777465 
L 203.432575 260.200256 
L 201.966329 262.00717 
L 199.718086 266.653521 
L 196.199095 272.332394 
L 188.867866 285.884251 
L 188.379117 287.303969 
L 182.611884 296.983867 
L 180.16814 302.791805 
L 177.724397 305.889373 
L 172.934661 314.665813 
L 171.370665 316.730858 
L 169.220171 321.506274 
L 167.851675 320.990013 
L 164.234935 327.959539 
L 161.693442 331.057106 
L 160.227196 336.348784 
L 158.467701 339.317286 
L 158.174452 344.221767 
L 152.993717 349.771575 
L 151.527471 354.676056 
L 147.812981 362.678105 
L 145.466988 364.614085 
L 144.098491 368.873239 
L 140.579501 374.164917 
L 138.624507 379.327529 
L 138.135758 382.296031 
L 133.73702 385.651729 
L 132.173025 390.169014 
L 129.045034 391.975928 
L 125.428294 396.235083 
L 124.059798 399.977977 
L 122.300303 400.881434 
L 119.954309 405.39872 
L 119.074562 408.496287 
L 116.728568 410.948528 
L 115.751071 414.562356 
L 112.818579 417.788988 
L 110.863585 421.144686 
L 109.495088 425.791037 
L 105.976098 434.825608 
L 103.825604 437.923175 
L 102.848107 443.731114 
L 101.577361 444.505506 
L 99.720116 449.539052 
L 97.374122 452.89475 
L 94.53938 458.831754 
L 93.464133 462.316517 
L 90.824891 462.961844 
L 88.478897 465.285019 
L 88.478897 466.446607 
L 83.298162 475.868374 
L 80.561169 483.999488 
L 77.824177 485.548271 
L 76.064682 487.613316 
L 74.793936 491.227145 
L 72.350192 495.228169 
L 70.492948 497.164149 
L 68.049205 501.423303 
L 66.778458 505.424328 
L 64.236965 510.58694 
L 62.67297 515.233291 
L 58.86073 520.912164 
L 58.86073 522.719078 
L 55.634989 526.074776 
L 54.755242 529.172343 
L 52.702498 532.786172 
L 51.725 536.4 
L 46.348765 532.528041 
L 41.950028 531.108323 
L 35.791795 527.107298 
L 31.588557 525.558515 
L 29.926811 526.591037 
L 26.407821 524.655058 
L 22.693332 524.396927 
L 20.249588 521.55749 
L 20.445088 516.782074 
L 23.18208 514.587964 
L 24.550576 511.103201 
L 30.024561 502.972087 
L 31.490807 499.616389 
L 31.490807 496.131626 
L 35.596295 491.743406 
L 37.55129 490.323688 
L 36.867042 488.645839 
L 39.995033 484.128553 
L 40.581531 482.063508 
L 44.491521 475.739309 
L 44.491521 474.706786 
L 48.30376 467.866325 
L 53.875494 460.122407 
L 56.612487 454.443534 
L 58.567481 449.280922 
L 61.499973 443.343918 
L 67.951455 435.987196 
L 69.319951 431.082714 
L 71.861444 426.565429 
L 75.575933 422.435339 
L 75.966932 420.886556 
L 78.410675 418.56338 
L 79.192673 416.36927 
L 81.734166 412.755442 
L 86.035154 410.561332 
L 84.764408 406.044046 
L 84.959907 403.075544 
L 87.696899 403.333675 
L 86.230654 405.39872 
L 86.914902 402.301152 
L 86.328403 400.752369 
L 88.869896 398.558259 
L 92.486636 392.104994 
L 93.561883 386.813316 
L 94.63713 383.97388 
L 93.464133 382.812292 
L 93.366384 379.069398 
L 95.028129 376.617157 
L 98.547119 375.068374 
L 100.697613 371.454545 
L 101.186362 369.260435 
L 104.607602 367.066325 
L 109.00634 357.386428 
L 106.269347 352.740077 
L 106.562597 350.545967 
L 109.104089 346.932138 
L 109.104089 342.156722 
L 106.171598 341.38233 
L 102.261609 348.868118 
L 100.990862 349.255314 
L 101.77286 346.157746 
L 103.141356 345.51242 
L 110.374836 337.768502 
L 117.119567 329.508323 
L 117.412816 329.895519 
L 134.128019 315.053009 
L 134.910017 312.729834 
L 131.195528 309.503201 
L 119.074562 319.441229 
L 119.270061 313.762356 
L 125.428294 302.791805 
L 120.443058 298.661716 
L 110.961334 293.757234 
L 107.344594 290.143406 
L 101.381861 286.529577 
L 97.569622 284.722663 
L 89.163145 280.076312 
L 87.110401 278.269398 
L 86.230654 274.139309 
L 80.36567 269.751088 
L 80.170171 264.330346 
L 81.245418 258.135211 
L 80.170171 255.295775 
L 80.854419 252.972599 
L 80.26792 248.84251 
L 78.997174 247.680922 
L 80.952168 243.679898 
L 80.26792 236.19411 
L 80.561169 233.096543 
L 79.681422 224.707298 
L 79.681422 215.801793 
L 78.899424 213.220487 
L 79.681422 207.412548 
L 79.681422 198.248912 
L 80.072421 196.312932 
L 79.485922 188.439949 
L 79.876921 180.566965 
L 78.606175 175.662484 
L 79.876921 171.274264 
L 78.997174 164.562868 
L 79.681422 160.174648 
L 79.681422 156.173624 
L 81.049918 152.817926 
L 81.538667 145.461204 
L 84.275659 141.589245 
L 86.817152 136.555698 
L 89.651894 132.038412 
L 97.080873 117.841229 
L 99.524616 113.96927 
L 99.817866 112.291421 
L 103.043606 107.128809 
L 103.434605 104.418438 
L 105.585099 101.191805 
L 109.397339 94.222279 
L 111.352333 89.834059 
L 113.698327 86.607426 
L 116.14207 81.57388 
L 117.412816 80.025096 
L 121.518305 71.506786 
L 131.391027 55.115493 
L 138.038008 43.370551 
L 140.677251 39.885787 
L 141.459249 37.175416 
L 144.293991 32.529065 
L 146.933234 32.4 
L 149.181477 33.561588 
L 152.407218 33.690653 
L 155.046461 35.368502 
L 157.783453 38.98233 
L 159.738448 39.627657 
L 167.460676 43.886812 
L 171.272915 47.50064 
L 176.84465 50.598207 
L 179.777141 50.727273 
L 179.777141 50.727273 
" clip-path="url(#p60063dc6bf)" style="fill: none; stroke: #000000; stroke-width: 3"/>
   </g>
  </g>
 </g>
 <defs>
  <clipPath id="p60063dc6bf">
   <rect x="7.2" y="7.2" width="287.090946" height="554.4"/>
  </clipPath>
 </defs>
</svg>
