<?xml version="1.0" encoding="utf-8" standalone="no"?>
<!DOCTYPE svg PUBLIC "-//W3C//DTD SVG 1.1//EN"
  "http://www.w3.org/Graphics/SVG/1.1/DTD/svg11.dtd">
<svg xmlns:xlink="http://www.w3.org/1999/xlink" width="296.688681pt" height="568.8pt" viewBox="0 0 296.688681 568.8" xmlns="http://www.w3.org/2000/svg" version="1.1">
 <metadata>
  <rdf:RDF xmlns:dc="http://purl.org/dc/elements/1.1/" xmlns:cc="http://creativecommons.org/ns#" xmlns:rdf="http://www.w3.org/1999/02/22-rdf-syntax-ns#">
   <cc:Work>
    <dc:type rdf:resource="http://purl.org/dc/dcmitype/StillImage"/>
    <dc:date>2023-09-25T14:14:06.846324</dc:date>
    <dc:format>image/svg+xml</dc:format>
    <dc:creator>
     <cc:Agent>
      <dc:title>Matplotlib v3.6.2, https://matplotlib.org/</dc:title>
     </cc:Agent>
    </dc:creator>
   </cc:Work>
  </rdf:RDF>
 </metadata>
 <defs>
  <style type="text/css">*{stroke-linejoin: round; stroke-linecap: butt}</style>
 </defs>
 <g id="figure_1">
  <g id="patch_1">
   <path d="M 0 568.8 
L 296.688681 568.8 
L 296.688681 0 
L 0 0 
z
" style="fill: #ffffff"/>
  </g>
  <g id="axes_1">
   <g id="LineCollection_1">
    <path d="M 140.704894 170.887369 
L 141.22408 170.887369 
L 149.086035 175.686436 
L 150.421084 177.351419 
L 155.019585 177.057598 
L 157.393006 173.531753 
L 160.433951 174.804975 
L 165.996654 176.176137 
L 170.446818 178.13494 
L 176.528707 182.934007 
L 178.827958 184.207229 
L 182.462258 185.382511 
L 190.472552 188.614536 
L 194.106852 190.475398 
L 198.853692 194.001244 
L 199.669556 195.470346 
L 201.227113 200.857054 
L 201.894637 204.284959 
L 205.15809 209.084026 
L 207.160663 210.455188 
L 211.16581 216.331597 
L 212.35252 217.213059 
L 215.541804 220.836844 
L 215.764312 221.914186 
L 213.761739 226.027672 
L 210.794963 230.043218 
L 205.380598 239.641353 
L 205.15809 240.620754 
L 202.191315 244.6363 
L 201.59796 246.497163 
L 199.447047 249.827128 
L 198.260337 252.863272 
L 194.922715 259.327322 
L 192.400956 262.167586 
L 191.436754 267.260474 
L 191.510923 268.533696 
L 189.43418 272.451302 
L 187.209099 274.410105 
L 183.203952 282.343257 
L 181.943072 282.735017 
L 178.60545 290.178469 
L 176.602877 293.410494 
L 175.267828 297.034279 
L 172.968577 299.874543 
L 170.446818 305.653012 
L 166.960856 311.627361 
L 163.623234 315.544967 
L 162.362355 318.972872 
L 162.065677 321.813136 
L 159.024732 327.101904 
L 158.1347 327.983366 
L 157.244667 330.72569 
L 155.093755 333.565954 
L 154.945416 335.035056 
L 150.124406 340.030004 
L 149.382712 342.380567 
L 146.564275 346.494054 
L 144.561702 351.097241 
L 143.5975 352.272522 
L 139.666523 360.499495 
L 137.738119 363.241819 
L 136.699747 363.9274 
L 136.625578 365.396502 
L 134.103819 369.705869 
L 132.323753 373.917295 
L 129.208639 379.793704 
L 125.426001 385.082472 
L 123.942613 388.804197 
L 119.41828 396.541469 
L 119.047433 400.361135 
L 119.344111 403.78904 
L 117.786554 404.964322 
L 117.119029 407.804586 
L 115.561472 409.861329 
L 113.855576 410.742791 
L 111.927172 413.093354 
L 109.553752 418.480062 
L 109.034566 420.438865 
L 106.512807 423.083249 
L 106.438638 424.552351 
L 105.177758 426.217334 
L 103.397693 426.511154 
L 101.765967 428.567897 
L 101.172611 430.918461 
L 100.430918 430.820521 
L 99.392546 434.542246 
L 97.76082 435.717528 
L 97.76082 437.18663 
L 96.425771 437.578391 
L 95.461569 442.573339 
L 93.829842 444.336261 
L 93.310657 447.568286 
L 91.67893 451.681772 
L 90.195542 452.954994 
L 89.30551 454.913797 
L 88.1188 455.893199 
L 85.522871 460.594326 
L 83.742806 465.785154 
L 81.443555 468.625418 
L 81.888571 471.073921 
L 79.885998 472.543024 
L 78.47678 474.795647 
L 76.474206 476.55857 
L 75.213327 479.496774 
L 75.510004 481.063817 
L 74.174955 483.806141 
L 70.837333 485.960824 
L 69.131437 488.507268 
L 67.57388 489.68255 
L 64.977951 494.481617 
L 64.903782 496.73424 
L 64.013749 500.358026 
L 61.195313 503.19829 
L 58.599384 508.682938 
L 58.747723 510.347921 
L 56.151794 512.306724 
L 55.48427 514.461407 
L 56.225964 517.693432 
L 54.22339 518.868714 
L 52.369156 521.904858 
L 48.809025 524.941003 
L 46.583944 528.173028 
L 45.990589 529.83801 
L 44.284693 531.307112 
L 43.246321 534.930898 
L 41.317917 536.4 
L 39.463683 535.714419 
L 31.527558 529.83801 
L 30.044171 528.466848 
L 24.703975 526.508045 
L 22.627232 526.605985 
L 22.256385 527.781267 
L 20.772998 528.173028 
L 20.031304 526.899806 
L 21.959708 523.37396 
L 22.033877 521.806918 
L 21.143844 519.260474 
L 21.366353 517.595492 
L 22.84974 515.440808 
L 27.596581 511.229382 
L 28.857461 509.368519 
L 32.936777 502.023008 
L 35.384367 500.162145 
L 36.496907 496.34248 
L 38.944497 492.326934 
L 39.612021 488.996969 
L 41.02124 487.429926 
L 41.837103 483.806141 
L 43.172152 480.867936 
L 45.471403 478.811193 
L 45.619742 477.146211 
L 47.473976 471.171862 
L 50.737429 466.862495 
L 51.701631 463.43459 
L 53.259188 460.594326 
L 54.371729 457.264361 
L 56.893488 454.619977 
L 57.338505 452.171473 
L 59.341078 450.11473 
L 61.49199 446.490944 
L 64.607104 444.434201 
L 66.090492 442.279518 
L 66.609678 439.439254 
L 65.867984 438.068092 
L 68.834759 433.171084 
L 70.466486 432.289623 
L 70.169808 431.408162 
L 72.765737 425.727633 
L 74.323294 424.650291 
L 75.287496 422.397668 
L 76.548375 421.516207 
L 77.809255 418.675942 
L 79.218473 417.30478 
L 80.405184 414.856277 
L 85.152024 410.25309 
L 87.822122 408.588107 
L 88.860493 403.201399 
L 92.494793 399.773494 
L 93.310657 398.500272 
L 92.123946 393.897085 
L 93.978181 390.860941 
L 92.049777 388.804197 
L 95.239061 387.041275 
L 96.870787 386.943335 
L 99.095869 383.417489 
L 99.170038 380.968986 
L 101.098442 374.896696 
L 102.359322 374.504936 
L 102.878507 372.937894 
L 105.845283 371.272911 
L 106.21613 368.236766 
L 107.180332 365.984143 
L 105.696944 363.339759 
L 105.103589 360.597435 
L 102.655999 358.736572 
L 100.950103 356.777769 
L 100.727595 354.721026 
L 101.840136 351.782822 
L 105.177758 348.648737 
L 107.254501 346.102293 
L 108.441211 342.478508 
L 112.743036 333.076253 
L 116.599844 326.808084 
L 119.41828 324.26164 
L 122.904241 322.792538 
L 126.464372 322.988418 
L 132.620431 326.318383 
L 137.218933 326.024563 
L 139.814861 324.849281 
L 141.965774 322.792538 
L 145.080888 317.993471 
L 146.415937 314.565565 
L 147.454308 312.998523 
L 150.050237 310.550019 
L 154.945416 307.709755 
L 157.615514 304.771551 
L 160.433951 299.580723 
L 161.768999 295.271356 
L 161.843169 292.529032 
L 159.098902 285.771162 
L 159.543918 280.874155 
L 163.029879 275.781267 
L 164.735775 273.822464 
L 167.405873 271.667781 
L 170.446818 270.100738 
L 172.449391 267.848115 
L 172.968577 266.476953 
L 172.968577 262.167586 
L 174.006948 257.5644 
L 175.119489 254.822075 
L 176.15786 249.533307 
L 179.347144 241.404275 
L 181.572225 238.07431 
L 186.022389 233.471123 
L 190.250044 227.594714 
L 191.88177 224.264749 
L 193.06848 220.836844 
L 197.296135 213.981034 
L 199.966233 211.43459 
L 202.858839 209.867548 
L 208.124865 208.496386 
L 216.506006 209.475787 
L 220.066137 208.202565 
L 222.513726 206.243762 
L 225.109655 202.326156 
L 231.043206 192.532141 
L 232.229916 189.789817 
L 237.199265 181.073144 
L 240.017701 175.490556 
L 247.286301 162.758337 
L 248.695519 159.722192 
L 249.80806 155.021065 
L 249.733891 147.381733 
L 250.549754 143.660008 
L 250.030568 139.252701 
L 247.212132 133.768053 
L 246.692946 130.927789 
L 246.989623 128.968986 
L 249.140536 123.680218 
L 252.25565 118.48939 
L 255.074087 114.865604 
L 260.562621 109.087136 
L 263.603566 105.16953 
L 264.122752 103.700428 
L 264.419429 99.880762 
L 264.122752 96.648737 
L 264.419429 91.84967 
L 265.606139 85.973261 
L 266.867019 81.957715 
L 269.388778 78.82363 
L 275.396498 75.101904 
L 276.657378 72.751341 
L 276.509039 70.890478 
L 274.803143 68.735795 
L 271.53969 67.952274 
L 268.127898 69.225496 
L 265.161123 71.478119 
L 261.452654 71.380179 
L 259.969266 70.302837 
L 259.227572 67.070812 
L 259.969266 65.60171 
L 262.639364 62.663506 
L 265.53197 58.84384 
L 268.795423 52.47773 
L 269.611286 48.951885 
L 269.537117 46.601321 
L 268.202068 43.663117 
L 264.122752 39.549631 
L 260.933468 37.297007 
L 258.040862 35.729965 
L 254.258223 34.554683 
L 248.027995 33.379401 
L 245.209558 32.4 
L 242.094444 32.889701 
L 240.017701 34.652623 
L 238.682652 37.003187 
L 238.237636 39.941391 
L 238.756822 41.998134 
L 239.869362 43.075476 
L 243.058646 44.348698 
L 246.470438 46.209561 
L 247.805487 48.658065 
L 248.398842 53.457132 
L 249.88223 59.03972 
L 249.80806 62.075865 
L 248.992197 64.622309 
L 246.17376 68.735795 
L 241.649428 71.380179 
L 238.608483 72.26164 
L 235.270861 75.003964 
L 233.639134 78.040109 
L 232.304085 82.937116 
L 229.782326 85.38562 
L 227.557244 86.462962 
L 221.994541 88.030004 
L 217.099361 89.890867 
L 213.242553 89.107346 
L 208.199035 85.77738 
L 203.526364 84.014458 
L 200.856266 81.468014 
L 190.917568 75.885426 
L 189.953366 74.220443 
L 187.950793 73.338982 
L 184.68734 75.983366 
L 183.352291 78.333929 
L 179.495483 81.565954 
L 177.937926 83.426817 
L 178.160434 85.18974 
L 176.306199 89.205286 
L 175.416166 89.792927 
L 174.155287 93.710532 
L 171.856036 95.473455 
L 170.15014 99.293121 
L 168.295905 101.251924 
L 166.59001 104.777769 
L 165.254961 106.638632 
L 163.697404 107.226273 
L 161.620661 110.164477 
L 160.137273 110.947998 
L 157.170498 116.432647 
L 156.354634 117.216168 
L 154.352061 121.133774 
L 152.646165 123.680218 
L 150.8661 129.556627 
L 148.937696 132.10307 
L 147.750986 135.530976 
L 145.748412 137.685659 
L 143.968347 141.407384 
L 142.188282 143.660008 
L 141.372418 146.989973 
L 139.147337 150.907579 
L 136.477239 154.237544 
L 136.3289 156.098407 
L 133.362125 159.330431 
L 133.510464 161.876875 
L 136.032223 164.129499 
L 136.477239 165.1089 
L 136.477239 165.1089 
" clip-path="url(#p4428502f21)" style="fill: none; stroke: #000000; stroke-width: 3"/>
   </g>
  </g>
 </g>
 <defs>
  <clipPath id="p4428502f21">
   <rect x="7.2" y="7.2" width="282.288681" height="554.4"/>
  </clipPath>
 </defs>
</svg>
