<?xml version="1.0" encoding="utf-8" standalone="no"?>
<!DOCTYPE svg PUBLIC "-//W3C//DTD SVG 1.1//EN"
  "http://www.w3.org/Graphics/SVG/1.1/DTD/svg11.dtd">
<svg xmlns:xlink="http://www.w3.org/1999/xlink" width="315.872748pt" height="568.8pt" viewBox="0 0 315.872748 568.8" xmlns="http://www.w3.org/2000/svg" version="1.1">
 <metadata>
  <rdf:RDF xmlns:dc="http://purl.org/dc/elements/1.1/" xmlns:cc="http://creativecommons.org/ns#" xmlns:rdf="http://www.w3.org/1999/02/22-rdf-syntax-ns#">
   <cc:Work>
    <dc:type rdf:resource="http://purl.org/dc/dcmitype/StillImage"/>
    <dc:date>2023-09-25T14:14:06.401823</dc:date>
    <dc:format>image/svg+xml</dc:format>
    <dc:creator>
     <cc:Agent>
      <dc:title>Matplotlib v3.6.2, https://matplotlib.org/</dc:title>
     </cc:Agent>
    </dc:creator>
   </cc:Work>
  </rdf:RDF>
 </metadata>
 <defs>
  <style type="text/css">*{stroke-linejoin: round; stroke-linecap: butt}</style>
 </defs>
 <g id="figure_1">
  <g id="patch_1">
   <path d="M 0 568.8 
L 315.872748 568.8 
L 315.872748 0 
L 0 0 
z
" style="fill: #ffffff"/>
  </g>
  <g id="axes_1">
   <g id="LineCollection_1">
    <path d="M 160.216581 169.5455 
L 158.59837 167.408672 
L 154.185066 164.88333 
L 153.596626 165.271844 
L 147.565111 174.401927 
L 145.50557 178.578454 
L 139.474055 189.942494 
L 138.150064 191.108036 
L 135.796303 196.061592 
L 129.249903 208.591174 
L 125.71926 214.710272 
L 124.98371 216.749971 
L 122.924168 219.178185 
L 120.349741 224.81164 
L 118.73153 226.657082 
L 118.73153 228.11401 
L 115.715773 232.290538 
L 114.612447 233.164695 
L 111.302469 239.47805 
L 111.008249 240.740721 
L 105.63873 249.093775 
L 101.004762 258.12673 
L 99.754326 261.526229 
L 97.841894 263.468799 
L 95.414577 268.228098 
L 92.39882 272.404625 
L 89.824393 276.969667 
L 87.176411 280.563423 
L 85.99953 283.865793 
L 85.11687 284.934207 
L 82.689553 290.664791 
L 81.659782 292.315976 
L 82.174668 305.719715 
L 81.439117 310.187628 
L 81.512672 313.295741 
L 82.763108 321.843053 
L 82.689553 333.012835 
L 80.997787 338.160648 
L 83.498659 341.268761 
L 84.896205 341.657275 
L 85.85242 343.30846 
L 85.11687 347.97063 
L 85.26398 351.467258 
L 84.234209 353.215571 
L 83.351548 356.129428 
L 82.836663 361.082983 
L 81.439117 362.248526 
L 85.925975 361.665754 
L 84.82265 364.191097 
L 84.82265 367.29921 
L 86.367306 369.824552 
L 83.498659 374.680979 
L 80.409346 379.343149 
L 79.820906 381.28572 
L 76.363818 387.890461 
L 75.922488 389.444517 
L 69.596753 399.448757 
L 69.155423 401.197071 
L 66.360331 405.082212 
L 64.668564 409.161611 
L 62.829688 412.172596 
L 62.756133 413.532395 
L 66.139666 413.629524 
L 66.433886 415.669223 
L 65.551225 419.457236 
L 63.859459 421.691193 
L 62.976798 424.799306 
L 62.020582 426.159106 
L 60.623036 429.947119 
L 60.034596 433.055232 
L 58.710605 434.706417 
L 58.63705 436.260474 
L 56.283288 438.591559 
L 54.444412 442.670958 
L 53.193976 444.419272 
L 51.94354 447.915899 
L 49.295558 451.121141 
L 46.353356 451.606784 
L 47.088906 452.966583 
L 45.985581 453.743611 
L 45.617805 455.880439 
L 43.558264 458.891424 
L 42.307828 462.388052 
L 41.057392 463.747851 
L 39.365626 469.866949 
L 38.482965 471.12962 
L 37.453194 474.334862 
L 34.658102 478.317132 
L 34.216772 479.968318 
L 31.201014 486.281673 
L 29.803468 487.544344 
L 28.111702 491.332357 
L 22.889293 499.685411 
L 20.903307 503.570553 
L 21.050417 505.027481 
L 22.447963 506.387281 
L 24.213284 509.301137 
L 26.567046 509.883908 
L 30.539019 508.621237 
L 34.216772 510.46668 
L 35.393653 511.632222 
L 38.777185 513.574793 
L 40.395396 513.963307 
L 41.572277 515.420235 
L 45.25003 517.362806 
L 47.824457 519.402505 
L 52.752646 524.064675 
L 57.754389 526.39576 
L 61.726362 529.989516 
L 65.03634 529.892388 
L 69.523198 532.611987 
L 73.348061 532.514858 
L 76.216708 536.4 
L 79.747351 532.41773 
L 80.924232 528.921102 
L 81.292007 529.115359 
L 87.397076 518.43122 
L 89.456618 513.574793 
L 91.66327 511.049451 
L 91.736825 509.495394 
L 94.752582 505.513124 
L 95.929463 502.890653 
L 100.931207 502.793525 
L 101.813867 503.473425 
L 103.799854 502.793525 
L 104.976735 503.473425 
L 108.728042 502.307882 
L 110.419809 500.559568 
L 110.934694 498.519869 
L 113.288456 494.537599 
L 116.009993 492.595028 
L 117.186874 490.555329 
L 122.850613 486.281673 
L 123.806829 484.727616 
L 127.190361 483.464945 
L 128.293687 479.482675 
L 131.235889 477.83149 
L 130.573894 477.345847 
L 129.397013 472.975063 
L 132.8541 467.535864 
L 136.016968 461.028252 
L 136.016968 459.279938 
L 136.899628 460.154095 
L 134.619422 463.262209 
L 133.589651 463.16508 
L 133.883871 461.513895 
L 135.649193 459.765581 
L 132.486325 442.088187 
L 131.456554 440.922644 
L 125.939925 465.884679 
L 129.911898 438.591559 
L 124.910155 436.746117 
L 121.894397 436.746117 
L 119.908411 436.163346 
L 129.029238 442.670958 
L 128.955683 447.235999 
L 129.397013 444.807786 
L 128.220132 446.167585 
L 126.454811 444.613529 
L 125.351485 445.002043 
L 99.460105 425.86772 
L 96.003018 424.022278 
L 96.591458 421.788321 
L 97.841894 419.554365 
L 98.94522 416.349123 
L 99.312995 413.143881 
L 97.768339 413.046753 
L 100.342766 408.57884 
L 102.622973 407.801812 
L 104.167629 405.664984 
L 105.123845 402.848256 
L 107.551162 400.031528 
L 108.433822 395.466487 
L 110.566919 392.164116 
L 111.302469 389.735903 
L 114.538892 388.667489 
L 118.216645 385.850761 
L 119.687746 382.742648 
L 119.614191 381.188591 
L 121.085292 380.023049 
L 123.291943 375.458007 
L 123.071278 374.292465 
L 125.71926 368.173367 
L 126.234146 363.899711 
L 127.484581 361.762883 
L 126.896141 358.460513 
L 122.997723 355.352399 
L 121.820842 353.604086 
L 120.717516 350.593101 
L 122.115062 347.387859 
L 126.307701 343.696974 
L 127.631692 341.365889 
L 129.029238 337.092234 
L 133.589651 327.962151 
L 136.164078 324.271266 
L 139.032725 321.551667 
L 141.018712 320.386124 
L 146.09401 319.99761 
L 149.551098 322.134438 
L 153.008186 323.591366 
L 156.685938 323.591366 
L 160.878576 320.871767 
L 161.981902 319.803353 
L 166.100985 311.450299 
L 167.057201 309.993371 
L 170.808509 307.176643 
L 172.206055 306.788129 
L 177.281354 302.514473 
L 179.488005 297.852303 
L 181.253327 290.956177 
L 180.370666 286.876778 
L 178.82601 283.768664 
L 178.605345 281.049065 
L 179.488005 277.552438 
L 183.239313 272.598882 
L 186.549291 269.782155 
L 191.330369 266.382656 
L 192.433695 263.468799 
L 192.139475 259.583658 
L 192.580805 257.155444 
L 194.199016 253.270303 
L 196.405668 245.305762 
L 199.715645 237.729736 
L 201.554522 235.398651 
L 204.790944 232.096281 
L 207.659591 228.599653 
L 210.013353 224.81164 
L 212.44067 218.692542 
L 216.706863 211.893544 
L 219.501955 209.271073 
L 225.754135 206.745731 
L 227.298791 206.454346 
L 235.536957 207.52276 
L 238.405604 206.745731 
L 240.759366 204.997418 
L 245.025559 198.975448 
L 246.05533 196.644363 
L 248.188427 193.439121 
L 251.204184 188.19418 
L 252.381065 185.474581 
L 255.470377 180.326768 
L 259.810125 172.362228 
L 261.134116 170.419657 
L 266.13586 161.289574 
L 268.121847 155.267605 
L 268.342512 151.770977 
L 268.048292 149.731278 
L 268.563177 144.971979 
L 269.225172 142.155251 
L 269.078062 138.367238 
L 265.84164 131.568241 
L 265.620975 128.168742 
L 266.650746 124.380728 
L 269.078062 119.912816 
L 272.53515 115.056389 
L 281.803087 104.566506 
L 282.906413 101.361264 
L 282.465082 95.63068 
L 283.641963 86.694854 
L 284.524624 83.00397 
L 285.77506 80.381499 
L 287.319716 78.730314 
L 292.836345 75.136558 
L 294.969442 72.416959 
L 294.528111 68.823203 
L 292.027239 66.977761 
L 287.761046 67.65766 
L 283.494853 70.37726 
L 281.655977 71.154288 
L 279.52288 70.862902 
L 277.978224 69.308846 
L 277.463339 67.366275 
L 278.713775 63.869647 
L 283.347743 58.624706 
L 286.65772 52.408479 
L 287.540381 49.980266 
L 287.908156 45.318096 
L 285.113064 41.141569 
L 280.258431 37.06217 
L 275.698017 34.925342 
L 271.064049 33.7598 
L 268.342512 33.7598 
L 262.678773 32.4 
L 259.88368 33.565542 
L 257.309254 36.770784 
L 256.941478 40.558797 
L 258.780355 43.181268 
L 261.134116 44.735325 
L 264.370539 45.900867 
L 266.356525 47.74631 
L 267.386296 50.174523 
L 267.754071 55.419464 
L 268.930952 58.624706 
L 269.151617 61.538562 
L 268.342512 64.646676 
L 265.032534 68.920331 
L 260.619231 71.251416 
L 255.764597 73.485373 
L 253.778611 75.233687 
L 252.822395 76.884872 
L 250.174413 83.101098 
L 249.071087 84.460898 
L 244.069344 85.820698 
L 238.92049 87.957526 
L 237.817164 88.734554 
L 234.727852 92.32831 
L 229.946773 101.361264 
L 226.342575 109.61719 
L 223.988814 112.919561 
L 222.076382 114.570746 
L 219.4284 115.736288 
L 217.074638 117.775988 
L 215.529982 119.912816 
L 215.088652 122.146772 
L 215.309317 130.014184 
L 213.617551 134.190711 
L 211.558009 135.939025 
L 205.011609 138.561495 
L 198.90654 142.738023 
L 195.081677 146.623164 
L 192.139475 151.479591 
L 190.815484 155.267605 
L 190.300598 161.095317 
L 190.815484 165.077587 
L 191.91881 168.088572 
L 192.94858 172.459356 
L 192.875025 177.218655 
L 189.859268 182.949239 
L 188.093947 185.377452 
L 184.121974 189.651108 
L 179.56156 192.953479 
L 177.796239 194.993178 
L 179.41445 186.348738 
L 178.605345 182.657853 
L 177.502019 180.521025 
L 175.074702 178.287069 
L 168.969632 174.790441 
L 165.43899 172.070842 
L 161.099242 169.351243 
L 159.922361 169.254114 
L 159.922361 169.254114 
" clip-path="url(#p1d6839bc38)" style="fill: none; stroke: #000000; stroke-width: 3"/>
   </g>
  </g>
 </g>
 <defs>
  <clipPath id="p1d6839bc38">
   <rect x="7.2" y="7.2" width="301.472748" height="554.4"/>
  </clipPath>
 </defs>
</svg>
