<?xml version="1.0" encoding="utf-8" standalone="no"?>
<!DOCTYPE svg PUBLIC "-//W3C//DTD SVG 1.1//EN"
  "http://www.w3.org/Graphics/SVG/1.1/DTD/svg11.dtd">
<svg xmlns:xlink="http://www.w3.org/1999/xlink" width="290.614874pt" height="568.8pt" viewBox="0 0 290.614874 568.8" xmlns="http://www.w3.org/2000/svg" version="1.1">
 <metadata>
  <rdf:RDF xmlns:dc="http://purl.org/dc/elements/1.1/" xmlns:cc="http://creativecommons.org/ns#" xmlns:rdf="http://www.w3.org/1999/02/22-rdf-syntax-ns#">
   <cc:Work>
    <dc:type rdf:resource="http://purl.org/dc/dcmitype/StillImage"/>
    <dc:date>2023-09-25T14:14:06.000353</dc:date>
    <dc:format>image/svg+xml</dc:format>
    <dc:creator>
     <cc:Agent>
      <dc:title>Matplotlib v3.6.2, https://matplotlib.org/</dc:title>
     </cc:Agent>
    </dc:creator>
   </cc:Work>
  </rdf:RDF>
 </metadata>
 <defs>
  <style type="text/css">*{stroke-linejoin: round; stroke-linecap: butt}</style>
 </defs>
 <g id="figure_1">
  <g id="patch_1">
   <path d="M 0 568.8 
L 290.614874 568.8 
L 290.614874 0 
L 0 0 
z
" style="fill: #ffffff"/>
  </g>
  <g id="axes_1">
   <g id="LineCollection_1">
    <path d="M 144.135984 161.78942 
L 146.203254 163.973208 
L 148.821796 164.246182 
L 151.37143 166.247987 
L 155.023607 167.794837 
L 156.953059 167.521863 
L 159.158148 165.156093 
L 159.778329 163.33627 
L 161.156509 163.427261 
L 165.359959 164.792129 
L 170.80377 165.884022 
L 175.076129 168.977722 
L 177.625762 170.342589 
L 181.071213 173.072324 
L 184.309936 174.164217 
L 188.582295 176.166023 
L 195.748832 179.987651 
L 198.918646 182.626395 
L 200.848099 189.814696 
L 202.295188 192.54443 
L 204.569185 194.9102 
L 206.636455 196.45705 
L 209.530634 201.552555 
L 213.871901 206.648059 
L 215.594627 209.286803 
L 219.453531 211.197617 
L 223.863708 214.109334 
L 225.172979 214.291316 
L 229.652065 217.112042 
L 231.099154 219.113847 
L 233.855514 219.841776 
L 235.026967 220.93367 
L 234.889149 222.571511 
L 233.028606 227.030078 
L 231.168063 230.760715 
L 228.411702 235.219281 
L 227.653703 237.221087 
L 222.692255 245.592273 
L 219.660258 250.323813 
L 218.213169 254.236433 
L 214.560991 260.787796 
L 213.320629 263.426539 
L 211.735722 265.337353 
L 210.219724 268.340061 
L 204.086822 278.440079 
L 199.3321 288.904062 
L 198.505192 289.450009 
L 195.88665 293.544611 
L 194.990833 295.728399 
L 192.096654 300.641921 
L 190.511747 304.554541 
L 187.824296 308.012204 
L 185.274662 312.834736 
L 183.207392 316.201408 
L 180.106487 322.388807 
L 178.108125 325.755479 
L 176.316491 329.941072 
L 173.491222 334.035674 
L 171.630679 337.402347 
L 171.010497 339.22217 
L 169.081045 342.224878 
L 168.667591 343.589745 
L 162.052326 353.871746 
L 161.018691 356.692472 
L 157.573241 362.151941 
L 155.230334 366.337534 
L 151.647066 371.342047 
L 150.613431 371.978985 
L 150.062159 376.346561 
L 148.201615 380.077198 
L 146.823435 381.80603 
L 143.653621 384.1718 
L 143.240167 385.991623 
L 140.483806 392.179021 
L 138.623263 393.543889 
L 137.313992 395.363712 
L 136.349266 397.820473 
L 133.592905 402.461022 
L 133.24836 404.189854 
L 133.24836 407.8295 
L 130.836545 410.741217 
L 129.527274 413.470951 
L 127.735639 415.472757 
L 126.012914 416.291677 
L 123.53219 419.749341 
L 123.463281 421.023217 
L 121.671647 425.663766 
L 120.362375 427.483589 
L 118.501832 428.393501 
L 118.019469 431.4872 
L 115.607654 437.128651 
L 113.747111 439.312439 
L 110.784023 441.496227 
L 110.715114 442.497129 
L 112.506748 441.951183 
L 106.787301 446.227767 
L 108.578935 445.863802 
L 104.72003 448.502546 
L 104.03094 450.868316 
L 102.65276 452.688139 
L 100.58549 454.325979 
L 98.656037 458.056617 
L 97.07113 459.148511 
L 99.551855 461.605272 
L 96.588767 469.33952 
L 95.555132 472.797184 
L 93.832407 476.163856 
L 92.592045 476.982777 
L 90.731501 479.985485 
L 88.526413 484.626034 
L 85.563326 492.542264 
L 83.909509 495.726954 
L 81.77333 500.91345 
L 77.914426 507.555804 
L 76.467336 510.37653 
L 71.092434 519.293663 
L 69.783162 522.20538 
L 68.473891 523.934212 
L 66.751166 528.48377 
L 65.09735 530.576566 
L 63.856988 533.670265 
L 61.996444 536.4 
L 58.964448 535.126124 
L 50.971003 533.397292 
L 48.765915 529.848637 
L 47.043189 528.210796 
L 45.251555 528.028814 
L 41.737196 528.938725 
L 41.254833 526.208991 
L 35.742112 523.661238 
L 32.916842 521.841415 
L 26.577213 519.475645 
L 25.819214 518.383752 
L 22.718309 517.746814 
L 19.755222 515.381044 
L 23.131763 506.827875 
L 23.614126 504.917061 
L 25.474669 502.187326 
L 25.750305 498.729662 
L 28.093212 496.636866 
L 31.056299 491.632352 
L 30.780663 490.540459 
L 31.125208 486.263874 
L 33.05466 485.626936 
L 34.984113 483.716122 
L 37.189201 479.257556 
L 40.634651 475.253945 
L 42.633013 470.886369 
L 44.080102 469.157537 
L 44.562465 465.972847 
L 46.147372 462.515183 
L 49.592823 458.420581 
L 49.661732 456.964723 
L 50.833185 455.96382 
L 53.865181 449.412457 
L 57.792995 441.496227 
L 61.031718 436.582704 
L 63.374625 432.488103 
L 64.683896 430.941253 
L 64.752805 429.212421 
L 66.268803 427.119624 
L 67.578074 426.300704 
L 68.818436 424.207908 
L 69.852071 421.114208 
L 73.159704 416.018704 
L 75.709337 413.743925 
L 76.742972 410.832208 
L 79.01697 408.466438 
L 78.396789 407.283553 
L 79.430424 405.099765 
L 81.704421 402.552013 
L 82.806965 399.549305 
L 83.082601 397.365517 
L 84.805327 395.818668 
L 83.082601 394.908756 
L 84.52969 393.725871 
L 86.252416 389.813251 
L 88.250777 386.992526 
L 85.97678 387.538473 
L 86.114598 390.996136 
L 87.286051 391.997039 
L 85.701144 394.271818 
L 85.28769 395.818668 
L 83.220419 400.459216 
L 91.765136 376.164578 
L 92.867681 373.616826 
L 95.00386 370.978083 
L 99.620764 363.243835 
L 103.34185 358.512295 
L 107.889845 349.868135 
L 103.548577 357.238418 
L 104.995666 353.780755 
L 105.891483 353.052825 
L 104.237667 356.055533 
L 104.995666 353.41679 
L 102.65276 350.778047 
L 102.239306 346.865427 
L 104.306576 339.495144 
L 106.09821 335.855497 
L 108.854571 331.214949 
L 111.059659 328.485214 
L 113.05802 327.302329 
L 113.540383 324.663585 
L 115.056382 322.115833 
L 115.332018 320.659975 
L 120.70692 309.741036 
L 122.15401 307.739231 
L 125.186006 304.554541 
L 126.770913 303.553638 
L 130.492 303.098682 
L 135.453449 305.828417 
L 138.82999 306.647337 
L 141.793077 305.828417 
L 146.47889 302.461744 
L 147.994888 300.186965 
L 150.268886 295.455425 
L 153.576518 291.90677 
L 159.502693 287.994151 
L 160.467419 287.084239 
L 163.085961 282.807655 
L 164.533051 279.349991 
L 164.877596 275.801336 
L 164.670869 274.072504 
L 162.741416 268.976999 
L 162.46578 266.429247 
L 163.15487 263.972486 
L 166.324685 258.78599 
L 169.012136 256.056256 
L 171.217224 254.964362 
L 174.249221 251.961654 
L 175.213947 249.413901 
L 175.00722 248.140025 
L 175.558492 244.227406 
L 176.867763 241.588662 
L 179.624124 230.942697 
L 180.657759 228.303954 
L 183.551937 223.936378 
L 187.204115 220.205741 
L 190.511747 215.929157 
L 192.647926 210.924643 
L 196.713558 203.281387 
L 199.125373 200.460661 
L 201.46828 198.82282 
L 204.775912 197.366962 
L 207.187727 197.184979 
L 213.665174 197.821917 
L 215.663536 197.730926 
L 217.661897 196.730023 
L 220.349348 194.546236 
L 224.897343 187.630908 
L 226.275523 186.084058 
L 228.273884 182.717386 
L 229.789883 179.532695 
L 232.270607 175.711067 
L 234.337877 171.98043 
L 236.95642 166.338978 
L 239.850598 161.971403 
L 244.054048 153.87319 
L 245.9835 150.870482 
L 246.534772 145.95696 
L 246.328045 141.498393 
L 247.154953 136.311897 
L 247.154953 134.037119 
L 246.534772 131.398375 
L 243.709502 126.120888 
L 243.640593 123.209171 
L 244.880956 118.38664 
L 248.188588 112.745189 
L 253.701309 106.466799 
L 255.768579 104.374003 
L 258.52494 100.916339 
L 259.489666 99.005524 
L 259.765302 96.912728 
L 259.21403 91.908214 
L 260.109847 84.992887 
L 261.694754 79.260444 
L 263.624206 76.621701 
L 270.101653 71.890161 
L 270.859652 70.343311 
L 270.652925 67.795559 
L 267.965474 65.429789 
L 266.17384 65.247806 
L 263.004025 66.3397 
L 258.869485 69.069435 
L 255.768579 67.977541 
L 254.734944 65.793753 
L 255.217307 63.609966 
L 259.834211 58.059505 
L 263.210752 51.963098 
L 264.313296 47.595523 
L 263.968751 44.410832 
L 259.489666 39.315328 
L 254.597126 35.857664 
L 249.842404 34.037841 
L 245.9835 33.491894 
L 242.331322 32.490991 
L 239.643871 32.4 
L 236.95642 33.855858 
L 235.233694 36.494602 
L 235.026967 39.770283 
L 236.680783 43.40993 
L 240.057325 45.229753 
L 241.986777 46.776602 
L 243.502775 49.324355 
L 243.84732 52.509045 
L 245.29441 56.694638 
L 245.570046 58.787435 
L 245.156592 61.699151 
L 243.502775 64.70186 
L 242.055686 66.3397 
L 237.990055 68.70547 
L 235.233694 69.524391 
L 231.857153 72.163134 
L 229.858792 77.622603 
L 227.033522 80.898285 
L 222.416619 82.08117 
L 217.730806 84.537931 
L 214.009719 88.268568 
L 212.769357 91.180285 
L 209.461725 96.912728 
L 206.636455 103.646073 
L 203.466641 107.740675 
L 199.676645 110.015454 
L 197.402648 112.290233 
L 195.955559 116.748799 
L 195.817741 124.028092 
L 195.19756 126.302871 
L 192.647926 129.032605 
L 185.757025 131.671349 
L 180.795577 134.94703 
L 178.521579 137.676765 
L 175.558492 140.588482 
L 173.835767 144.41011 
L 172.664314 149.14165 
L 172.526496 151.598411 
L 174.31813 161.061491 
L 174.938311 162.608341 
L 174.800493 167.976819 
L 172.733223 172.162412 
L 169.42559 176.348005 
L 162.603598 182.808377 
L 161.638872 184.082253 
L 161.501054 182.899368 
L 162.259053 179.89666 
L 162.121235 174.892147 
L 161.501054 172.79935 
L 158.951421 169.432677 
L 156.88415 168.06781 
L 153.989972 166.975916 
L 149.304159 163.791226 
L 145.10071 161.243474 
L 144.480529 161.334465 
L 144.480529 161.334465 
" clip-path="url(#p99a9921da5)" style="fill: none; stroke: #000000; stroke-width: 3"/>
   </g>
  </g>
 </g>
 <defs>
  <clipPath id="p99a9921da5">
   <rect x="7.2" y="7.2" width="276.214874" height="554.4"/>
  </clipPath>
 </defs>
</svg>
