<?xml version="1.0" encoding="utf-8" standalone="no"?>
<!DOCTYPE svg PUBLIC "-//W3C//DTD SVG 1.1//EN"
  "http://www.w3.org/Graphics/SVG/1.1/DTD/svg11.dtd">
<svg xmlns:xlink="http://www.w3.org/1999/xlink" width="168.064785pt" height="568.8pt" viewBox="0 0 168.064785 568.8" xmlns="http://www.w3.org/2000/svg" version="1.1">
 <metadata>
  <rdf:RDF xmlns:dc="http://purl.org/dc/elements/1.1/" xmlns:cc="http://creativecommons.org/ns#" xmlns:rdf="http://www.w3.org/1999/02/22-rdf-syntax-ns#">
   <cc:Work>
    <dc:type rdf:resource="http://purl.org/dc/dcmitype/StillImage"/>
    <dc:date>2023-09-25T14:14:05.838238</dc:date>
    <dc:format>image/svg+xml</dc:format>
    <dc:creator>
     <cc:Agent>
      <dc:title>Matplotlib v3.6.2, https://matplotlib.org/</dc:title>
     </cc:Agent>
    </dc:creator>
   </cc:Work>
  </rdf:RDF>
 </metadata>
 <defs>
  <style type="text/css">*{stroke-linejoin: round; stroke-linecap: butt}</style>
 </defs>
 <g id="figure_1">
  <g id="patch_1">
   <path d="M 0 568.8 
L 168.064785 568.8 
L 168.064785 0 
L 0 0 
z
" style="fill: #ffffff"/>
  </g>
  <g id="axes_1">
   <g id="LineCollection_1">
    <path d="M 147.844013 33.896202 
L 146.209956 33.368131 
L 144.675942 32.4 
L 142.7751 34.952344 
L 141.541219 37.328665 
L 139.073459 41.729259 
L 137.672838 43.797538 
L 136.005432 47.230001 
L 135.33847 48.11012 
L 134.638159 48.462167 
L 133.837805 50.354422 
L 133.437627 50.750476 
L 132.50388 52.862761 
L 131.803569 53.654868 
L 129.902727 58.143473 
L 128.168625 61.443919 
L 127.134833 62.500061 
L 123.099711 69.98107 
L 119.898292 76.317925 
L 117.63062 80.05843 
L 116.56348 82.126709 
L 115.362948 83.754929 
L 114.629289 85.559172 
L 113.161972 87.539439 
L 112.595054 88.551576 
L 112.261573 89.91576 
L 111.894744 93.304217 
L 112.161529 95.284484 
L 112.094833 97.17674 
L 112.795143 97.704811 
L 112.361618 98.232882 
L 112.728447 99.377037 
L 112.561706 101.665345 
L 113.228669 102.413446 
L 112.661751 104.613743 
L 112.728447 106.638016 
L 113.095276 108.046206 
L 113.828935 109.278372 
L 113.128624 111.566681 
L 113.362061 113.062883 
L 113.061928 115.351192 
L 112.961884 117.771518 
L 112.628403 118.607631 
L 112.761795 119.619768 
L 112.128181 121.071964 
L 111.994788 122.568166 
L 111.627959 124.064367 
L 111.127737 127.144783 
L 110.093946 130.445228 
L 109.12685 132.337484 
L 108.793369 133.56965 
L 106.925875 136.518048 
L 106.692438 137.266149 
L 106.82583 138.498315 
L 107.826274 138.806356 
L 108.059711 139.554457 
L 107.592837 141.57873 
L 107.092615 141.974784 
L 106.425653 143.603004 
L 106.425653 144.483122 
L 105.525254 146.287366 
L 105.158424 147.739562 
L 104.291373 148.091609 
L 103.390974 149.719829 
L 103.457671 150.643954 
L 103.090841 150.775971 
L 102.824056 152.008138 
L 102.05705 154.076417 
L 100.923214 155.264577 
L 100.389644 156.628761 
L 100.122859 156.672767 
L 99.055719 159.005082 
L 98.388757 159.621165 
L 97.62175 161.205379 
L 96.55461 161.865468 
L 96.054389 162.745586 
L 94.853856 163.625705 
L 93.886761 166.222055 
L 92.852969 167.938287 
L 92.085963 170.534637 
L 91.485697 172.162857 
L 90.985475 172.690928 
L 90.785386 174.451166 
L 90.118424 175.507308 
L 88.984588 175.727338 
L 88.350974 176.871492 
L 87.483923 179.247813 
L 86.716916 180.523985 
L 86.316739 181.756151 
L 84.916118 184.000454 
L 83.715586 186.288763 
L 82.081528 189.765232 
L 80.947692 191.041404 
L 78.980153 192.977665 
L 78.379887 194.561879 
L 78.046406 194.737903 
L 76.612437 198.434401 
L 75.611993 200.546686 
L 74.844987 201.602829 
L 74.111328 203.891138 
L 72.410574 206.927547 
L 70.876561 209.39188 
L 70.042858 211.328141 
L 69.242503 212.164254 
L 69.042414 212.868349 
L 68.175363 214.232533 
L 66.64135 217.136925 
L 65.174033 220.21734 
L 63.873456 222.373631 
L 62.672924 224.705946 
L 61.305651 226.818231 
L 60.238512 229.326569 
L 59.404809 230.778765 
L 58.50441 231.614878 
L 58.270973 232.318973 
L 57.203833 233.947193 
L 56.937048 234.7393 
L 54.902813 237.907727 
L 54.669376 238.875858 
L 54.202503 239.315917 
L 53.268755 241.252178 
L 51.868134 243.804523 
L 50.00064 248.161111 
L 50.267425 248.953217 
L 50.901039 249.481289 
L 53.402148 250.845473 
L 55.936605 251.945621 
L 57.070441 252.561704 
L 58.637802 254.321942 
L 60.205164 255.070043 
L 60.27186 255.290072 
L 62.106006 256.038173 
L 63.473279 256.258203 
L 65.907691 257.886423 
L 67.675142 258.810547 
L 68.508845 258.986571 
L 68.875674 259.734672 
L 68.308756 260.570785 
L 68.108667 261.538916 
L 67.308312 263.651201 
L 66.64135 264.839361 
L 65.374122 267.655741 
L 64.407026 269.371972 
L 63.80676 269.768026 
L 62.306095 272.408382 
L 62.172702 274.036602 
L 61.305651 274.564673 
L 60.938822 275.13675 
L 59.20472 276.500934 
L 58.871239 277.425059 
L 58.13758 278.525207 
L 56.803656 279.713368 
L 56.37013 280.681498 
L 55.436383 281.649629 
L 55.336339 282.221706 
L 55.736516 283.673902 
L 56.9037 285.698175 
L 58.337669 287.458413 
L 62.206051 289.878739 
L 64.440374 290.670846 
L 65.807647 291.506959 
L 66.941483 292.959155 
L 67.541749 293.22319 
L 68.94237 294.367345 
L 70.443035 294.719392 
L 70.409687 295.775535 
L 70.909909 296.03957 
L 72.47727 296.127582 
L 73.210929 296.611648 
L 73.844543 296.435624 
L 75.778734 297.139719 
L 76.91257 297.183725 
L 77.97971 298.107849 
L 77.97971 300.528176 
L 77.579532 302.200402 
L 77.779621 303.344556 
L 78.513279 304.268681 
L 79.713812 304.576722 
L 80.44747 305.060788 
L 82.081528 305.676871 
L 82.948579 306.512983 
L 84.249155 307.129067 
L 87.283834 307.965179 
L 89.985031 309.065328 
L 90.752038 309.593399 
L 91.685785 309.769423 
L 95.020597 311.045595 
L 97.054832 312.057732 
L 98.055276 312.365773 
L 98.755586 313.15788 
L 103.99124 314.874112 
L 104.758247 314.918118 
L 107.292704 315.886248 
L 108.626629 316.238296 
L 109.560376 316.766367 
L 113.228669 318.262569 
L 114.695986 318.702628 
L 115.229556 319.230699 
L 116.163303 319.318711 
L 117.030354 319.802777 
L 120.031684 321.078949 
L 123.133059 322.091085 
L 123.166407 323.191234 
L 122.632837 324.731442 
L 122.199312 325.215507 
L 121.232217 327.591827 
L 120.431862 329.968148 
L 120.065032 330.27619 
L 119.531463 332.124439 
L 117.764012 335.336872 
L 115.396296 335.952956 
L 112.995232 335.116843 
L 108.726673 334.016694 
L 106.925875 333.136576 
L 102.290486 331.332332 
L 101.290043 331.376338 
L 101.189999 331.860403 
L 98.522149 330.848267 
L 97.354965 330.100166 
L 93.786717 328.64797 
L 93.119754 328.868 
L 92.452792 328.163905 
L 90.818734 327.283786 
L 85.483036 325.259513 
L 84.88277 325.875596 
L 83.482149 328.163905 
L 82.615098 330.584231 
L 82.081528 331.376338 
L 81.447914 333.532629 
L 80.780951 334.808801 
L 80.614211 335.68892 
L 79.613767 338.989365 
L 78.646672 340.925626 
L 78.246495 342.245805 
L 77.646228 342.905894 
L 76.979266 344.842155 
L 76.445696 345.458238 
L 74.178024 346.514381 
L 73.144233 346.118327 
L 72.31053 344.094054 
L 72.343878 342.773876 
L 72.610663 341.893757 
L 71.877004 341.145656 
L 71.376783 341.32168 
L 71.009953 342.993906 
L 71.043301 343.786012 
L 71.576871 345.370226 
L 72.510619 346.646398 
L 72.8441 348.054588 
L 73.644454 349.418772 
L 74.244721 351.311028 
L 74.978379 351.707081 
L 76.012171 355.62361 
L 75.978823 356.635746 
L 76.612437 357.383847 
L 77.846317 360.420257 
L 78.746716 363.544678 
L 78.780064 364.116755 
L 79.74716 365.744975 
L 80.314078 366.317052 
L 80.747603 367.989278 
L 82.515053 371.553759 
L 83.015275 373.181979 
L 83.482149 373.754056 
L 84.049067 375.822335 
L 85.04951 378.154649 
L 85.449688 379.870881 
L 86.750264 382.687261 
L 87.417227 383.611386 
L 88.184233 385.371623 
L 88.651107 387.263878 
L 89.65155 389.420169 
L 90.752038 391.488448 
L 91.78583 393.952781 
L 92.919666 397.121208 
L 94.453679 400.553672 
L 94.62042 402.005867 
L 96.55461 404.998271 
L 97.188225 406.230437 
L 97.821839 408.254711 
L 99.455897 411.863197 
L 100.523036 412.479281 
L 101.756917 412.831328 
L 102.824056 412.215245 
L 102.523923 411.423138 
L 100.356296 410.675037 
L 97.655098 410.366996 
L 96.788047 411.071091 
L 96.654655 413.051358 
L 96.788047 414.415542 
L 96.354522 415.295661 
L 96.654655 416.219785 
L 96.621307 417.099904 
L 96.854743 419.916284 
L 96.621307 420.752397 
L 96.38787 423.084711 
L 96.121085 424.492901 
L 96.187781 426.253139 
L 95.8543 426.517175 
L 91.819178 426.341151 
L 90.551949 426.517175 
L 86.583524 426.077115 
L 85.483036 425.637056 
L 82.781838 425.769074 
L 82.448357 426.297145 
L 83.682237 431.357828 
L 84.015719 432.19394 
L 83.915674 432.85403 
L 84.88277 436.330499 
L 84.51594 436.85857 
L 81.748047 436.330499 
L 80.380774 436.506522 
L 79.080197 436.198481 
L 78.446583 435.538392 
L 76.812526 434.570261 
L 75.245164 433.866166 
L 73.977936 433.558125 
L 73.310973 433.118065 
L 71.977049 433.426107 
L 71.443479 435.186344 
L 70.809865 436.198481 
L 69.242503 440.907116 
L 68.24206 443.371449 
L 67.608445 445.395722 
L 67.008179 446.363852 
L 65.94104 449.444268 
L 65.40747 450.632428 
L 65.174033 451.776583 
L 63.906804 455.121034 
L 63.306538 457.189313 
L 62.73962 458.333467 
L 62.139354 460.533764 
L 60.571993 464.318275 
L 59.471505 467.706732 
L 59.037979 467.794744 
L 55.503079 466.43056 
L 54.836117 466.342548 
L 53.00197 469.554981 
L 51.968179 471.799284 
L 50.767647 473.163468 
L 51.668046 474.8797 
L 52.868578 475.715812 
L 55.83656 476.771955 
L 55.969953 477.168008 
L 55.169598 480.028394 
L 54.235851 482.316703 
L 54.202503 483.152816 
L 52.30166 487.685427 
L 51.534653 490.105754 
L 50.934387 490.897861 
L 50.334121 493.054152 
L 49.833899 493.670235 
L 49.800551 494.506348 
L 48.76676 496.926674 
L 48.39993 498.686912 
L 54.035762 500.97522 
L 54.569332 501.327268 
L 56.503523 501.855339 
L 60.505297 503.483559 
L 60.738733 503.967624 
L 60.205164 505.331808 
L 59.905031 506.784004 
L 58.571106 510.348485 
L 57.403922 514.000978 
L 56.236738 516.949376 
L 56.170041 517.521453 
L 50.367469 533.407596 
L 49.367026 535.827923 
L 48.76676 536.091958 
L 33.726759 530.107151 
L 32.793012 530.107151 
L 28.691194 528.302908 
L 27.990883 528.346913 
L 25.38973 527.598813 
L 24.722768 529.227032 
L 23.889065 530.195163 
L 22.988666 532.967537 
L 22.288355 533.407596 
L 19.253677 532.879525 
L 17.152745 532.087418 
L 16.419087 532.39546 
L 15.585384 531.9554 
L 14.618288 530.943264 
L 14.184763 531.471335 
L 15.051814 532.439466 
L 15.65208 532.659495 
L 14.451548 532.791513 
L 15.418643 532.351454 
L 19.820595 534.463739 
L 20.454209 534.903798 
L 22.088267 534.815786 
L 22.821925 534.331721 
L 23.955761 532.791513 
L 25.489774 529.13902 
L 25.823256 528.038872 
L 30.658732 529.315044 
L 31.659176 529.931127 
L 34.360373 530.943264 
L 37.061571 532.17543 
L 40.429731 533.36359 
L 42.430618 534.375727 
L 43.964631 534.815786 
L 46.532436 535.915935 
L 48.23319 536.4 
L 48.733412 536.17997 
L 50.300773 533.539614 
L 51.501305 530.855252 
L 53.768977 531.603353 
L 56.069997 531.911394 
L 56.937048 531.163293 
L 58.337669 528.610949 
L 58.904587 526.938723 
L 60.605341 523.154213 
L 60.872126 522.010058 
L 61.639133 520.205815 
L 62.439487 518.753619 
L 63.073102 516.289287 
L 64.173589 513.296883 
L 65.107337 510.084449 
L 65.440818 509.380354 
L 66.041084 507.136052 
L 67.475053 504.055636 
L 67.741838 503.175517 
L 68.975718 500.579167 
L 69.309199 499.435013 
L 70.70982 497.146704 
L 71.310086 495.78252 
L 72.377226 493.93427 
L 73.177581 491.998009 
L 73.611106 491.513944 
L 80.214033 478.180145 
L 81.014388 477.124002 
L 82.648446 474.307622 
L 83.515497 472.327355 
L 85.249599 469.114922 
L 85.783169 467.662726 
L 86.716916 465.9905 
L 87.150442 464.80234 
L 87.917448 463.438156 
L 88.350974 462.073972 
L 89.318069 460.973823 
L 91.552393 457.057295 
L 91.78583 455.737117 
L 93.153103 454.72498 
L 93.753369 453.712844 
L 94.286939 452.084624 
L 94.386983 450.676434 
L 95.354078 448.476137 
L 95.754256 443.987532 
L 95.720908 442.05127 
L 95.520819 439.45492 
L 95.354078 438.926849 
L 96.788047 438.794831 
L 97.021484 437.606671 
L 96.788047 435.802427 
L 97.121528 431.929905 
L 97.054832 431.313822 
L 97.521706 428.62946 
L 97.321617 428.1894 
L 97.488358 425.108985 
L 97.755143 424.316878 
L 97.121528 423.480765 
L 96.521262 423.612783 
L 95.987692 424.536907 
L 96.021041 425.945097 
L 96.287825 426.473169 
L 95.720908 426.913228 
L 95.254034 426.473169 
L 93.386539 426.121121 
L 91.852526 426.121121 
L 91.619089 423.612783 
L 91.78583 422.864682 
L 91.752482 421.060438 
L 92.219355 419.036165 
L 91.619089 416.043761 
L 91.819178 413.711447 
L 91.285608 411.467144 
L 90.01838 409.750912 
L 87.150442 407.330586 
L 75.812082 395.404977 
L 74.844987 394.128805 
L 74.044632 392.676609 
L 73.344321 392.500585 
L 73.144233 391.752484 
L 70.743168 389.948241 
L 68.975718 388.011979 
L 67.608445 386.823819 
L 64.540419 383.56738 
L 60.905474 379.958893 
L 58.904587 377.582572 
L 58.704498 376.922483 
L 57.537314 376.08637 
L 56.970396 375.426281 
L 52.234964 370.849664 
L 50.567558 368.957409 
L 38.695629 356.547734 
L 38.262103 355.491592 
L 38.395495 354.479455 
L 39.429287 353.027259 
L 39.796116 352.015123 
L 40.696515 351.487051 
L 41.130041 350.606933 
L 42.830795 349.946844 
L 43.597802 348.58266 
L 44.631593 347.570523 
L 45.898822 344.402096 
L 46.63248 343.477971 
L 48.733412 339.649454 
L 48.733412 339.297407 
L 50.500862 337.669187 
L 51.167824 336.040967 
L 52.635141 333.268593 
L 53.435496 332.168445 
L 58.937935 321.959067 
L 60.27186 320.242836 
L 60.872126 319.186693 
L 61.372348 317.558474 
L 62.03931 316.458325 
L 62.439487 316.282302 
L 62.072658 315.666218 
L 62.472835 315.138147 
L 62.706272 313.905981 
L 63.339887 312.673815 
L 63.64002 310.781559 
L 64.273634 309.813429 
L 64.673811 306.821025 
L 65.240729 306.33696 
L 66.407913 304.620728 
L 66.874787 303.564586 
L 67.475053 303.036514 
L 67.975275 301.936366 
L 69.142459 300.044111 
L 70.109554 297.931826 
L 71.810308 295.335475 
L 73.077536 292.871143 
L 73.37767 291.991024 
L 74.211372 290.582834 
L 76.445696 287.370401 
L 78.446583 283.937938 
L 81.914787 278.921261 
L 82.948579 278.569213 
L 83.782282 276.76497 
L 84.549289 275.532804 
L 84.916118 273.596542 
L 85.282947 272.980459 
L 86.783612 265.71948 
L 87.483923 263.123129 
L 87.317182 260.658797 
L 87.617315 258.986571 
L 86.950353 257.886423 
L 87.18379 255.378084 
L 87.617315 254.057906 
L 88.984588 252.209657 
L 89.551506 250.097372 
L 89.184677 249.349271 
L 88.184233 248.689182 
L 86.616872 247.148974 
L 86.183346 246.312861 
L 84.916118 245.56476 
L 82.948579 244.860665 
L 82.415009 244.464612 
L 80.28073 243.672505 
L 79.613767 242.74838 
L 77.712925 242.132297 
L 76.945918 241.208173 
L 75.31186 240.108024 
L 74.011284 239.976006 
L 73.411018 238.875858 
L 72.177137 238.611822 
L 69.676029 237.071614 
L 69.375896 236.411525 
L 70.209598 235.267371 
L 70.576428 234.079211 
L 71.77696 232.494997 
L 72.210485 231.218825 
L 72.744055 230.338706 
L 73.844543 227.654344 
L 74.544854 226.730219 
L 75.812082 223.957845 
L 77.146007 222.153602 
L 77.97971 220.569388 
L 79.21359 219.24921 
L 79.74716 218.149061 
L 80.747603 217.048913 
L 80.814299 216.124788 
L 81.948135 213.924491 
L 82.21492 213.704462 
L 83.182016 211.460159 
L 83.648889 211.0201 
L 84.51594 208.687785 
L 85.58308 207.807666 
L 86.983701 205.255322 
L 87.984145 204.199179 
L 88.41767 200.986746 
L 89.418114 199.490544 
L 90.118424 197.114223 
L 91.218912 196.278111 
L 91.985918 194.781909 
L 92.652881 194.033808 
L 94.120198 190.86538 
L 94.220242 190.161285 
L 95.454123 188.137012 
L 96.854743 186.552798 
L 97.755143 184.572531 
L 97.555054 183.82443 
L 99.22246 182.240217 
L 99.489245 181.184074 
L 101.790265 177.751611 
L 101.957005 175.947368 
L 102.423879 175.903362 
L 103.190886 175.155261 
L 103.957892 173.923094 
L 104.991684 170.798673 
L 105.825387 169.302471 
L 106.358957 168.994429 
L 106.959223 167.630245 
L 108.860065 165.033895 
L 110.060598 162.437545 
L 110.827604 161.161373 
L 111.227782 158.653034 
L 112.061485 157.552886 
L 114.429201 156.364725 
L 115.129511 155.440601 
L 115.462992 153.812381 
L 115.929866 153.240304 
L 117.09705 150.555942 
L 117.930753 147.65155 
L 118.964545 146.419384 
L 118.997893 145.099205 
L 120.46521 144.131075 
L 120.99878 142.502855 
L 120.46521 141.79876 
L 120.565254 140.874635 
L 121.432305 140.302558 
L 120.798691 139.114398 
L 121.499001 137.530184 
L 122.366052 136.870095 
L 122.799578 134.889828 
L 122.399401 134.405763 
L 120.765343 133.833685 
L 120.398514 132.953567 
L 121.332261 132.029442 
L 121.465653 130.445228 
L 124.133503 128.376949 
L 127.334922 125.208522 
L 130.302904 122.788195 
L 131.069911 121.820065 
L 131.103259 121.203981 
L 129.469201 120.103833 
L 127.301574 118.387602 
L 125.800908 117.991548 
L 122.399401 115.131162 
L 120.99878 114.383061 
L 120.298469 113.766978 
L 117.397183 112.006741 
L 115.996562 110.950598 
L 115.829822 109.586414 
L 115.096163 108.134218 
L 116.39674 106.065939 
L 117.063702 105.713892 
L 118.964545 102.633476 
L 119.39807 101.40131 
L 120.898735 98.716948 
L 122.566141 96.120597 
L 122.799578 94.888431 
L 123.499888 94.096324 
L 126.534567 88.595582 
L 127.134833 87.143386 
L 128.468758 84.987095 
L 129.102372 83.534899 
L 129.569246 83.226858 
L 130.169512 81.950685 
L 131.103259 80.718519 
L 132.203747 78.298193 
L 133.104146 76.890003 
L 133.937849 74.557688 
L 134.504767 73.897599 
L 134.904944 72.885462 
L 137.672838 68.528875 
L 139.273547 65.316441 
L 140.707516 62.852109 
L 140.940953 61.883978 
L 143.208625 58.055461 
L 145.376253 53.874897 
L 147.343792 50.662464 
L 147.944058 49.430298 
L 150.37847 45.777805 
L 151.078781 43.88555 
L 152.245965 42.081306 
L 152.646142 40.541098 
L 153.880022 38.120772 
L 153.513193 37.504689 
L 152.112572 36.932612 
L 150.945388 35.656439 
L 147.844013 33.764184 
L 147.844013 33.764184 
" clip-path="url(#p23f8968fac)" style="fill: none; stroke: #000000; stroke-width: 3"/>
   </g>
  </g>
 </g>
 <defs>
  <clipPath id="p23f8968fac">
   <rect x="7.2" y="7.2" width="153.664785" height="554.4"/>
  </clipPath>
 </defs>
</svg>
