<?xml version="1.0" encoding="utf-8" standalone="no"?>
<!DOCTYPE svg PUBLIC "-//W3C//DTD SVG 1.1//EN"
  "http://www.w3.org/Graphics/SVG/1.1/DTD/svg11.dtd">
<svg xmlns:xlink="http://www.w3.org/1999/xlink" width="302.581633pt" height="568.8pt" viewBox="0 0 302.581633 568.8" xmlns="http://www.w3.org/2000/svg" version="1.1">
 <metadata>
  <rdf:RDF xmlns:dc="http://purl.org/dc/elements/1.1/" xmlns:cc="http://creativecommons.org/ns#" xmlns:rdf="http://www.w3.org/1999/02/22-rdf-syntax-ns#">
   <cc:Work>
    <dc:type rdf:resource="http://purl.org/dc/dcmitype/StillImage"/>
    <dc:date>2023-09-25T14:14:05.774884</dc:date>
    <dc:format>image/svg+xml</dc:format>
    <dc:creator>
     <cc:Agent>
      <dc:title>Matplotlib v3.6.2, https://matplotlib.org/</dc:title>
     </cc:Agent>
    </dc:creator>
   </cc:Work>
  </rdf:RDF>
 </metadata>
 <defs>
  <style type="text/css">*{stroke-linejoin: round; stroke-linecap: butt}</style>
 </defs>
 <g id="figure_1">
  <g id="patch_1">
   <path d="M 0 568.8 
L 302.581633 568.8 
L 302.581633 0 
L 0 0 
z
" style="fill: #ffffff"/>
  </g>
  <g id="axes_1">
   <g id="LineCollection_1">
    <path d="M 252.691548 32.4 
L 251.749162 35.137778 
L 268.146678 41.608889 
L 269.466019 45.342222 
L 275.120335 48.08 
L 280.774651 53.057778 
L 280.774651 58.782222 
L 274.366426 73.715556 
L 264.188657 91.137778 
L 261.549977 97.36 
L 251.372208 114.035556 
L 237.236418 142.657778 
L 232.336011 150.871111 
L 224.608446 166.302222 
L 216.880881 180.24 
L 218.577176 186.462222 
L 226.681695 198.408889 
L 227.05865 204.631111 
L 210.661134 220.311111 
L 205.572249 226.782222 
L 195.959912 234.497778 
L 193.886663 237.982222 
L 191.436459 251.173333 
L 187.478438 254.16 
L 182.201077 263.12 
L 173.90808 265.608889 
L 177.866101 269.093333 
L 179.373919 274.32 
L 175.792852 284.275556 
L 176.546761 292.24 
L 179.185442 298.213333 
L 178.996965 305.431111 
L 168.819196 323.102222 
L 160.526199 343.511111 
L 154.494929 361.928889 
L 149.02909 373.626667 
L 142.243911 382.337778 
L 123.019237 398.764444 
L 114.349286 407.724444 
L 113.4069 410.213333 
L 104.359995 421.662222 
L 96.443952 434.853333 
L 94.370703 443.315556 
L 89.281819 447.048889 
L 86.454661 447.048889 
L 80.800345 451.777778 
L 68.172373 457.253333 
L 57.994604 456.506667 
L 54.790492 457.751111 
L 50.643994 463.724444 
L 49.890085 473.431111 
L 51.209425 475.671111 
L 45.555109 482.64 
L 44.801201 485.875556 
L 37.073636 497.324444 
L 30.665411 511.013333 
L 22.749369 524.702222 
L 20.299165 527.191111 
L 20.487642 531.92 
L 24.822618 536.4 
L 25.576527 532.168889 
L 30.665411 522.462222 
L 38.392976 512.257778 
L 37.827544 506.533333 
L 43.48186 498.817778 
L 45.555109 490.604444 
L 48.759222 488.364444 
L 51.963334 481.644444 
L 50.643994 478.408889 
L 62.518057 468.702222 
L 64.025875 458.995556 
L 67.795419 450.533333 
L 72.695826 444.062222 
L 73.261257 440.08 
L 83.250549 428.88 
L 86.831615 416.435556 
L 90.224205 408.471111 
L 95.878521 402 
L 104.171518 387.066667 
L 111.899083 375.866667 
L 120.192079 360.933333 
L 125.280964 354.462222 
L 130.935279 342.764444 
L 132.631574 337.537778 
L 139.982185 324.844444 
L 150.725385 304.186667 
L 161.280108 288.506667 
L 169.761582 271.582222 
L 176.358284 261.377778 
L 180.693259 249.182222 
L 186.347575 242.96 
L 194.263617 225.537778 
L 216.126972 187.955556 
L 222.912151 175.511111 
L 246.471801 129.217778 
L 252.126117 119.511111 
L 257.591955 114.782222 
L 258.911296 108.062222 
L 264.565612 101.342222 
L 267.769724 93.875556 
L 275.120335 81.928889 
L 277.759015 74.213333 
L 282.282468 66.746667 
L 282.282468 58.533333 
L 276.251198 58.035556 
L 260.607591 43.6 
L 252.503071 37.377778 
" clip-path="url(#pdb5e11cb79)" style="fill: none; stroke: #000000; stroke-width: 3"/>
   </g>
  </g>
 </g>
 <defs>
  <clipPath id="pdb5e11cb79">
   <rect x="7.2" y="7.2" width="288.181633" height="554.4"/>
  </clipPath>
 </defs>
</svg>
