<?xml version="1.0" encoding="utf-8" standalone="no"?>
<!DOCTYPE svg PUBLIC "-//W3C//DTD SVG 1.1//EN"
  "http://www.w3.org/Graphics/SVG/1.1/DTD/svg11.dtd">
<svg xmlns:xlink="http://www.w3.org/1999/xlink" width="322.025594pt" height="568.8pt" viewBox="0 0 322.025594 568.8" xmlns="http://www.w3.org/2000/svg" version="1.1">
 <metadata>
  <rdf:RDF xmlns:dc="http://purl.org/dc/elements/1.1/" xmlns:cc="http://creativecommons.org/ns#" xmlns:rdf="http://www.w3.org/1999/02/22-rdf-syntax-ns#">
   <cc:Work>
    <dc:type rdf:resource="http://purl.org/dc/dcmitype/StillImage"/>
    <dc:date>2023-09-25T14:14:05.714930</dc:date>
    <dc:format>image/svg+xml</dc:format>
    <dc:creator>
     <cc:Agent>
      <dc:title>Matplotlib v3.6.2, https://matplotlib.org/</dc:title>
     </cc:Agent>
    </dc:creator>
   </cc:Work>
  </rdf:RDF>
 </metadata>
 <defs>
  <style type="text/css">*{stroke-linejoin: round; stroke-linecap: butt}</style>
 </defs>
 <g id="figure_1">
  <g id="patch_1">
   <path d="M 0 568.8 
L 322.025594 568.8 
L 322.025594 0 
L 0 0 
z
" style="fill: #ffffff"/>
  </g>
  <g id="axes_1">
   <g id="LineCollection_1">
    <path d="M 185.809284 148.101726 
L 189.724519 149.250537 
L 193.266874 151.219928 
L 194.385513 153.025204 
L 196.43635 154.256073 
L 198.611481 154.830479 
L 200.413732 152.36874 
L 201.035198 150.891697 
L 201.843103 150.645523 
L 204.204673 151.712276 
L 209.922159 153.189319 
L 214.210273 155.97929 
L 216.447551 157.128102 
L 218.125508 158.523087 
L 223.221528 161.066884 
L 225.396659 161.723347 
L 230.554825 163.938912 
L 232.978542 165.25184 
L 235.775138 167.631521 
L 236.893777 170.749723 
L 237.701682 174.524389 
L 239.131054 177.396418 
L 240.684719 178.955519 
L 243.481315 179.858157 
L 246.340058 185.848388 
L 250.379586 190.525692 
L 250.317439 191.674503 
L 247.893722 196.433865 
L 245.407859 200.126473 
L 244.351367 202.916444 
L 240.684719 209.645197 
L 239.37964 212.681342 
L 236.148018 217.686877 
L 231.92205 225.154152 
L 224.837339 238.611657 
L 218.871267 249.525366 
L 217.069016 252.233279 
L 215.266765 255.761771 
L 213.278075 258.715858 
L 212.283729 261.669945 
L 208.927814 267.660176 
L 205.758338 272.747769 
L 203.831794 276.932725 
L 200.538025 282.758841 
L 198.673627 284.974406 
L 196.374204 288.913188 
L 192.707555 296.790752 
L 191.34033 298.513969 
L 191.029597 299.908955 
L 186.61719 308.114751 
L 184.317766 311.807359 
L 182.826248 313.694692 
L 179.097453 320.587561 
L 178.351694 321.572257 
L 175.679391 326.741908 
L 172.758502 331.419212 
L 170.707664 335.9324 
L 169.464733 337.491501 
L 168.221801 340.281472 
L 169.216146 340.937936 
L 167.662482 342.989385 
L 166.295257 346.025529 
L 163.622954 350.046369 
L 162.628608 352.508108 
L 160.204891 356.0366 
L 159.521279 357.923934 
L 157.284002 360.713904 
L 156.103217 363.011527 
L 153.120181 366.868251 
L 151.939396 369.165874 
L 150.820757 372.530251 
L 148.707773 376.797265 
L 147.340548 380.489873 
L 146.097617 382.705438 
L 143.30102 385.331293 
L 141.498769 388.531553 
L 139.572225 391.321524 
L 138.76432 393.290915 
L 137.024215 395.998828 
L 136.589189 397.393813 
L 133.29542 403.055812 
L 132.922541 404.204624 
L 130.995997 406.830479 
L 130.436677 408.553696 
L 130.498824 410.276913 
L 128.820866 412.41042 
L 126.521443 416.267144 
L 125.65139 418.646825 
L 123.973433 420.86239 
L 123.724846 423.242071 
L 121.11469 426.934679 
L 119.063852 430.873461 
L 118.131654 431.776099 
L 117.137308 435.222533 
L 116.142963 436.125171 
L 114.154272 440.556301 
L 108.498933 449.172387 
L 106.199509 450.075024 
L 105.391604 452.864995 
L 103.713646 456.557603 
L 103.589353 458.773168 
L 102.346421 460.988733 
L 99.425532 464.681342 
L 98.679773 466.814849 
L 97.436841 468.209834 
L 96.877522 470.917747 
L 95.013124 473.543601 
L 92.278674 478.056789 
L 89.357785 484.047021 
L 88.425586 485.113774 
L 86.436895 489.791078 
L 85.504697 490.857831 
L 83.951032 495.371019 
L 83.08098 495.945425 
L 80.035797 500.786845 
L 78.357839 503.987105 
L 77.425641 506.448844 
L 75.188364 508.172061 
L 73.448259 511.126148 
L 71.956741 514.24435 
L 71.956741 515.393162 
L 70.092344 518.429306 
L 70.15449 519.414002 
L 67.109308 525.076001 
L 64.437004 528.440378 
L 62.448314 531.96887 
L 61.205382 536.4 
L 58.408786 535.907652 
L 53.064179 533.527971 
L 49.211091 532.78945 
L 47.657427 532.132986 
L 46.663081 530.738001 
L 42.747846 529.999479 
L 40.261983 528.276262 
L 40.013397 527.209508 
L 35.725282 524.747769 
L 34.544497 524.501596 
L 30.318529 521.957799 
L 23.482405 518.593422 
L 23.358112 517.936959 
L 21.182982 517.526669 
L 21.555861 518.183133 
L 25.408949 520.644871 
L 27.832666 521.465451 
L 30.504969 523.434842 
L 31.002142 524.33748 
L 34.109471 525.158059 
L 36.160308 526.635103 
L 38.086853 527.291566 
L 38.832612 526.799218 
L 41.132035 523.434842 
L 42.934286 519.824292 
L 43.928632 518.67548 
L 48.341039 510.797916 
L 51.137635 506.20267 
L 53.561352 501.36125 
L 57.352294 494.222208 
L 59.154545 491.514295 
L 60.086744 489.380788 
L 62.386167 486.09847 
L 62.945486 484.703484 
L 64.747737 482.323803 
L 69.035852 474.364181 
L 69.905904 473.297428 
L 70.838103 470.753631 
L 72.267474 468.620124 
L 72.88894 466.896907 
L 74.753338 464.435168 
L 78.544279 456.803777 
L 81.589462 451.141778 
L 82.335221 450.157082 
L 85.25611 444.577141 
L 85.877576 442.771866 
L 85.318257 440.802475 
L 86.436895 439.735721 
L 88.736319 435.632823 
L 89.917104 434.730186 
L 95.26171 426.688505 
L 96.131763 424.88323 
L 100.979196 416.677434 
L 103.775793 411.671898 
L 104.832284 408.143406 
L 106.758829 405.271377 
L 107.318148 403.466102 
L 108.996106 401.660827 
L 108.809666 400.265842 
L 114.154272 392.716509 
L 116.01867 390.829176 
L 116.080816 387.628916 
L 117.758774 385.741583 
L 122.046888 377.864018 
L 123.6627 376.304917 
L 123.973433 374.827874 
L 126.956469 369.412048 
L 127.267202 367.935005 
L 129.690918 364.160339 
L 132.176782 362.437121 
L 131.866049 361.534484 
L 132.549661 360.139499 
L 134.165472 358.826571 
L 134.289766 356.85718 
L 135.594844 354.723673 
L 137.956414 353.000456 
L 138.76432 350.538717 
L 141.31233 347.420514 
L 141.188037 345.697297 
L 142.555261 344.466428 
L 143.425314 340.937936 
L 145.289711 339.214718 
L 144.668245 338.394139 
L 146.656936 337.163269 
L 149.577825 335.9324 
L 151.069343 336.34269 
L 150.696464 339.54295 
L 150.882904 343.071443 
L 150.012852 346.107587 
L 150.447878 347.830804 
L 149.888558 350.210485 
L 147.899868 325.921329 
L 149.888558 322.967242 
L 150.447878 320.997851 
L 152.560861 316.566721 
L 156.476096 310.494432 
L 157.719028 309.099446 
L 157.594735 308.114751 
L 152.498715 314.679388 
L 151.31793 311.068838 
L 150.696464 308.114751 
L 150.758611 306.637708 
L 151.566516 304.340085 
L 152.685155 302.53481 
L 156.41395 298.431911 
L 158.091908 296.216346 
L 160.080598 291.621101 
L 165.114472 281.774145 
L 167.413895 278.738001 
L 170.956251 276.35832 
L 174.622899 276.194204 
L 176.42515 276.850668 
L 178.662427 278.245653 
L 181.023997 278.902117 
L 183.074835 278.820059 
L 185.747138 277.671247 
L 188.97876 274.881276 
L 191.34033 269.465451 
L 193.018288 267.331944 
L 194.696246 265.936959 
L 199.854412 262.490524 
L 202.526716 258.715858 
L 204.515406 253.546206 
L 204.826139 251.740931 
L 204.515406 249.525366 
L 202.775302 245.668642 
L 202.526716 244.027483 
L 202.899595 240.991338 
L 205.882631 236.396092 
L 208.865667 233.606122 
L 212.09729 231.718789 
L 213.899541 229.749398 
L 214.27242 227.697949 
L 213.961687 225.154152 
L 216.323257 217.440703 
L 217.069016 213.666037 
L 220.114199 206.773168 
L 221.605717 204.639661 
L 225.085926 201.193227 
L 227.19891 198.485314 
L 229.74692 193.890068 
L 230.679118 190.771866 
L 234.28362 184.781635 
L 236.955923 182.484012 
L 239.814666 181.253142 
L 244.413514 180.104331 
L 248.453042 180.842852 
L 250.938905 180.842852 
L 253.300475 180.268447 
L 254.85414 179.119635 
L 258.210055 173.949984 
L 264.176128 163.692739 
L 268.029216 156.143406 
L 274.803194 144.162944 
L 277.537643 138.583002 
L 278.345549 135.628916 
L 278.159109 132.100423 
L 278.345549 128.736047 
L 279.215601 125.946076 
L 279.277748 123.894627 
L 278.283402 120.612309 
L 275.983979 116.755585 
L 275.797539 115.606773 
L 276.481151 112.570628 
L 277.475497 109.780658 
L 279.712774 105.841876 
L 283.130836 101.328688 
L 284.6845 99.851644 
L 289.221201 94.764051 
L 290.215546 93.040834 
L 290.526279 91.071443 
L 290.33984 85.983849 
L 290.588426 82.947704 
L 291.831358 76.218951 
L 293.012143 73.511039 
L 295.560153 71.0493 
L 299.475388 68.669619 
L 300.283293 67.684923 
L 300.842612 65.715532 
L 300.407586 64.238489 
L 298.294603 62.104982 
L 295.24942 62.18704 
L 293.260729 63.253794 
L 290.215546 65.469359 
L 288.661882 65.551416 
L 287.23251 64.894953 
L 285.927432 62.104982 
L 286.300312 60.792055 
L 290.774866 55.540345 
L 293.633609 50.370694 
L 294.938687 46.185738 
L 294.814394 44.134289 
L 293.944342 42.000782 
L 290.526279 38.390231 
L 286.673191 35.682318 
L 281.639318 34.041159 
L 278.904868 33.712927 
L 274.181728 32.4 
L 271.695864 33.22058 
L 269.95576 34.779681 
L 269.085708 36.584956 
L 269.085708 39.539043 
L 270.080053 41.26226 
L 272.006597 42.657245 
L 274.803194 43.970173 
L 277.040471 46.678085 
L 277.41335 49.468056 
L 278.967015 54.473592 
L 279.029161 57.673852 
L 277.848376 60.874113 
L 276.046125 63.171736 
L 273.125236 65.223185 
L 268.899268 66.782286 
L 266.786284 68.259329 
L 264.921887 71.0493 
L 263.430369 74.906024 
L 260.633772 77.367763 
L 255.537752 79.008922 
L 252.181837 81.224487 
L 249.695973 84.096516 
L 247.520843 87.95324 
L 244.910686 93.287007 
L 244.47566 95.338457 
L 242.362676 99.523413 
L 239.441787 102.067209 
L 235.650845 104.611006 
L 233.600008 108.057441 
L 233.351422 109.862716 
L 233.351422 115.935005 
L 232.543516 118.56086 
L 230.554825 120.284077 
L 223.097235 123.894627 
L 220.300639 125.699902 
L 218.249801 127.669293 
L 215.142472 131.772191 
L 213.588808 135.05451 
L 212.718755 140.306219 
L 213.713101 146.788798 
L 215.018179 151.219928 
L 215.080326 154.091957 
L 213.588808 157.784565 
L 211.662263 160.82071 
L 210.046452 162.790101 
L 207.312003 165.333898 
L 204.515406 167.385347 
L 201.843103 170.09326 
L 202.961742 164.595376 
L 202.588862 160.492478 
L 201.035198 157.538391 
L 199.543679 156.061348 
L 199.730119 154.420189 
L 200.848758 152.040508 
L 201.035198 150.153175 
L 199.854412 148.840247 
L 197.430696 147.281146 
L 195.752738 146.70674 
L 194.385513 147.11703 
L 191.34033 144.983523 
L 188.854467 144.245002 
L 184.06918 139.567698 
L 183.509861 139.977988 
L 181.956196 138.66506 
L 176.735883 136.285379 
L 171.764156 134.315988 
L 169.837612 132.838945 
L 167.351749 131.526018 
L 165.860231 131.279844 
L 164.803739 131.854249 
L 164.244419 133.331293 
L 162.752901 133.823641 
L 162.815048 136.121263 
L 164.182273 136.203321 
L 166.295257 134.972452 
L 168.408241 138.008597 
L 170.272638 139.239466 
L 172.447769 141.701205 
L 175.679391 142.932074 
L 179.346039 145.722045 
L 182.577662 147.363204 
L 182.577662 147.363204 
" clip-path="url(#pf0dda02679)" style="fill: none; stroke: #000000; stroke-width: 3"/>
   </g>
  </g>
 </g>
 <defs>
  <clipPath id="pf0dda02679">
   <rect x="7.2" y="7.2" width="307.625594" height="554.4"/>
  </clipPath>
 </defs>
</svg>
