<?xml version="1.0" encoding="utf-8" standalone="no"?>
<!DOCTYPE svg PUBLIC "-//W3C//DTD SVG 1.1//EN"
  "http://www.w3.org/Graphics/SVG/1.1/DTD/svg11.dtd">
<svg xmlns:xlink="http://www.w3.org/1999/xlink" width="288.34205pt" height="568.8pt" viewBox="0 0 288.34205 568.8" xmlns="http://www.w3.org/2000/svg" version="1.1">
 <metadata>
  <rdf:RDF xmlns:dc="http://purl.org/dc/elements/1.1/" xmlns:cc="http://creativecommons.org/ns#" xmlns:rdf="http://www.w3.org/1999/02/22-rdf-syntax-ns#">
   <cc:Work>
    <dc:type rdf:resource="http://purl.org/dc/dcmitype/StillImage"/>
    <dc:date>2023-09-25T14:14:05.190376</dc:date>
    <dc:format>image/svg+xml</dc:format>
    <dc:creator>
     <cc:Agent>
      <dc:title>Matplotlib v3.6.2, https://matplotlib.org/</dc:title>
     </cc:Agent>
    </dc:creator>
   </cc:Work>
  </rdf:RDF>
 </metadata>
 <defs>
  <style type="text/css">*{stroke-linejoin: round; stroke-linecap: butt}</style>
 </defs>
 <g id="figure_1">
  <g id="patch_1">
   <path d="M 0 568.8 
L 288.34205 568.8 
L 288.34205 0 
L 0 0 
z
" style="fill: #ffffff"/>
  </g>
  <g id="axes_1">
   <g id="LineCollection_1">
    <path d="M 133.099379 169.243164 
L 132.951757 170.022897 
L 137.306605 171.582363 
L 143.211482 174.896229 
L 146.237732 177.332895 
L 145.425812 179.672094 
L 142.25194 185.715026 
L 137.601848 193.122491 
L 135.46133 197.118623 
L 133.394623 202.186888 
L 133.468434 203.453955 
L 134.870842 206.085554 
L 135.018464 207.742487 
L 133.689867 212.128486 
L 132.951757 215.734751 
L 133.099379 217.586618 
L 134.280355 220.218217 
L 137.528037 222.947283 
L 139.22569 223.824483 
L 140.554287 225.481416 
L 144.023403 227.235815 
L 146.754409 228.015548 
L 149.928281 229.477548 
L 153.028342 229.769948 
L 160.114196 235.22808 
L 165.207153 238.347012 
L 170.373921 240.101412 
L 179.157427 241.563411 
L 184.69325 244.487411 
L 186.464713 247.801276 
L 191.410049 252.772075 
L 189.786207 255.306208 
L 186.833768 260.861806 
L 185.43136 264.565539 
L 180.043159 275.189402 
L 177.681208 278.795668 
L 175.245445 283.571534 
L 171.77633 289.614465 
L 171.185842 291.173932 
L 164.98572 301.797795 
L 164.173799 304.819261 
L 160.630872 310.764726 
L 159.007031 313.006459 
L 154.504562 322.55819 
L 153.397397 323.72779 
L 151.773556 328.016322 
L 150.223525 329.965655 
L 148.083007 334.546587 
L 142.178129 342.928718 
L 140.701909 346.827383 
L 138.782824 349.653916 
L 134.575598 357.938581 
L 131.844592 362.811913 
L 130.515995 366.125778 
L 128.670721 369.147244 
L 126.530202 370.99911 
L 123.873007 376.359776 
L 120.108648 382.207774 
L 117.525263 386.69124 
L 117.525263 388.348173 
L 113.46566 397.315103 
L 110.956087 402.480835 
L 109.7013 403.942835 
L 108.815568 407.354167 
L 106.896483 409.206034 
L 104.017855 415.054032 
L 101.877337 418.757764 
L 101.508282 421.389364 
L 99.736819 423.631096 
L 97.227245 428.114562 
L 96.04627 429.186695 
L 94.643861 431.915761 
L 93.389075 432.792961 
L 90.067581 438.835892 
L 89.108038 441.954825 
L 89.772337 445.950957 
L 87.041331 446.145891 
L 85.712733 449.849623 
L 80.398343 456.184955 
L 78.331636 459.49882 
L 77.88877 461.54562 
L 74.714898 467.978418 
L 72.57438 470.999884 
L 70.581484 474.703616 
L 68.145722 477.530149 
L 67.186179 480.649081 
L 66.374258 481.136415 
L 64.012307 484.74268 
L 63.200386 486.692013 
L 61.355112 488.738813 
L 59.509838 491.955212 
L 59.066972 493.709611 
L 57.516941 496.243744 
L 55.228801 501.019609 
L 52.940661 506.672675 
L 51.981118 507.842274 
L 50.209655 511.546007 
L 47.921515 514.177606 
L 45.854807 518.271205 
L 43.492856 521.390137 
L 41.352338 525.67867 
L 40.614228 526.263469 
L 38.547521 531.331735 
L 35.152216 536.4 
L 29.247338 534.060801 
L 29.468771 533.281067 
L 27.992551 531.331735 
L 26.885387 533.281067 
L 25.852033 533.476001 
L 25.113923 535.132934 
L 23.34246 534.353201 
L 24.375814 532.014001 
L 24.154381 530.259602 
L 20.537643 526.458403 
L 19.873344 526.263469 
L 19.651911 523.534403 
L 21.497186 518.173738 
L 22.530539 516.126939 
L 22.973405 513.690273 
L 24.449625 511.546007 
L 25.187734 507.062541 
L 26.147277 505.015742 
L 26.663954 500.727209 
L 28.65685 495.366544 
L 30.94499 491.467879 
L 31.018801 489.810946 
L 32.199777 486.49708 
L 34.783161 482.598414 
L 35.742704 479.187082 
L 38.399899 475.678283 
L 42.23807 468.563218 
L 45.411941 464.079752 
L 46.81435 460.96082 
L 49.8406 459.011487 
L 49.323923 457.646954 
L 50.357277 452.188822 
L 51.464441 449.167356 
L 59.066972 440.882692 
L 61.059868 439.030826 
L 61.502734 435.42456 
L 63.790874 432.013228 
L 66.374258 426.847496 
L 67.629045 425.385496 
L 68.145722 422.94883 
L 70.581484 417.490698 
L 70.433862 416.028699 
L 72.279136 413.494566 
L 74.641087 408.523767 
L 76.560173 406.574434 
L 78.257825 403.455502 
L 78.62688 401.896036 
L 80.841209 398.58217 
L 81.431697 397.022704 
L 84.015081 394.586038 
L 85.343679 392.246838 
L 85.048435 389.712705 
L 86.007977 388.055773 
L 86.893709 383.962174 
L 90.73188 378.504042 
L 90.953313 377.139509 
L 95.234349 370.901644 
L 98.260599 363.591646 
L 99.663008 363.396712 
L 99.589197 359.69298 
L 95.972459 357.061381 
L 94.127185 354.722181 
L 93.389075 352.772849 
L 94.274806 349.653916 
L 97.153434 347.314717 
L 99.367764 344.975517 
L 106.232184 329.868188 
L 109.848922 324.897389 
L 112.72755 322.26579 
L 114.129959 321.583523 
L 118.706239 321.193657 
L 120.772946 321.68099 
L 125.792093 324.604989 
L 129.039775 324.702456 
L 132.582702 323.14299 
L 135.387519 320.51139 
L 137.085172 317.879791 
L 138.339958 314.273525 
L 139.889989 311.836859 
L 142.768617 309.20526 
L 148.230629 305.696461 
L 150.371147 303.747128 
L 152.585476 299.361129 
L 154.504562 293.902997 
L 154.209318 289.809399 
L 152.733098 287.177799 
L 151.921177 284.5462 
L 152.511665 279.088068 
L 154.283129 276.261535 
L 157.604622 272.265403 
L 163.214257 268.756604 
L 165.428586 265.832605 
L 166.019074 263.103539 
L 165.502397 260.374473 
L 165.797641 258.327674 
L 168.01197 252.187275 
L 169.635811 245.559544 
L 172.58825 239.321679 
L 174.728769 236.397679 
L 179.452671 231.621814 
L 182.626543 227.235815 
L 186.16947 218.366351 
L 189.26953 213.493019 
L 191.779104 210.958886 
L 194.51011 209.39942 
L 200.636421 207.450087 
L 208.017518 208.22982 
L 211.043768 207.93742 
L 214.291451 205.988087 
L 219.458219 197.898356 
L 226.765505 184.935293 
L 233.777548 171.67983 
L 235.032335 169.730497 
L 239.608615 161.055966 
L 241.232456 157.1573 
L 241.970566 151.114369 
L 242.118188 146.43597 
L 242.930109 142.732237 
L 242.782487 139.125972 
L 241.453889 135.714639 
L 239.534804 132.595707 
L 239.018127 130.841307 
L 239.682426 127.137575 
L 241.601511 122.654109 
L 244.332517 118.170644 
L 248.465932 112.907445 
L 253.189834 108.13158 
L 255.773218 104.915181 
L 256.880383 101.016515 
L 256.216084 96.045716 
L 256.806572 90.392651 
L 258.208981 83.277587 
L 259.168523 81.230787 
L 262.416206 77.916921 
L 267.28773 74.797989 
L 268.468706 73.433456 
L 268.690139 70.801857 
L 266.623432 67.877857 
L 263.892426 67.390524 
L 262.047151 67.877857 
L 255.625596 71.679056 
L 253.6327 71.386656 
L 252.08267 70.022123 
L 251.196938 67.293057 
L 251.787426 65.538658 
L 255.847029 60.470393 
L 259.611389 55.304661 
L 261.235231 52.088261 
L 262.047151 47.117463 
L 261.235231 44.193464 
L 259.316145 41.951731 
L 255.625596 38.735332 
L 250.015962 35.518933 
L 244.258706 33.959466 
L 241.675322 33.764533 
L 237.394286 32.4 
L 236.21331 32.4 
L 233.18706 34.056933 
L 231.784652 35.811332 
L 230.677487 39.027732 
L 230.677487 40.782131 
L 232.744194 44.29093 
L 238.575261 46.240263 
L 240.789591 48.871862 
L 241.453889 50.821195 
L 241.601511 54.914794 
L 242.930109 59.008393 
L 243.151542 62.127325 
L 242.487243 64.758925 
L 241.232456 67.000658 
L 236.877609 71.28919 
L 230.825109 73.725856 
L 228.241725 75.090389 
L 226.396451 77.527055 
L 224.84642 82.497853 
L 221.967792 85.324386 
L 214.586695 87.858519 
L 210.822335 89.807851 
L 207.869896 89.710385 
L 205.950811 88.735718 
L 201.153097 85.519319 
L 197.167305 84.252253 
L 191.705293 80.840921 
L 187.7195 79.378921 
L 184.767061 77.819455 
L 179.009805 73.920789 
L 177.164531 73.920789 
L 175.6145 76.747322 
L 173.031116 85.031986 
L 171.77633 85.031986 
L 170.004866 86.396519 
L 171.185842 86.786386 
L 171.112031 84.544653 
L 172.957305 85.714253 
L 170.595354 85.616786 
L 170.226299 87.663585 
L 171.702519 88.638252 
L 170.890598 89.223052 
L 170.595354 87.468652 
L 169.709622 87.955985 
L 170.152488 85.616786 
L 168.381025 88.540785 
L 168.01197 90.587585 
L 163.804744 98.969716 
L 162.919013 99.554516 
L 161.885659 101.893715 
L 159.523708 104.232914 
L 155.833159 109.88598 
L 155.464104 111.347979 
L 152.659287 113.394779 
L 151.847366 115.344111 
L 149.85447 117.195978 
L 148.747306 118.950377 
L 148.525873 120.89971 
L 147.271086 122.654109 
L 146.0163 126.455308 
L 145.352001 130.353974 
L 144.023403 133.180507 
L 140.554287 136.981706 
L 139.594745 139.613305 
L 136.273251 144.97397 
L 135.535141 147.703036 
L 134.280355 148.970102 
L 131.106483 150.627035 
L 129.187397 153.258635 
L 129.335019 155.987701 
L 126.456391 160.763566 
L 125.792093 160.763566 
L 125.423038 164.077432 
L 127.342123 167.878631 
L 129.851696 169.438097 
L 130.88505 169.243164 
L 130.88505 169.243164 
" clip-path="url(#pdc1e1be12c)" style="fill: none; stroke: #000000; stroke-width: 3"/>
   </g>
  </g>
 </g>
 <defs>
  <clipPath id="pdc1e1be12c">
   <rect x="7.2" y="7.2" width="273.94205" height="554.4"/>
  </clipPath>
 </defs>
</svg>
