<?xml version="1.0" encoding="utf-8" standalone="no"?>
<!DOCTYPE svg PUBLIC "-//W3C//DTD SVG 1.1//EN"
  "http://www.w3.org/Graphics/SVG/1.1/DTD/svg11.dtd">
<svg xmlns:xlink="http://www.w3.org/1999/xlink" width="283.662499pt" height="568.8pt" viewBox="0 0 283.662499 568.8" xmlns="http://www.w3.org/2000/svg" version="1.1">
 <metadata>
  <rdf:RDF xmlns:dc="http://purl.org/dc/elements/1.1/" xmlns:cc="http://creativecommons.org/ns#" xmlns:rdf="http://www.w3.org/1999/02/22-rdf-syntax-ns#">
   <cc:Work>
    <dc:type rdf:resource="http://purl.org/dc/dcmitype/StillImage"/>
    <dc:date>2023-09-25T14:14:04.629550</dc:date>
    <dc:format>image/svg+xml</dc:format>
    <dc:creator>
     <cc:Agent>
      <dc:title>Matplotlib v3.6.2, https://matplotlib.org/</dc:title>
     </cc:Agent>
    </dc:creator>
   </cc:Work>
  </rdf:RDF>
 </metadata>
 <defs>
  <style type="text/css">*{stroke-linejoin: round; stroke-linecap: butt}</style>
 </defs>
 <g id="figure_1">
  <g id="patch_1">
   <path d="M 0 568.8 
L 283.662499 568.8 
L 283.662499 0 
L 0 0 
z
" style="fill: #ffffff"/>
  </g>
  <g id="axes_1">
   <g id="LineCollection_1">
    <path d="M 157.126627 139.852555 
L 160.783587 141.99854 
L 161.654291 143.608029 
L 164.382499 144.527737 
L 166.820472 144.60438 
L 168.445787 146.290511 
L 169.490633 145.830657 
L 170.767666 142.994891 
L 171.870559 141.845255 
L 174.714861 143.378102 
L 176.45627 143.914599 
L 181.854638 146.367153 
L 184.408705 148.283212 
L 187.891524 150.19927 
L 188.936369 151.118978 
L 194.450832 153.264964 
L 198.281932 154.567883 
L 202.461314 157.020438 
L 204.144676 159.166423 
L 204.84124 161.235766 
L 205.886086 165.834307 
L 207.395307 168.823358 
L 211.922971 173.191971 
L 213.838521 176.257664 
L 217.147199 180.70292 
L 215.289695 184.611679 
L 213.780474 186.60438 
L 212.271253 189.593431 
L 211.981018 191.432847 
L 209.020622 196.79781 
L 207.801636 199.863504 
L 205.828039 202.469343 
L 204.492958 206.378102 
L 203.041784 207.910949 
L 201.822797 210.363504 
L 198.746308 215.651825 
L 196.366382 218.410949 
L 195.089348 220.786861 
L 193.289892 225.308759 
L 191.896765 226.535036 
L 190.793872 229.754015 
L 189.632933 231.363504 
L 186.672537 237.264964 
L 183.073625 244.852555 
L 182.377061 247.228467 
L 179.7069 250.447445 
L 176.862599 255.275912 
L 175.527518 257.115328 
L 174.366579 259.951095 
L 172.915404 262.173723 
L 171.348136 266.082482 
L 169.955009 267.462044 
L 169.316492 269.837956 
L 167.226801 273.056934 
L 164.962969 275.509489 
L 163.22156 280.108029 
L 161.538197 283.173723 
L 159.158271 286.622628 
L 158.287567 289.458394 
L 155.675453 292.830657 
L 154.862795 295.283212 
L 153.585762 297.045985 
L 150.857554 301.644526 
L 148.535675 304.556934 
L 146.968407 307.316058 
L 145.74942 312.681022 
L 144.124105 315.746715 
L 142.440743 316.359854 
L 141.686132 320.421898 
L 139.596441 323.794161 
L 138.957924 326.093431 
L 139.306206 326.859854 
L 137.913079 328.392701 
L 137.332609 331.611679 
L 135.300965 333.451095 
L 133.443462 336.670073 
L 130.947442 337.589781 
L 129.089939 337.359854 
L 129.960643 339.275912 
L 131.527912 340.348905 
L 131.702053 342.188321 
L 128.625563 345.637226 
L 125.316885 350.389051 
L 124.562275 352.381752 
L 121.77602 354.29781 
L 120.731174 355.60073 
L 120.266799 357.9 
L 118.989765 359.279562 
L 117.654685 362.268613 
L 113.243115 371.465693 
L 111.6178 375.60438 
L 107.728652 376.983942 
L 106.857948 380.816058 
L 107.496464 381.352555 
L 107.20623 382.732117 
L 106.335525 383.115328 
L 103.955599 387.254015 
L 102.504425 390.166423 
L 100.240593 392.465693 
L 99.021606 395.761314 
L 98.615277 398.367153 
L 96.525586 400.89635 
L 94.377848 405.188321 
L 93.797378 406.874453 
L 91.243312 410.016788 
L 91.881828 411.166423 
L 91.533546 413.082482 
L 86.889789 421.206569 
L 83.40697 425.575182 
L 81.665561 428.717518 
L 80.214387 429.943796 
L 79.227588 433.929197 
L 77.950555 435.768613 
L 77.195944 437.608029 
L 74.699924 440.290511 
L 72.784374 444.429197 
L 71.681481 444.889051 
L 71.217106 446.038686 
L 71.101012 448.644526 
L 68.721086 450.713869 
L 68.198663 454.162774 
L 67.211864 455.312409 
L 67.444052 458.224818 
L 66.689442 460.294161 
L 62.974435 466.348905 
L 60.362321 469.721168 
L 59.201382 472.710219 
L 57.053644 480.374453 
L 55.602469 484.972993 
L 53.164497 489.571533 
L 51.713322 495.779562 
L 50.842618 497.312409 
L 50.436289 500.224818 
L 50.494336 502.60073 
L 49.391443 511.184672 
L 48.985114 511.644526 
L 47.591987 516.166423 
L 46.663235 517.545985 
L 45.502296 520.228467 
L 43.993075 522.144526 
L 42.599947 524.827007 
L 42.5419 525.9 
L 43.470652 526.89635 
L 46.489094 528.659124 
L 49.44949 529.808759 
L 52.52598 532.031387 
L 58.446771 534.713869 
L 59.317476 534.867153 
L 61.987637 536.4 
L 61.523261 535.480292 
L 59.259429 535.020438 
L 55.77661 533.257664 
L 54.963953 533.410949 
L 51.655275 531.878102 
L 50.668477 527.892701 
L 50.552383 526.053285 
L 51.016758 524.443796 
L 53.744966 519.768613 
L 55.428329 516.089781 
L 54.847859 514.786861 
L 47.069564 509.728467 
L 45.386202 509.575182 
L 42.367759 506.892701 
L 40.916585 506.509489 
L 39.349317 504.976642 
L 33.254384 501.834307 
L 30.816411 499.688321 
L 26.346794 497.925547 
L 24.024915 496.009489 
L 19.439205 493.786861 
L 19.439205 492.867153 
L 21.006473 490.491241 
L 22.863976 486.735766 
L 31.048599 473.093431 
L 32.093445 470.564234 
L 34.183136 466.808759 
L 34.647512 465.429197 
L 36.969391 461.827007 
L 39.813692 456.232117 
L 41.903384 453.089781 
L 43.935028 449.410949 
L 43.586746 448.491241 
L 44.283309 446.49854 
L 46.663235 443.586131 
L 46.663235 442.819708 
L 49.159255 437.608029 
L 53.744966 430.556934 
L 58.098489 422.049635 
L 59.781852 418.370803 
L 62.219825 414.462044 
L 64.889985 408.560584 
L 67.908428 403.808759 
L 69.649837 400.129927 
L 70.984918 398.59708 
L 72.378045 397.907299 
L 73.945313 394.994891 
L 76.325239 392.312409 
L 78.124695 388.020438 
L 79.401729 384.264964 
L 83.871346 377.137226 
L 86.193225 372.308759 
L 87.702446 370.316058 
L 88.050728 368.4 
L 89.443855 366.637226 
L 91.765734 362.038686 
L 94.203707 355.064234 
L 96.757774 352.841606 
L 96.003163 351.768613 
L 96.757774 349.392701 
L 96.409492 348.013139 
L 97.164103 346.327007 
L 99.71817 342.111679 
L 98.731371 342.111679 
L 99.950358 340.578832 
L 100.995203 338.126277 
L 102.098096 337.283212 
L 104.478022 333.374453 
L 105.638961 330.462044 
L 106.683807 329.005839 
L 108.367169 323.870803 
L 111.501706 320.115328 
L 115.274759 316.89635 
L 116.435698 314.367153 
L 118.525389 311.608029 
L 120.673128 308.235766 
L 121.950161 307.392701 
L 123.865711 305.170073 
L 124.388134 302.870803 
L 127.580717 299.191971 
L 128.451422 296.739416 
L 130.483066 292.983942 
L 130.773301 291.374453 
L 129.960643 289.535036 
L 126.942201 287.082482 
L 126.245637 283.327007 
L 127.232436 280.951095 
L 131.005489 277.19562 
L 133.965885 270.527737 
L 137.158468 264.166423 
L 138.493549 262.40365 
L 140.873475 260.027737 
L 143.83387 258.954745 
L 146.852313 259.261314 
L 150.683413 261.637226 
L 151.9024 262.09708 
L 154.456467 262.09708 
L 157.358815 260.487591 
L 159.390459 258.494891 
L 160.609446 256.655474 
L 162.176714 252.593431 
L 164.730781 249.757664 
L 169.316492 246.768613 
L 170.535478 245.542336 
L 172.160794 242.783212 
L 173.786109 238.337956 
L 174.192438 236.191971 
L 174.076344 234.352555 
L 172.567122 230.520438 
L 172.160794 228.451095 
L 172.334935 226.458394 
L 173.089545 224.618978 
L 175.005095 222.089781 
L 176.746505 220.327007 
L 180.983934 217.567883 
L 182.435108 215.881752 
L 183.073625 212.892701 
L 182.957531 210.056934 
L 185.569645 201.166423 
L 186.440349 198.790511 
L 189.052463 193.50219 
L 193.115751 189.210219 
L 195.089348 186.757664 
L 196.946852 183.462044 
L 198.223885 180.013139 
L 199.558965 177.330657 
L 201.416469 174.341606 
L 203.273972 172.578832 
L 205.711945 171.045985 
L 209.310857 169.819708 
L 211.052266 169.589781 
L 217.32134 170.432847 
L 219.004702 170.126277 
L 220.920252 168.9 
L 222.429473 166.677372 
L 224.40307 162.768613 
L 230.033627 152.421898 
L 234.909573 144.144526 
L 240.424035 134.027737 
L 242.397632 130.042336 
L 242.745914 127.053285 
L 242.571773 122.684672 
L 243.384431 118.162774 
L 243.384431 116.629927 
L 242.687867 113.794161 
L 241.004505 110.575182 
L 240.71427 108.505839 
L 241.062552 106.436496 
L 243.848807 100.994891 
L 245.590216 98.235766 
L 248.434518 94.710219 
L 251.917336 91.184672 
L 253.600698 88.655474 
L 254.355309 85.359854 
L 254.297262 80.991241 
L 254.877732 77.082482 
L 255.806483 72.713869 
L 257.02547 70.031387 
L 258.36055 68.268613 
L 260.10196 66.965693 
L 263.294543 65.126277 
L 264.223295 62.750365 
L 263.758919 61.370803 
L 262.714073 60.374453 
L 259.869772 59.761314 
L 258.476644 60.221168 
L 254.993826 62.750365 
L 252.323665 63.056934 
L 251.162726 62.290511 
L 250.233974 59.991241 
L 251.104679 57.462044 
L 253.774839 54.243066 
L 256.096718 50.564234 
L 257.780081 46.962044 
L 258.36055 43.666423 
L 257.663987 41.213869 
L 256.212812 39.527737 
L 253.19437 36.921898 
L 250.466162 35.312409 
L 248.260377 34.545985 
L 238.21825 32.4 
L 236.88317 32.706569 
L 234.96762 34.929197 
L 234.561291 35.925547 
L 234.38715 38.991241 
L 235.315902 40.983942 
L 236.592935 41.90365 
L 239.843566 43.283212 
L 242.339585 45.889051 
L 242.687867 49.79781 
L 244.603417 54.549635 
L 244.661464 56.235766 
L 243.384431 59.378102 
L 240.365988 62.443796 
L 238.160203 63.593431 
L 233.284257 65.432847 
L 232.181365 66.19927 
L 230.672144 68.421898 
L 228.81464 72.637226 
L 227.363466 74.093431 
L 219.178843 77.542336 
L 217.205246 78.00219 
L 213.316098 76.316058 
L 209.775233 73.786861 
L 207.859683 73.556934 
L 205.189522 71.717518 
L 200.371623 69.724818 
L 197.17904 67.19562 
L 192.767469 64.589781 
L 192.070906 64.743066 
L 190.27145 68.345255 
L 187.659336 72.407299 
L 185.627692 77.772263 
L 183.479954 81.144526 
L 182.725343 83.213869 
L 180.461511 87.122628 
L 180.171276 88.272263 
L 178.894243 89.881752 
L 177.326974 92.870803 
L 175.527518 95.4 
L 173.844156 96.70292 
L 169.838915 106.589781 
L 167.400942 110.268613 
L 165.89172 113.10438 
L 165.079063 113.947445 
L 163.453748 117.472993 
L 161.596244 120.921898 
L 161.306009 122.378102 
L 159.622647 125.290511 
L 158.635849 124.907299 
L 159.042177 126.823358 
L 157.881238 128.279562 
L 155.501312 132.341606 
L 154.57256 134.410949 
L 152.482869 137.859854 
L 152.482869 138.549635 
L 157.06858 140.69562 
L 157.010533 140.389051 
L 157.010533 140.389051 
" clip-path="url(#pd77e06bd54)" style="fill: none; stroke: #000000; stroke-width: 3"/>
   </g>
  </g>
 </g>
 <defs>
  <clipPath id="pd77e06bd54">
   <rect x="7.2" y="7.2" width="269.262499" height="554.4"/>
  </clipPath>
 </defs>
</svg>
