<?xml version="1.0" encoding="utf-8" standalone="no"?>
<!DOCTYPE svg PUBLIC "-//W3C//DTD SVG 1.1//EN"
  "http://www.w3.org/Graphics/SVG/1.1/DTD/svg11.dtd">
<svg xmlns:xlink="http://www.w3.org/1999/xlink" width="260.240049pt" height="568.8pt" viewBox="0 0 260.240049 568.8" xmlns="http://www.w3.org/2000/svg" version="1.1">
 <metadata>
  <rdf:RDF xmlns:dc="http://purl.org/dc/elements/1.1/" xmlns:cc="http://creativecommons.org/ns#" xmlns:rdf="http://www.w3.org/1999/02/22-rdf-syntax-ns#">
   <cc:Work>
    <dc:type rdf:resource="http://purl.org/dc/dcmitype/StillImage"/>
    <dc:date>2023-09-25T14:14:04.563638</dc:date>
    <dc:format>image/svg+xml</dc:format>
    <dc:creator>
     <cc:Agent>
      <dc:title>Matplotlib v3.6.2, https://matplotlib.org/</dc:title>
     </cc:Agent>
    </dc:creator>
   </cc:Work>
  </rdf:RDF>
 </metadata>
 <defs>
  <style type="text/css">*{stroke-linejoin: round; stroke-linecap: butt}</style>
 </defs>
 <g id="figure_1">
  <g id="patch_1">
   <path d="M 0 568.8 
L 260.240049 568.8 
L 260.240049 0 
L 0 0 
z
" style="fill: #ffffff"/>
  </g>
  <g id="axes_1">
   <g id="LineCollection_1">
    <path d="M 232.838708 32.4 
L 236.781445 33.769937 
L 239.167839 35.824844 
L 240.931695 38.701712 
L 241.865501 44.318456 
L 241.761745 50.483175 
L 240.205401 57.469856 
L 239.064083 66.37445 
L 239.68662 74.731068 
L 238.752814 79.799837 
L 236.158908 84.457624 
L 233.668758 87.608481 
L 229.414752 90.622343 
L 222.255571 97.061049 
L 215.822684 104.595705 
L 209.493553 113.500299 
L 202.64564 117.610111 
L 196.108997 123.500843 
L 191.232453 130.624518 
L 189.883622 138.159174 
L 191.33621 156.790323 
L 189.883622 164.598967 
L 188.431035 167.201848 
L 185.837129 168.70878 
L 177.432873 171.859636 
L 172.037548 178.709323 
L 168.717348 185.832998 
L 163.114511 200.491329 
L 160.624361 206.38206 
L 158.44548 210.217885 
L 153.46518 214.738679 
L 146.617268 220.355423 
L 140.18438 227.479098 
L 133.543981 235.424735 
L 129.186218 245.151291 
L 129.393731 249.809079 
L 131.883881 255.014841 
L 141.325699 264.330416 
L 142.467018 266.796303 
L 141.636968 270.769122 
L 139.665599 274.056972 
L 135.100324 284.605491 
L 132.195149 285.290459 
L 129.289975 288.852297 
L 125.55475 296.934928 
L 122.960844 300.770753 
L 119.225619 303.373634 
L 116.735469 307.757434 
L 114.971613 308.990378 
L 107.189894 320.634846 
L 103.662182 326.662571 
L 101.898326 333.375265 
L 99.511932 338.992009 
L 93.49407 347.759609 
L 91.83397 353.239359 
L 81.665858 368.308671 
L 78.449414 378.583202 
L 74.40292 386.665833 
L 66.932471 403.653058 
L 64.75359 406.529927 
L 62.367196 411.187714 
L 59.150752 419.270345 
L 58.216946 424.339114 
L 55.000502 428.311933 
L 49.397665 432.832726 
L 39.748334 451.326882 
L 38.399503 455.573689 
L 33.626716 462.834357 
L 27.090072 475.300788 
L 24.807435 480.506551 
L 18.374548 491.877032 
L 19.619623 495.301876 
L 29.891491 501.603588 
L 33.315447 503.110519 
L 35.390572 503.110519 
L 38.295747 505.7134 
L 46.077465 508.179288 
L 53.13289 513.522044 
L 56.764359 515.57695 
L 61.43339 517.357869 
L 66.309933 519.96075 
L 74.195408 528.317369 
L 76.89307 529.550313 
L 73.157846 536.4 
L 70.563939 535.989019 
L 63.508515 532.701169 
L 58.424459 527.495406 
" clip-path="url(#p86b4285bfb)" style="fill: none; stroke: #000000; stroke-width: 3"/>
   </g>
  </g>
 </g>
 <defs>
  <clipPath id="p86b4285bfb">
   <rect x="7.2" y="7.2" width="245.840049" height="554.4"/>
  </clipPath>
 </defs>
</svg>
