<?xml version="1.0" encoding="utf-8" standalone="no"?>
<!DOCTYPE svg PUBLIC "-//W3C//DTD SVG 1.1//EN"
  "http://www.w3.org/Graphics/SVG/1.1/DTD/svg11.dtd">
<svg xmlns:xlink="http://www.w3.org/1999/xlink" width="309.640097pt" height="568.8pt" viewBox="0 0 309.640097 568.8" xmlns="http://www.w3.org/2000/svg" version="1.1">
 <metadata>
  <rdf:RDF xmlns:dc="http://purl.org/dc/elements/1.1/" xmlns:cc="http://creativecommons.org/ns#" xmlns:rdf="http://www.w3.org/1999/02/22-rdf-syntax-ns#">
   <cc:Work>
    <dc:type rdf:resource="http://purl.org/dc/dcmitype/StillImage"/>
    <dc:date>2023-09-25T14:14:04.493935</dc:date>
    <dc:format>image/svg+xml</dc:format>
    <dc:creator>
     <cc:Agent>
      <dc:title>Matplotlib v3.6.2, https://matplotlib.org/</dc:title>
     </cc:Agent>
    </dc:creator>
   </cc:Work>
  </rdf:RDF>
 </metadata>
 <defs>
  <style type="text/css">*{stroke-linejoin: round; stroke-linecap: butt}</style>
 </defs>
 <g id="figure_1">
  <g id="patch_1">
   <path d="M 0 568.8 
L 309.640097 568.8 
L 309.640097 0 
L 0 0 
z
" style="fill: #ffffff"/>
  </g>
  <g id="axes_1">
   <g id="LineCollection_1">
    <path d="M 21.918468 536.4 
L 23.446073 534.987953 
L 20.620004 535.391395 
L 21.994848 533.777627 
L 24.286255 528.331159 
L 27.952505 521.069202 
L 29.55649 519.758015 
L 33.22274 517.942526 
L 35.208626 512.395197 
L 41.624565 503.922914 
L 45.138055 497.770422 
L 48.651545 493.33256 
L 49.568107 491.41621 
L 52.776076 486.675765 
L 53.616259 484.557695 
L 57.35889 478.808645 
L 57.282509 474.774225 
L 59.039254 470.03378 
L 60.108577 468.924315 
L 61.330661 465.696778 
L 63.087406 462.872684 
L 63.851208 460.653752 
L 65.531573 458.737402 
L 66.600896 455.610726 
L 67.97574 453.391795 
L 65.760714 450.063398 
L 64.767771 446.331559 
L 68.281261 444.51607 
L 68.815922 443.305743 
L 72.023892 441.086812 
L 73.857017 438.968741 
L 77.523267 436.548089 
L 80.578476 433.623134 
L 82.564362 431.00076 
L 82.564362 429.084411 
L 84.397487 425.150851 
L 85.237669 420.813848 
L 84.091966 419.603522 
L 84.091966 416.476846 
L 84.932149 414.358775 
L 85.619571 409.41661 
L 86.994414 406.390794 
L 91.118946 400.944327 
L 97.458504 393.88409 
L 100.819234 388.639344 
L 102.95788 384.806644 
L 104.409104 379.662758 
L 106.853271 374.619732 
L 107.235172 370.887893 
L 104.561865 367.156054 
L 104.791005 363.928517 
L 105.554808 362.415609 
L 112.276267 355.657955 
L 113.49835 354.145047 
L 121.059992 338.410806 
L 122.816737 335.687573 
L 127.628691 330.846268 
L 130.072858 329.635942 
L 133.586348 329.635942 
L 137.86364 331.552291 
L 140.002286 333.16606 
L 142.751974 333.872083 
L 146.036323 333.367781 
L 150.848277 329.837663 
L 153.368824 325.50066 
L 154.743668 321.667961 
L 156.424033 319.247308 
L 158.8682 317.330959 
L 164.138435 314.204283 
L 166.735363 311.481049 
L 170.096092 304.118231 
L 170.859895 299.98295 
L 170.248853 296.856274 
L 168.415728 292.922714 
L 168.262967 287.274525 
L 169.026769 285.559896 
L 173.227681 280.41601 
L 180.560182 274.969542 
L 182.316927 271.641145 
L 182.011406 267.001561 
L 182.393308 264.78263 
L 183.768151 260.849069 
L 185.295756 254.999159 
L 186.6706 251.469041 
L 190.947892 243.097619 
L 196.065367 237.752011 
L 199.273336 233.717591 
L 202.099404 228.271123 
L 204.390811 222.723794 
L 207.59878 217.882489 
L 210.272087 215.562698 
L 214.091098 213.545487 
L 219.055813 212.234301 
L 228.221439 213.041185 
L 230.360085 212.839464 
L 233.873575 209.914509 
L 242.428159 193.877687 
L 246.858212 186.615729 
L 255.030896 171.385791 
L 258.849906 164.628137 
L 261.064933 159.38339 
L 261.370454 157.668761 
L 261.446834 147.885291 
L 261.981495 143.649149 
L 260.835792 139.009566 
L 258.544386 134.571703 
L 258.315245 133.058795 
L 259.155427 128.015769 
L 262.821678 121.258115 
L 265.418605 117.425415 
L 272.751106 109.659155 
L 275.729935 105.322153 
L 276.340977 102.69978 
L 275.959075 96.95073 
L 276.570117 91.705984 
L 277.868581 84.847468 
L 279.090664 82.225095 
L 282.298634 78.392395 
L 287.721629 74.963138 
L 288.943713 73.248509 
L 289.020093 70.222694 
L 286.499546 68.003762 
L 282.986056 68.003762 
L 277.48668 71.836462 
L 274.04957 72.542485 
L 271.987304 71.836462 
L 270.61246 70.323554 
L 270.383319 66.894297 
L 271.529023 64.877086 
L 273.591289 62.859876 
L 277.028398 58.422013 
L 279.625326 53.88329 
L 281.15293 50.05059 
L 281.611212 46.621333 
L 281.00017 43.797238 
L 279.167045 41.477446 
L 276.722878 39.460236 
L 271.681783 36.2327 
L 266.717069 34.215489 
L 261.599594 33.711187 
L 256.864021 32.4 
L 253.579671 32.4 
L 251.441025 34.013768 
L 250.371702 35.829258 
L 249.76066 38.855073 
L 250.218942 42.284331 
L 253.12139 44.704983 
L 256.787641 45.814449 
L 260.14837 48.335962 
L 261.370454 52.370382 
L 261.446834 56.606524 
L 262.745298 60.237503 
L 263.127199 63.767621 
L 262.210636 66.087412 
L 259.99561 69.415809 
L 256.023838 72.441625 
L 249.913421 74.862277 
L 247.469254 76.173464 
L 245.483368 78.795838 
L 243.115581 84.242305 
L 239.678472 87.268121 
L 233.720814 89.587913 
L 230.971127 90.99996 
L 227.304876 94.328357 
L 224.707949 97.757615 
L 221.49998 103.910106 
L 219.819615 109.356574 
L 218.21563 112.58411 
L 215.847843 116.013368 
L 213.785577 117.727997 
L 209.584665 120.24951 
L 207.369639 122.871883 
L 206.147556 126.09942 
L 206.223936 133.462237 
L 204.849092 137.698379 
L 201.793883 140.522473 
L 194.690523 143.548289 
L 190.565991 146.170662 
L 186.365079 150.406804 
L 183.691771 154.239504 
L 181.705886 157.971343 
L 180.789323 161.198879 
L 180.483802 166.040184 
L 180.942083 168.864279 
L 183.30987 176.529678 
L 183.844532 179.454633 
L 183.691771 182.480448 
L 182.622448 185.001961 
L 179.414479 190.145848 
L 176.35927 193.675966 
L 169.561431 198.920712 
L 167.651925 201.341365 
L 167.040884 200.635341 
L 168.339347 194.48285 
L 167.651925 188.532079 
L 166.506222 185.707985 
L 163.909295 183.085611 
L 155.27833 178.143446 
L 149.015152 174.815049 
L 147.869449 174.613328 
L 147.869449 174.613328 
" clip-path="url(#pb6649f9ac2)" style="fill: none; stroke: #000000; stroke-width: 3"/>
   </g>
  </g>
 </g>
 <defs>
  <clipPath id="pb6649f9ac2">
   <rect x="7.2" y="7.2" width="295.240097" height="554.4"/>
  </clipPath>
 </defs>
</svg>
