<?xml version="1.0" encoding="utf-8" standalone="no"?>
<!DOCTYPE svg PUBLIC "-//W3C//DTD SVG 1.1//EN"
  "http://www.w3.org/Graphics/SVG/1.1/DTD/svg11.dtd">
<svg xmlns:xlink="http://www.w3.org/1999/xlink" width="298.276215pt" height="568.8pt" viewBox="0 0 298.276215 568.8" xmlns="http://www.w3.org/2000/svg" version="1.1">
 <metadata>
  <rdf:RDF xmlns:dc="http://purl.org/dc/elements/1.1/" xmlns:cc="http://creativecommons.org/ns#" xmlns:rdf="http://www.w3.org/1999/02/22-rdf-syntax-ns#">
   <cc:Work>
    <dc:type rdf:resource="http://purl.org/dc/dcmitype/StillImage"/>
    <dc:date>2023-09-25T14:14:04.417613</dc:date>
    <dc:format>image/svg+xml</dc:format>
    <dc:creator>
     <cc:Agent>
      <dc:title>Matplotlib v3.6.2, https://matplotlib.org/</dc:title>
     </cc:Agent>
    </dc:creator>
   </cc:Work>
  </rdf:RDF>
 </metadata>
 <defs>
  <style type="text/css">*{stroke-linejoin: round; stroke-linecap: butt}</style>
 </defs>
 <g id="figure_1">
  <g id="patch_1">
   <path d="M 0 568.8 
L 298.276215 568.8 
L 298.276215 0 
L 0 0 
z
" style="fill: #ffffff"/>
  </g>
  <g id="axes_1">
   <g id="LineCollection_1">
    <path d="M 141.79107 169.003598 
L 147.624396 171.148694 
L 149.544225 172.903772 
L 152.793166 174.366338 
L 155.303711 176.803947 
L 155.303711 177.973999 
L 150.799498 188.114452 
L 147.772075 193.087174 
L 145.26153 198.742426 
L 143.341701 202.252583 
L 141.86491 203.617644 
L 142.972503 204.8852 
L 143.48938 209.077887 
L 142.381787 216.195705 
L 143.63706 220.485897 
L 152.793166 227.213697 
L 159.881764 229.553802 
L 169.18555 234.039002 
L 173.542084 237.451654 
L 177.824779 239.59675 
L 181.885955 240.571793 
L 188.309997 241.449333 
L 193.331088 244.276959 
L 196.136992 248.177133 
L 200.419686 252.174811 
L 200.419686 255.197446 
L 197.170746 261.047707 
L 192.371174 270.993151 
L 185.947131 282.303656 
L 183.436586 285.228787 
L 181.590597 290.0065 
L 179.30157 293.224144 
L 174.945036 301.609518 
L 173.837442 305.412188 
L 169.850106 311.262449 
L 168.004117 316.43018 
L 164.902855 322.377945 
L 158.84801 329.788276 
L 158.257294 331.738363 
L 156.780502 333.298433 
L 153.162364 339.831225 
L 150.799498 344.803947 
L 150.35646 346.949042 
L 148.362792 351.336738 
L 146.516803 353.481834 
L 145.040011 356.601973 
L 143.56322 358.55206 
L 138.689809 366.83993 
L 137.803734 367.814974 
L 135.07167 372.495183 
L 132.265766 379.710505 
L 131.748889 382.928149 
L 128.352269 387.413349 
L 126.284761 388.583401 
L 124.80797 392.58108 
L 120.894473 399.698897 
L 119.048484 402.039002 
L 117.867051 404.866628 
L 114.765789 409.741846 
L 109.52318 418.712246 
L 107.381832 421.734881 
L 106.200399 424.85502 
L 102.951458 429.925247 
L 100.662432 434.507951 
L 99.628678 435.873012 
L 94.459908 445.818456 
L 92.540079 448.841091 
L 90.251053 450.888683 
L 88.109705 455.471387 
L 86.263716 458.494022 
L 83.531652 464.734301 
L 81.981021 466.586883 
L 79.175118 473.607197 
L 76.738412 476.629832 
L 73.046434 483.552641 
L 71.865001 486.867789 
L 69.502134 489.500406 
L 68.320701 492.230528 
L 65.1456 498.178294 
L 62.561215 502.370981 
L 61.084424 505.49112 
L 58.573879 508.708764 
L 54.438863 516.606616 
L 53.25743 518.26419 
L 49.270093 526.162043 
L 46.981067 529.769704 
L 46.685708 530.939756 
L 44.839719 533.182356 
L 43.06757 536.4 
L 41.147741 536.302496 
L 39.52327 535.424956 
L 37.234244 535.327452 
L 34.206822 532.792339 
L 25.124555 527.332095 
L 21.063379 526.162043 
L 20.103464 523.919443 
L 22.318651 519.921764 
L 22.318651 518.751712 
L 26.232148 510.85386 
L 30.810201 503.541033 
L 33.320747 498.373302 
L 33.763784 496.52072 
L 36.052811 492.523041 
L 39.966308 483.747649 
L 41.147741 481.797562 
L 44.544361 474.777249 
L 45.430436 473.412188 
L 47.645623 468.341962 
L 49.491612 465.61184 
L 55.694136 454.398839 
L 57.613964 450.401161 
L 59.016916 446.403482 
L 61.232103 442.015786 
L 61.67514 439.18816 
L 63.37345 434.800464 
L 64.554884 433.727916 
L 65.514798 431.290308 
L 65.440958 427.97516 
L 67.139268 426.707603 
L 69.132937 423.197446 
L 70.683568 418.322229 
L 73.63715 414.129541 
L 74.818583 411.204411 
L 77.550647 406.816715 
L 83.162454 400.186419 
L 84.343887 395.701219 
L 87.740507 390.143471 
L 90.76793 382.538131 
L 91.580165 379.613001 
L 93.795352 377.467905 
L 96.970453 371.910157 
L 97.708849 368.790017 
L 101.400827 360.79466 
L 104.28057 358.357052 
L 104.575929 355.529425 
L 102.065383 353.38433 
L 100.88395 351.434243 
L 101.770025 348.509112 
L 107.012634 343.53639 
L 108.637105 340.903772 
L 114.470431 329.20325 
L 116.24258 326.863146 
L 119.270003 323.840511 
L 122.961981 321.402902 
L 125.915564 320.817876 
L 130.345938 321.402902 
L 135.588547 323.938015 
L 139.059006 324.230528 
L 141.052675 323.450493 
L 143.415541 321.695415 
L 145.630728 319.257806 
L 148.584311 312.042484 
L 150.4303 309.799884 
L 156.706663 305.607197 
L 159.586406 302.974579 
L 162.31847 298.001857 
L 163.499903 292.444109 
L 163.352224 290.201509 
L 161.063197 284.936274 
L 160.694 282.401161 
L 161.137037 279.086013 
L 162.983026 276.160882 
L 166.084288 272.455717 
L 172.877528 267.775508 
L 175.018875 264.557864 
L 175.092715 258.41509 
L 177.824779 247.592107 
L 179.523089 243.301915 
L 182.550511 237.451654 
L 183.805784 235.891584 
L 188.826874 230.821358 
L 191.411259 227.018688 
L 193.700286 222.338479 
L 194.881719 219.023331 
L 199.312093 212.100522 
L 202.782553 209.272896 
L 206.474531 207.712826 
L 210.978745 206.737783 
L 218.215022 207.810331 
L 221.537803 207.030296 
L 223.236113 205.860244 
L 225.229781 202.935113 
L 228.84792 196.59733 
L 231.506144 191.4296 
L 244.797266 168.126059 
L 249.522998 158.863146 
L 250.778271 154.47545 
L 250.704431 146.772606 
L 251.442827 141.507371 
L 250.99979 137.802205 
L 249.079961 133.804527 
L 247.972367 130.489379 
L 248.267726 127.759257 
L 249.596838 124.151596 
L 251.368988 120.446431 
L 254.101052 116.058735 
L 257.349992 112.451074 
L 261.928046 107.868369 
L 264.881628 104.358212 
L 266.063061 100.068021 
L 265.546184 96.557864 
L 265.989222 89.147533 
L 267.244494 83.004759 
L 269.164323 79.397098 
L 272.044066 76.666976 
L 276.917478 73.741846 
L 278.17275 70.621706 
L 276.326761 67.696576 
L 274.702291 67.11155 
L 271.157991 67.696576 
L 266.727617 71.011724 
L 263.183318 71.206732 
L 261.706527 70.329193 
L 260.303575 67.209054 
L 261.558848 63.601393 
L 266.136901 58.238654 
L 267.392174 56.288566 
L 270.493435 49.463262 
L 270.714954 45.855601 
L 269.828879 43.905514 
L 267.761371 41.272896 
L 264.955468 38.640279 
L 259.122142 35.227626 
L 254.987126 34.155078 
L 248.193886 33.277539 
L 245.535662 32.4 
L 243.911191 32.692513 
L 241.474486 35.032618 
L 240.514571 37.080209 
L 240.071534 39.907835 
L 240.883769 42.345444 
L 242.803598 43.808009 
L 247.677009 45.465583 
L 249.22764 46.440627 
L 250.630592 49.560766 
L 251.295148 55.118514 
L 252.771939 59.896228 
L 252.771939 62.528845 
L 251.959704 65.356471 
L 249.818357 68.574115 
L 247.307811 70.719211 
L 245.092624 71.986767 
L 238.668582 74.619385 
L 236.158037 76.861985 
L 235.271962 78.32455 
L 233.795171 82.614742 
L 231.875342 84.759837 
L 229.512476 86.124898 
L 222.719236 88.757516 
L 218.51038 92.365177 
L 216.738231 94.90029 
L 213.784648 100.750551 
L 211.126424 107.67336 
L 210.757226 109.720952 
L 208.615878 112.938595 
L 206.991408 114.401161 
L 201.158082 118.203831 
L 199.459772 120.738944 
L 198.278339 125.711666 
L 198.426018 131.464423 
L 198.13066 133.41451 
L 196.580029 135.852118 
L 194.438682 137.509692 
L 187.423923 140.337319 
L 184.839538 141.117353 
L 180.261485 145.505049 
L 177.455581 149.11271 
L 175.388073 153.110389 
L 173.837442 157.595589 
L 173.542084 161.495763 
L 174.132801 165.200929 
L 176.200309 172.318746 
L 176.717186 175.243877 
L 176.495667 178.071503 
L 175.166555 181.776669 
L 169.997785 188.406965 
L 166.527325 191.234591 
L 162.466149 193.867208 
L 160.915518 196.207313 
L 159.807925 195.524782 
L 160.767839 192.014626 
L 161.358556 186.944399 
L 160.62016 183.531747 
L 159.438727 180.801625 
L 156.854342 177.681486 
L 157.002021 175.53639 
L 158.626492 172.806268 
L 158.035775 170.173651 
L 148.436631 164.420894 
L 144.523134 162.568311 
L 141.200354 160.325711 
L 130.198258 154.182937 
L 123.774216 149.892745 
L 121.632869 147.650145 
L 118.310088 147.357632 
L 116.537939 149.697737 
L 116.537939 151.842832 
L 117.497853 153.890424 
L 115.725703 156.133024 
L 122.518943 158.668137 
L 130.641296 163.835868 
L 133.742558 165.103424 
L 135.219349 166.370981 
L 141.643391 169.49112 
L 141.643391 169.49112 
" clip-path="url(#pf623eed1a1)" style="fill: none; stroke: #000000; stroke-width: 3"/>
   </g>
  </g>
 </g>
 <defs>
  <clipPath id="pf623eed1a1">
   <rect x="7.2" y="7.2" width="283.876215" height="554.4"/>
  </clipPath>
 </defs>
</svg>
