<?xml version="1.0" encoding="utf-8" standalone="no"?>
<!DOCTYPE svg PUBLIC "-//W3C//DTD SVG 1.1//EN"
  "http://www.w3.org/Graphics/SVG/1.1/DTD/svg11.dtd">
<svg xmlns:xlink="http://www.w3.org/1999/xlink" width="572.4pt" height="462.863268pt" viewBox="0 0 572.4 462.863268" xmlns="http://www.w3.org/2000/svg" version="1.1">
 <metadata>
  <rdf:RDF xmlns:dc="http://purl.org/dc/elements/1.1/" xmlns:cc="http://creativecommons.org/ns#" xmlns:rdf="http://www.w3.org/1999/02/22-rdf-syntax-ns#">
   <cc:Work>
    <dc:type rdf:resource="http://purl.org/dc/dcmitype/StillImage"/>
    <dc:date>2023-09-25T14:14:04.214849</dc:date>
    <dc:format>image/svg+xml</dc:format>
    <dc:creator>
     <cc:Agent>
      <dc:title>Matplotlib v3.6.2, https://matplotlib.org/</dc:title>
     </cc:Agent>
    </dc:creator>
   </cc:Work>
  </rdf:RDF>
 </metadata>
 <defs>
  <style type="text/css">*{stroke-linejoin: round; stroke-linecap: butt}</style>
 </defs>
 <g id="figure_1">
  <g id="patch_1">
   <path d="M 0 462.863268 
L 572.4 462.863268 
L 572.4 -0 
L 0 -0 
z
" style="fill: #ffffff"/>
  </g>
  <g id="axes_1">
   <g id="LineCollection_1">
    <path d="M 51.253098 27.584694 
L 53.910367 27.935549 
L 58.959179 30.742392 
L 56.213334 33.90009 
L 55.859031 37.759498 
L 54.176094 41.501955 
L 53.201762 45.829171 
L 51.253098 47.817351 
L 50.987371 52.729325 
L 49.393009 55.419216 
L 47.090042 56.471782 
L 48.15295 61.734612 
L 45.938559 62.670226 
L 43.104138 62.904129 
L 44.167046 65.944875 
L 43.724168 70.155139 
L 42.572684 76.353583 
L 42.838411 79.628233 
L 43.901319 81.616413 
L 48.77298 88.165712 
L 51.164522 90.270844 
L 59.75636 94.247204 
L 65.868079 97.872709 
L 77.028611 104.071153 
L 82.874604 106.761044 
L 87.21481 108.164465 
L 91.909319 109.10008 
L 95.895224 109.217031 
L 97.755312 109.80179 
L 103.512729 112.959488 
L 107.144331 118.222318 
L 110.687357 121.02916 
L 111.041659 122.900389 
L 104.30991 135.648132 
L 100.766884 143.600853 
L 96.338102 152.840043 
L 88.366294 168.043773 
L 81.900271 178.920288 
L 80.748788 184.183118 
L 78.800124 185.586539 
L 75.257098 189.913755 
L 67.196714 204.181871 
L 57.71912 218.917794 
L 52.847459 227.572225 
L 50.987371 231.782489 
L 44.609924 243.594618 
L 40.978323 249.208303 
L 37.435297 256.108458 
L 32.652212 264.17813 
L 32.563636 267.335828 
L 37.435297 270.259622 
L 41.332625 273.651224 
L 45.495681 275.054645 
L 47.267194 276.808922 
L 53.290338 278.797102 
L 55.859031 280.551378 
L 57.984847 283.241269 
L 62.325054 287.568485 
L 65.336626 289.322761 
L 70.73974 290.375327 
L 74.991371 293.065218 
L 80.748788 295.989012 
L 83.14033 296.573771 
L 86.063327 299.497566 
L 89.694928 300.667083 
L 97.312434 304.175637 
L 100.324006 306.39772 
L 109.890176 310.140177 
L 118.659165 315.519958 
L 126.630973 319.262415 
L 128.845364 317.157283 
L 125.479489 307.567238 
L 121.847888 306.982479 
L 119.633497 308.268949 
L 120.873556 310.023225 
L 125.390914 311.309695 
L 132.211239 314.467393 
L 136.108567 317.274235 
L 147.534825 320.782788 
L 156.303814 326.16257 
L 160.909748 330.13893 
L 170.210191 335.40176 
L 173.576066 337.740795 
L 188.279623 346.278275 
L 204.577542 355.283561 
L 206.526206 356.102224 
L 212.726501 360.429439 
L 217.952464 363.587137 
L 220.964036 365.809221 
L 232.744597 372.592424 
L 242.576494 378.440012 
L 245.49949 380.545144 
L 253.64845 384.755408 
L 259.671594 387.328347 
L 264.897557 390.719948 
L 280.841173 400.07609 
L 297.847698 409.783087 
L 303.605115 413.993351 
L 309.18538 417.501904 
L 316.625735 421.010457 
L 318.397247 421.478265 
L 327.431963 426.273287 
L 332.923654 429.898792 
L 343.37558 435.04467 
L 347.184333 435.278574 
L 352.587447 434.693815 
L 354.004657 433.641249 
L 353.916082 431.419165 
L 356.573351 427.208901 
L 360.204953 425.922432 
L 368.79679 419.607036 
L 374.642783 416.332387 
L 377.831506 413.057737 
L 381.994562 411.537364 
L 389.257765 409.549184 
L 392.623639 409.198328 
L 400.94975 409.549184 
L 402.455536 410.016991 
L 414.501824 409.783087 
L 423.270813 410.016991 
L 428.939654 408.847473 
L 434.785647 408.028811 
L 447.54054 408.262714 
L 458.52392 405.455872 
L 468.798695 402.181222 
L 472.253145 401.596463 
L 503.6975 392.474225 
L 514.769456 389.082624 
L 518.666784 387.328347 
L 521.412629 386.977492 
L 526.904319 377.855253 
L 527.790076 375.750121 
L 531.864555 369.200822 
L 539.30491 356.570031 
L 539.836364 356.102224 
L 539.836364 356.102224 
" clip-path="url(#p690c264b82)" style="fill: none; stroke: #000000; stroke-width: 3"/>
   </g>
  </g>
 </g>
 <defs>
  <clipPath id="p690c264b82">
   <rect x="7.2" y="7.2" width="558" height="448.463268"/>
  </clipPath>
 </defs>
</svg>
