<?xml version="1.0" encoding="utf-8" standalone="no"?>
<!DOCTYPE svg PUBLIC "-//W3C//DTD SVG 1.1//EN"
  "http://www.w3.org/Graphics/SVG/1.1/DTD/svg11.dtd">
<svg xmlns:xlink="http://www.w3.org/1999/xlink" width="300.108578pt" height="568.8pt" viewBox="0 0 300.108578 568.8" xmlns="http://www.w3.org/2000/svg" version="1.1">
 <metadata>
  <rdf:RDF xmlns:dc="http://purl.org/dc/elements/1.1/" xmlns:cc="http://creativecommons.org/ns#" xmlns:rdf="http://www.w3.org/1999/02/22-rdf-syntax-ns#">
   <cc:Work>
    <dc:type rdf:resource="http://purl.org/dc/dcmitype/StillImage"/>
    <dc:date>2023-09-25T14:14:03.610036</dc:date>
    <dc:format>image/svg+xml</dc:format>
    <dc:creator>
     <cc:Agent>
      <dc:title>Matplotlib v3.6.2, https://matplotlib.org/</dc:title>
     </cc:Agent>
    </dc:creator>
   </cc:Work>
  </rdf:RDF>
 </metadata>
 <defs>
  <style type="text/css">*{stroke-linejoin: round; stroke-linecap: butt}</style>
 </defs>
 <g id="figure_1">
  <g id="patch_1">
   <path d="M 0 568.8 
L 300.108578 568.8 
L 300.108578 0 
L 0 0 
z
" style="fill: #ffffff"/>
  </g>
  <g id="axes_1">
   <g id="LineCollection_1">
    <path d="M 272.783228 92.589928 
L 254.387615 123.410072 
L 249.720072 132.47482 
L 239.012178 159.306475 
L 234.070073 165.470504 
L 231.324459 174.172662 
L 223.63674 181.061871 
L 213.477969 201.004317 
L 198.102531 235.45036 
L 188.767444 252.129496 
L 177.784989 278.598561 
L 150.877973 335.16259 
L 147.034114 338.425899 
L 139.346395 356.555396 
L 126.716571 376.135252 
L 122.049027 385.2 
L 122.59815 395.715108 
L 119.577975 405.505036 
L 106.948151 416.020144 
L 100.358678 426.897842 
L 94.043766 433.78705 
L 88.003416 444.302158 
L 75.922715 476.935252 
L 66.313066 492.889209 
L 57.527102 498.328058 
L 55.330611 516.457554 
L 47.917453 533.861871 
L 40.229735 536.4 
L 29.796402 520.808633 
L 27.050788 507.030216 
L 27.050788 486 
L 20.186754 476.210072 
L 36.385875 482.011511 
L 35.836752 471.133813 
L 27.874472 459.168345 
L 28.149034 443.576978 
L 31.992893 431.974101 
L 30.345525 427.623022 
L 27.32535 404.054676 
L 26.776227 389.188489 
L 22.383245 377.585612 
L 21.284999 361.269065 
L 23.48149 355.830216 
L 40.504296 329.723741 
L 42.700787 322.109353 
L 48.466576 311.956835 
L 41.053419 302.892086 
L 39.131489 296.728058 
L 45.995524 285.85036 
L 44.622717 272.434532 
L 41.602542 263.007194 
L 46.819208 235.81295 
L 51.21219 226.023022 
L 54.232365 210.069065 
L 62.469207 191.939568 
L 70.98061 179.248921 
L 73.451662 171.271942 
L 97.887626 125.948201 
L 98.71131 121.234532 
L 92.670959 117.971223 
L 103.104292 133.2 
L 108.870081 117.608633 
L 115.734116 105.643165 
L 122.323589 88.238849 
L 126.716571 79.899281 
L 131.109553 77.723741 
L 170.646393 96.941007 
L 183.001655 77.723741 
L 197.553408 53.430216 
L 205.515689 37.838849 
L 209.634109 32.4 
L 218.420074 38.926619 
L 239.835862 47.628777 
L 266.193755 61.769784 
L 273.057789 68.658993 
L 279.921824 71.559712 
L 278.549017 87.876259 
" clip-path="url(#peebfde2d04)" style="fill: none; stroke: #000000; stroke-width: 3"/>
   </g>
  </g>
 </g>
 <defs>
  <clipPath id="peebfde2d04">
   <rect x="7.2" y="7.2" width="285.708578" height="554.4"/>
  </clipPath>
 </defs>
</svg>
