<?xml version="1.0" encoding="utf-8" standalone="no"?>
<!DOCTYPE svg PUBLIC "-//W3C//DTD SVG 1.1//EN"
  "http://www.w3.org/Graphics/SVG/1.1/DTD/svg11.dtd">
<svg xmlns:xlink="http://www.w3.org/1999/xlink" width="305.096939pt" height="568.8pt" viewBox="0 0 305.096939 568.8" xmlns="http://www.w3.org/2000/svg" version="1.1">
 <metadata>
  <rdf:RDF xmlns:dc="http://purl.org/dc/elements/1.1/" xmlns:cc="http://creativecommons.org/ns#" xmlns:rdf="http://www.w3.org/1999/02/22-rdf-syntax-ns#">
   <cc:Work>
    <dc:type rdf:resource="http://purl.org/dc/dcmitype/StillImage"/>
    <dc:date>2023-09-25T14:14:03.377251</dc:date>
    <dc:format>image/svg+xml</dc:format>
    <dc:creator>
     <cc:Agent>
      <dc:title>Matplotlib v3.6.2, https://matplotlib.org/</dc:title>
     </cc:Agent>
    </dc:creator>
   </cc:Work>
  </rdf:RDF>
 </metadata>
 <defs>
  <style type="text/css">*{stroke-linejoin: round; stroke-linecap: butt}</style>
 </defs>
 <g id="figure_1">
  <g id="patch_1">
   <path d="M 0 568.8 
L 305.096939 568.8 
L 305.096939 0 
L 0 0 
z
" style="fill: #ffffff"/>
  </g>
  <g id="axes_1">
   <g id="LineCollection_1">
    <path d="M 20.413497 536.4 
L 26.472997 524.697678 
L 27.078947 521.397023 
L 29.427003 517.29621 
L 31.093366 516.496051 
L 31.320597 514.495654 
L 33.971628 512.295217 
L 37.683072 503.693511 
L 39.879641 500.192816 
L 40.712822 499.792737 
L 42.985135 495.491883 
L 44.272779 490.190832 
L 46.848066 484.38968 
L 48.211454 482.389284 
L 51.544179 475.988013 
L 55.179879 468.386505 
L 58.285372 463.085453 
L 61.012147 456.684183 
L 66.086979 448.082477 
L 71.237554 437.780433 
L 73.206891 435.780036 
L 74.873254 435.279936 
L 75.554947 433.0795 
L 76.918335 432.77944 
L 77.600029 430.078905 
L 79.948085 425.878071 
L 80.478291 423.777654 
L 82.67486 419.77686 
L 83.053579 415.776067 
L 84.568454 409.374797 
L 86.689279 406.274181 
L 89.870516 403.373606 
L 91.461135 400.57305 
L 95.702785 391.871324 
L 100.323154 385.270014 
L 101.989516 381.869339 
L 104.943522 377.068387 
L 105.852447 374.267831 
L 109.109429 371.267236 
L 109.412404 369.366859 
L 108.12476 367.166422 
L 105.322241 365.266045 
L 103.580135 363.065608 
L 103.504391 360.265053 
L 105.09501 357.564517 
L 110.094097 352.863584 
L 116.683804 338.460726 
L 119.562066 333.659774 
L 122.66756 330.459139 
L 125.621566 328.258702 
L 127.742391 327.658583 
L 131.908297 328.158682 
L 137.058872 331.259297 
L 140.391597 331.959436 
L 142.436679 331.359317 
L 147.284279 328.058662 
L 148.268947 326.858424 
L 151.525929 319.556976 
L 153.419522 316.85644 
L 162.281541 309.755031 
L 163.87216 307.354554 
L 165.765754 303.153721 
L 166.750422 299.152927 
L 166.523191 296.152332 
L 164.402366 291.451399 
L 163.87216 288.850883 
L 164.023647 286.350387 
L 165.08406 283.949911 
L 168.644016 278.848899 
L 170.461866 277.048541 
L 175.082235 274.548045 
L 176.975829 273.147767 
L 178.339216 270.047152 
L 178.036241 265.646279 
L 178.41496 262.845723 
L 179.854091 259.345029 
L 181.671941 252.24362 
L 182.959585 249.042985 
L 185.231898 244.642112 
L 187.276979 241.741536 
L 190.988423 238.040802 
L 195.608791 231.739551 
L 198.184079 226.938599 
L 200.607879 221.637547 
L 203.561885 217.236674 
L 207.803535 213.63596 
L 213.938779 211.335503 
L 216.665554 211.235483 
L 222.800798 212.235682 
L 225.754804 211.935622 
L 228.405835 210.635364 
L 229.92071 209.135066 
L 236.207441 198.332923 
L 244.46351 182.329748 
L 250.295779 172.527803 
L 254.688916 163.926096 
L 256.279535 159.625243 
L 256.809741 156.024529 
L 256.658254 151.323596 
L 257.642923 144.922326 
L 257.112716 141.221592 
L 254.310198 134.920341 
L 254.234454 132.119786 
L 255.219123 128.219012 
L 257.415691 123.718119 
L 260.142466 119.317245 
L 263.778166 114.916372 
L 270.746591 107.314864 
L 272.034235 103.914189 
L 272.109979 94.812383 
L 273.094648 88.911213 
L 274.458035 83.610161 
L 275.97291 81.209684 
L 279.760098 77.70899 
L 283.092823 75.408533 
L 284.228979 73.808216 
L 284.683441 69.807422 
L 283.547285 68.107085 
L 281.274973 67.606986 
L 278.169479 68.507164 
L 273.397623 72.207898 
L 271.352541 73.008057 
L 268.852998 72.808017 
L 267.338123 71.707799 
L 266.504941 69.907442 
L 266.504941 67.707005 
L 268.09556 64.90645 
L 271.882748 60.605596 
L 274.836754 56.204723 
L 277.109066 50.503592 
L 277.336298 45.902679 
L 276.351629 43.602223 
L 272.640185 39.801469 
L 266.126223 36.000714 
L 261.354366 34.800476 
L 250.371523 32.4 
L 248.553673 33.400198 
L 246.584335 36.400794 
L 245.826898 39.00131 
L 246.357104 43.002104 
L 247.190285 44.002302 
L 253.098298 45.60262 
L 255.522098 47.402977 
L 257.036973 51.203731 
L 257.567179 57.504981 
L 258.854823 62.105894 
L 258.40036 65.806628 
L 257.264204 68.107085 
L 253.249785 72.407938 
L 249.235366 74.408335 
L 245.145204 75.908633 
L 242.115454 78.109069 
L 241.282273 79.509347 
L 240.070373 83.510141 
L 238.934216 85.510538 
L 236.131698 87.610955 
L 227.875629 91.111649 
L 224.770135 93.212066 
L 220.528485 99.013217 
L 218.331916 103.41409 
L 217.044273 107.614924 
L 215.150679 112.315856 
L 213.181341 115.116412 
L 210.53031 117.716928 
L 206.970354 119.917365 
L 204.243579 122.317841 
L 202.955935 125.218416 
L 202.501473 128.419051 
L 202.880191 133.720103 
L 202.122754 136.820718 
L 199.698954 139.821314 
L 196.517716 141.621671 
L 192.35181 143.221988 
L 187.882929 145.422425 
L 184.701691 148.222981 
L 181.141735 152.523834 
L 178.793679 156.824687 
L 177.506035 161.025521 
L 177.354547 165.126335 
L 177.80901 169.127128 
L 180.535785 177.428776 
L 180.83876 180.029292 
L 179.248141 185.230323 
L 175.38521 190.831435 
L 172.506947 194.03207 
L 169.855916 196.132487 
L 165.992985 198.532963 
L 164.47811 200.53336 
L 163.493441 200.33332 
L 164.781085 195.532368 
L 164.629597 188.130899 
L 163.796416 186.330542 
L 161.44836 183.630006 
L 157.661172 181.529589 
L 154.025472 179.929272 
L 151.071466 177.828855 
L 144.557504 174.32816 
L 144.557504 174.32816 
" clip-path="url(#p3f855ff6ef)" style="fill: none; stroke: #000000; stroke-width: 3"/>
   </g>
  </g>
 </g>
 <defs>
  <clipPath id="p3f855ff6ef">
   <rect x="7.2" y="7.2" width="290.696939" height="554.4"/>
  </clipPath>
 </defs>
</svg>
