<?xml version="1.0" encoding="utf-8" standalone="no"?>
<!DOCTYPE svg PUBLIC "-//W3C//DTD SVG 1.1//EN"
  "http://www.w3.org/Graphics/SVG/1.1/DTD/svg11.dtd">
<svg xmlns:xlink="http://www.w3.org/1999/xlink" width="422.154177pt" height="568.8pt" viewBox="0 0 422.154177 568.8" xmlns="http://www.w3.org/2000/svg" version="1.1">
 <metadata>
  <rdf:RDF xmlns:dc="http://purl.org/dc/elements/1.1/" xmlns:cc="http://creativecommons.org/ns#" xmlns:rdf="http://www.w3.org/1999/02/22-rdf-syntax-ns#">
   <cc:Work>
    <dc:type rdf:resource="http://purl.org/dc/dcmitype/StillImage"/>
    <dc:date>2023-09-25T14:14:02.743856</dc:date>
    <dc:format>image/svg+xml</dc:format>
    <dc:creator>
     <cc:Agent>
      <dc:title>Matplotlib v3.6.2, https://matplotlib.org/</dc:title>
     </cc:Agent>
    </dc:creator>
   </cc:Work>
  </rdf:RDF>
 </metadata>
 <defs>
  <style type="text/css">*{stroke-linejoin: round; stroke-linecap: butt}</style>
 </defs>
 <g id="figure_1">
  <g id="patch_1">
   <path d="M 0 568.8 
L 422.154177 568.8 
L 422.154177 0 
L 0 0 
z
" style="fill: #ffffff"/>
  </g>
  <g id="axes_1">
   <g id="LineCollection_1">
    <path d="M 142.306772 91.341865 
L 146.260579 93.60886 
L 147.751359 94.806518 
L 149.080098 94.378783 
L 150.14957 92.539523 
L 154.362643 94.164916 
L 155.658973 95.362573 
L 157.992368 97.030739 
L 159.450739 97.886209 
L 164.830509 100.195977 
L 167.163904 101.693049 
L 168.071335 103.318442 
L 168.687092 106.269812 
L 169.918605 108.665128 
L 170.631587 109.520597 
L 171.765876 110.418841 
L 175.265967 115.209471 
L 173.483513 119.059085 
L 172.219591 120.855572 
L 170.275096 125.0046 
L 169.432481 126.202257 
L 168.038926 128.854214 
L 166.775005 130.992888 
L 165.73794 132.147772 
L 164.506427 134.32922 
L 164.279569 135.997386 
L 163.858262 136.981176 
L 163.274913 137.580005 
L 161.784133 140.531376 
L 161.10356 141.429619 
L 158.608124 146.006382 
L 157.473835 148.658338 
L 154.881175 152.72182 
L 154.006152 153.791157 
L 152.515373 157.127489 
L 151.057001 159.864992 
L 149.793079 161.960893 
L 147.232827 166.70875 
L 146.422621 167.949181 
L 145.191107 170.344496 
L 143.27902 173.424187 
L 142.468814 175.220674 
L 141.2373 177.573216 
L 139.649295 179.968531 
L 136.894594 185.058576 
L 135.66308 188.18104 
L 133.556544 192.330069 
L 132.065764 194.939251 
L 131.255558 195.880268 
L 131.320374 196.222456 
L 130.510168 197.890622 
L 128.98698 200.243164 
L 127.917507 202.724026 
L 126.621177 205.119341 
L 125.973012 206.017585 
L 124.514641 208.712314 
L 122.732187 211.578138 
L 121.759939 213.588492 
L 117.546866 221.41604 
L 116.088494 223.212527 
L 115.181063 224.837919 
L 114.986614 225.693389 
L 113.042118 229.585776 
L 112.134687 229.927964 
L 110.96799 231.809997 
L 109.736477 234.547501 
L 108.796637 237.156683 
L 106.33361 241.391259 
L 105.717853 242.888331 
L 105.134504 243.572706 
L 104.421523 245.027005 
L 103.449275 246.352983 
L 102.639069 247.807282 
L 101.180697 249.98873 
L 100.791798 250.97252 
L 99.430652 253.367835 
L 98.134321 255.292642 
L 92.203611 267.354765 
L 91.523037 268.124688 
L 89.513726 271.760435 
L 89.124827 272.230943 
L 86.499758 277.449308 
L 86.110859 279.416889 
L 84.166364 286.474514 
L 84.004322 287.629398 
L 83.356157 290.537995 
L 82.221868 296.569057 
L 81.800561 299.477654 
L 80.569047 301.616329 
L 79.110676 304.482152 
L 77.911571 306.064771 
L 77.068956 307.690164 
L 77.328222 307.989578 
L 79.629208 309.187236 
L 79.888474 309.48665 
L 79.40235 312.395247 
L 79.078268 315.346618 
L 79.045859 316.758143 
L 78.397694 319.495646 
L 78.527327 319.837834 
L 78.170837 322.575337 
L 77.004139 324.799559 
L 74.930011 327.537062 
L 73.892947 328.691946 
L 71.98086 331.985505 
L 71.397511 333.268709 
L 70.49008 334.680234 
L 70.133589 335.578477 
L 68.415952 337.931019 
L 67.865012 339.128677 
L 66.374232 340.668522 
L 65.564026 342.507782 
L 64.462145 344.432589 
L 63.425081 345.459153 
L 62.096342 347.555054 
L 61.221319 349.180446 
L 60.313888 350.420878 
L 59.438865 351.960723 
L 59.114783 352.858966 
L 57.68882 355.382602 
L 55.258201 359.189442 
L 53.670196 360.643741 
L 52.211825 363.466791 
L 51.628476 363.894526 
L 48.517284 368.813477 
L 48.225609 368.813477 
L 46.281114 372.577544 
L 43.137513 376.897666 
L 42.748614 378.009777 
L 41.290243 379.635169 
L 40.253179 381.089468 
L 40.026321 381.773844 
L 38.632766 384.4258 
L 36.396597 387.676585 
L 35.489165 389.259204 
L 33.998386 390.884596 
L 33.54467 392.125028 
L 33.512262 392.937724 
L 32.831689 393.493779 
L 31.664991 395.247492 
L 31.470542 396.44515 
L 31.049235 397.30062 
L 28.326941 400.636952 
L 27.354693 402.176797 
L 26.738937 402.732852 
L 25.734281 404.529339 
L 25.799097 405.128168 
L 27.030611 406.026411 
L 27.451918 408.036765 
L 28.197308 407.865671 
L 29.007514 407.224069 
L 29.785313 407.523483 
L 30.692744 407.309616 
L 30.887193 406.62524 
L 33.090955 405.812543 
L 34.516918 404.957074 
L 35.489165 404.700433 
L 35.58639 405.64145 
L 36.13733 406.539693 
L 37.919784 408.336179 
L 42.554165 413.340677 
L 44.952376 415.693219 
L 47.771894 418.944004 
L 53.929462 425.317254 
L 55.096159 426.25827 
L 55.6471 426.942646 
L 57.850861 429.166868 
L 60.378705 431.989918 
L 63.003773 434.727421 
L 69.355791 441.613952 
L 71.494736 443.709853 
L 73.115149 445.549113 
L 82.967258 455.600883 
L 85.754368 458.167292 
L 87.050698 460.220419 
L 87.309964 461.974132 
L 87.180331 464.412221 
L 87.050698 470.101095 
L 86.499758 476.944853 
L 86.402533 480.281185 
L 87.277556 480.110091 
L 90.032258 480.323958 
L 91.328588 480.238411 
L 95.023129 480.580599 
L 95.249987 479.938997 
L 94.861088 478.955207 
L 95.023129 477.15872 
L 95.314803 476.474344 
L 96.027785 476.17493 
L 97.745422 475.961063 
L 104.129848 476.003836 
L 109.768885 476.346024 
L 112.102279 475.661648 
L 113.20416 475.704422 
L 113.819917 476.517118 
L 114.370857 481.179428 
L 114.986614 482.633727 
L 117.125559 485.114589 
L 117.514458 486.440567 
L 118.324664 492.557176 
L 119.102462 500.34195 
L 119.458953 502.395078 
L 120.431201 510.265399 
L 120.333976 513.21677 
L 120.755283 514.286107 
L 122.732187 513.772825 
L 126.848035 513.34509 
L 129.181429 513.259543 
L 132.551888 512.831809 
L 135.565855 512.275753 
L 138.45019 512.147433 
L 138.806681 512.703488 
L 139.454846 517.622439 
L 139.681704 518.178494 
L 140.556727 518.306815 
L 142.72808 517.622439 
L 143.765144 517.665213 
L 145.612414 517.237478 
L 146.001313 517.622439 
L 146.876336 523.952915 
L 147.524501 524.808385 
L 150.181978 526.21991 
L 151.186634 526.604871 
L 154.070969 528.144717 
L 157.862735 529.256828 
L 160.422987 529.812883 
L 165.122184 531.352729 
L 168.168559 531.908784 
L 169.205624 532.336519 
L 171.701059 533.063668 
L 174.228903 533.405856 
L 174.617802 533.234762 
L 174.877068 532.379292 
L 175.460417 532.208198 
L 178.992916 531.652143 
L 179.608673 531.395502 
L 184.210645 530.967767 
L 192.798833 529.513469 
L 196.655415 529.04296 
L 201.970369 528.273037 
L 210.817822 526.861512 
L 211.303946 527.417568 
L 211.628029 529.727336 
L 212.211377 533.020895 
L 212.503052 535.630077 
L 212.762318 536.4 
L 215.419795 535.587304 
L 223.521858 534.603514 
L 225.53117 534.090232 
L 229.679427 533.57695 
L 232.077637 533.106441 
L 241.605664 531.652143 
L 257.258851 529.385148 
L 260.532085 528.743546 
L 263.740502 528.358584 
L 267.888759 527.716982 
L 269.087864 527.374794 
L 270.124928 527.417568 
L 272.717589 526.904286 
L 279.523322 525.963269 
L 284.57901 525.065026 
L 289.083757 524.551744 
L 291.708826 524.081236 
L 295.144101 523.610727 
L 298.417334 523.011898 
L 298.935867 523.054672 
L 301.139628 522.626937 
L 307.912953 521.728694 
L 312.482517 520.958771 
L 312.741783 521.429279 
L 313.551989 521.643147 
L 315.366852 521.129865 
L 316.630773 521.68592 
L 316.468732 520.830451 
L 316.987264 520.402716 
L 319.871599 519.803887 
L 323.112424 519.247832 
L 323.501323 518.948417 
L 322.723525 518.178494 
L 325.575452 513.088449 
L 327.519947 510.693134 
L 330.177424 506.886294 
L 348.779762 482.120445 
L 350.562216 479.382942 
L 351.210381 478.698566 
L 355.229005 473.223559 
L 354.613248 472.196996 
L 354.613248 471.683714 
L 359.053179 465.780973 
L 361.418981 462.401867 
L 365.696871 456.755767 
L 365.632054 456.114164 
L 364.108866 455.985844 
L 363.266252 456.156938 
L 362.00233 456.028617 
L 360.414325 454.702639 
L 358.599463 453.419435 
L 354.58084 450.125876 
L 354.289165 449.484274 
L 355.941986 447.559467 
L 359.895793 442.383875 
L 366.345036 434.128592 
L 366.993201 432.930934 
L 371.595173 431.604956 
L 373.572077 430.835034 
L 375.224898 430.407299 
L 382.743613 428.054757 
L 384.46125 427.370381 
L 396.419896 423.520767 
L 390.03547 425.488348 
L 389.48453 425.445574 
L 389.160447 424.846745 
L 388.54469 422.793618 
L 387.637259 420.227209 
L 387.928933 419.713927 
L 388.803956 419.500059 
L 392.142007 418.345175 
L 392.174415 417.746346 
L 391.364208 417.233065 
L 384.072351 413.212357 
L 379.697237 410.645948 
L 378.368498 410.175439 
L 375.646205 410.902588 
L 375.127673 410.774268 
L 372.859095 405.128168 
L 372.697054 404.101604 
L 372.275747 403.203361 
L 369.164554 388.95979 
L 367.997857 383.955292 
L 367.544141 381.260562 
L 367.187651 380.062904 
L 363.784784 376.341611 
L 363.039394 373.048052 
L 362.55327 371.807621 
L 361.192123 369.027344 
L 360.317101 366.632029 
L 359.701344 363.552338 
L 359.344853 360.515421 
L 359.506894 359.617177 
L 360.187468 351.148027 
L 360.738408 350.934159 
L 362.780128 351.1908 
L 368.12749 351.575762 
L 368.646022 350.549198 
L 370.622926 349.22322 
L 371.497948 349.094899 
L 374.868407 349.479861 
L 375.354531 349.094899 
L 374.349875 347.469507 
L 373.410035 346.229076 
L 373.280402 345.587473 
L 373.312811 343.149385 
L 373.150769 342.892744 
L 371.984072 342.935517 
L 366.150586 342.379462 
L 356.104028 335.792345 
L 355.326229 335.877892 
L 352.603936 334.295273 
L 351.404831 333.354256 
L 349.039028 332.028278 
L 346.867675 330.659526 
L 345.960244 330.317339 
L 344.275015 330.146245 
L 341.293455 330.274565 
L 338.60357 330.231792 
L 336.723891 329.975151 
L 336.432217 329.290775 
L 336.367401 330.402886 
L 335.913685 331.258355 
L 335.168295 333.867538 
L 335.200703 335.407384 
L 334.909029 339.813053 
L 334.487722 340.112467 
L 332.705268 339.984147 
L 331.311713 339.556412 
L 326.969007 338.872036 
L 316.403916 336.391174 
L 314.977953 335.877892 
L 312.61215 335.321837 
L 309.209283 333.781991 
L 300.459054 331.343902 
L 296.926555 330.231792 
L 295.306142 329.119681 
L 291.935684 328.178664 
L 291.514376 328.820266 
L 289.76433 334.252499 
L 289.278207 334.894102 
L 288.597633 334.594687 
L 285.907748 333.824764 
L 285.162358 333.482577 
L 282.148391 332.54156 
L 279.847405 332.755427 
L 277.70846 332.54156 
L 275.601923 332.498786 
L 273.689836 333.482577 
L 272.101832 333.225936 
L 271.129584 332.627107 
L 269.217497 330.745073 
L 259.559837 322.062056 
L 258.619998 320.949945 
L 249.416054 308.887821 
L 242.286238 294.088195 
L 241.897339 292.762217 
L 240.925091 292.248935 
L 237.97594 291.564559 
L 235.18883 290.751863 
L 234.99438 290.238581 
L 235.545321 287.971586 
L 235.999036 286.731155 
L 237.133325 282.068845 
L 236.063853 281.427243 
L 234.961972 281.341696 
L 229.971101 279.972944 
L 226.859908 279.288568 
L 209.00296 274.797352 
L 208.581653 274.455164 
L 208.192754 272.273716 
L 208.614061 270.862191 
L 211.401171 259.698311 
L 211.530804 258.671747 
L 212.081744 256.875261 
L 213.540116 250.844199 
L 213.540116 249.732089 
L 216.003143 240.279148 
L 217.526331 238.054927 
L 218.822661 235.959026 
L 219.794909 234.889689 
L 222.776468 230.826207 
L 225.271904 232.323279 
L 227.734931 233.606484 
L 229.549794 234.41918 
L 235.124013 237.755512 
L 235.707362 237.96938 
L 238.948187 239.80864 
L 240.795458 240.621336 
L 242.026972 240.963524 
L 243.096444 241.990087 
L 245.300205 243.529933 
L 245.94837 242.845557 
L 243.420526 240.963524 
L 242.156605 240.450242 
L 236.67961 237.199457 
L 231.559105 233.734804 
L 229.744243 232.708241 
L 228.480321 231.809997 
L 225.207087 230.141831 
L 224.461698 229.62855 
L 221.188464 227.78929 
L 217.234657 225.351201 
L 214.57718 224.025223 
L 208.581653 220.517797 
L 207.058465 219.790648 
L 200.998121 216.240448 
L 183.20599 206.060358 
L 178.863283 203.194534 
L 175.428008 201.398048 
L 173.904821 200.884766 
L 171.409385 199.729882 
L 170.469546 199.002733 
L 169.075991 197.420114 
L 162.561931 193.656047 
L 160.293354 192.501163 
L 159.515555 192.415616 
L 155.140441 189.678113 
L 153.68207 189.03651 
L 151.899616 187.667759 
L 149.371772 186.683968 
L 148.723607 185.529084 
L 147.038378 184.117559 
L 145.547598 183.604277 
L 144.445717 183.005449 
L 142.339181 181.380056 
L 140.880809 180.610133 
L 139.649295 180.995095 
L 138.482598 180.56736 
L 137.283493 180.396266 
L 136.084387 181.936111 
L 135.630672 181.978885 
L 133.718585 181.251736 
L 132.098172 180.909548 
L 130.704617 180.439039 
L 127.852691 179.198608 
L 126.977668 178.941967 
L 126.685994 176.88884 
L 125.810971 175.819503 
L 124.514641 175.691182 
L 123.834067 174.964033 
L 124.352599 172.312077 
L 126.848035 169.831214 
L 128.306406 166.452109 
L 130.250902 162.474175 
L 131.547232 160.592141 
L 132.940787 159.308937 
L 134.5612 158.838428 
L 136.019571 159.052296 
L 137.575167 160.078859 
L 138.709456 160.592141 
L 140.167828 160.634915 
L 141.723424 159.864992 
L 143.214203 158.282373 
L 144.510534 155.54487 
L 145.51519 154.176118 
L 149.274547 151.395841 
L 150.344019 149.556582 
L 150.927368 147.802869 
L 151.186634 146.049156 
L 151.057001 145.36478 
L 150.117162 143.268879 
L 149.857896 141.771807 
L 150.279203 140.360282 
L 151.834799 138.221607 
L 152.904272 137.237817 
L 154.881175 136.082933 
L 155.788606 135.099143 
L 156.015464 134.32922 
L 156.080281 131.63449 
L 157.117345 127.870423 
L 157.959959 125.346788 
L 159.872046 122.010456 
L 162.367482 119.529593 
L 163.14528 118.460256 
L 163.987895 116.706543 
L 164.862917 114.525095 
L 166.515738 111.787592 
L 168.265784 110.204973 
L 168.816725 109.905559 
L 171.50661 109.007316 
L 174.488169 109.349504 
L 175.816908 109.349504 
L 177.048421 108.878995 
L 178.085485 107.766884 
L 178.604017 106.911415 
L 187.937595 89.80202 
L 189.266333 86.893423 
L 189.460783 85.26803 
L 189.655232 82.102792 
L 190.07654 80.006891 
L 189.849682 78.937554 
L 189.071884 77.312162 
L 188.326494 76.157277 
L 188.261677 74.660205 
L 188.812618 73.205907 
L 190.044131 70.853365 
L 191.37287 69.014105 
L 194.937778 64.993397 
L 195.910025 63.06859 
L 195.780392 59.603938 
L 196.460966 55.412136 
L 197.076723 53.915064 
L 198.016562 52.76018 
L 200.447181 51.04924 
L 201.160163 50.322091 
L 201.484245 48.95334 
L 201.095346 48.311737 
L 199.734199 47.712908 
L 197.854521 48.311737 
L 196.623007 49.381074 
L 195.845209 49.680489 
L 194.257204 49.295527 
L 193.544223 47.884002 
L 194.15998 46.344157 
L 196.623007 43.136145 
L 197.886929 40.783603 
L 198.113787 39.799813 
L 198.04897 37.91778 
L 197.400805 36.848443 
L 196.525782 35.950199 
L 194.937778 34.752542 
L 192.539567 33.554884 
L 188.229269 32.742188 
L 187.321838 32.4 
L 186.381999 32.52832 
L 185.669017 33.041602 
L 184.793994 34.282033 
L 184.761586 36.292387 
L 184.923627 36.805669 
L 185.766242 37.490045 
L 187.937595 38.003327 
L 188.780209 38.816023 
L 189.298741 39.75704 
L 189.590416 42.751184 
L 190.238581 44.54767 
L 190.270989 46.38693 
L 189.298741 48.311737 
L 188.553352 49.08166 
L 186.608856 50.279318 
L 184.405095 51.134787 
L 183.497664 51.861937 
L 182.784682 52.802953 
L 181.974476 54.770534 
L 181.391127 55.540457 
L 180.678146 55.968191 
L 177.372504 57.251396 
L 176.108582 58.106866 
L 174.034454 60.844369 
L 172.867756 63.325231 
L 171.960325 66.062734 
L 170.275096 68.415276 
L 168.136151 69.869575 
L 167.520394 70.42563 
L 166.548147 72.435984 
L 166.321289 74.403564 
L 166.418514 76.07173 
L 166.062023 77.183841 
L 164.733284 78.680913 
L 160.455395 80.520173 
L 158.348858 82.359433 
L 157.473835 83.42877 
L 156.501588 85.011389 
L 155.72379 86.636782 
L 155.52934 87.791666 
L 155.496932 90.486396 
L 156.112689 92.667844 
L 156.793262 94.421556 
L 156.955303 95.44812 
L 156.696037 96.731325 
L 155.237666 99.297734 
L 154.006152 100.9659 
L 152.612597 102.035237 
L 150.668102 103.232895 
L 149.695854 104.302232 
L 150.181978 101.864143 
L 150.052345 99.639922 
L 149.468997 98.057303 
L 148.756015 97.116286 
L 147.9134 96.560231 
L 146.973561 97.244607 
L 144.996657 101.308088 
L 144.57535 101.607502 
L 141.950282 100.324298 
L 137.380718 97.715115 
L 135.501039 96.902419 
L 133.297278 95.704761 
L 131.968539 94.763744 
L 130.121269 93.993822 
L 128.662897 93.095578 
L 128.662897 93.095578 
" clip-path="url(#p51ad6bfcaa)" style="fill: none; stroke: #000000; stroke-width: 3"/>
   </g>
  </g>
 </g>
 <defs>
  <clipPath id="p51ad6bfcaa">
   <rect x="7.2" y="7.2" width="407.754177" height="554.4"/>
  </clipPath>
 </defs>
</svg>
