<?xml version="1.0" encoding="utf-8" standalone="no"?>
<!DOCTYPE svg PUBLIC "-//W3C//DTD SVG 1.1//EN"
  "http://www.w3.org/Graphics/SVG/1.1/DTD/svg11.dtd">
<svg xmlns:xlink="http://www.w3.org/1999/xlink" width="492.082668pt" height="568.8pt" viewBox="0 0 492.082668 568.8" xmlns="http://www.w3.org/2000/svg" version="1.1">
 <metadata>
  <rdf:RDF xmlns:dc="http://purl.org/dc/elements/1.1/" xmlns:cc="http://creativecommons.org/ns#" xmlns:rdf="http://www.w3.org/1999/02/22-rdf-syntax-ns#">
   <cc:Work>
    <dc:type rdf:resource="http://purl.org/dc/dcmitype/StillImage"/>
    <dc:date>2023-09-25T14:14:02.643828</dc:date>
    <dc:format>image/svg+xml</dc:format>
    <dc:creator>
     <cc:Agent>
      <dc:title>Matplotlib v3.6.2, https://matplotlib.org/</dc:title>
     </cc:Agent>
    </dc:creator>
   </cc:Work>
  </rdf:RDF>
 </metadata>
 <defs>
  <style type="text/css">*{stroke-linejoin: round; stroke-linecap: butt}</style>
 </defs>
 <g id="figure_1">
  <g id="patch_1">
   <path d="M 0 568.8 
L 492.082668 568.8 
L 492.082668 0 
L 0 0 
z
" style="fill: #ffffff"/>
  </g>
  <g id="axes_1">
   <g id="LineCollection_1">
    <path d="M 33.939961 499.834555 
L 36.257425 501.248168 
L 37.18441 502.237696 
L 38.075742 502.520419 
L 39.2523 502.096335 
L 40.928004 500.117277 
L 45.028132 501.389529 
L 46.703836 502.190576 
L 50.162204 504.405236 
L 57.898967 507.609424 
L 59.467711 508.646073 
L 60.501656 509.871204 
L 60.786882 510.672251 
L 61.678214 514.394764 
L 62.49824 515.855497 
L 65.528769 518.871204 
L 66.883594 521.085864 
L 68.737564 522.87644 
L 69.272363 523.583246 
L 73.087265 525.797906 
L 74.156863 526.26911 
L 75.012542 527.211518 
L 77.044779 527.965445 
L 77.543925 528.766492 
L 79.433549 528.907853 
L 80.5388 530.038743 
L 84.139782 532.159162 
L 84.995461 532.441885 
L 85.31634 532.960209 
L 89.808654 534.797906 
L 91.769584 535.26911 
L 92.197424 534.939267 
L 93.409635 532.677487 
L 94.015741 531.028272 
L 93.552248 530.368586 
L 94.33662 529.049215 
L 94.942726 527.164398 
L 96.796697 525.468063 
L 97.901949 523.159162 
L 98.615014 522.122513 
L 99.22112 520.096335 
L 100.005492 518.918325 
L 101.003784 516.892147 
L 101.360317 515.761257 
L 102.643835 512.651309 
L 103.036021 511.379058 
L 105.139565 509.023037 
L 106.708309 506.195812 
L 107.171802 505.064921 
L 108.277054 503.321466 
L 109.132732 501.57801 
L 110.772783 499.646073 
L 121.718341 481.787435 
L 126.139348 473.918325 
L 128.813344 469.489005 
L 129.775982 467.368586 
L 131.344727 464.682723 
L 136.229226 455.729843 
L 136.977945 453.703665 
L 137.833624 452.478534 
L 139.651941 449.180105 
L 140.222394 447.766492 
L 141.648525 445.174869 
L 143.359883 442.583246 
L 144.679054 439.897382 
L 145.534733 438.53089 
L 146.782598 436.127749 
L 149.84878 430.66178 
L 151.132298 428.776963 
L 153.200188 424.913089 
L 154.162827 422.839791 
L 156.373331 418.693194 
L 157.300316 417.373822 
L 157.942075 415.960209 
L 159.510819 413.321466 
L 160.330845 411.436649 
L 161.47175 410.117277 
L 161.863936 408.703665 
L 162.933534 406.536126 
L 164.395319 403.991623 
L 164.395319 403.708901 
L 161.25783 401.635602 
L 159.903005 400.033508 
L 158.904714 400.551832 
L 156.872476 399.13822 
L 155.874185 398.996859 
L 154.020214 397.771728 
L 153.948907 397.441885 
L 156.90813 392.164398 
L 158.013382 390.468063 
L 160.437805 385.756021 
L 159.938659 385.096335 
L 158.7621 384.57801 
L 154.62632 382.31623 
L 154.483707 381.515183 
L 155.446345 380.00733 
L 157.692502 376.002094 
L 159.439513 373.26911 
L 160.437805 372.091099 
L 164.288359 364.975916 
L 164.930118 364.26911 
L 165.750144 363.892147 
L 166.998008 363.845026 
L 169.493738 364.26911 
L 171.632935 364.174869 
L 172.595574 364.363351 
L 175.091303 365.682723 
L 179.369697 368.085864 
L 181.401934 369.452356 
L 182.293266 370.536126 
L 184.325503 372.609424 
L 184.432463 371.996859 
L 183.469825 370.771728 
L 181.722814 369.028272 
L 181.473241 368.368586 
L 182.079347 366.907853 
L 183.434171 364.504712 
L 184.39681 362.525654 
L 185.002916 360.546597 
L 185.644675 357.766492 
L 186.179474 356.4 
L 187.997791 350.085864 
L 189.709149 344.808377 
L 190.850054 342.310995 
L 192.775331 336.562304 
L 194.451035 332.886911 
L 196.305006 330.719372 
L 197.089378 329.4 
L 198.979002 325.489005 
L 199.941641 322.237696 
L 200.654706 320.305759 
L 201.011239 318.420942 
L 201.581692 316.489005 
L 202.223451 314.934031 
L 204.077421 311.070157 
L 205.432246 307.913089 
L 207.357523 303.813613 
L 208.141896 301.646073 
L 209.639333 298.300524 
L 210.495012 295.897382 
L 217.661322 279.075393 
L 219.301373 276.059686 
L 220.834464 273.656545 
L 227.7512 264.091099 
L 234.418364 255.18534 
L 237.448893 250.708901 
L 238.981984 248.023037 
L 240.158542 245.572775 
L 241.192488 242.981152 
L 242.08382 240.295288 
L 243.260378 236.00733 
L 243.723871 234.87644 
L 243.902137 233.462827 
L 246.932666 221.588482 
L 247.717038 219.468063 
L 249.107516 217.206283 
L 250.391034 215.698429 
L 252.209352 213.860733 
L 256.131213 210.279581 
L 257.878223 209.384293 
L 258.16345 208.394764 
L 259.375661 207.263874 
L 262.51315 203.824084 
L 263.582749 202.080628 
L 266.078478 198.546597 
L 266.96981 196.520419 
L 267.754183 195.295288 
L 268.502901 194.682723 
L 270.463832 191.384293 
L 271.212551 190.394764 
L 275.170065 183.703665 
L 275.704864 181.913089 
L 280.98155 173.290052 
L 284.297305 167.44712 
L 286.293889 163.347644 
L 287.149568 161.180105 
L 288.112206 159.48377 
L 289.502684 156.420942 
L 294.422837 145.064921 
L 295.456782 143.274346 
L 296.562034 140.729843 
L 298.130779 136.489005 
L 298.416005 136.159162 
L 304.904902 137.714136 
L 307.899778 137.855497 
L 308.969376 138.043979 
L 312.534704 139.033508 
L 316.563525 138.892147 
L 317.205284 139.080628 
L 320.20016 140.965445 
L 322.410663 142.61466 
L 325.441192 144.640838 
L 326.796017 145.724607 
L 332.393582 149.635602 
L 333.926673 150.48377 
L 334.782352 151.237696 
L 337.527655 152.981152 
L 338.34768 153.687958 
L 340.807757 155.384293 
L 348.294946 158.258639 
L 351.468088 159.766492 
L 354.676883 161.79267 
L 357.279573 163.583246 
L 360.559675 165.515183 
L 365.978974 168.860733 
L 368.260784 169.944503 
L 368.902543 169.897382 
L 373.394856 168.954974 
L 377.530637 167.824084 
L 379.028075 167.824084 
L 380.454206 167.164398 
L 382.664709 166.975916 
L 387.335289 165.043979 
L 389.117953 164.667016 
L 389.795366 164.148691 
L 392.469362 163.394764 
L 394.430292 163.253403 
L 395.999037 163.347644 
L 397.175595 163.677487 
L 402.701854 163.253403 
L 403.201 162.970681 
L 403.165346 160.096335 
L 403.557532 158.211518 
L 403.272306 154.441885 
L 403.842759 151.850262 
L 403.949719 149.871204 
L 404.769744 147.13822 
L 405.910649 142.284817 
L 406.980247 138.845026 
L 408.727258 135.358115 
L 411.971707 131.44712 
L 414.28917 129.373822 
L 416.89186 126.687958 
L 417.854498 125.934031 
L 419.708469 123.954974 
L 422.596385 121.31623 
L 424.343396 119.431414 
L 427.944377 115.944503 
L 430.012267 113.4 
L 432.008851 111.656545 
L 435.574179 107.132984 
L 439.781267 102.609424 
L 441.920464 99.829319 
L 444.344887 95.44712 
L 447.018883 91.300524 
L 448.445014 89.74555 
L 452.473835 85.598953 
L 452.438182 84.609424 
L 451.33293 83.949738 
L 428.907016 74.525654 
L 428.586136 74.195812 
L 429.834001 71.368586 
L 430.654027 71.132984 
L 434.611541 72.735079 
L 446.66235 77.918325 
L 450.512904 79.379058 
L 455.611324 81.593717 
L 456.752229 81.075393 
L 457.643561 80.038743 
L 457.85748 78.48377 
L 456.823535 77.965445 
L 454.149539 77.070157 
L 450.370291 75.420942 
L 433.613249 68.35288 
L 431.545359 67.975916 
L 431.474052 67.410471 
L 432.75757 64.536126 
L 433.541942 64.253403 
L 456.11047 73.677487 
L 459.925371 75.420942 
L 460.709743 76.127749 
L 461.601075 75.986387 
L 463.169819 74.290052 
L 462.777633 72.829319 
L 460.174944 71.981152 
L 451.939036 68.44712 
L 449.728532 67.693194 
L 434.290661 61.143455 
L 434.112395 60.766492 
L 435.217647 58.646073 
L 436.108979 58.504712 
L 443.703128 61.473298 
L 456.395696 66.892147 
L 457.287028 66.797906 
L 458.035747 66.279581 
L 458.0714 65.525654 
L 456.823535 63.593717 
L 455.68263 62.886911 
L 454.149539 62.509948 
L 449.657226 60.53089 
L 435.681139 54.92356 
L 432.828877 53.462827 
L 429.762694 52.331937 
L 426.553899 50.776963 
L 424.699928 50.117277 
L 419.351936 47.714136 
L 415.465729 46.159162 
L 414.324824 46.017801 
L 411.579521 45.028272 
L 410.866455 44.981152 
L 405.126277 42.672251 
L 405.090624 42.059686 
L 406.374142 38.619895 
L 406.766328 37.913089 
L 408.513339 33.295288 
L 409.868163 32.4 
L 410.581229 32.4 
L 411.829094 32.918325 
L 411.9004 33.295288 
L 410.830802 36.735079 
L 408.406379 43.284817 
L 406.374142 49.363351 
L 404.983664 52.897382 
L 403.343613 56.478534 
L 403.129693 57.750785 
L 401.667909 61.520419 
L 401.418336 62.74555 
L 404.234945 63.735079 
L 404.484518 63.499476 
L 405.696729 59.871204 
L 411.971707 42.954974 
L 413.861331 37.441885 
L 415.073542 34.567539 
L 415.822261 34.473298 
L 419.387589 36.028272 
L 419.886735 36.546597 
L 419.031057 38.667016 
L 417.569272 41.494241 
L 416.856207 43.331937 
L 416.285754 43.944503 
L 413.932637 47.478534 
L 412.969999 48.703665 
L 412.32824 50.164398 
L 411.793441 52.850262 
L 410.224696 57.279581 
L 408.798565 60.295288 
L 408.014193 61.61466 
L 406.231529 63.92356 
L 405.411503 64.300524 
L 404.092332 64.017801 
L 401.632255 63.169634 
L 401.168763 61.473298 
L 400.027858 60.436649 
L 398.815646 60.059686 
L 398.566073 59.494241 
L 399.207832 58.457592 
L 402.737507 49.410471 
L 405.411503 41.918325 
L 404.627131 42.719372 
L 402.77316 47.05445 
L 401.739215 51.201047 
L 400.776576 53.462827 
L 399.065219 58.033508 
L 398.066927 59.965445 
L 397.175595 61.190576 
L 395.571197 65.195812 
L 393.325041 71.981152 
L 393.360694 76.080628 
L 393.004161 84.750785 
L 393.004161 88.096335 
L 392.398055 94.080628 
L 392.647628 101.05445 
L 392.647628 106.61466 
L 393.039814 119.572775 
L 393.004161 122.070157 
L 393.146774 124.002094 
L 393.182427 127.913089 
L 392.968508 133.190576 
L 392.790241 134.839791 
L 392.647628 138.703665 
L 392.326749 143.132984 
L 391.720643 149.729843 
L 391.328457 152.321466 
L 390.758004 152.934031 
L 391.15019 153.310995 
L 391.185844 155.05445 
L 391.47107 156.18534 
L 392.326749 156.232461 
L 395.392931 155.525654 
L 396.03469 156.091099 
L 396.03469 157.504712 
L 396.569489 158.305759 
L 398.494766 157.881675 
L 399.136526 156.609424 
L 400.099164 156.373822 
L 400.59831 156.609424 
L 400.38439 157.22199 
L 398.566073 160.002094 
L 398.10258 160.473298 
L 396.319916 163.394764 
L 394.858132 166.127749 
L 394.572905 167.35288 
L 395.000745 169.379058 
L 396.24861 173.384293 
L 396.747756 175.551832 
L 397.746048 178.66178 
L 398.566073 182.290052 
L 399.706978 185.588482 
L 401.774868 187.379058 
L 402.095748 188.557068 
L 401.774868 193.26911 
L 402.238361 195.672251 
L 403.201 198.593717 
L 403.735799 201.13822 
L 404.377558 202.881675 
L 405.48281 207.122513 
L 406.409795 210.091099 
L 407.622007 214.473298 
L 408.406379 217.865969 
L 407.835926 217.630366 
L 404.520171 218.431414 
L 403.414919 218.431414 
L 400.81223 219.18534 
L 398.494766 220.787435 
L 390.294512 227.855497 
L 387.335289 232.66178 
L 384.51868 237.515183 
L 380.989005 236.05445 
L 378.600235 234.640838 
L 369.972141 230.918325 
L 365.658094 229.504712 
L 365.444174 229.26911 
L 360.844901 226.112042 
L 359.632689 225.452356 
L 354.890803 221.635602 
L 353.322059 220.646073 
L 351.610701 219.13822 
L 341.342556 212.4 
L 337.848534 210.091099 
L 336.636323 209.478534 
L 334.2119 207.735079 
L 320.770612 198.970681 
L 319.522748 198.358115 
L 316.670485 196.379058 
L 311.322493 192.986387 
L 309.111989 191.808377 
L 308.185004 191.761257 
L 307.864124 192.279581 
L 306.972792 194.824084 
L 305.546661 198.216754 
L 305.154475 199.630366 
L 303.835304 202.975916 
L 303.300504 204.860733 
L 301.83872 208.818848 
L 301.018694 210.703665 
L 300.483895 212.4 
L 299.23603 215.698429 
L 297.453366 219.939267 
L 296.668994 222.106806 
L 291.855801 234.452356 
L 288.860925 240.436649 
L 287.399141 243.829319 
L 281.373736 253.913089 
L 279.840645 256.26911 
L 278.557127 258.57801 
L 277.344915 260.368586 
L 273.102175 268.897382 
L 272.496069 269.74555 
L 269.929033 274.693194 
L 268.895088 277.520419 
L 267.468956 281.808377 
L 266.684584 283.740314 
L 266.185438 285.48377 
L 264.866267 289.017801 
L 264.260161 291.750785 
L 263.226216 294.907853 
L 262.548803 297.546597 
L 261.336592 300.892147 
L 260.873099 302.729843 
L 260.053074 304.944503 
L 259.126088 308.384293 
L 256.666012 316.253403 
L 255.097268 319.598953 
L 254.170282 322.096335 
L 251.888472 324.263874 
L 246.148294 325.960209 
L 245.506535 326.337173 
L 244.686509 327.468063 
L 244.116057 328.881675 
L 241.263794 334.865969 
L 239.730703 337.646073 
L 237.734119 340.756021 
L 234.596631 344.714136 
L 232.992233 346.410471 
L 230.532156 349.708901 
L 228.464266 351.970681 
L 226.966828 352.913089 
L 224.720672 354.656545 
L 222.688434 355.881675 
L 221.048384 357.153927 
L 208.462775 365.729843 
L 193.52405 375.672251 
L 192.169225 375.57801 
L 191.527466 375.907853 
L 190.315255 377.509948 
L 188.889123 379.818848 
L 185.181182 383.070157 
L 183.220252 384.954974 
L 181.865427 386.557068 
L 177.907913 390.515183 
L 175.233917 392.258639 
L 171.419015 394.237696 
L 168.780673 395.886911 
L 164.217053 398.431414 
L 162.790921 398.337173 
L 162.042202 397.206283 
L 160.901297 398.00733 
L 159.261246 400.31623 
L 158.049035 402.719372 
L 152.45147 412.803141 
L 150.0627 417.468063 
L 146.497372 424.112042 
L 142.290284 431.038743 
L 139.295409 436.740314 
L 135.195281 443.949738 
L 133.98307 446.35288 
L 132.271712 449.180105 
L 129.490756 454.457592 
L 125.461935 461.525654 
L 120.933969 469.724607 
L 119.686104 472.598953 
L 117.36864 476.415707 
L 115.015524 481.174869 
L 111.378889 487.771728 
L 110.84409 488.478534 
L 109.239692 491.305759 
L 108.883159 492.248168 
L 107.029189 495.075393 
L 102.786448 502.520419 
L 101.82381 503.981152 
L 100.861171 506.242932 
L 100.290718 507.043979 
L 99.969839 508.22199 
L 98.543708 510.342408 
L 97.794989 511.991623 
L 95.548832 516.18534 
L 94.087047 518.635602 
L 93.302675 520.426178 
L 92.197424 522.452356 
L 91.947851 523.300524 
L 90.771292 525.326702 
L 89.380814 526.881675 
L 87.883376 529.049215 
L 85.066767 535.881675 
L 84.460661 536.4 
L 83.070183 535.598953 
L 81.715359 534.562304 
L 79.183976 533.384293 
L 78.36395 532.536126 
L 75.689954 531.405236 
L 72.730732 529.803141 
L 73.301184 529.190576 
L 75.582994 525.420942 
L 76.08214 524.337173 
L 75.083848 523.064921 
L 73.871637 522.546597 
L 73.087265 521.79267 
L 72.195933 521.509948 
L 70.805455 520.331937 
L 67.881885 518.776963 
L 64.958316 517.881675 
L 62.034747 515.619895 
L 61.250375 513.593717 
L 60.679923 510.813613 
L 60.32339 509.871204 
L 58.897258 508.31623 
L 57.221554 507.609424 
L 50.162204 504.87644 
L 47.737781 503.368586 
L 45.741197 501.813613 
L 41.213231 500.070157 
L 40.357552 499.033508 
L 37.897476 497.855497 
L 36.150465 497.195812 
L 35.259133 496.536126 
L 33.440815 495.687958 
L 32.40687 494.934031 
L 29.804181 494.227225 
L 28.912849 496.159162 
L 29.055462 497.384293 
L 30.481593 498.091099 
L 30.481593 498.091099 
" clip-path="url(#p954bcdbdb1)" style="fill: none; stroke: #000000; stroke-width: 3"/>
   </g>
  </g>
 </g>
 <defs>
  <clipPath id="p954bcdbdb1">
   <rect x="7.2" y="7.2" width="477.682668" height="554.4"/>
  </clipPath>
 </defs>
</svg>
