<?xml version="1.0" encoding="utf-8" standalone="no"?>
<!DOCTYPE svg PUBLIC "-//W3C//DTD SVG 1.1//EN"
  "http://www.w3.org/Graphics/SVG/1.1/DTD/svg11.dtd">
<svg xmlns:xlink="http://www.w3.org/1999/xlink" width="324.721709pt" height="568.8pt" viewBox="0 0 324.721709 568.8" xmlns="http://www.w3.org/2000/svg" version="1.1">
 <metadata>
  <rdf:RDF xmlns:dc="http://purl.org/dc/elements/1.1/" xmlns:cc="http://creativecommons.org/ns#" xmlns:rdf="http://www.w3.org/1999/02/22-rdf-syntax-ns#">
   <cc:Work>
    <dc:type rdf:resource="http://purl.org/dc/dcmitype/StillImage"/>
    <dc:date>2023-09-25T14:14:01.823424</dc:date>
    <dc:format>image/svg+xml</dc:format>
    <dc:creator>
     <cc:Agent>
      <dc:title>Matplotlib v3.6.2, https://matplotlib.org/</dc:title>
     </cc:Agent>
    </dc:creator>
   </cc:Work>
  </rdf:RDF>
 </metadata>
 <defs>
  <style type="text/css">*{stroke-linejoin: round; stroke-linecap: butt}</style>
 </defs>
 <g id="figure_1">
  <g id="patch_1">
   <path d="M 0 568.8 
L 324.721709 568.8 
L 324.721709 0 
L 0 0 
z
" style="fill: #ffffff"/>
  </g>
  <g id="axes_1">
   <g id="LineCollection_1">
    <path d="M 113.252342 344.868353 
L 109.627375 343.056567 
L 105.365589 340.662421 
L 101.446705 337.944743 
L 99.095375 336.521197 
L 96.695059 335.744717 
L 95.274463 333.868224 
L 95.666352 332.056439 
L 95.666352 329.727 
L 97.723766 326.103428 
L 98.556528 325.391655 
L 99.536249 323.709282 
L 99.683207 322.479856 
L 99.438277 319.632764 
L 99.879152 318.726871 
L 101.593663 317.432738 
L 102.328454 314.585646 
L 103.455133 311.673848 
L 105.022687 308.503222 
L 106.541254 307.59733 
L 108.500696 305.332597 
L 108.304752 303.520811 
L 109.431431 300.156066 
L 111.635803 299.573707 
L 114.232063 295.950135 
L 116.191505 292.261856 
L 117.759059 289.738298 
L 119.375598 288.444165 
L 120.355319 286.244139 
L 121.628957 284.626473 
L 123.931301 280.097009 
L 124.911022 277.120503 
L 125.400882 274.985184 
L 127.40931 273.108692 
L 128.340045 271.879266 
L 129.564696 268.449814 
L 130.789347 267.220388 
L 131.475152 265.602722 
L 135.883896 257.449685 
L 136.912603 255.184953 
L 137.647394 252.855514 
L 138.480157 248.067223 
L 139.214947 247.484863 
L 139.067989 242.955399 
L 139.31292 238.296521 
L 141.370333 234.090589 
L 142.301068 231.114084 
L 144.603413 227.102272 
L 145.093273 225.61402 
L 147.150687 222.443395 
L 151.755375 214.419771 
L 152.980027 211.831506 
L 153.959748 210.537373 
L 156.262092 206.007909 
L 157.437757 203.160817 
L 161.846501 195.460727 
L 163.316083 193.325408 
L 166.500176 186.660624 
L 168.116715 183.684119 
L 171.496752 178.637001 
L 172.623431 177.472281 
L 175.219692 173.07223 
L 178.011897 168.089819 
L 179.33452 165.501553 
L 181.783822 161.619155 
L 183.498334 158.513237 
L 184.673999 155.924971 
L 186.339525 154.113185 
L 186.584455 153.142586 
L 187.711134 152.236693 
L 188.788827 149.324894 
L 190.797255 145.507202 
L 191.630018 144.471896 
L 192.462781 142.013044 
L 195.157013 137.09534 
L 196.087748 135.15414 
L 199.124883 130.495263 
L 201.917088 124.995198 
L 204.023488 121.824573 
L 204.61132 119.883374 
L 205.835971 117.489228 
L 209.216009 111.406804 
L 211.126464 107.330286 
L 212.987934 104.677314 
L 217.151748 97.041931 
L 218.964232 93.418359 
L 221.266576 90.377147 
L 222.246297 88.241828 
L 226.850986 79.571139 
L 228.810427 76.2711 
L 229.741162 75.041674 
L 232.239451 70.059263 
L 233.415116 68.118064 
L 234.884697 64.947439 
L 235.521516 64.041546 
L 237.431972 60.094441 
L 240.17519 55.370856 
L 241.497814 53.817897 
L 242.477535 51.294338 
L 242.232604 50.582565 
L 238.215748 48.511953 
L 236.844139 47.541353 
L 232.876269 45.535447 
L 230.035079 43.464835 
L 228.222595 42.623649 
L 228.075637 41.653049 
L 229.741162 35.311799 
L 230.720883 32.78824 
L 231.455674 32.4 
L 234.786725 33.3706 
L 235.619488 35.958865 
L 238.117776 37.123585 
L 242.134632 39.388317 
L 247.474111 43.206008 
L 250.756176 45.147208 
L 256.389572 48.18842 
L 258.985832 49.417846 
L 260.357442 50.323739 
L 265.794893 53.041417 
L 269.027972 55.047323 
L 271.477274 56.082629 
L 276.718781 59.188548 
L 289.945014 66.694518 
L 295.82334 69.865143 
L 299.79121 72.194582 
L 299.644251 73.424008 
L 293.129107 76.788753 
L 294.745647 76.65934 
L 295.578409 75.947567 
L 295.333479 74.976968 
L 291.022707 72.388702 
L 288.916307 71.418102 
L 288.279488 70.641623 
L 285.340326 69.865143 
L 281.764344 67.859237 
L 280.147805 67.923944 
L 279.364028 70.51221 
L 280.294763 72.259289 
L 281.421442 72.194582 
L 284.605535 74.135781 
L 287.593684 76.2711 
L 290.728791 77.953473 
L 290.728791 78.859366 
L 288.230502 80.606445 
L 286.418019 80.865272 
L 282.352177 78.600539 
L 281.911302 77.82406 
L 280.686651 77.694646 
L 277.453572 75.88286 
L 276.522837 76.012274 
L 275.298186 78.147593 
L 275.347172 79.635845 
L 278.139377 81.253511 
L 280.637665 82.288818 
L 282.205219 83.58295 
L 284.360605 84.488843 
L 286.613963 86.171216 
L 289.357182 87.530055 
L 292.296344 89.471254 
L 292.34533 90.506561 
L 290.875749 93.159533 
L 289.700084 93.159533 
L 284.066688 89.988907 
L 280.833609 87.659468 
L 279.168084 86.688869 
L 275.592102 85.588856 
L 272.408009 83.712364 
L 271.085386 85.33003 
L 270.938428 87.141815 
L 271.722205 87.853588 
L 275.102242 89.535961 
L 277.061684 91.08892 
L 282.205219 94.194839 
L 283.135954 94.388959 
L 287.936586 97.365464 
L 287.8876 98.465477 
L 286.662949 100.794916 
L 285.634242 101.312569 
L 281.960288 99.824316 
L 279.804902 98.271357 
L 276.767767 96.912518 
L 272.946856 94.841905 
L 269.762763 92.383053 
L 268.146223 91.930107 
L 267.31346 92.318346 
L 266.57867 93.677186 
L 265.990837 95.812505 
L 264.031395 99.241957 
L 264.129367 100.018436 
L 267.999265 101.894929 
L 271.771191 103.900835 
L 272.456995 104.547901 
L 275.690074 106.618513 
L 277.404586 107.394993 
L 281.372456 109.853845 
L 281.029554 111.600924 
L 280.392735 112.700937 
L 279.119098 113.671537 
L 277.3556 113.089177 
L 270.742484 109.271485 
L 266.8236 107.524406 
L 265.598949 106.359687 
L 261.827023 104.159661 
L 257.467265 102.218462 
L 256.683488 100.730209 
L 255.507823 100.665503 
L 253.401423 99.500783 
L 252.470688 99.37137 
L 251.539953 100.083143 
L 250.315302 103.447888 
L 248.747749 108.818539 
L 246.200474 115.289203 
L 245.7596 117.683348 
L 249.335581 119.236308 
L 250.560232 118.912774 
L 253.156493 115.418616 
L 253.989256 115.483323 
L 262.561814 120.72456 
L 269.860735 124.736372 
L 271.379302 125.901091 
L 272.701926 126.095211 
L 275.151228 127.64817 
L 276.571823 128.23053 
L 280.294763 130.430556 
L 281.127526 131.271742 
L 283.42987 132.436462 
L 285.732214 134.054128 
L 287.593684 134.830607 
L 294.598689 138.907125 
L 300.868903 142.336577 
L 302.38747 142.336577 
L 303.416177 140.201258 
L 303.416177 139.036539 
L 302.6324 138.130646 
L 297.978726 135.218847 
L 292.982149 132.565875 
L 287.740642 130.042316 
L 286.369033 128.748183 
L 285.585256 128.489357 
L 283.086967 126.483451 
L 278.874167 124.801078 
L 277.3556 123.636359 
L 275.886019 123.053999 
L 272.603953 120.91868 
L 265.109088 117.100989 
L 263.296605 115.936269 
L 261.043246 114.96567 
L 259.034818 113.41271 
L 256.193628 112.312697 
L 255.801739 111.665631 
L 256.340586 110.306792 
L 257.908139 108.236179 
L 259.132791 108.365593 
L 260.014539 109.012659 
L 264.619228 111.342098 
L 265.745907 112.312697 
L 269.027972 113.865657 
L 270.938428 115.159789 
L 274.857312 117.295108 
L 278.041405 118.718655 
L 289.50414 125.512851 
L 290.777777 126.030505 
L 291.85547 124.542252 
L 292.933163 121.88928 
L 292.198372 120.789267 
L 287.789628 118.201001 
L 281.32347 115.030376 
L 279.804902 114.059777 
L 278.776195 113.865657 
L 278.433293 114.96567 
L 280.147805 114.642136 
L 286.320047 117.812762 
L 287.740642 118.783361 
L 289.651098 119.624547 
L 294.059842 122.212813 
L 294.549702 122.212813 
L 296.166242 117.942175 
L 291.904456 115.289203 
L 289.896028 113.80095 
L 288.279488 113.089177 
L 282.695079 109.789139 
L 284.654521 106.424393 
L 286.02613 106.424393 
L 291.267637 109.206779 
L 294.45173 111.147978 
L 297.635823 112.636231 
L 297.880754 113.41271 
L 296.509144 116.971575 
L 295.382465 118.524535 
L 293.618968 121.953986 
L 292.051414 124.412839 
L 291.316623 126.159918 
L 288.818335 130.365849 
L 287.936586 132.371755 
L 286.613963 134.248248 
L 284.703507 137.807113 
L 281.5684 142.789524 
L 274.661367 155.601438 
L 270.987414 162.654461 
L 270.448567 162.719168 
L 269.811749 164.336834 
L 267.117516 169.383952 
L 261.190204 179.99584 
L 259.622651 183.037052 
L 255.850725 189.637129 
L 253.107507 194.81366 
L 251.735897 197.013686 
L 248.747749 202.643163 
L 235.325572 226.843446 
L 233.219172 231.049377 
L 232.533367 232.019977 
L 231.357702 234.672949 
L 230.524939 235.837669 
L 227.53679 241.143613 
L 225.136474 245.737784 
L 223.862837 247.678983 
L 220.433813 254.020234 
L 219.307134 255.6379 
L 214.212585 265.279189 
L 215.584195 266.832148 
L 226.214167 271.814559 
L 228.222595 273.173398 
L 228.467525 274.273411 
L 228.271581 276.02049 
L 227.340846 278.349929 
L 225.087488 283.138221 
L 223.715879 285.532366 
L 222.442241 288.638285 
L 221.168604 291.22655 
L 222.001367 292.261856 
L 228.565497 295.432482 
L 236.158334 299.509 
L 237.431972 299.89724 
L 240.860995 301.838439 
L 243.947116 303.197278 
L 245.122781 304.167878 
L 249.874428 306.885557 
L 252.32373 307.920863 
L 254.1852 309.214996 
L 261.435135 313.226807 
L 263.002688 314.262113 
L 262.708772 315.426833 
L 259.426707 321.63867 
L 258.349014 323.191629 
L 256.683488 326.685788 
L 252.225758 334.450584 
L 245.122781 347.650738 
L 243.065367 351.08019 
L 241.693758 353.991989 
L 239.146483 358.715573 
L 235.619488 365.962717 
L 234.786725 368.098036 
L 226.948958 382.657029 
L 225.626334 385.374708 
L 224.793572 386.539427 
L 220.482799 394.045397 
L 219.650037 396.31013 
L 218.376399 398.898395 
L 215.486223 403.23374 
L 214.751432 404.721993 
L 211.17545 410.54559 
L 207.795413 416.369187 
L 206.276846 419.475106 
L 205.689013 419.928052 
L 202.74985 426.269303 
L 199.271841 432.86938 
L 197.508343 435.910592 
L 196.087748 439.663577 
L 194.128306 442.704789 
L 191.630018 446.069534 
L 188.837813 451.634305 
L 188.494911 452.604904 
L 185.849664 456.940249 
L 181.587878 464.640339 
L 180.657143 465.934472 
L 179.971339 467.681551 
L 178.697701 469.299217 
L 176.101441 474.281628 
L 175.317664 476.54636 
L 173.946055 476.869893 
L 171.349794 474.993401 
L 169.733255 472.405135 
L 168.312659 470.916883 
L 167.528883 469.42863 
L 166.45119 469.23451 
L 164.687692 467.616844 
L 163.756957 468.975684 
L 161.993459 466.775658 
L 161.062724 466.128592 
L 157.878631 465.675645 
L 157.192827 465.222699 
L 156.066148 466.258005 
L 151.902334 463.928566 
L 149.599989 461.663834 
L 146.758799 460.952061 
L 145.730092 460.110874 
L 144.554427 458.234382 
L 144.848343 456.681423 
L 144.603413 455.516703 
L 142.448027 457.263782 
L 139.31292 456.616716 
L 136.030854 455.19317 
L 133.777496 453.446091 
L 132.160957 452.863731 
L 131.475152 453.510797 
L 130.005571 456.940249 
L 131.86704 458.493208 
L 133.777496 459.334395 
L 136.618687 461.081474 
L 137.647394 460.822647 
L 141.174389 463.08738 
L 144.211524 465.416819 
L 145.87705 466.322712 
L 147.248659 468.069791 
L 148.22838 468.134497 
L 149.746948 469.04039 
L 152.539152 469.62275 
L 156.89891 472.146309 
L 159.789087 473.440442 
L 161.209683 474.734574 
L 164.050873 476.869893 
L 165.422483 478.164026 
L 169.831227 480.946412 
L 171.15385 480.428759 
L 178.207841 484.63469 
L 182.469627 486.381769 
L 185.604734 488.452382 
L 189.670576 491.5583 
L 191.874948 492.5289 
L 193.83439 492.981846 
L 193.883376 493.823032 
L 192.119878 497.317191 
L 190.209422 501.587829 
L 188.641869 504.176094 
L 186.339525 508.576146 
L 185.89865 509.999692 
L 183.498334 514.011503 
L 182.812529 514.07621 
L 180.167283 511.876184 
L 177.522036 510.258518 
L 174.484901 506.76436 
L 173.064306 507.411426 
L 171.790669 506.829067 
L 169.733255 505.211401 
L 167.18598 502.817255 
L 165.177552 501.652536 
L 163.609999 501.458416 
L 159.838073 499.581923 
L 158.76038 498.805444 
L 156.262092 497.770137 
L 154.79251 496.864244 
L 150.971599 495.052459 
L 149.697961 495.117165 
L 148.914185 494.275979 
L 145.828064 492.5289 
L 142.888901 490.393581 
L 140.684529 490.134754 
L 135.638966 487.481782 
L 134.169385 486.446476 
L 133.091692 486.381769 
L 130.250501 492.72302 
L 129.074836 496.799538 
L 128.291059 500.164283 
L 127.507282 501.717242 
L 126.91945 503.787855 
L 125.645812 504.370214 
L 124.372175 506.182 
L 123.882315 509.029092 
L 122.510705 511.940891 
L 120.453291 516.858595 
L 119.571543 517.958608 
L 117.024268 519.382154 
L 116.191505 521.452767 
L 114.917868 523.393966 
L 114.379022 524.882219 
L 112.762482 527.470484 
L 111.929719 530.576403 
L 108.353738 536.4 
L 108.45171 534.005854 
L 108.059822 532.841135 
L 106.59024 532.258775 
L 106.10038 531.482296 
L 102.083524 530.446989 
L 99.585235 530.188163 
L 97.67478 527.470484 
L 94.637645 527.211657 
L 93.853868 526.499884 
L 91.943412 526.305765 
L 91.551524 525.917525 
L 88.024528 524.558685 
L 87.289738 523.588086 
L 84.693477 523.005726 
L 79.892844 520.61158 
L 78.521235 519.576274 
L 76.512807 518.735088 
L 75.924975 518.088022 
L 77.198612 515.04681 
L 78.178333 510.970291 
L 79.256026 509.158506 
L 80.676621 505.923174 
L 81.215468 503.464321 
L 83.076938 498.740737 
L 85.428268 494.470099 
L 86.505961 493.823032 
L 87.828584 492.33478 
L 88.220472 491.234767 
L 88.024528 489.940634 
L 91.159635 485.475876 
L 92.384286 485.02293 
L 93.902854 481.205238 
L 94.343728 480.881705 
L 95.862296 477.193427 
L 96.793031 476.093414 
L 96.401142 475.511054 
L 94.392714 474.216921 
L 92.776175 473.505148 
L 90.326872 471.952189 
L 87.534668 471.111003 
L 83.958686 469.493337 
L 78.96211 466.581538 
L 75.092212 464.705046 
L 71.859133 462.50502 
L 71.02637 461.3403 
L 70.683468 459.722634 
L 69.066928 458.040262 
L 68.332137 456.228476 
L 66.127765 454.934343 
L 62.894686 453.575504 
L 59.367691 451.504892 
L 55.840695 448.851919 
L 54.66503 448.334266 
L 51.089049 445.875414 
L 48.737719 445.422468 
L 46.288416 443.934215 
L 44.671877 442.251842 
L 44.084044 442.640082 
L 43.594184 441.540069 
L 38.156732 438.887097 
L 32.229421 435.328232 
L 27.575746 433.0635 
L 24.538611 431.316421 
L 24.244695 430.281114 
L 24.9305 429.892875 
L 26.693997 427.757556 
L 26.742983 426.722249 
L 24.440639 425.104583 
L 21.305532 423.810451 
L 25.371374 426.981076 
L 27.379802 427.692849 
L 31.053756 430.281114 
L 33.3561 430.992887 
L 36.197291 432.610553 
L 37.470928 433.64586 
L 39.234425 434.422339 
L 41.634742 436.040005 
L 45.945514 437.398845 
L 46.827263 438.110618 
L 50.011356 439.857697 
L 47.268137 437.981204 
L 48.1009 435.457645 
L 51.872826 428.016382 
L 54.469086 422.257491 
L 56.232584 419.086866 
L 58.14304 416.304481 
L 59.857551 413.069149 
L 62.061923 408.345564 
L 63.041644 406.663192 
L 64.217309 403.880806 
L 64.560212 402.45726 
L 65.686891 401.033714 
L 67.009514 398.380742 
L 68.234165 396.568956 
L 69.360844 394.174811 
L 69.360844 391.068892 
L 70.830426 388.2218 
L 72.64291 386.021774 
L 73.230742 384.598228 
L 75.631058 381.621723 
L 76.904696 378.709924 
L 77.982389 377.156965 
L 79.45197 374.18046 
L 82.097217 370.362768 
L 84.987393 365.574477 
L 85.330296 364.539171 
L 87.191765 361.886198 
L 88.759319 358.9744 
L 91.355579 355.221415 
L 95.225477 348.427218 
L 96.352156 346.809552 
L 100.27104 348.750751 
L 100.466984 348.233098 
L 100.466984 348.233098 
" clip-path="url(#pd165acc23c)" style="fill: none; stroke: #000000; stroke-width: 3"/>
   </g>
  </g>
 </g>
 <defs>
  <clipPath id="pd165acc23c">
   <rect x="7.2" y="7.2" width="310.321709" height="554.4"/>
  </clipPath>
 </defs>
</svg>
