<?xml version="1.0" encoding="utf-8" standalone="no"?>
<!DOCTYPE svg PUBLIC "-//W3C//DTD SVG 1.1//EN"
  "http://www.w3.org/Graphics/SVG/1.1/DTD/svg11.dtd">
<svg xmlns:xlink="http://www.w3.org/1999/xlink" width="313.28372pt" height="568.8pt" viewBox="0 0 313.28372 568.8" xmlns="http://www.w3.org/2000/svg" version="1.1">
 <metadata>
  <rdf:RDF xmlns:dc="http://purl.org/dc/elements/1.1/" xmlns:cc="http://creativecommons.org/ns#" xmlns:rdf="http://www.w3.org/1999/02/22-rdf-syntax-ns#">
   <cc:Work>
    <dc:type rdf:resource="http://purl.org/dc/dcmitype/StillImage"/>
    <dc:date>2023-09-25T14:14:01.691390</dc:date>
    <dc:format>image/svg+xml</dc:format>
    <dc:creator>
     <cc:Agent>
      <dc:title>Matplotlib v3.6.2, https://matplotlib.org/</dc:title>
     </cc:Agent>
    </dc:creator>
   </cc:Work>
  </rdf:RDF>
 </metadata>
 <defs>
  <style type="text/css">*{stroke-linejoin: round; stroke-linecap: butt}</style>
 </defs>
 <g id="figure_1">
  <g id="patch_1">
   <path d="M 0 568.8 
L 313.28372 568.8 
L 313.28372 0 
L 0 0 
z
" style="fill: #ffffff"/>
  </g>
  <g id="axes_1">
   <g id="LineCollection_1">
    <path d="M 53.750934 534.022642 
L 51.793123 532.903885 
L 48.406638 532.274584 
L 45.125981 530.316759 
L 40.046255 527.939401 
L 37.135994 526.261265 
L 34.8607 524.513208 
L 33.167458 523.813984 
L 30.257198 521.436626 
L 26.711972 519.548724 
L 26.500316 518.989345 
L 28.3523 515.073696 
L 30.045542 513.255716 
L 31.103819 511.437736 
L 33.220372 506.473252 
L 34.701959 503.956049 
L 36.077718 500.809545 
L 36.65977 498.85172 
L 36.712684 497.383352 
L 38.564668 493.887236 
L 39.57003 492.838402 
L 41.739497 489.76182 
L 42.162807 488.503219 
L 45.443464 484.447725 
L 45.972603 483.259046 
L 48.142069 480.182464 
L 50.629019 475.21798 
L 51.528554 472.351165 
L 54.491728 469.204661 
L 57.084505 464.030411 
L 57.719471 463.191343 
L 59.836024 458.156937 
L 63.645819 451.58424 
L 64.545354 450.67525 
L 66.026941 448.158047 
L 67.243959 445.431077 
L 68.249321 444.452164 
L 68.77846 443.193563 
L 71.159581 438.998224 
L 72.217858 436.201332 
L 73.48779 432.005993 
L 74.440238 423.964928 
L 74.546066 419.280133 
L 75.392687 415.504329 
L 76.345136 412.637514 
L 78.832086 408.512098 
L 80.631155 406.064817 
L 82.21857 403.407769 
L 85.287572 397.744062 
L 86.50459 395.156937 
L 88.779884 391.171365 
L 90.261471 388.024861 
L 95.076629 379.284573 
L 98.14563 374.320089 
L 102.960788 365.439956 
L 107.723032 356.979356 
L 113.490638 346.351165 
L 116.55964 341.456604 
L 122.062678 331.247947 
L 124.337972 327.40222 
L 127.142404 323.136959 
L 129.364785 317.962708 
L 133.280408 310.481021 
L 135.926099 306.145838 
L 138.413048 301.251276 
L 141.058739 296.426637 
L 142.540326 294.189123 
L 143.439861 292.301221 
L 146.667604 286.917203 
L 152.964349 275.3101 
L 156.456661 269.226859 
L 160.901422 260.696337 
L 164.340821 254.613097 
L 166.192804 251.047059 
L 168.256444 247.550943 
L 171.007962 242.236848 
L 174.500274 236.083685 
L 177.728018 229.790677 
L 182.543175 221.819534 
L 183.971848 218.952719 
L 186.035487 215.596448 
L 190.586076 207.415538 
L 194.501699 199.933851 
L 199.898909 190.144728 
L 203.073738 184.830633 
L 205.931084 179.097003 
L 208.312206 174.971587 
L 209.053 173.293452 
L 211.645777 169.30788 
L 214.979348 162.735183 
L 219.212453 155.113651 
L 223.445559 147.212431 
L 223.974697 146.932741 
L 227.043699 148.471032 
L 228.789855 148.890566 
L 230.430184 150.079245 
L 231.48846 149.869478 
L 233.499185 146.233518 
L 235.245341 142.178024 
L 236.039049 140.919423 
L 238.68474 135.745172 
L 240.589637 132.66859 
L 242.01831 129.801776 
L 245.510623 123.438846 
L 246.939296 121.341176 
L 252.071936 112.251276 
L 255.352593 106.867259 
L 256.199214 104.629745 
L 258.844906 100.014872 
L 260.591062 97.427747 
L 263.183839 92.812875 
L 266.252841 86.729634 
L 266.834893 85.261265 
L 269.798067 80.366704 
L 275.354018 69.878357 
L 276.62395 68.060377 
L 280.327917 61.068147 
L 282.603211 57.292342 
L 283.608574 54.775139 
L 284.825592 53.097003 
L 287.418369 48.342286 
L 289.058698 45.755161 
L 291.916044 40.301221 
L 292.498096 38.063707 
L 292.127699 36.735183 
L 289.323267 34.21798 
L 288.529559 33.938291 
L 285.883868 34.917203 
L 282.709039 37.364484 
L 279.53421 37.224639 
L 277.523484 37.574251 
L 275.512759 38.623085 
L 273.978258 39.811765 
L 272.496671 42.259046 
L 266.51741 53.516537 
L 262.972184 59.739623 
L 261.966821 62.186903 
L 260.061923 64.983796 
L 258.20994 68.1303 
L 254.876369 74.49323 
L 253.50061 76.800666 
L 248.52671 86.240178 
L 246.886382 88.827303 
L 246.30433 90.225749 
L 244.240691 93.302331 
L 243.129501 95.679689 
L 241.118775 99.315649 
L 239.425533 101.063707 
L 234.39872 111.76182 
L 232.387995 114.768479 
L 229.530649 120.152497 
L 229.107338 121.830633 
L 230.906408 118.334517 
L 231.435546 117.845061 
L 234.504548 118.823973 
L 236.356532 119.663041 
L 244.928571 124.907214 
L 250.061211 127.634184 
L 252.601075 128.822863 
L 254.188489 128.053718 
L 255.193852 124.697447 
L 254.876369 124.068147 
L 245.881019 119.03374 
L 240.113413 116.097003 
L 234.557462 112.950499 
L 234.239979 112.321199 
L 235.880307 109.524306 
L 236.091962 108.405549 
L 235.562824 107.496559 
L 237.467722 108.335627 
L 245.775192 113.020422 
L 248.050486 113.789567 
L 250.219953 115.188013 
L 250.061211 115.467703 
L 256.146301 118.614206 
L 257.310405 119.523196 
L 258.686164 118.754051 
L 259.903182 116.586459 
L 259.850268 115.467703 
L 255.564249 112.461043 
L 254.400145 112.041509 
L 249.690814 109.174695 
L 244.399432 106.727414 
L 241.489172 105.189123 
L 237.414808 102.392231 
L 233.657927 100.784018 
L 233.28753 99.455494 
L 234.716203 96.728524 
L 236.303618 96.588679 
L 242.864932 100.154717 
L 246.30433 101.623085 
L 249.21459 103.650832 
L 250.907832 104.210211 
L 252.918558 105.608657 
L 258.897819 108.405549 
L 261.384769 109.94384 
L 262.813442 110.433296 
L 263.818805 110.153607 
L 264.771254 108.265705 
L 264.929995 107.077026 
L 264.347943 106.028191 
L 258.051198 102.252386 
L 257.257491 101.483241 
L 254.135575 99.595339 
L 253.394782 98.12697 
L 250.643263 96.239068 
L 249.320418 95.749612 
L 248.1034 94.49101 
L 244.769829 93.232408 
L 240.377982 92.113651 
L 240.748379 89.94606 
L 241.753741 88.477691 
L 242.917845 88.267925 
L 246.30433 90.085905 
L 249.796642 92.253496 
L 252.071936 93.302331 
L 253.659351 94.421088 
L 259.109475 97.357825 
L 262.972184 99.805105 
L 267.099462 101.832852 
L 268.263566 101.133629 
L 268.528135 100.014872 
L 269.903894 97.427747 
L 269.85098 96.728524 
L 264.453771 93.721865 
L 259.850268 91.833962 
L 256.357956 89.596448 
L 252.230678 87.428857 
L 246.198502 83.932741 
L 245.034398 82.67414 
L 246.092675 79.317869 
L 247.41552 79.03818 
L 251.384057 81.625305 
L 254.453058 82.813984 
L 256.781267 84.49212 
L 257.151663 86.729634 
L 255.828818 88.827303 
L 260.326493 91.624195 
L 262.125562 92.533185 
L 263.448408 92.67303 
L 264.136288 93.721865 
L 266.305754 94.421088 
L 268.898532 96.938291 
L 269.374756 96.728524 
L 271.173826 94.141398 
L 271.755878 92.812875 
L 273.131637 95.190233 
L 275.883156 96.868368 
L 276.62395 96.798446 
L 279.95752 91.064817 
L 281.121624 87.988235 
L 285.195989 84.422198 
L 288.26499 79.94717 
L 289.482008 77.639734 
L 290.593198 74.842841 
L 291.016509 69.878357 
L 290.381543 68.619756 
L 288.212076 67.22131 
L 285.566385 69.458824 
L 283.978971 72.67525 
L 283.767315 73.654162 
L 281.968245 76.31121 
L 280.804141 78.548724 
L 278.105537 82.744062 
L 275.724415 87.498779 
L 274.82488 88.477691 
L 272.285016 92.603108 
L 271.332567 92.67303 
L 264.982909 89.596448 
L 262.178476 87.918313 
L 257.839543 85.610877 
L 256.781267 84.701887 
L 252.918558 82.324528 
L 250.907832 81.904994 
L 247.203865 79.527636 
L 246.72764 77.639734 
L 247.997572 75.052608 
L 249.426245 74.772919 
L 251.331143 76.101443 
L 252.759816 76.590899 
L 259.426958 80.156937 
L 261.702252 81.695228 
L 265.882444 83.722974 
L 269.110187 85.540954 
L 273.925345 88.547614 
L 275.354018 88.198002 
L 276.412294 86.030411 
L 276.306467 84.631964 
L 273.925345 83.722974 
L 270.327205 81.205771 
L 267.840255 80.087014 
L 265.82953 78.548724 
L 261.966821 76.940511 
L 259.903182 75.192453 
L 255.088024 72.954939 
L 251.595712 70.717425 
L 249.743728 70.227969 
L 245.722278 68.619756 
L 240.801293 66.102553 
L 241.647914 62.186903 
L 241.647914 58.411099 
L 242.01831 55.194673 
L 242.759104 53.446615 
L 242.494535 52.048169 
L 243.235328 49.810655 
L 244.664001 47.922752 
L 244.716915 46.384462 
L 246.30433 43.517647 
L 247.944658 41.210211 
L 249.955384 36.875028 
L 248.52671 35.896115 
L 246.198502 35.336737 
L 244.769829 34.567592 
L 241.647914 33.448835 
L 240.48381 33.518757 
L 239.584275 34.427747 
L 237.097325 38.273474 
L 234.716203 42.39889 
L 233.816668 44.566482 
L 234.451634 46.664151 
L 238.790567 48.691898 
L 241.912483 48.482131 
L 242.600362 48.971587 
L 247.362606 50.859489 
L 248.844193 51.768479 
L 252.019023 53.027081 
L 254.823455 55.264595 
L 254.876369 56.383352 
L 253.236041 60.508768 
L 252.230678 65.12364 
L 252.442333 65.543174 
L 255.511335 67.081465 
L 258.739078 69.03929 
L 264.453771 72.255716 
L 268.157738 74.49323 
L 271.755878 76.031521 
L 272.390844 75.751831 
L 273.978258 77.360044 
L 277.893881 79.527636 
L 279.216727 80.017092 
L 281.492021 76.031521 
L 281.06871 75.192453 
L 285.35473 77.709656 
L 286.730489 78.199112 
L 287.947507 79.247947 
L 289.958232 76.800666 
L 290.328629 75.332297 
L 289.693663 74.003774 
L 284.455195 70.647503 
L 282.550297 69.738513 
L 280.433745 67.920533 
L 276.200639 66.382242 
L 274.56031 65.473252 
L 271.597136 63.375583 
L 265.723702 60.299001 
L 259.109475 56.523196 
L 257.310405 55.754051 
L 255.828818 54.425527 
L 255.934645 53.236848 
L 257.998284 45.545394 
L 260.696889 38.483241 
L 261.913907 37.434406 
L 264.400857 38.133629 
L 268.210652 35.966038 
L 269.85098 34.497669 
L 272.708327 33.169145 
L 276.835605 32.539845 
L 279.53421 32.4 
L 284.349367 34.008213 
L 283.661488 36.455494 
L 282.074073 39.741842 
L 281.439107 41.559822 
L 279.428382 44.916093 
L 277.788054 48.342286 
L 275.618587 51.838402 
L 275.089449 53.446615 
L 273.078723 57.22242 
L 272.179189 58.061487 
L 267.893169 66.31232 
L 267.152376 67.291232 
L 253.553523 91.973807 
L 253.288954 92.882797 
L 249.743728 99.03596 
L 248.473797 101.623085 
L 247.521348 102.532075 
L 246.72764 105.39889 
L 244.240691 108.895006 
L 241.118775 114.558713 
L 239.531361 117.145838 
L 236.250704 123.368923 
L 231.964684 130.640844 
L 228.895683 136.444395 
L 227.414096 137.842841 
L 226.302905 138.122531 
L 225.615026 140.849501 
L 224.239266 144.275694 
L 222.546024 147.002664 
L 221.911058 149.030411 
L 218.789143 154.414428 
L 217.095901 157.840622 
L 211.27538 167.4899 
L 205.719429 177.558713 
L 203.497048 181.054828 
L 202.332944 183.502109 
L 200.269305 187.068147 
L 199.105201 189.795117 
L 195.34832 195.94828 
L 193.707992 199.094784 
L 190.903559 203.989345 
L 184.500987 215.94606 
L 183.072313 218.323418 
L 178.892122 226.294562 
L 177.780931 228.042619 
L 173.653653 235.664151 
L 170.478824 241.118091 
L 166.245718 249.229079 
L 160.425198 259.297891 
L 159.631491 261.255716 
L 157.038713 265.241287 
L 154.922161 269.366704 
L 152.117728 274.331188 
L 148.625416 280.973807 
L 144.603965 288.03596 
L 143.386948 290.553163 
L 141.323308 293.769589 
L 134.497426 306.21576 
L 129.629354 314.816204 
L 127.671543 318.522087 
L 125.290421 321.94828 
L 123.173868 326.842841 
L 121.110229 330.688568 
L 120.210694 332.926082 
L 118.041227 336.911654 
L 116.453812 339.079245 
L 114.390173 342.85505 
L 113.120242 344.67303 
L 109.839585 350.616426 
L 106.558928 356.909434 
L 103.860323 361.664151 
L 101.002977 367.048169 
L 97.457751 373.13141 
L 87.933263 390.472142 
L 87.457038 391.870588 
L 83.488502 398.792897 
L 81.319035 403.12808 
L 78.408775 407.812875 
L 76.345136 411.448835 
L 74.969377 414.735183 
L 74.493152 417.532075 
L 74.069842 428.789567 
L 71.529978 438.019312 
L 68.725546 444.172475 
L 65.497803 449.136959 
L 54.756297 468.924972 
L 52.798485 471.861709 
L 48.142069 480.182464 
L 46.713396 483.468812 
L 45.231809 485.916093 
L 44.649757 487.384462 
L 42.05698 491.719645 
L 37.083081 500.599778 
L 36.077718 502.627525 
L 29.939715 513.885017 
L 28.775611 515.073696 
L 25.494954 519.898335 
L 23.272573 523.953829 
L 20.785624 528.918313 
L 21.473503 531.085905 
L 22.53178 532.134739 
L 25.124557 533.253496 
L 27.876076 533.882797 
L 29.357663 533.67303 
L 33.06163 536.4 
L 33.06163 536.4 
" clip-path="url(#paee27b395c)" style="fill: none; stroke: #000000; stroke-width: 3"/>
   </g>
  </g>
 </g>
 <defs>
  <clipPath id="paee27b395c">
   <rect x="7.2" y="7.2" width="298.88372" height="554.4"/>
  </clipPath>
 </defs>
</svg>
