<?xml version="1.0" encoding="utf-8" standalone="no"?>
<!DOCTYPE svg PUBLIC "-//W3C//DTD SVG 1.1//EN"
  "http://www.w3.org/Graphics/SVG/1.1/DTD/svg11.dtd">
<svg xmlns:xlink="http://www.w3.org/1999/xlink" width="417.818212pt" height="568.8pt" viewBox="0 0 417.818212 568.8" xmlns="http://www.w3.org/2000/svg" version="1.1">
 <metadata>
  <rdf:RDF xmlns:dc="http://purl.org/dc/elements/1.1/" xmlns:cc="http://creativecommons.org/ns#" xmlns:rdf="http://www.w3.org/1999/02/22-rdf-syntax-ns#">
   <cc:Work>
    <dc:type rdf:resource="http://purl.org/dc/dcmitype/StillImage"/>
    <dc:date>2023-09-25T14:14:01.215183</dc:date>
    <dc:format>image/svg+xml</dc:format>
    <dc:creator>
     <cc:Agent>
      <dc:title>Matplotlib v3.6.2, https://matplotlib.org/</dc:title>
     </cc:Agent>
    </dc:creator>
   </cc:Work>
  </rdf:RDF>
 </metadata>
 <defs>
  <style type="text/css">*{stroke-linejoin: round; stroke-linecap: butt}</style>
 </defs>
 <g id="figure_1">
  <g id="patch_1">
   <path d="M 0 568.8 
L 417.818212 568.8 
L 417.818212 0 
L 0 0 
z
" style="fill: #ffffff"/>
  </g>
  <g id="axes_1">
   <g id="LineCollection_1">
    <path d="M 61.368485 324.221326 
L 65.400651 327.247262 
L 68.699696 329.062824 
L 70.990699 331.241499 
L 75.664346 332.936023 
L 77.313869 334.99366 
L 79.788153 334.388473 
L 82.170796 329.789049 
L 86.202962 328.094524 
L 93.350893 330.152161 
L 96.191737 331.362536 
L 100.590464 334.630548 
L 105.539031 338.866859 
L 109.204637 341.045533 
L 115.527806 343.950432 
L 124.50854 347.581556 
L 130.190228 350.365418 
L 133.764193 353.14928 
L 136.146837 358.111816 
L 137.704719 365.131988 
L 139.537522 369.247262 
L 144.48609 374.693948 
L 148.060055 377.96196 
L 151.45074 382.682421 
L 156.949148 389.097406 
L 160.614754 392.24438 
L 164.463639 393.69683 
L 174.360774 398.659366 
L 180.409023 403.016715 
L 180.958864 405.195389 
L 183.249868 406.647839 
L 185.449231 406.526801 
L 190.031238 396.843804 
L 192.780442 392.72853 
L 193.605203 390.307781 
L 196.354407 385.950432 
L 205.884981 367.4317 
L 210.833549 359.32219 
L 219.905922 341.287608 
L 224.85449 332.209798 
L 226.962213 327.005187 
L 231.81914 318.77464 
L 233.102102 317.080115 
L 235.576386 310.786167 
L 237.500829 309.575793 
L 243.549078 299.65072 
L 250.330448 288.031124 
L 253.721133 281.253026 
L 260.777424 271.206916 
L 264.534669 263.944669 
L 269.849797 254.624784 
L 271.6826 252.809222 
L 274.890005 246.999424 
L 280.663333 237.437464 
L 290.102267 219.160807 
L 294.867555 211.535447 
L 298.71644 204.878386 
L 299.907762 201.85245 
L 304.398129 193.500865 
L 315.578226 175.708357 
L 325.01716 157.673775 
L 329.140966 148.35389 
L 337.296938 135.281844 
L 339.129741 131.529683 
L 344.811429 122.088761 
L 349.668357 112.647839 
L 354.250363 104.538329 
L 357.915969 98.72853 
L 360.848453 95.460519 
L 365.33882 85.898559 
L 372.303471 75.126225 
L 373.128232 70.889914 
L 378.71828 59.512392 
L 384.583249 50.07147 
L 391.82282 36.515274 
L 392.28102 32.4 
L 391.181339 33.005187 
L 387.332453 38.936023 
L 385.59129 40.872622 
L 378.71828 54.791931 
L 376.518917 57.817867 
L 368.729505 71.737176 
L 363.506017 79.241499 
L 359.657132 80.936023 
L 360.023692 83.96196 
L 358.55745 86.261671 
L 355.075125 89.892795 
L 348.843595 101.270317 
L 345.17799 109.985014 
L 344.169948 111.679539 
L 339.771222 121.725648 
L 338.213339 124.267435 
L 332.714931 136.613256 
L 327.583084 145.933141 
L 318.51071 161.668012 
L 316.219707 164.693948 
L 311.82098 171.835159 
L 305.13125 184.302017 
L 303.573368 186.117579 
L 302.931887 188.538329 
L 300.640883 192.895677 
L 301.465644 194.953314 
L 298.44152 204.757349 
L 293.584593 205.362536 
L 288.727665 214.198271 
L 281.121534 229.812104 
L 277.455929 236.832277 
L 266.550752 255.835159 
L 239.241991 306.912968 
L 237.500829 309.69683 
L 233.102102 319.016715 
L 229.069936 325.4317 
L 223.938088 334.872622 
L 221.280524 342.13487 
L 223.388248 344.797695 
L 226.687293 346.129107 
L 232.552261 350.123343 
L 237.317548 352.423055 
L 246.115002 357.990778 
L 251.246849 359.80634 
L 258.028219 363.921614 
L 261.877105 366.584438 
L 263.526628 368.521037 
L 267.833714 370.094524 
L 269.574877 372.152161 
L 273.423763 374.814986 
L 278.55561 377.356772 
L 280.938254 378.082997 
L 283.229257 379.777522 
L 286.986503 380.382709 
L 293.401312 382.924496 
L 299.449561 386.55562 
L 307.880454 390.912968 
L 311.362779 392.365418 
L 312.645741 394.18098 
L 313.928703 392.970605 
L 314.753464 388.613256 
L 313.837063 384.861095 
L 313.195582 385.58732 
L 314.111983 390.912968 
L 312.737381 393.817867 
L 312.829021 396.359654 
L 314.845105 391.518156 
L 314.845105 389.339481 
L 312.462461 374.693948 
L 312.462461 368.278963 
L 312.920662 363.679539 
L 313.837063 359.80634 
L 317.319388 356.054179 
L 315.578226 355.812104 
L 313.378862 359.564265 
L 311.54606 365.858213 
L 311.454419 374.814986 
L 313.470502 386.918732 
L 313.378862 391.639193 
L 311.72934 396.480692 
L 312.370821 397.085879 
L 314.203624 393.69683 
L 314.936745 389.460519 
L 313.195582 382.319308 
L 313.287222 381.108934 
L 311.91262 374.088761 
L 312.920662 362.590202 
L 313.470502 359.564265 
L 315.211665 357.748703 
L 314.020343 356.659366 
L 312.0959 362.106052 
L 311.179499 366.463401 
L 311.087859 374.572911 
L 312.737381 382.924496 
L 313.470502 388.129107 
L 313.287222 391.034006 
L 311.91262 395.391354 
L 311.91262 399.143516 
L 308.155374 403.25879 
L 299.083001 419.114697 
L 295.142475 425.045533 
L 292.851472 429.644957 
L 288.910946 436.18098 
L 287.719624 439.085879 
L 285.1537 443.32219 
L 276.722807 460.388473 
L 259.677742 491.616138 
L 256.928538 495.610375 
L 255.645576 495.731412 
L 253.629493 493.4317 
L 242.815957 487.500865 
L 239.975112 486.653602 
L 232.827182 482.538329 
L 230.536178 481.570029 
L 228.611735 479.512392 
L 216.881798 472.129107 
L 214.774075 472.855331 
L 209.733867 482.175216 
L 209.825507 482.659366 
L 213.674393 475.276081 
L 210.741909 479.996542 
L 208.634186 484.717003 
L 205.426781 489.558501 
L 210.650269 478.059942 
L 212.849632 474.791931 
L 213.491113 474.912968 
L 208.084345 483.869741 
L 209.458947 482.417291 
L 211.108469 482.296254 
L 214.957355 486.169452 
L 218.897881 487.742939 
L 225.495971 492.342363 
L 231.36094 491.979251 
L 236.767708 495.85245 
L 240.433313 497.789049 
L 246.298282 498.394236 
L 249.963887 500.572911 
L 250.330448 501.783285 
L 252.988012 503.114697 
L 256.287057 505.656484 
L 260.685783 508.198271 
L 263.893188 510.740058 
L 275.256565 516.549856 
L 276.722807 516.307781 
L 279.472012 510.861095 
L 281.304814 509.408646 
L 283.687458 506.261671 
L 284.603859 503.719885 
L 287.444703 500.330836 
L 288.636025 496.578674 
L 292.301631 492.94755 
L 289.460787 498.999424 
L 283.412537 507.472046 
L 279.746932 511.58732 
L 276.081326 516.670893 
L 273.607043 516.428818 
L 266.275832 511.466282 
L 263.343347 509.892795 
L 259.311181 505.172334 
L 257.203458 504.930259 
L 256.836898 506.019597 
L 258.944621 508.561383 
L 264.626309 511.58732 
L 266.000911 511.466282 
L 275.806406 516.307781 
L 275.806406 517.034006 
L 270.674558 524.538329 
L 266.000911 533.495101 
L 266.367472 531.316427 
L 261.510545 529.621902 
L 255.553936 526.959078 
L 254.087694 522.238617 
L 251.063569 522.722767 
L 248.955846 521.996542 
L 246.939763 517.034006 
L 245.1986 518.123343 
L 242.082836 525.264553 
L 242.174476 530.711239 
L 246.573202 533.253026 
L 251.246849 534.705476 
L 253.629493 533.737176 
L 256.561977 536.278963 
L 257.661659 536.4 
L 256.836898 534.100288 
L 254.729175 532.042651 
L 248.864206 530.348127 
L 245.748441 529.016715 
L 243.732358 527.080115 
L 240.708234 529.985014 
L 239.700192 525.143516 
L 236.034587 524.417291 
L 230.077978 522.359654 
L 225.22105 520.18098 
L 221.188884 516.670893 
L 220.730684 514.976369 
L 219.172801 515.218444 
L 214.407514 512.55562 
L 212.299791 510.61902 
L 208.909106 509.045533 
L 206.893023 507.108934 
L 202.860857 504.44611 
L 199.561812 503.840922 
L 185.08267 497.304899 
L 182.058546 495.731412 
L 177.843099 492.221326 
L 177.751459 490.405764 
L 179.950823 484.474928 
L 183.891348 477.69683 
L 184.349549 476.002305 
L 188.656636 468.255908 
L 191.039279 462.809222 
L 193.605203 459.54121 
L 196.354407 453.126225 
L 201.302975 444.29049 
L 203.502338 438.238617 
L 210.650269 427.466282 
L 217.248358 415.846686 
L 217.98148 412.336599 
L 207.259583 406.163689 
L 200.753134 402.895677 
L 196.995888 400.111816 
L 187.098753 395.875504 
L 183.158227 393.575793 
L 178.48458 389.218444 
L 176.835058 388.250144 
L 175.460456 388.976369 
L 172.069771 387.523919 
L 169.320567 383.771758 
L 166.479722 382.198271 
L 160.614754 381.108934 
L 156.124387 378.567147 
L 147.510214 375.057061 
L 145.769051 373.846686 
L 141.187045 369.247262 
L 138.896041 365.495101 
L 136.605038 357.869741 
L 134.130754 352.786167 
L 132.664512 351.454755 
L 126.891183 347.823631 
L 108.838076 340.803458 
L 105.447391 338.866859 
L 98.20782 333.783285 
L 84.278519 327.731412 
L 82.079156 328.215562 
L 81.346035 330.636311 
L 78.13863 336.44611 
L 72.182021 348.065706 
L 69.616097 351.938905 
L 65.217371 360.048415 
L 62.376527 365.858213 
L 55.870077 376.630548 
L 50.371669 387.402882 
L 44.68998 396.601729 
L 41.940776 403.379827 
L 41.574215 403.016715 
L 44.140139 399.385591 
L 47.714105 392.24438 
L 51.19643 386.434582 
L 52.571032 383.287608 
L 65.858852 359.80634 
L 70.532499 351.091643 
L 61.001925 344.192507 
L 49.180347 338.261671 
L 46.797703 336.567147 
L 38.458451 332.451873 
L 33.693164 329.425937 
L 25.537191 325.310663 
L 25.537191 325.310663 
" clip-path="url(#pe2ee78a53a)" style="fill: none; stroke: #000000; stroke-width: 3"/>
   </g>
  </g>
 </g>
 <defs>
  <clipPath id="pe2ee78a53a">
   <rect x="7.2" y="7.2" width="403.418212" height="554.4"/>
  </clipPath>
 </defs>
</svg>
