<?xml version="1.0" encoding="utf-8" standalone="no"?>
<!DOCTYPE svg PUBLIC "-//W3C//DTD SVG 1.1//EN"
  "http://www.w3.org/Graphics/SVG/1.1/DTD/svg11.dtd">
<svg xmlns:xlink="http://www.w3.org/1999/xlink" width="439.730494pt" height="568.8pt" viewBox="0 0 439.730494 568.8" xmlns="http://www.w3.org/2000/svg" version="1.1">
 <metadata>
  <rdf:RDF xmlns:dc="http://purl.org/dc/elements/1.1/" xmlns:cc="http://creativecommons.org/ns#" xmlns:rdf="http://www.w3.org/1999/02/22-rdf-syntax-ns#">
   <cc:Work>
    <dc:type rdf:resource="http://purl.org/dc/dcmitype/StillImage"/>
    <dc:date>2023-09-25T14:14:01.001958</dc:date>
    <dc:format>image/svg+xml</dc:format>
    <dc:creator>
     <cc:Agent>
      <dc:title>Matplotlib v3.6.2, https://matplotlib.org/</dc:title>
     </cc:Agent>
    </dc:creator>
   </cc:Work>
  </rdf:RDF>
 </metadata>
 <defs>
  <style type="text/css">*{stroke-linejoin: round; stroke-linecap: butt}</style>
 </defs>
 <g id="figure_1">
  <g id="patch_1">
   <path d="M 0 568.8 
L 439.730494 568.8 
L 439.730494 0 
L 0 0 
z
" style="fill: #ffffff"/>
  </g>
  <g id="axes_1">
   <g id="LineCollection_1">
    <path d="M 149.960729 158.200633 
L 155.47156 161.390506 
L 158.18923 163.284494 
L 163.775552 166.275 
L 165.134388 165.975949 
L 167.776567 161.49019 
L 170.343256 160.991772 
L 176.98645 163.284494 
L 182.799244 166.673734 
L 185.365933 169.165823 
L 188.989493 169.265506 
L 191.4052 172.156329 
L 192.764035 172.854114 
L 204.918061 177.937975 
L 209.900456 181.426899 
L 211.712236 185.314557 
L 212.92009 191.793987 
L 214.203434 194.385759 
L 215.486778 195.781329 
L 220.695646 200.067722 
L 227.414331 209.537658 
L 228.018258 211.531329 
L 231.943781 213.824051 
L 236.246759 215.020253 
L 241.002682 217.412658 
L 243.342898 219.007595 
L 248.098821 221.499684 
L 249.457657 222.994937 
L 253.987107 224.888924 
L 255.11947 226.483861 
L 264.027389 230.770253 
L 267.198004 232.863608 
L 274.596106 235.854114 
L 280.182429 238.645253 
L 283.579516 241.635759 
L 290.751146 245.423734 
L 293.393326 246.42057 
L 295.205106 248.015506 
L 300.715937 251.50443 
L 311.662109 257.186392 
L 317.09745 260.475949 
L 322.306318 262.569304 
L 328.496567 267.055063 
L 331.893654 268.65 
L 344.198661 275.727532 
L 346.312405 276.126266 
L 347.444768 275.12943 
L 350.086947 271.042405 
L 351.21931 267.952215 
L 355.522288 260.675316 
L 363.82628 245.025 
L 366.845914 238.944304 
L 366.619441 237.548734 
L 364.505698 235.75443 
L 358.843885 233.062975 
L 350.766365 228.776582 
L 350.237929 227.081962 
L 354.465416 219.805063 
L 358.315449 211.930063 
L 356.730141 205.550316 
L 356.428178 199.46962 
L 355.975233 195.581962 
L 356.277196 189.9 
L 356.881123 187.706962 
L 360.353701 183.021835 
L 357.485049 182.124684 
L 355.295815 180.729114 
L 355.522288 178.735443 
L 357.183086 176.243354 
L 358.541921 172.854114 
L 363.599807 163.782911 
L 364.883152 162.187975 
L 366.166496 162.187975 
L 373.413617 166.673734 
L 374.696961 166.673734 
L 367.223368 162.487025 
L 361.335082 159.79557 
L 347.520258 151.820886 
L 340.952555 148.331962 
L 330.61031 142.251266 
L 316.19156 134.276582 
L 312.492508 132.382595 
L 306.679714 128.893671 
L 304.792443 130.089873 
L 303.433608 133.877848 
L 304.188516 135.373101 
L 307.132659 137.067722 
L 311.511127 139.061392 
L 313.700362 141.25443 
L 317.927849 143.148418 
L 326.307332 146.338291 
L 329.251475 141.653165 
L 328.723039 140.855696 
L 320.343556 136.17057 
L 314.983706 133.479114 
L 307.434622 128.893671 
L 306.981677 127.797152 
L 309.623856 122.912658 
L 311.888582 123.012342 
L 316.418032 125.404747 
L 320.796501 128.195886 
L 328.270094 132.581962 
L 331.969145 134.974367 
L 334.23387 135.173734 
L 336.196632 130.089873 
L 335.139761 128.395253 
L 331.5162 126.102532 
L 329.402457 125.305063 
L 326.307332 123.311392 
L 319.437666 119.722785 
L 313.775853 116.532911 
L 314.379779 113.941139 
L 316.719995 110.352532 
L 317.776867 110.352532 
L 322.155336 112.54557 
L 326.231841 115.436392 
L 339.518229 122.912658 
L 342.009427 121.517089 
L 343.368262 117.031329 
L 342.462372 116.034494 
L 339.518229 114.638924 
L 330.006383 109.45538 
L 326.307332 107.062975 
L 321.022973 104.172152 
L 319.437666 102.178481 
L 319.211193 100.882595 
L 316.418032 99.686392 
L 313.171926 97.194304 
L 308.642476 96.297152 
L 307.132659 96.895253 
L 305.924805 95.898418 
L 300.715937 93.107278 
L 296.035505 90.216456 
L 295.733542 88.322468 
L 298.073758 84.135759 
L 300.262992 84.235443 
L 309.170911 89.418987 
L 312.417018 90.914241 
L 317.399413 93.70538 
L 319.211193 95.200633 
L 323.816134 97.692722 
L 324.948497 98.888924 
L 328.723039 100.683228 
L 332.573072 102.078797 
L 343.14179 108.259177 
L 348.124185 111.449051 
L 352.804617 114.140506 
L 358.239958 116.831962 
L 361.335082 119.124684 
L 363.297844 119.523418 
L 370.393983 123.411076 
L 373.489108 124.806646 
L 374.923434 126.102532 
L 380.207792 128.993354 
L 381.566628 130.488608 
L 380.736228 133.977532 
L 374.998924 135.472785 
L 378.245031 137.86519 
L 373.71558 133.479114 
L 366.770423 130.289241 
L 360.580174 126.600949 
L 359.900756 126.501266 
L 358.164467 131.983861 
L 358.617412 133.678481 
L 363.222353 136.270253 
L 366.54395 136.968038 
L 373.111653 141.154747 
L 379.528375 144.444304 
L 381.717609 144.543987 
L 387.379422 147.534494 
L 389.266693 149.727532 
L 392.059854 151.521835 
L 392.210836 152.817722 
L 387.756876 157.801899 
L 382.548008 161.888924 
L 380.962701 162.586709 
L 376.43325 159.79557 
L 379.226411 156.007595 
L 379.377393 154.113608 
L 377.943067 152.618354 
L 372.432236 149.528165 
L 371.148892 149.827215 
L 368.733185 153.914241 
L 370.99791 148.730696 
L 368.808675 147.235443 
L 362.240972 143.746519 
L 353.861489 138.662658 
L 353.03109 138.562975 
L 350.086947 144.543987 
L 350.38891 145.341456 
L 357.334068 149.428481 
L 362.165482 151.521835 
L 365.864533 153.515506 
L 366.921404 153.515506 
L 369.18613 150.724367 
L 372.583218 145.042405 
L 375.451869 138.961709 
L 376.810705 138.263924 
L 378.471503 131.086709 
L 379.603866 130.488608 
L 383.755862 123.012342 
L 383.755862 122.11519 
L 378.245031 119.523418 
L 373.036163 116.732278 
L 371.677327 115.536076 
L 366.845914 113.343038 
L 358.768394 108.757595 
L 357.107595 108.05981 
L 348.350658 103.275 
L 341.858445 99.387342 
L 336.574087 96.695886 
L 334.762306 95.300316 
L 329.477948 92.708544 
L 325.17497 89.817722 
L 324.646534 88.422152 
L 318.456285 84.534494 
L 317.701376 85.730696 
L 314.530761 84.933228 
L 311.209164 82.142089 
L 302.829681 77.756013 
L 302.376736 76.759177 
L 305.018915 71.675316 
L 306.755205 71.276582 
L 311.435637 73.17057 
L 317.399413 76.858861 
L 319.966102 78.154747 
L 329.402457 84.335127 
L 336.951541 87.425316 
L 342.688845 91.213291 
L 353.408544 96.596203 
L 355.069342 95.4 
L 357.183086 91.412658 
L 356.579159 90.415823 
L 353.182071 88.023418 
L 347.142804 84.933228 
L 345.632987 83.637342 
L 340.801574 81.543987 
L 333.176999 77.058228 
L 332.271109 77.357278 
L 332.120127 75.662658 
L 330.61031 74.765506 
L 330.157365 71.575633 
L 331.591691 69.083544 
L 331.365219 67.887342 
L 327.515186 64.896835 
L 325.099479 64.597785 
L 322.306318 70.279747 
L 320.796501 70.37943 
L 316.418032 67.887342 
L 314.077816 65.793987 
L 310.83171 63.999684 
L 310.076802 62.903165 
L 313.020944 57.819304 
L 315.059197 58.218038 
L 321.551409 62.404747 
L 332.497581 68.585127 
L 333.478962 68.385759 
L 335.215251 70.37943 
L 337.932922 71.176899 
L 341.631973 73.270253 
L 345.331024 74.267089 
L 351.21931 78.752848 
L 356.050723 81.244937 
L 358.390939 82.939557 
L 360.353701 83.637342 
L 361.335082 82.839873 
L 363.750789 79.151582 
L 365.562569 79.051899 
L 355.144833 72.672152 
L 349.105566 69.681646 
L 344.802588 67.089873 
L 340.273138 64.896835 
L 339.065284 63.9 
L 328.421076 59.015506 
L 331.742673 52.336709 
L 333.026017 52.635759 
L 338.612339 55.725949 
L 343.821207 59.11519 
L 349.784984 61.607278 
L 355.069342 64.498101 
L 356.201705 64.398418 
L 360.127229 67.089873 
L 370.99791 73.17057 
L 373.262635 74.665823 
L 384.133316 80.447468 
L 384.586261 80.447468 
L 387.454913 76.55981 
L 387.530404 74.665823 
L 385.265679 73.46962 
L 378.546994 68.884177 
L 370.846928 65.096203 
L 360.127229 59.11519 
L 358.088976 58.317722 
L 355.144833 56.423734 
L 352.880108 55.526582 
L 349.030075 53.233861 
L 346.840841 50.243354 
L 345.406515 50.442722 
L 342.915317 49.246519 
L 337.479977 45.657911 
L 334.082889 44.162658 
L 327.364204 40.374684 
L 323.891625 38.181646 
L 323.665153 37.284494 
L 326.609296 32.798734 
L 327.515186 32.4 
L 336.272123 36.985443 
L 343.745716 41.570886 
L 347.218295 42.966456 
L 351.2948 45.857278 
L 356.730141 49.146835 
L 363.297844 52.436392 
L 374.696961 59.314557 
L 379.528375 61.706962 
L 381.717609 63.202215 
L 388.662767 66.691139 
L 392.58829 68.385759 
L 395.456942 70.37943 
L 409.64922 77.855696 
L 411.611982 75.164241 
L 413.19729 71.775 
L 409.422748 71.176899 
L 407.686458 70.37943 
L 405.421733 67.987025 
L 403.157008 67.887342 
L 397.419704 64.298734 
L 394.40007 62.903165 
L 388.96473 59.414241 
L 386.096078 57.121519 
L 382.69899 56.025 
L 379.830338 53.831962 
L 379.377393 52.037658 
L 381.7931 48.349367 
L 381.566628 46.45538 
L 383.982334 42.667405 
L 384.661752 40.972785 
L 384.208807 39.776582 
L 373.71558 34.09462 
L 372.80969 34.692722 
L 367.978276 44.362025 
L 363.750789 52.237025 
L 362.391954 53.831962 
L 354.691888 68.485443 
L 350.237929 76.061392 
L 343.217281 88.820886 
L 341.028046 93.306646 
L 337.706449 98.689557 
L 335.366233 103.374684 
L 331.5162 110.053481 
L 329.628929 113.941139 
L 324.042607 123.411076 
L 323.514171 123.610443 
L 320.72101 128.893671 
L 318.758248 133.279747 
L 316.870977 134.475949 
L 313.54938 134.276582 
L 310.907201 133.578797 
L 308.793457 131.186392 
L 306.679714 130.289241 
L 303.962043 131.983861 
L 299.055139 140.656329 
L 297.016886 140.556646 
L 294.978633 144.244937 
L 292.940381 145.640506 
L 280.484392 138.862025 
L 270.44411 133.977532 
L 268.934293 135.572468 
L 266.896041 141.055063 
L 264.329352 146.338291 
L 260.705792 152.21962 
L 257.761649 158.998101 
L 255.11947 162.985443 
L 250.590019 171.956962 
L 245.985078 179.333544 
L 241.757591 187.009177 
L 239.643847 189.301899 
L 236.171269 197.575633 
L 235.869305 199.17057 
L 233.906543 201.862025 
L 229.15062 210.036076 
L 226.583932 213.624684 
L 224.847642 216.814557 
L 219.865247 226.982278 
L 215.939723 233.262342 
L 211.1838 241.336709 
L 210.655364 243.031329 
L 208.315148 245.822468 
L 204.84257 253.896835 
L 205.974932 255.392089 
L 210.806346 258.083544 
L 211.863218 260.176899 
L 212.316163 263.765506 
L 214.73187 262.868354 
L 219.487793 265.360443 
L 219.940738 266.157911 
L 222.658408 267.354114 
L 225.149606 269.048734 
L 225.829023 271.042405 
L 224.243716 274.331962 
L 222.054481 277.621519 
L 217.676013 285.297152 
L 211.108309 298.75443 
L 208.692603 302.941139 
L 202.426863 314.50443 
L 199.105266 319.488608 
L 197.821922 320.286076 
L 197.444467 321.781329 
L 193.594434 329.157911 
L 188.838512 337.631013 
L 183.478662 348.496519 
L 180.459028 352.683228 
L 178.420776 357.567722 
L 171.173655 370.626266 
L 166.040278 378.800316 
L 163.54908 383.385759 
L 162.64319 386.376266 
L 161.057882 389.665823 
L 160.529446 392.058228 
L 157.887267 396.244937 
L 155.094106 402.225949 
L 153.282326 405.415823 
L 152.980362 408.007595 
L 152.149963 410.001266 
L 149.054839 415.085127 
L 146.110696 419.072468 
L 143.845971 426.050316 
L 141.1283 430.137342 
L 139.769465 434.324051 
L 138.788084 433.227532 
L 136.825322 428.542405 
L 132.824308 427.84462 
L 129.502711 426.548734 
L 125.275224 426.847785 
L 123.765407 425.452215 
L 119.53792 424.854114 
L 115.461414 423.757595 
L 114.329052 424.555063 
L 110.856473 430.436392 
L 107.534876 434.124684 
L 104.666224 440.20538 
L 101.948554 443.993354 
L 102.175027 445.189557 
L 93.342598 457.051899 
L 91.6818 461.238608 
L 90.171983 463.032911 
L 89.266093 462.733861 
L 87.152349 467.119937 
L 83.906243 470.808228 
L 82.320935 474.097785 
L 81.86799 476.191139 
L 78.470903 485.760759 
L 74.847342 491.642089 
L 71.525745 499.716456 
L 70.242401 501.510759 
L 68.959057 504.600949 
L 67.071786 506.29557 
L 64.505097 510.781329 
L 63.146262 511.279747 
L 61.862918 514.668987 
L 60.27761 516.862025 
L 57.182486 522.145253 
L 55.74816 525.43481 
L 54.238343 530.119937 
L 52.275581 531.61519 
L 50.916746 536.4 
L 47.066713 533.010759 
L 41.631372 526.032911 
L 37.252904 523.540823 
L 35.894069 523.540823 
L 33.100907 521.447468 
L 29.250875 520.949051 
L 26.533204 520.151582 
L 26.986149 517.260759 
L 31.968545 507.491772 
L 37.101922 496.925316 
L 39.366647 494.034494 
L 43.141189 488.053481 
L 46.236314 480.975949 
L 49.859874 473.4 
L 55.446196 465.026582 
L 56.201105 464.727532 
L 58.616812 460.74019 
L 61.108009 455.855696 
L 62.315863 451.868354 
L 70.468873 436.118354 
L 71.827709 434.523418 
L 78.999338 421.165823 
L 81.339555 417.178481 
L 82.320935 414.686392 
L 84.887624 410.100949 
L 86.246459 404.817722 
L 89.417074 399.135759 
L 90.247474 398.138924 
L 91.530818 394.749684 
L 93.49358 392.157911 
L 95.607323 390.762342 
L 96.588704 388.768671 
L 98.098521 387.572468 
L 101.269136 381.691139 
L 101.722081 379.398418 
L 104.515243 375.311392 
L 106.930949 370.626266 
L 108.138803 369.928481 
L 109.64862 365.043987 
L 112.064327 361.654747 
L 115.008469 356.271835 
L 113.951598 354.975949 
L 110.101565 352.982278 
L 99.75932 348.994937 
L 92.965144 345.805063 
L 91.379836 344.110443 
L 87.756276 341.418987 
L 84.661152 340.820886 
L 78.923848 338.827215 
L 76.206177 336.036076 
L 75.904214 332.646835 
L 74.545379 329.95538 
L 71.903199 327.562975 
L 71.450254 323.874684 
L 72.205163 322.778165 
L 72.356145 319.887342 
L 71.97869 316.398418 
L 71.827709 302.741772 
L 72.054181 299.352532 
L 71.525745 292.075633 
L 71.450254 287.191139 
L 71.676727 265.161076 
L 72.054181 261.472785 
L 71.827709 257.585127 
L 73.262035 248.015506 
L 73.111053 244.925316 
L 73.337525 232.763924 
L 76.583632 223.892089 
L 77.565013 220.00443 
L 80.509155 214.322468 
L 85.41606 205.949051 
L 87.22784 202.161076 
L 89.417074 198.472785 
L 94.39947 189.202215 
L 95.758305 187.507595 
L 100.967173 178.536076 
L 104.062298 173.850949 
L 107.610367 167.471203 
L 111.762363 160.692722 
L 113.347671 156.107278 
L 112.819235 154.312975 
L 105.572114 148.83038 
L 103.38288 149.328797 
L 100.136774 147.933228 
L 97.192631 146.039241 
L 93.418089 142.350949 
L 95.154378 138.263924 
L 97.268122 137.466456 
L 99.985792 139.161076 
L 103.38288 140.257595 
L 104.439752 142.749684 
L 102.024045 147.135759 
L 101.495609 148.730696 
L 104.439752 151.123101 
L 107.83684 151.92057 
L 110.403528 153.714873 
L 113.876107 155.110443 
L 114.17807 156.306646 
L 116.593777 157.00443 
L 118.858502 158.599367 
L 119.764392 157.801899 
L 119.764392 157.801899 
" clip-path="url(#p69b446828d)" style="fill: none; stroke: #000000; stroke-width: 3"/>
   </g>
  </g>
 </g>
 <defs>
  <clipPath id="p69b446828d">
   <rect x="7.2" y="7.2" width="425.330494" height="554.4"/>
  </clipPath>
 </defs>
</svg>
