<?xml version="1.0" encoding="utf-8" standalone="no"?>
<!DOCTYPE svg PUBLIC "-//W3C//DTD SVG 1.1//EN"
  "http://www.w3.org/Graphics/SVG/1.1/DTD/svg11.dtd">
<svg xmlns:xlink="http://www.w3.org/1999/xlink" width="309.02852pt" height="568.8pt" viewBox="0 0 309.02852 568.8" xmlns="http://www.w3.org/2000/svg" version="1.1">
 <metadata>
  <rdf:RDF xmlns:dc="http://purl.org/dc/elements/1.1/" xmlns:cc="http://creativecommons.org/ns#" xmlns:rdf="http://www.w3.org/1999/02/22-rdf-syntax-ns#">
   <cc:Work>
    <dc:type rdf:resource="http://purl.org/dc/dcmitype/StillImage"/>
    <dc:date>2023-09-25T14:14:00.799525</dc:date>
    <dc:format>image/svg+xml</dc:format>
    <dc:creator>
     <cc:Agent>
      <dc:title>Matplotlib v3.6.2, https://matplotlib.org/</dc:title>
     </cc:Agent>
    </dc:creator>
   </cc:Work>
  </rdf:RDF>
 </metadata>
 <defs>
  <style type="text/css">*{stroke-linejoin: round; stroke-linecap: butt}</style>
 </defs>
 <g id="figure_1">
  <g id="patch_1">
   <path d="M 0 568.8 
L 309.02852 568.8 
L 309.02852 0 
L 0 0 
z
" style="fill: #ffffff"/>
  </g>
  <g id="axes_1">
   <g id="LineCollection_1">
    <path d="M 248.917561 38.230175 
L 250.656199 34.818902 
L 251.736973 34.322717 
L 255.96609 35.56318 
L 259.067443 36.803643 
L 263.907433 40.028846 
L 265.787041 41.083239 
L 270.533051 42.819887 
L 273.446443 44.184396 
L 277.62857 46.603298 
L 278.521384 47.843761 
L 279.320217 52.123357 
L 280.635943 55.162491 
L 282.656521 57.581393 
L 285.053021 59.628157 
L 286.415737 62.357175 
L 288.389325 64.341915 
L 288.436315 65.954516 
L 286.791658 69.427812 
L 285.006031 72.342899 
L 283.690305 74.885848 
L 283.408364 76.560473 
L 280.400992 81.956485 
L 279.696139 83.879203 
L 278.286433 86.546197 
L 276.829737 88.530938 
L 275.607992 90.763771 
L 275.0911 92.314349 
L 274.151296 93.430765 
L 271.707806 97.152154 
L 270.627031 99.322963 
L 270.2981 100.935565 
L 268.136551 104.40886 
L 267.572669 105.959439 
L 266.162963 108.75048 
L 264.236365 111.355452 
L 263.437531 113.526261 
L 261.980835 115.448979 
L 259.255404 120.410829 
L 257.845698 122.39557 
L 255.355218 127.419444 
L 254.838326 129.094068 
L 253.851532 130.458577 
L 253.193669 132.071179 
L 251.877944 133.993896 
L 250.374257 136.660891 
L 248.400669 139.700025 
L 246.709022 141.374649 
L 242.056993 149.871819 
L 240.365346 152.538814 
L 238.626709 157.99685 
L 235.854287 163.082747 
L 234.820503 165.501649 
L 232.799925 168.354713 
L 231.343228 173.068472 
L 229.22867 176.417721 
L 226.83217 181.255525 
L 225.751395 184.294659 
L 222.884993 188.07807 
L 221.381307 190.931135 
L 219.877621 192.41969 
L 217.716072 196.203101 
L 217.1052 196.203101 
L 215.413553 199.986512 
L 214.003847 201.785183 
L 211.607347 206.374895 
L 209.539778 210.778538 
L 208.318033 212.453163 
L 206.767357 215.058134 
L 205.780563 217.166921 
L 206.062504 220.578193 
L 204.605808 221.136402 
L 202.068337 223.67935 
L 201.692416 225.105882 
L 199.624847 228.331085 
L 198.074171 232.300566 
L 195.818641 235.15363 
L 195.39573 236.704209 
L 195.348739 239.371204 
L 195.066798 240.983805 
L 194.361945 242.782476 
L 193.563112 243.46473 
L 190.414769 247.930396 
L 185.9507 253.760571 
L 184.540995 254.194733 
L 182.802357 257.792075 
L 182.144495 258.598376 
L 180.499838 262.009648 
L 178.761201 266.227221 
L 177.257514 269.142309 
L 175.236936 273.856067 
L 174.203152 275.406645 
L 172.088593 280.058381 
L 171.571701 281.733005 
L 170.115005 283.841792 
L 169.410152 286.756879 
L 168.282387 288.059365 
L 166.49676 291.470637 
L 165.368995 294.013586 
L 164.429191 294.633817 
L 161.65677 297.983067 
L 159.683182 301.0222 
L 157.991535 304.061334 
L 156.722799 305.17775 
L 154.702221 309.209254 
L 153.527466 311.938272 
L 152.775623 313.116712 
L 152.164751 315.101452 
L 150.050192 319.257002 
L 149.439319 320.125326 
L 147.606702 324.032784 
L 146.384957 325.893478 
L 145.163212 328.560473 
L 142.954672 332.591976 
L 141.826908 336.065272 
L 139.759339 339.538568 
L 138.490604 340.903077 
L 136.892937 344.190303 
L 135.765173 345.864927 
L 135.10731 347.849668 
L 133.227702 350.950825 
L 131.536055 352.997588 
L 127.306938 360.068225 
L 126.320143 362.363081 
L 123.406751 368.007187 
L 121.809085 370.05395 
L 119.506565 370.922274 
L 118.942683 372.969038 
L 116.781134 374.705685 
L 114.478614 378.054935 
L 111.800173 382.768693 
L 110.108526 384.939503 
L 109.403673 386.366035 
L 110.578428 387.296382 
L 112.927938 388.598868 
L 117.016085 391.265863 
L 118.660742 392.01014 
L 119.741516 392.134187 
L 122.98384 394.242973 
L 123.547722 395.17332 
L 123.500732 396.661875 
L 122.842869 398.708639 
L 121.010251 401.127541 
L 119.271614 402.243958 
L 119.177634 403.422397 
L 120.916271 404.66286 
L 122.044036 404.910952 
L 120.211418 409.004479 
L 119.083653 412.849914 
L 117.157055 416.633325 
L 114.901526 420.168644 
L 113.726771 421.47113 
L 112.129105 423.890032 
L 110.108526 427.549397 
L 107.852997 430.464484 
L 106.725232 432.449225 
L 104.657664 434.123849 
L 100.569517 441.008417 
L 98.313987 443.737435 
L 94.272831 450.125818 
L 93.239046 451.428304 
L 91.73536 454.343392 
L 89.573811 458.06478 
L 88.868958 458.809057 
L 86.472458 463.2127 
L 82.290331 469.477037 
L 81.679459 470.593453 
L 81.162566 472.764263 
L 79.752861 474.811026 
L 78.390145 476.361605 
L 74.7719 481.385479 
L 72.751322 483.742358 
L 69.555988 488.208024 
L 66.548616 492.859759 
L 65.13891 495.402707 
L 63.118332 498.379818 
L 61.990567 500.79872 
L 59.594067 504.768201 
L 57.385528 509.419936 
L 56.633685 511.404676 
L 55.223979 512.645139 
L 53.814273 515.250111 
L 52.122626 517.048782 
L 50.71292 520.336008 
L 50.61894 521.638494 
L 49.256224 522.692887 
L 47.517587 525.732021 
L 45.77895 526.91046 
L 45.121087 528.771154 
L 43.47643 530.321733 
L 41.643813 534.167167 
L 40.750999 534.291213 
L 37.555666 533.050751 
L 35.864019 532.926704 
L 34.360333 533.422889 
L 31.30597 533.608959 
L 29.849274 533.919075 
L 25.808117 534.22919 
L 20.592205 535.097514 
L 21.015117 536.4 
L 23.834529 535.779769 
L 26.325009 535.469653 
L 27.640735 532.492542 
L 28.251607 529.515432 
L 29.332382 525.607974 
L 30.225195 524.181442 
L 30.648107 521.018262 
L 31.30597 519.901846 
L 31.728882 517.60699 
L 33.091597 513.699532 
L 35.535087 504.272016 
L 36.28693 500.426581 
L 36.427901 498.62791 
L 37.273725 496.581147 
L 40.328087 486.285306 
L 40.93896 481.447502 
L 41.596822 479.648831 
L 42.348666 478.656461 
L 42.771577 475.555304 
L 43.758371 474.438888 
L 45.543999 469.849175 
L 44.698175 468.298597 
L 44.557205 466.437903 
L 45.074097 463.026631 
L 46.248852 456.638248 
L 47.047685 449.195471 
L 47.752538 446.218361 
L 48.410401 440.388186 
L 49.726126 433.379572 
L 50.336999 431.394831 
L 51.370783 424.572286 
L 54.989028 398.646616 
L 55.787861 392.01014 
L 56.257763 386.428058 
L 56.304753 380.783953 
L 57.291548 372.100714 
L 57.714459 365.836377 
L 57.620479 363.789614 
L 57.90242 361.990943 
L 58.936204 362.114989 
L 61.379694 361.370711 
L 65.279881 360.688457 
L 68.193273 360.006202 
L 70.119871 359.013832 
L 72.187439 358.517647 
L 72.704331 357.339207 
L 73.409184 352.067241 
L 74.442969 347.601575 
L 74.959861 344.376372 
L 75.570733 342.887817 
L 75.664714 341.399262 
L 76.604518 337.61585 
L 76.792478 334.762786 
L 77.074419 333.770416 
L 77.21539 327.382033 
L 77.544321 322.730298 
L 77.1684 319.381048 
L 77.450341 317.458331 
L 80.128782 312.806596 
L 82.290331 308.775092 
L 83.700037 308.34093 
L 84.3579 306.170121 
L 85.391684 304.37145 
L 91.265458 307.596653 
L 98.360978 310.635786 
L 99.958644 307.596653 
L 99.958644 307.100468 
L 101.932232 304.061334 
L 101.791262 303.19301 
L 100.992429 302.448732 
L 97.985056 301.456362 
L 94.507782 299.347576 
L 90.513615 297.610928 
L 86.519449 295.440118 
L 79.188978 291.098499 
L 76.228596 289.796013 
L 75.899665 289.175781 
L 76.839468 286.57081 
L 78.343155 285.020231 
L 79.752861 282.477283 
L 80.128782 280.802658 
L 82.666253 276.709131 
L 85.391684 271.685257 
L 87.741194 267.653753 
L 88.774978 267.157568 
L 92.769144 269.390401 
L 95.870497 270.692887 
L 98.689909 272.243465 
L 101.603301 273.483928 
L 102.684076 274.538321 
L 110.672409 279.003987 
L 114.572595 281.670982 
L 118.23783 283.531676 
L 121.762095 285.516416 
L 124.158594 286.694856 
L 127.306938 288.493527 
L 128.293732 289.361851 
L 132.7578 291.71873 
L 134.731388 293.393355 
L 136.235075 293.951563 
L 141.920888 296.804627 
L 143.894476 291.470637 
L 147.23078 284.772139 
L 149.439319 281.857051 
L 150.943005 278.879941 
L 151.741839 277.887571 
L 154.702221 272.739651 
L 156.675809 268.956239 
L 157.568623 267.963869 
L 158.884348 265.420921 
L 160.106093 264.056412 
L 160.810946 262.629879 
L 162.361623 260.521093 
L 163.254436 255.745311 
L 164.288221 255.063057 
L 164.664142 253.264386 
L 165.368995 251.651784 
L 166.731711 250.101206 
L 165.979868 249.729067 
L 167.577534 247.124095 
L 168.094426 244.581147 
L 169.03423 243.092592 
L 170.208985 242.534383 
L 172.699466 240.115481 
L 175.659848 234.595422 
L 177.586446 232.300566 
L 179.513044 228.82727 
L 179.935956 226.222299 
L 181.486632 222.997096 
L 184.400024 219.5238 
L 184.822936 218.593453 
L 186.749534 216.732759 
L 187.219436 214.996111 
L 188.629142 211.894954 
L 188.770112 210.592469 
L 189.756906 208.359636 
L 191.448553 206.188826 
L 191.730494 203.955993 
L 192.576318 202.963623 
L 193.04622 200.978883 
L 194.643886 199.55235 
L 195.254759 197.009402 
L 196.241553 194.40443 
L 198.074171 191.489343 
L 199.671837 186.961654 
L 199.436886 185.597145 
L 203.008141 181.255525 
L 203.619014 179.76697 
L 205.310661 177.78223 
L 206.767357 176.913906 
L 208.646964 173.006448 
L 211.325406 169.719222 
L 211.842298 168.664829 
L 213.252004 166.928181 
L 214.614719 163.392862 
L 217.434131 158.865174 
L 218.326945 156.570317 
L 217.716072 154.895693 
L 216.588307 154.089392 
L 210.949484 151.360374 
L 206.767357 149.065518 
L 202.444259 145.964361 
L 195.912622 142.056904 
L 194.737867 140.568349 
L 193.939034 138.149446 
L 194.033014 137.157076 
L 196.476504 132.939503 
L 198.873004 128.101698 
L 202.491249 121.527246 
L 204.934739 117.681811 
L 205.028719 116.689441 
L 207.754151 112.409845 
L 209.163857 109.74285 
L 214.520739 100.377357 
L 215.413553 99.322963 
L 215.883454 97.896431 
L 217.763062 94.609205 
L 219.172768 91.508048 
L 221.193346 88.158799 
L 225.281493 80.343884 
L 226.268287 77.987005 
L 229.040709 73.583362 
L 231.81313 69.799951 
L 234.726523 63.907753 
L 235.478366 62.109082 
L 238.391758 58.015555 
L 240.788258 54.170121 
L 243.936601 47.905784 
L 244.829414 45.176766 
L 243.607669 44.184396 
L 241.493111 43.316072 
L 237.827875 41.455378 
L 235.995258 40.338961 
L 226.92615 35.377111 
L 221.804219 32.4 
L 221.804219 32.4 
" clip-path="url(#p835f19152d)" style="fill: none; stroke: #000000; stroke-width: 3"/>
   </g>
  </g>
 </g>
 <defs>
  <clipPath id="p835f19152d">
   <rect x="7.2" y="7.2" width="294.62852" height="554.4"/>
  </clipPath>
 </defs>
</svg>
