<?xml version="1.0" encoding="utf-8" standalone="no"?>
<!DOCTYPE svg PUBLIC "-//W3C//DTD SVG 1.1//EN"
  "http://www.w3.org/Graphics/SVG/1.1/DTD/svg11.dtd">
<svg xmlns:xlink="http://www.w3.org/1999/xlink" width="293.283329pt" height="568.8pt" viewBox="0 0 293.283329 568.8" xmlns="http://www.w3.org/2000/svg" version="1.1">
 <metadata>
  <rdf:RDF xmlns:dc="http://purl.org/dc/elements/1.1/" xmlns:cc="http://creativecommons.org/ns#" xmlns:rdf="http://www.w3.org/1999/02/22-rdf-syntax-ns#">
   <cc:Work>
    <dc:type rdf:resource="http://purl.org/dc/dcmitype/StillImage"/>
    <dc:date>2023-09-25T14:14:00.503058</dc:date>
    <dc:format>image/svg+xml</dc:format>
    <dc:creator>
     <cc:Agent>
      <dc:title>Matplotlib v3.6.2, https://matplotlib.org/</dc:title>
     </cc:Agent>
    </dc:creator>
   </cc:Work>
  </rdf:RDF>
 </metadata>
 <defs>
  <style type="text/css">*{stroke-linejoin: round; stroke-linecap: butt}</style>
 </defs>
 <g id="figure_1">
  <g id="patch_1">
   <path d="M 0 568.8 
L 293.283329 568.8 
L 293.283329 0 
L 0 0 
z
" style="fill: #ffffff"/>
  </g>
  <g id="axes_1">
   <g id="LineCollection_1">
    <path d="M 201.691072 104.348718 
L 205.459451 106.502564 
L 207.790407 108.194872 
L 209.072432 108.758974 
L 209.460925 108.605128 
L 210.7818 106.4 
L 211.053745 105.528205 
L 215.832204 107.271795 
L 217.852366 108.348718 
L 220.688362 111.117949 
L 221.85384 111.835897 
L 224.417892 112.451282 
L 229.740241 114.4 
L 231.838101 115.476923 
L 232.848182 116.451282 
L 233.430921 117.784615 
L 234.207906 121.271795 
L 235.06259 122.964103 
L 238.209381 125.989744 
L 239.452557 128.348718 
L 241.589267 130.810256 
L 241.628116 131.989744 
L 238.830969 137.220513 
L 238.053984 139.271795 
L 236.305767 142.605128 
L 234.285605 147.425641 
L 233.042429 149.989744 
L 232.304293 151.015385 
L 231.449609 152.861538 
L 230.86687 153.374359 
L 229.390598 155.784615 
L 228.18627 157.220513 
L 225.427973 162.348718 
L 224.301344 165.169231 
L 220.766061 170.65641 
L 218.318557 175.425641 
L 217.11423 178.861538 
L 213.850892 183.938462 
L 213.151605 185.630769 
L 211.519936 188.758974 
L 210.7818 189.066667 
L 209.616322 190.65641 
L 209.538624 191.374359 
L 207.09112 195.528205 
L 204.565918 200.348718 
L 203.711234 201.374359 
L 201.80762 205.220513 
L 200.059403 207.733333 
L 199.476664 208.861538 
L 197.650749 211.579487 
L 194.853602 217.015385 
L 190.890977 217.323077 
L 192.017605 221.887179 
L 191.706811 222.194872 
L 190.463635 227.220513 
L 189.686649 227.169231 
L 188.288076 229.015385 
L 187.54994 230.964103 
L 186.928352 231.528205 
L 186.345613 233.015385 
L 185.296683 234.451282 
L 184.519697 234.348718 
L 184.131205 235.117949 
L 183.159973 234.041026 
L 181.916797 234.861538 
L 181.800249 235.887179 
L 181.295208 236.092308 
L 180.518223 238.451282 
L 180.323977 240.4 
L 180.945565 241.835897 
L 180.867866 242.605128 
L 179.585841 243.989744 
L 178.498061 245.989744 
L 177.410282 248.810256 
L 177.216036 250.14359 
L 176.167105 251.220513 
L 174.923929 251.528205 
L 174.651984 253.066667 
L 173.83615 254.092308 
L 172.515275 256.246154 
L 172.010234 257.938462 
L 171.427495 259.015385 
L 171.039003 260.65641 
L 170.067771 261.989744 
L 169.174238 262.246154 
L 168.436102 262.964103 
L 166.493639 267.015385 
L 164.784271 272.502564 
L 163.929587 273.117949 
L 162.22022 276.348718 
L 161.287837 279.476923 
L 160.238907 280.65641 
L 159.500771 280.861538 
L 158.451841 283.271795 
L 157.597157 283.271795 
L 156.820172 286.041026 
L 155.693543 288.553846 
L 155.033106 289.425641 
L 154.80001 290.502564 
L 153.284889 292.194872 
L 152.546753 293.630769 
L 151.65322 294.605128 
L 150.992782 296.246154 
L 150.138098 297.630769 
L 150.332345 298.297436 
L 149.866154 299.528205 
L 149.089168 300.4 
L 148.506429 301.835897 
L 147.768293 302.502564 
L 146.758212 304.605128 
L 145.398488 308.605128 
L 144.660352 309.784615 
L 144.155312 311.835897 
L 142.989834 313.733333 
L 140.620029 316.092308 
L 138.561018 320.14359 
L 138.094826 321.887179 
L 137.162444 322.4 
L 136.618554 324.246154 
L 134.365297 327.579487 
L 133.937955 328.707692 
L 133.238668 329.528205 
L 131.840095 331.887179 
L 131.140808 332.297436 
L 130.402672 333.784615 
L 129.742235 335.938462 
L 127.255882 340.605128 
L 126.362349 342.707692 
L 124.342187 346.041026 
L 123.176709 347.374359 
L 121.428492 351.169231 
L 119.913371 353.579487 
L 119.058687 356.502564 
L 118.204003 357.271795 
L 117.116224 359.066667 
L 115.795349 360.451282 
L 114.746419 362.246154 
L 113.969433 363.169231 
L 112.842805 365.938462 
L 111.444231 368.810256 
L 110.744944 369.784615 
L 109.773713 371.938462 
L 108.685933 373.938462 
L 107.947797 375.682051 
L 106.665772 377.989744 
L 106.121882 378.4 
L 105.111801 380.14359 
L 104.64561 380.348718 
L 104.140569 382.14359 
L 103.324735 383.425641 
L 101.926161 383.323077 
L 100.644136 383.938462 
L 100.644136 385.066667 
L 101.149176 385.682051 
L 100.877231 386.4 
L 99.595205 387.220513 
L 98.973617 388.14359 
L 96.875757 390.553846 
L 94.972143 394.553846 
L 93.573569 396.553846 
L 89.84404 403.323077 
L 88.833959 404.65641 
L 86.774948 408.092308 
L 85.60947 409.476923 
L 84.133198 411.989744 
L 82.773474 413.784615 
L 81.802242 415.528205 
L 81.064106 416.4 
L 78.616603 420.707692 
L 78.422356 421.682051 
L 77.451125 422.605128 
L 73.760445 427.989744 
L 71.973378 429.784615 
L 71.429489 429.579487 
L 71.662584 430.707692 
L 72.323022 431.579487 
L 74.848224 434.092308 
L 76.169099 435.682051 
L 78.577753 437.528205 
L 79.199342 438.246154 
L 81.530298 440.041026 
L 84.133198 443.066667 
L 84.094349 443.887179 
L 82.46268 446.451282 
L 81.957639 446.861538 
L 78.616603 451.938462 
L 78.111562 453.066667 
L 76.984934 454.65641 
L 75.236717 457.887179 
L 72.983459 460.861538 
L 72.089926 462.65641 
L 70.807901 464.297436 
L 69.836669 466.041026 
L 68.243849 468.348718 
L 67.816507 470.14359 
L 66.145989 472.4 
L 64.669717 474.912821 
L 63.543088 476.4 
L 62.066816 478.810256 
L 60.27975 481.323077 
L 59.774709 482.605128 
L 56.977562 486.4 
L 56.433673 487.476923 
L 53.442279 491.579487 
L 53.170335 492.553846 
L 52.276801 494.14359 
L 51.888309 496.14359 
L 51.227871 497.579487 
L 49.984695 498.912821 
L 48.896915 500.861538 
L 47.61489 502.194872 
L 45.944371 505.323077 
L 45.633577 506.912821 
L 45.633577 508.810256 
L 45.011989 511.374359 
L 43.574566 510.707692 
L 43.030677 511.066667 
L 42.525636 512.246154 
L 40.971666 513.323077 
L 40.388927 515.630769 
L 39.883886 516.65641 
L 37.980272 518.4 
L 36.270905 519.374359 
L 34.444989 519.374359 
L 33.668004 519.835897 
L 31.76439 519.784615 
L 30.249269 519.528205 
L 28.928394 519.682051 
L 26.48089 519.323077 
L 25.198864 519.425641 
L 20.808897 520.194872 
L 19.876515 520.502564 
L 20.187309 521.476923 
L 21.430486 520.912821 
L 24.654974 520.502564 
L 25.198864 519.938462 
L 25.43196 518.14359 
L 27.568669 518.194872 
L 31.026254 517.938462 
L 36.076658 519.528205 
L 36.504 520.65641 
L 35.843563 525.835897 
L 35.921261 526.605128 
L 36.698246 529.015385 
L 37.747177 530.553846 
L 39.262298 531.015385 
L 41.7875 530.810256 
L 42.409088 533.579487 
L 44.390401 536.297436 
L 45.050838 536.4 
L 48.353026 535.476923 
L 51.30557 534.297436 
L 54.840853 533.271795 
L 57.210658 531.682051 
L 60.357448 528.605128 
L 61.600625 527.682051 
L 62.494158 526.553846 
L 64.51432 525.015385 
L 65.097059 523.989744 
L 67.039522 523.374359 
L 67.350316 521.835897 
L 69.215081 520.246154 
L 70.84675 518.553846 
L 71.584886 517.271795 
L 71.817981 515.989744 
L 73.100007 515.015385 
L 74.071239 513.835897 
L 76.479893 511.374359 
L 80.597915 508.964103 
L 82.501529 508.092308 
L 83.900103 507.066667 
L 82.773474 508.4 
L 83.861253 508.861538 
L 86.192209 507.733333 
L 86.425305 507.323077 
L 88.562014 506.4 
L 90.776422 504.861538 
L 93.340474 502.4 
L 95.865676 500.553846 
L 99.828301 498.194872 
L 114.008283 493.579487 
L 118.514797 493.066667 
L 119.44718 492.810256 
L 123.215558 492.297436 
L 128.071716 491.271795 
L 129.936481 490.451282 
L 130.791165 490.451282 
L 134.948036 489.733333 
L 135.375378 489.374359 
L 140.658878 488.65641 
L 142.562492 487.835897 
L 143.766819 488.092308 
L 145.165393 487.989744 
L 148.856073 487.015385 
L 150.837385 487.682051 
L 152.080562 488.502564 
L 151.536672 487.117949 
L 150.254646 476.605128 
L 150.410043 475.733333 
L 153.20719 475.425641 
L 154.333819 475.015385 
L 157.519459 474.758974 
L 161.015892 474.246154 
L 165.988598 473.271795 
L 166.493639 472.451282 
L 166.299392 471.117949 
L 165.87205 470.297436 
L 163.541095 468.605128 
L 163.579944 467.938462 
L 164.512326 465.784615 
L 165.36701 463.066667 
L 166.260543 461.271795 
L 167.076378 460.246154 
L 168.086459 457.323077 
L 169.718128 453.579487 
L 170.844756 450.14359 
L 172.903767 444.502564 
L 173.719602 442.861538 
L 174.185793 441.323077 
L 176.633297 436.348718 
L 179.158499 432.246154 
L 180.67362 429.374359 
L 181.683701 427.733333 
L 183.31537 424.4 
L 185.024738 421.784615 
L 185.95712 419.835897 
L 188.326925 415.733333 
L 189.453554 413.220513 
L 191.357168 409.938462 
L 191.823359 408.810256 
L 188.210377 406.65641 
L 186.850653 406.14359 
L 184.713944 404.861538 
L 183.470767 404.348718 
L 183.082275 405.374359 
L 182.732631 404.964103 
L 183.742712 402.502564 
L 184.480848 401.374359 
L 186.034819 397.425641 
L 185.607477 396.092308 
L 180.712469 393.323077 
L 177.837624 391.835897 
L 176.749844 391.425641 
L 175.312422 390.451282 
L 164.395778 384.297436 
L 160.782797 382.451282 
L 158.024499 380.861538 
L 151.847466 377.476923 
L 150.254646 376.758974 
L 146.36972 374.502564 
L 144.388407 373.528205 
L 141.125069 371.374359 
L 138.599867 370.14359 
L 135.219981 368.14359 
L 131.917793 366.502564 
L 130.907713 365.784615 
L 130.713466 363.323077 
L 130.830014 362.14359 
L 131.56815 361.117949 
L 133.005573 357.784615 
L 134.442996 355.528205 
L 134.559543 355.066667 
L 132.306286 353.887179 
L 130.441521 352.707692 
L 129.159496 352.246154 
L 127.87747 351.425641 
L 125.041474 350.14359 
L 122.360874 348.502564 
L 118.592496 346.861538 
L 117.776661 346.041026 
L 116.455786 345.220513 
L 114.591021 344.553846 
L 113.270146 343.784615 
L 109.734863 342.041026 
L 109.540617 341.169231 
L 110.395301 338.964103 
L 111.716176 336.502564 
L 112.920503 334.861538 
L 115.018363 330.912821 
L 116.416937 327.835897 
L 120.534959 320.4 
L 122.788216 317.271795 
L 123.254407 316.041026 
L 124.730679 313.066667 
L 125.468816 312.810256 
L 127.450128 308.553846 
L 128.537907 306.707692 
L 130.830014 302.4 
L 130.868863 301.938462 
L 132.228588 299.323077 
L 133.394065 296.297436 
L 133.471764 295.374359 
L 134.637242 292.502564 
L 135.841569 290.861538 
L 136.385459 289.476923 
L 137.550937 287.784615 
L 138.017128 286.502564 
L 138.716415 286.502564 
L 140.348084 283.835897 
L 141.824356 281.784615 
L 143.222929 280.246154 
L 143.028683 279.835897 
L 144.466106 276.605128 
L 144.660352 274.194872 
L 145.748132 273.887179 
L 146.253172 273.066667 
L 147.224404 272.451282 
L 147.96254 270.605128 
L 149.050319 268.451282 
L 149.633058 267.938462 
L 151.497823 264.810256 
L 152.663301 261.784615 
L 155.305051 257.066667 
L 155.421598 256.246154 
L 156.470528 253.015385 
L 157.169815 252.4 
L 158.529539 249.066667 
L 158.879183 247.887179 
L 159.733867 246.65641 
L 160.277756 244.758974 
L 161.093591 244.194872 
L 161.792878 243.169231 
L 162.453315 241.323077 
L 163.424547 239.989744 
L 164.240381 237.938462 
L 166.027447 235.015385 
L 166.338242 233.374359 
L 167.736815 231.015385 
L 168.474951 230.861538 
L 169.873525 228.4 
L 170.611661 227.476923 
L 171.310947 225.476923 
L 173.175712 222.297436 
L 173.991547 221.374359 
L 174.768532 219.733333 
L 175.195874 217.323077 
L 175.817462 215.989744 
L 177.52683 213.682051 
L 179.430444 211.374359 
L 180.945565 208.4 
L 181.916797 207.374359 
L 182.965727 204.861538 
L 183.665014 204.912821 
L 184.170054 204.194872 
L 183.393069 202.707692 
L 181.683701 201.476923 
L 181.023264 200.092308 
L 181.062113 198.758974 
L 181.839098 197.682051 
L 183.276521 196.707692 
L 184.170054 195.784615 
L 185.801723 192.4 
L 186.928352 189.784615 
L 187.860734 188.041026 
L 189.181609 186.194872 
L 190.347087 185.169231 
L 191.939907 184.297436 
L 193.843521 183.938462 
L 194.659355 184.041026 
L 196.329874 184.810256 
L 197.689598 185.835897 
L 199.476664 186.041026 
L 200.991785 185.476923 
L 202.273811 184.707692 
L 203.283892 183.579487 
L 204.060877 182.14359 
L 204.721315 180.297436 
L 205.964491 178.4 
L 206.935723 177.682051 
L 209.655171 176.092308 
L 211.053745 174.553846 
L 211.675333 173.579487 
L 212.335771 171.887179 
L 213.035057 168.502564 
L 212.840811 167.323077 
L 211.869579 165.117949 
L 211.597635 164.041026 
L 211.83073 161.989744 
L 212.87966 160.14359 
L 214.511329 158.348718 
L 215.676807 157.374359 
L 217.696969 156.194872 
L 218.551653 155.323077 
L 219.017844 153.630769 
L 218.940146 151.374359 
L 219.639432 149.323077 
L 220.261021 146.348718 
L 221.309951 143.630769 
L 223.019318 140.246154 
L 223.99055 138.912821 
L 225.544521 137.425641 
L 227.020793 135.733333 
L 228.341668 133.528205 
L 229.77909 130.246154 
L 231.488458 127.374359 
L 232.848182 125.938462 
L 235.06259 124.758974 
L 238.053984 123.938462 
L 241.744664 124.553846 
L 244.153318 123.938462 
L 245.62959 122.297436 
L 246.561973 120.246154 
L 248.310189 116.964103 
L 252.972101 108.451282 
L 253.710237 106.810256 
L 255.6527 103.733333 
L 258.139053 99.015385 
L 258.916039 96.861538 
L 259.071436 94.65641 
L 258.916039 92.502564 
L 259.498778 89.733333 
L 259.421079 87.989744 
L 258.566395 86.041026 
L 257.556314 84.605128 
L 257.400917 82.964103 
L 257.750561 81.528205 
L 258.527546 79.938462 
L 260.9362 76.4 
L 262.917513 74.092308 
L 265.675811 71.169231 
L 266.76359 69.220513 
L 266.918987 67.425641 
L 266.685891 65.630769 
L 266.724741 64.041026 
L 267.346329 60.092308 
L 267.657123 58.964103 
L 268.550656 57.220513 
L 270.182325 55.528205 
L 272.280186 54.451282 
L 273.173719 53.528205 
L 273.406814 52.14359 
L 272.979472 51.323077 
L 272.163638 50.707692 
L 271.114708 50.553846 
L 269.133395 51.323077 
L 267.385178 52.65641 
L 266.530494 52.964103 
L 264.471483 52.4 
L 263.888744 51.733333 
L 263.733347 50.348718 
L 264.432634 48.912821 
L 266.802439 46.246154 
L 268.123314 44.348718 
L 269.133395 41.579487 
L 269.483039 39.220513 
L 268.511807 37.374359 
L 264.976524 34.553846 
L 263.228307 33.784615 
L 260.9362 33.169231 
L 258.83834 33.015385 
L 255.69155 32.4 
L 254.64262 32.810256 
L 253.477142 34.194872 
L 253.166347 35.374359 
L 253.515991 37.630769 
L 254.60377 38.605128 
L 257.517465 39.784615 
L 258.3333 40.605128 
L 258.954888 42.348718 
L 259.110285 44.605128 
L 259.731873 46.65641 
L 259.731873 48.758974 
L 259.421079 49.630769 
L 258.061355 51.579487 
L 256.429686 52.861538 
L 252.739006 54.348718 
L 251.884322 54.861538 
L 250.757693 56.041026 
L 249.669914 58.912821 
L 248.776381 59.887179 
L 246.639671 60.964103 
L 243.065539 62.502564 
L 241.39502 64.14359 
L 238.79212 69.066667 
L 237.626642 72.451282 
L 235.878425 75.169231 
L 232.653936 77.169231 
L 231.449609 78.707692 
L 230.86687 80.912821 
L 231.022267 83.733333 
L 230.905719 84.861538 
L 229.740241 86.964103 
L 228.885557 87.733333 
L 225.389123 89.066667 
L 223.679756 90.194872 
L 221.89269 91.630769 
L 220.338719 93.476923 
L 218.590502 96.605128 
L 217.968914 99.271795 
L 218.318557 102.297436 
L 219.561734 106.092308 
L 219.794829 107.784615 
L 219.484035 109.323077 
L 218.70705 110.861538 
L 217.11423 113.323077 
L 214.783274 115.630769 
L 212.413469 117.374359 
L 211.170293 119.015385 
L 210.704102 120.758974 
L 210.859499 124.348718 
L 210.548704 126.65641 
L 209.616322 128.4 
L 208.528543 129.630769 
L 205.575999 132.092308 
L 203.672385 133.938462 
L 202.623455 135.169231 
L 200.75869 137.835897 
L 198.932774 139.682051 
L 195.358642 142.246154 
L 193.183083 144.605128 
L 190.852127 148.65641 
L 189.103911 151.323077 
L 188.249227 152.246154 
L 187.433392 152.65641 
L 186.034819 152.194872 
L 182.072194 149.887179 
L 178.03187 147.938462 
L 174.457738 146.041026 
L 174.185793 145.528205 
L 172.010234 144.4 
L 170.028922 143.066667 
L 163.657642 139.784615 
L 163.385698 138.810256 
L 164.512326 136.246154 
L 164.590025 135.630769 
L 163.657642 135.015385 
L 163.424547 134.14359 
L 164.395778 127.835897 
L 165.172764 124.14359 
L 165.600106 123.323077 
L 166.066297 121.117949 
L 167.659117 117.323077 
L 169.60158 113.989744 
L 172.359878 108.605128 
L 175.428969 103.528205 
L 176.633297 103.476923 
L 178.148418 104.14359 
L 181.683701 106.092308 
L 182.732631 103.733333 
L 183.276521 103.220513 
L 184.092355 103.425641 
L 185.95712 104.605128 
L 185.95712 104.605128 
" clip-path="url(#p7531f34d19)" style="fill: none; stroke: #000000; stroke-width: 3"/>
   </g>
  </g>
 </g>
 <defs>
  <clipPath id="p7531f34d19">
   <rect x="7.2" y="7.2" width="278.883329" height="554.4"/>
  </clipPath>
 </defs>
</svg>
