<?xml version="1.0" encoding="utf-8" standalone="no"?>
<!DOCTYPE svg PUBLIC "-//W3C//DTD SVG 1.1//EN"
  "http://www.w3.org/Graphics/SVG/1.1/DTD/svg11.dtd">
<svg xmlns:xlink="http://www.w3.org/1999/xlink" width="281.462596pt" height="568.8pt" viewBox="0 0 281.462596 568.8" xmlns="http://www.w3.org/2000/svg" version="1.1">
 <metadata>
  <rdf:RDF xmlns:dc="http://purl.org/dc/elements/1.1/" xmlns:cc="http://creativecommons.org/ns#" xmlns:rdf="http://www.w3.org/1999/02/22-rdf-syntax-ns#">
   <cc:Work>
    <dc:type rdf:resource="http://purl.org/dc/dcmitype/StillImage"/>
    <dc:date>2023-09-25T14:14:00.000136</dc:date>
    <dc:format>image/svg+xml</dc:format>
    <dc:creator>
     <cc:Agent>
      <dc:title>Matplotlib v3.6.2, https://matplotlib.org/</dc:title>
     </cc:Agent>
    </dc:creator>
   </cc:Work>
  </rdf:RDF>
 </metadata>
 <defs>
  <style type="text/css">*{stroke-linejoin: round; stroke-linecap: butt}</style>
 </defs>
 <g id="figure_1">
  <g id="patch_1">
   <path d="M 0 568.8 
L 281.462596 568.8 
L 281.462596 0 
L 0 0 
z
" style="fill: #ffffff"/>
  </g>
  <g id="axes_1">
   <g id="LineCollection_1">
    <path d="M 195.57812 34.675 
L 199.621209 37.2125 
L 204.128259 40.3625 
L 206.381784 41.15 
L 207.508546 39.75 
L 209.496951 35.8125 
L 212.545837 36.075 
L 218.709891 38.7875 
L 222.6867 41.15 
L 225.205345 43.425 
L 227.06119 44.5625 
L 237.069492 48.675 
L 242.570744 51.125 
L 246.083592 53.575 
L 247.806876 57.075 
L 248.933638 62.5875 
L 250.192961 65.5625 
L 256.025614 71.075 
L 258.61054 74.925 
L 261.858267 78.5125 
L 262.123387 80.9625 
L 259.207061 86.5625 
L 255.031412 93.0375 
L 252.645326 97.325 
L 246.945234 108.525 
L 243.432386 114.0375 
L 239.985818 121.0375 
L 238.196254 125.0625 
L 232.761282 134.3375 
L 229.977516 139.7625 
L 227.723991 143.35 
L 225.536746 147.725 
L 224.542544 148.425 
L 222.156459 152.3625 
L 221.294817 155.775 
L 218.04709 161.375 
L 216.456366 164.875 
L 215.130763 166.625 
L 213.274919 170.125 
L 210.557433 176.1625 
L 209.16555 178.175 
L 204.989901 185.35 
L 202.338695 189.55 
L 200.880531 192.7 
L 195.71068 202.15 
L 194.517637 205.475 
L 193.258315 207.4 
L 191.07107 212.125 
L 188.221023 215.625 
L 185.901218 219.475 
L 185.105857 221.75 
L 180.863927 229.45 
L 180.002285 233.5625 
L 177.68248 235.6625 
L 175.694076 238.9 
L 174.434753 243.275 
L 172.97659 245.025 
L 169.993983 254.125 
L 167.939298 256.3125 
L 165.221812 262.875 
L 161.775245 266.375 
L 159.853121 266.9875 
L 158.063557 270.3125 
L 156.605393 272.325 
L 152.098343 281.3375 
L 150.77274 283.2625 
L 149.314577 286.5 
L 148.121534 286.325 
L 145.868009 290.7 
L 146.464531 292.625 
L 145.072648 296.125 
L 142.620282 299.1 
L 141.957481 301.8125 
L 140.234197 303.65 
L 138.709754 306.275 
L 135.263186 310.3 
L 134.401544 312.8375 
L 131.816618 317.5625 
L 128.701451 323.8625 
L 127.707249 328.15 
L 126.116526 330.425 
L 122.471118 337.425 
L 121.476915 341.1 
L 118.626869 343.025 
L 115.975663 346.875 
L 113.788418 351.6 
L 112.131415 353 
L 110.01045 357.375 
L 108.287166 360.2625 
L 107.027843 363.4125 
L 106.762723 365.6 
L 105.43712 367.2625 
L 103.978957 371.025 
L 102.520793 372.1625 
L 99.471907 376.975 
L 97.152101 382.4 
L 93.705534 388.0875 
L 92.18109 391.7625 
L 90.855488 393.3375 
L 89.795005 395.525 
L 89.397324 397.5375 
L 86.812399 401.9125 
L 85.155395 403.575 
L 84.094913 406.2875 
L 80.714625 409.6125 
L 79.256462 413.375 
L 77.732018 415.3875 
L 73.026128 423.175 
L 71.700525 426.7625 
L 69.977241 430.175 
L 68.651638 432.1 
L 62.355024 444.2625 
L 59.968939 448.1125 
L 58.709616 450.9125 
L 56.721212 453.5375 
L 54.799088 457.5625 
L 53.407204 461.4125 
L 52.280442 462.375 
L 49.430396 467.8875 
L 48.833874 468.0625 
L 46.71291 472.9625 
L 45.453587 473.8375 
L 43.995424 476.55 
L 42.007019 481.3625 
L 40.151175 483.4625 
L 37.566249 489.15 
L 35.246444 492.65 
L 33.589441 495.8875 
L 32.330118 499.7375 
L 31.004515 500.9625 
L 29.281231 504.9875 
L 27.823068 506.7375 
L 26.762585 508.8375 
L 25.503263 509.8 
L 23.316018 510.0625 
L 21.659014 511.9875 
L 22.122975 513.5625 
L 21.327613 514.9625 
L 19.339209 516.1875 
L 23.448578 519.075 
L 28.94983 522.05 
L 31.866157 524.5875 
L 32.528958 525.6375 
L 36.704607 527.5625 
L 38.427891 529.05 
L 41.277938 530.5375 
L 49.562956 536.4 
L 52.678123 536.225 
L 54.666527 532.025 
L 58.113095 527.65 
L 58.775896 525.6375 
L 61.161982 521.35 
L 63.415507 518.6375 
L 65.602752 516.7125 
L 68.055117 513.0375 
L 68.253957 510.7625 
L 69.910961 506.475 
L 71.170284 500 
L 71.567965 496.675 
L 73.224968 489.5 
L 73.291249 487.1375 
L 74.02033 484.1625 
L 73.224968 480.575 
L 71.965646 479.525 
L 68.717918 475.4125 
L 70.242362 474.5375 
L 71.369124 472.7875 
L 72.694727 472 
L 74.418011 469.9875 
L 78.26226 463.8625 
L 81.708827 457.3875 
L 81.907668 455.55 
L 83.896072 452.6625 
L 85.420515 449.3375 
L 87.27636 447.4125 
L 89.463604 442.775 
L 91.584569 440.15 
L 93.904374 438.8375 
L 94.036935 436.475 
L 93.639254 432.3625 
L 94.699736 430.7 
L 97.947463 427.6375 
L 100.333549 424.575 
L 100.532389 422.125 
L 103.117315 420.375 
L 102.918474 418.8875 
L 104.442918 415.825 
L 106.431322 415.5625 
L 106.630162 411.8875 
L 109.016248 406.9 
L 111.070932 404.625 
L 111.468613 402.2625 
L 113.987259 399.375 
L 116.174504 394.9125 
L 118.295468 394.2125 
L 119.621071 394.65 
L 118.759429 390.975 
L 118.494309 388.175 
L 119.554791 385.55 
L 122.404837 381.2625 
L 123.995561 376.7125 
L 126.514207 374.35 
L 127.90609 372.425 
L 129.430533 371.4625 
L 130.093335 369.275 
L 132.148019 366.825 
L 133.738743 363.7625 
L 134.998065 360.4375 
L 137.450431 355.625 
L 139.173715 353.4375 
L 142.222601 347.6625 
L 144.608687 344.075 
L 146.00057 338.9125 
L 147.657573 335.4125 
L 150.308779 332.175 
L 151.236701 328.675 
L 154.94839 324.2125 
L 156.075152 323.6 
L 157.732156 320.1875 
L 159.78684 317.5625 
L 162.172926 315.725 
L 163.498529 313.8 
L 165.685773 311.7875 
L 165.486933 308.4625 
L 170.126543 296.9125 
L 170.391664 293.0625 
L 172.313788 289.65 
L 173.10915 288.95 
L 173.573111 286.85 
L 172.048668 285.5375 
L 170.457944 282.65 
L 166.746256 280.6375 
L 165.354373 280.725 
L 163.034568 279.0625 
L 159.588 275.7375 
L 156.472833 274.075 
L 155.21351 274.8625 
L 153.821627 274.775 
L 152.893705 273.725 
L 147.988974 271.1875 
L 144.807527 269 
L 139.703956 266.1125 
L 136.456229 262.175 
L 134.534104 261.475 
L 134.136423 258.9375 
L 134.600385 257.275 
L 134.732945 253.775 
L 134.268984 253.25 
L 135.925987 248.7 
L 135.793427 246.3375 
L 137.11903 245.725 
L 138.046952 242.3125 
L 140.830718 240.2125 
L 144.343566 236.7125 
L 145.735449 234.175 
L 149.447137 228.75 
L 150.176219 227.2625 
L 153.225106 223.7625 
L 154.086748 221.8375 
L 157.665876 217.375 
L 160.979883 210.375 
L 162.305486 208.975 
L 162.504326 206.7875 
L 161.907805 205.7375 
L 153.357666 200.6625 
L 146.597091 197.5125 
L 141.5598 194.975 
L 136.98647 192.0875 
L 134.136423 190.775 
L 130.027054 188.2375 
L 129.629373 187.275 
L 129.629373 184.3 
L 128.834012 181.4125 
L 129.165412 179.8375 
L 131.551498 174.15 
L 133.208501 172.05 
L 135.462026 170.825 
L 135.925987 168.55 
L 138.510913 164.35 
L 147.259893 148.1625 
L 148.055254 145.8 
L 152.694865 138.1875 
L 157.135634 129.875 
L 163.365968 119.55 
L 166.017174 116.4 
L 167.077657 113.6 
L 173.440551 100.825 
L 175.097554 98.55 
L 179.008083 91.2 
L 180.267406 89.275 
L 187.094261 77.025 
L 191.20363 69.15 
L 193.457155 65.2125 
L 196.439762 61.7125 
L 197.367684 59.7875 
L 199.024687 53.925 
L 199.289808 51.9125 
L 198.693287 50.95 
L 193.457155 48.2375 
L 190.607109 46.3125 
L 186.033779 43.8625 
L 183.250012 42.1125 
L 177.88132 39.575 
L 174.699873 38.4375 
L 166.547415 33.275 
L 165.553213 32.4 
L 165.553213 32.4 
" clip-path="url(#pae5cfce8e7)" style="fill: none; stroke: #000000; stroke-width: 3"/>
   </g>
  </g>
 </g>
 <defs>
  <clipPath id="pae5cfce8e7">
   <rect x="7.2" y="7.2" width="267.062596" height="554.4"/>
  </clipPath>
 </defs>
</svg>
