<?xml version="1.0" encoding="utf-8" standalone="no"?>
<!DOCTYPE svg PUBLIC "-//W3C//DTD SVG 1.1//EN"
  "http://www.w3.org/Graphics/SVG/1.1/DTD/svg11.dtd">
<svg xmlns:xlink="http://www.w3.org/1999/xlink" width="291.386532pt" height="568.8pt" viewBox="0 0 291.386532 568.8" xmlns="http://www.w3.org/2000/svg" version="1.1">
 <metadata>
  <rdf:RDF xmlns:dc="http://purl.org/dc/elements/1.1/" xmlns:cc="http://creativecommons.org/ns#" xmlns:rdf="http://www.w3.org/1999/02/22-rdf-syntax-ns#">
   <cc:Work>
    <dc:type rdf:resource="http://purl.org/dc/dcmitype/StillImage"/>
    <dc:date>2023-09-25T14:13:59.753030</dc:date>
    <dc:format>image/svg+xml</dc:format>
    <dc:creator>
     <cc:Agent>
      <dc:title>Matplotlib v3.6.2, https://matplotlib.org/</dc:title>
     </cc:Agent>
    </dc:creator>
   </cc:Work>
  </rdf:RDF>
 </metadata>
 <defs>
  <style type="text/css">*{stroke-linejoin: round; stroke-linecap: butt}</style>
 </defs>
 <g id="figure_1">
  <g id="patch_1">
   <path d="M 0 568.8 
L 291.386532 568.8 
L 291.386532 0 
L 0 0 
z
" style="fill: #ffffff"/>
  </g>
  <g id="axes_1">
   <g id="LineCollection_1">
    <path d="M 232.199291 34.055676 
L 231.455953 35.098138 
L 229.411772 38.83874 
L 227.878636 41.291593 
L 226.670711 43.989731 
L 224.812364 47.485047 
L 221.002754 54.10775 
L 219.144408 56.928531 
L 216.217512 62.324808 
L 214.266249 65.268232 
L 209.759759 73.730575 
L 202.883877 85.749556 
L 191.455046 106.782772 
L 190.572332 108.07052 
L 188.295858 112.976226 
L 188.110023 114.693223 
L 188.295858 118.065896 
L 188.667527 119.414965 
L 188.481692 121.622533 
L 187.87773 121.867818 
L 187.831271 123.952744 
L 188.342316 125.17917 
L 187.924188 127.877309 
L 188.110023 129.716949 
L 187.924188 131.61791 
L 188.295858 134.316048 
L 188.342316 136.278331 
L 187.87773 138.240613 
L 188.063564 139.712325 
L 188.992737 141.30668 
L 191.129836 143.391605 
L 191.594422 144.250103 
L 191.129836 147.009563 
L 190.29358 150.5662 
L 189.921911 153.816231 
L 189.410865 155.287943 
L 188.89982 157.92476 
L 187.691895 161.481397 
L 187.273767 164.424821 
L 186.902098 165.467283 
L 183.882285 170.986203 
L 184.625623 170.066383 
L 186.112301 171.415452 
L 185.740631 175.156053 
L 183.835826 178.406083 
L 182.581442 180.981579 
L 182.256232 182.514612 
L 182.116856 185.335394 
L 181.187683 187.726925 
L 177.656824 192.387346 
L 176.959944 192.57131 
L 174.962222 195.392091 
L 174.404718 198.826086 
L 174.497635 199.561942 
L 173.103876 202.137438 
L 170.920319 206.920501 
L 170.084063 210.293174 
L 168.504468 214.892274 
L 167.06425 217.099842 
L 165.020069 219.368731 
L 160.699413 227.217861 
L 158.74815 229.793357 
L 157.818976 232.430174 
L 156.65751 234.147171 
L 155.077915 237.151916 
L 153.312486 239.911376 
L 153.080193 241.260445 
L 151.128929 245.307653 
L 150.710801 245.552938 
L 147.876823 249.78411 
L 146.622439 251.255822 
L 145.460973 253.892639 
L 144.671176 255.119066 
L 143.509709 255.7936 
L 142.023032 259.656844 
L 140.071768 262.477625 
L 139.374888 264.194622 
L 138.074046 265.727655 
L 136.633827 267.935223 
L 135.100692 272.595644 
L 134.496729 271.859788 
L 132.452548 270.817326 
L 130.826495 270.510719 
L 128.550021 269.406935 
L 126.83105 267.751259 
L 125.901877 267.505974 
L 124.04353 266.279547 
L 121.999349 265.850298 
L 121.348928 266.708797 
L 120.373296 266.708797 
L 120.187462 267.383331 
L 121.767056 268.303151 
L 122.231643 269.222971 
L 125.158538 271.123932 
L 125.901877 272.105074 
L 127.156261 272.534323 
L 132.266713 275.416425 
L 134.264436 275.784353 
L 135.704654 277.501351 
L 137.655918 278.666456 
L 138.445715 278.789098 
L 139.049678 279.831561 
L 140.489896 281.364594 
L 141.279693 281.241952 
L 143.13804 281.916486 
L 144.392424 282.897627 
L 145.507431 282.836306 
L 146.018477 283.572162 
L 147.412237 284.185375 
L 151.500599 283.694805 
L 152.801441 285.166517 
L 153.451862 287.19012 
L 154.56687 288.355226 
L 156.750427 289.45901 
L 158.562315 289.152403 
L 160.281285 290.992043 
L 159.44503 293.812824 
L 156.65751 299.086458 
L 156.100006 299.883635 
L 154.93854 302.949702 
L 152.987276 305.954447 
L 151.918727 308.345979 
L 151.082471 309.633727 
L 149.03829 313.49697 
L 148.620162 314.784718 
L 146.297229 319.567782 
L 144.299506 323.247062 
L 143.277416 324.718774 
L 140.257603 330.605621 
L 136.262158 337.718895 
L 134.310894 340.539676 
L 133.195887 342.931208 
L 132.080879 344.709527 
L 131.941503 345.568025 
L 134.496729 347.468986 
L 136.401534 348.0822 
L 137.516542 348.0822 
L 138.492174 349.00202 
L 139.793016 349.49259 
L 142.394701 352.129407 
L 143.742002 352.619978 
L 146.808274 355.318117 
L 146.854733 356.667186 
L 146.343687 359.917216 
L 146.111394 363.228568 
L 144.764093 365.742742 
L 142.905747 368.624845 
L 141.511987 371.322983 
L 140.071768 373.039981 
L 138.63155 375.492834 
L 136.680286 377.577759 
L 134.357353 381.257039 
L 132.499007 384.629712 
L 129.014607 389.474097 
L 127.481471 392.294878 
L 126.273546 393.827911 
L 124.972704 396.710013 
L 122.371019 401.493077 
L 119.444123 405.78557 
L 118.700785 406.521426 
L 116.377852 410.078063 
L 112.661159 416.148875 
L 111.871361 416.823409 
L 108.247586 423.262149 
L 106.621533 424.488575 
L 103.694637 428.965032 
L 103.090675 430.314101 
L 100.767742 433.809417 
L 99.327523 436.26227 
L 96.214793 440.738727 
L 93.984777 444.418007 
L 92.312266 446.87086 
L 91.615386 448.281251 
L 88.177445 453.80017 
L 86.504933 456.191702 
L 84.646587 459.625697 
L 83.392203 461.342694 
L 83.066992 461.281372 
L 82.044902 463.672904 
L 81.255104 466.371043 
L 79.721969 469.682394 
L 75.726524 475.01735 
L 74.843809 475.691885 
L 73.07838 478.144738 
L 72.335042 478.819272 
L 69.593981 482.743837 
L 67.271048 486.423117 
L 66.434792 488.078793 
L 64.437069 490.041076 
L 63.461438 492.677893 
L 60.859753 496.602458 
L 59.791203 498.932668 
L 58.53682 500.40438 
L 57.235977 503.409125 
L 56.120969 504.57423 
L 54.35554 505.739336 
L 52.590111 508.192189 
L 51.196351 511.748826 
L 50.592389 514.079036 
L 49.616757 515.673391 
L 47.990704 516.593211 
L 45.900064 518.739457 
L 45.110267 520.579097 
L 43.530672 523.215914 
L 42.55504 526.956515 
L 41.765243 528.366906 
L 39.210017 528.734834 
L 36.236663 528.305585 
L 34.053106 528.489549 
L 33.263308 529.225405 
L 29.453698 529.715975 
L 26.480344 529.838618 
L 19.790297 530.819759 
L 20.161966 531.984864 
L 21.091139 532.046186 
L 23.414072 531.555615 
L 24.482622 531.862222 
L 25.644088 531.555615 
L 26.201592 530.88108 
L 26.712637 528.796155 
L 27.130765 528.428227 
L 30.754541 528.612191 
L 34.006647 528.428227 
L 38.373761 529.409369 
L 39.674603 530.451831 
L 39.721062 531.187687 
L 39.163558 535.725465 
L 43.902342 535.970751 
L 45.249643 535.48018 
L 47.75841 535.296216 
L 50.360095 535.725465 
L 51.800314 536.4 
L 51.335727 534.253753 
L 52.125524 531.739579 
L 52.915322 531.616936 
L 53.565743 532.414114 
L 55.05242 531.923543 
L 56.44618 529.225405 
L 56.724932 528.244263 
L 58.722654 524.87159 
L 59.280158 522.847986 
L 60.395166 520.517776 
L 61.835384 519.107385 
L 63.275603 516.961139 
L 64.576445 515.673391 
L 65.598536 515.366784 
L 66.063123 514.017715 
L 67.87501 511.626183 
L 66.992296 511.135613 
L 66.667085 510.154471 
L 67.363965 508.805402 
L 66.15604 507.456333 
L 66.574168 506.168585 
L 68.711266 502.979876 
L 70.801906 500.588344 
L 72.706711 498.135491 
L 77.306118 495.253388 
L 78.792795 493.47507 
L 78.885713 492.739214 
L 77.213201 490.470325 
L 76.934449 488.814649 
L 77.538412 487.95615 
L 77.166742 487.097652 
L 74.750892 486.116511 
L 76.795073 484.890084 
L 77.724246 484.890084 
L 78.235291 484.092907 
L 82.137819 482.682516 
L 85.111173 479.984378 
L 86.644309 477.408882 
L 88.223903 476.734347 
L 90.08225 474.220173 
L 92.637476 471.828641 
L 94.402905 468.394647 
L 96.30771 464.347439 
L 98.166057 461.342694 
L 100.070862 457.663414 
L 102.254419 454.106777 
L 102.347336 453.3096 
L 103.926931 449.936927 
L 107.364871 444.724614 
L 110.245308 440.002871 
L 111.964279 437.488697 
L 113.218663 435.097165 
L 115.03055 432.705633 
L 116.842438 429.884852 
L 117.399942 426.818786 
L 119.258288 420.441368 
L 120.187462 417.927193 
L 120.791424 415.47434 
L 121.534763 413.696021 
L 123.857696 409.832778 
L 124.601034 407.809174 
L 125.716042 406.337462 
L 127.016885 404.068573 
L 128.364186 402.658182 
L 129.804404 399.837401 
L 133.614014 393.33734 
L 134.868398 390.884487 
L 137.051955 387.32785 
L 139.607182 383.464606 
L 141.558445 380.091933 
L 142.44116 379.049471 
L 143.788461 376.71926 
L 145.275138 374.634335 
L 147.412237 372.54941 
L 149.131207 369.360701 
L 150.339132 365.129529 
L 150.75726 362.124784 
L 151.268305 359.855895 
L 152.522689 352.497335 
L 152.662065 347.223701 
L 152.058103 342.440638 
L 155.403126 337.167003 
L 156.796886 334.346222 
L 157.911894 332.690546 
L 159.026902 330.176372 
L 160.885248 327.110305 
L 162.093173 324.10556 
L 163.25464 322.020635 
L 163.57985 320.426281 
L 164.323189 319.690425 
L 165.391738 317.360214 
L 165.67049 316.072466 
L 166.646122 314.478112 
L 167.06425 313.190364 
L 168.504468 312.638472 
L 169.712393 310.982796 
L 170.920319 307.671444 
L 171.89595 306.138411 
L 175.055139 299.331744 
L 177.238696 297.614746 
L 178.632456 295.284536 
L 178.911208 293.62886 
L 179.840381 292.586397 
L 177.842659 291.666577 
L 180.258509 289.826938 
L 180.955389 288.661832 
L 183.464157 286.270301 
L 185.276045 283.817447 
L 186.391052 280.567417 
L 189.039196 276.458888 
L 189.457324 274.864533 
L 187.970647 274.557927 
L 188.017106 273.822071 
L 190.386497 269.897506 
L 191.269212 269.774863 
L 194.010273 266.708797 
L 195.264657 264.746514 
L 196.286747 262.600268 
L 198.470304 258.614381 
L 201.536576 253.831318 
L 204.50993 248.312398 
L 206.461194 243.284049 
L 209.341631 238.439664 
L 210.549556 238.68495 
L 211.385812 236.354739 
L 212.036233 235.864168 
L 213.662286 233.533958 
L 216.775016 231.939603 
L 217.611272 231.081105 
L 218.586904 229.118822 
L 217.750648 228.321645 
L 218.493987 220.7178 
L 218.865656 219.246088 
L 220.305874 217.651734 
L 221.281506 214.892274 
L 222.53589 212.316778 
L 223.093394 211.94885 
L 223.92965 209.61864 
L 224.719447 208.882784 
L 225.741538 206.245967 
L 229.272396 200.665726 
L 230.85199 197.231731 
L 230.573238 196.863803 
L 232.24575 193.552452 
L 234.104097 190.731671 
L 234.475766 188.524103 
L 235.35848 187.849568 
L 236.705782 185.15143 
L 238.796421 183.679718 
L 241.026437 180.000438 
L 241.491024 178.038155 
L 243.34937 173.62302 
L 245.44001 171.292809 
L 246.694393 169.085242 
L 249.714206 165.712568 
L 251.061508 162.707823 
L 252.36235 160.622898 
L 254.545907 156.57569 
L 255.939667 154.306801 
L 257.519261 151.118092 
L 260.028029 146.580314 
L 261.746999 144.679353 
L 264.85973 138.485899 
L 267.879543 133.825478 
L 270.481227 128.797129 
L 271.363942 127.386738 
L 271.596235 125.915026 
L 269.412678 124.565957 
L 264.209308 122.051782 
L 261.282413 120.212143 
L 257.519261 118.617788 
L 255.893208 119.108359 
L 254.871118 120.457428 
L 252.315891 125.547098 
L 251.572553 127.570702 
L 249.156702 132.415087 
L 246.322724 136.952865 
L 243.442287 136.278331 
L 237.727872 136.217009 
L 235.637232 135.971724 
L 229.365313 133.580192 
L 226.3455 131.801874 
L 223.557981 129.900913 
L 219.608995 125.792384 
L 217.750648 124.320672 
L 213.058323 120.947999 
L 209.202255 117.943253 
L 206.972239 115.735686 
L 205.857231 114.325295 
L 204.091802 113.528118 
L 201.861786 112.117727 
L 200.746778 111.136586 
L 197.773424 110.094123 
L 193.963814 107.702592 
L 192.01255 107.702592 
L 191.640881 106.844093 
L 189.410865 105.495024 
L 189.271489 102.858207 
L 189.5967 98.627035 
L 189.503783 96.480788 
L 188.853361 95.867575 
L 188.57461 92.249617 
L 188.946279 88.938265 
L 188.57461 85.872199 
L 188.853361 83.909916 
L 188.946279 80.721207 
L 189.643159 78.268354 
L 190.851084 75.815501 
L 194.428401 69.254119 
L 196.240288 66.433337 
L 197.401755 64.103127 
L 199.167184 61.159703 
L 202.651584 54.720964 
L 208.458916 43.560482 
L 210.688932 40.003845 
L 211.757481 38.716097 
L 214.730835 33.565105 
L 215.985219 32.4 
L 218.586904 33.994355 
L 218.586904 33.994355 
" clip-path="url(#p6550dff932)" style="fill: none; stroke: #000000; stroke-width: 3"/>
   </g>
  </g>
 </g>
 <defs>
  <clipPath id="p6550dff932">
   <rect x="7.2" y="7.2" width="276.986532" height="554.4"/>
  </clipPath>
 </defs>
</svg>
