<?xml version="1.0" encoding="utf-8" standalone="no"?>
<!DOCTYPE svg PUBLIC "-//W3C//DTD SVG 1.1//EN"
  "http://www.w3.org/Graphics/SVG/1.1/DTD/svg11.dtd">
<svg xmlns:xlink="http://www.w3.org/1999/xlink" width="247.758036pt" height="568.8pt" viewBox="0 0 247.758036 568.8" xmlns="http://www.w3.org/2000/svg" version="1.1">
 <metadata>
  <rdf:RDF xmlns:dc="http://purl.org/dc/elements/1.1/" xmlns:cc="http://creativecommons.org/ns#" xmlns:rdf="http://www.w3.org/1999/02/22-rdf-syntax-ns#">
   <cc:Work>
    <dc:type rdf:resource="http://purl.org/dc/dcmitype/StillImage"/>
    <dc:date>2023-09-25T14:13:59.101791</dc:date>
    <dc:format>image/svg+xml</dc:format>
    <dc:creator>
     <cc:Agent>
      <dc:title>Matplotlib v3.6.2, https://matplotlib.org/</dc:title>
     </cc:Agent>
    </dc:creator>
   </cc:Work>
  </rdf:RDF>
 </metadata>
 <defs>
  <style type="text/css">*{stroke-linejoin: round; stroke-linecap: butt}</style>
 </defs>
 <g id="figure_1">
  <g id="patch_1">
   <path d="M 0 568.8 
L 247.758036 568.8 
L 247.758036 0 
L 0 0 
z
" style="fill: #ffffff"/>
  </g>
  <g id="axes_1">
   <g id="LineCollection_1">
    <path d="M 229.950853 34.012322 
L 228.457839 33.594313 
L 226.059968 32.459716 
L 225.109869 32.4 
L 224.521712 34.549763 
L 222.802484 37.236967 
L 221.716656 39.745024 
L 220.947528 40.819905 
L 219.137814 44.641706 
L 217.735286 47.090047 
L 216.785187 48.344076 
L 215.020716 51.509005 
L 212.668088 55.032227 
L 210.586918 59.391469 
L 207.962833 64.16872 
L 204.56962 70.618009 
L 200.000094 78.679621 
L 199.185722 79.814218 
L 198.145137 81.963981 
L 195.340081 86.800948 
L 185.839085 104.178199 
L 182.762572 109.433175 
L 181.948201 111.164929 
L 181.676744 112.956398 
L 181.902958 116.240758 
L 182.400629 117.494787 
L 181.993444 121.97346 
L 182.581601 124.30237 
L 182.581601 127.527014 
L 183.260243 128.781043 
L 182.807815 130.691943 
L 182.717329 132.483412 
L 183.622186 133.2 
L 183.034029 136.962085 
L 182.536358 139.111848 
L 183.622186 140.963033 
L 185.205685 142.037915 
L 185.1152 145.083412 
L 184.708014 147.412322 
L 184.346071 151.174408 
L 184.888986 154.399052 
L 182.491115 155.891943 
L 181.541015 157.265403 
L 181.812473 158.877725 
L 180.907616 163.177251 
L 179.505088 165.565877 
L 176.383332 172.731754 
L 175.387989 175.65782 
L 173.352062 178.94218 
L 172.537691 180.554502 
L 171.768562 183.898578 
L 170.45652 185.152607 
L 171.497105 186.287204 
L 177.378674 189.452133 
L 178.147803 189.332701 
L 180.319459 190.467299 
L 182.129172 191.124171 
L 184.029372 192.318483 
L 186.517728 193.333649 
L 189.277541 195.961137 
L 192.082597 197.454028 
L 195.747267 199.842654 
L 197.104552 200.43981 
L 198.416594 201.454976 
L 200.226308 202.350711 
L 200.723979 203.067299 
L 199.819122 205.575355 
L 197.104552 209.874882 
L 193.756582 217.518483 
L 192.761239 218.832227 
L 191.268226 221.579147 
L 190.272883 222.056872 
L 187.377342 227.789573 
L 185.929571 229.521327 
L 185.477142 230.835071 
L 184.300829 232.268246 
L 182.129172 237.463507 
L 181.269558 240.389573 
L 179.007417 245.286256 
L 177.966831 245.704265 
L 176.247603 247.734597 
L 174.211676 251.675829 
L 171.949534 255.617062 
L 170.77322 258.125118 
L 169.687392 259.976303 
L 167.787193 264.096682 
L 166.520393 266.067299 
L 165.163108 269.232227 
L 163.76058 271.202844 
L 161.498438 274.905213 
L 159.824453 276.875829 
L 158.964839 279.264455 
L 158.01474 280.936493 
L 157.109883 283.504265 
L 156.566969 285.833175 
L 156.024055 287.087204 
L 153.626184 290.550711 
L 152.495113 291.625592 
L 150.142486 295.148815 
L 148.468501 297.358294 
L 147.880344 298.791469 
L 144.713345 304.763033 
L 143.265574 308.584834 
L 141.727318 311.092891 
L 141.048675 311.809479 
L 138.515076 317.601896 
L 136.162449 321.781991 
L 134.895649 323.454028 
L 134.036035 325.48436 
L 132.316807 327.81327 
L 130.869037 330.858768 
L 128.38068 333.665403 
L 128.471166 334.262559 
L 127.883009 336.412322 
L 125.575624 340.532701 
L 123.901639 342.74218 
L 122.95154 344.772512 
L 121.729983 346.44455 
L 121.141826 347.877725 
L 119.196384 351.520379 
L 117.793856 354.565877 
L 116.617542 356.476777 
L 115.531714 359.104265 
L 112.59093 360.597156 
L 112.319473 362.209479 
L 110.916945 363.224645 
L 106.709361 369.912796 
L 105.306833 372.361137 
L 104.130519 373.794313 
L 103.361391 375.287204 
L 102.366048 376.481517 
L 101.008763 378.929858 
L 100.556335 379.288152 
L 99.19905 381.91564 
L 98.113222 382.930806 
L 97.434579 384.24455 
L 94.312823 389.200948 
L 93.046024 390.693839 
L 90.467182 394.873934 
L 89.879025 396.247393 
L 87.209698 400.666351 
L 84.22367 405.204739 
L 83.545028 406.637915 
L 81.961528 408.907109 
L 82.278228 409.563981 
L 85.264255 411.236019 
L 87.481155 412.908057 
L 89.290868 413.982938 
L 91.010096 415.356398 
L 93.679423 416.96872 
L 95.127194 417.565877 
L 98.429921 419.71564 
L 98.56565 420.850237 
L 92.005438 430.703318 
L 89.290868 435.779147 
L 86.802512 439.242654 
L 85.038041 442.58673 
L 84.133184 444.676777 
L 79.563658 450.290047 
L 77.753944 453.036967 
L 76.351416 456.978199 
L 74.81316 459.068246 
L 73.093932 462.17346 
L 71.103247 464.800948 
L 70.560333 465.875829 
L 67.48382 469.936493 
L 66.624206 470.712796 
L 66.217021 471.727962 
L 64.859735 473.161137 
L 62.914293 476.266351 
L 62.280894 477.759242 
L 60.923608 479.670142 
L 59.159138 482.894787 
L 58.570981 483.551659 
L 56.580296 486.95545 
L 52.146498 493.464455 
L 51.875041 495.196209 
L 50.834455 496.987678 
L 49.250956 498.659716 
L 49.16047 499.615166 
L 48.346099 501.824645 
L 47.486485 505.288152 
L 46.1292 507.139336 
L 44.952886 506.96019 
L 43.776573 507.49763 
L 42.419288 512.633175 
L 42.962202 515.081517 
L 42.645502 518.306161 
L 42.193073 519.679621 
L 41.152488 519.799052 
L 38.980832 518.306161 
L 36.763933 517.649289 
L 35.225676 516.932701 
L 31.380035 515.678673 
L 29.70605 516.335545 
L 26.810508 516.932701 
L 24.050695 517.052133 
L 17.807183 518.485308 
L 18.169126 519.56019 
L 20.747968 518.903318 
L 23.32681 518.664455 
L 24.050695 517.828436 
L 24.503124 515.977251 
L 30.791878 515.917536 
L 33.461206 516.454976 
L 37.171118 517.649289 
L 37.442575 518.783886 
L 36.71869 523.143128 
L 36.628204 524.576303 
L 36.899661 527.203791 
L 37.895004 528.816114 
L 39.568989 529.83128 
L 43.143173 530.070142 
L 43.459873 531.264455 
L 44.907644 534.727962 
L 47.305514 536.4 
L 50.11057 535.802844 
L 50.879698 535.862559 
L 51.829798 535.086256 
L 54.996797 534.07109 
L 56.851753 532.69763 
L 59.52108 531.443602 
L 61.014094 530.428436 
L 63.095265 528.636967 
L 64.995464 527.681517 
L 68.931591 524.695735 
L 70.786547 523.620853 
L 72.370047 521.829384 
L 72.324804 521.172512 
L 74.315489 519.261611 
L 77.392002 517.529858 
L 78.79453 515.200948 
L 78.79453 514.603791 
L 79.835115 513.051185 
L 82.052014 510.901422 
L 83.725999 509.587678 
L 85.580955 507.318483 
L 87.57164 506.183886 
L 88.974168 505.049289 
L 90.783882 505.407583 
L 93.905638 504.21327 
L 97.887007 501.944076 
L 100.737306 500.033175 
L 101.59692 499.018009 
L 103.678091 497.286256 
L 106.030718 495.972512 
L 109.740631 493.583886 
L 110.600245 492.090995 
L 112.681416 491.971564 
L 114.6721 491.434123 
L 117.205699 491.374408 
L 121.36804 489.70237 
L 123.222997 489.164929 
L 123.675425 488.508057 
L 128.742623 487.612322 
L 132.723993 486.537441 
L 133.538364 486.119431 
L 136.750606 485.940284 
L 138.696048 485.343128 
L 138.334105 483.850237 
L 137.564977 478.834123 
L 136.886334 476.923223 
L 136.388663 472.981991 
L 135.936234 471.907109 
L 136.071963 470.653081 
L 135.890992 465.577251 
L 135.483806 462.890047 
L 136.117206 462.113744 
L 142.270232 461.277725 
L 145.075288 461.038863 
L 146.07063 460.620853 
L 146.613544 459.725118 
L 146.432573 457.575355 
L 147.427915 454.171564 
L 148.197044 452.559242 
L 151.590256 443.422749 
L 152.630842 440.974408 
L 153.671427 436.913744 
L 153.490456 436.256872 
L 154.621527 434.823697 
L 156.11454 431.539336 
L 157.879011 427.060664 
L 161.498438 417.446445 
L 161.905624 415.893839 
L 165.796508 408.07109 
L 167.651464 405.025592 
L 169.144478 402.159242 
L 170.275549 400.367773 
L 171.859048 396.963981 
L 173.125848 394.814218 
L 175.659447 389.678673 
L 177.016732 387.708057 
L 181.179073 380.004739 
L 183.034029 377.078673 
L 183.757915 375.227488 
L 183.079272 374.092891 
L 179.369359 371.883412 
L 176.654789 370.569668 
L 174.528376 369.31564 
L 174.302161 368.718483 
L 176.157118 364.896682 
L 177.966831 361.492891 
L 180.228973 357.730806 
L 183.757915 351.042654 
L 185.205685 349.430332 
L 185.929571 347.698578 
L 189.006084 342.085308 
L 190.634826 338.442654 
L 194.435224 332.291943 
L 197.104552 326.678673 
L 198.235623 323.872038 
L 197.376009 322.797156 
L 195.15911 321.781991 
L 189.232298 318.437915 
L 188.644141 318.318483 
L 186.834428 316.825592 
L 186.336756 315.750711 
L 184.527043 314.675829 
L 181.45053 313.421801 
L 180.364702 312.585782 
L 178.916931 312.466351 
L 175.568961 310.615166 
L 174.709347 310.495735 
L 171.316134 308.823697 
L 169.777878 307.629384 
L 167.063307 305.89763 
L 164.574951 304.524171 
L 163.851066 304.404739 
L 159.598239 301.299526 
L 157.019397 300.224645 
L 152.947542 297.358294 
L 148.558986 295.745972 
L 145.030045 293.536493 
L 143.265574 291.506161 
L 139.736633 289.05782 
L 138.650805 288.580095 
L 135.483806 288.042654 
L 134.126521 286.848341 
L 132.452536 286.3109 
L 129.64748 284.340284 
L 128.38068 284.161137 
L 123.720668 281.951659 
L 121.36804 280.339336 
L 118.33677 278.607583 
L 115.6222 277.532701 
L 109.288203 274.188626 
L 108.835774 273.233175 
L 111.459859 269.232227 
L 112.228987 267.261611 
L 114.174429 263.917536 
L 116.662785 259.140284 
L 118.517742 256.273934 
L 118.834442 255.019905 
L 120.146484 252.810427 
L 122.589597 247.854028 
L 123.946882 245.883412 
L 124.851739 244.091943 
L 127.113881 241.106161 
L 128.425923 238.000948 
L 131.592922 232.447393 
L 132.226322 230.596209 
L 133.357393 229.103318 
L 133.402635 227.490995 
L 134.805163 224.385782 
L 136.071963 222.654028 
L 136.841091 220.44455 
L 138.877019 217.219905 
L 140.64149 215.727014 
L 140.460518 214.472986 
L 142.360717 209.934597 
L 143.763245 206.8891 
L 146.38733 204.500474 
L 148.151801 201.096682 
L 149.4186 199.544076 
L 151.771228 195.662559 
L 152.314142 193.87109 
L 153.988127 191.482464 
L 153.897641 190.765877 
L 149.916271 188.138389 
L 147.33743 186.824645 
L 145.075288 186.108057 
L 141.410618 184.256872 
L 138.605562 182.64455 
L 137.474491 181.6891 
L 128.878352 176.911848 
L 129.828451 174.582938 
L 130.914279 172.970616 
L 133.990792 167.178199 
L 137.564977 161.206635 
L 139.962847 156.548815 
L 142.134503 152.78673 
L 143.35606 150.398104 
L 144.170431 148.248341 
L 145.211016 146.397156 
L 146.07063 144.247393 
L 147.382673 142.037915 
L 148.016072 140.545024 
L 149.237629 139.290995 
L 150.3687 136.962085 
L 151.137828 135.887204 
L 152.902299 132.125118 
L 154.35007 130.154502 
L 157.155126 124.959242 
L 159.643482 120.002844 
L 161.724652 116.539336 
L 162.81048 114.090995 
L 165.841751 109.492891 
L 168.05865 105.193365 
L 169.913606 101.311848 
L 171.587591 98.505213 
L 172.718662 96.116588 
L 173.985461 94.265403 
L 174.483133 92.712796 
L 176.111875 90.264455 
L 177.831103 86.741232 
L 178.238288 85.248341 
L 179.731302 83.456872 
L 179.957516 82.381991 
L 181.405287 80.47109 
L 184.119857 75.216114 
L 186.020056 71.812322 
L 188.77987 67.273934 
L 189.141812 65.840758 
L 192.082597 61.003791 
L 193.168425 58.55545 
L 194.887653 56.166825 
L 195.611538 54.494787 
L 196.878338 52.643602 
L 199.049994 48.762085 
L 199.864365 47.030332 
L 202.081264 43.327962 
L 204.976806 38.072986 
L 206.334091 36.460664 
L 208.008076 33.415166 
L 208.731961 32.758294 
L 211.129832 34.370616 
L 211.129832 34.370616 
" clip-path="url(#pa41cae10d1)" style="fill: none; stroke: #000000; stroke-width: 3"/>
   </g>
  </g>
 </g>
 <defs>
  <clipPath id="pa41cae10d1">
   <rect x="7.2" y="7.2" width="233.358036" height="554.4"/>
  </clipPath>
 </defs>
</svg>
