<?xml version="1.0" encoding="utf-8" standalone="no"?>
<!DOCTYPE svg PUBLIC "-//W3C//DTD SVG 1.1//EN"
  "http://www.w3.org/Graphics/SVG/1.1/DTD/svg11.dtd">
<svg xmlns:xlink="http://www.w3.org/1999/xlink" width="246.272809pt" height="568.8pt" viewBox="0 0 246.272809 568.8" xmlns="http://www.w3.org/2000/svg" version="1.1">
 <metadata>
  <rdf:RDF xmlns:dc="http://purl.org/dc/elements/1.1/" xmlns:cc="http://creativecommons.org/ns#" xmlns:rdf="http://www.w3.org/1999/02/22-rdf-syntax-ns#">
   <cc:Work>
    <dc:type rdf:resource="http://purl.org/dc/dcmitype/StillImage"/>
    <dc:date>2023-09-25T14:13:59.044223</dc:date>
    <dc:format>image/svg+xml</dc:format>
    <dc:creator>
     <cc:Agent>
      <dc:title>Matplotlib v3.6.2, https://matplotlib.org/</dc:title>
     </cc:Agent>
    </dc:creator>
   </cc:Work>
  </rdf:RDF>
 </metadata>
 <defs>
  <style type="text/css">*{stroke-linejoin: round; stroke-linecap: butt}</style>
 </defs>
 <g id="figure_1">
  <g id="patch_1">
   <path d="M 0 568.8 
L 246.272809 568.8 
L 246.272809 0 
L 0 0 
z
" style="fill: #ffffff"/>
  </g>
  <g id="axes_1">
   <g id="LineCollection_1">
    <path d="M 115.371306 119.245902 
L 118.338269 120.898361 
L 119.868109 121.510383 
L 122.046973 123.162842 
L 122.649637 124.080874 
L 123.808607 122.918033 
L 125.153012 120.102732 
L 131.735962 122.183607 
L 132.709497 122.673224 
L 136.371842 125.243716 
L 142.120333 128.303825 
L 144.345555 129.038251 
L 148.239695 130.69071 
L 150.974864 132.526776 
L 152.226551 134.791257 
L 152.690139 137.361749 
L 153.524598 139.809836 
L 155.796179 142.869945 
L 158.160478 145.195628 
L 160.292983 148.31694 
L 162.100976 150.214208 
L 161.822823 151.989071 
L 160.478418 154.498361 
L 159.968471 155.967213 
L 158.577707 157.986885 
L 152.736498 170.288525 
L 151.021223 172.614208 
L 149.213229 175.613115 
L 147.219801 179.346448 
L 146.246266 181.488525 
L 143.232944 186.629508 
L 141.610386 190.240437 
L 139.431523 194.157377 
L 139.107011 195.136612 
L 137.252659 197.217486 
L 133.636673 204.072131 
L 130.808786 208.417486 
L 129.603457 210.987978 
L 127.749105 214.231694 
L 126.080188 216.557377 
L 125.153012 218.638251 
L 123.252302 222.065574 
L 122.788714 223.228415 
L 120.656209 226.778142 
L 119.219086 229.899454 
L 117.550169 232.531148 
L 117.13294 234 
L 116.066688 235.836066 
L 115.139512 237.978142 
L 113.748748 239.814208 
L 111.755319 243.425137 
L 109.02015 246.668852 
L 108.324768 248.627322 
L 107.351233 250.279781 
L 106.934004 251.93224 
L 105.635958 253.768306 
L 104.569705 256.644809 
L 103.549812 257.930055 
L 101.046436 262.82623 
L 98.774855 266.253552 
L 98.403985 267.538798 
L 97.05958 270.354098 
L 95.761533 271.578142 
L 92.330982 279.106011 
L 91.125653 280.636066 
L 89.224942 284.12459 
L 87.926896 284.614208 
L 86.675208 288.163934 
L 85.794391 290.122404 
L 84.496345 292.019672 
L 83.476451 294.528962 
L 81.57574 297.711475 
L 78.979648 301.628415 
L 77.125296 305.422951 
L 75.873608 308.360656 
L 74.343768 310.625137 
L 72.303981 312.522404 
L 70.77414 313.318033 
L 70.217835 314.419672 
L 69.986041 316.439344 
L 68.966147 318.397814 
L 66.555489 324.885246 
L 65.721031 326.660109 
L 64.562061 329.903825 
L 63.727603 330.577049 
L 61.50238 334.004372 
L 60.992433 334.24918 
L 59.833463 337.186885 
L 59.648028 338.16612 
L 55.70753 344.531148 
L 53.945896 347.95847 
L 52.045185 351.263388 
L 48.892787 358.301639 
L 47.409305 360.872131 
L 46.621205 362.830601 
L 44.674136 364.605464 
L 43.793319 367.175956 
L 42.031684 370.236066 
L 41.42902 370.664481 
L 39.991897 373.051366 
L 38.462057 376.601093 
L 36.236834 379.6 
L 34.197047 384.312568 
L 30.905572 389.637158 
L 29.375732 393.003279 
L 28.865785 393.737705 
L 26.455128 398.63388 
L 26.36241 399.245902 
L 32.759924 403.530055 
L 34.382482 404.142077 
L 38.137545 406.284153 
L 39.435591 407.87541 
L 35.958681 414.362842 
L 35.263299 415.15847 
L 34.150688 417.361749 
L 33.408947 418.279781 
L 32.389054 420.789071 
L 32.481771 421.462295 
L 35.124223 423.114754 
L 36.468628 423.604372 
L 38.832927 425.256831 
L 39.852821 425.440437 
L 41.058149 426.297268 
L 44.256907 427.643716 
L 46.667564 429.234973 
L 46.852999 430.27541 
L 45.184083 433.519126 
L 43.886036 435.171585 
L 42.078043 439.027322 
L 38.554774 445.269945 
L 37.813033 445.881967 
L 37.117651 447.656831 
L 33.594383 453.777049 
L 26.176975 467.425137 
L 25.481593 469.261202 
L 23.302729 472.994536 
L 22.560988 474.953005 
L 21.494736 479.053552 
L 20.613919 481.746448 
L 20.243048 484.010929 
L 17.832391 492.824044 
L 17.739673 493.803279 
L 18.295979 494.354098 
L 21.123866 495.639344 
L 24.461699 496.802186 
L 25.99154 497.659016 
L 33.223512 500.84153 
L 40.594561 503.534426 
L 43.793319 504.942077 
L 57.747317 510.572678 
L 58.952646 510.817486 
L 61.363304 512.102732 
L 73.741103 516.754098 
L 81.622099 520.120219 
L 85.887109 522.323497 
L 88.94679 524.037158 
L 98.172191 526.791257 
L 99.562955 527.403279 
L 100.721925 526.974863 
L 99.74839 534.257923 
L 100.11926 535.359563 
L 103.039865 536.4 
L 103.735247 535.84918 
L 104.476988 532.054645 
L 105.635958 528.443716 
L 106.655851 524.159563 
L 108.788356 512.531148 
L 109.205585 510.878689 
L 111.384449 498.638251 
L 111.430808 496.740984 
L 112.589778 492.028415 
L 113.099724 487.927869 
L 112.172548 486.520219 
L 112.079831 485.540984 
L 113.470595 481.318033 
L 114.258694 477.156284 
L 114.397771 474.769399 
L 114.119618 474.218579 
L 114.536847 471.648087 
L 114.954076 470.730055 
L 115.6031 465.83388 
L 115.324947 462.46776 
L 114.490488 460.142077 
L 113.192442 457.938798 
L 109.251944 454.08306 
L 106.934004 451.145355 
L 105.496881 449.003279 
L 104.708782 446.677596 
L 104.198835 443.801093 
L 104.106117 441.230601 
L 103.59617 440.434973 
L 102.808071 440.740984 
L 100.165619 440.37377 
L 97.476809 438.598907 
L 95.390663 437.55847 
L 93.58267 436.273224 
L 90.754783 434.926776 
L 87.880537 433.029508 
L 86.489773 432.478689 
L 83.430092 430.520219 
L 79.860465 428.439344 
L 77.496166 427.337705 
L 77.264372 426.542077 
L 80.138618 421.095082 
L 83.615528 415.097268 
L 85.979826 410.568306 
L 86.953361 408.365027 
L 88.205049 406.222951 
L 89.178584 404.080874 
L 90.152118 402.55082 
L 97.523168 389.269945 
L 99.423878 386.209836 
L 101.927254 381.068852 
L 105.496881 374.642623 
L 107.86118 370.90929 
L 109.02015 368.583607 
L 110.781784 365.707104 
L 112.49706 362.096175 
L 114.0269 360.198907 
L 116.34484 355.608743 
L 118.29191 351.32459 
L 119.543598 349.488525 
L 120.60985 346.183607 
L 121.954255 342.756284 
L 123.947684 340.185792 
L 125.477524 336.942077 
L 128.073617 332.719126 
L 131.365091 326.721311 
L 134.285696 322.804372 
L 135.305589 320.723497 
L 137.252659 318.091803 
L 138.828858 314.236066 
L 141.934898 308.360656 
L 143.279303 306.585792 
L 148.564206 296.854645 
L 150.650352 292.692896 
L 154.266339 286.266667 
L 154.498133 285.409836 
L 156.630637 281.248087 
L 158.345913 278.677596 
L 163.120869 270.904918 
L 164.975221 267.110383 
L 169.008437 259.76612 
L 169.703819 257.746448 
L 170.770071 256.093989 
L 171.882683 253.768306 
L 175.45231 247.892896 
L 179.485526 240.42623 
L 181.154442 237.672131 
L 182.40613 235.040437 
L 183.611459 233.571585 
L 187.551957 226.410929 
L 188.98908 224.146448 
L 190.51892 220.963934 
L 194.876647 213.374863 
L 196.916434 209.335519 
L 198.029046 206.459016 
L 201.459597 200.706011 
L 203.731178 196.299454 
L 206.188194 192.443716 
L 207.161729 190.362842 
L 208.923364 187.853552 
L 210.360486 185.099454 
L 211.102227 183.202186 
L 213.188373 179.95847 
L 214.440061 176.837158 
L 214.718214 175.49071 
L 215.64539 174.327869 
L 217.638818 170.900546 
L 219.539529 168.024044 
L 222.321057 162.33224 
L 223.943615 159.700546 
L 224.778073 157.803279 
L 226.910578 154.804372 
L 228.533136 151.744262 
L 228.301342 150.887432 
L 226.122478 149.908197 
L 224.731714 148.990164 
L 221.115728 147.337705 
L 217.267948 144.828415 
L 214.579137 143.787978 
L 213.930114 143.237158 
L 211.426739 142.135519 
L 202.10862 136.627322 
L 199.651604 135.586885 
L 194.273983 131.975956 
L 193.20773 131.853552 
L 192.744142 131.24153 
L 186.902934 128.181421 
L 182.452489 126.039344 
L 178.233838 123.530055 
L 177.167586 123.652459 
L 175.45231 126.528962 
L 174.617852 126.406557 
L 174.66421 124.876503 
L 176.703998 121.326776 
L 178.14112 118.266667 
L 181.803466 111.656831 
L 182.730642 108.719126 
L 182.962436 106.33224 
L 182.916077 104.190164 
L 183.472382 100.762842 
L 183.518741 99.416393 
L 183.008794 97.64153 
L 181.200801 94.459016 
L 180.87629 93.296175 
L 181.015366 91.888525 
L 183.379665 87.114754 
L 185.373093 84.360656 
L 190.982508 78.179235 
L 192.002402 76.159563 
L 192.141478 74.69071 
L 191.816966 71.87541 
L 191.863325 70.284153 
L 192.883219 64.59235 
L 193.532242 63.062295 
L 195.479312 60.736612 
L 198.724428 58.594536 
L 199.466168 57.798907 
L 199.466168 55.534426 
L 198.770786 54.677596 
L 197.704534 54.24918 
L 196.360129 54.371585 
L 194.691212 55.167213 
L 192.790501 56.819672 
L 191.631531 57.248087 
L 189.823538 56.636066 
L 188.57185 55.289617 
L 188.432774 54.065574 
L 188.850003 52.780328 
L 192.790501 48.006557 
L 195.015724 42.559563 
L 195.201159 40.478689 
L 194.3667 38.703825 
L 192.095119 36.500546 
L 188.710927 34.603279 
L 186.392987 33.868852 
L 183.379665 33.501639 
L 179.856396 32.4 
L 178.187479 32.522404 
L 177.074868 33.440437 
L 176.054974 35.276503 
L 175.915898 37.72459 
L 177.445738 39.927869 
L 181.386236 41.213115 
L 182.730642 42.926776 
L 182.916077 46.537705 
L 184.075047 50.577049 
L 183.796894 52.29071 
L 182.823359 54.310383 
L 180.319984 56.574863 
L 177.538456 57.860109 
L 175.174157 58.472131 
L 173.273447 60.430601 
L 171.558171 64.347541 
L 170.167407 65.693989 
L 167.478597 66.795628 
L 165.716962 67.285246 
L 164.048045 68.264481 
L 162.33277 68.631694 
L 160.432059 67.897268 
L 156.723355 65.265574 
L 155.610744 64.898361 
L 151.623887 62.266667 
L 146.431701 59.818579 
L 142.862074 57.615301 
L 142.259409 57.921311 
L 141.193157 59.512568 
L 139.431523 63.307104 
L 138.504347 63.857923 
L 136.696353 66.489617 
L 136.279124 69.304918 
L 134.239337 73.956284 
L 130.762427 80.076503 
L 129.418022 82.769399 
L 126.497417 87.84918 
L 125.384806 90.297268 
L 124.225836 91.888525 
L 118.384628 102.537705 
L 115.97397 105.965027 
L 111.662602 113.125683 
L 109.483738 117.165027 
L 108.092974 119.368306 
L 106.192263 123.040437 
L 105.357805 123.652459 
L 104.476988 123.530055 
L 102.715353 122.183607 
L 98.357626 119.857923 
L 95.90061 118.205464 
L 95.90061 118.205464 
" clip-path="url(#p681e27985d)" style="fill: none; stroke: #000000; stroke-width: 3"/>
   </g>
  </g>
 </g>
 <defs>
  <clipPath id="p681e27985d">
   <rect x="7.2" y="7.2" width="231.872809" height="554.4"/>
  </clipPath>
 </defs>
</svg>
