<?xml version="1.0" encoding="utf-8" standalone="no"?>
<!DOCTYPE svg PUBLIC "-//W3C//DTD SVG 1.1//EN"
  "http://www.w3.org/Graphics/SVG/1.1/DTD/svg11.dtd">
<svg xmlns:xlink="http://www.w3.org/1999/xlink" width="298.333317pt" height="568.8pt" viewBox="0 0 298.333317 568.8" xmlns="http://www.w3.org/2000/svg" version="1.1">
 <metadata>
  <rdf:RDF xmlns:dc="http://purl.org/dc/elements/1.1/" xmlns:cc="http://creativecommons.org/ns#" xmlns:rdf="http://www.w3.org/1999/02/22-rdf-syntax-ns#">
   <cc:Work>
    <dc:type rdf:resource="http://purl.org/dc/dcmitype/StillImage"/>
    <dc:date>2023-09-25T14:13:58.630354</dc:date>
    <dc:format>image/svg+xml</dc:format>
    <dc:creator>
     <cc:Agent>
      <dc:title>Matplotlib v3.6.2, https://matplotlib.org/</dc:title>
     </cc:Agent>
    </dc:creator>
   </cc:Work>
  </rdf:RDF>
 </metadata>
 <defs>
  <style type="text/css">*{stroke-linejoin: round; stroke-linecap: butt}</style>
 </defs>
 <g id="figure_1">
  <g id="patch_1">
   <path d="M 0 568.8 
L 298.333317 568.8 
L 298.333317 0 
L 0 0 
z
" style="fill: #ffffff"/>
  </g>
  <g id="axes_1">
   <g id="LineCollection_1">
    <path d="M 151.937785 173.890803 
L 154.376376 175.842401 
L 157.036658 175.452081 
L 160.80539 171.744046 
L 162.800601 173.305324 
L 169.599098 175.354501 
L 171.889896 176.42788 
L 175.806421 179.355276 
L 184.747923 185.014908 
L 190.659659 186.088287 
L 194.871772 187.942304 
L 199.527264 190.77212 
L 201.670269 193.114037 
L 202.483132 195.358374 
L 203.2221 199.847047 
L 204.77393 204.433301 
L 206.843038 208.921975 
L 210.981254 210.971152 
L 212.163601 210.971152 
L 213.050362 212.825169 
L 215.56285 215.362246 
L 218.444821 219.4606 
L 219.035995 219.4606 
L 219.848859 216.923524 
L 218.666511 223.461375 
L 216.89299 227.364569 
L 213.641535 231.365344 
L 211.05515 235.951597 
L 208.912146 238.878993 
L 206.030174 246.392643 
L 199.970644 256.833688 
L 199.231677 259.175605 
L 195.684635 265.518296 
L 191.76811 271.958567 
L 188.221068 279.277057 
L 181.126984 291.181801 
L 175.954215 300.842207 
L 172.628863 310.014714 
L 169.303511 313.13727 
L 165.386986 319.772701 
L 162.431117 325.725073 
L 156.371587 334.8 
L 155.263137 337.629816 
L 151.789992 342.11849 
L 143.661354 358.219167 
L 142.774593 361.341723 
L 141.740039 362.415102 
L 139.892622 365.830397 
L 138.414688 367.684414 
L 135.015439 374.612585 
L 132.798538 377.149661 
L 136.419476 376.759342 
L 139.227551 377.9303 
L 139.966518 379.589158 
L 142.257316 380.955276 
L 143.439664 382.906873 
L 151.642198 388.273766 
L 155.85431 390.322943 
L 157.332245 389.639884 
L 160.066423 394.226137 
L 162.283324 395.494676 
L 167.75168 396.470474 
L 170.707548 399.202711 
L 175.436938 402.032527 
L 178.98398 403.203485 
L 181.422571 404.667183 
L 183.639472 405.155082 
L 184.304543 404.081704 
L 184.969613 406.91152 
L 187.555998 408.570378 
L 192.580974 411.205034 
L 194.354495 411.205034 
L 195.906326 412.961471 
L 204.182757 416.474347 
L 212.089704 421.15818 
L 213.345948 422.524298 
L 217.779751 423.500097 
L 220.809516 426.037173 
L 226.721252 429.159729 
L 232.485195 432.477444 
L 231.302848 433.160503 
L 228.938154 437.649177 
L 229.677121 440.088674 
L 232.115712 440.771733 
L 232.115712 439.991094 
L 228.938154 438.429816 
L 226.277872 438.917715 
L 223.765384 443.503969 
L 222.878624 444.479768 
L 217.927544 453.261955 
L 216.523507 456.384511 
L 213.863225 460.287706 
L 210.537873 467.411036 
L 209.133836 468.289255 
L 201.818062 464.971539 
L 197.82764 462.434463 
L 195.832429 462.044143 
L 189.255622 457.36031 
L 184.082852 454.628074 
L 178.023322 450.432139 
L 175.880318 449.94424 
L 168.19506 446.041045 
L 166.938816 444.479768 
L 161.618254 440.771733 
L 157.627831 439.112875 
L 149.942574 434.819361 
L 144.991494 436.087899 
L 141.444453 434.624201 
L 139.153655 432.965344 
L 134.793749 430.623427 
L 133.020228 427.793611 
L 129.84267 425.646854 
L 126.591214 422.914618 
L 122.452999 422.133979 
L 120.236098 422.133979 
L 118.684267 420.279961 
L 116.762952 419.206583 
L 114.767741 417.254985 
L 111.959667 415.888867 
L 110.851216 416.767086 
L 109.151592 420.182381 
L 106.26962 423.402517 
L 103.757132 427.988771 
L 103.313752 430.135528 
L 97.549809 438.332236 
L 98.658259 439.893514 
L 96.071875 442.91849 
L 87.943237 456.091772 
L 87.499857 457.945789 
L 84.987369 461.263504 
L 83.361641 464.1909 
L 80.70136 467.801355 
L 80.553566 469.752953 
L 79.445115 473.070668 
L 77.228214 476.973863 
L 75.898074 478.437561 
L 74.567933 481.852856 
L 71.538168 488.000387 
L 66.143708 497.758374 
L 64.887464 499.514811 
L 62.74446 504.296225 
L 57.941174 512.785673 
L 54.172442 517.762246 
L 50.773193 524.397677 
L 47.300048 529.666989 
L 47.152255 530.837948 
L 44.935353 535.424201 
L 43.014039 536.4 
L 39.245307 534.545983 
L 33.481364 530.545208 
L 30.821082 529.08151 
L 29.047561 529.37425 
L 24.318172 526.739593 
L 21.510097 526.642014 
L 20.10606 525.275895 
L 20.77113 522.933979 
L 22.175168 520.494482 
L 23.209722 517.079187 
L 25.204933 513.273572 
L 25.204933 512.102614 
L 31.190566 502.344627 
L 31.486153 500.783349 
L 35.180988 494.440658 
L 37.693476 491.025363 
L 39.3931 487.805227 
L 42.792349 483.414134 
L 46.634978 475.900484 
L 47.669532 472.387609 
L 49.664743 468.191675 
L 50.699297 466.923136 
L 53.950752 461.263504 
L 55.280892 459.897386 
L 56.46324 456.286931 
L 58.384554 454.335334 
L 60.601455 450.23698 
L 61.562112 447.016844 
L 64.222394 444.187028 
L 65.848121 441.357212 
L 64.591877 439.600774 
L 64.0746 434.819361 
L 65.109154 431.306486 
L 68.065023 428.769409 
L 68.877886 424.768635 
L 70.281924 422.133979 
L 71.168684 418.718683 
L 74.198449 415.693708 
L 75.602487 413.351791 
L 77.893285 411.009874 
L 81.80981 408.375218 
L 82.918261 405.838141 
L 83.066054 402.715586 
L 85.504645 400.763988 
L 87.86934 400.178509 
L 88.608307 391.493901 
L 88.977791 389.932623 
L 91.564175 387.395547 
L 94.446147 383.687512 
L 96.367461 382.126234 
L 99.175536 380.955276 
L 100.136193 377.442401 
L 100.949057 376.661762 
L 105.087273 370.70939 
L 107.821451 365.244918 
L 108.560418 360.951404 
L 107.673658 359.194966 
L 106.195723 358.024008 
L 103.165958 354.120813 
L 102.722578 351.974056 
L 104.200512 349.632139 
L 106.121827 347.973282 
L 109.225488 344.265247 
L 114.028774 332.945983 
L 116.393469 328.554889 
L 117.871403 326.505712 
L 121.048961 323.187996 
L 124.300417 321.431559 
L 126.517318 321.041239 
L 129.547083 321.431559 
L 133.168021 323.773475 
L 136.34558 325.042014 
L 140.114312 324.456534 
L 142.257316 323.090416 
L 145.213185 320.2606 
L 146.395532 318.211423 
L 146.986706 315.381607 
L 148.90802 312.161471 
L 150.607644 310.112294 
L 155.18924 307.575218 
L 159.918629 303.867183 
L 161.02708 302.013166 
L 163.317878 294.987415 
L 163.687361 292.255179 
L 162.652807 287.668925 
L 161.544357 284.936689 
L 160.879286 281.033495 
L 161.02708 279.081897 
L 162.652807 276.447241 
L 165.460882 273.422265 
L 167.75168 271.470668 
L 172.259379 268.640852 
L 174.624074 265.811036 
L 175.215248 263.859439 
L 175.067454 258.687706 
L 177.579942 250.686157 
L 177.875529 247.466021 
L 181.274778 240.245111 
L 182.900505 237.512875 
L 188.147171 232.048403 
L 192.359284 225.998451 
L 195.093462 219.26544 
L 196.793086 216.045305 
L 200.783508 211.166312 
L 204.77393 208.726815 
L 207.064728 207.848596 
L 211.868014 207.165537 
L 218.149234 208.238916 
L 221.326793 207.555857 
L 223.322004 206.092159 
L 225.834492 202.872023 
L 228.716463 197.212391 
L 233.298059 188.820523 
L 234.923787 185.502807 
L 238.692519 179.355276 
L 247.264537 163.547338 
L 248.890264 160.229622 
L 250.737682 155.15547 
L 250.959372 146.178122 
L 251.993926 139.152372 
L 251.254959 136.322556 
L 248.890264 132.126621 
L 248.372987 129.589545 
L 249.407541 125.588771 
L 254.063034 116.806583 
L 256.058245 114.367086 
L 263.521812 106.755857 
L 265.36923 103.828461 
L 266.0343 101.291384 
L 265.59092 95.241433 
L 266.0343 89.289061 
L 267.364441 83.531849 
L 269.433549 79.433495 
L 272.463314 76.701258 
L 275.493079 75.042401 
L 277.48829 73.285963 
L 278.227257 71.627106 
L 278.005567 69.090029 
L 275.493079 67.333591 
L 273.645661 67.138432 
L 271.42876 67.919071 
L 266.994958 71.041626 
L 264.999746 71.627106 
L 262.930639 71.334366 
L 261.009324 69.773088 
L 260.344254 66.845692 
L 260.935428 64.796515 
L 263.817399 61.08848 
L 267.068854 57.770765 
L 269.950826 52.403872 
L 271.42876 46.9394 
L 270.76369 43.816844 
L 269.803032 42.450726 
L 265.221437 38.352372 
L 261.822188 36.303195 
L 258.940217 35.229816 
L 254.136931 34.156438 
L 251.254959 33.863698 
L 246.599466 32.4 
L 244.234772 32.69274 
L 241.870077 35.034656 
L 240.539936 37.083833 
L 240.170453 39.133011 
L 240.539936 41.767667 
L 242.239561 44.109584 
L 247.707917 46.4515 
L 249.777025 47.915198 
L 250.885475 50.842594 
L 251.107166 55.331268 
L 252.658996 60.503001 
L 252.658996 63.137657 
L 251.402752 66.552953 
L 246.52557 71.236786 
L 244.013082 72.602904 
L 238.544725 74.749661 
L 236.992895 75.82304 
L 235.441064 78.262536 
L 233.667543 83.239109 
L 232.632989 84.507648 
L 228.864257 86.849564 
L 222.73083 89.289061 
L 220.661722 91.045499 
L 217.040784 94.851113 
L 214.011019 100.218006 
L 210.316183 108.902614 
L 208.542662 112.025169 
L 205.956278 115.050145 
L 200.783508 118.270281 
L 199.231677 120.319458 
L 198.197123 122.758955 
L 197.753743 125.97909 
L 197.975433 131.833882 
L 195.684635 136.224976 
L 193.911114 137.688674 
L 186.743134 140.811229 
L 181.792055 144.128945 
L 178.466703 147.54424 
L 176.102008 150.666796 
L 174.402384 153.886931 
L 173.515623 156.424008 
L 173.072243 161.7909 
L 173.81121 166.377154 
L 175.732525 171.841626 
L 176.397595 175.452081 
L 175.880318 178.964956 
L 173.737313 182.965731 
L 170.411962 187.649564 
L 165.165295 191.943078 
L 162.874498 193.114037 
L 160.36201 195.748693 
L 159.844733 195.065634 
L 160.879286 191.650339 
L 161.396563 188.235044 
L 160.879286 185.210068 
L 159.623042 181.502033 
L 157.332245 178.769797 
L 156.445484 178.769797 
L 155.337033 180.818974 
L 151.863888 184.819748 
L 148.68633 189.503582 
L 147.651776 189.308422 
L 142.84849 186.771346 
L 137.01065 183.25847 
L 134.202575 181.014134 
L 129.177599 178.769797 
L 127.773562 179.355276 
L 122.600792 189.796321 
L 121.935722 191.650339 
L 119.497131 195.358374 
L 116.319572 201.115586 
L 114.546051 204.823621 
L 109.742765 212.53243 
L 107.895348 216.728364 
L 106.713 218.289642 
L 101.318541 227.364569 
L 96.958635 235.073379 
L 93.854973 241.02575 
L 90.160138 247.270862 
L 89.421171 247.661181 
L 83.731124 242.977348 
L 81.735913 242.684608 
L 78.484458 241.41607 
L 70.13413 236.927396 
L 70.355821 234.390319 
L 72.794412 231.365344 
L 74.789623 226.193611 
L 77.006524 222.680736 
L 78.558355 218.582381 
L 81.957604 212.63001 
L 88.460514 202.091384 
L 89.938448 197.602711 
L 91.564175 196.139013 
L 93.04211 193.309197 
L 96.219668 189.601162 
L 97.475912 186.478606 
L 99.471123 183.063311 
L 101.909714 177.989158 
L 103.978822 174.476283 
L 105.900137 170.182769 
L 107.451967 168.426331 
L 111.88577 170.475508 
L 111.88577 170.475508 
" clip-path="url(#p862eb64a2b)" style="fill: none; stroke: #000000; stroke-width: 3"/>
   </g>
  </g>
 </g>
 <defs>
  <clipPath id="p862eb64a2b">
   <rect x="7.2" y="7.2" width="283.933317" height="554.4"/>
  </clipPath>
 </defs>
</svg>
