<?xml version="1.0" encoding="utf-8" standalone="no"?>
<!DOCTYPE svg PUBLIC "-//W3C//DTD SVG 1.1//EN"
  "http://www.w3.org/Graphics/SVG/1.1/DTD/svg11.dtd">
<svg xmlns:xlink="http://www.w3.org/1999/xlink" width="272.167309pt" height="568.8pt" viewBox="0 0 272.167309 568.8" xmlns="http://www.w3.org/2000/svg" version="1.1">
 <metadata>
  <rdf:RDF xmlns:dc="http://purl.org/dc/elements/1.1/" xmlns:cc="http://creativecommons.org/ns#" xmlns:rdf="http://www.w3.org/1999/02/22-rdf-syntax-ns#">
   <cc:Work>
    <dc:type rdf:resource="http://purl.org/dc/dcmitype/StillImage"/>
    <dc:date>2023-09-25T14:13:58.244802</dc:date>
    <dc:format>image/svg+xml</dc:format>
    <dc:creator>
     <cc:Agent>
      <dc:title>Matplotlib v3.6.2, https://matplotlib.org/</dc:title>
     </cc:Agent>
    </dc:creator>
   </cc:Work>
  </rdf:RDF>
 </metadata>
 <defs>
  <style type="text/css">*{stroke-linejoin: round; stroke-linecap: butt}</style>
 </defs>
 <g id="figure_1">
  <g id="patch_1">
   <path d="M 0 568.8 
L 272.167309 568.8 
L 272.167309 0 
L 0 0 
z
" style="fill: #ffffff"/>
  </g>
  <g id="axes_1">
   <g id="LineCollection_1">
    <path d="M 212.721162 32.4 
L 214.984495 33.789578 
L 216.563565 33.720099 
L 220.353331 35.59603 
L 223.248292 37.541439 
L 227.301237 39.903722 
L 229.143485 40.390074 
L 231.827903 41.640695 
L 237.617825 43.725062 
L 240.512786 45.73995 
L 241.30232 46.712655 
L 242.565576 49.839206 
L 243.72356 55.32804 
L 245.618444 58.454591 
L 250.776738 62.553846 
L 252.618985 65.47196 
L 253.197978 65.958313 
L 253.250613 67.556328 
L 251.882086 68.459553 
L 249.513482 72.906203 
L 245.249994 80.340447 
L 244.513095 82.216377 
L 239.828522 91.59603 
L 236.617748 99.169231 
L 236.407205 101.73995 
L 235.98612 102.712655 
L 234.512321 104.171712 
L 232.301624 108.270968 
L 231.775268 110.00794 
L 229.56457 112.926055 
L 228.7224 115.079901 
L 226.511703 118.831762 
L 225.037904 120.777171 
L 224.143098 121.402481 
L 223.03775 123.069975 
L 222.195579 125.084864 
L 220.669145 131.199007 
L 219.03744 131.754839 
L 217.511006 133.491811 
L 215.563487 138.841687 
L 214.300232 140.231266 
L 214.037053 141.481886 
L 210.984186 144.122084 
L 209.089302 147.457072 
L 208.036589 150.861538 
L 206.562791 153.015385 
L 205.457442 155.516625 
L 203.615194 158.017866 
L 202.509846 160.449628 
L 200.193877 164.479404 
L 198.983257 168.092308 
L 197.667366 170.107196 
L 196.719924 172.261042 
L 195.140855 174.623325 
L 192.930157 177.402481 
L 191.245817 181.2933 
L 190.561553 184.072457 
L 190.298375 187.129529 
L 188.614034 189.213896 
L 187.877135 192.340447 
L 187.824499 198.454591 
L 186.982329 200.608437 
L 187.034964 204.499256 
L 186.140158 205.124566 
L 184.403182 205.124566 
L 182.24512 206.027792 
L 181.350314 207.139454 
L 180.981865 209.2933 
L 181.455585 212.350372 
L 180.823958 213.11464 
L 177.981633 213.184119 
L 176.455199 215.06005 
L 175.981478 216.727543 
L 173.876052 216.93598 
L 172.92861 219.437221 
L 170.665277 218.811911 
L 170.191556 220.479404 
L 168.928301 220.270968 
L 168.138766 220.965757 
L 167.033417 222.980645 
L 165.928069 226.176675 
L 166.243882 228.122084 
L 165.980704 230.345409 
L 166.296518 232.360298 
L 165.191169 233.055087 
L 163.717371 235.973201 
L 163.138379 237.91861 
L 162.927836 240.697767 
L 162.243573 242.295782 
L 159.98024 243.615881 
L 157.611636 243.893797 
L 154.979853 247.854094 
L 153.769233 249.035236 
L 151.979621 252.370223 
L 151.979621 252.995533 
L 149.926831 256.608437 
L 147.610862 259.526551 
L 146.137064 262.375186 
L 146.400242 263.000496 
L 146.031793 265.2933 
L 144.97908 269.184119 
L 145.4528 273.700248 
L 146.189699 276.618362 
L 147.189777 278.772208 
L 145.873886 278.355335 
L 142.715747 276.409926 
L 140.715592 276.409926 
L 140.347142 280.926055 
L 138.031174 280.995533 
L 137.610088 282.663027 
L 137.71536 284.955831 
L 136.767918 286.136973 
L 134.241407 286.831762 
L 132.188616 289.263524 
L 131.399082 288.916129 
L 129.293656 293.779653 
L 128.609392 296.628288 
L 129.556834 301.005459 
L 130.030555 302.256079 
L 130.346369 305.660546 
L 127.346136 307.32804 
L 126.661873 309.20397 
L 125.503889 309.968238 
L 123.661641 309.342928 
L 123.451098 310.385112 
L 122.556292 310.385112 
L 120.924587 311.77469 
L 120.608773 313.720099 
L 119.134975 313.928536 
L 118.71389 311.705211 
L 117.871719 314.692804 
L 115.239937 319.41737 
L 115.713658 317.819355 
L 115.713658 319.41737 
L 114.976759 321.362779 
L 115.239937 323.516625 
L 116.240014 326.017866 
L 116.240014 328.519107 
L 115.029394 330.1866 
L 113.818774 330.047643 
L 112.081798 330.811911 
L 111.397534 332.062531 
L 111.134356 333.660546 
L 111.45017 336.856576 
L 110.450093 337.690323 
L 110.397457 338.593548 
L 107.291954 337.620844 
L 106.502419 338.037717 
L 104.607535 341.164268 
L 105.133892 342.414888 
L 106.555054 342.97072 
L 106.291876 346.027792 
L 104.449628 348.737469 
L 103.975908 350.057568 
L 104.291721 358.742432 
L 103.239008 362.633251 
L 103.870636 365.551365 
L 103.449551 368.469479 
L 102.870559 369.928536 
L 101.659939 371.665509 
L 99.71242 371.943424 
L 98.291257 373.124566 
L 97.449087 375.278412 
L 95.659475 375.278412 
L 94.86994 377.432258 
L 93.869863 379.030273 
L 91.869708 383.824318 
L 89.974824 383.407444 
L 87.079864 381.253598 
L 85.869244 379.933499 
L 82.921647 378.474442 
L 81.55312 378.057568 
L 80.026686 379.586104 
L 77.342268 387.715136 
L 76.026377 390.355335 
L 74.131494 393.273449 
L 73.078781 396.191563 
L 71.341804 399.457072 
L 69.394285 401.124566 
L 68.446843 403.000496 
L 68.394208 404.251117 
L 67.657308 405.849132 
L 66.920409 406.266005 
L 65.604518 408.072457 
L 63.288549 408.419851 
L 62.604286 409.323077 
L 62.288472 412.102233 
L 60.709403 413.283375 
L 58.44607 417.591067 
L 58.024984 417.799504 
L 56.498551 421.690323 
L 53.550954 425.164268 
L 52.39297 427.526551 
L 51.866613 429.263524 
L 50.550722 430.305707 
L 49.234831 432.598511 
L 48.971652 433.91861 
L 48.234753 434.6134 
L 46.655684 437.323077 
L 46.445141 440.102233 
L 45.339793 441.769727 
L 43.655452 443.089826 
L 41.813204 445.799504 
L 41.392119 447.744913 
L 38.339251 449.620844 
L 35.496926 453.164268 
L 32.233516 459.556328 
L 30.022818 461.571216 
L 27.443671 466.087345 
L 27.443671 467.824318 
L 28.075299 470.325558 
L 28.970105 469.491811 
L 29.443826 468.032754 
L 30.654446 467.963275 
L 33.286229 469.839206 
L 34.391577 471.437221 
L 36.075918 473.035236 
L 37.760259 473.591067 
L 39.391964 474.841687 
L 44.392351 479.635732 
L 45.708242 479.496774 
L 46.287234 480.886352 
L 45.392428 480.677916 
L 43.07646 484.499256 
L 41.339483 486.514144 
L 40.128863 489.2933 
L 39.339328 489.501737 
L 38.444522 491.725062 
L 37.02336 494.434739 
L 37.391809 495.407444 
L 36.391732 497.422333 
L 33.917856 501.104715 
L 33.02305 501.938462 
L 32.759872 503.258561 
L 30.496539 506.107196 
L 29.812276 507.566253 
L 28.91747 510.553846 
L 26.390958 514.583623 
L 25.443517 518.335484 
L 26.706772 524.032754 
L 26.285687 525.074938 
L 24.07499 525.908685 
L 24.07499 528.826799 
L 24.864524 533.551365 
L 25.022431 536.052605 
L 18.916696 536.4 
L 18.916696 536.4 
" clip-path="url(#pa8f4d823e3)" style="fill: none; stroke: #000000; stroke-width: 3"/>
   </g>
  </g>
 </g>
 <defs>
  <clipPath id="pa8f4d823e3">
   <rect x="7.2" y="7.2" width="257.767309" height="554.4"/>
  </clipPath>
 </defs>
</svg>
