<?xml version="1.0" encoding="utf-8" standalone="no"?>
<!DOCTYPE svg PUBLIC "-//W3C//DTD SVG 1.1//EN"
  "http://www.w3.org/Graphics/SVG/1.1/DTD/svg11.dtd">
<svg xmlns:xlink="http://www.w3.org/1999/xlink" width="309.89342pt" height="568.8pt" viewBox="0 0 309.89342 568.8" xmlns="http://www.w3.org/2000/svg" version="1.1">
 <metadata>
  <rdf:RDF xmlns:dc="http://purl.org/dc/elements/1.1/" xmlns:cc="http://creativecommons.org/ns#" xmlns:rdf="http://www.w3.org/1999/02/22-rdf-syntax-ns#">
   <cc:Work>
    <dc:type rdf:resource="http://purl.org/dc/dcmitype/StillImage"/>
    <dc:date>2023-09-25T14:13:57.259831</dc:date>
    <dc:format>image/svg+xml</dc:format>
    <dc:creator>
     <cc:Agent>
      <dc:title>Matplotlib v3.6.2, https://matplotlib.org/</dc:title>
     </cc:Agent>
    </dc:creator>
   </cc:Work>
  </rdf:RDF>
 </metadata>
 <defs>
  <style type="text/css">*{stroke-linejoin: round; stroke-linecap: butt}</style>
 </defs>
 <g id="figure_1">
  <g id="patch_1">
   <path d="M 0 568.8 
L 309.89342 568.8 
L 309.89342 0 
L 0 0 
z
" style="fill: #ffffff"/>
  </g>
  <g id="axes_1">
   <g id="LineCollection_1">
    <path d="M 188.751882 35.721033 
L 190.462262 37.315129 
L 194.386077 39.307749 
L 204.950193 45.684133 
L 207.063016 44.488561 
L 209.477672 40.104797 
L 217.124079 43.027306 
L 224.569266 44.754244 
L 236.843763 52.591882 
L 243.685286 56.178598 
L 245.496277 56.577122 
L 258.575659 61.757934 
L 261.795199 63.617712 
L 264.914129 66.274539 
L 267.328784 70.791144 
L 268.33489 76.503321 
L 269.642828 80.887085 
L 271.353209 83.942435 
L 274.874581 88.060517 
L 278.597174 90.584502 
L 284.130759 98.42214 
L 289.261901 104.532841 
L 289.16129 108.119557 
L 284.935644 114.230258 
L 282.420378 119.942435 
L 279.50267 124.857565 
L 274.371528 135.086347 
L 271.755651 139.337269 
L 268.133669 146.776384 
L 266.72512 147.839114 
L 259.883597 158.864945 
L 257.468942 164.975646 
L 248.715817 182.510701 
L 245.295056 187.957196 
L 236.944374 203.765314 
L 234.026665 207.750554 
L 230.404683 214.259779 
L 227.990027 220.636162 
L 223.261328 228.606642 
L 220.544841 232.459041 
L 219.538735 234.983026 
L 216.218584 240.296679 
L 210.78561 251.189668 
L 208.572176 254.909225 
L 205.151414 258.097417 
L 200.623936 266.067897 
L 196.700122 275.233948 
L 190.864705 285.861255 
L 188.953103 287.056827 
L 186.035395 293.831734 
L 183.419518 297.551292 
L 182.01097 301.270849 
L 179.898146 303.927675 
L 179.495704 306.850185 
L 175.571889 310.171218 
L 169.535251 323.853875 
L 167.321818 326.112177 
L 165.913269 330.3631 
L 164.102277 333.41845 
L 161.587012 339.263469 
L 160.882737 342.318819 
L 159.272967 345.108487 
L 155.248542 348.695203 
L 152.833887 352.813284 
L 151.928391 356.798524 
L 152.330834 358.791144 
L 150.922285 359.853875 
L 149.614347 363.174908 
L 147.803355 363.573432 
L 146.394807 367.691513 
L 143.980151 372.075277 
L 142.269771 373.005166 
L 138.144735 379.514391 
L 133.717867 384.960886 
L 131.705655 388.813284 
L 130.297106 393.197048 
L 126.976955 398.643542 
L 125.669017 399.839114 
L 121.34276 411.529151 
L 117.117113 419.101107 
L 115.104901 421.757934 
L 112.891467 426.805904 
L 110.27559 430.658303 
L 109.571316 432.916605 
L 107.156661 436.503321 
L 104.440174 442.614022 
L 100.61697 448.724723 
L 98.101704 451.647232 
L 95.385217 456.296679 
L 90.153464 469.049446 
L 87.940031 469.580812 
L 88.744916 467.721033 
L 88.342473 473.566052 
L 89.851633 474.894465 
L 85.324154 485.38893 
L 83.513163 492.695203 
L 80.293623 496.281919 
L 79.186906 503.322509 
L 76.470419 506.643542 
L 74.760038 511.42583 
L 69.930728 515.543911 
L 65.906303 521.123247 
L 64.195922 522.584502 
L 55.442797 522.053137 
L 46.186619 517.536531 
L 45.281123 524.44428 
L 48.903106 524.577122 
L 56.046461 528.163838 
L 53.531195 532.016236 
L 51.921425 536.4 
L 49.003717 535.470111 
L 40.954866 528.828044 
L 33.912122 524.311439 
L 28.881591 522.318819 
L 25.158997 518.864945 
L 21.838847 518.599262 
L 20.631519 517.40369 
L 22.643732 514.746863 
L 23.649838 509.43321 
L 28.177316 500.267159 
L 31.89991 495.086347 
L 34.213954 490.702583 
L 35.22006 491.233948 
L 39.445707 486.053137 
L 40.451813 483.39631 
L 43.1683 479.676753 
L 46.086008 473.964576 
L 51.720204 464.798524 
L 51.720204 461.610332 
L 55.342186 455.233948 
L 57.253788 450.451661 
L 60.473329 446.732103 
L 64.195922 440.090037 
L 67.817905 435.573432 
L 70.836223 434.776384 
L 74.357595 431.189668 
L 76.470419 420.828044 
L 77.476525 418.4369 
L 78.583242 412.060517 
L 79.589348 409.270849 
L 84.116827 409.40369 
L 90.455296 400.636162 
L 94.379111 397.182288 
L 96.391323 391.868635 
L 93.976668 392.001476 
L 94.479721 389.610332 
L 96.894377 385.35941 
L 102.629183 370.348339 
L 104.440174 370.481181 
L 105.848723 372.606642 
L 110.678033 369.816974 
L 114.501237 360.650923 
L 116.211618 353.610332 
L 121.141538 339.794834 
L 122.851919 339.529151 
L 126.473902 331.42583 
L 128.989168 328.237638 
L 130.297106 323.322509 
L 132.812372 319.735793 
L 133.818478 311.898155 
L 132.409929 312.296679 
L 130.297106 314.820664 
L 126.775734 315.617712 
L 122.650698 314.42214 
L 116.714671 309.507011 
L 113.696352 304.459041 
L 109.068263 302.732103 
L 104.943227 299.676753 
L 106.95544 295.160148 
L 103.735899 296.887085 
L 101.824297 295.691513 
L 96.994987 296.090037 
L 93.976668 295.027306 
L 89.348579 292.503321 
L 86.632092 289.846494 
L 84.217437 289.846494 
L 76.168587 285.728413 
L 77.778357 283.204428 
L 77.979578 278.687823 
L 79.488738 274.171218 
L 81.50095 274.4369 
L 86.732703 269.787454 
L 87.336367 268.193358 
L 85.927818 263.676753 
L 82.004003 260.222878 
L 80.796676 253.580812 
L 80.696065 249.064207 
L 79.388127 247.868635 
L 80.293623 243.086347 
L 79.89118 241.226568 
L 77.476525 237.772694 
L 74.558817 236.178598 
L 76.872861 225.019926 
L 76.973472 217.049446 
L 78.180799 209.876015 
L 78.28141 205.492251 
L 79.186906 198.584502 
L 79.287516 191.543911 
L 80.595455 175.470111 
L 80.092401 167.36679 
L 80.595455 159.130627 
L 80.897286 141.994096 
L 82.305835 134.156458 
L 84.519269 130.304059 
L 86.732703 124.060517 
L 88.342473 120.872325 
L 93.272394 114.628782 
L 91.964456 112.901845 
L 97.900483 104.134317 
L 102.22674 95.765314 
L 105.144448 92.311439 
L 108.967652 85.270849 
L 110.17498 81.949815 
L 117.921998 67.868635 
L 120.135432 65.876015 
L 124.361079 56.975646 
L 131.403823 45.285609 
L 133.516646 40.636162 
L 137.742292 32.665683 
L 139.352062 32.4 
L 142.772824 34.259779 
L 145.3887 34.525461 
L 145.3887 34.525461 
" clip-path="url(#pa569f7fc65)" style="fill: none; stroke: #000000; stroke-width: 3"/>
   </g>
  </g>
 </g>
 <defs>
  <clipPath id="pa569f7fc65">
   <rect x="7.2" y="7.2" width="295.49342" height="554.4"/>
  </clipPath>
 </defs>
</svg>
