<?xml version="1.0" encoding="utf-8" standalone="no"?>
<!DOCTYPE svg PUBLIC "-//W3C//DTD SVG 1.1//EN"
  "http://www.w3.org/Graphics/SVG/1.1/DTD/svg11.dtd">
<svg xmlns:xlink="http://www.w3.org/1999/xlink" width="292.286046pt" height="568.8pt" viewBox="0 0 292.286046 568.8" xmlns="http://www.w3.org/2000/svg" version="1.1">
 <metadata>
  <rdf:RDF xmlns:dc="http://purl.org/dc/elements/1.1/" xmlns:cc="http://creativecommons.org/ns#" xmlns:rdf="http://www.w3.org/1999/02/22-rdf-syntax-ns#">
   <cc:Work>
    <dc:type rdf:resource="http://purl.org/dc/dcmitype/StillImage"/>
    <dc:date>2023-09-25T14:13:56.802820</dc:date>
    <dc:format>image/svg+xml</dc:format>
    <dc:creator>
     <cc:Agent>
      <dc:title>Matplotlib v3.6.2, https://matplotlib.org/</dc:title>
     </cc:Agent>
    </dc:creator>
   </cc:Work>
  </rdf:RDF>
 </metadata>
 <defs>
  <style type="text/css">*{stroke-linejoin: round; stroke-linecap: butt}</style>
 </defs>
 <g id="figure_1">
  <g id="patch_1">
   <path d="M 0 568.8 
L 292.286046 568.8 
L 292.286046 0 
L 0 0 
z
" style="fill: #ffffff"/>
  </g>
  <g id="axes_1">
   <g id="LineCollection_1">
    <path d="M 201.198045 104.356039 
L 202.557908 105.330498 
L 203.17956 105.27921 
L 204.345156 105.997232 
L 205.666166 106.202381 
L 207.686534 107.638425 
L 208.347039 108.305159 
L 209.434929 107.638425 
L 210.211994 106.048519 
L 210.794792 105.84337 
L 212.465481 106.510105 
L 215.806858 107.484563 
L 217.089015 108.151297 
L 219.653328 110.100214 
L 221.324016 110.92081 
L 229.288928 114.30577 
L 231.814387 115.99825 
L 232.630305 117.742017 
L 233.368516 121.280839 
L 234.572966 123.12718 
L 237.02072 125.178671 
L 238.885675 128.153333 
L 240.750629 130.204823 
L 241.022602 131.076707 
L 238.264023 137.282467 
L 237.253839 138.872372 
L 236.632187 140.257128 
L 235.272325 142.308619 
L 234.223287 145.026844 
L 233.213104 146.821899 
L 232.785718 148.001506 
L 231.231589 149.950422 
L 229.67746 152.514786 
L 227.229707 157.079353 
L 226.569202 158.771833 
L 226.102963 159.335993 
L 225.714431 160.669462 
L 225.092779 161.131047 
L 223.072411 165.02888 
L 222.139934 166.413636 
L 221.052044 168.567701 
L 218.992823 171.952661 
L 218.099198 173.799003 
L 217.827226 175.081184 
L 215.22406 178.773868 
L 214.563555 180.415061 
L 213.359105 182.210115 
L 212.426627 184.210319 
L 210.717085 187.236267 
L 209.318369 189.031322 
L 208.813277 190.621227 
L 207.841947 192.364994 
L 206.248964 194.775496 
L 205.238781 196.570551 
L 203.568092 200.365808 
L 202.907587 200.981256 
L 201.936256 203.34047 
L 199.605063 207.443452 
L 199.061118 209.084644 
L 197.856668 209.956528 
L 197.118456 212.110593 
L 195.8363 213.700499 
L 194.709556 215.495553 
L 193.19428 218.265066 
L 192.805748 219.547247 
L 191.98983 220.367844 
L 190.78538 222.573196 
L 190.008316 224.368251 
L 188.765013 226.471029 
L 187.210883 229.753414 
L 186.511525 230.779159 
L 185.501341 233.39481 
L 184.374598 234.52313 
L 183.636387 236.677195 
L 182.781616 237.446505 
L 180.877808 240.934039 
L 179.401385 243.959988 
L 178.352348 246.524351 
L 177.109045 247.755246 
L 175.632622 250.11446 
L 174.700145 251.140206 
L 174.738998 251.755653 
L 173.573401 253.961005 
L 173.262575 255.961209 
L 172.912896 256.268933 
L 172.058125 258.320423 
L 171.242207 258.884583 
L 170.814822 259.961616 
L 169.454959 261.807958 
L 168.911014 263.192714 
L 167.590004 265.398067 
L 166.929499 267.193121 
L 166.191288 268.577877 
L 164.947985 269.808772 
L 163.860094 272.167986 
L 163.121883 272.937295 
L 161.218075 276.78384 
L 159.35312 279.861077 
L 158.420643 280.989397 
L 157.837844 282.630589 
L 157.449312 284.528218 
L 156.94422 284.68208 
L 155.934036 286.118124 
L 155.428944 287.451593 
L 153.719402 290.631403 
L 151.388209 293.965076 
L 149.290134 298.273206 
L 148.39651 299.452814 
L 147.541739 301.350443 
L 145.365959 304.991839 
L 143.539857 308.838384 
L 142.762792 310.017991 
L 142.335407 309.915417 
L 142.102288 310.838588 
L 140.509305 314.069686 
L 140.237333 315.454442 
L 139.227149 317.403358 
L 138.255818 318.429103 
L 136.973662 320.37802 
L 132.466687 328.481408 
L 128.581365 336.277073 
L 124.773749 342.841844 
L 124.07439 344.534324 
L 123.10306 345.970367 
L 122.364849 347.714135 
L 120.966132 349.714338 
L 120.227921 351.355531 
L 119.606269 352.176127 
L 118.518379 354.432767 
L 116.84769 356.740694 
L 113.855992 362.023283 
L 111.563652 366.741712 
L 108.066861 373.203908 
L 106.784705 374.998962 
L 104.608924 379.666104 
L 103.793006 380.640562 
L 103.7153 381.358583 
L 102.51085 382.589478 
L 100.956721 383.358787 
L 100.684748 385.666714 
L 99.208326 386.795034 
L 98.198142 388.282365 
L 97.226811 390.179994 
L 95.478416 392.641783 
L 93.730021 395.872881 
L 92.952956 396.437041 
L 92.137038 398.026946 
L 88.290569 403.565971 
L 87.552358 405.104589 
L 85.065751 408.951135 
L 83.900154 411.156487 
L 81.840933 413.926 
L 80.286804 416.951949 
L 79.354327 417.567396 
L 79.160061 418.541854 
L 77.761345 421.208792 
L 76.828867 421.926814 
L 76.284922 423.414145 
L 75.002765 425.055337 
L 75.080472 425.722072 
L 77.139693 428.132574 
L 78.227583 428.799308 
L 78.654969 429.671192 
L 79.665153 430.440501 
L 82.190612 431.466246 
L 84.249833 432.953577 
L 87.202679 434.440908 
L 88.018596 435.005068 
L 87.902037 435.825664 
L 87.086119 437.107846 
L 86.347908 439.108049 
L 85.765109 439.672209 
L 83.511622 442.903307 
L 82.190612 445.416383 
L 80.519924 448.237183 
L 78.693822 451.724718 
L 76.207215 455.468688 
L 74.536527 457.622754 
L 73.914875 458.853648 
L 71.855654 461.930884 
L 70.806617 463.007917 
L 70.418085 464.290099 
L 69.019369 466.854462 
L 67.34868 469.572687 
L 65.367165 472.290913 
L 64.201569 474.444978 
L 61.520696 478.291523 
L 60.083127 480.855887 
L 57.674226 484.343421 
L 55.731565 487.830956 
L 54.993354 489.882446 
L 53.86661 491.164628 
L 51.341151 495.011173 
L 51.418857 495.524046 
L 49.592755 497.216526 
L 49.476196 497.985835 
L 48.660278 499.57574 
L 47.300415 500.345049 
L 46.406791 502.704264 
L 45.163488 504.65318 
L 44.464129 506.755958 
L 44.386423 507.832991 
L 43.453946 508.807449 
L 43.02656 509.833194 
L 42.249496 510.29478 
L 40.73422 512.807856 
L 39.957155 513.628452 
L 39.141237 515.474794 
L 37.975641 517.013412 
L 36.926604 519.013616 
L 35.294768 519.475201 
L 34.789676 520.090648 
L 33.313253 519.423914 
L 31.331739 518.859754 
L 27.912655 518.705892 
L 26.708205 518.859754 
L 25.464902 518.603317 
L 23.017148 519.321339 
L 22.473203 519.218765 
L 19.831184 519.988074 
L 20.064303 520.706095 
L 22.667469 520.347085 
L 22.939442 520.706095 
L 23.056002 523.270459 
L 23.366828 521.834415 
L 23.949626 521.321543 
L 25.309489 521.116394 
L 26.28082 521.526692 
L 27.096737 522.347288 
L 28.378894 524.296204 
L 28.57316 524.911652 
L 27.524123 526.347695 
L 25.464902 527.629877 
L 27.213297 530.091666 
L 27.873802 531.835433 
L 29.738757 534.553658 
L 31.409445 536.4 
L 31.09862 535.681978 
L 33.352107 533.938211 
L 34.401144 532.707317 
L 35.644447 530.809688 
L 35.955273 529.937804 
L 35.994126 528.347899 
L 35.255915 526.091259 
L 35.100502 524.75779 
L 35.372474 524.398779 
L 38.597292 524.19363 
L 39.063531 524.450066 
L 40.811926 523.680757 
L 42.327202 524.706502 
L 43.415092 524.860364 
L 44.075597 525.527099 
L 46.018259 524.706502 
L 46.134818 521.218968 
L 46.484497 518.962328 
L 48.349452 519.013616 
L 49.243076 518.55203 
L 51.263444 515.73123 
L 52.934133 512.859143 
L 53.98317 511.730823 
L 53.86661 510.910227 
L 56.430923 508.192002 
L 56.547483 507.422693 
L 57.518814 505.678925 
L 58.179318 505.319915 
L 59.966567 502.550402 
L 59.500328 500.909209 
L 60.355099 500.70406 
L 60.704778 499.729602 
L 61.520696 498.857719 
L 62.025788 498.806431 
L 62.997119 497.421675 
L 64.162715 496.652366 
L 65.406019 496.549791 
L 65.988817 495.780482 
L 65.872257 495.216322 
L 67.115561 493.831566 
L 68.786249 491.523639 
L 68.825102 490.703043 
L 67.931478 489.831159 
L 67.34868 488.600265 
L 67.581799 487.93353 
L 65.949964 485.523028 
L 64.745514 485.010156 
L 67.504093 482.240643 
L 67.698359 481.16361 
L 69.796433 480.137865 
L 71.117443 479.778854 
L 72.632719 478.599247 
L 74.886206 475.72716 
L 75.430151 475.624585 
L 78.033317 472.701211 
L 78.18873 472.290913 
L 80.403364 470.393284 
L 81.452401 468.905953 
L 82.617998 465.931291 
L 84.832632 462.238608 
L 85.143458 461.161575 
L 86.697587 458.648499 
L 88.096303 457.109881 
L 88.989927 455.212252 
L 91.049148 452.442739 
L 92.292451 449.827089 
L 94.934471 444.954798 
L 96.915985 441.928849 
L 98.66438 438.800326 
L 100.063097 436.902697 
L 101.384106 434.03061 
L 102.200024 429.209606 
L 103.015942 426.69653 
L 103.171355 425.56821 
L 104.259245 422.644836 
L 106.046493 420.029185 
L 107.095531 417.567396 
L 107.600622 417.105811 
L 108.5331 414.951745 
L 109.62099 414.131149 
L 111.019706 411.566785 
L 112.418423 409.669156 
L 113.817139 406.745782 
L 115.7598 403.309535 
L 117.663608 400.488735 
L 117.896727 399.873288 
L 120.266774 396.693477 
L 121.89861 394.077826 
L 122.481408 392.795645 
L 124.696042 389.564547 
L 126.055905 388.590089 
L 126.522144 387.820779 
L 127.143795 385.923151 
L 128.270539 384.384532 
L 128.775631 381.307296 
L 129.474989 378.076198 
L 129.785815 375.922133 
L 130.601733 373.050046 
L 130.795999 371.203704 
L 130.718292 368.690628 
L 131.067971 367.511021 
L 130.44632 363.920912 
L 130.990265 361.459123 
L 131.728476 359.766643 
L 133.593431 356.484258 
L 134.098523 356.176534 
L 134.564762 354.637916 
L 135.846918 352.483851 
L 137.401047 349.355327 
L 140.120773 344.995909 
L 140.276186 344.329175 
L 141.985728 341.610949 
L 143.617563 337.610542 
L 145.443665 335.097466 
L 146.181876 333.456274 
L 147.580592 331.45607 
L 148.124538 329.866165 
L 148.823896 328.994281 
L 150.416878 324.891299 
L 151.155089 324.12199 
L 152.748072 321.352478 
L 153.991375 319.608711 
L 155.390091 316.941773 
L 156.633394 315.351867 
L 158.187523 312.018195 
L 158.770322 311.300173 
L 159.46968 309.607693 
L 160.596423 308.274224 
L 161.334635 306.889468 
L 161.023809 306.222733 
L 161.723167 305.453424 
L 162.267112 303.966093 
L 163.238443 302.273614 
L 164.792572 300.016974 
L 165.103398 298.786079 
L 166.307848 297.144887 
L 166.540967 296.221716 
L 167.706564 294.529236 
L 168.133949 293.247054 
L 170.115464 289.605658 
L 171.553033 287.656742 
L 172.679777 285.297527 
L 173.767667 283.502473 
L 174.894411 281.091971 
L 176.254274 279.963651 
L 178.85744 275.552946 
L 180.528129 276.168393 
L 181.344046 274.629775 
L 184.296891 270.937092 
L 184.607717 270.116495 
L 185.656754 268.680452 
L 185.384782 267.603419 
L 184.646571 266.936685 
L 184.530011 265.808365 
L 185.035103 264.936481 
L 184.87969 264.372321 
L 185.540195 262.064394 
L 187.094324 260.06419 
L 185.073956 258.884583 
L 184.102625 258.833296 
L 181.616019 256.679231 
L 180.644688 255.602198 
L 178.779733 254.730314 
L 176.565099 253.448133 
L 176.526246 253.191696 
L 174.505878 252.165951 
L 172.524364 251.653078 
L 170.154317 250.063173 
L 168.405922 248.370693 
L 166.230141 247.703958 
L 165.025691 246.832075 
L 164.093214 246.575639 
L 163.626975 243.652264 
L 163.121883 243.498402 
L 163.044177 240.882752 
L 163.898948 240.216017 
L 164.870278 238.933835 
L 165.336517 236.77977 
L 166.57982 235.497588 
L 166.890646 234.471843 
L 168.056243 233.446097 
L 169.144133 231.240745 
L 170.154317 229.804701 
L 169.299546 228.163509 
L 169.649225 227.086476 
L 170.775969 225.70172 
L 171.125648 225.70172 
L 172.446657 224.214389 
L 172.563217 224.522113 
L 175.632622 220.62428 
L 175.865741 220.06012 
L 177.730696 217.547044 
L 179.906477 213.905648 
L 173.495695 223.393793 
L 181.654872 211.033561 
L 182.082258 209.905241 
L 183.44212 207.648601 
L 183.752946 205.084237 
L 183.403267 204.263641 
L 181.771432 202.827597 
L 181.03322 201.750565 
L 180.683541 200.622245 
L 180.877808 199.237489 
L 182.703909 197.545009 
L 183.519827 196.519263 
L 184.568864 194.467772 
L 185.035103 192.877867 
L 187.249737 188.518449 
L 187.987948 187.390129 
L 190.241435 185.030915 
L 191.562445 184.36418 
L 193.971345 184.36418 
L 196.963043 185.800224 
L 199.488503 185.800224 
L 202.013963 184.159031 
L 203.257266 182.363977 
L 203.878918 180.517635 
L 205.4719 178.517432 
L 207.453414 177.030101 
L 208.230479 176.722377 
L 209.706902 175.491483 
L 210.367406 174.568312 
L 212.232361 170.157607 
L 212.426627 168.465127 
L 212.115802 167.131658 
L 211.416444 165.900763 
L 211.027911 163.490262 
L 211.299884 162.156793 
L 213.281398 159.233418 
L 214.602408 158.053811 
L 217.477547 156.053607 
L 218.099198 155.130437 
L 218.332318 153.74568 
L 218.215758 152.155775 
L 218.83741 149.540124 
L 220.780071 143.590801 
L 222.21764 140.667426 
L 223.305531 139.231383 
L 225.520165 137.02603 
L 227.229707 134.461667 
L 229.094662 130.102249 
L 230.920763 127.332736 
L 232.474892 125.794118 
L 234.61182 124.768373 
L 237.137279 124.050351 
L 240.167831 124.665798 
L 242.032786 124.460649 
L 243.509209 123.69134 
L 244.36398 122.614308 
L 247.549944 117.229144 
L 257.457517 99.2786 
L 258.467701 96.4578 
L 258.312288 93.021553 
L 258.895086 89.380157 
L 258.70082 87.790251 
L 257.146691 84.713015 
L 256.991278 83.225684 
L 257.61293 81.174194 
L 258.351141 79.635575 
L 260.02183 76.91735 
L 261.692519 74.711998 
L 265.344722 70.865452 
L 266.238346 68.916536 
L 266.005227 64.916129 
L 266.704585 60.248987 
L 267.481649 58.043635 
L 268.530686 56.45373 
L 269.851696 55.427984 
L 271.094999 54.915111 
L 272.105183 53.991941 
L 272.454862 53.222632 
L 272.027477 51.478864 
L 270.900733 50.709555 
L 269.074632 50.914704 
L 266.393759 52.709759 
L 264.645364 52.453322 
L 263.674033 51.37629 
L 263.790593 49.68381 
L 264.373391 48.709352 
L 266.665732 45.837265 
L 267.326236 44.708945 
L 268.491833 41.836858 
L 268.724953 40.195665 
L 268.530686 39.016058 
L 267.714769 37.733876 
L 265.267015 35.2208 
L 263.285501 34.041193 
L 261.187427 33.323171 
L 258.040315 32.861585 
L 256.563893 32.4 
L 255.359443 32.4 
L 253.377928 34.041193 
L 252.79513 36.246545 
L 253.960726 37.990312 
L 256.835865 39.221207 
L 257.49637 39.887941 
L 258.156875 41.580421 
L 258.273435 43.119039 
L 259.205912 46.811723 
L 258.895086 48.914501 
L 257.224398 51.273715 
L 255.165177 52.761046 
L 252.756276 53.838079 
L 251.35756 54.915111 
L 250.541643 55.940857 
L 249.919991 57.633337 
L 248.793247 59.325817 
L 247.472238 60.1977 
L 244.946778 61.223446 
L 242.965263 62.249191 
L 241.022602 64.095533 
L 238.924528 67.634354 
L 237.448105 71.583474 
L 236.437921 73.583678 
L 235.660857 74.609423 
L 234.106728 75.994179 
L 233.485076 76.250616 
L 231.775534 77.737946 
L 230.804204 80.045874 
L 230.648791 84.354004 
L 230.065992 85.687473 
L 228.511863 87.226091 
L 225.830991 88.354411 
L 223.849476 89.380157 
L 221.479429 91.431648 
L 220.391539 92.611255 
L 219.459061 93.996011 
L 218.526584 95.996215 
L 217.749519 99.227313 
L 218.021492 101.842963 
L 219.342502 106.561392 
L 219.264795 107.843574 
L 218.798557 109.433479 
L 217.39984 111.792694 
L 216.078831 113.587748 
L 214.641261 114.86993 
L 212.271215 116.664984 
L 211.105618 118.049741 
L 210.833645 117.793304 
L 211.222177 115.075079 
L 211.066764 113.690323 
L 209.940021 110.561799 
L 207.958506 108.715457 
L 205.976992 107.689712 
L 205.044514 106.715254 
L 201.236898 104.71505 
L 200.459834 105.792083 
L 200.459834 105.792083 
" clip-path="url(#p26d54ca3f2)" style="fill: none; stroke: #000000; stroke-width: 3"/>
   </g>
  </g>
 </g>
 <defs>
  <clipPath id="p26d54ca3f2">
   <rect x="7.2" y="7.2" width="277.886046" height="554.4"/>
  </clipPath>
 </defs>
</svg>
