<?xml version="1.0" encoding="utf-8" standalone="no"?>
<!DOCTYPE svg PUBLIC "-//W3C//DTD SVG 1.1//EN"
  "http://www.w3.org/Graphics/SVG/1.1/DTD/svg11.dtd">
<svg xmlns:xlink="http://www.w3.org/1999/xlink" width="388.478304pt" height="568.8pt" viewBox="0 0 388.478304 568.8" xmlns="http://www.w3.org/2000/svg" version="1.1">
 <metadata>
  <rdf:RDF xmlns:dc="http://purl.org/dc/elements/1.1/" xmlns:cc="http://creativecommons.org/ns#" xmlns:rdf="http://www.w3.org/1999/02/22-rdf-syntax-ns#">
   <cc:Work>
    <dc:type rdf:resource="http://purl.org/dc/dcmitype/StillImage"/>
    <dc:date>2023-09-25T14:13:56.663107</dc:date>
    <dc:format>image/svg+xml</dc:format>
    <dc:creator>
     <cc:Agent>
      <dc:title>Matplotlib v3.6.2, https://matplotlib.org/</dc:title>
     </cc:Agent>
    </dc:creator>
   </cc:Work>
  </rdf:RDF>
 </metadata>
 <defs>
  <style type="text/css">*{stroke-linejoin: round; stroke-linecap: butt}</style>
 </defs>
 <g id="figure_1">
  <g id="patch_1">
   <path d="M 0 568.8 
L 388.478304 568.8 
L 388.478304 0 
L 0 0 
z
" style="fill: #ffffff"/>
  </g>
  <g id="axes_1">
   <g id="LineCollection_1">
    <path d="M 330.267627 81.053465 
L 325.859296 97.687129 
L 316.727755 109.330693 
L 311.059902 123.053465 
L 299.724196 141.766337 
L 292.481939 160.89505 
L 281.146233 184.182178 
L 261.623628 216.617822 
L 245.24983 239.489109 
L 239.581977 239.489109 
L 218.170088 226.182178 
L 198.332602 216.20198 
L 179.124877 204.142574 
L 157.398107 193.330693 
L 141.024309 183.350495 
L 105.757668 164.637624 
L 101.034457 160.479208 
L 92.847558 168.380198 
L 76.158879 205.805941 
L 68.916623 228.677228 
L 67.342219 242.4 
L 63.24877 253.627723 
L 63.878531 275.251485 
L 58.525559 293.548515 
L 58.840439 302.281188 
L 51.598183 340.954455 
L 46.874972 351.350495 
L 39.317834 377.964356 
L 36.798788 413.726733 
L 36.798788 469.033663 
L 35.224385 479.013861 
L 34.279743 506.459406 
L 30.816055 514.360396 
L 31.445816 522.261386 
L 28.92677 536.4 
L 45.300568 525.588119 
L 50.023779 526.00396 
L 42.151761 515.192079 
L 26.722605 511.865347 
L 24.51844 496.063366 
L 24.203559 479.013861 
L 27.667247 450.320792 
L 28.297009 424.954455 
L 27.037486 395.429703 
L 35.224385 385.865347 
L 60.414843 336.79604 
L 73.010072 324.320792 
L 83.086255 306.439604 
L 90.328512 296.459406 
L 100.719576 276.49901 
L 113.944567 253.627723 
L 125.910034 243.647525 
L 133.782053 232.835644 
L 140.709429 214.954455 
L 159.287391 175.449505 
L 166.529648 165.053465 
L 180.06952 139.271287 
L 199.907005 112.241584 
L 202.740932 102.261386 
L 213.761757 85.627723 
L 230.450436 54.023762 
L 245.564711 32.4 
L 252.806968 32.815842 
L 278.627187 47.786139 
L 291.222416 56.518812 
L 302.243242 60.677228 
L 328.378342 74.4 
L 340.658691 79.390099 
L 356.087846 88.538614 
L 360.496176 98.934653 
L 343.807498 83.548515 
L 332.786672 81.469307 
L 308.855737 130.954455 
L 294.056343 157.152475 
L 286.814086 167.964356 
L 283.350398 177.112871 
L 275.793261 187.508911 
L 253.75161 232.835644 
L 238.637335 234.914851 
L 218.484968 227.845545 
L 195.498675 217.865347 
L 163.380841 198.736634 
L 158.027869 193.330693 
L 152.360015 192.914851 
L 133.152291 180.855446 
L 119.61242 174.20198 
L 99.145172 162.142574 
L 90.958274 180.023762 
L 82.456494 208.716832 
L 75.214237 243.231683 
L 73.010072 246.974257 
L 70.491026 267.766337 
L 61.044604 287.726733 
L 60.099962 306.439604 
L 67.342219 315.172277 
L 65.767815 324.320792 
L 58.210678 336.380198 
L 48.134495 374.221782 
L 44.670807 398.756436 
L 40.262476 417.469307 
L 39.317834 427.865347 
L 42.151761 469.449505 
L 40.577357 492.736634 
L 36.798788 502.30099 
L 34.594623 516.023762 
L 31.130935 520.182178 
L 28.92677 531.409901 
L 97.570769 283.152475 
L 114.889209 256.538614 
L 130.003484 230.756436 
L 154.2493 187.508911 
L 183.533208 138.023762 
L 205.259978 95.607921 
L 228.561152 54.439604 
L 242.101023 34.479208 
L 260.993867 44.043564 
L 271.699811 57.766337 
L 284.29504 60.261386 
L 315.468232 69.825743 
L 326.489058 78.974257 
L 335.620599 78.558416 
L 346.956305 89.370297 
L 364.274745 96.439604 
" clip-path="url(#pf6c49e7a22)" style="fill: none; stroke: #000000; stroke-width: 3"/>
   </g>
  </g>
 </g>
 <defs>
  <clipPath id="pf6c49e7a22">
   <rect x="7.2" y="7.2" width="374.078304" height="554.4"/>
  </clipPath>
 </defs>
</svg>
