<?xml version="1.0" encoding="utf-8" standalone="no"?>
<!DOCTYPE svg PUBLIC "-//W3C//DTD SVG 1.1//EN"
  "http://www.w3.org/Graphics/SVG/1.1/DTD/svg11.dtd">
<svg xmlns:xlink="http://www.w3.org/1999/xlink" width="298.449788pt" height="568.8pt" viewBox="0 0 298.449788 568.8" xmlns="http://www.w3.org/2000/svg" version="1.1">
 <metadata>
  <rdf:RDF xmlns:dc="http://purl.org/dc/elements/1.1/" xmlns:cc="http://creativecommons.org/ns#" xmlns:rdf="http://www.w3.org/1999/02/22-rdf-syntax-ns#">
   <cc:Work>
    <dc:type rdf:resource="http://purl.org/dc/dcmitype/StillImage"/>
    <dc:date>2023-09-25T14:13:56.602633</dc:date>
    <dc:format>image/svg+xml</dc:format>
    <dc:creator>
     <cc:Agent>
      <dc:title>Matplotlib v3.6.2, https://matplotlib.org/</dc:title>
     </cc:Agent>
    </dc:creator>
   </cc:Work>
  </rdf:RDF>
 </metadata>
 <defs>
  <style type="text/css">*{stroke-linejoin: round; stroke-linecap: butt}</style>
 </defs>
 <g id="figure_1">
  <g id="patch_1">
   <path d="M -0 568.8 
L 298.449788 568.8 
L 298.449788 0 
L -0 0 
z
" style="fill: #ffffff"/>
  </g>
  <g id="axes_1">
   <g id="LineCollection_1">
    <path d="M 163.102404 169.997938 
L 164.718519 166.379381 
L 165.772507 165.451546 
L 167.950749 166.379381 
L 173.150424 167.863918 
L 177.787971 169.534021 
L 179.755416 170.83299 
L 183.971368 174.54433 
L 187.906257 176.678351 
L 198.446138 180.482474 
L 201.116241 181.781443 
L 204.489003 184.193814 
L 205.332193 185.4 
L 206.807776 192.82268 
L 208.986018 197.83299 
L 211.726387 201.358763 
L 214.045161 202.472165 
L 217.417923 207.575258 
L 220.298824 210.358763 
L 221.001483 211.936082 
L 220.509621 213.235052 
L 215.239681 222.791753 
L 210.391336 232.812371 
L 208.986018 235.224742 
L 209.12655 235.96701 
L 206.596979 239.863918 
L 205.05113 242.83299 
L 204.207939 243.389691 
L 195.354439 259.719588 
L 194.019388 262.96701 
L 188.608915 272.802062 
L 186.571205 277.25567 
L 182.56605 284.028866 
L 180.809404 286.25567 
L 178.701427 289.781443 
L 177.928503 292.472165 
L 175.398932 296.554639 
L 172.02617 302.585567 
L 168.723674 309.173196 
L 165.772507 313.719588 
L 160.010705 324.11134 
L 157.5514 328.193814 
L 155.51369 332.369072 
L 150.805876 339.97732 
L 148.065507 345.729897 
L 143.919821 353.709278 
L 141.88211 355.472165 
L 139.141741 360.482474 
L 139.633603 361.874227 
L 138.298551 364.379381 
L 136.190575 369.668041 
L 133.801535 371.802062 
L 132.044888 375.420619 
L 127.75867 383.214433 
L 126.212821 385.162887 
L 119.678095 397.317526 
L 117.570119 400.101031 
L 114.970281 406.039175 
L 111.527254 412.25567 
L 108.365289 418.750515 
L 103.727742 426.358763 
L 101.830563 430.070103 
L 99.090194 434.523711 
L 95.366103 441.668041 
L 93.328393 444.637113 
L 88.620579 452.987629 
L 86.582869 457.534021 
L 83.772234 463.101031 
L 82.226385 464.956701 
L 76.394318 475.626804 
L 74.848468 479.152577 
L 73.443151 480.729897 
L 71.194643 484.534021 
L 70.070389 485.369072 
L 69.086667 487.781443 
L 64.800449 494.461856 
L 64.238322 496.503093 
L 62.341143 499.008247 
L 57.773861 506.802062 
L 53.417377 514.874227 
L 49.62302 524.152577 
L 48.006905 526.472165 
L 45.5476 531.11134 
L 43.509889 536.307216 
L 42.245104 536.4 
L 33.813199 531.668041 
L 30.299905 530.090722 
L 27.067675 527.028866 
L 26.083953 524.987629 
L 24.748902 526.101031 
L 20.814013 524.523711 
L 20.111354 523.131959 
L 23.484116 516.54433 
L 28.332461 507.729897 
L 32.688945 499.286598 
L 33.602401 496.96701 
L 33.813199 494.925773 
L 35.780644 493.905155 
L 38.380481 488.709278 
L 39.645266 485.183505 
L 42.104572 481.657732 
L 43.439624 478.68866 
L 45.266536 475.997938 
L 48.006905 470.894845 
L 49.552754 466.348454 
L 50.958072 464.4 
L 55.103758 456.884536 
L 56.157746 453.729897 
L 57.63333 451.503093 
L 59.389977 447.791753 
L 60.443965 446.956701 
L 62.762738 443.802062 
L 64.800449 439.905155 
L 67.611084 436.564948 
L 68.102945 434.616495 
L 70.702782 429.513402 
L 70.632516 428.863918 
L 73.443151 422.83299 
L 75.129532 421.162887 
L 80.540004 410.121649 
L 81.172397 407.987629 
L 83.561437 403.626804 
L 84.053298 402.142268 
L 86.091008 398.987629 
L 87.42606 395.83299 
L 89.393504 393.698969 
L 91.712278 388.96701 
L 92.696 385.25567 
L 94.452647 383.863918 
L 96.841686 379.224742 
L 98.457801 376.719588 
L 97.895674 374.585567 
L 98.106472 373.008247 
L 99.792853 371.987629 
L 101.338702 369.853608 
L 102.814286 366.420619 
L 104.500666 365.307216 
L 105.905984 365.307216 
L 106.468111 363.451546 
L 108.576087 359.554639 
L 109.349012 359.276289 
L 110.824595 355.193814 
L 113.846027 351.296907 
L 115.391877 347.121649 
L 116.516131 345.637113 
L 116.445865 342.946392 
L 113.63523 340.719588 
L 111.316456 337.008247 
L 111.175924 334.410309 
L 114.408154 331.25567 
L 116.726928 328.379381 
L 119.186234 322.812371 
L 122.840059 315.760825 
L 126.002023 311.028866 
L 128.039734 308.894845 
L 130.14771 307.410309 
L 134.152865 306.482474 
L 138.439083 307.96701 
L 140.336261 309.637113 
L 142.725301 310.472165 
L 144.763011 310.472165 
L 147.573646 309.451546 
L 151.227471 306.389691 
L 152.843587 303.420619 
L 154.529967 299.338144 
L 156.005551 297.296907 
L 160.78363 293.307216 
L 163.242936 291.54433 
L 165.772507 288.946392 
L 167.669686 285.698969 
L 168.934471 280.503093 
L 168.302078 276.420619 
L 166.685963 271.410309 
L 166.615697 267.884536 
L 167.739951 264.729897 
L 170.972182 260.925773 
L 173.572019 258.791753 
L 177.647439 256.379381 
L 179.474352 254.059794 
L 179.895947 251.925773 
L 179.544618 248.492784 
L 181.512062 240.606186 
L 183.128177 235.410309 
L 184.744292 231.235052 
L 186.782003 227.709278 
L 188.53865 225.575258 
L 191.841146 222.327835 
L 195.635503 217.595876 
L 199.289328 209.430928 
L 202.732356 203.678351 
L 205.261927 201.451546 
L 210.391336 199.224742 
L 214.888352 198.575258 
L 219.736697 199.410309 
L 222.055471 199.503093 
L 224.79584 198.482474 
L 227.606475 195.049485 
L 229.152324 191.709278 
L 237.303165 177.513402 
L 237.865292 174.915464 
L 239.481407 173.616495 
L 241.238054 170.647423 
L 242.713637 167.4 
L 246.226931 161.461856 
L 248.686236 156.729897 
L 251.777935 149.771134 
L 251.988732 146.987629 
L 251.777935 141.142268 
L 252.550859 135.853608 
L 252.269796 132.327835 
L 249.951022 127.781443 
L 249.529427 126.204124 
L 250.091554 121.936082 
L 252.410327 116.554639 
L 254.026442 113.956701 
L 257.258673 109.595876 
L 264.917653 101.523711 
L 266.112172 98.554639 
L 265.760843 91.781443 
L 264.987919 90.018557 
L 262.317815 87.235052 
L 259.647712 86.956701 
L 257.8208 87.513402 
L 259.226117 89.925773 
L 263.93393 89.83299 
L 265.690577 90.296907 
L 266.112172 89.369072 
L 267.447224 81.668041 
L 268.852541 78.97732 
L 271.452379 75.54433 
L 277.143914 71.740206 
L 278.338434 68.678351 
L 277.635776 67.101031 
L 274.263014 65.338144 
L 272.365835 65.523711 
L 270.538922 66.54433 
L 267.447224 69.235052 
L 264.636589 69.791753 
L 261.89622 68.4 
L 260.631434 65.802062 
L 261.544891 62.83299 
L 266.393236 57.358763 
L 269.765998 51.513402 
L 271.452379 45.760825 
L 270.819986 43.070103 
L 269.484934 41.4 
L 266.533768 38.802062 
L 265.12845 38.245361 
L 260.631434 35.461856 
L 254.869633 33.97732 
L 251.215808 33.513402 
L 247.070121 32.4 
L 245.594538 32.585567 
L 243.416296 34.534021 
L 242.15151 37.131959 
L 241.870447 39.82268 
L 243.556828 43.534021 
L 249.880756 45.853608 
L 252.058998 48.54433 
L 252.19953 53.090722 
L 253.885911 59.028866 
L 253.815645 61.348454 
L 252.972454 64.317526 
L 249.669958 68.028866 
L 245.243208 70.719588 
L 241.659649 71.740206 
L 238.638216 73.503093 
L 237.232899 75.637113 
L 235.546518 79.905155 
L 233.64934 82.131959 
L 230.417109 83.894845 
L 225.990359 85.657732 
L 221.423078 88.905155 
L 219.455633 91.503093 
L 216.926062 96.049485 
L 214.466756 102.637113 
L 211.866919 107.554639 
L 209.12655 110.709278 
L 204.207939 113.771134 
L 202.099963 116.740206 
L 201.537836 119.616495 
L 201.608102 126.760825 
L 200.835177 128.802062 
L 199.219062 131.214433 
L 198.094808 132.049485 
L 189.733169 135.482474 
L 187.835991 136.595876 
L 184.182166 140.307216 
L 182.144455 142.905155 
L 180.036479 146.616495 
L 178.350098 151.534021 
L 178.139301 156.358763 
L 179.614884 162.018557 
L 180.949935 165.915464 
L 181.371531 168.420619 
L 180.52834 171.853608 
L 177.155578 177.698969 
L 174.06388 181.131959 
L 171.745106 183.265979 
L 169.285801 184.750515 
L 165.491444 187.905155 
L 166.826495 183.265979 
L 166.896761 179.554639 
L 166.194102 175.564948 
L 165.491444 174.173196 
L 163.453733 172.039175 
L 158.113527 168.513402 
L 148.908698 163.68866 
L 148.908698 163.68866 
" clip-path="url(#p755297e082)" style="fill: none; stroke: #000000; stroke-width: 3"/>
   </g>
  </g>
 </g>
 <defs>
  <clipPath id="p755297e082">
   <rect x="7.2" y="7.2" width="284.049788" height="554.4"/>
  </clipPath>
 </defs>
</svg>
