<?xml version="1.0" encoding="utf-8" standalone="no"?>
<!DOCTYPE svg PUBLIC "-//W3C//DTD SVG 1.1//EN"
  "http://www.w3.org/Graphics/SVG/1.1/DTD/svg11.dtd">
<svg xmlns:xlink="http://www.w3.org/1999/xlink" width="182.343501pt" height="568.8pt" viewBox="0 0 182.343501 568.8" xmlns="http://www.w3.org/2000/svg" version="1.1">
 <metadata>
  <rdf:RDF xmlns:dc="http://purl.org/dc/elements/1.1/" xmlns:cc="http://creativecommons.org/ns#" xmlns:rdf="http://www.w3.org/1999/02/22-rdf-syntax-ns#">
   <cc:Work>
    <dc:type rdf:resource="http://purl.org/dc/dcmitype/StillImage"/>
    <dc:date>2023-09-25T14:13:56.534221</dc:date>
    <dc:format>image/svg+xml</dc:format>
    <dc:creator>
     <cc:Agent>
      <dc:title>Matplotlib v3.6.2, https://matplotlib.org/</dc:title>
     </cc:Agent>
    </dc:creator>
   </cc:Work>
  </rdf:RDF>
 </metadata>
 <defs>
  <style type="text/css">*{stroke-linejoin: round; stroke-linecap: butt}</style>
 </defs>
 <g id="figure_1">
  <g id="patch_1">
   <path d="M 0 568.8 
L 182.343501 568.8 
L 182.343501 0 
L 0 0 
z
" style="fill: #ffffff"/>
  </g>
  <g id="axes_1">
   <g id="LineCollection_1">
    <path d="M 29.634047 535.948606 
L 30.64106 536.343576 
L 31.796998 534.387536 
L 32.49907 533.117991 
L 34.158514 529.94883 
L 35.924332 526.901922 
L 36.647679 525.434892 
L 37.711425 523.591701 
L 38.59788 521.908378 
L 39.15812 521.475792 
L 39.037562 521.221883 
L 39.129753 521.014994 
L 53.632156 494.693093 
L 53.490323 494.467396 
L 53.199566 494.420375 
L 52.816618 493.978386 
L 51.845063 493.479972 
L 51.852155 493.188446 
L 52.596777 491.533336 
L 53.355582 490.536508 
L 55.440524 488.335963 
L 55.688732 487.922185 
L 58.348096 481.612076 
L 59.021802 479.561996 
L 63.368977 471.25823 
L 63.971767 470.129746 
L 64.184516 468.991857 
L 64.085233 468.446423 
L 64.056866 467.806949 
L 63.98595 466.462171 
L 70.106035 455.356003 
L 71.453447 453.841952 
L 72.7654 452.384327 
L 73.261815 451.961145 
L 74.907075 450.268418 
L 75.906996 449.544307 
L 75.992096 449.243378 
L 76.601977 448.24655 
L 77.13385 446.986409 
L 77.843014 445.8015 
L 78.786202 444.118177 
L 79.906681 441.691936 
L 80.218713 441.325178 
L 81.466842 441.767168 
L 82.005806 441.090077 
L 82.034173 440.81736 
L 82.530588 440.23431 
L 82.892261 439.970997 
L 83.339035 439.387946 
L 83.601425 438.729664 
L 84.05529 438.532179 
L 84.409872 438.645027 
L 87.104695 435.69216 
L 87.693301 434.479039 
L 88.537207 432.325514 
L 89.50167 428.30999 
L 89.799518 426.767728 
L 89.905893 426.495011 
L 90.856173 421.830608 
L 91.040555 418.313498 
L 91.132747 417.570579 
L 91.863186 414.025257 
L 92.898565 409.106945 
L 93.955219 405.740299 
L 94.033227 404.630623 
L 94.238885 403.699623 
L 94.820399 402.580543 
L 95.245898 401.82822 
L 95.607571 399.96622 
L 95.813229 399.298533 
L 96.160719 398.762503 
L 96.628767 398.273493 
L 98.422952 396.825271 
L 99.110841 396.373878 
L 99.905105 395.56513 
L 100.465344 394.49307 
L 102.904868 389.236213 
L 103.599849 388.408658 
L 104.145905 388.079516 
L 104.847978 387.90084 
L 105.812441 388.004284 
L 107.018019 388.201769 
L 108.010849 387.966668 
L 108.656188 387.59991 
L 109.507185 386.762951 
L 111.889976 383.509154 
L 112.045992 383.029548 
L 112.074359 382.465306 
L 111.946709 382.03272 
L 111.450294 381.289801 
L 110.400732 380.603306 
L 108.762563 379.681711 
L 108.202323 378.919984 
L 107.457701 377.941964 
L 106.968378 377.650438 
L 106.266306 377.499974 
L 105.521684 377.387125 
L 105.03236 377.180237 
L 104.117539 376.41851 
L 103.720407 375.656782 
L 103.635307 375.224197 
L 103.209809 374.359025 
L 102.344629 371.904571 
L 101.805664 370.446946 
L 101.018492 366.572482 
L 100.855385 364.68227 
L 101.160325 363.459745 
L 102.500645 360.394029 
L 102.833952 359.350181 
L 103.03961 358.024212 
L 103.493475 352.12788 
L 104.004073 349.993163 
L 104.699053 347.341225 
L 105.734433 343.532589 
L 108.62073 337.645662 
L 110.578023 333.630138 
L 110.528381 333.912259 
L 110.634756 333.61133 
L 112.797706 329.097391 
L 113.201929 328.222816 
L 113.471412 326.953271 
L 113.684161 326.003463 
L 114.180576 324.696302 
L 115.010297 323.360928 
L 116.868307 320.417465 
L 118.010061 314.25782 
L 118.151894 313.411457 
L 118.499384 312.69675 
L 119.527672 311.380184 
L 119.56313 310.966407 
L 119.981537 309.499377 
L 120.357394 307.308236 
L 120.605601 307.129559 
L 122.385603 301.581177 
L 122.59126 300.847662 
L 122.945842 299.954278 
L 124.045046 298.3744 
L 124.32162 297.575057 
L 124.427995 296.484189 
L 124.619469 295.600209 
L 125.569749 293.625361 
L 125.761223 293.521917 
L 126.768236 292.374624 
L 127.200826 292.214755 
L 128.016365 291.424816 
L 130.540988 289.675665 
L 131.959316 288.744665 
L 133.257086 287.587969 
L 134.639956 285.998686 
L 135.271112 284.879606 
L 136.540515 282.246475 
L 136.547607 282.114819 
L 136.235575 281.945546 
L 136.427049 281.070971 
L 136.370316 280.516132 
L 136.25685 280.252819 
L 135.873901 279.575729 
L 136.093742 278.672941 
L 136.065376 278.277971 
L 136.349041 278.005254 
L 136.824181 277.770153 
L 137.093663 277.384588 
L 137.483703 273.660589 
L 137.313504 273.030518 
L 136.859639 272.249983 
L 135.65406 271.196731 
L 134.363382 270.171691 
L 132.874138 267.707833 
L 132.391906 267.331671 
L 131.342344 266.748621 
L 130.916845 266.616965 
L 130.455889 266.598157 
L 128.718437 266.212591 
L 128.378038 265.968086 
L 127.959631 265.243975 
L 127.605049 263.97443 
L 127.250467 261.820905 
L 127.449033 261.181431 
L 127.860348 260.579572 
L 130.498438 258.115714 
L 135.498044 250.404403 
L 136.143384 248.824525 
L 136.73199 247.056566 
L 137.320596 246.078546 
L 137.958843 245.410859 
L 142.192552 242.52382 
L 142.35566 242.222891 
L 142.504584 241.348315 
L 142.249285 237.699548 
L 142.625142 235.997418 
L 143.142832 234.915953 
L 143.539964 234.285883 
L 146.709927 230.129298 
L 147.057417 229.235914 
L 147.064509 228.850349 
L 146.943951 228.380147 
L 146.16387 226.941329 
L 145.993671 225.935097 
L 145.752555 223.452431 
L 145.454706 222.775341 
L 145.163949 221.834937 
L 143.710163 218.411867 
L 143.461956 218.007493 
L 143.26339 217.142322 
L 141.908887 214.462171 
L 141.171356 213.587596 
L 140.299084 212.637788 
L 139.235338 211.59394 
L 138.866573 210.879233 
L 138.136134 208.847961 
L 137.675178 207.616032 
L 137.285138 206.431123 
L 135.029996 199.443923 
L 134.717964 198.522327 
L 134.434298 198.099145 
L 134.05135 196.679136 
L 133.732226 195.381379 
L 132.781946 192.738844 
L 132.58338 191.84546 
L 132.867046 190.359622 
L 133.710951 187.764108 
L 134.342107 186.701452 
L 139.497729 178.444706 
L 139.937411 177.372646 
L 142.532951 169.8118 
L 142.915899 169.059477 
L 142.866258 168.814972 
L 142.639326 168.457618 
L 142.880441 165.608195 
L 143.313031 164.507923 
L 145.844747 160.135045 
L 147.213433 158.771459 
L 147.568015 159.044177 
L 147.830406 159.081793 
L 149.177817 158.141389 
L 149.454391 158.235429 
L 149.957898 158.244833 
L 150.709611 158.169601 
L 156.624039 151.850088 
L 156.808422 151.520946 
L 157.14882 150.204381 
L 157.439577 148.40821 
L 159.460695 141.919424 
L 159.950018 140.809747 
L 160.559899 139.756495 
L 160.602449 139.333313 
L 160.850656 138.684435 
L 160.907389 138.186021 
L 160.893206 136.455678 
L 160.914481 135.938456 
L 161.25488 134.537254 
L 162.190976 133.06082 
L 162.531375 132.120416 
L 162.5101 132.045184 
L 162.779582 130.832063 
L 163.878786 128.91364 
L 164.743966 127.662903 
L 165.772254 126.430974 
L 166.091378 126.139448 
L 166.743809 125.04858 
L 167.041658 124.079964 
L 167.509706 119.537814 
L 167.367873 118.484562 
L 167.162215 118.117804 
L 166.559426 117.61939 
L 166.552334 117.468926 
L 165.949545 116.462694 
L 165.247473 114.619502 
L 164.899982 114.252745 
L 163.928428 113.754331 
L 163.29018 113.716715 
L 163.063248 114.224533 
L 162.85759 114.243341 
L 161.829302 113.679098 
L 161.297429 113.528634 
L 160.574082 113.632078 
L 159.637986 113.904795 
L 158.716073 113.895391 
L 158.226749 113.744927 
L 156.80133 112.738695 
L 155.354635 112.437765 
L 154.262523 112.428361 
L 153.234235 112.710483 
L 152.241406 113.133664 
L 151.91519 113.143068 
L 151.454234 113.07724 
L 151.936465 113.255917 
L 151.411684 113.481614 
L 150.759253 113.406381 
L 149.255825 114.422017 
L 148.319729 113.56625 
L 147.419091 113.03022 
L 146.603552 112.870351 
L 146.007854 113.07724 
L 145.532714 113.12426 
L 145.085941 113.020816 
L 144.745542 113.406381 
L 144.568251 114.205725 
L 144.617893 114.741755 
L 144.511518 115.023876 
L 144.178211 115.334209 
L 143.908729 115.193148 
L 143.717255 114.911027 
L 143.291756 114.760563 
L 143.107374 114.68533 
L 142.724425 114.1493 
L 142.540043 113.538038 
L 142.540043 112.221473 
L 142.249285 111.901735 
L 139.263705 110.603978 
L 138.930398 110.641594 
L 138.597091 110.904907 
L 138.29215 110.970736 
L 137.022747 110.575766 
L 135.951909 110.641594 
L 135.327845 110.923715 
L 134.214458 111.158816 
L 132.654297 112.381341 
L 132.143699 112.428361 
L 131.462901 112.926775 
L 130.50553 114.177512 
L 129.675808 115.17434 
L 129.356684 115.531694 
L 128.924094 115.719775 
L 128.058914 115.710371 
L 127.321384 115.550502 
L 126.690228 115.738583 
L 126.278913 116.321633 
L 125.591024 117.534754 
L 125.378275 118.221249 
L 124.789668 118.672642 
L 123.576998 119.744703 
L 123.264966 120.393581 
L 122.683451 121.080076 
L 122.413969 121.098884 
L 122.250861 120.844975 
L 122.087754 120.102056 
L 121.924646 120.15848 
L 120.754526 121.324581 
L 119.967354 121.804187 
L 119.704963 122.095712 
L 118.6554 123.506318 
L 117.343447 122.942076 
L 116.655558 122.838631 
L 116.286793 122.659954 
L 114.783365 122.349621 
L 113.989101 122.772803 
L 113.783444 122.810419 
L 113.357945 122.706975 
L 112.847347 122.453066 
L 112.067267 121.616106 
L 110.131249 119.52841 
L 109.925592 119.697683 
L 109.471727 119.895167 
L 108.925671 119.848147 
L 108.528539 119.48139 
L 108.195232 119.377945 
L 108.131407 119.48139 
L 108.542722 120.092652 
L 108.642005 120.788551 
L 108.485989 121.428026 
L 107.876108 122.829227 
L 107.947024 122.810419 
L 108.53563 122.16154 
L 109.202244 121.315177 
L 108.117224 122.612934 
L 107.869016 122.763399 
L 107.861925 122.678763 
L 108.436347 121.587894 
L 108.57818 121.117692 
L 108.606547 120.544046 
L 108.216507 119.566026 
L 107.847741 119.020592 
L 107.400968 114.967452 
L 107.656267 112.860947 
L 107.947024 111.817099 
L 107.826466 111.581998 
L 107.642084 111.534978 
L 106.727262 111.939351 
L 106.748537 111.817099 
L 106.493238 110.857887 
L 106.486147 110.293645 
L 106.287581 110.09616 
L 103.883515 109.146352 
L 103.614032 108.798403 
L 102.933235 108.262373 
L 102.670844 108.234161 
L 102.387179 108.017868 
L 101.897856 107.444221 
L 101.514907 107.265545 
L 101.075225 106.710706 
L 99.791639 104.970959 
L 99.465423 104.641818 
L 98.316578 104.613606 
L 97.954904 104.632414 
L 97.571955 104.820495 
L 96.6855 105.450565 
L 96.217452 105.450565 
L 95.416097 105.610434 
L 94.770758 105.591626 
L 93.714103 106.447393 
L 93.494263 107.086868 
L 92.281592 108.836019 
L 91.480237 109.616554 
L 90.203742 109.973908 
L 90.040634 110.09616 
L 88.544298 112.465978 
L 88.0337 112.851543 
L 86.104774 113.086644 
L 85.892025 113.039624 
L 84.814096 112.58823 
L 82.88517 112.277897 
L 82.792978 112.118028 
L 82.395847 110.058544 
L 81.438475 108.403433 
L 80.934969 107.99906 
L 80.757678 107.69813 
L 80.459829 107.491242 
L 79.679749 107.218524 
L 79.431541 106.917595 
L 78.750744 106.701302 
L 76.325403 107.669918 
L 76.119745 107.60409 
L 75.765163 107.105676 
L 75.020541 105.403545 
L 73.93552 104.115192 
L 73.027791 102.413061 
L 72.29026 101.679546 
L 72.098786 101.331597 
L 71.722929 100.08086 
L 71.233606 99.05582 
L 71.368347 98.538598 
L 71.630738 98.087204 
L 71.829303 97.504153 
L 71.964045 96.582558 
L 71.744204 96.093548 
L 71.623646 94.476053 
L 71.212331 93.375781 
L 70.680458 92.416569 
L 70.347151 92.087428 
L 69.588345 90.940135 
L 68.964281 89.849267 
L 68.361492 89.303833 
L 67.581411 88.937075 
L 66.177267 87.770974 
L 64.97878 87.629914 
L 63.737743 86.971631 
L 62.787463 85.852551 
L 60.454313 82.307228 
L 59.66005 81.206956 
L 59.589133 80.962451 
L 59.121085 77.887331 
L 59.397659 75.950099 
L 59.582042 75.489301 
L 60.184831 74.652342 
L 61.276944 71.483181 
L 61.9081 67.430041 
L 62.489614 63.81889 
L 62.21304 65.521021 
L 62.092482 65.615061 
L 60.383397 65.370556 
L 59.468576 65.135455 
L 58.901244 65.069627 
L 58.745228 65.201284 
L 58.532479 65.840758 
L 59.262918 64.477173 
L 59.66005 63.104183 
L 59.5324 62.84087 
L 58.787778 62.135567 
L 58.702678 61.467881 
L 58.284272 60.640325 
L 57.099968 59.67171 
L 56.787936 59.690518 
L 56.185146 59.37078 
L 54.710085 58.20468 
L 55.284508 56.78467 
L 56.284429 55.693802 
L 55.277417 53.794186 
L 55.227775 53.31458 
L 54.781002 53.117095 
L 54.454786 53.295772 
L 53.816539 53.935246 
L 53.39104 54.076307 
L 52.809526 54.132731 
L 51.256457 53.822398 
L 50.916058 53.587297 
L 50.384185 53.041863 
L 50.150161 52.91961 
L 49.483547 52.740934 
L 45.902269 52.769146 
L 45.093822 53.380408 
L 44.909439 53.342792 
L 44.682507 53.117095 
L 44.483941 51.960399 
L 43.328004 49.919722 
L 42.945055 48.264612 
L 42.668481 48.067127 
L 42.0586 48.057723 
L 41.867126 47.944874 
L 41.512544 47.531097 
L 41.179237 47.44646 
L 40.796288 47.531097 
L 40.32824 47.850834 
L 38.853179 48.189379 
L 38.101465 48.095339 
L 37.590867 48.217592 
L 36.888795 48.038915 
L 36.470388 47.690965 
L 35.910149 47.484077 
L 35.229351 46.72235 
L 34.881861 45.998239 
L 34.676203 45.93241 
L 33.66919 45.913602 
L 33.420983 45.772542 
L 32.967118 45.236512 
L 32.293412 43.383916 
L 32.470703 42.575169 
L 32.818194 42.048543 
L 33.2366 41.634765 
L 34.052139 40.515685 
L 33.811023 39.97025 
L 33.392617 39.857402 
L 32.647994 40.120715 
L 30.953092 39.396604 
L 30.655244 39.622301 
L 30.066638 40.694361 
L 29.931896 40.534493 
L 29.626956 40.45926 
L 28.889425 39.565877 
L 27.768946 38.192887 
L 27.371814 38.070635 
L 26.634284 37.581625 
L 25.96767 36.603605 
L 24.634442 34.779222 
L 23.570696 33.020666 
L 23.393405 33.095899 
L 22.804798 33.105303 
L 15.80535 32.785566 
L 15.386943 32.4 
L 14.947262 32.531657 
L 14.833796 32.729141 
L 14.869254 33.020666 
L 15.223836 33.660141 
L 15.585509 34.713393 
L 16.188299 35.672605 
L 16.954196 36.98917 
L 17.202403 37.835534 
L 17.500252 38.277524 
L 17.798101 39.302564 
L 18.698739 41.061119 
L 18.954038 43.205239 
L 19.22352 43.684845 
L 19.329895 44.164451 
L 18.946947 47.248976 
L 18.954038 48.509117 
L 19.202246 49.703429 
L 19.110054 51.198671 
L 19.414995 52.552853 
L 19.450453 53.427428 
L 19.755393 55.27062 
L 19.953959 55.552741 
L 20.549657 55.834862 
L 20.854598 55.985327 
L 22.499858 56.182812 
L 23.28703 55.994731 
L 24.754999 56.079367 
L 25.088306 56.258044 
L 26.556276 57.301892 
L 27.549105 57.706266 
L 28.52066 57.997791 
L 29.031258 58.082427 
L 30.321937 58.515013 
L 31.165842 58.467993 
L 32.640903 58.138851 
L 33.470625 57.781498 
L 35.385367 58.2517 
L 36.059073 58.637265 
L 37.888716 60.047871 
L 39.604893 61.505497 
L 39.796367 62.182588 
L 39.704176 62.822062 
L 39.172303 63.997567 
L 38.619155 64.881546 
L 37.491584 65.859566 
L 36.541305 67.345404 
L 35.860507 69.367272 
L 35.65485 69.63999 
L 35.286084 69.893899 
L 30.102096 72.244908 
L 29.151816 73.025443 
L 28.825601 73.599089 
L 28.712134 74.238564 
L 28.619943 75.404665 
L 27.74058 77.341896 
L 27.456914 78.272896 
L 26.974683 79.250916 
L 24.939382 82.166168 
L 23.272847 85.598642 
L 22.868623 86.614278 
L 22.904081 87.357197 
L 23.109739 88.69257 
L 23.053006 88.937075 
L 22.81189 89.313237 
L 21.733961 90.375893 
L 21.216271 90.893115 
L 20.684398 91.842923 
L 20.620573 92.632862 
L 19.847585 94.193932 
L 19.280254 94.871023 
L 19.053321 95.867851 
L 19.329895 97.805083 
L 19.032046 98.623234 
L 17.918659 100.306557 
L 17.70591 101.331597 
L 17.734276 101.632526 
L 18.230691 103.419293 
L 19.22352 105.713878 
L 19.861768 107.942635 
L 19.890135 108.271777 
L 19.727027 112.343725 
L 20.053242 114.121088 
L 20.003601 114.619502 
L 20.21635 114.68533 
L 20.797864 114.675926 
L 21.585036 115.146128 
L 25.301056 115.823219 
L 25.84002 117.393693 
L 25.889662 118.287077 
L 26.045678 118.663238 
L 26.40026 119.029996 
L 27.081057 119.509602 
L 27.400181 120.15848 
L 27.442731 120.421793 
L 27.286715 120.854379 
L 27.861138 121.230541 
L 28.747593 121.634914 
L 29.336199 122.029884 
L 29.648231 122.105116 
L 30.258112 122.095712 
L 31.406957 122.349621 
L 32.187038 122.612934 
L 34.988235 123.261813 
L 35.037877 123.459298 
L 34.023772 126.233489 
L 33.768473 126.383953 
L 31.669348 126.797731 
L 31.555882 126.91058 
L 31.534607 127.136276 
L 32.130305 128.640922 
L 31.924647 129.54371 
L 32.080663 131.368093 
L 32.58417 132.336709 
L 32.577078 132.534194 
L 32.428154 132.778699 
L 30.747435 133.794335 
L 29.747514 134.668911 
L 29.47094 135.1109 
L 29.449665 135.515274 
L 29.938988 136.9729 
L 29.974446 137.819263 
L 29.754605 138.054364 
L 29.90353 138.317677 
L 30.158829 138.910132 
L 30.258112 139.540202 
L 30.492136 140.142061 
L 30.875084 141.919424 
L 30.782893 142.079292 
L 30.435403 142.323797 
L 28.236994 143.0291 
L 28.641218 143.978908 
L 28.946158 144.336262 
L 28.768867 144.561958 
L 28.208628 145.671635 
L 30.68361 147.43019 
L 31.321858 148.370594 
L 31.612615 148.840796 
L 32.952935 148.652715 
L 33.066401 149.358018 
L 33.215326 149.564907 
L 37.456126 154.248117 
L 37.477401 154.755935 
L 37.803616 155.997268 
L 39.243219 158.696227 
L 40.058758 159.316894 
L 42.150791 160.633459 
L 43.257087 162.297974 
L 43.725135 162.674135 
L 44.405933 163.040893 
L 45.583145 164.112953 
L 47.887928 165.485942 
L 49.575738 166.746084 
L 50.639484 167.780528 
L 51.35574 168.29775 
L 51.74578 168.767952 
L 52.192553 169.040669 
L 52.313111 169.247558 
L 52.979725 169.595507 
L 53.525782 169.783588 
L 54.270404 170.39485 
L 54.830643 171.006113 
L 55.518532 171.560951 
L 55.887298 172.040557 
L 56.298613 172.238042 
L 56.773752 172.661223 
L 57.362359 173.131425 
L 58.241722 174.21289 
L 59.610408 175.040445 
L 59.929532 175.369586 
L 60.042998 175.698727 
L 60.461405 175.905616 
L 60.879812 176.554495 
L 61.213119 177.052909 
L 61.184752 177.203374 
L 61.454235 177.269202 
L 63.51081 180.193858 
L 64.234157 181.115453 
L 65.276628 182.76116 
L 66.992805 184.867664 
L 68.170017 186.786088 
L 68.673524 187.905168 
L 69.063564 188.901996 
L 69.460696 189.644915 
L 69.489062 189.955249 
L 69.680537 190.444259 
L 69.985477 190.811016 
L 70.219501 191.300026 
L 71.495996 193.434743 
L 72.708667 196.321782 
L 72.80795 196.8296 
L 73.722771 197.600731 
L 74.091537 198.29663 
L 74.829067 199.208822 
L 74.821975 199.961145 
L 74.8007 202.152286 
L 75.112733 203.62872 
L 75.148191 204.315214 
L 75.261657 205.547143 
L 75.772255 207.061193 
L 75.779347 208.246102 
L 75.594964 208.509415 
L 75.524048 208.913789 
L 75.573689 209.374587 
L 75.31839 211.095526 
L 75.311299 212.628384 
L 75.282932 212.778848 
L 74.517035 214.885353 
L 74.481577 215.25211 
L 72.446276 220.170422 
L 70.921574 221.21427 
L 70.453525 221.834937 
L 69.978386 221.928977 
L 69.673445 221.834937 
L 69.425238 221.966593 
L 69.453604 224.24237 
L 68.262209 233.778065 
L 68.056551 235.169862 
L 67.623961 236.580468 
L 67.950177 240.154002 
L 67.872169 241.968982 
L 67.581411 244.705557 
L 67.453762 247.075374 
L 67.269379 248.420152 
L 68.2693 248.749293 
L 67.709061 250.470232 
L 67.553045 251.015666 
L 67.347387 251.269575 
L 67.092088 253.677009 
L 66.907706 256.808553 
L 66.70914 258.708169 
L 66.070892 260.654805 
L 66.198542 261.162623 
L 66.312008 262.300511 
L 66.49639 262.845945 
L 66.460932 263.137471 
L 66.255275 263.805157 
L 66.070892 263.993238 
L 65.531927 265.808217 
L 65.347545 266.880278 
L 65.390095 268.384924 
L 65.517744 269.193671 
L 65.333362 272.682569 
L 65.510653 275.108811 
L 65.773043 278.071083 
L 65.907784 279.697981 
L 66.10635 281.052163 
L 66.205633 285.650737 
L 66.517665 287.014322 
L 66.865156 287.992342 
L 67.57432 291.076867 
L 67.815435 293.456088 
L 68.411133 294.970138 
L 68.602607 295.073583 
L 69.113205 295.026563 
L 69.169939 296.192663 
L 68.78699 296.728694 
L 68.602607 297.509229 
L 68.893365 298.195723 
L 68.836632 298.86341 
L 68.304759 299.267784 
L 66.886431 300.960511 
L 64.914955 302.578005 
L 63.893759 303.509005 
L 62.872563 305.26756 
L 62.106666 306.668761 
L 62.369056 307.176579 
L 62.787463 307.374064 
L 63.524993 307.327044 
L 63.978858 307.552741 
L 64.532006 307.505721 
L 65.063879 307.609165 
L 65.595752 307.834862 
L 66.751689 308.87871 
L 67.503403 309.743882 
L 67.787069 310.797134 
L 68.04946 311.897406 
L 68.737349 314.286032 
L 69.255038 316.881546 
L 69.723086 318.028839 
L 70.361334 319.364212 
L 70.545717 320.229384 
L 70.836474 321.931515 
L 70.637908 323.501989 
L 70.311693 326.172736 
L 70.08476 326.548897 
L 68.538783 328.636594 
L 68.517508 329.332492 
L 68.836632 329.915543 
L 69.297588 330.263492 
L 71.247789 331.279128 
L 71.623646 331.777542 
L 71.871853 332.426421 
L 71.893128 333.385633 
L 71.687471 334.749218 
L 71.318705 335.510945 
L 70.793924 336.065783 
L 69.815278 336.789894 
L 69.233763 337.448177 
L 68.957189 338.115864 
L 68.907548 338.868187 
L 68.992648 339.300772 
L 70.120218 342.178408 
L 71.013765 344.764518 
L 71.127231 346.07168 
L 71.027948 346.918043 
L 70.581175 348.366265 
L 70.191135 349.494749 
L 70.120218 350.510385 
L 70.240776 351.403769 
L 70.453525 352.551062 
L 70.340059 354.102728 
L 69.552887 357.488182 
L 68.014001 363.140008 
L 67.411212 364.663462 
L 66.482207 366.873411 
L 65.773043 369.675814 
L 65.574477 371.18046 
L 65.347545 373.804187 
L 65.000054 374.848035 
L 64.354715 376.126984 
L 63.936309 377.763287 
L 63.808659 378.901176 
L 63.723559 381.242781 
L 63.773201 384.158033 
L 63.744834 384.317901 
L 63.730651 387.524678 
L 63.439894 388.624951 
L 62.617264 389.894496 
L 61.709534 391.258081 
L 61.319493 392.217293 
L 59.447301 400.210725 
L 58.780687 403.022532 
L 58.114072 404.310886 
L 56.731203 406.163481 
L 54.546978 408.448662 
L 54.29877 408.918864 
L 53.958372 410.188409 
L 54.022196 411.100601 
L 54.29877 412.595843 
L 54.305862 414.354398 
L 54.632077 415.26659 
L 55.093034 415.981296 
L 55.220683 416.395074 
L 55.461799 417.674023 
L 55.788015 418.689659 
L 55.809289 419.648871 
L 55.674548 421.040669 
L 55.078851 422.498295 
L 54.249129 423.654991 
L 53.773989 424.736456 
L 52.951359 428.234758 
L 52.844984 428.441646 
L 51.568489 430.369474 
L 51.206815 431.413322 
L 50.7955 433.153069 
L 50.05797 434.41321 
L 48.724741 436.529119 
L 48.263785 438.37231 
L 46.370317 442.500683 
L 45.817169 443.074329 
L 44.682507 443.939501 
L 44.115176 444.804672 
L 43.91661 445.509975 
L 43.923701 446.33753 
L 44.916531 447.118065 
L 44.944898 447.287338 
L 44.69669 447.795156 
L 44.363383 449.017681 
L 43.554936 452.563003 
L 43.150713 453.437579 
L 41.611827 456.221174 
L 41.200512 458.760264 
L 41.079954 460.058021 
L 40.860113 460.509415 
L 40.321148 461.271142 
L 39.526885 462.841617 
L 36.959711 466.010777 
L 36.661862 466.979393 
L 36.548396 467.656484 
L 34.959869 471.465119 
L 35.037877 471.681412 
L 38.08019 472.358503 
L 38.583697 472.471351 
L 40.165132 472.894533 
L 47.086573 474.765936 
L 47.235497 474.709512 
L 47.937569 474.897593 
L 50.476376 475.687532 
L 50.568568 475.875613 
L 51.646497 476.176542 
L 51.405381 477.549532 
L 51.894704 477.737612 
L 51.689047 478.800269 
L 52.639327 479.355107 
L 52.249286 482.571288 
L 51.993987 483.276591 
L 49.880679 487.038206 
L 42.328082 500.721081 
L 41.789118 501.680293 
L 39.129753 506.504564 
L 38.271665 507.943382 
L 38.087282 508.507624 
L 36.95262 510.482472 
L 35.151343 513.708057 
L 34.839311 514.291107 
L 32.938752 517.808217 
L 32.201221 519.143591 
L 31.995563 519.839489 
L 31.867914 521.560428 
L 31.477874 522.801761 
L 29.896438 525.688801 
L 25.932212 532.986334 
L 25.095398 534.293496 
L 25.591813 534.528596 
L 26.137869 534.93297 
L 25.988945 535.506616 
L 26.31516 535.713505 
L 26.31516 535.713505 
" clip-path="url(#pa4923c76a9)" style="fill: none; stroke: #000000; stroke-width: 3"/>
   </g>
  </g>
 </g>
 <defs>
  <clipPath id="pa4923c76a9">
   <rect x="7.2" y="7.2" width="167.943501" height="554.4"/>
  </clipPath>
 </defs>
</svg>
