<?xml version="1.0" encoding="utf-8" standalone="no"?>
<!DOCTYPE svg PUBLIC "-//W3C//DTD SVG 1.1//EN"
  "http://www.w3.org/Graphics/SVG/1.1/DTD/svg11.dtd">
<svg xmlns:xlink="http://www.w3.org/1999/xlink" width="572.4pt" height="501.562345pt" viewBox="0 0 572.4 501.562345" xmlns="http://www.w3.org/2000/svg" version="1.1">
 <metadata>
  <rdf:RDF xmlns:dc="http://purl.org/dc/elements/1.1/" xmlns:cc="http://creativecommons.org/ns#" xmlns:rdf="http://www.w3.org/1999/02/22-rdf-syntax-ns#">
   <cc:Work>
    <dc:type rdf:resource="http://purl.org/dc/dcmitype/StillImage"/>
    <dc:date>2023-09-25T14:13:56.347661</dc:date>
    <dc:format>image/svg+xml</dc:format>
    <dc:creator>
     <cc:Agent>
      <dc:title>Matplotlib v3.6.2, https://matplotlib.org/</dc:title>
     </cc:Agent>
    </dc:creator>
   </cc:Work>
  </rdf:RDF>
 </metadata>
 <defs>
  <style type="text/css">*{stroke-linejoin: round; stroke-linecap: butt}</style>
 </defs>
 <g id="figure_1">
  <g id="patch_1">
   <path d="M 0 501.562345 
L 572.4 501.562345 
L 572.4 -0 
L 0 -0 
z
" style="fill: #ffffff"/>
  </g>
  <g id="axes_1">
   <g id="LineCollection_1">
    <path d="M 32.563636 470.012805 
L 36.271577 472.078551 
L 37.013165 472.218602 
L 37.383959 471.868475 
L 38.310944 469.907768 
L 42.124825 463.04529 
L 42.972355 461.224633 
L 44.031766 459.579039 
L 44.746869 458.108508 
L 45.806281 456.427902 
L 47.474854 453.206739 
L 49.063971 450.510766 
L 50.600118 447.604717 
L 52.401117 444.278516 
L 56.877131 436.435686 
L 60.47913 429.818297 
L 64.425438 422.570681 
L 65.9351 419.979746 
L 67.020996 417.843975 
L 67.497732 417.178735 
L 68.716055 416.513494 
L 68.68957 414.832888 
L 69.616555 412.942205 
L 70.675966 411.261599 
L 71.89429 408.915752 
L 73.35098 406.464867 
L 76.635156 400.092567 
L 78.489126 396.661329 
L 79.469082 395.120773 
L 80.051758 393.965356 
L 80.899288 393.790292 
L 82.091126 394.735634 
L 83.521331 395.400874 
L 84.898566 396.311202 
L 87.282242 397.571657 
L 87.811948 397.711708 
L 88.209227 397.466619 
L 91.387462 391.514471 
L 91.970138 390.254016 
L 96.949372 381.67592 
L 98.379578 378.839896 
L 98.962254 377.999593 
L 99.99518 376.073898 
L 101.716724 373.44795 
L 102.166974 372.467596 
L 106.378135 364.729803 
L 108.20562 361.228539 
L 109.900678 358.357503 
L 110.536325 356.99201 
L 113.26431 352.09024 
L 114.826942 349.604343 
L 117.581412 344.527511 
L 118.084632 343.091993 
L 118.82622 342.286702 
L 125.68591 329.612127 
L 128.625777 324.815395 
L 128.970086 323.800029 
L 128.731718 322.189448 
L 128.970086 321.104056 
L 129.314395 320.613879 
L 130.029497 320.158715 
L 133.843379 319.808588 
L 138.319393 319.213373 
L 139.272863 319.248386 
L 140.146878 319.03831 
L 142.424612 318.268032 
L 144.808288 316.937552 
L 146.635773 315.502034 
L 147.483302 314.591705 
L 150.264258 310.355176 
L 151.588522 308.81462 
L 152.33011 307.62419 
L 153.495463 306.118647 
L 154.793242 304.192952 
L 157.415286 297.470525 
L 158.368756 295.649868 
L 160.0903 293.899236 
L 162.685858 291.83349 
L 163.056652 291.728452 
L 164.036608 292.218629 
L 164.619284 292.743819 
L 166.605681 293.584122 
L 168.141827 294.424426 
L 169.227724 294.809565 
L 170.737386 295.789918 
L 173.227003 296.87531 
L 173.677253 296.910323 
L 174.975032 297.470525 
L 175.478252 297.120399 
L 184.721618 284.235748 
L 185.675088 282.590154 
L 186.469647 280.874535 
L 187.555544 278.143549 
L 188.270646 275.692664 
L 191.39591 263.403228 
L 192.29641 261.127407 
L 192.958542 260.077028 
L 194.494689 258.256371 
L 197.619953 255.350322 
L 198.652879 254.054854 
L 199.897688 253.214551 
L 201.751658 251.183818 
L 203.446717 249.153085 
L 204.66504 247.437465 
L 206.51901 244.461391 
L 218.331449 225.029377 
L 220.052992 221.773202 
L 222.59558 216.066142 
L 225.694359 209.203665 
L 229.428784 200.100379 
L 230.620622 197.684507 
L 233.057269 193.588028 
L 233.61346 193.062838 
L 234.328563 192.012459 
L 236.924121 187.670892 
L 238.778091 184.204641 
L 241.612017 179.582973 
L 244.63134 174.401102 
L 245.955604 173.000597 
L 251.676427 168.518979 
L 252.4445 168.378929 
L 255.834617 172.405382 
L 257.370764 173.945938 
L 257.900469 174.646191 
L 258.642057 174.611178 
L 260.019292 172.685483 
L 263.780203 169.149207 
L 265.634174 167.678676 
L 267.408688 166.033082 
L 268.044335 165.717968 
L 269.977761 165.087741 
L 270.348555 165.47288 
L 271.222569 168.974143 
L 272.255496 171.460041 
L 272.864657 173.735862 
L 273.473819 175.451482 
L 275.036451 179.197834 
L 275.83101 180.703377 
L 276.254774 181.088516 
L 277.23473 180.388263 
L 278.426568 178.672644 
L 279.380038 177.517227 
L 280.095141 176.992038 
L 281.234008 176.501861 
L 283.167434 176.746949 
L 284.09442 177.202113 
L 284.650611 177.902366 
L 285.153831 179.057783 
L 286.239728 180.318238 
L 286.981316 181.92882 
L 287.696419 183.189275 
L 288.596919 183.889527 
L 292.013521 185.149982 
L 292.781594 185.78021 
L 293.629123 185.745197 
L 295.430123 186.795576 
L 296.833843 187.880968 
L 298.396475 189.281474 
L 299.985593 189.6316 
L 300.276931 190.96208 
L 300.250445 192.432611 
L 300.356387 194.463344 
L 299.879651 202.761339 
L 299.667769 203.671668 
L 298.740784 204.23187 
L 298.687813 206.262603 
L 298.343505 207.733134 
L 297.760828 208.573437 
L 297.575431 210.289056 
L 298.422961 212.249764 
L 298.131622 214.350522 
L 297.575431 215.260851 
L 297.681372 215.821053 
L 298.264049 216.206192 
L 297.86677 217.011483 
L 298.449446 217.991837 
L 299.588313 218.341963 
L 300.303416 218.341963 
L 304.090812 217.50166 
L 305.388591 217.606698 
L 307.242562 217.50166 
L 307.5339 218.411988 
L 308.328458 219.287304 
L 309.414355 219.392342 
L 312.910413 219.322317 
L 315.373545 219.112241 
L 315.241119 217.50166 
L 315.505972 217.221559 
L 317.70425 217.116521 
L 318.896088 216.941458 
L 323.398587 216.801407 
L 324.140176 216.626344 
L 325.517411 216.696369 
L 327.397866 216.451281 
L 328.059998 216.521306 
L 329.56966 216.381255 
L 331.02635 216.416268 
L 334.548894 216.241205 
L 335.58182 216.381255 
L 340.958334 216.031129 
L 343.580377 215.716015 
L 345.619744 215.330876 
L 348.294758 215.190826 
L 353.90964 214.490573 
L 355.843066 214.420548 
L 357.326242 214.490573 
L 358.96833 214.350522 
L 362.702755 214.490573 
L 363.391373 214.735661 
L 363.285432 215.751028 
L 362.888152 216.451281 
L 363.047064 216.696369 
L 372.422856 218.026849 
L 377.375605 219.112241 
L 385.956838 220.757835 
L 387.943235 220.477734 
L 389.929632 220.372696 
L 391.730631 220.652797 
L 393.743513 221.107962 
L 394.644013 221.493101 
L 395.014807 221.913252 
L 395.941792 221.843227 
L 396.762836 222.088315 
L 397.107145 222.473454 
L 397.848733 222.368417 
L 399.464336 222.613505 
L 401.053453 223.278745 
L 401.583159 222.858593 
L 402.536629 223.313758 
L 403.940349 223.523834 
L 406.456452 223.173707 
L 406.774275 223.453808 
L 409.025525 222.438442 
L 411.409201 222.053303 
L 413.554509 222.123328 
L 414.455009 221.87824 
L 415.646847 221.248012 
L 417.050567 220.82786 
L 418.348346 220.932898 
L 419.61964 221.738189 
L 421.049846 222.01829 
L 422.533022 222.053303 
L 424.360507 221.913252 
L 428.704094 221.738189 
L 429.525138 222.263379 
L 431.273167 220.057582 
L 432.782828 218.411988 
L 433.868725 216.97647 
L 440.198709 209.763867 
L 441.125694 208.468399 
L 441.973223 207.067894 
L 448.06484 195.47871 
L 449.91881 193.062838 
L 450.316089 192.362586 
L 450.898765 191.802383 
L 449.706927 191.067118 
L 449.706927 190.82203 
L 450.527971 188.721271 
L 451.269559 187.355778 
L 453.706206 181.508668 
L 455.03047 178.35753 
L 455.798544 176.151734 
L 455.983941 175.066342 
L 456.460676 173.665837 
L 456.32825 172.055256 
L 456.857955 171.074902 
L 457.758455 170.164573 
L 459.029749 169.289257 
L 462.764175 162.601843 
L 463.373336 162.041641 
L 465.942409 160.57111 
L 467.478556 160.115946 
L 468.2996 160.010908 
L 469.544408 159.450706 
L 471.001099 158.960529 
L 477.278113 155.249189 
L 479.31748 153.848684 
L 480.933082 153.113418 
L 482.734082 152.553216 
L 487.501434 150.592509 
L 493.275227 147.896535 
L 494.096271 147.16127 
L 497.539358 141.699298 
L 497.645299 139.808616 
L 497.353961 138.057984 
L 497.539358 136.902567 
L 497.353961 135.362011 
L 497.486388 134.171581 
L 497.883667 133.22624 
L 498.069064 132.03581 
L 497.963123 131.440595 
L 497.989608 129.795002 
L 496.109153 128.114395 
L 494.678947 127.589205 
L 493.831418 126.958978 
L 493.407653 125.138321 
L 493.434138 124.403055 
L 493.857903 122.617411 
L 493.54008 121.28693 
L 493.08983 120.411615 
L 492.69255 118.801033 
L 492.348242 117.890705 
L 491.315315 116.175085 
L 490.308874 115.019668 
L 489.699713 113.864251 
L 489.673228 112.113619 
L 490.573727 110.643088 
L 490.732639 107.281875 
L 490.494271 105.251142 
L 489.832139 103.780611 
L 490.600213 103.080359 
L 491.712595 103.255422 
L 495.102712 105.041066 
L 496.003211 105.21613 
L 496.638858 104.725953 
L 497.989608 101.854916 
L 498.969564 100.244335 
L 501.300269 96.883122 
L 501.829975 95.902768 
L 501.962401 95.237528 
L 503.048298 93.766997 
L 505.326033 92.08639 
L 507.259459 91.701251 
L 509.484223 91.000999 
L 510.252297 90.335758 
L 511.391164 88.480089 
L 513.430531 87.184621 
L 515.469898 86.309305 
L 518.515707 84.348597 
L 518.38328 83.648345 
L 516.555795 80.777308 
L 512.980281 74.685109 
L 512.87434 73.949844 
L 513.77484 73.564705 
L 515.099104 72.724401 
L 520.952353 69.363188 
L 523.521426 67.612556 
L 526.620205 65.93195 
L 528.89794 64.566457 
L 533.135586 62.360661 
L 539.677452 57.598942 
L 539.836364 57.073752 
L 539.439084 56.3735 
L 533.373953 47.970466 
L 533.532865 47.62034 
L 537.108379 45.169455 
L 538.697496 43.803962 
L 538.750467 43.173735 
L 537.081894 40.932926 
L 535.439806 39.042244 
L 534.539306 37.5367 
L 532.950189 35.961132 
L 531.599439 34.105462 
L 530.645969 33.125108 
L 530.195719 32.389842 
L 528.89794 31.374476 
L 528.553631 30.849286 
L 529.348189 29.623844 
L 529.348189 29.343743 
L 529.348189 29.343743 
" clip-path="url(#pe0c05fd8f6)" style="fill: none; stroke: #000000; stroke-width: 3"/>
   </g>
  </g>
 </g>
 <defs>
  <clipPath id="pe0c05fd8f6">
   <rect x="7.2" y="7.2" width="558" height="487.162345"/>
  </clipPath>
 </defs>
</svg>
