<?xml version="1.0" encoding="utf-8" standalone="no"?>
<!DOCTYPE svg PUBLIC "-//W3C//DTD SVG 1.1//EN"
  "http://www.w3.org/Graphics/SVG/1.1/DTD/svg11.dtd">
<svg xmlns:xlink="http://www.w3.org/1999/xlink" width="296.454214pt" height="568.8pt" viewBox="0 0 296.454214 568.8" xmlns="http://www.w3.org/2000/svg" version="1.1">
 <metadata>
  <rdf:RDF xmlns:dc="http://purl.org/dc/elements/1.1/" xmlns:cc="http://creativecommons.org/ns#" xmlns:rdf="http://www.w3.org/1999/02/22-rdf-syntax-ns#">
   <cc:Work>
    <dc:type rdf:resource="http://purl.org/dc/dcmitype/StillImage"/>
    <dc:date>2023-09-25T14:13:55.994219</dc:date>
    <dc:format>image/svg+xml</dc:format>
    <dc:creator>
     <cc:Agent>
      <dc:title>Matplotlib v3.6.2, https://matplotlib.org/</dc:title>
     </cc:Agent>
    </dc:creator>
   </cc:Work>
  </rdf:RDF>
 </metadata>
 <defs>
  <style type="text/css">*{stroke-linejoin: round; stroke-linecap: butt}</style>
 </defs>
 <g id="figure_1">
  <g id="patch_1">
   <path d="M 0 568.8 
L 296.454214 568.8 
L 296.454214 0 
L 0 0 
z
" style="fill: #ffffff"/>
  </g>
  <g id="axes_1">
   <g id="LineCollection_1">
    <path d="M 155.950388 177.024398 
L 156.980159 176.733012 
L 159.554585 172.167971 
L 160.290136 171.682328 
L 170.882064 175.276084 
L 174.854037 177.898555 
L 177.722684 180.22964 
L 179.046675 180.521025 
L 182.945093 182.754982 
L 189.123718 184.794681 
L 193.978351 186.83438 
L 199.49498 190.428136 
L 200.598306 191.593679 
L 201.775187 194.410407 
L 202.952068 200.918019 
L 204.202504 203.540489 
L 210.454683 209.562459 
L 213.985326 215.4873 
L 217.074638 219.178185 
L 217.736634 221.50927 
L 217.001083 222.092041 
L 214.426656 226.462825 
L 212.29356 227.725496 
L 209.939798 231.027867 
L 208.983582 233.650337 
L 206.556266 238.701021 
L 202.878513 241.614878 
L 202.069407 243.266063 
L 201.848742 247.151204 
L 198.391654 254.630102 
L 195.817228 259.389401 
L 194.199016 261.623357 
L 196.258558 268.130969 
L 193.610576 268.130969 
L 193.684131 269.39364 
L 189.785713 271.239083 
L 188.167502 273.473039 
L 186.990621 276.09551 
L 185.004634 278.912237 
L 183.165758 283.574407 
L 178.82601 290.373405 
L 178.090459 290.664791 
L 175.516032 293.675776 
L 175.442477 294.74419 
L 173.01516 296.68676 
L 171.544059 301.34893 
L 165.88032 312.71297 
L 165.43899 314.364155 
L 162.643898 318.346425 
L 161.614127 318.734939 
L 161.172797 321.454538 
L 158.74548 325.825323 
L 157.715709 329.030565 
L 156.391718 330.778878 
L 155.509057 333.886992 
L 153.596626 337.772133 
L 151.022199 341.365889 
L 149.551098 344.279746 
L 148.521327 347.387859 
L 146.976671 350.107458 
L 143.960914 352.535672 
L 141.607152 355.935171 
L 140.798046 358.557641 
L 137.193849 365.453768 
L 135.796303 369.727423 
L 134.987197 370.407323 
L 130.794559 376.137907 
L 128.367242 377.789092 
L 128.220132 379.828792 
L 126.528366 382.062748 
L 125.204375 387.307689 
L 121.158847 393.135402 
L 118.143089 395.27223 
L 116.230658 397.8947 
L 117.039764 399.837271 
L 116.083548 400.905685 
L 112.700015 402.265485 
L 112.03802 406.927655 
L 109.831368 407.801812 
L 107.918937 411.88121 
L 104.976735 414.212295 
L 103.652744 418.194565 
L 101.813867 420.428522 
L 101.446092 423.148121 
L 100.563431 424.507921 
L 97.989004 426.159106 
L 97.989004 428.878705 
L 96.738568 431.015533 
L 91.369049 431.598304 
L 95.120357 434.317903 
L 96.591458 436.648988 
L 93.355036 442.768086 
L 91.589715 443.933629 
L 88.426847 449.17857 
L 86.220196 451.606784 
L 82.321778 458.211524 
L 83.277993 461.319638 
L 80.777122 465.981808 
L 80.850677 466.953093 
L 79.30602 470.741106 
L 77.761364 473.16932 
L 78.349805 475.500405 
L 76.731593 479.482675 
L 75.113382 481.522374 
L 73.053841 482.590788 
L 69.376088 483.562074 
L 67.684322 488.127115 
L 67.316546 491.235228 
L 63.491684 497.257198 
L 62.756133 499.78254 
L 60.108151 502.890653 
L 59.07838 505.027481 
L 53.635306 514.934592 
L 53.046866 518.139834 
L 51.134434 522.024976 
L 50.987324 524.647447 
L 49.295558 528.43546 
L 44.882255 535.428715 
L 43.852484 536.302871 
L 41.866497 536.4 
L 39.806956 535.525843 
L 35.025877 532.514858 
L 34.069662 532.223473 
L 31.936565 528.921102 
L 27.964592 526.298632 
L 21.859522 523.676161 
L 20.167756 522.41349 
L 20.020646 520.470919 
L 21.271082 516.197263 
L 21.050417 515.031721 
L 23.919064 512.020736 
L 24.360394 509.78678 
L 25.61083 507.552823 
L 27.817482 506.193024 
L 30.833239 501.725111 
L 34.437437 495.703141 
L 36.644089 490.4582 
L 38.924295 488.807015 
L 40.616061 485.310387 
L 43.116933 482.105146 
L 46.206246 475.597533 
L 47.162461 472.877934 
L 48.633562 470.255463 
L 49.589778 466.273193 
L 51.134434 465.787551 
L 54.223747 461.611023 
L 56.724619 460.348352 
L 60.255261 456.948853 
L 62.314803 456.074696 
L 63.859459 453.646483 
L 64.962785 452.869455 
L 67.463657 448.401542 
L 68.714093 444.904914 
L 70.111639 436.746117 
L 72.02407 434.415032 
L 72.31829 432.278204 
L 74.377832 429.072962 
L 74.083612 427.90742 
L 74.745607 423.925149 
L 78.42336 420.040008 
L 80.850677 416.154866 
L 82.027557 411.20131 
L 83.351548 408.481711 
L 85.11687 405.956369 
L 86.735081 401.974099 
L 89.456618 404.013798 
L 91.221939 400.808557 
L 94.826137 399.545886 
L 96.738568 396.437772 
L 97.327009 394.398073 
L 99.533661 392.261245 
L 99.533661 384.490962 
L 100.563431 381.577105 
L 102.549418 378.663249 
L 102.402308 375.555136 
L 104.976735 372.058508 
L 107.036276 368.270495 
L 108.360267 364.093968 
L 109.022263 360.111698 
L 107.771827 358.363384 
L 104.094074 354.866757 
L 103.211413 352.729929 
L 103.505634 349.816072 
L 104.314739 348.262016 
L 108.948708 342.142918 
L 112.552905 333.789863 
L 116.377768 326.116708 
L 118.2902 323.591366 
L 122.482838 319.99761 
L 126.01348 319.609096 
L 129.323458 320.288996 
L 135.428527 323.591366 
L 137.782289 323.591366 
L 140.136051 322.620081 
L 142.784033 320.774639 
L 145.06424 318.346425 
L 147.491556 312.421584 
L 149.036213 310.090499 
L 151.831305 307.273771 
L 156.906603 304.165658 
L 159.407475 301.543188 
L 162.129012 295.326961 
L 162.864563 291.247562 
L 162.570343 288.625092 
L 160.805021 285.031336 
L 159.995916 279.883523 
L 160.216581 278.135209 
L 163.673669 272.890268 
L 167.939862 269.102255 
L 172.353165 266.382656 
L 173.971376 264.537213 
L 174.486262 262.983157 
L 174.118486 257.349701 
L 175.589587 253.561688 
L 177.796239 245.014377 
L 180.664886 238.603893 
L 183.901309 234.038851 
L 187.431951 230.639352 
L 188.903052 228.79391 
L 191.992365 223.548969 
L 194.199016 218.109771 
L 196.773443 213.641858 
L 198.832985 210.922259 
L 201.554522 208.591174 
L 204.202504 207.134246 
L 209.572023 205.871574 
L 211.85223 206.065832 
L 215.750647 207.037117 
L 218.913515 207.134246 
L 221.193722 206.357217 
L 222.959043 204.803161 
L 224.356589 202.666333 
L 225.53347 199.752476 
L 229.211223 193.53625 
L 233.403861 185.960224 
L 234.580742 183.046367 
L 238.92049 175.081827 
L 240.685811 172.265099 
L 247.085101 160.415417 
L 249.512418 154.296319 
L 249.291753 148.468607 
L 249.733083 144.194951 
L 250.395078 141.57248 
L 250.321523 138.852881 
L 249.438863 135.453382 
L 247.232211 131.568241 
L 246.864436 128.94577 
L 247.232211 127.100328 
L 249.218197 122.535286 
L 252.381065 117.193216 
L 255.911707 112.725304 
L 262.605217 105.63492 
L 264.444094 103.012449 
L 264.958979 100.681364 
L 264.296984 95.727809 
L 264.885424 88.34604 
L 266.209415 82.712584 
L 267.606961 79.895857 
L 270.990494 76.593486 
L 275.256687 73.873887 
L 276.360013 72.611216 
L 276.433568 69.600231 
L 274.741802 67.560532 
L 273.12359 66.977761 
L 269.592948 67.560532 
L 265.768085 70.668645 
L 263.267213 71.542802 
L 260.472121 70.571517 
L 259.14813 69.308846 
L 258.85391 66.394989 
L 261.207671 62.412719 
L 265.032534 58.041935 
L 267.974737 52.311351 
L 269.445838 47.357795 
L 268.930952 44.346811 
L 267.754071 42.40424 
L 263.561433 38.130584 
L 259.221685 35.799499 
L 253.778611 34.148314 
L 248.482647 33.662671 
L 244.731339 32.4 
L 241.494917 33.371285 
L 239.876705 35.508113 
L 238.994045 39.004741 
L 239.141155 40.850183 
L 240.759366 43.666911 
L 247.379321 46.192253 
L 248.997532 48.134824 
L 250.174413 51.04868 
L 250.100858 54.836693 
L 251.866179 62.218462 
L 251.057074 65.909347 
L 248.850422 68.920331 
L 245.90822 71.348545 
L 242.304022 72.99973 
L 238.405604 74.262401 
L 236.640283 75.330815 
L 234.139411 78.3418 
L 232.594755 82.615456 
L 230.461658 85.140798 
L 229.137667 85.917826 
L 221.487942 88.928811 
L 219.13418 90.482868 
L 215.750647 94.368009 
L 213.617551 98.156022 
L 208.689362 110.102833 
L 204.938054 114.667874 
L 200.156976 117.678859 
L 197.508994 121.078358 
L 196.773443 125.157757 
L 196.994108 130.985469 
L 195.449452 134.967739 
L 193.610576 136.91031 
L 186.990621 139.435652 
L 184.048419 141.281095 
L 179.56156 145.069108 
L 176.987133 147.982964 
L 173.677156 154.102062 
L 173.162271 155.850376 
L 172.647385 161.678088 
L 174.044931 168.477086 
L 175.736698 174.20767 
L 175.736698 176.247369 
L 174.927592 178.772712 
L 173.162271 182.17221 
L 169.705183 186.931509 
L 166.02743 190.622394 
L 161.614127 193.53625 
L 160.069471 195.478821 
L 159.113255 195.187435 
L 160.363691 189.651108 
L 159.995916 184.309038 
L 158.966145 180.909539 
L 156.980159 178.384197 
L 155.509057 178.384197 
L 153.155296 181.006668 
L 149.183323 189.068337 
L 148.006442 189.942494 
L 141.018712 185.668838 
L 133.883871 180.521025 
L 127.116806 177.898555 
L 125.42504 176.441627 
L 118.069534 171.876585 
L 116.157103 171.099557 
L 113.067791 168.282829 
L 113.067791 168.282829 
" clip-path="url(#p3e17c5eb7c)" style="fill: none; stroke: #000000; stroke-width: 3"/>
   </g>
  </g>
 </g>
 <defs>
  <clipPath id="p3e17c5eb7c">
   <rect x="7.2" y="7.2" width="282.054214" height="554.4"/>
  </clipPath>
 </defs>
</svg>
