<?xml version="1.0" encoding="utf-8" standalone="no"?>
<!DOCTYPE svg PUBLIC "-//W3C//DTD SVG 1.1//EN"
  "http://www.w3.org/Graphics/SVG/1.1/DTD/svg11.dtd">
<svg xmlns:xlink="http://www.w3.org/1999/xlink" width="295.136152pt" height="568.8pt" viewBox="0 0 295.136152 568.8" xmlns="http://www.w3.org/2000/svg" version="1.1">
 <metadata>
  <rdf:RDF xmlns:dc="http://purl.org/dc/elements/1.1/" xmlns:cc="http://creativecommons.org/ns#" xmlns:rdf="http://www.w3.org/1999/02/22-rdf-syntax-ns#">
   <cc:Work>
    <dc:type rdf:resource="http://purl.org/dc/dcmitype/StillImage"/>
    <dc:date>2023-09-25T14:13:54.748902</dc:date>
    <dc:format>image/svg+xml</dc:format>
    <dc:creator>
     <cc:Agent>
      <dc:title>Matplotlib v3.6.2, https://matplotlib.org/</dc:title>
     </cc:Agent>
    </dc:creator>
   </cc:Work>
  </rdf:RDF>
 </metadata>
 <defs>
  <style type="text/css">*{stroke-linejoin: round; stroke-linecap: butt}</style>
 </defs>
 <g id="figure_1">
  <g id="patch_1">
   <path d="M 0 568.8 
L 295.136152 568.8 
L 295.136152 0 
L 0 0 
z
" style="fill: #ffffff"/>
  </g>
  <g id="axes_1">
   <g id="LineCollection_1">
    <path d="M 140.14002 170.404648 
L 144.131214 172.649419 
L 149.304984 174.015802 
L 153.591822 177.041363 
L 157.13955 171.868629 
L 166.600159 175.186987 
L 168.965311 176.358172 
L 174.434725 181.042912 
L 179.904139 183.970875 
L 190.695145 188.070023 
L 195.055894 190.217196 
L 197.790601 192.461967 
L 199.490554 196.268319 
L 200.451397 201.538652 
L 202.373083 205.6378 
L 205.329523 208.858559 
L 208.433785 211.396127 
L 212.129335 216.471263 
L 215.677063 220.375213 
L 215.307508 222.131991 
L 213.090178 226.328737 
L 209.098984 232.867854 
L 205.920811 238.821379 
L 204.590413 242.042138 
L 200.599219 249.362045 
L 199.638376 250.045236 
L 197.642779 253.363594 
L 196.829758 255.901162 
L 189.660391 269.174593 
L 188.182171 273.176143 
L 185.743108 276.787297 
L 183.525778 281.374438 
L 177.834631 290.743919 
L 176.725966 293.183888 
L 174.434725 296.892641 
L 171.034819 303.236561 
L 169.482688 306.945314 
L 168.078379 308.897289 
L 164.752384 314.948412 
L 162.387232 320.316344 
L 160.835101 322.463517 
L 159.430792 326.074671 
L 155.513508 332.223393 
L 153.665733 334.370565 
L 150.561471 339.5433 
L 144.205125 352.523935 
L 139.105266 360.722231 
L 134.522784 369.896514 
L 130.975056 375.850039 
L 129.79248 378.973199 
L 127.353417 383.853137 
L 125.579553 384.731526 
L 122.918757 387.56189 
L 121.440537 390.587452 
L 122.105736 393.222618 
L 121.440537 396.150581 
L 119.297118 398.883346 
L 116.636322 403.470488 
L 115.305924 408.740821 
L 113.827704 412.156778 
L 112.79295 413.230364 
L 110.132154 414.499148 
L 108.580023 416.353524 
L 107.249625 419.574284 
L 106.362693 420.550271 
L 104.367096 425.430209 
L 102.075855 426.1134 
L 100.597635 427.772579 
L 99.932436 429.919752 
L 97.715106 434.0189 
L 94.610844 443.973974 
L 93.723912 444.754764 
L 94.241289 446.60914 
L 90.767472 449.439504 
L 86.406723 457.052208 
L 85.371969 459.687374 
L 81.602508 467.300077 
L 77.759136 474.131991 
L 76.133094 476.181565 
L 73.841853 480.671108 
L 70.515858 486.429435 
L 68.594172 489.259799 
L 66.155109 493.651743 
L 65.268177 496.189311 
L 62.976936 499.898064 
L 60.242229 502.142835 
L 58.246632 506.534779 
L 57.655344 508.974748 
L 52.703307 517.368242 
L 49.007757 524.688149 
L 48.564291 526.640124 
L 46.642605 529.665686 
L 43.981809 532.49605 
L 42.060123 536.107204 
L 40.507992 536.4 
L 36.960264 534.05763 
L 35.999421 529.665686 
L 34.742934 527.616112 
L 30.308274 525.761735 
L 29.27352 524.883346 
L 25.282326 523.224167 
L 24.247572 521.46739 
L 24.986682 518.441828 
L 22.251975 516.68505 
L 20.4042 514.34268 
L 19.960734 512.585902 
L 20.847666 510.926723 
L 25.651881 506.339582 
L 26.243169 503.802014 
L 29.643075 499.995662 
L 31.416939 497.067699 
L 34.003824 493.749342 
L 37.329819 487.210225 
L 37.995018 485.258249 
L 39.547149 482.915879 
L 44.203542 472.180015 
L 45.829584 468.959256 
L 50.190333 462.029744 
L 51.298998 459.101782 
L 53.516328 455.393029 
L 55.955391 452.17227 
L 59.798763 445.82835 
L 60.907428 443.193184 
L 60.611784 441.826801 
L 62.016093 439.679628 
L 62.311737 437.337258 
L 63.863868 434.506894 
L 65.711643 430.11495 
L 65.859465 428.650968 
L 67.337685 427.870178 
L 67.337685 426.210999 
L 69.776748 422.111851 
L 73.472298 417.329512 
L 76.280916 412.839969 
L 81.380775 403.763284 
L 85.889346 397.419365 
L 90.176184 390.68505 
L 95.202132 387.659489 
L 97.493373 384.145933 
L 98.823771 380.241983 
L 100.375902 376.826026 
L 103.18452 371.750891 
L 106.88007 362.186212 
L 107.175714 360.527033 
L 106.510515 358.965453 
L 102.888876 356.330287 
L 101.410656 354.671108 
L 100.597635 352.621534 
L 100.671546 349.888768 
L 101.928033 348.131991 
L 105.845316 344.325639 
L 107.988735 339.250503 
L 112.79295 329.29543 
L 115.971123 325.001084 
L 119.44494 321.975523 
L 122.40138 321.097134 
L 124.61871 321.097134 
L 127.501239 321.780325 
L 133.118475 324.903486 
L 135.927093 324.708288 
L 137.996601 323.927498 
L 140.805219 321.682727 
L 144.131214 316.607591 
L 146.0529 312.118048 
L 148.861518 308.994888 
L 154.996131 305.188536 
L 157.435194 302.065376 
L 159.874258 296.20945 
L 160.835101 292.500697 
L 160.465546 289.475136 
L 158.396037 285.083191 
L 157.804749 281.764833 
L 158.026482 280.203253 
L 159.578614 277.27529 
L 163.126342 273.078544 
L 166.082782 270.638575 
L 168.743578 269.272192 
L 171.034819 267.515414 
L 172.291306 264.587452 
L 172.069573 259.317119 
L 172.513039 256.779551 
L 174.360814 249.850039 
L 175.839034 245.555693 
L 179.312851 238.138187 
L 181.012804 235.991015 
L 185.15182 231.891867 
L 186.925684 229.647095 
L 190.32559 224.083966 
L 193.208119 217.252053 
L 196.164559 212.664911 
L 200.229664 209.346553 
L 206.881654 207.19938 
L 208.433785 207.19938 
L 216.19444 208.175368 
L 219.003058 207.492177 
L 220.850833 206.125794 
L 222.994252 203.002634 
L 226.54198 195.975523 
L 232.085305 185.434857 
L 239.624227 172.454222 
L 246.128395 160.059179 
L 247.754437 155.764833 
L 248.123992 153.324864 
L 248.197903 147.273741 
L 249.084835 141.710612 
L 249.010924 138.977847 
L 247.828348 135.56189 
L 245.980573 132.43873 
L 245.241463 129.120372 
L 245.611018 127.363594 
L 247.754437 123.166847 
L 250.93261 118.091712 
L 255.145537 112.528582 
L 260.023663 107.063052 
L 262.240993 103.842293 
L 263.054014 99.938342 
L 262.684459 95.448799 
L 263.49748 88.128892 
L 264.532234 83.151356 
L 266.675653 79.345004 
L 268.67125 77.393029 
L 273.771109 74.074671 
L 275.027596 72.122696 
L 275.175418 70.463517 
L 274.066753 68.218745 
L 270.814669 66.949961 
L 268.966894 67.437955 
L 264.310501 70.658714 
L 260.688862 71.537103 
L 258.914998 70.95151 
L 257.5846 67.730751 
L 257.880244 65.095585 
L 259.80193 62.265221 
L 263.423569 58.36127 
L 265.862632 54.554919 
L 267.340852 51.529357 
L 268.006051 49.186987 
L 268.227784 45.966228 
L 266.971297 43.233462 
L 261.797527 38.353524 
L 256.771579 35.425562 
L 251.376076 33.96158 
L 245.75884 33.083191 
L 243.615421 32.4 
L 241.176358 32.4 
L 239.328583 33.863981 
L 237.924274 36.401549 
L 237.406897 40.500697 
L 238.072096 42.452672 
L 240.658981 44.307049 
L 245.684929 45.868629 
L 247.97617 48.308598 
L 248.641369 55.140511 
L 249.823945 59.044462 
L 249.971767 62.948412 
L 248.937013 66.169171 
L 247.384882 68.218745 
L 243.911065 71.341905 
L 241.398091 72.708288 
L 234.967834 75.441053 
L 232.528771 78.369016 
L 230.754907 83.151356 
L 227.576734 85.786522 
L 220.481278 89.007281 
L 217.229194 90.861658 
L 213.755377 94.960806 
L 211.981513 97.986367 
L 209.764183 103.2567 
L 208.729429 107.063052 
L 207.177298 110.479009 
L 204.220858 114.382959 
L 199.120999 117.798916 
L 196.386292 120.726878 
L 194.908072 125.31402 
L 195.129805 129.901162 
L 194.686339 133.121921 
L 192.469009 136.440279 
L 190.251679 137.806662 
L 181.751914 141.710612 
L 177.465076 145.419365 
L 175.026013 148.347328 
L 172.58695 152.544074 
L 171.256552 155.862432 
L 170.295709 160.644771 
L 170.665264 164.743919 
L 173.030416 172.356623 
L 173.621704 174.894191 
L 173.547793 177.529357 
L 172.882594 180.262122 
L 171.404374 182.79969 
L 167.634913 187.874826 
L 165.048028 190.412393 
L 159.948169 193.925949 
L 157.509105 196.365918 
L 157.065639 195.975523 
L 158.691681 190.119597 
L 158.765592 188.167622 
L 158.100393 184.36127 
L 156.326529 180.45732 
L 153.739644 178.89574 
L 150.709293 182.604493 
L 149.157162 186.215647 
L 148.565874 188.558017 
L 148.861518 189.9244 
L 145.683345 190.314795 
L 138.513978 186.606042 
L 131.492433 181.530906 
L 125.431731 178.505345 
L 120.92316 175.577382 
L 113.53206 172.161425 
L 110.427798 169.916654 
L 110.427798 169.916654 
" clip-path="url(#p584afb24a1)" style="fill: none; stroke: #000000; stroke-width: 3"/>
   </g>
  </g>
 </g>
 <defs>
  <clipPath id="p584afb24a1">
   <rect x="7.2" y="7.2" width="280.736152" height="554.4"/>
  </clipPath>
 </defs>
</svg>
