<?xml version="1.0" encoding="utf-8" standalone="no"?>
<!DOCTYPE svg PUBLIC "-//W3C//DTD SVG 1.1//EN"
  "http://www.w3.org/Graphics/SVG/1.1/DTD/svg11.dtd">
<svg xmlns:xlink="http://www.w3.org/1999/xlink" width="153.989095pt" height="568.8pt" viewBox="0 0 153.989095 568.8" xmlns="http://www.w3.org/2000/svg" version="1.1">
 <metadata>
  <rdf:RDF xmlns:dc="http://purl.org/dc/elements/1.1/" xmlns:cc="http://creativecommons.org/ns#" xmlns:rdf="http://www.w3.org/1999/02/22-rdf-syntax-ns#">
   <cc:Work>
    <dc:type rdf:resource="http://purl.org/dc/dcmitype/StillImage"/>
    <dc:date>2023-09-25T14:13:54.619849</dc:date>
    <dc:format>image/svg+xml</dc:format>
    <dc:creator>
     <cc:Agent>
      <dc:title>Matplotlib v3.6.2, https://matplotlib.org/</dc:title>
     </cc:Agent>
    </dc:creator>
   </cc:Work>
  </rdf:RDF>
 </metadata>
 <defs>
  <style type="text/css">*{stroke-linejoin: round; stroke-linecap: butt}</style>
 </defs>
 <g id="figure_1">
  <g id="patch_1">
   <path d="M 0 568.8 
L 153.989095 568.8 
L 153.989095 0 
L 0 0 
z
" style="fill: #ffffff"/>
  </g>
  <g id="axes_1">
   <g id="LineCollection_1">
    <path d="M 108.73504 38.448331 
L 109.83387 38.365478 
L 112.314086 39.152589 
L 113.664077 39.27687 
L 114.22919 38.862601 
L 115.296625 37.039816 
L 115.704762 36.832681 
L 116.521036 37.412658 
L 118.279164 37.909781 
L 120.100082 38.614039 
L 123.145411 40.89252 
L 126.159345 42.301036 
L 129.832577 43.709551 
L 131.904657 44.828078 
L 132.720931 45.532336 
L 133.443019 46.857998 
L 134.008132 49.79931 
L 134.981381 51.829229 
L 136.299977 53.03061 
L 137.492993 54.356272 
L 138.717403 56.469045 
L 140.22437 58.167549 
L 140.444136 59.078941 
L 138.99996 61.813119 
L 138.058105 63.180207 
L 136.896485 65.375834 
L 134.981381 68.234292 
L 134.636034 69.4771 
L 133.913946 70.595627 
L 133.75697 71.879862 
L 132.155818 74.531185 
L 131.465125 75.359724 
L 130.648851 76.768239 
L 129.863972 78.591024 
L 128.765142 80.745224 
L 127.791893 82.278021 
L 127.258175 83.520829 
L 125.751208 86.130725 
L 124.652378 88.450633 
L 123.647734 89.693441 
L 123.019831 90.894822 
L 122.015186 92.096203 
L 121.481469 92.427618 
L 121.607049 94.540391 
L 119.691945 96.98458 
L 118.907067 97.730265 
L 118.341954 99.097353 
L 117.776841 99.967319 
L 117.588471 101.1687 
L 114.762907 105.145685 
L 114.448956 106.5542 
L 113.946634 106.844189 
L 111.435022 110.779747 
L 111.372232 111.898274 
L 110.838514 112.809666 
L 110.210611 113.306789 
L 109.89666 114.673878 
L 108.92341 115.626697 
L 108.421088 116.828078 
L 105.815291 121.79931 
L 104.716461 123.41496 
L 104.025768 125.362025 
L 104.088558 126.231991 
L 102.895543 127.474799 
L 102.236244 128.883314 
L 100.509511 131.824626 
L 100.007189 133.564557 
L 99.222311 134.931646 
L 99.190915 134.227388 
L 98.594408 135.67733 
L 97.150231 137.624396 
L 96.616513 139.944304 
L 95.643264 140.772842 
L 95.109546 142.5542 
L 93.916531 144.211277 
L 93.351418 146.489758 
L 92.409564 147.608285 
L 91.970032 148.436824 
L 89.992138 150.92244 
L 90.117718 152.206674 
L 89.364235 154.15374 
L 89.081679 155.23084 
L 87.26076 157.467894 
L 86.507277 159.083544 
L 85.220076 161.486306 
L 84.560778 163.226237 
L 83.618923 165.007595 
L 82.739859 166.208976 
L 81.703819 167.948907 
L 77.748031 173.002992 
L 76.994548 174.411507 
L 76.52362 174.701496 
L 75.581766 176.93855 
L 75.487581 177.4771 
L 74.577121 179.6313 
L 74.26317 181.039816 
L 72.756203 182.489758 
L 72.06551 184.063982 
L 71.877139 185.43107 
L 70.213196 187.336709 
L 69.773664 188.993786 
L 68.674834 190.650863 
L 67.199262 193.219333 
L 66.791125 194.255006 
L 65.943456 195.704948 
L 65.378344 197.444879 
L 63.902772 199.930495 
L 62.458595 202.623245 
L 59.695823 206.60023 
L 59.727218 207.221634 
L 59.005129 208.713003 
L 58.03188 210.162946 
L 57.372582 212.151438 
L 56.273752 214.098504 
L 55.614454 214.927043 
L 53.197027 219.856847 
L 53.228423 220.436824 
L 53.730745 221.265362 
L 53.040052 224.248101 
L 52.569125 227.106559 
L 51.752851 230.752129 
L 51.69006 231.829229 
L 51.187738 233.942002 
L 50.779601 236.924741 
L 50.497045 237.960414 
L 49.586586 240.073188 
L 47.797062 243.304488 
L 46.949394 244.298734 
L 45.630797 245.251554 
L 45.819168 245.541542 
L 48.142409 246.411507 
L 47.514506 248.772842 
L 47.577296 249.684235 
L 47.200555 251.382739 
L 46.949394 253.495512 
L 46.321491 255.525432 
L 46.415676 257.141082 
L 46.007539 259.04672 
L 41.988961 265.095052 
L 40.419203 266.710702 
L 40.011066 267.580667 
L 39.477349 269.403452 
L 38.378519 270.977675 
L 37.53085 271.930495 
L 37.185503 272.80046 
L 36.055278 274.871807 
L 35.019238 276.363176 
L 34.548311 277.398849 
L 34.35994 278.434522 
L 31.942514 281.127273 
L 30.969265 283.654315 
L 30.152991 284.814269 
L 29.273927 285.559954 
L 28.332072 287.09275 
L 27.76696 288.666974 
L 26.542549 290.448331 
L 24.721631 293.472497 
L 23.183268 295.04672 
L 22.46118 296.165247 
L 20.357705 298.940852 
L 19.949569 299.893671 
L 18.944924 301.012198 
L 18.568182 302.296433 
L 18.12865 302.669275 
L 17.186796 304.326352 
L 16.025175 305.527733 
L 15.460063 306.356272 
L 13.544959 309.918987 
L 13.827515 310.623245 
L 15.271692 311.658918 
L 16.778659 313.067434 
L 17.563537 314.020253 
L 19.541432 315.843038 
L 22.3356 318.742923 
L 23.49722 319.405754 
L 25.663485 320.4 
L 27.955331 321.684235 
L 29.148346 322.01565 
L 30.906474 322.96847 
L 31.346006 324.004143 
L 30.906474 324.791254 
L 34.705287 328.933947 
L 38.409914 338.172152 
L 38.943631 339.95351 
L 39.634325 341.237745 
L 40.136647 342.563406 
L 41.455243 345.421864 
L 42.208727 346.374684 
L 42.271517 347.120368 
L 43.590113 349.771692 
L 44.563362 352.713003 
L 44.563362 354.577215 
L 45.222661 356.317146 
L 46.321491 356.855696 
L 47.137764 358.347066 
L 47.106369 359.755581 
L 47.734272 360.749827 
L 48.927288 363.152589 
L 49.398215 364.768239 
L 50.151698 365.596778 
L 50.999367 367.295282 
L 53.82493 374.793556 
L 54.829575 377.113464 
L 56.399332 380.427618 
L 56.964445 382.043268 
L 57.090025 383.658918 
L 57.403977 384.694591 
L 58.000485 385.813119 
L 59.444661 387.304488 
L 59.476057 388.050173 
L 59.915589 388.713003 
L 61.171394 392.151438 
L 61.202789 393.228539 
L 60.920233 394.885616 
L 59.915589 395.921289 
L 59.821403 396.501266 
L 59.821403 401.803913 
L 59.695823 405.242348 
L 59.381871 405.905178 
L 59.695823 406.443728 
L 61.987668 406.775144 
L 64.373699 406.775144 
L 66.885311 406.899425 
L 67.701585 407.272267 
L 68.203907 408.722209 
L 68.517858 410.752129 
L 70.338777 414.894822 
L 71.657373 418.374684 
L 72.693413 420.653165 
L 73.415501 422.517376 
L 74.922468 425.417261 
L 76.303854 428.317146 
L 76.649201 429.394246 
L 77.120128 431.755581 
L 78.53291 435.318297 
L 82.268932 442.485155 
L 83.493343 444.30794 
L 84.623568 446.503567 
L 85.031705 448.409206 
L 85.973559 450.480552 
L 87.480526 452.883314 
L 88.736332 455.244649 
L 89.772372 456.570311 
L 92.283983 460.381588 
L 93.006072 461.997238 
L 95.140942 466.01565 
L 96.490933 468.04557 
L 96.710699 468.7084 
L 99.756028 474.342463 
L 103.868792 481.79931 
L 106.474589 486.770541 
L 108.358298 489.918987 
L 110.273402 493.440276 
L 111.215256 495.511623 
L 111.183861 497.872957 
L 111.591998 499.902877 
L 112.722223 502.388493 
L 113.475706 503.6313 
L 115.516391 504.086997 
L 116.018713 504.335558 
L 116.772197 505.951208 
L 118.247769 508.561105 
L 121.167517 514.15374 
L 124.150056 519.290679 
L 124.181451 519.704948 
L 123.522153 519.95351 
L 122.95704 519.332106 
L 121.544259 516.597929 
L 120.947751 516.017952 
L 122.234952 518.586421 
L 122.548903 518.46214 
L 122.95704 519.290679 
L 123.679129 519.622094 
L 124.150056 519.332106 
L 124.118661 518.793556 
L 123.239597 517.343613 
L 121.418678 513.946605 
L 119.126833 510.093901 
L 115.924528 504.294131 
L 114.794303 503.797008 
L 112.847804 503.921289 
L 111.780369 505.039816 
L 108.138532 511.419563 
L 106.192033 514.236594 
L 104.685066 516.680783 
L 104.025768 517.260759 
L 99.913004 523.889068 
L 99.065335 523.930495 
L 95.643264 521.56916 
L 95.015361 521.279171 
L 92.849096 519.746375 
L 88.422381 517.053625 
L 86.821228 515.479402 
L 85.691003 514.650863 
L 84.058455 514.319448 
L 77.685241 510.135328 
L 71.877139 506.614039 
L 69.491108 504.832681 
L 68.800415 506.696893 
L 65.472529 512.413809 
L 64.970207 513.035213 
L 64.059748 514.816571 
L 62.898127 516.30794 
L 61.924878 517.840736 
L 61.077209 519.539241 
L 60.480701 520.036364 
L 57.498162 518.379287 
L 55.9598 517.219333 
L 49.869142 513.532336 
L 44.720338 510.135328 
L 44.218016 509.96962 
L 38.818051 506.406904 
L 37.185503 508.395397 
L 37.342479 508.89252 
L 38.252938 509.43107 
L 39.445954 509.803913 
L 44.029645 512.620944 
L 45.222661 511.419563 
L 46.101725 510.259609 
L 46.635442 509.223936 
L 47.35753 508.519678 
L 49.115659 509.058228 
L 49.586586 509.721059 
L 50.842392 510.301036 
L 53.354003 511.916686 
L 54.013301 512.53809 
L 54.264462 513.532336 
L 54.92376 513.905178 
L 56.964445 514.319448 
L 61.139999 517.053625 
L 62.176039 517.92359 
L 66.979496 520.533487 
L 69.334132 521.942002 
L 72.034115 523.930495 
L 74.765492 525.546145 
L 76.774782 526.871807 
L 77.402684 527.534638 
L 81.89219 530.103107 
L 82.896835 530.268815 
L 84.152641 531.014499 
L 85.753793 532.298734 
L 89.018888 534.2458 
L 91.247944 535.778596 
L 91.813056 536.4 
L 92.221193 536.358573 
L 93.351418 534.701496 
L 93.66537 533.955811 
L 98.217666 526.747526 
L 99.567657 524.80046 
L 101.608342 521.444879 
L 103.774607 518.172152 
L 106.411799 513.656617 
L 108.075741 511.336709 
L 109.457128 509.058228 
L 111.780369 504.749827 
L 112.282691 503.382739 
L 113.381521 503.548446 
L 114.888488 503.134177 
L 115.579181 502.305639 
L 114.857093 500.192865 
L 114.731512 498.080092 
L 114.511746 497.044419 
L 113.821053 495.843038 
L 111.05828 493.937399 
L 109.614104 491.90748 
L 108.672249 490.250403 
L 104.622276 482.503567 
L 97.778134 470.489758 
L 96.710699 468.211277 
L 95.768845 466.595627 
L 94.70141 464.317146 
L 92.503749 460.133026 
L 89.992138 455.783199 
L 86.318906 448.699194 
L 85.534027 447.663521 
L 84.654963 445.716456 
L 81.735215 440.869505 
L 80.134062 437.845339 
L 80.134062 437.513924 
L 78.972442 436.643959 
L 77.967797 433.992635 
L 77.55966 432.16985 
L 76.39804 428.524281 
L 75.644556 426.660069 
L 75.079444 425.790104 
L 74.702702 424.671577 
L 74.514331 423.387342 
L 73.258525 419.658918 
L 72.724808 418.706099 
L 71.312026 415.060529 
L 70.652728 412.533487 
L 70.370172 412.367779 
L 69.114366 409.592175 
L 68.580649 407.479402 
L 66.351593 401.721059 
L 65.974852 400.022555 
L 65.189973 399.27687 
L 64.656255 399.152589 
L 63.714401 399.691139 
L 62.898127 399.235443 
L 62.866732 398.19977 
L 62.458595 397.412658 
L 60.700467 396.749827 
L 60.22954 396.294131 
L 60.888838 394.637054 
L 61.045814 392.565708 
L 60.888838 391.032911 
L 58.785363 386.848792 
L 57.874904 384.321749 
L 57.560953 382.871807 
L 58.251646 381.256157 
L 56.99584 379.806214 
L 55.677244 377.652014 
L 54.107487 374.255006 
L 53.291213 372.929344 
L 52.192383 370.402301 
L 51.847036 369.118067 
L 50.779601 366.963867 
L 49.994723 364.975374 
L 48.895893 362.945455 
L 48.424965 361.329804 
L 47.671482 359.6313 
L 46.698232 357.932796 
L 46.478466 356.814269 
L 45.316846 354.080092 
L 44.720338 352.174453 
L 43.809879 350.268815 
L 43.056395 348.363176 
L 41.80059 345.711853 
L 40.230832 341.527733 
L 37.687826 335.396548 
L 34.454126 328.35397 
L 32.978554 326.531185 
L 31.785538 325.288377 
L 30.780894 324.749827 
L 32.319256 321.435673 
L 35.239004 314.683084 
L 36.43202 310.623245 
L 38.190148 305.652014 
L 41.549429 293.803913 
L 42.083146 291.152589 
L 42.773839 290.034062 
L 42.96221 288.749827 
L 46.478466 275.451784 
L 47.388926 273.546145 
L 49.115659 270.563406 
L 51.62727 266.586421 
L 53.134237 263.727963 
L 53.793535 262.029459 
L 56.116776 257.762486 
L 56.336542 256.933947 
L 58.09467 254.158343 
L 58.973734 252.376985 
L 59.570242 251.755581 
L 61.32837 248.814269 
L 62.019063 246.908631 
L 63.40045 244.588723 
L 63.934167 243.925892 
L 66.445779 239.451784 
L 67.952746 237.090449 
L 68.392278 236.054776 
L 70.652728 232.119217 
L 71.625978 229.592175 
L 72.1283 228.887917 
L 75.205024 223.005293 
L 76.272459 221.306789 
L 77.214314 218.655466 
L 76.146879 218.075489 
L 72.818993 216.004143 
L 70.589938 214.885616 
L 69.208552 213.849942 
L 67.356238 213.021404 
L 66.351593 212.275719 
L 63.023708 210.78435 
L 62.835337 210.494361 
L 60.480701 208.713003 
L 58.126065 207.801611 
L 57.152816 207.304488 
L 56.305147 206.475949 
L 54.264462 205.647411 
L 53.228423 204.818872 
L 51.56448 204.031761 
L 49.712166 202.581818 
L 48.676127 202.333257 
L 47.891248 201.628999 
L 49.304029 198.356272 
L 50.026118 197.154891 
L 50.52844 195.746375 
L 51.595875 193.79931 
L 53.416793 189.739471 
L 55.269107 186.50817 
L 55.740034 185.223936 
L 55.991195 183.401151 
L 56.93305 182.365478 
L 57.749324 180.956962 
L 58.848154 179.382739 
L 59.538847 178.637054 
L 60.888838 176.110012 
L 62.019063 174.452934 
L 62.333015 173.500115 
L 65.503924 167.90748 
L 67.105077 165.421864 
L 68.235302 163.391945 
L 69.020181 161.56916 
L 69.99343 160.160644 
L 71.186446 157.675029 
L 72.1283 155.976525 
L 72.975969 153.739471 
L 73.258525 152.579517 
L 74.043404 150.756732 
L 75.236419 149.223936 
L 75.927113 147.856847 
L 76.931757 146.531185 
L 77.748031 145.039816 
L 78.124773 143.838435 
L 78.941047 142.181358 
L 79.820111 140.855696 
L 80.322433 139.364327 
L 80.79336 138.908631 
L 81.735215 137.29298 
L 82.959625 134.393096 
L 83.870084 133.52313 
L 84.403802 131.90748 
L 85.659608 130.29183 
L 86.852623 127.930495 
L 87.103784 126.480552 
L 88.045639 125.900575 
L 89.081679 123.249252 
L 90.149114 123.249252 
L 90.902597 121.343613 
L 91.844451 119.76939 
L 92.064217 118.112313 
L 92.817701 117.408055 
L 92.095613 116.620944 
L 90.965387 115.958113 
L 86.413091 113.679632 
L 84.874729 113.058228 
L 83.367762 112.271116 
L 82.143351 111.981128 
L 81.546844 111.525432 
L 77.967797 109.536939 
L 77.653846 109.039816 
L 77.182918 106.264212 
L 77.245709 105.352819 
L 79.56895 100.588723 
L 80.761965 97.688838 
L 81.515449 96.404603 
L 81.986376 96.073188 
L 83.744504 93.256157 
L 84.435197 91.72336 
L 86.067745 89.320598 
L 86.570067 88.119217 
L 87.794478 85.757883 
L 88.579356 84.639356 
L 89.552606 82.775144 
L 90.43167 81.449482 
L 91.687476 79.04672 
L 93.068862 76.022555 
L 93.822346 74.696893 
L 94.638619 73.744074 
L 96.114191 71.382739 
L 97.652553 67.944304 
L 99.285101 64.75443 
L 100.509511 62.724511 
L 101.545551 60.736018 
L 101.29439 59.866053 
L 100.572302 59.410357 
L 98.217666 58.540391 
L 96.993255 57.918987 
L 95.266522 57.421864 
L 93.66537 55.930495 
L 92.535145 55.764787 
L 87.606107 53.154891 
L 84.403802 51.083544 
L 84.403802 50.669275 
L 85.282866 49.177906 
L 86.16193 47.313694 
L 86.664252 45.946605 
L 87.166575 45.283774 
L 88.547961 42.549597 
L 89.835162 40.685386 
L 92.880491 35.299885 
L 93.539789 34.637054 
L 94.70141 32.4 
L 96.271167 32.93855 
L 98.845569 34.429919 
L 101.011834 35.50702 
L 103.209494 36.832681 
L 103.586236 36.58412 
L 104.433905 34.719908 
L 105.469944 34.678481 
L 106.474589 34.96847 
L 108.075741 36.04557 
L 108.075741 36.04557 
" clip-path="url(#p5eb44a456c)" style="fill: none; stroke: #000000; stroke-width: 3"/>
   </g>
  </g>
 </g>
 <defs>
  <clipPath id="p5eb44a456c">
   <rect x="7.2" y="7.2" width="139.589095" height="554.4"/>
  </clipPath>
 </defs>
</svg>
