<?xml version="1.0" encoding="utf-8" standalone="no"?>
<!DOCTYPE svg PUBLIC "-//W3C//DTD SVG 1.1//EN"
  "http://www.w3.org/Graphics/SVG/1.1/DTD/svg11.dtd">
<svg xmlns:xlink="http://www.w3.org/1999/xlink" width="372.105097pt" height="568.8pt" viewBox="0 0 372.105097 568.8" xmlns="http://www.w3.org/2000/svg" version="1.1">
 <metadata>
  <rdf:RDF xmlns:dc="http://purl.org/dc/elements/1.1/" xmlns:cc="http://creativecommons.org/ns#" xmlns:rdf="http://www.w3.org/1999/02/22-rdf-syntax-ns#">
   <cc:Work>
    <dc:type rdf:resource="http://purl.org/dc/dcmitype/StillImage"/>
    <dc:date>2023-09-25T14:13:54.559071</dc:date>
    <dc:format>image/svg+xml</dc:format>
    <dc:creator>
     <cc:Agent>
      <dc:title>Matplotlib v3.6.2, https://matplotlib.org/</dc:title>
     </cc:Agent>
    </dc:creator>
   </cc:Work>
  </rdf:RDF>
 </metadata>
 <defs>
  <style type="text/css">*{stroke-linejoin: round; stroke-linecap: butt}</style>
 </defs>
 <g id="figure_1">
  <g id="patch_1">
   <path d="M 0 568.8 
L 372.105097 568.8 
L 372.105097 0 
L 0 0 
z
" style="fill: #ffffff"/>
  </g>
  <g id="axes_1">
   <g id="LineCollection_1">
    <path d="M 238.875637 146.268446 
L 242.817658 148.030124 
L 245.910629 149.791802 
L 248.82166 151.073022 
L 250.398469 149.711725 
L 251.368813 146.82898 
L 252.157217 146.348522 
L 255.55342 147.789895 
L 261.193543 149.631649 
L 269.502112 154.996759 
L 276.051932 157.399047 
L 279.993954 159.000572 
L 283.32951 160.842326 
L 284.906319 162.04347 
L 286.301188 164.685987 
L 286.907653 168.369495 
L 287.81735 171.092088 
L 289.394159 173.734604 
L 292.669069 177.578265 
L 294.063938 177.818494 
L 294.852342 180.140705 
L 297.460141 183.90429 
L 299.764708 186.306578 
L 299.764708 188.468637 
L 296.914323 194.073975 
L 295.094928 196.956721 
L 293.032948 202.081602 
L 291.09226 204.804194 
L 289.333512 209.208389 
L 280.175893 224.82326 
L 278.477791 226.665014 
L 277.446801 229.227455 
L 275.263528 232.270353 
L 273.383487 236.114013 
L 270.351162 241.479123 
L 268.895647 244.76225 
L 265.923969 250.127359 
L 263.255524 254.531554 
L 262.406473 257.334223 
L 260.890311 259.496282 
L 258.100572 265.181697 
L 254.765016 270.146425 
L 251.914631 274.710772 
L 250.762348 277.75367 
L 248.942953 280.476263 
L 247.548084 283.11878 
L 245.910629 285.120686 
L 244.697699 287.362822 
L 244.273174 289.76511 
L 241.05891 294.569685 
L 239.724688 297.212202 
L 238.754344 300.495329 
L 234.812322 307.622116 
L 232.507756 311.305624 
L 230.203189 315.46959 
L 227.049572 321.875691 
L 223.774662 326.840419 
L 221.409449 331.084461 
L 219.590055 334.928122 
L 218.437771 338.451478 
L 217.285488 340.293232 
L 216.921609 341.814681 
L 214.859629 345.177884 
L 213.586053 349.261773 
L 212.009244 351.343756 
L 211.22084 351.664061 
L 210.675021 353.665968 
L 209.401445 356.468637 
L 208.370455 357.269399 
L 204.30714 363.835653 
L 200.122533 369.120686 
L 198.363785 372.804194 
L 196.483744 375.767016 
L 195.149521 378.729838 
L 192.05655 383.934795 
L 191.2075 386.417159 
L 189.327459 390.581125 
L 184.718326 397.707912 
L 183.141517 400.991039 
L 181.807295 404.594471 
L 176.894929 410.359962 
L 173.013554 416.926215 
L 171.739978 420.849952 
L 170.648341 422.131173 
L 168.101189 426.615443 
L 166.52438 428.537274 
L 164.826279 431.500095 
L 163.188824 435.503908 
L 159.550035 441.749857 
L 156.760296 446.234128 
L 154.819609 450.47817 
L 153.606679 451.919542 
L 152.393749 455.042517 
L 149.482718 460.487703 
L 149.118839 462.729838 
L 146.571687 466.893804 
L 145.358757 469.456244 
L 141.295443 475.622116 
L 139.900574 478.184557 
L 137.777947 482.989133 
L 136.565017 487.473403 
L 134.745622 487.793708 
L 131.16748 485.471497 
L 127.649984 482.348522 
L 125.527357 479.465777 
L 121.706628 478.424786 
L 115.763273 475.301811 
L 112.063837 471.217922 
L 109.274099 469.776549 
L 107.515351 469.456244 
L 102.542339 466.493422 
L 100.419712 465.532507 
L 98.842903 465.69266 
L 96.174458 462.24938 
L 92.111143 461.208389 
L 87.926536 458.726025 
L 86.410374 458.645949 
L 84.166454 457.444805 
L 80.224432 456.083508 
L 79.496675 457.044423 
L 78.768917 460.647855 
L 82.832231 463.370448 
L 88.89688 466.573499 
L 94.173124 469.616397 
L 93.748599 468.175024 
L 95.143468 467.774643 
L 96.295751 468.575405 
L 98.357731 471.858532 
L 101.14747 473.700286 
L 103.027511 474.420972 
L 105.817249 476.903337 
L 107.818583 478.264633 
L 110.244442 479.065396 
L 110.850907 478.825167 
L 113.034181 481.227455 
L 113.761939 481.307531 
L 120.857577 484.991039 
L 124.132487 487.153098 
L 128.680974 489.074929 
L 130.257782 489.47531 
L 131.288773 491.156911 
L 129.772611 495.801335 
L 129.105499 495.961487 
L 132.259116 499.32469 
L 134.988208 501.166444 
L 138.081179 501.726978 
L 137.959886 500.285605 
L 139.112169 498.123546 
L 140.143159 497.723165 
L 142.508372 498.123546 
L 143.600009 498.924309 
L 146.147161 499.32469 
L 147.784617 501.807054 
L 149.179486 501.887131 
L 153.182154 503.488656 
L 154.334437 505.010105 
L 156.093185 505.890944 
L 159.489388 507.012011 
L 160.884257 507.092088 
L 162.824945 503.969113 
L 162.643005 502.127359 
L 160.035206 500.045377 
L 155.244134 497.803241 
L 153.2428 495.721258 
L 151.544699 494.680267 
L 151.120173 493.799428 
L 148.815607 491.39714 
L 145.843929 490.356149 
L 146.450394 487.233174 
L 147.420738 487.313251 
L 149.664658 488.674547 
L 152.636335 491.156911 
L 154.819609 492.277979 
L 156.032538 492.117827 
L 157.366761 493.959581 
L 160.277792 496.041563 
L 163.067531 496.842326 
L 165.068865 497.963394 
L 166.888259 498.283699 
L 169.314119 499.725071 
L 172.164503 501.006292 
L 175.742646 503.168351 
L 177.683334 504.930029 
L 180.291132 505.250334 
L 187.690004 509.334223 
L 189.509398 510.054909 
L 187.629357 515.17979 
L 185.809963 517.982459 
L 184.839619 520.304671 
L 183.747982 521.505815 
L 181.079537 526.150238 
L 179.320789 530.874738 
L 176.894929 534.718398 
L 176.470404 536.079695 
L 175.621353 536.4 
L 174.226484 535.75939 
L 168.95024 532.316111 
L 167.979896 531.355195 
L 166.403087 530.874738 
L 158.579691 526.951001 
L 149.118839 521.345663 
L 146.874919 520.304671 
L 144.752292 518.382841 
L 142.993544 517.742231 
L 141.659322 515.980553 
L 138.202472 514.619256 
L 136.201138 514.218875 
L 133.532693 512.857579 
L 131.895238 511.416206 
L 123.768609 507.572545 
L 122.616325 507.492469 
L 119.341415 505.33041 
L 117.582667 504.6898 
L 112.549009 500.846139 
L 110.062503 498.283699 
L 108.546341 497.40286 
L 104.846905 496.441945 
L 103.755269 496.441945 
L 101.693288 495.080648 
L 96.962862 492.67836 
L 94.41571 490.436225 
L 89.260759 487.633556 
L 85.62197 486.192183 
L 79.799907 482.668827 
L 77.555987 481.627836 
L 74.948188 479.866158 
L 69.91453 477.063489 
L 70.581641 473.62021 
L 76.282411 462.88999 
L 79.314735 457.685033 
L 83.014171 452.720305 
L 83.923868 450.638322 
L 86.592313 445.913823 
L 89.018173 442.070162 
L 89.745931 441.91001 
L 97.326741 446.154051 
L 101.390056 449.597331 
L 104.786259 450.718398 
L 107.757937 453.761296 
L 111.457372 454.96244 
L 114.42905 457.044423 
L 116.612323 457.925262 
L 120.251112 460.167398 
L 121.585335 460.087321 
L 122.737618 458.886177 
L 124.375073 456.163584 
L 124.011194 455.122593 
L 121.888568 454.241754 
L 117.400728 450.798475 
L 116.733616 450.638322 
L 111.881898 446.954814 
L 110.911554 445.833746 
L 110.001856 445.913823 
L 107.757937 444.872831 
L 103.755269 441.749857 
L 100.419712 439.667874 
L 99.813247 439.667874 
L 97.387388 437.746044 
L 94.23377 435.90429 
L 92.960194 436.945281 
L 90.352395 435.984366 
L 86.592313 434.222688 
L 80.103139 430.699333 
L 75.494007 427.736511 
L 73.128794 426.69552 
L 69.004833 424.453384 
L 61.787901 421.810867 
L 55.056141 418.848046 
L 56.026485 418.287512 
L 55.116788 417.166444 
L 53.418686 416.365682 
L 50.871534 414.283699 
L 49.052139 413.723165 
L 41.10745 407.637369 
L 39.833873 407.076835 
L 38.924176 407.477216 
L 36.862196 406.596378 
L 32.920174 404.354242 
L 31.222073 403.713632 
L 27.825869 401.551573 
L 24.550959 399.789895 
L 23.459323 398.588751 
L 25.40001 394.745091 
L 26.188414 394.264633 
L 35.224741 398.428599 
L 38.075125 400.030124 
L 44.139774 404.274166 
L 45.59529 404.994852 
L 44.867532 407.076835 
L 45.41335 408.758437 
L 46.808219 410.039657 
L 50.022483 411.160724 
L 51.781231 410.760343 
L 55.42002 411.320877 
L 57.906526 411.400953 
L 59.240749 412.281792 
L 62.818891 416.365682 
L 67.549317 420.369495 
L 71.673278 419.648808 
L 75.008835 420.289418 
L 77.070815 418.447664 
L 77.980512 416.846139 
L 77.313401 416.045377 
L 73.18944 414.123546 
L 70.399702 413.482936 
L 66.942852 410.760343 
L 62.636952 408.358055 
L 60.696264 409.078742 
L 59.90786 411.160724 
L 58.87687 411.561106 
L 57.118122 410.840419 
L 58.512991 413.643089 
L 59.362042 414.123546 
L 63.425356 415.004385 
L 65.42669 417.807054 
L 65.851216 419.728885 
L 65.669276 415.404766 
L 68.337721 415.644995 
L 71.551985 417.726978 
L 73.613966 416.766063 
L 75.190774 417.006292 
L 77.374048 416.685987 
L 79.132796 417.807054 
L 84.105807 419.808961 
L 87.138132 421.890944 
L 90.413042 423.092088 
L 95.082821 425.174071 
L 97.629974 424.373308 
L 99.873894 420.129266 
L 101.390056 417.887131 
L 101.390056 416.926215 
L 98.842903 415.084461 
L 94.41571 412.76225 
L 90.170456 410.039657 
L 86.895546 407.317064 
L 85.500677 407.156911 
L 77.252755 402.592564 
L 74.826895 399.869971 
L 71.370046 397.627836 
L 70.217762 396.506768 
L 67.85255 396.26654 
L 63.243417 392.743184 
L 59.301395 391.381888 
L 57.178768 391.862345 
L 52.266403 388.419066 
L 49.294725 387.618303 
L 41.653268 383.134032 
L 49.173432 387.217922 
L 51.235413 387.698379 
L 55.116788 390.981506 
L 55.60196 390.821354 
L 59.483335 392.743184 
L 60.696264 397.147378 
L 62.758245 399.950048 
L 66.45768 400.270353 
L 67.67061 399.389514 
L 69.429358 394.424786 
L 65.60863 391.942421 
L 64.638286 390.981506 
L 61.666608 389.860439 
L 61.060143 391.381888 
L 59.786567 391.782269 
L 60.332385 389.940515 
L 64.092467 384.975786 
L 65.487337 382.733651 
L 67.306731 379.050143 
L 71.066813 381.932888 
L 72.704268 384.2551 
L 77.798573 384.415253 
L 80.163786 385.696473 
L 81.98318 385.776549 
L 86.107141 387.057769 
L 88.229768 388.819447 
L 93.142134 391.461964 
L 93.687952 391.061582 
L 95.749933 385.936702 
L 97.811913 382.33327 
L 97.387388 380.971973 
L 94.051831 378.729838 
L 90.534335 376.96816 
L 84.772919 373.364728 
L 81.679948 372.323737 
L 80.527665 371.362822 
L 78.344391 368.640229 
L 76.282411 367.198856 
L 71.673278 364.956721 
L 70.399702 365.036797 
L 68.398368 363.915729 
L 67.791903 363.03489 
L 65.547983 362.314204 
L 67.185438 359.271306 
L 68.580307 358.150238 
L 78.405038 363.835653 
L 80.406372 365.677407 
L 82.286413 365.997712 
L 86.046495 368.079695 
L 87.259425 369.200763 
L 93.506013 372.483889 
L 94.718942 373.364728 
L 100.722944 376.647855 
L 105.089491 378.729838 
L 108.667634 381.772736 
L 112.063837 384.094948 
L 113.640646 386.096854 
L 115.884566 386.096854 
L 120.372405 389.219828 
L 121.342749 390.26082 
L 124.193134 391.702193 
L 125.406064 393.223642 
L 130.197136 395.946235 
L 133.047521 398.348522 
L 134.684976 397.707912 
L 139.657988 400.190276 
L 142.326433 400.350429 
L 144.934232 403.473403 
L 146.086515 405.635462 
L 148.209142 405.875691 
L 150.392415 407.877598 
L 152.818275 407.557293 
L 154.819609 403.073022 
L 155.062195 401.39142 
L 156.214478 398.268446 
L 157.427408 396.026311 
L 159.853267 390.661201 
L 162.03654 387.538227 
L 163.552703 384.815634 
L 164.159167 382.173117 
L 165.008218 380.411439 
L 169.010886 373.845186 
L 172.892261 372.724118 
L 173.862605 372.003432 
L 174.651009 369.921449 
L 175.621353 368.800381 
L 177.865273 361.75367 
L 179.805961 357.91001 
L 181.01889 353.906196 
L 182.23182 351.26368 
L 181.867941 349.421926 
L 183.990568 346.459104 
L 184.960912 345.818494 
L 186.962246 343.095901 
L 187.811297 341.174071 
L 186.780306 340.53346 
L 188.114529 337.730791 
L 190.964914 334.447664 
L 193.512066 329.643089 
L 197.575381 323.156911 
L 199.576715 319.633556 
L 201.578049 317.231268 
L 202.912271 314.268446 
L 205.034898 311.465777 
L 207.94593 306.26082 
L 208.673687 304.33899 
L 208.855627 302.016778 
L 207.76399 300.2551 
L 205.459424 298.813727 
L 203.45809 298.173117 
L 202.972918 296.251287 
L 204.125201 294.089228 
L 208.309808 290.005338 
L 209.462092 288.644042 
L 213.767992 279.03489 
L 216.436437 274.230315 
L 219.590055 270.626883 
L 222.864965 269.18551 
L 225.53341 269.18551 
L 227.95927 270.146425 
L 232.022584 272.388561 
L 234.205857 272.388561 
L 236.328484 271.427645 
L 239.118223 269.18551 
L 240.634385 266.62307 
L 241.726022 263.660248 
L 243.48477 260.937655 
L 245.364811 259.33613 
L 247.851317 258.054909 
L 250.095236 256.373308 
L 251.368813 254.851859 
L 253.006268 251.889037 
L 254.219197 248.285605 
L 254.643723 245.963394 
L 254.279844 242.920496 
L 253.006268 240.438132 
L 252.339156 236.8347 
L 252.581742 235.473403 
L 254.037258 232.991039 
L 256.341824 230.108294 
L 257.918633 228.666921 
L 261.618069 226.504862 
L 263.31617 224.743184 
L 263.983282 222.661201 
L 263.558756 219.217922 
L 263.922635 217.376168 
L 265.196211 213.772736 
L 265.802676 210.569685 
L 266.833666 207.366635 
L 269.562758 201.841373 
L 272.595082 197.757483 
L 275.081588 195.515348 
L 277.568094 192.152145 
L 281.328176 183.583985 
L 283.32951 180.380934 
L 286.301188 177.658341 
L 288.545108 176.61735 
L 292.851008 175.496282 
L 294.609756 175.416206 
L 298.551778 176.056816 
L 302.554446 175.656435 
L 303.949315 174.455291 
L 305.647417 172.053003 
L 307.163579 169.090181 
L 312.439823 159.881411 
L 314.56245 155.637369 
L 324.023302 138.741277 
L 325.903343 134.257007 
L 326.206575 126.569685 
L 326.873686 123.04633 
L 326.934333 120.163584 
L 326.388514 118.081602 
L 324.265887 114.157865 
L 323.902009 112.796568 
L 324.205241 110.714585 
L 325.418171 107.751764 
L 328.693081 102.306578 
L 332.271223 97.502002 
L 336.516477 93.25796 
L 338.396518 90.615443 
L 338.821044 88.133079 
L 338.335872 84.849952 
L 338.457165 82.287512 
L 339.306216 76.441945 
L 340.033974 73.479123 
L 342.520479 69.555386 
L 346.705087 66.992946 
L 348.099956 65.711725 
L 348.645774 63.869971 
L 347.250905 61.387607 
L 344.58246 60.746997 
L 343.126944 61.227455 
L 337.911347 64.590658 
L 336.455831 64.75081 
L 334.151264 63.069209 
L 333.787386 60.90715 
L 334.697083 58.665014 
L 338.093286 54.661201 
L 340.033974 51.938608 
L 341.914015 48.495329 
L 342.884358 44.251287 
L 342.095954 41.368541 
L 340.701085 39.526787 
L 338.821044 37.76511 
L 335.728073 35.683127 
L 330.451829 33.921449 
L 325.357524 33.360915 
L 322.446493 32.4 
L 320.687745 32.640229 
L 319.292876 33.601144 
L 317.898007 35.683127 
L 317.412835 38.645949 
L 318.0193 40.407626 
L 319.414169 41.688847 
L 323.416837 43.130219 
L 325.296878 44.331363 
L 326.509807 46.33327 
L 326.752393 51.458151 
L 327.904677 54.420972 
L 328.086616 57.543947 
L 327.358858 59.465777 
L 325.721403 61.948141 
L 323.295544 63.869971 
L 321.172917 64.991039 
L 316.80637 66.592564 
L 315.047622 68.033937 
L 313.652753 69.955767 
L 312.682409 72.758437 
L 311.530126 74.520114 
L 307.83069 76.842326 
L 303.949315 78.283699 
L 300.795698 80.365682 
L 298.066606 83.568732 
L 295.458807 88.933842 
L 293.032948 95.420019 
L 291.577432 97.822307 
L 289.939977 99.744137 
L 284.966965 103.267493 
L 283.754036 105.029171 
L 282.965631 107.671687 
L 282.965631 113.437178 
L 281.692055 116.560153 
L 279.751368 118.562059 
L 274.596416 120.644042 
L 271.382153 122.40572 
L 268.653061 124.808008 
L 266.348494 127.610677 
L 263.437463 132.975786 
L 262.649059 137.700286 
L 262.891645 140.18265 
L 265.438797 148.270353 
L 265.438797 150.672641 
L 264.225867 154.035844 
L 261.557422 158.039657 
L 258.039926 161.883317 
L 253.794672 165.006292 
L 252.035924 166.928122 
L 251.732692 166.287512 
L 252.945621 161.162631 
L 253.066914 158.920496 
L 251.732692 155.156911 
L 250.216529 153.074929 
L 248.882307 152.354242 
L 247.487438 153.47531 
L 245.789336 157.078742 
L 245.122225 157.719352 
L 243.424123 160.922402 
L 241.726022 161.082555 
L 233.356807 155.717445 
L 227.110219 152.754623 
L 225.53341 152.8347 
L 213.46476 145.467684 
L 212.555062 145.147378 
L 212.555062 145.147378 
" clip-path="url(#p681150f561)" style="fill: none; stroke: #000000; stroke-width: 3"/>
   </g>
  </g>
 </g>
 <defs>
  <clipPath id="p681150f561">
   <rect x="7.2" y="7.2" width="357.705097" height="554.4"/>
  </clipPath>
 </defs>
</svg>
