<?xml version="1.0" encoding="utf-8" standalone="no"?>
<!DOCTYPE svg PUBLIC "-//W3C//DTD SVG 1.1//EN"
  "http://www.w3.org/Graphics/SVG/1.1/DTD/svg11.dtd">
<svg xmlns:xlink="http://www.w3.org/1999/xlink" width="295.482538pt" height="568.8pt" viewBox="0 0 295.482538 568.8" xmlns="http://www.w3.org/2000/svg" version="1.1">
 <metadata>
  <rdf:RDF xmlns:dc="http://purl.org/dc/elements/1.1/" xmlns:cc="http://creativecommons.org/ns#" xmlns:rdf="http://www.w3.org/1999/02/22-rdf-syntax-ns#">
   <cc:Work>
    <dc:type rdf:resource="http://purl.org/dc/dcmitype/StillImage"/>
    <dc:date>2023-09-25T14:13:54.375313</dc:date>
    <dc:format>image/svg+xml</dc:format>
    <dc:creator>
     <cc:Agent>
      <dc:title>Matplotlib v3.6.2, https://matplotlib.org/</dc:title>
     </cc:Agent>
    </dc:creator>
   </cc:Work>
  </rdf:RDF>
 </metadata>
 <defs>
  <style type="text/css">*{stroke-linejoin: round; stroke-linecap: butt}</style>
 </defs>
 <g id="figure_1">
  <g id="patch_1">
   <path d="M 0 568.8 
L 295.482538 568.8 
L 295.482538 0 
L 0 0 
z
" style="fill: #ffffff"/>
  </g>
  <g id="axes_1">
   <g id="LineCollection_1">
    <path d="M 143.771592 170.43698 
L 145.903456 172.669646 
L 150.534745 176.261325 
L 152.666609 177.329122 
L 155.166035 175.970108 
L 157.297899 173.446225 
L 158.400587 171.407704 
L 169.353955 175.193529 
L 175.01442 178.688136 
L 175.529008 178.688136 
L 180.013273 182.08567 
L 191.334204 186.453929 
L 194.348218 187.910015 
L 198.611945 191.404622 
L 199.494095 193.831433 
L 201.111371 200.432357 
L 203.757823 204.897689 
L 209.050725 209.75131 
L 211.476639 214.119569 
L 215.446316 218.779045 
L 215.887391 219.749769 
L 215.005241 221.885362 
L 208.095062 234.893066 
L 207.286424 238.096456 
L 204.713486 242.853005 
L 202.80216 245.376888 
L 200.670296 249.259784 
L 197.656282 253.142681 
L 196.259544 256.540216 
L 192.95148 262.364561 
L 189.569903 269.450847 
L 187.805602 274.110324 
L 185.526713 277.022496 
L 181.410011 284.4 
L 179.498685 287.020955 
L 173.176607 298.281356 
L 171.559331 300.611094 
L 171.118256 302.164253 
L 168.177754 308.279815 
L 167.001554 309.638829 
L 164.208077 315.269029 
L 159.723813 322.355316 
L 156.709799 328.276733 
L 154.43091 333.712789 
L 150.755283 338.469337 
L 146.932631 346.332203 
L 145.46238 348.759014 
L 142.227829 355.359938 
L 142.227829 356.23359 
L 138.037614 364.096456 
L 136.493851 366.037904 
L 133.847399 370.697381 
L 126.569658 384.967026 
L 125.246433 391.567951 
L 123.702669 393.703544 
L 122.305931 397.392296 
L 122.747006 400.692758 
L 121.644318 403.119569 
L 119.36543 405.449307 
L 117.821666 406.322958 
L 116.939516 408.943914 
L 115.763315 410.205855 
L 112.234713 417.583359 
L 111.720126 420.398459 
L 110.249875 420.592604 
L 110.323387 421.951618 
L 107.456399 425.931587 
L 105.986148 426.999384 
L 103.707259 434.959322 
L 98.708407 439.715871 
L 95.767905 445.637288 
L 90.033927 454.567951 
L 87.387476 459.615716 
L 86.65235 461.945455 
L 84.593999 466.507858 
L 82.829698 469.420031 
L 81.506473 470.487827 
L 78.933534 474.661941 
L 77.242746 478.836055 
L 75.551957 480.486287 
L 72.831993 485.82527 
L 72.243893 488.64037 
L 72.905506 490.970108 
L 72.464431 491.84376 
L 72.317406 496.600308 
L 72.979018 499.706626 
L 70.773642 502.521726 
L 70.626617 506.210478 
L 66.877478 511.743606 
L 65.039664 513.296764 
L 61.364038 513.685054 
L 54.527372 523.101079 
L 52.321995 524.265948 
L 49.455007 529.119569 
L 48.352318 529.313713 
L 48.058268 532.322958 
L 45.411817 535.914638 
L 44.309129 536.4 
L 32.620635 530.090293 
L 28.209883 526.595686 
L 26.592607 524.945455 
L 23.211031 523.97473 
L 20.564579 523.683513 
L 19.976479 521.54792 
L 20.491067 519.315254 
L 24.313719 510.869954 
L 27.401245 506.501695 
L 27.401245 504.074884 
L 28.062858 501.356857 
L 30.488772 499.318336 
L 31.370922 496.794453 
L 33.135223 495.047149 
L 37.325438 487.669646 
L 38.134076 484.369183 
L 40.85404 479.80678 
L 41.589165 477.865331 
L 43.647516 475.923883 
L 46.95558 470.487827 
L 48.719881 468.158089 
L 52.321995 461.168875 
L 53.498196 458.353775 
L 56.438698 453.014792 
L 57.10031 449.228968 
L 58.644074 445.734361 
L 60.114324 443.987057 
L 63.642926 438.065639 
L 68.715291 426.222804 
L 70.332567 424.766718 
L 73.126044 421.175039 
L 75.478445 415.059476 
L 75.03737 414.282897 
L 77.095721 410.01171 
L 78.051384 406.128814 
L 78.933534 405.255162 
L 80.25676 401.081048 
L 81.800523 400.013251 
L 82.976724 396.518644 
L 84.961562 393.994761 
L 87.240451 390.208937 
L 89.372314 384.869954 
L 90.69554 383.025578 
L 93.341991 381.084129 
L 94.73873 379.142681 
L 96.20898 375.551002 
L 97.605719 373.90077 
L 99.296507 370.794453 
L 99.590557 369.241294 
L 102.163496 366.620339 
L 104.809947 363.028659 
L 105.17751 359.728197 
L 104.295359 357.495532 
L 101.869446 354.874576 
L 100.54622 351.768259 
L 100.913783 349.244376 
L 102.310521 347.108783 
L 106.647761 342.837596 
L 108.926649 337.498613 
L 113.704964 327.985516 
L 116.792491 323.617257 
L 119.438942 320.996302 
L 122.011881 319.831433 
L 124.731845 319.637288 
L 127.231271 320.219723 
L 132.230124 323.131895 
L 135.685213 323.908475 
L 138.037614 323.131895 
L 142.595391 319.346071 
L 144.212667 316.530971 
L 146.565068 310.997843 
L 149.79962 307.794453 
L 155.239548 304.202773 
L 157.665462 301.678891 
L 159.35625 298.766718 
L 160.605963 295.272111 
L 161.414601 289.933128 
L 160.458938 286.729738 
L 158.841662 283.040986 
L 159.0622 279.255162 
L 160.458938 275.9547 
L 163.399439 271.97473 
L 166.486966 269.450847 
L 169.353955 267.897689 
L 171.706356 265.95624 
L 172.735532 263.52943 
L 172.441482 257.802157 
L 173.103094 254.987057 
L 174.499833 251.49245 
L 175.087933 248.28906 
L 176.264134 244.406163 
L 179.64571 237.805239 
L 181.483524 235.281356 
L 185.526713 231.204314 
L 187.952627 228.292142 
L 190.525566 223.82681 
L 192.436892 218.779045 
L 196.406569 212.081048 
L 198.832483 209.75131 
L 201.478934 208.198151 
L 207.433449 206.256703 
L 209.785851 206.256703 
L 214.490653 207.324499 
L 217.651692 207.421572 
L 221.180294 205.674268 
L 222.79757 203.926965 
L 226.326172 196.646533 
L 229.560723 190.433898 
L 239.411403 172.766718 
L 240.440579 170.631125 
L 247.13022 158.4 
L 247.938858 156.167334 
L 248.30642 152.963945 
L 248.232908 147.042527 
L 249.335596 141.606471 
L 249.115058 138.597227 
L 248.379933 135.976271 
L 246.101044 131.996302 
L 245.512944 128.69584 
L 247.350757 123.745146 
L 251.026384 117.338367 
L 254.407961 113.06718 
L 260.288964 106.854545 
L 262.714878 103.262866 
L 263.302978 100.836055 
L 263.08244 95.108783 
L 263.670541 89.38151 
L 264.699716 83.848382 
L 265.655379 80.93621 
L 268.522368 77.73282 
L 273.741758 74.432357 
L 275.506059 71.71433 
L 274.476884 68.51094 
L 271.242332 66.957781 
L 268.448855 67.734361 
L 264.626204 70.646533 
L 261.097602 71.908475 
L 258.010075 70.355316 
L 257.27495 68.802157 
L 257.642512 66.375347 
L 264.773229 57.153467 
L 267.493192 51.426194 
L 268.154805 48.222804 
L 268.154805 45.893066 
L 267.199142 43.854545 
L 264.626204 41.136518 
L 258.892226 36.865331 
L 255.290111 35.2151 
L 250.438284 33.953159 
L 246.615632 33.564869 
L 241.984342 32.4 
L 238.896815 34.82681 
L 237.647102 38.515562 
L 237.647102 40.359938 
L 238.823303 42.786749 
L 241.322729 44.242835 
L 244.924843 45.504777 
L 246.983195 47.349153 
L 248.159395 49.581818 
L 248.673983 56.08567 
L 250.217746 61.715871 
L 249.776671 64.142681 
L 248.379933 67.151926 
L 246.689144 69.190447 
L 244.116206 71.32604 
L 241.102192 72.976271 
L 235.515239 75.208937 
L 233.603913 77.053313 
L 231.325024 82.489368 
L 229.266673 85.013251 
L 227.281835 86.17812 
L 219.195455 89.284438 
L 217.57818 90.643451 
L 214.270115 94.720493 
L 209.712338 104.136518 
L 207.506962 110.057935 
L 204.860511 113.649615 
L 197.656282 118.988598 
L 195.965494 122.191988 
L 195.524418 126.366102 
L 195.671443 131.51094 
L 195.083343 133.452388 
L 192.730942 136.655778 
L 181.924599 141.606471 
L 177.146284 146.557165 
L 173.691195 151.702003 
L 171.706356 156.555624 
L 171.265281 159.370724 
L 171.338794 162.574114 
L 172.147431 166.748228 
L 173.911732 172.184284 
L 174.352808 176.45547 
L 173.54417 179.367643 
L 171.706356 182.86225 
L 167.810192 187.812943 
L 164.796178 190.530971 
L 161.194063 192.957781 
L 159.282737 195.287519 
L 157.591949 195.384592 
L 158.915175 191.792912 
L 159.35625 188.10416 
L 157.959512 182.08567 
L 155.827648 178.688136 
L 153.769297 178.785208 
L 151.049333 183.930046 
L 149.652595 185.774422 
L 148.402882 188.977812 
L 148.623419 189.754391 
L 145.756431 189.463174 
L 140.022453 186.065639 
L 134.4355 183.153467 
L 129.436647 180.047149 
L 124.511307 178.396918 
L 122.452956 176.940832 
L 114.366577 172.669646 
L 110.323387 169.660401 
L 110.323387 169.660401 
" clip-path="url(#pef8035adf9)" style="fill: none; stroke: #000000; stroke-width: 3"/>
   </g>
  </g>
 </g>
 <defs>
  <clipPath id="pef8035adf9">
   <rect x="7.2" y="7.2" width="281.082538" height="554.4"/>
  </clipPath>
 </defs>
</svg>
