<?xml version="1.0" encoding="utf-8" standalone="no"?>
<!DOCTYPE svg PUBLIC "-//W3C//DTD SVG 1.1//EN"
  "http://www.w3.org/Graphics/SVG/1.1/DTD/svg11.dtd">
<svg xmlns:xlink="http://www.w3.org/1999/xlink" width="331.302633pt" height="568.8pt" viewBox="0 0 331.302633 568.8" xmlns="http://www.w3.org/2000/svg" version="1.1">
 <metadata>
  <rdf:RDF xmlns:dc="http://purl.org/dc/elements/1.1/" xmlns:cc="http://creativecommons.org/ns#" xmlns:rdf="http://www.w3.org/1999/02/22-rdf-syntax-ns#">
   <cc:Work>
    <dc:type rdf:resource="http://purl.org/dc/dcmitype/StillImage"/>
    <dc:date>2023-09-25T14:13:54.241177</dc:date>
    <dc:format>image/svg+xml</dc:format>
    <dc:creator>
     <cc:Agent>
      <dc:title>Matplotlib v3.6.2, https://matplotlib.org/</dc:title>
     </cc:Agent>
    </dc:creator>
   </cc:Work>
  </rdf:RDF>
 </metadata>
 <defs>
  <style type="text/css">*{stroke-linejoin: round; stroke-linecap: butt}</style>
 </defs>
 <g id="figure_1">
  <g id="patch_1">
   <path d="M 0 568.8 
L 331.302633 568.8 
L 331.302633 0 
L 0 0 
z
" style="fill: #ffffff"/>
  </g>
  <g id="axes_1">
   <g id="LineCollection_1">
    <path d="M 64.418605 530.518366 
L 61.610264 529.258016 
L 57.742173 526.737316 
L 54.13902 525.266907 
L 52.072506 523.796499 
L 50.853792 523.376382 
L 47.303626 521.485857 
L 43.965411 520.085468 
L 37.92483 516.164379 
L 35.752341 515.184107 
L 32.944001 513.083523 
L 31.248399 512.803445 
L 27.751221 510.422784 
L 26.744457 510.422784 
L 23.459229 508.322201 
L 23.353254 506.571714 
L 25.207818 503.140761 
L 26.267569 500.7601 
L 30.294623 494.108252 
L 32.149187 491.79761 
L 33.844789 490.327202 
L 36.812092 489.066852 
L 40.203295 486.75621 
L 42.269809 484.095471 
L 43.859436 482.485024 
L 43.912423 479.894304 
L 44.336324 473.732592 
L 45.714 468.90125 
L 47.250639 465.400278 
L 48.999228 463.509753 
L 52.602381 461.129091 
L 57.795161 456.367769 
L 58.9079 453.987108 
L 59.013875 448.035454 
L 59.596738 444.394443 
L 60.444538 442.363879 
L 65.001468 435.291914 
L 68.286696 431.230786 
L 72.843625 427.099639 
L 74.221301 425.069075 
L 79.679019 415.056293 
L 81.745533 410.995165 
L 85.348686 404.903473 
L 87.309226 400.562267 
L 91.124329 391.669797 
L 93.561756 385.368047 
L 97.535823 377.105752 
L 99.920262 373.53476 
L 102.834577 370.593943 
L 103.947316 368.983495 
L 105.219017 366.252737 
L 108.451258 360.581161 
L 111.365573 355.119644 
L 113.220137 352.248847 
L 115.074701 348.187719 
L 116.664328 345.807058 
L 121.062294 337.614782 
L 122.545946 333.273576 
L 125.672211 327.181884 
L 126.467024 325.0813 
L 127.314825 321.020172 
L 126.9969 315.418616 
L 127.4208 314.228286 
L 132.61358 305.125757 
L 136.587646 297.913754 
L 138.760136 293.712587 
L 140.137812 291.541984 
L 142.151339 287.760934 
L 143.21109 286.220506 
L 145.224617 284.680078 
L 147.556069 283.699806 
L 149.145695 282.299417 
L 153.808599 276.76788 
L 155.822126 273.827063 
L 160.114118 263.184107 
L 162.44557 258.91292 
L 163.929221 257.022395 
L 165.518848 255.551987 
L 168.115238 253.87152 
L 170.44669 251.700917 
L 174.155818 245.889303 
L 176.169345 242.45835 
L 179.348598 238.887358 
L 181.097187 236.296638 
L 184.117477 230.695082 
L 185.336191 228.734537 
L 186.819842 224.323312 
L 187.08478 218.791775 
L 188.780382 213.890414 
L 189.045319 212.209947 
L 189.151294 208.358877 
L 188.621419 203.737594 
L 188.674407 201.987108 
L 190.422996 194.425007 
L 191.641709 191.834287 
L 192.860423 191.55421 
L 194.767975 192.394443 
L 196.675526 192.534482 
L 199.483867 190.924034 
L 200.172705 190.924034 
L 203.616895 192.604501 
L 205.047559 193.654793 
L 207.326024 194.705085 
L 209.180588 196.52559 
L 211.353077 197.365824 
L 212.041916 197.155765 
L 215.168181 192.044346 
L 216.227932 189.733704 
L 217.181708 188.543373 
L 219.672123 184.342206 
L 220.784861 182.031564 
L 226.030628 172.578939 
L 228.574031 167.467519 
L 230.004695 165.436955 
L 231.170421 162.776216 
L 233.660835 159.065185 
L 235.9393 154.58394 
L 239.383491 148.422228 
L 241.820918 143.660906 
L 243.993408 139.109642 
L 245.847972 136.098805 
L 247.596561 132.597833 
L 249.451125 129.657016 
L 250.086976 127.626452 
L 250.987764 126.506141 
L 255.385731 118.733982 
L 259.624734 110.821784 
L 260.36656 108.861239 
L 261.532286 107.740928 
L 262.327099 105.570325 
L 265.082452 101.229119 
L 267.731829 95.767602 
L 269.268468 93.596999 
L 271.017057 89.885968 
L 273.613447 85.89486 
L 274.673198 83.444179 
L 276.633738 80.013226 
L 276.951663 78.822895 
L 278.488302 76.652292 
L 281.031704 72.381106 
L 282.780293 68.950153 
L 284.634857 65.939316 
L 284.79382 64.959044 
L 287.496185 60.897916 
L 289.880625 56.62673 
L 291.258301 53.615893 
L 292.688965 51.725368 
L 292.953903 50.394999 
L 294.119629 48.784551 
L 300.107222 37.791498 
L 301.855811 35.410836 
L 304.187263 33.100194 
L 306.147802 32.4 
L 308.373279 33.310253 
L 309.697968 34.360545 
L 309.64498 37.021284 
L 307.578466 41.712587 
L 304.770126 46.613948 
L 303.551412 48.224396 
L 299.683321 55.506418 
L 298.676558 55.506418 
L 295.497305 53.405835 
L 292.688965 52.215504 
L 291.841164 52.77566 
L 290.463488 55.436399 
L 287.337222 59.987663 
L 285.00577 64.18883 
L 282.674318 68.950153 
L 281.826517 69.860406 
L 278.700252 75.531981 
L 275.997887 80.853459 
L 274.779173 82.603946 
L 272.394734 86.665074 
L 269.904319 91.356377 
L 267.837804 95.837622 
L 265.029464 99.968769 
L 264.605564 101.509197 
L 262.380087 105.150208 
L 261.108386 108.021006 
L 259.041871 111.802056 
L 258.511996 113.202445 
L 257.13432 115.022951 
L 253.160253 121.954876 
L 251.94154 123.775382 
L 247.437598 132.177716 
L 246.483822 134.418338 
L 245.847972 135.118533 
L 243.304569 136.378883 
L 242.986644 139.389719 
L 238.270752 148.002112 
L 235.992288 153.603668 
L 234.190711 156.124368 
L 231.011458 161.585885 
L 228.680006 165.99711 
L 227.93818 166.907363 
L 225.12984 171.878744 
L 223.222288 175.589775 
L 219.460172 181.611448 
L 217.234695 185.812615 
L 215.168181 189.313587 
L 203.616895 210.179383 
L 201.444406 214.660628 
L 200.06673 216.831231 
L 194.662 226.984051 
L 193.496273 228.804557 
L 191.164821 233.635899 
L 188.780382 237.416949 
L 170.499677 270.256071 
L 168.751088 272.776771 
L 167.373412 272.496694 
L 164.565072 270.536149 
L 159.160342 267.175215 
L 157.67669 267.735371 
L 157.04084 270.186052 
L 155.451213 274.17716 
L 152.430923 278.938483 
L 147.291131 283.419728 
L 143.687978 284.820117 
L 142.151339 286.360545 
L 139.290011 291.962101 
L 136.905571 296.093248 
L 132.136692 304.915699 
L 130.812003 307.086302 
L 128.374576 311.777605 
L 125.831174 315.768714 
L 121.80412 319.619783 
L 120.426444 322.000445 
L 118.99578 325.571437 
L 116.770303 331.873187 
L 114.067938 338.244957 
L 113.220137 340.835677 
L 112.955199 344.406669 
L 113.061174 349.728147 
L 112.584286 351.758711 
L 108.769183 359.740928 
L 103.947316 368.563379 
L 102.516652 370.733982 
L 99.97325 373.744818 
L 98.595574 376.335538 
L 97.853748 378.436121 
L 96.158146 380.886802 
L 94.939433 383.337483 
L 94.250595 385.788163 
L 93.243831 388.238844 
L 91.76018 390.409447 
L 87.892089 398.741762 
L 86.620388 401.052403 
L 84.18296 406.163823 
L 83.017234 409.034621 
L 80.208894 413.865963 
L 76.817691 420.027674 
L 73.108563 427.239678 
L 71.148023 429.270242 
L 68.074745 431.580884 
L 65.213418 435.151876 
L 61.557277 440.473354 
L 59.808688 443.904307 
L 59.013875 446.284968 
L 58.642962 449.365824 
L 59.11985 452.866796 
L 58.325036 455.527535 
L 55.198771 459.098527 
L 51.065742 462.52948 
L 48.999228 463.85985 
L 46.508813 467.220784 
L 44.972174 472.052126 
L 44.124373 476.463351 
L 43.965411 480.45446 
L 42.534747 484.095471 
L 40.998108 486.126035 
L 38.772631 487.736482 
L 37.659892 488.996832 
L 34.69259 489.907085 
L 32.626075 491.237455 
L 31.036449 493.197999 
L 29.764748 495.64868 
L 27.274333 501.600333 
L 24.783918 506.571714 
L 23.194292 508.602278 
L 22.505453 511.052959 
L 22.717404 512.803445 
L 22.399478 516.934593 
L 21.604665 524.216616 
L 22.611429 524.076577 
L 24.942881 525.687024 
L 25.313794 527.157433 
L 26.214582 528.137705 
L 27.433296 528.277744 
L 32.891013 531.078522 
L 34.533627 531.498639 
L 37.818855 533.039066 
L 43.11761 535.839844 
L 44.654249 536.4 
L 45.872963 533.949319 
L 46.985701 532.478911 
L 47.727527 532.478911 
L 49.900016 533.80928 
L 49.900016 533.80928 
" clip-path="url(#p7b28c31dd6)" style="fill: none; stroke: #000000; stroke-width: 3"/>
   </g>
  </g>
 </g>
 <defs>
  <clipPath id="p7b28c31dd6">
   <rect x="7.2" y="7.2" width="316.902633" height="554.4"/>
  </clipPath>
 </defs>
</svg>
