<?xml version="1.0" encoding="utf-8" standalone="no"?>
<!DOCTYPE svg PUBLIC "-//W3C//DTD SVG 1.1//EN"
  "http://www.w3.org/Graphics/SVG/1.1/DTD/svg11.dtd">
<svg xmlns:xlink="http://www.w3.org/1999/xlink" width="372.035447pt" height="568.8pt" viewBox="0 0 372.035447 568.8" xmlns="http://www.w3.org/2000/svg" version="1.1">
 <metadata>
  <rdf:RDF xmlns:dc="http://purl.org/dc/elements/1.1/" xmlns:cc="http://creativecommons.org/ns#" xmlns:rdf="http://www.w3.org/1999/02/22-rdf-syntax-ns#">
   <cc:Work>
    <dc:type rdf:resource="http://purl.org/dc/dcmitype/StillImage"/>
    <dc:date>2023-09-25T14:13:54.102857</dc:date>
    <dc:format>image/svg+xml</dc:format>
    <dc:creator>
     <cc:Agent>
      <dc:title>Matplotlib v3.6.2, https://matplotlib.org/</dc:title>
     </cc:Agent>
    </dc:creator>
   </cc:Work>
  </rdf:RDF>
 </metadata>
 <defs>
  <style type="text/css">*{stroke-linejoin: round; stroke-linecap: butt}</style>
 </defs>
 <g id="figure_1">
  <g id="patch_1">
   <path d="M 0 568.8 
L 372.035447 568.8 
L 372.035447 0 
L 0 0 
z
" style="fill: #ffffff"/>
  </g>
  <g id="axes_1">
   <g id="LineCollection_1">
    <path d="M 244.266579 138.17685 
L 246.771906 139.830788 
L 253.376859 143.439379 
L 254.515645 143.3642 
L 255.882187 142.462053 
L 257.305668 140.43222 
L 260.266509 141.484726 
L 264.195318 142.311695 
L 266.757584 143.439379 
L 269.262911 145.093317 
L 270.003121 145.168496 
L 275.640107 148.62673 
L 283.78242 151.859427 
L 288.052864 154.415513 
L 289.93186 156.971599 
L 290.444313 159.753222 
L 291.41228 162.91074 
L 292.437187 164.715036 
L 294.316182 166.519332 
L 296.252117 167.722196 
L 298.415808 171.405967 
L 302.85707 177.11957 
L 301.091953 181.179236 
L 298.814383 185.013365 
L 297.618659 187.569451 
L 294.259243 192.982339 
L 293.348215 195.388067 
L 291.127584 199.071838 
L 290.729009 200.500239 
L 289.020832 202.830788 
L 287.825107 205.462053 
L 286.287748 207.86778 
L 284.57957 211.777088 
L 283.554663 213.280668 
L 280.081369 220.573031 
L 278.316252 223.805728 
L 276.266439 226.963246 
L 273.988869 231.248449 
L 273.191719 232.225776 
L 271.312724 235.909547 
L 270.003121 237.713842 
L 268.522701 241.247255 
L 267.156159 243.427446 
L 263.739803 250.118377 
L 262.430201 251.997852 
L 259.867934 256.65895 
L 258.615271 259.515752 
L 256.850154 262.297375 
L 250.928472 272.672076 
L 250.529897 273.950119 
L 248.878659 276.13031 
L 247.796813 278.536038 
L 246.48721 280.415513 
L 245.519243 282.746062 
L 243.241672 286.129117 
L 242.558401 288.309308 
L 241.13492 289.888067 
L 240.679406 291.9179 
L 240.166953 291.9179 
L 238.11714 294.022912 
L 234.017514 301.916706 
L 232.594032 305.149403 
L 231.853822 305.826014 
L 231.455247 307.479952 
L 229.74707 310.261575 
L 227.811135 314.246062 
L 226.729289 315.298568 
L 223.996205 320.260382 
L 223.882327 321.463246 
L 222.971298 322.365394 
L 221.775574 324.996659 
L 219.498004 329.206683 
L 216.309406 335.596897 
L 214.202654 338.754415 
L 211.127934 344.468019 
L 209.248939 347.099284 
L 208.110154 350.632697 
L 207.199125 352.66253 
L 203.213378 358.376134 
L 202.587046 358.752029 
L 200.309476 363.337947 
L 199.569266 364.014558 
L 197.633331 367.698329 
L 197.291695 369.427446 
L 196.551485 370.254415 
L 195.184943 373.186396 
L 192.110223 377.321241 
L 191.142256 379.501432 
L 188.010597 384.839141 
L 185.733027 389.199523 
L 184.081789 391.154177 
L 182.658308 394.311695 
L 182.715247 394.913126 
L 175.996415 407.016945 
L 175.199265 409.272315 
L 173.775784 411.828401 
L 171.156578 415.587351 
L 169.846976 418.444153 
L 166.772256 424.007399 
L 165.861228 426.713842 
L 163.868354 429.495465 
L 163.41284 431.149403 
L 161.249148 433.931026 
L 160.565877 436.036038 
L 158.629943 439.193556 
L 157.605036 439.569451 
L 153.903985 447.237709 
L 151.740293 450.620764 
L 150.943144 451.447733 
L 149.348845 455.808115 
L 148.437817 457.612411 
L 146.331064 457.386874 
L 143.939616 455.958473 
L 141.775924 455.206683 
L 140.5802 454.154177 
L 139.04284 453.778282 
L 135.512606 451.67327 
L 133.235036 451.071838 
L 132.551765 450.244869 
L 130.61583 449.568258 
L 130.67277 448.966826 
L 129.13541 449.117184 
L 126.743961 447.237709 
L 126.117629 447.538425 
L 123.327606 446.561098 
L 120.252886 444.90716 
L 119.398798 443.704296 
L 115.925503 442.501432 
L 114.160386 439.719809 
L 112.509148 439.419093 
L 110.971788 438.592124 
L 107.099919 437.088544 
L 105.619498 436.111217 
L 103.000293 435.13389 
L 101.462933 434.983532 
L 99.811695 433.329594 
L 99.299241 431.37494 
L 99.982512 426.112411 
L 102.829475 421.000239 
L 104.822349 419.496659 
L 106.302769 419.271122 
L 107.840129 420.323628 
L 108.808097 420.398807 
L 111.996695 421.977566 
L 114.046508 422.654177 
L 115.754685 424.082578 
L 121.904125 425.886874 
L 123.669242 428.668496 
L 125.092723 428.217422 
L 125.775994 430.172076 
L 124.352513 429.044391 
L 126.459265 429.269928 
L 129.249288 430.322434 
L 130.331134 431.37494 
L 131.41298 431.37494 
L 133.121158 433.028878 
L 134.316882 433.254415 
L 137.049966 434.757995 
L 141.605106 435.88568 
L 146.786578 439.043198 
L 144.110433 439.64463 
L 144.281251 442.351074 
L 144.793704 444.606444 
L 143.882676 448.215036 
L 145.533915 451.598091 
L 144.622887 454.304535 
L 144.964522 455.281862 
L 146.558821 455.131504 
L 148.039242 457.913126 
L 147.185153 460.318854 
L 145.476975 463.551551 
L 143.939616 465.581384 
L 141.718985 469.114797 
L 137.733237 476.783055 
L 137.106905 477.309308 
L 133.804429 475.65537 
L 132.95034 474.602864 
L 130.843587 474.001432 
L 128.3952 472.347494 
L 125.605176 471.370167 
L 123.270667 469.866587 
L 120.537583 469.265155 
L 116.95041 466.859427 
L 115.754685 466.63389 
L 112.793844 464.679236 
L 110.630153 463.852267 
L 107.612372 462.047971 
L 104.423774 459.717422 
L 101.178237 458.063484 
L 98.046578 456.033652 
L 94.117769 454.154177 
L 92.067956 452.800955 
L 87.626695 450.470406 
L 81.989709 447.012172 
L 78.573353 445.433413 
L 74.872302 443.178043 
L 73.562699 442.050358 
L 69.007559 439.870167 
L 67.356321 438.742482 
L 61.036064 435.434606 
L 60.52361 434.908353 
L 55.342138 431.976372 
L 51.014755 429.796181 
L 49.989848 429.570644 
L 47.484521 428.142243 
L 46.744311 427.315274 
L 44.979194 426.939379 
L 39.399147 423.781862 
L 38.943633 428.36778 
L 38.146484 430.848687 
L 38.317302 434.081384 
L 36.438306 436.111217 
L 37.804848 437.990692 
L 38.089545 439.945346 
L 39.513026 440.321241 
L 40.594872 441.599284 
L 43.384895 443.178043 
L 43.384895 443.854654 
L 45.434708 444.456086 
L 47.427582 445.809308 
L 52.552115 447.688783 
L 57.050316 450.019332 
L 59.612582 450.92148 
L 61.890152 452.349881 
L 64.110783 454.304535 
L 65.989779 455.507399 
L 68.779802 456.785442 
L 70.146344 457.086158 
L 72.480853 458.289021 
L 75.726391 460.544391 
L 78.459475 461.897613 
L 78.971928 463.250835 
L 81.591134 464.228162 
L 87.114241 467.38568 
L 89.107115 468.212649 
L 91.327746 470.092124 
L 93.206741 471.294988 
L 95.939825 472.272315 
L 101.178237 475.129117 
L 102.544779 475.580191 
L 106.929101 477.685203 
L 109.206671 478.436993 
L 111.199545 479.790215 
L 111.427302 480.542005 
L 109.776064 483.248449 
L 106.986041 489.262768 
L 105.107045 488.736516 
L 103.000293 487.082578 
L 101.292115 486.481146 
L 98.729849 484.827208 
L 95.370433 483.473986 
L 93.263681 481.820048 
L 91.840199 481.368974 
L 90.132022 480.015752 
L 87.797512 479.339141 
L 85.463003 478.211456 
L 79.541321 474.001432 
L 75.840269 472.573031 
L 74.018213 471.219809 
L 71.057372 469.565871 
L 65.192629 466.859427 
L 57.733587 463.777088 
L 58.359919 462.348687 
L 57.278073 462.799761 
L 56.253166 461.747255 
L 53.007629 460.394033 
L 49.249638 457.386874 
L 47.484521 456.9358 
L 43.157138 454.530072 
L 37.406274 451.598091 
L 35.868914 450.996659 
L 34.274615 449.568258 
L 32.737255 448.966826 
L 33.477465 446.636277 
L 34.787068 444.681623 
L 35.128703 446.485919 
L 34.673189 447.91432 
L 34.673189 450.620764 
L 40.367115 453.101671 
L 45.947162 455.357041 
L 50.160666 458.138663 
L 54.089475 460.018138 
L 57.619708 462.12315 
L 57.733587 462.950119 
L 56.480923 464.754415 
L 55.911531 467.761575 
L 54.032535 471.595704 
L 53.292325 475.129117 
L 52.779872 479.715036 
L 54.089475 480.842721 
L 56.253166 481.744869 
L 63.370573 485.42864 
L 66.103657 486.556325 
L 67.356321 485.654177 
L 68.324288 487.984726 
L 65.363447 488.586158 
L 63.256694 489.488305 
L 61.434638 489.713842 
L 61.036064 485.127924 
L 59.669521 484.376134 
L 58.872372 484.601671 
L 52.609054 484.376134 
L 48.33861 483.624344 
L 46.80125 483.699523 
L 45.947162 484.300955 
L 43.840409 484.000239 
L 43.04326 484.300955 
L 41.676718 483.699523 
L 39.399147 484.225776 
L 37.349334 484.075418 
L 36.381367 484.451313 
L 31.59847 484.601671 
L 28.694568 484.300955 
L 28.011297 485.42864 
L 28.239054 489.187589 
L 33.420526 489.337947 
L 37.121577 488.962053 
L 45.377769 488.886874 
L 47.484521 489.112411 
L 49.534334 488.510979 
L 54.658867 489.037232 
L 56.651741 488.736516 
L 58.359919 489.187589 
L 60.865246 488.886874 
L 62.288727 489.337947 
L 63.769148 488.736516 
L 68.779802 488.886874 
L 72.822489 491.668496 
L 74.872302 491.969212 
L 78.231718 493.322434 
L 81.705012 495.427446 
L 79.427442 500.088544 
L 78.117839 503.697136 
L 76.808237 506.478759 
L 76.979054 507.305728 
L 78.573353 509.711456 
L 78.687232 510.688783 
L 72.594732 512.042005 
L 71.455947 511.966826 
L 69.007559 512.568258 
L 63.541391 513.470406 
L 61.093003 514.222196 
L 60.295853 514.071838 
L 54.317232 515.274702 
L 49.705152 516.552745 
L 49.249638 516.026492 
L 47.541461 517.003819 
L 44.52368 517.379714 
L 42.587746 518.281862 
L 38.203423 518.582578 
L 33.705222 519.334368 
L 30.630503 519.484726 
L 28.068236 520.010979 
L 26.815573 520.687589 
L 26.758633 522.491885 
L 26.189241 524.521718 
L 26.018423 530.987112 
L 28.922325 530.686396 
L 41.619778 528.13031 
L 42.359989 528.205489 
L 46.459615 527.002625 
L 49.648213 526.777088 
L 52.039662 526.025298 
L 59.726461 524.672076 
L 64.452419 523.318854 
L 66.729989 523.168496 
L 69.520012 521.965632 
L 71.854522 521.890453 
L 83.014615 519.635084 
L 85.178307 523.394033 
L 84.551975 524.747255 
L 81.420316 525.273508 
L 81.477255 526.701909 
L 80.680106 527.528878 
L 79.655199 529.934606 
L 77.605386 529.63389 
L 74.98618 527.453699 
L 72.082279 527.37852 
L 68.665923 529.859427 
L 64.623236 531.438186 
L 65.591204 530.836754 
L 66.61611 528.355847 
L 65.762022 528.280668 
L 61.947092 529.032458 
L 58.929311 530.084964 
L 56.70868 530.38568 
L 50.388423 531.663723 
L 48.110853 531.513365 
L 46.459615 532.114797 
L 43.441834 532.415513 
L 35.014825 534.445346 
L 29.150082 535.64821 
L 27.328026 536.4 
L 26.758633 536.099284 
L 27.214147 532.265155 
L 26.018423 530.836754 
L 26.24618 529.483532 
L 25.847605 525.649403 
L 23.456157 525.649403 
L 24.025549 519.710263 
L 24.082488 514.598091 
L 24.651881 511.816468 
L 25.107395 507.080191 
L 25.562909 496.479952 
L 24.822699 489.638663 
L 24.765759 487.232936 
L 25.562909 483.774702 
L 26.701694 479.940573 
L 28.694568 475.730549 
L 29.434778 474.90358 
L 29.947231 472.798568 
L 30.573563 467.611217 
L 32.167862 460.769928 
L 32.395619 458.439379 
L 33.705222 449.568258 
L 33.249708 448.064678 
L 35.071764 440.471599 
L 35.868914 434.983532 
L 36.836881 426.488305 
L 37.975666 419.722196 
L 38.032605 416.564678 
L 35.242582 414.835561 
L 34.274615 412.053938 
L 34.274615 410.249642 
L 34.844007 408.069451 
L 34.217675 405.814081 
L 34.103797 401.979952 
L 34.331554 399.87494 
L 37.577091 387.996659 
L 38.317302 386.342721 
L 40.822629 377.020525 
L 40.253236 376.118377 
L 41.164264 375.216229 
L 41.221204 376.719809 
L 41.790596 375.366587 
L 41.107325 375.065871 
L 43.555713 370.179236 
L 45.605526 371.532458 
L 53.463143 375.667303 
L 55.683774 377.170883 
L 58.075222 378.14821 
L 60.979124 380.40358 
L 62.288727 380.027685 
L 62.971998 380.779475 
L 65.932839 381.90716 
L 67.128564 383.561098 
L 69.007559 383.936993 
L 70.829615 386.342721 
L 72.879428 386.944153 
L 74.872302 386.342721 
L 75.669451 385.290215 
L 78.174779 386.718616 
L 79.996835 388.748449 
L 80.680106 388.898807 
L 85.576881 392.056325 
L 85.007489 392.582578 
L 85.292185 390.552745 
L 86.146274 388.598091 
L 90.815293 391.078998 
L 92.694288 390.477566 
L 95.541251 391.379714 
L 96.509218 394.161337 
L 98.957606 394.913126 
L 99.982512 395.965632 
L 101.804569 396.416706 
L 104.309896 398.221002 
L 106.416648 398.521718 
L 108.694218 399.574224 
L 109.605246 400.701909 
L 112.793844 403.107637 
L 112.452209 402.280668 
L 113.477115 401.152983 
L 115.982442 395.289021 
L 117.064288 394.311695 
L 119.96819 389.124344 
L 120.252886 389.049165 
L 129.13541 393.559905 
L 130.160316 394.988305 
L 134.4877 396.416706 
L 136.025059 396.642243 
L 138.359569 398.37136 
L 140.978774 399.649403 
L 145.13534 400.777088 
L 148.836391 402.581384 
L 152.537443 404.084964 
L 154.928891 401.37852 
L 155.953798 399.499045 
L 157.775854 395.138663 
L 159.711789 392.43222 
L 160.167303 392.582578 
L 161.419966 390.853461 
L 161.590784 388.67327 
L 163.014265 386.493079 
L 164.266929 383.260382 
L 165.804289 382.057518 
L 166.032046 380.854654 
L 167.22777 378.749642 
L 168.480434 377.621957 
L 170.473307 376.569451 
L 171.384335 373.712649 
L 173.206392 373.186396 
L 173.604966 372.284248 
L 174.288237 368.224582 
L 175.256205 365.142243 
L 177.192139 365.067064 
L 177.1352 364.315274 
L 179.071135 361.232936 
L 180.494616 359.578998 
L 180.836251 357.774702 
L 183.512396 354.015752 
L 183.626275 352.587351 
L 184.651181 351.234129 
L 184.708121 349.880907 
L 185.789966 347.249642 
L 188.181415 343.941766 
L 189.377139 341.009785 
L 190.686742 338.904773 
L 190.85756 337.701909 
L 191.825527 336.12315 
L 193.704523 334.694749 
L 194.729429 332.965632 
L 195.128004 331.311695 
L 200.821929 327.17685 
L 201.960714 326.876134 
L 204.181345 321.312888 
L 205.946462 319.433413 
L 206.231158 317.178043 
L 208.39485 313.268735 
L 209.078121 311.38926 
L 211.241812 308.757995 
L 213.120808 302.518138 
L 214.544289 300.413126 
L 214.942864 298.984726 
L 216.309406 296.879714 
L 217.562069 292.368974 
L 218.757794 290.188783 
L 218.757794 286.805728 
L 216.423284 284.174463 
L 214.316532 280.340334 
L 214.145714 278.009785 
L 215.853892 275.303341 
L 218.131462 272.897613 
L 223.028238 262.372554 
L 224.337841 260.042005 
L 226.558471 257.335561 
L 228.836042 255.531265 
L 230.715037 255.005012 
L 232.992607 255.005012 
L 236.921415 257.110024 
L 238.515715 257.636277 
L 241.647373 257.335561 
L 244.779032 255.230549 
L 247.056602 251.997852 
L 247.739873 249.968019 
L 249.391112 247.487112 
L 251.156229 245.908353 
L 253.946252 243.953699 
L 255.59749 243.12673 
L 257.248729 241.096897 
L 258.501392 238.916706 
L 259.981813 235.082578 
L 260.551205 232.000239 
L 260.038752 229.970406 
L 259.013846 228.015752 
L 258.615271 224.256802 
L 259.127724 222.377327 
L 261.74693 218.468019 
L 264.0245 216.287828 
L 266.245131 215.084964 
L 267.953308 213.581384 
L 268.978215 211.62673 
L 269.149033 207.341527 
L 270.287818 203.056325 
L 272.907023 194.561098 
L 275.810925 189.824821 
L 280.479944 184.63747 
L 282.586696 181.254415 
L 284.978145 175.841527 
L 287.312654 172.157757 
L 288.679196 170.42864 
L 290.615131 169.075418 
L 293.348215 167.722196 
L 296.138238 166.895227 
L 301.832164 167.722196 
L 304.736066 167.271122 
L 307.070575 164.940573 
L 310.429991 159.527685 
L 319.255575 144.040811 
L 321.590084 139.454893 
L 325.063379 133.139857 
L 327.454827 127.952506 
L 328.536673 116.525298 
L 328.422795 114.420286 
L 327.22707 111.112411 
L 326.202164 109.308115 
L 325.860528 107.503819 
L 326.316042 105.398807 
L 328.76443 100.136277 
L 330.643426 97.129117 
L 333.034874 93.89642 
L 336.166533 90.88926 
L 337.817771 88.859427 
L 339.070435 86.604057 
L 339.241253 85.401193 
L 339.013496 81.040811 
L 339.241253 78.559905 
L 340.323099 72.470406 
L 341.177187 70.215036 
L 343.739454 66.982339 
L 347.155809 65.253222 
L 348.57929 63.073031 
L 348.57929 61.719809 
L 347.440505 59.990692 
L 344.878239 59.238902 
L 342.828426 59.840334 
L 340.664734 61.64463 
L 338.842678 62.39642 
L 336.849804 62.170883 
L 335.312444 60.065871 
L 335.483262 58.186396 
L 336.451229 56.532458 
L 339.639827 52.547971 
L 342.145155 48.037232 
L 342.999243 45.631504 
L 343.170061 43.150597 
L 341.974337 40.519332 
L 340.038402 38.339141 
L 337.476136 36.234129 
L 334.458355 34.805728 
L 331.155879 33.90358 
L 326.999313 33.226969 
L 324.664804 32.4 
L 322.614991 32.851074 
L 320.508239 34.65537 
L 319.768028 36.234129 
L 319.65415 39.16611 
L 321.19151 40.895227 
L 325.348075 42.624344 
L 326.48686 43.827208 
L 327.28401 46.308115 
L 327.625645 48.939379 
L 328.878309 52.547971 
L 329.106066 54.051551 
L 328.821369 56.682816 
L 327.967281 58.487112 
L 325.632771 61.043198 
L 323.46908 62.471599 
L 320.906813 63.448926 
L 317.547397 65.478759 
L 316.123916 67.433413 
L 315.326767 69.688783 
L 313.846346 71.793795 
L 312.138168 72.996659 
L 307.583028 74.951313 
L 304.793005 76.755609 
L 302.970949 78.409547 
L 300.864196 81.266348 
L 298.871322 85.175656 
L 297.049266 90.438186 
L 295.739664 92.919093 
L 293.974547 95.024105 
L 290.67207 97.129117 
L 287.995925 99.835561 
L 287.426533 101.263962 
L 287.027958 103.895227 
L 287.369593 108.631504 
L 286.572444 110.285442 
L 283.953238 112.916706 
L 278.145434 115.472792 
L 274.67214 117.87852 
L 271.711299 121.036038 
L 269.31985 125.246062 
L 268.57964 127.050358 
L 267.953308 130.057518 
L 268.408822 134.568258 
L 270.173939 140.206683 
L 270.572514 142.988305 
L 269.661486 145.61957 
L 267.440855 149.604057 
L 264.593892 152.987112 
L 259.583238 156.821241 
L 257.818121 159.828401 
L 257.305668 162.384487 
L 257.476486 167.42148 
L 257.077911 169.902387 
L 255.255855 173.059905 
L 249.732747 178.021718 
L 244.94985 183.058711 
L 242.843098 186.216229 
L 239.540621 189.524105 
L 233.562 194.034845 
L 232.707911 194.861814 
L 231.056672 197.944153 
L 227.241742 203.958473 
L 224.39478 207.11599 
L 223.255995 207.567064 
L 219.953518 207.191169 
L 213.861018 204.785442 
L 210.729359 204.259189 
L 205.889523 202.304535 
L 204.978495 201.026492 
L 204.181345 198.545585 
L 200.651111 197.342721 
L 200.081719 196.891647 
L 197.291695 196.590931 
L 193.989219 194.41074 
L 189.434079 192.305728 
L 187.498144 191.102864 
L 188.295294 189.9 
L 188.466111 187.494272 
L 189.263261 185.840334 
L 189.149382 184.562291 
L 187.953658 184.111217 
L 187.555083 180.577804 
L 188.124476 179.074224 
L 187.327326 177.044391 
L 187.668962 174.337947 
L 190.572864 168.17327 
L 190.686742 165.9179 
L 192.053284 162.985919 
L 191.939406 161.707876 
L 192.793495 160.204296 
L 193.590644 157.798568 
L 196.893121 151.934606 
L 198.373541 151.483532 
L 203.099499 154.114797 
L 205.604826 155.016945 
L 206.572794 154.791408 
L 207.939336 153.13747 
L 211.925083 145.995465 
L 214.031836 142.762768 
L 215.853892 139.154177 
L 217.220434 136.973986 
L 218.074523 136.748449 
L 220.750668 138.552745 
L 220.636789 138.101671 
L 220.636789 138.101671 
" clip-path="url(#p09d48e389e)" style="fill: none; stroke: #000000; stroke-width: 3"/>
   </g>
  </g>
 </g>
 <defs>
  <clipPath id="p09d48e389e">
   <rect x="7.2" y="7.2" width="357.635447" height="554.4"/>
  </clipPath>
 </defs>
</svg>
