<?xml version="1.0" encoding="utf-8" standalone="no"?>
<!DOCTYPE svg PUBLIC "-//W3C//DTD SVG 1.1//EN"
  "http://www.w3.org/Graphics/SVG/1.1/DTD/svg11.dtd">
<svg xmlns:xlink="http://www.w3.org/1999/xlink" width="399.177567pt" height="568.8pt" viewBox="0 0 399.177567 568.8" xmlns="http://www.w3.org/2000/svg" version="1.1">
 <metadata>
  <rdf:RDF xmlns:dc="http://purl.org/dc/elements/1.1/" xmlns:cc="http://creativecommons.org/ns#" xmlns:rdf="http://www.w3.org/1999/02/22-rdf-syntax-ns#">
   <cc:Work>
    <dc:type rdf:resource="http://purl.org/dc/dcmitype/StillImage"/>
    <dc:date>2023-09-25T14:13:54.022666</dc:date>
    <dc:format>image/svg+xml</dc:format>
    <dc:creator>
     <cc:Agent>
      <dc:title>Matplotlib v3.6.2, https://matplotlib.org/</dc:title>
     </cc:Agent>
    </dc:creator>
   </cc:Work>
  </rdf:RDF>
 </metadata>
 <defs>
  <style type="text/css">*{stroke-linejoin: round; stroke-linecap: butt}</style>
 </defs>
 <g id="figure_1">
  <g id="patch_1">
   <path d="M 0 568.8 
L 399.177567 568.8 
L 399.177567 0 
L 0 0 
z
" style="fill: #ffffff"/>
  </g>
  <g id="axes_1">
   <g id="LineCollection_1">
    <path d="M 84.507342 535.274614 
L 82.017678 534.235795 
L 79.265944 531.985022 
L 75.662483 530.513363 
L 73.369372 528.695431 
L 67.931422 525.752113 
L 67.603834 525.319272 
L 61.772779 522.029681 
L 57.776213 520.12518 
L 56.924486 519.346067 
L 52.338263 516.835589 
L 50.176186 515.36393 
L 45.983068 513.545998 
L 44.345131 512.247475 
L 42.57616 511.987771 
L 38.317524 509.650429 
L 33.469231 506.707111 
L 28.096798 504.36977 
L 25.803686 503.071247 
L 24.689889 500.733906 
L 25.672652 497.963724 
L 27.572658 495.972655 
L 29.407147 491.644246 
L 30.520945 490.518859 
L 30.586462 489.0472 
L 31.700259 488.354655 
L 32.683021 486.017314 
L 33.272678 482.900859 
L 34.648545 483.247132 
L 32.683021 486.277018 
L 32.158881 483.853109 
L 35.04165 479.264995 
L 37.007174 474.936585 
L 38.186489 473.032085 
L 38.252006 471.214153 
L 37.400279 470.002199 
L 40.020978 466.626039 
L 39.038216 463.596153 
L 39.300286 462.211061 
L 41.593397 460.133425 
L 41.593397 458.834902 
L 40.217531 457.622947 
L 39.038216 455.025902 
L 38.907181 453.381106 
L 40.676153 449.312401 
L 36.745104 456.584129 
L 36.417517 457.882652 
L 38.448559 456.670697 
L 39.496838 456.670697 
L 41.462363 458.834902 
L 41.331328 459.614016 
L 39.365803 461.431948 
L 39.234768 462.211061 
L 42.379607 460.912539 
L 46.376173 457.882652 
L 48.341697 455.11247 
L 51.879641 449.225833 
L 53.386543 448.100447 
L 55.679654 448.100447 
L 56.990004 446.369083 
L 58.038283 446.195946 
L 62.755541 442.992923 
L 65.179688 440.915287 
L 67.341764 437.539127 
L 66.293485 437.365991 
L 63.738303 439.443628 
L 61.183122 439.616764 
L 60.003807 437.625696 
L 60.069325 435.374923 
L 61.117604 432.258468 
L 64.065891 426.89124 
L 67.079694 420.571762 
L 67.865904 416.243353 
L 68.717631 414.511989 
L 67.931422 413.819443 
L 66.359002 414.079148 
L 66.096932 415.983648 
L 65.179688 416.935898 
L 62.427954 417.541876 
L 60.593465 417.282171 
L 58.169318 417.628444 
L 56.400346 419.879217 
L 55.614137 421.697149 
L 55.352067 424.207626 
L 56.072759 424.640467 
L 55.810689 429.488286 
L 52.993438 430.007695 
L 51.748606 429.488286 
L 53.648612 424.900172 
L 55.286549 422.389694 
L 57.317591 418.494126 
L 59.610703 416.416489 
L 61.903814 416.243353 
L 63.476233 416.935898 
L 65.310723 416.329921 
L 67.014177 413.906012 
L 68.848666 414.165716 
L 71.141778 412.607489 
L 72.321092 409.837307 
L 73.893512 408.105943 
L 75.007309 406.028306 
L 76.710763 405.249193 
L 79.528014 402.392442 
L 82.541818 400.228238 
L 83.26251 400.747647 
L 82.345266 402.99842 
L 80.772846 405.162625 
L 81.034916 405.941738 
L 84.703895 402.911852 
L 86.276314 403.171556 
L 88.897013 398.583442 
L 91.255642 395.120715 
L 92.762544 392.00426 
L 94.400481 389.407214 
L 95.71083 386.463896 
L 97.807389 383.174304 
L 99.510844 379.625009 
L 100.952228 377.460804 
L 103.703962 372.353281 
L 106.652248 365.427825 
L 109.993639 356.684438 
L 109.993639 354.520234 
L 107.438458 360.92628 
L 107.831563 360.839711 
L 109.076395 357.290416 
L 111.762611 351.403779 
L 111.303989 351.490347 
L 109.731569 356.078461 
L 107.11087 361.705393 
L 109.666052 357.723257 
L 111.238471 353.308279 
L 114.64538 345.776846 
L 116.086764 342.140982 
L 119.035051 337.379732 
L 117.659184 335.994641 
L 120.60747 332.964754 
L 122.245407 330.367709 
L 124.210931 331.493095 
L 133.121307 315.651116 
L 134.890279 311.409275 
L 133.252342 310.543593 
L 134.562692 309.331639 
L 136.266146 310.110752 
L 139.607537 303.618138 
L 137.838565 303.012161 
L 136.986838 301.453933 
L 138.886845 297.644933 
L 138.297188 296.259842 
L 136.593733 295.653865 
L 136.069594 299.549433 
L 136.266146 301.886774 
L 137.183391 302.665888 
L 138.886845 302.492752 
L 140.721334 301.021092 
L 142.883411 298.077774 
L 145.111005 293.749364 
L 148.386878 289.247819 
L 148.059291 287.516455 
L 152.579997 278.340227 
L 153.562759 274.184954 
L 153.890346 270.722226 
L 153.300689 266.566953 
L 154.086899 263.190794 
L 160.704163 251.157815 
L 162.538653 248.127929 
L 167.321428 239.384541 
L 171.973169 231.247132 
L 172.497309 230.987427 
L 176.362839 233.324768 
L 177.083532 232.978495 
L 172.497309 230.38145 
L 174.79042 227.611268 
L 178.590434 225.793336 
L 180.555958 223.455995 
L 185.862873 217.829062 
L 187.50081 216.96338 
L 185.142181 215.232016 
L 187.042188 212.808107 
L 188.28702 210.384198 
L 185.469768 208.82597 
L 177.214567 207.094607 
L 179.507678 207.787152 
L 185.666321 208.652834 
L 188.418054 209.778221 
L 189.662886 207.87372 
L 190.318061 205.796084 
L 189.466334 205.276675 
L 187.369775 208.652834 
L 185.862873 209.085675 
L 181.01458 215.664857 
L 176.559392 223.542563 
L 175.183525 225.447063 
L 172.562826 227.870972 
L 173.676623 223.19629 
L 175.57663 221.378358 
L 177.935259 219.820131 
L 175.707665 224.927654 
L 177.149049 222.590313 
L 178.066294 222.503744 
L 181.931825 219.906699 
L 183.438727 220.599244 
L 185.535286 218.694744 
L 188.28702 214.626039 
L 188.811159 212.461834 
L 195.297389 197.745242 
L 196.804291 195.148196 
L 199.031885 192.464583 
L 202.504311 189.954105 
L 203.749143 189.607832 
L 206.369842 187.183923 
L 209.580198 181.816695 
L 210.431925 181.383854 
L 213.118142 175.670354 
L 218.162987 170.389694 
L 221.766448 163.983648 
L 225.369909 156.71192 
L 227.466468 150.652147 
L 227.597503 148.661079 
L 228.580265 146.67001 
L 228.580265 144.76551 
L 230.087167 140.696805 
L 231.069929 136.887805 
L 230.087167 136.6281 
L 230.152685 138.619169 
L 228.121643 143.207283 
L 228.056126 144.419237 
L 229.563028 140.090828 
L 230.02165 137.58035 
L 229.038888 138.09976 
L 228.44923 136.454964 
L 229.104405 135.762418 
L 228.514748 129.96235 
L 227.859573 130.048918 
L 227.400951 132.8191 
L 226.221636 137.407214 
L 226.614741 134.550464 
L 227.269916 133.684782 
L 226.418189 137.753487 
L 227.335433 139.311714 
L 226.483706 140.263964 
L 222.290588 139.571419 
L 219.276784 139.571419 
L 218.883679 142.081896 
L 217.31126 141.475919 
L 214.494009 139.484851 
L 215.804358 136.714668 
L 217.57333 137.320646 
L 216.656085 138.965441 
L 216.852638 140.177396 
L 214.559526 138.878873 
L 213.969869 139.831123 
L 218.09747 141.735623 
L 218.490575 137.147509 
L 222.683693 125.460804 
L 222.74921 124.854827 
L 225.566462 117.150258 
L 227.073364 113.68753 
L 228.44923 112.648712 
L 229.628545 110.051666 
L 231.725104 102.953075 
L 233.756146 94.036551 
L 234.869943 93.430574 
L 237.163054 93.863415 
L 236.50788 92.824596 
L 234.083733 91.526074 
L 234.738908 90.74696 
L 233.166489 89.361869 
L 232.511314 91.612642 
L 231.069929 89.361869 
L 232.707866 89.535005 
L 233.428558 88.582755 
L 234.214768 89.881278 
L 235.263048 90.054414 
L 234.738908 91.872346 
L 235.4596 92.65146 
L 239.587201 94.642528 
L 241.618243 96.373892 
L 246.925158 98.711233 
L 248.16999 98.797801 
L 248.9562 100.096324 
L 253.34587 102.866506 
L 254.590702 103.126211 
L 257.670023 105.55012 
L 262.059694 107.541189 
L 266.05626 110.224802 
L 269.594204 111.696462 
L 274.114909 114.553212 
L 275.556294 115.072621 
L 281.387349 119.227894 
L 279.880447 123.123463 
L 278.701132 124.248849 
L 272.608007 121.218963 
L 271.75628 120.353281 
L 267.628679 118.44878 
L 265.073498 116.717417 
L 261.207967 114.899485 
L 261.076932 114.380076 
L 262.714869 111.003916 
L 264.876945 109.359121 
L 265.925225 110.224802 
L 270.380413 112.215871 
L 274.180427 114.899485 
L 280.666656 118.708485 
L 283.15632 119.660735 
L 285.711502 121.392099 
L 289.90462 123.383167 
L 293.966703 125.027963 
L 293.442564 128.05785 
L 291.608074 131.260873 
L 289.577033 129.875782 
L 287.414956 129.183236 
L 287.021851 127.971281 
L 289.183928 119.054758 
L 291.149452 113.254689 
L 292.001179 109.791962 
L 293.311529 107.108348 
L 298.683962 109.705393 
L 297.570164 111.956166 
L 298.356374 113.427825 
L 301.959835 115.678598 
L 300.649486 118.01594 
L 295.801193 123.036895 
L 296.063263 125.114531 
L 299.666724 121.998076 
L 301.56673 119.487599 
L 310.084002 109.791962 
L 312.311596 106.069529 
L 314.866777 99.403779 
L 317.356441 91.612642 
L 321.54956 88.32305 
L 321.746112 85.812573 
L 321.090937 84.167777 
L 321.942664 83.042391 
L 321.484042 81.484164 
L 322.663357 77.588595 
L 318.732308 82.436414 
L 318.601273 85.726005 
L 318.994378 85.552868 
L 318.666791 81.830436 
L 321.02542 79.233391 
L 327.053027 69.970594 
L 330.918558 64.516798 
L 332.622013 59.928684 
L 332.884082 58.024184 
L 334.980642 53.782343 
L 340.484109 46.770319 
L 341.466871 46.25091 
L 344.284123 43.134456 
L 345.39792 40.277705 
L 346.773787 40.53741 
L 346.773787 41.576228 
L 345.39792 41.316524 
L 345.65999 40.364273 
L 347.035857 41.403092 
L 352.408289 42.355342 
L 360.991078 43.307592 
L 363.611777 43.827001 
L 374.487678 45.212092 
L 370.360077 44.519547 
L 362.563498 43.740433 
L 348.542759 41.576228 
L 346.118612 40.883683 
L 345.266885 42.528478 
L 342.580668 45.29866 
L 339.95997 44.086706 
L 339.304795 42.874751 
L 340.287557 40.970251 
L 341.925494 39.325455 
L 339.6979 38.113501 
L 333.47374 33.35225 
L 329.673726 32.4 
L 325.349573 40.364273 
L 324.170259 42.009069 
L 321.54956 47.289729 
L 320.76335 47.289729 
L 311.066764 42.009069 
L 308.249513 40.797114 
L 306.415023 39.238887 
L 303.270185 37.594091 
L 302.549492 37.853796 
L 300.190863 42.701615 
L 299.535689 43.221024 
L 297.373612 42.874751 
L 296.783955 47.462865 
L 293.508081 45.644933 
L 290.16669 44.34641 
L 280.076999 38.979182 
L 279.552859 37.853796 
L 281.780454 33.698523 
L 285.25288 35.083614 
L 288.921858 37.420955 
L 293.573599 39.58516 
L 296.91499 41.662796 
L 296.718437 46.337479 
L 294.032221 51.358434 
L 293.901186 53.089797 
L 295.146018 55.080866 
L 294.425326 59.236139 
L 293.901186 66.075026 
L 295.277053 67.460117 
L 297.963269 68.152662 
L 299.011549 66.767571 
L 298.946031 64.603367 
L 297.832234 67.892958 
L 294.949466 73.606458 
L 293.704634 74.299004 
L 292.263249 74.125867 
L 290.756347 72.827345 
L 284.72874 69.970594 
L 282.239076 73.866163 
L 281.387349 75.770663 
L 281.583901 76.809481 
L 286.628747 79.060254 
L 290.363242 80.964754 
L 296.259815 84.687187 
L 299.011549 85.726005 
L 302.025353 87.630505 
L 310.215037 91.785778 
L 311.328834 92.997733 
L 309.494345 98.88437 
L 308.511582 99.144074 
L 305.694331 97.41271 
L 299.339136 94.469392 
L 297.570164 93.344005 
L 295.801193 91.266369 
L 290.756347 88.063346 
L 285.580467 85.899141 
L 284.335635 84.773755 
L 281.518384 83.388664 
L 277.71837 80.878186 
L 275.621811 80.012504 
L 274.311462 78.887118 
L 271.166623 77.242322 
L 268.218337 76.116936 
L 265.401085 74.125867 
L 261.797624 72.740776 
L 256.490709 70.057162 
L 256.032087 70.316867 
L 255.311394 73.779595 
L 254.459667 75.42439 
L 255.311394 76.290072 
L 258.194163 77.502027 
L 261.666589 79.406527 
L 264.680393 80.618482 
L 265.466603 81.397595 
L 264.090736 88.149914 
L 263.894183 90.140982 
L 262.256247 95.854483 
L 262.714869 98.797801 
L 265.728673 102.866506 
L 263.239009 107.887461 
L 261.011415 111.090484 
L 258.259681 116.111439 
L 257.080366 119.747303 
L 253.673458 124.508554 
L 249.807927 131.86685 
L 243.125144 144.159533 
L 241.68376 146.496874 
L 237.490642 154.374579 
L 235.525118 157.750739 
L 231.790622 165.195603 
L 229.890615 168.22549 
L 225.369909 177.228581 
L 222.290588 181.989832 
L 221.242308 184.240605 
L 211.480205 201.900515 
L 209.056058 206.834902 
L 208.269849 207.787152 
L 204.928458 213.673789 
L 204.3388 215.145448 
L 202.176724 218.608176 
L 198.704298 225.014222 
L 196.935326 227.697836 
L 194.118075 233.065064 
L 190.645649 238.778564 
L 184.945628 249.599588 
L 181.997342 254.793679 
L 180.75251 255.919066 
L 178.262846 260.160907 
L 176.297322 264.402748 
L 174.921455 266.480385 
L 171.383511 273.059567 
L 171.186959 274.444658 
L 169.680057 275.137204 
L 169.35247 277.21484 
L 167.452463 280.244727 
L 164.373142 286.737341 
L 161.228303 291.844864 
L 159.721401 294.874751 
L 158.345534 296.779251 
L 156.773115 300.588251 
L 153.169654 306.474888 
L 151.20413 311.322707 
L 150.221368 312.361525 
L 148.124809 316.863071 
L 146.552389 318.854139 
L 145.373075 321.884026 
L 140.131677 331.319959 
L 138.624775 333.397595 
L 136.462698 337.726005 
L 135.610971 339.976778 
L 132.073028 345.084301 
L 130.173021 349.239574 
L 128.731637 351.317211 
L 122.769547 362.917348 
L 120.410917 366.63978 
L 118.183323 371.401031 
L 117.004009 372.353281 
L 115.235037 376.768258 
L 113.924688 378.499622 
L 111.828129 382.308622 
L 110.321227 386.896737 
L 109.666052 390.186328 
L 109.272947 394.947578 
L 109.338465 398.150601 
L 108.879842 403.690965 
L 107.700528 409.491034 
L 106.193626 413.906012 
L 103.638444 420.312058 
L 99.838431 426.198695 
L 98.593599 429.228581 
L 96.693592 432.258468 
L 95.383243 433.556991 
L 94.597033 435.894332 
L 91.124607 441.174991 
L 89.879775 444.464583 
L 86.603901 449.83181 
L 84.179755 454.419924 
L 80.445259 460.912539 
L 76.448693 469.396221 
L 74.090064 473.032085 
L 72.517645 478.05304 
L 70.486603 480.563518 
L 69.634876 482.641154 
L 67.341764 485.930745 
L 64.721065 490.9517 
L 62.296919 494.587564 
L 59.67622 499.781656 
L 56.007242 505.754861 
L 53.9762 510.08327 
L 50.569291 513.805703 
L 48.27618 517.441566 
L 46.70376 520.558021 
L 45.655481 521.769976 
L 43.624439 526.184954 
L 42.05202 527.656613 
L 40.348565 531.725318 
L 42.379607 533.023841 
L 48.800319 534.928341 
L 50.176186 536.4 
L 51.421018 536.4 
L 53.517578 533.110409 
L 57.841731 534.841773 
L 58.234836 534.149227 
L 58.234836 534.149227 
" clip-path="url(#p470ad2ba0e)" style="fill: none; stroke: #000000; stroke-width: 3"/>
   </g>
  </g>
 </g>
 <defs>
  <clipPath id="p470ad2ba0e">
   <rect x="7.2" y="7.2" width="384.777567" height="554.4"/>
  </clipPath>
 </defs>
</svg>
