<?xml version="1.0" encoding="utf-8" standalone="no"?>
<!DOCTYPE svg PUBLIC "-//W3C//DTD SVG 1.1//EN"
  "http://www.w3.org/Graphics/SVG/1.1/DTD/svg11.dtd">
<svg xmlns:xlink="http://www.w3.org/1999/xlink" width="219.081923pt" height="568.8pt" viewBox="0 0 219.081923 568.8" xmlns="http://www.w3.org/2000/svg" version="1.1">
 <metadata>
  <rdf:RDF xmlns:dc="http://purl.org/dc/elements/1.1/" xmlns:cc="http://creativecommons.org/ns#" xmlns:rdf="http://www.w3.org/1999/02/22-rdf-syntax-ns#">
   <cc:Work>
    <dc:type rdf:resource="http://purl.org/dc/dcmitype/StillImage"/>
    <dc:date>2023-09-25T14:13:53.612345</dc:date>
    <dc:format>image/svg+xml</dc:format>
    <dc:creator>
     <cc:Agent>
      <dc:title>Matplotlib v3.6.2, https://matplotlib.org/</dc:title>
     </cc:Agent>
    </dc:creator>
   </cc:Work>
  </rdf:RDF>
 </metadata>
 <defs>
  <style type="text/css">*{stroke-linejoin: round; stroke-linecap: butt}</style>
 </defs>
 <g id="figure_1">
  <g id="patch_1">
   <path d="M 0 568.8 
L 219.081923 568.8 
L 219.081923 0 
L 0 0 
z
" style="fill: #ffffff"/>
  </g>
  <g id="axes_1">
   <g id="LineCollection_1">
    <path d="M 202.5782 36.084595 
L 196.996962 32.531593 
L 195.302658 32.4 
L 193.209694 37.137337 
L 189.52209 42.927415 
L 184.239847 52.270496 
L 177.163635 66.614099 
L 177.46263 67.403655 
L 175.469331 71.483029 
L 173.775027 73.062141 
L 169.090774 81.878851 
L 166.100825 86.616188 
L 163.310206 93.459008 
L 161.516237 95.564491 
L 158.625953 101.617755 
L 156.034664 105.697128 
L 155.237345 110.039687 
L 153.842035 112.67154 
L 153.244046 116.09295 
L 149.955102 120.830287 
L 146.666158 123.856919 
L 144.373864 127.015144 
L 145.769174 129.120627 
L 150.353762 130.699739 
L 158.725618 135.437076 
L 161.815232 136.226632 
L 168.791779 140.963969 
L 171.084073 141.358747 
L 169.389769 145.043342 
L 166.00116 149.649086 
L 158.526288 162.676762 
L 156.233994 167.282507 
L 147.862138 182.547258 
L 145.769174 187.02141 
L 140.486931 195.969713 
L 124.341208 225.709661 
L 120.055615 232.815666 
L 118.460975 236.237076 
L 111.085769 249.396345 
L 105.305201 261.371279 
L 103.810227 262.555614 
L 99.325304 264.134726 
L 98.129324 269.003655 
L 99.923293 272.688251 
L 103.810227 274.004178 
L 105.205536 275.188512 
L 105.504531 280.189034 
L 103.212237 280.583812 
L 101.816927 276.504439 
L 99.723963 274.13577 
L 101.717263 278.346736 
L 101.418268 283.478851 
L 99.823628 289.400522 
L 98.926644 295.190601 
L 99.923293 309.271018 
L 98.926644 315.061097 
L 96.83368 320.719582 
L 94.541386 328.220366 
L 94.940045 329.93107 
L 97.431669 331.641775 
L 98.129324 334.010444 
L 97.03301 335.589556 
L 95.338705 343.353525 
L 94.84038 352.959791 
L 96.136025 364.276762 
L 95.6377 366.513838 
L 93.445071 369.803655 
L 92.847081 372.567102 
L 93.345406 379.541514 
L 92.348757 383.620888 
L 89.458473 386.384334 
L 85.372209 388.489817 
L 78.794322 389.016188 
L 76.502028 390.200522 
L 75.306049 393.621932 
L 76.203033 399.41201 
L 78.694657 408.623499 
L 78.196333 410.071018 
L 78.993652 415.203133 
L 75.106719 414.281984 
L 70.821126 414.281984 
L 66.136873 413.624021 
L 63.744914 418.624543 
L 57.266691 426.388512 
L 54.675403 425.993734 
L 51.286794 430.2047 
L 50.489474 432.573368 
L 47.001201 435.731593 
L 45.406561 441.521671 
L 44.110917 444.285117 
L 44.210582 448.759269 
L 42.017953 454.022977 
L 41.519628 457.444386 
L 38.13102 458.365535 
L 37.234035 459.813055 
L 37.3337 465.997911 
L 38.230685 469.550914 
L 36.73571 472.972324 
L 35.539731 472.840731 
L 35.539731 475.604178 
L 34.343751 478.236031 
L 30.456818 479.551958 
L 30.058158 482.446997 
L 34.443416 497.711749 
L 35.739061 503.370235 
L 26.569885 500.738381 
L 21.985296 498.369713 
L 16.503724 497.580157 
L 24.078261 497.711749 
L 32.250787 500.21201 
L 35.440066 502.317493 
L 40.921638 504.817755 
L 46.702206 509.686684 
L 48.59584 511.792167 
L 55.572387 514.950392 
L 62.748264 518.898172 
L 68.130172 523.503916 
L 72.415765 524.688251 
L 73.013755 526.267363 
L 70.223136 536.4 
L 66.635197 535.215666 
L 68.927491 534.95248 
" clip-path="url(#p3aa832914e)" style="fill: none; stroke: #000000; stroke-width: 3"/>
   </g>
  </g>
 </g>
 <defs>
  <clipPath id="p3aa832914e">
   <rect x="7.2" y="7.2" width="204.681923" height="554.4"/>
  </clipPath>
 </defs>
</svg>
