<?xml version="1.0" encoding="utf-8" standalone="no"?>
<!DOCTYPE svg PUBLIC "-//W3C//DTD SVG 1.1//EN"
  "http://www.w3.org/Graphics/SVG/1.1/DTD/svg11.dtd">
<svg xmlns:xlink="http://www.w3.org/1999/xlink" width="296.096927pt" height="568.8pt" viewBox="0 0 296.096927 568.8" xmlns="http://www.w3.org/2000/svg" version="1.1">
 <metadata>
  <rdf:RDF xmlns:dc="http://purl.org/dc/elements/1.1/" xmlns:cc="http://creativecommons.org/ns#" xmlns:rdf="http://www.w3.org/1999/02/22-rdf-syntax-ns#">
   <cc:Work>
    <dc:type rdf:resource="http://purl.org/dc/dcmitype/StillImage"/>
    <dc:date>2023-09-25T14:13:53.553194</dc:date>
    <dc:format>image/svg+xml</dc:format>
    <dc:creator>
     <cc:Agent>
      <dc:title>Matplotlib v3.6.2, https://matplotlib.org/</dc:title>
     </cc:Agent>
    </dc:creator>
   </cc:Work>
  </rdf:RDF>
 </metadata>
 <defs>
  <style type="text/css">*{stroke-linejoin: round; stroke-linecap: butt}</style>
 </defs>
 <g id="figure_1">
  <g id="patch_1">
   <path d="M 0 568.8 
L 296.096927 568.8 
L 296.096927 0 
L 0 0 
z
" style="fill: #ffffff"/>
  </g>
  <g id="axes_1">
   <g id="LineCollection_1">
    <path d="M 42.635449 536.4 
L 40.55101 533.057695 
L 35.637692 529.911995 
L 33.999919 530.69842 
L 31.096595 528.437449 
L 28.491047 524.898537 
L 25.513278 525.488356 
L 20.07885 521.654535 
L 20.004406 520.376594 
L 22.461065 515.363136 
L 22.684398 513.88859 
L 27.969937 505.631129 
L 29.012156 503.173552 
L 29.235489 500.519368 
L 30.947706 497.373669 
L 32.287702 493.736454 
L 34.223252 490.590755 
L 36.382134 485.970509 
L 39.211014 484.004447 
L 41.146564 480.760445 
L 43.528779 478.597776 
L 43.826556 476.336805 
L 46.134327 471.913166 
L 49.335428 470.14371 
L 51.792088 466.309889 
L 54.769856 464.44213 
L 55.960964 459.723581 
L 58.640956 456.282972 
L 60.65095 452.055939 
L 63.47983 448.517028 
L 64.447605 445.273025 
L 64.00094 443.995085 
L 64.596493 441.832417 
L 66.159822 438.686717 
L 66.978708 435.541018 
L 68.914258 432.10041 
L 69.286479 430.036044 
L 72.859802 425.809011 
L 77.549788 413.816033 
L 78.517562 410.768637 
L 81.941997 405.263663 
L 85.291986 402.412873 
L 87.227536 399.168871 
L 87.971978 397.006202 
L 90.354193 394.253716 
L 91.098636 392.18935 
L 94.671958 390.026682 
L 96.235287 387.372499 
L 95.93751 385.996255 
L 99.138611 380.589585 
L 100.70194 377.345582 
L 103.009711 375.37952 
L 103.754153 373.118549 
L 106.508589 368.105091 
L 106.88081 365.450907 
L 105.913035 362.600117 
L 101.818603 359.356115 
L 100.553052 357.684962 
L 99.957498 354.834172 
L 100.478607 352.081685 
L 104.05193 348.542774 
L 106.061924 345.790287 
L 109.709691 337.041311 
L 112.613015 331.63464 
L 114.920786 328.390638 
L 117.600778 325.539848 
L 119.75966 324.261908 
L 124.449646 323.37718 
L 126.831861 324.163604 
L 132.340733 327.014394 
L 134.350727 327.407607 
L 136.360721 326.916091 
L 140.008488 324.556817 
L 141.646261 323.08227 
L 143.060701 320.624693 
L 144.028476 317.872206 
L 146.559579 313.350263 
L 149.016239 311.089292 
L 152.887338 308.926624 
L 156.386216 306.174137 
L 157.949545 304.208075 
L 159.885095 299.784435 
L 160.927314 294.770977 
L 160.480648 291.232066 
L 158.247322 285.333879 
L 158.098433 282.679696 
L 159.215097 279.533996 
L 161.597312 276.191691 
L 165.766188 272.456173 
L 168.371736 271.276536 
L 170.753951 268.818958 
L 172.317279 265.083441 
L 172.242835 260.069982 
L 174.178385 254.073493 
L 174.401717 251.517613 
L 178.198373 241.785606 
L 181.548363 236.772147 
L 186.08946 232.348508 
L 188.099454 229.989233 
L 190.258336 225.958806 
L 192.26833 220.748742 
L 195.022766 215.636981 
L 198.149424 212.098069 
L 201.573858 210.132007 
L 207.529395 208.264248 
L 209.464945 208.264248 
L 215.122706 209.443885 
L 216.760478 209.345582 
L 220.184913 207.772733 
L 222.864904 204.921943 
L 226.363783 198.139029 
L 232.31932 187.620597 
L 242.294846 169.729432 
L 247.282609 159.997425 
L 248.324828 157.244939 
L 248.994826 152.624693 
L 249.06927 146.82481 
L 249.664824 142.794383 
L 249.515935 140.336805 
L 248.175939 135.716559 
L 246.091501 131.882738 
L 246.687055 127.459099 
L 248.250383 123.821884 
L 252.195927 117.137273 
L 254.131477 114.581393 
L 261.873676 106.520538 
L 264.107002 102.391808 
L 263.660337 96.395319 
L 263.734781 92.561498 
L 265.446998 83.812522 
L 266.563661 81.158338 
L 268.945876 78.602458 
L 274.231416 75.555061 
L 275.645856 73.687303 
L 276.092522 70.4433 
L 273.933639 67.985723 
L 270.583649 67.690813 
L 267.531436 69.067057 
L 264.702556 71.131422 
L 262.245897 72.114453 
L 259.565905 71.524634 
L 258.225909 70.050088 
L 258.151465 67.297601 
L 258.747018 65.528145 
L 261.650343 61.104506 
L 263.809225 58.548625 
L 266.414773 54.223288 
L 268.573655 48.620012 
L 268.499211 44.687888 
L 267.531436 42.820129 
L 262.320341 38.396489 
L 258.821463 36.037215 
L 253.908144 34.267759 
L 247.952607 33.579637 
L 244.751505 32.498303 
L 242.443734 32.4 
L 240.43374 33.776243 
L 238.647079 36.135518 
L 237.828193 38.691398 
L 238.349302 41.837098 
L 240.95485 44.392978 
L 245.71928 46.162434 
L 248.027051 47.93189 
L 249.143714 50.291164 
L 249.367047 54.124985 
L 251.079264 61.399415 
L 250.781487 63.856992 
L 249.813712 66.31457 
L 248.250383 68.378935 
L 245.123726 71.328028 
L 242.815955 72.704272 
L 237.381527 74.768637 
L 235.297089 76.046577 
L 233.510428 78.897367 
L 231.723767 83.222703 
L 229.862661 85.581978 
L 227.257113 87.056524 
L 219.887136 89.907314 
L 216.313813 92.561498 
L 212.442714 98.9512 
L 210.209387 104.554476 
L 209.167168 108.4866 
L 207.454951 111.435693 
L 205.072736 114.48309 
L 202.913854 116.252545 
L 198.819422 118.710123 
L 197.181649 120.577882 
L 196.13943 125.001521 
L 196.213874 130.211586 
L 195.320543 134.045407 
L 194.054991 136.109772 
L 191.896109 138.27244 
L 187.578344 139.943593 
L 181.250586 143.187595 
L 177.528375 146.431597 
L 175.295048 149.282387 
L 172.6895 154.099239 
L 171.051728 158.719485 
L 170.605062 163.929549 
L 171.126172 166.583733 
L 173.731719 174.939497 
L 173.657275 178.675015 
L 172.019502 182.705442 
L 169.190622 186.932475 
L 164.500636 191.84763 
L 160.703981 194.305208 
L 158.172878 197.254301 
L 156.98177 196.959391 
L 158.39621 192.535752 
L 158.545099 189.29175 
L 158.023989 185.163019 
L 156.758437 182.115623 
L 155.120665 180.346167 
L 151.994007 178.085196 
L 139.561823 171.793798 
L 138.891825 171.007373 
L 138.891825 171.007373 
" clip-path="url(#p7e3087d1f8)" style="fill: none; stroke: #000000; stroke-width: 3"/>
   </g>
  </g>
 </g>
 <defs>
  <clipPath id="p7e3087d1f8">
   <rect x="7.2" y="7.2" width="281.696927" height="554.4"/>
  </clipPath>
 </defs>
</svg>
