<?xml version="1.0" encoding="utf-8" standalone="no"?>
<!DOCTYPE svg PUBLIC "-//W3C//DTD SVG 1.1//EN"
  "http://www.w3.org/Graphics/SVG/1.1/DTD/svg11.dtd">
<svg xmlns:xlink="http://www.w3.org/1999/xlink" width="245.941246pt" height="568.8pt" viewBox="0 0 245.941246 568.8" xmlns="http://www.w3.org/2000/svg" version="1.1">
 <metadata>
  <rdf:RDF xmlns:dc="http://purl.org/dc/elements/1.1/" xmlns:cc="http://creativecommons.org/ns#" xmlns:rdf="http://www.w3.org/1999/02/22-rdf-syntax-ns#">
   <cc:Work>
    <dc:type rdf:resource="http://purl.org/dc/dcmitype/StillImage"/>
    <dc:date>2023-09-25T14:13:53.489103</dc:date>
    <dc:format>image/svg+xml</dc:format>
    <dc:creator>
     <cc:Agent>
      <dc:title>Matplotlib v3.6.2, https://matplotlib.org/</dc:title>
     </cc:Agent>
    </dc:creator>
   </cc:Work>
  </rdf:RDF>
 </metadata>
 <defs>
  <style type="text/css">*{stroke-linejoin: round; stroke-linecap: butt}</style>
 </defs>
 <g id="figure_1">
  <g id="patch_1">
   <path d="M 0 568.8 
L 245.941246 568.8 
L 245.941246 0 
L 0 0 
z
" style="fill: #ffffff"/>
  </g>
  <g id="axes_1">
   <g id="LineCollection_1">
    <path d="M 210.240463 32.4 
L 212.751103 35.051934 
L 218.877064 37.571271 
L 222.090683 40.488398 
L 224.400472 41.151381 
L 228.216644 43.803315 
L 227.915368 46.853039 
L 222.492386 57.59337 
L 215.763871 68.731492 
L 210.943442 77.61547 
L 207.930675 81.858564 
L 200.800458 94.057459 
L 192.063431 111.692818 
L 189.452366 116.201105 
L 179.10853 135.692818 
L 178.305125 138.212155 
L 174.288101 144.576796 
L 173.082994 147.626519 
L 169.266821 153.19558 
L 162.940009 164.598895 
L 158.722134 172.952486 
L 156.211494 176.79779 
L 149.884682 188.333702 
L 147.474468 191.118232 
L 144.963828 197.748066 
L 139.641272 206.764641 
L 137.431909 211.538122 
L 135.12212 214.985635 
L 128.694882 226.919337 
L 127.088073 231.162431 
L 122.066793 239.383425 
L 118.351046 246.80884 
L 115.438704 251.449724 
L 112.928064 258.609945 
L 111.120403 260.466298 
L 109.513594 260.201105 
L 105.596996 261.924862 
L 104.291463 265.107182 
L 104.59274 267.891713 
L 109.312743 272.930387 
L 111.019978 276.643094 
L 109.714445 275.58232 
L 108.107636 277.173481 
L 108.609763 280.753591 
L 106.4004 289.637569 
L 105.49657 288.709392 
L 106.701677 286.322652 
L 108.810615 287.383425 
L 109.614019 289.770166 
L 109.413168 284.598895 
L 110.417424 286.985635 
L 112.225085 284.466298 
L 113.731469 297.328177 
L 113.430192 299.317127 
L 115.037001 300.643094 
L 111.923808 309.924862 
L 109.011466 312.311602 
L 106.299975 319.074033 
L 105.195293 324.245304 
L 102.584228 333.394475 
L 101.680398 335.250829 
L 96.056564 343.737017 
L 94.751032 347.58232 
L 93.345073 348.377901 
L 88.625071 359.383425 
L 88.926347 362.433149 
L 87.72124 369.062983 
L 86.315282 373.836464 
L 84.507621 376.223204 
L 79.084639 379.405525 
L 77.176553 382.190055 
L 77.779107 390.941436 
L 76.774851 394.78674 
L 72.958678 402.609945 
L 73.259955 408.046409 
L 68.037824 409.107182 
L 66.330589 411.759116 
L 64.924631 417.460773 
L 63.418247 421.040884 
L 63.719524 427.935912 
L 63.11697 429.659669 
L 62.916119 435.626519 
L 61.008033 440.665193 
L 60.907607 447.162431 
L 57.19186 447.560221 
L 54.078667 444.908287 
L 52.070155 445.836464 
L 50.965473 463.074033 
L 48.454833 463.339227 
L 39.014828 462.41105 
L 36.604614 466.123757 
L 35.299081 474.079558 
L 31.583334 476.598895 
L 25.959501 488.134807 
L 24.352691 492.245304 
L 19.733114 493.306077 
L 17.724602 497.283978 
L 18.829284 502.853039 
L 20.235242 504.576796 
L 22.243754 504.841989 
L 24.754394 502.720442 
L 30.07695 502.720442 
L 42.328872 505.770166 
L 45.140789 508.687293 
L 51.26675 509.748066 
L 54.480369 511.869613 
L 60.003777 512.134807 
L 65.025056 513.99116 
L 70.347613 518.234254 
L 73.661657 521.814365 
L 76.975702 523.803315 
L 79.687193 524.333702 
L 79.888044 527.383425 
L 77.779107 531.759116 
L 76.774851 536.4 
L 69.544208 534.41105 
L 68.13825 529.107182 
L 65.728035 527.781215 
L 63.418247 525.261878 
L 61.409735 524.333702 
" clip-path="url(#p36e1cdbe7e)" style="fill: none; stroke: #000000; stroke-width: 3"/>
   </g>
  </g>
 </g>
 <defs>
  <clipPath id="p36e1cdbe7e">
   <rect x="7.2" y="7.2" width="231.541246" height="554.4"/>
  </clipPath>
 </defs>
</svg>
