<?xml version="1.0" encoding="utf-8" standalone="no"?>
<!DOCTYPE svg PUBLIC "-//W3C//DTD SVG 1.1//EN"
  "http://www.w3.org/Graphics/SVG/1.1/DTD/svg11.dtd">
<svg xmlns:xlink="http://www.w3.org/1999/xlink" width="268.162476pt" height="568.8pt" viewBox="0 0 268.162476 568.8" xmlns="http://www.w3.org/2000/svg" version="1.1">
 <metadata>
  <rdf:RDF xmlns:dc="http://purl.org/dc/elements/1.1/" xmlns:cc="http://creativecommons.org/ns#" xmlns:rdf="http://www.w3.org/1999/02/22-rdf-syntax-ns#">
   <cc:Work>
    <dc:type rdf:resource="http://purl.org/dc/dcmitype/StillImage"/>
    <dc:date>2023-09-25T14:13:53.190902</dc:date>
    <dc:format>image/svg+xml</dc:format>
    <dc:creator>
     <cc:Agent>
      <dc:title>Matplotlib v3.6.2, https://matplotlib.org/</dc:title>
     </cc:Agent>
    </dc:creator>
   </cc:Work>
  </rdf:RDF>
 </metadata>
 <defs>
  <style type="text/css">*{stroke-linejoin: round; stroke-linecap: butt}</style>
 </defs>
 <g id="figure_1">
  <g id="patch_1">
   <path d="M 0 568.8 
L 268.162476 568.8 
L 268.162476 0 
L 0 0 
z
" style="fill: #ffffff"/>
  </g>
  <g id="axes_1">
   <g id="LineCollection_1">
    <path d="M 51.420136 536.149596 
L 50.377991 536.086995 
L 47.583146 534.834977 
L 46.351519 533.395156 
L 42.372417 531.266725 
L 40.335496 530.452913 
L 38.156464 529.138293 
L 33.70366 526.88466 
L 32.519403 525.945647 
L 29.250855 524.255422 
L 26.977083 522.690399 
L 26.834972 521.125376 
L 31.714109 513.92627 
L 32.661514 511.797839 
L 34.035252 509.732008 
L 35.219508 507.227972 
L 38.582796 501.218283 
L 39.24598 499.59066 
L 41.330271 495.646802 
L 42.230306 494.394783 
L 43.651414 491.389939 
L 44.7883 489.887517 
L 48.056848 483.564824 
L 50.28325 480.810384 
L 49.477956 479.18276 
L 51.183285 477.304732 
L 52.793874 474.362489 
L 52.414912 473.611278 
L 50.28325 472.609663 
L 44.835671 469.479617 
L 43.888265 469.354416 
L 40.714458 467.726792 
L 39.767053 466.286971 
L 40.193385 464.158539 
L 39.861793 460.590287 
L 39.956534 458.274053 
L 41.661863 454.079791 
L 43.556674 451.012346 
L 45.688335 447.8823 
L 48.43581 444.501851 
L 51.135915 442.248218 
L 52.178061 441.121401 
L 53.220206 439.118172 
L 57.246678 432.357272 
L 58.762527 429.227226 
L 60.894188 425.971979 
L 62.883739 422.153323 
L 64.399587 418.835474 
L 65.015401 418.084263 
L 68.47343 409.820941 
L 69.657686 406.31529 
L 71.884088 401.244616 
L 74.489452 395.860937 
L 75.721079 394.04551 
L 79.60544 389.538244 
L 80.315994 387.722817 
L 88.65316 372.761197 
L 91.021673 368.253931 
L 92.727002 365.749894 
L 94.432331 362.807651 
L 96.04292 359.489803 
L 97.037696 356.359757 
L 99.311468 352.290697 
L 100.258873 349.974463 
L 101.206278 346.40621 
L 101.253649 344.778587 
L 100.922057 341.961545 
L 101.348389 339.895715 
L 113.948878 317.046379 
L 116.22265 314.041535 
L 119.064866 312.664315 
L 124.701927 306.21642 
L 125.838813 304.526196 
L 126.123034 303.399379 
L 128.207326 298.954714 
L 130.291617 293.94664 
L 132.66013 289.689778 
L 134.744422 287.498745 
L 138.06034 285.432915 
L 139.765669 283.680089 
L 140.855185 281.989865 
L 141.75522 279.798832 
L 142.371033 279.172823 
L 144.123733 276.23058 
L 144.692176 276.105378 
L 147.818613 277.232195 
L 150.89768 278.92242 
L 152.603009 278.797218 
L 155.255744 273.914346 
L 158.429551 269.156676 
L 161.319137 263.835598 
L 162.692874 261.018557 
L 165.58246 256.198286 
L 166.387754 254.195057 
L 167.572011 252.37963 
L 170.556337 247.246354 
L 174.298588 240.360253 
L 175.624955 236.979804 
L 177.235544 234.413166 
L 177.946097 232.034331 
L 176.146028 230.156304 
L 174.914401 225.398634 
L 174.203847 224.45962 
L 172.166926 222.957198 
L 168.851008 221.454776 
L 167.050938 220.202757 
L 161.792839 217.385716 
L 159.566437 215.945895 
L 159.898029 214.318271 
L 158.997994 214.25567 
L 158.713772 213.504459 
L 158.666402 211.188225 
L 158.950624 208.433785 
L 159.755918 206.868762 
L 160.561213 201.860688 
L 162.124431 199.356651 
L 162.787615 195.224991 
L 163.592909 193.597367 
L 163.971871 191.78194 
L 164.635055 190.342119 
L 165.345609 187.775481 
L 166.103533 186.773867 
L 167.003568 183.518619 
L 169.419451 178.948752 
L 170.082635 178.385343 
L 171.314261 178.322743 
L 172.451147 177.133325 
L 172.83011 174.817091 
L 172.735369 173.37727 
L 172.92485 169.871618 
L 173.161701 169.245609 
L 173.209072 165.489554 
L 172.87748 162.422109 
L 173.066961 161.357893 
L 173.161701 154.847398 
L 172.640629 152.155558 
L 171.835334 151.341746 
L 171.551113 149.088113 
L 170.698448 148.2117 
L 170.793188 139.635374 
L 171.266891 135.315911 
L 170.982669 134.001292 
L 170.130005 132.185865 
L 169.32471 131.372053 
L 170.887929 131.998062 
L 171.645853 131.81026 
L 172.545888 130.683443 
L 174.109107 126.489181 
L 175.577585 124.611154 
L 177.898727 124.172947 
L 181.688348 122.920929 
L 183.772639 122.858328 
L 184.577934 123.359136 
L 184.767415 124.798957 
L 184.198972 125.988374 
L 185.004266 126.551782 
L 186.188523 125.612769 
L 188.462295 122.420122 
L 192.583507 117.53725 
L 193.862504 115.408819 
L 195.567834 116.84864 
L 195.236242 117.975456 
L 192.678248 121.668911 
L 195.094131 123.922544 
L 194.146726 126.614383 
L 195.473093 123.67214 
L 199.404825 123.797342 
L 201.015413 123.296535 
L 201.252265 119.790883 
L 202.010189 117.349447 
L 202.104929 115.847025 
L 202.910224 114.469805 
L 203.95237 110.400745 
L 205.657699 107.521103 
L 205.657699 106.519488 
L 206.368253 105.893479 
L 207.505139 103.076438 
L 208.547285 101.761818 
L 210.442095 98.569172 
L 210.915798 96.878947 
L 208.215693 94.938318 
L 207.410398 95.126121 
L 206.936696 96.565942 
L 204.994515 100.760204 
L 205.420848 101.261011 
L 207.931471 102.387828 
L 209.068357 101.135809 
L 209.636801 99.695988 
L 211.105279 97.442355 
L 211.721092 98.381369 
L 211.105279 102.450429 
L 209.58943 107.521103 
L 209.921022 109.33653 
L 210.963168 109.899938 
L 209.068357 109.712135 
L 208.026212 114.1568 
L 207.599879 116.911241 
L 211.578981 118.288461 
L 212.147424 118.977071 
L 215.889675 119.853484 
L 215.652823 121.230704 
L 214.231716 126.927388 
L 214.184345 126.489181 
L 215.273861 123.108732 
L 215.747564 119.916085 
L 214.752788 119.415278 
L 212.100054 118.789268 
L 209.921022 117.975456 
L 207.268288 117.662452 
L 206.652474 119.415278 
L 206.226142 121.668911 
L 204.473442 126.050975 
L 203.099705 131.18425 
L 202.626002 130.683443 
L 201.062784 130.433039 
L 198.883752 129.681828 
L 199.215344 130.120035 
L 201.441746 130.307838 
L 207.884101 131.622457 
L 209.020987 132.060663 
L 211.29476 132.373668 
L 212.479016 132.811874 
L 216.83708 133.87609 
L 218.400298 134.877705 
L 215.747564 137.569544 
L 214.421197 138.070352 
L 209.731541 136.880934 
L 207.363028 136.567929 
L 206.462993 136.004521 
L 206.841955 135.441113 
L 209.115728 126.989989 
L 209.826282 125.925773 
L 210.442095 123.296535 
L 210.915798 120.22909 
L 211.673722 118.476264 
L 212.147424 115.721823 
L 213.000089 113.342988 
L 213.900124 109.148727 
L 214.373826 107.771507 
L 215.463342 101.574016 
L 216.316007 98.068364 
L 216.93182 96.252938 
L 217.737115 94.938318 
L 218.874001 92.246479 
L 220.342479 90.618855 
L 223.421546 84.546566 
L 227.77961 77.910868 
L 229.342828 74.217414 
L 230.195493 72.965396 
L 229.437569 72.58979 
L 228.490164 73.528804 
L 227.021686 72.902795 
L 225.316356 73.341001 
L 223.232065 75.219029 
L 221.195144 78.536877 
L 219.537185 82.918942 
L 217.973966 86.23679 
L 217.926596 85.610781 
L 219.158223 84.045758 
L 220.958292 79.162887 
L 223.895248 75.031226 
L 225.837429 73.2784 
L 226.737464 73.090597 
L 229.153347 73.904409 
L 229.816531 73.841808 
L 230.242863 72.840194 
L 233.037708 71.775978 
L 234.979889 70.273556 
L 236.164145 68.645932 
L 237.06418 66.141895 
L 237.395772 64.514272 
L 237.679994 60.758216 
L 237.585253 58.692386 
L 237.01681 55.437138 
L 236.116775 52.369693 
L 236.258886 50.491666 
L 236.732589 49.302248 
L 243.743387 40.851124 
L 244.501311 38.409688 
L 244.26446 36.281257 
L 243.696017 35.029239 
L 242.369649 33.589417 
L 240.853801 33.08861 
L 242.985463 32.4 
L 243.032833 33.77722 
L 240.948542 33.652018 
L 240.001136 33.965023 
L 238.532658 35.905651 
L 237.774734 37.971482 
L 236.779959 41.477133 
L 236.732589 43.480363 
L 237.348402 46.047 
L 236.92207 48.488436 
L 236.116775 49.615253 
L 236.306256 50.554267 
L 237.348402 48.238033 
L 237.679994 46.67301 
L 237.158921 44.356776 
L 236.637848 43.417762 
L 237.537883 43.29256 
L 240.66432 45.483592 
L 241.895947 45.483592 
L 239.716915 48.613638 
L 240.759061 46.360005 
L 240.522209 45.045386 
L 239.432693 44.66978 
L 240.66432 45.671395 
L 240.66432 46.610409 
L 238.674769 49.928257 
L 237.348402 50.867271 
L 235.074629 50.742069 
L 232.848227 50.241262 
L 231.900822 50.554267 
L 234.932519 50.867271 
L 235.832554 50.554267 
L 237.443142 50.742069 
L 239.669545 51.868886 
L 240.332728 52.557496 
L 241.801206 52.745299 
L 243.838127 51.868886 
L 245.969789 52.369693 
L 247.106675 53.559111 
L 247.580378 55.311936 
L 246.917194 57.502969 
L 247.769859 58.817588 
L 246.254011 62.010235 
L 244.501311 66.204496 
L 244.26446 67.456515 
L 242.606501 71.963781 
L 241.659095 75.782437 
L 240.474839 78.536877 
L 240.143247 80.1019 
L 243.601276 81.41652 
L 244.122349 81.854726 
L 244.027608 83.169345 
L 243.411795 85.172575 
L 243.127573 87.363607 
L 242.653871 88.803428 
L 245.211865 86.8628 
L 246.917194 85.986387 
L 248.906745 85.798584 
L 249.001486 86.23679 
L 247.485637 87.426208 
L 245.780308 89.179034 
L 244.832903 89.179034 
L 246.585602 86.988001 
L 248.764634 85.54818 
L 249.427818 85.861185 
L 245.827678 86.361992 
L 244.880273 86.800199 
L 242.46439 88.553024 
L 242.180168 88.114818 
L 242.985463 85.735983 
L 244.027608 83.983157 
L 244.26446 81.729524 
L 240.285358 80.164501 
L 239.290583 81.040914 
L 239.101101 82.167731 
L 238.390548 82.605937 
L 234.553557 80.665309 
L 234.316705 80.915712 
L 238.248437 82.292933 
L 238.011586 84.734368 
L 236.448367 88.553024 
L 235.264111 90.744057 
L 231.900822 89.366836 
L 231.285009 89.61724 
L 232.658746 90.30585 
L 235.16937 91.119662 
L 232.800857 98.381369 
L 231.948192 103.20164 
L 231.142898 106.018681 
L 228.916496 111.339759 
L 227.87435 111.214557 
L 224.416321 110.150342 
L 221.384625 108.71052 
L 219.631925 108.084511 
L 220.247739 108.64792 
L 223.326805 109.524332 
L 226.02691 110.525947 
L 228.205942 111.590163 
L 228.584904 112.403975 
L 227.87435 113.655993 
L 225.505837 120.855099 
L 223.279435 125.67537 
L 222.095179 129.306223 
L 220.816182 131.935461 
L 219.537185 133.312682 
L 217.263412 136.63053 
L 215.747564 138.070352 
L 214.705418 138.007751 
L 211.578981 137.131338 
L 207.64725 136.442728 
L 203.478667 135.128108 
L 197.794236 133.563085 
L 197.652125 133.312682 
L 198.55216 129.869631 
L 199.215344 129.619227 
L 201.394376 130.245237 
L 204.852404 130.871246 
L 206.747215 131.559856 
L 207.78936 131.497255 
L 210.678946 132.561471 
L 214.94227 133.87609 
L 217.737115 134.376897 
L 222.568881 137.006136 
L 221.716217 139.885778 
L 220.53196 141.513402 
L 219.205593 144.706049 
L 218.589779 144.831251 
L 216.173896 143.328829 
L 213.047459 142.014209 
L 213.094829 141.200397 
L 215.605453 138.070352 
L 216.88445 139.009365 
L 220.152998 140.449186 
L 222.33203 141.889008 
L 225.884799 143.892237 
L 224.795283 147.084884 
L 223.847878 148.462104 
L 222.28466 151.905155 
L 221.100403 153.407577 
L 220.53196 155.223003 
L 221.100403 154.659595 
L 221.905698 152.092957 
L 212.668497 146.646677 
L 211.105279 146.333673 
L 210.584206 147.022283 
L 208.405174 146.646677 
L 206.084031 145.770265 
L 204.04711 145.394659 
L 203.383926 146.14587 
L 203.194445 149.714122 
L 205.231366 149.964526 
L 209.44732 151.153944 
L 208.784136 154.221389 
L 208.263063 155.410806 
L 205.989291 154.659595 
L 203.857629 154.34659 
L 201.536486 153.532779 
L 202.436521 149.401118 
L 201.536486 149.338517 
L 196.846831 147.52309 
L 191.351881 146.584077 
L 191.115029 146.83448 
L 190.688697 149.901925 
L 189.267589 153.783182 
L 189.978143 155.786412 
L 190.025513 157.914843 
L 190.830808 160.544081 
L 191.30451 160.982288 
L 190.593957 164.174935 
L 190.357105 163.361123 
L 190.736067 161.733499 
L 189.978143 159.73027 
L 190.120254 159.041659 
L 190.972919 161.545696 
L 190.925548 162.985517 
L 189.267589 167.93099 
L 188.935998 170.247224 
L 187.657001 175.380499 
L 188.746516 175.505701 
L 191.25714 176.444715 
L 191.872954 177.508931 
L 190.972919 180.764178 
L 191.825583 181.57799 
L 196.136277 183.58122 
L 198.789011 185.334045 
L 201.820708 186.836468 
L 202.19967 187.963284 
L 201.583857 188.651894 
L 199.262714 192.658353 
L 197.557385 196.414408 
L 195.804685 199.043647 
L 195.994166 199.732257 
L 197.652125 200.60867 
L 202.673373 204.05172 
L 202.057559 204.05172 
L 200.636451 213.191454 
L 201.631227 220.515762 
L 202.436521 221.329574 
L 202.436521 218.888138 
L 201.962819 219.263744 
L 203.004964 221.392175 
L 208.499914 224.334418 
L 210.963168 225.398634 
L 211.768462 226.024643 
L 211.721092 227.026258 
L 210.726317 230.156304 
L 210.252614 230.970116 
L 208.310433 232.973345 
L 207.220917 234.413166 
L 204.04711 237.793616 
L 202.578632 241.111464 
L 199.925898 246.24474 
L 199.736416 247.62196 
L 200.068008 252.442231 
L 199.689046 254.007254 
L 199.831157 255.760079 
L 196.988941 261.206359 
L 195.757315 263.146988 
L 193.10458 268.092461 
L 191.25714 271.222507 
L 190.214994 273.47614 
L 188.746516 274.16475 
L 187.799111 275.291566 
L 185.856931 281.238654 
L 183.156826 286.058924 
L 180.31461 291.505204 
L 179.509316 292.506819 
L 175.245993 303.524581 
L 172.97222 310.598485 
L 172.309037 311.787902 
L 170.698448 317.171581 
L 165.62983 331.006384 
L 164.398203 335.012843 
L 162.029691 341.210334 
L 161.555988 342.900559 
L 158.903253 349.974463 
L 158.571662 351.351683 
L 156.44 355.107738 
L 155.303114 357.549174 
L 154.213598 359.114197 
L 152.69775 361.993839 
L 148.813388 367.252316 
L 147.487021 368.629537 
L 145.686951 371.258775 
L 144.644806 372.26039 
L 142.939476 374.701826 
L 141.897331 376.955459 
L 141.092036 377.143262 
L 141.423628 378.082275 
L 138.913004 382.714744 
L 135.502346 388.161023 
L 133.797016 391.729276 
L 129.770544 398.990982 
L 127.307291 403.686051 
L 127.023069 404.499863 
L 125.601962 406.064886 
L 123.944003 409.132331 
L 123.186078 411.010359 
L 121.101787 415.016818 
L 119.064866 418.146864 
L 117.643758 421.214309 
L 113.854137 428.10041 
L 111.864587 431.230456 
L 110.917181 433.484089 
L 108.78552 436.676736 
L 107.790744 436.426332 
L 94.574442 429.665433 
L 89.647935 426.597988 
L 85.242501 424.281754 
L 81.642362 422.591529 
L 79.415959 421.96552 
L 77.473779 421.151708 
L 76.100041 420.024891 
L 74.631563 419.336281 
L 74.06312 419.649286 
L 72.736753 421.840318 
L 70.131389 426.910992 
L 69.089243 431.919066 
L 68.5208 440.870997 
L 67.810246 444.627053 
L 66.531249 448.195305 
L 64.541698 452.264365 
L 64.162736 453.578984 
L 61.936334 457.648044 
L 60.657337 459.338269 
L 56.015052 467.60159 
L 55.63609 468.728406 
L 54.214982 471.169842 
L 53.551798 472.734865 
L 50.993804 477.11693 
L 50.330621 477.993342 
L 49.288475 480.434778 
L 47.677886 483.25182 
L 46.446259 486.256664 
L 45.167262 488.760701 
L 42.751379 491.765545 
L 42.135566 493.580971 
L 41.472382 493.831375 
L 39.719683 497.963036 
L 38.440686 499.966265 
L 38.203834 500.905279 
L 37.066948 502.595504 
L 35.172138 507.353174 
L 33.656289 509.732008 
L 33.182587 510.921426 
L 31.90359 512.236045 
L 28.966634 516.931114 
L 28.161339 517.494522 
L 25.413864 522.565197 
L 22.571649 526.759458 
L 22.097946 528.074078 
L 19.776804 531.141523 
L 18.734658 533.144752 
L 18.876769 533.70816 
L 21.576874 534.960179 
L 22.192687 534.772376 
L 24.60857 536.212197 
L 25.745456 536.4 
L 27.403415 534.021165 
L 29.345596 534.083766 
L 31.761479 535.586188 
L 31.761479 535.586188 
" clip-path="url(#p38fa46281f)" style="fill: none; stroke: #000000; stroke-width: 3"/>
   </g>
  </g>
 </g>
 <defs>
  <clipPath id="p38fa46281f">
   <rect x="7.2" y="7.2" width="253.762476" height="554.4"/>
  </clipPath>
 </defs>
</svg>
