<?xml version="1.0" encoding="utf-8" standalone="no"?>
<!DOCTYPE svg PUBLIC "-//W3C//DTD SVG 1.1//EN"
  "http://www.w3.org/Graphics/SVG/1.1/DTD/svg11.dtd">
<svg xmlns:xlink="http://www.w3.org/1999/xlink" width="572.4pt" height="351.163652pt" viewBox="0 0 572.4 351.163652" xmlns="http://www.w3.org/2000/svg" version="1.1">
 <metadata>
  <rdf:RDF xmlns:dc="http://purl.org/dc/elements/1.1/" xmlns:cc="http://creativecommons.org/ns#" xmlns:rdf="http://www.w3.org/1999/02/22-rdf-syntax-ns#">
   <cc:Work>
    <dc:type rdf:resource="http://purl.org/dc/dcmitype/StillImage"/>
    <dc:date>2023-09-25T14:13:53.052415</dc:date>
    <dc:format>image/svg+xml</dc:format>
    <dc:creator>
     <cc:Agent>
      <dc:title>Matplotlib v3.6.2, https://matplotlib.org/</dc:title>
     </cc:Agent>
    </dc:creator>
   </cc:Work>
  </rdf:RDF>
 </metadata>
 <defs>
  <style type="text/css">*{stroke-linejoin: round; stroke-linecap: butt}</style>
 </defs>
 <g id="figure_1">
  <g id="patch_1">
   <path d="M 0 351.163652 
L 572.4 351.163652 
L 572.4 0 
L 0 0 
z
" style="fill: #ffffff"/>
  </g>
  <g id="axes_1">
   <g id="LineCollection_1">
    <path d="M 32.563636 121.726458 
L 40.685415 117.257133 
L 55.913749 122.620323 
L 77.233416 132.899771 
L 80.955898 129.324311 
L 96.184232 141.391489 
L 110.397344 146.307746 
L 123.595233 157.927992 
L 135.101086 165.078912 
L 147.62216 167.313575 
L 165.896161 182.062348 
L 171.31068 189.213268 
L 176.386791 208.878299 
L 186.200606 223.180139 
L 209.550719 228.990262 
L 216.318867 232.565722 
L 228.163127 233.90652 
L 247.790757 246.42063 
L 256.927758 256.700078 
L 260.65024 266.532594 
L 271.14087 272.789649 
L 285.353981 275.918177 
L 305.996834 286.644557 
L 331.038984 279.493637 
L 350.666614 276.812042 
L 375.031949 282.175232 
L 389.24506 282.175232 
L 398.382061 279.940569 
L 412.93358 268.767256 
L 430.530766 239.716643 
L 443.728655 215.135354 
L 460.310619 191.894863 
L 463.017879 180.72155 
L 476.892583 157.927992 
L 521.223955 76.586273 
L 528.330511 60.496703 
L 529.007326 64.072163 
L 521.223955 81.949464 
L 508.026066 104.29609 
L 491.78251 136.475231 
L 472.154879 168.20744 
L 468.09399 178.486888 
L 442.036618 224.967869 
L 431.207581 246.867563 
L 415.979247 273.683514 
L 409.211098 280.834434 
L 400.074098 283.516029 
L 410.564728 276.365109 
L 415.302432 270.108054 
L 460.987434 187.87247 
L 471.816472 167.313575 
L 501.596325 113.681672 
L 519.531918 77.480138 
L 534.083437 44.407132 
L 535.437067 22.507439 
L 539.159549 27.870629 
L 539.836364 37.703144 
L 536.790697 48.429525 
L 527.653696 65.41296 
L 519.870326 83.290261 
L 513.102177 94.016642 
L 493.812954 132.899771 
L 474.862138 165.525845 
L 453.880878 195.917256 
L 431.884396 237.928912 
L 430.869173 242.84517 
L 414.28721 271.895784 
L 407.519061 278.152839 
L 390.59869 282.622164 
L 373.339911 284.409894 
L 355.742725 282.622164 
L 341.868021 286.197624 
L 347.28254 328.656214 
L 330.362169 289.773085 
L 319.194724 291.113882 
L 291.445315 282.622164 
L 277.232203 275.471244 
L 263.357499 263.404066 
L 251.513239 249.99609 
L 241.699424 242.84517 
L 231.208794 238.375845 
L 223.087016 238.375845 
L 202.105755 233.012655 
L 189.923088 228.096397 
L 184.846977 222.286274 
L 173.002717 195.470323 
L 153.375086 209.325231 
L 133.070641 220.498544 
L 125.28727 228.990262 
L 126.302493 208.431366 
L 121.903196 172.229832 
L 110.735751 154.799464 
L 94.492195 143.626151 
L 75.541379 135.581366 
L 48.130378 118.150998 
L 37.639748 113.681672 
" clip-path="url(#p9e800ba63d)" style="fill: none; stroke: #000000; stroke-width: 3"/>
   </g>
  </g>
 </g>
 <defs>
  <clipPath id="p9e800ba63d">
   <rect x="7.2" y="7.2" width="558" height="336.763652"/>
  </clipPath>
 </defs>
</svg>
