<?xml version="1.0" encoding="utf-8" standalone="no"?>
<!DOCTYPE svg PUBLIC "-//W3C//DTD SVG 1.1//EN"
  "http://www.w3.org/Graphics/SVG/1.1/DTD/svg11.dtd">
<svg xmlns:xlink="http://www.w3.org/1999/xlink" width="319.980756pt" height="568.8pt" viewBox="0 0 319.980756 568.8" xmlns="http://www.w3.org/2000/svg" version="1.1">
 <metadata>
  <rdf:RDF xmlns:dc="http://purl.org/dc/elements/1.1/" xmlns:cc="http://creativecommons.org/ns#" xmlns:rdf="http://www.w3.org/1999/02/22-rdf-syntax-ns#">
   <cc:Work>
    <dc:type rdf:resource="http://purl.org/dc/dcmitype/StillImage"/>
    <dc:date>2023-09-25T14:13:52.715003</dc:date>
    <dc:format>image/svg+xml</dc:format>
    <dc:creator>
     <cc:Agent>
      <dc:title>Matplotlib v3.6.2, https://matplotlib.org/</dc:title>
     </cc:Agent>
    </dc:creator>
   </cc:Work>
  </rdf:RDF>
 </metadata>
 <defs>
  <style type="text/css">*{stroke-linejoin: round; stroke-linecap: butt}</style>
 </defs>
 <g id="figure_1">
  <g id="patch_1">
   <path d="M 0 568.8 
L 319.980756 568.8 
L 319.980756 0 
L 0 0 
z
" style="fill: #ffffff"/>
  </g>
  <g id="axes_1">
   <g id="LineCollection_1">
    <path d="M 35.383836 536.4 
L 33.224652 535.258566 
L 32.317794 534.459563 
L 30.331344 533.318129 
L 28.388078 532.519126 
L 26.444812 530.97819 
L 21.133218 527.839248 
L 21.090034 525.955883 
L 22.342361 524.300804 
L 23.37877 521.78965 
L 24.760648 519.107281 
L 26.012975 517.166844 
L 27.610772 513.856687 
L 30.374528 509.576311 
L 31.108651 507.635874 
L 33.483754 503.241354 
L 34.692897 501.357989 
L 38.23396 495.251319 
L 38.752164 493.881599 
L 40.047675 491.769947 
L 41.343186 488.973434 
L 42.250043 487.717858 
L 45.877473 482.01069 
L 47.259351 478.643461 
L 47.691188 478.243959 
L 49.93674 473.792368 
L 52.614129 468.0852 
L 54.039191 465.916476 
L 55.118783 463.804824 
L 56.414294 462.092674 
L 57.925723 459.467376 
L 60.084908 456.328434 
L 62.114541 452.504631 
L 64.878297 447.824754 
L 68.246625 441.603941 
L 71.701321 436.296274 
L 75.544669 429.561816 
L 77.531119 425.738014 
L 79.560753 421.571781 
L 80.856263 419.460129 
L 81.676753 417.633835 
L 85.606469 411.013521 
L 86.470143 408.445295 
L 87.204266 407.874578 
L 89.104348 404.279062 
L 91.306717 400.626475 
L 92.861329 397.145102 
L 95.538718 393.207157 
L 96.272841 391.723293 
L 98.000189 388.983852 
L 99.122965 386.016125 
L 101.109415 382.591824 
L 102.145823 381.393319 
L 104.391375 377.227086 
L 105.600518 374.316431 
L 106.766478 372.547209 
L 111.171215 364.842532 
L 111.862154 362.959167 
L 112.98493 361.418231 
L 114.064522 359.078292 
L 115.273665 357.366142 
L 116.353258 355.083275 
L 119.030646 350.51754 
L 120.671627 347.207383 
L 121.837586 345.495233 
L 122.873995 343.269437 
L 125.637751 338.58956 
L 128.056038 333.85261 
L 130.128855 330.314166 
L 139.326981 313.592164 
L 144.768127 304.175337 
L 146.193188 301.264681 
L 147.834169 298.468169 
L 150.079721 294.130721 
L 153.966253 286.825546 
L 156.557274 282.54517 
L 159.493765 276.895074 
L 161.65295 273.128343 
L 162.47344 271.073763 
L 164.805359 267.364104 
L 166.403156 264.16809 
L 167.439565 262.684226 
L 170.116953 257.37656 
L 171.36928 255.550266 
L 173.398914 252.011822 
L 173.485281 251.212818 
L 175.558099 248.130948 
L 177.674099 244.078859 
L 180.524223 238.942407 
L 181.949285 236.65954 
L 185.576715 229.86801 
L 187.260879 226.957355 
L 188.038185 225.302276 
L 189.333696 223.304767 
L 190.974676 219.99461 
L 192.011085 218.453675 
L 193.565698 215.600091 
L 194.515739 214.23037 
L 195.983985 211.034356 
L 198.056802 207.838342 
L 200.172803 203.786253 
L 202.202436 200.533167 
L 206.218519 192.999706 
L 206.909458 191.173412 
L 207.989051 190.08905 
L 209.414113 186.778893 
L 210.925542 184.267739 
L 213.47338 179.530789 
L 215.762115 175.592843 
L 218.957708 169.71446 
L 219.519096 168.287668 
L 221.160077 165.377013 
L 223.837466 161.267852 
L 224.701139 159.441558 
L 227.464896 154.875824 
L 227.9831 153.506103 
L 231.826448 146.771645 
L 232.474204 146.771645 
L 233.25151 147.798936 
L 234.460654 151.508595 
L 234.201551 151.67981 
L 233.121959 148.312581 
L 232.258285 147.057004 
L 233.035592 147.057004 
L 233.942449 148.198437 
L 234.978858 146.372144 
L 236.015266 145.630212 
L 237.569879 143.004915 
L 238.0449 142.605413 
L 238.951758 140.664976 
L 240.592738 139.181112 
L 241.197309 139.066969 
L 242.579188 137.75432 
L 242.751922 136.841173 
L 243.572412 135.357309 
L 243.054208 134.387091 
L 243.097392 133.017371 
L 243.529229 131.476435 
L 244.522454 130.677432 
L 244.652005 129.707213 
L 245.429311 129.364783 
L 245.817964 128.451636 
L 245.472495 126.967773 
L 245.731597 125.255622 
L 245.688413 122.516182 
L 245.342944 121.603035 
L 245.688413 120.347458 
L 245.472495 117.265587 
L 244.867923 115.211007 
L 243.745147 112.756924 
L 243.31331 112.471566 
L 243.788331 114.29786 
L 243.140576 114.697362 
L 242.924657 115.66758 
L 243.745147 116.866085 
L 243.31331 117.322659 
L 242.406453 116.751942 
L 241.585963 117.779232 
L 243.399678 122.344967 
L 243.31331 123.029827 
L 241.456412 123.372257 
L 239.68588 121.603035 
L 239.944982 122.287895 
L 239.254043 122.573253 
L 237.483512 121.146461 
L 234.762939 120.861103 
L 233.683347 121.203533 
L 232.085551 122.173752 
L 230.530938 124.970264 
L 228.717223 126.682414 
L 224.960241 128.337493 
L 225.392078 126.739486 
L 227.378528 124.799049 
L 228.760406 123.086898 
L 229.839999 120.861103 
L 230.487754 118.007519 
L 231.955999 115.895867 
L 235.497062 112.985211 
L 237.181226 110.588201 
L 239.21086 106.022466 
L 238.606288 103.340097 
L 247.027108 99.173865 
L 248.45217 98.717291 
L 250.740905 96.605639 
L 251.690946 95.977851 
L 254.800172 95.178847 
L 256.959357 94.208629 
L 258.384419 94.322772 
L 259.377644 96.719783 
L 259.895848 96.776854 
L 258.729888 94.836417 
L 256.397969 90.270683 
L 254.238784 86.44688 
L 252.165967 81.652859 
L 250.56817 78.456845 
L 248.538537 73.891111 
L 244.954291 66.471793 
L 243.140576 63.104563 
L 242.449637 62.762133 
L 240.722289 63.446994 
L 238.994941 64.474284 
L 236.101634 65.729861 
L 235.324327 66.243506 
L 233.035592 68.526373 
L 231.221877 70.580953 
L 231.221877 71.437029 
L 233.165143 74.290613 
L 234.719756 76.23105 
L 233.942449 77.201268 
L 228.846774 79.769494 
L 227.594447 79.997781 
L 225.17616 79.541207 
L 224.442037 78.913419 
L 225.564813 76.288121 
L 225.219344 75.260831 
L 221.937383 71.437029 
L 218.74179 68.012728 
L 216.75534 65.672789 
L 213.171094 62.020202 
L 212.350604 60.992911 
L 211.48693 58.881259 
L 214.034768 62.819205 
L 215.027992 63.732352 
L 215.93485 65.273287 
L 217.532647 66.814223 
L 222.973792 72.635534 
L 225.046609 75.089616 
L 225.607997 76.002763 
L 224.571588 77.886128 
L 224.398854 78.685132 
L 225.262527 79.198777 
L 228.199018 79.541207 
L 229.019508 79.883637 
L 229.96955 81.196286 
L 232.258285 86.275665 
L 234.762939 90.613113 
L 235.410695 90.613113 
L 236.965308 89.699966 
L 240.85184 87.930744 
L 246.292985 85.07716 
L 250.654538 83.02258 
L 255.879765 80.340211 
L 256.829806 79.997781 
L 260.716338 77.9432 
L 264.775605 75.945691 
L 266.287034 75.374975 
L 272.591853 72.121889 
L 273.239608 71.265814 
L 272.67822 70.752168 
L 269.957648 69.268305 
L 268.2303 68.0698 
L 263.091441 65.273287 
L 262.573237 64.759642 
L 261.882298 65.273287 
L 263.566462 68.640516 
L 263.436911 69.553663 
L 260.457236 71.037527 
L 258.600337 72.521391 
L 260.370868 71.4941 
L 264.214217 69.839022 
L 264.12785 70.181452 
L 265.941565 73.035036 
L 266.632504 75.374975 
L 268.618954 79.084634 
L 267.539361 81.082142 
L 266.071116 82.109433 
L 265.034707 83.250866 
L 266.805238 82.508934 
L 265.941565 84.449372 
L 264.473319 86.503952 
L 263.350543 89.528751 
L 262.270951 91.069686 
L 260.50042 92.610622 
L 258.773072 93.752055 
L 257.607112 92.55355 
L 255.534295 88.044887 
L 255.793397 87.188812 
L 258.816256 85.876164 
L 261.752747 84.221085 
L 262.573237 83.992798 
L 265.380177 82.394791 
L 266.891606 81.995289 
L 267.884831 80.625569 
L 269.568995 77.429555 
L 270.432669 76.57348 
L 271.425893 74.918401 
L 273.110057 71.551172 
L 274.103282 70.238523 
L 274.880589 68.526373 
L 274.966956 67.499083 
L 273.455527 66.414721 
L 270.907689 65.273287 
L 268.618954 63.960639 
L 267.40981 63.047492 
L 267.496178 62.476775 
L 270.907689 60.308051 
L 274.880589 58.082256 
L 276.262467 58.481757 
L 279.198958 60.193908 
L 278.810305 61.791915 
L 277.687529 62.933348 
L 276.99659 63.161635 
L 275.48516 62.248488 
L 273.239608 61.335341 
L 271.555445 60.136836 
L 271.080424 60.193908 
L 274.491936 62.191417 
L 277.169324 63.33285 
L 278.896672 61.049983 
L 280.62402 57.796897 
L 280.883122 56.826679 
L 278.810305 55.628173 
L 278.853488 54.772098 
L 280.27855 53.002876 
L 281.746796 51.747299 
L 283.474143 52.546303 
L 285.331042 53.858951 
L 287.447043 54.886242 
L 290.34035 56.712535 
L 292.067698 57.454467 
L 296.645169 60.079764 
L 293.924597 58.367614 
L 291.549494 57.226181 
L 293.795046 52.660446 
L 292.67227 55.228672 
L 290.297167 59.280761 
L 289.088023 60.878768 
L 289.51986 61.27827 
L 294.701903 63.846495 
L 292.369984 62.476775 
L 291.419943 62.134345 
L 286.108349 58.995403 
L 282.049082 56.826679 
L 281.271775 55.970604 
L 280.105815 55.628173 
L 279.155774 54.657955 
L 279.501244 53.916023 
L 280.969489 52.260944 
L 285.633328 47.980568 
L 288.440268 45.697701 
L 289.131207 44.784554 
L 289.51986 43.300691 
L 290.513085 42.216329 
L 291.549494 40.56125 
L 296.645169 34.226294 
L 298.156598 32.74243 
L 298.890721 32.4 
L 295.651944 36.737448 
L 294.485985 37.650594 
L 292.931372 39.476888 
L 291.592677 40.504178 
L 288.656186 43.928479 
L 286.281083 46.040131 
L 286.281083 46.382561 
L 288.224349 44.099694 
L 290.167616 41.360254 
L 291.074473 40.789537 
L 292.845004 38.563741 
L 294.226883 37.251093 
L 295.608761 35.310656 
L 296.213332 35.196512 
L 298.415701 32.799502 
L 298.242966 33.598505 
L 296.77472 35.310656 
L 295.565577 37.251093 
L 292.413167 40.332963 
L 291.419943 41.131967 
L 289.51986 43.471906 
L 282.221816 51.062439 
L 283.90598 49.179074 
L 281.833163 51.176582 
L 279.026223 54.201381 
L 275.182875 57.226181 
L 268.316668 61.96313 
L 267.668912 62.020202 
L 264.12785 63.846495 
L 261.234542 64.987929 
L 263.393727 67.727369 
L 264.646054 70.010237 
L 266.632504 74.062326 
L 264.775605 75.089616 
L 264.257401 75.831548 
L 261.061808 77.543698 
L 259.80948 77.829057 
L 258.816256 78.513917 
L 255.404744 80.340211 
L 252.640988 82.052361 
L 253.245559 84.164013 
L 254.670621 86.332737 
L 255.750213 89.471679 
L 257.650296 92.610622 
L 256.397969 93.181338 
L 254.670621 94.493987 
L 253.202376 96.434424 
L 251.388661 97.575858 
L 249.877231 97.518786 
L 248.884007 98.146575 
L 246.94074 98.774363 
L 245.256576 99.915797 
L 242.622371 100.771872 
L 241.456412 101.685019 
L 240.463187 101.627947 
L 239.556329 102.312807 
L 240.463187 103.283026 
L 239.858615 101.171374 
L 239.469962 103.511312 
L 239.297227 106.250753 
L 237.569879 110.359914 
L 236.533471 112.072064 
L 234.719756 114.240788 
L 232.474204 115.952939 
L 231.135509 117.208515 
L 230.574121 118.235806 
L 230.055917 121.203533 
L 229.451345 122.80154 
L 227.63763 125.084407 
L 225.392078 126.910701 
L 224.614772 128.22335 
L 224.35567 129.535998 
L 222.412404 133.645159 
L 220.685056 136.784101 
L 219.735015 138.895754 
L 218.482688 140.493761 
L 215.978034 145.23071 
L 215.416646 147.228219 
L 217.014442 148.426724 
L 220.598689 149.682301 
L 224.226119 151.622738 
L 226.860324 153.563175 
L 226.773957 154.476322 
L 225.348895 157.158691 
L 224.312486 159.612773 
L 223.103343 161.439067 
L 221.20326 164.977511 
L 220.425954 165.890658 
L 218.612239 168.744242 
L 215.330278 175.079198 
L 210.752807 183.29752 
L 209.241378 186.436462 
L 207.082193 189.803692 
L 203.670682 196.19572 
L 200.820558 201.103884 
L 198.704557 205.270117 
L 196.28627 209.379278 
L 195.768066 210.748998 
L 194.861209 212.061646 
L 192.529289 216.284951 
L 191.924718 217.654671 
L 189.160961 222.277477 
L 187.649532 225.416419 
L 187.174512 225.701778 
L 186.181287 227.927573 
L 182.899326 233.805956 
L 180.265121 238.257547 
L 179.487814 240.026769 
L 177.199079 244.021787 
L 176.378589 245.848081 
L 173.398914 250.92746 
L 172.53524 252.810826 
L 171.455648 254.580048 
L 171.282913 255.721481 
L 170.591974 256.6917 
L 165.021278 266.165598 
L 163.466665 269.532828 
L 161.912052 272.272268 
L 160.789276 273.128343 
L 160.573358 274.098562 
L 158.327806 278.378938 
L 149.431965 294.41608 
L 146.538658 299.324244 
L 144.552208 303.148047 
L 141.874819 307.999139 
L 140.881594 309.425931 
L 140.277023 310.852723 
L 138.592859 313.649236 
L 137.383715 316.046246 
L 133.065346 323.750923 
L 131.899387 326.319148 
L 130.085671 329.286876 
L 128.531059 332.197531 
L 127.235548 334.252112 
L 122.139872 343.840154 
L 120.887545 345.723519 
L 118.857912 349.718537 
L 117.346482 352.229691 
L 115.878237 355.25449 
L 114.928196 356.738354 
L 113.675869 359.534866 
L 112.725828 361.018729 
L 109.83252 366.554682 
L 108.018805 369.351195 
L 105.298233 374.430574 
L 104.434559 375.800294 
L 103.484518 377.969018 
L 102.016272 380.480172 
L 100.893496 382.021107 
L 100.11619 383.847401 
L 97.050148 389.040924 
L 95.495535 392.179866 
L 94.372759 394.120303 
L 92.947697 397.430461 
L 91.824921 399.485041 
L 89.320267 403.308844 
L 85.433735 410.271589 
L 85.088265 411.127664 
L 82.799529 414.72318 
L 80.251692 419.574272 
L 79.30165 421.628853 
L 77.703854 424.539509 
L 73.040015 432.586615 
L 71.614953 435.554343 
L 71.528586 436.638705 
L 72.478627 437.665995 
L 75.026465 439.092787 
L 78.265242 440.633722 
L 80.294875 441.832227 
L 83.317734 443.087804 
L 82.842713 445.028241 
L 80.683528 448.737901 
L 76.667445 456.100147 
L 75.458302 458.896659 
L 69.283034 470.310995 
L 63.582787 480.241468 
L 60.559928 486.119851 
L 59.739438 487.432499 
L 58.098458 490.742657 
L 55.809722 494.680602 
L 54.255109 497.819545 
L 52.570945 500.444842 
L 50.454945 504.611075 
L 49.764005 505.410078 
L 49.029883 507.008085 
L 47.777556 508.891451 
L 47.345719 509.975812 
L 45.704738 512.544038 
L 40.349961 523.387657 
L 39.529471 524.357876 
L 38.449878 526.241241 
L 37.370286 527.55389 
L 35.556571 530.236259 
L 31.713222 528.695323 
L 30.892732 527.89632 
L 29.079017 527.496818 
L 28.258527 526.754886 
L 23.335586 523.844231 
L 22.083259 523.901302 
L 21.435504 525.213951 
L 21.608239 526.184169 
L 22.385545 525.727596 
L 21.219585 525.156879 
L 22.55828 524.700306 
L 25.797057 526.012954 
L 27.092567 526.754886 
L 28.388078 527.040245 
L 33.095101 529.208968 
L 34.908816 530.179187 
L 35.211101 531.149406 
L 33.872407 534.060061 
L 33.872407 535.144423 
L 35.038367 535.772212 
L 36.463428 536.05757 
L 36.463428 536.05757 
" clip-path="url(#p7c8b10d6f0)" style="fill: none; stroke: #000000; stroke-width: 3"/>
   </g>
  </g>
 </g>
 <defs>
  <clipPath id="p7c8b10d6f0">
   <rect x="7.2" y="7.2" width="305.580756" height="554.4"/>
  </clipPath>
 </defs>
</svg>
