<?xml version="1.0" encoding="utf-8" standalone="no"?>
<!DOCTYPE svg PUBLIC "-//W3C//DTD SVG 1.1//EN"
  "http://www.w3.org/Graphics/SVG/1.1/DTD/svg11.dtd">
<svg xmlns:xlink="http://www.w3.org/1999/xlink" width="332.903056pt" height="568.8pt" viewBox="0 0 332.903056 568.8" xmlns="http://www.w3.org/2000/svg" version="1.1">
 <metadata>
  <rdf:RDF xmlns:dc="http://purl.org/dc/elements/1.1/" xmlns:cc="http://creativecommons.org/ns#" xmlns:rdf="http://www.w3.org/1999/02/22-rdf-syntax-ns#">
   <cc:Work>
    <dc:type rdf:resource="http://purl.org/dc/dcmitype/StillImage"/>
    <dc:date>2023-09-25T14:13:52.651708</dc:date>
    <dc:format>image/svg+xml</dc:format>
    <dc:creator>
     <cc:Agent>
      <dc:title>Matplotlib v3.6.2, https://matplotlib.org/</dc:title>
     </cc:Agent>
    </dc:creator>
   </cc:Work>
  </rdf:RDF>
 </metadata>
 <defs>
  <style type="text/css">*{stroke-linejoin: round; stroke-linecap: butt}</style>
 </defs>
 <g id="figure_1">
  <g id="patch_1">
   <path d="M 0 568.8 
L 332.903056 568.8 
L 332.903056 0 
L 0 0 
z
" style="fill: #ffffff"/>
  </g>
  <g id="axes_1">
   <g id="LineCollection_1">
    <path d="M 52.368182 533.92848 
L 47.428886 531.773821 
L 39.228696 526.894153 
L 38.749152 526.070313 
L 40.619371 522.394719 
L 41.290732 520.366805 
L 42.585499 519.289476 
L 43.544585 517.388306 
L 44.407763 516.374349 
L 45.942302 513.395851 
L 47.716612 509.149906 
L 49.347059 506.298152 
L 49.586831 503.636515 
L 51.936593 499.453942 
L 56.300436 493.116711 
L 57.45134 492.356243 
L 59.657239 488.110298 
L 61.143824 486.272501 
L 63.925175 479.998642 
L 66.179028 476.069559 
L 68.52879 471.380008 
L 72.125365 465.232893 
L 73.132406 463.204979 
L 75.194442 459.719502 
L 78.071701 455.536929 
L 79.558286 452.304942 
L 82.387591 447.298529 
L 84.065992 443.876424 
L 87.374841 438.55315 
L 88.525745 436.08163 
L 89.628694 434.307205 
L 92.505954 428.730441 
L 95.143442 425.11822 
L 96.198437 422.836816 
L 99.363423 417.323425 
L 103.199769 409.528631 
L 104.54249 407.437344 
L 107.036115 402.494304 
L 109.337923 398.691965 
L 109.721558 397.551264 
L 111.927457 394.509393 
L 113.414041 391.404149 
L 114.277219 389.186118 
L 116.387209 385.827386 
L 116.626981 384.940174 
L 118.353337 382.848887 
L 119.312423 380.694229 
L 121.422414 376.765145 
L 122.333546 375.497699 
L 124.059902 372.392456 
L 125.450577 369.160468 
L 126.985116 366.942437 
L 130.437828 360.605206 
L 131.828503 358.323802 
L 133.698722 354.521464 
L 135.23326 352.176688 
L 137.295296 348.184232 
L 138.302337 346.790041 
L 142.474364 338.551641 
L 143.529359 337.15745 
L 144.5364 335.192908 
L 148.948198 327.334742 
L 152.113184 321.187627 
L 153.599768 318.969596 
L 156.668845 313.456205 
L 159.929739 307.118974 
L 162.279501 302.999774 
L 164.005857 299.577669 
L 166.547437 295.014862 
L 168.753336 291.592757 
L 171.438778 286.269483 
L 174.459901 281.136326 
L 175.323079 279.235157 
L 177.289206 275.939796 
L 178.823745 272.771181 
L 181.796913 268.018257 
L 186.400528 259.146134 
L 187.74325 257.181592 
L 189.757331 253.442625 
L 191.867322 249.069936 
L 193.641632 246.408299 
L 195.320033 242.60596 
L 196.758663 240.071068 
L 198.149339 238.169898 
L 200.690918 233.480347 
L 202.657046 230.311731 
L 203.903858 227.26986 
L 205.91794 223.721011 
L 208.315656 219.918672 
L 211.672459 213.898303 
L 213.878358 209.398868 
L 216.467892 205.026179 
L 217.283116 202.934892 
L 217.858568 202.427914 
L 219.297197 199.512788 
L 222.126503 195.076726 
L 223.325361 192.478461 
L 224.620128 190.26043 
L 227.257616 185.190645 
L 229.991013 180.691211 
L 230.902145 178.726669 
L 232.916227 176.128404 
L 234.306902 173.149906 
L 236.848481 168.396982 
L 238.958472 164.848133 
L 240.445056 161.806262 
L 244.665037 154.581818 
L 246.487301 151.032969 
L 249.316607 146.40679 
L 252.625455 140.006186 
L 251.618414 138.485251 
L 247.110708 135.760241 
L 245.000717 134.682912 
L 233.39577 128.345681 
L 230.806236 126.634628 
L 228.216702 125.30381 
L 225.051717 124.099736 
L 222.414229 123.466013 
L 216.851527 121.18461 
L 218.002431 118.713089 
L 218.242202 116.495058 
L 219.584923 115.354357 
L 219.44106 113.643304 
L 219.920604 111.61539 
L 219.968558 108.890381 
L 220.448101 107.622935 
L 222.749909 97.673482 
L 222.845818 96.215919 
L 223.804904 93.807771 
L 223.852859 92.793814 
L 225.099671 89.878687 
L 227.449433 85.56937 
L 230.038967 83.858318 
L 229.943058 82.400754 
L 231.477597 78.661788 
L 232.868272 76.697246 
L 233.635541 74.986194 
L 235.122126 72.894908 
L 236.081212 69.789664 
L 237.471888 68.078612 
L 238.191203 68.078612 
L 238.287111 67.064655 
L 237.136207 68.268729 
L 237.759614 68.268729 
L 238.958472 67.254772 
L 239.773695 67.444889 
L 241.548006 66.557676 
L 240.732782 69.916409 
L 241.787777 66.811166 
L 243.993676 66.11407 
L 246.343438 63.769295 
L 248.165703 61.234402 
L 248.453429 60.157073 
L 251.954095 55.9745 
L 252.241821 58.572765 
L 250.323648 63.072199 
L 249.652287 65.353602 
L 249.652287 66.684421 
L 250.755237 69.282686 
L 252.337729 69.726292 
L 250.995008 68.83908 
L 251.282734 68.332101 
L 252.913181 67.951867 
L 254.495674 67.064655 
L 257.372934 65.860581 
L 261.736778 63.579178 
L 264.326311 62.501848 
L 268.498338 60.34719 
L 274.204903 57.62218 
L 277.561706 55.784383 
L 281.92555 54.200075 
L 283.939632 52.615768 
L 285.042581 52.298906 
L 287.728023 50.714598 
L 289.694151 50.587854 
L 293.146862 49.193663 
L 304.943627 42.856432 
L 307.245435 40.89189 
L 307.62907 39.624444 
L 308.971791 37.59653 
L 309.547243 35.822105 
L 311.225644 33.033723 
L 311.033827 32.4 
L 310.410421 34.364542 
L 308.060659 39.180837 
L 305.854759 42.412825 
L 304.41613 43.236665 
L 304.559993 44.884346 
L 303.31318 46.848887 
L 301.442961 50.587854 
L 298.182067 55.9745 
L 296.743437 58.69951 
L 296.743437 59.713467 
L 298.805473 60.790796 
L 297.654569 59.776839 
L 296.407757 60.0937 
L 293.33868 64.783252 
L 290.845055 69.282686 
L 291.756187 69.66292 
L 291.516415 70.993738 
L 292.379593 74.796077 
L 292.187776 77.837948 
L 292.859137 81.006564 
L 292.571411 83.731573 
L 293.003 86.39321 
L 292.763228 89.435081 
L 290.940963 95.962429 
L 286.097576 104.074085 
L 284.850764 106.545605 
L 281.733732 112.058997 
L 277.130117 121.18461 
L 274.39672 125.810788 
L 275.979213 122.5788 
L 277.513752 120.36077 
L 279.671696 115.924708 
L 284.563038 107.179329 
L 286.289394 103.503734 
L 289.79006 97.610109 
L 291.084826 94.694983 
L 292.427548 89.815315 
L 292.763228 86.266465 
L 292.283685 83.794945 
L 292.475502 80.246096 
L 291.90005 78.344926 
L 291.708233 76.507129 
L 291.660278 72.387929 
L 290.988918 71.3106 
L 289.598242 70.803621 
L 288.159612 68.268729 
L 287.344389 66.304187 
L 287.680069 66.177442 
L 288.68711 68.205356 
L 287.680069 67.191399 
L 286.529165 67.128027 
L 284.610992 63.262316 
L 282.165321 65.226858 
L 280.726692 65.860581 
L 279.863514 65.733836 
L 280.007377 64.529762 
L 281.781687 61.804753 
L 281.685778 58.382648 
L 282.788728 59.903584 
L 283.795769 60.34719 
L 283.508043 61.107657 
L 284.323266 61.804753 
L 284.898718 63.325688 
L 285.761896 64.086156 
L 285.378261 64.529762 
L 285.905759 66.304187 
L 285.234398 68.395473 
L 286.193485 69.916409 
L 285.905759 70.740249 
L 284.898718 69.916409 
L 285.090535 70.866994 
L 284.323266 70.550132 
L 283.69986 69.346058 
L 284.179403 66.874538 
L 282.644865 65.543719 
L 281.446006 67.001283 
L 280.870555 66.621049 
L 279.240107 67.318144 
L 277.753523 68.775707 
L 276.123076 69.155941 
L 275.787396 69.789664 
L 277.417843 68.902452 
L 278.808518 68.522218 
L 279.096244 67.508261 
L 280.630783 69.472803 
L 279.767605 69.346058 
L 278.856473 70.169898 
L 279.623742 70.930366 
L 281.254189 70.740249 
L 282.59691 71.120483 
L 283.795769 72.197812 
L 283.939632 73.78212 
L 284.467129 73.78212 
L 284.563038 72.387929 
L 285.282353 73.338514 
L 286.145531 71.817578 
L 287.056663 73.211769 
L 287.919841 70.740249 
L 288.878927 73.148397 
L 288.543247 74.225726 
L 289.166653 75.936779 
L 288.255521 74.986194 
L 288.543247 72.768163 
L 288.303475 71.500717 
L 289.262562 72.768163 
L 288.926882 73.338514 
L 288.35143 71.057111 
L 288.111658 72.704791 
L 287.440297 73.275141 
L 286.57712 72.197812 
L 284.850764 73.845492 
L 285.713942 75.303055 
L 286.049622 78.028065 
L 285.665987 79.295511 
L 285.953713 81.386797 
L 285.618033 83.414711 
L 284.37122 86.139721 
L 285.47417 85.505998 
L 285.13849 88.04089 
L 284.083494 91.969974 
L 284.467129 88.674613 
L 285.090535 87.787401 
L 285.234398 86.519955 
L 284.131449 87.660656 
L 284.179403 85.949604 
L 285.426216 83.731573 
L 284.563038 82.907733 
L 283.939632 83.604828 
L 283.36418 85.505998 
L 282.59691 86.646699 
L 282.501002 88.928103 
L 281.733732 91.653112 
L 280.774646 92.983931 
L 281.302143 94.188005 
L 283.220317 88.928103 
L 284.802809 87.724029 
L 284.706901 88.484496 
L 283.69986 88.231007 
L 281.589869 93.300792 
L 280.534874 93.110675 
L 278.424884 96.152546 
L 277.27398 96.215919 
L 275.451715 98.814183 
L 273.629451 102.172916 
L 268.642201 110.918295 
L 267.107662 112.43923 
L 263.702905 118.713089 
L 262.935636 119.663674 
L 261.976549 121.75496 
L 259.339061 126.064278 
L 258.667701 128.092192 
L 257.133162 131.007318 
L 254.975217 134.429423 
L 253.824314 136.900943 
L 252.721364 138.421879 
L 251.810232 138.358506 
L 245.14458 134.746284 
L 239.629832 131.514296 
L 238.910518 131.260807 
L 231.429642 126.761373 
L 224.524219 123.782874 
L 222.174457 123.022407 
L 218.338111 121.311354 
L 216.419938 120.804376 
L 211.24087 118.776462 
L 208.411565 118.206111 
L 203.951812 118.522972 
L 202.033639 117.445643 
L 200.307283 115.544474 
L 202.273411 112.629347 
L 202.513183 111.61539 
L 201.410233 110.79155 
L 196.231166 117.128782 
L 194.744581 119.853791 
L 193.305952 121.501471 
L 191.675504 122.388684 
L 191.004144 121.564843 
L 192.682545 119.853791 
L 193.162089 118.586345 
L 192.490728 116.81192 
L 191.339824 116.685175 
L 188.702336 118.142739 
L 184.482355 119.410185 
L 183.379406 120.677631 
L 181.557141 123.402641 
L 178.967607 128.916032 
L 177.864658 133.035232 
L 177.720795 137.661411 
L 177.672841 143.618408 
L 178.583973 144.949227 
L 178.823745 146.153301 
L 180.118511 148.371332 
L 180.454192 151.730064 
L 180.21442 154.518446 
L 180.166466 158.003923 
L 180.406237 161.933006 
L 180.070557 167.953376 
L 180.166466 172.072576 
L 178.727836 173.910373 
L 177.241252 173.910373 
L 176.090348 174.670841 
L 175.466942 175.684798 
L 174.220129 178.980158 
L 173.308997 182.148774 
L 172.062184 184.430177 
L 171.870367 186.014485 
L 170.671509 189.43659 
L 169.568559 191.717993 
L 169.424696 194.252886 
L 168.897199 195.773821 
L 167.410614 198.118597 
L 167.218797 200.526745 
L 166.643345 203.125009 
L 166.163802 204.075594 
L 165.876076 206.610487 
L 165.012898 209.272124 
L 164.629263 211.553527 
L 163.81404 213.327952 
L 163.670177 214.785515 
L 162.71109 219.221577 
L 161.991775 221.883214 
L 161.032689 226.69951 
L 157.867703 232.403018 
L 157.244297 235.508261 
L 156.620891 237.155941 
L 154.462946 240.387929 
L 154.17522 242.098982 
L 152.544773 244.633874 
L 149.140015 251.731573 
L 147.74934 254.139721 
L 143.43345 262.821728 
L 143.145724 264.596152 
L 143.481405 266.243833 
L 145.063898 269.095587 
L 146.742299 270.55315 
L 146.838208 272.327575 
L 140.843917 280.946209 
L 139.021652 283.100868 
L 132.643727 291.592757 
L 128.327837 297.676499 
L 126.409664 299.767786 
L 124.203765 302.746284 
L 122.765135 305.661411 
L 121.038779 308.449793 
L 119.93583 308.006186 
L 119.600149 308.766654 
L 115.044488 314.216673 
L 113.222224 317.321916 
L 109.385878 323.215541 
L 105.885212 327.968465 
L 103.775221 330.059751 
L 101.952957 332.341154 
L 97.924793 337.727801 
L 95.191396 341.847001 
L 92.505954 346.346435 
L 89.24506 353.0639 
L 88.573699 355.028442 
L 87.326887 357.056356 
L 86.751435 358.767409 
L 84.545536 361.872652 
L 77.688067 375.117465 
L 76.489209 377.905847 
L 73.276269 384.116333 
L 72.173319 387.03146 
L 69.344014 391.530894 
L 67.617658 395.079743 
L 63.589494 402.11407 
L 62.486545 403.698378 
L 61.047915 406.676877 
L 59.609285 408.95828 
L 58.266564 411.619917 
L 52.368182 421.505998 
L 51.505004 423.407167 
L 48.004338 429.871143 
L 46.709571 432.53278 
L 42.82527 439.630479 
L 40.859143 443.622935 
L 35.632121 452.938665 
L 33.042587 458.261939 
L 31.316232 461.177065 
L 28.055337 467.641041 
L 26.76057 469.668955 
L 25.273986 472.647454 
L 21.677412 479.364919 
L 23.787402 478.85794 
L 25.273986 479.808525 
L 25.321941 480.822482 
L 23.787402 482.089928 
L 23.54763 483.737608 
L 24.266945 485.448661 
L 25.849438 484.751565 
L 29.014424 485.195172 
L 29.781693 486.019012 
L 29.829647 487.666692 
L 30.357145 488.870766 
L 33.857811 491.532403 
L 35.440304 493.053338 
L 38.077792 494.19404 
L 36.591208 496.792305 
L 36.351436 497.996379 
L 41.146869 501.228367 
L 41.530503 502.622558 
L 40.283691 505.601056 
L 38.509381 508.959789 
L 37.022797 513.839457 
L 34.673035 517.071445 
L 34.337354 517.958657 
L 34.577126 519.162731 
L 36.974842 520.49355 
L 40.3796 521.697624 
L 41.338686 522.394719 
L 42.873225 522.774953 
L 45.510713 524.549378 
L 49.586831 526.070313 
L 51.121369 527.464504 
L 52.847725 528.605206 
L 54.574081 529.112184 
L 55.053624 529.936024 
L 54.622035 531.520332 
L 53.375222 533.801735 
L 53.950674 534.688948 
L 56.923843 536.4 
L 56.923843 536.4 
" clip-path="url(#pfff3f963f5)" style="fill: none; stroke: #000000; stroke-width: 3"/>
   </g>
  </g>
 </g>
 <defs>
  <clipPath id="pfff3f963f5">
   <rect x="7.2" y="7.2" width="318.503056" height="554.4"/>
  </clipPath>
 </defs>
</svg>
