<?xml version="1.0" encoding="utf-8" standalone="no"?>
<!DOCTYPE svg PUBLIC "-//W3C//DTD SVG 1.1//EN"
  "http://www.w3.org/Graphics/SVG/1.1/DTD/svg11.dtd">
<svg xmlns:xlink="http://www.w3.org/1999/xlink" width="255.001058pt" height="568.8pt" viewBox="0 0 255.001058 568.8" xmlns="http://www.w3.org/2000/svg" version="1.1">
 <metadata>
  <rdf:RDF xmlns:dc="http://purl.org/dc/elements/1.1/" xmlns:cc="http://creativecommons.org/ns#" xmlns:rdf="http://www.w3.org/1999/02/22-rdf-syntax-ns#">
   <cc:Work>
    <dc:type rdf:resource="http://purl.org/dc/dcmitype/StillImage"/>
    <dc:date>2023-09-25T14:13:51.828390</dc:date>
    <dc:format>image/svg+xml</dc:format>
    <dc:creator>
     <cc:Agent>
      <dc:title>Matplotlib v3.6.2, https://matplotlib.org/</dc:title>
     </cc:Agent>
    </dc:creator>
   </cc:Work>
  </rdf:RDF>
 </metadata>
 <defs>
  <style type="text/css">*{stroke-linejoin: round; stroke-linecap: butt}</style>
 </defs>
 <g id="figure_1">
  <g id="patch_1">
   <path d="M 0 568.8 
L 255.001058 568.8 
L 255.001058 0 
L 0 0 
z
" style="fill: #ffffff"/>
  </g>
  <g id="axes_1">
   <g id="LineCollection_1">
    <path d="M 121.543388 32.4 
L 123.566568 33.142049 
L 141.437991 43.233922 
L 145.259553 38.781625 
L 146.495941 34.774558 
L 148.406722 34.180919 
L 152.67788 36.407067 
L 159.871408 38.484806 
L 163.805369 40.265724 
L 169.537713 44.124382 
L 174.595663 48.576678 
L 178.979219 51.544876 
L 198.873822 59.262191 
L 202.920182 61.191519 
L 209.439318 65.792226 
L 211.912093 70.244523 
L 214.384869 80.336396 
L 218.656026 87.014841 
L 221.915594 89.834629 
L 227.198342 95.771025 
L 230.570308 101.113781 
L 236.864646 108.979505 
L 236.527449 112.541343 
L 233.942275 116.54841 
L 230.682707 123.226855 
L 227.872735 127.085512 
L 222.140392 137.919435 
L 215.396459 151.424735 
L 213.036082 157.064311 
L 210.113711 160.922968 
L 205.280559 169.233922 
L 199.997811 180.513074 
L 195.951451 187.191519 
L 191.792692 195.650883 
L 185.723152 206.484806 
L 181.564394 214.49894 
L 175.382455 223.403534 
L 170.436904 232.159717 
L 167.964128 238.392933 
L 164.142566 244.477739 
L 150.429902 271.339929 
L 142.449581 282.767491 
L 136.942035 291.820495 
L 130.872495 303.990106 
L 127.612928 309.926502 
L 124.690557 316.901767 
L 122.105382 320.908834 
L 116.26064 331.594346 
L 112.776275 334.562544 
L 107.043931 344.357597 
L 102.435577 357.269258 
L 98.164419 362.612014 
L 95.466846 363.947703 
L 92.656874 371.813428 
L 86.137738 383.686219 
L 83.102968 395.410601 
L 78.831811 401.495406 
L 76.808631 405.799293 
L 72.087878 408.619081 
L 68.266315 418.859364 
L 66.692731 420.937102 
L 64.78195 425.686219 
L 60.73559 431.028975 
L 59.162006 435.778092 
L 54.778449 445.276325 
L 51.968477 448.392933 
L 48.821308 453.290459 
L 44.55015 461.453004 
L 43.201364 462.788693 
L 36.794627 475.551943 
L 32.973065 483.714488 
L 25.217542 495.587279 
L 24.205952 499.149117 
L 21.508378 503.601413 
L 19.822395 504.046643 
L 18.136412 507.460071 
L 20.384389 509.686219 
L 25.554738 511.615548 
L 32.41107 517.255124 
L 35.670638 518.442403 
L 40.391391 522.8947 
L 43.088965 523.785159 
L 44.887347 526.011307 
L 49.6081 527.050177 
L 52.418072 529.721555 
L 55.902438 531.650883 
L 62.646371 536.4 
L 63.545562 534.619081 
" clip-path="url(#p840b6095be)" style="fill: none; stroke: #000000; stroke-width: 3"/>
   </g>
  </g>
 </g>
 <defs>
  <clipPath id="p840b6095be">
   <rect x="7.2" y="7.2" width="240.601058" height="554.4"/>
  </clipPath>
 </defs>
</svg>
