<?xml version="1.0" encoding="utf-8" standalone="no"?>
<!DOCTYPE svg PUBLIC "-//W3C//DTD SVG 1.1//EN"
  "http://www.w3.org/Graphics/SVG/1.1/DTD/svg11.dtd">
<svg xmlns:xlink="http://www.w3.org/1999/xlink" width="442.447159pt" height="568.8pt" viewBox="0 0 442.447159 568.8" xmlns="http://www.w3.org/2000/svg" version="1.1">
 <metadata>
  <rdf:RDF xmlns:dc="http://purl.org/dc/elements/1.1/" xmlns:cc="http://creativecommons.org/ns#" xmlns:rdf="http://www.w3.org/1999/02/22-rdf-syntax-ns#">
   <cc:Work>
    <dc:type rdf:resource="http://purl.org/dc/dcmitype/StillImage"/>
    <dc:date>2023-09-25T14:13:51.772239</dc:date>
    <dc:format>image/svg+xml</dc:format>
    <dc:creator>
     <cc:Agent>
      <dc:title>Matplotlib v3.6.2, https://matplotlib.org/</dc:title>
     </cc:Agent>
    </dc:creator>
   </cc:Work>
  </rdf:RDF>
 </metadata>
 <defs>
  <style type="text/css">*{stroke-linejoin: round; stroke-linecap: butt}</style>
 </defs>
 <g id="figure_1">
  <g id="patch_1">
   <path d="M 0 568.8 
L 442.447159 568.8 
L 442.447159 0 
L 0 0 
z
" style="fill: #ffffff"/>
  </g>
  <g id="axes_1">
   <g id="LineCollection_1">
    <path d="M 336.599373 34.488578 
L 343.717674 38.14359 
L 346.584767 38.665734 
L 353.109876 42.19021 
L 356.372431 38.14359 
L 358.745198 37.882517 
L 357.361084 39.187879 
L 357.459949 41.276457 
L 356.075835 45.714685 
L 357.657679 46.497902 
L 363.985058 51.458275 
L 366.654421 51.588811 
L 369.719245 53.416317 
L 375.05797 58.507226 
L 375.947758 63.337063 
L 379.309178 66.992075 
L 387.613862 70.386014 
L 390.876417 70.51655 
L 396.709469 73.388345 
L 398.686775 75.868531 
L 401.455003 81.481585 
L 405.113018 83.048019 
L 410.451744 84.35338 
L 415.79047 88.269464 
L 415.691605 90.358042 
L 414.010895 95.448951 
L 411.341532 98.973427 
L 406.694863 103.672727 
L 405.014153 108.502564 
L 405.014153 111.896503 
L 403.432309 115.159907 
L 401.553868 116.465268 
L 400.367485 119.728671 
L 400.46635 123.122611 
L 401.751599 125.472261 
L 404.717557 128.8662 
L 406.991459 130.302098 
L 412.231319 138.264802 
L 413.516568 138.917483 
L 413.912029 141.658741 
L 411.934723 149.490909 
L 409.166495 153.406993 
L 406.793728 158.88951 
L 404.420961 159.9338 
L 402.34479 166.068998 
L 399.279966 170.246154 
L 395.819681 177.034033 
L 392.754857 184.735664 
L 389.591168 189.696037 
L 388.009323 193.873193 
L 384.252442 198.70303 
L 383.362655 201.705361 
L 379.803504 206.665734 
L 378.814851 211.234499 
L 373.278395 221.416317 
L 371.103359 223.374359 
L 370.312436 227.420979 
L 367.445343 228.72634 
L 366.357825 231.859207 
L 364.677115 232.77296 
L 361.21683 237.602797 
L 360.327042 240.21352 
L 356.372431 245.826573 
L 353.999664 251.700699 
L 346.584767 268.409324 
L 344.409731 272.064336 
L 342.432425 276.6331 
L 339.861927 280.418648 
L 339.268735 284.334732 
L 342.827886 286.814918 
L 346.09044 290.339394 
L 348.759803 291.905828 
L 349.946187 295.821911 
L 351.923493 296.21352 
L 348.957534 303.784615 
L 347.474555 304.30676 
L 344.212 302.740326 
L 342.630155 300.912821 
L 340.85058 301.434965 
L 332.051569 296.082984 
L 331.062916 297.127273 
L 327.899227 303.393007 
L 325.921921 305.742657 
L 322.758232 312.008392 
L 324.735538 313.183217 
L 328.195823 313.835897 
L 334.424336 316.838228 
L 336.698238 318.404662 
L 336.797103 316.968765 
L 331.853839 313.966434 
L 327.503766 312.922145 
L 324.537807 313.444289 
L 320.978657 310.964103 
L 316.134258 321.145921 
L 314.947874 326.758974 
L 311.190993 333.938462 
L 307.928439 338.507226 
L 311.88305 339.290443 
L 314.453548 341.770629 
L 322.857097 345.686713 
L 323.64802 347.644755 
L 330.173129 349.863869 
L 336.203911 353.257809 
L 333.633414 360.567832 
L 334.226606 362.00373 
L 338.181217 366.05035 
L 343.025616 367.355711 
L 351.033705 371.793939 
L 348.562073 377.537529 
L 346.782497 379.234499 
L 342.729021 377.537529 
L 342.135829 375.971096 
L 339.16987 374.665734 
L 331.062916 372.577156 
L 328.393554 370.358042 
L 316.92518 362.525874 
L 314.651278 361.742657 
L 314.552413 363.700699 
L 312.080781 369.835897 
L 310.301206 370.619114 
L 311.784185 372.577156 
L 316.331988 372.316084 
L 319.297947 374.274126 
L 320.385465 376.232168 
L 323.944616 377.668065 
L 329.382206 382.497902 
L 334.12774 383.803263 
L 341.443772 388.241492 
L 341.344907 389.416317 
L 337.884621 395.551515 
L 339.268735 392.157576 
L 336.401642 396.07366 
L 334.918663 399.467599 
L 333.633414 404.558508 
L 327.701497 411.737995 
L 326.910574 415.393007 
L 324.241211 418.65641 
L 319.001351 417.481585 
L 310.894397 413.304429 
L 308.917091 413.434965 
L 307.928439 411.085315 
L 305.16021 408.474592 
L 300.118081 406.777622 
L 294.186163 401.556177 
L 296.855526 396.856876 
L 300.019215 398.162238 
L 302.985174 398.553846 
L 303.776096 399.989744 
L 307.038651 402.46993 
L 311.190993 402.46993 
L 312.970568 404.558508 
L 314.058087 403.775291 
L 319.594543 408.082984 
L 322.955963 409.518881 
L 326.119652 412.129604 
L 333.633414 415.654079 
L 336.797103 419.570163 
L 344.904057 423.094639 
L 349.056399 425.705361 
L 355.284912 428.44662 
L 357.756545 430.535198 
L 363.886193 433.668065 
L 366.951017 434.320746 
L 371.696551 437.192541 
L 377.035276 439.020047 
L 382.571732 443.197203 
L 388.305919 445.416317 
L 389.986629 446.982751 
L 386.229748 454.292774 
L 388.009323 454.42331 
L 388.800246 456.250816 
L 392.557127 457.686713 
L 396.709469 461.341725 
L 399.576562 462.908159 
L 395.819681 462.386014 
L 390.678686 459.122611 
L 386.526344 457.295105 
L 386.526344 456.12028 
L 384.153577 454.031702 
L 381.58308 453.117949 
L 384.450173 455.337063 
L 384.450173 457.425641 
L 385.933152 454.292774 
L 382.571732 451.943124 
L 379.506908 450.768298 
L 369.224918 445.285781 
L 364.57825 441.891841 
L 362.89754 444.372028 
L 360.425907 449.985082 
L 362.205483 452.204196 
L 363.490731 451.943124 
L 367.741939 453.640093 
L 369.620379 455.337063 
L 375.453432 458.078322 
L 379.90237 460.950117 
L 377.727333 464.996737 
L 374.365913 468.26014 
L 376.639815 470.348718 
L 378.023929 473.481585 
L 376.936411 474.65641 
L 378.814851 476.744988 
L 377.925064 473.351049 
L 373.871587 470.479254 
L 367.741939 467.085315 
L 364.57825 463.560839 
L 361.711156 461.994406 
L 356.767892 461.733333 
L 353.900798 460.427972 
L 352.022358 457.295105 
L 348.364342 456.12028 
L 343.915404 452.72634 
L 339.565331 450.507226 
L 336.006181 449.462937 
L 325.32873 443.458275 
L 318.111563 437.714685 
L 316.826315 437.584149 
L 310.498936 432.623776 
L 303.084039 430.926807 
L 301.205599 427.532867 
L 298.733967 432.754312 
L 295.768008 433.798601 
L 289.836091 434.320746 
L 286.573536 439.281119 
L 282.421194 442.28345 
L 282.124598 445.677389 
L 279.751831 449.724009 
L 276.785872 452.204196 
L 275.599489 457.164569 
L 274.215375 458.600466 
L 275.896085 458.992075 
L 277.87339 461.472261 
L 276.192681 469.826573 
L 270.260763 480.269464 
L 268.184592 485.751981 
L 269.173245 486.665734 
L 272.139204 494.758974 
L 274.709701 496.58648 
L 280.246157 495.803263 
L 284.695095 495.672727 
L 289.341764 498.544522 
L 293.395241 499.197203 
L 300.019215 502.33007 
L 303.578366 505.201865 
L 307.532977 506.898834 
L 309.510283 510.292774 
L 317.419506 513.295105 
L 319.396812 515.253147 
L 326.020787 519.430303 
L 332.348165 524.651748 
L 334.325471 525.043357 
L 344.805192 529.220513 
L 345.89271 527.784615 
L 348.166612 521.518881 
L 349.45186 519.430303 
L 351.626897 513.817249 
L 353.208741 512.250816 
L 357.064488 515.122611 
L 366.753286 520.996737 
L 368.532861 523.476923 
L 368.038535 525.304429 
L 365.270307 529.612121 
L 358.349736 526.348718 
L 355.680374 523.999068 
L 352.516684 522.56317 
L 350.143917 523.999068 
L 345.89271 529.873193 
L 343.915404 533.267133 
L 338.97214 536.4 
L 334.918663 534.833566 
L 330.173129 531.570163 
L 327.899227 531.048019 
L 319.990004 525.173893 
L 317.518372 524.390676 
L 314.453548 522.302098 
L 310.894397 520.996737 
L 307.928439 519.169231 
L 305.259076 519.299767 
L 299.92035 515.383683 
L 297.448718 513.034033 
L 295.174816 509.770629 
L 291.121339 508.987413 
L 288.550842 506.507226 
L 285.584883 505.593473 
L 284.003038 503.374359 
L 280.938214 502.982751 
L 284.695095 493.584149 
L 286.672401 491.103963 
L 287.463324 488.362704 
L 291.022474 490.581818 
L 291.714531 492.017716 
L 295.075951 494.106294 
L 301.403329 496.58648 
L 302.095386 496.064336 
L 307.137516 497.630769 
L 311.092128 500.110956 
L 312.970568 499.849883 
L 317.716102 501.807925 
L 324.438942 507.551515 
L 327.20717 506.507226 
L 329.678802 501.807925 
L 325.427595 498.805594 
L 322.362771 497.369697 
L 310.20234 490.581818 
L 309.015957 488.232168 
L 306.346594 485.229837 
L 302.985174 482.488578 
L 296.3612 481.052681 
L 291.813396 478.572494 
L 289.144034 478.180886 
L 285.980344 475.700699 
L 283.310981 474.525874 
L 276.489276 469.826573 
L 273.226722 465.649417 
L 271.447147 465.649417 
L 268.481188 463.299767 
L 263.439058 461.602797 
L 261.758348 461.863869 
L 249.004726 454.031702 
L 247.324016 453.509557 
L 245.050114 451.159907 
L 243.567135 451.420979 
L 239.019332 448.288112 
L 229.627129 444.110956 
L 220.828118 438.628438 
L 215.884854 435.234499 
L 214.006413 435.365035 
L 205.800594 430.274126 
L 203.823288 427.402331 
L 193.541298 423.355711 
L 191.959454 421.397669 
L 189.784417 421.267133 
L 185.632075 418.395338 
L 184.643422 416.959441 
L 181.578598 415.523543 
L 178.118313 415.131935 
L 174.954624 410.693706 
L 170.703416 409.127273 
L 169.615898 407.430303 
L 166.649939 406.124942 
L 159.630504 404.950117 
L 155.082701 405.602797 
L 153.995182 407.952448 
L 152.017877 409.518881 
L 150.930358 412.390676 
L 147.865534 415.262471 
L 146.975747 419.178555 
L 150.139436 413.95711 
L 152.413338 412.129604 
L 143.713192 409.127273 
L 139.857446 404.427972 
L 138.176736 401.034033 
L 133.727798 398.292774 
L 130.662974 397.640093 
L 127.301554 395.420979 
L 125.521979 397.117949 
L 119.491196 394.246154 
L 115.239989 391.635431 
L 114.449066 389.416317 
L 113.262683 389.807925 
L 110.889916 394.37669 
L 110.197859 397.248485 
L 106.144382 401.817249 
L 106.935304 399.989744 
L 110.000128 396.204196 
L 110.791051 393.071329 
L 113.460414 387.849883 
L 115.932046 381.584149 
L 114.053605 379.756643 
L 108.022823 376.362704 
L 105.452325 376.362704 
L 97.938563 370.880186 
L 90.523666 367.094639 
L 84.196288 363.439627 
L 76.38593 358.348718 
L 74.90295 356.26014 
L 72.826779 356.129604 
L 72.134722 359.001399 
L 67.98238 363.439627 
L 66.993727 366.833566 
L 63.928903 371.793939 
L 66.202805 372.707692 
L 79.055293 381.192541 
L 82.120117 381.584149 
L 86.272459 376.49324 
L 92.698703 379.495571 
L 95.862392 380.53986 
L 89.436148 375.187879 
L 86.865651 374.404662 
L 77.868909 369.313753 
L 76.287065 369.183217 
L 70.651743 364.744988 
L 68.773303 365.136597 
L 67.191458 363.309091 
L 62.445924 360.30676 
L 59.875426 359.915152 
L 57.799255 358.087646 
L 53.251452 357.434965 
L 49.791167 354.954779 
L 48.308188 352.344056 
L 43.167192 349.211189 
L 40.596695 350.124942 
L 35.752296 346.992075 
L 35.851161 348.1669 
L 31.204492 356.912821 
L 33.082933 356.521212 
L 36.246622 358.740326 
L 31.698819 366.964103 
L 31.006762 367.616783 
L 26.656689 365.658741 
L 28.337399 363.178555 
L 33.97272 369.444289 
L 33.478394 367.877855 
L 35.4557 362.134266 
L 36.345487 357.826573 
L 40.794425 350.124942 
L 46.825208 342.684382 
L 46.232016 340.72634 
L 44.254711 339.420979 
L 44.155845 336.940793 
L 49.197975 332.6331 
L 48.308188 330.805594 
L 46.034286 331.588811 
L 50.97755 331.458275 
L 54.33897 333.546853 
L 60.666349 328.194872 
L 57.996986 327.411655 
L 58.194716 325.192541 
L 60.567483 323.234499 
L 62.94025 319.971096 
L 68.180111 310.964103 
L 73.02451 312.922145 
L 82.614443 318.013054 
L 89.831609 322.19021 
L 89.930475 323.365035 
L 86.470189 329.108625 
L 84.492884 333.677389 
L 83.009904 335.504895 
L 80.637137 340.204196 
L 78.363236 341.901166 
L 76.781391 344.77296 
L 77.770044 347.644755 
L 83.603096 350.647086 
L 85.778132 351.299767 
L 89.633879 354.432634 
L 94.082817 356.912821 
L 97.444237 359.654079 
L 104.463672 362.134266 
L 106.342113 360.30676 
L 109.505802 355.607459 
L 114.350201 356.782284 
L 117.019564 359.001399 
L 120.974176 360.437296 
L 125.225383 363.048019 
L 132.442549 366.572494 
L 135.705104 369.052681 
L 138.077871 369.052681 
L 139.659715 371.532867 
L 143.812057 373.882517 
L 160.619157 382.106294 
L 166.155613 384.325408 
L 167.935188 378.84289 
L 171.098877 375.840559 
L 173.965971 370.74965 
L 175.844411 368.4 
L 179.304697 361.873193 
L 178.81037 359.523543 
L 182.962712 354.693706 
L 186.818459 355.346387 
L 185.038883 354.171562 
L 187.807111 349.733333 
L 189.09236 346.600466 
L 194.13449 341.379021 
L 194.925412 338.115618 
L 196.210661 337.462937 
L 195.914065 334.982751 
L 197.49591 329.239161 
L 199.077754 326.758974 
L 199.473216 324.409324 
L 202.241444 322.059674 
L 202.53804 320.362704 
L 205.108537 316.44662 
L 206.690382 312.269464 
L 209.755206 308.483916 
L 211.13932 304.176224 
L 215.983719 298.171562 
L 219.641735 288.903497 
L 221.322445 287.075991 
L 223.200885 282.246154 
L 225.870248 276.894172 
L 229.429398 272.194872 
L 230.220321 270.367366 
L 234.174932 267.103963 
L 237.140891 266.19021 
L 238.821601 261.621445 
L 234.866989 256.922145 
L 234.471528 253.789277 
L 232.889684 252.35338 
L 235.06472 248.30676 
L 234.866989 246.479254 
L 232.593088 240.8662 
L 232.889684 235.905828 
L 229.231668 228.07366 
L 230.319186 225.724009 
L 230.220321 220.241492 
L 231.011243 215.020047 
L 230.813513 210.451282 
L 231.208974 205.621445 
L 232.098761 201.574825 
L 233.087414 191.393007 
L 232.494222 182.908159 
L 231.110108 177.817249 
L 230.813513 174.292774 
L 231.50557 169.724009 
L 230.516917 163.066667 
L 231.802165 160.325408 
L 231.307839 155.103963 
L 231.802165 147.663403 
L 231.208974 142.70303 
L 231.307839 138.264802 
L 233.680606 134.870862 
L 234.866989 130.171562 
L 240.007984 122.731002 
L 242.776213 116.987413 
L 244.753518 114.246154 
L 243.270539 111.635431 
L 245.34671 110.33007 
L 245.34671 107.458275 
L 242.973943 108.110956 
L 246.335363 102.88951 
L 247.620612 98.320746 
L 254.343452 91.010723 
L 259.879908 81.742657 
L 261.461752 80.567832 
L 264.625442 74.171562 
L 266.009556 72.605128 
L 268.975514 66.731002 
L 273.226722 60.204196 
L 273.819914 58.37669 
L 280.443888 47.411655 
L 288.649707 32.922145 
L 289.934956 32.4 
L 295.965739 34.358042 
L 295.965739 34.358042 
" clip-path="url(#pa2c996026e)" style="fill: none; stroke: #000000; stroke-width: 3"/>
   </g>
  </g>
 </g>
 <defs>
  <clipPath id="pa2c996026e">
   <rect x="7.2" y="7.2" width="428.047159" height="554.4"/>
  </clipPath>
 </defs>
</svg>
