<?xml version="1.0" encoding="utf-8" standalone="no"?>
<!DOCTYPE svg PUBLIC "-//W3C//DTD SVG 1.1//EN"
  "http://www.w3.org/Graphics/SVG/1.1/DTD/svg11.dtd">
<svg xmlns:xlink="http://www.w3.org/1999/xlink" width="310.615973pt" height="568.8pt" viewBox="0 0 310.615973 568.8" xmlns="http://www.w3.org/2000/svg" version="1.1">
 <metadata>
  <rdf:RDF xmlns:dc="http://purl.org/dc/elements/1.1/" xmlns:cc="http://creativecommons.org/ns#" xmlns:rdf="http://www.w3.org/1999/02/22-rdf-syntax-ns#">
   <cc:Work>
    <dc:type rdf:resource="http://purl.org/dc/dcmitype/StillImage"/>
    <dc:date>2023-09-25T14:13:51.614878</dc:date>
    <dc:format>image/svg+xml</dc:format>
    <dc:creator>
     <cc:Agent>
      <dc:title>Matplotlib v3.6.2, https://matplotlib.org/</dc:title>
     </cc:Agent>
    </dc:creator>
   </cc:Work>
  </rdf:RDF>
 </metadata>
 <defs>
  <style type="text/css">*{stroke-linejoin: round; stroke-linecap: butt}</style>
 </defs>
 <g id="figure_1">
  <g id="patch_1">
   <path d="M 0 568.8 
L 310.615973 568.8 
L 310.615973 0 
L 0 0 
z
" style="fill: #ffffff"/>
  </g>
  <g id="axes_1">
   <g id="LineCollection_1">
    <path d="M 241.491309 33.967749 
L 242.489021 34.030459 
L 247.715132 37.416797 
L 250.755778 37.855767 
L 252.276101 35.410078 
L 253.368834 35.911758 
L 256.59952 36.664278 
L 259.925227 37.918477 
L 262.538283 39.799776 
L 264.296157 40.176036 
L 266.529131 41.743785 
L 268.904636 42.872564 
L 271.185121 43.687794 
L 274.890909 45.318253 
L 277.931555 47.074132 
L 279.214328 48.767301 
L 280.30706 53.094289 
L 281.779874 55.853527 
L 282.967626 57.170437 
L 284.487949 58.236506 
L 284.91554 59.177156 
L 286.910964 62.124524 
L 289.61904 65.385442 
L 289.951611 66.576932 
L 288.763858 69.46159 
L 287.243535 71.907279 
L 286.388353 74.227548 
L 284.7255 76.986786 
L 282.302485 82.505263 
L 281.067222 84.574692 
L 280.639631 86.142441 
L 279.784449 87.020381 
L 278.074086 90.155879 
L 277.361434 91.033819 
L 275.27099 94.608287 
L 274.320788 95.799776 
L 273.323076 98.245465 
L 272.182833 99.875924 
L 271.565202 101.506383 
L 269.807328 104.453751 
L 269.047167 106.58589 
L 268.382025 106.89944 
L 267.716884 108.216349 
L 266.434111 109.658679 
L 264.676237 112.417917 
L 264.391177 113.546697 
L 262.348243 116.995745 
L 260.92294 120.695633 
L 258.594945 124.081971 
L 257.502212 126.52766 
L 255.934379 128.785218 
L 255.316748 130.415677 
L 254.271526 132.046137 
L 251.420919 137.878163 
L 250.328187 139.383203 
L 249.045414 142.393281 
L 248.142723 143.083091 
L 247.192521 145.27794 
L 243.629263 151.486226 
L 242.394 154.559015 
L 240.921187 156.628443 
L 240.398576 158.008063 
L 239.115804 159.575812 
L 235.695076 165.721389 
L 231.561698 172.870325 
L 230.136395 175.943113 
L 228.711092 177.949832 
L 227.523339 181.21075 
L 226.383097 183.217469 
L 226.288076 183.907279 
L 224.340162 186.415677 
L 223.912571 188.046137 
L 222.629799 189.174916 
L 222.534779 189.927436 
L 220.396824 192.122284 
L 219.446622 193.627324 
L 218.68646 196.198432 
L 216.691036 197.076372 
L 216.833566 197.766181 
L 214.363041 203.033819 
L 212.082556 207.109966 
L 209.659541 212.064054 
L 207.236526 214.572452 
L 206.381344 217.707951 
L 204.718491 220.404479 
L 203.530738 223.163718 
L 201.725355 225.609406 
L 200.252541 228.556775 
L 198.779728 231.943113 
L 198.732218 232.632923 
L 197.496956 234.200672 
L 197.069365 235.893841 
L 196.024143 238.21411 
L 195.359001 239.029339 
L 194.69386 242.164838 
L 190.750521 249.062934 
L 184.526698 257.716909 
L 182.863845 260.852408 
L 181.391032 263.172676 
L 180.39332 265.367525 
L 178.397895 269.130123 
L 177.542714 271.136842 
L 175.452269 274.27234 
L 175.214719 275.21299 
L 172.174072 274.021501 
L 171.17636 275.40112 
L 169.798567 273.833371 
L 169.323466 272.704591 
L 168.230734 271.638522 
L 164.239885 270.258903 
L 160.249037 268.064054 
L 163.669764 271.324972 
L 161.72185 271.011422 
L 158.728714 269.569093 
L 157.398431 265.179395 
L 156.87582 264.677716 
L 155.593047 264.615006 
L 153.407583 262.796417 
L 152.12481 262.232027 
L 150.366936 262.670997 
L 159.488875 269.569093 
L 157.11337 270.384323 
L 154.927906 269.819933 
L 154.500315 270.635162 
L 151.602199 271.387682 
L 151.602199 271.826652 
L 145.473396 268.064054 
L 142.71781 268.440314 
L 141.577568 269.945353 
L 140.009734 271.136842 
L 138.01431 274.71131 
L 138.01431 277.094289 
L 137.444189 278.348488 
L 135.781335 280.794177 
L 134.546073 283.678835 
L 133.07326 285.748264 
L 131.315386 288.946473 
L 129.319962 291.392161 
L 128.70233 292.709071 
L 127.039477 295.029339 
L 124.046341 301.049496 
L 123.096139 302.366405 
L 122.003406 304.561254 
L 119.960472 307.822172 
L 118.582679 310.832251 
L 117.489947 312.65084 
L 117.109866 313.967749 
L 114.49681 318.106607 
L 113.356568 320.238746 
L 112.026285 321.179395 
L 109.175679 326.008063 
L 108.795598 327.199552 
L 107.180255 329.896081 
L 106.182543 332.341769 
L 105.802462 332.655319 
L 104.187119 336.041657 
L 103.046876 337.860246 
L 101.098962 341.936394 
L 100.528841 343.629563 
L 99.721169 344.758343 
L 98.818477 346.827772 
L 97.773255 350.841209 
L 96.728033 353.098768 
L 95.065179 358.115566 
L 94.019957 360.561254 
L 93.449836 361.313774 
L 89.078907 369.779619 
L 86.608382 375.360806 
L 85.040548 379.687794 
L 83.757776 381.882643 
L 82.807574 385.206271 
L 82.189942 386.33505 
L 82.475003 388.028219 
L 81.857372 390.536618 
L 81.667331 394.173796 
L 81.09721 395.804255 
L 81.23974 398.626204 
L 80.337048 403.078611 
L 80.479579 403.956551 
L 79.956968 407.405599 
L 79.624397 408.095409 
L 77.486442 408.283539 
L 76.631261 407.844569 
L 73.543104 408.095409 
L 72.450372 407.656439 
L 70.930049 407.781859 
L 65.133816 406.65308 
L 62.37823 406.27682 
L 57.912281 406.08869 
L 55.774327 405.64972 
L 58.767463 405.33617 
L 59.955215 405.77514 
L 61.000438 405.5243 
L 64.278634 406.08869 
L 65.276347 406.46495 
L 67.319281 406.52766 
L 70.549968 407.154759 
L 69.979847 407.468309 
L 67.936912 406.966629 
L 67.461811 407.405599 
L 67.224261 411.920717 
L 67.319281 413.739306 
L 66.321569 416.749384 
L 64.658715 415.934155 
L 62.28321 413.363046 
L 61.237988 412.798656 
L 55.346736 407.844569 
L 54.111473 407.781859 
L 53.968943 410.290258 
L 54.776614 411.669877 
L 55.584286 411.983427 
L 59.337584 412.234267 
L 60.382806 412.610526 
L 62.520761 414.554535 
L 62.805821 415.495185 
L 64.278634 416.498544 
L 66.84418 418.756103 
L 68.459523 419.571333 
L 70.787518 422.330571 
L 75.586038 426.218589 
L 77.248892 428.476148 
L 79.196806 429.793057 
L 80.717129 431.360806 
L 82.522513 427.535498 
L 83.520225 426.093169 
L 84.042836 423.71019 
L 83.710265 423.083091 
L 81.999902 422.205151 
L 79.291826 421.578052 
L 79.196806 420.637402 
L 80.194518 420.574692 
L 80.90717 421.201792 
L 82.475003 421.515342 
L 83.425205 421.139082 
L 84.470427 419.195073 
L 85.040548 417.501904 
L 86.798422 417.815454 
L 85.80071 419.257783 
L 84.850508 420.010302 
L 84.232877 422.142441 
L 84.517937 423.89832 
L 84.042836 425.905039 
L 84.898018 427.159239 
L 83.472715 429.040538 
L 83.377695 430.482867 
L 82.475003 431.298096 
L 82.189942 433.179395 
L 85.135569 435.750504 
L 86.798422 437.694513 
L 88.793846 439.262262 
L 89.601518 440.328331 
L 88.556296 442.96215 
L 87.891154 443.58925 
L 87.226013 445.784099 
L 86.513361 446.411198 
L 82.760063 445.282419 
L 80.764639 443.65196 
L 76.631261 441.770661 
L 75.300978 441.519821 
L 74.920897 442.6486 
L 75.063427 444.529899 
L 74.588326 446.411198 
L 74.065715 450.738186 
L 73.780655 455.127884 
L 71.59519 458.075252 
L 68.839604 456.570213 
L 65.323857 455.253303 
L 64.136104 456.632923 
L 64.183614 458.326092 
L 63.518473 460.83449 
L 63.756023 462.40224 
L 63.708513 465.788578 
L 63.328432 467.607167 
L 58.529912 465.412318 
L 57.29465 464.534378 
L 55.679306 463.907279 
L 55.109185 466.541097 
L 55.394246 467.795297 
L 58.149832 469.300336 
L 59.860195 469.739306 
L 62.2357 470.993505 
L 65.513897 473.752744 
L 68.507033 475.195073 
L 71.50017 477.139082 
L 74.018205 478.142441 
L 75.776079 479.333931 
L 76.39371 481.0271 
L 74.968407 483.284658 
L 75.728569 484.476148 
L 79.861947 487.674356 
L 81.857372 488.301456 
L 82.665043 489.053975 
L 84.042836 488.740426 
L 85.040548 486.294737 
L 83.757776 484.664278 
L 84.993038 482.971109 
L 85.230589 482.030459 
L 86.418341 482.657559 
L 89.363967 483.347368 
L 89.791558 484.350728 
L 90.74176 481.591489 
L 91.359392 480.65084 
L 92.262084 481.654199 
L 90.74176 481.08981 
L 90.266659 482.594849 
L 87.891154 484.350728 
L 87.035973 486.232027 
L 85.61067 486.482867 
L 85.515649 485.667637 
L 84.232877 484.915118 
L 84.090346 484.350728 
L 85.70569 482.657559 
L 85.70569 481.779619 
L 84.137856 479.64748 
L 81.00219 478.894961 
L 79.909457 477.891601 
L 77.486442 476.574692 
L 75.205958 475.634043 
L 74.113225 474.505263 
L 71.69021 472.937514 
L 69.457235 471.244345 
L 67.889402 470.617245 
L 64.896266 468.798656 
L 63.185902 467.481747 
L 63.518473 464.346249 
L 64.373655 463.969989 
L 66.654139 465.224188 
L 67.03422 464.785218 
L 64.373655 463.593729 
L 63.470963 462.841209 
L 60.905417 461.58701 
L 58.577422 460.207391 
L 56.819549 460.458231 
L 59.622645 460.771781 
L 61.047948 460.646361 
L 63.470963 460.8972 
L 64.231124 460.081971 
L 63.851044 458.075252 
L 64.326145 457.071892 
L 62.615781 457.322732 
L 58.102321 456.758343 
L 57.19963 458.890482 
L 56.772039 461.27346 
L 55.916857 464.408959 
L 54.824125 467.168197 
L 54.111473 466.290258 
L 52.163559 464.910638 
L 47.365039 462.966629 
L 45.749695 461.58701 
L 44.561943 461.14804 
L 42.519009 459.768421 
L 41.378766 459.329451 
L 37.245387 457.071892 
L 36.485226 456.319373 
L 35.059923 455.943113 
L 33.58711 457.134602 
L 31.354135 459.643001 
L 30.593973 460.771781 
L 29.263691 464.095409 
L 29.07365 467.419037 
L 31.021564 468.108847 
L 33.349559 469.551176 
L 33.302049 470.554535 
L 34.204741 470.052856 
L 37.435428 471.746025 
L 38.52816 471.746025 
L 40.951175 472.812094 
L 41.996397 473.815454 
L 39.383342 472.874804 
L 36.770286 472.561254 
L 34.774862 470.993505 
L 33.5396 470.617245 
L 33.82466 471.432475 
L 36.627756 473.313774 
L 37.102857 473.062934 
L 36.010125 472.310414 
L 35.440004 472.686674 
L 34.157231 472.310414 
L 33.68213 471.683315 
L 34.584822 470.491825 
L 35.059923 468.735946 
L 38.33812 464.534378 
L 38.57567 463.593729 
L 39.715913 462.59037 
L 41.141216 460.520941 
L 40.286034 460.709071 
L 39.573382 459.768421 
L 35.582534 456.382083 
L 35.962615 455.378723 
L 34.822372 455.127884 
L 34.679842 453.999104 
L 36.295185 453.810974 
L 38.860731 453.936394 
L 39.668403 454.375364 
L 43.801781 454.751624 
L 44.942024 455.253303 
L 45.084554 454.249944 
L 43.27917 454.563494 
L 37.672978 453.936394 
L 34.917393 454.061814 
L 31.354135 453.058455 
L 27.980918 452.431355 
L 27.648347 452.619485 
L 27.363287 456.068533 
L 26.935696 457.260022 
L 26.365574 463.029339 
L 25.177822 471.118925 
L 24.845251 472.184994 
L 24.560191 475.696753 
L 24.18011 476.449272 
L 23.942559 480.27458 
L 24.03758 481.905039 
L 23.609989 483.347368 
L 25.272842 484.099888 
L 27.125736 484.288018 
L 26.698145 483.472788 
L 29.358711 484.852408 
L 30.166382 486.043897 
L 29.786302 488.113326 
L 28.97863 488.677716 
L 28.693569 491.436954 
L 28.218468 492.691153 
L 28.313489 493.757223 
L 26.698145 493.569093 
L 24.1326 492.879283 
L 21.757095 492.691153 
L 21.567054 496.892721 
L 20.664362 502.473908 
L 22.137176 503.414558 
L 23.705009 503.351848 
L 24.655211 504.167077 
L 26.128024 504.229787 
L 28.075938 504.982307 
L 28.78859 505.922956 
L 31.164095 506.424636 
L 32.019276 507.051736 
L 35.154943 508.180515 
L 36.675266 508.305935 
L 36.865307 508.995745 
L 38.33812 509.873684 
L 39.525872 509.560134 
L 40.286034 508.744905 
L 40.713625 506.424636 
L 39.668403 505.672116 
L 38.38563 505.797536 
L 37.958039 504.668757 
L 40.286034 504.856887 
L 41.616317 506.361926 
L 40.903665 511.566853 
L 41.663827 513.197312 
L 42.946599 511.943113 
L 42.281458 513.322732 
L 43.04162 514.514222 
L 41.901377 516.646361 
L 41.568807 518.21411 
L 39.953463 518.27682 
L 38.57567 518.841209 
L 38.38563 520.158119 
L 37.958039 519.217469 
L 38.195589 518.21411 
L 37.482938 517.08533 
L 35.202453 516.081971 
L 34.964903 516.583651 
L 36.152655 516.709071 
L 37.577958 517.64972 
L 39.335832 518.21411 
L 40.666115 518.21411 
L 41.046195 519.280179 
L 42.376478 519.468309 
L 43.754271 517.71243 
L 45.987246 516.520941 
L 46.224796 515.893841 
L 48.315241 514.012542 
L 48.790342 513.134602 
L 45.939736 511.127884 
L 45.274594 511.065174 
L 45.654675 509.309295 
L 48.1252 509.560134 
L 49.645524 510.500784 
L 49.075402 512.507503 
L 50.168135 512.570213 
L 51.973519 513.448152 
L 52.78119 513.322732 
L 54.301513 514.702352 
L 55.156695 514.326092 
L 56.629508 515.204031 
L 56.772039 516.332811 
L 60.335296 517.27346 
L 59.575135 519.781859 
L 58.719953 520.534378 
L 55.916857 519.280179 
L 56.724529 519.217469 
L 58.529912 520.408959 
L 59.337584 522.290258 
L 60.335296 523.042777 
L 62.09317 522.854647 
L 63.708513 523.419037 
L 64.326145 524.485106 
L 63.423453 524.924076 
L 61.855619 524.735946 
L 60.857907 523.481747 
L 60.335296 521.286898 
L 61.333008 519.342889 
L 61.095458 517.77514 
L 62.18819 517.5243 
L 62.425741 516.458231 
L 63.185902 516.95991 
L 63.946064 516.207391 
L 65.086306 517.02262 
L 66.654139 519.092049 
L 66.89169 520.032699 
L 64.563695 518.903919 
L 61.713089 519.029339 
L 60.002725 516.395521 
L 61.380518 516.395521 
L 61.855619 514.827772 
L 61.380518 513.385442 
L 60.002725 512.131243 
L 59.432604 510.877044 
L 60.382806 509.183875 
L 60.857907 507.177156 
L 61.475539 506.236506 
L 61.475539 504.543337 
L 63.375943 507.302576 
L 65.988998 509.372004 
L 66.98671 510.877044 
L 68.887114 512.695633 
L 69.267195 514.200672 
L 71.40515 515.392161 
L 71.54768 515.893841 
L 73.543104 517.5243 
L 74.968407 518.21411 
L 76.963831 520.722508 
L 77.914033 520.910638 
L 78.199094 521.725868 
L 80.004478 523.042777 
L 81.382271 521.600448 
L 82.760063 521.412318 
L 84.470427 520.408959 
L 83.140144 516.646361 
L 84.090346 517.58701 
L 85.563159 520.158119 
L 86.608382 521.412318 
L 87.321033 523.168197 
L 88.128705 524.046137 
L 88.888866 523.544457 
L 88.223725 522.603807 
L 90.171639 521.976708 
L 91.216861 521.036058 
L 90.74176 520.158119 
L 90.931801 519.154759 
L 94.400038 524.986786 
L 94.495058 526.115566 
L 95.1602 527.432475 
L 96.870563 527.369765 
L 97.013094 527.934155 
L 95.065179 529.940873 
L 92.689674 531.383203 
L 92.072043 532.198432 
L 92.404614 532.825532 
L 92.974735 531.132363 
L 93.592366 531.884882 
L 92.357104 531.759462 
L 95.44526 533.828891 
L 96.680523 535.459351 
L 98.533417 536.4 
L 97.535705 534.957671 
L 95.587791 533.327212 
L 94.209998 531.320493 
L 93.972447 530.379843 
L 94.400038 528.812094 
L 95.682811 526.868085 
L 95.25522 526.115566 
L 93.449836 524.359686 
L 98.533417 521.161478 
L 99.388599 520.346249 
L 99.721169 521.663158 
L 100.908922 523.732587 
L 101.954144 522.666517 
L 101.479043 521.663158 
L 99.8637 520.032699 
L 98.295866 517.96327 
L 97.155624 517.02262 
L 95.777831 514.702352 
L 97.535705 516.458231 
L 97.440684 518.1514 
L 98.580927 520.659798 
L 100.623861 519.969989 
L 104.66222 517.21075 
L 105.612422 519.342889 
L 106.562624 519.781859 
L 104.092099 515.643001 
L 102.714306 514.388802 
L 101.431533 515.015901 
L 99.95872 516.332811 
L 98.058316 517.14804 
L 97.678235 517.71243 
L 96.110402 518.33953 
L 92.642164 520.785218 
L 91.929513 520.346249 
L 91.074331 518.778499 
L 90.124129 519.154759 
L 89.268947 520.597088 
L 87.416053 521.788578 
L 81.429781 511.754983 
L 78.816725 511.253303 
L 76.773791 509.810974 
L 76.916321 508.870325 
L 77.961543 507.866965 
L 79.196806 505.107727 
L 79.909457 505.233147 
L 80.384558 504.417917 
L 78.436644 501.846809 
L 78.104074 500.529899 
L 76.53624 499.65196 
L 75.253468 500.216349 
L 73.875675 501.407839 
L 73.258043 501.345129 
L 70.787518 504.543337 
L 69.029645 507.427996 
L 67.414301 508.744905 
L 65.418877 511.943113 
L 63.756023 512.256663 
L 62.28321 515.015901 
L 63.138392 514.200672 
L 61.95064 513.260022 
L 60.715377 511.566853 
L 59.860195 509.873684 
L 59.765175 508.368645 
L 58.624933 507.177156 
L 56.724529 506.173796 
L 54.681594 505.797536 
L 53.873923 504.355207 
L 55.299226 501.721389 
L 56.106897 498.96215 
L 57.19963 497.519821 
L 56.296938 496.579171 
L 57.29465 496.265622 
L 58.482402 493.067413 
L 56.677018 492.440314 
L 52.923721 490.245465 
L 49.978094 487.611646 
L 47.460059 487.047256 
L 46.889938 486.043897 
L 47.88765 485.040538 
L 47.507569 483.786338 
L 45.987246 486.232027 
L 46.034756 485.542217 
L 42.614029 483.974468 
L 42.138928 483.096529 
L 40.761135 482.532139 
L 38.765711 480.77626 
L 37.055347 480.46271 
L 34.442292 479.52206 
L 33.397069 478.581411 
L 30.071362 477.076372 
L 29.548751 476.449272 
L 30.403933 474.630683 
L 27.648347 472.812094 
L 27.410797 472.059574 
L 28.741079 469.739306 
L 28.93112 468.171557 
L 31.829236 468.735946 
L 32.826948 468.547816 
L 33.68213 469.990146 
L 35.297473 470.742665 
L 36.627756 470.617245 
L 38.718201 471.934155 
L 39.763423 471.557895 
L 41.473786 471.934155 
L 43.896801 473.878163 
L 47.222508 474.944233 
L 49.978094 475.006943 
L 51.783478 475.947592 
L 53.161271 475.571333 
L 53.303801 476.386562 
L 52.306089 478.957671 
L 53.018741 479.83561 
L 53.636372 479.64748 
L 55.916857 480.96439 
L 56.059387 481.842329 
L 60.857907 484.413438 
L 64.088594 486.357447 
L 66.79667 487.360806 
L 69.172175 488.740426 
L 69.837316 488.364166 
L 70.359927 489.242105 
L 69.884826 490.621725 
L 68.507033 492.941993 
L 67.651852 493.130123 
L 65.751448 492.440314 
L 64.658715 491.499664 
L 63.233412 490.935274 
L 62.18819 491.060694 
L 60.905417 489.994625 
L 55.821837 486.984546 
L 53.208781 485.730347 
L 50.738256 486.043897 
L 50.453195 485.040538 
L 49.693034 484.476148 
L 50.215645 483.660918 
L 49.645524 482.532139 
L 51.118337 477.076372 
L 50.833276 476.511982 
L 51.260867 475.069653 
L 51.878498 475.571333 
L 52.8287 475.320493 
L 54.396534 475.759462 
L 56.486978 475.822172 
L 58.909993 476.198432 
L 60.287786 475.822172 
L 62.663291 476.825532 
L 63.946064 477.640761 
L 64.943776 478.832251 
L 67.03422 479.145801 
L 68.887114 475.445913 
L 70.359927 473.000224 
L 72.022781 470.868085 
L 73.210533 468.924076 
L 75.966119 464.973348 
L 78.199094 460.83449 
L 78.864235 458.827772 
L 79.481867 458.075252 
L 81.477291 457.385442 
L 81.429781 455.378723 
L 82.712553 453.560134 
L 83.615245 451.741545 
L 84.327897 451.490705 
L 84.660467 449.985666 
L 85.89573 447.790817 
L 85.61067 447.163718 
L 86.703402 445.282419 
L 87.321033 443.58925 
L 88.651316 441.331691 
L 90.64674 441.268981 
L 93.687387 438.133483 
L 94.827629 436.565733 
L 96.205422 435.499664 
L 95.777831 434.872564 
L 98.485907 431.737066 
L 99.91121 429.040538 
L 99.436109 428.664278 
L 101.859124 425.591489 
L 102.856836 424.77626 
L 105.754952 420.888242 
L 108.463028 416.059574 
L 109.7458 414.679955 
L 109.840821 413.676596 
L 112.406366 410.164838 
L 113.261548 409.349608 
L 114.30677 407.154759 
L 115.209462 407.217469 
L 116.017134 408.158119 
L 118.250108 408.283539 
L 121.290755 410.227548 
L 125.804214 411.230907 
L 126.564376 410.980067 
L 128.46478 411.607167 
L 130.555224 408.847928 
L 130.650245 408.346249 
L 132.503138 405.77514 
L 135.306234 400.946473 
L 136.208926 398.375364 
L 139.819694 393.421277 
L 141.244997 390.912878 
L 143.715522 387.21299 
L 146.756169 381.569093 
L 148.561552 379.938634 
L 149.464244 377.492945 
L 150.271916 376.928555 
L 151.839749 374.106607 
L 152.647421 370.657559 
L 153.075012 367.396641 
L 154.167744 363.947592 
L 154.690355 361.000224 
L 154.595335 357.363046 
L 154.832886 355.858007 
L 154.690355 354.227548 
L 154.215254 353.663158 
L 154.120234 351.342889 
L 154.310275 349.64972 
L 154.880396 348.081971 
L 156.258189 345.887122 
L 156.97084 344.131243 
L 157.635982 343.441433 
L 159.108795 340.243225 
L 155.783088 338.989026 
L 152.599911 336.982307 
L 151.649709 335.978947 
L 149.131674 334.975588 
L 146.471108 333.533259 
L 144.760744 333.031579 
L 144.523194 332.341769 
L 142.6703 330.89944 
L 140.864916 329.958791 
L 138.489411 327.952072 
L 136.779048 327.889362 
L 135.733825 326.635162 
L 132.645669 325.757223 
L 129.937593 323.374244 
L 129.652532 322.433595 
L 130.792775 319.925196 
L 130.555224 319.360806 
L 132.123058 316.664278 
L 134.023462 312.4 
L 134.926154 311.208511 
L 138.01431 304.435834 
L 139.724674 301.676596 
L 140.009734 300.735946 
L 141.244997 299.356327 
L 142.86034 296.283539 
L 144.143113 294.52766 
L 145.615926 291.580291 
L 148.656573 286.751624 
L 149.654285 285.434714 
L 150.366936 283.741545 
L 151.697219 281.609406 
L 153.882684 277.219709 
L 155.355497 276.028219 
L 155.783088 274.52318 
L 157.01835 272.391041 
L 157.731002 271.701232 
L 158.871244 268.565733 
L 160.154017 265.743785 
L 161.294259 263.737066 
L 162.339481 260.413438 
L 163.527234 258.657559 
L 163.954825 257.08981 
L 168.183224 249.313774 
L 168.658325 247.683315 
L 169.798567 246.742665 
L 171.556441 243.042777 
L 172.934234 241.475028 
L 174.597087 238.715789 
L 175.072188 237.14804 
L 176.0699 236.709071 
L 176.545001 235.580291 
L 177.732754 234.326092 
L 179.300587 231.754983 
L 179.823198 230.249944 
L 181.391032 227.678835 
L 181.248501 227.051736 
L 182.388744 224.731467 
L 183.101395 223.916237 
L 184.051597 220.968869 
L 185.4769 219.40112 
L 185.809471 217.833371 
L 187.139754 215.638522 
L 187.329794 214.321613 
L 189.372729 211.687794 
L 190.13289 209.806495 
L 191.843254 207.109966 
L 192.270845 206.043897 
L 194.171249 204.037178 
L 195.168961 202.093169 
L 197.401935 199.020381 
L 198.019567 197.515342 
L 199.967481 195.006943 
L 202.580536 190.617245 
L 202.675557 189.676596 
L 204.575961 187.419037 
L 204.575961 186.791937 
L 206.523875 184.095409 
L 205.858733 182.27682 
L 207.664117 180.144681 
L 208.80436 179.266741 
L 208.94689 178.451512 
L 210.324683 177.824412 
L 211.179865 176.507503 
L 210.942314 175.127884 
L 211.227375 174.061814 
L 213.317819 170.236506 
L 214.600592 167.226428 
L 215.170713 166.536618 
L 216.548506 162.6486 
L 218.68646 160.704591 
L 218.44891 159.324972 
L 219.019031 158.635162 
L 218.924011 157.255543 
L 217.498708 156.377604 
L 213.175289 154.747144 
L 209.279461 152.176036 
L 205.953754 151.047256 
L 204.575961 149.228667 
L 201.820375 147.159239 
L 198.732218 145.779619 
L 196.024143 144.14916 
L 194.8839 141.703471 
L 192.840966 139.320493 
L 192.555905 136.122284 
L 193.268557 134.303695 
L 193.458597 132.798656 
L 192.840966 130.791937 
L 193.458597 127.969989 
L 192.650925 127.405599 
L 192.650925 126.27682 
L 193.316067 124.332811 
L 193.933698 123.831131 
L 194.076228 122.702352 
L 193.553617 121.824412 
L 192.840966 119.127884 
L 192.745946 114.738186 
L 192.935986 111.978947 
L 192.270845 108.780739 
L 192.223335 99.248824 
L 191.748234 95.987906 
L 192.555905 92.350728 
L 192.365865 90.782979 
L 192.840966 86.706831 
L 192.413375 86.079731 
L 193.316067 82.818813 
L 193.078516 81.439194 
L 193.601127 79.056215 
L 194.456309 77.802016 
L 194.97892 75.795297 
L 196.071653 74.415677 
L 198.067077 70.903919 
L 199.159809 67.893841 
L 199.77744 67.015901 
L 200.537602 64.444793 
L 202.770577 61.246585 
L 203.103147 60.180515 
L 204.43343 58.173796 
L 205.098572 56.292497 
L 209.612031 48.830011 
L 210.229663 47.450392 
L 211.417415 45.819933 
L 213.317819 42.433595 
L 214.077981 40.364166 
L 215.265733 38.733707 
L 218.30638 33.27794 
L 219.161561 32.4 
L 219.921723 32.83897 
L 222.154698 33.15252 
L 222.154698 33.15252 
" clip-path="url(#pb8701d38f5)" style="fill: none; stroke: #000000; stroke-width: 3"/>
   </g>
  </g>
 </g>
 <defs>
  <clipPath id="pb8701d38f5">
   <rect x="7.2" y="7.2" width="296.215973" height="554.4"/>
  </clipPath>
 </defs>
</svg>
