<?xml version="1.0" encoding="utf-8" standalone="no"?>
<!DOCTYPE svg PUBLIC "-//W3C//DTD SVG 1.1//EN"
  "http://www.w3.org/Graphics/SVG/1.1/DTD/svg11.dtd">
<svg xmlns:xlink="http://www.w3.org/1999/xlink" width="309.654188pt" height="568.8pt" viewBox="0 0 309.654188 568.8" xmlns="http://www.w3.org/2000/svg" version="1.1">
 <metadata>
  <rdf:RDF xmlns:dc="http://purl.org/dc/elements/1.1/" xmlns:cc="http://creativecommons.org/ns#" xmlns:rdf="http://www.w3.org/1999/02/22-rdf-syntax-ns#">
   <cc:Work>
    <dc:type rdf:resource="http://purl.org/dc/dcmitype/StillImage"/>
    <dc:date>2023-09-25T14:13:51.526340</dc:date>
    <dc:format>image/svg+xml</dc:format>
    <dc:creator>
     <cc:Agent>
      <dc:title>Matplotlib v3.6.2, https://matplotlib.org/</dc:title>
     </cc:Agent>
    </dc:creator>
   </cc:Work>
  </rdf:RDF>
 </metadata>
 <defs>
  <style type="text/css">*{stroke-linejoin: round; stroke-linecap: butt}</style>
 </defs>
 <g id="figure_1">
  <g id="patch_1">
   <path d="M 0 568.8 
L 309.654188 568.8 
L 309.654188 0 
L 0 0 
z
" style="fill: #ffffff"/>
  </g>
  <g id="axes_1">
   <g id="LineCollection_1">
    <path d="M 243.596728 35.083507 
L 244.92059 35.832392 
L 246.197171 37.392571 
L 248.65577 38.70312 
L 250.026912 38.079049 
L 251.303493 35.582764 
L 251.870862 35.145914 
L 253.147443 35.270728 
L 255.227796 36.581278 
L 258.017362 37.579792 
L 259.577627 38.391085 
L 263.454649 41.199406 
L 264.778511 42.572363 
L 266.717022 43.446062 
L 270.92501 44.756612 
L 275.038437 46.441605 
L 276.787825 47.440119 
L 277.922563 48.50104 
L 279.057302 50.997325 
L 279.482828 53.805646 
L 280.286601 55.989896 
L 281.279498 57.42526 
L 284.920116 60.48321 
L 287.095031 64.040416 
L 288.702577 65.975037 
L 289.033543 66.973551 
L 288.749858 68.221694 
L 287.236874 71.404458 
L 285.061959 75.336107 
L 284.021782 77.582764 
L 282.319674 80.640713 
L 280.712128 84.322734 
L 278.868179 87.817533 
L 277.591598 89.502526 
L 275.653087 92.747697 
L 273.809137 96.492125 
L 271.53966 100.361367 
L 269.884833 102.857652 
L 267.426234 107.787816 
L 264.447545 112.343536 
L 260.948769 118.209807 
L 259.955873 120.830906 
L 255.842446 128.444577 
L 253.478408 131.814562 
L 252.438231 133.873997 
L 250.310597 137.368796 
L 249.506824 139.303418 
L 247.568313 142.860624 
L 246.76454 143.983952 
L 243.974975 149.850223 
L 240.759883 156.340565 
L 240.334356 157.775929 
L 238.915933 160.209807 
L 236.551895 163.829421 
L 234.235137 167.948291 
L 232.012941 172.816048 
L 230.121711 174.438633 
L 227.852234 178.682318 
L 226.33925 180.679346 
L 225.393634 182.801189 
L 224.306177 186.670431 
L 222.414946 190.352452 
L 222.083981 191.413373 
L 219.956346 195.095394 
L 218.96345 196.405944 
L 217.355904 199.401486 
L 216.504851 200.587221 
L 215.086428 201.460921 
L 214.61362 202.958692 
L 212.76967 206.328678 
L 211.682213 207.701634 
L 210.783878 209.76107 
L 209.365455 212.319762 
L 208.41984 214.878455 
L 206.292206 217.686776 
L 205.630275 219.246954 
L 205.535713 220.557504 
L 206.055802 222.80416 
L 205.724836 223.740267 
L 202.698868 227.60951 
L 200.713075 230.605052 
L 200.334829 231.978009 
L 198.821845 233.288559 
L 197.167018 235.472808 
L 194.472015 238.655572 
L 194.235611 240.6526 
L 193.479119 242.462407 
L 193.384557 244.334621 
L 192.155257 245.832392 
L 189.365692 250.88737 
L 187.427181 252.19792 
L 185.583231 256.129569 
L 184.25937 257.62734 
L 183.219193 261.371768 
L 181.658927 262.432689 
L 181.044278 263.243982 
L 180.098662 265.67786 
L 178.585678 268.486181 
L 177.687343 271.044874 
L 175.60699 274.914116 
L 174.330409 276.661516 
L 173.715759 276.973551 
L 172.770144 276.34948 
L 172.344617 275.350966 
L 171.209879 274.60208 
L 168.514875 273.478752 
L 166.481802 272.293016 
L 164.874256 271.793759 
L 159.626091 268.73581 
L 158.396792 268.673403 
L 156.931088 267.113224 
L 152.581258 263.743239 
L 151.4938 262.682318 
L 150.169939 262.807132 
L 146.52932 260.560475 
L 145.678266 260.934918 
L 144.779931 263.243982 
L 143.739755 265.178603 
L 142.510455 266.863596 
L 141.61212 267.487667 
L 140.808347 268.985438 
L 140.146417 271.544131 
L 138.727994 273.416345 
L 138.018782 276.287073 
L 136.363955 277.472808 
L 135.843867 279.095394 
L 133.101583 284.025557 
L 131.257633 287.894799 
L 129.744648 289.767013 
L 127.900699 292.575334 
L 126.624118 295.009212 
L 125.773064 296.132541 
L 123.125342 300.93789 
L 120.004811 306.866568 
L 118.491827 308.98841 
L 117.877177 310.361367 
L 111.9198 321.594651 
L 110.690501 322.967608 
L 108.751989 326.462407 
L 106.95532 330.456464 
L 105.867863 331.767013 
L 104.733124 333.951263 
L 103.267421 336.073105 
L 102.416367 338.257355 
L 101.281628 340.31679 
L 98.444783 346.370282 
L 97.120921 349.927489 
L 96.41171 351.238039 
L 93.102056 359.226152 
L 91.636353 362.034473 
L 86.813715 372.955721 
L 85.537134 375.514413 
L 83.4095 380.257355 
L 82.085638 383.502526 
L 81.754673 384.875483 
L 81.801954 386.872511 
L 80.809058 392.426746 
L 80.667215 395.734324 
L 80.714496 398.979495 
L 80.194408 402.162259 
L 79.390635 403.972065 
L 79.10695 406.156315 
L 78.539581 406.405944 
L 76.790193 406.093908 
L 75.513612 406.655572 
L 73.953347 406.655572 
L 72.91317 407.466865 
L 71.494747 406.655572 
L 69.367113 406.655572 
L 65.442809 405.657058 
L 58.728941 404.221694 
L 55.750253 403.784844 
L 54.851918 404.034473 
L 56.128499 405.407429 
L 61.613067 405.469837 
L 63.03149 405.345022 
L 67.003075 405.844279 
L 68.090532 406.405944 
L 69.698078 406.655572 
L 70.076324 408.465379 
L 70.312728 406.593165 
L 68.374217 406.156315 
L 66.861232 406.530758 
L 66.766671 409.463893 
L 67.003075 411.835364 
L 66.672109 414.019614 
L 66.10474 414.955721 
L 63.315175 413.0211 
L 56.601306 407.154829 
L 55.277445 406.343536 
L 54.000864 406.530758 
L 53.764461 408.902229 
L 54.94648 410.4 
L 59.154468 410.961664 
L 61.282102 411.897771 
L 62.700525 413.645171 
L 62.511402 411.585736 
L 62.180437 412.022585 
L 62.795086 414.331649 
L 63.267894 414.269242 
L 66.577548 417.389599 
L 67.097636 418.138484 
L 69.272551 419.32422 
L 70.265447 420.19792 
L 70.40729 420.946805 
L 73.480539 424.191976 
L 77.121158 427.499554 
L 79.154231 428.68529 
L 80.714496 430.120654 
L 83.031254 424.628826 
L 83.598623 420.884398 
L 83.362219 419.511441 
L 84.355115 417.077563 
L 85.537134 417.015156 
L 86.813715 415.767013 
L 84.591519 420.322734 
L 84.02415 422.819019 
L 83.173096 424.566419 
L 84.496957 425.128083 
L 83.787746 427.561961 
L 82.605727 429.621397 
L 81.849234 430.307875 
L 81.943796 431.930461 
L 83.787746 433.67786 
L 85.017046 434.489153 
L 86.860995 436.548588 
L 89.366876 438.857652 
L 89.272314 440.043388 
L 87.853891 442.539673 
L 87.002838 444.474294 
L 86.246345 445.285587 
L 84.355115 444.224666 
L 81.991077 443.350966 
L 76.742912 439.731352 
L 75.324489 439.356909 
L 74.851681 441.29153 
L 74.520716 444.723923 
L 74.473435 447.345022 
L 73.575101 453.897771 
L 72.203959 456.394056 
L 71.258343 456.955721 
L 70.549132 456.269242 
L 68.090532 454.833878 
L 67.33404 453.71055 
L 65.631932 453.086478 
L 64.591756 455.270728 
L 64.308071 457.829421 
L 63.693421 459.888856 
L 63.740702 461.449034 
L 63.315175 466.004755 
L 62.180437 465.942348 
L 58.019729 463.258841 
L 55.750253 462.19792 
L 55.277445 462.322734 
L 54.94648 465.443091 
L 55.56113 466.254383 
L 60.241925 469.125111 
L 63.315175 470.872511 
L 68.043251 473.368796 
L 69.650797 474.616939 
L 70.785536 475.116196 
L 74.047908 477.238039 
L 75.797297 479.60951 
L 74.567997 481.980981 
L 74.709839 482.667459 
L 75.98642 483.104309 
L 78.350458 485.350966 
L 82.511165 487.472808 
L 83.598623 486.911144 
L 84.355115 484.227637 
L 83.45678 482.979495 
L 83.976869 481.294502 
L 84.922484 479.671917 
L 86.719153 479.921545 
L 88.468541 480.608024 
L 89.839684 482.293016 
L 91.541791 479.734324 
L 91.258106 481.107281 
L 89.697841 482.854681 
L 89.130472 484.789302 
L 87.948453 485.600594 
L 84.402396 483.790788 
L 84.213273 481.793759 
L 85.395292 479.60951 
L 84.07143 479.17266 
L 81.849234 477.86211 
L 79.816162 475.67786 
L 73.196855 472.245468 
L 70.643693 470.498068 
L 68.468778 469.81159 
L 64.071667 467.003269 
L 63.598859 465.505498 
L 63.551579 462.697177 
L 64.26079 462.073105 
L 59.390871 459.015156 
L 56.270341 458.26627 
L 60.809294 459.015156 
L 61.896752 459.57682 
L 63.220613 459.514413 
L 63.740702 458.079049 
L 63.740702 455.457949 
L 63.03149 454.958692 
L 60.620171 455.145914 
L 59.29631 456.082021 
L 57.263237 455.582764 
L 55.844814 461.885884 
L 55.513849 465.131055 
L 55.041041 466.254383 
L 53.71718 465.193462 
L 49.272788 462.260327 
L 48.043488 461.698663 
L 41.235058 457.205349 
L 39.249266 455.333135 
L 35.845051 453.960178 
L 34.946716 454.209807 
L 33.197328 455.769985 
L 31.400659 457.891828 
L 30.786009 459.264785 
L 29.651271 463.383655 
L 29.036621 466.504012 
L 32.298994 468.251412 
L 33.150047 468.438633 
L 35.892332 469.998811 
L 40.904093 471.621397 
L 40.573127 469.873997 
L 37.452597 469.125111 
L 36.648824 468.313819 
L 34.426628 468.251412 
L 33.528294 467.876969 
L 34.048382 469.062704 
L 36.837947 470.123626 
L 34.332066 467.752155 
L 36.034174 463.134027 
L 38.303651 459.639227 
L 39.769354 456.269242 
L 38.25637 454.272214 
L 35.561366 452.774443 
L 34.190224 452.83685 
L 33.859259 452.150371 
L 35.892332 452.337593 
L 38.445493 452.212779 
L 39.249266 452.587221 
L 42.700762 453.086478 
L 44.686554 453.71055 
L 44.686554 453.086478 
L 42.653481 452.961664 
L 38.398212 452.087964 
L 36.601543 452.524814 
L 33.008205 452.025557 
L 29.367586 451.214264 
L 27.71276 451.151857 
L 27.476356 454.397028 
L 26.672583 458.827935 
L 26.53074 461.573848 
L 26.105214 462.572363 
L 25.963371 464.444577 
L 25.206879 467.814562 
L 25.206879 468.813076 
L 24.592229 472.120654 
L 24.403106 474.866568 
L 24.072141 476.364339 
L 24.213983 479.422288 
L 23.693895 480.982467 
L 23.788456 481.918574 
L 25.632406 482.667459 
L 27.003548 482.792273 
L 27.381794 482.230609 
L 29.083902 483.104309 
L 29.934955 483.978009 
L 29.982236 486.099851 
L 28.894779 487.722437 
L 28.37469 492.153343 
L 27.949163 492.402972 
L 24.686791 491.092422 
L 21.991787 490.842793 
L 21.755383 492.340565 
L 21.708102 495.398514 
L 20.95161 498.643685 
L 20.620645 501.202377 
L 21.377137 500.890342 
L 22.039068 501.514413 
L 22.984683 501.327192 
L 24.497668 501.951263 
L 27.003548 502.45052 
L 28.280129 503.573848 
L 31.920748 504.322734 
L 33.859259 505.07162 
L 35.18312 504.509955 
L 37.074351 507.443091 
L 37.972685 508.379198 
L 39.48567 507.318276 
L 40.10032 505.196434 
L 39.012862 502.949777 
L 37.263474 501.264785 
L 40.005758 502.637741 
L 40.478566 503.32422 
L 40.10032 505.695691 
L 39.580231 507.006241 
L 39.438389 510.251412 
L 38.965581 513.12214 
L 37.830843 516.928975 
L 38.587335 519.175632 
L 38.823739 521.359881 
L 37.830843 521.734324 
L 34.757593 519.799703 
L 33.764697 520.923031 
L 33.33917 520.423774 
L 33.859259 518.55156 
L 34.56847 514.245468 
L 36.459701 515.056761 
L 39.580231 515.930461 
L 39.674793 516.242496 
L 42.227954 517.24101 
L 43.740939 516.429718 
L 47.948927 512.560475 
L 46.577784 510.875483 
L 44.591992 509.003269 
L 43.126289 509.315305 
L 41.3769 508.878455 
L 41.566023 509.502526 
L 43.173569 509.752155 
L 44.875677 509.440119 
L 46.010415 509.752155 
L 47.145154 509.502526 
L 48.13805 510.813076 
L 51.069457 510.688262 
L 52.062353 511.187519 
L 52.913407 510.625854 
L 53.811741 511.81159 
L 54.851918 511.686776 
L 55.041041 510.625854 
L 56.17578 509.752155 
L 56.412183 510.50104 
L 57.736045 511.561961 
L 58.776222 511.873997 
L 58.823502 512.747697 
L 57.783325 513.309361 
L 57.168676 512.934918 
L 55.797533 513.434175 
L 53.10253 511.873997 
L 51.967792 512.498068 
L 53.859022 513.99584 
L 55.466568 514.370282 
L 56.884991 516.554532 
L 60.052802 518.426746 
L 60.714733 517.615453 
L 62.653244 517.802675 
L 60.856575 514.994354 
L 58.114291 514.619911 
L 57.263237 513.309361 
L 58.161572 511.749183 
L 58.256133 509.440119 
L 58.965345 509.19049 
L 60.667452 509.440119 
L 62.227717 511.81159 
L 64.26079 512.872511 
L 62.700525 512.872511 
L 62.98421 512.061218 
L 64.780879 512.810104 
L 65.253686 512.24844 
L 66.482986 516.492125 
L 65.348248 515.306389 
L 64.828159 515.493611 
L 65.111844 518.738782 
L 63.598859 517.553046 
L 63.220613 518.613967 
L 63.787983 519.175632 
L 63.693421 520.174146 
L 54.615514 498.394056 
L 54.426391 496.022585 
L 57.499641 494.774443 
L 58.397975 494.150371 
L 58.728941 494.649629 
L 60.241925 494.83685 
L 61.471225 495.523328 
L 63.362456 496.084993 
L 62.700525 497.145914 
L 62.41684 498.768499 
L 63.173333 502.200892 
L 64.733598 504.19792 
L 64.970002 503.573848 
L 66.813951 504.135513 
L 70.501851 506.444577 
L 71.400186 506.382169 
L 72.582205 509.252897 
L 74.14247 511.062704 
L 75.608174 513.871025 
L 77.593966 515.243982 
L 78.161335 516.616939 
L 80.005285 518.738782 
L 81.092742 518.98841 
L 83.031254 517.927489 
L 84.449676 518.177117 
L 87.050118 519.300446 
L 84.260553 514.807132 
L 85.537134 517.303418 
L 87.948453 520.610996 
L 88.657664 522.358395 
L 89.272314 520.610996 
L 89.745122 520.73581 
L 90.927141 519.612481 
L 91.399949 518.426746 
L 91.021703 517.428232 
L 92.440126 519.050817 
L 95.040568 524.480238 
L 97.07364 526.352452 
L 93.811268 530.034473 
L 92.629249 531.032987 
L 92.014599 530.346508 
L 93.054776 529.347994 
L 94.615041 532.031501 
L 96.128025 533.217236 
L 97.593729 535.151857 
L 99.53224 536.4 
L 96.884517 533.092422 
L 95.418814 532.655572 
L 93.811268 530.346508 
L 92.014599 528.536701 
L 94.520479 526.976523 
L 95.513375 526.040416 
L 95.513375 525.104309 
L 93.763987 522.358395 
L 95.560656 520.923031 
L 99.201275 519.42526 
L 100.903382 521.671917 
L 101.612594 520.985438 
L 101.37619 520.361367 
L 98.350221 516.679346 
L 97.546448 516.055275 
L 95.418814 513.246954 
L 97.404606 515.431204 
L 97.262764 515.805646 
L 98.91759 518.11471 
L 100.572417 517.615453 
L 104.071194 515.618425 
L 104.544001 515.056761 
L 106.104266 517.490639 
L 106.813478 517.989896 
L 107.286286 519.487667 
L 105.72602 518.55156 
L 104.733124 516.242496 
L 102.841894 513.309361 
L 102.179963 512.872511 
L 98.964871 515.805646 
L 97.735571 516.679346 
L 96.884517 516.80416 
L 93.196618 519.175632 
L 91.683633 519.050817 
L 90.974422 517.178603 
L 90.501614 516.928975 
L 89.225034 517.989896 
L 87.712049 520.174146 
L 86.908276 520.423774 
L 84.449676 515.431204 
L 82.227481 512.186033 
L 81.140023 511.062704 
L 79.059669 509.62734 
L 76.60107 508.379198 
L 76.128262 507.505498 
L 77.452123 505.945319 
L 77.499404 504.946805 
L 78.114054 504.509955 
L 79.296073 501.888856 
L 77.688527 499.767013 
L 77.924931 498.456464 
L 77.026596 497.645171 
L 76.175543 498.019614 
L 76.128262 498.893314 
L 74.804401 499.392571 
L 74.946243 500.640713 
L 74.473435 501.264785 
L 73.669662 500.328678 
L 71.731151 502.01367 
L 70.974659 501.888856 
L 68.374217 504.509955 
L 67.617724 506.943834 
L 65.631932 509.377712 
L 65.348248 511.37474 
L 51.636826 499.454978 
L 52.866126 498.206835 
L 54.473672 500.453492 
L 56.364903 502.138484 
L 57.499641 506.194948 
L 54.99376 502.263299 
L 55.135603 501.514413 
L 56.648587 500.70312 
L 57.310518 499.392571 
L 55.986656 498.518871 
L 56.081218 496.958692 
L 57.594202 496.209807 
L 57.45236 495.2737 
L 58.397975 495.2737 
L 58.114291 493.401486 
L 58.539818 492.090936 
L 56.459464 491.030015 
L 53.386214 490.218722 
L 52.677003 488.845765 
L 51.400422 488.034473 
L 48.941823 487.22318 
L 47.239715 485.350966 
L 47.665242 484.16523 
L 47.901646 486.037444 
L 46.625065 484.726895 
L 44.781115 483.416345 
L 42.275235 483.041902 
L 41.849708 481.793759 
L 37.547158 480.171174 
L 35.041278 478.29896 
L 30.927851 475.615453 
L 29.60399 474.242496 
L 30.455044 472.682318 
L 27.381794 470.934918 
L 27.334513 470.435661 
L 29.083902 466.067162 
L 30.502325 466.691233 
L 33.33917 468.563447 
L 37.830843 471.059733 
L 40.336724 471.99584 
L 42.889885 472.307875 
L 44.402869 472.807132 
L 48.658138 473.431204 
L 50.02928 473.243982 
L 51.305861 473.680832 
L 52.913407 473.743239 
L 53.007968 474.492125 
L 52.393318 476.738782 
L 52.440599 478.049331 
L 54.615514 477.986924 
L 56.554026 478.486181 
L 59.627275 481.232095 
L 61.660348 483.353938 
L 63.740702 484.227637 
L 68.61062 487.098366 
L 68.988867 487.784844 
L 68.374217 490.218722 
L 68.468778 491.092422 
L 67.523163 491.342051 
L 66.672109 490.655572 
L 65.49009 488.159287 
L 61.045698 486.848737 
L 60.431048 486.099851 
L 57.925168 485.47578 
L 53.291653 482.605052 
L 52.724284 481.856166 
L 50.02928 481.107281 
L 50.549369 480.295988 
L 51.211299 476.98841 
L 51.825949 476.239525 
L 53.10253 471.371768 
L 54.095426 470.310847 
L 57.215956 471.55899 
L 59.107187 472.744725 
L 60.241925 472.869539 
L 62.605963 474.492125 
L 64.308071 475.178603 
L 65.631932 476.364339 
L 66.766671 476.364339 
L 68.894305 474.055275 
L 74.804401 464.382169 
L 76.222824 461.573848 
L 77.310281 460.01367 
L 78.019493 457.829421 
L 79.248792 454.896285 
L 80.761777 453.398514 
L 81.376427 451.463893 
L 82.889411 449.7789 
L 83.882307 449.279643 
L 84.827923 447.157801 
L 86.624592 444.661516 
L 87.664768 442.477266 
L 88.563103 441.416345 
L 89.508718 439.544131 
L 91.636353 438.48321 
L 93.433022 435.86211 
L 95.087848 434.801189 
L 96.837237 432.117682 
L 96.458991 431.306389 
L 97.735571 429.871025 
L 98.444783 428.435661 
L 99.863206 427.187519 
L 99.910486 425.62734 
L 101.281628 424.816048 
L 101.801717 423.630312 
L 102.936455 422.257355 
L 103.267421 420.946805 
L 105.253213 419.32422 
L 106.908039 415.829421 
L 108.704708 412.58425 
L 109.744885 411.648143 
L 111.116027 408.6526 
L 112.818135 406.530758 
L 114.472962 405.657058 
L 117.593492 407.092422 
L 118.255423 407.154829 
L 121.044988 408.839822 
L 123.172622 408.902229 
L 127.947979 409.900743 
L 128.799033 409.651114 
L 130.028333 408.465379 
L 131.777721 406.156315 
L 133.479829 402.599108 
L 134.472725 401.03893 
L 137.215009 395.983952 
L 138.066063 394.985438 
L 141.56484 389.431204 
L 143.030543 386.810104 
L 146.198354 382.067162 
L 147.664058 380.382169 
L 149.602569 378.572363 
L 151.446519 375.264785 
L 151.966608 371.0211 
L 152.581258 369.024071 
L 153.621434 363.469837 
L 154.377927 358.789302 
L 154.425207 353.859138 
L 154.141523 352.923031 
L 153.810557 349.740267 
L 153.99968 347.431204 
L 155.276261 345.683804 
L 156.600123 342.688262 
L 158.491353 339.443091 
L 158.680476 338.631798 
L 157.07293 338.382169 
L 155.1817 337.695691 
L 152.533977 336.010698 
L 151.588362 335.698663 
L 148.136866 333.452006 
L 143.408789 331.392571 
L 142.179489 330.331649 
L 138.822555 328.896285 
L 135.465621 326.83685 
L 133.054302 325.96315 
L 131.163071 324.527786 
L 128.089822 323.154829 
L 127.853418 322.717979 
L 128.657191 320.845765 
L 130.075614 319.160773 
L 129.886491 318.536701 
L 132.014125 314.979495 
L 133.196144 312.108767 
L 134.80369 309.42526 
L 136.64764 304.619911 
L 137.687817 303.434175 
L 139.957294 299.315305 
L 140.855628 298.067162 
L 141.753963 296.070134 
L 143.692474 292.700149 
L 144.827212 290.328678 
L 146.813004 287.208321 
L 148.893358 283.214264 
L 148.987919 282.153343 
L 150.311781 279.781872 
L 151.588362 278.53373 
L 153.33775 274.914116 
L 156.45828 269.734324 
L 157.593019 267.42526 
L 158.018545 265.865082 
L 159.53153 262.495097 
L 161.139076 260.622883 
L 163.219429 256.628826 
L 164.590572 254.382169 
L 166.860048 250.138484 
L 168.278471 248.827935 
L 168.467594 247.517385 
L 169.46049 244.958692 
L 170.453386 244.459435 
L 171.824529 241.588707 
L 172.864705 241.08945 
L 174.424971 238.593165 
L 176.694447 233.725409 
L 177.403659 232.851709 
L 179.436732 227.422288 
L 179.95682 225.175632 
L 181.422524 223.178603 
L 182.037174 222.80416 
L 183.219193 220.682318 
L 183.64472 218.622883 
L 184.874019 216.126597 
L 185.441389 214.441605 
L 187.427181 211.196434 
L 188.420077 208.949777 
L 189.649377 207.389599 
L 190.169465 205.579792 
L 191.162361 203.957207 
L 192.013415 203.270728 
L 193.337276 200.462407 
L 197.167018 194.346508 
L 199.672899 189.166716 
L 200.38211 188.168202 
L 202.415183 183.674889 
L 203.360798 182.738782 
L 204.873783 180.554532 
L 204.68466 179.493611 
L 205.535713 177.933432 
L 206.812294 176.810104 
L 209.318175 173.440119 
L 210.358351 170.694205 
L 210.642036 169.258841 
L 211.682213 167.199406 
L 212.864232 165.452006 
L 214.282655 164.391085 
L 215.937481 160.833878 
L 217.639589 157.588707 
L 218.490643 156.715007 
L 217.923274 155.654086 
L 215.606516 154.468351 
L 212.580547 153.719465 
L 208.656244 152.346508 
L 206.528609 151.847251 
L 205.015625 150.099851 
L 201.847814 148.040416 
L 194.80298 144.545617 
L 193.620961 141.924517 
L 192.013415 139.740267 
L 191.351484 137.243982 
L 191.398765 135.059733 
L 191.11508 132.376226 
L 191.304203 129.255869 
L 190.831396 124.325706 
L 190.216746 123.514413 
L 190.642273 121.267756 
L 190.594992 117.460921 
L 190.831396 114.839822 
L 190.689553 110.034473 
L 190.736834 103.606538 
L 191.162361 96.866568 
L 190.925957 95.680832 
L 191.72973 87.630312 
L 191.587888 86.694205 
L 192.060696 80.70312 
L 193.006311 77.832392 
L 197.30886 70.281129 
L 198.916406 66.723923 
L 204.779221 56.11471 
L 206.623171 52.495097 
L 208.845367 48.875483 
L 210.689317 44.943834 
L 214.282655 39.514413 
L 215.701078 36.581278 
L 217.734151 33.086478 
L 219.010731 32.4 
L 221.138366 33.71055 
L 221.138366 33.71055 
" clip-path="url(#p736450e1d6)" style="fill: none; stroke: #000000; stroke-width: 3"/>
   </g>
  </g>
 </g>
 <defs>
  <clipPath id="p736450e1d6">
   <rect x="7.2" y="7.2" width="295.254188" height="554.4"/>
  </clipPath>
 </defs>
</svg>
