<?xml version="1.0" encoding="utf-8" standalone="no"?>
<!DOCTYPE svg PUBLIC "-//W3C//DTD SVG 1.1//EN"
  "http://www.w3.org/Graphics/SVG/1.1/DTD/svg11.dtd">
<svg xmlns:xlink="http://www.w3.org/1999/xlink" width="472.600224pt" height="568.8pt" viewBox="0 0 472.600224 568.8" xmlns="http://www.w3.org/2000/svg" version="1.1">
 <metadata>
  <rdf:RDF xmlns:dc="http://purl.org/dc/elements/1.1/" xmlns:cc="http://creativecommons.org/ns#" xmlns:rdf="http://www.w3.org/1999/02/22-rdf-syntax-ns#">
   <cc:Work>
    <dc:type rdf:resource="http://purl.org/dc/dcmitype/StillImage"/>
    <dc:date>2023-09-25T14:13:51.097477</dc:date>
    <dc:format>image/svg+xml</dc:format>
    <dc:creator>
     <cc:Agent>
      <dc:title>Matplotlib v3.6.2, https://matplotlib.org/</dc:title>
     </cc:Agent>
    </dc:creator>
   </cc:Work>
  </rdf:RDF>
 </metadata>
 <defs>
  <style type="text/css">*{stroke-linejoin: round; stroke-linecap: butt}</style>
 </defs>
 <g id="figure_1">
  <g id="patch_1">
   <path d="M 0 568.8 
L 472.600224 568.8 
L 472.600224 0 
L 0 0 
z
" style="fill: #ffffff"/>
  </g>
  <g id="axes_1">
   <g id="LineCollection_1">
    <path d="M 64.240652 460.271838 
L 65.343597 456.993592 
L 71.13406 459.300506 
L 72.972302 461.000337 
L 79.406149 464.885666 
L 82.0716 465.614165 
L 84.737051 462.335919 
L 85.472348 460.029005 
L 89.332657 461.60742 
L 96.961361 463.428668 
L 100.545933 464.76425 
L 108.082726 470.227993 
L 114.700398 473.749073 
L 129.590158 479.577066 
L 134.829148 482.369646 
L 137.035039 484.069477 
L 139.70049 489.533221 
L 140.619611 494.632715 
L 142.825502 499.36796 
L 146.961546 504.467454 
L 150.362294 507.38145 
L 155.87702 515.030691 
L 159.737329 519.887352 
L 163.965286 522.801349 
L 167.457946 524.015514 
L 169.3881 525.958179 
L 174.075617 527.293761 
L 176.005771 529.236425 
L 181.888146 533.364587 
L 185.656542 535.307251 
L 189.333026 536.4 
L 192.458038 528.265093 
L 194.755841 524.136931 
L 199.627182 517.701855 
L 200.730127 513.69511 
L 203.487491 510.416863 
L 204.038963 508.595616 
L 209.645602 501.310624 
L 209.921338 499.36796 
L 213.046349 493.41855 
L 213.597822 490.383137 
L 215.160328 488.561889 
L 217.366218 484.190894 
L 220.858878 480.062732 
L 222.880945 475.448904 
L 224.994923 472.77774 
L 227.016989 468.042496 
L 231.888331 460.393255 
L 233.450837 457.357841 
L 236.116288 453.715346 
L 238.138354 450.07285 
L 238.689827 446.794604 
L 240.344245 445.216189 
L 243.19352 440.359528 
L 246.318531 436.717032 
L 249.903103 431.010455 
L 255.325918 421.0543 
L 257.62372 417.89747 
L 258.91049 414.497808 
L 265.711985 401.506239 
L 267.366403 400.534907 
L 268.285524 397.499494 
L 270.950975 393.614165 
L 275.08702 385.600675 
L 277.109086 383.293761 
L 278.57968 380.136931 
L 286.02456 368.845194 
L 290.80399 358.646206 
L 293.377529 353.910961 
L 294.572386 352.696796 
L 296.686365 347.961551 
L 298.984167 345.047555 
L 301.098146 340.31231 
L 302.476827 338.612479 
L 309.462147 324.042496 
L 315.068786 313.843508 
L 318.837182 306.07285 
L 322.513666 299.273524 
L 327.47692 291.7457 
L 327.385008 289.681619 
L 330.601931 284.946374 
L 331.42914 283.00371 
L 336.851954 274.383137 
L 342.182856 264.184148 
L 350.179209 251.19258 
L 355.326287 241.357841 
L 358.359387 236.986847 
L 359.738068 233.465767 
L 362.035871 230.308938 
L 362.86308 227.880607 
L 364.60941 226.180776 
L 366.907213 222.052614 
L 367.642509 218.288702 
L 370.399873 214.889039 
L 371.778554 211.125126 
L 375.179302 206.632715 
L 376.006511 204.082968 
L 384.554337 188.420236 
L 386.852139 184.899157 
L 393.102162 172.271838 
L 396.227174 167.900843 
L 396.227174 166.808094 
L 392.918338 165.108263 
L 394.572756 166.686678 
L 396.04335 165.958179 
L 394.664668 163.529848 
L 397.973504 156.851939 
L 400.363219 154.423609 
L 401.925724 150.781113 
L 401.925724 148.717032 
L 403.396318 138.153794 
L 398.24924 135.604047 
L 394.940404 133.0543 
L 392.826426 136.575379 
L 392.55069 132.568634 
L 387.403612 130.140304 
L 387.955084 131.597302 
L 393.194074 134.754132 
L 394.848492 134.389882 
L 403.48823 139.853626 
L 405.602209 141.674874 
L 406.429418 145.438786 
L 405.326472 151.388196 
L 405.050736 156.851939 
L 406.888978 159.158853 
L 406.705154 153.937943 
L 407.440451 148.474199 
L 408.819132 144.831703 
L 409.462517 136.332546 
L 408.819132 133.782799 
L 409.002956 127.954806 
L 411.76032 127.954806 
L 410.657374 126.376391 
L 409.646341 128.319056 
L 408.635308 127.83339 
L 410.105902 116.541653 
L 411.300759 114.720405 
L 411.208847 106.585497 
L 411.944144 99.907589 
L 411.852232 96.02226 
L 413.139001 89.222934 
L 413.139001 77.931197 
L 413.782386 72.710287 
L 413.598562 63.361214 
L 413.047089 72.58887 
L 409.646341 71.981788 
L 407.532363 72.467454 
L 407.256626 75.017201 
L 403.48823 79.995278 
L 402.844845 82.302192 
L 402.201461 80.96661 
L 403.48823 79.266779 
L 395.308053 75.502867 
L 389.701414 72.103204 
L 391.355832 68.217875 
L 393.102162 65.789545 
L 393.01025 63.84688 
L 386.116842 59.354469 
L 380.694028 56.440472 
L 379.682995 54.376391 
L 383.543303 47.819899 
L 385.56537 43.691737 
L 388.598469 39.199325 
L 391.815393 33.371332 
L 407.348539 41.627656 
L 410.105902 43.57032 
L 415.71254 44.784486 
L 425.087575 44.420236 
L 433.083928 45.027319 
L 440.344984 46.241484 
L 444.572941 45.634401 
L 438.598654 44.420236 
L 425.271399 42.720405 
L 413.874298 43.327487 
L 410.841199 42.356155 
L 402.844845 37.742327 
L 393.01025 32.4 
L 393.377899 33.614165 
L 395.491877 34.342664 
L 410.381638 42.720405 
L 412.955177 43.691737 
L 415.71254 43.813153 
L 426.741993 43.327487 
L 437.311885 44.541653 
L 444.11338 45.998651 
L 439.242039 46.241484 
L 426.925817 44.784486 
L 419.572848 45.027319 
L 414.701507 44.784486 
L 410.01399 43.813153 
L 398.800713 37.256661 
L 390.528623 33.128499 
L 389.241854 33.978415 
L 385.013897 42.720405 
L 380.234468 51.583811 
L 377.017544 56.076223 
L 374.260181 61.782799 
L 378.396226 56.683305 
L 388.598469 61.661383 
L 391.723481 63.604047 
L 396.319086 65.303879 
L 402.293373 69.189207 
L 406.52133 70.889039 
L 407.440451 72.58887 
L 406.153681 75.624283 
L 409.370605 74.288702 
L 407.991923 71.981788 
L 406.98089 72.831703 
L 405.602209 76.838449 
L 403.02867 80.116695 
L 401.833812 84.244857 
L 396.778647 93.22968 
L 395.032317 94.808094 
L 391.723481 100.271838 
L 386.668315 98.693423 
L 392.366866 103.307251 
L 392.458778 103.914334 
L 386.852139 99.907589 
L 391.26392 102.457336 
L 392.458778 101.971669 
L 395.491877 103.064418 
L 391.26392 100.514671 
L 389.241854 105.007083 
L 392.366866 103.671501 
L 397.881592 106.099831 
L 403.763966 109.742327 
L 401.28234 116.055987 
L 397.422031 122.248229 
L 393.837459 130.018887 
L 391.907305 131.475885 
L 390.069063 131.354469 
L 390.528623 133.0543 
L 395.124229 136.453963 
L 398.984537 138.153794 
L 403.120582 140.824958 
L 400.914691 151.995278 
L 397.881592 157.337605 
L 396.227174 162.801349 
L 393.469811 163.529848 
L 384.921985 158.91602 
L 381.796973 157.701855 
L 381.613149 155.030691 
L 387.035963 146.774368 
L 389.609502 142.16054 
L 390.344799 139.489376 
L 394.113195 134.632715 
L 396.50291 135.361214 
L 405.23456 140.703541 
L 406.245593 145.681619 
L 404.683088 156.244857 
L 405.877945 157.459022 
L 406.705154 156.366273 
L 406.245593 154.180776 
L 407.072802 150.052614 
L 406.888978 147.624283 
L 408.635308 140.703541 
L 408.819132 136.332546 
L 408.451484 132.690051 
L 408.911044 122.612479 
L 409.922077 116.905902 
L 411.300759 114.477572 
L 409.462517 113.263406 
L 409.922077 110.835076 
L 410.657374 100.757504 
L 409.094869 99.786172 
L 405.969857 99.786172 
L 399.168361 96.265093 
L 396.135262 95.536594 
L 396.50291 93.351096 
L 399.719834 88.737268 
L 402.201461 81.937943 
L 403.855879 79.023946 
L 407.256626 75.38145 
L 408.635308 75.138617 
L 408.72722 79.509612 
L 407.624275 86.91602 
L 407.348539 94.201012 
L 406.337505 104.642833 
L 404.315439 109.98516 
L 406.061769 112.413491 
L 405.602209 115.448904 
L 405.877945 120.184148 
L 405.418384 127.226307 
L 403.48823 136.575379 
L 402.661021 137.668128 
L 398.616889 135.361214 
L 395.032317 134.389882 
L 397.697768 127.10489 
L 401.190428 122.005396 
L 403.580142 117.270152 
L 407.991923 109.742327 
L 411.852232 108.892411 
L 428.855971 109.499494 
L 435.197906 113.263406 
L 435.105994 112.049241 
L 428.304498 108.528162 
L 417.918431 108.042496 
L 409.278693 108.285329 
L 405.510296 110.227993 
L 400.638955 118.605734 
L 397.330119 124.797976 
L 394.021283 131.961551 
L 392.366866 133.175717 
L 390.069063 131.475885 
L 385.289633 130.018887 
L 379.03961 126.133558 
L 376.741808 130.140304 
L 373.34106 133.904216 
L 370.951345 139.125126 
L 369.113103 141.553457 
L 365.528531 148.959865 
L 361.11675 156.244857 
L 360.013805 159.037437 
L 356.613057 164.86543 
L 353.947606 171.543339 
L 352.844661 173.000337 
L 349.719649 179.678246 
L 348.340967 181.378078 
L 345.307868 187.206071 
L 344.572571 187.813153 
L 341.171823 194.612479 
L 339.057845 193.034064 
L 333.359294 189.998651 
L 329.407074 188.29882 
L 325.454853 185.627656 
L 318.469533 182.227993 
L 312.403335 178.342664 
L 310.657005 178.099831 
L 308.818762 179.921079 
L 306.796696 183.927825 
L 305.23419 185.263406 
L 304.131245 188.055987 
L 298.524607 197.040809 
L 295.859156 203.111636 
L 284.094406 223.388196 
L 283.083373 226.059359 
L 280.785571 229.459022 
L 276.37379 237.22968 
L 274.535547 241.722091 
L 271.226712 247.064418 
L 267.458315 254.106577 
L 264.425216 260.420236 
L 262.311238 263.577066 
L 256.520775 275.718718 
L 250.822224 285.189207 
L 241.998662 300.730523 
L 235.840551 297.69511 
L 228.211847 293.202698 
L 224.627275 291.624283 
L 219.020636 288.224621 
L 215.895625 288.103204 
L 212.770613 289.438786 
L 204.77426 287.253288 
L 199.53527 286.767622 
L 195.58305 285.553457 
L 192.09039 286.16054 
L 189.241114 288.831703 
L 186.8514 293.081282 
L 186.759488 295.266779 
L 187.862433 298.666442 
L 190.711708 301.094772 
L 194.29628 302.066105 
L 197.880852 303.887352 
L 199.902918 308.015514 
L 200.086743 313.964924 
L 202.384545 320.03575 
L 202.384545 323.678246 
L 201.741161 326.106577 
L 199.351446 330.234739 
L 195.307313 334.120067 
L 186.759488 337.398314 
L 182.623443 340.67656 
L 180.877113 343.954806 
L 179.498431 348.204384 
L 177.200629 350.996965 
L 174.994738 351.725464 
L 175.546211 347.111636 
L 176.649156 344.926138 
L 174.535178 342.254975 
L 171.869727 342.254975 
L 166.814561 340.919393 
L 164.700582 339.462395 
L 169.296188 337.762563 
L 168.560891 336.184148 
L 168.836627 331.57032 
L 165.343967 330.356155 
L 161.667483 331.327487 
L 159.829241 328.899157 
L 158.266735 329.263406 
L 156.152757 333.998651 
L 149.994646 343.590556 
L 149.075525 345.776054 
L 146.042425 350.389882 
L 144.112271 355.00371 
L 139.792402 362.410118 
L 138.781369 364.959865 
L 135.932094 369.69511 
L 133.358555 375.644519 
L 133.818115 376.494435 
L 135.840182 374.308938 
L 131.244576 380.744013 
L 131.244576 382.079595 
L 133.542379 382.808094 
L 136.667391 382.443845 
L 145.766689 380.258347 
L 152.38436 382.686678 
L 158.818208 386.81484 
L 162.86234 389.971669 
L 162.770428 389.24317 
L 158.726296 386.81484 
L 147.513019 380.86543 
L 142.457853 380.015514 
L 138.505633 376.373019 
L 135.656357 374.430354 
L 134.921061 374.794604 
L 132.531346 379.165599 
L 129.957807 380.136931 
L 129.314422 381.715346 
L 134.001939 383.900843 
L 138.413721 387.664755 
L 139.608578 389.728836 
L 139.240929 392.885666 
L 140.987259 394.342664 
L 144.204183 393.978415 
L 147.053458 392.642833 
L 147.788755 389.121754 
L 150.086558 387.664755 
L 152.476273 387.786172 
L 158.818208 392.03575 
L 163.689549 396.528162 
L 169.296188 398.470826 
L 179.038871 404.663069 
L 181.796234 408.062732 
L 186.116103 409.398314 
L 190.252148 408.184148 
L 194.112456 408.184148 
L 195.307313 407.577066 
L 195.674962 404.905902 
L 196.410259 405.755818 
L 195.399225 408.305565 
L 193.285247 409.034064 
L 188.046257 409.51973 
L 183.726388 413.040809 
L 178.946959 414.983474 
L 176.281508 415.347723 
L 171.685902 414.740641 
L 164.884407 411.340978 
L 161.483659 411.340978 
L 158.174823 412.555143 
L 155.601284 412.190894 
L 151.465239 410.733895 
L 149.443173 411.705228 
L 149.718909 413.283642 
L 152.660097 413.405059 
L 153.946866 415.10489 
L 154.498339 418.868803 
L 151.189503 422.025632 
L 146.869634 422.389882 
L 142.457853 422.147049 
L 137.126951 422.996965 
L 135.748269 422.754132 
L 136.759303 418.504553 
L 140.435787 420.568634 
L 139.608578 421.175717 
L 133.358555 420.325801 
L 127.292356 420.447218 
L 123.615872 421.661383 
L 118.468794 424.575379 
L 114.240837 428.703541 
L 114.884222 430.646206 
L 113.781276 434.167285 
L 114.148925 435.502867 
L 112.586419 440.116695 
L 110.196704 456.02226 
L 109.369495 457.964924 
L 110.01288 462.700169 
L 108.726111 465.249916 
L 106.887869 466.464081 
L 106.152572 469.256661 
L 102.476088 475.93457 
L 100.362109 478.72715 
L 96.317977 482.976728 
L 90.80325 486.376391 
L 88.413536 489.89747 
L 87.034854 489.654637 
L 89.332657 481.398314 
L 88.965008 474.598988 
L 86.299557 469.620911 
L 83.266458 468.163912 
L 78.762765 475.206071 
L 77.108347 479.0914 
L 74.442896 482.612479 
L 69.939203 480.305565 
L 64.240652 476.29882 
L 59.001662 473.870489 
L 53.486936 470.713659 
L 48.339858 468.528162 
L 48.523682 467.55683 
L 46.317792 466.949747 
L 37.586142 462.335919 
L 30.784646 458.329174 
L 28.027283 457.115008 
L 28.670668 456.02226 
L 28.670668 456.02226 
" clip-path="url(#pf4519c46ac)" style="fill: none; stroke: #000000; stroke-width: 3"/>
   </g>
  </g>
 </g>
 <defs>
  <clipPath id="pf4519c46ac">
   <rect x="7.2" y="7.2" width="458.200224" height="554.4"/>
  </clipPath>
 </defs>
</svg>
