<?xml version="1.0" encoding="utf-8" standalone="no"?>
<!DOCTYPE svg PUBLIC "-//W3C//DTD SVG 1.1//EN"
  "http://www.w3.org/Graphics/SVG/1.1/DTD/svg11.dtd">
<svg xmlns:xlink="http://www.w3.org/1999/xlink" width="342.24294pt" height="568.8pt" viewBox="0 0 342.24294 568.8" xmlns="http://www.w3.org/2000/svg" version="1.1">
 <metadata>
  <rdf:RDF xmlns:dc="http://purl.org/dc/elements/1.1/" xmlns:cc="http://creativecommons.org/ns#" xmlns:rdf="http://www.w3.org/1999/02/22-rdf-syntax-ns#">
   <cc:Work>
    <dc:type rdf:resource="http://purl.org/dc/dcmitype/StillImage"/>
    <dc:date>2023-09-25T14:13:51.156357</dc:date>
    <dc:format>image/svg+xml</dc:format>
    <dc:creator>
     <cc:Agent>
      <dc:title>Matplotlib v3.6.2, https://matplotlib.org/</dc:title>
     </cc:Agent>
    </dc:creator>
   </cc:Work>
  </rdf:RDF>
 </metadata>
 <defs>
  <style type="text/css">*{stroke-linejoin: round; stroke-linecap: butt}</style>
 </defs>
 <g id="figure_1">
  <g id="patch_1">
   <path d="M 0 568.8 
L 342.24294 568.8 
L 342.24294 0 
L 0 0 
z
" style="fill: #ffffff"/>
  </g>
  <g id="axes_1">
   <g id="LineCollection_1">
    <path d="M 104.464027 536.4 
L 97.716852 533.019512 
L 93.063627 528.102439 
L 89.573709 520.419512 
L 79.801937 510.585366 
L 61.4217 501.365854 
L 49.090655 491.531707 
L 37.224932 485.692683 
L 22.101952 474.629268 
L 23.265258 470.019512 
L 29.081789 461.414634 
L 31.17574 452.809756 
L 39.784205 439.902439 
L 47.694687 420.84878 
L 54.907185 408.556098 
L 62.817667 391.653659 
L 79.103953 363.995122 
L 81.430566 357.84878 
L 89.80637 342.790244 
L 102.370076 318.204878 
L 108.186607 308.985366 
L 119.121685 288.702439 
L 132.848697 261.658537 
L 141.689824 247.521951 
L 154.486192 225.087805 
L 170.074494 195.278049 
L 178.217637 183.292683 
L 196.597875 150.717073 
L 212.418838 119.985366 
L 238.011574 71.736585 
L 256.857133 38.546341 
L 262.673664 32.4 
L 268.490195 37.009756 
L 260.812374 43.770732 
L 262.208342 50.22439 
L 267.326889 54.219512 
L 272.212775 54.526829 
L 293.850269 64.360976 
L 313.859135 74.502439 
L 319.908327 78.804878 
L 320.140988 85.565854 
L 300.830106 123.673171 
L 269.886162 179.604878 
L 258.485762 197.736585 
L 242.664798 226.931707 
L 238.476896 236.458537 
L 218.46803 273.95122 
L 213.814806 289.62439 
L 205.904324 301.609756 
L 200.087793 314.209756 
L 193.573279 325.273171 
L 184.964813 337.258537 
L 173.797074 357.541463 
L 164.955947 370.141463 
L 154.020869 391.039024 
L 147.739016 401.487805 
L 143.551114 415.62439 
L 129.126118 438.673171 
L 121.91362 453.42439 
L 98.880158 489.073171 
L 85.851129 512.121951 
L 85.153145 516.117073 
L 88.875725 520.419512 
L 102.370076 526.873171 
" clip-path="url(#p49c907a877)" style="fill: none; stroke: #000000; stroke-width: 3"/>
   </g>
  </g>
 </g>
 <defs>
  <clipPath id="p49c907a877">
   <rect x="7.2" y="7.2" width="327.84294" height="554.4"/>
  </clipPath>
 </defs>
</svg>
