<?xml version="1.0" encoding="utf-8" standalone="no"?>
<!DOCTYPE svg PUBLIC "-//W3C//DTD SVG 1.1//EN"
  "http://www.w3.org/Graphics/SVG/1.1/DTD/svg11.dtd">
<svg xmlns:xlink="http://www.w3.org/1999/xlink" width="572.4pt" height="551.357268pt" viewBox="0 0 572.4 551.357268" xmlns="http://www.w3.org/2000/svg" version="1.1">
 <metadata>
  <rdf:RDF xmlns:dc="http://purl.org/dc/elements/1.1/" xmlns:cc="http://creativecommons.org/ns#" xmlns:rdf="http://www.w3.org/1999/02/22-rdf-syntax-ns#">
   <cc:Work>
    <dc:type rdf:resource="http://purl.org/dc/dcmitype/StillImage"/>
    <dc:date>2023-09-25T14:13:50.712863</dc:date>
    <dc:format>image/svg+xml</dc:format>
    <dc:creator>
     <cc:Agent>
      <dc:title>Matplotlib v3.6.2, https://matplotlib.org/</dc:title>
     </cc:Agent>
    </dc:creator>
   </cc:Work>
  </rdf:RDF>
 </metadata>
 <defs>
  <style type="text/css">*{stroke-linejoin: round; stroke-linecap: butt}</style>
 </defs>
 <g id="figure_1">
  <g id="patch_1">
   <path d="M 0 551.357268 
L 572.4 551.357268 
L 572.4 0 
L 0 0 
z
" style="fill: #ffffff"/>
  </g>
  <g id="axes_1">
   <g id="LineCollection_1">
    <path d="M 184.875239 59.02541 
L 190.900957 62.819901 
L 195.814234 64.900751 
L 201.283732 68.205631 
L 203.230502 67.226407 
L 206.104306 62.330289 
L 206.938636 62.330289 
L 216.857895 65.635169 
L 222.883612 68.328034 
L 229.74366 72.979346 
L 231.690431 74.692987 
L 235.027751 76.284226 
L 246.33756 80.20112 
L 252.548684 83.016388 
L 257.740072 86.566074 
L 258.945215 88.402118 
L 262.838756 101.254428 
L 267.65933 106.762561 
L 271.830981 110.557052 
L 274.982895 116.187588 
L 279.988876 121.818124 
L 280.174282 123.409362 
L 273.777751 135.894463 
L 268.864474 145.931505 
L 266.54689 149.603594 
L 264.87823 153.520488 
L 261.911722 159.028621 
L 261.726316 160.619859 
L 259.594139 162.333501 
L 259.686842 163.55753 
L 256.905742 168.820857 
L 253.939234 173.227363 
L 249.11866 182.040376 
L 248.191627 184.733241 
L 244.483493 192.199821 
L 234.842344 208.846622 
L 231.597727 213.865143 
L 224.088756 228.553497 
L 218.711962 236.999301 
L 218.155742 239.080151 
L 213.705981 245.934717 
L 212.130024 249.361999 
L 210.183254 251.932461 
L 209.441627 254.258117 
L 204.342943 264.539965 
L 202.025359 267.355233 
L 199.151555 272.251351 
L 192.940431 283.634826 
L 191.27177 287.918929 
L 184.040909 300.771239 
L 182.094139 304.932939 
L 178.478708 311.17549 
L 176.439234 313.623549 
L 174.214354 319.254085 
L 181.259809 324.150203 
L 185.431459 327.944694 
L 187.285526 328.679112 
L 189.04689 331.127171 
L 195.721531 333.942439 
L 198.409928 336.635304 
L 200.820215 335.288871 
L 201.747249 333.697633 
L 207.958373 338.96096 
L 208.7 340.797004 
L 213.891388 343.489869 
L 218.248445 343.979481 
L 222.698206 347.651569 
L 227.611483 349.242808 
L 234.656938 353.282105 
L 237.252632 354.261329 
L 242.536722 357.811014 
L 246.522967 359.27985 
L 250.972727 362.462326 
L 252.641388 360.381476 
L 254.495455 362.951938 
L 258.018182 364.66558 
L 266.825 370.051309 
L 269.884211 369.806504 
L 271.552871 371.520145 
L 274.797488 372.98898 
L 275.631818 372.254563 
L 277.763995 367.480847 
L 276.929665 367.358444 
L 269.6061 362.584729 
L 267.65933 363.074341 
L 269.976914 364.298371 
L 273.963158 363.808759 
L 277.022368 365.5224 
L 283.604306 370.418518 
L 286.107297 371.152936 
L 291.020574 374.090607 
L 296.397368 377.885098 
L 297.787919 377.885098 
L 300.105502 379.721143 
L 317.255622 390.002991 
L 325.135407 395.38872 
L 338.206579 403.344912 
L 352.390191 411.056298 
L 362.216746 417.054043 
L 365.183254 418.522878 
L 372.506818 422.929384 
L 405.972727 442.391454 
L 412.091148 446.308348 
L 427.943421 455.121361 
L 432.300478 457.814226 
L 438.97512 461.363911 
L 444.537321 464.791194 
L 466.415311 477.031489 
L 472.811842 479.846757 
L 475.963756 480.336369 
L 477.72512 482.784428 
L 481.989474 485.35489 
L 486.068421 482.662025 
L 492.650359 474.093818 
L 498.119856 466.382432 
L 501.54988 460.751896 
L 505.350718 455.855778 
L 507.019378 452.306093 
L 509.336962 449.735631 
L 511.098325 446.79796 
L 514.899163 442.146648 
L 516.845933 438.841768 
L 521.017584 433.456038 
L 524.169498 427.947905 
L 523.705981 426.601473 
L 519.163517 423.17419 
L 519.070813 422.194967 
L 524.725718 414.728387 
L 528.155742 410.689089 
L 529.268182 408.118627 
L 535.386603 400.77445 
L 539.372847 395.021512 
L 539.836364 392.328647 
L 539.094737 391.22702 
L 520.832177 379.353934 
L 517.494856 377.640292 
L 512.766986 374.335413 
L 501.642584 367.60325 
L 477.354306 356.342179 
L 472.070215 353.649314 
L 467.156938 351.690867 
L 458.999043 347.529166 
L 454.271172 345.815525 
L 443.517584 340.674601 
L 431.651555 332.596006 
L 426.089354 329.046321 
L 417.375239 323.048576 
L 417.004426 321.946949 
L 412.554665 319.621293 
L 411.534928 319.866099 
L 410.793301 322.436561 
L 414.686842 325.741441 
L 415.613876 323.415785 
L 411.998445 321.212532 
L 408.939234 321.946949 
L 407.270574 325.007023 
L 408.290311 327.699888 
L 409.958971 328.679112 
L 413.203589 327.822291 
L 415.243062 324.762217 
L 414.779545 321.702144 
L 413.667105 320.600517 
L 410.978708 320.72292 
L 408.568421 323.782994 
L 408.383014 326.843068 
L 409.773565 327.944694 
L 412.925478 327.455082 
L 414.223325 325.619038 
L 414.223325 323.415785 
L 412.276555 322.926173 
L 412.183852 324.639814 
L 414.130622 323.782994 
L 415.150359 322.069352 
L 417.746053 320.72292 
L 419.0439 319.131682 
L 419.785526 319.988502 
L 417.653349 323.048576 
L 419.136603 319.131682 
L 423.308254 312.03231 
L 429.241268 304.443327 
L 434.988876 296.119927 
L 438.4189 289.754973 
L 439.716746 288.653347 
L 443.610287 282.16599 
L 450.470335 271.639336 
L 450.284928 272.740963 
L 445.278947 279.228319 
L 442.775957 283.145214 
L 441.385407 283.145214 
L 438.789713 285.960482 
L 436.379426 286.205288 
L 429.333971 288.77575 
L 423.586364 297.833568 
L 422.010407 298.690389 
L 418.116866 295.140703 
L 412.832775 292.447838 
L 415.706579 294.406285 
L 418.116866 297.588762 
L 420.99067 297.833568 
L 420.527153 299.547209 
L 416.262799 306.034566 
L 413.852512 310.685878 
L 412.276555 312.644325 
L 409.310048 318.64207 
L 413.296292 322.191755 
L 412.740072 327.699888 
L 410.051675 333.57523 
L 407.826794 337.247318 
L 408.290311 338.226542 
L 400.22512 349.487614 
L 399.205383 351.568464 
L 394.106699 357.933417 
L 391.047488 363.074341 
L 388.080981 367.113639 
L 380.942823 375.06983 
L 379.459569 378.007501 
L 374.175478 384.372455 
L 371.023565 387.432529 
L 366.666507 394.409497 
L 364.905144 401.876077 
L 360.640789 408.975448 
L 358.972129 408.975448 
L 354.800478 412.157925 
L 352.946411 414.116372 
L 351.277751 417.421252 
L 351.741268 418.645281 
L 345.622847 426.601473 
L 347.755024 425.255041 
L 353.873445 416.442028 
L 353.966148 414.483581 
L 356.469139 410.811492 
L 357.766986 407.996224 
L 356.561842 405.792971 
L 351.741268 403.467315 
L 352.297488 400.896853 
L 356.654545 395.511123 
L 360.084569 392.328647 
L 362.494856 387.554931 
L 368.798684 380.822769 
L 373.063038 373.723398 
L 373.155742 372.13216 
L 371.116268 367.970459 
L 372.414115 365.5224 
L 376.400359 362.339923 
L 379.274163 358.912641 
L 381.313636 353.159702 
L 384.002033 347.651569 
L 389.193421 343.245063 
L 391.511005 340.429795 
L 392.345335 336.757707 
L 395.497249 334.064842 
L 397.536722 331.127171 
L 404.67488 323.660591 
L 407.919498 320.72292 
L 409.958971 316.928428 
L 411.071411 316.194011 
L 409.310048 320.72292 
L 408.939234 325.986247 
L 407.919498 325.619038 
L 409.588158 322.558964 
L 413.203589 322.191755 
L 417.004426 323.782994 
L 425.347727 329.41353 
L 429.890191 331.739186 
L 438.97512 338.471348 
L 443.054067 340.919407 
L 447.411124 342.877854 
L 455.105502 347.28436 
L 452.231699 354.628538 
L 440.458373 378.864322 
L 435.915909 384.005246 
L 434.896172 385.963693 
L 431.651555 389.14617 
L 430.817225 391.104617 
L 428.128828 394.287094 
L 425.347727 398.6936 
L 427.294498 399.550421 
L 432.022368 403.589718 
L 438.97512 410.199478 
L 465.859091 428.804726 
L 466.137201 430.273562 
L 461.038517 437.740142 
L 444.444617 460.751896 
L 444.722727 463.199956 
L 447.225718 464.791194 
L 453.622249 467.606462 
L 459.926077 471.645759 
L 463.819617 475.073042 
L 469.381818 478.010713 
L 471.606699 481.070786 
L 467.156938 478.133116 
L 464.653947 477.031489 
L 462.614474 474.705833 
L 461.223923 474.461027 
L 451.768182 469.1977 
L 448.801675 466.994447 
L 425.811244 453.285316 
L 417.838756 449.001213 
L 412.647368 445.696333 
L 402.264593 439.576186 
L 401.152153 438.596962 
L 395.404545 435.659291 
L 386.134211 429.661547 
L 375.195215 423.17419 
L 366.4811 417.054043 
L 356.005622 410.32188 
L 353.780742 410.199478 
L 340.709569 402.610495 
L 334.869258 398.938406 
L 332.644378 397.102362 
L 328.750837 395.143914 
L 324.579187 392.45105 
L 307.707177 383.76044 
L 300.939833 379.721143 
L 295.655742 376.905875 
L 291.391388 375.437039 
L 290.557057 374.457816 
L 287.405144 373.600995 
L 281.194019 370.418518 
L 277.022368 367.848056 
L 273.128828 366.256818 
L 267.288517 360.748685 
L 260.335766 357.321402 
L 252.641388 352.547687 
L 237.252632 345.081107 
L 226.40634 338.104139 
L 221.307656 335.778483 
L 219.824402 334.432051 
L 213.984091 330.882365 
L 211.017584 330.27035 
L 206.567823 327.210276 
L 197.668301 322.80377 
L 195.258014 320.967726 
L 190.622847 319.131682 
L 180.610885 313.623549 
L 177.829785 311.17549 
L 175.604904 312.521922 
L 174.399761 315.949205 
L 171.61866 320.110905 
L 164.944019 331.739186 
L 164.202392 334.799259 
L 161.792105 337.981736 
L 159.567225 343.367466 
L 156.693421 346.794749 
L 156.044498 349.487614 
L 154.097727 351.323658 
L 152.150957 354.506135 
L 148.535526 363.074341 
L 144.456579 369.316892 
L 142.417105 373.723398 
L 139.914115 377.640292 
L 138.708971 381.189978 
L 136.298684 383.638037 
L 133.42488 389.758185 
L 131.292703 392.818258 
L 126.564833 401.386465 
L 125.359689 405.058554 
L 123.505622 407.139404 
L 116.274761 419.257296 
L 114.513397 423.908608 
L 110.43445 429.171935 
L 106.355502 439.086574 
L 103.759809 442.269051 
L 100.422488 449.613228 
L 96.992464 453.040511 
L 95.416507 457.447017 
L 92.264593 462.95515 
L 90.22512 467.728865 
L 88.649163 469.442506 
L 86.609689 473.726609 
L 84.013995 477.031489 
L 73.35311 496.738364 
L 72.79689 498.941617 
L 70.57201 502.246497 
L 66.493062 510.692301 
L 61.301675 519.750119 
L 54.441627 516.812448 
L 52.30945 517.057254 
L 46.283732 511.793927 
L 42.482895 510.692301 
L 36.27177 507.265018 
L 33.76878 506.5306 
L 32.563636 504.694556 
L 34.973923 498.696811 
L 36.179067 497.350379 
L 35.622847 494.90232 
L 42.204785 485.232487 
L 44.893182 479.724354 
L 48.786722 473.114595 
L 49.342943 471.27855 
L 52.03134 468.096074 
L 52.402153 466.015223 
L 56.388397 460.017479 
L 57.686244 456.467793 
L 60.374641 450.95966 
L 62.414115 447.654781 
L 65.195215 441.901842 
L 70.108493 433.456038 
L 73.35311 429.049532 
L 75.763397 423.663802 
L 77.802871 421.582952 
L 78.915311 418.645281 
L 81.325598 414.361178 
L 82.530742 411.056298 
L 82.716148 406.16018 
L 86.516986 402.488092 
L 88.556459 398.938406 
L 90.132416 398.081585 
L 90.50323 396.367944 
L 95.138397 389.880588 
L 95.416507 386.575708 
L 96.899761 385.106872 
L 99.031938 381.434784 
L 100.607895 376.661069 
L 104.408732 369.928906 
L 104.594139 367.970459 
L 108.024163 364.787983 
L 111.825 357.321402 
L 114.04988 354.628538 
L 115.162321 350.834046 
L 117.665311 346.917152 
L 118.221531 344.469093 
L 120.724522 340.919407 
L 123.042105 338.593751 
L 125.081579 334.799259 
L 128.69701 326.598262 
L 130.36567 325.129426 
L 132.31244 320.967726 
L 137.689234 313.623549 
L 141.397368 305.78976 
L 141.768182 301.750462 
L 143.436842 299.914418 
L 142.602512 297.343956 
L 139.543301 294.283882 
L 137.133014 292.692644 
L 136.020574 288.898153 
L 136.576794 285.715676 
L 138.060048 283.879632 
L 132.497847 283.022811 
L 126.935646 280.941961 
L 120.446411 276.78026 
L 119.426675 275.556231 
L 114.513397 271.884142 
L 110.897967 267.477636 
L 108.580383 262.826324 
L 108.487679 260.500668 
L 110.063636 254.38052 
L 111.083373 253.278894 
L 108.951196 260.378265 
L 112.010407 254.38052 
L 117.387201 252.29967 
L 119.426675 249.606805 
L 123.042105 246.791537 
L 124.896172 246.424328 
L 127.306459 241.405807 
L 130.64378 237.611316 
L 130.829187 235.408063 
L 132.127033 232.715198 
L 133.70299 231.735974 
L 136.762201 227.451871 
L 140.192225 230.022333 
L 141.860885 234.06163 
L 143.993062 236.632092 
L 147.144976 238.345734 
L 149.277153 240.548987 
L 153.263397 240.916196 
L 158.918301 243.119449 
L 161.792105 246.669134 
L 164.944019 247.648358 
L 167.72512 244.098672 
L 168.55945 241.52821 
L 170.22811 246.546731 
L 172.7311 250.953238 
L 171.804067 252.911685 
L 173.936244 257.073385 
L 172.916507 262.091906 
L 172.17488 261.969503 
L 174.214354 257.930206 
L 172.45299 253.768506 
L 173.472727 251.565252 
L 170.877033 248.13797 
L 169.857297 244.221075 
L 168.28134 243.241852 
L 167.910526 236.876898 
L 170.042703 230.267139 
L 171.711364 227.941483 
L 171.525957 226.105438 
L 170.22811 228.431095 
L 170.50622 225.126215 
L 172.360287 224.881409 
L 171.155144 228.553497 
L 171.06244 226.717453 
L 172.7311 225.493424 
L 174.028947 221.821335 
L 175.883014 219.740485 
L 175.604904 217.04762 
L 176.995455 216.680411 
L 177.922488 212.763517 
L 176.810048 207.867399 
L 178.664115 204.440116 
L 181.167105 201.747251 
L 177.366268 200.400819 
L 176.624641 197.095939 
L 176.717344 194.158268 
L 177.922488 191.955015 
L 177.180861 190.118971 
L 175.048684 190.118971 
L 174.492464 191.710209 
L 176.624641 192.934239 
L 177.458971 190.853388 
L 176.624641 188.894941 
L 175.326794 189.996568 
L 173.194617 194.403074 
L 171.155144 196.116715 
L 169.022967 196.606327 
L 166.705383 195.015089 
L 170.78433 200.645625 
L 167.72512 197.340745 
L 165.871053 194.035865 
L 161.699402 191.710209 
L 154.839354 190.975791 
L 152.985287 190.241374 
L 150.204187 186.446882 
L 150.01878 182.040376 
L 150.575 177.144258 
L 149.277153 174.818602 
L 142.695215 170.534498 
L 133.14677 165.883186 
L 129.160526 162.945515 
L 125.545096 161.47668 
L 124.525359 160.252651 
L 112.38122 153.030876 
L 105.335766 149.8484 
L 94.582177 143.483446 
L 96.899761 139.688955 
L 98.197608 135.77206 
L 100.607895 130.753539 
L 99.124641 128.550286 
L 101.998445 126.714242 
L 105.613876 120.594094 
L 106.911722 119.247662 
L 110.341746 112.882708 
L 113.122847 108.843411 
L 115.069617 105.171322 
L 116.830981 103.090472 
L 120.168301 95.501489 
L 124.154545 87.6677 
L 125.915909 85.831656 
L 127.028349 82.893985 
L 130.180263 77.263449 
L 136.576794 67.104004 
L 137.689234 63.799125 
L 141.860885 57.678977 
L 142.973325 57.311768 
L 146.866866 60.249439 
L 147.701196 59.515021 
L 142.602512 57.189365 
L 142.509809 56.210142 
L 145.754426 49.110771 
L 146.217943 46.540309 
L 149.369856 41.276982 
L 151.68744 36.258461 
L 153.634211 33.810402 
L 152.336364 31.607149 
L 152.24366 34.177611 
L 149.46256 33.32079 
L 148.813636 34.177611 
L 151.780144 34.177611 
L 153.170694 36.992878 
L 155.210167 33.443193 
L 165.314833 39.930549 
L 170.50622 42.133802 
L 173.472727 43.847444 
L 176.995455 45.071473 
L 179.591148 47.02992 
L 179.127632 50.3348 
L 176.717344 54.251695 
L 177.088158 55.598127 
L 182.279545 58.780604 
L 185.060646 59.392619 
L 184.875239 60.983857 
L 182.279545 63.676722 
L 182.279545 63.676722 
" clip-path="url(#pf82a3a08a8)" style="fill: none; stroke: #000000; stroke-width: 3"/>
   </g>
  </g>
 </g>
 <defs>
  <clipPath id="pf82a3a08a8">
   <rect x="7.2" y="7.2" width="558" height="536.957268"/>
  </clipPath>
 </defs>
</svg>
