<?xml version="1.0" encoding="utf-8" standalone="no"?>
<!DOCTYPE svg PUBLIC "-//W3C//DTD SVG 1.1//EN"
  "http://www.w3.org/Graphics/SVG/1.1/DTD/svg11.dtd">
<svg xmlns:xlink="http://www.w3.org/1999/xlink" width="307.695666pt" height="568.8pt" viewBox="0 0 307.695666 568.8" xmlns="http://www.w3.org/2000/svg" version="1.1">
 <metadata>
  <rdf:RDF xmlns:dc="http://purl.org/dc/elements/1.1/" xmlns:cc="http://creativecommons.org/ns#" xmlns:rdf="http://www.w3.org/1999/02/22-rdf-syntax-ns#">
   <cc:Work>
    <dc:type rdf:resource="http://purl.org/dc/dcmitype/StillImage"/>
    <dc:date>2023-09-25T14:13:50.168141</dc:date>
    <dc:format>image/svg+xml</dc:format>
    <dc:creator>
     <cc:Agent>
      <dc:title>Matplotlib v3.6.2, https://matplotlib.org/</dc:title>
     </cc:Agent>
    </dc:creator>
   </cc:Work>
  </rdf:RDF>
 </metadata>
 <defs>
  <style type="text/css">*{stroke-linejoin: round; stroke-linecap: butt}</style>
 </defs>
 <g id="figure_1">
  <g id="patch_1">
   <path d="M 0 568.8 
L 307.695666 568.8 
L 307.695666 0 
L 0 0 
z
" style="fill: #ffffff"/>
  </g>
  <g id="axes_1">
   <g id="LineCollection_1">
    <path d="M 183.368208 35.829469 
L 191.559987 40.709867 
L 197.753771 43.611725 
L 200.151365 46.249778 
L 204.047455 44.798848 
L 208.443044 39.654645 
L 213.637831 42.292698 
L 218.632818 43.611725 
L 223.627806 45.458362 
L 229.521891 49.415441 
L 236.414973 53.240618 
L 239.112266 55.482963 
L 244.506853 57.725308 
L 254.496827 61.154776 
L 260.690612 64.84805 
L 264.486802 68.937032 
L 266.384897 77.246899 
L 268.083193 81.995394 
L 269.981288 85.688668 
L 274.576676 91.360482 
L 278.272967 93.734729 
L 281.269959 98.74703 
L 286.764445 104.946454 
L 287.164044 106.793091 
L 285.265949 110.22256 
L 282.468756 118.400523 
L 279.571664 122.357603 
L 273.677579 133.833133 
L 267.583694 147.419105 
L 264.686601 152.695211 
L 258.792516 161.13698 
L 251.899434 174.722952 
L 248.602742 180.262863 
L 246.305048 186.330385 
L 239.511865 197.278304 
L 236.414973 202.950118 
L 234.416978 204.401047 
L 226.624798 219.437948 
L 225.126302 223.52693 
L 221.82961 227.879717 
L 213.438032 242.916619 
L 212.638834 245.422769 
L 208.742743 252.677414 
L 199.751766 268.373829 
L 197.953571 271.143784 
L 190.161391 285.91688 
L 188.762794 287.499712 
L 184.567005 295.941481 
L 183.268308 296.732897 
L 180.571015 301.613295 
L 175.875727 308.736038 
L 172.579035 317.045904 
L 168.283346 326.410992 
L 166.58505 328.653337 
L 165.386253 332.742319 
L 162.78886 335.644177 
L 158.69297 343.29453 
L 157.094575 344.613557 
L 154.097582 343.822141 
L 152.199487 344.217849 
L 151.200489 348.043025 
L 149.402294 351.340591 
L 144.906805 364.530856 
L 142.109613 369.147448 
L 138.113623 376.797802 
L 135.815929 383.129129 
L 133.718034 386.6905 
L 130.021743 389.724261 
L 129.122646 392.889924 
L 129.122646 396.319393 
L 128.223548 400.144569 
L 124.227558 409.377755 
L 115.43638 424.546558 
L 109.742095 428.767443 
L 106.745102 434.703062 
L 104.946907 435.09877 
L 103.048812 441.825805 
L 99.75212 446.310495 
L 98.453423 450.267574 
L 96.755128 451.718503 
L 96.355529 453.828945 
L 94.057835 455.016069 
L 91.160742 462.53452 
L 87.364552 468.865847 
L 81.770166 479.813766 
L 80.970968 483.770845 
L 78.972973 488.387438 
L 77.174777 489.046951 
L 74.677284 492.872128 
L 71.380592 496.565402 
L 69.981996 501.97341 
L 68.783199 503.424339 
L 64.687309 513.580843 
L 58.993024 524.660665 
L 55.796232 529.145355 
L 52.899139 534.685266 
L 49.902147 536.4 
L 42.909164 532.838629 
L 40.411671 529.277257 
L 37.914177 527.298718 
L 33.218889 522.41832 
L 25.626508 518.065533 
L 21.03112 516.482701 
L 20.531621 514.636064 
L 23.129015 510.283277 
L 23.428714 506.062392 
L 26.026107 503.028631 
L 27.824303 497.884428 
L 31.820293 491.553101 
L 36.81528 486.672703 
L 38.014077 482.583722 
L 44.70736 472.03151 
L 49.102949 462.53452 
L 50.901144 458.04983 
L 57.594427 445.914787 
L 61.290718 439.847265 
L 66.385605 430.745983 
L 69.582397 426.657001 
L 71.280692 422.436116 
L 72.579389 416.896205 
L 75.676281 414.390055 
L 78.773173 410.696781 
L 81.770166 408.454436 
L 82.968963 405.816383 
L 83.568361 402.123109 
L 85.366557 399.089348 
L 87.96395 396.319393 
L 92.559338 392.626119 
L 94.357534 389.328553 
L 96.855027 387.613818 
L 100.251619 378.644439 
L 103.348511 375.083067 
L 104.447408 369.411254 
L 101.050817 365.586077 
L 100.851017 364.003245 
L 97.554326 359.782361 
L 102.948912 355.825281 
L 105.246606 353.319131 
L 106.545303 350.417273 
L 113.038786 343.954043 
L 114.836982 340.260769 
L 120.231568 333.929443 
L 125.726054 329.31285 
L 129.322445 322.849621 
L 131.32044 315.726878 
L 133.218535 312.429312 
L 136.515227 304.119445 
L 139.412319 299.898561 
L 139.21252 297.260508 
L 132.918836 293.039623 
L 125.825954 290.40157 
L 120.731067 286.312588 
L 114.237583 283.806438 
L 108.043799 279.981261 
L 98.653223 275.89228 
L 94.657233 273.781837 
L 87.764151 269.297147 
L 84.367559 262.43821 
L 80.671269 260.063962 
L 79.372572 258.481131 
L 78.173775 253.996441 
L 78.673274 242.652813 
L 77.973975 239.223345 
L 78.173775 234.738655 
L 77.374577 221.680293 
L 76.974978 220.361267 
L 78.273675 206.247684 
L 77.674276 200.707773 
L 78.373574 198.06972 
L 78.573374 180.526668 
L 79.272672 171.952997 
L 78.673274 161.005077 
L 79.572371 154.278042 
L 79.072873 149.925255 
L 79.872071 147.287202 
L 79.472472 144.912955 
L 80.07187 141.219681 
L 79.572371 135.943575 
L 82.169765 127.238001 
L 88.363549 118.136718 
L 90.861043 113.915834 
L 95.556331 108.24402 
L 98.853022 102.440304 
L 100.451418 98.74703 
L 103.048812 95.185658 
L 104.847007 90.437163 
L 107.344501 86.875792 
L 112.039789 78.434023 
L 114.637182 70.915572 
L 118.133673 63.001413 
L 123.128661 54.427741 
L 126.625152 49.547344 
L 130.521242 42.820309 
L 135.21653 33.982832 
L 136.914826 32.4 
L 141.210515 35.169956 
L 141.210515 35.169956 
" clip-path="url(#p0c8d82d5e9)" style="fill: none; stroke: #000000; stroke-width: 3"/>
   </g>
  </g>
 </g>
 <defs>
  <clipPath id="p0c8d82d5e9">
   <rect x="7.2" y="7.2" width="293.295666" height="554.4"/>
  </clipPath>
 </defs>
</svg>
