<?xml version="1.0" encoding="utf-8" standalone="no"?>
<!DOCTYPE svg PUBLIC "-//W3C//DTD SVG 1.1//EN"
  "http://www.w3.org/Graphics/SVG/1.1/DTD/svg11.dtd">
<svg xmlns:xlink="http://www.w3.org/1999/xlink" width="288.944298pt" height="568.8pt" viewBox="0 0 288.944298 568.8" xmlns="http://www.w3.org/2000/svg" version="1.1">
 <metadata>
  <rdf:RDF xmlns:dc="http://purl.org/dc/elements/1.1/" xmlns:cc="http://creativecommons.org/ns#" xmlns:rdf="http://www.w3.org/1999/02/22-rdf-syntax-ns#">
   <cc:Work>
    <dc:type rdf:resource="http://purl.org/dc/dcmitype/StillImage"/>
    <dc:date>2023-09-25T14:13:49.874687</dc:date>
    <dc:format>image/svg+xml</dc:format>
    <dc:creator>
     <cc:Agent>
      <dc:title>Matplotlib v3.6.2, https://matplotlib.org/</dc:title>
     </cc:Agent>
    </dc:creator>
   </cc:Work>
  </rdf:RDF>
 </metadata>
 <defs>
  <style type="text/css">*{stroke-linejoin: round; stroke-linecap: butt}</style>
 </defs>
 <g id="figure_1">
  <g id="patch_1">
   <path d="M 0 568.8 
L 288.944298 568.8 
L 288.944298 0 
L 0 0 
z
" style="fill: #ffffff"/>
  </g>
  <g id="axes_1">
   <g id="LineCollection_1">
    <path d="M 98.149286 224.236917 
L 97.142267 226.383773 
L 96.793684 228.223935 
L 95.980323 229.041785 
L 94.159943 231.597566 
L 93.075461 233.846653 
L 92.649414 235.584584 
L 91.410007 237.118053 
L 90.790303 238.395943 
L 89.434701 239.980527 
L 88.427682 242.843002 
L 87.653052 244.018661 
L 85.600283 248.312373 
L 80.720115 256.644219 
L 81.88206 257.819878 
L 82.191912 258.842191 
L 81.533477 261.500203 
L 81.843329 262.11359 
L 83.857366 263.187018 
L 83.779903 262.624746 
L 82.463032 261.909128 
L 81.378551 261.704665 
L 79.441976 260.222312 
L 78.125106 259.966734 
L 77.737791 260.273428 
L 76.304725 263.391481 
L 74.484345 266.305071 
L 74.445614 267.071805 
L 72.857623 270.240974 
L 72.354113 271.56998 
L 71.773141 271.978905 
L 71.114706 274.381339 
L 70.223881 275.608114 
L 69.294326 277.703854 
L 68.597159 278.163895 
L 67.396483 280.719675 
L 66.583121 281.333063 
L 65.808492 283.633266 
L 60.812129 292.271805 
L 60.037499 294.418661 
L 59.146675 295.440974 
L 57.403758 298.04787 
L 55.660841 301.217039 
L 54.731285 303.312779 
L 53.0271 306.175254 
L 51.787692 308.78215 
L 51.826423 309.651116 
L 50.43209 310.826775 
L 49.115219 310.980122 
L 48.805367 311.440162 
L 48.88283 312.8714 
L 47.294839 313.944828 
L 46.365283 315.78499 
L 44.46744 318.749696 
L 43.731542 319.618661 
L 42.64706 321.458824 
L 40.942875 323.554564 
L 40.82668 324.474645 
L 38.73518 327.746045 
L 37.263383 329.535091 
L 37.030994 330.404057 
L 35.404271 333.419878 
L 34.126132 334.902231 
L 33.81628 335.822312 
L 31.840974 338.940365 
L 31.105076 339.451521 
L 29.245964 342.416227 
L 28.510066 344.051927 
L 27.851631 344.665314 
L 26.612223 347.067748 
L 25.566473 348.141176 
L 23.784824 351.310345 
L 21.770787 354.479513 
L 19.718018 356.779716 
L 19.679286 358.466531 
L 21.886981 360.102231 
L 23.048926 360.766734 
L 25.256621 362.658012 
L 26.612223 364.242596 
L 28.85865 366.082759 
L 30.059326 367.360649 
L 32.693067 369.507505 
L 32.615604 370.785396 
L 30.95015 372.676673 
L 30.601567 373.545639 
L 31.182539 374.874645 
L 33.080382 376.203651 
L 34.474716 376.305882 
L 35.288077 377.021501 
L 36.178901 377.277079 
L 37.534503 378.657201 
L 39.122495 379.066126 
L 40.400634 379.883976 
L 40.749217 380.548479 
L 41.678773 381.110751 
L 42.64706 380.804057 
L 46.713867 382.28641 
L 47.953274 382.490872 
L 49.153951 383.359838 
L 51.865155 384.791075 
L 54.84748 385.864503 
L 55.389721 385.353347 
L 57.210101 386.682353 
L 58.139656 386.784584 
L 59.572722 387.397972 
L 61.625491 388.778093 
L 61.315639 389.238134 
L 60.347351 388.982556 
L 60.153694 390.413793 
L 61.08325 394.094118 
L 62.245194 395.218661 
L 63.445871 397.56998 
L 64.414158 398.38783 
L 64.917667 399.359026 
L 64.878936 400.790264 
L 63.871917 398.38783 
L 63.833185 397.161055 
L 64.99513 399.103448 
L 65.49864 402.170385 
L 65.963417 402.834888 
L 67.009168 405.186207 
L 67.628872 407.690872 
L 68.713353 409.428803 
L 69.178131 411.21785 
L 69.875298 412.597972 
L 69.797835 413.31359 
L 70.378807 414.847059 
L 72.044261 415.869371 
L 73.128743 417.709533 
L 74.60054 421.236511 
L 74.561808 422.156592 
L 75.336438 423.383367 
L 74.639271 423.996755 
L 76.653309 429.261663 
L 78.086374 432.481947 
L 78.822272 434.731034 
L 79.441976 435.497769 
L 79.674365 436.622312 
L 81.378551 440.251521 
L 81.649671 441.222718 
L 82.579227 442.500609 
L 84.20595 446.947667 
L 85.871404 450.934686 
L 86.452376 451.956998 
L 86.684765 453.643813 
L 88.195293 457.426369 
L 88.776265 459.419878 
L 90.596645 463.509128 
L 91.293812 464.684787 
L 93.695165 470.256389 
L 94.62472 471.636511 
L 95.825397 472.301014 
L 97.026073 472.301014 
L 97.21973 471.125355 
L 94.934572 470.051927 
L 93.191655 469.745233 
L 91.797322 468.876268 
L 90.596645 468.518458 
L 87.885441 468.160649 
L 87.730515 469.029615 
L 87.188274 469.131846 
L 86.917154 472.403245 
L 87.84671 472.863286 
L 89.899479 472.607708 
L 90.751571 473.16998 
L 90.248062 475.725761 
L 90.015673 479.303854 
L 90.015673 483.444219 
L 89.783284 487.584584 
L 89.512164 488.146856 
L 88.621339 488.45355 
L 85.406626 488.197972 
L 83.663709 488.249087 
L 82.734153 487.737931 
L 78.163837 487.533469 
L 74.058299 487.022312 
L 73.05128 483.90426 
L 67.435214 481.859635 
L 63.639528 480.683976 
L 62.322657 480.428398 
L 54.421433 477.821501 
L 52.407396 476.799189 
L 52.639785 475.521298 
L 54.150313 471.380933 
L 55.157332 469.796349 
L 55.815767 470.409736 
L 56.706591 469.540771 
L 57.093906 468.211765 
L 57.907267 466.780527 
L 58.991749 463.866937 
L 60.386083 459.419878 
L 61.276907 457.273022 
L 61.160713 456.506288 
L 60.347351 455.841785 
L 59.224138 456.046247 
L 58.255851 458.499797 
L 57.326295 459.726572 
L 56.512934 461.362272 
L 57.055175 459.470994 
L 58.333314 456.506288 
L 58.48824 455.637323 
L 59.301601 454.206085 
L 56.784054 453.183773 
L 57.055175 453.541582 
L 56.435471 454.717241 
L 55.467184 457.988641 
L 53.646803 461.668966 
L 52.988368 464.480325 
L 52.52359 465.758215 
L 51.671497 467.087221 
L 51.439109 468.058418 
L 51.632766 468.978499 
L 51.439109 470.307505 
L 50.780673 471.176471 
L 49.270145 471.125355 
L 46.442746 469.796349 
L 42.414671 467.649493 
L 41.678773 467.547262 
L 44.041394 468.518458 
L 45.745579 469.387424 
L 49.463803 470.972008 
L 50.819405 471.023124 
L 51.865155 469.643002 
L 51.671497 467.291684 
L 52.717248 465.400406 
L 53.414415 462.537931 
L 55.1186 459.215416 
L 56.474202 454.61501 
L 57.326295 454.15497 
L 59.340333 454.61501 
L 58.100925 458.602028 
L 57.171369 460.442191 
L 56.280545 462.89574 
L 54.421433 467.393915 
L 53.646803 469.796349 
L 52.484859 472.607708 
L 48.999025 483.137525 
L 46.520209 489.680325 
L 43.42169 498.318864 
L 42.918181 500.925761 
L 44.622366 500.516836 
L 46.249089 500.976876 
L 45.745579 501.999189 
L 45.396996 504.146045 
L 45.048413 504.708316 
L 43.963931 508.541988 
L 44.699829 509.053144 
L 49.463803 510.484381 
L 51.245451 511.302231 
L 54.382702 512.120081 
L 57.210101 513.397972 
L 59.843842 514.215822 
L 67.164094 516.771602 
L 69.487983 517.896146 
L 73.05128 519.071805 
L 75.336438 520.349696 
L 77.389207 521.167546 
L 78.589883 521.93428 
L 83.237662 523.927789 
L 83.857366 523.876673 
L 89.202312 526.585801 
L 93.540239 529.090467 
L 97.839434 531.237323 
L 100.047129 532.157404 
L 100.58937 531.85071 
L 102.022435 528.93712 
L 102.642139 526.790264 
L 103.339306 527.148073 
L 103.881547 526.48357 
L 104.888565 524.285598 
L 106.05051 522.39432 
L 109.962391 523.56998 
L 112.557401 524.796755 
L 115.92704 530.061663 
L 117.437568 532.821907 
L 118.831902 535.991075 
L 120.110041 536.4 
L 123.053635 536.348884 
L 125.493718 535.888844 
L 127.430293 535.786613 
L 133.704794 534.968763 
L 137.965258 534.202028 
L 138.197647 533.588641 
L 137.810332 531.492901 
L 137.035703 528.630426 
L 136.028684 522.138742 
L 136.570925 521.678702 
L 139.514518 521.832049 
L 143.19401 521.729817 
L 143.658788 521.065314 
L 142.884158 517.436105 
L 142.380648 512.733469 
L 142.070796 511.660041 
L 142.496843 511.353347 
L 146.718575 511.353347 
L 149.119928 511.557809 
L 150.591724 511.506694 
L 156.943689 511.966734 
L 159.499967 512.375659 
L 161.668931 512.47789 
L 164.612524 511.608925 
L 167.749775 511.148884 
L 172.203896 510.688844 
L 173.482035 510.126572 
L 175.302415 510.024341 
L 178.555861 509.462069 
L 184.365584 508.593103 
L 188.548585 508.184178 
L 191.608373 507.366329 
L 194.048457 506.957404 
L 196.643467 506.804057 
L 203.421477 505.781744 
L 204.738348 505.730629 
L 210.23822 504.759432 
L 214.65361 504.248276 
L 218.720416 503.430426 
L 224.375214 502.56146 
L 225.885742 501.794726 
L 232.470095 500.721298 
L 234.135549 500.567951 
L 237.660115 499.954564 
L 237.582652 498.36998 
L 236.575633 493.411765 
L 236.22705 490.498174 
L 235.839735 488.811359 
L 235.220031 484.875456 
L 234.600327 481.808519 
L 233.980624 476.032454 
L 233.283457 472.045436 
L 232.779947 470.154158 
L 232.198975 466.218256 
L 232.315169 463.71359 
L 232.005318 461.61785 
L 232.392632 457.988641 
L 232.198975 456.148479 
L 232.508827 448.941176 
L 232.237706 444.954158 
L 232.508827 442.040568 
L 232.005318 436.008925 
L 231.734197 435.446653 
L 231.424345 430.999594 
L 230.843373 427.114807 
L 230.76591 425.274645 
L 230.417326 422.974442 
L 229.875086 421.95213 
L 228.287094 420.980933 
L 226.854029 420.520892 
L 223.716779 419.140771 
L 222.322445 418.118458 
L 218.875342 416.482759 
L 216.47399 415.511562 
L 215.660629 414.489249 
L 214.033906 413.875862 
L 214.459952 412.597972 
L 216.783842 408.559838 
L 218.488027 405.237323 
L 219.262657 403.294929 
L 221.083037 399.767951 
L 222.244982 397.161055 
L 221.392889 396.956592 
L 217.093694 397.314402 
L 216.783842 396.956592 
L 215.040925 396.649899 
L 210.974118 396.905477 
L 208.340377 396.189858 
L 205.125663 393.276268 
L 197.224439 386.937931 
L 193.08017 383.359838 
L 191.337252 382.030832 
L 188.393659 379.526166 
L 187.192983 378.657201 
L 183.668417 375.539148 
L 179.291759 372.523327 
L 177.122795 370.427586 
L 175.68973 369.303043 
L 173.86935 368.229615 
L 174.063008 366.440568 
L 174.9151 365.36714 
L 174.876369 364.855984 
L 173.288378 363.424746 
L 175.612267 365.162677 
L 177.936157 367.105071 
L 178.633324 367.360649 
L 180.60863 369.149696 
L 183.281102 370.73428 
L 187.541566 374.261258 
L 191.453447 377.123732 
L 193.196364 378.810548 
L 194.358309 378.759432 
L 195.907568 376.765923 
L 195.713911 375.999189 
L 191.879493 372.83002 
L 190.523891 371.909939 
L 189.323215 370.785396 
L 186.147233 368.434077 
L 185.798649 368.025152 
L 187.11552 365.929412 
L 188.780974 364.140365 
L 190.523891 361.686815 
L 193.35129 358.670994 
L 195.907568 355.195132 
L 200.36169 349.725761 
L 203.150357 346.096552 
L 204.699617 334.953347 
L 204.505959 334.339959 
L 203.460209 334.697769 
L 200.555347 335.055578 
L 199.896912 334.8 
L 199.509597 333.573225 
L 199.393402 331.835294 
L 198.81243 328.15497 
L 198.308921 323.554564 
L 197.146976 315.529412 
L 196.914587 313.075862 
L 195.868837 306.3286 
L 195.17167 306.175254 
L 190.097845 306.890872 
L 196.372346 305.919675 
L 195.752642 303.466126 
L 195.907568 302.648276 
L 195.481522 300.96146 
L 194.861818 299.836917 
L 195.636448 298.814604 
L 200.439153 298.201217 
L 201.794755 297.741176 
L 202.724311 297.894523 
L 207.217164 297.434483 
L 207.991793 297.23002 
L 212.484646 296.667748 
L 216.202869 295.849899 
L 217.326083 295.901014 
L 224.375214 294.929817 
L 224.02663 294.111968 
L 222.748491 288.847059 
L 222.748491 287.518053 
L 221.431621 276.170385 
L 221.509084 273.819067 
L 223.058343 268.043002 
L 227.318807 251.021501 
L 226.931492 249.334686 
L 228.1709 248.107911 
L 228.674409 246.932252 
L 230.843373 238.498174 
L 232.508827 230.473022 
L 234.290475 224.134686 
L 235.142568 218.972008 
L 236.381976 214.576065 
L 237.2728 210.537931 
L 238.124893 208.186613 
L 241.881848 202.768357 
L 245.909923 197.554564 
L 246.994404 197.554564 
L 252.33935 200.365923 
L 253.346369 201.234888 
L 254.779434 201.79716 
L 255.244212 202.359432 
L 258.071611 203.944016 
L 260.782815 206.141988 
L 262.758121 206.602028 
L 263.997529 206.34645 
L 264.53977 205.119675 
L 265.469325 206.295335 
L 269.265011 207.368763 
L 267.212242 206.397566 
L 266.205224 206.244219 
L 264.53977 205.579716 
L 261.325056 203.790669 
L 256.251231 200.723732 
L 255.20548 199.854767 
L 253.11398 198.576876 
L 245.83246 194.692089 
L 244.593052 194.180933 
L 240.91356 191.829615 
L 238.938254 191.011765 
L 236.924217 189.836105 
L 235.95593 189.580527 
L 234.213012 188.302637 
L 231.850392 187.024746 
L 226.273057 183.6 
L 224.685066 182.884381 
L 223.368195 181.9643 
L 221.586547 181.044219 
L 219.843629 179.817444 
L 217.558472 179.05071 
L 215.118388 177.823935 
L 212.600841 175.881542 
L 210.393146 174.654767 
L 209.347396 173.888032 
L 205.590441 171.638945 
L 205.241858 171.58783 
L 201.484903 169.59432 
L 200.013106 168.623124 
L 197.689217 167.396349 
L 195.404059 165.913996 
L 193.390021 164.278296 
L 191.414715 163.358215 
L 189.594335 161.31359 
L 188.432391 160.49574 
L 186.8444 161.466937 
L 183.126176 159.371197 
L 182.119158 157.939959 
L 177.432647 155.690872 
L 174.37286 153.390669 
L 172.862331 152.572819 
L 171.429266 151.39716 
L 170.538442 151.346045 
L 169.144108 150.272617 
L 167.711043 149.608114 
L 165.697006 148.074645 
L 165.232228 147.461258 
L 164.535061 147.563489 
L 158.725337 144.649899 
L 157.253541 143.678702 
L 156.130328 143.269777 
L 154.968383 142.400811 
L 152.799419 140.100609 
L 152.29591 141.122921 
L 149.352317 139.742799 
L 148.267835 139.691684 
L 146.524918 138.771602 
L 146.137603 138.873834 
L 144.743269 137.442596 
L 144.084834 137.084787 
L 142.767963 137.289249 
L 141.64475 138.771602 
L 139.204666 137.953753 
L 136.222341 137.135903 
L 131.574562 135.142394 
L 130.954859 134.222312 
L 129.17321 132.995538 
L 128.863358 133.046653 
L 126.655663 131.768763 
L 120.148773 128.599594 
L 119.02556 126.963895 
L 117.786152 126.350507 
L 115.578457 124.663692 
L 113.913003 123.948073 
L 111.744039 122.516836 
L 111.472919 121.801217 
L 111.550382 119.807708 
L 111.317993 117.303043 
L 111.821502 115.00284 
L 113.293299 112.498174 
L 114.61017 111.475862 
L 116.43055 107.642191 
L 118.367124 104.830832 
L 123.866996 95.067748 
L 125.609913 92.460852 
L 127.159173 89.342799 
L 128.166191 87.707099 
L 129.831645 84.537931 
L 130.877396 83.004462 
L 132.349192 79.937525 
L 133.201285 78.864097 
L 135.13786 75.490467 
L 136.532193 72.832454 
L 139.785638 66.289655 
L 140.676463 65.011765 
L 142.458111 61.995943 
L 145.053121 57.906694 
L 147.6094 53.408519 
L 150.398067 48.143611 
L 152.334641 43.747667 
L 156.362716 36.489249 
L 156.091596 35.773631 
L 154.193753 34.802434 
L 151.560012 33.933469 
L 148.92627 32.4 
L 148.92627 32.4 
" clip-path="url(#pe85a8645b6)" style="fill: none; stroke: #000000; stroke-width: 3"/>
   </g>
  </g>
 </g>
 <defs>
  <clipPath id="pe85a8645b6">
   <rect x="7.2" y="7.2" width="274.544298" height="554.4"/>
  </clipPath>
 </defs>
</svg>
