<?xml version="1.0" encoding="utf-8" standalone="no"?>
<!DOCTYPE svg PUBLIC "-//W3C//DTD SVG 1.1//EN"
  "http://www.w3.org/Graphics/SVG/1.1/DTD/svg11.dtd">
<svg xmlns:xlink="http://www.w3.org/1999/xlink" width="311.321593pt" height="568.8pt" viewBox="0 0 311.321593 568.8" xmlns="http://www.w3.org/2000/svg" version="1.1">
 <metadata>
  <rdf:RDF xmlns:dc="http://purl.org/dc/elements/1.1/" xmlns:cc="http://creativecommons.org/ns#" xmlns:rdf="http://www.w3.org/1999/02/22-rdf-syntax-ns#">
   <cc:Work>
    <dc:type rdf:resource="http://purl.org/dc/dcmitype/StillImage"/>
    <dc:date>2023-09-25T14:13:49.688590</dc:date>
    <dc:format>image/svg+xml</dc:format>
    <dc:creator>
     <cc:Agent>
      <dc:title>Matplotlib v3.6.2, https://matplotlib.org/</dc:title>
     </cc:Agent>
    </dc:creator>
   </cc:Work>
  </rdf:RDF>
 </metadata>
 <defs>
  <style type="text/css">*{stroke-linejoin: round; stroke-linecap: butt}</style>
 </defs>
 <g id="figure_1">
  <g id="patch_1">
   <path d="M 0 568.8 
L 311.321593 568.8 
L 311.321593 0 
L 0 0 
z
" style="fill: #ffffff"/>
  </g>
  <g id="axes_1">
   <g id="LineCollection_1">
    <path d="M 215.300087 110.056918 
L 217.258205 110.496901 
L 218.216434 112.421825 
L 221.091118 113.081798 
L 223.215885 112.53182 
L 224.424086 111.926844 
L 224.215775 110.881886 
L 227.298771 111.981842 
L 229.4652 112.53182 
L 231.048359 113.30179 
L 234.339665 115.996683 
L 237.797619 117.426626 
L 241.380559 119.186556 
L 243.963609 120.231515 
L 245.713417 121.221475 
L 246.921618 122.266434 
L 247.75486 123.531384 
L 248.671426 127.711218 
L 249.254695 129.196159 
L 251.379462 132.331034 
L 254.045836 135.520908 
L 256.5039 138.050808 
L 256.71221 138.765779 
L 255.71232 141.240681 
L 254.504119 143.165605 
L 249.587992 152.84522 
L 249.088047 154.88014 
L 246.463335 158.345002 
L 245.755079 159.994937 
L 243.546988 163.569795 
L 242.838732 164.504758 
L 241.088924 168.409603 
L 240.380669 169.344566 
L 235.881162 178.694195 
L 234.83961 179.959144 
L 233.923044 181.719075 
L 232.881491 182.379048 
L 231.339994 185.128939 
L 231.006697 187.053863 
L 230.006807 188.428808 
L 226.88215 193.763597 
L 225.5073 197.008468 
L 224.340762 199.153383 
L 221.507739 203.608206 
L 216.841584 212.242863 
L 214.466845 217.027674 
L 213.216982 219.942558 
L 211.883795 221.812484 
L 211.467174 222.802444 
L 210.467284 224.067394 
L 209.050772 226.762287 
L 206.551047 230.557137 
L 205.634481 232.537058 
L 204.884563 235.341947 
L 202.384837 240.181755 
L 201.926554 241.5567 
L 201.093312 242.986643 
L 200.26007 245.35155 
L 199.385166 246.34151 
L 198.135303 249.146399 
L 197.385386 250.301353 
L 195.09397 254.591183 
L 193.3025 258.661021 
L 192.219286 260.475949 
L 191.219395 260.915932 
L 190.094519 262.180882 
L 188.261387 265.75574 
L 187.094848 267.185683 
L 186.428254 268.560629 
L 184.595122 271.090528 
L 182.76199 274.115408 
L 180.678885 278.955216 
L 179.17905 281.650109 
L 178.679104 283.90502 
L 177.720876 285.114972 
L 176.970958 286.544915 
L 176.179379 286.379921 
L 175.304475 287.094893 
L 174.429571 288.909821 
L 174.01295 289.18481 
L 171.263251 294.904583 
L 170.929955 295.949542 
L 169.971726 296.49952 
L 168.555215 299.799389 
L 168.305242 301.339328 
L 167.596987 301.724313 
L 165.722193 304.089219 
L 165.180585 304.364208 
L 163.930722 306.619118 
L 162.180914 308.709035 
L 160.139472 311.898909 
L 159.222906 314.6488 
L 156.806504 320.533566 
L 155.681627 322.898472 
L 154.598413 325.703361 
L 153.431874 327.793278 
L 150.932148 332.688084 
L 150.473865 333.843038 
L 148.140788 337.3079 
L 147.224222 339.177826 
L 146.765939 340.772763 
L 146.016021 341.762724 
L 145.266103 343.797643 
L 144.266213 344.787604 
L 142.683053 347.812484 
L 141.933136 352.322305 
L 141.22488 354.687211 
L 140.183328 359.25203 
L 140.22499 361.286949 
L 139.558396 362.936883 
L 139.64172 364.146835 
L 139.100113 366.676735 
L 138.516844 367.391707 
L 138.600168 369.646617 
L 137.558616 373.276473 
L 135.725483 376.906329 
L 135.142214 378.39127 
L 133.767365 380.976168 
L 133.600716 381.856133 
L 132.850799 382.846093 
L 131.184315 386.310956 
L 131.600936 387.135923 
L 134.26731 388.620864 
L 134.017337 393.185683 
L 133.559054 394.890615 
L 134.392296 397.970493 
L 133.225758 402.260323 
L 131.184315 406.660148 
L 129.89279 409.13505 
L 127.559713 412.15993 
L 126.226525 415.18481 
L 125.476608 416.394762 
L 123.93511 419.749629 
L 123.810124 421.784548 
L 122.476937 421.509559 
L 120.602142 423.654474 
L 119.685576 424.974422 
L 118.185741 428.274291 
L 116.352609 429.484243 
L 115.894326 430.254212 
L 115.644353 431.739153 
L 113.852883 434.984024 
L 112.39471 437.183937 
L 112.061413 438.998865 
L 111.60313 439.933828 
L 110.436591 440.758795 
L 109.978308 440.098821 
L 109.894984 441.198778 
L 107.311934 445.543605 
L 105.937085 447.358533 
L 105.103843 447.853514 
L 104.312263 449.833435 
L 102.729103 452.253339 
L 101.895861 453.848276 
L 100.562674 455.443213 
L 98.146273 459.678045 
L 97.604665 460.887997 
L 96.89641 461.05299 
L 93.855077 466.33278 
L 93.230145 466.827761 
L 90.438785 471.612571 
L 89.605543 472.657529 
L 88.189032 473.207508 
L 88.064045 474.142471 
L 86.230913 477.002357 
L 85.855954 477.93732 
L 84.689416 479.422261 
L 83.939498 481.072196 
L 83.439553 481.402182 
L 82.18969 483.4921 
L 81.231462 484.48206 
L 81.1898 485.25203 
L 80.481544 487.066958 
L 78.398439 489.981842 
L 77.648521 491.851768 
L 76.981928 492.786731 
L 75.690403 495.481624 
L 75.273782 497.461545 
L 75.523754 499.056482 
L 73.898933 499.001484 
L 73.607298 500.321432 
L 72.565746 500.651419 
L 71.732504 501.641379 
L 71.524193 503.841292 
L 69.27444 505.271235 
L 67.816267 507.086163 
L 68.607847 507.746137 
L 67.441308 508.846093 
L 65.566514 511.485989 
L 65.024906 511.980969 
L 61.900249 516.49079 
L 60.608724 517.920733 
L 59.567172 518.030729 
L 58.358971 519.845657 
L 57.94235 519.955653 
L 53.526168 517.260759 
L 52.234643 516.765779 
L 52.151319 517.095766 
L 50.651483 515.885814 
L 50.318186 516.655784 
L 50.151538 518.855696 
L 49.484944 521.880576 
L 50.776469 522.375557 
L 51.484725 521.605587 
L 52.026332 523.03553 
L 53.77614 522.705543 
L 54.692706 520.78062 
L 53.734478 518.855696 
L 51.693036 517.040768 
L 51.19309 517.700742 
L 50.234862 517.150764 
L 47.985109 513.245919 
L 46.901894 513.410912 
L 45.318735 514.400873 
L 42.777347 513.245919 
L 41.194187 511.980969 
L 37.319612 510.331034 
L 38.694462 511.760978 
L 35.111521 510.771017 
L 35.653129 508.626102 
L 35.736453 506.866172 
L 36.111412 505.601222 
L 36.986316 506.646181 
L 38.819448 507.526146 
L 40.152635 508.461109 
L 41.319174 507.581144 
L 42.152416 505.051244 
L 43.152306 503.511305 
L 42.527374 500.706416 
L 43.610589 501.256395 
L 42.610699 499.496464 
L 43.110644 498.121519 
L 46.193639 498.946486 
L 47.901785 498.671497 
L 48.651703 499.441467 
L 49.818241 499.056482 
L 52.651264 500.706416 
L 51.526387 503.181318 
L 51.568049 504.061283 
L 52.234643 505.546224 
L 53.859465 506.316194 
L 55.109327 507.471148 
L 56.94246 508.021126 
L 58.900578 509.341074 
L 60.567062 510.881013 
L 62.191884 511.430991 
L 63.90003 510.606024 
L 65.233217 511.375993 
L 66.48308 512.97093 
L 66.399755 514.400873 
L 67.649618 517.040768 
L 68.357874 516.820777 
L 67.816267 518.085727 
L 68.566184 520.725622 
L 67.982915 520.340637 
L 67.316322 520.725622 
L 67.732943 521.935574 
L 65.524851 519.845657 
L 65.441527 521.605587 
L 65.774824 522.485552 
L 65.149893 523.750502 
L 65.316541 524.520471 
L 66.316431 524.740463 
L 65.10823 528.975295 
L 63.858368 527.545351 
L 64.941582 530.130249 
L 65.483189 530.570231 
L 64.941582 533.980096 
L 63.233436 536.4 
L 62.191884 536.070013 
L 60.775372 534.090092 
L 59.108889 533.265124 
L 58.567281 532.660148 
L 58.483957 531.61519 
L 57.692377 530.35024 
L 56.567501 530.020253 
L 55.984231 528.700306 
L 54.734369 528.315321 
L 53.651154 526.995373 
L 52.692926 527.380358 
L 51.943008 525.785421 
L 51.026442 524.960454 
L 48.693365 524.135487 
L 48.151757 523.530511 
L 46.860232 522.980533 
L 45.568707 521.550589 
L 43.735575 521.000611 
L 43.152306 523.8055 
L 42.777347 524.520471 
L 41.569146 524.025491 
L 40.402607 522.980533 
L 39.361055 522.650546 
L 37.06964 521.000611 
L 35.986425 520.78062 
L 35.069859 519.185683 
L 33.403375 518.415714 
L 30.695339 516.710781 
L 29.945421 517.040768 
L 29.112179 518.800698 
L 28.403924 521.165605 
L 27.987303 523.530511 
L 26.987413 524.245482 
L 25.612563 523.8055 
L 23.487796 522.760541 
L 21.071395 522.04557 
L 21.238043 521.495591 
L 24.820984 522.980533 
L 27.029075 523.695504 
L 26.362481 525.290441 
L 26.320819 527.875338 
L 25.654225 529.360279 
L 23.779431 529.140288 
L 22.779541 528.425316 
L 24.196052 528.480314 
L 25.445915 528.150327 
L 25.404253 529.08529 
L 24.779321 529.800262 
L 24.279376 529.415277 
L 20.696436 528.09533 
L 21.279705 527.380358 
L 21.737988 527.655347 
L 23.821093 527.765343 
L 25.529239 528.975295 
L 26.654116 527.105369 
L 27.279047 525.015452 
L 27.73733 524.905456 
L 29.612125 525.56543 
L 32.778444 526.170406 
L 33.153403 526.940375 
L 33.111741 528.920297 
L 33.528362 529.965255 
L 35.653129 530.185247 
L 37.06964 531.12021 
L 39.736014 531.230205 
L 41.194187 527.545351 
L 42.069091 527.655347 
L 43.652251 526.610388 
L 45.0271 526.445395 
L 45.0271 527.32536 
L 45.693694 529.690266 
L 47.818461 529.415277 
L 49.859903 528.865299 
L 49.40162 531.12021 
L 47.901785 530.625229 
L 48.068433 527.930336 
L 48.776689 526.995373 
L 49.318296 527.710345 
L 49.359958 530.020253 
L 49.98489 530.460236 
L 50.443173 529.470275 
L 50.776469 530.35024 
L 51.359739 530.460236 
L 51.609711 528.865299 
L 52.234643 530.185247 
L 52.901236 530.295242 
L 53.56783 529.635268 
L 53.859465 530.735225 
L 54.859355 531.450196 
L 56.692487 530.35024 
L 57.775702 528.920297 
L 60.025455 526.83038 
L 60.317089 526.885378 
L 61.733601 525.290441 
L 62.441856 523.695504 
L 63.858368 522.265561 
L 65.024906 520.450633 
L 65.858148 520.230642 
L 66.941363 520.670624 
L 68.607847 520.340637 
L 69.357764 518.305718 
L 69.941034 517.425753 
L 71.440869 516.655784 
L 72.190787 515.335836 
L 71.024248 513.46591 
L 73.982257 512.475949 
L 76.0237 510.881013 
L 77.148576 509.561065 
L 78.565088 507.471148 
L 79.81495 506.866172 
L 81.023151 505.601222 
L 82.023041 504.171279 
L 85.022712 501.256395 
L 85.480995 500.541423 
L 86.897507 497.07656 
L 88.980612 493.611698 
L 91.230365 488.496901 
L 92.813524 486.351986 
L 95.979844 481.182191 
L 101.645889 471.282584 
L 105.103843 466.057791 
L 107.020299 461.05299 
L 108.145176 457.643125 
L 108.186838 456.598167 
L 109.02008 453.793278 
L 109.603349 451.043387 
L 111.60313 448.018507 
L 114.852773 442.793715 
L 114.769449 442.40873 
L 115.894326 441.253776 
L 118.76901 436.248974 
L 121.35206 431.794151 
L 122.851896 428.824269 
L 125.559932 424.534439 
L 127.018105 423.049498 
L 127.601375 421.454561 
L 131.350963 415.129812 
L 132.809137 413.809865 
L 133.47573 413.534876 
L 134.683931 411.114972 
L 134.975566 409.575033 
L 135.808808 406.935137 
L 137.100333 400.775382 
L 137.433629 400.005412 
L 137.05867 399.345439 
L 137.891912 395.715583 
L 138.225209 395.000611 
L 138.266871 392.085727 
L 138.475182 391.75574 
L 137.350305 391.040768 
L 137.391967 388.180882 
L 137.64194 385.595984 
L 137.266981 384.716019 
L 137.975237 383.94605 
L 140.724935 379.106242 
L 140.474962 378.281275 
L 137.350305 376.521344 
L 136.142104 375.531384 
L 131.225977 372.726495 
L 128.559603 371.516543 
L 126.893119 370.471584 
L 124.268407 369.371628 
L 122.435275 367.996683 
L 120.893777 367.116718 
L 119.185631 366.456744 
L 118.5607 365.851768 
L 116.102636 364.586818 
L 115.227732 363.376866 
L 116.352609 361.50694 
L 117.185851 360.846966 
L 118.352389 361.781929 
L 119.185631 361.396945 
L 118.435713 362.386905 
L 117.602472 361.01196 
L 116.76923 360.296988 
L 117.97743 358.372065 
L 120.727129 353.20227 
L 120.935439 352.157311 
L 121.93533 350.892361 
L 122.393613 349.682409 
L 123.810124 348.087473 
L 123.93511 347.15251 
L 125.351621 345.832562 
L 126.059877 343.467656 
L 129.184534 337.692885 
L 129.684479 336.372938 
L 131.600936 333.348058 
L 132.267529 331.698123 
L 133.517392 329.993191 
L 133.850689 329.058228 
L 135.433849 326.913313 
L 136.475401 324.548407 
L 137.183657 323.668442 
L 137.558616 322.513488 
L 138.64183 320.533566 
L 140.808259 315.308773 
L 142.391419 313.053863 
L 144.307875 310.743955 
L 144.766158 309.039022 
L 146.59929 306.399127 
L 147.97414 303.154256 
L 149.432313 300.78935 
L 150.598852 299.579398 
L 150.890486 298.809428 
L 152.515308 296.334526 
L 152.765281 295.179572 
L 154.515089 291.659712 
L 155.764952 289.67979 
L 156.556531 287.479878 
L 158.306339 284.015015 
L 159.681189 282.255085 
L 161.181024 279.010214 
L 163.014156 275.985334 
L 164.222357 273.510432 
L 164.638978 272.135487 
L 167.388676 267.735661 
L 168.180256 265.700742 
L 169.63843 262.950851 
L 172.054831 259.156002 
L 172.721425 257.781056 
L 174.179598 255.911131 
L 177.429242 250.961327 
L 178.845753 248.10144 
L 180.762209 246.011523 
L 181.220492 244.636578 
L 182.345369 242.931646 
L 182.012072 242.381667 
L 183.678556 240.016761 
L 184.303487 238.03684 
L 185.55335 236.386905 
L 185.969971 234.791969 
L 186.928199 232.812047 
L 188.553021 229.952161 
L 189.052966 229.622174 
L 190.844436 226.652292 
L 192.219286 223.847403 
L 192.844217 223.462418 
L 194.427377 221.427499 
L 194.802336 219.062593 
L 193.885769 216.587691 
L 191.677678 214.827761 
L 191.219395 213.727804 
L 191.636016 211.692885 
L 192.260948 210.81292 
L 194.802336 208.393016 
L 196.343833 204.873156 
L 198.26029 200.858315 
L 200.510043 197.44845 
L 202.509823 195.633522 
L 203.6347 195.138542 
L 205.676143 194.973549 
L 207.717585 195.798516 
L 209.092435 196.898472 
L 210.258973 197.44845 
L 211.38385 197.44845 
L 212.883685 196.95347 
L 214.508507 195.798516 
L 215.383411 194.863553 
L 216.174991 193.43361 
L 216.883247 191.563684 
L 217.966461 189.583763 
L 218.883027 188.6488 
L 222.174333 186.558883 
L 223.424196 185.403928 
L 224.132451 184.35897 
L 225.132342 182.214055 
L 225.757273 180.234134 
L 226.007246 178.144216 
L 225.423976 176.329289 
L 224.424086 174.074378 
L 224.340762 172.589437 
L 225.007355 170.719511 
L 226.798825 168.244609 
L 228.798606 166.649673 
L 230.965035 165.274727 
L 232.04825 164.119773 
L 232.381546 162.68983 
L 232.506533 159.499956 
L 233.423099 156.475076 
L 233.964706 153.890179 
L 235.006258 151.030292 
L 236.756066 147.950415 
L 237.797619 146.630467 
L 240.422331 143.990572 
L 242.630422 140.360716 
L 243.546988 137.885814 
L 244.546878 135.905893 
L 245.96339 133.815976 
L 246.96328 132.826015 
L 249.962951 131.17608 
L 252.462677 130.6811 
L 255.962293 131.341074 
L 257.128831 131.396072 
L 259.003626 130.736098 
L 261.045068 128.316194 
L 262.003297 126.281275 
L 265.502913 119.901528 
L 267.502693 115.831689 
L 271.21062 109.781929 
L 271.960538 108.076997 
L 274.58525 103.072196 
L 275.001871 101.422261 
L 275.001871 96.91244 
L 275.79345 93.997556 
L 275.668464 92.12763 
L 275.001871 90.3677 
L 274.00198 88.882759 
L 273.585359 87.067831 
L 273.918656 85.58289 
L 274.543588 84.207944 
L 276.543368 80.578088 
L 278.668135 77.828197 
L 282.667696 73.48337 
L 283.292628 72.383413 
L 283.500938 71.118464 
L 283.292628 68.093584 
L 283.792573 63.63876 
L 284.292518 61.438848 
L 284.959112 59.788913 
L 285.709029 58.633959 
L 287.292189 57.149018 
L 289.958563 55.664077 
L 290.625157 54.729114 
L 290.125211 53.024182 
L 289.416956 52.364208 
L 287.583824 52.144216 
L 285.792353 52.859188 
L 283.750911 54.289131 
L 282.834345 54.56412 
L 281.417833 54.234134 
L 280.542929 53.134177 
L 280.459605 51.704234 
L 280.834564 50.824269 
L 284.250856 46.204452 
L 285.250746 44.609515 
L 286.292299 42.024618 
L 286.500609 40.319686 
L 286.000664 38.669751 
L 284.542491 37.019817 
L 282.584372 35.534876 
L 280.584591 34.379921 
L 277.918217 33.444959 
L 274.00198 32.89498 
L 271.877213 32.4 
L 269.877433 33.609952 
L 268.83588 35.479878 
L 269.210839 38.064775 
L 270.960647 39.384723 
L 273.252063 39.879703 
L 274.626912 41.199651 
L 275.293505 43.014579 
L 275.293505 45.104496 
L 276.126747 48.624356 
L 276.001761 49.944304 
L 275.251843 51.594238 
L 274.460263 52.694195 
L 272.377159 54.454125 
L 271.127296 55.114099 
L 268.83588 55.82907 
L 267.252721 57.149018 
L 266.294493 58.798952 
L 265.544575 60.778874 
L 264.419698 62.043824 
L 262.753214 63.088782 
L 258.836977 64.848712 
L 257.087169 66.333653 
L 255.545672 68.313575 
L 253.837526 71.778437 
L 252.629325 75.078306 
L 250.712869 78.158184 
L 248.213143 79.973112 
L 246.463335 81.458053 
L 245.588431 83.162986 
L 245.38012 84.207944 
L 245.463444 86.957835 
L 245.338458 88.662767 
L 244.463554 90.532693 
L 243.005381 91.742645 
L 238.380888 93.722567 
L 236.756066 94.987516 
L 235.381217 96.362462 
L 233.381437 98.837364 
L 231.923263 101.69725 
L 231.423318 103.622174 
L 231.339994 105.327106 
L 231.548304 106.867045 
L 232.881491 111.871846 
L 232.964816 114.236753 
L 232.381546 115.776691 
L 230.381766 119.07656 
L 228.256999 121.331471 
L 225.465638 123.311392 
L 224.340762 124.576342 
L 223.799154 124.191357 
L 224.257438 123.256395 
L 224.50741 121.221475 
L 224.424086 118.746574 
L 223.71583 116.216674 
L 222.174333 114.676735 
L 220.674497 116.381667 
L 217.966461 120.781493 
L 217.299867 121.11148 
L 213.550279 119.186556 
L 211.675485 118.031602 
L 209.050772 116.82165 
L 206.884343 115.501702 
L 205.21786 114.731733 
L 203.6347 113.631777 
L 200.551705 111.871846 
L 197.010427 110.001921 
L 197.260399 109.781929 
L 197.260399 109.781929 
" clip-path="url(#pfc28765360)" style="fill: none; stroke: #000000; stroke-width: 3"/>
   </g>
  </g>
 </g>
 <defs>
  <clipPath id="pfc28765360">
   <rect x="7.2" y="7.2" width="296.921593" height="554.4"/>
  </clipPath>
 </defs>
</svg>
