<?xml version="1.0" encoding="utf-8" standalone="no"?>
<!DOCTYPE svg PUBLIC "-//W3C//DTD SVG 1.1//EN"
  "http://www.w3.org/Graphics/SVG/1.1/DTD/svg11.dtd">
<svg xmlns:xlink="http://www.w3.org/1999/xlink" width="295.316951pt" height="568.8pt" viewBox="0 0 295.316951 568.8" xmlns="http://www.w3.org/2000/svg" version="1.1">
 <metadata>
  <rdf:RDF xmlns:dc="http://purl.org/dc/elements/1.1/" xmlns:cc="http://creativecommons.org/ns#" xmlns:rdf="http://www.w3.org/1999/02/22-rdf-syntax-ns#">
   <cc:Work>
    <dc:type rdf:resource="http://purl.org/dc/dcmitype/StillImage"/>
    <dc:date>2023-09-25T14:13:49.555164</dc:date>
    <dc:format>image/svg+xml</dc:format>
    <dc:creator>
     <cc:Agent>
      <dc:title>Matplotlib v3.6.2, https://matplotlib.org/</dc:title>
     </cc:Agent>
    </dc:creator>
   </cc:Work>
  </rdf:RDF>
 </metadata>
 <defs>
  <style type="text/css">*{stroke-linejoin: round; stroke-linecap: butt}</style>
 </defs>
 <g id="figure_1">
  <g id="patch_1">
   <path d="M 0 568.8 
L 295.316951 568.8 
L 295.316951 0 
L 0 0 
z
" style="fill: #ffffff"/>
  </g>
  <g id="axes_1">
   <g id="LineCollection_1">
    <path d="M 140.475023 171.588016 
L 131.67896 167.522719 
L 126.547923 164.134972 
L 120.977082 161.424774 
L 117.82516 159.488919 
L 116.652351 158.230613 
L 113.280527 156.972307 
L 115.626144 152.423046 
L 115.259641 150.777569 
L 116.798952 148.551335 
L 115.406242 147.873785 
L 112.32762 147.486614 
L 112.474221 149.906434 
L 115.699444 148.551335 
L 117.312056 149.325677 
L 120.024176 144.776416 
L 123.909104 136.839408 
L 130.212949 126.676167 
L 134.830883 117.38406 
L 136.223593 115.254619 
L 143.113843 102.76835 
L 147.951677 93.573036 
L 162.09868 68.406914 
L 167.889422 57.275744 
L 173.900065 46.144575 
L 173.900065 45.467025 
L 166.423411 41.208143 
L 164.590898 40.627386 
L 162.538483 38.885116 
L 159.533161 37.142846 
L 155.428332 35.690954 
L 150.443896 32.4 
L 152.49631 33.077549 
L 151.323502 34.723027 
L 150.223994 38.013981 
L 146.92547 45.079854 
L 146.85217 46.047782 
L 143.773547 53.210447 
L 143.113843 53.597619 
L 140.841526 58.243672 
L 140.181821 58.340465 
L 137.982805 61.147455 
L 135.343986 66.858229 
L 134.244478 70.536355 
L 132.998369 72.085039 
L 130.579452 77.505435 
L 129.186742 78.666948 
L 125.081912 86.507163 
L 122.149891 90.959631 
L 119.21787 96.670405 
L 117.82516 99.96136 
L 115.406242 102.76835 
L 114.746537 104.897791 
L 112.181019 108.769503 
L 109.6155 114.577069 
L 107.489785 118.545573 
L 105.657272 121.062186 
L 103.458256 125.901824 
L 101.699043 127.740887 
L 98.327219 134.80676 
L 95.835001 139.065642 
L 97.594213 140.03357 
L 99.500027 142.259804 
L 104.04466 143.227732 
L 106.75678 145.357173 
L 114.160133 149.228884 
L 116.798952 150.971154 
L 119.584372 152.132668 
L 121.563487 154.262109 
L 124.495508 156.488343 
L 127.280928 158.037027 
L 131.239157 159.392126 
L 132.998369 160.844018 
L 135.85709 161.521567 
L 142.160936 164.812522 
L 147.438574 168.393854 
L 150.590497 169.652161 
L 152.349709 171.104052 
L 154.841927 172.265566 
L 155.574933 173.233493 
L 157.187544 172.555944 
L 159.899664 174.975763 
L 166.203509 176.814826 
L 170.45494 178.653889 
L 174.779671 182.332015 
L 178.444698 184.461456 
L 182.989331 186.397311 
L 186.507756 187.558825 
L 193.471307 190.656194 
L 196.549929 192.398464 
L 198.235841 193.850355 
L 199.628551 196.850931 
L 200.068354 199.270751 
L 201.534365 204.013597 
L 203.220277 206.723795 
L 207.251806 209.821164 
L 211.210035 216.112694 
L 215.901269 221.629883 
L 214.801761 223.565738 
L 212.822646 228.50217 
L 208.571216 235.858421 
L 208.058112 237.697484 
L 201.534365 249.506203 
L 200.141655 253.087536 
L 198.235841 255.700941 
L 195.157219 261.024544 
L 193.544607 264.412291 
L 190.026182 270.510236 
L 185.554849 279.608757 
L 184.528642 280.770271 
L 182.183025 285.319531 
L 179.764107 289.288035 
L 178.957802 291.223891 
L 175.366076 297.031458 
L 172.067552 302.935817 
L 171.261246 305.065258 
L 169.648634 307.485078 
L 167.66952 311.550374 
L 163.051587 319.777761 
L 159.459861 326.843634 
L 154.915228 334.103092 
L 152.129808 339.329902 
L 150.737098 340.588208 
L 148.098279 346.686153 
L 147.145372 347.750874 
L 142.967241 355.687882 
L 141.501231 360.043557 
L 138.935712 363.721682 
L 136.443494 368.658114 
L 134.244478 371.465105 
L 132.265364 375.14323 
L 131.825561 377.272671 
L 128.600338 382.015518 
L 126.914425 385.016094 
L 123.396 395.082543 
L 119.950875 398.954254 
L 119.511072 401.083695 
L 117.751859 403.309929 
L 115.846045 408.052775 
L 113.207226 411.34373 
L 111.961117 415.021855 
L 108.662593 418.022431 
L 107.489785 420.442251 
L 106.463578 420.829422 
L 104.924266 424.313962 
L 102.798551 426.056232 
L 101.112639 428.379259 
L 100.086431 430.992664 
L 99.060224 431.089457 
L 97.814115 436.993816 
L 96.274804 438.348915 
L 96.641307 439.316843 
L 89.677756 449.867256 
L 88.578248 453.642174 
L 88.138445 456.545957 
L 87.258839 457.610678 
L 86.305932 461.385596 
L 83.593812 464.28938 
L 81.174895 469.129019 
L 79.708884 471.25846 
L 78.975879 474.452621 
L 77.143366 476.194891 
L 75.164251 479.776224 
L 74.797749 481.518494 
L 70.619618 487.713232 
L 69.666712 488.68116 
L 67.834198 492.1657 
L 67.614297 493.520799 
L 65.708483 496.908546 
L 65.415281 498.360438 
L 63.362866 501.941771 
L 62.629861 504.555176 
L 58.231829 512.395391 
L 56.98572 513.07294 
L 55.006606 517.428615 
L 53.027491 519.461264 
L 49.655667 521.009948 
L 49.215864 523.52656 
L 47.38335 524.784867 
L 47.016848 526.623929 
L 44.59793 532.141118 
L 38.807188 536.012829 
L 38.294085 535.819243 
L 41.81251 534.367352 
L 43.13192 532.431496 
L 45.037734 531.269983 
L 46.283843 536.109622 
L 46.210542 533.593009 
L 47.529952 531.947532 
L 46.357143 529.527713 
L 45.184335 531.076397 
L 43.718324 535.432072 
L 42.838718 536.4 
L 39.833396 535.044901 
L 36.974675 532.528289 
L 34.262556 532.141118 
L 24.880088 528.075821 
L 23.340777 526.236758 
L 21.288362 526.333551 
L 19.968952 524.494488 
L 19.968952 523.332975 
L 22.534471 520.332399 
L 23.414077 518.202958 
L 21.654864 517.622201 
L 21.361662 516.654273 
L 23.120875 514.331246 
L 26.566 507.84613 
L 28.178612 506.10386 
L 28.984917 503.780833 
L 31.550436 500.87705 
L 32.283441 498.747609 
L 34.262556 496.32779 
L 38.000883 490.326637 
L 38.220784 489.261917 
L 41.885811 482.099251 
L 42.252313 480.550567 
L 45.184335 477.259612 
L 47.823154 472.032802 
L 48.922662 468.064298 
L 50.535273 466.418821 
L 52.221185 463.031074 
L 51.708082 460.224083 
L 51.634781 456.836336 
L 52.954191 455.094066 
L 54.713403 450.157634 
L 60.357544 443.672518 
L 61.383752 441.639869 
L 61.530353 439.897599 
L 62.409959 439.704014 
L 61.530353 436.897023 
L 62.55656 434.186825 
L 64.462374 431.767006 
L 65.928385 430.702285 
L 66.807991 427.701709 
L 68.713805 424.60434 
L 70.106515 421.023007 
L 73.478339 415.699405 
L 76.33706 413.182792 
L 76.33706 412.311657 
L 78.169573 409.214288 
L 80.221988 407.85919 
L 80.808392 406.310505 
L 78.022972 407.85919 
L 77.876371 406.697676 
L 79.562283 404.858613 
L 81.468097 400.21256 
L 84.106916 397.405569 
L 84.839921 394.404993 
L 86.379232 391.694795 
L 89.311254 388.694219 
L 89.824357 387.145535 
L 91.290368 385.693643 
L 93.489384 381.821932 
L 94.149089 379.30532 
L 96.348104 376.8855 
L 97.007809 375.433609 
L 100.746136 370.303591 
L 102.285447 367.786979 
L 103.531556 366.819051 
L 104.924266 363.334511 
L 104.631064 361.689034 
L 100.892737 358.785251 
L 100.013131 357.623737 
L 100.159732 353.171269 
L 101.33254 351.525792 
L 105.583971 347.654081 
L 107.563086 344.363127 
L 114.673237 329.84421 
L 119.511072 324.133436 
L 122.589694 322.487959 
L 124.642109 322.19758 
L 127.794032 322.584751 
L 131.165856 324.520607 
L 134.684282 325.778913 
L 138.715811 324.810985 
L 143.113843 321.423238 
L 144.946356 318.616247 
L 146.339066 314.938122 
L 149.271087 311.259996 
L 155.355031 307.097907 
L 157.627347 304.871673 
L 160.486068 299.257692 
L 161.805478 294.998809 
L 161.805478 291.90144 
L 159.753063 286.771423 
L 159.533161 282.996505 
L 160.486068 279.995929 
L 163.637991 275.543461 
L 166.423411 272.930056 
L 172.214153 268.767966 
L 173.386961 264.412291 
L 173.093759 261.798886 
L 174.706371 256.088112 
L 175.659278 254.055464 
L 177.198589 246.892798 
L 180.863615 239.149376 
L 188.780073 230.534819 
L 191.12569 226.275936 
L 193.691208 220.371577 
L 196.256727 215.822316 
L 198.015939 213.499289 
L 202.047469 210.885884 
L 206.812003 209.240407 
L 209.011019 208.950029 
L 214.215357 209.821164 
L 216.414372 209.821164 
L 219.126492 209.143614 
L 220.445902 208.272479 
L 222.791519 205.465489 
L 226.163343 199.851508 
L 233.639997 186.494104 
L 235.106008 184.26787 
L 237.305023 179.912195 
L 242.729263 170.716881 
L 244.268574 166.748377 
L 247.273895 161.61836 
L 248.593305 157.746649 
L 248.593305 150.583983 
L 249.912715 141.77584 
L 248.666606 138.484886 
L 246.394289 134.613175 
L 246.101087 131.99977 
L 246.834092 129.192779 
L 249.106409 124.062762 
L 251.525326 120.094258 
L 255.410254 115.254619 
L 261.200996 109.059881 
L 263.253411 105.381755 
L 263.400012 102.865143 
L 263.033509 98.703054 
L 264.426219 88.926983 
L 265.452427 85.248857 
L 267.138339 82.732245 
L 269.703858 80.215633 
L 271.756272 79.344498 
L 274.614993 76.6343 
L 275.347998 75.182408 
L 275.054796 72.569003 
L 273.148983 70.72994 
L 270.583464 70.245977 
L 267.28494 71.601075 
L 264.49952 73.633724 
L 262.007302 74.408066 
L 259.661685 73.633724 
L 258.268975 71.601075 
L 258.562177 68.503707 
L 264.939323 59.889149 
L 267.578142 54.565546 
L 268.384448 51.468177 
L 268.384448 49.145151 
L 267.138339 46.531746 
L 262.447105 41.7889 
L 259.00198 39.562666 
L 255.117052 38.013981 
L 244.708377 35.88454 
L 242.509361 35.981333 
L 240.750148 36.852468 
L 238.477832 39.078702 
L 237.744827 41.692107 
L 238.331231 44.886268 
L 240.750148 46.725331 
L 244.781677 48.08043 
L 246.027786 48.854772 
L 247.567098 51.371385 
L 248.080201 56.017438 
L 249.839414 62.308969 
L 249.399611 66.955022 
L 246.760792 71.310697 
L 243.462268 74.020895 
L 238.477832 75.763165 
L 236.132215 77.118264 
L 233.346795 80.796389 
L 232.61379 83.313002 
L 231.001178 86.119992 
L 228.50896 87.959055 
L 223.084721 90.088496 
L 218.246886 93.282658 
L 215.754668 95.79927 
L 213.848854 98.606261 
L 210.55033 105.284963 
L 208.351314 111.189322 
L 205.565894 115.448204 
L 202.047469 118.255195 
L 200.508157 118.739159 
L 197.796038 121.546149 
L 196.403328 125.321068 
L 196.036825 129.870328 
L 196.183426 134.032418 
L 194.644115 137.129787 
L 192.371799 139.065642 
L 189.073275 140.807912 
L 186.654357 141.582255 
L 181.52332 144.486038 
L 179.104403 146.518686 
L 176.392283 149.906434 
L 172.580656 156.875514 
L 171.920951 160.94081 
L 172.214153 166.748377 
L 174.486469 175.072556 
L 174.63307 177.97634 
L 173.313661 181.944843 
L 171.114645 186.300519 
L 169.208831 188.913924 
L 166.423411 191.624121 
L 161.438975 195.495833 
L 158.726855 199.077165 
L 157.847249 202.852084 
L 157.847249 210.885884 
L 156.381238 214.757596 
L 154.841927 216.790244 
L 151.176901 219.887613 
L 146.045864 224.727252 
L 142.674039 228.986134 
L 139.96192 232.857845 
L 137.029899 236.1488 
L 131.67896 240.601268 
L 129.040141 242.44033 
L 125.521715 246.215249 
L 121.636787 252.603572 
L 120.903782 254.926599 
L 117.82516 259.669445 
L 115.626144 261.411715 
L 113.207226 261.992472 
L 104.850966 258.314346 
L 103.97136 257.636797 
L 100.452934 256.959247 
L 96.054902 254.345842 
L 89.604456 251.345266 
L 86.745735 248.34469 
L 82.127802 246.60242 
L 78.389475 244.86015 
L 73.478339 241.278817 
L 68.860406 239.439754 
L 68.200701 238.568619 
L 70.106515 234.503322 
L 74.651148 228.018206 
L 73.185137 227.43745 
L 76.117158 223.468946 
L 77.72977 220.46837 
L 80.881693 215.822316 
L 81.614698 212.240983 
L 82.934107 210.40192 
L 83.30061 208.369272 
L 86.01273 203.43284 
L 86.599134 201.787363 
L 89.384554 198.109238 
L 90.484062 195.302247 
L 95.248597 187.75241 
L 97.667514 183.299942 
L 99.353426 181.170501 
L 101.772344 175.846898 
L 105.583971 170.136124 
L 106.097075 169.942539 
L 111.00821 171.007259 
L 111.00821 171.007259 
" clip-path="url(#paa3087e2d3)" style="fill: none; stroke: #000000; stroke-width: 3"/>
   </g>
  </g>
 </g>
 <defs>
  <clipPath id="paa3087e2d3">
   <rect x="7.2" y="7.2" width="280.916951" height="554.4"/>
  </clipPath>
 </defs>
</svg>
