<?xml version="1.0" encoding="utf-8" standalone="no"?>
<!DOCTYPE svg PUBLIC "-//W3C//DTD SVG 1.1//EN"
  "http://www.w3.org/Graphics/SVG/1.1/DTD/svg11.dtd">
<svg xmlns:xlink="http://www.w3.org/1999/xlink" width="572.4pt" height="413.706028pt" viewBox="0 0 572.4 413.706028" xmlns="http://www.w3.org/2000/svg" version="1.1">
 <metadata>
  <rdf:RDF xmlns:dc="http://purl.org/dc/elements/1.1/" xmlns:cc="http://creativecommons.org/ns#" xmlns:rdf="http://www.w3.org/1999/02/22-rdf-syntax-ns#">
   <cc:Work>
    <dc:type rdf:resource="http://purl.org/dc/dcmitype/StillImage"/>
    <dc:date>2023-09-25T14:13:49.163029</dc:date>
    <dc:format>image/svg+xml</dc:format>
    <dc:creator>
     <cc:Agent>
      <dc:title>Matplotlib v3.6.2, https://matplotlib.org/</dc:title>
     </cc:Agent>
    </dc:creator>
   </cc:Work>
  </rdf:RDF>
 </metadata>
 <defs>
  <style type="text/css">*{stroke-linejoin: round; stroke-linecap: butt}</style>
 </defs>
 <g id="figure_1">
  <g id="patch_1">
   <path d="M 0 413.706028 
L 572.4 413.706028 
L 572.4 -0 
L 0 -0 
z
" style="fill: #ffffff"/>
  </g>
  <g id="axes_1">
   <g id="LineCollection_1">
    <path d="M 227.278263 114.477458 
L 226.509551 114.985016 
L 232.121145 118.131876 
L 233.274212 119.146992 
L 240.269487 122.598386 
L 243.036849 121.075712 
L 245.419854 117.421295 
L 249.340283 118.842457 
L 255.028748 120.466643 
L 257.258012 121.58327 
L 263.945802 126.760362 
L 268.327457 128.892105 
L 281.011197 133.663151 
L 286.007822 136.505475 
L 287.698987 138.332684 
L 288.775184 140.870474 
L 290.081993 147.062682 
L 291.773158 150.412564 
L 298.153464 156.807795 
L 300.075243 159.751632 
L 305.91745 167.669536 
L 311.836529 170.714884 
L 316.833154 173.861744 
L 320.292356 175.48593 
L 325.28898 178.632789 
L 333.514194 182.693253 
L 340.201984 187.464298 
L 345.506093 189.697553 
L 351.96327 192.844413 
L 354.500018 194.57011 
L 356.959895 195.585226 
L 365.876948 201.168364 
L 371.872898 204.416735 
L 372.795352 203.604643 
L 376.100811 206.446967 
L 381.020565 209.695339 
L 385.171607 211.827082 
L 390.321974 213.958826 
L 396.779151 205.431851 
L 401.160807 198.123016 
L 405.773076 188.986972 
L 408.07921 185.637089 
L 412.922093 176.501046 
L 414.767001 172.542093 
L 419.840496 163.812096 
L 421.301048 160.563724 
L 423.607183 156.604772 
L 427.835096 148.280821 
L 430.141231 145.03245 
L 433.677304 138.434196 
L 435.291598 137.216057 
L 435.906567 135.084313 
L 441.518161 124.628618 
L 444.74675 119.248503 
L 452.049509 105.138391 
L 454.355643 101.788508 
L 459.352268 92.652464 
L 460.81282 89.607116 
L 465.425089 81.5877 
L 467.039383 78.44084 
L 472.112879 69.812355 
L 474.419014 65.244333 
L 485.795944 45.348059 
L 488.025208 40.780037 
L 489.562631 40.475502 
L 493.175575 42.404223 
L 500.017107 46.769221 
L 503.783794 48.494919 
L 505.859315 48.59643 
L 508.165449 44.738989 
L 505.782444 47.784337 
L 507.934836 50.423639 
L 509.395388 49.611546 
L 515.160724 44.942013 
L 521.002932 39.358875 
L 524.769618 36.313527 
L 531.380537 31.44097 
L 533.225445 30.425854 
L 539.836364 25.350274 
L 531.303666 31.339458 
L 523.770293 36.922596 
L 519.081153 40.881549 
L 511.855265 47.581314 
L 502.784469 56.311312 
L 500.478334 60.067241 
L 495.020482 70.319913 
L 492.791219 73.872819 
L 488.102079 89.099558 
L 485.411589 95.291766 
L 483.797294 98.134091 
L 478.493185 105.848972 
L 475.572081 103.920252 
L 477.340118 101.077927 
L 474.342143 106.9656 
L 470.80607 105.848972 
L 472.727849 108.386762 
L 469.729874 112.954784 
L 468.269322 114.274435 
L 460.966562 119.756061 
L 454.201901 123.511991 
L 448.744049 127.26792 
L 447.667853 128.892105 
L 444.054909 132.241988 
L 442.594357 133.155593 
L 438.827671 139.043265 
L 436.982763 144.42338 
L 436.060309 148.483844 
L 436.060309 154.980586 
L 438.212702 166.65442 
L 438.058959 168.786164 
L 436.675279 172.643605 
L 433.600433 178.226743 
L 432.601108 180.967556 
L 429.833746 184.824997 
L 426.06706 192.844413 
L 422.607858 198.021505 
L 419.456141 203.604643 
L 417.303749 209.187781 
L 415.535712 211.218013 
L 404.773751 230.505216 
L 402.237003 235.986843 
L 398.316574 241.569981 
L 397.470991 243.600213 
L 393.858047 249.690909 
L 391.936269 254.563465 
L 387.554613 261.973812 
L 386.01719 264.004044 
L 383.634184 268.978113 
L 382.404246 270.70381 
L 379.867498 275.77939 
L 379.560013 277.200552 
L 375.716456 284.712411 
L 376.715781 284.306364 
L 381.020565 285.829038 
L 384.01854 288.062293 
L 389.630134 290.701595 
L 392.01314 292.833338 
L 394.088661 293.645431 
L 393.473692 292.427292 
L 390.936944 290.295548 
L 386.70903 288.062293 
L 384.479767 287.351712 
L 378.637559 284.204853 
L 376.177683 283.39276 
L 375.024615 284.103341 
L 373.102837 289.178921 
L 368.64431 295.777175 
L 365.031366 301.969382 
L 364.185783 305.420777 
L 362.264004 309.075194 
L 359.727256 312.120542 
L 361.802777 310.800892 
L 364.877623 311.612984 
L 368.951794 313.338682 
L 373.025965 316.282518 
L 374.64026 316.891588 
L 374.255904 318.718796 
L 375.639585 319.733912 
L 378.483817 319.429378 
L 379.790627 320.139959 
L 375.178358 327.753329 
L 368.029341 337.701465 
L 364.416396 342.980069 
L 359.035416 350.390415 
L 351.194558 359.627971 
L 350.579589 361.150645 
L 348.273455 363.586923 
L 348.119712 362.977854 
L 345.813578 365.109597 
L 345.582964 366.023202 
L 337.895849 361.45518 
L 334.436647 360.541575 
L 332.59174 365.31262 
L 330.669961 367.748899 
L 332.437997 368.865526 
L 335.435972 369.677619 
L 331.28493 375.666804 
L 327.671986 374.042618 
L 326.288305 374.14413 
L 323.444073 371.60634 
L 321.368552 370.3882 
L 318.293706 369.373084 
L 315.680087 367.342852 
L 313.835179 365.31262 
L 310.606591 363.789946 
L 308.223585 363.485412 
L 303.303831 360.135529 
L 299.152789 358.206809 
L 301.92015 352.928205 
L 300.53647 351.811578 
L 300.767083 354.349368 
L 298.999047 357.191693 
L 297.769108 358.003785 
L 297.384753 360.135529 
L 296.231685 360.643087 
L 294.848005 363.688435 
L 293.310581 363.3839 
L 287.85273 360.541575 
L 276.937026 354.146345 
L 274.323407 352.928205 
L 270.787334 350.288904 
L 273.477824 344.908789 
L 273.631567 343.284603 
L 276.398928 339.934721 
L 277.705738 337.193907 
L 280.319357 333.742513 
L 283.240461 328.159375 
L 285.85408 322.170191 
L 290.312607 314.556821 
L 291.23506 314.150774 
L 296.077943 316.993099 
L 297.307881 318.211238 
L 301.22831 320.749028 
L 302.688862 322.271702 
L 304.380027 322.77926 
L 304.918125 321.256586 
L 301.22831 317.805192 
L 294.771133 314.049263 
L 290.54322 312.425077 
L 291.004447 314.049263 
L 292.926226 314.759844 
L 292.157514 315.77496 
L 296.462299 318.008215 
L 300.152114 320.444494 
L 304.380027 322.677749 
L 304.918125 320.952052 
L 297.000397 316.181006 
L 294.54052 314.049263 
L 291.388803 312.729612 
L 279.396903 305.725312 
L 278.55132 306.334381 
L 275.16899 312.425077 
L 274.015923 315.064379 
L 267.558746 326.433678 
L 266.328807 329.174491 
L 264.637642 331.610769 
L 261.793409 336.990884 
L 254.413779 347.548091 
L 253.030098 351.202508 
L 248.571571 361.252156 
L 246.265437 365.414132 
L 242.652493 370.591224 
L 239.500776 376.377385 
L 236.733414 382.265058 
L 233.658568 387.340638 
L 233.966053 388.355754 
L 228.969428 387.137614 
L 222.742865 384.092266 
L 221.051699 382.772616 
L 211.827161 377.798547 
L 209.290413 376.68192 
L 208.598573 375.565292 
L 207.214892 376.07285 
L 206.061825 374.245641 
L 200.065875 370.794247 
L 198.067225 370.794247 
L 193.531827 366.835294 
L 182.308639 360.643087 
L 177.773241 359.424948 
L 174.544653 358.105297 
L 172.084776 356.3796 
L 170.162997 355.77053 
L 170.701095 353.84181 
L 167.318765 353.638787 
L 162.706495 351.405531 
L 159.477907 348.664718 
L 157.094901 347.852625 
L 153.02073 345.720882 
L 149.100302 344.908789 
L 145.948584 343.08158 
L 145.333615 341.15286 
L 141.490058 339.731697 
L 140.875089 338.61507 
L 137.6465 347.446579 
L 135.801593 350.085881 
L 132.573004 350.187392 
L 131.727422 349.375299 
L 121.426687 343.792161 
L 114.585155 339.427163 
L 108.89669 336.381815 
L 103.59258 334.047048 
L 99.210925 331.103211 
L 96.289821 330.088095 
L 89.986386 325.723097 
L 85.297246 323.9974 
L 77.610131 320.139959 
L 76.380193 318.92182 
L 69.53866 315.16589 
L 64.234551 311.612984 
L 58.930441 308.973683 
L 56.778049 308.364613 
L 43.786824 300.852755 
L 39.635782 298.822523 
L 37.48339 296.995314 
L 36.099709 297.40136 
L 33.716704 303.08601 
L 32.563636 302.984498 
L 38.636457 291.818222 
L 39.712653 290.600083 
L 41.096334 286.844154 
L 45.554861 278.31718 
L 45.554861 275.373343 
L 47.399769 270.297763 
L 48.475965 260.349627 
L 49.014063 257.304279 
L 50.16713 254.461954 
L 55.855595 244.513817 
L 57.623632 241.773004 
L 59.084184 241.569981 
L 60.85222 242.78812 
L 67.693752 243.904748 
L 72.920991 247.356142 
L 80.300621 251.924164 
L 87.065283 258.522418 
L 88.525834 258.928464 
L 96.520434 262.379859 
L 103.285096 266.541834 
L 104.438163 266.034276 
L 106.052457 263.496486 
L 109.511659 256.492186 
L 110.664726 254.664977 
L 112.509634 254.766489 
L 114.123928 250.807536 
L 115.738222 248.980328 
L 118.351841 249.995444 
L 127.345766 255.172535 
L 132.111777 256.898232 
L 135.340366 259.131487 
L 137.339016 259.537534 
L 138.030856 260.55265 
L 141.028831 262.176835 
L 144.411161 263.09044 
L 144.795517 264.816137 
L 143.796192 267.353927 
L 144.411161 268.978113 
L 144.180548 271.312879 
L 145.6411 280.85497 
L 146.794167 284.610899 
L 146.717296 286.539619 
L 145.410486 289.686479 
L 145.794842 292.528804 
L 147.486008 293.949966 
L 149.100302 294.254501 
L 152.790117 293.746943 
L 154.711896 294.965082 
L 159.01668 296.589268 
L 167.01128 301.15729 
L 170.547353 301.563336 
L 173.468457 297.807407 
L 173.69907 296.08171 
L 175.00588 295.878686 
L 179.848762 298.314965 
L 184.230418 299.736127 
L 187.151522 299.634616 
L 189.842012 298.721011 
L 191.994404 295.980198 
L 192.916858 293.645431 
L 195.453606 288.975898 
L 198.835937 281.159505 
L 202.141396 276.388459 
L 206.215567 272.937065 
L 209.0598 272.124972 
L 212.749615 272.429507 
L 215.286363 273.2416 
L 218.976178 275.576367 
L 221.205442 275.77939 
L 223.972803 275.271832 
L 227.12452 273.343111 
L 229.276912 271.211368 
L 231.275562 267.861485 
L 233.197341 263.496486 
L 235.81096 260.146603 
L 241.576297 256.492186 
L 244.958627 253.345326 
L 249.263412 245.021375 
L 251.262062 243.701724 
L 251.646418 241.569981 
L 250.49335 241.062423 
L 247.034148 236.900447 
L 244.036174 235.986843 
L 240.500101 236.494401 
L 236.887156 235.276262 
L 229.507526 233.24603 
L 229.276912 235.885331 
L 230.660593 237.001959 
L 230.199366 237.915563 
L 228.892557 243.904748 
L 227.662618 246.138003 
L 227.278263 248.878816 
L 224.741515 256.390674 
L 224.126545 261.161719 
L 221.974153 268.16602 
L 220.359859 270.805321 
L 220.821086 271.515903 
L 222.051024 267.962997 
L 223.588447 261.669277 
L 224.280288 257.811837 
L 226.740164 251.518118 
L 227.432005 247.153119 
L 225.279613 246.645561 
L 223.204092 244.71684 
L 223.819061 243.295678 
L 226.048324 242.889632 
L 225.817711 240.757888 
L 227.201391 237.408005 
L 229.12317 237.306494 
L 229.891882 234.667192 
L 228.892557 232.941495 
L 225.817711 232.129402 
L 219.975503 232.738472 
L 217.054399 232.230914 
L 214.133296 230.606728 
L 211.519677 227.358357 
L 209.521027 225.531148 
L 206.215567 223.703939 
L 203.294463 223.500916 
L 199.989004 222.4858 
L 198.067225 219.643475 
L 197.605998 215.4815 
L 198.144096 212.33464 
L 197.75974 210.608943 
L 195.376735 208.680223 
L 192.609373 207.25906 
L 180.38686 202.386503 
L 173.084101 197.513947 
L 172.161647 195.17918 
L 168.010605 193.453483 
L 161.322815 189.799065 
L 158.171098 187.56581 
L 154.404411 185.840113 
L 151.867663 184.114415 
L 151.867663 182.997788 
L 153.6357 178.328254 
L 157.632999 171.222442 
L 162.091526 164.015119 
L 164.474532 159.04105 
L 167.70312 153.254889 
L 170.931709 148.686867 
L 172.469132 145.844543 
L 173.852812 141.987102 
L 176.620174 137.622103 
L 180.38686 129.602687 
L 182.001154 127.369431 
L 184.614774 122.699898 
L 186.844037 119.553038 
L 190.072625 113.259319 
L 191.302564 112.345715 
L 196.145446 115.797109 
L 196.068575 115.188039 
L 196.068575 115.188039 
" clip-path="url(#pc7aea385e2)" style="fill: none; stroke: #000000; stroke-width: 3"/>
   </g>
  </g>
 </g>
 <defs>
  <clipPath id="pc7aea385e2">
   <rect x="7.2" y="7.2" width="558" height="399.306028"/>
  </clipPath>
 </defs>
</svg>
