<?xml version="1.0" encoding="utf-8" standalone="no"?>
<!DOCTYPE svg PUBLIC "-//W3C//DTD SVG 1.1//EN"
  "http://www.w3.org/Graphics/SVG/1.1/DTD/svg11.dtd">
<svg xmlns:xlink="http://www.w3.org/1999/xlink" width="271.119697pt" height="568.8pt" viewBox="0 0 271.119697 568.8" xmlns="http://www.w3.org/2000/svg" version="1.1">
 <metadata>
  <rdf:RDF xmlns:dc="http://purl.org/dc/elements/1.1/" xmlns:cc="http://creativecommons.org/ns#" xmlns:rdf="http://www.w3.org/1999/02/22-rdf-syntax-ns#">
   <cc:Work>
    <dc:type rdf:resource="http://purl.org/dc/dcmitype/StillImage"/>
    <dc:date>2023-09-25T14:13:48.877644</dc:date>
    <dc:format>image/svg+xml</dc:format>
    <dc:creator>
     <cc:Agent>
      <dc:title>Matplotlib v3.6.2, https://matplotlib.org/</dc:title>
     </cc:Agent>
    </dc:creator>
   </cc:Work>
  </rdf:RDF>
 </metadata>
 <defs>
  <style type="text/css">*{stroke-linejoin: round; stroke-linecap: butt}</style>
 </defs>
 <g id="figure_1">
  <g id="patch_1">
   <path d="M 0 568.8 
L 271.119697 568.8 
L 271.119697 0 
L 0 0 
z
" style="fill: #ffffff"/>
  </g>
  <g id="axes_1">
   <g id="LineCollection_1">
    <path d="M 213.015348 32.4 
L 213.99135 33.585034 
L 217.309756 35.852055 
L 218.676159 36.521856 
L 220.003521 36.161194 
L 221.408964 33.894173 
L 221.916485 33.84265 
L 223.712328 34.667021 
L 226.679373 35.542916 
L 227.889615 36.109671 
L 229.256018 37.088612 
L 230.036819 38.119076 
L 234.175067 40.128481 
L 240.148198 42.292456 
L 242.178281 43.477489 
L 243.076203 44.353384 
L 243.817964 46.311266 
L 244.325485 48.835903 
L 245.067247 50.484645 
L 246.86309 52.597097 
L 248.619893 54.245839 
L 249.791095 56.100675 
L 252.016379 58.625312 
L 252.25062 60.377101 
L 250.571896 62.798691 
L 248.073332 67.43578 
L 247.292531 68.620814 
L 243.349483 76.246248 
L 241.63172 78.976978 
L 238.859875 83.768636 
L 237.844833 85.829565 
L 234.057947 92.682151 
L 233.120985 94.073277 
L 231.637462 97.0101 
L 229.841619 100.977387 
L 227.304014 104.841627 
L 226.913614 106.078184 
L 225.07873 108.860438 
L 224.141769 110.766796 
L 222.267845 113.600572 
L 221.682244 115.609978 
L 221.135683 116.12521 
L 219.730241 118.855939 
L 217.661117 122.153425 
L 216.411835 124.884155 
L 215.123512 126.73899 
L 214.420791 128.902965 
L 213.561909 129.984952 
L 212.937268 131.376079 
L 210.126383 135.858597 
L 206.534697 142.298998 
L 203.958052 147.399796 
L 203.372451 148.224167 
L 201.303327 151.985361 
L 200.327326 154.097812 
L 199.078043 155.849601 
L 197.12604 159.713842 
L 195.017876 162.959804 
L 192.792592 166.978614 
L 192.089871 168.67888 
L 189.669386 173.315968 
L 188.537224 175.067757 
L 187.678343 177.128685 
L 185.531139 180.426171 
L 184.203776 183.105377 
L 183.501055 183.981272 
L 182.681214 186.093723 
L 180.299769 190.06101 
L 179.675128 191.812799 
L 178.230646 194.337436 
L 178.152565 195.007238 
L 177.137524 196.604457 
L 176.044402 197.686444 
L 173.897198 201.138499 
L 170.852072 206.857575 
L 170.071271 209.433735 
L 168.158307 212.988837 
L 167.338466 213.967778 
L 165.425502 216.956123 
L 163.629659 220.047516 
L 163.083098 221.23255 
L 161.521495 223.65414 
L 160.506453 226.075731 
L 159.764692 228.651891 
L 158.86677 230.609773 
L 157.695568 232.155469 
L 157.149007 232.516132 
L 155.587405 234.680106 
L 154.728523 236.174279 
L 154.181962 237.874545 
L 153.20596 239.317195 
L 152.464199 241.378123 
L 151.605317 242.305541 
L 150.004674 245.448456 
L 149.458113 246.015212 
L 148.638272 247.715477 
L 145.983547 251.888857 
L 143.367862 257.041178 
L 142.548021 258.380781 
L 141.103538 261.57522 
L 139.932336 263.275486 
L 137.668012 267.345819 
L 136.41873 269.149131 
L 135.169448 271.879861 
L 133.724965 274.404498 
L 132.905124 276.310857 
L 129.820958 281.720793 
L 128.571676 283.524105 
L 126.736792 286.821591 
L 125.877911 290.016029 
L 124.667669 291.355633 
L 122.559505 294.550072 
L 120.295181 298.774974 
L 119.94382 299.753915 
L 118.460297 302.381599 
L 116.898695 305.472991 
L 116.391174 305.9367 
L 115.180931 308.152198 
L 114.59533 309.749417 
L 113.853569 310.779881 
L 113.580289 312.222531 
L 111.706365 312.428624 
L 111.003644 313.098426 
L 111.198844 314.644122 
L 110.769403 315.520016 
L 109.793402 315.932202 
L 108.544119 318.302269 
L 106.396916 321.187569 
L 103.46891 325.979227 
L 101.829227 328.297771 
L 100.775145 330.152607 
L 99.291623 331.904396 
L 97.8081 334.892742 
L 96.168417 337.211286 
L 94.372574 340.457248 
L 92.654811 342.878839 
L 91.210328 345.351953 
L 87.03304 351.946923 
L 85.120077 354.47156 
L 84.768716 355.553547 
L 86.75976 357.099244 
L 90.000086 359.211695 
L 88.906964 361.839378 
L 87.696722 364.364016 
L 86.91592 365.291433 
L 89.102164 367.867594 
L 92.654811 371.577264 
L 94.177373 372.762298 
L 94.255454 373.329053 
L 92.34249 375.750644 
L 90.429527 379.048129 
L 87.813842 383.169986 
L 86.486479 384.870251 
L 83.636554 389.558863 
L 82.582472 390.846943 
L 80.98183 393.629196 
L 80.591429 393.989859 
L 79.303106 396.359926 
L 77.663424 398.884563 
L 75.94566 401.203108 
L 70.12869 410.580331 
L 67.747246 414.083909 
L 67.434925 414.805234 
L 65.365801 418.051196 
L 63.296678 421.606297 
L 62.125475 422.688285 
L 60.759073 424.491597 
L 59.783071 426.758618 
L 58.338589 429.077162 
L 56.503705 432.374647 
L 55.176343 434.074913 
L 53.966101 436.032795 
L 52.443538 438.969618 
L 51.272336 440.927499 
L 49.515533 442.988428 
L 47.87585 445.770681 
L 46.119046 449.686444 
L 45.962886 452.365651 
L 45.455365 455.56009 
L 45.572485 456.487508 
L 46.353287 458.445389 
L 48.22721 460.609364 
L 49.515533 460.660887 
L 51.506576 460.403271 
L 51.740817 460.660887 
L 52.638738 464.576651 
L 53.65378 466.17387 
L 54.395541 466.276917 
L 56.230425 465.401022 
L 56.191385 463.958373 
L 56.855066 462.103537 
L 57.752987 461.948967 
L 59.704991 462.824862 
L 60.720033 464.061419 
L 62.242596 463.906849 
L 42.215039 508.422899 
L 42.136959 507.701574 
L 41.512318 510.792967 
L 41.629438 511.462768 
L 44.049923 512.596279 
L 44.596484 513.626743 
L 44.713604 515.945287 
L 45.221125 517.903169 
L 44.401283 521.45827 
L 43.152001 523.519199 
L 44.206083 525.374034 
L 43.893762 522.797874 
L 44.362243 523.003966 
L 44.206083 524.292047 
L 43.191041 523.828338 
L 43.425282 522.849397 
L 44.284163 521.664363 
L 44.128003 522.643304 
L 43.503362 522.643304 
L 43.112961 523.673768 
L 43.620482 524.858802 
L 44.245123 525.374034 
L 45.533445 525.528604 
L 47.485449 529.083705 
L 47.485449 530.320262 
L 48.656651 530.629401 
L 48.22721 531.196156 
L 49.203212 532.278144 
L 49.554573 533.66927 
L 47.95393 535.11192 
L 45.923846 536.4 
L 45.611526 536.193907 
L 43.698562 533.411654 
L 41.668478 533.720793 
L 39.755515 534.648211 
L 37.25695 532.793376 
L 36.319989 532.278144 
L 33.470064 529.135228 
L 33.118703 528.413903 
L 31.63518 527.177346 
L 30.190698 525.528604 
L 29.644137 525.63165 
L 28.082534 526.868207 
L 27.262692 527.795625 
L 25.037408 529.49589 
L 23.592926 530.268738 
L 21.601882 531.041587 
L 20.23548 532.53576 
L 19.962199 533.875363 
L 19.610838 533.978409 
L 18.869077 531.402249 
L 19.025237 529.341321 
L 19.415638 528.723042 
L 21.484762 527.950194 
L 22.655964 529.238274 
L 22.890204 530.320262 
L 21.406682 531.144633 
L 20.27452 532.53576 
L 19.884119 533.978409 
L 19.532758 533.875363 
L 18.947157 531.402249 
L 19.025237 528.465426 
L 20.19644 526.971253 
L 21.758042 526.456021 
L 24.217567 527.538009 
L 26.325731 527.795625 
L 27.067492 528.156287 
L 27.965414 526.971253 
L 29.956457 525.580127 
L 28.746215 523.570722 
L 26.638051 521.252177 
L 25.427809 519.603435 
L 25.583969 519.03668 
L 27.028452 517.954692 
L 27.535973 517.181844 
L 26.442851 516.615089 
L 25.662049 516.666612 
L 25.349729 516.048334 
L 26.325731 514.966346 
L 27.692133 515.069393 
L 28.355814 514.554161 
L 28.902375 514.914823 
L 30.229738 514.554161 
L 30.620138 511.359722 
L 30.229738 510.277735 
L 28.394854 509.917072 
L 28.277734 509.195747 
L 28.707175 507.907667 
L 29.644137 507.650051 
L 32.533102 507.495481 
L 35.500147 507.650051 
L 36.007668 508.938131 
L 39.950715 509.55641 
L 39.950715 509.55641 
" clip-path="url(#p973ee285d9)" style="fill: none; stroke: #000000; stroke-width: 3"/>
   </g>
  </g>
 </g>
 <defs>
  <clipPath id="p973ee285d9">
   <rect x="7.2" y="7.2" width="256.719697" height="554.4"/>
  </clipPath>
 </defs>
</svg>
