<?xml version="1.0" encoding="utf-8" standalone="no"?>
<!DOCTYPE svg PUBLIC "-//W3C//DTD SVG 1.1//EN"
  "http://www.w3.org/Graphics/SVG/1.1/DTD/svg11.dtd">
<svg xmlns:xlink="http://www.w3.org/1999/xlink" width="576pt" height="216pt" viewBox="0 0 576 216" xmlns="http://www.w3.org/2000/svg" version="1.1">
 <metadata>
  <rdf:RDF xmlns:dc="http://purl.org/dc/elements/1.1/" xmlns:cc="http://creativecommons.org/ns#" xmlns:rdf="http://www.w3.org/1999/02/22-rdf-syntax-ns#">
   <cc:Work>
    <dc:type rdf:resource="http://purl.org/dc/dcmitype/StillImage"/>
    <dc:date>2025-04-18T13:35:39.036990</dc:date>
    <dc:format>image/svg+xml</dc:format>
    <dc:creator>
     <cc:Agent>
      <dc:title>Matplotlib v3.10.1, https://matplotlib.org/</dc:title>
     </cc:Agent>
    </dc:creator>
   </cc:Work>
  </rdf:RDF>
 </metadata>
 <defs>
  <style type="text/css">*{stroke-linejoin: round; stroke-linecap: butt}</style>
 </defs>
 <g id="figure_1">
  <g id="patch_1">
   <path d="M 0 216 
L 576 216 
L 576 0 
L 0 0 
z
" style="fill: #ffffff"/>
  </g>
  <g id="axes_1">
   <g id="patch_2">
    <path d="M 51.84 176.04 
L 529.92 176.04 
L 529.92 17.28 
L 51.84 17.28 
L 51.84 176.04 
z
" style="fill: none"/>
   </g>
   <g id="matplotlib.axis_1">
    <g id="xtick_1">
     <g id="line2d_1">
      <defs>
       <path id="m67adb7577f" d="M 0 0 
L 0 3.5 
" style="stroke: #000000; stroke-width: 0.8"/>
      </defs>
      <g>
       <use xlink:href="#m67adb7577f" x="61.033846" y="176.04" style="stroke: #000000; stroke-width: 0.8"/>
      </g>
     </g>
     <g id="text_1">
      <!-- 0 -->
      <g transform="translate(58.175252 190.638438) scale(0.1 -0.1)">
       <defs>
        <path id="OpenSans-Regular-30" d="M 3341 2291 
Q 3341 1106 2967 521 
Q 2594 -63 1825 -63 
Q 1088 -63 703 535 
Q 319 1134 319 2291 
Q 319 3484 691 4062 
Q 1063 4641 1825 4641 
Q 2569 4641 2955 4037 
Q 3341 3434 3341 2291 
z
M 844 2291 
Q 844 1294 1078 839 
Q 1313 384 1825 384 
Q 2344 384 2576 845 
Q 2809 1306 2809 2291 
Q 2809 3275 2576 3733 
Q 2344 4191 1825 4191 
Q 1313 4191 1078 3739 
Q 844 3288 844 2291 
z
" transform="scale(0.015625)"/>
       </defs>
       <use xlink:href="#OpenSans-Regular-30"/>
      </g>
     </g>
    </g>
    <g id="xtick_2">
     <g id="line2d_2">
      <g>
       <use xlink:href="#m67adb7577f" x="152.972308" y="176.04" style="stroke: #000000; stroke-width: 0.8"/>
      </g>
     </g>
     <g id="text_2">
      <!-- 100 -->
      <g transform="translate(144.396526 190.638438) scale(0.1 -0.1)">
       <defs>
        <path id="OpenSans-Regular-31" d="M 2234 0 
L 1728 0 
L 1728 3256 
Q 1728 3663 1753 4025 
Q 1688 3959 1606 3887 
Q 1525 3816 863 3278 
L 588 3634 
L 1797 4569 
L 2234 4569 
L 2234 0 
z
" transform="scale(0.015625)"/>
       </defs>
       <use xlink:href="#OpenSans-Regular-31"/>
       <use xlink:href="#OpenSans-Regular-30" transform="translate(57.177734 0)"/>
       <use xlink:href="#OpenSans-Regular-30" transform="translate(114.355469 0)"/>
      </g>
     </g>
    </g>
    <g id="xtick_3">
     <g id="line2d_3">
      <g>
       <use xlink:href="#m67adb7577f" x="244.910769" y="176.04" style="stroke: #000000; stroke-width: 0.8"/>
      </g>
     </g>
     <g id="text_3">
      <!-- 200 -->
      <g transform="translate(236.334988 190.638438) scale(0.1 -0.1)">
       <defs>
        <path id="OpenSans-Regular-32" d="M 3316 0 
L 313 0 
L 313 447 
L 1516 1656 
Q 2066 2213 2241 2450 
Q 2416 2688 2503 2913 
Q 2591 3138 2591 3397 
Q 2591 3763 2369 3977 
Q 2147 4191 1753 4191 
Q 1469 4191 1214 4097 
Q 959 4003 647 3756 
L 372 4109 
Q 1003 4634 1747 4634 
Q 2391 4634 2756 4304 
Q 3122 3975 3122 3419 
Q 3122 2984 2878 2559 
Q 2634 2134 1966 1484 
L 966 506 
L 966 481 
L 3316 481 
L 3316 0 
z
" transform="scale(0.015625)"/>
       </defs>
       <use xlink:href="#OpenSans-Regular-32"/>
       <use xlink:href="#OpenSans-Regular-30" transform="translate(57.177734 0)"/>
       <use xlink:href="#OpenSans-Regular-30" transform="translate(114.355469 0)"/>
      </g>
     </g>
    </g>
    <g id="xtick_4">
     <g id="line2d_4">
      <g>
       <use xlink:href="#m67adb7577f" x="336.849231" y="176.04" style="stroke: #000000; stroke-width: 0.8"/>
      </g>
     </g>
     <g id="text_4">
      <!-- 300 -->
      <g transform="translate(328.27345 190.638438) scale(0.1 -0.1)">
       <defs>
        <path id="OpenSans-Regular-33" d="M 3144 3494 
Q 3144 3056 2898 2778 
Q 2653 2500 2203 2406 
L 2203 2381 
Q 2753 2313 3018 2031 
Q 3284 1750 3284 1294 
Q 3284 641 2831 289 
Q 2378 -63 1544 -63 
Q 1181 -63 879 -8 
Q 578 47 294 184 
L 294 678 
Q 591 531 927 454 
Q 1263 378 1563 378 
Q 2747 378 2747 1306 
Q 2747 2138 1441 2138 
L 991 2138 
L 991 2584 
L 1447 2584 
Q 1981 2584 2293 2820 
Q 2606 3056 2606 3475 
Q 2606 3809 2376 4000 
Q 2147 4191 1753 4191 
Q 1453 4191 1187 4109 
Q 922 4028 581 3809 
L 319 4159 
Q 600 4381 967 4507 
Q 1334 4634 1741 4634 
Q 2406 4634 2775 4329 
Q 3144 4025 3144 3494 
z
" transform="scale(0.015625)"/>
       </defs>
       <use xlink:href="#OpenSans-Regular-33"/>
       <use xlink:href="#OpenSans-Regular-30" transform="translate(57.177734 0)"/>
       <use xlink:href="#OpenSans-Regular-30" transform="translate(114.355469 0)"/>
      </g>
     </g>
    </g>
    <g id="xtick_5">
     <g id="line2d_5">
      <g>
       <use xlink:href="#m67adb7577f" x="428.787692" y="176.04" style="stroke: #000000; stroke-width: 0.8"/>
      </g>
     </g>
     <g id="text_5">
      <!-- 400 -->
      <g transform="translate(420.211911 190.638438) scale(0.1 -0.1)">
       <defs>
        <path id="OpenSans-Regular-34" d="M 3531 1050 
L 2853 1050 
L 2853 0 
L 2356 0 
L 2356 1050 
L 134 1050 
L 134 1503 
L 2303 4594 
L 2853 4594 
L 2853 1522 
L 3531 1522 
L 3531 1050 
z
M 2356 1522 
L 2356 3041 
Q 2356 3488 2388 4050 
L 2363 4050 
Q 2213 3750 2081 3553 
L 653 1522 
L 2356 1522 
z
" transform="scale(0.015625)"/>
       </defs>
       <use xlink:href="#OpenSans-Regular-34"/>
       <use xlink:href="#OpenSans-Regular-30" transform="translate(57.177734 0)"/>
       <use xlink:href="#OpenSans-Regular-30" transform="translate(114.355469 0)"/>
      </g>
     </g>
    </g>
    <g id="xtick_6">
     <g id="line2d_6">
      <g>
       <use xlink:href="#m67adb7577f" x="520.726154" y="176.04" style="stroke: #000000; stroke-width: 0.8"/>
      </g>
     </g>
     <g id="text_6">
      <!-- 500 -->
      <g transform="translate(512.150373 190.638438) scale(0.1 -0.1)">
       <defs>
        <path id="OpenSans-Regular-35" d="M 1741 2791 
Q 2463 2791 2877 2433 
Q 3291 2075 3291 1453 
Q 3291 744 2839 340 
Q 2388 -63 1594 -63 
Q 822 -63 416 184 
L 416 684 
Q 634 544 959 464 
Q 1284 384 1600 384 
Q 2150 384 2454 643 
Q 2759 903 2759 1394 
Q 2759 2350 1588 2350 
Q 1291 2350 794 2259 
L 525 2431 
L 697 4569 
L 2969 4569 
L 2969 4091 
L 1141 4091 
L 1025 2719 
Q 1384 2791 1741 2791 
z
" transform="scale(0.015625)"/>
       </defs>
       <use xlink:href="#OpenSans-Regular-35"/>
       <use xlink:href="#OpenSans-Regular-30" transform="translate(57.177734 0)"/>
       <use xlink:href="#OpenSans-Regular-30" transform="translate(114.355469 0)"/>
      </g>
     </g>
    </g>
    <g id="text_7">
     <!-- Arc length (miles) -->
     <g transform="translate(250.653438 207.452438) scale(0.1 -0.1)">
      <defs>
       <path id="OpenSans-Regular-41" d="M 3500 0 
L 2931 1453 
L 1100 1453 
L 538 0 
L 0 0 
L 1806 4588 
L 2253 4588 
L 4050 0 
L 3500 0 
z
M 2766 1931 
L 2234 3347 
Q 2131 3616 2022 4006 
Q 1953 3706 1825 3347 
L 1288 1931 
L 2766 1931 
z
" transform="scale(0.015625)"/>
       <path id="OpenSans-Regular-72" d="M 2113 3488 
Q 2341 3488 2522 3450 
L 2450 2969 
Q 2238 3016 2075 3016 
Q 1659 3016 1364 2678 
Q 1069 2341 1069 1838 
L 1069 0 
L 550 0 
L 550 3425 
L 978 3425 
L 1038 2791 
L 1063 2791 
Q 1253 3125 1522 3306 
Q 1791 3488 2113 3488 
z
" transform="scale(0.015625)"/>
       <path id="OpenSans-Regular-63" d="M 1919 -63 
Q 1175 -63 767 395 
Q 359 853 359 1691 
Q 359 2550 773 3019 
Q 1188 3488 1953 3488 
Q 2200 3488 2447 3434 
Q 2694 3381 2834 3309 
L 2675 2869 
Q 2503 2938 2300 2983 
Q 2097 3028 1941 3028 
Q 897 3028 897 1697 
Q 897 1066 1151 728 
Q 1406 391 1906 391 
Q 2334 391 2784 575 
L 2784 116 
Q 2441 -63 1919 -63 
z
" transform="scale(0.015625)"/>
       <path id="OpenSans-Regular-20" transform="scale(0.015625)"/>
       <path id="OpenSans-Regular-6c" d="M 1069 0 
L 550 0 
L 550 4863 
L 1069 4863 
L 1069 0 
z
" transform="scale(0.015625)"/>
       <path id="OpenSans-Regular-65" d="M 1997 -63 
Q 1238 -63 798 400 
Q 359 863 359 1684 
Q 359 2513 767 3000 
Q 1175 3488 1863 3488 
Q 2506 3488 2881 3064 
Q 3256 2641 3256 1947 
L 3256 1619 
L 897 1619 
Q 913 1016 1202 703 
Q 1491 391 2016 391 
Q 2569 391 3109 622 
L 3109 159 
Q 2834 41 2589 -11 
Q 2344 -63 1997 -63 
z
M 1856 3053 
Q 1444 3053 1198 2784 
Q 953 2516 909 2041 
L 2700 2041 
Q 2700 2531 2481 2792 
Q 2263 3053 1856 3053 
z
" transform="scale(0.015625)"/>
       <path id="OpenSans-Regular-6e" d="M 2894 0 
L 2894 2216 
Q 2894 2634 2703 2840 
Q 2513 3047 2106 3047 
Q 1569 3047 1319 2756 
Q 1069 2466 1069 1797 
L 1069 0 
L 550 0 
L 550 3425 
L 972 3425 
L 1056 2956 
L 1081 2956 
Q 1241 3209 1528 3348 
Q 1816 3488 2169 3488 
Q 2788 3488 3100 3189 
Q 3413 2891 3413 2234 
L 3413 0 
L 2894 0 
z
" transform="scale(0.015625)"/>
       <path id="OpenSans-Regular-67" d="M 3353 3425 
L 3353 3097 
L 2719 3022 
Q 2806 2913 2875 2736 
Q 2944 2559 2944 2338 
Q 2944 1834 2600 1534 
Q 2256 1234 1656 1234 
Q 1503 1234 1369 1259 
Q 1038 1084 1038 819 
Q 1038 678 1153 611 
Q 1269 544 1550 544 
L 2156 544 
Q 2713 544 3011 309 
Q 3309 75 3309 -372 
Q 3309 -941 2853 -1239 
Q 2397 -1538 1522 -1538 
Q 850 -1538 486 -1288 
Q 122 -1038 122 -581 
Q 122 -269 322 -40 
Q 522 188 884 269 
Q 753 328 664 453 
Q 575 578 575 744 
Q 575 931 675 1072 
Q 775 1213 991 1344 
Q 725 1453 558 1715 
Q 391 1978 391 2316 
Q 391 2878 728 3183 
Q 1066 3488 1684 3488 
Q 1953 3488 2169 3425 
L 3353 3425 
z
M 622 -575 
Q 622 -853 856 -997 
Q 1091 -1141 1528 -1141 
Q 2181 -1141 2495 -945 
Q 2809 -750 2809 -416 
Q 2809 -138 2637 -30 
Q 2466 78 1991 78 
L 1369 78 
Q 1016 78 819 -90 
Q 622 -259 622 -575 
z
M 903 2328 
Q 903 1969 1106 1784 
Q 1309 1600 1672 1600 
Q 2431 1600 2431 2338 
Q 2431 3109 1663 3109 
Q 1297 3109 1100 2912 
Q 903 2716 903 2328 
z
" transform="scale(0.015625)"/>
       <path id="OpenSans-Regular-74" d="M 1656 366 
Q 1794 366 1922 386 
Q 2050 406 2125 428 
L 2125 31 
Q 2041 -9 1877 -36 
Q 1713 -63 1581 -63 
Q 588 -63 588 984 
L 588 3022 
L 97 3022 
L 97 3272 
L 588 3488 
L 806 4219 
L 1106 4219 
L 1106 3425 
L 2100 3425 
L 2100 3022 
L 1106 3022 
L 1106 1006 
Q 1106 697 1253 531 
Q 1400 366 1656 366 
z
" transform="scale(0.015625)"/>
       <path id="OpenSans-Regular-68" d="M 2894 0 
L 2894 2216 
Q 2894 2634 2703 2840 
Q 2513 3047 2106 3047 
Q 1566 3047 1317 2753 
Q 1069 2459 1069 1791 
L 1069 0 
L 550 0 
L 550 4863 
L 1069 4863 
L 1069 3391 
Q 1069 3125 1044 2950 
L 1075 2950 
Q 1228 3197 1511 3339 
Q 1794 3481 2156 3481 
Q 2784 3481 3098 3182 
Q 3413 2884 3413 2234 
L 3413 0 
L 2894 0 
z
" transform="scale(0.015625)"/>
       <path id="OpenSans-Regular-28" d="M 256 1753 
Q 256 2581 498 3303 
Q 741 4025 1197 4569 
L 1703 4569 
Q 1253 3966 1026 3244 
Q 800 2522 800 1759 
Q 800 1009 1031 293 
Q 1263 -422 1697 -1013 
L 1197 -1013 
Q 738 -481 497 228 
Q 256 938 256 1753 
z
" transform="scale(0.015625)"/>
       <path id="OpenSans-Regular-6d" d="M 4916 0 
L 4916 2228 
Q 4916 2638 4741 2842 
Q 4566 3047 4197 3047 
Q 3713 3047 3481 2769 
Q 3250 2491 3250 1913 
L 3250 0 
L 2731 0 
L 2731 2228 
Q 2731 2638 2556 2842 
Q 2381 3047 2009 3047 
Q 1522 3047 1295 2755 
Q 1069 2463 1069 1797 
L 1069 0 
L 550 0 
L 550 3425 
L 972 3425 
L 1056 2956 
L 1081 2956 
Q 1228 3206 1495 3347 
Q 1763 3488 2094 3488 
Q 2897 3488 3144 2906 
L 3169 2906 
Q 3322 3175 3612 3331 
Q 3903 3488 4275 3488 
Q 4856 3488 5145 3189 
Q 5434 2891 5434 2234 
L 5434 0 
L 4916 0 
z
" transform="scale(0.015625)"/>
       <path id="OpenSans-Regular-69" d="M 1069 0 
L 550 0 
L 550 3425 
L 1069 3425 
L 1069 0 
z
M 506 4353 
Q 506 4531 593 4614 
Q 681 4697 813 4697 
Q 938 4697 1028 4612 
Q 1119 4528 1119 4353 
Q 1119 4178 1028 4092 
Q 938 4006 813 4006 
Q 681 4006 593 4092 
Q 506 4178 506 4353 
z
" transform="scale(0.015625)"/>
       <path id="OpenSans-Regular-73" d="M 2759 934 
Q 2759 456 2403 196 
Q 2047 -63 1403 -63 
Q 722 -63 341 153 
L 341 634 
Q 588 509 870 437 
Q 1153 366 1416 366 
Q 1822 366 2040 495 
Q 2259 625 2259 891 
Q 2259 1091 2086 1233 
Q 1913 1375 1409 1569 
Q 931 1747 729 1880 
Q 528 2013 429 2181 
Q 331 2350 331 2584 
Q 331 3003 672 3245 
Q 1013 3488 1606 3488 
Q 2159 3488 2688 3263 
L 2503 2841 
Q 1988 3053 1569 3053 
Q 1200 3053 1012 2937 
Q 825 2822 825 2619 
Q 825 2481 895 2384 
Q 966 2288 1122 2200 
Q 1278 2113 1722 1947 
Q 2331 1725 2545 1500 
Q 2759 1275 2759 934 
z
" transform="scale(0.015625)"/>
       <path id="OpenSans-Regular-29" d="M 1638 1753 
Q 1638 931 1395 221 
Q 1153 -488 697 -1013 
L 197 -1013 
Q 631 -425 862 292 
Q 1094 1009 1094 1759 
Q 1094 2522 867 3244 
Q 641 3966 191 4569 
L 697 4569 
Q 1156 4022 1397 3298 
Q 1638 2575 1638 1753 
z
" transform="scale(0.015625)"/>
      </defs>
      <use xlink:href="#OpenSans-Regular-41"/>
      <use xlink:href="#OpenSans-Regular-72" transform="translate(63.28125 0)"/>
      <use xlink:href="#OpenSans-Regular-63" transform="translate(104.101562 0)"/>
      <use xlink:href="#OpenSans-Regular-20" transform="translate(151.708984 0)"/>
      <use xlink:href="#OpenSans-Regular-6c" transform="translate(177.685547 0)"/>
      <use xlink:href="#OpenSans-Regular-65" transform="translate(202.978516 0)"/>
      <use xlink:href="#OpenSans-Regular-6e" transform="translate(259.082031 0)"/>
      <use xlink:href="#OpenSans-Regular-67" transform="translate(320.458984 0)"/>
      <use xlink:href="#OpenSans-Regular-74" transform="translate(375.244141 0)"/>
      <use xlink:href="#OpenSans-Regular-68" transform="translate(410.546875 0)"/>
      <use xlink:href="#OpenSans-Regular-20" transform="translate(471.923828 0)"/>
      <use xlink:href="#OpenSans-Regular-28" transform="translate(497.900391 0)"/>
      <use xlink:href="#OpenSans-Regular-6d" transform="translate(527.490234 0)"/>
      <use xlink:href="#OpenSans-Regular-69" transform="translate(620.507812 0)"/>
      <use xlink:href="#OpenSans-Regular-6c" transform="translate(645.800781 0)"/>
      <use xlink:href="#OpenSans-Regular-65" transform="translate(671.09375 0)"/>
      <use xlink:href="#OpenSans-Regular-73" transform="translate(727.197266 0)"/>
      <use xlink:href="#OpenSans-Regular-29" transform="translate(774.902344 0)"/>
     </g>
    </g>
   </g>
   <g id="matplotlib.axis_2">
    <g id="ytick_1">
     <g id="line2d_7">
      <defs>
       <path id="mf7d506b965" d="M 0 0 
L -3.5 0 
" style="stroke: #000000; stroke-width: 0.8"/>
      </defs>
      <g>
       <use xlink:href="#mf7d506b965" x="51.84" y="166.701176" style="stroke: #000000; stroke-width: 0.8"/>
      </g>
     </g>
     <g id="text_8">
      <!-- 0.00 -->
      <g transform="translate(25.0275 170.500395) scale(0.1 -0.1)">
       <defs>
        <path id="OpenSans-Regular-2e" d="M 475 331 
Q 475 541 570 648 
Q 666 756 844 756 
Q 1025 756 1126 648 
Q 1228 541 1228 331 
Q 1228 128 1125 18 
Q 1022 -91 844 -91 
Q 684 -91 579 7 
Q 475 106 475 331 
z
" transform="scale(0.015625)"/>
       </defs>
       <use xlink:href="#OpenSans-Regular-30"/>
       <use xlink:href="#OpenSans-Regular-2e" transform="translate(57.177734 0)"/>
       <use xlink:href="#OpenSans-Regular-30" transform="translate(83.789062 0)"/>
       <use xlink:href="#OpenSans-Regular-30" transform="translate(140.966797 0)"/>
      </g>
     </g>
    </g>
    <g id="ytick_2">
     <g id="line2d_8">
      <g>
       <use xlink:href="#mf7d506b965" x="51.84" y="129.345882" style="stroke: #000000; stroke-width: 0.8"/>
      </g>
     </g>
     <g id="text_9">
      <!-- 0.02 -->
      <g transform="translate(25.0275 133.145101) scale(0.1 -0.1)">
       <use xlink:href="#OpenSans-Regular-30"/>
       <use xlink:href="#OpenSans-Regular-2e" transform="translate(57.177734 0)"/>
       <use xlink:href="#OpenSans-Regular-30" transform="translate(83.789062 0)"/>
       <use xlink:href="#OpenSans-Regular-32" transform="translate(140.966797 0)"/>
      </g>
     </g>
    </g>
    <g id="ytick_3">
     <g id="line2d_9">
      <g>
       <use xlink:href="#mf7d506b965" x="51.84" y="91.990588" style="stroke: #000000; stroke-width: 0.8"/>
      </g>
     </g>
     <g id="text_10">
      <!-- 0.04 -->
      <g transform="translate(25.0275 95.789807) scale(0.1 -0.1)">
       <use xlink:href="#OpenSans-Regular-30"/>
       <use xlink:href="#OpenSans-Regular-2e" transform="translate(57.177734 0)"/>
       <use xlink:href="#OpenSans-Regular-30" transform="translate(83.789062 0)"/>
       <use xlink:href="#OpenSans-Regular-34" transform="translate(140.966797 0)"/>
      </g>
     </g>
    </g>
    <g id="ytick_4">
     <g id="line2d_10">
      <g>
       <use xlink:href="#mf7d506b965" x="51.84" y="54.635294" style="stroke: #000000; stroke-width: 0.8"/>
      </g>
     </g>
     <g id="text_11">
      <!-- 0.06 -->
      <g transform="translate(25.0275 58.434513) scale(0.1 -0.1)">
       <defs>
        <path id="OpenSans-Regular-36" d="M 366 1953 
Q 366 3300 889 3967 
Q 1413 4634 2438 4634 
Q 2791 4634 2994 4575 
L 2994 4128 
Q 2753 4206 2444 4206 
Q 1709 4206 1321 3748 
Q 934 3291 897 2309 
L 934 2309 
Q 1278 2847 2022 2847 
Q 2638 2847 2992 2475 
Q 3347 2103 3347 1466 
Q 3347 753 2958 345 
Q 2569 -63 1906 -63 
Q 1197 -63 781 470 
Q 366 1003 366 1953 
z
M 1900 378 
Q 2344 378 2589 658 
Q 2834 938 2834 1466 
Q 2834 1919 2606 2178 
Q 2378 2438 1925 2438 
Q 1644 2438 1409 2322 
Q 1175 2206 1036 2003 
Q 897 1800 897 1581 
Q 897 1259 1022 981 
Q 1147 703 1376 540 
Q 1606 378 1900 378 
z
" transform="scale(0.015625)"/>
       </defs>
       <use xlink:href="#OpenSans-Regular-30"/>
       <use xlink:href="#OpenSans-Regular-2e" transform="translate(57.177734 0)"/>
       <use xlink:href="#OpenSans-Regular-30" transform="translate(83.789062 0)"/>
       <use xlink:href="#OpenSans-Regular-36" transform="translate(140.966797 0)"/>
      </g>
     </g>
    </g>
    <g id="ytick_5">
     <g id="line2d_11">
      <g>
       <use xlink:href="#mf7d506b965" x="51.84" y="17.28" style="stroke: #000000; stroke-width: 0.8"/>
      </g>
     </g>
     <g id="text_12">
      <!-- 0.08 -->
      <g transform="translate(25.0275 21.079219) scale(0.1 -0.1)">
       <defs>
        <path id="OpenSans-Regular-38" d="M 1825 4634 
Q 2450 4634 2815 4343 
Q 3181 4053 3181 3541 
Q 3181 3203 2972 2925 
Q 2763 2647 2303 2419 
Q 2859 2153 3093 1861 
Q 3328 1569 3328 1184 
Q 3328 616 2931 276 
Q 2534 -63 1844 -63 
Q 1113 -63 719 257 
Q 325 578 325 1166 
Q 325 1950 1281 2388 
Q 850 2631 662 2914 
Q 475 3197 475 3547 
Q 475 4044 842 4339 
Q 1209 4634 1825 4634 
z
M 838 1153 
Q 838 778 1098 568 
Q 1359 359 1831 359 
Q 2297 359 2556 578 
Q 2816 797 2816 1178 
Q 2816 1481 2572 1717 
Q 2328 1953 1722 2175 
Q 1256 1975 1047 1733 
Q 838 1491 838 1153 
z
M 1819 4213 
Q 1428 4213 1206 4025 
Q 984 3838 984 3525 
Q 984 3238 1168 3031 
Q 1353 2825 1850 2619 
Q 2297 2806 2483 3022 
Q 2669 3238 2669 3525 
Q 2669 3841 2442 4027 
Q 2216 4213 1819 4213 
z
" transform="scale(0.015625)"/>
       </defs>
       <use xlink:href="#OpenSans-Regular-30"/>
       <use xlink:href="#OpenSans-Regular-2e" transform="translate(57.177734 0)"/>
       <use xlink:href="#OpenSans-Regular-30" transform="translate(83.789062 0)"/>
       <use xlink:href="#OpenSans-Regular-38" transform="translate(140.966797 0)"/>
      </g>
     </g>
    </g>
    <g id="text_13">
     <!-- Relative error (%) -->
     <g transform="translate(15.971275 136.565469) rotate(-90) scale(0.1 -0.1)">
      <defs>
       <path id="OpenSans-Regular-52" d="M 1159 1900 
L 1159 0 
L 628 0 
L 628 4569 
L 1881 4569 
Q 2722 4569 3123 4247 
Q 3525 3925 3525 3278 
Q 3525 2372 2606 2053 
L 3847 0 
L 3219 0 
L 2113 1900 
L 1159 1900 
z
M 1159 2356 
L 1888 2356 
Q 2450 2356 2712 2579 
Q 2975 2803 2975 3250 
Q 2975 3703 2708 3903 
Q 2441 4103 1850 4103 
L 1159 4103 
L 1159 2356 
z
" transform="scale(0.015625)"/>
       <path id="OpenSans-Regular-61" d="M 2656 0 
L 2553 488 
L 2528 488 
Q 2272 166 2017 51 
Q 1763 -63 1381 -63 
Q 872 -63 583 200 
Q 294 463 294 947 
Q 294 1984 1953 2034 
L 2534 2053 
L 2534 2266 
Q 2534 2669 2361 2861 
Q 2188 3053 1806 3053 
Q 1378 3053 838 2791 
L 678 3188 
Q 931 3325 1232 3403 
Q 1534 3481 1838 3481 
Q 2450 3481 2745 3209 
Q 3041 2938 3041 2338 
L 3041 0 
L 2656 0 
z
M 1484 366 
Q 1969 366 2245 631 
Q 2522 897 2522 1375 
L 2522 1684 
L 2003 1663 
Q 1384 1641 1111 1470 
Q 838 1300 838 941 
Q 838 659 1008 512 
Q 1178 366 1484 366 
z
" transform="scale(0.015625)"/>
       <path id="OpenSans-Regular-76" d="M 1300 0 
L 0 3425 
L 556 3425 
L 1294 1394 
Q 1544 681 1588 469 
L 1613 469 
Q 1647 634 1830 1154 
Q 2013 1675 2650 3425 
L 3206 3425 
L 1906 0 
L 1300 0 
z
" transform="scale(0.015625)"/>
       <path id="OpenSans-Regular-6f" d="M 3506 1716 
Q 3506 878 3084 407 
Q 2663 -63 1919 -63 
Q 1459 -63 1103 153 
Q 747 369 553 772 
Q 359 1175 359 1716 
Q 359 2553 778 3020 
Q 1197 3488 1941 3488 
Q 2659 3488 3082 3009 
Q 3506 2531 3506 1716 
z
M 897 1716 
Q 897 1059 1159 715 
Q 1422 372 1931 372 
Q 2441 372 2705 714 
Q 2969 1056 2969 1716 
Q 2969 2369 2705 2708 
Q 2441 3047 1925 3047 
Q 1416 3047 1156 2712 
Q 897 2378 897 1716 
z
" transform="scale(0.015625)"/>
       <path id="OpenSans-Regular-25" d="M 756 3206 
Q 756 2675 872 2409 
Q 988 2144 1247 2144 
Q 1759 2144 1759 3206 
Q 1759 4263 1247 4263 
Q 988 4263 872 4000 
Q 756 3738 756 3206 
z
M 2188 3206 
Q 2188 2494 1948 2130 
Q 1709 1766 1247 1766 
Q 809 1766 567 2137 
Q 325 2509 325 3206 
Q 325 3916 558 4275 
Q 791 4634 1247 4634 
Q 1700 4634 1944 4262 
Q 2188 3891 2188 3206 
z
M 3506 1375 
Q 3506 841 3622 577 
Q 3738 313 4000 313 
Q 4263 313 4388 573 
Q 4513 834 4513 1375 
Q 4513 1909 4388 2167 
Q 4263 2425 4000 2425 
Q 3738 2425 3622 2167 
Q 3506 1909 3506 1375 
z
M 4941 1375 
Q 4941 666 4702 301 
Q 4463 -63 4000 -63 
Q 3556 -63 3317 309 
Q 3078 681 3078 1375 
Q 3078 2084 3311 2443 
Q 3544 2803 4000 2803 
Q 4444 2803 4692 2436 
Q 4941 2069 4941 1375 
z
M 4134 4569 
L 1600 0 
L 1141 0 
L 3675 4569 
L 4134 4569 
z
" transform="scale(0.015625)"/>
      </defs>
      <use xlink:href="#OpenSans-Regular-52"/>
      <use xlink:href="#OpenSans-Regular-65" transform="translate(61.816406 0)"/>
      <use xlink:href="#OpenSans-Regular-6c" transform="translate(117.919922 0)"/>
      <use xlink:href="#OpenSans-Regular-61" transform="translate(143.212891 0)"/>
      <use xlink:href="#OpenSans-Regular-74" transform="translate(198.828125 0)"/>
      <use xlink:href="#OpenSans-Regular-69" transform="translate(234.130859 0)"/>
      <use xlink:href="#OpenSans-Regular-76" transform="translate(259.423828 0)"/>
      <use xlink:href="#OpenSans-Regular-65" transform="translate(309.521484 0)"/>
      <use xlink:href="#OpenSans-Regular-20" transform="translate(365.625 0)"/>
      <use xlink:href="#OpenSans-Regular-65" transform="translate(391.601562 0)"/>
      <use xlink:href="#OpenSans-Regular-72" transform="translate(447.705078 0)"/>
      <use xlink:href="#OpenSans-Regular-72" transform="translate(488.525391 0)"/>
      <use xlink:href="#OpenSans-Regular-6f" transform="translate(529.345703 0)"/>
      <use xlink:href="#OpenSans-Regular-72" transform="translate(589.746094 0)"/>
      <use xlink:href="#OpenSans-Regular-20" transform="translate(630.566406 0)"/>
      <use xlink:href="#OpenSans-Regular-28" transform="translate(656.542969 0)"/>
      <use xlink:href="#OpenSans-Regular-25" transform="translate(686.132812 0)"/>
      <use xlink:href="#OpenSans-Regular-29" transform="translate(768.457031 0)"/>
     </g>
    </g>
   </g>
   <g id="line2d_12">
    <path d="M 61.033846 166.701176 
L 74.798871 166.590111 
L 88.563897 166.256913 
L 102.338461 165.701123 
L 116.113026 164.922895 
L 129.897129 163.921461 
L 143.690772 162.696361 
L 157.493954 161.247134 
L 171.306675 159.573321 
L 185.128936 157.674462 
L 198.970274 155.548554 
L 212.830691 153.194675 
L 226.710187 150.611898 
L 240.60876 147.799298 
L 254.526412 144.75595 
L 268.472682 141.478606 
L 282.43803 137.968346 
L 296.431995 134.221609 
L 310.454578 130.236995 
L 324.505779 126.013102 
L 338.595136 121.545422 
L 352.713111 116.835337 
L 366.869242 111.878017 
L 381.06353 106.671575 
L 395.295975 101.21412 
L 409.566576 95.503753 
L 423.884873 89.534519 
L 438.241327 83.308248 
L 452.645477 76.818651 
L 467.097323 70.063329 
L 481.596864 63.039877 
L 496.144102 55.74588 
L 510.739035 48.178919 
L 520.717009 42.86213 
L 520.717009 42.86213 
" clip-path="url(#p9ac5e7d758)" style="fill: none; stroke: #c50bef; stroke-width: 1.25; stroke-linecap: square"/>
   </g>
   <g id="patch_3">
    <path d="M 51.84 176.04 
L 51.84 17.28 
" style="fill: none; stroke: #000000; stroke-width: 0.8; stroke-linejoin: miter; stroke-linecap: square"/>
   </g>
   <g id="patch_4">
    <path d="M 51.84 176.04 
L 529.92 176.04 
" style="fill: none; stroke: #000000; stroke-width: 0.8; stroke-linejoin: miter; stroke-linecap: square"/>
   </g>
  </g>
 </g>
 <defs>
  <clipPath id="p9ac5e7d758">
   <rect x="51.84" y="17.28" width="478.08" height="158.76"/>
  </clipPath>
 </defs>
</svg>
