<?xml version="1.0" encoding="UTF-8"?>
<!DOCTYPE svg  PUBLIC '-//W3C//DTD SVG 1.1//EN'  'http://www.w3.org/Graphics/SVG/1.1/DTD/svg11.dtd'>
<svg width="722.94pt" height="375.81pt" version="1.1" viewBox="0 0 722.94 375.81" xmlns="http://www.w3.org/2000/svg" xmlns:xlink="http://www.w3.org/1999/xlink">
<metadata>
<rdf:RDF xmlns:cc="http://creativecommons.org/ns#" xmlns:dc="http://purl.org/dc/elements/1.1/" xmlns:rdf="http://www.w3.org/1999/02/22-rdf-syntax-ns#">
<cc:Work>
<dc:type rdf:resource="http://purl.org/dc/dcmitype/StillImage"/>
<dc:date>2021-11-16T17:47:46.555964</dc:date>
<dc:format>image/svg+xml</dc:format>
<dc:creator>
<cc:Agent>
<dc:title>Matplotlib v3.4.2, https://matplotlib.org/</dc:title>
</cc:Agent>
</dc:creator>
</cc:Work>
</rdf:RDF>
</metadata>
<defs>
<style type="text/css">*{stroke-linecap:butt;stroke-linejoin:round;}</style>
</defs>
<path d="m0 375.81h722.94v-375.81h-722.94z" fill="none"/>
<path d="m46.136 281.17h291.13v-271.8h-291.13z" fill="none"/>
<path d="m49.047 281.17h23.29v-258.86h-23.29z" clip-path="url(#l)" fill="#389d63" stroke="#27ae60"/>
<path d="m78.16 281.17h23.29v-213.3h-23.29z" clip-path="url(#l)" fill="#389d63" stroke="#27ae60"/>
<path d="m107.27 281.17h23.29v-161.77h-23.29z" clip-path="url(#l)" fill="#389d63" stroke="#27ae60"/>
<path d="m136.39 281.17h23.29v-147.82h-23.29z" clip-path="url(#l)" fill="#389d63" stroke="#27ae60"/>
<path d="m165.5 281.17h23.29v-141.3h-23.29z" clip-path="url(#l)" fill="#389d63" stroke="#27ae60"/>
<path d="m194.61 281.17h23.29v-137.02h-23.29z" clip-path="url(#l)" fill="#389d63" stroke="#27ae60"/>
<path d="m223.73 281.17h23.29v-136.35h-23.29z" clip-path="url(#l)" fill="#389d63" stroke="#27ae60"/>
<path d="m252.84 281.17h23.29v-121.05h-23.29z" clip-path="url(#l)" fill="#389d63" stroke="#27ae60"/>
<path d="m281.95 281.17h23.29v-110.25h-23.29z" clip-path="url(#l)" fill="#389d63" stroke="#27ae60"/>
<path d="m311.06 281.17h23.29v-94.611h-23.29z" clip-path="url(#l)" fill="#389d63" stroke="#27ae60"/>
<defs>
<path id="c" d="m0 0v3.5" stroke="#262626" stroke-width=".8"/>
</defs>
<use x="60.692303" y="281.165917" fill="#262626" stroke="#262626" stroke-width=".8" xlink:href="#c"/>
<g transform="translate(22.491 340.34) rotate(-45) scale(.13 -.13)" fill="#262626">
<defs>
<path id="w" transform="scale(.015625)" d="m4616 0h-525l-922 3059q-66 204-147 513t-84 372q-69-413-219-903l-894-3041h-525l-1216 4569h563l722-2822q150-594 219-1075 84 572 250 1119l818 2778h563l859-2803q150-485 253-1094 60 444 225 1081l719 2816h563l-1222-4569z"/>
<path id="a" transform="scale(.015625)" d="m1997-63q-759 0-1199 463-439 463-439 1284 0 829 408 1316 408 488 1096 488 643 0 1018-424 375-423 375-1117v-328h-2359q16-603 305-916 289-312 814-312 553 0 1093 231v-463q-275-118-520-170t-592-52zm-141 3116q-412 0-658-269-245-268-289-743h1791q0 490-219 751-218 261-625 261z"/>
<path id="f" transform="scale(.015625)" d="m2759 934q0-478-356-738-356-259-1e3 -259-681 0-1062 216v481q247-125 529-197 283-71 546-71 406 0 624 129 219 130 219 396 0 200-173 342t-677 336q-478 178-680 311-201 133-300 301-98 169-98 403 0 419 341 661 341 243 934 243 553 0 1082-225l-185-422q-515 212-934 212-369 0-557-116-187-115-187-318 0-138 70-235 71-96 227-184 156-87 600-253 609-222 823-447t214-566z"/>
<path id="e" transform="scale(.015625)" d="m1656 366q138 0 266 20t203 42v-397q-84-40-248-67t-296-27q-993 0-993 1047v2038h-491v250l491 216 218 731h300v-794h994v-403h-994v-2016q0-309 147-475 147-165 403-165z"/>
<path id="aa" transform="scale(.015625)" d="m3347 0-628 2009q-60 185-222 838h-25q-125-547-219-844l-647-2003h-600l-934 3425h544q331-1291 504-1966 174-675 199-909h25q34 178 110 461 77 283 134 448l628 1966h562l613-1966q175-537 237-903h25q13 113 67 347 55 235 652 2522h537l-946-3425h-616z"/>
<path id="m" transform="scale(.015625)" d="m3506 1716q0-838-422-1309-421-470-1165-470-460 0-816 216t-550 619-194 944q0 837 419 1304 419 468 1163 468 718 0 1141-479 424-478 424-1293zm-2609 0q0-657 262-1001 263-343 772-343 510 0 774 342t264 1002q0 653-264 992t-780 339q-509 0-769-335-259-334-259-996z"/>
<path id="p" transform="scale(.015625)" d="m2881 459h-28q-359-522-1075-522-672 0-1046 459-373 460-373 1307t375 1316 1044 469q697 0 1069-507h41l-22 247-13 241v1394h519v-4863h-422l-69 459zm-1037-87q531 0 770 289t239 933v109q0 728-242 1039t-773 311q-457 0-699-355-242-354-242-1001 0-656 240-991 241-334 707-334z"/>
</defs>
<use xlink:href="#w"/>
<use x="92.578125" xlink:href="#a"/>
<use x="148.681641" xlink:href="#f"/>
<use x="196.386719" xlink:href="#e"/>
<use x="231.689453" xlink:href="#aa"/>
<use x="309.472656" xlink:href="#m"/>
<use x="369.873047" xlink:href="#m"/>
<use x="430.273438" xlink:href="#p"/>
</g>
<use x="89.805346" y="281.165917" fill="#262626" stroke="#262626" stroke-width=".8" xlink:href="#c"/>
<g transform="translate(35.81 356.13) rotate(-45) scale(.13 -.13)" fill="#262626">
<defs>
<path id="r" transform="scale(.015625)" d="m3525 3238q0-694-474-1068-473-373-1354-373h-538v-1797h-531v4569h1185q1712 0 1712-1331zm-2366-985h479q706 0 1021 228 316 228 316 732 0 453-297 674-297 222-925 222h-594v-1856z"/>
<path id="g" transform="scale(.015625)" d="m2113 3488q228 0 409-38l-72-481q-212 47-375 47-416 0-711-338-295-337-295-840v-1838h-519v3425h428l60-634h25q190 334 459 515 269 182 591 182z"/>
<path id="b" transform="scale(.015625)" d="m1069 0h-519v3425h519v-3425zm-563 4353q0 178 87 261 88 83 220 83 125 0 215-85 91-84 91-259t-91-261q-90-86-215-86-132 0-220 86-87 86-87 261z"/>
<path id="s" transform="scale(.015625)" d="m1919-63q-744 0-1152 458t-408 1296q0 859 414 1328 415 469 1180 469 247 0 494-54 247-53 387-125l-159-440q-172 69-375 114t-359 45q-1044 0-1044-1331 0-631 254-969 255-337 755-337 428 0 878 184v-459q-343-179-865-179z"/>
<path id="q" transform="scale(.015625)" d="m4097 0h-531v2150h-2407v-2150h-531v4569h531v-1944h2407v1944h531v-4569z"/>
<path id="d" transform="scale(.015625)" d="m1069 0h-519v4863h519v-4863z"/>
</defs>
<use xlink:href="#w"/>
<use x="92.578125" xlink:href="#a"/>
<use x="148.681641" xlink:href="#f"/>
<use x="196.386719" xlink:href="#e"/>
<use x="231.689453" xlink:href="#OpenSans-Regular-20"/>
<use x="257.666016" xlink:href="#r"/>
<use x="317.871094" xlink:href="#g"/>
<use x="358.691406" xlink:href="#b"/>
<use x="383.984375" xlink:href="#s"/>
<use x="431.591797" xlink:href="#a"/>
<use x="487.695312" xlink:href="#OpenSans-Regular-20"/>
<use x="513.671875" xlink:href="#q"/>
<use x="587.451172" xlink:href="#b"/>
<use x="612.744141" xlink:href="#d"/>
<use x="638.037109" xlink:href="#d"/>
</g>
<use x="118.91839" y="281.165917" fill="#262626" stroke="#262626" stroke-width=".8" xlink:href="#c"/>
<g transform="translate(68.367 352.69) rotate(-45) scale(.13 -.13)" fill="#262626">
<defs>
<path id="ab" transform="scale(.015625)" d="m3175 0h-2547v4569h2547v-472h-2016v-1472h1894v-469h-1894v-1681h2016v-475z"/>
<path id="h" transform="scale(.015625)" d="m2656 0-103 488h-25q-256-322-511-437-254-114-636-114-509 0-798 263t-289 747q0 1037 1659 1087l581 19v213q0 403-173 595t-555 192q-428 0-968-262l-160 397q253 137 554 215 302 78 606 78 612 0 907-272 296-271 296-871v-2338h-385zm-1172 366q485 0 761 265 277 266 277 744v309l-519-21q-619-22-892-193-273-170-273-529 0-282 170-429 170-146 476-146z"/>
</defs>
<use xlink:href="#ab"/>
<use x="55.615234" xlink:href="#h"/>
<use x="111.230469" xlink:href="#f"/>
<use x="158.935547" xlink:href="#e"/>
<use x="194.238281" xlink:href="#OpenSans-Regular-20"/>
<use x="220.214844" xlink:href="#r"/>
<use x="280.419922" xlink:href="#g"/>
<use x="321.240234" xlink:href="#b"/>
<use x="346.533203" xlink:href="#s"/>
<use x="394.140625" xlink:href="#a"/>
<use x="450.244141" xlink:href="#OpenSans-Regular-20"/>
<use x="476.220703" xlink:href="#q"/>
<use x="550" xlink:href="#b"/>
<use x="575.292969" xlink:href="#d"/>
<use x="600.585938" xlink:href="#d"/>
</g>
<use x="148.031433" y="281.165917" fill="#262626" stroke="#262626" stroke-width=".8" xlink:href="#c"/>
<g transform="translate(111.2 338.97) rotate(-45) scale(.13 -.13)" fill="#262626">
<defs>
<path id="t" transform="scale(.015625)" d="m6 3425h557l750-1953q246-669 306-966h25q40 160 170 546t849 2373h556l-1472-3900q-219-578-511-820-292-243-717-243-238 0-469 54v415q172-37 384-37 535 0 763 600l191 487-1382 3444z"/>
<path id="y" transform="scale(.015625)" d="m1063 1753q134 191 409 500l1106 1172h616l-1388-1459 1485-1966h-628l-1210 1619-390-338v-1281h-513v4863h513v-2579q0-171-25-531h25z"/>
</defs>
<use xlink:href="#q"/>
<use x="73.779297" xlink:href="#t"/>
<use x="124.169922" xlink:href="#p"/>
<use x="185.449219" xlink:href="#a"/>
<use x="241.552734" xlink:href="#OpenSans-Regular-20"/>
<use x="267.529297" xlink:href="#r"/>
<use x="327.734375" xlink:href="#h"/>
<use x="383.349609" xlink:href="#g"/>
<use x="424.169922" xlink:href="#y"/>
</g>
<use x="177.144477" y="281.165917" fill="#262626" stroke="#262626" stroke-width=".8" xlink:href="#c"/>
<g transform="translate(116.66 362.62) rotate(-45) scale(.13 -.13)" fill="#262626">
<defs>
<path id="z" transform="scale(.015625)" d="m2650 0-1550 4050h-25q44-481 44-1144v-2906h-491v4569h800l1447-3769h25l1459 3769h794v-4569h-531v2944q0 506 44 1100h-25l-1563-4044h-428z"/>
<path id="o" transform="scale(.015625)" d="m475 331q0 210 95 317 96 108 274 108 181 0 282-108 102-107 102-317 0-203-103-313-103-109-281-109-160 0-265 98-104 99-104 324z"/>
<path id="u" transform="scale(.015625)" d="m2894 0v2216q0 418-191 624-190 207-597 207-540 0-789-294-248-294-248-962v-1791h-519v4863h519v-1472q0-266-25-441h31q153 247 436 389t645 142q628 0 942-299 315-298 315-948v-2234h-519z"/>
<path id="j" transform="scale(.015625)" d="m2894 0v2216q0 418-191 624-190 207-597 207-537 0-787-291-250-290-250-959v-1797h-519v3425h422l84-469h25q160 253 447 392 288 140 641 140 619 0 931-299 313-298 313-955v-2234h-519z"/>
<path id="v" transform="scale(.015625)" d="m3353 3425v-328l-634-75q87-109 156-286t69-398q0-504-344-804t-944-300q-153 0-287 25-331-175-331-440 0-141 115-208 116-67 397-67h606q557 0 855-235 298-234 298-681 0-569-456-867-456-299-1331-299-672 0-1036 250t-364 707q0 312 200 541 200 228 562 309-131 59-220 184t-89 291q0 187 100 328t316 272q-266 109-433 371-167 263-167 601 0 562 337 867 338 305 956 305 269 0 485-63h1184zm-2731-4e3q0-278 234-422 235-144 672-144 653 0 967 196 314 195 314 529 0 278-172 386-171 108-646 108h-622q-353 0-550-168-197-169-197-485zm281 2903q0-359 203-544 203-184 566-184 759 0 759 738 0 771-768 771-366 0-563-197-197-196-197-584z"/>
</defs>
<use xlink:href="#z"/>
<use x="90.283203" xlink:href="#e"/>
<use x="125.585938" xlink:href="#o"/>
<use x="152.197266" xlink:href="#OpenSans-Regular-20"/>
<use x="178.173828" xlink:href="#w"/>
<use x="270.751953" xlink:href="#h"/>
<use x="326.367188" xlink:href="#f"/>
<use x="374.072266" xlink:href="#u"/>
<use x="435.449219" xlink:href="#b"/>
<use x="460.742188" xlink:href="#j"/>
<use x="522.119141" xlink:href="#v"/>
<use x="576.904297" xlink:href="#e"/>
<use x="612.207031" xlink:href="#m"/>
<use x="672.607422" xlink:href="#j"/>
</g>
<use x="206.25752" y="281.165917" fill="#262626" stroke="#262626" stroke-width=".8" xlink:href="#c"/>
<g transform="translate(184.03 324.36) rotate(-45) scale(.13 -.13)" fill="#262626">
<defs>
<path id="x" transform="scale(.015625)" d="m4594 2291q0-1097-555-1726-555-628-1542-628-1009 0-1558 617-548 618-548 1743 0 1116 550 1730t1562 614q985 0 1538-625t553-1725zm-3641 0q0-928 395-1408 396-480 1149-480 759 0 1146 478 388 478 388 1410 0 922-386 1398-386 477-1142 477-759 0-1155-480-395-480-395-1395z"/>
</defs>
<use xlink:href="#x"/>
<use x="77.880859" xlink:href="#h"/>
<use x="133.496094" xlink:href="#y"/>
<use x="185.986328" xlink:href="#d"/>
<use x="211.279297" xlink:href="#a"/>
<use x="267.382812" xlink:href="#t"/>
</g>
<use x="235.370564" y="281.165917" fill="#262626" stroke="#262626" stroke-width=".8" xlink:href="#c"/>
<g transform="translate(194.85 342.65) rotate(-45) scale(.13 -.13)" fill="#262626">
<defs>
<path id="ac" transform="scale(.015625)" d="m2584 4159q-753 0-1189-502-436-501-436-1373 0-896 420-1386 421-489 1199-489 478 0 1091 172v-465q-475-179-1172-179-1009 0-1558 613-548 613-548 1741 0 706 264 1237t762 818q499 288 1174 288 718 0 1256-262l-225-456q-519 243-1038 243z"/>
</defs>
<use xlink:href="#ac"/>
<use x="63.085938" xlink:href="#m"/>
<use x="123.486328" xlink:href="#d"/>
<use x="148.779297" xlink:href="#d"/>
<use x="174.072266" xlink:href="#a"/>
<use x="230.175781" xlink:href="#v"/>
<use x="284.960938" xlink:href="#a"/>
<use x="341.064453" xlink:href="#OpenSans-Regular-20"/>
<use x="367.041016" xlink:href="#q"/>
<use x="440.820312" xlink:href="#b"/>
<use x="466.113281" xlink:href="#d"/>
<use x="491.40625" xlink:href="#d"/>
</g>
<use x="264.483607" y="281.165917" fill="#262626" stroke="#262626" stroke-width=".8" xlink:href="#c"/>
<g transform="translate(228.84 337.77) rotate(-45) scale(.13 -.13)" fill="#262626">
<defs>
<path id="ag" transform="scale(.015625)" d="m4197 0h-606l-2497 3834h-25q50-675 50-1237v-2597h-491v4569h600l2491-3819h25q-6 84-28 542t-16 655v2622h497v-4569z"/>
</defs>
<use xlink:href="#ag"/>
<use x="75.390625" xlink:href="#m"/>
<use x="135.791016" xlink:href="#g"/>
<use x="176.611328" xlink:href="#e"/>
<use x="211.914062" xlink:href="#u"/>
<use x="273.291016" xlink:href="#f"/>
<use x="320.996094" xlink:href="#b"/>
<use x="346.289062" xlink:href="#p"/>
<use x="407.568359" xlink:href="#a"/>
</g>
<use x="293.596651" y="281.165917" fill="#262626" stroke="#262626" stroke-width=".8" xlink:href="#c"/>
<g transform="translate(246.89 348.84) rotate(-45) scale(.13 -.13)" fill="#262626">
<defs>
<path id="ae" transform="scale(.015625)" d="m1300 0-1300 3425h556l738-2031q250-713 294-925h25q34 165 217 685 183 521 820 2271h556l-1300-3425h-606z"/>
</defs>
<use xlink:href="#z"/>
<use x="90.283203" xlink:href="#h"/>
<use x="145.898438" xlink:href="#p"/>
<use x="207.177734" xlink:href="#b"/>
<use x="232.470703" xlink:href="#f"/>
<use x="280.175781" xlink:href="#m"/>
<use x="340.576172" xlink:href="#j"/>
<use x="401.953125" xlink:href="#ae"/>
<use x="452.050781" xlink:href="#b"/>
<use x="477.34375" xlink:href="#d"/>
<use x="502.636719" xlink:href="#d"/>
<use x="527.929688" xlink:href="#a"/>
</g>
<use x="322.709694" y="281.165917" fill="#262626" stroke="#262626" stroke-width=".8" xlink:href="#c"/>
<g transform="translate(296.79 328.06) rotate(-45) scale(.13 -.13)" fill="#262626">
<defs>
<path id="ad" transform="scale(.015625)" d="m3500 0-569 1453h-1831l-562-1453h-538l1806 4588h447l1797-4588h-550zm-734 1931-532 1416q-103 269-212 659-69-300-197-659l-537-1416h1478z"/>
</defs>
<use xlink:href="#z"/>
<use x="90.283203" xlink:href="#e"/>
<use x="125.585938" xlink:href="#o"/>
<use x="152.197266" xlink:href="#OpenSans-Regular-20"/>
<use x="178.173828" xlink:href="#ad"/>
<use x="241.455078" xlink:href="#b"/>
<use x="266.748047" xlink:href="#g"/>
<use x="307.568359" xlink:href="#t"/>
</g>
<defs>
<path id="i" d="m0 0h-3.5" stroke="#262626" stroke-width=".8"/>
</defs>
<use x="46.135781" y="281.165917" fill="#262626" stroke="#262626" stroke-width=".8" xlink:href="#i"/>
<g transform="translate(31.703 286.1) scale(.13 -.13)" fill="#262626">
<defs>
<path id="n" transform="scale(.015625)" d="m3341 2291q0-1185-374-1770-373-584-1142-584-737 0-1122 598-384 599-384 1756 0 1193 372 1771 372 579 1134 579 744 0 1130-604 386-603 386-1746zm-2497 0q0-997 234-1452 235-455 747-455 519 0 751 461 233 461 233 1446 0 984-233 1442-232 458-751 458-512 0-747-452-234-451-234-1448z"/>
</defs>
<use xlink:href="#n"/>
</g>
<use x="46.135781" y="227.36053" fill="#262626" stroke="#262626" stroke-width=".8" xlink:href="#i"/>
<g transform="translate(31.703 232.3) scale(.13 -.13)" fill="#262626">
<defs>
<path id="al" transform="scale(.015625)" d="m3316 0h-3003v447l1203 1209q550 557 725 794 175 238 262 463 88 225 88 484 0 366-222 580t-616 214q-284 0-539-94t-567-341l-275 353q631 525 1375 525 644 0 1009-330 366-329 366-885 0-435-244-860t-912-1075l-1e3 -978v-25h2350v-481z"/>
</defs>
<use xlink:href="#al"/>
</g>
<use x="46.135781" y="173.555144" fill="#262626" stroke="#262626" stroke-width=".8" xlink:href="#i"/>
<g transform="translate(31.703 178.49) scale(.13 -.13)" fill="#262626">
<defs>
<path id="ak" transform="scale(.015625)" d="m3531 1050h-678v-1050h-497v1050h-2222v453l2169 3091h550v-3072h678v-472zm-1175 472v1519q0 447 32 1009h-25q-150-300-282-497l-1428-2031h1703z"/>
</defs>
<use xlink:href="#ak"/>
</g>
<use x="46.135781" y="119.749757" fill="#262626" stroke="#262626" stroke-width=".8" xlink:href="#i"/>
<g transform="translate(31.703 124.69) scale(.13 -.13)" fill="#262626">
<defs>
<path id="aj" transform="scale(.015625)" d="m366 1953q0 1347 523 2014 524 667 1549 667 353 0 556-59v-447q-241 78-550 78-735 0-1123-458-387-457-424-1439h37q344 538 1088 538 616 0 970-372 355-372 355-1009 0-713-389-1121t-1052-408q-709 0-1125 533-415 533-415 1483zm1534-1575q444 0 689 280t245 808q0 453-228 712-228 260-681 260-281 0-516-116-234-116-373-319t-139-422q0-322 125-600t354-441q230-162 524-162z"/>
</defs>
<use xlink:href="#aj"/>
</g>
<use x="46.135781" y="65.944371" fill="#262626" stroke="#262626" stroke-width=".8" xlink:href="#i"/>
<g transform="translate(31.703 70.883) scale(.13 -.13)" fill="#262626">
<defs>
<path id="ai" transform="scale(.015625)" d="m1825 4634q625 0 990-291 366-290 366-802 0-338-209-616t-669-506q556-266 790-558 235-292 235-677 0-568-397-908-397-339-1087-339-731 0-1125 320-394 321-394 909 0 784 956 1222-431 243-619 526-187 283-187 633 0 497 367 792t983 295zm-987-3481q0-375 260-585 261-209 733-209 466 0 725 219 260 219 260 600 0 303-244 539t-850 458q-466-200-675-442t-209-580zm981 3060q-391 0-613-188-222-187-222-500 0-287 184-494 185-206 682-412 447 187 633 403t186 503q0 316-227 502-226 186-623 186z"/>
</defs>
<use xlink:href="#ai"/>
</g>
<use x="46.135781" y="12.138984" fill="#262626" stroke="#262626" stroke-width=".8" xlink:href="#i"/>
<g transform="translate(24.271 17.078) scale(.13 -.13)" fill="#262626">
<defs>
<path id="am" transform="scale(.015625)" d="m2234 0h-506v3256q0 407 25 769-65-66-147-138-81-71-743-609l-275 356 1209 935h437v-4569z"/>
</defs>
<use xlink:href="#am"/>
<use x="57.177734" xlink:href="#n"/>
</g>
<g transform="translate(17.147 236.57) rotate(-90) scale(.13 -.13)" fill="#262626">
<defs>
<path id="au" transform="scale(.015625)" d="m756 3206q0-531 116-797 116-265 375-265 512 0 512 1062 0 1057-512 1057-259 0-375-263-116-262-116-794zm1432 0q0-712-240-1076-239-364-701-364-438 0-680 371-242 372-242 1069 0 710 233 1069t689 359q453 0 697-372 244-371 244-1056zm1318-1831q0-534 116-798t378-264q263 0 388 260 125 261 125 802 0 534-125 792t-388 258q-262 0-378-258t-116-792zm1435 0q0-709-239-1074-239-364-702-364-444 0-683 372t-239 1066q0 709 233 1068 233 360 689 360 444 0 692-367 249-367 249-1061zm-807 3194-2534-4569h-459l2534 4569h459z"/>
<path id="ar" transform="scale(.015625)" d="m2094 3022h-872v-3022h-519v3022h-612v234l612 188v190q0 1263 1103 1263 272 0 638-109l-135-416q-300 97-512 97-294 0-435-196-140-195-140-626v-222h872v-403z"/>
<path id="ah" transform="scale(.015625)" d="m4275 2328q0-1131-614-1730-614-598-1767-598h-1266v4569h1400q1066 0 1656-591 591-590 591-1650zm-562-19q0 894-449 1347-448 453-1333 453h-772v-3650h647q950 0 1428 467 479 468 479 1383z"/>
</defs>
<use xlink:href="#au"/>
<use x="82.324219" xlink:href="#OpenSans-Regular-20"/>
<use x="108.300781" xlink:href="#m"/>
<use x="168.701172" xlink:href="#ar"/>
<use x="202.587891" xlink:href="#OpenSans-Regular-20"/>
<use x="228.564453" xlink:href="#ah"/>
<use x="301.464844" xlink:href="#m"/>
<use x="361.865234" xlink:href="#v"/>
<use x="416.650391" xlink:href="#OpenSans-Regular-20"/>
<use x="442.626953" xlink:href="#x"/>
<use x="520.507812" xlink:href="#aa"/>
<use x="598.291016" xlink:href="#j"/>
<use x="659.667969" xlink:href="#a"/>
<use x="715.771484" xlink:href="#g"/>
<use x="756.591797" xlink:href="#f"/>
<use x="804.296875" xlink:href="#OpenSans-Regular-20"/>
<use x="830.273438" xlink:href="#b"/>
<use x="855.566406" xlink:href="#j"/>
<use x="916.943359" xlink:href="#OpenSans-Regular-20"/>
<use x="942.919922" xlink:href="#ac"/>
<use x="1006.005859" xlink:href="#b"/>
<use x="1031.298828" xlink:href="#j"/>
<use x="1092.675781" xlink:href="#s"/>
<use x="1140.283203" xlink:href="#b"/>
<use x="1165.576172" xlink:href="#j"/>
<use x="1226.953125" xlink:href="#j"/>
<use x="1288.330078" xlink:href="#h"/>
<use x="1343.945312" xlink:href="#e"/>
<use x="1379.248047" xlink:href="#b"/>
</g>
<path d="m46.136 281.17v-271.8" fill="none" stroke="#262626" stroke-linecap="square" stroke-width=".8"/>
<path d="m46.136 281.17h291.13" fill="none" stroke="#262626" stroke-linecap="square" stroke-width=".8"/>
<path d="m424.61 281.17h291.13v-271.8h-291.13z" fill="none"/>
<path d="m427.52 281.17h23.29v-258.86h-23.29z" clip-path="url(#k)" fill="#9665aa" stroke="#9b59b6"/>
<path d="m456.63 281.17h23.29v-232.31h-23.29z" clip-path="url(#k)" fill="#9665aa" stroke="#9b59b6"/>
<path d="m485.74 281.17h23.29v-230.32h-23.29z" clip-path="url(#k)" fill="#9665aa" stroke="#9b59b6"/>
<path d="m514.86 281.17h23.29v-193.87h-23.29z" clip-path="url(#k)" fill="#9665aa" stroke="#9b59b6"/>
<path d="m543.97 281.17h23.29v-184.12h-23.29z" clip-path="url(#k)" fill="#9665aa" stroke="#9b59b6"/>
<path d="m573.08 281.17h23.29v-177.61h-23.29z" clip-path="url(#k)" fill="#9665aa" stroke="#9b59b6"/>
<path d="m602.19 281.17h23.29v-175.79h-23.29z" clip-path="url(#k)" fill="#9665aa" stroke="#9b59b6"/>
<path d="m631.31 281.17h23.29v-174.32h-23.29z" clip-path="url(#k)" fill="#9665aa" stroke="#9b59b6"/>
<path d="m660.42 281.17h23.29v-167.94h-23.29z" clip-path="url(#k)" fill="#9665aa" stroke="#9b59b6"/>
<path d="m689.53 281.17h23.29v-155.2h-23.29z" clip-path="url(#k)" fill="#9665aa" stroke="#9b59b6"/>
<use x="439.161868" y="281.165917" fill="#262626" stroke="#262626" stroke-width=".8" xlink:href="#c"/>
<g transform="translate(385.17 356.13) rotate(-45) scale(.13 -.13)" fill="#262626">
<use xlink:href="#w"/>
<use x="92.578125" xlink:href="#a"/>
<use x="148.681641" xlink:href="#f"/>
<use x="196.386719" xlink:href="#e"/>
<use x="231.689453" xlink:href="#OpenSans-Regular-20"/>
<use x="257.666016" xlink:href="#r"/>
<use x="317.871094" xlink:href="#g"/>
<use x="358.691406" xlink:href="#b"/>
<use x="383.984375" xlink:href="#s"/>
<use x="431.591797" xlink:href="#a"/>
<use x="487.695312" xlink:href="#OpenSans-Regular-20"/>
<use x="513.671875" xlink:href="#q"/>
<use x="587.451172" xlink:href="#b"/>
<use x="612.744141" xlink:href="#d"/>
<use x="638.037109" xlink:href="#d"/>
</g>
<use x="468.274912" y="281.165917" fill="#262626" stroke="#262626" stroke-width=".8" xlink:href="#c"/>
<g transform="translate(429.38 341.03) rotate(-45) scale(.13 -.13)" fill="#262626">
<defs>
<path id="aq" transform="scale(.015625)" d="m4916 0v2228q0 410-175 614-175 205-544 205-484 0-716-278-231-278-231-856v-1913h-519v2228q0 410-175 614-175 205-547 205-487 0-714-292-226-292-226-958v-1797h-519v3425h422l84-469h25q147 250 414 391 268 141 599 141 803 0 1050-582h25q153 269 443 425 291 157 663 157 581 0 870-299 289-298 289-955v-2234h-518z"/>
</defs>
<use xlink:href="#z"/>
<use x="90.283203" xlink:href="#e"/>
<use x="125.585938" xlink:href="#o"/>
<use x="152.197266" xlink:href="#OpenSans-Regular-20"/>
<use x="178.173828" xlink:href="#ad"/>
<use x="241.455078" xlink:href="#p"/>
<use x="302.734375" xlink:href="#h"/>
<use x="358.349609" xlink:href="#aq"/>
<use x="451.367188" xlink:href="#f"/>
</g>
<use x="497.387955" y="281.165917" fill="#262626" stroke="#262626" stroke-width=".8" xlink:href="#c"/>
<g transform="translate(461.75 337.77) rotate(-45) scale(.13 -.13)" fill="#262626">
<use xlink:href="#ag"/>
<use x="75.390625" xlink:href="#m"/>
<use x="135.791016" xlink:href="#g"/>
<use x="176.611328" xlink:href="#e"/>
<use x="211.914062" xlink:href="#u"/>
<use x="273.291016" xlink:href="#f"/>
<use x="320.996094" xlink:href="#b"/>
<use x="346.289062" xlink:href="#p"/>
<use x="407.568359" xlink:href="#a"/>
</g>
<use x="526.500999" y="281.165917" fill="#262626" stroke="#262626" stroke-width=".8" xlink:href="#c"/>
<g transform="translate(516.25 312.39) rotate(-45) scale(.13 -.13)" fill="#262626">
<defs>
<path id="as" transform="scale(.015625)" d="m4078 4569v-2956q0-782-472-1229t-1297-447-1277 450q-451 451-451 1238v2944h532v-2981q0-572 312-879 313-306 919-306 578 0 890 308 313 308 313 883v2975h531z"/>
<path id="at" transform="scale(.015625)" d="m1159 0h-531v4569h2547v-472h-2016v-1672h1894v-472h-1894v-1953z"/>
</defs>
<use xlink:href="#ac"/>
<use x="63.085938" xlink:href="#as"/>
<use x="135.888672" xlink:href="#at"/>
</g>
<use x="555.614042" y="281.165917" fill="#262626" stroke="#262626" stroke-width=".8" xlink:href="#c"/>
<g transform="translate(499.86 357.89) rotate(-45) scale(.13 -.13)" fill="#262626">
<defs>
<path id="af" transform="scale(.015625)" d="m1159 1900v-1900h-531v4569h1253q841 0 1242-322 402-322 402-969 0-906-919-1225l1241-2053h-628l-1106 1900h-954zm0 456h729q562 0 824 223 263 224 263 671 0 453-267 653t-858 200h-691v-1747z"/>
</defs>
<use xlink:href="#r"/>
<use x="60.205078" xlink:href="#d"/>
<use x="85.498047" xlink:href="#a"/>
<use x="141.601562" xlink:href="#h"/>
<use x="197.216797" xlink:href="#f"/>
<use x="244.921875" xlink:href="#h"/>
<use x="300.537109" xlink:href="#j"/>
<use x="361.914062" xlink:href="#e"/>
<use x="397.216797" xlink:href="#OpenSans-Regular-20"/>
<use x="423.193359" xlink:href="#af"/>
<use x="485.009766" xlink:href="#b"/>
<use x="510.302734" xlink:href="#p"/>
<use x="571.582031" xlink:href="#v"/>
<use x="626.367188" xlink:href="#a"/>
</g>
<use x="584.727086" y="281.165917" fill="#262626" stroke="#262626" stroke-width=".8" xlink:href="#c"/>
<g transform="translate(534.18 352.69) rotate(-45) scale(.13 -.13)" fill="#262626">
<use xlink:href="#ab"/>
<use x="55.615234" xlink:href="#h"/>
<use x="111.230469" xlink:href="#f"/>
<use x="158.935547" xlink:href="#e"/>
<use x="194.238281" xlink:href="#OpenSans-Regular-20"/>
<use x="220.214844" xlink:href="#r"/>
<use x="280.419922" xlink:href="#g"/>
<use x="321.240234" xlink:href="#b"/>
<use x="346.533203" xlink:href="#s"/>
<use x="394.140625" xlink:href="#a"/>
<use x="450.244141" xlink:href="#OpenSans-Regular-20"/>
<use x="476.220703" xlink:href="#q"/>
<use x="550" xlink:href="#b"/>
<use x="575.292969" xlink:href="#d"/>
<use x="600.585938" xlink:href="#d"/>
</g>
<use x="613.840129" y="281.165917" fill="#262626" stroke="#262626" stroke-width=".8" xlink:href="#c"/>
<g transform="translate(591.61 324.36) rotate(-45) scale(.13 -.13)" fill="#262626">
<use xlink:href="#x"/>
<use x="77.880859" xlink:href="#h"/>
<use x="133.496094" xlink:href="#y"/>
<use x="185.986328" xlink:href="#d"/>
<use x="211.279297" xlink:href="#a"/>
<use x="267.382812" xlink:href="#t"/>
</g>
<use x="642.953173" y="281.165917" fill="#262626" stroke="#262626" stroke-width=".8" xlink:href="#c"/>
<g transform="translate(584.86 360.23) rotate(-45) scale(.13 -.13)" fill="#262626">
<defs>
<path id="an" transform="scale(.015625)" d="m263 1478v475h1534v-475h-1534z"/>
</defs>
<use xlink:href="#x"/>
<use x="77.880859" xlink:href="#ae"/>
<use x="127.978516" xlink:href="#a"/>
<use x="184.082031" xlink:href="#g"/>
<use x="224.902344" xlink:href="#an"/>
<use x="257.080078" xlink:href="#e"/>
<use x="292.382812" xlink:href="#u"/>
<use x="353.759766" xlink:href="#a"/>
<use x="409.863281" xlink:href="#an"/>
<use x="442.041016" xlink:href="#af"/>
<use x="503.857422" xlink:href="#u"/>
<use x="565.234375" xlink:href="#b"/>
<use x="590.527344" xlink:href="#j"/>
<use x="651.904297" xlink:href="#a"/>
</g>
<use x="672.066216" y="281.165917" fill="#262626" stroke="#262626" stroke-width=".8" xlink:href="#c"/>
<g transform="translate(635.23 338.97) rotate(-45) scale(.13 -.13)" fill="#262626">
<use xlink:href="#q"/>
<use x="73.779297" xlink:href="#t"/>
<use x="124.169922" xlink:href="#p"/>
<use x="185.449219" xlink:href="#a"/>
<use x="241.552734" xlink:href="#OpenSans-Regular-20"/>
<use x="267.529297" xlink:href="#r"/>
<use x="327.734375" xlink:href="#h"/>
<use x="383.349609" xlink:href="#g"/>
<use x="424.169922" xlink:href="#y"/>
</g>
<use x="701.17926" y="281.165917" fill="#262626" stroke="#262626" stroke-width=".8" xlink:href="#c"/>
<g transform="translate(636.91 366.4) rotate(-45) scale(.13 -.13)" fill="#262626">
<defs>
<path id="ao" transform="scale(.015625)" d="m1038 3425v-2222q0-419 190-625 191-206 597-206 538 0 786 293 248 294 248 960v1800h519v-3425h-428l-75 459h-28q-159-253-442-388-283-134-646-134-625 0-936 297-310 297-310 950v2241h525z"/>
</defs>
<use xlink:href="#ab"/>
<use x="55.615234" xlink:href="#h"/>
<use x="111.230469" xlink:href="#f"/>
<use x="158.935547" xlink:href="#e"/>
<use x="194.238281" xlink:href="#OpenSans-Regular-20"/>
<use x="220.214844" xlink:href="#w"/>
<use x="312.792969" xlink:href="#h"/>
<use x="368.408203" xlink:href="#d"/>
<use x="393.701172" xlink:href="#j"/>
<use x="455.078125" xlink:href="#ao"/>
<use x="516.455078" xlink:href="#e"/>
<use x="551.757812" xlink:href="#OpenSans-Regular-20"/>
<use x="577.734375" xlink:href="#q"/>
<use x="651.513672" xlink:href="#b"/>
<use x="676.806641" xlink:href="#d"/>
<use x="702.099609" xlink:href="#d"/>
<use x="727.392578" xlink:href="#f"/>
</g>
<use x="424.605346" y="281.165917" fill="#262626" stroke="#262626" stroke-width=".8" xlink:href="#i"/>
<g transform="translate(399.28 286.1) scale(.13 -.13)" fill="#262626">
<use xlink:href="#n"/>
<use x="57.177734" xlink:href="#o"/>
<use x="83.789062" xlink:href="#n"/>
</g>
<use x="424.605346" y="233.648374" fill="#262626" stroke="#262626" stroke-width=".8" xlink:href="#i"/>
<g transform="translate(399.28 238.59) scale(.13 -.13)" fill="#262626">
<use xlink:href="#n"/>
<use x="57.177734" xlink:href="#o"/>
<use x="83.789062" xlink:href="#al"/>
</g>
<use x="424.605346" y="186.130831" fill="#262626" stroke="#262626" stroke-width=".8" xlink:href="#i"/>
<g transform="translate(399.28 191.07) scale(.13 -.13)" fill="#262626">
<use xlink:href="#n"/>
<use x="57.177734" xlink:href="#o"/>
<use x="83.789062" xlink:href="#ak"/>
</g>
<use x="424.605346" y="138.613288" fill="#262626" stroke="#262626" stroke-width=".8" xlink:href="#i"/>
<g transform="translate(399.28 143.55) scale(.13 -.13)" fill="#262626">
<use xlink:href="#n"/>
<use x="57.177734" xlink:href="#o"/>
<use x="83.789062" xlink:href="#aj"/>
</g>
<use x="424.605346" y="91.095745" fill="#262626" stroke="#262626" stroke-width=".8" xlink:href="#i"/>
<g transform="translate(399.28 96.035) scale(.13 -.13)" fill="#262626">
<use xlink:href="#n"/>
<use x="57.177734" xlink:href="#o"/>
<use x="83.789062" xlink:href="#ai"/>
</g>
<use x="424.605346" y="43.578202" fill="#262626" stroke="#262626" stroke-width=".8" xlink:href="#i"/>
<g transform="translate(399.28 48.517) scale(.13 -.13)" fill="#262626">
<use xlink:href="#am"/>
<use x="57.177734" xlink:href="#o"/>
<use x="83.789062" xlink:href="#n"/>
</g>
<g transform="translate(392.16 209.86) rotate(-90) scale(.13 -.13)" fill="#262626">
<defs>
<path id="ap" transform="scale(.015625)" d="m2144-63q-335 0-612 123-276 124-463 381h-38q38-300 38-569v-1410h-519v4963h422l72-469h25q200 282 465 407 266 125 610 125 681 0 1051-466 371-466 371-1306 0-844-377-1312-376-467-1045-467zm-75 3110q-525 0-760-291-234-290-240-925v-115q0-722 240-1033 241-311 772-311 444 0 695 359 252 360 252 991 0 641-252 983-251 342-707 342z"/>
</defs>
<use xlink:href="#ah"/>
<use x="72.900391" xlink:href="#m"/>
<use x="133.300781" xlink:href="#v"/>
<use x="188.085938" xlink:href="#OpenSans-Regular-20"/>
<use x="214.0625" xlink:href="#x"/>
<use x="291.943359" xlink:href="#aa"/>
<use x="369.726562" xlink:href="#j"/>
<use x="431.103516" xlink:href="#a"/>
<use x="487.207031" xlink:href="#g"/>
<use x="528.027344" xlink:href="#f"/>
<use x="575.732422" xlink:href="#OpenSans-Regular-20"/>
<use x="601.708984" xlink:href="#ap"/>
<use x="662.988281" xlink:href="#a"/>
<use x="719.091797" xlink:href="#g"/>
<use x="759.912109" xlink:href="#OpenSans-Regular-20"/>
<use x="785.888672" xlink:href="#ad"/>
<use x="849.169922" xlink:href="#s"/>
<use x="896.777344" xlink:href="#g"/>
<use x="937.597656" xlink:href="#a"/>
</g>
<path d="m424.61 281.17v-271.8" fill="none" stroke="#262626" stroke-linecap="square" stroke-width=".8"/>
<path d="m424.61 281.17h291.13" fill="none" stroke="#262626" stroke-linecap="square" stroke-width=".8"/>
<defs>
<clipPath id="l">
<rect x="46.136" y="9.3659" width="291.13" height="271.8"/>
</clipPath>
<clipPath id="k">
<rect x="424.61" y="9.3659" width="291.13" height="271.8"/>
</clipPath>
</defs>
</svg>
