<svg xmlns="http://www.w3.org/2000/svg" height="744" viewBox="0 0 548.294 558" width="731.059" stroke-linecap="butt" stroke-linejoin="round" xmlns:v="https://vecta.io/nano"><path clip-path="url(#A)" d="M207.931 477.111l12.387 6.542 13.16-12.26 6.825-14.244 7.911-16.071 12.803-19.176 8.238-18.016 10.008-12.162 17.294 10.688 12.64 9.352 5.963 13.832 15.584 8.723 15.777 11.002 18.796 9.529 17.651 10.099 16.982 9.293 22.915 11.002 15.822 10.138 14.275-1.179 18.335-15.168 6.677-14.873 8.565-15.777 13.74 2.711 16.55 9.686-3.45 9.097-6.305 13.989-10.974 17.741-12.863 21.022-12.327 3.458-15.643-7.741-22.543-14.166-18.127-10.786-19.896-10.629-16.402-7.112-18.29-12.594-19.509-10.275-20-11.415-16.164-6.15-13.428-6.7-15.048-12.162-11.792-2.259-25.16-18.547-2.513-20.649 1.1-14.814-1.309-20.963 1.175-19.627 1.204-15.207 12.461-18.016 15.093-16.386 11.807-21.003 12.892-18.625 10.156-20.846 7.45-20.001 1.219-12.692 7.123-19.431 6.915-23.046 8.654-21.18 3.494-19.431-12.461-7.191 7.197-4.362 8.907-22.928-7.093-15.384-12.491-8.016-15.138-3.851-10.513 16.032-8.446 10.688-9.13 16.484 17.755 11.867 1.323 9.49-6.424 11.317-2.855 2.043 1.041 4.126 11.777 7.8.639 12.692-9.725 11.631-7.257 12.044-6.424 15.089 4.104 15.226 4.981-4.421-4.892 6.366-1.546 16.936-10.796 16.916-9.918 20.119-10.766 23.576-12.208-4.696-13.383 17.132-4.848 10.55-12.193 21.572-13.368-4.185-12.833-10.354-13.77-3.478-9.948 6.228-10.692-6.641-11.762-5.658-17.517-7.466-13.056-10.55-12.238-6.385 4.654-5.265 11.911-6.994-6.216-7.407-12.937-5.383-7.316 13.301-.654 13.576-7.762 8.389-5.903 15.796-8.149 14.578-9.026 20.728-.238 16.582 12.818 9.509-1.918 19.902-6.825 19.018-12.803 17.84-8.03 16.405 7.732 10.767 18.602 12.751 24.952 13.262 20.967 8.252 24.565 19.765 9.71-19.215 21.457 4.44 10.855-8.33 13.889 4.224 9.874 3.772" fill="none" stroke="#000" stroke-width="3"/><defs><clipPath id="A"><path d="M7.2 7.2h533.894v543.6H7.2z" stroke-linecap="butt" stroke-linejoin="round"/></clipPath></defs></svg>