<svg xmlns="http://www.w3.org/2000/svg" height="744" viewBox="0 0 189.928 558" width="253.237" stroke-linecap="butt" stroke-linejoin="round" xmlns:v="https://vecta.io/nano"><path clip-path="url(#A)" d="M167.996 31.909l2.883 2.12 3.749 2.242-.879 2.524-4.975 9.851-4.494 7.659-7.698 14.137-3.297 5.881-3.134 5.257-1.364 2.86-4.104 7.14-3.025 4.136-3.418 6.98-3.531 6.781-5.841 10.172-1.749 4.34-2.925 5.478.184-.298 3.063.922 6.364 2.728 14.083 7.825 8.129 4.445 5.263 4.208-2.749 6.019-25.212 45.518-3.544 6.792-4.456 7.924-8.05 14.799-2.833 4.997-.724.641-1.435 3.23-2.188 3.838-4.69 8.863-4.56 8.178-3.648 6.229-4.042 7.609-7.288 13.043-1.456 1.745-1.895 4.246-2.72 4.705-2.535 5.494-4.439 7.322-10.477 19.217-1.326.541-3.092 5.29 4.895 4.219 6.042 3.876 3.761 3.142-2.289 5.031-4.924 7.322-3.381 5.13-3.845 6.461-4.682 7.383-3.301 4.981-2.464 4.252-4.125 5.848-7.711 11.994-4.891 6.985-3.548 5.655-3.657 5.417-3.23 5.434-3.318 4.628-1.234 2.408-.414.16-.427 3.142.427-1.657 1.063 2.181h7.155l4.092 3.103 4.104-3.148 9.606-7.123 6.602-1.971 5.874-.188-2.201-2.8-3.577-3.076-6.33-3.567-1.992.839-6.05 5.682-4.661 6.417 3.485 5.058 4.715 4.766 14.376 15.379 12.188 13.104.339.006 1.72 1.469 7.585 7.93 17.962 18.891 5.058 5.108.326 7.62-.544 7.493-.042 4.766.36-.42.31.243 5.719.392 6.874.199 3.339-.16.343.547-1.372-9.481.096.006h.1l.506-.16 1.531.464 5.121.083 1.381-3.899.113-6.77-1.682-1.298-10.389-1.441.28.878.423 2.27-2.916-3.534-.933-3.551-2.736-6.428-3.657-7.775-2.523-6.693-2.485-5.947-2.427-6.472-3.029-7.074-3.724-7.422-11.347-27.434-2.017-7.107-.021-1.386 1.565-5.682 6.452-16.274 2.402-6.626 4.732-12.088.431-1.281.155-1.121.201-2.457-4.155-2.551-.598-6.19 2.87-10.155.828-6.35 1.853-7.024 1.31-6.406.536-3.81 1.418-6.179.54-4.854-.623-6.82 3.13-6.638 2.343-4.335 1.611-3.479-5.519-3.628-20.66-11.574.971-3.529 9.113-13.761 3.481-8.162 4.937-8.261 3.657-7.306 3.832-7.239 4.063-7.25 1.54-3.17 16.995-30.344 4.966-8.195 4.816-7.284 1.146-2.822 2.72-5.119 1.598-5.947 5.719-6.356 3.556-6.886 2.151-7.295-2.812-3.219-5.464-2.529-5.276-3.429-5.159-2.949-3.837-5.517.326-5.058-.887-4.39.335-6.742-.582-6.494.05-4.76-.268-11.11.1-5.61.577-5.042 1.259-3.926-1.385-1.502-.197-.641-.506-1.193 1.92 2.441 5.222 2.551 14.234 7.908 4.648 2.159 3.544-4.688 2.523-5.395 3.05-5.428 6.054-11.331 3.084-5.069 2.561-4.87 2.933-4.876.92-2.236-1.314-3.081-4.276-2.756-1.284-.679" fill="none" stroke="#000" stroke-width="3"/><defs><clipPath id="A"><path d="M7.2 7.2h175.528v543.6H7.2z" stroke-linecap="butt" stroke-linejoin="round"/></clipPath></defs></svg>