<svg xmlns="http://www.w3.org/2000/svg" height="744" viewBox="0 0 366.742 558" width="488.989" stroke-linecap="butt" stroke-linejoin="round" xmlns:v="https://vecta.io/nano"><path clip-path="url(#A)" d="M83.654 31.909l.575.852 2.007 1.22-2.902 5.001-1.339 2.848-5.59 10.18-1.627 2.506-1.336 2.69-2.759 4.631-3.886 7.428-.989 1.865.446 2.515-.156 2.777-.552 2.273-.816 2.282-.256.304-1.159 2.047.306 2.502-1.026 2.837-1.495 3.074-1.835 3.327-1.662 2.176-2.92 5.161-1.436 3.094-1.258 2.375-.303.328-1.09 2.091-1.214 2.646-1.559 2.537-1.046 2.249-4.091 7.053-5.936 10.785 1.495 1.586 2.33 1.464-.022.849 1.423 1.597 2.225 1.335 1.018 1.743-1.976 3.875-.94 1.04-1.132 2.185-.579 1.555-1.674 1.79-3.596 6.01-1.356 1.898-2.461 3.855.905.792 3.324 2.076 1.472 1.058-1.544 3.22-1.559 2.291-6.698 10.728-1.283 2.506-.897.774.077.062-2.087 3.189 1.171 2.526 1.541-.577 1.611-.845 1.914 1.703 7.199 7.652 2.241 2.701 1.346 1.493 1.556 1.45L54.8 222.439l.096 2.841-.02 2.857-.318 1.706-.077-.018-.064.14.36.18 2.241.277 2.41.071 2.304.767-.002 2.5 3.268 6.143.584 2.588 1.077 2.486 1.637 2.697 1.692 2.464 1.077 2.688 1.351 1.923.698 1.652 4.747 8.361.313.936 1.129 1.761 1.08 1.932 1.124 2.253 3.152 5.702.131 2.032.284 1.719.409.863 1.665.506 1.442 1.721 2.288 4.145 10.639 19.859.592 2.741.229 2.841 2.506 15.9.446 1.874-.126-.002.96 4.624-.03 1.717.234 2.216.072 2.757.21 3.056.446 2.894 1.739 2.621 6.424 8.619 1.859 2.242 3.551 4.476 2.298 2.817 5.122 6.456 3.759 4.633 5.603 6.991 3.956 5.015.626.918 1.524 1.65 3.406 4.201 2.945 3.427 3.877 4.642 3.938 4.631 18.282 21.768 5.43 6.359 5.716 7.017 2.705 3.156 1.556 1.788 1.188 1.595 1.403 1.464 1.334 1.765 1.907 2.131 4.971 6.234 15.317 17.996 1.731 1.865 1.855 2.63 2.087 2.185 1.448 2.1 2.012 4.323 1.77 4.247.229.326 1.058 2.236.801 2.067 2.922 5.733.844 3.038-1.295 1.136.343.293.222.976 1.913 4.358 1.822 4.158.992 1.002 1.018-.676.335-1.379.984-1.304 1.511-1.104-.03.016 2.639-1.218 1.664-.353 1.633.297 1.139.739-.005-.073-.16-.291h.024l.049.401.368.002-.187-.002.557-.195 1.726-.776 3.606-1.144 1.96-1.404 3.897-1.725.91-.674-.513-.929.227-1.031 4.111-2.375 30.087-16.283 2.133-1.131 7.8-3.455 5.378-2.342 5.547-1.961 6.57-2.404 9.664-3.872.56-1.404 3.837-1.814.802-.277 1.378-.825 2.565-1.3 1.253-.767.249-.481-.306-.934.283-3.036-1.004.262-.745-.836-.971-1.49-.898-2.371-.673-2.675-1.055-5.54-.823-4.212 1.357-3.613-1.066-1.424.188-1.595 2.754-24.27-.21-2.134-.589-2.063-.784-1.887-7.509-11.932-.828-1.788-.777-1.961-.582-2.049-2.274-10.406-3.835-17.448-1.46-3.919-1.847-3.466-1.909-3.207-.668-1.253-1.963-4.713-3.516-8.829-.59-1.555-.486-2.085-6.538-35.239-.326-1.255-1.166-6.545-2.849-14.886.071-2.411-.052-2.251-.294-1.925-1.393-6.625-1.06-7.11-2.148-5.624-2.052-5.296-1.585-2.111-.474-.938-1.214-1.541-1.309-2.511-.898-2.02-2.066-5.425-.728-1.73-.414-1.799-.431-3.489.008-1.741.214-1.688-.167-1.209-1.114-2.218-.742-1.104-.658-1.253-1.332-1.122-.318-1.73-.044-1.202.229-.827-.368-.61-.202-.951-1.373-1.75-1.847-1.597-1.359-1.402-1.99-3.03-1.534 1.513-1.712.639-5.855-9.366-.567-.974-1.751.259-5.319 2.054-1.578.756-.929-2.879-1.448-4.081-.234-3.766-.656-3.728-.14-1.859-.251-1.803-.525-1.921-1.973-5.655-.809-3.198.252-2.271 4.389-8.512.929-2.202-.854-2.852-.049-2.817.525-1.69 1.112-3.174.308-1.433-.923-.645-2.03-.96-2.118-.459-1.933-.843-1.482-1.038-3.578-3.256-.881-.49-4.346-1.071-10.735-2.624-20.345-5.103-1.49-.151-6.306-1.113-3.96-.579-1.502-.324-3.267-.375-5.559-.854-11.189-1.77-2.424-.319-4.745-.75-11.396-1.75-4.732-.685-1.231-.461-2.688-3.828-4.069-5.09-.047-.251-1.267-1.346-2.061-1.628-1.941-.612-1.307-.867-2.557-1.286-1.438-1.189-3.722-2.025-2.974-1.455-2.091-1.224-1.24-.534-1.098-.79-2.755-1.65-1.504-1.062-1.263-1.029-1.44-1.59-1.46-.821-1.87-1.417-1.95-1.195-4.683-2.273-.966-.177-1.018.049.363-.033-2.397-.262-2.116-.404-.801.486-1.6-.157-1.257-.55-.503-.781-.76-1.453-1.216-.563-1.087-.805-2.197-1.397-.271-.344-1.756 2.473-1.225-.747-.473-1.104.629-1.932.676-1.147-1.764-.88-1.467-1.204-1.413.723-2.047-.976-1.97-.798-1.68-1.02-1.69-.847-5.312-3.094.235-2.14 2.508-3.943 1.087-2.44 2.103-3.83 2.081-3.883 2.249-3.972 6.511-11.954 1.151-1.694 1.596-3.223-1.494-1.158-1.643-.923" fill="none" stroke="#000" stroke-width="3"/><defs><clipPath id="A"><path d="M7.2 7.2h352.342v543.6H7.2z" stroke-linecap="butt" stroke-linejoin="round"/></clipPath></defs></svg>