<svg xmlns="http://www.w3.org/2000/svg" xmlns:xlink="http://www.w3.org/1999/xlink" height="326.872" viewBox="0 0 642.994 245.154" width="857.325" stroke-linecap="butt" stroke-linejoin="round" xmlns:v="https://vecta.io/nano"><style><![CDATA[.B{stroke:#000}.C{fill:none}.D{clip-path:url(#m)}.E{stroke-width:.6}.F{stroke-linecap:butt}.G{stroke-linejoin:round}.H{stroke-width:.8}.I{stroke-linejoin:miter}.J{clip-path:url(#l)}.K{stroke-linecap:square}]]></style><path d="M0 245.154h642.994V0H0z" fill="#fff"/><g fill="url(#n)" stroke-width=".5" class="B I"><path d="M77.794 209.132h3.167v-33.373h-3.167z" class="J"/><path d="M77.794 161.457h3.551v-33.373h-3.551z" class="J"/><path d="M77.794 113.781h26.074V80.408H77.794z" class="J"/><path d="M77.794 66.105h225.182V32.732H77.794z" class="J"/></g><defs><path d="M0 0v3.5" id="A" class="B F G H"/></defs><use x="77.794" xlink:href="#A" y="217.952" class="B H"/><g transform="matrix(.13 0 0 -.13 74.084297 234.830156)"><defs><path d="M3297 2297q0-1203-367-1782Q2563-63 1819-63q-716 0-1088 595-372 596-372 1765 0 1194 361 1769 361 575 1099 575 722 0 1100-596 378-595 378-1748zm-2600 0q0-1063 278-1571 278-507 844-507 590 0 860 525 271 525 271 1553 0 1012-271 1537-270 525-860 525-591 0-857-525-265-525-265-1537z" id="B" transform="scale(.015625)" class="F G"/></defs><use xlink:href="#B"/></g><use x="125.091" xlink:href="#A" y="217.952" class="B H"/><g transform="matrix(.13 0 0 -.13 117.670957 234.830156)"><defs><path d="M2131 0h-306v3328q0 453 38 941-47-47-97-91-50-44-966-759l-178 222 1241 928h268V0z" id="C" transform="scale(.015625)" class="F G"/></defs><use xlink:href="#C"/><use x="57.08" xlink:href="#B"/></g><use x="172.388" xlink:href="#A" y="217.952" class="B H"/><g transform="matrix(.13 0 0 -.13 164.967695 234.830156)"><defs><path d="M3213 0H353v275l1216 1269q512 531 718 812 207 282 304 538 97 256 97 537 0 410-269 666-269 256-697 256-572 0-1094-415l-169 215q572 481 1269 481 597 0 939-319 342-318 342-877 0-454-230-877-229-423-838-1045L769 313v-13h2444V0z" id="D" transform="scale(.015625)" class="F G"/></defs><use xlink:href="#D"/><use x="57.08" xlink:href="#B"/></g><use x="219.685" xlink:href="#A" y="217.952" class="B H"/><g transform="matrix(.13 0 0 -.13 212.264433 234.830156)"><defs><path d="M3059 3494q0-425-267-716-267-290-717-372v-18q550-69 837-351 288-281 288-756 0-640-436-992Q2328-63 1509-63 813-63 294 197v309q262-137 588-215 327-78 615-78 691 0 1037 279 347 280 347 789 0 453-355 697-354 244-1042 244H991v300h500q568 0 901 270 333 271 333 733 0 381-271 611-270 230-707 230-341 0-622-96-281-95-631-326l-153 209q265 222 640 351 375 130 760 130 631 0 974-298 344-298 344-842z" id="E" transform="scale(.015625)" class="F G"/></defs><use xlink:href="#E"/><use x="57.08" xlink:href="#B"/></g><use x="266.981" xlink:href="#A" y="217.952" class="B H"/><g transform="matrix(.13 0 0 -.13 259.56117 234.830156)"><defs><path d="M3566 1166h-788V0h-294v1166H134v209l2266 3219h378V1434h788v-268zm-1082 268v1307q0 943 44 1584h-25q-62-116-384-587L506 1434h1978z" id="F" transform="scale(.015625)" class="F G"/></defs><use xlink:href="#F"/><use x="57.08" xlink:href="#B"/></g><defs><path d="M0 0h-3.5" id="G" class="B F G H"/></defs><use x="77.794" xlink:href="#G" y="192.446" class="B H"/><g transform="matrix(.13 0 0 -.13 25.196875 197.384685)"><defs><path d="M4488 2291q0-919-394-1521Q3700 169 3003 0l1041-1088h-519L2644-56l-103-7h-97q-953 0-1497 633-544 633-544 1727 0 1091 548 1717 549 627 1499 627 956 0 1497-630 541-630 541-1720zm-3738 0q0-982 437-1518 438-535 1257-535 825 0 1261 531 436 531 436 1522 0 987-436 1513-436 527-1255 527-816 0-1258-531-442-531-442-1509z" id="H" transform="scale(.015625)" class="F G"/><path d="M838 3397V1197q0-513 215-746 216-232 669-232 606 0 892 306 286 306 286 997v1875h306V0h-262l-56 469h-19Q2538-63 1691-63 531-63 531 1178v2219h307z" id="I" transform="scale(.015625)" class="F G"/><path d="M1941-63q-741 0-1155 456-414 457-414 1279 0 812 400 1301 400 490 1078 490 600 0 947-419 347-419 347-1138v-250H697q6-700 326-1069 321-368 918-368 290 0 510 40 221 41 558 175V153Q2722 28 2478-17q-244-46-537-46zm-91 3251q-491 0-788-324-296-323-346-933h2100q0 591-257 924-256 333-709 333z" id="J" transform="scale(.015625)" class="F G"/><path d="M2938 0v2203q0 513-216 745-216 233-669 233-609 0-892-308-283-307-283-998V0H569v3397h262l60-466h18q332 532 1179 532 1156 0 1156-1241V0h-306z" id="K" transform="scale(.015625)" class="F G"/><path d="M2675 884q0-456-347-702-347-245-984-245-681 0-1081 210v334q512-256 1081-256 503 0 764 167 261 167 261 446 0 256-208 431-208 175-683 344-509 184-716 317-206 133-311 300-104 167-104 408 0 381 320 603 321 222 896 222 550 0 1043-207l-115-281q-500 206-928 206-416 0-660-138-244-137-244-380 0-266 189-426 190-159 740-356 459-165 668-298 210-133 314-302 105-168 105-397z" id="L" transform="scale(.015625)" class="F G"/></defs><use xlink:href="#H"/><use x="76.416" xlink:href="#I"/><use x="135.4" xlink:href="#J"/><use x="190.283" xlink:href="#J"/><use x="245.166" xlink:href="#K"/><use x="304.15" xlink:href="#L"/></g><use x="77.794" xlink:href="#G" y="144.77" class="B H"/><g transform="matrix(.13 0 0 -.13 35.822344 149.70901)"><defs><path d="M647 4569h1253q847 0 1244-288 397-287 397-868 0-397-243-661-242-264-707-339v-19q547-81 804-346 258-264 258-735 0-632-419-973Q2816 0 2047 0H647v4569zm319-2035h1006q644 0 936 214 292 215 292 671 0 456-330 662-329 207-982 207H966V2534zm0-281V281h1075q1268 0 1268 1032 0 940-1337 940H966z" id="M" transform="scale(.015625)" class="F G"/><path d="M1906 3463q216 0 463-44l-60-297q-212 53-440 53-435 0-713-369-278-368-278-931V0H569v3397h262l32-613h21q210 375 447 527 238 152 575 152z" id="N" transform="scale(.015625)" class="F G"/><path d="M3378 1703q0-831-403-1299Q2572-63 1863-63q-447 0-788 216-341 216-522 619-181 403-181 931 0 831 403 1295 403 465 1106 465 700 0 1098-471 399-470 399-1289zm-2681 0q0-700 308-1092 308-392 870-392 563 0 870 392 308 392 308 1092 0 703-311 1090-311 388-873 388-563 0-868-386-304-386-304-1092z" id="O" transform="scale(.015625)" class="F G"/><path d="M1403 1747L219 3397h356l1013-1431 1003 1431h340L1766 1747 3016 0h-360L1588 1516 513 0H172l1231 1747z" id="P" transform="scale(.015625)" class="F G"/></defs><use xlink:href="#M"/><use x="62.695" xlink:href="#N"/><use x="101.611" xlink:href="#O"/><use x="160.205" xlink:href="#K"/><use x="219.189" xlink:href="#P"/></g><use x="77.794" xlink:href="#G" y="97.094" class="B H"/><g transform="matrix(.13 0 0 -.13 19.482969 102.033334)"><defs><path d="M872 1491l1734 1906h375L1644 1947 3097 0h-372L1434 1716l-556-507V0H569v4863h309V2425l-22-934h16z" id="Q" transform="scale(.015625)" class="F G"/><path d="M878 0H569v4863h309V0z" id="R" transform="scale(.015625)" class="F G"/><path d="M0 3397h319l719-1906q328-878 415-1185h19q131 403 428 1203l719 1888h319L1416-550q-185-481-310-650-125-169-292-253-167-85-405-85-178 0-396 66v269q181-50 390-50 160 0 281 75 122 75 220 233 99 157 229 500 130 342 167 445L0 3397z" id="S" transform="scale(.015625)" class="F G"/></defs><use xlink:href="#M"/><use x="62.695" xlink:href="#N"/><use x="101.611" xlink:href="#O"/><use x="160.205" xlink:href="#O"/><use x="218.799" xlink:href="#Q"/><use x="267.188" xlink:href="#R"/><use x="289.795" xlink:href="#S"/><use x="335.693" xlink:href="#K"/></g><use x="77.794" xlink:href="#G" y="49.419" class="B H"/><g transform="matrix(.13 0 0 -.13 7.2 54.357658)"><defs><path d="M2656 0L953 4219h-25q25-388 25-794V0H647v4569h494L2759 550h19l1619 4019h481V0h-322v3463q0 362 38 750h-25L2859 0h-203z" id="T" transform="scale(.015625)" class="F G"/><path d="M2631 0l-78 538h-25q-256-329-527-465-270-136-638-136-500 0-779 256-278 257-278 710 0 497 414 772 414 275 1199 291l647 18v225q0 485-197 732-197 247-635 247-471 0-978-263l-115 269q559 262 1106 262 559 0 835-291 277-290 277-906V0h-228zM1381 219q544 0 858 311 314 311 314 864v334l-594-25q-715-34-1020-223-305-189-305-589 0-319 195-496 196-176 552-176z" id="U" transform="scale(.015625)" class="F G"/><path d="M2938 0v2203q0 513-216 745-216 233-669 233-609 0-892-308-283-307-283-998V0H569v4863h309V3316l-15-435h21q191 307 481 444 291 138 723 138 1156 0 1156-1241V0h-306z" id="V" transform="scale(.015625)" class="F G"/><path d="M1466 213q293 0 512 50V13q-225-76-519-76-450 0-664 241-214 241-214 756v2194H78v181l503 141 157 769h159v-822h997v-269H897V978q0-390 137-578 138-187 432-187z" id="W" transform="scale(.015625)" class="F G"/></defs><use xlink:href="#T"/><use x="86.279" xlink:href="#U"/><use x="139.258" xlink:href="#K"/><use x="198.242" xlink:href="#V"/><use x="257.227" xlink:href="#U"/><use x="310.205" xlink:href="#W"/><use x="343.701" xlink:href="#W"/><use x="377.197" xlink:href="#U"/><use x="430.176" xlink:href="#K"/></g><path d="M77.794 217.952V23.912m0 194.04h236.441" stroke-width=".7" class="B C I K"/><g transform="matrix(.13 0 0 -.13 85.690636 195.822654)"><defs><path d="M506 244q0 306 250 306 257 0 257-306 0-307-257-307-250 0-250 307z" id="X" transform="scale(.015625)" class="F G"/><path d="M409 1947q0 891 242 1498 243 608 688 902 445 294 1074 294 293 0 537-72v-275q-228 84-550 84-772 0-1202-556-429-556-482-1619h40q238 306 544 462 306 157 647 157 641 0 1001-366 361-365 361-1009 0-700-380-1105Q2550-63 1906-63q-693 0-1095 530-402 530-402 1480zM1906 213q513 0 797 321 285 322 285 919 0 525-282 819-281 294-765 294-319 0-593-141-273-141-436-374-162-232-162-476 0-347 154-667 155-320 419-508 265-187 583-187z" id="Y" transform="scale(.015625)" class="F G"/><path d="M1044 0l1881 4269H341v300h2956v-228L1409 0h-365z" id="Z" transform="scale(.015625)" class="F G"/><path d="M659 3206q0-581 141-873 141-292 441-292 603 0 603 1165 0 575-155 864-155 289-448 289-300 0-441-289-141-289-141-864zm1491 0q0-706-235-1073-234-367-674-367-416 0-652 376-236 377-236 1064 0 697 225 1062 225 366 663 366 434 0 671-377 238-376 238-1051zm1172-1837q0-578 140-867 141-289 441-289 603 0 603 1156 0 1153-603 1153-300 0-441-286-140-286-140-867zm1491 0q0-706-232-1074-231-367-672-367-425 0-659 380-234 380-234 1061 0 703 229 1065 230 363 664 363 429 0 666-375 238-375 238-1053zm-813 3200L1466 0h-300l2534 4569h300z" id="a" transform="scale(.015625)" class="F G"/></defs><use xlink:href="#B"/><use x="57.08" xlink:href="#X"/><use x="80.859" xlink:href="#Y"/><use x="137.939" xlink:href="#Z"/><use x="195.02" xlink:href="#a"/></g><g transform="matrix(.13 0 0 -.13 86.075061 148.146978)"><defs><path d="M1678 2747q731 0 1151-353 421-353 421-972 0-703-438-1094Q2375-63 1606-63q-340 0-647 67-306 68-512 193v322q337-172 599-239 263-67 560-67 600 0 962 317 363 317 363 858 0 509-353 799-353 291-959 291-406 0-850-122l-188 122 182 2091h2200v-300H1056L916 2656q487 91 762 91z" id="b" transform="scale(.015625)" class="F G"/></defs><use xlink:href="#B"/><use x="57.08" xlink:href="#X"/><use x="80.859" xlink:href="#Z"/><use x="137.939" xlink:href="#b"/><use x="195.02" xlink:href="#a"/></g><g transform="matrix(.13 0 0 -.13 108.598092 100.471303)"><use xlink:href="#b"/><use x="57.08" xlink:href="#X"/><use x="80.859" xlink:href="#b"/><use x="137.939" xlink:href="#C"/><use x="195.02" xlink:href="#a"/></g><g transform="matrix(.13 0 0 -.13 307.705647 52.795627)"><use xlink:href="#F"/><use x="57.08" xlink:href="#Z"/><use x="114.16" xlink:href="#X"/><use x="137.939" xlink:href="#Y"/><use x="195.02" xlink:href="#C"/><use x="252.1" xlink:href="#a"/></g><g transform="matrix(.14 0 0 -.14 168.082526 17.912188)"><defs><path d="M3144 0H647v4569h2497v-294H966V2547h2056v-294H966V294h2178V0z" id="c" transform="scale(.015625)" class="F G"/><path d="M2022-63q-784 0-1144 588h-22l10-262q12-232 12-507v-1294H569v4935h262l60-484h18q350 550 1119 550 688 0 1049-452 361-452 361-1314 0-838-380-1299Q2678-63 2022-63zm-6 276q522 0 807 387 286 388 286 1084 0 1497-1081 1497-594 0-872-327-278-326-278-1063v-100q0-797 267-1138 268-340 871-340z" id="d" transform="scale(.015625)" class="F G"/><path d="M1813 3463q368 0 637-135 269-134 481-459h19q-19 394-19 772v1222h307V0h-204l-78 519h-25Q2544-63 1819-63q-703 0-1075 438-372 438-372 1275 0 881 368 1347 369 466 1073 466zm0-282q-557 0-837-391-279-390-279-1134 0-1443 1122-1443 575 0 843 334 269 334 269 1103v53q0 788-264 1133-264 345-854 345z" id="e" transform="scale(.015625)" class="F G"/></defs><use xlink:href="#c"/><use x="55.176" xlink:href="#P"/><use x="104.98" xlink:href="#d"/><use x="164.502" xlink:href="#R"/><use x="187.109" xlink:href="#O"/><use x="245.703" xlink:href="#N"/><use x="284.619" xlink:href="#J"/><use x="339.502" xlink:href="#e"/></g><defs><path d="M0 2.739a2.74 2.74 0 0 0 1.936-.802A2.74 2.74 0 0 0 2.739 0a2.74 2.74 0 0 0-.802-1.936A2.74 2.74 0 0 0 0-2.739a2.74 2.74 0 0 0-1.936.802A2.74 2.74 0 0 0-2.739 0a2.74 2.74 0 0 0 .802 1.936A2.74 2.74 0 0 0 0 2.739z" id="f" class="F G"/></defs><g class="D B C E"><use x="414.4" xlink:href="#f" y="201.782"/></g><g class="D B C E"><use x="418.699" xlink:href="#f" y="201.782"/></g><g class="D B C E"><use x="422.998" xlink:href="#f" y="201.782"/></g><g class="D B C E"><use x="427.297" xlink:href="#f" y="199.854"/></g><g class="D B C E"><use x="431.596" xlink:href="#f" y="201.782"/></g><g class="D B C E"><use x="435.895" xlink:href="#f" y="201.782"/></g><g class="D B C E"><use x="440.193" xlink:href="#f" y="154.596"/></g><g class="D B C E"><use x="444.492" xlink:href="#f" y="201.782"/></g><g class="D B C E"><use x="448.791" xlink:href="#f" y="159.93"/></g><g class="D B C E"><use x="453.09" xlink:href="#f" y="181.388"/></g><g class="D B C E"><use x="457.389" xlink:href="#f" y="154.537"/></g><g class="D B C E"><use x="461.688" xlink:href="#f" y="201.782"/></g><g class="D B C E"><use x="465.987" xlink:href="#f" y="64.571"/></g><g class="D B C E"><use x="470.286" xlink:href="#f" y="172.061"/></g><g class="D B C E"><use x="474.585" xlink:href="#f" y="194.521"/></g><g class="D B C E"><use x="478.884" xlink:href="#f" y="193.735"/></g><g class="D B C E"><use x="483.183" xlink:href="#f" y="182.296"/></g><g class="D B C E"><use x="487.482" xlink:href="#f" y="191.527"/></g><g class="D B C E"><use x="491.781" xlink:href="#f" y="139.373"/></g><g class="D B C E"><use x="496.079" xlink:href="#f" y="196.218"/></g><g class="D B C E"><use x="500.378" xlink:href="#f" y="187.868"/></g><g class="D B C E"><use x="504.677" xlink:href="#f" y="148.119"/></g><g class="D B C E"><use x="508.976" xlink:href="#f" y="70.985"/></g><g class="D B C E"><use x="513.275" xlink:href="#f" y="188.759"/></g><g class="D B C E"><use x="517.574" xlink:href="#f" y="200.694"/></g><g class="D B C E"><use x="521.873" xlink:href="#f" y="142.811"/></g><g class="D B C E"><use x="526.172" xlink:href="#f" y="189.298"/></g><g class="D B C E"><use x="530.471" xlink:href="#f" y="40.082"/></g><g class="D B C E"><use x="534.77" xlink:href="#f" y="188.605"/></g><g class="D B C E"><use x="539.069" xlink:href="#f" y="181.16"/></g><g class="D B C E"><use x="543.368" xlink:href="#f" y="156.837"/></g><g class="D B C E"><use x="547.666" xlink:href="#f" y="175.935"/></g><g class="D B C E"><use x="551.965" xlink:href="#f" y="103.458"/></g><g class="D B C E"><use x="556.264" xlink:href="#f" y="108.316"/></g><g class="D B C E"><use x="560.563" xlink:href="#f" y="148.098"/></g><g class="D B C E"><use x="564.862" xlink:href="#f" y="187.415"/></g><g class="D B C E"><use x="569.161" xlink:href="#f" y="174.985"/></g><g class="D B C E"><use x="573.46" xlink:href="#f" y="184.142"/></g><g class="D B C E"><use x="577.759" xlink:href="#f" y="184.752"/></g><g class="D B C E"><use x="582.058" xlink:href="#f" y="181.824"/></g><g class="D B C E"><use x="586.357" xlink:href="#f" y="190.468"/></g><g class="D B C E"><use x="590.656" xlink:href="#f" y="188.777"/></g><g class="D B C E"><use x="594.955" xlink:href="#f" y="93.173"/></g><g class="D B C E"><use x="599.254" xlink:href="#f" y="200.872"/></g><g class="D B C E"><use x="603.552" xlink:href="#f" y="186.827"/></g><g class="D B C E"><use x="607.851" xlink:href="#f" y="197.888"/></g><g class="D B C E"><use x="612.15" xlink:href="#f" y="189.678"/></g><g class="D B C E"><use x="616.449" xlink:href="#f" y="180.134"/></g><g class="D B C E"><use x="620.748" xlink:href="#f" y="195.822"/></g><g class="D B C E"><use x="625.047" xlink:href="#f" y="188.745"/></g><g class="B H"><use x="410.101" xlink:href="#A" y="217.952"/><use x="453.09" xlink:href="#A" y="217.952"/><use x="496.079" xlink:href="#A" y="217.952"/><use x="539.069" xlink:href="#A" y="217.952"/><use x="582.058" xlink:href="#A" y="217.952"/><use x="625.047" xlink:href="#A" y="217.952"/><use x="399.354" xlink:href="#G" y="201.782"/></g><use xlink:href="#B" transform="matrix(.13 0 0 -.13 384.933541 206.721172)"/><use x="399.354" xlink:href="#G" y="169.442" class="B H"/><g transform="matrix(.13 0 0 -.13 377.513385 174.381172)"><use xlink:href="#D"/><use x="57.08" xlink:href="#B"/></g><use x="399.354" xlink:href="#G" y="137.102" class="B H"/><g transform="matrix(.13 0 0 -.13 377.513385 142.041172)"><use xlink:href="#F"/><use x="57.08" xlink:href="#B"/></g><use x="399.354" xlink:href="#G" y="104.762" class="B H"/><g transform="matrix(.13 0 0 -.13 377.513385 109.701172)"><use xlink:href="#Y"/><use x="57.08" xlink:href="#B"/></g><use x="399.354" xlink:href="#G" y="72.422" class="B H"/><g transform="matrix(.13 0 0 -.13 377.513385 77.361172)"><defs><path d="M1819 4647q581 0 935-297 355-297 355-803 0-350-220-619-220-269-714-497 600-247 844-541 244-293 244-712 0-565-396-903Q2472-63 1806-63q-690 0-1059 316-369 316-369 919 0 409 259 718 260 310 804 529-503 237-710 501-206 264-206 633 0 328 165 576 166 249 464 383 299 135 665 135zM697 1125q0-431 292-669 292-237 817-237 513 0 825 251 313 252 313 683 0 388-246 630-245 242-945 508-575-222-816-491-240-269-240-675zm1116 3241q-441 0-708-218-267-217-267-595 0-219 98-386 98-167 284-303 186-136 624-317 509 197 731 434 222 238 222 572 0 375-264 594-264 219-720 219z" id="g" transform="scale(.015625)" class="F G"/></defs><use xlink:href="#g"/><use x="57.08" xlink:href="#B"/></g><use x="399.354" xlink:href="#G" y="40.082" class="B H"/><g transform="matrix(.13 0 0 -.13 370.093228 45.021172)"><use xlink:href="#C"/><use x="57.08" xlink:href="#B"/><use x="114.16" xlink:href="#B"/></g><g transform="matrix(0 -.1 -.1 0 364.013541 125.682969)"><defs><path d="M4653 2053q-272 0-427-231-154-231-154-644 0-406 154-639 155-233 427-233 266 0 420 233 155 233 155 639 0 410-155 642-154 233-420 233zm0 397q494 0 784-344 291-343 291-928 0-584-292-927-292-342-783-342-500 0-791 342-290 343-290 927 0 588 292 930 292 342 789 342zM1428 4353q-269 0-424-233-154-232-154-639 0-412 153-644 153-231 425-231 272 0 426 231 155 232 155 644 0 403-156 637-156 235-425 235zm2822 397h500L1831-91h-500l2919 4841zm-2822 0q494 0 787-342 294-342 294-927 0-590-292-931-292-341-789-341-497 0-786 342-289 343-289 930 0 582 290 925 291 344 785 344z" id="h" transform="scale(.015625)" class="F G"/></defs><use xlink:href="#h"/></g><g class="B C"><path d="M410.101 120.932h214.946" stroke-dasharray="2.96,1.28" class="D H"/><g class="K"><path d="M414.4 188.441h4.299l4.299.141 4.299 1.202 4.299.97 4.299.215 4.299-3.627 4.299 7.66 4.299-3.673 4.299-.682 4.299-4.724h4.299l4.299-13.721 4.299-2.779 4.299-.726 4.299-.805 4.299 2.77 4.299-1.026 4.299-2.056 4.299 1.483 4.299 3.333 4.299-5.366 4.299.641 4.299 1.67 4.299.617 4.299-5.092 4.299.7 4.299-15.144 4.299 4.923 4.299-1.506 4.299-3.103 4.299 2.782 4.299 3.247 4.299-8.044 4.299-5.26 4.299 4.46 4.299-1.431 4.299 14.406 4.299-.385 4.299.066 4.299 3.363 4.299 1.284 4.299-1.029 4.299 9.256 4.299 3.873 4.299 1.047 4.299 1.469 4.299-.401 4.299 1.107 4.299.692" class="D"/><path d="M399.354 217.952V23.912m0 194.04h236.441" stroke-width=".7" class="I"/></g></g><g transform="matrix(.14 0 0 -.14 488.512005 17.912188)"><defs><path d="M1831 3128h-800V0H722v3128H91v181l631 116v263q0 625 229 917 230 292 752 292 281 0 563-84l-72-269q-250 78-497 78-363 0-515-214-151-214-151-695v-316h800v-269z" id="i" transform="scale(.015625)" class="F G"/><path d="M878 0H569v3397h309V0zM525 4341q0 300 197 300 97 0 151-79 55-78 55-221 0-141-55-222-54-81-151-81-197 0-197 303z" id="j" transform="scale(.015625)" class="F G"/><path d="M1925-63q-728 0-1141 459-412 460-412 1282 0 844 428 1314 428 471 1172 471 441 0 844-154l-85-275q-440 147-765 147-625 0-947-386-322-386-322-1111 0-687 322-1076 322-389 900-389 462 0 859 165V97Q2453-63 1925-63z" id="k" transform="scale(.015625)" class="F G"/></defs><use xlink:href="#c"/><use x="55.176" xlink:href="#i"/><use x="85.156" xlink:href="#i"/><use x="115.137" xlink:href="#j"/><use x="137.744" xlink:href="#k"/><use x="185.254" xlink:href="#j"/><use x="207.861" xlink:href="#J"/><use x="262.744" xlink:href="#K"/><use x="321.729" xlink:href="#k"/><use x="369.238" xlink:href="#S"/></g><defs><clipPath id="l"><path d="M77.794 23.912h236.441v194.04H77.794z" class="F G"/></clipPath><clipPath id="m"><path d="M399.354 23.912h236.441v194.04H399.354z" class="F G"/></clipPath><pattern height="72" id="n" patternUnits="userSpaceOnUse" width="72"><g class="F"><path d="M0 0h73v73H0z" class="C G"/><path d="M-36 36l72-72m-68 76l72-72m-68 76l72-72m-68 76l72-72m-68 76l72-72m-68 76l72-72m-68 76l72-72M-8 64L64-8M-4 68L68-4M0 72L72 0M4 76L76 4M8 80L80 8M12 84l72-72M16 88l72-72M20 92l72-72M24 96l72-72m-68 76l72-72m-68 76l72-72m-68 76l72-72" fill="#000" stroke-width="1" class="B I"/></g></pattern></defs></svg>