<svg xmlns="http://www.w3.org/2000/svg" xmlns:xlink="http://www.w3.org/1999/xlink" width="184.632" height="43.8" viewBox="0 -1460 10200.9 2420" xmlns:v="https://vecta.io/nano"><defs><path id="A" d="M23 287q1 3 2 8 1 5 5 22 4 17 10 31 6 14 15 33 9 19 20 30 11 11 26 22 15 11 33 9 75 0 96-64l10 9q62 55 118 55 65 0 102-47 37-47 37-114 0-108-76-199-76-91-172-92-22 0-39 6-11 5-23 15-12 10-19 17l-7 8q-1-1-22-87-21-86-21-87 0-6 8-7 8-1 37-3h25q6-7 6-9 0-2-3-18-3-12-6-15-3-3-13-4-2 0-11 0-9 0-34 1-25 1-62 1-70 0-89-2h-8q-7 7-7 11 2 27 13 35h20q34 1 39 12 3 6 61 239 58 233 61 247 1 5 1 14 0 41-25 41-22 0-37-28-15-28-23-61-8-33-12-36-2-2-16-2H29q-6 6-6 9zm155-185q22-76 74-76 30 0 58 23 28 23 46 58 18 34 36 108 18 74 19 110v6q0 74-61 74-11 0-22-3-11-3-22-9-11-6-20-13-9-7-17-15-8-8-15-15-7-7-11-14-4-7-8-10l-3-4q0-1-3-14-3-13-11-44-8-31-14-52-26-106-26-110z"/><path id="B" d="M21 287q1 6 3 16 2 10 12 38 10 28 20 47 10 19 32 37 22 18 44 17 22-1 43-7 21-6 30-18 9-12 16-22 7-10 8-19l2-7q0-2 1-2l11 11q60 64 141 64 17 0 31-2 14-2 26-7 12-5 19-10 7-5 15-12 8-7 10-13 2-6 8-13 6-7 4-12-2-5 3-9 5-4 2-7l8 10q63 75 149 75 54 0 87-27 33-27 34-79 0-51-38-158-38-107-38-128 1-14 5-19 4-5 15-5 28 0 52 30 24 30 39 82 3 11 6 13 3 2 16 2 20 0 20-8 0-1-4-15-8-29-22-57-14-28-46-56-32-28-69-27-47 0-68 27-21 27-21 56 0 19 36 120 36 101 37 152 0 59-44 59h-5q-86 0-145-101l-7-12-33-134Q433 26 428 16q-13-27-43-27-13 0-21 7-8 7-11 12-3 5-3 10 0 11 34 143l36 146q3 15 3 38 0 59-44 59h-5q-86 0-145-101l-7-12-33-134Q156 26 151 16q-13-27-43-27-13 0-21 6-8 6-11 12-3 6-2 10 0 13 38 164 39 154 39 161 3 15 3 27 0 36-25 36-22 0-37-28-15-28-23-61-8-33-12-36-2-2-16-2H27q-6 6-6 9z"/><path id="C" d="M184 600q0 24 19 42 19 18 44 19 18 0 30-12 12-12 13-30 0-23-20-42-20-19-44-20-15 0-28 10-13 10-14 33zM21 287q0 8 9 31 9 23 24 51 15 28 44 51 29 23 60 22 39 0 65-23 26-23 27-62 0-17-14-56-14-39-40-105-26-66-42-113-5-22-5-32 0-25 17-25 9 0 19 3 10 3 23 14 13 11 27 35 14 24 25 59 3 12 5 14 2 2 17 2 20 0 20-10 0-8-9-31-9-23-25-51-16-28-45-50-29-22-62-22-32 0-59 21-27 21-28 64 0 17 5 32 5 15 43 114 38 101 44 121 6 20 7 39 0 24-17 24h-2q-30 0-55-33-25-33-38-84-1-1-2-3-1-2-1-3 0-1-2-2-2-1-3-1-1 0-4 0-3 0-8 0H27q-6 6-6 9z"/><path id="D" d="M94 250Q94 319 104 381T127 488T164 576T202 643T244 695T277 729T302 750H315H319Q333 750 333 741Q333 738 316 720T275 667T226 581T184 443T167 250T184 58T225 -81T274 -167T316 -220T333 -241Q333 -250 318 -250H315H302L274 -226Q180 -141 137 -14T94 250Z"/><path id="E" d="M33 157q0 101 76 192 76 91 171 92 51 0 90-49 16 30 46 30 13 0 23-8 10-8 10-20 0-13-37-160-37-147-38-166 0-25 7-33 7-8 21-9 9 1 20 9 21 20 41 96 6 20 10 21 2 1 10 1h4q19 0 19-9 0-6-5-27-5-21-20-54-15-33-32-50-13-13-32-21-8-2-24-2-34 0-57 15-23 15-30 31l-6 15q-1 1-4-1-2-2-4-4-59-56-120-56-55 0-97 40-42 40-42 127zm318 171q0 6-5 22-5 16-23 35-18 19-46 20-35 0-67-31-32-31-50-81-29-79-41-164 0-3 0-11 0-8-1-12 0-45 18-62 18-17 43-18 38 0 75 33 37 33 44 51 2 4 27 107 25 103 26 111z"/><path id="F" d="M78 370Q78 394 95 412T138 430Q162 430 180 414T199 371Q199 346 182 328T139 310T96 327T78 370ZM78 60Q78 85 94 103T137 121Q202 121 202 8Q202 -44 183 -94T144 -169T118 -194Q115 -194 106 -186T95 -174Q94 -171 107 -155T137 -107T160 -38Q161 -32 162 -22T165 -4T165 4Q165 5 161 4T142 0Q110 0 94 18T78 60Z"/><path id="G" d="M73 647q0 10 4 23 4 13 12 13 1 0 72 5 71 5 73 6 12 0 12-9 0-9-34-143-8-34-17-70-9-36-15-54l-4-19q0-3 6 3 49 40 101 40 62 0 100-46 38-46 39-116 0-111-79-201-79-90-170-90-50 0-91 38-41 38-42 123v9q0 21 8 58 8 37 49 197 50 197 50 209 0 12-38 14-5 0-8 0h-5q-10 0-13 0-3 0-7 3-4 3-3 7zm263-322v6q0 74-61 74-17 0-35-8-18-8-33-21-15-13-26-24-11-11-18-22l-6-8-21-86q-22-86-22-122 0-48 24-72 16-16 40-16 33 0 67 32 25 23 40 56 15 33 33 105 18 72 18 106z"/><path id="H" d="M60 749l4 1q5 0 10 0h12l28-24q94-85 137-212 43-127 43-264 0-68-10-131-10-63-23-107-13-44-37-88-24-44-38-67-14-23-41-51-27-28-32-33-5-5-23-19-3-3-4-4H74q-8 0-11 0-3 0-5 3-2 3-3 9 1 1 11 13Q221-64 221 250q0 314-155 475-10 12-11 13 0 8 5 11z"/><path id="I" d="M56 347q0 13 14 20h637q15-8 15-20 0-11-14-19l-318-1H72q-16 5-16 20zm0-194q0 15 16 20h636q14-10 14-20 0-13-15-20H70q-14 7-14 20z"/><path id="J" d="M42 46h14q39 0 47 14v8q0 9 0 23 0 14 0 33 0 19 1 43 1 24 0 50-1 26 0 55 1 29 0 57 0 37 0 78 0 41 0 75 0 34 0 60 0 26-1 44-1 18 0 17-3 19-14 25-11 6-45 9H26v23q0 23 2 23l10 1q10 1 29 2 19 1 37 2 17 1 37 2 20 1 30 3 10 2 11 1h3V379q0-317 1-319 4-8 12-11 21-3 49-3h16V0h-8l-23 1q-23 1-49 1-26 0-38 1-12 1-38 0-26-1-50-2L34 0h-8v46h16z"/><path id="K" d="M41 46h14q39 0 47 14v8q0 9 0 23 0 14 0 31 0 17 1 39 1 22 0 42 0 31 0 66 0 35-1 59v23q-3 19-14 25-11 6-45 9H25v23q0 23 2 23l10 1q10 1 28 2 18 1 37 2 17 1 36 2 19 1 29 3 10 2 11 1h3v-40q0-38 1-38 1 0 5 5 4 5 12 15 8 10 19 18 11 8 29 19 18 11 38 16 20 5 51 5 114-4 127-113 1-7 1-139v-86q0-38 2-45 2-7 11-10 21-3 49-3h16V0h-8l-24 1q-23 1-50 1-27 0-38 1-103 0-112-3h-8v46h16q61 0 61 16 1 2 1 138-1 135-2 143-6 28-20 42-14 14-24 17-10 3-26 2-45 0-79-34-27-27-34-55-7-28-8-83v-64-60q0-30 1-40 1-10 3-13 2-3 9-6 21-3 49-3h16V0h-8l-23 1q-24 1-51 1-27 0-38 1Q42 3 33 0h-8v46h16z"/><path id="L" d="M78 35T78 60T94 103T137 121Q165 121 187 96T210 8Q210 -27 201 -60T180 -117T154 -158T130 -185T117 -194Q113 -194 104 -185T95 -172Q95 -168 106 -156T131 -126T157 -76T173 -3V9L172 8Q170 7 167 6T161 3T152 1T140 0Q113 0 96 17Z"/></defs><g transform="scale(1 -1)"><use xlink:href="#A"/><use xlink:href="#B" x="503"/><use xlink:href="#C" x="1381"/><g transform="translate(1726)"><use xlink:href="#D"/><use xlink:href="#E" x="389"/><use xlink:href="#F" x="918"/><use xlink:href="#G" x="1362.7"/><use xlink:href="#H" x="1791.7"/></g><use xlink:href="#I" x="4184.4"/><g transform="translate(5240.2)"><use xlink:href="#J"/><use xlink:href="#K" x="278"/></g><use xlink:href="#L" x="6074.2"/><g transform="translate(6240.9)"><g transform="translate(638.2 710)"><use xlink:href="#A"/><g transform="translate(503)"><use xlink:href="#D"/><use xlink:href="#E" x="389"/><use xlink:href="#L" x="918"/><use xlink:href="#G" x="1362.7"/><use xlink:href="#H" x="1791.7"/></g></g><g transform="translate(220 -710)"><use xlink:href="#A"/><g transform="translate(503)"><use xlink:href="#D"/><use xlink:href="#E" x="389"/><use xlink:href="#H" x="918"/></g><use xlink:href="#A" x="1810"/><g transform="translate(2313)"><use xlink:href="#D"/><use xlink:href="#G" x="389"/><use xlink:href="#H" x="818"/></g></g><path d="M120 220h3720v60H120z"/></g></g></svg>