<?xml version="1.0" encoding="utf-8" standalone="no"?>
<!DOCTYPE svg PUBLIC "-//W3C//DTD SVG 1.1//EN"
  "http://www.w3.org/Graphics/SVG/1.1/DTD/svg11.dtd">
<svg height="263.226862pt" version="1.1" viewBox="0 0 572.4 263.226862" width="572.4pt" xmlns="http://www.w3.org/2000/svg" xmlns:xlink="http://www.w3.org/1999/xlink">
 <metadata>
  <rdf:RDF xmlns:cc="http://creativecommons.org/ns#" xmlns:dc="http://purl.org/dc/elements/1.1/" xmlns:rdf="http://www.w3.org/1999/02/22-rdf-syntax-ns#">
   <cc:Work>
    <dc:type rdf:resource="http://purl.org/dc/dcmitype/StillImage"/>
    <dc:date>2021-05-26T19:20:23.521434</dc:date>
    <dc:format>image/svg+xml</dc:format>
    <dc:creator>
     <cc:Agent>
      <dc:title>Matplotlib v3.4.2, https://matplotlib.org/</dc:title>
     </cc:Agent>
    </dc:creator>
   </cc:Work>
  </rdf:RDF>
 </metadata>
 <defs>
  <style type="text/css">*{stroke-linecap:butt;stroke-linejoin:round;}</style>
 </defs>
 <g id="figure_1">
  <g id="patch_1">
   <path d="M 0 263.226862 
L 572.4 263.226862 
L 572.4 0 
L 0 0 
z
" style="fill:none;"/>
  </g>
  <g id="axes_1">
   <g id="LineCollection_1">
    <path clip-path="url(#p9f46884bcd)" d="M 156.625257 162.587671 
L 159.834877 146.741695 
L 160.140555 130.276515 
L 162.105628 114.28981 
L 163.415677 96.811389 
L 164.572887 80.374355 
L 149.769335 74.379341 
L 142.804242 61.12276 
L 144.660145 45.164201 
L 140.577159 29.487098 
L 125.315091 25.321549 
L 107.847774 23.829832 
L 90.118447 22.394406 
L 73.764671 22.450697 
L 58.349763 20.818252 
L 41.559305 19.326535 
L 32.563636 18.510312 
L 53.262407 19.129515 
L 70.817061 21.071562 
L 86.668652 20.95898 
L 101.537705 22.028513 
L 120.839091 23.857977 
L 143.699442 25.37784 
L 166.406955 28.248692 
L 176.843677 37.958926 
L 174.900438 54.902581 
L 175.708301 71.283324 
L 183.961609 83.667391 
L 199.092672 81.753489 
L 214.61675 83.611099 
L 230.249999 87.889232 
L 250.359248 87.692212 
L 268.001239 88.564726 
L 287.499132 88.255124 
L 304.093083 91.069685 
L 321.211054 91.829617 
L 337.018976 93.60279 
L 353.285415 96.529933 
L 370.490723 97.430592 
L 389.573767 99.485221 
L 407.565104 100.414026 
L 425.359933 103.116005 
L 442.215894 105.508381 
L 459.617709 106.521623 
L 475.032617 106.099439 
L 490.185514 108.351087 
L 505.491251 108.46367 
L 512.609183 118.567943 
L 510.927954 136.496694 
L 514.574256 151.076118 
L 515.098276 167.991627 
L 515.272949 187.215076 
L 515.163778 202.723306 
L 514.486919 217.527895 
L 514.421417 233.176852 
L 520.382139 243.252979 
L 538.548149 244.71655 
L 539.836364 244.266221 
" style="fill:none;stroke:#000000;stroke-width:3;"/>
   </g>
  </g>
 </g>
 <defs>
  <clipPath id="p9f46884bcd">
   <rect height="248.826862" width="558" x="7.2" y="7.2"/>
  </clipPath>
 </defs>
</svg>
