<?xml version="1.0" encoding="utf-8" standalone="no"?>
<!DOCTYPE svg PUBLIC "-//W3C//DTD SVG 1.1//EN"
  "http://www.w3.org/Graphics/SVG/1.1/DTD/svg11.dtd">
<svg height="404.840203pt" version="1.1" viewBox="0 0 572.4 404.840203" width="572.4pt" xmlns="http://www.w3.org/2000/svg" xmlns:xlink="http://www.w3.org/1999/xlink">
 <metadata>
  <rdf:RDF xmlns:cc="http://creativecommons.org/ns#" xmlns:dc="http://purl.org/dc/elements/1.1/" xmlns:rdf="http://www.w3.org/1999/02/22-rdf-syntax-ns#">
   <cc:Work>
    <dc:type rdf:resource="http://purl.org/dc/dcmitype/StillImage"/>
    <dc:date>2021-05-26T19:20:24.159894</dc:date>
    <dc:format>image/svg+xml</dc:format>
    <dc:creator>
     <cc:Agent>
      <dc:title>Matplotlib v3.4.2, https://matplotlib.org/</dc:title>
     </cc:Agent>
    </dc:creator>
   </cc:Work>
  </rdf:RDF>
 </metadata>
 <defs>
  <style type="text/css">*{stroke-linecap:butt;stroke-linejoin:round;}</style>
 </defs>
 <g id="figure_1">
  <g id="patch_1">
   <path d="M 0 404.840203 
L 572.4 404.840203 
L 572.4 0 
L 0 0 
z
" style="fill:none;"/>
  </g>
  <g id="axes_1">
   <g id="LineCollection_1">
    <path clip-path="url(#pc3176b7c8d)" d="M 50.678983 37.881451 
L 86.479382 28.781748 
L 124.431248 32.673445 
L 162.985524 38.51099 
L 199.775598 41.429762 
L 227.400426 65.352252 
L 255.584634 87.84397 
L 293.794676 81.891963 
L 319.612272 65.180559 
L 350.421269 44.348535 
L 385.016848 33.531907 
L 416.428256 24.947282 
L 449.603866 27.694362 
L 479.035926 44.749151 
L 509.629777 66.325176 
L 531.703821 96.77198 
L 539.836364 132.026174 
L 518.708964 164.018211 
L 511.264891 201.389947 
L 508.080721 238.64722 
L 497.753683 274.2448 
L 487.03938 311.27315 
L 479.595307 342.921802 
L 459.070318 377.431995 
L 426.023796 379.892921 
L 390.352484 367.874446 
L 352.701824 367.759984 
L 341.385111 321.631931 
L 332.607128 283.401733 
L 296.591582 269.380179 
L 260.877241 256.732164 
L 227.916778 241.623224 
L 194.396932 235.21337 
L 160.877087 229.833672 
L 139.448483 194.178861 
L 109.715218 172.431144 
L 70.472473 156.177587 
L 44.310642 135.059409 
L 37.46898 98.488905 
L 32.563636 57.339935 
L 60.790874 35.191601 
" style="fill:none;stroke:#000000;stroke-width:3;"/>
   </g>
  </g>
 </g>
 <defs>
  <clipPath id="pc3176b7c8d">
   <rect height="390.440203" width="558" x="7.2" y="7.2"/>
  </clipPath>
 </defs>
</svg>
