<?xml version="1.0" encoding="utf-8" standalone="no"?>
<!DOCTYPE svg PUBLIC "-//W3C//DTD SVG 1.1//EN"
  "http://www.w3.org/Graphics/SVG/1.1/DTD/svg11.dtd">
<svg height="558pt" version="1.1" viewBox="0 0 425.948832 558" width="425.948832pt" xmlns="http://www.w3.org/2000/svg" xmlns:xlink="http://www.w3.org/1999/xlink">
 <metadata>
  <rdf:RDF xmlns:cc="http://creativecommons.org/ns#" xmlns:dc="http://purl.org/dc/elements/1.1/" xmlns:rdf="http://www.w3.org/1999/02/22-rdf-syntax-ns#">
   <cc:Work>
    <dc:type rdf:resource="http://purl.org/dc/dcmitype/StillImage"/>
    <dc:date>2021-05-26T19:20:25.652707</dc:date>
    <dc:format>image/svg+xml</dc:format>
    <dc:creator>
     <cc:Agent>
      <dc:title>Matplotlib v3.4.2, https://matplotlib.org/</dc:title>
     </cc:Agent>
    </dc:creator>
   </cc:Work>
  </rdf:RDF>
 </metadata>
 <defs>
  <style type="text/css">*{stroke-linecap:butt;stroke-linejoin:round;}</style>
 </defs>
 <g id="figure_1">
  <g id="patch_1">
   <path d="M 0 558 
L 425.948832 558 
L 425.948832 0 
L 0 0 
z
" style="fill:none;"/>
  </g>
  <g id="axes_1">
   <g id="LineCollection_1">
    <path clip-path="url(#p8b7a1849dd)" d="M 25.906765 34.100099 
L 52.692433 60.173092 
L 81.946827 86.739062 
L 117.414179 104.486226 
L 154.486202 114.783962 
L 192.916024 128.313436 
L 231.016682 139.487576 
L 267.06007 151.976321 
L 301.210769 164.30074 
L 335.69063 174.434151 
L 365.109605 189.059128 
L 355.934177 229.483223 
L 344.372314 261.417162 
L 311.373687 249.311844 
L 277.099553 237.316076 
L 240.932729 227.34699 
L 204.971632 217.816106 
L 170.162607 207.080168 
L 146.627427 225.320308 
L 144.858174 260.75986 
L 146.133682 296.692388 
L 147.614917 330.543459 
L 146.668572 365.65436 
L 149.38417 400.053183 
L 153.292985 434.013805 
L 151.029986 468.522178 
L 149.219588 499.963141 
L 165.019429 526.090909 
L 201.926871 524.173777 
L 237.106205 522.09232 
L 274.178228 524.119002 
L 313.307522 525.543157 
L 349.309764 525.488382 
L 386.62866 525.817033 
L 398.313959 501.11342 
L 400.042067 465.454767 
L 399.795194 430.234316 
L 397.655632 396.32847 
L 365.850223 387.509663 
L 333.139614 387.400113 
L 298.906625 386.852361 
L 264.344472 384.277927 
L 232.251045 384.880454 
L 198.264928 387.673989 
L 166.08921 387.016686 
L 147.614917 368.447895 
L 148.108662 333.446545 
L 149.260733 300.526652 
L 147.49148 264.155922 
L 149.589897 225.703734 
L 169.668862 207.408819 
L 202.708634 215.405997 
L 234.760916 223.677052 
L 263.480419 232.441083 
L 295.409264 241.698092 
L 326.227184 253.858185 
L 354.905541 249.750045 
L 358.937792 217.049253 
L 364.986169 185.772616 
L 337.994774 170.490337 
L 303.967512 160.959453 
L 270.351704 151.209468 
L 237.723386 139.871002 
L 204.765905 129.737591 
L 174.112567 119.987606 
L 145.9691 110.128071 
L 115.60378 100.651962 
L 84.580134 82.685698 
L 52.034107 56.996131 
L 27.470291 31.909091 
" style="fill:none;stroke:#000000;stroke-width:3;"/>
   </g>
  </g>
 </g>
 <defs>
  <clipPath id="p8b7a1849dd">
   <rect height="543.6" width="411.548832" x="7.2" y="7.2"/>
  </clipPath>
 </defs>
</svg>
