<?xml version="1.0" encoding="utf-8" standalone="no"?>
<!DOCTYPE svg PUBLIC "-//W3C//DTD SVG 1.1//EN"
  "http://www.w3.org/Graphics/SVG/1.1/DTD/svg11.dtd">
<svg height="396.747498pt" version="1.1" viewBox="0 0 572.4 396.747498" width="572.4pt" xmlns="http://www.w3.org/2000/svg" xmlns:xlink="http://www.w3.org/1999/xlink">
 <metadata>
  <rdf:RDF xmlns:cc="http://creativecommons.org/ns#" xmlns:dc="http://purl.org/dc/elements/1.1/" xmlns:rdf="http://www.w3.org/1999/02/22-rdf-syntax-ns#">
   <cc:Work>
    <dc:type rdf:resource="http://purl.org/dc/dcmitype/StillImage"/>
    <dc:date>2021-05-26T19:20:30.367129</dc:date>
    <dc:format>image/svg+xml</dc:format>
    <dc:creator>
     <cc:Agent>
      <dc:title>Matplotlib v3.4.2, https://matplotlib.org/</dc:title>
     </cc:Agent>
    </dc:creator>
   </cc:Work>
  </rdf:RDF>
 </metadata>
 <defs>
  <style type="text/css">*{stroke-linecap:butt;stroke-linejoin:round;}</style>
 </defs>
 <g id="figure_1">
  <g id="patch_1">
   <path d="M 0 396.747498 
L 572.4 396.747498 
L 572.4 0 
L 0 0 
z
" style="fill:none;"/>
  </g>
  <g id="axes_1">
   <g id="LineCollection_1">
    <path clip-path="url(#p4e5168ddcf)" d="M 32.563636 364.522797 
L 46.194685 372.168067 
L 61.887218 365.878342 
L 82.29172 359.669949 
L 100.529557 364.549908 
L 119.335355 360.61883 
L 136.836948 357.5553 
L 154.149221 354.573103 
L 173.291588 348.554487 
L 192.391884 339.309676 
L 209.199303 339.418119 
L 226.238113 340.33989 
L 248.89342 342.373206 
L 268.666854 343.457641 
L 283.728321 347.171832 
L 301.019558 349.25937 
L 319.257395 339.635007 
L 330.953171 330.119087 
L 342.144094 316.72631 
L 360.045362 308.267715 
L 378.114915 297.99269 
L 393.407773 290.238977 
L 403.652095 276.439538 
L 399.381875 261.718328 
L 386.613285 252.175297 
L 388.48545 236.125654 
L 393.555022 217.012481 
L 410.425548 211.75297 
L 420.627799 199.715738 
L 434.910949 194.429116 
L 450.456234 192.504243 
L 466.842942 200.69173 
L 482.998258 206.303682 
L 497.470729 198.522859 
L 499.300824 181.551446 
L 494.71507 166.586238 
L 497.639014 148.693055 
L 502.708586 133.700737 
L 513.100156 117.51554 
L 523.512763 101.221899 
L 529.528935 82.190059 
L 534.15676 64.242654 
L 536.891384 46.403693 
L 539.626008 28.673175 
L 539.836364 24.579432 
" style="fill:none;stroke:#000000;stroke-width:3;"/>
   </g>
  </g>
 </g>
 <defs>
  <clipPath id="p4e5168ddcf">
   <rect height="382.347498" width="558" x="7.2" y="7.2"/>
  </clipPath>
 </defs>
</svg>
