<?xml version="1.0" encoding="utf-8" standalone="no"?>
<!DOCTYPE svg PUBLIC "-//W3C//DTD SVG 1.1//EN"
  "http://www.w3.org/Graphics/SVG/1.1/DTD/svg11.dtd">
<svg height="245.010257pt" version="1.1" viewBox="0 0 572.4 245.010257" width="572.4pt" xmlns="http://www.w3.org/2000/svg" xmlns:xlink="http://www.w3.org/1999/xlink">
 <metadata>
  <rdf:RDF xmlns:cc="http://creativecommons.org/ns#" xmlns:dc="http://purl.org/dc/elements/1.1/" xmlns:rdf="http://www.w3.org/1999/02/22-rdf-syntax-ns#">
   <cc:Work>
    <dc:type rdf:resource="http://purl.org/dc/dcmitype/StillImage"/>
    <dc:date>2021-05-26T19:20:26.113098</dc:date>
    <dc:format>image/svg+xml</dc:format>
    <dc:creator>
     <cc:Agent>
      <dc:title>Matplotlib v3.4.2, https://matplotlib.org/</dc:title>
     </cc:Agent>
    </dc:creator>
   </cc:Work>
  </rdf:RDF>
 </metadata>
 <defs>
  <style type="text/css">*{stroke-linecap:butt;stroke-linejoin:round;}</style>
 </defs>
 <g id="figure_1">
  <g id="patch_1">
   <path d="M 0 245.010257 
L 572.4 245.010257 
L 572.4 -0 
L 0 -0 
z
" style="fill:none;"/>
  </g>
  <g id="axes_1">
   <g id="LineCollection_1">
    <path clip-path="url(#p259cb0769d)" d="M 32.563636 181.133142 
L 51.892896 172.170469 
L 72.007486 159.332955 
L 95.238063 162.331744 
L 114.516656 143.193405 
L 133.871249 124.459396 
L 156.924494 113.272901 
L 151.275183 90.79883 
L 161.763142 69.436668 
L 187.755043 68.526923 
L 204.221647 53.566672 
L 223.930905 39.212917 
L 247.414815 31.631708 
L 268.213402 21.927761 
L 294.711967 22.770118 
L 320.729201 24.825468 
L 346.23977 28.599225 
L 365.138365 45.547438 
L 388.19161 52.454761 
L 409.294196 47.838648 
L 425.026136 34.765274 
L 445.87539 25.735213 
L 468.700636 17.682284 
L 490.360553 20.074577 
L 512.172469 32.844702 
L 530.311067 47.636482 
L 539.836364 70.245331 
L 530.2604 93.426982 
L 526.81508 114.721754 
L 524.433756 138.375125 
L 520.963102 162.196967 
L 509.791145 179.85276 
L 508.549817 204.954984 
L 497.428526 225.4074 
L 473.437951 227.327973 
L 451.094036 219.982624 
L 428.800788 216.411032 
L 424.950136 193.397853 
L 415.500839 172.237857 
L 397.311575 159.434038 
L 373.245001 153.773402 
L 350.977086 143.530347 
L 328.709171 145.787863 
L 311.254571 136.151304 
L 300.386612 112.262073 
L 280.500022 99.89628 
L 260.309432 92.112906 
L 247.338815 73.884311 
L 246.12282 51.612405 
L 252.430796 31.058906 
L 231.454876 38.235783 
L 208.933629 48.445144 
L 198.369669 67.54979 
L 177.267083 67.044376 
L 155.4805 79.073227 
L 157.304493 104.916725 
L 149.628522 121.08997 
L 128.627269 130.456974 
L 111.856667 152.358243 
L 95.010064 160.141618 
L 69.575495 160.00684 
L 54.451553 170.418367 
L 43.203596 186.254669 
L 33.906298 181.470084 
" style="fill:none;stroke:#000000;stroke-width:3;"/>
   </g>
  </g>
 </g>
 <defs>
  <clipPath id="p259cb0769d">
   <rect height="230.610257" width="558" x="7.2" y="7.2"/>
  </clipPath>
 </defs>
</svg>
