<?xml version="1.0" encoding="utf-8" standalone="no"?>
<!DOCTYPE svg PUBLIC "-//W3C//DTD SVG 1.1//EN"
  "http://www.w3.org/Graphics/SVG/1.1/DTD/svg11.dtd">
<svg height="558pt" version="1.1" viewBox="0 0 181.427311 558" width="181.427311pt" xmlns="http://www.w3.org/2000/svg" xmlns:xlink="http://www.w3.org/1999/xlink">
 <metadata>
  <rdf:RDF xmlns:cc="http://creativecommons.org/ns#" xmlns:dc="http://purl.org/dc/elements/1.1/" xmlns:rdf="http://www.w3.org/1999/02/22-rdf-syntax-ns#">
   <cc:Work>
    <dc:type rdf:resource="http://purl.org/dc/dcmitype/StillImage"/>
    <dc:date>2021-05-26T19:20:31.767519</dc:date>
    <dc:format>image/svg+xml</dc:format>
    <dc:creator>
     <cc:Agent>
      <dc:title>Matplotlib v3.4.2, https://matplotlib.org/</dc:title>
     </cc:Agent>
    </dc:creator>
   </cc:Work>
  </rdf:RDF>
 </metadata>
 <defs>
  <style type="text/css">*{stroke-linecap:butt;stroke-linejoin:round;}</style>
 </defs>
 <g id="figure_1">
  <g id="patch_1">
   <path d="M 0 558 
L 181.427311 558 
L 181.427311 0 
L 0 0 
z
" style="fill:none;"/>
  </g>
  <g id="axes_1">
   <g id="LineCollection_1">
    <path clip-path="url(#paac75e4e31)" d="M 162.925467 31.909091 
L 164.576469 33.706421 
L 162.717285 37.251473 
L 160.730878 41.42998 
L 156.639516 40.746918 
L 152.871994 41.006405 
L 152.753445 44.746073 
L 155.798112 46.604458 
L 156.804327 50.767701 
L 154.219396 55.560581 
L 149.804195 59.868831 
L 145.267555 62.742269 
L 142.326979 66.443777 
L 140.597909 70.248316 
L 137.573481 73.327818 
L 135.722972 77.678044 
L 133.537057 81.635223 
L 129.63942 83.592824 
L 126.551382 87.714091 
L 126.614993 93.453336 
L 126.990878 97.837905 
L 124.77894 101.340982 
L 121.28032 104.569307 
L 120.436025 110.224601 
L 113.129402 118.795308 
L 108.425059 122.515896 
L 106.933086 128.262773 
L 106.785623 133.494492 
L 102.746307 135.971068 
L 100.849534 139.798503 
L 99.62068 143.759498 
L 97.148515 147.735757 
L 93.25377 151.425817 
L 90.344999 155.505107 
L 91.854322 160.317067 
L 93.167027 164.113975 
L 91.391694 167.048469 
L 88.639061 172.482435 
L 84.663356 179.690836 
L 83.122228 182.995481 
L 81.624472 184.590563 
L 79.776853 187.658617 
L 78.094046 191.360125 
L 76.310039 194.374755 
L 71.958449 202.537152 
L 69.951802 204.971752 
L 66.516793 211.691706 
L 65.29083 215.32071 
L 62.995042 219.056562 
L 60.522876 222.803861 
L 58.238653 227.203695 
L 55.306751 230.359516 
L 53.976697 234.030496 
L 51.091059 240.22766 
L 30.388479 277.456433 
L 28.390507 281.440324 
L 26.753962 285.054064 
L 25.238857 288.751756 
L 23.758449 291.625194 
L 19.797201 301.417018 
L 17.958257 305.236821 
L 16.700489 308.526203 
L 16.168467 312.487198 
L 15.812822 317.26863 
L 14.792151 324.541902 
L 18.192462 325.640906 
L 18.311011 328.293017 
L 24.180597 332.196773 
L 27.13563 334.211614 
L 30.041509 335.951704 
L 33.161353 338.157345 
L 35.509187 336.63095 
L 37.368371 334.146742 
L 40.031371 334.940468 
L 41.899229 331.040528 
L 44.116949 327.056638 
L 45.996373 323.958056 
L 42.928575 323.053667 
L 40.447735 324.328207 
L 39.320081 327.693907 
L 41.187939 328.846336 
L 42.029343 326.201856 
L 41.852966 326.94979 
L 40.684832 329.197406 
L 38.467111 334.581765 
L 39.516697 336.527918 
L 36.659973 340.240874 
L 34.289007 344.404116 
L 31.747447 348.132336 
L 29.850675 350.586016 
L 28.691215 353.230495 
L 26.198809 355.813919 
L 24.469739 358.641565 
L 21.459769 364.182379 
L 20.95377 368.773012 
L 19.039649 371.81817 
L 18.698461 374.245138 
L 18.397753 372.875198 
L 20.060321 375.149527 
L 28.029079 383.292844 
L 32.186943 387.627806 
L 37.706667 393.534954 
L 42.63365 398.442314 
L 44.680777 400.743354 
L 51.828371 408.264666 
L 53.942 410.348195 
L 60.57203 417.449747 
L 63.365144 419.865267 
L 65.230111 423.658359 
L 65.047951 428.474135 
L 64.371358 437.17077 
L 64.168959 441.624028 
L 63.60224 450.229079 
L 61.30356 456.849817 
L 57.640129 464.355865 
L 58.605863 467.225487 
L 61.38452 468.946498 
L 76.72062 476.815064 
L 80.158521 478.391066 
L 83.581964 480.306692 
L 84.374214 482.729844 
L 76.769775 497.791546 
L 73.039841 505.171666 
L 70.388407 509.45702 
L 67.768779 513.421831 
L 60.53155 525.178888 
L 58.446835 526.090909 
L 54.427759 523.690653 
L 52.022096 523.419718 
L 49.775462 523.648677 
L 42.237525 518.935933 
L 39.13503 516.772268 
L 39.996673 513.299719 
L 41.35275 509.044893 
L 44.437897 501.115271 
L 50.663128 489.079647 
L 55.387711 479.818246 
L 56.897033 476.620448 
L 58.663692 473.548578 
L 63.03263 464.970239 
L 65.499013 460.444478 
L 68.237189 454.697601 
L 69.064136 450.645022 
L 69.038113 445.573575 
L 69.532546 441.486652 
L 68.812582 437.13261 
L 69.792774 433.022792 
L 69.917105 428.371103 
L 70.408647 424.818419 
L 70.524304 421.250471 
L 74.283152 421.639702 
L 72.487579 422.120516 
L 70.816337 418.941798 
L 69.321472 415.068571 
L 68.957153 412.000517 
L 66.959181 408.825616 
L 65.386247 405.646898 
L 64.018605 402.124742 
L 62.266403 398.633113 
L 59.233302 391.264442 
L 57.264244 387.116463 
L 54.818101 381.468802 
L 52.72182 375.672317 
L 48.2459 364.602138 
L 47.716769 360.580087 
L 50.550363 361.534084 
L 52.739169 358.393526 
L 53.86104 355.264416 
L 53.444676 352.387162 
L 50.694934 350.982879 
L 52.78254 344.045413 
L 58.247327 330.853545 
L 58.709955 327.724435 
L 55.986235 326.110273 
L 55.06098 323.618433 
L 55.783836 320.012325 
L 52.241844 317.253366 
L 45.05377 312.601677 
L 38.123032 308.09118 
L 39.901257 305.301693 
L 38.941305 302.928149 
L 40.467975 300.470653 
L 37.06188 297.749854 
L 33.996973 295.933444 
L 32.577285 293.704908 
L 34.127087 290.587246 
L 36.075906 287.458136 
L 42.879421 274.808138 
L 45.085576 270.179345 
L 47.55485 265.798592 
L 49.578845 261.810885 
L 51.819697 257.689618 
L 56.46332 250.401082 
L 58.785132 246.062305 
L 60.537333 242.551596 
L 62.104484 239.006544 
L 64.593998 235.034101 
L 68.708491 227.909652 
L 70.851034 223.624299 
L 81.861568 203.846036 
L 84.22386 199.427122 
L 86.169787 195.41652 
L 88.485815 191.955419 
L 93.901448 182.419267 
L 95.844484 178.816974 
L 97.862696 175.928272 
L 99.747903 171.600942 
L 101.080848 168.986991 
L 98.553746 164.957308 
L 101.202288 161.221456 
L 103.263872 156.825439 
L 106.383716 153.551322 
L 110.003776 154.425183 
L 113.970806 153.959632 
L 116.240572 150.097853 
L 119.747867 147.132831 
L 121.994501 142.900901 
L 121.332366 137.463119 
L 124.582324 133.46778 
L 126.638125 130.579077 
L 127.016901 127.743799 
L 127.676145 124.706273 
L 128.931022 121.909154 
L 131.573781 118.543453 
L 133.918724 114.620618 
L 135.630446 111.224389 
L 139.348814 108.988221 
L 143.897021 109.110332 
L 147.04867 106.042278 
L 153.473409 93.964678 
L 155.827027 89.7213 
L 156.431334 84.943684 
L 155.740284 80.085932 
L 156.396637 75.17094 
L 159.530938 71.038226 
L 162.052258 66.932223 
L 162.208394 62.036312 
L 164.09071 58.189796 
L 166.635161 54.74396 
L 161.939492 55.468997 
L 161.277357 51.862889 
L 163.680128 47.600431 
L 162.572713 43.433373 
L 161.057608 40.743102 
L 158.414849 38.907612 
L 158.414849 38.907612 
" style="fill:none;stroke:#000000;stroke-width:3;"/>
   </g>
  </g>
 </g>
 <defs>
  <clipPath id="paac75e4e31">
   <rect height="543.6" width="167.027311" x="7.2" y="7.2"/>
  </clipPath>
 </defs>
</svg>
