<?xml version="1.0" encoding="utf-8" standalone="no"?>
<!DOCTYPE svg PUBLIC "-//W3C//DTD SVG 1.1//EN"
  "http://www.w3.org/Graphics/SVG/1.1/DTD/svg11.dtd">
<svg height="558pt" version="1.1" viewBox="0 0 249.321405 558" width="249.321405pt" xmlns="http://www.w3.org/2000/svg" xmlns:xlink="http://www.w3.org/1999/xlink">
 <metadata>
  <rdf:RDF xmlns:cc="http://creativecommons.org/ns#" xmlns:dc="http://purl.org/dc/elements/1.1/" xmlns:rdf="http://www.w3.org/1999/02/22-rdf-syntax-ns#">
   <cc:Work>
    <dc:type rdf:resource="http://purl.org/dc/dcmitype/StillImage"/>
    <dc:date>2021-05-26T19:20:32.169479</dc:date>
    <dc:format>image/svg+xml</dc:format>
    <dc:creator>
     <cc:Agent>
      <dc:title>Matplotlib v3.4.2, https://matplotlib.org/</dc:title>
     </cc:Agent>
    </dc:creator>
   </cc:Work>
  </rdf:RDF>
 </metadata>
 <defs>
  <style type="text/css">*{stroke-linecap:butt;stroke-linejoin:round;}</style>
 </defs>
 <g id="figure_1">
  <g id="patch_1">
   <path d="M -0 558 
L 249.321405 558 
L 249.321405 0 
L -0 0 
z
" style="fill:none;"/>
  </g>
  <g id="axes_1">
   <g id="LineCollection_1">
    <path clip-path="url(#p30f2716ad1)" d="M 25.496952 526.090909 
L 17.878246 523.965672 
L 18.086914 520.480774 
L 21.764111 512.886269 
L 26.220335 505.591869 
L 29.614671 499.730626 
L 33.686019 492.877197 
L 36.509994 488.032637 
L 39.71421 481.822292 
L 42.719032 475.226096 
L 47.782713 467.582594 
L 52.187929 459.988089 
L 55.930045 452.944797 
L 59.055431 447.230545 
L 61.656827 444.00288 
L 64.638463 438.300876 
L 67.972517 429.855051 
L 72.159792 423.601833 
L 72.25717 418.010072 
L 69.525936 413.66773 
L 73.629743 409.251893 
L 76.694846 401.418528 
L 81.605504 395.845141 
L 88.18087 396.959818 
L 95.576997 394.883578 
L 99.51387 388.550741 
L 105.175733 384.092031 
L 107.888419 376.748634 
L 106.993464 368.057825 
L 113.044841 362.423192 
L 114.639993 356.623195 
L 116.313976 351.441782 
L 118.131707 345.623411 
L 122.091765 339.976529 
L 126.316137 333.496701 
L 129.905229 326.820886 
L 136.990673 323.384985 
L 145.054538 322.576537 
L 149.533948 315.23314 
L 153.461547 307.969363 
L 157.551443 300.821954 
L 161.775814 293.307068 
L 162.717139 283.679195 
L 160.565538 275.049632 
L 164.748176 266.475191 
L 170.80419 259.480896 
L 171.694507 251.05957 
L 173.90639 243.354821 
L 179.248295 237.542575 
L 172.232408 237.658942 
L 169.487262 233.328849 
L 173.878568 226.542791 
L 173.252563 219.156522 
L 170.224556 215.169407 
L 166.709657 212.088732 
L 162.406455 209.344911 
L 158.794178 207.544278 
L 159.656673 203.116192 
L 162.865525 197.383565 
L 166.899777 190.297401 
L 170.688263 183.143867 
L 174.657595 176.370058 
L 177.370282 170.913039 
L 175.969886 166.533949 
L 172.784219 163.263412 
L 176.034805 156.881578 
L 170.716086 153.782529 
L 172.26023 149.348318 
L 175.459809 143.725934 
L 178.937611 137.148113 
L 180.667239 131.415486 
L 180.699698 125.799227 
L 181.015019 121.316019 
L 181.715216 114.866814 
L 182.628719 108.497228 
L 183.384562 104.822468 
L 180.797077 102.48287 
L 183.254724 97.613812 
L 185.712371 93.381713 
L 188.53171 88.66577 
L 191.638547 83.563977 
L 194.731473 77.543494 
L 196.878437 73.403264 
L 199.298987 68.711819 
L 202.883443 62.378982 
L 206.597736 55.758288 
L 210.293481 49.615313 
L 213.599712 43.12936 
L 217.374288 36.649532 
L 218.538192 31.909091 
L 217.355739 34.732532 
L 214.170072 40.048686 
L 213.363222 41.543089 
L 210.975131 45.640447 
L 208.049139 50.993348 
L 207.47878 57.209818 
L 214.670876 61.129563 
L 219.233753 63.93463 
L 223.332923 66.653953 
L 227.214151 68.485209 
L 231.443159 70.85543 
L 229.119987 75.271267 
L 226.184721 81.818466 
L 223.077884 87.177492 
L 220.082337 92.095546 
L 216.256754 98.459007 
L 213.029353 104.436618 
L 210.724729 108.962698 
L 207.821923 114.150235 
L 204.492506 120.336082 
L 201.339298 125.468498 
L 197.740932 131.654345 
L 194.652643 138.1158 
L 192.065158 143.137973 
L 188.559532 148.85835 
L 185.438784 154.670597 
L 182.795654 159.478408 
L 180.152524 164.304594 
L 176.275933 170.58231 
L 173.642077 176.26594 
L 171.017495 181.343235 
L 167.465499 187.008491 
L 164.493137 193.286207 
L 166.306232 197.08346 
L 171.049955 200.274377 
L 171.838257 200.660227 
" style="fill:none;stroke:#000000;stroke-width:3;"/>
   </g>
  </g>
 </g>
 <defs>
  <clipPath id="p30f2716ad1">
   <rect height="543.6" width="234.921405" x="7.2" y="7.2"/>
  </clipPath>
 </defs>
</svg>
