<?xml version="1.0" encoding="utf-8" standalone="no"?>
<!DOCTYPE svg PUBLIC "-//W3C//DTD SVG 1.1//EN"
  "http://www.w3.org/Graphics/SVG/1.1/DTD/svg11.dtd">
<svg height="558pt" version="1.1" viewBox="0 0 290.466904 558" width="290.466904pt" xmlns="http://www.w3.org/2000/svg" xmlns:xlink="http://www.w3.org/1999/xlink">
 <metadata>
  <rdf:RDF xmlns:cc="http://creativecommons.org/ns#" xmlns:dc="http://purl.org/dc/elements/1.1/" xmlns:rdf="http://www.w3.org/1999/02/22-rdf-syntax-ns#">
   <cc:Work>
    <dc:type rdf:resource="http://purl.org/dc/dcmitype/StillImage"/>
    <dc:date>2021-05-26T19:20:32.559587</dc:date>
    <dc:format>image/svg+xml</dc:format>
    <dc:creator>
     <cc:Agent>
      <dc:title>Matplotlib v3.4.2, https://matplotlib.org/</dc:title>
     </cc:Agent>
    </dc:creator>
   </cc:Work>
  </rdf:RDF>
 </metadata>
 <defs>
  <style type="text/css">*{stroke-linecap:butt;stroke-linejoin:round;}</style>
 </defs>
 <g id="figure_1">
  <g id="patch_1">
   <path d="M -0 558 
L 290.466904 558 
L 290.466904 0 
L -0 0 
z
" style="fill:none;"/>
  </g>
  <g id="axes_1">
   <g id="LineCollection_1">
    <path clip-path="url(#p2a25afcba5)" d="M 265.68732 31.909091 
L 268.143716 35.005768 
L 270.718409 38.534325 
L 265.812575 47.420041 
L 260.336134 54.559857 
L 251.108992 52.979357 
L 243.600631 54.127976 
L 242.654258 61.763995 
L 249.668556 65.026073 
L 252.013614 72.864248 
L 251.603055 84.800696 
L 239.376744 92.30807 
L 231.360403 102.73753 
L 222.23764 107.754698 
L 216.80991 116.952838 
L 212.74607 126.215301 
L 204.541847 134.035099 
L 202.54472 145.172109 
L 194.166531 152.440569 
L 186.470287 157.411792 
L 179.449031 167.253159 
L 179.75521 178.978262 
L 181.272192 189.150431 
L 175.49653 198.550729 
L 166.76345 206.306204 
L 165.23951 220.686913 
L 155.532223 231.382853 
L 146.444254 242.777153 
L 135.44962 252.333662 
L 133.591666 266.383569 
L 131.775464 278.467041 
L 122.610949 283.631232 
L 117.955626 292.728294 
L 113.898746 303.488556 
L 105.130873 313.614781 
L 96.049862 324.209642 
L 94.205826 336.41257 
L 101.421924 345.987457 
L 98.624555 352.19 
L 94.351957 361.397329 
L 92.173906 365.743703 
L 85.716298 376.366131 
L 79.272608 387.319362 
L 73.260353 398.81474 
L 66.77491 410.668488 
L 60.33122 421.116326 
L 54.590351 432.216579 
L 49.037365 443.307644 
L 45.251871 449.896122 
L 41.744722 455.26247 
L 35.725508 464.910869 
L 29.866342 476.571649 
L 24.104597 487.772981 
L 19.748496 498.11974 
L 28.599872 503.532033 
L 35.836846 507.860029 
L 42.684137 512.261537 
L 53.059453 518.114899 
L 58.668108 523.049366 
L 52.307921 526.090909 
L 45.495423 523.830427 
L 47.054156 523.665026 
" style="fill:none;stroke:#000000;stroke-width:3;"/>
   </g>
  </g>
 </g>
 <defs>
  <clipPath id="p2a25afcba5">
   <rect height="543.6" width="276.066904" x="7.2" y="7.2"/>
  </clipPath>
 </defs>
</svg>
