<?xml version="1.0" encoding="utf-8" standalone="no"?>
<!DOCTYPE svg PUBLIC "-//W3C//DTD SVG 1.1//EN"
  "http://www.w3.org/Graphics/SVG/1.1/DTD/svg11.dtd">
<svg height="558pt" version="1.1" viewBox="0 0 277.074309 558" width="277.074309pt" xmlns="http://www.w3.org/2000/svg" xmlns:xlink="http://www.w3.org/1999/xlink">
 <metadata>
  <rdf:RDF xmlns:cc="http://creativecommons.org/ns#" xmlns:dc="http://purl.org/dc/elements/1.1/" xmlns:rdf="http://www.w3.org/1999/02/22-rdf-syntax-ns#">
   <cc:Work>
    <dc:type rdf:resource="http://purl.org/dc/dcmitype/StillImage"/>
    <dc:date>2021-05-26T19:20:32.657143</dc:date>
    <dc:format>image/svg+xml</dc:format>
    <dc:creator>
     <cc:Agent>
      <dc:title>Matplotlib v3.4.2, https://matplotlib.org/</dc:title>
     </cc:Agent>
    </dc:creator>
   </cc:Work>
  </rdf:RDF>
 </metadata>
 <defs>
  <style type="text/css">*{stroke-linecap:butt;stroke-linejoin:round;}</style>
 </defs>
 <g id="figure_1">
  <g id="patch_1">
   <path d="M 0 558 
L 277.074309 558 
L 277.074309 0 
L 0 0 
z
" style="fill:none;"/>
  </g>
  <g id="axes_1">
   <g id="LineCollection_1">
    <path clip-path="url(#p2960fc2563)" d="M 21.00307 526.090909 
L 19.139741 516.775289 
L 21.058076 509.130307 
L 26.751197 502.084575 
L 31.282317 492.178785 
L 34.500169 481.700983 
L 39.512591 474.991194 
L 42.696064 465.448586 
L 47.419704 458.938548 
L 52.672778 451.111974 
L 57.932727 441.941628 
L 64.244667 428.821676 
L 72.234289 416.80035 
L 76.428497 405.341956 
L 82.176625 396.498473 
L 86.006418 390.224503 
L 91.211361 382.425169 
L 94.594231 373.236663 
L 100.259849 362.98585 
L 95.763108 352.535286 
L 102.975771 341.93945 
L 108.861414 331.597841 
L 117.806766 326.649485 
L 128.38167 329.073725 
L 136.653199 319.658231 
L 145.852953 310.460645 
L 151.511696 301.698878 
L 149.675871 287.670971 
L 158.910004 276.839067 
L 162.224116 269.039732 
L 164.073693 260.768261 
L 167.759095 252.387835 
L 173.245944 243.626068 
L 179.736653 234.110698 
L 184.955348 224.785999 
L 194.588275 219.801326 
L 205.795749 219.628814 
L 212.809015 209.686705 
L 218.158349 199.000073 
L 224.07837 188.658465 
L 230.080901 178.108026 
L 232.219259 166.104859 
L 231.428548 152.004316 
L 234.041333 138.829887 
L 243.873657 126.944754 
L 246.42456 113.815723 
L 248.645428 102.802227 
L 257.934567 94.358245 
L 246.383306 92.84196 
L 246.335176 82.572987 
L 250.749408 70.206638 
L 244.850013 62.834043 
L 242.498507 56.977732 
L 234.213227 51.430126 
L 226.691156 47.979897 
L 229.599598 40.044369 
L 233.401888 34.941661 
L 236.791633 31.909091 
L 243.619254 35.895014 
L 247.146514 38.155822 
" style="fill:none;stroke:#000000;stroke-width:3;"/>
   </g>
  </g>
 </g>
 <defs>
  <clipPath id="p2960fc2563">
   <rect height="543.6" width="262.674309" x="7.2" y="7.2"/>
  </clipPath>
 </defs>
</svg>
