<?xml version="1.0" encoding="utf-8" standalone="no"?>
<!DOCTYPE svg PUBLIC "-//W3C//DTD SVG 1.1//EN"
  "http://www.w3.org/Graphics/SVG/1.1/DTD/svg11.dtd">
<svg height="558pt" version="1.1" viewBox="0 0 287.734376 558" width="287.734376pt" xmlns="http://www.w3.org/2000/svg" xmlns:xlink="http://www.w3.org/1999/xlink">
 <metadata>
  <rdf:RDF xmlns:cc="http://creativecommons.org/ns#" xmlns:dc="http://purl.org/dc/elements/1.1/" xmlns:rdf="http://www.w3.org/1999/02/22-rdf-syntax-ns#">
   <cc:Work>
    <dc:type rdf:resource="http://purl.org/dc/dcmitype/StillImage"/>
    <dc:date>2021-05-26T19:20:32.853028</dc:date>
    <dc:format>image/svg+xml</dc:format>
    <dc:creator>
     <cc:Agent>
      <dc:title>Matplotlib v3.4.2, https://matplotlib.org/</dc:title>
     </cc:Agent>
    </dc:creator>
   </cc:Work>
  </rdf:RDF>
 </metadata>
 <defs>
  <style type="text/css">*{stroke-linecap:butt;stroke-linejoin:round;}</style>
 </defs>
 <g id="figure_1">
  <g id="patch_1">
   <path d="M 0 558 
L 287.734376 558 
L 287.734376 0 
L 0 0 
z
" style="fill:none;"/>
  </g>
  <g id="axes_1">
   <g id="LineCollection_1">
    <path clip-path="url(#p78f82c8e2e)" d="M 247.793498 33.077046 
L 250.84765 36.893669 
L 250.333072 40.216721 
L 247.974896 45.059581 
L 252.061907 48.602541 
L 257.396492 51.832743 
L 267.962006 57.501478 
L 268.110087 62.197733 
L 262.386791 72.430778 
L 256.389547 83.059658 
L 251.058664 93.01904 
L 248.282162 97.808145 
L 241.041046 111.261619 
L 238.23863 115.943212 
L 233.100251 125.145135 
L 227.639798 135.280443 
L 225.699948 139.131274 
L 223.189991 143.529431 
L 220.072905 148.748578 
L 217.126111 154.822921 
L 214.208933 159.499628 
L 211.380604 164.845833 
L 207.941444 171.042347 
L 201.074229 182.976013 
L 197.968249 188.434615 
L 192.911314 198.296261 
L 190.823385 202.127544 
L 187.769233 207.42488 
L 182.69749 217.027523 
L 180.368931 220.580257 
L 177.603535 226.043745 
L 172.650256 234.849833 
L 168.918638 235.822314 
L 163.661794 233.417989 
L 160.466966 231.595197 
L 153.159214 226.93315 
L 146.632584 225.599043 
L 147.53217 227.705271 
L 144.944471 232.660528 
L 139.70984 241.735392 
L 137.969899 245.395636 
L 133.483072 252.760106 
L 131.491395 256.874826 
L 129.022159 259.557702 
L 125.727377 267.391309 
L 122.980491 271.232366 
L 121.247954 275.254236 
L 118.834249 278.860725 
L 116.93142 282.887482 
L 114.458482 287.168355 
L 112.300215 291.239094 
L 110.689844 293.335549 
L 109.838383 296.213898 
L 105.033184 304.971118 
L 102.167835 309.662485 
L 96.640745 319.079428 
L 94.41214 323.868533 
L 91.557896 328.530579 
L 89.573623 332.410731 
L 85.360744 339.457556 
L 83.372769 343.386576 
L 80.859109 348.102378 
L 78.223284 352.217099 
L 77.001623 355.642774 
L 75.083986 359.615776 
L 73.595781 363.549683 
L 75.557842 363.652307 
L 78.893346 362.738468 
L 82.073366 362.371955 
L 85.442188 361.570513 
L 88.437108 362.489239 
L 92.013242 364.150765 
L 95.607887 366.081067 
L 98.488044 368.724848 
L 96.229823 370.660037 
L 91.998434 367.649743 
L 85.20526 364.893565 
L 81.255224 365.729215 
L 76.716569 366.486675 
L 72.511094 367.361419 
L 70.371337 370.401035 
L 68.664714 373.924447 
L 65.08858 375.698371 
L 61.205179 377.374557 
L 57.036725 376.900534 
L 53.886321 376.71972 
L 53.231066 380.179604 
L 56.903453 380.761138 
L 60.190831 380.780685 
L 59.591106 380.663401 
L 63.470805 380.829554 
L 65.795662 380.692722 
L 64.562895 384.958935 
L 62.782232 388.2771 
L 62.249144 392.079062 
L 62.700788 395.944554 
L 67.361609 396.184009 
L 70.900723 396.526088 
L 73.058991 394.71307 
L 76.994219 396.95613 
L 87.111791 403.665763 
L 90.961874 405.987012 
L 93.205287 408.469528 
L 91.494962 412.838364 
L 88.766586 416.806479 
L 86.974817 419.855868 
L 84.050235 424.239364 
L 81.473642 427.699248 
L 79.037724 431.828629 
L 72.403736 441.57299 
L 69.667957 446.533134 
L 66.365771 451.512825 
L 63.641097 454.850538 
L 60.583243 461.418452 
L 53.786367 470.424901 
L 52.31297 472.907416 
L 50.647069 476.479697 
L 48.200045 479.651257 
L 44.912667 484.11783 
L 41.88443 488.652819 
L 40.044534 492.860389 
L 34.706247 503.098321 
L 32.573894 506.734131 
L 29.560464 509.817728 
L 27.283733 512.319791 
L 23.829764 514.621493 
L 19.62429 518.408795 
L 21.423463 520.954839 
L 22.82282 523.520431 
L 25.125465 526.076249 
L 25.288353 526.090909 
L 22.9709 523.408033 
L 21.334615 520.285342 
L 22.382282 518.042282 
L 22.297135 514.44068 
L 23.503988 511.166496 
L 26.15092 509.925238 
L 27.472535 506.323636 
L 29.153244 502.291992 
L 31.955659 498.21148 
L 33.925125 494.956844 
L 33.936231 491.193976 
L 36.8386 486.45374 
L 40.921909 480.57487 
L 43.950147 474.617811 
L 48.57765 466.969904 
L 51.098713 461.887589 
L 56.23339 453.60928 
L 59.139462 448.698005 
L 61.308835 444.153242 
L 64.936798 444.734776 
L 67.961334 445.848976 
L 71.133949 448.864157 
L 73.599483 451.918433 
L 75.03586 453.081501 
L 77.886402 451.532373 
L 80.070583 447.495842 
L 82.595349 443.80139 
L 87.84849 434.667884 
L 90.665713 430.514069 
L 93.501447 422.411686 
L 94.456564 418.125926 
L 96.337181 414.211566 
L 98.676846 409.999109 
L 101.371904 406.524565 
L 104.148406 401.886953 
L 106.528793 397.630514 
L 109.346017 393.41317 
L 111.741212 389.083429 
L 114.850894 385.423185 
L 117.179454 381.093443 
L 119.726431 380.238246 
L 120.885158 381.93398 
L 124.387252 379.343954 
L 126.538116 375.341631 
L 128.837059 370.82619 
L 131.546925 366.232559 
L 131.968953 361.849063 
L 128.329885 359.351887 
L 124.60567 356.952448 
L 121.192424 355.491282 
L 119.674603 352.412572 
L 117.22758 349.949604 
L 113.296053 347.818941 
L 110.119735 345.693166 
L 102.138219 340.933382 
L 100.542656 338.142996 
L 102.837897 332.513355 
L 105.603293 328.208048 
L 109.560733 321.151449 
L 111.881889 316.567592 
L 113.99203 313.220106 
L 116.87589 307.605125 
L 119.352529 303.35846 
L 121.888401 297.934066 
L 124.009648 293.775364 
L 126.145703 290.994752 
L 127.241496 289.890326 
L 132.353961 291.86461 
L 136.241063 294.088122 
L 138.643663 294.557259 
L 142.316049 289.440736 
L 143.400736 286.787181 
L 142.297539 284.299779 
L 139.228579 281.646225 
L 134.53444 279.833206 
L 134.38636 276.603004 
L 136.263276 271.716163 
L 138.847273 267.567235 
L 140.994434 263.760386 
L 143.974546 257.935271 
L 146.103198 252.075948 
L 147.132354 251.479754 
L 152.52247 242.536834 
L 154.751075 236.35498 
L 157.038912 232.768039 
L 159.67844 233.007494 
L 161.640501 224.870903 
L 167.012106 217.042184 
L 170.036642 211.207295 
L 167.911693 208.881159 
L 163.3027 206.794478 
L 156.080094 202.56736 
L 151.652499 200.216789 
L 151.308213 195.491214 
L 156.79458 186.035176 
L 159.634016 181.01639 
L 162.240225 175.968283 
L 165.038939 170.856647 
L 170.506797 161.254004 
L 183.852515 136.976177 
L 186.566082 132.304357 
L 191.789608 122.58443 
L 196.913179 113.470471 
L 219.291783 73.002539 
L 222.423676 67.216519 
L 225.525954 61.718822 
L 228.209906 56.651168 
L 231.141892 51.57374 
L 233.818439 46.711333 
L 236.950333 41.834265 
L 239.315913 36.800819 
L 241.026238 33.761204 
L 243.536195 31.909091 
L 246.934634 33.995772 
L 248.800443 35.393409 
L 248.800443 35.393409 
" style="fill:none;stroke:#000000;stroke-width:3;"/>
   </g>
  </g>
 </g>
 <defs>
  <clipPath id="p78f82c8e2e">
   <rect height="543.6" width="273.334376" x="7.2" y="7.2"/>
  </clipPath>
 </defs>
</svg>
