<?xml version="1.0" encoding="utf-8" standalone="no"?>
<!DOCTYPE svg PUBLIC "-//W3C//DTD SVG 1.1//EN"
  "http://www.w3.org/Graphics/SVG/1.1/DTD/svg11.dtd">
<svg height="558pt" version="1.1" viewBox="0 0 357.359003 558" width="357.359003pt" xmlns="http://www.w3.org/2000/svg" xmlns:xlink="http://www.w3.org/1999/xlink">
 <metadata>
  <rdf:RDF xmlns:cc="http://creativecommons.org/ns#" xmlns:dc="http://purl.org/dc/elements/1.1/" xmlns:rdf="http://www.w3.org/1999/02/22-rdf-syntax-ns#">
   <cc:Work>
    <dc:type rdf:resource="http://purl.org/dc/dcmitype/StillImage"/>
    <dc:date>2021-05-26T19:20:33.117945</dc:date>
    <dc:format>image/svg+xml</dc:format>
    <dc:creator>
     <cc:Agent>
      <dc:title>Matplotlib v3.4.2, https://matplotlib.org/</dc:title>
     </cc:Agent>
    </dc:creator>
   </cc:Work>
  </rdf:RDF>
 </metadata>
 <defs>
  <style type="text/css">*{stroke-linecap:butt;stroke-linejoin:round;}</style>
 </defs>
 <g id="figure_1">
  <g id="patch_1">
   <path d="M 0 558 
L 357.359003 558 
L 357.359003 0 
L 0 0 
z
" style="fill:none;"/>
  </g>
  <g id="axes_1">
   <g id="LineCollection_1">
    <path clip-path="url(#pd1469bbd8a)" d="M 300.941436 102.949675 
L 303.112371 108.198604 
L 302.095073 112.588869 
L 299.289638 117.976292 
L 300.008039 123.024405 
L 307.228758 126.867618 
L 314.119118 131.160937 
L 322.173603 135.537353 
L 327.9313 140.516218 
L 324.638191 148.500407 
L 316.158958 164.074076 
L 311.843307 171.428117 
L 307.810821 178.899877 
L 303.904186 186.427035 
L 292.441228 207.021118 
L 288.602763 214.375158 
L 284.748566 220.98133 
L 280.925833 227.123547 
L 278.162347 232.587142 
L 262.756048 260.867651 
L 257.87931 269.024957 
L 253.464026 277.708542 
L 248.639725 286.405976 
L 244.444682 294.244746 
L 239.326728 303.066824 
L 231.613091 316.81237 
L 227.716944 325.025075 
L 223.086664 333.348574 
L 218.042124 341.568203 
L 213.579645 349.649338 
L 209.888007 357.21112 
L 204.397743 360.181819 
L 198.446024 361.130505 
L 186.096864 354.254269 
L 179.033458 350.847312 
L 173.93648 347.627323 
L 170.784953 352.239179 
L 166.238574 355.493792 
L 158.44628 353.499476 
L 152.767239 348.756051 
L 145.184697 344.656623 
L 138.483115 340.751088 
L 135.331588 345.189826 
L 131.734338 352.107609 
L 127.654657 359.025393 
L 123.963019 365.631565 
L 119.8309 373.802721 
L 115.887559 379.577928 
L 112.127751 387.354375 
L 103.894977 401.944736 
L 99.673714 409.741958 
L 95.237455 418.2455 
L 90.360716 426.465129 
L 85.945433 434.733231 
L 81.367591 442.481979 
L 78.037775 449.462085 
L 74.713202 455.16112 
L 71.514481 461.241015 
L 67.634066 469.259827 
L 59.364585 484.369541 
L 50.649381 499.534652 
L 45.78313 507.41497 
L 41.535648 515.37146 
L 37.629014 522.046879 
L 35.222107 525.654652 
L 31.121452 523.196381 
L 26.879213 521.056646 
L 22.789046 518.806116 
L 23.187575 514.942128 
L 24.792179 511.770612 
L 29.401484 504.561991 
L 32.925321 497.886572 
L 36.433426 494.631959 
L 41.582843 497.353369 
L 47.067863 500.725702 
L 52.52142 503.904143 
L 59.485193 507.622712 
L 64.188886 509.402362 
L 70.324138 513.432542 
L 75.636112 516.354769 
L 81.441004 519.727102 
L 87.5815 524.318184 
L 94.482347 526.090909 
L 98.00094 520.689637 
L 104.534721 508.85531 
L 107.340157 502.055246 
L 111.849829 494.888173 
L 115.656832 487.547982 
L 117.644234 483.039997 
L 118.630069 478.552786 
L 126.139198 478.234249 
L 132.295425 480.277038 
L 137.261308 484.14795 
L 141.713298 487.797271 
L 147.890501 488.171206 
L 151.430069 482.022065 
L 155.882059 473.615468 
L 160.255393 466.019063 
L 164.927623 456.525288 
L 165.834801 455.992086 
L 168.540605 450.978597 
L 172.038223 444.060813 
L 172.725161 443.839222 
L 177.75397 436.540579 
L 182.263642 420.537578 
L 186.83624 411.320791 
L 191.907 407.761491 
L 193.936352 401.501555 
L 196.479597 397.09744 
L 201.828279 388.406931 
L 208.036944 379.979561 
L 208.980829 374.862201 
L 210.186904 370.077228 
L 214.602187 364.302021 
L 219.562827 357.349614 
L 224.056768 350.521851 
L 227.790357 343.057015 
L 232.997455 333.687885 
L 237.680173 326.2092 
L 240.370245 320.295499 
L 247.732547 308.191108 
L 251.64967 299.784512 
L 256.342875 292.36815 
L 264.947959 276.773706 
L 267.92644 270.520695 
L 271.932707 263.014311 
L 277.00871 255.563324 
L 279.562443 250.279772 
L 282.535681 243.597428 
L 286.463291 236.873536 
L 291.623195 228.854724 
L 295.771045 220.060344 
L 299.38927 213.516495 
L 302.608966 207.928255 
L 305.713299 202.900917 
L 309.483595 195.969283 
L 313.930341 189.099973 
L 318.245993 181.399697 
L 322.829078 172.141362 
L 327.270581 164.157173 
L 331.465625 155.986017 
L 334.569957 148.327289 
L 328.214466 144.227862 
L 327.99947 142.7252 
L 328.198734 137.891754 
L 319.965961 135.225741 
L 313.138527 130.03221 
L 312.792435 125.808137 
L 306.772547 120.960842 
L 299.918894 117.713153 
L 293.846568 113.918413 
L 286.604873 110.497607 
L 287.354738 105.179431 
L 291.460637 98.455539 
L 294.16644 95.8103 
L 293.154386 91.6624 
L 288.880685 88.92714 
L 283.254082 85.748699 
L 282.761164 79.371043 
L 290.139198 65.833238 
L 293.264506 60.002633 
L 296.987607 53.597278 
L 298.361484 47.905167 
L 288.781052 42.185358 
L 283.269813 39.380851 
L 278.450757 36.576344 
L 273.762795 33.688741 
L 269.247879 34.270416 
L 266.416224 35.468391 
L 262.3313 33.134764 
L 259.735617 31.909091 
L 259.866712 36.617893 
L 257.454562 42.012241 
L 261.046568 45.218381 
L 258.366984 50.495008 
L 254.974242 56.263291 
L 251.775521 62.495528 
L 251.366504 66.276419 
L 254.748758 64.129759 
L 258.629174 66.047904 
L 262.451908 68.194563 
L 266.195985 69.828794 
L 265.173443 74.232909 
L 261.523754 81.08837 
L 258.419422 86.621212 
L 254.051332 86.247278 
L 248.723626 83.262729 
L 249.10118 77.217458 
L 254.5862 80.859855 
L 259.667447 84.052146 
L 265.058079 87.888434 
L 270.412004 90.852209 
L 268.566184 98.587109 
L 267.811076 103.995306 
L 269.26361 106.772114 
L 273.736576 110.047501 
L 280.427671 113.655274 
L 284.087847 115.040216 
L 285.776352 109.154214 
L 288.345817 104.272294 
L 291.224666 98.123153 
L 296.279694 99.141085 
L 303.143834 102.291828 
L 305.047336 107.409187 
L 299.037935 106.605921 
L 299.037935 106.605921 
" style="fill:none;stroke:#000000;stroke-width:3;"/>
   </g>
  </g>
 </g>
 <defs>
  <clipPath id="pd1469bbd8a">
   <rect height="543.6" width="342.959003" x="7.2" y="7.2"/>
  </clipPath>
 </defs>
</svg>
