<?xml version="1.0" encoding="utf-8" standalone="no"?>
<!DOCTYPE svg PUBLIC "-//W3C//DTD SVG 1.1//EN"
  "http://www.w3.org/Graphics/SVG/1.1/DTD/svg11.dtd">
<svg height="558pt" version="1.1" viewBox="0 0 453.567067 558" width="453.567067pt" xmlns="http://www.w3.org/2000/svg" xmlns:xlink="http://www.w3.org/1999/xlink">
 <metadata>
  <rdf:RDF xmlns:cc="http://creativecommons.org/ns#" xmlns:dc="http://purl.org/dc/elements/1.1/" xmlns:rdf="http://www.w3.org/1999/02/22-rdf-syntax-ns#">
   <cc:Work>
    <dc:type rdf:resource="http://purl.org/dc/dcmitype/StillImage"/>
    <dc:date>2021-05-26T19:20:34.664521</dc:date>
    <dc:format>image/svg+xml</dc:format>
    <dc:creator>
     <cc:Agent>
      <dc:title>Matplotlib v3.4.2, https://matplotlib.org/</dc:title>
     </cc:Agent>
    </dc:creator>
   </cc:Work>
  </rdf:RDF>
 </metadata>
 <defs>
  <style type="text/css">*{stroke-linecap:butt;stroke-linejoin:round;}</style>
 </defs>
 <g id="figure_1">
  <g id="patch_1">
   <path d="M 0 558 
L 453.567067 558 
L 453.567067 0 
L 0 0 
z
" style="fill:none;"/>
  </g>
  <g id="axes_1">
   <g id="LineCollection_1">
    <path clip-path="url(#p7f65b86430)" d="M 391.431982 31.909091 
L 426.404927 54.694306 
L 402.978756 93.360126 
L 381.500805 129.954563 
L 358.169669 163.473309 
L 317.589647 177.282531 
L 275.53658 167.616076 
L 237.047333 162.594541 
L 214.143855 201.574206 
L 229.967212 237.478182 
L 266.793344 252.542787 
L 287.558531 296.920603 
L 294.401063 337.469499 
L 288.271294 375.444858 
L 263.039454 408.712527 
L 225.928217 428.296514 
L 189.38719 453.906343 
L 171.330506 492.886009 
L 134.884515 512.532764 
L 95.872574 526.090909 
L 31.343687 513.160456 
L 27.162139 475.122328 
L 50.778381 433.506357 
L 75.344975 394.526691 
L 94.447046 359.438715 
L 110.507992 322.71874 
L 135.027068 282.671998 
L 167.339029 257.376015 
L 194.566608 228.502188 
L 217.945262 199.440054 
L 245.505464 164.289309 
L 290.362068 174.583456 
L 334.458392 177.972992 
L 367.00794 156.819775 
L 388.675961 116.082572 
L 405.829811 78.860444 
L 407.920585 50.049386 
" style="fill:none;stroke:#000000;stroke-width:3;"/>
   </g>
  </g>
 </g>
 <defs>
  <clipPath id="p7f65b86430">
   <rect height="543.6" width="439.167067" x="7.2" y="7.2"/>
  </clipPath>
 </defs>
</svg>
