<?xml version="1.0" encoding="utf-8" standalone="no"?>
<!DOCTYPE svg PUBLIC "-//W3C//DTD SVG 1.1//EN"
  "http://www.w3.org/Graphics/SVG/1.1/DTD/svg11.dtd">
<svg height="558pt" version="1.1" viewBox="0 0 291.521137 558" width="291.521137pt" xmlns="http://www.w3.org/2000/svg" xmlns:xlink="http://www.w3.org/1999/xlink">
 <metadata>
  <rdf:RDF xmlns:cc="http://creativecommons.org/ns#" xmlns:dc="http://purl.org/dc/elements/1.1/" xmlns:rdf="http://www.w3.org/1999/02/22-rdf-syntax-ns#">
   <cc:Work>
    <dc:type rdf:resource="http://purl.org/dc/dcmitype/StillImage"/>
    <dc:date>2021-05-26T19:20:38.455135</dc:date>
    <dc:format>image/svg+xml</dc:format>
    <dc:creator>
     <cc:Agent>
      <dc:title>Matplotlib v3.4.2, https://matplotlib.org/</dc:title>
     </cc:Agent>
    </dc:creator>
   </cc:Work>
  </rdf:RDF>
 </metadata>
 <defs>
  <style type="text/css">*{stroke-linecap:butt;stroke-linejoin:round;}</style>
 </defs>
 <g id="figure_1">
  <g id="patch_1">
   <path d="M 0 558 
L 291.521137 558 
L 291.521137 0 
L 0 0 
z
" style="fill:none;"/>
  </g>
  <g id="axes_1">
   <g id="LineCollection_1">
    <path clip-path="url(#p801d38266c)" d="M 267.015259 31.909091 
L 271.724722 34.750966 
L 269.670446 41.01601 
L 265.303362 49.44014 
L 258.253143 53.490735 
L 247.939839 51.497731 
L 242.028555 58.408656 
L 248.904091 64.369212 
L 252.474618 72.876384 
L 250.937405 85.960083 
L 238.583799 93.793694 
L 230.087202 102.743756 
L 220.808023 109.101068 
L 216.168434 117.654374 
L 212.073856 127.038099 
L 203.046222 135.176197 
L 202.005109 146.322253 
L 194.074486 152.624204 
L 184.935053 158.889247 
L 178.807162 171.825316 
L 181.72088 184.032462 
L 179.589743 193.508455 
L 172.092335 201.858771 
L 165.691937 212.3774 
L 162.254169 225.414965 
L 152.409016 234.651059 
L 143.304521 245.068193 
L 133.487317 255.337697 
L 133.536229 268.947327 
L 129.651271 280.148745 
L 120.993965 286.312293 
L 116.221617 295.603749 
L 111.44228 308.299919 
L 101.492318 318.172668 
L 93.512783 328.691297 
L 95.40635 340.492461 
L 99.983054 349.30412 
L 94.812427 358.853928 
L 91.821848 365.275828 
L 85.903577 374.69646 
L 79.433306 384.698385 
L 73.249516 396.222743 
L 67.268359 408.088495 
L 60.113329 420.68317 
L 52.573996 434.551153 
L 46.334308 446.582988 
L 41.002972 454.259742 
L 36.377358 463.514291 
L 33.393766 471.947648 
L 27.699089 480.094973 
L 22.423653 490.816593 
L 19.796415 500.873879 
L 31.171794 506.068606 
L 42.148895 512.370557 
L 52.993236 520.176487 
L 58.17085 526.090909 
L 51.008834 524.254762 
L 43.993551 521.237577 
L 45.404992 521.145308 
" style="fill:none;stroke:#000000;stroke-width:3;"/>
   </g>
  </g>
 </g>
 <defs>
  <clipPath id="p801d38266c">
   <rect height="543.6" width="277.121137" x="7.2" y="7.2"/>
  </clipPath>
 </defs>
</svg>
