<?xml version="1.0" encoding="utf-8" standalone="no"?>
<!DOCTYPE svg PUBLIC "-//W3C//DTD SVG 1.1//EN"
  "http://www.w3.org/Graphics/SVG/1.1/DTD/svg11.dtd">
<svg height="558pt" version="1.1" viewBox="0 0 265.653762 558" width="265.653762pt" xmlns="http://www.w3.org/2000/svg" xmlns:xlink="http://www.w3.org/1999/xlink">
 <metadata>
  <rdf:RDF xmlns:cc="http://creativecommons.org/ns#" xmlns:dc="http://purl.org/dc/elements/1.1/" xmlns:rdf="http://www.w3.org/1999/02/22-rdf-syntax-ns#">
   <cc:Work>
    <dc:type rdf:resource="http://purl.org/dc/dcmitype/StillImage"/>
    <dc:date>2021-05-26T19:20:38.746838</dc:date>
    <dc:format>image/svg+xml</dc:format>
    <dc:creator>
     <cc:Agent>
      <dc:title>Matplotlib v3.4.2, https://matplotlib.org/</dc:title>
     </cc:Agent>
    </dc:creator>
   </cc:Work>
  </rdf:RDF>
 </metadata>
 <defs>
  <style type="text/css">*{stroke-linecap:butt;stroke-linejoin:round;}</style>
 </defs>
 <g id="figure_1">
  <g id="patch_1">
   <path d="M 0 558 
L 265.653762 558 
L 265.653762 0 
L 0 0 
z
" style="fill:none;"/>
  </g>
  <g id="axes_1">
   <g id="LineCollection_1">
    <path clip-path="url(#pa660e3100b)" d="M 27.123445 520.330734 
L 18.620626 526.090909 
L 19.095171 517.866993 
L 20.921847 511.729101 
L 25.452784 502.492219 
L 33.084519 488.954519 
L 37.829977 481.503205 
L 44.220092 470.566598 
L 49.329585 460.37684 
L 56.603786 450.581967 
L 59.503065 447.980874 
L 61.862793 437.207373 
L 66.029694 426.45104 
L 73.823945 420.158628 
L 78.95944 408.844305 
L 87.124227 397.590073 
L 92.064703 386.868078 
L 93.449336 376.686904 
L 90.342037 365.518517 
L 96.842663 355.371681 
L 102.979255 344.641101 
L 111.924117 341.670877 
L 121.382528 344.031604 
L 128.260191 335.670337 
L 137.289561 327.806968 
L 142.711083 316.458307 
L 141.989514 301.830381 
L 151.863965 294.241715 
L 153.593132 283.356615 
L 156.043868 275.064023 
L 160.932339 266.187688 
L 168.72009 256.058021 
L 173.829582 245.713742 
L 183.723535 240.751922 
L 195.554676 239.51576 
L 201.496248 229.128559 
L 207.366314 218.423732 
L 212.865844 207.349774 
L 218.391376 196.670701 
L 220.153046 182.678026 
L 217.279769 169.80133 
L 224.618976 157.87751 
L 232.478234 147.919532 
L 232.809766 135.738179 
L 238.517316 126.252346 
L 238.452309 117.839572 
L 227.167222 116.139848 
L 235.637538 105.100228 
L 233.368819 92.81586 
L 232.985283 83.845096 
L 237.457714 76.702822 
L 241.611614 67.998176 
L 246.883622 58.417915 
L 247.033136 52.151256 
L 242.664715 44.33081 
L 234.480427 39.197301 
L 236.48262 31.909091 
L 234.252905 36.742144 
L 229.312429 46.00478 
L 223.767394 53.911071 
L 220.985126 63.002018 
L 230.209515 68.006761 
L 232.43923 69.260092 
" style="fill:none;stroke:#000000;stroke-width:3;"/>
   </g>
  </g>
 </g>
 <defs>
  <clipPath id="pa660e3100b">
   <rect height="543.6" width="251.253762" x="7.2" y="7.2"/>
  </clipPath>
 </defs>
</svg>
