<?xml version="1.0" encoding="utf-8" standalone="no"?>
<!DOCTYPE svg PUBLIC "-//W3C//DTD SVG 1.1//EN"
  "http://www.w3.org/Graphics/SVG/1.1/DTD/svg11.dtd">
<svg height="558pt" version="1.1" viewBox="0 0 272.322477 558" width="272.322477pt" xmlns="http://www.w3.org/2000/svg" xmlns:xlink="http://www.w3.org/1999/xlink">
 <metadata>
  <rdf:RDF xmlns:cc="http://creativecommons.org/ns#" xmlns:dc="http://purl.org/dc/elements/1.1/" xmlns:rdf="http://www.w3.org/1999/02/22-rdf-syntax-ns#">
   <cc:Work>
    <dc:type rdf:resource="http://purl.org/dc/dcmitype/StillImage"/>
    <dc:date>2021-05-26T19:20:39.459879</dc:date>
    <dc:format>image/svg+xml</dc:format>
    <dc:creator>
     <cc:Agent>
      <dc:title>Matplotlib v3.4.2, https://matplotlib.org/</dc:title>
     </cc:Agent>
    </dc:creator>
   </cc:Work>
  </rdf:RDF>
 </metadata>
 <defs>
  <style type="text/css">*{stroke-linecap:butt;stroke-linejoin:round;}</style>
 </defs>
 <g id="figure_1">
  <g id="patch_1">
   <path d="M 0 558 
L 272.322477 558 
L 272.322477 0 
L 0 0 
z
" style="fill:none;"/>
  </g>
  <g id="axes_1">
   <g id="LineCollection_1">
    <path clip-path="url(#p357b036c5b)" d="M 19.023824 526.090909 
L 23.567214 512.279564 
L 23.787378 503.292277 
L 18.923749 489.864214 
L 28.791113 472.735503 
L 38.908663 455.276377 
L 54.420238 452.976689 
L 72.473711 450.558051 
L 82.581254 434.420585 
L 95.52091 421.428669 
L 95.821134 402.6611 
L 104.387527 383.814231 
L 114.024719 370.624066 
L 117.69746 358.596962 
L 121.990663 346.384825 
L 130.136743 330.67029 
L 140.024121 315.378686 
L 149.170947 300.628963 
L 166.27371 296.703633 
L 180.874606 291.033713 
L 191.112246 277.288451 
L 199.978863 259.261011 
L 209.55601 242.581664 
L 217.42188 226.999295 
L 218.612768 208.64144 
L 214.519714 189.133741 
L 225.948243 168.621581 
L 237.316726 151.069939 
L 239.518369 129.817649 
L 253.398728 113.878432 
L 235.085061 111.393712 
L 238.067287 96.921537 
L 244.10179 77.123073 
L 234.014262 64.977019 
L 240.178862 51.086375 
L 245.692977 40.975677 
L 240.589169 32.265939 
L 237.626958 31.909091 
" style="fill:none;stroke:#000000;stroke-width:3;"/>
   </g>
  </g>
 </g>
 <defs>
  <clipPath id="p357b036c5b">
   <rect height="543.6" width="257.922477" x="7.2" y="7.2"/>
  </clipPath>
 </defs>
</svg>
