<?xml version="1.0" encoding="utf-8" standalone="no"?>
<!DOCTYPE svg PUBLIC "-//W3C//DTD SVG 1.1//EN"
  "http://www.w3.org/Graphics/SVG/1.1/DTD/svg11.dtd">
<svg height="558pt" version="1.1" viewBox="0 0 320.715429 558" width="320.715429pt" xmlns="http://www.w3.org/2000/svg" xmlns:xlink="http://www.w3.org/1999/xlink">
 <metadata>
  <rdf:RDF xmlns:cc="http://creativecommons.org/ns#" xmlns:dc="http://purl.org/dc/elements/1.1/" xmlns:rdf="http://www.w3.org/1999/02/22-rdf-syntax-ns#">
   <cc:Work>
    <dc:type rdf:resource="http://purl.org/dc/dcmitype/StillImage"/>
    <dc:date>2021-05-26T19:20:41.719808</dc:date>
    <dc:format>image/svg+xml</dc:format>
    <dc:creator>
     <cc:Agent>
      <dc:title>Matplotlib v3.4.2, https://matplotlib.org/</dc:title>
     </cc:Agent>
    </dc:creator>
   </cc:Work>
  </rdf:RDF>
 </metadata>
 <defs>
  <style type="text/css">*{stroke-linecap:butt;stroke-linejoin:round;}</style>
 </defs>
 <g id="figure_1">
  <g id="patch_1">
   <path d="M -0 558 
L 320.715429 558 
L 320.715429 0 
L -0 0 
z
" style="fill:none;"/>
  </g>
  <g id="axes_1">
   <g id="LineCollection_1">
    <path clip-path="url(#p76b0303542)" d="M 65.880806 526.090909 
L 59.007976 522.49575 
L 56.544396 516.719467 
L 57.545225 507.255605 
L 53.541907 502.91184 
L 43.519614 498.660496 
L 37.941564 495.740007 
L 24.958775 489.94524 
L 21.123429 483.069152 
L 25.882618 475.037808 
L 31.726623 464.695951 
L 40.48913 450.28759 
L 48.341793 435.897713 
L 55.214622 426.064169 
L 62.689349 411.905344 
L 66.174756 405.186371 
L 68.155418 398.014538 
L 74.419351 386.193952 
L 81.964066 372.303146 
L 92.231318 359.327304 
L 96.752548 349.872684 
L 104.318259 342.451315 
L 110.799155 337.858015 
L 120.793453 346.305251 
L 133.678258 351.97063 
L 141.908857 343.033564 
L 149.663536 330.806328 
L 160.777643 328.061439 
L 172.290682 327.904324 
L 179.968374 316.074496 
L 189.647726 308.200267 
L 190.109647 293.265109 
L 197.731349 279.18022 
L 202.83348 268.561101 
L 205.073099 256.22296 
L 209.888279 247.701787 
L 219.070715 236.666776 
L 224.277828 225.234356 
L 235.279954 218.727951 
L 248.227749 217.979345 
L 255.366533 206.417536 
L 261.896421 193.986975 
L 268.839238 181.907612 
L 274.501274 170.225657 
L 275.187157 155.235047 
L 273.542437 140.983801 
L 283.382761 126.695587 
L 288.26093 113.682776 
L 290.626527 100.170895 
L 299.592 90.503707 
L 285.055476 88.461213 
L 291.242422 74.514955 
L 290.171605 60.420825 
L 287.973979 51.899652 
L 293.405054 40.966303 
L 294.888801 39.117892 
L 289.723681 33.101316 
L 289.233765 31.909091 
" style="fill:none;stroke:#000000;stroke-width:3;"/>
   </g>
  </g>
 </g>
 <defs>
  <clipPath id="p76b0303542">
   <rect height="543.6" width="306.315429" x="7.2" y="7.2"/>
  </clipPath>
 </defs>
</svg>
