<?xml version="1.0" encoding="utf-8" standalone="no"?>
<!DOCTYPE svg PUBLIC "-//W3C//DTD SVG 1.1//EN"
  "http://www.w3.org/Graphics/SVG/1.1/DTD/svg11.dtd">
<svg height="558pt" version="1.1" viewBox="0 0 270.221322 558" width="270.221322pt" xmlns="http://www.w3.org/2000/svg" xmlns:xlink="http://www.w3.org/1999/xlink">
 <metadata>
  <rdf:RDF xmlns:cc="http://creativecommons.org/ns#" xmlns:dc="http://purl.org/dc/elements/1.1/" xmlns:rdf="http://www.w3.org/1999/02/22-rdf-syntax-ns#">
   <cc:Work>
    <dc:type rdf:resource="http://purl.org/dc/dcmitype/StillImage"/>
    <dc:date>2021-05-26T19:20:43.722183</dc:date>
    <dc:format>image/svg+xml</dc:format>
    <dc:creator>
     <cc:Agent>
      <dc:title>Matplotlib v3.4.2, https://matplotlib.org/</dc:title>
     </cc:Agent>
    </dc:creator>
   </cc:Work>
  </rdf:RDF>
 </metadata>
 <defs>
  <style type="text/css">*{stroke-linecap:butt;stroke-linejoin:round;}</style>
 </defs>
 <g id="figure_1">
  <g id="patch_1">
   <path d="M 0 558 
L 270.221322 558 
L 270.221322 0 
L 0 0 
z
" style="fill:none;"/>
  </g>
  <g id="axes_1">
   <g id="LineCollection_1">
    <path clip-path="url(#pd3df6ecd00)" d="M 29.297787 523.680309 
L 25.458954 526.090909 
L 18.828242 523.104247 
L 20.680546 515.978797 
L 24.418711 509.269886 
L 30.908486 498.182899 
L 37.431818 486.927525 
L 44.290713 474.564339 
L 51.082494 464.585165 
L 56.021972 453.967891 
L 62.028538 446.479079 
L 60.323881 438.697804 
L 67.847189 427.01703 
L 72.377281 416.763119 
L 78.430825 410.160557 
L 82.424017 399.85347 
L 83.309902 398.745658 
L 93.182146 387.587772 
L 98.826305 374.17881 
L 94.269368 366.486161 
L 99.524274 355.594149 
L 105.134877 343.337313 
L 113.624604 336.211864 
L 125.087414 339.969563 
L 133.758345 330.513277 
L 142.160826 321.934377 
L 148.704291 312.247666 
L 147.355331 298.094255 
L 156.368535 288.708868 
L 158.636937 278.339744 
L 161.7778 269.167057 
L 165.999175 260.198208 
L 173.931868 250.387421 
L 178.448538 241.276772 
L 187.267116 233.460048 
L 199.099044 233.46891 
L 207.051872 224.331674 
L 212.863812 213.351037 
L 219.078426 202.680588 
L 224.829965 192.417814 
L 227.776202 181.224478 
L 227.695667 168.090254 
L 227.756068 155.98408 
L 235.843121 144.170368 
L 241.104738 133.987357 
L 242.272495 121.570995 
L 251.39308 110.359934 
L 239.60813 109.278709 
L 242.842951 97.01301 
L 244.983839 84.038311 
L 239.198744 76.398837 
L 232.185491 69.734238 
L 224.850098 64.9928 
L 216.226146 62.103626 
L 213.058438 55.465614 
L 217.085186 45.672552 
L 215.97783 37.802653 
L 217.346924 31.909091 
" style="fill:none;stroke:#000000;stroke-width:3;"/>
   </g>
  </g>
 </g>
 <defs>
  <clipPath id="pd3df6ecd00">
   <rect height="543.6" width="255.821322" x="7.2" y="7.2"/>
  </clipPath>
 </defs>
</svg>
