<?xml version="1.0" encoding="utf-8" standalone="no"?>
<!DOCTYPE svg PUBLIC "-//W3C//DTD SVG 1.1//EN"
  "http://www.w3.org/Graphics/SVG/1.1/DTD/svg11.dtd">
<svg height="558pt" version="1.1" viewBox="0 0 269.212033 558" width="269.212033pt" xmlns="http://www.w3.org/2000/svg" xmlns:xlink="http://www.w3.org/1999/xlink">
 <metadata>
  <rdf:RDF xmlns:cc="http://creativecommons.org/ns#" xmlns:dc="http://purl.org/dc/elements/1.1/" xmlns:rdf="http://www.w3.org/1999/02/22-rdf-syntax-ns#">
   <cc:Work>
    <dc:type rdf:resource="http://purl.org/dc/dcmitype/StillImage"/>
    <dc:date>2021-05-26T19:20:47.367635</dc:date>
    <dc:format>image/svg+xml</dc:format>
    <dc:creator>
     <cc:Agent>
      <dc:title>Matplotlib v3.4.2, https://matplotlib.org/</dc:title>
     </cc:Agent>
    </dc:creator>
   </cc:Work>
  </rdf:RDF>
 </metadata>
 <defs>
  <style type="text/css">*{stroke-linecap:butt;stroke-linejoin:round;}</style>
 </defs>
 <g id="figure_1">
  <g id="patch_1">
   <path d="M 0 558 
L 269.212033 558 
L 269.212033 0 
L 0 0 
z
" style="fill:none;"/>
  </g>
  <g id="axes_1">
   <g id="LineCollection_1">
    <path clip-path="url(#p630fcf51f2)" d="M 28.87362 526.090909 
L 19.901434 525.373614 
L 18.782365 519.082157 
L 24.534773 506.844928 
L 29.933791 496.025006 
L 34.20065 486.803874 
L 40.044678 475.966667 
L 48.591486 466.460345 
L 53.381887 454.300895 
L 56.614754 446.445217 
L 59.252092 441.925393 
L 66.620933 429.83508 
L 74.107571 420.009 
L 80.920149 410.277983 
L 87.575665 396.822217 
L 92.64747 385.319567 
L 95.382972 378.630574 
L 91.31244 367.11064 
L 98.661648 357.77716 
L 105.781807 346.568343 
L 114.256628 344.736215 
L 126.658008 344.537447 
L 133.935229 333.873082 
L 142.841972 325.818635 
L 142.671821 312.4925 
L 147.004124 300.600956 
L 153.869057 290.757592 
L 156.264257 281.959923 
L 158.705268 274.259802 
L 165.413138 266.231281 
L 171.374962 254.287884 
L 177.978124 245.628489 
L 189.74471 243.277835 
L 200.333329 236.960452 
L 208.376229 224.904708 
L 214.357686 211.716847 
L 220.790697 199.635176 
L 222.00793 184.684324 
L 220.633635 169.456925 
L 229.782516 157.236981 
L 234.841232 146.071374 
L 236.503475 132.295849 
L 245.711254 124.250044 
L 234.782333 121.657411 
L 234.330779 112.168373 
L 239.101547 98.436059 
L 231.137178 90.831002 
L 221.25534 87.99639 
L 215.718893 84.116082 
L 215.941398 73.434433 
L 220.790697 67.523229 
L 224.841597 58.120613 
L 230.469663 48.908123 
L 236.274425 38.805495 
L 239.317508 31.909091 
L 243.473115 38.200548 
L 248.296238 44.14632 
L 250.429668 54.741547 
L 246.67326 61.50832 
L 241.228433 70.522042 
L 235.305874 67.739282 
L 235.351684 67.696071 
" style="fill:none;stroke:#000000;stroke-width:3;"/>
   </g>
  </g>
 </g>
 <defs>
  <clipPath id="p630fcf51f2">
   <rect height="543.6" width="254.812033" x="7.2" y="7.2"/>
  </clipPath>
 </defs>
</svg>
