<?xml version="1.0" encoding="utf-8" standalone="no"?>
<!DOCTYPE svg PUBLIC "-//W3C//DTD SVG 1.1//EN"
  "http://www.w3.org/Graphics/SVG/1.1/DTD/svg11.dtd">
<svg height="558pt" version="1.1" viewBox="0 0 304.343775 558" width="304.343775pt" xmlns="http://www.w3.org/2000/svg" xmlns:xlink="http://www.w3.org/1999/xlink">
 <metadata>
  <rdf:RDF xmlns:cc="http://creativecommons.org/ns#" xmlns:dc="http://purl.org/dc/elements/1.1/" xmlns:rdf="http://www.w3.org/1999/02/22-rdf-syntax-ns#">
   <cc:Work>
    <dc:type rdf:resource="http://purl.org/dc/dcmitype/StillImage"/>
    <dc:date>2021-05-26T19:20:49.614221</dc:date>
    <dc:format>image/svg+xml</dc:format>
    <dc:creator>
     <cc:Agent>
      <dc:title>Matplotlib v3.4.2, https://matplotlib.org/</dc:title>
     </cc:Agent>
    </dc:creator>
   </cc:Work>
  </rdf:RDF>
 </metadata>
 <defs>
  <style type="text/css">*{stroke-linecap:butt;stroke-linejoin:round;}</style>
 </defs>
 <g id="figure_1">
  <g id="patch_1">
   <path d="M -0 558 
L 304.343775 558 
L 304.343775 0 
L -0 0 
z
" style="fill:none;"/>
  </g>
  <g id="axes_1">
   <g id="LineCollection_1">
    <path clip-path="url(#pd3db0f5382)" d="M 283.964512 31.909091 
L 280.282071 38.115499 
L 274.260034 46.040324 
L 269.823108 56.058325 
L 266.632121 62.01794 
L 257.481393 59.915622 
L 249.666589 60.171556 
L 248.116088 68.8002 
L 256.339283 71.670321 
L 258.16666 80.308106 
L 253.660515 93.973172 
L 242.190957 101.943699 
L 234.161574 109.44806 
L 225.848395 116.75133 
L 221.148437 125.206304 
L 216.545386 133.478468 
L 208.959004 140.8183 
L 207.055486 153.432207 
L 199.358354 158.166993 
L 191.155924 164.419103 
L 184.753184 175.204908 
L 186.414435 185.533688 
L 187.238139 195.295755 
L 181.57604 203.385109 
L 172.099984 213.457954 
L 170.064951 228.018791 
L 160.062832 237.81742 
L 151.597371 248.255886 
L 140.660798 258.374433 
L 139.608672 270.869514 
L 136.715326 283.647951 
L 127.952224 288.958589 
L 123.591438 298.117382 
L 119.369091 309.771536 
L 110.716739 319.177123 
L 101.925949 329.551605 
L 99.440994 340.721312 
L 107.055063 350.373693 
L 103.995592 358.070005 
L 101.386042 367.08255 
L 99.323322 369.56877 
L 94.304958 375.683773 
L 88.365983 383.352663 
L 84.005198 393.946517 
L 78.073145 405.271612 
L 71.601186 416.423038 
L 66.278259 425.307616 
L 63.4126 431.568867 
L 60.851504 436.550447 
L 54.524904 446.285093 
L 49.098149 456.824104 
L 42.640034 469.885897 
L 35.288995 482.42668 
L 29.723803 492.033359 
L 25.342252 500.634581 
L 20.379262 507.224891 
L 20.66306 516.575635 
L 26.705862 521.913695 
L 34.714479 526.090909 
L 38.666874 520.597461 
L 39.248312 521.081908 
" style="fill:none;stroke:#000000;stroke-width:3;"/>
   </g>
  </g>
 </g>
 <defs>
  <clipPath id="pd3db0f5382">
   <rect height="543.6" width="289.943775" x="7.2" y="7.2"/>
  </clipPath>
 </defs>
</svg>
