<?xml version="1.0" encoding="utf-8" standalone="no"?>
<!DOCTYPE svg PUBLIC "-//W3C//DTD SVG 1.1//EN"
  "http://www.w3.org/Graphics/SVG/1.1/DTD/svg11.dtd">
<svg height="558pt" version="1.1" viewBox="0 0 275.250616 558" width="275.250616pt" xmlns="http://www.w3.org/2000/svg" xmlns:xlink="http://www.w3.org/1999/xlink">
 <metadata>
  <rdf:RDF xmlns:cc="http://creativecommons.org/ns#" xmlns:dc="http://purl.org/dc/elements/1.1/" xmlns:rdf="http://www.w3.org/1999/02/22-rdf-syntax-ns#">
   <cc:Work>
    <dc:type rdf:resource="http://purl.org/dc/dcmitype/StillImage"/>
    <dc:date>2021-05-26T19:20:49.948172</dc:date>
    <dc:format>image/svg+xml</dc:format>
    <dc:creator>
     <cc:Agent>
      <dc:title>Matplotlib v3.4.2, https://matplotlib.org/</dc:title>
     </cc:Agent>
    </dc:creator>
   </cc:Work>
  </rdf:RDF>
 </metadata>
 <defs>
  <style type="text/css">*{stroke-linecap:butt;stroke-linejoin:round;}</style>
 </defs>
 <g id="figure_1">
  <g id="patch_1">
   <path d="M 0 558 
L 275.250616 558 
L 275.250616 0 
L 0 0 
z
" style="fill:none;"/>
  </g>
  <g id="axes_1">
   <g id="LineCollection_1">
    <path clip-path="url(#p2fdcf344e7)" d="M 33.519513 526.090909 
L 24.591941 523.415685 
L 19.056846 519.860812 
L 21.762587 512.025581 
L 22.257038 504.12687 
L 25.03832 500.680819 
L 30.944252 497.243837 
L 35.06467 491.657607 
L 35.730804 483.477771 
L 41.423849 478.907219 
L 45.049816 471.217085 
L 50.049257 464.433806 
L 55.653025 453.55154 
L 61.366672 443.285936 
L 67.897534 432.394602 
L 74.105631 420.804989 
L 80.478544 410.167575 
L 84.770646 402.559057 
L 89.859362 393.200309 
L 94.323149 384.539839 
L 100.620521 371.462983 
L 97.674422 362.539526 
L 101.904718 352.183236 
L 107.522221 340.131127 
L 115.062586 331.960359 
L 125.631458 334.889502 
L 135.486124 329.666015 
L 142.545774 319.590851 
L 150.717936 310.458816 
L 150.450109 295.921923 
L 158.601669 283.924225 
L 163.305813 273.395633 
L 166.313719 263.510909 
L 170.248718 253.880104 
L 178.18739 244.893166 
L 183.028881 234.935893 
L 190.514307 226.819536 
L 203.679043 226.266355 
L 212.249512 217.914216 
L 218.574354 205.807695 
L 224.857991 194.580825 
L 231.368252 182.610332 
L 233.579543 168.771718 
L 231.292711 155.214229 
L 237.404664 140.84057 
L 246.284165 130.593103 
L 247.588964 117.770167 
L 252.02528 105.645509 
L 256.19377 95.334562 
L 242.713136 95.72451 
L 250.329042 83.119219 
L 249.168457 70.50486 
L 239.403067 64.782602 
L 229.67888 62.433846 
L 223.319702 67.602922 
L 227.495059 74.368064 
L 233.22244 80.017773 
L 234.925546 91.163027 
L 224.54896 100.43109 
L 215.87548 111.168259 
L 204.949505 115.611851 
L 195.918922 112.011634 
L 197.738773 104.212677 
L 203.315072 94.264473 
L 208.781493 84.679011 
L 214.412731 74.368064 
L 220.730706 63.240947 
L 227.254701 53.909405 
L 230.482362 45.321483 
L 235.536741 36.661014 
L 244.13468 41.757541 
L 247.891128 42.718808 
L 239.382465 38.384039 
L 235.138434 36.552191 
L 225.943034 31.909091 
L 220.435409 37.359292 
L 216.225715 46.110448 
L 209.090525 44.58693 
L 204.242166 45.258003 
L 200.073677 51.542512 
L 196.52325 58.83363 
L 192.698129 66.315187 
L 188.447231 74.558504 
L 184.07272 83.228042 
L 178.256063 92.849778 
L 172.968194 102.090635 
L 166.952383 107.967059 
L 162.962445 118.649816 
L 157.969872 128.543609 
L 153.18332 137.285696 
L 150.141078 140.758953 
L 150.305895 138.401128 
L 142.545774 132.37054 
L 133.659406 130.311978 
L 135.712747 124.100018 
L 139.187633 119.6927 
L 144.331288 108.864846 
L 150.319629 98.517625 
L 155.676173 88.025307 
L 161.142594 77.106767 
L 167.233945 67.013466 
L 171.924354 56.729725 
L 177.493786 47.361908 
L 181.490592 35.999009 
L 189.72456 33.568636 
L 199.977534 40.596766 
L 211.267479 47.234948 
L 220.188184 52.549121 
L 226.252066 51.451826 
L 228.16806 47.008234 
L 231.725354 42.782288 
L 235.969385 36.089695 
L 244.862621 42.111215 
L 247.925465 42.591848 
" style="fill:none;stroke:#000000;stroke-width:3;"/>
   </g>
  </g>
 </g>
 <defs>
  <clipPath id="p2fdcf344e7">
   <rect height="543.6" width="260.850616" x="7.2" y="7.2"/>
  </clipPath>
 </defs>
</svg>
