<?xml version="1.0" encoding="utf-8" standalone="no"?>
<!DOCTYPE svg PUBLIC "-//W3C//DTD SVG 1.1//EN"
  "http://www.w3.org/Graphics/SVG/1.1/DTD/svg11.dtd">
<svg height="558pt" version="1.1" viewBox="0 0 250.797746 558" width="250.797746pt" xmlns="http://www.w3.org/2000/svg" xmlns:xlink="http://www.w3.org/1999/xlink">
 <metadata>
  <rdf:RDF xmlns:cc="http://creativecommons.org/ns#" xmlns:dc="http://purl.org/dc/elements/1.1/" xmlns:rdf="http://www.w3.org/1999/02/22-rdf-syntax-ns#">
   <cc:Work>
    <dc:type rdf:resource="http://purl.org/dc/dcmitype/StillImage"/>
    <dc:date>2021-05-26T19:20:50.876902</dc:date>
    <dc:format>image/svg+xml</dc:format>
    <dc:creator>
     <cc:Agent>
      <dc:title>Matplotlib v3.4.2, https://matplotlib.org/</dc:title>
     </cc:Agent>
    </dc:creator>
   </cc:Work>
  </rdf:RDF>
 </metadata>
 <defs>
  <style type="text/css">*{stroke-linecap:butt;stroke-linejoin:round;}</style>
 </defs>
 <g id="figure_1">
  <g id="patch_1">
   <path d="M 0 558 
L 250.797746 558 
L 250.797746 0 
L 0 0 
z
" style="fill:none;"/>
  </g>
  <g id="axes_1">
   <g id="LineCollection_1">
    <path clip-path="url(#p89257a4658)" d="M 45.236969 467.105531 
L 38.500723 466.769866 
L 34.947729 466.495232 
L 33.896274 473.246662 
L 32.232433 480.974571 
L 30.002423 492.333757 
L 28.604335 503.059758 
L 27.772414 513.572155 
L 25.374865 521.849332 
L 17.945352 516.631278 
L 21.706326 518.446917 
L 27.067592 521.521297 
L 32.347977 526.090909 
L 38.726035 524.038779 
L 42.128822 517.676414 
L 46.721716 511.443738 
L 49.956963 504.165925 
L 53.579284 497.826446 
L 56.155927 490.731723 
L 60.979911 481.973935 
L 57.195828 476.054037 
L 47.952266 471.667514 
L 39.523292 467.395423 
L 37.160407 461.849332 
L 41.400891 452.740623 
L 46.057335 443.364908 
L 49.951186 437.0178 
L 53.729492 429.030515 
L 58.697907 420.036236 
L 63.683653 412.102352 
L 68.571186 402.398601 
L 73.828462 393.587413 
L 77.612546 386.294342 
L 78.744882 382.403687 
L 83.667079 376.468531 
L 87.826682 368.084552 
L 93.222611 360.158296 
L 98.208357 350.12651 
L 102.171535 342.787667 
L 104.020247 337.34075 
L 99.277144 329.391608 
L 105.268128 320.824539 
L 110.265429 310.769866 
L 118.122457 305.872219 
L 127.464232 308.359186 
L 134.061824 300.234584 
L 141.947738 292.842339 
L 147.066361 282.749523 
L 146.407757 271.207247 
L 154.42077 263.77686 
L 156.165492 255.705658 
L 158.17019 248.252384 
L 161.041471 241.333121 
L 167.494633 233.841704 
L 172.029755 225.267006 
L 177.662551 218.393516 
L 188.021118 217.226319 
L 196.109235 211.779402 
L 200.754125 203.151303 
L 205.612772 194.431659 
L 210.667845 185.101716 
L 214.631022 174.970757 
L 215.578488 163.100445 
L 214.064854 151.565798 
L 221.407709 141.205976 
L 226.566772 132.097266 
L 226.976955 121.6459 
L 232.852394 113.74253 
L 229.854014 107.547997 
L 224.076787 103.596313 
L 230.009999 93.251748 
L 225.856173 84.669421 
L 217.762279 80.961856 
L 209.801261 79.787031 
L 206.144277 85.82136 
L 212.002384 89.887476 
L 214.475037 96.204069 
L 214.527032 106.487603 
L 203.989372 113.391608 
L 196.906492 121.600127 
L 187.980677 124.079466 
L 182.775396 120.631278 
L 184.91297 114.52829 
L 189.985375 105.579784 
L 194.959567 96.570248 
L 200.170625 87.240305 
L 205.508782 76.964399 
L 210.194113 68.656707 
L 213.827988 62.095995 
L 217.11523 56.054037 
L 221.90455 47.639542 
L 226.295242 39.606484 
L 229.547821 32.404959 
L 229.599816 31.909091 
L 224.348317 39.560712 
L 220.344699 46.602034 
L 217.796942 52.3541 
L 218.432437 59.227591 
L 225.573089 62.378258 
L 225.86195 63.987921 
" style="fill:none;stroke:#000000;stroke-width:3;"/>
   </g>
  </g>
 </g>
 <defs>
  <clipPath id="p89257a4658">
   <rect height="543.6" width="236.397746" x="7.2" y="7.2"/>
  </clipPath>
 </defs>
</svg>
