<?xml version="1.0" encoding="utf-8" standalone="no"?>
<!DOCTYPE svg PUBLIC "-//W3C//DTD SVG 1.1//EN"
  "http://www.w3.org/Graphics/SVG/1.1/DTD/svg11.dtd">
<svg height="558pt" version="1.1" viewBox="0 0 265.166135 558" width="265.166135pt" xmlns="http://www.w3.org/2000/svg" xmlns:xlink="http://www.w3.org/1999/xlink">
 <metadata>
  <rdf:RDF xmlns:cc="http://creativecommons.org/ns#" xmlns:dc="http://purl.org/dc/elements/1.1/" xmlns:rdf="http://www.w3.org/1999/02/22-rdf-syntax-ns#">
   <cc:Work>
    <dc:type rdf:resource="http://purl.org/dc/dcmitype/StillImage"/>
    <dc:date>2021-05-26T19:20:52.929822</dc:date>
    <dc:format>image/svg+xml</dc:format>
    <dc:creator>
     <cc:Agent>
      <dc:title>Matplotlib v3.4.2, https://matplotlib.org/</dc:title>
     </cc:Agent>
    </dc:creator>
   </cc:Work>
  </rdf:RDF>
 </metadata>
 <defs>
  <style type="text/css">*{stroke-linecap:butt;stroke-linejoin:round;}</style>
 </defs>
 <g id="figure_1">
  <g id="patch_1">
   <path d="M -0 558 
L 265.166135 558 
L 265.166135 0 
L -0 0 
z
" style="fill:none;"/>
  </g>
  <g id="axes_1">
   <g id="LineCollection_1">
    <path clip-path="url(#p0c710b39fe)" d="M 18.598461 526.090909 
L 79.846068 460.385986 
L 71.539896 441.81742 
L 81.988864 427.858499 
L 90.393468 402.920426 
L 76.999103 387.611608 
L 82.965615 376.782445 
L 99.100941 378.472315 
L 109.171323 369.333021 
L 120.195741 359.103811 
L 126.245541 349.264571 
L 124.027029 332.995828 
L 138.239139 319.436876 
L 140.116924 307.427804 
L 143.75892 297.128599 
L 148.642676 286.88939 
L 157.834739 274.930314 
L 165.096014 261.731334 
L 179.300553 258.471586 
L 191.309294 252.292064 
L 199.683611 239.323066 
L 206.377008 224.77419 
L 213.040117 212.705122 
L 218.438751 198.846193 
L 216.58368 182.83743 
L 220.218104 166.088724 
L 230.26577 154.469622 
L 232.219273 140.170726 
L 236.368573 126.321796 
L 243.538988 114.172735 
L 226.949359 117.972441 
L 237.277179 101.263732 
L 234.58922 86.264891 
L 221.134281 79.835388 
L 209.133112 79.395422 
L 206.43001 88.454722 
L 213.22941 93.414339 
L 215.894654 102.343649 
L 213.751859 116.18258 
L 200.501356 125.651848 
L 189.370934 136.571004 
L 178.043648 134.961129 
L 176.370299 127.431711 
L 182.692681 116.56255 
L 187.008559 106.483329 
L 193.815531 94.514254 
L 197.571102 83.765084 
L 207.641484 69.966151 
L 215.856796 55.707252 
L 221.906596 45.318055 
L 227.524809 37.648647 
L 233.48375 31.909091 
L 246.567674 39.498505 
L 245.507634 46.837937 
L 241.752063 55.487269 
L 235.300961 57.967078 
L 234.036485 56.857163 
" style="fill:none;stroke:#000000;stroke-width:3;"/>
   </g>
  </g>
 </g>
 <defs>
  <clipPath id="p0c710b39fe">
   <rect height="543.6" width="250.766135" x="7.2" y="7.2"/>
  </clipPath>
 </defs>
</svg>
