<?xml version="1.0" encoding="utf-8" standalone="no"?>
<!DOCTYPE svg PUBLIC "-//W3C//DTD SVG 1.1//EN"
  "http://www.w3.org/Graphics/SVG/1.1/DTD/svg11.dtd">
<svg height="558pt" version="1.1" viewBox="0 0 277.242232 558" width="277.242232pt" xmlns="http://www.w3.org/2000/svg" xmlns:xlink="http://www.w3.org/1999/xlink">
 <metadata>
  <rdf:RDF xmlns:cc="http://creativecommons.org/ns#" xmlns:dc="http://purl.org/dc/elements/1.1/" xmlns:rdf="http://www.w3.org/1999/02/22-rdf-syntax-ns#">
   <cc:Work>
    <dc:type rdf:resource="http://purl.org/dc/dcmitype/StillImage"/>
    <dc:date>2021-05-26T19:20:53.956115</dc:date>
    <dc:format>image/svg+xml</dc:format>
    <dc:creator>
     <cc:Agent>
      <dc:title>Matplotlib v3.4.2, https://matplotlib.org/</dc:title>
     </cc:Agent>
    </dc:creator>
   </cc:Work>
  </rdf:RDF>
 </metadata>
 <defs>
  <style type="text/css">*{stroke-linecap:butt;stroke-linejoin:round;}</style>
 </defs>
 <g id="figure_1">
  <g id="patch_1">
   <path d="M 0 558 
L 277.242232 558 
L 277.242232 0 
L 0 0 
z
" style="fill:none;"/>
  </g>
  <g id="axes_1">
   <g id="LineCollection_1">
    <path clip-path="url(#p74d37fd991)" d="M 27.590896 526.090909 
L 19.147374 522.420286 
L 22.742141 508.059777 
L 30.168539 496.919113 
L 35.922952 485.566859 
L 37.929333 479.485952 
L 43.843978 473.368246 
L 46.066325 466.312186 
L 53.792286 453.95718 
L 59.212303 442.604927 
L 65.565844 429.44036 
L 72.058717 418.492887 
L 77.917629 407.370622 
L 85.079296 397.563894 
L 88.687996 388.833514 
L 92.867957 381.841851 
L 99.973891 368.438096 
L 95.062437 361.170446 
L 99.980858 350.084979 
L 105.700438 337.840368 
L 113.997661 328.990394 
L 123.952935 332.486226 
L 134.862634 325.181778 
L 142.616462 316.101815 
L 150.586255 307.26104 
L 149.185968 292.440553 
L 157.190594 280.950306 
L 162.485211 269.303667 
L 165.243986 259.754526 
L 169.075617 250.380177 
L 177.289241 240.628647 
L 182.632625 230.039956 
L 192.936229 222.027142 
L 207.050565 221.143984 
L 215.494086 208.043815 
L 221.311199 195.845202 
L 227.852839 184.308957 
L 234.283012 171.98155 
L 234.436277 158.173015 
L 232.415963 143.913701 
L 242.740467 129.433598 
L 247.44989 116.600215 
L 250.264397 102.690485 
L 258.094858 91.089843 
L 242.580235 93.159743 
L 251.762217 76.766132 
L 249.100975 63.481972 
L 238.038011 58.633805 
L 227.783173 56.076328 
L 222.62092 63.868353 
L 228.918729 69.102901 
L 232.917558 76.39815 
L 231.705369 89.709909 
L 218.677824 100.151407 
L 208.701649 107.842237 
L 198.425911 108.329813 
L 195.31184 102.837678 
L 200.975688 92.589371 
L 206.451437 82.267467 
L 212.665646 71.237198 
L 219.820346 58.836195 
L 227.504508 47.796726 
L 230.402615 38.127992 
L 236.470525 31.909091 
L 245.345976 35.837302 
L 247.213026 37.75081 
" style="fill:none;stroke:#000000;stroke-width:3;"/>
   </g>
  </g>
 </g>
 <defs>
  <clipPath id="p74d37fd991">
   <rect height="543.6" width="262.842232" x="7.2" y="7.2"/>
  </clipPath>
 </defs>
</svg>
