<?xml version="1.0" encoding="utf-8" standalone="no"?>
<!DOCTYPE svg PUBLIC "-//W3C//DTD SVG 1.1//EN"
  "http://www.w3.org/Graphics/SVG/1.1/DTD/svg11.dtd">
<svg height="558pt" version="1.1" viewBox="0 0 297.142447 558" width="297.142447pt" xmlns="http://www.w3.org/2000/svg" xmlns:xlink="http://www.w3.org/1999/xlink">
 <metadata>
  <rdf:RDF xmlns:cc="http://creativecommons.org/ns#" xmlns:dc="http://purl.org/dc/elements/1.1/" xmlns:rdf="http://www.w3.org/1999/02/22-rdf-syntax-ns#">
   <cc:Work>
    <dc:type rdf:resource="http://purl.org/dc/dcmitype/StillImage"/>
    <dc:date>2021-05-26T19:20:55.750665</dc:date>
    <dc:format>image/svg+xml</dc:format>
    <dc:creator>
     <cc:Agent>
      <dc:title>Matplotlib v3.4.2, https://matplotlib.org/</dc:title>
     </cc:Agent>
    </dc:creator>
   </cc:Work>
  </rdf:RDF>
 </metadata>
 <defs>
  <style type="text/css">*{stroke-linecap:butt;stroke-linejoin:round;}</style>
 </defs>
 <g id="figure_1">
  <g id="patch_1">
   <path d="M 0 558 
L 297.142447 558 
L 297.142447 0 
L 0 0 
z
" style="fill:none;"/>
  </g>
  <g id="axes_1">
   <g id="LineCollection_1">
    <path clip-path="url(#p04a5fee35d)" d="M 271.760273 31.909091 
L 277.090518 34.16258 
L 273.270158 42.490289 
L 269.246139 50.280128 
L 260.741625 53.442431 
L 251.74552 52.032842 
L 245.62873 56.678924 
L 252.307337 63.550675 
L 256.429674 72.119498 
L 255.622062 85.186025 
L 242.939029 93.829037 
L 233.739265 103.158296 
L 223.830206 111.402543 
L 219.764051 121.54788 
L 211.231446 131.173896 
L 206.161042 142.803012 
L 200.732479 151.789148 
L 191.300966 157.640801 
L 183.07736 169.000983 
L 185.036699 183.013419 
L 182.445315 194.98566 
L 173.996983 203.916154 
L 169.804419 218.002779 
L 160.400996 231.51444 
L 149.522802 243.607238 
L 137.542041 255.598026 
L 137.563109 271.928866 
L 131.221593 282.000015 
L 123.356146 289.789854 
L 118.917787 301.168583 
L 111.473703 313.242834 
L 101.150304 323.388172 
L 94.850924 334.859637 
L 104.120915 346.544395 
L 101.901735 353.954016 
L 96.536377 362.559933 
L 92.428086 372.278684 
L 86.318319 382.516759 
L 79.878484 394.897038 
L 72.378219 408.677634 
L 65.053522 423.617433 
L 56.352371 436.609771 
L 52.517966 448.368718 
L 42.931952 461.871106 
L 36.913481 471.886613 
L 33.268689 479.314781 
L 27.783945 487.54048 
L 21.737382 498.585359 
L 20.051929 508.906895 
L 28.542398 515.231503 
L 37.046913 519.488093 
L 40.916432 519.840491 
L 48.936378 525.701417 
L 49.729946 526.090909 
" style="fill:none;stroke:#000000;stroke-width:3;"/>
   </g>
  </g>
 </g>
 <defs>
  <clipPath id="p04a5fee35d">
   <rect height="543.6" width="282.742447" x="7.2" y="7.2"/>
  </clipPath>
 </defs>
</svg>
