<?xml version="1.0" encoding="utf-8" standalone="no"?>
<!DOCTYPE svg PUBLIC "-//W3C//DTD SVG 1.1//EN"
  "http://www.w3.org/Graphics/SVG/1.1/DTD/svg11.dtd">
<svg height="558pt" version="1.1" viewBox="0 0 274.850991 558" width="274.850991pt" xmlns="http://www.w3.org/2000/svg" xmlns:xlink="http://www.w3.org/1999/xlink">
 <metadata>
  <rdf:RDF xmlns:cc="http://creativecommons.org/ns#" xmlns:dc="http://purl.org/dc/elements/1.1/" xmlns:rdf="http://www.w3.org/1999/02/22-rdf-syntax-ns#">
   <cc:Work>
    <dc:type rdf:resource="http://purl.org/dc/dcmitype/StillImage"/>
    <dc:date>2021-05-26T19:20:56.259138</dc:date>
    <dc:format>image/svg+xml</dc:format>
    <dc:creator>
     <cc:Agent>
      <dc:title>Matplotlib v3.4.2, https://matplotlib.org/</dc:title>
     </cc:Agent>
    </dc:creator>
   </cc:Work>
  </rdf:RDF>
 </metadata>
 <defs>
  <style type="text/css">*{stroke-linecap:butt;stroke-linejoin:round;}</style>
 </defs>
 <g id="figure_1">
  <g id="patch_1">
   <path d="M 0 558 
L 274.850991 558 
L 274.850991 0 
L 0 0 
z
" style="fill:none;"/>
  </g>
  <g id="axes_1">
   <g id="LineCollection_1">
    <path clip-path="url(#p51fec1f57f)" d="M 20.187798 526.090909 
L 19.038681 521.06954 
L 22.423351 513.546683 
L 30.885024 500.671377 
L 32.695752 490.223986 
L 39.667056 479.473106 
L 47.689976 471.803103 
L 50.614999 462.192607 
L 53.275376 456.15041 
L 59.215958 446.052492 
L 66.681731 433.802558 
L 71.709984 425.249676 
L 78.026641 413.615918 
L 87.721002 400.014078 
L 95.082309 386.393844 
L 98.188405 376.020026 
L 97.338755 367.237228 
L 99.671809 357.350833 
L 106.392397 345.551535 
L 113.106021 335.214504 
L 124.283786 337.302143 
L 135.830662 332.15202 
L 143.421792 321.631056 
L 151.695428 311.533138 
L 150.295596 298.437113 
L 159.209951 285.93887 
L 163.277126 276.383554 
L 165.798217 266.800648 
L 170.157893 258.027047 
L 178.069384 247.781982 
L 183.083708 237.592098 
L 190.124656 229.076003 
L 202.340108 228.220714 
L 212.988584 220.421958 
L 219.179882 208.972133 
L 224.988142 197.862583 
L 231.444085 186.265612 
L 235.072506 173.27075 
L 233.902497 158.445755 
L 238.61039 142.544752 
L 248.771362 130.837421 
L 249.0569 116.978074 
L 254.454264 105.08681 
L 255.81231 93.97726 
L 243.506321 95.393544 
L 252.566928 82.279126 
L 249.279759 69.504983 
L 238.485032 62.221239 
L 227.95495 61.347557 
L 223.748489 68.769251 
L 231.165511 75.243691 
L 233.408029 83.36433 
L 231.033189 97.306447 
L 218.824701 106.447914 
L 209.541236 114.10872 
L 200.153305 114.991599 
L 195.159874 109.354054 
L 201.190992 99.991867 
L 205.926743 90.133062 
L 211.797682 78.720023 
L 219.743994 65.890701 
L 226.353152 55.49849 
L 230.099967 47.745717 
L 223.372415 40.287236 
L 223.699739 33.978336 
L 229.793536 31.909091 
L 235.587867 34.962378 
L 244.940975 40.333219 
L 247.733676 40.728675 
" style="fill:none;stroke:#000000;stroke-width:3;"/>
   </g>
  </g>
 </g>
 <defs>
  <clipPath id="p51fec1f57f">
   <rect height="543.6" width="260.450991" x="7.2" y="7.2"/>
  </clipPath>
 </defs>
</svg>
