<?xml version="1.0" encoding="utf-8" standalone="no"?>
<!DOCTYPE svg PUBLIC "-//W3C//DTD SVG 1.1//EN"
  "http://www.w3.org/Graphics/SVG/1.1/DTD/svg11.dtd">
<svg height="558pt" version="1.1" viewBox="0 0 278.734686 558" width="278.734686pt" xmlns="http://www.w3.org/2000/svg" xmlns:xlink="http://www.w3.org/1999/xlink">
 <metadata>
  <rdf:RDF xmlns:cc="http://creativecommons.org/ns#" xmlns:dc="http://purl.org/dc/elements/1.1/" xmlns:rdf="http://www.w3.org/1999/02/22-rdf-syntax-ns#">
   <cc:Work>
    <dc:type rdf:resource="http://purl.org/dc/dcmitype/StillImage"/>
    <dc:date>2021-05-26T19:20:57.045846</dc:date>
    <dc:format>image/svg+xml</dc:format>
    <dc:creator>
     <cc:Agent>
      <dc:title>Matplotlib v3.4.2, https://matplotlib.org/</dc:title>
     </cc:Agent>
    </dc:creator>
   </cc:Work>
  </rdf:RDF>
 </metadata>
 <defs>
  <style type="text/css">*{stroke-linecap:butt;stroke-linejoin:round;}</style>
 </defs>
 <g id="figure_1">
  <g id="patch_1">
   <path d="M 0 558 
L 278.734686 558 
L 278.734686 0 
L 0 0 
z
" style="fill:none;"/>
  </g>
  <g id="axes_1">
   <g id="LineCollection_1">
    <path clip-path="url(#p705e28623c)" d="M 24.517733 526.090909 
L 19.215213 522.813095 
L 25.701331 509.666114 
L 32.911136 498.957397 
L 37.104455 488.382651 
L 42.55577 477.51317 
L 49.109523 465.61658 
L 56.082607 454.711373 
L 59.802488 448.798804 
L 64.388085 438.545588 
L 69.825874 429.042606 
L 77.529407 417.190674 
L 82.507284 404.427741 
L 89.304519 392.915201 
L 96.500796 384.037416 
L 97.948168 379.803945 
L 96.920128 377.696141 
L 99.909559 370.220582 
L 95.980013 362.182346 
L 103.507698 350.776982 
L 110.392858 339.31803 
L 119.584344 338.478481 
L 131.629992 337.942598 
L 139.38087 326.019215 
L 147.740455 319.195646 
L 150.844864 307.799213 
L 151.318304 294.294977 
L 160.787089 284.765201 
L 161.63928 274.574505 
L 165.217129 265.142974 
L 172.582491 255.550679 
L 178.108204 244.716923 
L 185.088052 235.321119 
L 196.125951 232.820334 
L 207.488494 228.515412 
L 213.311798 217.351196 
L 219.912894 205.34743 
L 226.45312 193.915272 
L 231.099588 179.973398 
L 228.495672 163.861201 
L 234.231051 149.106572 
L 243.625439 136.745551 
L 244.761694 121.106716 
L 252.776345 111.434039 
L 244.308545 105.387499 
L 242.780012 98.090567 
L 248.853562 84.747096 
L 242.123961 75.574575 
L 246.2767 65.839378 
L 250.862297 56.264946 
L 243.158764 52.64774 
L 249.800441 54.969897 
L 254.636285 50.76322 
L 258.362928 44.770269 
L 259.519473 38.482582 
L 252.952194 34.579572 
L 250.091268 31.909091 
L 257.578372 36.937454 
L 255.725195 44.404082 
L 251.822703 50.888259 
L 247.000385 52.308348 
L 243.801288 52.281553 
L 243.578096 52.442318 
" style="fill:none;stroke:#000000;stroke-width:3;"/>
   </g>
  </g>
 </g>
 <defs>
  <clipPath id="p705e28623c">
   <rect height="543.6" width="264.334686" x="7.2" y="7.2"/>
  </clipPath>
 </defs>
</svg>
