<?xml version="1.0" encoding="utf-8" standalone="no"?>
<!DOCTYPE svg PUBLIC "-//W3C//DTD SVG 1.1//EN"
  "http://www.w3.org/Graphics/SVG/1.1/DTD/svg11.dtd">
<svg height="558pt" version="1.1" viewBox="0 0 278.341065 558" width="278.341065pt" xmlns="http://www.w3.org/2000/svg" xmlns:xlink="http://www.w3.org/1999/xlink">
 <metadata>
  <rdf:RDF xmlns:cc="http://creativecommons.org/ns#" xmlns:dc="http://purl.org/dc/elements/1.1/" xmlns:rdf="http://www.w3.org/1999/02/22-rdf-syntax-ns#">
   <cc:Work>
    <dc:type rdf:resource="http://purl.org/dc/dcmitype/StillImage"/>
    <dc:date>2021-05-26T19:20:57.711854</dc:date>
    <dc:format>image/svg+xml</dc:format>
    <dc:creator>
     <cc:Agent>
      <dc:title>Matplotlib v3.4.2, https://matplotlib.org/</dc:title>
     </cc:Agent>
    </dc:creator>
   </cc:Work>
  </rdf:RDF>
 </metadata>
 <defs>
  <style type="text/css">*{stroke-linecap:butt;stroke-linejoin:round;}</style>
 </defs>
 <g id="figure_1">
  <g id="patch_1">
   <path d="M 0 558 
L 278.341065 558 
L 278.341065 0 
L 0 0 
z
" style="fill:none;"/>
  </g>
  <g id="axes_1">
   <g id="LineCollection_1">
    <path clip-path="url(#p214965b98b)" d="M 26.16281 526.090909 
L 19.197321 524.00797 
L 19.302013 517.10478 
L 25.869673 504.100238 
L 32.660675 492.76389 
L 35.187235 486.321526 
L 39.640123 478.957508 
L 45.572653 468.773228 
L 49.571876 460.773269 
L 55.378777 449.160425 
L 60.041047 444.05446 
L 63.712237 436.930072 
L 69.079432 429.003845 
L 74.272141 417.649064 
L 80.358219 404.828853 
L 85.816147 396.128436 
L 90.604048 388.266725 
L 93.933244 383.888867 
L 96.829715 376.22992 
L 100.577678 368.441941 
L 95.775818 357.511121 
L 103.153094 346.681683 
L 109.77659 335.087272 
L 120.608692 331.686368 
L 131.678096 332.571156 
L 137.882825 322.718672 
L 147.779681 314.727929 
L 152.33726 302.036749 
L 152.316322 288.534514 
L 161.80837 279.686632 
L 163.699801 269.953963 
L 165.702902 261.917138 
L 169.478783 253.382619 
L 177.058463 245.143029 
L 182.006891 234.940316 
L 189.46792 225.585525 
L 201.032865 223.843599 
L 211.334529 218.728417 
L 217.581135 207.622483 
L 223.087919 196.534982 
L 229.89288 185.26315 
L 234.806411 172.461371 
L 235.204239 158.350844 
L 233.55709 144.793309 
L 241.63231 133.622859 
L 249.170114 123.152866 
L 249.302723 112.093015 
L 253.204234 101.199061 
L 259.143744 91.918002 
L 246.357396 94.811997 
L 248.821141 83.936476 
L 253.518309 72.213033 
L 246.636574 63.088656 
L 237.34693 59.650885 
L 227.589662 58.379002 
L 225.104979 66.75684 
L 231.491173 71.079399 
L 234.192219 79.107008 
L 234.150343 91.245195 
L 220.100715 100.968647 
L 208.396182 111.291176 
L 198.206189 109.954777 
L 196.79634 103.291216 
L 201.381837 95.005544 
L 206.386101 85.8443 
L 211.264735 76.636974 
L 217.141429 68.056372 
L 222.166632 58.03799 
L 227.205793 50.738488 
L 229.997572 44.065711 
L 233.55011 37.45745 
L 237.437663 31.909091 
L 243.349255 35.098015 
L 248.758326 37.752379 
L 249.037504 37.374501 
" style="fill:none;stroke:#000000;stroke-width:3;"/>
   </g>
  </g>
 </g>
 <defs>
  <clipPath id="p214965b98b">
   <rect height="543.6" width="263.941065" x="7.2" y="7.2"/>
  </clipPath>
 </defs>
</svg>
