<?xml version="1.0" encoding="utf-8" standalone="no"?>
<!DOCTYPE svg PUBLIC "-//W3C//DTD SVG 1.1//EN"
  "http://www.w3.org/Graphics/SVG/1.1/DTD/svg11.dtd">
<svg height="558pt" version="1.1" viewBox="0 0 290.029163 558" width="290.029163pt" xmlns="http://www.w3.org/2000/svg" xmlns:xlink="http://www.w3.org/1999/xlink">
 <metadata>
  <rdf:RDF xmlns:cc="http://creativecommons.org/ns#" xmlns:dc="http://purl.org/dc/elements/1.1/" xmlns:rdf="http://www.w3.org/1999/02/22-rdf-syntax-ns#">
   <cc:Work>
    <dc:type rdf:resource="http://purl.org/dc/dcmitype/StillImage"/>
    <dc:date>2021-05-26T19:21:01.834863</dc:date>
    <dc:format>image/svg+xml</dc:format>
    <dc:creator>
     <cc:Agent>
      <dc:title>Matplotlib v3.4.2, https://matplotlib.org/</dc:title>
     </cc:Agent>
    </dc:creator>
   </cc:Work>
  </rdf:RDF>
 </metadata>
 <defs>
  <style type="text/css">*{stroke-linecap:butt;stroke-linejoin:round;}</style>
 </defs>
 <g id="figure_1">
  <g id="patch_1">
   <path d="M 0 558 
L 290.029163 558 
L 290.029163 0 
L 0 0 
z
" style="fill:none;"/>
  </g>
  <g id="axes_1">
   <g id="LineCollection_1">
    <path clip-path="url(#p1ebf495886)" d="M 247.069162 38.251996 
L 249.767427 40.337335 
L 253.584485 36.700405 
L 253.424657 31.909091 
L 254.609261 33.212428 
L 245.734132 48.833848 
L 245.945669 53.314844 
L 251.845185 56.424233 
L 270.300564 66.863339 
L 269.990311 74.000659 
L 262.196368 88.138758 
L 251.511427 107.080585 
L 245.320461 118.736138 
L 242.029894 124.123263 
L 234.010313 139.304032 
L 225.661674 154.056562 
L 212.029326 179.819183 
L 202.110617 197.159767 
L 197.061947 206.338981 
L 192.676092 213.668698 
L 189.376123 219.868857 
L 185.685988 226.410366 
L 181.464661 233.634575 
L 177.323247 242.472438 
L 173.666017 248.461581 
L 169.38828 256.058172 
L 165.26567 263.934049 
L 160.339221 269.513571 
L 154.618336 266.584167 
L 147.971391 262.984475 
L 122.854964 248.54847 
L 119.023804 245.395636 
L 120.429346 252.11713 
L 118.755858 259.974388 
L 113.928126 277.048098 
L 109.584578 285.51358 
L 105.382054 294.779683 
L 102.702592 301.656336 
L 96.474019 296.927085 
L 89.798869 292.694345 
L 82.949789 288.728477 
L 77.849411 291.167579 
L 71.047339 304.083024 
L 67.944804 310.810724 
L 63.963219 317.147423 
L 57.941481 328.027181 
L 59.473945 331.974429 
L 64.033731 334.692817 
L 69.308039 337.404998 
L 75.320375 340.359228 
L 80.387848 345.454654 
L 81.483137 348.706789 
L 77.195998 354.590423 
L 73.679792 360.877471 
L 69.519576 367.530694 
L 66.210206 373.414329 
L 62.726906 380.967475 
L 58.679508 387.775857 
L 55.050483 394.764224 
L 50.937275 402.106354 
L 47.585597 408.821641 
L 43.857855 415.791389 
L 41.596766 420.961291 
L 38.733972 425.603652 
L 29.426369 441.926392 
L 31.654553 448.287917 
L 36.933562 460.886838 
L 43.679224 464.976832 
L 49.207377 468.191729 
L 50.255657 471.145959 
L 50.956078 476.446195 
L 53.146655 480.716174 
L 53.485114 482.664973 
L 52.356919 487.58662 
L 57.396187 490.764279 
L 54.387669 494.891512 
L 50.937275 501.302687 
L 46.739451 503.698344 
L 45.319807 508.073831 
L 48.140293 511.872127 
L 53.085545 513.765068 
L 57.316274 516.675853 
L 60.578636 516.179344 
L 60.08505 521.324421 
L 58.618398 526.090909 
L 56.01885 525.277875 
L 51.238126 522.429154 
L 41.530954 516.024185 
L 36.557497 513.336829 
L 29.976364 509.166152 
L 22.911047 504.368631 
L 19.728598 499.937287 
L 22.17772 494.748766 
L 26.695198 497.212692 
L 30.498154 494.444654 
L 34.324613 488.995465 
L 38.028851 483.496626 
L 41.944625 480.554809 
L 47.002697 483.993135 
L 51.6659 484.328279 
L 56.079961 478.630835 
L 62.595283 468.253793 
L 66.388836 462.736335 
L 72.904159 452.439975 
L 75.40969 447.617629 
L 78.112656 443.155253 
L 79.964775 439.201798 
L 74.906704 436.07379 
L 69.655899 433.504355 
L 63.930313 429.699853 
L 57.99319 426.298765 
L 58.726516 421.917071 
L 62.694 415.307293 
L 65.862346 409.026451 
L 70.069571 401.870512 
L 74.06996 394.571827 
L 77.036171 388.855765 
L 73.195609 385.293311 
L 67.10806 382.301843 
L 61.091024 378.205642 
L 55.445351 374.62457 
L 51.938547 371.049703 
L 54.829545 365.153657 
L 58.820533 357.507415 
L 62.698701 351.338288 
L 64.875176 346.069084 
L 67.935403 341.060547 
L 71.503318 335.499644 
L 77.713087 322.652469 
L 81.266899 317.277757 
L 95.627873 291.136547 
L 99.271001 284.21645 
L 102.867121 277.873545 
L 106.162388 272.542277 
L 109.429451 268.384013 
L 110.007651 264.219542 
L 112.644805 261.50736 
L 118.031933 250.242807 
L 121.289594 245.010842 
L 124.251104 238.338999 
L 128.571149 231.45614 
L 132.345899 224.784298 
L 135.241598 220.650859 
L 138.123194 214.332779 
L 142.114182 207.648524 
L 145.978247 200.517411 
L 148.563693 195.31027 
L 151.732039 189.941765 
L 155.506789 182.934778 
L 159.667005 175.567823 
L 163.709702 167.989851 
L 167.554964 161.516613 
L 170.474167 156.253615 
L 174.126696 148.756326 
L 188.699207 123.272991 
L 192.483359 115.732257 
L 195.755122 110.26445 
L 199.294832 103.747767 
L 208.654144 87.015406 
L 212.814361 78.804385 
L 217.895937 70.537507 
L 222.295895 62.165121 
L 227.330462 53.414146 
L 233.211175 46.47543 
L 241.141441 50.621282 
L 246.848224 49.535168 
L 250.811007 42.677134 
L 247.661464 38.705061 
L 246.556774 38.301647 
L 246.556774 38.301647 
" style="fill:none;stroke:#000000;stroke-width:3;"/>
   </g>
  </g>
 </g>
 <defs>
  <clipPath id="p1ebf495886">
   <rect height="543.6" width="275.629163" x="7.2" y="7.2"/>
  </clipPath>
 </defs>
</svg>
