<?xml version="1.0" encoding="utf-8" standalone="no"?>
<!DOCTYPE svg PUBLIC "-//W3C//DTD SVG 1.1//EN"
  "http://www.w3.org/Graphics/SVG/1.1/DTD/svg11.dtd">
<svg height="558pt" version="1.1" viewBox="0 0 279.415961 558" width="279.415961pt" xmlns="http://www.w3.org/2000/svg" xmlns:xlink="http://www.w3.org/1999/xlink">
 <metadata>
  <rdf:RDF xmlns:cc="http://creativecommons.org/ns#" xmlns:dc="http://purl.org/dc/elements/1.1/" xmlns:rdf="http://www.w3.org/1999/02/22-rdf-syntax-ns#">
   <cc:Work>
    <dc:type rdf:resource="http://purl.org/dc/dcmitype/StillImage"/>
    <dc:date>2021-05-26T19:21:03.824788</dc:date>
    <dc:format>image/svg+xml</dc:format>
    <dc:creator>
     <cc:Agent>
      <dc:title>Matplotlib v3.4.2, https://matplotlib.org/</dc:title>
     </cc:Agent>
    </dc:creator>
   </cc:Work>
  </rdf:RDF>
 </metadata>
 <defs>
  <style type="text/css">*{stroke-linecap:butt;stroke-linejoin:round;}</style>
 </defs>
 <g id="figure_1">
  <g id="patch_1">
   <path d="M 0 558 
L 279.415961 558 
L 279.415961 0 
L 0 0 
z
" style="fill:none;"/>
  </g>
  <g id="axes_1">
   <g id="LineCollection_1">
    <path clip-path="url(#pef2732faea)" d="M 27.985144 526.090909 
L 19.24618 520.000116 
L 20.82356 515.276265 
L 25.027558 506.935133 
L 30.632889 499.598285 
L 35.294609 490.476045 
L 40.956274 479.745091 
L 45.843334 468.893251 
L 51.786675 458.571449 
L 55.180858 451.755341 
L 60.025666 444.195318 
L 66.961911 431.818456 
L 72.475698 421.031708 
L 77.552888 411.221347 
L 82.270943 405.102658 
L 89.453654 389.740841 
L 95.256157 382.422591 
L 98.917931 375.206629 
L 101.579759 363.415598 
L 99.347485 352.256894 
L 105.959804 341.321364 
L 113.487566 329.883692 
L 124.789772 329.883692 
L 136.753915 326.266412 
L 144.732357 315.228593 
L 152.879804 306.506206 
L 152.260119 291.83251 
L 159.132987 279.632327 
L 165.19604 270.584477 
L 167.590276 262.057367 
L 169.949304 253.381475 
L 176.06165 243.933772 
L 183.237318 233.900237 
L 189.307413 223.076294 
L 201.313806 218.938274 
L 212.693473 216.027712 
L 219.622676 204.450556 
L 225.763189 192.817607 
L 232.26988 181.668202 
L 237.896336 169.54241 
L 238.769528 154.459561 
L 236.572464 140.418191 
L 244.579074 128.357492 
L 251.987124 118.03569 
L 252.395553 105.798311 
L 257.620622 95.504407 
L 260.16978 84.866442 
L 246.959227 84.764154 
L 255.198218 72.545372 
L 254.374319 60.614858 
L 245.733941 54.989011 
L 237.318903 53.110629 
L 229.572842 54.003325 
L 228.17151 61.563348 
L 235.01621 66.101221 
L 237.79775 74.777113 
L 234.361316 88.037374 
L 222.573221 97.150315 
L 212.454049 104.43137 
L 202.736264 105.072995 
L 198.764648 98.368474 
L 205.306548 87.711911 
L 210.904837 76.348631 
L 217.200272 66.203509 
L 223.552041 54.617054 
L 229.777057 44.91828 
L 239.466674 47.401092 
L 250.142153 52.097047 
L 255.839029 43.71872 
L 257.754418 34.93124 
L 252.585683 31.909091 
" style="fill:none;stroke:#000000;stroke-width:3;"/>
   </g>
  </g>
 </g>
 <defs>
  <clipPath id="pef2732faea">
   <rect height="543.6" width="265.015961" x="7.2" y="7.2"/>
  </clipPath>
 </defs>
</svg>
