<?xml version="1.0" encoding="utf-8" standalone="no"?>
<!DOCTYPE svg PUBLIC "-//W3C//DTD SVG 1.1//EN"
  "http://www.w3.org/Graphics/SVG/1.1/DTD/svg11.dtd">
<svg height="558pt" version="1.1" viewBox="0 0 232.335292 558" width="232.335292pt" xmlns="http://www.w3.org/2000/svg" xmlns:xlink="http://www.w3.org/1999/xlink">
 <metadata>
  <rdf:RDF xmlns:cc="http://creativecommons.org/ns#" xmlns:dc="http://purl.org/dc/elements/1.1/" xmlns:rdf="http://www.w3.org/1999/02/22-rdf-syntax-ns#">
   <cc:Work>
    <dc:type rdf:resource="http://purl.org/dc/dcmitype/StillImage"/>
    <dc:date>2021-05-26T19:21:05.101852</dc:date>
    <dc:format>image/svg+xml</dc:format>
    <dc:creator>
     <cc:Agent>
      <dc:title>Matplotlib v3.4.2, https://matplotlib.org/</dc:title>
     </cc:Agent>
    </dc:creator>
   </cc:Work>
  </rdf:RDF>
 </metadata>
 <defs>
  <style type="text/css">*{stroke-linecap:butt;stroke-linejoin:round;}</style>
 </defs>
 <g id="figure_1">
  <g id="patch_1">
   <path d="M 0 558 
L 232.335292 558 
L 232.335292 0 
L 0 0 
z
" style="fill:none;"/>
  </g>
  <g id="axes_1">
   <g id="LineCollection_1">
    <path clip-path="url(#p257afca0c8)" d="M 141.517693 40.699153 
L 138.22873 32.239657 
L 147.91353 31.909091 
L 161.33113 40.188278 
L 172.176739 46.243654 
L 187.381077 53.876734 
L 200.662112 62.005664 
L 210.55176 55.950287 
L 215.229142 71.111267 
L 204.292489 96.775244 
L 201.709117 122.078603 
L 185.776428 132.536524 
L 178.253922 149.515619 
L 170.492426 168.222675 
L 154.810108 183.624066 
L 140.960049 200.648238 
L 141.813586 220.316942 
L 151.600809 235.823514 
L 146.229217 245.680404 
L 138.44496 258.677676 
L 130.046156 267.197275 
L 120.702772 286.234898 
L 109.401943 308.878699 
L 95.244611 333.340617 
L 82.213947 356.780783 
L 72.779519 375.172299 
L 62.207041 393.623917 
L 49.199138 413.548058 
L 38.308007 434.869594 
L 29.81816 450.210883 
L 23.536128 462.096249 
L 17.10615 479.706426 
L 35.940865 492.117693 
L 51.486617 501.268374 
L 67.203077 508.886428 
L 79.28916 519.795121 
L 77.832457 526.090909 
L 68.113517 512.252195 
L 65.64395 518.157314 
" style="fill:none;stroke:#000000;stroke-width:3;"/>
   </g>
  </g>
 </g>
 <defs>
  <clipPath id="p257afca0c8">
   <rect height="543.6" width="217.935292" x="7.2" y="7.2"/>
  </clipPath>
 </defs>
</svg>
