<?xml version="1.0" encoding="utf-8" standalone="no"?>
<!DOCTYPE svg PUBLIC "-//W3C//DTD SVG 1.1//EN"
  "http://www.w3.org/Graphics/SVG/1.1/DTD/svg11.dtd">
<svg height="558pt" version="1.1" viewBox="0 0 232.805856 558" width="232.805856pt" xmlns="http://www.w3.org/2000/svg" xmlns:xlink="http://www.w3.org/1999/xlink">
 <metadata>
  <rdf:RDF xmlns:cc="http://creativecommons.org/ns#" xmlns:dc="http://purl.org/dc/elements/1.1/" xmlns:rdf="http://www.w3.org/1999/02/22-rdf-syntax-ns#">
   <cc:Work>
    <dc:type rdf:resource="http://purl.org/dc/dcmitype/StillImage"/>
    <dc:date>2021-05-26T19:21:05.536836</dc:date>
    <dc:format>image/svg+xml</dc:format>
    <dc:creator>
     <cc:Agent>
      <dc:title>Matplotlib v3.4.2, https://matplotlib.org/</dc:title>
     </cc:Agent>
    </dc:creator>
   </cc:Work>
  </rdf:RDF>
 </metadata>
 <defs>
  <style type="text/css">*{stroke-linecap:butt;stroke-linejoin:round;}</style>
 </defs>
 <g id="figure_1">
  <g id="patch_1">
   <path d="M 0 558 
L 232.805856 558 
L 232.805856 0 
L 0 0 
z
" style="fill:none;"/>
  </g>
  <g id="axes_1">
   <g id="LineCollection_1">
    <path clip-path="url(#pd057eb1241)" d="M 137.263615 43.647305 
L 138.360644 31.909091 
L 151.022185 35.439608 
L 165.237849 42.998535 
L 180.104874 51.372196 
L 195.189019 59.14235 
L 206.639257 59.92691 
L 215.678317 63.95532 
L 202.559681 88.291745 
L 203.87383 115.1629 
L 188.721121 128.983214 
L 178.162219 145.564572 
L 171.877158 163.956452 
L 161.718215 177.580626 
L 145.36563 193.528302 
L 136.075168 214.168246 
L 148.77099 232.213109 
L 146.37124 244.388866 
L 137.892122 258.284618 
L 130.875708 268.167047 
L 120.579636 285.985595 
L 111.289174 303.547653 
L 93.485312 337.55528 
L 81.155165 356.942947 
L 68.287932 384.900415 
L 55.740666 403.141418 
L 42.953424 422.16698 
L 40.645093 426.663108 
L 30.154755 446.337441 
L 20.190078 467.807207 
L 17.127539 485.746457 
L 38.439608 496.443621 
L 56.689139 506.356226 
L 74.401582 515.36357 
L 78.51544 526.090909 
L 65.922464 511.772702 
L 62.859925 522.862146 
" style="fill:none;stroke:#000000;stroke-width:3;"/>
   </g>
  </g>
 </g>
 <defs>
  <clipPath id="pd057eb1241">
   <rect height="543.6" width="218.405856" x="7.2" y="7.2"/>
  </clipPath>
 </defs>
</svg>
