<?xml version="1.0" encoding="utf-8" standalone="no"?>
<!DOCTYPE svg PUBLIC "-//W3C//DTD SVG 1.1//EN"
  "http://www.w3.org/Graphics/SVG/1.1/DTD/svg11.dtd">
<svg height="558pt" version="1.1" viewBox="0 0 266.110314 558" width="266.110314pt" xmlns="http://www.w3.org/2000/svg" xmlns:xlink="http://www.w3.org/1999/xlink">
 <metadata>
  <rdf:RDF xmlns:cc="http://creativecommons.org/ns#" xmlns:dc="http://purl.org/dc/elements/1.1/" xmlns:rdf="http://www.w3.org/1999/02/22-rdf-syntax-ns#">
   <cc:Work>
    <dc:type rdf:resource="http://purl.org/dc/dcmitype/StillImage"/>
    <dc:date>2021-05-26T19:21:07.784833</dc:date>
    <dc:format>image/svg+xml</dc:format>
    <dc:creator>
     <cc:Agent>
      <dc:title>Matplotlib v3.4.2, https://matplotlib.org/</dc:title>
     </cc:Agent>
    </dc:creator>
   </cc:Work>
  </rdf:RDF>
 </metadata>
 <defs>
  <style type="text/css">*{stroke-linecap:butt;stroke-linejoin:round;}</style>
 </defs>
 <g id="figure_1">
  <g id="patch_1">
   <path d="M 0 558 
L 266.110314 558 
L 266.110314 0 
L 0 0 
z
" style="fill:none;"/>
  </g>
  <g id="axes_1">
   <g id="LineCollection_1">
    <path clip-path="url(#p423356343b)" d="M 41.466466 469.922719 
L 41.466466 462.57009 
L 36.59885 464.797167 
L 37.590976 471.642154 
L 32.87838 489.745341 
L 29.995015 500.479525 
L 28.451019 510.640563 
L 28.320803 518.418957 
L 22.44866 519.466993 
L 18.641378 517.280855 
L 24.879367 520.908043 
L 30.230645 524.879117 
L 37.888614 526.090909 
L 42.973257 517.657493 
L 48.454751 508.094163 
L 53.706815 499.68531 
L 46.575913 493.953862 
L 41.354852 490.63781 
L 32.283104 486.126341 
L 25.232812 481.115418 
L 29.0897 471.936914 
L 34.751017 461.939631 
L 37.876212 455.667789 
L 42.582608 446.775857 
L 48.243924 437.138837 
L 53.235556 427.796577 
L 58.617837 417.365341 
L 64.930236 407.277993 
L 71.292241 396.044355 
L 74.479444 388.593473 
L 78.832395 382.763771 
L 84.568121 372.201532 
L 90.514673 361.049771 
L 95.679927 351.977708 
L 100.44213 342.471692 
L 105.03071 335.151814 
L 108.292323 330.075389 
L 107.994686 321.077016 
L 107.734253 312.586285 
L 113.786218 300.730376 
L 121.103144 291.404491 
L 131.42125 294.2129 
L 141.007663 287.932871 
L 148.578821 278.598799 
L 155.027637 269.43667 
L 153.793681 256.5491 
L 162.226749 247.215027 
L 165.457357 238.118401 
L 167.832258 229.251032 
L 171.999185 220.645672 
L 179.192095 211.418041 
L 183.867487 201.502636 
L 192.778015 195.255358 
L 204.144053 195.24717 
L 210.76029 185.863971 
L 216.328595 175.8585 
L 222.070522 165.410889 
L 227.936464 153.84974 
L 229.604475 140.438152 
L 227.198571 127.992722 
L 234.211658 115.842052 
L 241.342561 106.532543 
L 241.882029 95.004145 
L 247.468936 85.506317 
L 246.445806 77.531417 
L 237.963133 74.870387 
L 245.534291 62.122009 
L 240.840297 52.837064 
L 241.305356 46.475156 
L 246.110964 37.886172 
L 244.678583 32.187476 
L 243.215198 31.909091 
L 245.453681 35.814663 
L 242.055651 41.644365 
L 238.366184 49.234439 
L 230.156345 49.218064 
L 222.324754 48.890552 
L 219.751428 56.390561 
L 226.175441 60.19788 
L 228.599948 68.189156 
L 225.896406 79.561987 
L 215.156647 87.725206 
L 206.8848 94.488315 
L 200.200354 99.63843 
L 195.890809 108.579489 
L 190.632543 117.045656 
L 184.016306 124.930491 
L 182.174673 134.616638 
L 173.344756 139.381928 
L 164.831078 149.190892 
L 164.762869 162.717109 
L 164.483834 172.853584 
L 157.582361 181.303376 
L 151.797029 191.644545 
L 146.489157 204.139102 
L 137.380204 213.546864 
L 129.970266 219.695889 
L 128.165838 214.463896 
L 122.690545 210.296315 
L 113.829624 205.989541 
L 107.920276 204.73681 
L 102.556597 212.212256 
L 97.087505 210.296315 
L 90.632488 206.832882 
L 88.797056 205.8831 
" style="fill:none;stroke:#000000;stroke-width:3;"/>
   </g>
  </g>
 </g>
 <defs>
  <clipPath id="p423356343b">
   <rect height="543.6" width="251.710314" x="7.2" y="7.2"/>
  </clipPath>
 </defs>
</svg>
