<?xml version="1.0" encoding="utf-8" standalone="no"?>
<!DOCTYPE svg PUBLIC "-//W3C//DTD SVG 1.1//EN"
  "http://www.w3.org/Graphics/SVG/1.1/DTD/svg11.dtd">
<svg height="558pt" version="1.1" viewBox="0 0 265.511403 558" width="265.511403pt" xmlns="http://www.w3.org/2000/svg" xmlns:xlink="http://www.w3.org/1999/xlink">
 <metadata>
  <rdf:RDF xmlns:cc="http://creativecommons.org/ns#" xmlns:dc="http://purl.org/dc/elements/1.1/" xmlns:rdf="http://www.w3.org/1999/02/22-rdf-syntax-ns#">
   <cc:Work>
    <dc:type rdf:resource="http://purl.org/dc/dcmitype/StillImage"/>
    <dc:date>2021-05-26T19:21:08.019512</dc:date>
    <dc:format>image/svg+xml</dc:format>
    <dc:creator>
     <cc:Agent>
      <dc:title>Matplotlib v3.4.2, https://matplotlib.org/</dc:title>
     </cc:Agent>
    </dc:creator>
   </cc:Work>
  </rdf:RDF>
 </metadata>
 <defs>
  <style type="text/css">*{stroke-linecap:butt;stroke-linejoin:round;}</style>
 </defs>
 <g id="figure_1">
  <g id="patch_1">
   <path d="M 0 558 
L 265.511403 558 
L 265.511403 0 
L 0 0 
z
" style="fill:none;"/>
  </g>
  <g id="axes_1">
   <g id="LineCollection_1">
    <path clip-path="url(#p68eb1d2efc)" d="M 40.876012 466.506907 
L 42.696087 465.100891 
L 40.547904 470.70043 
L 33.007597 492.526372 
L 30.258914 504.739089 
L 27.621664 521.439613 
L 18.614155 517.434103 
L 22.588602 521.055411 
L 32.995216 526.090909 
L 41.383652 520.033597 
L 50.224012 505.491144 
L 56.272353 494.880631 
L 56.643797 488.831493 
L 46.224801 480.518017 
L 35.06911 473.929362 
L 32.270901 467.030075 
L 34.976249 460.416897 
L 41.891292 447.69736 
L 49.580176 433.710773 
L 56.433312 421.375438 
L 61.782101 411.794912 
L 68.263793 400.612183 
L 78.515639 381.402085 
L 85.474017 368.388265 
L 89.281314 362.715155 
L 101.167512 341.657618 
L 106.801075 331.27599 
L 108.416855 322.120539 
L 109.890248 309.801553 
L 117.114827 295.144657 
L 130.480609 293.378963 
L 142.385379 284.305257 
L 154.160144 271.675639 
L 153.293442 258.939753 
L 164.07769 245.713396 
L 166.244445 234.473445 
L 170.503665 222.326123 
L 180.32216 209.206035 
L 187.255775 198.088702 
L 202.268291 196.077772 
L 211.591527 183.791484 
L 220.369979 168.407056 
L 228.3684 153.194293 
L 228.219822 135.283942 
L 233.011446 117.676048 
L 240.836526 102.406064 
L 245.758155 87.225999 
L 245.454809 78.520146 
L 239.666478 72.904258 
L 244.44572 58.059348 
L 240.415556 48.258111 
L 246.897249 36.135312 
L 241.455599 31.909091 
L 244.328097 38.996391 
L 238.756441 49.239052 
L 229.327963 50.285389 
L 219.670427 53.465273 
L 224.821113 60.102975 
L 228.684127 67.435511 
L 225.700196 81.021546 
L 213.083492 92.335068 
L 199.643422 100.934652 
L 192.926482 115.517978 
L 183.764205 127.57538 
L 176.948213 138.480176 
L 164.740098 149.842744 
L 165.996816 168.496976 
L 158.796999 181.069372 
L 151.41146 196.134994 
L 139.735747 211.568468 
L 130.010114 219.473219 
L 126.054239 213.121625 
L 114.787114 206.958045 
L 106.448203 208.012557 
L 97.904999 211.069823 
L 88.761293 206.238688 
L 88.550809 205.985278 
" style="fill:none;stroke:#000000;stroke-width:3;"/>
   </g>
  </g>
 </g>
 <defs>
  <clipPath id="p68eb1d2efc">
   <rect height="543.6" width="251.111403" x="7.2" y="7.2"/>
  </clipPath>
 </defs>
</svg>
