<?xml version="1.0" encoding="utf-8" standalone="no"?>
<!DOCTYPE svg PUBLIC "-//W3C//DTD SVG 1.1//EN"
  "http://www.w3.org/Graphics/SVG/1.1/DTD/svg11.dtd">
<svg height="558pt" version="1.1" viewBox="0 0 165.402719 558" width="165.402719pt" xmlns="http://www.w3.org/2000/svg" xmlns:xlink="http://www.w3.org/1999/xlink">
 <metadata>
  <rdf:RDF xmlns:cc="http://creativecommons.org/ns#" xmlns:dc="http://purl.org/dc/elements/1.1/" xmlns:rdf="http://www.w3.org/1999/02/22-rdf-syntax-ns#">
   <cc:Work>
    <dc:type rdf:resource="http://purl.org/dc/dcmitype/StillImage"/>
    <dc:date>2021-05-26T19:21:08.239676</dc:date>
    <dc:format>image/svg+xml</dc:format>
    <dc:creator>
     <cc:Agent>
      <dc:title>Matplotlib v3.4.2, https://matplotlib.org/</dc:title>
     </cc:Agent>
    </dc:creator>
   </cc:Work>
  </rdf:RDF>
 </metadata>
 <defs>
  <style type="text/css">*{stroke-linecap:butt;stroke-linejoin:round;}</style>
 </defs>
 <g id="figure_1">
  <g id="patch_1">
   <path d="M 0 558 
L 165.402719 558 
L 165.402719 0 
L 0 0 
z
" style="fill:none;"/>
  </g>
  <g id="axes_1">
   <g id="LineCollection_1">
    <path clip-path="url(#p9e0b6dcf43)" d="M 29.713721 526.090909 
L 14.06376 519.306834 
L 14.898581 502.820135 
L 33.20586 470.85581 
L 48.068032 443.300357 
L 54.993522 429.328578 
L 63.741509 420.852366 
L 75.252637 394.197317 
L 92.195982 362.434806 
L 109.738989 333.513224 
L 116.676236 319.15334 
L 129.11625 297.388413 
L 144.401711 271.090421 
L 151.338959 255.178117 
L 141.144732 238.924281 
L 127.752317 230.89827 
L 117.946105 237.418434 
L 98.192586 228.352302 
L 89.338777 211.679312 
L 100.109148 189.246845 
L 115.335819 164.330506 
L 105.823559 145.918806 
L 85.834879 133.794407 
L 82.001756 111.17565 
L 82.954157 81.508906 
L 93.265965 47.961112 
L 108.363297 31.909091 
L 109.327457 32.141954 
" style="fill:none;stroke:#000000;stroke-width:3;"/>
   </g>
  </g>
 </g>
 <defs>
  <clipPath id="p9e0b6dcf43">
   <rect height="543.6" width="151.002719" x="7.2" y="7.2"/>
  </clipPath>
 </defs>
</svg>
