<?xml version="1.0" encoding="utf-8" standalone="no"?>
<!DOCTYPE svg PUBLIC "-//W3C//DTD SVG 1.1//EN"
  "http://www.w3.org/Graphics/SVG/1.1/DTD/svg11.dtd">
<svg height="558pt" version="1.1" viewBox="0 0 295.931334 558" width="295.931334pt" xmlns="http://www.w3.org/2000/svg" xmlns:xlink="http://www.w3.org/1999/xlink">
 <metadata>
  <rdf:RDF xmlns:cc="http://creativecommons.org/ns#" xmlns:dc="http://purl.org/dc/elements/1.1/" xmlns:rdf="http://www.w3.org/1999/02/22-rdf-syntax-ns#">
   <cc:Work>
    <dc:type rdf:resource="http://purl.org/dc/dcmitype/StillImage"/>
    <dc:date>2021-05-26T19:21:09.253225</dc:date>
    <dc:format>image/svg+xml</dc:format>
    <dc:creator>
     <cc:Agent>
      <dc:title>Matplotlib v3.4.2, https://matplotlib.org/</dc:title>
     </cc:Agent>
    </dc:creator>
   </cc:Work>
  </rdf:RDF>
 </metadata>
 <defs>
  <style type="text/css">*{stroke-linecap:butt;stroke-linejoin:round;}</style>
 </defs>
 <g id="figure_1">
  <g id="patch_1">
   <path d="M -0 558 
L 295.931334 558 
L 295.931334 0 
L -0 0 
z
" style="fill:none;"/>
  </g>
  <g id="axes_1">
   <g id="LineCollection_1">
    <path clip-path="url(#p3bf949c3db)" d="M 33.245291 526.090909 
L 19.996879 520.075069 
L 29.365556 506.180421 
L 36.096308 493.285177 
L 41.44564 481.971518 
L 53.033408 461.362415 
L 61.086797 444.333708 
L 72.681913 425.577873 
L 73.923722 420.144211 
L 85.856846 399.719465 
L 94.924256 385.077688 
L 102.566158 370.775514 
L 108.09184 362.023438 
L 105.086516 345.411958 
L 114.264146 329.731964 
L 127.924045 317.836126 
L 143.501768 318.612363 
L 155.251192 304.067616 
L 163.694024 290.231184 
L 165.001964 271.203666 
L 174.730693 256.998522 
L 178.867607 243.259121 
L 185.782059 231.440907 
L 195.297696 215.634773 
L 209.582174 204.709232 
L 226.306182 198.528442 
L 234.550618 183.663497 
L 243.008146 168.226076 
L 250.885183 151.139151 
L 248.195822 126.930248 
L 261.150315 105.971839 
L 265.346013 87.536201 
L 275.934455 72.341355 
L 261.973289 68.615416 
L 269.387403 48.850471 
L 263.428189 36.003743 
L 250.797008 31.909091 
L 240.120389 33.742952 
L 245.102321 43.979582 
L 251.010099 55.749281 
L 240.046909 70.992642 
L 226.820541 84.159569 
L 215.372384 93.22214 
L 209.986313 104.89481 
L 197.641703 118.973815 
L 193.394569 134.362721 
L 181.777408 140.397966 
L 172.84961 156.999743 
L 175.803499 174.164292 
L 167.360667 186.681119 
L 159.167666 203.632203 
L 147.139019 220.457148 
L 132.964761 234.827242 
L 131.091025 227.55972 
L 124.463145 230.218333 
L 117.218035 243.938328 
L 110.391759 255.620701 
L 103.499351 268.622677 
L 97.025779 280.324455 
L 86.554904 275.405051 
L 76.686563 269.25337 
L 67.795505 265.779707 
L 67.37667 252.040306 
L 68.383343 235.487044 
L 75.092051 223.115761 
L 83.792062 215.634773 
" style="fill:none;stroke:#000000;stroke-width:3;"/>
   </g>
  </g>
 </g>
 <defs>
  <clipPath id="p3bf949c3db">
   <rect height="543.6" width="281.531334" x="7.2" y="7.2"/>
  </clipPath>
 </defs>
</svg>
