<?xml version="1.0" encoding="utf-8" standalone="no"?>
<!DOCTYPE svg PUBLIC "-//W3C//DTD SVG 1.1//EN"
  "http://www.w3.org/Graphics/SVG/1.1/DTD/svg11.dtd">
<svg height="558pt" version="1.1" viewBox="0 0 178.466412 558" width="178.466412pt" xmlns="http://www.w3.org/2000/svg" xmlns:xlink="http://www.w3.org/1999/xlink">
 <metadata>
  <rdf:RDF xmlns:cc="http://creativecommons.org/ns#" xmlns:dc="http://purl.org/dc/elements/1.1/" xmlns:rdf="http://www.w3.org/1999/02/22-rdf-syntax-ns#">
   <cc:Work>
    <dc:type rdf:resource="http://purl.org/dc/dcmitype/StillImage"/>
    <dc:date>2021-05-26T19:21:09.911645</dc:date>
    <dc:format>image/svg+xml</dc:format>
    <dc:creator>
     <cc:Agent>
      <dc:title>Matplotlib v3.4.2, https://matplotlib.org/</dc:title>
     </cc:Agent>
    </dc:creator>
   </cc:Work>
  </rdf:RDF>
 </metadata>
 <defs>
  <style type="text/css">*{stroke-linecap:butt;stroke-linejoin:round;}</style>
 </defs>
 <g id="figure_1">
  <g id="patch_1">
   <path d="M 0 558 
L 178.466412 558 
L 178.466412 0 
L 0 0 
z
" style="fill:none;"/>
  </g>
  <g id="axes_1">
   <g id="LineCollection_1">
    <path clip-path="url(#pb54a5b9cec)" d="M 28.931404 526.090909 
L 18.220278 524.588698 
L 14.657564 505.788303 
L 26.230637 482.147451 
L 40.29761 457.398908 
L 52.7786 434.000837 
L 62.305986 418.493167 
L 75.0628 393.774972 
L 90.359483 367.949086 
L 104.725264 344.29306 
L 116.666101 325.932706 
L 126.710655 305.448014 
L 140.180011 282.960374 
L 147.960518 266.860923 
L 139.950159 243.993937 
L 122.182561 236.46771 
L 109.839482 243.644939 
L 89.669926 231.809339 
L 94.014138 205.10337 
L 109.701571 177.062102 
L 121.619422 156.850539 
L 136.329982 131.91991 
L 149.914264 106.458197 
L 163.808848 80.966135 
L 155.28132 69.570577 
L 135.835799 59.055101 
L 125.377511 51.695786 
L 106.41468 42.257654 
L 90.106645 31.954612 
L 86.486469 31.909091 
" style="fill:none;stroke:#000000;stroke-width:3;"/>
   </g>
  </g>
 </g>
 <defs>
  <clipPath id="pb54a5b9cec">
   <rect height="543.6" width="164.066412" x="7.2" y="7.2"/>
  </clipPath>
 </defs>
</svg>
