<?xml version="1.0" encoding="utf-8" standalone="no"?>
<!DOCTYPE svg PUBLIC "-//W3C//DTD SVG 1.1//EN"
  "http://www.w3.org/Graphics/SVG/1.1/DTD/svg11.dtd">
<svg height="558pt" version="1.1" viewBox="0 0 219.612154 558" width="219.612154pt" xmlns="http://www.w3.org/2000/svg" xmlns:xlink="http://www.w3.org/1999/xlink">
 <metadata>
  <rdf:RDF xmlns:cc="http://creativecommons.org/ns#" xmlns:dc="http://purl.org/dc/elements/1.1/" xmlns:rdf="http://www.w3.org/1999/02/22-rdf-syntax-ns#">
   <cc:Work>
    <dc:type rdf:resource="http://purl.org/dc/dcmitype/StillImage"/>
    <dc:date>2021-05-26T19:21:11.119740</dc:date>
    <dc:format>image/svg+xml</dc:format>
    <dc:creator>
     <cc:Agent>
      <dc:title>Matplotlib v3.4.2, https://matplotlib.org/</dc:title>
     </cc:Agent>
    </dc:creator>
   </cc:Work>
  </rdf:RDF>
 </metadata>
 <defs>
  <style type="text/css">*{stroke-linecap:butt;stroke-linejoin:round;}</style>
 </defs>
 <g id="figure_1">
  <g id="patch_1">
   <path d="M 0 558 
L 219.612154 558 
L 219.612154 0 
L 0 0 
z
" style="fill:none;"/>
  </g>
  <g id="axes_1">
   <g id="LineCollection_1">
    <path clip-path="url(#pba69e0a4bd)" d="M 166.877095 51.316155 
L 149.037926 43.227453 
L 131.364036 31.909091 
L 117.006755 49.163047 
L 102.307896 75.247654 
L 87.080143 102.801611 
L 73.207682 128.115172 
L 58.784289 155.247236 
L 43.710797 179.644272 
L 29.794261 205.787071 
L 16.527825 231.18792 
L 22.213441 249.358402 
L 41.870685 260.269419 
L 54.828599 270.016595 
L 75.058813 279.778319 
L 99.409995 291.125778 
L 121.943103 306.284819 
L 135.749452 310.285525 
L 162.216213 323.756995 
L 183.250787 341.258268 
L 203.084329 349.056008 
L 196.53926 357.639342 
L 180.485109 387.346407 
L 165.819307 415.569573 
L 151.957864 439.864772 
L 138.922819 465.993023 
L 128.642433 481.297544 
L 114.62673 505.709128 
L 99.553238 526.090909 
L 89.482205 514.190626 
L 90.57305 515.005315 
" style="fill:none;stroke:#000000;stroke-width:3;"/>
   </g>
  </g>
 </g>
 <defs>
  <clipPath id="pba69e0a4bd">
   <rect height="543.6" width="205.212154" x="7.2" y="7.2"/>
  </clipPath>
 </defs>
</svg>
