<?xml version="1.0" encoding="utf-8" standalone="no"?>
<!DOCTYPE svg PUBLIC "-//W3C//DTD SVG 1.1//EN"
  "http://www.w3.org/Graphics/SVG/1.1/DTD/svg11.dtd">
<svg height="558pt" version="1.1" viewBox="0 0 294.314115 558" width="294.314115pt" xmlns="http://www.w3.org/2000/svg" xmlns:xlink="http://www.w3.org/1999/xlink">
 <metadata>
  <rdf:RDF xmlns:cc="http://creativecommons.org/ns#" xmlns:dc="http://purl.org/dc/elements/1.1/" xmlns:rdf="http://www.w3.org/1999/02/22-rdf-syntax-ns#">
   <cc:Work>
    <dc:type rdf:resource="http://purl.org/dc/dcmitype/StillImage"/>
    <dc:date>2021-05-26T19:21:11.646446</dc:date>
    <dc:format>image/svg+xml</dc:format>
    <dc:creator>
     <cc:Agent>
      <dc:title>Matplotlib v3.4.2, https://matplotlib.org/</dc:title>
     </cc:Agent>
    </dc:creator>
   </cc:Work>
  </rdf:RDF>
 </metadata>
 <defs>
  <style type="text/css">*{stroke-linecap:butt;stroke-linejoin:round;}</style>
 </defs>
 <g id="figure_1">
  <g id="patch_1">
   <path d="M 0 558 
L 294.314115 558 
L 294.314115 0 
L 0 0 
z
" style="fill:none;"/>
  </g>
  <g id="axes_1">
   <g id="LineCollection_1">
    <path clip-path="url(#pe892eb9d76)" d="M 32.769254 526.090909 
L 19.923369 518.912427 
L 25.168833 506.841727 
L 33.642276 490.343812 
L 38.652978 480.365625 
L 47.68398 464.526464 
L 58.270281 446.962918 
L 69.707594 425.834349 
L 76.354294 411.380509 
L 80.022451 404.880157 
L 90.080537 388.420992 
L 96.998681 376.389042 
L 103.498655 363.814589 
L 103.990188 353.458587 
L 108.685428 335.400975 
L 120.687638 318.079618 
L 138.85235 319.823378 
L 152.233787 303.528902 
L 161.125399 287.389427 
L 165.006309 268.217746 
L 172.540703 254.006095 
L 176.759083 240.240072 
L 187.536128 225.660294 
L 196.435077 209.094566 
L 215.868972 205.287355 
L 228.164634 189.690383 
L 238.574863 170.751203 
L 247.987353 151.395458 
L 245.309599 125.607173 
L 258.294874 106.338616 
L 263.01946 85.093796 
L 274.390746 67.820876 
L 259.145886 61.204273 
L 263.929163 39.097261 
L 247.958008 31.909091 
L 237.210308 34.766921 
L 242.815252 44.648233 
L 248.684303 57.513312 
L 233.98233 73.429974 
L 218.913542 86.934433 
L 209.625769 100.28389 
L 200.345332 114.020851 
L 194.857769 128.959068 
L 181.190217 139.63476 
L 170.266446 158.825816 
L 172.056506 178.065311 
L 161.697631 189.719446 
L 155.76989 208.95894 
L 137.986665 229.176878 
L 130.312881 230.174697 
L 123.724872 222.996215 
L 108.934863 215.255854 
L 99.045512 225.447168 
L 85.495341 218.840251 
L 81.438359 216.66055 
" style="fill:none;stroke:#000000;stroke-width:3;"/>
   </g>
  </g>
 </g>
 <defs>
  <clipPath id="pe892eb9d76">
   <rect height="543.6" width="279.914115" x="7.2" y="7.2"/>
  </clipPath>
 </defs>
</svg>
