<?xml version="1.0" encoding="utf-8" standalone="no"?>
<!DOCTYPE svg PUBLIC "-//W3C//DTD SVG 1.1//EN"
  "http://www.w3.org/Graphics/SVG/1.1/DTD/svg11.dtd">
<svg height="558pt" version="1.1" viewBox="0 0 291.702874 558" width="291.702874pt" xmlns="http://www.w3.org/2000/svg" xmlns:xlink="http://www.w3.org/1999/xlink">
 <metadata>
  <rdf:RDF xmlns:cc="http://creativecommons.org/ns#" xmlns:dc="http://purl.org/dc/elements/1.1/" xmlns:rdf="http://www.w3.org/1999/02/22-rdf-syntax-ns#">
   <cc:Work>
    <dc:type rdf:resource="http://purl.org/dc/dcmitype/StillImage"/>
    <dc:date>2021-05-26T19:21:12.354293</dc:date>
    <dc:format>image/svg+xml</dc:format>
    <dc:creator>
     <cc:Agent>
      <dc:title>Matplotlib v3.4.2, https://matplotlib.org/</dc:title>
     </cc:Agent>
    </dc:creator>
   </cc:Work>
  </rdf:RDF>
 </metadata>
 <defs>
  <style type="text/css">*{stroke-linecap:butt;stroke-linejoin:round;}</style>
 </defs>
 <g id="figure_1">
  <g id="patch_1">
   <path d="M -0 558 
L 291.702874 558 
L 291.702874 0 
L -0 0 
z
" style="fill:none;"/>
  </g>
  <g id="axes_1">
   <g id="LineCollection_1">
    <path clip-path="url(#p11a302fb04)" d="M 32.265154 526.090909 
L 19.804676 517.912364 
L 28.772111 501.032001 
L 35.956332 487.233129 
L 44.292671 471.350859 
L 48.864448 462.222672 
L 58.103401 448.084641 
L 64.590481 435.342003 
L 69.411761 424.382364 
L 73.535901 415.089444 
L 80.720122 405.563958 
L 90.281961 388.86771 
L 100.621663 368.993069 
L 107.057375 358.00436 
L 104.679757 342.693813 
L 115.232271 323.100189 
L 131.031687 319.805515 
L 145.290055 311.161839 
L 159.453024 295.473373 
L 161.206884 273.088966 
L 172.647335 255.404315 
L 176.910903 241.770176 
L 187.551476 226.653434 
L 196.159332 210.567669 
L 217.146945 204.87951 
L 230.260534 187.446805 
L 240.020508 169.597421 
L 248.43023 148.589025 
L 245.847139 126.669748 
L 257.757243 107.211787 
L 263.363724 88.112364 
L 271.898197 73.703008 
L 262.28499 69.37148 
L 264.941464 53.92527 
L 261.037475 35.8627 
L 248.863191 31.909091 
L 237.620876 35.194075 
L 241.23867 43.285409 
L 248.129359 49.554981 
L 246.647017 66.73574 
L 231.280562 80.553993 
L 216.391098 89.507756 
L 209.735236 101.378275 
L 201.685092 113.723615 
L 195.814431 127.474036 
L 186.032442 136.980142 
L 175.032291 146.554079 
L 172.280419 164.490675 
L 169.587253 182.330369 
L 157.508368 195.896677 
L 151.681737 214.773225 
L 137.034438 230.364788 
L 130.576711 229.221342 
L 120.310392 220.965275 
L 107.350908 214.298404 
L 101.201391 220.548595 
L 91.11853 221.895536 
L 82.202464 216.720959 
L 82.239156 216.488393 
" style="fill:none;stroke:#000000;stroke-width:3;"/>
   </g>
  </g>
 </g>
 <defs>
  <clipPath id="p11a302fb04">
   <rect height="543.6" width="277.302874" x="7.2" y="7.2"/>
  </clipPath>
 </defs>
</svg>
