<?xml version="1.0" encoding="utf-8" standalone="no"?>
<!DOCTYPE svg PUBLIC "-//W3C//DTD SVG 1.1//EN"
  "http://www.w3.org/Graphics/SVG/1.1/DTD/svg11.dtd">
<svg height="558pt" version="1.1" viewBox="0 0 226.594426 558" width="226.594426pt" xmlns="http://www.w3.org/2000/svg" xmlns:xlink="http://www.w3.org/1999/xlink">
 <metadata>
  <rdf:RDF xmlns:cc="http://creativecommons.org/ns#" xmlns:dc="http://purl.org/dc/elements/1.1/" xmlns:rdf="http://www.w3.org/1999/02/22-rdf-syntax-ns#">
   <cc:Work>
    <dc:type rdf:resource="http://purl.org/dc/dcmitype/StillImage"/>
    <dc:date>2021-05-26T19:21:12.440035</dc:date>
    <dc:format>image/svg+xml</dc:format>
    <dc:creator>
     <cc:Agent>
      <dc:title>Matplotlib v3.4.2, https://matplotlib.org/</dc:title>
     </cc:Agent>
    </dc:creator>
   </cc:Work>
  </rdf:RDF>
 </metadata>
 <defs>
  <style type="text/css">*{stroke-linecap:butt;stroke-linejoin:round;}</style>
 </defs>
 <g id="figure_1">
  <g id="patch_1">
   <path d="M 0 558 
L 226.594426 558 
L 226.594426 0 
L 0 0 
z
" style="fill:none;"/>
  </g>
  <g id="axes_1">
   <g id="LineCollection_1">
    <path clip-path="url(#p9fa20e5072)" d="M 135.860216 39.315371 
L 137.245564 31.909091 
L 159.524684 40.994528 
L 175.830911 49.120447 
L 195.600507 61.054454 
L 209.749225 57.081449 
L 198.053254 91.324252 
L 193.14776 123.618034 
L 176.625782 138.2207 
L 165.872303 165.731884 
L 143.207102 190.004694 
L 136.223586 218.025622 
L 143.956553 239.19499 
L 136.337139 256.856121 
L 134.349959 261.143967 
L 120.167176 285.686642 
L 102.895748 316.541147 
L 87.656921 348.595049 
L 75.995016 364.532045 
L 65.048496 385.896316 
L 54.385859 408.295067 
L 39.567179 432.313005 
L 25.00967 458.279964 
L 16.845201 482.552774 
L 40.123589 496.210915 
L 61.823588 509.524229 
L 75.76791 526.090909 
L 57.747031 517.710118 
L 58.825786 517.500223 
" style="fill:none;stroke:#000000;stroke-width:3;"/>
   </g>
  </g>
 </g>
 <defs>
  <clipPath id="p9fa20e5072">
   <rect height="543.6" width="212.194426" x="7.2" y="7.2"/>
  </clipPath>
 </defs>
</svg>
