<?xml version="1.0" encoding="utf-8" standalone="no"?>
<!DOCTYPE svg PUBLIC "-//W3C//DTD SVG 1.1//EN"
  "http://www.w3.org/Graphics/SVG/1.1/DTD/svg11.dtd">
<svg height="558pt" version="1.1" viewBox="0 0 294.109087 558" width="294.109087pt" xmlns="http://www.w3.org/2000/svg" xmlns:xlink="http://www.w3.org/1999/xlink">
 <metadata>
  <rdf:RDF xmlns:cc="http://creativecommons.org/ns#" xmlns:dc="http://purl.org/dc/elements/1.1/" xmlns:rdf="http://www.w3.org/1999/02/22-rdf-syntax-ns#">
   <cc:Work>
    <dc:type rdf:resource="http://purl.org/dc/dcmitype/StillImage"/>
    <dc:date>2021-05-26T19:21:13.331163</dc:date>
    <dc:format>image/svg+xml</dc:format>
    <dc:creator>
     <cc:Agent>
      <dc:title>Matplotlib v3.4.2, https://matplotlib.org/</dc:title>
     </cc:Agent>
    </dc:creator>
   </cc:Work>
  </rdf:RDF>
 </metadata>
 <defs>
  <style type="text/css">*{stroke-linecap:butt;stroke-linejoin:round;}</style>
 </defs>
 <g id="figure_1">
  <g id="patch_1">
   <path d="M 0 558 
L 294.109087 558 
L 294.109087 0 
L 0 0 
z
" style="fill:none;"/>
  </g>
  <g id="axes_1">
   <g id="LineCollection_1">
    <path clip-path="url(#p119aedb95e)" d="M 31.401588 526.090909 
L 19.914049 520.356436 
L 22.224761 510.950737 
L 31.49695 495.442473 
L 36.917953 482.64646 
L 41.444014 476.137058 
L 47.231797 466.082356 
L 58.895389 446.311983 
L 64.668501 430.309702 
L 74.204771 414.559273 
L 85.105462 398.673232 
L 88.10572 393.87836 
L 99.783983 373.458984 
L 105.571766 359.394026 
L 100.070072 347.837899 
L 110.743359 330.363253 
L 122.971792 317.605987 
L 139.821649 319.010546 
L 150.634313 304.625929 
L 160.706081 288.894873 
L 163.339559 269.715384 
L 171.636115 256.996864 
L 175.003152 244.675495 
L 183.600466 230.378058 
L 193.496181 213.242443 
L 210.360709 204.941018 
L 224.489061 196.164949 
L 234.230728 178.457824 
L 244.009073 160.934745 
L 248.234374 140.360384 
L 248.300395 118.701123 
L 261.570482 102.107959 
L 263.250333 83.945564 
L 274.195037 69.60938 
L 257.623933 68.369494 
L 266.228583 49.616215 
L 257.469886 34.698835 
L 245.89432 31.909091 
L 237.054931 33.885159 
L 236.35805 40.995132 
L 244.375853 45.092568 
L 248.432435 56.745561 
L 237.091609 71.982599 
L 223.960898 85.059524 
L 210.998905 97.003115 
L 206.641563 107.793999 
L 195.381428 119.292006 
L 190.121808 135.362093 
L 176.235531 143.97349 
L 170.022284 159.985458 
L 172.817145 176.229904 
L 163.500942 188.590019 
L 156.458773 204.04985 
L 144.648469 220.22649 
L 130.336727 235.599141 
L 129.030992 228.440735 
L 120.683087 222.115379 
L 107.699088 215.780335 
L 99.879346 223.733043 
L 87.937001 220.817373 
L 81.085558 216.826489 
" style="fill:none;stroke:#000000;stroke-width:3;"/>
   </g>
  </g>
 </g>
 <defs>
  <clipPath id="p119aedb95e">
   <rect height="543.6" width="279.709087" x="7.2" y="7.2"/>
  </clipPath>
 </defs>
</svg>
