<?xml version="1.0" encoding="utf-8" standalone="no"?>
<!DOCTYPE svg PUBLIC "-//W3C//DTD SVG 1.1//EN"
  "http://www.w3.org/Graphics/SVG/1.1/DTD/svg11.dtd">
<svg height="558pt" version="1.1" viewBox="0 0 231.57085 558" width="231.57085pt" xmlns="http://www.w3.org/2000/svg" xmlns:xlink="http://www.w3.org/1999/xlink">
 <metadata>
  <rdf:RDF xmlns:cc="http://creativecommons.org/ns#" xmlns:dc="http://purl.org/dc/elements/1.1/" xmlns:rdf="http://www.w3.org/1999/02/22-rdf-syntax-ns#">
   <cc:Work>
    <dc:type rdf:resource="http://purl.org/dc/dcmitype/StillImage"/>
    <dc:date>2021-05-26T19:21:13.624286</dc:date>
    <dc:format>image/svg+xml</dc:format>
    <dc:creator>
     <cc:Agent>
      <dc:title>Matplotlib v3.4.2, https://matplotlib.org/</dc:title>
     </cc:Agent>
    </dc:creator>
   </cc:Work>
  </rdf:RDF>
 </metadata>
 <defs>
  <style type="text/css">*{stroke-linecap:butt;stroke-linejoin:round;}</style>
 </defs>
 <g id="figure_1">
  <g id="patch_1">
   <path d="M 0 558 
L 231.57085 558 
L 231.57085 0 
L 0 0 
z
" style="fill:none;"/>
  </g>
  <g id="axes_1">
   <g id="LineCollection_1">
    <path clip-path="url(#pfc13145d43)" d="M 155.242723 32.531981 
L 164.810328 38.406314 
L 172.606693 42.546137 
L 185.324784 49.024194 
L 189.237485 56.987604 
L 182.355778 68.458364 
L 175.154667 81.855292 
L 165.804837 98.951229 
L 159.249793 110.872386 
L 150.698473 126.406306 
L 139.272517 127.26877 
L 136.071216 137.934564 
L 135.505 152.251453 
L 138.067492 164.594259 
L 135.896996 177.904941 
L 131.889926 191.579774 
L 126.663313 205.197109 
L 119.948567 217.099101 
L 118.264436 226.605362 
L 114.605807 240.903085 
L 105.822194 257.682785 
L 98.766266 270.016009 
L 91.492563 282.598388 
L 83.521979 298.266469 
L 75.580431 313.369158 
L 68.161544 326.104864 
L 60.5394 339.568872 
L 55.356342 347.877268 
L 48.278637 361.140035 
L 40.729085 374.508214 
L 32.214061 390.492532 
L 24.345105 404.368606 
L 17.071402 417.688871 
L 94.033278 477.936715 
L 102.7443 485.698884 
L 114.250107 491.573216 
L 124.158894 497.275056 
L 136.005884 498.769992 
L 143.540917 485.478476 
L 151.576835 470.778271 
L 158.734391 458.004233 
L 167.28571 451.890327 
L 183.335768 460.850361 
L 191.698348 469.369581 
L 194.398765 483.705635 
L 195.306163 495.109315 
L 202.855715 506.647156 
L 210.91341 515.434697 
L 207.813738 516.028839 
L 214.499447 526.090909 
L 211.726439 516.575065 
L 203.872001 507.921685 
L 197.491178 498.386675 
L 193.222777 487.644217 
L 180.098171 481.003251 
L 169.60865 474.831848 
L 155.511313 467.673403 
L 154.066735 460.074144 
L 142.132636 453.979404 
L 129.71943 446.686799 
L 116.936006 439.269616 
L 106.279523 433.002383 
L 100.646395 424.320254 
L 109.270307 412.370348 
L 115.91972 398.983002 
L 121.407663 386.994764 
L 129.62506 373.367846 
L 137.087502 362.932042 
L 144.41202 348.902641 
L 148.934492 339.549707 
L 157.957658 324.868667 
L 164.570775 312.343785 
L 176.475838 312.602524 
L 178.755222 309.229334 
L 168.998878 303.565826 
L 156.505821 295.429924 
L 144.05632 287.476096 
L 128.303889 279.215616 
L 127.011754 269.211043 
L 134.009608 254.175435 
L 140.368654 242.484267 
L 147.388285 230.198959 
L 154.56036 216.811613 
L 163.438343 201.43102 
L 169.07147 190.35316 
L 177.506642 174.110103 
L 173.441499 163.501806 
L 180.889422 152.788097 
L 178.501151 142.860187 
L 172.570397 136.497126 
L 165.057141 130.239476 
L 156.716338 127.393348 
L 156.716338 117.484604 
L 163.293159 105.381371 
L 171.089523 90.738663 
L 160.229783 83.551469 
L 147.228583 76.632598 
L 137.9949 67.624649 
L 139.323331 51.247432 
L 148.557014 34.467732 
L 154.117549 31.909091 
" style="fill:none;stroke:#000000;stroke-width:3;"/>
   </g>
  </g>
 </g>
 <defs>
  <clipPath id="pfc13145d43">
   <rect height="543.6" width="217.17085" x="7.2" y="7.2"/>
  </clipPath>
 </defs>
</svg>
