<?xml version="1.0" encoding="utf-8" standalone="no"?>
<!DOCTYPE svg PUBLIC "-//W3C//DTD SVG 1.1//EN"
  "http://www.w3.org/Graphics/SVG/1.1/DTD/svg11.dtd">
<svg height="558pt" version="1.1" viewBox="0 0 177.352754 558" width="177.352754pt" xmlns="http://www.w3.org/2000/svg" xmlns:xlink="http://www.w3.org/1999/xlink">
 <metadata>
  <rdf:RDF xmlns:cc="http://creativecommons.org/ns#" xmlns:dc="http://purl.org/dc/elements/1.1/" xmlns:rdf="http://www.w3.org/1999/02/22-rdf-syntax-ns#">
   <cc:Work>
    <dc:type rdf:resource="http://purl.org/dc/dcmitype/StillImage"/>
    <dc:date>2021-05-26T19:21:13.705506</dc:date>
    <dc:format>image/svg+xml</dc:format>
    <dc:creator>
     <cc:Agent>
      <dc:title>Matplotlib v3.4.2, https://matplotlib.org/</dc:title>
     </cc:Agent>
    </dc:creator>
   </cc:Work>
  </rdf:RDF>
 </metadata>
 <defs>
  <style type="text/css">*{stroke-linecap:butt;stroke-linejoin:round;}</style>
 </defs>
 <g id="figure_1">
  <g id="patch_1">
   <path d="M 0 558 
L 177.352754 558 
L 177.352754 0 
L 0 0 
z
" style="fill:none;"/>
  </g>
  <g id="axes_1">
   <g id="LineCollection_1">
    <path clip-path="url(#p3133961d3b)" d="M 142.28931 31.909091 
L 157.408829 39.64334 
L 162.74581 53.384624 
L 151.875039 72.857812 
L 137.936371 98.139329 
L 124.113472 123.115144 
L 115.835941 141.885219 
L 112.339697 166.585903 
L 113.613163 195.168996 
L 112.536505 222.941981 
L 114.458282 246.710275 
L 105.578748 279.970602 
L 95.425748 309.715362 
L 95.784634 325.917543 
L 83.13101 353.583532 
L 75.825944 367.431812 
L 63.172319 390.283002 
L 48.840034 416.007786 
L 32.632281 445.446844 
L 14.606943 476.918817 
L 33.419514 489.162164 
L 45.772138 496.957553 
L 72.966433 512.548331 
L 76.520562 526.090909 
L 58.610994 514.688242 
L 62.674509 518.32609 
" style="fill:none;stroke:#000000;stroke-width:3;"/>
   </g>
  </g>
 </g>
 <defs>
  <clipPath id="p3133961d3b">
   <rect height="543.6" width="162.952754" x="7.2" y="7.2"/>
  </clipPath>
 </defs>
</svg>
