<?xml version="1.0" encoding="utf-8" standalone="no"?>
<!DOCTYPE svg PUBLIC "-//W3C//DTD SVG 1.1//EN"
  "http://www.w3.org/Graphics/SVG/1.1/DTD/svg11.dtd">
<svg height="558pt" version="1.1" viewBox="0 0 293.293042 558" width="293.293042pt" xmlns="http://www.w3.org/2000/svg" xmlns:xlink="http://www.w3.org/1999/xlink">
 <metadata>
  <rdf:RDF xmlns:cc="http://creativecommons.org/ns#" xmlns:dc="http://purl.org/dc/elements/1.1/" xmlns:rdf="http://www.w3.org/1999/02/22-rdf-syntax-ns#">
   <cc:Work>
    <dc:type rdf:resource="http://purl.org/dc/dcmitype/StillImage"/>
    <dc:date>2021-05-26T19:21:14.603705</dc:date>
    <dc:format>image/svg+xml</dc:format>
    <dc:creator>
     <cc:Agent>
      <dc:title>Matplotlib v3.4.2, https://matplotlib.org/</dc:title>
     </cc:Agent>
    </dc:creator>
   </cc:Work>
  </rdf:RDF>
 </metadata>
 <defs>
  <style type="text/css">*{stroke-linecap:butt;stroke-linejoin:round;}</style>
 </defs>
 <g id="figure_1">
  <g id="patch_1">
   <path d="M 0 558 
L 293.293042 558 
L 293.293042 0 
L 0 0 
z
" style="fill:none;"/>
  </g>
  <g id="axes_1">
   <g id="LineCollection_1">
    <path clip-path="url(#p1d113d7407)" d="M 31.824746 526.090909 
L 19.876956 520.377545 
L 20.616372 513.088414 
L 31.422094 493.676511 
L 41.634819 477.203461 
L 49.080225 463.002223 
L 57.265046 448.027602 
L 60.259315 442.884608 
L 66.138037 427.929322 
L 77.346411 406.777307 
L 87.500569 388.3418 
L 94.719025 378.800192 
L 104.346074 361.814776 
L 100.30491 349.353649 
L 109.514664 334.717383 
L 120.627866 318.766367 
L 139.105943 320.148788 
L 150.409489 305.406182 
L 160.753991 290.972929 
L 162.064441 271.909048 
L 171.823267 257.17611 
L 176.040134 242.829862 
L 186.49445 227.661896 
L 196.004364 210.869826 
L 215.836816 205.949179 
L 227.850495 190.616869 
L 237.455581 173.46711 
L 247.060667 153.90053 
L 245.025443 130.824726 
L 256.431482 109.015337 
L 262.03933 90.676502 
L 273.416086 73.207722 
L 256.856098 66.411622 
L 267.376302 47.415412 
L 254.989255 34.412917 
L 242.30205 31.909091 
L 235.844972 38.105819 
L 244.022473 45.597963 
L 248.832337 60.8336 
L 233.246035 75.083175 
L 219.826734 87.19628 
L 210.016661 99.783082 
L 204.665047 111.499828 
L 195.081924 121.389458 
L 191.113969 135.252342 
L 179.202784 141.690752 
L 170.036955 158.289476 
L 173.243531 174.598182 
L 164.619453 188.035705 
L 156.698185 203.329346 
L 144.274533 221.687515 
L 130.789344 236.004761 
L 127.692582 227.391212 
L 116.550097 220.295427 
L 103.789682 217.482247 
L 93.781943 224.259012 
L 82.017177 216.631526 
L 82.075745 217.134225 
" style="fill:none;stroke:#000000;stroke-width:3;"/>
   </g>
  </g>
 </g>
 <defs>
  <clipPath id="p1d113d7407">
   <rect height="543.6" width="278.893042" x="7.2" y="7.2"/>
  </clipPath>
 </defs>
</svg>
