<?xml version="1.0" encoding="utf-8" standalone="no"?>
<!DOCTYPE svg PUBLIC "-//W3C//DTD SVG 1.1//EN"
  "http://www.w3.org/Graphics/SVG/1.1/DTD/svg11.dtd">
<svg height="558pt" version="1.1" viewBox="0 0 173.905857 558" width="173.905857pt" xmlns="http://www.w3.org/2000/svg" xmlns:xlink="http://www.w3.org/1999/xlink">
 <metadata>
  <rdf:RDF xmlns:cc="http://creativecommons.org/ns#" xmlns:dc="http://purl.org/dc/elements/1.1/" xmlns:rdf="http://www.w3.org/1999/02/22-rdf-syntax-ns#">
   <cc:Work>
    <dc:type rdf:resource="http://purl.org/dc/dcmitype/StillImage"/>
    <dc:date>2021-05-26T19:21:15.787670</dc:date>
    <dc:format>image/svg+xml</dc:format>
    <dc:creator>
     <cc:Agent>
      <dc:title>Matplotlib v3.4.2, https://matplotlib.org/</dc:title>
     </cc:Agent>
    </dc:creator>
   </cc:Work>
  </rdf:RDF>
 </metadata>
 <defs>
  <style type="text/css">*{stroke-linecap:butt;stroke-linejoin:round;}</style>
 </defs>
 <g id="figure_1">
  <g id="patch_1">
   <path d="M 0 558 
L 173.905857 558 
L 173.905857 0 
L 0 0 
z
" style="fill:none;"/>
  </g>
  <g id="axes_1">
   <g id="LineCollection_1">
    <path clip-path="url(#p9f1f97536e)" d="M 138.957939 31.909091 
L 159.455591 44.238141 
L 156.573468 63.492769 
L 141.148351 90.525353 
L 124.547328 120.054189 
L 108.661072 150.298415 
L 108.937755 175.078284 
L 110.194361 202.263078 
L 115.601221 228.793368 
L 123.117796 252.218563 
L 127.371808 265.81096 
L 112.223374 296.024744 
L 94.319632 328.217264 
L 77.822366 358.080963 
L 69.902294 373.591213 
L 54.627048 398.797271 
L 41.058017 425.677645 
L 26.555179 451.172903 
L 14.450266 474.948182 
L 23.534715 485.146286 
L 46.534049 498.647357 
L 69.752424 511.570028 
L 74.525218 526.090909 
L 55.168886 513.563985 
L 58.50062 515.055648 
" style="fill:none;stroke:#000000;stroke-width:3;"/>
   </g>
  </g>
 </g>
 <defs>
  <clipPath id="p9f1f97536e">
   <rect height="543.6" width="159.505857" x="7.2" y="7.2"/>
  </clipPath>
 </defs>
</svg>
