<?xml version="1.0" encoding="utf-8" standalone="no"?>
<!DOCTYPE svg PUBLIC "-//W3C//DTD SVG 1.1//EN"
  "http://www.w3.org/Graphics/SVG/1.1/DTD/svg11.dtd">
<svg height="558pt" version="1.1" viewBox="0 0 224.409182 558" width="224.409182pt" xmlns="http://www.w3.org/2000/svg" xmlns:xlink="http://www.w3.org/1999/xlink">
 <metadata>
  <rdf:RDF xmlns:cc="http://creativecommons.org/ns#" xmlns:dc="http://purl.org/dc/elements/1.1/" xmlns:rdf="http://www.w3.org/1999/02/22-rdf-syntax-ns#">
   <cc:Work>
    <dc:type rdf:resource="http://purl.org/dc/dcmitype/StillImage"/>
    <dc:date>2021-05-26T19:21:17.584692</dc:date>
    <dc:format>image/svg+xml</dc:format>
    <dc:creator>
     <cc:Agent>
      <dc:title>Matplotlib v3.4.2, https://matplotlib.org/</dc:title>
     </cc:Agent>
    </dc:creator>
   </cc:Work>
  </rdf:RDF>
 </metadata>
 <defs>
  <style type="text/css">*{stroke-linecap:butt;stroke-linejoin:round;}</style>
 </defs>
 <g id="figure_1">
  <g id="patch_1">
   <path d="M 0 558 
L 224.409182 558 
L 224.409182 0 
L 0 0 
z
" style="fill:none;"/>
  </g>
  <g id="axes_1">
   <g id="LineCollection_1">
    <path clip-path="url(#p43746bcf12)" d="M 131.902422 45.674102 
L 135.034626 31.909091 
L 154.370614 43.449605 
L 172.994223 53.795757 
L 191.663063 64.559936 
L 207.663311 61.08136 
L 195.982565 99.748799 
L 189.46939 128.294028 
L 172.688918 147.732255 
L 158.62227 177.113537 
L 137.680603 198.567247 
L 139.071438 227.052759 
L 140.51881 246.998588 
L 128.182223 269.03455 
L 114.296496 294.534159 
L 100.003696 321.959674 
L 83.765989 350.042089 
L 70.276028 376.974931 
L 56.265917 400.354548 
L 42.787264 422.032202 
L 31.592745 445.964211 
L 16.745872 473.31508 
L 26.470404 491.827676 
L 39.485446 500.009049 
L 69.009577 518.760518 
L 66.499291 526.090909 
L 57.023526 515.95377 
L 57.441907 517.999113 
" style="fill:none;stroke:#000000;stroke-width:3;"/>
   </g>
  </g>
 </g>
 <defs>
  <clipPath id="p43746bcf12">
   <rect height="543.6" width="210.009182" x="7.2" y="7.2"/>
  </clipPath>
 </defs>
</svg>
