<?xml version="1.0" encoding="utf-8" standalone="no"?>
<!DOCTYPE svg PUBLIC "-//W3C//DTD SVG 1.1//EN"
  "http://www.w3.org/Graphics/SVG/1.1/DTD/svg11.dtd">
<svg height="558pt" version="1.1" viewBox="0 0 289.369714 558" width="289.369714pt" xmlns="http://www.w3.org/2000/svg" xmlns:xlink="http://www.w3.org/1999/xlink">
 <metadata>
  <rdf:RDF xmlns:cc="http://creativecommons.org/ns#" xmlns:dc="http://purl.org/dc/elements/1.1/" xmlns:rdf="http://www.w3.org/1999/02/22-rdf-syntax-ns#">
   <cc:Work>
    <dc:type rdf:resource="http://purl.org/dc/dcmitype/StillImage"/>
    <dc:date>2021-05-26T19:21:17.688169</dc:date>
    <dc:format>image/svg+xml</dc:format>
    <dc:creator>
     <cc:Agent>
      <dc:title>Matplotlib v3.4.2, https://matplotlib.org/</dc:title>
     </cc:Agent>
    </dc:creator>
   </cc:Work>
  </rdf:RDF>
 </metadata>
 <defs>
  <style type="text/css">*{stroke-linecap:butt;stroke-linejoin:round;}</style>
 </defs>
 <g id="figure_1">
  <g id="patch_1">
   <path d="M 0 558 
L 289.369714 558 
L 289.369714 0 
L 0 0 
z
" style="fill:none;"/>
  </g>
  <g id="axes_1">
   <g id="LineCollection_1">
    <path clip-path="url(#p904eb98883)" d="M 32.323421 526.090909 
L 19.698623 517.70214 
L 27.247093 503.74346 
L 34.861585 492.322722 
L 42.307355 478.538405 
L 49.05623 465.761515 
L 56.509336 452.480912 
L 66.397905 433.843507 
L 75.508887 417.705297 
L 85.456142 401.722076 
L 93.085305 388.296171 
L 97.802182 378.502816 
L 106.340976 359.448879 
L 101.792821 347.669729 
L 111.762083 331.764003 
L 122.706998 318.134674 
L 138.676891 320.69199 
L 149.643813 306.384585 
L 160.691428 294.247024 
L 162.092553 272.868255 
L 173.118161 260.866309 
L 175.70034 247.517898 
L 180.70331 234.363223 
L 192.645885 217.372575 
L 205.659477 204.711926 
L 222.238235 201.922128 
L 232.640306 183.381592 
L 242.638911 166.003471 
L 248.500162 148.741593 
L 246.042691 128.903025 
L 256.62082 109.422869 
L 263.252323 91.957568 
L 269.67109 75.548128 
L 268.240622 66.30692 
L 263.061594 57.947211 
L 264.448048 38.902961 
L 249.644537 31.909091 
L 240.108083 32.877771 
L 240.819649 43.300768 
L 248.815599 51.534549 
L 243.834636 69.522938 
L 225.950116 84.721528 
L 213.347326 94.427702 
L 207.59611 108.05703 
L 196.159701 120.649871 
L 192.161726 134.918528 
L 179.977072 141.214949 
L 171.196199 158.19591 
L 174.335893 173.597923 
L 166.295929 187.11101 
L 157.485712 201.069689 
L 145.26438 221.460405 
L 129.081751 237.966713 
L 118.965774 251.925392 
L 110.639716 256.991589 
L 117.97545 242.461388 
L 115.400607 235.506265 
L 101.448041 227.437161 
L 92.447096 222.661568 
L 82.08904 217.188526 
" style="fill:none;stroke:#000000;stroke-width:3;"/>
   </g>
  </g>
 </g>
 <defs>
  <clipPath id="p904eb98883">
   <rect height="543.6" width="274.969714" x="7.2" y="7.2"/>
  </clipPath>
 </defs>
</svg>
