<?xml version="1.0" encoding="utf-8" standalone="no"?>
<!DOCTYPE svg PUBLIC "-//W3C//DTD SVG 1.1//EN"
  "http://www.w3.org/Graphics/SVG/1.1/DTD/svg11.dtd">
<svg height="558pt" version="1.1" viewBox="0 0 174.176228 558" width="174.176228pt" xmlns="http://www.w3.org/2000/svg" xmlns:xlink="http://www.w3.org/1999/xlink">
 <metadata>
  <rdf:RDF xmlns:cc="http://creativecommons.org/ns#" xmlns:dc="http://purl.org/dc/elements/1.1/" xmlns:rdf="http://www.w3.org/1999/02/22-rdf-syntax-ns#">
   <cc:Work>
    <dc:type rdf:resource="http://purl.org/dc/dcmitype/StillImage"/>
    <dc:date>2021-05-26T19:21:17.771202</dc:date>
    <dc:format>image/svg+xml</dc:format>
    <dc:creator>
     <cc:Agent>
      <dc:title>Matplotlib v3.4.2, https://matplotlib.org/</dc:title>
     </cc:Agent>
    </dc:creator>
   </cc:Work>
  </rdf:RDF>
 </metadata>
 <defs>
  <style type="text/css">*{stroke-linecap:butt;stroke-linejoin:round;}</style>
 </defs>
 <g id="figure_1">
  <g id="patch_1">
   <path d="M 0 558 
L 174.176228 558 
L 174.176228 0 
L 0 0 
z
" style="fill:none;"/>
  </g>
  <g id="axes_1">
   <g id="LineCollection_1">
    <path clip-path="url(#p52622c0206)" d="M 136.535056 31.909091 
L 153.17552 41.855369 
L 159.713672 54.276758 
L 151.080997 73.695682 
L 134.590968 102.235846 
L 119.258135 130.745455 
L 108.970671 155.756295 
L 107.466318 177.298925 
L 108.044915 200.949982 
L 111.192486 228.313706 
L 112.083526 242.797687 
L 105.337079 275.738049 
L 99.4701 305.50049 
L 94.436302 328.54041 
L 77.795838 360.10571 
L 64.129365 385.574904 
L 53.193872 402.39649 
L 47.650908 414.8026 
L 31.322887 445.741483 
L 14.462556 475.85533 
L 28.522475 491.668537 
L 47.060739 502.928762 
L 74.90285 520.040639 
L 67.635666 526.090909 
L 58.181383 517.733591 
" style="fill:none;stroke:#000000;stroke-width:3;"/>
   </g>
  </g>
 </g>
 <defs>
  <clipPath id="p52622c0206">
   <rect height="543.6" width="159.776228" x="7.2" y="7.2"/>
  </clipPath>
 </defs>
</svg>
