<?xml version="1.0" encoding="utf-8" standalone="no"?>
<!DOCTYPE svg PUBLIC "-//W3C//DTD SVG 1.1//EN"
  "http://www.w3.org/Graphics/SVG/1.1/DTD/svg11.dtd">
<svg height="558pt" version="1.1" viewBox="0 0 174.514083 558" width="174.514083pt" xmlns="http://www.w3.org/2000/svg" xmlns:xlink="http://www.w3.org/1999/xlink">
 <metadata>
  <rdf:RDF xmlns:cc="http://creativecommons.org/ns#" xmlns:dc="http://purl.org/dc/elements/1.1/" xmlns:rdf="http://www.w3.org/1999/02/22-rdf-syntax-ns#">
   <cc:Work>
    <dc:type rdf:resource="http://purl.org/dc/dcmitype/StillImage"/>
    <dc:date>2021-05-26T19:21:18.070168</dc:date>
    <dc:format>image/svg+xml</dc:format>
    <dc:creator>
     <cc:Agent>
      <dc:title>Matplotlib v3.4.2, https://matplotlib.org/</dc:title>
     </cc:Agent>
    </dc:creator>
   </cc:Work>
  </rdf:RDF>
 </metadata>
 <defs>
  <style type="text/css">*{stroke-linecap:butt;stroke-linejoin:round;}</style>
 </defs>
 <g id="figure_1">
  <g id="patch_1">
   <path d="M 0 558 
L 174.514083 558 
L 174.514083 0 
L 0 0 
z
" style="fill:none;"/>
  </g>
  <g id="axes_1">
   <g id="LineCollection_1">
    <path clip-path="url(#p67ee51e3d8)" d="M 140.501025 31.909091 
L 160.03617 45.133955 
L 157.604409 66.11027 
L 145.885638 88.676628 
L 138.520877 101.748603 
L 122.297558 129.880105 
L 111.412533 156.910809 
L 111.238836 174.370687 
L 110.694584 208.6636 
L 116.58871 234.593506 
L 129.905495 255.4628 
L 125.991518 276.699027 
L 120.989039 288.823092 
L 104.10567 318.070681 
L 91.032061 345.04023 
L 74.28765 373.508087 
L 57.740097 404.605628 
L 41.563097 430.352068 
L 34.869965 443.255866 
L 26.115626 463.559472 
L 14.477913 485.590719 
L 41.597836 499.289538 
L 67.015527 513.2024 
L 81.050261 526.090909 
L 64.166893 520.051809 
L 60.843487 517.75848 
" style="fill:none;stroke:#000000;stroke-width:3;"/>
   </g>
  </g>
 </g>
 <defs>
  <clipPath id="p67ee51e3d8">
   <rect height="543.6" width="160.114083" x="7.2" y="7.2"/>
  </clipPath>
 </defs>
</svg>
