<?xml version="1.0" encoding="utf-8" standalone="no"?>
<!DOCTYPE svg PUBLIC "-//W3C//DTD SVG 1.1//EN"
  "http://www.w3.org/Graphics/SVG/1.1/DTD/svg11.dtd">
<svg height="558pt" version="1.1" viewBox="0 0 175.527851 558" width="175.527851pt" xmlns="http://www.w3.org/2000/svg" xmlns:xlink="http://www.w3.org/1999/xlink">
 <metadata>
  <rdf:RDF xmlns:cc="http://creativecommons.org/ns#" xmlns:dc="http://purl.org/dc/elements/1.1/" xmlns:rdf="http://www.w3.org/1999/02/22-rdf-syntax-ns#">
   <cc:Work>
    <dc:type rdf:resource="http://purl.org/dc/dcmitype/StillImage"/>
    <dc:date>2021-05-26T19:21:20.274152</dc:date>
    <dc:format>image/svg+xml</dc:format>
    <dc:creator>
     <cc:Agent>
      <dc:title>Matplotlib v3.4.2, https://matplotlib.org/</dc:title>
     </cc:Agent>
    </dc:creator>
   </cc:Work>
  </rdf:RDF>
 </metadata>
 <defs>
  <style type="text/css">*{stroke-linecap:butt;stroke-linejoin:round;}</style>
 </defs>
 <g id="figure_1">
  <g id="patch_1">
   <path d="M 0 558 
L 175.527851 558 
L 175.527851 0 
L 0 0 
z
" style="fill:none;"/>
  </g>
  <g id="axes_1">
   <g id="LineCollection_1">
    <path clip-path="url(#pe68df99b45)" d="M 136.56149 31.909091 
L 149.96237 38.492248 
L 161.003857 46.287689 
L 153.600249 62.078059 
L 143.941853 80.615248 
L 130.273653 105.367306 
L 119.255411 124.426237 
L 105.482608 151.955804 
L 106.923812 170.492994 
L 105.76155 201.720791 
L 102.867518 219.966419 
L 105.44774 220.334707 
L 112.432934 230.938348 
L 111.200936 261.613713 
L 116.907642 280.979551 
L 105.482608 302.954099 
L 92.337426 329.194657 
L 76.391193 359.593805 
L 59.061868 389.287068 
L 44.719557 416.463692 
L 28.041099 445.497104 
L 14.523993 468.745317 
L 18.6384 487.205779 
L 40.965451 499.512754 
L 63.187898 512.387507 
L 74.055047 526.090909 
L 61.537486 519.860695 
L 55.447234 517.789072 
" style="fill:none;stroke:#000000;stroke-width:3;"/>
   </g>
  </g>
 </g>
 <defs>
  <clipPath id="pe68df99b45">
   <rect height="543.6" width="161.127851" x="7.2" y="7.2"/>
  </clipPath>
 </defs>
</svg>
