<?xml version="1.0" encoding="utf-8" standalone="no"?>
<!DOCTYPE svg PUBLIC "-//W3C//DTD SVG 1.1//EN"
  "http://www.w3.org/Graphics/SVG/1.1/DTD/svg11.dtd">
<svg height="558pt" version="1.1" viewBox="0 0 399.733813 558" width="399.733813pt" xmlns="http://www.w3.org/2000/svg" xmlns:xlink="http://www.w3.org/1999/xlink">
 <metadata>
  <rdf:RDF xmlns:cc="http://creativecommons.org/ns#" xmlns:dc="http://purl.org/dc/elements/1.1/" xmlns:rdf="http://www.w3.org/1999/02/22-rdf-syntax-ns#">
   <cc:Work>
    <dc:type rdf:resource="http://purl.org/dc/dcmitype/StillImage"/>
    <dc:date>2021-05-26T19:21:20.549573</dc:date>
    <dc:format>image/svg+xml</dc:format>
    <dc:creator>
     <cc:Agent>
      <dc:title>Matplotlib v3.4.2, https://matplotlib.org/</dc:title>
     </cc:Agent>
    </dc:creator>
   </cc:Work>
  </rdf:RDF>
 </metadata>
 <defs>
  <style type="text/css">*{stroke-linecap:butt;stroke-linejoin:round;}</style>
 </defs>
 <g id="figure_1">
  <g id="patch_1">
   <path d="M 0 558 
L 399.733813 558 
L 399.733813 0 
L 0 0 
z
" style="fill:none;"/>
  </g>
  <g id="axes_1">
   <g id="LineCollection_1">
    <path clip-path="url(#pc78f1174b3)" d="M 28.23535 256.463692 
L 40.372306 266.306905 
L 56.99366 272.431121 
L 70.462161 281.122253 
L 85.216292 290.460167 
L 98.868454 297.190742 
L 96.511467 311.884819 
L 92.30256 326.073597 
L 85.017325 339.757078 
L 81.573675 353.763949 
L 91.047541 372.763168 
L 84.986715 390.468823 
L 76.691343 410.882878 
L 65.105371 435.581863 
L 51.682785 445.26338 
L 39.545829 457.936263 
L 28.572062 470.892114 
L 24.715173 484.393687 
L 33.377868 506.808723 
L 51.147106 518.208254 
L 63.039181 526.090909 
L 74.104779 515.883882 
L 85.843802 500.078148 
L 95.225837 484.979833 
L 104.715008 473.822844 
L 118.918155 469.861305 
L 134.437541 470.609147 
L 152.926119 458.441562 
L 166.011993 447.345209 
L 177.812236 436.976486 
L 187.622815 417.714512 
L 194.357065 398.836564 
L 189.612479 383.23295 
L 194.800913 367.568701 
L 208.437771 361.444484 
L 215.661785 345.093028 
L 219.227876 331.53082 
L 223.788801 314.370887 
L 228.824183 301.313977 
L 236.767538 289.813385 
L 248.307594 277.928767 
L 255.317337 260.10184 
L 264.576931 244.599286 
L 276.147598 233.705053 
L 290.917034 234.998617 
L 305.104875 235.807094 
L 322.659842 223.43739 
L 331.154181 209.854969 
L 340.276029 194.332203 
L 344.913479 180.689147 
L 352.581341 165.125956 
L 362.682717 149.300011 
L 369.983257 134.484663 
L 372.768788 121.811779 
L 372.875923 106.612404 
L 375.018639 90.341796 
L 366.294724 74.940301 
L 370.090392 67.017223 
L 358.535031 71.504272 
L 344.760428 73.202075 
L 334.322339 64.389671 
L 321.894586 57.598461 
L 308.885239 50.787038 
L 299.120575 40.35768 
L 288.406995 31.909091 
L 274.678307 42.944808 
L 265.510543 55.354936 
L 265.189136 70.23092 
L 259.03648 83.611221 
L 245.675115 88.482298 
L 233.354497 97.153218 
L 219.258487 113.888701 
L 213.855781 127.107306 
L 215.003665 141.316297 
L 218.141213 155.201896 
L 219.09013 170.583179 
L 212.019167 182.548645 
L 200.463806 179.718974 
L 184.867894 182.488009 
L 175.592994 194.978985 
L 165.843636 204.923257 
L 167.756776 218.546102 
L 154.686208 223.720357 
L 145.809241 232.936999 
L 139.228042 248.641673 
L 130.595957 259.818873 
L 124.443301 271.764127 
L 117.326423 284.982733 
L 108.34232 296.907775 
L 97.383858 297.049258 
L 79.492179 286.458204 
L 68.518412 278.656397 
" style="fill:none;stroke:#000000;stroke-width:3;"/>
   </g>
  </g>
 </g>
 <defs>
  <clipPath id="pc78f1174b3">
   <rect height="543.6" width="385.333813" x="7.2" y="7.2"/>
  </clipPath>
 </defs>
</svg>
