<?xml version="1.0" encoding="utf-8" standalone="no"?>
<!DOCTYPE svg PUBLIC "-//W3C//DTD SVG 1.1//EN"
  "http://www.w3.org/Graphics/SVG/1.1/DTD/svg11.dtd">
<svg height="558pt" version="1.1" viewBox="0 0 290.717151 558" width="290.717151pt" xmlns="http://www.w3.org/2000/svg" xmlns:xlink="http://www.w3.org/1999/xlink">
 <metadata>
  <rdf:RDF xmlns:cc="http://creativecommons.org/ns#" xmlns:dc="http://purl.org/dc/elements/1.1/" xmlns:rdf="http://www.w3.org/1999/02/22-rdf-syntax-ns#">
   <cc:Work>
    <dc:type rdf:resource="http://purl.org/dc/dcmitype/StillImage"/>
    <dc:date>2021-05-26T19:21:21.871094</dc:date>
    <dc:format>image/svg+xml</dc:format>
    <dc:creator>
     <cc:Agent>
      <dc:title>Matplotlib v3.4.2, https://matplotlib.org/</dc:title>
     </cc:Agent>
    </dc:creator>
   </cc:Work>
  </rdf:RDF>
 </metadata>
 <defs>
  <style type="text/css">*{stroke-linecap:butt;stroke-linejoin:round;}</style>
 </defs>
 <g id="figure_1">
  <g id="patch_1">
   <path d="M 0 558 
L 290.717151 558 
L 290.717151 0 
L 0 0 
z
" style="fill:none;"/>
  </g>
  <g id="axes_1">
   <g id="LineCollection_1">
    <path clip-path="url(#p8163f6da07)" d="M 31.041565 526.090909 
L 25.217335 522.4392 
L 19.75987 515.591035 
L 25.81883 505.139591 
L 34.973286 487.994963 
L 41.949158 474.695768 
L 49.636555 459.052505 
L 56.487727 449.327529 
L 65.642183 432.134469 
L 74.994693 414.302117 
L 83.063525 400.712335 
L 90.12742 391.064849 
L 93.89043 380.535916 
L 103.675723 363.546267 
L 99.986066 350.334248 
L 108.744416 334.322908 
L 120.253505 318.398744 
L 136.266469 321.275555 
L 148.369717 305.874448 
L 160.062188 288.85574 
L 161.624607 270.83935 
L 170.933105 257.753252 
L 174.835486 243.950373 
L 183.711201 229.827848 
L 192.139462 214.358938 
L 206.472642 204.798628 
L 221.223934 200.875704 
L 230.099649 184.631895 
L 238.975364 168.804593 
L 246.890155 150.226402 
L 244.161423 129.51724 
L 256.081288 108.100984 
L 261.502076 88.466994 
L 270.95728 73.966706 
L 259.147444 69.830685 
L 265.213739 51.136259 
L 257.915114 35.444565 
L 244.469505 31.909091 
L 235.227025 36.771579 
L 243.72864 45.237345 
L 248.423233 60.270375 
L 232.564311 74.412272 
L 219.448791 86.491002 
L 209.289398 99.96455 
L 202.05679 112.808492 
L 194.274035 126.776037 
L 184.30536 137.624616 
L 171.916035 149.790522 
L 171.835347 168.688359 
L 167.309466 183.488919 
L 155.675677 197.640503 
L 150.122854 215.521285 
L 133.14163 233.469871 
L 118.713092 249.481211 
L 108.913128 257.443293 
L 114.583317 246.081344 
L 114.994094 235.775194 
L 100.704926 228.287738 
L 85.931628 220.800281 
L 80.129404 217.390728 
" style="fill:none;stroke:#000000;stroke-width:3;"/>
   </g>
  </g>
 </g>
 <defs>
  <clipPath id="p8163f6da07">
   <rect height="543.6" width="276.317151" x="7.2" y="7.2"/>
  </clipPath>
 </defs>
</svg>
