<?xml version="1.0" encoding="utf-8" standalone="no"?>
<!DOCTYPE svg PUBLIC "-//W3C//DTD SVG 1.1//EN"
  "http://www.w3.org/Graphics/SVG/1.1/DTD/svg11.dtd">
<svg height="558pt" version="1.1" viewBox="0 0 291.358235 558" width="291.358235pt" xmlns="http://www.w3.org/2000/svg" xmlns:xlink="http://www.w3.org/1999/xlink">
 <metadata>
  <rdf:RDF xmlns:cc="http://creativecommons.org/ns#" xmlns:dc="http://purl.org/dc/elements/1.1/" xmlns:rdf="http://www.w3.org/1999/02/22-rdf-syntax-ns#">
   <cc:Work>
    <dc:type rdf:resource="http://purl.org/dc/dcmitype/StillImage"/>
    <dc:date>2021-05-26T19:21:22.251103</dc:date>
    <dc:format>image/svg+xml</dc:format>
    <dc:creator>
     <cc:Agent>
      <dc:title>Matplotlib v3.4.2, https://matplotlib.org/</dc:title>
     </cc:Agent>
    </dc:creator>
   </cc:Work>
  </rdf:RDF>
 </metadata>
 <defs>
  <style type="text/css">*{stroke-linecap:butt;stroke-linejoin:round;}</style>
 </defs>
 <g id="figure_1">
  <g id="patch_1">
   <path d="M 0 558 
L 291.358235 558 
L 291.358235 0 
L 0 0 
z
" style="fill:none;"/>
  </g>
  <g id="axes_1">
   <g id="LineCollection_1">
    <path clip-path="url(#p3b3512af76)" d="M 30.565139 526.090909 
L 19.789011 520.05049 
L 21.365111 511.764273 
L 31.466815 494.010861 
L 40.608198 476.276809 
L 48.356748 461.921132 
L 53.30497 453.809159 
L 62.409699 436.733358 
L 71.734349 419.018666 
L 80.971031 401.758942 
L 86.791606 390.452515 
L 95.295218 377.026134 
L 103.307673 362.457494 
L 100.34607 352.254606 
L 108.783706 333.910704 
L 118.841426 319.66151 
L 134.565777 322.342914 
L 145.107323 309.584464 
L 157.672142 297.416503 
L 158.229276 275.916869 
L 171.058 263.632747 
L 173.279202 250.061163 
L 177.721606 237.564078 
L 188.439089 223.285842 
L 196.72278 209.114089 
L 214.968892 206.297163 
L 225.979603 193.325749 
L 234.490545 177.256684 
L 244.203722 159.687195 
L 247.473214 139.513743 
L 248.250269 117.859226 
L 260.243293 103.735874 
L 262.222582 84.201312 
L 271.569225 67.009349 
L 256.658581 64.308584 
L 266.217814 45.529075 
L 252.362791 34.193609 
L 241.923875 31.909091 
L 235.384891 40.311469 
L 246.395602 49.023613 
L 247.11401 65.25724 
L 229.351725 81.239183 
L 215.416064 89.922286 
L 208.547199 101.05447 
L 201.22383 113.83228 
L 193.900461 126.484248 
L 186.694383 137.238905 
L 174.334823 145.960729 
L 169.650506 163.452777 
L 171.571149 177.527729 
L 161.161556 190.3733 
L 154.571256 210.643554 
L 141.317351 223.992494 
L 127.667588 238.135207 
L 116.759507 252.336001 
L 108.329202 258.182817 
L 114.223085 244.533792 
L 101.768226 237.418875 
L 96.929964 228.638971 
L 87.165472 221.31109 
L 81.403542 217.206702 
" style="fill:none;stroke:#000000;stroke-width:3;"/>
   </g>
  </g>
 </g>
 <defs>
  <clipPath id="p3b3512af76">
   <rect height="543.6" width="276.958235" x="7.2" y="7.2"/>
  </clipPath>
 </defs>
</svg>
