<?xml version="1.0" encoding="utf-8" standalone="no"?>
<!DOCTYPE svg PUBLIC "-//W3C//DTD SVG 1.1//EN"
  "http://www.w3.org/Graphics/SVG/1.1/DTD/svg11.dtd">
<svg height="558pt" version="1.1" viewBox="0 0 177.334442 558" width="177.334442pt" xmlns="http://www.w3.org/2000/svg" xmlns:xlink="http://www.w3.org/1999/xlink">
 <metadata>
  <rdf:RDF xmlns:cc="http://creativecommons.org/ns#" xmlns:dc="http://purl.org/dc/elements/1.1/" xmlns:rdf="http://www.w3.org/1999/02/22-rdf-syntax-ns#">
   <cc:Work>
    <dc:type rdf:resource="http://purl.org/dc/dcmitype/StillImage"/>
    <dc:date>2021-05-26T19:21:22.543344</dc:date>
    <dc:format>image/svg+xml</dc:format>
    <dc:creator>
     <cc:Agent>
      <dc:title>Matplotlib v3.4.2, https://matplotlib.org/</dc:title>
     </cc:Agent>
    </dc:creator>
   </cc:Work>
  </rdf:RDF>
 </metadata>
 <defs>
  <style type="text/css">*{stroke-linecap:butt;stroke-linejoin:round;}</style>
 </defs>
 <g id="figure_1">
  <g id="patch_1">
   <path d="M 0 558 
L 177.334442 558 
L 177.334442 0 
L 0 0 
z
" style="fill:none;"/>
  </g>
  <g id="axes_1">
   <g id="LineCollection_1">
    <path clip-path="url(#p458f8218cd)" d="M 139.69586 31.909091 
L 156.84844 39.611063 
L 162.728331 53.499113 
L 154.239021 69.867718 
L 144.798723 87.047863 
L 129.292976 114.471784 
L 115.051347 141.084166 
L 109.252638 164.90975 
L 108.394429 185.412615 
L 107.397051 218.823556 
L 115.225308 243.123815 
L 109.345417 273.579526 
L 97.318895 305.612381 
L 94.384748 325.99275 
L 82.83372 354.366019 
L 66.249413 388.710997 
L 55.544996 401.037215 
L 42.961798 422.79567 
L 29.149273 454.338539 
L 14.606111 482.175886 
L 43.031382 496.707043 
L 63.257279 509.079197 
L 78.507883 526.090909 
L 57.029465 519.567966 
L 59.511313 517.577397 
" style="fill:none;stroke:#000000;stroke-width:3;"/>
   </g>
  </g>
 </g>
 <defs>
  <clipPath id="p458f8218cd">
   <rect height="543.6" width="162.934442" x="7.2" y="7.2"/>
  </clipPath>
 </defs>
</svg>
