<?xml version="1.0" encoding="utf-8" standalone="no"?>
<!DOCTYPE svg PUBLIC "-//W3C//DTD SVG 1.1//EN"
  "http://www.w3.org/Graphics/SVG/1.1/DTD/svg11.dtd">
<svg height="558pt" version="1.1" viewBox="0 0 293.824414 558" width="293.824414pt" xmlns="http://www.w3.org/2000/svg" xmlns:xlink="http://www.w3.org/1999/xlink">
 <metadata>
  <rdf:RDF xmlns:cc="http://creativecommons.org/ns#" xmlns:dc="http://purl.org/dc/elements/1.1/" xmlns:rdf="http://www.w3.org/1999/02/22-rdf-syntax-ns#">
   <cc:Work>
    <dc:type rdf:resource="http://purl.org/dc/dcmitype/StillImage"/>
    <dc:date>2021-05-26T19:21:22.640531</dc:date>
    <dc:format>image/svg+xml</dc:format>
    <dc:creator>
     <cc:Agent>
      <dc:title>Matplotlib v3.4.2, https://matplotlib.org/</dc:title>
     </cc:Agent>
    </dc:creator>
   </cc:Work>
  </rdf:RDF>
 </metadata>
 <defs>
  <style type="text/css">*{stroke-linecap:butt;stroke-linejoin:round;}</style>
 </defs>
 <g id="figure_1">
  <g id="patch_1">
   <path d="M 0 558 
L 293.824414 558 
L 293.824414 0 
L 0 0 
z
" style="fill:none;"/>
  </g>
  <g id="axes_1">
   <g id="LineCollection_1">
    <path clip-path="url(#pf246de7e6f)" d="M 32.09253 526.090909 
L 19.90111 523.714895 
L 27.193929 504.338258 
L 35.661825 487.473408 
L 43.990181 472.20873 
L 53.545023 456.624018 
L 59.897781 443.939013 
L 68.901806 425.66795 
L 79.962215 408.211521 
L 89.047026 390.085928 
L 99.321603 375.063701 
L 104.917905 364.841992 
L 100.959366 347.49224 
L 112.181348 329.327856 
L 128.683831 319.193429 
L 144.797069 313.90801 
L 158.259041 299.516154 
L 159.31661 282.1761 
L 170.369675 265.185176 
L 174.526508 250.269627 
L 179.557305 236.818478 
L 191.058368 220.933127 
L 200.840881 207.03587 
L 219.539288 204.776232 
L 230.518911 187.562253 
L 241.050535 168.350483 
L 248.269912 148.391965 
L 246.154774 124.418469 
L 261.379361 103.82958 
L 264.280332 83.182503 
L 273.923304 66.841346 
L 257.692558 64.678688 
L 267.570546 46.795546 
L 254.34359 33.373491 
L 240.10313 31.909091 
L 240.389554 43.042414 
L 248.431485 49.103674 
L 246.323692 67.588093 
L 231.14317 80.496153 
L 214.493803 91.716758 
L 207.839931 106.816569 
L 196.588572 118.017778 
L 192.578623 134.320143 
L 178.220656 142.204631 
L 170.913148 160.68905 
L 173.468939 176.031312 
L 162.739021 189.666723 
L 156.496426 209.053057 
L 142.5938 223.842532 
L 124.762012 241.017719 
L 115.559693 257.135822 
L 114.010061 249.532577 
L 116.264739 236.76029 
L 102.663227 228.885501 
L 92.337241 223.144275 
L 83.046791 217.383653 
" style="fill:none;stroke:#000000;stroke-width:3;"/>
   </g>
  </g>
 </g>
 <defs>
  <clipPath id="pf246de7e6f">
   <rect height="543.6" width="279.424414" x="7.2" y="7.2"/>
  </clipPath>
 </defs>
</svg>
