<?xml version="1.0" encoding="utf-8" standalone="no"?>
<!DOCTYPE svg PUBLIC "-//W3C//DTD SVG 1.1//EN"
  "http://www.w3.org/Graphics/SVG/1.1/DTD/svg11.dtd">
<svg height="558pt" version="1.1" viewBox="0 0 333.382337 558" width="333.382337pt" xmlns="http://www.w3.org/2000/svg" xmlns:xlink="http://www.w3.org/1999/xlink">
 <metadata>
  <rdf:RDF xmlns:cc="http://creativecommons.org/ns#" xmlns:dc="http://purl.org/dc/elements/1.1/" xmlns:rdf="http://www.w3.org/1999/02/22-rdf-syntax-ns#">
   <cc:Work>
    <dc:type rdf:resource="http://purl.org/dc/dcmitype/StillImage"/>
    <dc:date>2021-05-26T19:21:25.390763</dc:date>
    <dc:format>image/svg+xml</dc:format>
    <dc:creator>
     <cc:Agent>
      <dc:title>Matplotlib v3.4.2, https://matplotlib.org/</dc:title>
     </cc:Agent>
    </dc:creator>
   </cc:Work>
  </rdf:RDF>
 </metadata>
 <defs>
  <style type="text/css">*{stroke-linecap:butt;stroke-linejoin:round;}</style>
 </defs>
 <g id="figure_1">
  <g id="patch_1">
   <path d="M 0 558 
L 333.382337 558 
L 333.382337 0 
L 0 0 
z
" style="fill:none;"/>
  </g>
  <g id="axes_1">
   <g id="LineCollection_1">
    <path clip-path="url(#p242ee43294)" d="M 36.282987 192.176971 
L 61.254766 169.384518 
L 99.423015 135.330972 
L 108.93124 98.529719 
L 126.255834 66.277948 
L 158.73945 40.062122 
L 196.975372 31.909091 
L 236.023385 36.188306 
L 274.665353 56.142964 
L 297.573069 86.638004 
L 307.690362 122.358192 
L 311.68314 158.573868 
L 282.650908 171.186293 
L 240.185348 184.249161 
L 205.87453 195.780521 
L 178.635664 226.185472 
L 181.477981 275.328884 
L 181.444144 318.391304 
L 162.021649 357.985308 
L 156.64155 391.137967 
L 141.076484 426.137445 
L 117.255166 454.425311 
L 106.630317 481.81229 
L 141.719389 481.992468 
L 176.605438 480.190693 
L 210.171841 480.956447 
L 230.609449 504.875009 
L 258.491219 526.090909 
L 273.244195 497.307555 
L 277.541506 462.983742 
L 276.086511 426.227534 
L 279.030339 386.453352 
L 262.179463 348.255724 
L 220.79669 327.625401 
L 181.884026 335.823477 
L 178.80485 310.598628 
L 176.740787 275.734283 
L 173.458588 233.57275 
L 197.685951 205.465061 
L 228.714572 180.825789 
L 268.710023 171.141248 
L 309.619077 158.573868 
L 303.494562 122.448281 
L 298.452834 89.971288 
L 277.913714 65.151838 
L 248.272415 39.836901 
L 212.574275 42.584607 
L 173.154054 40.287344 
L 137.422077 64.566261 
L 106.291946 118.799687 
L 93.129314 151.186591 
L 68.901951 170.780893 
L 21.699197 161.186442 
" style="fill:none;stroke:#000000;stroke-width:3;"/>
   </g>
  </g>
 </g>
 <defs>
  <clipPath id="p242ee43294">
   <rect height="543.6" width="318.982337" x="7.2" y="7.2"/>
  </clipPath>
 </defs>
</svg>
