<?xml version="1.0" encoding="utf-8" standalone="no"?>
<!DOCTYPE svg PUBLIC "-//W3C//DTD SVG 1.1//EN"
  "http://www.w3.org/Graphics/SVG/1.1/DTD/svg11.dtd">
<svg height="558pt" version="1.1" viewBox="0 0 320.31874 558" width="320.31874pt" xmlns="http://www.w3.org/2000/svg" xmlns:xlink="http://www.w3.org/1999/xlink">
 <metadata>
  <rdf:RDF xmlns:cc="http://creativecommons.org/ns#" xmlns:dc="http://purl.org/dc/elements/1.1/" xmlns:rdf="http://www.w3.org/1999/02/22-rdf-syntax-ns#">
   <cc:Work>
    <dc:type rdf:resource="http://purl.org/dc/dcmitype/StillImage"/>
    <dc:date>2021-05-26T19:21:27.211652</dc:date>
    <dc:format>image/svg+xml</dc:format>
    <dc:creator>
     <cc:Agent>
      <dc:title>Matplotlib v3.4.2, https://matplotlib.org/</dc:title>
     </cc:Agent>
    </dc:creator>
   </cc:Work>
  </rdf:RDF>
 </metadata>
 <defs>
  <style type="text/css">*{stroke-linecap:butt;stroke-linejoin:round;}</style>
 </defs>
 <g id="figure_1">
  <g id="patch_1">
   <path d="M 0 558 
L 320.31874 558 
L 320.31874 0 
L 0 0 
z
" style="fill:none;"/>
  </g>
  <g id="axes_1">
   <g id="LineCollection_1">
    <path clip-path="url(#p02f0d79ed3)" d="M 21.105397 195.729072 
L 33.06144 166.295913 
L 72.776294 152.271335 
L 89.133547 110.059203 
L 103.168901 73.613755 
L 135.640819 41.366454 
L 200.653966 31.909091 
L 245.255203 41.366454 
L 275.439879 71.122547 
L 297.86179 116.148822 
L 299.213343 154.578009 
L 276.444879 172.939134 
L 234.997265 180.274357 
L 199.856897 195.03707 
L 176.499295 221.794487 
L 162.949113 256.440729 
L 170.677222 295.608052 
L 167.488944 325.963881 
L 152.102037 354.797305 
L 141.91341 391.47342 
L 129.541505 425.704461 
L 109.684078 456.244823 
L 88.648374 482.587039 
L 122.402534 488.215324 
L 157.92411 485.816383 
L 195.559653 487.384921 
L 232.398126 525.214373 
L 261.681766 526.090909 
L 265.667114 488.768925 
L 264.939355 451.677609 
L 267.989012 413.986557 
L 262.582801 380.816586 
L 244.527444 346.770079 
L 211.639663 332.607102 
L 175.771536 341.60313 
L 165.92946 323.841741 
L 167.904806 289.149365 
L 162.706527 257.917 
L 167.419634 228.529975 
L 188.143441 199.558151 
L 223.006568 184.380236 
L 261.785732 176.168477 
L 292.212994 165.742311 
L 294.049719 133.725677 
L 291.623855 100.417306 
L 269.167288 69.000407 
L 242.82934 41.04352 
L 210.357421 32.785627 
L 176.915157 33.523763 
L 138.170648 46.810204 
L 111.694079 71.999083 
L 96.549758 105.307455 
L 84.697681 144.197977 
L 56.453697 172.800733 
L 21.174708 175.01514 
" style="fill:none;stroke:#000000;stroke-width:3;"/>
   </g>
  </g>
 </g>
 <defs>
  <clipPath id="p02f0d79ed3">
   <rect height="543.6" width="305.91874" x="7.2" y="7.2"/>
  </clipPath>
 </defs>
</svg>
