<?xml version="1.0" encoding="utf-8" standalone="no"?>
<!DOCTYPE svg PUBLIC "-//W3C//DTD SVG 1.1//EN"
  "http://www.w3.org/Graphics/SVG/1.1/DTD/svg11.dtd">
<svg height="558pt" version="1.1" viewBox="0 0 234.726849 558" width="234.726849pt" xmlns="http://www.w3.org/2000/svg" xmlns:xlink="http://www.w3.org/1999/xlink">
 <metadata>
  <rdf:RDF xmlns:cc="http://creativecommons.org/ns#" xmlns:dc="http://purl.org/dc/elements/1.1/" xmlns:rdf="http://www.w3.org/1999/02/22-rdf-syntax-ns#">
   <cc:Work>
    <dc:type rdf:resource="http://purl.org/dc/dcmitype/StillImage"/>
    <dc:date>2021-05-26T19:21:29.485678</dc:date>
    <dc:format>image/svg+xml</dc:format>
    <dc:creator>
     <cc:Agent>
      <dc:title>Matplotlib v3.4.2, https://matplotlib.org/</dc:title>
     </cc:Agent>
    </dc:creator>
   </cc:Work>
  </rdf:RDF>
 </metadata>
 <defs>
  <style type="text/css">*{stroke-linecap:butt;stroke-linejoin:round;}</style>
 </defs>
 <g id="figure_1">
  <g id="patch_1">
   <path d="M 0 558 
L 234.726849 558 
L 234.726849 0 
L 0 0 
z
" style="fill:none;"/>
  </g>
  <g id="axes_1">
   <g id="LineCollection_1">
    <path clip-path="url(#p5f7d0900f3)" d="M 17.214857 149.00933 
L 21.746025 129.45479 
L 48.640703 120.309881 
L 63.720237 98.193469 
L 71.150378 71.601889 
L 85.158023 50.815056 
L 107.594615 35.897828 
L 132.857098 31.909091 
L 159.483803 33.725101 
L 185.209146 48.804473 
L 202.724792 68.813016 
L 210.398545 89.275561 
L 210.763962 116.515716 
L 193.516289 131.400515 
L 166.670333 139.961707 
L 143.892685 146.447458 
L 126.060345 163.407698 
L 115.097841 188.11841 
L 120.676537 214.385703 
L 115.682507 234.686104 
L 106.741976 260.012963 
L 99.360556 285.988397 
L 90.200775 309.1101 
L 74.853269 331.323798 
L 52.879538 345.916739 
L 37.580754 365.276706 
L 31.514835 389.306415 
L 36.533226 412.590262 
L 40.11431 436.976687 
L 36.484503 462.530547 
L 43.914645 482.279659 
L 58.677485 502.87192 
L 78.312548 517.043286 
L 101.60178 526.090909 
L 118.971259 524.793759 
L 141.651462 519.961874 
L 165.379194 513.767982 
L 187.913231 506.860657 
L 210.081851 501.347768 
L 217.511993 480.528506 
L 213.029546 459.611959 
L 210.301101 433.798668 
L 205.964821 412.914549 
L 196.269095 392.062859 
L 183.99109 370.951739 
L 188.717148 345.462736 
L 188.303009 321.951888 
L 188.741509 299.316616 
L 187.767064 275.838196 
L 174.709503 254.37036 
L 154.124356 244.090444 
L 127.765623 249.40876 
L 119.482842 238.609984 
L 121.675343 218.147439 
L 116.705674 198.138896 
L 118.946898 176.087342 
L 131.224903 157.894809 
L 148.058437 146.41503 
L 167.47425 140.221137 
L 187.913231 135.291966 
L 210.569073 128.6765 
L 207.767544 103.6415 
L 208.279128 82.78981 
L 194.880511 62.165121 
L 180.775422 43.615872 
L 158.55808 34.373676 
L 138.679406 34.114246 
L 114.293924 33.627815 
L 96.510305 43.518586 
L 79.676771 59.246533 
L 68.397572 84.930108 
L 62.307292 107.143806 
L 49.00612 126.568631 
L 27.7145 131.854518 
L 19.529163 132.567951 
" style="fill:none;stroke:#000000;stroke-width:3;"/>
   </g>
  </g>
 </g>
 <defs>
  <clipPath id="p5f7d0900f3">
   <rect height="543.6" width="220.326849" x="7.2" y="7.2"/>
  </clipPath>
 </defs>
</svg>
