<?xml version="1.0" encoding="utf-8" standalone="no"?>
<!DOCTYPE svg PUBLIC "-//W3C//DTD SVG 1.1//EN"
  "http://www.w3.org/Graphics/SVG/1.1/DTD/svg11.dtd">
<svg height="558pt" version="1.1" viewBox="0 0 315.304983 558" width="315.304983pt" xmlns="http://www.w3.org/2000/svg" xmlns:xlink="http://www.w3.org/1999/xlink">
 <metadata>
  <rdf:RDF xmlns:cc="http://creativecommons.org/ns#" xmlns:dc="http://purl.org/dc/elements/1.1/" xmlns:rdf="http://www.w3.org/1999/02/22-rdf-syntax-ns#">
   <cc:Work>
    <dc:type rdf:resource="http://purl.org/dc/dcmitype/StillImage"/>
    <dc:date>2021-05-26T19:21:29.691622</dc:date>
    <dc:format>image/svg+xml</dc:format>
    <dc:creator>
     <cc:Agent>
      <dc:title>Matplotlib v3.4.2, https://matplotlib.org/</dc:title>
     </cc:Agent>
    </dc:creator>
   </cc:Work>
  </rdf:RDF>
 </metadata>
 <defs>
  <style type="text/css">*{stroke-linecap:butt;stroke-linejoin:round;}</style>
 </defs>
 <g id="figure_1">
  <g id="patch_1">
   <path d="M 0 558 
L 315.304983 558 
L 315.304983 0 
L 0 0 
z
" style="fill:none;"/>
  </g>
  <g id="axes_1">
   <g id="LineCollection_1">
    <path clip-path="url(#pe232bdcee2)" d="M 20.877499 195.714495 
L 28.336096 166.516964 
L 63.245052 161.801835 
L 81.670169 136.367339 
L 90.150491 99.734412 
L 111.606727 67.861952 
L 137.217981 38.709758 
L 172.433454 31.909091 
L 205.503304 32.589158 
L 235.47392 37.576314 
L 264.184408 63.554862 
L 286.219622 90.893545 
L 290.340582 127.934512 
L 294.427484 158.310826 
L 266.023514 173.816347 
L 227.947209 182.158499 
L 192.52739 193.719633 
L 170.662463 217.567306 
L 159.04885 249.711793 
L 164.770513 290.334445 
L 161.398819 322.750959 
L 145.425843 356.66362 
L 137.762901 388.581418 
L 124.923217 422.902118 
L 101.559759 450.739516 
L 97.813432 480.798465 
L 131.46226 480.798465 
L 168.312495 481.841234 
L 201.178 483.97211 
L 219.432829 513.169641 
L 248.041144 526.090909 
L 256.759869 497.528107 
L 261.459807 462.300651 
L 260.540254 427.798599 
L 261.323576 393.296547 
L 254.341785 361.877465 
L 230.058775 337.712427 
L 197.19327 327.284737 
L 164.25965 334.312093 
L 163.680672 315.632927 
L 165.928468 283.941818 
L 159.151022 251.933344 
L 167.256712 225.410742 
L 188.644833 200.792327 
L 210.850335 191.407406 
L 244.635393 178.168774 
L 270.212589 170.869391 
L 293.610104 157.222719 
L 287.581923 122.085938 
L 284.380516 93.568474 
L 265.512651 65.957765 
L 237.789831 40.613945 
L 204.413464 34.720033 
L 172.297224 35.128073 
L 137.899131 45.057048 
L 110.210369 69.086072 
L 94.986658 98.328941 
L 87.528062 134.10045 
L 68.353679 159.217581 
L 32.865746 170.098649 
L 28.642613 169.962636 
" style="fill:none;stroke:#000000;stroke-width:3;"/>
   </g>
  </g>
 </g>
 <defs>
  <clipPath id="pe232bdcee2">
   <rect height="543.6" width="300.904983" x="7.2" y="7.2"/>
  </clipPath>
 </defs>
</svg>
