<?xml version="1.0" encoding="utf-8" standalone="no"?>
<!DOCTYPE svg PUBLIC "-//W3C//DTD SVG 1.1//EN"
  "http://www.w3.org/Graphics/SVG/1.1/DTD/svg11.dtd">
<svg height="558pt" version="1.1" viewBox="0 0 317.748592 558" width="317.748592pt" xmlns="http://www.w3.org/2000/svg" xmlns:xlink="http://www.w3.org/1999/xlink">
 <metadata>
  <rdf:RDF xmlns:cc="http://creativecommons.org/ns#" xmlns:dc="http://purl.org/dc/elements/1.1/" xmlns:rdf="http://www.w3.org/1999/02/22-rdf-syntax-ns#">
   <cc:Work>
    <dc:type rdf:resource="http://purl.org/dc/dcmitype/StillImage"/>
    <dc:date>2021-05-26T19:21:29.800042</dc:date>
    <dc:format>image/svg+xml</dc:format>
    <dc:creator>
     <cc:Agent>
      <dc:title>Matplotlib v3.4.2, https://matplotlib.org/</dc:title>
     </cc:Agent>
    </dc:creator>
   </cc:Work>
  </rdf:RDF>
 </metadata>
 <defs>
  <style type="text/css">*{stroke-linecap:butt;stroke-linejoin:round;}</style>
 </defs>
 <g id="figure_1">
  <g id="patch_1">
   <path d="M 0 558 
L 317.748592 558 
L 317.748592 0 
L 0 0 
z
" style="fill:none;"/>
  </g>
  <g id="axes_1">
   <g id="LineCollection_1">
    <path clip-path="url(#pa10777b958)" d="M 20.988572 193.492079 
L 32.571314 168.186632 
L 69.091016 164.513261 
L 89.156413 133.130878 
L 95.901656 100.297288 
L 110.243815 70.411464 
L 132.421359 55.219126 
L 156.063778 42.0222 
L 192.276878 37.577874 
L 232.271403 34.403355 
L 261.602993 56.579634 
L 283.371733 83.47234 
L 293.694 110.773199 
L 296.76002 143.69749 
L 287.732295 170.136693 
L 254.619281 177.755537 
L 223.788749 181.882411 
L 191.595541 197.1201 
L 169.724599 226.098918 
L 163.490359 255.531239 
L 169.28173 288.727631 
L 166.590446 319.339059 
L 149.488869 349.224883 
L 141.823819 378.249051 
L 133.204897 410.538438 
L 116.682457 441.240567 
L 92.222432 464.641302 
L 114.468109 482.781408 
L 141.960087 479.470839 
L 169.28173 479.878991 
L 199.362791 480.831346 
L 216.873171 503.415777 
L 239.663918 526.090909 
L 260.274384 511.125322 
L 265.180016 479.561539 
L 264.362411 443.372029 
L 265.35035 407.182519 
L 262.011795 373.759375 
L 246.681696 346.503867 
L 214.522555 328.318411 
L 183.28322 335.483753 
L 164.5805 323.239182 
L 170.678472 295.620871 
L 164.13763 258.070854 
L 167.442118 230.497893 
L 186.24704 205.73665 
L 215.646763 188.5489 
L 242.287068 182.063812 
L 277.341894 171.996054 
L 296.419351 149.094171 
L 290.559846 97.16812 
L 264.192076 64.697331 
L 234.076948 36.398767 
L 203.995887 31.909091 
L 171.325743 32.952147 
L 134.840108 48.734039 
L 108.642672 73.04178 
L 94.538981 106.464924 
L 84.59145 145.602201 
L 48.821219 169.184338 
L 27.529415 171.769303 
" style="fill:none;stroke:#000000;stroke-width:3;"/>
   </g>
  </g>
 </g>
 <defs>
  <clipPath id="pa10777b958">
   <rect height="543.6" width="303.348592" x="7.2" y="7.2"/>
  </clipPath>
 </defs>
</svg>
