<?xml version="1.0" encoding="utf-8" standalone="no"?>
<!DOCTYPE svg PUBLIC "-//W3C//DTD SVG 1.1//EN"
  "http://www.w3.org/Graphics/SVG/1.1/DTD/svg11.dtd">
<svg height="558pt" version="1.1" viewBox="0 0 290.014146 558" width="290.014146pt" xmlns="http://www.w3.org/2000/svg" xmlns:xlink="http://www.w3.org/1999/xlink">
 <metadata>
  <rdf:RDF xmlns:cc="http://creativecommons.org/ns#" xmlns:dc="http://purl.org/dc/elements/1.1/" xmlns:rdf="http://www.w3.org/1999/02/22-rdf-syntax-ns#">
   <cc:Work>
    <dc:type rdf:resource="http://purl.org/dc/dcmitype/StillImage"/>
    <dc:date>2021-05-26T19:21:29.935186</dc:date>
    <dc:format>image/svg+xml</dc:format>
    <dc:creator>
     <cc:Agent>
      <dc:title>Matplotlib v3.4.2, https://matplotlib.org/</dc:title>
     </cc:Agent>
    </dc:creator>
   </cc:Work>
  </rdf:RDF>
 </metadata>
 <defs>
  <style type="text/css">*{stroke-linecap:butt;stroke-linejoin:round;}</style>
 </defs>
 <g id="figure_1">
  <g id="patch_1">
   <path d="M 0 558 
L 290.014146 558 
L 290.014146 0 
L 0 0 
z
" style="fill:none;"/>
  </g>
  <g id="axes_1">
   <g id="LineCollection_1">
    <path clip-path="url(#pa3a16c31f7)" d="M 79.532227 215.134361 
L 86.013877 219.716433 
L 93.586714 223.962295 
L 94.161405 230.110149 
L 87.505166 242.32901 
L 79.073929 257.400859 
L 69.922509 274.18258 
L 60.261868 291.66554 
L 60.589224 310.733495 
L 61.280309 324.662227 
L 60.589224 337.217298 
L 64.306534 350.098974 
L 75.043812 359.464846 
L 66.117904 377.504956 
L 56.711874 396.188669 
L 47.007586 414.785928 
L 62.56791 424.881858 
L 80.921672 432.672342 
L 88.698197 442.902756 
L 81.227204 456.072612 
L 76.666043 465.063849 
L 67.04905 482.220205 
L 55.089643 502.604185 
L 45.923674 520.250448 
L 44.134127 521.672139 
L 39.696634 526.090909 
L 19.727916 518.031456 
L 25.845836 502.22955 
L 35.651969 484.391166 
L 43.56671 469.7708 
L 47.233098 462.124406 
L 54.493127 447.821039 
L 63.724568 431.644498 
L 75.116558 412.893542 
L 79.219421 405.612177 
L 85.591952 392.932228 
L 94.270524 382.000574 
L 104.52768 366.50606 
L 105.473375 355.209378 
L 105.320609 355.218984 
L 98.962627 347.063471 
L 108.943349 330.099236 
L 121.237387 316.3242 
L 138.078037 318.226192 
L 152.219818 301.530925 
L 157.19563 281.473551 
L 167.525532 264.509315 
L 172.326754 248.34238 
L 178.015474 234.144679 
L 188.658183 219.21692 
L 199.948329 205.797307 
L 219.546044 201.186416 
L 230.203302 182.089644 
L 238.860051 166.239707 
L 245.021619 146.086272 
L 242.737401 125.529384 
L 254.347629 108.123272 
L 259.447108 91.514459 
L 270.286231 73.455137 
L 255.307873 69.228488 
L 264.546588 45.568855 
L 252.136157 34.089658 
L 238.467223 31.909091 
L 234.800836 41.947384 
L 243.523056 48.085632 
L 246.280121 61.207459 
L 228.537423 79.852748 
L 213.129866 90.745978 
L 205.36789 105.039739 
L 194.077744 117.950233 
L 190.760536 133.175778 
L 177.600823 140.908626 
L 168.362108 159.621158 
L 170.719072 175.615185 
L 159.661712 189.563129 
L 153.209161 209.956715 
L 139.598424 223.856629 
L 124.576419 238.505813 
L 114.384734 253.55845 
L 105.808006 254.442204 
L 93.652185 247.516262 
L 86.930474 243.059067 
L 78.484688 239.235871 
L 68.736753 234.62498 
L 71.704781 223.424358 
L 76.098626 215.393723 
L 76.891555 215.88363 
L 75.043812 216.853839 
" style="fill:none;stroke:#000000;stroke-width:3;"/>
   </g>
  </g>
 </g>
 <defs>
  <clipPath id="pa3a16c31f7">
   <rect height="543.6" width="275.614146" x="7.2" y="7.2"/>
  </clipPath>
 </defs>
</svg>
