<?xml version="1.0" encoding="utf-8" standalone="no"?>
<!DOCTYPE svg PUBLIC "-//W3C//DTD SVG 1.1//EN"
  "http://www.w3.org/Graphics/SVG/1.1/DTD/svg11.dtd">
<svg height="558pt" version="1.1" viewBox="0 0 433.790195 558" width="433.790195pt" xmlns="http://www.w3.org/2000/svg" xmlns:xlink="http://www.w3.org/1999/xlink">
 <metadata>
  <rdf:RDF xmlns:cc="http://creativecommons.org/ns#" xmlns:dc="http://purl.org/dc/elements/1.1/" xmlns:rdf="http://www.w3.org/1999/02/22-rdf-syntax-ns#">
   <cc:Work>
    <dc:type rdf:resource="http://purl.org/dc/dcmitype/StillImage"/>
    <dc:date>2021-05-26T19:21:30.163502</dc:date>
    <dc:format>image/svg+xml</dc:format>
    <dc:creator>
     <cc:Agent>
      <dc:title>Matplotlib v3.4.2, https://matplotlib.org/</dc:title>
     </cc:Agent>
    </dc:creator>
   </cc:Work>
  </rdf:RDF>
 </metadata>
 <defs>
  <style type="text/css">*{stroke-linecap:butt;stroke-linejoin:round;}</style>
 </defs>
 <g id="figure_1">
  <g id="patch_1">
   <path d="M 0 558 
L 433.790195 558 
L 433.790195 0 
L 0 0 
z
" style="fill:none;"/>
  </g>
  <g id="axes_1">
   <g id="LineCollection_1">
    <path clip-path="url(#p91a57a9e9d)" d="M 129.098228 194.888312 
L 147.698969 166.934685 
L 183.495976 153.710294 
L 198.465634 123.066187 
L 205.933334 90.37002 
L 229.329847 57.126637 
L 261.941091 34.645172 
L 299.587896 31.909091 
L 333.021272 32.775517 
L 368.407213 51.83688 
L 399.065893 89.321189 
L 404.444008 123.15739 
L 407.527004 159.501665 
L 374.778738 171.905232 
L 339.187264 181.937529 
L 306.130698 192.836251 
L 279.171612 221.017885 
L 271.566889 257.954977 
L 278.931824 288.553483 
L 274.101797 319.790407 
L 256.220421 350.616918 
L 250.842307 386.277173 
L 240.497143 418.654131 
L 221.040014 445.695731 
L 193.84114 470.548466 
L 167.22461 487.968181 
L 153.453895 518.749092 
L 124.782034 519.70672 
L 91.040358 515.055383 
L 63.841484 500.234944 
L 48.118205 470.867676 
L 45.274998 436.894671 
L 57.093149 410.17228 
L 70.452797 380.987417 
L 56.339527 343.001493 
L 26.263191 320.748035 
L 27.496389 311.992576 
L 49.008849 335.887683 
L 65.074682 362.199661 
L 63.224885 395.488646 
L 49.419915 426.360759 
L 43.973289 455.728028 
L 59.011457 490.29385 
L 82.853291 511.042464 
L 114.06006 521.941186 
L 150.679199 521.348369 
L 169.382707 492.756323 
L 192.333897 476.248635 
L 222.924067 482.268013 
L 251.356139 479.303925 
L 284.035895 480.352756 
L 314.146487 484.137668 
L 330.452109 512.045694 
L 355.527142 526.090909 
L 369.708922 501.283775 
L 375.121293 465.760324 
L 373.716817 431.741718 
L 374.470438 398.726342 
L 368.989557 369.58708 
L 348.333485 341.587851 
L 322.984408 328.68267 
L 288.968688 333.790021 
L 271.018801 325.946589 
L 279.582678 296.396915 
L 272.046467 263.746349 
L 273.999031 232.646229 
L 288.043789 211.259196 
L 312.399456 191.924224 
L 340.214929 180.934299 
L 373.305751 173.546881 
L 403.176554 163.012969 
L 399.751003 131.046423 
L 399.374193 97.894243 
L 379.197698 67.888555 
L 359.329503 46.319117 
L 329.698488 34.553969 
L 297.052988 33.094726 
L 264.510255 32.045895 
L 236.62627 51.335266 
L 215.901688 75.367176 
L 203.329916 109.568188 
L 193.498585 141.169923 
L 168.355041 166.113861 
L 136.291885 170.172381 
" style="fill:none;stroke:#000000;stroke-width:3;"/>
   </g>
  </g>
 </g>
 <defs>
  <clipPath id="p91a57a9e9d">
   <rect height="543.6" width="419.390195" x="7.2" y="7.2"/>
  </clipPath>
 </defs>
</svg>
