<?xml version="1.0" encoding="utf-8" standalone="no"?>
<!DOCTYPE svg PUBLIC "-//W3C//DTD SVG 1.1//EN"
  "http://www.w3.org/Graphics/SVG/1.1/DTD/svg11.dtd">
<svg height="558pt" version="1.1" viewBox="0 0 311.658037 558" width="311.658037pt" xmlns="http://www.w3.org/2000/svg" xmlns:xlink="http://www.w3.org/1999/xlink">
 <metadata>
  <rdf:RDF xmlns:cc="http://creativecommons.org/ns#" xmlns:dc="http://purl.org/dc/elements/1.1/" xmlns:rdf="http://www.w3.org/1999/02/22-rdf-syntax-ns#">
   <cc:Work>
    <dc:type rdf:resource="http://purl.org/dc/dcmitype/StillImage"/>
    <dc:date>2021-05-26T19:21:30.372073</dc:date>
    <dc:format>image/svg+xml</dc:format>
    <dc:creator>
     <cc:Agent>
      <dc:title>Matplotlib v3.4.2, https://matplotlib.org/</dc:title>
     </cc:Agent>
    </dc:creator>
   </cc:Work>
  </rdf:RDF>
 </metadata>
 <defs>
  <style type="text/css">*{stroke-linecap:butt;stroke-linejoin:round;}</style>
 </defs>
 <g id="figure_1">
  <g id="patch_1">
   <path d="M 0 558 
L 311.658037 558 
L 311.658037 0 
L 0 0 
z
" style="fill:none;"/>
  </g>
  <g id="axes_1">
   <g id="LineCollection_1">
    <path clip-path="url(#p04e9221530)" d="M 22.213981 197.575671 
L 20.711729 167.942033 
L 65.471999 158.85196 
L 84.318428 123.673378 
L 92.136965 87.81304 
L 110.300552 60.542821 
L 135.326698 41.862721 
L 170.595469 31.909091 
L 210.507563 33.227151 
L 243.898519 45.771452 
L 265.71531 73.996129 
L 287.975947 100.766394 
L 287.054111 132.354397 
L 289.307488 166.669423 
L 254.448423 174.441435 
L 216.755564 184.895019 
L 184.969286 197.075717 
L 161.58196 228.481919 
L 154.412122 262.251541 
L 160.386987 298.975435 
L 155.402243 325.245746 
L 143.213519 361.924191 
L 134.473146 393.966698 
L 119.382346 426.918213 
L 98.487392 454.142981 
L 91.317555 482.004055 
L 122.625844 482.322208 
L 156.494789 482.276757 
L 186.710532 484.367474 
L 211.292831 502.138567 
L 230.036834 526.090909 
L 256.155527 515.728226 
L 257.69192 481.458651 
L 257.145647 450.143349 
L 258.682041 418.737147 
L 257.760205 381.513298 
L 246.015328 351.606958 
L 222.866997 332.745057 
L 188.759057 330.972492 
L 157.280057 337.290093 
L 157.723904 308.201859 
L 159.533435 274.841292 
L 155.607095 244.525898 
L 170.697895 214.165054 
L 199.718665 188.531049 
L 231.265949 180.759036 
L 261.549976 172.168917 
L 290.946308 163.715149 
L 285.278723 128.90017 
L 283.230198 96.948563 
L 264.2472 70.269199 
L 238.879633 42.635377 
L 205.625245 32.954449 
L 174.794945 32.636297 
L 140.994284 40.408309 
L 111.973514 59.542913 
L 94.936615 87.767589 
L 85.17198 122.991622 
L 69.705617 153.85242 
L 41.162836 169.941849 
L 22.623686 168.941941 
" style="fill:none;stroke:#000000;stroke-width:3;"/>
   </g>
  </g>
 </g>
 <defs>
  <clipPath id="p04e9221530">
   <rect height="543.6" width="297.258037" x="7.2" y="7.2"/>
  </clipPath>
 </defs>
</svg>
