<?xml version="1.0" encoding="utf-8" standalone="no"?>
<!DOCTYPE svg PUBLIC "-//W3C//DTD SVG 1.1//EN"
  "http://www.w3.org/Graphics/SVG/1.1/DTD/svg11.dtd">
<svg height="558pt" version="1.1" viewBox="0 0 490.035665 558" width="490.035665pt" xmlns="http://www.w3.org/2000/svg" xmlns:xlink="http://www.w3.org/1999/xlink">
 <metadata>
  <rdf:RDF xmlns:cc="http://creativecommons.org/ns#" xmlns:dc="http://purl.org/dc/elements/1.1/" xmlns:rdf="http://www.w3.org/1999/02/22-rdf-syntax-ns#">
   <cc:Work>
    <dc:type rdf:resource="http://purl.org/dc/dcmitype/StillImage"/>
    <dc:date>2021-05-26T19:21:30.570382</dc:date>
    <dc:format>image/svg+xml</dc:format>
    <dc:creator>
     <cc:Agent>
      <dc:title>Matplotlib v3.4.2, https://matplotlib.org/</dc:title>
     </cc:Agent>
    </dc:creator>
   </cc:Work>
  </rdf:RDF>
 </metadata>
 <defs>
  <style type="text/css">*{stroke-linecap:butt;stroke-linejoin:round;}</style>
 </defs>
 <g id="figure_1">
  <g id="patch_1">
   <path d="M 0 558 
L 490.035665 558 
L 490.035665 0 
L 0 0 
z
" style="fill:none;"/>
  </g>
  <g id="axes_1">
   <g id="LineCollection_1">
    <path clip-path="url(#p80cdcc84f5)" d="M 213.790422 176.576569 
L 225.483437 154.147186 
L 259.089349 145.322511 
L 275.846269 116.519751 
L 284.439561 84.530303 
L 304.173443 54.583604 
L 327.804998 39.794102 
L 353.891778 35.953734 
L 391.088458 31.909091 
L 424.72506 46.576028 
L 445.563794 73.376894 
L 459.712036 104.018128 
L 461.215862 138.132035 
L 450.290104 154.310606 
L 419.753226 163.748106 
L 385.103844 171.428842 
L 359.416037 186.014069 
L 339.958368 217.635823 
L 342.90464 247.133117 
L 342.505666 281.287879 
L 330.413676 315.320076 
L 320.285867 351.354167 
L 309.943226 383.30276 
L 288.367924 411.574405 
L 259.058658 431.429924 
L 240.859293 456.065476 
L 221.09472 475.308171 
L 192.184429 468.117695 
L 162.875164 469.915314 
L 146.609289 501.577922 
L 122.947045 516.653409 
L 89.95494 526.090909 
L 55.55108 524.04816 
L 32.134359 515.50947 
L 28.850493 481.844968 
L 29.648442 444.094968 
L 28.819803 411.084145 
L 29.49499 372.435335 
L 40.66627 341.017857 
L 52.788951 311.765693 
L 60.768436 281.696429 
L 53.372067 252.280844 
L 48.707137 222.252435 
L 51.991002 194.021645 
L 76.267053 178.415043 
L 105.637699 176.127165 
L 111.929217 147.160985 
L 141.453314 151.859307 
L 163.581042 174.86066 
L 179.632084 194.30763 
L 206.731646 189.364177 
L 210.905531 184.257305 
" style="fill:none;stroke:#000000;stroke-width:3;"/>
   </g>
  </g>
 </g>
 <defs>
  <clipPath id="p80cdcc84f5">
   <rect height="543.6" width="475.635665" x="7.2" y="7.2"/>
  </clipPath>
 </defs>
</svg>
