<?xml version="1.0" encoding="utf-8" standalone="no"?>
<!DOCTYPE svg PUBLIC "-//W3C//DTD SVG 1.1//EN"
  "http://www.w3.org/Graphics/SVG/1.1/DTD/svg11.dtd">
<svg height="558pt" version="1.1" viewBox="0 0 230.368472 558" width="230.368472pt" xmlns="http://www.w3.org/2000/svg" xmlns:xlink="http://www.w3.org/1999/xlink">
 <metadata>
  <rdf:RDF xmlns:cc="http://creativecommons.org/ns#" xmlns:dc="http://purl.org/dc/elements/1.1/" xmlns:rdf="http://www.w3.org/1999/02/22-rdf-syntax-ns#">
   <cc:Work>
    <dc:type rdf:resource="http://purl.org/dc/dcmitype/StillImage"/>
    <dc:date>2021-05-26T19:21:31.137661</dc:date>
    <dc:format>image/svg+xml</dc:format>
    <dc:creator>
     <cc:Agent>
      <dc:title>Matplotlib v3.4.2, https://matplotlib.org/</dc:title>
     </cc:Agent>
    </dc:creator>
   </cc:Work>
  </rdf:RDF>
 </metadata>
 <defs>
  <style type="text/css">*{stroke-linecap:butt;stroke-linejoin:round;}</style>
 </defs>
 <g id="figure_1">
  <g id="patch_1">
   <path d="M 0 558 
L 230.368472 558 
L 230.368472 0 
L 0 0 
z
" style="fill:none;"/>
  </g>
  <g id="axes_1">
   <g id="LineCollection_1">
    <path clip-path="url(#pcf42c3c54f)" d="M 17.016749 146.978055 
L 21.418231 130.905539 
L 47.418244 123.125417 
L 60.74295 104.299443 
L 66.707801 77.373178 
L 78.252673 59.187543 
L 92.852125 43.179062 
L 114.258241 33.990193 
L 152.813302 32.805566 
L 177.68288 42.026451 
L 195.601483 64.022104 
L 207.916013 85.313385 
L 208.733775 111.983514 
L 199.425722 129.112589 
L 169.938196 135.612033 
L 147.016815 141.75929 
L 123.999227 159.336602 
L 113.608842 180.083594 
L 116.639371 210.019454 
L 115.244366 232.591413 
L 105.310966 256.636152 
L 99.394219 282.954095 
L 89.172197 310.5207 
L 72.985325 330.595335 
L 70.580143 350.381818 
L 95.401617 347.372224 
L 119.357226 348.012563 
L 142.71154 350.093666 
L 157.190733 367.030639 
L 172.968724 379.069017 
L 191.272156 381.790459 
L 204.260137 402.057196 
L 210.056625 431.3207 
L 213.351724 457.414524 
L 209.984469 480.0185 
L 199.906758 500.957593 
L 174.267522 502.110204 
L 150.696743 508.289478 
L 121.954822 515.077074 
L 105.118551 526.090909 
L 89.532974 514.084548 
L 64.254516 502.302306 
L 51.194379 483.092128 
L 41.982534 466.155155 
L 41.068565 441.342009 
L 39.264679 420.819136 
L 36.811393 398.53533 
L 40.948306 375.547151 
L 41.693912 354.223854 
L 66.178661 333.925099 
L 83.111139 318.332839 
L 96.844726 296.433236 
L 101.005691 277.094991 
L 106.369246 254.010761 
L 116.615319 235.440922 
L 119.886366 212.164591 
L 114.739278 192.98643 
L 119.020501 172.43154 
L 132.369259 152.484972 
L 148.291561 145.121071 
L 174.940973 135.708084 
L 200.243484 129.720912 
L 206.689371 109.198039 
L 206.496956 85.88969 
L 194.903981 62.133104 
L 178.885471 44.267638 
L 155.098225 32.741532 
L 132.922451 31.909091 
L 109.904863 34.054227 
L 88.01771 46.796979 
L 74.789211 63.573867 
L 66.154609 90.692234 
L 54.24896 114.961092 
L 31.832667 128.728386 
L 18.844687 127.639809 
" style="fill:none;stroke:#000000;stroke-width:3;"/>
   </g>
  </g>
 </g>
 <defs>
  <clipPath id="pcf42c3c54f">
   <rect height="543.6" width="215.968472" x="7.2" y="7.2"/>
  </clipPath>
 </defs>
</svg>
