<?xml version="1.0" encoding="utf-8" standalone="no"?>
<!DOCTYPE svg PUBLIC "-//W3C//DTD SVG 1.1//EN"
  "http://www.w3.org/Graphics/SVG/1.1/DTD/svg11.dtd">
<svg height="558pt" version="1.1" viewBox="0 0 493.922277 558" width="493.922277pt" xmlns="http://www.w3.org/2000/svg" xmlns:xlink="http://www.w3.org/1999/xlink">
 <metadata>
  <rdf:RDF xmlns:cc="http://creativecommons.org/ns#" xmlns:dc="http://purl.org/dc/elements/1.1/" xmlns:rdf="http://www.w3.org/1999/02/22-rdf-syntax-ns#">
   <cc:Work>
    <dc:type rdf:resource="http://purl.org/dc/dcmitype/StillImage"/>
    <dc:date>2021-05-26T19:21:31.334841</dc:date>
    <dc:format>image/svg+xml</dc:format>
    <dc:creator>
     <cc:Agent>
      <dc:title>Matplotlib v3.4.2, https://matplotlib.org/</dc:title>
     </cc:Agent>
    </dc:creator>
   </cc:Work>
  </rdf:RDF>
 </metadata>
 <defs>
  <style type="text/css">*{stroke-linecap:butt;stroke-linejoin:round;}</style>
 </defs>
 <g id="figure_1">
  <g id="patch_1">
   <path d="M -0 558 
L 493.922277 558 
L 493.922277 0 
L -0 0 
z
" style="fill:none;"/>
  </g>
  <g id="axes_1">
   <g id="LineCollection_1">
    <path clip-path="url(#p065150aff1)" d="M 214.626998 177.946445 
L 232.213049 154.535877 
L 265.152 140.786813 
L 277.465337 113.082243 
L 286.056758 81.042382 
L 303.735856 57.879545 
L 331.991398 38.639113 
L 372.250116 31.909091 
L 405.344147 35.129592 
L 434.871343 53.791985 
L 452.302313 78.565073 
L 464.30549 111.513281 
L 464.92581 144.172468 
L 437.290588 157.838955 
L 404.63078 168.450095 
L 371.660813 180.217311 
L 348.088682 214.032577 
L 346.444836 249.003919 
L 345.297245 284.553301 
L 333.387116 316.304142 
L 323.151848 348.715599 
L 315.025667 382.778595 
L 295.733738 410.772184 
L 268.408676 431.994463 
L 246.232263 454.001223 
L 228.987389 478.485292 
L 198.746826 474.439021 
L 162.241039 483.15089 
L 141.553392 511.227056 
L 113.639027 520.434387 
L 86.531076 526.090909 
L 50.893736 525.884467 
L 31.880952 517.709348 
L 29.492723 487.155872 
L 28.996467 453.670915 
L 35.323723 422.209093 
L 31.50876 390.293098 
L 35.726931 355.569486 
L 45.993214 323.612203 
L 58.337567 292.315535 
L 58.089439 259.738924 
L 46.458454 231.497604 
L 48.753635 199.457743 
L 74.745011 183.644255 
L 104.830494 177.740003 
L 112.057213 147.640701 
L 146.422898 154.205569 
L 182.494462 152.017279 
L 205.818465 156.022262 
" style="fill:none;stroke:#000000;stroke-width:3;"/>
   </g>
  </g>
 </g>
 <defs>
  <clipPath id="p065150aff1">
   <rect height="543.6" width="479.522277" x="7.2" y="7.2"/>
  </clipPath>
 </defs>
</svg>
