<?xml version="1.0" encoding="utf-8" standalone="no"?>
<!DOCTYPE svg PUBLIC "-//W3C//DTD SVG 1.1//EN"
  "http://www.w3.org/Graphics/SVG/1.1/DTD/svg11.dtd">
<svg height="558pt" version="1.1" viewBox="0 0 433.768353 558" width="433.768353pt" xmlns="http://www.w3.org/2000/svg" xmlns:xlink="http://www.w3.org/1999/xlink">
 <metadata>
  <rdf:RDF xmlns:cc="http://creativecommons.org/ns#" xmlns:dc="http://purl.org/dc/elements/1.1/" xmlns:rdf="http://www.w3.org/1999/02/22-rdf-syntax-ns#">
   <cc:Work>
    <dc:type rdf:resource="http://purl.org/dc/dcmitype/StillImage"/>
    <dc:date>2021-05-26T19:21:32.278292</dc:date>
    <dc:format>image/svg+xml</dc:format>
    <dc:creator>
     <cc:Agent>
      <dc:title>Matplotlib v3.4.2, https://matplotlib.org/</dc:title>
     </cc:Agent>
    </dc:creator>
   </cc:Work>
  </rdf:RDF>
 </metadata>
 <defs>
  <style type="text/css">*{stroke-linecap:butt;stroke-linejoin:round;}</style>
 </defs>
 <g id="figure_1">
  <g id="patch_1">
   <path d="M 0 558 
L 433.768353 558 
L 433.768353 0 
L 0 0 
z
" style="fill:none;"/>
  </g>
  <g id="axes_1">
   <g id="LineCollection_1">
    <path clip-path="url(#p33bc385431)" d="M 129.086189 196.010082 
L 138.656015 168.927232 
L 176.074722 162.969922 
L 193.562029 136.253675 
L 202.753193 99.272525 
L 217.073508 71.364817 
L 234.595239 50.972484 
L 259.414823 40.753406 
L 305.026403 31.909091 
L 340.999309 36.26251 
L 373.977341 60.91661 
L 398.108449 90.199083 
L 403.512991 125.347215 
L 407.506155 158.112422 
L 378.693407 174.380463 
L 338.31425 183.728858 
L 305.886998 197.843101 
L 279.690461 222.955456 
L 270.086211 252.283754 
L 277.969269 290.089763 
L 273.597443 321.480206 
L 256.523221 361.119234 
L 248.984401 397.275526 
L 233.97561 433.477644 
L 209.91335 460.148064 
L 179.344986 480.769524 
L 160.928235 505.46945 
L 138.759286 526.090909 
L 107.674564 520.591853 
L 75.212889 513.672208 
L 55.901119 486.77266 
L 43.956048 455.702994 
L 51.219477 429.536654 
L 63.749753 407.311303 
L 61.718747 371.246662 
L 50.565424 340.726902 
L 26.262198 323.404876 
L 42.820062 330.645299 
L 60.513912 357.728149 
L 68.878904 381.694868 
L 51.598139 406.257317 
L 43.336419 449.012476 
L 50.427729 483.106623 
L 77.140624 515.276099 
L 110.944829 520.087773 
L 145.850596 524.25789 
L 164.508314 496.350182 
L 188.53615 473.574926 
L 214.49172 456.711155 
L 237.38357 428.66597 
L 251.944851 395.121729 
L 256.970731 364.647795 
L 270.568145 333.578129 
L 273.425323 315.293769 
L 276.420197 276.204647 
L 275.594025 238.811067 
L 288.399691 210.445104 
L 314.320838 196.514162 
L 351.911664 182.399919 
L 383.960253 174.472114 
L 407.127493 158.204073 
L 401.654104 121.268748 
L 398.039601 87.861984 
L 375.078904 63.253709 
L 346.610394 37.224845 
L 313.08158 32.596473 
L 282.306672 32.32152 
L 246.850124 41.440788 
L 222.994407 66.873921 
L 206.436543 99.822431 
L 196.591327 134.878912 
L 175.833755 163.153224 
L 142.958994 168.331501 
L 108.25977 170.806076 
L 73.663817 172.593269 
L 78.930663 208.474609 
L 115.660894 211.865693 
L 127.055183 200.68428 
" style="fill:none;stroke:#000000;stroke-width:3;"/>
   </g>
  </g>
 </g>
 <defs>
  <clipPath id="p33bc385431">
   <rect height="543.6" width="419.368353" x="7.2" y="7.2"/>
  </clipPath>
 </defs>
</svg>
