<?xml version="1.0" encoding="utf-8" standalone="no"?>
<!DOCTYPE svg PUBLIC "-//W3C//DTD SVG 1.1//EN"
  "http://www.w3.org/Graphics/SVG/1.1/DTD/svg11.dtd">
<svg height="558pt" version="1.1" viewBox="0 0 491.249457 558" width="491.249457pt" xmlns="http://www.w3.org/2000/svg" xmlns:xlink="http://www.w3.org/1999/xlink">
 <metadata>
  <rdf:RDF xmlns:cc="http://creativecommons.org/ns#" xmlns:dc="http://purl.org/dc/elements/1.1/" xmlns:rdf="http://www.w3.org/1999/02/22-rdf-syntax-ns#">
   <cc:Work>
    <dc:type rdf:resource="http://purl.org/dc/dcmitype/StillImage"/>
    <dc:date>2021-05-26T19:21:32.491776</dc:date>
    <dc:format>image/svg+xml</dc:format>
    <dc:creator>
     <cc:Agent>
      <dc:title>Matplotlib v3.4.2, https://matplotlib.org/</dc:title>
     </cc:Agent>
    </dc:creator>
   </cc:Work>
  </rdf:RDF>
 </metadata>
 <defs>
  <style type="text/css">*{stroke-linecap:butt;stroke-linejoin:round;}</style>
 </defs>
 <g id="figure_1">
  <g id="patch_1">
   <path d="M 0 558 
L 491.249457 558 
L 491.249457 0 
L 0 0 
z
" style="fill:none;"/>
  </g>
  <g id="axes_1">
   <g id="LineCollection_1">
    <path clip-path="url(#pb1e0735fbe)" d="M 214.784397 177.817067 
L 227.176293 154.227648 
L 261.873602 144.000068 
L 275.938405 116.369106 
L 283.993137 82.758309 
L 298.863412 55.416029 
L 330.060011 33.929863 
L 350.50664 34.301025 
L 392.26733 31.909091 
L 423.18511 39.291094 
L 444.406233 65.684849 
L 461.661948 90.841397 
L 462.374482 121.854058 
L 459.555326 152.578039 
L 431.115924 158.227952 
L 399.42365 166.022357 
L 370.984248 179.054274 
L 351.126234 208.169885 
L 345.209104 243.059129 
L 349.515288 275.102797 
L 340.004508 301.620273 
L 327.488692 333.416499 
L 320.363352 365.666368 
L 304.718583 398.163679 
L 280.05871 417.711553 
L 254.624343 438.207954 
L 240.869338 461.220009 
L 218.563925 474.581847 
L 194.523647 467.983408 
L 164.101542 459.900321 
L 144.739204 429.753704 
L 139.472648 402.823826 
L 148.952449 377.91472 
L 161.189446 352.593212 
L 152.700997 328.096508 
L 120.822845 294.40323 
L 127.111732 283.680767 
L 145.482718 308.301192 
L 160.600831 336.138355 
L 153.971167 367.439699 
L 143.407075 396.060427 
L 143.685893 419.897286 
L 153.785288 448.353053 
L 159.237723 481.84013 
L 139.410689 513.636356 
L 111.621862 522.83293 
L 81.013878 526.090909 
L 59.513939 524.276338 
L 37.92106 512.935272 
L 33.862714 491.985229 
L 28.874975 448.311813 
L 30.516902 422.536662 
L 30.547881 380.512855 
L 34.823085 356.098632 
L 45.0464 330.15852 
L 60.009614 296.630203 
L 60.56725 265.617542 
L 49.042786 232.666588 
L 51.056469 213.283675 
L 63.665224 188.910692 
L 90.36976 180.12652 
L 105.85963 156.28966 
L 131.386936 156.042219 
L 156.294647 160.991048 
L 175.09935 188.127127 
L 198.334155 194.643085 
L 206.419867 188.66325 
" style="fill:none;stroke:#000000;stroke-width:3;"/>
   </g>
  </g>
 </g>
 <defs>
  <clipPath id="pb1e0735fbe">
   <rect height="543.6" width="476.849457" x="7.2" y="7.2"/>
  </clipPath>
 </defs>
</svg>
