<?xml version="1.0" encoding="utf-8" standalone="no"?>
<!DOCTYPE svg PUBLIC "-//W3C//DTD SVG 1.1//EN"
  "http://www.w3.org/Graphics/SVG/1.1/DTD/svg11.dtd">
<svg height="558pt" version="1.1" viewBox="0 0 437.712783 558" width="437.712783pt" xmlns="http://www.w3.org/2000/svg" xmlns:xlink="http://www.w3.org/1999/xlink">
 <metadata>
  <rdf:RDF xmlns:cc="http://creativecommons.org/ns#" xmlns:dc="http://purl.org/dc/elements/1.1/" xmlns:rdf="http://www.w3.org/1999/02/22-rdf-syntax-ns#">
   <cc:Work>
    <dc:type rdf:resource="http://purl.org/dc/dcmitype/StillImage"/>
    <dc:date>2021-05-26T19:21:33.621797</dc:date>
    <dc:format>image/svg+xml</dc:format>
    <dc:creator>
     <cc:Agent>
      <dc:title>Matplotlib v3.4.2, https://matplotlib.org/</dc:title>
     </cc:Agent>
    </dc:creator>
   </cc:Work>
  </rdf:RDF>
 </metadata>
 <defs>
  <style type="text/css">*{stroke-linecap:butt;stroke-linejoin:round;}</style>
 </defs>
 <g id="figure_1">
  <g id="patch_1">
   <path d="M 0 558 
L 437.712783 558 
L 437.712783 0 
L 0 0 
z
" style="fill:none;"/>
  </g>
  <g id="axes_1">
   <g id="LineCollection_1">
    <path clip-path="url(#p3b7b26c4a3)" d="M 134.143504 196.062927 
L 139.550709 170.348812 
L 170.463602 164.916253 
L 190.46006 149.252373 
L 202.872828 124.353143 
L 210.592549 100.40461 
L 221.032877 72.517472 
L 239.328956 54.182584 
L 264.086476 39.152503 
L 290.034262 32.723975 
L 316.526168 31.909091 
L 344.004295 36.390952 
L 369.271929 50.379793 
L 387.602016 72.245844 
L 403.143481 94.24771 
L 408.618702 123.311902 
L 411.271293 149.569273 
L 395.627805 168.175789 
L 370.700247 177.139512 
L 343.256128 183.88494 
L 316.254108 192.577035 
L 294.319217 210.685566 
L 281.804427 234.0003 
L 276.363213 260.93674 
L 281.600381 289.412405 
L 278.879775 314.809621 
L 270.105818 338.712882 
L 262.828196 365.24188 
L 255.856641 391.046537 
L 244.804177 419.612745 
L 227.120234 445.68903 
L 204.879275 463.209034 
L 183.14843 479.41617 
L 170.021503 498.747027 
L 157.812781 522.786102 
L 131.014806 520.205636 
L 106.223279 515.678504 
L 80.17347 508.978347 
L 62.897619 487.293381 
L 50.620881 462.982678 
L 51.267025 435.140811 
L 62.115444 412.414604 
L 74.800272 390.820181 
L 72.487757 363.023585 
L 58.816709 339.573037 
L 35.215446 324.67877 
L 26.44149 312.41024 
L 48.002297 324.452413 
L 63.101664 345.096139 
L 75.446416 365.830407 
L 74.426189 394.079716 
L 61.061209 418.299877 
L 51.879162 447.228255 
L 58.714686 473.395083 
L 73.439969 500.422066 
L 97.449322 513.233852 
L 120.778524 518.938039 
L 150.161075 521.609048 
L 166.382692 504.858656 
L 177.979277 482.811519 
L 202.872828 475.522836 
L 228.71859 482.177721 
L 256.672823 479.053999 
L 282.552593 480.366868 
L 310.064728 481.634465 
L 328.496837 497.796329 
L 341.521741 519.707652 
L 365.87117 526.090909 
L 373.284823 502.414004 
L 379.338173 477.876945 
L 378.862067 448.40531 
L 379.508211 417.711349 
L 380.562446 391.544522 
L 372.332611 361.710717 
L 356.076987 341.066991 
L 332.475724 331.016756 
L 307.07206 332.51071 
L 278.233631 337.943269 
L 279.559926 313.904194 
L 284.15095 287.918452 
L 277.791532 261.389453 
L 278.573706 234.045571 
L 291.632618 214.443086 
L 309.554614 197.239981 
L 333.291906 186.646491 
L 357.539313 180.353776 
L 383.31706 174.513775 
L 408.210611 165.595323 
L 405.864087 137.481828 
L 406.8163 111.99407 
L 397.66826 86.823212 
L 379.202143 64.640261 
L 358.865608 44.675605 
L 334.176104 36.164596 
L 308.874462 32.633432 
L 283.334768 35.576068 
L 256.740838 43.724908 
L 235.044001 60.746927 
L 219.196467 83.744762 
L 209.708352 111.496086 
L 203.68901 137.843999 
L 186.515181 159.619508 
L 161.009494 169.760285 
L 134.313542 171.571138 
L 106.121256 171.797495 
L 78.745152 175.781372 
L 83.200145 200.95223 
L 104.454884 215.439055 
L 127.920116 207.244945 
" style="fill:none;stroke:#000000;stroke-width:3;"/>
   </g>
  </g>
 </g>
 <defs>
  <clipPath id="p3b7b26c4a3">
   <rect height="543.6" width="423.312783" x="7.2" y="7.2"/>
  </clipPath>
 </defs>
</svg>
