<?xml version="1.0" encoding="utf-8" standalone="no"?>
<!DOCTYPE svg PUBLIC "-//W3C//DTD SVG 1.1//EN"
  "http://www.w3.org/Graphics/SVG/1.1/DTD/svg11.dtd">
<svg height="558pt" version="1.1" viewBox="0 0 439.026296 558" width="439.026296pt" xmlns="http://www.w3.org/2000/svg" xmlns:xlink="http://www.w3.org/1999/xlink">
 <metadata>
  <rdf:RDF xmlns:cc="http://creativecommons.org/ns#" xmlns:dc="http://purl.org/dc/elements/1.1/" xmlns:rdf="http://www.w3.org/1999/02/22-rdf-syntax-ns#">
   <cc:Work>
    <dc:type rdf:resource="http://purl.org/dc/dcmitype/StillImage"/>
    <dc:date>2021-05-26T19:21:34.066880</dc:date>
    <dc:format>image/svg+xml</dc:format>
    <dc:creator>
     <cc:Agent>
      <dc:title>Matplotlib v3.4.2, https://matplotlib.org/</dc:title>
     </cc:Agent>
    </dc:creator>
   </cc:Work>
  </rdf:RDF>
 </metadata>
 <defs>
  <style type="text/css">*{stroke-linecap:butt;stroke-linejoin:round;}</style>
 </defs>
 <g id="figure_1">
  <g id="patch_1">
   <path d="M 0 558 
L 439.026296 558 
L 439.026296 0 
L 0 0 
z
" style="fill:none;"/>
  </g>
  <g id="axes_1">
   <g id="LineCollection_1">
    <path clip-path="url(#p296ccacaf4)" d="M 136.198144 195.772012 
L 138.043514 171.160729 
L 169.175576 165.383219 
L 189.577158 148.733072 
L 202.050487 123.075469 
L 207.82581 93.369059 
L 219.513148 67.483995 
L 238.616137 49.83302 
L 264.519654 35.912405 
L 292.166019 32.000075 
L 319.949078 33.13738 
L 349.201597 37.322663 
L 373.704 53.608872 
L 390.688232 75.672592 
L 407.706637 98.600663 
L 407.945852 128.989455 
L 412.525101 157.194622 
L 389.423812 169.795963 
L 361.538233 179.03088 
L 334.30195 185.672742 
L 309.252771 195.681027 
L 289.910567 215.470136 
L 276.617074 239.808466 
L 276.617074 264.965655 
L 281.298844 292.260978 
L 278.633311 317.736612 
L 266.53589 341.028621 
L 260.179618 367.277623 
L 253.618306 393.435641 
L 241.86262 424.37034 
L 224.297439 447.48038 
L 202.392223 464.40348 
L 180.897088 480.826166 
L 166.441696 500.478798 
L 156.257992 524.362205 
L 130.01274 522.542517 
L 103.835836 517.629359 
L 75.916083 510.532575 
L 60.948088 489.469684 
L 49.260749 465.586277 
L 48.78232 440.019658 
L 57.667431 415.726821 
L 71.576048 391.934398 
L 72.840467 365.958349 
L 59.171066 342.529864 
L 39.179565 325.652256 
L 26.501195 314.279205 
L 46.390175 323.969044 
L 61.46069 344.895458 
L 73.35307 366.549748 
L 71.98613 393.708594 
L 59.034371 416.818634 
L 50.490995 441.566393 
L 51.892109 466.132183 
L 64.809694 492.335693 
L 82.272354 510.123145 
L 108.6543 515.17278 
L 133.156703 520.586352 
L 159.606995 520.631845 
L 171.533548 497.43082 
L 185.88642 481.554041 
L 210.115434 480.644197 
L 235.027919 482.145439 
L 261.17065 480.826166 
L 287.21086 481.826994 
L 311.918304 482.418393 
L 328.902536 500.569782 
L 342.435244 520.54086 
L 366.014962 526.090909 
L 373.362265 504.664081 
L 378.659158 478.64254 
L 378.317423 452.302553 
L 379.342628 425.098215 
L 378.419944 398.758229 
L 376.301186 372.78218 
L 365.502359 349.899601 
L 345.647553 335.296603 
L 320.188292 328.42728 
L 292.541927 336.297432 
L 275.181787 326.471115 
L 278.291576 305.908639 
L 280.581201 281.479325 
L 276.241166 257.777887 
L 278.018188 235.532199 
L 290.183955 214.10537 
L 306.894799 198.365067 
L 326.886299 187.856368 
L 351.320355 182.624765 
L 376.164492 174.618137 
L 400.871936 166.884462 
L 407.262381 146.913384 
L 406.305523 120.846351 
L 403.947552 96.28056 
L 390.27815 75.581607 
L 372.91801 54.79167 
L 353.951715 40.370641 
L 330.30365 34.001732 
L 306.655584 31.909091 
L 280.820415 33.273857 
L 254.370123 43.828049 
L 232.840815 60.114258 
L 218.590464 80.949687 
L 208.816841 105.333509 
L 203.485775 130.445206 
L 190.944099 152.144988 
L 169.722352 168.886119 
L 144.194744 169.795963 
L 119.248086 169.613994 
L 94.472296 168.977103 
L 74.925051 179.804248 
L 82.067313 203.096257 
L 102.092987 216.425473 
L 126.937125 207.054078 
" style="fill:none;stroke:#000000;stroke-width:3;"/>
   </g>
  </g>
 </g>
 <defs>
  <clipPath id="p296ccacaf4">
   <rect height="543.6" width="424.626296" x="7.2" y="7.2"/>
  </clipPath>
 </defs>
</svg>
