<?xml version="1.0" encoding="utf-8" standalone="no"?>
<!DOCTYPE svg PUBLIC "-//W3C//DTD SVG 1.1//EN"
  "http://www.w3.org/Graphics/SVG/1.1/DTD/svg11.dtd">
<svg height="558pt" version="1.1" viewBox="0 0 307.653463 558" width="307.653463pt" xmlns="http://www.w3.org/2000/svg" xmlns:xlink="http://www.w3.org/1999/xlink">
 <metadata>
  <rdf:RDF xmlns:cc="http://creativecommons.org/ns#" xmlns:dc="http://purl.org/dc/elements/1.1/" xmlns:rdf="http://www.w3.org/1999/02/22-rdf-syntax-ns#">
   <cc:Work>
    <dc:type rdf:resource="http://purl.org/dc/dcmitype/StillImage"/>
    <dc:date>2021-05-26T19:21:34.753720</dc:date>
    <dc:format>image/svg+xml</dc:format>
    <dc:creator>
     <cc:Agent>
      <dc:title>Matplotlib v3.4.2, https://matplotlib.org/</dc:title>
     </cc:Agent>
    </dc:creator>
   </cc:Work>
  </rdf:RDF>
 </metadata>
 <defs>
  <style type="text/css">*{stroke-linecap:butt;stroke-linejoin:round;}</style>
 </defs>
 <g id="figure_1">
  <g id="patch_1">
   <path d="M 0 558 
L 307.653463 558 
L 307.653463 0 
L 0 0 
z
" style="fill:none;"/>
  </g>
  <g id="axes_1">
   <g id="LineCollection_1">
    <path clip-path="url(#pe3bea44bcc)" d="M 99.248363 216.484068 
L 102.627128 219.943524 
L 110.121711 223.913707 
L 113.361823 229.126982 
L 107.888661 241.365168 
L 101.189511 254.027354 
L 93.687631 267.046087 
L 88.506371 277.193181 
L 83.186458 284.642093 
L 81.799924 288.785731 
L 80.55934 294.663915 
L 80.274736 307.971738 
L 83.92351 312.944103 
L 86.550628 320.701379 
L 79.508493 334.587384 
L 80.690696 335.194475 
L 81.062871 332.486656 
L 81.63208 347.047207 
L 84.397851 358.456666 
L 91.885136 363.197758 
L 89.126663 370.11667 
L 83.259433 383.915948 
L 72.400681 401.801045 
L 64.577708 418.067233 
L 57.411515 433.369784 
L 48.012272 448.017062 
L 48.727432 450.946518 
L 47.319005 451.939064 
L 45.932471 452.960519 
L 34.285583 474.382163 
L 27.163175 488.152531 
L 20.529703 498.945263 
L 29.717317 506.066538 
L 35.358322 509.342903 
L 47.997677 516.097996 
L 55.346309 524.105817 
L 52.850547 526.090909 
L 44.217547 524.818909 
L 35.569951 519.624907 
L 38.138688 511.433995 
L 43.130212 502.934719 
L 49.53746 492.671988 
L 54.499793 484.153439 
L 63.461183 467.299433 
L 69.386793 456.525974 
L 75.275915 451.563245 
L 76.793805 447.323244 
L 78.027091 441.840151 
L 81.259905 434.68033 
L 86.769554 421.863962 
L 94.074401 411.119412 
L 98.09535 403.063409 
L 104.495301 392.646496 
L 104.677739 383.19322 
L 104.633954 379.936128 
L 106.137249 377.9414 
L 118.725521 369.577033 
L 122.126179 353.792664 
L 121.899955 343.452842 
L 128.898304 331.07011 
L 136.436672 319.68956 
L 147.682195 320.055742 
L 159.96397 316.499923 
L 168.436424 305.02301 
L 177.018342 295.309551 
L 176.33967 281.741546 
L 182.236089 269.320269 
L 189.942301 259.626084 
L 192.372385 248.216625 
L 195.970076 238.291167 
L 204.179819 227.932072 
L 210.514091 215.404795 
L 218.628966 206.77061 
L 231.392379 206.057519 
L 241.127309 198.541152 
L 247.841054 186.447511 
L 254.554799 174.161143 
L 261.509363 161.653139 
L 264.982996 145.73386 
L 262.47264 129.564036 
L 269.113409 113.808576 
L 278.833744 102.977299 
L 279.840806 88.522748 
L 285.642357 76.400198 
L 287.12376 66.098922 
L 274.644951 65.790558 
L 282.643065 52.858553 
L 281.482755 40.071094 
L 272.732993 34.212183 
L 263.238882 31.909091 
L 255.401315 34.347092 
L 255.379422 42.422368 
L 263.056444 48.107824 
L 265.902488 58.091101 
L 258.736295 70.098014 
L 247.592937 81.864018 
L 236.47877 87.144748 
L 228.925807 96.492024 
L 224.788097 106.109118 
L 215.512912 115.986395 
L 212.374966 128.301672 
L 206.463952 135.461493 
L 198.560706 139.691858 
L 189.424175 150.966407 
L 189.059298 165.825686 
L 189.832838 176.820781 
L 182.345553 187.497875 
L 174.4642 199.090425 
L 170.275407 213.29443 
L 159.205025 223.605343 
L 148.565199 235.400257 
L 139.041897 246.231533 
L 134.349573 253.767173 
L 127.51177 255.867901 
L 116.915729 250.991899 
L 107.647842 245.836442 
L 96.526377 239.698076 
L 86.791447 234.282438 
L 91.885136 224.925526 
L 95.840408 215.982977 
L 97.67939 217.399523 
" style="fill:none;stroke:#000000;stroke-width:3;"/>
   </g>
  </g>
 </g>
 <defs>
  <clipPath id="pe3bea44bcc">
   <rect height="543.6" width="293.253463" x="7.2" y="7.2"/>
  </clipPath>
 </defs>
</svg>
