<?xml version="1.0" encoding="utf-8" standalone="no"?>
<!DOCTYPE svg PUBLIC "-//W3C//DTD SVG 1.1//EN"
  "http://www.w3.org/Graphics/SVG/1.1/DTD/svg11.dtd">
<svg height="558pt" version="1.1" viewBox="0 0 238.364884 558" width="238.364884pt" xmlns="http://www.w3.org/2000/svg" xmlns:xlink="http://www.w3.org/1999/xlink">
 <metadata>
  <rdf:RDF xmlns:cc="http://creativecommons.org/ns#" xmlns:dc="http://purl.org/dc/elements/1.1/" xmlns:rdf="http://www.w3.org/1999/02/22-rdf-syntax-ns#">
   <cc:Work>
    <dc:type rdf:resource="http://purl.org/dc/dcmitype/StillImage"/>
    <dc:date>2021-05-26T19:21:40.676129</dc:date>
    <dc:format>image/svg+xml</dc:format>
    <dc:creator>
     <cc:Agent>
      <dc:title>Matplotlib v3.4.2, https://matplotlib.org/</dc:title>
     </cc:Agent>
    </dc:creator>
   </cc:Work>
  </rdf:RDF>
 </metadata>
 <defs>
  <style type="text/css">*{stroke-linecap:butt;stroke-linejoin:round;}</style>
 </defs>
 <g id="figure_1">
  <g id="patch_1">
   <path d="M 0 558 
L 238.364884 558 
L 238.364884 0 
L 0 0 
z
" style="fill:none;"/>
  </g>
  <g id="axes_1">
   <g id="LineCollection_1">
    <path clip-path="url(#p7abb3bbc49)" d="M 220.466669 37.826964 
L 220.984662 39.019305 
L 217.584503 36.117356 
L 215.997319 35.705297 
L 215.094152 36.573251 
L 214.967974 36.213795 
L 214.93477 36.23133 
L 215.207048 35.591323 
L 215.392994 36.266399 
L 215.346508 35.494883 
L 215.021102 36.012149 
L 212.52411 40.448362 
L 207.496922 49.759148 
L 203.306492 56.431002 
L 199.255521 64.339033 
L 195.078373 70.59006 
L 189.838675 80.80387 
L 184.313416 90.737129 
L 179.246382 100.451207 
L 174.75711 110.665017 
L 164.729298 126.419709 
L 160.831069 133.170467 
L 156.401565 139.693278 
L 152.74905 145.979374 
L 150.969279 151.1608 
L 151.048971 160.874878 
L 153.014687 163.242027 
L 155.133146 164.907799 
L 156.992608 170.667862 
L 157.523883 173.394467 
L 157.138708 180.206596 
L 159.768519 181.574282 
L 162.338561 183.994034 
L 163.633543 191.516308 
L 158.480177 204.070965 
L 142.588419 231.57373 
L 142.24309 240.376018 
L 142.130194 240.200674 
L 144.135757 244.461542 
L 139.752739 251.221067 
L 138.603858 252.430944 
L 135.794742 262.504478 
L 133.802461 272.306228 
L 130.787477 280.494811 
L 127.360754 281.730989 
L 126.955657 282.195651 
L 126.915811 283.002235 
L 126.889247 282.984701 
L 126.557201 282.511271 
L 128.476431 284.624171 
L 134.971266 289.735459 
L 142.575137 291.523972 
L 142.973593 293.461527 
L 150.663796 296.7317 
L 158.446973 302.114772 
L 165.851616 308.155386 
L 162.398329 315.809168 
L 160.857632 316.352735 
L 159.927901 316.422873 
L 156.620715 322.542392 
L 151.872447 327.153949 
L 148.153523 343.899337 
L 138.630421 359.163064 
L 131.87659 370.656888 
L 122.273797 388.436808 
L 120.401054 393.811113 
L 116.376647 400.526802 
L 105.379258 419.709477 
L 99.389134 428.730945 
L 93.32596 441.215465 
L 86.977225 452.595314 
L 80.953897 463.037072 
L 75.43528 473.347321 
L 71.822611 479.335332 
L 63.899975 492.100402 
L 61.110782 499.131711 
L 58.04267 504.523551 
L 54.615947 507.855094 
L 53.433861 509.494564 
L 52.915868 511.888015 
L 51.707217 513.50995 
L 49.947369 514.483111 
L 48.81841 516.455736 
L 48.778565 518.787816 
L 49.230148 520.094131 
L 48.187522 520.620165 
L 46.97223 521.382913 
L 53.878803 526.090909 
L 57.790314 524.337465 
L 61.934258 519.12097 
L 56.528536 513.694062 
L 55.578883 511.633765 
L 55.997262 510.064433 
L 56.794174 509.214013 
L 56.030466 510.292381 
L 55.572242 510.70444 
L 55.06089 510.888552 
L 55.054249 510.48526 
L 55.140581 510.888552 
L 55.167145 510.423889 
L 54.99448 510.125804 
L 55.067531 509.591003 
L 54.63587 509.459495 
L 54.56282 510.467725 
L 54.416719 510.371286 
L 54.755407 510.739509 
L 54.841739 509.529633 
L 55.180427 510.01183 
L 55.180427 510.01183 
L 55.778111 510.608001 
L 56.176567 511.326913 
L 55.552319 511.309378 
L 55.326527 511.098965 
L 55.48591 510.853483 
L 55.240195 510.336217 
L 54.99448 510.695673 
L 54.390155 510.86225 
L 54.084672 510.494027 
L 49.993856 509.100039 
L 43.837709 505.926306 
L 35.383798 500.315286 
L 37.196773 493.108632 
L 41.214539 485.174299 
L 42.575931 475.854746 
L 35.689281 471.137982 
L 28.709658 467.45575 
L 24.904402 460.757595 
L 20.787022 452.472573 
L 17.380222 447.168406 
L 18.808023 438.059266 
L 23.297295 428.923824 
L 26.338844 420.594966 
L 28.37097 416.018478 
L 32.993061 408.846893 
L 36.785035 401.622705 
L 48.001575 382.492634 
L 52.643589 374.312818 
L 59.072015 365.300118 
L 64.676964 355.23535 
L 69.783844 344.346465 
L 74.552035 333.483881 
L 81.007024 323.322674 
L 92.203642 317.685353 
L 88.989429 308.207989 
L 92.83453 304.534525 
L 90.164874 303.657803 
L 93.697852 305.498919 
L 94.275613 310.44363 
L 115.925063 314.003121 
L 109.197795 314.380111 
L 113.972628 320.674974 
L 111.701428 313.827776 
L 113.607377 313.292976 
L 114.603517 310.469932 
L 114.537108 308.777858 
L 114.656644 307.392638 
L 114.922282 306.112624 
L 114.656644 305.884676 
L 113.959346 305.726866 
L 114.218343 305.36741 
L 114.258188 304.850144 
L 115.639503 303.114235 
L 116.25711 301.220516 
L 117.997035 300.396397 
L 117.957189 299.984338 
L 118.621283 300.045709 
L 118.734179 299.493374 
L 119.889701 296.845674 
L 122.466384 293.759613 
L 123.814494 293.128373 
L 121.928469 289.235728 
L 120.108852 287.201733 
L 120.135416 284.887187 
L 122.977736 285.220342 
L 128.569404 283.826354 
L 132.786398 283.826354 
L 137.9132 286.105831 
L 143.544714 291.918497 
L 143.099771 300.150915 
L 152.762332 273.174183 
L 142.037221 264.556007 
L 160.777941 260.645828 
L 159.695469 268.606462 
L 174.75711 247.047871 
L 169.882664 254.622748 
L 178.070937 233.493751 
L 179.432329 230.355087 
L 184.233725 233.669096 
L 185.070483 245.06648 
L 195.257678 244.689489 
L 198.378917 240.218208 
L 191.239912 234.677326 
L 186.013496 229.706313 
L 180.674184 228.654246 
L 177.147847 228.76822 
L 171.383515 224.621326 
L 165.194163 221.263481 
L 167.94351 214.197103 
L 171.343669 206.034822 
L 169.816254 199.853933 
L 161.33578 195.73334 
L 157.039094 190.97274 
L 156.2289 188.097093 
L 155.544884 186.931053 
L 155.578089 187.299276 
L 156.096082 188.368876 
L 156.594152 188.272437 
L 155.106582 186.746941 
L 154.927277 184.704179 
L 154.322952 183.967733 
L 154.176851 184.19568 
L 152.861946 184.60774 
L 152.855305 184.13431 
L 152.436926 184.476231 
L 154.542103 182.284427 
L 156.01639 178.488221 
L 153.891291 170.48375 
L 147.947654 163.8645 
L 149.262559 150.94162 
L 148.239855 139.851088 
L 146.307343 136.44064 
L 144.959233 128.970969 
L 141.313359 123.359949 
L 155.418706 101.696152 
L 160.425971 91.07905 
L 167.226289 80.067423 
L 172.612088 70.248138 
L 177.679122 59.385554 
L 183.211021 49.767915 
L 189.559755 37.625318 
L 195.284242 32.189642 
L 198.066794 31.909091 
L 207.118389 37.826964 
L 214.01168 37.046681 
L 219.33771 37.090517 
L 220.772152 37.511344 
L 220.772152 37.511344 
" style="fill:none;stroke:#000000;stroke-width:3;"/>
   </g>
  </g>
 </g>
 <defs>
  <clipPath id="p7abb3bbc49">
   <rect height="543.6" width="223.964884" x="7.2" y="7.2"/>
  </clipPath>
 </defs>
</svg>
