<?xml version="1.0" encoding="utf-8" standalone="no"?>
<!DOCTYPE svg PUBLIC "-//W3C//DTD SVG 1.1//EN"
  "http://www.w3.org/Graphics/SVG/1.1/DTD/svg11.dtd">
<svg height="558pt" version="1.1" viewBox="0 0 398.982472 558" width="398.982472pt" xmlns="http://www.w3.org/2000/svg" xmlns:xlink="http://www.w3.org/1999/xlink">
 <metadata>
  <rdf:RDF xmlns:cc="http://creativecommons.org/ns#" xmlns:dc="http://purl.org/dc/elements/1.1/" xmlns:rdf="http://www.w3.org/1999/02/22-rdf-syntax-ns#">
   <cc:Work>
    <dc:type rdf:resource="http://purl.org/dc/dcmitype/StillImage"/>
    <dc:date>2021-05-26T19:21:41.819136</dc:date>
    <dc:format>image/svg+xml</dc:format>
    <dc:creator>
     <cc:Agent>
      <dc:title>Matplotlib v3.4.2, https://matplotlib.org/</dc:title>
     </cc:Agent>
    </dc:creator>
   </cc:Work>
  </rdf:RDF>
 </metadata>
 <defs>
  <style type="text/css">*{stroke-linecap:butt;stroke-linejoin:round;}</style>
 </defs>
 <g id="figure_1">
  <g id="patch_1">
   <path d="M 0 558 
L 398.982472 558 
L 398.982472 0 
L 0 0 
z
" style="fill:none;"/>
  </g>
  <g id="axes_1">
   <g id="LineCollection_1">
    <path clip-path="url(#p6e50b95b0f)" d="M 249.702451 31.909091 
L 255.946444 49.655242 
L 256.616215 69.79798 
L 252.770434 88.086217 
L 251.949424 109.655494 
L 250.134561 127.629892 
L 238.229923 145.490167 
L 223.494962 158.443146 
L 210.034727 172.451764 
L 198.000456 188.657253 
L 182.271641 203.236486 
L 166.153928 215.98975 
L 152.672087 232.166708 
L 149.452865 252.765938 
L 151.202912 273.935785 
L 152.153555 294.791792 
L 141.761302 312.423821 
L 124.00157 318.472348 
L 110.843812 333.907506 
L 103.670781 350.027402 
L 96.735411 367.317061 
L 90.275362 385.833544 
L 78.759623 404.492681 
L 65.169755 417.44566 
L 51.147776 429.913615 
L 38.681395 444.835218 
L 28.461986 460.41303 
L 24.681021 477.360319 
L 33.042355 492.053676 
L 48.900803 506.661441 
L 63.89503 518.302003 
L 82.994304 526.090909 
L 101.639863 522.610153 
L 109.957986 506.518787 
L 117.887209 487.774058 
L 126.507809 470.484399 
L 137.159328 456.989335 
L 150.92204 448.087729 
L 166.499616 449.057775 
L 182.725357 459.471514 
L 197.525134 455.220426 
L 210.682892 444.89228 
L 217.596657 430.227454 
L 228.096937 415.790874 
L 242.983136 405.148889 
L 254.693325 395.44842 
L 262.212044 379.414116 
L 265.193604 361.468249 
L 258.08539 342.666458 
L 259.230483 326.974524 
L 269.385074 311.68202 
L 282.758887 298.985819 
L 295.959857 287.773218 
L 296.845683 272.737492 
L 301.793345 257.444988 
L 305.098989 240.583291 
L 311.105322 225.091072 
L 317.52216 210.083876 
L 328.346522 196.018197 
L 339.970289 183.978203 
L 349.930431 168.799823 
L 356.368874 152.280495 
L 364.773419 137.900977 
L 374.301451 124.120605 
L 365.162318 115.304591 
L 350.31933 109.51284 
L 341.309831 94.933607 
L 326.250787 86.203185 
L 310.305918 84.633991 
L 296.067884 77.758071 
L 291.422699 62.836468 
L 281.527373 49.455527 
L 268.650487 43.207284 
L 255.211857 39.555343 
L 251.992635 35.874871 
" style="fill:none;stroke:#000000;stroke-width:3;"/>
   </g>
  </g>
 </g>
 <defs>
  <clipPath id="p6e50b95b0f">
   <rect height="543.6" width="384.582472" x="7.2" y="7.2"/>
  </clipPath>
 </defs>
</svg>
