<?xml version="1.0" encoding="utf-8" standalone="no"?>
<!DOCTYPE svg PUBLIC "-//W3C//DTD SVG 1.1//EN"
  "http://www.w3.org/Graphics/SVG/1.1/DTD/svg11.dtd">
<svg height="558pt" version="1.1" viewBox="0 0 432.703291 558" width="432.703291pt" xmlns="http://www.w3.org/2000/svg" xmlns:xlink="http://www.w3.org/1999/xlink">
 <metadata>
  <rdf:RDF xmlns:cc="http://creativecommons.org/ns#" xmlns:dc="http://purl.org/dc/elements/1.1/" xmlns:rdf="http://www.w3.org/1999/02/22-rdf-syntax-ns#">
   <cc:Work>
    <dc:type rdf:resource="http://purl.org/dc/dcmitype/StillImage"/>
    <dc:date>2021-05-26T19:21:42.146411</dc:date>
    <dc:format>image/svg+xml</dc:format>
    <dc:creator>
     <cc:Agent>
      <dc:title>Matplotlib v3.4.2, https://matplotlib.org/</dc:title>
     </cc:Agent>
    </dc:creator>
   </cc:Work>
  </rdf:RDF>
 </metadata>
 <defs>
  <style type="text/css">*{stroke-linecap:butt;stroke-linejoin:round;}</style>
 </defs>
 <g id="figure_1">
  <g id="patch_1">
   <path d="M 0 558 
L 432.703291 558 
L 432.703291 0 
L 0 0 
z
" style="fill:none;"/>
  </g>
  <g id="axes_1">
   <g id="LineCollection_1">
    <path clip-path="url(#p0221d785f5)" d="M 205.888859 76.904859 
L 201.250905 102.706291 
L 204.683722 137.429713 
L 192.230632 171.381504 
L 164.366388 196.411304 
L 140.409712 218.547486 
L 119.520658 244.204237 
L 97.645583 271.066663 
L 69.233549 291.99717 
L 43.487426 314.95321 
L 29.865718 347.313511 
L 32.349032 381.024167 
L 34.64975 415.072411 
L 31.180414 446.03413 
L 26.213786 468.99017 
L 47.869745 492.332026 
L 71.972499 509.934872 
L 101.114919 507.812885 
L 130.038224 513.551895 
L 160.166666 523.727787 
L 186.862292 526.090909 
L 205.961898 508.246928 
L 217.575043 480.998687 
L 237.952826 456.54761 
L 260.96 439.909304 
L 275.786845 417.242625 
L 278.087562 389.608568 
L 286.925239 362.070965 
L 292.877889 331.880879 
L 305.623133 300.91916 
L 323.846275 274.008508 
L 346.013505 249.364524 
L 363.834935 223.080822 
L 376.981891 194.72336 
L 391.66266 167.041076 
L 406.489505 144.711987 
L 379.611283 132.2212 
L 357.845766 117.463745 
L 341.777263 92.771534 
L 315.812024 85.633942 
L 287.874741 80.184293 
L 267.350881 61.182865 
L 259.462707 33.645262 
L 254.715195 31.909091 
" style="fill:none;stroke:#000000;stroke-width:3;"/>
   </g>
  </g>
 </g>
 <defs>
  <clipPath id="p0221d785f5">
   <rect height="543.6" width="418.303291" x="7.2" y="7.2"/>
  </clipPath>
 </defs>
</svg>
