<?xml version="1.0" encoding="utf-8" standalone="no"?>
<!DOCTYPE svg PUBLIC "-//W3C//DTD SVG 1.1//EN"
  "http://www.w3.org/Graphics/SVG/1.1/DTD/svg11.dtd">
<svg height="243.061672pt" version="1.1" viewBox="0 0 572.4 243.061672" width="572.4pt" xmlns="http://www.w3.org/2000/svg" xmlns:xlink="http://www.w3.org/1999/xlink">
 <metadata>
  <rdf:RDF xmlns:cc="http://creativecommons.org/ns#" xmlns:dc="http://purl.org/dc/elements/1.1/" xmlns:rdf="http://www.w3.org/1999/02/22-rdf-syntax-ns#">
   <cc:Work>
    <dc:type rdf:resource="http://purl.org/dc/dcmitype/StillImage"/>
    <dc:date>2021-05-26T19:20:28.122125</dc:date>
    <dc:format>image/svg+xml</dc:format>
    <dc:creator>
     <cc:Agent>
      <dc:title>Matplotlib v3.4.2, https://matplotlib.org/</dc:title>
     </cc:Agent>
    </dc:creator>
   </cc:Work>
  </rdf:RDF>
 </metadata>
 <defs>
  <style type="text/css">*{stroke-linecap:butt;stroke-linejoin:round;}</style>
 </defs>
 <g id="figure_1">
  <g id="patch_1">
   <path d="M 0 243.061672 
L 572.4 243.061672 
L 572.4 0 
L 0 0 
z
" style="fill:none;"/>
  </g>
  <g id="axes_1">
   <g id="LineCollection_1">
    <path clip-path="url(#pd2e5f22d44)" d="M 32.563636 183.127558 
L 46.448378 174.431155 
L 61.342919 159.623766 
L 82.472972 155.896737 
L 107.945161 146.562374 
L 125.439936 126.987073 
L 147.302093 117.350519 
L 150.811146 92.772268 
L 157.071902 72.458277 
L 177.999995 67.623211 
L 198.195983 58.322425 
L 218.94736 38.679971 
L 242.324216 32.871177 
L 263.201819 20.716359 
L 289.002193 21.421473 
L 311.31876 22.663816 
L 337.346339 25.014195 
L 357.163653 41.701887 
L 377.91503 52.647938 
L 401.897766 43.548613 
L 422.901593 28.002534 
L 450.065197 20.447744 
L 470.33692 17.593712 
L 491.567952 22.260894 
L 512.142615 32.804023 
L 532.313358 51.204134 
L 539.836364 73.264121 
L 527.466321 93.611689 
L 523.831043 115.168024 
L 521.912424 141.223655 
L 510.779386 165.096792 
L 505.705144 191.286731 
L 499.267673 215.864982 
L 482.353533 225.467959 
L 458.522267 219.424127 
L 434.892961 218.081053 
L 425.375602 201.124747 
L 422.724879 176.982995 
L 406.088433 161.974146 
L 386.851755 154.150741 
L 367.438362 147.67041 
L 345.980124 137.362318 
L 326.844426 143.976957 
L 309.021466 127.960802 
L 295.565889 107.747541 
L 277.08656 97.640911 
L 259.036396 88.272971 
L 245.505084 68.899131 
L 243.71269 46.939875 
L 225.359586 37.84055 
L 204.633454 47.644989 
L 191.177877 66.481599 
L 166.765976 64.634872 
L 149.574142 79.778029 
L 154.193974 105.363585 
L 138.744043 118.18994 
L 120.138489 137.160857 
L 103.199104 154.889431 
L 77.954119 156.131775 
L 58.717441 166.070521 
L 41.449871 182.959674 
L 34.381275 176.177151 
" style="fill:none;stroke:#000000;stroke-width:3;"/>
   </g>
  </g>
 </g>
 <defs>
  <clipPath id="pd2e5f22d44">
   <rect height="228.661672" width="558" x="7.2" y="7.2"/>
  </clipPath>
 </defs>
</svg>
