<?xml version="1.0" encoding="utf-8" standalone="no"?>
<!DOCTYPE svg PUBLIC "-//W3C//DTD SVG 1.1//EN"
  "http://www.w3.org/Graphics/SVG/1.1/DTD/svg11.dtd">
<svg height="558pt" version="1.1" viewBox="0 0 392.445199 558" width="392.445199pt" xmlns="http://www.w3.org/2000/svg" xmlns:xlink="http://www.w3.org/1999/xlink">
 <metadata>
  <rdf:RDF xmlns:cc="http://creativecommons.org/ns#" xmlns:dc="http://purl.org/dc/elements/1.1/" xmlns:rdf="http://www.w3.org/1999/02/22-rdf-syntax-ns#">
   <cc:Work>
    <dc:type rdf:resource="http://purl.org/dc/dcmitype/StillImage"/>
    <dc:date>2021-05-26T19:21:43.372976</dc:date>
    <dc:format>image/svg+xml</dc:format>
    <dc:creator>
     <cc:Agent>
      <dc:title>Matplotlib v3.4.2, https://matplotlib.org/</dc:title>
     </cc:Agent>
    </dc:creator>
   </cc:Work>
  </rdf:RDF>
 </metadata>
 <defs>
  <style type="text/css">*{stroke-linecap:butt;stroke-linejoin:round;}</style>
 </defs>
 <g id="figure_1">
  <g id="patch_1">
   <path d="M 0 558 
L 392.445199 558 
L 392.445199 0 
L 0 0 
z
" style="fill:none;"/>
  </g>
  <g id="axes_1">
   <g id="LineCollection_1">
    <path clip-path="url(#pa103629a5d)" d="M 244.629843 31.909091 
L 250.563842 48.943969 
L 252.240842 65.780107 
L 248.370842 83.780295 
L 247.510842 104.534455 
L 246.736843 124.238131 
L 239.405344 140.3077 
L 225.623845 153.169033 
L 211.627347 165.519319 
L 198.834849 180.680361 
L 187.547351 196.096926 
L 169.960353 208.78791 
L 156.200355 220.314844 
L 147.535856 236.32763 
L 146.675856 256.428786 
L 148.202356 275.791765 
L 147.320856 295.381875 
L 137.366357 310.145436 
L 121.02636 315.511422 
L 110.039861 329.309674 
L 101.740862 346.401335 
L 94.602863 364.202783 
L 88.002364 384.843377 
L 77.359865 401.140077 
L 62.202368 415.392592 
L 48.076869 429.276018 
L 36.617371 443.045878 
L 27.264872 459.115446 
L 26.576872 464.42465 
L 24.383873 480.153521 
L 33.757871 497.160008 
L 49.087369 510.39043 
L 64.158867 520.639748 
L 82.519865 526.090909 
L 98.838363 516.664943 
L 106.083862 500.737332 
L 114.33986 483.24819 
L 123.842859 465.759049 
L 136.312857 452.642192 
L 152.136855 447.418163 
L 168.175853 455.396164 
L 187.826851 457.270001 
L 203.521848 446.225722 
L 210.530847 431.660901 
L 221.732346 415.676507 
L 236.696344 404.461878 
L 249.359842 391.486979 
L 256.003341 376.524678 
L 257.959841 358.978753 
L 251.079842 342.256181 
L 253.337342 324.795431 
L 263.85084 309.350475 
L 277.868838 298.561719 
L 289.650837 288.085268 
L 290.252837 273.492056 
L 293.886336 257.47927 
L 298.293836 242.744101 
L 303.346335 227.299144 
L 309.882334 213.018238 
L 318.374833 200.156905 
L 329.920331 187.295572 
L 340.84233 173.213406 
L 347.679329 157.143838 
L 356.429828 139.54113 
L 368.061326 124.777569 
L 356.429828 117.282222 
L 341.74533 110.808969 
L 332.285331 94.569051 
L 317.450333 88.266146 
L 301.604835 86.080004 
L 287.909337 77.534173 
L 283.179338 61.37943 
L 272.149839 48.063834 
L 258.196341 45.792517 
L 245.962843 38.921782 
L 244.737343 37.33186 
" style="fill:none;stroke:#000000;stroke-width:3;"/>
   </g>
  </g>
 </g>
 <defs>
  <clipPath id="pa103629a5d">
   <rect height="543.6" width="378.045199" x="7.2" y="7.2"/>
  </clipPath>
 </defs>
</svg>
