<?xml version="1.0" encoding="utf-8" standalone="no"?>
<!DOCTYPE svg PUBLIC "-//W3C//DTD SVG 1.1//EN"
  "http://www.w3.org/Graphics/SVG/1.1/DTD/svg11.dtd">
<svg height="558pt" version="1.1" viewBox="0 0 366.741879 558" width="366.741879pt" xmlns="http://www.w3.org/2000/svg" xmlns:xlink="http://www.w3.org/1999/xlink">
 <metadata>
  <rdf:RDF xmlns:cc="http://creativecommons.org/ns#" xmlns:dc="http://purl.org/dc/elements/1.1/" xmlns:rdf="http://www.w3.org/1999/02/22-rdf-syntax-ns#">
   <cc:Work>
    <dc:type rdf:resource="http://purl.org/dc/dcmitype/StillImage"/>
    <dc:date>2021-05-26T19:21:46.539631</dc:date>
    <dc:format>image/svg+xml</dc:format>
    <dc:creator>
     <cc:Agent>
      <dc:title>Matplotlib v3.4.2, https://matplotlib.org/</dc:title>
     </cc:Agent>
    </dc:creator>
   </cc:Work>
  </rdf:RDF>
 </metadata>
 <defs>
  <style type="text/css">*{stroke-linecap:butt;stroke-linejoin:round;}</style>
 </defs>
 <g id="figure_1">
  <g id="patch_1">
   <path d="M 0 558 
L 366.741879 558 
L 366.741879 0 
L 0 0 
z
" style="fill:none;"/>
  </g>
  <g id="axes_1">
   <g id="LineCollection_1">
    <path clip-path="url(#pe2be4604fe)" d="M 83.654174 31.909091 
L 84.229444 32.760742 
L 86.236159 33.980556 
L 83.33458 38.98179 
L 81.995648 41.829499 
L 76.406113 52.009395 
L 74.779547 54.515557 
L 73.443979 57.205799 
L 70.685376 61.836654 
L 66.799783 69.264207 
L 65.810723 71.129412 
L 66.256473 73.644446 
L 66.10004 76.421184 
L 65.54832 78.694472 
L 64.732513 80.976632 
L 64.476838 81.280476 
L 63.317888 83.327545 
L 63.624026 85.829271 
L 62.59796 88.665891 
L 61.102596 91.73982 
L 59.267452 95.066583 
L 57.605562 97.242287 
L 54.68548 102.403205 
L 53.248988 105.497095 
L 51.990796 107.872404 
L 51.688022 108.200645 
L 50.598038 110.29207 
L 49.38358 112.937956 
L 47.824296 115.475167 
L 46.778046 117.724059 
L 42.687239 124.776798 
L 36.751197 135.562164 
L 38.246561 137.147921 
L 40.576235 138.611697 
L 40.554368 139.461131 
L 41.977404 141.057977 
L 44.202789 142.393118 
L 45.220444 144.136342 
L 43.244006 148.010913 
L 42.303726 149.051081 
L 41.17169 151.235655 
L 40.593056 152.790363 
L 38.919391 154.580161 
L 35.323115 160.590514 
L 33.967363 162.488986 
L 31.506487 166.343596 
L 32.411444 167.135366 
L 35.735224 169.211266 
L 37.207039 170.269177 
L 35.662894 173.489484 
L 34.103611 175.780515 
L 27.405589 186.508218 
L 26.122165 189.014379 
L 25.22562 189.788406 
L 25.302995 189.850506 
L 23.21554 193.039763 
L 24.386264 195.565885 
L 25.927045 194.989246 
L 27.538473 194.144248 
L 29.452674 195.847551 
L 36.651954 203.499107 
L 38.892478 206.200439 
L 40.238138 207.693046 
L 41.794058 209.143515 
L 54.799861 222.439479 
L 54.895739 225.280535 
L 54.875554 228.137116 
L 54.557642 229.842636 
L 54.480267 229.824894 
L 54.416348 229.964618 
L 54.776312 230.144263 
L 57.016836 230.421493 
L 59.427249 230.492464 
L 61.731692 231.259838 
L 61.73001 233.759346 
L 64.998281 239.902769 
L 65.581961 242.490991 
L 66.658489 244.977192 
L 68.295148 247.674088 
L 69.987315 250.13811 
L 71.063843 252.826135 
L 72.414549 254.749004 
L 73.112611 256.401297 
L 77.859426 264.762562 
L 78.172292 265.698491 
L 79.300964 267.459458 
L 80.380856 269.391199 
L 81.504482 271.644526 
L 84.656691 277.346599 
L 84.787893 279.378142 
L 85.072163 281.09697 
L 85.480907 281.95971 
L 87.146162 282.465378 
L 88.5877 284.186424 
L 90.875322 288.331571 
L 101.514446 308.19013 
L 102.106536 310.931383 
L 102.335298 313.772439 
L 104.84159 329.67215 
L 105.28734 331.546226 
L 105.161184 331.544009 
L 106.121649 336.16821 
L 106.091371 337.884819 
L 106.32518 340.100444 
L 106.397509 342.857222 
L 106.607768 345.913408 
L 107.053518 348.807692 
L 108.792784 351.429182 
L 115.216628 360.047717 
L 117.075321 362.289955 
L 120.626181 366.765561 
L 122.923895 369.58222 
L 128.045813 376.038359 
L 131.805251 380.671431 
L 137.408242 387.66207 
L 141.364483 392.676611 
L 141.990215 393.594798 
L 143.514174 395.244872 
L 146.920376 399.445466 
L 149.865689 402.872032 
L 153.742872 407.513976 
L 157.680609 412.14483 
L 175.963082 433.912951 
L 181.39282 440.271505 
L 187.10851 447.288758 
L 189.813287 450.444747 
L 191.369206 452.232328 
L 192.556751 453.826956 
L 193.959601 455.290732 
L 195.293487 457.056135 
L 197.20096 459.187481 
L 202.171491 465.421836 
L 217.488465 483.417407 
L 219.219321 485.282613 
L 221.074649 487.912973 
L 223.162104 490.097548 
L 224.610371 492.197844 
L 226.622132 496.520419 
L 228.391675 500.767587 
L 228.620437 501.09361 
L 229.678462 503.329195 
L 230.47913 505.396223 
L 233.400894 511.129346 
L 234.245296 514.167789 
L 232.950098 515.303325 
L 233.293241 515.59608 
L 233.515275 516.57193 
L 235.427794 520.92999 
L 237.249482 525.088444 
L 238.241906 526.090909 
L 239.259561 525.414467 
L 239.594294 524.034969 
L 240.578308 522.730878 
L 242.088811 521.626393 
L 242.058534 521.641918 
L 244.697709 520.424322 
L 246.361281 520.071685 
L 247.994576 520.368876 
L 249.133341 521.107418 
L 249.128295 521.034229 
L 248.968498 520.743692 
L 248.992047 520.743692 
L 249.040827 521.145121 
L 249.409201 521.147339 
L 249.222491 521.145121 
L 249.779258 520.949951 
L 251.505067 520.173706 
L 255.111435 519.0293 
L 257.071053 517.625405 
L 260.96842 515.899924 
L 261.878423 515.2257 
L 261.36539 514.296424 
L 261.59247 513.265128 
L 265.703461 510.889819 
L 295.790735 494.606421 
L 297.923606 493.475322 
L 305.723388 490.019923 
L 311.100981 487.677882 
L 316.648464 485.71731 
L 323.218649 483.313169 
L 332.882169 479.440816 
L 333.4423 478.036922 
L 337.279113 476.222727 
L 338.081463 475.945497 
L 339.459082 475.12046 
L 342.024247 473.820804 
L 343.277392 473.053431 
L 343.526339 472.572159 
L 343.220202 471.638447 
L 343.50279 468.602221 
L 342.498592 468.863927 
L 341.753433 468.0278 
L 340.782875 466.53741 
L 339.884647 464.166537 
L 339.211817 461.491819 
L 338.157156 455.951649 
L 337.334622 451.739967 
L 338.692056 448.127102 
L 337.625621 446.703247 
L 337.814013 445.108619 
L 340.56757 420.838772 
L 340.35731 418.705207 
L 339.768584 416.642614 
L 338.984737 414.75523 
L 331.475955 402.823239 
L 330.648374 401.035658 
L 329.871255 399.075086 
L 329.289257 397.0258 
L 327.015092 386.619684 
L 323.179961 369.171919 
L 321.71992 365.252992 
L 319.873002 361.786505 
L 317.963847 358.579505 
L 317.296063 357.326424 
L 315.333082 352.61351 
L 311.817545 343.78428 
L 311.227137 342.229572 
L 310.741017 340.144801 
L 304.202792 304.905506 
L 303.876469 303.650207 
L 302.710791 297.105355 
L 299.861357 282.219198 
L 299.932004 279.808403 
L 299.879859 277.557294 
L 299.585496 275.632207 
L 298.192738 269.007512 
L 297.133031 261.89711 
L 294.985021 256.272662 
L 292.93289 250.976455 
L 291.348375 248.865069 
L 290.87403 247.926922 
L 289.659572 246.385521 
L 288.350918 243.874924 
L 287.45269 241.85447 
L 285.387102 236.429628 
L 284.658763 234.699711 
L 284.244973 232.901041 
L 283.814362 229.412375 
L 283.822772 227.671369 
L 284.036396 225.983591 
L 283.86987 224.774867 
L 282.756337 222.557025 
L 282.014542 221.452539 
L 281.35685 220.199459 
L 280.024647 219.07723 
L 279.706735 217.347313 
L 279.663001 216.145243 
L 279.891763 215.317988 
L 279.523389 214.708081 
L 279.32154 213.756627 
L 277.948966 212.006749 
L 276.102048 210.409903 
L 274.742932 209.008227 
L 272.753037 205.978654 
L 271.218985 207.491223 
L 269.506632 208.129961 
L 263.65133 198.764014 
L 263.08447 197.790381 
L 261.33343 198.049868 
L 256.014709 200.10359 
L 254.436923 200.859874 
L 253.508418 197.981115 
L 252.060151 193.900286 
L 251.826343 190.13439 
L 251.170334 186.406197 
L 251.030721 184.547645 
L 250.780092 182.744539 
L 250.255285 180.823888 
L 248.282211 175.16839 
L 247.473133 171.970262 
L 247.725444 169.699191 
L 252.113978 161.187113 
L 253.042483 158.984796 
L 252.187989 156.132651 
L 252.139209 153.315991 
L 252.664016 151.625995 
L 253.775868 148.452263 
L 254.083687 147.019537 
L 253.160228 146.374145 
L 251.129964 145.413819 
L 249.012232 144.954726 
L 247.079527 144.111946 
L 245.597619 143.073996 
L 242.019846 139.818203 
L 241.138439 139.32806 
L 236.791957 138.256843 
L 226.056955 135.633135 
L 205.712259 130.52988 
L 204.22194 130.379067 
L 197.915842 129.26571 
L 193.956237 128.686853 
L 192.454144 128.363048 
L 189.187555 127.988233 
L 183.628297 127.134364 
L 172.439135 125.364526 
L 170.015265 125.045157 
L 165.270131 124.295526 
L 153.874074 122.545648 
L 149.142397 121.860335 
L 147.911118 121.399024 
L 145.223163 117.571028 
L 141.154223 112.48108 
L 141.107125 112.230464 
L 139.840523 110.884234 
L 137.779981 109.256338 
L 135.838867 108.644213 
L 134.531894 107.777037 
L 131.97514 106.490689 
L 130.536966 105.301925 
L 126.814535 103.277035 
L 123.840626 101.822131 
L 121.749807 100.597882 
L 120.510118 100.063382 
L 119.411723 99.27383 
L 116.656484 97.623755 
L 115.152709 96.561409 
L 113.889471 95.53233 
L 112.449615 93.942137 
L 110.989574 93.121536 
L 109.119106 91.704335 
L 107.169582 90.508918 
L 102.486685 88.235629 
L 101.521174 88.058202 
L 100.503519 88.106995 
L 100.866847 88.073727 
L 98.46989 87.812022 
L 96.35384 87.408374 
L 95.553172 87.894082 
L 93.953519 87.736615 
L 92.697009 87.18659 
L 92.194068 86.40591 
L 91.433771 84.953223 
L 90.21763 84.389891 
L 89.13101 83.584814 
L 86.93422 82.187574 
L 86.663406 81.843808 
L 84.90732 84.316702 
L 83.682769 83.569289 
L 83.210106 82.464804 
L 83.839202 80.533063 
L 84.515396 79.386439 
L 82.7509 78.505956 
L 81.284131 77.301667 
L 79.871188 78.024684 
L 77.824102 77.048833 
L 75.854393 76.25041 
L 74.174 75.230203 
L 72.483515 74.382987 
L 67.171522 71.289097 
L 67.407012 69.148879 
L 69.914986 65.205556 
L 71.001606 62.76593 
L 73.1042 58.935716 
L 75.184927 55.052274 
L 77.433861 51.080119 
L 83.945173 39.125949 
L 85.095712 37.431518 
L 86.692001 34.208993 
L 85.198319 33.05128 
L 83.554932 32.128657 
L 83.554932 32.128657 
" style="fill:none;stroke:#000000;stroke-width:3;"/>
   </g>
  </g>
 </g>
 <defs>
  <clipPath id="pe2be4604fe">
   <rect height="543.6" width="352.341879" x="7.2" y="7.2"/>
  </clipPath>
 </defs>
</svg>
