<?xml version="1.0" encoding="utf-8" standalone="no"?>
<!DOCTYPE svg PUBLIC "-//W3C//DTD SVG 1.1//EN"
  "http://www.w3.org/Graphics/SVG/1.1/DTD/svg11.dtd">
<svg height="558pt" version="1.1" viewBox="0 0 294.294126 558" width="294.294126pt" xmlns="http://www.w3.org/2000/svg" xmlns:xlink="http://www.w3.org/1999/xlink">
 <metadata>
  <rdf:RDF xmlns:cc="http://creativecommons.org/ns#" xmlns:dc="http://purl.org/dc/elements/1.1/" xmlns:rdf="http://www.w3.org/1999/02/22-rdf-syntax-ns#">
   <cc:Work>
    <dc:type rdf:resource="http://purl.org/dc/dcmitype/StillImage"/>
    <dc:date>2021-05-26T19:21:50.484673</dc:date>
    <dc:format>image/svg+xml</dc:format>
    <dc:creator>
     <cc:Agent>
      <dc:title>Matplotlib v3.4.2, https://matplotlib.org/</dc:title>
     </cc:Agent>
    </dc:creator>
   </cc:Work>
  </rdf:RDF>
 </metadata>
 <defs>
  <style type="text/css">*{stroke-linecap:butt;stroke-linejoin:round;}</style>
 </defs>
 <g id="figure_1">
  <g id="patch_1">
   <path d="M 0 558 
L 294.294126 558 
L 294.294126 0 
L 0 0 
z
" style="fill:none;"/>
  </g>
  <g id="axes_1">
   <g id="LineCollection_1">
    <path clip-path="url(#p1d48328f60)" d="M 77.693756 526.090909 
L 77.957161 525.612363 
L 72.649551 522.680178 
L 70.509386 522.114624 
L 62.106767 517.459672 
L 54.112426 512.813422 
L 47.119024 507.975753 
L 37.234752 503.268596 
L 30.188669 499.301011 
L 21.996774 494.785274 
L 19.92246 490.304339 
L 24.591313 482.282161 
L 29.681615 473.877146 
L 39.216875 467.769154 
L 44.524485 456.884399 
L 45.973212 444.964243 
L 49.614786 439.038968 
L 49.516009 438.943259 
L 51.656175 437.699038 
L 60.341954 431.225611 
L 65.313723 411.013551 
L 70.140619 403.539526 
L 76.844275 396.343928 
L 80.584626 391.349644 
L 85.615661 383.014236 
L 90.541334 374.557016 
L 95.124581 365.83877 
L 100.09635 355.580476 
L 104.133031 345.400489 
L 108.610915 334.968177 
L 115.854552 324.901301 
L 121.498004 315.617501 
L 125.666388 307.238588 
L 129.920378 300.04299 
L 133.970229 292.969205 
L 138.329582 284.77301 
L 141.865793 275.750235 
L 146.679519 266.275016 
L 147.265595 255.042227 
L 152.158343 245.323385 
L 157.274985 235.543636 
L 162.595765 226.120623 
L 167.88362 217.558992 
L 175.970153 211.398795 
L 180.889241 206.352306 
L 185.11689 197.059805 
L 189.680382 188.828807 
L 193.881691 182.625105 
L 200.269262 176.917352 
L 204.95787 170.278608 
L 208.079219 164.892786 
L 213.590968 157.601479 
L 218.628588 148.509097 
L 221.815789 138.564033 
L 223.876932 130.089411 
L 224.048146 120.962226 
L 224.81202 109.424907 
L 228.032146 98.705468 
L 229.652087 91.222742 
L 233.326586 77.823443 
L 237.047181 71.906869 
L 241.768715 66.869081 
L 245.838322 60.030218 
L 248.959671 52.347373 
L 254.346303 45.021262 
L 259.75269 36.155103 
L 261.58994 31.909091 
L 259.732935 36.076795 
L 257.724472 41.619232 
L 260.332181 44.942955 
L 264.671778 48.049156 
L 265.672717 58.281348 
L 271.355679 62.092318 
L 274.253134 63.797683 
L 274.371666 65.128912 
L 274.28606 65.694467 
L 269.037715 75.300198 
L 263.275732 84.940733 
L 258.455421 94.320243 
L 254.99823 102.046592 
L 250.395228 109.059472 
L 246.424398 116.394283 
L 242.420643 123.537676 
L 237.850566 132.168913 
L 232.793191 141.3222 
L 227.571187 150.110052 
L 222.645514 159.245938 
L 209.014307 183.50389 
L 205.089573 189.864207 
L 201.685063 196.572557 
L 192.696369 213.191169 
L 187.757525 221.987722 
L 182.114074 232.498341 
L 177.925935 239.467717 
L 173.250496 248.716714 
L 166.408552 260.941399 
L 168.331408 265.152607 
L 172.717101 273.279195 
L 177.998371 280.927237 
L 176.286239 287.896613 
L 172.203461 294.317835 
L 168.772612 299.155504 
L 166.461233 305.950863 
L 160.626813 316.165654 
L 154.40387 327.729075 
L 151.282521 333.193205 
L 149.781113 338.013472 
L 145.12543 345.835531 
L 140.298534 355.188938 
L 136.097225 361.19252 
L 132.982461 366.212907 
L 128.208246 371.633532 
L 120.536576 368.057485 
L 113.213917 363.402534 
L 108.775543 365.725659 
L 104.449117 373.826145 
L 102.730399 382.883723 
L 102.058717 392.863591 
L 100.517798 399.719856 
L 98.878102 404.252995 
L 94.630696 412.745019 
L 90.297684 421.106529 
L 85.444448 429.346228 
L 85.589321 435.262802 
L 91.502762 438.255892 
L 89.823556 444.302979 
L 86.721962 450.750304 
L 83.916699 455.553169 
L 88.756765 459.47725 
L 94.433143 462.887981 
L 100.721936 465.863669 
L 104.798128 462.087503 
L 108.130201 455.796793 
L 108.242148 455.170332 
L 108.06435 454.256744 
L 107.952403 454.308949 
L 107.893137 453.969616 
L 108.07752 453.865206 
L 107.287305 453.456266 
L 107.741679 453.351856 
L 107.076581 458.206927 
L 102.974049 465.506935 
L 95.032389 477.662013 
L 90.969367 485.266551 
L 87.92704 491.200526 
L 85.391767 495.272521 
L 80.979734 502.711742 
L 77.272308 507.714727 
L 73.696586 513.552993 
L 73.360745 520.009019 
L 76.205518 522.932503 
L 77.483032 525.055509 
L 77.805704 525.255628 
L 77.805704 525.255628 
" style="fill:none;stroke:#000000;stroke-width:3;"/>
   </g>
  </g>
 </g>
 <defs>
  <clipPath id="p1d48328f60">
   <rect height="543.6" width="279.894126" x="7.2" y="7.2"/>
  </clipPath>
 </defs>
</svg>
