<?xml version="1.0" encoding="utf-8" standalone="no"?>
<!DOCTYPE svg PUBLIC "-//W3C//DTD SVG 1.1//EN"
  "http://www.w3.org/Graphics/SVG/1.1/DTD/svg11.dtd">
<svg height="558pt" version="1.1" viewBox="0 0 323.08868 558" width="323.08868pt" xmlns="http://www.w3.org/2000/svg" xmlns:xlink="http://www.w3.org/1999/xlink">
 <metadata>
  <rdf:RDF xmlns:cc="http://creativecommons.org/ns#" xmlns:dc="http://purl.org/dc/elements/1.1/" xmlns:rdf="http://www.w3.org/1999/02/22-rdf-syntax-ns#">
   <cc:Work>
    <dc:type rdf:resource="http://purl.org/dc/dcmitype/StillImage"/>
    <dc:date>2021-05-26T19:21:51.069883</dc:date>
    <dc:format>image/svg+xml</dc:format>
    <dc:creator>
     <cc:Agent>
      <dc:title>Matplotlib v3.4.2, https://matplotlib.org/</dc:title>
     </cc:Agent>
    </dc:creator>
   </cc:Work>
  </rdf:RDF>
 </metadata>
 <defs>
  <style type="text/css">*{stroke-linecap:butt;stroke-linejoin:round;}</style>
 </defs>
 <g id="figure_1">
  <g id="patch_1">
   <path d="M 0 558 
L 323.08868 558 
L 323.08868 0 
L 0 0 
z
" style="fill:none;"/>
  </g>
  <g id="axes_1">
   <g id="LineCollection_1">
    <path clip-path="url(#p757c38a540)" d="M 214.634218 123.674401 
L 214.445842 123.216262 
L 219.849266 126.207257 
L 222.18414 131.01772 
L 217.722597 139.048248 
L 213.756782 145.691269 
L 209.285325 154.179936 
L 204.987372 161.287641 
L 200.743949 170.018468 
L 196.713689 177.826471 
L 192.703258 183.887 
L 188.985306 190.98816 
L 167.247679 230.388143 
L 163.118273 234.943357 
L 163.812291 241.475115 
L 163.187675 248.916607 
L 161.313827 255.500724 
L 163.296735 262.942216 
L 159.345791 271.097096 
L 154.95365 279.219252 
L 153.000486 284.04935 
L 152.227152 289.612471 
L 149.277576 296.53692 
L 144.419452 306.83851 
L 130.439952 332.383051 
L 125.205075 341.44112 
L 120.20319 349.81198 
L 116.073785 359.432906 
L 110.719934 368.150643 
L 106.253434 376.442966 
L 101.687789 383.760105 
L 86.801108 409.651523 
L 81.903326 419.108828 
L 76.470158 428.160352 
L 72.385368 436.040349 
L 68.781433 442.113968 
L 65.762456 449.660177 
L 59.798861 462.671335 
L 57.275611 469.281631 
L 54.088086 476.20608 
L 50.454408 485.061259 
L 47.836969 493.641554 
L 46.468763 502.320022 
L 42.022092 504.996865 
L 36.301403 503.838427 
L 30.888065 502.588361 
L 31.309433 497.548828 
L 28.186353 493.720092 
L 26.813189 499.152316 
L 22.792844 510.258922 
L 21.553526 511.155567 
L 21.231304 515.285365 
L 22.396262 519.546061 
L 25.682932 522.340711 
L 30.313021 524.205993 
L 33.014733 526.090909 
L 35.225676 522.445429 
L 36.772344 515.167558 
L 40.574569 515.331179 
L 43.831496 515.795864 
L 48.000559 515.992209 
L 54.920908 512.268191 
L 57.989457 504.32929 
L 60.547409 496.455839 
L 63.397839 488.680559 
L 66.639893 480.820197 
L 74.873918 465.66233 
L 77.892895 460.308644 
L 80.941616 456.538812 
L 86.890339 459.052034 
L 93.191029 462.632065 
L 95.31274 464.471168 
L 100.929326 467.540701 
L 106.749161 465.393991 
L 111.255319 458.750971 
L 115.270707 454.424826 
L 120.570028 456.774427 
L 127.857215 460.230106 
L 132.487304 461.55871 
L 133.225938 461.421269 
L 133.300297 461.689607 
L 130.162345 460.662066 
L 125.398409 456.977317 
L 124.664733 451.990143 
L 127.62918 445.765993 
L 122.552936 440.857357 
L 112.157542 434.803373 
L 104.513432 430.909188 
L 97.593084 426.635403 
L 100.136163 420.267266 
L 103.606252 414.337634 
L 107.140785 407.053218 
L 110.154805 399.598637 
L 114.229681 392.314221 
L 122.181141 379.145988 
L 125.0514 372.738582 
L 129.577387 365.31018 
L 132.710382 357.54799 
L 137.865942 348.718991 
L 143.363554 340.465938 
L 147.983729 332.998266 
L 150.54168 325.668037 
L 151.300142 325.203353 
L 154.001854 320.995016 
L 158.165961 314.188374 
L 162.394512 306.720703 
L 166.885798 298.22549 
L 175.774182 282.930181 
L 178.966664 276.555499 
L 181.688205 271.555236 
L 182.749061 269.23836 
L 185.500345 264.159558 
L 189.297614 257.994311 
L 190.88394 250.788434 
L 187.205646 245.637639 
L 193.337788 236.97226 
L 198.111639 228.843559 
L 205.889595 226.055454 
L 214.589603 226.552863 
L 219.373368 218.869211 
L 225.793032 213.79041 
L 228.232009 204.895961 
L 228.400556 195.261946 
L 235.033383 189.67919 
L 236.352016 182.839825 
L 238.062274 176.857834 
L 240.332704 171.248899 
L 245.493221 164.978935 
L 249.315276 157.851596 
L 253.801605 151.195486 
L 262.377682 149.552729 
L 269.555808 146.483195 
L 274.12641 138.9828 
L 278.568124 131.469315 
L 282.628128 123.733305 
L 286.494798 115.617693 
L 287.972064 105.316103 
L 285.785908 94.739629 
L 291.437196 85.832091 
L 297.227287 78.089537 
L 297.465236 68.736949 
L 301.728487 61.60961 
L 301.857376 55.162935 
L 293.534121 55.738882 
L 298.580621 47.479284 
L 299.373784 38.669919 
L 293.469676 34.193243 
L 288.874287 32.543941 
L 285.161292 31.909091 
L 280.898041 36.130518 
L 282.236503 39.599287 
L 286.043686 43.11387 
L 287.550696 50.836791 
L 281.096331 58.566256 
L 273.947949 66.734226 
L 266.878882 70.327347 
L 262.392553 75.602494 
L 259.913919 81.584485 
L 255.194598 87.631925 
L 251.342799 94.602187 
L 249.245874 101.428464 
L 243.356638 104.471818 
L 238.082103 109.236467 
L 234.884665 118.719951 
L 236.912188 126.999184 
L 236.619709 129.145894 
L 232.728252 135.455127 
L 226.630811 140.91353 
L 226.97782 138.262867 
L 226.804315 134.224696 
L 222.263456 129.014997 
L 218.129093 126.07636 
L 214.659005 123.667856 
L 214.659005 123.667856 
" style="fill:none;stroke:#000000;stroke-width:3;"/>
   </g>
  </g>
 </g>
 <defs>
  <clipPath id="p757c38a540">
   <rect height="543.6" width="308.68868" x="7.2" y="7.2"/>
  </clipPath>
 </defs>
</svg>
