<?xml version="1.0" encoding="utf-8" standalone="no"?>
<!DOCTYPE svg PUBLIC "-//W3C//DTD SVG 1.1//EN"
  "http://www.w3.org/Graphics/SVG/1.1/DTD/svg11.dtd">
<svg height="558pt" version="1.1" viewBox="0 0 362.98865 558" width="362.98865pt" xmlns="http://www.w3.org/2000/svg" xmlns:xlink="http://www.w3.org/1999/xlink">
 <metadata>
  <rdf:RDF xmlns:cc="http://creativecommons.org/ns#" xmlns:dc="http://purl.org/dc/elements/1.1/" xmlns:rdf="http://www.w3.org/1999/02/22-rdf-syntax-ns#">
   <cc:Work>
    <dc:type rdf:resource="http://purl.org/dc/dcmitype/StillImage"/>
    <dc:date>2021-05-26T19:21:51.448030</dc:date>
    <dc:format>image/svg+xml</dc:format>
    <dc:creator>
     <cc:Agent>
      <dc:title>Matplotlib v3.4.2, https://matplotlib.org/</dc:title>
     </cc:Agent>
    </dc:creator>
   </cc:Work>
  </rdf:RDF>
 </metadata>
 <defs>
  <style type="text/css">*{stroke-linecap:butt;stroke-linejoin:round;}</style>
 </defs>
 <g id="figure_1">
  <g id="patch_1">
   <path d="M 0 558 
L 362.98865 558 
L 362.98865 0 
L 0 0 
z
" style="fill:none;"/>
  </g>
  <g id="axes_1">
   <g id="LineCollection_1">
    <path clip-path="url(#p58f06e6bee)" d="M 44.877879 521.296665 
L 47.593154 522.847916 
L 51.960628 525.48797 
L 52.137808 526.090909 
L 54.839795 522.888892 
L 55.406769 522.836208 
L 57.094403 519.751267 
L 60.509538 512.615511 
L 67.760608 498.952793 
L 71.414934 492.226802 
L 74.874363 485.518372 
L 78.825466 479.248975 
L 83.095491 472.212734 
L 90.798368 457.525604 
L 94.439407 450.056183 
L 99.063791 442.5692 
L 103.152207 435.357345 
L 106.92613 434.286104 
L 114.146193 438.524239 
L 119.430571 436.610054 
L 123.9265 428.777699 
L 127.009423 423.040996 
L 130.318249 417.60869 
L 134.012441 410.531472 
L 142.459473 395.124327 
L 146.565607 388.269553 
L 154.658279 373.266319 
L 158.644817 366.271054 
L 162.542766 358.965539 
L 162.954708 358.713826 
L 163.136317 358.426991 
L 165.590253 353.439572 
L 169.000957 347.638478 
L 176.407059 334.403085 
L 179.636155 327.794169 
L 204.512153 283.077157 
L 206.594012 279.916116 
L 206.660454 275.121872 
L 210.948197 272.353035 
L 216.493915 271.709119 
L 226.070465 270.790076 
L 231.093503 268.325635 
L 235.664733 265.082642 
L 243.425194 255.669767 
L 243.699822 254.346813 
L 246.512547 249.558422 
L 249.688489 245.905664 
L 254.733674 233.560046 
L 258.356994 228.888731 
L 257.679283 227.056498 
L 254.42361 225.353049 
L 253.099193 224.808647 
L 252.851142 220.705149 
L 255.274071 215.81139 
L 258.897392 212.544982 
L 262.068904 206.316562 
L 262.334673 201.393534 
L 265.023372 195.996351 
L 267.357711 191.892852 
L 269.665474 188.889864 
L 271.915653 184.862464 
L 273.031884 181.894599 
L 273.076179 181.016532 
L 275.849038 182.099481 
L 278.431428 179.553087 
L 280.429127 173.728578 
L 281.425761 166.025006 
L 277.656268 166.200619 
L 273.727313 165.843538 
L 271.193647 163.279584 
L 279.45464 155.599426 
L 283.605069 151.185678 
L 292.233709 142.803067 
L 296.672055 137.364907 
L 301.553349 130.773553 
L 306.926317 124.240736 
L 309.752329 118.831845 
L 314.141951 113.973209 
L 317.198297 108.330167 
L 319.036534 103.044205 
L 319.838271 100.093901 
L 322.619988 95.141604 
L 329.782469 84.73944 
L 333.65384 79.488601 
L 337.321455 73.980196 
L 339.943711 70.321584 
L 339.164122 70.034749 
L 339.040096 69.847428 
L 339.190698 69.882551 
L 336.395692 68.547889 
L 329.534417 68.231785 
L 323.625482 68.571304 
L 319.297873 70.743056 
L 312.631496 74.542158 
L 305.588612 73.476771 
L 304.782445 73.207497 
L 297.65983 69.496201 
L 292.034382 66.36443 
L 284.933915 62.190686 
L 279.587524 59.187698 
L 279.273031 59.269651 
L 276.052794 55.892021 
L 272.752826 48.984562 
L 269.762923 43.370789 
L 268.044282 39.583394 
L 265.293571 34.297432 
L 263.499628 31.909091 
L 259.203026 33.313998 
L 248.067296 38.529714 
L 243.761835 42.873218 
L 240.280259 46.02255 
L 237.285926 47.216721 
L 232.426779 42.545406 
L 224.635311 34.426216 
L 223.558946 34.578414 
L 223.226735 34.121819 
L 222.433856 35.286721 
L 222.252248 37.077977 
L 221.233466 39.817545 
L 221.946613 39.612663 
L 221.946613 40.660489 
L 219.634421 45.876206 
L 217.162767 50.67045 
L 215.129633 55.575917 
L 213.69005 60.803341 
L 212.126441 65.901982 
L 207.958294 74.062148 
L 206.190928 78.388091 
L 205.579659 83.498439 
L 202.253115 87.449739 
L 198.572211 91.371771 
L 195.786064 96.347482 
L 192.393077 101.604175 
L 185.98361 111.900971 
L 183.534104 116.917659 
L 181.434527 121.910932 
L 178.931867 126.611516 
L 175.503444 131.669181 
L 171.640932 136.592208 
L 169.523637 137.335638 
L 166.538163 135.07608 
L 161.572708 137.089779 
L 159.39783 140.403018 
L 158.928305 140.82449 
L 157.519728 143.962115 
L 156.12001 149.85687 
L 155.964978 155.611134 
L 156.775574 159.995614 
L 158.312606 165.410359 
L 158.086702 178.75112 
L 158.19301 185.365889 
L 156.540811 191.354304 
L 153.95842 197.53004 
L 151.052677 203.442357 
L 148.169081 209.705899 
L 145.24119 215.430895 
L 143.265639 222.484697 
L 141.688742 229.807774 
L 139.846075 236.563034 
L 137.13523 242.95536 
L 134.486396 248.692063 
L 126.003929 265.416307 
L 124.245423 271.188133 
L 127.089154 275.742372 
L 123.913212 282.275189 
L 119.975398 287.982623 
L 115.829398 293.514443 
L 112.055475 298.923334 
L 108.095514 304.267834 
L 105.017021 309.577211 
L 100.033848 313.025086 
L 97.398304 317.427128 
L 99.49788 318.668129 
L 99.776938 319.241799 
L 100.290759 319.470096 
L 103.506566 321.425258 
L 108.529604 323.280906 
L 112.117488 325.798031 
L 111.200584 328.660528 
L 108.144239 335.158222 
L 103.581867 343.013993 
L 102.930733 344.55939 
L 100.118009 349.453149 
L 95.35631 358.263085 
L 90.714208 366.206662 
L 88.53933 370.731633 
L 86.03667 375.631245 
L 83.215087 379.717183 
L 81.155376 384.183615 
L 75.658383 394.099916 
L 66.219146 411.25734 
L 63.136223 417.023312 
L 59.929275 424.170775 
L 59.490756 431.259701 
L 59.012371 436.475417 
L 57.076686 442.200412 
L 53.84759 448.739083 
L 46.206725 461.102262 
L 45.710622 462.325702 
L 46.375045 462.86425 
L 42.804879 468.39607 
L 39.637796 474.396193 
L 37.405335 477.943583 
L 35.141867 482.064642 
L 32.577194 487.104746 
L 28.980451 493.625855 
L 23.044939 504.145094 
L 26.876445 506.609535 
L 28.316028 509.70033 
L 28.183143 510.648642 
L 28.657098 511.122798 
L 27.744624 512.779417 
L 33.9902 516.326807 
L 40.29336 520.52982 
L 43.287693 521.284957 
L 43.287693 521.284957 
" style="fill:none;stroke:#000000;stroke-width:3;"/>
   </g>
  </g>
 </g>
 <defs>
  <clipPath id="p58f06e6bee">
   <rect height="543.6" width="348.58865" x="7.2" y="7.2"/>
  </clipPath>
 </defs>
</svg>
