<?xml version="1.0" encoding="utf-8" standalone="no"?>
<!DOCTYPE svg PUBLIC "-//W3C//DTD SVG 1.1//EN"
  "http://www.w3.org/Graphics/SVG/1.1/DTD/svg11.dtd">
<svg height="558pt" version="1.1" viewBox="0 0 381.213823 558" width="381.213823pt" xmlns="http://www.w3.org/2000/svg" xmlns:xlink="http://www.w3.org/1999/xlink">
 <metadata>
  <rdf:RDF xmlns:cc="http://creativecommons.org/ns#" xmlns:dc="http://purl.org/dc/elements/1.1/" xmlns:rdf="http://www.w3.org/1999/02/22-rdf-syntax-ns#">
   <cc:Work>
    <dc:type rdf:resource="http://purl.org/dc/dcmitype/StillImage"/>
    <dc:date>2021-05-26T19:21:51.788321</dc:date>
    <dc:format>image/svg+xml</dc:format>
    <dc:creator>
     <cc:Agent>
      <dc:title>Matplotlib v3.4.2, https://matplotlib.org/</dc:title>
     </cc:Agent>
    </dc:creator>
   </cc:Work>
  </rdf:RDF>
 </metadata>
 <defs>
  <style type="text/css">*{stroke-linecap:butt;stroke-linejoin:round;}</style>
 </defs>
 <g id="figure_1">
  <g id="patch_1">
   <path d="M 0 558 
L 381.213823 558 
L 381.213823 0 
L 0 0 
z
" style="fill:none;"/>
  </g>
  <g id="axes_1">
   <g id="LineCollection_1">
    <path clip-path="url(#p27e64d251c)" d="M 23.873356 440.341715 
L 34.250748 452.293968 
L 48.945135 457.118731 
L 60.152718 470.907684 
L 65.901793 486.862297 
L 72.730117 500.459356 
L 86.116952 495.799074 
L 101.433983 498.129215 
L 112.973643 511.342486 
L 123.973678 521.238733 
L 139.892597 526.090909 
L 156.268122 523.45922 
L 173.473838 522.883538 
L 192.630503 524.802478 
L 207.698476 515.564154 
L 217.328696 500.897971 
L 225.526836 485.875414 
L 233.662711 469.920801 
L 242.400475 454.021014 
L 250.640124 438.642082 
L 259.440152 423.811419 
L 267.596782 409.720919 
L 276.313792 394.232333 
L 282.104376 378.250306 
L 281.751545 359.801071 
L 284.947782 339.70703 
L 280.132672 321.065901 
L 274.279823 304.288885 
L 281.128902 286.168611 
L 290.344026 270.15917 
L 301.94595 256.370217 
L 313.838441 242.992466 
L 323.385641 228.435937 
L 321.870542 210.781691 
L 324.132814 192.853311 
L 327.41207 177.035765 
L 335.132849 163.219398 
L 347.5027 153.240911 
L 357.340468 140.055054 
L 345.198919 130.871556 
L 331.064911 138.382835 
L 315.851655 141.343485 
L 309.479936 127.554532 
L 318.487512 112.559388 
L 328.429054 98.688195 
L 335.983795 83.117369 
L 335.734738 67.875505 
L 326.872445 54.881541 
L 313.423345 44.272546 
L 299.144054 38.296419 
L 284.428912 36.103345 
L 269.091127 31.909091 
L 257.945808 40.62656 
L 250.328802 54.031725 
L 249.913707 68.780148 
L 254.209947 84.24132 
L 257.323164 99.017156 
L 252.528809 111.243544 
L 238.706123 115.273317 
L 228.909865 127.170744 
L 216.062654 133.749966 
L 202.779592 131.611719 
L 191.592764 140.274361 
L 185.2418 153.87142 
L 177.375737 167.660373 
L 180.073859 182.847411 
L 178.870081 192.414696 
L 167.787027 202.859211 
L 159.754926 214.45509 
L 155.52095 227.640948 
L 161.830404 238.38701 
L 162.16248 251.18908 
L 148.215266 254.341624 
L 135.762395 261.0305 
L 129.494451 276.382018 
L 124.326509 292.693006 
L 124.24349 310.621386 
L 113.015152 319.421096 
L 98.86039 325.69877 
L 88.981113 337.157582 
L 79.018816 350.343439 
L 70.260298 365.996505 
L 64.884809 384.308673 
L 65.486697 402.237054 
L 70.882941 418.191667 
L 73.560308 433.652839 
L 68.703689 449.360732 
L 58.845166 462.354695 
L 45.748898 454.925657 
L 31.490361 454.843417 
L 26.301665 447.332138 
" style="fill:none;stroke:#000000;stroke-width:3;"/>
   </g>
  </g>
 </g>
 <defs>
  <clipPath id="p27e64d251c">
   <rect height="543.6" width="366.813823" x="7.2" y="7.2"/>
  </clipPath>
 </defs>
</svg>
