<?xml version="1.0" encoding="utf-8" standalone="no"?>
<!DOCTYPE svg PUBLIC "-//W3C//DTD SVG 1.1//EN"
  "http://www.w3.org/Graphics/SVG/1.1/DTD/svg11.dtd">
<svg height="558pt" version="1.1" viewBox="0 0 392.748813 558" width="392.748813pt" xmlns="http://www.w3.org/2000/svg" xmlns:xlink="http://www.w3.org/1999/xlink">
 <metadata>
  <rdf:RDF xmlns:cc="http://creativecommons.org/ns#" xmlns:dc="http://purl.org/dc/elements/1.1/" xmlns:rdf="http://www.w3.org/1999/02/22-rdf-syntax-ns#">
   <cc:Work>
    <dc:type rdf:resource="http://purl.org/dc/dcmitype/StillImage"/>
    <dc:date>2021-05-26T19:21:52.110234</dc:date>
    <dc:format>image/svg+xml</dc:format>
    <dc:creator>
     <cc:Agent>
      <dc:title>Matplotlib v3.4.2, https://matplotlib.org/</dc:title>
     </cc:Agent>
    </dc:creator>
   </cc:Work>
  </rdf:RDF>
 </metadata>
 <defs>
  <style type="text/css">*{stroke-linecap:butt;stroke-linejoin:round;}</style>
 </defs>
 <g id="figure_1">
  <g id="patch_1">
   <path d="M 0 558 
L 392.748813 558 
L 392.748813 0 
L 0 0 
z
" style="fill:none;"/>
  </g>
  <g id="axes_1">
   <g id="LineCollection_1">
    <path clip-path="url(#p84ae7552f0)" d="M 65.993708 488.897473 
L 86.470107 504.803803 
L 118.882137 526.090909 
L 144.933262 504.284605 
L 170.269678 458.312008 
L 197.75022 410.687419 
L 225.981206 362.402032 
L 251.996596 313.267049 
L 284.908922 251.199323 
L 314.319177 196.872363 
L 344.622817 147.029383 
L 368.35114 90.767231 
L 347.302974 59.851368 
L 298.345442 31.909091 
L 267.684447 38.658661 
L 253.783367 67.639333 
L 246.064515 67.497734 
L 229.626219 84.017661 
L 211.365417 130.651055 
L 187.386947 156.70534 
L 170.591297 184.175619 
L 145.540764 221.841052 
L 121.598029 270.079239 
L 95.904259 309.349466 
L 72.46182 344.560511 
L 55.630435 385.341131 
L 38.620372 412.858609 
L 37.762722 423.006564 
L 29.043279 438.440896 
L 24.397673 458.548007 
L 44.159363 474.595936 
" style="fill:none;stroke:#000000;stroke-width:3;"/>
   </g>
  </g>
 </g>
 <defs>
  <clipPath id="p84ae7552f0">
   <rect height="543.6" width="378.348813" x="7.2" y="7.2"/>
  </clipPath>
 </defs>
</svg>
