<?xml version="1.0" encoding="utf-8" standalone="no"?>
<!DOCTYPE svg PUBLIC "-//W3C//DTD SVG 1.1//EN"
  "http://www.w3.org/Graphics/SVG/1.1/DTD/svg11.dtd">
<svg height="558pt" version="1.1" viewBox="0 0 556.042854 558" width="556.042854pt" xmlns="http://www.w3.org/2000/svg" xmlns:xlink="http://www.w3.org/1999/xlink">
 <metadata>
  <rdf:RDF xmlns:cc="http://creativecommons.org/ns#" xmlns:dc="http://purl.org/dc/elements/1.1/" xmlns:rdf="http://www.w3.org/1999/02/22-rdf-syntax-ns#">
   <cc:Work>
    <dc:type rdf:resource="http://purl.org/dc/dcmitype/StillImage"/>
    <dc:date>2021-05-26T19:21:53.321822</dc:date>
    <dc:format>image/svg+xml</dc:format>
    <dc:creator>
     <cc:Agent>
      <dc:title>Matplotlib v3.4.2, https://matplotlib.org/</dc:title>
     </cc:Agent>
    </dc:creator>
   </cc:Work>
  </rdf:RDF>
 </metadata>
 <defs>
  <style type="text/css">*{stroke-linecap:butt;stroke-linejoin:round;}</style>
 </defs>
 <g id="figure_1">
  <g id="patch_1">
   <path d="M 0 558 
L 556.042854 558 
L 556.042854 0 
L 0 0 
z
" style="fill:none;"/>
  </g>
  <g id="axes_1">
   <g id="LineCollection_1">
    <path clip-path="url(#pb223208a73)" d="M 399.840869 71.085783 
L 391.513027 70.702149 
L 381.240081 62.998781 
L 369.557807 56.430968 
L 367.321519 65.868362 
L 376.534559 73.663802 
L 387.250104 82.149784 
L 383.126949 91.602523 
L 369.359802 81.919603 
L 358.178364 73.049988 
L 348.06848 64.48728 
L 335.955255 55.295412 
L 314.198039 38.093269 
L 306.079849 31.909091 
L 301.991636 40.855433 
L 313.359432 51.014058 
L 322.828712 58.947607 
L 331.703979 66.052506 
L 344.702401 76.165095 
L 350.11841 80.200924 
L 369.84899 96.390273 
L 372.131867 106.057847 
L 364.223329 105.244543 
L 352.517761 96.374928 
L 343.57261 89.13192 
L 332.892007 79.663836 
L 321.069965 71.315963 
L 309.364397 62.30824 
L 298.276137 52.088233 
L 279.908295 38.430867 
L 275.645372 41.346484 
L 278.510615 51.719944 
L 286.081381 57.029437 
L 298.998272 67.387552 
L 310.668898 76.211131 
L 315.025 80.784047 
L 350.86384 109.203645 
L 361.451264 117.996533 
L 356.046902 126.129572 
L 343.456137 117.336683 
L 331.96022 108.282924 
L 323.14319 101.19337 
L 311.740453 92.400481 
L 307.95507 88.441379 
L 302.399292 84.021917 
L 291.241149 75.858188 
L 284.823469 70.671458 
L 279.127924 66.328723 
L 268.540499 57.735324 
L 257.219293 47.346518 
L 253.853214 45.290241 
L 253.096137 45.45904 
L 251.814931 46.809431 
L 249.81159 55.157304 
L 253.60862 59.008988 
L 271.056323 73.218787 
L 280.385836 80.093506 
L 292.825186 89.546245 
L 299.394281 95.592315 
L 309.690522 103.80208 
L 321.361148 112.119262 
L 344.946995 131.331647 
L 344.073445 142.902045 
L 333.136601 136.44165 
L 323.084954 128.41603 
L 314.757111 121.51062 
L 312.381056 119.346925 
L 307.314466 114.574519 
L 296.028202 105.735595 
L 285.196184 97.817391 
L 274.119571 89.285374 
L 251.092796 70.686803 
L 243.778272 65.024367 
L 242.578597 63.505177 
L 223.83804 48.819672 
L 213.215674 42.804293 
L 209.65159 51.643218 
L 231.094328 69.428484 
L 242.613539 79.295548 
L 255.553724 87.628076 
L 264.265928 94.963155 
L 278.638736 106.594935 
L 284.008156 111.213886 
L 294.46746 118.947945 
L 304.472518 127.909633 
L 325.868666 143.700003 
L 333.963561 153.382923 
L 324.587459 157.065808 
L 312.590708 147.659105 
L 298.08978 137.239609 
L 286.919989 127.280473 
L 278.102959 119.868667 
L 269.751822 113.147401 
L 258.861567 104.999018 
L 252.374003 99.93505 
L 243.522031 92.523244 
L 231.82811 83.362067 
L 220.996091 75.06023 
L 209.243934 65.315929 
L 197.992611 62.200822 
L 201.044212 73.14206 
L 224.094281 91.541141 
L 233.458736 99.428654 
L 236.370569 101.039916 
L 244.733353 107.730491 
L 244.943005 108.313614 
L 250.393956 112.625659 
L 261.854931 121.31113 
L 269.996416 128.738282 
L 280.117947 136.963392 
L 292.615534 146.861147 
L 301.467506 153.643794 
L 312.765418 162.804971 
L 320.475951 171.244916 
L 312.311172 175.679724 
L 302.36435 167.623412 
L 300.512425 167.117015 
L 291.32268 159.935389 
L 280.141242 150.943011 
L 268.575441 141.812525 
L 234.390523 114.37503 
L 223.733214 106.119229 
L 190.223841 79.372274 
L 182.641428 82.011676 
L 188.674746 91.326306 
L 203.781335 103.556554 
L 206.471869 105.474724 
L 218.363794 115.510586 
L 230.581845 125.392995 
L 231.467042 125.592484 
L 234.716648 128.093777 
L 246.806578 138.528619 
L 259.187692 148.042739 
L 272.314235 158.67707 
L 305.986671 185.47006 
L 302.480824 194.155531 
L 295.702077 190.211775 
L 289.552286 186.3294 
L 277.83507 177.168223 
L 256.159386 159.060704 
L 226.28398 135.520929 
L 214.089224 126.313716 
L 195.709734 111.9965 
L 192.809549 108.866047 
L 181.581521 100.579555 
L 169.549827 90.697147 
L 147.990616 73.709838 
L 141.444816 81.213717 
L 143.075442 84.067953 
L 154.874189 94.31865 
L 179.7063 114.006741 
L 186.240453 118.917255 
L 186.764583 118.548966 
L 186.776231 118.687074 
L 197.596602 127.495308 
L 210.035952 138.037567 
L 224.164165 149.024842 
L 236.417158 159.198812 
L 246.899757 167.377886 
L 259.15275 177.24495 
L 271.580453 186.881833 
L 291.14797 202.626167 
L 291.986578 204.329502 
L 291.136323 208.534129 
L 282.598829 208.349985 
L 271.976462 201.383194 
L 260.713492 191.623548 
L 248.798272 183.076185 
L 212.260592 153.966046 
L 211.817994 152.262712 
L 206.821289 148.779316 
L 195.663145 140.769041 
L 184.528296 131.699936 
L 179.158876 126.881494 
L 178.308621 126.0375 
L 166.777762 117.766353 
L 143.73934 99.490035 
L 134.270059 92.200991 
L 130.717623 94.441413 
L 128.096974 100.702318 
L 138.789224 109.341753 
L 153.278505 120.835424 
L 167.593075 132.559276 
L 169.514885 133.60276 
L 169.281938 133.756213 
L 169.293586 133.940357 
L 169.456648 133.925012 
L 203.198968 160.533858 
L 213.739804 169.127257 
L 241.611868 191.316641 
L 255.017947 202.08908 
L 269.984768 213.812931 
L 279.547228 221.593026 
L 274.853353 229.818137 
L 264.17275 222.314258 
L 252.152704 213.398607 
L 249.089455 210.636443 
L 243.452147 206.370434 
L 237.115998 201.106977 
L 233.097669 197.592891 
L 223.337205 189.950904 
L 213.215674 182.723242 
L 163.038969 142.733246 
L 163.050616 141.965978 
L 162.934143 141.950633 
L 155.211962 136.44165 
L 145.463145 128.584829 
L 123.938876 111.812355 
L 115.389735 114.8047 
L 121.725883 122.922392 
L 134.153586 133.618105 
L 147.035535 143.807421 
L 176.153864 167.224433 
L 186.554931 175.449543 
L 190.841149 178.53396 
L 201.579989 187.434266 
L 222.999432 204.46761 
L 250.557019 226.457504 
L 265.989734 238.764479 
L 258.710151 246.237667 
L 237.698365 230.769549 
L 229.067692 234.651924 
L 217.758133 230.263152 
L 206.72811 221.608372 
L 205.668203 212.339777 
L 202.104119 201.736137 
L 189.315349 192.360125 
L 182.455071 188.953456 
L 173.917576 194.723309 
L 162.642959 186.52889 
L 152.20695 178.227053 
L 157.017298 168.237226 
L 149.45818 160.365059 
L 145.521382 157.710313 
L 136.529642 163.096532 
L 126.675999 157.771694 
L 130.834097 146.630966 
L 121.539526 137.838078 
L 111.417995 129.873838 
L 106.071869 125.300923 
L 105.256556 125.83801 
L 98.768992 134.49279 
L 94.06347 144.912286 
L 105.128435 154.257608 
L 118.68593 165.413681 
L 132.336602 176.416301 
L 147.396602 188.216879 
L 194.346996 225.782308 
L 197.142356 227.286153 
L 204.538412 233.63913 
L 226.714931 251.409051 
L 239.736648 261.92062 
L 240.633492 272.907894 
L 231.932936 272.125281 
L 200.683145 248.30929 
L 190.713029 240.34505 
L 185.215488 235.634026 
L 174.989131 227.899967 
L 155.468203 211.40371 
L 144.461475 202.303915 
L 135.574561 193.326882 
L 125.115257 184.656756 
L 120.316556 180.314021 
L 119.524537 179.85366 
L 110.369735 172.257709 
L 99.316417 164.416233 
L 88.985234 156.221813 
L 80.389503 158.692415 
L 82.998505 164.738485 
L 93.807229 174.252606 
L 105.652565 182.999458 
L 110.567739 186.973905 
L 122.331544 196.840968 
L 136.785883 207.920315 
L 149.365001 217.940832 
L 172.799433 236.002315 
L 185.040778 246.237667 
L 197.841196 256.396292 
L 223.057669 275.731439 
L 229.056045 287.409255 
L 217.76978 285.613848 
L 205.889502 276.682851 
L 186.310337 260.785063 
L 174.697948 252.191665 
L 128.795813 215.424193 
L 121.306579 209.040526 
L 110.078551 200.539199 
L 98.60593 191.424058 
L 87.401197 182.354953 
L 75.765512 173.469992 
L 73.040037 170.9687 
L 66.005048 176.5851 
L 74.530895 185.577478 
L 86.527647 194.784691 
L 94.669132 201.720791 
L 94.995257 202.043044 
L 104.604306 210.237463 
L 116.752473 219.82831 
L 130.333261 230.692822 
L 141.934004 239.823308 
L 154.687832 250.150732 
L 167.360129 259.956414 
L 180.242078 270.314529 
L 196.117391 282.851684 
L 211.328806 295.020551 
L 214.951126 305.394011 
L 203.198968 302.401667 
L 191.295395 293.102381 
L 187.614839 289.879857 
L 179.799479 283.864478 
L 169.200407 275.547295 
L 158.065558 266.309391 
L 147.734375 258.391188 
L 137.67108 250.902655 
L 116.857298 233.731202 
L 107.702496 226.871828 
L 96.381289 217.587889 
L 77.931916 202.856348 
L 65.143146 192.897212 
L 55.452566 191.331986 
L 55.848575 199.342261 
L 61.951777 203.869141 
L 73.832055 213.260498 
L 79.57419 218.355156 
L 93.213215 228.943451 
L 105.897159 238.994659 
L 129.517948 257.470467 
L 187.591544 304.212419 
L 201.70811 315.368492 
L 197.619897 325.634534 
L 185.902681 316.780264 
L 130.123609 272.432188 
L 120.03702 264.191732 
L 97.021893 246.099558 
L 96.486115 246.038177 
L 89.544306 240.206942 
L 78.490988 231.306636 
L 68.043331 226.334741 
L 64.677252 235.833516 
L 76.569178 245.669889 
L 89.998552 256.242838 
L 102.286487 266.01783 
L 115.086904 276.39129 
L 129.156881 287.393909 
L 175.21043 323.977236 
L 190.165604 336.25352 
L 181.709641 343.450492 
L 170.819386 334.458114 
L 159.556417 325.818679 
L 148.479804 317.148553 
L 137.589549 308.094793 
L 127.15354 299.593467 
L 116.007043 290.969377 
L 94.389596 273.797925 
L 83.033447 264.698129 
L 71.129874 255.414189 
L 59.31948 246.007486 
L 46.775304 243.951209 
L 52.098134 254.38605 
L 75.800454 273.015311 
L 88.0418 282.913066 
L 99.945373 292.212351 
L 111.697531 301.849234 
L 132.581196 318.023238 
L 164.098876 343.527219 
L 176.421753 354.130859 
L 167.872611 359.854676 
L 156.830941 351.690947 
L 147.035535 343.78809 
L 137.938969 335.977304 
L 129.424769 329.915888 
L 119.827368 322.611499 
L 109.379712 313.972064 
L 98.897113 305.593501 
L 90.021846 298.319802 
L 78.933586 289.711058 
L 67.985095 281.040932 
L 56.396 272.063899 
L 44.457485 262.427016 
L 35.09303 256.273529 
L 31.82013 266.033175 
L 42.605559 274.396393 
L 62.895211 290.984722 
L 75.334561 300.775059 
L 86.748946 310.058999 
L 98.536046 319.281557 
L 144.647832 356.018338 
L 159.49818 367.450627 
L 156.539758 378.514628 
L 145.83586 370.749879 
L 135.807507 363.184619 
L 125.883981 355.112962 
L 106.817299 339.92106 
L 96.68412 332.539944 
L 86.970245 324.192071 
L 78.374515 317.056481 
L 67.78709 308.570499 
L 56.826951 300.40677 
L 48.732055 306.483531 
L 58.643935 314.969513 
L 70.069967 324.314834 
L 74.472658 327.675467 
L 75.183146 328.596188 
L 84.303006 335.869886 
L 98.268157 346.657671 
L 106.805651 353.685844 
L 138.637809 379.174479 
L 147.897437 390.345897 
L 138.148621 392.601664 
L 126.885651 383.870157 
L 110.288203 370.565734 
L 74.833726 342.330281 
L 66.622357 335.117964 
L 55.906812 327.353214 
L 43.991591 317.915821 
L 34.510663 323.27135 
L 45.191267 332.708743 
L 65.108204 348.621876 
L 78.584167 358.964646 
L 92.71238 370.535044 
L 109.973725 384.131028 
L 128.236742 398.66308 
L 131.008807 411.721977 
L 119.839015 406.120922 
L 71.723888 368.049096 
L 62.103192 360.545217 
L 52.657206 353.716534 
L 50.211267 364.381556 
L 62.11484 373.696187 
L 67.577438 386.402141 
L 64.444306 390.46866 
L 65.224677 391.726979 
L 78.153215 402.484073 
L 90.778923 411.307652 
L 96.660825 403.65032 
L 107.527786 410.233477 
L 119.093586 419.502072 
L 116.624352 430.796253 
L 123.379804 439.451034 
L 135.935628 448.627556 
L 143.622867 455.226059 
L 201.055859 500.126568 
L 214.263934 510.806935 
L 220.576787 514.858109 
L 220.669966 514.720001 
L 223.407089 513.615135 
L 231.245743 509.70207 
L 243.428852 518.479613 
L 254.365697 525.707275 
L 257.114467 515.732794 
L 246.224212 506.617653 
L 231.886346 497.364404 
L 231.536926 487.175088 
L 233.540267 474.346371 
L 227.15753 473.103398 
L 221.636694 479.517756 
L 217.921196 484.397579 
L 209.616648 491.164881 
L 206.192333 482.157157 
L 213.134142 473.932047 
L 202.639896 467.180091 
L 190.957623 459.047052 
L 180.311962 451.865426 
L 168.198737 443.901187 
L 159.556417 438.40755 
L 158.321799 436.765597 
L 157.599665 431.73232 
L 166.533168 429.55328 
L 178.460036 438.115988 
L 200.077483 455.947291 
L 215.813029 468.453755 
L 222.277298 460.535552 
L 211.480221 451.098158 
L 188.336973 432.59166 
L 177.353539 424.182405 
L 170.609734 415.788496 
L 180.183841 412.289755 
L 225.818087 448.58152 
L 235.811497 456.653177 
L 242.04282 461.318165 
L 258.127785 474.28499 
L 263.99804 478.781179 
L 275.528898 488.203227 
L 280.001474 492.990978 
L 273.828388 500.034496 
L 253.468852 484.735177 
L 248.017901 487.129052 
L 250.696787 495.722451 
L 260.666903 503.748072 
L 267.154467 508.41306 
L 274.993121 515.656068 
L 285.312657 523.390127 
L 295.539014 526.090909 
L 300.442541 521.303158 
L 308.723794 511.067806 
L 309.806995 501.553686 
L 298.707088 492.545963 
L 288.480731 484.735177 
L 278.988156 476.86301 
L 266.688573 467.333544 
L 260.597019 462.361649 
L 249.753353 453.937049 
L 240.086068 445.742629 
L 226.423748 434.862773 
L 204.258876 416.83198 
L 183.456741 400.872811 
L 188.814514 392.663046 
L 199.26217 399.246203 
L 212.144119 409.282065 
L 235.299015 428.279615 
L 247.167646 437.394756 
L 258.663562 446.064882 
L 269.122866 454.642935 
L 277.508945 461.026603 
L 312.474234 489.461546 
L 333.136601 505.451406 
L 343.199895 514.060151 
L 346.414559 514.198259 
L 349.873816 505.436061 
L 339.752285 497.195605 
L 311.216323 474.423098 
L 302.271172 467.533034 
L 292.149641 459.38465 
L 281.317622 451.082813 
L 274.072982 444.929326 
L 250.894792 426.699044 
L 241.076091 418.427897 
L 230.290662 409.773117 
L 221.170801 402.223202 
L 200.240546 385.91109 
L 199.297112 378.744809 
L 209.057576 379.420004 
L 221.205743 388.627217 
L 232.713307 398.125992 
L 244.453817 407.026298 
L 249.229223 411.077472 
L 257.475534 417.49183 
L 279.512286 435.077608 
L 285.405836 439.358962 
L 295.399246 447.154402 
L 305.369362 455.732456 
L 315.19971 463.205644 
L 326.718921 472.750454 
L 334.417807 478.3822 
L 346.426206 487.773557 
L 358.026949 497.195605 
L 365.155116 489.937252 
L 354.497807 481.804214 
L 343.57261 472.949944 
L 325.58913 457.896151 
L 314.640638 449.333442 
L 304.029919 440.801425 
L 292.883422 432.100609 
L 271.871636 414.88312 
L 259.828295 405.461072 
L 250.440546 398.494281 
L 232.573539 384.19241 
L 222.556834 375.890573 
L 211.817994 366.760086 
L 216.709873 357.39942 
L 227.623423 365.946782 
L 252.38565 385.91109 
L 265.896555 396.361276 
L 280.490662 407.471314 
L 293.267784 417.844774 
L 306.848573 428.448414 
L 319.532517 438.545658 
L 329.176508 446.663351 
L 351.457854 464.417927 
L 363.012007 473.287542 
L 375.183468 483.123915 
L 387.215162 492.668726 
L 397.592934 500.679001 
L 398.198596 500.510202 
L 402.880823 495.077946 
L 399.701102 487.129052 
L 389.847459 479.04205 
L 380.11029 471.845079 
L 368.171775 462.116123 
L 357.269872 453.53807 
L 348.744025 446.678696 
L 338.389547 437.855117 
L 327.28964 429.537934 
L 316.42268 420.913845 
L 306.452564 413.409966 
L 297.472471 405.829361 
L 285.95326 396.683529 
L 276.693631 388.765326 
L 256.392332 373.128409 
L 254.750058 372.084925 
L 245.630198 364.519664 
L 234.22746 355.68074 
L 224.897947 347.440284 
L 233.516973 340.857127 
L 244.197576 349.481216 
L 255.064536 357.951852 
L 256.671868 359.685878 
L 279.488991 377.732015 
L 290.181242 386.095234 
L 301.292796 395.118303 
L 313.126485 404.095335 
L 336.6308 423.138921 
L 360.344768 441.844909 
L 372.725881 451.497138 
L 384.73428 461.410237 
L 407.155394 479.057395 
L 418.12718 478.228746 
L 420.608062 474.238954 
L 414.516507 470.341234 
L 404.977343 462.82201 
L 395.426531 455.640383 
L 338.005185 409.957261 
L 325.798782 400.258997 
L 319.648991 395.164339 
L 310.191357 387.798568 
L 298.171311 378.223067 
L 287.607181 369.645013 
L 276.332564 360.944197 
L 257.696833 345.936439 
L 246.375627 337.220278 
L 239.759943 328.335317 
L 250.230894 326.386457 
L 261.121149 334.749675 
L 267.014699 339.046375 
L 278.231079 348.268933 
L 291.217854 358.581012 
L 299.557344 364.933989 
L 310.820313 374.524836 
L 324.098271 385.327966 
L 337.085046 395.716771 
L 348.813909 404.555696 
L 360.006995 413.16444 
L 371.607737 422.939432 
L 384.885696 433.665835 
L 397.115394 443.763079 
L 401.401612 445.97281 
L 412.559756 455.977981 
L 425.814419 466.044534 
L 429.460034 454.903806 
L 417.47493 445.481758 
L 404.51145 434.816736 
L 392.386577 425.609523 
L 371.398085 408.330653 
L 359.145093 398.877915 
L 346.740684 389.072233 
L 334.394513 379.696221 
L 324.168155 371.44042 
L 313.347784 362.540114 
L 304.658875 355.757467 
L 293.442494 346.519563 
L 281.98152 337.511839 
L 270.951497 328.48877 
L 265.780082 324.667777 
L 255.48384 316.473357 
L 257.091172 305.532119 
L 266.583748 311.40939 
L 268.924861 313.603776 
L 281.364211 322.979788 
L 292.697065 332.524599 
L 313.32449 347.931335 
L 325.705603 358.135997 
L 337.946949 368.00306 
L 350.165 377.639943 
L 367.170104 391.450763 
L 382.265046 403.266686 
L 419.047319 432.622351 
L 431.742911 442.903739 
L 441.584906 445.266923 
L 443.564953 438.361514 
L 432.66305 429.445862 
L 421.481612 420.806427 
L 398.04718 401.778187 
L 385.118642 391.634907 
L 373.878967 382.228204 
L 340.381241 356.002992 
L 329.514281 347.194758 
L 318.379432 338.770158 
L 307.128109 329.670363 
L 296.191265 320.984892 
L 285.627135 312.299421 
L 274.713585 303.966893 
L 265.663608 296.002654 
L 271.277622 287.992378 
L 272.11623 292.135624 
L 279.325928 300.560224 
L 289.610522 293.225144 
L 298.136369 294.191902 
L 299.464165 304.135692 
L 299.242866 314.509152 
L 307.90848 308.923443 
L 317.063283 309.644674 
L 310.587367 319.910717 
L 317.47094 325.128138 
L 326.24138 317.302007 
L 328.302958 325.373663 
L 327.674002 335.869886 
L 338.983561 344.401904 
L 351.807274 352.335452 
L 363.291543 360.545217 
L 373.902262 368.923781 
L 386.353259 379.082406 
L 399.293445 388.903434 
L 405.676183 393.322896 
L 416.263607 402.883052 
L 441.922679 422.954777 
L 453.698131 430.934362 
L 457.425277 420.837118 
L 446.453491 411.87543 
L 406.596322 380.371416 
L 396.160313 372.575976 
L 386.912331 364.826572 
L 367.472935 349.511907 
L 362.95377 339.736916 
L 364.945464 331.849403 
L 354.381334 323.025824 
L 342.454466 313.910683 
L 330.900313 304.120346 
L 319.672285 295.496257 
L 311.717158 288.698264 
L 303.098132 282.560122 
L 293.745325 274.549847 
L 286.162912 268.473086 
L 285.137947 268.810684 
L 280.152889 274.810718 
L 278.918272 270.744199 
L 280.840082 261.337496 
L 287.141288 255.935931 
L 292.964954 259.173801 
L 300.337715 265.480742 
L 309.748759 273.951378 
L 320.580777 282.283906 
L 332.297993 292.166315 
L 343.234837 300.621605 
L 349.734049 304.856923 
L 362.60435 315.690744 
L 374.368155 325.128138 
L 387.017157 336.054031 
L 396.230197 345.245898 
L 394.529686 356.095064 
L 407.644582 366.161617 
L 417.859292 371.532492 
L 425.523236 365.302278 
L 447.909407 383.839467 
L 443.378595 394.33569 
L 453.395301 403.466176 
L 464.471913 411.691286 
L 468.536832 412.70408 
L 474.849686 406.642664 
L 480.090985 399.906053 
L 476.887969 391.696288 
L 465.53182 383.593941 
L 456.493491 376.458351 
L 435.470057 359.455697 
L 429.168851 355.235725 
L 418.709547 347.317521 
L 408.110475 338.524633 
L 375.055348 311.793024 
L 364.782401 304.089656 
L 354.439571 295.833855 
L 343.852146 287.179074 
L 332.973538 278.815856 
L 323.457668 270.974379 
L 313.068248 262.964104 
L 303.331079 254.969174 
L 304.542402 245.593162 
L 312.905186 248.33998 
L 326.788805 259.480708 
L 338.878735 268.411705 
L 350.828898 278.34015 
L 362.406345 287.777543 
L 376.348201 298.979652 
L 393.504721 312.222694 
L 408.553074 324.299488 
L 434.922633 345.153826 
L 446.441844 354.483802 
L 460.069222 365.133479 
L 473.17247 375.783155 
L 485.041101 385.021059 
L 491.749964 381.629735 
L 488.244117 373.097718 
L 476.491959 363.706361 
L 455.899477 347.946681 
L 445.009222 339.49139 
L 433.88602 330.391594 
L 389.300034 295.143314 
L 378.025417 286.058863 
L 367.612703 278.217387 
L 357.654234 269.900204 
L 347.055162 261.92062 
L 337.317993 253.710855 
L 327.196462 244.67244 
L 317.59906 238.058592 
L 314.034977 233.301532 
L 321.861984 226.534231 
L 344.923701 244.611059 
L 356.256554 254.769684 
L 379.458039 273.18411 
L 391.699385 283.219973 
L 404.33674 292.918237 
L 440.746298 321.675433 
L 452.603282 331.511805 
L 465.322168 341.516977 
L 492.006205 362.800985 
L 502.442214 368.616874 
L 508.638595 360.315037 
L 498.330706 352.964612 
L 487.871402 344.892955 
L 488.209175 336.054031 
L 483.655068 326.785436 
L 473.184117 318.498944 
L 463.470243 313.12807 
L 455.107458 317.25597 
L 444.368619 309.644674 
L 434.107319 301.726471 
L 424.836043 294.007757 
L 413.80602 285.70592 
L 407.469872 280.626608 
L 399.130382 274.288976 
L 389.090382 266.386118 
L 356.640916 240.130215 
L 348.76732 233.424295 
L 338.529315 225.920416 
L 328.279664 217.725997 
L 334.790522 208.426712 
L 355.977018 225.122458 
L 364.677575 220.672305 
L 357.957065 212.078906 
L 346.216554 203.055837 
L 344.597575 193.388263 
L 355.324768 196.27319 
L 367.27493 206.109563 
L 378.479663 214.687616 
L 389.707691 223.92552 
L 400.784303 228.053421 
L 403.276832 233.731202 
L 412.524814 241.618715 
L 423.030707 250.964036 
L 421.318549 260.294012 
L 411.825974 255.460225 
L 394.94899 244.534332 
L 390.057111 251.593196 
L 398.664489 259.11242 
L 409.193677 267.414257 
L 413.747784 270.959034 
L 423.01906 278.34015 
L 432.989176 286.549915 
L 442.749639 286.948894 
L 451.787969 276.038346 
L 458.578363 266.754407 
L 453.768015 261.414223 
L 444.310382 254.401396 
L 435.772888 247.87962 
L 440.292052 237.291325 
L 452.009268 245.362981 
L 463.679895 255.045901 
L 475.09428 263.777408 
L 486.508665 273.260837 
L 486.997853 283.434808 
L 478.565184 294.406737 
L 474.581797 305.102449 
L 486.566901 315.030894 
L 497.666808 323.209968 
L 507.04291 312.03855 
L 516.290892 300.483497 
L 524.222725 290.386254 
L 516.244303 283.158591 
L 505.144395 273.81327 
L 483.503653 257.010106 
L 461.711495 239.562437 
L 451.124071 231.414054 
L 445.84783 226.795102 
L 435.493352 219.045697 
L 424.416739 209.577613 
L 412.990707 200.60058 
L 401.937389 192.14529 
L 394.040498 185.285916 
L 387.564582 192.083908 
L 395.461473 200.155565 
L 404.98899 208.16584 
L 413.63131 217.572543 
L 406.444907 223.419124 
L 396.707737 215.531611 
L 389.136972 208.871727 
L 385.78254 206.938212 
L 375.835719 199.756586 
L 364.141798 190.089012 
L 355.301473 181.37285 
L 363.279895 170.677138 
L 370.76913 160.226951 
L 381.379849 161.960976 
L 396.206902 172.932905 
L 409.18203 183.014803 
L 472.962818 234.038109 
L 484.26073 243.368085 
L 498.354001 253.664819 
L 512.517156 265.327289 
L 522.825045 270.360565 
L 520.344163 258.05359 
L 512.563746 253.29653 
L 506.949732 253.127731 
L 498.167644 246.805445 
L 491.051124 241.250426 
L 485.169222 236.24784 
L 492.448804 235.971624 
L 502.675161 243.12256 
L 510.455579 244.44226 
L 504.608618 238.258082 
L 497.818224 233.485677 
L 491.097713 227.654442 
L 489.024488 219.490713 
L 479.345556 211.587855 
L 469.55015 203.792414 
L 472.47363 193.342227 
L 463.214001 184.733483 
L 454.000962 179.976423 
L 451.415254 192.007181 
L 447.536693 199.035354 
L 438.288711 192.068563 
L 428.621426 185.04039 
L 408.588016 168.774314 
L 399.072146 160.764038 
L 388.601194 152.999289 
L 384.43145 143.960874 
L 390.825835 140.876458 
L 402.018921 150.574723 
L 413.491542 158.999323 
L 424.090614 167.562031 
L 435.446762 175.894559 
L 445.591588 177.843419 
L 443.262122 169.173293 
L 433.05906 160.564549 
L 422.436693 151.280609 
L 400.528062 134.753661 
L 399.165324 125.116778 
L 407.924118 127.234437 
L 419.478271 135.659037 
L 430.508294 144.283127 
L 442.132331 152.815144 
L 452.964349 161.761486 
L 464.402029 170.692483 
L 475.525231 179.669516 
L 485.43711 188.094116 
L 496.548665 195.874211 
L 506.530428 204.176048 
L 511.480544 196.963731 
L 503.490474 189.275708 
L 494.009546 180.360057 
L 484.91298 173.792245 
L 474.57015 165.183501 
L 464.460266 157.556859 
L 455.736414 149.684692 
L 444.718039 140.96853 
L 432.13892 131.561827 
L 411.779384 114.988844 
L 413.969083 107.300821 
L 425.756183 113.500344 
L 441.957621 125.086088 
L 453.942725 134.400718 
L 464.914512 143.193607 
L 473.917899 142.717901 
L 468.839662 133.157744 
L 457.541751 123.950531 
L 437.811171 108.35965 
L 428.458363 100.36472 
L 425.721241 92.185646 
L 423.892609 83.392758 
L 414.190382 75.551281 
L 404.895811 67.387552 
L 400.959013 70.119025 
L 400.959013 70.119025 
" style="fill:none;stroke:#000000;stroke-width:3;"/>
   </g>
  </g>
 </g>
 <defs>
  <clipPath id="pb223208a73">
   <rect height="543.6" width="541.642854" x="7.2" y="7.2"/>
  </clipPath>
 </defs>
</svg>
