<?xml version="1.0" encoding="utf-8" standalone="no"?>
<!DOCTYPE svg PUBLIC "-//W3C//DTD SVG 1.1//EN"
  "http://www.w3.org/Graphics/SVG/1.1/DTD/svg11.dtd">
<svg height="558pt" version="1.1" viewBox="0 0 386.521638 558" width="386.521638pt" xmlns="http://www.w3.org/2000/svg" xmlns:xlink="http://www.w3.org/1999/xlink">
 <metadata>
  <rdf:RDF xmlns:cc="http://creativecommons.org/ns#" xmlns:dc="http://purl.org/dc/elements/1.1/" xmlns:rdf="http://www.w3.org/1999/02/22-rdf-syntax-ns#">
   <cc:Work>
    <dc:type rdf:resource="http://purl.org/dc/dcmitype/StillImage"/>
    <dc:date>2021-05-26T19:21:53.565579</dc:date>
    <dc:format>image/svg+xml</dc:format>
    <dc:creator>
     <cc:Agent>
      <dc:title>Matplotlib v3.4.2, https://matplotlib.org/</dc:title>
     </cc:Agent>
    </dc:creator>
   </cc:Work>
  </rdf:RDF>
 </metadata>
 <defs>
  <style type="text/css">*{stroke-linecap:butt;stroke-linejoin:round;}</style>
 </defs>
 <g id="figure_1">
  <g id="patch_1">
   <path d="M 0 558 
L 386.521638 558 
L 386.521638 0 
L 0 0 
z
" style="fill:none;"/>
  </g>
  <g id="axes_1">
   <g id="LineCollection_1">
    <path clip-path="url(#pf76d0a16b3)" d="M 24.11462 441.749439 
L 36.114963 451.292833 
L 53.686146 457.544447 
L 68.346251 459.010534 
L 77.288916 442.440989 
L 78.189465 425.041585 
L 72.220708 405.733501 
L 70.964127 385.512572 
L 79.006242 367.559927 
L 84.954056 352.926723 
L 98.273809 340.395832 
L 113.792577 331.765285 
L 129.855864 323.411358 
L 139.866622 308.114266 
L 139.259274 289.276437 
L 146.568384 272.457935 
L 161.898665 262.167667 
L 172.809972 248.86224 
L 178.757786 232.984245 
L 187.344419 215.059263 
L 197.124804 198.65569 
L 210.235126 187.065308 
L 227.345563 180.011495 
L 241.440207 168.780719 
L 248.77026 153.898557 
L 262.2785 144.99139 
L 277.46218 137.494985 
L 289.420637 125.793955 
L 294.551674 111.713991 
L 289.923269 94.784841 
L 289.357808 79.985665 
L 279.870626 66.7079 
L 264.393743 60.179666 
L 259.116106 44.854912 
L 268.854604 31.909091 
L 283.514709 33.070895 
L 302.049271 35.007236 
L 317.50521 40.263018 
L 332.186258 50.60861 
L 342.762477 64.743897 
L 341.212695 80.953836 
L 334.113015 95.974307 
L 322.929449 109.694665 
L 315.012992 124.35553 
L 321.337781 138.103549 
L 337.442953 134.977742 
L 350.783649 128.449508 
L 362.407018 136.499153 
L 356.815235 147.978887 
L 342.888135 156.55411 
L 333.673212 171.242638 
L 329.798755 189.250607 
L 327.578797 206.760659 
L 328.961035 224.326036 
L 320.311573 239.09755 
L 308.080857 251.241172 
L 297.37898 264.574262 
L 288.60386 277.879689 
L 281.127206 293.730021 
L 279.305165 309.856973 
L 287.640482 324.628486 
L 289.169321 340.589466 
L 287.263508 356.827067 
L 287.054077 373.922189 
L 282.928305 388.749027 
L 275.388822 404.018457 
L 267.681796 418.900618 
L 258.424986 432.731624 
L 250.759846 447.005221 
L 242.131327 462.717243 
L 234.21487 478.539913 
L 226.675387 492.702862 
L 218.570443 508.138264 
L 209.418349 522.3842 
L 190.841902 524.18223 
L 173.563921 522.3842 
L 157.500634 526.090909 
L 142.191295 524.818457 
L 126.316496 519.590337 
L 116.473282 507.004122 
L 103.048815 496.824502 
L 86.901756 494.224273 
L 72.074107 488.802519 
L 65.958749 474.91619 
L 55.80139 459.951042 
L 41.602031 454.750584 
L 29.078113 448.471308 
L 26.27175 445.843417 
" style="fill:none;stroke:#000000;stroke-width:3;"/>
   </g>
  </g>
 </g>
 <defs>
  <clipPath id="pf76d0a16b3">
   <rect height="543.6" width="372.121638" x="7.2" y="7.2"/>
  </clipPath>
 </defs>
</svg>
