<?xml version="1.0" encoding="utf-8" standalone="no"?>
<!DOCTYPE svg PUBLIC "-//W3C//DTD SVG 1.1//EN"
  "http://www.w3.org/Graphics/SVG/1.1/DTD/svg11.dtd">
<svg height="558pt" version="1.1" viewBox="0 0 287.145393 558" width="287.145393pt" xmlns="http://www.w3.org/2000/svg" xmlns:xlink="http://www.w3.org/1999/xlink">
 <metadata>
  <rdf:RDF xmlns:cc="http://creativecommons.org/ns#" xmlns:dc="http://purl.org/dc/elements/1.1/" xmlns:rdf="http://www.w3.org/1999/02/22-rdf-syntax-ns#">
   <cc:Work>
    <dc:type rdf:resource="http://purl.org/dc/dcmitype/StillImage"/>
    <dc:date>2021-05-26T19:21:54.414252</dc:date>
    <dc:format>image/svg+xml</dc:format>
    <dc:creator>
     <cc:Agent>
      <dc:title>Matplotlib v3.4.2, https://matplotlib.org/</dc:title>
     </cc:Agent>
    </dc:creator>
   </cc:Work>
  </rdf:RDF>
 </metadata>
 <defs>
  <style type="text/css">*{stroke-linecap:butt;stroke-linejoin:round;}</style>
 </defs>
 <g id="figure_1">
  <g id="patch_1">
   <path d="M 0 558 
L 287.145393 558 
L 287.145393 0 
L 0 0 
z
" style="fill:none;"/>
  </g>
  <g id="axes_1">
   <g id="LineCollection_1">
    <path clip-path="url(#pd5be88cb73)" d="M 197.32738 103.048508 
L 200.086971 104.314891 
L 204.700303 105.924357 
L 209.48181 104.990967 
L 214.699041 106.62566 
L 221.273135 110.566078 
L 227.140131 114.410633 
L 229.708615 120.994814 
L 234.077329 125.969527 
L 239.111098 130.298437 
L 242.325524 131.645545 
L 242.868269 132.407392 
L 246.166782 134.400305 
L 244.821386 140.389134 
L 243.804695 146.3376 
L 238.877947 153.804716 
L 234.516876 161.483737 
L 230.442467 169.107259 
L 228.141534 173.849887 
L 225.301678 179.086959 
L 221.403088 185.060652 
L 217.752937 191.221023 
L 215.176809 196.957584 
L 214.62642 197.275441 
L 212.612148 201.902026 
L 208.87791 208.365118 
L 202.961226 219.298388 
L 202.303816 221.48807 
L 200.086971 224.10156 
L 197.617863 229.51522 
L 190.657733 242.174 
L 189.063897 243.162888 
L 186.514525 247.68352 
L 182.164921 251.190038 
L 180.670461 255.216226 
L 179.252444 256.891282 
L 178.338951 260.433117 
L 176.294102 260.907379 
L 176.053307 261.189919 
L 175.575538 264.867978 
L 165.209874 285.402548 
L 163.497552 290.311672 
L 161.632344 293.379244 
L 159.526341 295.573971 
L 158.337653 298.419547 
L 154.32822 304.448739 
L 152.742029 307.576855 
L 151.83618 310.795788 
L 142.483385 328.055926 
L 139.116073 334.892373 
L 136.861006 340.280806 
L 135.129573 343.242425 
L 129.851187 351.476435 
L 124.637778 358.272519 
L 123.005721 363.615544 
L 123.36118 365.134194 
L 123.089808 370.371266 
L 120.823274 374.503406 
L 117.157835 380.361056 
L 113.075781 388.065304 
L 108.90964 394.235765 
L 104.598258 400.895626 
L 101.739291 404.886496 
L 99.17463 409.770394 
L 94.419879 416.233486 
L 94.412235 416.849018 
L 91.763486 419.77532 
L 88.178312 426.515906 
L 84.119191 432.610688 
L 82.406869 434.487557 
L 81.833547 435.542035 
L 79.154221 439.502634 
L 76.608671 444.098947 
L 73.68855 447.827459 
L 68.777091 455.627569 
L 69.151661 455.804156 
L 69.377168 454.512547 
L 58.770708 473.87155 
L 56.31689 476.167183 
L 50.717443 486.560602 
L 46.406061 489.406178 
L 40.902168 503.290978 
L 37.917071 506.928675 
L 37.779474 507.720794 
L 36.392034 507.791429 
L 29.252263 506.888312 
L 26.034014 508.608776 
L 22.574971 508.60373 
L 19.597518 509.093129 
L 20.476612 512.190973 
L 22.081914 512.009341 
L 25.399538 510.465464 
L 30.536504 510.465464 
L 32.864192 513.982072 
L 32.864192 519.789269 
L 36.101551 522.241308 
L 39.614105 523.073791 
L 42.889685 526.090909 
L 49.047165 524.663075 
L 55.158779 522.6298 
L 60.177259 518.033487 
L 63.915319 516.161663 
L 64.28989 516.242388 
L 63.953541 514.648058 
L 64.748547 514.486607 
L 67.852131 512.458377 
L 85.361389 499.027658 
L 90.039698 494.749203 
L 95.513013 491.797674 
L 98.471355 492.282027 
L 103.424859 491.081234 
L 113.247778 487.312359 
L 121.289576 483.72007 
L 124.870929 485.919842 
L 131.460311 487.847166 
L 133.012103 484.138834 
L 133.428717 483.715025 
L 135.756405 484.194333 
L 140.862794 484.058109 
L 151.541874 482.019788 
L 164.907925 479.744336 
L 170.140445 477.766559 
L 171.741924 477.019847 
L 170.813143 474.885665 
L 169.827028 472.93816 
L 166.023992 472.024952 
L 162.759878 470.349896 
L 162.152156 465.526543 
L 162.171267 462.453925 
L 158.310898 460.461013 
L 153.59819 458.730458 
L 144.574099 454.522637 
L 141.011858 453.498431 
L 141.233542 449.704329 
L 144.367703 442.33812 
L 145.862163 439.260457 
L 142.636271 436.011253 
L 140.388848 432.817547 
L 142.517784 427.630928 
L 143.821136 422.479627 
L 133.77271 416.611887 
L 135.335969 412.918692 
L 137.908274 407.530259 
L 141.164744 401.576748 
L 144.524411 395.739279 
L 147.536264 389.856402 
L 150.907398 384.104705 
L 154.018626 378.10074 
L 152.944603 374.140141 
L 148.01021 370.996889 
L 144.59321 369.019112 
L 139.674106 366.370304 
L 138.087915 365.699273 
L 131.647596 360.946554 
L 127.619053 358.938505 
L 128.100643 355.270537 
L 130.351888 350.053646 
L 126.472408 347.409884 
L 121.232244 343.979046 
L 115.747462 341.173832 
L 110.075395 336.855014 
L 106.887724 334.62497 
L 110.148016 329.392943 
L 113.729368 323.293117 
L 116.691533 316.90066 
L 120.915006 310.558656 
L 130.432153 292.582079 
L 134.250479 286.103851 
L 135.248059 281.613491 
L 136.998603 280.937414 
L 139.211626 274.983902 
L 143.221059 269.817465 
L 146.768012 263.944679 
L 149.462626 258.016395 
L 151.870579 251.941795 
L 154.477284 247.199167 
L 157.787264 242.068047 
L 158.903331 236.9672 
L 164.724461 228.041978 
L 166.108079 223.980472 
L 169.475391 219.268116 
L 170.893408 218.470951 
L 176.278814 210.443801 
L 176.985911 202.10384 
L 179.768434 194.389502 
L 183.158679 186.392624 
L 187.62677 181.55918 
L 193.746028 183.183782 
L 199.39134 179.601585 
L 203.966451 174.061792 
L 207.952951 168.10828 
L 207.066212 161.362649 
L 211.274397 155.101371 
L 214.343581 150.10143 
L 215.880085 143.865379 
L 218.119863 138.386131 
L 222.737017 132.861474 
L 225.50043 127.129958 
L 230.629752 122.75564 
L 237.51344 122.876729 
L 241.859222 117.452979 
L 251.429879 100.056616 
L 253.524416 92.94772 
L 253.054292 84.895343 
L 254.319423 76.953964 
L 259.376124 70.889455 
L 260.954671 64.269958 
L 262.357399 57.29224 
L 267.547876 51.666677 
L 259.265282 51.485044 
L 262.433842 44.11379 
L 263.022453 37.085619 
L 257.614114 33.301607 
L 251.907648 31.909091 
L 247.970836 34.098772 
L 248.521225 37.509428 
L 251.953513 40.365095 
L 253.654369 45.56685 
L 250.290879 51.979488 
L 244.523259 57.786685 
L 238.694484 60.798758 
L 234.87998 65.425343 
L 232.552292 70.278968 
L 228.531393 75.051868 
L 225.848246 80.425164 
L 223.918061 85.813597 
L 218.933981 88.169775 
L 214.496467 93.199987 
L 213.399511 101.055595 
L 214.225095 106.660978 
L 211.423461 111.83246 
L 206.951548 115.838467 
L 207.352873 113.99187 
L 207.6854 111.010068 
L 204.807323 107.377417 
L 200.129014 104.269483 
L 197.472622 102.85174 
L 197.472622 102.85174 
" style="fill:none;stroke:#000000;stroke-width:3;"/>
   </g>
  </g>
 </g>
 <defs>
  <clipPath id="pd5be88cb73">
   <rect height="543.6" width="272.745393" x="7.2" y="7.2"/>
  </clipPath>
 </defs>
</svg>
