<?xml version="1.0" encoding="utf-8" standalone="no"?>
<!DOCTYPE svg PUBLIC "-//W3C//DTD SVG 1.1//EN"
  "http://www.w3.org/Graphics/SVG/1.1/DTD/svg11.dtd">
<svg height="558pt" version="1.1" viewBox="0 0 381.830572 558" width="381.830572pt" xmlns="http://www.w3.org/2000/svg" xmlns:xlink="http://www.w3.org/1999/xlink">
 <metadata>
  <rdf:RDF xmlns:cc="http://creativecommons.org/ns#" xmlns:dc="http://purl.org/dc/elements/1.1/" xmlns:rdf="http://www.w3.org/1999/02/22-rdf-syntax-ns#">
   <cc:Work>
    <dc:type rdf:resource="http://purl.org/dc/dcmitype/StillImage"/>
    <dc:date>2021-05-26T19:21:54.533401</dc:date>
    <dc:format>image/svg+xml</dc:format>
    <dc:creator>
     <cc:Agent>
      <dc:title>Matplotlib v3.4.2, https://matplotlib.org/</dc:title>
     </cc:Agent>
    </dc:creator>
   </cc:Work>
  </rdf:RDF>
 </metadata>
 <defs>
  <style type="text/css">*{stroke-linecap:butt;stroke-linejoin:round;}</style>
 </defs>
 <g id="figure_1">
  <g id="patch_1">
   <path d="M 0 558 
L 381.830572 558 
L 381.830572 0 
L 0 0 
z
" style="fill:none;"/>
  </g>
  <g id="axes_1">
   <g id="LineCollection_1">
    <path clip-path="url(#p267183bc81)" d="M 23.90139 438.449249 
L 34.656426 449.28813 
L 49.058641 453.448508 
L 61.699435 460.783913 
L 71.252559 447.563762 
L 75.272746 431.716004 
L 71.273282 414.636555 
L 67.253095 396.325415 
L 69.346079 376.536245 
L 76.909833 360.989567 
L 86.918855 347.139886 
L 100.678669 336.027295 
L 115.930512 329.102455 
L 130.581399 320.316392 
L 136.818906 304.222296 
L 136.984687 285.719559 
L 146.537811 269.707575 
L 162.266274 258.622356 
L 172.109515 243.595725 
L 179.113758 225.613036 
L 188.16954 208.259878 
L 199.256137 194.382825 
L 214.50798 185.104086 
L 230.692341 177.549714 
L 240.390523 163.262098 
L 251.601457 149.494529 
L 266.604628 142.104383 
L 278.934583 133.208837 
L 287.783138 121.056152 
L 288.093978 105.947408 
L 284.073791 90.866036 
L 281.193348 74.525601 
L 266.874022 66.259586 
L 254.606236 56.406057 
L 257.714627 41.105717 
L 271.412274 31.909091 
L 288.570598 35.166229 
L 306.889387 39.600317 
L 321.7475 49.125395 
L 334.678411 61.059112 
L 337.786803 76.523678 
L 332.067361 92.042985 
L 323.218806 106.166375 
L 312.712441 118.756995 
L 309.894166 133.126724 
L 321.975449 141.310627 
L 336.709227 133.345691 
L 350.924939 130.362262 
L 357.929182 142.295979 
L 347.588598 151.492606 
L 335.776709 161.072425 
L 326.928154 175.797976 
L 323.736871 192.302636 
L 322.182675 208.424103 
L 323.923375 225.010876 
L 316.214563 238.833186 
L 304.879294 250.520566 
L 294.248593 263.001702 
L 285.068476 276.632416 
L 277.318219 290.947403 
L 274.126937 306.220372 
L 280.364443 320.234279 
L 284.840527 335.26091 
L 281.732135 350.807588 
L 282.56104 366.874313 
L 279.452648 383.406344 
L 272.054675 399.035135 
L 263.807076 414.77341 
L 254.979243 429.772669 
L 246.15141 444.771929 
L 238.090313 460.127011 
L 229.863436 474.168289 
L 221.553669 488.89384 
L 213.637631 506.767045 
L 202.696091 521.60208 
L 183.776346 522.012643 
L 167.426204 520.863065 
L 150.350772 526.090909 
L 134.539418 522.094756 
L 118.997459 517.085879 
L 110.169626 500.991783 
L 95.912468 493.902716 
L 80.453399 492.5068 
L 65.947571 483.665995 
L 62.922069 468.037205 
L 49.120809 454.488603 
L 33.143675 454.379119 
L 29.952392 450.19137 
" style="fill:none;stroke:#000000;stroke-width:3;"/>
   </g>
  </g>
 </g>
 <defs>
  <clipPath id="p267183bc81">
   <rect height="543.6" width="367.430572" x="7.2" y="7.2"/>
  </clipPath>
 </defs>
</svg>
