<?xml version="1.0" encoding="utf-8" standalone="no"?>
<!DOCTYPE svg PUBLIC "-//W3C//DTD SVG 1.1//EN"
  "http://www.w3.org/Graphics/SVG/1.1/DTD/svg11.dtd">
<svg height="558pt" version="1.1" viewBox="0 0 347.069704 558" width="347.069704pt" xmlns="http://www.w3.org/2000/svg" xmlns:xlink="http://www.w3.org/1999/xlink">
 <metadata>
  <rdf:RDF xmlns:cc="http://creativecommons.org/ns#" xmlns:dc="http://purl.org/dc/elements/1.1/" xmlns:rdf="http://www.w3.org/1999/02/22-rdf-syntax-ns#">
   <cc:Work>
    <dc:type rdf:resource="http://purl.org/dc/dcmitype/StillImage"/>
    <dc:date>2021-05-26T19:21:55.123889</dc:date>
    <dc:format>image/svg+xml</dc:format>
    <dc:creator>
     <cc:Agent>
      <dc:title>Matplotlib v3.4.2, https://matplotlib.org/</dc:title>
     </cc:Agent>
    </dc:creator>
   </cc:Work>
  </rdf:RDF>
 </metadata>
 <defs>
  <style type="text/css">*{stroke-linecap:butt;stroke-linejoin:round;}</style>
 </defs>
 <g id="figure_1">
  <g id="patch_1">
   <path d="M 0 558 
L 347.069704 558 
L 347.069704 0 
L 0 0 
z
" style="fill:none;"/>
  </g>
  <g id="axes_1">
   <g id="LineCollection_1">
    <path clip-path="url(#p5d2909880c)" d="M 178.333371 93.854931 
L 179.736838 94.754679 
L 183.810233 96.796752 
L 182.212954 101.480731 
L 179.302431 106.411699 
L 176.799583 111.620531 
L 173.995991 116.582373 
L 171.65688 121.231067 
L 163.660462 135.684362 
L 158.377413 145.100835 
L 152.008348 157.172445 
L 149.371835 161.578561 
L 146.598318 161.578561 
L 144.446336 160.180424 
L 144.43297 159.981951 
L 143.403761 162.707656 
L 143.641013 167.665087 
L 144.529876 172.163824 
L 148.927404 173.650171 
L 159.209468 179.061887 
L 164.626181 182.166897 
L 169.631878 185.408634 
L 172.809728 188.293118 
L 171.469751 192.866834 
L 168.569254 197.921297 
L 165.862568 203.116897 
L 163.433234 207.41716 
L 160.85687 211.254318 
L 158.387437 215.63397 
L 156.121841 219.418202 
L 153.92976 223.356802 
L 152.883843 225.747307 
L 146.725298 235.962085 
L 144.192375 241.034191 
L 141.786432 246.520885 
L 138.785687 251.698843 
L 135.414026 256.938548 
L 134.60202 258.032358 
L 132.423305 262.853064 
L 129.656471 268.313295 
L 124.406838 277.478368 
L 121.790375 281.844789 
L 120.570696 286.691958 
L 121.349285 288.266516 
L 125.669958 290.890779 
L 128.864515 293.735568 
L 127.046692 297.740326 
L 124.393471 302.55662 
L 121.553122 307.028894 
L 118.702748 312.731704 
L 115.752127 316.432136 
L 113.934304 320.106104 
L 113.145689 324.313746 
L 112.28356 330.938356 
L 105.470063 341.735325 
L 101.881199 346.97503 
L 98.456072 352.214735 
L 95.88305 357.061903 
L 94.994188 358.411524 
L 94.45285 358.914324 
L 92.401116 361.856145 
L 89.413737 366.959124 
L 84.548386 374.359987 
L 83.425613 375.665503 
L 81.186749 378.99545 
L 77.567811 384.918787 
L 74.57709 390.321681 
L 69.126961 397.894555 
L 61.244157 410.42486 
L 58.610987 415.086786 
L 57.204178 417.168554 
L 56.886728 418.068301 
L 54.13326 421.592312 
L 51.005534 421.720217 
L 47.536967 419.709017 
L 43.54377 417.913933 
L 42.193769 422.192143 
L 41.545501 426.135154 
L 40.021737 428.380112 
L 39.146241 432.080543 
L 38.731885 435.613375 
L 38.922355 439.296164 
L 36.162204 441.122122 
L 34.788812 444.346217 
L 33.388687 446.63528 
L 31.634354 448.187785 
L 28.606876 448.606785 
L 25.034719 449.810859 
L 22.32135 451.442753 
L 23.744866 451.905858 
L 23.915287 451.83529 
L 26.207616 451.658869 
L 28.40638 450.441564 
L 32.723711 450.529774 
L 34.337698 454.159637 
L 35.233243 459.134711 
L 39.05936 460.766606 
L 41.358372 463.620216 
L 45.528673 464.078911 
L 52.572739 462.036837 
L 58.173239 457.419016 
L 61.605049 455.601879 
L 64.305051 455.456332 
L 66.914831 452.139616 
L 68.76607 449.440374 
L 71.462731 448.302459 
L 72.722509 449.431553 
L 73.815208 451.116374 
L 73.745035 451.760311 
L 73.998996 451.376595 
L 72.61892 449.087532 
L 70.951468 447.005764 
L 71.335751 446.05309 
L 71.43934 444.579974 
L 75.348997 443.464111 
L 78.490089 442.255627 
L 83.662866 438.219996 
L 87.58923 436.649848 
L 90.025247 436.843912 
L 96.076862 431.29988 
L 98.225502 431.568922 
L 104.096671 429.403354 
L 106.836772 427.740585 
L 105.834296 424.08867 
L 106.375633 421.852533 
L 106.87353 418.835733 
L 108.667962 416.833354 
L 109.095685 412.488986 
L 108.444076 407.937323 
L 108.921923 404.294228 
L 102.489368 402.137481 
L 101.496916 402.935786 
L 102.566224 405.154281 
L 104.450879 408.541565 
L 106.168455 411.254039 
L 106.736525 413.35786 
L 107.434917 416.581954 
L 109.259423 419.537007 
L 110.896801 422.972807 
L 112.925144 427.917006 
L 115.538265 433.271385 
L 118.468837 440.367922 
L 122.986663 449.705006 
L 125.322433 458.7951 
L 127.798549 466.063648 
L 130.301397 471.819384 
L 133.011425 472.123711 
L 130.097561 471.400384 
L 135.026402 471.854668 
L 147.988418 472.357468 
L 148.887305 476.326942 
L 148.883964 481.491668 
L 149.38186 486.180058 
L 150.01342 487.278279 
L 154.531246 487.728152 
L 156.131866 489.536468 
L 156.830258 493.527994 
L 157.662313 497.493057 
L 159.125928 500.068805 
L 163.002169 500.165836 
L 167.29945 500.45252 
L 171.048711 501.20672 
L 171.95094 505.873057 
L 173.848961 518.63712 
L 174.691041 523.202014 
L 176.321736 526.090909 
L 180.411838 525.407278 
L 184.224589 525.204393 
L 194.359623 523.510751 
L 204.83884 521.962657 
L 210.26892 520.98352 
L 215.481796 519.889709 
L 220.90185 519.325162 
L 232.326736 517.63152 
L 237.820306 516.705309 
L 243.023157 515.946699 
L 248.43987 515.395383 
L 257.575769 514.036941 
L 258.835547 513.375362 
L 267.510308 512.466794 
L 277.899302 510.751099 
L 283.265891 510.151267 
L 284.923318 509.630825 
L 289.130376 508.960425 
L 303.739795 506.980099 
L 308.621854 506.102404 
L 318.456145 504.730731 
L 323.662338 503.738362 
L 324.597982 502.96211 
L 324.748354 502.304941 
L 322.435976 500.258457 
L 317.984981 496.487457 
L 316.15045 494.039615 
L 317.938199 489.911363 
L 318.088571 488.425015 
L 310.880767 482.673689 
L 306.426432 479.687763 
L 299.893629 474.955268 
L 299.338925 474.21871 
L 297.023205 469.764079 
L 295.329021 464.678742 
L 293.430999 458.314353 
L 290.209709 453.828848 
L 287.970846 453.105522 
L 283.279257 453.131985 
L 278.848313 453.881774 
L 274.283705 454.287543 
L 270.136795 453.965574 
L 269.458453 449.202206 
L 268.793477 445.395922 
L 268.479368 441.510248 
L 267.520332 433.743312 
L 267.002386 428.944659 
L 266.237163 424.00928 
L 265.141122 414.063544 
L 264.369216 407.699154 
L 264.442731 407.752081 
L 263.196319 407.588891 
L 258.427874 407.835881 
L 253.331953 408.519512 
L 243.714865 408.554796 
L 242.037389 408.488639 
L 241.693205 408.83707 
L 236.209661 408.400428 
L 232.784534 408.660649 
L 228.985149 407.606533 
L 226.087993 407.086091 
L 224.357051 409.622144 
L 220.677964 416.934796 
L 219.030561 421.07187 
L 217.784149 423.056607 
L 214.756671 424.375354 
L 210.953945 423.409449 
L 206.974115 422.006901 
L 203.261611 420.502912 
L 199.766311 419.303249 
L 196.174105 417.909523 
L 193.039696 417.04947 
L 186.934617 414.438438 
L 186.580408 414.689838 
L 174.513937 410.072017 
L 179.917283 415.766007 
L 166.293633 406.045207 
L 158.16021 402.922555 
L 151.162926 400.898123 
L 133.893604 393.74866 
L 131.033205 391.997681 
L 122.836292 387.759165 
L 118.859803 386.484523 
L 118.91661 384.11166 
L 121.362652 377.023945 
L 121.974162 369.239366 
L 125.37924 363.624766 
L 128.547064 358.764366 
L 131.069962 352.457314 
L 133.99051 347.64984 
L 136.616997 342.546861 
L 142.053759 332.504093 
L 135.049793 327.877451 
L 134.83259 328.124441 
L 131.287166 325.93682 
L 127.925529 324.062346 
L 127.156964 323.268451 
L 124.640749 321.314588 
L 123.832085 320.375146 
L 122.856341 319.867936 
L 123.417728 317.398041 
L 124.934808 314.403294 
L 126.659067 310.469104 
L 128.931347 306.24382 
L 128.513648 303.548989 
L 125.302383 301.476041 
L 127.484439 295.949652 
L 131.033205 291.49061 
L 133.348925 286.647852 
L 136.566873 280.755389 
L 139.156603 274.907032 
L 140.824055 270.694979 
L 142.274304 268.498537 
L 144.406237 264.515832 
L 147.193121 260.722779 
L 148.950795 257.264927 
L 149.408593 257.516327 
L 150.494609 256.819464 
L 155.53038 246.428264 
L 158.998948 241.479654 
L 162.206872 239.380243 
L 165.618632 234.480149 
L 165.765662 230.232812 
L 167.874203 224.318296 
L 172.174826 217.931854 
L 174.771239 211.673318 
L 177.534732 205.979328 
L 180.074338 202.424444 
L 183.048351 197.290592 
L 185.648105 193.157929 
L 187.566176 187.697697 
L 189.925337 184.70736 
L 192.12076 181.717024 
L 195.171629 176.768413 
L 197.159873 172.653392 
L 199.151459 169.407245 
L 200.601708 165.953803 
L 202.696883 161.719698 
L 205.928198 156.550561 
L 208.621517 150.794825 
L 211.86954 146.340193 
L 213.326472 141.263677 
L 215.408281 139.327456 
L 217.496773 135.516762 
L 219.725611 130.735751 
L 224.661135 122.563046 
L 226.736261 118.959646 
L 229.476363 114.469731 
L 232.259905 109.225615 
L 235.053472 104.638668 
L 237.131939 100.232552 
L 242.18776 91.102763 
L 251.256828 74.210448 
L 253.375394 69.522058 
L 254.260914 66.659627 
L 250.949402 64.16768 
L 251.146555 61.009743 
L 253.445567 57.410753 
L 255.139752 53.485385 
L 257.769581 49.665869 
L 256.199035 48.682322 
L 252.917596 46.357975 
L 253.592597 44.752543 
L 252.556705 42.516406 
L 248.479969 40.095028 
L 244.506822 38.02208 
L 241.285532 37.898585 
L 239.948897 37.364912 
L 235.474511 35.777122 
L 231.250745 32.879407 
L 226.752969 31.909091 
L 223.087248 33.104344 
L 222.783163 36.328438 
L 225.713735 38.396975 
L 227.103836 42.507585 
L 226.024503 48.75289 
L 220.210141 52.68708 
L 215.719048 56.409564 
L 211.51199 60.445195 
L 209.593919 64.502879 
L 206.653322 68.979564 
L 203.452082 73.650311 
L 202.419531 78.554816 
L 197.898364 80.402826 
L 194.065563 84.301732 
L 192.434869 91.014552 
L 193.534251 96.033731 
L 192.107393 100.356047 
L 188.578677 103.668352 
L 186.884493 104.382857 
L 187.295508 101.233742 
L 185.233749 97.661215 
L 185.307264 97.621521 
L 183.031643 96.399805 
L 180.244759 93.383005 
L 178.954906 92.92431 
L 178.954906 92.92431 
" style="fill:none;stroke:#000000;stroke-width:3;"/>
   </g>
  </g>
 </g>
 <defs>
  <clipPath id="p5d2909880c">
   <rect height="543.6" width="332.669704" x="7.2" y="7.2"/>
  </clipPath>
 </defs>
</svg>
