<?xml version="1.0" encoding="utf-8" standalone="no"?>
<!DOCTYPE svg PUBLIC "-//W3C//DTD SVG 1.1//EN"
  "http://www.w3.org/Graphics/SVG/1.1/DTD/svg11.dtd">
<svg height="558pt" version="1.1" viewBox="0 0 324.434766 558" width="324.434766pt" xmlns="http://www.w3.org/2000/svg" xmlns:xlink="http://www.w3.org/1999/xlink">
 <metadata>
  <rdf:RDF xmlns:cc="http://creativecommons.org/ns#" xmlns:dc="http://purl.org/dc/elements/1.1/" xmlns:rdf="http://www.w3.org/1999/02/22-rdf-syntax-ns#">
   <cc:Work>
    <dc:type rdf:resource="http://purl.org/dc/dcmitype/StillImage"/>
    <dc:date>2021-05-26T19:21:55.263833</dc:date>
    <dc:format>image/svg+xml</dc:format>
    <dc:creator>
     <cc:Agent>
      <dc:title>Matplotlib v3.4.2, https://matplotlib.org/</dc:title>
     </cc:Agent>
    </dc:creator>
   </cc:Work>
  </rdf:RDF>
 </metadata>
 <defs>
  <style type="text/css">*{stroke-linecap:butt;stroke-linejoin:round;}</style>
 </defs>
 <g id="figure_1">
  <g id="patch_1">
   <path d="M 0 558 
L 324.434766 558 
L 324.434766 0 
L 0 0 
z
" style="fill:none;"/>
  </g>
  <g id="axes_1">
   <g id="LineCollection_1">
    <path clip-path="url(#peb472f03bc)" d="M 155.364489 241.086673 
L 155.989595 242.474281 
L 149.831633 238.109462 
L 141.5656 233.226486 
L 133.838222 228.334727 
L 128.950423 226.595825 
L 121.422547 222.327612 
L 110.928742 216.127286 
L 102.529707 210.849104 
L 96.557947 206.791667 
L 101.153143 198.158635 
L 103.613668 192.739936 
L 111.507298 185.529641 
L 119.015223 184.080556 
L 125.944593 187.909653 
L 131.131645 181.217516 
L 136.504899 173.014818 
L 140.421789 165.444448 
L 145.023635 156.82898 
L 136.764252 149.838244 
L 132.707711 145.728113 
L 135.354438 141.503811 
L 136.764252 134.293517 
L 137.748462 126.679235 
L 139.011974 120.663337 
L 142.303758 115.595932 
L 146.180747 108.464678 
L 149.625481 102.598081 
L 157.798414 86.649366 
L 162.313809 78.956043 
L 165.266439 72.58007 
L 166.569852 68.417245 
L 167.700363 67.653182 
L 169.010426 62.489171 
L 171.085247 56.815784 
L 173.565722 51.107269 
L 177.615613 44.406349 
L 180.967247 38.1182 
L 184.106078 35.009254 
L 187.637264 31.909091 
L 190.357141 33.393305 
L 192.817666 35.6328 
L 194.992238 36.739373 
L 200.764496 38.478275 
L 205.213391 41.833126 
L 208.485224 43.791586 
L 214.417084 45.635876 
L 220.488595 49.324455 
L 226.074651 52.275319 
L 234.028131 56.807002 
L 235.025641 64.06999 
L 229.512736 87.272911 
L 228.708077 99.743823 
L 237.153662 104.618017 
L 247.168663 110.168451 
L 257.090563 113.470608 
L 264.871141 118.643401 
L 275.63095 123.069696 
L 285.459749 128.65526 
L 296.352558 134.679939 
L 303.142277 140.608013 
L 299.557891 153.869335 
L 288.57863 174.068698 
L 283.58443 182.596342 
L 279.029134 191.598233 
L 274.134685 200.828463 
L 270.157945 208.592045 
L 265.828751 213.993179 
L 264.645039 215.108535 
L 255.940102 233.744644 
L 250.932601 243.089045 
L 246.064752 251.43226 
L 241.349855 260.355109 
L 235.517746 271.991699 
L 228.00317 283.847847 
L 220.807798 296.345106 
L 214.762887 307.937784 
L 210.919148 316.816721 
L 208.691376 316.008747 
L 204.222531 325.651747 
L 198.736226 337.051214 
L 186.732855 358.444975 
L 181.645554 367.016531 
L 178.573223 372.918258 
L 173.126818 382.86864 
L 165.711993 395.690844 
L 158.682872 408.732607 
L 153.735223 419.455835 
L 148.388569 425.076527 
L 147.617161 427.456539 
L 146.885654 428.773889 
L 141.884803 440.735425 
L 134.968734 452.73209 
L 127.101705 459.512051 
L 118.922122 455.235055 
L 109.605378 451.116141 
L 100.767439 446.874275 
L 90.712538 442.254768 
L 83.710018 444.441569 
L 80.145582 454.497339 
L 75.197932 464.184251 
L 69.445624 466.616957 
L 67.889508 472.632855 
L 62.509604 487.466213 
L 56.431443 495.949946 
L 47.068149 507.050813 
L 43.024908 518.441498 
L 38.755565 526.090909 
L 30.063928 519.27582 
L 21.292489 515.648716 
L 26.792095 507.305501 
L 33.122958 496.450539 
L 38.316661 485.384801 
L 45.904387 472.799719 
L 57.841257 452.301756 
L 60.009179 444.705039 
L 68.507965 431.610582 
L 74.200422 421.914888 
L 82.320154 405.527056 
L 87.813109 396.814983 
L 88.444865 389.991111 
L 87.467306 369.15942 
L 87.493906 333.740275 
L 87.91951 322.744795 
L 87.91951 309.536168 
L 92.082452 297.196992 
L 91.444046 287.764767 
L 94.449876 275.627585 
L 97.163103 265.536685 
L 100.621138 258.221003 
L 104.744179 249.895352 
L 102.104103 248.296968 
L 101.698449 248.30575 
L 96.531347 242.92218 
L 100.494787 237.740605 
L 105.502287 229.915547 
L 111.048443 224.725189 
L 121.901352 230.310752 
L 128.584669 233.12988 
L 135.647041 237.643999 
L 143.627121 242.342546 
L 149.319578 238.899872 
L 154.839134 241.385272 
L 154.839134 241.385272 
" style="fill:none;stroke:#000000;stroke-width:3;"/>
   </g>
  </g>
 </g>
 <defs>
  <clipPath id="peb472f03bc">
   <rect height="543.6" width="310.034766" x="7.2" y="7.2"/>
  </clipPath>
 </defs>
</svg>
