<?xml version="1.0" encoding="utf-8" standalone="no"?>
<!DOCTYPE svg PUBLIC "-//W3C//DTD SVG 1.1//EN"
  "http://www.w3.org/Graphics/SVG/1.1/DTD/svg11.dtd">
<svg height="558pt" version="1.1" viewBox="0 0 385.419402 558" width="385.419402pt" xmlns="http://www.w3.org/2000/svg" xmlns:xlink="http://www.w3.org/1999/xlink">
 <metadata>
  <rdf:RDF xmlns:cc="http://creativecommons.org/ns#" xmlns:dc="http://purl.org/dc/elements/1.1/" xmlns:rdf="http://www.w3.org/1999/02/22-rdf-syntax-ns#">
   <cc:Work>
    <dc:type rdf:resource="http://purl.org/dc/dcmitype/StillImage"/>
    <dc:date>2021-05-26T19:21:56.849001</dc:date>
    <dc:format>image/svg+xml</dc:format>
    <dc:creator>
     <cc:Agent>
      <dc:title>Matplotlib v3.4.2, https://matplotlib.org/</dc:title>
     </cc:Agent>
    </dc:creator>
   </cc:Work>
  </rdf:RDF>
 </metadata>
 <defs>
  <style type="text/css">*{stroke-linecap:butt;stroke-linejoin:round;}</style>
 </defs>
 <g id="figure_1">
  <g id="patch_1">
   <path d="M 0 558 
L 385.419402 558 
L 385.419402 0 
L 0 0 
z
" style="fill:none;"/>
  </g>
  <g id="axes_1">
   <g id="LineCollection_1">
    <path clip-path="url(#p0323861c4f)" d="M 24.064518 443.622141 
L 36.813612 450.972201 
L 54.795234 457.910877 
L 66.277724 471.623675 
L 71.468723 487.667649 
L 79.068346 502.861429 
L 96.468576 496.306712 
L 112.020809 502.998557 
L 121.613776 517.232442 
L 136.999898 523.101519 
L 153.735679 526.090909 
L 172.215636 522.086772 
L 190.633302 524.472799 
L 207.950475 518.384317 
L 220.118177 502.779152 
L 229.129752 487.228839 
L 237.227711 471.047737 
L 247.090609 454.647231 
L 256.766632 437.83534 
L 265.321398 421.352557 
L 275.371173 404.156708 
L 285.213308 386.878583 
L 287.725751 367.735517 
L 288.888535 347.714831 
L 289.864443 329.805917 
L 279.648556 312.610068 
L 283.51066 292.863639 
L 292.999806 274.186808 
L 304.752229 259.294709 
L 317.708963 244.731718 
L 328.402421 230.278428 
L 328.111725 212.479216 
L 330.125833 194.241195 
L 333.572656 176.387132 
L 342.044367 162.372652 
L 355.499437 152.307458 
L 361.354884 135.440717 
L 345.823415 132.259347 
L 331.641605 141.666327 
L 315.674091 136.482889 
L 319.017094 119.616148 
L 329.606733 105.71137 
L 338.805184 90.161057 
L 343.850835 73.870253 
L 336.541908 59.416964 
L 323.958926 47.596532 
L 309.237252 39.2043 
L 293.64349 35.227588 
L 278.714176 31.909091 
L 264.615423 36.544017 
L 256.91198 49.763154 
L 263.328055 62.790312 
L 277.447573 68.878795 
L 287.538875 82.619018 
L 289.075411 98.580715 
L 292.39765 114.131028 
L 284.96414 130.586386 
L 271.010734 142.543946 
L 254.337244 151.018455 
L 244.225178 164.12789 
L 235.691175 178.087519 
L 220.325817 185.273025 
L 205.271919 193.116745 
L 192.751229 205.29371 
L 184.611742 219.637297 
L 178.610947 233.295244 
L 173.37842 247.474277 
L 163.619342 260.638563 
L 150.392676 270.018117 
L 140.550541 282.441912 
L 139.408521 299.116675 
L 137.352885 316.449652 
L 125.122891 327.282762 
L 111.709349 333.83748 
L 97.714415 341.242391 
L 86.564149 352.459459 
L 76.182151 367.21443 
L 71.240319 384.629684 
L 70.741983 403.279089 
L 75.787635 418.993956 
L 78.46619 433.584373 
L 73.295955 449.518644 
L 62.000341 462.573228 
L 48.399923 453.851889 
L 33.927417 453.577633 
L 27.220646 444.828868 
" style="fill:none;stroke:#000000;stroke-width:3;"/>
   </g>
  </g>
 </g>
 <defs>
  <clipPath id="p0323861c4f">
   <rect height="543.6" width="371.019402" x="7.2" y="7.2"/>
  </clipPath>
 </defs>
</svg>
