<?xml version="1.0" encoding="utf-8" standalone="no"?>
<!DOCTYPE svg PUBLIC "-//W3C//DTD SVG 1.1//EN"
  "http://www.w3.org/Graphics/SVG/1.1/DTD/svg11.dtd">
<svg height="558pt" version="1.1" viewBox="0 0 294.908493 558" width="294.908493pt" xmlns="http://www.w3.org/2000/svg" xmlns:xlink="http://www.w3.org/1999/xlink">
 <metadata>
  <rdf:RDF xmlns:cc="http://creativecommons.org/ns#" xmlns:dc="http://purl.org/dc/elements/1.1/" xmlns:rdf="http://www.w3.org/1999/02/22-rdf-syntax-ns#">
   <cc:Work>
    <dc:type rdf:resource="http://purl.org/dc/dcmitype/StillImage"/>
    <dc:date>2021-05-26T19:21:57.163982</dc:date>
    <dc:format>image/svg+xml</dc:format>
    <dc:creator>
     <cc:Agent>
      <dc:title>Matplotlib v3.4.2, https://matplotlib.org/</dc:title>
     </cc:Agent>
    </dc:creator>
   </cc:Work>
  </rdf:RDF>
 </metadata>
 <defs>
  <style type="text/css">*{stroke-linecap:butt;stroke-linejoin:round;}</style>
 </defs>
 <g id="figure_1">
  <g id="patch_1">
   <path d="M 0 558 
L 294.908493 558 
L 294.908493 0 
L 0 0 
z
" style="fill:none;"/>
  </g>
  <g id="axes_1">
   <g id="LineCollection_1">
    <path clip-path="url(#pde0154f6dd)" d="M 203.360103 104.958492 
L 206.649029 106.607978 
L 210.25231 109.663158 
L 208.27581 113.895801 
L 204.73933 119.923167 
L 194.94328 137.517683 
L 191.489318 143.954828 
L 184.821088 155.5531 
L 181.740421 161.378171 
L 180.79736 163.416686 
L 176.942596 170.159868 
L 167.673089 187.137123 
L 165.240777 191.001485 
L 161.959709 194.388637 
L 162.203333 196.032935 
L 163.99515 199.45121 
L 164.246633 199.331907 
L 163.543266 203.56455 
L 162.765241 206.79609 
L 160.144316 216.433652 
L 156.992919 225.811861 
L 157.708074 229.930389 
L 155.330774 237.228586 
L 151.428857 244.412667 
L 147.12614 250.025069 
L 144.713474 255.383304 
L 143.149564 255.88645 
L 142.756622 256.399969 
L 139.412684 265.093485 
L 134.858483 273.532836 
L 132.70123 279.363094 
L 130.815108 282.755433 
L 127.510464 286.832464 
L 123.730359 294.172158 
L 118.806793 301.527412 
L 105.890782 325.232288 
L 100.680368 323.032974 
L 95.693931 319.977794 
L 89.752644 316.803311 
L 84.675831 313.64439 
L 81.528363 317.026355 
L 77.987954 323.318262 
L 74.691169 329.662039 
L 72.372809 334.86985 
L 71.304007 341.644154 
L 70.557416 347.925686 
L 69.940497 354.648119 
L 71.657655 358.968943 
L 72.801116 365.063741 
L 73.685236 367.926999 
L 74.455403 370.961431 
L 75.139123 374.192971 
L 77.547859 379.312602 
L 75.775689 385.926106 
L 71.952361 395.750403 
L 71.861984 397.825228 
L 71.712666 398.29725 
L 71.516195 400.719609 
L 69.791179 413.785819 
L 69.217483 420.041416 
L 67.924703 422.271853 
L 67.842185 430.239181 
L 66.627994 436.541462 
L 65.103378 450.064134 
L 64.144599 455.038527 
L 62.541395 456.926618 
L 60.718143 459.867682 
L 55.723847 469.277014 
L 52.721768 474.137291 
L 49.770772 479.464404 
L 47.629237 483.048664 
L 45.09083 486.192024 
L 43.762685 490.616589 
L 42.336305 492.8574 
L 40.363735 490.170501 
L 34.929344 492.670665 
L 32.819244 495.948889 
L 31.157099 502.764689 
L 29.204176 510.005828 
L 27.451653 514.990595 
L 25.856308 521.687093 
L 22.158721 524.5711 
L 19.950386 526.01829 
L 21.734344 526.090909 
L 24.75607 525.286914 
L 26.072426 523.787853 
L 30.386932 523.61668 
L 33.616917 523.933091 
L 36.194618 524.353243 
L 39.361732 523.787853 
L 41.754751 521.754525 
L 44.037745 520.602997 
L 48.395474 520.390327 
L 53.429064 518.211761 
L 55.087281 514.580817 
L 57.154157 509.513057 
L 60.109082 505.472336 
L 64.317494 502.90474 
L 66.305781 499.429408 
L 64.388223 497.520569 
L 61.767299 495.279758 
L 61.948052 494.3409 
L 61.841958 495.129333 
L 57.048062 494.527634 
L 57.189521 492.177894 
L 56.352555 491.602131 
L 52.199155 489.039722 
L 53.546947 484.672215 
L 56.604038 478.629287 
L 59.802587 473.338483 
L 62.961843 468.556012 
L 66.612276 462.50271 
L 69.64579 456.257487 
L 73.445542 450.090069 
L 76.72268 443.964149 
L 80.691396 444.114573 
L 85.186656 447.947813 
L 89.277184 451.163791 
L 91.626979 454.021863 
L 94.487598 451.163791 
L 98.224479 444.877072 
L 101.737382 440.219089 
L 105.269933 428.03468 
L 108.771048 421.213692 
L 112.743694 414.875102 
L 116.225163 408.904793 
L 119.903102 403.038225 
L 123.761795 396.580333 
L 128.42209 390.729326 
L 130.72866 383.540058 
L 132.559771 376.978423 
L 132.940925 371.552756 
L 136.347734 372.066275 
L 138.791835 373.39935 
L 139.051177 373.793567 
L 139.015812 373.321544 
L 135.302508 371.786174 
L 131.915346 367.735078 
L 132.174688 364.928877 
L 133.978293 361.007458 
L 131.640286 356.862995 
L 127.003568 354.077543 
L 122.748004 351.852293 
L 118.233097 348.765991 
L 113.219155 346.426625 
L 111.894939 342.448148 
L 113.663179 339.086932 
L 116.343045 334.615684 
L 119.018982 328.733555 
L 122.685133 322.540203 
L 125.69507 316.232735 
L 128.850397 310.169059 
L 132.862337 303.628173 
L 137.46762 297.144345 
L 139.070824 289.161455 
L 142.964882 282.739872 
L 145.668324 277.770666 
L 148.910098 273.154181 
L 153.012414 268.070859 
L 155.755151 261.602592 
L 157.161884 256.083558 
L 162.663076 250.004321 
L 168.187844 242.830613 
L 176.388548 228.970782 
L 180.506583 223.462122 
L 179.382768 220.443251 
L 181.276749 216.708566 
L 184.050921 212.237319 
L 186.196386 207.620833 
L 182.231599 202.916167 
L 186.585399 196.235231 
L 190.015785 189.186013 
L 195.674153 185.638062 
L 201.890499 187.463908 
L 206.44077 182.02268 
L 211.529372 177.328388 
L 214.912604 170.823812 
L 214.177802 162.669749 
L 219.887253 157.539745 
L 221.274339 151.818415 
L 223.015073 146.029653 
L 225.529904 140.775159 
L 230.166622 135.199066 
L 233.475196 128.39364 
L 238.905657 125.177662 
L 246.332265 124.63302 
L 250.238111 118.553783 
L 260.289574 100.357568 
L 261.543059 92.727399 
L 260.065596 85.117978 
L 261.216917 80.107276 
L 266.651308 73.016561 
L 269.126844 65.682055 
L 270.51393 58.155627 
L 274.958107 54.550619 
L 273.134855 50.38022 
L 266.816344 49.664406 
L 271.409839 42.729303 
L 270.305671 36.380339 
L 265.00488 33.070993 
L 259.590136 31.909091 
L 255.534973 34.507809 
L 257.307142 38.740452 
L 260.867199 42.112043 
L 261.975296 47.905992 
L 256.379798 53.425026 
L 251.475879 59.550947 
L 246.143653 61.854003 
L 242.579667 65.816918 
L 240.481356 69.940633 
L 238.830998 73.644196 
L 234.198209 77.736788 
L 233.192277 83.541111 
L 230.225563 87.882682 
L 225.270562 90.460652 
L 220.908903 95.85001 
L 220.484525 103.298632 
L 221.639775 108.091478 
L 220.209466 111.634241 
L 215.733854 116.81093 
L 213.458718 117.505996 
L 214.036343 113.760937 
L 211.537231 109.678719 
L 207.560655 106.919202 
L 204.362105 105.057046 
L 204.169564 105.093356 
L 204.169564 105.093356 
" style="fill:none;stroke:#000000;stroke-width:3;"/>
   </g>
  </g>
 </g>
 <defs>
  <clipPath id="pde0154f6dd">
   <rect height="543.6" width="280.508493" x="7.2" y="7.2"/>
  </clipPath>
 </defs>
</svg>
