<?xml version="1.0" encoding="utf-8" standalone="no"?>
<!DOCTYPE svg PUBLIC "-//W3C//DTD SVG 1.1//EN"
  "http://www.w3.org/Graphics/SVG/1.1/DTD/svg11.dtd">
<svg height="558pt" version="1.1" viewBox="0 0 423.895651 558" width="423.895651pt" xmlns="http://www.w3.org/2000/svg" xmlns:xlink="http://www.w3.org/1999/xlink">
 <metadata>
  <rdf:RDF xmlns:cc="http://creativecommons.org/ns#" xmlns:dc="http://purl.org/dc/elements/1.1/" xmlns:rdf="http://www.w3.org/1999/02/22-rdf-syntax-ns#">
   <cc:Work>
    <dc:type rdf:resource="http://purl.org/dc/dcmitype/StillImage"/>
    <dc:date>2021-05-26T19:21:57.378234</dc:date>
    <dc:format>image/svg+xml</dc:format>
    <dc:creator>
     <cc:Agent>
      <dc:title>Matplotlib v3.4.2, https://matplotlib.org/</dc:title>
     </cc:Agent>
    </dc:creator>
   </cc:Work>
  </rdf:RDF>
 </metadata>
 <defs>
  <style type="text/css">*{stroke-linecap:butt;stroke-linejoin:round;}</style>
 </defs>
 <g id="figure_1">
  <g id="patch_1">
   <path d="M 0 558 
L 423.895651 558 
L 423.895651 0 
L 0 0 
z
" style="fill:none;"/>
  </g>
  <g id="axes_1">
   <g id="LineCollection_1">
    <path clip-path="url(#pea99d5a244)" d="M 81.786284 493.558564 
L 90.181996 496.708141 
L 94.108327 495.620312 
L 101.133486 498.798367 
L 109.106826 503.081337 
L 115.640655 506.333433 
L 118.105925 513.367299 
L 122.808041 519.062738 
L 127.070545 523.960815 
L 131.871789 526.090909 
L 134.79391 524.012074 
L 139.103823 517.103507 
L 143.301679 513.879889 
L 149.792409 514.329828 
L 152.869687 510.724616 
L 158.903566 512.91736 
L 159.390586 513.589421 
L 164.67023 515.896074 
L 168.863776 510.71892 
L 172.777177 511.373896 
L 179.289456 514.808245 
L 180.017832 515.673952 
L 185.215587 518.020473 
L 189.973732 519.563936 
L 195.744706 510.849915 
L 203.47669 496.400588 
L 206.829803 490.323555 
L 210.333763 485.237528 
L 211.031969 485.209051 
L 214.035978 478.363133 
L 220.992179 466.288804 
L 224.862481 458.953079 
L 228.827601 451.782521 
L 233.159064 444.281629 
L 236.969028 436.877559 
L 243.593365 425.127869 
L 246.123284 420.263964 
L 249.769471 413.708514 
L 253.993186 406.691734 
L 256.497246 401.947433 
L 258.389298 398.114403 
L 262.634562 393.26189 
L 267.668541 389.941449 
L 273.495544 385.909078 
L 278.788118 382.09883 
L 282.339486 376.653991 
L 285.946884 370.104236 
L 286.028772 370.018805 
L 291.398925 360.182782 
L 295.066661 353.934886 
L 302.018551 341.325185 
L 305.233747 335.823391 
L 307.901583 330.441202 
L 309.841044 327.918122 
L 312.797645 323.378858 
L 314.232846 320.565311 
L 319.047019 316.84619 
L 324.033589 310.871675 
L 329.770084 304.526956 
L 333.700725 298.148065 
L 341.036198 285.304851 
L 347.100246 282.981112 
L 351.819601 278.208334 
L 354.254702 272.558459 
L 356.034696 266.162481 
L 358.168104 259.675377 
L 360.047226 252.886414 
L 361.930658 246.615736 
L 365.395828 235.976657 
L 365.680283 235.589367 
L 368.080904 228.868749 
L 370.688402 222.074091 
L 376.644702 209.902939 
L 380.394327 203.35888 
L 384.286179 200.69911 
L 387.785829 201.815416 
L 388.764179 203.262057 
L 388.889167 205.05612 
L 390.251099 205.853482 
L 392.263829 205.466192 
L 394.543773 204.554922 
L 398.082212 208.131657 
L 396.651321 210.506655 
L 393.444745 210.945204 
L 389.156381 210.147843 
L 379.381497 206.058518 
L 381.976065 200.852887 
L 384.988695 195.647256 
L 382.471705 191.028255 
L 377.433417 188.214708 
L 371.865008 185.782756 
L 369.218722 182.712915 
L 376.886058 163.935054 
L 379.898687 157.482122 
L 383.381097 148.825055 
L 385.954115 142.822063 
L 387.268639 138.795387 
L 387.423796 139.011814 
L 387.014354 138.544788 
L 383.432816 136.437476 
L 377.657532 134.620631 
L 370.171212 131.881125 
L 366.503476 129.86494 
L 366.32677 129.534604 
L 366.387108 129.346655 
L 368.731701 125.154812 
L 372.347719 119.265728 
L 375.231051 114.09427 
L 381.23476 104.48037 
L 384.73872 99.155135 
L 387.7298 93.630559 
L 386.971255 91.17013 
L 382.540664 89.381762 
L 377.894577 86.756165 
L 372.30893 84.386862 
L 372.30893 82.780749 
L 369.149763 81.032249 
L 370.205692 76.23669 
L 372.498566 71.065231 
L 374.558704 66.138677 
L 376.351628 61.468417 
L 378.928957 56.473518 
L 380.74343 54.55985 
L 381.023574 54.514287 
L 378.24799 53.694144 
L 374.377688 53.318245 
L 367.378389 53.010691 
L 358.211203 52.822742 
L 350.332681 54.428855 
L 343.90229 59.583227 
L 339.131216 58.484008 
L 330.188145 54.799059 
L 323.335383 51.102719 
L 310.116879 43.52209 
L 306.483622 38.994217 
L 304.173508 34.779592 
L 302.427993 31.909091 
L 297.342295 33.253214 
L 287.382085 37.712743 
L 281.822297 40.326949 
L 276.775388 42.981024 
L 274.129101 38.19116 
L 270.254489 37.205849 
L 263.940466 35.753512 
L 259.25559 31.994522 
L 261.384687 34.249916 
L 263.427586 37.29128 
L 264.806759 40.480726 
L 264.069763 42.724729 
L 263.069864 44.564356 
L 261.307109 46.848226 
L 259.453846 50.692647 
L 260.289969 53.044864 
L 260.27704 58.290363 
L 256.695502 66.486099 
L 255.320639 71.025363 
L 255.540445 72.022065 
L 254.820689 77.831413 
L 252.79934 81.994778 
L 251.161573 86.642256 
L 249.019546 90.959399 
L 247.950687 95.077201 
L 246.537036 99.570902 
L 245.373359 103.688704 
L 243.489927 108.091278 
L 239.180013 119.499241 
L 237.391399 123.57148 
L 235.314021 127.262124 
L 233.008217 130.747733 
L 230.86188 133.31068 
L 228.612106 136.642512 
L 226.564897 143.072662 
L 223.940159 154.839438 
L 223.056627 159.424266 
L 222.138616 165.307654 
L 221.625736 171.185347 
L 218.970829 177.376289 
L 215.42808 183.447626 
L 211.712935 190.344802 
L 208.325343 196.871775 
L 195.908482 219.20359 
L 193.163068 223.925109 
L 190.409033 228.988353 
L 185.974132 229.495248 
L 178.780886 225.650826 
L 177.59135 225.468572 
L 176.276827 227.330981 
L 174.449423 233.726958 
L 170.406725 235.167904 
L 170.415344 234.91161 
L 167.794917 237.041704 
L 164.67454 238.812985 
L 161.860166 244.143916 
L 160.028453 251.132219 
L 161.773968 256.030296 
L 158.136401 263.21794 
L 153.274819 269.756303 
L 148.637352 276.249103 
L 144.26279 281.665465 
L 140.595053 287.862102 
L 135.914487 291.843214 
L 128.031656 303.985889 
L 123.506247 309.419338 
L 119.429068 314.830004 
L 115.700993 320.496966 
L 111.817761 327.661828 
L 108.533607 334.843776 
L 105.279623 340.573387 
L 102.094597 346.542207 
L 96.284833 358.548191 
L 89.751005 370.696562 
L 86.199636 376.648295 
L 79.402902 388.830838 
L 76.209256 394.429455 
L 73.162148 400.34132 
L 69.964192 406.207622 
L 66.701587 412.444127 
L 60.439283 423.664141 
L 61.960683 427.189617 
L 60.413424 431.278942 
L 57.978323 433.551422 
L 59.663499 432.492071 
L 55.844915 432.531939 
L 48.841306 445.420716 
L 45.707999 451.304105 
L 42.410915 456.817289 
L 36.402896 468.64102 
L 33.23942 474.604144 
L 31.687851 479.012413 
L 31.140492 483.682673 
L 28.563163 487.629612 
L 25.813439 491.223434 
L 29.002775 493.353528 
L 33.7092 496.337938 
L 38.428555 498.314255 
L 41.100702 500.273486 
L 45.957974 502.608616 
L 47.798307 498.542072 
L 47.854336 498.878103 
L 48.039662 499.054662 
L 49.380045 499.140094 
L 51.371225 494.509702 
L 55.767337 487.401795 
L 59.051491 486.615824 
L 62.60717 487.561267 
L 65.335345 489.55467 
L 69.240126 492.191658 
L 73.709507 494.726129 
L 75.808435 495.084941 
L 78.51937 492.892197 
L 81.53631 494.190757 
L 81.53631 494.190757 
" style="fill:none;stroke:#000000;stroke-width:3;"/>
   </g>
  </g>
 </g>
 <defs>
  <clipPath id="pea99d5a244">
   <rect height="543.6" width="409.495651" x="7.2" y="7.2"/>
  </clipPath>
 </defs>
</svg>
