<?xml version="1.0" encoding="utf-8" standalone="no"?>
<!DOCTYPE svg PUBLIC "-//W3C//DTD SVG 1.1//EN"
  "http://www.w3.org/Graphics/SVG/1.1/DTD/svg11.dtd">
<svg height="558pt" version="1.1" viewBox="0 0 334.567022 558" width="334.567022pt" xmlns="http://www.w3.org/2000/svg" xmlns:xlink="http://www.w3.org/1999/xlink">
 <metadata>
  <rdf:RDF xmlns:cc="http://creativecommons.org/ns#" xmlns:dc="http://purl.org/dc/elements/1.1/" xmlns:rdf="http://www.w3.org/1999/02/22-rdf-syntax-ns#">
   <cc:Work>
    <dc:type rdf:resource="http://purl.org/dc/dcmitype/StillImage"/>
    <dc:date>2021-05-26T19:21:58.165560</dc:date>
    <dc:format>image/svg+xml</dc:format>
    <dc:creator>
     <cc:Agent>
      <dc:title>Matplotlib v3.4.2, https://matplotlib.org/</dc:title>
     </cc:Agent>
    </dc:creator>
   </cc:Work>
  </rdf:RDF>
 </metadata>
 <defs>
  <style type="text/css">*{stroke-linecap:butt;stroke-linejoin:round;}</style>
 </defs>
 <g id="figure_1">
  <g id="patch_1">
   <path d="M 0 558 
L 334.567022 558 
L 334.567022 0 
L 0 0 
z
" style="fill:none;"/>
  </g>
  <g id="axes_1">
   <g id="LineCollection_1">
    <path clip-path="url(#pdb134b3644)" d="M 191.417756 125.862416 
L 194.792568 127.433023 
L 198.621779 129.83275 
L 198.887271 133.081817 
L 193.311939 145.019781 
L 189.21213 152.80541 
L 184.126937 161.137043 
L 181.604763 165.525307 
L 178.689456 172.036923 
L 174.456901 179.498993 
L 158.639704 208.666452 
L 154.049756 215.885853 
L 142.863352 236.398119 
L 137.793476 241.655946 
L 139.544702 249.65054 
L 138.19682 259.262926 
L 140.652621 261.595244 
L 139.049457 262.532216 
L 127.423971 287.567562 
L 124.472925 294.658888 
L 125.345985 296.054234 
L 123.804089 297.463062 
L 122.144764 300.671685 
L 113.873667 321.42662 
L 113.633703 322.478185 
L 108.747629 328.524687 
L 107.813302 325.95644 
L 101.931633 347.075379 
L 93.9924 360.253651 
L 87.487846 368.848176 
L 82.724307 379.721092 
L 76.531195 390.749048 
L 70.960969 399.680613 
L 67.121546 406.839347 
L 62.725611 416.5124 
L 53.515081 432.649885 
L 49.057878 440.914111 
L 44.855957 448.187438 
L 41.098224 455.939363 
L 34.297544 456.802185 
L 21.753046 459.458062 
L 22.258502 465.167523 
L 22.947761 468.733408 
L 23.009028 468.780594 
L 22.978394 468.780594 
L 22.896704 468.908669 
L 22.906916 468.753631 
L 22.758853 468.342442 
L 22.723113 468.591852 
L 23.024345 468.706445 
L 23.009028 468.018883 
L 22.840543 468.24133 
L 22.825226 468.537925 
L 22.799698 468.126736 
L 22.73843 468.200885 
L 23.162196 469.286154 
L 24.178214 475.770808 
L 26.654437 481.412861 
L 28.369924 491.160063 
L 32.122552 493.175563 
L 34.680465 498.386205 
L 37.718306 503.563142 
L 43.96758 507.715478 
L 49.762453 511.429661 
L 54.822118 515.433698 
L 61.939346 519.316401 
L 67.325771 523.111474 
L 72.661139 526.090909 
L 75.362009 524.237188 
L 75.433488 523.617034 
L 78.532597 519.161363 
L 83.704585 511.402697 
L 88.437491 503.886701 
L 93.481839 498.015461 
L 96.136759 488.686188 
L 98.842735 477.482972 
L 97.887985 467.924512 
L 100.941143 460.644444 
L 105.234966 452.252143 
L 108.385131 445.390004 
L 113.266099 437.125779 
L 115.798484 432.35329 
L 115.895491 431.706172 
L 110.223152 428.868294 
L 112.32156 422.12749 
L 115.435986 415.602392 
L 118.254285 409.030108 
L 121.812899 402.161229 
L 124.493348 397.732521 
L 124.309545 397.914522 
L 129.849138 387.24383 
L 133.172894 381.284959 
L 133.183105 381.851186 
L 134.990493 379.19531 
L 138.61548 371.942205 
L 142.189411 364.035242 
L 146.294326 358.042667 
L 150.577937 350.418818 
L 154.739014 341.426585 
L 160.339874 331.625456 
L 171.102512 314.739742 
L 173.890178 309.165098 
L 176.968864 307.59449 
L 180.461105 297.732694 
L 183.28451 290.452626 
L 189.932022 278.467476 
L 189.937127 278.177622 
L 191.907895 275.703747 
L 192.632892 273.984842 
L 204.610666 253.014201 
L 209.067869 244.938718 
L 217.354283 229.145014 
L 221.454092 222.23569 
L 234.156863 198.474356 
L 238.98167 190.284279 
L 243.403133 183.577179 
L 247.160866 175.778069 
L 251.051345 168.417111 
L 255.171577 161.056154 
L 259.235647 153.385119 
L 268.13984 137.874529 
L 271.024513 132.063956 
L 274.726084 125.869157 
L 282.757217 111.693246 
L 287.500334 102.053897 
L 298.492724 82.606677 
L 307.728783 65.60637 
L 312.813976 56.566952 
L 310.633878 51.713573 
L 308.69885 49.967705 
L 300.631977 45.599664 
L 293.565805 41.588885 
L 287.183786 40.557542 
L 286.908083 41.083325 
L 281.225533 39.607089 
L 274.052143 34.288595 
L 266.352875 31.909091 
L 260.0117 32.886507 
L 259.690046 38.407226 
L 265.209217 41.285549 
L 267.037027 48.727397 
L 263.325245 57.840964 
L 255.038831 64.68288 
L 247.421252 69.738483 
L 241.340464 76.600621 
L 238.282201 83.779577 
L 231.741907 90.358602 
L 229.806879 99.067721 
L 224.742108 104.561476 
L 218.217132 108.423956 
L 212.948136 116.829739 
L 213.969259 126.024195 
L 213.953943 133.263819 
L 209.07808 139.937215 
L 203.661022 143.698583 
L 204.334963 139.9844 
L 203.701867 134.571535 
L 202.762433 129.098002 
L 198.055056 123.954769 
L 192.03043 120.186659 
L 187.353686 121.568524 
L 182.074479 121.083186 
L 175.845628 117.133075 
L 172.920111 113.73571 
L 173.211131 113.324521 
L 173.001801 113.338002 
L 174.130142 112.407772 
L 176.039642 112.933554 
L 184.688554 116.742108 
L 188.109317 119.317096 
L 186.449992 123.536839 
L 190.141352 125.869157 
L 190.759131 125.956787 
L 190.759131 125.956787 
" style="fill:none;stroke:#000000;stroke-width:3;"/>
   </g>
  </g>
 </g>
 <defs>
  <clipPath id="pdb134b3644">
   <rect height="543.6" width="320.167022" x="7.2" y="7.2"/>
  </clipPath>
 </defs>
</svg>
