<?xml version="1.0" encoding="utf-8" standalone="no"?>
<!DOCTYPE svg PUBLIC "-//W3C//DTD SVG 1.1//EN"
  "http://www.w3.org/Graphics/SVG/1.1/DTD/svg11.dtd">
<svg height="568.8pt" version="1.1" viewBox="0 0 395.576935 568.8" width="395.576935pt" xmlns="http://www.w3.org/2000/svg" xmlns:xlink="http://www.w3.org/1999/xlink">
 <metadata>
  <rdf:RDF xmlns:cc="http://creativecommons.org/ns#" xmlns:dc="http://purl.org/dc/elements/1.1/" xmlns:rdf="http://www.w3.org/1999/02/22-rdf-syntax-ns#">
   <cc:Work>
    <dc:type rdf:resource="http://purl.org/dc/dcmitype/StillImage"/>
    <dc:date>2021-05-27T01:50:42.019685</dc:date>
    <dc:format>image/svg+xml</dc:format>
    <dc:creator>
     <cc:Agent>
      <dc:title>Matplotlib v3.4.2, https://matplotlib.org/</dc:title>
     </cc:Agent>
    </dc:creator>
   </cc:Work>
  </rdf:RDF>
 </metadata>
 <defs>
  <style type="text/css">*{stroke-linecap:butt;stroke-linejoin:round;}</style>
 </defs>
 <g id="figure_1">
  <g id="patch_1">
   <path d="M 0 568.8 
L 395.576935 568.8 
L 395.576935 0 
L 0 0 
z
" style="fill:#ffffff;"/>
  </g>
  <g id="axes_1">
   <g id="LineCollection_1">
    <path clip-path="url(#pbe0c959dec)" d="M 24.526224 450.54511 
L 25.582122 450.824041 
L 26.806963 450.684576 
L 27.757271 450.294073 
L 29.024348 450.26618 
L 30.75602 450.90772 
L 31.452913 451.63294 
L 32.339867 452.07923 
L 33.353529 452.80445 
L 34.282718 453.16706 
L 34.874021 453.975959 
L 38.590781 456.402656 
L 39.667796 456.821053 
L 40.153509 457.4347 
L 40.87152 457.79731 
L 41.357233 458.438851 
L 42.117479 458.88514 
L 43.004433 459.24775 
L 43.996977 459.498788 
L 44.820577 459.861398 
L 45.960946 460.05665 
L 47.016844 460.809763 
L 49.107521 461.590769 
L 49.74106 462.092844 
L 53.753471 462.343882 
L 54.703779 462.678599 
L 56.731102 463.794322 
L 57.364641 464.491649 
L 57.998179 465.384227 
L 60.046621 467.58778 
L 60.722395 468.424572 
L 61.29258 468.926648 
L 62.179534 470.516553 
L 63.552201 471.381239 
L 64.523627 471.660169 
L 65.811822 471.57649 
L 68.071443 470.293409 
L 69.655289 469.121899 
L 70.436654 468.285107 
L 71.788203 465.997875 
L 72.0205 464.882152 
L 72.569567 464.045359 
L 74.132295 462.455454 
L 74.850306 461.42341 
L 78.926071 454.226997 
L 79.34843 453.473883 
L 79.876378 451.577154 
L 80.298737 449.708318 
L 80.573271 448.062627 
L 81.122338 445.970646 
L 81.608051 442.623477 
L 81.544697 440.224672 
L 81.71364 439.415773 
L 81.776994 438.355836 
L 81.249045 435.817566 
L 80.615507 432.052001 
L 79.749671 429.374265 
L 77.49005 423.628292 
L 77.447814 422.624141 
L 76.581978 417.798639 
L 75.357137 415.09301 
L 74.195649 413.503105 
L 73.519875 411.634269 
L 72.907454 409.319143 
L 72.527331 407.617666 
L 72.527331 406.557729 
L 72.717392 405.497792 
L 72.400623 404.465748 
L 71.640377 399.054491 
L 71.682613 397.966661 
L 71.450315 394.50792 
L 71.788203 392.527511 
L 72.168326 390.547103 
L 72.485095 389.515059 
L 72.463977 387.61833 
L 72.611803 386.614179 
L 72.73851 384.550091 
L 72.822982 383.350689 
L 73.604346 380.282451 
L 74.047823 379.361979 
L 74.618008 378.692545 
L 75.082603 377.10264 
L 75.610552 376.461099 
L 76.687568 374.787515 
L 77.785701 372.500282 
L 78.757127 370.464088 
L 79.622963 368.372107 
L 80.17203 367.507422 
L 81.016748 366.670629 
L 82.326061 365.778051 
L 82.621712 364.467076 
L 83.318605 363.853429 
L 84.036615 363.044529 
L 85.472636 360.924655 
L 86.824185 359.33475 
L 89.949642 355.513399 
L 90.456473 354.704499 
L 91.174483 353.811921 
L 92.863919 352.696198 
L 94.51112 351.441009 
L 95.482545 351.189972 
L 96.179438 350.074249 
L 98.755828 347.675444 
L 99.706136 346.922331 
L 100.69868 346.420256 
L 102.747121 344.858243 
L 103.697429 344.077237 
L 104.521029 343.603055 
L 105.471337 342.905728 
L 107.055184 341.92947 
L 107.794312 341.343716 
L 108.63903 341.148464 
L 109.525984 340.730068 
L 110.39182 340.060634 
L 111.342128 339.865383 
L 112.545851 339.335414 
L 113.517277 339.056483 
L 115.354539 338.108119 
L 116.325965 337.773402 
L 118.120991 336.908717 
L 120.317258 335.932459 
L 121.11974 335.346704 
L 122.04893 334.984094 
L 126.58929 334.230981 
L 127.328418 333.449975 
L 128.320962 333.171044 
L 129.355742 333.171044 
L 130.263814 332.86422 
L 131.150768 332.166894 
L 132.05884 331.748497 
L 132.734614 331.106957 
L 133.621568 330.77224 
L 136.197958 328.736045 
L 136.979323 327.899253 
L 137.655097 326.978781 
L 138.563169 326.532492 
L 140.10478 323.910543 
L 140.379313 323.017964 
L 141.076205 322.181172 
L 141.64639 321.232808 
L 141.920924 320.005512 
L 142.385518 319.280292 
L 144.117191 313.980608 
L 144.476196 311.749162 
L 144.814083 306.756301 
L 144.476196 305.780043 
L 144.455078 303.688062 
L 144.096073 302.628126 
L 144.180544 301.317151 
L 143.906011 300.424572 
L 143.884893 299.420422 
L 144.053837 298.304699 
L 143.863775 297.272655 
L 143.884893 295.989573 
L 143.568124 294.901743 
L 143.589242 294.120737 
L 144.053837 292.000863 
L 144.602904 289.044197 
L 144.961909 287.98426 
L 145.194206 286.784858 
L 146.165632 285.027594 
L 147.052586 283.186651 
L 147.432709 282.126714 
L 148.256309 280.564702 
L 152.37431 276.129703 
L 153.345736 275.767093 
L 154.042628 275.041873 
L 154.781757 274.539797 
L 155.647593 273.814577 
L 157.315911 273.005678 
L 158.181747 272.698854 
L 161.729563 270.830018 
L 162.700989 270.467408 
L 164.179246 269.21222 
L 165.045082 268.765931 
L 167.368057 267.008667 
L 167.896005 266.283447 
L 168.635134 265.530334 
L 169.50097 264.916686 
L 171.633883 262.852598 
L 173.492263 260.370115 
L 174.020212 259.589108 
L 174.991637 257.692379 
L 178.687279 251.193292 
L 179.172992 250.244928 
L 179.510879 249.26867 
L 180.165536 248.431878 
L 180.672367 246.590935 
L 181.601557 244.666312 
L 181.643793 243.885306 
L 182.551865 242.01647 
L 184.389126 236.437855 
L 184.748132 235.601063 
L 185.339434 234.76427 
L 185.529496 233.76012 
L 186.036327 232.114428 
L 186.057445 231.277636 
L 186.690983 230.13402 
L 187.493466 228.181504 
L 188.148122 227.484177 
L 190.471097 223.24443 
L 191.421405 221.3477 
L 192.118297 220.427229 
L 192.582892 219.506757 
L 192.899661 218.502607 
L 194.103385 216.884808 
L 195.201518 213.900249 
L 196.447477 212.282451 
L 196.700893 211.306193 
L 197.925734 209.325784 
L 198.538155 208.37742 
L 198.89716 207.345376 
L 201.68473 203.970314 
L 203.141868 202.743018 
L 204.028822 202.129371 
L 204.577889 201.153113 
L 205.19031 200.567358 
L 206.22509 198.94956 
L 208.421357 197.331762 
L 211.610168 194.988743 
L 212.708301 194.570347 
L 214.228794 193.398838 
L 216.63624 192.283115 
L 217.438722 191.530002 
L 218.220087 190.97214 
L 220.057349 190.191134 
L 220.944303 190.163241 
L 224.555473 188.824373 
L 225.463545 188.601229 
L 226.392734 188.127046 
L 227.617576 187.903902 
L 228.29335 187.401826 
L 229.159186 187.039216 
L 230.215084 186.788179 
L 230.954212 186.425569 
L 236.402644 184.361481 
L 238.113198 183.747833 
L 238.957916 183.078399 
L 239.992696 182.576324 
L 240.66847 181.767425 
L 241.470953 181.014312 
L 243.160389 179.591765 
L 244.364112 178.420256 
L 244.892061 177.360319 
L 246.116902 175.798306 
L 246.412554 174.905728 
L 247.215036 174.01315 
L 247.827456 172.11642 
L 248.460995 171.335414 
L 248.756646 170.442836 
L 249.073416 168.462427 
L 249.538011 167.653528 
L 249.74919 166.593591 
L 251.860985 160.95919 
L 253.402596 158.365134 
L 255.451037 156.24526 
L 255.894514 155.324788 
L 256.675879 154.766927 
L 257.330535 153.902241 
L 258.027428 153.372273 
L 258.872146 153.037556 
L 259.632392 152.507588 
L 260.329284 151.838154 
L 265.460947 149.690387 
L 266.200075 148.965167 
L 267.129265 148.63045 
L 268.924291 148.63045 
L 271.036086 147.654192 
L 271.838569 147.124224 
L 274.119308 146.287432 
L 275.048498 146.315325 
L 277.434826 145.227495 
L 279.694447 144.139665 
L 281.130468 143.219193 
L 281.764006 142.605545 
L 282.672078 142.047684 
L 283.368971 141.461929 
L 283.981392 140.764602 
L 284.889463 140.346206 
L 285.375176 139.732559 
L 286.916787 138.784194 
L 287.360264 138.142653 
L 288.479515 136.971144 
L 289.472059 136.524855 
L 291.689444 133.875012 
L 292.407455 132.340893 
L 293.040993 131.699352 
L 294.096891 130.304699 
L 294.920491 129.691051 
L 296.48322 126.818064 
L 296.757753 125.730234 
L 297.180112 125.0608 
L 297.539117 124.196115 
L 297.20123 123.24775 
L 298.151538 120.876839 
L 299.017374 119.175361 
L 299.017374 118.226997 
L 299.460851 115.800299 
L 299.693148 115.047186 
L 299.77762 113.317815 
L 299.693148 112.481023 
L 299.439733 111.616337 
L 299.439733 110.026432 
L 299.186317 109.161747 
L 299.144082 108.185489 
L 298.74284 105.758791 
L 297.877004 104.252565 
L 297.665825 103.443666 
L 296.736635 102.021119 
L 296.546573 101.156434 
L 296.48322 100.347534 
L 296.145332 98.757629 
L 295.807445 97.753478 
L 295.701855 96.916686 
L 295.469558 95.968321 
L 295.385086 93.318479 
L 295.026081 92.286435 
L 294.983845 91.700681 
L 295.23726 90.835995 
L 294.857137 89.97131 
L 295.997507 86.512568 
L 295.955271 85.61999 
L 295.55403 84.699519 
L 295.004963 79.427727 
L 294.160245 78.758293 
L 292.597516 76.415275 
L 291.773916 75.690055 
L 291.309321 74.964835 
L 289.472059 73.263357 
L 287.888213 71.561879 
L 286.515546 70.725087 
L 285.185115 69.66515 
L 283.453443 68.93993 
L 280.771463 68.409962 
L 276.611226 66.708484 
L 275.597564 66.624805 
L 273.865892 66.262195 
L 273.084528 65.843799 
L 271.183912 65.202258 
L 269.241061 63.082384 
L 268.501932 62.329271 
L 267.826158 61.436693 
L 267.129265 60.878831 
L 265.73548 58.340561 
L 265.207532 57.671127 
L 264.869644 56.722763 
L 264.848526 55.858077 
L 264.595111 55.104964 
L 264.447285 51.144147 
L 264.742937 50.251569 
L 264.679583 49.44267 
L 265.01747 48.522198 
L 265.038588 47.573834 
L 265.693244 45.677104 
L 266.094486 44.00352 
L 266.896968 42.497294 
L 267.255973 41.604715 
L 268.945409 39.401162 
L 269.832363 37.755471 
L 271.754097 35.607704 
L 274.330487 34.129371 
L 276.041041 33.376258 
L 277.118057 33.208899 
L 277.878303 32.623145 
L 278.786375 32.427893 
L 279.947863 32.4 
L 284.699402 33.181006 
L 286.36772 34.129371 
L 287.19132 34.240943 
L 287.909331 34.687232 
L 288.986346 34.770912 
L 289.788829 35.049842 
L 290.6969 35.161415 
L 291.541619 35.105628 
L 293.252173 35.858741 
L 294.962727 35.830848 
L 295.870799 36.277138 
L 298.109302 36.834999 
L 300.052154 36.556068 
L 301.086933 36.862892 
L 302.079477 37.030251 
L 303.198728 37.086037 
L 304.043447 37.253395 
L 304.803693 37.253395 
L 305.648411 37.420754 
L 307.675734 37.392861 
L 309.68194 37.783364 
L 310.526658 38.285439 
L 312.46951 38.56437 
L 314.496833 39.066445 
L 315.510495 39.233804 
L 316.503039 39.150125 
L 318.298065 39.986917 
L 319.163901 40.01481 
L 320.156445 40.321634 
L 321.12787 40.488992 
L 321.909235 40.851602 
L 322.690599 41.409464 
L 323.556435 41.548929 
L 324.358917 42.218363 
L 325.224753 42.748331 
L 326.132825 43.166728 
L 327.146487 43.891948 
L 328.434682 45.175029 
L 332.425975 47.657513 
L 333.967586 48.605877 
L 334.516652 49.275311 
L 335.234663 49.80528 
L 335.889319 50.669965 
L 337.177514 51.98094 
L 338.423474 53.71031 
L 340.134028 54.909713 
L 341.379987 56.360153 
L 343.40731 58.033737 
L 344.146439 58.452133 
L 345.47687 60.097825 
L 348.940214 65.146472 
L 350.143937 66.317981 
L 350.62965 67.266346 
L 350.650768 67.740528 
L 350.84083 69.023609 
L 350.798594 69.888295 
L 350.883066 70.780873 
L 350.524061 73.709646 
L 350.481825 74.574332 
L 350.122819 75.243766 
L 349.784932 76.136344 
L 349.679342 77.140495 
L 349.447045 78.172539 
L 349.172512 80.013482 
L 348.750153 80.850274 
L 348.623445 81.714959 
L 347.968788 82.830682 
L 347.989906 83.890619 
L 347.398604 85.898921 
L 347.271896 86.986751 
L 347.039598 87.79565 
L 346.110408 89.301876 
L 345.666931 90.082882 
L 345.012275 91.756467 
L 344.040849 93.346372 
L 343.745198 95.187315 
L 343.048305 95.800963 
L 342.541474 96.470397 
L 342.224705 97.335082 
L 341.738992 97.920837 
L 341.105454 99.259704 
L 340.471915 99.957031 
L 340.00732 100.877503 
L 339.014776 102.160584 
L 338.634653 102.941591 
L 338.550181 103.917848 
L 337.895525 104.977785 
L 337.050807 105.479861 
L 334.347709 108.687564 
L 333.988704 109.496464 
L 333.291811 110.19379 
L 331.665729 112.787847 
L 330.884365 114.573003 
L 330.250826 115.326117 
L 329.828467 116.107123 
L 328.4558 117.362311 
L 327.589964 118.868537 
L 326.935307 119.454292 
L 326.449594 120.040046 
L 326.027235 120.876839 
L 325.499287 121.629952 
L 323.535317 123.275643 
L 323.028486 123.945077 
L 322.859542 124.753976 
L 322.394948 125.618662 
L 322.26824 126.455454 
L 321.740291 127.431712 
L 321.507994 128.296397 
L 321.254578 130.13734 
L 320.768865 131.002026 
L 320.916691 131.922497 
L 320.811101 132.731396 
L 320.853337 133.623975 
L 321.803645 136.022779 
L 322.37383 136.831679 
L 322.479419 137.807936 
L 324.295563 139.788345 
L 324.570097 140.625137 
L 325.119163 141.266678 
L 326.449594 142.326615 
L 327.252077 142.633438 
L 328.075677 143.302872 
L 329.047103 143.358658 
L 329.976293 143.693375 
L 330.968836 143.860734 
L 331.834672 144.195451 
L 332.742744 144.27913 
L 333.587462 144.474382 
L 336.121617 144.502275 
L 336.987453 143.972306 
L 340.11291 142.549759 
L 340.873156 142.10347 
L 342.161351 141.043533 
L 342.942716 140.513565 
L 343.555136 139.844131 
L 344.315382 139.593093 
L 345.054511 139.20259 
L 345.666931 138.588942 
L 346.131526 137.696364 
L 346.891773 136.971144 
L 347.356368 136.747999 
L 348.285558 136.524855 
L 349.679342 134.907056 
L 350.671886 134.600232 
L 356.20479 132.006176 
L 357.260687 132.313 
L 359.076831 131.838818 
L 360.576206 131.727246 
L 362.434586 131.783032 
L 363.384894 132.034069 
L 364.314084 132.508252 
L 365.032094 133.03822 
L 365.834576 133.40083 
L 368.938915 136.692213 
L 369.361274 137.305861 
L 369.656926 138.086867 
L 370.22711 138.923659 
L 370.691705 140.792495 
L 371.050711 141.517715 
L 370.860649 142.521866 
L 370.776177 143.91652 
L 370.037049 145.841142 
L 370.015931 146.287432 
L 369.466864 147.765765 
L 369.107859 148.435198 
L 368.199787 149.71828 
L 367.54513 150.108783 
L 365.79234 151.587116 
L 358.99236 154.739034 
L 358.295467 155.269002 
L 357.661929 156.022115 
L 354.811005 158.002524 
L 353.121569 158.671957 
L 351.748902 159.564536 
L 351.073127 160.317649 
L 350.376235 161.349693 
L 349.531517 161.851768 
L 349.003568 162.576988 
L 346.40606 165.394189 
L 346.004819 166.175195 
L 345.350162 166.67727 
L 344.970039 167.430384 
L 343.449546 169.57815 
L 342.79489 171.056483 
L 342.414767 172.032741 
L 341.485577 173.427395 
L 340.957628 174.041043 
L 340.767566 175.0173 
L 339.859494 177.443998 
L 339.648315 178.28079 
L 339.584961 179.36862 
L 339.057012 180.289092 
L 338.740243 182.464752 
L 338.550181 183.273651 
L 338.529063 184.361481 
L 338.25453 185.979279 
L 338.001115 186.899751 
L 338.022233 187.792329 
L 337.599873 188.629122 
L 337.53652 189.661166 
L 336.438386 194.849278 
L 336.332796 197.610692 
L 335.78373 200.148962 
L 335.741494 200.985755 
L 335.488078 202.073585 
L 334.939011 202.910377 
L 334.64336 203.691383 
L 334.706714 205.643898 
L 334.432181 208.433206 
L 334.558888 211.334086 
L 334.411063 213.09135 
L 334.558888 214.848614 
L 335.002365 216.71745 
L 334.981247 217.610028 
L 335.192427 218.502607 
L 335.234663 219.450971 
L 334.896776 220.399336 
L 335.044601 221.236128 
L 334.960129 222.212386 
L 335.551432 225.224838 
L 335.298017 227.902573 
L 335.276899 228.739366 
L 335.129073 229.743517 
L 335.107955 231.94707 
L 334.833422 232.783862 
L 334.432181 233.564868 
L 333.861996 235.238453 
L 333.017278 236.661 
L 332.404857 237.330433 
L 330.989954 239.617666 
L 328.878159 242.100149 
L 328.35021 242.909049 
L 327.505492 243.299552 
L 326.893071 243.885306 
L 326.175061 244.415275 
L 323.366373 247.650872 
L 322.98625 248.627129 
L 321.550229 250.189142 
L 320.536568 251.695368 
L 319.924147 252.225336 
L 318.952721 253.703669 
L 317.791234 254.763606 
L 316.967634 255.209895 
L 314.581305 257.106625 
L 314.11671 257.915524 
L 311.751499 260.788511 
L 310.463304 261.987913 
L 307.739088 265.697692 
L 307.190022 266.450805 
L 306.598719 266.952881 
L 306.028534 267.705994 
L 304.803693 268.821717 
L 303.980093 270.216371 
L 303.093139 271.666811 
L 302.480718 272.531496 
L 302.121713 273.312502 
L 301.593764 273.870364 
L 301.192523 274.707156 
L 300.622338 275.460269 
L 299.88321 275.962344 
L 298.996256 277.691715 
L 298.193774 278.221684 
L 298.088184 279.142155 
L 297.750297 280.481023 
L 297.433527 281.206243 
L 296.926697 281.791997 
L 296.462102 282.712469 
L 295.828563 283.186651 
L 294.688194 284.80445 
L 294.223599 285.613349 
L 292.66087 287.761116 
L 291.752798 289.769417 
L 291.224849 290.466744 
L 290.718018 292.41926 
L 290.147834 293.144479 
L 289.239762 295.905894 
L 289.028582 296.854259 
L 288.289454 298.611522 
L 287.360264 300.089856 
L 286.726725 301.512402 
L 286.5789 302.432874 
L 285.903125 303.9391 
L 285.396294 308.959854 
L 285.185115 309.685074 
L 285.100643 310.549759 
L 285.206233 311.386552 
L 285.037289 313.143815 
L 285.375176 314.733721 
L 285.523002 315.654192 
L 285.882007 316.574664 
L 286.156541 317.969318 
L 286.980141 319.559223 
L 288.711813 321.288594 
L 290.80249 324.189474 
L 291.288203 324.886801 
L 292.322983 327.14614 
L 292.618634 328.038718 
L 293.188819 328.568687 
L 293.653414 329.182334 
L 294.51925 330.911705 
L 294.836019 331.776391 
L 295.23726 333.477868 
L 295.195024 334.39834 
L 295.532912 335.263025 
L 295.744091 337.048182 
L 296.06086 337.857081 
L 296.145332 338.74966 
L 296.37763 339.530666 
L 296.525455 340.423244 
L 296.48322 341.371609 
L 296.736635 343.184659 
L 296.440984 345.695036 
L 296.187568 346.531828 
L 295.300614 348.121733 
L 295.279496 349.070098 
L 294.878255 350.63211 
L 294.836019 351.441009 
L 293.716768 353.8956 
L 293.568942 355.318147 
L 293.294409 356.127046 
L 293.083229 357.103304 
L 293.421116 359.167392 
L 293.040993 359.864719 
L 292.977639 360.924655 
L 292.745342 361.87302 
L 293.273291 365.303869 
L 292.998757 367.116918 
L 293.37888 370.743018 
L 293.294409 371.133522 
L 293.336645 372.0261 
L 292.576398 375.010659 
L 292.048449 376.516885 
L 291.83727 377.269998 
L 291.858388 378.134684 
L 292.259629 380.115092 
L 292.217393 381.035564 
L 292.66087 382.151287 
L 293.231055 383.155437 
L 293.37888 384.243267 
L 293.167701 388.008833 
L 292.914286 388.98509 
L 292.534162 389.933455 
L 292.639752 391.021285 
L 292.259629 391.858077 
L 291.900624 393.922165 
L 290.654665 396.348863 
L 290.760254 397.353013 
L 290.549075 398.078233 
L 289.598767 399.50078 
L 289.514295 400.504931 
L 289.134172 401.341723 
L 288.838521 403.238453 
L 288.500633 404.047352 
L 288.373926 404.856251 
L 287.761505 405.637257 
L 287.761505 406.697194 
L 288.183864 407.952383 
L 288.310572 409.012319 
L 287.930449 409.737539 
L 286.388838 411.857413 
L 285.691946 413.586784 
L 285.269587 414.36779 
L 285.100643 415.260369 
L 284.804992 416.152947 
L 284.129217 416.878167 
L 283.009966 417.519708 
L 281.616181 418.691217 
L 281.024878 419.388544 
L 280.644755 420.141657 
L 279.821155 421.229487 
L 279.082026 421.787348 
L 278.258426 422.205745 
L 276.949113 424.186153 
L 276.822406 425.106625 
L 276.653462 425.357662 
L 276.252221 426.166562 
L 272.197574 430.211058 
L 271.880805 431.494139 
L 270.782671 433.167724 
L 270.17025 433.865051 
L 269.304414 434.618164 
L 268.206281 435.845459 
L 267.48827 436.431214 
L 266.854732 437.184327 
L 265.566537 438.383729 
L 264.91188 439.136842 
L 264.468403 439.917848 
L 263.855983 440.670961 
L 262.504434 443.209231 
L 261.934249 444.185489 
L 261.61748 444.994388 
L 261.047295 445.580143 
L 260.730526 446.416935 
L 260.202577 447.058476 
L 259.7591 447.895268 
L 259.463448 448.787847 
L 256.549171 453.44599 
L 255.366566 455.119575 
L 254.923089 456.737373 
L 254.754145 457.574166 
L 253.761601 459.191964 
L 253.592658 460.084543 
L 253.191416 461.005014 
L 252.600114 461.813913 
L 252.241109 462.706492 
L 251.206329 464.463756 
L 250.108195 468.201428 
L 249.474657 468.982434 
L 248.482113 470.516553 
L 245.863487 473.975295 
L 246.03243 475.174697 
L 245.842369 476.234634 
L 245.229948 477.657181 
L 244.701999 478.382401 
L 244.342994 479.219193 
L 243.244861 480.64174 
L 242.864738 481.394853 
L 240.731824 484.351519 
L 239.633691 485.71828 
L 239.169096 486.694538 
L 238.852327 487.642902 
L 238.387732 488.563374 
L 236.170347 491.380574 
L 235.642398 493.416769 
L 235.600162 493.807272 
L 235.283393 494.532492 
L 234.713208 495.201926 
L 234.354203 495.899253 
L 233.699546 496.680259 
L 233.382777 497.740196 
L 232.812592 498.549095 
L 231.79893 500.50161 
L 231.651105 501.561547 
L 231.038684 503.430384 
L 230.574089 504.239283 
L 230.384027 505.410792 
L 229.201422 508.785854 
L 228.673473 509.957363 
L 228.272232 510.459439 
L 227.934345 511.352017 
L 227.702047 512.774564 
L 227.237453 513.55557 
L 226.899565 514.392363 
L 226.75174 515.284941 
L 226.920683 516.121733 
L 226.941801 517.18167 
L 226.75174 518.2695 
L 226.287145 519.106293 
L 225.357955 519.831513 
L 224.323175 521.811921 
L 223.393985 522.313996 
L 222.253616 523.234468 
L 220.838713 524.991732 
L 219.888405 525.605379 
L 219.402692 526.637423 
L 217.692138 527.808932 
L 216.826302 528.338901 
L 215.474753 529.398838 
L 214.798978 530.151951 
L 214.05985 530.626133 
L 213.23625 531.016636 
L 210.65986 531.881322 
L 209.646198 531.992894 
L 208.738126 532.355504 
L 207.787818 532.578649 
L 207.090926 533.052831 
L 204.746833 532.634435 
L 203.796525 532.913365 
L 201.642494 532.494969 
L 200.713304 532.662328 
L 197.883498 532.243932 
L 196.975426 531.937108 
L 196.172944 532.104466 
L 194.884749 531.937108 
L 193.174195 531.462925 
L 192.413948 531.295567 
L 190.64004 531.267674 
L 188.971722 530.654026 
L 187.071106 530.458775 
L 185.233845 530.23563 
L 184.515834 529.789341 
L 183.502172 529.51041 
L 179.257464 529.649875 
L 178.328274 529.51041 
L 177.272376 529.203586 
L 176.195361 529.566196 
L 175.118345 530.096165 
L 172.774252 531.044529 
L 172.098478 531.407139 
L 170.282334 531.992894 
L 168.508426 532.383397 
L 166.92458 532.801793 
L 165.953154 532.829686 
L 163.440117 533.833837 
L 162.764343 534.22434 
L 161.750681 534.168554 
L 159.807829 535.200598 
L 158.941993 535.31217 
L 158.202865 535.67478 
L 157.083614 535.953711 
L 156.661255 536.176855 
L 155.816536 536.4 
L 154.1271 536.065283 
L 152.458782 535.172705 
L 151.740772 534.112768 
L 151.086115 533.582799 
L 149.734566 532.885472 
L 148.214073 532.383397 
L 147.432709 532.020787 
L 145.025263 531.407139 
L 143.948247 531.546605 
L 142.005395 531.211888 
L 141.181795 530.96085 
L 140.147015 530.821385 
L 139.78801 530.932957 
L 138.96441 530.096165 
L 136.409138 529.1478 
L 135.311004 528.952549 
L 134.867527 528.311008 
L 132.417845 527.167392 
L 130.833998 526.916354 
L 129.419096 526.386386 
L 128.616613 525.716952 
L 126.969413 525.465914 
L 125.934633 525.382235 
L 125.533392 525.214876 
L 124.62532 524.405977 
L 124.139607 523.70865 
L 124.076253 521.756135 
L 123.865074 520.891449 
L 123.80172 519.859406 
L 123.379361 518.715789 
L 123.08371 518.297393 
L 123.062592 517.293243 
L 122.76694 516.568023 
L 122.323463 515.81491 
L 122.070048 515.00601 
L 121.077504 513.667143 
L 120.824089 512.774564 
L 119.894899 511.296231 
L 119.282478 510.822049 
L 118.754529 509.92947 
L 117.888693 509.538967 
L 116.621616 508.311672 
L 114.995534 507.558559 
L 114.150816 506.805446 
L 113.263862 506.526515 
L 112.735913 505.66183 
L 111.975667 504.93661 
L 111.194302 504.93661 
L 110.328466 504.574 
L 109.314805 504.406641 
L 108.512322 504.099817 
L 107.667604 503.48617 
L 106.041522 503.151453 
L 105.048978 502.76095 
L 103.422896 502.649377 
L 102.641531 502.31466 
L 101.226629 502.454126 
L 100.59309 502.03573 
L 99.790608 502.119409 
L 98.903654 502.621484 
L 97.425397 502.649377 
L 96.622915 502.67727 
L 95.799315 502.286767 
L 92.335971 501.422082 
L 91.364545 501.171044 
L 90.308647 501.366296 
L 89.86517 501.561547 
L 88.408031 501.394189 
L 87.584431 501.394189 
L 86.760831 501.143151 
L 85.409282 500.975793 
L 83.888789 500.696862 
L 83.191897 500.390038 
L 82.410533 499.86007 
L 81.016748 499.49746 
L 79.327312 498.493309 
L 78.736009 498.019127 
L 78.144706 497.238121 
L 77.215516 496.401328 
L 76.391916 496.150291 
L 75.230429 494.560385 
L 74.934777 493.612021 
L 74.195649 492.858908 
L 73.372049 492.189474 
L 72.801864 491.464254 
L 72.675157 490.487996 
L 72.189444 489.065449 
L 72.23168 488.284443 
L 71.936028 487.419758 
L 71.893792 486.638751 
L 71.703731 485.662494 
L 71.661495 484.769915 
L 71.365843 484.044695 
L 70.943484 482.231645 
L 70.584479 481.422746 
L 70.3733 479.832841 
L 70.500007 478.856583 
L 70.288828 477.824539 
L 69.697525 476.095169 
L 67.902499 474.086867 
L 66.593186 472.803785 
L 63.911206 469.986585 
L 62.22177 467.810925 
L 60.785749 466.527843 
L 60.194446 465.551586 
L 59.476436 464.826366 
L 58.547246 464.073253 
L 58.272713 463.682749 
L 56.836692 462.204416 
L 55.126138 461.451303 
L 54.218066 461.200266 
L 52.465276 461.005014 
L 51.536086 461.005014 
L 50.796958 460.753976 
L 49.191993 460.69819 
L 47.692618 460.837656 
L 46.932372 460.977121 
L 46.087654 460.781869 
L 44.187038 460.865549 
L 42.455366 461.618662 
L 39.963448 462.092844 
L 39.308791 462.51124 
L 38.442955 462.455454 
L 37.492647 461.813913 
L 36.690165 461.0608 
L 36.478986 460.000863 
L 35.993273 459.415109 
L 35.613149 458.52253 
L 35.465324 457.546273 
L 35.275262 457.183663 
L 34.261601 455.872688 
L 32.297631 453.752814 
L 32.297631 453.752814 
" style="fill:none;stroke:#000000;stroke-width:3;"/>
   </g>
  </g>
 </g>
 <defs>
  <clipPath id="pbe0c959dec">
   <rect height="554.4" width="381.176935" x="7.2" y="7.2"/>
  </clipPath>
 </defs>
</svg>
