<?xml version="1.0" encoding="utf-8" standalone="no"?>
<!DOCTYPE svg PUBLIC "-//W3C//DTD SVG 1.1//EN"
  "http://www.w3.org/Graphics/SVG/1.1/DTD/svg11.dtd">
<svg height="568.8pt" version="1.1" viewBox="0 0 296.104767 568.8" width="296.104767pt" xmlns="http://www.w3.org/2000/svg" xmlns:xlink="http://www.w3.org/1999/xlink">
 <metadata>
  <rdf:RDF xmlns:cc="http://creativecommons.org/ns#" xmlns:dc="http://purl.org/dc/elements/1.1/" xmlns:rdf="http://www.w3.org/1999/02/22-rdf-syntax-ns#">
   <cc:Work>
    <dc:type rdf:resource="http://purl.org/dc/dcmitype/StillImage"/>
    <dc:date>2021-06-02T04:35:51.373737</dc:date>
    <dc:format>image/svg+xml</dc:format>
    <dc:creator>
     <cc:Agent>
      <dc:title>Matplotlib v3.4.2, https://matplotlib.org/</dc:title>
     </cc:Agent>
    </dc:creator>
   </cc:Work>
  </rdf:RDF>
 </metadata>
 <defs>
  <style type="text/css">*{stroke-linecap:butt;stroke-linejoin:round;}</style>
 </defs>
 <g id="figure_1">
  <g id="patch_1">
   <path d="M 0 568.8 
L 296.104767 568.8 
L 296.104767 0 
L 0 0 
z
" style="fill:#ffffff;"/>
  </g>
  <g id="axes_1">
   <g id="LineCollection_1">
    <path clip-path="url(#p2042e5664d)" d="M 203.845249 104.925969 
L 203.837392 104.915598 
L 203.91596 104.879299 
L 204.03774 104.827443 
L 203.578119 104.500749 
L 203.52705 104.360738 
L 203.703827 104.480007 
L 202.674591 104.542234 
L 201.664996 103.302873 
L 201.441079 103.79032 
L 201.272158 103.842176 
L 201.008956 103.733278 
L 200.663259 103.805877 
L 200.443269 103.671051 
L 200.655402 103.805877 
L 200.321489 104.065158 
L 200.451126 103.562153 
L 199.897224 104.371109 
L 198.883701 105.98902 
L 198.263016 106.632036 
L 197.438056 107.93881 
L 197.072716 108.695909 
L 195.957055 110.552358 
L 195.603501 111.527253 
L 195.301015 112.097671 
L 193.933938 114.882344 
L 193.17576 115.971323 
L 193.038266 116.11652 
L 193.057908 116.318759 
L 192.936128 116.598782 
L 192.409725 116.899547 
L 192.272232 117.148457 
L 192.260446 117.51145 
L 191.451199 118.937493 
L 191.164427 119.450868 
L 191.388345 119.684221 
L 191.396202 120.322051 
L 189.549862 122.759289 
L 188.713116 123.308964 
L 188.332063 123.563059 
L 188.100288 123.863824 
L 187.687808 125.082443 
L 187.153548 126.166236 
L 186.799994 126.467001 
L 186.717497 126.855922 
L 186.446439 127.229286 
L 186.175381 128.484204 
L 185.841468 128.764228 
L 185.727545 129.256861 
L 185.813969 129.407243 
L 185.452558 129.547255 
L 184.800446 130.413252 
L 184.686523 130.755503 
L 184.293685 131.331105 
L 183.099456 133.420907 
L 181.752021 136.32485 
L 181.508461 136.625615 
L 181.241331 137.289374 
L 179.988177 139.379175 
L 179.901752 139.50363 
L 179.595338 139.576228 
L 179.497129 140.022191 
L 179.359635 140.297029 
L 179.339993 140.722249 
L 178.786091 141.640102 
L 178.707524 142.04458 
L 177.855064 143.429138 
L 177.375802 144.601087 
L 176.059793 147.437616 
L 175.729809 147.759124 
L 173.836328 151.446094 
L 173.286355 152.592115 
L 172.10784 154.878969 
L 171.982131 155.330118 
L 171.479298 156.097588 
L 171.271094 156.507252 
L 170.929325 156.844316 
L 170.497202 157.788098 
L 168.379804 161.806947 
L 168.285522 162.25291 
L 168.045891 162.662573 
L 167.680551 162.963339 
L 166.702384 164.430867 
L 166.073843 164.97017 
L 164.046797 166.894032 
L 163.775738 167.443707 
L 163.394685 167.702988 
L 163.096128 167.962268 
L 162.554011 169.70982 
L 162.432231 170.575817 
L 162.612937 171.135863 
L 162.369377 172.779702 
L 162.463658 173.194551 
L 162.271167 173.578286 
L 162.231884 174.055363 
L 162.648292 174.983587 
L 162.675791 175.377694 
L 162.554011 175.751058 
L 162.557939 177.493423 
L 162.389019 177.9342 
L 162.770072 180.319582 
L 162.719003 180.578862 
L 162.412589 180.552934 
L 162.440088 180.915927 
L 162.636507 181.040382 
L 162.766144 182.2953 
L 162.632579 182.684221 
L 162.667934 183.316866 
L 162.62865 183.65393 
L 162.754359 184.234719 
L 162.640436 184.452515 
L 162.636507 184.742909 
L 162.420446 185.069602 
L 162.21617 186.163767 
L 162.039393 186.920866 
L 162.212242 188.040958 
L 162.243669 188.362466 
L 162.550083 188.68916 
L 162.518656 189.524043 
L 162.389019 190.794518 
L 162.212242 191.084912 
L 162.365449 191.427163 
L 162.310451 191.810898 
L 162.774001 192.282789 
L 163.469324 192.71838 
L 164.207861 193.615491 
L 163.492895 196.042357 
L 163.669672 197.16245 
L 163.822879 197.369874 
L 164.907113 197.354317 
L 165.170314 197.406173 
L 165.409946 197.629155 
L 165.673148 198.220314 
L 165.578866 198.884073 
L 165.453158 199.117425 
L 165.622079 199.558202 
L 165.57101 199.646358 
L 164.361067 199.101868 
L 164.439635 199.967866 
L 164.624269 200.377529 
L 164.852115 202.135451 
L 164.808903 202.991077 
L 164.643911 204.090427 
L 164.180362 204.271924 
L 163.866091 205.049765 
L 163.575391 206.662491 
L 163.488966 207.092897 
L 162.675791 208.887118 
L 163.815022 210.142036 
L 163.422184 211.619936 
L 163.335759 212.03997 
L 163.123627 212.361478 
L 162.632579 212.589645 
L 162.298666 212.973381 
L 162.180815 213.388229 
L 162.357592 213.958647 
L 162.082605 214.586106 
L 162.110104 215.794353 
L 161.257645 217.915269 
L 161.069082 218.241962 
L 161.245859 217.723401 
L 161.073011 217.853041 
L 159.517371 221.457042 
L 159.006681 222.981612 
L 158.747408 223.308305 
L 158.743479 223.64537 
L 159.097034 223.686855 
L 159.116676 223.904651 
L 158.605986 225.16994 
L 158.173864 225.569232 
L 157.851736 226.585612 
L 157.639603 226.735995 
L 157.254622 227.487908 
L 156.979635 227.845716 
L 156.920709 228.395391 
L 156.732147 229.085077 
L 156.959993 230.391851 
L 156.417876 231.843823 
L 155.938613 231.890493 
L 155.663627 232.180887 
L 155.408282 231.880122 
L 155.035085 232.870574 
L 154.830809 232.974286 
L 154.453684 234.094378 
L 153.958708 235.281883 
L 154.186554 235.873043 
L 153.746575 236.391604 
L 153.251599 237.273158 
L 152.489493 237.703564 
L 152.461994 237.83839 
L 151.786312 238.445107 
L 151.173484 239.440744 
L 150.812073 239.767438 
L 150.321025 240.00079 
L 149.672842 239.305918 
L 150.580298 239.762252 
L 151.495612 239.736324 
L 151.617392 239.850407 
L 151.692031 240.291184 
L 151.35419 241.058655 
L 150.293526 242.578039 
L 150.049967 243.319582 
L 150.191388 244.23225 
L 150.057823 244.849337 
L 149.503921 246.09907 
L 149.358571 246.7369 
L 148.702531 247.67031 
L 148.498255 248.183686 
L 148.470757 248.712618 
L 148.262552 249.158581 
L 148.541467 250.491283 
L 148.400046 250.994288 
L 148.152557 251.326167 
L 148.089703 251.709902 
L 147.520088 252.337361 
L 147.527945 252.632941 
L 147.068324 253.457453 
L 146.416212 255.573183 
L 146.42014 256.382138 
L 145.917307 256.724389 
L 145.520541 256.973298 
L 145.151273 257.377776 
L 143.729198 258.409713 
L 142.609609 259.363865 
L 141.992852 260.266162 
L 141.541088 260.520257 
L 141.234674 260.878064 
L 140.170082 261.313655 
L 139.576897 261.069932 
L 139.706533 261.526266 
L 140.213295 262.132982 
L 139.993305 263.771636 
L 139.745817 264.010174 
L 139.502257 264.65319 
L 139.317623 265.690312 
L 138.964069 266.846703 
L 138.418023 267.728257 
L 138.241246 268.132735 
L 137.89162 268.630554 
L 138.567302 270.264022 
L 138.40231 270.751469 
L 137.365217 270.958894 
L 135.522805 272.763487 
L 134.847123 273.961363 
L 134.682131 274.874031 
L 133.405406 277.446094 
L 132.623658 278.037254 
L 132.431167 278.607671 
L 131.837981 279.157346 
L 131.712273 279.86259 
L 131.280151 280.085571 
L 130.557328 280.951568 
L 128.860267 283.082855 
L 128.522426 283.33695 
L 128.557781 283.658457 
L 127.893884 284.384443 
L 127.611041 285.151914 
L 127.316412 286.033468 
L 127.265343 286.47943 
L 126.389313 287.620265 
L 126.051472 287.770648 
L 125.756844 288.226982 
L 125.788271 288.812956 
L 125.568281 289.331517 
L 125.250082 289.61154 
L 124.676538 290.436052 
L 123.941931 290.684962 
L 123.761225 290.980542 
L 123.733726 291.379834 
L 123.270177 292.147304 
L 123.250535 292.712536 
L 123.242678 292.847362 
L 123.077686 293.034044 
L 121.97381 295.787604 
L 121.808818 295.808346 
L 121.651683 296.233567 
L 121.710609 296.746942 
L 121.070282 298.302626 
L 120.866006 298.432266 
L 120.756012 298.795259 
L 120.327818 299.111581 
L 119.793558 300.439098 
L 118.673968 302.331846 
L 118.583616 302.762252 
L 118.575759 303.363783 
L 118.285058 304.209038 
L 118.265416 304.815754 
L 117.896148 304.240151 
L 117.149756 304.888353 
L 116.646923 306.1329 
L 116.085164 306.423294 
L 115.378055 306.864071 
L 115.158065 307.590057 
L 114.293821 309.036843 
L 113.861699 309.799128 
L 113.618139 310.748094 
L 112.91103 311.847444 
L 112.781393 312.381562 
L 112.895316 313.029764 
L 112.734253 313.42387 
L 112.573189 314.14467 
L 112.490693 314.616561 
L 111.763942 315.757396 
L 111.47717 316.037419 
L 111.060761 316.229286 
L 110.086522 317.250852 
L 109.850819 317.696815 
L 109.253705 318.386501 
L 109.010145 318.713195 
L 106.73954 324.14253 
L 105.749587 325.910824 
L 105.254611 326.911647 
L 105.250682 327.419837 
L 104.873557 328.197679 
L 103.423984 330.691958 
L 102.041193 332.797317 
L 102.025479 333.248465 
L 101.070882 335.058243 
L 100.846964 335.405679 
L 100.536622 336.245749 
L 99.998434 337.267314 
L 99.523099 337.754762 
L 99.35025 338.428891 
L 98.96134 339.020051 
L 98.631356 339.740851 
L 98.348513 339.849749 
L 97.912462 340.378681 
L 97.668902 340.964656 
L 97.492125 341.120224 
L 97.551051 341.586929 
L 97.810324 341.944736 
L 98.513505 342.136604 
L 99.094905 342.18846 
L 99.405248 342.250687 
L 100.92946 343.407079 
L 101.436222 343.614503 
L 101.915485 343.728587 
L 103.416127 344.459758 
L 103.832536 344.916092 
L 104.154663 345.009433 
L 104.846059 345.387983 
L 105.989218 345.797646 
L 106.586333 346.202124 
L 106.76311 346.767355 
L 106.90846 346.97478 
L 107.525216 347.088863 
L 109.324416 347.975603 
L 110.526501 348.514907 
L 112.164637 349.671298 
L 112.557475 349.707597 
L 115.334842 350.993629 
L 116.057665 350.921031 
L 116.348365 350.723977 
L 116.686206 350.79139 
L 117.365817 351.309951 
L 118.088639 351.662573 
L 119.824985 353.130101 
L 120.206038 353.560507 
L 120.378887 353.690147 
L 120.73637 354.623557 
L 120.22568 356.604461 
L 120.072473 357.947535 
L 119.549998 358.357198 
L 118.709324 359.596559 
L 117.856865 361.437452 
L 117.208681 362.111581 
L 116.309082 364.730315 
L 116.151946 365.108865 
L 115.41341 365.985233 
L 114.262394 367.831311 
L 113.861699 368.526183 
L 112.160709 371.611622 
L 111.284679 373.369545 
L 110.860414 374.012561 
L 110.660066 374.795588 
L 110.023668 375.366005 
L 109.729039 376.034949 
L 109.159424 376.631295 
L 109.218349 377.077257 
L 108.22054 379.291514 
L 107.984837 379.944901 
L 106.550977 381.71838 
L 106.437054 382.081373 
L 106.409555 382.854029 
L 106.040287 383.885966 
L 105.576738 384.383785 
L 105.172115 384.409713 
L 104.865701 384.974944 
L 104.45322 385.939468 
L 104.378581 385.892798 
L 104.06431 386.037995 
L 104.036812 386.224677 
L 103.643973 386.463215 
L 103.498623 386.686196 
L 103.518265 386.862507 
L 103.231493 387.168458 
L 102.367249 387.790732 
L 102.155116 388.190024 
L 102.025479 388.926381 
L 101.954769 389.533097 
L 101.648355 390.113886 
L 100.289134 391.389546 
L 99.625237 392.281472 
L 98.478149 393.681587 
L 98.120666 394.329788 
L 97.810324 394.827607 
L 97.774969 395.346168 
L 97.444984 395.86473 
L 96.918581 396.331435 
L 96.419676 397.809334 
L 96.156475 398.037501 
L 95.669355 398.908684 
L 95.241161 399.183521 
L 94.860108 399.489472 
L 94.482983 400.573265 
L 94.372989 400.749576 
L 95.814705 401.786698 
L 96.254684 402.320817 
L 96.43539 402.419343 
L 96.737875 402.844563 
L 97.342846 403.311268 
L 98.517433 404.203194 
L 99.153831 404.446917 
L 103.180424 407.024167 
L 103.769682 407.174549 
L 105.282109 408.061289 
L 105.934221 408.652449 
L 106.291704 409.108783 
L 106.963457 409.331764 
L 107.450577 409.642901 
L 108.613378 410.882262 
L 108.483742 411.219327 
L 106.994884 413.500996 
L 106.550977 414.424035 
L 106.334916 414.714429 
L 105.706375 415.155206 
L 105.113189 416.233813 
L 104.755706 416.954614 
L 104.358939 417.550959 
L 104.268586 417.98655 
L 103.989671 418.505112 
L 103.946459 418.671051 
L 103.282562 419.433336 
L 102.932936 420.330447 
L 102.877939 420.724553 
L 101.70728 422.648416 
L 101.098381 422.886954 
L 100.835179 423.208462 
L 100.674116 423.581826 
L 100.619118 424.375224 
L 100.190924 424.930085 
L 98.690282 426.382056 
L 98.635285 426.636151 
L 96.859655 428.923006 
L 96.293968 429.503795 
L 95.24509 431.790649 
L 95.327586 432.221055 
L 94.993673 432.827772 
L 94.573336 433.320405 
L 94.557623 433.724883 
L 94.031219 434.217516 
L 92.950914 435.467248 
L 92.251662 436.91922 
L 91.752757 438.345263 
L 90.963152 439.149033 
L 90.833515 439.3772 
L 90.825658 439.631295 
L 90.971009 439.84909 
L 90.790303 439.978731 
L 90.377823 439.906132 
L 89.906417 440.201712 
L 89.336801 441.311433 
L 89.089313 441.995934 
L 88.48827 442.970829 
L 88.268281 443.271594 
L 88.19757 443.624216 
L 88.005079 443.904239 
L 87.510103 444.137592 
L 86.834421 444.88432 
L 86.421941 445.371767 
L 85.62055 446.217022 
L 84.972367 447.357857 
L 84.909513 447.85049 
L 84.155263 449.354317 
L 83.65243 449.961034 
L 83.36173 450.562565 
L 82.843183 452.087135 
L 82.077148 453.212413 
L 81.947512 453.917656 
L 81.802162 454.182122 
L 81.70788 454.835509 
L 81.260045 455.125903 
L 81.12648 455.348885 
L 80.717928 455.561495 
L 80.187596 456.251181 
L 79.629766 456.79567 
L 79.429418 457.117178 
L 79.295853 457.708338 
L 78.844089 458.247642 
L 78.753736 458.460252 
L 78.490534 458.65212 
L 77.7245 460.036678 
L 76.718834 461.058243 
L 76.216 461.390123 
L 76.074579 461.846456 
L 75.65817 462.204264 
L 75.186764 462.68134 
L 75.057127 462.940621 
L 74.841066 463.013219 
L 74.742857 463.262129 
L 74.888207 463.671792 
L 74.719286 464.226652 
L 74.220382 464.553346 
L 73.756832 465.279332 
L 73.505416 466.062359 
L 72.696169 467.55063 
L 72.52332 467.960293 
L 72.381898 468.183274 
L 72.413325 468.499597 
L 72.220834 468.878146 
L 71.882994 469.12187 
L 71.423373 469.308552 
L 70.959823 469.998239 
L 70.889113 470.475315 
L 70.229144 471.642078 
L 69.29026 472.04137 
L 69.078128 472.393991 
L 68.834568 473.996345 
L 68.87778 474.41638 
L 67.872114 474.976426 
L 67.471419 475.614256 
L 66.929302 476.635822 
L 66.493251 477.25291 
L 65.145816 479.529393 
L 64.925826 480.208709 
L 64.540845 480.836168 
L 63.87302 481.785135 
L 62.419518 483.589728 
L 61.798833 485.389135 
L 61.001371 485.814355 
L 60.667459 486.063264 
L 60.144984 486.991489 
L 59.873925 487.691547 
L 58.887901 489.579109 
L 58.601129 490.34658 
L 58.011872 491.077751 
L 56.691935 492.182287 
L 56.542656 492.394897 
L 56.676221 492.820117 
L 56.542656 494.054293 
L 56.177317 494.4121 
L 55.360213 495.117343 
L 54.932019 495.578862 
L 54.692388 495.879628 
L 53.073894 497.041205 
L 52.928544 497.481982 
L 52.453209 498.259824 
L 52.154652 498.472434 
L 51.922877 498.81987 
L 51.396474 499.156935 
L 51.4554 499.628825 
L 51.742172 500.277027 
L 51.640034 500.676319 
L 51.793241 500.945971 
L 51.879665 500.8993 
L 51.970018 501.23118 
L 51.655747 501.537131 
L 51.522182 502.138662 
L 50.905426 503.186155 
L 50.339739 503.538777 
L 50.017611 503.927698 
L 49.263362 505.877488 
L 49.114083 506.78497 
L 49.216221 507.547255 
L 48.689818 507.708009 
L 47.739149 506.515318 
L 47.440592 506.842012 
L 47.098823 507.80135 
L 46.698127 507.713195 
L 46.348501 507.80135 
L 45.771029 508.978484 
L 45.496042 510.010421 
L 45.503899 510.969759 
L 45.480329 511.509062 
L 45.142488 512.540999 
L 45.118917 513.152901 
L 44.910713 513.60405 
L 44.596442 513.86333 
L 44.11718 513.961857 
L 43.060444 514.573759 
L 42.742245 516.1087 
L 42.805099 516.736159 
L 42.789386 517.171751 
L 42.349407 517.825138 
L 41.956569 519.360079 
L 41.634441 519.500091 
L 41.485163 519.852712 
L 40.98233 519.96161 
L 40.597348 520.55277 
L 39.540613 521.40321 
L 40.039518 521.543222 
L 40.22808 522.404033 
L 40.078801 523.22336 
L 40.416642 524.779044 
L 40.864478 525.473916 
L 41.05304 525.831723 
L 41.009828 526.256943 
L 41.355526 527.314808 
L 41.316242 527.708914 
L 41.826932 527.937081 
L 42.235484 528.533427 
L 42.325837 528.709737 
L 42.101919 528.766779 
L 42.129418 529.461651 
L 42.451545 530.33802 
L 42.204057 530.981035 
L 42.290481 532.645617 
L 42.412261 533.853865 
L 42.844383 535.585859 
L 42.710818 535.871068 
L 42.455473 536.078492 
L 42.02728 535.990337 
L 41.724794 536.337773 
L 40.848765 536.301473 
L 40.055231 536.4 
L 39.477759 536.213318 
L 38.778506 535.839954 
L 36.58254 533.361231 
L 36.016853 532.474492 
L 35.895073 532.458935 
L 35.957927 532.292995 
L 35.737938 531.888518 
L 35.722224 531.40107 
L 35.584731 531.157346 
L 35.80472 530.33802 
L 35.753651 529.482394 
L 35.698654 529.181628 
L 35.337243 528.771965 
L 35.541519 527.750399 
L 34.677274 526.464367 
L 33.486974 525.930249 
L 30.147848 524.970911 
L 28.808269 524.836085 
L 28.152229 524.607918 
L 26.317674 524.447164 
L 25.009523 524.514577 
L 22.699633 524.846456 
L 22.291081 524.96054 
L 21.886458 524.981282 
L 21.552545 524.986468 
L 20.935789 525.064252 
L 20.063688 525.354646 
L 20.016547 525.84728 
L 20.393672 526.536966 
L 20.574378 526.604379 
L 21.344341 526.31917 
L 21.324699 526.313985 
L 21.25006 526.101375 
L 21.411123 526.256943 
L 21.874673 526.718462 
L 21.422909 526.225829 
L 21.56433 526.262129 
L 21.823604 526.236201 
L 22.715347 526.049518 
L 23.36353 526.137674 
L 24.565615 525.992477 
L 24.824889 525.759124 
L 25.284509 524.571619 
L 25.135231 524.524949 
L 25.147016 524.270854 
L 25.539854 523.918232 
L 26.093756 523.721179 
L 27.362624 523.866376 
L 28.038306 523.913046 
L 29.896432 523.695251 
L 33.506616 523.575982 
L 33.742319 523.64858 
L 33.832672 523.596724 
L 34.036948 522.808511 
L 34.146942 522.196609 
L 34.665489 520.998732 
L 34.865837 520.324603 
L 34.893335 520.029023 
L 35.050471 519.546761 
L 35.081898 518.960787 
L 35.093683 518.680764 
L 35.451166 517.705869 
L 35.56116 517.37399 
L 35.494378 517.104338 
L 37.065731 515.330859 
L 38.130323 514.272994 
L 38.531018 513.749247 
L 38.165679 512.945477 
L 39.485616 512.172821 
L 40.184868 510.819376 
L 40.365573 510.420084 
L 40.789839 510.072648 
L 41.964425 509.75114 
L 42.259054 509.253321 
L 42.577253 509.092567 
L 42.647964 508.921442 
L 42.85224 508.802173 
L 43.594705 507.84802 
L 43.79898 507.122035 
L 43.669344 506.100469 
L 44.085752 505.85156 
L 44.50609 505.478196 
L 44.557158 505.301885 
L 44.761434 505.099646 
L 44.946068 504.658869 
L 45.146416 504.508486 
L 45.319265 503.917327 
L 45.213199 502.755749 
L 44.777148 502.003836 
L 44.977496 501.402305 
L 45.107132 500.790403 
L 45.716032 499.986633 
L 46.246363 499.494 
L 46.894547 498.337608 
L 47.601656 497.559766 
L 47.872714 496.761182 
L 48.135916 496.584871 
L 48.147701 496.201136 
L 48.784099 495.962598 
L 48.898022 496.076681 
L 48.662319 495.552934 
L 48.713388 495.184756 
L 48.862667 494.852877 
L 49.090513 494.266903 
L 49.416569 493.966137 
L 49.742625 493.349049 
L 50.214031 492.540094 
L 50.563657 491.155535 
L 50.983994 490.880698 
L 51.152914 490.486591 
L 51.907164 489.522068 
L 52.119297 489.28353 
L 52.292145 488.868681 
L 52.9364 488.531616 
L 53.549228 486.903334 
L 53.875284 486.203276 
L 57.120129 481.297687 
L 57.827238 479.052317 
L 58.263288 476.879546 
L 58.239718 476.298757 
L 58.412567 475.5624 
L 58.77005 474.380081 
L 59.701077 473.446671 
L 59.842498 472.979965 
L 61.987396 470.397531 
L 62.144531 470.00861 
L 63.14234 468.665536 
L 63.87302 467.094296 
L 66.697527 463.163602 
L 67.062867 462.489472 
L 67.514631 461.836085 
L 67.848544 461.068615 
L 68.096032 460.788592 
L 68.44173 460.104091 
L 68.850282 459.730727 
L 69.117412 459.481817 
L 69.41204 458.776574 
L 69.620245 457.863906 
L 70.02094 457.12755 
L 70.712335 456.655659 
L 70.936253 456.261552 
L 71.274094 455.971158 
L 71.934063 454.648827 
L 72.079413 454.213236 
L 72.3544 453.917656 
L 74.691788 449.37506 
L 75.178907 448.768343 
L 75.677812 447.575652 
L 78.651598 443.427163 
L 78.899086 442.903416 
L 79.138718 442.773776 
L 80.171883 443.136768 
L 80.446869 443.32345 
L 80.604005 443.644958 
L 83.746711 446.512602 
L 84.057054 446.631871 
L 87.286185 449.364688 
L 88.48827 450.775175 
L 88.700403 451.132982 
L 89.639287 451.890081 
L 89.894631 452.299745 
L 90.318897 452.958318 
L 91.014221 453.202041 
L 91.422773 453.606519 
L 91.996317 454.109523 
L 92.389155 454.187308 
L 92.950914 454.073224 
L 93.438033 453.658375 
L 93.972293 452.942761 
L 95.00153 451.563388 
L 95.688997 450.401811 
L 96.584668 449.354317 
L 98.207091 446.134052 
L 98.749208 445.299169 
L 101.990124 440.658046 
L 102.390819 439.626109 
L 102.701161 439.190518 
L 102.724732 438.599358 
L 103.325774 437.339254 
L 103.050788 436.774023 
L 103.090071 436.359174 
L 103.380772 435.721343 
L 103.624332 434.964244 
L 104.861772 431.137262 
L 105.415674 429.343041 
L 105.651377 429.057832 
L 105.824226 428.648169 
L 105.784942 428.259248 
L 106.091356 427.294724 
L 106.880961 426.03462 
L 107.108808 425.583472 
L 107.155948 425.23085 
L 107.324869 424.878229 
L 108.271609 423.457371 
L 108.503384 422.803984 
L 109.088713 421.896502 
L 109.38727 421.2846 
L 111.029334 418.717722 
L 111.162899 418.582896 
L 111.33182 418.57771 
L 111.532167 418.204346 
L 111.701088 418.028035 
L 111.771799 417.893209 
L 112.416054 417.120553 
L 112.573189 416.716075 
L 112.985669 416.098988 
L 113.535643 414.885554 
L 115.51162 411.976426 
L 116.096949 410.809663 
L 116.316938 409.922924 
L 116.96905 408.782089 
L 117.377602 407.630883 
L 118.618971 405.629237 
L 119.32608 404.182451 
L 120.264964 402.388229 
L 120.559592 401.620759 
L 122.04845 399.038324 
L 122.480572 398.307153 
L 122.881267 397.544868 
L 123.784795 396.015112 
L 125.493642 393.448234 
L 125.682204 393.033385 
L 126.625016 391.991077 
L 127.021783 391.856252 
L 127.457834 391.358433 
L 128.436001 390.087958 
L 128.938834 389.09232 
L 129.272747 388.874525 
L 129.893431 387.9463 
L 130.01914 387.609235 
L 130.824458 386.950663 
L 131.001236 386.178006 
L 130.793031 385.566104 
L 130.918739 384.788262 
L 131.119087 384.435641 
L 131.229082 383.206651 
L 131.374432 382.771059 
L 131.578708 381.464285 
L 131.924406 380.318265 
L 132.321172 378.140308 
L 132.419382 377.222455 
L 132.647228 375.874195 
L 132.686512 375.008198 
L 132.552947 373.265833 
L 132.66687 371.974615 
L 132.694369 370.766368 
L 132.749366 370.372261 
L 132.281889 367.877982 
L 132.077613 367.540917 
L 132.081541 366.057832 
L 132.199392 365.855593 
L 132.187607 365.554828 
L 132.52152 365.321475 
L 133.42112 363.579109 
L 135.035685 360.374401 
L 135.310672 359.290608 
L 134.831409 358.818718 
L 134.120372 358.243115 
L 134.069303 357.926792 
L 133.07935 357.273405 
L 132.737581 357.008939 
L 132.446881 357.071166 
L 131.456928 356.505935 
L 130.94231 355.966631 
L 128.864195 354.877652 
L 127.756391 354.270936 
L 126.196823 353.254556 
L 125.658634 353.016018 
L 124.346554 352.217434 
L 124.095137 352.18632 
L 123.494095 351.67813 
L 123.065901 351.652202 
L 120.669587 350.371356 
L 120.009619 349.686855 
L 119.711062 349.510544 
L 119.549998 349.189036 
L 118.615043 348.400823 
L 117.966859 348.094872 
L 117.38153 347.887448 
L 117.047618 347.74225 
L 116.595854 347.218504 
L 116.081235 347.171833 
L 115.008787 346.368063 
L 114.388102 346.17101 
L 113.963837 345.808017 
L 113.680993 345.543551 
L 112.801035 345.28427 
L 111.98786 345.175372 
L 111.100045 344.64644 
L 110.848629 344.371603 
L 110.758276 344.060466 
L 110.817202 343.733772 
L 111.375032 343.370779 
L 113.783131 339.066722 
L 114.262394 338.522232 
L 114.729871 337.40214 
L 115.715896 336.033139 
L 115.444837 335.701259 
L 115.770893 335.224183 
L 116.210872 334.902675 
L 118.383268 330.977167 
L 118.897886 330.043757 
L 119.310366 329.39037 
L 121.058497 326.709408 
L 121.522046 324.977414 
L 123.124827 322.369051 
L 123.659087 320.673356 
L 124.503689 319.319911 
L 124.64904 318.967289 
L 124.959382 318.723566 
L 125.74113 317.354564 
L 126.13004 316.732291 
L 126.511093 316.530052 
L 127.359624 315.249206 
L 127.866386 313.517211 
L 128.157086 313.154218 
L 128.459571 312.397119 
L 129.323816 310.950333 
L 129.77558 310.224348 
L 130.156633 309.456877 
L 130.745891 308.243444 
L 132.352599 305.603967 
L 133.271841 303.534908 
L 133.668608 302.845222 
L 133.947523 302.181463 
L 134.132157 301.818471 
L 134.253937 301.00433 
L 134.737128 300.335386 
L 135.53459 299.754597 
L 136.442047 298.287069 
L 136.614895 298.012231 
L 137.168797 297.607754 
L 137.608776 296.783241 
L 138.044827 296.715828 
L 138.394453 296.451362 
L 140.111157 292.188789 
L 140.472568 291.322792 
L 140.303647 290.742003 
L 140.598276 289.798222 
L 140.845764 288.875183 
L 141.242531 288.050671 
L 141.70608 286.883908 
L 142.36212 286.116438 
L 142.82567 285.447494 
L 143.198866 284.799292 
L 143.485638 284.493341 
L 144.047397 284.208132 
L 144.094537 283.772541 
L 144.165248 283.508075 
L 144.180962 283.404362 
L 145.029493 281.542728 
L 145.379119 281.439016 
L 145.819098 280.764886 
L 146.046944 280.324109 
L 146.263005 280.158169 
L 146.408355 279.82629 
L 147.021183 279.136604 
L 147.508303 278.358762 
L 147.877571 277.995769 
L 148.258624 277.601663 
L 148.301836 277.269784 
L 148.592536 276.554169 
L 148.757529 275.874854 
L 149.370356 274.718462 
L 149.613916 274.371026 
L 149.743553 274.231015 
L 149.6532 273.925064 
L 150.544943 272.659774 
L 150.906354 271.560425 
L 151.578108 270.492189 
L 151.978803 269.719532 
L 153.15339 267.593432 
L 153.648366 267.360079 
L 154.060846 266.60298 
L 154.960446 264.642818 
L 155.078297 264.19167 
L 155.482921 263.486427 
L 155.585059 263.087135 
L 156.370736 261.624792 
L 157.341046 259.659445 
L 157.64746 259.607589 
L 157.985301 259.312009 
L 158.535275 258.051906 
L 158.767049 257.631871 
L 159.32488 256.921442 
L 160.083058 255.194633 
L 160.574106 254.370121 
L 160.955159 253.415968 
L 161.245859 252.435888 
L 162.298666 250.714265 
L 162.408661 250.169775 
L 162.978277 249.314149 
L 163.198266 248.334069 
L 163.822879 247.006552 
L 164.59677 246.389464 
L 165.174243 244.641913 
L 165.292094 244.211507 
L 165.543511 244.014454 
L 167.688408 241.063841 
L 168.022321 240.763075 
L 168.650862 239.611869 
L 169.051557 238.828842 
L 169.986513 236.842752 
L 170.434348 236.116767 
L 170.595412 235.727846 
L 171.043248 235.551535 
L 171.546081 234.882591 
L 171.801426 234.130677 
L 173.015296 231.667512 
L 173.07815 231.729739 
L 173.29814 231.786781 
L 173.958108 231.413417 
L 174.763427 230.900041 
L 174.85378 230.262211 
L 174.975559 230.049601 
L 175.030557 229.214717 
L 175.953727 227.176772 
L 176.110862 226.933048 
L 176.401563 225.828513 
L 177.045818 224.832875 
L 177.383658 223.225335 
L 177.572221 222.976426 
L 177.756855 222.473422 
L 178.055412 222.146728 
L 177.882563 221.960046 
L 178.267545 221.477784 
L 178.251831 219.906544 
L 178.503248 219.325755 
L 178.982511 218.874607 
L 180.353516 216.847033 
L 180.608861 216.141789 
L 182.455201 213.56454 
L 183.421584 211.599193 
L 183.849778 211.412511 
L 184.148335 211.101375 
L 184.835802 208.643395 
L 185.051863 208.254474 
L 185.601837 207.808511 
L 185.672547 207.118825 
L 185.236497 206.009104 
L 184.395823 205.111993 
L 184.372253 204.873455 
L 184.250473 204.873455 
L 184.277971 204.982352 
L 184.002985 204.723072 
L 183.94013 204.780114 
L 183.724069 204.686773 
L 183.790852 204.655659 
L 183.873348 204.629731 
L 182.800899 203.385184 
L 182.290209 202.576228 
L 182.431631 201.943584 
L 182.573053 201.549477 
L 183.244807 200.761264 
L 184.301542 200.019722 
L 185.05972 199.542645 
L 186.12824 198.038818 
L 186.854991 196.379422 
L 186.874633 196.089028 
L 187.931368 193.594749 
L 189.180594 191.691629 
L 189.832706 190.068532 
L 190.59874 188.974368 
L 192.904701 186.609729 
L 193.576455 186.14821 
L 194.299277 185.925228 
L 195.843132 185.707433 
L 196.892011 186.080797 
L 198.149093 186.708256 
L 199.076192 187.330529 
L 199.787229 187.574253 
L 200.950031 187.667594 
L 201.653211 187.652037 
L 202.784586 187.257931 
L 204.462005 186.189695 
L 205.298751 185.209614 
L 205.919436 184.182863 
L 206.351558 183.09907 
L 206.728683 181.947864 
L 207.663638 180.589234 
L 208.292179 179.982517 
L 209.325344 179.209861 
L 210.790631 178.349049 
L 211.077403 178.069026 
L 212.193064 177.327484 
L 213.363722 175.999967 
L 213.97655 174.848761 
L 214.65616 173.080468 
L 214.880078 172.670804 
L 215.296487 170.674344 
L 215.268988 169.704634 
L 214.958646 168.734925 
L 213.897982 165.877652 
L 213.949051 164.752375 
L 214.271179 163.201877 
L 215.469336 161.57878 
L 216.694991 160.100881 
L 218.5924 158.674837 
L 220.540879 157.508075 
L 221.185134 156.942843 
L 221.46012 156.030175 
L 221.499404 155.247148 
L 221.279415 153.701836 
L 221.326555 152.986221 
L 221.471906 152.343205 
L 221.597614 151.809087 
L 222.135802 150.854935 
L 222.395076 149.859297 
L 222.662206 149.314808 
L 222.752559 148.547337 
L 222.803628 147.89395 
L 223.467524 145.617466 
L 223.81715 144.642571 
L 224.268915 143.735089 
L 225.549568 141.500091 
L 226.873433 139.871808 
L 228.700131 137.989431 
L 230.228272 135.868516 
L 230.793959 134.712124 
L 232.318172 131.102939 
L 232.675655 130.371767 
L 234.36486 127.804889 
L 235.979425 126.472187 
L 239.679963 125.196526 
L 240.049231 125.134299 
L 242.154844 125.528406 
L 243.840121 125.756573 
L 245.061848 125.621747 
L 245.843596 125.31061 
L 246.82962 124.522397 
L 248.090632 122.868187 
L 249.972327 119.927945 
L 252.266503 115.6913 
L 252.694697 114.980871 
L 254.163912 111.988773 
L 254.497825 111.314643 
L 255.813833 109.188542 
L 257.01199 106.943172 
L 257.412685 106.186073 
L 258.826903 103.588081 
L 259.376877 102.830982 
L 260.551464 100.461157 
L 261.297857 98.884731 
L 261.694623 97.5624 
L 261.812475 95.861519 
L 261.82426 94.89181 
L 261.682838 94.425105 
L 261.788905 93.009433 
L 262.283881 89.804725 
L 262.224955 88.928356 
L 261.769263 87.657881 
L 260.551464 85.687349 
L 260.327546 84.816166 
L 260.319689 83.919055 
L 260.861806 81.938151 
L 261.325355 81.015112 
L 261.796761 80.014289 
L 262.888852 78.105984 
L 264.200932 76.368804 
L 265.186956 75.186484 
L 265.90585 74.460499 
L 267.245429 72.956671 
L 268.671432 71.540999 
L 269.26069 70.690559 
L 269.677098 69.793448 
L 269.838162 68.828924 
L 269.684955 67.874772 
L 269.409968 66.407243 
L 269.394255 65.44272 
L 270.109221 60.95198 
L 270.686693 58.841436 
L 271.362375 57.793942 
L 272.210906 56.896831 
L 273.900111 55.673027 
L 275.388968 54.682575 
L 276.04108 53.572854 
L 276.080363 52.644629 
L 275.781806 51.726776 
L 274.99613 51.037089 
L 274.505082 50.814108 
L 273.452275 50.74151 
L 271.924134 51.208215 
L 271.048104 51.706033 
L 270.144576 52.421648 
L 269.123196 52.909095 
L 268.632148 52.98688 
L 268.086103 52.82094 
L 267.261143 52.157182 
L 266.990084 51.63862 
L 266.872233 50.570384 
L 266.970442 50.088122 
L 267.418278 49.175455 
L 268.695003 47.645699 
L 269.657456 46.582649 
L 270.282069 45.773693 
L 271.000964 44.435805 
L 271.7395 42.651955 
L 272.049842 41.785958 
L 272.313044 39.654671 
L 272.069484 38.871644 
L 271.480226 37.844893 
L 269.221406 35.635822 
L 268.251095 34.966878 
L 267.516488 34.655741 
L 266.884018 34.240892 
L 264.923754 33.58232 
L 263.953444 33.369709 
L 262.633507 33.208955 
L 260.763596 32.77855 
L 260.280405 32.643724 
L 260.005418 32.648909 
L 259.262954 32.4 
L 258.406566 32.508898 
L 257.302691 33.146728 
L 256.811643 33.675661 
L 256.371664 34.214964 
L 256.11239 34.531287 
L 255.790263 35.220973 
L 255.680268 35.739534 
L 255.79812 36.787028 
L 255.951327 37.305589 
L 256.147746 37.466343 
L 256.375592 37.839707 
L 256.811643 38.270113 
L 257.907662 38.788674 
L 258.599057 39.094625 
L 259.141174 39.286493 
L 260.107556 39.882838 
L 260.995371 41.189612 
L 261.113223 41.76003 
L 261.301785 42.257848 
L 261.745692 45.130677 
L 262.142459 46.406338 
L 262.130674 47.754597 
L 261.714265 49.636974 
L 261.246788 50.440744 
L 260.724313 51.208215 
L 259.83257 52.063841 
L 258.139436 53.090592 
L 255.185292 54.335139 
L 254.171769 55.055939 
L 253.511801 55.921936 
L 252.997182 56.922759 
L 252.502206 58.789579 
L 251.516182 60.06524 
L 251.052633 60.329706 
L 250.820858 60.366005 
L 250.463375 60.666771 
L 249.791622 61.009021 
L 249.147367 61.242374 
L 248.467756 61.517211 
L 248.153486 61.501654 
L 246.935687 61.96836 
L 246.39357 62.35728 
L 245.34862 62.906955 
L 244.932211 63.441073 
L 244.229031 64.104832 
L 243.239078 65.468648 
L 242.649821 66.37613 
L 240.430284 71.359503 
L 240.116013 72.194386 
L 239.848883 72.744061 
L 239.479615 73.62043 
L 238.646798 74.947946 
L 236.796529 76.545115 
L 234.930547 77.825961 
L 234.015234 78.883826 
L 233.689178 79.500914 
L 233.363122 80.895843 
L 233.304196 81.974451 
L 233.378836 82.622652 
L 233.374907 83.317524 
L 233.422048 83.981282 
L 233.213844 85.376212 
L 232.754223 86.314808 
L 232.416382 86.88004 
L 231.744628 87.548983 
L 230.927524 88.103844 
L 229.866861 88.49795 
L 228.778699 88.949099 
L 227.525544 89.498774 
L 224.96031 91.178912 
L 223.62466 92.589398 
L 223.086471 93.102774 
L 222.615065 93.79246 
L 222.320436 94.124339 
L 221.888314 95.005893 
L 221.554402 95.405186 
L 220.407314 98.127632 
L 220.140184 99.144012 
L 220.238393 101.996098 
L 220.371958 102.872467 
L 221.660468 106.616479 
L 221.797961 107.606931 
L 221.735107 108.768508 
L 221.389409 110.075282 
L 220.705871 111.325014 
L 219.260226 113.591127 
L 218.584544 114.270442 
L 216.2118 116.718051 
L 215.210062 117.39218 
L 214.605091 117.827772 
L 214.169041 118.310034 
L 213.670136 119.072319 
L 213.473717 119.020463 
L 213.395149 118.631542 
L 213.677993 118.076681 
L 213.980478 117.075858 
L 214.043332 116.438028 
L 214.247608 116.059478 
L 214.34189 115.167553 
L 214.349746 114.389711 
L 213.536571 111.594666 
L 212.813748 110.785711 
L 207.262943 107.197267 
L 207.05081 106.958729 
L 206.748324 106.818718 
L 206.288704 106.346827 
L 205.73873 106.056433 
L 205.235897 105.543057 
L 204.422722 105.117837 
L 204.42665 105.18525 
L 204.379509 105.216363 
L 204.485576 105.097094 
L 204.442363 105.05561 
" style="fill:none;stroke:#000000;stroke-width:3;"/>
   </g>
  </g>
 </g>
 <defs>
  <clipPath id="p2042e5664d">
   <rect height="554.4" width="281.704767" x="7.2" y="7.2"/>
  </clipPath>
 </defs>
</svg>
