<?xml version="1.0" encoding="utf-8" standalone="no"?>
<!DOCTYPE svg PUBLIC "-//W3C//DTD SVG 1.1//EN"
  "http://www.w3.org/Graphics/SVG/1.1/DTD/svg11.dtd">
<svg height="568.8pt" version="1.1" viewBox="0 0 299.769729 568.8" width="299.769729pt" xmlns="http://www.w3.org/2000/svg" xmlns:xlink="http://www.w3.org/1999/xlink">
 <metadata>
  <rdf:RDF xmlns:cc="http://creativecommons.org/ns#" xmlns:dc="http://purl.org/dc/elements/1.1/" xmlns:rdf="http://www.w3.org/1999/02/22-rdf-syntax-ns#">
   <cc:Work>
    <dc:type rdf:resource="http://purl.org/dc/dcmitype/StillImage"/>
    <dc:date>2021-06-15T02:10:40.181010</dc:date>
    <dc:format>image/svg+xml</dc:format>
    <dc:creator>
     <cc:Agent>
      <dc:title>Matplotlib v3.4.2, https://matplotlib.org/</dc:title>
     </cc:Agent>
    </dc:creator>
   </cc:Work>
  </rdf:RDF>
 </metadata>
 <defs>
  <style type="text/css">*{stroke-linecap:butt;stroke-linejoin:round;}</style>
 </defs>
 <g id="figure_1">
  <g id="patch_1">
   <path d="M 0 568.8 
L 299.769729 568.8 
L 299.769729 0 
L 0 0 
z
" style="fill:#ffffff;"/>
  </g>
  <g id="axes_1">
   <g id="LineCollection_1">
    <path clip-path="url(#p999247016d)" d="M 205.944871 106.32063 
L 206.430428 106.677887 
L 206.358789 106.877531 
L 206.299089 106.824993 
L 205.646372 106.226062 
L 203.775782 105.196322 
L 203.298184 105.128023 
L 203.150925 104.949395 
L 202.884266 104.854827 
L 202.589748 104.902111 
L 202.21165 105.369697 
L 201.905191 106.15251 
L 201.745992 106.756694 
L 201.566893 106.956337 
L 201.244515 107.718135 
L 200.886316 108.21199 
L 200.436579 108.6428 
L 198.725187 111.931663 
L 198.30331 112.966657 
L 197.773972 113.796754 
L 197.666513 114.096219 
L 197.435674 114.285355 
L 197.180955 114.910554 
L 196.635698 115.882503 
L 195.497424 118.068074 
L 195.525284 118.031297 
L 195.290465 118.3833 
L 195.111366 118.751065 
L 194.713368 119.5654 
L 193.996971 120.411258 
L 193.185055 122.13975 
L 192.19802 123.862989 
L 191.855742 124.172962 
L 191.398044 124.30956 
L 190.880647 125.118642 
L 189.615014 127.656215 
L 189.125476 128.297176 
L 188.822998 128.544104 
L 188.584199 128.959152 
L 188.30162 129.841786 
L 185.495734 135.883629 
L 183.859963 138.704907 
L 183.358485 139.46145 
L 181.957532 141.935979 
L 181.834153 142.42458 
L 181.396355 143.238915 
L 180.831198 144.505076 
L 176.962658 151.298208 
L 176.305961 152.627413 
L 170.936968 162.184032 
L 170.62255 162.562304 
L 169.484275 164.669068 
L 168.974838 165.52018 
L 168.194762 167.374763 
L 167.148027 169.045464 
L 165.731154 171.677606 
L 164.278462 174.288733 
L 164.182942 178.880533 
L 164.326222 179.736898 
L 164.481441 180.062633 
L 164.449601 181.286762 
L 164.425721 182.011783 
L 164.099363 183.59317 
L 164.234682 183.840098 
L 164.198862 184.30243 
L 164.143142 186.393433 
L 164.127223 186.755943 
L 164.250602 187.07117 
L 164.087423 188.694587 
L 164.318262 189.356563 
L 164.318262 190.528155 
L 164.178962 191.226907 
L 164.370001 192.083272 
L 164.64064 194.048185 
L 164.465521 195.929036 
L 164.298362 196.307308 
L 164.103343 196.422891 
L 163.860564 196.848447 
L 163.749124 197.63126 
L 164.139162 198.734553 
L 164.5889 199.386021 
L 166.061493 200.310686 
L 166.507251 200.767764 
L 166.730129 201.403471 
L 166.447551 202.343897 
L 165.997813 203.568027 
L 165.950053 204.377109 
L 165.822694 204.860456 
L 165.567975 206.825368 
L 165.257537 208.601145 
L 165.301317 209.557332 
L 165.118238 210.418951 
L 164.931178 211.054658 
L 164.529201 211.932039 
L 164.521241 212.26828 
L 164.083443 213.45038 
L 163.852604 214.648241 
L 163.414806 215.010751 
L 163.223767 215.783057 
L 163.183967 216.229628 
L 163.359086 217.159546 
L 163.315307 218.047434 
L 163.335207 218.483498 
L 163.179987 218.940576 
L 163.072528 220.952772 
L 162.845669 221.1997 
L 162.75015 221.530688 
L 162.455631 221.830153 
L 161.783014 223.280195 
L 161.826794 223.663721 
L 161.488496 225.171555 
L 161.221837 226.710911 
L 160.298482 228.36585 
L 160.055703 229.595234 
L 159.777105 229.852669 
L 159.422886 230.603959 
L 158.75027 231.260681 
L 158.181133 232.363974 
L 157.484636 233.309654 
L 157.178178 233.924346 
L 156.871719 234.701904 
L 156.6568 235.568778 
L 155.932444 238.00653 
L 155.677725 238.279726 
L 155.136448 240.034487 
L 154.591191 240.917122 
L 154.551391 241.894324 
L 154.073793 243.023886 
L 154.113593 243.381143 
L 153.990214 243.717384 
L 154.022054 243.969566 
L 154.296672 244.389868 
L 154.75437 244.368853 
L 154.627011 244.505451 
L 154.65885 244.642049 
L 154.141453 245.508922 
L 153.850915 246.522901 
L 153.536496 247.410789 
L 153.114618 248.298677 
L 152.82408 248.69271 
L 152.485781 250.121737 
L 152.449962 250.683892 
L 151.765405 251.414166 
L 151.359447 252.21274 
L 149.811235 255.428051 
L 149.309758 255.995459 
L 149.186378 256.436776 
L 148.8839 256.468299 
L 148.541621 257.697683 
L 148.525702 258.396435 
L 148.513762 258.716915 
L 147.964524 259.441936 
L 147.586426 259.730894 
L 147.212308 259.856985 
L 146.507852 260.419139 
L 146.181493 260.513707 
L 145.632256 261.396341 
L 145.258138 261.916465 
L 145.138739 262.084586 
L 145.202418 262.877906 
L 144.9278 263.392776 
L 144.740741 263.48209 
L 144.306923 264.243888 
L 143.912905 264.968909 
L 143.491027 265.341927 
L 143.093029 265.515302 
L 142.500012 265.961873 
L 142.153754 266.629102 
L 141.138859 268.016099 
L 140.99956 268.431147 
L 140.645341 268.851449 
L 140.641361 269.292767 
L 140.93986 269.539694 
L 140.625442 270.43809 
L 140.386643 271.215649 
L 140.346843 271.462576 
L 139.077229 272.896857 
L 138.504112 274.304869 
L 138.118054 275.166488 
L 137.449418 275.634074 
L 136.856401 276.054377 
L 136.784761 276.616531 
L 136.565862 277.252238 
L 136.454423 277.7566 
L 136.191744 278.192663 
L 135.670367 279.616437 
L 135.284309 280.057754 
L 135.137049 280.777521 
L 134.452493 282.201295 
L 134.309214 282.926316 
L 134.122154 283.288826 
L 133.377898 284.076893 
L 132.824681 285.453382 
L 127.296489 294.936448 
L 126.631832 295.393527 
L 125.473658 295.451318 
L 125.457738 295.897889 
L 125.573158 296.586134 
L 125.230879 297.741965 
L 124.705522 298.530031 
L 124.040865 299.202514 
L 123.603068 300.037865 
L 123.503568 300.600019 
L 123.11751 301.508922 
L 122.616033 302.423079 
L 119.917606 307.083179 
L 119.782287 307.603302 
L 119.13753 309.095375 
L 118.711672 309.993771 
L 117.31868 312.084773 
L 116.968441 312.962154 
L 116.518704 313.760728 
L 116.411244 314.249329 
L 116.068966 315.037396 
L 114.974471 317.543447 
L 114.644133 317.947988 
L 114.210315 318.767577 
L 113.561579 319.39803 
L 113.2193 319.639704 
L 112.928762 319.991707 
L 112.701903 320.821803 
L 112.431264 321.200075 
L 112.049186 322.024918 
L 111.647208 322.812984 
L 111.31289 323.595797 
L 110.998472 323.942546 
L 105.728978 334.140126 
L 105.227501 334.891416 
L 104.582744 336.047246 
L 103.30915 338.50076 
L 102.616634 339.703875 
L 99.134152 346.560053 
L 98.624714 347.40591 
L 98.413775 347.815705 
L 98.067517 348.136185 
L 97.323261 349.822648 
L 96.336226 351.540632 
L 95.667589 352.801539 
L 95.595949 353.122019 
L 95.822808 353.726203 
L 101.37488 356.248016 
L 101.995757 356.584257 
L 102.680314 356.815424 
L 103.579789 357.240979 
L 104.133006 357.430115 
L 105.740918 358.670007 
L 105.844398 358.979979 
L 105.820518 358.979979 
L 105.756838 359.043025 
L 105.927977 358.969472 
L 105.904097 359.053532 
L 105.892157 359.02201 
L 106.186676 359.274191 
L 107.066251 359.731269 
L 107.43241 359.836345 
L 108.546804 360.587635 
L 110.174616 361.239103 
L 110.504954 361.312656 
L 110.684053 361.55433 
L 111.683028 362.158514 
L 112.638223 362.641861 
L 115.17347 364.08665 
L 115.742607 364.417638 
L 118.667893 365.95174 
L 119.042011 366.503387 
L 119.27683 366.713538 
L 121.756357 367.958683 
L 122.353354 368.242387 
L 122.970251 368.468299 
L 123.248849 368.699465 
L 124.196085 369.025199 
L 127.372109 371.089933 
L 128.092485 371.426175 
L 130.070535 372.750127 
L 130.030735 373.990018 
L 129.887456 374.331513 
L 129.823776 375.87087 
L 129.696417 376.658936 
L 129.505378 377.404972 
L 129.238719 379.727141 
L 129.194939 381.203452 
L 129.0636 381.523933 
L 128.920321 383.572906 
L 128.263624 387.465954 
L 127.415888 389.809138 
L 127.212909 390.108603 
L 126.572133 391.611183 
L 125.792057 392.598893 
L 125.684597 393.050718 
L 125.19108 393.759977 
L 124.781142 394.332639 
L 124.562243 395.136467 
L 124.104545 395.562023 
L 123.423969 396.47618 
L 122.779212 397.616249 
L 122.301614 398.120612 
L 121.923516 398.719542 
L 120.669823 400.180092 
L 119.587268 402.087213 
L 118.381334 403.095938 
L 118.174375 403.983826 
L 117.724637 404.777146 
L 117.350519 405.286762 
L 117.31072 405.433868 
L 117.394299 405.601989 
L 116.968441 406.011783 
L 114.063056 410.015161 
L 113.33074 411.785683 
L 113.016321 411.980073 
L 112.120826 413.04659 
L 111.499949 413.298771 
L 110.329835 415.804822 
L 110.206456 416.162079 
L 109.760698 416.745248 
L 109.565679 417.128774 
L 109.25922 417.475523 
L 109.028381 418.226813 
L 108.411485 419.272314 
L 108.164726 420.018351 
L 107.555789 421.048091 
L 107.38067 421.463139 
L 106.501094 422.366789 
L 106.226476 422.661 
L 104.793683 425.424486 
L 104.730003 425.871057 
L 103.731028 427.888507 
L 103.31711 428.193226 
L 103.161891 428.571498 
L 102.230576 429.617 
L 101.995757 430.074078 
L 101.351 430.799099 
L 100.849523 430.998743 
L 100.320186 431.828839 
L 99.42071 433.378703 
L 98.891373 435.070419 
L 98.580934 435.375138 
L 96.901383 438.558927 
L 96.077527 439.283948 
L 95.898428 439.961685 
L 95.45267 440.639422 
L 94.433795 441.107008 
L 93.60596 441.994896 
L 93.223882 442.257585 
L 93.036822 442.457229 
L 92.881603 442.814485 
L 92.415946 443.402908 
L 91.954268 444.401126 
L 91.210012 445.709316 
L 90.875693 446.281978 
L 90.234917 447.201388 
L 89.001123 449.155793 
L 88.531485 449.765231 
L 88.368306 450.196041 
L 88.069808 450.437715 
L 87.779269 451.167989 
L 86.629055 453.101379 
L 85.462921 454.81411 
L 82.732655 459.421672 
L 82.028198 460.188723 
L 81.65806 460.876968 
L 80.491926 462.705282 
L 80.352627 463.0783 
L 79.588471 463.945173 
L 79.425291 464.349714 
L 78.267117 465.710442 
L 77.80146 465.9994 
L 77.307942 467.02914 
L 76.472146 468.494943 
L 76.153748 468.962529 
L 75.82341 469.466892 
L 75.107013 470.444094 
L 74.462256 470.859143 
L 74.167738 471.079801 
L 73.606561 472.014973 
L 73.419502 472.792532 
L 73.172743 473.585852 
L 72.914044 473.906333 
L 72.587686 474.58407 
L 71.76781 476.202233 
L 71.417572 476.717103 
L 70.335017 478.592701 
L 70.068359 479.002496 
L 69.375842 480.300178 
L 68.563926 481.277381 
L 68.245528 481.865804 
L 67.533112 482.774707 
L 66.569956 483.96206 
L 65.292383 485.905957 
L 64.878465 486.384051 
L 64.735186 486.982982 
L 64.365048 487.623942 
L 63.97899 487.960184 
L 63.83969 488.42777 
L 63.688451 488.553861 
L 63.318313 488.74825 
L 63.159114 489.031954 
L 63.035734 489.215836 
L 62.784996 489.898827 
L 62.745196 490.277099 
L 62.080539 491.049404 
L 61.90144 491.065166 
L 61.618862 491.243794 
L 61.467622 491.333108 
L 61.459662 491.522244 
L 61.141264 491.86374 
L 60.954205 491.921531 
L 60.078609 492.930256 
L 59.97115 493.355812 
L 58.641837 494.653495 
L 57.841861 497.506295 
L 57.388143 498.43096 
L 57.236904 499.324102 
L 57.153324 499.576283 
L 56.667767 500.028108 
L 56.237929 500.464171 
L 55.656852 500.831935 
L 55.589192 501.115639 
L 55.410093 501.336298 
L 54.506638 501.819645 
L 54.478778 501.767108 
L 54.677777 502.082334 
L 54.645937 502.302993 
L 54.470818 502.439591 
L 54.144459 502.402815 
L 53.786261 502.749564 
L 53.388263 503.868618 
L 52.341528 504.619908 
L 51.573392 505.187316 
L 50.988335 506.132996 
L 50.323679 507.152228 
L 50.06498 506.894793 
L 49.798321 507.047153 
L 49.121725 508.124177 
L 48.731687 508.355343 
L 48.576468 508.954273 
L 48.234189 509.174932 
L 47.684952 509.889446 
L 47.529733 510.987485 
L 47.235214 511.912149 
L 46.590458 513.866554 
L 46.622297 514.197542 
L 46.391459 515.568778 
L 46.331759 517.081865 
L 45.734762 519.172868 
L 45.464123 519.477587 
L 45.113885 519.724514 
L 44.859166 520.060756 
L 44.620368 520.155324 
L 44.13879 520.139563 
L 44.05521 520.449536 
L 43.378614 521.132527 
L 42.805497 521.284886 
L 42.268199 521.657904 
L 41.985621 521.952116 
L 41.535883 522.104475 
L 41.281164 522.330387 
L 41.133905 522.614091 
L 41.074206 523.270813 
L 40.791627 523.82246 
L 40.401589 524.321569 
L 39.852352 524.731363 
L 39.199635 525.225218 
L 38.960836 525.393339 
L 38.837457 525.776865 
L 38.646418 526.144629 
L 38.654378 527.431804 
L 38.495179 528.28817 
L 38.976756 529.459762 
L 39.235455 529.654151 
L 40.16279 531.724139 
L 40.18269 532.102411 
L 39.927971 532.68558 
L 39.931951 533.295018 
L 40.19463 533.531438 
L 40.672228 534.603209 
L 40.445369 534.902674 
L 39.931951 534.771329 
L 39.016556 535.590918 
L 37.731022 536.4 
L 37.492224 536.4 
L 37.456404 536.189849 
L 36.986766 535.984952 
L 36.477329 536.126804 
L 36.18281 536.252894 
L 35.382834 536.20561 
L 35.223635 535.80107 
L 35.227615 535.717009 
L 36.115151 535.170616 
L 36.369869 534.377296 
L 36.469369 533.904456 
L 36.377829 533.442124 
L 36.548968 532.937762 
L 36.425589 532.543728 
L 36.15893 532.254771 
L 35.637553 531.89226 
L 35.390794 531.661094 
L 34.475399 531.387898 
L 32.015771 530.999118 
L 31.721253 530.867774 
L 29.225805 531.09894 
L 28.756168 531.009626 
L 26.809958 531.020133 
L 25.611984 531.209269 
L 25.114486 531.393151 
L 22.702619 531.703124 
L 21.468825 532.023604 
L 20.246971 532.275786 
L 20.171351 532.648804 
L 20.322591 533.016568 
L 20.776308 533.426363 
L 22.137461 533.111136 
L 22.694659 533.006061 
L 23.279716 533.042837 
L 23.801093 533.274003 
L 24.099591 533.704813 
L 23.980192 534.261713 
L 23.956312 534.839628 
L 24.127451 535.501604 
L 24.051832 535.501604 
L 24.589129 535.259931 
L 24.238891 535.322976 
L 24.131431 533.857172 
L 24.38615 533.43687 
L 25.261746 532.690834 
L 25.373185 532.12868 
L 25.333385 531.535003 
L 25.345325 531.33536 
L 25.763223 530.725922 
L 25.818943 530.589324 
L 26.117441 530.463233 
L 26.853738 530.400188 
L 27.928332 530.442218 
L 28.752188 530.316127 
L 29.687483 530.226813 
L 31.287435 530.105976 
L 32.871467 530.279351 
L 33.719203 530.232067 
L 34.27242 530.179529 
L 34.471419 530.016662 
L 34.801757 529.070982 
L 35.032596 528.183094 
L 35.904212 524.594765 
L 36.27833 524.006342 
L 37.062386 522.624599 
L 37.424564 522.551046 
L 39.227495 520.85933 
L 39.577733 520.297176 
L 39.955831 519.866366 
L 41.392604 518.022291 
L 41.758762 517.486406 
L 42.431379 516.482935 
L 42.709977 516.257022 
L 43.565673 516.172962 
L 44.09501 515.862989 
L 44.297989 515.595046 
L 44.365649 515.258805 
L 44.739767 514.76495 
L 44.922846 514.145004 
L 45.229304 513.919092 
L 45.388504 512.500572 
L 45.177565 511.512862 
L 45.364624 511.239666 
L 45.452183 510.488376 
L 45.977541 508.008594 
L 46.295939 507.787935 
L 46.526778 507.278319 
L 46.717817 506.936823 
L 47.024275 506.642612 
L 47.513813 505.696932 
L 48.596367 503.427301 
L 48.946606 502.387053 
L 49.380423 501.819645 
L 49.595342 501.488657 
L 49.659022 501.131401 
L 50.279899 500.44841 
L 50.888836 499.954555 
L 51.175394 499.681358 
L 51.135595 499.22428 
L 51.95945 498.005404 
L 52.07487 497.180561 
L 52.249989 496.881096 
L 52.735546 496.77602 
L 52.906686 496.450286 
L 53.615122 495.62019 
L 53.658902 494.811108 
L 53.686762 493.996773 
L 53.758401 493.187691 
L 54.387238 491.79544 
L 54.622057 491.159734 
L 55.529492 490.009157 
L 55.96331 488.94264 
L 56.532447 488.338456 
L 56.631947 487.986453 
L 57.041885 487.39803 
L 57.416003 486.762323 
L 57.694601 486.478619 
L 58.144339 485.501417 
L 58.729396 484.618782 
L 59.163214 483.520743 
L 60.381088 481.466517 
L 60.854705 480.862332 
L 61.758161 479.039272 
L 64.094409 475.020133 
L 64.599866 474.274097 
L 64.977964 473.433493 
L 67.636591 469.08862 
L 68.448507 467.990581 
L 69.83354 465.878563 
L 70.350937 465.353185 
L 70.908134 463.82959 
L 71.361852 463.225406 
L 71.69617 462.463608 
L 72.555846 461.218463 
L 74.179678 458.092466 
L 74.490116 457.787747 
L 76.149768 454.293986 
L 76.997504 452.854452 
L 78.995454 449.444751 
L 79.72379 448.499071 
L 80.169548 448.436026 
L 81.069023 449.339675 
L 81.526721 449.83353 
L 82.048098 450.316878 
L 82.549576 450.758195 
L 83.63213 451.583038 
L 83.767449 451.840473 
L 84.010228 452.008594 
L 84.137588 452.344835 
L 85.001243 453.07511 
L 85.220142 453.201201 
L 85.443021 453.164424 
L 85.805199 453.448128 
L 85.892759 453.406098 
L 85.884799 453.358814 
L 85.880819 453.316784 
L 85.976338 453.35356 
L 86.107678 453.421859 
L 86.585275 453.994521 
L 87.834989 455.040023 
L 88.595165 456.022479 
L 89.685679 456.758007 
L 90.115517 457.283385 
L 90.644855 457.740463 
L 91.357271 458.307871 
L 91.659749 458.265841 
L 92.185107 457.898077 
L 93.247761 456.479557 
L 93.741279 455.791313 
L 94.250716 455.234412 
L 94.358176 455.103068 
L 94.803934 455.166113 
L 95.241731 455.344742 
L 95.42083 455.418294 
L 96.029767 455.917403 
L 96.149167 456.027732 
L 96.519305 455.906896 
L 96.937203 455.460325 
L 99.277431 452.008594 
L 99.639609 451.604053 
L 100.129147 450.910554 
L 103.010652 447.432555 
L 103.098212 447.033268 
L 103.32507 446.539413 
L 103.731028 445.036833 
L 104.419565 443.881002 
L 104.857363 443.061413 
L 104.964822 441.506295 
L 105.263321 440.760259 
L 105.39466 440.276912 
L 105.983697 438.20167 
L 105.959817 437.860175 
L 106.779693 435.228033 
L 106.950832 434.975851 
L 107.149831 434.355906 
L 107.786628 432.306933 
L 108.284125 431.313969 
L 108.407505 430.951459 
L 108.853262 430.357782 
L 110.242275 428.11442 
L 112.928762 424.421015 
L 113.891917 422.308997 
L 114.715773 420.569997 
L 114.882932 420.165456 
L 115.129691 420.013097 
L 115.901807 418.662876 
L 116.837102 417.013191 
L 117.613198 415.726016 
L 117.903737 415.016756 
L 118.632073 413.68755 
L 118.950471 412.978291 
L 119.794227 411.638578 
L 121.684717 408.297176 
L 122.277734 407.362004 
L 122.727472 406.768327 
L 123.272729 405.743841 
L 123.961266 404.840191 
L 126.548253 401.02595 
L 127.395989 399.392026 
L 128.287504 398.441092 
L 129.843676 397.18544 
L 130.345154 395.388648 
L 130.763051 394.626851 
L 131.411788 394.033174 
L 131.758046 392.693461 
L 132.307284 390.544666 
L 132.466483 389.651525 
L 133.02368 387.18225 
L 133.282379 385.579848 
L 134.524132 379.122957 
L 134.563932 377.820021 
L 134.412693 377.236851 
L 134.536072 376.979416 
L 134.587812 375.828839 
L 133.879376 373.580223 
L 133.799776 372.19848 
L 133.986835 371.147725 
L 134.285334 370.469988 
L 135.252469 368.773018 
L 135.670367 368.126804 
L 135.897225 367.858861 
L 136.259404 366.597955 
L 136.346963 365.956994 
L 137.03948 364.034112 
L 136.936 363.692617 
L 136.398703 363.261807 
L 135.141029 362.552547 
L 133.803756 361.722451 
L 133.326158 361.433493 
L 131.523228 360.17784 
L 130.838671 359.904644 
L 128.112385 359.111324 
L 126.273634 358.07633 
L 125.815937 357.703312 
L 124.546323 356.873215 
L 124.048825 356.452913 
L 123.710527 356.368853 
L 122.468773 355.733146 
L 120.705642 354.776958 
L 120.088745 354.16752 
L 119.710647 353.994146 
L 118.437054 353.689427 
L 117.808217 353.153542 
L 117.477879 352.995928 
L 116.590343 352.165832 
L 115.702808 351.472333 
L 113.983456 350.631729 
L 113.489939 349.996022 
L 112.498924 349.134403 
L 112.578524 348.430397 
L 113.123781 347.510986 
L 113.792417 346.276349 
L 114.202355 345.509297 
L 114.795372 344.474303 
L 115.440129 343.423548 
L 115.754547 343.145098 
L 116.331645 342.005029 
L 118.285815 338.605835 
L 118.866892 337.439497 
L 119.14947 337.113763 
L 119.455929 336.33095 
L 119.885767 335.558645 
L 121.059861 333.320537 
L 121.493678 332.616531 
L 122.432954 330.772455 
L 122.866771 330.157763 
L 123.312529 328.986171 
L 126.568153 323.3909 
L 126.810931 323.091434 
L 127.17709 322.366413 
L 127.981046 320.989924 
L 128.705402 320.159827 
L 129.393938 319.082803 
L 130.277494 317.806136 
L 130.572012 317.527686 
L 131.674467 315.342115 
L 132.012765 315.021634 
L 132.171964 314.175776 
L 132.725182 313.061976 
L 132.808761 312.641674 
L 134.96989 309.216212 
L 135.208689 308.433399 
L 135.602707 307.745154 
L 137.393698 304.062257 
L 137.628517 303.810076 
L 137.978755 302.769828 
L 138.325013 301.92397 
L 138.472272 301.493161 
L 139.292148 300.332076 
L 139.936905 299.039647 
L 142.014454 294.56343 
L 142.356733 294.269219 
L 143.431327 292.346336 
L 143.853205 291.679107 
L 144.641241 290.84901 
L 145.182518 289.729956 
L 145.453157 289.078488 
L 145.859115 288.668693 
L 146.157614 288.542602 
L 147.037189 286.709035 
L 148.083924 285.069856 
L 148.219243 284.586509 
L 148.107804 284.581255 
L 147.956564 284.449911 
L 148.159543 284.19773 
L 148.73266 283.304588 
L 149.146578 282.978854 
L 149.600296 282.048935 
L 149.747555 281.765231 
L 149.950534 281.623379 
L 149.966454 281.407974 
L 149.926654 281.161047 
L 150.169433 280.556863 
L 150.523651 280.120799 
L 151.275868 279.101567 
L 151.646006 278.250455 
L 151.773365 277.940482 
L 152.207183 277.472896 
L 152.75244 276.616531 
L 153.261878 275.665597 
L 153.512616 275.397655 
L 153.787235 274.651618 
L 154.523531 273.76373 
L 154.973269 273.112262 
L 155.001129 272.670945 
L 155.709565 271.31547 
L 155.896624 270.937199 
L 156.043883 270.122863 
L 156.294622 269.387335 
L 156.80804 267.522244 
L 156.963259 267.264809 
L 157.532396 266.665879 
L 157.604036 266.287607 
L 159.140308 263.576658 
L 159.936304 262.746562 
L 160.784039 261.806136 
L 161.755155 260.492692 
L 162.157133 259.883254 
L 162.352152 259.510235 
L 163.108348 258.816737 
L 163.721265 257.718698 
L 163.900364 257.319411 
L 164.405821 256.67845 
L 166.145072 254.498133 
L 166.089353 253.888695 
L 167.048528 251.839722 
L 167.526125 251.608556 
L 167.912183 251.288076 
L 168.095262 250.873027 
L 168.54102 250.190037 
L 169.026578 249.344179 
L 169.277316 248.020227 
L 169.364876 247.573656 
L 169.870333 246.922188 
L 170.212612 246.643738 
L 170.399671 246.333765 
L 170.60265 245.608744 
L 170.726029 245.177934 
L 170.797669 244.931007 
L 171.175767 244.169209 
L 172.003603 243.144723 
L 172.115042 242.692898 
L 172.4414 242.004653 
L 173.894093 240.670194 
L 174.097072 240.307684 
L 174.355771 240.097533 
L 175.259226 238.36904 
L 176.5567 237.171179 
L 176.731819 236.929506 
L 176.624359 236.582756 
L 176.727839 236.288545 
L 176.851218 234.990862 
L 176.994497 234.607337 
L 177.113897 233.740463 
L 177.495975 233.504044 
L 177.810393 232.884098 
L 178.323811 231.554893 
L 179.000407 230.714288 
L 179.728744 229.553204 
L 179.939682 229.306276 
L 180.35758 229.521681 
L 180.45708 229.2695 
L 181.352575 228.880721 
L 181.643114 228.660062 
L 182.017232 228.607524 
L 182.510749 227.971817 
L 182.634129 227.625068 
L 182.538609 226.82124 
L 183.589324 224.357219 
L 184.106721 223.747781 
L 184.37736 223.190881 
L 184.41318 222.66025 
L 184.596259 222.308247 
L 185.455935 221.467642 
L 186.705648 217.416981 
L 186.825048 216.560615 
L 187.151406 215.783057 
L 187.354385 215.431054 
L 187.644923 215.152603 
L 187.927502 214.380298 
L 188.655838 212.972286 
L 189.010057 212.273534 
L 189.209056 211.979323 
L 189.260795 210.082709 
L 188.946377 209.389211 
L 186.924547 208.800788 
L 187.270805 208.800788 
L 187.258865 208.779773 
L 187.680743 208.895356 
L 187.609104 208.769265 
L 187.577264 208.695713 
L 186.104671 207.849855 
L 185.308675 206.310498 
L 185.133556 205.601238 
L 185.109676 204.939263 
L 185.865872 203.310592 
L 186.251931 202.711662 
L 188.082721 201.19332 
L 188.906577 200.000713 
L 189.280695 199.123332 
L 189.953312 197.242481 
L 192.810937 191.678732 
L 193.626833 190.585946 
L 194.820827 189.198949 
L 195.561103 188.684079 
L 196.743157 188.221747 
L 198.378929 188.10091 
L 199.151045 188.25327 
L 199.919181 188.547481 
L 201.905191 189.897701 
L 202.896206 190.165644 
L 203.819562 190.254958 
L 205.312054 189.944985 
L 205.956811 189.482653 
L 206.637387 188.89423 
L 207.345824 188.363599 
L 207.950781 187.62807 
L 208.890056 185.747218 
L 209.423373 184.097533 
L 210.199469 183.031016 
L 210.784526 182.32701 
L 211.417343 181.806886 
L 212.396418 181.192194 
L 213.311814 180.708847 
L 213.670012 180.388367 
L 215.273944 179.106445 
L 216.495797 177.272877 
L 217.287813 175.770297 
L 217.98431 173.127648 
L 217.845011 170.852763 
L 216.822156 168.635669 
L 216.682856 167.632198 
L 216.678877 166.155887 
L 217.041055 165.220715 
L 218.633047 163.066667 
L 219.96236 161.611371 
L 220.646916 161.128023 
L 222.238908 160.21912 
L 223.771201 158.769078 
L 224.041839 157.954742 
L 224.268698 156.079144 
L 224.276658 154.545042 
L 224.551277 153.552078 
L 224.861715 153.058223 
L 225.092554 151.975945 
L 226.159189 148.187973 
L 226.421867 147.289577 
L 226.624846 146.590825 
L 227.420842 145.056722 
L 228.196938 143.596172 
L 228.849655 142.550671 
L 230.986904 140.32307 
L 232.395817 138.731176 
L 233.291312 137.223342 
L 234.310187 135.069294 
L 235.130063 133.009813 
L 235.73104 132.027357 
L 237.088213 129.773487 
L 237.80461 129.001182 
L 238.827464 128.281415 
L 240.009518 127.698246 
L 242.799484 126.778835 
L 243.185542 126.736805 
L 246.874984 127.477587 
L 248.164497 127.362004 
L 248.996313 127.088808 
L 250.560445 125.754348 
L 252.960373 122.018914 
L 256.793093 114.905301 
L 256.864733 114.590074 
L 258.178126 112.225875 
L 259.710419 109.446627 
L 260.116377 108.76889 
L 260.900433 107.387147 
L 262.353125 104.797035 
L 263.706318 102.595703 
L 265.182891 99.128211 
L 265.34209 97.510048 
L 265.190851 96.222873 
L 265.111251 95.235163 
L 265.38587 93.438371 
L 265.795808 92.177465 
L 265.887347 91.3211 
L 265.557009 89.424486 
L 265.162991 88.510329 
L 263.833678 86.335266 
L 263.714278 85.379079 
L 263.897357 83.802946 
L 264.498334 82.226813 
L 265.620689 80.125303 
L 268.064396 76.584257 
L 269.751908 74.797974 
L 272.776693 71.393527 
L 273.011511 70.542415 
L 273.130911 69.197448 
L 272.896092 67.332358 
L 272.868232 66.039929 
L 273.31399 63.019007 
L 274.153766 59.456947 
L 275.19254 57.823023 
L 276.207435 56.977165 
L 277.30989 56.241636 
L 278.456124 55.558645 
L 279.14068 54.901923 
L 279.554598 54.003528 
L 279.546638 52.958026 
L 279.331719 52.427395 
L 279.037201 52.001839 
L 278.157625 51.324102 
L 277.047211 51.103443 
L 276.462154 51.14022 
L 275.371639 51.597298 
L 273.166731 53.15767 
L 272.183676 53.415105 
L 271.618518 53.262745 
L 271.093161 52.952772 
L 270.336965 52.038615 
L 270.161846 51.50273 
L 270.153886 51.019383 
L 270.289205 50.536035 
L 270.854362 49.600863 
L 274.157746 45.308528 
L 275.383579 42.503012 
L 275.690038 41.068731 
L 275.749737 40.165081 
L 275.526859 39.308716 
L 275.112941 38.546918 
L 274.026406 37.259743 
L 272.812512 36.124927 
L 270.667303 34.622347 
L 269.485249 34.170523 
L 266.321165 33.287888 
L 264.148096 32.941139 
L 262.448645 32.436776 
L 261.728268 32.473553 
L 261.075552 32.688958 
L 260.283536 33.445501 
L 259.44774 34.575063 
L 259.137302 35.594296 
L 259.101482 36.471677 
L 259.292521 37.606492 
L 259.750218 38.268468 
L 260.725314 39.003997 
L 261.310371 39.308716 
L 261.46957 39.445314 
L 261.959107 39.63445 
L 263.865518 40.963655 
L 264.577934 42.019664 
L 264.733153 43.212271 
L 264.892352 44.835688 
L 265.27443 45.933727 
L 265.748048 47.572906 
L 265.724168 48.434525 
L 265.584869 49.332921 
L 265.210751 50.231316 
L 264.681413 51.098189 
L 263.001862 52.774144 
L 262.623764 53.063102 
L 260.697454 53.872183 
L 259.121382 54.292485 
L 258.221906 54.796848 
L 257.063732 55.942171 
L 256.773194 56.351965 
L 256.407035 57.287138 
L 256.407035 57.907083 
L 255.933418 59.288826 
L 255.41204 60.066385 
L 254.369286 60.954273 
L 253.636969 61.232724 
L 252.180297 61.637264 
L 251.778319 62.015536 
L 249.696789 62.96647 
L 247.770479 64.490065 
L 247.046123 65.26237 
L 245.099913 68.482935 
L 243.57558 71.619439 
L 243.476081 71.756037 
L 243.328822 72.286669 
L 242.540786 74.015161 
L 242.003488 74.850511 
L 241.155753 75.82246 
L 240.586615 76.447659 
L 239.59958 77.141158 
L 237.880229 78.107853 
L 236.853394 79.337236 
L 236.558876 80.078019 
L 236.320077 81.312656 
L 236.459376 83.251299 
L 236.558876 84.664565 
L 236.471316 85.384332 
L 235.854419 86.98148 
L 234.819625 88.237133 
L 234.298247 88.589136 
L 232.483376 89.34568 
L 230.525226 90.265091 
L 228.117339 91.925284 
L 225.80099 94.378797 
L 224.407997 96.270157 
L 223.97816 97.184314 
L 223.500562 98.098471 
L 222.800086 99.769172 
L 222.664766 100.641298 
L 223.305543 103.604428 
L 224.169199 106.572812 
L 224.730376 108.679576 
L 224.698536 110.014035 
L 224.332378 111.316972 
L 224.049799 111.931663 
L 223.082664 113.502542 
L 221.99613 114.742434 
L 221.279733 115.493724 
L 220.551397 116.376358 
L 219.214124 117.605742 
L 218.067889 118.509391 
L 217.248014 119.276442 
L 216.376398 120.337705 
L 216.225159 120.321944 
L 216.213219 119.912149 
L 216.698776 118.472615 
L 216.750516 117.836908 
L 216.790316 117.253739 
L 216.969415 116.43415 
L 217.009215 115.588292 
L 217.013195 115.21002 
L 216.961455 114.77921 
L 216.949515 114.085712 
L 216.463958 112.877343 
L 216.06994 112.225875 
L 215.461003 111.626944 
L 213.94463 110.896669 
L 213.252114 110.54992 
L 212.682977 110.297739 
L 211.496943 109.483404 
L 211.075065 109.084117 
L 210.593487 108.721606 
L 208.866176 107.597298 
L 206.824446 106.373168 
L 206.629427 106.420452 
L 206.629427 106.409945 
" style="fill:none;stroke:#000000;stroke-width:3;"/>
   </g>
  </g>
 </g>
 <defs>
  <clipPath id="p999247016d">
   <rect height="554.4" width="285.369729" x="7.2" y="7.2"/>
  </clipPath>
 </defs>
</svg>
