<?xml version="1.0" encoding="utf-8" standalone="no"?>
<!DOCTYPE svg PUBLIC "-//W3C//DTD SVG 1.1//EN"
  "http://www.w3.org/Graphics/SVG/1.1/DTD/svg11.dtd">
<svg height="544.328344pt" version="1.1" viewBox="0 0 572.4 544.328344" width="572.4pt" xmlns="http://www.w3.org/2000/svg" xmlns:xlink="http://www.w3.org/1999/xlink">
 <metadata>
  <rdf:RDF xmlns:cc="http://creativecommons.org/ns#" xmlns:dc="http://purl.org/dc/elements/1.1/" xmlns:rdf="http://www.w3.org/1999/02/22-rdf-syntax-ns#">
   <cc:Work>
    <dc:type rdf:resource="http://purl.org/dc/dcmitype/StillImage"/>
    <dc:date>2021-06-16T02:05:35.388030</dc:date>
    <dc:format>image/svg+xml</dc:format>
    <dc:creator>
     <cc:Agent>
      <dc:title>Matplotlib v3.4.2, https://matplotlib.org/</dc:title>
     </cc:Agent>
    </dc:creator>
   </cc:Work>
  </rdf:RDF>
 </metadata>
 <defs>
  <style type="text/css">*{stroke-linecap:butt;stroke-linejoin:round;}</style>
 </defs>
 <g id="figure_1">
  <g id="patch_1">
   <path d="M 0 544.328344 
L 572.4 544.328344 
L 572.4 0 
L 0 0 
z
" style="fill:#ffffff;"/>
  </g>
  <g id="axes_1">
   <g id="LineCollection_1">
    <path clip-path="url(#p898867fed2)" d="M 45.623374 386.110612 
L 41.461479 389.838275 
L 42.370399 386.110612 
L 44.379589 385.478805 
L 44.857968 384.973359 
L 46.38878 383.141118 
L 49.880944 377.770756 
L 51.459593 376.128057 
L 51.842296 375.559431 
L 52.942567 374.169455 
L 54.473379 372.589937 
L 59.687706 363.618273 
L 59.879058 361.659671 
L 61.409869 360.775141 
L 61.649059 359.82743 
L 62.223113 359.195623 
L 62.51014 357.23702 
L 63.897438 355.46796 
L 65.523926 353.067092 
L 66.432845 350.792586 
L 67.772305 348.960345 
L 69.207441 345.801309 
L 70.451226 342.705453 
L 71.312308 340.115043 
L 72.699606 338.219621 
L 73.608525 336.071477 
L 74.85231 334.428778 
L 75.52204 332.343814 
L 75.330688 330.448392 
L 76.048256 328.489789 
L 77.196365 326.78391 
L 77.339879 324.319862 
L 77.961771 321.982175 
L 78.344474 321.224006 
L 79.205555 318.696777 
L 79.349069 316.35909 
L 78.153122 311.873258 
L 78.296636 309.788294 
L 77.961771 306.123812 
L 77.435554 304.102029 
L 77.100689 302.143427 
L 76.574473 299.932101 
L 75.952581 298.036679 
L 75.28285 294.372197 
L 74.61312 290.770896 
L 74.326093 288.243667 
L 74.326093 286.285064 
L 74.708796 284.010558 
L 74.947985 281.54651 
L 74.995823 279.272004 
L 74.756634 277.313401 
L 75.139337 275.102076 
L 73.991228 272.701208 
L 74.039066 270.23716 
L 73.752039 267.836292 
L 72.795281 266.256774 
L 72.699606 263.855906 
L 71.551497 260.001882 
L 70.833929 258.10646 
L 69.637982 255.51605 
L 69.303117 253.683809 
L 69.350955 251.030219 
L 69.063928 244.459423 
L 69.350955 242.248098 
L 69.350955 237.635905 
L 69.925009 233.213254 
L 70.116361 230.875567 
L 69.877172 228.790603 
L 69.781496 226.579278 
L 69.829334 224.494314 
L 70.116361 222.282988 
L 70.929605 219.629398 
L 71.312308 217.22853 
L 71.120956 214.069494 
L 72.029876 212.047711 
L 72.173389 209.899566 
L 72.029876 207.877783 
L 72.508254 205.350554 
L 73.177984 203.076047 
L 74.230417 198.716577 
L 74.85231 193.978023 
L 75.474202 191.640336 
L 75.569878 189.492191 
L 75.952581 187.344046 
L 76.957176 185.259082 
L 77.339879 183.047757 
L 77.961771 180.71007 
L 78.918528 178.751468 
L 79.014204 176.919227 
L 79.683934 174.771082 
L 80.018799 172.243853 
L 80.879881 169.906166 
L 82.075827 167.947563 
L 82.602044 165.609877 
L 82.69772 163.524913 
L 83.223936 161.503129 
L 84.03718 159.354985 
L 85.328802 157.522744 
L 88.486101 154.047804 
L 89.586372 152.089201 
L 90.782319 150.509683 
L 92.073941 149.056526 
L 94.56151 145.139321 
L 95.374754 143.054357 
L 96.714214 141.095755 
L 98.81908 136.420381 
L 100.015027 134.651321 
L 101.832866 133.450887 
L 102.598272 131.808188 
L 103.98557 130.481393 
L 104.894489 128.901874 
L 106.855842 127.322356 
L 108.434491 125.553296 
L 110.539357 123.594693 
L 111.496115 122.962886 
L 112.979089 121.57291 
L 114.701252 120.498838 
L 116.08855 118.350693 
L 117.762875 117.150259 
L 119.198011 115.886645 
L 121.398553 115.002115 
L 122.833689 113.485777 
L 124.651528 112.222163 
L 126.660718 111.14809 
L 129.626666 108.55768 
L 130.726937 107.104524 
L 134.649642 105.272283 
L 136.658832 103.503222 
L 140.342348 101.418258 
L 141.968835 99.965102 
L 144.265053 98.764668 
L 145.365324 98.701487 
L 148.474785 96.174258 
L 150.771002 95.47927 
L 161.438846 93.77339 
L 163.495875 93.71021 
L 165.409389 93.457487 
L 167.370742 92.699318 
L 168.997229 91.625246 
L 171.00642 91.688427 
L 178.229937 90.993439 
L 180.956696 93.331125 
L 180.478317 94.278836 
L 180.19129 94.342017 
L 179.9521 94.215656 
L 228.60321 95.163366 
L 230.134021 94.089294 
L 232.095374 93.394306 
L 234.104564 93.015222 
L 237.11835 92.067511 
L 238.840513 92.00433 
L 242.906732 92.193872 
L 245.298625 92.067511 
L 247.21214 92.130692 
L 251.421872 91.877969 
L 253.909441 91.498884 
L 256.109983 91.625246 
L 258.071335 91.246161 
L 263.620527 89.287559 
L 265.916745 89.161197 
L 268.165125 88.466209 
L 270.317829 87.581679 
L 272.327019 86.444426 
L 274.192696 84.738547 
L 276.393238 83.411751 
L 277.732698 81.389968 
L 279.789726 79.999992 
L 281.990268 78.294113 
L 284.142972 77.22004 
L 286.534865 75.830064 
L 288.735407 72.923751 
L 290.744597 72.228763 
L 292.323247 71.533775 
L 294.093248 70.459702 
L 295.719735 69.132907 
L 297.585412 67.995654 
L 298.924872 66.984762 
L 300.55136 66.289774 
L 302.034334 65.342064 
L 303.756497 64.015268 
L 305.239471 62.688473 
L 308.779473 60.982593 
L 310.884339 60.729871 
L 312.702178 60.034883 
L 314.232989 58.771268 
L 315.811639 57.823557 
L 317.820829 57.002208 
L 319.877857 56.3704 
L 322.078399 55.864955 
L 324.183265 55.043605 
L 328.919214 54.474979 
L 331.071918 53.337726 
L 333.176784 52.642738 
L 334.946785 51.884569 
L 337.625706 51.000039 
L 341.691924 49.989147 
L 343.605439 49.167798 
L 345.518953 48.725532 
L 347.241117 48.093725 
L 353.173012 49.104617 
L 356.5695 50.115508 
L 358.435177 50.494593 
L 360.15734 51.063219 
L 362.740585 51.695027 
L 363.697342 51.758207 
L 367.572209 52.390015 
L 369.772751 53.148183 
L 371.542752 54.159075 
L 373.599781 54.474979 
L 375.513295 55.043605 
L 377.378972 55.801774 
L 379.340324 56.749485 
L 381.44519 57.634015 
L 383.263029 58.771268 
L 385.128706 59.78216 
L 387.377086 60.66669 
L 391.730332 61.488039 
L 394.170063 62.183027 
L 396.370605 62.625292 
L 398.762498 62.751654 
L 401.202229 62.751654 
L 403.64196 62.562112 
L 406.033853 63.004377 
L 408.425747 63.067557 
L 413.592236 63.446642 
L 415.792778 64.015268 
L 418.184671 64.267991 
L 420.480889 64.331172 
L 422.442241 64.267991 
L 424.26008 64.078449 
L 426.460622 64.20481 
L 430.239813 63.130738 
L 432.34468 62.688473 
L 434.401708 61.930304 
L 436.506574 61.930304 
L 442.151442 58.07628 
L 443.921443 55.864955 
L 445.452255 54.159075 
L 447.030904 49.736424 
L 448.561716 47.714641 
L 449.327122 45.503315 
L 451.479826 41.838833 
L 452.484421 39.690689 
L 453.058475 37.542544 
L 455.067666 32.045821 
L 457.172532 31.287652 
L 458.464154 31.603556 
L 460.138479 32.361724 
L 462.339021 34.130785 
L 465.73551 36.34211 
L 469.179836 40.827942 
L 469.99308 42.470641 
L 471.428216 44.429243 
L 473.102541 45.629677 
L 474.968218 45.945581 
L 477.360111 45.692858 
L 479.560653 45.8824 
L 481.617681 45.692858 
L 483.387682 44.871508 
L 485.492548 44.555605 
L 489.845794 43.29199 
L 493.194445 43.102448 
L 495.586338 43.29199 
L 497.452015 43.29199 
L 499.174178 43.481532 
L 503.623099 44.934689 
L 505.488776 45.06105 
L 508.837427 47.146014 
L 511.133644 47.967364 
L 512.951483 48.915075 
L 515.056349 49.862786 
L 516.82635 51.063219 
L 518.165811 52.263653 
L 519.361757 53.590448 
L 522.375543 55.864955 
L 523.667165 57.318111 
L 525.915545 59.150352 
L 527.733384 60.919413 
L 529.120682 62.814835 
L 530.699331 64.457533 
L 531.895278 66.289774 
L 533.713117 68.5011 
L 534.430685 70.27016 
L 534.574198 72.291943 
L 535.339604 74.440088 
L 536.392037 76.904137 
L 536.631227 77.978209 
L 537.827173 80.379076 
L 538.831768 82.969486 
L 539.453661 85.05445 
L 539.310147 87.581679 
L 539.836364 91.814788 
L 539.69285 94.026113 
L 539.69285 96.047897 
L 538.879606 99.586017 
L 538.831768 101.54462 
L 538.449066 103.376861 
L 536.009334 109.126307 
L 535.43528 110.832187 
L 535.100415 112.601247 
L 535.148253 114.55985 
L 534.000144 118.09797 
L 533.378252 120.372476 
L 533.473928 123.026067 
L 532.182305 127.006453 
L 531.943116 128.838694 
L 531.799602 130.923658 
L 531.512575 132.88226 
L 530.747169 135.346309 
L 530.50798 137.999899 
L 529.886088 140.211224 
L 529.025006 147.413827 
L 528.211762 149.625153 
L 528.211762 152.089201 
L 528.546627 154.237346 
L 528.355276 156.259129 
L 528.403114 158.280912 
L 528.307438 160.302696 
L 528.450952 164.978069 
L 529.742574 167.315756 
L 530.173115 169.337539 
L 530.316628 175.971516 
L 529.551223 182.731853 
L 529.886088 187.533589 
L 530.029601 189.997637 
L 529.886088 191.956239 
L 530.029601 194.041203 
L 529.886088 196.505252 
L 530.029601 198.842939 
L 528.737979 202.823324 
L 528.737979 205.097831 
L 528.020411 207.498698 
L 527.255005 209.583662 
L 527.159329 211.668626 
L 525.724193 212.995421 
L 522.136353 218.555325 
L 521.32311 220.513928 
L 520.318514 222.346169 
L 519.266081 223.925687 
L 518.452838 225.94747 
L 517.639594 227.590169 
L 516.874188 229.42241 
L 516.82635 231.760097 
L 514.721484 236.498652 
L 513.286348 237.762266 
L 510.942293 242.058556 
L 509.554995 244.2067 
L 507.545804 247.744821 
L 506.158506 249.38752 
L 505.153911 251.409303 
L 504.436343 253.74699 
L 502.04445 257.348291 
L 500.274449 261.202316 
L 499.078502 263.224099 
L 498.504448 265.119521 
L 497.308501 266.76222 
L 496.590933 268.784003 
L 494.677418 271.563955 
L 493.912013 273.585738 
L 492.907417 275.038895 
L 491.902822 276.744774 
L 491.28093 278.640196 
L 490.132821 280.346076 
L 489.463091 281.988775 
L 489.463091 284.389642 
L 486.832009 288.49639 
L 486.018765 289.4441 
L 484.870656 291.276342 
L 483.961737 293.234944 
L 482.478763 295.193547 
L 480.708762 298.731667 
L 478.747409 300.248005 
L 477.16876 302.901595 
L 475.829299 304.797017 
L 474.824704 306.629258 
L 473.963623 308.777403 
L 472.719838 310.672825 
L 471.858757 312.315523 
L 471.33254 314.084584 
L 469.08416 317.306801 
L 468.41443 319.01268 
L 467.601187 320.592199 
L 466.835781 322.550801 
L 466.070375 325.141211 
L 464.491725 327.036633 
L 463.295779 328.742512 
L 462.482535 330.890657 
L 461.717129 332.533356 
L 460.138479 334.491958 
L 458.416316 336.071477 
L 457.172532 338.030079 
L 456.454964 339.86232 
L 455.163341 342.136826 
L 453.919557 344.095429 
L 453.154151 346.433116 
L 451.623339 348.454899 
L 450.427393 350.666224 
L 449.614149 352.940731 
L 448.513878 354.457068 
L 448.131175 356.162948 
L 446.983066 357.742466 
L 444.8782 363.807816 
L 443.921443 365.576876 
L 443.53874 367.598659 
L 441.816577 369.936346 
L 440.955495 370.884057 
L 440.237927 373.537647 
L 439.28117 375.812154 
L 437.94171 377.075768 
L 436.267385 379.223913 
L 434.688735 380.487527 
L 432.536031 384.467913 
L 431.196571 386.363335 
L 430.0963 388.321937 
L 428.709002 389.964636 
L 427.656569 392.112781 
L 427.17819 393.881841 
L 425.264675 396.535432 
L 424.212242 398.620396 
L 423.446837 400.515818 
L 422.537917 402.221697 
L 421.772511 404.369842 
L 420.576565 406.202083 
L 419.189266 407.781601 
L 418.471699 409.740204 
L 417.32359 411.382903 
L 416.606022 413.594228 
L 415.505751 414.984204 
L 414.548994 416.500541 
L 414.166291 418.838228 
L 413.640074 420.73365 
L 412.348452 422.43953 
L 411.535208 425.535385 
L 408.13872 429.010325 
L 407.2298 430.905747 
L 404.120339 436.528832 
L 402.924392 438.171531 
L 401.441418 439.81423 
L 400.915202 441.836013 
L 399.049525 443.35235 
L 398.188443 445.563676 
L 397.040335 447.901363 
L 395.557361 449.038616 
L 394.409252 451.12358 
L 394.122225 453.398086 
L 392.4479 455.48305 
L 391.53898 457.125749 
L 390.964926 459.084351 
L 389.768979 460.979773 
L 388.907898 463.254279 
L 387.855464 465.149701 
L 387.137897 467.361026 
L 386.133301 469.38281 
L 385.607085 471.404593 
L 384.076273 473.173653 
L 383.406543 475.258617 
L 382.019245 476.648593 
L 380.10573 478.038569 
L 379.388162 479.997172 
L 378.814108 481.955774 
L 378.335729 484.546184 
L 377.761675 487.010232 
L 375.417619 488.273847 
L 373.647618 489.916546 
L 369.868427 492.696498 
L 368.624643 494.339197 
L 366.758966 496.234618 
L 364.845451 497.498233 
L 363.458153 499.204112 
L 361.783828 500.404546 
L 359.439772 501.478619 
L 357.956798 503.121318 
L 356.330311 504.384932 
L 354.273283 504.764016 
L 353.268688 506.469896 
L 350.637605 506.217173 
L 348.819766 506.7858 
L 347.145441 507.859872 
L 344.992737 507.986233 
L 339.060842 510.008017 
L 337.099489 511.018908 
L 334.707596 511.524354 
L 332.220027 511.461173 
L 330.210836 511.713896 
L 328.153808 511.777077 
L 325.905428 512.092981 
L 321.360831 512.535246 
L 316.816234 512.472065 
L 314.759206 512.787969 
L 309.497041 513.040692 
L 307.105147 511.840258 
L 304.80893 510.892547 
L 300.886225 509.755294 
L 299.259737 508.681221 
L 297.059196 508.302137 
L 295.38487 506.912161 
L 289.022434 504.384932 
L 287.013244 503.942667 
L 283.425404 502.42633 
L 281.320538 501.984064 
L 279.502699 501.352257 
L 277.68486 499.83592 
L 275.771345 498.445944 
L 274.144858 496.613703 
L 272.327019 495.160546 
L 270.126477 493.960112 
L 268.021611 492.254233 
L 265.868907 490.864257 
L 264.098906 488.716112 
L 263.046473 486.631148 
L 261.707013 485.05163 
L 259.362957 481.639871 
L 257.545118 480.313075 
L 256.492685 478.417653 
L 254.244306 475.890424 
L 251.661061 472.731388 
L 250.752142 468.751002 
L 249.029978 464.896978 
L 248.695113 462.812014 
L 247.88187 461.042954 
L 247.164302 458.705267 
L 247.834032 456.873026 
L 247.786194 454.788062 
L 247.499167 451.12358 
L 246.446734 449.607242 
L 246.111869 447.459097 
L 245.585652 445.626856 
L 245.346463 443.794615 
L 244.820246 442.025555 
L 244.007003 440.446037 
L 243.193759 438.297892 
L 242.332677 436.40247 
L 241.758623 434.507049 
L 239.36673 429.642133 
L 235.5397 423.134518 
L 234.678619 421.302277 
L 233.769699 419.722759 
L 232.478077 417.890517 
L 231.090779 416.37418 
L 229.416453 414.921023 
L 228.220507 413.215144 
L 227.168074 411.509264 
L 225.876451 409.866565 
L 224.297802 408.982035 
L 223.43672 406.960252 
L 221.236178 406.202083 
L 219.84888 404.875288 
L 216.356716 402.411239 
L 214.491039 400.958083 
L 212.434011 399.82083 
L 210.520497 398.9363 
L 208.798333 397.862227 
L 207.411035 396.724974 
L 205.545359 396.093167 
L 201.861843 394.197745 
L 199.661301 393.75548 
L 197.8913 392.365504 
L 195.977785 391.607335 
L 194.255622 390.217359 
L 192.246432 388.890564 
L 189.854539 387.500588 
L 187.941024 386.742419 
L 186.505888 385.352443 
L 183.587778 384.973359 
L 181.100209 384.341552 
L 179.330208 383.204299 
L 177.416694 382.572491 
L 174.976962 382.635672 
L 173.206961 381.056154 
L 170.910744 380.550708 
L 167.84912 378.844828 
L 165.696416 378.149841 
L 163.735064 377.833937 
L 161.725874 377.328491 
L 159.908035 376.507142 
L 158.042358 376.001696 
L 156.463708 374.548539 
L 154.789383 373.600828 
L 152.828031 372.779479 
L 150.914516 371.642226 
L 149.192353 370.125888 
L 145.795864 368.672732 
L 143.88235 367.66184 
L 141.968835 365.89278 
L 139.672618 364.565984 
L 137.3764 363.555093 
L 135.271534 362.41784 
L 133.166668 361.659671 
L 131.54018 360.71196 
L 129.722341 359.321984 
L 128.000178 358.184731 
L 126.421529 356.668393 
L 124.747203 355.594321 
L 122.546662 353.888442 
L 119.628552 352.119381 
L 117.667199 351.17167 
L 116.232063 350.160779 
L 114.653414 347.886273 
L 112.787737 347.507188 
L 111.83098 345.548586 
L 110.348006 344.411333 
L 108.530167 343.33726 
L 106.568815 342.894995 
L 104.511786 341.441838 
L 102.885299 340.115043 
L 100.923946 338.788248 
L 97.670972 337.650995 
L 96.187998 336.703284 
L 94.274483 336.261019 
L 92.360968 335.692392 
L 90.590967 335.881934 
L 88.820966 335.818754 
L 86.95529 336.008296 
L 83.176098 336.956007 
L 81.310421 338.472344 
L 78.583663 340.051862 
L 76.622311 340.936393 
L 72.316903 343.842706 
L 70.977442 345.864489 
L 69.350955 347.191285 
L 68.394198 348.707622 
L 66.863386 350.413502 
L 65.332574 351.866658 
L 64.08879 353.635719 
L 62.414465 354.962514 
L 60.118247 355.278418 
L 58.443922 356.478851 
L 56.626083 358.058369 
L 54.186352 359.195623 
L 52.368513 360.838321 
L 50.885539 362.41784 
L 48.972024 363.870996 
L 47.72824 365.766418 
L 46.436617 367.345936 
L 45.097157 369.4309 
L 42.179047 372.779479 
L 41.030939 374.295816 
L 39.787154 377.075768 
L 36.486341 380.803431 
L 35.290395 382.951576 
L 33.807421 384.531094 
L 32.563636 386.426516 
L 32.563636 386.426516 
" style="fill:none;stroke:#000000;stroke-width:3;"/>
   </g>
  </g>
 </g>
 <defs>
  <clipPath id="p898867fed2">
   <rect height="529.928344" width="558" x="7.2" y="7.2"/>
  </clipPath>
 </defs>
</svg>
