<?xml version="1.0" encoding="utf-8" standalone="no"?>
<!DOCTYPE svg PUBLIC "-//W3C//DTD SVG 1.1//EN"
  "http://www.w3.org/Graphics/SVG/1.1/DTD/svg11.dtd">
<svg height="568.8pt" version="1.1" viewBox="0 0 243.180344 568.8" width="243.180344pt" xmlns="http://www.w3.org/2000/svg" xmlns:xlink="http://www.w3.org/1999/xlink">
 <metadata>
  <rdf:RDF xmlns:cc="http://creativecommons.org/ns#" xmlns:dc="http://purl.org/dc/elements/1.1/" xmlns:rdf="http://www.w3.org/1999/02/22-rdf-syntax-ns#">
   <cc:Work>
    <dc:type rdf:resource="http://purl.org/dc/dcmitype/StillImage"/>
    <dc:date>2021-06-28T02:00:17.922896</dc:date>
    <dc:format>image/svg+xml</dc:format>
    <dc:creator>
     <cc:Agent>
      <dc:title>Matplotlib v3.4.2, https://matplotlib.org/</dc:title>
     </cc:Agent>
    </dc:creator>
   </cc:Work>
  </rdf:RDF>
 </metadata>
 <defs>
  <style type="text/css">*{stroke-linecap:butt;stroke-linejoin:round;}</style>
 </defs>
 <g id="figure_1">
  <g id="patch_1">
   <path d="M 0 568.8 
L 243.180344 568.8 
L 243.180344 0 
L 0 0 
z
" style="fill:#ffffff;"/>
  </g>
  <g id="axes_1">
   <g id="LineCollection_1">
    <path clip-path="url(#p23c149ffed)" d="M 225.581238 43.012622 
L 225.275062 42.672925 
L 223.313762 41.606977 
L 222.457357 41.115001 
L 221.760696 40.751876 
L 221.392397 40.599598 
L 220.957539 40.687451 
L 220.589241 41.074003 
L 220.065636 42.128237 
L 219.400036 43.422602 
L 219.422223 43.774014 
L 218.188645 45.618923 
L 217.860282 46.567734 
L 216.373776 49.461021 
L 207.476928 64.917263 
L 206.585025 66.363906 
L 203.456706 72.004058 
L 201.992387 74.873917 
L 201.619651 75.611881 
L 201.104921 76.707113 
L 200.204143 78.352889 
L 199.507482 79.676539 
L 198.260592 81.820148 
L 197.736987 82.663535 
L 195.62038 86.335784 
L 195.096775 87.747286 
L 193.21091 91.319968 
L 192.61187 92.579192 
L 191.347231 94.757942 
L 190.947871 95.630614 
L 190.140277 96.673134 
L 188.746955 99.484425 
L 187.114017 102.12001 
L 186.785655 102.875544 
L 184.913101 105.446704 
L 184.442744 106.313518 
L 183.577465 107.350182 
L 182.05546 109.827632 
L 181.083685 111.367985 
L 180.600016 112.000525 
L 180.395898 113.236322 
L 179.548368 114.513116 
L 179.051387 115.596635 
L 179.011451 115.620062 
L 179.140134 116.012471 
L 179.122384 116.047613 
L 178.811771 116.170606 
L 178.691963 116.287744 
L 178.58103 117.11356 
L 178.376913 118.355214 
L 178.51447 119.27474 
L 178.234918 123.585386 
L 178.354726 126.302967 
L 178.434598 126.660235 
L 178.407974 127.54462 
L 178.461222 128.434862 
L 178.19942 129.284106 
L 177.893244 132.136395 
L 178.190545 132.599087 
L 178.155046 134.233149 
L 178.079612 135.170246 
L 178.194982 136.171769 
L 178.0663 137.079581 
L 178.301478 139.668311 
L 177.950929 140.892394 
L 178.297041 142.309753 
L 178.270417 142.684592 
L 178.51447 143.02429 
L 178.421286 143.481124 
L 178.008614 144.113665 
L 177.684689 144.371366 
L 177.485009 144.798917 
L 176.770599 142.883725 
L 176.007378 143.533836 
L 178.887206 147.563353 
L 179.978789 148.031901 
L 180.40921 148.646871 
L 180.262778 149.513686 
L 180.169594 150.439069 
L 180.169594 151.797859 
L 179.925541 153.414352 
L 179.623803 153.99418 
L 179.699237 154.550582 
L 179.477371 155.065985 
L 179.437435 156.477487 
L 179.375312 158.562528 
L 179.09576 159.903748 
L 179.348688 160.419151 
L 179.282128 160.940411 
L 179.038075 161.385532 
L 179.104635 162.211349 
L 178.807334 162.873174 
L 178.545531 163.581853 
L 178.155046 163.909837 
L 178.217169 164.893789 
L 178.057425 165.719605 
L 177.942054 165.901168 
L 178.292604 165.936309 
L 178.039676 166.551279 
L 177.489447 167.20139 
L 177.045714 168.167771 
L 176.75285 169.099011 
L 176.55317 169.432852 
L 176.104999 169.813547 
L 175.594706 170.774072 
L 175.479336 171.166481 
L 175.412776 173.052389 
L 174.787112 175.020292 
L 173.216297 177.778871 
L 173.1453 178.809678 
L 172.905684 179.688206 
L 172.674943 179.992763 
L 172.089215 180.42617 
L 171.308245 181.527259 
L 170.842325 182.358932 
L 170.261035 183.067612 
L 170.1856 183.301886 
L 169.777366 183.770434 
L 169.315883 185.006231 
L 168.761217 185.943328 
L 168.259799 187.237693 
L 167.873751 188.532058 
L 167.869314 189.024034 
L 167.674071 189.802996 
L 167.745068 190.089982 
L 167.563138 190.845516 
L 167.416706 191.038792 
L 166.715608 191.425345 
L 166.289624 192.040315 
L 166.298498 192.497149 
L 165.814829 193.574811 
L 165.686147 194.295204 
L 165.53084 194.734468 
L 165.837016 196.116686 
L 166.160941 196.380245 
L 166.933037 196.567664 
L 167.372332 196.837079 
L 167.327959 197.346626 
L 167.11053 197.914741 
L 167.070594 198.547281 
L 165.468718 201.018874 
L 165.047171 202.084822 
L 165.255726 202.559227 
L 164.110894 203.935589 
L 163.631663 204.527131 
L 163.152431 205.511083 
L 162.593327 206.705881 
L 162.415834 207.033865 
L 162.154031 207.186143 
L 161.559429 208.685498 
L 161.244379 209.072051 
L 161.217755 209.511315 
L 160.663088 210.290277 
L 160.436784 210.665116 
L 160.463408 211.110237 
L 160.632027 211.725207 
L 160.121734 212.627162 
L 159.944241 212.978574 
L 159.682438 213.247989 
L 159.136647 213.517404 
L 158.905905 213.915671 
L 159.0479 214.542354 
L 159.056775 214.800056 
L 159.305265 215.104612 
L 159.132209 215.754723 
L 158.826033 216.053423 
L 158.559794 216.756246 
L 158.226994 217.090086 
L 158.005127 217.646488 
L 158.00069 218.03304 
L 158.06725 218.577728 
L 157.663453 218.952566 
L 156.891357 219.210268 
L 156.141448 219.930661 
L 155.085364 221.201599 
L 154.796937 221.043464 
L 154.765876 221.277738 
L 155.484723 223.503343 
L 156.589619 223.925037 
L 156.922418 224.01289 
L 157.357277 224.616146 
L 157.761074 225.89294 
L 157.650141 226.109644 
L 157.290717 226.455199 
L 157.139848 228.276681 
L 157.28628 227.995552 
L 157.370589 228.382104 
L 156.68724 229.418768 
L 156.265694 229.612044 
L 156.176947 230.068878 
L 156.292318 230.554998 
L 156.310067 231.386671 
L 155.70659 232.686893 
L 155.724339 233.208153 
L 155.533534 234.525946 
L 155.205171 236.593416 
L 154.90787 237.676934 
L 154.681566 238.016632 
L 154.752564 239.363708 
L 154.579508 241.126622 
L 154.59282 241.507318 
L 154.410889 242.19257 
L 154.455263 242.502983 
L 155.094238 243.422509 
L 155.156361 243.545503 
L 155.453662 243.609929 
L 156.310067 243.563074 
L 156.882483 244.388891 
L 156.980104 245.226421 
L 155.910707 247.036189 
L 155.644467 247.979143 
L 155.418163 248.072853 
L 155.1253 248.576542 
L 155.089801 248.828387 
L 154.668254 249.765484 
L 154.26002 250.169607 
L 153.909471 250.216462 
L 153.625482 250.193035 
L 153.61217 250.251603 
L 153.643231 250.298458 
L 153.572234 250.345313 
L 153.199498 250.702581 
L 151.921547 250.204748 
L 151.25151 249.824053 
L 150.967521 249.501926 
L 150.692406 249.460928 
L 150.368481 249.21494 
L 149.525388 249.056805 
L 149.077218 248.828387 
L 148.788791 248.383266 
L 148.482615 248.143135 
L 147.328909 247.785867 
L 142.860517 246.409506 
L 142.168294 245.946814 
L 142.150544 245.296703 
L 142.412347 244.939435 
L 142.447845 245.056572 
L 142.758459 245.718397 
L 143.876666 246.32751 
L 144.342586 246.632066 
L 144.63545 246.75506 
L 144.830692 247.340746 
L 146.437006 248.236845 
L 147.697208 249.109516 
L 148.198626 249.601492 
L 148.482615 249.62492 
L 148.704482 249.800625 
L 149.840439 250.140323 
L 151.331382 251.147702 
L 151.619808 251.106704 
L 152.152288 251.352692 
L 154.033716 252.570918 
L 155.591219 253.344023 
L 156.491997 253.385021 
L 156.88692 253.531442 
L 157.20197 253.947279 
L 157.530333 254.181553 
L 157.738887 254.468539 
L 159.890993 255.657481 
L 160.583216 256.120172 
L 162.482394 257.789376 
L 162.881754 257.935798 
L 164.936238 259.370727 
L 165.925763 259.716282 
L 165.952387 259.880274 
L 166.187565 259.86856 
L 166.316248 259.997411 
L 166.893101 260.249256 
L 166.759981 260.460102 
L 166.635736 261.127784 
L 166.254125 262.164447 
L 165.766019 263.048833 
L 165.442094 263.827794 
L 165.13148 264.501333 
L 164.847491 265.110446 
L 164.119769 265.760557 
L 163.414233 266.726938 
L 163.125807 267.769458 
L 163.005999 268.12087 
L 162.717572 268.413712 
L 162.278277 269.614368 
L 161.985413 270.287906 
L 161.54168 271.306999 
L 161.186693 272.033249 
L 160.720774 272.718501 
L 159.811121 273.831304 
L 159.731249 274.498986 
L 159.482758 274.908965 
L 159.376262 275.242806 
L 158.262492 276.888583 
L 157.459336 278.464077 
L 157.277405 278.879914 
L 155.285043 281.708775 
L 155.364915 282.347172 
L 155.245107 282.833291 
L 154.166836 284.760197 
L 153.962719 285.673866 
L 153.359242 286.757384 
L 152.69808 287.630056 
L 152.618208 288.010752 
L 152.201099 288.655006 
L 151.912672 289.486679 
L 151.358006 290.171931 
L 150.408417 291.882133 
L 149.924748 292.61424 
L 149.627447 293.428343 
L 149.467703 293.703615 
L 149.197026 293.873464 
L 147.84364 296.819462 
L 147.226851 297.861983 
L 146.508003 299.033354 
L 145.252239 301.253102 
L 144.63545 302.442044 
L 144.528954 302.576752 
L 144.045285 303.789121 
L 143.517242 304.597367 
L 143.002512 305.276762 
L 142.949264 305.698456 
L 142.279227 306.688264 
L 141.968614 306.817115 
L 141.307451 308.246188 
L 140.916966 308.767448 
L 140.619665 309.399988 
L 140.433297 310.08524 
L 139.949628 310.530362 
L 139.643452 310.788063 
L 138.960103 312.568547 
L 138.423186 313.165947 
L 136.843497 316.082661 
L 136.137961 317.669869 
L 135.90722 317.904143 
L 135.831785 318.325836 
L 135.436863 318.911522 
L 134.402965 321.031704 
L 134.016917 321.804809 
L 133.741802 322.607198 
L 132.255297 324.440394 
L 131.505388 326.314588 
L 131.447702 326.970555 
L 131.079404 327.772945 
L 130.400492 328.663187 
L 130.018882 329.325011 
L 128.563437 332.142159 
L 127.800217 333.01483 
L 126.970436 334.988591 
L 126.611012 335.773409 
L 124.614213 338.854115 
L 123.921989 340.148481 
L 123.606939 340.505749 
L 122.781595 342.596646 
L 122.089372 343.814872 
L 121.521394 344.558693 
L 121.135346 345.331798 
L 119.187358 348.681919 
L 118.712563 349.296889 
L 117.913844 350.831385 
L 117.878345 351.036375 
L 117.705289 351.036375 
L 117.598793 351.387787 
L 116.928756 352.688009 
L 116.862196 353.05699 
L 116.289781 353.982374 
L 114.377291 357.467203 
L 113.14815 359.136407 
L 112.94847 359.230116 
L 111.790327 358.597576 
L 111.129165 358.129027 
L 108.009721 356.073271 
L 107.162191 355.639864 
L 106.057296 354.814047 
L 106.248101 355.083463 
L 105.813243 356.108412 
L 105.458256 356.582818 
L 105.369509 356.85809 
L 104.672849 357.689763 
L 104.215803 358.298876 
L 103.92294 358.562435 
L 103.652262 359.288685 
L 103.159719 359.880227 
L 102.85798 360.518625 
L 102.156882 360.987173 
L 101.841831 361.145308 
L 101.557842 361.730994 
L 101.22948 362.158544 
L 101.193981 362.480671 
L 100.927741 362.656377 
L 100.386387 363.429482 
L 100.168958 363.722325 
L 99.294804 365.391528 
L 98.025727 367.259865 
L 97.715114 367.710843 
L 97.439999 367.669845 
L 96.233045 370.141438 
L 95.46095 371.043394 
L 95.12815 371.916066 
L 94.853035 372.156197 
L 93.743703 373.749262 
L 93.455276 374.399372 
L 93.220098 374.580935 
L 92.936109 374.973344 
L 92.678743 375.137336 
L 92.292696 375.547316 
L 92.004269 375.840159 
L 91.334232 376.71283 
L 90.930435 377.163808 
L 90.420142 378.253184 
L 90.309209 378.387891 
L 88.64521 381.468597 
L 87.859802 382.757106 
L 87.509253 384.186178 
L 86.963461 384.719152 
L 86.209115 385.796814 
L 85.241777 385.726531 
L 85.064284 385.744102 
L 84.527367 385.662106 
L 81.115059 385.129132 
L 80.791134 385.187701 
L 77.494197 384.836289 
L 76.136374 384.906572 
L 75.72814 384.812862 
L 75.377591 384.970997 
L 75.177911 385.322408 
L 75.279969 385.755816 
L 75.26222 386.41764 
L 75.071415 387.056038 
L 74.964919 388.291834 
L 74.254946 391.735665 
L 73.802338 393.399012 
L 73.655906 394.107692 
L 73.43404 395.226351 
L 73.136739 400.479951 
L 72.914872 401.686463 
L 72.888248 402.389286 
L 72.608696 403.074538 
L 72.617571 403.390808 
L 72.346894 404.105344 
L 72.351331 404.386473 
L 72.191587 404.591463 
L 72.031843 405.288429 
L 71.960846 405.692552 
L 71.983033 407.385184 
L 71.943097 408.134861 
L 72.067342 408.779115 
L 71.98747 409.821636 
L 71.58811 410.624025 
L 71.699043 411.496696 
L 72.138339 412.240517 
L 73.056867 413.130759 
L 73.469538 413.628592 
L 74.210573 414.436838 
L 75.266657 415.573068 
L 75.572833 416.041616 
L 76.092001 416.533592 
L 77.072651 417.435548 
L 77.826997 418.226223 
L 79.51762 419.614298 
L 80.125535 420.117988 
L 81.319177 421.330357 
L 84.181255 423.91323 
L 85.241777 424.709763 
L 85.383772 425.149027 
L 87.074395 426.437535 
L 89.545988 428.821275 
L 89.989721 429.301537 
L 90.500014 429.840368 
L 90.468953 430.103927 
L 89.971972 431.134733 
L 89.661358 431.726276 
L 89.186564 432.768796 
L 88.383407 434.426286 
L 88.11273 435.088111 
L 88.015109 435.457093 
L 85.583451 438.930208 
L 84.90454 439.720884 
L 84.766983 440.060581 
L 84.043698 440.816116 
L 83.617714 441.559936 
L 83.244978 442.180763 
L 83.156232 442.450178 
L 82.796808 442.994866 
L 82.654813 443.281852 
L 81.767347 443.961247 
L 81.647539 444.412225 
L 79.051701 447.733062 
L 78.701151 448.68773 
L 77.782624 450.081661 
L 76.44255 452.008567 
L 75.359841 454.597297 
L 74.432439 456.178648 
L 73.855586 456.852186 
L 72.914872 458.351541 
L 72.78619 459.095362 
L 72.755128 459.722046 
L 72.209337 460.46001 
L 71.814414 460.817278 
L 71.725667 461.197973 
L 71.166564 461.918367 
L 70.718393 462.609476 
L 69.56025 464.126401 
L 69.187514 464.840938 
L 68.517477 465.877601 
L 67.594512 467.253962 
L 67.017659 467.962642 
L 65.983761 469.438569 
L 65.63765 470.147249 
L 65.256039 470.580656 
L 65.193917 471.008207 
L 64.222141 472.507562 
L 63.800595 473.391947 
L 63.19268 474.703882 
L 62.935315 475.125576 
L 62.513769 475.418419 
L 61.422185 477.011484 
L 60.738836 477.685022 
L 60.561343 478.141857 
L 59.980053 478.891534 
L 59.838058 479.371796 
L 59.505258 479.611928 
L 59.074837 480.31475 
L 58.728726 480.783299 
L 58.231745 482.317795 
L 58.213995 482.675063 
L 57.947755 483.120184 
L 58.072001 483.764438 
L 57.934443 484.22713 
L 57.073601 484.801102 
L 55.990892 485.867049 
L 55.813399 486.2946 
L 55.112301 486.973995 
L 54.792813 487.33712 
L 54.468888 488.871616 
L 54.118339 489.176173 
L 52.250223 490.031274 
L 52.174788 490.511536 
L 51.828676 491.36078 
L 51.73993 491.800044 
L 51.438191 492.010891 
L 51.083205 492.022605 
L 50.976709 492.456012 
L 50.244549 493.158835 
L 47.66646 497.809178 
L 47.142855 499.870791 
L 46.872178 500.204632 
L 46.597063 501.001164 
L 46.623687 501.411144 
L 46.366322 501.797697 
L 46.162205 502.764078 
L 46.140018 503.818312 
L 45.611976 504.480137 
L 45.261427 504.784693 
L 43.99235 505.399663 
L 43.313438 505.83307 
L 43.07826 506.459754 
L 42.865268 506.834593 
L 42.767647 507.297284 
L 42.829769 507.795117 
L 42.394911 509.370611 
L 41.83137 509.792305 
L 41.343264 510.864109 
L 40.735349 512.990148 
L 40.85072 513.405985 
L 40.282742 514.108807 
L 39.963254 514.366509 
L 39.599393 515.028334 
L 39.319841 515.291892 
L 38.982604 516.035713 
L 38.374689 516.715108 
L 37.181047 516.920098 
L 35.712291 516.808818 
L 35.224184 517.224655 
L 34.989006 517.458929 
L 33.391567 516.679967 
L 32.424229 516.480834 
L 29.619836 516.211419 
L 28.865489 516.164564 
L 28.270887 516.281701 
L 27.512104 516.316842 
L 26.859816 516.205562 
L 25.741609 516.199705 
L 23.096959 516.322699 
L 22.515669 516.556973 
L 20.754049 516.756106 
L 20.323628 517.166086 
L 19.950892 517.236368 
L 18.792749 517.107517 
L 17.994029 517.335935 
L 17.736664 517.540925 
L 17.599107 517.845481 
L 17.701165 518.542447 
L 18.087213 518.929 
L 21.020289 518.554161 
L 22.063061 519.081278 
L 22.981589 519.081278 
L 22.959402 519.344836 
L 22.644352 519.602538 
L 22.267179 519.977377 
L 22.107435 520.346359 
L 22.227243 520.850048 
L 22.76416 521.060895 
L 23.119146 521.388879 
L 23.096959 521.734433 
L 22.861781 522.220552 
L 22.741973 522.519252 
L 23.021525 523.971752 
L 23.700436 524.949847 
L 24.135295 525.283688 
L 24.765396 525.529676 
L 25.067134 525.799091 
L 25.027198 526.542912 
L 25.253502 526.683476 
L 25.541929 526.865039 
L 26.052222 527.585432 
L 26.584701 528.674807 
L 27.13493 528.750947 
L 27.53429 528.692378 
L 28.00021 528.545957 
L 28.341884 528.815372 
L 28.674684 529.067217 
L 29.606524 529.354203 
L 35.388366 526.226642 
L 32.78809 528.071551 
L 31.115216 529.07893 
L 30.902224 529.313205 
L 30.618235 529.119928 
L 30.587174 529.278064 
L 30.8756 529.775896 
L 31.612197 530.51386 
L 32.348794 530.595856 
L 33.125327 530.238588 
L 33.782052 530.642711 
L 33.653369 530.712993 
L 33.622308 530.865271 
L 33.404879 530.765705 
L 33.307258 530.51386 
L 32.961146 530.449435 
L 32.548474 530.671995 
L 32.344357 530.906269 
L 32.091429 531.33382 
L 31.958309 531.310392 
L 31.678757 531.421673 
L 31.421392 531.35139 
L 29.934886 529.986743 
L 29.322534 529.278064 
L 28.940924 529.055503 
L 27.951399 527.913416 
L 27.765031 527.415583 
L 27.396733 526.109505 
L 27.321298 525.67024 
L 27.565351 524.493012 
L 28.18214 523.327498 
L 29.029671 522.87652 
L 29.424593 522.747669 
L 30.201126 522.689101 
L 32.291109 522.015563 
L 32.92121 521.5353 
L 33.333882 521.096036 
L 33.95067 520.39907 
L 34.132601 520.393213 
L 34.292345 520.545492 
L 33.888548 521.12532 
L 33.679993 521.271742 
L 33.467001 521.728577 
L 33.484751 523.620341 
L 33.733241 524.393446 
L 33.821988 524.762428 
L 33.777615 525.207549 
L 33.96842 525.939656 
L 33.959545 526.291067 
L 34.421028 527.374585 
L 35.166499 528.089122 
L 35.632419 528.510815 
L 36.102776 528.74509 
L 36.57757 529.090644 
L 37.598156 529.67633 
L 38.716364 529.957459 
L 39.031414 529.775896 
L 39.98544 529.705614 
L 41.893493 529.623618 
L 42.386036 530.062882 
L 42.394911 530.502146 
L 42.656713 531.562237 
L 42.789833 532.17135 
L 42.714399 532.639899 
L 43.113759 534.104113 
L 43.810419 535.222772 
L 44.254153 536.159869 
L 44.484894 536.382429 
L 44.813256 536.4 
L 46.792306 535.744032 
L 49.725381 534.748367 
L 51.132015 534.508236 
L 56.652055 532.546189 
L 58.391488 531.696945 
L 64.927677 526.613194 
L 65.859516 525.125553 
L 66.46743 524.674575 
L 66.809105 524.545724 
L 67.594512 523.755049 
L 68.584037 523.011228 
L 68.650597 522.753526 
L 70.390031 522.161984 
L 71.246436 520.445925 
L 71.446116 520.645058 
L 71.765603 520.756339 
L 72.098403 520.598203 
L 72.546574 520.90276 
L 72.883811 520.914474 
L 72.976995 520.527921 
L 72.803939 519.286268 
L 73.012493 517.564352 
L 73.997581 516.99038 
L 72.759566 516.310985 
L 72.852749 516.129423 
L 72.750691 516.223132 
L 73.025805 516.05914 
L 73.571597 516.123566 
L 74.392503 515.432457 
L 74.516749 515.034191 
L 74.769676 514.630068 
L 77.649504 513.200995 
L 79.530932 511.596216 
L 80.569268 510.278424 
L 81.323614 509.610742 
L 82.006963 509.276901 
L 82.668125 508.597506 
L 83.098546 508.374946 
L 83.435783 508.40423 
L 83.653213 508.31052 
L 84.38981 508.773212 
L 84.935601 508.574079 
L 86.470918 507.601841 
L 86.577414 507.467133 
L 92.629933 503.917879 
L 93.104727 503.988161 
L 94.4803 503.742173 
L 95.296769 503.203342 
L 96.911957 501.79184 
L 97.75505 501.188584 
L 98.544895 500.479904 
L 98.797823 500.02307 
L 99.924905 499.091829 
L 100.688125 498.593997 
L 102.627239 497.176638 
L 102.995537 497.018503 
L 103.368273 496.702232 
L 104.144806 496.467958 
L 106.008485 495.694853 
L 105.972986 495.331728 
L 106.248101 495.079883 
L 106.367909 495.06817 
L 106.310224 495.525004 
L 106.585338 495.835418 
L 106.727333 495.847131 
L 106.682959 495.888129 
L 106.682959 495.99941 
L 107.175503 496.186829 
L 107.370746 496.139974 
L 107.916537 496.180972 
L 108.555513 495.940841 
L 108.422393 495.607 
L 108.999246 495.378583 
L 109.465166 496.169258 
L 109.655971 496.33325 
L 110.326008 496.339107 
L 110.92061 496.321537 
L 111.204599 496.491386 
L 111.990007 496.391819 
L 112.242935 496.186829 
L 112.273996 496.022837 
L 112.340556 495.800277 
L 113.467638 493.967081 
L 115.899295 490.804379 
L 119.138547 487.711959 
L 119.955016 486.868572 
L 120.988914 485.433642 
L 123.238641 483.31346 
L 124.525466 481.667684 
L 125.404058 480.918006 
L 125.55049 480.285466 
L 125.612612 479.617784 
L 125.656986 478.797825 
L 125.652548 478.241423 
L 125.377434 475.980677 
L 125.199941 475.336423 
L 124.995824 474.364185 
L 124.973637 473.27481 
L 124.871578 473.110818 
L 124.893765 472.905828 
L 124.787269 472.67741 
L 124.964762 472.13858 
L 125.146693 471.681745 
L 125.15113 471.500182 
L 125.040197 471.277622 
L 124.596464 468.120777 
L 124.463344 467.915787 
L 124.560965 467.27739 
L 124.343536 466.627279 
L 124.521029 465.742893 
L 124.592026 465.52619 
L 124.383472 465.186492 
L 124.321349 464.448528 
L 124.121669 464.243538 
L 124.157168 464.173256 
L 124.117232 463.529002 
L 124.498842 463.651996 
L 125.168879 463.534859 
L 126.9305 463.36501 
L 127.409731 463.183447 
L 127.84459 463.171734 
L 128.306072 462.960887 
L 128.967235 463.283014 
L 131.713942 462.902318 
L 135.1085 462.070645 
L 135.929407 461.836371 
L 137.105299 461.748518 
L 139.670076 461.379536 
L 140.446609 461.238971 
L 140.81047 461.139405 
L 141.200956 461.20383 
L 141.724561 461.004697 
L 142.279227 461.174546 
L 143.716922 461.256542 
L 144.555578 461.010554 
L 145.269988 460.934415 
L 146.916238 460.88756 
L 148.056632 460.946129 
L 151.562123 460.46001 
L 153.838474 460.032459 
L 156.261256 459.962177 
L 156.545245 460.014888 
L 157.26853 459.915322 
L 158.417799 459.903608 
L 161.634864 459.288638 
L 162.593327 459.224213 
L 163.911214 459.194929 
L 166.702296 458.626814 
L 167.367895 458.146552 
L 169.062956 455.598819 
L 169.542187 454.679293 
L 170.265472 452.986662 
L 171.83185 449.806389 
L 172.67938 447.563213 
L 172.772564 447.14152 
L 173.1453 446.473838 
L 173.331668 445.536741 
L 173.85971 444.500078 
L 173.935145 444.464937 
L 174.041641 443.685975 
L 175.017853 442.602457 
L 175.226408 442.292043 
L 175.448275 441.688787 
L 176.056189 440.476418 
L 176.881532 438.315238 
L 178.0663 436.39419 
L 179.18007 434.186155 
L 180.045349 432.382244 
L 180.715386 430.994169 
L 180.87513 430.150781 
L 181.194618 429.506527 
L 181.54073 428.546003 
L 181.749284 427.925176 
L 181.833594 426.554672 
L 182.18858 425.260307 
L 182.246265 424.604339 
L 182.374948 423.901517 
L 182.290639 422.987847 
L 182.525817 422.261597 
L 182.015524 421.664198 
L 181.629476 421.441637 
L 180.861818 421.224933 
L 179.348688 420.522111 
L 176.233682 419.134036 
L 172.284458 417.294983 
L 172.315519 417.119278 
L 172.470826 416.808864 
L 172.572884 416.305175 
L 173.273982 414.735537 
L 173.566846 414.102997 
L 174.343379 412.96091 
L 174.383315 412.615356 
L 174.747176 411.947674 
L 175.261907 410.624025 
L 177.516071 406.887351 
L 179.455184 403.027683 
L 179.672613 402.73484 
L 179.974352 401.926594 
L 180.431397 400.930929 
L 180.990501 400.327672 
L 181.367674 399.560424 
L 182.663374 396.954124 
L 182.574628 396.62614 
L 181.704911 396.134164 
L 181.363236 395.735898 
L 180.29384 395.30249 
L 178.776273 394.46496 
L 177.973116 393.920272 
L 177.391825 393.732853 
L 176.628605 393.568861 
L 176.588669 393.305303 
L 176.042877 393.018317 
L 175.403901 392.743044 
L 174.835923 392.379919 
L 173.429289 391.460393 
L 173.482537 391.108982 
L 173.877459 390.148457 
L 174.121513 389.275786 
L 174.312318 388.67253 
L 174.281257 388.256693 
L 174.929107 386.804193 
L 175.696765 385.890523 
L 176.096125 385.339979 
L 176.806098 383.676632 
L 178.221606 381.193325 
L 178.505595 380.683779 
L 179.49512 379.307418 
L 179.921104 378.264897 
L 180.085285 378.013052 
L 180.347088 377.163808 
L 181.824719 374.692215 
L 182.046585 373.825401 
L 183.68396 370.937971 
L 183.905827 370.323001 
L 184.779981 368.794362 
L 184.979661 368.44295 
L 185.250338 368.308243 
L 185.685197 367.62299 
L 186.035746 366.527758 
L 186.17774 365.725369 
L 186.066807 365.35053 
L 185.52989 364.870268 
L 183.799331 363.710611 
L 183.537529 363.423625 
L 179.002576 360.975459 
L 178.758523 360.946175 
L 178.177233 360.518625 
L 177.60038 360.161356 
L 177.050151 359.815802 
L 175.474898 358.773282 
L 174.236883 358.111457 
L 173.407102 357.619481 
L 172.794751 357.197787 
L 171.729791 356.436396 
L 170.669269 355.809713 
L 170.065792 355.352878 
L 168.410668 354.445065 
L 167.137154 354.105368 
L 167.132717 354.128795 
L 167.030658 354.134652 
L 166.502616 353.976517 
L 166.050008 353.759813 
L 159.788934 350.15199 
L 158.630791 349.132897 
L 157.929693 348.804913 
L 152.107915 346.058048 
L 151.38463 345.460649 
L 150.812214 344.997957 
L 150.661345 344.751969 
L 150.324108 344.570407 
L 150.182113 344.500124 
L 149.849313 344.47084 
L 149.720631 344.535265 
L 149.773879 344.189711 
L 149.60526 343.715306 
L 149.591948 343.416606 
L 150.155489 342.743068 
L 150.142177 342.344801 
L 149.503201 341.600981 
L 148.833164 340.740023 
L 148.345058 340.183622 
L 148.083256 339.996202 
L 147.941261 339.574509 
L 147.555213 339.439801 
L 145.86459 338.338712 
L 145.034809 337.917019 
L 144.107407 336.505516 
L 144.182842 336.236101 
L 144.422458 336.01354 
L 144.963812 334.818742 
L 145.114681 334.701605 
L 145.487417 334.051494 
L 145.88234 333.454095 
L 146.290574 332.88598 
L 147.364408 330.379245 
L 147.324472 329.840415 
L 146.99611 329.40115 
L 142.913765 326.648428 
L 142.567653 326.373156 
L 141.915366 325.740616 
L 141.156582 325.113932 
L 139.430461 324.071412 
L 139.097661 324.047984 
L 137.748712 323.380303 
L 136.324329 322.542772 
L 135.410239 322.097651 
L 134.065728 321.207409 
L 133.271445 320.733004 
L 132.259734 320.123891 
L 131.953558 319.749052 
L 131.199212 319.17508 
L 130.47149 318.560111 
L 128.638872 317.810433 
L 127.77803 317.189606 
L 127.369795 317.019758 
L 126.593263 316.451643 
L 126.118468 316.375503 
L 122.710598 314.50131 
L 120.789234 313.36508 
L 120.465309 312.808678 
L 120.642802 312.217136 
L 120.869106 312.006289 
L 121.135346 311.274182 
L 121.849756 310.137952 
L 122.20918 309.364847 
L 124.059547 306.126006 
L 124.587589 305.516893 
L 125.111194 304.568082 
L 125.182191 304.18153 
L 125.408495 304.052679 
L 125.603738 303.425996 
L 127.210052 300.872407 
L 128.199576 298.676086 
L 128.745368 298.008404 
L 129.211288 297.211872 
L 129.53965 296.667184 
L 130.063255 295.782799 
L 130.777666 294.880843 
L 131.163713 293.984744 
L 131.549761 293.715329 
L 131.847062 293.358061 
L 131.993494 292.309684 
L 132.308545 291.47801 
L 132.645782 291.144169 
L 132.836587 290.734189 
L 133.524373 290.060651 
L 133.710741 289.656528 
L 134.243221 288.830711 
L 134.398527 288.420731 
L 135.081876 287.512919 
L 135.791849 286.271265 
L 136.075838 285.966709 
L 137.074238 283.366265 
L 137.646654 282.212464 
L 137.926205 281.392505 
L 138.401 280.103996 
L 139.825383 278.288371 
L 140.224743 276.888583 
L 141.023462 275.816778 
L 141.378449 275.588361 
L 142.066235 273.725881 
L 142.802832 272.501798 
L 142.967013 272.085961 
L 143.539429 271.441707 
L 144.830692 268.507422 
L 145.345422 267.740174 
L 145.633849 267.359478 
L 145.527353 267.166202 
L 146.312761 265.842553 
L 146.379321 265.420859 
L 146.760931 264.72975 
L 148.114317 262.12345 
L 148.127629 261.660758 
L 148.837602 260.091121 
L 149.15709 259.915415 
L 149.374519 259.493721 
L 149.982433 258.931463 
L 150.173238 258.52734 
L 150.27086 258.047078 
L 150.656907 257.209548 
L 151.003019 256.008892 
L 151.149451 255.73362 
L 151.402379 255.499346 
L 151.455627 255.10108 
L 151.624246 254.6911 
L 152.107915 254.087844 
L 152.254347 253.642723 
L 153.181749 252.073085 
L 153.52786 251.335121 
L 154.015967 250.579587 
L 154.180148 250.157893 
L 155.537971 248.400837 
L 155.946206 247.475453 
L 156.181384 247.100615 
L 157.28628 246.151804 
L 157.654578 245.50755 
L 158.573106 244.213185 
L 159.110023 243.53379 
L 159.491633 242.871965 
L 160.183857 241.618598 
L 160.600966 240.435513 
L 161.253253 239.480846 
L 162.78857 236.201006 
L 163.609476 234.988637 
L 163.875716 234.367811 
L 163.760345 233.676702 
L 164.607875 232.323768 
L 164.905177 231.538949 
L 165.091544 231.263677 
L 165.433219 231.011832 
L 165.681709 230.53157 
L 167.270274 227.521146 
L 167.403394 226.82418 
L 167.798316 225.939795 
L 168.2243 225.231116 
L 168.228737 224.973414 
L 168.530476 224.475581 
L 169.200513 223.011367 
L 169.284822 222.911801 
L 169.378006 222.525248 
L 169.715243 222.367113 
L 169.826176 222.173837 
L 170.123478 221.904422 
L 170.407467 221.365591 
L 170.864512 220.686196 
L 171.286058 219.87795 
L 172.08034 217.851478 
L 172.41314 217.552778 
L 172.981119 217.359502 
L 173.380478 216.633252 
L 173.580158 216.229129 
L 173.855273 215.959713 
L 175.013416 213.493977 
L 175.656829 213.365126 
L 176.007378 212.996144 
L 176.029565 212.474884 
L 176.326866 212.064904 
L 176.664103 211.883342 
L 176.641916 211.385509 
L 177.014652 210.454269 
L 177.303079 209.55817 
L 177.826684 208.345801 
L 178.394662 207.531698 
L 178.931579 206.424752 
L 179.202256 206.249047 
L 180.418085 204.287 
L 180.546768 203.847736 
L 180.715386 202.324953 
L 181.45642 200.76703 
L 181.713786 200.450759 
L 182.099833 199.683511 
L 183.200291 197.428622 
L 183.524217 197.17092 
L 184.890914 194.933601 
L 185.210402 194.523621 
L 185.52989 193.703662 
L 186.080119 192.977412 
L 186.412919 191.835325 
L 186.590412 191.577623 
L 186.656972 190.980224 
L 186.834465 190.822089 
L 186.923212 190.570244 
L 187.44238 190.154407 
L 187.912737 189.81471 
L 187.886113 189.703429 
L 188.103542 188.701907 
L 189.594485 186.183459 
L 189.73648 185.60363 
L 190.100341 185.187794 
L 190.348831 184.912521 
L 190.442015 184.13356 
L 190.446453 183.817289 
L 190.859124 183.231604 
L 191.227423 182.874336 
L 191.063242 182.124658 
L 191.76434 181.093851 
L 192.083828 180.478882 
L 192.248009 180.197753 
L 192.767177 179.629638 
L 193.59252 178.891674 
L 193.983005 178.739395 
L 194.266994 177.907722 
L 194.333554 177.409889 
L 194.537672 176.9062 
L 195.150023 176.285373 
L 195.740188 175.652833 
L 196.112924 174.715736 
L 196.476785 173.83135 
L 197.089137 172.69512 
L 197.155697 172.302711 
L 197.772486 171.76388 
L 198.020976 171.500322 
L 198.393712 171.353901 
L 198.51352 171.02006 
L 199.751535 169.432852 
L 200.261828 168.694888 
L 200.909679 167.693366 
L 200.989551 167.207247 
L 201.970201 165.087065 
L 202.458307 163.81027 
L 202.764483 163.546712 
L 203.026285 163.160159 
L 203.345773 162.328486 
L 203.687448 161.608093 
L 203.83388 160.817417 
L 204.437357 159.88032 
L 204.628162 159.148213 
L 204.28205 158.480532 
L 203.496642 157.818707 
L 203.212653 157.678143 
L 202.999661 157.438011 
L 202.365123 157.244735 
L 200.643439 156.459917 
L 200.3417 156.477487 
L 199.804783 156.219785 
L 198.655515 155.874231 
L 197.878982 155.563818 
L 196.339228 155.083555 
L 194.337992 153.964896 
L 193.472712 153.625198 
L 192.807113 153.103938 
L 191.254047 151.985279 
L 190.220149 151.018898 
L 189.279435 150.638202 
L 187.686433 149.818242 
L 187.362508 149.706962 
L 186.359671 149.191559 
L 185.272525 148.658585 
L 184.669048 148.330601 
L 184.021198 147.867909 
L 182.880804 147.223655 
L 182.281764 146.702395 
L 181.771471 144.816488 
L 181.283364 143.926245 
L 180.551205 143.317132 
L 179.521744 142.432747 
L 179.317627 140.728402 
L 179.193382 139.890872 
L 179.393062 138.491083 
L 179.477371 138.139672 
L 180.023163 138.110388 
L 180.529018 137.706265 
L 180.369274 136.201053 
L 180.16072 134.584561 
L 180.20953 134.227292 
L 180.391461 133.834883 
L 180.316026 133.52447 
L 180.378149 133.055921 
L 180.240592 132.20082 
L 179.770235 131.386717 
L 179.282128 129.4071 
L 179.211131 128.961979 
L 179.703675 128.060023 
L 179.881168 127.099499 
L 179.24663 125.559146 
L 178.989264 125.037886 
L 178.776273 124.030507 
L 178.851707 122.654146 
L 179.015888 122.045033 
L 178.865019 121.412492 
L 179.002576 120.498823 
L 178.989264 120.077129 
L 178.794022 119.760859 
L 179.078011 118.220506 
L 179.459622 117.423974 
L 179.486246 116.57473 
L 179.202256 115.385788 
L 179.188944 114.331554 
L 179.268816 114.179276 
L 179.242192 113.646302 
L 179.353126 113.49988 
L 179.539493 112.656493 
L 179.526182 112.240656 
L 179.184507 110.928721 
L 179.064699 110.231755 
L 178.967078 105.610696 
L 179.024763 104.398327 
L 178.887206 102.898972 
L 178.767398 101.967732 
L 178.718587 101.223911 
L 178.545531 100.620655 
L 178.376913 98.892882 
L 178.510033 97.393527 
L 178.727462 97.05383 
L 178.532219 93.697851 
L 178.758523 92.907176 
L 178.758523 92.438627 
L 178.96264 92.139928 
L 178.98039 91.038839 
L 179.184507 90.669857 
L 179.291003 88.549675 
L 179.477371 88.057699 
L 179.543931 85.966802 
L 179.916667 85.293263 
L 179.952165 84.947709 
L 180.200656 84.731005 
L 180.422522 84.05161 
L 180.524581 83.571348 
L 181.314426 82.581539 
L 181.611727 81.913858 
L 182.108708 81.064614 
L 182.099833 80.771771 
L 182.729934 80.057234 
L 183.204729 79.571115 
L 183.905827 78.253323 
L 184.868728 77.01167 
L 185.219277 76.584119 
L 185.481079 75.606024 
L 186.17774 74.832919 
L 186.31086 74.428796 
L 186.679159 73.819683 
L 187.29151 72.5956 
L 187.912737 71.55308 
L 188.218913 70.92054 
L 189.612234 68.812072 
L 189.816352 68.062394 
L 190.286709 67.382999 
L 190.78369 66.322908 
L 191.23186 65.813362 
L 192.252446 63.294914 
L 193.117726 61.760417 
L 193.401715 61.016597 
L 196.041927 56.067554 
L 197.279942 54.246072 
L 197.586118 53.273834 
L 198.526832 51.692483 
L 199.356613 50.222412 
L 200.883055 47.557542 
L 201.3401 46.895718 
L 202.094446 45.390506 
L 203.150531 43.633449 
L 203.412333 42.860344 
L 204.566039 40.675737 
L 206.691521 37.0562 
L 207.148566 36.324093 
L 208.200213 34.572893 
L 208.586261 33.875928 
L 208.506389 33.858357 
L 208.701631 32.405857 
L 208.643946 32.4 
L 208.865813 32.739698 
L 208.80369 32.663559 
L 208.497514 32.80998 
L 208.799253 33.296099 
L 208.914623 33.952067 
L 209.220799 33.981351 
L 209.930772 34.127772 
L 210.312382 34.309335 
L 210.76499 34.397188 
L 211.69683 34.801311 
L 211.923134 34.924305 
L 212.504424 35.908257 
L 213.622631 36.452944 
L 214.399164 36.839497 
L 214.603281 37.021059 
L 215.051452 37.308045 
L 215.326566 37.524749 
L 215.317692 37.723882 
L 215.956667 38.432561 
L 216.782011 38.555555 
L 218.024463 39.457511 
L 218.42826 39.674215 
L 218.89418 39.879205 
L 219.116047 40.060767 
L 222.10237 40.839729 
L 222.625975 41.003721 
L 222.878903 41.06229 
L 223.296012 41.407844 
L 223.296012 41.407844 
" style="fill:none;stroke:#000000;stroke-width:3;"/>
   </g>
  </g>
 </g>
 <defs>
  <clipPath id="p23c149ffed">
   <rect height="554.4" width="228.780344" x="7.2" y="7.2"/>
  </clipPath>
 </defs>
</svg>
