<?xml version="1.0" encoding="utf-8" standalone="no"?>
<!DOCTYPE svg PUBLIC "-//W3C//DTD SVG 1.1//EN"
  "http://www.w3.org/Graphics/SVG/1.1/DTD/svg11.dtd">
<svg height="568.8pt" version="1.1" viewBox="0 0 389.169776 568.8" width="389.169776pt" xmlns="http://www.w3.org/2000/svg" xmlns:xlink="http://www.w3.org/1999/xlink">
 <metadata>
  <rdf:RDF xmlns:cc="http://creativecommons.org/ns#" xmlns:dc="http://purl.org/dc/elements/1.1/" xmlns:rdf="http://www.w3.org/1999/02/22-rdf-syntax-ns#">
   <cc:Work>
    <dc:type rdf:resource="http://purl.org/dc/dcmitype/StillImage"/>
    <dc:date>2021-07-25T01:59:34.446476</dc:date>
    <dc:format>image/svg+xml</dc:format>
    <dc:creator>
     <cc:Agent>
      <dc:title>Matplotlib v3.4.2, https://matplotlib.org/</dc:title>
     </cc:Agent>
    </dc:creator>
   </cc:Work>
  </rdf:RDF>
 </metadata>
 <defs>
  <style type="text/css">*{stroke-linecap:butt;stroke-linejoin:round;}</style>
 </defs>
 <g id="figure_1">
  <g id="patch_1">
   <path d="M 0 568.8 
L 389.169776 568.8 
L 389.169776 0 
L 0 0 
z
" style="fill:#ffffff;"/>
  </g>
  <g id="axes_1">
   <g id="LineCollection_1">
    <path clip-path="url(#p6317ed0276)" d="M 289.414931 32.682774 
L 289.36323 32.448754 
L 289.562647 32.4 
L 289.171199 32.76078 
L 289.459245 32.926544 
L 289.791607 33.00455 
L 291.482956 33.96013 
L 293.181691 34.662189 
L 293.624839 35.003467 
L 294.917355 35.052221 
L 295.426976 35.539762 
L 295.892281 35.578765 
L 296.867208 35.968797 
L 298.085866 36.251571 
L 298.425613 36.729361 
L 299.009091 36.895125 
L 299.430082 37.480173 
L 300.405008 37.840953 
L 301.054959 38.426002 
L 301.697524 38.738028 
L 301.852626 39.050054 
L 302.0742 39.986132 
L 302.088972 40.044637 
L 302.679836 40.064139 
L 303.278086 39.069556 
L 303.728621 38.699025 
L 304.681389 38.143229 
L 305.05068 37.343662 
L 306.047763 35.198483 
L 306.56477 35.013218 
L 307.21472 35.256988 
L 307.613554 35.617768 
L 310.87808 36.592849 
L 316.446977 38.074973 
L 318.027539 38.708776 
L 318.692261 39.059805 
L 319.320055 39.557096 
L 319.903533 39.869122 
L 321.853386 41.439003 
L 322.968642 42.36533 
L 323.493035 42.628602 
L 325.590603 44.130228 
L 326.979134 44.959047 
L 328.36028 45.670856 
L 336.890885 48.927627 
L 337.503907 49.44442 
L 340.569016 50.702275 
L 342.504096 51.531094 
L 344.335776 52.847454 
L 345.052199 53.198483 
L 346.270857 54.212568 
L 346.780478 54.739112 
L 347.99175 56.718527 
L 348.759873 59.087974 
L 349.04792 60.638353 
L 349.852972 63.661105 
L 350.214877 65.182232 
L 352.275516 68.838787 
L 353.523717 69.969881 
L 353.966866 70.038137 
L 354.373085 70.184399 
L 355.126437 70.623185 
L 356.537126 72.83662 
L 357.21662 73.626436 
L 357.933043 74.191983 
L 359.373275 76.483424 
L 360.84305 78.297075 
L 362.371912 80.061972 
L 364.122348 81.83662 
L 364.565496 82.021885 
L 364.816613 82.363164 
L 364.920014 82.821452 
L 364.934786 83.416251 
L 364.668897 84.0013 
L 364.181434 84.557096 
L 363.834301 85.288407 
L 363.368995 86.712026 
L 362.72643 88.096641 
L 362.275896 88.671939 
L 361.884449 89.393499 
L 361.736733 90.183315 
L 359.87551 93.703359 
L 359.173858 95.117226 
L 358.04383 97.2039 
L 357.393879 97.701192 
L 356.935959 98.383749 
L 356.433725 100.041387 
L 355.229838 102.128061 
L 354.587273 103.649187 
L 353.154427 106.262405 
L 351.832368 109.587432 
L 351.684652 110.221235 
L 351.138102 111.215818 
L 350.200105 113.985049 
L 350.081932 114.560347 
L 349.919445 114.570098 
L 349.32858 115.223402 
L 349.225179 115.301408 
L 348.900204 116.344745 
L 348.013907 117.300325 
L 347.504286 118.704442 
L 346.056669 121.288407 
L 344.897097 122.926544 
L 341.049093 129.547346 
L 340.170182 130.67844 
L 339.78612 131.409751 
L 339.586704 132.131311 
L 338.257259 134.988299 
L 336.026746 139.073889 
L 335.465424 140.556013 
L 334.955804 141.092308 
L 333.892248 143.188732 
L 333.397399 143.803034 
L 333.094581 144.651354 
L 332.570189 145.236403 
L 332.112269 146.016468 
L 331.558334 146.64052 
L 329.578938 150.024052 
L 328.928987 150.628602 
L 327.798959 152.75428 
L 326.964363 154.031636 
L 325.450273 156.752113 
L 324.659992 158.897291 
L 323.58905 160.662189 
L 323.057272 161.061972 
L 322.473793 162.427086 
L 322.193133 163.109642 
L 321.690898 163.665439 
L 320.93016 164.894041 
L 320.671657 165.488841 
L 320.509169 166.259155 
L 320.110336 166.834453 
L 319.992163 167.439003 
L 316.882739 172.948212 
L 315.693625 174.469339 
L 314.519282 176.565764 
L 313.795473 178.457421 
L 313.692071 179.013218 
L 312.406941 180.973131 
L 312.347855 181.528927 
L 311.838234 182.738028 
L 311.535416 183.917876 
L 310.663891 185.692524 
L 309.725894 187.603684 
L 308.300434 189.661105 
L 308.115789 190.099892 
L 307.694798 190.567931 
L 307.096548 191.484507 
L 306.660785 192.079307 
L 306.372739 192.683857 
L 305.671087 193.385915 
L 304.607531 195.852871 
L 303.558747 197.237486 
L 303.255929 198.105309 
L 302.642907 198.817118 
L 302.266231 199.470423 
L 301.712296 200.104225 
L 300.308993 202.473673 
L 299.430082 203.936295 
L 299.038634 204.59935 
L 298.839218 205.359913 
L 297.975078 206.773781 
L 297.67226 207.446587 
L 297.221726 208.948212 
L 296.224643 210.11831 
L 295.456519 211.580932 
L 295.249716 212.458505 
L 294.902584 213.209317 
L 294.407735 213.813868 
L 293.67654 215.208234 
L 292.886259 216.407584 
L 292.221536 217.840953 
L 290.729604 220.44442 
L 290.33077 222.00455 
L 289.791607 222.706609 
L 288.897924 224.442254 
L 287.812211 226.021885 
L 287.575865 226.567931 
L 287.132717 227.094475 
L 286.815127 227.660022 
L 286.637868 228.332828 
L 286.298121 228.654605 
L 285.87713 229.590683 
L 285.825429 230.068472 
L 284.953904 231.297075 
L 284.340883 231.453088 
L 282.730777 233.695775 
L 281.128057 237.098808 
L 280.943412 237.469339 
L 280.537193 237.947129 
L 280.153131 238.902709 
L 279.296378 240.072806 
L 278.572569 241.398917 
L 277.944775 242.715276 
L 276.607945 245.328494 
L 275.810278 245.543012 
L 275.086469 246.147562 
L 274.850123 246.908126 
L 274.059842 248.048971 
L 273.786567 248.64377 
L 273.860425 249.287324 
L 273.771796 249.677356 
L 273.387734 249.833369 
L 272.774712 250.827952 
L 272.198619 251.305742 
L 271.578212 252.592849 
L 271.179378 253.177898 
L 270.691915 253.626436 
L 270.256153 254.972048 
L 269.613587 255.771614 
L 269.163053 256.727194 
L 268.742063 257.126977 
L 268.365386 258.277573 
L 267.61942 258.696858 
L 267.331374 259.19415 
L 266.511549 260.15948 
L 266.046244 260.88104 
L 266.149645 261.514843 
L 265.905913 262.207151 
L 264.775885 263.04572 
L 264.295808 263.699025 
L 263.874817 264.761863 
L 264.007762 265.756446 
L 262.781718 268.496425 
L 261.976665 269.647021 
L 261.223313 271.694691 
L 260.639834 272.03597 
L 260.499504 273.537595 
L 259.886482 274.766197 
L 257.862772 276.891874 
L 257.065105 278.715276 
L 256.19358 279.787866 
L 255.683959 280.275406 
L 255.078323 281.367497 
L 254.812434 281.913543 
L 253.881823 282.898375 
L 253.290959 282.976381 
L 252.973369 284.224485 
L 252.375119 285.384832 
L 252.227403 286.116143 
L 250.624683 290.328494 
L 248.933334 292.171398 
L 248.940719 292.834453 
L 247.951022 295.496425 
L 247.426629 296.110726 
L 247.042568 296.861538 
L 245.971626 299.894041 
L 245.314289 301.298158 
L 244.922842 301.970964 
L 244.479693 303.472589 
L 243.955301 304.106392 
L 243.62294 304.91571 
L 243.460452 305.725027 
L 242.625856 307.070639 
L 242.034992 307.489924 
L 241.289026 308.650271 
L 240.978822 309.157313 
L 240.661232 309.937378 
L 240.151612 310.43467 
L 239.198843 311.731528 
L 238.99204 312.35558 
L 233.792434 321.23857 
L 233.504387 321.862622 
L 233.135097 323.227736 
L 230.335877 328.522427 
L 230.092145 329.312243 
L 229.264935 330.862622 
L 227.699144 333.271073 
L 225.741906 335.786782 
L 225.549875 335.942795 
L 225.512946 335.88429 
L 225.520332 335.64052 
L 225.468631 335.650271 
L 225.232286 335.543012 
L 225.217514 335.718527 
L 225.084569 335.767281 
L 224.76698 336.781365 
L 223.85114 338.234236 
L 223.16426 339.950379 
L 222.662025 340.749946 
L 222.462609 341.188732 
L 222.610325 341.413001 
L 222.19672 343.138895 
L 221.797886 343.938462 
L 221.480297 344.16273 
L 221.000219 344.786782 
L 220.660472 345.518093 
L 219.131611 347.429252 
L 216.125588 352.1974 
L 215.704597 352.616685 
L 215.106347 354.108559 
L 214.796143 354.800867 
L 214.050177 355.688191 
L 213.85076 356.273239 
L 213.149109 357.228819 
L 212.558244 357.706609 
L 211.472531 358.788949 
L 211.221414 359.383749 
L 211.125398 359.968797 
L 209.722095 363.011051 
L 209.374962 363.313326 
L 209.013058 364.298158 
L 208.917042 364.746696 
L 208.503437 365.185482 
L 208.119376 366.589599 
L 207.609755 367.067389 
L 207.233079 368.452004 
L 206.199066 369.573348 
L 205.416171 370.821452 
L 205.009952 371.386999 
L 204.330458 372.674106 
L 203.93901 373.229902 
L 203.429389 373.532178 
L 203.783908 374.497508 
L 203.62142 375.570098 
L 202.528321 377.40325 
L 202.269818 378.056555 
L 201.021617 379.987216 
L 200.622784 381.323077 
L 199.455826 383.507259 
L 198.997906 383.897291 
L 198.503057 384.628602 
L 198.274098 385.369664 
L 197.875264 386.149729 
L 197.395187 387.680607 
L 196.494119 389.201733 
L 196.043584 389.845287 
L 195.341933 391.346912 
L 194.581195 392.536511 
L 194.182362 393.209317 
L 193.606269 394.603684 
L 192.867688 395.871289 
L 190.932607 399.079307 
L 190.755348 399.810618 
L 189.603163 401.478007 
L 188.42882 402.911376 
L 188.185088 404.032719 
L 187.65331 404.510509 
L 187.018131 404.63727 
L 186.604526 404.949296 
L 186.478967 405.534345 
L 185.644371 407.055471 
L 185.046121 408.917876 
L 184.418327 409.493174 
L 183.975179 410.351246 
L 184.019494 411.414085 
L 183.731448 412.145395 
L 183.413858 412.623185 
L 182.904237 412.837703 
L 182.379845 413.569014 
L 182.232129 413.978548 
L 181.013471 414.943879 
L 180.474308 417.625352 
L 180.090246 418.346912 
L 179.565854 419.087974 
L 179.270421 419.721777 
L 178.731258 420.297075 
L 177.645544 422.237486 
L 177.490442 423.154063 
L 177.261482 423.807367 
L 176.426887 425.016468 
L 175.946809 426.566847 
L 175.060513 427.551679 
L 174.875867 428.117226 
L 174.056043 429.219068 
L 173.206676 431.15948 
L 172.815228 431.666522 
L 171.485783 434.87454 
L 171.559641 435.323077 
L 171.005706 436.493174 
L 170.016008 437.858288 
L 169.617174 438.969881 
L 169.513773 439.515926 
L 169.196183 439.837703 
L 168.701335 440.88104 
L 169.159254 442.967714 
L 169.122325 443.767281 
L 169.299585 443.386999 
L 170.067708 444.23532 
L 172.327765 446.439003 
L 172.586268 447.053304 
L 173.56858 447.404334 
L 174.299775 447.404334 
L 174.802009 446.916793 
L 175.200843 446.887541 
L 175.407645 446.575515 
L 176.91435 446.848537 
L 176.906964 446.653521 
L 177.180239 446.819285 
L 177.778489 446.9948 
L 179.181792 447.267822 
L 179.647097 447.024052 
L 180.326592 447.287324 
L 180.917456 447.745612 
L 181.59695 448.106392 
L 182.379845 447.999133 
L 183.059339 448.233153 
L 183.583731 448.086891 
L 184.927948 448.184399 
L 185.600056 448.32091 
L 186.043205 448.56468 
L 186.405109 449.071723 
L 187.402193 449.939545 
L 188.007829 450.154063 
L 188.628236 450.631853 
L 188.857196 451.129144 
L 188.967983 451.655688 
L 189.440675 452.250488 
L 189.53669 452.591766 
L 189.470218 453.342579 
L 188.657779 455.16598 
L 188.384505 456.014301 
L 188.044758 456.628602 
L 188.007829 457.32091 
L 187.535137 457.935211 
L 185.127365 464.663272 
L 184.735917 465.36533 
L 184.181982 465.901625 
L 183.56896 467.295991 
L 183.088883 467.88104 
L 182.017941 470.172481 
L 181.855453 470.981798 
L 181.567407 471.732611 
L 181.412305 472.473673 
L 181.116873 473.28299 
L 180.407835 474.833369 
L 179.898215 476.149729 
L 179.551082 476.510509 
L 179.011918 477.641603 
L 178.531841 478.831203 
L 178.33981 479.318743 
L 178.265952 479.991549 
L 177.246711 481.853954 
L 176.190541 483.384832 
L 175.865565 483.765114 
L 175.651377 484.213651 
L 175.562747 484.720693 
L 175.252544 484.876706 
L 174.499191 485.686024 
L 173.967413 486.661105 
L 173.162361 487.655688 
L 172.992487 488.172481 
L 172.630583 488.699025 
L 172.475481 489.95688 
L 172.231749 490.44442 
L 171.921545 490.814951 
L 171.692586 491.497508 
L 171.271595 491.985049 
L 170.939233 492.59935 
L 170.828446 493.047887 
L 168.317273 497.689274 
L 167.526992 498.674106 
L 166.692396 500.009967 
L 166.197547 501.579848 
L 165.643611 501.833369 
L 165.385108 502.379415 
L 165.037975 502.779198 
L 164.506197 503.725027 
L 163.738074 504.612351 
L 162.593274 507.11831 
L 162.105811 507.820368 
L 160.732051 510.657855 
L 159.705424 512.04247 
L 158.9373 513.524594 
L 157.947603 515.230986 
L 156.692016 517.454171 
L 156.219324 518.663272 
L 155.148382 520.749946 
L 154.372873 521.803034 
L 152.408249 523.743445 
L 149.513013 525.488841 
L 148.634102 525.849621 
L 148.139254 525.781365 
L 146.891053 525.0013 
L 145.155388 523.645937 
L 144.48328 523.528927 
L 144.180462 523.294908 
L 143.33848 522.953629 
L 142.68853 522.573348 
L 142.393097 521.910293 
L 142.415255 521.442254 
L 142.917489 520.788949 
L 143.279394 520.359913 
L 143.552669 520.07714 
L 143.988431 519.00455 
L 144.416808 518.575515 
L 144.653154 518.126977 
L 144.727012 517.697941 
L 145.155388 517.190899 
L 145.820111 516.5961 
L 147.393287 513.310076 
L 147.666562 512.949296 
L 147.703491 512.676273 
L 148.154025 512.305742 
L 148.382985 511.68169 
L 148.301741 510.979632 
L 147.614861 511.896208 
L 147.570547 511.788949 
L 147.45976 511.55493 
L 146.787651 513.349079 
L 146.647321 513.651354 
L 146.639935 513.96338 
L 145.731481 515.113976 
L 145.022444 515.328494 
L 144.431579 515.055471 
L 143.168607 514.187649 
L 142.755002 513.846371 
L 142.37094 513.466089 
L 140.103498 512.666522 
L 139.542177 512.383749 
L 139.246744 512.071723 
L 136.971916 511.330661 
L 135.960061 511.008884 
L 133.965894 510.59935 
L 133.153455 510.306826 
L 132.37056 509.87779 
L 132.067742 509.565764 
L 131.255303 509.341495 
L 130.014488 508.697941 
L 129.859386 508.532178 
L 128.692429 508.171398 
L 128.190194 508.064139 
L 127.665802 507.820368 
L 127.333441 507.225569 
L 126.86075 506.777031 
L 125.110314 505.733694 
L 124.519449 505.480173 
L 123.758711 505.372914 
L 123.337721 505.1974 
L 122.901958 504.875623 
L 122.525282 504.339328 
L 122.023047 503.929794 
L 120.723146 503.510509 
L 120.102738 503.373998 
L 119.43063 503.032719 
L 118.876694 502.457421 
L 116.956385 501.336078 
L 116.572323 500.916793 
L 115.265036 500.292741 
L 113.05668 499.551679 
L 109.245605 497.543012 
L 108.543953 496.67519 
L 107.997404 496.255905 
L 107.45824 495.83662 
L 103.986912 493.964464 
L 102.531908 492.930878 
L 102.177389 492.628602 
L 100.825787 492.063055 
L 100.367867 491.712026 
L 98.262913 490.717443 
L 97.716363 490.288407 
L 97.191971 490.112893 
L 95.951156 489.508342 
L 94.732498 489.089057 
L 94.363208 489.030553 
L 93.211022 488.611268 
L 92.679244 488.465005 
L 91.741247 487.55818 
L 89.163601 485.988299 
L 85.441155 483.560347 
L 85.049708 483.141062 
L 84.111711 482.673023 
L 81.578379 481.239653 
L 80.411422 480.36208 
L 76.917936 478.528927 
L 75.758365 477.505092 
L 74.680038 476.647021 
L 72.213179 475.457421 
L 70.588302 474.248321 
L 69.591218 473.829036 
L 66.570424 472.600433 
L 65.48471 471.869122 
L 63.571787 470.806284 
L 62.788892 470.767281 
L 61.80658 470.113976 
L 61.311731 470.055471 
L 59.37665 469.070639 
L 58.771014 468.631853 
L 58.342637 468.173564 
L 57.847788 467.890791 
L 57.426797 467.500758 
L 56.991035 467.27649 
L 56.673445 466.983965 
L 56.267226 466.769447 
L 55.048568 466.408667 
L 53.785595 465.306826 
L 53.394148 465.258072 
L 52.500465 464.321993 
L 52.042545 463.863705 
L 50.735258 463.132394 
L 50.454597 463.190899 
L 50.011449 463.015385 
L 46.48842 460.148646 
L 46.229917 460.158397 
L 45.971414 459.982882 
L 45.136818 459.904875 
L 44.331765 459.592849 
L 44.154506 459.592849 
L 44.065876 459.407584 
L 44.110191 459.544095 
L 42.817675 458.861538 
L 40.949066 457.827952 
L 40.594548 457.55493 
L 38.282791 456.287324 
L 37.411266 456.267822 
L 36.133522 455.838787 
L 34.60466 455.565764 
L 33.991638 455.117226 
L 33.563261 454.610184 
L 32.839453 454.43467 
L 32.100872 454.064139 
L 31.738968 453.654605 
L 31.266276 453.469339 
L 30.128862 453.264572 
L 29.789115 453.342579 
L 29.656171 453.60585 
L 28.68863 453.459588 
L 28.710788 452.016468 
L 29.102235 451.372914 
L 29.316424 449.988299 
L 29.508455 449.676273 
L 29.493683 448.964464 
L 29.338581 448.857205 
L 29.360738 448.56468 
L 28.902819 448.067389 
L 26.864336 446.058722 
L 24.500879 443.855038 
L 24.23499 443.123727 
L 24.545194 443.318743 
L 24.552579 442.948212 
L 24.626437 442.704442 
L 25.704765 441.417335 
L 26.074055 440.920043 
L 26.672305 440.666522 
L 26.709234 439.974215 
L 26.975123 439.701192 
L 27.226241 439.857205 
L 27.647232 439.574431 
L 27.876192 439.125894 
L 27.913121 438.648104 
L 28.385812 438.072806 
L 28.585229 437.536511 
L 28.651701 436.863705 
L 29.789115 435.752113 
L 30.165791 435.137811 
L 30.025461 434.972048 
L 30.114091 434.718527 
L 30.461223 434.123727 
L 31.48785 432.83662 
L 31.857141 432.134561 
L 32.780366 431.100975 
L 32.758209 430.818202 
L 33.024098 430.096641 
L 34.191055 428.829036 
L 34.789305 427.415168 
L 35.490957 425.972048 
L 36.458497 423.865872 
L 37.26355 422.76403 
L 37.448195 422.139978 
L 37.898729 421.808451 
L 38.585609 420.092308 
L 39.937211 418.181148 
L 42.795518 413.422752 
L 43.150036 412.701192 
L 43.659657 411.969881 
L 45.232833 408.966631 
L 45.373164 408.761863 
L 45.218062 408.849621 
L 45.225447 408.830119 
L 43.866459 410.87779 
L 43.910774 410.819285 
L 44.065876 410.848537 
L 44.110191 410.9948 
L 44.427781 410.955796 
L 44.531182 410.897291 
L 44.65674 410.653521 
L 44.870929 409.970964 
L 45.9788 407.942795 
L 46.045272 407.494258 
L 46.702608 406.509426 
L 47.463346 405.495341 
L 48.696776 403.155146 
L 48.763248 402.618852 
L 49.191625 401.770531 
L 49.37627 401.058722 
L 49.42797 400.990466 
L 49.317183 401.253738 
L 49.354112 401.409751 
L 49.553529 401.556013 
L 51.363051 402.404334 
L 51.71757 402.794366 
L 54.435546 404.256988 
L 60.617465 406.782449 
L 61.843509 407.435753 
L 62.54516 407.582015 
L 63.719503 408.284074 
L 64.251281 408.635103 
L 65.920473 409.220152 
L 67.427177 409.649187 
L 67.988498 409.649187 
L 69.369644 410.234236 
L 70.462743 411.024052 
L 72.072848 412.68169 
L 73.151176 413.569014 
L 75.817452 415.119393 
L 77.597431 416.377248 
L 77.959335 416.972048 
L 78.491113 417.381582 
L 80.440965 418.278657 
L 82.701022 419.751029 
L 83.033383 420.336078 
L 83.446988 420.794366 
L 85.300825 421.476923 
L 86.800144 422.27649 
L 87.900628 422.608017 
L 89.865253 423.280823 
L 90.950966 424.002384 
L 91.039596 424.060888 
L 92.442898 424.538678 
L 93.048534 424.840953 
L 93.632013 425.260238 
L 95.279048 426.069556 
L 96.372147 426.83987 
L 97.672048 427.454171 
L 98.085653 427.883207 
L 98.728218 428.253738 
L 99.97642 428.770531 
L 100.966117 429.404334 
L 101.283707 429.950379 
L 101.763784 430.311159 
L 102.236476 430.467172 
L 104.503918 431.647021 
L 104.895366 432.027302 
L 108.071262 433.538678 
L 108.462709 433.879957 
L 109.851241 434.318743 
L 110.951726 434.981798 
L 111.106828 435.196316 
L 111.143757 435.518093 
L 110.826167 436.522427 
L 110.124516 437.663272 
L 108.728598 440.432503 
L 108.322379 441.11506 
L 107.066792 444.410834 
L 106.276511 445.502925 
L 105.641332 446.790033 
L 105.545316 447.48234 
L 104.297115 449.510509 
L 104.134628 450.11506 
L 103.167087 451.723944 
L 101.918886 454.337161 
L 101.549596 454.980715 
L 101.121219 456.277573 
L 99.267382 460.158397 
L 98.920249 460.860455 
L 98.499259 461.416251 
L 95.404606 467.266739 
L 94.606939 468.768364 
L 93.890516 469.772698 
L 93.668942 470.308992 
L 92.716173 471.83987 
L 90.877108 475.496425 
L 90.57429 475.857205 
L 89.791395 476.354496 
L 89.451647 476.676273 
L 89.082357 477.670856 
L 88.727839 478.168147 
L 87.420551 481.249404 
L 86.585955 483.033803 
L 86.54164 483.501842 
L 85.145723 485.812784 
L 84.628717 486.856121 
L 84.525316 487.294908 
L 83.853207 488.026219 
L 83.188485 489.264572 
L 83.136784 489.47909 
L 83.269729 489.781365 
L 83.181099 490.239653 
L 83.631633 491.078223 
L 84.192954 491.312243 
L 85.411612 491.536511 
L 86.342224 492.287324 
L 86.689356 492.35558 
L 87.051261 492.287324 
L 89.710151 493.32091 
L 94.917143 496.616685 
L 95.596637 496.811701 
L 97.265829 497.601517 
L 98.440172 498.079307 
L 98.875935 498.449837 
L 101.054747 499.463922 
L 104.097699 501.36533 
L 106.675345 502.68169 
L 110.176216 504.700108 
L 111.387488 505.285157 
L 112.081754 505.772698 
L 114.038992 506.728277 
L 115.501382 507.898375 
L 116.816055 508.600433 
L 122.059976 511.905959 
L 122.584368 512.354496 
L 124.445591 512.949296 
L 125.021684 513.222319 
L 126.055697 513.904875 
L 126.594861 514.265655 
L 127.577173 515.201733 
L 128.212352 515.52351 
L 128.832759 515.699025 
L 132.05297 517.463922 
L 132.68815 517.736945 
L 133.847721 517.892958 
L 134.438585 518.058722 
L 135.022064 518.429252 
L 135.605543 518.64377 
L 137.540623 520.018635 
L 138.175803 520.428169 
L 140.192127 521.559263 
L 140.753449 521.695775 
L 141.159668 521.910293 
L 141.669288 522.612351 
L 143.404953 523.626436 
L 144.527595 524.006717 
L 144.985515 524.27974 
L 145.428663 524.386999 
L 146.610392 525.059805 
L 146.735951 525.449837 
L 147.216028 525.635103 
L 147.925065 526.171398 
L 148.582402 526.054388 
L 150.207279 526.473673 
L 150.702128 526.688191 
L 151.211748 526.785699 
L 152.19406 527.565764 
L 153.117286 528.111809 
L 154.033126 528.638353 
L 154.210385 528.940628 
L 154.720006 529.252654 
L 155.510287 530.910293 
L 156.640315 531.446587 
L 158.095319 531.670856 
L 159.173646 532.411918 
L 161.08657 533.104225 
L 161.788221 533.065222 
L 163.413098 533.952546 
L 164.292009 534.527844 
L 166.005516 535.600433 
L 166.22709 536.136728 
L 166.190161 536.390249 
L 166.204932 536.4 
L 166.485593 536.370748 
L 166.463436 536.4 
L 166.692396 536.234236 
L 169.004153 536.253738 
L 168.88598 536.087974 
L 169.092782 536.331744 
L 168.849051 536.16598 
L 165.806099 534.664355 
L 165.444195 533.981798 
L 162.563731 532.148646 
L 161.921166 531.661105 
L 161.160428 531.436836 
L 160.355375 531.446587 
L 158.560624 530.617768 
L 157.851587 530.354496 
L 157.164707 529.886457 
L 156.31534 529.56468 
L 156.285796 529.486674 
L 155.931278 529.272156 
L 155.044981 527.448754 
L 155.008052 526.376165 
L 154.993281 525.430336 
L 155.096682 524.933044 
L 155.052367 523.528927 
L 155.414271 521.978548 
L 155.591531 521.481257 
L 156.197167 520.164897 
L 157.408439 517.717443 
L 157.814658 517.619935 
L 158.508924 516.83987 
L 159.173646 516.24507 
L 159.542936 515.894041 
L 159.85314 515.406501 
L 160.355375 513.846371 
L 160.990554 512.608017 
L 161.463246 512.120477 
L 162.19444 510.375081 
L 162.05411 509.897291 
L 160.894539 509.419502 
L 159.25489 508.697941 
L 157.268108 507.323077 
L 157.28288 507.703359 
L 157.356738 506.894041 
L 156.22671 506.533261 
L 155.185311 505.899458 
L 154.675691 505.792199 
L 154.202999 505.55818 
L 152.644595 504.085807 
L 151.750912 503.354496 
L 150.502711 502.652438 
L 149.80106 502.379415 
L 149.357911 502.057638 
L 148.124482 501.492091 
L 146.795037 501.287324 
L 143.294166 499.951463 
L 142.762388 500.126977 
L 141.949949 499.103142 
L 141.780076 499.171398 
L 141.011952 498.830119 
L 140.672205 498.635103 
L 140.184742 498.225569 
L 139.80068 497.611268 
L 138.382605 496.343662 
L 137.023617 495.48559 
L 136.336737 495.144312 
L 134.778332 494.842037 
L 134.098838 494.413001 
L 133.352872 494.169231 
L 131.942183 493.086891 
L 131.336547 492.628602 
L 131.114973 492.228819 
L 128.640729 491.019718 
L 127.215268 490.610184 
L 126.417601 490.259155 
L 125.575619 490.034886 
L 124.704094 489.527844 
L 123.891656 489.303575 
L 123.234319 489.0013 
L 122.732085 488.543012 
L 122.252007 487.821452 
L 118.788065 486.466089 
L 116.594481 484.43792 
L 113.204396 482.175731 
L 111.394874 481.239653 
L 111.003426 480.878873 
L 109.954642 480.371831 
L 109.496722 480.098808 
L 108.979716 479.972048 
L 107.864459 479.601517 
L 105.840749 478.889707 
L 104.93968 478.392416 
L 104.319273 478.187649 
L 102.77564 477.193066 
L 102.059217 476.832286 
L 101.342793 476.598267 
L 100.729772 476.256988 
L 98.912864 475.827952 
L 97.14027 475.047887 
L 96.726665 474.59935 
L 96.194887 474.306826 
L 95.175646 473.955796 
L 94.311507 473.029469 
L 94.163791 471.869122 
L 94.075161 471.713109 
L 92.073608 470.552763 
L 90.426574 470.074973 
L 89.023271 469.626436 
L 87.871085 469.382665 
L 87.125119 469.275406 
L 85.389455 468.251571 
L 83.077698 466.886457 
L 81.969827 465.930878 
L 80.167691 464.946046 
L 79.466039 464.751029 
L 78.816088 464.858288 
L 77.198597 464.204984 
L 76.267986 463.571181 
L 75.34476 462.615601 
L 74.133488 461.923294 
L 73.09209 461.230986 
L 72.826201 460.840953 
L 73.631253 458.88104 
L 74.089173 457.759697 
L 75.012399 456.804117 
L 75.396461 456.111809 
L 76.393544 455.15623 
L 76.85885 454.405417 
L 77.146896 453.5961 
L 79.362638 448.974215 
L 79.562055 448.155146 
L 79.894416 447.394583 
L 80.854571 445.970964 
L 83.203256 442.060888 
L 83.424831 441.202817 
L 83.808892 440.598267 
L 84.56963 439.067389 
L 84.990621 438.423835 
L 86.061563 436.044637 
L 87.885857 432.397833 
L 88.801697 430.92546 
L 89.88741 428.682774 
L 90.301015 428.019718 
L 90.795864 426.60585 
L 91.955435 424.831203 
L 92.324726 424.431419 
L 92.804803 423.085807 
L 93.757572 421.07714 
L 94.422294 419.273239 
L 94.762041 418.844204 
L 95.419378 417.820368 
L 96.025014 416.611268 
L 96.896539 414.807367 
L 97.856694 413.334995 
L 98.469715 412.457421 
L 99.149209 411.375081 
L 99.850861 409.522427 
L 101.645611 406.772698 
L 102.398964 406.012134 
L 102.753482 405.388082 
L 103.122772 403.92546 
L 104.090313 402.882124 
L 104.282344 402.23857 
L 105.131711 401.204984 
L 105.759505 399.810618 
L 106.490699 398.513759 
L 107.436083 396.670856 
L 109.592738 393.072806 
L 109.733068 392.390249 
L 110.552892 390.566847 
L 111.808479 388.421668 
L 112.22947 388.168147 
L 112.576603 387.758613 
L 112.931121 386.63727 
L 113.270868 386.198483 
L 114.415668 383.838787 
L 114.622471 383.409751 
L 115.434909 382.493174 
L 116.114403 381.440087 
L 116.993314 380.026219 
L 117.296132 379.343662 
L 118.28583 377.99805 
L 118.42616 377.432503 
L 118.706821 376.896208 
L 119.120426 376.749946 
L 120.065809 375.228819 
L 120.641902 373.707692 
L 121.941803 372.137811 
L 122.362794 371.621018 
L 123.005359 370.246154 
L 123.670082 369.066306 
L 125.065999 366.862622 
L 125.413132 366.706609 
L 125.701178 366.326327 
L 127.148796 365.16598 
L 127.776589 363.771614 
L 128.271438 362.308992 
L 128.611185 361.665439 
L 128.943547 360.24182 
L 129.394081 359.617768 
L 129.770757 358.467172 
L 130.775226 357.248321 
L 131.100202 356.858288 
L 131.816625 355.56143 
L 132.193301 354.547346 
L 132.577363 353.845287 
L 133.035282 352.450921 
L 133.205156 352.246154 
L 133.175613 352.060888 
L 132.998353 351.846371 
L 133.020511 351.612351 
L 133.279014 351.154063 
L 133.722162 350.617768 
L 134.098838 349.788949 
L 134.770947 349.291658 
L 135.243638 348.628602 
L 136.558311 347.234236 
L 136.949759 346.415168 
L 137.437222 345.771614 
L 138.087173 343.938462 
L 138.10933 343.158397 
L 139.25413 340.964464 
L 140.362001 339.999133 
L 141.144896 338.146479 
L 141.469872 337.590683 
L 141.31477 336.440087 
L 141.588045 335.933044 
L 141.617588 335.435753 
L 141.780076 335.133478 
L 141.949949 334.55818 
L 142.400483 333.914626 
L 143.087363 333.339328 
L 144.298635 332.686024 
L 144.719626 332.022969 
L 145.02983 331.301408 
L 145.598537 330.813868 
L 146.329731 329.721777 
L 146.632549 329.087974 
L 147.171713 328.717443 
L 147.348972 328.356663 
L 147.334201 327.703359 
L 147.888136 326.796533 
L 148.648874 326.435753 
L 149.055093 325.889707 
L 150.044791 323.500758 
L 150.295909 322.730444 
L 150.428853 321.872373 
L 150.665199 321.36533 
L 151.352079 320.536511 
L 151.610582 319.8052 
L 152.061116 319.278657 
L 152.533808 318.089057 
L 153.383175 317.533261 
L 154.180842 317.191983 
L 154.609219 316.977465 
L 155.008052 316.597183 
L 155.576759 315.553846 
L 155.694932 314.022969 
L 156.403969 312.492091 
L 156.780645 312.306826 
L 156.943133 311.887541 
L 157.526612 311.28299 
L 158.294735 310.697941 
L 158.368593 310.151896 
L 159.033316 309.206067 
L 159.579865 307.148646 
L 159.993471 306.427086 
L 160.791137 305.75428 
L 161.995024 303.258072 
L 162.96995 300.557096 
L 164.195994 298.090141 
L 164.772086 297.271073 
L 164.868102 296.061972 
L 165.9095 293.273239 
L 167.460519 291.206067 
L 168.967224 288.495341 
L 169.447301 288.007801 
L 169.890449 287.217985 
L 170.865375 285.84312 
L 172.866929 281.416251 
L 173.952642 279.417335 
L 174.277617 278.617768 
L 174.683837 277.993716 
L 174.802009 277.233153 
L 175.872951 274.44442 
L 176.655846 273.313326 
L 177.556915 272.260238 
L 177.852347 271.450921 
L 178.871588 270.183315 
L 179.181792 269.461755 
L 180.186261 267.794366 
L 181.242431 265.980715 
L 181.811138 265.541928 
L 182.749136 264.0013 
L 183.147969 263.601517 
L 183.458173 262.957963 
L 183.893935 262.421668 
L 184.492186 261.47584 
L 185.001806 260.75428 
L 185.060892 260.52026 
L 186.552825 258.706609 
L 186.523282 258.706609 
L 186.523282 258.59935 
L 186.574982 258.726111 
L 186.634069 258.59935 
L 186.781785 258.35558 
L 187.114146 257.975298 
L 187.114146 257.975298 
" style="fill:none;stroke:#000000;stroke-width:3;"/>
   </g>
  </g>
 </g>
 <defs>
  <clipPath id="p6317ed0276">
   <rect height="554.4" width="374.769776" x="7.2" y="7.2"/>
  </clipPath>
 </defs>
</svg>
