<?xml version="1.0" encoding="utf-8" standalone="no"?>
<!DOCTYPE svg PUBLIC "-//W3C//DTD SVG 1.1//EN"
  "http://www.w3.org/Graphics/SVG/1.1/DTD/svg11.dtd">
<svg height="568.8pt" version="1.1" viewBox="0 0 301.091387 568.8" width="301.091387pt" xmlns="http://www.w3.org/2000/svg" xmlns:xlink="http://www.w3.org/1999/xlink">
 <metadata>
  <rdf:RDF xmlns:cc="http://creativecommons.org/ns#" xmlns:dc="http://purl.org/dc/elements/1.1/" xmlns:rdf="http://www.w3.org/1999/02/22-rdf-syntax-ns#">
   <cc:Work>
    <dc:type rdf:resource="http://purl.org/dc/dcmitype/StillImage"/>
    <dc:date>2021-07-29T02:00:55.231623</dc:date>
    <dc:format>image/svg+xml</dc:format>
    <dc:creator>
     <cc:Agent>
      <dc:title>Matplotlib v3.4.2, https://matplotlib.org/</dc:title>
     </cc:Agent>
    </dc:creator>
   </cc:Work>
  </rdf:RDF>
 </metadata>
 <defs>
  <style type="text/css">*{stroke-linecap:butt;stroke-linejoin:round;}</style>
 </defs>
 <g id="figure_1">
  <g id="patch_1">
   <path d="M 0 568.8 
L 301.091387 568.8 
L 301.091387 0 
L 0 0 
z
" style="fill:#ffffff;"/>
  </g>
  <g id="axes_1">
   <g id="LineCollection_1">
    <path clip-path="url(#pe0c929de30)" d="M 208.033579 106.781236 
L 207.80581 106.955308 
L 207.797818 107.377299 
L 207.554064 107.414223 
L 207.414206 107.234877 
L 207.741874 107.361474 
L 208.273337 107.688518 
L 210.431156 108.754046 
L 210.738845 108.943942 
L 211.530045 109.270985 
L 211.889681 109.439781 
L 212.113455 109.766825 
L 212.780781 110.035844 
L 212.952607 110.394537 
L 213.204352 110.405087 
L 213.863686 110.705755 
L 214.29525 111.027524 
L 214.742797 111.201595 
L 215.02651 110.93785 
L 216.353169 108.817344 
L 216.505016 108.690747 
L 216.872644 108.706572 
L 219.354136 109.561104 
L 221.751712 110.167716 
L 222.76269 110.573883 
L 225.296129 112.151075 
L 226.267147 112.536142 
L 227.749649 113.61222 
L 228.113281 114.361255 
L 230.882482 115.548105 
L 231.697658 115.843499 
L 233.479856 116.508135 
L 234.199129 116.724406 
L 236.464839 117.784659 
L 238.275009 118.95041 
L 238.814463 119.630871 
L 239.126148 120.490678 
L 240.085179 124.225301 
L 240.716541 125.72337 
L 241.355894 126.509328 
L 242.15109 127.173965 
L 244.220998 129.0782 
L 244.908303 130.28615 
L 248.03714 134.41639 
L 247.965213 134.964978 
L 246.854336 137.122409 
L 244.62459 141.337047 
L 242.550686 145.161343 
L 241.016238 148.294628 
L 240.496763 148.980364 
L 239.841425 150.293811 
L 239.40187 151.116694 
L 238.710568 152.841584 
L 237.935352 153.996785 
L 237.51178 154.788018 
L 236.648653 155.858821 
L 236.269036 156.681704 
L 235.761549 157.879105 
L 232.928413 163.032673 
L 232.424922 163.786982 
L 227.270133 173.107715 
L 226.522889 174.268191 
L 226.367046 174.885353 
L 226.015402 175.608013 
L 225.424 176.620792 
L 224.924505 177.306528 
L 223.98945 178.978668 
L 222.654799 181.009501 
L 221.955506 182.111953 
L 218.642855 188.573695 
L 218.175327 189.422952 
L 216.944571 191.443235 
L 216.528991 192.798882 
L 213.795754 196.813074 
L 212.225342 199.545468 
L 210.579006 202.989971 
L 209.468129 204.989155 
L 206.922702 210.010851 
L 206.375256 210.675487 
L 205.524116 212.315979 
L 204.289364 214.061967 
L 204.197457 214.64748 
L 203.530132 215.433439 
L 203.138528 216.319621 
L 200.788903 220.24414 
L 200.345351 221.008999 
L 199.430276 222.543992 
L 198.930781 223.815241 
L 198.651064 224.231957 
L 198.303416 225.123414 
L 198.399319 226.030695 
L 197.855868 227.133147 
L 197.859864 228.035153 
L 197.608118 228.720889 
L 197.308421 229.058482 
L 197.244486 229.491023 
L 196.149593 230.85722 
L 196.101641 231.305586 
L 195.614134 232.518811 
L 195.086667 232.819479 
L 194.814942 233.457741 
L 194.159604 235.267029 
L 193.428344 236.443329 
L 192.864913 237.065767 
L 192.401382 238.627134 
L 191.466327 239.502766 
L 191.37442 239.882558 
L 190.535268 241.301504 
L 190.219587 242.567478 
L 189.851959 242.48308 
L 189.827983 242.419781 
L 189.740072 242.48308 
L 188.896924 243.121341 
L 188.641183 243.501133 
L 188.33749 244.318742 
L 187.386451 245.716588 
L 187.11073 245.927583 
L 186.835009 246.972012 
L 186.403445 247.55225 
L 186.367481 247.916217 
L 185.86399 248.702176 
L 185.48837 248.939546 
L 185.148713 249.525059 
L 184.289582 251.65084 
L 184.153719 252.199429 
L 183.466414 253.064511 
L 182.559331 254.641703 
L 181.496406 256.166147 
L 181.072834 257.105077 
L 180.637274 257.896311 
L 179.666256 259.420754 
L 179.518405 259.842745 
L 178.479455 261.340814 
L 178.031908 262.063475 
L 177.056893 263.297799 
L 176.501455 264.46355 
L 176.453503 264.922465 
L 176.213746 265.344457 
L 176.113847 265.761173 
L 175.674291 266.478558 
L 175.582384 266.900549 
L 174.935038 267.971352 
L 174.739236 268.377519 
L 174.675301 268.846984 
L 174.139842 269.374473 
L 173.73625 270.656272 
L 173.684303 271.157386 
L 173.104888 272.17544 
L 172.233769 273.135471 
L 171.786221 274.554416 
L 171.022993 276.216007 
L 170.707312 276.458652 
L 169.140896 279.032799 
L 168.605437 279.876781 
L 167.726326 281.580571 
L 167.234822 282.266307 
L 166.927133 282.920393 
L 166.551513 283.743276 
L 166.28778 284.560884 
L 165.68439 285.758284 
L 165.376701 286.496769 
L 164.985097 286.802713 
L 163.750345 288.944319 
L 162.543565 290.648108 
L 162.19192 291.692537 
L 161.880235 291.99848 
L 161.300821 293.064008 
L 161.356765 293.232805 
L 161.348773 293.586222 
L 161.0251 294.224484 
L 160.873253 294.883846 
L 160.553576 295.110666 
L 159.774364 295.052642 
L 159.662477 295.342761 
L 159.462679 295.40606 
L 158.983164 296.028497 
L 158.435717 297.0993 
L 158.239915 297.668988 
L 158.056101 297.658438 
L 158.056101 297.80086 
L 157.888271 298.006581 
L 156.545628 301.19789 
L 156.377798 301.519658 
L 155.594589 302.39529 
L 154.935256 303.845885 
L 152.905308 307.047744 
L 152.054168 309.257923 
L 150.751485 311.125235 
L 150.395845 312.238237 
L 150.080164 312.712977 
L 149.408843 314.807109 
L 149.06519 316.336827 
L 147.386887 319.048121 
L 146.735545 319.881554 
L 146.395888 320.831034 
L 145.764527 322.24998 
L 144.833468 323.568702 
L 144.709593 323.980144 
L 144.341965 324.713354 
L 144.070239 325.683934 
L 142.979342 326.665063 
L 142.78354 327.282226 
L 142.236093 328.078734 
L 141.792542 328.859418 
L 141.16118 329.481855 
L 140.813531 330.700355 
L 140.553794 331.122346 
L 139.874481 331.575987 
L 136.965421 336.697906 
L 136.597793 337.399466 
L 135.746654 339.087431 
L 135.191215 339.709868 
L 134.695716 340.669899 
L 133.329097 343.175472 
L 132.929501 344.378147 
L 132.621812 344.921461 
L 132.477958 345.4173 
L 132.310127 345.575547 
L 132.250188 346.002813 
L 131.874568 346.530302 
L 131.990451 346.88372 
L 131.538907 348.271016 
L 131.315133 348.83543 
L 131.191259 348.714107 
L 129.888575 349.31017 
L 129.472995 349.990631 
L 128.985488 350.919012 
L 128.989484 351.261879 
L 128.442038 352.158611 
L 128.022462 353.081717 
L 127.650837 353.508983 
L 127.614874 353.714704 
L 127.207286 353.983723 
L 126.963532 354.61671 
L 126.507993 355.34992 
L 126.284219 355.787736 
L 125.972534 355.893234 
L 125.724785 356.262476 
L 125.357156 357.296355 
L 125.285229 358.01374 
L 124.74977 358.741675 
L 124.366158 359.495984 
L 123.227309 361.347471 
L 122.955584 362.281127 
L 122.012537 363.858319 
L 121.301256 364.449107 
L 119.910662 366.854457 
L 119.431147 367.497994 
L 118.759825 368.109881 
L 118.955627 368.753418 
L 118.939644 369.096286 
L 118.807777 369.491902 
L 118.364225 370.135439 
L 117.589009 371.839229 
L 117.105498 372.604088 
L 115.09553 376.169914 
L 114.164471 377.900078 
L 113.401242 379.123853 
L 113.033614 379.883437 
L 110.707965 384.662489 
L 108.206494 388.824378 
L 107.958744 389.557587 
L 107.251459 390.707514 
L 106.596121 391.393249 
L 106.252469 391.899639 
L 105.968756 393.049565 
L 105.5292 393.656178 
L 105.589139 394.415762 
L 105.273459 394.637307 
L 105.077656 394.668957 
L 104.142602 395.576238 
L 103.770977 395.713385 
L 102.863894 396.741989 
L 102.300464 397.121781 
L 101.365409 398.477428 
L 100.778003 399.537681 
L 98.128681 403.599347 
L 97.697117 404.569927 
L 97.037784 405.318961 
L 95.862972 407.239022 
L 94.36049 409.5125 
L 93.888967 410.340657 
L 93.445415 411.142441 
L 92.230643 413.241847 
L 91.639241 413.948683 
L 90.788102 415.061685 
L 89.96893 416.48063 
L 89.441463 417.440661 
L 88.92998 418.574762 
L 88.55436 418.93873 
L 88.354562 419.387095 
L 88.174743 419.38182 
L 87.295632 418.959829 
L 86.995935 418.70136 
L 85.733212 418.094747 
L 85.365583 417.767704 
L 84.034928 417.198016 
L 83.487482 416.7391 
L 83.187785 416.565029 
L 82.356625 415.763245 
L 81.46153 415.557525 
L 79.923085 415.219932 
L 74.976086 414.629144 
L 73.661415 414.439248 
L 73.113968 414.354849 
L 72.638449 414.57112 
L 72.470619 414.761016 
L 72.358732 416.227436 
L 71.999095 417.941775 
L 72.055039 418.300468 
L 70.844263 425.384646 
L 70.636473 425.922685 
L 70.528582 426.524023 
L 70.248865 428.164514 
L 69.665454 429.092895 
L 69.509612 429.182568 
L 69.525596 429.404113 
L 69.345777 429.578185 
L 69.305818 430.200622 
L 69.169955 431.893862 
L 69.038089 432.315853 
L 69.129996 432.795868 
L 68.758371 435.296166 
L 68.242892 436.546315 
L 68.48265 436.741486 
L 68.44269 436.920833 
L 68.674456 437.358649 
L 68.870258 437.854488 
L 69.04608 437.865038 
L 69.058068 437.843939 
L 69.026101 437.938887 
L 69.082044 437.954711 
L 69.026101 439.48443 
L 68.370763 443.240152 
L 68.230904 443.440598 
L 67.843296 445.898697 
L 67.367777 450.377079 
L 67.363781 450.80962 
L 67.171975 451.690527 
L 67.231914 453.067274 
L 67.199947 453.600038 
L 66.888262 454.581167 
L 66.524629 457.086741 
L 66.304852 457.909624 
L 65.82134 461.449075 
L 64.80237 462.984069 
L 64.550625 463.690904 
L 64.083097 464.213118 
L 63.076115 466.117354 
L 62.536661 466.840014 
L 62.041162 467.557399 
L 61.353856 468.696775 
L 59.068167 472.710967 
L 58.089157 474.520255 
L 57.37388 476.129097 
L 55.667605 478.755992 
L 54.832449 480.285711 
L 54.304982 481.282665 
L 54.113176 481.599159 
L 53.729564 481.810154 
L 51.096226 485.982593 
L 50.700626 486.531182 
L 49.961373 487.596709 
L 49.126217 488.503991 
L 48.870476 488.941807 
L 48.63871 489.511495 
L 48.754593 489.806889 
L 47.871486 490.186681 
L 47.395966 491.547603 
L 47.148217 491.721674 
L 46.900467 492.323012 
L 46.780588 492.8927 
L 46.616754 493.261942 
L 46.576794 493.562611 
L 46.253122 494.258897 
L 46.141235 494.649239 
L 45.797582 495.203102 
L 44.81058 498.056818 
L 44.814576 498.510459 
L 44.610782 498.906076 
L 44.426968 499.818632 
L 43.851549 502.719822 
L 43.679723 503.263135 
L 43.775626 503.869748 
L 44.734657 504.861427 
L 47.455906 506.433345 
L 47.991364 506.792037 
L 48.259094 506.802587 
L 48.530819 506.971384 
L 49.206136 507.89449 
L 49.909425 508.079111 
L 50.097236 508.163509 
L 50.396933 508.5855 
L 51.020303 508.796496 
L 51.200121 509.10244 
L 51.132189 509.049691 
L 50.820504 510.800955 
L 49.869466 512.040554 
L 49.645692 512.541668 
L 49.238104 513.058608 
L 48.502847 514.366781 
L 48.027328 515.200214 
L 47.86749 516.065296 
L 46.908459 517.505341 
L 46.596774 518.903187 
L 46.64073 519.330453 
L 46.22515 519.678596 
L 46.085291 520.079488 
L 46.01736 521.567007 
L 45.861517 522.342416 
L 45.370014 522.590336 
L 44.922467 524.225552 
L 44.718673 524.753041 
L 44.854535 525.76582 
L 44.798592 526.082313 
L 44.590802 526.441006 
L 44.530863 526.794424 
L 43.739662 528.012923 
L 43.284123 528.070947 
L 43.004406 528.260843 
L 42.540874 529.052077 
L 42.3171 529.969908 
L 42.217201 530.286401 
L 42.217201 530.924663 
L 41.817605 532.897472 
L 41.985436 533.678156 
L 41.613811 534.384992 
L 40.910522 534.738409 
L 40.458979 535.028528 
L 40.263177 534.648736 
L 39.48796 534.216195 
L 38.253209 533.857503 
L 37.665802 533.667607 
L 37.050425 533.451336 
L 37.481988 533.340563 
L 37.30217 532.691752 
L 36.09539 531.963817 
L 35.751737 532.51768 
L 35.128368 532.886923 
L 33.665846 532.807799 
L 33.438076 532.675927 
L 32.423102 532.475481 
L 31.659874 532.401633 
L 31.352185 532.343609 
L 30.089461 532.412182 
L 29.234326 532.148438 
L 25.030575 532.7656 
L 23.496126 533.245615 
L 20.794857 533.799479 
L 20.355301 534.115972 
L 20.231427 534.559063 
L 20.399257 535.002154 
L 20.894756 535.492719 
L 21.174473 535.355572 
L 21.194453 535.186775 
L 21.270376 535.308098 
L 22.509124 536.4 
L 22.037601 536.15208 
L 21.55409 535.735364 
L 21.30634 535.323922 
L 22.101536 535.250074 
L 22.728902 535.155126 
L 23.312312 534.907206 
L 23.544078 534.975779 
L 24.842765 535.049628 
L 25.566034 534.45884 
L 25.669929 534.268944 
L 25.649949 533.857503 
L 25.817779 533.377488 
L 26.409182 532.7656 
L 26.800786 532.834174 
L 27.416164 533.055719 
L 27.915659 533.108468 
L 28.411158 532.802524 
L 31.587946 532.491306 
L 33.697814 532.591529 
L 33.993515 532.459657 
L 34.221284 532.201187 
L 34.764735 530.903564 
L 35.416077 529.431869 
L 35.727762 528.640635 
L 36.802675 526.045389 
L 37.613855 524.684467 
L 37.789677 524.584244 
L 37.246227 524.2994 
L 37.681786 523.914333 
L 39.248203 522.996502 
L 40.307132 521.609206 
L 40.758676 520.717749 
L 41.154276 520.401256 
L 41.557868 519.958165 
L 42.636777 519.541449 
L 43.108301 519.21968 
L 43.328078 518.998135 
L 43.400006 518.713291 
L 43.911489 517.879858 
L 44.379016 516.930378 
L 45.202184 516.028371 
L 46.01736 515.073616 
L 46.085291 514.619976 
L 46.536835 513.981714 
L 46.269105 513.412025 
L 46.20517 512.747389 
L 46.700669 512.019454 
L 47.340023 511.523615 
L 47.024342 510.690182 
L 47.144221 510.252366 
L 47.543817 509.487507 
L 47.899457 508.279557 
L 47.855502 507.88394 
L 48.510839 506.976659 
L 49.349991 505.489139 
L 49.893442 504.539659 
L 50.069264 504.133492 
L 50.776549 503.442482 
L 51.459858 502.31893 
L 52.291018 501.775616 
L 53.793499 500.731188 
L 53.905386 500.383045 
L 53.777515 499.755333 
L 53.845447 498.826952 
L 54.512772 497.23921 
L 54.736546 496.463801 
L 54.800481 495.693667 
L 55.004275 494.960457 
L 55.116162 494.053176 
L 55.703568 492.955999 
L 56.390873 491.869371 
L 56.986272 491.241659 
L 57.421831 490.097008 
L 58.201044 489.189727 
L 58.572668 488.493441 
L 58.588652 488.0609 
L 58.908329 487.232742 
L 59.136098 486.932073 
L 59.499731 486.721078 
L 60.063161 485.639725 
L 60.246975 484.774643 
L 61.022192 483.171076 
L 61.505703 482.443141 
L 61.745461 481.493661 
L 62.76443 480.095815 
L 63.104087 479.779321 
L 63.811372 478.223228 
L 64.322855 477.463644 
L 65.205962 475.849527 
L 65.617546 475.005545 
L 66.868282 473.001086 
L 66.964185 472.579095 
L 68.454678 470.131546 
L 68.986141 469.472184 
L 69.645475 468.480505 
L 70.456655 466.449672 
L 71.563536 464.123445 
L 72.674413 461.802493 
L 72.814271 461.354127 
L 73.361718 460.642017 
L 73.51756 460.225301 
L 75.13992 458.183918 
L 76.826216 455.288003 
L 77.729303 453.94818 
L 80.070936 450.466752 
L 80.27473 450.297956 
L 80.438564 450.382354 
L 80.398604 450.450928 
L 80.354649 450.487852 
L 80.318685 450.371804 
L 80.342661 450.36653 
L 80.390612 450.292681 
L 80.866132 449.986737 
L 81.161833 449.406499 
L 81.413578 449.074181 
L 81.705283 448.799887 
L 81.773215 448.472844 
L 83.367603 446.563333 
L 83.611357 446.020019 
L 83.91505 446.078043 
L 84.326633 445.365933 
L 84.758197 444.685472 
L 84.910044 444.632723 
L 86.604331 445.281535 
L 89.069839 446.447286 
L 89.585318 446.779604 
L 90.452441 447.122472 
L 90.951936 447.491714 
L 91.415467 448.077227 
L 92.142732 448.346246 
L 93.217646 448.90011 
L 93.605254 449.053082 
L 93.79706 449.3643 
L 94.38047 449.796841 
L 94.600248 450.034211 
L 95.811024 450.414004 
L 97.261558 451.521731 
L 98.140669 452.117793 
L 98.620184 452.218016 
L 98.863938 452.618908 
L 99.087712 452.244391 
L 99.179619 451.985921 
L 100.382403 450.946768 
L 100.945833 450.377079 
L 102.28448 448.810437 
L 103.155599 447.934805 
L 103.838909 447.175221 
L 104.182561 446.262664 
L 104.809927 445.281535 
L 104.726012 444.590524 
L 104.917818 443.704342 
L 105.225507 442.749587 
L 105.417313 441.895055 
L 105.876849 440.850626 
L 105.96476 440.655455 
L 105.9248 439.705975 
L 106.232489 438.98859 
L 106.348372 438.608798 
L 106.739976 437.959986 
L 106.859855 437.3059 
L 107.015697 436.488292 
L 107.73497 434.13569 
L 108.214486 433.449954 
L 108.646049 432.674546 
L 109.601084 431.334723 
L 109.872809 431.012955 
L 110.028652 430.590964 
L 110.480195 429.926327 
L 110.703969 429.54126 
L 111.007662 429.277516 
L 112.16649 427.589551 
L 113.193452 426.054557 
L 115.810806 421.138359 
L 116.370241 420.405149 
L 116.869736 419.766888 
L 118.308282 417.097793 
L 118.647938 416.359308 
L 119.103478 415.705222 
L 119.159421 415.320154 
L 119.806767 414.180778 
L 120.370197 413.400094 
L 121.365192 411.9284 
L 122.012537 410.725725 
L 123.439095 408.436422 
L 124.210315 407.31287 
L 124.410114 406.853955 
L 125.35316 405.735678 
L 126.216288 404.274533 
L 126.663835 403.488574 
L 126.867629 403.119332 
L 127.467023 402.412496 
L 127.882603 401.542139 
L 129.057416 400.149568 
L 130.064398 399.542956 
L 130.547909 398.83612 
L 130.899553 397.960489 
L 131.283166 396.705065 
L 132.134305 395.560413 
L 132.88155 392.295256 
L 132.905526 391.85744 
L 133.04938 391.482923 
L 133.057372 390.950159 
L 133.281146 390.005953 
L 133.648774 389.103947 
L 133.788633 388.207215 
L 134.643768 384.467318 
L 135.079328 383.85543 
L 135.059348 383.053647 
L 135.698702 382.541982 
L 135.93846 382.457584 
L 135.946452 382.156915 
L 136.082314 381.618877 
L 136.034363 380.669396 
L 135.838561 379.978386 
L 135.902496 379.74629 
L 135.766633 379.577494 
L 135.922476 379.245176 
L 135.702698 378.126899 
L 134.89951 377.894804 
L 134.575837 377.910628 
L 136.074322 377.926453 
L 138.172202 378.32207 
L 138.679689 378.411743 
L 139.047317 378.77571 
L 139.131232 378.939232 
L 139.93442 379.134403 
L 140.262089 379.29265 
L 140.57777 379.266275 
L 140.609737 379.160777 
L 141.880453 379.920362 
L 142.296033 380.189381 
L 142.124207 379.946736 
L 142.016316 379.714641 
L 142.016316 379.893987 
L 142.016316 380.173556 
L 141.968364 379.920362 
L 141.432905 379.561669 
L 140.206145 378.728236 
L 138.815551 378.211297 
L 138.052323 377.520286 
L 137.644735 377.947553 
L 136.833555 377.398964 
L 136.306088 377.193243 
L 135.231175 376.37036 
L 134.835575 376.386185 
L 134.144273 376.15409 
L 134.583829 373.390047 
L 134.927482 371.554385 
L 135.530872 370.393909 
L 135.890508 369.760922 
L 136.306088 369.170134 
L 137.025361 368.415825 
L 137.181203 368.146805 
L 137.201183 366.907206 
L 137.592787 365.345838 
L 137.52086 365.108468 
L 137.089296 364.654827 
L 135.946452 364.100964 
L 133.405021 362.60817 
L 132.605829 361.769462 
L 131.718725 361.284172 
L 131.119331 360.725034 
L 130.148313 360.113146 
L 128.797678 359.664781 
L 128.254228 359.190041 
L 127.95453 359.137292 
L 127.415076 358.74695 
L 126.835662 358.309134 
L 126.575924 358.372432 
L 125.800708 358.061214 
L 123.950578 356.695017 
L 122.208339 355.956532 
L 121.808743 355.455418 
L 121.457099 355.307721 
L 120.518048 354.453188 
L 120.242327 354.036472 
L 119.535042 353.567007 
L 119.175405 353.545907 
L 118.268322 353.113366 
L 117.680916 352.759949 
L 117.289312 352.6861 
L 116.969635 352.744124 
L 116.070544 352.037288 
L 115.547073 351.652221 
L 114.903723 351.504524 
L 114.41222 351.172206 
L 114.032604 351.182756 
L 113.752887 350.961211 
L 113.165481 350.75549 
L 112.853796 350.686916 
L 112.606046 350.354598 
L 112.693957 350.038105 
L 114.424208 347.970348 
L 115.251372 346.013363 
L 115.794823 345.280153 
L 116.018596 344.947835 
L 116.382229 344.673541 
L 117.800795 342.468636 
L 118.71587 341.002217 
L 119.199381 339.783717 
L 120.518048 336.792854 
L 121.50505 334.914993 
L 121.509046 333.738692 
L 122.12842 333.870564 
L 123.519014 332.688989 
L 123.990538 331.871381 
L 124.35417 330.906076 
L 125.552958 328.690621 
L 125.716793 328.210606 
L 126.008498 327.867738 
L 126.39211 326.949907 
L 127.3911 325.314691 
L 127.610878 324.908525 
L 127.646842 324.39686 
L 127.810676 324.022343 
L 128.150333 323.700575 
L 128.609868 322.993739 
L 129.089383 322.297454 
L 129.82464 321.168627 
L 131.522923 318.204138 
L 131.806636 317.349606 
L 133.86056 314.553914 
L 134.176241 314.23742 
L 134.599813 313.451462 
L 134.65176 312.960897 
L 135.307098 310.903689 
L 135.434969 310.465873 
L 135.778621 310.15993 
L 135.794605 309.716839 
L 136.557834 308.730434 
L 136.605785 308.292618 
L 137.077308 307.654356 
L 137.784593 307.053019 
L 138.567802 306.488606 
L 138.811555 306.119363 
L 138.89547 305.686822 
L 139.107256 305.312305 
L 140.361988 304.320625 
L 140.853491 303.508292 
L 141.193148 303.233998 
L 142.411916 301.720104 
L 143.510805 300.348633 
L 143.726587 299.488825 
L 143.610704 298.560445 
L 143.894417 297.721737 
L 144.114195 296.904129 
L 144.38592 296.540161 
L 144.63367 295.754203 
L 144.993306 294.667575 
L 145.336959 293.449075 
L 145.688603 292.657842 
L 145.740551 292.346623 
L 146.124163 291.518465 
L 146.659622 291.217796 
L 146.867412 291.006801 
L 147.167109 290.379089 
L 147.886382 289.835775 
L 147.734535 289.630054 
L 147.167109 289.281912 
L 146.991286 289.223888 
L 147.239036 288.311332 
L 147.874394 287.514823 
L 148.369893 286.92931 
L 148.717541 286.69194 
L 148.949307 286.327973 
L 149.544705 285.779384 
L 149.832414 285.00925 
L 150.535703 284.033395 
L 150.671566 283.701077 
L 151.374855 282.704123 
L 152.042181 281.670244 
L 152.194027 281.269352 
L 152.753462 280.678564 
L 153.240969 279.776558 
L 153.55665 279.338742 
L 153.616589 277.645502 
L 154.056145 276.970316 
L 154.895296 276.411178 
L 155.294892 275.551371 
L 156.745426 273.399215 
L 156.90926 273.014148 
L 157.192974 272.687105 
L 157.712449 271.088813 
L 158.36379 270.450551 
L 158.615536 270.134058 
L 158.755394 269.632943 
L 158.699451 269.142378 
L 158.895253 268.736211 
L 158.939208 267.844755 
L 159.458683 267.100995 
L 160.062073 266.077666 
L 160.525605 265.914145 
L 160.977148 265.613476 
L 161.276845 265.228409 
L 161.324797 264.811693 
L 162.395714 262.601513 
L 163.530567 261.045421 
L 164.074018 259.758347 
L 164.297791 259.336356 
L 164.697388 258.956564 
L 164.825258 258.376326 
L 165.936135 256.530114 
L 166.379687 256.160872 
L 166.715348 255.728331 
L 167.518536 253.955967 
L 167.350705 252.700543 
L 167.262794 252.283827 
L 167.334721 251.983158 
L 167.614439 251.666665 
L 167.546507 251.313247 
L 168.409635 250.268818 
L 168.673368 250.147496 
L 168.805235 249.034494 
L 169.292742 248.507005 
L 170.983033 247.119709 
L 171.266747 246.059456 
L 171.57044 245.721863 
L 171.850157 244.988653 
L 172.017987 244.39259 
L 172.745252 243.427285 
L 173.076917 242.672976 
L 173.348642 242.520004 
L 173.536452 241.765694 
L 173.556432 241.417552 
L 174.659317 239.835084 
L 175.474493 238.690433 
L 175.682283 238.326466 
L 175.762202 237.951948 
L 176.745209 236.875871 
L 176.988962 236.100462 
L 178.131807 234.670966 
L 178.363573 234.122377 
L 178.363573 233.600163 
L 178.875055 231.922748 
L 179.310615 231.395259 
L 179.354571 231.089315 
L 179.83009 230.414129 
L 180.289625 229.580696 
L 181.012894 229.011008 
L 183.03485 228.119552 
L 183.32256 226.874677 
L 183.686192 226.257515 
L 183.706172 225.967396 
L 184.145727 225.160338 
L 184.465404 224.242507 
L 184.545323 224.184483 
L 185.148713 223.198078 
L 185.54831 222.528167 
L 186.815029 219.969845 
L 187.274564 219.437081 
L 187.614221 219.183886 
L 187.833999 218.276605 
L 188.185643 217.617244 
L 188.633191 216.535891 
L 188.90092 215.765757 
L 189.252565 215.069472 
L 189.444371 214.726604 
L 189.232585 214.125266 
L 189.240577 213.682175 
L 189.859951 212.363453 
L 189.692121 210.918132 
L 189.096722 209.857879 
L 189.100718 209.683808 
L 188.848973 209.346215 
L 187.90193 209.261817 
L 187.985845 209.224892 
L 187.989841 209.013897 
L 187.678157 208.59718 
L 187.054787 208.212113 
L 186.627219 207.674075 
L 186.231619 207.125486 
L 185.832023 205.537744 
L 185.907946 205.400597 
L 185.899954 205.131577 
L 187.706128 203.343389 
L 188.737086 202.689303 
L 189.800012 201.085736 
L 190.155652 200.057132 
L 191.993794 196.327784 
L 194.099665 192.566787 
L 194.61914 191.807203 
L 195.857888 190.451556 
L 196.577161 190.045389 
L 199.014697 189.444052 
L 199.717986 189.475701 
L 200.704988 189.924067 
L 200.696996 190.145612 
L 201.791889 190.899922 
L 202.91875 191.226965 
L 203.70995 191.337737 
L 205.12452 190.96322 
L 207.737878 189.52845 
L 208.469139 188.916563 
L 209.787806 187.175849 
L 210.423164 185.577557 
L 211.510065 184.021464 
L 213.627924 182.338774 
L 214.830708 181.579189 
L 216.892624 179.812101 
L 217.092422 179.147465 
L 217.775731 178.034463 
L 218.594903 176.552218 
L 218.906588 175.159647 
L 219.094398 174.563584 
L 219.046447 174.083569 
L 219.170321 173.033866 
L 219.030463 172.36923 
L 217.787719 169.689585 
L 217.663844 168.465811 
L 217.731776 167.326434 
L 217.835671 166.80422 
L 218.395105 165.939138 
L 218.978515 165.242852 
L 219.47801 164.36722 
L 220.233247 163.412465 
L 220.692782 163.048498 
L 221.356112 162.70563 
L 221.507958 162.051543 
L 222.227231 161.592628 
L 222.638815 161.582078 
L 223.422023 161.102063 
L 224.037401 160.49545 
L 224.96846 159.229477 
L 225.040387 158.83386 
L 225.052375 157.868555 
L 225.38404 156.808302 
L 225.723697 154.851317 
L 226.011406 154.402951 
L 226.167248 154.260529 
L 226.418994 152.99983 
L 226.722687 151.765506 
L 226.866541 151.143069 
L 227.134271 149.718848 
L 227.202202 149.381255 
L 228.456934 146.147747 
L 228.720667 145.778505 
L 229.204178 144.913423 
L 233.611723 139.749305 
L 234.279048 138.530805 
L 234.942378 137.096034 
L 234.898422 136.484147 
L 235.873436 133.778128 
L 237.140156 131.710371 
L 238.015271 130.449672 
L 239.210063 129.405243 
L 241.56768 128.250042 
L 242.686549 127.9019 
L 244.153067 127.748928 
L 247.88929 128.413564 
L 248.664506 128.176194 
L 250.8463 126.836372 
L 252.09304 125.507099 
L 254.474633 122.400188 
L 254.958144 121.703903 
L 256.496589 119.762743 
L 256.988092 118.538968 
L 260.120925 112.430645 
L 261.095939 110.178266 
L 261.575454 109.529455 
L 262.234788 108.637998 
L 262.710307 107.931163 
L 263.421588 106.892009 
L 263.965039 105.726258 
L 264.780215 104.581607 
L 265.199791 103.73235 
L 265.615371 102.946391 
L 265.994987 102.054934 
L 266.50647 100.931382 
L 266.610365 99.61266 
L 266.706268 98.267563 
L 266.846126 95.804189 
L 266.898074 94.190072 
L 267.085884 93.098169 
L 267.077892 92.000992 
L 266.71426 90.328852 
L 266.314664 89.331897 
L 264.868126 86.536205 
L 264.828166 85.576175 
L 264.956037 84.537022 
L 265.183807 83.529517 
L 266.018963 81.693855 
L 267.449516 79.436202 
L 272.708201 73.528324 
L 273.287615 72.847863 
L 273.823073 72.177952 
L 274.134758 70.811755 
L 274.138754 69.529957 
L 273.891005 67.230105 
L 274.122771 64.634858 
L 274.74614 61.527948 
L 275.081801 60.251424 
L 275.457421 59.465465 
L 275.920953 58.76918 
L 276.883979 57.861898 
L 277.667188 57.360784 
L 278.758085 56.585375 
L 279.976853 55.841615 
L 280.680142 55.087306 
L 280.85996 54.090351 
L 280.804017 53.525938 
L 280.208618 52.476235 
L 279.261576 51.806324 
L 278.166683 51.621702 
L 277.159701 51.774674 
L 275.717159 52.581733 
L 274.901983 53.330767 
L 274.438451 53.747483 
L 273.898997 53.93738 
L 272.844063 53.868806 
L 272.336576 53.715834 
L 271.917 53.42044 
L 271.609311 52.898226 
L 271.317606 51.822148 
L 271.433489 50.819919 
L 271.924992 49.960112 
L 272.224689 49.543395 
L 272.668241 49.269101 
L 274.566322 46.958699 
L 275.361518 45.803498 
L 276.336533 44.178831 
L 276.704161 43.324299 
L 276.943919 42.337894 
L 277.043818 40.528607 
L 276.812052 39.558027 
L 276.192678 38.782618 
L 275.029854 37.564118 
L 274.474415 36.962781 
L 272.828079 35.833954 
L 271.641279 34.800075 
L 270.722208 34.399184 
L 269.747194 34.056316 
L 269.055893 33.876969 
L 268.188769 33.491902 
L 266.530446 33.238708 
L 263.313697 32.463299 
L 261.555475 33.528827 
L 260.816222 34.378084 
L 260.236808 35.31174 
L 259.99705 36.208471 
L 259.985062 36.793984 
L 260.176868 38.197105 
L 260.708331 38.814267 
L 260.860178 38.977789 
L 261.075959 39.025263 
L 262.358663 39.995843 
L 263.081932 40.233213 
L 263.42958 40.59718 
L 263.797209 41.177418 
L 264.05295 41.636334 
L 264.612384 43.065829 
L 265.143847 45.555578 
L 265.815169 48.504242 
L 265.703282 49.480097 
L 264.580417 51.658627 
L 262.770247 53.336042 
L 261.859168 53.784408 
L 261.523507 54.675864 
L 259.541511 55.3616 
L 258.686375 55.931288 
L 257.691381 57.086489 
L 257.064015 58.363013 
L 256.860221 59.265019 
L 256.432653 60.035153 
L 255.477619 60.968809 
L 254.738366 61.396075 
L 253.323796 61.944664 
L 250.238914 63.479657 
L 248.552619 64.872228 
L 247.461722 66.175126 
L 244.632582 71.31287 
L 244.356861 72.135753 
L 244.232986 72.251801 
L 243.669555 73.865917 
L 242.910323 75.337612 
L 242.266973 76.223794 
L 241.41983 76.835681 
L 240.512747 77.521417 
L 239.030245 78.782116 
L 237.9873 79.958416 
L 237.687602 80.559754 
L 237.260035 82.685535 
L 237.188107 86.298835 
L 236.672628 87.585909 
L 235.310006 89.073428 
L 234.570753 89.590367 
L 231.461896 90.940739 
L 230.6667 91.473503 
L 230.171201 91.784722 
L 229.695681 92.11704 
L 228.804582 92.665628 
L 227.709689 93.762806 
L 226.854553 94.648987 
L 226.303111 95.376922 
L 224.608824 98.357236 
L 223.793648 100.07685 
L 223.641801 101.158203 
L 224.472961 107.034431 
L 225.088339 108.806795 
L 225.144282 110.964225 
L 224.464969 112.847361 
L 224.013426 113.538372 
L 222.826625 115.236887 
L 222.195264 116.133618 
L 221.711752 116.708581 
L 220.249231 118.180276 
L 219.130362 118.93986 
L 217.527982 120.358806 
L 217.128386 120.87047 
L 216.892624 120.796622 
L 217.132382 120.311332 
L 217.599909 119.024258 
L 217.815691 117.832133 
L 217.819687 116.76133 
L 217.763743 115.616679 
L 217.46005 114.461478 
L 216.824693 113.322101 
L 215.514018 111.977004 
L 212.317249 110.24684 
L 211.410166 109.682426 
L 210.914667 109.355383 
L 210.263325 108.56415 
L 209.284315 108.026111 
L 208.948654 107.84149 
L 208.680925 107.503897 
L 207.697919 106.944758 
L 207.59802 106.976407 
L 207.590028 106.865635 
L 207.570048 106.86036 
L 207.570048 106.86036 
" style="fill:none;stroke:#000000;stroke-width:3;"/>
   </g>
  </g>
 </g>
 <defs>
  <clipPath id="pe0c929de30">
   <rect height="554.4" width="286.691387" x="7.2" y="7.2"/>
  </clipPath>
 </defs>
</svg>
