<?xml version="1.0" encoding="utf-8" standalone="no"?>
<!DOCTYPE svg PUBLIC "-//W3C//DTD SVG 1.1//EN"
  "http://www.w3.org/Graphics/SVG/1.1/DTD/svg11.dtd">
<svg height="568.8pt" version="1.1" viewBox="0 0 363.339321 568.8" width="363.339321pt" xmlns="http://www.w3.org/2000/svg" xmlns:xlink="http://www.w3.org/1999/xlink">
 <metadata>
  <rdf:RDF xmlns:cc="http://creativecommons.org/ns#" xmlns:dc="http://purl.org/dc/elements/1.1/" xmlns:rdf="http://www.w3.org/1999/02/22-rdf-syntax-ns#">
   <cc:Work>
    <dc:type rdf:resource="http://purl.org/dc/dcmitype/StillImage"/>
    <dc:date>2021-08-05T01:57:25.630644</dc:date>
    <dc:format>image/svg+xml</dc:format>
    <dc:creator>
     <cc:Agent>
      <dc:title>Matplotlib v3.4.2, https://matplotlib.org/</dc:title>
     </cc:Agent>
    </dc:creator>
   </cc:Work>
  </rdf:RDF>
 </metadata>
 <defs>
  <style type="text/css">*{stroke-linecap:butt;stroke-linejoin:round;}</style>
 </defs>
 <g id="figure_1">
  <g id="patch_1">
   <path d="M 0 568.8 
L 363.339321 568.8 
L 363.339321 0 
L 0 0 
z
" style="fill:#ffffff;"/>
  </g>
  <g id="axes_1">
   <g id="LineCollection_1">
    <path clip-path="url(#p3750f70dc5)" d="M 65.557579 503.316869 
L 65.637989 502.945148 
L 64.069993 503.051354 
L 60.411337 503.794795 
L 59.446416 503.582383 
L 59.285596 503.688589 
L 58.803136 503.104457 
L 58.039241 502.945148 
L 58.200061 502.361016 
L 58.923751 502.095501 
L 60.371132 502.732736 
L 62.260767 503.051354 
L 63.225688 503.051354 
L 66.120449 504.591339 
L 68.29152 506.449942 
L 69.859515 507.458898 
L 72.191406 508.627163 
L 74.442887 510.167148 
L 75.287192 511.760236 
L 78.825233 512.078854 
L 81.036509 513.08781 
L 86.303366 515.849162 
L 88.796077 515.955368 
L 91.168173 516.858118 
L 95.831955 518.451206 
L 97.761795 518.87603 
L 100.294711 519.566368 
L 102.988447 521.000148 
L 104.234803 524.398736 
L 107.451204 526.416647 
L 109.74289 528.27525 
L 116.457127 531.355221 
L 118.346763 531.88625 
L 118.266353 531.036603 
L 125.54346 534.913118 
L 128.076376 536.4 
L 130.890727 535.922074 
L 132.659748 536.134485 
L 133.262823 536.346897 
L 136.519429 534.753809 
L 138.730705 533.266927 
L 140.137881 531.833147 
L 144.158382 528.965588 
L 145.284122 526.310441 
L 146.088223 523.495986 
L 146.329453 522.062206 
L 147.374783 521.000148 
L 148.460319 518.291898 
L 148.661344 516.16778 
L 149.224214 515.477442 
L 149.385034 514.946412 
L 150.309749 514.468486 
L 151.67672 513.406427 
L 151.877745 513.034707 
L 151.59631 512.238162 
L 152.118975 512.18506 
L 152.80246 511.866442 
L 152.762255 511.866442 
L 152.80246 511.388515 
L 152.762255 511.547824 
L 153.1241 511.65403 
L 153.405535 511.65403 
L 153.686971 511.441618 
L 153.928201 510.857486 
L 154.290046 509.264398 
L 155.496196 506.821663 
L 156.139476 504.485133 
L 157.546652 501.776883 
L 159.757928 499.599663 
L 161.928998 498.059678 
L 163.778429 495.882457 
L 165.30622 492.643178 
L 166.472165 488.660457 
L 168.160776 486.53634 
L 169.487541 482.712928 
L 171.296767 478.730208 
L 171.859637 474.641281 
L 173.508043 471.348899 
L 177.287314 468.959267 
L 182.312941 462.586914 
L 183.840731 459.400738 
L 188.504513 454.56837 
L 190.152919 450.851164 
L 190.876609 446.44362 
L 192.80645 442.673312 
L 193.69096 438.212665 
L 196.746541 431.893415 
L 199.239252 429.132062 
L 201.088683 425.149341 
L 203.661804 422.547297 
L 205.832874 420.157665 
L 205.873079 417.502518 
L 207.72251 412.139121 
L 210.134811 407.625371 
L 211.220346 403.695754 
L 213.230597 400.987504 
L 217.492329 392.703445 
L 222.517955 385.003519 
L 224.849846 381.711137 
L 227.101327 377.834622 
L 228.910553 373.692593 
L 230.518753 369.285049 
L 233.534129 366.364387 
L 236.308275 364.293373 
L 241.414312 358.558255 
L 243.384358 354.894152 
L 245.475019 351.60177 
L 247.605884 348.999726 
L 249.294495 346.079064 
L 250.822286 341.67152 
L 253.234587 338.432241 
L 254.601557 334.98055 
L 257.697343 328.183374 
L 259.627184 324.890991 
L 261.91887 323.616521 
L 264.371376 321.4393 
L 266.140396 317.509683 
L 268.633107 313.102139 
L 269.879463 307.898051 
L 272.774224 299.826404 
L 274.261809 296.534022 
L 276.11124 293.666463 
L 277.438005 289.365125 
L 279.367846 286.072743 
L 281.056457 282.78036 
L 283.669783 279.806596 
L 285.800648 276.142493 
L 287.650079 272.47839 
L 289.25828 268.86739 
L 291.228325 266.15914 
L 293.117961 263.185376 
L 294.645752 260.37092 
L 296.736412 257.715773 
L 298.425023 253.626846 
L 299.389943 250.387567 
L 301.601219 246.935876 
L 303.0486 242.528332 
L 304.49598 238.758023 
L 306.345411 235.465641 
L 308.114431 232.704288 
L 309.521607 229.783627 
L 312.054523 227.287788 
L 313.421493 224.579539 
L 315.270924 222.136803 
L 317.120355 218.578906 
L 318.969785 214.012054 
L 320.779011 209.923127 
L 322.789262 205.727995 
L 324.276847 202.170098 
L 327.412838 195.797745 
L 328.297349 192.505363 
L 329.825139 189.37229 
L 331.19211 186.239216 
L 332.599285 184.061996 
L 335.654866 180.026172 
L 335.373431 176.468275 
L 337.303272 174.078643 
L 339.072293 172.963481 
L 338.951678 172.697966 
L 339.434138 172.22004 
L 340.037213 171.211084 
L 340.278443 169.936614 
L 339.997008 168.024908 
L 339.273318 167.440775 
L 337.182657 167.493878 
L 333.966256 167.33457 
L 330.669445 166.962849 
L 327.654068 165.635276 
L 325.281973 163.404952 
L 322.347007 162.28979 
L 317.522405 159.900158 
L 314.225594 158.731893 
L 307.953611 155.545717 
L 304.89803 154.218144 
L 301.480604 152.518849 
L 297.580718 151.297482 
L 294.967392 149.014055 
L 291.75099 146.624423 
L 288.373769 144.978232 
L 285.438803 143.066526 
L 276.633905 136.428659 
L 274.060784 134.145232 
L 270.844383 132.817659 
L 267.788802 130.746644 
L 264.451786 128.781835 
L 261.67764 126.657718 
L 259.024109 123.896365 
L 256.209758 122.037762 
L 249.857365 119.860542 
L 246.681169 118.267453 
L 244.027638 116.515056 
L 241.092672 114.921968 
L 235.423765 112.213718 
L 232.247569 111.045454 
L 230.357933 109.930292 
L 229.272398 107.699968 
L 229.473423 104.83241 
L 230.076498 102.283469 
L 231.684699 99.628322 
L 233.493924 97.344895 
L 234.57946 94.955263 
L 238.318526 89.11394 
L 239.765907 86.246381 
L 243.384358 80.405057 
L 245.756454 78.174734 
L 247.7265 75.625793 
L 248.85224 72.545822 
L 248.69142 69.678264 
L 247.002809 67.182425 
L 244.429688 66.757602 
L 243.183333 65.536234 
L 243.062718 63.83694 
L 243.384358 63.412117 
L 243.303948 62.93419 
L 243.947228 62.243852 
L 244.590508 61.500411 
L 253.516022 38.772353 
L 255.043812 38.347529 
L 255.767502 36.542029 
L 260.431284 34.152397 
L 262.682765 33.196544 
L 262.1601 32.4 
L 262.72297 33.462059 
L 261.91887 32.824824 
L 261.476615 32.665515 
L 261.476615 32.665515 
L 260.994154 32.718618 
L 260.551899 32.984132 
L 259.788004 34.046191 
L 258.742674 33.780676 
L 259.345749 34.683426 
L 259.305544 35.214456 
L 259.426159 36.276515 
L 258.983904 36.648235 
L 258.300418 36.595132 
L 256.089143 38.082015 
L 255.084017 39.303382 
L 253.556227 40.684059 
L 252.229461 42.542661 
L 251.666591 45.622632 
L 249.65634 50.720514 
L 246.279119 51.463955 
L 244.952354 53.53497 
L 242.178208 60.544558 
L 241.253492 64.633484 
L 237.675246 71.005837 
L 235.102125 78.015425 
L 231.001213 82.900896 
L 230.076498 85.343631 
L 227.503377 89.48566 
L 226.739482 91.025645 
L 226.055997 92.937351 
L 225.694152 93.521484 
L 224.849846 95.326983 
L 223.844721 97.185586 
L 222.357135 99.097292 
L 219.864424 100.212454 
L 219.261349 101.911748 
L 218.497454 104.726204 
L 217.854174 107.54066 
L 216.728433 114.284733 
L 215.039823 117.364703 
L 214.557363 120.232262 
L 211.702806 125.754968 
L 210.255426 128.410115 
L 207.40087 132.605247 
L 206.315335 136.110041 
L 206.315335 136.64107 
L 206.476155 136.959688 
L 206.838 137.384512 
L 207.15964 138.44657 
L 206.43595 141.579644 
L 205.310209 143.49135 
L 203.782419 145.29685 
L 202.656678 147.155453 
L 202.093808 149.067158 
L 200.927863 151.456791 
L 199.359867 153.580908 
L 198.475357 155.651923 
L 197.872281 158.67879 
L 196.666131 161.440143 
L 194.052805 162.395996 
L 191.600299 163.72357 
L 190.313739 166.060099 
L 188.745743 167.600084 
L 187.780823 169.617996 
L 185.810777 170.998672 
L 184.564422 172.485555 
L 183.679911 173.760025 
L 182.031506 175.459319 
L 181.589251 178.167569 
L 180.78515 180.026172 
L 179.33777 184.274407 
L 178.292439 187.726098 
L 176.603829 189.903319 
L 172.985377 193.726731 
L 171.980252 195.957054 
L 170.171026 198.505995 
L 167.678316 202.860436 
L 164.90417 207.958318 
L 163.376379 210.454157 
L 161.969204 213.109304 
L 159.516698 218.419598 
L 156.943577 222.61473 
L 155.295171 225.535391 
L 153.887996 228.296744 
L 152.32 230.473965 
L 150.550979 233.341524 
L 148.822164 235.62495 
L 148.058268 238.651818 
L 145.284122 244.917964 
L 143.796537 247.254494 
L 142.389361 250.44067 
L 141.464646 253.14892 
L 140.137881 256.600611 
L 138.28845 259.308861 
L 136.519429 261.326773 
L 134.911229 264.088126 
L 133.705078 266.637067 
L 132.378313 268.86739 
L 131.332982 271.628743 
L 127.634121 276.885934 
L 126.267151 280.019007 
L 124.65895 282.833463 
L 123.010544 288.568581 
L 121.764189 290.692698 
L 120.437423 292.551301 
L 120.115783 293.400948 
L 118.065328 295.259551 
L 116.296307 297.808492 
L 114.567491 300.888463 
L 112.959291 302.375345 
L 110.426375 303.490507 
L 108.576944 305.827036 
L 107.491409 309.650448 
L 106.204848 312.783521 
L 104.918288 315.438668 
L 103.310087 317.8283 
L 101.742092 319.686903 
L 100.174096 322.87308 
L 97.922615 324.413065 
L 96.35462 327.705447 
L 93.138219 335.086756 
L 91.449608 338.007418 
L 89.962022 341.140491 
L 89.760997 344.592182 
L 88.755872 347.99077 
L 87.549722 351.389358 
L 86.182751 354.894152 
L 84.41373 358.027226 
L 82.80553 361.160299 
L 81.237534 364.877505 
L 79.589129 367.691961 
L 77.900518 370.825034 
L 76.010882 373.745696 
L 74.764527 377.303593 
L 73.116121 380.383563 
L 72.553251 383.888357 
L 71.065666 386.862122 
L 69.89972 389.782784 
L 68.653365 392.437931 
L 67.527624 395.464798 
L 65.879219 398.810283 
L 64.271018 401.412327 
L 59.486621 405.713666 
L 57.838216 408.475018 
L 56.27022 411.342577 
L 53.053819 416.493562 
L 51.325003 419.095606 
L 50.963158 421.166621 
L 48.309627 423.556253 
L 47.304502 426.105194 
L 45.535481 428.176209 
L 43.565436 431.203077 
L 41.99744 433.911327 
L 37.735709 439.274723 
L 36.489353 440.920915 
L 34.519307 442.142282 
L 33.634797 444.531914 
L 32.107007 449.576694 
L 30.860651 453.134591 
L 29.574091 456.426973 
L 27.604045 462.321399 
L 26.317484 464.233105 
L 25.392769 467.20687 
L 24.950514 470.924075 
L 23.663953 474.322664 
L 23.060878 478.199178 
L 23.503133 480.270193 
L 24.468054 481.597766 
L 25.071129 481.863281 
L 27.121585 483.774987 
L 30.378191 484.996354 
L 35.484228 488.34184 
L 37.896529 489.934928 
L 38.499604 491.262501 
L 40.79129 492.643178 
L 42.64072 494.395575 
L 45.173636 495.351428 
L 47.023067 496.625898 
L 48.631267 497.103825 
L 49.113728 497.581751 
L 51.083773 498.696913 
L 51.646644 497.528648 
L 52.651769 496.625898 
L 53.496074 496.519692 
L 53.094024 495.829354 
L 53.656894 495.670045 
L 53.656894 495.670045 
" style="fill:none;stroke:#000000;stroke-width:3;"/>
   </g>
  </g>
 </g>
 <defs>
  <clipPath id="p3750f70dc5">
   <rect height="554.4" width="348.939321" x="7.2" y="7.2"/>
  </clipPath>
 </defs>
</svg>
