<?xml version="1.0" encoding="utf-8" standalone="no"?>
<!DOCTYPE svg PUBLIC "-//W3C//DTD SVG 1.1//EN"
  "http://www.w3.org/Graphics/SVG/1.1/DTD/svg11.dtd">
<svg height="566.332469pt" version="1.1" viewBox="0 0 572.4 566.332469" width="572.4pt" xmlns="http://www.w3.org/2000/svg" xmlns:xlink="http://www.w3.org/1999/xlink">
 <metadata>
  <rdf:RDF xmlns:cc="http://creativecommons.org/ns#" xmlns:dc="http://purl.org/dc/elements/1.1/" xmlns:rdf="http://www.w3.org/1999/02/22-rdf-syntax-ns#">
   <cc:Work>
    <dc:type rdf:resource="http://purl.org/dc/dcmitype/StillImage"/>
    <dc:date>2021-09-09T02:00:34.038427</dc:date>
    <dc:format>image/svg+xml</dc:format>
    <dc:creator>
     <cc:Agent>
      <dc:title>Matplotlib v3.4.3, https://matplotlib.org/</dc:title>
     </cc:Agent>
    </dc:creator>
   </cc:Work>
  </rdf:RDF>
 </metadata>
 <defs>
  <style type="text/css">*{stroke-linecap:butt;stroke-linejoin:round;}</style>
 </defs>
 <g id="figure_1">
  <g id="patch_1">
   <path d="M 0 566.332469 
L 572.4 566.332469 
L 572.4 0 
L 0 0 
z
" style="fill:#ffffff;"/>
  </g>
  <g id="axes_1">
   <g id="LineCollection_1">
    <path clip-path="url(#p83486ef40d)" d="M 32.563636 534.04463 
L 32.596296 532.232259 
L 33.380133 530.49701 
L 34.457907 524.558604 
L 34.261948 523.170405 
L 34.327268 522.823355 
L 34.261948 521.512278 
L 33.96801 519.699907 
L 34.065989 518.465953 
L 35.143764 517.270559 
L 36.319519 516.152288 
L 37.854531 515.88236 
L 39.585503 515.381066 
L 42.818828 514.031428 
L 43.929263 513.298768 
L 53.433278 510.17532 
L 54.445733 509.635465 
L 56.013406 509.288415 
L 60.716424 507.3218 
L 61.957498 507.128995 
L 63.851769 506.473456 
L 66.725835 506.010724 
L 69.110004 505.89504 
L 71.624812 505.16238 
L 74.041641 504.314036 
L 76.556449 503.851303 
L 77.732203 503.465692 
L 79.103917 503.504253 
L 80.279671 503.002959 
L 82.63118 503.118642 
L 84.002894 502.964398 
L 85.276628 502.077493 
L 86.517702 502.077493 
L 87.922075 501.499077 
L 89.09783 500.8821 
L 91.1554 500.612172 
L 92.527114 500.072317 
L 95.662459 499.378218 
L 96.870873 499.223973 
L 99.516321 498.337068 
L 102.749645 497.565847 
L 105.558392 496.331892 
L 106.799466 495.984842 
L 108.04054 495.406426 
L 109.542893 494.982254 
L 112.155681 493.632616 
L 113.396755 493.632616 
L 114.833788 493.478372 
L 116.042203 492.899956 
L 117.642535 493.208445 
L 119.177548 492.745712 
L 120.418622 492.822834 
L 123.03141 492.475784 
L 124.109185 492.591467 
L 125.252279 492.514345 
L 126.362714 492.552906 
L 127.571128 492.938517 
L 129.106141 493.208445 
L 130.118596 493.825422 
L 131.131051 494.82801 
L 131.947548 495.90772 
L 133.090642 496.678942 
L 134.168417 497.565847 
L 135.57279 498.259946 
L 137.075143 498.41419 
L 138.675476 498.799801 
L 140.275808 498.337068 
L 141.451563 498.259946 
L 143.966371 498.606996 
L 146.28522 499.532462 
L 149.943123 500.650733 
L 151.151537 500.804978 
L 153.274427 501.769005 
L 154.515501 501.846127 
L 156.115834 501.769005 
L 157.879465 501.884688 
L 159.185859 501.730443 
L 163.26834 500.8821 
L 164.346115 500.226561 
L 165.848468 500.072317 
L 167.710079 500.188 
L 169.57169 499.802389 
L 170.780104 499.686706 
L 172.445757 499.763828 
L 175.025884 498.529874 
L 179.336984 497.141675 
L 183.517444 497.604408 
L 185.052457 497.565847 
L 188.024503 496.717503 
L 189.232917 496.717503 
L 190.473992 496.177648 
L 192.041664 495.869159 
L 194.850411 494.943693 
L 197.495858 494.519521 
L 198.900232 494.596643 
L 200.500564 494.365277 
L 202.002917 493.863983 
L 203.43995 493.092761 
L 204.060487 492.977078 
L 205.301562 492.591467 
L 206.509976 492.051612 
L 210.723096 491.087585 
L 212.192789 491.010463 
L 213.433863 490.432047 
L 214.936216 490.162119 
L 215.589413 490.162119 
L 216.797827 489.506581 
L 218.169541 489.275214 
L 219.443275 488.812481 
L 222.350001 487.887015 
L 225.224068 487.732771 
L 226.595781 487.501404 
L 228.718671 487.578527 
L 230.221024 487.192916 
L 231.690717 487.270038 
L 240.868134 486.922988 
L 242.729745 486.807305 
L 244.134118 487.077233 
L 245.636471 487.00011 
L 247.857341 487.655649 
L 249.033095 487.34716 
L 250.20885 487.617088 
L 251.711203 487.539966 
L 254.48729 487.077233 
L 255.989642 487.308599 
L 257.557315 486.691622 
L 258.929029 486.421694 
L 260.202763 486.460255 
L 261.574476 486.6145 
L 263.011509 486.498816 
L 264.415883 486.537377 
L 268.171765 484.339396 
L 273.625959 480.174799 
L 275.062993 479.981994 
L 276.010128 478.863722 
L 277.316522 478.285306 
L 281.431662 476.742863 
L 284.04445 475.740275 
L 286.755217 474.660564 
L 287.898312 473.850782 
L 290.674399 473.927904 
L 291.817494 473.310927 
L 292.895268 472.424022 
L 294.430281 471.421434 
L 295.638695 470.341723 
L 299.623197 468.220864 
L 302.007365 466.177127 
L 305.24069 463.940584 
L 306.122506 463.09224 
L 308.539335 461.356991 
L 309.42115 460.547209 
L 312.066598 459.313254 
L 313.046393 458.850521 
L 315.234603 456.806784 
L 316.377698 455.688512 
L 317.488132 454.994413 
L 318.304629 454.068947 
L 321.048056 452.565065 
L 321.962531 451.601038 
L 322.681048 450.405644 
L 323.922122 449.518739 
L 324.607979 448.631835 
L 325.359155 447.475002 
L 326.142992 446.742342 
L 326.926828 445.238459 
L 327.775984 444.19731 
L 329.147697 443.079039 
L 329.898874 442.307817 
L 333.752736 440.186958 
L 334.601892 439.531419 
L 336.038925 439.18437 
L 336.953401 438.336026 
L 338.129155 438.14322 
L 339.23959 437.140632 
L 340.121406 436.523655 
L 341.23184 435.598189 
L 344.563145 434.518479 
L 345.60826 433.708696 
L 347.829129 432.474741 
L 348.514986 431.549275 
L 349.658081 430.816615 
L 352.368848 429.58266 
L 352.989385 428.233022 
L 355.765472 426.767701 
L 361.840203 421.36915 
L 364.257032 419.633901 
L 365.334807 418.51563 
L 366.70652 417.667286 
L 368.339513 416.124843 
L 369.221328 415.122255 
L 372.454653 412.615785 
L 373.793707 411.844563 
L 375.23074 410.726292 
L 376.504474 409.993631 
L 378.790663 408.18126 
L 379.835778 407.332916 
L 381.53409 405.057813 
L 382.775164 404.209469 
L 384.048898 403.708175 
L 387.478182 400.738972 
L 388.523297 400.121994 
L 389.437773 399.157967 
L 390.646187 398.54099 
L 391.691302 397.808329 
L 392.899717 397.576963 
L 393.977492 396.304447 
L 396.165701 394.376393 
L 397.145497 393.720855 
L 398.223272 393.219561 
L 399.562325 392.795389 
L 400.509461 391.985606 
L 401.423937 391.368629 
L 402.501711 390.404602 
L 407.237389 387.85957 
L 408.151865 387.242593 
L 409.686878 386.818421 
L 410.895292 386.008638 
L 411.875087 385.083172 
L 413.540739 384.928928 
L 415.369691 383.57929 
L 416.643425 383.116557 
L 418.537696 380.957137 
L 420.072709 379.067644 
L 421.019844 377.87225 
L 421.705701 376.676857 
L 422.522197 373.746215 
L 423.306033 372.627943 
L 423.534652 371.548233 
L 424.808386 368.193419 
L 425.886161 365.417021 
L 426.572018 363.103356 
L 427.323194 361.907963 
L 427.813092 359.787103 
L 430.033962 353.385964 
L 430.36056 351.959204 
L 430.915777 350.493883 
L 431.275036 348.025973 
L 431.666954 346.869141 
L 431.666954 345.558064 
L 432.352811 344.285548 
L 434.116442 339.851024 
L 434.736979 338.501386 
L 434.802299 336.958943 
L 434.60634 335.300817 
L 435.096238 332.524419 
L 436.76189 330.364998 
L 438.068284 328.089894 
L 439.178718 325.390619 
L 443.685777 322.22861 
L 444.469613 321.303144 
L 445.482069 320.493361 
L 446.559844 319.336529 
L 447.082401 318.950918 
L 448.127516 318.372502 
L 450.348386 316.213081 
L 452.112017 315.904593 
L 453.74501 314.940566 
L 454.953424 314.670638 
L 455.998539 314.207905 
L 456.978334 313.282439 
L 458.154089 311.971362 
L 459.558462 311.238702 
L 460.701557 309.773381 
L 461.877311 309.194964 
L 462.824447 307.806766 
L 464.163501 306.996983 
L 465.306595 305.878711 
L 467.821403 303.950657 
L 469.780994 301.791237 
L 470.956749 300.788649 
L 471.773245 299.593255 
L 472.230483 298.513545 
L 473.373577 297.395274 
L 473.602196 296.045636 
L 474.190073 294.77312 
L 475.006569 292.420894 
L 475.823066 291.302623 
L 476.117004 289.721618 
L 475.921045 288.526225 
L 476.280303 287.138026 
L 479.938206 285.287094 
L 482.257055 283.243357 
L 485.294421 281.855158 
L 486.535495 280.814009 
L 487.54795 280.235592 
L 488.919664 279.580054 
L 489.932119 278.693149 
L 490.977234 278.114733 
L 492.479587 277.459195 
L 493.524702 276.610851 
L 494.961735 276.57229 
L 495.876211 275.839629 
L 496.823347 274.914163 
L 497.868462 274.412869 
L 498.815597 273.410281 
L 500.121991 272.253449 
L 500.775188 271.829277 
L 501.852963 270.942372 
L 502.669459 269.862662 
L 503.877873 268.937196 
L 504.367771 268.705829 
L 506.458001 267.31763 
L 507.405137 266.469286 
L 508.254293 265.273893 
L 509.136108 264.425549 
L 510.311863 263.73145 
L 511.291658 262.651739 
L 512.369433 262.073323 
L 514.361684 260.376636 
L 515.733397 259.528292 
L 516.190635 259.10412 
L 517.137771 258.02441 
L 518.248205 257.368871 
L 520.403755 255.17089 
L 521.51419 254.553912 
L 523.963679 252.355931 
L 524.845494 251.700392 
L 526.445827 250.659243 
L 528.536057 248.384139 
L 529.777131 246.109035 
L 531.475443 244.258104 
L 532.389919 243.718248 
L 532.683857 242.599977 
L 532.683857 241.327461 
L 532.553218 239.823579 
L 530.560967 234.926322 
L 529.417873 232.805462 
L 528.601377 231.764313 
L 527.392962 229.52777 
L 527.327643 228.216694 
L 527.523602 226.751373 
L 526.609126 223.396559 
L 526.739765 222.239726 
L 527.131684 220.812966 
L 527.001044 218.962034 
L 526.609126 217.38103 
L 526.543806 215.800026 
L 527.164343 213.177872 
L 527.262323 211.519745 
L 527.556262 210.170108 
L 527.94818 208.897592 
L 528.209458 207.625076 
L 527.752221 206.236877 
L 527.294983 204.270262 
L 527.197003 202.110842 
L 526.903065 200.799765 
L 526.805085 195.786824 
L 526.772425 194.282942 
L 527.164343 191.390861 
L 527.066364 190.311151 
L 527.229663 189.038635 
L 527.262323 187.766119 
L 526.707106 186.532165 
L 525.988589 185.336771 
L 526.119228 183.601523 
L 525.172093 181.403541 
L 524.943474 179.93822 
L 524.943474 178.51146 
L 524.224957 175.889306 
L 522.951223 173.382836 
L 522.004088 170.490755 
L 520.991633 169.719533 
L 520.795673 168.215651 
L 520.207796 166.788891 
L 520.142477 166.094792 
L 519.815878 164.937959 
L 519.783218 163.704005 
L 519.35864 162.508611 
L 518.966722 159.500847 
L 518.509484 156.917254 
L 517.888947 155.490494 
L 516.843832 151.788631 
L 516.321275 147.662595 
L 515.994676 144.076414 
L 515.439459 142.572532 
L 515.17818 140.991528 
L 514.655622 139.564768 
L 514.459663 138.485057 
L 514.002425 137.443908 
L 513.937106 136.209954 
L 514.035085 134.204777 
L 512.565392 131.042769 
L 511.879536 128.613421 
L 511.716236 127.302344 
L 511.716236 125.837023 
L 511.356978 124.757313 
L 511.487617 123.176308 
L 511.912195 121.44106 
L 511.716236 120.091422 
L 512.271454 118.394734 
L 512.95731 117.045096 
L 513.12061 115.541214 
L 514.394344 113.188988 
L 514.557643 111.183812 
L 514.884241 109.718491 
L 515.014881 108.484536 
L 515.831377 107.289143 
L 516.288615 106.016627 
L 517.627668 103.471596 
L 517.986927 102.314763 
L 519.032042 100.965125 
L 519.42396 99.615487 
L 520.240456 98.65146 
L 521.938768 96.222112 
L 522.624625 94.71823 
L 523.767719 93.561398 
L 525.041453 91.440538 
L 525.433372 90.283706 
L 525.564011 89.203996 
L 526.021249 88.008602 
L 526.249868 86.928892 
L 527.099024 84.962277 
L 527.94818 82.841417 
L 529.809791 79.486603 
L 530.10373 78.445454 
L 530.626287 77.442866 
L 530.952886 76.208911 
L 532.389919 72.815536 
L 534.088231 69.152233 
L 534.839407 67.648351 
L 535.851862 65.334686 
L 536.3091 63.946487 
L 536.27644 62.905338 
L 536.40708 61.632822 
L 536.668359 60.283185 
L 537.909433 57.776714 
L 538.49731 56.54276 
L 539.117847 55.50161 
L 539.771044 52.763774 
L 539.836364 51.259892 
L 539.575085 50.642914 
L 538.268691 49.756009 
L 537.648154 49.524643 
L 535.296645 49.254715 
L 534.21887 48.869104 
L 532.945136 48.753421 
L 531.834701 48.252127 
L 530.920226 47.673711 
L 528.895315 46.786806 
L 525.629331 45.475729 
L 523.081863 44.588824 
L 520.665034 43.431992 
L 517.856287 42.776454 
L 516.680533 42.27516 
L 515.047541 42.043793 
L 513.839126 41.388255 
L 512.369433 40.925522 
L 510.83442 40.886961 
L 509.430047 40.192861 
L 508.319612 39.305956 
L 504.400431 37.956318 
L 502.898078 37.879196 
L 501.983602 37.030853 
L 500.807848 36.606681 
L 499.305495 36.259631 
L 496.725367 35.52697 
L 495.516953 35.488409 
L 494.406518 34.909993 
L 492.577567 33.753161 
L 491.303833 33.36755 
L 490.258717 33.174744 
L 488.658385 33.36755 
L 487.156032 32.827695 
L 486.535495 32.789134 
L 485.000482 32.866256 
L 483.857388 32.480645 
L 479.938206 32.28784 
L 478.566493 32.519206 
L 477.0968 32.943378 
L 475.757746 32.750572 
L 474.451352 32.827695 
L 472.295802 33.945966 
L 469.683015 34.601504 
L 467.037567 34.987115 
L 465.992452 35.179921 
L 463.183705 35.449848 
L 461.224114 36.22107 
L 459.95038 36.606681 
L 457.664191 36.876608 
L 456.619076 37.493585 
L 455.280022 37.879196 
L 452.438616 39.80725 
L 451.132222 40.578472 
L 448.944012 42.198037 
L 448.094856 43.200626 
L 447.082401 44.08753 
L 445.906647 44.627386 
L 444.959511 45.707096 
L 443.881736 46.131268 
L 442.901941 47.018173 
L 439.374677 50.372987 
L 438.133603 51.182769 
L 437.088488 51.645502 
L 434.932938 53.149384 
L 431.111736 55.964343 
L 430.589179 56.966932 
L 429.674703 57.738153 
L 428.466289 57.699592 
L 426.702657 59.04923 
L 425.559563 59.859013 
L 424.906366 60.900162 
L 423.828591 61.825628 
L 422.914115 62.442605 
L 421.607721 63.715121 
L 419.354192 64.794831 
L 418.407056 65.913102 
L 417.394601 66.452958 
L 416.480125 67.339862 
L 415.271711 67.648351 
L 413.31212 69.345039 
L 411.809768 69.962016 
L 410.666673 70.578993 
L 409.327619 71.003165 
L 407.988566 71.697265 
L 406.486213 72.23712 
L 405.473757 73.124025 
L 404.428642 73.548197 
L 402.207773 73.548197 
L 401.032018 74.049491 
L 398.64785 74.627907 
L 397.602735 75.167762 
L 396.263681 75.630495 
L 394.891967 75.861861 
L 393.683553 76.286033 
L 392.311839 76.555961 
L 391.005446 76.633083 
L 389.731712 76.825888 
L 388.686597 77.211499 
L 386.563707 77.789915 
L 385.355292 78.368332 
L 384.440817 79.062431 
L 383.461021 79.37092 
L 382.285267 79.139553 
L 380.129717 80.527752 
L 379.019282 80.527752 
L 378.039487 80.990485 
L 376.471814 80.951924 
L 375.067441 80.45063 
L 373.924346 80.180703 
L 370.331763 79.563725 
L 365.432786 78.869626 
L 364.322352 78.792504 
L 363.015958 78.098404 
L 361.774884 77.712793 
L 359.227416 77.365744 
L 357.823042 76.401717 
L 356.843247 75.399128 
L 355.700152 74.512224 
L 354.655037 72.931219 
L 353.871201 72.198559 
L 353.315983 70.771799 
L 352.00959 68.997989 
L 351.617671 67.918279 
L 350.997134 66.800007 
L 350.768515 65.604614 
L 350.115319 64.293537 
L 349.75606 63.059582 
L 349.298822 61.941311 
L 348.906904 60.47599 
L 347.175932 57.27542 
L 346.490076 56.427076 
L 345.738899 55.193122 
L 344.465165 54.383339 
L 342.897493 54.07485 
L 341.29716 53.959167 
L 339.925447 54.499022 
L 338.717032 56.581321 
L 337.606598 57.121176 
L 336.430843 57.853836 
L 336.006265 58.35513 
L 335.157109 59.04923 
L 333.785396 59.434841 
L 328.461841 63.368071 
L 324.052761 65.720297 
L 322.909667 66.607202 
L 321.831892 67.147057 
L 320.852097 67.494107 
L 318.957825 69.075111 
L 316.802276 70.617554 
L 315.267263 71.195971 
L 314.744705 71.620142 
L 313.83023 72.507047 
L 312.948414 73.201147 
L 311.67468 73.702441 
L 308.474015 76.787327 
L 307.4289 78.368332 
L 306.285805 78.869626 
L 305.501969 79.872214 
L 303.705677 81.029046 
L 302.758542 81.993073 
L 301.680767 82.417245 
L 300.602992 83.265589 
L 299.590537 84.268177 
L 298.87202 85.155082 
L 297.924885 85.964865 
L 296.87977 86.311914 
L 296.030614 86.928892 
L 295.573376 88.008602 
L 294.266982 89.782412 
L 292.372711 91.980393 
L 291.817494 92.327443 
L 291.000997 93.252909 
L 288.910767 94.525425 
L 287.898312 95.566574 
L 286.26532 96.684845 
L 285.220205 97.610311 
L 284.17509 97.725995 
L 281.725601 98.65146 
L 280.615166 98.882827 
L 277.904399 99.769732 
L 276.989923 100.309587 
L 275.781509 100.888003 
L 274.540435 101.774908 
L 271.045831 102.54613 
L 269.804757 102.700374 
L 268.563683 103.27879 
L 266.669412 104.435623 
L 265.526318 105.361089 
L 265.199719 105.78526 
L 264.873121 106.980654 
L 264.93844 110.296907 
L 265.265039 111.530862 
L 264.807801 112.53345 
L 264.513862 113.728843 
L 265.330358 117.199341 
L 265.656957 119.590128 
L 266.081535 120.785521 
L 266.832711 121.518182 
L 267.15931 122.559331 
L 268.694323 124.525946 
L 269.15156 125.644217 
L 270.653913 127.765077 
L 271.176471 128.729104 
L 272.123606 129.538887 
L 273.234041 130.310108 
L 275.095652 132.006796 
L 276.173427 132.623773 
L 276.924604 133.394995 
L 278.198338 133.973411 
L 279.961969 135.053121 
L 281.039744 135.477293 
L 287.800332 139.102035 
L 288.486189 139.911817 
L 289.661944 140.605917 
L 292.307391 141.454261 
L 293.679105 142.264043 
L 294.822199 142.49541 
L 296.87977 143.343754 
L 299.557877 143.420876 
L 300.96225 143.767926 
L 303.24844 143.92217 
L 304.260895 144.423464 
L 305.730588 144.577708 
L 306.939002 144.577708 
L 309.225191 145.079002 
L 310.237647 145.503174 
L 312.164578 146.582885 
L 313.536291 147.315545 
L 314.058849 147.431228 
L 314.973324 148.279572 
L 316.312378 148.780866 
L 317.586112 149.089355 
L 318.467928 149.822015 
L 319.088465 150.670359 
L 320.1989 151.287336 
L 321.080715 151.942875 
L 322.354449 152.714096 
L 323.497544 153.215391 
L 325.065217 154.757834 
L 325.979692 155.837544 
L 329.049718 157.958404 
L 333.720076 164.128177 
L 334.830511 166.249036 
L 337.410638 169.796655 
L 337.737237 170.992049 
L 338.259794 172.264565 
L 341.2645 176.467723 
L 341.558439 177.508872 
L 342.244296 178.819949 
L 344.399845 181.943396 
L 345.216342 182.676057 
L 346.032838 183.755767 
L 348.188388 188.036047 
L 349.004884 188.922952 
L 349.462122 190.041223 
L 350.376597 190.735323 
L 352.401508 193.164671 
L 353.283324 194.090137 
L 355.308234 195.825385 
L 356.483988 196.365241 
L 357.659743 197.40639 
L 358.835497 198.293295 
L 359.978592 198.871711 
L 361.252326 199.797177 
L 361.807543 200.028543 
L 362.754679 200.761204 
L 363.669155 201.725231 
L 364.68161 202.226525 
L 366.608541 203.499041 
L 367.882275 203.923212 
L 370.886981 206.313999 
L 371.899436 206.776732 
L 373.10785 207.547954 
L 374.806162 208.82047 
L 375.655318 210.054424 
L 377.516929 211.712551 
L 378.398745 212.445211 
L 379.672479 213.139311 
L 380.554295 214.026216 
L 383.036443 216.879736 
L 384.702095 218.036568 
L 385.681891 218.537862 
L 386.955625 219.424767 
L 387.804781 220.273111 
L 389.470433 221.66131 
L 390.18895 222.663898 
L 391.168745 223.512242 
L 393.422274 225.903029 
L 395.643144 227.831083 
L 397.766034 230.723164 
L 398.876469 231.571508 
L 399.431686 232.805462 
L 401.554576 235.504738 
L 401.652555 236.66157 
L 403.546826 240.016385 
L 405.212479 242.368611 
L 405.637057 243.756809 
L 406.355573 245.067886 
L 407.172069 246.109035 
L 408.870381 249.425288 
L 409.327619 250.582121 
L 410.078796 251.893198 
L 411.025931 252.895786 
L 412.267005 255.286573 
L 412.985522 256.096355 
L 414.226596 257.291749 
L 415.043092 258.448581 
L 415.53299 259.682536 
L 416.153527 260.646563 
L 417.002683 261.533468 
L 417.917159 262.189006 
L 418.994934 264.386988 
L 420.268668 265.466698 
L 422.946775 268.860073 
L 423.534652 270.132589 
L 424.612427 271.94496 
L 426.343399 275.415457 
L 427.225215 276.610851 
L 427.649793 277.960489 
L 428.23767 278.924516 
L 429.086826 280.891131 
L 429.609384 281.970841 
L 430.26258 283.01199 
L 430.719818 284.168823 
L 431.373015 285.248533 
L 431.797593 286.443926 
L 432.38547 287.446515 
L 433.365266 288.410542 
L 434.639 290.608523 
L 436.108693 292.652261 
L 437.513066 294.695998 
L 437.839665 296.045636 
L 438.558181 297.163907 
L 439.407337 298.243617 
L 441.399588 301.444187 
L 441.954805 302.909508 
L 444.763552 306.958422 
L 446.298565 308.886476 
L 447.180381 311.354385 
L 448.911353 313.66805 
L 449.335931 314.863443 
L 448.486775 316.290203 
L 447.34368 317.215669 
L 446.233245 317.794086 
L 445.22079 318.179696 
L 443.424498 319.37509 
L 442.281404 320.570483 
L 441.987465 321.264583 
L 441.170969 322.267171 
L 440.321813 323.076954 
L 439.831915 324.118103 
L 439.178718 325.159252 
L 438.166263 327.202989 
L 437.447747 328.552627 
L 435.324857 330.596365 
L 434.051123 331.444708 
L 431.111736 333.912618 
L 429.903322 334.645278 
L 427.780432 336.341966 
L 426.637338 336.611893 
L 425.657542 337.190309 
L 424.514448 337.730165 
L 423.404013 338.077214 
L 422.391558 338.655631 
L 421.215803 338.925558 
L 419.158233 339.735341 
L 418.015138 339.889585 
L 416.937363 339.812463 
L 415.859588 340.545124 
L 411.18923 342.473178 
L 410.242095 343.090155 
L 407.792606 343.360083 
L 406.780151 343.745693 
L 405.604397 343.861377 
L 404.559282 343.784254 
L 403.318208 343.97706 
L 402.109793 343.784254 
L 400.934039 345.018209 
L 399.725625 345.558064 
L 398.190612 346.367847 
L 396.949538 346.560652 
L 395.969742 347.100507 
L 392.867057 347.987412 
L 391.397364 348.25734 
L 390.15629 348.180218 
L 389.111175 348.411584 
L 387.93542 349.221367 
L 386.694346 349.452733 
L 383.62432 349.6841 
L 381.59941 350.108272 
L 379.215241 350.41676 
L 377.843528 350.493883 
L 376.569794 351.072299 
L 375.622658 351.650715 
L 374.381584 351.84352 
L 372.879231 352.421937 
L 371.899436 352.961792 
L 369.482607 353.193158 
L 368.176213 353.655891 
L 367.098438 353.694452 
L 365.988004 354.272869 
L 363.505855 354.966968 
L 358.868157 355.776751 
L 357.725063 356.200923 
L 353.511943 357.087827 
L 352.466827 357.55056 
L 350.180638 357.89761 
L 349.037544 358.630271 
L 347.63317 358.630271 
L 346.555395 359.170126 
L 343.322071 360.134153 
L 342.146316 360.75113 
L 340.872582 361.175302 
L 339.990766 361.753718 
L 338.815012 361.946524 
L 337.639257 361.946524 
L 336.528823 362.332135 
L 335.222429 362.52494 
L 333.230178 363.334723 
L 331.793145 363.758895 
L 330.68271 364.645799 
L 329.441636 365.417021 
L 328.200562 365.995437 
L 324.509999 368.193419 
L 321.864552 368.810396 
L 320.10092 370.198595 
L 318.761866 370.931256 
L 317.684091 371.316866 
L 315.691841 371.509672 
L 314.614066 371.509672 
L 312.360537 372.743626 
L 312.033938 373.167798 
L 311.511381 374.208948 
L 311.478721 375.944196 
L 312.687135 378.720594 
L 312.817774 380.031671 
L 313.340332 381.227064 
L 313.601611 382.461019 
L 314.287468 384.234829 
L 313.928209 385.507344 
L 312.197237 388.090937 
L 312.131918 390.250357 
L 310.858184 392.101289 
L 309.715089 394.029343 
L 309.780409 395.571787 
L 309.061892 396.882863 
L 308.049437 397.885451 
L 307.200281 399.196528 
L 306.743043 399.582139 
L 305.33867 401.587315 
L 304.424194 402.551342 
L 303.411739 403.206881 
L 302.725882 404.093786 
L 300.374373 406.253206 
L 297.663606 407.255794 
L 293.483146 409.569459 
L 291.850153 409.800826 
L 290.870358 410.649169 
L 286.428619 412.654346 
L 285.252864 413.078518 
L 284.17509 413.734056 
L 282.966675 414.312472 
L 281.594962 414.659522 
L 279.570051 415.970599 
L 278.198338 415.893476 
L 275.389591 416.818942 
L 274.017877 417.551603 
L 272.417545 417.937214 
L 271.699028 417.975775 
L 270.425294 418.438508 
L 269.380179 419.325413 
L 266.604092 419.749585 
L 265.558977 420.328001 
L 261.705116 421.330589 
L 258.047213 422.564544 
L 257.132737 423.14296 
L 255.826343 423.374326 
L 254.846548 423.87562 
L 253.605474 424.068426 
L 252.3644 424.608281 
L 251.090666 424.993892 
L 249.914911 424.993892 
L 248.314579 424.762525 
L 245.734451 424.723964 
L 244.689336 425.379502 
L 242.043888 424.916769 
L 240.900794 425.456625 
L 238.745244 425.186697 
L 237.275551 425.418064 
L 235.675218 424.916769 
L 234.368824 425.263819 
L 233.22573 425.263819 
L 230.906881 425.456625 
L 229.861766 425.726552 
L 228.457392 425.533747 
L 227.281638 425.765113 
L 226.105883 425.726552 
L 224.66885 425.919358 
L 224.276932 426.150724 
L 221.794784 425.957919 
L 220.45573 425.687991 
L 218.986037 425.263819 
L 217.059106 425.842235 
L 213.368544 426.497774 
L 212.192789 426.883385 
L 210.951715 427.037629 
L 209.710641 426.574896 
L 208.502226 426.420652 
L 205.856779 426.883385 
L 204.485065 426.72914 
L 201.970257 427.963095 
L 200.402585 427.963095 
L 199.32481 428.117339 
L 197.267239 428.618633 
L 196.352764 429.466977 
L 195.601587 430.816615 
L 195.601587 431.510714 
L 194.915731 432.320497 
L 193.805296 434.171429 
L 193.152099 435.058334 
L 191.780385 435.675311 
L 189.363557 437.024949 
L 186.45683 439.18437 
L 185.379056 439.878469 
L 184.693199 440.688252 
L 183.746063 441.575157 
L 182.733608 442.153573 
L 180.806677 443.734577 
L 179.173685 445.585509 
L 178.03059 446.549536 
L 177.083455 447.629246 
L 175.515782 448.516151 
L 174.438007 449.788667 
L 172.609056 451.253988 
L 168.461255 455.649951 
L 166.109746 457.153833 
L 164.476754 457.578005 
L 163.692918 458.426349 
L 162.745782 459.081888 
L 160.263634 461.511236 
L 158.92458 462.089652 
L 158.010105 463.015118 
L 156.93233 463.554973 
L 155.887215 464.364756 
L 155.593276 464.788928 
L 153.568366 466.100004 
L 151.151537 468.182303 
L 150.43302 468.953524 
L 149.322586 469.801868 
L 148.604069 470.727334 
L 146.2199 471.807044 
L 144.521588 473.310927 
L 143.182535 473.77366 
L 142.0721 474.544881 
L 141.418903 475.58603 
L 140.275808 476.62718 
L 139.100054 477.475523 
L 138.316218 478.400989 
L 137.597701 479.4807 
L 136.715885 480.483288 
L 134.625655 481.832926 
L 133.51522 482.33422 
L 132.568085 483.028319 
L 130.837113 485.226301 
L 129.889977 487.154355 
L 128.942842 488.349748 
L 127.505809 489.776508 
L 126.689312 490.432047 
L 125.611537 490.856219 
L 124.501103 491.010463 
L 123.227369 490.971902 
L 121.071819 491.087585 
L 120.026704 491.434635 
L 118.981589 491.357513 
L 117.936474 491.820246 
L 115.389006 492.360101 
L 114.899108 492.70715 
L 113.756013 493.169883 
L 112.710898 493.941105 
L 111.567804 494.48096 
L 110.29407 494.943693 
L 109.183635 495.483548 
L 105.199134 495.830598 
L 102.619006 496.370453 
L 101.541231 496.833186 
L 100.071538 497.180236 
L 98.993763 497.642969 
L 96.707574 498.067141 
L 95.531819 498.452752 
L 94.192766 498.645557 
L 93.017011 499.339656 
L 91.873917 499.879512 
L 90.534863 500.072317 
L 89.261129 500.496489 
L 86.517702 501.190588 
L 85.407267 501.460516 
L 83.937574 501.691882 
L 80.47563 502.578787 
L 77.470925 502.925837 
L 75.250055 503.581375 
L 73.878341 503.697059 
L 72.669927 504.275475 
L 71.363533 504.583963 
L 68.816065 504.776769 
L 66.660516 505.740796 
L 65.452101 505.509429 
L 64.276347 506.164968 
L 63.133252 506.24209 
L 61.990158 506.897628 
L 60.781743 506.974751 
L 56.111385 508.594316 
L 54.739672 508.825682 
L 53.465938 509.365538 
L 52.486142 509.943954 
L 51.212408 510.483809 
L 49.775375 510.86942 
L 48.468981 511.60208 
L 47.097268 511.94913 
L 46.150132 512.527546 
L 44.909058 512.720352 
L 43.831283 513.144524 
L 42.851488 513.838623 
L 41.643074 514.339917 
L 37.560593 516.422215 
L 36.0909 518.465953 
L 35.698982 519.42998 
L 35.698982 519.42998 
" style="fill:none;stroke:#000000;stroke-width:3;"/>
   </g>
  </g>
 </g>
 <defs>
  <clipPath id="p83486ef40d">
   <rect height="551.932469" width="558" x="7.2" y="7.2"/>
  </clipPath>
 </defs>
</svg>
