<?xml version="1.0" encoding="utf-8" standalone="no"?>
<!DOCTYPE svg PUBLIC "-//W3C//DTD SVG 1.1//EN"
  "http://www.w3.org/Graphics/SVG/1.1/DTD/svg11.dtd">
<svg height="568.8pt" version="1.1" viewBox="0 0 359.708196 568.8" width="359.708196pt" xmlns="http://www.w3.org/2000/svg" xmlns:xlink="http://www.w3.org/1999/xlink">
 <metadata>
  <rdf:RDF xmlns:cc="http://creativecommons.org/ns#" xmlns:dc="http://purl.org/dc/elements/1.1/" xmlns:rdf="http://www.w3.org/1999/02/22-rdf-syntax-ns#">
   <cc:Work>
    <dc:type rdf:resource="http://purl.org/dc/dcmitype/StillImage"/>
    <dc:date>2021-09-14T01:59:20.382360</dc:date>
    <dc:format>image/svg+xml</dc:format>
    <dc:creator>
     <cc:Agent>
      <dc:title>Matplotlib v3.4.3, https://matplotlib.org/</dc:title>
     </cc:Agent>
    </dc:creator>
   </cc:Work>
  </rdf:RDF>
 </metadata>
 <defs>
  <style type="text/css">*{stroke-linecap:butt;stroke-linejoin:round;}</style>
 </defs>
 <g id="figure_1">
  <g id="patch_1">
   <path d="M 0 568.8 
L 359.708196 568.8 
L 359.708196 0 
L 0 0 
z
" style="fill:#ffffff;"/>
  </g>
  <g id="axes_1">
   <g id="LineCollection_1">
    <path clip-path="url(#p7bfdbc71ce)" d="M 119.714297 250.960534 
L 119.903119 250.804676 
L 120.044736 250.991706 
L 120.103743 251.303423 
L 120.493188 251.724242 
L 120.741017 251.817757 
L 120.906236 251.661898 
L 120.658407 251.911272 
L 120.953442 252.269747 
L 126.275861 255.262232 
L 126.86593 255.963596 
L 127.562211 256.322071 
L 128.813157 256.618202 
L 129.462232 256.992263 
L 129.792671 257.662455 
L 131.315048 257.600111 
L 131.645486 257.444253 
L 131.952322 257.49101 
L 133.238672 257.802728 
L 134.737446 259.392485 
L 136.637467 260.374395 
L 137.286543 260.997829 
L 139.800236 262.01091 
L 140.508318 262.572001 
L 141.027578 263.226607 
L 141.830072 264.0059 
L 143.293442 265.050153 
L 144.095936 265.299527 
L 144.638799 265.938547 
L 145.960553 266.967214 
L 146.633231 267.232174 
L 147.836971 268.447871 
L 148.309026 269.273922 
L 148.745677 271.190982 
L 149.253136 272.998942 
L 149.760595 275.149791 
L 150.161842 276.926579 
L 150.49228 279.654105 
L 150.386068 280.760701 
L 150.456876 281.55558 
L 150.256253 285.561147 
L 149.477362 287.852268 
L 148.922697 290.891511 
L 148.403437 293.04236 
L 148.415238 294.117785 
L 148.061197 296.440078 
L 147.612745 297.858391 
L 147.282306 299.37022 
L 146.940067 302.253604 
L 146.951868 303.749847 
L 147.176094 305.16816 
L 147.2233 306.617645 
L 147.093484 308.300918 
L 147.187895 311.246646 
L 147.305909 314.192374 
L 147.199697 315.766546 
L 146.172977 318.883718 
L 145.453094 320.364375 
L 143.718292 323.060729 
L 140.472914 326.692235 
L 137.994625 328.983357 
L 134.312597 331.742054 
L 133.120658 332.864236 
L 132.046733 333.705873 
L 126.913135 338.864793 
L 123.030483 343.213248 
L 119.537277 348.169552 
L 117.84968 350.741219 
L 115.890652 353.234957 
L 112.633473 356.850877 
L 111.347123 357.910715 
L 110.001767 358.830281 
L 106.178122 361.978625 
L 103.475607 363.755413 
L 99.168106 366.514111 
L 97.976167 367.667465 
L 95.627694 370.317061 
L 94.742591 371.766546 
L 92.512131 376.161759 
L 91.485411 379.341275 
L 91.225781 380.837517 
L 91.261185 383.830003 
L 91.461809 385.295074 
L 91.532617 386.85366 
L 91.81585 388.303145 
L 92.842569 398.79243 
L 92.866172 400.273087 
L 93.078597 403.265572 
L 93.149405 404.668299 
L 93.007789 406.071027 
L 92.995987 407.520512 
L 92.488528 410.061008 
L 91.768644 412.523574 
L 91.119569 413.754857 
L 88.181027 417.635736 
L 87.059896 418.290342 
L 84.900245 419.194322 
L 80.498332 420.643807 
L 76.391454 422.701141 
L 74.751063 424.306485 
L 74.184597 425.210465 
L 72.733028 427.080768 
L 70.962822 430.088839 
L 69.629267 431.647426 
L 68.36652 434.826941 
L 68.095089 435.793265 
L 67.233588 437.819427 
L 66.785136 438.692235 
L 66.56091 439.611801 
L 65.321766 442.339326 
L 63.173916 448.27754 
L 61.439114 454.309268 
L 57.650873 462.928249 
L 57.060804 464.081603 
L 54.61792 467.323462 
L 53.768221 468.367715 
L 52.068823 470.113331 
L 51.160117 471.188756 
L 50.227809 472.108322 
L 44.810978 476.456777 
L 42.804745 478.295909 
L 39.866203 481.070192 
L 39.134517 482.145616 
L 38.21401 482.940495 
L 30.708337 491.559477 
L 27.13252 496.671639 
L 26.164808 498.962761 
L 25.456725 500.007014 
L 24.323793 502.313721 
L 23.627512 504.745116 
L 23.155457 507.207682 
L 22.895827 509.857278 
L 23.403286 511.228834 
L 24.064163 512.60039 
L 24.489013 513.753743 
L 25.338711 515.094127 
L 26.412636 517.432007 
L 27.203329 518.569775 
L 30.944364 522.263624 
L 32.986002 524.227442 
L 34.166139 524.928806 
L 35.20466 525.739271 
L 36.302188 526.752352 
L 38.745072 528.295352 
L 43.71345 531.474868 
L 46.297951 532.908767 
L 47.560698 533.68806 
L 50.393028 535.04403 
L 51.891802 535.449262 
L 53.343371 535.979182 
L 56.175701 536.337657 
L 57.70988 536.4 
L 59.126045 536.088283 
L 60.435997 535.932424 
L 61.745949 535.402505 
L 62.902484 534.685555 
L 63.988211 533.797161 
L 64.908718 532.893181 
L 67.257191 529.682494 
L 67.811856 528.373281 
L 68.590746 525.786028 
L 69.617466 523.120846 
L 70.065918 521.842805 
L 71.269658 519.146451 
L 71.812521 517.743724 
L 74.385221 512.849763 
L 75.046098 511.680824 
L 75.966605 509.405288 
L 78.999558 505.041247 
L 80.262305 502.796883 
L 81.690271 500.910994 
L 85.053663 497.653549 
L 85.690937 496.811912 
L 86.528834 495.970276 
L 87.508348 495.331255 
L 90.918945 494.162316 
L 93.255617 493.850598 
L 96.654413 493.61681 
L 98.77866 494.318174 
L 100.92651 495.611801 
L 103.145169 496.78074 
L 104.065676 497.591205 
L 105.080594 498.13671 
L 106.272533 498.573114 
L 107.346458 499.11862 
L 108.514794 499.477094 
L 109.730335 499.695296 
L 110.993082 499.75764 
L 113.506775 499.539438 
L 114.84033 499.258892 
L 116.020467 498.760145 
L 117.153399 498.152296 
L 119.254044 496.59371 
L 123.077689 493.383023 
L 124.505655 491.465962 
L 126.26406 487.990315 
L 127.420594 484.561425 
L 127.680225 483.439243 
L 128.093273 482.223546 
L 128.636136 481.070192 
L 130.21752 478.981687 
L 132.02313 477.002282 
L 136.118207 473.963039 
L 138.242454 472.591483 
L 139.269174 472.045978 
L 140.248688 471.313443 
L 141.369818 470.643251 
L 142.278524 469.957473 
L 143.293442 469.536655 
L 144.379169 468.804119 
L 145.169861 468.102755 
L 145.830737 467.229947 
L 147.081683 465.234957 
L 148.403437 463.458169 
L 148.875492 462.476259 
L 149.489163 461.478764 
L 149.984821 460.434512 
L 150.220849 459.421431 
L 151.849438 454.79243 
L 152.250685 453.717005 
L 152.451308 452.579237 
L 152.864356 451.612914 
L 153.265603 450.194601 
L 153.572439 447.872307 
L 153.619644 446.734539 
L 153.513432 445.48767 
L 153.289206 444.225216 
L 152.557521 441.934094 
L 150.905328 438.723407 
L 150.31526 437.460952 
L 149.689787 435.045143 
L 149.524567 433.673588 
L 149.500965 430.992819 
L 149.654383 429.621264 
L 149.937616 428.374395 
L 150.433273 427.189869 
L 151.082349 426.067687 
L 153.395418 422.716727 
L 154.127103 421.532202 
L 155.083015 420.503535 
L 157.525899 417.370777 
L 159.555735 415.43813 
L 164.606723 412.040412 
L 165.751456 411.541664 
L 168.560183 409.406401 
L 169.468889 408.518007 
L 170.224177 407.598441 
L 170.920458 406.491845 
L 171.675746 404.231895 
L 172.006184 401.894016 
L 171.829164 399.727581 
L 171.628541 397.576733 
L 171.687547 396.53248 
L 172.171404 394.303702 
L 172.879486 391.763206 
L 173.209925 391.030671 
L 173.563966 389.892903 
L 173.646575 389.03568 
L 174.000617 387.929084 
L 174.295651 386.167882 
L 175.48759 382.645477 
L 175.794425 379.88678 
L 176.419898 378.109992 
L 176.809344 376.395547 
L 177.21059 375.475981 
L 178.107495 372.389981 
L 178.92179 370.39499 
L 179.476454 369.506596 
L 179.865899 368.477929 
L 180.526776 367.511606 
L 180.998831 366.467353 
L 181.600701 365.532202 
L 183.583332 361.479878 
L 184.315017 360.560312 
L 184.905086 359.62516 
L 186.392059 358.08216 
L 187.784621 356.2742 
L 190.652355 353.655775 
L 192.304547 351.956916 
L 193.826925 350.39833 
L 196.635652 346.813582 
L 199.397173 341.841692 
L 200.860543 337.882883 
L 201.297194 336.900974 
L 202.46553 333.129196 
L 203.740079 330.386084 
L 204.87301 328.59371 
L 210.655684 320.115001 
L 211.281156 319.242193 
L 212.095451 318.400557 
L 214.951384 316.405566 
L 215.989904 315.673031 
L 219.601125 314.098859 
L 221.949598 313.241637 
L 224.132852 312.58703 
L 227.37823 311.558363 
L 228.546566 311.589535 
L 230.517396 311.916838 
L 231.650327 311.994768 
L 232.87767 312.353242 
L 236.39448 312.727303 
L 238.825563 312.976677 
L 240.08831 313.070192 
L 241.20944 313.007849 
L 243.664126 312.524687 
L 244.844263 312.181798 
L 247.121928 311.090788 
L 247.853614 310.420596 
L 248.962943 309.812747 
L 251.42943 307.178736 
L 252.054903 306.025383 
L 252.999013 303.703089 
L 253.565479 302.565321 
L 254.86363 300.352129 
L 255.276678 299.339048 
L 259.525172 291.733148 
L 260.516488 289.410854 
L 262.534523 285.685834 
L 266.251955 280.168439 
L 268.517819 275.75764 
L 268.989874 274.713387 
L 269.320312 273.622377 
L 269.804169 272.702811 
L 273.627814 267.154244 
L 276.719774 261.387476 
L 278.041528 259.018425 
L 279.398686 256.742889 
L 280.059563 255.667465 
L 280.590624 254.436181 
L 281.286905 253.345171 
L 283.682584 248.591483 
L 285.075146 246.300362 
L 285.440989 245.10025 
L 287.506229 241.733704 
L 288.072695 240.595937 
L 289.028607 238.13337 
L 289.665881 236.933259 
L 289.937312 235.811077 
L 291.070244 233.270582 
L 291.530498 232.101642 
L 292.356594 229.639076 
L 292.58082 228.423379 
L 292.734238 225.63351 
L 292.746039 224.152853 
L 292.92306 222.687782 
L 293.088279 218.152296 
L 293.666547 212.120568 
L 294.292019 209.065739 
L 294.504444 207.740941 
L 294.563451 204.779627 
L 294.008786 203.361314 
L 293.878971 201.787142 
L 292.852252 198.950515 
L 291.070244 194.757918 
L 290.279552 193.464292 
L 289.087614 190.845867 
L 288.816182 188.196271 
L 289.949114 183.676371 
L 290.940429 180.777401 
L 292.132368 178.096632 
L 296.35726 170.53749 
L 297.100746 169.337378 
L 302.907022 161.528862 
L 305.751153 158.614306 
L 306.919489 157.741497 
L 308.748702 155.995881 
L 311.510224 153.065739 
L 313.256827 151.117506 
L 314.05932 149.964153 
L 314.932622 148.997829 
L 315.628903 147.906819 
L 316.643821 145.428667 
L 316.915253 144.150626 
L 317.092273 141.547787 
L 316.785438 137.713665 
L 316.620218 135.126412 
L 316.584814 130.216866 
L 317.021465 126.476259 
L 317.328301 125.167047 
L 318.036383 121.05238 
L 318.532041 118.371611 
L 319.936404 113.150348 
L 321.092939 110.687782 
L 322.686125 108.443418 
L 324.645153 106.417256 
L 326.733996 104.500195 
L 328.032147 103.455942 
L 330.746463 101.850598 
L 333.649601 100.229669 
L 334.924149 99.232174 
L 336.009876 97.954133 
L 336.706157 96.489062 
L 336.812369 94.821375 
L 335.844656 91.423657 
L 334.912348 90.005344 
L 333.614197 88.992263 
L 332.233436 88.21297 
L 330.64025 87.823323 
L 328.940853 87.994768 
L 325.896098 88.820818 
L 324.479933 89.397495 
L 322.969358 90.192374 
L 321.588597 91.065182 
L 319.12211 92.982243 
L 316.254376 94.431728 
L 314.720197 94.72786 
L 313.056204 94.556415 
L 311.628237 93.808294 
L 310.436299 92.764041 
L 309.480387 91.501586 
L 308.831312 90.036515 
L 308.607086 88.353242 
L 308.736901 86.716727 
L 309.126346 85.407515 
L 310.684127 83.022878 
L 311.710847 82.025383 
L 314.578581 78.690008 
L 315.711513 77.63017 
L 317.717746 75.245533 
L 318.602849 73.967492 
L 320.762501 70.024269 
L 323.701043 63.306763 
L 324.243906 61.997551 
L 324.810372 59.254439 
L 325.317831 56.573671 
L 325.270625 54.126691 
L 325.046399 52.723963 
L 323.724645 50.417256 
L 322.898549 49.513276 
L 321.978042 48.718397 
L 321.234556 47.611801 
L 319.664973 46.084386 
L 317.021465 43.746507 
L 316.20717 42.904871 
L 315.251259 42.125578 
L 314.248142 41.595658 
L 312.407128 40.255274 
L 310.542511 39.226607 
L 308.90212 38.229112 
L 306.954893 37.325132 
L 306.140599 37.060173 
L 305.267297 36.65494 
L 303.343673 36.218536 
L 301.325638 35.688617 
L 300.523145 35.626273 
L 298.811945 35.174283 
L 297.891438 35.205455 
L 297.041739 34.84698 
L 296.192041 34.722293 
L 295.236129 34.784637 
L 290.798813 33.833899 
L 289.075812 33.210465 
L 288.155305 32.961091 
L 287.388216 32.633788 
L 286.526715 32.493515 
L 285.523599 32.524687 
L 284.862722 32.4 
L 284.036626 32.524687 
L 283.328543 32.774061 
L 281.487529 33.880657 
L 279.646514 35.252213 
L 278.324761 36.389981 
L 277.640281 37.621264 
L 277.522267 38.322627 
L 276.648966 40.520234 
L 276.365733 42.000891 
L 276.188712 44.182911 
L 276.412938 45.601225 
L 277.20363 47.658558 
L 277.935315 48.796326 
L 280.413604 51.071862 
L 281.676351 51.601781 
L 282.301824 51.586195 
L 283.068913 51.679711 
L 284.308057 52.022599 
L 286.632928 52.39666 
L 289.477059 54.594267 
L 291.129251 56.558085 
L 292.569019 59.425884 
L 292.769642 61.218258 
L 293.041074 61.88845 
L 293.052875 63.524965 
L 293.088279 64.97445 
L 293.135485 65.847259 
L 293.300704 66.813582 
L 293.454122 68.574784 
L 295.129917 73.468745 
L 295.578369 75.604008 
L 295.885205 76.772947 
L 296.156636 79.17317 
L 295.897006 80.404453 
L 295.767191 81.713665 
L 294.9883 84.238575 
L 293.808163 86.794656 
L 292.309389 88.789647 
L 290.314956 90.987253 
L 289.406251 91.891233 
L 288.296921 92.732869 
L 287.222996 93.714779 
L 286.019256 94.525244 
L 283.375749 95.81887 
L 280.590624 96.800779 
L 277.321644 97.845032 
L 274.524718 99.341275 
L 271.975622 101.055719 
L 270.878094 102.022043 
L 269.804169 103.144225 
L 268.470614 105.700306 
L 267.479298 108.256387 
L 267.207867 109.612357 
L 266.369969 112.168439 
L 265.744496 113.352964 
L 264.953804 114.475146 
L 264.033297 115.457055 
L 262.900365 116.298692 
L 260.693508 117.592318 
L 259.536974 118.059894 
L 254.639404 119.493793 
L 253.270444 120.117228 
L 251.995896 120.553632 
L 246.461052 123.218814 
L 245.446133 123.826663 
L 242.5784 124.792986 
L 241.421865 124.761815 
L 238.860967 124.185138 
L 236.158452 122.813582 
L 234.341041 122.112218 
L 232.606239 121.005622 
L 230.446587 119.337935 
L 228.06271 117.685834 
L 227.543449 117.498803 
L 226.268901 116.71951 
L 225.726038 115.924631 
L 225.112366 115.768773 
L 219.30609 112.900974 
L 218.432789 112.417812 
L 217.84272 111.716449 
L 214.2315 110.126691 
L 213.429006 109.908489 
L 212.697321 109.316226 
L 211.942033 108.84865 
L 211.104136 108.568105 
L 210.018409 108.521347 
L 209.369334 108.381074 
L 208.448827 107.851155 
L 207.551922 107.523852 
L 204.754997 105.669134 
L 203.386037 104.484609 
L 202.217701 103.362427 
L 197.768583 100.198497 
L 196.918884 99.933537 
L 196.175398 99.388032 
L 195.774151 98.780184 
L 193.744315 97.424214 
L 192.764801 97.502143 
L 191.018198 98.561982 
L 190.321917 99.730921 
L 190.251108 100.401113 
L 188.846745 102.629891 
L 187.796423 104.967771 
L 185.648573 108.39666 
L 184.59825 109.924075 
L 183.618736 110.734539 
L 183.937373 111.654105 
L 183.571531 111.654105 
L 183.441716 111.809964 
L 183.630538 112.028166 
L 183.429914 111.996994 
L 183.406312 112.074923 
L 183.595134 112.230782 
L 183.701346 112.776287 
L 183.618736 114.646591 
L 182.934257 115.192096 
L 183.370907 116.142833 
L 182.851647 116.205177 
L 184.539243 116.548066 
L 183.488921 116.470136 
L 182.568414 116.002561 
L 181.32927 116.049318 
L 180.90442 115.846702 
L 179.110611 115.690843 
L 178.296317 115.768773 
L 177.328604 116.953298 
L 175.924241 117.88845 
L 174.508076 119.634066 
L 174.165836 120.366602 
L 174.024219 120.990036 
L 173.764589 121.161481 
L 173.622973 120.849763 
L 173.292534 121.582299 
L 172.926692 121.940774 
L 173.351541 121.987531 
L 173.918007 122.844754 
L 173.906206 125.852825 
L 175.074542 127.551684 
L 174.272048 129.593432 
L 173.611171 129.406401 
L 172.891288 129.811634 
L 172.171404 130.684442 
L 171.510527 131.323462 
L 170.76704 131.791038 
L 170.106163 132.695018 
L 169.374478 134.300362 
L 169.162053 135.609574 
L 168.253348 137.760423 
L 167.8403 138.78909 
L 167.014203 140.472363 
L 166.825381 140.893181 
L 165.987484 141.563373 
L 165.243997 142.342666 
L 163.851435 144.711717 
L 163.355778 145.49101 
L 162.647695 146.145616 
L 161.963215 147.345728 
L 161.467558 148.078263 
L 161.219729 148.732869 
L 160.547051 149.590092 
L 160.228413 150.836961 
L 159.68555 151.585082 
L 159.284304 152.53582 
L 158.800447 153.330699 
L 157.691118 154.624325 
L 154.965001 159.736488 
L 152.734541 161.902922 
L 152.356897 162.635458 
L 152.203479 163.227721 
L 152.132671 164.131701 
L 151.519 165.674701 
L 151.43639 166.266964 
L 150.327061 168.028166 
L 150.197246 168.620429 
L 148.250019 172.735096 
L 148.072999 173.904036 
L 147.258704 174.589814 
L 146.786649 174.730086 
L 146.172977 176.086056 
L 145.889744 177.145895 
L 145.110854 178.346006 
L 144.780415 179.281158 
L 142.880394 181.94634 
L 142.361134 183.052936 
L 142.007092 184.84531 
L 141.062982 186.684442 
L 140.177879 188.055998 
L 138.419475 191.781019 
L 137.321947 193.277261 
L 135.705159 194.15007 
L 133.875946 197.859505 
L 133.356685 198.794656 
L 131.964123 201.943 
L 132.176548 202.862566 
L 131.728096 203.29897 
L 131.138027 203.657445 
L 130.524356 204.343223 
L 129.049184 206.992819 
L 127.455999 209.470971 
L 127.031149 210.203507 
L 125.992628 212.572558 
L 125.437964 213.383023 
L 125.072121 214.489619 
L 124.670874 215.331255 
L 123.939189 216.344336 
L 122.286997 219.835569 
L 121.980161 220.630448 
L 121.390092 221.425327 
L 120.670209 221.783802 
L 120.139147 222.594267 
L 119.973928 223.56059 
L 119.301249 224.807459 
L 118.498756 225.539994 
L 116.98818 228.345449 
L 116.409913 229.124743 
L 115.926056 230.137824 
L 115.690029 231.010632 
L 115.371392 231.69641 
L 114.344672 232.538046 
L 113.671994 232.413359 
L 111.996199 231.836682 
L 111.453336 231.680824 
L 109.022253 230.558642 
L 107.322855 229.966379 
L 105.458238 229.187086 
L 104.514128 228.594823 
L 99.168106 226.179015 
L 98.318407 225.586752 
L 97.303489 225.430893 
L 95.42707 224.433398 
L 93.326426 222.874812 
L 92.641946 222.500751 
L 91.81585 222.360479 
L 90.812733 221.877317 
L 89.939431 221.768216 
L 89.018924 221.518842 
L 87.354931 220.833064 
L 86.092184 219.445923 
L 85.266087 219.227721 
L 84.16856 218.822488 
L 83.035628 217.778235 
L 82.28034 217.918508 
L 82.162326 217.824993 
L 82.19773 217.840579 
L 81.902696 217.94968 
L 81.230018 218.167882 
L 81.300826 218.121124 
L 81.33623 217.793821 
L 81.33623 217.809407 
L 81.277223 217.778235 
L 81.324429 217.653549 
L 81.218216 217.731478 
L 80.592743 218.292569 
L 80.533737 218.495185 
L 80.675353 219.321236 
L 79.542421 220.817478 
L 79.318195 221.285054 
L 78.975955 221.768216 
L 78.881544 222.438408 
L 78.551106 222.329307 
L 76.69829 224.293126 
L 76.603879 224.152853 
L 76.556674 224.402227 
L 76.686489 224.324297 
L 76.993324 224.932146 
L 77.21755 224.838631 
L 76.981523 224.402227 
L 76.875311 224.168439 
L 76.143625 224.059338 
L 75.223118 224.355469 
L 74.857276 224.604843 
L 74.196399 224.46457 
L 73.854159 224.636014 
L 73.334899 225.165934 
L 74.279008 227.737601 
L 74.798269 228.610409 
L 75.270324 228.625995 
L 75.116906 228.516894 
L 75.588961 228.90654 
L 75.978406 229.000056 
L 76.108221 229.249429 
L 76.533071 229.249429 
L 77.146742 229.467632 
L 77.972838 229.43646 
L 78.58651 229.576733 
L 79.613229 230.839187 
L 80.203298 231.275591 
L 81.430641 231.649652 
L 82.362949 231.69641 
L 83.885327 232.07047 
L 84.534402 232.52246 
L 85.561122 235.078542 
L 85.761745 235.779905 
L 88.865506 237.821653 
L 89.668 238.2113 
L 90.317075 238.66329 
L 91.095966 239.504926 
L 93.385433 241.344058 
L 95.757509 242.263624 
L 97.515913 243.339048 
L 98.094181 243.541664 
L 99.333325 243.541664 
L 100.395449 243.884553 
L 102.614107 244.196271 
L 103.15697 244.00924 
L 103.829648 244.305372 
L 104.289902 244.928806 
L 105.080594 245.645756 
L 105.151402 246.066574 
L 105.446437 246.066574 
L 105.706067 246.144503 
L 105.90669 246.45622 
L 106.709183 247.126412 
L 107.818513 247.796605 
L 108.986849 248.482382 
L 109.423499 248.996716 
L 110.037171 249.261675 
L 110.875068 249.88511 
L 112.267631 250.259171 
L 112.857699 250.165655 
L 113.63659 250.430615 
L 115.276981 252.441191 
L 116.740351 252.908767 
L 116.881968 252.939939 
L 117.531043 252.924353 
L 118.050304 252.534706 
L 118.734783 252.363262 
L 118.923605 252.14506 
L 118.923605 252.14506 
" style="fill:none;stroke:#000000;stroke-width:3;"/>
   </g>
  </g>
 </g>
 <defs>
  <clipPath id="p7bfdbc71ce">
   <rect height="554.4" width="345.308196" x="7.2" y="7.2"/>
  </clipPath>
 </defs>
</svg>
