<?xml version="1.0" encoding="utf-8" standalone="no"?>
<!DOCTYPE svg PUBLIC "-//W3C//DTD SVG 1.1//EN"
  "http://www.w3.org/Graphics/SVG/1.1/DTD/svg11.dtd">
<svg height="568.8pt" version="1.1" viewBox="0 0 168.027649 568.8" width="168.027649pt" xmlns="http://www.w3.org/2000/svg" xmlns:xlink="http://www.w3.org/1999/xlink">
 <metadata>
  <rdf:RDF xmlns:cc="http://creativecommons.org/ns#" xmlns:dc="http://purl.org/dc/elements/1.1/" xmlns:rdf="http://www.w3.org/1999/02/22-rdf-syntax-ns#">
   <cc:Work>
    <dc:type rdf:resource="http://purl.org/dc/dcmitype/StillImage"/>
    <dc:date>2021-09-24T02:00:14.224100</dc:date>
    <dc:format>image/svg+xml</dc:format>
    <dc:creator>
     <cc:Agent>
      <dc:title>Matplotlib v3.4.3, https://matplotlib.org/</dc:title>
     </cc:Agent>
    </dc:creator>
   </cc:Work>
  </rdf:RDF>
 </metadata>
 <defs>
  <style type="text/css">*{stroke-linecap:butt;stroke-linejoin:round;}</style>
 </defs>
 <g id="figure_1">
  <g id="patch_1">
   <path d="M 0 568.8 
L 168.027649 568.8 
L 168.027649 0 
L 0 0 
z
" style="fill:#ffffff;"/>
  </g>
  <g id="axes_1">
   <g id="LineCollection_1">
    <path clip-path="url(#p08f04af98c)" d="M 147.809303 33.926819 
L 147.7993 34.076421 
L 147.71594 33.931219 
L 146.175445 33.407613 
L 145.3085 32.708004 
L 145.205134 32.4 
L 144.644954 32.444001 
L 144.378202 32.694804 
L 144.21815 33.046808 
L 143.177816 34.595628 
L 143.04444 34.859631 
L 142.751013 35.009233 
L 141.523952 37.372063 
L 140.830396 38.507278 
L 138.896442 42.014122 
L 138.573005 42.427727 
L 138.019494 43.39574 
L 137.332607 44.429753 
L 136.632382 45.916972 
L 136.465662 46.211775 
L 135.968835 47.263389 
L 135.538697 47.725395 
L 135.308623 48.1478 
L 134.625071 48.504204 
L 134.465019 49.190613 
L 133.664762 50.54143 
L 133.274637 51.038637 
L 132.074252 53.445467 
L 131.774156 53.713871 
L 130.387044 57.005112 
L 128.706504 60.305154 
L 127.772871 62.016776 
L 127.095987 62.553583 
L 125.958956 64.828412 
L 125.195377 66.23203 
L 124.641866 67.384844 
L 124.065014 68.339656 
L 123.338114 69.686073 
L 122.777934 70.605685 
L 122.114388 71.886101 
L 121.720928 72.761713 
L 121.147411 73.734125 
L 118.213136 79.132993 
L 117.212815 80.866615 
L 117.07277 81.19662 
L 116.639297 81.711426 
L 116.549268 82.160232 
L 116.322529 82.490236 
L 116.062445 82.670638 
L 115.348883 83.810253 
L 114.651993 85.337072 
L 114.475269 85.755078 
L 114.008453 86.388686 
L 113.531633 87.185096 
L 113.278218 87.581101 
L 113.141508 87.589901 
L 113.124836 87.726303 
L 112.874755 88.082707 
L 112.477961 88.949518 
L 111.877769 93.353974 
L 111.95446 93.952382 
L 111.934454 94.414387 
L 112.181199 95.637603 
L 112.181199 96.324012 
L 112.004476 96.438413 
L 112.084502 97.199623 
L 112.271228 97.428426 
L 112.391267 97.670429 
L 112.774723 97.74083 
L 112.547984 97.921232 
L 112.414608 98.053234 
L 112.327913 98.251236 
L 112.441283 98.374438 
L 112.481296 98.805643 
L 112.658019 99.738455 
L 112.571325 100.521665 
L 112.551318 101.309275 
L 112.658019 101.73608 
L 112.901431 101.964883 
L 113.148177 102.237687 
L 113.151511 102.585291 
L 112.978122 103.051697 
L 112.808067 104.05491 
L 112.644682 104.631317 
L 112.608003 105.256125 
L 112.758051 106.958947 
L 113.058148 108.058961 
L 113.815057 109.304177 
L 113.118167 111.583406 
L 113.334903 113.453429 
L 113.221533 113.774633 
L 113.114833 114.993449 
L 113.048144 115.393854 
L 112.944778 117.048275 
L 112.688029 119.0635 
L 112.68136 119.864311 
L 112.37126 120.60792 
L 112.211209 120.779522 
L 112.024483 121.593533 
L 111.694377 123.75836 
L 111.59101 124.092764 
L 111.090849 127.155203 
L 110.670715 128.567621 
L 110.520666 128.787624 
L 110.25058 129.997639 
L 109.630381 131.458458 
L 108.660069 133.051278 
L 108.666738 133.117279 
L 109.056863 132.562872 
L 109.040191 132.752074 
L 108.763436 133.579285 
L 107.766449 135.308507 
L 106.75279 136.976128 
L 106.652758 137.640536 
L 106.802806 138.520548 
L 107.189597 138.67895 
L 107.556382 138.68335 
L 107.933169 138.995754 
L 108.029867 139.440159 
L 107.929835 139.831764 
L 107.713099 140.544573 
L 107.643076 141.292583 
L 107.556382 141.613787 
L 107.309636 141.930591 
L 107.076227 142.018592 
L 106.799472 142.850203 
L 106.38934 143.629012 
L 106.406012 144.491423 
L 105.258977 147.241458 
L 105.282318 147.496662 
L 105.002228 147.809066 
L 104.281997 148.117069 
L 104.051923 148.398673 
L 103.738489 149.318285 
L 103.348364 149.819891 
L 103.311686 150.207096 
L 103.438393 150.673502 
L 103.31502 150.770303 
L 103.074943 150.809904 
L 102.914892 151.522713 
L 102.551442 152.640327 
L 101.881226 154.228747 
L 101.537783 154.44875 
L 101.244355 154.862355 
L 100.907581 155.28476 
L 100.777539 155.927169 
L 100.577475 156.142771 
L 100.374076 156.653178 
L 100.200687 156.543176 
L 99.957276 157.022783 
L 99.03698 159.038008 
L 98.630183 159.434013 
L 98.373434 159.645216 
L 97.933292 160.512027 
L 97.603187 161.229236 
L 96.40947 162.003646 
L 96.019345 162.760455 
L 95.052368 163.411664 
L 94.732265 163.864869 
L 94.135407 165.646892 
L 94.19876 165.928496 
L 93.871989 166.2497 
L 93.385166 167.125311 
L 92.838324 167.952521 
L 92.521555 168.986534 
L 92.258137 169.518941 
L 91.924697 170.896159 
L 91.477887 172.194175 
L 91.187794 172.387778 
L 90.967723 172.726582 
L 90.640952 174.240201 
L 90.777662 174.491004 
L 90.360862 175.230214 
L 90.090775 175.525017 
L 89.690647 175.419416 
L 89.300521 175.72302 
L 88.97375 175.771421 
L 88.773686 175.991423 
L 87.720014 178.442255 
L 87.449927 179.282665 
L 87.106484 179.784272 
L 86.689683 180.554281 
L 85.906098 182.345104 
L 85.209208 183.537519 
L 84.505649 184.870736 
L 81.814785 190.001201 
L 81.367975 190.546808 
L 80.624403 191.360819 
L 79.454027 192.443232 
L 78.680446 193.688448 
L 78.353674 194.568459 
L 78.196957 194.63006 
L 78.020234 194.740061 
L 77.810166 195.510071 
L 77.31334 196.508884 
L 75.602791 200.556935 
L 74.839213 201.634949 
L 73.952261 204.169381 
L 72.545143 206.611412 
L 72.258384 207.157019 
L 72.064989 207.267021 
L 69.860948 211.464674 
L 69.210739 212.186283 
L 69.00734 212.868292 
L 67.516862 215.490725 
L 66.209776 218.086758 
L 65.436194 219.565177 
L 65.139432 220.238385 
L 64.285825 221.725604 
L 63.525581 223.111622 
L 61.148151 227.150873 
L 60.87473 227.73608 
L 60.477936 228.620492 
L 59.724361 230.279313 
L 59.207528 230.956921 
L 59.030805 231.014122 
L 58.470625 231.63013 
L 58.13385 232.505741 
L 57.763731 233.161349 
L 57.503648 233.548554 
L 57.176876 233.97096 
L 56.179889 235.977385 
L 56.029841 236.100587 
L 55.549687 236.773795 
L 55.546353 236.940997 
L 54.842794 238.230214 
L 54.649398 238.881422 
L 53.915829 239.748233 
L 53.595727 240.584244 
L 53.202267 241.508255 
L 53.145582 241.719458 
L 52.732116 242.067062 
L 51.988544 243.549881 
L 51.408358 244.865498 
L 49.974564 248.16994 
L 50.071262 248.631946 
L 50.257988 248.94875 
L 50.888191 249.485557 
L 53.37899 250.875974 
L 53.852476 251.082777 
L 54.639395 251.377581 
L 55.913137 251.975988 
L 56.576683 252.393994 
L 57.200217 252.710798 
L 57.85376 253.480807 
L 58.153856 253.881212 
L 58.360589 253.907613 
L 58.784059 254.44002 
L 59.25421 254.660022 
L 59.994447 254.985626 
L 60.197846 255.091228 
L 60.264534 255.28923 
L 61.838373 255.940439 
L 62.088453 256.04164 
L 62.321861 255.975639 
L 62.782009 256.134041 
L 63.442221 256.261643 
L 64.122439 256.750049 
L 66.339818 258.162467 
L 68.320453 259.033678 
L 68.627218 259.121679 
L 68.847289 259.390082 
L 68.717247 259.96649 
L 68.240428 260.815701 
L 68.223756 261.106104 
L 67.620229 262.786926 
L 67.410161 263.288532 
L 67.126737 263.93974 
L 66.783293 264.586548 
L 66.306473 265.52816 
L 64.402529 269.387009 
L 64.232474 269.567412 
L 64.045748 269.593812 
L 63.635616 270.038218 
L 63.135456 270.852228 
L 63.052095 270.812627 
L 62.945395 270.931429 
L 62.772006 271.604638 
L 62.281848 272.414248 
L 62.178482 273.817866 
L 62.01843 274.20067 
L 61.598295 274.460274 
L 61.301534 274.579075 
L 60.607978 275.371085 
L 59.964438 275.780291 
L 59.847734 275.916692 
L 59.620994 276.083894 
L 59.364245 276.374298 
L 59.184187 276.4931 
L 58.353921 278.187121 
L 58.157191 278.442324 
L 58.013811 278.605126 
L 57.997139 278.574326 
L 57.580339 278.789929 
L 57.036831 279.357536 
L 56.683384 279.942743 
L 56.339941 280.699553 
L 56.06652 280.985557 
L 55.819774 281.25836 
L 55.516343 281.513563 
L 55.42298 281.671965 
L 55.416311 282.419975 
L 55.53635 282.912781 
L 55.706404 283.695991 
L 56.216568 284.351599 
L 56.519999 285.130409 
L 56.766745 285.359212 
L 56.896786 285.698016 
L 58.313908 287.466839 
L 58.784059 287.801243 
L 59.757705 288.35125 
L 60.474601 288.800056 
L 60.684669 289.046459 
L 63.1688 290.348876 
L 63.725645 290.538078 
L 63.795667 290.652479 
L 64.412532 290.67888 
L 65.126095 291.057285 
L 65.299484 291.250887 
L 65.802979 291.51929 
L 66.229782 291.990096 
L 66.673258 292.738106 
L 67.216766 293.07691 
L 68.017023 293.582917 
L 68.653894 294.190124 
L 69.15072 294.383727 
L 69.570855 294.339726 
L 69.830938 294.568529 
L 70.331099 294.60813 
L 70.40779 294.744531 
L 70.221063 295.228538 
L 70.397787 295.778544 
L 70.877941 296.064548 
L 71.251394 295.998547 
L 72.441776 296.117349 
L 72.721866 296.425353 
L 73.001956 296.504554 
L 73.185348 296.601355 
L 73.815551 296.456153 
L 74.382399 296.693756 
L 74.682496 296.733357 
L 75.002598 296.918159 
L 75.262682 296.896159 
L 75.769511 297.133762 
L 76.879868 297.199763 
L 77.62344 297.639768 
L 78.000227 298.304177 
L 77.950211 298.56818 
L 78.04024 298.827783 
L 78.043574 299.316189 
L 77.700131 302.730633 
L 77.746813 302.946236 
L 77.713469 303.153038 
L 77.923536 303.610644 
L 78.250307 304.037449 
L 78.507057 304.270652 
L 79.930847 304.697458 
L 80.444345 305.058262 
L 82.334952 305.854672 
L 82.454991 306.074675 
L 82.65172 306.123076 
L 83.231907 306.651083 
L 84.672369 307.26269 
L 85.75605 307.553094 
L 90.150794 309.040313 
L 90.4809 309.467118 
L 91.021074 309.651921 
L 91.948038 309.893924 
L 93.765288 310.619933 
L 94.678914 310.932337 
L 96.809598 311.812348 
L 97.263077 312.159953 
L 97.856601 312.291954 
L 98.019987 312.349155 
L 97.996646 312.428356 
L 98.006649 312.639559 
L 97.986643 312.77156 
L 98.080006 312.639559 
L 98.093344 312.652759 
L 99.083662 313.268767 
L 101.231018 314.038776 
L 102.428069 314.364381 
L 102.994917 314.535983 
L 103.801843 314.826386 
L 104.422042 314.896787 
L 105.04891 315.050789 
L 105.669109 315.213591 
L 108.233266 316.146403 
L 108.616722 316.225604 
L 110.183892 317.035214 
L 114.025125 318.482833 
L 114.838719 318.852437 
L 114.805375 318.874438 
L 114.922079 318.918438 
L 115.135481 319.147241 
L 115.1955 319.107641 
L 115.272192 319.226442 
L 116.14914 319.332044 
L 117.222818 319.877651 
L 117.719644 320.062453 
L 118.176457 320.330856 
L 119.286814 320.792862 
L 122.944655 322.055678 
L 123.184732 322.240481 
L 123.171394 322.98849 
L 122.981333 323.718899 
L 121.450842 327.036541 
L 120.420511 329.953778 
L 120.043723 330.283783 
L 119.423524 332.246208 
L 119.05674 332.994217 
L 118.513232 334.085431 
L 117.746319 335.326247 
L 116.659304 335.57265 
L 116.252506 335.695851 
L 115.378893 335.937854 
L 114.011787 335.497849 
L 113.748369 335.304246 
L 113.614993 335.220645 
L 112.171196 334.881841 
L 110.91746 334.578237 
L 108.473343 333.900629 
L 107.653079 333.473823 
L 107.159588 333.319821 
L 106.466032 332.998617 
L 105.29899 332.527811 
L 104.328679 332.162607 
L 103.455065 331.832602 
L 102.39139 331.405797 
L 102.131307 331.308996 
L 101.264362 331.383797 
L 101.16433 331.617 
L 101.244355 331.938204 
L 101.184336 332.030605 
L 101.16433 331.867803 
L 100.040636 331.427797 
L 97.843264 330.455385 
L 96.509502 329.746976 
L 95.989335 329.526973 
L 93.325147 328.690962 
L 93.08507 328.858165 
L 93.061729 328.818564 
L 93.018381 328.51056 
L 92.631591 328.413759 
L 92.424858 328.180556 
L 91.054418 327.419346 
L 90.144125 327.001341 
L 89.283849 326.702137 
L 86.339571 325.38212 
L 85.709369 325.250119 
L 85.465957 325.280919 
L 84.875768 325.870527 
L 83.585353 328.044154 
L 83.455312 328.149756 
L 82.655055 330.349783 
L 82.414978 330.754589 
L 81.991508 331.6258 
L 81.177914 334.01503 
L 80.377657 336.250258 
L 79.850821 338.269884 
L 78.32033 341.697528 
L 78.093591 342.379536 
L 77.586761 343.061545 
L 77.470057 343.593952 
L 76.956559 344.825967 
L 76.416385 345.481576 
L 75.539437 345.925981 
L 75.10263 346.049183 
L 74.909235 346.062383 
L 74.482431 346.401187 
L 74.018949 346.440788 
L 73.79221 346.291186 
L 73.458769 346.445188 
L 72.788554 345.349574 
L 72.655178 344.997569 
L 72.281725 344.086758 
L 72.388426 342.982344 
L 72.381757 342.568739 
L 72.545143 341.701928 
L 72.315069 341.613927 
L 72.05832 341.569926 
L 71.674863 341.156321 
L 71.254729 341.477525 
L 71.017986 343.805154 
L 71.884931 345.965582 
L 71.954953 345.961182 
L 72.305066 346.445188 
L 72.481789 346.656391 
L 72.98195 348.319612 
L 73.378744 349.019221 
L 73.662168 349.639628 
L 73.92892 350.418438 
L 74.078968 350.792443 
L 74.472428 351.439251 
L 74.825875 351.637254 
L 74.995929 351.782456 
L 75.999585 356.200112 
L 76.059604 356.912921 
L 76.406382 357.300126 
L 76.576437 357.401327 
L 76.91988 358.312139 
L 78.01023 361.242576 
L 78.156944 362.025786 
L 78.390352 362.624193 
L 78.510391 362.905797 
L 79.043896 364.665819 
L 79.347326 365.088225 
L 79.8875 365.906635 
L 80.377657 366.513843 
L 80.511033 367.08585 
L 80.674419 367.552256 
L 80.824467 368.229865 
L 80.987853 368.63467 
L 81.331297 369.206677 
L 81.688078 369.998687 
L 81.87147 370.526694 
L 81.948161 370.830298 
L 82.071534 370.905098 
L 82.184904 371.186702 
L 82.354958 371.380305 
L 82.565026 371.81591 
L 83.001833 373.166727 
L 83.448643 373.743135 
L 83.642038 374.359142 
L 83.992151 375.595558 
L 84.182212 376.176365 
L 85.379263 379.617209 
L 85.489298 380.022014 
L 88.156821 385.350482 
L 88.253519 385.878489 
L 88.803695 387.462509 
L 91.874681 394.225395 
L 92.311488 395.879816 
L 92.671603 396.447423 
L 93.61524 398.814653 
L 93.968687 399.584663 
L 94.002031 399.800265 
L 94.472181 400.807878 
L 94.628898 401.692289 
L 94.605558 401.995893 
L 94.865641 402.5327 
L 95.092381 402.761503 
L 95.119056 402.985906 
L 95.902641 404.07712 
L 96.086033 404.587526 
L 96.536177 404.979131 
L 97.239737 406.49275 
L 98.123354 409.057983 
L 99.423771 411.856418 
L 99.997288 412.054421 
L 100.504118 412.459226 
L 101.41441 412.74083 
L 101.741182 412.811231 
L 102.354712 412.683629 
L 102.801522 412.208423 
L 102.841535 411.935619 
L 102.734834 411.588015 
L 102.234673 411.310812 
L 100.347401 410.664003 
L 98.520148 410.452801 
L 98.53682 410.320799 
L 97.753235 410.3692 
L 97.439801 410.510001 
L 97.349772 410.725604 
L 97.343103 410.642003 
L 96.872952 410.752004 
L 96.666219 410.906006 
L 96.796261 410.884006 
L 96.586193 411.310812 
L 96.249419 411.887219 
L 96.762917 411.390013 
L 96.766251 411.495614 
L 96.712901 414.034446 
L 96.706232 414.791256 
L 96.499499 415.042059 
L 96.329444 415.270862 
L 96.499499 415.785668 
L 96.389464 416.106872 
L 96.562853 415.988071 
L 96.6062 416.445677 
L 96.639544 417.277287 
L 96.752914 417.748093 
L 96.736242 418.108898 
L 96.662885 420.528929 
L 96.552849 421.369339 
L 96.37946 423.080961 
L 96.149387 423.969772 
L 96.162724 425.188588 
L 96.226078 425.35579 
L 96.132715 425.606593 
L 96.146052 426.1214 
L 96.096036 426.1258 
L 96.162724 426.231401 
L 96.116042 426.231401 
L 96.102705 426.416203 
L 95.842621 426.513005 
L 91.251147 426.385403 
L 90.244158 426.442604 
L 89.037103 426.315002 
L 87.710011 426.235801 
L 87.006452 426.161 
L 86.486285 425.958598 
L 85.78606 425.778195 
L 85.135851 425.672594 
L 84.172208 425.685794 
L 83.675382 425.619793 
L 83.038511 425.632993 
L 82.758421 425.764995 
L 82.601704 426.1566 
L 82.438319 426.288602 
L 82.471663 426.328202 
L 82.625045 426.684607 
L 82.675061 427.151013 
L 83.201897 429.346641 
L 83.80209 431.471868 
L 84.005488 432.193477 
L 83.985482 433.135089 
L 84.342263 434.375904 
L 84.365604 434.644308 
L 84.852427 436.303129 
L 84.492311 436.835536 
L 84.322257 436.848736 
L 84.078845 436.628733 
L 83.725398 436.721134 
L 83.411964 436.628733 
L 83.061852 436.505531 
L 82.368296 436.40433 
L 80.58439 436.39993 
L 80.354316 436.492331 
L 79.070571 436.179927 
L 78.437034 435.537519 
L 75.472749 433.975499 
L 74.492435 433.601495 
L 74.232351 433.513494 
L 73.962264 433.557494 
L 73.445432 433.20109 
L 73.091985 433.108688 
L 72.345079 433.20109 
L 72.348413 433.24069 
L 72.378423 433.148289 
L 72.305066 433.161489 
L 71.954953 433.429892 
L 71.791568 433.869898 
L 71.141359 435.58592 
L 70.60452 436.659533 
L 70.481147 437.222741 
L 70.481147 437.394343 
L 70.257742 437.909149 
L 69.554183 439.779173 
L 69.304102 440.33358 
L 69.044019 441.354393 
L 68.690572 442.146403 
L 67.420164 445.719248 
L 66.693264 447.188867 
L 65.709615 450.238106 
L 65.392847 450.620911 
L 65.322824 451.206118 
L 64.799323 452.446934 
L 64.549243 453.348945 
L 64.322503 454.105755 
L 64.049082 454.655762 
L 63.50224 456.318983 
L 62.878706 458.008605 
L 62.66197 458.532211 
L 61.955077 460.917041 
L 60.851389 463.645076 
L 60.567965 464.313885 
L 59.444271 467.684327 
L 59.024136 467.781129 
L 57.610349 467.160721 
L 55.482999 466.34231 
L 55.503006 466.465512 
L 55.406308 466.527113 
L 55.396305 466.469912 
L 55.326282 466.540313 
L 55.289604 466.483112 
L 55.052861 466.381911 
L 54.83279 466.33791 
L 54.659401 466.544713 
L 53.909161 467.952731 
L 53.692424 468.260735 
L 52.311981 470.856768 
L 52.095245 471.397975 
L 51.765139 471.974382 
L 50.774821 473.298799 
L 50.981554 473.734404 
L 51.398355 474.082009 
L 51.75847 474.94882 
L 52.31865 475.252424 
L 53.225608 475.828831 
L 53.445678 475.916832 
L 55.819774 476.761643 
L 55.95315 476.955245 
L 55.846449 477.412851 
L 55.733079 477.822056 
L 55.613041 478.420464 
L 55.496337 478.816469 
L 55.192906 479.652479 
L 55.156228 480.000084 
L 54.8628 480.695293 
L 54.212591 482.890921 
L 54.092553 483.322126 
L 53.859144 483.960134 
L 53.649077 484.43534 
L 53.145582 485.724557 
L 52.492039 487.475779 
L 52.285306 487.682581 
L 52.125255 488.294189 
L 51.941862 488.703394 
L 51.748467 489.407403 
L 50.841509 491.352228 
L 50.634776 492.007836 
L 50.368024 492.865847 
L 50.181297 493.169451 
L 49.907876 493.490655 
L 49.82785 493.644657 
L 49.587773 494.889873 
L 49.144298 495.783084 
L 48.717494 497.164702 
L 48.577449 497.855511 
L 48.554108 498.805923 
L 49.164304 498.898324 
L 49.571101 499.100726 
L 49.904542 499.219528 
L 50.461387 499.483531 
L 50.844844 499.584733 
L 51.411692 499.892736 
L 52.308647 500.18754 
L 53.085563 500.618746 
L 54.025865 500.96635 
L 54.119228 500.922349 
L 54.149238 501.058751 
L 54.542697 501.296354 
L 55.889796 501.705559 
L 57.276908 502.171965 
L 57.887104 502.400768 
L 60.571299 503.623984 
L 60.738019 503.971588 
L 60.411248 504.785599 
L 59.934428 506.49722 
L 59.497621 507.936039 
L 59.050811 509.106453 
L 58.794062 509.784062 
L 58.490631 510.615673 
L 58.100506 511.640886 
L 57.957127 512.01489 
L 57.827085 512.476896 
L 57.306918 514.175318 
L 56.976812 515.050929 
L 56.503327 516.225744 
L 55.726411 518.777776 
L 55.606372 518.962579 
L 55.596369 519.182581 
L 55.442986 519.327783 
L 55.082871 520.361796 
L 54.882806 521.171407 
L 54.746096 521.637813 
L 50.671455 532.45755 
L 50.264657 533.592764 
L 49.204317 535.973195 
L 48.977577 536.087596 
L 48.510761 535.968795 
L 48.09396 535.770792 
L 46.703514 535.277986 
L 44.876261 534.609177 
L 44.40611 534.389174 
L 43.175715 533.944769 
L 42.528841 533.601564 
L 39.554553 532.413549 
L 34.00277 530.195921 
L 33.162501 529.901117 
L 32.789048 530.09472 
L 31.675357 529.610714 
L 28.671059 528.295097 
L 28.360959 528.185096 
L 27.9675 528.308297 
L 25.386671 527.586688 
L 25.126588 528.312697 
L 24.823157 528.937505 
L 24.526395 529.35111 
L 24.006228 529.870317 
L 23.569421 531.309135 
L 22.855859 533.152759 
L 22.495743 533.363961 
L 22.078943 533.324361 
L 21.688818 533.24516 
L 20.651818 533.117558 
L 20.515108 533.170359 
L 19.748195 532.906356 
L 18.997954 532.765554 
L 17.14736 532.061545 
L 16.803916 532.215547 
L 16.563839 532.369549 
L 16.243736 532.334348 
L 15.58019 531.920743 
L 14.703242 531.036332 
L 14.449827 530.86473 
L 14.236425 531.203534 
L 14.183075 531.458737 
L 14.40648 531.70514 
L 14.759927 531.991144 
L 15.040017 532.395949 
L 15.643544 532.642352 
L 15.440145 532.659953 
L 14.393142 532.879955 
L 14.393142 532.950356 
L 15.310103 532.343148 
L 15.310103 532.052745 
L 15.056689 531.779941 
L 14.779933 531.69194 
L 14.836618 531.823942 
L 15.176727 532.136346 
L 15.41347 532.334348 
L 16.230399 532.699553 
L 18.924597 533.984369 
L 19.581475 534.353974 
L 20.028285 534.560777 
L 20.445085 534.903981 
L 20.921905 534.771979 
L 21.352043 534.80278 
L 22.195647 534.719179 
L 22.295679 534.402375 
L 22.495743 534.428775 
L 22.799174 534.292373 
L 23.059258 533.711566 
L 23.406036 533.473963 
L 23.942875 532.783154 
L 24.229633 532.109946 
L 24.456373 531.771141 
L 24.676443 531.045132 
L 25.42335 528.933105 
L 25.390006 528.625101 
L 25.556726 528.264297 
L 25.730115 528.035494 
L 25.796803 528.000293 
L 26.000202 528.163095 
L 26.403664 528.189496 
L 26.787121 528.387498 
L 29.237908 528.959506 
L 31.451952 529.764716 
L 32.148842 530.09912 
L 32.632331 530.257522 
L 33.099147 530.486325 
L 42.168725 534.243973 
L 42.742243 534.406775 
L 44.212715 534.921581 
L 44.959621 535.308786 
L 45.453113 535.409987 
L 46.510119 535.911594 
L 48.510761 536.276798 
L 48.720828 536.144797 
L 50.274661 533.526764 
L 51.481715 530.825129 
L 52.632084 531.177134 
L 53.582389 531.524738 
L 55.036189 531.863542 
L 55.292938 531.841542 
L 55.933144 531.925143 
L 56.206565 531.740341 
L 56.700056 531.273935 
L 56.933465 531.155133 
L 57.513651 529.923118 
L 57.96713 529.060707 
L 58.320577 528.598701 
L 58.58066 527.75829 
L 60.197846 524.053443 
L 61.474923 520.520198 
L 61.905061 519.648987 
L 62.261842 519.04178 
L 62.521925 518.447772 
L 63.048761 516.282945 
L 63.318848 515.781338 
L 65.179445 509.836863 
L 65.429525 509.357257 
L 65.51622 508.684048 
L 65.776303 508.01524 
L 66.369827 506.677623 
L 66.536547 506.132016 
L 67.283454 504.187191 
L 67.450174 504.028789 
L 68.243762 502.114765 
L 68.497177 501.551557 
L 69.560851 498.973125 
L 70.141038 497.969912 
L 70.767906 496.918299 
L 71.158031 496.020687 
L 71.488137 495.563081 
L 71.751555 495.109876 
L 71.888265 494.766671 
L 72.115005 494.331066 
L 72.355082 493.89986 
L 72.428439 493.495055 
L 73.548798 491.559031 
L 73.572139 491.334628 
L 73.535461 491.339028 
L 73.535461 491.246627 
L 73.608818 491.176226 
L 73.67884 491.215826 
L 73.998943 490.73182 
L 74.37573 489.869409 
L 74.7992 489.068599 
L 75.866209 486.894971 
L 77.980221 482.745719 
L 78.313661 482.147311 
L 80.44768 477.778056 
L 82.728412 474.042408 
L 85.065829 469.329948 
L 85.335915 468.920743 
L 85.752716 467.657927 
L 87.036461 465.255497 
L 87.40658 464.186283 
L 88.89039 461.414248 
L 90.20081 459.469423 
L 90.530916 458.699413 
L 91.347845 457.418997 
L 91.707961 456.301383 
L 91.777983 455.738176 
L 91.928031 455.650175 
L 92.111424 455.680975 
L 92.738292 454.906565 
L 93.115079 454.708563 
L 93.741947 453.489747 
L 93.741947 453.194943 
L 93.808635 453.212544 
L 93.922005 453.194943 
L 94.075387 452.732938 
L 94.322133 451.34692 
L 94.378818 450.686912 
L 95.325789 448.447283 
L 95.48584 446.080053 
L 95.699242 444.557634 
L 95.395811 439.180765 
L 95.339126 438.934362 
L 96.152721 438.846361 
L 96.422808 438.894762 
L 96.682891 439.127965 
L 96.786258 439.057564 
L 96.966315 439.127965 
L 96.746245 439.066364 
L 96.682891 439.202766 
L 96.749579 439.224766 
L 96.766251 439.611971 
L 96.702898 439.479969 
L 96.656216 439.427169 
L 96.572856 439.669172 
L 96.899627 439.136765 
L 96.776254 438.793561 
L 96.929637 438.225953 
L 96.982987 437.583545 
L 96.839608 437.306342 
L 96.866283 436.470331 
L 96.759582 435.801523 
L 96.902962 434.80271 
L 96.872952 434.103101 
L 96.936306 433.152689 
L 97.18972 430.006649 
L 97.429798 429.153038 
L 97.506489 428.638232 
L 97.309759 428.180626 
L 97.369778 427.868222 
L 97.30309 427.005811 
L 97.58318 424.796983 
L 97.726559 424.317377 
L 97.236402 423.718969 
L 97.186386 423.362565 
L 97.093023 423.463766 
L 96.449483 423.701369 
L 96.376126 424.150175 
L 95.965994 424.761782 
L 95.952657 424.928984 
L 96.069361 425.140187 
L 96.002673 425.958598 
L 96.272759 426.451404 
L 95.972663 426.821009 
L 95.709245 426.91781 
L 95.222422 426.464604 
L 93.111745 426.108199 
L 91.784652 426.072999 
L 91.664614 425.778195 
L 91.657945 425.034586 
L 91.647942 424.343777 
L 91.597925 423.595768 
L 91.764646 422.865358 
L 91.894687 420.119723 
L 92.07808 419.644517 
L 92.191449 419.02851 
L 92.084748 418.526903 
L 91.914694 417.972496 
L 91.854675 417.171686 
L 91.754642 416.608479 
L 91.604594 416.018871 
L 91.651276 415.530465 
L 91.727967 414.514052 
L 91.774649 413.427238 
L 91.587922 412.525227 
L 91.257816 411.460413 
L 90.414212 410.188797 
L 89.297187 409.207585 
L 88.113474 408.195572 
L 86.4296 406.602752 
L 84.362269 404.398324 
L 83.451977 403.461112 
L 82.074869 401.982693 
L 75.902887 395.501411 
L 75.60946 395.167007 
L 73.918917 392.650175 
L 73.868901 392.685375 
L 73.775538 392.751376 
L 73.728856 392.667775 
L 73.318724 392.496173 
L 73.135332 391.730563 
L 72.265053 391.180556 
L 71.231388 390.388546 
L 70.557838 389.728538 
L 67.420164 386.578097 
L 66.809968 385.96209 
L 60.447926 379.428007 
L 60.007785 378.9044 
L 59.094158 377.830786 
L 58.887425 377.579983 
L 58.674023 376.937575 
L 57.873767 376.391968 
L 55.139555 373.787135 
L 51.891846 370.460693 
L 38.454199 356.191312 
L 38.240798 355.482903 
L 38.387511 354.49729 
L 39.451186 352.702067 
L 39.504537 352.504065 
L 39.771289 352.024459 
L 40.188089 351.835256 
L 40.684915 351.487652 
L 41.395143 350.374438 
L 42.258754 350.154435 
L 42.525506 350.176435 
L 42.828937 349.943232 
L 44.12602 348.104009 
L 44.609509 347.562802 
L 45.166354 346.097583 
L 45.439775 345.490376 
L 45.719865 344.940369 
L 46.113325 343.989957 
L 46.626823 343.48835 
L 47.016948 342.65234 
L 47.723842 341.591926 
L 48.234005 340.456712 
L 48.717494 339.642701 
L 48.727497 339.281897 
L 50.598098 337.394273 
L 51.034905 336.37346 
L 51.345004 335.713452 
L 52.338656 333.777427 
L 52.358663 333.324221 
L 52.382004 333.324221 
L 52.615412 333.25382 
L 52.73545 333.051418 
L 53.04555 332.699413 
L 54.992842 329.29377 
L 57.900442 323.947702 
L 58.083834 323.362495 
L 58.907432 321.958877 
L 60.384573 319.899651 
L 60.84472 319.182442 
L 61.064791 318.707236 
L 61.201501 318.078028 
L 61.711665 316.841612 
L 62.098456 316.463207 
L 62.108459 316.480807 
L 62.265176 316.406006 
L 62.425228 316.304805 
L 62.038437 315.688797 
L 62.471909 315.015589 
L 62.865369 313.594371 
L 63.332185 312.635159 
L 63.605606 311.627546 
L 63.625613 310.791535 
L 64.022407 310.263528 
L 64.245812 309.832323 
L 64.419201 309.009513 
L 64.382523 308.384705 
L 64.659278 306.827085 
L 65.016059 306.501481 
L 65.379509 306.131876 
L 66.703268 303.918648 
L 66.866653 303.571043 
L 67.576881 302.695432 
L 68.387141 301.375416 
L 69.124045 300.064199 
L 69.217408 299.580193 
L 70.624526 297.098561 
L 72.451779 294.053723 
L 73.278712 292.2937 
L 73.518789 291.734893 
L 74.35239 290.375276 
L 74.789196 289.842869 
L 75.276019 288.989258 
L 75.949569 288.074047 
L 79.480702 282.521176 
L 79.69077 282.265973 
L 79.817477 281.909568 
L 80.791123 280.46195 
L 80.934502 279.819542 
L 81.244602 279.771141 
L 81.90148 278.92633 
L 82.638383 278.763528 
L 82.911804 278.569926 
L 83.29526 277.782316 
L 83.945469 276.484299 
L 84.532324 275.551488 
L 84.52899 275.146682 
L 85.02915 273.272259 
L 85.25589 272.973055 
L 85.402603 272.216245 
L 85.692697 271.076631 
L 85.872754 269.954617 
L 86.092825 269.690613 
L 86.106163 268.889803 
L 86.229536 268.106593 
L 86.386253 267.380584 
L 86.756371 265.752563 
L 86.976442 265.545761 
L 87.133159 264.247744 
L 87.476603 263.12573 
L 87.403246 261.779313 
L 87.313217 260.336094 
L 87.613313 259.002877 
L 86.943098 257.907264 
L 87.09648 257.075653 
L 87.116487 255.760036 
L 87.396577 254.576421 
L 87.77003 253.819612 
L 88.590293 252.618396 
L 88.977084 252.222391 
L 89.173814 251.33798 
L 89.537264 250.488769 
L 89.520592 250.123565 
L 89.150473 249.379955 
L 87.636654 248.218341 
L 87.48994 247.923537 
L 86.8464 247.41313 
L 86.546304 246.995125 
L 86.222867 246.387917 
L 85.909433 246.203115 
L 85.372594 245.961112 
L 85.105841 245.82911 
L 84.882436 245.587107 
L 82.668392 244.663095 
L 82.084872 244.346291 
L 81.137901 244.033887 
L 80.25095 243.703883 
L 79.597407 242.766671 
L 79.127256 242.515868 
L 77.930205 242.287065 
L 77.436713 241.89106 
L 77.06326 241.402654 
L 76.909877 241.217852 
L 76.589774 241.06825 
L 75.849537 240.465442 
L 75.656141 240.27624 
L 75.282688 240.117838 
L 74.005612 239.994636 
L 73.375409 238.890222 
L 73.225361 238.789021 
L 72.918596 238.850622 
L 72.401763 238.595418 
L 71.904937 238.529418 
L 71.264732 238.085012 
L 70.737896 237.733007 
L 69.65088 237.077399 
L 69.357453 236.408591 
L 70.317761 234.982972 
L 70.564507 234.089761 
L 71.768227 232.496941 
L 71.978294 231.788532 
L 73.752197 227.929683 
L 73.945592 227.524878 
L 74.219013 227.225674 
L 74.742515 226.196061 
L 75.396058 224.836444 
L 76.239662 223.278824 
L 77.129948 222.18321 
L 77.22998 221.734404 
L 78.793815 219.683978 
L 79.470699 218.883168 
L 79.600741 218.465163 
L 79.737452 218.179159 
L 80.394329 217.46195 
L 80.804461 216.793142 
L 80.807795 216.221134 
L 80.78112 216.146333 
L 82.291605 213.4887 
L 82.441653 213.299497 
L 82.665058 212.599888 
L 83.15855 211.482274 
L 83.618697 211.024668 
L 84.202218 209.58585 
L 84.49898 208.701439 
L 84.782404 208.604638 
L 85.552652 207.830228 
L 86.146175 206.668613 
L 86.48295 206.043805 
L 86.973108 205.282595 
L 87.563297 204.85579 
L 87.960091 204.222182 
L 87.876731 203.619374 
L 87.993435 203.614974 
L 88.070126 203.531373 
L 87.996769 202.629362 
L 87.953422 202.444559 
L 88.186831 202.374158 
L 88.410236 201.023341 
L 89.163811 199.694524 
L 89.400553 199.527322 
L 90.090775 197.151292 
L 91.327839 196.007278 
L 91.494559 195.642073 
L 93.088404 193.103241 
L 93.478529 192.161629 
L 93.635246 191.941626 
L 93.765288 191.418019 
L 94.088725 190.876812 
L 94.428834 189.9176 
L 94.822294 189.336793 
L 95.435824 188.166378 
L 97.119698 185.98395 
L 97.66654 184.223928 
L 97.546502 183.867523 
L 98.163366 183.128314 
L 98.610176 182.84231 
L 99.200366 182.257103 
L 99.610498 180.945886 
L 100.100655 180.228677 
L 100.987606 178.87786 
L 101.147658 178.539056 
L 101.44442 178.156251 
L 101.771191 177.773446 
L 101.781194 176.717433 
L 102.067953 175.890222 
L 102.684818 175.670219 
L 102.831532 175.595418 
L 103.168306 175.173013 
L 103.335026 174.653806 
L 103.655129 174.394203 
L 104.241984 173.060986 
L 104.972219 170.808158 
L 105.322331 170.394552 
L 105.819157 169.312139 
L 106.332655 169.012935 
L 107.829803 166.2761 
L 108.843461 165.052884 
L 110.30393 161.981645 
L 110.797422 161.172035 
L 111.210888 158.694804 
L 111.440962 158.3648 
L 111.781071 158.083196 
L 112.034486 157.563989 
L 113.745035 156.741179 
L 114.395244 156.375974 
L 115.092134 155.460763 
L 115.445581 153.828342 
L 116.052442 152.957131 
L 116.299188 152.341123 
L 117.196143 150.246696 
L 117.896367 147.685864 
L 118.799991 146.731052 
L 119.023396 146.022643 
L 118.960042 145.402235 
L 118.97338 145.125031 
L 120.113746 144.271421 
L 120.557222 144.011817 
L 120.783961 143.347409 
L 120.934009 142.903003 
L 120.860652 142.396997 
L 120.447186 141.82499 
L 120.543884 141.569786 
L 120.587231 141.543386 
L 120.517209 141.274983 
L 120.673926 140.790976 
L 121.420832 140.31577 
L 121.200761 140.003366 
L 120.837311 139.286157 
L 120.787295 139.140955 
L 121.087392 138.199343 
L 121.104064 138.106942 
L 121.520864 137.724137 
L 121.490855 137.548135 
L 122.347796 136.624123 
L 122.551195 136.082917 
L 122.767931 134.916902 
L 122.52452 134.670499 
L 122.394478 134.652898 
L 122.407816 134.432896 
L 122.504513 134.507697 
L 122.641224 134.362495 
L 122.481172 134.080891 
L 122.434491 134.054491 
L 122.434491 134.151292 
L 122.434491 134.375695 
L 122.274439 134.393295 
L 122.191079 134.349295 
L 121.951002 134.380095 
L 120.964019 133.918089 
L 120.757286 133.869689 
L 120.5939 133.667286 
L 120.380498 132.976477 
L 121.107398 132.42647 
L 121.310797 132.074466 
L 121.317466 130.996452 
L 121.254112 130.789649 
L 121.424167 130.490446 
L 124.105027 128.422419 
L 125.242059 127.265205 
L 126.795891 125.738385 
L 127.292717 125.236779 
L 129.453411 123.547157 
L 130.267005 122.799148 
L 131.137284 121.553932 
L 131.067262 121.237128 
L 130.893873 121.039126 
L 129.013269 119.80711 
L 128.413077 119.274703 
L 127.279379 118.425492 
L 125.758891 118.025087 
L 124.651869 117.131876 
L 123.244751 115.90866 
L 123.001339 115.86466 
L 122.517851 115.389454 
L 122.371137 115.147451 
L 121.497523 114.637044 
L 120.970688 114.395041 
L 120.050392 113.677832 
L 118.556579 112.74062 
L 117.379535 112.036611 
L 116.615956 111.389803 
L 115.955744 110.998198 
L 115.925735 110.280989 
L 115.799027 109.634181 
L 115.192166 108.79377 
L 115.098803 108.00616 
L 115.268857 107.728957 
L 115.425574 107.354952 
L 115.608966 107.359352 
L 115.792359 107.21415 
L 116.242503 106.276938 
L 116.51259 105.986534 
L 116.609288 106.056935 
L 116.872705 105.832532 
L 117.15613 105.550929 
L 117.429551 105.031722 
L 117.786332 104.494915 
L 118.736637 102.893295 
L 118.946705 102.668892 
L 119.513553 101.172873 
L 119.723621 100.996871 
L 120.603903 99.276449 
L 122.85796 95.298799 
L 122.824616 94.937994 
L 122.817947 94.849993 
L 123.131381 94.555189 
L 126.992621 87.5195 
L 127.432762 86.679089 
L 127.94626 85.759478 
L 128.443086 85.037868 
L 129.069954 83.58145 
L 129.526767 83.264646 
L 130.743825 81.095418 
L 131.067262 80.756614 
L 131.554085 79.6654 
L 132.604422 77.592974 
L 132.881178 77.196969 
L 133.187943 76.607361 
L 134.07156 74.354533 
L 134.478357 73.914527 
L 134.861813 72.928915 
L 135.552035 71.894902 
L 137.269253 69.078866 
L 137.632703 68.572859 
L 138.219558 67.380444 
L 138.799744 66.210029 
L 139.113178 65.629222 
L 140.290223 63.503995 
L 140.777046 62.509582 
L 141.230524 61.299567 
L 142.744344 58.804735 
L 143.037771 58.316329 
L 144.024755 56.507906 
L 144.491571 55.575094 
L 144.935047 54.800684 
L 147.129085 50.836234 
L 147.37583 50.48423 
L 149.55653 47.082986 
L 149.839955 46.506579 
L 150.356787 45.81137 
L 150.633543 45.080961 
L 151.387118 43.43094 
L 151.610523 43.228538 
L 152.033992 42.388127 
L 152.334089 41.780919 
L 152.530819 40.905308 
L 152.740886 40.315701 
L 153.827902 38.296075 
L 153.784554 38.001271 
L 153.604497 37.675667 
L 153.311069 37.556865 
L 152.947619 37.407264 
L 152.820912 37.389663 
L 152.504143 37.064059 
L 151.953967 36.844056 
L 151.230401 36.087247 
L 150.90363 35.691242 
L 148.949669 34.560427 
L 148.336139 34.067621 
L 148.339473 34.00162 
L 148.302795 34.080821 
L 147.809303 33.812418 
L 147.809303 33.812418 
" style="fill:none;stroke:#000000;stroke-width:3;"/>
   </g>
  </g>
 </g>
 <defs>
  <clipPath id="p08f04af98c">
   <rect height="554.4" width="153.627649" x="7.2" y="7.2"/>
  </clipPath>
 </defs>
</svg>
