<?xml version="1.0" encoding="utf-8" standalone="no"?>
<!DOCTYPE svg PUBLIC "-//W3C//DTD SVG 1.1//EN"
  "http://www.w3.org/Graphics/SVG/1.1/DTD/svg11.dtd">
<svg height="568.8pt" version="1.1" viewBox="0 0 297.435593 568.8" width="297.435593pt" xmlns="http://www.w3.org/2000/svg" xmlns:xlink="http://www.w3.org/1999/xlink">
 <metadata>
  <rdf:RDF xmlns:cc="http://creativecommons.org/ns#" xmlns:dc="http://purl.org/dc/elements/1.1/" xmlns:rdf="http://www.w3.org/1999/02/22-rdf-syntax-ns#">
   <cc:Work>
    <dc:type rdf:resource="http://purl.org/dc/dcmitype/StillImage"/>
    <dc:date>2021-10-09T01:56:14.462914</dc:date>
    <dc:format>image/svg+xml</dc:format>
    <dc:creator>
     <cc:Agent>
      <dc:title>Matplotlib v3.4.3, https://matplotlib.org/</dc:title>
     </cc:Agent>
    </dc:creator>
   </cc:Work>
  </rdf:RDF>
 </metadata>
 <defs>
  <style type="text/css">*{stroke-linecap:butt;stroke-linejoin:round;}</style>
 </defs>
 <g id="figure_1">
  <g id="patch_1">
   <path d="M 0 568.8 
L 297.435593 568.8 
L 297.435593 0 
L 0 0 
z
" style="fill:#ffffff;"/>
  </g>
  <g id="axes_1">
   <g id="LineCollection_1">
    <path clip-path="url(#pfa343f622f)" d="M 140.934889 169.882038 
L 140.816686 169.706442 
L 141.141743 170.125921 
L 141.806633 170.389316 
L 143.40237 171.696531 
L 144.370154 172.301363 
L 144.95378 172.496469 
L 146.460864 173.315918 
L 147.022327 173.550046 
L 148.403821 174.496315 
L 149.046548 174.593868 
L 149.45287 175.07188 
L 150.391103 175.725488 
L 150.767875 176.22301 
L 151.802148 176.847352 
L 152.444875 176.886373 
L 152.865972 177.461939 
L 153.257519 177.637535 
L 153.774655 177.735088 
L 154.158814 177.598513 
L 155.052722 177.725333 
L 155.761938 177.091236 
L 157.246859 173.832951 
L 157.823097 172.906194 
L 157.830485 172.584268 
L 158.06689 172.408671 
L 158.458437 172.476959 
L 159.071613 172.711087 
L 159.551812 173.052524 
L 161.250975 173.628089 
L 162.107945 173.959771 
L 165.528435 174.720688 
L 170.130952 176.34983 
L 171.667587 177.335119 
L 172.339865 178.008238 
L 173.100795 178.476494 
L 175.324483 180.144658 
L 177.407805 181.637225 
L 178.249999 182.085971 
L 180.724868 183.090771 
L 181.500573 183.461474 
L 183.155411 184.007773 
L 183.997605 184.437008 
L 184.669882 185.022329 
L 186.996998 185.988108 
L 189.109871 186.846578 
L 190.580017 187.275813 
L 194.096547 188.817157 
L 196.829984 190.270703 
L 198.736002 191.782781 
L 199.297465 192.377857 
L 200.627245 194.650852 
L 200.974466 196.348281 
L 201.255197 198.201796 
L 201.388175 199.001734 
L 201.668906 199.791917 
L 202.082616 201.479591 
L 202.82877 203.225797 
L 203.796555 204.923227 
L 204.365405 205.674388 
L 207.409124 208.766832 
L 208.97531 210.074048 
L 210.223826 211.517838 
L 210.74835 212.259244 
L 211.50928 213.761567 
L 212.868611 215.771168 
L 216.148735 219.419666 
L 216.724973 220.326912 
L 216.89489 220.843945 
L 216.835788 221.4 
L 216.606771 221.995076 
L 216.23 223.468133 
L 215.195726 225.565531 
L 214.124514 227.5166 
L 213.629541 228.853081 
L 210.792676 233.838061 
L 209.425958 237.262186 
L 208.65764 237.77922 
L 207.23182 240.032704 
L 204.971194 244.48114 
L 204.483608 247.241902 
L 204.454057 248.139393 
L 204.121612 248.851533 
L 203.530599 249.241747 
L 203.168603 249.924621 
L 202.70318 251.241592 
L 202.437224 252.129328 
L 202.451999 252.441499 
L 202.326409 252.285413 
L 202.274695 252.18786 
L 201.521153 252.129328 
L 200.265249 252.402478 
L 200.110108 252.246392 
L 199.873703 252.129328 
L 199.652073 252.207371 
L 199.327016 252.226881 
L 199.083223 252.519542 
L 198.285354 255.416878 
L 198.026786 256.002199 
L 197.731279 257.065531 
L 197.598301 257.485011 
L 197.598301 258.167885 
L 197.066389 259.270238 
L 196.719169 260.157975 
L 194.598908 263.377238 
L 193.461207 266.381883 
L 192.27918 268.645122 
L 190.91985 271.952183 
L 188.215963 277.610282 
L 187.484584 278.098049 
L 187.299892 279.024806 
L 186.64239 280.166181 
L 184.625556 283.365934 
L 183.753812 284.848746 
L 183.214512 285.307247 
L 182.689987 285.980365 
L 181.92167 287.39489 
L 181.079476 288.897213 
L 180.392423 290.370269 
L 180.119079 290.770238 
L 179.919612 291.277516 
L 179.468964 291.775039 
L 178.744973 293.072499 
L 178.264774 293.423692 
L 177.304378 295.365005 
L 176.846342 295.657665 
L 176.395694 296.584422 
L 175.52395 297.677021 
L 174.511839 299.403716 
L 174.090742 300.808486 
L 173.55883 301.306008 
L 173.411077 301.764509 
L 172.982592 302.310808 
L 172.325089 303.686312 
L 171.955706 305.627625 
L 171.623261 306.369031 
L 171.128287 306.944596 
L 170.869719 307.617714 
L 170.153115 308.827377 
L 169.702467 309.529762 
L 168.815947 310.680892 
L 168.609092 311.246702 
L 167.168497 313.509941 
L 166.769563 314.495231 
L 166.518382 315.724404 
L 166.30414 316.924311 
L 165.949532 317.568164 
L 165.425008 318.221771 
L 165.225541 318.865624 
L 164.84877 319.450945 
L 164.545875 320.250883 
L 164.464611 320.826448 
L 164.050901 321.762961 
L 163.984412 322.299504 
L 163.762782 322.797027 
L 163.289972 323.44088 
L 161.849376 325.938247 
L 161.2362 326.855249 
L 160.866817 328.035646 
L 157.18037 332.376773 
L 155.303903 335.56677 
L 154.801541 336.454506 
L 153.944572 338.269 
L 152.370998 340.434686 
L 151.218522 342.024806 
L 149.305116 345.468442 
L 148.810143 347.224404 
L 148.15264 348.82428 
L 147.591177 349.731527 
L 147.096204 350.297337 
L 146.372212 351.848436 
L 146.364824 352.23865 
L 143.557511 357.301672 
L 142.382871 359.642954 
L 140.750197 362.481759 
L 140.085307 363.310963 
L 139.47213 364.520626 
L 139.117522 364.998637 
L 139.065809 365.310808 
L 137.846843 366.071725 
L 136.635266 369.144658 
L 136.554002 369.612914 
L 136.679592 369.847042 
L 136.132904 369.62267 
L 135.549279 370.266522 
L 135.371975 370.637225 
L 133.628485 372.266367 
L 133.480732 372.744379 
L 132.09185 375.3393 
L 132.09185 375.271013 
L 131.382634 375.310034 
L 131.131453 375.749024 
L 130.488726 376.861133 
L 129.897713 378.236637 
L 129.136783 379.524342 
L 127.770064 382.33388 
L 126.174328 384.392258 
L 125.332134 386.001889 
L 124.977526 386.704274 
L 124.453002 387.44568 
L 124.113169 388.294395 
L 123.647746 388.665098 
L 122.753838 390.177176 
L 121.889481 393.103778 
L 121.113776 393.445215 
L 120.515375 395.201177 
L 118.912251 397.181511 
L 118.631519 397.85463 
L 118.210422 399.347197 
L 117.959241 399.903252 
L 117.885365 400.41053 
L 117.671122 400.644658 
L 117.117047 401.073893 
L 116.732889 401.971384 
L 116.311792 404.195602 
L 114.730831 407.180737 
L 114.184143 407.717281 
L 113.305011 409.239114 
L 111.930904 411.034097 
L 111.50242 412.653484 
L 111.50242 413.355869 
L 111.140424 414.087519 
L 109.566851 415.921524 
L 108.059766 417.443357 
L 106.914678 419.989501 
L 105.754814 421.823506 
L 103.427699 424.867172 
L 102.629831 427.774264 
L 102.356487 428.34983 
L 101.573394 429.461939 
L 100.073697 432.593404 
L 99.667376 433.256767 
L 99.519622 433.851843 
L 99.216728 434.446919 
L 99.120688 435.256612 
L 97.857397 437.617405 
L 97.901723 438.349055 
L 97.000428 438.349055 
L 95.101797 440.339145 
L 94.77674 440.739114 
L 94.518171 440.797646 
L 94.340867 441.051285 
L 93.735078 441.158594 
L 93.483898 441.373212 
L 93.15884 442.221926 
L 93.365695 442.768225 
L 92.560439 445.568009 
L 91.969426 446.455745 
L 91.659144 447.509322 
L 91.031192 448.299504 
L 90.898214 448.679963 
L 90.580544 449.089687 
L 90.255487 450.231062 
L 89.575821 451.440725 
L 88.467671 452.533323 
L 87.824944 452.855249 
L 87.52205 453.352772 
L 87.403847 454.016135 
L 87.64764 454.5917 
L 87.381684 455.908671 
L 87.174829 456.445215 
L 87.071402 457.29393 
L 86.849772 457.830474 
L 86.473001 458.259709 
L 85.830274 458.630412 
L 84.884652 459.859585 
L 84.818163 460.952183 
L 84.32319 461.7131 
L 84.271476 462.15209 
L 84.049846 462.737411 
L 83.517934 463.166646 
L 83.096837 463.712945 
L 82.904757 464.454351 
L 81.116942 466.688325 
L 80.415113 468.454041 
L 79.439941 469.878321 
L 78.472157 471.000186 
L 77.423108 472.053763 
L 77.038949 474.11214 
L 75.709169 476.082719 
L 75.502314 477.52651 
L 74.822649 479.106875 
L 74.601019 479.867792 
L 74.179922 480.453112 
L 73.566745 480.901858 
L 73.33034 481.643264 
L 73.278626 482.257851 
L 72.924018 482.882193 
L 73.027445 484.335739 
L 72.88708 485.184453 
L 72.074436 486.520935 
L 71.431709 488.120811 
L 71.099264 488.803685 
L 70.449149 489.369495 
L 70.087154 489.984082 
L 69.821197 490.774264 
L 69.466589 491.398606 
L 68.543131 493.408207 
L 67.952118 493.798421 
L 67.353716 493.934995 
L 66.119976 494.812976 
L 65.521575 496.383586 
L 65.270394 496.764045 
L 65.130028 497.524961 
L 65.100478 498.07126 
L 64.819746 498.7834 
L 64.250896 499.241902 
L 63.955389 499.924775 
L 63.881512 500.432053 
L 61.746476 504.46101 
L 60.830406 505.865779 
L 60.608776 506.636451 
L 60.091639 507.377857 
L 59.448912 508.089997 
L 58.850511 509.660607 
L 58.15607 511.084887 
L 56.767188 511.611675 
L 55.274879 513.582255 
L 54.86117 514.235862 
L 54.5435 514.977269 
L 54.477011 515.660142 
L 53.797346 516.947848 
L 53.228495 517.513657 
L 52.910826 518.040446 
L 52.393689 518.537968 
L 52.068632 519.30864 
L 52.039081 520.420749 
L 51.477618 520.410994 
L 51.66231 521.00607 
L 50.753627 521.952338 
L 49.977922 523.308331 
L 49.564212 523.776587 
L 49.150503 523.913162 
L 49.12834 524.605791 
L 48.90671 526.264199 
L 48.293533 528.059182 
L 48.263983 528.010406 
L 47.532603 528.478662 
L 46.84555 528.459151 
L 46.653471 528.585971 
L 44.954307 531.12236 
L 44.740065 531.785723 
L 43.823994 533.219758 
L 43.594976 533.67826 
L 42.944862 535.580551 
L 42.582866 535.912233 
L 42.501602 536.009786 
L 41.784998 536.25367 
L 40.337015 536.4 
L 37.426274 535.482998 
L 36.635793 535.024497 
L 35.291238 534.55624 
L 34.796264 533.883122 
L 34.020559 532.497863 
L 33.259629 531.54184 
L 32.247519 531.102849 
L 31.634342 530.371199 
L 30.622232 530.156581 
L 29.802201 529.795633 
L 28.47242 529.502973 
L 27.859244 529.210313 
L 27.467697 528.761567 
L 26.788032 528.439641 
L 25.93845 528.166491 
L 25.347437 527.776277 
L 24.660384 527.600681 
L 23.049872 527.795788 
L 22.42192 528.059182 
L 21.624052 527.542149 
L 20.700594 526.176401 
L 20.213008 525.922762 
L 20.102193 525.415485 
L 20.286884 522.986404 
L 20.471576 522.371818 
L 20.538065 520.56708 
L 20.826184 519.932982 
L 21.520625 519.357417 
L 22.126414 518.206287 
L 22.628775 517.533168 
L 23.160687 516.362527 
L 23.020321 514.440725 
L 23.18285 513.777361 
L 23.611335 513.621276 
L 24.010269 513.17253 
L 25.029767 511.358037 
L 25.362212 510.694673 
L 25.871961 510.245928 
L 26.189631 509.709384 
L 26.396486 508.860669 
L 26.972724 508.011954 
L 27.674552 507.680273 
L 27.696715 506.958377 
L 28.095649 505.387767 
L 28.465033 504.821957 
L 28.605398 504.139083 
L 29.816976 501.895355 
L 29.949954 501.271013 
L 30.178972 500.763735 
L 30.673945 500.714958 
L 30.910351 500.675937 
L 31.124593 500.539362 
L 31.397937 500.646671 
L 31.493976 500.77349 
L 31.656505 500.802756 
L 31.656505 500.714958 
L 32.062827 500.080861 
L 32.690779 499.183369 
L 33.429545 497.056705 
L 33.651175 495.720223 
L 34.183088 494.851998 
L 34.463819 494.686157 
L 34.582022 494.022793 
L 34.61896 493.866708 
L 35.15826 493.554537 
L 35.365114 493.261877 
L 35.490705 492.881418 
L 36.273798 491.632735 
L 36.717058 491.213255 
L 37.574027 489.193899 
L 38.475323 487.711087 
L 39.081111 486.852617 
L 40.107997 485.877083 
L 40.728561 484.121121 
L 41.245698 482.404181 
L 42.31691 479.965345 
L 43.86832 477.409446 
L 44.112113 476.580242 
L 45.006021 475.273026 
L 45.64136 473.887767 
L 46.734735 471.907433 
L 47.126282 471.195293 
L 47.576929 469.722236 
L 47.916762 468.971075 
L 48.854996 467.771168 
L 49.911433 466.922453 
L 50.413794 466.366398 
L 51.824838 463.761722 
L 52.445403 463.215423 
L 53.324535 462.122824 
L 53.863835 460.688789 
L 54.336646 460.230288 
L 55.30443 459.7035 
L 55.777241 459.293775 
L 57.579832 454.991669 
L 58.000929 454.308795 
L 58.289048 453.29424 
L 59.596665 450.523723 
L 59.884784 449.73354 
L 60.02515 448.904336 
L 61.074199 446.475255 
L 61.369705 444.963177 
L 62.359653 443.841313 
L 62.87679 443.392567 
L 63.859349 441.578074 
L 64.398649 441.265903 
L 65.033989 441.061041 
L 65.21868 440.612295 
L 65.492024 440.290369 
L 65.455086 439.441654 
L 66.023936 438.3393 
L 66.119976 437.929576 
L 66.156914 436.856488 
L 66.445033 436.076061 
L 66.932619 435.100526 
L 67.161637 434.300588 
L 67.228126 432.905574 
L 67.538408 432.49585 
L 67.634448 432.632425 
L 67.974281 432.398297 
L 67.981668 432.173924 
L 68.727823 431.773955 
L 69.643893 430.525271 
L 70.678167 429.510715 
L 71.099264 429.022948 
L 71.128815 427.871818 
L 71.276568 427.266987 
L 71.527749 426.827996 
L 71.431709 426.379251 
L 73.278626 423.989192 
L 73.958291 422.662465 
L 73.854864 421.921059 
L 74.017393 421.560111 
L 75.413662 419.794395 
L 76.558751 418.916414 
L 77.031561 418.399381 
L 77.223641 417.657975 
L 77.578249 417.22874 
L 80.444664 412.068164 
L 80.629356 411.219449 
L 81.05784 410.565841 
L 81.538039 409.112295 
L 81.973911 408.55624 
L 82.889982 407.13196 
L 83.421894 406.497863 
L 83.939031 405.112605 
L 84.618696 403.69808 
L 84.773837 403.024961 
L 85.11367 402.14698 
L 85.512604 401.659213 
L 85.616031 401.464107 
L 85.756397 400.790988 
L 86.044516 400.634902 
L 85.734234 400.381264 
L 87.455561 398.215578 
L 88.460284 396.508393 
L 89.029134 395.913317 
L 89.494557 394.498792 
L 90.174223 392.820873 
L 91.045967 391.318551 
L 91.223271 390.616166 
L 91.570492 389.904026 
L 93.210554 388.704119 
L 93.860669 387.962713 
L 94.1414 386.909136 
L 94.58466 386.04091 
L 95.138735 385.475101 
L 95.301264 384.811737 
L 95.892277 383.699628 
L 96.195172 383.309415 
L 97.539727 379.387767 
L 97.864785 378.743915 
L 98.027313 378.119573 
L 98.359759 377.904955 
L 98.729142 377.817157 
L 99.246279 377.456209 
L 99.726477 376.480675 
L 100.162349 375.212481 
L 100.465244 374.666181 
L 100.723812 374.539362 
L 100.95283 374.295478 
L 101.063645 373.719913 
L 101.39609 372.773645 
L 101.913227 372.237101 
L 102.275223 371.505451 
L 102.47469 370.7738 
L 103.183906 370.256767 
L 103.70843 369.427563 
L 104.144302 367.642335 
L 104.269893 366.754599 
L 104.558012 366.003438 
L 105.282003 365.086435 
L 105.880404 365.135212 
L 106.331052 365.125457 
L 106.574845 364.910839 
L 106.981167 365.018148 
L 107.328387 364.345029 
L 107.239735 364.306008 
L 107.276674 364.276742 
L 107.357938 364.023103 
L 107.357938 364.023103 
L 107.616506 363.79873 
L 107.971114 363.535336 
L 108.01544 363.330474 
L 108.296172 362.784175 
L 108.451313 361.984237 
L 108.55474 361.681821 
L 108.591679 361.067234 
L 108.473476 360.618489 
L 108.118868 359.916104 
L 107.335775 359.213719 
L 107.313612 359.272251 
L 107.143696 359.282007 
L 106.981167 359.194209 
L 105.806528 361.603778 
L 105.7031 361.467203 
L 105.680937 361.51598 
L 105.969056 361.330629 
L 106.190686 360.637999 
L 106.220237 360.36485 
L 105.540572 359.194209 
L 105.208127 358.823506 
L 104.705765 357.701641 
L 104.188628 357.282162 
L 102.82191 355.506689 
L 102.238284 354.326293 
L 101.905839 352.989811 
L 102.097918 350.931434 
L 102.319549 350.336358 
L 103.191293 349.029142 
L 104.173853 347.985321 
L 105.378043 347.175627 
L 107.032881 345.585506 
L 107.897238 344.385599 
L 108.458701 343.507618 
L 110.39427 338.473862 
L 115.632126 327.977114 
L 116.215752 327.44057 
L 116.592523 326.816228 
L 119.156044 324.0262 
L 120.84782 322.640941 
L 122.192375 322.006844 
L 126.573262 321.343481 
L 127.312029 321.333726 
L 128.678748 321.801982 
L 129.823836 322.484856 
L 130.909823 323.392103 
L 131.55255 323.694518 
L 132.815842 324.543233 
L 133.51767 324.865159 
L 135.002591 324.972468 
L 137.167178 324.748095 
L 139.191399 324.074977 
L 142.981273 321.402013 
L 144.281502 319.568009 
L 145.360102 317.714494 
L 146.69727 314.417188 
L 148.37427 311.793001 
L 149.593235 310.62236 
L 153.146704 307.881109 
L 155.104436 306.681202 
L 157.239472 305.022793 
L 158.451049 303.618024 
L 160.874204 300.242676 
L 161.576033 298.252586 
L 162.46994 294.545556 
L 162.75806 292.223784 
L 162.765447 291.433602 
L 162.270473 289.784949 
L 161.627746 288.263116 
L 160.209314 285.160917 
L 160.061561 284.224404 
L 160.098499 281.27829 
L 160.268415 280.380799 
L 161.066284 278.693125 
L 162.573368 276.468907 
L 165.506272 272.927718 
L 168.320973 270.830319 
L 171.734076 268.71341 
L 172.760962 267.767142 
L 173.21161 267.172066 
L 173.795235 265.679498 
L 173.787848 265.02589 
L 174.046416 263.523568 
L 174.053804 262.040756 
L 173.920826 260.684763 
L 174.356698 259.299504 
L 174.85906 257.485011 
L 175.088077 256.948467 
L 176.070637 253.114618 
L 176.476959 251.8952 
L 178.937052 243.632425 
L 179.816185 242.110592 
L 181.012987 239.447383 
L 183.872014 235.750108 
L 184.366988 235.145277 
L 186.162191 233.438092 
L 189.102483 230.052989 
L 190.794259 227.672685 
L 193.13615 222.482843 
L 193.741939 221.234159 
L 194.103934 219.868411 
L 194.362503 219.283091 
L 195.943464 216.951564 
L 197.184592 214.298111 
L 197.989848 213.195757 
L 199.319628 211.771477 
L 201.62458 209.976494 
L 204.365405 208.757076 
L 209.167389 207.371818 
L 210.482394 207.323041 
L 211.073408 207.391329 
L 212.506615 207.791298 
L 213.932435 208.093713 
L 215.328704 208.552214 
L 216.052696 208.659523 
L 217.545005 208.493682 
L 218.808296 208.152245 
L 220.736477 207.264509 
L 221.637773 206.220688 
L 223.122694 204.650077 
L 227.296726 198.894426 
L 230.000613 194.016754 
L 231.042274 192.133973 
L 231.544635 190.777981 
L 232.143036 189.587829 
L 233.295513 187.900155 
L 235.142429 184.993063 
L 235.674342 183.802911 
L 237.58036 180.105636 
L 240.350735 174.769464 
L 241.192929 173.540291 
L 241.421947 172.818396 
L 241.769168 172.145277 
L 243.017683 170.252741 
L 247.339469 162.750883 
L 247.960033 161.346113 
L 248.676637 159.951099 
L 249.858664 156.985475 
L 250.56788 153.932053 
L 250.604818 153.171137 
L 250.058131 148.859275 
L 250.006417 147.093558 
L 250.479228 145.376618 
L 250.745184 144.362063 
L 250.974202 141.737876 
L 250.819061 139.933137 
L 250.723021 139.123444 
L 249.866052 136.548033 
L 248.528884 134.216507 
L 247.664527 132.606875 
L 247.191716 130.958222 
L 247.162165 130.177795 
L 247.428121 128.275503 
L 248.373743 125.524497 
L 249.80695 122.793001 
L 250.235435 121.895509 
L 250.767347 121.095571 
L 251.956762 119.583493 
L 253.914494 116.569093 
L 254.357754 115.827687 
L 256.766133 112.852307 
L 258.672152 110.881728 
L 261.006655 108.277052 
L 262.801858 106.423537 
L 264.0947 104.267606 
L 264.66355 102.775039 
L 264.85563 101.136141 
L 264.818691 100.38498 
L 264.44192 98.033942 
L 264.264616 96.424311 
L 264.235066 95.634128 
L 264.85563 91.302756 
L 265.10681 89.84921 
L 266.510467 82.893651 
L 267.175357 81.781542 
L 267.995389 80.454816 
L 269.583737 78.85494 
L 271.268125 77.440415 
L 274.636902 75.430814 
L 275.33873 75.069867 
L 276.535533 73.957758 
L 276.98618 73.294395 
L 277.296462 72.494456 
L 277.370339 71.684763 
L 277.30385 70.806782 
L 277.089608 69.967823 
L 276.675898 69.226417 
L 275.516035 67.928956 
L 274.806818 67.431434 
L 273.9794 67.129018 
L 273.151981 67.02171 
L 271.393716 66.992443 
L 269.014887 68.075286 
L 267.574292 69.041065 
L 265.527908 70.60192 
L 264.796528 71.050666 
L 263.067814 71.294549 
L 261.46469 70.699474 
L 260.711148 70.201951 
L 259.891117 68.631341 
L 259.772914 67.763116 
L 259.883729 66.846113 
L 260.149685 65.987643 
L 261.671545 63.9 
L 262.040928 63.090307 
L 266.606507 57.354165 
L 267.042379 56.563983 
L 268.143142 54.78851 
L 269.273455 52.349675 
L 269.879244 50.681511 
L 270.381605 48.076835 
L 270.425931 47.22812 
L 270.204301 45.686776 
L 269.406433 44.194209 
L 268.253957 43.043078 
L 267.182745 41.648064 
L 265.52052 40.096965 
L 264.323718 39.179963 
L 262.476801 37.697151 
L 259.34443 35.863146 
L 257.519676 35.151007 
L 255.621045 34.702261 
L 253.692864 34.087674 
L 251.934599 33.892567 
L 249.932541 33.726727 
L 246.452949 32.760948 
L 245.477777 32.468287 
L 244.465666 32.4 
L 243.85249 32.517064 
L 242.803441 32.975565 
L 241.037788 34.370579 
L 240.446775 35.209539 
L 240.247308 35.619263 
L 239.914863 35.911923 
L 238.924915 38.555621 
L 238.998792 39.355559 
L 239.072669 40.155497 
L 239.560255 41.423692 
L 240.010903 42.272406 
L 240.616691 42.916259 
L 242.389732 44.155187 
L 243.85249 45.179498 
L 244.546931 45.423382 
L 246.844495 46.379405 
L 248.432844 47.813441 
L 248.883492 48.818241 
L 249.533607 51.169278 
L 249.55577 52.63258 
L 249.533607 53.022793 
L 249.666585 53.578848 
L 249.629646 54.027594 
L 250.109845 56.261567 
L 251.314035 60.729514 
L 251.173669 62.192815 
L 250.626981 64.738959 
L 249.947316 66.221771 
L 248.166888 68.933757 
L 244.73901 71.635986 
L 243.1876 72.29935 
L 239.619356 73.167575 
L 238.747611 73.499257 
L 237.181426 74.562589 
L 235.822095 75.713719 
L 235.260632 76.386838 
L 234.521865 78.074512 
L 234.167257 78.845184 
L 233.39894 81.332797 
L 232.453318 83.498483 
L 231.463371 84.630102 
L 230.975785 85.088603 
L 229.335723 85.508083 
L 227.318889 86.317776 
L 221.482632 88.317622 
L 220.307992 89.059028 
L 218.697481 90.278445 
L 217.138683 91.653949 
L 215.291766 94.258625 
L 214.397858 95.897522 
L 213.385748 98.277826 
L 212.816897 99.419201 
L 212.019029 101.106875 
L 210.763125 103.438402 
L 210.342028 104.579777 
L 209.647588 106.296717 
L 209.270817 107.594178 
L 209.189552 108.325828 
L 208.43601 109.993992 
L 207.032353 112.081635 
L 206.234485 113.027903 
L 204.335854 114.998483 
L 203.375458 115.661846 
L 201.609805 116.471539 
L 199.400892 117.720223 
L 198.580861 118.764045 
L 197.805156 120.139548 
L 197.502262 120.76389 
L 196.9999 122.90031 
L 196.822596 124.353856 
L 196.889085 126.421988 
L 197.036839 127.709693 
L 196.940799 130.802137 
L 196.549252 131.992289 
L 195.950851 133.836048 
L 195.182534 134.987179 
L 193.911855 136.362682 
L 192.774154 136.86996 
L 191.629066 137.279684 
L 190.447039 137.718675 
L 189.39799 138.206442 
L 184.935839 140.381883 
L 183.968054 141.113534 
L 183.088922 141.718365 
L 182.734313 142.011025 
L 181.781304 142.469526 
L 181.057313 143.084113 
L 180.554951 143.288975 
L 180.126467 143.640167 
L 179.26211 144.791298 
L 178.656321 145.308331 
L 175.878558 149.093404 
L 174.696531 151.307866 
L 173.544055 153.551595 
L 173.130345 154.244224 
L 172.687085 155.931898 
L 172.369415 157.54153 
L 172.2586 162.019232 
L 172.339865 162.731372 
L 172.2586 163.453267 
L 173.137733 166.926169 
L 175.161954 173.540291 
L 175.265381 175.871818 
L 175.213668 176.242521 
L 174.364086 178.242366 
L 173.846949 179.520316 
L 172.657534 182.173769 
L 170.869719 185.080861 
L 169.503 186.583184 
L 168.187995 187.997708 
L 167.464004 188.982998 
L 163.54854 191.968133 
L 162.580755 192.641251 
L 160.608248 194.250883 
L 160.135437 194.777671 
L 159.234142 196.026355 
L 159.064226 195.694673 
L 160.238865 187.76358 
L 160.172376 186.144193 
L 160.25364 185.06135 
L 159.995072 184.05655 
L 158.879534 181.744534 
L 157.254247 179.949551 
L 155.954017 178.827687 
L 154.86803 178.193589 
L 154.350893 178.027749 
L 151.639619 176.359585 
L 150.753099 175.588913 
L 149.777927 174.886528 
L 148.78798 174.252431 
L 148.241292 174.096346 
L 147.960561 173.862217 
L 147.70938 173.50127 
L 146.970613 172.876928 
L 144.82819 171.735553 
L 143.934282 170.925859 
L 142.412422 169.921059 
L 139.206174 168.360204 
L 137.765579 167.589532 
L 136.775632 167.150542 
L 135.468014 166.418891 
L 135.076468 166.23354 
L 134.463292 166.428647 
L 133.694974 167.404181 
L 133.502895 167.911459 
L 132.165727 169.64791 
L 131.323533 171.101456 
L 131.116678 171.716042 
L 129.11462 174.876773 
L 128.508831 176.154723 
L 128.146835 177.120502 
L 127.81439 178.222855 
L 128.294589 178.447228 
L 128.627034 178.2131 
L 128.095122 178.242366 
L 127.053461 178.866708 
L 127.164276 178.886219 
L 127.105174 179.061815 
L 127.208602 178.983772 
L 128.375853 177.725333 
L 128.870827 177.549737 
L 130.015915 176.886373 
L 130.466563 175.940105 
L 130.946762 175.091391 
L 131.419572 174.008548 
L 132.165727 172.701332 
L 132.734577 172.457448 
L 132.956207 171.472159 
L 133.244326 170.974636 
L 133.561996 170.672221 
L 133.827952 169.638154 
L 134.448516 168.95528 
L 135.150345 168.526045 
L 135.962988 168.311428 
L 136.236332 168.311428 
L 136.864284 168.633354 
L 137.137627 168.886993 
L 137.765579 169.179653 
L 138.090636 169.345494 
L 139.560782 169.550356 
L 139.974492 169.501579 
L 140.210897 169.803995 
L 141.030928 169.862527 
L 141.163906 169.950325 
L 141.023541 169.891793 
L 141.008765 169.560111 
L 140.964439 169.589378 
L 140.964439 169.589378 
" style="fill:none;stroke:#000000;stroke-width:3;"/>
   </g>
  </g>
 </g>
 <defs>
  <clipPath id="pfa343f622f">
   <rect height="554.4" width="283.035593" x="7.2" y="7.2"/>
  </clipPath>
 </defs>
</svg>
