<?xml version="1.0" encoding="utf-8" standalone="no"?>
<!DOCTYPE svg PUBLIC "-//W3C//DTD SVG 1.1//EN"
  "http://www.w3.org/Graphics/SVG/1.1/DTD/svg11.dtd">
<svg height="568.8pt" version="1.1" viewBox="0 0 298.506187 568.8" width="298.506187pt" xmlns="http://www.w3.org/2000/svg" xmlns:xlink="http://www.w3.org/1999/xlink">
 <metadata>
  <rdf:RDF xmlns:cc="http://creativecommons.org/ns#" xmlns:dc="http://purl.org/dc/elements/1.1/" xmlns:rdf="http://www.w3.org/1999/02/22-rdf-syntax-ns#">
   <cc:Work>
    <dc:type rdf:resource="http://purl.org/dc/dcmitype/StillImage"/>
    <dc:date>2021-10-12T02:04:37.542236</dc:date>
    <dc:format>image/svg+xml</dc:format>
    <dc:creator>
     <cc:Agent>
      <dc:title>Matplotlib v3.4.3, https://matplotlib.org/</dc:title>
     </cc:Agent>
    </dc:creator>
   </cc:Work>
  </rdf:RDF>
 </metadata>
 <defs>
  <style type="text/css">*{stroke-linecap:butt;stroke-linejoin:round;}</style>
 </defs>
 <g id="figure_1">
  <g id="patch_1">
   <path d="M -0 568.8 
L 298.506187 568.8 
L 298.506187 0 
L -0 0 
z
" style="fill:#ffffff;"/>
  </g>
  <g id="axes_1">
   <g id="LineCollection_1">
    <path clip-path="url(#p5fec752af9)" d="M 205.688702 106.162732 
L 206.037401 106.445187 
L 205.906639 106.450418 
L 205.775877 106.455648 
L 204.634683 105.775663 
L 203.893699 105.467054 
L 202.273045 104.541228 
L 202.086809 104.541228 
L 202.257195 104.525536 
L 201.512249 105.393825 
L 200.90599 106.806102 
L 200.168969 107.993462 
L 198.021305 111.754304 
L 197.189185 113.218888 
L 196.781049 113.935489 
L 195.980629 115.054849 
L 194.67301 117.413876 
L 193.749753 118.951689 
L 192.759133 120.63073 
L 191.193954 123.41344 
L 188.03982 128.978859 
L 186.276517 132.922775 
L 185.670258 134.000291 
L 184.822287 135.459644 
L 184.588501 136.139629 
L 184.105079 136.819615 
L 183.284845 138.169125 
L 182.682549 139.298947 
L 182.084214 140.245696 
L 181.759291 140.538612 
L 179.710689 144.367454 
L 179.48879 144.644679 
L 179.171792 145.366509 
L 176.156345 151.120232 
L 175.70066 151.774065 
L 174.34153 154.138322 
L 172.8556 156.74842 
L 171.607419 158.751762 
L 171.302309 159.327134 
L 170.696049 160.373266 
L 169.824304 161.597239 
L 168.905009 162.972902 
L 168.607823 163.197821 
L 167.902501 164.311951 
L 167.759852 164.761787 
L 167.494366 165.127933 
L 166.967356 166.262986 
L 166.396759 167.319579 
L 166.194673 167.748493 
L 165.945037 167.743262 
L 165.754838 167.973411 
L 165.40614 169.453687 
L 165.29519 169.746604 
L 165.073291 170.013367 
L 164.562132 170.400436 
L 164.43137 170.892118 
L 164.33627 171.383799 
L 163.741898 173.172684 
L 163.4249 175.484635 
L 163.619062 178.021504 
L 163.567549 178.79041 
L 163.587362 181.562659 
L 163.833035 182.342027 
L 164.114371 187.787141 
L 164.015309 188.848965 
L 164.284758 190.020632 
L 164.209471 190.773847 
L 164.090597 191.082456 
L 164.090597 191.840901 
L 164.46307 192.505194 
L 164.094559 193.802397 
L 164.177771 194.628841 
L 163.971722 195.612205 
L 163.741898 196.710643 
L 163.912285 197.197094 
L 163.924172 198.049691 
L 164.486844 199.399201 
L 165.8856 200.11057 
L 165.517089 201.240392 
L 165.461614 201.664076 
L 165.069329 202.113912 
L 165.104991 202.982201 
L 164.811768 204.24802 
L 164.708743 204.635089 
L 164.791955 205.59753 
L 164.811768 206.439666 
L 164.950455 207.072575 
L 164.859317 208.103015 
L 164.728556 209.630367 
L 164.205508 210.273738 
L 163.571512 211.021722 
L 163.801336 211.905703 
L 163.436787 212.19862 
L 162.612592 213.4749 
L 162.184644 213.678896 
L 162.00237 214.149655 
L 162.279744 216.676062 
L 161.681409 217.952343 
L 161.590272 218.799709 
L 161.661597 219.908609 
L 161.003825 221.713186 
L 160.877026 222.293789 
L 160.072643 224.05652 
L 159.63677 225.08696 
L 159.434684 225.56295 
L 158.828424 226.195859 
L 158.558976 226.959535 
L 158.067628 228.361351 
L 157.453444 229.417944 
L 157.378157 229.836397 
L 156.316212 232.441264 
L 156.201301 232.833563 
L 155.892227 233.079404 
L 155.81694 233.466473 
L 155.614854 233.790774 
L 154.933307 235.982419 
L 154.687634 236.285797 
L 154.497435 237.195932 
L 154.0259 237.839303 
L 153.807963 238.05899 
L 153.590027 238.095605 
L 153.356241 238.69713 
L 154.830283 239.178351 
L 155.285968 239.795568 
L 155.313705 240.418017 
L 155.163131 240.68478 
L 155.214643 240.852161 
L 154.481585 242.787505 
L 154.287423 242.83458 
L 154.342898 242.808427 
L 154.461772 242.923502 
L 154.533097 243.137959 
L 153.942687 243.561642 
L 153.776263 243.980094 
L 153.784188 244.137014 
L 153.300766 244.74377 
L 152.631107 245.428987 
L 152.12391 247.557864 
L 151.462176 249.006756 
L 151.232352 249.770432 
L 150.570618 250.518416 
L 150.099083 251.355321 
L 150.059458 251.789466 
L 149.66321 252.495605 
L 149.18375 253.081438 
L 148.058406 254.917399 
L 148.129731 255.32016 
L 147.895944 256.062913 
L 147.781032 256.345369 
L 147.388747 256.59121 
L 147.115336 256.941664 
L 147.008349 257.276426 
L 147.047974 257.731493 
L 146.91325 258.113331 
L 145.883005 259.551762 
L 145.439207 259.985906 
L 145.007297 260.17421 
L 143.897803 261.513258 
L 144.044415 262.235089 
L 142.847746 264.353505 
L 141.940338 264.913186 
L 141.476728 265.859935 
L 140.870469 266.994987 
L 140.60102 267.209444 
L 140.24836 267.983582 
L 139.543038 269.134326 
L 139.360764 269.442935 
L 139.475676 269.898002 
L 139.281515 270.295532 
L 138.988291 270.588449 
L 138.790167 270.959826 
L 138.69903 271.38874 
L 137.637086 272.879477 
L 137.589536 273.345005 
L 137.149701 274.281293 
L 136.90799 275.13389 
L 136.273993 275.704032 
L 135.83812 276.331711 
L 135.719246 276.771086 
L 135.39036 277.12154 
L 134.871275 277.911369 
L 134.051042 279.145805 
L 133.571582 280.406393 
L 132.822674 281.923284 
L 132.5453 282.68696 
L 132.11339 283.131566 
L 131.796392 283.853396 
L 131.24957 284.590919 
L 130.73841 285.417363 
L 130.579911 285.87243 
L 129.597216 287.54101 
L 128.666033 289.716963 
L 126.561957 292.468289 
L 125.3851 294.084562 
L 123.447448 296.663276 
L 123.166112 297.819252 
L 122.468716 299.362296 
L 120.673713 303.180676 
L 120.33294 304.184962 
L 118.81531 307.27105 
L 115.712689 313.045696 
L 115.411541 313.777988 
L 115.039067 314.363821 
L 114.50017 314.892118 
L 113.66805 316.429931 
L 113.113303 317.53883 
L 112.404019 318.318198 
L 112.376281 318.558809 
L 112.443644 318.543117 
L 112.550631 318.548347 
L 113.323314 319.040029 
L 114.00486 319.348638 
L 114.781506 319.955394 
L 115.023218 320.373847 
L 117.289756 321.660588 
L 117.761291 321.8332 
L 120.031791 323.726698 
L 120.622201 323.930694 
L 121.557346 324.281148 
L 121.878306 324.312532 
L 122.258704 324.568834 
L 123.158187 324.757138 
L 123.554435 324.422376 
L 124.267681 323.240247 
L 124.323156 322.806102 
L 124.13692 322.994406 
L 124.140882 323.480857 
L 123.736709 323.841773 
L 123.336499 324.234072 
L 123.427636 324.506066 
L 123.241399 325.070977 
L 124.033895 325.274973 
L 124.299381 325.327279 
L 125.492087 326.132801 
L 125.904185 326.504177 
L 126.827443 326.870323 
L 127.358415 326.927861 
L 128.242048 327.409081 
L 129.149456 327.806611 
L 129.529854 327.853687 
L 129.922139 328.308754 
L 130.667085 328.690592 
L 131.229757 329.537959 
L 132.09754 329.574573 
L 132.969285 330.170868 
L 134.566165 330.66255 
L 134.803913 330.74101 
L 135.953032 331.923138 
L 135.770758 333.319724 
L 135.671696 333.60741 
L 135.263561 334.120015 
L 135.045625 334.705848 
L 134.593902 335.260298 
L 132.164902 334.057247 
L 131.499206 333.654486 
L 130.892946 333.419106 
L 128.911707 332.440973 
L 127.730888 331.687759 
L 126.819518 331.284998 
L 126.110234 330.730548 
L 125.575299 330.395786 
L 125.278114 330.118562 
L 124.12107 329.668725 
L 123.661422 329.605957 
L 122.044731 328.774283 
L 121.121473 328.162296 
L 118.545861 326.812786 
L 118.006964 326.378641 
L 114.270347 324.328224 
L 113.640312 323.930694 
L 112.728942 323.522703 
L 111.492649 322.675336 
L 111.139988 322.581184 
L 110.949789 322.806102 
L 110.684303 323.235016 
L 110.406929 323.763313 
L 110.181068 324.312532 
L 109.424235 325.369125 
L 108.865525 326.164185 
L 108.152279 327.613077 
L 107.090334 329.454268 
L 106.278026 331.049619 
L 105.10117 333.094806 
L 104.522648 334.371086 
L 103.71034 335.579368 
L 102.755382 337.111951 
L 100.112409 341.678315 
L 99.862772 342.028769 
L 99.506149 342.844751 
L 98.250043 344.806248 
L 92.456899 355.074028 
L 91.914039 355.691246 
L 91.458354 356.815837 
L 91.109656 357.365056 
L 90.340935 359.112096 
L 89.520702 360.984671 
L 89.152191 361.973266 
L 89.334465 362.653251 
L 89.679201 363.343698 
L 91.272118 366.811624 
L 91.72384 367.50207 
L 92.005176 368.239593 
L 92.365762 368.872503 
L 92.706535 369.866328 
L 93.150333 371.053687 
L 93.819992 372.377043 
L 94.144915 373.057029 
L 94.481726 373.878242 
L 94.620413 374.045623 
L 94.588713 374.872067 
L 94.751174 375.478823 
L 95.044398 377.309553 
L 95.464421 377.565855 
L 96.090492 377.717544 
L 97.631897 378.653832 
L 97.849833 378.988594 
L 99.878622 380.155031 
L 101.538901 381.096549 
L 102.026286 381.431311 
L 103.179367 382.006684 
L 105.556855 383.356193 
L 106.388976 383.753723 
L 106.92391 384.088485 
L 107.272608 384.308173 
L 107.411295 384.559244 
L 107.280533 385.061388 
L 107.114109 385.542608 
L 106.852586 385.95583 
L 106.484075 386.661969 
L 106.143302 387.137959 
L 105.354768 388.403778 
L 105.390431 388.989611 
L 105.457793 389.632982 
L 105.330994 389.836978 
L 104.308674 390.09328 
L 104.130362 390.229277 
L 103.464666 390.616346 
L 103.044643 390.972031 
L 102.73557 391.322485 
L 102.660283 392.342463 
L 102.71972 392.530766 
L 102.747457 392.834145 
L 101.626076 394.005812 
L 101.372477 394.235961 
L 101.221903 394.513186 
L 100.021272 396.213149 
L 99.3318 397.468507 
L 98.765166 398.247875 
L 98.321368 399.011551 
L 97.723034 400.03676 
L 97.251499 400.559826 
L 96.890913 401.532728 
L 95.611032 403.091464 
L 95.278184 403.682528 
L 94.889861 404.01729 
L 94.660037 404.304976 
L 94.461913 404.864657 
L 93.70508 405.92125 
L 93.617905 406.292626 
L 91.517791 409.431021 
L 91.026444 409.954086 
L 88.914443 413.47955 
L 88.759906 413.966001 
L 88.331958 414.640756 
L 87.907973 415.425354 
L 87.388888 416.136724 
L 86.893578 416.863785 
L 86.59243 417.528078 
L 86.025795 418.296985 
L 85.760309 418.914203 
L 84.484391 420.467708 
L 84.155505 420.807701 
L 82.154453 424.62085 
L 80.783435 426.247584 
L 79.51148 428.794915 
L 79.135044 429.218598 
L 78.695209 430.165347 
L 78.350473 430.43211 
L 77.867051 431.279477 
L 77.431178 432.41453 
L 77.252867 432.696985 
L 76.464333 433.382201 
L 76.12356 433.93142 
L 76.464333 434.470178 
L 77.122105 434.935707 
L 77.522315 435.270469 
L 78.132537 435.871994 
L 78.742759 436.180603 
L 80.022639 436.996586 
L 80.307938 437.012278 
L 80.557574 437.184889 
L 80.926085 437.205812 
L 81.369882 437.734108 
L 82.067279 437.964257 
L 82.574476 438.079332 
L 82.824112 438.178714 
L 83.089598 438.424555 
L 83.957381 438.733164 
L 84.080218 439.067926 
L 84.741952 439.26146 
L 85.368024 439.371304 
L 85.574073 439.564838 
L 86.172407 439.852525 
L 86.382418 440.040828 
L 86.596392 440.061751 
L 86.830179 440.485434 
L 86.632055 440.835888 
L 86.509218 441.32757 
L 86.354681 441.7251 
L 86.509218 442.881075 
L 86.152595 444.131202 
L 85.942583 444.889648 
L 85.605773 446.207773 
L 84.678552 447.468362 
L 84.64289 447.77174 
L 84.325892 448.048965 
L 84.028706 448.111733 
L 83.739445 448.127425 
L 82.606176 447.400363 
L 80.945897 445.930548 
L 80.45455 445.648093 
L 79.99094 445.491173 
L 78.877483 444.659499 
L 78.655584 444.596731 
L 78.366323 444.178278 
L 78.255374 443.895823 
L 76.646607 442.666618 
L 76.226584 442.36324 
L 75.077466 442.195859 
L 74.851604 442.321395 
L 74.407807 442.91769 
L 73.456812 445.125027 
L 73.123963 447.21729 
L 72.973389 448.436033 
L 73.29435 449.565855 
L 73.524174 449.612931 
L 73.66286 449.994769 
L 74.491019 450.502143 
L 75.057653 450.805521 
L 75.315214 451.098438 
L 75.434089 451.422739 
L 76.214697 451.631965 
L 76.943793 452.620559 
L 77.680814 452.78794 
L 78.623884 453.243008 
L 79.039945 453.316237 
L 79.642241 453.797457 
L 79.844328 454.111297 
L 79.876028 454.383291 
L 80.4704 454.937741 
L 81.120246 455.126044 
L 81.504607 455.575881 
L 81.770093 455.64911 
L 81.81368 455.989103 
L 81.714618 456.449401 
L 81.516494 456.904468 
L 81.037034 457.72045 
L 80.834948 457.872139 
L 80.83891 458.19121 
L 80.462475 459.394261 
L 79.725454 461.026226 
L 79.222219 461.554522 
L 78.754646 462.553578 
L 78.279149 463.139412 
L 77.910638 463.484635 
L 76.258284 465.639666 
L 74.800092 468.343916 
L 74.261195 468.526989 
L 73.967971 469.212205 
L 73.563798 469.824192 
L 72.450342 471.466618 
L 71.249711 473.600726 
L 70.706851 474.699165 
L 70.568164 475.101925 
L 70.179841 475.870832 
L 69.763781 476.048674 
L 68.943548 478.020632 
L 68.741461 478.329241 
L 68.404651 478.606466 
L 67.746879 480.186124 
L 67.457618 480.447657 
L 67.394218 480.761497 
L 66.962308 481.415329 
L 66.570023 481.655939 
L 66.0866 482.790992 
L 65.401091 483.81097 
L 65.008806 484.381112 
L 64.628408 484.595568 
L 64.18461 485.568471 
L 63.843837 486.300763 
L 63.451552 486.954595 
L 63.110779 487.132437 
L 62.702643 487.718271 
L 62.322245 488.869016 
L 61.886373 489.470541 
L 62.092421 489.449619 
L 62.088459 489.528078 
L 62.044872 489.648384 
L 62.032984 489.637922 
L 61.791273 489.810534 
L 61.327663 490.202833 
L 60.975002 490.81482 
L 60.713479 491.520959 
L 59.42171 493.430149 
L 59.207737 493.566146 
L 57.396884 496.4587 
L 56.897611 497.661751 
L 56.814399 497.991282 
L 55.823779 498.917109 
L 55.391869 499.64417 
L 54.436912 500.810607 
L 54.139726 500.951834 
L 53.711778 501.438286 
L 53.438367 501.705049 
L 52.558697 503.718852 
L 52.523034 504.513912 
L 51.631477 505.920959 
L 50.91823 506.08834 
L 49.396638 508.687977 
L 49.372863 509.158736 
L 48.730942 510.14733 
L 47.597673 511.842063 
L 46.607053 513.573411 
L 46.198918 513.908173 
L 45.945319 514.321395 
L 45.778895 514.797385 
L 45.521334 515.472139 
L 45.545109 515.801671 
L 45.236035 516.51304 
L 44.990362 516.649037 
L 44.570339 518.029931 
L 44.055216 518.301925 
L 43.38952 519.206829 
L 42.977422 520.164039 
L 43.072522 520.477879 
L 42.965535 520.849255 
L 42.723823 521.095096 
L 41.963027 521.414166 
L 41.50338 521.890156 
L 41.158644 522.125536 
L 40.96052 522.768907 
L 40.687109 523.396586 
L 40.120475 524.019034 
L 39.339866 524.30672 
L 39.038718 524.46887 
L 38.56322 524.934399 
L 38.701907 525.331929 
L 38.729645 525.834072 
L 38.785119 526.13745 
L 38.57907 526.132219 
L 38.353209 526.330984 
L 38.17886 526.712822 
L 38.222447 527.141736 
L 38.079798 527.696186 
L 37.445801 528.909699 
L 37.632038 529.537377 
L 37.564676 529.950599 
L 37.988661 532.011478 
L 38.159048 533.083763 
L 39.450816 534.32866 
L 39.470628 534.673883 
L 39.676677 535.071413 
L 40.215574 535.406175 
L 40.409736 535.380022 
L 40.647484 535.6834 
L 40.282936 535.578787 
L 40.215574 535.406175 
L 40.44936 535.563095 
L 40.520685 535.882165 
L 40.457285 536.148928 
L 39.795551 536.112314 
L 39.819326 536.112314 
L 39.621202 535.892626 
L 38.725682 535.756629 
L 38.266034 535.746168 
L 37.901486 536.368616 
L 38.004511 536.4 
L 38.11546 536.358155 
L 37.984698 536.227388 
L 37.853937 535.84032 
L 37.655813 535.793244 
L 37.168428 534.73142 
L 36.883129 534.035743 
L 36.918792 533.873592 
L 36.835579 533.512677 
L 36.835579 533.303451 
L 36.653305 533.083763 
L 36.253095 531.739484 
L 36.157996 531.446567 
L 35.325875 530.625354 
L 34.271855 529.950599 
L 32.781963 529.505993 
L 31.712094 529.343843 
L 31.395096 529.171231 
L 28.843259 529.124155 
L 28.054726 528.982928 
L 27.008631 528.909699 
L 26.045749 528.637704 
L 25.447414 528.705703 
L 24.750018 529.030004 
L 22.43593 529.469379 
L 21.829671 529.657683 
L 20.601303 529.626299 
L 20.296192 529.762296 
L 20.153542 530.154595 
L 20.113918 530.379513 
L 20.541865 531.085652 
L 21.017363 531.017653 
L 21.207562 530.91304 
L 21.072838 530.939194 
L 22.626129 530.933963 
L 21.631547 530.845042 
L 21.920808 530.771813 
L 22.178369 530.82935 
L 22.233844 530.839811 
L 22.701416 530.67243 
L 22.91539 530.677661 
L 24.714356 530.709045 
L 24.888705 530.426589 
L 25.28099 529.192154 
L 25.530627 528.815547 
L 25.736675 528.690011 
L 26.23991 528.716164 
L 26.84617 528.826008 
L 28.264737 528.271558 
L 28.28455 527.821722 
L 28.229075 526.702361 
L 28.399461 525.81838 
L 28.332099 525.551616 
L 28.724385 524.620559 
L 29.108745 523.375663 
L 29.469331 522.277225 
L 29.631792 521.492626 
L 29.604055 520.300036 
L 29.782367 519.661896 
L 29.825954 519.337595 
L 30.277677 518.788376 
L 30.055778 517.815474 
L 30.18654 517.538249 
L 31.624919 514.928151 
L 31.292071 514.745078 
L 31.169234 514.854922 
L 31.537745 514.656157 
L 31.525857 514.724155 
L 31.494158 514.724155 
L 31.359433 514.828769 
L 31.517933 514.68231 
L 31.406983 514.666618 
L 31.387171 514.593389 
L 31.323771 514.609081 
L 31.177159 514.650926 
L 31.220747 514.556774 
L 31.521895 514.018017 
L 31.684357 514.018017 
L 31.640769 513.834944 
L 32.013242 513.400799 
L 32.405528 512.155903 
L 33.320861 509.0332 
L 33.713146 507.830149 
L 34.145056 507.144933 
L 34.137131 506.700327 
L 34.969252 504.785906 
L 34.91774 504.456375 
L 35.2704 503.394551 
L 35.987609 502.447802 
L 37.085216 502.463494 
L 37.679588 502.871486 
L 38.182822 503.070251 
L 38.686057 502.981329 
L 39.038718 503.378859 
L 38.860406 503.201017 
L 39.442891 502.573338 
L 39.886688 502.290883 
L 40.461248 502.081656 
L 40.675222 501.940429 
L 40.742584 502.03458 
L 40.873346 501.992735 
L 40.841646 501.903814 
L 40.885233 501.678896 
L 41.194307 501.375518 
L 41.257706 501.166291 
L 41.756979 501.171522 
L 41.586592 501.072139 
L 41.598479 501.004141 
L 43.068559 500.648456 
L 43.345933 500.590919 
L 43.750106 500.821068 
L 44.399952 501.239521 
L 45.065649 501.705049 
L 46.167218 501.642281 
L 46.599128 501.87243 
L 46.61894 502.039811 
L 46.872539 502.201961 
L 47.070663 502.165347 
L 47.0984 501.982274 
L 47.455024 501.673665 
L 47.585785 501.344134 
L 47.617485 500.962296 
L 47.843346 500.700763 
L 48.116758 500.742608 
L 48.235632 500.60138 
L 48.390169 500.240465 
L 48.833966 500.292772 
L 49.967235 499.283255 
L 49.891948 498.985107 
L 50.121772 498.446349 
L 49.899873 497.991282 
L 49.428338 497.771595 
L 49.598725 497.693135 
L 50.712181 495.705485 
L 51.318441 495.067345 
L 52.217923 494.345514 
L 52.106974 494.272285 
L 51.928662 494.403051 
L 52.202074 493.644606 
L 52.166411 493.315074 
L 52.737008 491.719724 
L 53.097594 490.898511 
L 53.933677 489.345005 
L 54.524086 488.58656 
L 54.730135 487.901344 
L 55.20167 486.703523 
L 55.629618 485.971231 
L 55.835667 485.573701 
L 56.093228 484.318344 
L 57.099698 483.554668 
L 57.163097 483.068216 
L 57.729732 482.043008 
L 58.026918 481.58794 
L 59.905133 479.720596 
L 60.451955 478.376317 
L 62.013172 475.949292 
L 62.040909 475.520378 
L 63.075116 473.590265 
L 63.554576 472.769052 
L 65.088056 470.20603 
L 65.63884 469.499891 
L 66.173775 468.469452 
L 67.536868 466.403342 
L 68.269926 464.844606 
L 69.094122 463.228333 
L 69.47452 462.642499 
L 69.882655 462.051435 
L 70.096629 461.251144 
L 70.580052 460.602543 
L 71.348773 459.619179 
L 72.406755 457.866909 
L 72.466192 457.427534 
L 73.496436 455.701417 
L 74.17402 455.146967 
L 74.502906 454.974355 
L 74.598006 454.493135 
L 75.497488 452.845478 
L 75.858074 452.583945 
L 76.908131 450.774137 
L 77.304379 450.099382 
L 77.9463 449.377552 
L 78.239524 448.812641 
L 78.227636 448.179731 
L 78.524822 447.949582 
L 79.095419 447.044679 
L 80.00679 446.113622 
L 80.652674 446.082238 
L 80.878535 446.218235 
L 81.211383 446.892989 
L 81.615556 447.473592 
L 82.27729 448.116963 
L 83.168848 449.000944 
L 83.573021 449.633854 
L 83.957381 450.266764 
L 84.524016 450.779368 
L 85.078763 451.297203 
L 87.531537 453.535924 
L 89.366165 455.152198 
L 89.588064 455.4085 
L 89.897137 455.48696 
L 90.289423 456.010025 
L 90.642084 456.726625 
L 90.883795 456.76324 
L 92.472749 457.694297 
L 92.837297 457.971522 
L 93.439594 458.039521 
L 93.633755 457.934907 
L 97.358486 452.364257 
L 98.242118 451.375663 
L 99.201038 449.884926 
L 100.702818 447.729895 
L 101.24964 447.264366 
L 102.957469 444.649037 
L 103.456741 442.750309 
L 103.702415 441.824482 
L 103.928276 441.264802 
L 104.280937 439.925754 
L 104.423586 439.65899 
L 104.328486 439.09931 
L 104.352261 438.618089 
L 104.471136 437.959027 
L 105.196269 436.065529 
L 105.683654 433.894806 
L 106.068015 432.791137 
L 106.321613 432.424991 
L 107.181471 430.249037 
L 107.950192 429.07737 
L 108.853638 427.560479 
L 110.664491 424.437777 
L 110.882427 424.259935 
L 111.441136 423.083037 
L 111.706623 422.622739 
L 111.682848 422.465819 
L 112.047396 421.524301 
L 113.759187 418.956048 
L 114.349596 417.826226 
L 114.56357 417.418235 
L 114.880568 417.214239 
L 116.275361 415.15336 
L 117.693928 412.501417 
L 117.923752 411.784817 
L 120.245765 407.971667 
L 121.058073 406.664003 
L 123.51481 403.154232 
L 123.827846 402.892699 
L 125.698136 399.529386 
L 126.233071 398.556484 
L 126.787818 397.248819 
L 127.077079 397.018671 
L 127.203878 396.720523 
L 127.79825 396.239303 
L 128.808682 395.433781 
L 129.232668 394.779949 
L 129.977614 393.163676 
L 130.365937 392.844606 
L 130.793884 391.563095 
L 131.051446 390.516963 
L 131.324857 390.197893 
L 131.622043 389.047149 
L 131.721105 388.246858 
L 131.950928 387.514566 
L 131.911304 387.190265 
L 132.042065 386.939194 
L 132.252077 384.951544 
L 132.636437 383.57065 
L 133.068347 382.561133 
L 133.476483 381.698075 
L 133.738006 380.960552 
L 133.579507 380.207337 
L 133.706307 379.27628 
L 133.627057 378.695677 
L 133.734044 378.067999 
L 133.963868 375.980966 
L 133.714232 374.34377 
L 133.809331 373.757937 
L 133.444783 372.873956 
L 133.274396 370.04417 
L 133.623095 368.621431 
L 134.011418 367.758373 
L 136.028319 364.426444 
L 136.737603 363.024628 
L 136.92384 362.80494 
L 136.987239 362.506793 
L 137.629161 361.486814 
L 138.74658 359.473011 
L 138.845642 359.195786 
L 139.111128 358.923792 
L 139.503414 358.296113 
L 139.709462 358.071195 
L 139.990799 357.971813 
L 140.71197 357.161061 
L 140.692157 356.899528 
L 140.533658 356.622303 
L 140.577245 356.428769 
L 141.052743 355.958009 
L 141.936376 354.707882 
L 142.0394 354.101126 
L 141.793727 353.855285 
L 141.983926 353.264221 
L 142.558485 351.491028 
L 143.691754 350.183364 
L 145.633369 346.500981 
L 146.136604 345.737305 
L 146.78645 343.817653 
L 147.507621 342.985979 
L 148.331817 341.955539 
L 148.553716 341.767236 
L 148.732027 340.135271 
L 149.441311 339.277443 
L 149.853409 338.576535 
L 150.007946 337.812859 
L 150.499293 337.070105 
L 151.537463 335.207991 
L 151.573125 334.632619 
L 151.668224 333.994479 
L 151.735587 333.335416 
L 152.040698 332.943117 
L 152.833193 332.880349 
L 153.237366 332.053905 
L 153.217554 331.870832 
L 153.443415 330.965928 
L 153.475115 330.552706 
L 153.938725 329.815183 
L 155.313705 328.005376 
L 155.412767 327.419542 
L 155.852602 326.661097 
L 156.40735 325.928805 
L 156.542074 325.620196 
L 157.088896 325.044824 
L 157.290982 324.009154 
L 157.548543 323.606393 
L 157.972529 323.214094 
L 158.162728 322.858409 
L 159.363359 321.498438 
L 160.112267 319.965855 
L 160.678902 319.489866 
L 160.916651 319.176026 
L 160.960238 318.448965 
L 161.150437 317.685289 
L 161.297049 317.230222 
L 162.176719 316.18409 
L 162.469943 315.556411 
L 162.727504 314.855503 
L 163.615099 313.605376 
L 163.971722 313.035234 
L 163.773598 311.277733 
L 163.860773 311.005739 
L 164.102484 310.650054 
L 164.130221 310.409444 
L 165.24764 309.091319 
L 165.608226 308.008572 
L 165.814275 307.940574 
L 166.087686 307.616273 
L 167.110006 307.129822 
L 167.609278 306.455067 
L 168.009488 305.926771 
L 168.484986 305.325245 
L 170.371126 301.250563 
L 170.818886 300.152125 
L 171.266646 299.377988 
L 171.508357 298.985688 
L 171.761956 298.20632 
L 172.677289 296.21344 
L 173.097312 295.763603 
L 173.644134 294.560552 
L 174.698153 292.693207 
L 175.090439 292.217218 
L 175.36385 290.841555 
L 175.712548 290.527715 
L 175.938409 290.496331 
L 175.914634 290.705558 
L 175.981996 290.763095 
L 175.914634 290.946168 
L 176.497119 289.764039 
L 176.814117 289.350817 
L 176.877517 288.832982 
L 176.78638 288.560988 
L 177.257915 288.032692 
L 177.935499 287.248093 
L 178.169285 286.761642 
L 178.498171 286.181039 
L 179.278779 284.658918 
L 179.334254 284.308463 
L 179.579927 283.984163 
L 179.920701 283.837704 
L 182.199126 279.940865 
L 182.421025 279.674101 
L 183.748455 279.464875 
L 184.227915 278.612278 
L 184.822287 277.524301 
L 185.369109 277.011696 
L 186.435016 275.630803 
L 186.71239 275.400654 
L 186.958064 275.473883 
L 187.092788 275.714493 
L 187.667347 275.892336 
L 188.15077 275.756339 
L 188.317194 275.065892 
L 188.780804 274.380676 
L 189.137427 274.061606 
L 190.235034 273.397312 
L 189.842748 272.952706 
L 189.387063 272.696404 
L 188.404368 272.597021 
L 188.004158 272.602252 
L 187.492998 272.262259 
L 187.156188 271.749655 
L 187.481111 272.02688 
L 187.825846 271.849037 
L 188.654005 270.577988 
L 189.561412 268.339266 
L 190.072572 267.622666 
L 190.262771 266.953142 
L 190.698644 266.367308 
L 190.758081 265.990701 
L 190.504482 266.550381 
L 190.659019 266.518997 
L 190.817518 266.61838 
L 190.595619 266.550381 
L 189.933885 266.315002 
L 189.426688 265.786705 
L 188.115107 265.336869 
L 187.528661 264.86611 
L 187.338462 264.986415 
L 187.421674 265.247948 
L 187.06505 265.169488 
L 186.660878 264.714421 
L 186.114055 264.337813 
L 185.852532 264.039666 
L 185.531571 263.929822 
L 185.218535 263.218453 
L 184.69945 262.569851 
L 184.065454 262.454777 
L 183.637506 262.16186 
L 182.567637 261.774791 
L 181.315493 260.859426 
L 180.99057 260.739121 
L 179.409541 260.57174 
L 178.117773 259.719143 
L 178.022673 259.452379 
L 178.157397 259.154232 
L 178.212872 258.986851 
L 178.343634 258.34348 
L 178.387221 257.898874 
L 178.514021 258.050563 
L 178.573458 258.045332 
L 178.521945 257.966873 
L 178.680445 257.605957 
L 178.755732 257.564112 
L 178.692332 257.532728 
L 177.677937 257.213658 
L 177.420376 257.318271 
L 176.715055 257.281656 
L 176.445606 257.140429 
L 176.24352 256.758591 
L 175.581786 256.476135 
L 174.90024 256.141373 
L 174.555504 255.979223 
L 174.567391 254.645405 
L 169.943178 252.213149 
L 169.317106 251.915002 
L 167.898539 251.282092 
L 166.618658 250.78518 
L 166.182786 250.366727 
L 166.004474 250.063349 
L 166.194673 249.231675 
L 166.947544 246.982492 
L 167.351717 246.65296 
L 167.783627 245.873592 
L 167.894576 245.397603 
L 168.274974 245.020995 
L 168.722735 244.194551 
L 169.023883 244.074246 
L 169.14672 243.859789 
L 169.309182 243.368108 
L 169.479568 243.242572 
L 169.65788 242.928732 
L 169.606367 242.698583 
L 170.49 241.736142 
L 171.108147 241.417072 
L 170.93776 241.254922 
L 170.676237 241.31769 
L 170.680199 241.31769 
L 170.929835 240.501707 
L 170.965498 241.040465 
L 171.056635 240.92539 
L 171.262684 240.637704 
L 171.41722 240.768471 
L 171.785731 240.705703 
L 171.714406 240.742317 
L 171.294384 241.07708 
L 171.698556 240.873084 
L 172.598039 240.402325 
L 173.390535 239.921104 
L 173.33506 239.638649 
L 173.35091 239.146967 
L 173.299398 238.958663 
L 173.422235 238.006684 
L 173.101274 238.461751 
L 172.990325 238.226371 
L 172.87145 238.304831 
L 172.776351 238.817436 
L 172.867488 239.56542 
L 172.708989 239.863567 
L 172.752576 241.678605 
L 172.609927 241.856448 
L 172.582189 242.421359 
L 172.217641 243.038576 
L 172.372178 243.86502 
L 177.166778 228.659499 
L 178.553645 226.399855 
L 178.862719 225.102652 
L 180.03165 222.999927 
L 180.423935 222.78547 
L 180.966795 221.875336 
L 181.275868 220.279985 
L 180.744896 224.45405 
L 180.875658 224.208209 
L 181.172844 223.826371 
L 181.153032 223.125463 
L 181.810803 221.451653 
L 182.769723 220.096912 
L 183.209558 219.542463 
L 183.510707 218.951398 
L 183.657318 218.653251 
L 183.558256 217.957574 
L 183.696943 217.434508 
L 185.313635 214.400726 
L 185.793095 213.966582 
L 186.16953 213.239521 
L 186.26463 212.810607 
L 186.502378 212.256157 
L 186.534078 211.738322 
L 186.692577 211.105412 
L 186.605403 210.676498 
L 186.75994 210.456811 
L 186.779752 209.452525 
L 186.284442 207.056883 
L 185.464209 207.004577 
L 184.937199 206.999346 
L 185.095698 206.240901 
L 184.968899 205.51907 
L 184.7153 205.252307 
L 184.671713 203.316963 
L 185.063999 202.757283 
L 187.322612 200.523792 
L 188.340969 198.67737 
L 188.745142 197.667853 
L 189.49405 195.88943 
L 190.631282 193.598402 
L 191.392078 192.196586 
L 192.037962 191.129531 
L 192.679883 190.16709 
L 194.466961 188.425282 
L 195.588343 187.724373 
L 196.630475 187.509916 
L 198.01338 187.651144 
L 200.668241 189.12619 
L 202.177946 189.68587 
L 203.588588 189.455721 
L 204.436559 188.995423 
L 206.029476 187.954522 
L 206.687247 187.326843 
L 207.824479 185.46996 
L 208.692262 183.39862 
L 209.512495 182.300182 
L 211.458072 180.683908 
L 212.107919 180.370069 
L 212.84494 179.972539 
L 213.728573 179.146095 
L 215.262052 177.331057 
L 215.840574 175.960625 
L 216.747982 173.711442 
L 217.057055 172.34101 
L 217.100642 171.451798 
L 216.851006 170.505049 
L 216.110022 168.878315 
L 215.745474 168.057101 
L 215.654337 167.068507 
L 215.737549 166.147911 
L 215.983223 165.269161 
L 216.482496 164.432256 
L 217.572177 162.883981 
L 218.103149 162.015692 
L 219.44643 160.823102 
L 220.722348 160.064657 
L 221.562394 159.572975 
L 222.24394 158.981911 
L 222.897749 157.831166 
L 223.040398 157.009953 
L 223.262297 154.478315 
L 223.563446 153.358954 
L 223.951769 152.417436 
L 224.189517 151.366073 
L 224.502553 150.680857 
L 225.786396 145.900036 
L 226.123207 145.277588 
L 227.735936 142.301344 
L 229.102992 140.821068 
L 230.295698 139.633709 
L 230.775158 138.964185 
L 231.29028 138.36789 
L 232.324487 136.589466 
L 233.616255 133.696912 
L 234.028353 132.744933 
L 234.733674 131.547112 
L 235.442958 130.265601 
L 236.726801 128.617944 
L 237.642134 127.958881 
L 238.32368 127.571813 
L 239.120139 127.252742 
L 241.953311 126.363531 
L 243.153942 126.499528 
L 244.247587 126.672139 
L 245.09952 126.808137 
L 246.351663 126.91798 
L 247.520594 126.59891 
L 248.958974 125.762005 
L 249.414659 125.092481 
L 250.23093 123.816201 
L 251.447411 122.022085 
L 253.325626 118.606466 
L 253.781311 117.863712 
L 254.526258 116.404359 
L 256.039925 113.653033 
L 256.475797 112.905049 
L 257.050357 111.87461 
L 258.87706 108.490374 
L 262.011381 102.862187 
L 262.823689 101.366219 
L 263.184274 100.555467 
L 263.437873 99.70287 
L 263.786571 98.949655 
L 264.127344 93.222085 
L 264.598879 91.312895 
L 264.559255 89.858772 
L 264.297731 88.906793 
L 263.762796 87.61482 
L 262.736514 85.909626 
L 262.605752 85.041337 
L 262.720664 84.131202 
L 263.362586 82.242935 
L 264.452268 79.957138 
L 266.053109 77.519651 
L 266.825793 76.39506 
L 267.689613 75.448311 
L 268.553434 74.585252 
L 270.003701 73.089284 
L 271.576805 71.216709 
L 271.881916 70.086887 
L 271.980978 69.265674 
L 271.723417 65.405449 
L 271.949278 64.233781 
L 272.060228 63.475336 
L 272.773474 59.939412 
L 273.05481 59.264657 
L 273.835418 58.140065 
L 274.338653 57.596077 
L 274.750751 57.099165 
L 275.777033 56.393026 
L 277.782048 55.064439 
L 278.043571 54.729677 
L 278.32887 53.892772 
L 278.360569 53.019252 
L 277.924697 52.114348 
L 277.203526 51.481438 
L 276.759728 51.266981 
L 275.741371 51.151907 
L 275.230211 51.17806 
L 274.239591 51.544206 
L 273.276709 52.103887 
L 272.052303 53.071558 
L 271.521331 53.254631 
L 271.002246 53.296477 
L 269.924451 53.019252 
L 269.504429 52.710643 
L 269.231018 52.203269 
L 269.096293 51.674973 
L 269.227055 50.675917 
L 269.615378 49.833781 
L 270.435611 48.698729 
L 271.410381 47.584599 
L 272.630825 46.057247 
L 272.947823 45.60741 
L 274.520927 41.726262 
L 274.635839 40.266909 
L 274.608102 39.853687 
L 274.116754 38.614021 
L 273.284634 37.761424 
L 272.773474 37.118053 
L 271.660017 36.129459 
L 269.179505 34.39288 
L 267.646026 33.848892 
L 263.271449 32.938758 
L 262.066855 32.509844 
L 261.500221 32.415692 
L 260.913774 32.457537 
L 260.347139 32.630149 
L 258.821585 33.812278 
L 258.25495 34.821794 
L 258.116264 35.507011 
L 258.084564 37.008209 
L 258.460999 37.682964 
L 259.515019 38.551253 
L 260.18864 38.870323 
L 260.719612 39.205085 
L 261.16341 39.466618 
L 261.543808 39.581693 
L 261.951943 39.87461 
L 262.427441 40.151834 
L 263.168425 41.093353 
L 263.453723 41.893643 
L 263.521085 42.437632 
L 263.63996 42.950236 
L 263.63996 43.996368 
L 263.925258 44.990193 
L 264.559255 47.312604 
L 264.515667 48.170432 
L 264.250181 49.499019 
L 263.838084 50.294079 
L 261.694382 52.794333 
L 260.889999 53.286015 
L 258.155888 54.27461 
L 257.288106 54.771522 
L 256.51146 55.399201 
L 255.865576 56.225645 
L 255.453478 57.083473 
L 255.401965 57.585616 
L 254.645132 59.180966 
L 253.828861 60.195714 
L 253.15524 60.598474 
L 251.811959 61.04308 
L 249.834682 61.811987 
L 249.557309 61.99506 
L 248.859912 62.199056 
L 248.004017 62.706429 
L 245.895978 64.971304 
L 245.412556 65.771595 
L 244.15645 68.078315 
L 243.740389 68.862913 
L 243.395654 69.569052 
L 242.852794 70.698874 
L 242.60712 71.347475 
L 242.373334 71.907156 
L 241.814625 73.178206 
L 240.740793 74.946168 
L 238.925977 76.578133 
L 237.45986 77.237196 
L 236.203754 78.586705 
L 235.652969 79.617145 
L 235.363709 80.846349 
L 235.308234 81.583872 
L 235.423146 83.534907 
L 235.383521 85.266255 
L 234.943686 86.312386 
L 234.634612 86.919143 
L 233.632105 88.054195 
L 233.006033 88.477879 
L 229.828125 89.796004 
L 227.767636 90.920596 
L 227.208926 91.286742 
L 226.733429 91.574428 
L 225.667522 92.751326 
L 223.535708 95.617726 
L 223.147385 96.642935 
L 222.418289 98.165056 
L 222.216203 99.211188 
L 222.097328 100.759462 
L 222.208278 102.239738 
L 223.365322 106.675336 
L 223.658545 107.711006 
L 223.559483 110.174646 
L 223.301922 110.84417 
L 222.683775 111.9583 
L 221.740705 113.642572 
L 220.726311 115.065311 
L 218.348823 117.147112 
L 216.220972 118.711079 
L 215.388851 119.75198 
L 215.170915 119.683981 
L 215.127328 119.459063 
L 215.662262 118.31878 
L 216.05851 116.843734 
L 216.181347 115.243153 
L 216.07436 113.836106 
L 214.905429 111.613077 
L 214.176333 111.027243 
L 209.976105 108.93498 
L 209.120209 108.364838 
L 208.878498 108.176535 
L 208.208839 107.941155 
L 206.457423 106.649183 
L 199.943108 103.44802 
L 199.705359 103.395714 
L 198.960413 102.830803 
L 198.52454 102.496041 
L 197.577508 101.748057 
L 196.361027 101.120378 
L 195.687405 100.733309 
L 195.104921 100.633927 
L 194.585836 100.252089 
L 194.161851 99.938249 
L 193.646728 99.488413 
L 193.016694 99.143189 
L 191.277166 98.212132 
L 191.047342 97.861678 
L 190.93243 97.767526 
L 191.086967 97.495532 
L 191.217729 97.265383 
L 191.075079 96.941082 
L 190.968092 97.019542 
L 190.837331 96.99862 
L 190.93243 96.726625 
L 191.138479 96.543552 
L 191.300941 96.025717 
L 192.335148 95.220196 
L 192.826495 95.016201 
L 193.76164 95.277733 
L 193.880515 95.581112 
L 194.744335 96.397094 
L 195.63193 96.622012 
L 197.137672 97.437995 
L 198.12433 98.023829 
L 199.550822 98.855503 
L 199.737059 99.06996 
L 201.773773 99.953941 
L 202.403807 100.142245 
L 203.029879 100.790846 
L 202.835717 102.208355 
L 201.96001 103.861242 
L 202.007559 104.305848 
L 202.32852 104.734762 
L 202.625706 105.100908 
L 203.22404 105.27352 
L 203.453864 105.67628 
L 205.050743 106.398111 
L 205.193392 106.209807 
L 205.193392 106.209807 
" style="fill:none;stroke:#000000;stroke-width:3;"/>
   </g>
  </g>
 </g>
 <defs>
  <clipPath id="p5fec752af9">
   <rect height="554.4" width="284.106187" x="7.2" y="7.2"/>
  </clipPath>
 </defs>
</svg>
