<?xml version="1.0" encoding="utf-8" standalone="no"?>
<!DOCTYPE svg PUBLIC "-//W3C//DTD SVG 1.1//EN"
  "http://www.w3.org/Graphics/SVG/1.1/DTD/svg11.dtd">
<svg height="245.185335pt" version="1.1" viewBox="0 0 572.4 245.185335" width="572.4pt" xmlns="http://www.w3.org/2000/svg" xmlns:xlink="http://www.w3.org/1999/xlink">
 <metadata>
  <rdf:RDF xmlns:cc="http://creativecommons.org/ns#" xmlns:dc="http://purl.org/dc/elements/1.1/" xmlns:rdf="http://www.w3.org/1999/02/22-rdf-syntax-ns#">
   <cc:Work>
    <dc:type rdf:resource="http://purl.org/dc/dcmitype/StillImage"/>
    <dc:date>2021-05-26T19:20:28.553157</dc:date>
    <dc:format>image/svg+xml</dc:format>
    <dc:creator>
     <cc:Agent>
      <dc:title>Matplotlib v3.4.2, https://matplotlib.org/</dc:title>
     </cc:Agent>
    </dc:creator>
   </cc:Work>
  </rdf:RDF>
 </metadata>
 <defs>
  <style type="text/css">*{stroke-linecap:butt;stroke-linejoin:round;}</style>
 </defs>
 <g id="figure_1">
  <g id="patch_1">
   <path d="M 0 245.185335 
L 572.4 245.185335 
L 572.4 -0 
L 0 -0 
z
" style="fill:none;"/>
  </g>
  <g id="axes_1">
   <g id="LineCollection_1">
    <path clip-path="url(#p91df8f175a)" d="M 35.205814 182.351063 
L 49.534547 178.634115 
L 62.21192 161.603732 
L 84.16232 159.407353 
L 104.359736 155.082177 
L 122.829575 140.822611 
L 141.680497 129.367651 
L 156.618964 111.019441 
L 153.621108 88.109522 
L 163.50387 69.997846 
L 185.073186 68.646228 
L 203.238158 57.258849 
L 216.474453 40.938066 
L 237.510253 36.883213 
L 256.716853 28.266651 
L 274.831014 20.630011 
L 296.222492 22.353323 
L 315.962608 24.009055 
L 336.769758 25.698577 
L 356.255819 36.815632 
L 372.261319 50.804875 
L 391.798192 53.609482 
L 409.759919 45.533566 
L 425.028658 31.172629 
L 444.616342 23.806312 
L 466.338091 17.960566 
L 488.542547 17.690243 
L 509.400508 31.240209 
L 528.581703 44.756386 
L 539.836364 63.104596 
L 539.252036 85.744191 
L 532.722808 106.221199 
L 528.378458 129.063537 
L 524.82168 151.432809 
L 515.091353 170.727151 
L 513.185936 191.778596 
L 508.333475 212.796251 
L 490.879858 227.495093 
L 468.091075 226.650332 
L 447.436358 218.675787 
L 428.407597 215.398115 
L 428.763275 194.008765 
L 425.460553 173.70071 
L 405.974492 163.462206 
L 383.414358 158.427431 
L 362.810453 150.858372 
L 341.850869 140.417125 
L 323.508058 146.1615 
L 309.077703 123.386743 
L 295.739786 108.181044 
L 276.990486 98.956254 
L 257.809292 90.711386 
L 249.577892 72.498338 
L 247.494636 51.007618 
L 236.722681 37.863136 
L 216.423642 40.633952 
L 203.593836 57.799496 
L 190.433758 71.180511 
L 171.404997 66.314688 
L 154.230842 75.978754 
L 156.822208 97.199151 
L 152.833536 122.37303 
L 131.340436 130.753059 
L 118.129547 148.121346 
L 101.717559 162.076798 
L 79.563914 160.015581 
L 60.179475 167.888754 
L 47.705347 184.41228 
L 33.40202 183.195824 
L 32.563636 181.776626 
" style="fill:none;stroke:#000000;stroke-width:3;"/>
   </g>
  </g>
 </g>
 <defs>
  <clipPath id="p91df8f175a">
   <rect height="230.785335" width="558" x="7.2" y="7.2"/>
  </clipPath>
 </defs>
</svg>
