<?xml version="1.0" encoding="utf-8" standalone="no"?>
<!DOCTYPE svg PUBLIC "-//W3C//DTD SVG 1.1//EN"
  "http://www.w3.org/Graphics/SVG/1.1/DTD/svg11.dtd">
<svg height="568.8pt" version="1.1" viewBox="0 0 296.580082 568.8" width="296.580082pt" xmlns="http://www.w3.org/2000/svg" xmlns:xlink="http://www.w3.org/1999/xlink">
 <metadata>
  <rdf:RDF xmlns:cc="http://creativecommons.org/ns#" xmlns:dc="http://purl.org/dc/elements/1.1/" xmlns:rdf="http://www.w3.org/1999/02/22-rdf-syntax-ns#">
   <cc:Work>
    <dc:type rdf:resource="http://purl.org/dc/dcmitype/StillImage"/>
    <dc:date>2021-10-16T02:05:24.125790</dc:date>
    <dc:format>image/svg+xml</dc:format>
    <dc:creator>
     <cc:Agent>
      <dc:title>Matplotlib v3.4.3, https://matplotlib.org/</dc:title>
     </cc:Agent>
    </dc:creator>
   </cc:Work>
  </rdf:RDF>
 </metadata>
 <defs>
  <style type="text/css">*{stroke-linecap:butt;stroke-linejoin:round;}</style>
 </defs>
 <g id="figure_1">
  <g id="patch_1">
   <path d="M -0 568.8 
L 296.580082 568.8 
L 296.580082 0 
L -0 0 
z
" style="fill:#ffffff;"/>
  </g>
  <g id="axes_1">
   <g id="LineCollection_1">
    <path clip-path="url(#pcf3b657b2e)" d="M 140.953941 170.487131 
L 140.725149 170.321454 
L 140.658725 170.428657 
L 141.7215 170.6723 
L 145.042673 171.890515 
L 145.994742 172.124413 
L 146.34162 172.397293 
L 146.843486 172.416784 
L 147.227266 172.826105 
L 147.736512 173.176951 
L 147.869359 173.673982 
L 148.253139 173.742202 
L 148.540974 174.239234 
L 150.053953 175.652364 
L 150.828893 175.213806 
L 151.648115 175.652364 
L 152.341871 176.159141 
L 153.448929 176.266344 
L 153.832709 177.357865 
L 154.386237 177.698965 
L 154.452661 178.3032 
L 154.607649 178.537098 
L 154.858582 178.429895 
L 155.271883 178.195997 
L 155.264503 177.884134 
L 155.426871 177.591763 
L 156.246094 176.724393 
L 158.076429 173.254916 
L 158.054288 172.738393 
L 158.48973 172.56297 
L 158.910412 172.572716 
L 160.79241 173.77144 
L 162.34229 174.434149 
L 163.191034 174.59008 
L 164.002876 174.892198 
L 164.777816 175.048129 
L 165.737266 175.437958 
L 167.833295 175.915498 
L 168.541812 176.27609 
L 169.27985 176.519733 
L 171.338977 177.913371 
L 173.220974 179.151078 
L 175.176776 180.320565 
L 175.804108 180.817596 
L 176.298594 181.012511 
L 177.021872 181.694711 
L 179.826417 183.458687 
L 180.534934 183.858262 
L 182.58668 184.569699 
L 183.7454 185.105714 
L 187.236321 186.333675 
L 193.317757 189.042986 
L 193.863905 189.30612 
L 195.148092 190.124761 
L 197.118654 191.489162 
L 198.934228 193.194663 
L 199.34753 193.886609 
L 201.502602 201.965813 
L 202.129934 203.651822 
L 203.760999 205.883593 
L 204.462135 206.478082 
L 205.015664 207.179774 
L 206.366274 209.616204 
L 208.100664 210.356879 
L 209.133917 211.7895 
L 211.023295 214.791182 
L 211.554683 215.414909 
L 213.842602 217.558967 
L 215.857446 219.897941 
L 216.027195 220.531413 
L 216.041956 221.223359 
L 215.052984 223.357672 
L 214.337087 224.712327 
L 213.584288 226.09622 
L 213.052901 227.694518 
L 212.64698 228.201296 
L 208.750138 235.61779 
L 206.727913 239.019047 
L 206.344133 239.574553 
L 204.403092 243.297419 
L 204.011932 243.950382 
L 203.340317 245.421986 
L 202.277542 247.546553 
L 201.842099 248.131297 
L 201.517362 248.78426 
L 201.067159 250.704167 
L 200.639097 251.405859 
L 200.535771 251.327893 
L 200.491489 251.308402 
L 200.092948 251.474079 
L 199.605843 251.805434 
L 199.642745 251.668994 
L 199.716549 251.483825 
L 199.044934 251.776196 
L 198.838283 252.185517 
L 198.919468 252.711786 
L 198.786621 253.277038 
L 198.218331 254.358813 
L 197.251501 255.674485 
L 196.978427 256.268974 
L 196.395377 256.970666 
L 195.804946 258.296084 
L 195.280939 259.017268 
L 193.007781 263.539283 
L 192.60924 264.085043 
L 191.871202 265.771053 
L 187.059192 274.873557 
L 186.579467 275.4583 
L 186.276872 276.364652 
L 185.155054 278.411254 
L 184.572003 279.181166 
L 183.804443 280.750227 
L 181.501764 284.960379 
L 180.682541 286.266306 
L 179.147422 289.345954 
L 178.675077 289.96968 
L 178.283917 290.798066 
L 177.361369 292.152722 
L 177.080915 292.903142 
L 174.150903 297.892952 
L 173.767123 298.438712 
L 173.13241 299.890825 
L 172.674826 300.485314 
L 170.556656 304.9586 
L 169.825998 306.400967 
L 169.250328 307.853079 
L 168.438486 309.090786 
L 167.050974 310.776796 
L 166.460544 311.965774 
L 166.157948 312.492043 
L 165.62656 313.953901 
L 164.128343 316.312366 
L 163.670759 316.877618 
L 163.323881 317.706004 
L 162.497278 319.050914 
L 158.858749 326.126308 
L 158.67424 326.711051 
L 156.998893 328.962313 
L 156.991513 329.878411 
L 156.3568 331.22332 
L 152.341871 338.230494 
L 150.223701 341.573277 
L 149.064981 343.63937 
L 147.655328 346.699526 
L 146.577792 348.190622 
L 146.053785 349.048245 
L 145.670005 349.935106 
L 144.312015 352.22535 
L 142.961405 354.700764 
L 142.629287 355.626607 
L 139.123606 362.214715 
L 137.300651 364.836314 
L 137.167804 365.382075 
L 136.924252 365.654955 
L 136.606895 365.830378 
L 135.846716 367.321473 
L 135.529359 367.691811 
L 135.307948 368.305791 
L 135.027493 368.510452 
L 134.215651 369.299855 
L 133.662122 371.005356 
L 131.750603 374.23119 
L 131.042086 375.732031 
L 130.304048 377.19389 
L 129.713617 377.905327 
L 129.160089 379.133288 
L 128.42205 380.283283 
L 127.713534 381.11167 
L 127.573306 381.394296 
L 127.329754 381.52099 
L 125.669168 384.405724 
L 125.211584 385.614193 
L 125.041835 386.296394 
L 125.218964 386.968848 
L 125.049215 387.32944 
L 124.761381 388.274775 
L 124.222613 387.748506 
L 124.325938 387.767998 
L 124.325938 387.582829 
L 124.576871 387.67054 
L 124.266895 387.845963 
L 123.824072 388.33325 
L 123.41077 388.60613 
L 122.960567 389.337059 
L 121.713282 392.855264 
L 121.004766 393.264585 
L 119.491787 395.174746 
L 119.115388 395.973895 
L 119.085866 396.938722 
L 118.635663 398.361597 
L 118.170699 399.833201 
L 118.369969 400.544639 
L 118.421632 401.256077 
L 118.111656 401.4315 
L 117.543366 401.56794 
L 116.879132 402.347597 
L 116.606057 403.000561 
L 116.583916 403.702253 
L 116.052529 406.03148 
L 115.838498 406.859867 
L 115.499 407.600541 
L 114.945471 408.282742 
L 114.303378 408.721299 
L 113.831034 409.315788 
L 113.550579 409.861549 
L 113.18894 411.313661 
L 112.583749 413.370009 
L 111.64644 414.364072 
L 110.591045 415.192459 
L 109.90467 416.128048 
L 109.646356 416.712791 
L 109.395423 416.995417 
L 109.210914 417.531432 
L 109.225675 417.872532 
L 109.048545 418.330581 
L 108.893557 418.739901 
L 108.723809 420.006845 
L 108.406452 420.455148 
L 107.941488 420.757266 
L 107.520806 421.342009 
L 106.974658 422.70641 
L 106.62778 423.310645 
L 105.446919 424.139031 
L 104.007744 426.136904 
L 103.793713 426.711902 
L 103.417313 427.140714 
L 103.085196 427.715711 
L 102.908067 428.436895 
L 101.579598 431.077985 
L 101.380328 431.652983 
L 101.085112 432.052557 
L 100.133043 432.763995 
L 99.719742 433.222044 
L 99.025986 434.430513 
L 98.450316 435.005511 
L 98.214143 435.609746 
L 98.162481 436.174998 
L 97.970591 436.866944 
L 97.985352 437.792787 
L 97.535148 438.523717 
L 97.837744 437.880499 
L 97.535148 437.724567 
L 97.335878 437.724567 
L 97.262074 438.075413 
L 96.929957 438.397022 
L 95.4465 441.427942 
L 94.937253 443.269883 
L 94.132792 444.332167 
L 93.697349 445.219027 
L 92.486966 446.39826 
L 92.117947 447.782152 
L 91.867014 448.405878 
L 91.438952 449.166045 
L 89.549574 451.621967 
L 89.106751 452.352896 
L 88.523701 452.927893 
L 87.785662 454.136363 
L 87.217373 454.57492 
L 86.752409 455.325341 
L 86.553138 455.939321 
L 86.213641 456.553302 
L 85.674873 457.001605 
L 85.22467 458.580412 
L 84.914693 459.330832 
L 84.538294 460.909639 
L 83.88882 462.079126 
L 83.719071 462.995224 
L 82.597253 464.02827 
L 82.235615 464.632505 
L 81.696847 466.104109 
L 80.79644 468.891385 
L 79.770567 470.129092 
L 79.630339 470.713835 
L 79.25394 471.337562 
L 79.217038 472.000271 
L 78.796356 472.994334 
L 76.36083 476.268897 
L 75.01022 478.841767 
L 74.552636 480.371846 
L 73.792457 481.97989 
L 69.688964 488.109949 
L 68.205507 490.146805 
L 67.637217 490.760785 
L 67.231296 491.404003 
L 66.972983 492.154423 
L 66.286607 493.333656 
L 65.644514 494.532379 
L 65.150028 495.00992 
L 64.448892 496.276864 
L 63.910124 497.563299 
L 63.578007 498.050585 
L 62.891631 498.537871 
L 62.655459 499.317529 
L 62.958054 499.551426 
L 62.633318 499.327274 
L 62.736643 499.317529 
L 62.780925 499.20058 
L 62.854729 499.307783 
L 62.817827 499.47346 
L 62.618557 499.444223 
L 62.67022 499.697612 
L 62.367624 500.048458 
L 62.020746 500.262864 
L 61.747672 500.68193 
L 61.71815 501.29591 
L 60.736559 504.424287 
L 60.035423 505.223436 
L 59.577839 505.934874 
L 58.950507 506.28572 
L 58.500303 507.523426 
L 57.998437 508.24461 
L 57.038987 510.895446 
L 56.478078 511.421715 
L 56.249286 511.860273 
L 55.599813 512.474253 
L 55.186511 513.146708 
L 54.219681 515.436953 
L 53.658772 516.021696 
L 52.787887 518.448381 
L 52.212217 518.955158 
L 51.208485 520.407271 
L 50.418784 521.781417 
L 49.975961 522.385652 
L 49.400291 522.863192 
L 49.237923 523.36997 
L 48.832002 523.77929 
L 48.558928 524.91954 
L 48.271093 525.73818 
L 47.791368 526.293687 
L 47.149274 527.550885 
L 46.344813 527.969951 
L 45.857707 528.350034 
L 45.7101 528.827574 
L 45.370602 528.730117 
L 44.853975 529.236895 
L 44.809693 529.919095 
L 44.285686 530.533076 
L 44.034753 531.20553 
L 43.865004 532.004679 
L 42.853892 533.973315 
L 42.418449 535.308479 
L 42.492253 536.088137 
L 42.285602 536.4 
L 41.776356 536.185594 
L 40.625016 535.600851 
L 40.167432 535.639834 
L 39.768892 535.776274 
L 39.318688 535.571614 
L 38.853724 534.606787 
L 37.156236 533.866112 
L 36.307492 533.203403 
L 35.370183 532.219085 
L 34.270506 530.133501 
L 33.362719 528.642405 
L 32.942037 527.385207 
L 32.617301 526.87843 
L 30.87553 525.8064 
L 28.890207 524.958523 
L 28.070985 524.978014 
L 27.40675 524.617422 
L 26.941786 523.84751 
L 24.284848 523.048361 
L 23.030183 523.136073 
L 21.42126 522.863192 
L 20.816068 523.067853 
L 20.026367 523.067853 
L 20.166595 523.155564 
L 20.432288 523.155564 
L 21.591009 520.982268 
L 21.893604 519.890747 
L 22.18882 519.24753 
L 22.543078 519.023378 
L 22.528317 518.458126 
L 22.491415 518.214483 
L 21.753377 518.331432 
L 21.487683 518.321686 
L 21.598389 517.863637 
L 24.011774 514.628058 
L 24.255327 513.926366 
L 24.823616 513.487808 
L 25.185255 512.766625 
L 25.938054 511.54841 
L 27.126296 509.511554 
L 28.661415 507.474698 
L 29.214944 506.295466 
L 29.70943 505.603519 
L 29.938222 504.882336 
L 30.381045 504.482761 
L 31.84236 501.948874 
L 32.720626 501.081504 
L 33.19297 500.720913 
L 33.207731 500.048458 
L 34.905219 497.602282 
L 35.31114 496.413304 
L 35.584214 495.955255 
L 36.137743 495.672629 
L 36.993868 494.795514 
L 37.016009 494.045093 
L 37.731906 492.04722 
L 38.174729 491.43324 
L 40.255997 486.784531 
L 40.647157 486.121822 
L 40.934992 485.322672 
L 41.540183 484.679455 
L 42.315124 483.315054 
L 43.031021 482.018873 
L 43.643593 480.479049 
L 43.97571 479.826085 
L 45.090148 478.939225 
L 45.466547 477.331181 
L 49.643844 469.251977 
L 50.079286 468.628251 
L 50.381882 467.068936 
L 50.809944 466.513429 
L 51.282289 466.084618 
L 51.636547 465.412163 
L 52.625518 462.683361 
L 53.090483 462.108363 
L 53.363557 460.373625 
L 54.20492 459.096935 
L 54.758449 458.56092 
L 55.444825 458.249057 
L 55.74004 457.654568 
L 56.168102 457.216011 
L 57.046368 455.549492 
L 57.85083 454.5067 
L 58.987408 453.707551 
L 59.659023 452.840182 
L 60.190411 451.300358 
L 60.544669 450.910529 
L 60.574191 450.939766 
L 60.485626 451.076206 
L 60.249454 451.017732 
L 60.330638 451.163918 
L 60.286356 451.310103 
L 60.36754 451.329595 
L 60.397062 451.397815 
L 60.441344 451.222392 
L 60.478246 450.79358 
L 61.33437 448.454607 
L 61.777193 447.801644 
L 62.603796 445.628348 
L 63.777277 443.260137 
L 66.397313 441.554636 
L 66.360411 440.375404 
L 66.603964 438.387276 
L 67.009885 437.55889 
L 67.541272 436.954655 
L 67.784825 436.106778 
L 69.268282 434.98602 
L 70.183449 432.734758 
L 70.360578 431.906371 
L 71.755471 429.820787 
L 71.873557 428.963163 
L 72.862528 427.618254 
L 73.489861 426.107667 
L 74.109813 425.503432 
L 74.508354 424.908943 
L 75.334957 422.823359 
L 76.250124 421.790312 
L 76.442014 421.08862 
L 77.357181 419.373373 
L 77.755722 418.739901 
L 78.316631 418.096684 
L 78.508521 417.297535 
L 79.541775 415.845422 
L 80.383138 414.481021 
L 80.907146 413.789075 
L 81.586141 412.317471 
L 82.014203 411.576796 
L 83.615746 409.705617 
L 84.014287 408.321725 
L 84.685902 407.766219 
L 84.936835 407.10351 
L 85.313234 406.499275 
L 86.080794 404.939959 
L 86.412911 404.199285 
L 86.597421 403.507338 
L 87.114048 402.795901 
L 87.394502 402.094209 
L 87.793043 401.450991 
L 89.003426 398.692952 
L 89.534813 398.137446 
L 89.830028 397.611177 
L 91.136356 396.821773 
L 91.616081 396.37347 
L 91.771069 395.701015 
L 92.088426 395.106526 
L 92.295076 394.326868 
L 92.841225 393.790854 
L 93.180722 393.079416 
L 94.125411 392.11459 
L 95.557206 391.31544 
L 96.22144 390.915866 
L 96.044311 390.194682 
L 96.21406 389.385787 
L 96.184538 388.615875 
L 97.011141 386.57902 
L 99.350722 384.405724 
L 99.49095 383.801489 
L 100.339694 382.739205 
L 100.406117 382.06675 
L 101.778868 379.542609 
L 102.059323 378.967611 
L 102.081464 378.226936 
L 102.598091 376.579909 
L 102.908067 376.219317 
L 103.284466 375.995166 
L 103.963462 374.046021 
L 104.369383 372.6134 
L 105.240268 371.648574 
L 105.314072 371.317219 
L 105.114801 370.703239 
L 104.996715 370.800696 
L 103.867517 370.479087 
L 103.860136 370.615527 
L 103.852756 370.235444 
L 104.472708 369.046466 
L 104.945053 368.451977 
L 105.505962 367.136305 
L 106.362086 365.771904 
L 106.82705 365.274872 
L 107.956249 362.624036 
L 108.074335 361.590989 
L 108.007911 361.181669 
L 108.052194 360.684637 
L 107.948868 360.138877 
L 107.638892 359.612608 
L 105.719993 357.848632 
L 105.328832 357.663463 
L 105.166464 357.254143 
L 104.450567 356.425757 
L 104.531751 356.493977 
L 104.494849 356.269825 
L 103.808474 356.786348 
L 103.54278 357.039737 
L 104.066787 357.176177 
L 103.291847 356.377028 
L 102.686655 355.470676 
L 101.712445 353.794412 
L 101.505794 353.112211 
L 101.269622 351.903742 
L 101.513175 351.241033 
L 102.317636 349.769429 
L 103.668246 348.161385 
L 105.09266 347.147829 
L 106.915615 345.130465 
L 107.816022 343.756318 
L 108.509777 342.313951 
L 109.432325 339.974978 
L 110.908402 335.881775 
L 114.369801 329.342396 
L 115.181644 327.870792 
L 117.329335 325.083515 
L 119.713199 322.812762 
L 120.975244 321.857682 
L 121.735424 321.545818 
L 124.023342 321.019549 
L 125.610125 321.000058 
L 128.429431 321.594547 
L 130.274527 322.734796 
L 130.828055 323.192845 
L 132.865041 324.255129 
L 133.462852 324.518264 
L 136.009084 324.93733 
L 136.865208 324.800889 
L 138.090352 324.352586 
L 140.658725 322.754288 
L 142.48906 321.370395 
L 143.603498 320.230146 
L 145.426453 316.809398 
L 146.179252 314.441187 
L 146.422804 313.758987 
L 147.264168 312.365349 
L 149.434 310.006884 
L 151.146249 308.788669 
L 151.685017 308.359857 
L 153.980316 307.112405 
L 155.198079 306.430204 
L 156.843905 304.968346 
L 158.917792 302.112849 
L 159.397517 301.45014 
L 160.327446 299.42303 
L 160.504575 298.750575 
L 161.102386 297.454394 
L 162.246345 293.61458 
L 162.423474 291.070947 
L 162.320149 290.135357 
L 161.803522 288.429856 
L 160.962158 286.782829 
L 160.430771 286.061646 
L 160.03223 285.155293 
L 159.589407 283.342589 
L 159.714874 281.471411 
L 160.128175 279.726926 
L 160.777649 278.138374 
L 161.744479 276.686261 
L 162.851537 275.370589 
L 164.298092 273.353224 
L 165.42729 272.144755 
L 166.091525 271.628232 
L 166.822182 271.228657 
L 168.180173 270.351542 
L 170.955197 268.83121 
L 173.080747 266.979522 
L 173.398104 266.404525 
L 173.619515 265.702833 
L 173.70808 262.467253 
L 173.361202 260.527855 
L 173.383343 259.299894 
L 174.187805 256.532109 
L 174.733953 255.440588 
L 175.892673 250.889336 
L 175.936955 250.392304 
L 177.324467 245.996983 
L 177.708247 244.944446 
L 178.173211 243.901653 
L 179.280269 241.69912 
L 180.896573 238.3271 
L 182.276704 236.407193 
L 185.420747 233.239834 
L 187.531537 231.086029 
L 187.900556 230.49154 
L 189.317589 228.698327 
L 190.505831 226.758929 
L 191.302912 224.916987 
L 192.03357 223.006826 
L 193.428463 219.322943 
L 194.963582 216.457701 
L 197.406489 212.793309 
L 198.20357 211.906449 
L 199.901058 210.473828 
L 202.661322 209.011969 
L 204.772111 208.095872 
L 206.358893 207.589094 
L 207.820209 207.072571 
L 208.521346 206.897148 
L 211.038056 207.150537 
L 216.13052 208.21282 
L 217.65826 208.183583 
L 219.820712 207.53062 
L 221.208224 206.838673 
L 222.315281 205.815373 
L 222.67692 205.259867 
L 223.25997 204.684869 
L 224.071812 203.281485 
L 224.80247 201.848864 
L 226.322829 199.207773 
L 227.127291 197.814135 
L 230.839623 191.021367 
L 232.684719 187.659093 
L 233.127542 187.064604 
L 234.847171 183.643856 
L 235.563068 182.347675 
L 236.957961 179.755313 
L 239.762506 174.668046 
L 240.773619 172.679919 
L 241.976621 170.682046 
L 242.906549 169.385865 
L 243.600305 167.982481 
L 246.316286 163.031654 
L 246.95838 161.608779 
L 248.582064 157.91515 
L 248.958463 157.252441 
L 249.297961 155.693126 
L 249.571035 150.771536 
L 249.445569 148.140191 
L 249.644839 145.489355 
L 250.04338 143.705888 
L 250.301693 142.819027 
L 250.43454 141.941912 
L 250.368116 139.261839 
L 249.585796 136.727951 
L 248.958463 135.334313 
L 247.629994 133.06356 
L 247.238834 132.293648 
L 246.995282 131.533482 
L 246.906717 130.753824 
L 246.995282 128.980102 
L 247.046944 128.102988 
L 247.504528 126.368249 
L 248.648487 123.756396 
L 249.585796 121.963183 
L 251.770389 118.405994 
L 253.371932 116.18397 
L 255.076801 113.981437 
L 256.855473 111.827632 
L 258.855557 109.966199 
L 261.379648 107.295872 
L 262.523607 105.950962 
L 263.490437 104.518341 
L 264.132531 102.978517 
L 264.280138 101.360727 
L 264.228475 99.762429 
L 263.896358 97.27727 
L 264.043966 94.080673 
L 265.025557 87.005279 
L 265.889062 83.272668 
L 266.501633 81.859538 
L 267.830102 79.861665 
L 269.564492 78.282858 
L 270.767495 77.318032 
L 272.103344 76.431171 
L 275.173583 74.686687 
L 275.815677 74.023978 
L 276.206837 73.205337 
L 276.479911 72.269748 
L 276.553715 71.343904 
L 276.398727 70.437552 
L 276.059229 69.560437 
L 275.601645 68.702813 
L 274.15509 67.562564 
L 273.210401 67.221464 
L 271.239839 67.182481 
L 270.258248 67.338412 
L 269.350461 67.699004 
L 267.623452 68.693068 
L 266.951837 69.307048 
L 265.446239 70.379078 
L 263.763511 71.42187 
L 261.881514 71.343904 
L 260.117602 70.408315 
L 258.92198 68.810016 
L 258.796514 66.968075 
L 259.069588 66.120197 
L 260.051179 64.521899 
L 261.268942 63.040549 
L 262.59003 61.76386 
L 266.272842 56.715576 
L 267.092064 55.078294 
L 267.39466 54.181688 
L 268.597662 51.891443 
L 268.900258 51.063057 
L 269.453787 48.587644 
L 269.52021 46.190196 
L 269.173332 44.630881 
L 268.885497 43.938935 
L 266.996119 41.346573 
L 259.955234 36.327526 
L 257.689456 35.401682 
L 255.741035 34.690245 
L 253.763093 34.202959 
L 249.401286 33.627961 
L 248.449217 33.306352 
L 247.93259 33.101692 
L 243.755293 32.4 
L 242.699899 32.858049 
L 241.733069 33.462284 
L 240.41936 34.63177 
L 239.769887 35.577105 
L 239.179456 36.59066 
L 238.928523 37.048709 
L 238.345473 39.319462 
L 238.367614 40.937252 
L 238.86948 42.340636 
L 240.065102 43.81224 
L 240.699815 44.367746 
L 241.098356 44.699101 
L 243.150102 45.478759 
L 244.626179 46.102485 
L 246.77387 47.008837 
L 247.526669 47.788495 
L 247.73332 48.168578 
L 248.109719 48.548661 
L 248.478738 49.542725 
L 248.877279 52.183815 
L 248.847758 53.187624 
L 248.928942 54.6105 
L 249.497231 56.374475 
L 250.331215 59.229972 
L 250.508344 59.951155 
L 250.582148 60.721067 
L 250.360736 63.284192 
L 250.124564 64.13207 
L 249.386526 65.798588 
L 248.434456 67.289684 
L 247.297877 68.537136 
L 246.818152 69.199845 
L 244.116932 71.119752 
L 242.574432 71.909156 
L 237.253176 73.799826 
L 235.799241 74.842618 
L 234.537195 76.392188 
L 233.717973 78.078198 
L 233.422757 78.906584 
L 232.832327 81.381997 
L 232.094289 82.999787 
L 231.009372 84.140037 
L 229.80637 85.06588 
L 228.500042 85.670115 
L 226.610664 86.284096 
L 224.130855 87.044262 
L 222.972135 87.473074 
L 221.370592 88.30146 
L 220.817063 88.564594 
L 219.21552 89.860775 
L 217.414707 91.712463 
L 216.617626 92.687035 
L 215.473666 94.285333 
L 214.824193 95.406091 
L 213.768798 97.082355 
L 211.584205 100.688272 
L 211.274228 101.770047 
L 210.942111 102.803094 
L 210.012183 105.229779 
L 209.045353 107.734429 
L 208.536106 108.631035 
L 207.857111 110.024674 
L 207.724264 110.51196 
L 207.310963 110.92128 
L 207.030508 111.379329 
L 206.624587 111.817886 
L 206.034157 112.841187 
L 205.207554 113.88398 
L 203.731477 115.316601 
L 202.639181 116.067021 
L 200.262697 117.314474 
L 199.716549 117.743285 
L 197.61314 120.37463 
L 197.399109 120.969119 
L 197.03747 121.505134 
L 196.45442 123.40555 
L 196.181346 125.29622 
L 196.292051 126.660621 
L 196.292051 131.299584 
L 195.930412 132.625002 
L 195.716381 133.229237 
L 194.697889 134.769061 
L 194.277207 135.149144 
L 193.443223 136.094479 
L 191.82692 137.059306 
L 190.372984 137.702523 
L 183.870867 140.850392 
L 180.151154 143.530465 
L 178.704599 145.089781 
L 178.158451 145.557575 
L 177.280185 146.834265 
L 176.246931 148.05248 
L 175.272721 149.377898 
L 173.951632 151.638906 
L 173.191453 153.38339 
L 172.726489 154.221522 
L 171.958929 156.833375 
L 171.700616 159.46472 
L 171.626812 161.238441 
L 172.054874 164.201141 
L 172.696967 166.374437 
L 172.874096 167.056637 
L 172.910998 167.748584 
L 174.077099 171.529924 
L 174.630628 173.235425 
L 174.733953 174.443894 
L 174.593726 175.973973 
L 174.054958 178.322692 
L 173.449766 180.047684 
L 172.962661 181.032002 
L 172.150819 182.766741 
L 171.4054 183.887499 
L 170.918295 184.413768 
L 169.47912 186.528589 
L 167.471656 188.62392 
L 165.264922 190.641284 
L 164.718773 190.845944 
L 162.940101 192.083651 
L 160.22412 194.091269 
L 159.537745 195.036604 
L 159.412278 195.465416 
L 159.161345 195.660331 
L 158.880891 195.601856 
L 158.87351 194.724741 
L 159.279431 193.594238 
L 159.707493 191.06035 
L 159.677972 190.709504 
L 159.936285 190.056541 
L 160.039611 188.750614 
L 160.231501 188.487479 
L 160.320065 187.55189 
L 160.201979 186.129015 
L 159.596788 183.799787 
L 159.087541 182.396403 
L 157.921441 180.612936 
L 156.105867 178.790486 
L 155.626142 178.351929 
L 154.984048 178.273963 
L 153.500591 177.640491 
L 151.146249 176.422276 
L 149.743977 175.476941 
L 146.068546 173.508305 
L 145.596201 173.060002 
L 144.452242 172.416784 
L 141.293438 170.360437 
L 138.570077 168.898579 
L 138.031309 168.84985 
L 136.474048 168.040955 
L 133.972098 166.6863 
L 131.89083 165.448593 
L 131.005184 164.756647 
L 128.850113 164.093938 
L 128.03089 163.411737 
L 125.824156 161.579542 
L 125.241105 161.413864 
L 124.879467 161.121493 
L 123.115555 160.244378 
L 122.606309 160.059209 
L 120.790735 158.91896 
L 118.731608 157.749473 
L 117.875483 157.106255 
L 117.336715 157.047781 
L 116.834849 156.745664 
L 115.676129 156.277869 
L 114.487888 155.7516 
L 113.506297 155.352026 
L 113.292266 154.728299 
L 113.395591 153.743981 
L 113.742469 153.071527 
L 113.926979 152.876612 
L 114.222194 152.399072 
L 114.325519 152.4478 
L 113.94912 152.301615 
L 114.045065 152.418563 
L 113.668665 153.042289 
L 113.705567 153.022798 
L 113.801512 153.042289 
L 113.521057 153.295678 
L 114.177912 152.632969 
L 114.598593 151.950769 
L 114.694538 151.395262 
L 115.152122 151.463483 
L 115.425196 150.966451 
L 116.037768 150.566876 
L 117.130065 150.703316 
L 117.462182 150.576622 
L 118.620902 150.976196 
L 119.034203 150.917722 
L 119.440125 151.180857 
L 119.698438 151.863057 
L 121.329503 152.652461 
L 122.25205 152.954578 
L 123.639562 153.821947 
L 123.949538 154.20203 
L 124.908988 154.718554 
L 125.846297 155.147365 
L 126.318641 155.371517 
L 128.887015 156.053717 
L 129.196991 156.297361 
L 129.647194 157.242696 
L 130.237625 157.788456 
L 132.008917 158.685062 
L 133.521895 159.221077 
L 134.112326 159.133366 
L 134.407541 159.708363 
L 134.651094 160.556241 
L 134.58467 160.67319 
L 134.333737 160.760901 
L 134.075424 161.063018 
L 133.23406 163.002417 
L 132.990507 163.421483 
L 132.872421 163.889278 
L 132.946225 164.542241 
L 133.514515 165.614271 
L 133.566177 165.945625 
L 134.466584 166.354945 
L 135.315328 166.910452 
L 136.282158 167.290535 
L 137.536823 168.09943 
L 137.85418 168.401547 
L 138.747206 168.635444 
L 138.887433 168.791376 
L 139.108845 168.791376 
L 139.108845 168.791376 
" style="fill:none;stroke:#000000;stroke-width:3;"/>
   </g>
  </g>
 </g>
 <defs>
  <clipPath id="pcf3b657b2e">
   <rect height="554.4" width="282.180082" x="7.2" y="7.2"/>
  </clipPath>
 </defs>
</svg>
