<?xml version="1.0" encoding="utf-8" standalone="no"?>
<!DOCTYPE svg PUBLIC "-//W3C//DTD SVG 1.1//EN"
  "http://www.w3.org/Graphics/SVG/1.1/DTD/svg11.dtd">
<svg height="462.996329pt" version="1.1" viewBox="0 0 572.4 462.996329" width="572.4pt" xmlns="http://www.w3.org/2000/svg" xmlns:xlink="http://www.w3.org/1999/xlink">
 <metadata>
  <rdf:RDF xmlns:cc="http://creativecommons.org/ns#" xmlns:dc="http://purl.org/dc/elements/1.1/" xmlns:rdf="http://www.w3.org/1999/02/22-rdf-syntax-ns#">
   <cc:Work>
    <dc:type rdf:resource="http://purl.org/dc/dcmitype/StillImage"/>
    <dc:date>2021-11-10T01:58:57.074743</dc:date>
    <dc:format>image/svg+xml</dc:format>
    <dc:creator>
     <cc:Agent>
      <dc:title>Matplotlib v3.4.3, https://matplotlib.org/</dc:title>
     </cc:Agent>
    </dc:creator>
   </cc:Work>
  </rdf:RDF>
 </metadata>
 <defs>
  <style type="text/css">*{stroke-linecap:butt;stroke-linejoin:round;}</style>
 </defs>
 <g id="figure_1">
  <g id="patch_1">
   <path d="M 0 462.996329 
L 572.4 462.996329 
L 572.4 0 
L 0 0 
z
" style="fill:#ffffff;"/>
  </g>
  <g id="axes_1">
   <g id="LineCollection_1">
    <path clip-path="url(#p07bccb55b6)" d="M 539.836364 235.648738 
L 539.607309 235.749562 
L 539.63276 236.236876 
L 538.996498 237.219906 
L 535.427067 241.000793 
L 534.065466 242.118255 
L 532.290294 244.008699 
L 531.539505 244.714464 
L 530.591475 245.924348 
L 522.129188 254.805231 
L 520.277665 256.76289 
L 520.004072 256.788096 
L 519.456887 256.510831 
L 518.184363 255.334555 
L 516.415554 253.8222 
L 515.613863 253.511327 
L 514.837624 253.897818 
L 511.656313 257.250204 
L 510.415602 258.560912 
L 508.112333 261.19913 
L 500.477187 269.659915 
L 499.637321 270.768975 
L 496.118791 274.944754 
L 495.38709 275.894177 
L 489.584379 281.683134 
L 488.362755 283.103067 
L 487.980998 284.0945 
L 487.917372 284.447383 
L 487.917372 284.447383 
L 488.248228 284.296147 
L 488.038262 283.766823 
L 484.608809 280.439643 
L 482.897264 278.969298 
L 481.707453 277.751012 
L 479.385096 276.221854 
L 478.742472 276.616746 
L 478.360714 278.666827 
L 478.227099 279.826299 
L 477.768991 281.641125 
L 477.23453 284.640628 
L 476.992751 286.497463 
L 476.31195 289.597791 
L 476.241961 289.76583 
L 476.241961 289.76583 
L 476.343763 290.387576 
L 476.299225 290.799272 
L 475.599337 292.101578 
L 473.614199 295.453964 
L 473.404232 295.899268 
L 471.616336 298.579497 
L 469.383055 302.116727 
L 462.505061 313.652632 
L 460.348133 317.273881 
L 455.12442 325.138126 
L 446.999353 338.539269 
L 446.662134 339.026583 
L 438.931549 351.520313 
L 438.199847 352.612569 
L 433.561496 360.401196 
L 433.268816 361.132167 
L 432.148994 362.5521 
L 426.486261 371.626229 
L 423.93485 376.003655 
L 420.753539 380.952416 
L 419.271048 383.624243 
L 417.737656 385.901177 
L 416.738725 387.598375 
L 410.573344 397.420278 
L 410.350653 397.840377 
L 409.485336 398.924231 
L 408.855437 399.293918 
L 408.441866 399.26031 
L 407.96467 399.05026 
L 406.323113 397.932798 
L 403.186341 396.260806 
L 396.798269 392.3959 
L 389.315826 387.556365 
L 388.183279 386.943021 
L 382.946842 383.809086 
L 380.980792 382.447967 
L 379.040192 381.338907 
L 376.329715 379.414855 
L 374.579994 378.406619 
L 371.735903 377.070706 
L 363.725362 372.071533 
L 363.343605 371.617827 
L 362.306498 371.16412 
L 349.912111 363.23266 
L 348.531422 362.308443 
L 348.855916 362.610914 
L 348.709575 362.577306 
L 346.819877 361.417834 
L 345.980011 360.728873 
L 344.853827 359.989499 
L 338.567557 356.401858 
L 335.742553 354.477807 
L 332.147671 352.419324 
L 325.530545 348.075505 
L 320.268657 344.823943 
L 316.393821 342.286548 
L 315.261274 341.639596 
L 312.385369 339.807966 
L 310.820164 339.026583 
L 306.17545 336.379962 
L 303.445886 334.548333 
L 300.54453 332.767115 
L 293.679262 328.322473 
L 290.154369 326.482441 
L 285.840512 323.659379 
L 281.011282 320.567454 
L 277.276423 318.794638 
L 269.762167 315.274212 
L 265.74099 313.308151 
L 265.461035 313.266141 
L 264.869311 313.585416 
L 264.328488 314.349996 
L 261.90433 319.718855 
L 261.280793 321.264817 
L 251.221488 342.513401 
L 244.464384 356.704329 
L 242.880091 359.86347 
L 240.576822 364.871044 
L 237.401874 368.643529 
L 234.424167 372.3572 
L 231.796405 375.566753 
L 230.612957 377.549618 
L 223.200503 386.657354 
L 221.788001 388.951092 
L 221.76255 389.841701 
L 222.169758 390.656692 
L 222.876009 391.228026 
L 227.717964 394.025882 
L 229.467685 395.134942 
L 230.530243 395.580247 
L 230.981989 396.521267 
L 230.61932 397.42868 
L 229.321345 399.083868 
L 227.259855 401.428018 
L 225.904617 403.150422 
L 224.912048 404.3351 
L 223.124151 407.057338 
L 223.206865 407.83032 
L 223.448645 408.191604 
L 224.065819 408.77134 
L 230.962901 412.703462 
L 232.839874 413.728503 
L 233.469774 414.266229 
L 234.252376 415.299671 
L 238.451707 417.618615 
L 240.220515 418.601646 
L 241.111282 419.282205 
L 243.160047 420.357658 
L 243.45909 420.744148 
L 243.770858 421.508728 
L 244.184429 423.172318 
L 244.496197 423.382367 
L 246.404984 424.323388 
L 254.110118 427.986647 
L 256.865133 429.818276 
L 259.912829 431.162592 
L 263.176854 433.649575 
L 264.799322 434.582194 
L 265.015652 434.901469 
L 264.926575 435.405587 
L 264.812048 435.371979 
L 263.89583 434.767037 
L 260.714519 432.884996 
L 256.795145 431.145788 
L 254.593678 429.868688 
L 252.90122 429.078903 
L 248.740066 426.827175 
L 245.705095 424.743486 
L 242.224741 422.62619 
L 241.193997 422.264905 
L 238.642585 420.760952 
L 235.951196 419.374627 
L 231.370109 416.854036 
L 228.246062 414.795553 
L 223.245041 412.274962 
L 221.22809 410.939049 
L 220.400949 410.611372 
L 210.774303 405.141689 
L 209.546317 404.402316 
L 207.383026 402.965579 
L 205.054306 401.621263 
L 201.185832 399.184692 
L 198.418092 398.243671 
L 196.305702 396.823738 
L 191.680076 394.445981 
L 190.35665 393.689803 
L 188.855072 392.86641 
L 185.311092 390.60628 
L 181.830738 388.690631 
L 171.504203 382.573996 
L 170.638886 381.960652 
L 169.309098 381.229681 
L 168.214728 380.515513 
L 166.993104 380.229846 
L 166.503182 379.994591 
L 165.536064 379.22161 
L 164.581671 378.62507 
L 162.182962 377.43199 
L 161.27947 376.936274 
L 149.973092 370.365933 
L 145.538344 368.013381 
L 143.553206 367.063959 
L 138.615812 364.089661 
L 135.555391 362.333649 
L 134.569185 361.535462 
L 132.61586 360.140735 
L 130.490744 358.964459 
L 129.033704 357.989831 
L 124.961626 355.696093 
L 124.312639 355.486043 
L 122.104809 354.570229 
L 121.653063 353.923277 
L 121.646701 353.696424 
L 121.754865 353.519982 
L 121.901205 353.561992 
L 129.07188 357.494114 
L 129.313659 358.090654 
L 127.042204 362.241228 
L 126.100536 362.047982 
L 122.588368 359.939088 
L 119.706101 359.006469 
L 118.153621 358.006634 
L 116.728394 357.418497 
L 114.348774 355.586867 
L 113.540721 355.864132 
L 113.483457 355.922946 
L 113.483457 355.922946 
L 113.178051 355.872534 
L 112.751756 356.620309 
L 111.54922 358.15787 
L 109.31594 360.678461 
L 108.444261 361.989168 
L 107.992515 363.056219 
L 107.877987 363.661161 
L 107.464417 364.778623 
L 107.089022 365.030682 
L 106.681815 365.047486 
L 106.204618 364.904652 
L 103.818635 363.568739 
L 101.566267 362.476483 
L 100.662775 361.989168 
L 98.58856 361.115364 
L 96.068962 359.82146 
L 90.813437 356.989996 
L 89.254594 356.183407 
L 87.892993 355.847328 
L 86.67137 355.368416 
L 85.449747 354.645846 
L 84.011794 354.015698 
L 81.676712 352.679785 
L 81.409482 352.284893 
L 76.911108 350.251616 
L 74.308796 348.419986 
L 73.538919 347.655407 
L 73.608908 347.638603 
L 73.869775 347.596593 
L 73.965215 347.487367 
L 73.246238 346.85722 
L 70.955695 345.554914 
L 69.460479 344.773531 
L 67.710758 343.605657 
L 67.099946 342.958705 
L 66.616387 342.706646 
L 65.432939 342.504999 
L 63.988624 341.975675 
L 61.169983 340.54734 
L 59.859283 339.614721 
L 57.988672 338.816534 
L 54.724647 337.278973 
L 52.841311 336.321149 
L 49.259155 334.472715 
L 47.382182 333.68293 
L 45.015287 332.943556 
L 43.380093 332.372222 
L 42.349348 331.80929 
L 41.560383 331.204349 
L 40.866857 330.095288 
L 39.034422 328.700561 
L 35.961276 327.003363 
L 35.433179 326.709294 
L 33.378052 325.768274 
L 32.811779 325.314567 
L 32.601812 324.407154 
L 32.563636 323.692987 
L 33.460766 320.895131 
L 36.082166 314.896124 
L 36.909307 313.501397 
L 37.074735 312.703209 
L 37.023834 312.703209 
L 83.719114 251.343619 
L 83.750927 250.604245 
L 83.15284 247.688762 
L 82.020294 245.142965 
L 81.511284 242.538354 
L 81.772151 240.488273 
L 82.052107 239.891733 
L 83.133752 238.202937 
L 86.327788 233.934736 
L 87.59395 232.775264 
L 90.552569 230.926831 
L 91.545138 230.195859 
L 92.938552 228.675102 
L 93.523913 227.347591 
L 93.58754 226.868679 
L 93.320309 223.860773 
L 93.511188 222.138369 
L 94.573746 218.979228 
L 96.278928 211.812348 
L 96.851564 209.896698 
L 99.173921 205.082369 
L 100.389182 203.317955 
L 103.144197 200.150413 
L 104.454897 198.814499 
L 107.006308 195.688966 
L 108.756029 192.571835 
L 110.130356 189.639547 
L 111.199276 186.976123 
L 112.013691 185.539386 
L 113.871577 182.867559 
L 114.876871 181.607264 
L 116.683856 180.254546 
L 118.821697 179.044663 
L 123.180092 177.591122 
L 124.306276 177.607926 
L 125.012527 177.733955 
L 127.360335 177.868387 
L 129.956284 178.355701 
L 131.266984 178.380907 
L 131.769631 178.313691 
L 133.023068 177.851583 
L 133.589341 177.58272 
L 134.626448 176.935768 
L 135.421776 176.087169 
L 135.790808 175.608257 
L 138.762152 170.365427 
L 141.020883 165.861971 
L 144.704841 159.736934 
L 145.252026 158.65308 
L 152.047306 146.915527 
L 154.974112 141.790325 
L 157.697314 136.690329 
L 159.097091 132.657383 
L 159.211618 131.271058 
L 159.122541 129.288193 
L 159.141629 125.246845 
L 159.835155 121.760028 
L 159.956045 120.466124 
L 159.688815 118.264808 
L 159.224343 116.811267 
L 158.193599 115.147677 
L 156.660207 112.60188 
L 156.526592 111.240761 
L 156.622031 110.534995 
L 157.500073 107.711933 
L 160.051484 102.637143 
L 160.789548 101.410455 
L 162.717423 98.822648 
L 164.893439 96.14242 
L 167.648454 93.319358 
L 170.435282 90.109805 
L 171.052457 89.025951 
L 171.637818 87.269939 
L 171.822334 85.396299 
L 171.752345 84.724142 
L 171.440577 80.212284 
L 172.013213 76.212946 
L 172.853079 71.776705 
L 173.279374 70.566821 
L 175.251787 67.474896 
L 177.854099 65.307188 
L 181.226289 63.257107 
L 182.085242 62.122841 
L 182.22522 61.627125 
L 182.269759 60.988575 
L 182.008891 59.703074 
L 181.289915 58.5352 
L 180.749092 58.014277 
L 180.004665 57.560571 
L 178.70669 57.199286 
L 177.24965 57.333718 
L 175.735346 57.905052 
L 173.782021 59.190553 
L 172.694013 60.081162 
L 172.025938 60.476055 
L 171.275148 60.71131 
L 169.684493 60.71131 
L 168.1002 59.946731 
L 167.642092 59.467818 
L 167.27306 58.728445 
L 167.139444 58.005875 
L 167.266697 56.367491 
L 167.489389 55.518892 
L 168.348343 54.149371 
L 171.071545 50.771779 
L 172.439508 48.822522 
L 175.614456 42.605064 
L 176.199818 39.185462 
L 176.161642 38.630931 
L 175.506292 36.7909 
L 174.679151 35.715448 
L 171.268786 32.875582 
L 166.611347 30.002108 
L 165.669679 29.80046 
L 163.627277 29.111499 
L 157.500073 28.170478 
L 156.755646 27.968831 
L 154.853222 27.590742 
L 154.146971 27.599144 
L 153.345281 27.767184 
L 151.245616 29.262734 
L 149.89674 31.430443 
L 149.38773 33.178053 
L 149.425906 34.085465 
L 149.769488 35.488595 
L 150.13852 36.202762 
L 150.812958 36.942135 
L 152.10457 37.689911 
L 155.604012 38.782167 
L 156.800184 39.353501 
L 158.015445 40.454159 
L 159.052553 42.142955 
L 159.294332 43.210005 
L 159.262519 46.209509 
L 159.841518 48.956953 
L 160.337802 50.4357 
L 160.617757 51.771613 
L 160.719559 53.015105 
L 160.528681 54.182979 
L 159.796979 56.207854 
L 158.581719 57.871444 
L 157.620963 58.829269 
L 155.514935 60.492859 
L 153.663412 61.568311 
L 147.707998 64.013284 
L 146.581814 64.971109 
L 145.729223 66.214601 
L 145.175675 67.542112 
L 144.80028 68.836015 
L 144.323084 70.037497 
L 143.355965 71.566656 
L 142.92967 71.978352 
L 141.580794 73.037001 
L 138.921218 74.196473 
L 135.396326 75.523984 
L 132.724025 77.204378 
L 130.458931 79.262861 
L 130.1408 79.716567 
L 128.779199 82.069119 
L 127.023116 85.639956 
L 124.967989 91.02562 
L 123.307345 94.697281 
L 120.514154 98.100079 
L 119.222542 98.99909 
L 116.372087 100.788709 
L 114.374224 103.174869 
L 114.113357 103.653781 
L 113.51527 105.796284 
L 113.375293 109.089856 
L 113.381655 112.51786 
L 112.140944 115.693805 
L 110.753892 117.306983 
L 108.889644 118.332024 
L 106.280969 119.323456 
L 103.315988 120.726585 
L 100.643687 122.533009 
L 98.124089 124.961178 
L 96.259841 127.35574 
L 94.00111 130.85096 
L 92.798574 133.363149 
L 92.435905 134.699062 
L 92.130499 136.648319 
L 92.085961 137.959027 
L 92.461356 141.210589 
L 94.860064 148.763961 
L 95.108206 150.225904 
L 95.04458 150.990483 
L 94.796438 152.317994 
L 94.045648 154.695752 
L 93.288496 156.048469 
L 89.884494 160.95522 
L 87.250368 163.677459 
L 84.991638 165.198215 
L 82.389326 167.382728 
L 81.772151 168.37416 
L 80.938648 168.827866 
L 80.518715 168.172513 
L 80.588704 167.760816 
L 81.282229 165.483882 
L 81.524009 164.013537 
L 81.676712 162.23232 
L 81.600361 160.627543 
L 81.466745 159.392454 
L 81.123164 158.064942 
L 80.086057 155.653577 
L 79.201652 154.620134 
L 76.026704 152.082739 
L 70.548487 148.780765 
L 68.550624 147.730519 
L 67.857098 147.083567 
L 65.801971 145.814869 
L 65.305687 145.924095 
L 65.305687 145.924095 
" style="fill:none;stroke:#000000;stroke-width:3;"/>
   </g>
  </g>
 </g>
 <defs>
  <clipPath id="p07bccb55b6">
   <rect height="448.596329" width="558" x="7.2" y="7.2"/>
  </clipPath>
 </defs>
</svg>
