<?xml version="1.0" encoding="utf-8" standalone="no"?>
<!DOCTYPE svg PUBLIC "-//W3C//DTD SVG 1.1//EN"
  "http://www.w3.org/Graphics/SVG/1.1/DTD/svg11.dtd">
<svg height="568.8pt" version="1.1" viewBox="0 0 392.600377 568.8" width="392.600377pt" xmlns="http://www.w3.org/2000/svg" xmlns:xlink="http://www.w3.org/1999/xlink">
 <metadata>
  <rdf:RDF xmlns:cc="http://creativecommons.org/ns#" xmlns:dc="http://purl.org/dc/elements/1.1/" xmlns:rdf="http://www.w3.org/1999/02/22-rdf-syntax-ns#">
   <cc:Work>
    <dc:type rdf:resource="http://purl.org/dc/dcmitype/StillImage"/>
    <dc:date>2021-11-12T01:59:44.113640</dc:date>
    <dc:format>image/svg+xml</dc:format>
    <dc:creator>
     <cc:Agent>
      <dc:title>Matplotlib v3.4.3, https://matplotlib.org/</dc:title>
     </cc:Agent>
    </dc:creator>
   </cc:Work>
  </rdf:RDF>
 </metadata>
 <defs>
  <style type="text/css">*{stroke-linecap:butt;stroke-linejoin:round;}</style>
 </defs>
 <g id="figure_1">
  <g id="patch_1">
   <path d="M 0 568.8 
L 392.600377 568.8 
L 392.600377 0 
L 0 0 
z
" style="fill:#ffffff;"/>
  </g>
  <g id="axes_1">
   <g id="LineCollection_1">
    <path clip-path="url(#pf3829f91d6)" d="M 24.390926 447.771991 
L 25.600136 449.285084 
L 28.145839 451.16244 
L 29.100478 451.638784 
L 32.388679 454.77705 
L 34.637384 457.270851 
L 37.840728 459.820693 
L 40.216719 461.025563 
L 42.95335 461.642008 
L 46.623407 462.146372 
L 48.532685 462.174393 
L 52.584597 463.407283 
L 53.348308 463.995708 
L 56.678937 467.274076 
L 65.313116 476.913037 
L 66.182898 478.902474 
L 67.095109 484.870784 
L 67.625464 490.30671 
L 67.964891 491.847823 
L 70.340882 496.919486 
L 70.977307 497.39583 
L 76.471785 499.245166 
L 81.541979 500.674198 
L 87.312241 501.402724 
L 89.073019 501.823028 
L 94.88571 503.672363 
L 100.083189 503.868505 
L 102.883463 504.232768 
L 107.741515 506.81063 
L 112.154068 509.780775 
L 112.938993 510.537321 
L 116.524193 514.292033 
L 118.284971 517.122077 
L 120.257892 522.109679 
L 120.682176 524.239217 
L 122.336884 527.181342 
L 124.055234 526.873119 
L 126.070583 527.013221 
L 127.852575 527.573625 
L 133.580409 529.086718 
L 136.826182 529.675143 
L 139.668884 530.599811 
L 141.429663 531.384378 
L 146.372571 533.766098 
L 148.345492 535.083049 
L 150.869981 536.4 
L 157.488811 536.37198 
L 162.771147 535.895636 
L 165.147137 535.335231 
L 169.85669 532.000823 
L 174.905669 530.936054 
L 175.881522 530.936054 
L 181.757855 532.449147 
L 183.115564 532.477167 
L 189.076754 533.205693 
L 194.931873 534.830867 
L 199.174713 533.906199 
L 200.129352 533.906199 
L 204.923761 533.485895 
L 207.023966 533.093612 
L 211.054664 530.403669 
L 213.260941 529.226819 
L 214.555007 527.181342 
L 214.385293 524.435359 
L 216.146072 520.736688 
L 219.837343 515.10462 
L 221.301122 512.582799 
L 223.464971 507.95946 
L 224.67418 505.885962 
L 230.571727 498.180397 
L 233.881142 489.886407 
L 238.527052 482.01272 
L 242.621392 475.287863 
L 246.14295 470.328282 
L 247.500658 466.853772 
L 249.600864 461.92221 
L 250.661574 460.269017 
L 253.41942 454.833091 
L 255.79541 449.173003 
L 258.892683 443.596976 
L 262.265741 438.693434 
L 264.620517 434.60248 
L 267.526862 429.166554 
L 269.563425 424.375093 
L 271.30299 420.816523 
L 273.212268 416.277245 
L 275.015474 413.026897 
L 277.624821 408.011275 
L 280.934236 403.415956 
L 282.143445 401.034236 
L 283.013228 398.904698 
L 287.553066 389.68604 
L 289.101703 383.157325 
L 289.6957 378.365864 
L 290.162413 375.928104 
L 290.416983 371.332785 
L 290.310912 368.166498 
L 289.759343 362.842653 
L 289.801771 360.713115 
L 291.053409 355.473331 
L 291.732263 351.662579 
L 291.711049 349.364919 
L 292.262618 344.433357 
L 292.644474 338.605148 
L 290.671553 331.76821 
L 288.698633 326.724568 
L 287.086354 324.062645 
L 283.798153 320.111792 
L 283.310226 319.299205 
L 281.740376 314.339623 
L 281.655519 313.442975 
L 281.994946 307.754867 
L 282.16466 306.802179 
L 284.94372 298.984533 
L 288.168278 291.727292 
L 291.15948 285.983143 
L 293.959754 281.275744 
L 297.12067 276.372202 
L 301.724151 269.983588 
L 304.651711 266.256897 
L 305.288137 265.724512 
L 310.231045 261.017112 
L 316.022521 254.712559 
L 320.138076 250.425463 
L 320.880573 250.005159 
L 324.996128 245.690043 
L 329.387467 240.394218 
L 332.060456 236.107122 
L 333.036309 230.727236 
L 332.951452 224.786946 
L 331.381602 216.520976 
L 331.16946 210.776828 
L 331.848314 205.060699 
L 332.08167 204.051971 
L 333.566664 195.197576 
L 335.030444 186.2311 
L 336.006297 179.226041 
L 337.024578 174.994985 
L 340.376422 169.334897 
L 344.491977 165.215923 
L 346.061827 163.870951 
L 350.134954 160.2003 
L 355.587003 156.389548 
L 357.878136 155.016556 
L 362.587688 152.774937 
L 364.624252 151.177784 
L 368.060952 146.470384 
L 368.209451 142.37943 
L 367.276026 139.745527 
L 366.851742 138.90492 
L 363.3514 134.14148 
L 358.344849 132.90859 
L 353.295869 132.768488 
L 351.492662 133.244832 
L 346.570968 135.934775 
L 342.052344 139.269183 
L 340.058209 141.454762 
L 335.285014 144.677089 
L 334.45766 144.84521 
L 329.281396 145.349575 
L 328.199472 145.069372 
L 324.423344 143.304097 
L 319.438007 139.213143 
L 317.634801 133.777217 
L 318.207584 130.190627 
L 320.795716 125.455207 
L 324.614272 121.644454 
L 327.796402 118.057864 
L 333.163594 111.192906 
L 334.881944 108.474943 
L 337.215506 103.123078 
L 338.573215 101.189681 
L 341.288633 96.790504 
L 341.925058 95.249391 
L 344.364691 88.272352 
L 346.358826 83.508912 
L 346.974038 81.715617 
L 347.822606 76.531873 
L 346.401254 69.807016 
L 345.807257 68.910369 
L 342.900912 64.174949 
L 340.652207 62.437694 
L 335.51837 57.085829 
L 332.88781 53.583299 
L 331.190674 51.705943 
L 326.905406 47.558948 
L 325.20827 46.241997 
L 320.498717 43.692155 
L 316.680162 42.010941 
L 311.41904 40.469828 
L 309.785547 40.133585 
L 301.130154 38.088108 
L 297.608597 37.611764 
L 291.604978 36.743137 
L 285.134647 35.145983 
L 280.022025 32.45604 
L 278.685531 32.4 
L 273.700194 32.624162 
L 272.978911 33.072486 
L 268.52393 36.126691 
L 265.384228 40.301707 
L 264.896302 41.226375 
L 262.987024 46.298037 
L 261.799028 51.649903 
L 261.438387 56.273242 
L 261.862671 57.506132 
L 262.56274 58.626942 
L 265.447871 62.577795 
L 269.308855 65.015556 
L 274.33662 66.164385 
L 278.83403 68.658186 
L 283.670868 68.798288 
L 286.66207 71.095947 
L 289.610843 75.0468 
L 291.732263 80.622828 
L 292.771759 86.226875 
L 292.835402 89.477222 
L 292.665688 94.885128 
L 293.302114 99.732629 
L 295.190178 103.991705 
L 296.8661 108.895247 
L 297.290384 111.61321 
L 298.032881 117.52548 
L 297.969238 118.674309 
L 296.675172 124.250336 
L 296.356959 124.894802 
L 294.405252 129.994485 
L 292.602046 132.180063 
L 292.008048 132.684428 
L 288.38042 137.307767 
L 287.06514 138.568677 
L 281.019093 143.444199 
L 276.627754 146.722566 
L 273.594123 148.207639 
L 268.460287 149.384489 
L 267.887504 149.132307 
L 262.138456 150.281136 
L 259.444252 151.682148 
L 254.840771 155.184678 
L 254.098274 155.941224 
L 251.001001 160.11624 
L 249.473579 162.918263 
L 247.097588 167.933886 
L 243.533603 177.152544 
L 240.627258 181.215478 
L 240.012046 181.831923 
L 237.211772 183.84938 
L 235.493422 184.942169 
L 229.489803 187.548051 
L 225.904604 189.397387 
L 219.413059 191.386824 
L 217.949279 191.582965 
L 213.451869 193.740524 
L 208.827173 197.299094 
L 205.051046 200.633502 
L 203.184196 202.79106 
L 200.999134 204.500295 
L 198.05036 207.610541 
L 195.101586 211.953678 
L 193.14988 215.596308 
L 189.904108 220.724012 
L 187.400832 225.151209 
L 185.024842 230.082771 
L 184.027775 233.781442 
L 181.800284 238.23666 
L 178.172656 248.772269 
L 176.263378 254.208195 
L 175.817879 254.992761 
L 172.444822 259.475999 
L 172.147823 260.344627 
L 169.156621 265.276188 
L 167.883769 266.312937 
L 165.359279 268.106232 
L 162.092293 271.104398 
L 156.364459 274.719008 
L 152.673188 276.792506 
L 148.409134 280.295035 
L 145.630074 284.778273 
L 143.402583 289.345572 
L 141.726662 294.473275 
L 141.259949 300.609707 
L 141.51452 306.802179 
L 142.002446 312.406227 
L 141.981232 314.619825 
L 141.175092 320.476055 
L 139.64767 324.398888 
L 136.317041 328.405782 
L 132.583342 331.824251 
L 128.467787 335.186679 
L 127.343435 335.859165 
L 121.679243 337.456318 
L 116.630264 338.324946 
L 112.451067 339.557836 
L 107.699086 341.687374 
L 106.256521 342.724123 
L 101.843967 345.666248 
L 100.507473 346.843098 
L 96.137348 349.701162 
L 92.870361 352.082882 
L 89.009377 356.790282 
L 86.018175 361.021338 
L 85.296892 361.833925 
L 82.836045 366.653405 
L 81.64805 368.278579 
L 77.744637 372.089331 
L 75.983858 377.104954 
L 75.326218 377.91754 
L 73.056299 382.5689 
L 70.63788 388.144927 
L 69.662027 392.404003 
L 69.449885 399.044799 
L 69.513528 405.545494 
L 70.722737 415.604759 
L 72.35623 421.545049 
L 72.7593 422.385656 
L 75.623217 427.485339 
L 77.214282 433.929994 
L 77.787065 435.89141 
L 78.571991 441.187235 
L 78.338635 447.912092 
L 78.211349 448.920821 
L 76.450571 453.067816 
L 73.607868 457.579074 
L 71.104593 463.07104 
L 67.85882 467.077934 
L 63.700837 473.970912 
L 59.479212 475.455985 
L 56.891079 472.625941 
L 55.109087 469.767877 
L 54.175662 469.039351 
L 50.038893 466.57357 
L 46.899191 465.704942 
L 43.526134 465.42474 
L 38.095299 466.125246 
L 36.270878 466.713671 
L 32.155323 466.377428 
L 29.418691 462.706777 
L 25.897134 455.869839 
L 24.475783 454.552888 
L 24.475783 454.552888 
" style="fill:none;stroke:#000000;stroke-width:3;"/>
   </g>
  </g>
 </g>
 <defs>
  <clipPath id="pf3829f91d6">
   <rect height="554.4" width="378.200377" x="7.2" y="7.2"/>
  </clipPath>
 </defs>
</svg>
