<?xml version="1.0" encoding="utf-8" standalone="no"?>
<!DOCTYPE svg PUBLIC "-//W3C//DTD SVG 1.1//EN"
  "http://www.w3.org/Graphics/SVG/1.1/DTD/svg11.dtd">
<svg xmlns:xlink="http://www.w3.org/1999/xlink" width="339.523713pt" height="568.8pt" viewBox="0 0 339.523713 568.8" xmlns="http://www.w3.org/2000/svg" version="1.1">
 <metadata>
  <rdf:RDF xmlns:dc="http://purl.org/dc/elements/1.1/" xmlns:cc="http://creativecommons.org/ns#" xmlns:rdf="http://www.w3.org/1999/02/22-rdf-syntax-ns#">
   <cc:Work>
    <dc:type rdf:resource="http://purl.org/dc/dcmitype/StillImage"/>
    <dc:date>2021-12-19T02:09:07.400838</dc:date>
    <dc:format>image/svg+xml</dc:format>
    <dc:creator>
     <cc:Agent>
      <dc:title>Matplotlib v3.5.1, https://matplotlib.org/</dc:title>
     </cc:Agent>
    </dc:creator>
   </cc:Work>
  </rdf:RDF>
 </metadata>
 <defs>
  <style type="text/css">*{stroke-linejoin: round; stroke-linecap: butt}</style>
 </defs>
 <g id="figure_1">
  <g id="patch_1">
   <path d="M 0 568.8 
L 339.523713 568.8 
L 339.523713 0 
L 0 0 
z
" style="fill: #ffffff"/>
  </g>
  <g id="axes_1">
   <g id="LineCollection_1">
    <path d="M 284.278399 41.38565 
L 284.186196 41.166488 
L 285.440161 41.483056 
L 286.085584 41.92138 
L 291.820632 44.843543 
L 296.209511 47.546543 
L 297.260629 48.39884 
L 298.385509 49.153732 
L 303.493574 51.710625 
L 314.096958 57.360139 
L 316.66021 59.210842 
L 316.844617 60.282302 
L 315.516889 64.300275 
L 311.902518 72.360574 
L 306.42564 80.932251 
L 303.290727 87.361009 
L 299.289102 94.885578 
L 295.287477 102.848471 
L 294.273241 104.139093 
L 287.118262 117.02096 
L 285.624568 119.456095 
L 284.370602 120.868474 
L 282.91379 123.595825 
L 280.14769 128.149529 
L 277.418471 133.482476 
L 275.316235 136.916017 
L 273.453727 140.325207 
L 256.709602 169.912103 
L 249.591504 184.2307 
L 246.456591 189.271431 
L 233.953819 211.942542 
L 230.39477 218.444354 
L 228.163449 221.975301 
L 226.614433 224.897463 
L 225.452671 226.699464 
L 224.641282 228.184896 
L 221.930504 234.150978 
L 219.33037 241.772953 
L 217.467862 245.86398 
L 211.585289 254.070387 
L 206.366581 262.155037 
L 202.328075 269.436092 
L 201.313838 270.994579 
L 197.23845 279.395796 
L 194.601435 283.681635 
L 188.479134 297.220989 
L 186.376898 300.411016 
L 173.929447 321.060965 
L 173.228702 322.76556 
L 172.454194 324.324047 
L 169.964704 328.975156 
L 167.032638 333.845427 
L 163.842402 338.813103 
L 161.389794 344.024293 
L 147.854344 367.766865 
L 137.619774 387.540165 
L 137.011232 387.783679 
L 135.923232 389.61003 
L 133.894759 394.45595 
L 132.603912 397.183302 
L 130.391032 400.836005 
L 127.422085 405.633222 
L 123.014765 414.521467 
L 121.299783 417.419278 
L 117.593209 424.262009 
L 113.351856 432.955443 
L 112.392941 435.658443 
L 108.22535 443.353472 
L 105.99403 447.200986 
L 104.998234 449.319554 
L 102.047727 453.581041 
L 100.885965 455.236933 
L 99.816406 455.650906 
L 98.488678 455.675257 
L 95.593494 455.602203 
L 93.067122 456.600609 
L 91.886919 457.69642 
L 89.618717 460.302015 
L 87.995939 463.784259 
L 87.461159 467.022989 
L 87.627125 470.188665 
L 87.903735 471.625395 
L 87.995939 475.521612 
L 86.92638 479.028207 
L 86.170313 480.391883 
L 83.441094 485.55437 
L 79.310385 494.199101 
L 75.60381 499.897318 
L 73.92571 502.79513 
L 70.311339 507.324482 
L 69.333984 510.076185 
L 62.344971 525.125323 
L 61.717988 526.34289 
L 61.091005 528.826729 
L 60.334938 530.896594 
L 60.150531 532.114161 
L 60.11365 532.08981 
L 58.564634 533.672648 
L 56.591483 534.768459 
L 55.097789 535.986027 
L 54.710535 536.4 
L 54.397043 536.278243 
L 54.397043 536.278243 
L 21.978351 534.354486 
L 22.992587 533.916162 
L 24.135909 532.99081 
L 25.039501 531.627134 
L 27.2155 529.118945 
L 39.165052 522.081403 
L 43.166677 517.430294 
L 45.859014 512.68178 
L 49.952843 505.814698 
L 57.587279 496.780345 
L 58.859685 495.781939 
L 62.400293 494.71048 
L 64.170597 494.929642 
L 65.203274 494.320858 
L 72.874592 490.108074 
L 81.099129 483.874127 
L 87.498041 473.013422 
L 90.651395 471.625395 
L 95.888544 469.872097 
L 103.412336 465.927178 
L 105.311725 464.246934 
L 106.067792 461.10561 
L 105.73586 457.745122 
L 104.795386 453.069662 
L 104.518776 450.975446 
L 105.274844 447.517553 
L 109.534638 440.041687 
L 112.817077 434.611335 
L 113.425619 433.223308 
L 114.993075 430.56901 
L 116.874023 428.23128 
L 118.478361 425.552631 
L 120.340869 420.828468 
L 124.139646 412.402899 
L 127.256119 407.776141 
L 128.731372 404.14779 
L 129.063304 402.150978 
L 130.169744 400.519438 
L 133.157132 395.503058 
L 136.070758 390.413625 
L 139.556044 383.376083 
L 142.930686 377.190839 
L 149.790614 365.575243 
L 156.447695 354.787592 
L 162.68064 342.70932 
L 164.948842 339.251428 
L 166.590062 336.621481 
L 169.097993 331.872967 
L 175.146531 320.866155 
L 179.922664 311.320423 
L 183.647679 304.623801 
L 186.376898 299.266502 
L 188.294727 295.979069 
L 191.945979 289.087636 
L 195.154655 281.855283 
L 200.742177 271.652066 
L 208.229088 258.818901 
L 209.169562 257.917901 
L 214.793966 248.031251 
L 223.516401 232.056762 
L 224.401553 230.279113 
L 228.495381 222.949355 
L 229.214567 221.390868 
L 230.616058 217.64076 
L 231.464329 216.252732 
L 233.068667 213.403624 
L 234.617683 210.091839 
L 237.014969 205.927758 
L 242.528729 196.942108 
L 245.88493 190.683809 
L 249.407098 184.547268 
L 256.746483 173.029077 
L 270.447899 149.408262 
L 289.460226 116.071257 
L 293.277445 107.621336 
L 294.051953 106.379417 
L 295.785375 102.848471 
L 297.758527 99.585389 
L 298.440831 94.179388 
L 299.178458 92.791361 
L 302.516219 87.823685 
L 303.862387 85.364198 
L 306.241234 83.586549 
L 307.476758 81.906305 
L 309.505232 78.131845 
L 310.501028 73.797304 
L 313.230246 68.026033 
L 313.986314 66.90587 
L 315.867262 65.079519 
L 317.545362 63.13141 
L 316.08855 60.42841 
L 315.369364 59.478707 
L 314.336686 58.723815 
L 308.122182 55.095463 
L 304.083675 53.220409 
L 294.273241 47.595246 
L 290.050328 45.379272 
L 271.886271 34.932541 
L 270.890475 34.323757 
L 270.079085 33.447108 
L 267.976849 32.570459 
L 266.88885 32.4 
L 265.893054 32.667865 
L 263.975225 34.177649 
L 263.422005 35.176055 
L 262.499971 37.318974 
L 261.301328 39.194028 
L 259.641668 39.729758 
L 259.641668 39.729758 
" clip-path="url(#p10d8a162aa)" style="fill: none; stroke: #000000; stroke-width: 3"/>
   </g>
  </g>
 </g>
 <defs>
  <clipPath id="p10d8a162aa">
   <rect x="7.2" y="7.2" width="325.123713" height="554.4"/>
  </clipPath>
 </defs>
</svg>
