<?xml version="1.0" encoding="utf-8" standalone="no"?>
<!DOCTYPE svg PUBLIC "-//W3C//DTD SVG 1.1//EN"
  "http://www.w3.org/Graphics/SVG/1.1/DTD/svg11.dtd">
<svg xmlns:xlink="http://www.w3.org/1999/xlink" width="409.845472pt" height="568.8pt" viewBox="0 0 409.845472 568.8" xmlns="http://www.w3.org/2000/svg" version="1.1">
 <metadata>
  <rdf:RDF xmlns:dc="http://purl.org/dc/elements/1.1/" xmlns:cc="http://creativecommons.org/ns#" xmlns:rdf="http://www.w3.org/1999/02/22-rdf-syntax-ns#">
   <cc:Work>
    <dc:type rdf:resource="http://purl.org/dc/dcmitype/StillImage"/>
    <dc:date>2022-02-10T01:59:37.048852</dc:date>
    <dc:format>image/svg+xml</dc:format>
    <dc:creator>
     <cc:Agent>
      <dc:title>Matplotlib v3.5.1, https://matplotlib.org/</dc:title>
     </cc:Agent>
    </dc:creator>
   </cc:Work>
  </rdf:RDF>
 </metadata>
 <defs>
  <style type="text/css">*{stroke-linejoin: round; stroke-linecap: butt}</style>
 </defs>
 <g id="figure_1">
  <g id="patch_1">
   <path d="M 0 568.8 
L 409.845472 568.8 
L 409.845472 0 
L 0 0 
z
" style="fill: #ffffff"/>
  </g>
  <g id="axes_1">
   <g id="LineCollection_1">
    <path d="M 244.471051 42.870881 
L 245.834476 41.378425 
L 246.516189 41.259976 
L 247.736096 41.567944 
L 249.512138 42.254947 
L 251.808434 43.842162 
L 254.714683 45.381998 
L 258.302645 45.926863 
L 260.957738 46.495417 
L 262.410862 46.992902 
L 263.307853 47.419318 
L 266.519079 47.727286 
L 268.797435 48.651187 
L 271.667805 50.072573 
L 278.682271 54.69208 
L 280.799169 56.468813 
L 284.333312 58.814101 
L 284.333312 58.814101 
L 289.751135 62.012221 
L 291.437477 63.552056 
L 296.998819 66.797556 
L 301.537591 68.811187 
L 303.277753 69.284982 
L 310.059002 71.938237 
L 319.369764 75.704912 
L 329.487818 79.732174 
L 333.147539 81.935323 
L 335.049159 82.740776 
L 341.184575 85.749377 
L 343.857607 88.521081 
L 345.723347 93.140588 
L 346.279481 95.03577 
L 347.589088 100.034313 
L 348.216981 102.948155 
L 349.024273 107.68611 
L 350.782374 113.679624 
L 351.464087 115.14839 
L 353.796262 119.43624 
L 357.240706 123.273984 
L 358.335035 124.197885 
L 359.160266 125.714031 
L 359.73434 126.472103 
L 364.829247 132.820964 
L 365.259802 133.24738 
L 367.125542 134.28973 
L 370.157371 137.037744 
L 373.0995 143.078637 
L 375.503434 147.01114 
L 376.023689 147.579694 
L 379.288735 150.659365 
L 381.477392 153.075723 
L 384.150424 157.055605 
L 384.670678 159.116616 
L 383.809567 164.209918 
L 381.692669 168.284559 
L 380.885378 171.103643 
L 378.660841 175.249354 
L 376.597763 178.139506 
L 375.288157 181.385006 
L 374.516745 184.061951 
L 372.14869 189.534289 
L 370.516167 193.65631 
L 370.157371 195.480423 
L 368.30957 199.294477 
L 365.349501 202.895323 
L 363.429941 204.885264 
L 361.564201 209.57584 
L 359.73434 215.99577 
L 359.501122 216.706463 
L 356.810151 220.094101 
L 353.616864 223.576498 
L 352.737814 225.045264 
L 349.795684 231.275676 
L 346.692097 234.355347 
L 341.991866 237.742985 
L 339.085617 243.191633 
L 336.84314 246.958308 
L 334.690363 251.104019 
L 333.739553 253.733584 
L 331.748234 258.945335 
L 330.348929 263.233184 
L 329.30842 264.654571 
L 326.850665 268.658143 
L 325.074624 272.803854 
L 322.850087 276.570529 
L 321.540481 279.318543 
L 319.620921 283.630082 
L 318.75981 285.288367 
L 316.965829 290.26322 
L 313.431686 294.124653 
L 310.758654 297.583361 
L 308.498238 302.202867 
L 307.852405 304.879812 
L 305.591989 308.907074 
L 302.59604 312.910646 
L 300.192105 317.340635 
L 298.416064 320.254477 
L 296.532384 325.158261 
L 293.608195 330.464771 
L 291.616876 334.942139 
L 291.132501 335.700212 
L 289.804955 339.158919 
L 289.105302 340.438167 
L 285.822316 343.731046 
L 284.028335 346.100024 
L 283.041646 350.601081 
L 282.808428 352.80423 
L 279.81248 357.447427 
L 276.637133 361.474689 
L 273.623245 364.720188 
L 271.703685 366.449542 
L 269.26387 370.192526 
L 268.528338 371.684982 
L 266.967574 375.735934 
L 266.3935 379.289401 
L 264.49188 383.529871 
L 263.792228 385.567192 
L 260.383664 389.476005 
L 259.971048 390.186698 
L 258.195007 396.34604 
L 255.288757 402.268484 
L 252.16723 407.124888 
L 250.086212 411.010012 
L 248.956004 413.378989 
L 247.179962 417.429941 
L 246.641768 418.116945 
L 243.861097 421.954689 
L 241.241885 427.213819 
L 239.142927 430.672526 
L 237.546283 434.652409 
L 233.940381 439.248226 
L 232.361678 442.398966 
L 230.621516 444.862703 
L 228.199642 446.994783 
L 225.975105 448.581998 
L 225.203693 451.022045 
L 224.952536 453.65161 
L 222.333323 463.625006 
L 220.359944 464.548907 
L 217.776611 468.5051 
L 215.534135 475.114548 
L 213.022561 477.317697 
L 209.667816 481.036992 
L 208.609367 482.529448 
L 207.820016 485.988155 
L 206.097794 489.209965 
L 202.832748 492.502844 
L 200.446753 497.572456 
L 199.495943 501.883995 
L 198.329855 506.621951 
L 194.490736 510.080658 
L 193.970481 510.767662 
L 190.723375 515.410858 
L 189.32407 519.082773 
L 185.646409 523.275864 
L 183.942127 528.179647 
L 182.524881 532.941293 
L 182.219905 533.415088 
L 178.793401 536.4 
L 177.91435 536.305241 
L 176.694443 535.949894 
L 176.102429 535.641927 
L 170.559027 532.325358 
L 167.132523 530.832902 
L 165.374422 529.766863 
L 159.274886 527.421575 
L 158.359955 527.326816 
L 154.574655 527.776921 
L 153.282989 528.842961 
L 151.991322 528.274407 
L 145.820027 524.839389 
L 145.012735 524.673561 
L 143.685189 524.223455 
L 143.146995 524.176075 
L 138.8235 521.120094 
L 133.764474 518.490529 
L 130.535308 516.453208 
L 124.023156 514.842303 
L 119.735541 511.928461 
L 118.695032 510.199107 
L 116.273157 505.532221 
L 112.846653 504.063455 
L 110.711816 503.565969 
L 108.41552 502.855276 
L 104.038206 500.699506 
L 103.60765 499.25443 
L 99.104758 496.790693 
L 97.651633 496.316898 
L 93.489597 494.634924 
L 90.421889 494.682303 
L 83.281844 490.583972 
L 74.868072 486.698848 
L 74.13254 486.225053 
L 69.665527 483.690247 
L 66.400481 479.639295 
L 65.951986 478.786463 
L 62.184625 476.275347 
L 58.076409 473.930059 
L 53.860553 471.797979 
L 49.016804 470.329213 
L 44.944467 468.244512 
L 41.392384 467.273231 
L 36.548635 464.548907 
L 31.973983 462.250999 
L 28.242502 462.061481 
L 26.968775 456.991868 
L 25.192734 446.615746 
L 25.174794 444.839013 
L 25.748868 439.627262 
L 26.932896 437.163525 
L 28.924215 432.472949 
L 32.2072 426.953231 
L 34.037061 425.105429 
L 36.261598 419.846298 
L 37.678843 415.582139 
L 38.288796 414.800376 
L 41.159166 410.630975 
L 41.948518 408.735793 
L 42.827569 404.045217 
L 43.365763 402.458002 
L 45.249443 397.506839 
L 49.160322 389.096968 
L 53.071201 380.639718 
L 55.600715 375.830693 
L 57.91495 370.595253 
L 62.399903 363.44094 
L 64.983236 357.992291 
L 69.36055 354.794172 
L 70.34724 353.822891 
L 73.056151 348.990176 
L 74.921892 344.702327 
L 76.679993 343.517838 
L 78.599553 339.869612 
L 80.411474 335.392244 
L 80.931729 334.681551 
L 83.784159 330.51215 
L 84.160895 329.754078 
L 87.013325 322.931422 
L 90.188671 317.032667 
L 91.713555 313.005405 
L 95.122119 307.698895 
L 97.472235 303.00832 
L 101.562512 296.493631 
L 104.038206 291.28188 
L 108.487279 282.77725 
L 108.971654 282.208696 
L 110.783575 279.365922 
L 113.761584 273.727756 
L 115.663204 268.231727 
L 117.134268 264.370294 
L 119.376745 260.745758 
L 121.224545 256.860635 
L 121.457763 256.007803 
L 123.538781 251.506745 
L 124.920146 250.772362 
L 128.113433 246.934618 
L 128.472229 246.200235 
L 131.23496 241.4149 
L 133.531256 237.127051 
L 134.12327 236.511116 
L 135.253478 234.497485 
L 137.011579 231.062468 
L 139.020838 228.077556 
L 140.079287 225.424301 
L 142.572921 220.781105 
L 144.528361 216.208978 
L 145.622689 214.432244 
L 147.918985 209.883807 
L 148.170142 208.983596 
L 152.098961 200.526345 
L 153.910882 198.015229 
L 155.579284 194.082726 
L 156.368636 192.66134 
L 160.082177 189.43953 
L 160.889469 187.757556 
L 163.885417 183.209119 
L 167.240162 178.471163 
L 169.267361 174.58604 
L 170.415509 173.52 
L 173.303818 169.871774 
L 173.967591 168.21349 
L 176.425345 164.115159 
L 177.107058 162.575323 
L 180.336224 156.818707 
L 182.596641 153.170482 
L 187.924765 142.983878 
L 188.552658 141.159765 
L 190.543977 136.990364 
L 193.450227 133.010482 
L 196.446175 127.727662 
L 198.419554 123.818848 
L 198.598953 122.942327 
L 201.989577 117.351539 
L 204.51909 112.755723 
L 206.295132 110.197227 
L 207.837956 108.302045 
L 210.385409 104.914407 
L 212.035871 100.910834 
L 212.771404 97.902233 
L 215.300917 93.164277 
L 218.225106 88.260494 
L 219.696171 86.412691 
L 221.65161 81.24832 
L 226.046864 72.956898 
L 226.746517 71.132785 
L 228.701956 66.750176 
L 229.114572 66.181622 
L 231.554386 62.272808 
L 231.859363 61.467356 
L 235.01677 55.900259 
L 237.600103 51.967756 
L 237.88714 51.304442 
L 240.219315 46.305899 
L 242.479732 42.397086 
L 244.488991 39.459553 
L 229.258091 32.4 
L 229.258091 32.4 
" clip-path="url(#p54c85b2ef2)" style="fill: none; stroke: #000000; stroke-width: 3"/>
   </g>
  </g>
 </g>
 <defs>
  <clipPath id="p54c85b2ef2">
   <rect x="7.2" y="7.2" width="395.445472" height="554.4"/>
  </clipPath>
 </defs>
</svg>
