<?xml version="1.0" encoding="utf-8" standalone="no"?>
<!DOCTYPE svg PUBLIC "-//W3C//DTD SVG 1.1//EN"
  "http://www.w3.org/Graphics/SVG/1.1/DTD/svg11.dtd">
<svg xmlns:xlink="http://www.w3.org/1999/xlink" width="404.076094pt" height="568.8pt" viewBox="0 0 404.076094 568.8" xmlns="http://www.w3.org/2000/svg" version="1.1">
 <metadata>
  <rdf:RDF xmlns:dc="http://purl.org/dc/elements/1.1/" xmlns:cc="http://creativecommons.org/ns#" xmlns:rdf="http://www.w3.org/1999/02/22-rdf-syntax-ns#">
   <cc:Work>
    <dc:type rdf:resource="http://purl.org/dc/dcmitype/StillImage"/>
    <dc:date>2022-02-16T02:07:18.045049</dc:date>
    <dc:format>image/svg+xml</dc:format>
    <dc:creator>
     <cc:Agent>
      <dc:title>Matplotlib v3.5.1, https://matplotlib.org/</dc:title>
     </cc:Agent>
    </dc:creator>
   </cc:Work>
  </rdf:RDF>
 </metadata>
 <defs>
  <style type="text/css">*{stroke-linejoin: round; stroke-linecap: butt}</style>
 </defs>
 <g id="figure_1">
  <g id="patch_1">
   <path d="M 0 568.8 
L 404.076094 568.8 
L 404.076094 0 
L 0 0 
z
" style="fill: #ffffff"/>
  </g>
  <g id="axes_1">
   <g id="LineCollection_1">
    <path d="M 247.304662 32.4 
L 247.740127 32.572514 
L 251.942367 34.613931 
L 256.536525 39.013041 
L 258.779172 41.399487 
L 262.480626 45.769844 
L 267.967489 48.271299 
L 273.519671 48.788841 
L 277.460632 49.823926 
L 285.364326 57.81708 
L 287.628745 60.433544 
L 288.978688 62.417457 
L 291.417293 67.59288 
L 291.504386 73.515865 
L 291.656799 74.665959 
L 293.420434 80.186411 
L 295.009882 82.055314 
L 300.975756 86.626938 
L 306.440845 88.323327 
L 307.355322 88.438336 
L 316.304133 90.278487 
L 323.162711 90.508506 
L 327.343178 91.284819 
L 330.478528 92.262399 
L 335.312192 94.447578 
L 338.09917 96.431491 
L 341.974811 101.376895 
L 344.631149 105.977272 
L 345.828678 108.910012 
L 348.354377 113.625398 
L 349.769639 114.689235 
L 363.573888 120.209687 
L 369.605082 121.273524 
L 370.454239 121.733562 
L 375.766916 124.206264 
L 378.488574 126.103919 
L 379.163545 127.915317 
L 378.553893 128.92165 
L 373.546043 132.026904 
L 367.101157 137.461099 
L 363.704528 141.888961 
L 362.093306 144.764196 
L 361.353015 145.655519 
L 358.087026 150.42841 
L 357.041909 153.36115 
L 354.929903 158.536574 
L 353.993652 161.641828 
L 351.925192 166.730994 
L 349.138215 172.768989 
L 346.634289 178.001917 
L 345.2408 181.22218 
L 337.641931 191.60178 
L 331.610737 197.438508 
L 326.210968 201.262571 
L 322.55306 205.172891 
L 318.829832 209.859524 
L 317.392797 212.475988 
L 314.105034 218.168954 
L 311.731748 224.781996 
L 309.07541 229.526134 
L 308.335119 231.337532 
L 306.331979 237.05925 
L 304.894943 242.177169 
L 303.80628 250.802875 
L 302.608751 254.971966 
L 301.585407 260.176142 
L 300.387878 264.172719 
L 299.016162 269.376895 
L 298.058139 272.424645 
L 297.361394 275.501147 
L 297.905726 283.781824 
L 298.972616 289.5898 
L 298.450057 292.637549 
L 295.510667 297.554202 
L 293.050288 299.078076 
L 289.675432 301.004484 
L 285.364326 303.6497 
L 284.493396 304.138491 
L 277.656591 309.083895 
L 272.147955 314.201814 
L 268.729553 317.824611 
L 265.115191 322.568749 
L 264.3749 323.258805 
L 261.413736 328.290467 
L 258.017107 333.350881 
L 256.819578 338.09502 
L 256.580072 344.33428 
L 257.777601 349.538456 
L 259.388823 354.311347 
L 258.953358 355.950231 
L 258.125974 356.55403 
L 256.993764 356.956563 
L 253.139896 357.64662 
L 247.7619 358.077905 
L 243.429021 358.796714 
L 237.767972 358.969228 
L 233.674599 358.192915 
L 226.184596 355.288927 
L 220.545321 353.707547 
L 213.120638 350.774807 
L 210.616713 350.142256 
L 200.905838 347.26702 
L 195.179469 345.944412 
L 188.799903 346.40445 
L 185.621007 346.979497 
L 180.482516 347.468287 
L 179.4374 347.26702 
L 173.188473 346.203183 
L 167.592745 344.104262 
L 165.850884 343.241691 
L 161.583324 340.308951 
L 159.405998 338.066267 
L 155.660996 333.09211 
L 154.332827 331.596988 
L 150.261227 327.399144 
L 147.822621 325.932774 
L 141.900294 322.82752 
L 136.261019 321.936197 
L 131.078982 322.022454 
L 129.445987 322.252473 
L 124.416363 323.862605 
L 123.654299 324.29389 
L 121.542293 325.87527 
L 120.279443 327.111621 
L 116.730401 331.25196 
L 115.837698 332.977101 
L 113.290226 337.088687 
L 110.568568 342.034092 
L 108.935573 344.44929 
L 106.409875 349.71097 
L 105.669584 351.608626 
L 102.57778 358.796714 
L 101.70685 361.930721 
L 99.616616 366.186069 
L 97.765889 371.447749 
L 96.30708 374.840527 
L 94.652312 382.488653 
L 92.148387 389.446723 
L 88.03324 398.589971 
L 85.420449 403.334109 
L 81.523034 408.107 
L 78.213498 413.109909 
L 68.41553 422.224405 
L 65.889831 424.150813 
L 61.818231 427.572343 
L 58.247416 431.367654 
L 54.80724 435.47924 
L 53.93631 436.255554 
L 48.754273 441.488482 
L 43.572236 447.871504 
L 37.214444 458.021085 
L 34.558105 462.765223 
L 33.164617 467.480609 
L 28.91883 470.988396 
L 25.543974 477.342666 
L 24.91255 479.757864 
L 25.173829 481.569262 
L 27.002783 488.067294 
L 27.503568 488.958617 
L 30.573598 493.213965 
L 33.382349 497.958104 
L 33.600082 498.964436 
L 36.495926 504.254869 
L 37.32331 505.088687 
L 41.765056 511.270443 
L 45.901976 514.950744 
L 46.990639 515.583296 
L 51.149332 518.861065 
L 51.824303 519.66613 
L 56.00477 523.720212 
L 58.639335 525.847886 
L 60.163463 526.825466 
L 63.712505 529.499435 
L 72.879049 533.46726 
L 74.729776 534.646106 
L 80.173092 535.853705 
L 86.073647 536.4 
L 91.647602 536.256238 
L 92.409666 535.968715 
L 96.720772 533.639774 
L 99.747256 529.355673 
L 103.535804 522.59887 
L 104.341414 519.982406 
L 105.669584 514.720726 
L 107.694497 509.085264 
L 108.674294 507.130104 
L 110.329062 500.890844 
L 110.568568 499.424474 
L 112.419295 495.255383 
L 114.574848 492.207633 
L 117.12232 487.060962 
L 119.909298 481.713024 
L 124.220404 474.611193 
L 125.5268 472.943556 
L 129.990319 468.630703 
L 131.66686 467.336848 
L 141.247096 459.343693 
L 142.94541 458.394866 
L 147.887941 456.813486 
L 150.653146 456.180934 
L 155.900502 456.12343 
L 157.75123 456.583467 
L 162.75908 458.049837 
L 168.550768 461.241349 
L 171.120013 463.110252 
L 176.040771 465.956735 
L 178.958388 467.221838 
L 184.902489 468.688208 
L 185.925832 468.745713 
L 191.173189 467.566866 
L 196.224586 465.582954 
L 197.073743 465.036659 
L 201.384849 461.471367 
L 202.168687 460.666302 
L 205.652409 456.727229 
L 207.699096 454.05326 
L 210.4643 449.539141 
L 210.812672 448.647818 
L 213.207731 442.983604 
L 215.515697 435.766764 
L 216.451948 433.581585 
L 221.046106 427.399829 
L 225.226573 423.777032 
L 227.0773 422.483176 
L 231.867418 419.320418 
L 232.868988 418.831628 
L 237.4196 415.985145 
L 244.387044 409.889646 
L 249.155389 406.295602 
L 251.114983 403.880404 
L 254.642252 397.813657 
L 256.536525 392.609481 
L 258.517892 387.520315 
L 258.931584 385.478898 
L 259.998474 378.7796 
L 261.37019 372.856615 
L 261.43551 371.879035 
L 261.544376 365.841041 
L 255.16481 351.896149 
L 253.727774 346.28944 
L 253.357629 341.861578 
L 253.314082 339.705151 
L 254.185013 335.363546 
L 257.16795 329.498066 
L 258.517892 327.83043 
L 260.629899 325.817765 
L 262.197574 322.712511 
L 269.230338 314.230566 
L 270.035949 313.684272 
L 274.499468 309.831456 
L 275.348625 309.428923 
L 279.790371 306.639945 
L 283.165227 304.282252 
L 289.653659 300.515694 
L 293.572846 296.691631 
L 294.705056 291.54496 
L 294.901015 287.260859 
L 294.313137 281.16536 
L 294.313137 279.555228 
L 294.66151 274.121034 
L 294.835696 273.258463 
L 296.054998 268.198049 
L 296.925929 265.897861 
L 298.297645 261.585008 
L 299.016162 260.089885 
L 301.389448 254.454424 
L 303.087762 248.588944 
L 303.610321 242.55095 
L 304.394158 240.998323 
L 306.201339 235.822899 
L 307.311776 233.206435 
L 309.924567 227.714736 
L 313.059917 222.625569 
L 313.800208 220.92918 
L 315.955761 216.64508 
L 320.375734 209.658258 
L 327.386724 200.284991 
L 328.780213 198.732364 
L 333.243732 192.924388 
L 337.250013 189.215335 
L 338.09917 188.726545 
L 341.974811 184.701215 
L 343.019927 183.436112 
L 345.981091 178.89324 
L 347.614086 173.746569 
L 349.813186 168.456136 
L 351.946965 162.044361 
L 354.64685 154.741263 
L 360.590951 144.936711 
L 363.682754 140.16382 
L 364.270633 139.531268 
L 367.362436 134.902139 
L 368.015634 134.29834 
L 372.043688 130.359267 
L 372.827525 129.927982 
L 374.765345 127.196509 
L 374.242787 125.701386 
L 372.936391 124.52254 
L 367.732581 122.538627 
L 365.925401 122.394866 
L 360.307899 120.784734 
L 355.975019 119.260859 
L 349.399494 116.21311 
L 345.414986 113.136608 
L 343.107021 107.386137 
L 339.971671 102.469485 
L 339.318473 101.779428 
L 335.050913 97.552832 
L 334.223529 97.006538 
L 330.043063 94.073798 
L 327.473817 93.009961 
L 320.811199 92.434914 
L 314.801778 92.63618 
L 313.756662 92.406161 
L 303.261949 90.278487 
L 297.840406 88.553346 
L 293.507527 85.79312 
L 289.914938 81.537772 
L 289.065781 80.071402 
L 288.129531 74.292179 
L 287.672292 68.139175 
L 286.692495 65.321444 
L 284.166797 61.583639 
L 279.550865 56.753243 
L 276.088916 52.727914 
L 273.301938 50.370221 
L 268.794873 49.421393 
L 263.155597 50.025193 
L 257.516322 51.434058 
L 255.730915 51.290296 
L 254.16324 50.226459 
L 251.09321 45.568578 
L 247.805447 41.456991 
L 247.805447 41.456991 
" clip-path="url(#p9fb59b5d50)" style="fill: none; stroke: #000000; stroke-width: 3"/>
   </g>
  </g>
 </g>
 <defs>
  <clipPath id="p9fb59b5d50">
   <rect x="7.2" y="7.2" width="389.676094" height="554.4"/>
  </clipPath>
 </defs>
</svg>
