<?xml version="1.0" encoding="utf-8" standalone="no"?>
<!DOCTYPE svg PUBLIC "-//W3C//DTD SVG 1.1//EN"
  "http://www.w3.org/Graphics/SVG/1.1/DTD/svg11.dtd">
<svg xmlns:xlink="http://www.w3.org/1999/xlink" width="293.281451pt" height="568.8pt" viewBox="0 0 293.281451 568.8" xmlns="http://www.w3.org/2000/svg" version="1.1">
 <metadata>
  <rdf:RDF xmlns:dc="http://purl.org/dc/elements/1.1/" xmlns:cc="http://creativecommons.org/ns#" xmlns:rdf="http://www.w3.org/1999/02/22-rdf-syntax-ns#">
   <cc:Work>
    <dc:type rdf:resource="http://purl.org/dc/dcmitype/StillImage"/>
    <dc:date>2022-02-22T01:27:40.730722</dc:date>
    <dc:format>image/svg+xml</dc:format>
    <dc:creator>
     <cc:Agent>
      <dc:title>Matplotlib v3.5.1, https://matplotlib.org/</dc:title>
     </cc:Agent>
    </dc:creator>
   </cc:Work>
  </rdf:RDF>
 </metadata>
 <defs>
  <style type="text/css">*{stroke-linejoin: round; stroke-linecap: butt}</style>
 </defs>
 <g id="figure_1">
  <g id="patch_1">
   <path d="M 0 568.8 
L 293.281451 568.8 
L 293.281451 0 
L 0 0 
z
" style="fill: #ffffff"/>
  </g>
  <g id="axes_1">
   <g id="LineCollection_1">
    <path d="M 209.052252 109.690784 
L 208.943325 110.486749 
L 208.231406 112.150573 
L 207.601183 113.552499 
L 207.009863 114.985236 
L 206.784227 116.099587 
L 206.041187 116.690142 
L 205.624928 117.357726 
L 204.407275 119.755892 
L 203.652564 120.592939 
L 202.773364 122.09757 
L 201.621845 123.217056 
L 200.715413 124.531683 
L 199.147636 127.617973 
L 197.976667 129.518019 
L 197.264748 130.863457 
L 196.84849 131.5105 
L 195.97707 133.559468 
L 195.09787 134.350298 
L 193.876327 137.16442 
L 191.631644 141.739936 
L 191.020872 143.532141 
L 189.989952 145.771114 
L 188.624469 147.845759 
L 187.188961 150.839615 
L 186.955545 152.030995 
L 186.099687 152.33911 
L 185.42278 152.385328 
L 184.67974 152.287758 
L 184.753655 152.467492 
L 184.83535 153.093994 
L 183.329818 155.738652 
L 183.135304 156.349748 
L 181.851517 158.424392 
L 181.695906 158.429528 
L 181.15905 158.845484 
L 180.886731 159.45658 
L 180.369326 160.858505 
L 180.093117 161.44906 
L 180.050324 161.818799 
L 180.081446 162.748281 
L 179.606834 164.550757 
L 178.206338 165.983494 
L 177.521652 166.455938 
L 176.871977 167.821917 
L 176.296218 169.434388 
L 174.705099 172.181751 
L 173.751984 174.225585 
L 172.643259 175.540211 
L 170.659223 179.19138 
L 169.410448 181.687116 
L 167.558682 185.184227 
L 167.317486 185.826135 
L 167.037386 186.478313 
L 165.741928 188.275653 
L 165.372353 189.759743 
L 164.411457 191.531408 
L 163.555599 192.327373 
L 163.287171 192.825493 
L 162.83201 193.005227 
L 161.711613 194.910408 
L 161.785528 195.608803 
L 162.462434 196.779642 
L 163.108218 197.164787 
L 163.341634 197.878588 
L 163.800686 199.773498 
L 163.824027 201.694085 
L 163.520587 202.633838 
L 163.683978 204.503072 
L 163.979638 206.993673 
L 163.384427 207.481522 
L 163.380537 208.472627 
L 163.691758 210.362403 
L 164.419238 212.010821 
L 164.60208 213.356259 
L 163.726771 213.761944 
L 163.57116 214.337093 
L 162.551911 215.307657 
L 161.482088 215.831453 
L 160.326679 218.871527 
L 159.887079 219.605869 
L 159.61476 221.356992 
L 159.109026 222.224851 
L 158.832817 223.215956 
L 158.968976 225.023567 
L 158.891171 226.066025 
L 158.564389 226.487116 
L 158.362095 227.354975 
L 157.506236 227.930124 
L 155.732275 228.695277 
L 155.000906 229.311508 
L 154.028339 230.626135 
L 153.180261 231.478588 
L 152.876821 232.2232 
L 152.678417 233.455663 
L 152.775674 235.283815 
L 152.530587 235.925722 
L 152.258268 236.531683 
L 152.662856 237.070885 
L 153.172481 237.471435 
L 153.226945 237.733333 
L 153.098566 238.308482 
L 152.098768 239.540945 
L 151.69418 240.306098 
L 151.519118 241.086657 
L 151.153433 241.800459 
L 150.927798 242.565612 
L 150.558223 246.463274 
L 150.616576 249.539294 
L 149.659571 252.43558 
L 149.445607 253.221275 
L 148.924311 254.104539 
L 147.58606 257.016231 
L 147.399327 257.812196 
L 146.737982 259.152499 
L 146.080527 259.624943 
L 145.115741 260.107657 
L 144.501079 260.646859 
L 143.92532 261.75094 
L 142.707667 264.077212 
L 141.649515 265.438056 
L 141.349964 266.167263 
L 141.167122 267.024851 
L 140.326825 267.836222 
L 139.793858 268.062173 
L 139.537101 268.770839 
L 139.334807 270.460339 
L 139.097501 271.364145 
L 138.965232 271.610637 
L 138.735706 272.642824 
L 138.467278 272.837964 
L 136.218705 273.454195 
L 135.281151 274.157726 
L 134.009034 275.590463 
L 132.873076 277.423751 
L 132.911979 278.235122 
L 133.250432 279.375149 
L 133.254322 279.657588 
L 132.799161 280.135167 
L 131.678765 280.97735 
L 129.873682 282.081431 
L 129.010043 283.005777 
L 127.79239 285.43989 
L 127.531742 285.722329 
L 126.952092 286.718569 
L 126.738128 287.514535 
L 126.734238 288.978083 
L 126.341321 289.584044 
L 125.991197 289.809995 
L 125.217034 290.775424 
L 123.458634 294.195507 
L 123.462524 294.744979 
L 123.625916 296.105823 
L 123.622025 297.12774 
L 123.462524 298.22155 
L 122.552202 300.034296 
L 122.279884 302.016506 
L 121.618539 303.988446 
L 121.322879 305.323613 
L 120.766571 306.581751 
L 120.214153 307.300688 
L 119.88348 308.117194 
L 119.720089 309.015864 
L 119.28827 310.438331 
L 118.366277 310.30995 
L 117.506528 311.028886 
L 117.261442 311.763228 
L 116.907427 313.468134 
L 116.21885 314.145988 
L 115.989325 315.809812 
L 114.861148 316.117928 
L 113.666836 316.65713 
L 112.316914 317.966621 
L 110.955321 318.808803 
L 110.231732 319.604768 
L 109.663753 320.503439 
L 107.551339 323.178909 
L 106.925007 324.257313 
L 101.587563 333.516185 
L 99.700784 336.869509 
L 98.883828 337.352224 
L 98.315849 338.523063 
L 98.086324 340.500138 
L 96.895903 341.922604 
L 96.456303 342.811004 
L 95.565432 344.289959 
L 94.468377 345.845942 
L 93.503591 348.069509 
L 93.309078 348.464924 
L 93.414115 349.394406 
L 93.363542 350.236589 
L 93.05232 350.673086 
L 92.31317 351.304723 
L 89.660009 354.6221 
L 87.014629 358.221917 
L 85.917574 360.712517 
L 85.213436 362.869326 
L 81.646062 371.265475 
L 80.510105 373.802293 
L 76.098544 383.75956 
L 74.682488 387.32343 
L 73.145833 390.307015 
L 72.204389 393.146813 
L 72.029327 395.190646 
L 71.504141 396.407703 
L 71.504141 396.407703 
L 71.473019 396.669601 
L 71.434116 397.106098 
L 71.169578 397.92774 
L 70.628831 403.217056 
L 69.944144 404.095186 
L 70.539355 405.209537 
L 70.683295 405.764145 
L 70.698856 406.86309 
L 70.348732 407.340669 
L 70.045291 408.922329 
L 70.286488 409.507749 
L 70.232024 411.099679 
L 69.796314 411.998349 
L 69.605691 413.477304 
L 69.59402 414.473544 
L 69.333373 415.664924 
L 69.43452 416.830628 
L 69.403397 418.576616 
L 68.450282 421.842641 
L 68.944346 422.772123 
L 69.14275 425.047043 
L 69.535666 426.859789 
L 69.422849 427.666025 
L 68.240208 428.06144 
L 67.67612 429.637964 
L 67.053677 433.268592 
L 66.730785 434.886199 
L 66.318417 437.433287 
L 66.06555 438.321687 
L 65.9255 440.986887 
L 65.143557 442.722604 
L 65.205801 443.364512 
L 64.937373 446.563778 
L 63.910343 451.437139 
L 63.774184 451.832554 
L 62.646007 454.153691 
L 61.183267 455.925355 
L 60.634739 456.849702 
L 59.62327 458.256763 
L 57.538088 461.728198 
L 56.289313 463.54608 
L 55.114453 465.882623 
L 54.19635 466.858322 
L 52.87366 469.246217 
L 52.223986 470.48895 
L 51.605434 471.783035 
L 51.103589 473.046309 
L 50.730124 473.5547 
L 50.271073 474.360935 
L 49.948181 475.162036 
L 48.501002 476.558826 
L 47.15497 478.196974 
L 46.843749 479.116185 
L 46.695919 480.287024 
L 45.941207 480.908391 
L 45.746694 481.411646 
L 45.785597 482.27437 
L 45.906195 482.305181 
L 46.614223 482.428427 
L 47.3028 482.361669 
L 47.505094 482.644108 
L 48.03806 482.757084 
L 48.62549 482.818707 
L 49.679752 483.229528 
L 50.465586 483.609537 
L 52.523536 483.999817 
L 53.698396 483.948464 
L 54.530913 484.184686 
L 55.238941 485.843375 
L 55.94697 486.973132 
L 57.685918 488.210729 
L 57.110159 490.357267 
L 55.841933 491.682164 
L 53.912361 492.98652 
L 52.924234 493.381935 
L 51.123041 493.674645 
L 50.784588 494.028978 
L 50.344988 495.148464 
L 48.606039 494.634938 
L 46.462503 494.989271 
L 45.606644 495.692801 
L 45.509388 496.016323 
L 45.334326 497.418249 
L 44.875275 498.589088 
L 44.353979 500.91536 
L 44.36565 501.495644 
L 44.237271 502.579184 
L 44.392882 504.628152 
L 44.80914 506.179 
L 44.848043 507.411463 
L 44.66131 508.459055 
L 44.94919 512.428611 
L 44.723554 515.7768 
L 44.548492 516.629253 
L 44.163356 516.891151 
L 43.311388 516.819257 
L 42.229894 517.569005 
L 42.257126 518.015773 
L 43.303607 522.545071 
L 43.579816 523.541311 
L 43.136326 523.751857 
L 40.969448 523.320495 
L 39.456135 522.596424 
L 38.993193 522.955892 
L 38.432995 523.053462 
L 35.954896 522.23182 
L 35.297441 521.836405 
L 33.305625 520.799083 
L 30.208974 520.311233 
L 29.065236 520.265016 
L 27.551923 519.992847 
L 25.513424 520.028794 
L 20.199322 520.901788 
L 19.87643 521.117469 
L 19.981467 521.620724 
L 20.483311 522.098304 
L 21.097973 522.046951 
L 22.22615 521.718294 
L 22.914727 521.641265 
L 23.70056 521.785053 
L 24.202405 521.923705 
L 24.587541 521.882623 
L 24.832628 521.641265 
L 25.44729 519.854195 
L 25.999707 519.54608 
L 26.221452 519.535809 
L 28.193817 519.859331 
L 28.82404 520.285557 
L 29.275311 520.326639 
L 30.360695 519.756625 
L 30.679696 519.730949 
L 32.659841 519.782302 
L 33.574054 520.059606 
L 34.083679 520.439615 
L 34.54662 521.179092 
L 34.873402 522.082898 
L 34.920086 522.986703 
L 34.488266 523.772398 
L 34.196496 525.210271 
L 34.527169 528.840899 
L 34.865622 529.698487 
L 35.270209 530.191472 
L 35.740932 530.586887 
L 36.534546 531.03879 
L 37.304818 531.886107 
L 37.806662 532.050436 
L 38.553593 532.060706 
L 40.942216 531.834755 
L 41.658025 532.266116 
L 42.128747 534.068592 
L 42.813434 534.931316 
L 43.097423 535.12132 
L 44.283954 535.768363 
L 44.556273 536.163778 
L 45.042556 536.4 
L 45.583303 536.328106 
L 47.392276 535.634846 
L 49.535812 534.782393 
L 51.204736 534.227785 
L 52.449621 533.591013 
L 54.227472 533.118569 
L 55.522931 532.466392 
L 56.697791 531.577992 
L 59.051401 529.518753 
L 59.642722 529.226043 
L 61.420573 527.952499 
L 62.649897 526.432462 
L 63.171192 525.949748 
L 65.124106 524.578634 
L 66.283405 523.058597 
L 66.388442 522.308849 
L 66.691883 521.862082 
L 68.862651 520.167446 
L 69.337263 519.715543 
L 70.150328 518.339294 
L 70.796112 517.301972 
L 70.955613 515.941128 
L 71.504141 515.222192 
L 72.317206 514.713801 
L 73.173065 514.513526 
L 75.530565 513.29647 
L 76.779341 512.988354 
L 77.677992 512.772673 
L 80.459532 511.062632 
L 82.980423 509.337185 
L 87.458119 507.863365 
L 89.313775 506.081431 
L 91.017712 504.915727 
L 92.274267 503.149198 
L 93.593067 501.783219 
L 95.083039 500.971848 
L 97.29271 499.148831 
L 98.125226 498.691793 
L 100.587764 498.681522 
L 101.354147 498.404218 
L 101.677039 498.296378 
L 105.294985 497.531224 
L 107.971488 496.093352 
L 109.702656 495.035488 
L 113.293371 494.239523 
L 119.054854 493.048143 
L 125.01085 492.118661 
L 125.617731 492.318936 
L 126.590298 492.18542 
L 127.722365 491.30729 
L 128.81553 490.942687 
L 134.650928 489.376433 
L 135.499005 489.242916 
L 136.370425 489.145346 
L 144.547763 487.779367 
L 146.337285 487.666392 
L 146.745762 487.543145 
L 147.430449 487.73315 
L 150.328697 487.866667 
L 151.215677 488.323705 
L 151.604704 488.934801 
L 152.42944 489.643466 
L 154.549635 489.484273 
L 154.755819 489.417515 
L 153.794923 489.689684 
L 153.31253 489.746171 
L 152.448891 489.453462 
L 151.168994 487.943696 
L 151.067847 487.630445 
L 151.009493 486.993673 
L 151.176775 485.987162 
L 149.966902 476.332875 
L 149.714035 475.162036 
L 149.749047 473.390371 
L 149.990244 472.887116 
L 150.422063 472.537918 
L 150.725504 472.466025 
L 155.94624 471.664924 
L 158.887281 471.141128 
L 163.987418 470.324622 
L 164.380335 470.062724 
L 164.757691 469.50298 
L 164.718788 469.384869 
L 163.905723 469.117836 
L 163.069316 468.932967 
L 161.606576 468.3989 
L 153.693776 465.363961 
L 153.242506 464.978817 
L 153.055773 464.429344 
L 153.098566 464.14177 
L 153.837716 462.703897 
L 154.77527 461.36873 
L 155.919008 459.217056 
L 156.521999 458.369739 
L 156.603695 456.829161 
L 156.790428 456.397799 
L 157.576261 455.452912 
L 157.961397 454.723705 
L 158.474912 453.958551 
L 159.260746 452.217698 
L 160.143836 450.46144 
L 159.883188 449.58331 
L 160.104934 448.5768 
L 161.404282 445.326181 
L 162.147323 444.021825 
L 162.867022 441.510683 
L 163.738441 439.143329 
L 164.664325 437.253553 
L 166.823422 433.0221 
L 169.017531 428.6674 
L 172.227 423.198349 
L 175.14859 418.011738 
L 179.365637 410.396149 
L 181.019 407.510133 
L 181.867078 405.984961 
L 182.244434 405.430353 
L 182.536204 404.803851 
L 184.563032 400.998624 
L 184.699191 400.675103 
L 188.19654 394.369005 
L 189.390851 392.376525 
L 189.943269 390.60486 
L 189.725414 389.685649 
L 189.970501 388.951307 
L 190.791347 387.580193 
L 192.199623 385.289867 
L 192.514734 384.740394 
L 192.541966 384.25768 
L 192.246306 383.687666 
L 192.137378 383.081706 
L 191.705559 381.351123 
L 191.596631 379.553783 
L 191.72501 378.783494 
L 191.13758 377.206969 
L 190.904164 376.380193 
L 190.476235 375.05016 
L 189.81489 374.505823 
L 187.449609 373.175791 
L 185.940186 372.051169 
L 181.427478 370.135718 
L 177.253223 367.711875 
L 176.128937 366.936451 
L 173.152884 365.447226 
L 171.725156 364.440715 
L 170.277977 363.655021 
L 170.445259 362.864191 
L 171.063811 361.349289 
L 174.109889 355.613205 
L 174.907393 353.964787 
L 176.432377 351.695002 
L 179.669078 345.948647 
L 181.649223 342.117744 
L 182.442837 340.690142 
L 182.816303 339.960935 
L 183.51266 338.913343 
L 184.656398 336.725722 
L 184.850911 336.463824 
L 185.496695 335.38542 
L 185.613403 334.769188 
L 185.26328 334.055387 
L 184.228469 333.346722 
L 181.085135 331.739386 
L 180.233166 331.631545 
L 179.820798 331.318294 
L 176.774721 329.870151 
L 176.090034 328.997157 
L 174.386098 328.201192 
L 173.075078 327.35901 
L 172.355379 326.76332 
L 169.838377 325.325447 
L 169.554388 325.130307 
L 168.26282 324.729757 
L 167.904916 324.30353 
L 167.994392 323.810546 
L 168.433992 323.10188 
L 169.103117 322.264833 
L 169.955085 320.087483 
L 170.534735 319.676662 
L 170.814834 319.209354 
L 171.110494 318.356901 
L 171.040469 317.853645 
L 170.89653 317.704723 
L 169.184813 316.513343 
L 168.340625 315.352774 
L 166.990703 314.931683 
L 166.162077 314.983035 
L 165.096144 314.582485 
L 162.073408 312.70298 
L 159.879298 311.229161 
L 159.536955 311.259972 
L 158.906732 310.505089 
L 158.198704 309.842641 
L 157.062746 309.169922 
L 156.284693 308.425309 
L 155.498859 307.927189 
L 154.0439 307.321229 
L 153.580959 306.864191 
L 152.371086 305.133608 
L 151.970389 304.712517 
L 150.982261 304.157909 
L 149.885207 303.557084 
L 148.111246 303.135993 
L 145.430853 301.497845 
L 143.263975 300.732691 
L 141.917943 299.808345 
L 140.354057 299.079138 
L 139.611016 298.894269 
L 138.35446 298.437231 
L 137.109575 297.682348 
L 136.518255 297.589913 
L 135.156662 296.840165 
L 134.966039 296.645025 
L 135.981398 294.303347 
L 137.311869 290.811371 
L 137.432467 289.953783 
L 137.160149 289.039707 
L 137.374113 288.387529 
L 138.416704 286.528565 
L 139.299795 284.109858 
L 140.980389 281.023567 
L 141.384977 280.263549 
L 141.960736 278.8 
L 143.450708 277.105365 
L 146.364516 272.288492 
L 147.251497 270.429528 
L 148.438028 269.073819 
L 149.34835 268.462724 
L 150.686601 266.495919 
L 151.161214 265.427785 
L 151.651387 264.149106 
L 152.223256 263.183677 
L 152.483904 262.890967 
L 154.296767 260.297662 
L 154.751929 258.823842 
L 154.592428 258.495186 
L 155.179858 257.514351 
L 156.327486 255.557818 
L 158.498254 250.25823 
L 161.36927 245.066483 
L 162.633606 241.754241 
L 163.010962 241.230445 
L 165.255645 238.868226 
L 167.410852 235.509766 
L 168.235588 234.313251 
L 168.877482 233.01403 
L 169.780023 231.81238 
L 170.091245 230.841816 
L 170.013439 230.543971 
L 170.149599 229.424484 
L 171.511192 224.78221 
L 172.966151 222.20431 
L 174.580611 220.376158 
L 176.004448 217.721229 
L 176.603549 216.724989 
L 176.871977 216.668501 
L 178.194667 215.097111 
L 178.455315 214.681155 
L 179.754664 213.032737 
L 179.739103 212.339477 
L 181.785382 209.458597 
L 183.407623 206.721504 
L 183.913357 206.182302 
L 184.201237 204.677671 
L 184.205127 204.261715 
L 184.049517 203.553049 
L 183.594356 203.024117 
L 182.933011 202.567079 
L 180.87117 200.60541 
L 180.898402 198.823475 
L 181.851517 197.647501 
L 182.497301 197.211004 
L 183.50488 196.492068 
L 184.368518 195.316094 
L 185.037644 194.324989 
L 185.804026 192.414672 
L 188.06038 188.065108 
L 189.472547 186.31912 
L 190.943067 185.03017 
L 192.973785 184.0442 
L 193.709046 184.0442 
L 195.38186 184.383127 
L 195.755325 184.583402 
L 197.821056 186.031545 
L 198.645792 186.144521 
L 199.509431 186.082898 
L 200.742645 185.795323 
L 201.470125 185.410179 
L 203.477502 183.530674 
L 204.310019 181.979826 
L 204.516203 181.158184 
L 205.029718 180.043833 
L 205.628819 179.09381 
L 206.278493 178.472444 
L 210.966263 174.908574 
L 211.180227 174.595323 
L 212.207257 172.44365 
L 212.891944 170.096836 
L 213.063116 168.458689 
L 212.604064 166.738377 
L 211.685962 165.048877 
L 211.615937 164.561027 
L 211.631498 163.611004 
L 211.798779 162.660981 
L 212.145013 161.762311 
L 213.973438 159.27171 
L 214.556977 158.66575 
L 216.362061 157.19193 
L 217.81313 156.467859 
L 218.365547 155.959468 
L 218.750683 155.332967 
L 219.065795 153.807795 
L 219.089137 153.42265 
L 219.023002 151.84099 
L 219.236967 150.788262 
L 220.02669 148.066575 
L 220.555767 146.043283 
L 222.162446 142.053187 
L 222.734315 140.979917 
L 224.247628 138.966896 
L 226.500092 136.686841 
L 228.063979 134.473544 
L 228.239041 134.134617 
L 229.907964 130.098304 
L 232.020378 126.888767 
L 232.798432 126.113343 
L 234.778577 124.952774 
L 236.571989 124.37249 
L 237.599019 124.146538 
L 238.727196 124.203026 
L 240.789037 124.521412 
L 241.85886 124.716552 
L 242.819755 124.639523 
L 244.185238 124.074645 
L 244.94773 123.28895 
L 247.355804 119.196149 
L 251.97744 110.661348 
L 257.447153 100.729757 
L 258.57922 98.192939 
L 258.956576 97.001559 
L 259.061613 96.174782 
L 259.084954 92.806052 
L 259.45453 88.903255 
L 259.213333 87.681064 
L 257.517177 83.690967 
L 257.614434 82.848785 
L 257.937326 81.842274 
L 259.143308 79.223292 
L 260.520462 77.015131 
L 262.504498 74.529665 
L 265.803443 71.042824 
L 266.799351 69.224943 
L 266.877156 68.834663 
L 266.904388 67.638148 
L 266.725435 64.824026 
L 267.024986 62.261531 
L 267.631867 59.272811 
L 268.098699 58.132783 
L 268.728922 57.17249 
L 269.316352 56.607611 
L 272.700883 54.194039 
L 273.202727 53.562403 
L 273.405021 52.828061 
L 273.303874 51.965337 
L 272.80592 51.210454 
L 271.611609 50.583952 
L 271.168118 50.496653 
L 270.253906 50.573682 
L 268.977899 51.23613 
L 267.08334 52.81779 
L 266.157457 53.01293 
L 265.200451 52.781843 
L 264.784193 52.509674 
L 264.247336 51.708574 
L 264.107287 51.256671 
L 264.169531 50.327189 
L 264.73751 49.135809 
L 267.838051 45.299771 
L 268.26209 44.534617 
L 269.405828 41.669143 
L 269.612012 39.373682 
L 269.545878 39.091243 
L 269.180193 38.367171 
L 268.686129 37.781751 
L 267.53072 36.590371 
L 265.375513 34.947088 
L 262.932427 33.699221 
L 261.006745 33.237047 
L 259.586799 33.005961 
L 258.703708 32.918661 
L 258.380816 32.892985 
L 256.641868 32.4 
L 256.416232 32.415406 
L 255.393093 32.857038 
L 254.354392 33.714626 
L 253.510204 35.152499 
L 253.335142 36.821458 
L 253.385716 37.042274 
L 253.73973 37.884457 
L 254.486661 38.618799 
L 256.027206 39.111784 
L 257.439372 39.312059 
L 257.653337 39.445575 
L 258.423609 40.344246 
L 258.839868 41.058047 
L 258.999369 41.592114 
L 259.322261 44.858138 
L 260.065301 46.619532 
L 260.127545 47.420633 
L 259.991386 48.617148 
L 259.283358 50.33746 
L 257.824508 52.02696 
L 256.82471 52.812655 
L 254.692845 53.870518 
L 254.136537 54.034846 
L 252.817737 54.548372 
L 252.035794 55.046492 
L 251.374449 55.683265 
L 250.96208 56.376525 
L 249.861135 59.021183 
L 249.612158 59.329298 
L 248.775751 60.094452 
L 248.16887 60.438514 
L 243.994615 62.03558 
L 242.796413 62.903439 
L 241.528187 64.099954 
L 239.120113 68.793581 
L 237.61069 73.163686 
L 236.00012 75.243466 
L 235.148152 75.931591 
L 234.226159 76.50674 
L 232.323819 77.970289 
L 231.541876 79.130857 
L 231.339582 79.747088 
L 231.133398 81.95525 
L 231.253996 83.855296 
L 231.273448 84.235305 
L 231.253996 84.718019 
L 230.833848 85.596149 
L 230.42926 86.181568 
L 229.382779 87.254837 
L 228.301285 87.799175 
L 225.115158 89.237047 
L 223.524039 90.248693 
L 221.715066 91.861165 
L 221.252124 92.405502 
L 220.088935 94.187437 
L 219.641554 94.967996 
L 218.583402 97.50995 
L 218.40834 98.393214 
L 218.303303 99.687299 
L 218.322754 101.674645 
L 219.898312 106.784227 
L 219.902202 108.494269 
L 219.614322 109.500779 
L 218.723452 111.036222 
L 217.505799 112.941403 
L 216.20645 114.281706 
L 214.374135 115.812013 
L 212.946408 116.833929 
L 211.114093 118.492618 
L 211.012946 118.359101 
L 211.639278 116.556625 
L 211.829901 115.308757 
L 211.95439 114.600092 
L 211.911597 113.080055 
L 211.623717 111.637047 
L 210.958482 110.384044 
L 210.526663 109.90133 
L 209.966464 109.516185 
L 208.246967 108.586703 
L 206.107321 107.313159 
L 201.606284 104.499037 
L 201.606284 104.499037 
" clip-path="url(#pe667afe595)" style="fill: none; stroke: #000000; stroke-width: 3"/>
   </g>
  </g>
 </g>
 <defs>
  <clipPath id="pe667afe595">
   <rect x="7.2" y="7.2" width="278.881451" height="554.4"/>
  </clipPath>
 </defs>
</svg>
