<?xml version="1.0" encoding="utf-8" standalone="no"?>
<!DOCTYPE svg PUBLIC "-//W3C//DTD SVG 1.1//EN"
  "http://www.w3.org/Graphics/SVG/1.1/DTD/svg11.dtd">
<svg xmlns:xlink="http://www.w3.org/1999/xlink" width="217.406096pt" height="568.8pt" viewBox="0 0 217.406096 568.8" xmlns="http://www.w3.org/2000/svg" version="1.1">
 <metadata>
  <rdf:RDF xmlns:dc="http://purl.org/dc/elements/1.1/" xmlns:cc="http://creativecommons.org/ns#" xmlns:rdf="http://www.w3.org/1999/02/22-rdf-syntax-ns#">
   <cc:Work>
    <dc:type rdf:resource="http://purl.org/dc/dcmitype/StillImage"/>
    <dc:date>2022-03-04T01:31:34.580068</dc:date>
    <dc:format>image/svg+xml</dc:format>
    <dc:creator>
     <cc:Agent>
      <dc:title>Matplotlib v3.5.1, https://matplotlib.org/</dc:title>
     </cc:Agent>
    </dc:creator>
   </cc:Work>
  </rdf:RDF>
 </metadata>
 <defs>
  <style type="text/css">*{stroke-linejoin: round; stroke-linecap: butt}</style>
 </defs>
 <g id="figure_1">
  <g id="patch_1">
   <path d="M 0 568.8 
L 217.406096 568.8 
L 217.406096 0 
L 0 0 
z
" style="fill: #ffffff"/>
  </g>
  <g id="axes_1">
   <g id="LineCollection_1">
    <path d="M 200.978546 37.072953 
L 199.677826 36.753435 
L 199.062757 36.553736 
L 198.457771 36.141025 
L 196.219322 35.062652 
L 194.29345 33.891085 
L 193.164143 32.493193 
L 192.871733 32.4 
L 192.488575 32.626325 
L 192.004586 33.105603 
L 191.087024 36.234218 
L 190.441706 37.791869 
L 188.596498 41.120184 
L 187.62852 43.370124 
L 184.906083 48.043078 
L 184.613673 48.109644 
L 184.442261 48.948379 
L 183.514615 49.680609 
L 183.101208 50.239765 
L 181.024089 53.661273 
L 179.844367 56.257358 
L 179.56204 57.588684 
L 179.178882 58.414106 
L 177.686583 60.743926 
L 177.25301 61.848926 
L 176.839602 63.513083 
L 176.295115 64.72459 
L 175.165808 66.601759 
L 174.91373 67.13429 
L 173.653343 69.277724 
L 169.12603 77.731643 
L 167.845476 79.289294 
L 165.849022 81.951945 
L 165.314618 82.923813 
L 162.017444 88.8349 
L 160.565478 91.976829 
L 159.758829 94.160203 
L 158.417777 97.421951 
L 157.439716 99.33906 
L 151.359606 110.082859 
L 144.160272 124.141659 
L 141.347087 128.881179 
L 139.582545 132.289373 
L 135.871963 138.346905 
L 135.30731 139.904557 
L 133.875509 141.968112 
L 130.729582 146.254981 
L 127.099666 152.365766 
L 125.264541 154.842032 
L 123.217672 158.090467 
L 120.535567 163.429083 
L 117.924044 167.889024 
L 114.314294 174.332641 
L 109.817231 183.705175 
L 107.750195 186.887043 
L 106.439392 189.456502 
L 105.179004 192.878009 
L 104.846262 193.90313 
L 99.169476 202.064157 
L 98.443493 203.861447 
L 97.213354 205.592171 
L 96.900778 206.351026 
L 96.709199 207.123195 
L 95.771471 220.609525 
L 95.448812 221.980791 
L 95.307648 223.352056 
L 95.428646 225.08278 
L 96.053798 227.94513 
L 95.337898 231.553023 
L 95.297565 234.508566 
L 95.589975 237.610556 
L 95.700889 242.629654 
L 95.468978 244.706522 
L 95.721055 247.901704 
L 95.741222 251.935621 
L 95.398396 252.894175 
L 94.853909 253.826103 
L 94.117842 256.621888 
L 94.349754 257.607069 
L 95.347981 259.723877 
L 96.205044 263.265203 
L 96.073964 264.237071 
L 95.559726 267.139361 
L 95.721055 269.269483 
L 97.294019 273.383279 
L 97.84859 274.261954 
L 100.692024 277.137618 
L 100.954185 277.96304 
L 100.994517 278.482257 
L 101.337343 279.520691 
L 102.113741 280.958523 
L 102.416235 282.516174 
L 102.194406 283.474729 
L 100.298783 288.174309 
L 99.603049 291.302924 
L 99.955958 292.461178 
L 99.310639 300.009795 
L 98.251914 302.486061 
L 97.919171 304.283351 
L 97.626762 306.626484 
L 96.719282 309.834979 
L 95.942884 311.805341 
L 95.579892 313.76239 
L 95.065654 314.787511 
L 94.168258 316.930945 
L 93.391859 320.019621 
L 92.847372 324.160044 
L 92.272635 326.157033 
L 88.612469 335.676012 
L 87.604159 337.79282 
L 86.837844 338.884507 
L 82.623107 348.882764 
L 79.396515 355.353007 
L 79.225102 355.952104 
L 79.336016 356.431381 
L 80.142665 356.577827 
L 81.897124 356.378128 
L 83.96416 356.71096 
L 84.851473 357.230177 
L 85.769035 359.65319 
L 85.68837 361.650178 
L 84.175905 364.419336 
L 81.574465 368.799398 
L 80.384659 372.780062 
L 79.47718 374.803677 
L 77.994964 379.756209 
L 76.855574 382.485427 
L 76.230421 384.162897 
L 74.395297 387.77079 
L 71.743441 391.591695 
L 68.587431 399.832602 
L 64.796185 406.835375 
L 63.535797 408.739171 
L 62.204828 410.363389 
L 60.843609 412.240558 
L 58.524496 417.19309 
L 56.517959 420.441525 
L 55.570148 422.252128 
L 54.793749 423.370441 
L 53.85602 425.567129 
L 52.464553 426.605563 
L 52.666215 427.018274 
L 51.859566 427.976829 
L 47.594415 431.930866 
L 46.717185 432.955987 
L 45.527379 435.658578 
L 44.660232 437.17629 
L 43.500676 438.307917 
L 41.675635 440.664363 
L 41.544554 441.26346 
L 41.050482 442.355147 
L 39.941341 444.352136 
L 37.390317 448.519185 
L 36.261009 451.101957 
L 32.308434 457.252682 
L 31.653032 458.970093 
L 31.441287 460.647563 
L 30.634639 462.231841 
L 28.416357 465.360456 
L 27.28705 468.968349 
L 25.915748 472.057025 
L 24.625111 475.438593 
L 21.126275 482.973897 
L 18.938242 486.155765 
L 18.393754 486.927934 
L 16.42755 492.399683 
L 16.85104 493.704382 
L 19.180236 495.168841 
L 29.827991 500.760409 
L 32.560511 502.105048 
L 35.202284 503.649386 
L 38.418793 505.819447 
L 46.79785 512.609208 
L 50.609262 514.885775 
L 54.713084 516.842824 
L 58.50433 519.092765 
L 62.557737 520.863428 
L 63.465216 521.409272 
L 72.408926 526.015659 
L 73.5584 528.132467 
L 73.457569 528.997829 
L 72.247597 532.299517 
L 69.999065 535.734337 
L 68.153858 536.4 
L 66.338899 536.213614 
L 63.12239 535.574578 
L 60.621781 534.576084 
L 57.012031 532.406023 
L 55.660896 530.928251 
L 54.481173 529.916443 
L 54.077849 529.783311 
L 53.714857 529.503732 
L 53.684608 529.636865 
L 53.694691 529.623552 
" clip-path="url(#p46f818231f)" style="fill: none; stroke: #000000; stroke-width: 3"/>
   </g>
  </g>
 </g>
 <defs>
  <clipPath id="p46f818231f">
   <rect x="7.2" y="7.2" width="203.006096" height="554.4"/>
  </clipPath>
 </defs>
</svg>
