<?xml version="1.0" encoding="utf-8" standalone="no"?>
<!DOCTYPE svg PUBLIC "-//W3C//DTD SVG 1.1//EN"
  "http://www.w3.org/Graphics/SVG/1.1/DTD/svg11.dtd">
<svg xmlns:xlink="http://www.w3.org/1999/xlink" width="385.093068pt" height="568.8pt" viewBox="0 0 385.093068 568.8" xmlns="http://www.w3.org/2000/svg" version="1.1">
 <metadata>
  <rdf:RDF xmlns:dc="http://purl.org/dc/elements/1.1/" xmlns:cc="http://creativecommons.org/ns#" xmlns:rdf="http://www.w3.org/1999/02/22-rdf-syntax-ns#">
   <cc:Work>
    <dc:type rdf:resource="http://purl.org/dc/dcmitype/StillImage"/>
    <dc:date>2022-03-05T01:31:10.016320</dc:date>
    <dc:format>image/svg+xml</dc:format>
    <dc:creator>
     <cc:Agent>
      <dc:title>Matplotlib v3.5.1, https://matplotlib.org/</dc:title>
     </cc:Agent>
    </dc:creator>
   </cc:Work>
  </rdf:RDF>
 </metadata>
 <defs>
  <style type="text/css">*{stroke-linejoin: round; stroke-linecap: butt}</style>
 </defs>
 <g id="figure_1">
  <g id="patch_1">
   <path d="M 0 568.8 
L 385.093068 568.8 
L 385.093068 0 
L 0 0 
z
" style="fill: #ffffff"/>
  </g>
  <g id="axes_1">
   <g id="LineCollection_1">
    <path d="M 147.05404 254.116557 
L 147.118122 254.440972 
L 147.064721 255.118012 
L 146.797714 255.936102 
L 145.72969 258.065958 
L 145.377242 259.293093 
L 142.952827 264.046479 
L 141.820721 265.358245 
L 138.552567 271.832442 
L 136.534001 274.357237 
L 135.433936 276.839718 
L 134.942645 278.602843 
L 133.885301 280.859644 
L 133.575574 281.832889 
L 132.827957 282.509929 
L 130.585106 286.769641 
L 130.414222 287.263316 
L 128.534499 290.451047 
L 126.761579 293.046367 
L 123.72839 298.349849 
L 122.777849 300.296339 
L 121.06901 303.385335 
L 119.541735 305.529296 
L 118.067862 308.039987 
L 116.999837 310.480152 
L 116.508546 311.298242 
L 115.056033 313.413993 
L 114.671544 313.766618 
L 114.116172 314.739863 
L 110.014959 323.442651 
L 108.786731 326.122602 
L 102.261102 337.19503 
L 100.445461 339.95961 
L 98.21329 344.825837 
L 97.860842 345.770872 
L 95.98112 348.873973 
L 94.411124 353.119579 
L 92.627523 355.446905 
L 91.933308 356.16626 
L 90.598277 358.592321 
L 90.309911 359.621986 
L 89.113724 362.316042 
L 87.490327 365.489668 
L 86.198017 367.436158 
L 84.798905 369.171074 
L 84.361016 370.567469 
L 82.844421 373.13458 
L 80.270483 376.519781 
L 80.035517 377.027561 
L 78.82865 379.876772 
L 77.856748 382.218202 
L 77.52566 382.599037 
L 75.784781 384.996888 
L 75.31485 386.985693 
L 74.556553 389.679749 
L 73.958459 390.554259 
L 72.505946 393.09316 
L 70.594183 395.575641 
L 68.73582 397.860652 
L 67.347389 400.935542 
L 65.606509 404.066853 
L 63.534542 408.552244 
L 62.754885 409.2716 
L 61.366453 411.61303 
L 60.757679 412.318281 
L 60.191626 413.221001 
L 59.123602 415.379066 
L 57.70313 417.917967 
L 55.94089 420.456868 
L 54.296132 423.743334 
L 52.843619 426.028344 
L 52.128043 427.551685 
L 51.423147 430.725311 
L 50.611449 432.262756 
L 48.432679 435.013232 
L 47.909347 435.521012 
L 46.478195 437.453398 
L 45.100443 442.347834 
L 44.149902 444.505899 
L 42.857592 446.05745 
L 42.013853 446.776805 
L 41.4478 448.11678 
L 41.084672 448.511721 
L 40.305014 449.611911 
L 39.717601 450.697996 
L 37.218424 454.181932 
L 36.769854 455.366752 
L 36.631011 457.285033 
L 34.975573 461.869159 
L 34.559044 462.207679 
L 32.935647 464.54911 
L 31.440413 466.904646 
L 30.222865 468.117676 
L 29.763615 469.161446 
L 25.448797 476.665308 
L 24.28465 480.036404 
L 24.049685 482.19447 
L 25.213831 485.057786 
L 25.715803 487.892892 
L 26.367298 490.460002 
L 26.698385 490.756207 
L 30.073342 491.941028 
L 33.565781 493.788783 
L 36.727133 495.707064 
L 39.204949 496.680309 
L 40.283654 498.006179 
L 43.744052 499.69878 
L 46.093706 501.25033 
L 50.643489 503.267346 
L 53.025183 504.000806 
L 55.855448 506.229397 
L 61.462575 509.515863 
L 63.641345 511.123833 
L 65.499707 511.998343 
L 66.161882 512.548438 
L 68.479495 514.001254 
L 73.029278 516.018269 
L 75.111925 517.45698 
L 76.884846 518.148125 
L 77.632463 518.69822 
L 82.81238 521.561536 
L 85.514482 522.351416 
L 87.810734 524.664637 
L 89.103043 525.482727 
L 91.15365 526.441867 
L 92.46732 527.189432 
L 94.923776 528.980768 
L 96.301527 529.544968 
L 98.480296 530.687473 
L 100.263897 531.971029 
L 103.297086 533.155849 
L 104.471913 534.382984 
L 106.810886 535.35623 
L 110.645093 536.4 
L 110.858698 535.793485 
L 110.719855 534.326564 
L 111.499512 531.731244 
L 112.524816 529.220553 
L 114.714265 527.344587 
L 115.878412 525.412202 
L 116.69011 522.972036 
L 119.264049 519.643255 
L 122.339959 516.89278 
L 123.098256 514.551349 
L 123.632268 513.352424 
L 123.963356 513.310109 
L 124.678932 512.195813 
L 125.084781 511.956028 
L 125.212944 511.603403 
L 125.116822 511.152043 
L 126.761579 508.556722 
L 128.352935 506.567917 
L 129.335518 503.182716 
L 130.211298 501.70169 
L 130.830752 500.107825 
L 131.791973 499.21921 
L 133.628975 497.752289 
L 134.141627 497.117564 
L 136.05339 493.436158 
L 137.185496 490.869047 
L 137.612706 490.445897 
L 139.182701 487.836472 
L 139.342905 486.693966 
L 140.037121 484.846211 
L 141.179907 483.77423 
L 142.728542 481.446905 
L 143.924729 480.177454 
L 143.96745 479.810724 
L 143.476159 478.696429 
L 143.390717 478.865689 
L 143.380037 478.527169 
L 144.159695 476.030583 
L 147.267645 472.109392 
L 147.897779 470.980992 
L 148.901722 468.526721 
L 149.318252 466.10066 
L 151.571783 463.745125 
L 152.511644 461.022859 
L 152.896133 458.371118 
L 153.985518 456.057898 
L 153.974838 455.592433 
L 155.438031 453.180477 
L 156.879864 450.486421 
L 160.404344 446.127975 
L 162.070462 445.084205 
L 163.811341 443.292869 
L 164.014266 442.940244 
L 164.836644 441.981104 
L 165.327936 441.656689 
L 165.96875 440.979648 
L 167.346501 438.271488 
L 167.27174 437.763708 
L 167.367862 435.168387 
L 170.091324 429.554595 
L 172.675943 427.551685 
L 173.583763 426.211709 
L 174.107095 424.702474 
L 174.245938 423.644599 
L 175.20716 421.063383 
L 176.830557 418.129542 
L 179.116129 413.136371 
L 180.600683 412.134915 
L 181.134695 409.765275 
L 182.565847 407.959834 
L 183.826116 405.646614 
L 183.794075 405.110624 
L 184.90482 402.656353 
L 186.528217 401.344587 
L 188.151614 399.355782 
L 188.493382 398.396642 
L 189.497325 396.464256 
L 190.020657 394.475451 
L 190.981879 392.063495 
L 192.017862 390.6671 
L 194.196632 384.855838 
L 195.061731 383.008082 
L 196.74921 381.428322 
L 197.058937 380.624337 
L 197.229821 379.693406 
L 197.486146 379.411306 
L 199.82512 375.856845 
L 202.217494 373.83983 
L 202.559262 373.289735 
L 204.449665 371.117564 
L 205.015718 370.073794 
L 205.923538 368.804343 
L 207.643057 366.067973 
L 208.102308 363.881697 
L 207.803261 361.765946 
L 208.273192 359.466831 
L 208.999448 356.92793 
L 210.889851 354.360819 
L 212.203521 351.060249 
L 213.218144 350.242158 
L 213.826918 349.593328 
L 214.830861 348.027673 
L 216.56106 345.968342 
L 217.116433 344.628367 
L 217.404799 344.303952 
L 217.960172 342.822926 
L 219.337923 340.820016 
L 220.491389 338.37985 
L 222.627438 336.306414 
L 224.560562 333.499519 
L 226.023755 328.478137 
L 226.087836 327.363842 
L 226.728651 324.740311 
L 228.117083 322.568141 
L 228.672455 322.398881 
L 230.317213 321.087115 
L 230.904626 320.466495 
L 232.805709 318.64695 
L 233.489245 316.446569 
L 233.425163 314.810388 
L 238.092429 306.206336 
L 238.434197 305.063831 
L 241.008135 302.990395 
L 243.315068 298.998679 
L 243.720917 296.403358 
L 244.383092 293.483623 
L 245.312273 290.676727 
L 246.177373 290.070212 
L 248.345462 286.910691 
L 249.755254 285.16167 
L 250.075662 284.9642 
L 250.780558 284.244845 
L 251.506814 283.708855 
L 253.226333 281.875204 
L 254.988573 278.687473 
L 256.238162 276.035733 
L 256.836255 275.203537 
L 258.448972 272.396642 
L 258.673257 270.139841 
L 259.506316 268.277981 
L 262.357941 264.794045 
L 263.970657 262.029464 
L 266.234869 257.374812 
L 266.982486 256.302832 
L 268.071871 254.003717 
L 269.81275 251.478921 
L 271.596351 246.923005 
L 272.076962 246.161334 
L 273.411992 244.355894 
L 274.704301 242.042673 
L 275.996611 238.939572 
L 276.584024 238.234322 
L 277.075315 237.853487 
L 278.944358 235.949312 
L 281.25129 231.562655 
L 281.561017 230.575305 
L 282.532919 229.475115 
L 283.611624 227.937669 
L 284.850532 224.157528 
L 285.587469 222.944498 
L 286.08944 219.756767 
L 286.484609 218.416792 
L 286.52733 217.838487 
L 287.381749 215.765051 
L 288.460454 213.748035 
L 290.703305 211.3925 
L 292.903435 209.460114 
L 292.935476 208.345819 
L 292.615068 206.794268 
L 292.636429 206.314698 
L 292.892755 205.397873 
L 292.967516 204.466943 
L 293.255883 203.888638 
L 295.007443 202.153722 
L 299.418383 198.415896 
L 300.048517 197.513176 
L 300.486407 195.312795 
L 301.020419 193.77535 
L 302.36613 191.067189 
L 303.872044 189.036069 
L 304.064288 188.048718 
L 305.516801 185.185402 
L 307.236321 180.911586 
L 309.692776 179.077936 
L 310.26951 178.457316 
L 311.497737 176.55314 
L 313.099774 173.252569 
L 313.099774 170.036628 
L 313.655146 167.497728 
L 314.167798 166.919422 
L 314.306641 163.985582 
L 314.509566 163.407276 
L 315.086299 163.068756 
L 316.592213 161.474891 
L 318.514657 159.260405 
L 319.753565 157.313915 
L 321.782811 155.057114 
L 321.921654 154.535229 
L 323.139202 151.276973 
L 325.734501 149.386902 
L 328.3298 145.056666 
L 330.743535 141.727885 
L 331.565913 139.90834 
L 332.74074 138.878675 
L 333.947608 135.888414 
L 334.780667 133.448248 
L 335.047673 133.081518 
L 336.852634 130.204097 
L 339.650857 124.392836 
L 340.387794 122.559185 
L 342.107313 119.977969 
L 343.420983 118.694414 
L 344.585129 116.945393 
L 345.386148 114.350073 
L 345.642473 113.983343 
L 346.998864 111.317497 
L 347.842603 110.203202 
L 348.878587 107.029576 
L 349.88253 105.1254 
L 351.142798 102.445449 
L 353.268167 100.414329 
L 354.336191 98.284473 
L 355.948908 95.294212 
L 356.611083 92.698892 
L 356.376117 91.485861 
L 357.123734 89.722736 
L 359.088899 88.10066 
L 360.402569 85.716915 
L 361.043383 83.615269 
L 359.185021 80.836583 
L 359.15298 79.073458 
L 358.725771 78.368208 
L 357.700467 77.677063 
L 355.126529 76.294772 
L 354.165307 75.631837 
L 350.801031 73.784081 
L 349.829129 73.022411 
L 348.451377 72.415896 
L 346.133765 71.231076 
L 343.367582 70.159095 
L 339.672218 67.69072 
L 333.723323 64.714564 
L 331.597954 63.233539 
L 328.297759 61.823038 
L 325.990827 60.680533 
L 323.780017 59.157192 
L 321.31288 57.690272 
L 320.308938 57.337647 
L 318.012685 56.265667 
L 316.688335 55.264211 
L 315.246503 54.206336 
L 312.811407 53.049726 
L 310.525835 51.5687 
L 309.180125 50.539035 
L 307.033396 49.777365 
L 305.527482 48.790015 
L 304.523539 48.437389 
L 301.586472 46.589634 
L 298.467841 45.447129 
L 296.267711 44.417463 
L 294.622954 43.387798 
L 291.920853 42.033718 
L 289.955688 40.764267 
L 286.997261 39.353767 
L 285.021416 38.197157 
L 282.671762 37.491906 
L 280.930883 36.377611 
L 277.951095 34.0926 
L 275.163552 32.4 
L 272.88866 32.65389 
L 270.133157 34.261861 
L 268.456359 35.954461 
L 267.783504 38.662622 
L 267.751463 39.452502 
L 264.06678 46.462689 
L 262.859912 48.959275 
L 262.571546 49.90431 
L 261.129713 52.838151 
L 259.506316 57.182492 
L 257.690675 59.030247 
L 256.761493 61.526833 
L 253.269054 66.378954 
L 247.971654 75.674152 
L 244.895744 80.864793 
L 243.475272 83.403694 
L 242.022759 86.21059 
L 240.143036 88.707176 
L 238.978889 91.514071 
L 236.511753 96.295668 
L 235.796177 97.381753 
L 234.429106 100.033494 
L 229.729799 107.706616 
L 224.966411 116.705608 
L 224.528521 117.975059 
L 223.684782 119.075249 
L 222.253629 121.261525 
L 220.758395 123.800425 
L 219.701051 125.916176 
L 218.707789 128.243502 
L 217.650445 130.415672 
L 215.69596 135.338319 
L 215.065826 136.762924 
L 213.623993 138.991515 
L 212.523928 141.26242 
L 209.853867 144.689936 
L 208.134348 146.608217 
L 206.649795 149.767738 
L 204.182659 154.394179 
L 202.345657 156.84845 
L 200.882464 159.796395 
L 199.194985 162.730236 
L 196.791931 165.960282 
L 195.44622 168.513288 
L 193.748061 172.166484 
L 193.053846 173.492354 
L 191.409088 175.861995 
L 188.098213 181.898937 
L 187.745765 182.660607 
L 186.581619 184.719937 
L 185.065024 187.794828 
L 183.195982 191.123609 
L 181.722108 193.112415 
L 180.109392 196.314251 
L 179.009327 199.064726 
L 177.588854 201.420262 
L 175.954777 204.861883 
L 174.288659 207.711094 
L 172.825466 209.967894 
L 170.037923 214.820016 
L 167.2931 220.574857 
L 165.54154 222.789343 
L 164.21719 225.483399 
L 162.262706 228.233874 
L 161.151961 230.095735 
L 158.695505 235.765946 
L 157.851766 236.654562 
L 157.296393 238.403582 
L 155.705037 240.801433 
L 153.355384 244.849569 
L 153.19518 244.891884 
L 153.088377 245.047039 
L 153.099058 245.413769 
L 152.223278 247.78341 
L 149.414374 252.833001 
L 148.111384 254.821807 
L 147.790977 255.089802 
L 147.790977 255.089802 
" clip-path="url(#pa184857139)" style="fill: none; stroke: #000000; stroke-width: 3"/>
   </g>
  </g>
 </g>
 <defs>
  <clipPath id="pa184857139">
   <rect x="7.2" y="7.2" width="370.693068" height="554.4"/>
  </clipPath>
 </defs>
</svg>
