<?xml version="1.0" encoding="utf-8" standalone="no"?>
<!DOCTYPE svg PUBLIC "-//W3C//DTD SVG 1.1//EN"
  "http://www.w3.org/Graphics/SVG/1.1/DTD/svg11.dtd">
<svg xmlns:xlink="http://www.w3.org/1999/xlink" width="298.77793pt" height="568.8pt" viewBox="0 0 298.77793 568.8" xmlns="http://www.w3.org/2000/svg" version="1.1">
 <metadata>
  <rdf:RDF xmlns:dc="http://purl.org/dc/elements/1.1/" xmlns:cc="http://creativecommons.org/ns#" xmlns:rdf="http://www.w3.org/1999/02/22-rdf-syntax-ns#">
   <cc:Work>
    <dc:type rdf:resource="http://purl.org/dc/dcmitype/StillImage"/>
    <dc:date>2022-03-09T01:31:39.460181</dc:date>
    <dc:format>image/svg+xml</dc:format>
    <dc:creator>
     <cc:Agent>
      <dc:title>Matplotlib v3.5.1, https://matplotlib.org/</dc:title>
     </cc:Agent>
    </dc:creator>
   </cc:Work>
  </rdf:RDF>
 </metadata>
 <defs>
  <style type="text/css">*{stroke-linejoin: round; stroke-linecap: butt}</style>
 </defs>
 <g id="figure_1">
  <g id="patch_1">
   <path d="M 0 568.8 
L 298.77793 568.8 
L 298.77793 0 
L 0 0 
z
" style="fill: #ffffff"/>
  </g>
  <g id="axes_1">
   <g id="LineCollection_1">
    <path d="M 142.422712 171.14212 
L 143.351546 170.879295 
L 143.793848 170.811156 
L 148.489618 171.979265 
L 150.701127 172.884549 
L 151.718421 173.166842 
L 153.642434 174.588041 
L 154.018391 175.11369 
L 155.721252 176.155253 
L 156.148811 176.593294 
L 157.424114 176.856119 
L 161.087847 172.164215 
L 161.463804 172.349166 
L 162.481098 173.088968 
L 164.301907 173.857973 
L 169.978113 175.386248 
L 172.351799 176.447281 
L 173.78928 177.333096 
L 177.792111 180.379913 
L 181.109375 182.073671 
L 185.384959 183.923177 
L 188.134601 184.799258 
L 190.840014 185.957633 
L 197.105956 188.508004 
L 200.135723 190.639802 
L 201.329938 191.720303 
L 201.831213 192.411434 
L 202.612613 193.891038 
L 203.054915 195.59453 
L 204.315475 201.337732 
L 205.155848 202.943881 
L 206.254231 204.442954 
L 207.352614 205.698671 
L 207.721198 206.506613 
L 209.239768 209.533962 
L 211.33333 210.487917 
L 212.232677 211.831242 
L 214.495787 214.761248 
L 216.456659 216.912515 
L 218.447017 219.453152 
L 218.948292 221.000896 
L 218.918805 221.546014 
L 216.596721 225.741471 
L 216.264995 226.549413 
L 211.517622 235.047404 
L 211.104807 236.750896 
L 210.323407 238.405717 
L 206.821852 244.148918 
L 206.114169 245.443572 
L 205.458088 247.224938 
L 204.81675 248.402781 
L 203.769969 251.089431 
L 202.103966 251.994716 
L 202.118709 252.014184 
L 201.676407 252.374351 
L 201.248849 253.279635 
L 200.769689 254.43801 
L 198.499206 258.370643 
L 194.968164 264.834178 
L 186.962502 281.362917 
L 180.416435 293.579388 
L 178.499794 296.577534 
L 177.430898 297.804048 
L 176.715844 299.692491 
L 175.020353 303.605655 
L 172.690897 307.333869 
L 171.924241 308.550649 
L 170.280353 310.789524 
L 167.324302 316.026545 
L 166.18169 317.798177 
L 165.540352 319.16097 
L 163.903835 321.789215 
L 163.432047 323.249351 
L 161.176308 327.561619 
L 159.893633 329.53767 
L 158.316089 332.642892 
L 155.065171 336.916224 
L 154.644985 337.694963 
L 152.396617 341.267429 
L 147.80405 349.969839 
L 147.36912 350.622033 
L 144.958576 354.681211 
L 143.034563 358.574907 
L 141.973039 361.144747 
L 141.15478 362.663288 
L 140.203832 364.386248 
L 139.7173 364.775618 
L 136.119912 371.365698 
L 135.250052 372.455933 
L 133.687252 374.344376 
L 133.525075 374.74348 
L 133.348154 375.707169 
L 132.883737 376.972621 
L 132.426692 377.585878 
L 130.804919 380.798177 
L 130.384732 381.625587 
L 129.102057 383.085723 
L 127.952072 384.906026 
L 127.237018 386.336959 
L 127.001123 386.765266 
L 126.492476 388.449289 
L 125.932227 389.130686 
L 125.239288 390.639493 
L 124.03033 392.274845 
L 123.713347 394.825216 
L 122.563362 398.426885 
L 121.413378 400.441873 
L 118.103486 405.523146 
L 117.056705 405.912515 
L 116.739722 406.370025 
L 116.25319 409.319499 
L 114.144885 412.999042 
L 113.510919 415.130841 
L 113.68784 416.269747 
L 112.81798 417.681211 
L 112.043951 419.705933 
L 111.667995 420.338659 
L 108.859379 423.531489 
L 107.385039 425.098702 
L 106.3014 426.519901 
L 103.183172 430.968449 
L 101.568771 434.521446 
L 100.249237 436.750587 
L 99.372005 438.785043 
L 98.376826 440.702689 
L 97.669144 441.345148 
L 95.944167 443.399073 
L 95.251227 445.258313 
L 94.499314 446.582169 
L 93.305099 449.074135 
L 92.066654 451.468758 
L 88.992657 457.455315 
L 88.085938 459.032262 
L 86.810635 461.125124 
L 86.066093 461.816255 
L 83.648177 465.972775 
L 82.505564 467.656799 
L 81.591474 469.486836 
L 78.200493 476.573362 
L 77.338005 478.33526 
L 76.350198 479.347621 
L 75.067523 480.467058 
L 73.799591 481.362608 
L 73.084536 482.355501 
L 71.742887 484.399691 
L 70.688735 487.582787 
L 68.838439 490.327843 
L 66.641674 494.610909 
L 65.631751 496.927658 
L 64.643944 499.001051 
L 63.044286 501.347002 
L 62.660958 502.262021 
L 62.594612 502.738999 
L 60.832777 507.158344 
L 59.63119 510.049413 
L 58.532808 511.957324 
L 54.28671 518.800494 
L 52.98192 522.100402 
L 52.215264 524.193263 
L 49.996383 527.658653 
L 49.229727 528.369252 
L 47.652184 530.929357 
L 46.900271 532.194808 
L 46.104128 533.304512 
L 44.63716 535.806211 
L 44.320177 536.039833 
L 43.560892 536.4 
L 42.838466 536.156644 
L 41.975978 535.455779 
L 40.641701 534.579697 
L 38.968325 533.226638 
L 37.663535 531.912515 
L 36.454577 531.27979 
L 35.230875 530.530253 
L 33.756536 529.848857 
L 31.51554 529.498424 
L 29.68736 528.719685 
L 27.888666 527.843603 
L 24.593518 526.461341 
L 24.003782 526.607355 
L 22.971744 523.161434 
L 22.205088 524.193263 
L 20.716005 523.959642 
L 20.251588 523.132231 
L 20.12627 521.857046 
L 20.450624 520.708405 
L 20.774979 519.413752 
L 22.544186 516.133313 
L 22.934886 515.627132 
L 25.352802 511.655562 
L 26.089972 510.127287 
L 29.945369 504.335414 
L 31.987329 500.451452 
L 32.326427 500.091286 
L 33.203659 497.803739 
L 34.891777 494.571972 
L 35.511 493.462268 
L 36.314515 492.819808 
L 36.366117 491.895056 
L 36.218683 490.87296 
L 36.432462 488.867707 
L 36.786303 488.400464 
L 37.493986 487.173949 
L 44.526585 478.851174 
L 45.46279 477.11848 
L 47.239369 474.392892 
L 49.789976 470.64521 
L 51.301173 467.38424 
L 52.554362 466.410816 
L 53.969728 465.826761 
L 54.618437 465.427658 
L 54.972278 464.999351 
L 54.058188 463.383467 
L 54.227737 463.081706 
L 54.389914 461.796786 
L 54.316197 461.125124 
L 54.765871 460.171168 
L 54.463631 459.76233 
L 54.382543 459.37296 
L 54.721641 458.565019 
L 55.783165 456.978337 
L 57.345964 455.722621 
L 57.714549 455.196972 
L 58.76133 453.191718 
L 59.881828 451.196199 
L 62.343975 449.414833 
L 63.479216 448.188319 
L 63.877287 446.83526 
L 64.083695 446.260939 
L 64.083695 446.260939 
L 63.825686 445.521137 
L 63.331782 445.141502 
L 63.176976 444.567182 
L 63.471844 444.090204 
L 64.828236 442.980501 
L 65.027272 442.591131 
L 66.28046 438.395674 
L 66.862824 436.916069 
L 69.479777 432.350711 
L 70.600275 430.37466 
L 71.477506 430.238381 
L 73.313059 427.824289 
L 74.669451 424.767738 
L 74.875858 421.847466 
L 74.75054 421.195272 
L 74.79477 420.543078 
L 75.900524 418.839586 
L 75.856294 418.683838 
L 76.726154 417.934302 
L 77.146341 417.340513 
L 77.994086 416.503368 
L 77.772935 415.422868 
L 77.824537 414.089277 
L 78.259467 409.475247 
L 79.365221 406.856737 
L 80.485719 406.49657 
L 81.554615 405.620488 
L 82.911007 404.092213 
L 83.744009 402.398455 
L 85.166747 397.784425 
L 87.002299 393.384549 
L 88.675674 391.058066 
L 88.955798 389.880222 
L 90.783979 386.969685 
L 93.504135 383.260939 
L 94.491942 381.26542 
L 95.922052 378.763721 
L 98.612721 369.720612 
L 98.951819 369.136557 
L 100.440901 367.919778 
L 103.360093 363.422559 
L 103.802395 360.619098 
L 103.367465 359.791687 
L 103.065225 358.60411 
L 102.836703 358.273146 
L 102.099533 356.696199 
L 102.21748 355.790915 
L 102.984137 355.041378 
L 102.468118 354.048486 
L 102.460746 353.425494 
L 102.630295 352.714895 
L 102.99888 350.398146 
L 103.743421 348.811465 
L 104.266812 348.100865 
L 104.945008 347.438937 
L 107.495615 345.589431 
L 108.999441 343.983282 
L 110.481152 341.38424 
L 111.137233 339.894901 
L 111.653252 338.30822 
L 115.302241 330.579234 
L 116.437482 328.359827 
L 117.292599 327.133313 
L 120.971076 322.928121 
L 122.106317 321.944963 
L 123.963984 320.903399 
L 125.364607 320.51403 
L 126.853689 320.455624 
L 128.998853 320.69898 
L 130.311015 321.205161 
L 134.107439 323.502441 
L 135.441716 324.222775 
L 137.424702 324.797095 
L 138.102898 324.758158 
L 140.314407 324.300649 
L 141.582339 323.638721 
L 143.292572 322.266193 
L 144.899602 320.718449 
L 145.754719 319.336187 
L 147.295403 316.318572 
L 149.470054 311.519592 
L 150.067161 310.955006 
L 151.084455 309.660352 
L 151.666819 309.115235 
L 158.080195 304.569345 
L 159.171206 303.664061 
L 160.026323 302.525155 
L 160.350678 301.902163 
L 160.763493 301.376514 
L 162.451611 297.356273 
L 163.866977 293.287361 
L 164.051269 292.537824 
L 164.147101 290.133467 
L 163.830118 288.517583 
L 162.05354 284.857509 
L 161.500662 283.202689 
L 161.294255 280.671786 
L 161.611238 279.046168 
L 162.193602 277.48869 
L 163.05609 276.077225 
L 165.643556 272.913597 
L 167.427506 271.210105 
L 169.550555 269.857046 
L 171.150213 269.428739 
L 172.455003 268.688937 
L 174.504335 266.888103 
L 175.344708 264.873115 
L 175.418425 262.235136 
L 175.263619 258.896292 
L 175.543744 257.260939 
L 176.973853 252.880532 
L 177.320323 251.887639 
L 178.433449 247.400155 
L 180.357462 242.133931 
L 181.389499 240.080006 
L 182.34782 238.016347 
L 183.409344 236.342058 
L 184.441381 235.222621 
L 187.566981 232.292614 
L 188.967603 230.74487 
L 190.64835 228.544932 
L 192.594478 224.845921 
L 196.118148 216.990389 
L 199.686049 211.510012 
L 200.710715 210.546323 
L 201.882815 209.709178 
L 205.288539 208.073826 
L 210.338151 206.574753 
L 211.841977 206.652627 
L 213.957654 206.827843 
L 218.144777 207.4411 
L 220.009816 207.392429 
L 221.226146 207.012794 
L 222.435104 206.370334 
L 224.020019 205.036743 
L 224.941481 203.936774 
L 225.310066 203.245643 
L 227.602664 199.390884 
L 230.256474 194.222002 
L 233.050347 189.121261 
L 236.23492 183.533807 
L 240.223008 176.340204 
L 243.525528 169.935074 
L 248.545653 160.9017 
L 250.631843 156.443418 
L 250.993056 154.876205 
L 251.361641 150.661279 
L 251.295296 149.775464 
L 251.361641 145.40479 
L 252.157784 139.418232 
L 251.66388 137.004141 
L 250.646586 134.833405 
L 248.870008 132.175958 
L 248.339245 130.80343 
L 248.346617 129.294623 
L 248.516166 128.486681 
L 249.658779 125.264648 
L 252.032465 120.49487 
L 254.74525 116.20207 
L 257.620211 112.697744 
L 261.82945 108.404944 
L 264.792872 105.056366 
L 265.198315 104.413906 
L 266.038688 102.44759 
L 266.3483 100.851174 
L 265.773307 94.154017 
L 266.488362 88.936465 
L 267.505656 83.835723 
L 269.038969 80.555284 
L 269.864599 79.39691 
L 271.412655 77.839431 
L 275.828301 74.928894 
L 277.110976 74.101483 
L 278.201987 72.982046 
L 278.651661 71.502441 
L 278.622174 70.704234 
L 278.445253 69.906026 
L 277.538535 68.406953 
L 276.145284 67.326452 
L 275.334397 67.141502 
L 274.457166 67.151236 
L 272.687958 67.423795 
L 270.992468 68.066255 
L 266.363043 71.171477 
L 265.500555 71.346693 
L 264.593836 71.414833 
L 262.817257 71.113072 
L 261.254457 70.110445 
L 260.767925 69.302503 
L 260.591005 68.368016 
L 260.65735 66.479574 
L 261.18074 64.824753 
L 261.549325 64.065482 
L 264.748642 60.337268 
L 267.65309 56.34623 
L 269.923572 51.80034 
L 270.704972 49.541996 
L 270.95561 48.013721 
L 270.985097 45.706706 
L 270.601768 44.197899 
L 269.857227 42.942182 
L 267.505656 40.557293 
L 265.485811 38.853801 
L 264.424287 38.113999 
L 261.173369 36.196354 
L 255.924721 34.346848 
L 252.998158 34.035352 
L 247.941174 32.886712 
L 246.179338 32.409734 
L 245.390567 32.4 
L 243.702448 33.071663 
L 242.486119 34.074289 
L 241.866896 34.862763 
L 240.952806 36.55652 
L 240.49576 39.398918 
L 241.033894 41.88115 
L 241.439338 42.766965 
L 242.01433 43.477565 
L 242.736756 44.022682 
L 243.908856 44.558066 
L 247.933802 45.658035 
L 248.744689 46.066873 
L 249.459743 46.592522 
L 250.440179 47.809302 
L 251.501703 50.233127 
L 251.538562 50.768511 
L 251.590164 53.98081 
L 253.012901 61.359363 
L 252.917069 62.946044 
L 252.570599 64.484054 
L 251.811314 65.992862 
L 249.761983 68.825525 
L 248.353989 70.022837 
L 246.842791 71.13254 
L 244.233211 72.495334 
L 239.795449 73.906799 
L 238.991934 74.335105 
L 238.114703 74.948362 
L 236.868886 76.32089 
L 235.785247 77.761557 
L 234.922758 79.367707 
L 234.635262 80.146446 
L 233.971809 82.307447 
L 233.610596 82.998578 
L 233.138808 83.582633 
L 232.055168 84.556057 
L 230.32282 85.704697 
L 229.128605 86.249815 
L 225.007826 87.632077 
L 221.425182 89.413443 
L 218.247981 92.411588 
L 216.294481 95.838041 
L 213.677529 101.065328 
L 211.709286 106.623578 
L 211.325958 107.840358 
L 210.706736 108.988999 
L 208.524713 112.75615 
L 206.851338 114.47911 
L 206.158399 114.98529 
L 202.701073 117.058684 
L 200.887636 118.285198 
L 200.423219 118.801112 
L 198.90465 121.13733 
L 198.668755 121.818727 
L 198.137993 125.215977 
L 198.536065 129.761867 
L 198.248569 131.718449 
L 196.988009 134.813937 
L 196.612052 135.320117 
L 195.462067 136.488226 
L 194.496375 137.189091 
L 192.859859 137.880222 
L 186.446483 140.342985 
L 184.456125 141.550031 
L 179.752982 145.91097 
L 178.875751 147.088813 
L 176.022904 151.216131 
L 174.246325 155.236372 
L 173.804024 156.978801 
L 173.391209 160.376051 
L 173.494412 162.87775 
L 174.22421 165.856428 
L 175.986046 170.597002 
L 176.922251 173.449135 
L 177.253977 175.785352 
L 177.062313 176.992398 
L 176.347259 179.289679 
L 173.170058 184.45856 
L 171.754692 186.132849 
L 167.398019 190.493789 
L 162.812824 193.637948 
L 160.778236 196.16885 
L 160.10004 197.599784 
L 159.635623 199.225402 
L 159.539791 200.091749 
L 159.525048 201.67843 
L 159.768314 204.50136 
L 159.871517 209.076452 
L 159.355499 211.7339 
L 158.419293 213.330315 
L 156.524767 215.666533 
L 152.927379 219.131922 
L 149.064611 222.324753 
L 147.509183 223.862763 
L 143.54321 228.389184 
L 140.520814 232.759858 
L 137.063489 236.400464 
L 133.355526 238.989771 
L 129.1168 242.143665 
L 127.870984 243.321508 
L 126.020688 245.794005 
L 119.614684 256.959178 
L 118.811169 258.185692 
L 115.855118 261.154635 
L 115.449675 261.290915 
L 114.506098 261.222775 
L 113.326627 260.336959 
L 112.685289 259.675031 
L 112.6042 259.246724 
L 112.707404 258.828152 
L 113.267653 257.864462 
L 122.261123 239.661434 
L 127.259133 231.328925 
L 129.220004 227.269747 
L 138.5452 210.215358 
L 140.292292 207.548177 
L 142.363739 204.520828 
L 142.923987 203.596075 
L 143.491608 202.924413 
L 143.93391 201.834178 
L 145.231328 199.507695 
L 146.255994 197.288288 
L 147.722962 193.569808 
L 148.563335 192.314091 
L 149.720692 188.089431 
L 151.010738 186.06471 
L 153.627691 181.19759 
L 153.834098 180.623269 
L 154.740817 178.968449 
L 155.684394 177.527781 
L 155.699137 177.109209 
L 155.49273 176.739308 
L 154.659728 176.252596 
L 149.101469 173.546477 
L 147.71559 172.699598 
L 144.309866 170.82089 
L 141.973039 169.321817 
L 141.958295 169.360754 
" clip-path="url(#pdc0379afc8)" style="fill: none; stroke: #000000; stroke-width: 3"/>
   </g>
  </g>
 </g>
 <defs>
  <clipPath id="pdc0379afc8">
   <rect x="7.2" y="7.2" width="284.37793" height="554.4"/>
  </clipPath>
 </defs>
</svg>
