<?xml version="1.0" encoding="utf-8" standalone="no"?>
<!DOCTYPE svg PUBLIC "-//W3C//DTD SVG 1.1//EN"
  "http://www.w3.org/Graphics/SVG/1.1/DTD/svg11.dtd">
<svg xmlns:xlink="http://www.w3.org/1999/xlink" width="307.465458pt" height="568.8pt" viewBox="0 0 307.465458 568.8" xmlns="http://www.w3.org/2000/svg" version="1.1">
 <metadata>
  <rdf:RDF xmlns:dc="http://purl.org/dc/elements/1.1/" xmlns:cc="http://creativecommons.org/ns#" xmlns:rdf="http://www.w3.org/1999/02/22-rdf-syntax-ns#">
   <cc:Work>
    <dc:type rdf:resource="http://purl.org/dc/dcmitype/StillImage"/>
    <dc:date>2022-03-25T01:32:38.466499</dc:date>
    <dc:format>image/svg+xml</dc:format>
    <dc:creator>
     <cc:Agent>
      <dc:title>Matplotlib v3.5.1, https://matplotlib.org/</dc:title>
     </cc:Agent>
    </dc:creator>
   </cc:Work>
  </rdf:RDF>
 </metadata>
 <defs>
  <style type="text/css">*{stroke-linejoin: round; stroke-linecap: butt}</style>
 </defs>
 <g id="figure_1">
  <g id="patch_1">
   <path d="M 0 568.8 
L 307.465458 568.8 
L 307.465458 0 
L 0 0 
z
" style="fill: #ffffff"/>
  </g>
  <g id="axes_1">
   <g id="LineCollection_1">
    <path d="M 20.636359 536.4 
L 20.544198 536.349292 
L 20.521157 536.166742 
L 20.574918 535.436542 
L 21.557973 533.063393 
L 23.216877 529.878912 
L 26.742049 524.524115 
L 26.987813 523.905473 
L 27.348778 523.347682 
L 28.546876 521.106375 
L 28.82336 519.828525 
L 29.729614 517.932035 
L 31.657322 515.122795 
L 32.279411 513.75367 
L 33.009022 512.526529 
L 35.028892 510.082389 
L 38.577104 504.271217 
L 39.222234 502.871668 
L 41.556989 498.358628 
L 43.438616 496.360721 
L 43.784222 495.752222 
L 45.343285 491.888249 
L 46.487622 490.143883 
L 47.08667 488.60235 
L 48.553572 486.168352 
L 49.943673 484.261719 
L 50.734724 483.754636 
L 50.995848 483.47067 
L 52.001943 482.659337 
L 52.854436 481.543754 
L 54.152375 479.353155 
L 56.763614 475.012524 
L 56.909536 474.596716 
L 57.255141 473.998358 
L 58.722043 471.706343 
L 60.258065 468.116194 
L 62.201134 464.708596 
L 62.892344 462.609272 
L 63.191869 462.386156 
L 64.075082 462.528139 
L 64.850773 462.122473 
L 65.058137 461.858789 
L 64.835413 461.564681 
L 66.194793 460.053574 
L 66.171753 459.952157 
L 65.772387 459.546491 
L 65.188698 458.978558 
L 64.866134 457.974533 
L 65.181018 454.100419 
L 67.062646 450.93622 
L 67.869058 445.916098 
L 68.583309 443.877624 
L 70.380455 441.463909 
L 70.656939 440.824984 
L 72.162242 439.27331 
L 73.145296 438.593818 
L 74.335714 438.076594 
L 76.056059 437.518802 
L 76.731909 437.082711 
L 77.714964 435.79472 
L 78.959142 433.563554 
L 79.427629 433.015905 
L 80.372283 432.245138 
L 81.885266 430.754314 
L 82.607196 429.56774 
L 83.682412 426.373117 
L 85.425798 423.259627 
L 87.399587 420.521378 
L 88.789688 418.574179 
L 90.31035 416.768963 
L 90.96316 415.643239 
L 93.489917 411.728558 
L 94.903058 408.260109 
L 96.577323 404.852511 
L 97.560378 403.118287 
L 98.673994 401.282646 
L 99.603288 399.842531 
L 100.716904 398.422698 
L 101.154671 396.992724 
L 101.546357 394.58915 
L 102.283648 393.007051 
L 102.721414 391.84076 
L 103.888791 389.863136 
L 104.618402 389.173503 
L 106.361788 386.03973 
L 109.011427 383.260914 
L 109.533675 382.56114 
L 110.263286 381.171732 
L 111.031297 379.254958 
L 111.330822 375.827077 
L 110.209525 373.180103 
L 109.295591 372.176079 
L 108.711903 371.810979 
L 106.51539 370.249163 
L 105.524656 369.31613 
L 104.672163 367.368931 
L 104.372639 365.827399 
L 104.357278 364.214874 
L 104.702883 362.673342 
L 105.532336 361.040534 
L 106.062264 360.411751 
L 110.916095 355.94942 
L 112.144914 353.677688 
L 116.66082 343.86056 
L 119.233658 339.398229 
L 121.906338 336.102189 
L 123.941568 334.175274 
L 124.509897 333.810174 
L 126.353124 332.958274 
L 128.979723 332.31935 
L 131.621682 332.420766 
L 132.274492 332.593175 
L 134.063958 333.597199 
L 138.134418 335.858789 
L 140.085167 336.426722 
L 141.513668 336.305023 
L 143.63338 335.645815 
L 144.30923 335.290856 
L 147.465756 332.948133 
L 148.018725 332.359916 
L 149.370425 330.321442 
L 150.668364 327.360077 
L 151.159891 325.869253 
L 151.812701 324.418995 
L 152.634473 323.03973 
L 154.754184 320.494173 
L 155.460755 319.895815 
L 161.021157 315.818867 
L 162.119413 314.510592 
L 164.377367 311.579652 
L 166.282035 307.320155 
L 167.702856 302.310174 
L 167.418692 299.267675 
L 165.222179 294.156278 
L 164.891934 292.553896 
L 164.938015 290.211172 
L 165.652266 287.868448 
L 166.443317 286.529749 
L 169.33872 282.899034 
L 170.398576 281.77331 
L 172.817812 279.876819 
L 178.478056 275.931713 
L 178.839021 275.444913 
L 179.146225 274.826272 
L 179.607032 272.270573 
L 179.530231 269.866999 
L 179.415029 268.021217 
L 179.929597 266.428976 
L 181.642262 261.672537 
L 183.316527 255.567257 
L 184.88327 251.804701 
L 187.640431 246.73387 
L 188.469883 245.202479 
L 190.96592 242.261397 
L 193.723081 239.573857 
L 194.96726 238.093175 
L 197.494017 234.269768 
L 199.529247 230.152254 
L 199.72893 229.503187 
L 201.633598 225.274115 
L 204.636523 220.416259 
L 207.508885 217.292627 
L 210.565571 215.680103 
L 216.241175 213.824179 
L 218.430007 213.905312 
L 221.962859 214.615229 
L 226.202282 215.061462 
L 227.515581 214.889053 
L 228.79048 214.280554 
L 229.888737 213.479363 
L 230.833391 212.414488 
L 231.693563 211.258339 
L 233.152785 208.814198 
L 235.879225 203.560818 
L 237.53813 200.112653 
L 243.290535 189.849292 
L 249.0199 179.798905 
L 255.233112 168.71407 
L 257.583227 163.937347 
L 258.804365 158.775241 
L 258.934927 152.264295 
L 259.656857 145.530232 
L 259.641497 144.749324 
L 259.088529 141.645976 
L 258.4818 140.104443 
L 257.252982 137.984836 
L 256.239207 135.794237 
L 255.885921 134.171571 
L 256.231527 130.794398 
L 256.861296 129.212299 
L 257.713788 127.660625 
L 261.438644 121.393078 
L 265.655026 115.967289 
L 269.495083 111.81935 
L 272.981855 107.752543 
L 273.650024 106.535544 
L 274.064751 105.186703 
L 274.195312 103.766871 
L 274.156912 102.23548 
L 273.880428 96.911108 
L 274.479477 91.637444 
L 275.577733 86.272505 
L 276.937113 82.733065 
L 277.328799 82.073857 
L 278.841781 80.420766 
L 283.45753 77.074018 
L 285.293077 76.029427 
L 286.345252 75.035544 
L 286.944301 72.81452 
L 286.683177 71.242563 
L 286.237731 70.542788 
L 285.692443 69.903863 
L 284.248581 68.879556 
L 283.342328 68.534739 
L 282.535916 68.392756 
L 280.78485 68.707147 
L 279.033784 69.559047 
L 278.227372 70.116838 
L 275.961739 71.972762 
L 275.132286 72.500129 
L 274.233713 72.926079 
L 273.266019 73.05792 
L 271.284549 72.93622 
L 270.416697 72.57112 
L 269.694766 71.952479 
L 269.049636 71.212138 
L 268.527389 70.380522 
L 268.143383 68.676722 
L 268.926754 66.810657 
L 269.98661 65.329974 
L 271.768397 63.321925 
L 275.739015 58.616194 
L 276.591508 57.226787 
L 278.288813 53.301964 
L 278.634418 52.500773 
L 279.602113 48.444108 
L 279.632833 47.622634 
L 279.41011 46.070959 
L 278.811061 44.701835 
L 277.897127 43.515261 
L 275.024765 40.635029 
L 272.966494 39.032646 
L 271.768397 38.332872 
L 269.195558 36.446523 
L 266.822403 35.503348 
L 261.100719 34.022666 
L 260.616871 33.971958 
L 257.283702 33.505441 
L 253.635648 32.4 
L 252.744755 32.420283 
L 251.892262 32.683967 
L 250.709525 33.393883 
L 249.588228 34.316774 
L 248.881658 35.564198 
L 247.529958 38.160464 
L 247.453157 41.081262 
L 247.645159 41.912878 
L 248.167407 43.058886 
L 249.265663 44.559852 
L 249.972234 45.087218 
L 255.07951 47.156117 
L 255.478875 47.409659 
L 256.354408 47.805184 
L 258.566281 50.036349 
L 258.827405 50.938957 
L 258.789004 52.957147 
L 258.742924 53.869897 
L 258.842765 56.598004 
L 259.219091 57.865712 
L 260.325027 60.715518 
L 260.716713 62.226626 
L 260.755114 63.768158 
L 260.655272 64.538925 
L 259.710618 67.023632 
L 257.560186 70.177688 
L 256.861296 70.907888 
L 253.558847 73.341887 
L 248.774136 75.613619 
L 246.662105 76.394527 
L 244.864958 77.439118 
L 243.367336 78.909659 
L 242.775967 79.791983 
L 242.007956 81.546491 
L 241.262985 84.264456 
L 240.387452 85.856697 
L 239.181674 87.093979 
L 237.799254 88.006729 
L 235.572021 89.020895 
L 231.125235 90.643561 
L 228.12231 92.418352 
L 225.518752 94.73065 
L 224.082571 96.221475 
L 223.007355 97.752865 
L 220.995165 101.424147 
L 219.274819 105.22727 
L 218.092082 108.269768 
L 217.001506 111.474533 
L 216.494618 112.600258 
L 214.843394 115.328364 
L 212.393438 117.894205 
L 211.264461 118.806954 
L 209.958842 119.435737 
L 206.46439 122.021861 
L 205.11269 123.695235 
L 204.42148 125.003509 
L 203.699549 127.08255 
L 203.584347 127.772183 
L 203.453785 130.449581 
L 203.75331 134.232421 
L 203.722589 135.560979 
L 203.184981 137.437186 
L 201.572157 140.216001 
L 200.135976 141.564842 
L 198.576913 142.680425 
L 193.200833 144.881165 
L 191.687851 145.76349 
L 189.959825 146.55454 
L 186.91082 148.501739 
L 186.004567 149.455055 
L 182.978602 152.96407 
L 182.010908 154.353477 
L 180.81281 156.757051 
L 178.8083 161.726465 
L 178.401254 163.369414 
L 178.140131 165.691854 
L 178.301413 168.71407 
L 178.554857 170.073052 
L 179.622392 173.84575 
L 181.565461 179.443947 
L 181.626902 182.009788 
L 181.196816 183.946845 
L 179.576312 187.51671 
L 176.78075 191.918191 
L 173.777826 195.356214 
L 171.251069 197.881487 
L 170.613619 198.256729 
L 166.397237 201.147102 
L 165.183779 202.84076 
L 164.292886 202.891468 
L 164.208404 202.069994 
L 164.292886 201.583194 
L 165.206819 197.161429 
L 165.229859 193.784256 
L 165.214499 192.34414 
L 164.507929 188.510592 
L 164.070162 187.567418 
L 163.110148 186.127302 
L 161.720047 184.646619 
L 160.122584 184.03812 
L 158.217916 182.577721 
L 156.46685 181.786671 
L 153.371764 179.971314 
L 151.912542 179.342531 
L 148.034085 177.060657 
L 145.338365 176.026207 
L 145.338365 176.026207 
" clip-path="url(#pf89363d522)" style="fill: none; stroke: #000000; stroke-width: 3"/>
   </g>
  </g>
 </g>
 <defs>
  <clipPath id="pf89363d522">
   <rect x="7.2" y="7.2" width="293.065458" height="554.4"/>
  </clipPath>
 </defs>
</svg>
