<?xml version="1.0" encoding="utf-8" standalone="no"?>
<!DOCTYPE svg PUBLIC "-//W3C//DTD SVG 1.1//EN"
  "http://www.w3.org/Graphics/SVG/1.1/DTD/svg11.dtd">
<svg xmlns:xlink="http://www.w3.org/1999/xlink" width="292.875301pt" height="568.8pt" viewBox="0 0 292.875301 568.8" xmlns="http://www.w3.org/2000/svg" version="1.1">
 <metadata>
  <rdf:RDF xmlns:dc="http://purl.org/dc/elements/1.1/" xmlns:cc="http://creativecommons.org/ns#" xmlns:rdf="http://www.w3.org/1999/02/22-rdf-syntax-ns#">
   <cc:Work>
    <dc:type rdf:resource="http://purl.org/dc/dcmitype/StillImage"/>
    <dc:date>2022-03-29T01:33:27.862196</dc:date>
    <dc:format>image/svg+xml</dc:format>
    <dc:creator>
     <cc:Agent>
      <dc:title>Matplotlib v3.5.1, https://matplotlib.org/</dc:title>
     </cc:Agent>
    </dc:creator>
   </cc:Work>
  </rdf:RDF>
 </metadata>
 <defs>
  <style type="text/css">*{stroke-linejoin: round; stroke-linecap: butt}</style>
 </defs>
 <g id="figure_1">
  <g id="patch_1">
   <path d="M 0 568.8 
L 292.875301 568.8 
L 292.875301 0 
L 0 0 
z
" style="fill: #ffffff"/>
  </g>
  <g id="axes_1">
   <g id="LineCollection_1">
    <path d="M 201.759357 103.988521 
L 203.273584 104.80855 
L 204.232595 105.623454 
L 204.624741 105.977091 
L 205.583751 106.653615 
L 207.482359 107.458268 
L 208.340421 108.037414 
L 208.577262 108.334674 
L 208.4569 109.036824 
L 207.424119 111.635291 
L 205.972014 114.766776 
L 205.079009 115.417674 
L 201.739944 121.27063 
L 201.355563 121.573016 
L 201.091544 122.065033 
L 199.697678 125.529655 
L 198.233925 128.179373 
L 195.426781 133.022669 
L 194.386235 134.985613 
L 193.233093 136.89218 
L 190.798682 141.58172 
L 189.389286 143.964929 
L 188.604994 145.522984 
L 187.4635 147.532055 
L 186.857809 148.977356 
L 185.766789 151.350314 
L 185.199924 152.021713 
L 184.660238 153.021123 
L 183.487683 154.953316 
L 182.76163 156.716378 
L 181.31729 159.002209 
L 180.012726 161.523798 
L 177.811272 165.060172 
L 175.407922 169.406325 
L 173.649089 172.840196 
L 172.391116 174.79289 
L 169.677155 179.385052 
L 167.095203 184.751116 
L 166.605991 185.566019 
L 166.396329 186.134914 
L 166.209963 187.441835 
L 165.355783 187.985104 
L 164.548196 189.12802 
L 164.140519 190.101804 
L 163.515415 190.7117 
L 162.731123 192.233879 
L 161.201365 192.208253 
L 160.560731 192.556765 
L 160.343303 192.925778 
L 160.327773 194.089194 
L 160.848046 195.109105 
L 161.127595 195.385865 
L 162.34286 196.021387 
L 162.536991 196.51853 
L 162.602996 197.974081 
L 162.804893 199.378381 
L 162.684531 200.977437 
L 162.401099 202.012723 
L 162.206967 203.821912 
L 161.597394 205.938612 
L 160.626736 208.521703 
L 160.172467 209.490362 
L 160.405425 209.792747 
L 161.733286 210.182261 
L 161.977892 210.42827 
L 161.842 210.607651 
L 161.496445 210.648653 
L 160.704388 209.895251 
L 160.770393 209.879876 
L 160.098697 211.227798 
L 158.258329 215.773833 
L 157.268257 219.089825 
L 155.148339 220.319868 
L 154.111676 224.409762 
L 154.154385 226.33683 
L 154.336869 228.243397 
L 154.360165 230.554854 
L 154.197094 231.041746 
L 153.175961 232.630552 
L 151.541373 234.424365 
L 151.044396 235.562155 
L 150.66778 239.10878 
L 150.768729 239.887807 
L 150.935682 239.800679 
L 151.129813 239.913433 
L 151.125931 240.287571 
L 150.881325 240.66171 
L 149.864075 247.801086 
L 148.050885 247.908715 
L 147.654856 248.118847 
L 146.862799 249.389892 
L 146.365822 250.071541 
L 143.585856 254.458696 
L 143.151001 254.689329 
L 142.242465 254.85846 
L 142.110455 254.894336 
L 141.846436 254.72008 
L 141.473703 255.663113 
L 140.71659 257.667059 
L 140.549637 257.964319 
L 139.540152 259.471122 
L 139.210128 260.219398 
L 136.511698 264.883313 
L 135.840002 266.707877 
L 134.826635 268.92708 
L 134.298596 270.823397 
L 133.642431 273.406488 
L 133.071684 274.113763 
L 131.825359 274.918416 
L 131.390504 275.682068 
L 130.901292 276.865985 
L 130.109235 279.290195 
L 129.54237 280.27423 
L 128.874557 281.514523 
L 123.846547 289.566182 
L 122.402207 291.488125 
L 121.788751 292.441408 
L 119.641654 296.823438 
L 117.886704 300.108678 
L 116.90828 302.189502 
L 115.646424 304.731591 
L 115.203804 305.956509 
L 114.80001 306.730411 
L 113.013999 309.913149 
L 111.69002 312.624369 
L 109.717642 315.402217 
L 108.261655 317.805926 
L 107.411358 319.230727 
L 106.324221 320.307015 
L 104.254777 324.273904 
L 103.299649 325.86271 
L 102.328991 327.666774 
L 101.599055 329.10695 
L 101.366097 329.434961 
L 100.814763 330.598377 
L 99.719861 332.848331 
L 98.566719 334.862527 
L 98.155159 336.015693 
L 96.901069 338.552657 
L 96.28373 340.100462 
L 95.588738 341.140873 
L 94.124986 343.846969 
L 93.670717 344.528618 
L 91.69834 348.956774 
L 88.898961 353.446432 
L 87.668166 356.301157 
L 85.5366 360.693437 
L 84.864904 362.215616 
L 82.50038 367.479176 
L 79.254499 375.310452 
L 77.845102 378.508564 
L 76.540538 381.301788 
L 73.647975 388.123403 
L 73.275243 388.758925 
L 71.691128 392.30555 
L 71.59018 393.023076 
L 71.574649 394.242868 
L 71.302865 396.508198 
L 71.093202 399.860066 
L 70.596225 403.50407 
L 70.503042 406.358795 
L 70.184666 407.250577 
L 70.231258 407.650341 
L 69.943943 410.525567 
L 69.877938 411.571104 
L 69.928412 411.75561 
L 69.92453 414.333576 
L 69.846877 415.16898 
L 69.633332 415.922382 
L 69.400374 417.311306 
L 68.969402 418.449096 
L 69.000463 419.745767 
L 68.790801 420.857931 
L 68.911162 421.54983 
L 68.90728 423.174512 
L 68.596669 423.886912 
L 68.62773 424.609563 
L 68.196758 426.223995 
L 68.25888 427.131152 
L 67.909443 427.93068 
L 67.843438 428.709707 
L 67.25716 431.246672 
L 66.771831 431.63106 
L 66.15061 438.621806 
L 66.045779 440.579625 
L 65.385731 444.741272 
L 65.040177 445.335793 
L 64.892636 446.012317 
L 64.508256 449.010547 
L 64.252002 449.78445 
L 63.133803 451.562887 
L 62.807662 451.993402 
L 58.777488 458.569009 
L 57.740825 460.403824 
L 54.995803 464.908857 
L 50.173572 472.453123 
L 49.284449 473.754919 
L 48.601105 475.06184 
L 47.541146 476.819777 
L 46.826742 477.424548 
L 46.718028 477.721808 
L 46.597667 478.377832 
L 45.89491 480.381777 
L 45.130031 481.627196 
L 44.24479 483.44151 
L 43.584743 486.275735 
L 43.483794 487.885041 
L 43.122709 490.052993 
L 42.823747 491.103655 
L 43.041174 491.652049 
L 43.223658 491.851931 
L 45.32028 493.066599 
L 46.104572 493.430487 
L 46.822859 493.589367 
L 47.397489 493.543241 
L 47.960471 493.881503 
L 48.333204 493.968631 
L 48.892303 494.793785 
L 49.265036 494.911664 
L 49.649417 495.249926 
L 49.874609 496.264712 
L 49.81637 499.754959 
L 49.53682 500.569863 
L 48.841829 501.302764 
L 48.177898 502.584059 
L 47.013108 505.105648 
L 46.916042 505.479786 
L 46.970399 506.238313 
L 47.661508 508.047501 
L 47.727513 508.365263 
L 47.533381 508.939283 
L 47.370311 510.54859 
L 45.6736 511.84526 
L 42.862573 514.623108 
L 42.520901 515.335508 
L 41.041618 516.586052 
L 40.420396 518.174858 
L 40.183556 519.902044 
L 39.558452 521.280718 
L 38.521788 521.936741 
L 37.97822 522.633765 
L 36.774603 523.20266 
L 36.522232 523.212911 
L 35.035183 522.495385 
L 34.126647 521.967492 
L 31.773771 520.891204 
L 30.484737 520.558067 
L 28.465767 519.727788 
L 27.642649 519.558657 
L 26.283727 519.456153 
L 21.663393 519.768789 
L 20.164696 520.0763 
L 19.857968 520.327434 
L 19.99386 520.783575 
L 20.424833 521.080835 
L 20.898514 520.988582 
L 20.875218 520.886079 
L 20.875218 520.886079 
L 21.325604 520.911705 
L 23.197033 520.563192 
L 24.451124 520.496565 
L 24.7695 520.409437 
L 25.258712 519.866168 
L 25.204355 519.738038 
L 24.78503 519.943045 
L 24.808326 520.957831 
L 25.017988 521.275592 
L 24.874331 520.93733 
L 24.967514 520.701572 
L 25.204355 520.49144 
L 25.328599 519.896919 
L 25.631445 519.123017 
L 25.798398 519.041014 
L 26.920479 519.000012 
L 27.922198 519.092265 
L 29.370421 519.65091 
L 29.816924 519.507405 
L 30.267309 519.261396 
L 31.090428 518.989762 
L 33.322942 519.358775 
L 33.870393 519.666286 
L 34.623624 520.440188 
L 35.101188 521.301218 
L 35.023535 522.177624 
L 34.390666 524.079066 
L 34.285835 525.391112 
L 34.57315 527.225927 
L 34.685746 528.332966 
L 34.92647 528.87111 
L 35.485569 529.496382 
L 36.456227 530.121654 
L 38.832399 531.382448 
L 40.024368 531.669458 
L 41.282341 531.715585 
L 41.818144 531.86934 
L 42.551962 534.898322 
L 42.687854 535.25196 
L 43.13824 535.620973 
L 45.075674 536.4 
L 45.859966 536.282121 
L 47.187827 535.810604 
L 47.731396 535.682475 
L 49.583412 534.9752 
L 54.758963 533.714405 
L 55.815039 533.222388 
L 57.441862 531.946218 
L 59.425888 530.275409 
L 61.503097 528.338091 
L 63.355114 526.108638 
L 65.859412 524.253322 
L 66.581582 523.720303 
L 66.884428 523.233411 
L 67.016437 522.551762 
L 68.088044 520.189054 
L 68.157931 519.333149 
L 68.390889 518.666875 
L 69.318839 517.518835 
L 70.930132 516.493799 
L 71.100968 516.160662 
L 71.520292 515.858277 
L 72.374472 514.940869 
L 72.910275 513.485318 
L 73.453844 513.049678 
L 76.04356 511.896512 
L 76.67643 511.891387 
L 77.480135 511.681254 
L 78.198422 511.173862 
L 79.029306 510.681844 
L 80.225157 509.825939 
L 81.929633 509.067412 
L 82.678981 509.205792 
L 84.515467 508.7189 
L 86.251004 507.386353 
L 86.654798 507.324851 
L 88.875665 506.038431 
L 91.279015 504.213866 
L 92.463218 502.409803 
L 92.680646 502.204796 
L 94.738442 501.60515 
L 95.223771 501.256637 
L 96.454566 500.646741 
L 97.444637 499.790836 
L 98.116333 499.237316 
L 98.306582 499.544827 
L 101.195262 499.129687 
L 102.523122 497.889394 
L 103.078339 497.889394 
L 104.281955 497.48963 
L 104.491618 495.905949 
L 105.303088 495.173048 
L 109.302201 494.455523 
L 110.905728 494.071134 
L 114.229263 492.646334 
L 116.205523 492.082564 
L 118.562282 491.718676 
L 119.404814 491.785304 
L 119.742603 491.836556 
L 120.66667 491.805804 
L 121.144233 491.621298 
L 123.318508 490.042742 
L 125.232647 490.068368 
L 127.348682 489.791609 
L 128.280514 489.996616 
L 130.672217 489.858236 
L 131.697232 489.69423 
L 135.040179 489.002331 
L 138.724799 488.69482 
L 142.324 487.690285 
L 142.863686 487.490402 
L 144.028476 487.218768 
L 146.998691 487.223893 
L 149.534051 486.808753 
L 150.780376 487.295646 
L 151.751035 488.822949 
L 151.296767 487.98242 
L 150.993921 485.99385 
L 151.013334 485.660713 
L 150.908503 483.769521 
L 150.01938 475.886994 
L 150.034911 473.667791 
L 150.07762 472.294242 
L 150.454235 470.828441 
L 150.966743 469.572771 
L 153.172079 465.313746 
L 153.214788 464.391214 
L 156.546087 457.164709 
L 156.879994 455.852663 
L 157.109069 455.422148 
L 157.171192 454.976257 
L 156.751867 454.381736 
L 153.238084 452.833932 
L 149.658295 451.588513 
L 147.685917 450.624979 
L 147.697565 450.460973 
L 148.439148 448.646659 
L 149.666061 445.366544 
L 149.596173 444.67977 
L 150.621188 442.757827 
L 150.861912 441.922423 
L 151.33171 441.061392 
L 154.061202 433.75801 
L 154.701836 432.522842 
L 155.027978 431.800191 
L 155.781209 430.75978 
L 157.827357 427.136277 
L 158.502935 425.731977 
L 160.921816 421.324322 
L 164.051218 415.28686 
L 164.843276 414.154195 
L 168.791914 406.92769 
L 171.501992 402.325278 
L 172.375585 400.618593 
L 173.396718 398.870906 
L 173.687915 398.199508 
L 175.108959 395.724046 
L 175.582641 394.786138 
L 177.007567 392.423429 
L 177.217229 391.224137 
L 177.065807 391.060131 
L 176.013613 390.383608 
L 174.068413 389.312445 
L 172.224162 388.272033 
L 170.438151 387.385377 
L 169.673272 387.262373 
L 168.318233 386.744729 
L 167.526176 386.186085 
L 166.074071 385.407057 
L 160.836398 382.526706 
L 158.5107 381.296663 
L 150.656132 377.094015 
L 150.65225 377.104265 
L 150.357169 376.889007 
L 149.635 376.576371 
L 145.298098 373.716521 
L 142.405536 372.127715 
L 142.157047 372.137965 
L 143.143236 370.226273 
L 146.264873 364.122183 
L 148.027589 360.888194 
L 149.176849 358.889373 
L 149.572877 358.018093 
L 152.205303 353.190173 
L 152.48097 352.359893 
L 154.138855 349.453916 
L 154.239803 349.125905 
L 154.600888 348.495507 
L 155.447302 347.460221 
L 156.62374 345.005259 
L 158.650475 341.868649 
L 159.322171 340.694983 
L 161.741051 336.159198 
L 162.591348 334.918904 
L 164.552078 331.26465 
L 164.684088 331.028892 
L 164.959755 330.014106 
L 171.168086 318.318445 
L 171.505875 317.354911 
L 172.938567 314.843572 
L 173.416131 314.305428 
L 173.73839 313.628904 
L 174.542095 312.398861 
L 174.852705 311.332824 
L 175.260382 310.282162 
L 176.227158 308.134711 
L 176.099031 307.709321 
L 175.256499 307.196803 
L 173.08999 306.376774 
L 172.262989 305.992385 
L 169.486906 304.470207 
L 168.656022 303.85006 
L 165.872174 302.363758 
L 165.266483 301.948618 
L 163.872617 301.451476 
L 161.609042 300.031801 
L 161.26737 299.739665 
L 158.266094 297.8741 
L 157.947718 297.74597 
L 153.377858 295.065501 
L 152.213068 294.450479 
L 149.767009 293.394692 
L 149.204027 292.892424 
L 146.994809 291.411247 
L 141.792079 288.120881 
L 141.310633 287.639114 
L 140.475867 287.213724 
L 140.250674 287.37773 
L 140.037129 287.285477 
L 139.850763 287.029218 
L 139.866293 286.496199 
L 141.155328 284.12324 
L 142.758855 281.371018 
L 142.743325 280.904627 
L 143.139353 279.925717 
L 144.393444 277.891021 
L 145.600943 275.625691 
L 148.668224 269.895739 
L 149.471929 268.696447 
L 149.953375 267.825166 
L 150.72602 266.672001 
L 151.529725 265.195949 
L 152.376139 263.181753 
L 153.929192 260.193772 
L 155.408476 257.933568 
L 156.146176 257.410799 
L 157.132365 256.488267 
L 158.091376 253.715544 
L 158.677653 252.736635 
L 159.609485 250.496931 
L 160.121993 249.876784 
L 162.249676 246.396787 
L 162.272972 246.171279 
L 162.203085 246.186654 
L 162.156493 246.278907 
L 162.175906 246.253282 
L 162.983494 245.448628 
L 162.967964 245.048864 
L 163.165978 244.597848 
L 163.72896 244.059704 
L 164.128871 243.711192 
L 164.851041 243.321678 
L 164.851041 243.460058 
L 164.990816 243.485684 
L 165.716868 243.08592 
L 166.831184 241.481738 
L 167.514528 240.072314 
L 168.776384 236.55644 
L 169.681037 235.239269 
L 169.991648 234.501243 
L 170.20131 233.040566 
L 170.368263 232.610051 
L 171.43987 231.267254 
L 171.99897 230.349846 
L 173.004572 228.094767 
L 173.555906 227.295239 
L 174.19654 226.567463 
L 175.136138 224.804401 
L 175.928195 223.21047 
L 176.681426 222.272562 
L 179.4148 217.972536 
L 181.410474 213.482877 
L 183.639105 208.701084 
L 183.693462 207.988684 
L 184.031251 207.245533 
L 184.35351 205.979613 
L 184.167144 205.103207 
L 183.973012 204.862324 
L 183.149894 204.226801 
L 182.035578 203.529777 
L 181.045506 202.402237 
L 180.797018 201.710338 
L 180.870788 200.562297 
L 181.053271 200.152283 
L 181.72885 199.152873 
L 183.747819 197.010547 
L 184.116669 196.334023 
L 187.040293 189.579036 
L 188.271087 187.569965 
L 189.789197 185.791527 
L 190.585137 184.935622 
L 191.206358 184.535858 
L 192.250787 184.16172 
L 193.683479 184.054091 
L 194.720142 184.182221 
L 195.050166 184.289849 
L 197.888371 185.970908 
L 198.890091 186.232293 
L 200.02382 186.063162 
L 200.547975 185.812028 
L 202.260217 184.751116 
L 202.908616 184.120718 
L 203.747265 182.675417 
L 204.690745 180.486965 
L 205.948719 178.570148 
L 207.261049 177.509235 
L 210.386569 175.146527 
L 211.062147 174.305998 
L 211.376641 173.731977 
L 212.122106 171.748533 
L 212.692853 169.621583 
L 212.809332 168.478667 
L 212.417186 167.248624 
L 211.524181 165.219053 
L 211.372758 164.332396 
L 211.520298 162.569334 
L 212.102693 161.441795 
L 213.682925 159.391722 
L 215.360223 157.91567 
L 216.497834 157.264773 
L 217.274361 156.875259 
L 218.144071 156.234611 
L 218.528452 155.722093 
L 218.734231 155.112197 
L 218.893419 153.508015 
L 218.885654 151.463068 
L 219.825251 148.53659 
L 220.815323 144.70808 
L 222.069414 141.960984 
L 222.931358 140.45418 
L 224.93868 138.065846 
L 226.348076 136.630796 
L 227.307087 135.323875 
L 228.584473 132.827912 
L 229.912334 129.424792 
L 231.449857 127.22609 
L 232.311801 126.349684 
L 234.039573 125.135016 
L 237.149563 124.038227 
L 237.549474 124.022852 
L 241.249624 124.668625 
L 242.033916 124.586622 
L 243.198706 124.25861 
L 244.227604 123.669214 
L 244.786703 123.141321 
L 245.788423 121.588391 
L 253.068361 108.268047 
L 254.745659 105.090435 
L 257.614925 99.765372 
L 258.570053 97.638423 
L 258.694297 96.895271 
L 258.733124 93.645907 
L 259.164096 89.925026 
L 258.985495 88.228591 
L 258.348743 86.614159 
L 257.424676 84.615339 
L 257.381967 83.5083 
L 257.642104 82.411511 
L 258.546757 80.269186 
L 260.759859 76.584181 
L 261.74993 75.292636 
L 265.636446 70.849104 
L 266.17225 70.075202 
L 266.46733 69.193671 
L 266.622635 67.794497 
L 266.494508 65.406162 
L 266.595457 63.586723 
L 267.053608 60.567992 
L 267.919435 58.113031 
L 268.431943 57.39038 
L 269.387071 56.421721 
L 271.277913 55.130176 
L 272.081618 54.684285 
L 272.691192 54.064138 
L 273.017333 52.793093 
L 272.842615 51.952564 
L 272.267985 51.229913 
L 271.351683 50.881401 
L 270.862471 50.85065 
L 269.849104 50.958279 
L 268.56007 51.578425 
L 268.179572 51.86031 
L 267.076904 52.83922 
L 266.642049 53.054477 
L 265.686921 53.182607 
L 264.751206 52.890472 
L 263.994092 52.249824 
L 263.590298 51.378543 
L 263.648538 50.440635 
L 264.106689 49.461726 
L 266.731349 46.473746 
L 266.944894 46.04323 
L 268.396999 43.665147 
L 269.247296 41.158933 
L 269.35601 40.390156 
L 269.119169 38.78085 
L 268.750319 38.083825 
L 267.503993 36.981911 
L 265.694686 35.562236 
L 263.683482 34.332193 
L 260.526901 33.39941 
L 257.657634 33.035522 
L 256.186116 32.415376 
L 255.64643 32.4 
L 254.462227 33.020147 
L 253.930306 33.558291 
L 253.328498 34.465448 
L 253.083892 35.531485 
L 253.281906 37.294547 
L 253.569221 37.904444 
L 253.992428 38.329834 
L 254.55541 38.668096 
L 256.100698 39.22674 
L 257.292667 39.606004 
L 258.18179 40.226151 
L 258.779715 41.225561 
L 259.032087 42.086591 
L 259.063148 44.239167 
L 259.377641 45.766471 
L 259.878501 47.421904 
L 259.886266 48.334186 
L 259.653308 49.302845 
L 258.973847 50.568765 
L 257.859531 51.947438 
L 257.125713 52.547085 
L 255.957041 53.269735 
L 253.371207 54.202518 
L 252.229712 54.853416 
L 251.891923 55.176302 
L 250.645598 56.80611 
L 250.04379 58.66655 
L 249.162432 59.922219 
L 248.269426 60.629494 
L 247.644322 60.947255 
L 244.844943 62.064545 
L 243.722862 62.659066 
L 242.181456 63.894234 
L 240.434271 66.108312 
L 238.667673 69.788192 
L 237.599949 72.371283 
L 236.392449 74.610987 
L 235.553801 75.574521 
L 234.796687 76.169041 
L 232.420515 77.696345 
L 231.82259 78.470248 
L 231.065476 80.248685 
L 230.921819 81.196844 
L 230.948997 81.822116 
L 231.24796 84.241201 
L 231.088772 85.107356 
L 230.727687 85.942761 
L 230.199649 86.655161 
L 228.972736 87.798076 
L 225.571549 89.202375 
L 224.173801 89.919901 
L 222.057766 91.652212 
L 221.60738 92.082727 
L 220.908506 92.907881 
L 219.468049 95.137334 
L 218.571161 97.207907 
L 218.147954 98.888967 
L 218.074184 100.795534 
L 218.206193 101.805194 
L 219.200147 105.336444 
L 219.638885 106.709992 
L 219.693242 108.929195 
L 219.095316 110.246367 
L 218.047005 111.988928 
L 216.664788 113.808367 
L 214.797241 115.607305 
L 213.888705 116.411959 
L 212.23082 117.544624 
L 211.531946 118.692664 
L 211.042734 118.784917 
L 211.003908 118.333901 
L 211.384406 116.796347 
L 211.65619 115.679058 
L 211.687251 115.002534 
L 210.961199 110.830637 
L 209.877944 109.482715 
L 209.722639 109.364836 
L 208.635501 108.944571 
L 207.847327 108.416677 
L 206.232151 107.673526 
L 205.044065 106.899624 
L 203.409476 105.80796 
L 202.900851 105.633704 
L 201.732178 105.008432 
L 201.681704 105.049434 
L 201.444864 104.885428 
L 201.444864 104.885428 
" clip-path="url(#p282b7b0f6f)" style="fill: none; stroke: #000000; stroke-width: 3"/>
   </g>
  </g>
 </g>
 <defs>
  <clipPath id="p282b7b0f6f">
   <rect x="7.2" y="7.2" width="278.475301" height="554.4"/>
  </clipPath>
 </defs>
</svg>
