<?xml version="1.0" encoding="utf-8" standalone="no"?>
<!DOCTYPE svg PUBLIC "-//W3C//DTD SVG 1.1//EN"
  "http://www.w3.org/Graphics/SVG/1.1/DTD/svg11.dtd">
<svg xmlns:xlink="http://www.w3.org/1999/xlink" width="572.4pt" height="405.642527pt" viewBox="0 0 572.4 405.642527" xmlns="http://www.w3.org/2000/svg" version="1.1">
 <metadata>
  <rdf:RDF xmlns:dc="http://purl.org/dc/elements/1.1/" xmlns:cc="http://creativecommons.org/ns#" xmlns:rdf="http://www.w3.org/1999/02/22-rdf-syntax-ns#">
   <cc:Work>
    <dc:type rdf:resource="http://purl.org/dc/dcmitype/StillImage"/>
    <dc:date>2022-04-12T01:33:18.877969</dc:date>
    <dc:format>image/svg+xml</dc:format>
    <dc:creator>
     <cc:Agent>
      <dc:title>Matplotlib v3.5.1, https://matplotlib.org/</dc:title>
     </cc:Agent>
    </dc:creator>
   </cc:Work>
  </rdf:RDF>
 </metadata>
 <defs>
  <style type="text/css">*{stroke-linejoin: round; stroke-linecap: butt}</style>
 </defs>
 <g id="figure_1">
  <g id="patch_1">
   <path d="M 0 405.642527 
L 572.4 405.642527 
L 572.4 -0 
L 0 -0 
z
" style="fill: #ffffff"/>
  </g>
  <g id="axes_1">
   <g id="LineCollection_1">
    <path d="M 271.563385 38.211707 
L 271.826493 38.095898 
L 272.450157 38.391854 
L 274.09702 39.421267 
L 280.898856 43.551786 
L 284.582371 45.263185 
L 286.726217 46.549952 
L 287.38886 47.296276 
L 289.951729 50.989295 
L 290.351264 51.105104 
L 291.26727 50.783412 
L 291.705784 50.268706 
L 292.962857 48.0426 
L 294.239419 45.700686 
L 294.79487 44.040758 
L 296.139645 42.033402 
L 296.821778 41.287078 
L 298.371193 40.823842 
L 306.605507 42.560977 
L 310.893198 44.825685 
L 316.194342 50.152897 
L 317.090859 50.924956 
L 319.098277 53.627165 
L 321.203143 55.338564 
L 326.319137 57.281581 
L 327.264378 57.526067 
L 330.285251 58.478273 
L 333.062505 59.739304 
L 334.826305 60.678644 
L 339.182208 62.608793 
L 341.667119 64.049971 
L 346.51026 67.369827 
L 347.894015 68.811005 
L 348.897724 70.651081 
L 349.62858 72.632701 
L 350.330202 76.016896 
L 350.661524 77.200721 
L 351.743191 81.498519 
L 355.017427 87.198893 
L 357.960342 90.222794 
L 362.822972 94.932358 
L 366.701383 101.5206 
L 369.303231 104.518765 
L 370.267962 105.290825 
L 370.862392 106.037149 
L 374.078159 108.443402 
L 374.351012 109.151124 
L 374.886973 109.601492 
L 375.793235 109.768771 
L 376.563071 109.730168 
L 378.385339 110.180536 
L 380.811782 111.467303 
L 382.643795 113.204437 
L 383.394141 113.590467 
L 386.064202 113.667673 
L 386.570929 113.410319 
L 386.590419 113.873555 
L 386.600163 114.426865 
L 386.94123 115.160321 
L 387.233572 115.27613 
L 388.149579 115.391939 
L 389.923123 116.305543 
L 390.673469 116.550029 
L 396.637256 119.959959 
L 399.385276 121.105181 
L 401.928656 120.860695 
L 403.000578 121.311063 
L 403.916585 121.902976 
L 405.885025 122.6493 
L 408.340702 123.331286 
L 409.100792 124.129081 
L 410.474802 125.055553 
L 412.920734 128.838645 
L 416.691953 131.656663 
L 419.079417 132.531664 
L 420.609342 133.419533 
L 422.012586 134.088651 
L 422.626506 134.101519 
L 424.341582 134.680563 
L 426.446448 134.847843 
L 432.351767 138.039023 
L 434.086332 138.00042 
L 434.836678 137.575787 
L 436.347114 136.096006 
L 438.568917 133.277988 
L 439.611606 132.544532 
L 440.21578 130.923206 
L 441.248724 129.649308 
L 442.18422 128.272468 
L 443.119716 127.526144 
L 443.772614 126.676878 
L 444.70811 124.811067 
L 445.419477 122.147461 
L 446.822721 119.689738 
L 448.313668 117.772457 
L 448.781416 117.219147 
L 449.297888 115.083115 
L 450.252873 113.937894 
L 451.704841 111.377229 
L 452.91319 109.395609 
L 454.365158 106.526121 
L 455.515038 103.373544 
L 457.59067 100.568393 
L 458.341016 97.917655 
L 459.003659 96.07758 
L 461.556784 91.882722 
L 461.527549 91.625369 
L 461.683465 91.458089 
L 468.251427 81.845946 
L 471.096894 77.342265 
L 479.438401 62.711734 
L 481.03654 59.301804 
L 482.176675 57.358787 
L 483.472727 55.698859 
L 484.408223 53.395547 
L 485.558104 50.230103 
L 487.468075 46.627157 
L 488.44255 45.07017 
L 488.520508 43.049948 
L 487.838375 38.134501 
L 487.526543 36.744794 
L 486.980837 35.573836 
L 486.435131 35.27788 
L 481.533522 34.904718 
L 476.807318 34.055452 
L 470.794807 31.893685 
L 466.487627 29.770521 
L 465.649579 29.345888 
L 462.112234 27.171254 
L 460.923375 26.759488 
L 457.688118 26.733753 
L 457.619904 26.810959 
L 457.142412 27.068312 
L 456.528492 27.621622 
L 455.612486 30.015007 
L 454.238476 32.820157 
L 452.513655 34.634497 
L 451.16888 36.526043 
L 449.629209 38.893693 
L 442.096517 51.426795 
L 440.780976 54.540769 
L 439.25105 56.856948 
L 435.119276 64.461736 
L 432.088658 71.487479 
L 430.938778 72.619833 
L 430.510009 73.288952 
L 429.866855 74.652924 
L 428.385653 78.448884 
L 426.982409 81.254034 
L 426.504916 81.691534 
L 425.598655 82.862492 
L 424.536477 84.895582 
L 423.43532 87.340438 
L 422.65574 88.768748 
L 422.431611 89.489337 
L 421.778712 91.097795 
L 421.30122 91.818384 
L 415.82467 101.649277 
L 413.651591 105.86987 
L 413.710059 106.30737 
L 413.87572 105.663987 
L 413.943933 105.290825 
L 414.928153 102.948911 
L 415.697988 101.30185 
L 416.886848 98.483832 
L 419.381504 93.606989 
L 420.872451 91.175001 
L 421.69101 90.467279 
L 422.490079 90.197058 
L 423.922558 90.222794 
L 427.7425 92.152943 
L 429.632981 94.018754 
L 430.938778 96.720963 
L 432.342022 97.711773 
L 433.7745 98.458097 
L 436.278901 99.847804 
L 437.243631 99.912143 
L 437.750358 100.182364 
L 438.783302 101.005894 
L 445.28305 104.107 
L 446.627826 104.686045 
L 451.792544 107.529798 
L 452.72804 107.542666 
L 453.215277 107.413989 
L 453.644046 106.963621 
L 455.018056 104.49303 
L 457.347051 101.366188 
L 458.418974 99.564716 
L 464.60689 88.022424 
L 468.31964 80.443371 
L 470.843531 76.132705 
L 474.790155 69.94336 
L 476.13493 67.215415 
L 478.463926 62.055483 
L 481.075519 57.358787 
L 483.930731 50.84775 
L 488.072249 43.127154 
L 488.335358 40.720901 
L 488.05276 37.825677 
L 487.546033 37.465383 
L 486.376663 36.345896 
L 485.129335 35.83119 
L 482.507997 34.994792 
L 477.236087 33.772364 
L 473.679253 33.437805 
L 467.92985 31.04442 
L 465.678813 29.821992 
L 459.188809 26.386326 
L 457.668628 24.983751 
L 457.327562 25.125296 
L 456.655174 26.283385 
L 456.03151 27.917578 
L 454.959588 30.310963 
L 453.69277 32.382656 
L 451.821778 35.355086 
L 451.003219 37.002147 
L 449.931296 38.41759 
L 448.674224 40.373474 
L 447.84592 41.969064 
L 446.871445 44.143699 
L 445.624117 46.06098 
L 443.295121 48.853263 
L 440.547102 57.307316 
L 436.33737 64.899236 
L 436.13273 66.160267 
L 436.454307 66.559165 
L 438.978197 68.244828 
L 444.415768 71.397405 
L 447.777707 73.829393 
L 450.301597 75.347777 
L 450.301597 75.347777 
L 450.96424 75.93969 
L 452.844977 76.866161 
L 457.142412 78.654766 
L 461.020822 81.086754 
L 462.833346 82.1033 
L 465.064894 83.570213 
L 465.123362 83.428669 
L 467.569295 83.673154 
L 468.70943 84.445214 
L 469.557224 85.217274 
L 470.892254 86.220951 
L 473.279718 87.649262 
L 473.893638 88.086762 
L 476.904765 90.68603 
L 481.523777 92.847797 
L 484.700566 94.86802 
L 485.402188 95.151108 
L 486.376663 95.369858 
L 486.737219 95.061034 
L 487.078285 95.13824 
L 487.935823 95.730153 
L 488.345102 95.768756 
L 490.59614 96.875375 
L 495.098215 99.860672 
L 497.134867 101.314718 
L 499.200754 102.51141 
L 502.328819 104.531633 
L 505.008626 105.947076 
L 506.333912 106.436047 
L 509.890746 108.379064 
L 510.416962 108.340461 
L 510.416962 108.340461 
L 516.380749 111.171346 
L 524.527361 115.855175 
L 526.398353 116.807382 
L 528.035471 117.901133 
L 529.156117 118.493046 
L 532.303672 121.040843 
L 532.95657 121.027975 
L 533.453552 120.783489 
L 534.788583 119.869885 
L 535.217352 119.368047 
L 536.893449 116.588632 
L 537.614561 115.134586 
L 537.595071 114.877233 
L 537.663284 114.040835 
L 537.575582 112.85701 
L 537.156557 112.548186 
L 537.292984 112.869878 
L 538.238225 112.059215 
L 538.59878 111.351494 
L 538.842399 109.781639 
L 539.475808 107.452592 
L 539.485553 105.908473 
L 538.608525 104.300015 
L 538.140777 103.026117 
L 535.597397 101.108835 
L 535.246586 101.147438 
L 535.305055 101.198909 
L 536.796002 101.713615 
L 537.702263 102.099645 
L 539.2127 102.948911 
L 539.495297 102.820234 
L 539.495297 102.12538 
L 537.546347 92.680517 
L 537.331963 90.7375 
L 537.721753 77.187853 
L 539.777895 74.305497 
L 539.836364 73.73932 
L 539.631724 73.095937 
L 539.017805 72.491157 
L 538.930102 72.117994 
L 538.930102 72.117994 
L 538.59878 72.259539 
L 538.676738 72.761377 
L 539.19321 73.481967 
L 539.495297 73.687849 
L 539.719427 73.52057 
L 538.550057 71.899244 
L 535.899484 69.1713 
L 535.383013 68.888211 
L 534.320835 68.502182 
L 533.775129 68.18049 
L 531.76771 66.816518 
L 527.031762 64.075706 
L 523.075393 61.888204 
L 520.220181 59.98379 
L 518.661021 59.185995 
L 515.864278 57.731949 
L 511.596077 55.814668 
L 511.235521 55.981947 
L 510.845731 56.458051 
L 508.039243 61.013203 
L 505.63229 65.388208 
L 505.232755 66.726444 
L 504.219301 69.415786 
L 503.235081 71.500347 
L 501.520005 74.884542 
L 498.723262 80.752195 
L 496.930228 83.557345 
L 495.84856 84.046316 
L 494.815617 86.066539 
L 492.087087 89.592278 
L 491.317251 91.496692 
L 489.270854 94.134563 
L 488.754382 95.369858 
L 488.023526 96.206256 
L 487.594757 97.261405 
L 487.058795 98.895598 
L 486.045341 101.147438 
L 484.417968 103.733838 
L 483.453238 105.715458 
L 482.810084 106.937886 
L 479.467635 112.586789 
L 477.869496 114.954439 
L 476.719615 117.322088 
L 472.383201 125.351509 
L 469.985993 129.765117 
L 467.959085 133.728357 
L 465.824984 137.78167 
L 464.178121 141.294541 
L 462.151213 144.665869 
L 459.598089 150.198963 
L 458.1851 152.322127 
L 456.450534 155.371763 
L 451.967949 165.12545 
L 448.411115 172.11259 
L 448.781416 173.129135 
L 450.496492 174.415901 
L 454.413882 176.101565 
L 454.959588 176.590536 
L 456.81109 177.607081 
L 459.013404 179.151201 
L 460.767459 180.116275 
L 461.858871 180.836864 
L 466.146561 183.011499 
L 469.021262 184.903045 
L 478.074136 189.88283 
L 480.25696 191.233935 
L 484.681076 193.67879 
L 486.08432 194.296438 
L 488.715403 196.033572 
L 490.011455 196.86997 
L 491.453678 197.268868 
L 492.174789 197.680633 
L 494.503785 198.85159 
L 500.058292 201.090563 
L 501.568729 201.875491 
L 505.164542 203.342404 
L 509.306061 205.336891 
L 510.797007 206.211892 
L 514.694908 207.678806 
L 515.269848 208.013365 
L 516.526921 208.322189 
L 517.930165 205.761524 
L 518.797448 204.02439 
L 519.119024 203.110786 
L 519.840136 200.254165 
L 520.395587 200.562989 
L 521.272614 201.360784 
L 525.423878 203.651228 
L 526.671206 204.976597 
L 527.177933 206.585055 
L 527.616447 207.022555 
L 528.357048 207.202702 
L 530.042889 206.520716 
L 530.140337 206.868143 
L 528.844285 207.768879 
L 527.899044 208.180645 
L 527.830831 208.347924 
L 527.577468 207.678806 
L 527.8893 207.279908 
L 528.123174 206.494981 
L 527.733384 206.083216 
L 527.411807 205.954539 
L 526.827122 205.941671 
L 526.866101 205.903069 
L 527.051251 205.825863 
L 527.567723 205.761524 
L 528.815051 205.774392 
L 529.467949 205.941671 
L 529.61412 206.160422 
L 529.63361 206.417775 
L 529.24382 207.833218 
L 528.571432 208.515204 
L 527.168188 209.19719 
L 526.018308 211.17881 
L 524.634553 213.327709 
L 522.831774 215.013373 
L 522.110663 215.528079 
L 520.921803 216.055653 
L 520.239671 216.660433 
L 519.158003 217.702714 
L 518.222507 218.77073 
L 517.793738 219.697201 
L 517.647567 220.443526 
L 517.647567 220.443526 
L 518.10557 219.877349 
L 518.358934 219.851613 
L 518.134804 219.774407 
L 518.261486 220.726614 
L 519.021577 221.601615 
L 518.592808 221.678821 
L 518.222507 221.897571 
L 517.014158 223.480294 
L 514.042009 226.838753 
L 508.409544 235.061189 
L 503.147378 242.112667 
L 503.020697 242.395756 
L 502.250861 243.669654 
L 499.834163 246.616349 
L 495.439281 253.26893 
L 495.146938 253.346136 
L 495.039746 252.985841 
L 495.263875 252.71562 
L 496.228606 251.377383 
L 500.145995 245.651274 
L 500.165485 245.265244 
L 499.571055 244.73767 
L 497.008186 243.502375 
L 495.08847 242.498697 
L 492.077342 240.748695 
L 490.372011 239.9509 
L 489.553452 239.011561 
L 487.127009 237.14575 
L 486.045341 235.949058 
L 485.402188 235.588763 
L 485.012398 234.842439 
L 483.57992 234.675159 
L 482.235144 234.083247 
L 480.403131 232.860819 
L 478.775758 232.590598 
L 477.411493 231.58692 
L 475.37484 230.673316 
L 472.743757 229.450889 
L 471.389237 228.807506 
L 469.401308 227.482136 
L 467.179505 227.006033 
L 464.061184 224.960075 
L 462.901559 224.046471 
L 456.772111 220.765217 
L 455.320143 219.619995 
L 454.033836 219.131024 
L 452.679316 218.346097 
L 450.018999 216.390212 
L 448.508563 215.721094 
L 447.758217 215.515211 
L 446.637571 214.846093 
L 445.516924 214.151239 
L 443.655677 213.301974 
L 439.913693 210.689839 
L 439.270539 210.136529 
L 438.588407 210.007852 
L 437.155929 209.982117 
L 435.226468 209.274396 
L 433.891437 208.579542 
L 431.737847 206.379172 
L 430.45154 206.05748 
L 429.330894 205.465568 
L 429.467321 205.311156 
L 429.467321 205.311156 
L 428.804677 204.719244 
L 427.391689 204.500493 
L 426.212574 203.471081 
L 422.421866 201.618137 
L 419.732315 199.868135 
L 415.668754 195.917763 
L 415.035345 195.428792 
L 413.797762 194.244967 
L 411.546725 191.594229 
L 410.815868 191.388347 
L 410.104501 190.87364 
L 407.63908 191.066655 
L 405.768088 190.680625 
L 404.900805 190.062978 
L 404.48178 189.574006 
L 403.273431 187.051945 
L 401.607079 185.366281 
L 401.002905 185.070325 
L 400.369496 185.237605 
L 398.937017 185.829517 
L 397.543518 184.748633 
L 395.526355 183.577676 
L 394.288772 182.947161 
L 393.012209 182.599734 
L 392.037734 182.651205 
L 390.576022 182.586866 
L 389.494354 181.90488 
L 387.876726 180.219217 
L 387.048422 179.176936 
L 386.259097 179.176936 
L 385.38207 179.357083 
L 383.657249 178.790906 
L 381.834981 176.744948 
L 381.26004 176.268845 
L 379.428027 174.055607 
L 378.551 174.428769 
L 376.670263 175.007814 
L 373.503219 174.068475 
L 372.850321 173.592371 
L 371.437332 172.395679 
L 368.465183 170.0795 
L 366.83781 167.904865 
L 366.370062 166.965526 
L 365.337118 165.241259 
L 364.66473 164.868097 
L 361.73156 165.099715 
L 361.400239 165.202656 
L 361.254068 165.704495 
L 361.117641 165.704495 
L 360.454998 165.241259 
L 360.542701 166.103392 
L 360.78632 166.33501 
L 362.267522 166.785378 
L 362.364969 166.669569 
L 362.14084 165.807436 
L 361.000704 166.051922 
L 359.197925 165.228391 
L 357.970087 164.52067 
L 356.878675 163.632801 
L 355.738539 162.590521 
L 354.491211 162.423241 
L 353.273117 161.71552 
L 351.421614 160.428754 
L 348.790532 158.884634 
L 345.107016 156.465514 
L 344.853653 156.903014 
L 344.132541 158.421398 
L 341.823035 163.928757 
L 340.653665 165.588686 
L 340.185917 166.463687 
L 339.377103 168.342365 
L 338.275946 170.336853 
L 335.011455 175.548256 
L 334.300088 177.388331 
L 330.32423 184.040912 
L 328.550685 187.875475 
L 324.0681 196.689823 
L 323.142349 198.671443 
L 321.446762 201.206372 
L 317.568352 207.472923 
L 315.979957 210.857118 
L 313.719175 214.58874 
L 311.711757 218.796465 
L 310.600855 221.627351 
L 308.915013 223.840588 
L 306.615252 227.649416 
L 306.011078 228.434343 
L 302.668628 233.800158 
L 301.577216 235.987661 
L 300.164227 239.333252 
L 299.618521 240.401268 
L 296.74382 245.599803 
L 286.813919 262.533646 
L 284.699308 265.686223 
L 281.580988 271.708288 
L 279.651528 275.941749 
L 275.441796 284.099846 
L 267.519313 297.99692 
L 264.975934 301.496924 
L 263.095197 304.713839 
L 262.393575 305.280016 
L 261.701697 305.382958 
L 259.947642 304.199133 
L 257.920734 303.105382 
L 256.088721 303.272661 
L 255.426078 303.697294 
L 254.95833 304.173398 
L 253.925387 306.438106 
L 253.80845 306.991415 
L 252.24929 309.616418 
L 250.154168 314.132967 
L 251.001962 314.300247 
L 252.756017 315.123777 
L 258.67108 318.791061 
L 259.440915 318.881134 
L 260.152282 319.640326 
L 263.153665 321.76349 
L 265.229297 323.436286 
L 266.885905 325.803936 
L 267.645995 326.11276 
L 269.380561 326.241437 
L 270.598655 325.353568 
L 271.660832 323.552095 
L 272.040878 322.136653 
L 272.713265 320.33518 
L 273.931359 319.781871 
L 274.126254 319.717532 
L 274.964303 317.568633 
L 276.728103 313.142157 
L 275.587967 311.700979 
L 273.68774 310.015316 
L 270.988445 308.509799 
L 269.497498 307.493254 
L 267.119779 306.322297 
L 265.443682 305.009796 
L 262.276638 304.340677 
L 258.164353 301.998763 
L 257.336049 301.767145 
L 255.504036 301.033688 
L 254.704967 301.689939 
L 254.441858 302.526337 
L 253.175041 305.305752 
L 252.980146 306.399503 
L 252.453929 307.145827 
L 252.073884 307.969358 
L 251.508689 308.792888 
L 249.023777 314.068629 
L 249.101735 314.467527 
L 249.335609 314.068629 
L 249.228417 314.248776 
L 247.523086 314.840689 
L 247.065082 315.316792 
L 246.421929 316.590691 
L 245.242814 320.348048 
L 245.262304 322.805771 
L 244.716598 326.048422 
L 242.134239 330.307618 
L 241.305935 332.623797 
L 240.399673 337.88667 
L 240.078096 343.252485 
L 239.814988 344.204692 
L 239.512901 345.723076 
L 238.58715 347.344401 
L 237.563951 350.394037 
L 236.881818 354.125659 
L 236.940287 354.846248 
L 236.852584 355.553969 
L 236.189941 356.982279 
L 235.254445 358.513531 
L 233.441921 363.017212 
L 232.789023 364.175302 
L 231.298076 366.118319 
L 230.430793 367.572365 
L 229.37836 369.824205 
L 228.189501 374.726784 
L 227.020131 377.77642 
L 226.708299 379.114657 
L 225.48046 380.555835 
L 224.622922 380.658776 
L 224.116195 380.478629 
L 223.258657 379.732304 
L 222.800654 378.651421 
L 221.270728 376.824213 
L 216.680951 374.353622 
L 215.989073 374.237813 
L 213.280033 373.324209 
L 210.25916 370.750677 
L 209.138514 368.859131 
L 206.643858 365.217583 
L 204.032265 362.837065 
L 203.515793 362.03927 
L 202.83366 360.121989 
L 201.898164 358.320516 
L 201.196542 357.432647 
L 199.997938 355.631175 
L 198.73112 354.177129 
L 196.967321 355.425292 
L 195.914887 355.515366 
L 194.375217 354.563159 
L 193.556658 353.855438 
L 192.67963 352.941834 
L 189.463863 348.952859 
L 187.943682 347.730431 
L 184.630466 344.667928 
L 182.233258 341.862777 
L 179.836049 339.791084 
L 176.88339 336.007991 
L 174.895461 333.807621 
L 172.137696 330.963868 
L 171.40684 330.397691 
L 166.826807 327.914233 
L 162.188306 333.125635 
L 156.263498 335.46755 
L 154.743317 334.644019 
L 153.086709 333.408724 
L 150.104816 332.224899 
L 149.052383 332.031884 
L 144.365158 330.462029 
L 143.449151 330.243279 
L 142.474676 330.12747 
L 140.798579 329.419749 
L 139.687678 328.132983 
L 138.644989 325.816804 
L 137.728983 326.756143 
L 135.828756 328.09438 
L 135.205092 327.335188 
L 134.941984 327.257982 
L 134.415768 327.232247 
L 133.032013 326.575996 
L 130.137822 325.057612 
L 127.185163 322.381138 
L 123.832969 320.592533 
L 120.120219 317.684442 
L 118.551314 317.414221 
L 117.791223 317.581501 
L 117.099346 317.401353 
L 114.974991 316.513485 
L 114.166176 316.449146 
L 112.704464 315.844366 
L 109.264567 313.875614 
L 108.631158 313.927085 
L 108.465497 313.78554 
L 107.607959 313.476717 
L 105.62003 312.897672 
L 104.041381 312.241421 
L 102.618647 311.263479 
L 96.24558 307.042886 
L 90.242814 304.147662 
L 86.257211 301.908689 
L 83.090167 300.480379 
L 81.657689 299.553907 
L 79.611291 299.116407 
L 77.028932 297.649493 
L 64.847994 290.276323 
L 60.151025 287.059408 
L 57.744071 286.120069 
L 53.924129 284.02264 
L 51.5659 282.980359 
L 49.178436 281.590652 
L 45.348749 279.145796 
L 39.940412 276.546529 
L 36.841582 274.693586 
L 35.126506 274.114541 
L 32.885213 272.917848 
L 32.885213 272.917848 
L 32.563636 272.596157 
L 32.651339 271.541009 
L 34.288457 269.147624 
L 36.062002 265.776296 
L 36.52975 265.338796 
L 38.127889 264.142103 
L 40.359437 260.320408 
L 40.515353 259.985849 
L 41.860128 257.965626 
L 45.748284 250.257897 
L 46.196542 249.279955 
L 47.209996 249.164146 
L 49.110223 249.987676 
L 49.772866 250.219294 
L 58.601609 254.555696 
L 60.560304 255.211946 
L 63.795561 256.949081 
L 64.867484 257.72114 
L 66.455878 259.007907 
L 71.513404 261.967469 
L 75.060493 263.678868 
L 81.842839 267.706446 
L 83.947705 269.237697 
L 85.243757 270.382919 
L 90.00894 273.085128 
L 91.334226 273.522628 
L 92.201509 273.972997 
L 92.640023 273.702776 
L 97.327248 265.750561 
L 100.971784 258.789156 
L 101.595448 257.129228 
L 105.678499 250.68253 
L 105.678499 250.68253 
L 106.711442 249.897602 
L 107.763875 248.546498 
L 109.888231 244.454582 
L 110.511895 241.559358 
L 112.295184 237.943545 
L 115.501207 232.204568 
L 119.798642 224.908604 
L 123.01441 219.143892 
L 129.553137 206.649393 
L 132.846863 200.601592 
L 136.374462 194.682468 
L 144.423626 180.605246 
L 145.524783 178.919583 
L 147.941481 174.428769 
L 152.112234 164.803758 
L 154.246335 159.939783 
L 155.045404 158.57581 
L 156.263498 156.143822 
L 159.031007 151.743082 
L 160.755828 148.191608 
L 163.318697 144.678736 
L 164.643983 142.40116 
L 167.275066 136.559242 
L 168.795247 134.436078 
L 171.007305 130.331294 
L 172.722381 126.355187 
L 173.209619 124.875406 
L 175.187803 120.268783 
L 176.766453 118.235692 
L 177.994291 116.781647 
L 179.387791 114.465468 
L 182.623048 109.652962 
L 186.365032 101.945233 
L 189.317691 96.630889 
L 190.984044 94.108828 
L 191.3446 93.143753 
L 192.270351 91.226471 
L 195.359437 86.027936 
L 198.126946 81.009548 
L 200.738539 76.724617 
L 203.155237 72.040788 
L 208.164039 63.432323 
L 211.44802 58.941509 
L 212.529687 56.947022 
L 215.94035 51.439663 
L 223.307381 38.649207 
L 224.233132 37.452515 
L 224.856796 37.09222 
L 225.538929 36.950676 
L 226.815491 37.413912 
L 228.832654 38.893693 
L 230.313856 40.219062 
L 230.888797 40.077518 
L 230.888797 40.077518 
" clip-path="url(#p349bc44436)" style="fill: none; stroke: #000000; stroke-width: 3"/>
   </g>
  </g>
 </g>
 <defs>
  <clipPath id="p349bc44436">
   <rect x="7.2" y="7.2" width="558" height="391.242527"/>
  </clipPath>
 </defs>
</svg>
