<?xml version="1.0" encoding="utf-8" standalone="no"?>
<!DOCTYPE svg PUBLIC "-//W3C//DTD SVG 1.1//EN"
  "http://www.w3.org/Graphics/SVG/1.1/DTD/svg11.dtd">
<svg xmlns:xlink="http://www.w3.org/1999/xlink" width="498.645008pt" height="568.8pt" viewBox="0 0 498.645008 568.8" xmlns="http://www.w3.org/2000/svg" version="1.1">
 <metadata>
  <rdf:RDF xmlns:dc="http://purl.org/dc/elements/1.1/" xmlns:cc="http://creativecommons.org/ns#" xmlns:rdf="http://www.w3.org/1999/02/22-rdf-syntax-ns#">
   <cc:Work>
    <dc:type rdf:resource="http://purl.org/dc/dcmitype/StillImage"/>
    <dc:date>2022-04-13T12:44:41.376019</dc:date>
    <dc:format>image/svg+xml</dc:format>
    <dc:creator>
     <cc:Agent>
      <dc:title>Matplotlib v3.5.1, https://matplotlib.org/</dc:title>
     </cc:Agent>
    </dc:creator>
   </cc:Work>
  </rdf:RDF>
 </metadata>
 <defs>
  <style type="text/css">*{stroke-linejoin: round; stroke-linecap: butt}</style>
 </defs>
 <g id="figure_1">
  <g id="patch_1">
   <path d="M 0 568.8 
L 498.645008 568.8 
L 498.645008 0 
L 0 0 
z
" style="fill: #ffffff"/>
  </g>
  <g id="axes_1">
   <g id="LineCollection_1">
    <path d="M 258.581394 36.507361 
L 259.854984 38.025299 
L 261.973878 39.855753 
L 265.828462 41.715971 
L 268.116416 43.114855 
L 269.660504 44.35004 
L 272.466911 46.120967 
L 275.036633 47.534733 
L 275.600169 48.263938 
L 277.482378 49.21637 
L 278.406576 49.394951 
L 278.812322 49.21637 
L 280.480387 47.385915 
L 281.089006 46.582301 
L 282.294972 44.796492 
L 283.53475 43.204146 
L 284.278617 41.269519 
L 285.473313 40.451023 
L 286.262262 40.644486 
L 288.223366 41.329046 
L 294.095407 43.233909 
L 300.508442 45.019718 
L 302.751314 46.195376 
L 303.833302 46.939463 
L 305.839489 48.502046 
L 306.673522 49.55865 
L 308.014736 50.659899 
L 310.268879 52.043901 
L 317.854068 56.582833 
L 319.172741 57.07393 
L 321.269093 57.445974 
L 325.664671 59.053202 
L 326.881908 59.618708 
L 329.28257 60.556258 
L 336.25914 63.175445 
L 341.274607 65.928568 
L 343.179357 67.163752 
L 345.061566 68.785862 
L 346.673278 71.137178 
L 347.766537 73.428966 
L 348.138471 74.649269 
L 350.34753 83.831305 
L 350.8209 85.215307 
L 353.818909 89.977465 
L 354.731837 91.004305 
L 356.016698 93.563965 
L 356.016698 93.563965 
L 363.770948 101.644752 
L 366.058902 104.918735 
L 366.960559 105.841403 
L 371.72807 111.645283 
L 372.855142 113.014403 
L 373.542655 114.115652 
L 374.669726 115.142493 
L 375.413593 115.559182 
L 377.025305 116.333032 
L 379.347072 116.868775 
L 380.823535 117.672389 
L 383.539777 118.848047 
L 385.388173 119.279617 
L 386.244747 119.770715 
L 387.225299 121.110072 
L 389.975353 122.568483 
L 389.964082 122.866117 
L 390.08806 123.133989 
L 391.136236 123.520914 
L 392.78176 123.788786 
L 393.367837 124.101302 
L 396.129162 126.050811 
L 398.32695 127.166941 
L 402.90286 130.545097 
L 406.994128 132.286261 
L 410.318988 133.357746 
L 410.961418 133.72979 
L 411.322081 133.759554 
L 411.9307 134.161361 
L 413.688931 136.28945 
L 414.985063 137.479989 
L 417.577326 138.744938 
L 418.028155 139.28068 
L 419.763844 140.500983 
L 421.330473 141.364124 
L 424.790582 142.77789 
L 425.455554 142.926707 
L 427.540636 144.176774 
L 428.825497 145.129205 
L 432.285605 147.287058 
L 434.945493 148.284135 
L 439.600297 150.88844 
L 441.606484 151.260484 
L 444.931344 151.081903 
L 448.718303 152.897475 
L 451.558523 154.430295 
L 453.249129 155.710125 
L 455.041173 157.838214 
L 458.816861 160.263938 
L 459.639623 161.022907 
L 462.716527 162.704544 
L 464.238074 163.805793 
L 465.117189 163.939729 
L 467.562934 164.996333 
L 468.025033 165.14515 
L 468.735088 165.204677 
L 469.185916 165.427903 
L 469.433872 165.948764 
L 469.039397 167.61552 
L 467.269895 171.916343 
L 466.796525 173.806325 
L 464.801609 179.386978 
L 458.580176 191.054265 
L 456.156973 196.188467 
L 453.170234 201.516131 
L 451.783937 203.584693 
L 449.101507 207.974807 
L 448.470348 209.53739 
L 446.948802 212.394685 
L 445.517421 214.106086 
L 442.361622 218.272974 
L 441.358528 220.2076 
L 440.084938 222.127345 
L 437.526486 227.648472 
L 433.130909 234.166676 
L 430.809142 238.571672 
L 428.938204 241.324794 
L 427.912569 243.720755 
L 426.954559 245.655381 
L 423.96782 252.962317 
L 421.623512 256.876216 
L 421.386827 257.694712 
L 420.079424 260.983577 
L 418.896 263.409301 
L 416.52915 264.748658 
L 415.819095 265.209992 
L 414.861085 266.593994 
L 414.128489 268.052405 
L 413.891804 269.406644 
L 413.316997 271.460324 
L 412.449152 273.261015 
L 410.724734 276.907042 
L 410.228822 278.365453 
L 409.39479 280.434015 
L 409.022856 281.698964 
L 408.357884 282.532341 
L 407.929597 283.960989 
L 407.129376 285.389636 
L 405.799432 286.416476 
L 403.410042 289.898804 
L 400.85159 293.098379 
L 398.653801 296.878342 
L 396.760322 300.970821 
L 395.520543 303.247728 
L 392.815572 308.724209 
L 391.237673 312.519054 
L 390.741761 313.278023 
L 389.828834 314.245336 
L 388.994801 315.659102 
L 387.766293 318.337816 
L 387.495796 319.305129 
L 386.684305 320.748658 
L 384.182207 322.846984 
L 383.404528 324.082168 
L 381.635026 327.177571 
L 381.477236 327.817486 
L 380.800994 329.112198 
L 379.076575 331.939729 
L 377.89315 333.368376 
L 376.833703 335.570874 
L 376.236355 337.356683 
L 374.928953 338.413287 
L 373.869506 340.258623 
L 373.260887 342.133723 
L 372.82133 344.723146 
L 372.212711 346.404783 
L 371.72807 347.133989 
L 370.860226 347.65485 
L 370.691165 347.669732 
L 369.800779 347.416742 
L 369.237243 348.369174 
L 368.155255 350.229391 
L 367.276139 351.15206 
L 366.836582 352.015201 
L 366.791499 353.45873 
L 366.622438 354.73856 
L 366.690062 355.304066 
L 366.509731 355.899336 
L 365.653157 357.074993 
L 365.303765 357.967898 
L 364.728958 358.935211 
L 363.940009 360.482913 
L 363.387744 361.956205 
L 362.046529 366.405846 
L 360.964541 369.516131 
L 357.267747 374.278289 
L 355.317914 377.269519 
L 354.945981 378.832102 
L 354.517693 379.844061 
L 353.559683 381.183417 
L 353.153937 382.06144 
L 351.091397 384.888972 
L 350.381342 387.582567 
L 350.03195 388.371299 
L 348.679465 390.633324 
L 344.824881 398.178368 
L 342.852507 402.389902 
L 341.826872 403.803667 
L 341.432397 404.384055 
L 340.37295 406.482381 
L 337.870852 410.411161 
L 335.740687 414.369705 
L 334.861572 415.203083 
L 332.708866 417.985969 
L 332.100248 419.221153 
L 330.905552 421.304597 
L 329.643232 423.789849 
L 329.226216 424.905979 
L 328.775388 427.227531 
L 327.975167 427.971618 
L 326.025334 430.486633 
L 324.357268 432.183152 
L 323.782462 433.373691 
L 322.182021 439.802604 
L 320.187105 444.371299 
L 319.048763 446.097582 
L 315.971859 450.547223 
L 306.989101 465.622429 
L 306.222693 467.378475 
L 304.171424 470.92033 
L 302.627336 473.985969 
L 300.091426 478.316556 
L 297.048334 484.209726 
L 293.9827 490.593994 
L 292.968336 492.022642 
L 291.999055 492.766729 
L 291.458061 493.659633 
L 286.848339 502.990486 
L 285.180274 505.877545 
L 284.041932 507.499655 
L 283.072651 509.300345 
L 281.832873 511.889769 
L 280.581824 514.985171 
L 279.015195 517.515068 
L 278.846134 518.378209 
L 278.496742 518.55679 
L 278.068455 518.601435 
L 273.684148 520.833697 
L 270.843929 525.417273 
L 269.378736 526.503641 
L 267.417632 529.033537 
L 266.144042 534.733245 
L 264.712661 536.4 
L 264.047689 536.4 
L 260.880619 535.834494 
L 254.129463 533.096253 
L 251.018746 531.399734 
L 248.843499 530.194313 
L 244.245049 526.726867 
L 243.63643 526.66734 
L 243.489911 526.860803 
L 243.489911 526.831039 
L 242.599525 526.280415 
L 242.329027 526.384587 
L 241.878199 526.042307 
L 240.198863 525.4768 
L 237.110688 523.274302 
L 236.18649 523.348711 
L 235.115772 522.798087 
L 232.760193 521.235504 
L 230.675111 519.687802 
L 228.409698 518.21451 
L 227.902516 517.738294 
L 227.192461 516.384055 
L 227.102296 516.205474 
L 226.651467 515.506032 
L 221.613459 512.351103 
L 219.009925 512.038586 
L 214.81722 510.565294 
L 214.152248 509.925379 
L 213.926834 510.818283 
L 212.4391 511.607016 
L 211.537443 511.830242 
L 210.714681 511.770715 
L 209.779212 511.577252 
L 205.16949 510.044433 
L 203.26474 509.553335 
L 199.737007 507.082966 
L 196.355794 505.401329 
L 194.845518 504.761414 
L 194.405961 503.942918 
L 192.952039 502.499389 
L 190.461211 500.445708 
L 189.367952 499.77603 
L 187.237788 498.734308 
L 183.642431 496.725272 
L 182.752045 496.576455 
L 179.224312 495.713314 
L 175.493706 489.209992 
L 171.718018 485.147276 
L 170.095035 483.941855 
L 168.246638 483.406112 
L 164.933049 483.078714 
L 160.875593 480.980388 
L 159.4104 479.343396 
L 157.178799 477.557587 
L 155.251508 476.739091 
L 147.948086 471.515599 
L 148.038252 472.482913 
L 147.012617 473.494871 
L 143.823006 471.94717 
L 142.15494 470.563168 
L 142.583227 469.98278 
L 143.360907 461.916875 
L 137.500136 458.300611 
L 133.465222 453.553335 
L 132.81152 452.422323 
L 131.977488 451.782408 
L 129.621909 451.008557 
L 128.573733 451.187138 
L 126.454839 450.651395 
L 123.231415 450.041244 
L 122.239593 450.681159 
L 120.402466 452.839011 
L 118.678048 452.094924 
L 117.720037 451.425246 
L 114.609321 450.666277 
L 112.918714 449.490619 
L 112.952526 449.743609 
L 106.415513 448.106617 
L 101.726897 447.064895 
L 95.550547 447.050013 
L 86.455082 447.570874 
L 84.854641 445.160032 
L 83.705029 443.017061 
L 83.738841 443.746266 
L 83.186576 442.734308 
L 82.93862 442.674781 
L 78.464148 437.347117 
L 76.029674 435.055328 
L 75.116746 434.683285 
L 72.783709 434.058251 
L 69.560285 431.543237 
L 68.219071 429.60861 
L 64.984376 427.659102 
L 62.290676 427.227531 
L 61.152334 426.483444 
L 59.844932 425.471486 
L 57.072336 424.013075 
L 54.604051 423.641031 
L 53.555874 423.254106 
L 50.400075 421.289716 
L 47.345712 419.146745 
L 45.598752 418.432421 
L 44.449139 417.747861 
L 43.524941 416.825193 
L 40.042291 414.473877 
L 38.847595 414.444114 
L 36.920304 415.94717 
L 36.052459 416.215041 
L 35.004283 416.661493 
L 33.685609 417.747861 
L 32.727599 419.057454 
L 31.701964 419.355089 
L 31.363843 419.236035 
L 31.138428 418.744938 
L 29.211137 416.54244 
L 29.357656 416.423386 
L 29.290032 416.363859 
L 29.526717 416.661493 
L 30.495998 417.197236 
L 32.941742 418.997927 
L 35.11699 420.768855 
L 38.971573 422.599309 
L 42.634555 424.727398 
L 50.061954 428.269253 
L 55.325376 432.019453 
L 59.236313 433.835025 
L 62.223052 435.963115 
L 63.62062 437.525698 
L 62.403383 437.674515 
L 63.924929 437.495934 
L 64.747691 437.704279 
L 67.272331 438.9097 
L 74.339067 441.886048 
L 75.387243 441.737231 
L 76.322712 441.201488 
L 78.543043 442.481318 
L 79.749009 442.064629 
L 81.811549 441.856285 
L 83.366907 443.031943 
L 86.049337 444.103428 
L 87.615966 444.430826 
L 91.504361 446.737497 
L 92.406018 447.660165 
L 92.293311 447.332766 
L 93.690879 448.181026 
L 94.051542 448.38937 
L 98.041374 450.100771 
L 103.090653 453.225937 
L 104.612199 454.996864 
L 106.246452 457.229126 
L 107.441148 459.089344 
L 110.123577 461.455541 
L 113.673852 464.253309 
L 121.439372 466.693914 
L 125.158707 467.006431 
L 125.124895 465.681956 
L 126.127988 467.482647 
L 126.47738 467.869572 
L 128.461025 467.988626 
L 131.515388 468.822004 
L 134.705 470.384587 
L 136.034944 470.622695 
L 138.277816 471.322137 
L 141.715383 472.72102 
L 143.428531 472.97401 
L 145.119138 472.869838 
L 147.936816 473.688334 
L 151.363112 476.679564 
L 153.031177 477.230189 
L 154.981011 477.230189 
L 155.837585 477.483178 
L 157.483109 478.301674 
L 158.497473 478.971353 
L 159.816146 480.876216 
L 160.807969 483.093596 
L 160.853051 484.67106 
L 160.661449 485.370502 
L 160.019019 487.290247 
L 158.260788 494.31443 
L 156.603993 495.609142 
L 155.567088 495.698432 
L 153.267862 494.790646 
L 151.430736 493.778687 
L 149.931732 493.867978 
L 148.353832 493.525698 
L 142.921349 491.41249 
L 140.847538 491.099973 
L 140.351626 491.472017 
L 139.438699 491.873824 
L 139.044224 492.245868 
L 138.198921 492.617911 
L 136.012402 491.814297 
L 132.80025 489.968961 
L 130.805334 490.162424 
L 130.59119 489.820144 
L 130.963124 492.736965 
L 130.90677 492.677438 
L 130.174174 491.442254 
L 129.464119 490.980919 
L 128.585003 491.427372 
L 128.021468 491.486899 
L 126.285778 491.41249 
L 124.989646 491.620834 
L 123.727326 491.486899 
L 121.924013 492.841137 
L 120.650422 493.927505 
L 119.98545 493.987032 
L 116.33374 493.079245 
L 112.276283 491.635716 
L 103.079382 470.339942 
L 102.143913 470.503641 
L 101.862145 470.295296 
L 102.842697 470.086952 
L 101.817063 470.890566 
L 101.580378 471.441191 
L 100.994301 472.125751 
L 100.284246 473.509753 
L 96.328226 475.548552 
L 95.967563 476.486102 
L 95.257508 477.081371 
L 94.874304 477.765931 
L 91.605798 477.825458 
L 90.85066 478.361201 
L 88.382374 479.700558 
L 88.326021 479.774967 
L 87.807568 479.521977 
L 87.627236 479.283869 
L 87.345469 479.209461 
L 85.677403 479.209461 
L 85.136409 478.629073 
L 82.825913 479.313633 
L 82.93862 479.581504 
L 83.299283 479.655913 
L 83.242929 479.953548 
L 83.310554 480.236301 
L 84.133316 482.781079 
L 87.289115 486.337816 
L 90.016627 490.355886 
L 90.298395 490.311241 
L 90.69287 489.254637 
L 91.650881 488.570077 
L 92.394747 488.346851 
L 92.687786 488.451023 
L 93.048449 488.882594 
L 93.747233 489.53739 
L 96.260602 490.757693 
L 98.7627 491.620834 
L 98.92049 491.858942 
L 99.348777 491.933351 
L 100.261704 490.81722 
L 101.321151 491.233909 
L 104.488221 492.111932 
L 105.198276 492.469094 
L 106.37043 493.481052 
L 106.359159 493.406644 
L 107.47496 493.778687 
L 108.568219 493.763805 
L 109.06413 493.481052 
L 109.729102 492.826256 
L 111.013964 491.948233 
L 111.971974 491.725007 
L 113.606227 490.906511 
L 114.293741 489.864789 
L 116.81838 488.227797 
L 119.35429 486.933085 
L 121.112521 485.623492 
L 121.800035 484.879405 
L 122.543902 483.465639 
L 122.870752 482.602498 
L 123.78368 479.641031 
L 124.786773 478.018921 
L 126.30832 476.114058 
L 127.942573 474.372894 
L 128.52865 473.375817 
L 128.945666 471.887643 
L 130.636273 470.280415 
L 132.428316 468.137444 
L 133.645553 465.696838 
L 133.577929 464.208663 
L 134.524668 462.928833 
L 136.170192 459.907839 
L 138.841351 453.285464 
L 143.191846 445.725538 
L 143.665216 443.642094 
L 144.690851 440.635982 
L 146.212397 437.71916 
L 147.294385 435.278554 
L 148.782119 431.260484 
L 149.289301 430.501515 
L 149.943002 430.20388 
L 150.968637 429.489556 
L 151.239134 426.915015 
L 152.377476 424.221419 
L 153.200238 420.962317 
L 153.436923 417.599043 
L 153.538359 417.732979 
L 153.572172 417.65857 
L 153.752503 417.792506 
L 153.256592 418.283604 
L 152.862117 418.387776 
L 151.836482 419.265799 
L 151.295488 419.980122 
L 150.765764 420.456338 
L 149.42455 419.474143 
L 149.075157 419.652724 
L 148.072064 419.846187 
L 146.764662 419.727133 
L 145.874275 419.295562 
L 140.227649 415.94717 
L 139.213285 415.872761 
L 135.110745 416.334095 
L 134.321796 416.259686 
L 132.65373 415.94717 
L 131.154726 415.991815 
L 130.625002 415.753707 
L 129.993842 414.339942 
L 129.509202 412.851767 
L 128.742793 411.259421 
L 128.675169 411.408238 
L 128.832959 410.917141 
L 128.618815 410.768323 
L 128.415943 410.277226 
L 128.449755 410.351634 
L 128.314506 409.80101 
L 128.269423 409.875419 
L 128.156716 409.845655 
L 128.269423 409.964709 
L 128.269423 409.964709 
L 128.111633 410.14329 
L 127.796053 410.321871 
L 127.672076 411.110603 
L 127.672076 411.110603 
L 127.311413 411.586819 
L 126.353402 412.077917 
L 124.899481 412.063035 
L 124.561359 411.557056 
L 124.234509 410.753441 
L 122.622797 408.789051 
L 121.473184 408.417008 
L 118.249761 405.321605 
L 115.804016 405.678767 
L 113.865454 404.696572 
L 108.985235 402.062503 
L 108.286451 401.467234 
L 107.452419 400.946373 
L 105.908331 400.306458 
L 103.778166 400.15764 
L 101.490212 399.175445 
L 100.171539 398.342067 
L 99.653086 397.523572 
L 99.686898 396.333032 
L 101.208444 393.654318 
L 100.949218 391.243476 
L 101.242256 387.835557 
L 101.873416 386.540845 
L 101.118278 385.171725 
L 102.910322 387.478395 
L 103.913415 390.544034 
L 105.2659 391.749455 
L 105.716729 391.898273 
L 107.644021 393.133457 
L 107.463689 393.892426 
L 108.004683 401.154717 
L 111.171753 403.357215 
L 112.37772 403.803667 
L 118.091971 406.154983 
L 119.072522 406.21451 
L 120.244677 406.452618 
L 121.450643 407.077651 
L 124.505006 408.387244 
L 125.609535 409.607547 
L 127.085999 410.783205 
L 128.021468 410.872495 
L 129.847323 410.708796 
L 133.070747 412.330906 
L 135.97859 415.247728 
L 137.928423 416.914483 
L 139.889527 418.149668 
L 142.605769 418.298485 
L 143.687757 419.53367 
L 144.983889 421.200425 
L 148.95118 424.236301 
L 152.783222 425.828647 
L 153.70742 426.468562 
L 155.645983 427.510284 
L 155.848855 427.748392 
L 156.220789 427.9865 
L 156.434932 427.822801 
L 157.246424 426.260218 
L 157.685981 425.828647 
L 158.61018 424.697635 
L 160.492389 420.947436 
L 160.729074 418.893755 
L 159.928853 418.283604 
L 158.339683 416.929365 
L 154.586536 412.851767 
L 152.929741 409.339676 
L 151.318029 407.777093 
L 144.859911 402.672655 
L 140.295273 398.654584 
L 138.807539 395.841935 
L 137.826987 394.636513 
L 135.944778 393.907308 
L 132.676272 393.267393 
L 131.977488 393.356683 
L 130.59119 392.687005 
L 128.934395 392.136381 
L 127.672076 392.195908 
L 126.060364 393.103694 
L 125.339038 392.73165 
L 124.369757 392.374488 
L 121.630974 390.469625 
L 119.793848 388.371299 
L 113.876724 383.68355 
L 113.087774 383.326389 
L 110.225014 381.242944 
L 105.58148 379.174382 
L 101.557836 377.433218 
L 100.870323 377.046293 
L 99.179716 375.840872 
L 98.379495 374.63545 
L 95.584359 371.242413 
L 94.130437 369.977465 
L 87.36801 365.021844 
L 86.240939 364.143821 
L 84.088233 362.700292 
L 83.209117 362.462184 
L 80.616854 362.328249 
L 79.625031 361.971087 
L 77.021496 359.917406 
L 72.693543 354.545097 
L 71.307246 353.369439 
L 69.977302 352.95275 
L 67.802054 353.161095 
L 63.474101 351.390167 
L 56.396094 348.309647 
L 55.483166 347.729259 
L 49.182838 344.246931 
L 43.82925 340.82413 
L 41.845605 339.187138 
L 41.13555 338.800213 
L 37.292237 335.838746 
L 36.785055 334.841669 
L 37.292237 333.279086 
L 41.462401 324.766729 
L 42.375328 322.846984 
L 49.577313 309.512942 
L 50.231014 307.87595 
L 50.772009 307.072336 
L 51.639853 306.566357 
L 52.597864 306.283604 
L 53.195212 306.238958 
L 53.80383 306.447303 
L 55.415542 307.920595 
L 58.165596 309.765931 
L 62.640068 312.593463 
L 66.201613 314.245336 
L 70.856417 317.638374 
L 72.242715 318.129471 
L 74.958956 319.48371 
L 77.201828 321.016529 
L 78.700833 323.174382 
L 81.078953 325.183417 
L 81.078953 325.183417 
L 81.99188 325.109009 
L 82.848455 325.302471 
L 84.020609 325.71916 
L 86.973535 327.371034 
L 97.308778 331.656976 
L 101.343693 333.859474 
L 102.166455 334.157109 
L 106.04358 336.567951 
L 108.297722 337.728727 
L 109.176837 337.951953 
L 113.00888 340.273505 
L 115.961806 342.461121 
L 116.931087 342.699229 
L 118.790755 343.636779 
L 120.098157 344.49992 
L 120.785671 345.154717 
L 122.476277 346.479192 
L 124.155614 347.238161 
L 125.147436 348.711454 
L 126.105447 350.690725 
L 127.705888 351.896147 
L 131.819698 353.45873 
L 133.983674 354.39628 
L 135.629198 355.348711 
L 139.382345 358.950093 
L 141.467427 360.095987 
L 142.45925 360.408504 
L 147.981898 362.59612 
L 148.782119 363.236035 
L 150.517809 364.12894 
L 152.028084 365.200425 
L 153.39184 366.748126 
L 156.24333 369.158969 
L 158.170622 369.724475 
L 159.996477 370.051874 
L 163.197359 370.989423 
L 164.459679 371.837683 
L 165.789623 372.894286 
L 168.077578 376.525432 
L 169.452605 378.355886 
L 171.075587 381.71916 
L 172.484426 381.71916 
L 174.299011 382.284666 
L 174.513154 381.912623 
L 175.23448 378.891629 
L 176.248844 377.403455 
L 178.998898 375.275365 
L 188.252152 359.337018 
L 188.86077 358.786394 
L 190.032924 357.551209 
L 194.101651 342.818283 
L 197.257451 336.999522 
L 199.30872 336.255434 
L 200.604852 334.365453 
L 201.83336 331.954611 
L 203.997336 328.829445 
L 204.977888 326.731119 
L 204.775016 324.662556 
L 204.504518 323.576189 
L 203.828276 322.623758 
L 201.900984 320.927239 
L 197.787174 318.769386 
L 196.524854 318.188998 
L 192.985851 317.251448 
L 186.110717 314.736434 
L 179.551162 313.278023 
L 175.23448 312.727398 
L 171.109399 313.709593 
L 166.53349 310.86718 
L 160.379681 307.206272 
L 154.417475 304.03646 
L 152.478912 303.411427 
L 150.450184 302.503641 
L 148.387644 298.73856 
L 146.460352 296.357481 
L 146.11096 295.405049 
L 144.848641 289.749987 
L 144.600685 286.386713 
L 145.017701 284.526495 
L 146.302562 282.889503 
L 147.745213 280.463779 
L 148.398915 278.573798 
L 151.498361 272.799681 
L 152.974824 269.585225 
L 154.124436 267.427372 
L 155.29659 264.986766 
L 154.789408 263.91528 
L 152.43383 263.617645 
L 149.695047 261.980654 
L 149.187865 261.370502 
L 146.403999 260.269253 
L 145.524883 259.807919 
L 143.73284 259.182886 
L 142.076045 258.438799 
L 140.114942 256.861334 
L 135.877154 254.584427 
L 134.118923 253.200425 
L 133.375056 252.441456 
L 131.391411 251.221153 
L 129.069644 249.450226 
L 127.142352 248.72102 
L 125.451745 248.616848 
L 124.403569 249.405581 
L 122.656609 252.858145 
L 122.239593 254.212384 
L 121.394289 256.206537 
L 120.999814 257.516131 
L 120.887107 259.078714 
L 121.281582 259.495403 
L 121.811305 259.659102 
L 123.129979 259.912091 
L 126.973292 261.60861 
L 128.506108 262.561042 
L 130.084008 263.364656 
L 130.625002 263.811108 
L 131.988758 264.718894 
L 134.569751 265.939197 
L 138.390523 267.055328 
L 138.751185 267.189264 
L 139.60776 267.75477 
L 140.836267 268.35004 
L 144.352729 270.716237 
L 145.344552 272.755036 
L 146.527977 274.451555 
L 148.48908 277.026096 
L 149.571069 276.520117 
L 150.38256 275.210524 
L 152.478912 270.760882 
L 153.572172 268.811374 
L 155.61217 266.192187 
L 156.412391 264.123625 
L 156.863219 262.620569 
L 158.801782 257.873293 
L 160.526201 256.251183 
L 164.369513 250.209195 
L 164.718906 249.137709 
L 165.519126 247.128674 
L 167.333711 244.122562 
L 168.336804 242.098645 
L 170.782549 238.065692 
L 170.782549 238.065692 
L 171.59404 237.931757 
L 171.875808 238.035929 
L 172.86763 237.440659 
L 173.938348 236.384055 
L 175.279563 233.675578 
L 176.891274 230.297422 
L 180.092157 223.169067 
L 184.679336 214.56742 
L 186.967291 210.564231 
L 192.275796 200.682753 
L 196.592479 192.825193 
L 198.36198 189.893489 
L 199.353803 187.899336 
L 200.368167 185.607547 
L 201.788277 183.791974 
L 203.197116 181.678767 
L 206.465622 175.443317 
L 208.223853 172.719957 
L 208.742306 171.752644 
L 211.17678 167.7941 
L 212.59689 164.877279 
L 214.625618 162.15392 
L 218.220975 155.873824 
L 224.746717 142.748126 
L 226.628926 139.206272 
L 228.556218 136.780547 
L 230.077764 134.905448 
L 231.216106 132.911294 
L 232.8729 129.637311 
L 235.25102 125.916875 
L 238.158864 119.681424 
L 238.846378 117.910497 
L 248.888582 99.635716 
L 249.316869 98.683285 
L 253.002392 92.060909 
L 254.163275 89.590539 
L 255.335429 86.152857 
L 255.324158 85.24507 
L 255.132556 84.530747 
L 254.118192 83.474143 
L 250.60173 82.402657 
L 248.043278 81.078182 
L 246.64571 80.200159 
L 244.245049 78.32506 
L 239.342289 76.033271 
L 235.025606 73.830773 
L 229.435333 70.259155 
L 222.88705 66.404783 
L 220.531471 64.946373 
L 213.881751 60.288387 
L 213.430922 59.797289 
L 211.977 58.398406 
L 208.020981 55.913154 
L 202.7801 52.981451 
L 199.376345 50.793835 
L 195.837341 48.859208 
L 195.172369 48.606218 
L 193.617011 47.653787 
L 193.470492 47.415679 
L 193.549387 46.954345 
L 194.676458 45.600106 
L 197.223639 42.966038 
L 202.892807 32.831571 
L 203.569049 32.459527 
L 204.977888 32.4 
L 205.78938 32.504172 
L 207.243301 33.129205 
L 210.421642 34.870369 
L 210.883741 35.242413 
L 210.8612 35.153123 
L 210.838659 35.212649 
L 210.940095 35.019187 
L 210.906283 35.019187 
" clip-path="url(#pd90155ea1d)" style="fill: none; stroke: #000000; stroke-width: 3"/>
   </g>
  </g>
 </g>
 <defs>
  <clipPath id="pd90155ea1d">
   <rect x="7.2" y="7.2" width="484.245008" height="554.4"/>
  </clipPath>
 </defs>
</svg>
