<?xml version="1.0" encoding="utf-8" standalone="no"?>
<!DOCTYPE svg PUBLIC "-//W3C//DTD SVG 1.1//EN"
  "http://www.w3.org/Graphics/SVG/1.1/DTD/svg11.dtd">
<svg xmlns:xlink="http://www.w3.org/1999/xlink" width="437.33467pt" height="568.8pt" viewBox="0 0 437.33467 568.8" xmlns="http://www.w3.org/2000/svg" version="1.1">
 <metadata>
  <rdf:RDF xmlns:dc="http://purl.org/dc/elements/1.1/" xmlns:cc="http://creativecommons.org/ns#" xmlns:rdf="http://www.w3.org/1999/02/22-rdf-syntax-ns#">
   <cc:Work>
    <dc:type rdf:resource="http://purl.org/dc/dcmitype/StillImage"/>
    <dc:date>2022-04-16T05:02:57.905661</dc:date>
    <dc:format>image/svg+xml</dc:format>
    <dc:creator>
     <cc:Agent>
      <dc:title>Matplotlib v3.5.1, https://matplotlib.org/</dc:title>
     </cc:Agent>
    </dc:creator>
   </cc:Work>
  </rdf:RDF>
 </metadata>
 <defs>
  <style type="text/css">*{stroke-linejoin: round; stroke-linecap: butt}</style>
 </defs>
 <g id="figure_1">
  <g id="patch_1">
   <path d="M 0 568.8 
L 437.33467 568.8 
L 437.33467 0 
L 0 0 
z
" style="fill: #ffffff"/>
  </g>
  <g id="axes_1">
   <g id="LineCollection_1">
    <path d="M 26.424303 423.701584 
L 26.634877 423.701584 
L 28.698496 424.063153 
L 33.98389 428.735743 
L 42.78586 432.991137 
L 45.965519 433.908967 
L 47.671164 434.075846 
L 49.566325 434.798985 
L 53.082902 437.469036 
L 57.273314 441.223796 
L 58.578869 442.141626 
L 60.137113 442.725699 
L 62.706109 444.171977 
L 63.969549 444.283229 
L 65.338277 444.616986 
L 72.013455 448.121428 
L 76.519727 451.820562 
L 78.709691 454.18467 
L 80.878598 456.576591 
L 85.511213 459.802903 
L 87.722235 460.220098 
L 91.554671 460.359163 
L 94.10261 460.776359 
L 96.650549 461.388246 
L 97.661302 462.027945 
L 98.587825 463.029215 
L 101.999115 467.4793 
L 104.294365 470.038099 
L 105.473577 470.789051 
L 106.31587 470.510921 
L 106.947591 471.011556 
L 108.821694 474.432559 
L 109.327071 475.739772 
L 109.748218 478.298571 
L 109.748218 482.164583 
L 110.358881 486.16966 
L 111.369633 489.145654 
L 112.885762 491.509762 
L 115.307357 492.789162 
L 116.402339 494.152 
L 118.21327 497.100182 
L 119.266138 497.962386 
L 121.140241 499.18616 
L 123.393377 500.270868 
L 125.709685 500.632438 
L 129.247319 500.771503 
L 133.269272 501.744959 
L 135.943555 502.57935 
L 139.038985 502.690602 
L 139.986565 502.384659 
L 142.134414 501.967463 
L 144.956099 501.995276 
L 147.756725 502.774041 
L 151.883965 504.887832 
L 153.884413 506.445362 
L 156.432352 508.976348 
L 159.590953 513.064864 
L 161.612458 516.597119 
L 162.854842 520.351879 
L 163.149645 523.327874 
L 163.886652 524.885404 
L 164.4552 525.135721 
L 166.581992 525.135721 
L 170.56183 527.138259 
L 171.741041 527.889211 
L 173.067654 528.528911 
L 176.98432 530.253319 
L 178.563621 530.475824 
L 188.523745 532.506175 
L 191.02957 534.147144 
L 194.04077 536.4 
L 197.241486 536.344374 
L 199.305106 535.704674 
L 206.822578 532.422736 
L 218.088258 528.584537 
L 223.773741 528.918294 
L 226.426967 529.279863 
L 231.901876 530.420198 
L 240.240585 532.283671 
L 245.715495 532.422736 
L 248.474007 531.783036 
L 253.44354 529.724872 
L 255.465045 528.501098 
L 257.402321 527.138259 
L 260.687267 523.633817 
L 262.055994 521.575653 
L 263.487894 519.712179 
L 266.246406 515.59585 
L 268.541657 511.117952 
L 274.100796 499.82586 
L 276.732964 493.985122 
L 287.261636 465.143005 
L 288.651421 462.361702 
L 290.146493 459.858529 
L 291.767908 456.687843 
L 292.525973 454.852183 
L 293.747299 453.016522 
L 303.623194 435.85588 
L 309.961454 424.202218 
L 323.585557 398.113592 
L 323.564499 399.420805 
L 322.322116 403.982142 
L 321.50088 405.956868 
L 315.267905 419.529629 
L 312.277762 425.704122 
L 311.793443 427.651035 
L 308.340039 433.547398 
L 306.929197 434.826798 
L 304.633946 438.60937 
L 303.960111 440.083461 
L 301.917549 443.560091 
L 300.822567 445.145433 
L 297.348105 453.099961 
L 296.126779 455.241565 
L 289.514772 466.199901 
L 283.34497 477.547619 
L 280.797032 482.637404 
L 278.375437 486.920611 
L 275.722211 492.344153 
L 274.416656 494.597009 
L 272.374094 499.325225 
L 271.700258 501.856211 
L 270.142015 504.887832 
L 269.889327 506.000353 
L 269.46818 506.945996 
L 267.762535 508.030705 
L 267.004471 507.140688 
L 267.783592 503.024358 
L 270.268359 499.82586 
L 271.489685 497.684256 
L 281.702497 477.74231 
L 286.861547 467.868683 
L 289.346314 462.639832 
L 291.178303 459.496959 
L 294.589593 452.849644 
L 298.843176 444.338855 
L 304.149627 434.687732 
L 308.48744 426.566326 
L 314.383497 412.520744 
L 315.752224 410.351327 
L 322.701148 397.195762 
L 328.470861 383.372684 
L 328.976237 380.897324 
L 329.5869 373.44343 
L 329.755359 365.794846 
L 330.323907 352.806159 
L 331.355717 347.799812 
L 333.019247 340.457171 
L 332.766559 335.423012 
L 331.65052 330.249788 
L 327.628567 321.210551 
L 326.217725 319.152387 
L 323.669786 314.646675 
L 322.932779 312.060063 
L 322.595861 309.417825 
L 323.311811 304.133348 
L 327.312707 293.731273 
L 335.714587 278.795674 
L 338.852132 274.17871 
L 347.443529 262.942244 
L 349.191288 260.856266 
L 360.014764 249.508548 
L 369.974888 237.966139 
L 371.322558 235.907974 
L 373.259834 231.402263 
L 373.933669 229.038155 
L 374.417988 226.70186 
L 374.544332 221.806766 
L 374.228472 219.275779 
L 373.112432 205.424888 
L 374.775963 190.823045 
L 375.470855 186.094829 
L 376.923812 179.50314 
L 379.008489 173.133955 
L 383.893793 165.819127 
L 385.831069 163.816588 
L 389.558219 160.701529 
L 391.474437 159.255251 
L 397.496838 155.556117 
L 401.960995 153.525766 
L 408.02551 149.492876 
L 409.478467 147.434711 
L 410.594507 144.76466 
L 410.910367 139.730501 
L 408.193969 135.224789 
L 403.961443 132.165355 
L 401.28716 131.442216 
L 398.339132 131.247525 
L 392.358846 132.471298 
L 387.220853 134.807593 
L 376.502665 143.290569 
L 373.912611 144.12496 
L 371.006698 144.013708 
L 366.289852 142.956813 
L 363.61557 141.482722 
L 361.804638 139.674874 
L 360.478025 137.449832 
L 359.80419 134.863219 
L 359.719961 132.109729 
L 360.20428 129.356239 
L 361.004459 126.714 
L 365.321215 119.92762 
L 368.69039 115.755665 
L 379.977127 100.514122 
L 385.620495 89.50016 
L 389.38976 78.124629 
L 390.084652 70.309166 
L 389.70562 67.805993 
L 388.736982 65.330633 
L 385.704725 61.297743 
L 376.923812 53.537906 
L 371.70159 49.44939 
L 366.22668 45.666818 
L 359.193527 42.078936 
L 356.940391 41.216732 
L 355.108402 40.716097 
L 346.159031 38.046046 
L 333.882598 35.904442 
L 325.901865 34.847547 
L 322.932779 33.818465 
L 318.447565 32.4 
L 315.62588 32.566878 
L 313.098999 33.401269 
L 310.382601 35.348182 
L 309.308677 36.349451 
L 307.308229 38.463242 
L 304.191742 43.413962 
L 303.054645 46.084013 
L 302.254466 50.36722 
L 302.170237 51.841311 
L 302.296581 54.817306 
L 302.949359 57.459544 
L 304.570774 61.826191 
L 307.708319 64.94125 
L 310.108856 66.331902 
L 312.404106 67.194106 
L 314.446669 67.694741 
L 315.541651 67.527863 
L 316.65769 67.666928 
L 323.859302 70.225727 
L 328.281345 73.3686 
L 330.913513 76.706164 
L 332.829731 80.850306 
L 334.177401 85.495083 
L 334.851236 88.888273 
L 334.219516 92.782098 
L 333.903656 96.036223 
L 334.198459 99.624105 
L 337.12543 108.246145 
L 338.115125 112.946548 
L 338.367813 117.869455 
L 338.115125 119.788555 
L 336.620053 124.377705 
L 333.040305 131.414403 
L 331.482061 133.611633 
L 322.869607 141.705226 
L 315.731167 146.294377 
L 313.204286 147.601589 
L 307.834663 149.659754 
L 302.443982 151.328536 
L 294.947567 154.916417 
L 292.757604 156.724265 
L 291.030901 158.949307 
L 288.756708 163.176889 
L 286.419343 170.686408 
L 284.77687 175.414624 
L 283.681888 177.500602 
L 280.565401 181.171922 
L 276.838251 184.203543 
L 272.711011 186.261707 
L 259.592285 191.407119 
L 249.358415 195.99627 
L 247.42114 197.080978 
L 241.588255 200.835738 
L 238.408596 204.562684 
L 230.76478 216.800419 
L 228.280013 222.529905 
L 226.784941 226.423729 
L 224.426519 232.041962 
L 222.19444 238.299895 
L 217.267021 250.954826 
L 212.613348 259.632493 
L 206.843636 266.224182 
L 205.053761 267.642647 
L 198.041665 272.426489 
L 188.102599 280.102886 
L 183.554212 286.694575 
L 181.785395 294.788168 
L 181.595879 299.377319 
L 182.185485 305.579626 
L 182.332886 311.225672 
L 181.322133 317.233287 
L 180.185037 320.570851 
L 178.33199 323.964042 
L 176.184141 327.051289 
L 173.236113 330.194161 
L 171.656812 331.362309 
L 169.951167 332.363578 
L 162.960129 335.478638 
L 146.76703 342.237205 
L 142.576619 344.93507 
L 133.2061 352.917411 
L 126.299291 360.593808 
L 120.024202 368.993345 
L 117.707894 373.526869 
L 113.601712 382.78861 
L 112.843647 385.347409 
L 112.338271 387.989647 
L 111.832895 395.916362 
L 112.359328 408.098471 
L 114.675636 416.776138 
L 117.792123 426.733205 
L 120.571693 434.493041 
L 121.077069 443.615717 
L 120.887553 445.75732 
L 119.855743 449.678958 
L 119.224023 451.208675 
L 116.065421 457.494421 
L 109.642931 467.062105 
L 100.419814 477.547619 
L 91.870532 485.16839 
L 90.291231 486.16966 
L 82.963275 491.287258 
L 75.487917 499.019281 
L 73.571699 498.574273 
L 73.045265 497.739882 
L 73.234781 496.877678 
L 75.06677 491.426323 
L 75.909064 488.200011 
L 77.13039 481.302378 
L 77.741053 476.82448 
L 77.340964 470.093726 
L 76.877702 467.340235 
L 75.003598 460.748546 
L 73.908616 458.078495 
L 73.171609 456.826908 
L 69.318115 451.764936 
L 65.86471 448.121428 
L 64.011664 447.147972 
L 61.168923 446.257955 
L 56.852167 443.782595 
L 48.513458 439.972209 
L 44.470448 436.412141 
L 42.659516 434.687732 
L 41.564534 433.936781 
L 40.469552 433.046763 
L 37.500467 430.90516 
L 37.500467 430.90516 
" clip-path="url(#pc618a81ea4)" style="fill: none; stroke: #000000; stroke-width: 3"/>
   </g>
  </g>
 </g>
 <defs>
  <clipPath id="pc618a81ea4">
   <rect x="7.2" y="7.2" width="422.93467" height="554.4"/>
  </clipPath>
 </defs>
</svg>
