<?xml version="1.0" encoding="utf-8" standalone="no"?>
<!DOCTYPE svg PUBLIC "-//W3C//DTD SVG 1.1//EN"
  "http://www.w3.org/Graphics/SVG/1.1/DTD/svg11.dtd">
<svg xmlns:xlink="http://www.w3.org/1999/xlink" width="326.350379pt" height="568.8pt" viewBox="0 0 326.350379 568.8" xmlns="http://www.w3.org/2000/svg" version="1.1">
 <metadata>
  <rdf:RDF xmlns:dc="http://purl.org/dc/elements/1.1/" xmlns:cc="http://creativecommons.org/ns#" xmlns:rdf="http://www.w3.org/1999/02/22-rdf-syntax-ns#">
   <cc:Work>
    <dc:type rdf:resource="http://purl.org/dc/dcmitype/StillImage"/>
    <dc:date>2022-04-24T05:02:42.560551</dc:date>
    <dc:format>image/svg+xml</dc:format>
    <dc:creator>
     <cc:Agent>
      <dc:title>Matplotlib v3.5.1, https://matplotlib.org/</dc:title>
     </cc:Agent>
    </dc:creator>
   </cc:Work>
  </rdf:RDF>
 </metadata>
 <defs>
  <style type="text/css">*{stroke-linejoin: round; stroke-linecap: butt}</style>
 </defs>
 <g id="figure_1">
  <g id="patch_1">
   <path d="M 0 568.8 
L 326.350379 568.8 
L 326.350379 0 
L 0 0 
z
" style="fill: #ffffff"/>
  </g>
  <g id="axes_1">
   <g id="LineCollection_1">
    <path d="M 114.721268 344.870812 
L 113.550516 344.269048 
L 111.057159 343.052579 
L 105.257286 339.713759 
L 100.554686 336.562586 
L 98.159299 335.773175 
L 97.502895 334.563177 
L 96.728925 333.877295 
L 97.017939 332.460238 
L 97.130606 332.03318 
L 97.194287 330.829652 
L 97.111012 329.749065 
L 98.198488 327.963184 
L 98.619762 326.889068 
L 99.1635 326.13201 
L 100.015847 325.426717 
L 101.010251 323.699072 
L 101.127816 322.514956 
L 101.000453 320.813193 
L 100.892686 319.674371 
L 101.31396 318.716725 
L 101.681351 318.386725 
L 102.244683 318.289666 
L 102.852102 317.746138 
L 103.038247 317.429079 
L 103.327261 316.510257 
L 103.728941 315.494375 
L 103.763231 314.588494 
L 104.395143 312.828496 
L 104.742939 312.187909 
L 104.889895 311.676733 
L 105.58059 310.466734 
L 106.026357 309.250265 
L 106.467226 308.499678 
L 108.005368 307.626149 
L 109.479829 306.053798 
L 109.950088 305.342034 
L 109.74435 304.507329 
L 109.768842 303.536742 
L 109.950088 303.051449 
L 110.577102 300.637922 
L 110.880811 300.159099 
L 113.075358 299.570276 
L 113.496632 299.188512 
L 115.676483 295.972634 
L 116.739467 293.992636 
L 117.797552 292.25205 
L 118.022885 291.934991 
L 119.208332 289.767347 
L 119.957808 289.372641 
L 120.82485 288.440878 
L 121.824153 286.227939 
L 123.102672 284.610294 
L 124.435075 281.847356 
L 125.390291 280.119711 
L 125.488262 279.602064 
L 126.556144 276.043245 
L 126.86965 274.969129 
L 127.178258 274.5356 
L 129.171965 272.795014 
L 129.803876 271.889132 
L 131.244048 268.129725 
L 131.675119 267.489137 
L 132.233553 267.230314 
L 134.766099 262.066791 
L 136.029923 259.976793 
L 138.160788 255.680328 
L 138.346933 255.207975 
L 139.086612 252.891507 
L 139.929161 248.070925 
L 140.590465 247.68269 
L 140.663943 247.184455 
L 140.663943 246.932103 
L 140.536581 246.090927 
L 140.644348 240.079758 
L 140.90887 237.886231 
L 141.917969 235.718586 
L 142.21678 235.265646 
L 142.843794 234.075059 
L 143.754922 231.137415 
L 146.042541 227.119185 
L 146.811612 225.17801 
L 152.586992 215.556257 
L 152.689862 215.116257 
L 152.988673 214.533905 
L 153.184614 214.417435 
L 153.483425 213.867435 
L 154.419047 211.855085 
L 155.408552 210.560969 
L 156.62339 208.108618 
L 157.720664 205.999209 
L 158.886516 203.178036 
L 159.684979 201.89039 
L 161.825641 197.98216 
L 163.569522 195.167457 
L 164.764766 193.316871 
L 165.573025 191.718638 
L 168.272122 186.244526 
L 169.565336 183.721 
L 171.26513 180.977474 
L 173.361706 178.208065 
L 173.587039 178.03983 
L 174.091589 177.470419 
L 181.385517 164.522787 
L 183.217571 161.611026 
L 185.735421 156.913384 
L 186.352638 155.586915 
L 187.807504 154.131034 
L 187.851591 153.813976 
L 188.05733 153.179859 
L 189.159502 152.261037 
L 189.66895 151.038097 
L 190.237181 149.349275 
L 190.903383 148.100453 
L 191.099324 147.466336 
L 192.240684 145.531633 
L 193.058741 144.49634 
L 193.920884 142.024578 
L 196.8894 136.498702 
L 197.751543 134.861645 
L 198.515716 133.884587 
L 198.672469 133.489882 
L 200.186118 131.173414 
L 201.136435 129.497534 
L 202.801939 126.152244 
L 203.037069 125.718715 
L 203.350576 125.201068 
L 203.355475 125.006951 
L 203.355475 125.006951 
L 203.747358 124.955186 
L 203.815937 124.819304 
L 204.193125 123.784011 
L 205.775354 121.150485 
L 205.780253 120.704015 
L 206.088861 119.87578 
L 207.014685 118.284017 
L 207.43596 117.261666 
L 211.085373 110.506379 
L 212.559834 107.329324 
L 213.098673 106.656384 
L 214.455569 104.702269 
L 218.090287 97.895218 
L 218.58504 97.047572 
L 220.402398 93.46287 
L 222.156076 91.12699 
L 222.719408 90.382874 
L 224.463289 87.102289 
L 224.72781 86.720525 
L 227.137893 81.751119 
L 230.277858 76.289949 
L 231.174291 75.054068 
L 232.168695 73.002894 
L 235.622166 66.448196 
L 236.670454 64.519963 
L 236.964367 64.054081 
L 238.860102 60.119968 
L 241.642474 55.35762 
L 241.936386 54.975856 
L 242.450733 54.34821 
L 242.945486 53.856446 
L 243.499021 52.853506 
L 243.915397 51.326448 
L 243.881107 51.067625 
L 243.665571 50.595273 
L 242.362559 49.954685 
L 240.716649 48.984098 
L 239.668361 48.505275 
L 238.321263 47.528218 
L 234.314256 45.574102 
L 232.874085 44.441751 
L 230.77261 43.141164 
L 229.670439 42.662341 
L 229.494091 42.079989 
L 229.528381 41.665872 
L 230.287655 39.038816 
L 231.193885 35.305291 
L 231.98255 33.144117 
L 232.193187 32.833529 
L 232.92307 32.4 
L 233.746025 32.587647 
L 234.363241 32.943529 
L 235.200892 33.215293 
L 236.24918 33.370587 
L 236.538194 33.564705 
L 236.694947 34.166469 
L 236.645961 35.344114 
L 236.729237 35.51882 
L 237.091729 35.945878 
L 237.787322 36.450584 
L 238.517204 36.806465 
L 239.570391 37.136465 
L 243.572499 39.427051 
L 243.694962 39.621168 
L 245.904205 40.934696 
L 248.946199 43.192929 
L 254.535434 46.408807 
L 255.92662 47.133512 
L 256.176446 47.314688 
L 258.919629 48.686452 
L 261.13377 49.864097 
L 261.790174 50.323508 
L 267.487178 53.196446 
L 268.765697 54.005269 
L 268.99103 54.095857 
L 270.485085 55.047032 
L 271.925256 55.603502 
L 272.95395 56.082325 
L 278.170896 59.227028 
L 301.243026 72.194071 
L 301.399779 72.472306 
L 301.448765 72.802306 
L 301.076476 73.429952 
L 299.499145 74.394069 
L 296.951904 75.668773 
L 295.296197 76.619948 
L 294.600604 76.801125 
L 294.595705 76.775242 
L 294.791647 77.105242 
L 296.177934 76.645831 
L 297.020483 75.940537 
L 296.93231 75.18995 
L 296.770658 74.96995 
L 292.450144 72.40113 
L 290.103743 71.236425 
L 289.481628 70.550544 
L 289.045658 70.337015 
L 287.835718 69.95525 
L 286.772735 69.897015 
L 285.112129 69.010546 
L 282.868597 67.748782 
L 282.119121 67.664665 
L 281.580281 67.955841 
L 280.918978 69.554074 
L 280.801413 70.544073 
L 281.163905 71.61819 
L 281.741933 72.2976 
L 282.520801 72.388189 
L 283.015554 72.232895 
L 283.294771 72.452894 
L 283.960972 72.757012 
L 284.818217 73.501129 
L 286.042852 74.122304 
L 287.081343 74.937597 
L 289.030962 76.264066 
L 292.170927 77.952888 
L 292.420753 78.438182 
L 292.156232 78.904063 
L 289.231803 80.851708 
L 288.585195 81.09759 
L 287.585893 80.689944 
L 286.180011 80.004062 
L 284.788826 79.162887 
L 283.578886 78.438182 
L 283.39764 78.127594 
L 283.382944 77.836418 
L 283.294771 77.881712 
L 282.780424 77.927006 
L 282.119121 77.732888 
L 281.119818 77.059948 
L 278.89588 75.882302 
L 278.22478 75.901714 
L 277.974955 76.031126 
L 276.750319 78.134064 
L 276.637653 79.059357 
L 276.784609 79.622298 
L 277.504695 80.165827 
L 280.943471 81.822295 
L 281.418629 81.919354 
L 282.094628 82.288177 
L 283.103727 83.200529 
L 283.657263 83.575823 
L 285.812621 84.520527 
L 288.080645 86.157584 
L 291.881914 88.215229 
L 293.743359 89.45758 
L 293.929504 89.904051 
L 293.635591 90.842285 
L 292.303188 93.145811 
L 291.720262 93.365811 
L 291.147132 93.197576 
L 289.569802 92.272283 
L 288.090443 91.450519 
L 284.490015 89.386404 
L 284.083436 88.901111 
L 282.285671 87.652288 
L 281.320658 87.199348 
L 280.076429 86.487584 
L 279.93927 86.623466 
L 278.739127 86.125231 
L 277.636955 85.795232 
L 277.04913 85.614056 
L 274.898671 84.43641 
L 274.144295 83.899352 
L 273.850383 83.750528 
L 273.806296 83.892881 
L 273.331138 84.222881 
L 272.552269 85.322879 
L 272.28285 86.131702 
L 272.366125 87.154054 
L 273.742615 88.208758 
L 275.300351 88.933463 
L 276.201683 89.664639 
L 276.456407 89.742286 
L 276.564175 89.56111 
L 276.701334 89.651698 
L 277.51939 90.486403 
L 280.61037 92.362871 
L 280.953268 92.479342 
L 283.657263 94.23934 
L 284.568391 94.407575 
L 287.703458 96.24522 
L 288.208008 96.536396 
L 289.398353 97.390512 
L 289.550208 97.843453 
L 289.217107 98.749334 
L 288.10024 100.800508 
L 287.380154 101.331096 
L 287.09114 101.318155 
L 283.089032 99.668157 
L 280.566283 97.934041 
L 279.63556 97.468159 
L 279.385735 97.422865 
L 277.04913 96.284043 
L 276.441711 95.992867 
L 275.079917 95.13228 
L 273.629949 94.35581 
L 272.522878 93.57287 
L 271.214968 92.395224 
L 270.632041 92.175224 
L 269.608246 91.974636 
L 268.765697 92.362871 
L 268.011322 93.68287 
L 267.27654 96.13522 
L 265.459182 99.286393 
L 265.42979 99.474039 
L 265.56695 100.017568 
L 266.326223 100.399332 
L 268.92245 101.732272 
L 273.208674 103.886975 
L 273.923861 104.540504 
L 277.142203 106.624031 
L 278.871388 107.432854 
L 282.608975 109.749321 
L 282.834308 109.872263 
L 282.942076 110.331674 
L 282.471816 111.612849 
L 281.849701 112.73873 
L 281.24718 113.314611 
L 280.546689 113.670493 
L 279.645357 113.418141 
L 278.822402 113.094612 
L 275.133801 110.914026 
L 271.136591 108.765793 
L 268.026017 107.368148 
L 266.649527 106.145208 
L 265.312225 105.485209 
L 263.274432 104.171681 
L 262.07429 103.71874 
L 258.562035 101.991095 
L 258.302413 101.583449 
L 258.282819 101.253449 
L 258.836354 100.179333 
L 259.081281 99.842862 
L 259.081281 99.842862 
L 258.723687 99.829921 
L 258.11137 100.774626 
L 257.298212 100.832861 
L 256.955314 100.70345 
L 254.251319 99.351098 
L 253.932914 99.409334 
L 253.13935 99.907568 
L 253.016887 100.095215 
L 251.429759 104.514622 
L 249.465444 110.661673 
L 247.466839 115.993432 
L 247.226811 117.721077 
L 247.540317 117.908724 
L 249.289097 118.639899 
L 250.033675 118.795193 
L 250.792949 119.228722 
L 251.356281 119.222252 
L 252.007787 118.918134 
L 252.218424 118.652841 
L 253.972102 116.181079 
L 254.58442 115.436962 
L 255.42207 115.521079 
L 255.809055 115.844608 
L 257.64111 116.776372 
L 261.775479 119.267546 
L 262.216347 119.481075 
L 264.655821 121.111661 
L 268.888161 123.473423 
L 271.288446 124.748128 
L 272.821689 125.899891 
L 273.69363 126.126361 
L 274.154092 126.094008 
L 276.57887 127.634006 
L 278.773417 128.656358 
L 280.37524 129.510475 
L 282.168106 130.811062 
L 282.604076 131.302826 
L 284.901492 132.46106 
L 285.327665 132.79753 
L 286.782532 133.748705 
L 287.164618 134.039881 
L 287.909197 134.098117 
L 288.408848 134.615763 
L 289.050557 134.829292 
L 293.307389 137.352819 
L 294.04217 137.669877 
L 296.035877 138.899287 
L 300.268216 141.163991 
L 302.345198 142.322225 
L 303.231834 142.516342 
L 303.858847 142.348107 
L 304.569136 141.138108 
L 304.882642 140.245168 
L 304.970816 139.436346 
L 304.863048 139.04164 
L 304.103774 138.168112 
L 299.440363 135.236939 
L 293.385766 132.098707 
L 288.585195 129.698122 
L 287.967979 129.128711 
L 287.811226 128.78577 
L 287.051952 128.481653 
L 286.302475 127.815183 
L 285.905693 127.375183 
L 285.273781 127.362242 
L 284.548797 126.514596 
L 281.908483 125.362833 
L 280.884688 125.097539 
L 280.301762 124.845186 
L 278.518693 123.473423 
L 277.700636 123.072247 
L 277.338144 123.078718 
L 272.287748 119.966368 
L 269.343725 118.562252 
L 265.944137 116.718137 
L 265.655123 116.517549 
L 264.930139 116.168138 
L 264.768487 115.954608 
L 263.259737 115.339903 
L 262.471071 114.977551 
L 261.074987 113.845199 
L 260.109974 113.230494 
L 257.631313 112.311671 
L 257.239429 111.696966 
L 257.587226 110.713438 
L 257.783167 110.318733 
L 259.380092 108.274029 
L 259.713193 108.151088 
L 260.007105 108.183441 
L 260.585133 108.403441 
L 262.133072 109.354616 
L 264.518662 110.596968 
L 266.047007 111.366967 
L 267.193265 112.350495 
L 270.475288 113.85814 
L 273.610354 115.896373 
L 275.300351 116.705196 
L 276.294755 117.30696 
L 280.468312 119.338722 
L 285.058245 122.095189 
L 286.317171 122.858718 
L 290.941394 125.55048 
L 292.210116 126.029302 
L 292.391362 125.938714 
L 292.76855 125.472833 
L 293.317186 124.359893 
L 293.400461 124.023422 
L 294.389967 121.88166 
L 294.257706 121.389896 
L 293.64049 120.807544 
L 289.236701 118.238723 
L 282.163208 114.673433 
L 280.757326 113.877552 
L 280.536892 113.806376 
L 280.238081 113.903434 
L 279.890284 114.97108 
L 279.890284 114.97108 
L 280.34095 114.97108 
L 281.041442 114.63461 
L 281.594977 114.647551 
L 283.005757 115.404609 
L 288.722354 118.413429 
L 289.187716 118.801664 
L 290.353569 119.371075 
L 291.103045 119.655781 
L 295.884022 122.334601 
L 295.986891 122.231072 
L 296.888223 119.726957 
L 297.725873 118.400488 
L 297.936511 118.3099 
L 298.117757 118.471664 
L 298.10796 118.75637 
L 297.784656 119.481075 
L 297.882627 119.280487 
L 297.887525 118.31637 
L 297.485845 117.824606 
L 295.835036 116.789313 
L 290.407453 113.353435 
L 289.706961 113.107553 
L 285.420738 110.681085 
L 284.13732 109.788145 
L 284.220595 109.555204 
L 285.886099 106.695207 
L 286.121229 106.442855 
L 286.782532 106.261678 
L 287.806327 106.643443 
L 291.343074 108.584617 
L 292.048464 108.882264 
L 293.057563 109.412851 
L 293.949098 110.021086 
L 296.22692 111.29579 
L 297.196831 111.703437 
L 299.072972 112.6352 
L 299.327696 113.450494 
L 298.975001 114.608728 
L 297.750366 117.294019 
L 296.858832 118.568723 
L 295.075762 121.952837 
L 294.394865 122.968718 
L 293.518026 124.44401 
L 292.175826 127.181066 
L 290.936495 129.413416 
L 290.093946 130.778709 
L 289.37386 132.35753 
L 288.090443 134.279293 
L 287.247893 135.663997 
L 286.140823 137.825171 
L 282.177903 144.418693 
L 278.939967 150.384568 
L 273.683832 160.258674 
L 272.704124 162.232201 
L 272.351429 162.678671 
L 271.886068 162.743377 
L 271.244359 164.380434 
L 269.73071 166.994549 
L 268.569755 169.408075 
L 261.711797 181.734532 
L 261.060291 183.041589 
L 254.55013 194.798634 
L 252.830742 197.678042 
L 247.814636 206.943914 
L 236.797816 226.84742 
L 234.461212 231.422121 
L 233.971358 232.056238 
L 232.805505 234.670352 
L 231.536783 236.669762 
L 231.316349 237.090349 
L 227.505283 243.975047 
L 226.319836 246.116809 
L 224.62984 248.925041 
L 221.891555 254.004447 
L 220.784485 255.654445 
L 215.645915 265.269728 
L 215.66061 265.612669 
L 216.204349 266.317962 
L 217.046898 266.842079 
L 220.936339 268.621489 
L 228.08821 272.141485 
L 228.333137 272.393838 
L 229.66554 273.215601 
L 229.871279 273.629718 
L 229.920264 274.283247 
L 229.73412 276.043245 
L 229.234468 277.246773 
L 228.798498 278.353242 
L 224.29184 287.761467 
L 223.135784 290.155582 
L 222.626336 291.203816 
L 222.802684 291.799109 
L 223.831377 292.497932 
L 225.898562 293.352048 
L 227.85308 294.348518 
L 229.116903 295.189693 
L 230.028032 295.454987 
L 230.689335 295.869104 
L 238.389842 299.809688 
L 238.889493 299.880864 
L 239.119725 300.178511 
L 240.510911 300.793216 
L 242.328269 301.860862 
L 245.879712 303.530272 
L 246.565508 304.203212 
L 252.130251 307.153797 
L 253.756566 307.904384 
L 254.104363 308.240855 
L 255.647403 309.243795 
L 257.87624 310.473205 
L 260.859451 312.194379 
L 262.87765 313.236143 
L 264.440285 314.245553 
L 264.376604 314.892611 
L 264.151271 315.455552 
L 263.41649 316.833786 
L 260.893741 321.660839 
L 259.571135 323.614954 
L 258.660006 325.420246 
L 258.121167 326.675539 
L 249.774052 341.751992 
L 248.422055 344.307871 
L 244.498323 351.08904 
L 243.146326 353.98786 
L 238.825812 362.218439 
L 238.458422 363.305496 
L 237.072135 365.997258 
L 236.224687 368.113138 
L 235.249877 370.002547 
L 234.706139 370.837252 
L 233.853793 372.590779 
L 228.406615 382.665474 
L 227.059516 385.350765 
L 225.820185 387.259586 
L 224.061609 390.287818 
L 221.950337 394.047225 
L 221.215556 395.878399 
L 221.117585 396.318399 
L 219.834168 398.906631 
L 219.025908 399.916042 
L 210.267316 414.753083 
L 207.822944 419.191902 
L 207.705379 419.50896 
L 207.563322 419.534842 
L 207.151844 419.923077 
L 206.519932 421.197782 
L 203.801242 426.878951 
L 203.218315 428.017774 
L 202.640288 429.298949 
L 198.80473 436.364823 
L 197.540906 439.684231 
L 196.830618 440.596582 
L 195.591287 442.68658 
L 193.097929 446.064223 
L 191.545091 449.053631 
L 191.309961 449.48716 
L 190.080428 452.127157 
L 189.923674 452.638333 
L 189.051734 453.977743 
L 185.387625 460.280089 
L 184.961452 461.153617 
L 183.031427 464.628319 
L 182.110501 465.922435 
L 181.150387 468.141844 
L 180.694822 468.54302 
L 180.155983 469.280667 
L 177.172771 475.524777 
L 176.766192 476.579482 
L 176.129382 476.961246 
L 175.409296 476.877128 
L 173.944632 476.029482 
L 172.293824 474.256543 
L 171.544347 473.337721 
L 171.172058 472.405957 
L 169.766177 470.924194 
L 169.437974 469.927725 
L 168.992207 469.461843 
L 168.502353 469.53949 
L 167.890035 469.261255 
L 166.136358 467.598316 
L 166.136358 467.598316 
L 165.332997 468.911843 
L 165.190939 468.98949 
L 164.980302 468.614197 
L 164.034883 467.663021 
L 163.451957 466.808905 
L 162.511437 466.148906 
L 162.026481 466.155376 
L 160.615701 465.670083 
L 159.346979 465.689494 
L 158.646488 465.249495 
L 158.264402 465.689494 
L 157.505128 466.284788 
L 156.642984 465.890082 
L 155.829827 465.217142 
L 153.346266 463.942438 
L 152.787832 463.483026 
L 151.631777 462.053028 
L 151.034155 461.703617 
L 149.530302 461.192441 
L 149.064941 461.289499 
L 148.193001 460.978912 
L 147.174104 460.092442 
L 146.826308 459.607148 
L 146.018048 458.261268 
L 146.297265 456.695387 
L 146.042541 455.550094 
L 144.646457 456.565976 
L 143.89698 457.271269 
L 141.888578 456.760093 
L 140.781508 456.656564 
L 138.327338 455.582447 
L 137.504383 455.213624 
L 136.823486 454.773625 
L 135.221663 453.453626 
L 133.605145 452.890686 
L 133.330826 452.948921 
L 132.733204 453.887155 
L 131.924945 455.705388 
L 131.474279 456.934799 
L 131.787786 457.465386 
L 132.262944 457.808327 
L 132.826276 458.047739 
L 133.335725 458.533032 
L 134.86407 459.212443 
L 135.221663 459.361266 
L 137.318239 460.720088 
L 138.199976 461.017735 
L 138.866178 460.797735 
L 139.091511 460.830088 
L 140.198581 461.503029 
L 147.923581 466.899493 
L 148.677956 468.070668 
L 149.696853 468.154786 
L 151.190908 469.021843 
L 153.517715 469.617137 
L 154.007569 469.630078 
L 154.448438 469.804784 
L 154.918698 470.296548 
L 155.810232 470.736547 
L 156.990781 471.318899 
L 159.84663 472.930074 
L 160.85573 473.350662 
L 161.218222 473.447721 
L 162.658393 474.748307 
L 164.789259 476.320658 
L 165.79346 477.12301 
L 166.885834 478.190656 
L 169.516351 479.769478 
L 171.025102 480.843594 
L 171.289623 480.934182 
L 172.582838 480.448889 
L 172.74449 480.500653 
L 174.101386 481.315947 
L 174.821471 481.68477 
L 177.540162 483.386532 
L 178.691319 484.001238 
L 179.636737 484.648296 
L 183.124499 486.117118 
L 183.913164 486.414764 
L 185.20148 487.411234 
L 185.725624 487.657116 
L 187.033535 488.433585 
L 189.830602 490.640053 
L 191.11402 491.539464 
L 193.318363 492.522992 
L 195.282678 492.988874 
L 195.336562 493.842991 
L 194.822216 494.852401 
L 193.406537 497.686516 
L 192.466017 499.938278 
L 191.667555 501.581805 
L 189.453414 505.444742 
L 189.115415 506.331212 
L 187.797707 508.602385 
L 187.337244 509.980619 
L 185.490494 513.22238 
L 184.971249 513.992379 
L 184.280555 514.089438 
L 183.384122 513.306498 
L 182.541572 512.795322 
L 181.267952 511.708264 
L 178.995029 510.245913 
L 177.81448 509.09415 
L 176.20286 507.165916 
L 175.923643 506.751799 
L 175.272137 506.771211 
L 174.52266 507.42474 
L 173.224547 506.822976 
L 168.879541 503.154156 
L 168.639512 502.817686 
L 166.611516 501.691805 
L 165.058678 501.439453 
L 163.447058 500.669453 
L 163.143349 500.397689 
L 161.286802 499.569455 
L 160.939005 499.258867 
L 160.189528 498.805926 
L 159.307791 498.482397 
L 156.603796 497.104164 
L 156.231507 496.871223 
L 152.410645 495.078872 
L 151.612183 494.981813 
L 151.475023 495.195342 
L 151.146821 495.137107 
L 150.77943 494.748872 
L 150.363054 494.295931 
L 150.078939 494.179461 
L 149.662563 493.855932 
L 146.689148 492.057111 
L 145.973961 491.422994 
L 144.832601 490.788877 
L 144.33295 490.368289 
L 143.66185 490.335936 
L 143.12301 490.484759 
L 142.138404 490.135348 
L 137.068413 487.495351 
L 135.642938 486.472999 
L 134.859171 486.233588 
L 134.555462 486.421235 
L 133.943144 487.527704 
L 133.247551 489.177702 
L 131.528163 493.254168 
L 130.979526 495.712989 
L 130.509266 496.800046 
L 130.3966 497.375928 
L 129.7255 500.171219 
L 128.946632 501.756511 
L 128.461676 503.296509 
L 128.3833 503.820626 
L 127.090085 504.377096 
L 126.071188 505.710036 
L 125.821362 506.221212 
L 125.468667 507.910033 
L 125.316813 509.048855 
L 123.759076 512.44591 
L 121.819254 517.253552 
L 121.010995 517.997669 
L 119.022187 518.884138 
L 118.468652 519.421196 
L 117.640798 521.452959 
L 116.362279 523.381192 
L 116.171236 524.58472 
L 115.691179 525.173543 
L 114.211819 527.49001 
L 114.079559 527.878245 
L 113.746458 529.71589 
L 113.383966 530.563536 
L 109.827625 536.4 
L 109.852118 536.29 
L 109.822726 533.662944 
L 109.523915 532.873534 
L 108.872409 532.427063 
L 108.034759 532.252358 
L 107.554702 531.475888 
L 103.513405 530.466478 
L 103.513405 530.466478 
L 101.029845 530.227066 
L 99.124312 527.464128 
L 96.077419 527.250599 
L 95.308348 526.519423 
L 93.402816 526.325306 
L 92.98644 525.956483 
L 90.620444 525.160601 
L 89.45949 524.597661 
L 88.7541 523.620603 
L 87.965435 523.652956 
L 87.534363 523.536486 
L 86.162772 523.012369 
L 84.237645 521.977076 
L 82.518257 521.200606 
L 81.337709 520.592371 
L 79.966117 519.563549 
L 79.236234 519.298255 
L 78.281019 518.819432 
L 77.952817 518.761197 
L 77.507049 518.418256 
L 77.379687 518.068845 
L 78.668004 515.040613 
L 79.628118 510.957677 
L 80.691101 509.158855 
L 81.06339 508.181798 
L 82.116577 505.923565 
L 82.660315 503.471215 
L 84.52176 498.73475 
L 84.59034 498.210633 
L 85.236947 497.343575 
L 85.609237 497.155928 
L 85.814975 496.560635 
L 86.123583 496.0624 
L 86.373409 495.428283 
L 86.902452 494.483578 
L 87.950739 493.862403 
L 89.297838 492.354757 
L 89.655432 491.254759 
L 89.454592 489.973584 
L 91.820587 486.738293 
L 92.614151 485.508883 
L 93.285251 485.017119 
L 93.760409 485.153001 
L 93.833888 485.049472 
L 95.376928 481.186535 
L 95.793304 480.895359 
L 96.028434 480.533006 
L 96.577071 479.284184 
L 97.31675 477.181246 
L 98.115213 476.553599 
L 98.247473 476.126541 
L 98.144604 475.757718 
L 97.473504 475.278895 
L 92.604354 472.528898 
L 91.791196 471.978899 
L 89.003926 471.085959 
L 85.398599 469.520078 
L 83.894747 468.497726 
L 76.174646 464.498907 
L 75.273314 463.683614 
L 73.940911 462.96538 
L 73.328593 462.51891 
L 72.461552 461.354205 
L 72.157842 459.749501 
L 71.707176 459.057149 
L 70.546222 458.073621 
L 70.257208 456.973622 
L 69.762455 456.261858 
L 65.946492 454.15892 
L 65.11374 453.94539 
L 63.991974 453.330685 
L 60.195604 451.117747 
L 59.098331 450.173042 
L 58.299869 449.700689 
L 57.290769 448.872455 
L 56.139612 448.335397 
L 52.524488 445.889517 
L 50.898173 445.6954 
L 50.187884 445.455988 
L 47.753309 443.961284 
L 47.243861 443.301285 
L 45.931052 442.233639 
L 45.519574 442.673639 
L 45.308937 441.838934 
L 45.02972 441.560699 
L 42.472682 440.376583 
L 30.941515 433.964237 
L 28.502042 432.734827 
L 26.665089 431.531299 
L 26.003786 431.311299 
L 25.680482 430.851888 
L 25.68538 430.308359 
L 26.22422 429.97836 
L 26.395669 429.583654 
L 26.131148 429.933065 
L 25.881322 430.068948 
L 25.98909 430.049536 
L 26.150742 430.056006 
L 26.532828 429.674242 
L 27.70358 428.127773 
L 28.144448 427.778362 
L 28.242419 427.318951 
L 28.208129 426.717187 
L 28.198332 426.723657 
L 27.850536 426.730128 
L 27.556623 426.296599 
L 27.105957 425.8566 
L 25.386569 424.911895 
L 22.746256 423.798955 
L 22.349474 423.313661 
L 22.050663 422.750721 
L 21.673475 422.472486 
L 21.408954 422.453074 
L 21.379563 422.692486 
L 21.639185 422.944838 
L 22.579705 423.397779 
L 23.593703 424.096602 
L 24.44605 425.021895 
L 25.714772 425.97307 
L 26.229119 426.548952 
L 26.836538 426.97601 
L 28.849838 427.700715 
L 29.633605 428.302479 
L 30.554531 428.852478 
L 32.489454 430.269536 
L 34.801566 430.994241 
L 37.667213 432.598945 
L 38.926138 433.66659 
L 39.469876 433.951296 
L 40.66512 434.417178 
L 43.437694 436.144823 
L 45.744907 436.908351 
L 46.367022 437.167175 
L 47.38102 437.419527 
L 48.272555 438.11835 
L 51.04023 439.710113 
L 51.917069 440.195406 
L 52.255069 440.201877 
L 50.814898 439.431878 
L 49.869479 438.862467 
L 48.728119 437.988938 
L 48.728119 437.374233 
L 49.364929 436.151293 
L 49.575567 435.465412 
L 53.337646 428.017774 
L 54.787615 424.601307 
L 56.462916 421.346605 
L 57.702247 419.094843 
L 59.612678 416.338375 
L 61.31737 413.096614 
L 62.159919 411.161911 
L 65.691768 403.876037 
L 65.995477 402.46545 
L 67.342576 400.6731 
L 68.483936 398.376043 
L 69.698774 396.603104 
L 70.82054 394.163695 
L 70.800946 391.070758 
L 71.187931 389.97723 
L 72.2999 388.230173 
L 74.097664 386.043117 
L 74.675692 384.639001 
L 75.768067 383.053708 
L 76.600819 382.387239 
L 77.257224 381.190181 
L 78.339801 378.750772 
L 79.432176 377.139598 
L 80.921333 374.189013 
L 81.494462 373.425484 
L 83.566545 370.3649 
L 86.422394 365.570199 
L 86.784887 364.580201 
L 87.617639 363.227849 
L 88.651231 361.914321 
L 89.905257 359.494324 
L 90.968241 357.960796 
L 91.898964 356.737857 
L 93.731018 353.612566 
L 96.675041 348.461984 
L 97.826199 346.831398 
L 98.472806 347.012574 
L 99.075327 347.556103 
L 100.789816 348.358455 
L 101.896887 348.740219 
L 101.980162 348.681984 
L 102.063437 348.410219 
L 101.901785 348.267867 
L 101.901785 348.267867 
" clip-path="url(#p283a64aff1)" style="fill: none; stroke: #000000; stroke-width: 3"/>
   </g>
  </g>
 </g>
 <defs>
  <clipPath id="p283a64aff1">
   <rect x="7.2" y="7.2" width="311.950379" height="554.4"/>
  </clipPath>
 </defs>
</svg>
