<?xml version="1.0" encoding="utf-8" standalone="no"?>
<!DOCTYPE svg PUBLIC "-//W3C//DTD SVG 1.1//EN"
  "http://www.w3.org/Graphics/SVG/1.1/DTD/svg11.dtd">
<svg xmlns:xlink="http://www.w3.org/1999/xlink" width="313.344385pt" height="568.8pt" viewBox="0 0 313.344385 568.8" xmlns="http://www.w3.org/2000/svg" version="1.1">
 <metadata>
  <rdf:RDF xmlns:dc="http://purl.org/dc/elements/1.1/" xmlns:cc="http://creativecommons.org/ns#" xmlns:rdf="http://www.w3.org/1999/02/22-rdf-syntax-ns#">
   <cc:Work>
    <dc:type rdf:resource="http://purl.org/dc/dcmitype/StillImage"/>
    <dc:date>2022-05-01T05:07:36.904739</dc:date>
    <dc:format>image/svg+xml</dc:format>
    <dc:creator>
     <cc:Agent>
      <dc:title>Matplotlib v3.5.1, https://matplotlib.org/</dc:title>
     </cc:Agent>
    </dc:creator>
   </cc:Work>
  </rdf:RDF>
 </metadata>
 <defs>
  <style type="text/css">*{stroke-linejoin: round; stroke-linecap: butt}</style>
 </defs>
 <g id="figure_1">
  <g id="patch_1">
   <path d="M -0 568.8 
L 313.344385 568.8 
L 313.344385 0 
L -0 0 
z
" style="fill: #ffffff"/>
  </g>
  <g id="axes_1">
   <g id="LineCollection_1">
    <path d="M 53.77048 534.03656 
L 53.378906 533.80581 
L 52.585177 533.484159 
L 51.817906 532.896795 
L 50.870722 532.708 
L 49.611338 532.631083 
L 48.457785 532.295447 
L 45.161162 530.302606 
L 43.018093 529.274719 
L 41.811625 528.638408 
L 40.107752 527.911196 
L 39.816718 527.659469 
L 39.107654 527.197969 
L 37.19212 526.260984 
L 34.414068 524.387014 
L 33.234057 523.778673 
L 30.297258 521.450196 
L 27.778491 519.995771 
L 26.757226 519.548256 
L 26.577314 519.324498 
L 26.556147 519.016832 
L 27.29167 517.74421 
L 28.376433 515.066112 
L 30.101472 513.227104 
L 32.064629 509.40924 
L 33.249931 506.430467 
L 34.980261 503.458686 
L 36.107357 500.829535 
L 36.694716 498.829701 
L 36.774089 497.340315 
L 37.377324 495.948822 
L 38.620833 493.879064 
L 40.483451 491.73239 
L 41.774584 489.753534 
L 42.229656 488.480912 
L 42.637103 488.01242 
L 44.42564 485.558079 
L 45.468071 484.411321 
L 46.023682 483.271556 
L 48.166751 480.159927 
L 48.526575 479.306851 
L 50.659061 475.216282 
L 51.569204 472.370365 
L 52.304726 471.482327 
L 54.558917 469.209789 
L 55.029863 468.286789 
L 55.368521 467.286873 
L 57.151766 464.035395 
L 57.760292 463.182319 
L 58.448191 461.699925 
L 59.892778 458.147773 
L 63.665638 451.546924 
L 64.088961 451.316174 
L 64.612822 450.679863 
L 65.665836 448.638075 
L 66.067992 448.148606 
L 66.909345 446.190727 
L 67.285044 445.407575 
L 68.301017 444.428636 
L 68.809004 443.197969 
L 70.269466 440.869491 
L 71.39127 438.513044 
L 72.60303 435.254574 
L 73.529048 431.982119 
L 73.910038 428.227187 
L 74.492106 423.947823 
L 74.64556 419.941164 
L 74.613811 419.269891 
L 74.814889 417.850429 
L 75.433998 415.486989 
L 76.158938 413.808807 
L 76.37589 412.613102 
L 77.825769 410.466428 
L 78.889366 408.494564 
L 81.81029 404.369034 
L 82.672809 402.613935 
L 85.350323 397.72623 
L 86.567375 395.153018 
L 88.832149 391.174328 
L 90.53073 387.615184 
L 92.726714 383.517623 
L 93.732104 381.888388 
L 95.287814 378.972546 
L 95.938672 378.133455 
L 96.272038 377.441205 
L 96.76415 376.713993 
L 98.198155 374.280629 
L 99.642742 371.511629 
L 100.478804 370.259985 
L 104.96602 361.869075 
L 106.654018 358.876317 
L 107.775822 356.932423 
L 109.246867 354.107484 
L 113.876954 345.891384 
L 116.5968 341.451195 
L 119.02032 336.857171 
L 122.660892 330.375194 
L 123.24296 329.578057 
L 124.708714 326.871989 
L 126.148009 324.788246 
L 126.518416 324.305769 
L 127.70901 322.054208 
L 128.248746 320.93542 
L 129.423466 317.977624 
L 134.027096 309.279048 
L 136.111958 305.845767 
L 138.789471 300.615433 
L 140.948415 296.748622 
L 141.424653 295.951486 
L 142.604664 294.161425 
L 143.467183 292.266478 
L 146.737348 286.896296 
L 147.060131 286.183068 
L 160.103749 262.394839 
L 161.188512 260.325081 
L 169.813704 244.648065 
L 172.660547 239.340814 
L 174.808907 235.55092 
L 176.142373 232.935753 
L 177.3118 230.796071 
L 177.750997 229.782169 
L 180.026355 226.03423 
L 182.587455 221.789828 
L 184.005584 218.908949 
L 185.503087 216.559494 
L 187.270458 213.475835 
L 192.43499 204.064031 
L 193.006475 202.791409 
L 199.943669 190.149105 
L 200.769147 188.904454 
L 200.91731 188.589794 
L 203.298498 184.464264 
L 205.991886 179.052127 
L 207.552887 176.450945 
L 208.378366 174.968551 
L 209.262051 173.003679 
L 211.712029 169.262732 
L 215.029817 162.703838 
L 215.712424 161.620012 
L 217.125263 158.878981 
L 222.670785 148.858836 
L 223.48568 147.166669 
L 224.025416 146.928927 
L 224.898518 147.306518 
L 227.078628 148.488238 
L 228.814249 148.858836 
L 229.533897 149.292367 
L 230.470498 150.061533 
L 231.280102 150.040556 
L 231.539387 149.830783 
L 232.920476 147.31351 
L 233.534293 146.2157 
L 235.317538 142.188063 
L 236.418176 140.139282 
L 239.577219 134.33557 
L 240.61965 132.636411 
L 240.958308 131.839274 
L 242.503434 129.224107 
L 242.704512 129.161175 
L 243.027296 128.133289 
L 243.49295 127.12638 
L 244.725876 125.077599 
L 245.577812 123.448364 
L 246.980068 121.322667 
L 248.72098 118.266977 
L 249.355964 116.88947 
L 249.8957 116.274136 
L 252.980661 110.924931 
L 253.46219 110.267643 
L 255.57351 106.39384 
L 256.256117 104.589794 
L 259.769692 98.72315 
L 260.648086 97.436544 
L 261.246029 96.191892 
L 266.294147 86.738134 
L 266.860341 85.241755 
L 269.871221 80.368035 
L 273.522376 73.557413 
L 274.813509 71.29886 
L 275.390285 69.88639 
L 276.697293 68.019412 
L 280.782353 60.425639 
L 281.390879 59.488654 
L 282.803717 56.936419 
L 283.512782 55.349138 
L 283.840857 54.4611 
L 284.877996 53.090585 
L 288.190493 47.098077 
L 289.21705 45.447865 
L 291.942187 40.294448 
L 292.386675 39.224607 
L 292.556004 38.014917 
L 292.153848 36.735303 
L 291.084959 35.602531 
L 289.698579 34.469758 
L 289.39167 34.169083 
L 288.571483 33.917356 
L 288.264575 33.945326 
L 287.656049 34.120137 
L 285.93101 34.931258 
L 284.137182 36.092 
L 283.343453 37.09891 
L 282.740219 37.371614 
L 282.406852 37.378607 
L 279.607634 37.182819 
L 278.173629 37.364622 
L 276.522672 38.042887 
L 275.564906 38.616266 
L 274.030362 39.763023 
L 273.532959 40.385349 
L 273.189009 41.308349 
L 272.53286 42.210372 
L 271.643883 44.119304 
L 270.749614 45.43388 
L 269.823597 47.377774 
L 264.19341 57.614684 
L 262.568911 60.684359 
L 261.992134 62.145775 
L 258.240441 68.096329 
L 257.637206 69.459852 
L 256.234951 71.886223 
L 254.912069 74.47342 
L 253.314027 77.235428 
L 248.911475 85.325664 
L 248.583401 86.241672 
L 248.064831 86.968884 
L 246.419165 89.919687 
L 246.181047 90.444119 
L 245.87943 90.758778 
L 243.524699 94.877316 
L 243.191333 95.681445 
L 241.169969 99.324498 
L 240.042873 100.212536 
L 239.47668 101.065612 
L 238.185547 103.813635 
L 237.206614 105.715575 
L 234.756636 110.987863 
L 234.465602 111.743045 
L 231.486471 116.609773 
L 229.734975 119.938167 
L 229.581521 120.161925 
L 229.359277 121.287705 
L 229.523314 121.448531 
L 229.174073 121.861084 
L 229.152907 121.79116 
L 230.930861 118.322917 
L 231.502346 117.826455 
L 231.86217 117.7845 
L 232.195536 117.875402 
L 233.14272 118.399834 
L 233.407296 118.399834 
L 234.539684 118.784417 
L 236.407593 119.651478 
L 239.153897 121.385599 
L 241.752037 122.867993 
L 242.953214 123.728061 
L 244.963995 124.909781 
L 247.419264 126.140448 
L 250.102069 127.608857 
L 252.652586 128.776592 
L 253.747933 128.580804 
L 254.234753 128.007425 
L 254.388208 127.636827 
L 255.271893 124.665046 
L 255.176645 124.336402 
L 254.933235 124.035728 
L 253.816723 123.679114 
L 253.224071 123.17566 
L 237.333611 114.386182 
L 234.592599 112.93875 
L 234.306856 112.295447 
L 234.507934 111.75703 
L 234.751345 111.645151 
L 235.455118 110.358545 
L 235.904898 109.484492 
L 236.132434 108.421643 
L 235.63503 107.449696 
L 234.058154 106.449779 
L 231.867462 105.47084 
L 231.258936 105.736552 
L 231.20602 105.869408 
L 231.544678 106.351885 
L 231.671675 106.316923 
L 232.126746 105.554749 
L 232.523611 105.603696 
L 233.83591 106.456772 
L 235.883732 107.610522 
L 237.53998 108.337734 
L 245.842389 112.994689 
L 247.720882 113.707916 
L 248.107163 113.763856 
L 249.30834 114.707833 
L 250.244941 115.204295 
L 250.244941 115.204295 
L 250.096778 115.421061 
L 257.033972 119.120053 
L 257.033972 119.120053 
L 257.335589 119.525614 
L 257.806535 119.532606 
L 258.102861 119.385765 
L 258.727261 118.742462 
L 260.044852 116.190227 
L 259.880815 115.483992 
L 259.600363 115.183318 
L 255.626425 112.456272 
L 254.435831 112.036727 
L 251.075711 109.88306 
L 248.429946 108.554499 
L 246.974776 107.904204 
L 246.60966 107.617514 
L 244.424259 106.722484 
L 241.529793 105.142196 
L 239.862961 103.974461 
L 237.439441 102.380188 
L 234.222192 100.918771 
L 233.703622 100.750953 
L 233.290883 100.121635 
L 233.34909 99.422392 
L 233.66129 98.765104 
L 234.740762 96.702339 
L 235.32283 96.317756 
L 236.344095 96.597453 
L 244.387218 100.757946 
L 246.339793 101.631999 
L 248.038373 102.820711 
L 248.308241 102.946575 
L 249.276591 103.603862 
L 250.959297 104.198219 
L 251.440826 104.596787 
L 252.991244 105.554749 
L 255.91746 107.05812 
L 257.806535 107.80631 
L 259.34637 108.596454 
L 261.415358 109.918022 
L 262.854654 110.435462 
L 263.606051 110.358545 
L 263.886502 110.148772 
L 264.521485 109.106901 
L 264.823102 108.253825 
L 264.976557 107.037143 
L 264.690814 106.323916 
L 263.997624 105.799484 
L 262.367833 104.904454 
L 257.610749 101.764855 
L 257.282674 101.478165 
L 254.790364 100.093665 
L 254.176547 99.576226 
L 253.419858 98.086839 
L 250.00153 95.940165 
L 249.366547 95.737385 
L 248.99614 95.247915 
L 248.805645 94.933256 
L 248.149495 94.48574 
L 244.810541 93.192142 
L 239.900002 92.129293 
L 240.143412 91.723733 
L 240.963599 89.626005 
L 242.07482 88.248497 
L 242.365854 88.108649 
L 242.990255 88.269475 
L 245.42965 89.584051 
L 246.207504 90.066528 
L 246.424457 90.213369 
L 250.229066 92.415983 
L 252.096976 93.304021 
L 253.7056 94.401831 
L 257.145094 96.191892 
L 258.663763 97.114892 
L 259.145292 97.33865 
L 259.341079 97.520453 
L 261.420649 98.807059 
L 261.775182 98.974877 
L 263.034566 99.792991 
L 267.16725 101.799817 
L 267.527073 101.806809 
L 267.833982 101.659968 
L 268.289054 101.107567 
L 268.595962 99.967802 
L 269.97176 97.443536 
L 269.881804 96.744294 
L 268.886996 96.080013 
L 266.33648 94.77243 
L 264.495028 93.681612 
L 261.870429 92.751619 
L 259.520991 91.597869 
L 254.896194 88.786914 
L 252.261013 87.395422 
L 248.964391 85.374611 
L 245.974677 83.696429 
L 245.46669 83.206959 
L 245.106866 82.626588 
L 245.186239 81.948323 
L 246.165172 79.270224 
L 246.789572 78.843686 
L 247.451014 79.053459 
L 251.414369 81.577724 
L 254.478164 82.822376 
L 255.891002 83.934171 
L 256.848769 84.472588 
L 257.229759 85.087921 
L 257.335589 86.094831 
L 257.187426 86.724149 
L 256.176744 87.975793 
L 255.853961 88.605111 
L 255.891002 88.828869 
L 256.234951 89.192475 
L 257.795952 89.961642 
L 260.394093 91.611854 
L 262.595369 92.597786 
L 262.775281 92.583801 
L 263.061023 92.457937 
L 263.473763 92.632748 
L 264.209285 93.667627 
L 265.907866 94.429801 
L 266.362937 94.387846 
L 267.124917 95.212953 
L 267.749318 95.933172 
L 268.929329 96.912112 
L 269.432024 96.681362 
L 270.860737 94.74446 
L 271.538052 93.464846 
L 271.80792 92.786581 
L 272.104246 93.164172 
L 272.358239 93.569733 
L 272.696897 94.604612 
L 273.797535 95.625506 
L 275.940604 96.84918 
L 276.665544 96.751286 
L 276.956578 96.513544 
L 277.17353 96.177907 
L 278.0043 94.56965 
L 280.475444 89.87074 
L 280.665939 88.982702 
L 281.179218 87.99677 
L 281.528458 87.731058 
L 283.491616 85.871073 
L 285.248403 84.416649 
L 287.34914 81.444868 
L 289.534541 77.606027 
L 290.624596 74.830034 
L 290.931505 72.739299 
L 291.058502 69.88639 
L 290.94738 69.452859 
L 290.455267 68.634746 
L 289.026555 67.669791 
L 287.931208 67.082427 
L 287.708964 67.194306 
L 287.402055 67.697761 
L 286.280251 68.613768 
L 285.608227 69.452859 
L 284.634586 71.578557 
L 284.438799 71.809307 
L 284.031352 72.676367 
L 283.814399 73.613352 
L 282.581473 75.627171 
L 281.867116 76.57814 
L 279.030857 81.284042 
L 277.946094 83.102073 
L 276.760791 85.43055 
L 275.586072 87.724066 
L 274.866424 88.472255 
L 274.003905 90.10149 
L 272.358239 92.611771 
L 271.728547 92.737634 
L 271.405764 92.632748 
L 263.95 88.91977 
L 262.235545 87.926846 
L 259.065919 86.290618 
L 258.864841 86.15077 
L 257.864742 85.626338 
L 257.61604 85.220777 
L 257.61604 85.220777 
L 257.631915 84.927096 
L 257.531376 84.934088 
L 256.552443 84.472588 
L 253.483356 82.682527 
L 252.94362 82.311929 
L 251.948813 81.927345 
L 250.932839 81.892383 
L 247.234061 79.493982 
L 246.736657 78.556997 
L 246.778989 77.627004 
L 248.022499 75.053792 
L 248.763313 74.634246 
L 249.498835 74.78808 
L 251.393202 76.060701 
L 252.800749 76.550171 
L 253.816723 77.165504 
L 255.732256 78.116474 
L 260.309428 80.780588 
L 260.568713 80.969383 
L 262.097965 81.808474 
L 263.113939 82.248997 
L 264.722563 83.269891 
L 265.92374 83.696429 
L 274.003905 88.521202 
L 274.892881 88.633081 
L 275.141583 88.500225 
L 275.395577 88.171581 
L 276.443299 86.038891 
L 276.692001 85.269724 
L 276.533255 84.773262 
L 275.824191 84.395671 
L 274.966963 84.178906 
L 273.972155 83.717406 
L 271.643883 82.144111 
L 270.400374 81.172163 
L 269.45319 80.696679 
L 267.871023 80.053376 
L 265.876117 78.522034 
L 264.590275 77.864747 
L 263.960583 77.689936 
L 263.098064 77.305353 
L 262.008009 76.927762 
L 259.378119 74.844019 
L 257.282674 73.830117 
L 256.727063 73.711246 
L 253.986052 72.270807 
L 251.202707 70.536685 
L 249.821618 70.222026 
L 243.455909 67.557912 
L 241.540376 66.585965 
L 240.873643 66.068526 
L 241.201718 64.628086 
L 241.677956 62.166753 
L 241.910783 56.209207 
L 242.069529 55.167335 
L 242.820926 53.426222 
L 242.5246 51.999767 
L 242.990255 50.699176 
L 243.138418 50.650229 
L 243.397703 49.734221 
L 243.635821 49.202797 
L 244.069727 48.825206 
L 244.318429 48.188895 
L 244.736459 47.874236 
L 244.874039 46.314925 
L 245.165073 45.720569 
L 246.207504 43.825622 
L 246.345084 43.510963 
L 246.625535 43.252243 
L 247.085898 42.427137 
L 247.990749 41.189478 
L 249.054347 38.902955 
L 250.075612 36.721319 
L 250.192025 36.847182 
L 250.308439 36.868159 
L 249.493544 36.637409 
L 249.366547 36.483576 
L 248.556943 35.868243 
L 246.95361 35.39975 
L 246.271003 35.301856 
L 243.694028 34.21803 
L 243.212499 34.07119 
L 241.524501 33.420894 
L 241.148803 33.392924 
L 240.529694 33.504803 
L 240.529694 33.504803 
L 240.111663 33.847432 
L 239.656592 34.392841 
L 238.153798 36.987031 
L 236.762126 38.94491 
L 234.751345 42.385183 
L 233.867659 44.524865 
L 233.925866 45.266062 
L 234.502643 46.664547 
L 234.777802 46.825373 
L 236.370552 47.601532 
L 238.846988 48.66438 
L 239.063941 47.97213 
L 238.989859 48.049047 
L 239.13273 48.25882 
L 240.085206 48.762274 
L 241.984864 48.496562 
L 242.630431 48.972047 
L 243.821025 49.391592 
L 244.84229 49.727229 
L 247.408681 50.832032 
L 248.900892 51.776009 
L 252.07581 53.034646 
L 252.885414 53.489153 
L 254.578703 54.866661 
L 254.853862 55.230267 
L 254.996734 55.628835 
L 254.912069 56.370032 
L 253.192322 60.838192 
L 252.610254 63.36945 
L 252.261013 65.096579 
L 252.467383 65.523117 
L 252.70021 65.683942 
L 253.827306 66.152435 
L 257.705996 68.306102 
L 258.79076 69.047299 
L 259.325204 69.292034 
L 268.892288 74.802064 
L 271.802629 76.046716 
L 272.46407 75.718072 
L 272.744521 75.354466 
L 272.63869 75.151686 
L 272.516985 75.522284 
L 272.543443 75.829951 
L 274.025071 77.368284 
L 274.501308 77.682943 
L 278.776864 79.871572 
L 279.274267 79.976459 
L 279.380098 79.878565 
L 281.523167 76.039724 
L 281.364421 75.508299 
L 281.115719 75.186648 
L 281.660747 75.382436 
L 283.4387 76.466262 
L 285.385983 77.703921 
L 286.79353 78.165421 
L 287.994707 79.228269 
L 288.312198 79.165338 
L 288.915433 78.466095 
L 290.031945 76.766936 
L 290.243606 76.193557 
L 290.333562 74.892966 
L 290.238315 74.445451 
L 289.756786 73.969966 
L 283.486324 70.11714 
L 282.586764 69.690602 
L 280.464861 67.921518 
L 276.252804 66.348223 
L 274.088569 65.103571 
L 271.347557 63.208624 
L 270.072299 62.614268 
L 267.532365 61.131874 
L 266.574598 60.726313 
L 262.812321 58.621593 
L 259.17175 56.488904 
L 256.99164 55.461017 
L 255.864544 54.391176 
L 255.975666 53.251411 
L 258.071112 45.559744 
L 259.520991 41.657971 
L 260.7645 38.476417 
L 261.182531 37.721235 
L 261.563521 37.490485 
L 261.981551 37.399584 
L 262.330792 37.511463 
L 263.886502 38.168751 
L 264.447404 38.112811 
L 265.288757 37.665296 
L 268.479549 35.756364 
L 269.897678 34.511712 
L 271.051232 34.036227 
L 272.760395 33.176159 
L 276.866622 32.546841 
L 278.977942 32.560826 
L 279.607634 32.4 
L 280.861726 32.637742 
L 281.618414 32.952402 
L 282.708469 33.253076 
L 283.989019 33.7845 
L 284.401759 33.973296 
L 284.015477 35.616515 
L 283.735026 36.469591 
L 281.798326 40.518205 
L 281.46496 41.574061 
L 278.962067 46.133122 
L 277.707975 48.580471 
L 276.48034 50.503388 
L 276.131099 51.139699 
L 275.490824 52.20954 
L 275.120417 53.419229 
L 273.808118 55.789661 
L 272.84506 57.54476 
L 272.252409 58.062199 
L 268.336677 65.355298 
L 267.918647 66.257321 
L 266.955588 67.788662 
L 266.029571 69.592708 
L 264.71198 71.725397 
L 259.542157 81.095247 
L 258.266898 83.759361 
L 257.467877 84.96905 
L 256.309033 87.192641 
L 253.615645 91.97546 
L 253.340485 92.849513 
L 252.515007 94.48574 
L 251.932938 95.275884 
L 249.789869 99.051794 
L 248.535777 101.576059 
L 247.588593 102.513044 
L 246.800156 105.386931 
L 245.895304 106.442787 
L 243.085502 110.952901 
L 242.508726 112.155598 
L 230.507539 133.454524 
L 228.957121 136.391343 
L 228.316846 137.286373 
L 227.443743 137.803813 
L 226.708221 137.908699 
L 226.35898 138.125464 
L 226.194943 138.370199 
L 225.940949 139.279214 
L 225.649915 140.866495 
L 224.279409 144.271806 
L 223.184063 146.040889 
L 222.580829 147.005844 
L 222.279211 148.271473 
L 221.945845 149.047632 
L 220.913997 150.655889 
L 220.527715 151.529943 
L 218.252358 155.508632 
L 217.167595 157.844102 
L 215.580136 160.599118 
L 214.675285 161.892716 
L 211.331039 167.444702 
L 209.727705 170.437459 
L 202.95984 182.135786 
L 202.40423 183.485324 
L 200.335242 187.079431 
L 198.87478 190.267976 
L 198.350919 190.939249 
L 197.853515 192.058037 
L 195.37708 195.924848 
L 191.678301 202.679531 
L 190.366002 205.028985 
L 187.535034 210.392175 
L 178.920425 226.292949 
L 177.348841 228.922101 
L 173.089161 236.746624 
L 169.681416 242.885974 
L 164.897874 251.605527 
L 163.871318 253.269724 
L 160.691109 258.863664 
L 160.468865 259.318172 
L 159.701593 261.255074 
L 158.024178 263.982119 
L 157.108744 265.198801 
L 154.955092 269.387264 
L 152.139998 274.316923 
L 147.779779 282.442121 
L 145.134014 287.203962 
L 144.652485 287.994106 
L 143.440725 290.546341 
L 142.440626 292.259486 
L 141.387612 293.776842 
L 140.032981 296.133289 
L 136.979769 301.699259 
L 136.323619 302.657221 
L 133.624939 307.712745 
L 127.730176 318.509049 
L 126.687745 319.893549 
L 125.206117 322.243003 
L 123.729781 325.34764 
L 122.967801 327.263564 
L 122.27461 328.536186 
L 121.629044 330.053542 
L 121.147515 330.71083 
L 119.581222 334.262982 
L 117.60219 337.514459 
L 116.512136 339.094747 
L 108.823544 352.667044 
L 106.183072 357.666628 
L 101.965723 365.232432 
L 101.05558 367.029485 
L 97.48909 373.133872 
L 96.653028 374.854008 
L 95.330146 377.056622 
L 91.123381 384.678365 
L 90.514855 385.720236 
L 90.054492 386.811055 
L 87.826758 390.929593 
L 87.488101 391.852593 
L 83.81578 398.348556 
L 83.556495 398.789078 
L 81.371093 403.131374 
L 76.412931 411.45236 
L 75.021259 414.689853 
L 74.476231 418.109148 
L 74.126991 428.772596 
L 72.687695 434.219695 
L 70.851534 439.79965 
L 69.094747 443.421726 
L 68.745506 444.141946 
L 67.464956 446.001931 
L 65.560006 449.134538 
L 64.014879 452.008424 
L 59.813405 459.700092 
L 58.146574 462.832698 
L 56.067003 466.398835 
L 54.77587 468.944077 
L 52.844462 471.866911 
L 51.050634 475.027487 
L 50.849556 475.342146 
L 47.732845 481.103904 
L 46.743329 483.460351 
L 45.266993 485.928677 
L 44.684925 487.390094 
L 42.959886 490.312928 
L 32.498534 509.269391 
L 31.297357 511.71674 
L 29.979767 513.891384 
L 28.450515 515.604528 
L 28.233562 515.95415 
L 25.31793 520.282461 
L 20.804256 528.918105 
L 20.788381 529.267727 
L 21.121747 529.945992 
L 21.20112 530.498393 
L 21.497446 531.113727 
L 22.561043 532.162591 
L 25.175058 533.239424 
L 25.889415 533.267394 
L 27.921362 533.86175 
L 28.699217 533.631 
L 29.424156 533.700924 
L 29.78398 533.924682 
L 30.694123 534.679863 
L 31.292066 534.952568 
L 33.10706 536.4 
L 33.128226 536.37203 
" clip-path="url(#p5f0ba387b7)" style="fill: none; stroke: #000000; stroke-width: 3"/>
   </g>
  </g>
 </g>
 <defs>
  <clipPath id="p5f0ba387b7">
   <rect x="7.2" y="7.2" width="298.944385" height="554.4"/>
  </clipPath>
 </defs>
</svg>
