<?xml version="1.0" encoding="utf-8" standalone="no"?>
<!DOCTYPE svg PUBLIC "-//W3C//DTD SVG 1.1//EN"
  "http://www.w3.org/Graphics/SVG/1.1/DTD/svg11.dtd">
<svg xmlns:xlink="http://www.w3.org/1999/xlink" width="415.014385pt" height="568.8pt" viewBox="0 0 415.014385 568.8" xmlns="http://www.w3.org/2000/svg" version="1.1">
 <metadata>
  <rdf:RDF xmlns:dc="http://purl.org/dc/elements/1.1/" xmlns:cc="http://creativecommons.org/ns#" xmlns:rdf="http://www.w3.org/1999/02/22-rdf-syntax-ns#">
   <cc:Work>
    <dc:type rdf:resource="http://purl.org/dc/dcmitype/StillImage"/>
    <dc:date>2022-05-15T05:05:41.067305</dc:date>
    <dc:format>image/svg+xml</dc:format>
    <dc:creator>
     <cc:Agent>
      <dc:title>Matplotlib v3.5.2, https://matplotlib.org/</dc:title>
     </cc:Agent>
    </dc:creator>
   </cc:Work>
  </rdf:RDF>
 </metadata>
 <defs>
  <style type="text/css">*{stroke-linejoin: round; stroke-linecap: butt}</style>
 </defs>
 <g id="figure_1">
  <g id="patch_1">
   <path d="M 0 568.8 
L 415.014385 568.8 
L 415.014385 0 
L 0 0 
z
" style="fill: #ffffff"/>
  </g>
  <g id="axes_1">
   <g id="LineCollection_1">
    <path d="M 60.983116 322.180173 
L 62.111274 322.913185 
L 65.686807 325.496753 
L 68.225163 326.998827 
L 70.526969 329.041648 
L 71.764304 329.558362 
L 74.384542 330.387507 
L 75.194268 330.832121 
L 75.257954 331.144552 
L 76.195053 332.56251 
L 76.777329 332.790825 
L 79.261096 332.189996 
L 80.061724 331.300768 
L 80.316469 330.772038 
L 80.971529 328.897449 
L 81.653883 327.719823 
L 82.463609 327.431424 
L 83.227845 326.818578 
L 85.666122 326.025483 
L 86.494045 326.193715 
L 87.412948 326.554213 
L 89.105185 326.974794 
L 92.753502 328.08032 
L 95.537505 329.269963 
L 97.366213 330.435573 
L 99.904569 332.418311 
L 104.808417 336.720252 
L 108.456735 338.823156 
L 114.761682 341.755205 
L 115.680585 342.05562 
L 119.356197 343.67786 
L 123.695966 345.312117 
L 129.27307 348.0519 
L 132.884996 350.815717 
L 133.976762 352.46199 
L 135.186802 355.790587 
L 135.56892 357.857441 
L 137.070098 363.733556 
L 137.979903 365.884526 
L 138.562178 366.809804 
L 139.881395 368.504144 
L 141.391671 369.910085 
L 143.529713 372.229288 
L 145.303832 373.719346 
L 147.005167 375.473769 
L 150.44423 380.220323 
L 155.903059 386.565085 
L 156.885649 387.225998 
L 157.85914 388.139259 
L 158.796239 389.220752 
L 159.496789 389.65335 
L 163.299773 391.107358 
L 166.984483 393.090096 
L 173.116568 396.094244 
L 174.626844 397.283887 
L 177.529121 399.206542 
L 179.194064 400.324086 
L 179.312339 401.417596 
L 179.721751 402.475056 
L 180.522379 403.41235 
L 181.941675 403.929064 
L 183.806775 404.025197 
L 184.161599 403.856964 
L 184.871247 402.655305 
L 185.662777 400.396185 
L 186.117679 399.543007 
L 187.236739 396.959439 
L 188.710623 394.207639 
L 191.421842 390.158047 
L 192.277059 387.718678 
L 193.305138 386.26467 
L 195.024669 383.380688 
L 196.544043 380.376539 
L 196.98075 379.078747 
L 197.735888 378.069353 
L 198.955026 375.485785 
L 204.459346 364.995298 
L 208.289624 358.842802 
L 209.745312 356.247218 
L 219.625793 336.660169 
L 223.292307 330.111125 
L 224.056543 328.416785 
L 225.412152 324.919956 
L 225.894349 324.23501 
L 230.625334 316.135826 
L 231.507845 315.042316 
L 233.463926 309.971313 
L 233.973416 308.769653 
L 234.264554 308.373106 
L 235.456398 307.832359 
L 235.82032 307.58001 
L 236.748321 306.318268 
L 238.950049 302.496991 
L 239.805266 300.742568 
L 241.861425 297.73842 
L 250.932179 281.876515 
L 251.905671 279.509246 
L 254.908027 275.495704 
L 255.82693 273.993629 
L 258.929364 269.487406 
L 262.686858 262.265433 
L 267.599805 253.901884 
L 267.981923 253.072739 
L 268.97361 252.411826 
L 269.819729 251.282266 
L 271.12075 248.914997 
L 271.602946 247.84552 
L 272.922163 245.502284 
L 273.695498 244.45684 
L 275.078401 242.065538 
L 276.379422 240.04675 
L 278.67213 235.961108 
L 283.139272 227.34521 
L 284.658646 224.569377 
L 288.106807 217.840084 
L 290.326731 214.04284 
L 292.946969 209.957198 
L 294.084225 207.950427 
L 294.721088 206.556502 
L 296.167678 204.189233 
L 296.595287 203.60042 
L 297.787131 200.632321 
L 299.93427 196.799027 
L 302.272469 192.376921 
L 310.9884 178.798169 
L 316.501817 168.776329 
L 325.172258 151.676715 
L 326.864495 147.53099 
L 328.529438 144.683058 
L 330.603793 141.642859 
L 333.032972 137.376968 
L 334.90717 134.541052 
L 336.735878 130.888007 
L 339.528979 126.08137 
L 342.349374 121.49103 
L 347.21683 112.094054 
L 351.720364 104.030919 
L 353.567268 101.747766 
L 355.887271 97.722207 
L 356.769782 97.385742 
L 358.68947 94.309494 
L 359.180764 93.023718 
L 361.173237 89.142358 
L 362.738102 85.57343 
L 364.166495 83.085995 
L 366.723047 79.469 
L 368.269715 76.705183 
L 369.652619 74.794545 
L 369.92556 73.028105 
L 370.516933 70.636803 
L 373.592074 64.027676 
L 376.075841 59.281122 
L 377.322274 57.586782 
L 378.887138 55.063297 
L 381.853102 49.932211 
L 386.902519 40.403052 
L 387.211853 39.646006 
L 389.086051 36.461609 
L 389.60464 34.02224 
L 389.513659 32.4721 
L 388.967776 32.424033 
L 388.421893 33.060913 
L 384.582517 38.925011 
L 382.835691 40.847666 
L 376.603528 53.705422 
L 376.084939 54.6307 
L 373.874113 57.598798 
L 370.753483 63.48693 
L 370.398659 63.919527 
L 366.122576 71.453932 
L 360.945786 78.928253 
L 360.054177 79.769415 
L 357.142802 80.622593 
L 356.86986 81.019141 
L 356.851664 81.992485 
L 357.515822 83.626742 
L 357.379351 83.95119 
L 357.042723 84.239588 
L 356.023742 85.873845 
L 352.593777 89.45479 
L 351.092599 91.882142 
L 349.946245 94.35756 
L 349.382166 95.186705 
L 346.416202 100.822488 
L 342.722394 109.402337 
L 341.776197 111.08466 
L 338.846625 117.549588 
L 337.400036 121.154566 
L 335.880661 123.593934 
L 330.367244 135.850861 
L 329.011635 138.326279 
L 328.065437 139.80432 
L 325.25414 145.139688 
L 318.794526 156.279071 
L 316.228876 160.797311 
L 314.008952 163.777426 
L 313.544952 164.594554 
L 309.614594 170.843183 
L 304.27404 180.684774 
L 302.954823 183.280359 
L 302.290665 183.797072 
L 301.471841 185.010748 
L 300.834977 187.450117 
L 300.279996 188.507577 
L 299.270113 190.177884 
L 298.560465 191.728024 
L 299.342897 192.064489 
L 299.342897 193.758829 
L 297.359523 200.355939 
L 296.968307 201.785914 
L 296.367835 203.576386 
L 296.103992 203.696552 
L 291.554967 204.081083 
L 285.986962 214.475438 
L 283.703351 219.354175 
L 275.560598 235.384312 
L 265.134234 253.625502 
L 264.688429 254.250365 
L 254.480418 273.308683 
L 252.660809 276.949712 
L 250.067865 281.491984 
L 246.092017 289.134538 
L 245.036644 290.840895 
L 244.763702 291.52584 
L 234.746751 310.043412 
L 232.281179 315.162482 
L 231.480551 316.976987 
L 230.843688 318.106547 
L 229.560863 320.125335 
L 228.514587 322.144123 
L 227.495606 323.369815 
L 225.366662 327.131009 
L 223.88368 330.219274 
L 222.400698 332.718726 
L 222.209639 333.223423 
L 221.336227 336.179505 
L 219.707676 339.964732 
L 220.217167 341.190425 
L 221.800227 342.536283 
L 222.919287 342.908798 
L 225.130113 343.942225 
L 229.588157 346.730075 
L 230.952864 347.823585 
L 231.962748 348.388365 
L 234.118985 349.325659 
L 235.629261 350.142788 
L 237.376087 351.416547 
L 240.824247 353.411301 
L 244.381584 355.610338 
L 247.238372 357.004263 
L 249.449197 357.448877 
L 259.165914 363.445158 
L 260.084817 364.238253 
L 261.658779 366.076792 
L 263.569369 366.89392 
L 265.925764 367.711049 
L 267.445138 369.092957 
L 267.445138 369.092957 
L 267.718079 369.657737 
L 269.100983 370.679147 
L 269.510395 370.859396 
L 270.602161 371.472243 
L 271.766711 372.553736 
L 272.321692 372.854151 
L 273.013144 372.926251 
L 274.086714 373.430947 
L 276.643265 374.921005 
L 277.289227 375.065204 
L 278.981464 375.666034 
L 279.79119 376.170731 
L 281.23778 377.288274 
L 282.866331 377.552639 
L 283.721547 377.540623 
L 284.958882 377.841038 
L 285.38649 378.297668 
L 285.832295 378.513967 
L 287.815669 378.922531 
L 289.435122 379.643527 
L 289.435122 379.643527 
L 290.417711 380.184274 
L 291.373006 380.400572 
L 293.410969 381.578198 
L 297.332228 383.969501 
L 298.578661 384.534281 
L 306.630434 388.752105 
L 309.196084 389.797549 
L 310.105889 390.542578 
L 310.19687 390.830976 
L 310.215066 392.765648 
L 310.424321 392.96993 
L 310.724556 392.789681 
L 310.688164 392.825731 
L 310.478909 391.588022 
L 311.743538 390.386362 
L 311.880009 389.256802 
L 312.371303 388.007076 
L 312.516872 386.036355 
L 312.325813 384.750579 
L 311.634361 382.347261 
L 311.061184 382.142978 
L 311.042988 383.044223 
L 311.625263 385.77199 
L 311.898205 388.307491 
L 311.743538 388.932354 
L 310.533497 391.167441 
L 310.187771 392.789681 
L 310.342438 393.57076 
L 310.633576 393.702942 
L 310.870125 393.558743 
L 311.543381 392.152801 
L 312.753421 388.247408 
L 312.644245 386.745334 
L 311.643459 380.785103 
L 311.297733 378.429851 
L 310.733654 375.617968 
L 310.269654 372.193238 
L 310.187771 367.999447 
L 310.24236 365.932593 
L 310.742752 361.306204 
L 311.634361 357.50896 
L 311.970989 356.896114 
L 313.080951 355.466139 
L 315.118914 353.783816 
L 313.890677 353.351218 
L 313.399383 353.471384 
L 312.580558 354.396662 
L 311.861812 355.658404 
L 311.152165 357.172495 
L 309.650987 362.015183 
L 309.314359 363.505241 
L 309.068711 369.441438 
L 309.241574 372.385504 
L 309.523614 374.380258 
L 311.479694 387.009699 
L 311.170361 389.100587 
L 309.523614 393.859158 
L 309.805653 394.55612 
L 310.187771 394.472004 
L 311.188557 392.40515 
L 311.989185 391.143408 
L 312.535068 389.569234 
L 312.80801 387.514396 
L 312.698833 386.841467 
L 311.03389 379.811759 
L 311.124871 378.598083 
L 310.560791 376.134681 
L 310.415223 374.933022 
L 310.005811 373.983711 
L 309.732869 371.652492 
L 311.106674 357.496943 
L 311.261341 357.184512 
L 312.453186 355.88672 
L 312.989971 355.406056 
L 312.989971 355.406056 
L 312.926284 354.68506 
L 312.562362 354.168347 
L 311.798126 354.288513 
L 311.434204 355.309923 
L 311.215851 355.802604 
L 309.86934 359.69598 
L 308.977731 364.009938 
L 308.904947 365.704277 
L 308.823064 370.570998 
L 308.950437 372.133155 
L 310.551693 380.460655 
L 311.306831 386.973649 
L 311.07938 388.427657 
L 310.151379 391.395756 
L 309.696477 392.813714 
L 309.705575 396.538858 
L 308.977731 397.524219 
L 307.749494 398.653779 
L 306.93067 399.711239 
L 305.966277 400.588451 
L 303.846431 404.373678 
L 303.20047 405.803653 
L 300.079839 410.886672 
L 297.004699 416.318173 
L 296.522502 416.931019 
L 293.774891 421.377159 
L 292.883283 422.650918 
L 292.47387 423.407963 
L 291.837007 424.873988 
L 290.790731 426.80866 
L 289.517005 428.755348 
L 286.905865 433.297621 
L 285.732216 436.181603 
L 282.829939 441.180506 
L 275.751657 455.287988 
L 274.1504 458.532469 
L 270.46569 465.502093 
L 269.401219 467.556931 
L 265.934862 473.721444 
L 264.533762 476.401144 
L 263.096271 478.359849 
L 262.031799 480.594936 
L 257.009676 489.667465 
L 255.162772 492.287082 
L 253.843555 492.431281 
L 251.896573 490.112079 
L 248.866922 488.537905 
L 245.182213 486.687349 
L 243.14425 485.353507 
L 241.106287 484.235964 
L 238.34048 483.430852 
L 237.230518 482.565657 
L 235.292633 481.460131 
L 234.464711 481.159716 
L 231.198511 479.34521 
L 229.606353 478.756397 
L 228.914901 478.335816 
L 227.750351 476.905841 
L 227.049801 476.353078 
L 225.557721 475.379734 
L 222.34611 473.553212 
L 221.64556 473.024481 
L 217.769791 470.344781 
L 215.377005 468.974889 
L 214.822024 469.046989 
L 213.43912 469.491603 
L 213.266257 469.683868 
L 210.573235 474.742854 
L 208.062173 479.573525 
L 207.88931 480.162338 
L 208.398801 479.477393 
L 212.283668 471.666606 
L 212.065315 471.342158 
L 211.564922 472.71205 
L 210.227509 474.97117 
L 209.308606 476.785675 
L 208.817311 478.083468 
L 207.170564 481.484164 
L 206.197073 482.950188 
L 205.705779 483.923532 
L 205.041621 484.608478 
L 204.004443 486.278785 
L 203.658718 486.338868 
L 206.779348 480.090239 
L 209.199429 474.89907 
L 210.154724 473.577245 
L 211.373863 471.65459 
L 211.983432 471.786772 
L 211.655903 472.447685 
L 208.526174 477.747003 
L 206.670172 480.679052 
L 206.815741 480.715102 
L 208.034879 479.140928 
L 209.636136 479.020762 
L 210.864372 480.198388 
L 212.210884 481.303915 
L 213.493708 482.962205 
L 216.42328 483.947566 
L 218.361165 485.125192 
L 222.182345 488.057241 
L 223.965563 489.006552 
L 225.221093 488.970502 
L 226.376546 488.790253 
L 228.469097 488.934452 
L 229.096862 488.778237 
L 229.096862 488.778237 
L 229.724628 488.69412 
L 229.906589 488.910419 
L 230.952864 489.655448 
L 233.063611 490.724925 
L 235.101574 492.491364 
L 236.393497 492.899928 
L 238.213107 493.921339 
L 238.731696 494.450069 
L 240.232874 494.750484 
L 241.688562 494.87065 
L 243.226132 494.846617 
L 244.609035 495.074932 
L 248.220961 497.261952 
L 248.575785 498.379495 
L 249.958688 499.208641 
L 250.613748 499.412923 
L 250.577355 499.35284 
L 251.214219 499.749387 
L 252.215004 500.566516 
L 254.817046 502.465138 
L 258.883874 504.82039 
L 260.385052 506.010033 
L 260.921837 506.358514 
L 262.095485 507.259759 
L 268.327649 510.39609 
L 268.982708 510.876754 
L 272.430869 512.54706 
L 273.35887 513.039741 
L 274.52342 512.967641 
L 274.750871 512.823442 
L 275.578794 511.285318 
L 275.906323 511.044986 
L 276.470402 510.143741 
L 277.216442 508.6657 
L 277.516678 507.488074 
L 279.299896 505.937933 
L 280.382563 503.931162 
L 281.201388 503.12605 
L 281.692683 502.813619 
L 282.174879 501.660026 
L 282.63888 500.37425 
L 283.221155 499.677288 
L 283.512292 499.521072 
L 285.441079 496.949521 
L 286.642021 494.570235 
L 286.578335 493.308493 
L 287.178806 492.57548 
L 287.606414 492.287082 
L 288.834651 490.965257 
L 290.281241 489.691498 
L 290.281241 489.691498 
L 290.208456 490.628792 
L 289.480612 492.022717 
L 288.598102 493.536808 
L 286.905865 495.711812 
L 285.99606 496.552973 
L 285.659432 496.673139 
L 285.814099 496.480874 
L 286.678413 495.122998 
L 287.424453 494.414019 
L 288.498023 492.551447 
L 288.962024 492.707663 
L 287.469944 495.627695 
L 286.305393 496.901454 
L 285.268216 498.367479 
L 284.403901 499.88157 
L 284.039979 500.230051 
L 281.419741 504.099394 
L 280.173308 505.625502 
L 277.826012 508.161003 
L 274.10491 513.256039 
L 273.022242 513.580487 
L 271.721221 512.907558 
L 263.896899 507.752439 
L 261.51321 506.418597 
L 260.521523 505.529369 
L 259.220502 504.099394 
L 258.43807 502.465138 
L 257.855795 502.200772 
L 257.510069 501.768175 
L 256.918696 501.696076 
L 256.463793 501.57591 
L 255.717753 501.708092 
L 255.435714 501.527843 
L 255.035399 502.224806 
L 255.071792 502.621353 
L 255.563086 503.618731 
L 257.164343 505.168871 
L 259.211404 505.998016 
L 260.67619 506.995394 
L 262.786937 508.197053 
L 263.478389 507.992771 
L 264.142546 508.040837 
L 266.498941 509.086281 
L 272.858477 512.294712 
L 273.877459 512.823442 
L 273.868361 513.508388 
L 270.265533 519.168204 
L 268.764355 521.054809 
L 265.15243 527.868218 
L 263.587565 530.36767 
L 264.160742 529.923056 
L 264.351801 529.322226 
L 264.470076 527.784102 
L 263.724036 527.411587 
L 261.968113 527.063106 
L 261.212975 526.654542 
L 259.720895 526.053712 
L 258.019559 525.008269 
L 254.280261 523.878709 
L 253.734378 523.410062 
L 252.997436 521.307158 
L 252.287789 518.711573 
L 250.777513 518.903839 
L 249.330923 519.228287 
L 248.148176 519.060054 
L 247.638686 518.843756 
L 247.174685 518.483258 
L 246.210292 515.034495 
L 245.236801 513.556454 
L 244.672722 513.592504 
L 243.499073 514.589881 
L 242.561974 516.752868 
L 241.333738 519.348453 
L 240.360247 521.727738 
L 240.069109 524.107024 
L 240.114599 525.044318 
L 240.478521 527.183272 
L 241.361032 528.060484 
L 241.906915 528.216699 
L 244.818291 529.682724 
L 245.737194 530.007172 
L 247.502215 530.355653 
L 248.257353 531.112698 
L 249.48559 531.160765 
L 251.878376 530.139354 
L 253.124809 530.656068 
L 253.434143 530.908416 
L 253.916339 531.689495 
L 254.789752 532.722922 
L 255.87242 532.758972 
L 256.855009 533.828449 
L 257.264421 535.126241 
L 258.374383 535.522789 
L 259.047639 536.4 
L 259.411561 535.967403 
L 259.366071 536.003452 
L 259.011247 535.666988 
L 258.319795 535.727071 
L 257.78301 535.126241 
L 256.94599 534.453312 
L 256.94599 534.405245 
L 256.263636 533.455934 
L 256.008891 532.410491 
L 255.017203 530.463802 
L 252.93375 528.408965 
L 251.004964 527.639903 
L 249.148962 527.351504 
L 247.984412 526.94294 
L 247.092803 526.750675 
L 246.246684 526.137828 
L 244.044956 525.452883 
L 243.344407 524.611721 
L 242.061582 523.542244 
L 240.833345 524.203157 
L 239.013735 526.390177 
L 238.786284 526.125812 
L 238.631617 525.621115 
L 238.586127 525.092385 
L 238.786284 523.818626 
L 238.349578 522.280502 
L 238.031146 521.619589 
L 237.139537 521.823871 
L 235.993183 520.802461 
L 234.419221 520.91061 
L 232.990827 520.453979 
L 228.514587 518.819722 
L 227.313645 518.110743 
L 223.628935 516.632702 
L 222.67364 515.479109 
L 221.035991 514.529798 
L 219.662186 513.21999 
L 219.170891 511.549683 
L 218.679596 511.645816 
L 217.669713 511.693882 
L 217.142026 511.561699 
L 215.313318 510.648438 
L 214.112376 509.711144 
L 212.893237 509.062248 
L 211.510334 507.632273 
L 210.864372 507.163626 
L 210.172921 506.803128 
L 208.653546 506.298431 
L 207.434408 505.673568 
L 206.142485 504.664174 
L 205.423739 503.702847 
L 204.186404 503.005884 
L 201.420598 501.071213 
L 199.810243 500.698698 
L 198.918634 500.674665 
L 198.163496 500.434333 
L 194.824512 498.75201 
L 193.478001 498.079081 
L 192.095098 497.69455 
L 187.919093 495.711812 
L 182.56944 493.296476 
L 180.840811 492.407248 
L 176.92865 489.391083 
L 176.628415 488.946469 
L 176.473748 488.393706 
L 176.46465 487.768843 
L 176.573826 487.10793 
L 177.692886 483.983615 
L 177.865749 483.382786 
L 178.666377 481.195766 
L 179.639869 479.513442 
L 182.605833 474.490506 
L 183.115323 472.808183 
L 184.789364 470.020333 
L 185.46262 468.434142 
L 187.382308 465.189662 
L 189.693213 459.758161 
L 191.549215 457.619207 
L 192.495412 455.972934 
L 193.905609 452.956769 
L 195.015571 450.120853 
L 196.844279 446.828306 
L 197.44475 445.722779 
L 198.527418 444.316838 
L 199.928518 441.312689 
L 201.08397 438.140308 
L 201.466088 436.854532 
L 202.112049 435.352458 
L 203.394874 433.525936 
L 206.133387 429.236012 
L 207.197859 427.385456 
L 209.172135 424.681722 
L 216.022966 412.568995 
L 216.850888 410.670373 
L 216.75081 410.033494 
L 216.450574 409.660979 
L 215.649946 409.228382 
L 211.701393 406.861113 
L 210.627823 406.30835 
L 207.352525 404.241495 
L 205.805857 403.532516 
L 204.277385 403.051853 
L 196.889769 398.449497 
L 195.597846 397.440103 
L 193.450707 396.418692 
L 187.673446 394.207639 
L 185.189678 392.909847 
L 180.722536 390.049897 
L 177.237984 386.637185 
L 175.609433 385.73594 
L 174.208334 386.420886 
L 170.842055 384.966878 
L 169.695701 383.008173 
L 168.149033 381.217701 
L 165.355932 379.66756 
L 161.853183 379.150846 
L 160.761417 378.321701 
L 160.215534 378.6101 
L 159.514985 378.646149 
L 158.095689 377.841038 
L 156.676393 376.891727 
L 155.020549 376.038548 
L 150.39874 374.031777 
L 146.468383 372.565753 
L 144.730655 371.460226 
L 143.593399 370.114367 
L 141.782887 368.263812 
L 140.199827 366.833837 
L 137.970805 363.132726 
L 136.897235 360.29681 
L 135.641704 355.550255 
L 134.540841 352.870555 
L 133.203427 350.443203 
L 131.775034 349.193477 
L 126.94397 345.985046 
L 126.070557 345.588498 
L 108.129205 338.570807 
L 104.717436 336.696219 
L 103.980495 336.131439 
L 103.980495 336.131439 
L 97.56637 331.649249 
L 93.41766 329.726594 
L 91.64354 329.029631 
L 89.969499 328.248553 
L 83.76463 325.664985 
L 82.845727 325.677002 
L 81.553804 326.133632 
L 81.344549 326.974794 
L 80.489332 329.149797 
L 79.797881 330.423556 
L 79.561331 331.096486 
L 79.206508 331.733365 
L 77.641643 334.268867 
L 71.673323 345.780764 
L 69.134967 349.71019 
L 68.261555 351.572762 
L 67.570103 352.726355 
L 65.131826 357.160479 
L 64.795198 357.665176 
L 64.622335 358.241972 
L 64.158335 359.371532 
L 62.711745 361.99115 
L 62.002097 363.481207 
L 59.827664 367.218368 
L 55.551581 374.212026 
L 54.960207 375.545868 
L 50.065457 384.810662 
L 45.698394 392.236918 
L 44.961452 393.162195 
L 44.433765 394.003357 
L 44.078941 395.072834 
L 41.995488 399.67519 
L 41.422311 401.165247 
L 40.221368 402.799504 
L 39.875642 403.099919 
L 39.429838 403.748815 
L 39.384348 404.181412 
L 39.493524 404.421744 
L 39.866544 404.061246 
L 40.230466 402.655305 
L 41.304036 400.396185 
L 42.541371 398.737895 
L 42.959881 397.932783 
L 43.887882 396.791207 
L 44.64302 395.084851 
L 47.754553 389.076553 
L 50.866085 383.921434 
L 52.285381 380.737037 
L 52.922244 379.643527 
L 66.878651 354.564894 
L 67.906731 352.714339 
L 69.58987 349.78229 
L 70.044772 348.857012 
L 70.554263 348.412398 
L 70.244929 348.340299 
L 70.281322 348.352315 
L 70.390498 348.520547 
L 70.526969 348.472481 
L 70.29042 348.376348 
L 70.263126 348.760879 
L 69.344223 348.808946 
L 69.30783 348.532564 
L 68.56179 347.415021 
L 68.243359 347.186705 
L 67.187985 346.669992 
L 63.839903 344.290706 
L 60.992214 342.536283 
L 60.646488 341.935454 
L 59.636604 341.49084 
L 57.662328 340.349263 
L 55.779032 339.700367 
L 52.330871 337.765695 
L 50.602242 336.9726 
L 48.882711 336.059339 
L 46.499022 334.352983 
L 46.153296 334.521215 
L 46.025923 334.713481 
L 45.607413 334.545248 
L 45.334472 334.232817 
L 43.260117 332.63461 
L 38.265288 330.30339 
L 36.491168 329.185847 
L 34.789833 328.356702 
L 33.470616 327.347308 
L 29.503867 325.412636 
L 25.409745 323.237633 
L 25.409745 323.237633 
" clip-path="url(#pbb6d5180a3)" style="fill: none; stroke: #000000; stroke-width: 3"/>
   </g>
  </g>
 </g>
 <defs>
  <clipPath id="pbb6d5180a3">
   <rect x="7.2" y="7.2" width="400.614385" height="554.4"/>
  </clipPath>
 </defs>
</svg>
