<?xml version="1.0" encoding="utf-8" standalone="no"?>
<!DOCTYPE svg PUBLIC "-//W3C//DTD SVG 1.1//EN"
  "http://www.w3.org/Graphics/SVG/1.1/DTD/svg11.dtd">
<svg xmlns:xlink="http://www.w3.org/1999/xlink" width="410.780396pt" height="568.8pt" viewBox="0 0 410.780396 568.8" xmlns="http://www.w3.org/2000/svg" version="1.1">
 <metadata>
  <rdf:RDF xmlns:dc="http://purl.org/dc/elements/1.1/" xmlns:cc="http://creativecommons.org/ns#" xmlns:rdf="http://www.w3.org/1999/02/22-rdf-syntax-ns#">
   <cc:Work>
    <dc:type rdf:resource="http://purl.org/dc/dcmitype/StillImage"/>
    <dc:date>2022-05-16T05:06:56.535971</dc:date>
    <dc:format>image/svg+xml</dc:format>
    <dc:creator>
     <cc:Agent>
      <dc:title>Matplotlib v3.5.2, https://matplotlib.org/</dc:title>
     </cc:Agent>
    </dc:creator>
   </cc:Work>
  </rdf:RDF>
 </metadata>
 <defs>
  <style type="text/css">*{stroke-linejoin: round; stroke-linecap: butt}</style>
 </defs>
 <g id="figure_1">
  <g id="patch_1">
   <path d="M 0 568.8 
L 410.780396 568.8 
L 410.780396 0 
L 0 0 
z
" style="fill: #ffffff"/>
  </g>
  <g id="axes_1">
   <g id="LineCollection_1">
    <path d="M 112.396584 247.725145 
L 113.752506 248.304984 
L 114.572515 248.748391 
L 117.40058 249.839854 
L 118.194763 250.453802 
L 123.282696 253.06308 
L 124.076879 253.694082 
L 125.084135 254.060745 
L 125.37469 253.856096 
L 126.730611 252.10805 
L 127.925113 249.831327 
L 128.377087 249.737529 
L 129.468281 250.138301 
L 131.954137 251.110385 
L 133.904081 251.647589 
L 136.525529 252.304172 
L 139.056583 253.506487 
L 140.192974 254.376246 
L 141.432674 255.041356 
L 142.736941 256.056076 
L 143.163088 256.550645 
L 144.280109 257.471566 
L 146.049264 258.469232 
L 147.29542 259.006436 
L 148.541576 259.407207 
L 150.659397 260.387818 
L 154.275187 261.573079 
L 156.089539 262.1785 
L 159.692416 263.875383 
L 160.919202 264.719561 
L 161.965199 265.631956 
L 163.037022 266.433499 
L 163.947427 267.448218 
L 165.361459 270.688499 
L 166.233123 275.19931 
L 166.885257 276.742706 
L 168.221808 279.616323 
L 169.777889 280.963598 
L 171.062786 281.961263 
L 174.245973 285.099218 
L 177.84885 289.456542 
L 178.849649 290.778236 
L 179.417845 292.057294 
L 180.16683 292.773566 
L 180.58652 293.336352 
L 181.671257 293.967354 
L 184.56389 295.016181 
L 189.348356 297.199107 
L 191.07877 298.333205 
L 193.409663 299.262654 
L 196.224815 300.712253 
L 197.81318 301.871932 
L 199.375718 302.895178 
L 199.356347 303.313004 
L 195.992371 309.648604 
L 194.713931 313.229967 
L 194.539598 313.716009 
L 194.558968 314.372592 
L 197.025454 316.103583 
L 198.342635 316.632261 
L 202.952768 319.753162 
L 203.366001 320.213623 
L 205.193267 321.211288 
L 207.537074 322.686468 
L 213.044697 325.730626 
L 214.45873 326.293412 
L 214.891333 326.677129 
L 218.733111 328.75773 
L 222.122915 330.164694 
L 225.900124 331.85305 
L 226.939664 332.484052 
L 229.838753 333.566988 
L 230.342381 333.925124 
L 231.892006 335.366196 
L 232.408547 335.715806 
L 234.055023 336.602619 
L 237.212383 338.333611 
L 240.879828 340.064603 
L 243.159068 341.224282 
L 244.127583 342.290163 
L 244.766803 342.21342 
L 250.28734 345.172307 
L 254.916844 347.687788 
L 257.867587 349.7087 
L 259.372014 350.612567 
L 259.849815 351.021866 
L 261.321958 351.908679 
L 262.122598 352.437357 
L 262.787645 353.03425 
L 264.053172 353.895483 
L 265.286414 354.526485 
L 266.338868 354.910202 
L 269.722215 356.615613 
L 274.377545 358.568308 
L 274.990938 358.346604 
L 275.798034 356.70941 
L 276.353316 354.790823 
L 276.947339 353.912537 
L 277.496164 354.014861 
L 278.187039 354.330362 
L 278.755234 354.756715 
L 280.091786 355.52415 
L 282.177322 356.129571 
L 282.91985 356.683829 
L 283.688206 356.862897 
L 284.430734 357.51948 
L 284.785857 357.400102 
L 285.45736 357.391574 
L 285.031214 357.331885 
L 284.785857 357.732657 
L 284.708375 358.082266 
L 284.282229 358.687687 
L 284.534043 358.841173 
L 284.721289 358.167536 
L 284.630894 358.056685 
L 284.15955 357.834981 
L 281.931965 356.555923 
L 278.471137 355.08927 
L 278.057903 354.458268 
L 278.06436 354.006334 
L 278.187039 353.46913 
L 278.406569 353.051304 
L 279.588158 350.262958 
L 281.337942 346.954461 
L 282.099841 344.49867 
L 283.726946 342.520394 
L 285.179719 339.877007 
L 286.367765 337.353 
L 288.479128 333.848381 
L 292.695398 326.09729 
L 294.361245 322.839955 
L 295.045662 321.492681 
L 295.394328 321.057801 
L 296.317646 319.514405 
L 298.209479 315.813664 
L 298.015776 315.105918 
L 297.331358 314.509024 
L 295.000465 313.136169 
L 292.056178 311.882692 
L 288.99567 310.29666 
L 285.812483 308.44629 
L 284.256401 307.695909 
L 284.133723 307.474206 
L 284.443648 305.888174 
L 287.291083 300.857212 
L 287.930303 299.816912 
L 289.279768 296.730119 
L 289.609063 296.252604 
L 290.964984 293.720069 
L 291.145774 293.012324 
L 291.326563 290.906142 
L 290.4549 288.535621 
L 289.712371 287.009278 
L 289.073151 281.577545 
L 289.01504 279.24966 
L 288.989213 274.278388 
L 289.596149 272.342747 
L 289.893161 271.75438 
L 290.429073 270.372998 
L 292.056178 268.539681 
L 291.959327 268.22418 
L 290.603405 268.028058 
L 290.157888 267.874571 
L 288.685745 266.962176 
L 287.801168 266.271485 
L 287.562267 265.836605 
L 287.446045 265.367618 
L 287.691403 264.31879 
L 289.228114 261.411065 
L 289.570322 261.266105 
L 290.584035 261.666876 
L 291.868932 262.366095 
L 294.122344 263.125003 
L 294.380615 262.869191 
L 293.922184 262.357568 
L 293.063434 261.803309 
L 290.05458 260.140534 
L 286.884306 258.554502 
L 279.710836 254.615004 
L 277.44451 253.165405 
L 259.152484 242.830616 
L 257.815933 242.276358 
L 256.337333 241.321328 
L 253.961242 240.136067 
L 251.675546 238.601198 
L 250.978215 238.396549 
L 250.778055 238.541508 
L 250.532698 238.405076 
L 250.358365 237.953142 
L 249.273628 237.808182 
L 246.781315 236.571759 
L 244.676408 235.395026 
L 243.824115 234.74697 
L 241.21558 233.27179 
L 240.808804 233.450858 
L 240.466595 233.433804 
L 240.311632 233.237681 
L 237.722468 231.284986 
L 234.92023 229.801279 
L 230.671677 227.797422 
L 229.354496 226.927662 
L 228.528029 226.271079 
L 227.70802 225.989686 
L 223.517577 224.096681 
L 220.967153 222.843204 
L 220.489352 222.706771 
L 219.359417 221.495929 
L 219.262566 221.009887 
L 219.33359 220.515318 
L 219.817848 219.841681 
L 220.715339 218.153325 
L 221.21251 217.206822 
L 221.819446 216.294427 
L 222.316618 216.260319 
L 227.243132 218.733164 
L 231.833895 220.370358 
L 233.028397 221.069577 
L 234.274554 221.495929 
L 236.547336 222.39127 
L 238.129245 223.243975 
L 240.718409 224.258695 
L 241.945195 225.119927 
L 242.642526 225.136981 
L 242.991192 224.847061 
L 243.643325 223.772653 
L 244.786173 220.788184 
L 244.631211 220.421521 
L 243.811201 219.807573 
L 239.11713 217.564958 
L 238.710354 217.360309 
L 237.070334 216.771942 
L 236.366547 216.66109 
L 236.069535 216.490549 
L 235.843548 216.192102 
L 235.856462 215.953345 
L 236.373003 214.213826 
L 238.064677 211.092925 
L 238.452083 209.89061 
L 239.556191 207.375129 
L 240.253522 205.874368 
L 240.214781 205.558867 
L 240.001708 205.183677 
L 238.671613 203.981362 
L 236.624817 202.949589 
L 234.138961 201.534098 
L 231.446489 198.958928 
L 231.433575 198.165912 
L 231.582081 197.705451 
L 232.608707 196.298487 
L 233.338322 194.661293 
L 233.228557 193.936494 
L 231.207588 192.546584 
L 230.129308 191.992326 
L 229.780642 191.591554 
L 228.405351 189.766765 
L 227.210848 188.385382 
L 226.255247 187.66911 
L 224.78956 187.097797 
L 222.239136 186.611755 
L 221.051091 186.705553 
L 220.657228 186.347417 
L 220.360217 184.923399 
L 220.256908 183.013339 
L 220.366673 181.819551 
L 220.941326 177.30874 
L 221.896928 172.414212 
L 221.838817 171.859953 
L 221.296448 171.083991 
L 219.656429 170.794072 
L 216.705685 170.879342 
L 215.052753 171.561506 
L 211.223889 174.196366 
L 209.635524 175.569221 
L 206.587929 177.197889 
L 203.501593 177.999432 
L 200.15053 177.359903 
L 197.839007 175.995574 
L 196.405604 174.870003 
L 194.345895 173.045214 
L 193.073911 171.808791 
L 192.712332 171.646777 
L 192.279729 171.774683 
L 191.840668 172.039021 
L 191.007745 172.721186 
L 189.851984 173.463039 
L 183.427499 176.490143 
L 182.291107 177.22347 
L 181.193457 177.726566 
L 179.992498 177.880053 
L 177.42916 177.718039 
L 174.026443 175.901776 
L 173.070841 175.057598 
L 170.410653 173.096376 
L 170.404196 172.576226 
L 170.804515 171.450655 
L 173.568013 166.735194 
L 174.562355 164.441417 
L 175.375908 163.213521 
L 176.738286 160.203472 
L 180.709199 153.654695 
L 182.917414 150.175657 
L 195.624335 127.561912 
L 199.246582 120.876703 
L 199.575878 120.416242 
L 200.105333 120.16043 
L 202.849459 119.708497 
L 204.399084 120.313917 
L 209.42245 123.076683 
L 210.817112 124.116983 
L 213.729115 125.856502 
L 226.971948 132.695198 
L 235.469056 137.265699 
L 237.748295 138.118404 
L 238.135701 138.024607 
L 239.000908 137.282753 
L 243.527103 128.687484 
L 243.391511 127.732454 
L 242.939537 127.442534 
L 237.380259 125.003797 
L 234.371405 122.79529 
L 230.697504 120.45035 
L 225.680594 117.78991 
L 225.64831 117.534098 
L 227.779044 113.603127 
L 228.534486 112.443447 
L 229.477174 110.499279 
L 230.516714 108.683017 
L 230.891207 107.796203 
L 231.562711 107.301634 
L 231.840352 106.926444 
L 235.585278 100.019531 
L 236.211584 99.866044 
L 236.515052 100.181545 
L 236.385917 101.605563 
L 236.883088 103.728799 
L 236.81852 105.528007 
L 236.77978 108.96441 
L 236.611904 108.921774 
L 236.256782 108.461314 
L 236.011424 107.608608 
L 236.482769 107.05435 
L 236.521509 106.747376 
L 236.495682 105.340412 
L 236.973483 105.024911 
L 238.342318 105.314831 
L 239.866115 106.133428 
L 240.402027 106.269861 
L 243.449622 107.600081 
L 249.518985 110.772145 
L 250.66829 111.496944 
L 252.282482 111.982986 
L 252.953986 111.872135 
L 253.748169 110.917105 
L 255.181571 107.796203 
L 256.298592 106.031103 
L 259.023349 100.471465 
L 259.733593 99.542016 
L 261.483378 96.557547 
L 262.348585 95.65368 
L 262.367955 95.36376 
L 261.515661 94.84361 
L 259.901469 94.314932 
L 257.996722 93.291686 
L 255.000782 91.731235 
L 251.824051 89.83823 
L 247.033129 87.356857 
L 243.598128 85.856096 
L 242.029133 84.730525 
L 236.889545 82.018922 
L 235.514253 81.345285 
L 235.262439 81.089473 
L 235.023539 80.43289 
L 235.152674 77.354624 
L 235.159131 76.638351 
L 235.204328 77.064704 
L 235.255982 79.077089 
L 234.894403 80.049173 
L 234.190616 80.236768 
L 233.758012 80.040646 
L 232.770126 79.742199 
L 231.872636 79.290265 
L 228.528029 77.388732 
L 224.77019 75.478672 
L 217.099548 70.848482 
L 216.189144 70.473292 
L 215.524097 69.961669 
L 215.046296 69.279505 
L 213.61935 68.784936 
L 212.696032 68.239204 
L 210.177892 67.224485 
L 206.542731 65.229154 
L 205.858314 64.564044 
L 205.851857 64.205908 
L 206.290917 63.779555 
L 207.220692 63.489636 
L 207.498333 63.191189 
L 208.402281 61.511359 
L 209.080241 59.925327 
L 209.409537 59.405177 
L 212.173034 54.561811 
L 212.928476 54.178094 
L 214.2392 54.698244 
L 220.101946 57.878835 
L 221.638657 58.885027 
L 227.856525 62.176469 
L 232.615164 65.177992 
L 233.267298 65.698142 
L 234.216443 65.928373 
L 236.631274 67.377972 
L 243.501276 71.146929 
L 247.058956 73.167841 
L 252.004841 75.94766 
L 253.257454 76.689514 
L 262.103227 81.268541 
L 267.836838 84.858431 
L 268.269442 85.301837 
L 268.966773 85.549122 
L 270.238756 86.265394 
L 272.395317 87.339803 
L 273.415487 87.72352 
L 276.837574 89.573891 
L 278.316174 90.059933 
L 278.639013 89.940554 
L 279.187838 89.471566 
L 282.784258 83.067749 
L 283.358911 81.754583 
L 284.456561 79.91274 
L 285.65752 77.789504 
L 286.813282 75.393402 
L 290.222456 69.739965 
L 289.886704 69.560897 
L 289.383076 69.680276 
L 288.847164 70.208953 
L 288.517869 71.019023 
L 286.91659 74.174033 
L 283.061899 81.080946 
L 282.519531 81.831327 
L 281.092585 84.33828 
L 280.789117 84.6282 
L 280.40171 84.764633 
L 279.497763 84.508821 
L 278.187039 83.749914 
L 278.199952 83.869292 
L 278.342001 84.056888 
L 278.303261 83.920455 
L 278.361371 83.852238 
L 280.169267 84.704944 
L 280.433994 84.611146 
L 278.845629 84.048361 
L 278.316174 83.67317 
L 278.910197 84.159212 
L 278.735864 84.056888 
L 274.241953 81.601096 
L 271.859405 80.185606 
L 270.4712 79.673982 
L 269.489771 78.81275 
L 257.486638 72.144594 
L 256.14363 71.266308 
L 253.076665 69.731438 
L 251.888619 69.262451 
L 250.726401 68.65703 
L 249.62875 67.940757 
L 248.36968 67.318282 
L 247.743373 66.866349 
L 231.117194 57.648604 
L 230.691047 57.307522 
L 224.724992 53.768795 
L 224.453808 53.069577 
L 224.98972 51.747883 
L 226.377925 49.232403 
L 226.681393 48.891321 
L 227.617625 48.652563 
L 228.424721 49.027754 
L 232.770126 51.679667 
L 233.544939 51.799046 
L 240.079189 55.354827 
L 241.557789 56.216059 
L 245.238147 58.279606 
L 246.226033 58.697432 
L 247.652979 59.422231 
L 248.795827 60.215247 
L 253.192886 62.628403 
L 254.787708 63.165608 
L 258.513264 65.348533 
L 263.168594 67.804324 
L 266.242016 69.680276 
L 270.458286 72.076378 
L 271.54948 72.715907 
L 272.58902 73.022881 
L 272.821464 72.963192 
L 273.234697 72.47715 
L 275.061963 68.767881 
L 275.197555 68.273312 
L 275.281493 68.477962 
L 274.48731 70.268643 
L 273.557535 72.528312 
L 273.62856 73.500396 
L 274.519594 74.481007 
L 275.184641 75.103482 
L 276.469538 75.939133 
L 281.454164 78.505776 
L 282.125668 78.906548 
L 283.281429 79.230576 
L 284.249945 79.196467 
L 284.463018 79.324373 
L 284.682548 79.725145 
L 285.031214 79.324373 
L 286.212802 76.493392 
L 286.225716 75.725957 
L 286.419419 74.719764 
L 286.361308 74.361628 
L 285.902878 73.636829 
L 285.095781 73.039935 
L 284.314512 72.698853 
L 280.634154 70.79732 
L 277.683411 69.194234 
L 275.991737 68.708192 
L 271.781924 66.005116 
L 268.934489 64.598152 
L 266.287214 62.960958 
L 258.803819 58.646269 
L 256.324419 57.426901 
L 253.696514 55.883504 
L 244.13404 50.511461 
L 240.854001 48.464968 
L 237.257581 46.930098 
L 234.339121 45.352594 
L 232.789497 44.107644 
L 231.769327 43.289047 
L 230.155135 42.70068 
L 221.535349 37.635611 
L 221.709681 36.774378 
L 223.71128 33.193016 
L 224.001834 32.954258 
L 224.440895 32.843407 
L 224.98972 32.988367 
L 230.458603 36.032525 
L 231.097823 36.654999 
L 231.917833 37.26042 
L 232.36335 37.379799 
L 233.189816 37.430961 
L 233.906518 36.987555 
L 234.352035 36.296863 
L 235.449685 34.293006 
L 235.972684 32.945731 
L 235.772524 32.724028 
L 235.28181 33.738747 
L 234.339121 36.262755 
L 233.596593 37.567394 
L 233.357692 38.616222 
L 233.318952 41.762704 
L 233.493285 44.551051 
L 233.874234 47.62079 
L 234.24227 50.963395 
L 233.983999 51.202152 
L 232.750756 51.116882 
L 230.122851 49.667283 
L 229.40615 49.138605 
L 227.436835 48.038615 
L 227.404551 47.680479 
L 227.52723 47.399086 
L 228.063142 46.597543 
L 229.115595 44.448726 
L 230.310097 42.70068 
L 232.724929 38.010801 
L 232.537683 38.061963 
L 232.415004 38.223977 
L 230.871836 41.413095 
L 230.949318 41.754177 
L 230.917034 41.685961 
L 231.291526 40.432484 
L 232.169647 38.479789 
L 231.756414 37.507705 
L 230.781442 36.817014 
L 228.921892 35.401523 
L 227.533687 34.045721 
L 225.913038 33.090691 
L 225.138226 32.502325 
L 225.202793 32.4 
L 227.185021 33.824018 
L 229.044571 34.54029 
L 229.980802 35.256563 
L 231.678932 36.689108 
L 232.046968 36.944919 
L 234.532824 38.368937 
L 241.874171 42.70068 
L 243.378598 43.399898 
L 244.450421 44.261131 
L 244.340656 43.834778 
L 244.140496 43.65571 
L 243.249462 43.195249 
L 243.636868 43.237884 
L 244.489162 44.013846 
L 245.980676 45.156471 
L 246.561785 45.352594 
L 249.254257 46.725449 
L 251.662632 48.14094 
L 253.276824 49.266511 
L 254.690857 49.897513 
L 257.757822 51.52618 
L 258.939411 52.310669 
L 260.501949 52.890509 
L 260.850614 53.308334 
L 262.006376 53.768795 
L 262.813472 54.331581 
L 264.530973 55.295138 
L 266.480917 56.216059 
L 269.315438 58.1517 
L 271.652789 59.132311 
L 272.56965 59.746259 
L 275.869059 61.571049 
L 276.992536 62.074145 
L 278.593815 62.585768 
L 279.007048 62.500497 
L 279.265319 62.790417 
L 279.665639 65.664034 
L 280.38234 66.277982 
L 280.80203 66.491158 
L 282.668036 67.130687 
L 283.429935 67.710527 
L 285.21846 68.443853 
L 288.414561 69.339194 
L 291.539637 71.001969 
L 302.180392 75.973241 
L 310.154501 80.219714 
L 311.826805 80.961567 
L 313.563675 82.129774 
L 316.275518 83.792549 
L 317.779945 84.432078 
L 323.287569 87.280114 
L 324.133406 87.877007 
L 331.11963 91.782398 
L 331.242309 91.807979 
L 332.055861 92.362237 
L 341.101795 97.845132 
L 341.444003 98.211796 
L 342.444803 98.586986 
L 345.699014 100.531154 
L 347.132417 101.494711 
L 349.405199 102.398579 
L 350.586788 103.225703 
L 353.066187 104.683829 
L 353.87974 105.178398 
L 355.51976 105.690021 
L 355.306686 106.431875 
L 353.427766 110.260522 
L 352.517362 110.865943 
L 352.504449 111.053538 
L 352.594843 110.797726 
L 352.78209 110.593077 
L 352.78209 110.593077 
L 353.537532 110.968267 
L 354.467306 111.582215 
L 354.93865 111.693067 
L 355.054872 111.923297 
L 354.635182 112.63957 
L 354.376912 112.72484 
L 354.125098 112.571353 
L 353.705408 111.957405 
L 353.117842 111.39462 
L 351.774834 110.755091 
L 350.50285 109.91944 
L 350.050876 109.689209 
L 348.753066 108.90472 
L 347.74581 108.521003 
L 346.157445 107.497757 
L 344.491598 107.13962 
L 341.269671 105.118709 
L 340.481945 104.496234 
L 338.809642 103.711745 
L 338.661136 103.788488 
L 338.099397 103.566785 
L 336.582056 102.56912 
L 330.273793 98.842798 
L 328.033294 97.248239 
L 327.613605 96.881575 
L 325.934845 95.952127 
L 320.737146 93.249051 
L 314.067303 89.352188 
L 308.353063 86.205705 
L 307.591164 86.10338 
L 307.384548 86.265394 
L 305.44106 89.411877 
L 304.885778 90.537448 
L 305.014913 91.151396 
L 306.26107 91.995574 
L 310.483797 94.306405 
L 313.350602 95.781586 
L 314.706524 96.659872 
L 315.875199 97.657537 
L 318.47082 99.41411 
L 320.782343 101.128048 
L 322.370708 102.117186 
L 323.552297 103.310974 
L 325.941301 104.010192 
L 331.597431 106.372186 
L 332.372243 107.05435 
L 333.586116 107.352797 
L 334.322187 107.787676 
L 334.612742 107.813258 
L 335.084086 108.077596 
L 335.3359 108.691544 
L 336.181737 108.887666 
L 340.049341 110.81478 
L 343.852378 113.108558 
L 346.764381 114.609319 
L 348.100932 115.555822 
L 349.502051 116.016283 
L 350.644899 116.638757 
L 352.588387 118.190681 
L 352.956422 118.156573 
L 352.911225 117.815491 
L 352.58193 117.576733 
L 351.78129 117.696112 
L 351.10333 117.423246 
L 351.045219 116.783717 
L 351.180811 116.331784 
L 351.581131 115.453497 
L 351.677982 114.626373 
L 351.619871 114.063587 
L 351.193724 114.097696 
L 350.076703 115.419389 
L 347.487539 120.390661 
L 346.312407 122.010801 
L 346.325321 122.258085 
L 346.964541 122.488316 
L 348.339833 123.068156 
L 348.494795 122.974358 
L 348.223611 122.599168 
L 344.536796 120.748797 
L 339.468232 117.841072 
L 338.228533 117.363557 
L 336.059058 115.743417 
L 334.632112 114.302345 
L 333.844386 114.11475 
L 332.953352 114.157385 
L 332.604687 114.089169 
L 330.738681 112.503137 
L 329.615203 111.658958 
L 327.626518 110.558969 
L 321.731488 107.293107 
L 314.945424 103.967557 
L 313.008393 102.697026 
L 312.272322 102.270673 
L 311.245695 101.426495 
L 305.079481 98.254431 
L 304.16262 97.828078 
L 302.180392 96.719561 
L 301.386209 96.762197 
L 300.740532 97.444361 
L 300.069028 98.868379 
L 299.139254 100.778439 
L 299.081143 101.579982 
L 299.54603 102.236565 
L 299.98509 102.526485 
L 305.318382 105.255142 
L 308.520939 107.182256 
L 309.379689 108.162867 
L 309.696071 108.248137 
L 318.012389 112.57988 
L 319.407051 113.151193 
L 322.299684 115.282956 
L 325.147119 116.877515 
L 325.986499 117.457355 
L 334.929124 122.096071 
L 336.226934 122.803817 
L 338.002546 123.562725 
L 340.701475 125.072013 
L 343.206701 126.385179 
L 343.742613 126.55572 
L 344.995226 127.144087 
L 349.786149 129.949487 
L 356.727175 133.786661 
L 359.432562 135.372693 
L 361.976528 137.223064 
L 367.826361 140.582723 
L 373.146739 143.157893 
L 378.880349 146.526079 
L 381.140219 147.609014 
L 382.386375 148.265597 
L 383.748753 148.811329 
L 384.639787 148.538463 
L 385.21444 147.788082 
L 385.550192 146.304375 
L 385.563105 144.6416 
L 385.195069 141.05171 
L 384.271751 136.575008 
L 383.283866 134.102162 
L 383.012682 132.567293 
L 380.410604 124.730931 
L 379.752013 123.613887 
L 378.867436 122.820871 
L 375.7811 121.038717 
L 371.829558 119.230982 
L 371.216165 119.094549 
L 370.26702 119.230982 
L 369.363072 119.512374 
L 368.136286 120.544148 
L 367.781164 120.36508 
L 367.54872 119.623226 
L 367.632658 119.256563 
L 368.078175 118.369749 
L 368.465581 117.858126 
L 369.479294 117.866653 
L 370.602772 118.429439 
L 373.960292 120.441823 
L 374.328327 120.535621 
L 374.212106 120.492985 
L 373.437293 120.177485 
L 372.333186 119.606172 
L 370.363871 118.45502 
L 369.918354 117.542625 
L 370.228279 115.052726 
L 370.137884 114.6349 
L 369.931268 114.293818 
L 368.213767 113.321734 
L 366.754537 112.613988 
L 363.545523 110.593077 
L 360.104066 108.938829 
L 358.154121 107.762095 
L 357.65695 107.028769 
L 357.379309 106.24428 
L 357.075841 106.150482 
L 356.449534 106.448929 
L 356.307485 106.542727 
L 356.075042 107.190783 
L 356.036301 107.727987 
L 355.842598 108.845031 
L 354.325257 112.119419 
L 353.111385 114.302345 
L 349.308348 121.166623 
L 347.113047 125.506893 
L 346.912887 126.436341 
L 347.093676 127.408426 
L 347.668329 128.414618 
L 348.539992 129.113836 
L 359.238858 134.537042 
L 359.639178 134.613785 
L 359.962017 134.42619 
L 360.207374 134.144797 
L 361.169432 132.089778 
L 362.654489 129.19058 
L 362.738427 128.585159 
L 362.764254 128.627794 
L 362.796538 128.960349 
L 361.447073 131.458776 
L 359.839338 135.074246 
L 359.213031 136.293615 
L 363.668202 138.485068 
L 366.773908 140.30133 
L 372.068458 142.612161 
L 373.153195 143.140838 
L 373.540602 143.9168 
L 373.450207 144.880357 
L 373.282331 145.323764 
L 372.630197 146.585768 
L 371.719793 149.391168 
L 371.229078 149.655507 
L 370.602772 149.399695 
L 369.782762 148.811329 
L 366.670599 146.943904 
L 362.402675 144.49664 
L 358.089554 141.878835 
L 356.869224 141.40132 
L 356.436621 141.418374 
L 355.506846 140.582723 
L 354.880539 139.951721 
L 354.086357 139.465679 
L 351.749007 138.382743 
L 348.4044 136.540899 
L 344.943572 134.801381 
L 341.45046 132.831631 
L 340.656278 132.533184 
L 340.339896 132.703726 
L 339.849182 133.462633 
L 339.7717 134.306811 
L 339.138937 136.182763 
L 338.396409 137.00136 
L 336.091342 141.563334 
L 332.017121 148.964816 
L 331.687826 149.399695 
L 330.732224 151.309755 
L 330.286707 152.315948 
L 329.318191 155.215146 
L 328.452984 156.724434 
L 327.264939 158.336047 
L 320.653208 171.169262 
L 319.93005 172.516536 
L 319.148781 173.770013 
L 316.901825 177.982377 
L 310.180329 190.491564 
L 308.269125 193.552776 
L 307.061709 195.121754 
L 306.616192 195.991514 
L 305.828466 197.031814 
L 304.253015 200.459689 
L 302.890636 202.941062 
L 300.495175 207.068156 
L 298.493577 211.024708 
L 296.511349 214.657233 
L 294.387072 218.221541 
L 290.655059 225.972632 
L 289.318508 228.488113 
L 287.95613 231.020648 
L 287.155491 232.146219 
L 284.437191 237.17718 
L 276.844031 250.556126 
L 272.524452 258.341326 
L 269.941745 262.340514 
L 268.902205 264.267628 
L 264.111283 274.03963 
L 263.284816 274.875282 
L 262.484177 274.397767 
L 260.844158 273.067546 
L 259.410755 272.197787 
L 258.732794 271.583839 
L 258.293734 271.37919 
L 256.066149 270.509431 
L 255.685199 270.100132 
L 254.587548 269.656725 
L 251.836965 267.695503 
L 250.093637 266.638148 
L 249.086381 266.561405 
L 245.186493 264.523439 
L 242.87497 263.07384 
L 242.306774 262.792447 
L 241.325345 262.664542 
L 240.983136 262.707177 
L 240.253522 262.485474 
L 239.808004 262.127337 
L 239.808004 262.127337 
L 239.368944 261.939742 
L 240.227694 262.417257 
L 240.886285 262.749812 
L 239.478709 261.854472 
L 237.63853 260.328129 
L 236.37946 259.705654 
L 234.313294 258.980855 
L 232.854064 258.29869 
L 228.708819 255.476236 
L 225.996976 253.677028 
L 222.394099 251.570846 
L 215.691973 248.032119 
L 211.979331 246.08795 
L 209.796943 245.022069 
L 208.279602 244.024404 
L 207.717863 243.86239 
L 207.136754 243.905025 
L 206.116584 244.399594 
L 204.941453 246.2926 
L 203.837345 248.356147 
L 202.177955 252.167739 
L 201.577476 253.310364 
L 200.673528 254.589422 
L 199.859975 256.397158 
L 194.423376 266.527297 
L 193.377379 268.164491 
L 191.730903 271.259811 
L 189.212764 276.75976 
L 187.236992 280.400812 
L 185.751935 282.464359 
L 184.176484 285.662004 
L 183.48561 286.847264 
L 182.949698 287.333306 
L 182.717254 287.41005 
L 181.981182 287.938727 
L 181.128889 289.610029 
L 179.456586 292.287524 
L 177.513098 296.107644 
L 176.111979 298.529327 
L 174.349282 302.042473 
L 172.819027 304.617643 
L 172.179807 306.885839 
L 170.778688 309.998213 
L 167.221009 316.470247 
L 166.575332 318.056279 
L 165.251694 320.614394 
L 164.315463 321.722911 
L 163.140331 323.75235 
L 160.919202 327.367821 
L 159.556824 329.397259 
L 157.736015 332.816607 
L 155.857095 336.227429 
L 151.866812 343.782398 
L 149.548832 347.696315 
L 148.083146 350.51877 
L 146.778878 352.411775 
L 145.920128 354.245092 
L 145.384216 354.731134 
L 144.028295 357.221033 
L 142.310794 360.196975 
L 140.838651 362.533387 
L 139.999271 364.477556 
L 137.474674 369.772856 
L 136.912936 371.137184 
L 135.28583 374.36041 
L 132.231778 379.203776 
L 131.495707 380.508415 
L 128.461025 385.488214 
L 127.421485 386.690529 
L 125.955799 389.376551 
L 125.665244 390.109877 
L 124.851691 391.764125 
L 123.05671 394.714486 
L 118.892094 402.738443 
L 116.96152 406.063994 
L 115.334414 409.065516 
L 113.881641 411.57247 
L 113.629827 412.101147 
L 111.376415 415.324373 
L 110.491837 417.515826 
L 108.664572 421.591757 
L 108.709769 421.489433 
L 108.445042 420.977809 
L 108.238425 419.954563 
L 108.038265 419.894874 
L 107.6896 420.159212 
L 107.48944 420.039834 
L 107.48944 420.039834 
L 107.70897 418.539072 
L 107.844562 418.334423 
L 107.805821 418.462329 
L 104.344993 425.872338 
L 101.297398 431.346706 
L 100.580697 434.552878 
L 99.973761 436.249761 
L 94.67921 447.121754 
L 94.123928 449.006233 
L 93.775263 449.739559 
L 93.019821 450.336453 
L 93.039191 450.327926 
L 92.839031 451.265902 
L 92.94234 452.493798 
L 92.464539 453.542625 
L 92.180441 454.079829 
L 91.457283 455.682915 
L 90.88263 456.527094 
L 90.64373 457.92553 
L 89.881831 459.792955 
L 89.087648 460.85031 
L 88.274096 462.334017 
L 88.035195 463.041762 
L 86.995655 465.591351 
L 86.156275 466.282042 
L 85.684931 467.774277 
L 85.426661 468.916902 
L 84.897205 469.820769 
L 83.94806 471.986641 
L 81.714018 473.410659 
L 80.57117 475.218394 
L 80.190221 475.57653 
L 79.486433 476.625358 
L 79.028003 477.725348 
L 78.350042 478.81681 
L 76.012692 480.803614 
L 75.063546 482.210578 
L 74.83756 482.747782 
L 74.611573 484.018313 
L 74.243537 485.075667 
L 72.952183 487.864014 
L 72.222568 490.183372 
L 69.007097 495.291077 
L 67.392905 497.098812 
L 66.153205 499.008872 
L 65.307369 500.978621 
L 64.603581 502.266206 
L 63.50593 504.798741 
L 62.970018 506.111907 
L 62.421193 506.725855 
L 60.800544 509.394823 
L 58.63107 511.262247 
L 57.565703 512.618049 
L 56.984594 513.862999 
L 56.610101 515.244381 
L 56.33246 515.841275 
L 56.209781 516.523439 
L 55.422056 517.597848 
L 54.879687 519.115663 
L 53.433371 520.241234 
L 51.767524 520.735803 
L 51.005626 521.673779 
L 49.920888 524.035773 
L 49.527026 525.221033 
L 48.584337 526.969079 
L 48.177561 528.665963 
L 48.041969 529.825642 
L 48.203388 530.286103 
L 47.473773 530.755091 
L 47.312354 531.411674 
L 46.873294 532.119419 
L 46.356752 533.509329 
L 44.884609 536.357365 
L 43.838612 536.212405 
L 43.309157 535.658146 
L 39.228479 533.125612 
L 33.688571 529.211694 
L 30.45373 527.668298 
L 30.21483 527.821785 
L 29.885535 527.710933 
L 28.529613 527.028769 
L 26.85731 526.551254 
L 25.217291 526.321023 
L 25.391623 526.210172 
L 25.436821 525.101655 
L 25.585327 524.513288 
L 27.25763 521.349751 
L 30.085694 514.511055 
L 31.015469 511.236666 
L 31.628862 510.06846 
L 32.048552 509.676216 
L 32.11312 509.02816 
L 32.390761 508.149873 
L 35.173628 504.287118 
L 35.838676 502.530545 
L 36.232538 501.319704 
L 36.975067 498.14764 
L 39.144541 493.653883 
L 40.313216 492.101959 
L 40.681252 490.967861 
L 42.928208 486.405888 
L 44.774844 483.65165 
L 45.084769 482.969485 
L 45.530286 480.616019 
L 45.472175 476.830007 
L 45.213904 475.789707 
L 44.36161 471.833154 
L 44.032315 469.496741 
L 44.006488 467.689006 
L 43.709477 464.406091 
L 42.605369 461.199919 
L 42.850727 460.398376 
L 44.484289 459.17048 
L 45.743359 455.691442 
L 45.439891 453.534098 
L 44.716733 451.393808 
L 44.238932 448.008568 
L 44.471376 446.652766 
L 45.052485 442.90939 
L 48.029055 440.266003 
L 53.949912 439.498569 
L 54.750552 439.225703 
L 55.189612 438.841986 
L 56.138757 438.185402 
L 56.816718 438.492376 
L 62.653637 436.590844 
L 63.331597 435.908679 
L 63.744831 434.945122 
L 64.810198 434.407918 
L 66.02407 433.145914 
L 66.553525 430.562217 
L 66.999042 430.007959 
L 69.187887 429.556025 
L 71.118461 426.716516 
L 73.481638 425.684743 
L 75.728594 422.487098 
L 76.419468 421.318891 
L 77.265305 420.363862 
L 78.43398 419.545264 
L 79.964234 416.995676 
L 81.720475 415.298792 
L 82.876237 415.563131 
L 83.05057 415.793361 
L 83.134508 416.228241 
L 83.328211 416.313511 
L 83.328211 415.980956 
L 82.882694 414.949183 
L 82.411349 414.454614 
L 81.449291 413.763922 
L 78.63414 412.126728 
L 76.864985 411.248442 
L 73.546206 409.909694 
L 71.906187 409.150787 
L 67.425189 406.558563 
L 66.572895 406.166318 
L 65.610837 405.859344 
L 64.035385 405.211288 
L 57.888541 401.732251 
L 52.193671 399.105918 
L 51.580278 398.764836 
L 50.469714 397.801279 
L 49.539939 396.58191 
L 48.11945 394.023795 
L 47.441489 393.222252 
L 45.659421 392.164897 
L 45.188077 391.423043 
L 45.375323 391.013745 
L 45.252645 389.999025 
L 44.710276 383.535519 
L 44.949176 382.247934 
L 45.091225 380.286712 
L 45.039571 376.892945 
L 45.627137 371.094549 
L 45.517372 369.372084 
L 45.20099 367.078307 
L 45.213904 365.662816 
L 44.658622 362.738037 
L 44.548857 361.228748 
L 44.891066 357.817927 
L 44.74256 355.310974 
L 44.219562 350.612567 
L 44.174364 347.858329 
L 44.658622 346.076175 
L 44.716733 344.737428 
L 44.613424 342.528921 
L 44.716733 341.215755 
L 45.117052 338.197178 
L 45.071855 336.696417 
L 45.426977 335.204182 
L 45.491545 333.891016 
L 45.969346 332.697229 
L 46.04037 331.281738 
L 45.969346 329.806558 
L 46.808726 326.728292 
L 46.918491 325.321328 
L 46.744158 323.198092 
L 46.524628 319.12216 
L 46.983059 317.160938 
L 47.105737 315.310567 
L 46.808726 313.008263 
L 47.002429 310.944716 
L 46.918491 309.520698 
L 47.073453 307.184286 
L 46.673134 305.20601 
L 46.66022 303.253314 
L 47.047626 301.718445 
L 48.526226 298.580489 
L 48.855522 297.463445 
L 49.139619 296.951822 
L 50.547195 295.672764 
L 54.337318 292.730931 
L 55.796548 289.780571 
L 57.404284 287.759659 
L 59.024933 285.337976 
L 59.425252 284.246513 
L 60.426051 281.96979 
L 62.459934 278.482225 
L 64.003101 276.435732 
L 64.267829 275.796203 
L 67.573695 268.360613 
L 69.691515 265.7087 
L 70.42113 263.551355 
L 72.661628 258.673881 
L 73.055491 258.111095 
L 74.385586 256.644442 
L 75.07646 256.098711 
L 78.563115 250.760776 
L 79.002176 250.317369 
L 79.396038 249.67784 
L 79.951321 248.552269 
L 81.533229 245.618963 
L 82.346782 244.979434 
L 82.714818 244.928271 
L 83.52837 245.218191 
L 84.677675 246.045315 
L 86.259584 246.855385 
L 86.782582 247.511968 
L 86.64699 247.3329 
L 86.698644 247.136778 
L 86.698644 247.136778 
" clip-path="url(#p5aa6e60174)" style="fill: none; stroke: #000000; stroke-width: 3"/>
   </g>
  </g>
 </g>
 <defs>
  <clipPath id="p5aa6e60174">
   <rect x="7.2" y="7.2" width="396.380396" height="554.4"/>
  </clipPath>
 </defs>
</svg>
