<?xml version="1.0" encoding="utf-8" standalone="no"?>
<!DOCTYPE svg PUBLIC "-//W3C//DTD SVG 1.1//EN"
  "http://www.w3.org/Graphics/SVG/1.1/DTD/svg11.dtd">
<svg xmlns:xlink="http://www.w3.org/1999/xlink" width="307.170442pt" height="568.8pt" viewBox="0 0 307.170442 568.8" xmlns="http://www.w3.org/2000/svg" version="1.1">
 <metadata>
  <rdf:RDF xmlns:dc="http://purl.org/dc/elements/1.1/" xmlns:cc="http://creativecommons.org/ns#" xmlns:rdf="http://www.w3.org/1999/02/22-rdf-syntax-ns#">
   <cc:Work>
    <dc:type rdf:resource="http://purl.org/dc/dcmitype/StillImage"/>
    <dc:date>2022-05-21T05:03:34.681585</dc:date>
    <dc:format>image/svg+xml</dc:format>
    <dc:creator>
     <cc:Agent>
      <dc:title>Matplotlib v3.5.2, https://matplotlib.org/</dc:title>
     </cc:Agent>
    </dc:creator>
   </cc:Work>
  </rdf:RDF>
 </metadata>
 <defs>
  <style type="text/css">*{stroke-linejoin: round; stroke-linecap: butt}</style>
 </defs>
 <g id="figure_1">
  <g id="patch_1">
   <path d="M 0 568.8 
L 307.170442 568.8 
L 307.170442 0 
L 0 0 
z
" style="fill: #ffffff"/>
  </g>
  <g id="axes_1">
   <g id="LineCollection_1">
    <path d="M 195.625852 47.876496 
L 199.044193 50.296742 
L 201.154646 52.56 
L 201.610425 52.808566 
L 201.907672 53.174873 
L 202.135561 53.842077 
L 202.938128 54.496197 
L 204.008217 54.692433 
L 205.543993 53.685088 
L 205.910598 53.148709 
L 206.633899 51.552654 
L 207.743621 49.485633 
L 208.674995 48.138144 
L 209.368571 47.366282 
L 210.081964 47.143881 
L 210.894439 47.24854 
L 212.677921 48.164309 
L 216.601581 49.90427 
L 223.240097 52.455341 
L 225.301009 53.580428 
L 227.223206 55.045659 
L 230.235309 57.49207 
L 235.853277 61.272888 
L 238.984279 62.672706 
L 242.382802 63.693134 
L 244.572522 64.517326 
L 246.673067 65.45926 
L 256.026439 69.30549 
L 260.871565 72.131291 
L 262.645138 73.518027 
L 264.161098 75.336483 
L 265.815773 79.810668 
L 267.420906 87.306892 
L 269.422369 92.304374 
L 272.771352 97.48501 
L 277.239965 99.604361 
L 281.173533 105.975496 
L 283.383069 108.343413 
L 285.463798 110.802907 
L 286.662694 113.131577 
L 286.623061 113.916522 
L 286.315906 114.93695 
L 283.640683 120.117586 
L 282.729126 121.71364 
L 281.421239 122.982635 
L 280.499774 124.500195 
L 277.745285 129.772408 
L 273.296488 137.818092 
L 271.552639 140.552317 
L 269.481819 144.68636 
L 268.005492 148.571836 
L 265.132105 155.466269 
L 261.892113 159.796548 
L 260.405878 162.766256 
L 257.36405 167.358183 
L 254.669011 171.819286 
L 253.460207 173.271434 
L 252.221677 175.024478 
L 250.081499 178.622141 
L 247.118938 184.14292 
L 245.731785 187.531265 
L 245.285915 189.624452 
L 244.562614 191.390578 
L 242.640416 194.595769 
L 242.263904 195.655445 
L 241.540603 194.674263 
L 237.934006 203.583387 
L 237.656575 204.551486 
L 234.763371 208.947177 
L 232.47457 215.30523 
L 232.028699 216.194835 
L 229.700265 220.302713 
L 229.274211 220.72135 
L 229.274211 220.72135 
L 226.321557 223.233173 
L 224.468718 229.630474 
L 224.032755 230.572408 
L 222.427622 233.018819 
L 220.951295 236.197846 
L 218.127449 240.868267 
L 216.016995 244.400519 
L 214.887457 246.755354 
L 213.718285 248.41682 
L 212.350949 249.842803 
L 211.677189 250.091369 
L 210.002698 251.425775 
L 208.47683 254.251577 
L 206.643807 260.361064 
L 205.821424 261.473069 
L 205.33592 261.525399 
L 205.33592 261.525399 
L 205.137756 262.676652 
L 204.55317 263.540091 
L 203.413723 266.208903 
L 200.332263 271.546528 
L 199.173 271.507281 
L 197.666948 275.209604 
L 196.319429 277.551356 
L 193.941453 283.202959 
L 189.928618 289.731084 
L 188.818896 291.863517 
L 187.887523 294.244517 
L 187.203854 295.448099 
L 185.82661 298.627125 
L 184.132302 301.400597 
L 183.052305 303.009734 
L 181.972308 304.658118 
L 181.457079 305.717794 
L 178.732315 310.231226 
L 175.977827 313.724231 
L 174.887921 315.45111 
L 172.301872 319.19268 
L 171.737103 320.239273 
L 171.003894 322.123141 
L 168.051241 326.872057 
L 165.891246 331.882622 
L 165.336385 332.837638 
L 161.610889 340.451603 
L 155.309253 351.820221 
L 153.13935 354.920753 
L 152.822287 356.438313 
L 152.505223 357.223258 
L 151.633299 358.832395 
L 149.037342 362.050668 
L 143.974235 369.847787 
L 141.81424 376.153511 
L 141.616076 377.108527 
L 140.922499 378.835406 
L 139.624521 381.020169 
L 139.356999 381.792031 
L 138.28691 384.146866 
L 136.77095 388.607969 
L 134.244351 391.590759 
L 133.18417 393.226061 
L 132.896831 393.76244 
L 132.232979 394.717456 
L 131.291697 395.724802 
L 130.796286 397.12462 
L 129.983811 398.472109 
L 127.903082 400.277482 
L 126.763635 400.853108 
L 126.476296 400.656872 
L 126.139416 400.853108 
L 123.771349 406.871019 
L 123.067864 409.0427 
L 121.215025 413.961687 
L 119.094663 418.52745 
L 117.70751 420.149669 
L 116.251 422.255938 
L 115.171003 423.224036 
L 114.001831 426.324568 
L 113.219081 426.900195 
L 112.485872 427.645892 
L 111.831928 429.071875 
L 106.501299 439.276158 
L 102.002961 446.942453 
L 101.547183 447.897469 
L 99.753793 450.461622 
L 97.365908 453.352836 
L 94.968116 456.84584 
L 94.324081 458.952109 
L 93.501698 460.469669 
L 90.043725 466.212849 
L 87.903546 470.490798 
L 83.365576 477.699208 
L 81.106499 484.632888 
L 78.926687 488.649189 
L 78.332193 490.127502 
L 77.331462 492.076781 
L 76.647794 493.80366 
L 76.568528 494.470863 
L 75.637154 494.693264 
L 75.597521 494.8895 
L 74.785046 496.393978 
L 73.814039 497.21817 
L 72.763767 498.277846 
L 71.683769 500.318702 
L 70.603772 502.320311 
L 70.029094 502.725866 
L 69.236436 503.693965 
L 68.691483 504.75364 
L 68.503227 505.473173 
L 68.007815 508.115821 
L 66.937726 509.35865 
L 66.630571 509.437145 
L 65.996444 510.431408 
L 65.51094 511.321012 
L 63.925623 515.15416 
L 61.131501 519.798417 
L 57.921234 525.77708 
L 55.553166 530.931551 
L 54.433536 532.828501 
L 53.541795 534.594627 
L 52.56088 536.138352 
L 51.807854 536.4 
L 51.124186 536.360753 
L 49.360521 535.510396 
L 47.745479 534.110578 
L 47.022178 533.142479 
L 44.178515 529.113095 
L 42.830996 527.72636 
L 41.255587 527.765607 
L 36.212296 528.341233 
L 34.210833 528.079585 
L 33.368633 527.687112 
L 30.277265 525.737833 
L 27.750665 522.977443 
L 25.937459 521.472966 
L 24.946636 521.158988 
L 23.341502 520.884257 
L 20.507747 521.067411 
L 21.449029 519.968488 
L 23.708107 518.123868 
L 24.461132 517.299676 
L 24.936727 516.501648 
L 25.20425 515.782116 
L 26.32388 513.518858 
L 27.463327 510.98087 
L 27.750665 510.078183 
L 28.216352 509.110084 
L 29.395432 507.239299 
L 33.566798 498.696483 
L 35.845692 492.770149 
L 36.836515 490.886282 
L 40.710634 482.395795 
L 42.870629 479.099027 
L 43.87136 477.032005 
L 45.872823 473.342764 
L 48.072451 469.169474 
L 50.09373 465.781129 
L 54.502894 456.348709 
L 55.612616 454.137781 
L 63.757183 440.5844 
L 64.995712 438.883686 
L 66.194608 436.829747 
L 67.542128 433.964698 
L 68.830198 431.675276 
L 71.594595 426.036755 
L 74.725597 420.411317 
L 78.074579 415.531577 
L 79.570723 413.791616 
L 80.957875 411.21438 
L 81.047049 410.612589 
L 82.216221 407.001843 
L 85.089608 401.337158 
L 85.872359 399.191642 
L 86.635292 396.719066 
L 87.685565 395.384659 
L 89.637487 392.19255 
L 91.411061 389.235925 
L 91.738032 388.058507 
L 94.482613 382.930201 
L 94.304265 382.864789 
L 95.39417 381.674289 
L 95.384262 381.831278 
L 96.484076 379.371785 
L 98.039668 378.416768 
L 99.327739 376.009604 
L 100.358195 373.105308 
L 101.378743 371.142946 
L 104.717817 365.622167 
L 105.995979 363.162674 
L 106.758913 362.233822 
L 108.611753 359.617339 
L 108.918908 358.923971 
L 109.483677 357.367164 
L 111.138352 354.227385 
L 112.466055 352.121116 
L 113.050641 350.394238 
L 113.258714 346.639585 
L 113.962198 345.540662 
L 116.251 340.974899 
L 119.83778 336.26523 
L 121.502363 332.916132 
L 125.158501 326.492667 
L 126.90235 323.850019 
L 131.16289 316.510785 
L 133.79848 313.946632 
L 136.592602 311.068501 
L 138.485074 307.614744 
L 138.812046 306.005607 
L 137.989663 304.645036 
L 136.443978 303.349877 
L 126.238499 296.390032 
L 121.918509 294.139857 
L 115.963661 290.882336 
L 110.960004 288.187359 
L 108.284781 286.041843 
L 106.362584 284.916755 
L 103.528829 283.778585 
L 97.643339 281.018196 
L 89.61767 276.426269 
L 88.89437 275.902972 
L 88.3296 275.052615 
L 85.981349 270.408358 
L 85.406672 269.728073 
L 84.356399 269.204776 
L 82.761173 269.06087 
L 82.335119 268.079689 
L 81.978423 264.115717 
L 82.820623 257.548345 
L 82.622458 254.944945 
L 82.553101 249.60732 
L 82.622458 249.123271 
L 82.602642 249.123271 
L 82.27567 246.89926 
L 82.097322 243.406256 
L 82.156771 241.875613 
L 81.66136 233.123478 
L 81.839708 224.855393 
L 82.077505 222.199663 
L 81.899157 216.16867 
L 82.067597 211.903803 
L 81.552369 210.163842 
L 81.502828 207.351123 
L 81.710901 205.964387 
L 81.542461 200.718339 
L 81.532553 196.374977 
L 81.641543 190.932693 
L 81.978423 189.83377 
L 82.226129 187.701337 
L 81.77035 182.808514 
L 82.463926 177.3139 
L 81.839708 174.33111 
L 81.77035 169.804594 
L 82.018056 165.709799 
L 81.948698 164.401557 
L 80.967783 156.630604 
L 81.007416 154.406593 
L 81.076774 151.986347 
L 80.918242 150.429539 
L 80.729986 145.968436 
L 81.205581 143.809838 
L 84.168143 138.603037 
L 85.000434 136.601428 
L 86.694742 132.859857 
L 88.478224 129.249111 
L 89.726661 127.365243 
L 90.043725 126.671875 
L 89.835652 125.638365 
L 87.804464 124.565607 
L 86.982081 123.453602 
L 86.87309 122.786398 
L 86.932539 119.620454 
L 87.120796 118.037482 
L 87.427951 117.16096 
L 88.042261 114.950032 
L 88.299876 113.144659 
L 88.240426 112.163478 
L 89.033085 110.423517 
L 89.84556 106.812771 
L 90.479687 103.93464 
L 91.371428 98.963323 
L 92.956745 93.821934 
L 94.324081 88.745957 
L 96.167012 82.662635 
L 100.189755 73.033978 
L 103.231582 67.487034 
L 103.9747 65.45926 
L 107.908268 57.81913 
L 108.34423 57.426658 
L 108.641477 57.008021 
L 108.443313 56.02684 
L 107.006619 54.339208 
L 107.56148 53.868241 
L 108.136157 53.554263 
L 108.334322 52.93939 
L 107.947901 53.972901 
L 107.868635 54.83634 
L 107.194875 55.608202 
L 106.332859 56.105334 
L 105.748273 57.125762 
L 105.688824 57.413576 
L 105.797815 57.426658 
L 106.015796 57.361246 
L 106.422033 56.968774 
L 106.580565 56.131499 
L 106.917445 55.725944 
L 107.016527 55.411966 
L 107.313774 55.241895 
L 110.424959 54.142972 
L 110.127712 53.868241 
L 109.424228 54.378456 
L 109.01799 55.856768 
L 108.809917 56.079169 
L 108.84955 56.340818 
L 109.305329 56.707125 
L 113.328071 59.546009 
L 115.904212 61.024322 
L 119.847688 63.143673 
L 121.006952 63.928618 
L 122.582361 64.778975 
L 123.038139 64.80514 
L 124.108229 64.674315 
L 125.495381 63.601557 
L 127.714825 60.20013 
L 132.966189 50.113589 
L 135.146 46.751408 
L 138.465258 40.759663 
L 139.248008 39.582245 
L 139.456081 38.653394 
L 141.021582 35.840675 
L 142.775339 32.936379 
L 143.825612 32.4 
L 145.906341 33.027956 
L 152.475499 36.534043 
L 153.852743 37.33207 
L 157.885394 40.092459 
L 163.483545 43.219156 
L 166.188493 44.26575 
L 170.032887 46.1627 
L 170.587748 46.188864 
L 170.954353 46.071123 
L 171.657837 45.560909 
L 173.936731 41.819338 
L 174.878013 40.838157 
L 175.799479 40.275613 
L 177.047916 40.249448 
L 179.069195 41.204465 
L 179.713231 41.675432 
L 181.982216 42.957508 
L 184.419641 44.004101 
L 184.87542 44.54048 
L 184.845695 44.514315 
" clip-path="url(#pe9dbd72601)" style="fill: none; stroke: #000000; stroke-width: 3"/>
   </g>
  </g>
 </g>
 <defs>
  <clipPath id="pe9dbd72601">
   <rect x="7.2" y="7.2" width="292.770442" height="554.4"/>
  </clipPath>
 </defs>
</svg>
