<?xml version="1.0" encoding="utf-8" standalone="no"?>
<!DOCTYPE svg PUBLIC "-//W3C//DTD SVG 1.1//EN"
  "http://www.w3.org/Graphics/SVG/1.1/DTD/svg11.dtd">
<svg xmlns:xlink="http://www.w3.org/1999/xlink" width="369.45247pt" height="568.8pt" viewBox="0 0 369.45247 568.8" xmlns="http://www.w3.org/2000/svg" version="1.1">
 <metadata>
  <rdf:RDF xmlns:dc="http://purl.org/dc/elements/1.1/" xmlns:cc="http://creativecommons.org/ns#" xmlns:rdf="http://www.w3.org/1999/02/22-rdf-syntax-ns#">
   <cc:Work>
    <dc:type rdf:resource="http://purl.org/dc/dcmitype/StillImage"/>
    <dc:date>2022-05-30T05:10:12.623231</dc:date>
    <dc:format>image/svg+xml</dc:format>
    <dc:creator>
     <cc:Agent>
      <dc:title>Matplotlib v3.5.2, https://matplotlib.org/</dc:title>
     </cc:Agent>
    </dc:creator>
   </cc:Work>
  </rdf:RDF>
 </metadata>
 <defs>
  <style type="text/css">*{stroke-linejoin: round; stroke-linecap: butt}</style>
 </defs>
 <g id="figure_1">
  <g id="patch_1">
   <path d="M 0 568.8 
L 369.45247 568.8 
L 369.45247 0 
L 0 0 
z
" style="fill: #ffffff"/>
  </g>
  <g id="axes_1">
   <g id="LineCollection_1">
    <path d="M 241.798253 38.70282 
L 242.290686 39.047816 
L 243.818235 40.45434 
L 248.833015 43.041813 
L 252.149403 44.40853 
L 252.611687 44.899487 
L 256.199415 46.796967 
L 258.661582 48.243298 
L 259.998187 48.628102 
L 260.540868 48.322913 
L 261.023252 47.805418 
L 261.857374 46.478509 
L 262.178963 45.73544 
L 263.847207 41.502599 
L 263.977852 41.250486 
L 264.64113 40.839144 
L 265.153662 41.024911 
L 265.877238 41.436253 
L 267.565581 42.192591 
L 272.379368 43.705268 
L 277.63534 45.032178 
L 282.750617 47.792149 
L 291.111934 53.803049 
L 292.890723 54.838038 
L 293.966037 55.24938 
L 301.292239 58.540115 
L 309.764102 61.69816 
L 313.552824 63.30372 
L 315.502458 64.259095 
L 320.255947 67.337525 
L 321.120218 68.173478 
L 322.356326 70.216918 
L 323.210547 72.499202 
L 323.682881 74.927446 
L 325.130032 81.137383 
L 325.552118 82.278525 
L 326.155097 83.353321 
L 327.602248 85.489645 
L 328.526817 86.604249 
L 331.38092 89.576526 
L 336.003764 93.902251 
L 339.420648 98.825085 
L 343.269668 103.973493 
L 343.912846 104.636948 
L 345.199202 105.512708 
L 346.113721 106.521159 
L 346.113721 107.317305 
L 345.882579 108.12672 
L 343.440512 113.938583 
L 341.249686 117.826428 
L 340.596458 118.755264 
L 339.229705 121.634658 
L 336.355502 127.89767 
L 335.501281 130.272838 
L 334.888252 131.374173 
L 334.124477 132.303009 
L 333.16976 133.271653 
L 326.486736 145.47922 
L 323.41154 150.720512 
L 322.82866 151.821847 
L 320.436841 155.749498 
L 317.321446 161.521554 
L 315.160769 165.409399 
L 314.618088 166.70977 
L 312.648354 170.22608 
L 311.944878 171.340684 
L 309.512861 175.308143 
L 307.583326 178.267151 
L 306.518062 180.297322 
L 305.482947 182.553068 
L 303.181575 186.9186 
L 299.041115 193.977758 
L 296.578948 196.432541 
L 290.368259 207.167238 
L 287.97644 212.076803 
L 286.891076 213.907938 
L 284.619853 218.870579 
L 284.358562 219.932106 
L 283.413894 222.028623 
L 280.328649 227.190301 
L 277.152956 233.386968 
L 276.951963 234.700608 
L 276.218338 236.850201 
L 275.504812 237.699423 
L 274.449598 238.522107 
L 273.082844 240.313435 
L 271.826636 243.590901 
L 268.952434 249.17719 
L 266.078231 254.272522 
L 264.389888 256.767112 
L 263.103532 258.425748 
L 261.776977 260.774378 
L 261.354891 262.247247 
L 260.20923 263.37512 
L 259.576101 264.529532 
L 258.963072 265.909517 
L 258.179198 267.236427 
L 255.737131 270.40774 
L 255.385393 271.58869 
L 253.857845 275.012116 
L 253.043822 276.365564 
L 252.360445 277.811895 
L 249.968626 281.779354 
L 249.134505 283.491067 
L 247.737602 285.919311 
L 247.014026 287.631024 
L 244.521711 292.023095 
L 244.26042 293.124429 
L 243.818235 294.159419 
L 242.421332 297.144965 
L 240.200357 300.833773 
L 238.743156 302.518948 
L 236.069947 306.950825 
L 230.241144 318.01725 
L 227.065452 324.134302 
L 226.412224 325.089677 
L 222.352161 332.891904 
L 219.045823 340.004139 
L 217.920261 343.440834 
L 217.498176 344.436016 
L 216.48316 346.346766 
L 213.970745 349.584425 
L 212.031161 351.826902 
L 211.076443 353.658036 
L 208.734872 357.917416 
L 207.810304 359.602591 
L 203.458801 367.099629 
L 200.22281 375.43262 
L 199.720327 377.436253 
L 198.936454 379.307195 
L 198.17268 380.435068 
L 197.047118 382.783698 
L 196.042152 385.636553 
L 195.117583 387.00327 
L 193.308645 388.343448 
L 192.826261 388.542485 
L 192.826261 388.542485 
L 191.771047 389.232478 
L 191.178117 390.108238 
L 188.394361 392.921286 
L 187.128104 394.460501 
L 186.304032 395.973177 
L 185.932194 397.432778 
L 185.701052 399.171029 
L 185.238768 399.953906 
L 184.183553 401.320622 
L 179.972746 405.951536 
L 179.359717 407.809209 
L 178.595943 409.467846 
L 176.706607 412.440123 
L 175.229307 414.748946 
L 173.621361 418.159103 
L 173.108828 419.021594 
L 172.154111 420.879267 
L 171.420486 422.975784 
L 169.51105 427.022858 
L 168.857822 428.071116 
L 167.601615 430.671858 
L 166.043918 434.785278 
L 163.6119 440.079646 
L 158.59712 450.389732 
L 151.863848 461.164237 
L 151.361365 462.199226 
L 150.677988 463.114793 
L 149.552426 464.813238 
L 149.180588 465.768612 
L 145.130576 471.607014 
L 142.879452 475.800047 
L 140.899669 478.891746 
L 136.42757 487.91473 
L 134.789476 490.595087 
L 129.091319 500.692868 
L 126.719599 502.630156 
L 125.734732 505.138014 
L 125.583987 506.027044 
L 124.769965 508.773746 
L 123.996141 510.591612 
L 122.860529 512.661591 
L 121.343031 515.686944 
L 119.694887 518.420378 
L 115.725271 525.930685 
L 115.031844 526.992212 
L 114.690156 527.284132 
L 114.247971 527.828165 
L 114.247971 527.828165 
L 113.072161 528.425274 
L 112.248089 528.611042 
L 111.715457 529.07546 
L 110.4291 529.95122 
L 109.806021 531.410821 
L 107.18306 535.909044 
L 106.419286 536.4 
L 96.741464 531.079093 
L 96.138484 530.614675 
L 92.148769 526.912598 
L 91.093555 526.262412 
L 90.400128 526.14299 
L 88.922828 525.068194 
L 88.370097 524.497623 
L 87.787217 524.471084 
L 84.229637 523.582055 
L 82.37045 522.308222 
L 80.742405 522.016302 
L 80.139426 521.764189 
L 77.787805 519.641134 
L 78.300338 517.372119 
L 78.953566 515.832904 
L 79.486198 515.103104 
L 80.511263 513.245431 
L 80.772554 512.727936 
L 81.134342 510.458921 
L 80.531362 509.30451 
L 79.385701 508.561441 
L 78.420934 508.017408 
L 76.923535 507.473375 
L 74.330722 505.960698 
L 72.561982 504.978785 
L 68.421522 503.121112 
L 61.004874 499.657879 
L 56.452378 497.362325 
L 53.819367 495.610805 
L 52.010428 494.615623 
L 46.322321 491.696422 
L 43.799856 490.143938 
L 42.161761 489.3876 
L 39.287559 487.543196 
L 34.936056 484.026886 
L 34.24263 483.575737 
L 28.876111 481.930369 
L 27.840996 481.359798 
L 25.298432 480.085965 
L 24.082423 479.27655 
L 23.338749 478.015986 
L 23.770884 476.237927 
L 26.54459 470.63837 
L 28.685168 466.047263 
L 30.875993 462.398262 
L 33.730097 456.758897 
L 34.82551 453.972388 
L 35.99127 448.969939 
L 36.765094 447.085728 
L 39.337807 445.785357 
L 40.543766 444.657484 
L 41.408037 442.176163 
L 43.920452 436.828718 
L 45.106312 433.43183 
L 46.523314 430.778011 
L 47.588578 429.18572 
L 51.196406 422.352136 
L 53.377182 417.827375 
L 57.758833 411.789938 
L 59.376829 408.52574 
L 60.532539 406.734413 
L 61.256115 406.04442 
L 63.728331 403.178296 
L 64.873993 401.36043 
L 65.627717 399.277182 
L 68.431572 393.372435 
L 69.898822 390.121507 
L 72.521784 385.649822 
L 74.149828 381.58948 
L 74.290524 380.421799 
L 75.29549 378.431435 
L 76.220058 377.701635 
L 76.883336 376.865682 
L 78.571679 373.946481 
L 81.626775 369.488066 
L 84.601475 364.578501 
L 86.541059 361.247958 
L 87.304833 359.403554 
L 87.063641 357.307037 
L 88.2897 354.281684 
L 89.314765 352.092283 
L 91.897528 347.01022 
L 94.148651 342.060848 
L 95.404859 340.269521 
L 96.912308 338.889535 
L 98.409707 337.814738 
L 102.218528 331.976337 
L 104.23851 328.592718 
L 104.751043 326.602354 
L 106.157995 322.1174 
L 106.89162 319.383967 
L 107.715692 317.645715 
L 109.353787 315.137856 
L 111.33357 311.674623 
L 111.725506 310.732517 
L 112.951565 306.990633 
L 115.011745 303.832588 
L 115.715221 302.107606 
L 116.579492 300.488777 
L 117.946246 299.188405 
L 118.448729 298.432067 
L 121.35308 292.938662 
L 121.986209 292.08944 
L 124.780014 286.516421 
L 125.51364 284.632209 
L 128.14665 281.633394 
L 128.830027 280.160524 
L 132.437855 274.521159 
L 132.89009 273.685207 
L 134.910072 272.371566 
L 136.789358 272.159261 
L 141.351903 270.938504 
L 143.090495 269.67794 
L 143.422133 269.080831 
L 143.613077 267.462001 
L 143.572878 266.546434 
L 143.201041 264.675492 
L 142.778955 263.786462 
L 142.196075 263.0832 
L 140.889619 261.796098 
L 140.206242 260.933607 
L 139.69371 259.991501 
L 139.281674 258.810552 
L 138.889737 256.753843 
L 138.749042 255.440202 
L 138.78924 246.97452 
L 138.427452 241.016697 
L 138.447552 239.238638 
L 138.306857 235.961172 
L 138.427452 234.23619 
L 138.025466 233.21447 
L 137.472735 230.096233 
L 137.533033 228.212021 
L 137.000401 226.168581 
L 136.638613 223.528031 
L 135.492952 201.899408 
L 135.201512 198.184061 
L 136.176329 191.748551 
L 136.799408 172.189906 
L 137.221493 170.690498 
L 136.317024 167.399763 
L 136.156229 164.639791 
L 135.392455 160.380412 
L 135.663796 158.960619 
L 135.935137 154.714509 
L 135.904988 152.80376 
L 135.593448 149.194566 
L 135.935137 146.554016 
L 136.065782 145.611911 
L 136.236627 142.759055 
L 136.909954 140.19812 
L 137.864672 136.602196 
L 138.50785 133.669726 
L 139.38217 130.511682 
L 140.608229 127.499597 
L 141.060463 125.204044 
L 142.748806 117.109897 
L 143.53268 115.039918 
L 146.205889 108.604407 
L 147.552544 106.587505 
L 149.924263 103.920417 
L 151.341265 102.049475 
L 152.366331 99.992765 
L 154.114971 97.047026 
L 156.165102 94.101287 
L 157.310763 92.164 
L 157.98409 91.288239 
L 161.622067 85.529453 
L 165.410789 79.744128 
L 169.289958 72.897275 
L 171.400386 68.823663 
L 173.249524 66.103499 
L 174.264539 64.206018 
L 176.515663 59.150494 
L 179.520511 54.386889 
L 182.233919 49.702899 
L 185.7513 44.55449 
L 188.766198 38.862049 
L 192.243381 33.116531 
L 192.786062 32.559229 
L 193.529737 32.4 
L 194.896491 32.98384 
L 197.619949 34.761899 
L 200.283108 36.049001 
L 200.373555 35.982655 
L 200.373555 35.982655 
" clip-path="url(#pbf020ba932)" style="fill: none; stroke: #000000; stroke-width: 3"/>
   </g>
  </g>
 </g>
 <defs>
  <clipPath id="pbf020ba932">
   <rect x="7.2" y="7.2" width="355.05247" height="554.4"/>
  </clipPath>
 </defs>
</svg>
