<?xml version="1.0" encoding="utf-8" standalone="no"?>
<!DOCTYPE svg PUBLIC "-//W3C//DTD SVG 1.1//EN"
  "http://www.w3.org/Graphics/SVG/1.1/DTD/svg11.dtd">
<svg xmlns:xlink="http://www.w3.org/1999/xlink" width="409.397402pt" height="568.8pt" viewBox="0 0 409.397402 568.8" xmlns="http://www.w3.org/2000/svg" version="1.1">
 <metadata>
  <rdf:RDF xmlns:dc="http://purl.org/dc/elements/1.1/" xmlns:cc="http://creativecommons.org/ns#" xmlns:rdf="http://www.w3.org/1999/02/22-rdf-syntax-ns#">
   <cc:Work>
    <dc:type rdf:resource="http://purl.org/dc/dcmitype/StillImage"/>
    <dc:date>2022-06-01T05:24:33.247651</dc:date>
    <dc:format>image/svg+xml</dc:format>
    <dc:creator>
     <cc:Agent>
      <dc:title>Matplotlib v3.5.2, https://matplotlib.org/</dc:title>
     </cc:Agent>
    </dc:creator>
   </cc:Work>
  </rdf:RDF>
 </metadata>
 <defs>
  <style type="text/css">*{stroke-linejoin: round; stroke-linecap: butt}</style>
 </defs>
 <g id="figure_1">
  <g id="patch_1">
   <path d="M 0 568.8 
L 409.397402 568.8 
L 409.397402 0 
L 0 0 
z
" style="fill: #ffffff"/>
  </g>
  <g id="axes_1">
   <g id="LineCollection_1">
    <path d="M 36.337116 447.583178 
L 36.842548 447.861339 
L 37.432219 447.972603 
L 39.727724 447.221569 
L 42.233825 446.832143 
L 44.950523 447.444097 
L 46.214104 448.195132 
L 48.42537 449.196512 
L 50.573457 450.309156 
L 51.66856 451.004559 
L 52.658365 451.950306 
L 54.680094 453.56364 
L 55.690959 454.203411 
L 60.997997 456.122722 
L 66.03126 456.122722 
L 67.231661 456.317435 
L 73.086252 458.014217 
L 74.202414 458.765252 
L 77.171829 463.327093 
L 82.120853 468.973762 
L 84.711193 473.841581 
L 85.216625 476.289398 
L 85.595699 482.492389 
L 86.817161 487.888714 
L 89.44962 492.088945 
L 90.228828 492.756532 
L 95.283151 495.955384 
L 100.190055 497.457454 
L 101.137741 497.930327 
L 112.383608 500.628489 
L 117.395811 501.212628 
L 119.543898 501.796766 
L 124.577161 503.688261 
L 127.314919 505.412859 
L 131.568974 508.778608 
L 133.148449 510.447574 
L 136.517998 515.955163 
L 137.465683 519.348728 
L 139.65589 522.380683 
L 143.741467 524.911949 
L 147.700686 527.610111 
L 151.702025 529.891032 
L 156.250915 531.254021 
L 159.999537 531.671262 
L 165.074919 533.089884 
L 167.981155 535.788046 
L 168.97096 536.4 
L 170.929509 536.372184 
L 174.994027 534.063447 
L 182.449153 530.781147 
L 183.417898 530.363905 
L 187.082281 528.583675 
L 189.925338 527.693559 
L 190.873023 527.721375 
L 197.759538 528.277697 
L 202.666442 527.97172 
L 207.215332 529.167813 
L 212.964624 530.558618 
L 214.965293 530.280457 
L 219.7669 528.639307 
L 220.630346 528.47241 
L 225.368774 526.636547 
L 226.379638 526.080225 
L 229.222695 523.326431 
L 232.318467 519.126199 
L 232.655422 518.097003 
L 234.340196 513.896771 
L 235.751194 512.366886 
L 238.299415 506.970561 
L 241.142472 502.436536 
L 242.974663 498.208488 
L 246.133615 494.564579 
L 248.534418 488.166875 
L 251.545952 482.464573 
L 255.821066 474.397903 
L 262.496984 461.213069 
L 264.729309 456.289619 
L 268.393693 449.419041 
L 275.174909 437.847541 
L 282.587915 426.303858 
L 286.505015 420.545924 
L 288.653102 415.78937 
L 292.001591 410.309598 
L 294.360275 405.358331 
L 296.676839 399.878558 
L 298.59327 394.565682 
L 300.930894 388.779933 
L 303.352757 383.773034 
L 304.532098 378.432342 
L 304.574218 375.23349 
L 304.658456 368.140383 
L 304.363621 364.301761 
L 304.784815 355.956929 
L 305.332366 351.617617 
L 307.0382 348.196236 
L 309.207347 342.521751 
L 309.080989 338.794393 
L 308.575556 337.125426 
L 307.375155 329.809791 
L 304.679516 324.719444 
L 301.078311 321.214614 
L 298.340553 317.153463 
L 297.203331 312.146564 
L 297.329689 309.810012 
L 298.361613 304.441503 
L 299.22506 301.3261 
L 301.246789 296.54173 
L 302.46825 294.177361 
L 304.700576 289.11483 
L 308.765093 281.882643 
L 310.386689 279.490458 
L 313.103387 274.845168 
L 314.935579 272.480799 
L 317.947112 267.863326 
L 322.264346 263.468381 
L 329.340398 256.542171 
L 336.942941 248.809294 
L 341.323354 244.247453 
L 345.240453 240.26975 
L 346.79887 237.766301 
L 348.525763 232.898482 
L 349.094374 229.671814 
L 349.094374 223.7748 
L 348.799539 221.911121 
L 347.641257 216.98767 
L 347.367481 214.873646 
L 347.325361 209.755483 
L 347.472779 207.863988 
L 348.567882 200.631801 
L 349.557687 195.346741 
L 350.484313 189.505359 
L 351.811073 182.996391 
L 352.569221 177.850411 
L 353.369489 175.124433 
L 355.791352 170.395695 
L 356.823276 168.837993 
L 360.698256 163.831094 
L 364.910192 160.409714 
L 370.23829 156.960517 
L 374.660822 153.706032 
L 377.230102 152.732469 
L 381.126143 150.229019 
L 383.90602 145.72281 
L 384.242975 140.604647 
L 383.337409 138.629704 
L 380.873426 135.597748 
L 377.272222 133.316828 
L 372.870749 131.703494 
L 367.142517 132.843954 
L 361.161569 136.766025 
L 356.5495 140.882808 
L 351.453058 144.832695 
L 348.925897 144.999592 
L 344.84032 144.610166 
L 339.533281 142.829935 
L 335.089689 139.547635 
L 334.500018 137.850853 
L 334.478959 132.621425 
L 334.815914 131.508781 
L 336.964001 125.94556 
L 337.532612 124.916364 
L 342.776471 117.711993 
L 349.641926 108.699575 
L 352.569221 104.499343 
L 353.580085 102.440951 
L 355.138502 98.630145 
L 357.770961 92.705315 
L 362.467269 83.053127 
L 363.014821 79.381401 
L 363.646611 77.740251 
L 363.288596 72.733352 
L 361.667001 67.39266 
L 359.750571 64.165992 
L 357.8552 61.634726 
L 354.064458 57.657023 
L 353.243131 56.460931 
L 349.304971 53.011734 
L 345.093036 50.174491 
L 341.175936 46.780926 
L 336.648105 43.081384 
L 328.498011 38.32483 
L 325.823432 37.156554 
L 325.107403 37.128738 
L 319.863543 36.516783 
L 314.030013 36.600232 
L 307.206677 36.349887 
L 302.278713 35.125978 
L 298.719628 34.430576 
L 294.928886 32.928506 
L 290.78013 32.4 
L 283.998914 34.374943 
L 280.882081 37.295634 
L 279.134128 42.858855 
L 278.565517 45.61265 
L 278.207503 50.702997 
L 278.523398 55.153574 
L 278.923532 56.377482 
L 279.555322 56.933804 
L 280.839962 57.211965 
L 283.303944 59.993576 
L 287.157865 62.218864 
L 299.583074 66.975418 
L 303.205339 69.590132 
L 305.964156 73.790364 
L 308.449198 79.687378 
L 309.839137 85.361863 
L 309.207347 90.841636 
L 309.228406 91.8152 
L 308.870392 96.377041 
L 309.523242 101.912445 
L 310.30245 103.692676 
L 312.303119 109.728771 
L 312.955969 115.23636 
L 310.660464 124.638203 
L 310.365629 125.500502 
L 308.449198 130.284872 
L 306.638066 133.149931 
L 303.226398 137.989933 
L 300.593939 140.576831 
L 299.835791 141.049705 
L 295.476437 144.693614 
L 294.044379 145.444649 
L 288.758401 147.781202 
L 282.503677 148.893846 
L 277.996906 149.978674 
L 273.405896 152.287411 
L 272.563509 152.927181 
L 268.709588 157.071781 
L 265.719114 162.189944 
L 263.718445 167.86443 
L 262.054731 173.093857 
L 258.769421 177.43317 
L 257.990213 178.045124 
L 254.073113 181.35524 
L 253.399203 181.772482 
L 248.723955 184.136851 
L 247.881568 184.248115 
L 238.467893 187.00191 
L 234.592912 189.616623 
L 230.738991 191.452486 
L 222.188763 197.377317 
L 218.756035 201.549732 
L 217.387156 202.99617 
L 213.512176 207.474563 
L 210.563821 212.008588 
L 207.931361 216.292268 
L 203.719426 223.663536 
L 201.234384 230.895723 
L 200.686833 232.620321 
L 199.212655 235.012506 
L 197.127747 239.602163 
L 195.67463 244.080556 
L 195.548272 244.887223 
L 193.189588 250.784238 
L 192.831573 251.145847 
L 191.020441 255.346079 
L 187.377117 260.714587 
L 184.007569 265.053899 
L 182.175377 266.778498 
L 178.06874 269.754821 
L 176.510324 270.589304 
L 170.845271 273.037121 
L 167.265126 275.095513 
L 162.863653 278.767239 
L 161.831729 280.269308 
L 159.325628 286.861725 
L 157.830391 291.534831 
L 156.924824 297.125868 
L 157.619794 303.523572 
L 158.293703 308.808632 
L 158.230524 314.232772 
L 158.104166 315.122888 
L 156.482571 319.60128 
L 152.291696 326.138065 
L 149.174863 329.309101 
L 144.120541 331.951631 
L 132.769375 337.014162 
L 126.788427 339.322899 
L 121.839403 341.631635 
L 120.238868 342.633015 
L 116.19541 345.581522 
L 114.952889 346.749799 
L 109.877507 352.313019 
L 101.622113 361.631415 
L 98.905415 366.471417 
L 97.052164 369.253027 
L 92.987646 378.404526 
L 92.482214 378.877399 
L 90.650022 383.133263 
L 89.239024 388.640852 
L 89.007367 390.893957 
L 88.291338 400.128903 
L 88.459816 402.048215 
L 89.428561 409.530747 
L 91.597707 418.404084 
L 92.250557 419.767073 
L 93.766854 424.746156 
L 94.188048 425.664087 
L 95.072554 430.837883 
L 96.251896 435.78915 
L 96.694149 441.71398 
L 96.65203 442.743176 
L 95.177852 448.556742 
L 92.924467 453.674905 
L 91.681946 455.761113 
L 89.302203 460.768011 
L 86.943519 464.690082 
L 83.131717 470.086407 
L 79.741109 474.536983 
L 75.950368 478.848479 
L 68.60054 485.385264 
L 64.114829 488.333771 
L 63.293502 488.723197 
L 58.260239 490.976301 
L 55.311884 492.673084 
L 50.973591 497.819063 
L 48.762325 499.070788 
L 48.046296 498.987339 
L 44.845225 499.321133 
L 44.066017 499.682742 
L 39.685604 500.628489 
L 33.936313 501.629869 
L 28.292319 501.129179 
L 27.57629 500.739754 
L 25.154427 496.650786 
L 25.680919 491.421359 
L 26.396948 486.831702 
L 29.113647 482.075148 
L 30.335108 480.795607 
L 34.883998 478.208709 
L 35.347311 477.708019 
L 36.926787 475.121121 
L 40.275275 472.089166 
L 43.497406 468.890314 
L 45.961388 464.912611 
L 47.16179 459.877896 
L 47.056491 454.676285 
L 46.214104 452.92387 
L 42.718198 448.528925 
L 42.718198 448.528925 
" clip-path="url(#p1dc3638c91)" style="fill: none; stroke: #000000; stroke-width: 3"/>
   </g>
  </g>
 </g>
 <defs>
  <clipPath id="p1dc3638c91">
   <rect x="7.2" y="7.2" width="394.997402" height="554.4"/>
  </clipPath>
 </defs>
</svg>
