<?xml version="1.0" encoding="utf-8" standalone="no"?>
<!DOCTYPE svg PUBLIC "-//W3C//DTD SVG 1.1//EN"
  "http://www.w3.org/Graphics/SVG/1.1/DTD/svg11.dtd">
<svg xmlns:xlink="http://www.w3.org/1999/xlink" width="254.728151pt" height="568.8pt" viewBox="0 0 254.728151 568.8" xmlns="http://www.w3.org/2000/svg" version="1.1">
 <metadata>
  <rdf:RDF xmlns:dc="http://purl.org/dc/elements/1.1/" xmlns:cc="http://creativecommons.org/ns#" xmlns:rdf="http://www.w3.org/1999/02/22-rdf-syntax-ns#">
   <cc:Work>
    <dc:type rdf:resource="http://purl.org/dc/dcmitype/StillImage"/>
    <dc:date>2022-06-21T05:08:04.757948</dc:date>
    <dc:format>image/svg+xml</dc:format>
    <dc:creator>
     <cc:Agent>
      <dc:title>Matplotlib v3.5.2, https://matplotlib.org/</dc:title>
     </cc:Agent>
    </dc:creator>
   </cc:Work>
  </rdf:RDF>
 </metadata>
 <defs>
  <style type="text/css">*{stroke-linejoin: round; stroke-linecap: butt}</style>
 </defs>
 <g id="figure_1">
  <g id="patch_1">
   <path d="M 0 568.8 
L 254.728151 568.8 
L 254.728151 0 
L 0 0 
z
" style="fill: #ffffff"/>
  </g>
  <g id="axes_1">
   <g id="LineCollection_1">
    <path d="M 236.566769 34.083453 
L 236.604144 34.07112 
L 236.108926 33.799794 
L 235.015707 33.337307 
L 234.02527 32.930319 
L 233.586114 32.720658 
L 233.198349 32.443165 
L 232.455521 32.492497 
L 231.969646 33.417472 
L 231.133381 35.39075 
L 230.096225 37.345529 
L 228.302226 40.44111 
L 226.648383 44.215005 
L 225.835477 45.6148 
L 225.022571 46.952929 
L 222.205432 52.755601 
L 221.257042 54.593217 
L 218.860371 58.286948 
L 217.342012 60.667215 
L 216.379606 62.517163 
L 215.818982 63.657965 
L 215.150904 65.16259 
L 215.034107 65.785406 
L 214.235217 67.061871 
L 213.679264 67.863515 
L 212.57203 69.916958 
L 211.539546 71.63741 
L 209.371797 75.787461 
L 208.642985 77.119424 
L 207.587141 78.981706 
L 201.878113 89.501747 
L 201.107254 90.901542 
L 199.514145 93.627133 
L 196.925927 98.011511 
L 196.360631 98.856321 
L 191.884977 107.187256 
L 191.571961 108.025899 
L 190.712336 109.462693 
L 190.259165 110.529496 
L 189.964837 110.615827 
L 189.647149 110.535663 
L 188.918337 111.429805 
L 188.175509 112.755601 
L 187.932572 114.624049 
L 188.348369 121.135868 
L 188.0774 123.528469 
L 187.843807 124.348613 
L 187.4794 125.921069 
L 187.40465 127.764851 
L 187.57751 128.091675 
L 187.642916 129.82446 
L 187.456041 132.365057 
L 187.390635 133.653854 
L 187.423338 134.239671 
L 187.988635 135.059815 
L 188.203541 136.428777 
L 188.937025 137.748407 
L 189.292087 138.556218 
L 189.390196 140.04851 
L 189.268728 141.904625 
L 189.264056 142.626105 
L 188.969728 142.952929 
L 188.768837 143.353751 
L 188.941697 144.839877 
L 189.137915 145.179034 
L 189.492978 146.29517 
L 190.586196 146.985817 
L 190.59554 147.799794 
L 190.57218 148.200617 
L 190.418008 148.44111 
L 190.478743 148.823433 
L 190.282524 149.600411 
L 190.128352 150.72888 
L 189.960165 152.430832 
L 190.175071 153.361973 
L 190.095649 153.892292 
L 190.217118 156.445221 
L 190.090977 157.018705 
L 188.848259 159.627133 
L 187.624228 160.891264 
L 187.3299 161.625077 
L 187.044916 164.726824 
L 186.652479 166.724769 
L 186.171276 167.982734 
L 185.05937 169.690853 
L 184.919214 171.263309 
L 185.15748 171.71963 
L 185.213542 172.21295 
L 184.582839 174.488386 
L 184.274496 174.654882 
L 182.653356 179.322919 
L 182.046012 180.432888 
L 181.69095 181.857348 
L 182.447793 182.393834 
L 183.251355 183.374306 
L 183.905418 183.84296 
L 183.980168 184.31778 
L 183.634449 185.322919 
L 182.966371 186.352724 
L 182.700074 186.580884 
L 181.4667 186.95704 
L 180.920091 187.364029 
L 180.36881 188.215005 
L 179.523201 189.923124 
L 178.752342 191.273587 
L 177.733874 194.480164 
L 177.089155 197.606578 
L 176.463124 198.95704 
L 176.084702 199.487359 
L 175.58014 199.746351 
L 174.991484 199.715519 
L 174.613062 199.956012 
L 173.440422 202.459609 
L 173.127407 202.977595 
L 172.977907 203.951901 
L 172.851766 205.43186 
L 172.688251 205.999178 
L 172.48736 207.133813 
L 172.034189 207.849126 
L 171.347423 209.070092 
L 170.338299 210.932374 
L 169.048862 213.522302 
L 168.553643 214.496608 
L 168.329393 215.150257 
L 168.039737 215.489414 
L 167.703362 215.594245 
L 167.236175 216.291059 
L 164.788114 220.718602 
L 164.708692 221.403083 
L 164.881551 223.376362 
L 164.755411 224.239671 
L 164.302239 225.466804 
L 163.699567 226.286948 
L 163.339833 227.372251 
L 162.793224 228.321891 
L 162.241943 228.938541 
L 162.237271 229.172867 
L 162.083099 229.641521 
L 161.970974 230.640493 
L 162.447505 232.237616 
L 161.802787 233.224255 
L 161.592553 234.525385 
L 161.050615 236.412333 
L 160.681537 236.936485 
L 160.097553 237.22631 
L 159.462178 237.22631 
L 159.139819 237.688798 
L 158.738038 237.713464 
L 157.037476 238.508941 
L 152.211432 238.897431 
L 152.468385 239.008428 
L 152.496416 239.40925 
L 151.912432 241.345529 
L 151.468604 242.788489 
L 151.178948 243.738129 
L 151.206979 244.737102 
L 150.875276 245.421583 
L 149.922214 247.216033 
L 149.469042 248.15334 
L 148.913089 248.850154 
L 145.969809 253.604522 
L 143.045217 257.766906 
L 142.026749 259.105036 
L 140.816734 261.374306 
L 140.237421 262.046454 
L 139.499265 264.691881 
L 139.106828 265.505858 
L 137.920172 267.411305 
L 137.406266 269.070092 
L 137.261438 269.520247 
L 137.424954 270.118397 
L 137.382907 270.815211 
L 136.854985 271.980678 
L 136.453204 272.079342 
L 136.070111 272.29517 
L 135.406705 273.12148 
L 134.766658 274.225283 
L 133.281003 277.962179 
L 131.804691 279.904625 
L 130.912363 281.255087 
L 129.940613 283.789517 
L 129.141723 285.768962 
L 127.543943 288.673381 
L 126.847834 289.462693 
L 126.590881 289.882014 
L 125.885428 290.603494 
L 124.054054 293.316752 
L 118.639353 302.338335 
L 117.966603 303.084481 
L 115.840901 307.493525 
L 114.724323 309.392806 
L 113.710527 311.236588 
L 112.084715 313.882014 
L 111.430653 314.954985 
L 111.239106 315.010483 
L 109.636654 318.25406 
L 108.020186 321.109147 
L 107.160561 322.31778 
L 106.020624 324.087564 
L 104.4135 326.979651 
L 103.955656 328.299281 
L 103.39036 329.187256 
L 102.754985 330.032066 
L 100.386345 334.854265 
L 99.713596 337.123535 
L 99.755642 337.610689 
L 100.306924 338.825488 
L 102.19436 342.352724 
L 105.852437 350.961151 
L 106.478468 352.946763 
L 106.716733 354.476053 
L 106.936311 354.876876 
L 107.70717 355.45036 
L 111.005513 357.115313 
L 111.454012 357.028983 
L 112.757465 357.941624 
L 115.621323 359.53258 
L 116.709869 360.346557 
L 120.928571 362.492497 
L 121.535914 363.035149 
L 121.746148 363.411305 
L 121.37707 364.015622 
L 120.480071 365.538746 
L 118.9804 369.713464 
L 118.952368 370.046454 
L 118.854259 370.200617 
L 117.620885 370.8111 
L 117.149025 371.070092 
L 116.747244 371.26742 
L 116.252026 371.563412 
L 115.910979 371.816238 
L 115.826885 372.284892 
L 115.798854 373.031038 
L 115.649354 373.660021 
L 115.303636 373.980678 
L 114.444011 374.609661 
L 114.130995 374.819322 
L 113.906746 374.837821 
L 113.612418 375.084481 
L 112.49584 376.737102 
L 111.561465 378.260226 
L 111.066247 378.383556 
L 110.50095 378.155396 
L 109.510513 377.501747 
L 108.618185 377.014594 
L 108.085592 376.484275 
L 107.744545 376.145118 
L 106.272905 375.485303 
L 105.380578 374.905653 
L 104.39014 374.492497 
L 104.100484 374.541829 
L 103.675344 374.961151 
L 101.661767 377.964234 
L 99.989236 380.745324 
L 99.536064 381.386639 
L 99.181002 382.003289 
L 98.788565 382.434943 
L 97.447737 384.71038 
L 96.672206 385.80185 
L 95.424816 387.990956 
L 94.966973 388.66927 
L 94.602567 389.273587 
L 93.607458 390.864543 
L 92.051724 393.294142 
L 91.486427 394.151285 
L 90.636147 395.625077 
L 89.290647 397.518191 
L 89.015007 398.159507 
L 88.557163 398.529496 
L 88.17407 399.207811 
L 88.010554 399.380473 
L 87.842367 399.725797 
L 87.524679 400.138952 
L 87.328461 400.737102 
L 87.136914 401.668243 
L 86.926679 402.001233 
L 86.510883 402.37739 
L 86.361383 402.599383 
L 86.249258 403.647688 
L 86.258602 404.147174 
L 86.618336 404.584995 
L 87.239695 405.059815 
L 91.720021 408.186228 
L 91.84149 408.46372 
L 91.696662 409.043371 
L 91.224803 410.03001 
L 90.897771 411.250976 
L 90.897771 411.250976 
L 90.715568 411.220144 
L 90.510006 411.355807 
L 90.281084 411.479137 
L 90.052162 411.867626 
L 89.519569 412.56444 
L 89.328022 412.706269 
L 88.809444 414.124563 
L 88.515116 414.815211 
L 88.178741 415.55519 
L 87.87507 416.301336 
L 86.936023 417.36814 
L 86.725789 417.528469 
L 86.398758 418.132785 
L 86.370727 418.613772 
L 85.847477 419.464748 
L 84.726227 420.987873 
L 84.553368 421.339363 
L 84.511321 422.097842 
L 84.590743 422.356835 
L 86.665055 423.417472 
L 89.2486 424.570606 
L 90.290428 425.680576 
L 91.322912 426.229394 
L 92.598333 426.815211 
L 93.051505 427.980678 
L 93.411239 428.332169 
L 93.892442 428.430832 
L 94.616582 428.455498 
L 96.466644 428.097842 
L 96.578769 428.29517 
L 96.644175 428.868654 
L 97.045956 428.739157 
L 97.700018 429.47297 
L 98.204581 429.676465 
L 99.227721 430.465776 
L 100.456423 431.736074 
L 101.376782 432.340391 
L 101.390798 433.024872 
L 101.372111 433.222199 
L 100.419048 434.720658 
L 99.807033 435.645632 
L 99.129612 437.020761 
L 98.316706 438.95704 
L 97.527159 440.085509 
L 97.2048 440.917986 
L 96.041504 442.256115 
L 95.849957 442.08962 
L 95.742504 441.836793 
L 95.779879 442.163618 
L 95.368754 442.644604 
L 95.261301 443.199589 
L 94.728707 443.958068 
L 93.780317 445.962179 
L 92.976755 447.041316 
L 91.131365 449.668243 
L 90.407225 450.722713 
L 89.49621 452.344502 
L 88.87485 454.206783 
L 86.851929 457.043371 
L 86.431461 457.808016 
L 85.772727 458.356835 
L 85.062602 459.250976 
L 84.894415 459.577801 
L 84.422556 461.100925 
L 83.978728 461.396917 
L 82.689291 463.08037 
L 82.432338 463.259198 
L 81.418541 465.916958 
L 80.133776 467.9889 
L 79.297511 469.320863 
L 78.685496 469.888181 
L 78.330433 470.023844 
L 78.02209 469.857348 
L 77.676371 469.345529 
L 77.087715 469.419527 
L 76.242106 470.159507 
L 76.055231 470.449332 
L 75.938434 471.158479 
L 75.95245 473.557246 
L 75.489935 475.006372 
L 75.050778 475.900514 
L 74.200498 477.158479 
L 72.775576 479.248921 
L 71.990702 480.414388 
L 71.518843 481.283864 
L 70.799374 482.097842 
L 69.528625 484.07112 
L 68.907266 484.996095 
L 68.066328 486.223227 
L 67.412266 487.413361 
L 66.865657 488.264337 
L 66.048079 489.300308 
L 65.048299 490.823433 
L 64.543736 491.618911 
L 63.786893 492.913875 
L 62.787112 494.621994 
L 60.974425 498.180062 
L 60.605347 498.679548 
L 59.829816 499.444193 
L 59.269192 500.147174 
L 58.624473 501.694964 
L 58.66652 502.582939 
L 57.71813 505.018705 
L 55.732584 507.805961 
L 55.120569 508.360946 
L 53.597538 509.483248 
L 51.925007 511.111202 
L 51.518555 511.197533 
L 50.313211 512.745324 
L 49.771274 513.731963 
L 49.290071 514.817266 
L 48.822884 516.944707 
L 48.579946 518.726824 
L 48.467822 519.923124 
L 48.397743 522.069065 
L 48.000634 522.722713 
L 47.832447 523.135868 
L 47.458697 523.172867 
L 46.823322 523.530524 
L 44.973261 525.867626 
L 44.319198 526.293114 
L 43.95012 526.521274 
L 43.590386 527.156423 
L 43.412855 528.303392 
L 43.394168 528.741213 
L 42.847558 530.091675 
L 42.763465 530.591161 
L 41.576809 533.446249 
L 40.292044 533.76074 
L 37.928076 533.748407 
L 36.774124 533.612744 
L 35.29314 533.53258 
L 35.06889 533.686742 
L 34.704484 533.723741 
L 33.914937 533.51408 
L 32.616157 533.082425 
L 31.607032 532.996095 
L 28.378768 533.119424 
L 27.505128 533.304419 
L 24.332926 533.40925 
L 22.599661 533.791572 
L 21.455052 534.032066 
L 20.4506 534.309558 
L 18.124007 535.086536 
L 18.264163 535.968345 
L 18.544475 536.313669 
L 18.745366 536.4 
L 19.670397 536.147174 
L 19.717116 535.715519 
L 19.717116 535.715519 
L 20.964506 535.302364 
L 21.810115 535.234532 
L 22.384755 535.345529 
L 23.104223 535.240699 
L 24.332926 534.839877 
L 24.659957 534.46372 
L 24.814129 533.896403 
L 25.005676 532.496608 
L 25.257957 532.219116 
L 25.701785 532.200617 
L 26.028816 532.348613 
L 27.593893 532.373279 
L 29.387892 532.354779 
L 30.574548 532.219116 
L 33.228172 532.243782 
L 34.877343 531.682631 
L 35.321171 531.287975 
L 35.680905 530.776156 
L 36.021952 529.777184 
L 36.680686 527.026927 
L 37.091811 525.152312 
L 37.400155 524.50483 
L 38.128967 523.542857 
L 38.656888 523.000206 
L 39.147435 522.23556 
L 40.619075 518.726824 
L 41.08159 517.32703 
L 41.660903 516.340391 
L 41.791715 515.298253 
L 41.959903 514.749435 
L 43.356793 512.788489 
L 43.781933 512.52333 
L 44.763026 511.1852 
L 46.159916 508.42261 
L 47.103635 507.34964 
L 47.187728 506.467831 
L 47.547463 505.610689 
L 48.308978 504.457554 
L 48.500525 504.48222 
L 49.654477 503.446249 
L 49.91143 503.181089 
L 50.266493 502.342446 
L 50.570164 501.361973 
L 51.149477 498.537718 
L 51.350367 496.989928 
L 51.387742 495.694964 
L 51.939023 494.344502 
L 52.037132 493.074203 
L 51.925007 492.476053 
L 51.971726 491.754573 
L 52.466945 489.608633 
L 52.560382 488.529496 
L 53.106991 488.961151 
L 53.494757 488.899486 
L 54.802881 488.954985 
L 55.340147 488.541829 
L 55.854053 488.042343 
L 56.223131 487.413361 
L 57.34438 485.088592 
L 58.460958 483.12148 
L 58.745942 483.090647 
L 60.43716 479.501747 
L 61.10991 478.607605 
L 61.857409 477.867626 
L 62.324597 476.948818 
L 66.178892 470.289003 
L 66.856313 468.439054 
L 67.776672 467.631244 
L 69.070781 465.707297 
L 70.173343 464.128674 
L 71.416061 462.155396 
L 72.439202 460.749435 
L 74.532201 457.512025 
L 75.289044 456.180062 
L 76.134653 454.909764 
L 76.802731 453.380473 
L 76.947559 452.837821 
L 76.667247 451.024872 
L 77.452121 449.649743 
L 78.251011 448.484275 
L 80.030995 445.808016 
L 80.460807 445.049538 
L 81.357807 444.210894 
L 81.638119 444.210894 
L 82.273494 443.501747 
L 83.254587 442.046454 
L 84.296415 440.763823 
L 84.660821 440.116341 
L 85.856821 438.001233 
L 86.674398 437.310586 
L 87.35182 436.515108 
L 88.07596 436.021788 
L 88.356273 436.040288 
L 89.860616 435.534635 
L 89.92135 435.608633 
L 89.958725 435.503803 
L 90.084866 435.374306 
L 90.580084 434.03001 
L 90.72024 433.826516 
L 91.91624 431.440082 
L 92.579646 430.391778 
L 93.621473 429.485303 
L 94.023254 429.164645 
L 94.448395 428.757657 
L 94.742723 428.215005 
L 95.448176 427.475026 
L 96.0088 426.809044 
L 96.419925 426.365057 
L 96.774988 425.335252 
L 97.896237 421.721686 
L 97.242175 421.191367 
L 96.653519 420.827544 
L 96.176988 420.37739 
L 94.719363 419.668243 
L 94.055958 419.415416 
L 93.546723 419.045427 
L 92.724474 418.206783 
L 91.140709 417.466804 
L 88.30021 415.968345 
L 87.77696 415.493525 
L 87.319117 414.920041 
L 86.501539 414.315725 
L 84.048806 412.632271 
L 83.679728 411.997122 
L 83.604978 411.207811 
L 83.614322 410.788489 
L 84.287071 408.574717 
L 84.899087 405.94779 
L 85.324227 405.22631 
L 85.697977 404.87482 
L 86.071727 404.776156 
L 86.482852 403.863515 
L 86.809883 403.259198 
L 86.973398 402.37739 
L 87.258382 400.68777 
L 87.468617 399.879959 
L 88.141366 396.210894 
L 88.309554 395.847071 
L 88.230132 395.335252 
L 88.402991 394.459609 
L 90.164287 389.88407 
L 90.897771 387.318808 
L 93.252395 381.343474 
L 93.957848 379.234532 
L 95.672426 375.565468 
L 97.045956 372.71038 
L 98.022378 370.200617 
L 99.32583 367.376362 
L 103.189469 360.272559 
L 103.759438 359.255087 
L 105.310499 356.215005 
L 107.571686 352.268448 
L 111.327872 345.559301 
L 113.360136 341.939568 
L 115.850245 337.320863 
L 116.957479 335.248921 
L 118.013322 333.183145 
L 119.541024 330.149229 
L 120.72768 328.052621 
L 121.722789 326.29517 
L 123.983975 322.367112 
L 126.273193 318.075231 
L 127.768193 315.454471 
L 130.062082 311.107091 
L 130.519926 310.064954 
L 132.220487 307.111202 
L 133.084784 305.341418 
L 134.056534 303.398972 
L 135.430064 300.537718 
L 137.326845 296.788489 
L 138.518172 294.531552 
L 138.849875 293.803905 
L 139.700156 293.094758 
L 140.190703 292.829599 
L 141.419405 290.412333 
L 141.741764 290.085509 
L 142.166905 289.314697 
L 142.386483 289.123535 
L 142.615405 288.550051 
L 143.456342 287.255087 
L 144.334654 285.916958 
L 144.596279 285.775128 
L 145.068138 285.183145 
L 146.105294 282.796711 
L 146.357575 282.019733 
L 147.516199 279.620966 
L 148.14223 278.381501 
L 148.618761 278.067009 
L 148.973824 277.45036 
L 150.151136 274.891264 
L 150.679057 273.82446 
L 152.786072 269.051593 
L 156.588977 261.281809 
L 157.556054 259.530524 
L 158.322241 258.081398 
L 159.336038 256.231449 
L 161.31224 252.13073 
L 162.354068 250.095786 
L 163.43327 246.981706 
L 165.890676 244.219116 
L 166.577441 242.917986 
L 167.067988 241.937513 
L 167.736065 240.889209 
L 169.076893 238.052621 
L 169.614158 237.701131 
L 170.170111 236.905653 
L 170.646642 235.962179 
L 171.347423 234.864543 
L 172.931188 231.978623 
L 173.337641 231.49147 
L 173.477797 230.911819 
L 173.73475 230.393834 
L 174.052438 230.04851 
L 175.771687 226.755601 
L 176.126749 226.311614 
L 176.930311 224.720658 
L 178.018858 223.172867 
L 179.149451 222.685714 
L 180.167919 220.521274 
L 180.985497 218.967318 
L 181.256466 218.079342 
L 182.237559 215.951901 
L 182.93834 214.490442 
L 183.134559 214.416444 
L 183.232668 214.613772 
L 183.447574 213.910791 
L 183.718543 212.924152 
L 184.339902 211.388695 
L 184.722995 209.840904 
L 185.93301 207.059815 
L 186.414213 204.593217 
L 186.610432 204.050565 
L 187.535463 203.261254 
L 188.259603 201.36814 
L 189.913446 195.768962 
L 190.478743 193.542857 
L 191.240258 191.896403 
L 191.922352 190.311614 
L 192.109226 189.300308 
L 192.310117 188.800822 
L 193.225804 188.141007 
L 193.59021 188.110175 
L 193.650945 188.011511 
L 195.178647 187.604522 
L 196.262522 187.339363 
L 196.645615 186.765879 
L 196.790443 186.198561 
L 197.028709 185.631244 
L 197.210912 185.470915 
L 197.192224 185.298253 
L 197.397787 184.817266 
L 197.491224 184.44111 
L 198.215364 183.849126 
L 198.276099 183.565468 
L 200.686785 180.494553 
L 201.635175 178.983762 
L 202.209816 178.330113 
L 202.807815 177.269476 
L 203.700143 174.303392 
L 204.218721 173.322919 
L 204.924174 172.786434 
L 205.097033 172.243782 
L 205.382017 171.479137 
L 206.022064 170.208839 
L 206.704158 169.234532 
L 206.90972 168.617883 
L 206.699486 168.451387 
L 206.853657 168.099897 
L 207.026517 167.236588 
L 207.867454 165.972456 
L 208.502829 165.343474 
L 208.899938 164.917986 
L 209.096156 164.813155 
L 209.661453 164.75149 
L 210.80139 163.493525 
L 211.315296 162.099897 
L 211.69839 160.971429 
L 212.805624 158.282837 
L 213.300842 156.907708 
L 213.768029 156.069065 
L 214.24456 155.100925 
L 214.16981 154.730935 
L 213.959576 154.42261 
L 213.249451 153.923124 
L 211.436765 153.238643 
L 210.446328 152.76999 
L 207.797376 151.43186 
L 206.180908 150.642549 
L 205.470783 150.469887 
L 204.372893 150.340391 
L 203.662768 150.099897 
L 202.9433 149.791572 
L 202.233175 149.680576 
L 200.476551 148.54594 
L 199.738395 148.157451 
L 198.640505 147.590134 
L 197.472537 147.053649 
L 194.379757 145.265365 
L 192.562398 144.340391 
L 191.39443 143.785406 
L 190.815118 142.08962 
L 190.586196 142.21295 
L 190.217118 142.749435 
L 189.829353 142.157451 
L 189.222009 140.806989 
L 188.848259 138.340391 
L 188.9744 137.014594 
L 188.95104 136.064954 
L 188.778181 134.227338 
L 188.740806 131.773073 
L 188.993087 130.798767 
L 189.02579 130.243782 
L 188.343697 126.451387 
L 188.357713 126.075231 
L 188.45115 124.262282 
L 188.353041 119.26742 
L 188.2269 113.05776 
L 188.409103 104.196506 
L 188.652041 102.451387 
L 188.581962 101.686742 
L 188.437134 101.020761 
L 188.334353 99.799794 
L 188.353041 98.480164 
L 187.895197 98.011511 
L 187.899869 97.610689 
L 187.783072 97.222199 
L 187.456041 96.765879 
L 187.343916 93.904625 
L 187.797088 90.204728 
L 188.049369 86.184173 
L 188.759494 84.83371 
L 190.679633 81.867626 
L 190.67029 80.449332 
L 190.791758 79.068037 
L 191.100102 77.569579 
L 192.585758 74.887153 
L 193.53882 73.086536 
L 194.5386 70.743268 
L 195.543053 68.50483 
L 196.538162 66.525385 
L 197.220255 65.082425 
L 199.018927 61.851182 
L 199.785114 60.050565 
L 201.004473 57.24481 
L 202.032285 55.641521 
L 202.751753 54.303392 
L 205.877236 48.611716 
L 207.012501 46.823433 
L 210.343547 41.002261 
L 211.544218 39.12148 
L 214.744451 33.411305 
L 215.052794 33.300308 
L 215.720872 33.47297 
L 216.309528 33.676465 
L 217.047684 34.533607 
L 217.916653 34.829599 
L 217.916653 34.8111 
" clip-path="url(#p5101de1558)" style="fill: none; stroke: #000000; stroke-width: 3"/>
   </g>
  </g>
 </g>
 <defs>
  <clipPath id="p5101de1558">
   <rect x="7.2" y="7.2" width="240.328151" height="554.4"/>
  </clipPath>
 </defs>
</svg>
