<?xml version="1.0" encoding="utf-8" standalone="no"?>
<!DOCTYPE svg PUBLIC "-//W3C//DTD SVG 1.1//EN"
  "http://www.w3.org/Graphics/SVG/1.1/DTD/svg11.dtd">
<svg xmlns:xlink="http://www.w3.org/1999/xlink" width="572.4pt" height="417.345707pt" viewBox="0 0 572.4 417.345707" xmlns="http://www.w3.org/2000/svg" version="1.1">
 <metadata>
  <rdf:RDF xmlns:dc="http://purl.org/dc/elements/1.1/" xmlns:cc="http://creativecommons.org/ns#" xmlns:rdf="http://www.w3.org/1999/02/22-rdf-syntax-ns#">
   <cc:Work>
    <dc:type rdf:resource="http://purl.org/dc/dcmitype/StillImage"/>
    <dc:date>2022-06-23T05:07:28.347064</dc:date>
    <dc:format>image/svg+xml</dc:format>
    <dc:creator>
     <cc:Agent>
      <dc:title>Matplotlib v3.5.2, https://matplotlib.org/</dc:title>
     </cc:Agent>
    </dc:creator>
   </cc:Work>
  </rdf:RDF>
 </metadata>
 <defs>
  <style type="text/css">*{stroke-linejoin: round; stroke-linecap: butt}</style>
 </defs>
 <g id="figure_1">
  <g id="patch_1">
   <path d="M 0 417.345707 
L 572.4 417.345707 
L 572.4 0 
L 0 0 
z
" style="fill: #ffffff"/>
  </g>
  <g id="axes_1">
   <g id="LineCollection_1">
    <path d="M 538.947611 204.47428 
L 539.836364 202.668441 
L 539.631267 201.404355 
L 538.674148 199.508225 
L 536.554815 196.077132 
L 531.017202 192.284872 
L 527.257094 190.479034 
L 523.223524 188.312028 
L 518.711394 186.145022 
L 514.199265 184.1586 
L 510.028963 181.901302 
L 506.268856 179.644004 
L 502.78221 177.025539 
L 498.611909 176.032328 
L 493.552855 176.664371 
L 488.562166 175.851744 
L 483.913306 175.67116 
L 480.153198 176.483788 
L 477.213477 176.754663 
L 474.957412 176.574079 
L 472.769713 178.47021 
L 470.445283 181.540134 
L 467.84739 185.693562 
L 462.514874 194.632461 
L 461.010831 198.695597 
L 460.532272 202.758733 
L 460.327175 205.738366 
L 460.805734 208.176248 
L 461.010831 210.523838 
L 459.643519 214.496682 
L 453.217153 222.984121 
L 449.52541 228.221052 
L 447.064249 232.464772 
L 442.757216 245.557099 
L 440.706248 249.981402 
L 437.219603 255.398917 
L 434.348248 257.746507 
L 432.023818 259.281469 
L 430.383043 261.267891 
L 426.828032 266.685406 
L 423.819946 271.651461 
L 420.880225 275.714597 
L 418.350698 280.1389 
L 413.770203 289.800135 
L 411.445773 294.946774 
L 408.916246 299.822537 
L 401.39603 315.443037 
L 398.661407 320.499384 
L 392.303406 329.889743 
L 389.568782 335.126673 
L 387.859642 340.544188 
L 386.013771 345.781119 
L 380.74962 356.887024 
L 378.356824 362.936582 
L 375.758932 368.895848 
L 374.39162 372.688108 
L 371.793727 378.46679 
L 369.127469 383.974597 
L 365.504092 388.3989 
L 361.060328 391.017366 
L 356.68493 391.829993 
L 353.061554 391.19795 
L 349.574908 389.392111 
L 341.78123 384.426056 
L 332.893703 378.647374 
L 328.176476 376.299784 
L 318.33183 371.875481 
L 308.008625 366.909426 
L 303.017937 364.29096 
L 298.574173 361.582203 
L 290.301936 356.164689 
L 285.926538 353.546223 
L 281.277677 350.927758 
L 272.458515 344.42674 
L 267.809654 341.447107 
L 262.818966 338.648058 
L 257.554815 336.029593 
L 252.35903 333.320835 
L 247.094879 330.25091 
L 241.762362 327.361569 
L 236.36148 324.833396 
L 230.823867 322.034347 
L 225.012791 319.506173 
L 213.937564 313.276031 
L 208.194854 310.476982 
L 202.247047 307.768225 
L 196.572703 304.788592 
L 191.103455 301.718667 
L 185.634207 298.10699 
L 178.045626 293.502103 
L 174.490615 291.605973 
L 166.765303 289.077799 
L 165.056163 288.17488 
L 162.595001 287.633129 
L 159.108356 286.369042 
L 154.596226 284.924371 
L 150.084097 282.937949 
L 141.401666 278.24277 
L 133.471257 273.547591 
L 116.106395 262.351394 
L 111.457535 260.003804 
L 107.150502 258.107674 
L 103.595491 255.940668 
L 99.972115 253.502787 
L 91.221318 248.265856 
L 87.734673 245.376515 
L 83.42764 242.396882 
L 78.573683 239.417249 
L 70.711639 234.27061 
L 67.566822 233.006523 
L 64.285273 232.013312 
L 62.507768 231.652145 
L 61.824112 231.381269 
L 61.619015 231.110393 
L 61.619015 231.110393 
L 57.03852 229.304555 
L 56.218133 228.58222 
L 55.192649 228.853095 
L 54.030434 229.936598 
L 52.252928 230.749225 
L 49.928498 233.187107 
L 44.185788 238.785205 
L 41.998089 242.216298 
L 39.947121 245.827974 
L 36.460475 253.593079 
L 34.819701 256.933879 
L 33.862583 260.455264 
L 34.341142 262.983437 
L 33.452389 263.796065 
L 33.315658 264.157232 
L 33.315658 264.157232 
L 32.563636 263.886356 
L 45.826562 268.852412 
L 45.826562 268.491244 
L 48.561186 261.990226 
L 48.49282 261.629059 
L 48.150992 261.719351 
L 48.082627 263.434897 
L 47.467336 265.96307 
L 46.305121 268.852412 
L 44.664347 272.193212 
L 41.929723 274.45051 
L 38.648174 276.707808 
L 36.802303 280.048608 
L 34.751335 283.479701 
L 33.999314 286.188458 
L 34.819701 288.355464 
L 36.460475 289.348675 
L 38.71654 287.723421 
L 40.972605 284.021452 
L 42.339917 279.326273 
L 44.801078 274.721386 
L 47.945896 269.484455 
L 49.791767 265.511611 
L 51.774369 260.635848 
L 52.321294 255.037749 
L 53.278412 249.800818 
L 54.987552 245.376515 
L 56.149767 241.313379 
L 56.696692 237.159951 
L 57.722176 232.916231 
L 59.841509 229.033679 
L 63.39652 224.428792 
L 69.139231 217.566607 
L 72.010586 213.413179 
L 74.335016 207.995664 
L 76.864543 202.487858 
L 78.847145 197.88297 
L 82.81235 189.84699 
L 85.205146 185.693562 
L 87.734673 181.901302 
L 90.195834 177.476999 
L 92.451899 172.781819 
L 97.784416 162.940001 
L 100.724136 158.335114 
L 105.988287 148.493295 
L 108.175986 143.166073 
L 110.226954 137.567974 
L 112.00446 132.15046 
L 114.807449 127.003821 
L 118.635923 120.683387 
L 121.233815 116.800835 
L 123.968439 111.293028 
L 126.90816 104.972595 
L 128.959128 100.999751 
L 131.762117 94.859901 
L 136.479343 85.740418 
L 140.786376 75.8986 
L 143.521 72.016048 
L 146.529086 68.675247 
L 150.425925 66.869409 
L 154.596226 66.688825 
L 158.493065 68.133495 
L 161.911345 69.849042 
L 165.192894 71.65488 
L 173.670228 75.176264 
L 178.113992 77.162686 
L 182.831218 79.69086 
L 187.753541 83.48312 
L 192.128939 86.191877 
L 196.572703 88.449175 
L 201.084832 90.525889 
L 206.417349 93.144355 
L 211.271306 95.221068 
L 216.261995 97.117199 
L 221.662877 99.55508 
L 234.65234 104.972595 
L 242.992943 110.028942 
L 248.804019 111.112445 
L 253.931438 110.119234 
L 258.511933 108.313395 
L 261.793482 105.604638 
L 265.485224 101.992962 
L 269.108601 97.478366 
L 272.116687 92.602603 
L 274.441117 88.268591 
L 277.03901 84.386039 
L 282.918451 76.530643 
L 285.379613 72.286923 
L 287.567312 67.952912 
L 289.276452 63.438316 
L 290.507033 59.104304 
L 291.464151 54.860585 
L 292.284538 50.526573 
L 293.378388 47.366356 
L 295.497721 43.30322 
L 297.753786 40.323587 
L 299.736388 37.343954 
L 301.513894 35.26724 
L 304.111786 33.009942 
L 306.162754 30.662353 
L 307.735163 27.773012 
L 307.871894 26.238049 
L 307.803529 25.696298 
L 307.803529 25.696298 
L 308.145357 25.696298 
L 308.418819 25.967174 
L 308.350453 25.696298 
L 308.145357 25.515714 
L 308.145357 25.515714 
" clip-path="url(#p523ec911c3)" style="fill: none; stroke: #000000; stroke-width: 3"/>
   </g>
  </g>
 </g>
 <defs>
  <clipPath id="p523ec911c3">
   <rect x="7.2" y="7.2" width="558" height="402.945707"/>
  </clipPath>
 </defs>
</svg>
