<?xml version="1.0" encoding="utf-8" standalone="no"?>
<!DOCTYPE svg PUBLIC "-//W3C//DTD SVG 1.1//EN"
  "http://www.w3.org/Graphics/SVG/1.1/DTD/svg11.dtd">
<svg xmlns:xlink="http://www.w3.org/1999/xlink" width="398.047609pt" height="568.8pt" viewBox="0 0 398.047609 568.8" xmlns="http://www.w3.org/2000/svg" version="1.1">
 <metadata>
  <rdf:RDF xmlns:dc="http://purl.org/dc/elements/1.1/" xmlns:cc="http://creativecommons.org/ns#" xmlns:rdf="http://www.w3.org/1999/02/22-rdf-syntax-ns#">
   <cc:Work>
    <dc:type rdf:resource="http://purl.org/dc/dcmitype/StillImage"/>
    <dc:date>2022-06-23T05:07:27.961838</dc:date>
    <dc:format>image/svg+xml</dc:format>
    <dc:creator>
     <cc:Agent>
      <dc:title>Matplotlib v3.5.2, https://matplotlib.org/</dc:title>
     </cc:Agent>
    </dc:creator>
   </cc:Work>
  </rdf:RDF>
 </metadata>
 <defs>
  <style type="text/css">*{stroke-linejoin: round; stroke-linecap: butt}</style>
 </defs>
 <g id="figure_1">
  <g id="patch_1">
   <path d="M 0 568.8 
L 398.047609 568.8 
L 398.047609 0 
L 0 0 
z
" style="fill: #ffffff"/>
  </g>
  <g id="axes_1">
   <g id="LineCollection_1">
    <path d="M 244.422163 32.629365 
L 244.964945 32.4 
L 246.224202 32.944741 
L 249.00325 32.944741 
L 249.784857 33.40347 
L 250.675021 34.320928 
L 253.95343 38.965561 
L 255.560067 40.943831 
L 256.27654 42.262677 
L 257.058148 43.4095 
L 258.013445 44.41297 
L 258.795053 45.531122 
L 261.161586 48.168815 
L 262.898491 49.545003 
L 263.636676 50.204426 
L 265.004489 50.634484 
L 265.699251 50.43379 
L 266.784816 50.462461 
L 267.935516 50.720496 
L 270.128359 51.551943 
L 273.819282 52.526742 
L 274.752869 53.272177 
L 275.860146 53.90293 
L 277.901009 57.085363 
L 280.441233 60.267797 
L 281.809046 61.557973 
L 282.482097 62.44676 
L 283.046591 63.42156 
L 283.632796 65.657864 
L 283.567662 66.690005 
L 282.786055 68.696945 
L 282.134716 69.585733 
L 279.811605 71.994061 
L 277.184536 74.603083 
L 272.929118 78.014881 
L 268.130918 80.566562 
L 264.548551 82.831538 
L 263.441274 83.290267 
L 262.399131 83.921019 
L 259.728639 86.013971 
L 258.881898 86.702065 
L 256.471942 89.311087 
L 255.27782 91.289357 
L 254.561346 92.206815 
L 253.95343 93.210285 
L 253.150111 95.245896 
L 251.543474 100.693305 
L 251.130959 101.754116 
L 250.957268 102.614233 
L 250.892134 103.703715 
L 251.174381 108.520371 
L 251.174381 114.369168 
L 251.521762 116.519461 
L 251.955989 119.959929 
L 251.999411 121.99554 
L 252.042834 124.203174 
L 251.847432 130.625383 
L 251.608608 132.660993 
L 251.391494 133.779146 
L 250.197372 137.219614 
L 247.483458 141.892918 
L 246.311047 144.702634 
L 245.52944 145.820786 
L 244.205049 147.110962 
L 243.249752 148.372467 
L 241.686537 150.866807 
L 240.818084 151.726924 
L 239.124602 154.53664 
L 236.975182 157.03098 
L 236.345554 157.977109 
L 234.63036 159.582661 
L 232.632919 160.930178 
L 230.570344 162.105672 
L 227.769585 164.169953 
L 226.792575 164.743364 
L 225.924123 165.402787 
L 222.775982 168.441868 
L 217.348154 172.914478 
L 215.502692 174.118642 
L 214.677662 174.835406 
L 214.178302 175.55217 
L 208.142556 181.945708 
L 207.469506 182.691143 
L 206.514208 184.497389 
L 206.145115 185.52953 
L 205.645755 186.475658 
L 203.58318 187.708493 
L 202.693016 188.597281 
L 200.565308 191.234974 
L 200.174504 192.181102 
L 198.502733 197.857876 
L 197.981661 198.918687 
L 196.592137 200.954298 
L 195.31117 202.989908 
L 192.749235 204.681472 
L 191.51169 205.455578 
L 190.03532 207.118471 
L 188.493817 209.039399 
L 187.538519 209.985528 
L 186.539799 210.759634 
L 185.432522 211.476398 
L 183.543637 212.422527 
L 180.28694 215.289584 
L 178.767148 216.923807 
L 177.030243 218.041959 
L 176.205213 218.672712 
L 174.728844 220.10624 
L 172.536001 221.224393 
L 169.431283 222.973298 
L 165.740359 225.438967 
L 164.871907 226.041049 
L 164.177145 226.872496 
L 162.505374 228.363365 
L 157.099256 233.954127 
L 156.404494 234.269503 
L 155.731444 234.814244 
L 153.430044 237.451937 
L 152.105654 239.458877 
L 151.736562 240.204312 
L 150.672707 243.415416 
L 150.281904 244.476227 
L 150.064791 245.537039 
L 150.021368 246.59785 
L 148.914091 252.360635 
L 148.783823 256.489197 
L 149.022647 258.926196 
L 149.760832 264.63164 
L 150.195058 267.12598 
L 150.281904 269.390955 
L 150.650996 272.573389 
L 150.629285 274.580329 
L 150.824687 276.787963 
L 150.954954 278.995597 
L 151.020088 280.14242 
L 150.824687 283.64023 
L 151.410892 285.933876 
L 151.758273 289.575038 
L 151.888541 290.721861 
L 151.888541 292.757472 
L 151.736562 293.904295 
L 151.54116 300.469856 
L 151.432603 301.760032 
L 151.454315 302.935525 
L 151.345758 304.025007 
L 151.0418 305.200501 
L 150.520728 307.809523 
L 149.847677 310.16051 
L 148.914091 312.425485 
L 148.544999 313.600978 
L 148.06735 314.66179 
L 147.524567 315.579248 
L 143.9422 319.650469 
L 142.270429 320.768622 
L 140.338122 321.829433 
L 139.339401 322.488856 
L 137.255115 323.291632 
L 130.850277 325.126549 
L 129.764712 325.126549 
L 126.811973 325.613948 
L 125.748118 326.015336 
L 124.684264 326.588748 
L 122.751957 327.248171 
L 121.709814 327.821583 
L 120.124888 329.111758 
L 118.127447 331.20471 
L 117.584664 331.978816 
L 116.303697 333.068297 
L 115.608935 333.69905 
L 113.763473 336.021366 
L 113.372669 336.881484 
L 110.767312 340.69467 
L 109.594901 342.988316 
L 109.008695 343.73375 
L 106.902698 347.23156 
L 105.795421 350.155959 
L 105.187504 352.134228 
L 104.753278 353.137698 
L 103.168352 355.804062 
L 102.625569 356.922214 
L 101.192622 361.480835 
L 100.128768 363.143728 
L 98.760955 366.068127 
L 95.743082 377.966414 
L 94.766073 384.560646 
L 94.462115 385.535446 
L 93.941043 386.338222 
L 92.095581 390.495455 
L 91.335685 392.645748 
L 90.662635 394.681358 
L 87.557917 400.75952 
L 86.906577 401.504955 
L 85.907857 403.225189 
L 84.952559 405.318141 
L 83.693303 407.353752 
L 78.439165 413.517925 
L 75.508137 416.901052 
L 74.096902 418.27724 
L 73.488985 419.108687 
L 72.729089 419.940133 
L 70.861916 421.488344 
L 70.145442 422.348461 
L 68.973032 424.29806 
L 68.213136 425.387542 
L 67.344683 426.391012 
L 65.195263 428.139917 
L 63.262956 429.401422 
L 62.459637 430.175528 
L 61.526051 430.462233 
L 60.701021 431.121657 
L 59.897702 432.010444 
L 59.311497 432.841891 
L 58.812136 433.78802 
L 56.337047 437.228489 
L 54.057359 439.464793 
L 52.385587 440.926992 
L 51.560557 441.701098 
L 49.823652 443.105956 
L 48.998622 443.82272 
L 47.956479 444.367461 
L 47.131449 445.055555 
L 45.676791 446.80446 
L 44.178711 448.29533 
L 42.941166 449.671517 
L 42.202981 450.33094 
L 41.508219 451.105046 
L 40.943725 451.965163 
L 40.335808 452.653257 
L 39.727891 453.054645 
L 39.163397 453.570715 
L 38.707459 454.201468 
L 38.425212 455.090255 
L 37.882429 455.950373 
L 34.929691 459.3335 
L 34.169795 460.107606 
L 33.10594 461.82784 
L 32.736848 462.601946 
L 32.085508 464.83825 
L 31.217056 466.730508 
L 29.501862 469.224848 
L 28.785389 470.916412 
L 27.699823 472.665317 
L 27.15704 473.640116 
L 26.744525 476.793879 
L 25.919495 480.004983 
L 25.550403 480.721748 
L 25.00762 481.151806 
L 24.68195 481.696547 
L 24.68195 483.760828 
L 24.790507 484.936322 
L 24.768796 486.054474 
L 25.094465 488.147426 
L 25.50698 490.297719 
L 26.028052 491.129165 
L 26.418855 492.017953 
L 27.070195 492.8494 
L 27.612978 493.85287 
L 28.872234 495.544434 
L 29.653841 496.031833 
L 30.174913 496.662586 
L 31.868395 497.694727 
L 32.845404 499.185596 
L 33.171074 499.988372 
L 34.777711 502.740747 
L 35.928411 504.604335 
L 37.122533 507.672086 
L 38.316656 509.248968 
L 39.20682 509.707697 
L 40.010138 510.596484 
L 42.18127 512.259378 
L 42.810898 513.004813 
L 43.483949 513.578224 
L 45.720214 514.753718 
L 46.458399 515.470482 
L 47.153161 516.330599 
L 48.738087 518.996962 
L 50.084188 520.659856 
L 50.865795 521.462632 
L 54.491585 524.243677 
L 56.337047 525.247147 
L 57.205499 525.705876 
L 58.595023 526.91004 
L 59.311497 527.655475 
L 60.483908 527.856169 
L 61.439205 528.142875 
L 62.611616 528.028193 
L 63.870873 528.142875 
L 64.847882 528.830969 
L 66.020293 529.37571 
L 67.105858 530.264497 
L 68.061156 531.210626 
L 69.255279 531.870049 
L 73.315294 533.676296 
L 75.0522 534.593754 
L 76.116054 534.90913 
L 76.962795 535.281848 
L 77.983227 535.568553 
L 79.133927 535.597224 
L 80.306338 535.482542 
L 81.609016 535.654565 
L 82.716293 535.539883 
L 83.801859 535.539883 
L 84.626889 535.711906 
L 86.190104 536.371329 
L 87.840164 536.342659 
L 88.838884 536.027283 
L 90.402099 535.138495 
L 90.814614 534.565083 
L 91.552798 534.106354 
L 92.377828 533.303578 
L 93.22457 532.644155 
L 94.071311 532.214096 
L 95.54768 531.067273 
L 96.329288 530.40785 
L 99.064913 527.311428 
L 100.215613 525.648535 
L 102.32161 521.749337 
L 102.777548 520.229797 
L 103.233486 518.36621 
L 103.624289 517.39141 
L 104.731566 515.585164 
L 105.035525 514.581694 
L 105.990822 512.804119 
L 106.77243 510.596484 
L 108.227088 505.89451 
L 110.267951 500.762478 
L 111.548919 497.235997 
L 111.809455 495.401081 
L 113.72005 492.161306 
L 114.54508 491.071824 
L 114.805616 490.097025 
L 114.805616 489.122225 
L 115.022729 488.004073 
L 116.02145 485.911121 
L 116.542521 484.764298 
L 117.258995 483.560134 
L 118.018891 481.409841 
L 118.539962 479.517583 
L 118.67023 478.485443 
L 120.124888 475.647056 
L 121.557835 473.955492 
L 123.598698 471.805199 
L 131.414772 465.641026 
L 133.629326 464.207498 
L 135.952436 463.404722 
L 139.165711 461.885181 
L 140.251276 461.254429 
L 142.205295 460.33697 
L 143.182304 459.878241 
L 147.654835 458.8461 
L 148.56671 458.731418 
L 151.519449 458.014654 
L 155.536042 457.785289 
L 157.685462 457.469913 
L 159.053275 457.412572 
L 160.225686 457.928642 
L 161.246117 458.530724 
L 163.829764 459.476853 
L 164.76335 460.107606 
L 166.435122 460.853041 
L 168.020047 461.82784 
L 168.801655 462.114546 
L 169.539839 462.573275 
L 170.256313 463.204028 
L 171.233322 463.662757 
L 172.318888 463.892121 
L 173.274186 464.293509 
L 175.553874 465.727038 
L 176.465749 465.870391 
L 178.224365 466.472473 
L 179.244797 466.81652 
L 181.372506 467.361261 
L 182.458072 467.733978 
L 185.758191 467.934672 
L 186.626644 468.192707 
L 188.276704 467.533284 
L 188.993177 467.361261 
L 190.317567 467.447272 
L 192.966348 466.931202 
L 193.813089 466.587155 
L 196.722405 464.952932 
L 197.612569 464.32218 
L 198.198774 463.691427 
L 201.173224 461.483793 
L 203.626603 459.878241 
L 204.191097 459.132806 
L 204.625323 458.158007 
L 205.776023 456.581125 
L 206.275383 455.778349 
L 206.579342 454.889561 
L 207.664907 452.882621 
L 209.553792 449.843541 
L 210.118286 447.779259 
L 210.791337 444.510814 
L 211.399254 439.78017 
L 211.442676 439.006064 
L 211.898614 438.031265 
L 213.092736 436.454383 
L 214.134879 434.533455 
L 214.699373 433.644667 
L 215.068466 432.669867 
L 216.306011 430.834951 
L 220.018645 427.451823 
L 222.971384 425.244189 
L 224.426042 423.667308 
L 226.401772 422.147767 
L 228.616326 420.972274 
L 231.134838 418.994004 
L 232.915166 417.933193 
L 236.45411 416.126947 
L 238.994334 414.77943 
L 240.796373 413.919313 
L 242.055629 412.428443 
L 244.096493 410.450174 
L 245.073502 409.962774 
L 246.549871 408.701269 
L 249.155229 404.687388 
L 250.913846 401.820331 
L 251.261227 400.874202 
L 251.456628 399.870732 
L 253.823162 395.914193 
L 254.148831 394.710029 
L 254.105409 393.591877 
L 254.45279 390.352102 
L 256.189695 385.73614 
L 257.709487 382.668388 
L 258.968743 378.855202 
L 259.120722 377.536356 
L 259.120722 375.500745 
L 259.229279 374.525946 
L 259.489815 373.407793 
L 259.620083 372.318312 
L 259.511526 371.142818 
L 259.489815 367.903043 
L 258.903609 365.609398 
L 258.469383 364.519916 
L 257.861466 363.71714 
L 256.254829 362.025576 
L 254.691614 359.674589 
L 253.606049 357.72499 
L 252.694173 355.832732 
L 252.259947 354.800592 
L 251.738876 353.911804 
L 251.630319 352.908334 
L 251.825721 350.643359 
L 251.543474 348.493066 
L 251.565185 347.403584 
L 252.064545 345.023926 
L 252.086257 344.020456 
L 252.455349 341.927504 
L 253.280379 339.347153 
L 253.714605 337.426224 
L 254.105409 336.308072 
L 256.841034 331.634769 
L 257.75291 329.541817 
L 259.424681 327.018807 
L 262.138595 323.492326 
L 263.788655 321.514057 
L 264.331438 320.567928 
L 264.874221 318.618329 
L 265.590694 317.643529 
L 266.394013 316.783412 
L 267.696692 315.894624 
L 270.041514 313.543637 
L 272.929118 310.303863 
L 274.752869 308.956346 
L 275.751589 308.15357 
L 279.529358 306.806053 
L 282.460385 305.286512 
L 284.52296 304.65576 
L 284.957186 303.967666 
L 285.369701 302.562808 
L 286.563824 301.559338 
L 288.192172 300.527197 
L 289.690253 299.064998 
L 290.341592 298.118869 
L 290.493572 297.516787 
L 290.906087 297.029387 
L 291.62256 295.251812 
L 291.904807 293.64626 
L 292.339033 291.811343 
L 292.599569 289.919085 
L 292.664703 288.915615 
L 292.903527 288.026827 
L 293.185775 284.328324 
L 292.94695 281.891325 
L 293.012084 279.425656 
L 293.120641 278.680221 
L 293.098929 277.906115 
L 293.533156 275.12507 
L 293.989093 273.605529 
L 294.141072 271.913966 
L 294.358186 270.853154 
L 294.705567 269.935696 
L 295.139793 269.161591 
L 295.704287 268.387485 
L 296.377338 267.699391 
L 296.833275 266.896615 
L 297.57146 264.574299 
L 298.678737 260.159031 
L 299.568901 258.066079 
L 300.502488 256.259833 
L 301.001848 253.392775 
L 300.893291 251.729882 
L 300.741312 250.669071 
L 300.87158 248.518778 
L 300.936714 247.486637 
L 301.522919 245.909756 
L 302.239393 242.727322 
L 303.607205 238.856795 
L 304.128277 237.537949 
L 305.626358 235.645691 
L 306.581656 233.151351 
L 307.341552 231.144411 
L 307.797489 230.169611 
L 308.883055 228.363365 
L 310.207445 225.238273 
L 311.206165 219.0741 
L 311.748948 217.58323 
L 313.225318 215.805654 
L 315.787253 212.508539 
L 316.612283 211.877786 
L 317.350467 211.017669 
L 320.129516 206.917777 
L 320.563742 205.914307 
L 322.148668 204.108061 
L 325.036273 201.097651 
L 326.447508 199.864816 
L 327.207404 199.176722 
L 328.683774 197.657182 
L 330.181854 196.739724 
L 332.700367 194.962148 
L 334.176736 193.786655 
L 335.718239 192.955208 
L 336.586692 192.639832 
L 337.281454 192.238444 
L 338.432154 190.948268 
L 338.670978 190.002139 
L 338.670978 188.941328 
L 339.908523 185.930918 
L 341.819119 183.522589 
L 343.16522 180.684203 
L 343.404045 179.709403 
L 343.946827 176.52697 
L 345.553465 170.248114 
L 345.922557 169.273315 
L 346.530474 167.065681 
L 346.834432 166.062211 
L 348.701605 162.478389 
L 350.416799 158.607862 
L 351.437231 156.629592 
L 351.958302 155.597452 
L 352.631353 154.737334 
L 354.172857 153.389817 
L 354.802485 152.701724 
L 355.193288 151.984959 
L 355.540669 150.952819 
L 356.083452 149.892008 
L 356.973616 148.601832 
L 358.601965 145.218704 
L 359.68753 143.383787 
L 360.404004 142.466329 
L 360.903364 141.606212 
L 361.467858 140.058001 
L 362.531713 138.423778 
L 362.98765 137.305626 
L 363.291609 136.244815 
L 365.158782 133.463769 
L 367.199645 131.571511 
L 370.282652 129.077172 
L 371.107682 128.389078 
L 372.56234 127.47162 
L 373.170257 127.01289 
L 373.38737 126.525491 
L 373.409081 126.066761 
L 373.126834 125.665373 
L 370.673455 124.432539 
L 365.679853 123.830457 
L 364.702844 123.601092 
L 362.423156 123.400398 
L 361.359302 123.142363 
L 360.230313 122.740975 
L 358.449985 121.47947 
L 356.343988 120.9634 
L 355.258422 120.877388 
L 354.38997 120.676694 
L 353.022157 119.701894 
L 352.327395 119.271836 
L 351.285252 118.784436 
L 348.419358 118.239695 
L 346.834432 117.178884 
L 343.186931 115.143273 
L 342.427035 114.426509 
L 341.667139 112.906969 
L 341.146068 111.072052 
L 340.733553 110.125923 
L 340.451306 109.122453 
L 339.647987 107.373548 
L 339.496008 106.48476 
L 339.04007 105.739325 
L 337.650546 104.420479 
L 337.064341 103.617703 
L 336.434713 102.499551 
L 335.349147 101.324057 
L 334.545828 100.664634 
L 333.481974 100.320587 
L 331.289131 98.457 
L 327.315961 96.134683 
L 325.665901 95.675954 
L 319.499888 94.041732 
L 316.807685 93.898379 
L 315.787253 93.927049 
L 313.616121 94.156414 
L 312.552267 94.127743 
L 311.531835 93.898379 
L 309.62124 93.152944 
L 308.79621 92.866238 
L 307.97118 92.722885 
L 307.037593 92.694215 
L 304.605926 92.780226 
L 303.390092 92.780226 
L 301.501208 92.522191 
L 300.697889 91.805427 
L 298.005686 90.400569 
L 295.682576 89.425769 
L 292.360745 87.361488 
L 291.514003 86.902759 
L 290.754107 86.272006 
L 289.559985 84.523101 
L 288.040193 81.828068 
L 287.128318 79.563092 
L 286.737514 78.616963 
L 286.390133 77.011411 
L 286.520401 76.122624 
L 287.041473 74.259036 
L 287.084895 72.280767 
L 286.976339 71.277297 
L 286.737514 70.130474 
L 286.042752 68.266887 
L 285.044032 67.005381 
L 284.34927 66.460641 
L 283.502528 66.202605 
L 282.612365 66.202605 
L 281.830757 66.460641 
L 281.092572 66.91937 
L 279.941873 68.324228 
L 278.487215 69.729086 
L 276.09897 72.882849 
L 273.493612 74.545742 
L 270.519162 77.584823 
L 268.912525 78.616963 
L 266.545992 79.93581 
L 264.961066 80.738586 
L 264.179459 81.254656 
L 262.855068 82.544832 
L 259.967464 83.892349 
L 259.055588 84.494431 
L 257.253549 86.558712 
L 255.712046 89.225075 
L 255.125841 90.142534 
L 254.213965 92.034792 
L 253.432358 92.579532 
L 252.607328 92.923579 
L 251.847432 93.009591 
L 251.000691 92.923579 
L 249.111806 92.292827 
L 247.461747 92.378838 
L 245.811687 92.751556 
L 244.422163 93.038262 
L 241.360867 93.525661 
L 239.906209 93.382308 
L 238.191015 93.124273 
L 237.344274 93.066932 
L 235.650792 92.665544 
L 234.695494 92.808897 
L 233.892175 93.066932 
L 233.284258 92.95225 
L 232.65463 92.98092 
L 231.721044 92.837568 
L 230.917725 92.550862 
L 228.399213 89.655134 
L 227.313647 87.877558 
L 226.835998 86.099983 
L 226.879421 85.383219 
L 227.53076 84.064372 
L 227.313647 83.118243 
L 226.684019 82.172114 
L 226.53204 81.484021 
L 226.749153 80.824598 
L 227.139956 80.251186 
L 227.35707 78.989681 
L 227.726162 78.387599 
L 228.203811 77.842858 
L 230.722323 76.380659 
L 232.893455 75.43453 
L 233.80533 75.147824 
L 235.390256 74.173025 
L 236.649512 72.911519 
L 237.018604 72.108743 
L 238.10417 70.589203 
L 238.9292 68.782957 
L 239.493694 68.180875 
L 240.362147 67.005381 
L 242.099052 65.170465 
L 243.966225 63.851618 
L 244.899812 63.048842 
L 246.072222 62.303407 
L 246.832118 61.643984 
L 247.743994 59.837738 
L 248.134797 58.031492 
L 247.982818 55.451141 
L 248.156509 53.587553 
L 248.026241 52.641424 
L 248.113086 50.261767 
L 247.35319 47.681415 
L 246.311047 46.247887 
L 244.530719 44.269617 
L 244.031359 43.495512 
L 242.706969 42.348689 
L 242.012207 42.119324 
L 241.339156 42.492042 
L 240.796373 43.180135 
L 240.318724 44.240947 
L 239.689096 45.043723 
L 238.191015 47.480721 
L 236.931759 49.057603 
L 236.28042 50.175755 
L 235.867905 50.347779 
L 235.216565 50.863849 
L 233.436238 53.042812 
L 231.764466 55.307788 
L 231.026282 56.024552 
L 229.419644 57.314728 
L 228.790016 58.031492 
L 228.334079 58.805598 
L 227.726162 60.41115 
L 227.791296 61.471961 
L 227.661028 62.303407 
L 227.335358 63.249536 
L 226.510328 64.740406 
L 225.924123 66.747346 
L 225.576742 67.808157 
L 225.099093 68.696945 
L 224.491176 69.44238 
L 222.819405 72.911519 
L 221.712128 73.226896 
L 220.583139 72.968861 
L 219.389017 72.309437 
L 218.325163 72.022732 
L 217.673823 71.477991 
L 216.783659 69.213016 
L 216.284299 68.066193 
L 215.502692 67.349428 
L 213.309849 66.776017 
L 212.137438 66.718676 
L 211.18214 66.231276 
L 208.880741 64.396359 
L 207.838598 63.880289 
L 206.666187 63.650924 
L 205.602333 63.593583 
L 204.907571 63.42156 
L 203.148954 62.704795 
L 201.93312 62.303407 
L 198.502733 60.468491 
L 197.46059 59.551032 
L 195.31117 57.974151 
L 194.203893 57.286057 
L 190.708371 56.053223 
L 189.449115 55.881199 
L 188.450394 55.508482 
L 187.495096 54.93507 
L 186.431242 54.476341 
L 185.367388 54.189635 
L 184.108131 53.730906 
L 182.197536 51.752637 
L 180.156672 50.519802 
L 177.855273 50.032402 
L 176.074945 48.971591 
L 175.228204 48.742227 
L 174.272906 48.283497 
L 172.232042 47.595404 
L 171.168188 47.337368 
L 170.299735 46.677945 
L 169.149036 46.649275 
L 168.215449 46.247887 
L 167.216729 45.989852 
L 165.240999 46.219216 
L 164.546237 45.875169 
L 163.156713 45.760487 
L 160.942159 45.961181 
L 160.13884 45.703146 
L 159.704614 45.158405 
L 159.205254 43.954241 
L 159.205254 43.954241 
" clip-path="url(#pef4385aab9)" style="fill: none; stroke: #000000; stroke-width: 3"/>
   </g>
  </g>
 </g>
 <defs>
  <clipPath id="pef4385aab9">
   <rect x="7.2" y="7.2" width="383.647609" height="554.4"/>
  </clipPath>
 </defs>
</svg>
