<?xml version="1.0" encoding="utf-8" standalone="no"?>
<!DOCTYPE svg PUBLIC "-//W3C//DTD SVG 1.1//EN"
  "http://www.w3.org/Graphics/SVG/1.1/DTD/svg11.dtd">
<svg xmlns:xlink="http://www.w3.org/1999/xlink" width="386.933885pt" height="568.8pt" viewBox="0 0 386.933885 568.8" xmlns="http://www.w3.org/2000/svg" version="1.1">
 <metadata>
  <rdf:RDF xmlns:dc="http://purl.org/dc/elements/1.1/" xmlns:cc="http://creativecommons.org/ns#" xmlns:rdf="http://www.w3.org/1999/02/22-rdf-syntax-ns#">
   <cc:Work>
    <dc:type rdf:resource="http://purl.org/dc/dcmitype/StillImage"/>
    <dc:date>2022-06-30T05:09:04.568518</dc:date>
    <dc:format>image/svg+xml</dc:format>
    <dc:creator>
     <cc:Agent>
      <dc:title>Matplotlib v3.5.2, https://matplotlib.org/</dc:title>
     </cc:Agent>
    </dc:creator>
   </cc:Work>
  </rdf:RDF>
 </metadata>
 <defs>
  <style type="text/css">*{stroke-linejoin: round; stroke-linecap: butt}</style>
 </defs>
 <g id="figure_1">
  <g id="patch_1">
   <path d="M 0 568.8 
L 386.933885 568.8 
L 386.933885 0 
L 0 0 
z
" style="fill: #ffffff"/>
  </g>
  <g id="axes_1">
   <g id="LineCollection_1">
    <path d="M 24.133358 453.549565 
L 24.628727 452.622643 
L 25.825869 450.796062 
L 28.199511 447.006588 
L 29.066407 445.970617 
L 29.953942 445.152745 
L 30.96532 444.41666 
L 31.935418 444.253086 
L 32.864234 444.825596 
L 33.73113 446.270504 
L 34.701227 447.606361 
L 38.127528 450.687012 
L 40.43925 453.440515 
L 42.193681 455.594245 
L 48.158748 459.710867 
L 51.750172 462.955093 
L 52.844111 463.527603 
L 55.609921 464.618099 
L 57.137308 466.281106 
L 59.46967 468.925559 
L 60.0476 470.043317 
L 62.462523 473.287543 
L 63.205576 473.996365 
L 63.927989 474.296251 
L 65.187052 475.713896 
L 67.085966 478.658236 
L 67.684536 480.266717 
L 68.675274 482.256872 
L 68.861037 483.156532 
L 68.778476 485.282999 
L 68.964239 486.237183 
L 69.480248 488.009239 
L 70.099459 493.625293 
L 71.131478 495.669973 
L 72.39054 497.523817 
L 72.94783 498.423476 
L 74.888025 500.250057 
L 75.610438 500.84983 
L 78.479449 501.967588 
L 81.265899 503.712382 
L 84.072989 504.25763 
L 84.898604 504.612041 
L 85.765499 504.584778 
L 87.561211 504.175842 
L 88.469387 504.14858 
L 92.845146 505.293601 
L 93.773962 505.811587 
L 94.661498 506.002423 
L 95.549034 505.920636 
L 97.303465 506.138735 
L 99.223019 506.629459 
L 100.296319 506.220523 
L 101.225135 506.029686 
L 103.14469 506.465884 
L 107.148921 507.529118 
L 108.015817 508.019841 
L 110.699064 509.246649 
L 113.196549 510.637031 
L 113.980883 511.236804 
L 115.384428 512.872548 
L 118.480483 517.09822 
L 120.647722 520.860432 
L 122.051267 524.459069 
L 122.464075 525.467777 
L 123.103926 526.231125 
L 123.846979 526.939947 
L 125.250524 527.703294 
L 126.241262 527.812344 
L 128.986431 528.821053 
L 132.784259 530.429534 
L 133.733716 530.293222 
L 135.818393 530.456797 
L 137.88243 531.165619 
L 138.749325 530.974782 
L 139.5543 530.620371 
L 141.886661 530.184173 
L 142.774197 530.238697 
L 147.769167 532.038016 
L 148.759904 532.474214 
L 149.688721 533.155774 
L 150.576257 534.000909 
L 151.463792 534.437107 
L 152.371969 534.546157 
L 153.342066 534.437107 
L 155.323541 533.56471 
L 156.272998 532.9922 
L 158.089351 532.474214 
L 159.14201 532.147066 
L 160.27723 531.601817 
L 161.453731 530.756683 
L 162.754074 530.347747 
L 163.971856 530.102385 
L 167.171113 530.674896 
L 168.09993 530.375009 
L 170.040124 530.320485 
L 170.968941 530.184173 
L 171.939038 530.320485 
L 172.991697 530.211435 
L 174.044356 530.293222 
L 176.046472 530.674896 
L 178.791641 532.174328 
L 179.534694 532.365165 
L 180.525432 532.31064 
L 181.433608 532.610526 
L 183.373802 532.88315 
L 187.089069 534.382582 
L 189.008623 534.92783 
L 194.168715 536.100114 
L 197.471174 536.4 
L 198.585754 536.263688 
L 199.720974 536.29095 
L 202.156538 535.963802 
L 203.312398 535.473078 
L 204.344417 535.500341 
L 205.231953 535.309504 
L 206.160769 534.846043 
L 208.039043 533.56471 
L 208.864658 533.210299 
L 210.350764 531.956229 
L 211.279581 531.547293 
L 212.063915 530.83847 
L 212.641845 530.020598 
L 214.416917 526.449224 
L 214.974207 526.394699 
L 215.366374 525.767664 
L 216.150708 523.777509 
L 219.494447 517.370844 
L 219.762772 516.198561 
L 220.423264 514.37198 
L 221.84745 509.083075 
L 222.673064 507.038395 
L 223.250995 506.111473 
L 225.78976 499.37766 
L 226.285129 498.859674 
L 229.71143 493.81613 
L 230.310001 493.107308 
L 230.908571 492.180386 
L 232.002511 489.808557 
L 233.034529 487.573041 
L 234.025267 485.52836 
L 234.479355 484.38334 
L 235.924181 481.984248 
L 236.584673 481.275426 
L 237.245165 480.403029 
L 238.566148 478.085725 
L 239.866491 474.296251 
L 240.093535 473.178493 
L 240.423781 472.169784 
L 241.517721 470.125104 
L 243.457915 467.044453 
L 245.067864 463.663915 
L 245.666435 462.92783 
L 246.326927 462.382582 
L 247.420866 461.073987 
L 249.815149 457.502613 
L 250.310518 456.493904 
L 251.156773 454.285649 
L 252.560318 451.314048 
L 255.119724 446.979326 
L 257.968095 440.190988 
L 258.566665 439.536691 
L 259.041394 438.637031 
L 259.619324 438.009996 
L 260.610062 435.938054 
L 261.972326 433.375388 
L 262.694739 430.839985 
L 263.128187 429.504127 
L 264.345969 428.250057 
L 265.666952 427.186823 
L 266.182961 426.205377 
L 267.029216 423.997122 
L 267.937393 422.197804 
L 268.866209 420.044074 
L 270.434877 415.191367 
L 271.652659 412.38334 
L 276.110979 405.158803 
L 277.700287 403.850208 
L 278.732305 402.323514 
L 279.227674 401.532904 
L 281.869641 396.243998 
L 282.819098 393.87217 
L 284.119442 391.473078 
L 284.59417 390.846043 
L 285.316583 389.319349 
L 285.894513 386.484059 
L 286.451803 385.638925 
L 286.431163 383.566982 
L 285.997715 381.49504 
L 285.70875 378.905112 
L 285.461066 376.151609 
L 285.192741 372.961908 
L 284.986337 366.228095 
L 284.779933 365.164862 
L 284.945056 364.074366 
L 285.1721 363.229231 
L 285.15146 361.920636 
L 285.481706 359.739644 
L 285.750031 358.949034 
L 287.194857 356.277319 
L 287.731506 354.777887 
L 288.103033 353.90549 
L 288.557121 352.106172 
L 288.908007 349.979705 
L 288.949288 348.861946 
L 288.412638 342.400757 
L 286.183479 332.722605 
L 285.275302 330.268989 
L 284.119442 328.551458 
L 283.417669 327.679061 
L 282.757177 326.670352 
L 281.518755 324.271261 
L 278.856148 320.699886 
L 278.4227 319.882014 
L 278.154375 319.009618 
L 277.947971 316.41969 
L 278.236937 313.393563 
L 278.732305 310.776373 
L 279.083192 310.06755 
L 280.713781 304.260659 
L 281.931563 301.070958 
L 282.468212 300.198561 
L 282.963581 299.108065 
L 284.078161 297.417796 
L 284.862495 294.718819 
L 286.431163 291.938054 
L 287.752147 288.25763 
L 288.680963 286.431049 
L 290.76564 284.84983 
L 291.343571 284.468156 
L 292.354949 283.186823 
L 293.428248 282.341689 
L 294.728591 280.951306 
L 295.368443 280.187959 
L 296.627505 278.961151 
L 300.900061 274.381068 
L 302.282966 272.854373 
L 303.665871 271.68209 
L 305.606065 269.419311 
L 309.672218 265.54805 
L 312.355466 261.731314 
L 312.871475 260.66808 
L 318.237971 255.597274 
L 319.517674 253.879743 
L 320.136885 253.116395 
L 322.200922 251.371602 
L 323.542546 249.735858 
L 324.223678 248.945248 
L 324.966731 248.263688 
L 326.163873 246.573419 
L 327.237172 244.692314 
L 328.393032 241.802499 
L 328.909042 239.457933 
L 329.136086 235.968345 
L 329.156726 234.905112 
L 327.856383 230.624915 
L 327.7119 229.452632 
L 327.319733 227.462476 
L 327.010128 224.163726 
L 327.051408 222.28262 
L 326.57668 218.902083 
L 327.319733 213.831276 
L 327.69126 212.304582 
L 328.000865 210.80515 
L 327.959585 208.487846 
L 329.094805 203.635138 
L 329.425051 201.454146 
L 329.817218 199.736615 
L 330.312587 197.092162 
L 330.312587 195.892616 
L 330.642833 193.766149 
L 331.489088 188.395456 
L 331.757412 187.277698 
L 332.74815 184.796819 
L 334.192976 182.53404 
L 339.765875 176.236426 
L 341.293263 174.818781 
L 346.205671 170.811208 
L 348.723795 169.393563 
L 350.313104 168.630216 
L 351.79921 168.030443 
L 356.876741 165.440515 
L 357.722996 165.031579 
L 358.48669 164.404544 
L 359.291664 163.995608 
L 359.890235 163.45036 
L 360.984174 161.760091 
L 361.685947 159.633624 
L 361.912991 158.733964 
L 362.40836 157.725256 
L 362.738606 156.334873 
L 362.800527 154.999016 
L 362.532202 152.463612 
L 361.355701 148.619614 
L 359.60127 144.557516 
L 358.982059 143.439758 
L 358.342207 142.78546 
L 357.619794 141.885801 
L 355.968565 141.095191 
L 352.707387 141.013404 
L 351.634087 141.286028 
L 350.581429 141.367815 
L 349.54941 141.149716 
L 348.517392 141.231503 
L 347.547294 141.449602 
L 346.515276 141.858538 
L 345.565819 142.403786 
L 343.852668 143.030822 
L 343.233457 143.439758 
L 342.511045 143.766906 
L 341.767991 143.903218 
L 340.921736 144.557516 
L 340.096121 144.93919 
L 339.414989 145.075502 
L 336.855584 146.738508 
L 335.039231 148.456039 
L 333.615046 149.410223 
L 330.353867 150.091783 
L 329.38377 150.746081 
L 328.393032 151.809315 
L 327.13397 152.681711 
L 324.553924 153.499583 
L 323.439344 153.581371 
L 322.324764 153.308747 
L 321.230824 153.308747 
L 319.022305 152.654449 
L 317.990287 152.572662 
L 317.123391 152.927073 
L 316.566101 153.445059 
L 316.070732 152.927073 
L 315.513442 152.927073 
L 314.192459 151.591215 
L 314.027336 151.045967 
L 313.779651 150.746081 
L 313.470046 149.464748 
L 313.470046 147.583643 
L 313.552607 146.683983 
L 313.470046 145.838849 
L 313.573248 144.802878 
L 313.862213 143.685119 
L 315.038714 141.558652 
L 316.669303 139.513972 
L 318.465015 136.297009 
L 321.210184 132.643847 
L 322.63437 130.844529 
L 328.537515 122.420447 
L 328.991603 121.54805 
L 332.17022 116.886179 
L 334.99795 112.387883 
L 335.472679 111.106551 
L 335.988688 110.070579 
L 337.22711 108.434835 
L 337.536716 107.753275 
L 338.135286 105.708595 
L 338.568734 103.745702 
L 338.795778 103.009618 
L 339.167305 102.546157 
L 339.621393 102.437107 
L 340.075481 101.810072 
L 341.086859 99.601817 
L 343.006413 90.332601 
L 343.047694 87.906248 
L 343.027054 86.543128 
L 342.903212 85.943355 
L 342.84129 84.689284 
L 342.572966 85.180008 
L 342.345922 84.771072 
L 341.767991 82.671867 
L 340.859815 80.272775 
L 339.373708 76.728663 
L 337.165189 73.947899 
L 336.690461 73.102764 
L 335.51396 71.548807 
L 334.069134 69.913063 
L 330.312587 65.169406 
L 329.40441 64.378796 
L 328.516875 63.779023 
L 326.432197 59.77145 
L 325.503381 59.362514 
L 324.574564 59.335252 
L 323.604467 58.899053 
L 322.551808 58.980841 
L 321.726193 58.708217 
L 319.331911 56.881636 
L 317.247233 56.854373 
L 316.628022 56.636274 
L 316.008811 56.091026 
L 315.410241 55.79114 
L 313.511327 53.937296 
L 311.302807 52.519652 
L 310.456552 52.27429 
L 309.527735 52.328815 
L 308.557638 52.27429 
L 306.885768 51.456418 
L 305.3171 50.611284 
L 304.491486 50.556759 
L 303.748432 49.820674 
L 302.468729 48.321242 
L 301.725676 47.775994 
L 300.900061 47.39432 
L 300.053806 47.230746 
L 299.290113 46.876335 
L 297.391199 44.395456 
L 296.668786 44.177357 
L 295.78125 44.231882 
L 294.976276 44.150095 
L 293.325046 44.204619 
L 291.900861 44.09557 
L 291.219728 43.659371 
L 290.456035 43.822946 
L 289.568499 44.449981 
L 287.917269 44.504506 
L 287.091655 44.259144 
L 286.431163 43.223173 
L 285.68811 42.459826 
L 284.903776 41.451117 
L 282.468212 37.579856 
L 281.147229 36.298523 
L 278.484621 33.735858 
L 277.039795 32.917986 
L 275.553689 32.4 
L 274.728074 32.481787 
L 273.757977 33.054298 
L 272.664037 33.463234 
L 271.817782 33.626808 
L 271.033448 34.253843 
L 270.311035 35.180765 
L 269.733105 36.107686 
L 267.627787 38.043317 
L 267.029216 38.861189 
L 265.852715 40.960394 
L 264.96518 43.98652 
L 263.29331 47.094434 
L 261.827844 46.058463 
L 261.373755 45.567739 
L 260.919667 45.731314 
L 260.630702 46.222037 
L 260.176614 48.07588 
L 259.94957 50.093298 
L 259.990851 53.773722 
L 259.805087 54.646119 
L 259.619324 55.082317 
L 258.525385 56.281863 
L 257.741051 56.908898 
L 257.12184 57.072473 
L 256.977357 57.781295 
L 257.14248 59.280727 
L 257.369524 60.016812 
L 257.988735 60.343961 
L 258.793709 61.13457 
L 259.805087 61.870655 
L 260.589421 62.006967 
L 261.373755 62.988413 
L 262.158089 64.351534 
L 263.706117 67.568497 
L 265.460548 70.485574 
L 266.327444 71.630594 
L 267.070497 72.83014 
L 267.875472 73.457175 
L 269.506061 74.384097 
L 270.166552 74.956607 
L 272.498914 75.938054 
L 273.489652 77.110337 
L 274.686793 78.200833 
L 276.420584 79.700265 
L 278.752946 81.090647 
L 279.764324 81.499583 
L 280.445456 81.963044 
L 281.064667 82.562817 
L 281.642597 83.489739 
L 282.406291 84.389398 
L 283.273187 84.389398 
L 284.614811 84.089512 
L 285.378504 84.825596 
L 286.183479 87.170163 
L 286.389882 87.524574 
L 287.483822 91.095949 
L 288.144314 94.830897 
L 288.041112 96.248542 
L 287.772787 96.602953 
L 287.566383 97.339038 
L 287.525102 98.347747 
L 287.752147 101.073987 
L 287.710866 103.282242 
L 288.536481 106.526467 
L 289.63042 110.343203 
L 291.32293 113.314805 
L 291.900861 116.231882 
L 292.396229 117.240591 
L 292.602633 118.794548 
L 293.428248 121.166376 
L 293.572731 125.255736 
L 293.056721 127.409466 
L 292.953519 128.254601 
L 292.9948 129.04521 
L 292.747116 130.626429 
L 292.499431 131.19894 
L 292.148545 132.752897 
L 291.962782 133.652556 
L 291.508694 134.388641 
L 290.538596 135.397349 
L 289.960666 136.297009 
L 289.258893 136.76047 
L 287.752147 138.205377 
L 283.933678 140.686255 
L 283.45895 140.577206 
L 283.046143 140.658993 
L 281.704519 143.167134 
L 281.20915 144.25763 
L 280.65186 145.130027 
L 280.032649 145.648012 
L 279.351517 145.975161 
L 278.794227 146.056948 
L 278.175016 145.893374 
L 277.576445 146.084211 
L 277.225559 146.87482 
L 276.626988 147.201969 
L 275.925215 147.420068 
L 274.335907 147.529118 
L 273.592854 147.883529 
L 273.076844 148.34699 
L 272.705318 148.374252 
L 271.879703 147.256494 
L 271.322413 147.174707 
L 270.806404 147.638167 
L 269.134534 148.701401 
L 267.669068 148.892238 
L 267.111778 149.164862 
L 264.634934 151.07323 
L 262.921783 152.027414 
L 261.353115 153.11791 
L 260.5275 152.981598 
L 259.763807 153.172435 
L 257.926814 154.944491 
L 256.0279 156.471185 
L 255.243566 157.09822 
L 253.303371 159.306475 
L 252.828643 159.170163 
L 252.188791 159.333737 
L 250.640764 160.424233 
L 249.753228 160.369708 
L 248.968894 161.29663 
L 248.76249 161.97819 
L 247.957516 165.767664 
L 247.462147 167.566982 
L 246.781015 169.47535 
L 244.035846 175.527603 
L 243.024468 177.899432 
L 242.446537 179.12624 
L 240.650825 181.770693 
L 240.217378 182.670352 
L 237.740533 185.914578 
L 235.655856 187.032336 
L 234.788961 187.795683 
L 234.004627 188.177357 
L 231.321379 189.813101 
L 230.454483 190.2493 
L 228.906456 190.740023 
L 228.101481 191.012647 
L 227.255226 191.50337 
L 226.388331 191.585157 
L 225.459514 191.857781 
L 224.530697 192.512079 
L 223.663802 192.811965 
L 222.920749 193.302688 
L 222.280897 193.54805 
L 221.682327 193.54805 
L 220.75351 193.984248 
L 219.783413 194.284135 
L 219.10228 195.074744 
L 217.347849 197.74646 
L 216.646077 198.373495 
L 215.71726 198.918743 
L 214.107311 200.036501 
L 212.043274 199.954714 
L 209.752194 201.699508 
L 208.947219 202.026657 
L 208.224806 202.544642 
L 207.399191 202.762741 
L 206.656138 202.490117 
L 205.830523 202.680954 
L 204.984268 203.744188 
L 203.044074 207.070201 
L 202.362942 207.724498 
L 200.195703 209.142143 
L 198.833438 210.396214 
L 196.955165 212.468156 
L 194.99433 214.78546 
L 194.106794 216.693828 
L 193.405022 219.392806 
L 192.971574 220.128891 
L 191.299704 222.309883 
L 189.338869 225.635895 
L 189.049904 226.535555 
L 188.967342 227.517001 
L 189.235667 229.588944 
L 187.501876 232.478758 
L 187.047788 233.105793 
L 185.148874 237.058841 
L 184.529663 238.721848 
L 183.580206 240.602953 
L 183.064197 241.775237 
L 181.887696 244.501477 
L 181.124002 245.78281 
L 178.399474 251.8078 
L 177.759622 253.334495 
L 177.09913 254.915714 
L 176.851446 255.760848 
L 174.581005 260.749867 
L 173.528347 263.557895 
L 172.62017 264.893752 
L 169.441554 269.555623 
L 168.492097 270.973268 
L 167.790324 271.654828 
L 167.047271 272.118289 
L 166.366139 272.827111 
L 164.900672 273.917607 
L 163.414566 275.226202 
L 160.132747 278.361378 
L 158.60536 279.506399 
L 157.098613 280.297009 
L 154.724971 281.196668 
L 154.10576 281.169406 
L 151.360591 281.687391 
L 150.76202 281.687391 
L 150.266651 281.823703 
L 148.759904 284.05922 
L 146.613306 286.158425 
L 144.673111 289.293601 
L 144.342865 290.220523 
L 143.971339 292.510564 
L 142.91868 295.64574 
L 142.650355 296.572662 
L 142.237548 298.780916 
L 141.350012 302.515865 
L 141.081687 304.533283 
L 141.205529 308.377281 
L 141.638977 310.394699 
L 141.948583 311.103521 
L 142.093065 312.657478 
L 142.196267 313.747974 
L 142.216907 316.147066 
L 142.464592 317.946384 
L 142.031144 319.882014 
L 141.762819 320.808936 
L 141.473854 322.744566 
L 140.090949 327.706323 
L 139.492379 328.551458 
L 138.955729 329.069443 
L 137.469623 330.896024 
L 136.932973 331.359485 
L 136.355043 332.313669 
L 135.261103 333.867626 
L 134.765734 334.521924 
L 134.229085 335.039909 
L 133.258987 335.50337 
L 131.772881 336.784703 
L 131.360073 337.139114 
L 128.429141 338.665808 
L 127.541605 339.238319 
L 123.145207 340.983112 
L 120.420678 342.973268 
L 116.003639 345.699508 
L 115.054182 346.026657 
L 113.196549 346.381068 
L 110.637143 347.389777 
L 109.87345 347.553351 
L 108.284141 348.234911 
L 105.022963 350.197804 
L 102.484198 351.206513 
L 100.647205 352.378796 
L 99.305581 354.01454 
L 98.541887 355.186823 
L 97.840115 356.031958 
L 97.138342 356.577206 
L 96.415929 356.958879 
L 95.693516 357.53139 
L 94.475735 358.976297 
L 91.99889 362.765771 
L 91.482881 363.392806 
L 89.934854 364.510564 
L 88.448747 365.546535 
L 87.767615 366.337145 
L 86.880079 368.136463 
L 85.703578 369.79947 
L 84.919244 370.59008 
L 83.226734 372.116774 
L 82.091514 373.425369 
L 81.30718 375.033851 
L 80.811811 375.878985 
L 79.903634 378.278076 
L 79.09866 381.004317 
L 77.901519 383.348883 
L 77.529992 384.303067 
L 77.055264 385.011889 
L 75.011867 389.373874 
L 74.433937 392.563574 
L 74.495858 393.76312 
L 74.805463 394.826354 
L 74.722902 396.898296 
L 74.888025 397.934267 
L 75.073788 399.951685 
L 74.103691 402.514351 
L 74.186252 403.959258 
L 74.330735 404.66808 
L 74.289454 405.431427 
L 73.711524 407.094434 
L 73.443199 409.084589 
L 73.092313 413.037637 
L 73.794085 415.273154 
L 75.362753 419.853237 
L 76.27093 421.761605 
L 78.128563 424.324271 
L 78.376247 425.087618 
L 79.036739 430.185687 
L 79.903634 436.210678 
L 79.573389 439.945627 
L 79.738512 444.607497 
L 80.027477 445.20727 
L 80.1926 446.025142 
L 80.21324 446.952064 
L 79.821073 449.487467 
L 78.809695 452.595381 
L 78.128563 454.776373 
L 77.591913 457.557137 
L 76.497974 459.356456 
L 75.073788 460.746838 
L 74.268814 461.56471 
L 73.608322 462.655206 
L 72.266698 464.209163 
L 70.594828 466.117531 
L 68.861037 468.952821 
L 66.095228 472.878607 
L 65.517298 473.614691 
L 64.856806 474.187202 
L 64.175674 474.568875 
L 63.494541 474.323514 
L 60.460407 472.442408 
L 58.747257 470.697615 
L 56.002088 467.753275 
L 55.300315 466.744566 
L 54.557262 465.899432 
L 52.410663 464.209163 
L 51.564408 462.546157 
L 51.08968 462.46437 
L 50.573671 461.837334 
L 49.830617 461.482923 
L 49.149485 461.319349 
L 48.365151 461.537448 
L 47.539536 461.373874 
L 46.528158 461.537448 
L 44.36092 462.24627 
L 40.790136 463.882014 
L 40.294767 463.854752 
L 39.097626 463.445816 
L 38.23073 463.500341 
L 36.827185 461.837334 
L 34.804429 458.920257 
L 34.205858 458.702158 
L 33.813691 457.911549 
L 33.297682 457.666187 
L 32.864234 457.066414 
L 31.708374 456.084968 
L 30.841478 455.566982 
L 30.841478 455.566982 
" clip-path="url(#p7910126655)" style="fill: none; stroke: #000000; stroke-width: 3"/>
   </g>
  </g>
 </g>
 <defs>
  <clipPath id="p7910126655">
   <rect x="7.2" y="7.2" width="372.533885" height="554.4"/>
  </clipPath>
 </defs>
</svg>
