<?xml version="1.0" encoding="utf-8" standalone="no"?>
<!DOCTYPE svg PUBLIC "-//W3C//DTD SVG 1.1//EN"
  "http://www.w3.org/Graphics/SVG/1.1/DTD/svg11.dtd">
<svg xmlns:xlink="http://www.w3.org/1999/xlink" width="306.37693pt" height="568.8pt" viewBox="0 0 306.37693 568.8" xmlns="http://www.w3.org/2000/svg" version="1.1">
 <metadata>
  <rdf:RDF xmlns:dc="http://purl.org/dc/elements/1.1/" xmlns:cc="http://creativecommons.org/ns#" xmlns:rdf="http://www.w3.org/1999/02/22-rdf-syntax-ns#">
   <cc:Work>
    <dc:type rdf:resource="http://purl.org/dc/dcmitype/StillImage"/>
    <dc:date>2022-07-01T05:15:00.829527</dc:date>
    <dc:format>image/svg+xml</dc:format>
    <dc:creator>
     <cc:Agent>
      <dc:title>Matplotlib v3.5.2, https://matplotlib.org/</dc:title>
     </cc:Agent>
    </dc:creator>
   </cc:Work>
  </rdf:RDF>
 </metadata>
 <defs>
  <style type="text/css">*{stroke-linejoin: round; stroke-linecap: butt}</style>
 </defs>
 <g id="figure_1">
  <g id="patch_1">
   <path d="M 0 568.8 
L 306.37693 568.8 
L 306.37693 0 
L 0 0 
z
" style="fill: #ffffff"/>
  </g>
  <g id="axes_1">
   <g id="LineCollection_1">
    <path d="M 192.432215 38.112142 
L 193.894465 38.711318 
L 195.618911 39.789834 
L 198.392142 41.680566 
L 200.802333 42.466152 
L 201.619176 42.426207 
L 203.152017 41.121336 
L 204.009197 39.683314 
L 204.664688 39.257233 
L 205.239504 38.671373 
L 206.056346 37.446391 
L 207.165639 36.16815 
L 207.700117 36.208095 
L 210.332166 37.379816 
L 213.589452 38.258607 
L 220.598165 40.30912 
L 222.534385 41.201226 
L 225.317701 43.012068 
L 227.869075 44.649815 
L 235.533279 51.041023 
L 236.440882 51.453788 
L 238.346848 52.079594 
L 242.229373 53.437726 
L 245.204294 54.596132 
L 247.059838 55.621389 
L 255.611477 58.856938 
L 259.816704 61.386791 
L 261.410052 62.625087 
L 262.085712 63.370728 
L 263.225258 65.04842 
L 264.132861 66.899207 
L 264.485818 67.911149 
L 264.869028 69.868456 
L 265.726209 74.528712 
L 266.603559 77.36481 
L 267.470824 79.149023 
L 268.096062 80.200909 
L 270.395323 82.717447 
L 273.430751 86.232611 
L 275.024099 86.858417 
L 276.35525 87.896988 
L 280.530224 93.955321 
L 281.689939 95.659643 
L 285.229591 99.880503 
L 285.592633 100.572884 
L 285.784238 101.238635 
L 285.905252 102.104111 
L 285.814491 102.956272 
L 285.06824 104.620649 
L 281.7807 111.038487 
L 278.846116 118.148705 
L 277.726739 121.61061 
L 276.637615 123.448082 
L 274.812325 128.041763 
L 274.207256 129.146909 
L 273.783708 130.198795 
L 273.15847 132.329198 
L 272.714753 133.540864 
L 272.119769 134.632696 
L 271.363433 135.404967 
L 270.718026 136.416908 
L 270.102873 137.162549 
L 269.245692 139.426102 
L 268.640623 140.451358 
L 265.816969 147.175441 
L 265.080802 149.731924 
L 264.274044 152.168572 
L 262.71095 153.819634 
L 261.873938 154.485385 
L 259.494001 156.961978 
L 258.677158 157.747564 
L 257.971245 158.626355 
L 256.972881 160.676868 
L 255.470294 163.978992 
L 254.078636 167.147966 
L 252.929005 169.065328 
L 246.92874 180.569502 
L 245.637927 182.207249 
L 244.952182 182.92626 
L 244.377367 183.778421 
L 243.459679 185.709099 
L 241.79574 189.730234 
L 238.810734 195.535581 
L 238.205666 196.401057 
L 236.57198 199.210525 
L 233.728157 202.499334 
L 232.639033 204.576477 
L 230.733067 208.757392 
L 227.253921 214.629314 
L 226.779951 215.62794 
L 226.467332 216.773032 
L 226.074037 219.39609 
L 225.912686 220.740907 
L 225.277364 221.579753 
L 224.178155 223.603635 
L 223.431904 224.269386 
L 222.867173 225.214752 
L 220.275462 228.556821 
L 217.915694 232.458121 
L 216.181163 235.214329 
L 214.950857 236.892022 
L 213.83148 239.049054 
L 212.792778 241.285977 
L 211.239769 243.003614 
L 210.291828 244.960921 
L 209.394309 246.984804 
L 205.562207 253.522477 
L 202.98058 256.744711 
L 201.780527 258.315883 
L 201.014107 259.421029 
L 198.170284 264.001395 
L 197.343357 265.093226 
L 196.960146 265.466047 
L 196.69795 266.091852 
L 196.153388 268.035845 
L 195.336545 269.753482 
L 194.439027 271.497749 
L 192.865848 275.478939 
L 192.139765 277.635972 
L 191.393514 279.593279 
L 190.001856 282.296227 
L 189.527885 283.108443 
L 188.670705 283.641044 
L 187.127779 286.503773 
L 184.717589 291.310494 
L 183.608296 293.121336 
L 182.67044 295.065328 
L 182.135962 295.984064 
L 179.977884 301.176921 
L 179.382899 302.015767 
L 178.636648 302.721463 
L 177.71896 303.839924 
L 177.144145 304.89181 
L 175.702065 308.153989 
L 174.239815 311.429483 
L 172.959086 313.17375 
L 169.953912 319.285343 
L 167.805917 323.546148 
L 167.47313 324.757815 
L 167.342031 325.982796 
L 166.908399 327.141203 
L 165.032686 330.137081 
L 164.104914 332.587044 
L 163.89314 333.945176 
L 163.288071 334.903857 
L 162.753593 335.995688 
L 161.402273 337.913051 
L 160.161882 340.123344 
L 159.385377 342.480101 
L 158.215578 344.304259 
L 155.694458 347.699588 
L 154.746517 349.843306 
L 152.406918 353.291895 
L 151.993454 354.317151 
L 151.39847 355.262517 
L 150.974922 356.327718 
L 150.712726 357.459495 
L 150.319431 358.511381 
L 149.734531 359.443432 
L 148.292451 361.041234 
L 147.294087 361.733615 
L 146.477244 362.479256 
L 145.488965 364.250153 
L 144.591447 366.087625 
L 144.14773 366.833266 
L 143.643506 367.365867 
L 141.888806 368.537589 
L 141.475343 369.190024 
L 140.648415 370.987552 
L 140.093769 371.906288 
L 138.782787 375.155152 
L 138.480252 376.260298 
L 138.389492 377.53854 
L 138.157549 378.763521 
L 137.532311 379.455902 
L 136.251583 379.149657 
L 135.333895 379.349382 
L 134.517052 379.908612 
L 133.911983 380.760774 
L 132.943873 382.944436 
L 130.88664 385.68733 
L 130.281571 386.659326 
L 129.202532 390.01471 
L 128.597463 392.011962 
L 127.851212 394.02253 
L 126.711665 394.04916 
L 126.066259 394.50187 
L 125.541866 395.140991 
L 124.906544 396.579013 
L 124.432573 397.218134 
L 122.375339 401.359104 
L 122.042552 402.27784 
L 121.467736 404.195202 
L 120.106332 407.577217 
L 119.491178 408.629103 
L 119.380249 409.321484 
L 119.491178 410.226905 
L 118.281041 410.05381 
L 117.655803 411.332051 
L 116.516257 414.14152 
L 115.628823 416.937673 
L 115.427133 417.350439 
L 113.743025 417.417014 
L 113.238801 417.483589 
L 112.522803 418.76183 
L 111.806805 420.106647 
L 111.595031 420.838973 
L 110.586583 422.34357 
L 110.183204 422.836225 
L 110.072275 423.182416 
L 107.863774 426.657635 
L 106.361187 430.159484 
L 105.907385 430.9717 
L 104.848515 432.462982 
L 103.719053 436.377597 
L 103.325758 438.48137 
L 102.347564 440.704977 
L 100.360922 442.316094 
L 99.362558 444.220142 
L 98.969264 445.165508 
L 98.46504 446.017669 
L 96.932199 450.185269 
L 94.905218 452.914847 
L 94.431248 453.460763 
L 93.281617 455.591166 
L 92.94883 456.509902 
L 92.676549 458.467209 
L 91.768945 459.306055 
L 90.891596 459.958491 
L 90.296612 460.810652 
L 89.146981 463.580175 
L 87.775492 466.296439 
L 86.313242 468.280376 
L 85.254372 469.665138 
L 83.822376 472.581126 
L 82.894604 474.418599 
L 82.713083 475.2175 
L 78.689376 485.017352 
L 77.741435 487.081179 
L 77.388478 488.079806 
L 76.924592 488.958597 
L 75.543019 490.489824 
L 75.079133 491.67486 
L 73.929502 495.136764 
L 72.880716 497.892973 
L 72.517675 499.104639 
L 73.415194 502.420078 
L 73.011814 503.658375 
L 72.547928 504.657001 
L 71.852099 505.256177 
L 70.954581 505.642312 
L 69.956217 505.908612 
L 69.361233 506.840664 
L 68.937685 507.97244 
L 66.920789 512.179985 
L 65.710652 513.791102 
L 64.591274 515.468794 
L 64.087051 516.400845 
L 63.350884 518.597823 
L 62.876913 520.009215 
L 62.06007 520.808116 
L 60.32554 521.846687 
L 59.44819 522.339343 
L 58.490165 522.552383 
L 57.733829 523.298024 
L 56.019467 526.080862 
L 55.525328 527.106119 
L 54.920259 527.93165 
L 52.752096 530.155257 
L 50.05954 535.760879 
L 49.525063 536.386685 
L 48.879656 536.4 
L 47.437576 535.441319 
L 45.80389 534.442693 
L 44.956794 534.016612 
L 39.279232 530.088682 
L 38.492643 529.356356 
L 37.76656 528.46425 
L 37.322843 527.265899 
L 36.879126 524.802621 
L 36.274057 523.737419 
L 35.386623 521.367347 
L 35.023582 520.195625 
L 34.438682 516.533996 
L 33.873951 515.77504 
L 32.331026 514.337018 
L 31.28224 513.764472 
L 26.310592 512.1933 
L 22.367561 512.499546 
L 21.570887 512.24656 
L 21.026325 511.90037 
L 21.006156 510.515608 
L 21.147339 509.889802 
L 21.591056 509.423777 
L 21.691901 508.664821 
L 22.105364 508.252055 
L 21.086832 508.0257 
L 20.854889 507.78603 
L 20.562439 507.70614 
L 20.592692 507.67951 
L 20.572523 507.559675 
L 20.471679 506.680883 
L 21.086832 505.216232 
L 21.903675 503.844785 
L 23.224741 501.221727 
L 24.051669 499.490775 
L 24.586146 498.691874 
L 24.99961 497.839713 
L 28.710698 491.94116 
L 29.315767 490.636289 
L 29.507372 489.850703 
L 29.910751 489.131692 
L 31.534352 486.948029 
L 32.562969 485.296967 
L 32.885672 484.458121 
L 32.431871 483.68585 
L 32.573053 482.926894 
L 34.600034 478.053598 
L 35.205103 477.028342 
L 39.097711 471.795541 
L 42.365083 465.311128 
L 44.321472 461.795963 
L 45.541694 461.063637 
L 46.378705 460.264736 
L 49.061177 456.643052 
L 50.1503 454.85884 
L 52.409224 449.066808 
L 53.236151 446.92309 
L 55.000935 441.384043 
L 57.885096 437.655839 
L 60.295286 435.498806 
L 61.697029 432.689337 
L 62.433196 430.226059 
L 62.957589 429.214118 
L 64.167726 427.789411 
L 65.297188 425.898679 
L 66.295551 423.941372 
L 66.456903 422.92943 
L 66.42665 421.944119 
L 66.799775 421.012068 
L 66.880451 421.478094 
L 66.729184 422.39683 
L 66.51741 422.276995 
L 66.053524 422.26368 
L 65.004738 421.518039 
L 65.337526 420.386262 
L 67.414929 417.829779 
L 72.376492 412.650238 
L 73.314349 410.866026 
L 74.080769 408.988608 
L 75.805215 402.930276 
L 76.359862 400.493628 
L 76.743072 399.747987 
L 77.106113 397.81731 
L 77.287634 396.898573 
L 77.307803 395.873317 
L 77.791858 394.28883 
L 77.529661 393.023904 
L 77.136366 392.624453 
L 77.408647 392.318208 
L 79.516303 391.745662 
L 80.494498 390.693776 
L 81.886156 389.375589 
L 82.793759 387.218556 
L 82.632407 385.95363 
L 82.491225 385.314509 
L 82.622323 383.184107 
L 82.945026 382.118905 
L 83.418997 380.947184 
L 85.859441 376.193723 
L 86.313242 375.235042 
L 87.059494 372.225848 
L 88.985629 369.176709 
L 91.063032 364.409933 
L 91.325228 363.411307 
L 91.698354 362.519201 
L 93.049674 360.428744 
L 93.654743 358.471436 
L 94.078291 355.355722 
L 94.824543 354.476931 
L 96.095187 353.54488 
L 97.698619 352.652774 
L 98.949095 350.708782 
L 99.423065 349.80336 
L 100.058387 347.033837 
L 100.67354 345.50261 
L 101.197933 343.958068 
L 101.359285 343.265687 
L 101.661819 342.826292 
L 102.42824 340.442904 
L 104.586318 337.30056 
L 104.999782 336.048949 
L 106.280511 334.544352 
L 107.248621 332.160964 
L 108.549519 330.270231 
L 109.114249 329.39144 
L 109.951261 328.339554 
L 112.895929 323.572778 
L 114.388432 321.575526 
L 115.538063 319.338603 
L 116.07254 318.180197 
L 116.828876 315.730234 
L 117.101157 313.546571 
L 118.109605 311.775674 
L 119.319742 310.004776 
L 120.126501 309.125985 
L 124.20063 305.424411 
L 126.52006 302.881243 
L 130.079881 299.565804 
L 130.563936 298.633753 
L 130.785795 297.661756 
L 130.68495 296.729705 
L 130.200895 295.970749 
L 129.575657 295.238423 
L 128.829406 294.572673 
L 124.886375 291.829779 
L 124.230884 290.564853 
L 123.403956 289.845842 
L 119.632361 287.688809 
L 118.281041 286.770073 
L 116.778454 285.917912 
L 114.72122 284.42663 
L 111.99841 282.868773 
L 111.363088 282.456008 
L 110.657175 282.136447 
L 108.650363 280.725055 
L 107.016678 279.753059 
L 104.677079 277.982162 
L 103.144238 276.930276 
L 100.744132 275.678664 
L 99.796191 275.319159 
L 98.021322 274.094177 
L 96.286792 272.789306 
L 93.755588 271.244764 
L 92.232832 270.073042 
L 90.42771 269.673592 
L 89.560445 269.633647 
L 86.222482 267.75623 
L 85.324963 267.250259 
L 83.711447 265.812237 
L 83.338321 264.880186 
L 82.834097 261.458227 
L 83.166885 258.981634 
L 83.731616 256.731396 
L 84.185417 255.73277 
L 84.538374 254.640938 
L 84.669472 253.256177 
L 85.042598 252.057825 
L 86.212398 250.100518 
L 87.382197 248.06332 
L 89.378924 244.614731 
L 91.506749 241.032992 
L 93.019421 238.396618 
L 93.947193 236.692296 
L 94.441332 235.893395 
L 95.35902 231.352975 
L 95.570794 230.261143 
L 96.992706 228.650026 
L 100.602949 223.03109 
L 101.520637 221.087097 
L 102.771112 219.222995 
L 104.36446 216.187171 
L 104.979613 215.4149 
L 105.735949 215.028765 
L 106.320849 214.349699 
L 106.260342 214.323069 
L 106.431778 213.830413 
L 107.672169 211.952996 
L 109.457122 208.997062 
L 110.082359 208.344626 
L 112.028664 205.135707 
L 112.613564 204.030561 
L 115.336373 199.889591 
L 116.617102 196.853767 
L 117.504536 194.989665 
L 120.953428 189.410673 
L 122.435846 186.72104 
L 123.303111 184.950143 
L 125.683049 180.689337 
L 126.560398 178.851865 
L 129.142025 174.5378 
L 133.337168 167.587361 
L 134.113673 165.856409 
L 135.545669 163.632801 
L 136.382681 161.995054 
L 139.448362 156.882088 
L 140.739176 154.31229 
L 142.241763 151.915587 
L 144.349419 148.307218 
L 146.225132 144.645588 
L 148.211775 140.904068 
L 149.300898 139.119856 
L 150.198417 137.255754 
L 152.638861 131.157476 
L 153.82883 129.519729 
L 154.786855 127.415957 
L 155.886063 125.53854 
L 156.541554 124.673064 
L 164.780574 110.372736 
L 167.594143 105.699165 
L 168.925295 102.996217 
L 174.118801 94.381401 
L 176.155866 90.546677 
L 182.993143 78.336807 
L 183.981422 76.659114 
L 184.858772 74.901532 
L 188.287494 66.672852 
L 189.04383 65.474501 
L 190.344728 63.823439 
L 190.667431 63.210948 
L 191.18174 61.20038 
L 191.111149 60.654465 
L 190.838868 60.175124 
L 190.314475 59.615893 
L 189.62873 59.216443 
L 188.509353 58.337652 
L 185.625192 57.312396 
L 181.419964 54.489612 
L 175.772656 51.067653 
L 174.058294 50.215492 
L 172.444778 49.176921 
L 170.155601 47.552489 
L 167.826086 46.434027 
L 166.222654 45.635126 
L 164.770489 44.9028 
L 163.096466 44.66313 
L 160.928303 43.464779 
L 158.548366 41.946867 
L 155.593613 40.016189 
L 155.079305 39.643369 
L 152.880888 38.924358 
L 151.136274 37.499651 
L 150.420276 37.180091 
L 149.704278 37.006996 
L 148.332788 36.367875 
L 146.08395 35.169523 
L 143.290549 33.744817 
L 142.029989 32.50652 
L 141.868637 32.4 
L 141.868637 32.4 
" clip-path="url(#p4017a54621)" style="fill: none; stroke: #000000; stroke-width: 3"/>
   </g>
  </g>
 </g>
 <defs>
  <clipPath id="p4017a54621">
   <rect x="7.2" y="7.2" width="291.97693" height="554.4"/>
  </clipPath>
 </defs>
</svg>
