<?xml version="1.0" encoding="utf-8" standalone="no"?>
<!DOCTYPE svg PUBLIC "-//W3C//DTD SVG 1.1//EN"
  "http://www.w3.org/Graphics/SVG/1.1/DTD/svg11.dtd">
<svg xmlns:xlink="http://www.w3.org/1999/xlink" width="314.313465pt" height="568.8pt" viewBox="0 0 314.313465 568.8" xmlns="http://www.w3.org/2000/svg" version="1.1">
 <metadata>
  <rdf:RDF xmlns:dc="http://purl.org/dc/elements/1.1/" xmlns:cc="http://creativecommons.org/ns#" xmlns:rdf="http://www.w3.org/1999/02/22-rdf-syntax-ns#">
   <cc:Work>
    <dc:type rdf:resource="http://purl.org/dc/dcmitype/StillImage"/>
    <dc:date>2022-07-04T05:11:35.401682</dc:date>
    <dc:format>image/svg+xml</dc:format>
    <dc:creator>
     <cc:Agent>
      <dc:title>Matplotlib v3.5.2, https://matplotlib.org/</dc:title>
     </cc:Agent>
    </dc:creator>
   </cc:Work>
  </rdf:RDF>
 </metadata>
 <defs>
  <style type="text/css">*{stroke-linejoin: round; stroke-linecap: butt}</style>
 </defs>
 <g id="figure_1">
  <g id="patch_1">
   <path d="M 0 568.8 
L 314.313465 568.8 
L 314.313465 0 
L 0 0 
z
" style="fill: #ffffff"/>
  </g>
  <g id="axes_1">
   <g id="LineCollection_1">
    <path d="M 159.526438 171.502173 
L 160.851118 172.056094 
L 161.27796 172.376785 
L 163.993554 173.358294 
L 165.281437 173.951087 
L 166.179276 174.281495 
L 166.613477 174.553597 
L 167.540753 174.952031 
L 171.411762 177.128843 
L 172.206571 176.652666 
L 173.862421 174.514725 
L 174.701385 173.193089 
L 175.106148 172.240734 
L 175.739051 171.618788 
L 176.055502 171.434148 
L 177.07845 171.745121 
L 179.978027 173.057039 
L 182.413967 173.931651 
L 184.113973 174.388392 
L 185.821338 174.961749 
L 188.242559 176.331975 
L 190.251657 177.721636 
L 192.422661 178.625402 
L 194.468556 180.35519 
L 195.226567 181.093751 
L 196.014016 181.258955 
L 197.588913 181.929491 
L 200.429616 183.173384 
L 203.454303 184.271508 
L 204.204955 184.611634 
L 205.588509 185.437657 
L 206.302365 185.709758 
L 207.744794 186.108193 
L 209.172505 186.63296 
L 210.637012 187.109138 
L 212.005849 187.818545 
L 213.249576 188.800054 
L 215.118847 189.93705 
L 216.281622 191.00602 
L 217.120586 192.201323 
L 217.8418 193.901957 
L 218.217126 195.583156 
L 218.886826 199.70355 
L 219.446135 201.297287 
L 220.196787 202.745256 
L 221.168219 204.183507 
L 222.588571 205.709219 
L 227.423653 210.334944 
L 228.704177 212.822729 
L 229.108941 213.784802 
L 230.573448 215.689513 
L 232.685577 218.157862 
L 233.693806 219.265704 
L 233.944023 219.868214 
L 233.921945 220.499879 
L 233.436229 221.860386 
L 229.749203 229.498664 
L 226.930578 234.833797 
L 226.209363 236.359509 
L 224.384248 240.246673 
L 221.403718 246.524443 
L 220.579473 247.93354 
L 219.512369 250.236685 
L 218.746999 251.801269 
L 218.246564 252.559266 
L 216.40673 254.570873 
L 215.611922 255.892509 
L 214.875989 257.311324 
L 212.808016 261.043002 
L 211.188963 264.998191 
L 205.846086 275.726765 
L 204.977685 277.427399 
L 203.439584 279.837441 
L 200.775505 284.735268 
L 199.885026 286.115211 
L 197.360774 290.255041 
L 196.646919 291.800189 
L 196.30103 292.626211 
L 195.373754 293.938129 
L 194.41704 294.968228 
L 193.946043 295.463841 
L 192.812706 296.357889 
L 192.407942 296.902092 
L 190.788889 300.157592 
L 190.214861 301.605561 
L 190.163345 303.092401 
L 189.015289 306.124389 
L 185.438653 310.030989 
L 184.533455 311.488676 
L 183.893193 313.062977 
L 183.606179 313.811257 
L 183.171978 314.510946 
L 181.965047 315.822864 
L 181.575003 316.580861 
L 180.552055 319.136672 
L 176.761998 328.310379 
L 175.628661 329.583426 
L 173.369345 333.460872 
L 173.251596 333.810717 
L 173.038175 334.0731 
L 172.626053 334.296612 
L 172.066743 335.074045 
L 170.101801 338.397571 
L 168.173656 340.622972 
L 167.503956 341.70166 
L 166.701789 343.373141 
L 165.789231 345.491645 
L 164.972345 345.919233 
L 164.471911 346.735538 
L 161.439865 353.353435 
L 160.174059 357.250317 
L 159.254143 358.601107 
L 158.84202 359.09672 
L 157.362794 361.924632 
L 156.707813 363.547523 
L 154.352826 368.105223 
L 153.86711 368.824349 
L 153.271004 369.387988 
L 152.505634 369.737832 
L 151.534201 369.689243 
L 150.746753 369.397705 
L 150.032897 368.950682 
L 149.289605 368.639708 
L 148.465359 368.561965 
L 147.155398 369.047861 
L 146.58137 369.456013 
L 145.712968 370.563855 
L 145.300846 371.09834 
L 144.726818 371.545364 
L 144.005603 371.827183 
L 143.269669 371.730004 
L 142.577892 371.496774 
L 141.908193 371.108058 
L 140.406888 370.903982 
L 137.264453 370.000216 
L 135.733711 369.553192 
L 133.606864 368.357889 
L 130.88391 366.900202 
L 129.426762 366.25882 
L 127.344071 365.248158 
L 125.945797 364.577622 
L 123.863106 363.217114 
L 123.200766 362.517425 
L 116.937972 358.523363 
L 113.677788 356.813011 
L 112.397263 356.142475 
L 109.902449 354.986044 
L 108.842705 354.334944 
L 106.450922 353.159077 
L 104.014982 351.652801 
L 103.396798 351.730544 
L 103.146581 351.847159 
L 102.469522 353.800459 
L 100.695922 358.290134 
L 100.438346 359.446565 
L 100.004145 360.573843 
L 99.488992 362.915859 
L 99.231415 363.197678 
L 98.613231 363.46978 
L 97.914094 364.946902 
L 97.310629 367.007099 
L 95.559107 369.941908 
L 94.911486 370.534701 
L 94.433129 371.234391 
L 92.644811 376.394601 
L 92.122298 377.201188 
L 91.386365 378.91154 
L 90.569479 380.612174 
L 89.141768 382.925037 
L 87.956915 385.529437 
L 87.088514 387.074585 
L 86.727907 387.890889 
L 85.36643 389.338858 
L 83.740017 392.487461 
L 82.687632 395.354245 
L 81.914902 397.268673 
L 80.715331 399.853637 
L 80.384161 400.718532 
L 79.501041 404.800054 
L 78.536968 406.675611 
L 77.653848 407.472479 
L 76.682416 408.07499 
L 75.814014 408.891294 
L 74.805786 410.669672 
L 73.922665 413.789121 
L 72.244737 417.443056 
L 71.486726 421.495424 
L 71.015729 423.361263 
L 70.853823 424.333054 
L 70.103171 426.082278 
L 69.713126 426.898583 
L 68.991912 427.530247 
L 67.954246 427.763477 
L 67.004892 428.434013 
L 65.437353 428.949062 
L 64.81181 429.629316 
L 63.339943 431.825564 
L 63.001414 432.661304 
L 62.449464 434.439681 
L 62.147731 435.294858 
L 62.287558 436.529032 
L 62.662884 437.918693 
L 63.325225 439.230611 
L 63.501849 440.396761 
L 63.273709 441.339398 
L 62.891024 442.116831 
L 62.294918 442.777649 
L 61.845998 443.535646 
L 61.05119 445.226562 
L 60.028243 446.723121 
L 59.137764 448.239115 
L 59.042092 449.123444 
L 58.262003 450.600567 
L 56.392732 453.311864 
L 55.656799 454.915319 
L 54.965021 456.479903 
L 53.743372 458.656715 
L 53.309171 459.356404 
L 52.602675 459.677095 
L 52.146396 460.376785 
L 51.182323 462.757673 
L 50.247688 465.109407 
L 49.791409 465.789661 
L 49.151147 466.421325 
L 47.613047 467.305655 
L 47.12733 467.879012 
L 46.052868 469.744851 
L 45.36845 471.037333 
L 43.248961 472.621352 
L 42.476231 474.030449 
L 41.482721 476.285005 
L 40.61432 478.646457 
L 39.105656 481.649291 
L 37.545478 482.922338 
L 36.426859 483.058388 
L 35.580535 483.534566 
L 35.028585 484.175948 
L 34.123387 485.662789 
L 33.291783 487.198218 
L 32.835504 487.897908 
L 31.65801 489.277851 
L 30.752812 490.754974 
L 29.78138 492.67912 
L 29.626834 493.087272 
L 29.170556 493.835551 
L 28.412544 494.506087 
L 27.507346 495.886031 
L 26.837647 497.265974 
L 25.947167 499.530247 
L 25.240671 500.093886 
L 23.59954 502.134647 
L 22.893044 503.407693 
L 21.995205 504.457228 
L 20.994336 505.506762 
L 20.83243 505.817735 
L 21.067929 506.109273 
L 22.083517 506.692347 
L 24.644565 507.809907 
L 25.270109 507.984829 
L 27.345441 508.16947 
L 28.67748 508.567904 
L 29.303024 508.82057 
L 31.312122 509.141261 
L 34.675337 510.142205 
L 36.161923 510.764152 
L 37.545478 511.288919 
L 38.318208 511.522149 
L 38.914314 511.978891 
L 39.024704 512.280146 
L 39.216046 512.591119 
L 39.84159 513.193629 
L 40.025573 514.175138 
L 40.378821 515.205237 
L 40.577523 515.710568 
L 41.946359 516.575462 
L 43.506538 517.741612 
L 45.02992 518.946632 
L 45.832088 519.636604 
L 48.415214 521.259495 
L 48.959805 522.522824 
L 49.916518 523.504333 
L 51.623884 524.553867 
L 52.911767 525.117506 
L 54.126057 525.914374 
L 55.340347 527.041652 
L 56.988838 528.965798 
L 58.063301 530.025051 
L 60.352054 532.337913 
L 60.889285 532.143555 
L 61.360282 531.8423 
L 61.632578 531.978351 
L 61.662015 532.162991 
L 61.183658 533.018167 
L 60.219586 534.854852 
L 59.18192 536.4 
L 58.173691 536.098745 
L 56.274983 536.021001 
L 54.243806 535.573978 
L 52.87497 534.86457 
L 51.520853 533.989958 
L 49.747253 532.425375 
L 45.434684 529.684924 
L 43.432945 528.013443 
L 41.585752 526.643218 
L 41.144192 526.235065 
L 40.621679 525.962964 
L 40.010855 525.972682 
L 39.422108 525.671427 
L 38.141584 523.931921 
L 37.030324 523.115616 
L 37.663227 520.987394 
L 38.082709 520.005885 
L 38.171021 518.927197 
L 38.686174 517.624997 
L 39.274921 516.604616 
L 39.554576 516.031259 
L 40.187479 515.370441 
L 41.019083 513.640653 
L 42.82212 510.151923 
L 43.82299 508.062573 
L 45.405246 505.341558 
L 46.082305 503.864435 
L 47.281876 501.736213 
L 48.003091 500.288244 
L 49.173225 498.091996 
L 50.328641 495.759698 
L 50.917387 494.107653 
L 52.021288 491.658739 
L 53.478436 489.326441 
L 54.332118 487.946498 
L 56.267623 484.63269 
L 57.062431 483.524848 
L 59.005296 480.356809 
L 59.535168 479.754299 
L 62.243402 474.079039 
L 63.016133 471.707869 
L 64.451203 468.879957 
L 65.14298 467.927602 
L 65.636055 466.761452 
L 66.099693 465.294048 
L 66.725237 463.972412 
L 68.417884 461.348576 
L 69.12438 460.065812 
L 69.646892 459.667378 
L 71.015729 457.131003 
L 71.089322 456.382724 
L 71.751662 454.944473 
L 72.487595 453.622837 
L 74.010977 450.367337 
L 74.481975 449.19147 
L 74.776348 447.733783 
L 75.276783 447.111837 
L 75.696265 446.761992 
L 76.343886 445.304306 
L 78.205798 442.194574 
L 79.412729 441.844729 
L 82.017933 437.403644 
L 82.672914 435.780753 
L 82.672914 435.081064 
L 83.04824 434.021811 
L 83.916641 432.223998 
L 84.321404 431.067566 
L 84.490669 429.386368 
L 84.549544 428.783857 
L 85.381148 426.888865 
L 86.882453 424.391362 
L 87.235701 422.991983 
L 87.875963 422.642138 
L 89.068175 420.164071 
L 89.67164 418.95905 
L 89.958654 417.559671 
L 90.135278 415.927062 
L 90.701947 414.58599 
L 91.636582 412.564665 
L 92.188532 411.175003 
L 92.482906 410.727979 
L 93.4249 410.106033 
L 94.366895 409.173114 
L 96.125776 406.0731 
L 96.582055 405.324821 
L 98.134874 404.294723 
L 99.974708 401.427939 
L 100.578173 401.010069 
L 101.019733 400.533891 
L 101.836619 398.463976 
L 102.16043 397.783722 
L 102.925801 396.578702 
L 104.493339 393.488406 
L 105.324943 392.944203 
L 106.649624 390.981185 
L 108.040538 387.774275 
L 108.283396 386.90938 
L 109.085563 385.257336 
L 109.173875 384.246673 
L 109.12236 383.313754 
L 109.33578 382.409988 
L 110.299853 380.097125 
L 111.742283 378.143825 
L 114.391643 373.362613 
L 115.708964 372.419976 
L 118.211137 368.124659 
L 118.527589 367.434688 
L 119.543177 366.346282 
L 119.94794 365.782643 
L 120.595561 363.809907 
L 120.978247 363.382319 
L 121.243183 362.886705 
L 121.559634 361.827453 
L 121.817211 361.429019 
L 122.391239 361.195789 
L 122.884314 361.127764 
L 122.884314 361.127764 
L 124.047089 360.797355 
L 124.36354 360.496099 
L 124.415056 359.990768 
L 124.319384 359.281361 
L 124.334103 358.367877 
L 124.03237 357.182292 
L 122.685612 356.132757 
L 121.655306 355.520529 
L 120.823701 355.00548 
L 120.212876 354.636199 
L 119.579973 353.644972 
L 119.167851 352.430233 
L 119.050101 350.962829 
L 119.2856 349.56345 
L 119.557895 348.922068 
L 119.94794 348.309839 
L 121.677384 346.745256 
L 123.281718 345.268133 
L 124.105964 343.985369 
L 125.710299 341.157457 
L 127.057057 337.9797 
L 129.051436 333.800999 
L 130.00815 331.682494 
L 132.635432 326.609745 
L 133.960112 324.734188 
L 136.653628 321.799379 
L 137.19086 321.294048 
L 139.06749 320.293103 
L 141.142822 319.583696 
L 141.834599 319.379619 
L 142.570533 319.350466 
L 145.551063 320.001566 
L 146.927258 320.662384 
L 148.090033 321.332919 
L 149.974023 322.664273 
L 151.401733 323.431988 
L 152.785288 323.762397 
L 154.257155 323.587475 
L 155.464086 323.159887 
L 157.539418 321.993737 
L 159.445485 320.652666 
L 160.549386 319.554542 
L 161.042461 319.039493 
L 161.778394 317.620678 
L 163.191386 313.859846 
L 163.758055 312.382724 
L 164.523426 310.905601 
L 165.568451 309.690862 
L 167.952875 307.659819 
L 169.741194 306.21185 
L 170.99228 305.395546 
L 172.294883 304.72501 
L 174.399652 303.160427 
L 175.407881 302.159482 
L 177.203558 299.681414 
L 179.102266 294.482332 
L 179.345124 293.695182 
L 179.477592 292.052855 
L 179.587982 290.35222 
L 179.514389 289.46789 
L 178.940361 287.728384 
L 177.034294 283.345607 
L 176.842951 281.42146 
L 176.945982 279.594493 
L 177.284511 277.757808 
L 177.593603 276.951221 
L 178.005726 276.241814 
L 182.104875 271.246808 
L 183.341243 270.206991 
L 185.46809 268.788177 
L 187.764203 267.476259 
L 188.846025 266.49475 
L 189.751223 265.367472 
L 190.413563 264.25963 
L 190.77417 263.074045 
L 190.906638 262.481253 
L 190.715295 261.227642 
L 190.170705 259.420111 
L 190.236939 258.117911 
L 190.612265 256.980915 
L 192.150366 253.511621 
L 192.621363 252.287164 
L 194.026996 246.543879 
L 194.30665 245.202807 
L 195.057302 243.385558 
L 197.434367 238.225348 
L 199.436106 235.504333 
L 201.849968 233.065137 
L 203.785473 231.024376 
L 205.743055 228.730949 
L 207.509296 226.243164 
L 208.12748 224.989553 
L 209.22402 222.482332 
L 210.21753 219.858496 
L 210.762121 218.604886 
L 212.660829 215.057849 
L 214.427069 212.288244 
L 215.258674 211.199838 
L 216.921884 209.761587 
L 218.158252 208.877257 
L 219.519729 208.109542 
L 220.947439 207.46816 
L 223.25827 206.68101 
L 225.708928 206.117371 
L 227.276467 206.088217 
L 228.814567 206.506087 
L 232.810686 207.302956 
L 234.400302 207.215495 
L 235.894247 206.914239 
L 238.06525 206.117371 
L 239.294259 205.37881 
L 240.309847 204.397301 
L 241.119374 203.172844 
L 245.24796 194.708544 
L 246.285626 192.716372 
L 247.006841 191.482197 
L 248.419833 188.81949 
L 249.825466 186.390012 
L 250.804257 184.63107 
L 251.952313 182.250182 
L 255.933713 175.389337 
L 257.030254 173.494345 
L 258.406449 171.346686 
L 265.530285 157.411203 
L 266.420764 154.962289 
L 266.774012 153.164476 
L 266.781371 151.395816 
L 266.273577 147.65442 
L 266.126391 146.721501 
L 266.111672 145.730274 
L 266.222062 144.729329 
L 267.428993 140.093886 
L 267.421633 139.160966 
L 267.090463 137.333999 
L 266.538513 135.720826 
L 265.817299 134.224268 
L 264.051058 131.318612 
L 263.771404 130.482872 
L 263.653654 129.627696 
L 263.800841 127.956215 
L 264.315994 126.265299 
L 265.500847 123.709488 
L 267.730725 119.385018 
L 268.709517 117.732973 
L 270.865802 114.788446 
L 272.308231 113.04894 
L 277.135954 107.966473 
L 280.123844 104.497179 
L 280.911292 103.243569 
L 281.16151 102.573033 
L 281.293978 101.134782 
L 281.227744 99.599352 
L 280.742028 95.022216 
L 280.889214 92.787097 
L 283.288357 81.660089 
L 284.053728 80.26071 
L 284.958926 79.026535 
L 286.070186 77.908976 
L 287.932097 76.461007 
L 289.948555 75.246268 
L 292.038605 74.323067 
L 292.605274 73.778864 
L 293.024756 73.127764 
L 293.282333 72.369767 
L 293.481035 70.669132 
L 293.436879 69.823674 
L 293.171943 69.065677 
L 292.708305 68.375705 
L 292.082761 67.734323 
L 291.332109 67.306735 
L 290.44163 67.141531 
L 289.499635 67.122095 
L 288.542922 67.277581 
L 286.732526 67.918963 
L 285.893562 68.375705 
L 282.051989 71.291078 
L 281.176229 71.602052 
L 280.234234 71.699231 
L 279.255442 71.572898 
L 278.342885 71.232771 
L 277.51128 70.659414 
L 276.812143 69.930571 
L 276.238115 69.162856 
L 275.818633 68.317398 
L 275.590494 67.345607 
L 275.656728 66.30579 
L 275.906945 65.28541 
L 276.282271 64.391362 
L 276.775347 63.584775 
L 278.06323 62.049345 
L 279.4983 60.620813 
L 281.352853 58.716102 
L 282.478831 57.200108 
L 283.472341 55.674396 
L 284.340742 54.022351 
L 285.746375 50.611365 
L 286.143779 48.813551 
L 286.3572 46.199433 
L 286.335122 45.344257 
L 286.165857 44.498799 
L 285.819968 43.760238 
L 284.782302 42.419166 
L 282.618658 40.349251 
L 280.204796 38.434823 
L 278.364963 37.249237 
L 274.906076 35.402834 
L 266.788731 33.692482 
L 265.603878 33.605021 
L 263.91859 33.274612 
L 262.888284 32.86646 
L 261.350183 32.4 
L 260.305157 32.487461 
L 259.385241 32.798434 
L 258.089998 33.566149 
L 257.111206 34.693427 
L 255.580465 37.560211 
L 255.264014 39.056769 
L 255.602543 40.971197 
L 256.169212 42.156782 
L 257.118566 43.274342 
L 258.678745 44.53767 
L 259.664895 44.761182 
L 262.468802 45.83987 
L 263.351922 46.150844 
L 264.757554 47.453044 
L 265.69219 48.463706 
L 266.126391 49.386908 
L 266.303015 50.776569 
L 266.560591 54.731759 
L 267.068385 56.578162 
L 267.855834 59.104818 
L 268.201723 61.689783 
L 268.194363 62.554677 
L 267.745444 64.303901 
L 266.516435 66.684789 
L 265.441973 68.132757 
L 264.109933 69.493265 
L 262.557114 70.766311 
L 261.740228 71.32995 
L 259.893035 72.136537 
L 256.927223 73.186071 
L 254.991718 73.856607 
L 254.071802 74.342502 
L 253.2034 74.964449 
L 252.415951 75.70301 
L 251.753611 76.529032 
L 250.833695 78.394871 
L 249.957934 80.892374 
L 249.33239 82.427804 
L 248.942346 83.108058 
L 247.89732 84.235335 
L 246.675671 85.255716 
L 245.211163 86.013713 
L 241.48734 87.442246 
L 239.419368 87.918424 
L 237.881267 88.705574 
L 235.931043 89.949467 
L 234.841862 90.96013 
L 233.392073 92.514995 
L 231.942284 94.604346 
L 230.750072 96.742286 
L 229.513704 99.492455 
L 228.983832 100.512836 
L 227.357419 104.798434 
L 226.592049 107.558321 
L 223.861736 111.911945 
L 222.566493 113.427939 
L 221.477311 114.390012 
L 219.747868 115.565879 
L 217.40024 117.00413 
L 216.436168 118.005075 
L 215.133566 119.65712 
L 214.412351 120.803833 
L 213.948713 122.076879 
L 213.632261 123.369362 
L 213.566027 124.642408 
L 213.683777 128.801674 
L 213.742651 129.899798 
L 213.359966 132.368147 
L 213.198061 132.999811 
L 212.594595 134.117371 
L 211.807147 135.157187 
L 210.430951 136.556566 
L 209.371207 137.227102 
L 207.663842 137.917074 
L 202.556464 139.782913 
L 201.011004 140.715832 
L 199.598012 141.765366 
L 198.310128 142.805183 
L 194.247776 146.974167 
L 192.496254 149.403644 
L 191.304042 151.551302 
L 189.810097 154.68047 
L 189.361178 156.186746 
L 189.110961 158.460737 
L 189.022649 159.996167 
L 189.11832 162.104953 
L 189.464209 164.0291 
L 190.008799 165.914374 
L 191.620494 170.977406 
L 192.393224 173.397166 
L 192.555129 175.476798 
L 192.275474 176.837306 
L 191.66465 178.615684 
L 190.435641 181.19093 
L 189.493646 182.745796 
L 187.550782 185.398785 
L 185.114842 188.022621 
L 184.136051 188.887515 
L 177.880617 193.79506 
L 176.798795 195.087542 
L 175.886238 196.496639 
L 175.326928 198.109812 
L 175.025195 199.878472 
L 174.936883 201.666568 
L 175.076711 207.963774 
L 174.86329 209.810177 
L 174.252465 211.734323 
L 173.361986 213.493265 
L 172.184493 215.135592 
L 170.322581 217.215225 
L 168.939026 218.35222 
L 165.921699 220.684519 
L 163.964116 222.501768 
L 160.129903 226.534701 
L 158.930332 228.089567 
L 157.885307 229.906816 
L 156.678376 231.539425 
L 154.654559 233.813416 
L 153.057584 235.154488 
L 150.518613 236.903712 
L 145.874874 240.460467 
L 144.498678 241.675206 
L 142.320315 244.30876 
L 141.49607 245.708139 
L 140.951479 247.14639 
L 140.480482 248.526333 
L 139.582643 249.459252 
L 138.2874 250.780888 
L 137.63242 251.70409 
L 136.447567 253.79344 
L 135.189121 256.320097 
L 133.43024 258.749575 
L 132.260106 260.129518 
L 131.487376 260.508517 
L 130.574818 260.615414 
L 129.728495 260.430773 
L 127.402945 259.828263 
L 127.402945 259.828263 
L 124.58432 256.407558 
L 122.93583 255.19282 
L 120.131923 253.79344 
L 119.050101 253.433878 
L 118.417199 253.463031 
L 117.364814 253.084033 
L 115.451387 252.024781 
L 114.899437 252.005345 
L 114.273894 251.791551 
L 112.478216 250.40189 
L 110.8886 249.595303 
L 110.424962 249.546713 
L 107.46651 247.98213 
L 107.120621 247.671157 
L 106.929278 247.263004 
L 106.877763 246.815981 
L 107.098543 245.844189 
L 107.930148 244.085248 
L 109.409374 241.140721 
L 109.939246 240.343852 
L 112.478216 235.173924 
L 112.809386 233.56075 
L 113.832334 232.452909 
L 114.899437 230.519044 
L 115.554418 229.663868 
L 116.341866 228.983615 
L 116.62888 228.594898 
L 117.40161 226.2626 
L 118.961789 223.084843 
L 119.189929 222.268538 
L 119.675645 221.578567 
L 120.838419 220.286084 
L 121.927601 218.86727 
L 122.49427 216.913969 
L 122.457473 216.02964 
L 122.280849 215.660359 
L 121.302057 214.737158 
L 120.573483 214.134647 
L 119.050101 213.415522 
L 117.114596 212.297962 
L 115.628011 211.549683 
L 110.535352 208.867539 
L 107.893351 207.322392 
L 107.179496 207.05029 
L 106.627546 207.021136 
L 103.551344 205.437117 
L 103.095065 204.990093 
L 103.006753 204.669402 
L 103.212815 203.823944 
L 103.691171 202.891024 
L 104.390308 201.822054 
L 105.089445 200.58788 
L 106.193345 198.654015 
L 108.276036 194.854312 
L 108.89422 193.532676 
L 110.182104 190.811661 
L 110.866522 189.480308 
L 112.426701 186.963369 
L 114.75225 182.784667 
L 117.887327 177.371791 
L 118.667416 176.108463 
L 123.399468 167.712188 
L 124.194276 167.197139 
L 124.643195 167.158267 
L 125.518956 167.527548 
L 128.23455 169.179592 
L 128.219831 169.179592 
" clip-path="url(#p8d31dda88c)" style="fill: none; stroke: #000000; stroke-width: 3"/>
   </g>
  </g>
 </g>
 <defs>
  <clipPath id="p8d31dda88c">
   <rect x="7.2" y="7.2" width="299.913465" height="554.4"/>
  </clipPath>
 </defs>
</svg>
