<?xml version="1.0" encoding="utf-8" standalone="no"?>
<!DOCTYPE svg PUBLIC "-//W3C//DTD SVG 1.1//EN"
  "http://www.w3.org/Graphics/SVG/1.1/DTD/svg11.dtd">
<svg xmlns:xlink="http://www.w3.org/1999/xlink" width="297.766685pt" height="568.8pt" viewBox="0 0 297.766685 568.8" xmlns="http://www.w3.org/2000/svg" version="1.1">
 <metadata>
  <rdf:RDF xmlns:dc="http://purl.org/dc/elements/1.1/" xmlns:cc="http://creativecommons.org/ns#" xmlns:rdf="http://www.w3.org/1999/02/22-rdf-syntax-ns#">
   <cc:Work>
    <dc:type rdf:resource="http://purl.org/dc/dcmitype/StillImage"/>
    <dc:date>2022-07-07T05:15:13.312639</dc:date>
    <dc:format>image/svg+xml</dc:format>
    <dc:creator>
     <cc:Agent>
      <dc:title>Matplotlib v3.5.2, https://matplotlib.org/</dc:title>
     </cc:Agent>
    </dc:creator>
   </cc:Work>
  </rdf:RDF>
 </metadata>
 <defs>
  <style type="text/css">*{stroke-linejoin: round; stroke-linecap: butt}</style>
 </defs>
 <g id="figure_1">
  <g id="patch_1">
   <path d="M 0 568.8 
L 297.766685 568.8 
L 297.766685 0 
L 0 0 
z
" style="fill: #ffffff"/>
  </g>
  <g id="axes_1">
   <g id="LineCollection_1">
    <path d="M 148.029644 161.89317 
L 148.662013 162.524075 
L 149.828383 163.29415 
L 150.327252 163.693104 
L 151.430384 164.221951 
L 152.210306 164.722963 
L 153.727992 165.984772 
L 155.20352 166.634233 
L 156.5596 167.190913 
L 156.728232 167.552756 
L 157.044416 168.545503 
L 157.43789 169.213519 
L 157.852443 169.473304 
L 160.206262 169.72381 
L 160.564604 169.900092 
L 160.529473 169.482582 
L 160.831604 169.519694 
L 161.267236 169.733088 
L 161.358579 169.983594 
L 161.274263 170.299046 
L 161.421816 169.872258 
L 162.019053 169.287743 
L 163.122186 168.823843 
L 164.344766 167.784706 
L 164.682029 167.39503 
L 165.757057 167.265138 
L 166.291057 167.228025 
L 166.558058 166.986797 
L 166.881268 166.940407 
L 172.059668 168.007378 
L 172.762301 168.09088 
L 175.509593 168.935179 
L 176.992147 169.751644 
L 180.442072 172.071146 
L 182.521863 173.462847 
L 183.849838 174.047362 
L 184.545444 174.483428 
L 185.212945 175.067943 
L 185.950709 175.364839 
L 186.54092 175.949354 
L 187.911053 176.4782 
L 190.567003 177.322499 
L 199.370986 180.885255 
L 202.546884 182.917139 
L 203.228437 183.427429 
L 204.345622 184.763462 
L 204.795307 185.487147 
L 205.441729 187.129355 
L 205.842229 188.845786 
L 206.495677 192.5106 
L 207.113993 194.236309 
L 207.844731 195.776459 
L 208.786258 197.195994 
L 209.348364 197.632061 
L 210.753629 198.411413 
L 213.767921 200.294849 
L 214.653238 201.714385 
L 216.199029 204.980244 
L 217.498899 207.086352 
L 220.618586 211.372792 
L 220.843428 212.031531 
L 220.66777 212.690269 
L 219.937033 213.9428 
L 218.904163 216.206635 
L 218.630137 216.800427 
L 218.299899 217.81173 
L 217.87832 219.787946 
L 217.639425 220.641523 
L 216.269292 223.814602 
L 215.83366 224.436228 
L 215.215344 225.957822 
L 214.920238 226.922735 
L 213.247973 229.669025 
L 210.52176 234.428644 
L 207.739336 240.088229 
L 205.603334 244.272611 
L 204.668833 245.237524 
L 203.671095 247.742587 
L 203.207358 248.336379 
L 202.715515 248.735334 
L 200.663829 251.908413 
L 199.975249 253.1795 
L 198.548906 256.927816 
L 197.712773 258.273127 
L 196.026456 261.307036 
L 195.344903 262.605957 
L 194.073138 264.424447 
L 192.534373 268.033592 
L 192.014425 269.564464 
L 191.262609 270.826273 
L 190.433503 272.023136 
L 189.19687 274.064298 
L 184.882708 281.013527 
L 184.102786 282.30317 
L 183.435285 283.908266 
L 182.774811 284.808232 
L 180.947967 287.526689 
L 180.392887 288.77922 
L 179.465413 290.31937 
L 179.071939 291.423453 
L 178.847096 292.842988 
L 178.664412 294.670756 
L 178.158517 296.183071 
L 177.5402 297.602607 
L 176.212225 299.198424 
L 175.586883 299.560267 
L 174.792908 300.636516 
L 169.51614 309.042392 
L 168.441112 310.536151 
L 166.860189 314.766923 
L 165.040372 318.097728 
L 162.398474 321.512036 
L 161.407763 323.033629 
L 159.953314 325.380965 
L 158.955576 326.995339 
L 157.571391 329.240617 
L 156.341784 331.662177 
L 155.407283 333.165215 
L 154.901388 333.8889 
L 153.524229 336.72797 
L 152.695122 338.166062 
L 149.329514 345.987423 
L 147.572933 348.501764 
L 146.828143 350.236751 
L 145.823379 352.073797 
L 144.909957 353.762395 
L 144.263535 354.662361 
L 143.785745 355.04276 
L 143.125271 355.849947 
L 142.738823 356.193233 
L 141.277348 358.503457 
L 139.436451 362.066213 
L 138.452766 363.829034 
L 137.715002 364.775391 
L 137.033449 365.452686 
L 136.93508 365.610412 
L 136.632948 365.75886 
L 136.40108 366.900055 
L 136.239474 367.271176 
L 135.649263 368.031972 
L 134.806104 369.915408 
L 133.74513 372.865815 
L 132.494444 374.637915 
L 131.538864 375.806944 
L 128.770493 380.566562 
L 128.503493 381.197467 
L 128.306756 381.986098 
L 127.730597 383.683973 
L 127.098228 385.363293 
L 125.784306 387.460123 
L 124.210409 389.955907 
L 123.226724 392.358912 
L 122.228986 394.669136 
L 119.516826 401.330746 
L 119.151457 401.933817 
L 118.47693 403.325518 
L 117.198139 405.097618 
L 116.312822 407.315062 
L 116.059875 408.159361 
L 115.694506 408.799543 
L 115.20969 409.152108 
L 113.319609 409.977851 
L 112.919108 410.534531 
L 112.012713 412.622083 
L 111.352238 414.366349 
L 110.270185 415.266316 
L 108.717367 417.771378 
L 107.98663 419.172357 
L 107.143471 420.471279 
L 106.047365 422.549553 
L 104.691284 425.305121 
L 103.904336 427.531843 
L 103.405467 428.144192 
L 103.026046 428.886433 
L 102.435835 430.881205 
L 102.274229 431.911064 
L 98.276252 437.830433 
L 97.327698 438.878848 
L 96.217539 440.521056 
L 95.71867 441.829255 
L 95.409512 442.812724 
L 94.685801 444.065255 
L 94.137747 444.566268 
L 92.324956 449.103214 
L 91.657455 450.541306 
L 90.371638 452.461853 
L 89.514427 454.104061 
L 88.348057 456.033887 
L 87.743793 457.156526 
L 87.027109 458.260609 
L 86.598503 459.346136 
L 86.479055 459.921373 
L 85.952081 460.626501 
L 84.694369 461.42441 
L 84.581948 461.851198 
L 84.237658 462.259431 
L 83.647447 462.287265 
L 83.141552 462.751165 
L 82.073551 464.783049 
L 81.047708 467.037605 
L 80.66126 467.752012 
L 79.677575 469.125157 
L 78.53931 471.277655 
L 77.162151 473.940444 
L 76.578966 475.183697 
L 75.953624 476.343448 
L 75.946597 477.141357 
L 75.61636 478.375332 
L 74.801307 479.702088 
L 74.31649 481.223681 
L 74.091648 482.049424 
L 72.932305 484.034918 
L 72.573962 484.842104 
L 71.744856 486.187416 
L 71.021145 487.876013 
L 70.627671 489.778005 
L 70.346618 490.752196 
L 69.756407 491.364545 
L 68.906222 491.809889 
L 67.845247 492.988196 
L 67.128562 494.314952 
L 66.55943 496.003549 
L 66.201087 496.680844 
L 65.561692 497.089076 
L 65.090928 497.664313 
L 64.008875 499.742587 
L 62.287426 502.284761 
L 60.889187 503.778521 
L 60.095213 505.45784 
L 59.329344 507.285608 
L 58.767238 507.888679 
L 58.120816 508.046405 
L 56.771762 509.261824 
L 54.958971 513.576098 
L 54.193102 515.24614 
L 53.574785 517.046073 
L 52.598126 519.690306 
L 51.754968 521.620132 
L 51.017204 522.037642 
L 49.106044 524.858157 
L 45.480461 531.538323 
L 44.742697 533.264033 
L 44.131407 534.637178 
L 43.653617 535.193859 
L 43.295275 535.787651 
L 42.641827 536.223718 
L 42.107826 536.4 
L 41.594905 536.279386 
L 40.491772 535.555701 
L 39.416744 534.312448 
L 38.538454 533.375369 
L 37.821769 532.920747 
L 37.252637 532.772299 
L 33.381133 530.703303 
L 32.924422 530.564132 
L 30.57763 529.330157 
L 28.82105 528.01268 
L 25.848915 526.453974 
L 25.097098 526.398306 
L 23.895597 526.658091 
L 22.377911 525.739568 
L 21.183437 524.811767 
L 20.902384 524.412812 
L 20.101383 524.00458 
L 20.080304 523.707684 
L 20.522962 521.852082 
L 22.413043 517.769758 
L 23.77615 514.810073 
L 23.797229 513.872994 
L 24.232861 511.915334 
L 25.153309 510.505077 
L 27.774127 505.856795 
L 28.715655 503.565126 
L 29.586919 502.210537 
L 29.551787 501.31057 
L 30.04363 500.299267 
L 30.640867 498.4715 
L 31.371605 497.488031 
L 33.957292 495.446869 
L 34.104844 493.786105 
L 34.737213 492.728412 
L 35.75603 491.494437 
L 39.17785 485.751349 
L 40.133429 484.62871 
L 40.646351 484.07203 
L 41.334931 482.71744 
L 43.203933 478.505224 
L 43.091511 477.883598 
L 43.702801 476.723847 
L 44.595144 475.953772 
L 46.970042 472.984809 
L 47.475937 472.409573 
L 48.480701 470.609639 
L 49.443307 468.818983 
L 51.270151 464.189257 
L 52.007915 463.020228 
L 52.822969 461.851198 
L 53.60289 460.348161 
L 54.101759 459.643032 
L 54.677918 459.039962 
L 55.619445 457.657538 
L 56.308025 456.024609 
L 56.975525 455.523596 
L 57.727342 453.937057 
L 57.657079 452.972144 
L 57.973263 451.246434 
L 58.429974 448.70426 
L 60.762713 445.494069 
L 61.760451 442.50655 
L 62.252294 442.098317 
L 63.15869 440.623114 
L 63.418664 439.945819 
L 63.748901 439.416973 
L 64.275875 437.895379 
L 64.620165 437.440757 
L 66.320535 434.147064 
L 66.29243 433.451213 
L 67.114509 431.873952 
L 68.435458 429.814234 
L 69.580749 427.633902 
L 70.85954 424.776275 
L 71.309224 423.91342 
L 71.815119 422.670167 
L 71.815119 422.670167 
L 71.906462 422.586665 
L 72.025909 422.2341 
L 72.025909 422.2341 
L 72.306962 422.132042 
L 72.707462 421.695976 
L 73.002568 420.990847 
L 73.262542 419.960988 
L 73.99328 419.691926 
L 74.267306 419.450698 
L 74.428912 418.662067 
L 74.428912 417.465204 
L 74.653754 417.056971 
L 75.012096 416.648739 
L 75.328281 415.980722 
L 76.36115 414.820971 
L 76.508703 414.505519 
L 77.000546 414.069453 
L 77.070809 413.484938 
L 77.077835 413.540606 
L 77.590757 413.373602 
L 79.291127 411.016988 
L 80.211575 408.224307 
L 80.373181 406.498597 
L 81.455234 403.45541 
L 81.434155 402.509053 
L 81.595761 401.54414 
L 81.602787 398.667958 
L 81.644945 397.090696 
L 82.895631 396.37629 
L 83.710684 395.531991 
L 87.771899 390.930098 
L 88.945295 389.102331 
L 89.394979 388.146696 
L 89.486322 387.525069 
L 90.448928 386.44882 
L 91.36235 384.546828 
L 93.610773 381.624255 
L 94.510142 380.445948 
L 95.711644 379.044969 
L 98.77512 375.324487 
L 99.3302 374.684305 
L 100.349017 373.004985 
L 102.667703 367.790744 
L 103.138467 367.104171 
L 103.827047 365.675358 
L 106.504076 360.96213 
L 106.806208 360.266279 
L 106.848365 358.586959 
L 107.466682 357.315872 
L 108.302814 355.998395 
L 108.647104 355.237598 
L 109.138947 354.597415 
L 109.925895 353.047988 
L 110.136685 352.342859 
L 111.352238 351.340834 
L 112.118108 350.533648 
L 112.42024 350.097581 
L 112.834793 349.782129 
L 113.846583 349.281116 
L 113.944952 349.067722 
L 114.001162 348.79866 
L 114.141689 348.529598 
L 114.745952 348.251257 
L 115.736664 346.56266 
L 115.666401 345.467855 
L 115.469664 344.46583 
L 115.153479 343.927705 
L 114.240057 343.129796 
L 111.977581 341.515423 
L 111.485739 340.92163 
L 111.127396 340.262892 
L 110.712843 339.873215 
L 110.073448 338.611406 
L 109.708079 337.331041 
L 110.059395 335.874393 
L 110.347474 335.076485 
L 111.331159 333.656949 
L 112.518608 332.34875 
L 115.034032 330.567372 
L 115.933401 329.351953 
L 116.64306 328.053032 
L 117.661876 325.501579 
L 118.870404 322.820235 
L 120.078932 320.788351 
L 122.713803 315.768948 
L 124.53362 312.976267 
L 127.05607 309.812466 
L 128.243519 308.773329 
L 129.599599 307.947587 
L 131.075127 307.41874 
L 132.606865 307.1404 
L 134.251025 307.04762 
L 135.037973 307.084732 
L 136.499448 307.474408 
L 138.319266 308.253761 
L 140.040715 309.23723 
L 141.97998 310.202143 
L 143.286876 310.601097 
L 144.783483 310.647487 
L 146.259011 310.202143 
L 147.825881 309.394956 
L 149.111698 308.420765 
L 150.29212 307.288848 
L 151.669279 305.637362 
L 152.47028 304.208549 
L 154.599256 299.254092 
L 155.027862 298.530408 
L 157.030364 296.340797 
L 158.189707 295.505777 
L 161.94879 293.15844 
L 164.379897 290.73688 
L 165.223056 289.688465 
L 166.431584 288.074092 
L 166.930453 286.784448 
L 168.251401 281.894938 
L 168.637849 279.222871 
L 168.153033 277.163153 
L 166.979637 274.222024 
L 166.410505 272.440647 
L 166.199715 270.510821 
L 166.192689 269.518074 
L 166.30511 268.525327 
L 166.551031 267.597526 
L 167.436348 265.936762 
L 169.712877 263.15336 
L 170.401456 262.355451 
L 172.881748 260.258621 
L 174.195671 259.071036 
L 175.593909 258.106123 
L 177.603437 256.807202 
L 178.256885 256.176297 
L 178.797912 254.988712 
L 179.212465 253.6434 
L 179.39515 251.824911 
L 179.31786 247.788977 
L 179.598913 246.74984 
L 180.132913 244.866404 
L 180.765282 242.519068 
L 181.517099 240.496462 
L 182.514837 236.469806 
L 183.709312 233.500843 
L 185.465893 229.92881 
L 185.957735 228.889673 
L 187.004657 227.275299 
L 189.857344 223.814602 
L 190.314055 223.452759 
L 193.328348 220.121954 
L 195.070876 217.728228 
L 196.096719 215.909738 
L 197.670615 212.551099 
L 198.415406 210.695497 
L 200.038486 207.578086 
L 201.373488 205.407032 
L 202.589041 203.755547 
L 204.064569 202.326733 
L 205.237965 201.50099 
L 206.502703 200.823696 
L 210.570944 199.320658 
L 214.013842 198.596974 
L 215.552607 198.587696 
L 218.91119 199.144376 
L 220.906665 199.552609 
L 221.574166 199.626833 
L 222.916194 199.422716 
L 224.187958 198.958816 
L 225.227854 198.095961 
L 226.45746 196.713538 
L 227.188198 195.535231 
L 228.825331 192.352874 
L 232.204993 187.064409 
L 234.853916 182.063562 
L 235.893812 180.263628 
L 239.266447 174.019528 
L 243.15903 167.088855 
L 244.564295 164.370399 
L 245.962533 161.80039 
L 248.077456 157.903627 
L 250.311827 153.440904 
L 251.098775 151.436854 
L 251.597644 149.395692 
L 251.731144 147.966879 
L 251.717091 144.292787 
L 251.688986 142.799028 
L 251.885723 140.423858 
L 252.679697 136.118862 
L 252.461881 133.465351 
L 252.012197 131.860256 
L 251.309565 130.375774 
L 249.552984 127.388255 
L 249.124378 125.820272 
L 248.920615 124.19662 
L 249.068168 123.361599 
L 249.756747 121.756504 
L 252.29325 116.931939 
L 254.190357 113.833084 
L 259.347678 107.783822 
L 260.31731 106.772519 
L 264.786052 101.762395 
L 265.474631 100.454195 
L 265.727579 99.786179 
L 265.896211 98.366643 
L 265.854053 96.241979 
L 265.608132 91.862759 
L 266.324817 86.379456 
L 267.259318 81.712617 
L 267.716029 80.367306 
L 268.348398 79.096219 
L 269.999583 76.758161 
L 270.997321 75.672634 
L 272.156665 74.754111 
L 273.414376 73.984036 
L 276.042221 72.47172 
L 276.604327 71.998542 
L 277.089143 71.432583 
L 277.468565 70.783123 
L 277.665302 70.040882 
L 277.686381 69.280085 
L 277.524775 68.482177 
L 277.159406 67.702824 
L 276.590274 67.062641 
L 275.859537 66.543073 
L 275.030431 66.097728 
L 274.159167 65.884334 
L 273.287903 65.865778 
L 272.402586 66.004948 
L 270.716268 66.617297 
L 269.170477 67.554376 
L 266.936107 69.512036 
L 266.282659 69.846044 
L 265.397342 70.059438 
L 264.455815 70.115106 
L 263.514287 70.022326 
L 262.586813 69.688318 
L 261.729601 69.103803 
L 260.977785 68.23167 
L 260.584311 67.470874 
L 260.464863 66.524517 
L 260.682679 65.513214 
L 261.406391 63.48133 
L 262.376023 61.904068 
L 264.160709 59.909296 
L 266.493448 57.385678 
L 268.088424 55.307404 
L 268.91753 53.869313 
L 269.901215 51.494142 
L 270.364952 49.814823 
L 270.997321 46.6603 
L 270.920032 45.936615 
L 270.463321 44.56347 
L 269.690425 43.487221 
L 266.226448 39.720349 
L 264.638499 38.235868 
L 263.310524 37.308067 
L 260.682679 36.08337 
L 259.488204 35.638025 
L 257.218702 34.803004 
L 254.703278 34.023652 
L 253.635277 33.856647 
L 253.094251 33.865925 
L 250.473432 33.392747 
L 249.018983 33.132963 
L 246.897034 32.4 
L 244.93669 32.919568 
L 244.009215 33.967984 
L 243.707083 34.431884 
L 242.695293 35.424631 
L 241.711607 37.549295 
L 241.542976 38.430706 
L 241.437581 39.738905 
L 241.648371 41.260499 
L 241.971581 42.021295 
L 242.990398 43.078988 
L 244.135689 43.552167 
L 244.964795 43.876897 
L 245.857138 44.053179 
L 247.768298 44.916034 
L 248.660641 45.268598 
L 250.269669 46.307735 
L 250.923117 47.30976 
L 251.590617 49.165362 
L 251.710065 50.751902 
L 251.60467 53.711586 
L 252.742934 58.072251 
L 252.883461 59.75157 
L 252.764013 61.514392 
L 252.34946 63.29577 
L 252.026249 64.344185 
L 251.197143 65.986392 
L 249.651352 68.036832 
L 248.421746 69.270807 
L 246.98135 70.272832 
L 245.140453 71.107853 
L 243.411978 71.72948 
L 240.819264 72.47172 
L 240.02529 72.787173 
L 238.72542 73.677862 
L 237.446629 75.218011 
L 236.582392 76.739605 
L 236.139733 78.131306 
L 235.739233 79.736401 
L 235.11389 81.220883 
L 234.615021 81.814675 
L 233.385415 82.788866 
L 232.099598 83.577497 
L 230.673254 84.004286 
L 229.338253 84.35685 
L 227.511409 85.117647 
L 225.080301 86.03617 
L 223.295615 87.140253 
L 222.382193 87.975273 
L 220.625612 89.895821 
L 219.648953 91.389581 
L 217.906425 93.811141 
L 217.316214 94.905946 
L 216.501161 96.436817 
L 214.95537 100.370693 
L 214.505685 101.419108 
L 213.367421 104.926196 
L 212.868552 105.983889 
L 210.978471 108.655955 
L 209.137574 110.734229 
L 208.139837 111.652752 
L 206.973467 112.348603 
L 204.781254 113.452686 
L 203.881885 114.380487 
L 202.237725 116.365981 
L 201.661567 117.451508 
L 201.141619 119.186495 
L 201.113514 121.023541 
L 201.190803 122.888421 
L 201.471856 125.458429 
L 201.261066 127.397533 
L 200.818408 128.631508 
L 200.115776 129.921152 
L 199.511512 130.848953 
L 198.162458 132.12004 
L 196.602614 133.149899 
L 195.380034 133.595243 
L 194.157454 134.003476 
L 191.958215 135.061169 
L 188.817449 136.564206 
L 187.391105 137.547675 
L 185.98584 138.59609 
L 185.086471 139.561003 
L 180.182098 146.194779 
L 179.142202 148.52356 
L 177.877464 152.299709 
L 177.701806 153.876971 
L 177.680727 157.124274 
L 178.003938 158.664423 
L 179.064912 161.93956 
L 180.041571 164.862133 
L 180.786361 167.228025 
L 181.039309 169.213519 
L 180.863651 170.484607 
L 180.568545 171.86703 
L 179.444334 174.38137 
L 177.905569 177.007047 
L 176.957015 178.241022 
L 176.099804 179.521387 
L 174.638329 181.256375 
L 173.577354 182.314068 
L 171.146246 184.049056 
L 168.764323 185.672707 
L 167.548769 186.507728 
L 165.974873 187.927263 
L 165.279267 188.483944 
L 165.13874 188.27055 
L 165.356556 187.676757 
L 165.658688 186.980906 
L 166.262952 184.271728 
L 166.536979 181.813055 
L 166.480768 180.736806 
L 166.052162 176.598814 
L 165.384662 175.170001 
L 164.597713 173.936026 
L 163.073001 172.09898 
L 162.040132 171.421686 
L 159.911156 170.512441 
L 158.456707 169.705254 
L 156.953074 168.953735 
L 154.437651 167.524922 
L 152.491359 166.244557 
L 150.418594 165.159029 
L 147.017854 163.062199 
L 142.401559 160.612805 
L 141.825401 160.445801 
L 141.059532 160.835477 
L 139.822899 162.737469 
L 138.783003 164.899245 
L 136.19029 169.324855 
L 135.347131 171.245403 
L 135.037973 171.49591 
L 134.574236 171.468076 
L 133.695945 171.096955 
L 132.951155 170.642333 
L 131.48968 170.113486 
L 130.716784 169.714532 
L 130.021178 169.250631 
L 127.034991 167.654814 
L 123.015934 165.279644 
L 122.130618 164.889967 
L 120.879932 164.08278 
L 120.465379 163.776606 
L 120.247563 163.683826 
L 120.078932 163.461154 
L 120.064879 163.591046 
L 120.015695 163.553934 
L 120.015695 163.553934 
" clip-path="url(#pcb6600725f)" style="fill: none; stroke: #000000; stroke-width: 3"/>
   </g>
  </g>
 </g>
 <defs>
  <clipPath id="pcb6600725f">
   <rect x="7.2" y="7.2" width="283.366685" height="554.4"/>
  </clipPath>
 </defs>
</svg>
