<?xml version="1.0" encoding="utf-8" standalone="no"?>
<!DOCTYPE svg PUBLIC "-//W3C//DTD SVG 1.1//EN"
  "http://www.w3.org/Graphics/SVG/1.1/DTD/svg11.dtd">
<svg xmlns:xlink="http://www.w3.org/1999/xlink" width="296.751435pt" height="568.8pt" viewBox="0 0 296.751435 568.8" xmlns="http://www.w3.org/2000/svg" version="1.1">
 <metadata>
  <rdf:RDF xmlns:dc="http://purl.org/dc/elements/1.1/" xmlns:cc="http://creativecommons.org/ns#" xmlns:rdf="http://www.w3.org/1999/02/22-rdf-syntax-ns#">
   <cc:Work>
    <dc:type rdf:resource="http://purl.org/dc/dcmitype/StillImage"/>
    <dc:date>2022-07-12T05:17:51.367499</dc:date>
    <dc:format>image/svg+xml</dc:format>
    <dc:creator>
     <cc:Agent>
      <dc:title>Matplotlib v3.5.2, https://matplotlib.org/</dc:title>
     </cc:Agent>
    </dc:creator>
   </cc:Work>
  </rdf:RDF>
 </metadata>
 <defs>
  <style type="text/css">*{stroke-linejoin: round; stroke-linecap: butt}</style>
 </defs>
 <g id="figure_1">
  <g id="patch_1">
   <path d="M 0 568.8 
L 296.751435 568.8 
L 296.751435 0 
L 0 0 
z
" style="fill: #ffffff"/>
  </g>
  <g id="axes_1">
   <g id="LineCollection_1">
    <path d="M 155.512344 175.632492 
L 156.409941 174.748401 
L 156.733664 174.369505 
L 158.440568 171.221751 
L 159.286663 170.891432 
L 159.720747 170.852571 
L 160.221046 170.9983 
L 162.553325 172.19328 
L 164.915034 172.951073 
L 167.909474 173.903171 
L 171.234995 175.583916 
L 172.566675 176.448576 
L 174.420726 177.769856 
L 177.172374 179.470031 
L 177.613815 179.92665 
L 178.305405 180.295831 
L 179.122071 180.528997 
L 180.961408 182.161166 
L 183.558551 183.249278 
L 187.421158 184.891162 
L 192.151932 186.970233 
L 192.975955 186.931372 
L 194.270848 187.310269 
L 195.308234 188.019485 
L 199.045766 191.099231 
L 199.612282 191.730725 
L 200.487807 193.285171 
L 201.054322 195.004777 
L 201.834201 198.618864 
L 202.327143 200.396762 
L 203.261526 202.932452 
L 204.070835 204.389745 
L 205.225938 205.779031 
L 209.919925 210.840696 
L 212.20806 214.493645 
L 214.29019 216.922467 
L 216.865261 219.652463 
L 217.122768 220.303387 
L 217.093339 220.847443 
L 216.409105 223.140251 
L 213.525025 229.192875 
L 212.421423 231.165079 
L 210.596801 235.74098 
L 209.82428 237.392579 
L 209.117975 239.015032 
L 208.007015 241.103819 
L 206.851912 243.114883 
L 206.226537 244.455593 
L 205.96903 245.116233 
L 205.490802 245.757442 
L 204.122336 248.361139 
L 202.768584 250.683093 
L 202.032849 252.286115 
L 201.635553 252.665011 
L 200.774743 252.665011 
L 199.494565 254.957819 
L 198.795617 256.17223 
L 197.978951 258.02785 
L 196.860634 260.262367 
L 195.551027 263.089516 
L 194.896223 264.410795 
L 194.344422 266.004102 
L 193.866194 267.791715 
L 192.122503 270.589718 
L 191.291123 271.697261 
L 189.701936 274.893591 
L 189.437071 275.690244 
L 188.480616 277.419566 
L 187.310798 279.586075 
L 186.229268 281.723438 
L 184.242784 285.133504 
L 183.433476 286.66852 
L 180.740687 291.312427 
L 180.468465 292.050789 
L 179.445794 293.449791 
L 177.613815 296.850142 
L 176.282135 299.356686 
L 174.898954 301.610633 
L 173.751207 302.990204 
L 173.390697 303.990878 
L 172.787395 306.040804 
L 172.77268 307.099771 
L 172.353312 308.58621 
L 171.735294 309.071974 
L 170.911271 310.033788 
L 170.307969 310.228093 
L 169.844456 310.558413 
L 169.027791 311.63681 
L 167.210526 315.231467 
L 165.488907 316.824774 
L 164.598668 318.078046 
L 163.723143 320.195979 
L 163.06834 320.89548 
L 162.178101 322.391634 
L 159.014441 328.269383 
L 155.703635 334.477452 
L 154.923756 336.226204 
L 153.827512 338.742464 
L 153.363999 339.383673 
L 151.561449 340.267764 
L 150.148838 342.66744 
L 149.037879 345.037971 
L 148.662654 346.903306 
L 147.882775 350.769991 
L 147.588481 351.566644 
L 145.918364 354.102334 
L 145.042839 355.30703 
L 143.586085 357.590123 
L 142.063114 359.552611 
L 141.378881 360.776737 
L 137.376484 369.034732 
L 135.963873 370.268574 
L 135.183994 371.414978 
L 133.359372 375.077641 
L 132.741355 375.88401 
L 132.373488 376.70981 
L 132.270485 377.632762 
L 132.380845 378.031089 
L 131.578894 379.964431 
L 131.358174 380.625071 
L 130.548866 382.266955 
L 129.849918 384.550047 
L 129.136255 386.15307 
L 128.555025 387.386911 
L 128.584454 387.746377 
L 128.628598 387.882391 
L 128.047368 387.960113 
L 127.399921 388.756767 
L 126.995267 389.359115 
L 125.891665 391.545055 
L 124.089115 394.07103 
L 123.375452 395.479746 
L 123.088516 396.2764 
L 120.587018 400.764863 
L 119.718851 402.00842 
L 118.615249 403.86404 
L 115.885673 408.265065 
L 114.958647 410.723033 
L 114.171411 412.219188 
L 113.781472 412.899258 
L 112.214357 414.803454 
L 111.640484 416.124734 
L 110.411807 419.117042 
L 108.32232 421.915045 
L 106.0489 424.975361 
L 104.334638 426.636675 
L 103.694549 428.220267 
L 103.238394 429.901012 
L 102.922028 431.814924 
L 102.436443 432.271542 
L 101.752209 433.524814 
L 101.126835 433.942572 
L 99.927587 435.662178 
L 97.39666 440.179787 
L 96.889003 441.462205 
L 95.851617 443.638429 
L 94.725943 446.251842 
L 93.519338 447.922871 
L 90.473397 453.917204 
L 89.840665 455.112185 
L 88.773849 457.278694 
L 87.66289 458.881716 
L 87.140518 460.02812 
L 85.757337 462.388935 
L 82.932116 466.634516 
L 80.820557 470.578923 
L 78.238128 475.261692 
L 76.972665 477.107597 
L 76.523867 478.283147 
L 76.73723 478.972932 
L 76.325218 480.138767 
L 75.861705 480.993712 
L 75.788132 480.886844 
L 75.677772 480.828552 
L 75.677772 480.828552 
L 75.133328 481.460046 
L 74.758103 482.178977 
L 74.022369 483.713993 
L 73.235132 484.656376 
L 72.639187 485.734773 
L 72.602401 486.443989 
L 74.390236 489.154554 
L 75.251046 489.669464 
L 75.537982 489.999784 
L 75.560054 490.631278 
L 75.214259 491.253056 
L 74.559455 492.039995 
L 74.243089 492.681204 
L 73.095343 494.002483 
L 70.96907 495.935825 
L 70.387839 496.722763 
L 69.688891 498.422939 
L 68.960514 500.297989 
L 68.423427 501.046067 
L 67.812768 501.570692 
L 66.775382 503.076562 
L 66.230938 503.8635 
L 65.119979 504.941897 
L 64.45046 505.767697 
L 64.08995 506.39919 
L 63.773584 509.478937 
L 63.494005 510.227014 
L 62.831844 511.324841 
L 62.132896 512.004912 
L 61.338302 512.529537 
L 60.690856 513.199892 
L 60.190556 514.958359 
L 59.955121 515.910457 
L 59.837404 516.988854 
L 59.410677 517.970099 
L 58.763231 518.737606 
L 57.96128 519.01935 
L 56.51924 520.486358 
L 55.261134 522.594576 
L 53.877952 524.576494 
L 52.406483 527.024747 
L 51.104233 529.502145 
L 49.963844 530.930293 
L 47.565349 531.173175 
L 46.67511 531.882391 
L 46.211597 532.581892 
L 45.608294 533.961463 
L 44.026465 536.244555 
L 43.746886 536.4 
L 43.231871 536.186264 
L 40.001996 534.155768 
L 37.228276 532.698475 
L 36.713262 532.387586 
L 35.683233 531.542356 
L 35.175576 531.153744 
L 34.226479 530.862286 
L 32.791796 529.677021 
L 32.00456 528.618054 
L 31.084891 527.724248 
L 30.121079 526.995601 
L 28.818828 526.713858 
L 28.355316 526.470976 
L 27.906517 526.062933 
L 26.758771 525.373148 
L 24.632498 524.197598 
L 23.543611 523.634111 
L 22.432651 523.935285 
L 20.880251 523.536959 
L 20.313735 523.08034 
L 20.063586 522.264256 
L 20.085658 520.87497 
L 20.210732 520.117177 
L 21.115686 517.571772 
L 21.211332 516.775118 
L 21.167188 516.085333 
L 21.321692 515.502415 
L 21.711631 515.045797 
L 22.226646 515.30811 
L 22.182501 515.473269 
L 21.807277 515.259533 
L 21.483554 515.30811 
L 22.476795 514.686331 
L 23.698115 513.442774 
L 24.985651 511.276265 
L 25.640455 509.964701 
L 27.038351 508.002213 
L 28.193454 506.340899 
L 28.958618 505.262502 
L 29.826785 503.426312 
L 30.584592 501.803859 
L 31.349756 500.793469 
L 31.930986 500.171691 
L 32.026632 499.685926 
L 33.571675 497.373688 
L 34.248551 494.847713 
L 34.712063 494.23565 
L 35.661161 492.137147 
L 36.94134 489.951208 
L 38.96461 486.793739 
L 39.979924 484.928404 
L 40.973166 483.859722 
L 41.517609 483.373958 
L 41.973765 482.800756 
L 43.114154 480.702253 
L 43.305445 479.711294 
L 45.387574 475.174254 
L 46.196882 473.901552 
L 46.778113 472.191661 
L 47.263697 470.48177 
L 47.418202 469.694832 
L 48.301083 468.150101 
L 49.272253 466.906544 
L 49.757838 466.07103 
L 51.714892 460.348725 
L 52.318195 458.872001 
L 52.649275 458.1725 
L 53.362938 457.220402 
L 53.568944 456.734638 
L 53.649875 455.28706 
L 55.408281 453.023398 
L 56.033655 451.702118 
L 56.820891 449.797922 
L 57.188759 448.865254 
L 57.689058 447.641128 
L 58.410078 446.203265 
L 59.484251 443.755013 
L 59.793259 442.822345 
L 61.154369 442.443449 
L 62.316829 441.209607 
L 63.582293 438.965376 
L 63.744155 438.411604 
L 64.207668 437.721819 
L 65.303912 437.517798 
L 65.649708 437.032033 
L 65.907215 436.381109 
L 66.216223 435.914775 
L 66.606163 435.652463 
L 66.841598 434.846094 
L 66.665022 434.574066 
L 66.245653 434.39919 
L 66.635592 433.971718 
L 66.878385 433.466523 
L 67.128534 431.84407 
L 67.172679 430.901687 
L 67.83484 429.619269 
L 68.563217 427.744218 
L 71.042643 422.760275 
L 71.565015 421.584725 
L 73.007055 418.942167 
L 73.323421 418.271812 
L 73.838435 416.464769 
L 74.250446 414.103954 
L 74.772818 412.870112 
L 76.354648 411.28652 
L 78.054195 408.58567 
L 79.135725 407.342113 
L 79.290229 406.807772 
L 80.607194 404.252651 
L 80.989776 403.689165 
L 80.982419 403.03824 
L 81.217854 402.406747 
L 81.651937 401.814114 
L 82.299384 400.201376 
L 83.292626 399.161841 
L 84.263796 398.190312 
L 85.286467 395.810066 
L 87.964541 393.400675 
L 88.648774 392.06968 
L 88.987212 390.942707 
L 89.634659 388.397301 
L 89.82595 387.765808 
L 90.878051 386.862286 
L 91.525497 386.289084 
L 92.430451 385.278694 
L 93.173543 384.278019 
L 94.431649 381.820051 
L 96.307773 379.187208 
L 97.050865 377.817353 
L 97.771885 376.292052 
L 98.897559 374.795898 
L 99.434645 374.125543 
L 99.979089 372.522521 
L 100.78104 371.074943 
L 101.958215 369.374767 
L 102.642448 367.490001 
L 102.951457 365.789826 
L 103.731336 365.138902 
L 104.893797 364.633707 
L 105.945897 364.303387 
L 106.556557 363.361004 
L 107.402652 361.505384 
L 107.719018 360.067521 
L 107.748447 359.445743 
L 107.49094 358.347915 
L 106.836136 357.5124 
L 106.137188 356.919768 
L 105.092445 356.375712 
L 103.19425 355.724787 
L 102.47323 355.190447 
L 102.090647 354.733828 
L 101.443201 353.441695 
L 101.163622 352.071839 
L 101.759567 349.720739 
L 102.053861 349.001808 
L 102.907313 347.797112 
L 104.121275 346.835299 
L 105.570673 345.669464 
L 107.13043 343.755553 
L 107.96181 342.405128 
L 108.866764 340.46207 
L 109.918865 338.023533 
L 115.510448 327.278424 
L 116.371258 326.044582 
L 118.350384 323.61576 
L 120.579661 321.682418 
L 123.029657 320.652597 
L 123.574101 320.468007 
L 126.973195 319.991958 
L 128.40052 320.293132 
L 129.901419 320.934341 
L 130.512079 321.361814 
L 131.108024 321.973877 
L 131.762828 322.459641 
L 134.794055 323.839212 
L 135.551862 324.062664 
L 136.824683 324.043233 
L 138.215221 323.819781 
L 140.201705 323.198003 
L 142.114615 321.896154 
L 143.343292 320.808042 
L 143.865664 320.254271 
L 144.674972 318.89413 
L 145.675571 316.844205 
L 146.720314 313.152395 
L 147.581124 311.588234 
L 148.699441 310.121225 
L 150.42106 308.285036 
L 151.061149 307.789556 
L 153.128564 306.594576 
L 158.308136 303.135933 
L 159.117444 302.057536 
L 159.786963 300.716826 
L 161.081856 297.588504 
L 161.449723 296.024342 
L 162.619541 292.934881 
L 162.700472 291.205559 
L 162.575397 289.456807 
L 162.200173 287.601187 
L 161.48651 285.599838 
L 160.750775 283.948239 
L 160.191617 281.96632 
L 160.037113 280.09127 
L 160.081257 279.226609 
L 160.26519 278.361948 
L 160.669844 277.545864 
L 161.751374 276.088571 
L 165.466835 271.502955 
L 167.571036 269.890217 
L 169.027791 269.044987 
L 169.851814 268.743813 
L 171.367427 267.811146 
L 172.235594 267.276805 
L 172.831539 266.713318 
L 173.295052 266.023533 
L 173.559916 265.411469 
L 173.773279 264.546809 
L 173.574631 263.711294 
L 173.581988 262.360869 
L 173.464271 260.058346 
L 173.677634 259.290838 
L 173.707063 257.65867 
L 173.810066 256.881446 
L 174.295651 255.404723 
L 174.898954 254.015437 
L 175.892195 250.566509 
L 176.098201 249.284091 
L 176.282135 247.982243 
L 177.724175 244.202996 
L 180.350748 238.77215 
L 182.087082 236.265605 
L 182.962606 235.08034 
L 184.735727 233.234435 
L 187.19308 230.737606 
L 189.878512 227.278964 
L 190.879111 225.792525 
L 192.041572 223.412279 
L 193.299678 220.303387 
L 193.902981 218.797517 
L 196.249975 214.707381 
L 197.986309 212.278559 
L 201.06168 209.538848 
L 203.30567 208.266145 
L 205.586448 207.314047 
L 208.058517 206.546539 
L 208.926684 206.323087 
L 209.93464 206.274511 
L 211.531184 206.595115 
L 213.17923 206.740845 
L 217.902647 207.391769 
L 219.293185 207.090595 
L 220.764655 206.429955 
L 222.103692 205.565295 
L 223.244081 204.457752 
L 224.207893 203.22391 
L 225.922155 200.639644 
L 229.40218 194.237269 
L 230.064342 192.799406 
L 231.535811 190.098556 
L 232.801275 187.611442 
L 233.588511 186.134719 
L 234.258029 184.784294 
L 246.949453 161.55504 
L 249.25966 157.056861 
L 249.789389 155.541276 
L 249.914464 153.918823 
L 249.84089 152.228363 
L 249.531882 146.884955 
L 249.782032 145.20421 
L 250.613412 141.356956 
L 250.672271 139.530482 
L 250.495694 137.684577 
L 250.010109 135.974686 
L 249.296447 134.323087 
L 247.538041 131.126758 
L 247.133387 129.484874 
L 247.31732 127.638969 
L 247.847049 126.006801 
L 249.598098 122.373283 
L 251.540437 119.070085 
L 252.592538 117.467062 
L 254.895388 114.542761 
L 256.984874 112.133369 
L 259.324511 109.578249 
L 261.509643 107.120281 
L 262.605887 105.876724 
L 263.591772 104.536014 
L 264.202432 103.185589 
L 264.607086 101.563136 
L 264.732161 99.950398 
L 264.577656 98.289084 
L 264.239218 95.811685 
L 264.239218 94.004642 
L 264.6218 90.866604 
L 265.1221 87.466253 
L 265.776904 84.260208 
L 266.534711 82.025692 
L 267.292517 80.646121 
L 268.234258 79.324841 
L 269.352575 78.071569 
L 271.545064 76.245095 
L 272.920888 75.438726 
L 274.502718 74.700364 
L 275.32674 74.020294 
L 276.261123 72.737876 
L 276.540703 71.921792 
L 276.717279 70.872541 
L 276.636348 70.105033 
L 276.342054 69.182081 
L 275.878541 68.395142 
L 275.267882 67.666496 
L 274.517432 67.083578 
L 273.708124 66.714398 
L 272.626594 66.850412 
L 271.662782 67.093294 
L 269.168641 68.171691 
L 268.388762 68.64774 
L 265.489967 70.940548 
L 264.65123 71.368021 
L 263.738919 71.53318 
L 262.811893 71.572042 
L 261.936369 71.455458 
L 261.053487 71.163999 
L 259.582018 70.241047 
L 259.089076 69.619269 
L 258.787424 68.83233 
L 258.654992 68.025961 
L 258.684421 67.239023 
L 258.890427 66.413224 
L 259.250937 65.538848 
L 260.560545 63.896964 
L 262.620602 61.866469 
L 265.34282 58.291243 
L 265.946123 57.358575 
L 268.660984 50.995061 
L 269.602724 47.944461 
L 269.727799 46.506598 
L 269.639511 45.505924 
L 269.470292 44.89386 
L 268.660984 43.34913 
L 267.822246 42.19301 
L 263.731561 38.404048 
L 262.532314 37.442235 
L 258.544632 35.061989 
L 256.668508 34.411065 
L 255.417759 34.527648 
L 254.755598 34.683093 
L 253.08548 34.362488 
L 250.488337 33.90587 
L 249.193444 33.614411 
L 246.743447 33.507543 
L 245.676632 33.118931 
L 244.661318 32.613736 
L 243.594503 32.4 
L 242.189249 33.002348 
L 240.570633 34.517933 
L 240.239552 34.964836 
L 239.562677 37.277075 
L 238.863729 40.473404 
L 239.231596 41.794684 
L 239.658322 42.52333 
L 240.806068 43.669734 
L 241.784595 44.262367 
L 243.153062 44.699555 
L 244.293451 44.903576 
L 245.661917 44.991013 
L 246.603658 45.476778 
L 248.133986 46.3803 
L 248.75936 47.235245 
L 249.877677 49.139441 
L 250.274974 52.034597 
L 250.429478 55.026906 
L 251.069567 57.51402 
L 251.820017 60.21487 
L 251.900947 61.934476 
L 251.849446 62.847713 
L 251.327074 65.150236 
L 250.848847 66.539522 
L 249.789389 67.948239 
L 248.413565 69.250088 
L 247.251104 70.347915 
L 244.948255 71.902361 
L 243.197206 72.611577 
L 241.07829 73.145918 
L 239.290455 73.602537 
L 238.208925 74.039725 
L 237.429046 74.593496 
L 236.759527 75.322143 
L 236.207726 76.215949 
L 235.302773 77.984132 
L 234.471392 79.392848 
L 232.764488 83.482985 
L 232.249474 84.15334 
L 230.277705 85.67864 
L 228.600229 86.446148 
L 225.142276 87.53426 
L 223.707594 88.136608 
L 221.706395 88.913831 
L 220.404145 89.487033 
L 219.896488 89.797922 
L 218.873817 90.759736 
L 217.093339 92.702793 
L 215.95295 94.325246 
L 215.254002 95.413359 
L 212.244847 101.601997 
L 210.861666 105.429821 
L 210.479084 106.479072 
L 209.647704 109.267359 
L 207.837796 112.016786 
L 206.969629 113.046606 
L 206.013174 113.950128 
L 204.41663 115.193685 
L 202.577293 116.204075 
L 201.39276 116.89386 
L 200.296515 117.690514 
L 199.325346 118.691189 
L 198.589611 119.866739 
L 197.964236 121.120011 
L 197.397721 122.878478 
L 197.081355 124.122035 
L 196.919493 126.133099 
L 197.110784 128.68822 
L 197.213787 130.621563 
L 196.978352 132.593766 
L 196.478052 133.788746 
L 195.506883 135.498637 
L 194.535713 136.334152 
L 192.872952 137.257104 
L 186.494132 139.851086 
L 183.874917 141.036351 
L 182.410805 142.114748 
L 181.079125 143.309729 
L 178.658558 145.660828 
L 176.149703 148.818297 
L 175.266821 150.188153 
L 173.38334 154.249143 
L 172.868326 155.920173 
L 172.55196 157.630063 
L 172.4416 159.106787 
L 172.463672 161.525894 
L 172.794752 163.750695 
L 173.420127 166.422399 
L 173.979285 168.200297 
L 174.545801 169.939333 
L 175.649403 173.339684 
L 175.884838 174.913561 
L 175.605259 176.56516 
L 175.362466 177.847578 
L 174.96517 179.023128 
L 173.655562 181.587964 
L 171.433643 184.823155 
L 169.903315 186.68849 
L 168.08605 188.563541 
L 165.694912 190.39973 
L 163.097769 192.07076 
L 161.538011 193.08115 
L 160.780205 193.848657 
L 159.750176 195.179652 
L 158.756934 195.733423 
L 158.71279 195.733423 
L 158.786364 195.12136 
L 159.477954 193.120011 
L 159.912038 190.836918 
L 160.051827 189.496208 
L 160.530055 186.805074 
L 160.54477 185.950128 
L 160.301977 184.143085 
L 159.647173 181.96686 
L 158.74222 180.188962 
L 157.940269 179.159142 
L 157.182462 178.352773 
L 156.490871 177.944731 
L 155.850782 177.973877 
L 155.394627 177.478397 
L 152.80484 175.855944 
L 150.810999 174.952422 
L 148.515507 173.738011 
L 146.212658 172.271003 
L 140.591644 169.055242 
L 139.13489 167.792255 
L 138.561017 167.559088 
L 135.50036 165.441155 
L 134.977989 165.674322 
L 134.050963 166.645851 
L 133.101865 168.248873 
L 131.247814 171.882391 
L 130.033851 173.660289 
L 127.782503 177.517258 
L 127.296918 177.876724 
L 126.87755 177.973877 
L 126.311034 177.944731 
L 125.317792 177.429821 
L 123.986112 176.681743 
L 122.05113 175.933666 
L 117.702938 172.931642 
L 116.783269 172.251572 
L 116.018105 171.590932 
L 113.678469 170.386237 
L 112.92802 170.036486 
L 111.831775 169.385562 
L 110.603098 168.783214 
L 110.867962 168.81236 
L 111.044539 168.870652 
L 111.044539 168.870652 
" clip-path="url(#p732f0a7473)" style="fill: none; stroke: #000000; stroke-width: 3"/>
   </g>
  </g>
 </g>
 <defs>
  <clipPath id="p732f0a7473">
   <rect x="7.2" y="7.2" width="282.351435" height="554.4"/>
  </clipPath>
 </defs>
</svg>
