<?xml version="1.0" encoding="utf-8" standalone="no"?>
<!DOCTYPE svg PUBLIC "-//W3C//DTD SVG 1.1//EN"
  "http://www.w3.org/Graphics/SVG/1.1/DTD/svg11.dtd">
<svg xmlns:xlink="http://www.w3.org/1999/xlink" width="247.783978pt" height="568.8pt" viewBox="0 0 247.783978 568.8" xmlns="http://www.w3.org/2000/svg" version="1.1">
 <metadata>
  <rdf:RDF xmlns:dc="http://purl.org/dc/elements/1.1/" xmlns:cc="http://creativecommons.org/ns#" xmlns:rdf="http://www.w3.org/1999/02/22-rdf-syntax-ns#">
   <cc:Work>
    <dc:type rdf:resource="http://purl.org/dc/dcmitype/StillImage"/>
    <dc:date>2022-07-17T05:05:08.593715</dc:date>
    <dc:format>image/svg+xml</dc:format>
    <dc:creator>
     <cc:Agent>
      <dc:title>Matplotlib v3.5.2, https://matplotlib.org/</dc:title>
     </cc:Agent>
    </dc:creator>
   </cc:Work>
  </rdf:RDF>
 </metadata>
 <defs>
  <style type="text/css">*{stroke-linejoin: round; stroke-linecap: butt}</style>
 </defs>
 <g id="figure_1">
  <g id="patch_1">
   <path d="M 0 568.8 
L 247.783978 568.8 
L 247.783978 0 
L 0 0 
z
" style="fill: #ffffff"/>
  </g>
  <g id="axes_1">
   <g id="LineCollection_1">
    <path d="M 229.975616 34.095643 
L 228.274767 33.606056 
L 225.556124 32.4 
L 225.135436 32.513441 
L 224.977112 32.943322 
L 224.646894 34.394172 
L 224.389053 34.8957 
L 223.977411 35.373346 
L 223.606482 36.268932 
L 223.316975 36.830166 
L 223.050087 37.015253 
L 222.688204 37.743663 
L 221.892063 39.5826 
L 221.602557 40.113981 
L 220.987356 40.908067 
L 218.680354 45.487497 
L 218.291331 46.066643 
L 217.59923 47.457787 
L 216.98403 48.198138 
L 216.454776 49.1594 
L 215.93457 50.072898 
L 215.391746 50.950572 
L 215.038911 51.607335 
L 212.704768 55.106091 
L 212.293126 55.912119 
L 211.334137 57.834644 
L 210.388719 59.846727 
L 209.87756 60.60499 
L 208.221947 63.858952 
L 207.778641 64.629156 
L 205.761145 68.563764 
L 202.119701 75.083631 
L 200.934536 77.071832 
L 200.034353 78.743592 
L 199.22464 79.901884 
L 198.374216 81.63335 
L 196.79098 84.487284 
L 195.148937 87.293454 
L 194.108525 89.359272 
L 192.927883 91.31762 
L 192.054841 92.941616 
L 191.376311 94.165584 
L 190.462558 95.759727 
L 188.218885 99.95704 
L 187.237279 101.628801 
L 185.685707 104.602147 
L 184.401024 106.870965 
L 183.8582 107.736698 
L 183.315376 108.59049 
L 182.202587 110.805573 
L 181.845228 111.647423 
L 181.714045 112.560921 
L 181.836181 114.077447 
L 182.175446 117.146322 
L 182.419717 117.588144 
L 182.107593 122.579544 
L 182.256869 122.937778 
L 182.505664 123.69007 
L 182.596134 125.14689 
L 182.596134 126.364887 
L 182.632323 127.624678 
L 183.297282 128.854617 
L 183.030393 129.875585 
L 182.817787 131.147317 
L 182.777076 132.568313 
L 183.645594 133.284782 
L 183.537029 134.317691 
L 183.324423 135.129689 
L 183.071105 137.040273 
L 182.618752 137.9478 
L 182.532805 138.765769 
L 182.582564 139.165797 
L 183.184194 140.312147 
L 183.645594 141.040557 
L 184.817189 141.58985 
L 185.233354 142.097349 
L 185.260495 142.724259 
L 185.210736 143.67358 
L 185.188119 144.790077 
L 184.826236 147.10666 
L 184.61363 147.912687 
L 184.3965 148.294804 
L 184.527683 150.103888 
L 184.401024 151.238297 
L 184.676959 153.011557 
L 184.952895 154.432554 
L 184.604583 154.784818 
L 182.510187 155.943109 
L 181.578339 157.346194 
L 181.741187 157.859663 
L 181.704998 158.391044 
L 181.845228 158.946307 
L 180.935998 163.257062 
L 179.723691 165.227351 
L 179.411567 166.116966 
L 179.085873 167.030464 
L 178.004749 169.1739 
L 174.693523 177.025204 
L 173.282181 179.317905 
L 173.150998 179.747786 
L 172.780068 180.279167 
L 172.517704 180.965783 
L 171.599426 184.26154 
L 170.500208 185.288478 
L 170.902802 185.760154 
L 171.545144 186.333329 
L 174.150699 187.820001 
L 175.684176 188.620058 
L 177.421213 189.533556 
L 178.181166 189.396233 
L 179.497514 190.035084 
L 180.370556 190.500789 
L 182.175446 191.181434 
L 185.13836 192.745725 
L 186.911584 193.754752 
L 187.902238 194.716014 
L 188.770756 195.438453 
L 189.322627 196.041481 
L 193.072636 198.196858 
L 194.280419 198.937209 
L 194.551831 199.301414 
L 195.167032 199.528296 
L 196.098879 200.029824 
L 197.130245 200.519411 
L 199.102505 201.916526 
L 200.5048 202.591201 
L 200.753594 203.146464 
L 200.351 204.370431 
L 198.99394 207.158689 
L 196.994539 210.358917 
L 196.664321 211.218679 
L 195.746044 213.218822 
L 195.442967 214.012908 
L 194.814196 215.111493 
L 193.809972 217.553458 
L 192.611236 219.219248 
L 191.512017 221.285066 
L 191.299411 221.643301 
L 190.90134 221.935859 
L 190.322328 222.103035 
L 189.462857 223.71509 
L 188.910986 225.016675 
L 188.395303 225.804791 
L 186.898014 228.61096 
L 185.957119 229.584164 
L 185.527383 230.915602 
L 184.898612 231.602218 
L 184.364836 232.330628 
L 182.419717 237.113057 
L 182.184493 237.536968 
L 181.311451 240.438667 
L 180.479121 242.211927 
L 179.859397 243.519483 
L 179.275861 244.928538 
L 179.036114 245.36439 
L 177.688101 246.164447 
L 177.154325 247.077944 
L 176.629595 247.406326 
L 176.037012 248.260118 
L 170.830426 258.183211 
L 170.020713 259.562414 
L 169.486937 260.529647 
L 168.803883 262.141702 
L 167.265882 264.977724 
L 166.374746 266.512161 
L 165.221245 269.252655 
L 164.416057 270.500505 
L 163.796333 271.264738 
L 162.018584 274.273907 
L 161.294819 275.288905 
L 160.141318 276.668107 
L 159.851812 276.924842 
L 159.385888 278.208515 
L 158.612364 279.969834 
L 158.05597 280.972891 
L 157.296016 283.14618 
L 156.888898 284.519411 
L 156.441068 286.292672 
L 156.052045 287.134523 
L 153.681713 290.609397 
L 152.53726 291.648276 
L 151.759212 292.818509 
L 149.59244 295.935148 
L 149.022475 296.633705 
L 148.321327 297.863643 
L 147.683509 299.266728 
L 146.783326 301.045959 
L 144.765831 304.777568 
L 144.566795 305.273125 
L 144.494419 305.798536 
L 143.865648 307.207591 
L 143.53543 308.174824 
L 142.802617 309.464468 
L 140.866545 312.324373 
L 140.509186 313.243841 
L 139.324021 315.888805 
L 138.32432 318.044182 
L 136.695848 320.850352 
L 135.564965 322.719141 
L 135.194035 323.083346 
L 134.705494 324.002815 
L 134.067676 325.501429 
L 133.710317 325.901457 
L 132.927746 327.107513 
L 132.362304 327.847864 
L 131.557115 329.537536 
L 131.168091 330.445064 
L 130.607173 331.298856 
L 129.046555 333.119881 
L 128.671101 333.364674 
L 128.453972 333.699026 
L 128.508254 334.272201 
L 127.933766 336.421608 
L 126.1334 339.5681 
L 125.640334 340.559215 
L 124.342081 342.338446 
L 123.948533 342.750416 
L 123.41928 343.73556 
L 122.985021 344.780411 
L 122.568856 345.216263 
L 120.673496 348.756813 
L 120.266378 349.694193 
L 117.045622 355.981207 
L 116.68374 356.53647 
L 116.068539 358.047025 
L 115.457862 359.330699 
L 114.86528 359.545639 
L 114.476256 359.700874 
L 114.168656 359.957609 
L 113.051343 360.250167 
L 112.666843 360.626313 
L 112.585419 360.859166 
L 112.476854 361.826398 
L 112.237107 362.411515 
L 111.590242 362.996631 
L 110.979565 363.247395 
L 110.753388 363.617571 
L 110.62673 363.934011 
L 110.169853 364.387775 
L 109.387282 365.677418 
L 107.577869 368.71644 
L 106.537456 370.310584 
L 104.899937 373.015253 
L 104.194266 373.797399 
L 102.859824 376.00054 
L 102.244623 376.83045 
L 100.810664 379.147032 
L 100.489493 379.559002 
L 100.168322 380.096354 
L 99.363133 381.750203 
L 99.028392 382.120378 
L 98.187015 382.938347 
L 97.644191 383.983197 
L 96.771149 385.374341 
L 94.586283 388.90892 
L 93.898706 389.703007 
L 92.935193 391.010562 
L 92.451175 391.906148 
L 91.43338 393.494321 
L 90.917698 394.276466 
L 90.352256 395.183993 
L 89.990373 395.98405 
L 89.936091 396.30049 
L 88.429755 398.69469 
L 86.778665 401.476978 
L 86.42583 401.984477 
L 85.281376 403.805501 
L 84.856164 404.659293 
L 83.85194 406.062378 
L 83.417681 406.951994 
L 82.010862 408.916312 
L 82.001815 409.173047 
L 82.34108 409.608899 
L 84.747599 411.011984 
L 85.575406 411.459777 
L 88.425231 413.46589 
L 89.338985 414.021153 
L 91.397192 415.579473 
L 93.197558 416.666117 
L 94.066076 417.11391 
L 94.916501 417.472144 
L 95.432183 417.794555 
L 95.907154 418.176672 
L 98.652939 419.890227 
L 98.684603 420.505196 
L 98.612227 420.845519 
L 95.165295 425.9623 
L 94.921024 426.236946 
L 94.215353 427.574355 
L 93.355882 428.869969 
L 91.18911 432.428431 
L 89.361602 435.777923 
L 87.597425 438.285564 
L 86.104659 440.787234 
L 85.76087 441.545497 
L 85.114005 442.626171 
L 84.168587 444.668107 
L 83.015086 446.05328 
L 82.295844 447.127984 
L 78.975571 451.295444 
L 77.419476 453.832938 
L 77.007835 455.20617 
L 76.193599 457.39737 
L 75.745769 458.215339 
L 74.886298 459.06316 
L 72.89142 462.579828 
L 72.108849 463.600796 
L 70.810595 465.51735 
L 70.181824 466.562201 
L 69.159506 467.887668 
L 68.490023 468.508608 
L 67.806969 469.619134 
L 67.250575 470.210221 
L 66.703227 470.711749 
L 66.065409 471.977511 
L 65.504491 472.479039 
L 64.676685 473.577625 
L 64.26052 474.401564 
L 62.731566 476.694264 
L 62.360636 477.739114 
L 59.709846 482.073751 
L 58.958939 483.291748 
L 58.610627 483.584306 
L 57.914003 484.808274 
L 57.104291 486.038212 
L 56.353385 487.345767 
L 55.466772 488.498088 
L 54.127806 490.635553 
L 52.671229 492.617784 
L 52.227923 493.453664 
L 51.951987 495.197072 
L 51.205604 496.552392 
L 50.545169 497.346478 
L 49.314768 498.689857 
L 48.799085 500.881058 
L 48.414585 501.824408 
L 47.70439 504.672372 
L 47.541543 505.293312 
L 46.894678 506.033663 
L 46.17996 507.132248 
L 45.804506 507.329277 
L 45.008365 506.94716 
L 44.705288 506.965072 
L 44.252935 507.15016 
L 43.832246 507.508394 
L 43.253234 509.801095 
L 43.076816 510.553387 
L 42.497804 512.655029 
L 42.886828 514.284995 
L 43.01801 515.096993 
L 42.859687 517.031459 
L 42.719457 518.315133 
L 42.538516 518.756955 
L 42.289721 519.007719 
L 42.271627 519.694335 
L 41.222168 519.801805 
L 40.190802 519.22863 
L 39.023731 518.28528 
L 38.385913 518.171839 
L 31.89012 515.795551 
L 31.451337 515.694051 
L 30.700431 515.819433 
L 29.035771 516.494108 
L 27.520387 516.744872 
L 26.887093 516.93593 
L 22.336419 517.449399 
L 17.867169 518.512161 
L 17.826457 518.858455 
L 17.953116 519.240571 
L 18.247145 519.586865 
L 18.618075 519.610747 
L 18.866869 519.461483 
L 18.875916 519.324159 
L 18.875916 519.324159 
L 18.762828 519.258483 
L 19.106617 519.33013 
L 19.337317 519.306248 
L 20.834606 518.930102 
L 22.797819 518.852484 
L 23.544202 518.530073 
L 24.132261 517.807634 
L 24.150355 517.35387 
L 24.163926 516.947871 
L 24.453432 516.392608 
L 24.584615 516.010491 
L 24.751985 515.867197 
L 25.005303 515.807492 
L 27.285164 516.004521 
L 31.261349 515.974668 
L 35.753217 517.121018 
L 37.214318 517.640458 
L 37.476683 518.368868 
L 37.476683 519.186836 
L 36.716729 523.617002 
L 36.712206 525.103675 
L 36.970047 527.211287 
L 37.169082 527.844168 
L 37.969748 528.79946 
L 38.906119 529.605487 
L 40.077714 529.874163 
L 43.253234 530.118957 
L 43.805105 531.725041 
L 44.040329 532.268363 
L 44.347929 533.193802 
L 45.153118 535.056621 
L 45.370247 535.271562 
L 46.198054 535.468591 
L 46.555413 535.904442 
L 46.881107 536.304471 
L 47.347031 536.4 
L 48.735756 536.095501 
L 50.445651 535.832796 
L 50.920622 535.856678 
L 51.612722 535.313356 
L 51.884134 535.080503 
L 55.073225 534.053565 
L 56.204108 533.313213 
L 56.534326 532.937067 
L 57.325944 532.54898 
L 60.338617 530.99066 
L 61.419741 530.166721 
L 63.13416 528.620343 
L 63.568419 528.477049 
L 63.88959 528.17852 
L 65.40045 527.456081 
L 70.041594 524.088677 
L 70.923683 523.527443 
L 71.122719 523.061739 
L 71.52079 522.536328 
L 72.407402 521.819859 
L 72.579296 521.527301 
L 72.384784 521.186978 
L 74.013256 519.545071 
L 75.524116 518.547985 
L 77.451141 517.521046 
L 77.966824 516.82846 
L 78.690589 515.574639 
L 78.87153 515.198493 
L 78.853436 514.589495 
L 79.409831 513.932732 
L 80.391437 512.5595 
L 82.458692 510.607122 
L 83.802181 509.586154 
L 85.629688 507.353159 
L 88.651408 505.364958 
L 89.040432 505.06643 
L 89.497308 504.935077 
L 89.949662 505.215694 
L 90.302497 505.197782 
L 90.858892 505.388841 
L 91.324816 505.132106 
L 93.423735 504.457431 
L 93.971082 504.248461 
L 95.05673 503.520051 
L 96.418313 502.7797 
L 97.440632 502.194584 
L 98.806739 501.382586 
L 100.774475 500.039207 
L 101.367058 499.388414 
L 101.977735 498.743592 
L 103.018148 497.925624 
L 104.085701 497.05392 
L 105.248249 496.415069 
L 106.062485 495.997128 
L 108.690658 494.265662 
L 109.776305 493.596958 
L 110.206041 493.167077 
L 110.450312 492.743166 
L 110.667441 492.128197 
L 110.852906 492.098344 
L 111.219312 492.247608 
L 111.477154 491.984903 
L 112.743743 491.990874 
L 113.689161 491.632639 
L 115.24978 491.423669 
L 116.724452 491.423669 
L 117.258228 491.375904 
L 120.926813 489.907143 
L 121.808902 489.590703 
L 123.256433 489.172763 
L 123.722357 488.52197 
L 125.495581 488.09806 
L 128.313742 487.739825 
L 130.380997 487.16068 
L 131.394268 486.820357 
L 132.339686 486.64721 
L 133.172016 486.33077 
L 133.583658 486.151653 
L 137.102966 485.91283 
L 138.735962 485.339655 
L 138.903332 485.035155 
L 138.835479 484.67095 
L 138.600256 484.587362 
L 138.292655 483.458924 
L 137.351761 478.031672 
L 136.940119 476.915175 
L 136.632519 475.261326 
L 136.614425 474.455299 
L 136.220877 472.252157 
L 135.96756 471.899893 
L 135.913277 471.087895 
L 136.116836 470.658014 
L 135.723289 464.347118 
L 135.555918 462.669387 
L 135.732336 462.341005 
L 136.528478 462.054418 
L 138.726914 461.720065 
L 145.100572 461.03942 
L 145.788149 460.83045 
L 146.34002 460.352804 
L 146.638573 459.749776 
L 146.63405 458.860161 
L 146.462155 458.066074 
L 146.579767 457.182429 
L 147.470903 454.209084 
L 148.488698 451.838766 
L 153.202219 439.228915 
L 153.735996 436.595892 
L 153.53696 436.285422 
L 153.564102 435.95704 
L 154.170255 435.389836 
L 154.590944 434.989807 
L 154.916638 434.28528 
L 157.924787 427.10268 
L 159.164235 423.723335 
L 161.670272 417.095998 
L 162.104531 415.579473 
L 162.547838 414.707769 
L 163.013761 413.925624 
L 163.809903 412.032952 
L 167.098511 406.044467 
L 168.360577 403.811472 
L 169.821678 401.094861 
L 170.31022 400.378392 
L 170.839473 399.094719 
L 172.377474 396.097491 
L 173.350034 394.377966 
L 175.679653 389.679124 
L 176.842201 388.114834 
L 178.267114 385.440017 
L 180.044862 382.215907 
L 180.524356 381.583027 
L 181.682381 379.272415 
L 183.604882 375.964717 
L 183.799394 375.236307 
L 183.622976 374.549691 
L 183.111817 374.095927 
L 180.922427 372.794342 
L 174.553293 369.355292 
L 174.327117 369.134381 
L 174.349734 368.776146 
L 177.602154 362.315985 
L 178.714943 360.351667 
L 182.229728 353.957182 
L 183.817488 351.091307 
L 185.22883 349.449399 
L 186.685408 346.553671 
L 188.485774 343.234032 
L 191.498447 337.084341 
L 192.516241 335.472287 
L 194.660396 331.883972 
L 195.917938 329.167361 
L 197.306663 326.307456 
L 197.550933 325.543223 
L 198.220416 324.283432 
L 198.274699 323.883403 
L 198.184228 323.549051 
L 197.718304 323.059464 
L 196.777409 322.528083 
L 192.063888 320.020442 
L 191.091329 319.501002 
L 190.498746 319.250238 
L 189.290963 318.503916 
L 188.689333 318.33674 
L 187.630826 317.459066 
L 186.875396 316.850068 
L 186.545178 316.336598 
L 186.373284 315.793276 
L 186.133537 315.572365 
L 185.065983 315.094719 
L 184.201988 314.551397 
L 182.03974 313.655811 
L 181.230027 313.297576 
L 180.384127 312.599019 
L 178.954691 312.479608 
L 178.203784 312.109432 
L 176.783395 311.225787 
L 175.602753 310.6347 
L 174.743282 310.509318 
L 173.467645 310.00779 
L 172.047256 309.148028 
L 171.870838 309.010704 
L 171.37325 308.879352 
L 169.830725 307.673296 
L 168.111783 306.616504 
L 165.275528 304.950714 
L 164.606045 304.544715 
L 164.226068 304.556656 
L 163.877756 304.449186 
L 159.95133 301.57137 
L 159.268276 301.135518 
L 157.983593 300.759372 
L 156.861757 300.150373 
L 155.966097 299.49361 
L 152.980566 297.421821 
L 149.425069 296.120236 
L 148.610833 295.779913 
L 146.869273 294.639534 
L 144.774878 293.308096 
L 142.960941 291.301983 
L 141.006775 289.970545 
L 139.780898 289.074959 
L 138.717867 288.645078 
L 137.677455 288.442078 
L 135.754954 287.880844 
L 135.510683 288.071903 
L 135.316171 287.898756 
L 135.284506 287.683815 
L 135.130706 287.570375 
L 134.995 287.540522 
L 134.54717 287.116611 
L 134.171717 286.883759 
L 132.525151 286.352378 
L 130.837873 285.295586 
L 129.711514 284.4 
L 128.019713 284.095501 
L 126.875259 283.552179 
L 125.667476 282.883474 
L 124.428028 282.32224 
L 122.876456 281.390831 
L 120.16686 279.736982 
L 117.289893 278.178662 
L 115.005509 277.229341 
L 112.52209 275.850139 
L 111.323354 275.217258 
L 110.106523 274.542583 
L 109.161105 274.082849 
L 108.925881 273.57535 
L 108.894217 273.252939 
L 109.247052 272.566323 
L 110.273894 271.18115 
L 111.065512 270.082565 
L 111.676189 268.828744 
L 112.277819 267.300277 
L 115.09598 262.165584 
L 115.69761 261.066998 
L 118.678618 255.88454 
L 118.900271 255.054631 
L 119.533565 253.956045 
L 120.388513 252.44549 
L 122.080314 248.928822 
L 123.383092 246.82718 
L 124.183757 245.585301 
L 125.292022 243.662776 
L 125.956982 242.749279 
L 126.735029 241.895487 
L 127.698542 239.95505 
L 129.838173 235.662208 
L 131.249515 233.250096 
L 131.824004 232.073893 
L 132.285404 230.676779 
L 132.746804 229.894634 
L 133.411764 229.172194 
L 133.588181 228.694548 
L 133.583658 228.210932 
L 133.461522 227.56611 
L 133.859593 226.563054 
L 134.420511 225.38088 
L 135.040235 224.144971 
L 135.551395 223.416561 
L 136.143977 222.712034 
L 136.311348 221.714948 
L 137.130107 220.102893 
L 138.668109 217.732575 
L 139.174744 216.956401 
L 139.875892 216.562343 
L 140.694651 215.792139 
L 140.803216 215.404051 
L 140.518233 214.502495 
L 142.992606 208.573715 
L 143.820412 206.967631 
L 145.087001 205.773516 
L 146.077655 204.955548 
L 146.661191 204.137579 
L 147.574944 202.238937 
L 148.46608 200.859734 
L 149.999558 198.704357 
L 150.972117 197.062449 
L 151.808971 195.748923 
L 152.302036 194.518985 
L 152.338224 193.909986 
L 152.99866 193.32487 
L 154.030026 191.563551 
L 154.04812 191.265022 
L 153.921461 190.853053 
L 153.455537 190.441083 
L 147.38948 186.876651 
L 145.543878 186.375123 
L 144.349666 185.778065 
L 142.196464 184.631715 
L 141.689828 184.446627 
L 140.984157 183.95704 
L 140.079451 183.43163 
L 138.405744 182.50022 
L 137.116537 181.55687 
L 135.329741 180.583666 
L 134.275758 179.879139 
L 132.787516 179.043258 
L 130.353856 177.687938 
L 128.933466 176.989381 
L 129.09179 176.332618 
L 129.440102 175.568384 
L 130.145773 174.236946 
L 131.181662 172.595039 
L 134.257664 166.833435 
L 137.387949 161.67486 
L 139.274262 158.176103 
L 141.011298 154.820641 
L 143.662089 149.745654 
L 144.21396 148.312716 
L 145.43079 146.031957 
L 146.321926 143.888521 
L 146.842132 143.183993 
L 147.611133 141.733144 
L 148.31228 140.330059 
L 149.302934 139.327003 
L 150.596664 136.765627 
L 151.008306 136.252157 
L 152.501071 133.087753 
L 153.147937 131.798109 
L 153.912414 130.812965 
L 154.572849 129.875585 
L 159.5804 120.442078 
L 159.865383 119.755462 
L 161.53909 116.973175 
L 162.452843 115.25365 
L 162.859961 114.143123 
L 163.990844 112.596745 
L 164.619615 111.551894 
L 165.289098 110.459279 
L 165.899775 109.551752 
L 167.3654 106.590348 
L 168.72246 104.028971 
L 170.188084 101.001891 
L 171.649185 98.60172 
L 173.010769 95.753756 
L 174.028563 94.33276 
L 174.232122 93.490909 
L 174.765899 92.46397 
L 175.742982 91.060886 
L 176.688401 89.186126 
L 177.222178 87.956187 
L 178.099743 86.141133 
L 178.280684 85.311223 
L 179.606079 83.752904 
L 179.85035 83.185699 
L 179.999627 82.487142 
L 180.804815 81.340792 
L 181.433586 80.546706 
L 182.211634 79.13168 
L 182.768029 78.039065 
L 183.555123 76.606127 
L 186.052113 71.907286 
L 188.092227 68.432412 
L 188.494821 67.692061 
L 188.811468 67.327856 
L 189.091927 66.396446 
L 189.200492 65.906859 
L 192.326253 60.676637 
L 192.837412 59.452669 
L 194.361843 56.849499 
L 194.683014 56.592764 
L 195.072037 55.810619 
L 195.877226 54.216476 
L 196.686939 53.153714 
L 197.54641 51.595394 
L 198.129946 50.413221 
L 199.319635 48.419049 
L 200.369094 46.329348 
L 202.522296 42.544005 
L 203.74365 40.454304 
L 205.503304 37.49887 
L 206.353728 36.56149 
L 207.231293 35.044964 
L 208.253612 33.170204 
L 208.493359 32.931381 
L 208.773818 32.853764 
L 209.479489 33.116469 
L 210.049454 33.522468 
L 211.153196 34.424024 
L 211.153196 34.424024 
" clip-path="url(#pe17d5f3646)" style="fill: none; stroke: #000000; stroke-width: 3"/>
   </g>
  </g>
 </g>
 <defs>
  <clipPath id="pe17d5f3646">
   <rect x="7.2" y="7.2" width="233.383978" height="554.4"/>
  </clipPath>
 </defs>
</svg>
