<?xml version="1.0" encoding="utf-8" standalone="no"?>
<!DOCTYPE svg PUBLIC "-//W3C//DTD SVG 1.1//EN"
  "http://www.w3.org/Graphics/SVG/1.1/DTD/svg11.dtd">
<svg xmlns:xlink="http://www.w3.org/1999/xlink" width="246.280998pt" height="568.8pt" viewBox="0 0 246.280998 568.8" xmlns="http://www.w3.org/2000/svg" version="1.1">
 <metadata>
  <rdf:RDF xmlns:dc="http://purl.org/dc/elements/1.1/" xmlns:cc="http://creativecommons.org/ns#" xmlns:rdf="http://www.w3.org/1999/02/22-rdf-syntax-ns#">
   <cc:Work>
    <dc:type rdf:resource="http://purl.org/dc/dcmitype/StillImage"/>
    <dc:date>2022-07-18T05:12:26.244706</dc:date>
    <dc:format>image/svg+xml</dc:format>
    <dc:creator>
     <cc:Agent>
      <dc:title>Matplotlib v3.5.2, https://matplotlib.org/</dc:title>
     </cc:Agent>
    </dc:creator>
   </cc:Work>
  </rdf:RDF>
 </metadata>
 <defs>
  <style type="text/css">*{stroke-linejoin: round; stroke-linecap: butt}</style>
 </defs>
 <g id="figure_1">
  <g id="patch_1">
   <path d="M 0 568.8 
L 246.280998 568.8 
L 246.280998 0 
L 0 0 
z
" style="fill: #ffffff"/>
  </g>
  <g id="axes_1">
   <g id="LineCollection_1">
    <path d="M 115.342242 119.295286 
L 117.441862 120.359984 
L 118.016592 120.79443 
L 118.887958 121.234995 
L 119.680529 121.516467 
L 119.875196 121.565418 
L 120.329419 121.999864 
L 120.834625 122.43431 
L 122.04434 123.205298 
L 122.322435 123.798837 
L 122.3178 123.829432 
L 122.3178 123.829432 
L 122.623705 124.129261 
L 122.781292 124.153736 
L 123.161356 123.866145 
L 124.213484 122.281336 
L 124.968976 120.61698 
L 125.121928 120.164177 
L 125.344405 120.096869 
L 125.92377 120.311032 
L 127.425485 120.953523 
L 128.269041 121.167686 
L 132.695392 122.721901 
L 135.907393 124.955319 
L 136.732409 125.499907 
L 142.530697 128.528789 
L 144.792539 129.275302 
L 146.933873 130.193145 
L 149.047398 131.196654 
L 150.215398 131.961523 
L 150.961621 132.579538 
L 151.550256 133.362764 
L 152.013748 134.305083 
L 152.324288 135.467685 
L 153.010257 138.667899 
L 153.515463 139.842738 
L 154.521241 141.488737 
L 157.622004 144.719545 
L 158.428481 145.606794 
L 161.135276 149.382189 
L 162.099339 150.263319 
L 162.270832 150.832382 
L 161.79807 152.031697 
L 160.259275 155.201316 
L 159.758704 156.363918 
L 158.131846 159.068496 
L 154.933749 165.572945 
L 154.484162 166.490789 
L 154.113368 167.48206 
L 153.218828 169.409531 
L 152.732161 170.327374 
L 152.074002 171.135076 
L 150.98943 172.646458 
L 146.688222 180.429769 
L 145.909555 182.020698 
L 145.288476 182.938541 
L 144.579333 184.431566 
L 142.998824 187.130025 
L 142.526062 188.078463 
L 142.099649 189.241065 
L 139.230632 194.693054 
L 139.100854 195.170333 
L 138.43806 195.916845 
L 137.761362 196.53486 
L 136.9966 197.758651 
L 132.695392 205.523605 
L 131.824026 206.851419 
L 129.81247 210.492197 
L 129.075517 211.936271 
L 127.156659 215.130365 
L 126.081357 216.598915 
L 125.571516 217.614661 
L 124.802119 219.279017 
L 124.069801 220.661901 
L 121.877483 224.877861 
L 120.269165 227.796603 
L 119.448783 229.467078 
L 118.7211 230.74594 
L 117.52529 232.581626 
L 117.112782 234.068532 
L 115.824274 236.13062 
L 115.509099 237.219794 
L 115.115131 238.027496 
L 114.433797 238.755652 
L 113.177733 240.866692 
L 112.236844 242.653427 
L 111.59259 243.675292 
L 111.30059 243.822147 
L 110.69805 244.886845 
L 110.188208 245.3886 
L 109.372462 246.171826 
L 108.88116 246.961171 
L 107.903191 249.329207 
L 107.356271 250.351073 
L 107.152334 251.391295 
L 106.647127 252.407042 
L 105.645984 253.826639 
L 105.159317 254.989241 
L 104.547508 256.696429 
L 103.750301 257.6877 
L 103.314618 258.305715 
L 102.424713 260.251542 
L 101.873157 260.998055 
L 100.681982 263.384448 
L 100.130427 264.106484 
L 99.268331 265.587272 
L 98.763124 266.290951 
L 98.193029 268.065449 
L 97.029663 270.378414 
L 96.529092 270.886287 
L 96.186108 271.051499 
L 95.768965 271.596086 
L 92.102741 279.42223 
L 91.096963 280.688854 
L 89.006613 284.34187 
L 88.445787 284.45813 
L 87.922041 284.666175 
L 87.592961 285.449401 
L 87.166549 286.783333 
L 86.281278 288.980038 
L 85.808516 290.160997 
L 84.99277 291.115554 
L 84.251182 292.804385 
L 83.685722 294.101604 
L 83.463245 294.578882 
L 82.91169 295.47225 
L 82.332324 296.518591 
L 81.590737 297.766858 
L 81.206038 298.647988 
L 80.858419 299.088552 
L 80.469086 299.204813 
L 80.533975 299.314954 
L 80.436641 299.712686 
L 80.112197 299.877898 
L 78.768069 302.044008 
L 77.864259 304.063263 
L 77.145846 305.464504 
L 76.065909 307.985514 
L 75.514354 309.00126 
L 75.087941 309.539728 
L 74.596639 310.322955 
L 74.082162 310.916493 
L 73.002226 311.620173 
L 72.700956 311.962835 
L 72.552638 312.329972 
L 72.283813 312.531897 
L 71.607114 312.672633 
L 71.203876 313.027533 
L 70.513272 313.755689 
L 70.235177 314.447131 
L 69.994161 316.496981 
L 68.696383 319.183202 
L 68.218986 320.278495 
L 67.718414 321.942851 
L 66.13327 326.275071 
L 65.720762 326.709517 
L 65.336064 327.884357 
L 65.006984 328.91846 
L 64.557397 329.903612 
L 63.45892 330.992786 
L 61.479808 334.01555 
L 61.007046 334.266427 
L 60.399871 336.016448 
L 59.820506 337.23412 
L 59.407998 338.769978 
L 58.861077 339.559324 
L 55.931806 344.215849 
L 55.477584 345.060264 
L 51.065138 353.388163 
L 50.291106 355.266682 
L 49.285327 357.38996 
L 48.719867 358.67494 
L 46.902977 362.13215 
L 46.620247 362.854187 
L 44.67358 364.65316 
L 43.334087 368.024704 
L 42.300499 369.793082 
L 42.045579 370.270361 
L 41.327166 370.863899 
L 40.896118 371.793981 
L 40.534594 372.405876 
L 39.973768 373.08508 
L 39.538086 374.180373 
L 38.680625 376.175153 
L 38.462784 376.615717 
L 37.211355 378.18217 
L 36.015545 380.079046 
L 35.426909 381.46193 
L 34.972687 382.661245 
L 33.59148 385.427013 
L 32.692305 386.877206 
L 30.91713 389.636855 
L 29.132685 393.393893 
L 28.692367 394.122049 
L 28.256684 395.180628 
L 27.589256 396.355468 
L 26.977446 397.560902 
L 26.356366 399.029451 
L 26.356366 399.280328 
L 26.796684 399.67806 
L 27.93224 400.369502 
L 29.308812 401.342416 
L 32.391035 403.337196 
L 33.568305 403.851188 
L 34.365512 404.169374 
L 38.39326 406.537409 
L 38.759419 407.161543 
L 39.417578 407.889699 
L 39.403673 408.373096 
L 38.930911 408.991111 
L 38.467418 409.731504 
L 37.503355 411.45705 
L 36.789577 412.595175 
L 35.946021 414.363553 
L 35.260052 415.152899 
L 34.685322 416.388928 
L 33.197512 418.934413 
L 32.349321 421.18007 
L 32.502273 421.443185 
L 33.433893 422.097913 
L 34.80583 422.881139 
L 35.111735 423.132016 
L 36.961069 424.013146 
L 38.027101 424.704588 
L 39.171927 425.328721 
L 40.186975 425.616312 
L 41.062975 426.319992 
L 44.529897 427.831374 
L 46.295802 429.097998 
L 46.666596 429.226496 
L 46.842723 429.501849 
L 46.921517 429.862867 
L 46.851993 430.297313 
L 45.206596 433.522003 
L 43.876373 435.198597 
L 43.106976 436.844596 
L 42.416372 438.215242 
L 41.864817 439.390081 
L 39.097768 444.389268 
L 38.235672 445.668129 
L 37.925133 445.784389 
L 37.711926 446.041386 
L 37.419926 446.983705 
L 36.729323 448.268685 
L 28.882399 462.617636 
L 28.048113 464.006639 
L 27.431668 465.150883 
L 26.402715 467.072235 
L 25.967033 467.898294 
L 24.822207 470.517207 
L 23.561508 472.579295 
L 23.16754 473.307451 
L 22.588174 474.971807 
L 20.312427 483.67908 
L 20.108491 484.376641 
L 19.899919 485.196581 
L 19.594014 486.567227 
L 18.212807 491.609246 
L 17.758585 493.646859 
L 17.740045 493.81207 
L 18.310141 494.350538 
L 19.473506 494.962434 
L 21.563856 495.74566 
L 25.225445 496.951094 
L 26.018017 497.630299 
L 30.555606 499.686268 
L 36.112878 501.882973 
L 41.04907 503.737016 
L 45.619104 505.652249 
L 52.270217 508.307876 
L 54.142726 509.048269 
L 57.47987 510.455629 
L 58.012886 510.724863 
L 58.012886 510.724863 
L 58.165839 510.871718 
L 58.643236 510.749339 
L 59.301395 510.969621 
L 61.354665 512.101628 
L 72.747305 516.403254 
L 75.671941 517.565855 
L 78.406545 518.697862 
L 83.694992 521.163801 
L 89.391311 524.137613 
L 98.929982 527.013522 
L 99.694744 527.392898 
L 99.977474 527.239924 
L 100.515125 526.860549 
L 100.737601 526.872786 
L 100.352903 530.128071 
L 99.833792 533.94018 
L 99.690109 534.784596 
L 99.903315 535.237398 
L 100.329728 535.451562 
L 102.192967 536.100171 
L 103.18484 536.363286 
L 103.574174 536.038982 
L 103.708587 535.81258 
L 103.708587 535.81258 
L 104.028396 534.154343 
L 104.301857 533.175311 
L 104.473349 532.061661 
L 105.664524 528.13941 
L 106.165096 525.630638 
L 106.633223 524.149851 
L 107.745604 518.544888 
L 107.875382 517.620926 
L 108.709668 512.842022 
L 108.904335 512.03432 
L 109.17316 510.883956 
L 111.388653 497.893414 
L 111.509161 496.265771 
L 112.653987 491.492986 
L 113.015511 487.66252 
L 112.728146 487.179123 
L 112.17659 486.512157 
L 112.023638 485.912499 
L 112.120971 485.172105 
L 112.681797 483.617891 
L 113.469733 481.323282 
L 114.058368 478.300518 
L 114.304019 476.220074 
L 114.359638 474.653621 
L 114.313289 474.531242 
L 114.104718 474.408863 
L 114.132527 473.968298 
L 114.512591 471.643095 
L 114.957543 470.303044 
L 114.939004 469.905312 
L 115.235639 468.693758 
L 115.624972 464.900006 
L 115.564718 463.847546 
L 115.226369 462.06693 
L 114.762877 460.812544 
L 114.072273 459.405184 
L 113.159194 457.930516 
L 112.111701 456.761795 
L 109.228779 454.106169 
L 106.939128 451.126237 
L 105.845286 449.480238 
L 105.488397 449.021317 
L 104.936841 447.320247 
L 104.69119 446.708352 
L 104.070111 441.984518 
L 103.963507 440.736251 
L 103.768841 440.473136 
L 103.606618 440.424184 
L 103.143126 440.681181 
L 102.804777 440.748489 
L 101.757284 440.491493 
L 101.048141 440.613872 
L 100.144331 440.387471 
L 98.846553 439.598125 
L 97.465346 438.606855 
L 91.750487 435.480068 
L 90.054105 434.482679 
L 88.821216 433.601549 
L 86.856009 432.628635 
L 86.100516 432.218665 
L 84.830548 431.417082 
L 82.072769 429.783321 
L 80.381022 428.841002 
L 79.861911 428.431032 
L 78.74026 427.910921 
L 77.280259 427.15217 
L 77.178291 426.895174 
L 77.396132 426.234327 
L 81.595372 418.616227 
L 83.750611 414.767404 
L 85.062294 412.172967 
L 85.961469 410.557563 
L 87.171183 408.024316 
L 88.380898 405.815373 
L 89.44693 403.600311 
L 90.156073 402.566207 
L 90.721534 401.391368 
L 91.611439 399.867748 
L 93.595186 396.220851 
L 94.146742 395.192866 
L 94.892964 393.969075 
L 97.53487 389.300312 
L 98.994871 386.981228 
L 100.037728 384.91914 
L 100.51976 383.995178 
L 101.214998 382.679602 
L 102.206872 380.58692 
L 104.932206 375.771302 
L 105.469857 374.663771 
L 107.611191 371.359535 
L 108.547446 369.536086 
L 109.298303 368.183797 
L 110.772208 365.699501 
L 112.723511 361.813964 
L 114.25767 359.739638 
L 116.35729 355.652176 
L 117.339894 353.290259 
L 118.035132 351.993041 
L 118.44764 350.971175 
L 119.536847 349.520983 
L 119.907641 348.407333 
L 120.765101 345.794539 
L 122.164848 342.50866 
L 123.101102 341.309345 
L 124.10688 339.920342 
L 126.025738 336.108233 
L 127.583072 333.599461 
L 131.949169 325.981361 
L 132.774185 324.806522 
L 134.799646 321.893899 
L 135.633932 320.278495 
L 137.455457 317.665701 
L 138.150695 315.805539 
L 141.937427 308.364889 
L 142.97565 307.079908 
L 143.958253 305.231984 
L 144.690571 303.818505 
L 145.501682 302.398907 
L 149.617493 294.774689 
L 151.230446 291.788639 
L 151.91178 290.503658 
L 152.852669 288.710804 
L 154.405368 285.883847 
L 154.669559 285.10062 
L 156.287147 282.090094 
L 156.602321 281.300749 
L 157.756417 279.544609 
L 158.340417 278.743026 
L 161.237244 273.909051 
L 163.772546 269.552355 
L 164.73661 267.64936 
L 166.103912 265.085517 
L 168.977564 259.817097 
L 169.695977 257.80396 
L 170.502454 256.525099 
L 171.605565 254.273323 
L 172.407407 252.921034 
L 175.637948 247.517996 
L 177.464107 244.134214 
L 180.411918 238.88415 
L 181.121061 237.721549 
L 182.6923 234.711023 
L 184.119856 232.679529 
L 188.448874 225.012478 
L 189.209001 223.758092 
L 190.993446 220.086719 
L 192.893764 216.715175 
L 194.835797 213.40482 
L 195.869384 211.35497 
L 196.360686 210.382056 
L 196.870528 209.409142 
L 196.912242 208.870674 
L 197.732623 206.986036 
L 198.636433 205.560319 
L 201.111482 201.307645 
L 202.112625 199.410769 
L 203.373324 196.932592 
L 204.545959 194.943931 
L 206.335039 192.153688 
L 207.354722 190.189503 
L 208.643231 188.323222 
L 209.607294 186.591557 
L 210.330342 185.135246 
L 211.771803 182.161434 
L 212.712692 180.619457 
L 213.15301 180.007561 
L 213.602598 178.716462 
L 213.922407 177.939354 
L 214.497138 176.611541 
L 214.854027 175.240895 
L 215.725392 174.115007 
L 216.267678 173.019714 
L 216.680186 172.640339 
L 217.61644 170.975983 
L 219.808759 167.439227 
L 220.383489 166.350053 
L 221.046283 164.997764 
L 222.269903 162.415564 
L 223.901395 159.753819 
L 223.919935 159.466228 
L 224.480761 158.554504 
L 224.53638 158.242437 
L 224.985967 157.5204 
L 225.773904 156.516891 
L 226.445968 155.421598 
L 226.877015 154.858655 
L 228.540953 151.456515 
L 228.531683 151.181162 
L 227.910603 150.820144 
L 226.807492 150.31839 
L 223.32203 148.519417 
L 221.064823 147.381291 
L 216.986091 144.817449 
L 214.784503 143.924081 
L 214.112439 143.52023 
L 213.639677 143.183688 
L 211.952565 142.327034 
L 211.405644 142.17406 
L 210.140311 141.299049 
L 209.445072 140.846247 
L 208.69885 140.601488 
L 205.625896 138.735207 
L 203.225006 137.358442 
L 202.543673 136.972948 
L 201.862339 136.562978 
L 199.915672 135.828703 
L 199.382656 135.486042 
L 198.654973 134.941455 
L 195.461511 132.873248 
L 194.247162 132.028832 
L 193.171859 131.888096 
L 192.509066 131.208892 
L 180.119918 124.747275 
L 178.863854 123.902859 
L 177.89979 123.48677 
L 177.348234 123.54796 
L 176.912552 124.061952 
L 176.036551 125.548858 
L 175.406202 126.576843 
L 175.169821 126.693103 
L 174.877821 126.686984 
L 174.581186 126.478939 
L 174.479217 126.191348 
L 174.437503 125.707951 
L 174.659979 124.961438 
L 176.12925 122.287455 
L 176.944996 120.776073 
L 178.099092 118.322372 
L 181.023728 113.261996 
L 182.261252 110.643083 
L 182.724744 108.807396 
L 182.914776 105.576588 
L 182.882332 104.248774 
L 183.174332 102.2234 
L 183.508046 100.155193 
L 183.396808 98.851856 
L 183.00284 97.695373 
L 182.117569 96.043255 
L 181.162775 94.544111 
L 180.829061 93.350915 
L 181.005188 91.97415 
L 181.672617 90.481125 
L 183.007475 87.770427 
L 184.328427 85.769529 
L 185.36665 84.460073 
L 191.61916 77.258062 
L 191.962145 76.242315 
L 192.105827 74.755409 
L 191.846272 70.35588 
L 192.564685 66.152158 
L 193.208939 63.686219 
L 193.779034 62.701067 
L 194.715289 61.526228 
L 195.452241 60.785834 
L 196.763924 59.819039 
L 198.682782 58.680913 
L 199.160179 58.295419 
L 199.452179 57.873211 
L 199.581957 57.46936 
L 199.595862 56.318997 
L 199.42437 55.627555 
L 198.738401 54.783139 
L 198.23783 54.464953 
L 197.653829 54.342574 
L 196.318972 54.477191 
L 195.734972 54.642403 
L 194.65967 55.266536 
L 192.203161 57.212364 
L 191.609891 57.328624 
L 190.965636 57.224602 
L 189.783731 56.71061 
L 189.287794 56.361829 
L 188.870651 55.927384 
L 188.532302 55.388915 
L 188.383985 54.758663 
L 188.38862 54.13453 
L 188.810397 52.861787 
L 190.488239 50.79358 
L 191.253002 49.863499 
L 192.453447 48.700897 
L 193.005002 47.519939 
L 193.857828 45.433375 
L 195.104622 42.251518 
L 195.21586 41.088917 
L 195.067543 40.042575 
L 194.580876 39.118613 
L 193.227479 37.55216 
L 192.054843 36.579247 
L 190.738525 35.789901 
L 189.473191 35.098459 
L 188.685255 34.664014 
L 186.363158 33.954215 
L 185.088555 33.776765 
L 182.951856 33.507531 
L 181.292553 33.024133 
L 179.540553 32.436714 
L 178.82214 32.424476 
L 178.18252 32.589688 
L 177.57998 33.018014 
L 176.634456 34.015404 
L 176.310012 34.6273 
L 176.045821 35.373812 
L 175.851154 37.185023 
L 175.999472 38.115104 
L 176.249758 38.66581 
L 176.662266 39.259349 
L 177.135028 39.699914 
L 177.686584 40.158835 
L 178.5116 40.391356 
L 179.262457 40.54433 
L 179.985505 40.764612 
L 181.654077 41.529481 
L 182.581062 42.679845 
L 182.775728 43.35293 
L 182.854522 45.127427 
L 182.905506 46.608214 
L 184.036427 50.665082 
L 183.934459 51.735899 
L 183.415348 53.332946 
L 182.794268 54.422121 
L 182.057316 55.260417 
L 181.153506 56.013049 
L 179.772299 56.961487 
L 178.103727 57.732475 
L 176.931091 58.081256 
L 175.730646 58.368847 
L 175.142011 58.576891 
L 174.099154 59.427426 
L 173.250963 60.492124 
L 172.615979 61.764867 
L 171.814137 63.955453 
L 171.179153 64.830464 
L 170.14093 65.760545 
L 169.325184 66.170515 
L 164.986896 67.761443 
L 164.036737 68.348863 
L 162.896546 68.618097 
L 162.025181 68.685406 
L 161.209434 68.428409 
L 159.795783 67.535042 
L 156.681115 65.375051 
L 156.078575 65.234315 
L 155.142321 64.659133 
L 152.338193 62.805089 
L 150.558383 61.899484 
L 149.191081 61.330421 
L 147.021937 60.124987 
L 146.136667 59.702779 
L 144.333682 58.638081 
L 143.754317 58.356609 
L 142.850507 57.720237 
L 142.530697 57.787546 
L 142.039395 58.215873 
L 141.181935 59.586519 
L 139.397489 63.380271 
L 138.498314 63.943215 
L 138.4566 64.053356 
L 138.4566 64.053356 
L 136.690695 66.580485 
L 136.690695 66.574366 
L 136.862187 66.831362 
L 136.361615 68.526313 
L 136.259647 69.395204 
L 135.379012 71.420579 
L 134.59571 73.097172 
L 134.211011 74.021135 
L 133.270122 75.661015 
L 132.20409 77.704746 
L 130.512343 80.592893 
L 124.945801 91.013474 
L 124.422055 91.61925 
L 123.657293 93.075562 
L 122.702499 94.794988 
L 121.7338 96.489939 
L 121.135895 97.71373 
L 120.167196 99.298539 
L 117.757037 103.520619 
L 115.490559 106.726951 
L 113.330686 110.416681 
L 112.528844 112.013729 
L 110.021351 116.137905 
L 108.58916 118.646676 
L 108.065414 119.442141 
L 105.933349 123.376629 
L 105.363254 123.749885 
L 105.043444 123.78048 
L 104.130365 123.376629 
L 103.393412 122.84428 
L 102.707443 122.238503 
L 101.553348 121.632727 
L 101.029602 121.412444 
L 100.440966 121.094259 
L 99.648395 120.641456 
L 98.104965 119.766445 
L 96.830362 118.928148 
L 95.347187 117.92464 
L 95.884838 118.27342 
" clip-path="url(#p197429c90e)" style="fill: none; stroke: #000000; stroke-width: 3"/>
   </g>
  </g>
 </g>
 <defs>
  <clipPath id="p197429c90e">
   <rect x="7.2" y="7.2" width="231.880998" height="554.4"/>
  </clipPath>
 </defs>
</svg>
