<?xml version="1.0" encoding="utf-8" standalone="no"?>
<!DOCTYPE svg PUBLIC "-//W3C//DTD SVG 1.1//EN"
  "http://www.w3.org/Graphics/SVG/1.1/DTD/svg11.dtd">
<svg xmlns:xlink="http://www.w3.org/1999/xlink" width="392.51847pt" height="568.8pt" viewBox="0 0 392.51847 568.8" xmlns="http://www.w3.org/2000/svg" version="1.1">
 <metadata>
  <rdf:RDF xmlns:dc="http://purl.org/dc/elements/1.1/" xmlns:cc="http://creativecommons.org/ns#" xmlns:rdf="http://www.w3.org/1999/02/22-rdf-syntax-ns#">
   <cc:Work>
    <dc:type rdf:resource="http://purl.org/dc/dcmitype/StillImage"/>
    <dc:date>2022-07-20T05:09:43.041110</dc:date>
    <dc:format>image/svg+xml</dc:format>
    <dc:creator>
     <cc:Agent>
      <dc:title>Matplotlib v3.5.2, https://matplotlib.org/</dc:title>
     </cc:Agent>
    </dc:creator>
   </cc:Work>
  </rdf:RDF>
 </metadata>
 <defs>
  <style type="text/css">*{stroke-linejoin: round; stroke-linecap: butt}</style>
 </defs>
 <g id="figure_1">
  <g id="patch_1">
   <path d="M 0 568.8 
L 392.51847 568.8 
L 392.51847 0 
L 0 0 
z
" style="fill: #ffffff"/>
  </g>
  <g id="axes_1">
   <g id="LineCollection_1">
    <path d="M 226.277652 175.250502 
L 225.878583 175.220099 
L 225.08812 174.784332 
L 223.983006 174.368834 
L 222.877893 173.882396 
L 220.306968 172.747375 
L 219.815807 172.909521 
L 218.871856 174.186419 
L 217.950928 175.09849 
L 216.377676 177.449605 
L 215.479771 179.780452 
L 214.750703 182.253176 
L 214.413029 183.003101 
L 212.954893 184.817107 
L 212.264197 186.387895 
L 211.550478 187.816806 
L 211.151409 188.475523 
L 210.238155 190.725297 
L 208.780019 192.519036 
L 206.730954 195.559271 
L 206.354909 196.217988 
L 205.76398 199.025138 
L 205.418632 199.724392 
L 204.942819 200.251366 
L 204.720261 201.021559 
L 202.809336 204.132733 
L 202.226081 204.659707 
L 197.076559 212.229892 
L 192.656104 218.888006 
L 192.019129 220.813488 
L 191.612386 221.644486 
L 188.35844 226.691275 
L 187.153559 228.99172 
L 185.772167 231.97115 
L 184.966355 233.217646 
L 182.771477 237.838803 
L 181.934967 239.399457 
L 181.182876 241.041184 
L 179.433112 244.142223 
L 177.583582 248.114797 
L 177.138467 248.793783 
L 176.739398 249.695719 
L 174.92824 252.614345 
L 173.470103 255.725518 
L 173.124755 256.424772 
L 172.572199 256.992283 
L 170.354297 260.731772 
L 167.18477 266.244731 
L 166.294539 267.774982 
L 165.45803 269.366039 
L 164.521753 270.805083 
L 161.881759 275.456642 
L 158.297814 281.719526 
L 157.5227 283.087632 
L 156.601772 284.212519 
L 155.366193 286.583902 
L 154.621776 288.49925 
L 153.838987 290.140977 
L 153.017827 294.184489 
L 152.626432 294.995218 
L 152.181317 296.971371 
L 152.050852 298.07599 
L 152.311782 301.27837 
L 151.812946 301.96749 
L 151.168296 302.48433 
L 149.756207 302.77822 
L 149.249696 303.315328 
L 146.502261 307.87568 
L 146.295052 308.473593 
L 146.225982 310.135588 
L 146.37947 313.83454 
L 146.310401 316.07418 
L 146.318075 317.908455 
L 146.218308 319.236024 
L 146.06482 320.016351 
L 144.929009 321.019629 
L 143.240641 320.887885 
L 143.547617 320.816946 
L 144.468545 319.671791 
L 144.698777 319.296829 
L 145.189938 317.695639 
L 145.189938 316.327533 
L 144.944358 314.098027 
L 144.637382 312.354959 
L 144.061801 310.642294 
L 143.562965 310.33827 
L 143.670407 312.395496 
L 143.839244 314.756745 
L 144.092499 317.6247 
L 144.161569 318.982671 
L 143.37878 326.461649 
L 143.655058 328.650618 
L 144.376452 330.910526 
L 145.650402 333.616335 
L 147.991094 337.17341 
L 151.175971 349.993067 
L 151.966434 350.925406 
L 152.979455 352.374584 
L 153.248059 353.073838 
L 152.595735 353.692019 
L 150.492949 353.975775 
L 149.71016 354.198725 
L 149.13458 354.796638 
L 148.766209 355.536429 
L 148.643418 356.681584 
L 148.336442 357.806471 
L 148.121559 358.394249 
L 148.451558 359.083369 
L 148.94272 361.089924 
L 148.589698 359.954903 
L 148.136908 359.164442 
L 145.6811 354.806772 
L 143.340408 349.982933 
L 143.048781 348.726302 
L 142.281341 347.125112 
L 142.089481 345.817811 
L 142.120178 346.263712 
L 141.605993 345.108423 
L 141.605993 345.108423 
L 112.903736 434.906826 
L 113.924432 439.416508 
L 114.89908 443.399216 
L 115.113964 445.253759 
L 115.221405 449.064187 
L 115.152336 450.705914 
L 119.012559 455.347339 
L 118.22977 463.018865 
L 117.193726 466.778622 
L 117.178377 467.417071 
L 116.917448 468.714238 
L 116.656518 470.203953 
L 115.635823 472.332118 
L 114.530709 475.189938 
L 114.51536 475.970265 
L 114.331175 476.791129 
L 112.965131 477.419444 
L 112.995829 477.439712 
L 112.443272 476.953274 
L 111.990483 476.89247 
L 111.821646 477.024213 
L 111.307461 477.216762 
L 111.200019 477.591724 
L 111.629786 478.574733 
L 110.816299 479.334792 
L 110.056534 480.7333 
L 109.895371 481.310944 
L 109.780255 482.182478 
L 110.110255 482.729721 
L 110.578393 484.107961 
L 109.995139 485.273384 
L 109.649791 486.448941 
L 109.235373 487.026586 
L 108.552351 487.239402 
L 105.459568 487.310341 
L 103.157248 487.178598 
L 103.157248 487.178598 
L 102.527947 488.131205 
L 102.144227 489.418237 
L 101.353764 494.140736 
L 101.177253 496.542521 
L 101.039113 497.981566 
L 100.12586 500.231339 
L 99.373769 502.187224 
L 98.099818 503.77828 
L 97.547261 504.578875 
L 97.17889 505.389604 
L 97.040751 509.463519 
L 96.733775 509.949957 
L 96.196567 509.939823 
L 93.978665 509.493922 
L 93.387736 509.210166 
L 92.950295 509.463519 
L 92.344018 512.6659 
L 92.090763 513.496897 
L 91.146811 515.736537 
L 90.609603 517.398532 
L 90.356348 518.472748 
L 90.049372 519.192271 
L 89.834489 520.013134 
L 89.780768 520.884668 
L 89.581234 521.472447 
L 88.361004 521.60419 
L 88.276586 522.425054 
L 87.340309 522.81015 
L 87.179146 523.479002 
L 86.1738 525.151131 
L 85.183802 527.309698 
L 84.976594 527.917745 
L 84.401014 528.110293 
L 84.193805 528.37378 
L 83.94055 528.272439 
L 82.083345 527.400905 
L 81.807066 527.299564 
L 81.737997 527.522514 
L 81.776369 527.674526 
L 81.523113 528.2015 
L 81.615206 528.434585 
L 81.546137 528.769011 
L 81.676601 529.052766 
L 81.338928 529.518935 
L 82.321251 531.971391 
L 80.394977 530.501944 
L 79.190096 529.569606 
L 78.038936 529.255448 
L 76.96452 528.829815 
L 74.301503 527.380637 
L 71.239417 525.363947 
L 69.888723 524.462011 
L 69.489654 524.259329 
L 61.270371 516.010158 
L 59.773863 516.040561 
L 58.806889 515.868281 
L 58.730145 516.385121 
L 58.891307 517.053972 
L 58.561308 518.016713 
L 56.688754 521.077216 
L 56.274336 521.168423 
L 55.96736 521.523117 
L 55.00806 521.512983 
L 54.770154 521.847409 
L 54.11783 520.844132 
L 53.964342 519.810452 
L 54.263644 519.253075 
L 54.1869 518.878113 
L 53.41946 518.178859 
L 52.452485 517.611349 
L 49.236911 516.202706 
L 46.957614 514.763662 
L 45.652966 514.135347 
L 43.964598 513.243545 
L 41.953905 512.594961 
L 40.718327 511.855171 
L 38.500425 510.213444 
L 37.541125 509.939823 
L 36.382291 509.139227 
L 35.231131 508.87574 
L 34.901132 508.48051 
L 33.481368 508.085279 
L 33.527414 508.054877 
L 33.496716 507.933268 
L 33.703925 507.821792 
L 33.673228 507.821792 
L 34.847411 503.281708 
L 34.14904 503.555329 
L 34.010901 503.879621 
L 33.64253 507.264416 
L 33.18974 508.277828 
L 32.529742 508.885875 
L 32.007883 509.787811 
L 31.800674 510.274248 
L 31.094629 511.328197 
L 29.92812 513.598239 
L 29.859051 515.148758 
L 29.475331 516.283779 
L 29.268122 516.861424 
L 28.715565 517.71269 
L 24.387203 526.032799 
L 24.502319 526.245616 
L 25.461619 526.488834 
L 27.456963 527.755599 
L 28.692542 527.998818 
L 29.436959 528.02922 
L 31.892767 528.839949 
L 33.32788 529.944568 
L 37.310893 532.366622 
L 38.531123 532.984803 
L 39.145075 533.521911 
L 41.079024 534.707603 
L 41.639255 535.153504 
L 42.744369 535.731148 
L 43.626925 536.329061 
L 44.563202 536.4 
L 44.854829 536.298659 
L 46.888545 534.079287 
L 47.441102 533.613118 
L 48.67668 531.626831 
L 50.042723 528.819681 
L 51.922951 525.485557 
L 52.751787 524.026244 
L 54.140853 521.360972 
L 54.785503 520.195548 
L 55.882942 518.22953 
L 56.658056 517.611349 
L 58.185262 514.946076 
L 59.198283 512.959789 
L 59.29805 512.594961 
L 59.605026 512.402413 
L 61.991765 513.932664 
L 64.401526 515.310904 
L 67.402217 516.658742 
L 69.620119 517.743092 
L 70.640814 518.381541 
L 71.661509 519.567233 
L 72.735925 520.17528 
L 73.234761 520.124609 
L 73.687551 520.489438 
L 74.654525 520.236085 
L 75.613825 520.296889 
L 76.066615 520.499572 
L 76.396614 520.803595 
L 76.857078 520.955607 
L 77.355914 521.239362 
L 78.438005 522.252774 
L 79.105677 522.850687 
L 79.758001 523.15471 
L 81.699625 524.421475 
L 82.766366 524.836973 
L 85.966591 525.749044 
L 88.675655 527.066479 
L 89.274258 527.68466 
L 90.740068 528.606865 
L 93.863549 530.258726 
L 95.091453 531.231601 
L 96.334706 532.184208 
L 96.902612 532.792255 
L 98.023074 535.02176 
L 98.445166 535.346052 
L 98.959351 535.467661 
L 99.350745 535.781819 
L 99.980046 535.031894 
L 100.217953 535.14337 
L 100.831905 534.697468 
L 101.215625 534.667066 
L 101.637717 534.45425 
L 102.282366 533.572582 
L 102.573993 533.157083 
L 105.912358 525.515959 
L 107.086541 522.191969 
L 107.861655 521.20896 
L 108.199329 521.249496 
L 108.37584 521.026546 
L 109.381187 521.229228 
L 110.202347 519.628038 
L 112.067227 517.510007 
L 112.811643 517.104643 
L 114.208384 515.310904 
L 116.556751 511.23699 
L 118.252793 509.757409 
L 118.790001 509.311507 
L 119.557441 508.13595 
L 119.879766 507.031331 
L 120.416974 506.028054 
L 121.130693 505.045045 
L 122.059296 503.190501 
L 122.811387 502.308833 
L 123.064642 501.761591 
L 123.371618 500.575899 
L 123.540455 500.545497 
L 123.647897 500.038791 
L 123.578827 499.623292 
L 124.660918 497.201239 
L 124.975568 496.025681 
L 126.218821 493.238799 
L 126.970912 492.468606 
L 128.045328 489.995882 
L 128.183467 486.509746 
L 128.858815 485.699017 
L 128.966256 485.455798 
L 129.242535 485.354457 
L 129.419046 485.172043 
L 129.595557 484.786946 
L 129.948579 484.40185 
L 132.350667 480.90558 
L 132.826479 480.358338 
L 133.179502 479.750291 
L 133.501827 478.919293 
L 133.801128 478.605135 
L 134.883219 476.872202 
L 135.558566 472.788153 
L 136.364378 471.470718 
L 137.507864 470.599184 
L 138.160188 470.163417 
L 138.651349 469.697247 
L 139.449487 468.420349 
L 140.830879 466.048965 
L 141.897621 464.934213 
L 142.365759 464.549116 
L 142.956688 463.849862 
L 143.747151 462.309477 
L 145.581333 459.360449 
L 146.525284 457.556576 
L 147.300398 457.161346 
L 147.975746 456.522896 
L 150.086206 451.972678 
L 151.068529 448.85137 
L 151.843643 447.179241 
L 152.664804 445.669258 
L 153.117594 444.139006 
L 153.585732 443.226936 
L 154.376196 442.03111 
L 154.168987 441.037967 
L 152.181317 440.673139 
L 150.822948 439.609056 
L 151.429226 438.352426 
L 152.334805 437.095796 
L 153.478291 435.03857 
L 154.45294 433.356307 
L 155.005496 432.758394 
L 156.402237 431.836189 
L 157.407584 430.184328 
L 157.752932 428.025762 
L 158.397581 426.829936 
L 159.587113 424.914588 
L 160.71525 423.637689 
L 161.444318 422.411461 
L 161.789666 421.539927 
L 162.211758 420.556918 
L 164.245474 416.888368 
L 164.859426 415.71281 
L 165.151054 414.729801 
L 165.818726 413.736658 
L 166.931514 412.865124 
L 168.857789 411.750371 
L 169.279881 409.601938 
L 172.134758 404.149784 
L 173.201499 402.731008 
L 173.623591 402.011485 
L 176.232888 398.768568 
L 177.138467 397.937571 
L 179.755437 394.289289 
L 180.814505 393.975131 
L 181.167527 393.519096 
L 181.25962 393.052927 
L 181.313341 392.181393 
L 181.627991 391.542943 
L 181.927293 391.401066 
L 182.241943 390.793019 
L 182.947988 390.245776 
L 183.784497 389.201962 
L 185.964027 388.178417 
L 187.253326 386.952189 
L 188.020766 385.594217 
L 188.197278 384.388257 
L 190.637737 379.341467 
L 190.860295 378.703018 
L 191.574014 377.30451 
L 191.873315 375.713454 
L 191.927036 373.939984 
L 191.719827 372.94684 
L 191.474247 372.561744 
L 190.630063 372.004367 
L 190.653086 371.609137 
L 190.361459 371.315247 
L 189.617042 371.031492 
L 187.053792 368.923596 
L 186.539607 368.204074 
L 186.255654 367.575759 
L 186.063794 366.602883 
L 185.564958 365.214509 
L 185.304029 363.83627 
L 185.28868 362.589773 
L 185.680074 361.393948 
L 186.570305 359.954903 
L 187.729139 359.113772 
L 190.169599 357.208558 
L 191.159596 355.98233 
L 192.141919 354.026445 
L 194.167961 349.699178 
L 195.933073 346.810954 
L 198.28144 341.764165 
L 200.683527 337.791591 
L 202.095617 335.91678 
L 203.615148 334.406796 
L 204.820029 333.545396 
L 206.400955 332.825874 
L 207.575138 332.501582 
L 209.639552 332.096218 
L 211.13606 332.309034 
L 213.453729 332.937349 
L 214.720005 333.636603 
L 215.710003 334.123041 
L 215.963258 334.123041 
L 218.787437 335.146587 
L 221.788128 335.947182 
L 222.52487 335.96745 
L 223.261613 335.866109 
L 225.502538 335.014843 
L 226.807186 334.173712 
L 228.019741 333.140032 
L 229.539272 331.38683 
L 230.414154 329.88698 
L 231.388803 327.59667 
L 232.777869 323.806511 
L 233.21531 323.036318 
L 233.744843 322.3776 
L 235.540653 320.837215 
L 238.27274 318.627977 
L 239.776922 317.705773 
L 240.31413 317.513225 
L 241.027849 316.93558 
L 244.266446 313.844675 
L 245.402257 312.567776 
L 246.346209 311.088195 
L 247.059928 309.557943 
L 247.681554 307.926351 
L 248.848063 302.980902 
L 248.909458 301.329041 
L 248.817366 300.437239 
L 248.31853 298.734707 
L 247.067602 296.302519 
L 246.238767 294.640524 
L 245.977838 293.779125 
L 245.778303 291.924581 
L 246.06993 289.907892 
L 246.33086 288.924883 
L 247.16737 287.060205 
L 248.211088 285.357674 
L 252.071311 281.081077 
L 253.606191 279.95619 
L 255.248513 279.003583 
L 256.959904 278.284061 
L 258.41804 277.19971 
L 259.070364 276.520725 
L 260.052688 275.03101 
L 260.33664 274.179744 
L 260.505477 273.318344 
L 260.582221 271.565142 
L 260.612919 267.318947 
L 260.98129 265.697489 
L 262.209194 261.83639 
L 262.853844 260.518955 
L 263.260587 258.958301 
L 263.744074 256.505845 
L 266.015697 250.536851 
L 268.333366 245.804219 
L 269.192898 244.284101 
L 270.228942 242.875459 
L 272.093822 241.010782 
L 273.935678 239.247445 
L 275.577999 237.433439 
L 277.404507 234.798568 
L 278.50962 232.670404 
L 280.052175 229.265341 
L 281.172637 226.387252 
L 282.239379 224.279356 
L 283.804957 221.624217 
L 285.147977 219.708869 
L 286.77495 218.006338 
L 288.056574 216.992926 
L 290.466336 215.655223 
L 292.676563 214.672214 
L 295.040279 213.729741 
L 296.659577 213.395315 
L 297.480738 213.344644 
L 301.74003 213.861484 
L 303.436073 214.226313 
L 305.937927 214.459397 
L 307.603272 214.19591 
L 309.184198 213.689204 
L 310.680706 212.93928 
L 311.379077 212.442708 
L 312.514888 211.165809 
L 313.397444 209.625424 
L 314.479535 207.132431 
L 320.933705 195.093101 
L 322.192307 193.09668 
L 325.922065 185.982531 
L 330.020195 178.574492 
L 335.90646 167.98434 
L 337.12669 165.64336 
L 338.845756 161.528908 
L 339.244824 159.78584 
L 339.413661 157.941431 
L 339.459708 153.218933 
L 339.574824 151.171842 
L 339.927846 149.043677 
L 340.595519 146.033845 
L 340.77203 144.148899 
L 340.710635 143.135488 
L 340.488077 142.041003 
L 340.12738 140.946518 
L 339.651568 139.973643 
L 337.449015 136.467239 
L 337.111341 135.524766 
L 336.86576 133.568882 
L 337.065295 131.440717 
L 337.372271 130.346233 
L 338.27785 128.228203 
L 340.31924 124.113751 
L 343.273885 119.31018 
L 344.578533 117.759661 
L 346.52783 115.307204 
L 352.183863 109.236869 
L 353.404093 107.818093 
L 354.355719 106.23717 
L 354.647346 105.345368 
L 354.885252 103.531361 
L 354.885252 101.707221 
L 354.555253 98.140012 
L 354.631997 95.606483 
L 354.961996 93.042551 
L 356.527574 85.269684 
L 357.156875 83.668494 
L 357.993384 82.138242 
L 358.914312 80.790405 
L 360.019426 79.554043 
L 361.339423 78.43929 
L 362.805233 77.517085 
L 365.821273 75.723347 
L 367.041502 74.618728 
L 367.532664 74.020815 
L 367.878012 73.372232 
L 368.131267 72.146004 
L 367.893361 71.092056 
L 367.471269 70.494143 
L 366.642433 69.592206 
L 365.951737 69.095635 
L 364.969414 68.730807 
L 363.726161 68.609197 
L 362.682443 68.710538 
L 360.771517 69.298317 
L 358.169896 70.848837 
L 355.959668 72.743917 
L 355.03874 73.088476 
L 354.048743 73.291159 
L 353.020373 73.250622 
L 352.053398 72.855392 
L 351.155494 72.277747 
L 350.418751 71.467018 
L 349.835497 70.382667 
L 349.54387 69.460463 
L 349.482474 68.649734 
L 349.520846 67.403237 
L 349.85852 66.430362 
L 350.825494 64.900111 
L 352.66735 62.255106 
L 353.964324 60.83633 
L 355.598971 58.647361 
L 356.274319 57.978509 
L 357.509897 56.184771 
L 358.338732 54.472105 
L 359.896636 50.17524 
L 360.157565 48.401769 
L 360.226635 47.449163 
L 360.011752 46.202666 
L 359.489892 44.946036 
L 358.116175 42.726664 
L 355.882924 40.051258 
L 350.55689 36.777938 
L 349.328986 36.028014 
L 347.471781 35.227418 
L 344.816439 34.659908 
L 341.424354 34.072129 
L 338.914825 33.747837 
L 334.931811 32.57228 
L 333.857395 32.410134 
L 332.383911 32.491207 
L 331.908098 32.633085 
L 331.486006 32.876303 
L 330.841356 33.697167 
L 329.843684 35.8456 
L 328.907407 37.031291 
L 328.562059 38.125776 
L 328.209037 40.203269 
L 328.224386 41.966606 
L 328.469966 42.736799 
L 329.007174 43.253638 
L 329.38322 43.506991 
L 330.227404 44.378525 
L 330.872054 45.310864 
L 331.777633 45.847972 
L 333.197397 46.081057 
L 334.141348 46.547226 
L 335.461345 46.891786 
L 336.735295 47.469431 
L 337.095992 47.59104 
L 337.456689 47.905198 
L 338.699942 50.144837 
L 339.16808 52.425014 
L 339.145057 55.515919 
L 339.697614 57.613681 
L 340.472728 59.508761 
L 340.626216 60.177612 
L 340.687612 60.947805 
L 341.048308 62.376716 
L 340.979239 64.129918 
L 340.572496 65.852718 
L 339.613196 68.599063 
L 339.122034 69.470597 
L 337.103667 71.760907 
L 336.313203 72.450027 
L 333.849721 73.96001 
L 329.9588 75.926029 
L 328.922756 76.240187 
L 327.955782 76.331394 
L 325.899042 77.06105 
L 324.839975 77.719768 
L 324.249046 78.256876 
L 323.097886 79.8682 
L 322.66812 80.628259 
L 322.361144 81.520061 
L 321.793238 84.377882 
L 321.432541 85.188611 
L 320.926031 85.887865 
L 319.667429 87.022886 
L 318.263014 87.89442 
L 316.206275 88.988905 
L 310.304661 91.238679 
L 308.155829 92.880405 
L 305.707695 95.120045 
L 304.49514 96.640162 
L 303.428398 98.484572 
L 300.619568 104.129274 
L 298.977246 108.284262 
L 297.795388 110.686047 
L 296.521438 113.817489 
L 295.746323 115.145059 
L 294.794698 116.371287 
L 293.758654 117.486039 
L 292.584471 118.479183 
L 290.489359 119.928361 
L 287.434948 121.833575 
L 286.398904 122.826719 
L 285.631464 124.042813 
L 284.733559 125.978429 
L 284.2117 128.045789 
L 284.050537 129.373358 
L 284.204025 132.231178 
L 284.395885 134.693769 
L 284.372862 135.48423 
L 283.996817 136.973945 
L 283.382865 138.362319 
L 282.60775 139.679754 
L 281.564032 140.713434 
L 280.466592 141.554565 
L 278.709155 142.497038 
L 273.429167 144.696141 
L 272.193589 145.142043 
L 271.126847 145.739955 
L 267.995692 147.847852 
L 267.143834 148.820727 
L 265.570581 150.584063 
L 263.529191 153.269604 
L 262.040357 155.488975 
L 260.996639 157.161104 
L 260.037339 159.116989 
L 259.408038 160.971532 
L 258.970597 162.7146 
L 258.717342 164.670484 
L 258.840132 167.345891 
L 259.292922 169.869286 
L 262.094078 179.243343 
L 262.078729 180.895204 
L 261.710358 184.320536 
L 261.203848 185.678507 
L 259.722688 188.353914 
L 258.778737 189.681483 
L 256.008279 193.410838 
L 249.569457 198.751517 
L 246.223418 201.46746 
L 245.164351 202.592347 
L 244.865049 202.582213 
L 244.688538 202.430201 
L 244.872724 201.852557 
L 245.816675 199.319028 
L 246.192721 197.180729 
L 246.192721 195.761953 
L 246.26179 193.988482 
L 246.108302 193.603386 
L 245.985512 192.215012 
L 245.939466 190.319932 
L 245.56342 189.002497 
L 244.734585 187.208759 
L 243.64482 185.830519 
L 241.879708 183.935439 
L 241.856685 183.418599 
L 242.217381 182.516663 
L 243.130635 180.915473 
L 244.41226 178.503553 
L 243.982493 177.16585 
L 243.736913 176.537534 
L 243.391565 176.01056 
L 242.892729 175.564659 
L 240.705524 174.226956 
L 238.879017 173.598641 
L 236.461581 172.11906 
L 235.333444 171.419806 
L 234.282051 170.811759 
L 233.207635 170.011164 
L 229.738806 168.521449 
L 228.22695 167.426964 
L 225.003701 165.531884 
L 223.046729 163.900292 
L 221.780453 163.271976 
L 218.75674 161.397165 
L 216.999302 160.312814 
L 214.520471 158.954843 
L 213.499775 158.164382 
L 209.808389 156.036217 
L 206.753978 154.070199 
L 205.932817 153.978992 
L 202.717243 152.7933 
L 201.527711 152.722361 
L 200.952131 152.864239 
L 200.376551 153.360811 
L 200.069575 153.847248 
L 199.754924 155.25589 
L 199.647483 156.380777 
L 199.655157 156.968556 
L 201.09027 156.005815 
L 201.573757 154.617441 
L 201.765617 154.353954 
L 201.704222 153.796578 
L 201.289805 152.874373 
L 201.381897 152.083912 
L 202.632825 151.24278 
L 203.239102 151.263049 
L 205.856073 153.583761 
L 208.18909 154.708648 
L 209.992574 155.89434 
L 210.399318 156.279436 
L 211.358618 156.988824 
L 213.538147 158.883904 
L 214.597215 159.431146 
L 215.579538 159.947986 
L 217.060697 160.42429 
L 217.858835 161.022203 
L 218.503484 162.390308 
L 218.871856 163.028758 
L 219.33232 163.555732 
L 220.329992 164.26512 
L 221.020688 164.711021 
L 221.588593 165.197458 
L 221.795802 166.058858 
L 221.719058 166.565564 
L 220.721386 168.389705 
L 219.26325 171.176587 
L 219.163483 171.693427 
L 219.232552 172.200133 
L 219.478133 172.615631 
L 220.575573 173.416227 
L 221.63464 174.216822 
L 222.133476 174.470175 
L 223.829518 174.835003 
L 225.026725 175.331575 
L 225.694398 175.686269 
L 225.85556 176.01056 
L 225.85556 176.01056 
" clip-path="url(#p370fb4c8a7)" style="fill: none; stroke: #000000; stroke-width: 3"/>
   </g>
  </g>
 </g>
 <defs>
  <clipPath id="p370fb4c8a7">
   <rect x="7.2" y="7.2" width="378.11847" height="554.4"/>
  </clipPath>
 </defs>
</svg>
