<?xml version="1.0" encoding="utf-8" standalone="no"?>
<!DOCTYPE svg PUBLIC "-//W3C//DTD SVG 1.1//EN"
  "http://www.w3.org/Graphics/SVG/1.1/DTD/svg11.dtd">
<svg xmlns:xlink="http://www.w3.org/1999/xlink" width="288.936328pt" height="568.8pt" viewBox="0 0 288.936328 568.8" xmlns="http://www.w3.org/2000/svg" version="1.1">
 <metadata>
  <rdf:RDF xmlns:dc="http://purl.org/dc/elements/1.1/" xmlns:cc="http://creativecommons.org/ns#" xmlns:rdf="http://www.w3.org/1999/02/22-rdf-syntax-ns#">
   <cc:Work>
    <dc:type rdf:resource="http://purl.org/dc/dcmitype/StillImage"/>
    <dc:date>2022-07-21T05:12:45.810250</dc:date>
    <dc:format>image/svg+xml</dc:format>
    <dc:creator>
     <cc:Agent>
      <dc:title>Matplotlib v3.5.2, https://matplotlib.org/</dc:title>
     </cc:Agent>
    </dc:creator>
   </cc:Work>
  </rdf:RDF>
 </metadata>
 <defs>
  <style type="text/css">*{stroke-linejoin: round; stroke-linecap: butt}</style>
 </defs>
 <g id="figure_1">
  <g id="patch_1">
   <path d="M 0 568.8 
L 288.936328 568.8 
L 288.936328 0 
L 0 0 
z
" style="fill: #ffffff"/>
  </g>
  <g id="axes_1">
   <g id="LineCollection_1">
    <path d="M 154.785669 157.041989 
L 156.546874 158.213436 
L 158.643233 159.159271 
L 159.714414 159.289432 
L 160.200717 159.141917 
L 160.562158 158.855563 
L 161.810773 156.816377 
L 162.717662 157.17215 
L 164.051709 156.642829 
L 164.597157 156.703571 
L 167.041814 157.744857 
L 169.880771 158.421693 
L 172.364858 159.2634 
L 175.650688 160.946813 
L 177.405321 162.248421 
L 181.795189 165.728053 
L 182.340637 165.866892 
L 182.94523 166.743308 
L 183.569538 166.873469 
L 184.897013 167.524273 
L 185.52132 167.506918 
L 186.934227 167.906078 
L 189.582606 169.008106 
L 190.903509 169.45933 
L 191.567247 170.066747 
L 192.947295 170.682841 
L 198.500348 173.31209 
L 199.69639 174.231893 
L 200.202407 174.769891 
L 201.00415 176.245047 
L 201.529883 177.668138 
L 201.970184 179.950291 
L 202.482773 182.596894 
L 203.067651 184.349726 
L 203.875965 185.99843 
L 204.861714 187.282683 
L 208.462983 190.996605 
L 209.323871 191.14412 
L 210.335906 192.358955 
L 212.681989 195.474137 
L 215.987533 199.561186 
L 216.05325 200.099184 
L 215.560375 202.086306 
L 213.733454 206.503096 
L 213.35887 207.1539 
L 212.892282 207.700575 
L 211.45966 210.269082 
L 210.427909 212.3343 
L 208.76528 214.868097 
L 208.127829 216.421349 
L 206.307479 219.033243 
L 205.157439 222.018264 
L 203.231942 225.428477 
L 201.247301 229.524204 
L 200.833287 230.140298 
L 198.237481 234.990958 
L 197.777465 235.294666 
L 196.555136 237.012789 
L 195.766537 239.381716 
L 194.820218 242.384091 
L 193.663606 244.327826 
L 192.875007 245.421177 
L 191.054658 248.380166 
L 190.502638 248.987583 
L 189.569463 249.612355 
L 189.12259 250.271836 
L 188.662574 251.694928 
L 188.386564 252.189539 
L 187.584821 254.341531 
L 186.901369 255.460914 
L 186.250775 256.762522 
L 185.856475 257.46539 
L 185.212452 259.122771 
L 184.851011 259.799607 
L 184.436997 260.233477 
L 183.700971 261.595827 
L 182.636362 264.00814 
L 181.24317 265.865101 
L 180.494001 267.001839 
L 177.556469 272.84172 
L 177.00445 274.889584 
L 176.76787 276.312675 
L 176.49186 276.920092 
L 175.690118 277.675025 
L 174.756942 279.297696 
L 173.928913 280.286918 
L 173.232317 280.443111 
L 172.588295 280.71211 
L 171.924557 281.857526 
L 170.682513 284.478096 
L 170.235641 285.016094 
L 169.177603 285.814414 
L 168.112995 287.714762 
L 164.340862 295.290121 
L 163.453688 296.513632 
L 162.106498 298.951978 
L 161.40333 300.262264 
L 161.166751 300.765552 
L 160.48987 301.477098 
L 159.070391 303.889412 
L 158.544659 304.540216 
L 158.110929 305.217052 
L 157.348617 306.28437 
L 156.546874 308.184718 
L 155.6597 310.978837 
L 154.621378 312.749024 
L 152.860173 316.445591 
L 150.625809 320.628091 
L 149.186616 323.751951 
L 147.891999 325.74775 
L 145.375053 330.190572 
L 144.612741 331.509535 
L 143.679565 333.540043 
L 142.746389 334.876361 
L 141.938075 336.021776 
L 140.899753 337.748576 
L 140.37402 339.067539 
L 138.704819 342.260817 
L 137.206481 347.501959 
L 134.978688 350.877463 
L 134.518672 351.398106 
L 133.427776 353.150938 
L 132.527459 355.146737 
L 131.725717 356.326862 
L 131.337989 356.821473 
L 130.306238 357.645825 
L 129.905367 358.166468 
L 129.116768 359.9193 
L 128.144162 361.984518 
L 127.782721 362.270872 
L 127.171557 362.591936 
L 126.731255 362.965063 
L 126.369814 363.459674 
L 125.75865 364.57038 
L 125.088341 365.663731 
L 124.621753 366.765759 
L 124.227453 367.902496 
L 123.405996 369.507813 
L 122.899978 370.505713 
L 122.045662 371.64245 
L 121.454213 372.284577 
L 120.705044 373.655604 
L 120.107023 376.25882 
L 119.42357 377.412913 
L 117.307496 378.124459 
L 116.998628 378.540973 
L 115.828873 381.126834 
L 115.112562 382.489184 
L 114.613116 382.506539 
L 113.3645 385.075046 
L 112.621903 387.591488 
L 111.590152 389.483158 
L 111.347001 390.220736 
L 111.215568 391.088475 
L 110.55183 392.511566 
L 109.000918 394.897848 
L 107.811448 397.596515 
L 106.602263 399.635701 
L 106.293395 400.130312 
L 105.813664 400.642278 
L 105.209071 401.935209 
L 104.354755 404.000427 
L 103.26386 406.143742 
L 98.525693 414.15297 
L 96.725059 416.599993 
L 96.159896 417.719376 
L 95.469872 418.804049 
L 94.497266 419.854013 
L 92.578342 423.255549 
L 92.065752 424.886898 
L 90.935427 427.090954 
L 90.357121 428.071499 
L 89.791958 429.555332 
L 89.049361 432.505644 
L 88.234475 433.364705 
L 87.905892 434.163025 
L 87.7416 434.622926 
L 87.452447 434.935312 
L 86.966144 435.941889 
L 86.762423 436.540629 
L 86.420697 437.122014 
L 85.080078 438.657911 
L 83.318874 442.059447 
L 82.937717 442.475962 
L 82.365983 443.54328 
L 82.175405 444.836211 
L 81.268516 446.26798 
L 80.657351 447.248524 
L 80.499632 447.717103 
L 80.309054 448.931938 
L 79.520454 450.198836 
L 78.692425 452.706601 
L 78.186408 454.129693 
L 77.969543 454.606949 
L 77.621245 454.988754 
L 75.991473 455.899879 
L 74.926864 458.372935 
L 74.598282 458.997707 
L 74.111979 459.032416 
L 73.881971 459.214641 
L 73.881971 459.214641 
L 72.942223 460.993506 
L 72.304772 464.013236 
L 70.701288 466.191261 
L 70.214985 466.928839 
L 69.636679 468.447381 
L 68.591785 470.981178 
L 67.941191 471.527854 
L 67.040873 471.892304 
L 66.383707 472.430302 
L 65.936834 473.089783 
L 64.070483 477.411122 
L 63.597324 478.113991 
L 63.032161 479.615179 
L 62.637861 480.751916 
L 62.210704 481.914686 
L 62.046412 482.339878 
L 61.698114 482.669619 
L 61.251241 482.938618 
L 60.73208 484.344355 
L 59.838335 486.140574 
L 58.885444 487.797955 
L 58.287423 488.14505 
L 57.275387 489.316497 
L 56.125347 491.390393 
L 55.717904 492.36226 
L 54.088133 495.165056 
L 51.926057 499.321525 
L 51.636904 499.998361 
L 50.440862 502.072256 
L 49.921701 503.365187 
L 48.318216 506.133274 
L 47.983061 506.81011 
L 46.997312 508.267911 
L 46.386148 509.222423 
L 45.558119 510.437258 
L 44.559226 512.311573 
L 44.204357 513.430956 
L 43.849487 513.968954 
L 43.047745 514.819338 
L 40.070783 520.520382 
L 39.768487 523.297145 
L 39.295327 524.503302 
L 38.901028 524.980559 
L 38.289863 525.353686 
L 37.856134 525.778878 
L 37.645841 526.421005 
L 36.844098 527.314776 
L 36.4958 527.722613 
L 35.891208 528.651093 
L 35.286615 529.4928 
L 33.735703 532.365015 
L 31.501339 535.879357 
L 29.496983 535.263262 
L 27.459769 534.204621 
L 23.786211 532.529885 
L 23.286765 532.330305 
L 22.918752 531.98321 
L 22.445593 531.080762 
L 22.169583 530.239055 
L 21.545275 529.475445 
L 19.678924 527.479646 
L 20.53324 527.861451 
L 25.310836 530.85515 
L 26.35573 531.323729 
L 27.801495 532.078661 
L 28.208938 532.798884 
L 28.609809 532.963755 
L 29.043539 533.015819 
L 29.950428 533.883558 
L 30.423587 534.456265 
L 32.25708 535.480197 
L 32.585663 534.230653 
L 32.789384 533.892235 
L 33.669987 534.291395 
L 37.080678 536.096291 
L 37.468406 536.191743 
L 37.803561 536.148356 
L 38.132144 535.723164 
L 39.58448 536.4 
L 40.340221 536.321904 
L 40.622802 536.278517 
L 40.898812 536.113646 
L 41.431117 535.27194 
L 41.871418 535.662422 
L 42.318291 535.098392 
L 45.748697 529.779154 
L 46.057565 529.423381 
L 47.201034 528.520932 
L 48.048778 527.523033 
L 48.883378 525.64004 
L 51.834053 520.815413 
L 52.156065 519.609256 
L 51.209746 517.665521 
L 49.855984 516.363913 
L 48.784803 515.921366 
L 48.265642 515.895334 
L 47.753053 515.60898 
L 46.833021 514.611081 
L 46.110138 514.758596 
L 45.472687 514.411501 
L 45.098103 513.847471 
L 44.736661 513.621859 
L 44.079495 513.448311 
L 43.685196 513.101216 
L 43.041173 512.198767 
L 42.449724 511.764898 
L 42.081711 512.433057 
L 41.667696 513.300795 
L 39.722485 512.398347 
L 35.30633 510.402548 
L 33.965712 509.638938 
L 33.68313 509.66497 
L 32.25708 508.788554 
L 31.540769 508.016267 
L 30.693025 507.521656 
L 28.767529 506.784078 
L 27.90007 506.21137 
L 27.032611 505.68205 
L 25.389696 504.814311 
L 22.425878 502.271836 
L 21.60442 501.742516 
L 21.4467 501.43013 
L 21.341554 500.276037 
L 21.709567 499.312847 
L 22.419306 498.358335 
L 22.91218 497.837692 
L 23.845356 495.807183 
L 24.331659 494.548962 
L 24.679957 492.084584 
L 25.369981 489.654915 
L 26.23744 488.223147 
L 26.756601 487.841342 
L 27.50577 486.999635 
L 27.689777 486.461637 
L 27.709492 485.715382 
L 27.183759 483.953872 
L 27.637204 483.36381 
L 27.834353 482.383265 
L 28.143221 479.892855 
L 28.392944 478.825536 
L 28.885819 477.862346 
L 29.510126 476.855769 
L 29.75985 476.22232 
L 28.629524 473.541008 
L 28.353514 472.681946 
L 28.708384 472.161303 
L 29.32612 470.052698 
L 32.57252 464.655363 
L 33.847422 463.53598 
L 34.530874 463.310368 
L 35.096037 462.867821 
L 35.457478 462.694274 
L 37.080678 462.182308 
L 38.329293 460.993506 
L 41.687411 455.682945 
L 43.343469 453.565662 
L 44.868094 451.882249 
L 46.123281 450.129417 
L 47.437613 448.220392 
L 48.627084 446.962171 
L 50.138565 444.749437 
L 50.887734 443.77757 
L 51.774908 442.068124 
L 53.634688 439.543005 
L 56.743083 434.284508 
L 56.973091 433.659736 
L 57.091381 432.939513 
L 57.354247 432.496966 
L 58.445143 431.325519 
L 58.596291 430.978424 
L 59.062879 430.527199 
L 60.035484 429.902428 
L 60.784653 428.271079 
L 61.553538 426.648407 
L 62.335565 426.006281 
L 62.992731 425.47696 
L 63.525035 424.479061 
L 63.912763 421.554781 
L 64.129628 420.46143 
L 64.517356 420.218464 
L 64.517356 420.305237 
L 64.872226 420.209786 
L 65.174522 419.966819 
L 65.969693 418.751985 
L 66.666289 417.728053 
L 68.243487 416.200833 
L 68.867795 415.411191 
L 69.91926 413.146393 
L 70.260986 412.530299 
L 70.832721 410.291533 
L 71.680465 408.57341 
L 72.377061 407.332544 
L 72.955367 406.195806 
L 73.855684 404.625199 
L 75.038583 401.857112 
L 75.616889 400.70302 
L 76.188623 399.514218 
L 76.872076 398.316738 
L 77.003509 397.622547 
L 77.949828 395.939134 
L 79.047295 394.307786 
L 80.21705 392.381406 
L 80.604778 391.756634 
L 80.953076 390.680638 
L 81.905967 388.658807 
L 83.713173 385.205206 
L 83.989183 384.467629 
L 82.944289 385.361399 
L 83.180869 384.745305 
L 83.77889 384.172597 
L 84.429484 383.252794 
L 84.764639 382.697442 
L 85.12608 380.987996 
L 85.671528 379.755807 
L 85.967252 379.078971 
L 86.092114 378.089749 
L 86.414125 377.213333 
L 87.728457 374.679536 
L 88.076755 373.525443 
L 89.91682 368.891719 
L 90.363692 367.199628 
L 90.725134 365.33399 
L 91.14572 363.919576 
L 92.65063 362.652677 
L 93.373512 361.715519 
L 94.188398 358.617692 
L 94.970426 357.802018 
L 95.437013 357.081795 
L 97.835669 356.561151 
L 99.103999 355.814896 
L 100.05689 354.981867 
L 101.87724 351.389429 
L 102.284683 349.844854 
L 102.613265 348.925051 
L 103.158713 348.308956 
L 105.76109 343.137234 
L 106.135675 342.61659 
L 106.661408 341.419111 
L 107.883736 339.423312 
L 108.764339 339.631569 
L 108.908915 339.475376 
L 108.948345 339.544795 
L 109.736944 339.388602 
L 110.131244 338.946056 
L 110.131244 338.946056 
L 110.617547 338.121704 
L 110.840983 338.008898 
L 111.320714 337.314707 
L 112.405038 335.657326 
L 114.179386 333.305754 
L 114.593401 332.637595 
L 115.119133 331.257891 
L 115.382 330.502958 
L 115.730298 329.912896 
L 116.091739 329.557123 
L 117.300924 328.819545 
L 117.938375 328.160063 
L 118.694116 327.795613 
L 119.075272 327.283647 
L 119.469572 325.999394 
L 119.50243 325.305203 
L 119.134417 323.543693 
L 118.615256 322.580503 
L 117.550647 321.426411 
L 116.354605 320.966509 
L 115.710583 320.888413 
L 114.889125 320.489253 
L 114.396251 320.324383 
L 113.99538 320.038029 
L 113.693083 319.595482 
L 112.825624 316.15056 
L 113.088491 314.658049 
L 113.725942 313.451892 
L 114.659117 312.42796 
L 116.80805 310.857353 
L 117.701795 309.659874 
L 118.418106 308.488427 
L 119.009556 307.308302 
L 119.923016 304.809215 
L 120.961339 302.292772 
L 122.23624 299.620137 
L 123.524286 297.277243 
L 124.950336 294.717413 
L 125.686362 293.684804 
L 128.104732 291.168362 
L 129.037908 290.291946 
L 130.063087 289.606432 
L 131.180269 288.999015 
L 133.145195 288.565146 
L 134.426669 288.434985 
L 135.090406 288.530436 
L 138.75082 290.274591 
L 139.506561 290.769202 
L 140.314875 291.437361 
L 140.880038 291.827843 
L 142.700388 292.582776 
L 144.704744 292.817066 
L 145.368481 292.721614 
L 146.59081 291.992714 
L 147.576559 291.020846 
L 148.595166 290.309301 
L 150.159221 289.21595 
L 150.546949 288.703984 
L 152.111004 285.545415 
L 152.472445 284.330581 
L 152.84703 282.950876 
L 153.845922 280.71211 
L 154.279652 280.043952 
L 155.298259 279.037375 
L 157.486621 277.189091 
L 159.379259 276.173837 
L 161.823917 274.663972 
L 163.874274 272.564044 
L 164.754877 271.340532 
L 165.668337 269.42283 
L 166.686945 266.186164 
L 167.054957 264.667622 
L 167.258679 262.446211 
L 167.206106 261.708633 
L 166.995813 260.971055 
L 164.991456 256.632361 
L 164.472295 255.122496 
L 164.432865 254.220048 
L 164.676017 252.406474 
L 164.899453 251.573444 
L 165.773484 250.063579 
L 169.63762 245.429854 
L 171.497399 244.006763 
L 174.881804 242.193189 
L 175.933269 241.334128 
L 176.340712 240.813484 
L 176.92559 239.503199 
L 177.280459 238.123494 
L 177.313318 236.735112 
L 177.300174 234.192638 
L 177.714189 232.448483 
L 179.317674 226.669343 
L 180.027413 223.215743 
L 180.875157 221.037719 
L 181.407462 219.9704 
L 182.320922 217.523377 
L 183.089806 216.108963 
L 183.654969 214.98958 
L 185.199309 212.89833 
L 187.216808 210.911208 
L 188.68886 209.357956 
L 190.042622 207.769994 
L 191.278094 206.199387 
L 191.994405 204.906456 
L 194.123622 200.246699 
L 196.41056 195.265879 
L 198.421488 192.289535 
L 199.663531 190.927186 
L 201.063295 189.686319 
L 202.239622 188.957419 
L 203.573669 188.376034 
L 207.161795 187.117813 
L 208.60756 187.091781 
L 210.11247 187.378134 
L 212.346834 187.942165 
L 216.191255 188.419421 
L 217.492443 188.306615 
L 218.872492 187.72523 
L 220.075105 186.883523 
L 221.461726 185.252175 
L 222.618338 183.525374 
L 223.722376 181.58164 
L 224.616122 179.577163 
L 225.273288 178.180104 
L 225.996171 176.861141 
L 226.778198 175.63763 
L 229.16371 171.02126 
L 230.655477 168.522172 
L 234.591901 161.250522 
L 235.676225 159.376206 
L 237.036558 156.799022 
L 238.50861 154.325967 
L 241.334424 149.30176 
L 244.416532 142.620171 
L 244.797688 141.266499 
L 244.869976 139.886795 
L 244.718828 133.873365 
L 245.027696 132.224662 
L 245.573144 129.87309 
L 245.711149 128.484708 
L 245.500856 126.818649 
L 245.060554 125.117882 
L 244.718828 124.388981 
L 243.792224 123.035309 
L 242.714472 121.698991 
L 242.241313 120.831252 
L 242.123023 120.2759 
L 242.090164 119.51229 
L 242.175596 118.67926 
L 242.891907 116.258269 
L 243.555644 114.609566 
L 245.191988 111.260094 
L 247.097769 108.11888 
L 248.175521 106.643724 
L 250.396742 103.953734 
L 254.122873 99.858008 
L 256.081227 97.662629 
L 256.942115 96.482504 
L 257.553279 95.154864 
L 257.855575 93.714418 
L 257.95415 92.282649 
L 257.87529 90.798815 
L 257.671569 88.629469 
L 257.67814 87.180345 
L 258.762464 80.594208 
L 259.3802 77.704638 
L 259.886218 76.342288 
L 260.917969 74.47665 
L 261.772284 73.34859 
L 263.316624 71.951531 
L 265.143545 70.728019 
L 268.17308 68.784284 
L 268.64624 68.298351 
L 269.020825 67.716966 
L 269.257404 67.074839 
L 269.250833 66.354616 
L 269.027396 65.599683 
L 268.679098 64.818718 
L 268.219082 64.176592 
L 267.601346 63.699335 
L 266.076721 63.11795 
L 265.24212 63.109273 
L 263.382341 63.525788 
L 261.259695 64.67988 
L 259.991365 65.799263 
L 259.386772 66.389325 
L 258.683604 66.84055 
L 257.87529 67.109549 
L 257.020974 67.092194 
L 255.397775 66.788485 
L 254.642034 66.380648 
L 253.491993 65.295975 
L 253.229127 64.541042 
L 253.104265 63.612562 
L 253.16341 62.909693 
L 253.373704 61.894439 
L 254.136016 60.445315 
L 255.240055 58.839999 
L 259.242195 54.267016 
L 260.543384 51.915444 
L 261.469988 49.711387 
L 262.258587 47.385848 
L 262.66603 45.476822 
L 262.692317 44.765277 
L 262.449165 43.368217 
L 262.206014 42.821542 
L 260.950827 41.242257 
L 259.445917 39.801811 
L 258.447025 38.94275 
L 257.553279 38.404752 
L 253.590568 35.801536 
L 252.460243 35.25486 
L 251.362776 34.933797 
L 248.740684 34.378444 
L 247.064911 34.048704 
L 241.176704 32.842547 
L 239.763797 32.4 
L 238.837193 32.512806 
L 238.39032 32.686354 
L 237.976306 32.990062 
L 237.338855 33.831769 
L 236.169099 35.567246 
L 235.531648 36.408953 
L 235.242495 37.294046 
L 234.992772 39.350587 
L 235.163635 40.174939 
L 235.452788 41.06871 
L 236.201958 42.335608 
L 236.681689 42.578575 
L 237.24028 42.708736 
L 237.601721 43.047154 
L 239.356354 43.854151 
L 239.770369 44.209924 
L 242.050734 45.025598 
L 242.438462 45.259888 
L 243.522786 46.405303 
L 244.068234 47.203622 
L 244.633397 48.696133 
L 244.738543 49.633291 
L 244.666255 51.984863 
L 244.817403 52.922021 
L 245.159129 53.980662 
L 245.862297 55.68143 
L 246.23031 57.798712 
L 246.164593 59.2999 
L 246.026588 60.106897 
L 245.211703 62.441114 
L 244.363959 63.820819 
L 243.358495 65.000943 
L 240.710116 67.00542 
L 239.205206 67.829772 
L 237.595149 68.463221 
L 234.276461 69.634668 
L 233.481291 70.068538 
L 232.76498 70.62389 
L 231.628083 72.02095 
L 230.885485 73.522138 
L 230.386039 74.936552 
L 229.899736 76.359643 
L 229.222855 77.661251 
L 228.223963 78.76328 
L 227.027921 79.604986 
L 225.720161 80.212403 
L 220.482548 82.329686 
L 218.267899 83.596584 
L 216.716987 84.768031 
L 215.369797 86.104349 
L 214.318332 87.674956 
L 212.944855 90.121979 
L 211.18365 93.809869 
L 209.935035 96.8296 
L 208.758708 100.040233 
L 206.74778 103.346317 
L 205.55831 104.691312 
L 204.552846 105.489632 
L 200.011829 108.665556 
L 199.150942 109.498585 
L 198.382058 110.644 
L 197.948328 111.676609 
L 197.652604 112.874088 
L 197.534314 115.208305 
L 197.488312 116.362398 
L 197.632889 118.071843 
L 197.79718 119.199904 
L 197.5606 121.560153 
L 197.002009 122.801019 
L 196.384273 123.850983 
L 195.332808 125.117882 
L 194.386489 125.78604 
L 193.295593 126.289329 
L 191.094088 127.131035 
L 188.971442 128.007452 
L 186.401923 129.187576 
L 183.714114 131.027182 
L 182.412925 132.189952 
L 180.073415 134.775814 
L 178.31221 137.352997 
L 177.431608 138.802121 
L 176.320997 141.066919 
L 175.584971 143.479233 
L 175.308962 145.145291 
L 175.400965 147.488186 
L 175.525826 149.050115 
L 175.939841 151.124011 
L 178.226778 158.49979 
L 178.338497 159.62785 
L 178.259637 160.894749 
L 177.221315 164.166124 
L 176.899303 164.721477 
L 175.900411 165.918956 
L 172.976023 170.405165 
L 171.530258 171.932385 
L 169.506186 173.737282 
L 165.931204 176.305788 
L 164.84688 177.451203 
L 164.005708 178.787521 
L 163.361685 180.323419 
L 162.927955 181.928735 
L 162.803094 182.770442 
L 162.862239 185.382335 
L 163.019959 188.940064 
L 162.724234 190.831734 
L 162.533656 191.664764 
L 161.52162 193.842788 
L 160.60816 195.248524 
L 159.504121 196.5241 
L 158.229219 197.695548 
L 156.803169 198.832285 
L 156.001426 199.274832 
L 153.103325 201.565662 
L 151.210687 203.50072 
L 149.475769 205.565938 
L 144.816462 211.813657 
L 143.456129 213.306167 
L 138.86911 216.603574 
L 134.728965 219.909659 
L 133.697214 221.037719 
L 132.750895 222.53023 
L 131.97544 224.508674 
L 128.420172 230.522103 
L 127.933869 231.815034 
L 125.213202 235.069054 
L 124.628324 235.572343 
L 123.872584 235.850019 
L 123.169416 235.650439 
L 121.342495 234.886829 
L 120.238456 234.331476 
L 116.328319 232.075356 
L 114.415966 231.242326 
L 113.068776 230.582845 
L 110.426969 229.40272 
L 109.920951 229.142399 
L 108.790625 228.856045 
L 107.81802 228.326724 
L 106.332825 227.563114 
L 105.846522 227.120567 
L 104.742483 226.617279 
L 103.612158 226.261506 
L 100.346043 224.152901 
L 98.571695 222.521552 
L 93.649522 219.892304 
L 92.703203 219.146049 
L 91.691168 218.503922 
L 87.202724 216.247801 
L 85.316658 215.249902 
L 83.34516 214.477614 
L 83.042864 214.147874 
L 82.904859 213.783423 
L 83.023149 213.453683 
L 83.851178 212.282235 
L 87.774459 205.843614 
L 87.156723 205.453132 
L 88.122757 203.882525 
L 88.701063 203.275108 
L 89.28594 201.999532 
L 89.785386 200.932213 
L 90.5937 199.61325 
L 92.026322 196.95797 
L 94.556411 192.549857 
L 95.351582 191.465184 
L 95.73931 190.076802 
L 96.396476 188.974774 
L 96.961638 187.950842 
L 97.349366 186.753362 
L 98.604553 184.479887 
L 99.064569 183.534052 
L 99.485156 183.152247 
L 100.516906 181.269254 
L 100.773201 180.479612 
L 100.917777 179.611873 
L 101.673518 178.371007 
L 103.283575 175.733081 
L 104.105032 174.431473 
L 104.919918 174.067022 
L 104.841058 173.936862 
L 104.788485 173.615798 
L 104.952776 173.173252 
L 106.221107 171.255549 
L 107.509152 168.825881 
L 108.508044 166.639179 
L 110.177245 163.827706 
L 110.74898 162.604194 
L 113.259354 158.603919 
L 114.455396 156.512668 
L 116.348034 153.102455 
L 116.867195 152.382232 
L 117.169491 152.095878 
L 117.498074 151.974395 
L 118.253815 152.147943 
L 119.909873 153.336745 
L 120.468464 153.822678 
L 120.744474 153.614421 
L 121.027055 153.744582 
L 121.027055 153.744582 
" clip-path="url(#p052800eb62)" style="fill: none; stroke: #000000; stroke-width: 3"/>
   </g>
  </g>
 </g>
 <defs>
  <clipPath id="p052800eb62">
   <rect x="7.2" y="7.2" width="274.536328" height="554.4"/>
  </clipPath>
 </defs>
</svg>
