<?xml version="1.0" encoding="utf-8" standalone="no"?>
<!DOCTYPE svg PUBLIC "-//W3C//DTD SVG 1.1//EN"
  "http://www.w3.org/Graphics/SVG/1.1/DTD/svg11.dtd">
<svg xmlns:xlink="http://www.w3.org/1999/xlink" width="195.19826pt" height="568.8pt" viewBox="0 0 195.19826 568.8" xmlns="http://www.w3.org/2000/svg" version="1.1">
 <metadata>
  <rdf:RDF xmlns:dc="http://purl.org/dc/elements/1.1/" xmlns:cc="http://creativecommons.org/ns#" xmlns:rdf="http://www.w3.org/1999/02/22-rdf-syntax-ns#">
   <cc:Work>
    <dc:type rdf:resource="http://purl.org/dc/dcmitype/StillImage"/>
    <dc:date>2022-08-01T05:25:24.182537</dc:date>
    <dc:format>image/svg+xml</dc:format>
    <dc:creator>
     <cc:Agent>
      <dc:title>Matplotlib v3.5.2, https://matplotlib.org/</dc:title>
     </cc:Agent>
    </dc:creator>
   </cc:Work>
  </rdf:RDF>
 </metadata>
 <defs>
  <style type="text/css">*{stroke-linejoin: round; stroke-linecap: butt}</style>
 </defs>
 <g id="figure_1">
  <g id="patch_1">
   <path d="M 0 568.8 
L 195.19826 568.8 
L 195.19826 0 
L 0 0 
z
" style="fill: #ffffff"/>
  </g>
  <g id="axes_1">
   <g id="LineCollection_1">
    <path d="M 170.633711 34.977946 
L 167.474135 32.977152 
L 166.31407 32.50004 
L 165.684486 32.407695 
L 165.282252 32.576993 
L 164.914996 33.061801 
L 163.661658 35.154939 
L 159.505242 42.919559 
L 158.415131 44.95883 
L 157.31336 46.936538 
L 155.733572 50.053159 
L 154.247056 52.123211 
L 153.325999 53.646893 
L 152.515702 55.008972 
L 150.965061 57.833169 
L 148.825644 61.126784 
L 146.808645 65.028332 
L 146.266504 65.982557 
L 144.570127 69.12996 
L 143.748171 70.515125 
L 143.573287 71.123059 
L 143.75983 71.692515 
L 143.876419 72.054197 
L 143.853101 72.408184 
L 143.246836 73.531707 
L 138.169363 82.296723 
L 137.703005 83.150908 
L 136.403032 85.059358 
L 135.680177 86.359874 
L 131.850212 93.6166 
L 131.593715 93.916719 
L 130.853372 95.578917 
L 130.264595 96.787089 
L 129.337708 98.526241 
L 127.507253 101.642862 
L 127.192461 102.450875 
L 126.300551 103.72061 
L 125.257075 105.667536 
L 123.350837 109.307442 
L 122.546369 110.692607 
L 117.789518 119.372975 
L 116.588646 121.204471 
L 116.285513 122.097133 
L 115.824984 122.951318 
L 115.282843 123.767026 
L 115.154595 124.151794 
L 114.420081 124.867463 
L 114.355957 125.344575 
L 112.799487 127.052945 
L 112.385594 127.345369 
L 111.744352 128.184163 
L 111.452878 129.022958 
L 111.167234 130.592812 
L 110.712535 131.485473 
L 109.98385 132.862943 
L 109.908067 135.864134 
L 110.199541 137.988054 
L 110.135417 140.050411 
L 110.438549 144.7138 
L 111.347947 145.937362 
L 111.458707 146.268263 
L 111.120598 146.699203 
L 110.998179 147.922765 
L 111.038985 148.392182 
L 111.551979 148.692302 
L 112.129097 148.884686 
L 112.618773 149.738871 
L 113.31831 150.192897 
L 113.796327 150.770049 
L 114.65326 152.59385 
L 115.125447 152.92475 
L 115.865791 153.163307 
L 116.693576 153.217174 
L 116.495374 153.617333 
L 116.582816 153.979015 
L 117.87113 156.503093 
L 117.970231 158.273027 
L 117.952743 160.489291 
L 117.812835 161.22035 
L 117.276524 162.81329 
L 117.008368 164.167673 
L 116.594475 166.060732 
L 116.512863 166.699447 
L 116.891778 168.338559 
L 117.09581 168.807976 
L 118.261705 169.077314 
L 118.687257 169.893022 
L 118.570667 170.577909 
L 119.037025 171.586002 
L 119.363476 172.370929 
L 118.675598 173.025034 
L 116.571157 174.564107 
L 115.387774 175.241298 
L 114.886439 175.772278 
L 114.694066 176.795761 
L 114.414251 178.427178 
L 113.184232 180.91278 
L 113.120108 181.520713 
L 113.516512 182.751971 
L 113.283333 185.868593 
L 113.050154 186.222579 
L 112.607114 187.5154 
L 112.601285 188.169506 
L 112.723704 188.977519 
L 112.338958 190.60124 
L 111.895918 191.755544 
L 112.193221 193.302312 
L 112.531331 193.979503 
L 112.175733 195.241543 
L 111.913407 196.55745 
L 111.476196 198.358164 
L 110.765 200.08962 
L 109.727353 201.420918 
L 108.946204 203.006162 
L 108.310791 205.130082 
L 107.791968 206.04583 
L 106.929205 206.984664 
L 106.32294 207.415604 
L 105.372735 208.231313 
L 105.116238 209.401008 
L 104.87723 210.547617 
L 104.923866 211.617272 
L 105.518472 211.132464 
L 105.891559 211.247894 
L 106.334599 212.040517 
L 106.416211 212.263682 
L 106.404552 212.179033 
L 107.296462 213.225602 
L 107.343098 213.479549 
L 107.622913 213.579589 
L 107.815285 213.91049 
L 108.001829 214.518423 
L 108.328279 215.026317 
L 108.788808 215.449562 
L 110.934055 216.419177 
L 112.566308 217.358011 
L 114.898098 218.650832 
L 115.959062 219.389587 
L 116.64694 219.66662 
L 121.176443 219.612752 
L 123.310031 220.174514 
L 124.639151 220.74397 
L 126.306381 221.644328 
L 127.344028 221.752063 
L 127.787068 221.921361 
L 129.017087 222.675506 
L 131.115698 223.768247 
L 132.176663 224.36079 
L 133.138526 224.984115 
L 133.616543 225.230366 
L 134.566747 226.061465 
L 137.102569 228.108431 
L 138.175193 228.616325 
L 138.64738 228.92414 
L 139.749151 229.331994 
L 139.924035 229.739848 
L 140.221338 230.086139 
L 141.614583 231.117318 
L 142.121747 231.555953 
L 142.518152 232.048456 
L 143.53248 232.302403 
L 144.249506 232.387052 
L 145.153074 232.833383 
L 145.129757 232.510178 
L 145.322129 232.279317 
L 145.636921 232.163887 
L 146.458877 232.425529 
L 147.42074 232.964204 
L 148.306821 233.726045 
L 151.035015 235.42672 
L 151.41976 235.865356 
L 151.851141 236.088521 
L 152.31167 236.126998 
L 152.830493 235.703753 
L 153.30851 235.634495 
L 153.745721 235.734534 
L 154.97574 236.496375 
L 155.727743 237.519858 
L 156.689606 237.958494 
L 160.746921 240.990466 
L 161.236597 241.136678 
L 161.743761 241.444493 
L 163.276913 242.037035 
L 164.122187 242.598797 
L 164.122187 242.598797 
L 163.988109 242.606492 
L 163.999768 242.637274 
L 164.611863 243.237512 
L 164.798406 243.376028 
L 166.704644 243.645366 
L 168.109548 244.199432 
L 169.75346 245.176743 
L 170.406361 245.776981 
L 171.30993 246.207921 
L 172.778958 246.985153 
L 173.688356 247.446875 
L 173.717503 247.693126 
L 173.30361 248.024027 
L 171.939513 250.309549 
L 171.170022 251.579284 
L 169.823414 254.164925 
L 167.870539 256.365798 
L 167.538259 256.981427 
L 167.118537 258.066473 
L 166.879529 258.843705 
L 166.448148 259.882579 
L 165.299741 262.091147 
L 165.229787 263.145412 
L 164.693475 263.784127 
L 163.86569 264.976908 
L 163.236107 265.900351 
L 162.717283 267.347079 
L 162.256755 270.379052 
L 161.883668 271.002376 
L 161.399822 271.579528 
L 160.939293 272.518362 
L 160.461276 272.756918 
L 159.213769 273.995871 
L 159.015567 274.426812 
L 158.829023 274.92701 
L 158.368495 275.604202 
L 157.942943 276.63538 
L 158.520061 279.105591 
L 159.073861 279.467273 
L 160.123167 280.459975 
L 161.772908 280.960173 
L 162.175142 280.929392 
L 162.53657 281.014041 
L 163.218618 281.506544 
L 163.988109 281.675842 
L 164.815894 282.014438 
L 166.249945 282.129868 
L 166.996118 282.553113 
L 170.359725 284.51543 
L 172.102738 285.24649 
L 173.653379 285.538913 
L 174.965011 286.039112 
L 175.856921 286.408489 
L 177.483344 287.362714 
L 177.844772 287.678224 
L 178.74834 287.578184 
L 179.372094 287.924476 
L 179.669397 288.201509 
L 179.780157 288.586277 
L 179.517831 289.478939 
L 177.891407 291.956845 
L 176.830443 293.580566 
L 176.037634 294.988817 
L 174.830933 297.020393 
L 174.288792 297.882273 
L 173.857411 298.428644 
L 173.507642 299.259743 
L 172.376724 300.998895 
L 172.09108 301.860775 
L 169.502793 306.554945 
L 167.858881 309.563832 
L 166.133356 312.134083 
L 165.025756 314.673552 
L 163.819054 316.843644 
L 163.346867 317.82865 
L 161.143325 321.714807 
L 157.768059 328.440553 
L 156.030875 331.426354 
L 154.742561 333.388671 
L 150.283013 340.776218 
L 149.257025 342.669277 
L 144.774159 350.549327 
L 143.188541 353.39661 
L 142.156724 355.374318 
L 141.375574 356.936477 
L 139.912376 359.398992 
L 138.944683 361.392091 
L 137.353237 363.893083 
L 135.98331 366.524897 
L 134.945663 368.494909 
L 133.476635 370.942034 
L 131.605374 374.520377 
L 130.340378 376.651993 
L 129.127847 378.837475 
L 128.498264 379.90713 
L 127.285733 382.223434 
L 125.496084 385.417009 
L 124.907307 386.625181 
L 123.117658 390.242001 
L 122.237407 392.46596 
L 121.578677 393.504834 
L 120.919946 394.528317 
L 120.441929 395.621058 
L 119.858981 397.075482 
L 118.407442 399.784249 
L 116.530351 402.662314 
L 115.865791 404.216777 
L 115.516022 404.69389 
L 114.979711 405.355691 
L 114.711555 407.040975 
L 113.563148 409.241848 
L 113.061813 409.926735 
L 112.461377 410.965609 
L 111.336288 412.774019 
L 110.397743 414.274614 
L 110.141246 414.682469 
L 109.599105 414.92872 
L 109.09777 415.628998 
L 106.905887 419.545937 
L 105.850752 421.408214 
L 103.897878 425.163551 
L 100.790768 430.711906 
L 94.267585 442.054869 
L 93.603025 443.047571 
L 93.76625 443.270736 
L 100.674178 446.818298 
L 102.417191 447.61092 
L 103.787118 448.442019 
L 104.64988 448.911436 
L 108.10093 450.950707 
L 111.54615 452.866852 
L 112.997689 453.56713 
L 119.421771 457.176254 
L 120.214579 457.407115 
L 120.715914 457.799579 
L 121.083171 458.530638 
L 121.846832 458.915406 
L 123.228418 459.584902 
L 129.798237 463.247894 
L 147.461547 473.113348 
L 147.496523 473.767454 
L 147.181732 474.444645 
L 146.214039 476.229969 
L 145.462037 477.907558 
L 145.829294 478.838697 
L 146.633761 479.43124 
L 149.437739 480.985703 
L 154.42194 483.69447 
L 159.843352 486.741833 
L 160.583695 487.203555 
L 162.029405 488.126998 
L 163.183641 488.896534 
L 163.696635 489.212044 
L 164.046404 489.604507 
L 165.562067 490.204745 
L 166.185821 490.458692 
L 166.185821 490.320176 
L 164.09304 489.33517 
L 163.673317 489.527554 
L 163.364355 489.873845 
L 163.113688 490.689553 
L 162.565717 491.428308 
L 162.017746 492.074718 
L 161.743761 492.1055 
L 161.184131 491.851553 
L 159.849182 490.874242 
L 158.694945 490.312481 
L 157.768059 489.750719 
L 157.599004 489.542944 
L 157.53488 489.273607 
L 157.721423 488.642587 
L 158.945613 486.457104 
L 159.685956 485.826085 
L 159.843352 485.456707 
L 159.586855 485.210456 
L 159.452777 485.264323 
L 159.126327 485.964601 
L 158.665798 487.149687 
L 157.400802 489.681461 
L 157.173452 490.39713 
L 156.98108 490.735725 
L 156.654629 491.005063 
L 156.065852 490.989672 
L 151.20407 488.404031 
L 150.737712 487.965395 
L 150.42875 487.034257 
L 149.97405 486.834177 
L 149.525181 486.849568 
L 149.08797 487.003475 
L 148.510852 486.949608 
L 147.97454 486.672575 
L 147.449888 486.272416 
L 146.861111 485.841476 
L 144.488514 484.725648 
L 144.31363 484.310099 
L 142.20336 483.024973 
L 141.515482 482.740245 
L 139.020466 481.201173 
L 138.396713 480.954921 
L 138.122727 481.116524 
L 139.160374 481.601331 
L 142.226678 482.794112 
L 142.494834 482.540166 
L 142.768819 481.855278 
L 143.445038 480.323901 
L 144.401072 479.077253 
L 144.803306 478.715571 
L 144.785817 478.007598 
L 144.20287 477.461227 
L 143.375084 477.284234 
L 142.710524 476.860989 
L 141.993499 476.337704 
L 138.577426 474.452341 
L 136.09407 472.874792 
L 130.7601 470.443057 
L 129.774919 469.719693 
L 127.816215 468.457654 
L 125.746751 467.380304 
L 123.65397 466.279867 
L 121.835173 465.27947 
L 120.949093 464.371417 
L 119.847322 463.624967 
L 119.462577 463.386411 
L 118.09265 463.070901 
L 116.716894 462.270584 
L 113.499024 460.523737 
L 112.356447 459.985061 
L 107.76865 457.491764 
L 107.063283 457.230122 
L 106.200521 456.722228 
L 105.192022 456.522149 
L 104.568268 456.006559 
L 103.967832 455.506361 
L 103.285783 455.036944 
L 100.779109 453.13619 
L 100.172843 452.859157 
L 98.266605 451.751025 
L 97.846883 451.397038 
L 96.809236 451.104614 
L 96.337049 451.073833 
L 93.684637 449.727144 
L 92.477936 449.157688 
L 92.005749 449.057648 
L 91.364506 448.796006 
L 90.816536 448.534363 
L 88.974421 447.372364 
L 87.866821 446.710563 
L 86.426941 445.756338 
L 84.981231 444.755941 
L 82.719394 443.386167 
L 81.174584 442.339598 
L 79.618114 441.762445 
L 78.207381 441.408459 
L 77.840124 441.546975 
L 75.741513 444.879067 
L 75.420891 445.433133 
L 75.356767 445.663994 
L 75.444209 445.90255 
L 76.936555 446.96451 
L 78.580467 447.903344 
L 80.364286 448.88835 
L 82.614464 450.019568 
L 83.43642 450.488985 
L 84.299182 450.904535 
L 85.121138 451.358561 
L 85.54669 451.520164 
L 86.362817 452.043448 
L 87.190602 452.382044 
L 88.018387 452.897633 
L 88.904468 453.259315 
L 96.756771 457.530241 
L 97.124028 457.576413 
L 98.412342 458.284386 
L 100.720814 459.607989 
L 101.525282 460.000452 
L 102.883549 460.754597 
L 103.7638 461.377922 
L 114.443399 467.826635 
L 114.979711 467.93437 
L 115.859961 468.465349 
L 117.363966 469.142541 
L 118.908777 470.312236 
L 120.517712 471.212594 
L 122.179112 472.212991 
L 123.420791 472.774752 
L 124.260235 473.351904 
L 125.029726 473.798235 
L 126.20145 474.413864 
L 126.965112 474.744764 
L 127.64716 475.314221 
L 128.463287 475.606645 
L 129.238607 475.991413 
L 131.121527 477.068764 
L 132.940324 477.892167 
L 138.379224 480.747146 
L 140.606084 482.147702 
L 147.327469 485.587529 
L 148.044494 485.926125 
L 149.000528 486.58023 
L 149.839973 487.065038 
L 150.218888 487.503674 
L 150.329648 487.980786 
L 151.104969 488.450203 
L 155.366315 490.566427 
L 155.669448 490.812679 
L 155.838503 491.15897 
L 155.902627 491.543738 
L 155.721913 492.244016 
L 154.136296 495.391419 
L 154.264544 496.05322 
L 154.556018 496.522637 
L 155.669448 497.369127 
L 157.004398 498.138663 
L 159.825864 499.423788 
L 161.627171 500.978251 
L 162.145995 501.209112 
L 162.903827 501.370715 
L 163.008757 501.301457 
L 162.956292 501.286066 
L 161.329868 500.277974 
L 159.371165 499.169842 
L 158.012897 497.86163 
L 154.725073 496.5842 
L 153.943923 496.361035 
L 152.247546 495.468373 
L 150.230547 494.121684 
L 148.446728 493.113592 
L 146.732862 492.305579 
L 146.307311 491.982374 
L 144.65174 491.058931 
L 140.168873 488.196256 
L 139.172033 488.065435 
L 135.272114 486.087727 
L 133.715644 485.218151 
L 132.130027 484.363966 
L 128.609024 481.824497 
L 127.396493 481.216563 
L 125.944953 480.370074 
L 124.674128 479.76214 
L 120.010548 477.022591 
L 117.398943 475.321917 
L 116.087311 474.75246 
L 115.277014 474.344606 
L 114.507523 473.952142 
L 112.303981 472.74397 
L 110.957373 471.897481 
L 109.814795 471.13564 
L 108.917056 470.697004 
L 107.413052 469.573482 
L 106.148056 469.088674 
L 104.918036 468.426873 
L 102.300602 467.218701 
L 101.420351 466.826238 
L 100.260286 465.995138 
L 97.794417 464.663841 
L 96.646011 463.871219 
L 94.127678 462.101286 
L 92.407982 461.431789 
L 91.306212 460.669948 
L 89.370826 459.731114 
L 88.018387 459.277088 
L 87.190602 458.753803 
L 85.599155 458.345949 
L 79.221709 454.667566 
L 77.414572 453.459395 
L 76.015498 452.651382 
L 73.88191 451.55864 
L 73.229009 451.435515 
L 72.669379 451.674071 
L 72.150556 452.251223 
L 70.821436 455.221633 
L 71.112909 455.768003 
L 71.346088 455.998864 
L 72.716015 456.706837 
L 73.981011 457.476373 
L 74.389074 457.784188 
L 75.181883 458.115088 
L 75.99801 458.615287 
L 76.715035 459.200134 
L 85.77404 464.232901 
L 86.66012 464.686927 
L 87.936775 465.287165 
L 89.143476 465.956662 
L 90.793218 466.818542 
L 91.469437 467.218701 
L 92.606185 467.63425 
L 93.923646 468.665429 
L 96.080552 469.989031 
L 96.739282 470.304541 
L 97.316401 470.673918 
L 105.909047 475.452738 
L 108.170883 476.545479 
L 108.87042 476.853293 
L 109.272654 477.199585 
L 109.692376 477.330406 
L 113.662249 479.823703 
L 116.64694 481.585941 
L 118.308341 482.370868 
L 120.395293 483.509781 
L 122.866991 484.725648 
L 123.572357 485.195065 
L 124.907307 486.280111 
L 126.947623 487.280508 
L 128.87135 488.58872 
L 134.450158 491.397526 
L 135.726813 492.067023 
L 137.003468 492.63648 
L 138.495814 493.521446 
L 139.364405 493.921605 
L 141.463017 495.129777 
L 142.669718 495.883922 
L 144.08628 496.645763 
L 144.476855 496.99975 
L 145.998348 497.446081 
L 147.659749 498.415696 
L 149.845802 499.823947 
L 152.136786 501.093682 
L 153.221068 501.893999 
L 154.147955 502.171032 
L 154.917445 502.632754 
L 155.366315 503.40229 
L 155.552858 503.802449 
L 155.838503 504.141045 
L 156.188271 504.341124 
L 157.791377 504.587376 
L 159.318699 505.372303 
L 160.787727 506.341918 
L 160.781898 506.58817 
L 160.478765 507.342315 
L 157.150134 514.060366 
L 156.86449 514.283531 
L 156.491404 514.298922 
L 155.809355 514.329703 
L 154.899957 514.091147 
L 152.626462 512.867585 
L 151.08748 511.982618 
L 149.565987 511.013003 
L 148.574976 510.289639 
L 148.038665 510.081864 
L 146.884429 509.766354 
L 146.767839 509.520103 
L 148.131936 505.133747 
L 147.86961 504.510422 
L 147.286662 504.079482 
L 142.728013 501.624662 
L 141.5388 500.916689 
L 140.244656 500.193325 
L 135.808426 498.069405 
L 135.441169 497.815458 
L 134.082901 497.299869 
L 132.112538 496.068611 
L 130.999109 495.329856 
L 128.702295 494.02934 
L 126.516242 492.628784 
L 124.930625 491.643778 
L 123.910467 491.035845 
L 122.482245 490.366348 
L 118.302511 488.250124 
L 117.620463 487.811488 
L 116.676088 487.342071 
L 112.152415 484.487092 
L 106.410382 481.532073 
L 101.058924 478.276935 
L 100.266115 477.930644 
L 98.896188 477.037982 
L 92.955953 474.082963 
L 91.160475 472.690103 
L 90.402643 472.205295 
L 89.516563 471.820527 
L 88.554699 471.46654 
L 85.237728 469.558091 
L 79.752192 466.664635 
L 79.011848 466.164436 
L 76.050475 464.717708 
L 71.468507 462.047418 
L 69.515633 461.023935 
L 69.025957 460.931591 
L 68.565429 460.616081 
L 67.44034 460.70073 
L 67.21882 460.81616 
L 66.77578 461.408703 
L 66.286104 462.493749 
L 66.460988 462.29367 
L 67.143037 461.87812 
L 68.66453 461.76269 
L 69.538951 461.685736 
L 69.731324 461.385617 
L 69.673029 461.362531 
L 68.950174 460.939286 
L 68.122388 460.677644 
L 67.562759 460.754597 
L 67.096401 461.239405 
L 66.233638 462.832345 
L 65.99463 463.35563 
L 65.866382 463.932782 
L 66.064584 465.094781 
L 66.472647 465.402596 
L 68.454669 466.572291 
L 69.183353 467.126357 
L 72.360417 468.834727 
L 73.567118 469.465746 
L 76.901578 471.428064 
L 79.180903 472.474633 
L 82.194742 474.275347 
L 83.051675 474.598553 
L 86.951594 476.968724 
L 89.32419 478.146114 
L 90.729093 478.831001 
L 91.568538 479.123425 
L 91.76674 479.408153 
L 91.801717 479.423544 
L 91.801717 479.423544 
L 92.291393 479.823703 
L 93.21245 479.931438 
L 93.649661 480.285425 
L 94.250097 480.731756 
L 96.558569 482.140007 
L 99.176003 483.756033 
L 99.846393 484.110019 
L 101.43201 485.056549 
L 103.419861 486.164681 
L 103.99115 486.634098 
L 104.352577 486.757224 
L 104.667369 486.664879 
L 105.681698 485.73374 
L 105.384394 486.418628 
L 105.623403 487.280508 
L 106.048954 487.411329 
L 106.905887 487.580627 
L 107.401393 487.765316 
L 108.077612 487.773011 
L 108.549799 487.634495 
L 109.272654 487.380548 
L 109.966362 487.149687 
L 110.706705 486.857263 
L 111.365436 486.957303 
L 112.612944 486.911131 
L 113.32414 487.141992 
L 114.146096 488.280905 
L 114.769849 489.635289 
L 115.271184 489.873845 
L 115.527681 489.850759 
L 115.854132 489.973885 
L 116.775189 489.896931 
L 117.328989 489.719938 
L 118.232558 488.904229 
L 118.867971 488.834971 
L 119.462577 488.973488 
L 120.523541 489.542944 
L 120.75672 490.020057 
L 120.622643 490.543341 
L 118.891288 493.375234 
L 118.75721 493.998559 
L 118.902947 494.337155 
L 119.159444 494.575711 
L 120.896628 495.591498 
L 121.922616 496.291776 
L 122.64547 496.638068 
L 126.20145 498.715815 
L 129.005428 500.224106 
L 130.783418 501.332238 
L 131.628692 501.439973 
L 131.943484 501.555404 
L 134.881539 503.517721 
L 135.890038 504.110264 
L 137.283283 504.887495 
L 138.250976 505.456952 
L 139.620902 506.011018 
L 140.262145 506.334223 
L 141.637901 507.196103 
L 145.327959 509.443149 
L 145.829294 509.497017 
L 146.470536 509.504712 
L 147.024336 509.866394 
L 147.922075 510.689798 
L 151.53635 512.54438 
L 152.725563 513.252353 
L 154.707584 514.198882 
L 155.53537 514.398962 
L 156.223248 514.822207 
L 156.339837 515.053067 
L 155.6403 516.984603 
L 154.905787 519.108523 
L 154.101319 522.055846 
L 153.495054 525.157077 
L 153.261874 525.395633 
L 152.964571 525.53415 
L 152.667268 525.53415 
L 151.932754 525.203249 
L 150.2014 524.072031 
L 149.19873 523.425621 
L 147.350787 522.386747 
L 146.19655 521.809595 
L 144.255335 520.647595 
L 140.495324 518.562152 
L 140.262145 518.223556 
L 139.166203 517.607927 
L 138.396713 517.253941 
L 140.023136 517.954219 
L 141.078271 518.246642 
L 141.544629 517.746444 
L 142.926215 515.414749 
L 143.08944 514.675995 
L 143.007828 514.406657 
L 142.249996 513.729465 
L 141.066612 513.013797 
L 140.052284 512.421254 
L 138.606574 511.543983 
L 137.656369 511.16691 
L 130.521092 506.819031 
L 129.961462 506.68821 
L 125.816705 504.03331 
L 124.359336 503.217602 
L 123.257565 502.494238 
L 121.596165 501.763178 
L 120.482735 501.147549 
L 119.800687 500.770477 
L 119.054514 500.324146 
L 117.818665 499.808557 
L 117.014197 499.462265 
L 116.670258 499.246795 
L 115.854132 498.962067 
L 115.113788 498.592689 
L 114.227708 497.923193 
L 111.487855 496.422597 
L 110.071292 495.460677 
L 107.704525 494.237115 
L 104.947184 492.882731 
L 103.402373 492.051632 
L 101.54277 490.9435 
L 99.869711 489.950799 
L 92.623673 485.810694 
L 91.88333 485.40284 
L 91.195452 484.98729 
L 90.536721 484.648695 
L 89.726424 484.864165 
L 89.155135 484.640999 
L 87.814356 483.325092 
L 86.794198 482.63251 
L 84.532361 481.285822 
L 79.390764 478.469319 
L 78.533831 477.969121 
L 78.026667 477.822909 
L 77.536991 477.869081 
L 76.668399 477.438141 
L 75.537481 476.707082 
L 73.584607 475.491214 
L 71.969842 474.544685 
L 64.939495 470.550792 
L 64.292423 470.135243 
L 63.248947 469.742779 
L 62.910838 469.75817 
L 62.584387 469.912077 
L 62.123858 470.550792 
L 60.485776 473.705891 
L 60.5499 473.936751 
L 61.062894 474.32152 
L 62.636852 475.137228 
L 63.33056 475.114142 
L 63.569568 474.952539 
L 64.030097 474.406169 
L 64.752952 473.6905 
L 65.056084 473.205692 
L 65.691497 472.659321 
L 65.674009 471.481931 
L 65.749792 471.266461 
L 65.499125 470.943256 
L 65.265946 471.828222 
L 64.892859 472.813229 
L 63.592886 474.898672 
L 63.761941 476.052976 
L 64.187493 476.77634 
L 64.916177 477.09185 
L 65.359217 476.999505 
L 66.140367 477.361187 
L 66.55426 477.653611 
L 67.073083 477.592048 
L 67.475317 477.730565 
L 67.889209 478.192286 
L 68.845243 478.730962 
L 73.287304 481.03957 
L 74.10343 481.632113 
L 79.140097 484.348575 
L 81.063824 485.487489 
L 83.063334 486.587926 
L 84.264205 487.21125 
L 85.465077 487.796097 
L 86.9924 488.596415 
L 87.155625 489.096613 
L 88.805367 489.920017 
L 92.623673 491.89003 
L 94.343368 492.998162 
L 97.001609 494.221724 
L 97.788588 494.583406 
L 99.525772 495.483763 
L 100.003789 495.668452 
L 101.198831 496.491856 
L 101.88088 496.992054 
L 103.804606 497.900107 
L 116.20973 504.99523 
L 118.09848 506.011018 
L 119.480065 506.857508 
L 121.467916 508.004116 
L 126.061543 510.435851 
L 126.918476 510.897572 
L 127.402322 511.128433 
L 129.034575 512.144221 
L 134.811585 515.299319 
L 136.053264 515.976511 
L 140.215509 518.41594 
L 141.398892 518.893053 
L 144.185382 520.593728 
L 145.485355 521.294006 
L 146.76201 522.117409 
L 149.618452 523.6257 
L 153.232727 525.888136 
L 153.215239 526.157474 
L 152.964571 526.39603 
L 152.877129 527.096308 
L 152.795516 527.665765 
L 152.544849 527.965884 
L 151.845312 528.342957 
L 151.612133 528.473778 
L 151.582986 528.720029 
L 151.821994 529.91281 
L 152.247546 531.582704 
L 152.224228 532.906306 
L 152.230057 534.999444 
L 152.09015 535.830543 
L 151.926925 535.907497 
L 151.606304 535.65355 
L 151.09331 535.915192 
L 150.527851 536.292265 
L 150.183912 536.4 
L 149.694236 536.192225 
L 148.586635 534.937881 
L 146.517172 534.006743 
L 145.998348 533.637365 
L 145.298811 533.352637 
L 143.147735 532.129074 
L 142.331608 532.098293 
L 141.64373 531.867432 
L 141.31145 531.859737 
L 141.08993 531.967472 
L 140.681867 532.46767 
L 140.279633 532.598491 
L 139.98233 532.56771 
L 139.405212 532.867829 
L 138.728993 532.483061 
L 137.475656 531.444187 
L 135.925015 530.574611 
L 135.155524 530.44379 
L 135.079741 530.205234 
L 135.277943 529.69734 
L 136.263125 527.981275 
L 136.846072 526.857752 
L 137.236647 526.111302 
L 137.691346 524.864653 
L 137.994479 524.033554 
L 137.98282 523.633395 
L 137.545609 523.048548 
L 136.496304 522.34827 
L 133.033595 520.32439 
L 131.354707 519.624112 
L 130.025586 518.823795 
L 128.364186 517.86957 
L 125.478595 516.353584 
L 124.656639 515.922643 
L 123.519892 515.168498 
L 122.785378 514.675995 
L 121.077342 513.983412 
L 116.98505 511.728671 
L 116.2039 511.366989 
L 115.20706 510.73597 
L 114.256856 509.874089 
L 113.965382 509.312328 
L 113.831304 509.57397 
L 113.726373 509.851003 
L 113.837133 509.820222 
L 114.624113 509.874089 
L 115.148765 510.335811 
L 115.813325 510.943744 
L 120.331169 513.429346 
L 121.788538 514.283531 
L 122.353997 514.629823 
L 123.688947 515.337796 
L 123.992079 515.468617 
L 124.184452 515.691782 
L 124.271894 515.999597 
L 124.015397 516.661398 
L 122.866991 518.692973 
L 122.453098 520.293609 
L 122.482245 520.73994 
L 122.919456 521.209357 
L 123.584016 521.532562 
L 124.067862 521.671078 
L 125.466936 522.394442 
L 127.122507 523.271713 
L 129.238607 524.610706 
L 130.357866 525.580322 
L 131.162334 526.042044 
L 132.054244 526.357553 
L 133.76228 527.481076 
L 134.339398 527.912016 
L 135.248796 528.41991 
L 135.377044 528.643076 
L 135.382874 528.966281 
L 135.003958 529.720426 
L 133.989629 530.990161 
L 133.161844 532.737008 
L 132.724633 532.721617 
L 131.681157 532.129074 
L 127.186632 529.374135 
L 126.084861 528.743115 
L 125.035555 528.527645 
L 122.779548 527.188652 
L 119.345987 525.087819 
L 118.156775 524.379845 
L 117.049174 523.694958 
L 114.012018 521.994283 
L 112.752851 521.201661 
L 109.704035 519.670284 
L 106.812616 518.41594 
L 106.299622 518.054258 
L 105.471836 517.546365 
L 104.177693 516.622921 
L 102.154865 515.491703 
L 101.350397 514.852988 
L 98.254946 513.260048 
L 95.019587 511.366989 
L 94.150995 510.820619 
L 93.521412 510.558976 
L 93.119178 510.243467 
L 90.804877 509.135335 
L 89.615664 508.473533 
L 88.344838 507.773256 
L 87.517053 507.273057 
L 85.826505 506.27266 
L 84.952084 505.964846 
L 84.130128 505.533905 
L 83.255706 505.126051 
L 80.480876 503.510025 
L 80.066983 503.50233 
L 78.737863 502.986741 
L 78.061644 502.594277 
L 76.755841 501.647748 
L 76.167064 501.239894 
L 75.642412 500.755086 
L 74.120918 499.916292 
L 73.351428 499.585391 
L 72.261316 498.631166 
L 69.066763 496.691935 
L 68.868561 496.638068 
L 67.090571 495.537631 
L 66.734973 495.291379 
L 65.365047 494.891221 
L 64.280764 494.260201 
L 63.021598 493.490665 
L 61.931486 493.028943 
L 60.946304 492.659566 
L 58.579537 491.135884 
L 57.734264 490.804984 
L 56.859842 490.389434 
L 55.932956 490.058534 
L 54.784549 489.635289 
L 54.166625 489.612203 
L 54.055865 489.750719 
L 53.641972 490.997368 
L 53.367987 492.390228 
L 53.10566 494.44489 
L 53.589507 494.544929 
L 54.481416 494.922002 
L 55.65897 495.545326 
L 57.460278 496.399511 
L 57.961613 496.630372 
L 60.957963 499.700821 
L 62.77676 500.20102 
L 63.872701 500.84743 
L 65.073573 501.547708 
L 66.653361 502.517324 
L 69.702176 503.987138 
L 72.191362 505.441561 
L 73.765321 506.472739 
L 75.059464 507.01911 
L 81.611794 510.389678 
L 83.174094 511.536287 
L 84.753881 512.282737 
L 86.823345 513.590949 
L 89.032716 514.837597 
L 89.032716 514.837597 
L 89.289213 515.199279 
L 93.020077 517.030775 
L 94.943804 518.600629 
L 97.118198 519.847278 
L 98.703816 520.586032 
L 99.350887 520.947714 
L 101.851732 522.194363 
L 102.848573 522.609912 
L 104.177693 523.163978 
L 104.923866 523.487184 
L 105.65838 523.664177 
L 107.640401 524.410627 
L 112.391424 527.350255 
L 115.813325 529.451089 
L 116.54201 530.059022 
L 118.693086 531.297975 
L 119.754051 531.93669 
L 120.581836 532.513842 
L 122.575517 533.7451 
L 122.709595 534.014438 
L 122.610494 534.26069 
L 122.400633 534.391511 
L 121.794367 534.26069 
L 118.442419 532.867829 
L 117.078322 532.398412 
L 113.067643 530.797777 
L 101.5486 526.06513 
L 100.394363 525.634189 
L 97.287253 524.37215 
L 96.418661 524.187461 
L 93.125008 523.09472 
L 90.711605 522.063542 
L 86.368646 520.332085 
L 84.252546 519.36247 
L 83.407273 519.023874 
L 82.561999 518.623715 
L 81.10463 518.100431 
L 79.734703 517.415543 
L 78.819476 516.992299 
L 78.423071 516.730656 
L 76.359437 516.399756 
L 68.390544 513.429346 
L 64.000949 511.667108 
L 61.779919 510.558976 
L 58.142327 508.981427 
L 57.098851 508.281149 
L 55.653141 507.780951 
L 53.834345 507.049892 
L 52.464418 506.672819 
L 51.671609 506.288051 
L 51.3335 506.095667 
L 50.534862 506.05719 
L 50.22007 505.895587 
L 50.074333 505.618554 
L 49.99272 505.149137 
L 50.167605 504.194913 
L 52.272045 496.461074 
L 53.228079 493.775393 
L 54.341509 489.058137 
L 54.44061 488.134693 
L 55.239248 485.802999 
L 55.682288 484.387052 
L 55.647311 483.979198 
L 55.250907 483.302006 
L 54.737913 482.563252 
L 54.020888 481.939927 
L 50.622304 479.87757 
L 49.572998 479.23116 
L 46.850633 477.468922 
L 46.838974 477.245757 
L 47.194572 476.56087 
L 48.22056 475.260354 
L 48.873461 474.467731 
L 50.482396 471.543494 
L 51.339329 470.250673 
L 52.044696 469.511919 
L 54.020888 466.118264 
L 55.128488 464.356027 
L 55.950444 463.009338 
L 57.197952 461.470266 
L 57.541891 461.193233 
L 58.241428 461.054716 
L 59.226609 461.316359 
L 59.704626 461.508743 
L 59.780409 463.917391 
L 60.182643 464.294464 
L 60.829715 464.409894 
L 61.482616 464.394503 
L 61.972292 464.255987 
L 62.531922 464.325245 
L 63.400514 464.063603 
L 63.88436 463.894305 
L 64.362377 463.617272 
L 64.793758 463.494146 
L 65.382535 462.947775 
L 66.058754 462.032027 
L 66.600895 460.939286 
L 66.699997 460.192836 
L 67.259626 459.461777 
L 67.516123 458.969274 
L 67.930016 458.684545 
L 68.081582 458.24591 
L 68.250637 457.684148 
L 68.740313 457.106996 
L 69.119229 456.222029 
L 69.399044 455.775699 
L 69.737153 455.414017 
L 70.401713 455.237023 
L 70.938025 454.151977 
L 71.351918 453.674865 
L 71.835764 453.220839 
L 73.363087 450.59672 
L 73.718685 449.51937 
L 74.972022 447.087636 
L 75.619094 446.456616 
L 75.753172 445.310007 
L 76.592616 443.578551 
L 77.54282 442.508895 
L 78.638762 441.608538 
L 79.781339 438.630433 
L 79.851293 438.084063 
L 80.066983 437.614646 
L 80.300162 437.183705 
L 80.253526 436.01401 
L 80.014518 435.105958 
L 79.303322 433.982435 
L 78.609614 433.636144 
L 77.222199 432.920475 
L 75.968862 432.174025 
L 74.587277 430.935072 
L 72.87924 429.773072 
L 71.276135 428.757285 
L 70.792288 428.541815 
L 69.509804 428.295563 
L 68.291443 427.733802 
L 67.166355 427.218212 
L 66.746632 427.279775 
L 65.889699 426.833444 
L 65.21931 426.09469 
L 65.009449 425.209723 
L 64.269105 424.917299 
L 63.750282 424.116982 
L 63.808577 422.978068 
L 63.971802 421.500559 
L 64.519773 420.061526 
L 64.65968 419.022652 
L 64.99779 418.253116 
L 66.863222 415.182667 
L 67.970822 413.412734 
L 69.136717 411.29651 
L 69.189182 410.773225 
L 68.88022 410.311503 
L 68.192342 409.826696 
L 67.358727 409.311106 
L 66.682508 408.618524 
L 63.301412 406.548472 
L 60.66649 405.171002 
L 57.571038 403.347201 
L 56.341019 402.554579 
L 55.507404 401.954341 
L 54.912798 401.246368 
L 54.32985 400.33062 
L 53.717755 399.938156 
L 53.012389 399.707295 
L 51.071173 399.684209 
L 50.709746 399.491825 
L 49.316501 398.52221 
L 46.541671 396.867707 
L 45.812987 396.121257 
L 44.483866 394.697615 
L 41.300973 393.343231 
L 40.811297 393.050808 
L 40.379916 392.635258 
L 38.683538 391.565603 
L 33.629383 388.749101 
L 33.11639 389.487855 
L 32.924017 389.256995 
L 33.326251 388.30277 
L 34.00247 387.35624 
L 34.789449 386.655962 
L 35.33159 385.855645 
L 36.905549 382.331169 
L 38.007319 380.722839 
L 38.322111 379.776309 
L 38.940035 378.337277 
L 38.951694 377.690866 
L 39.528812 376.952112 
L 39.88441 376.659688 
L 40.519823 375.274523 
L 40.683048 374.720457 
L 41.271825 373.789318 
L 41.615765 373.435331 
L 42.869102 370.972816 
L 43.067304 370.395664 
L 43.183893 369.664604 
L 43.842624 368.618035 
L 45.399094 366.124738 
L 46.99637 362.846514 
L 47.625953 361.599866 
L 47.427751 361.030409 
L 47.252867 360.722594 
L 46.646602 360.353217 
L 45.643932 360.053098 
L 45.090132 359.853019 
L 44.169075 359.853019 
L 43.755182 359.683721 
L 42.729194 358.698714 
L 41.359268 357.736794 
L 40.181714 357.167337 
L 38.875911 357.074993 
L 37.010479 355.874517 
L 35.838755 355.220411 
L 32.859893 353.458173 
L 32.463488 353.196531 
L 32.032107 353.188836 
L 30.819576 352.627074 
L 27.881521 350.672452 
L 26.482447 349.872135 
L 24.098191 348.548533 
L 22.197782 347.725129 
L 20.833685 346.817076 
L 19.347169 346.024454 
L 17.971413 345.231832 
L 15.517204 343.415727 
L 15.552181 343.508071 
L 15.482227 343.600415 
L 15.418103 343.408031 
L 16.00105 342.115211 
L 16.583998 341.207158 
L 17.11448 340.083635 
L 18.921617 336.920842 
L 26.529083 323.553999 
L 28.942485 319.367722 
L 32.370217 311.764705 
L 34.696177 307.409131 
L 35.483157 305.854668 
L 36.066104 304.761926 
L 36.544121 304.246337 
L 37.22617 302.938126 
L 38.607755 300.583345 
L 40.240008 297.866882 
L 40.78215 297.028088 
L 41.732354 295.042685 
L 43.609445 292.333918 
L 44.396424 290.67172 
L 44.355618 290.379296 
L 45.148427 289.355813 
L 45.32914 288.971045 
L 45.544831 287.231893 
L 46.092801 285.408092 
L 46.541671 284.292265 
L 46.978882 283.137961 
L 47.509364 282.014438 
L 47.835815 280.744703 
L 48.453739 279.70583 
L 48.984221 278.574611 
L 49.345649 278.166757 
L 50.120969 277.935896 
L 50.569838 277.805075 
L 50.872971 277.312572 
L 51.158615 276.458387 
L 51.520043 275.827367 
L 51.724075 275.003964 
L 52.627643 273.264812 
L 53.32718 272.141289 
L 53.700267 271.579528 
L 54.632983 270.548349 
L 55.478257 269.07084 
L 55.781389 267.862668 
L 56.749082 265.230855 
L 57.501085 263.784127 
L 59.558889 259.905665 
L 61.336879 257.781745 
L 61.558399 257.189202 
L 63.925166 254.026409 
L 66.309422 249.247589 
L 66.65919 248.708914 
L 67.451999 247.739298 
L 69.422361 244.461074 
L 69.970332 243.499154 
L 70.611574 242.629578 
L 72.068943 240.074718 
L 72.914217 238.597209 
L 72.931706 238.158573 
L 74.33078 236.357859 
L 75.10027 235.057343 
L 76.837454 231.617516 
L 77.904248 229.770629 
L 78.906918 227.900657 
L 80.784009 224.106843 
L 81.396104 222.983321 
L 82.596976 220.928659 
L 84.013538 218.512316 
L 85.115309 216.411482 
L 89.271725 207.946584 
L 90.338519 205.738016 
L 90.647481 205.245513 
L 91.411142 204.560625 
L 94.226779 198.519767 
L 96.033916 195.064549 
L 97.794417 192.240352 
L 97.975131 191.655504 
L 98.243287 191.170697 
L 98.406512 190.624326 
L 98.703816 190.108737 
L 99.863881 189.346896 
L 100.196161 188.839002 
L 101.589406 185.845506 
L 102.533781 184.275653 
L 103.291613 183.413772 
L 103.857072 182.251773 
L 104.335089 181.259071 
L 104.8714 180.035509 
L 105.081262 179.181323 
L 105.530131 178.781165 
L 105.833264 178.681125 
L 106.013978 178.658039 
L 106.089761 178.119364 
L 106.381235 177.834635 
L 106.410382 177.911589 
L 106.474506 177.803854 
L 107.780309 175.595285 
L 108.54397 174.163948 
L 109.167724 173.294372 
L 109.978021 172.324756 
L 110.147076 171.97077 
L 110.467697 171.647565 
L 110.963202 171.33975 
L 112.041655 170.962677 
L 113.009348 170.400916 
L 113.738032 169.646771 
L 114.105289 168.769499 
L 114.198561 168.346255 
L 114.268515 165.006468 
L 114.624113 163.328879 
L 115.335309 161.928323 
L 116.029016 160.527767 
L 117.189082 158.026775 
L 117.742882 157.057159 
L 118.687257 155.833597 
L 119.21191 155.002498 
L 119.946423 153.463426 
L 120.774209 152.001307 
L 121.065683 150.862394 
L 121.333839 149.708089 
L 122.53471 147.784249 
L 123.135146 146.706898 
L 124.563368 144.536806 
L 126.09069 141.889602 
L 126.860181 140.919987 
L 127.507253 139.81955 
L 127.728773 139.327047 
L 129.087041 137.149259 
L 129.973121 135.417803 
L 130.660999 134.378929 
L 136.607064 123.513079 
L 138.484155 119.326802 
L 141.556288 113.455242 
L 141.87108 112.3625 
L 143.211859 110.292448 
L 144.960702 107.614462 
L 145.497013 106.660238 
L 146.260675 105.682927 
L 147.857951 102.250795 
L 148.510852 101.211922 
L 149.525181 99.734412 
L 150.615293 97.541234 
L 151.501373 95.471182 
L 153.145285 92.385342 
L 153.547519 91.292601 
L 153.722403 90.761621 
L 154.037195 90.346071 
L 154.258715 89.676575 
L 154.112978 89.407237 
L 153.75155 89.168681 
L 150.591975 88.068244 
L 148.907256 87.167887 
L 148.155254 86.967808 
L 142.76299 83.681888 
L 139.708345 81.673399 
L 139.31777 81.427148 
L 138.705675 81.188591 
L 137.324089 81.034684 
L 135.843402 80.003506 
L 131.517932 77.42556 
L 129.553399 76.448249 
L 122.365656 72.354316 
L 122.010058 72.338926 
L 122.278214 71.984939 
L 123.164294 70.376609 
L 123.98625 68.421987 
L 125.501913 65.097591 
L 126.183962 64.058717 
L 127.250756 62.750505 
L 128.737272 59.687752 
L 129.640841 58.37954 
L 130.841713 55.686164 
L 131.564568 54.554945 
L 131.780258 54.11631 
L 132.4215 53.231343 
L 132.660509 52.73884 
L 133.080231 51.884655 
L 134.001288 50.022378 
L 137.079251 44.243161 
L 137.568927 43.165811 
L 138.320929 42.157718 
L 140.495324 38.548594 
L 140.711014 37.971442 
L 141.503823 36.701707 
L 142.623082 34.554701 
L 143.497503 33.007934 
L 143.806466 32.746291 
L 144.482685 32.653947 
L 145.036485 32.900198 
L 146.044984 33.692821 
L 146.231527 33.854423 
L 146.727033 33.854423 
L 147.210879 34.285364 
L 147.210879 34.262277 
" clip-path="url(#p7ea3f146d1)" style="fill: none; stroke: #000000; stroke-width: 3"/>
   </g>
  </g>
 </g>
 <defs>
  <clipPath id="p7ea3f146d1">
   <rect x="7.2" y="7.2" width="180.79826" height="554.4"/>
  </clipPath>
 </defs>
</svg>
