<?xml version="1.0" encoding="utf-8" standalone="no"?>
<!DOCTYPE svg PUBLIC "-//W3C//DTD SVG 1.1//EN"
  "http://www.w3.org/Graphics/SVG/1.1/DTD/svg11.dtd">
<svg xmlns:xlink="http://www.w3.org/1999/xlink" width="298.418392pt" height="568.8pt" viewBox="0 0 298.418392 568.8" xmlns="http://www.w3.org/2000/svg" version="1.1">
 <metadata>
  <rdf:RDF xmlns:dc="http://purl.org/dc/elements/1.1/" xmlns:cc="http://creativecommons.org/ns#" xmlns:rdf="http://www.w3.org/1999/02/22-rdf-syntax-ns#">
   <cc:Work>
    <dc:type rdf:resource="http://purl.org/dc/dcmitype/StillImage"/>
    <dc:date>2022-08-04T05:13:38.617110</dc:date>
    <dc:format>image/svg+xml</dc:format>
    <dc:creator>
     <cc:Agent>
      <dc:title>Matplotlib v3.5.2, https://matplotlib.org/</dc:title>
     </cc:Agent>
    </dc:creator>
   </cc:Work>
  </rdf:RDF>
 </metadata>
 <defs>
  <style type="text/css">*{stroke-linejoin: round; stroke-linecap: butt}</style>
 </defs>
 <g id="figure_1">
  <g id="patch_1">
   <path d="M -0 568.8 
L 298.418392 568.8 
L 298.418392 0 
L -0 0 
z
" style="fill: #ffffff"/>
  </g>
  <g id="axes_1">
   <g id="LineCollection_1">
    <path d="M 151.883221 173.992104 
L 152.503713 174.450552 
L 153.124205 175.006542 
L 154.320868 175.894175 
L 155.059549 176.020979 
L 156.374401 175.747861 
L 156.987506 175.494252 
L 157.940405 174.635882 
L 158.760341 173.699477 
L 159.196162 173.367834 
L 160.274637 172.80209 
L 160.592269 172.480201 
L 160.703071 171.894949 
L 160.791713 171.855932 
L 161.33095 172.480201 
L 162.778765 173.397097 
L 163.539606 173.709232 
L 164.987421 174.050629 
L 168.001239 175.006542 
L 169.552469 175.445481 
L 171.827607 176.547707 
L 173.179393 177.396323 
L 175.099963 178.888717 
L 176.459136 179.825121 
L 184.695429 185.043623 
L 190.597489 186.145849 
L 191.291849 186.497 
L 191.978823 186.974956 
L 193.315835 187.501684 
L 195.472784 188.379563 
L 198.176356 190.047532 
L 199.469048 190.87664 
L 201.204948 192.456822 
L 201.921468 193.997987 
L 202.453319 195.44161 
L 203.546566 201.245365 
L 204.721069 204.532533 
L 205.939893 207.068628 
L 206.811536 208.960944 
L 210.889055 211.077608 
L 212.107879 211.058099 
L 213.009069 212.862628 
L 213.947194 213.847803 
L 214.966574 214.940275 
L 215.476264 215.447494 
L 218.386667 219.485736 
L 218.999772 219.505245 
L 219.827094 216.140043 
L 219.768 217.027676 
L 218.571337 223.543488 
L 216.805889 227.406154 
L 214.131864 230.615289 
L 213.001682 232.419818 
L 210.194695 237.043313 
L 209.426467 237.999226 
L 208.414474 239.911051 
L 207.690566 241.579021 
L 207.483736 242.27157 
L 206.442196 245.061273 
L 205.984213 246.46588 
L 205.156891 247.841223 
L 204.336955 249.070254 
L 202.475479 252.659803 
L 201.648156 254.025392 
L 199.653718 257.556416 
L 199.151415 259.23414 
L 198.102488 261.292278 
L 197.17175 262.579834 
L 194.320441 267.505709 
L 193.072071 269.719915 
L 190.959443 273.660615 
L 188.145069 279.318057 
L 187.273425 280.859222 
L 185.96596 283.219741 
L 180.329824 292.632553 
L 178.431414 296.027018 
L 177.35294 298.055893 
L 176.281853 300.123786 
L 175.676134 301.625934 
L 174.051036 305.92754 
L 173.622601 307.419934 
L 172.551514 310.063325 
L 172.18956 310.668086 
L 171.702031 311.243584 
L 169.264384 313.155409 
L 167.831343 315.671995 
L 166.664227 317.788659 
L 164.965261 320.539346 
L 162.823086 324.987265 
L 161.929282 326.460151 
L 160.865581 327.757461 
L 158.871143 331.064138 
L 156.005061 335.434024 
L 155.42889 336.936172 
L 155.192512 337.618967 
L 151.765032 342.125411 
L 150.250736 345.090691 
L 148.71428 348.026708 
L 147.946052 349.509348 
L 146.51301 352.367331 
L 146.055028 353.001355 
L 144.954394 355.293594 
L 143.935014 357.449274 
L 143.417937 359.019702 
L 143.04121 360.658409 
L 142.738351 361.341204 
L 141.30531 363.067699 
L 139.887042 365.779369 
L 138.04034 368.334972 
L 136.282279 371.9928 
L 135.676561 373.338881 
L 134.945267 374.606929 
L 132.766158 377.191794 
L 133.113338 377.074744 
L 133.778151 376.957693 
L 136.363534 376.713838 
L 139.200069 377.952622 
L 139.392126 378.22574 
L 139.96091 379.532804 
L 142.332076 381.181266 
L 142.775285 382.059145 
L 143.38839 382.85899 
L 144.6146 383.688098 
L 146.616426 384.878111 
L 147.16305 385.239017 
L 148.086401 386.116896 
L 148.869403 386.380259 
L 150.073453 387.199613 
L 152.259948 388.555448 
L 152.946922 388.750532 
L 156.108476 390.25268 
L 156.965346 389.686936 
L 157.312526 389.628411 
L 157.667093 389.833249 
L 158.029046 390.379485 
L 159.181389 393.169189 
L 160.525788 394.593304 
L 162.217367 395.510199 
L 166.435236 396.232011 
L 167.122209 396.436849 
L 167.683606 396.466112 
L 170.039999 398.690072 
L 171.303143 399.645984 
L 173.918074 401.226166 
L 174.730623 401.655351 
L 175.417596 402.006503 
L 178.911557 403.147745 
L 180.115607 403.859803 
L 181.341817 404.649894 
L 182.220847 404.747436 
L 183.587407 405.176621 
L 184.259607 404.074395 
L 184.917033 406.942133 
L 186.106309 407.429843 
L 186.608612 407.751732 
L 187.044434 408.219934 
L 187.960398 408.707645 
L 189.445147 409.43921 
L 190.368498 410.053726 
L 190.82648 410.278072 
L 192.141333 410.717012 
L 192.532833 411.146197 
L 193.094231 411.273002 
L 193.685176 411.282756 
L 194.27612 411.17546 
L 194.807971 411.448578 
L 195.347208 412.384982 
L 195.871671 412.979988 
L 197.024014 413.467699 
L 200.008285 414.521153 
L 204.115351 416.403716 
L 205.637033 417.369383 
L 207.17349 418.305787 
L 209.116221 419.427521 
L 210.549262 420.295645 
L 211.539094 420.841881 
L 212.846559 421.749023 
L 213.223287 422.344029 
L 213.311928 422.500097 
L 214.279601 422.83174 
L 214.76713 422.792723 
L 215.084763 422.939036 
L 216.347907 423.212154 
L 217.699693 423.514535 
L 218.21677 423.846178 
L 218.719073 424.577743 
L 220.181661 425.601935 
L 220.706125 426.011612 
L 222.257355 426.77244 
L 223.823358 427.679582 
L 224.946153 428.274589 
L 228.115095 430.030346 
L 229.496428 430.898471 
L 233.152899 432.703 
L 233.581334 432.654229 
L 234.297854 433.463828 
L 234.910959 434.029572 
L 235.346781 434.507529 
L 235.753056 434.527037 
L 235.819537 434.380724 
L 235.546225 434.195394 
L 234.046703 433.44432 
L 232.8722 432.654229 
L 231.786339 432.605458 
L 231.195394 433.122431 
L 230.922082 433.883259 
L 230.552742 434.809909 
L 230.168628 435.717051 
L 228.949804 437.189936 
L 228.898096 437.619121 
L 229.127088 438.701839 
L 229.400399 439.687014 
L 229.622004 440.018657 
L 230.09476 440.3503 
L 230.892535 440.194233 
L 232.022717 440.72096 
L 232.657982 440.740468 
L 232.923908 440.584401 
L 233.049483 440.125953 
L 232.783558 440.086936 
L 232.007943 439.97964 
L 229.245276 438.56528 
L 228.462275 438.409212 
L 226.933205 438.516509 
L 226.224071 438.857906 
L 225.478004 440.330792 
L 224.650681 441.871957 
L 222.833526 444.466576 
L 222.072685 445.685853 
L 219.768 450.211806 
L 219.088413 451.538378 
L 218.23893 452.669866 
L 217.249098 454.513412 
L 216.658153 455.752197 
L 216.451323 456.395974 
L 215.638773 457.420166 
L 214.966574 458.415096 
L 213.23806 461.39013 
L 212.846559 462.511864 
L 212.166973 463.760403 
L 211.967529 464.384672 
L 210.157761 467.857171 
L 209.736713 468.208322 
L 209.0719 468.257093 
L 207.912171 467.808399 
L 203.738623 465.799032 
L 202.276035 465.106483 
L 201.323137 464.609019 
L 200.377625 464.062783 
L 199.454274 463.536056 
L 197.777468 462.424076 
L 196.854117 462.238746 
L 195.78303 461.965628 
L 194.25396 461.097503 
L 192.857853 459.975769 
L 192.37771 459.556338 
L 190.708292 458.561409 
L 189.703685 457.712793 
L 188.617824 457.039752 
L 186.881924 456.122857 
L 183.639115 454.201277 
L 182.782245 453.528237 
L 181.356591 452.63085 
L 177.788762 450.319102 
L 175.29202 449.694833 
L 174.708462 449.324173 
L 172.691863 448.378014 
L 170.527528 447.383085 
L 169.870102 447.148984 
L 168.666052 446.378401 
L 168.112041 445.978479 
L 166.346594 444.047145 
L 165.696555 443.695994 
L 163.982815 442.349913 
L 161.582102 440.740468 
L 159.233096 439.765047 
L 157.046601 438.701839 
L 155.82039 438.038552 
L 154.978294 437.716663 
L 153.648668 436.780259 
L 151.203634 435.463441 
L 149.910943 434.839172 
L 144.540732 435.990168 
L 142.982116 434.946468 
L 142.53152 434.809909 
L 142.014444 434.780646 
L 141.416112 434.5563 
L 140.219449 433.639404 
L 138.520483 432.63472 
L 136.806743 431.795858 
L 136.289666 431.191097 
L 135.831684 430.830192 
L 135.019135 430.703387 
L 134.642408 430.401006 
L 134.014529 429.825508 
L 133.615641 428.986646 
L 133.460518 428.489181 
L 132.972989 427.76737 
L 130.993324 426.304238 
L 129.804047 425.61169 
L 128.814215 424.646023 
L 128.112468 424.333888 
L 126.546464 422.919528 
L 124.766243 422.470834 
L 122.956475 422.305013 
L 122.166086 422.129437 
L 120.215969 422.139191 
L 119.24091 421.505167 
L 119.063627 421.241804 
L 119.041466 420.783356 
L 118.627805 420.256629 
L 116.729395 419.212928 
L 115.695241 418.208245 
L 114.734956 417.203561 
L 113.686029 416.66708 
L 112.312083 415.964776 
L 111.964903 415.85748 
L 111.144967 416.364699 
L 110.819947 416.774376 
L 109.379519 419.798181 
L 109.120981 420.198103 
L 108.869829 420.23712 
L 108.101601 421.144262 
L 107.281665 422.305013 
L 106.262286 423.348713 
L 105.09517 425.679969 
L 104.888339 426.187188 
L 104.05363 427.533269 
L 103.676902 428.264835 
L 103.625195 428.869596 
L 103.455298 429.688949 
L 103.292788 430.10838 
L 102.52456 431.33741 
L 102.162606 432.029959 
L 100.832981 433.532108 
L 99.717573 435.083027 
L 99.274364 435.960906 
L 98.476589 437.26797 
L 97.538464 438.301916 
L 98.328852 439.287091 
L 98.653872 439.872344 
L 97.885644 440.867273 
L 97.486756 441.501297 
L 96.083262 442.915657 
L 95.344581 444.164196 
L 95.034335 444.856745 
L 94.140531 445.988233 
L 93.387077 447.197755 
L 92.714877 448.465802 
L 91.259676 450.816567 
L 91.141487 451.323786 
L 88.186763 455.605883 
L 87.928225 456.08384 
L 87.485016 457.878614 
L 86.13323 459.819702 
L 85.690021 460.482988 
L 84.980888 461.195045 
L 83.88764 462.98982 
L 83.754677 463.428759 
L 83.318856 464.140817 
L 82.395504 464.96017 
L 81.280096 466.725682 
L 80.652217 468.22783 
L 80.548802 468.578982 
L 80.607896 469.076447 
L 80.526642 469.700716 
L 79.152695 473.514612 
L 77.874777 475.894639 
L 77.224738 476.957848 
L 75.577479 478.967215 
L 74.853572 480.605922 
L 74.535939 481.854461 
L 73.02903 484.527114 
L 72.179547 486.604761 
L 70.739119 489.365202 
L 65.649607 498.251287 
L 64.866605 499.460809 
L 64.674548 500.114341 
L 64.017122 501.47993 
L 63.344923 502.640681 
L 62.86478 503.742907 
L 62.731818 504.220863 
L 61.328324 506.776466 
L 60.131661 508.785833 
L 58.831582 510.814709 
L 58.358826 511.360944 
L 57.915618 512.746042 
L 57.49457 513.321541 
L 56.438256 514.374995 
L 54.635874 517.193962 
L 54.140958 517.671918 
L 53.254541 519.954403 
L 52.338577 521.212696 
L 48.563917 527.845558 
L 47.322933 529.620824 
L 47.138263 530.801084 
L 45.934213 533.268899 
L 45.2694 534.712522 
L 44.530719 535.892781 
L 44.035803 536.273195 
L 43.540887 536.4 
L 43.016423 536.370737 
L 40.017378 534.761293 
L 39.212216 534.439404 
L 34.610234 531.396091 
L 33.465278 530.440178 
L 31.515161 529.318444 
L 30.842961 529.016063 
L 29.94177 529.298936 
L 29.077514 529.289181 
L 27.873464 528.586878 
L 26.595546 527.923592 
L 25.546619 527.162764 
L 24.970448 526.879892 
L 24.305635 526.694562 
L 22.037884 526.733578 
L 21.498647 526.616528 
L 20.575296 525.982504 
L 20.124701 525.241184 
L 20.161635 524.314535 
L 21.12192 522.324676 
L 21.513421 521.719915 
L 22.421998 519.817844 
L 22.724857 518.481517 
L 23.205 517.018386 
L 23.832879 516.111244 
L 24.852259 513.906793 
L 25.236373 513.243507 
L 25.376722 512.658254 
L 25.199439 512.043739 
L 25.893799 511.214631 
L 26.913178 509.029688 
L 29.653685 504.854887 
L 30.577036 503.323476 
L 31.219688 502.260267 
L 31.515161 500.689839 
L 32.852173 498.46588 
L 34.455111 495.754209 
L 35.193792 494.398374 
L 37.284259 491.501374 
L 38.037713 490.350377 
L 38.709913 489.121347 
L 39.426434 487.736249 
L 40.741286 485.882949 
L 41.782826 484.741707 
L 42.787432 483.395626 
L 45.535325 477.943023 
L 45.838184 477.182195 
L 46.606412 475.865376 
L 46.887111 475.124057 
L 47.285999 473.699942 
L 47.943425 471.602787 
L 49.007126 469.505632 
L 49.635004 468.169305 
L 50.669158 466.842733 
L 53.934127 461.175537 
L 55.514905 459.331991 
L 56.556445 457.069015 
L 56.733728 457.137294 
L 56.733728 457.410412 
L 56.416095 457.644513 
L 55.995047 457.790826 
L 55.9655 457.849352 
L 56.172331 457.654267 
L 56.489964 457.273853 
L 56.578605 456.747126 
L 56.445643 456.239907 
L 56.851917 455.71318 
L 57.49457 455.196207 
L 57.871297 454.688988 
L 58.506563 454.142752 
L 59.333885 452.133385 
L 59.932217 451.128701 
L 60.61919 450.163035 
L 61.069785 448.885233 
L 61.586862 446.983162 
L 62.488053 445.646836 
L 64.246113 444.164196 
L 65.509258 442.164583 
L 66.026335 441.052603 
L 65.834277 441.306213 
L 65.745636 441.257441 
L 65.339361 441.179408 
L 64.896153 440.633172 
L 64.608067 439.589472 
L 64.689322 439.131024 
L 64.534199 438.68233 
L 64.054056 434.800155 
L 64.526812 433.551616 
L 64.822285 432.186027 
L 65.132531 431.327656 
L 67.282092 429.425585 
L 68.072481 428.791562 
L 68.53785 427.728353 
L 68.552623 426.499323 
L 68.877643 424.763073 
L 69.379946 423.368221 
L 70.27375 422.09042 
L 70.909016 419.554326 
L 71.13062 418.666692 
L 71.832367 417.613238 
L 74.203533 415.691659 
L 75.348488 413.974918 
L 75.577479 413.311632 
L 76.678114 412.121618 
L 77.911711 411.029147 
L 79.041893 410.43414 
L 80.172075 409.673311 
L 80.726085 409.000271 
L 81.811946 408.356493 
L 82.461986 406.864099 
L 82.875647 405.839907 
L 82.986449 405.283917 
L 83.060317 402.738069 
L 83.850706 402.191833 
L 85.017822 401.391988 
L 85.520125 400.796981 
L 87.854357 400.19222 
L 88.799868 390.242926 
L 88.940218 389.911283 
L 90.284617 388.594465 
L 90.609636 388.145771 
L 91.562535 387.365434 
L 95.219006 382.878498 
L 96.349187 382.088407 
L 97.309473 381.67873 
L 98.712966 381.288562 
L 99.163562 380.908148 
L 99.60677 379.630346 
L 99.60677 379.630346 
L 100.308517 377.211302 
L 100.892075 376.694329 
L 101.985323 375.162919 
L 103.374043 373.231585 
L 104.600254 371.31976 
L 105.050849 370.714999 
L 108.286271 363.896807 
L 108.530036 362.394658 
L 108.559583 360.980298 
L 108.426621 360.33652 
L 108.086828 359.751268 
L 107.628845 359.244049 
L 106.616853 358.48322 
L 105.856011 357.62485 
L 104.851405 356.190981 
L 104.482065 355.859338 
L 104.016696 355.313102 
L 103.159826 354.123089 
L 102.886514 353.391523 
L 102.694457 351.977163 
L 103.063797 351.177318 
L 104.164432 349.645907 
L 105.501444 348.426631 
L 106.062842 347.958428 
L 109.224396 344.251829 
L 114.690635 331.46406 
L 115.931619 329.259609 
L 117.349887 327.220979 
L 118.849409 325.387188 
L 121.021131 323.231508 
L 122.203021 322.324366 
L 124.249167 321.426979 
L 125.741302 321.153861 
L 127.262985 321.036811 
L 128.777281 321.183124 
L 129.501188 321.446487 
L 130.801267 322.207316 
L 133.098564 323.81676 
L 134.42819 324.362996 
L 136.30444 325.055545 
L 137.767028 325.075053 
L 139.296098 324.81169 
L 140.825167 324.031353 
L 143.358843 322.158545 
L 144.629374 320.91976 
L 145.175998 320.236965 
L 146.549945 317.58382 
L 147.281239 314.608787 
L 148.884176 312.16048 
L 150.568369 310.170621 
L 151.779806 309.214709 
L 153.840725 308.444126 
L 155.162964 307.644281 
L 157.00228 306.259183 
L 159.358672 304.415638 
L 160.28941 303.313412 
L 161.020704 302.084382 
L 161.582102 300.68953 
L 163.414031 294.281014 
L 163.591314 293.188543 
L 163.620861 292.281401 
L 163.362323 290.428101 
L 162.586708 287.657906 
L 161.49346 284.936482 
L 161.035478 282.956377 
L 160.82126 281.083569 
L 160.836034 280.098394 
L 161.020704 279.122973 
L 161.434366 278.196323 
L 162.638416 276.49909 
L 166.139763 272.763228 
L 167.690993 271.514689 
L 170.099093 270.071066 
L 171.569068 269.193188 
L 172.810052 268.208012 
L 173.327129 267.661777 
L 174.560726 265.808477 
L 175.018708 264.54043 
L 175.151671 263.925914 
L 175.063029 262.609096 
L 174.885746 261.058177 
L 174.885746 259.468241 
L 175.173831 258.014864 
L 177.057468 252.757345 
L 177.574544 250.065183 
L 177.729667 248.153358 
L 178.091621 246.973099 
L 179.325218 244.641842 
L 180.440626 242.174027 
L 181.504327 239.901297 
L 182.206074 238.955138 
L 182.870887 237.589549 
L 183.727757 236.448307 
L 185.338081 234.829108 
L 187.583671 232.673428 
L 188.632598 231.541939 
L 189.969611 229.747165 
L 192.318616 226.069828 
L 193.315835 223.767834 
L 194.741489 220.051481 
L 195.9677 217.544649 
L 197.134816 215.545036 
L 198.331479 213.857558 
L 199.661105 212.228605 
L 200.754352 211.204413 
L 202.645376 209.936365 
L 204.691522 208.746352 
L 207.018367 207.956261 
L 210.172534 207.214941 
L 210.977697 207.156416 
L 212.573248 207.3515 
L 216.576898 208.09282 
L 218.098581 208.268396 
L 218.881583 208.239133 
L 220.477134 207.878227 
L 221.939722 207.205187 
L 223.21764 206.180995 
L 224.384756 204.990981 
L 225.315494 203.6449 
L 227.206517 200.094368 
L 230.072599 194.739307 
L 231.860207 191.461893 
L 233.928514 187.511438 
L 234.866638 185.57035 
L 238.619138 179.395936 
L 242.497213 172.285117 
L 244.107537 169.271066 
L 245.193398 167.027598 
L 247.557177 162.950339 
L 249.189662 159.487594 
L 250.238589 156.941746 
L 250.667024 155.225005 
L 250.873855 151.586685 
L 250.822147 148.436075 
L 250.866468 146.251132 
L 250.992044 145.148907 
L 251.450026 142.81765 
L 251.878461 139.286627 
L 251.494347 137.296768 
L 251.169327 136.379872 
L 249.810154 133.902303 
L 248.842482 132.205071 
L 248.510076 131.327192 
L 248.362339 130.468821 
L 248.40666 128.713064 
L 248.628265 127.727889 
L 249.802767 124.7431 
L 252.336443 119.748945 
L 254.013249 116.920225 
L 255.269006 115.262009 
L 257.263445 113.233133 
L 263.431431 106.883143 
L 264.487744 105.488291 
L 265.300293 103.927618 
L 265.79521 102.230385 
L 265.950333 100.533153 
L 265.514511 95.373176 
L 265.713955 92.759048 
L 266.112843 88.564738 
L 266.578212 86.906522 
L 267.058354 84.438707 
L 267.71578 82.224502 
L 268.432301 80.82965 
L 269.363039 79.542094 
L 271.047231 77.796091 
L 272.384244 76.801161 
L 276.129356 74.71376 
L 276.83849 74.099245 
L 277.422048 73.396942 
L 277.850483 72.606851 
L 278.145955 71.758235 
L 278.308465 70.870602 
L 278.293691 70.002477 
L 277.939124 69.192878 
L 277.229991 68.519837 
L 276.402668 67.944339 
L 275.427609 67.466383 
L 274.43039 67.232282 
L 273.580907 67.261544 
L 272.34731 67.554171 
L 270.434126 68.558854 
L 268.668679 69.904935 
L 266.910618 71.192491 
L 266.16455 71.494871 
L 264.901406 71.709464 
L 263.970668 71.650939 
L 262.833099 71.426592 
L 261.872814 70.870602 
L 260.95685 69.885427 
L 260.388065 68.831972 
L 260.255103 67.963847 
L 260.232942 66.939656 
L 260.46932 65.788659 
L 260.860821 64.871763 
L 262.064871 63.155022 
L 266.99926 57.848732 
L 268.498782 55.341901 
L 269.843181 52.522934 
L 270.478447 50.835456 
L 271.246675 47.909193 
L 271.372251 47.050823 
L 271.342704 46.426553 
L 270.951203 44.68055 
L 270.648344 43.929476 
L 269.702832 42.622411 
L 266.895844 39.891233 
L 265.14517 38.525644 
L 261.747238 36.40898 
L 258.89593 35.375034 
L 257.425955 35.092162 
L 255.992914 34.80929 
L 253.503559 34.224037 
L 250.65225 33.853377 
L 245.895145 32.429263 
L 245.392842 32.4 
L 244.454717 32.624347 
L 243.819452 33.053532 
L 242.083551 34.731256 
L 241.470446 35.628643 
L 240.451066 37.218579 
L 240.155594 38.398839 
L 240.185141 39.920495 
L 240.295943 41.051984 
L 240.458453 41.890846 
L 240.761312 42.407819 
L 240.953369 42.993071 
L 241.780692 43.900213 
L 242.763138 44.573253 
L 244.041056 45.256048 
L 247.0401 46.377782 
L 248.236764 46.904509 
L 249.24137 47.616567 
L 250.127787 48.513954 
L 250.615316 49.713722 
L 250.822147 51.001277 
L 251.021591 55.468705 
L 251.553441 57.56586 
L 252.565434 60.628682 
L 252.683623 62.355177 
L 252.594981 63.24281 
L 252.107452 64.979059 
L 251.339224 66.617767 
L 250.09824 68.149177 
L 245.62922 71.875285 
L 243.967188 72.762919 
L 237.629305 75.308767 
L 236.942332 75.933037 
L 236.329227 76.684111 
L 235.405876 78.352081 
L 234.482524 80.878421 
L 233.928514 82.526882 
L 233.559173 83.307219 
L 232.561954 84.58502 
L 231.380064 85.560441 
L 229.452107 86.633404 
L 228.063387 87.208903 
L 223.897226 88.652526 
L 222.641469 89.384091 
L 221.533447 90.271724 
L 219.649811 92.125024 
L 216.562125 95.421947 
L 214.471658 99.27486 
L 212.964748 102.425469 
L 209.721939 110.092278 
L 208.480955 112.130908 
L 206.907565 114.169537 
L 205.895572 115.096187 
L 204.189219 116.344726 
L 202.312969 117.251868 
L 201.190174 117.934662 
L 200.237276 118.802787 
L 199.454274 119.856242 
L 198.604791 121.621753 
L 198.02862 123.51407 
L 197.747921 125.464912 
L 197.740534 126.78173 
L 197.969525 131.278421 
L 197.747921 132.565976 
L 197.312099 133.726727 
L 196.381361 135.336172 
L 195.635293 136.272576 
L 193.88462 137.735707 
L 191.853247 138.594078 
L 190.279857 139.169576 
L 184.606787 142.154364 
L 180.876448 145.158661 
L 178.387093 147.626476 
L 176.525617 150.123553 
L 175.61704 151.528159 
L 174.368669 153.947203 
L 173.785111 155.459106 
L 173.327129 157.419702 
L 173.039043 160.189897 
L 173.016883 161.867621 
L 173.356676 164.22814 
L 173.792498 166.471608 
L 174.427763 168.617534 
L 175.934673 172.704548 
L 176.259692 174.157925 
L 176.370494 175.51376 
L 176.385268 176.186801 
L 175.853418 178.996013 
L 175.328954 180.234798 
L 173.666922 183.04401 
L 170.394565 187.716276 
L 167.336426 190.38893 
L 165.120384 191.978866 
L 162.823086 193.188388 
L 161.855414 194.007741 
L 160.96161 194.963654 
L 160.282023 195.851287 
L 160.067806 195.968338 
L 159.75756 195.909812 
L 159.720626 195.422102 
L 159.971777 194.446681 
L 160.422373 193.090846 
L 161.020704 190.359667 
L 161.382658 188.330792 
L 160.503628 183.999923 
L 159.609824 181.590633 
L 159.092747 180.585949 
L 158.339292 179.639791 
L 157.593225 179.025276 
L 156.972733 178.703387 
L 156.684647 178.713141 
L 156.234052 179.152081 
L 154.978294 181.19071 
L 153.087271 183.492704 
L 152.474166 184.15599 
L 149.866622 187.638243 
L 149.393866 188.496613 
L 149.297838 188.984324 
L 149.046686 189.384246 
L 148.677346 189.608593 
L 148.138109 189.569576 
L 146.055028 188.545384 
L 143.957174 187.355371 
L 142.841766 186.828643 
L 137.560197 183.619508 
L 136.939705 183.29762 
L 135.853844 182.361215 
L 134.760597 181.44432 
L 133.526999 180.800542 
L 131.695071 179.990943 
L 129.176169 178.810683 
L 128.622158 178.73265 
L 128.149402 179.005767 
L 127.410721 179.951926 
L 126.841937 181.044397 
L 126.642493 181.658912 
L 125.556632 183.941397 
L 125.364575 184.731488 
L 125.128197 184.838785 
L 124.618507 185.775189 
L 123.636062 187.813818 
L 122.550201 189.871957 
L 121.538208 192.105671 
L 120.134714 194.310122 
L 119.137495 196.026863 
L 118.620418 197.275402 
L 116.899291 200.133385 
L 116.057195 201.635533 
L 114.513352 204.873931 
L 113.434878 206.415096 
L 111.662043 209.458409 
L 111.012004 210.472847 
L 110.406286 211.565318 
L 109.172689 213.789278 
L 108.434008 215.603561 
L 107.87261 216.774066 
L 105.649181 220.188039 
L 104.615027 221.924289 
L 104.009309 222.782659 
L 101.623369 226.918444 
L 101.002877 227.962144 
L 99.673252 230.342171 
L 97.294699 234.458448 
L 94.650221 239.374569 
L 93.497879 241.627792 
L 90.986364 245.900135 
L 90.166428 247.304742 
L 89.826635 247.607122 
L 89.435134 247.69491 
L 88.511783 247.255971 
L 87.130449 245.958661 
L 86.044588 244.72963 
L 84.774057 243.588388 
L 83.688196 243.061661 
L 81.701144 242.749526 
L 79.987404 242.164273 
L 74.74277 239.413586 
L 73.147219 238.477182 
L 72.031811 238.07726 
L 70.096467 236.994542 
L 69.852702 236.662899 
L 69.800994 236.184943 
L 70.074306 235.033946 
L 70.606156 233.960983 
L 72.238641 231.47366 
L 72.452859 231.649236 
L 72.763105 231.40538 
L 74.077957 227.95239 
L 74.76493 226.245404 
L 74.646741 226.420979 
L 74.624581 226.235649 
L 75.732602 224.733501 
L 76.611633 223.4557 
L 77.719654 221.075673 
L 77.808296 220.49042 
L 78.53959 218.676137 
L 80.519255 215.418231 
L 82.380731 211.994504 
L 83.281921 210.609406 
L 84.781444 207.966015 
L 85.483191 207.019857 
L 87.292959 204.01556 
L 87.854357 203.27424 
L 88.873736 200.991755 
L 89.028859 200.37724 
L 90.321551 197.626553 
L 90.262456 197.66557 
L 89.656738 197.763112 
L 89.560709 197.763112 
L 89.893116 197.636307 
L 91.075005 196.543836 
L 91.739818 195.851287 
L 92.33815 194.651519 
L 93.01035 193.363964 
L 93.933701 192.144687 
L 94.362136 191.549681 
L 95.292874 191.032708 
L 95.780403 190.447455 
L 96.216225 189.676872 
L 96.777622 187.97964 
L 97.804389 185.853222 
L 100.146007 181.590633 
L 101.896681 178.049855 
L 103.928054 174.596865 
L 105.398029 171.465763 
L 106.262286 169.758777 
L 107.407241 168.549255 
L 107.798742 168.480975 
L 108.515263 168.832127 
L 109.113594 169.339346 
L 111.529081 170.412309 
L 111.883648 170.597639 
L 111.883648 170.597639 
" clip-path="url(#p0a1b4127a0)" style="fill: none; stroke: #000000; stroke-width: 3"/>
   </g>
  </g>
 </g>
 <defs>
  <clipPath id="p0a1b4127a0">
   <rect x="7.2" y="7.2" width="284.018392" height="554.4"/>
  </clipPath>
 </defs>
</svg>
