<?xml version="1.0" encoding="utf-8" standalone="no"?>
<!DOCTYPE svg PUBLIC "-//W3C//DTD SVG 1.1//EN"
  "http://www.w3.org/Graphics/SVG/1.1/DTD/svg11.dtd">
<svg xmlns:xlink="http://www.w3.org/1999/xlink" width="302.375482pt" height="568.8pt" viewBox="0 0 302.375482 568.8" xmlns="http://www.w3.org/2000/svg" version="1.1">
 <metadata>
  <rdf:RDF xmlns:dc="http://purl.org/dc/elements/1.1/" xmlns:cc="http://creativecommons.org/ns#" xmlns:rdf="http://www.w3.org/1999/02/22-rdf-syntax-ns#">
   <cc:Work>
    <dc:type rdf:resource="http://purl.org/dc/dcmitype/StillImage"/>
    <dc:date>2022-08-06T05:02:46.665122</dc:date>
    <dc:format>image/svg+xml</dc:format>
    <dc:creator>
     <cc:Agent>
      <dc:title>Matplotlib v3.5.2, https://matplotlib.org/</dc:title>
     </cc:Agent>
    </dc:creator>
   </cc:Work>
  </rdf:RDF>
 </metadata>
 <defs>
  <style type="text/css">*{stroke-linejoin: round; stroke-linecap: butt}</style>
 </defs>
 <g id="figure_1">
  <g id="patch_1">
   <path d="M 0 568.8 
L 302.375482 568.8 
L 302.375482 0 
L 0 0 
z
" style="fill: #ffffff"/>
  </g>
  <g id="axes_1">
   <g id="LineCollection_1">
    <path d="M 145.118388 173.596104 
L 146.43976 174.276306 
L 147.007129 174.40446 
L 150.918987 176.701373 
L 151.710317 177.253421 
L 153.979792 178.396949 
L 156.50309 179.294027 
L 158.921873 179.402464 
L 159.325003 179.392607 
L 159.519103 179.274311 
L 160.190987 179.254595 
L 161.348121 179.412322 
L 162.229036 179.225021 
L 162.385809 173.990424 
L 162.647097 173.191926 
L 162.99797 173.014482 
L 164.588095 173.694684 
L 165.237583 173.931276 
L 166.678401 174.611478 
L 168.164011 175.202957 
L 169.649622 175.705715 
L 170.418556 175.873301 
L 171.165094 176.228189 
L 171.896701 176.356343 
L 174.196037 177.509729 
L 175.562202 178.446239 
L 176.868643 179.432038 
L 178.817107 181.117756 
L 180.250459 182.47816 
L 180.75064 183.16822 
L 182.004823 184.489191 
L 184.095129 185.504565 
L 187.051419 186.657951 
L 189.798678 187.446591 
L 192.545938 188.392959 
L 198.60036 191.054618 
L 203.258756 193.824715 
L 203.997828 194.859805 
L 204.512939 196.141345 
L 205.11017 198.23124 
L 205.796984 201.04077 
L 206.431542 202.785635 
L 207.267664 204.599507 
L 208.365075 205.950053 
L 208.954839 206.620397 
L 213.852128 210.257998 
L 214.412031 211.618402 
L 214.942073 212.564769 
L 215.785661 214.970121 
L 216.143999 215.798193 
L 217.816244 218.588006 
L 218.92112 220.263866 
L 219.757242 221.121512 
L 220.854653 222.334045 
L 221.690775 224.571811 
L 221.79529 225.311161 
L 221.48921 225.902641 
L 221.235387 226.64199 
L 220.048392 228.850182 
L 218.517989 231.363971 
L 214.553873 237.485788 
L 213.023471 240.324891 
L 212.112695 242.680953 
L 211.515464 243.449877 
L 211.007819 243.824481 
L 210.567361 244.524399 
L 209.888012 245.874944 
L 208.163509 246.229832 
L 207.864894 246.43685 
L 207.491625 247.12691 
L 206.483799 251.750311 
L 206.147857 251.967187 
L 202.161345 255.54564 
L 199.324501 261.135125 
L 198.764598 262.416665 
L 195.188682 268.144161 
L 193.777725 271.624035 
L 191.888984 276.237578 
L 187.909938 282.852294 
L 187.409757 283.916958 
L 187.484411 284.873184 
L 187.148469 286.401174 
L 186.260089 288.619223 
L 183.960752 293.489074 
L 183.206749 295.243798 
L 180.623728 300.438963 
L 179.847329 302.390846 
L 175.487548 309.715339 
L 173.994472 307.428283 
L 173.128488 308.443657 
L 172.777615 308.581669 
L 173.583876 308.759113 
L 173.501757 309.104143 
L 173.218073 309.774487 
L 172.016147 311.43063 
L 171.822047 310.060369 
L 171.680205 310.454688 
L 171.635412 311.065884 
L 171.150163 311.450346 
L 170.918736 311.805234 
L 170.090079 313.973994 
L 169.395799 315.639995 
L 168.53728 317.838329 
L 168.514884 317.542589 
L 167.581712 319.149443 
L 166.894897 320.894308 
L 165.85721 323.112358 
L 165.133068 325.143105 
L 164.595561 326.188053 
L 164.155103 327.587889 
L 162.176778 330.58472 
L 161.422775 331.885976 
L 160.94499 332.30987 
L 159.354865 334.380049 
L 159.011457 334.922239 
L 158.429158 335.494003 
L 156.630002 336.667105 
L 156.09996 337.061425 
L 153.987258 341.428518 
L 151.449029 347.205305 
L 150.067934 349.965544 
L 148.156797 353.711583 
L 147.03699 356.195799 
L 144.453969 362.307757 
L 143.334163 365.679193 
L 140.743676 371.929163 
L 139.62387 372.964253 
L 137.929229 375.606196 
L 137.451444 376.404694 
L 136.346568 377.814388 
L 135.226762 379.87471 
L 135.032662 380.269029 
L 134.465293 380.978805 
L 134.062163 381.895599 
L 134.039766 382.299777 
L 133.606775 383.305293 
L 132.277937 385.395188 
L 132.076372 385.868372 
L 132.203283 386.055674 
L 132.576552 385.888088 
L 132.352591 386.104964 
L 130.866981 388.628612 
L 130.359335 390.255181 
L 130.389196 389.969299 
L 130.247354 390.176317 
L 129.874085 390.077737 
L 129.239528 391.053679 
L 129.07529 391.408567 
L 128.843863 391.546579 
L 127.858433 391.793029 
L 127.455303 391.250839 
L 128.39594 390.422767 
L 129.105151 390.353761 
L 129.179805 390.876235 
L 128.627367 392.039479 
L 129.067824 390.886093 
L 128.993171 390.521347 
L 128.463129 390.383335 
L 128.448198 390.205891 
L 126.208584 393.281587 
L 126.260842 392.778829 
L 126.544526 392.256355 
L 126.387754 392.384509 
L 125.82785 392.966131 
L 125.282878 394.415256 
L 124.655786 395.272902 
L 123.423998 397.175496 
L 123.461325 397.283934 
L 123.25976 397.865556 
L 121.647238 398.654196 
L 120.923096 398.565474 
L 120.833512 398.161296 
L 118.078787 399.580847 
L 117.92948 400.606079 
L 118.063857 400.339913 
L 118.243026 400.093463 
L 118.272887 400.192043 
L 117.742845 401.286281 
L 117.227734 402.912851 
L 116.921654 404.026804 
L 116.511058 405.002746 
L 115.085171 408.216453 
L 115.085171 408.669921 
L 114.659644 409.103673 
L 113.748868 411.509025 
L 111.345016 416.635184 
L 109.374156 420.420655 
L 107.701911 422.65842 
L 106.178974 425.458092 
L 105.626536 426.394602 
L 101.513112 435.473818 
L 100.617267 436.982091 
L 99.781145 438.588945 
L 98.220881 442.364558 
L 95.817029 446.849947 
L 95.092887 447.441427 
L 94.435934 449.018707 
L 93.58488 450.941016 
L 92.076874 454.07586 
L 90.046291 457.457153 
L 88.986207 459.4879 
L 86.388256 464.200023 
L 83.8127 470.834456 
L 83.290124 471.810398 
L 82.707824 473.239808 
L 81.229679 474.491773 
L 81.140095 475.132543 
L 80.677241 475.004389 
L 80.296507 475.526863 
L 79.624623 477.340735 
L 71.472429 485.325713 
L 71.599341 485.187701 
L 71.644133 484.793381 
L 73.099882 484.389203 
L 73.644855 483.975167 
L 74.025589 483.482267 
L 76.324925 478.503978 
L 76.742987 478.129374 
L 78.056893 477.735055 
L 78.661589 477.892783 
L 77.758278 478.484262 
L 77.78814 479.046168 
L 78.161409 480.298134 
L 78.497351 481.274076 
L 71.673995 484.665227 
L 64.522162 489.121042 
L 63.544198 492.315033 
L 62.573698 496.95815 
L 61.088088 503.079967 
L 59.990677 506.11623 
L 57.527102 512.583077 
L 54.884358 517.64023 
L 53.936255 520.942659 
L 51.614523 527.251778 
L 51.293511 528.286868 
L 45.477982 532.417369 
L 39.431025 536.4 
L 38.139515 535.51278 
L 33.675218 530.081023 
L 29.06908 524.481681 
L 28.740603 524.432391 
L 28.815257 524.245089 
L 27.740242 523.929633 
L 27.30725 523.712757 
L 27.254993 523.486023 
L 24.634645 525.142166 
L 23.977692 526.808168 
L 23.246084 527.202488 
L 22.910142 527.853116 
L 20.289795 534.566412 
L 20.648133 533.718625 
L 22.760835 529.834573 
L 22.738439 529.568407 
L 22.969865 529.11494 
L 22.663785 529.390964 
L 22.999727 528.976928 
L 23.716403 528.148856 
L 25.51556 523.870485 
L 27.814896 518.744326 
L 27.702915 519.355522 
L 27.337112 520.548339 
L 26.799605 521.820021 
L 26.232236 524.412675 
L 25.51556 527.971412 
L 25.51556 527.971412 
L 26.269563 527.025044 
L 27.075824 525.428048 
L 28.150838 523.387443 
L 29.233318 521.001807 
L 31.92832 515.648914 
L 35.88497 506.569698 
L 37.773711 502.133599 
L 39.475817 500.339444 
L 42.230542 496.948292 
L 45.388397 492.186879 
L 46.373827 488.963314 
L 47.292069 485.621453 
L 47.814645 484.172327 
L 52.286407 469.986668 
L 53.458471 469.129022 
L 54.899289 467.512311 
L 55.638362 466.230771 
L 53.727225 464.081727 
L 54.145286 463.4311 
L 54.809705 462.800188 
L 55.332281 462.10027 
L 56.011631 460.858162 
L 57.863044 458.097923 
L 58.788751 457.299425 
L 60.251966 455.150381 
L 61.386703 453.937848 
L 62.043656 452.44929 
L 63.320236 449.935501 
L 63.88014 448.506091 
L 63.902536 448.782115 
L 64.387785 449.353879 
L 64.417647 449.570755 
L 64.365389 449.482033 
L 63.887605 449.974933 
L 64.104101 449.689051 
L 64.611747 449.156719 
L 64.895431 448.210351 
L 64.97755 448.348363 
L 65.156719 449.018707 
L 65.194046 448.791973 
L 65.246304 448.466659 
L 65.679296 448.210351 
L 67.247025 447.756883 
L 67.366471 447.510433 
L 67.403798 447.589297 
L 67.44859 447.658303 
L 67.762136 448.880695 
L 67.73974 448.831405 
L 66.955875 448.782115 
L 66.955875 448.782115 
L 66.970806 448.328647 
L 66.806568 448.308931 
L 66.612468 448.466659 
L 66.470626 447.687877 
L 66.403437 446.652787 
L 71.099161 441.802652 
L 71.942748 439.801479 
L 72.831128 438.027039 
L 73.585132 435.85828 
L 74.466046 432.822016 
L 82.513724 421.475461 
L 90.561402 410.138763 
L 90.889879 409.902171 
L 91.337802 408.916371 
L 91.487109 408.275601 
L 90.441956 410.789391 
L 89.964172 413.342612 
L 88.523354 416.694332 
L 88.105293 417.09851 
L 88.276996 415.994414 
L 88.374046 414.811454 
L 87.425943 414.081962 
L 87.478201 413.10602 
L 89.673022 407.043352 
L 95.757306 387.918836 
L 95.757306 386.154254 
L 95.951405 384.783992 
L 107.649654 362.366905 
L 107.47795 362.613355 
L 107.253988 362.780941 
L 106.10432 363.017533 
L 105.60414 362.800657 
L 104.23051 362.623213 
L 103.715399 362.426053 
L 102.655315 362.297899 
L 103.192823 361.647271 
L 103.088307 361.390964 
L 103.043515 360.986786 
L 104.71576 357.250604 
L 106.276024 352.844079 
L 109.971386 348.930454 
L 110.986678 347.264453 
L 111.307689 346.603967 
L 111.942246 344.661941 
L 114.58499 338.737284 
L 117.496488 332.980214 
L 118.437125 331.52123 
L 121.430742 327.863913 
L 123.06566 326.306349 
L 123.677821 325.843023 
L 125.081312 325.212111 
L 126.477338 324.807933 
L 127.865898 324.669921 
L 129.344043 324.709353 
L 130.07565 324.788217 
L 130.814723 324.985377 
L 132.82291 326.109189 
L 135.838923 327.775191 
L 136.525737 328.011783 
L 138.683232 328.228659 
L 141.40063 327.873771 
L 142.199425 327.637179 
L 143.923928 326.651379 
L 145.2453 325.744443 
L 146.297918 324.660063 
L 147.081783 323.536252 
L 148.209055 321.298486 
L 149.440842 318.794555 
L 149.970884 317.187701 
L 150.612907 315.916019 
L 151.695387 314.516184 
L 153.860346 312.485436 
L 157.861789 309.813919 
L 159.75053 308.532379 
L 160.877802 307.586011 
L 162.296224 306.008731 
L 163.005435 304.73705 
L 164.080449 301.848656 
L 164.737403 299.679897 
L 165.46901 297.925173 
L 165.85721 296.229597 
L 165.909467 295.312804 
L 165.842279 294.327004 
L 165.640714 293.370778 
L 165.043483 291.88222 
L 163.699715 289.486727 
L 163.333912 288.826241 
L 162.923316 287.653139 
L 162.796404 285.691398 
L 162.766543 283.631076 
L 163.177139 281.896069 
L 164.177499 280.151203 
L 165.730298 278.179603 
L 167.872862 275.527802 
L 168.507419 274.906748 
L 170.739567 273.280178 
L 172.113197 272.698557 
L 173.031438 272.383101 
L 173.748115 271.969065 
L 175.636855 270.253773 
L 176.435651 268.962375 
L 177.241912 266.764042 
L 177.413615 263.501044 
L 177.226981 262.544819 
L 177.324031 261.470297 
L 177.757023 260.021171 
L 178.600611 258.000282 
L 179.294891 255.190752 
L 179.795071 252.647389 
L 179.929448 251.898181 
L 180.213132 251.306701 
L 180.728243 249.315386 
L 181.646485 247.304354 
L 185.334382 240.462903 
L 186.849854 238.304002 
L 190.201809 234.636827 
L 191.239496 233.483441 
L 193.583625 230.171154 
L 194.374955 228.731886 
L 195.54702 226.030795 
L 197.361107 221.545405 
L 199.29464 218.242976 
L 202.109087 214.280061 
L 203.848521 212.683065 
L 205.22215 211.77613 
L 205.968688 211.33252 
L 207.58121 210.731182 
L 209.231058 210.257998 
L 211.791683 209.686234 
L 213.471393 209.597512 
L 216.912933 209.942542 
L 218.592643 210.188992 
L 221.772894 210.4453 
L 224.161815 209.962258 
L 225.789268 209.025748 
L 226.326775 208.62157 
L 227.551097 207.162587 
L 228.797815 204.993827 
L 229.962414 202.706772 
L 230.843329 200.340852 
L 231.507748 198.862152 
L 233.306904 195.825889 
L 235.516656 192.365732 
L 237.338208 188.757704 
L 238.010092 187.387443 
L 239.54796 184.577913 
L 240.219845 183.109072 
L 243.504611 177.450581 
L 249.394795 166.665931 
L 250.880405 164.339444 
L 252.866196 160.475109 
L 253.493287 158.671095 
L 253.776972 156.778359 
L 254.030795 154.284286 
L 254.127845 149.039831 
L 254.851986 143.065884 
L 254.844521 142.030795 
L 254.463787 139.921183 
L 253.55301 137.18066 
L 252.477996 135.021758 
L 250.813217 132.123507 
L 250.529532 131.305293 
L 250.417552 130.477221 
L 252.283896 125.70595 
L 258.091961 116.69574 
L 259.25656 115.21704 
L 261.152766 113.107429 
L 263.481964 110.593639 
L 267.356495 106.423706 
L 268.341925 104.816852 
L 268.603213 104.254947 
L 268.991413 101.958033 
L 268.954086 100.203309 
L 268.812244 98.369722 
L 268.864502 95.678488 
L 269.110859 92.149325 
L 269.402009 89.66511 
L 269.827536 87.062598 
L 270.4173 84.637531 
L 270.917481 83.129257 
L 271.664019 81.768853 
L 273.052579 79.757822 
L 274.075336 78.574862 
L 274.709893 78.032672 
L 276.210434 77.184884 
L 279.756489 75.321723 
L 280.898692 74.414787 
L 281.637764 73.044525 
L 281.936379 72.265743 
L 282.085687 71.339092 
L 281.921449 70.41244 
L 281.294357 69.564652 
L 280.458235 68.874592 
L 279.502666 68.361976 
L 278.457513 68.036662 
L 277.397429 67.938082 
L 276.352276 68.016946 
L 275.34445 68.253538 
L 274.194782 68.726722 
L 272.641983 69.692806 
L 270.103755 71.516536 
L 269.192978 72.009436 
L 268.207548 72.315033 
L 267.222118 72.423471 
L 266.274015 72.344607 
L 265.385635 71.960146 
L 263.929887 70.46173 
L 263.459568 69.594226 
L 263.190814 68.716864 
L 263.11616 67.6522 
L 263.340122 66.745265 
L 264.131452 65.375003 
L 264.668959 64.724375 
L 265.900746 63.827297 
L 268.506164 60.653022 
L 270.872689 56.995705 
L 272.059684 54.481915 
L 273.463175 51.248492 
L 273.993217 49.543058 
L 274.120128 47.877057 
L 274.000682 46.211055 
L 273.843909 44.702781 
L 273.425848 44.002864 
L 271.671484 42.29743 
L 269.334821 40.158244 
L 266.550234 37.861331 
L 264.982505 36.836099 
L 263.40731 36.037601 
L 262.347226 35.495411 
L 258.450299 34.32231 
L 256.038982 34.22373 
L 253.306653 33.799836 
L 251.365655 33.23793 
L 250.044283 32.656308 
L 248.954337 32.4 
L 247.170112 32.705598 
L 246.25187 33.070344 
L 245.527729 33.809694 
L 244.348199 35.367257 
L 243.691246 36.767093 
L 243.153738 38.295083 
L 242.959638 41.134186 
L 243.228392 42.553738 
L 243.444888 42.908626 
L 244.07198 43.33252 
L 244.721468 43.746556 
L 245.475471 44.269029 
L 246.319059 44.466189 
L 247.700154 44.554911 
L 248.790099 44.140875 
L 249.245487 44.170449 
L 249.656083 44.328177 
L 250.163729 44.929515 
L 251.022247 45.629433 
L 251.843439 46.398357 
L 252.619838 46.940547 
L 253.291722 47.502453 
L 253.806833 48.133365 
L 254.045725 49.405046 
L 254.224895 51.741392 
L 254.045725 55.024105 
L 254.530975 56.660533 
L 255.471613 59.33205 
L 255.867278 60.978336 
L 255.867278 62.555616 
L 255.553732 64.162469 
L 255.105809 65.858045 
L 254.359271 67.60291 
L 253.485822 69.061894 
L 252.321223 70.471588 
L 250.940128 71.624974 
L 250.141333 72.157305 
L 246.572882 73.931745 
L 241.369513 75.469593 
L 240.585648 75.952635 
L 239.898833 76.780706 
L 238.965661 78.505856 
L 238.405758 79.343786 
L 237.420328 81.906865 
L 236.78577 83.385565 
L 235.89739 84.765685 
L 234.755187 85.889497 
L 233.448746 86.687994 
L 228.663439 88.48215 
L 224.983007 89.783406 
L 223.385416 90.769205 
L 222.437313 91.676141 
L 218.398543 96.792442 
L 217.45044 98.202136 
L 214.665854 105.31961 
L 213.628166 108.52346 
L 213.486324 109.124798 
L 212.12016 111.589297 
L 210.410588 114.08337 
L 209.499812 115.059312 
L 207.334852 116.961906 
L 206.043342 117.760404 
L 204.199393 118.726488 
L 203.646955 119.071517 
L 202.661525 120.017885 
L 201.877661 121.151555 
L 201.347619 122.383805 
L 200.369654 125.538364 
L 200.242743 126.849478 
L 200.257674 128.111301 
L 200.459239 130.674381 
L 200.37712 131.985495 
L 200.205416 133.267034 
L 199.623116 135.120338 
L 199.018421 136.135712 
L 198.331606 136.944068 
L 196.995303 138.107311 
L 195.56195 139.033963 
L 194.106202 139.595869 
L 193.038653 139.940899 
L 191.463458 140.650675 
L 189.895728 141.242155 
L 188.872971 141.557611 
L 186.991696 142.701138 
L 184.281764 144.76146 
L 180.967136 148.369487 
L 179.518852 150.281939 
L 178.175084 152.411266 
L 177.316565 153.850534 
L 175.980263 156.926229 
L 175.495013 158.533083 
L 175.188933 160.199085 
L 175.136675 163.442366 
L 175.300913 164.792912 
L 175.793628 166.685647 
L 177.077673 170.648562 
L 177.771954 172.492008 
L 178.645403 175.094519 
L 178.772314 176.376059 
L 178.675264 178.564535 
L 178.406511 179.855932 
L 176.211689 184.952517 
L 174.599168 187.328295 
L 172.822408 189.477338 
L 171.374124 190.906748 
L 169.918375 192.22772 
L 168.335715 193.440253 
L 166.096102 194.721793 
L 164.468649 195.806173 
L 163.5952 196.762399 
L 162.91585 197.827063 
L 160.564256 200.232414 
L 160.997248 198.980448 
L 162.467928 195.559723 
L 162.938247 194.317615 
L 163.035296 193.844431 
L 162.684424 186.411501 
L 162.348482 185.317263 
L 161.542221 183.779416 
L 159.705738 181.236052 
L 159.280211 180.762868 
L 158.735238 180.476986 
L 158.175335 180.388264 
L 157.637828 180.526276 
L 157.204836 180.812158 
L 156.29406 182.221852 
L 155.666968 183.434386 
L 155.226511 184.380753 
L 154.360527 185.741157 
L 153.770762 186.510081 
L 153.218324 187.535313 
L 152.128379 190.45328 
L 151.956675 191.103908 
L 151.389306 191.527802 
L 150.911522 191.705246 
L 149.657338 191.557376 
L 148.649512 190.74902 
L 147.596894 190.019528 
L 146.141145 189.201314 
L 144.06577 187.693041 
L 142.729467 186.963549 
L 142.221821 186.648093 
L 140.676488 185.376411 
L 139.511889 184.637061 
L 138.287567 184.065298 
L 137.563425 183.592114 
L 135.480585 183.000634 
L 134.763908 182.92177 
L 133.576913 182.566882 
L 129.881551 180.634714 
L 128.709486 180.368548 
L 127.671799 179.786926 
L 125.32767 178.091351 
L 122.505757 176.425349 
L 121.475534 176.001455 
L 120.094439 175.074803 
L 118.787998 174.286164 
L 117.287457 173.093346 
L 116.697692 172.304706 
L 115.338993 171.407628 
L 114.965724 171.220326 
L 114.166929 170.727426 
L 114.166929 170.727426 
" clip-path="url(#pb8cb301cee)" style="fill: none; stroke: #000000; stroke-width: 3"/>
   </g>
  </g>
 </g>
 <defs>
  <clipPath id="pb8cb301cee">
   <rect x="7.2" y="7.2" width="287.975482" height="554.4"/>
  </clipPath>
 </defs>
</svg>
