<?xml version="1.0" encoding="utf-8" standalone="no"?>
<!DOCTYPE svg PUBLIC "-//W3C//DTD SVG 1.1//EN"
  "http://www.w3.org/Graphics/SVG/1.1/DTD/svg11.dtd">
<svg xmlns:xlink="http://www.w3.org/1999/xlink" width="331.365144pt" height="568.8pt" viewBox="0 0 331.365144 568.8" xmlns="http://www.w3.org/2000/svg" version="1.1">
 <metadata>
  <rdf:RDF xmlns:dc="http://purl.org/dc/elements/1.1/" xmlns:cc="http://creativecommons.org/ns#" xmlns:rdf="http://www.w3.org/1999/02/22-rdf-syntax-ns#">
   <cc:Work>
    <dc:type rdf:resource="http://purl.org/dc/dcmitype/StillImage"/>
    <dc:date>2022-08-15T05:19:02.241044</dc:date>
    <dc:format>image/svg+xml</dc:format>
    <dc:creator>
     <cc:Agent>
      <dc:title>Matplotlib v3.5.3, https://matplotlib.org/</dc:title>
     </cc:Agent>
    </dc:creator>
   </cc:Work>
  </rdf:RDF>
 </metadata>
 <defs>
  <style type="text/css">*{stroke-linejoin: round; stroke-linecap: butt}</style>
 </defs>
 <g id="figure_1">
  <g id="patch_1">
   <path d="M 0 568.8 
L 331.365144 568.8 
L 331.365144 0 
L 0 0 
z
" style="fill: #ffffff"/>
  </g>
  <g id="axes_1">
   <g id="LineCollection_1">
    <path d="M 229.781021 86.437684 
L 232.038801 87.298189 
L 234.808655 89.541649 
L 237.182815 90.637769 
L 237.888856 90.904116 
L 240.767331 93.444655 
L 241.876825 94.182231 
L 243.017353 94.366625 
L 243.583737 94.294917 
L 244.538057 93.649538 
L 245.996691 92.030968 
L 246.469971 90.934848 
L 247.059632 89.080664 
L 247.804467 88.107474 
L 248.347575 88.230403 
L 248.906201 88.486506 
L 249.98466 89.582626 
L 251.303638 90.115319 
L 253.07262 90.678746 
L 257.215762 91.48803 
L 259.985616 92.276827 
L 262.902885 94.469066 
L 263.52358 94.571508 
L 264.136517 94.817366 
L 270.824511 100.328698 
L 272.934876 101.117494 
L 275.184897 101.578479 
L 278.645275 103.104852 
L 281.950478 104.702933 
L 284.704815 105.747832 
L 286.75311 106.86444 
L 290.190211 109.292295 
L 291.32298 110.562564 
L 291.695398 111.156723 
L 292.440232 113.031395 
L 292.804891 114.793382 
L 293.309206 117.344166 
L 293.720417 119.013956 
L 294.635943 121.411077 
L 295.489399 123.019403 
L 296.567858 124.453578 
L 297.762696 125.498478 
L 301.913598 129.04294 
L 302.379119 129.637098 
L 304.846384 133.857672 
L 305.288629 134.544027 
L 309.38522 139.399736 
L 309.734361 140.475367 
L 309.757637 141.141235 
L 309.56367 141.981252 
L 305.22656 149.95117 
L 304.520519 151.057534 
L 301.975667 157.060583 
L 301.789458 157.695717 
L 298.554083 163.647546 
L 295.993714 168.749113 
L 294.224732 171.945275 
L 293.751452 173.010663 
L 293.379034 173.440915 
L 292.370404 173.9019 
L 291.004874 175.540958 
L 289.825553 177.169772 
L 288.607438 179.423476 
L 287.443634 181.554251 
L 285.364304 186.246054 
L 284.906541 187.946576 
L 284.184982 189.421728 
L 283.4867 190.763707 
L 281.911685 193.673034 
L 281.213402 195.404289 
L 280.561672 197.115055 
L 279.44442 199.450712 
L 277.993544 201.181967 
L 277.388366 202.677607 
L 277.015949 203.466404 
L 276.426288 205.197658 
L 275.580591 206.631834 
L 274.959895 206.928913 
L 272.399526 211.661692 
L 271.033996 213.669538 
L 269.055529 217.541812 
L 267.798621 219.559902 
L 267.061545 220.912124 
L 265.471013 222.848261 
L 263.058059 227.52982 
L 262.313224 229.568398 
L 261.250283 231.186967 
L 260.862348 231.770882 
L 260.466655 233.071884 
L 259.233023 235.919746 
L 256.827828 240.222273 
L 256.4011 240.847164 
L 255.850232 241.441322 
L 255.012293 242.773056 
L 253.483831 245.754093 
L 252.133818 247.690229 
L 251.001049 249.01172 
L 250.093281 250.445895 
L 248.518267 252.935214 
L 247.765673 254.174752 
L 246.679456 255.434777 
L 246.252728 256.100644 
L 246.00445 256.797244 
L 244.344089 259.542666 
L 242.094068 263.630066 
L 240.394914 266.969646 
L 240.162153 267.666245 
L 238.416447 270.944361 
L 237.182815 273.413191 
L 236.050046 275.943487 
L 235.080209 277.500591 
L 234.544859 278.207435 
L 232.217251 282.3563 
L 231.542244 283.657302 
L 230.960342 285.009525 
L 230.184473 286.371991 
L 229.43188 287.652505 
L 228.927565 288.318372 
L 228.454284 289.43498 
L 227.251687 292.344308 
L 225.513739 295.54047 
L 224.574937 297.128307 
L 224.163727 297.640513 
L 223.690446 298.316624 
L 223.31027 298.65468 
L 222.728368 299.996658 
L 222.169742 301.441078 
L 221.836118 301.973772 
L 221.161112 302.803545 
L 217.724011 308.530003 
L 217.01797 310.886148 
L 216.529172 311.26518 
L 215.799855 312.494473 
L 215.210194 313.990114 
L 214.061907 316.643338 
L 213.340349 318.518011 
L 212.804999 319.019972 
L 212.114475 319.419492 
L 211.617919 320.064871 
L 210.151526 323.342987 
L 210.035145 324.039586 
L 209.065308 326.81574 
L 208.328232 329.274327 
L 207.885987 332.265607 
L 207.412707 332.562686 
L 206.954944 332.716348 
L 205.364411 335.277376 
L 203.517842 338.750129 
L 202.586799 339.938446 
L 201.500582 342.038489 
L 200.569539 344.240972 
L 199.886774 346.494677 
L 198.746246 348.225931 
L 198.412622 348.922531 
L 197.628994 351.452826 
L 197.225542 352.128938 
L 196.651398 353.470916 
L 195.138453 353.368475 
L 194.649655 353.839704 
L 193.866027 354.024098 
L 193.416023 354.567036 
L 193.191021 355.140706 
L 193.237573 356.083164 
L 192.135838 356.953914 
L 191.70911 357.496852 
L 190.281511 360.354958 
L 189.753919 360.918385 
L 188.225457 363.62283 
L 187.426311 364.923832 
L 187.0151 365.599943 
L 184.516801 368.509271 
L 183.469377 370.363455 
L 183.073684 370.752731 
L 181.475393 373.190829 
L 180.831422 374.502075 
L 180.272796 375.88503 
L 179.597789 377.370426 
L 179.023646 379.081193 
L 178.092603 383.629578 
L 177.27794 383.742263 
L 176.183964 384.541304 
L 174.438258 387.133064 
L 173.856356 388.352113 
L 173.615836 388.977004 
L 173.204625 389.642871 
L 172.009787 390.820944 
L 170.993398 392.070725 
L 170.101148 393.45368 
L 169.25545 396.076172 
L 168.549409 397.264489 
L 168.417511 397.961089 
L 167.253707 401.22896 
L 166.94336 401.843607 
L 166.035592 402.704112 
L 165.399379 403.82072 
L 165.04248 404.927084 
L 164.701097 406.084668 
L 164.227817 407.139812 
L 162.629526 408.983752 
L 161.574343 410.643298 
L 160.154502 412.497482 
L 159.564842 413.521893 
L 159.533807 413.66531 
L 159.192424 413.829216 
L 159.192424 413.829216 
L 158.261381 414.812651 
L 158.067414 415.263392 
L 157.283786 417.025379 
L 156.54671 418.551751 
L 155.778599 419.647871 
L 154.141515 422.219143 
L 153.443232 423.612342 
L 151.55787 428.283656 
L 151.076831 429.697343 
L 150.642344 430.670534 
L 149.548368 432.114954 
L 149.307848 432.668136 
L 147.670764 435.055013 
L 147.375934 435.577463 
L 147.259553 436.571142 
L 147.329382 440.125848 
L 147.026792 440.607321 
L 146.235406 441.42685 
L 145.529365 442.400041 
L 145.025049 442.820049 
L 144.194869 443.731775 
L 143.457793 444.459107 
L 141.215531 447.645025 
L 139.950864 448.710413 
L 139.19827 450.226541 
L 138.825853 451.291929 
L 138.492229 452.398293 
L 137.902568 453.709539 
L 136.692212 456.301299 
L 134.713745 461.116031 
L 133.937876 461.98678 
L 132.999074 463.0829 
L 132.238722 464.35317 
L 131.385266 466.330283 
L 131.043883 466.94493 
L 130.097322 468.010317 
L 128.824897 468.624964 
L 128.281788 468.96302 
L 127.443849 469.01424 
L 126.559358 470.940133 
L 129.329212 475.314368 
L 128.910242 475.990479 
L 128.382651 476.44122 
L 127.692127 476.799764 
L 127.125743 477.219773 
L 126.295563 478.213451 
L 125.744695 478.592484 
L 125.186069 479.995927 
L 124.813652 481.57352 
L 124.402441 482.229143 
L 123.890367 482.690128 
L 123.254155 482.987207 
L 122.648976 483.489168 
L 121.818796 484.5648 
L 121.229135 485.640432 
L 120.662751 486.705819 
L 120.057573 487.658522 
L 118.684284 491.131275 
L 118.575662 491.745922 
L 117.031682 495.136722 
L 116.721334 495.751369 
L 116.108397 496.417236 
L 114.680798 497.308474 
L 114.145448 497.247009 
L 113.873894 497.595309 
L 113.501476 498.332885 
L 113.129059 498.711917 
L 113.012679 499.203634 
L 112.104911 500.504636 
L 110.98766 502.430529 
L 110.227308 503.823728 
L 109.327299 505.134974 
L 108.737638 505.831574 
L 106.309167 510.267274 
L 106.05313 511.05607 
L 106.014337 512.090725 
L 105.005707 514.282965 
L 104.780704 515.000053 
L 103.989318 516.260078 
L 102.383268 519.138674 
L 101.909988 519.118185 
L 100.978945 519.394776 
L 100.366008 520.050399 
L 99.078065 521.761166 
L 98.558232 523.328515 
L 98.434093 524.281217 
L 98.139263 525.090502 
L 96.921148 527.077859 
L 95.609928 529.536446 
L 94.259916 532.066741 
L 93.142664 534.043855 
L 92.351277 535.385833 
L 91.815927 535.908283 
L 91.234025 536.287315 
L 90.535743 536.4 
L 89.930564 536.297559 
L 86.229668 534.248737 
L 84.344305 533.193593 
L 82.358079 531.995032 
L 71.984706 525.008549 
L 68.190704 523.031436 
L 65.180331 522.365568 
L 64.520842 522.068489 
L 63.527729 521.146519 
L 62.21651 520.419187 
L 60.827704 519.620147 
L 59.407863 518.800618 
L 56.599216 517.233269 
L 55.947485 516.751796 
L 53.588843 515.799093 
L 50.904334 515.399573 
L 47.552579 513.750271 
L 46.249118 512.715616 
L 45.52756 512.039505 
L 43.843923 511.035582 
L 43.230986 510.789723 
L 43.230986 510.789723 
L 42.773223 510.431179 
L 41.516315 509.816533 
L 39.025774 508.208207 
L 29.397235 503.782752 
L 26.060997 501.621244 
L 22.266996 499.254855 
L 21.840267 498.804114 
L 21.607507 498.240688 
L 21.894578 496.908953 
L 22.499756 494.870375 
L 24.517017 491.24396 
L 24.718743 490.158085 
L 25.432543 489.154162 
L 26.107549 488.099018 
L 26.953247 486.101417 
L 27.907566 484.585288 
L 29.754135 480.907653 
L 30.421383 479.852509 
L 32.33778 476.533417 
L 33.687793 474.453863 
L 37.055066 468.881067 
L 37.74559 467.487868 
L 38.63784 466.268818 
L 40.577513 462.714112 
L 40.903378 461.925316 
L 42.571497 459.333556 
L 43.937027 457.018387 
L 44.666345 456.106661 
L 45.031003 455.65592 
L 45.721527 454.231988 
L 46.29567 453.566121 
L 46.365499 452.89001 
L 46.326705 451.732425 
L 46.924125 450.513376 
L 47.343094 449.960194 
L 48.312931 449.161154 
L 49.236215 447.747466 
L 49.725013 446.78452 
L 50.392261 445.575715 
L 52.122449 443.598602 
L 52.758662 442.553702 
L 53.294012 441.508803 
L 53.945742 440.484392 
L 54.426781 439.214122 
L 55.738001 436.058936 
L 57.033703 434.235484 
L 58.732857 431.090542 
L 60.245802 428.806106 
L 60.416493 428.263168 
L 60.338906 427.597301 
L 60.463045 427.126072 
L 61.595815 425.927511 
L 61.975991 425.507502 
L 63.302727 422.352316 
L 63.977734 421.225464 
L 64.163942 420.559597 
L 64.163942 419.699091 
L 64.800155 418.316137 
L 65.645853 417.117576 
L 67.313972 415.222415 
L 67.601044 414.177516 
L 68.066565 413.757507 
L 68.074324 413.337499 
L 67.942426 412.579435 
L 67.826046 411.432094 
L 68.128635 409.188634 
L 68.594156 408.553499 
L 69.354508 407.764703 
L 70.301069 406.330527 
L 71.332975 405.162698 
L 72.232984 403.902673 
L 72.783851 403.359735 
L 73.776964 403.12412 
L 74.234727 402.396789 
L 75.033872 399.897226 
L 76.050261 397.9406 
L 76.546818 396.557645 
L 77.757174 394.539556 
L 77.943382 393.945397 
L 79.052876 392.173166 
L 80.177886 390.370203 
L 81.434795 388.239428 
L 81.791695 387.74771 
L 82.637392 387.040867 
L 83.040844 386.262314 
L 83.118431 385.883282 
L 83.397744 385.207171 
L 84.026198 384.336421 
L 84.988277 382.420773 
L 85.748628 380.505124 
L 88.378826 376.325527 
L 88.65038 375.424045 
L 88.689173 374.532808 
L 89.402973 373.324003 
L 91.73834 369.625879 
L 92.607314 367.372174 
L 93.934051 365.569211 
L 95.260787 362.834033 
L 95.850448 361.686693 
L 97.526326 359.248594 
L 99.365136 356.513417 
L 99.93928 355.960235 
L 100.156523 355.263635 
L 100.870323 353.204569 
L 101.444466 352.139182 
L 103.120344 349.926454 
L 103.446209 349.649863 
L 106.177269 344.78391 
L 107.286763 341.813118 
L 107.930734 340.481384 
L 109.079021 338.596467 
L 110.522138 336.906189 
L 113.501476 331.108023 
L 114.603211 328.239672 
L 116.162708 325.186927 
L 116.92306 324.008854 
L 116.954095 323.363475 
L 117.830828 322.421017 
L 117.838586 321.929299 
L 118.024795 321.386362 
L 118.366177 319.286319 
L 119.126529 318.077514 
L 120.07309 315.926251 
L 122.672252 311.685189 
L 123.952437 310.507116 
L 124.286061 310.29199 
L 124.697272 309.001232 
L 125.248139 307.720718 
L 127.358504 303.971373 
L 127.769714 303.4899 
L 128.886966 301.543519 
L 129.810251 299.832753 
L 130.927503 298.193695 
L 131.912857 296.175605 
L 135.761169 289.219854 
L 136.777558 287.19152 
L 137.47584 285.900762 
L 138.43016 283.985114 
L 141.044839 278.924523 
L 142.317265 276.230322 
L 142.891409 275.042005 
L 143.690554 274.140523 
L 144.862117 272.460489 
L 146.68541 268.639436 
L 147.422486 267.461363 
L 148.097492 267.102819 
L 151.340626 266.088652 
L 151.992357 265.637911 
L 152.783743 264.73643 
L 152.938917 264.285689 
L 152.969952 263.681286 
L 152.636328 262.349552 
L 152.32598 261.775882 
L 151.402696 260.802691 
L 150.19234 259.870477 
L 149.711301 259.173878 
L 149.431988 258.395325 
L 148.772499 255.16843 
L 148.70267 251.767386 
L 148.578531 250.322966 
L 148.625083 247.843891 
L 148.819051 242.895986 
L 148.260425 238.439798 
L 148.314736 237.056843 
L 147.965594 234.301177 
L 147.360416 231.729905 
L 147.375934 229.752792 
L 147.469038 227.642505 
L 147.127655 226.874197 
L 146.956964 226.402968 
L 146.794032 223.227293 
L 146.918171 220.891636 
L 147.259553 214.652973 
L 147.763868 212.7783 
L 147.965594 209.069932 
L 147.903525 204.224468 
L 147.919042 201.345873 
L 147.725075 197.914096 
L 147.802662 191.491038 
L 147.476797 189.462705 
L 147.600936 188.520246 
L 147.500073 186.440692 
L 147.771627 182.885985 
L 147.608694 175.633155 
L 147.663005 173.819948 
L 147.104379 167.734946 
L 147.306105 166.690047 
L 148.741464 164.129019 
L 149.88975 161.660188 
L 150.0682 160.523092 
L 151.255281 158.115726 
L 153.450991 154.018082 
L 154.956178 151.877063 
L 155.801875 151.037045 
L 155.801875 151.037045 
L 158.866559 147.103307 
L 158.998457 147.871615 
L 159.153631 147.390142 
L 159.890707 144.911067 
L 160.356228 144.398862 
L 161.248478 142.503701 
L 161.853656 141.223187 
L 163.467465 138.600695 
L 164.569199 135.834785 
L 166.105421 132.823017 
L 166.671805 131.952267 
L 167.35457 130.979077 
L 167.695953 130.477115 
L 168.277855 128.889278 
L 169.045966 127.506323 
L 169.651144 125.457501 
L 169.914939 124.699437 
L 170.527876 123.593073 
L 170.760637 123.029647 
L 170.869259 122.394512 
L 173.23566 117.518315 
L 174.298601 116.002187 
L 176.796901 111.976252 
L 177.921911 110.439635 
L 178.558124 109.333271 
L 179.512444 107.468843 
L 181.413324 103.914136 
L 181.840052 102.920458 
L 182.235745 101.773117 
L 182.91851 100.574556 
L 183.973693 98.699884 
L 184.982323 96.958385 
L 187.503898 92.573906 
L 192.06601 84.296665 
L 192.415151 83.845924 
L 192.84188 83.507868 
L 193.78844 83.384939 
L 194.735001 83.702506 
L 195.666044 85.013752 
L 196.255705 85.751328 
L 197.039333 86.447928 
L 197.349681 86.550369 
L 197.349681 86.550369 
L 197.791926 86.181581 
L 197.791926 86.181581 
L 196.379844 85.546446 
L 195.029831 84.511791 
L 194.083271 84.183979 
L 193.664301 83.845924 
L 193.49361 83.548844 
L 193.749647 82.503945 
L 194.936727 80.158044 
L 195.619492 78.437033 
L 196.271222 77.576528 
L 198.117791 74.032066 
L 199.025559 72.331543 
L 202.385073 66.287518 
L 202.943699 65.304083 
L 203.874742 64.453822 
L 203.991123 64.627972 
L 203.735086 64.812366 
L 203.595429 64.750901 
L 203.874742 64.42309 
L 204.216125 62.568906 
L 204.929925 61.052777 
L 206.117005 58.829805 
L 207.249774 56.545369 
L 208.142024 55.018996 
L 208.405819 54.035562 
L 208.848065 53.277498 
L 211.237743 51.361849 
L 211.819645 50.081335 
L 212.052406 49.425712 
L 213.379142 47.960804 
L 218.181774 39.243066 
L 219.252473 38.15719 
L 219.733512 37.767914 
L 220.214551 37.829379 
L 221.300769 38.33134 
L 223.752516 39.396728 
L 224.249072 39.519657 
L 225.824087 40.472359 
L 227.624104 42.19337 
L 228.772391 42.879725 
L 230.781892 44.242192 
L 231.394829 44.508539 
L 232.263803 45.215382 
L 232.775877 45.287091 
L 234.405202 46.024667 
L 236.849191 47.438354 
L 237.539715 48.165686 
L 238.455241 49.026192 
L 238.944038 49.128633 
L 239.425077 49.087656 
L 239.820771 48.862286 
L 240.371638 48.063245 
L 240.961299 46.792975 
L 241.519925 46.413943 
L 242.38114 45.420265 
L 242.644935 44.856839 
L 242.885455 43.781207 
L 243.226837 42.838749 
L 244.63892 40.308453 
L 245.135476 39.294286 
L 245.663067 38.997207 
L 246.322556 38.782081 
L 246.811354 37.778158 
L 246.989804 37.23522 
L 248.068262 35.176154 
L 249.340688 32.963426 
L 249.635518 32.4 
L 249.635518 32.4 
L 250.985531 34.100522 
L 250.791564 34.202963 
L 250.582079 34.899563 
L 250.108799 35.360548 
L 248.960512 37.071314 
L 247.176013 39.519657 
L 245.663067 42.19337 
L 244.81737 43.473884 
L 244.21995 44.590492 
L 243.265631 47.294937 
L 242.435451 49.026192 
L 241.589753 50.54232 
L 241.240612 50.993061 
L 240.650951 51.372093 
L 239.130247 53.564333 
L 236.647465 57.754174 
L 234.987105 60.468863 
L 234.032785 62.743056 
L 233.101742 64.47431 
L 232.209492 65.754824 
L 232.147423 65.621651 
L 232.069836 65.560186 
L 232.069836 65.560186 
L 227.763761 66.348983 
L 227.981004 64.812366 
L 227.445654 64.679193 
L 228.811184 67.291441 
L 230.099127 68.602687 
L 228.524113 69.924177 
L 228.151695 70.477359 
L 227.624104 70.989565 
L 226.925822 71.368597 
L 226.328402 71.880802 
L 225.490463 73.007655 
L 225.327531 73.960357 
L 225.994778 75.619903 
L 225.855122 76.726267 
L 225.544774 77.668725 
L 224.427522 80.086335 
L 223.861138 80.629273 
L 222.759403 82.288819 
L 222.588712 83.13908 
L 222.666299 83.83568 
L 222.992164 84.183979 
L 224.481833 84.921555 
L 225.537015 85.474737 
L 226.553404 86.140604 
L 228.555147 86.622078 
L 229.160325 87.246968 
L 229.160325 87.246968 
" clip-path="url(#pb5f1a12517)" style="fill: none; stroke: #000000; stroke-width: 3"/>
   </g>
  </g>
 </g>
 <defs>
  <clipPath id="pb5f1a12517">
   <rect x="7.2" y="7.2" width="316.965144" height="554.4"/>
  </clipPath>
 </defs>
</svg>
