<?xml version="1.0" encoding="utf-8" standalone="no"?>
<!DOCTYPE svg PUBLIC "-//W3C//DTD SVG 1.1//EN"
  "http://www.w3.org/Graphics/SVG/1.1/DTD/svg11.dtd">
<svg xmlns:xlink="http://www.w3.org/1999/xlink" width="304.19802pt" height="568.8pt" viewBox="0 0 304.19802 568.8" xmlns="http://www.w3.org/2000/svg" version="1.1">
 <metadata>
  <rdf:RDF xmlns:dc="http://purl.org/dc/elements/1.1/" xmlns:cc="http://creativecommons.org/ns#" xmlns:rdf="http://www.w3.org/1999/02/22-rdf-syntax-ns#">
   <cc:Work>
    <dc:type rdf:resource="http://purl.org/dc/dcmitype/StillImage"/>
    <dc:date>2022-08-18T05:16:33.005198</dc:date>
    <dc:format>image/svg+xml</dc:format>
    <dc:creator>
     <cc:Agent>
      <dc:title>Matplotlib v3.5.3, https://matplotlib.org/</dc:title>
     </cc:Agent>
    </dc:creator>
   </cc:Work>
  </rdf:RDF>
 </metadata>
 <defs>
  <style type="text/css">*{stroke-linejoin: round; stroke-linecap: butt}</style>
 </defs>
 <g id="figure_1">
  <g id="patch_1">
   <path d="M -0 568.8 
L 304.19802 568.8 
L 304.19802 0 
L -0 0 
z
" style="fill: #ffffff"/>
  </g>
  <g id="axes_1">
   <g id="LineCollection_1">
    <path d="M 195.640298 196.42197 
L 195.710175 196.473233 
L 196.183788 196.955108 
L 196.905853 197.477993 
L 199.871754 198.89286 
L 201.843845 199.918125 
L 202.92306 201.025412 
L 203.769351 202.512047 
L 205.617216 206.623361 
L 206.129649 208.079238 
L 206.315988 209.073746 
L 206.401394 210.191285 
L 206.906063 212.518638 
L 208.505476 214.907506 
L 210.31452 216.77349 
L 213.039732 219.562212 
L 214.111183 220.690004 
L 217.263424 225.795826 
L 219.351977 228.174442 
L 220.384607 229.291981 
L 220.602003 229.75335 
L 220.726229 230.512047 
L 220.501069 231.803881 
L 219.476203 233.680117 
L 218.536742 235.094984 
L 217.861262 236.622629 
L 217.022735 238.560381 
L 216.028926 240.231564 
L 213.086317 246.844526 
L 210.073831 251.386452 
L 209.553634 252.545002 
L 208.784984 254.73907 
L 206.323753 258.635079 
L 205.135839 260.593336 
L 204.654463 261.505822 
L 204.561293 261.280264 
L 204.064388 261.475064 
L 203.567483 262.110729 
L 201.727383 265.422336 
L 200.80345 267.144782 
L 200.166791 268.744196 
L 198.334454 272.035298 
L 196.703985 274.413914 
L 193.528452 280.206664 
L 189.762845 288.654852 
L 185.98171 296.252069 
L 185.508097 296.846723 
L 180.360474 306.627755 
L 176.004792 314.306994 
L 175.267199 315.926913 
L 174.009408 317.874918 
L 173.582381 318.69513 
L 173.108768 318.859172 
L 168.031022 327.317613 
L 166.78876 329.542439 
L 164.57598 333.499963 
L 161.936173 339.220945 
L 160.538628 341.394508 
L 160.018431 342.132699 
L 159.296366 343.670597 
L 158.310321 345.0342 
L 156.617738 348.366313 
L 155.47641 350.375833 
L 154.606827 351.688173 
L 150.546182 359.152105 
L 149.831881 360.607982 
L 149.008883 362.504724 
L 148.325639 363.960601 
L 147.991781 364.750055 
L 147.129961 365.980373 
L 146.237085 367.272208 
L 143.193543 372.839399 
L 142.471478 374.418308 
L 140.033539 378.837202 
L 139.458992 379.882973 
L 138.17791 383.297107 
L 138.022627 383.440644 
L 137.696533 384.045551 
L 136.982232 385.091322 
L 134.854858 388.690004 
L 134.008567 389.4487 
L 133.705766 389.899817 
L 132.579966 392.391212 
L 132.642079 392.134896 
L 132.952644 391.41721 
L 133.193333 390.976346 
L 133.410729 390.822556 
L 133.35638 391.06862 
L 131.764731 393.211424 
L 131.500751 393.642036 
L 131.291119 394.072647 
L 131.097015 394.944123 
L 129.56748 398.296741 
L 129.047283 399.660344 
L 129.047283 399.137459 
L 129.155981 399.588576 
L 129.187037 399.619334 
L 128.938585 399.229733 
L 128.589199 398.819627 
L 128.395095 398.655584 
L 128.030181 399.311754 
L 126.966494 400.37803 
L 126.291014 401.772391 
L 126.089146 402.059465 
L 125.895043 401.956939 
L 125.825165 401.423801 
L 126.159023 400.849652 
L 126.586051 400.490809 
L 126.764626 400.131966 
L 126.391947 399.598828 
L 126.360891 399.41428 
L 125.126393 400.439546 
L 124.83912 400.665104 
L 124.155876 401.762138 
L 123.348405 403.125741 
L 121.59371 408.200806 
L 120.11076 410.271842 
L 118.472526 411.440644 
L 117.967857 411.717466 
L 117.098274 412.342878 
L 116.236454 413.62446 
L 115.848248 414.003808 
L 113.449129 417.766532 
L 113.418072 418.135628 
L 113.317138 418.053607 
L 112.455319 417.992091 
L 112.191338 418.022849 
L 111.873009 419.540242 
L 112.447555 419.376199 
L 112.610602 419.909337 
L 112.680479 419.929843 
L 112.773649 419.755547 
L 110.444407 422.534017 
L 106.484697 427.332259 
L 104.730001 428.952179 
L 104.318502 429.598096 
L 103.705135 430.131234 
L 103.184938 430.828415 
L 102.765674 431.751153 
L 102.253241 432.458587 
L 101.476827 436.241816 
L 99.683311 439.563676 
L 98.580804 442.32164 
L 98.184833 443.603222 
L 95.467384 449.980373 
L 93.642812 454.778616 
L 92.641238 456.090956 
L 92.819813 455.793629 
L 91.802711 457.946686 
L 87.959462 466.548663 
L 86.04172 469.644965 
L 83.068055 473.499963 
L 82.237292 474.884072 
L 81.499699 476.442475 
L 80.839747 478.134163 
L 78.417336 485.628854 
L 78.083478 486.377298 
L 75.730944 496.086562 
L 70.924943 503.468473 
L 69.0072 506.410985 
L 67.112751 511.229733 
L 66.087884 508.492274 
L 66.064592 508.266715 
L 65.808375 508.061662 
L 65.761791 507.846357 
L 65.761791 508.471769 
L 65.979186 508.030904 
L 66.359629 507.641304 
L 67.1671 507.43625 
L 67.174864 507.210692 
L 66.406214 506.462248 
L 66.429506 506.216185 
L 66.84877 505.744562 
L 66.825477 504.760308 
L 67.865872 502.084365 
L 68.021155 501.007836 
L 67.718353 500.690004 
L 67.664004 500.331161 
L 66.196582 499.613475 
L 65.443461 500.587477 
L 64.977613 500.761772 
L 64.496236 501.171878 
L 63.69653 502.586745 
L 62.524145 505.365214 
L 60.218196 509.948151 
L 59.061339 512.542073 
L 51.57671 520.272574 
L 49.985061 523.379129 
L 49.200883 525.737239 
L 48.339064 529.766532 
L 46.762944 534.872354 
L 46.11852 535.477261 
L 45.53621 535.856609 
L 44.969428 536.09242 
L 44.31724 536.010399 
L 43.602939 535.764335 
L 42.83429 535.713072 
L 41.079594 535.989894 
L 39.146324 536.4 
L 37.24411 534.728817 
L 36.894724 533.908605 
L 36.615215 525.747492 
L 34.192804 528.29015 
L 34.22386 527.900549 
L 34.084106 527.018821 
L 27.127438 523.61494 
L 25.939525 522.774222 
L 25.069941 522.487148 
L 23.649104 521.308092 
L 23.043501 520.918491 
L 22.989152 520.846723 
L 22.763992 521.923252 
L 21.708069 525.029806 
L 21.599371 525.327133 
L 21.086938 525.634713 
L 20.722023 525.573197 
L 20.512392 526.270377 
L 20.644382 526.055071 
L 21.211164 524.865763 
L 20.372637 527.172611 
L 21.218928 527.98257 
L 22.057455 527.664738 
L 23.439472 525.952545 
L 24.487631 524.209594 
L 25.248516 523.50216 
L 25.830827 523.327865 
L 26.203505 522.681948 
L 26.715938 521.431124 
L 27.236136 520.457122 
L 27.787389 518.796192 
L 28.090191 517.227536 
L 28.548275 516.735408 
L 29.751716 514.285024 
L 31.366657 511.506554 
L 31.731572 510.850384 
L 32.709853 510.163457 
L 33.284399 510.296741 
L 33.462975 510.06093 
L 33.657078 509.486781 
L 34.029757 509.322739 
L 34.697473 509.415013 
L 34.961453 509.435518 
L 35.341896 509.343244 
L 35.745631 508.851117 
L 36.312413 507.600293 
L 39.550059 498.167851 
L 41.188292 494.261589 
L 41.879301 492.498133 
L 42.733356 489.770926 
L 43.121563 486.859172 
L 43.750458 485.864665 
L 47.314198 481.497034 
L 48.020734 480.287221 
L 48.455526 479.672062 
L 48.882554 479.54903 
L 49.208647 478.882607 
L 50.000589 477.549762 
L 50.559607 476.545002 
L 51.700936 474.966093 
L 52.073614 474.781545 
L 53.463395 473.694764 
L 53.975828 473.387184 
L 54.496026 473.335921 
L 55.451015 472.454193 
L 55.878042 473.387184 
L 55.614062 472.905309 
L 55.055044 472.218382 
L 55.039515 471.716001 
L 55.202562 471.48019 
L 56.250721 471.234127 
L 57.128069 469.962798 
L 57.376521 469.665471 
L 57.632738 469.152838 
L 57.601681 467.943025 
L 57.609445 467.96353 
L 58.347038 468.722226 
L 59.410725 468.845258 
L 59.620357 468.722226 
L 59.938687 466.333358 
L 60.055149 466.374368 
L 60.13279 466.630685 
L 59.806696 466.230831 
L 59.573772 466.14881 
L 59.449546 465.379861 
L 59.68247 464.887733 
L 60.932496 464.241816 
L 61.274118 464.118784 
L 61.677854 463.052508 
L 61.67009 461.083999 
L 62.594022 461.31981 
L 62.989993 461.893958 
L 63.005521 462.119517 
L 62.741541 461.82219 
L 63.370436 460.520103 
L 65.016433 459.65888 
L 62.83471 458.079971 
L 63.168568 457.792896 
L 63.875105 457.464811 
L 64.511764 457.874918 
L 65.039726 457.946686 
L 65.319235 457.833907 
L 65.04749 458.008202 
L 64.938792 458.828415 
L 64.271076 459.65888 
L 59.713527 460.50985 
L 59.566008 460.407323 
L 58.921585 460.612376 
L 58.486793 461.309557 
L 58.215048 461.883706 
L 58.393623 460.930209 
L 58.642076 459.986964 
L 58.929349 459.392311 
L 60.691808 457.403295 
L 61.80208 456.665104 
L 62.578494 455.906408 
L 63.238446 454.860637 
L 64.573877 452.153936 
L 67.850344 447.488978 
L 68.681107 446.525229 
L 70.09418 444.525961 
L 70.893886 443.541706 
L 71.57713 443.398169 
L 72.765043 442.454925 
L 73.836494 441.829513 
L 74.364456 441.480923 
L 75.692124 439.563676 
L 76.740282 437.677188 
L 78.005837 434.539876 
L 83.355328 423.784841 
L 84.411251 421.38572 
L 86.290173 418.186891 
L 87.346095 416.618235 
L 90.839958 409.738704 
L 92.276323 407.585646 
L 94.178537 403.884438 
L 104.046757 382.384621 
L 108.169515 373.905676 
L 108.340326 371.691102 
L 108.293741 371.342512 
L 108.340326 370.747858 
L 107.905534 369.199707 
L 107.649317 368.943391 
L 107.26111 368.820359 
L 106.709857 367.384987 
L 106.267301 366.985134 
L 106.22848 365.416477 
L 105.700519 364.832076 
L 105.374425 364.750055 
L 104.768822 363.683779 
L 103.324692 361.223142 
L 102.594863 359.418674 
L 102.618156 358.78301 
L 102.905429 357.532186 
L 103.161645 357.081069 
L 103.278107 357.583449 
L 103.650786 357.685976 
L 104.768822 356.701721 
L 105.335604 356.496668 
L 107.408629 353.738704 
L 108.185043 352.098279 
L 110.032908 347.710143 
L 110.941312 346.090223 
L 111.95065 344.111461 
L 112.967752 342.071183 
L 114.241071 340.010399 
L 118.270659 335.283925 
L 119.326582 334.432955 
L 119.854543 334.145881 
L 120.817296 333.971585 
L 121.849927 334.10487 
L 124.637252 334.340681 
L 126.127967 334.586745 
L 129.078339 336.165654 
L 130.965025 337.057635 
L 134.847094 339.036397 
L 137.153043 339.210692 
L 138.542824 338.687807 
L 139.195012 338.2777 
L 140.577028 337.570267 
L 144.140768 334.586745 
L 144.979295 333.212889 
L 146.019689 331.367411 
L 147.751092 326.948517 
L 149.265099 324.938997 
L 152.153359 322.683413 
L 154.878571 321.063493 
L 158.791697 318.120981 
L 159.700101 317.239253 
L 160.119365 316.716368 
L 160.825901 315.301501 
L 162.200154 311.569535 
L 162.619417 310.328964 
L 162.976568 309.877847 
L 163.41136 308.391212 
L 163.714161 306.966093 
L 163.698633 305.346174 
L 163.496765 303.59297 
L 162.852342 301.614207 
L 162.029343 299.789235 
L 161.245165 298.14881 
L 160.732732 296.323837 
L 160.678383 294.898718 
L 160.74826 293.986232 
L 161.33057 292.120249 
L 161.718777 291.218015 
L 162.7747 289.53658 
L 166.012346 285.507287 
L 167.557409 284.287221 
L 170.026405 282.687807 
L 172.340119 281.488246 
L 174.118106 280.063127 
L 174.615011 279.355694 
L 175.018746 278.586745 
L 175.787396 276.720762 
L 175.841745 275.972318 
L 175.577764 273.409154 
L 175.430246 270.774222 
L 175.872802 269.451629 
L 176.408527 268.159795 
L 178.000176 262.531088 
L 178.652363 259.465544 
L 179.871333 255.600293 
L 180.181899 254.472501 
L 180.903963 253.211424 
L 182.254923 250.074112 
L 183.295318 248.382424 
L 185.150947 246.157598 
L 186.921171 244.414647 
L 188.489527 243.020286 
L 189.607563 241.830978 
L 191.106041 239.995752 
L 193.194595 236.837935 
L 194.227225 234.88993 
L 195.485015 231.824387 
L 196.137203 229.86613 
L 197.627918 226.43149 
L 198.637256 224.750055 
L 199.421434 223.601758 
L 200.190083 222.443208 
L 202.6979 219.869791 
L 205.997659 217.675723 
L 207.418496 217.111827 
L 211.044349 215.850751 
L 212.56612 215.563676 
L 214.157768 215.625192 
L 217.170254 216.383889 
L 219.406326 216.927279 
L 220.935861 217.183596 
L 221.704511 217.204101 
L 222.43434 217.060564 
L 223.893998 216.578689 
L 224.662648 216.383889 
L 225.408005 216.066056 
L 227.690662 213.95401 
L 229.654989 210.611644 
L 231.21558 207.617869 
L 233.808803 202.255731 
L 234.499811 200.676822 
L 237.38807 195.929843 
L 238.746795 193.223142 
L 240.268566 190.28063 
L 248.420911 175.803881 
L 250.23772 172.194947 
L 251.107303 170.605785 
L 253.42878 165.899817 
L 254.935023 162.024313 
L 255.315466 160.373636 
L 255.486277 157.779714 
L 255.517334 152.489345 
L 255.711437 150.520835 
L 256.425738 146.819627 
L 256.417974 145.066423 
L 256.138465 143.477261 
L 255.571683 141.898352 
L 254.391534 139.550494 
L 253.591827 138.207397 
L 253.017281 136.63874 
L 252.636838 134.875284 
L 252.636838 133.16309 
L 252.885291 131.450897 
L 253.087158 130.538411 
L 253.97227 128.856975 
L 255.478513 126.263054 
L 256.907114 123.669132 
L 259.453752 119.998682 
L 260.983287 118.173709 
L 263.599802 115.405492 
L 265.144865 113.959868 
L 269.648066 108.761772 
L 270.370131 107.213621 
L 270.8748 105.716734 
L 271.09996 104.219846 
L 270.999026 102.610179 
L 270.634111 99.370341 
L 270.657404 97.658147 
L 270.921384 96.345807 
L 271.55028 90.87089 
L 271.736619 90.153204 
L 272.023892 86.595533 
L 272.48974 85.221677 
L 273.196277 83.786305 
L 274.51618 81.858806 
L 276.426158 79.716001 
L 278.367193 78.383156 
L 280.510095 77.16309 
L 281.899876 76.599194 
L 282.971327 75.553424 
L 283.359534 74.84599 
L 283.654571 73.974515 
L 283.817618 73.041523 
L 283.825382 72.067521 
L 283.646807 71.237056 
L 283.289657 70.416844 
L 282.792752 69.647895 
L 280.890538 67.843427 
L 280.059775 67.597364 
L 279.120315 67.628122 
L 278.165325 67.904943 
L 277.233629 68.366313 
L 276.364045 68.930209 
L 273.980455 70.98074 
L 272.35775 72.405859 
L 270.478828 73.082534 
L 269.477255 73.123544 
L 268.491209 73.010765 
L 267.551748 72.733944 
L 266.697693 72.33409 
L 266.029977 71.749689 
L 265.129337 70.160527 
L 264.942998 69.330062 
L 265.152629 67.556353 
L 265.502016 66.951446 
L 266.666636 65.864665 
L 267.365409 65.331527 
L 268.863888 63.752618 
L 270.269197 61.958404 
L 271.472638 60.2052 
L 273.452493 56.61677 
L 274.415247 54.750787 
L 275.346943 52.854046 
L 275.73515 51.828781 
L 276.162178 49.532186 
L 276.208763 45.656683 
L 275.339179 44.446869 
L 274.182322 42.67316 
L 273.16522 41.453094 
L 270.408951 38.643867 
L 268.700841 37.505822 
L 266.961674 36.480557 
L 265.703883 35.916661 
L 265.090516 35.506554 
L 263.770613 34.963164 
L 262.373068 34.471036 
L 261.185155 34.501794 
L 257.528246 33.948151 
L 256.355861 33.661077 
L 254.593401 33.353497 
L 254.057676 33.158696 
L 252.007943 32.871622 
L 250.113493 32.4 
L 248.762533 32.492274 
L 247.768724 32.892127 
L 246.526461 33.804614 
L 245.889802 34.36851 
L 245.043511 35.660344 
L 244.670832 36.57283 
L 244.135107 38.807909 
L 243.941003 40.489345 
L 244.041937 41.381326 
L 244.399087 42.714171 
L 245.00469 43.749689 
L 246.021792 44.867228 
L 246.875848 45.451629 
L 250.167842 46.866496 
L 252.233103 47.532918 
L 252.823178 47.512413 
L 253.312318 47.348371 
L 253.700525 47.584182 
L 254.026619 47.932772 
L 254.399298 48.096814 
L 255.074778 49.480923 
L 255.408636 50.28063 
L 255.695909 52.669498 
L 255.858956 56.145148 
L 255.967654 56.862834 
L 257.209916 60.143684 
L 257.458368 62.265983 
L 257.326378 64.07045 
L 256.821709 65.88517 
L 256.115172 67.587111 
L 255.222296 69.042988 
L 252.520376 72.364848 
L 251.790547 72.887733 
L 250.020324 73.379861 
L 247.248526 74.661443 
L 244.492257 75.727719 
L 242.722034 76.517173 
L 241.937856 77.132332 
L 239.934708 79.213621 
L 239.453331 79.972318 
L 238.70021 81.684511 
L 237.729693 84.698792 
L 237.131854 85.42673 
L 236.106988 87.005639 
L 235.524677 87.569535 
L 234.903546 88.010399 
L 233.436124 88.687074 
L 231.953174 89.312486 
L 230.493516 89.876382 
L 229.158084 90.378762 
L 227.364568 90.932406 
L 226.153362 91.598828 
L 224.429723 92.439546 
L 223.404857 93.34178 
L 220.67188 96.325302 
L 219.810061 97.473599 
L 218.327111 99.872721 
L 213.994721 109.60249 
L 212.713639 112.801318 
L 210.842481 116.123178 
L 209.965134 117.168949 
L 207.892109 119.075943 
L 206.044244 120.265251 
L 203.536427 121.567338 
L 202.977409 121.997949 
L 202.030184 123.074478 
L 201.362468 124.253534 
L 200.500649 126.191285 
L 199.623301 128.877481 
L 199.460254 130.128305 
L 199.475783 131.522666 
L 199.879518 135.664738 
L 199.646594 136.956573 
L 199.149689 138.115123 
L 198.590671 139.41721 
L 197.441578 141.026877 
L 196.16826 142.380227 
L 195.655826 142.769828 
L 189.786138 144.830611 
L 187.029869 145.978909 
L 186.020531 146.624826 
L 184.53758 147.711607 
L 183.09345 149.044453 
L 180.764209 151.525595 
L 179.731578 152.714903 
L 177.309167 156.1803 
L 175.616585 159.276602 
L 174.863464 160.937532 
L 174.257861 162.659978 
L 173.760956 165.305163 
L 173.63673 167.868327 
L 173.760956 169.365214 
L 174.141399 170.728817 
L 175.026511 173.640571 
L 176.47064 178.418308 
L 177.029658 180.366313 
L 177.223762 181.965727 
L 177.177177 183.401098 
L 176.78897 185.103039 
L 174.094814 190.116587 
L 173.310636 191.398169 
L 171.672403 194.525229 
L 170.717414 195.745295 
L 167.50306 198.441743 
L 166.540307 199.272208 
L 164.855489 200.266715 
L 163.721925 200.922885 
L 161.672193 202.604321 
L 160.849194 203.72186 
L 159.956318 204.818894 
L 159.04015 205.782644 
L 158.162802 206.397803 
L 159.257545 204.285756 
L 160.057252 202.255731 
L 160.849194 198.544269 
L 161.10541 193.848554 
L 160.84143 191.695496 
L 160.375581 190.331893 
L 159.187668 187.953277 
L 158.061868 186.671695 
L 157.106879 185.99502 
L 156.609974 185.80022 
L 156.074249 185.748956 
L 155.585108 185.851483 
L 154.676704 186.425632 
L 154.304025 186.897254 
L 153.706186 188.148078 
L 153.178225 189.398902 
L 152.308642 191.049579 
L 151.974784 191.490443 
L 151.734095 192.044086 
L 151.027559 193.151373 
L 150.282201 195.181399 
L 149.855174 197.283193 
L 150.274437 198.164921 
L 147.914139 198.605785 
L 147.238659 198.328964 
L 146.570943 197.642036 
L 144.676493 196.606518 
L 143.480816 196.063127 
L 138.40307 193.171878 
L 137.486901 192.279897 
L 136.570733 191.428927 
L 135.646801 190.772757 
L 134.70734 190.198609 
L 134.241491 189.911534 
L 133.612596 189.860271 
L 131.78026 189.306628 
L 130.833035 188.322373 
L 129.272443 187.584182 
L 123.71332 184.774954 
L 121.135626 183.032003 
L 114.411882 179.576858 
L 114.124609 179.300037 
L 110.646275 177.413548 
L 109.753399 176.419041 
L 109.442833 176.172977 
L 109.753399 176.388283 
" clip-path="url(#p413ff83708)" style="fill: none; stroke: #000000; stroke-width: 3"/>
   </g>
  </g>
 </g>
 <defs>
  <clipPath id="p413ff83708">
   <rect x="7.2" y="7.2" width="289.79802" height="554.4"/>
  </clipPath>
 </defs>
</svg>
