<?xml version="1.0" encoding="utf-8" standalone="no"?>
<!DOCTYPE svg PUBLIC "-//W3C//DTD SVG 1.1//EN"
  "http://www.w3.org/Graphics/SVG/1.1/DTD/svg11.dtd">
<svg xmlns:xlink="http://www.w3.org/1999/xlink" width="407.77466pt" height="568.8pt" viewBox="0 0 407.77466 568.8" xmlns="http://www.w3.org/2000/svg" version="1.1">
 <metadata>
  <rdf:RDF xmlns:dc="http://purl.org/dc/elements/1.1/" xmlns:cc="http://creativecommons.org/ns#" xmlns:rdf="http://www.w3.org/1999/02/22-rdf-syntax-ns#">
   <cc:Work>
    <dc:type rdf:resource="http://purl.org/dc/dcmitype/StillImage"/>
    <dc:date>2022-08-21T05:05:21.223392</dc:date>
    <dc:format>image/svg+xml</dc:format>
    <dc:creator>
     <cc:Agent>
      <dc:title>Matplotlib v3.5.3, https://matplotlib.org/</dc:title>
     </cc:Agent>
    </dc:creator>
   </cc:Work>
  </rdf:RDF>
 </metadata>
 <defs>
  <style type="text/css">*{stroke-linejoin: round; stroke-linecap: butt}</style>
 </defs>
 <g id="figure_1">
  <g id="patch_1">
   <path d="M 0 568.8 
L 407.77466 568.8 
L 407.77466 0 
L 0 0 
z
" style="fill: #ffffff"/>
  </g>
  <g id="axes_1">
   <g id="LineCollection_1">
    <path d="M 42.247785 447.308811 
L 42.835413 447.197932 
L 43.569947 446.920735 
L 44.451388 446.837576 
L 45.33283 447.003894 
L 46.193284 447.44741 
L 48.648728 449.470949 
L 51.251078 451.827126 
L 52.678174 452.991354 
L 54.92375 455.181212 
L 56.203939 456.206842 
L 58.113728 457.177032 
L 67.221955 459.754966 
L 68.124383 460.059883 
L 69.089771 460.558838 
L 69.971212 460.697437 
L 71.125481 461.251831 
L 74.084605 463.968364 
L 77.04373 467.599648 
L 77.757277 468.625278 
L 78.218985 469.761786 
L 79.121413 470.537939 
L 80.086801 470.953734 
L 80.968242 471.120053 
L 82.038564 470.731977 
L 82.857045 469.983544 
L 85.396435 465.991904 
L 86.088996 464.966274 
L 86.550704 463.44169 
L 87.033398 462.526939 
L 87.369185 461.39043 
L 87.830892 460.42024 
L 88.85924 458.618458 
L 89.950549 455.846486 
L 92.531912 451.882565 
L 93.896048 448.861115 
L 94.693542 445.340711 
L 95.092289 443.095413 
L 95.742877 439.40869 
L 95.742877 438.466219 
L 95.21821 435.666527 
L 94.609595 434.696337 
L 94.063941 432.949995 
L 93.770128 430.760136 
L 93.455327 429.623628 
L 92.573886 427.267451 
L 91.776391 424.938995 
L 90.83199 423.35897 
L 88.48148 420.614718 
L 87.662999 418.923815 
L 87.264251 417.981344 
L 86.907477 416.844836 
L 86.69761 415.015334 
L 86.047023 413.158112 
L 85.501369 410.330701 
L 84.934728 407.253811 
L 84.871768 406.200462 
L 84.661901 405.091673 
L 84.871768 397.912265 
L 85.249528 394.641338 
L 85.396435 393.44939 
L 86.44577 389.707227 
L 87.621025 384.828556 
L 88.649373 381.640788 
L 89.341934 379.450929 
L 90.244362 376.512639 
L 91.20975 374.239622 
L 91.818365 373.35259 
L 93.770128 371.024134 
L 96.624318 366.36722 
L 97.065039 365.313871 
L 98.324241 363.512089 
L 98.932855 362.763656 
L 99.436536 361.848906 
L 100.024163 361.239072 
L 100.548831 360.490639 
L 101.451259 358.35622 
L 102.059873 357.053393 
L 102.45862 355.667407 
L 103.424008 354.974414 
L 104.49433 354.586338 
L 105.921425 353.837906 
L 106.634973 353.228072 
L 107.201614 352.230162 
L 108.985483 350.068023 
L 109.908898 348.349401 
L 110.475539 347.517809 
L 112.679142 345.189352 
L 114.190184 343.38757 
L 115.86912 342.278781 
L 118.870218 340.671037 
L 119.751659 340.172082 
L 121.577502 338.869255 
L 122.563877 338.481179 
L 123.613212 338.3703 
L 126.509376 337.594148 
L 128.293245 336.568518 
L 131.44125 335.265691 
L 132.448611 335.182532 
L 133.560906 334.849896 
L 134.757148 334.655857 
L 135.722536 334.628138 
L 138.094033 333.879705 
L 139.185341 333.824266 
L 144.012282 331.717567 
L 145.943058 330.581058 
L 146.677592 329.804906 
L 147.26522 328.779276 
L 148.083701 327.975404 
L 150.119411 327.088373 
L 150.937892 326.007304 
L 152.721761 322.958134 
L 153.330375 322.237422 
L 153.792083 321.322671 
L 154.358723 320.546519 
L 155.072271 319.853525 
L 155.596939 319.021934 
L 156.35246 317.275591 
L 156.814167 315.41837 
L 157.066007 314.503619 
L 157.254888 313.36711 
L 157.422781 309.292311 
L 157.254888 306.243142 
L 156.625287 301.36447 
L 156.520353 300.311121 
L 156.436407 297.067913 
L 156.310486 293.852425 
L 156.751207 291.718007 
L 157.128968 289.583588 
L 158.115342 286.42354 
L 158.933824 284.289121 
L 159.269611 283.291211 
L 160.8646 280.740997 
L 162.144788 279.465889 
L 162.942283 278.800616 
L 164.348392 277.054273 
L 165.775487 275.113893 
L 166.656928 273.949665 
L 167.79021 273.339831 
L 168.776585 273.118073 
L 170.728348 272.39736 
L 172.68011 272.175602 
L 173.813392 271.732087 
L 175.975022 270.484699 
L 176.835477 269.680827 
L 178.871186 268.156242 
L 180.864923 266.908855 
L 182.250045 265.43971 
L 183.593193 263.776526 
L 184.390688 263.055813 
L 186.930078 259.729447 
L 189.112695 255.266571 
L 190.707684 252.799516 
L 192.407606 249.334551 
L 193.477928 246.285381 
L 194.233449 243.485689 
L 194.653183 242.709537 
L 194.92601 241.822506 
L 195.030943 240.824596 
L 195.30377 239.882125 
L 195.723504 239.161412 
L 196.185212 238.024904 
L 196.479026 236.999274 
L 198.493749 232.480959 
L 198.871509 231.677087 
L 199.56407 229.764426 
L 200.550445 227.657727 
L 201.515833 225.745067 
L 204.160157 219.36953 
L 204.684824 218.676537 
L 205.293439 218.149863 
L 205.881066 217.37371 
L 206.930401 215.35017 
L 207.790856 213.38207 
L 208.39947 212.273281 
L 209.490778 210.554658 
L 211.358594 207.034254 
L 213.793051 203.597008 
L 215.220146 201.906105 
L 215.996654 201.046794 
L 219.165646 198.41342 
L 220.949515 197.055153 
L 222.040823 196.38988 
L 225.755469 193.202112 
L 227.749205 192.231922 
L 228.73558 191.511209 
L 229.784915 190.43014 
L 231.925558 188.600638 
L 232.953906 188.101683 
L 237.151245 187.43641 
L 238.26354 186.771136 
L 241.327598 186.105863 
L 242.251013 186.050423 
L 244.181789 185.274271 
L 245.986645 184.41496 
L 247.833475 183.278451 
L 249.638331 182.308261 
L 250.540759 181.837026 
L 253.206069 180.866835 
L 253.919617 180.146123 
L 255.220792 178.482939 
L 258.22189 175.821846 
L 260.76128 171.469849 
L 262.85995 166.508019 
L 263.384617 164.512199 
L 263.573498 163.40341 
L 264.329019 161.490749 
L 265.1475 159.772126 
L 266.700516 157.693147 
L 268.106624 155.891365 
L 268.862146 154.865735 
L 270.436148 153.39659 
L 275.430982 149.266351 
L 276.501303 148.961434 
L 277.634585 148.767396 
L 278.74688 148.3516 
L 280.950483 148.046684 
L 283.00718 147.048774 
L 287.078599 145.745947 
L 288.736548 144.831196 
L 290.436471 143.611528 
L 291.275939 143.195732 
L 292.052446 142.558178 
L 293.752369 140.784116 
L 294.44493 140.312881 
L 296.165839 139.37041 
L 297.446028 137.762666 
L 298.096615 137.097393 
L 298.936083 136.459839 
L 299.691604 136.071763 
L 301.034753 135.240172 
L 303.34329 133.771026 
L 303.90993 134.020504 
L 304.350651 134.519459 
L 304.539531 134.962974 
L 305.169132 134.713497 
L 305.88268 134.075943 
L 306.512281 133.272071 
L 307.099909 132.800836 
L 308.04431 130.915895 
L 308.527004 130.112023 
L 309.618312 127.534089 
L 310.247913 126.258981 
L 310.52074 125.510549 
L 310.835541 123.736487 
L 310.835541 121.740667 
L 311.066394 119.35677 
L 311.150341 118.137103 
L 311.549088 116.169002 
L 311.486128 114.450379 
L 311.297248 112.3714 
L 310.961461 111.512089 
L 310.038046 109.765746 
L 309.786206 108.185722 
L 309.009698 105.801826 
L 307.288789 102.115103 
L 306.743135 100.341041 
L 306.533268 99.259971 
L 306.197481 98.262061 
L 305.924653 97.097833 
L 306.0086 95.933605 
L 305.714786 93.882345 
L 305.190119 92.302321 
L 304.938279 91.747927 
L 305.316039 89.973864 
L 306.050574 87.42365 
L 306.029587 85.621868 
L 305.483933 82.628138 
L 304.875319 80.327401 
L 304.140784 78.470179 
L 303.616117 77.499989 
L 303.028489 76.696117 
L 299.880485 73.39747 
L 298.684243 72.538159 
L 298.243522 71.900605 
L 296.963334 70.847256 
L 296.249786 70.486899 
L 294.717757 69.211792 
L 292.03146 67.853525 
L 290.961138 67.770366 
L 288.967402 67.853525 
L 287.330439 67.604048 
L 285.48361 66.994214 
L 284.560195 66.633858 
L 283.573821 66.107183 
L 281.496137 65.35875 
L 279.439441 63.945045 
L 277.676558 62.44818 
L 276.921037 61.561148 
L 274.192767 56.072643 
L 274.087833 54.908415 
L 274.402634 48.754636 
L 274.801381 46.675657 
L 275.619862 44.541239 
L 276.102556 43.792806 
L 277.361758 42.240502 
L 278.893787 40.300121 
L 279.712268 39.246772 
L 280.467789 37.888505 
L 281.265284 37.112353 
L 282.083765 36.807436 
L 283.636781 35.171972 
L 284.476249 34.146343 
L 286.197158 33.065273 
L 288.190894 32.455439 
L 289.282202 32.4 
L 291.443832 32.649478 
L 294.82269 33.536509 
L 297.928722 35.44917 
L 299.041017 36.308481 
L 300.048378 36.779716 
L 301.18166 37.001474 
L 304.329664 37.999384 
L 308.736871 38.803256 
L 309.954099 38.830976 
L 311.066394 39.025014 
L 314.340319 39.912045 
L 318.537659 40.632758 
L 320.531395 41.270311 
L 324.476894 42.600858 
L 326.512604 43.321571 
L 327.415032 43.37701 
L 328.359433 43.571048 
L 329.261861 44.070003 
L 334.718403 46.148983 
L 335.788724 46.39846 
L 338.496008 47.701287 
L 339.314489 47.895325 
L 339.965077 48.200242 
L 340.804545 48.338841 
L 342.567427 49.031834 
L 343.385909 49.641668 
L 346.470953 52.607678 
L 350.542373 55.268771 
L 353.333603 56.266681 
L 354.131098 56.793356 
L 355.76806 58.179342 
L 356.607528 58.678297 
L 357.384036 59.509889 
L 358.244491 60.258321 
L 361.371508 65.053833 
L 363.386231 69.544429 
L 363.575112 70.154262 
L 363.805965 71.290771 
L 363.952872 73.646948 
L 363.680045 75.670487 
L 363.994846 79.080013 
L 363.512152 81.242152 
L 363.155378 82.073743 
L 362.63071 84.152722 
L 362.462817 85.178352 
L 361.602362 87.645408 
L 360.972761 89.641228 
L 358.013637 95.185172 
L 357.342063 95.822726 
L 356.859368 96.598878 
L 356.124834 98.345221 
L 355.180433 99.814366 
L 353.858271 102.281421 
L 349.514024 108.629238 
L 348.422716 110.015224 
L 347.898049 110.763656 
L 346.512927 112.094203 
L 345.337672 113.646508 
L 344.666097 114.311781 
L 343.868603 114.893895 
L 343.113082 115.614608 
L 341.245265 117.804466 
L 340.573691 118.552898 
L 339.188569 120.742757 
L 338.328115 122.461379 
L 337.383713 123.736487 
L 336.565232 124.651237 
L 336.166485 125.981784 
L 336.082538 127.783566 
L 335.893658 128.809196 
L 335.914644 131.775206 
L 335.830698 132.606798 
L 336.229445 136.265801 
L 336.984966 139.342691 
L 337.65654 141.033594 
L 338.097261 141.892905 
L 339.188569 143.334331 
L 339.81817 143.944165 
L 340.510731 144.38768 
L 341.329212 144.720317 
L 342.861241 144.858915 
L 346.68082 145.718227 
L 347.415355 145.607348 
L 348.170876 145.35787 
L 349.052317 145.330151 
L 350.794213 144.831196 
L 351.507761 144.304521 
L 352.137362 143.611528 
L 353.753337 142.752216 
L 357.132196 139.453569 
L 358.412384 138.123023 
L 359.041985 137.651787 
L 359.671586 136.986514 
L 362.462817 134.852095 
L 363.994846 134.242262 
L 365.631808 133.854185 
L 367.184824 133.188912 
L 369.703227 132.495919 
L 370.563682 132.35732 
L 371.46611 132.44048 
L 373.166033 132.967154 
L 374.844968 133.549269 
L 376.649824 133.937345 
L 377.468306 134.38086 
L 380.847164 137.152832 
L 381.308871 137.734947 
L 382.148339 139.675327 
L 382.673007 142.641338 
L 382.693993 144.35996 
L 382.316233 147.38141 
L 381.644658 150.291981 
L 380.931111 152.454119 
L 380.42743 153.39659 
L 379.755856 154.089583 
L 375.85233 156.861555 
L 374.089447 157.720867 
L 373.145046 158.053503 
L 372.284591 158.497019 
L 371.445123 159.079133 
L 370.018028 160.326521 
L 368.569946 161.43531 
L 366.429303 162.266901 
L 365.694768 162.738137 
L 364.393593 163.985524 
L 359.692573 168.753316 
L 359.167905 169.41859 
L 357.258116 171.026334 
L 356.166807 172.3846 
L 355.012539 173.881465 
L 353.60643 176.154482 
L 352.557095 178.482939 
L 352.032428 180.146123 
L 351.675654 181.892465 
L 350.626319 184.858475 
L 350.080665 190.40242 
L 349.891785 191.344891 
L 349.702905 193.507029 
L 349.409091 197.138313 
L 349.178237 199.716247 
L 349.15725 200.658717 
L 349.010344 201.545749 
L 348.989357 203.791046 
L 347.667195 210.055703 
L 347.331408 210.804136 
L 346.974634 212.633638 
L 346.68082 214.601738 
L 346.68082 217.096513 
L 347.016607 219.619008 
L 347.478315 222.113783 
L 347.667195 223.887845 
L 347.709168 225.883665 
L 348.002982 230.013904 
L 347.562261 234.975734 
L 346.995621 236.971554 
L 346.114179 238.745617 
L 345.610499 239.521769 
L 344.309323 240.769156 
L 342.861241 243.236212 
L 341.329212 245.315191 
L 340.489744 246.035904 
L 338.621928 246.673457 
L 337.21582 247.893125 
L 336.460298 248.586118 
L 335.11715 250.304741 
L 334.004855 251.607568 
L 333.480187 252.134243 
L 333.039467 252.827236 
L 332.451839 253.520229 
L 331.129677 254.795336 
L 330.54205 255.516049 
L 329.849489 256.098163 
L 329.240874 256.874315 
L 326.722471 259.36909 
L 326.176817 260.089803 
L 324.162094 261.863865 
L 323.637426 262.501419 
L 323.322626 263.249852 
L 322.818945 264.109163 
L 320.804222 266.243582 
L 320.111661 266.825696 
L 317.908058 269.680827 
L 315.011894 274.005104 
L 313.479865 276.139523 
L 312.451516 277.664107 
L 309.744232 281.37855 
L 308.317137 283.762446 
L 305.211106 288.308481 
L 303.553157 291.801166 
L 301.4335 297.982664 
L 301.49646 298.786536 
L 299.754564 303.44345 
L 299.355817 304.302761 
L 298.705229 307.019294 
L 298.537336 309.902145 
L 298.558323 310.733737 
L 298.306482 312.757276 
L 298.243522 314.697657 
L 298.516349 316.665757 
L 299.502724 320.103003 
L 300.237258 321.766186 
L 301.748301 323.762006 
L 302.335928 324.37184 
L 303.196383 325.702387 
L 304.014864 327.753646 
L 305.924653 330.664217 
L 305.924653 331.41265 
L 306.176494 332.964954 
L 306.260441 333.824266 
L 307.771483 339.700847 
L 308.065297 344.496359 
L 307.876416 346.020944 
L 307.624576 348.072203 
L 306.680175 353.311231 
L 306.092547 355.833726 
L 306.260441 358.217622 
L 306.218467 364.842636 
L 306.029587 367.697767 
L 306.218467 368.695677 
L 306.596228 373.712947 
L 306.554254 374.544539 
L 306.869055 377.37195 
L 306.743135 378.36986 
L 306.533268 379.090573 
L 305.88268 380.227082 
L 305.253079 381.308151 
L 304.539531 383.581168 
L 304.539531 384.495919 
L 304.770385 386.547179 
L 302.650729 391.619888 
L 301.832247 394.225542 
L 300.803899 396.609438 
L 299.544697 399.298251 
L 298.369442 402.070223 
L 297.928722 404.149203 
L 297.194187 406.921175 
L 296.98432 409.221912 
L 296.73248 411.245452 
L 296.79544 413.573908 
L 296.879387 415.985524 
L 296.837413 416.900275 
L 296.564586 417.676427 
L 295.284398 419.755406 
L 294.130129 421.113673 
L 292.493167 422.943175 
L 291.863566 423.44213 
L 290.940151 424.800396 
L 290.562391 425.576548 
L 289.99575 427.212012 
L 289.093322 428.653437 
L 288.106947 431.037334 
L 287.498333 432.811396 
L 287.099586 433.670707 
L 285.945317 435.112133 
L 283.762701 436.913915 
L 282.503499 438.244462 
L 281.496137 439.741327 
L 280.509763 441.238192 
L 279.880162 441.875745 
L 278.830827 443.455769 
L 277.718532 444.924915 
L 277.298798 445.867385 
L 276.165516 447.558288 
L 274.633487 448.777956 
L 273.815006 449.498669 
L 273.059485 449.997624 
L 272.031137 451.189572 
L 271.212656 452.741877 
L 270.646015 454.460499 
L 269.7226 456.040524 
L 268.715239 457.870025 
L 267.875771 459.588648 
L 267.43505 460.309361 
L 266.742489 462.083423 
L 266.511635 462.998174 
L 266.091901 463.829766 
L 265.02158 465.298911 
L 263.006857 469.623188 
L 260.845227 473.531669 
L 259.900826 475.998724 
L 258.746557 479.519129 
L 257.760182 481.126873 
L 257.172555 481.903025 
L 256.689861 482.845496 
L 256.37506 483.787966 
L 255.514606 485.229392 
L 253.248043 488.195402 
L 252.282654 489.803146 
L 251.757987 490.523859 
L 249.44945 492.575118 
L 248.861823 493.295831 
L 248.463075 493.988824 
L 247.875448 496.788516 
L 247.182887 499.36645 
L 247.077953 500.36436 
L 246.343419 503.136333 
L 246.007632 504.023364 
L 244.958297 505.714267 
L 244.517576 506.684457 
L 244.223763 507.710087 
L 244.097842 508.846596 
L 244.244749 510.786976 
L 244.013896 511.590848 
L 241.873252 514.335101 
L 240.614051 515.721087 
L 239.648662 517.467429 
L 239.103008 519.795886 
L 238.935115 523.177692 
L 238.662288 524.203322 
L 238.26354 525.062633 
L 237.612953 525.644748 
L 236.983352 526.44862 
L 236.626578 527.335651 
L 236.206844 530.467979 
L 236.017964 531.327291 
L 235.493296 531.881685 
L 233.835347 532.685557 
L 226.406056 535.707007 
L 223.048185 536.344561 
L 221.977863 536.4 
L 220.634714 536.316841 
L 216.479348 535.485249 
L 210.204326 533.932945 
L 209.343871 533.600308 
L 207.832829 532.796436 
L 205.944026 532.186602 
L 202.921942 531.826246 
L 200.235644 531.604488 
L 193.960622 530.717457 
L 192.029846 530.856055 
L 189.889202 530.467979 
L 188.818881 530.467979 
L 186.867118 530.856055 
L 185.880743 531.244132 
L 183.089512 531.798526 
L 181.095776 533.267671 
L 176.310809 534.459619 
L 174.40102 535.014014 
L 172.806031 535.762446 
L 170.917228 536.205962 
L 170.056773 536.233682 
L 169.175332 535.873325 
L 166.635942 533.544869 
L 165.712527 532.879595 
L 164.663192 532.40836 
L 161.578147 531.632208 
L 159.752305 531.188692 
L 156.751207 529.830426 
L 155.701872 529.553228 
L 154.757471 529.44235 
L 153.729123 528.998834 
L 151.882293 527.917765 
L 147.39114 526.670377 
L 146.572659 526.504059 
L 144.788789 525.672467 
L 141.346971 523.344011 
L 140.46553 523.011374 
L 139.500142 522.928215 
L 138.597714 522.595578 
L 137.884166 522.041184 
L 137.233578 521.37591 
L 136.708911 520.655197 
L 135.911416 518.992014 
L 135.449709 515.998284 
L 135.386749 514.44598 
L 135.092935 513.614388 
L 134.757148 513.281751 
L 134.274454 512.588758 
L 131.546183 510.038544 
L 129.678367 508.846596 
L 125.229187 505.326191 
L 123.760118 504.799516 
L 117.946803 502.859135 
L 116.225894 502.498779 
L 114.043277 502.36018 
L 113.32973 502.665097 
L 110.328632 503.247212 
L 108.229962 503.302651 
L 107.306547 502.914575 
L 105.606625 501.861225 
L 103.927689 501.140513 
L 102.164807 500.863315 
L 100.590804 500.087163 
L 98.618055 499.643648 
L 97.484773 499.699087 
L 96.519385 499.948565 
L 95.008343 499.754526 
L 93.350394 499.311011 
L 92.636846 498.895215 
L 91.314684 497.259751 
L 90.685083 496.677637 
L 89.069107 495.457969 
L 88.334573 494.764976 
L 86.865504 492.907755 
L 85.753209 491.189132 
L 85.165582 490.662457 
L 84.200193 489.221032 
L 83.570593 487.668727 
L 83.297765 486.726257 
L 83.066912 484.619558 
L 81.723763 478.049984 
L 81.178109 476.303641 
L 80.716402 475.36117 
L 79.436213 473.892025 
L 79.016479 473.725707 
L 78.449838 474.002904 
L 77.925171 474.4187 
L 77.526424 475.194852 
L 77.211623 476.192762 
L 76.770903 476.996634 
L 75.679594 478.521219 
L 74.651246 480.184402 
L 72.363696 482.900935 
L 70.474893 485.173952 
L 69.152731 486.44906 
L 68.292277 486.809416 
L 65.941767 488.195402 
L 60.443252 491.050533 
L 58.575436 491.521769 
L 57.043407 492.575118 
L 55.364471 493.767066 
L 52.090546 496.899395 
L 50.306677 498.978374 
L 49.698063 499.44961 
L 49.068462 499.44961 
L 48.228994 498.119063 
L 47.452486 497.176592 
L 46.634005 496.42816 
L 45.941444 496.123243 
L 45.248883 496.40044 
L 44.619282 497.037994 
L 42.877386 498.035904 
L 40.400956 498.479419 
L 39.015834 499.033814 
L 36.917164 499.36645 
L 36.098683 499.338731 
L 34.230866 499.754526 
L 31.271742 499.338731 
L 27.892884 498.507139 
L 26.423815 497.42607 
L 25.353493 496.345001 
L 25.080666 495.624288 
L 25.1856 493.462149 
L 25.752241 490.523859 
L 25.332507 488.860675 
L 25.416454 488.306281 
L 25.647307 487.862765 
L 26.969469 486.310461 
L 28.249658 484.314641 
L 29.739713 482.485139 
L 31.187795 481.570388 
L 32.635877 480.43388 
L 33.916066 479.713167 
L 34.482707 479.269651 
L 38.428206 474.585018 
L 40.002208 472.450599 
L 40.799703 471.840766 
L 42.562585 470.981454 
L 43.29712 470.343901 
L 45.018029 468.043164 
L 45.39579 467.40561 
L 45.941444 465.465229 
L 46.361178 462.083423 
L 46.613018 457.565108 
L 46.235258 456.012804 
L 45.83651 455.264371 
L 43.947707 452.935915 
L 43.402053 452.686437 
L 43.402053 452.686437 
" clip-path="url(#p3f82dc3a16)" style="fill: none; stroke: #000000; stroke-width: 3"/>
   </g>
  </g>
 </g>
 <defs>
  <clipPath id="p3f82dc3a16">
   <rect x="7.2" y="7.2" width="393.37466" height="554.4"/>
  </clipPath>
 </defs>
</svg>
