<?xml version="1.0" encoding="utf-8" standalone="no"?>
<!DOCTYPE svg PUBLIC "-//W3C//DTD SVG 1.1//EN"
  "http://www.w3.org/Graphics/SVG/1.1/DTD/svg11.dtd">
<svg xmlns:xlink="http://www.w3.org/1999/xlink" width="519.419715pt" height="568.8pt" viewBox="0 0 519.419715 568.8" xmlns="http://www.w3.org/2000/svg" version="1.1">
 <metadata>
  <rdf:RDF xmlns:dc="http://purl.org/dc/elements/1.1/" xmlns:cc="http://creativecommons.org/ns#" xmlns:rdf="http://www.w3.org/1999/02/22-rdf-syntax-ns#">
   <cc:Work>
    <dc:type rdf:resource="http://purl.org/dc/dcmitype/StillImage"/>
    <dc:date>2022-08-29T05:31:12.398757</dc:date>
    <dc:format>image/svg+xml</dc:format>
    <dc:creator>
     <cc:Agent>
      <dc:title>Matplotlib v3.5.3, https://matplotlib.org/</dc:title>
     </cc:Agent>
    </dc:creator>
   </cc:Work>
  </rdf:RDF>
 </metadata>
 <defs>
  <style type="text/css">*{stroke-linejoin: round; stroke-linecap: butt}</style>
 </defs>
 <g id="figure_1">
  <g id="patch_1">
   <path d="M -0 568.8 
L 519.419715 568.8 
L 519.419715 0 
L -0 0 
z
" style="fill: #ffffff"/>
  </g>
  <g id="axes_1">
   <g id="LineCollection_1">
    <path d="M 60.461148 417.718802 
L 61.29284 418.296983 
L 62.066168 418.9908 
L 63.642007 419.992979 
L 64.911432 420.494069 
L 65.611805 420.532614 
L 68.238202 421.226431 
L 70.631142 422.344247 
L 71.27315 422.324974 
L 72.090251 422.729701 
L 72.717668 423.404245 
L 73.184583 424.175152 
L 73.359676 424.811151 
L 73.797409 425.350786 
L 73.899547 425.485695 
L 74.030867 425.948239 
L 74.030867 425.948239 
L 74.103822 426.333693 
L 74.454009 426.719146 
L 75.037652 426.699874 
L 75.956892 426.468602 
L 76.861539 425.890421 
L 77.79537 425.138786 
L 78.743791 424.117334 
L 79.312844 423.095882 
L 79.721394 422.055157 
L 80.815726 420.050797 
L 82.610431 416.157715 
L 83.310804 414.095537 
L 83.92363 413.305357 
L 85.441104 413.189721 
L 87.308764 413.710084 
L 88.44687 414.095537 
L 91.175405 415.90717 
L 92.474012 416.639532 
L 95.173365 417.506803 
L 99.477738 418.682437 
L 103.840476 420.050797 
L 105.270403 420.628978 
L 108.15944 422.15152 
L 116.345045 427.89478 
L 120.386778 430.997683 
L 121.933435 431.903499 
L 124.866245 433.194769 
L 129.039298 435.025674 
L 130.39627 436.027854 
L 131.811607 436.779488 
L 134.438004 437.781668 
L 137.078992 438.668212 
L 145.206233 442.079477 
L 154.865538 445.644924 
L 157.521117 447.05183 
L 158.819725 447.861283 
L 162.584228 450.752185 
L 163.824471 451.812183 
L 164.918803 452.929999 
L 165.852633 454.317632 
L 166.625961 455.917265 
L 167.238787 457.536171 
L 167.982933 460.677618 
L 168.858399 465.418699 
L 169.660909 469.388872 
L 170.06946 470.911414 
L 171.192974 473.744499 
L 172.010076 475.286314 
L 173.9361 478.254308 
L 174.942886 479.699759 
L 176.0664 481.048847 
L 177.087777 481.35721 
L 184.937787 485.558656 
L 186.061301 486.965562 
L 192.189561 496.158633 
L 200.360575 507.201881 
L 203.059928 510.246966 
L 205.044317 511.750235 
L 206.02192 512.617506 
L 207.028706 513.870231 
L 208.254358 514.486957 
L 209.567556 514.949501 
L 210.661889 515.469863 
L 211.683265 515.701136 
L 212.660869 515.66259 
L 215.841728 516.915315 
L 216.790149 517.512768 
L 218.249258 518.74622 
L 219.037178 519.093128 
L 221.546846 520.577125 
L 222.334765 520.904761 
L 223.06432 521.367305 
L 223.837648 522.33094 
L 224.625567 523.101847 
L 225.603171 524.797843 
L 227.748062 526.628748 
L 229.84918 527.881473 
L 234.956063 530.73383 
L 235.700209 530.965103 
L 238.195287 532.217827 
L 239.610623 533.335643 
L 240.427724 533.778915 
L 241.449101 534.10655 
L 243.725312 535.185821 
L 246.132843 535.956728 
L 246.76026 536.303637 
L 247.343904 536.4 
L 248.62792 535.667638 
L 250.393443 534.993094 
L 250.75822 533.065825 
L 251.254317 531.658919 
L 252.421605 528.941471 
L 253.005249 527.553837 
L 254.858318 525.029116 
L 255.850513 524.084754 
L 256.47793 522.947665 
L 257.0178 521.694941 
L 258.389363 518.996765 
L 260.271615 514.891683 
L 260.796894 513.484777 
L 263.948571 510.015693 
L 264.692717 508.820787 
L 265.378498 507.413881 
L 266.370693 504.715705 
L 267.625527 502.152438 
L 269.639098 497.873902 
L 273.855925 491.012826 
L 274.600071 489.490283 
L 275.504719 487.909923 
L 276.467731 486.541562 
L 279.38595 482.918298 
L 280.684558 480.489939 
L 281.297384 479.198669 
L 281.822663 477.772491 
L 282.420898 476.500493 
L 284.886793 473.127773 
L 287.615328 467.847057 
L 288.03847 466.632878 
L 288.330292 465.168154 
L 288.957709 464.069611 
L 290.56273 461.949616 
L 292.517936 458.557623 
L 294.443961 455.030722 
L 295.713386 453.58527 
L 296.16571 452.178364 
L 297.026585 450.732913 
L 303.052708 438.051486 
L 305.110052 435.314764 
L 305.766651 434.35113 
L 306.291931 433.291132 
L 307.678085 429.224596 
L 307.926134 427.798417 
L 308.451413 426.60351 
L 309.108012 425.427877 
L 311.86573 422.286429 
L 313.806345 418.663164 
L 315.06118 416.138442 
L 315.717779 414.731536 
L 316.286832 413.247539 
L 317.775123 410.395182 
L 320.430703 406.752644 
L 322.312954 404.266468 
L 323.845019 401.433383 
L 326.38387 397.424664 
L 327.974299 394.475944 
L 328.689263 392.452312 
L 329.57932 390.968315 
L 330.498559 389.657772 
L 330.64447 388.231593 
L 331.44698 386.921051 
L 335.430349 378.402524 
L 337.589832 375.241803 
L 339.442901 372.081083 
L 341.062512 368.804726 
L 344.22878 363.504738 
L 345.148019 362.290559 
L 346.577947 359.611655 
L 347.934919 356.759298 
L 348.6207 355.294574 
L 349.408619 353.945486 
L 351.217915 352.32658 
L 352.633251 350.476402 
L 354.092361 348.048044 
L 354.88028 346.776047 
L 355.595244 345.311323 
L 356.193479 343.615326 
L 357.579633 340.782242 
L 360.687536 335.752071 
L 363.620347 330.471355 
L 365.79442 326.462636 
L 371.003441 318.406654 
L 371.849725 316.787748 
L 373.294243 314.455753 
L 373.819523 313.434301 
L 374.782535 311.198669 
L 378.167669 305.069955 
L 379.320366 303.52814 
L 380.283378 301.812871 
L 380.808658 301.697235 
L 381.392301 301.176873 
L 382.048901 300.425238 
L 385.025484 295.472158 
L 387.958295 290.172169 
L 391.912482 284.216909 
L 395.151705 277.336561 
L 398.857843 270.321303 
L 399.149665 269.319124 
L 399.149665 269.319124 
L 399.572807 268.740943 
L 400.01054 268.413307 
L 400.506637 267.680945 
L 402.578573 263.672227 
L 403.74586 261.571504 
L 404.81101 259.335872 
L 405.701067 257.100241 
L 407.481181 253.93952 
L 408.166962 252.744614 
L 409.859529 248.812986 
L 411.231092 246.191901 
L 412.5297 243.358816 
L 414.514089 238.656281 
L 418.293183 230.83157 
L 418.964373 229.636664 
L 419.650155 228.807939 
L 420.321345 227.458851 
L 423.1812 222.602134 
L 424.494399 220.115957 
L 427.689849 214.931605 
L 429.907695 210.826523 
L 430.710205 208.745073 
L 432.213088 206.046897 
L 432.913461 204.447264 
L 435.145899 201.035999 
L 436.167275 198.800367 
L 439.143859 192.768017 
L 439.508636 191.765837 
L 440.019325 190.821475 
L 443.579552 185.82985 
L 445.403439 182.669129 
L 446.833366 180.568407 
L 447.986063 178.448411 
L 448.452978 177.369141 
L 449.13876 176.270598 
L 451.166922 173.649512 
L 452.713578 170.411701 
L 453.151311 169.370976 
L 456.346761 163.569898 
L 457.908008 160.466996 
L 458.856429 158.269909 
L 459.571393 155.822278 
L 463.963313 147.361569 
L 464.85337 146.012481 
L 465.349467 145.684846 
L 465.933111 145.048847 
L 466.531346 144.933211 
L 469.026423 145.511392 
L 472.674197 146.956843 
L 474.97959 148.190295 
L 477.197437 149.500837 
L 479.532012 150.715017 
L 480.713891 151.216106 
L 485.587317 152.507376 
L 486.521147 152.950648 
L 488.053212 153.143375 
L 488.432581 153.124102 
L 488.987042 152.719376 
L 488.315852 153.201193 
L 488.315852 153.201193 
L 488.330443 153.316829 
L 488.476354 153.413193 
L 488.753585 153.297556 
L 489.249682 152.680831 
L 489.264273 152.526649 
L 489.074589 152.31465 
L 489.074589 152.31465 
L 488.841131 154.107009 
L 487.790572 154.010646 
L 485.018264 152.950648 
L 482.348094 151.524469 
L 479.794652 149.693564 
L 477.824854 148.595021 
L 475.898829 147.65066 
L 474.031169 146.494298 
L 471.302634 144.721211 
L 468.953468 143.48776 
L 466.58971 142.292853 
L 465.028463 141.367764 
L 458.914794 138.207044 
L 456.259214 137.147046 
L 455.106518 136.549593 
L 451.925659 134.506688 
L 450.918873 133.909235 
L 449.94127 133.196145 
L 448.146565 131.538695 
L 448.146565 131.538695 
L 447.796379 132.849237 
L 446.410225 132.15542 
L 445.505577 131.712149 
L 443.68169 130.401606 
L 441.784847 128.821246 
L 437.071923 126.084524 
L 433.351194 123.906711 
L 430.856116 122.480532 
L 428.579905 120.803809 
L 427.091614 119.647448 
L 422.130641 116.679454 
L 419.168649 115.311093 
L 418.672551 114.578731 
L 418.030543 114.231823 
L 413.230073 112.42019 
L 410.632858 111.109648 
L 408.283691 109.741287 
L 405.803205 108.507835 
L 394.261648 102.379121 
L 389.650862 99.989308 
L 387.476788 98.698038 
L 385.171395 97.599495 
L 382.909775 96.597316 
L 378.882633 94.419502 
L 377.175475 93.128232 
L 375.395361 91.933326 
L 373.688203 91.1046 
L 373.527701 90.699874 
L 373.338016 90.507147 
L 372.579279 90.218057 
L 371.66004 89.31224 
L 371.514129 89.02315 
L 371.236899 88.73406 
L 370.828348 88.52206 
L 369.048234 87.924607 
L 367.939311 87.404245 
L 365.517189 85.881702 
L 363.109658 84.513342 
L 362.000735 83.665344 
L 360.833447 82.932982 
L 355.81411 80.446805 
L 351.699421 78.90499 
L 349.248117 77.594448 
L 345.81921 75.609361 
L 344.651922 75.050453 
L 343.324132 74.703545 
L 335.882673 70.270827 
L 331.899304 68.035196 
L 331.31566 67.649742 
L 331.169749 67.70756 
L 330.77579 67.49556 
L 330.498559 67.264288 
L 330.060826 66.339199 
L 329.769004 65.606837 
L 328.470397 65.067202 
L 327.857571 64.855202 
L 325.479222 63.83375 
L 324.209797 63.371206 
L 321.685537 62.118481 
L 318.198265 60.133395 
L 316.987204 59.401032 
L 314.477536 58.37958 
L 306.189793 53.561409 
L 301.49146 51.017414 
L 297.026585 48.280693 
L 292.065612 45.466881 
L 289.789402 44.869428 
L 289.161984 44.618883 
L 287.819604 43.59743 
L 285.003522 41.708707 
L 278.101934 38.201078 
L 271.696443 34.153814 
L 270.704248 33.498543 
L 269.712054 33.035999 
L 267.173203 32.419273 
L 266.793834 32.4 
L 266.370693 32.612 
L 265.860004 33.132362 
L 265.27636 33.961088 
L 262.431097 39.511621 
L 260.782303 42.595251 
L 260.242432 43.539612 
L 258.827096 47.066514 
L 256.798934 50.400688 
L 255.792148 52.597774 
L 254.829136 54.621406 
L 252.62588 58.495216 
L 251.458593 61.000665 
L 248.803013 65.568292 
L 248.175596 66.570471 
L 247.081264 68.671194 
L 245.811839 70.926098 
L 243.871223 74.530091 
L 242.528842 76.688631 
L 237.290639 85.804612 
L 236.152533 87.847516 
L 234.883108 89.697694 
L 233.088403 92.800597 
L 231.497973 96.308225 
L 229.615722 99.411128 
L 228.404661 101.203487 
L 225.238393 106.773294 
L 224.538021 108.623471 
L 221.897032 114.096914 
L 214.4118 127.472158 
L 212.529549 130.864151 
L 209.698876 135.354686 
L 207.451848 139.729586 
L 206.211604 142.042308 
L 204.883815 144.181576 
L 203.35175 147.091752 
L 198.916056 155.128462 
L 196.041611 161.025903 
L 193.779991 164.649168 
L 192.860752 166.113892 
L 192.087424 167.135345 
L 191.036865 169.293886 
L 188.673107 174.112057 
L 184.339552 181.917495 
L 180.005996 188.99057 
L 178.970028 189.915659 
L 178.882482 189.934932 
L 178.780344 190.744385 
L 178.240474 191.592383 
L 177.627648 192.498199 
L 177.292052 194.888012 
L 176.912684 195.870919 
L 176.314449 196.873099 
L 175.570303 197.798187 
L 174.286287 199.860365 
L 173.221137 202.076724 
L 172.170578 204.620718 
L 171.470205 205.969806 
L 169.690091 208.687255 
L 167.93916 211.481794 
L 163.109507 219.63414 
L 161.081345 223.565768 
L 159.578462 225.743582 
L 158.35281 227.420305 
L 157.637846 227.979213 
L 156.820745 228.345394 
L 154.89472 228.595939 
L 153.814979 228.441757 
L 151.713861 227.285396 
L 147.672128 224.375221 
L 145.716921 222.871951 
L 144.680953 222.447952 
L 141.500094 221.889044 
L 141.31041 221.889044 
L 141.31041 221.889044 
L 138.829924 221.349409 
L 138.231689 221.349409 
L 137.677227 221.465045 
L 135.503154 222.910497 
L 133.59172 224.818493 
L 132.876757 225.87849 
L 131.490602 228.229758 
L 129.579169 232.026477 
L 128.441063 235.167925 
L 127.638553 237.095193 
L 126.018941 239.697006 
L 124.80788 241.431548 
L 124.326374 242.395182 
L 123.888641 244.380268 
L 123.20286 246.423173 
L 121.627022 249.294803 
L 120.109548 252.783159 
L 119.890681 253.515521 
L 117.920883 257.042423 
L 117.61447 257.447149 
L 117.278875 258.083148 
L 116.476365 258.969691 
L 116.053223 259.528599 
L 115.031846 261.956958 
L 114.039652 265.021315 
L 112.901546 267.661673 
L 110.041691 272.88457 
L 106.510646 278.743467 
L 105.649772 280.979098 
L 104.745124 283.041276 
L 104.234435 284.236182 
L 102.979601 286.009269 
L 102.191682 286.818722 
L 97.172345 293.564162 
L 96.44279 294.354342 
L 95.275502 296.223793 
L 92.911745 299.808512 
L 90.883583 304.087048 
L 89.424473 308.249948 
L 87.863226 310.948124 
L 84.536456 316.826293 
L 79.954852 325.287002 
L 78.568698 328.100815 
L 77.780779 329.488448 
L 75.13979 335.231708 
L 71.973522 341.803694 
L 71.039692 344.020053 
L 69.434672 347.3735 
L 67.100096 350.418584 
L 66.370542 351.478582 
L 62.999998 357.414569 
L 62.562266 358.513112 
L 61.278249 360.806562 
L 59.235496 363.890192 
L 57.732613 367.262912 
L 56.90092 368.168728 
L 56.375641 368.631272 
L 54.756029 371.117449 
L 54.186976 371.926901 
L 53.617924 373.121808 
L 52.742458 374.625077 
L 52.304725 375.723621 
L 49.663737 379.481794 
L 48.671542 381.505426 
L 47.504255 383.856694 
L 45.592821 388.578502 
L 44.294213 389.908317 
L 43.44793 390.71777 
L 41.696998 392.876311 
L 41.142537 393.685763 
L 39.98984 396.191213 
L 39.654245 397.309028 
L 37.071621 401.356292 
L 36.619297 402.41629 
L 35.233143 404.439922 
L 34.343086 405.422829 
L 32.854794 407.562097 
L 31.308138 411.03118 
L 30.92877 411.45518 
L 30.491037 411.435907 
L 30.155442 411.204635 
L 30.155442 411.204635 
" clip-path="url(#p3ed06b2298)" style="fill: none; stroke: #000000; stroke-width: 3"/>
   </g>
  </g>
 </g>
 <defs>
  <clipPath id="p3ed06b2298">
   <rect x="7.2" y="7.2" width="505.019715" height="554.4"/>
  </clipPath>
 </defs>
</svg>
