<?xml version="1.0" encoding="utf-8" standalone="no"?>
<!DOCTYPE svg PUBLIC "-//W3C//DTD SVG 1.1//EN"
  "http://www.w3.org/Graphics/SVG/1.1/DTD/svg11.dtd">
<svg xmlns:xlink="http://www.w3.org/1999/xlink" width="412.663381pt" height="568.8pt" viewBox="0 0 412.663381 568.8" xmlns="http://www.w3.org/2000/svg" version="1.1">
 <metadata>
  <rdf:RDF xmlns:dc="http://purl.org/dc/elements/1.1/" xmlns:cc="http://creativecommons.org/ns#" xmlns:rdf="http://www.w3.org/1999/02/22-rdf-syntax-ns#">
   <cc:Work>
    <dc:type rdf:resource="http://purl.org/dc/dcmitype/StillImage"/>
    <dc:date>2022-08-31T05:32:10.854285</dc:date>
    <dc:format>image/svg+xml</dc:format>
    <dc:creator>
     <cc:Agent>
      <dc:title>Matplotlib v3.5.3, https://matplotlib.org/</dc:title>
     </cc:Agent>
    </dc:creator>
   </cc:Work>
  </rdf:RDF>
 </metadata>
 <defs>
  <style type="text/css">*{stroke-linejoin: round; stroke-linecap: butt}</style>
 </defs>
 <g id="figure_1">
  <g id="patch_1">
   <path d="M 0 568.8 
L 412.663381 568.8 
L 412.663381 0 
L 0 0 
z
" style="fill: #ffffff"/>
  </g>
  <g id="axes_1">
   <g id="LineCollection_1">
    <path d="M 42.09402 448.442617 
L 43.195079 448.274813 
L 43.851479 448.274813 
L 45.439544 448.666356 
L 46.32886 449.001964 
L 49.35677 451.043582 
L 51.8765 453.784385 
L 54.332707 455.518362 
L 55.857249 457.112502 
L 56.407778 458.119327 
L 57.064179 459.014283 
L 58.631069 460.32875 
L 60.19796 461.475412 
L 60.917883 461.699151 
L 62.992954 461.699151 
L 65.279768 461.866955 
L 66.402 462.230531 
L 70.467446 462.594107 
L 72.500169 463.041585 
L 73.283615 463.656867 
L 75.972738 466.481571 
L 77.857242 468.802863 
L 79.21239 470.089362 
L 79.911139 470.620742 
L 80.9275 471.851307 
L 81.414507 472.298785 
L 82.13443 472.746263 
L 83.129617 472.8861 
L 83.870714 473.277643 
L 84.569462 474.060729 
L 85.204688 475.039587 
L 86.094005 477.836324 
L 87.322108 481.835658 
L 87.491502 483.09419 
L 87.343282 483.793374 
L 87.068018 486.785883 
L 87.53385 488.659697 
L 89.016044 493.162444 
L 89.460702 494.169269 
L 90.159451 494.896421 
L 92.912097 496.434626 
L 94.28842 497.637223 
L 95.156562 498.112669 
L 96.130575 498.448277 
L 99.603143 500.182254 
L 100.534808 500.43396 
L 102.440486 501.161112 
L 103.308628 501.384851 
L 105.299003 501.552655 
L 108.581003 501.440786 
L 109.618539 501.636557 
L 112.64645 501.916231 
L 113.641637 502.112003 
L 114.594476 502.112003 
L 118.257612 502.923056 
L 119.210451 502.978991 
L 127.404866 505.44012 
L 128.400053 505.887598 
L 129.352892 506.446945 
L 131.809099 508.600433 
L 135.048752 512.376028 
L 135.789849 513.159114 
L 136.975604 514.976994 
L 138.500146 517.99747 
L 139.855295 521.968836 
L 140.405824 523.898585 
L 141.845669 526.555485 
L 142.544418 526.947028 
L 143.349037 527.198735 
L 144.174831 527.590278 
L 145.974638 528.261495 
L 147.880316 528.988647 
L 149.891865 529.91157 
L 150.908226 530.163276 
L 153.110343 530.303113 
L 155.037195 530.722624 
L 160.05548 531.477743 
L 160.860099 531.841318 
L 162.194074 532.120992 
L 165.221984 533.043915 
L 168.228721 535.001631 
L 170.197921 535.896587 
L 171.15076 536.176261 
L 173.26818 536.4 
L 174.32689 536.260163 
L 176.656052 535.33724 
L 180.234491 533.323589 
L 181.208504 533.09985 
L 182.965963 532.540503 
L 184.638724 532.14896 
L 185.189253 532.260829 
L 185.866828 532.065057 
L 187.899551 531.058232 
L 189.974622 529.827668 
L 192.981359 528.513201 
L 194.018894 528.261495 
L 196.242185 528.233528 
L 198.528999 528.820842 
L 199.714754 529.184418 
L 202.06509 529.520027 
L 203.166148 529.659863 
L 204.288381 529.939537 
L 207.316291 531.170102 
L 210.513595 531.897253 
L 211.720524 531.841318 
L 213.01215 531.533677 
L 215.489531 531.309938 
L 216.548241 532.009123 
L 219.851416 532.764242 
L 221.587701 532.820176 
L 222.265275 532.708307 
L 223.027546 532.456601 
L 223.832166 532.065057 
L 226.902424 531.114167 
L 228.278747 530.219211 
L 230.45969 528.373364 
L 231.497226 526.863126 
L 232.788852 525.492725 
L 233.678168 523.926552 
L 234.990968 520.850142 
L 236.515511 518.556817 
L 237.341304 517.438122 
L 239.056414 514.361711 
L 240.940918 511.313268 
L 243.375951 506.167272 
L 244.053525 504.125653 
L 244.455835 503.566306 
L 245.556893 502.531513 
L 247.272003 501.245014 
L 248.309539 500.182254 
L 249.050636 499.007624 
L 250.659875 495.65154 
L 251.570366 493.442118 
L 252.269114 492.015782 
L 254.640624 488.380023 
L 255.297025 487.429133 
L 256.73687 484.464591 
L 259.193077 480.101681 
L 259.849477 477.920226 
L 260.929361 475.934543 
L 264.973633 468.998635 
L 266.604047 465.950191 
L 267.535711 463.684834 
L 270.944757 457.923556 
L 272.088164 456.189579 
L 273.443313 452.889429 
L 274.650242 451.043582 
L 278.186333 443.492392 
L 279.816746 440.583786 
L 280.896631 438.542167 
L 281.277766 437.507375 
L 283.289315 433.536008 
L 286.19018 429.145131 
L 288.582865 425.677177 
L 290.192104 422.600766 
L 292.118956 419.887931 
L 292.860053 417.87428 
L 293.220014 416.923389 
L 294.172853 415.273314 
L 295.443305 413.427468 
L 296.734931 411.777393 
L 299.572274 407.470418 
L 300.821551 406.072049 
L 301.562648 404.002464 
L 302.494313 399.35988 
L 304.103552 395.360546 
L 305.839836 392.2282 
L 306.305669 391.221375 
L 307.258508 388.368703 
L 307.618469 386.355052 
L 307.809037 384.14563 
L 308.317218 381.153121 
L 308.719527 377.349559 
L 309.079489 375.391843 
L 308.846572 374.077376 
L 308.952443 373.126486 
L 308.296043 364.876111 
L 308.486611 362.610754 
L 309.524147 356.793541 
L 310.286418 353.745097 
L 311.323954 350.920393 
L 311.578044 349.717796 
L 311.916831 344.879441 
L 311.980354 343.425137 
L 311.916831 342.026769 
L 311.726263 340.684335 
L 311.768612 336.90874 
L 311.345128 334.811187 
L 309.757063 332.350058 
L 309.100663 331.539004 
L 308.571308 330.504212 
L 307.809037 327.959181 
L 307.343204 325.581954 
L 306.326843 323.28863 
L 304.929346 321.358881 
L 304.230597 320.575795 
L 302.536661 317.890927 
L 302.028481 316.940037 
L 301.456777 314.814516 
L 300.948596 312.633061 
L 301.012119 310.255835 
L 301.160338 309.081205 
L 301.986132 305.809023 
L 302.621358 303.263992 
L 304.54821 298.090028 
L 307.703166 290.706642 
L 309.333579 287.490395 
L 312.382664 282.00879 
L 313.568419 280.41465 
L 317.464471 275.184751 
L 318.713749 273.394839 
L 319.963027 271.57696 
L 321.19113 269.954853 
L 324.240215 266.570801 
L 325.743583 264.948693 
L 329.173803 260.921392 
L 332.498152 256.530514 
L 333.874475 254.656701 
L 335.483714 253.202397 
L 337.389392 251.776061 
L 338.956283 250.098019 
L 340.396128 248.419977 
L 341.857148 246.769902 
L 343.805174 244.616414 
L 345.350891 242.882437 
L 347.934143 239.666189 
L 349.945692 236.142301 
L 351.554931 232.814183 
L 351.830195 231.080206 
L 351.893718 230.045414 
L 352.190157 228.031763 
L 352.253679 226.185916 
L 352.041937 223.025603 
L 351.745499 220.844148 
L 351.512582 219.753421 
L 351.110273 216.229532 
L 350.686789 213.181089 
L 350.707963 211.055569 
L 351.766673 201.686499 
L 352.147808 199.533011 
L 353.375912 193.7997 
L 353.841744 190.275812 
L 354.349925 187.283303 
L 355.069848 184.234859 
L 355.387461 182.612752 
L 355.768596 181.494057 
L 356.912003 175.984485 
L 357.864842 173.047911 
L 359.389384 170.027435 
L 361.655023 166.587448 
L 363.010172 165.161112 
L 365.360508 163.259331 
L 370.548187 158.980323 
L 374.55011 155.931879 
L 382.257519 151.233361 
L 384.036151 149.918895 
L 384.692551 149.21971 
L 385.306603 148.352722 
L 386.979365 144.800866 
L 387.254629 143.822008 
L 387.3605 142.899084 
L 387.275804 140.801532 
L 386.958191 139.738771 
L 386.471184 138.592109 
L 386.174745 137.501382 
L 385.581868 136.830165 
L 385.010164 135.739437 
L 384.671377 134.732612 
L 384.057325 133.893591 
L 383.358577 133.250341 
L 381.389376 132.215549 
L 379.44135 131.544332 
L 377.175711 131.096854 
L 375.227685 131.068886 
L 372.686781 131.544332 
L 371.77629 131.796038 
L 369.320083 132.802863 
L 367.520276 133.893591 
L 363.814792 136.438622 
L 362.036159 137.641219 
L 361.125668 138.256501 
L 357.970713 140.997303 
L 357.166093 141.640553 
L 353.439434 143.486399 
L 351.173795 144.073714 
L 348.696414 144.297453 
L 345.49911 144.045747 
L 344.461574 143.766073 
L 342.640593 142.955019 
L 341.476012 142.31177 
L 340.586696 141.472748 
L 337.219998 139.01162 
L 336.669469 138.424305 
L 336.245985 137.809023 
L 335.695456 136.186915 
L 335.356669 134.089362 
L 335.610759 132.439287 
L 337.156476 128.356051 
L 337.728179 125.950857 
L 338.871586 123.601598 
L 340.75609 120.49722 
L 342.407677 118.539504 
L 344.355703 116.721625 
L 352.423073 106.821175 
L 353.206518 106.094024 
L 355.196893 103.632895 
L 357.39901 99.633561 
L 358.838855 97.73178 
L 359.982262 95.941868 
L 360.448094 94.85114 
L 360.575139 92.865457 
L 362.353772 89.872948 
L 362.777256 88.89409 
L 363.094869 87.635559 
L 363.899488 85.677843 
L 364.280624 85.006626 
L 365.064069 83.356551 
L 365.783992 81.902247 
L 367.054444 76.97999 
L 367.202663 75.973165 
L 367.901412 73.79171 
L 368.007283 71.973831 
L 367.901412 71.218712 
L 366.355695 67.527018 
L 366.016908 66.883769 
L 365.381682 66.044748 
L 365.085244 65.121825 
L 362.925475 61.094523 
L 362.39612 60.423306 
L 360.977449 59.220709 
L 360.109307 58.745264 
L 359.36821 58.185916 
L 353.206518 51.921225 
L 351.766673 50.718628 
L 350.432698 49.432129 
L 348.802285 48.313434 
L 348.124711 47.586283 
L 342.852335 44.034427 
L 342.06889 43.586949 
L 339.337418 42.524188 
L 336.711818 41.209722 
L 335.589585 39.979158 
L 334.912011 39.475745 
L 334.14974 39.196071 
L 332.307584 38.832495 
L 329.173803 38.776561 
L 328.157441 38.552822 
L 326.315286 37.797703 
L 325.42597 37.350225 
L 324.409608 37.098518 
L 322.228666 36.958682 
L 319.137233 37.014616 
L 318.374962 36.902747 
L 317.570342 36.902747 
L 315.64349 37.210388 
L 313.653116 37.266323 
L 312.657928 37.322257 
L 311.789786 37.126486 
L 310.879296 37.29429 
L 309.18536 37.154453 
L 308.423088 36.679008 
L 304.272946 35.476411 
L 303.341281 35.532346 
L 302.219048 35.895921 
L 301.477951 35.448443 
L 300.143977 33.266989 
L 299.65697 32.791543 
L 298.831177 32.847478 
L 297.137241 32.427967 
L 295.31626 32.455935 
L 293.60115 32.595772 
L 292.013085 33.071217 
L 291.187291 33.518695 
L 289.472181 33.938205 
L 288.752258 34.050075 
L 287.799419 34.721292 
L 287.270064 35.532346 
L 286.952451 36.790877 
L 285.830219 38.217213 
L 284.983251 38.776561 
L 283.628102 39.95119 
L 282.040037 42.272482 
L 281.129547 44.118329 
L 280.833108 45.097187 
L 280.028488 47.222707 
L 279.456785 48.78888 
L 279.32974 50.774563 
L 279.160346 51.501715 
L 279.350914 52.816181 
L 279.964966 54.941701 
L 280.007314 56.75958 
L 280.113185 57.710471 
L 281.04485 60.982654 
L 281.256592 61.737773 
L 281.658902 62.213218 
L 282.230605 62.660696 
L 283.56458 63.220043 
L 284.686812 63.443782 
L 286.973625 64.786216 
L 287.50298 65.177759 
L 288.328774 65.513368 
L 289.218091 65.653205 
L 289.980362 66.01678 
L 290.869678 66.044748 
L 293.558801 65.681172 
L 294.426943 65.681172 
L 295.273911 65.932878 
L 297.28546 66.156617 
L 299.445228 66.883769 
L 301.033293 67.527018 
L 302.875449 68.310105 
L 303.658894 68.813518 
L 304.929346 69.876278 
L 305.395178 70.435625 
L 305.712791 71.050907 
L 308.888921 75.162111 
L 310.836947 79.245347 
L 312.234444 83.664192 
L 312.446186 84.671017 
L 312.255618 86.936374 
L 310.985167 95.214716 
L 311.027515 97.172432 
L 311.281605 97.927551 
L 311.683915 98.514866 
L 312.065051 99.32592 
L 312.657928 101.367538 
L 314.542432 103.968503 
L 315.135309 105.562644 
L 315.452922 106.34573 
L 315.939929 107.072882 
L 316.786897 111.7714 
L 316.977465 112.83416 
L 317.040987 116.190245 
L 316.871594 117.19707 
L 315.283529 122.175262 
L 314.521258 124.468587 
L 314.521258 125.335575 
L 313.864858 127.349226 
L 312.509709 129.614583 
L 311.662741 130.2858 
L 309.502973 133.58595 
L 307.216159 136.830165 
L 305.395178 138.256501 
L 303.680068 138.843816 
L 302.197874 139.822674 
L 301.541474 140.437956 
L 296.099705 143.933877 
L 294.51164 144.521192 
L 293.685846 144.744931 
L 292.097781 145.416148 
L 290.636762 145.695822 
L 289.154568 146.422973 
L 288.3076 146.730614 
L 285.512606 148.128983 
L 283.797496 148.604428 
L 281.976515 149.303612 
L 277.487585 150.39434 
L 276.725313 150.674014 
L 275.179597 151.904578 
L 273.676229 153.358881 
L 272.4693 154.22587 
L 269.102602 158.197237 
L 267.726279 160.210887 
L 265.46064 164.741601 
L 264.169014 168.740936 
L 263.195001 173.215715 
L 262.326858 175.257333 
L 261.8822 176.096354 
L 259.76478 179.11683 
L 259.341296 179.843982 
L 258.748419 180.627068 
L 258.028496 181.35422 
L 254.450057 183.759414 
L 253.624263 184.206892 
L 252.015024 184.878109 
L 247.801358 186.723955 
L 243.566519 187.982487 
L 239.374027 189.296954 
L 237.489524 189.688497 
L 233.868736 191.478409 
L 231.052567 192.988647 
L 228.638709 194.498885 
L 226.161328 196.232862 
L 218.898577 202.385683 
L 218.263351 203.112835 
L 216.823506 204.483236 
L 216.167106 205.126486 
L 214.536693 207.335908 
L 213.583854 208.818179 
L 211.44526 212.677676 
L 210.428898 214.495555 
L 209.412537 216.061728 
L 208.607917 217.543999 
L 208.015039 218.942367 
L 207.485684 219.949193 
L 206.172884 221.878941 
L 205.728226 223.16544 
L 204.817735 225.542667 
L 204.373077 227.919893 
L 204.140161 228.647045 
L 201.154599 234.939704 
L 200.392328 236.78555 
L 197.42794 242.127318 
L 195.797527 247.63689 
L 195.141127 250.657366 
L 193.870675 253.202397 
L 192.557875 255.244015 
L 191.372119 256.782221 
L 190.419281 258.096687 
L 189.847577 258.823839 
L 188.788867 260.417979 
L 184.871641 265.060563 
L 183.029485 267.242018 
L 179.281652 270.430298 
L 177.60889 271.297286 
L 174.221019 272.723622 
L 169.28743 275.772066 
L 166.323043 277.869619 
L 163.88801 280.274813 
L 163.316306 280.973997 
L 161.452977 284.190245 
L 160.733054 285.84032 
L 159.780215 288.581122 
L 159.441428 290.343066 
L 158.721505 293.92289 
L 158.552112 295.684834 
L 158.573286 297.670518 
L 159.886086 305.557316 
L 160.119003 306.396338 
L 160.394267 309.13714 
L 160.224874 315.597603 
L 159.335557 317.946862 
L 157.048744 322.841152 
L 156.138253 324.491227 
L 151.966936 328.993974 
L 150.400045 329.916897 
L 149.087245 330.699983 
L 147.541529 331.566972 
L 145.805244 332.378026 
L 141.760972 334.615415 
L 139.495333 335.454436 
L 138.563668 335.818012 
L 135.006403 337.831663 
L 133.291293 338.614749 
L 130.792738 339.845314 
L 129.183499 340.600433 
L 127.214298 341.411487 
L 123.360594 342.949692 
L 122.788891 343.229366 
L 118.956361 345.914233 
L 116.33076 347.955852 
L 115.504966 348.207558 
L 114.636824 348.655036 
L 112.561753 350.389013 
L 110.994862 352.710305 
L 109.576191 353.856967 
L 108.919791 354.556151 
L 107.501119 355.730781 
L 105.108435 358.331746 
L 104.430861 358.891094 
L 102.736925 360.513201 
L 102.292267 361.352222 
L 101.297079 362.498885 
L 99.243182 365.603263 
L 95.347129 372.511204 
L 94.203723 375.168104 
L 93.780239 376.146962 
L 92.763877 377.852972 
L 92.107477 379.586949 
L 91.472251 381.600599 
L 90.985245 382.579457 
L 90.201799 385.20839 
L 89.947709 386.9144 
L 89.947709 388.900083 
L 89.524225 391.053571 
L 89.312483 393.095189 
L 88.867825 395.360546 
L 88.529038 397.961512 
L 89.545399 402.184585 
L 89.735967 406.016115 
L 90.413541 408.756917 
L 90.371193 409.651873 
L 90.858199 412.224871 
L 91.11229 414.182587 
L 92.192174 417.958182 
L 92.912097 418.881105 
L 94.076678 421.342234 
L 94.267245 422.097353 
L 94.648381 423.048244 
L 94.923645 424.222873 
L 94.965994 425.089862 
L 95.347129 427.047578 
L 96.702278 431.326586 
L 97.019891 433.08853 
L 97.443375 435.633561 
L 97.697465 438.150624 
L 98.099775 439.548993 
L 98.290343 442.541502 
L 98.22682 443.548327 
L 98.417388 445.953521 
L 98.269169 446.70864 
L 97.464549 448.694323 
L 97.019891 449.36554 
L 94.351942 455.070884 
L 93.441452 456.49722 
L 92.658006 458.063393 
L 92.382742 458.846479 
L 91.895735 460.720293 
L 90.900548 462.594107 
L 89.587747 464.411986 
L 87.724418 466.957017 
L 86.453966 469.697819 
L 85.924611 470.508873 
L 83.828365 472.746263 
L 80.885152 475.850641 
L 79.551177 476.941368 
L 77.412583 479.710138 
L 75.168118 481.555985 
L 72.161382 484.520526 
L 70.721537 485.33158 
L 69.302865 486.450275 
L 63.395264 488.911403 
L 61.743677 489.862294 
L 57.085353 493.358215 
L 53.019907 497.133811 
L 51.304797 499.399168 
L 50.669571 499.846646 
L 49.928474 499.650874 
L 49.314422 499.343233 
L 48.742719 498.83982 
L 47.959273 498.727951 
L 45.333673 499.091527 
L 44.338485 499.399168 
L 40.992962 501.161112 
L 38.833194 501.916231 
L 38.028574 502.056068 
L 35.530019 502.056068 
L 34.57718 502.167937 
L 33.687864 502.13997 
L 31.655141 501.804362 
L 30.935218 501.860296 
L 30.363514 501.748427 
L 29.135411 501.105177 
L 27.822611 500.042417 
L 27.250907 499.427135 
L 26.467462 498.140636 
L 26.171023 497.385517 
L 25.556971 496.406659 
L 25.556971 493.218379 
L 25.324055 491.596271 
L 25.302881 490.701315 
L 25.578146 488.939371 
L 26.107501 486.674014 
L 26.700378 485.527351 
L 27.589694 484.632396 
L 28.648404 483.73744 
L 29.834159 483.317929 
L 32.502108 482.730614 
L 33.137334 482.422973 
L 34.915967 480.549159 
L 35.868806 479.122823 
L 38.303839 476.130315 
L 39.849555 473.809023 
L 40.675349 472.997969 
L 41.670536 472.24285 
L 43.406821 470.704645 
L 44.952537 469.446113 
L 45.92655 468.383353 
L 46.286512 467.740103 
L 46.561776 466.873115 
L 46.794692 464.999301 
L 47.048783 464.04841 
L 47.535789 463.265324 
L 48.192189 462.510205 
L 49.060332 461.978825 
L 50.034345 461.699151 
L 50.987184 461.587282 
L 51.368319 461.167771 
L 51.516539 460.636391 
L 50.754268 458.315099 
L 50.521351 457.476078 
L 49.949648 456.832828 
L 48.065144 455.126819 
L 46.032421 453.085201 
L 44.317311 452.106343 
L 42.115195 450.232529 
L 39.214329 449.085866 
L 36.376987 448.358715 
L 36.376987 448.358715 
" clip-path="url(#p1de7103b49)" style="fill: none; stroke: #000000; stroke-width: 3"/>
   </g>
  </g>
 </g>
 <defs>
  <clipPath id="p1de7103b49">
   <rect x="7.2" y="7.2" width="398.263381" height="554.4"/>
  </clipPath>
 </defs>
</svg>
