<?xml version="1.0" encoding="utf-8" standalone="no"?>
<!DOCTYPE svg PUBLIC "-//W3C//DTD SVG 1.1//EN"
  "http://www.w3.org/Graphics/SVG/1.1/DTD/svg11.dtd">
<svg xmlns:xlink="http://www.w3.org/1999/xlink" width="550.83046pt" height="568.8pt" viewBox="0 0 550.83046 568.8" xmlns="http://www.w3.org/2000/svg" version="1.1">
 <metadata>
  <rdf:RDF xmlns:dc="http://purl.org/dc/elements/1.1/" xmlns:cc="http://creativecommons.org/ns#" xmlns:rdf="http://www.w3.org/1999/02/22-rdf-syntax-ns#">
   <cc:Work>
    <dc:type rdf:resource="http://purl.org/dc/dcmitype/StillImage"/>
    <dc:date>2022-09-04T05:16:37.488894</dc:date>
    <dc:format>image/svg+xml</dc:format>
    <dc:creator>
     <cc:Agent>
      <dc:title>Matplotlib v3.5.3, https://matplotlib.org/</dc:title>
     </cc:Agent>
    </dc:creator>
   </cc:Work>
  </rdf:RDF>
 </metadata>
 <defs>
  <style type="text/css">*{stroke-linejoin: round; stroke-linecap: butt}</style>
 </defs>
 <g id="figure_1">
  <g id="patch_1">
   <path d="M 0 568.8 
L 550.83046 568.8 
L 550.83046 0 
L 0 0 
z
" style="fill: #ffffff"/>
  </g>
  <g id="axes_1">
   <g id="LineCollection_1">
    <path d="M 519.247257 121.895327 
L 516.693351 124.046937 
L 514.623806 127.361578 
L 512.818458 129.803946 
L 511.277308 132.246314 
L 509.207763 136.258775 
L 507.798711 139.457113 
L 505.905297 143.120665 
L 503.615588 146.319003 
L 501.105714 150.331464 
L 498.948104 152.599377 
L 490.934121 163.764486 
L 488.77651 167.253583 
L 486.750998 170.800831 
L 482.567875 177.430114 
L 480.49833 180.570301 
L 478.208621 183.710488 
L 474.81809 190.979439 
L 466.407811 204.179855 
L 465.262957 208.017861 
L 463.589708 211.448806 
L 461.608228 214.821599 
L 459.582716 217.554725 
L 457.997533 220.694912 
L 454.783133 225.870405 
L 452.977785 229.359502 
L 451.744865 232.150779 
L 449.98355 234.127934 
L 448.046104 235.523572 
L 446.901249 236.628453 
L 445.448164 238.198546 
L 444.083145 240.233853 
L 442.762159 243.374039 
L 441.573272 246.514226 
L 440.428417 249.131049 
L 438.667102 252.561994 
L 436.245294 256.574455 
L 434.924308 259.540187 
L 433.295092 262.854829 
L 431.533777 266.111319 
L 429.904561 269.484112 
L 428.187279 272.682451 
L 426.293865 275.880789 
L 424.796748 279.428037 
L 419.688934 289.662721 
L 418.191817 293.151817 
L 416.562601 296.524611 
L 414.757253 299.664798 
L 410.2659 305.131049 
L 403.969199 315.074974 
L 401.327227 320.71568 
L 399.213649 323.681412 
L 397.056038 327.170509 
L 394.281967 330.310696 
L 392.344521 333.916096 
L 388.0293 340.603531 
L 386.267985 344.150779 
L 382.128895 351.07082 
L 380.36758 354.850675 
L 378.386101 358.456075 
L 376.360589 361.828868 
L 374.819438 365.550571 
L 371.869236 373.284735 
L 369.975822 377.06459 
L 368.082409 380.32108 
L 366.40916 383.984631 
L 365.088173 387.938941 
L 363.19476 391.660644 
L 361.433445 395.556802 
L 359.451966 399.394808 
L 350.909589 413.293043 
L 344.921118 423.876636 
L 343.203836 427.482035 
L 340.077502 434.750986 
L 338.140056 437.949325 
L 335.674215 440.682451 
L 333.780802 443.415576 
L 332.547881 446.613915 
L 331.094796 449.637799 
L 330.038008 452.487227 
L 328.937186 455.10405 
L 327.660232 457.430114 
L 324.754063 461.733333 
L 322.860649 463.76864 
L 321.231433 466.036552 
L 318.677527 468.769678 
L 314.802634 474.410384 
L 313.657779 476.969055 
L 311.98453 480.167394 
L 310.399347 483.540187 
L 307.977539 486.215161 
L 301.901002 494.530841 
L 300.359852 497.496573 
L 299.347096 501.276428 
L 298.070143 504.823676 
L 296.220762 508.196469 
L 294.019118 511.743718 
L 292.037639 515.407269 
L 290.232291 519.012669 
L 288.955338 522.908827 
L 287.238056 526.107165 
L 285.829004 529.479958 
L 285.432708 533.317965 
L 283.319131 535.527726 
L 280.721191 536.05109 
L 276.053707 536.4 
L 273.984162 535.644029 
L 271.077992 533.666874 
L 267.863593 531.282658 
L 261.038497 525.990862 
L 257.515868 522.850675 
L 250.382543 513.895327 
L 241.003541 505.463344 
L 240.078851 504.881828 
L 237.92124 510.75514 
L 235.763629 512.034476 
L 234.09038 513.430114 
L 231.492441 513.488266 
L 229.422896 513.139356 
L 226.692858 512.848598 
L 221.452946 513.255659 
L 206.261605 515.058359 
L 203.619633 515.698027 
L 199.700707 516.105088 
L 196.970669 516.686604 
L 193.668204 515.930633 
L 191.026231 514.302388 
L 188.516358 512.267082 
L 186.050517 510.580685 
L 183.320479 509.185047 
L 178.608962 505.69595 
L 175.658759 503.776947 
L 170.286749 501.043821 
L 161.87647 495.519418 
L 160.247254 494.181931 
L 156.372361 490.576532 
L 151.484713 487.145587 
L 149.855496 485.633645 
L 147.213524 483.830945 
L 145.01188 483.074974 
L 142.413941 483.423884 
L 140.036166 482.667913 
L 136.161273 481.155971 
L 134.57609 480.4 
L 133.034939 479.527726 
L 131.317657 478.015784 
L 128.499553 475.68972 
L 125.285154 473.247352 
L 118.151829 468.362617 
L 114.585166 466.036552 
L 107.716038 462.140395 
L 96.795886 454.289927 
L 91.115645 449.405192 
L 86.448161 447.311734 
L 61.789753 436.786293 
L 58.267123 433.180893 
L 50.605403 424.341848 
L 45.409524 419.166355 
L 41.842862 415.328349 
L 38.540396 413.293043 
L 35.722293 410.734372 
L 34.665504 410.094704 
L 32.992255 407.594185 
L 31.583203 405.209969 
L 32.551926 405.500727 
L 33.168386 405.209969 
L 33.608715 404.279543 
L 34.137109 402.825753 
L 34.75357 401.488266 
L 35.105832 400.150779 
L 35.414063 397.243198 
L 35.414063 397.243198 
L 34.841635 395.84756 
L 34.577438 395.266044 
L 34.137109 394.568224 
L 33.828879 393.812253 
L 33.828879 393.812253 
L 53.907869 369.388577 
L 53.907869 369.388577 
L 78.081915 338.858982 
L 73.018135 331.124818 
L 72.665872 328.507996 
L 73.590562 326.937902 
L 82.793433 325.658567 
L 85.567504 327.461267 
L 87.769147 329.72918 
L 90.279021 331.880789 
L 91.688073 332.346002 
L 93.273256 332.229699 
L 93.977782 330.950363 
L 94.550209 328.915057 
L 94.858439 325.484112 
L 94.418111 322.227622 
L 93.845683 315.191277 
L 98.204938 308.154933 
L 102.564192 301.641952 
L 108.860893 292.977362 
L 111.106569 287.220353 
L 114.453067 283.84756 
L 117.051007 279.486189 
L 118.592157 275.590031 
L 119.516848 272.100935 
L 125.549351 258.377155 
L 127.53083 254.94621 
L 129.600375 251.922326 
L 136.029175 238.838214 
L 136.821766 234.36054 
L 136.337405 229.475805 
L 135.280616 224.300312 
L 138.40695 219.764486 
L 139.727936 216.624299 
L 141.753448 213.018899 
L 142.54604 208.948287 
L 143.646861 206.447767 
L 145.848505 202.726064 
L 148.006116 199.760332 
L 150.780187 196.852752 
L 154.567014 193.363655 
L 156.240263 190.223468 
L 157.385117 186.211007 
L 159.058366 178.127934 
L 160.819681 172.894289 
L 162.713095 169.870405 
L 166.587988 163.18297 
L 168.217204 157.425961 
L 169.758354 155.274351 
L 172.576458 153.587954 
L 174.822135 151.785254 
L 176.495384 149.168432 
L 178.74106 143.120665 
L 180.018013 140.387539 
L 182.836117 137.305504 
L 184.949695 134.514226 
L 186.843109 132.47892 
L 190.057508 129.862098 
L 192.963678 126.838214 
L 194.98919 123.523572 
L 197.939392 120.150779 
L 202.474778 112.59107 
L 204.896586 108.055244 
L 207.538558 103.810177 
L 210.400695 99.681412 
L 212.77847 95.6108 
L 215.728672 90.842368 
L 220.220025 82.701142 
L 224.88751 75.141433 
L 226.73689 72.466459 
L 229.290797 67.988785 
L 233.121657 59.905711 
L 234.882972 55.776947 
L 236.159925 52.404154 
L 238.22947 48.740602 
L 241.003541 45.135202 
L 243.205184 42.692835 
L 246.859913 39.785254 
L 248.621228 38.796677 
L 250.602707 36.121703 
L 252.628219 33.155971 
L 254.521632 32.4 
L 256.150849 33.097819 
L 258.308459 34.377155 
L 260.201873 36.993977 
L 261.787056 38.796677 
L 262.799812 39.203738 
L 263.724503 39.436345 
L 263.724503 39.436345 
" clip-path="url(#p3574955a04)" style="fill: none; stroke: #000000; stroke-width: 3"/>
   </g>
  </g>
 </g>
 <defs>
  <clipPath id="p3574955a04">
   <rect x="7.2" y="7.2" width="536.43046" height="554.4"/>
  </clipPath>
 </defs>
</svg>
