<?xml version="1.0" encoding="utf-8" standalone="no"?>
<!DOCTYPE svg PUBLIC "-//W3C//DTD SVG 1.1//EN"
  "http://www.w3.org/Graphics/SVG/1.1/DTD/svg11.dtd">
<svg xmlns:xlink="http://www.w3.org/1999/xlink" width="320.820238pt" height="568.8pt" viewBox="0 0 320.820238 568.8" xmlns="http://www.w3.org/2000/svg" version="1.1">
 <metadata>
  <rdf:RDF xmlns:dc="http://purl.org/dc/elements/1.1/" xmlns:cc="http://creativecommons.org/ns#" xmlns:rdf="http://www.w3.org/1999/02/22-rdf-syntax-ns#">
   <cc:Work>
    <dc:type rdf:resource="http://purl.org/dc/dcmitype/StillImage"/>
    <dc:date>2022-09-04T05:16:37.064214</dc:date>
    <dc:format>image/svg+xml</dc:format>
    <dc:creator>
     <cc:Agent>
      <dc:title>Matplotlib v3.5.3, https://matplotlib.org/</dc:title>
     </cc:Agent>
    </dc:creator>
   </cc:Work>
  </rdf:RDF>
 </metadata>
 <defs>
  <style type="text/css">*{stroke-linejoin: round; stroke-linecap: butt}</style>
 </defs>
 <g id="figure_1">
  <g id="patch_1">
   <path d="M 0 568.8 
L 320.820238 568.8 
L 320.820238 0 
L 0 0 
z
" style="fill: #ffffff"/>
  </g>
  <g id="axes_1">
   <g id="LineCollection_1">
    <path d="M 280.228911 107.96318 
L 283.862509 110.386143 
L 284.815879 111.075025 
L 288.017762 112.500297 
L 291.255622 113.925569 
L 293.396207 114.638205 
L 294.583422 115.612141 
L 295.590756 115.754668 
L 296.759983 116.158496 
L 298.666723 117.655031 
L 299.278318 118.462686 
L 299.638081 119.579149 
L 299.692045 120.600594 
L 299.494176 121.693303 
L 299.062461 122.809766 
L 297.245662 126.040383 
L 296.562114 127.133091 
L 294.763303 130.933817 
L 294.133719 132.169053 
L 293.684017 133.689343 
L 291.435503 136.492379 
L 289.402847 138.867832 
L 288.791251 139.960541 
L 286.668654 142.193468 
L 285.859189 143.594985 
L 284.743927 146.801848 
L 283.142985 150.127483 
L 280.840507 153.975718 
L 280.660626 155.448499 
L 280.33684 157.087562 
L 279.041696 159.819334 
L 277.404778 162.266051 
L 275.641944 164.831541 
L 274.382776 166.090531 
L 272.655917 168.323458 
L 271.954381 169.48743 
L 272.06231 170.722666 
L 272.547989 171.815374 
L 272.098286 172.908083 
L 271.342786 173.953283 
L 269.130248 177.991554 
L 266.557949 181.079644 
L 262.132874 188.348532 
L 260.657849 191.27034 
L 257.581882 197.113956 
L 248.713745 212.934477 
L 247.958244 214.549786 
L 245.421921 218.92062 
L 244.37861 220.369647 
L 242.687728 223.220191 
L 238.640404 230.584098 
L 234.862901 239.254503 
L 233.369888 241.819993 
L 231.679006 244.57552 
L 223.926131 256.571561 
L 221.317855 262.22514 
L 218.637627 266.073375 
L 218.026031 267.474893 
L 217.198578 270.491719 
L 215.597636 273.199736 
L 214.878112 274.506236 
L 214.320481 275.812735 
L 213.546992 277.119235 
L 213.115277 278.496998 
L 212.971373 279.92227 
L 213.816814 283.176641 
L 213.618945 284.863213 
L 213.133266 286.288486 
L 212.305813 287.571231 
L 211.316467 288.735203 
L 209.481679 289.92293 
L 208.042631 291.229429 
L 207.269142 292.630947 
L 206.711511 293.984955 
L 205.6682 296.859254 
L 205.074593 298.308281 
L 204.121223 301.44388 
L 203.383711 302.96417 
L 201.872709 304.318179 
L 200.829399 305.600924 
L 196.782075 313.202375 
L 195.612848 315.506565 
L 194.965276 316.599274 
L 194.209775 317.596965 
L 193.256405 318.523392 
L 191.97925 319.497328 
L 191.079844 320.637545 
L 189.640796 323.274299 
L 185.881281 331.350841 
L 185.161756 333.916331 
L 182.715374 339.142329 
L 181.51017 342.277928 
L 182.17573 343.774464 
L 180.412896 345.294754 
L 177.498822 350.021907 
L 173.757295 351.257143 
L 171.346889 353.798878 
L 170.28559 355.200396 
L 168.57672 358.217222 
L 167.91116 359.856285 
L 166.256254 363.134411 
L 165.464777 364.797229 
L 162.58668 369.453118 
L 160.859821 372.636226 
L 159.942428 374.180271 
L 158.377462 377.410887 
L 156.578652 380.142659 
L 151.452041 388.931838 
L 149.041634 392.637545 
L 147.764478 395.606862 
L 146.99099 397.032135 
L 145.983656 399.621379 
L 145.551941 400.975388 
L 145.210167 404.989904 
L 144.922357 406.153877 
L 144.274785 407.104058 
L 144.364726 408.05424 
L 143.968987 409.075685 
L 141.792426 411.926229 
L 140.443318 412.686374 
L 139.38202 413.470274 
L 138.662495 414.467964 
L 136.252089 419.242626 
L 135.820374 420.454108 
L 134.255409 422.61577 
L 133.140146 423.755988 
L 131.719085 426.202705 
L 128.463238 433.352821 
L 127.419927 436.274629 
L 127.060165 437.866183 
L 123.624436 445.657671 
L 122.778995 447.890597 
L 120.746339 452.546486 
L 119.846934 453.496668 
L 118.695695 454.518113 
L 117.670372 455.70584 
L 114.036774 461.620719 
L 113.856893 462.998482 
L 113.209321 464.304982 
L 112.201987 465.540218 
L 111.752285 466.941735 
L 110.996784 468.343253 
L 110.007438 469.673507 
L 108.316556 472.429033 
L 106.481769 476.799868 
L 106.247923 478.415177 
L 105.834197 479.887958 
L 105.078696 481.194457 
L 104.251243 482.382184 
L 102.326516 484.638865 
L 100.581669 485.897855 
L 98.405108 488.320818 
L 96.786178 490.838799 
L 93.998021 495.589706 
L 92.343115 499.675487 
L 91.713531 500.649423 
L 91.101936 501.385813 
L 90.220518 503.024876 
L 89.339101 503.88004 
L 88.043957 504.663939 
L 86.49698 505.186539 
L 84.87805 505.424084 
L 83.295097 505.542857 
L 81.802083 505.851666 
L 80.416999 506.516793 
L 79.193808 507.348202 
L 78.096533 508.322138 
L 77.089199 509.723656 
L 76.297722 511.196437 
L 75.93796 512.716727 
L 75.901984 514.35579 
L 76.117841 515.92359 
L 76.909318 519.082943 
L 77.107187 520.722006 
L 76.711449 522.266051 
L 75.380329 524.784032 
L 74.98459 525.995513 
L 74.60684 526.708149 
L 73.94128 527.111976 
L 73.527553 526.755658 
L 72.808029 525.781722 
L 71.908624 524.950313 
L 70.811349 524.213923 
L 68.293014 522.978687 
L 66.961894 522.503596 
L 62.986522 521.434642 
L 61.799307 520.935797 
L 59.532805 519.724315 
L 57.266303 518.607852 
L 55.053766 517.325107 
L 52.841228 516.113626 
L 50.73662 514.545826 
L 48.667987 512.597954 
L 47.588701 511.220191 
L 46.581367 510.198746 
L 43.199602 507.918311 
L 41.041029 506.44553 
L 38.198908 503.690003 
L 37.263526 502.906104 
L 35.464715 501.599604 
L 34.709215 500.886968 
L 33.450047 499.247905 
L 31.669224 497.44256 
L 31.111593 496.682415 
L 30.230176 496.991224 
L 29.510651 497.109997 
L 29.096925 496.967469 
L 29.024972 496.492379 
L 29.312782 494.900825 
L 29.276806 494.544507 
L 28.988996 494.61577 
L 28.647222 494.972088 
L 27.190185 498.060178 
L 26.722494 499.27166 
L 25.769125 501.31455 
L 24.887707 503.286176 
L 21.685824 509.248565 
L 21.128193 510.887628 
L 22.153515 510.174992 
L 25.535279 507.633256 
L 26.524625 508.464665 
L 28.95302 509.961201 
L 32.478689 511.529 
L 33.665904 511.909073 
L 34.637262 512.692973 
L 35.932406 513.476872 
L 36.921752 513.714418 
L 43.163626 518.204025 
L 44.116996 518.987925 
L 45.358175 519.843088 
L 46.599355 520.508215 
L 47.804558 520.959551 
L 49.027749 521.624678 
L 51.312239 523.453778 
L 53.434836 525.496668 
L 54.316253 526.66064 
L 57.320267 529.273639 
L 61.079782 531.720356 
L 63.598117 533.644474 
L 66.350298 536.091191 
L 67.37562 536.4 
L 68.32899 536.328736 
L 69.102479 535.972418 
L 71.620814 533.003101 
L 72.915958 531.411547 
L 74.03122 527.872121 
L 74.858673 526.256813 
L 75.398317 525.544177 
L 75.991924 524.997823 
L 76.621508 524.87905 
L 77.682807 524.09515 
L 80.003273 522.598614 
L 81.118535 521.482151 
L 82.287762 520.128143 
L 83.331073 518.631607 
L 84.158526 517.063807 
L 84.608228 515.40099 
L 84.626217 513.928209 
L 84.230478 512.5742 
L 83.600894 511.338964 
L 81.892024 509.177301 
L 78.88801 504.61643 
L 78.456295 503.642494 
L 78.31239 502.644804 
L 78.636176 501.623359 
L 79.085879 500.601914 
L 79.697475 498.060178 
L 79.229784 496.777433 
L 80.021261 492.501617 
L 80.470963 491.028835 
L 80.794749 489.5323 
L 80.488952 488.2258 
L 79.769427 486.064137 
L 80.075225 483.451138 
L 80.021261 482.120884 
L 79.751439 480.980666 
L 79.84138 476.348532 
L 80.129189 475.208314 
L 80.21913 473.949324 
L 79.949308 471.122534 
L 79.84138 467.678126 
L 79.93132 466.395381 
L 79.535582 461.668228 
L 79.463629 458.200066 
L 78.780081 454.518113 
L 78.438307 449.672187 
L 78.528248 447.819334 
L 78.402331 443.543517 
L 77.736771 436.559683 
L 77.215116 433.851666 
L 77.035235 431.119894 
L 77.053223 428.673177 
L 77.197128 425.917651 
L 77.772747 421.736853 
L 78.51026 413.755328 
L 78.402331 409.764566 
L 78.060557 406.462686 
L 77.64683 402.115605 
L 77.55689 400.001452 
L 77.772747 394.585417 
L 78.22245 390.903464 
L 78.22245 388.765556 
L 78.366355 387.00772 
L 78.420319 383.325767 
L 78.852034 379.548796 
L 79.031915 375.843088 
L 79.211796 374.44157 
L 79.679487 372.992544 
L 80.399011 371.757308 
L 81.442321 370.545826 
L 82.449655 369.666909 
L 83.780775 367.932827 
L 83.92468 366.341274 
L 83.385037 364.345892 
L 82.683501 363.18192 
L 81.945988 357.362059 
L 82.017941 353.822633 
L 82.233798 348.477862 
L 81.676167 342.776773 
L 81.478298 341.969119 
L 80.956642 340.971429 
L 80.866702 339.379875 
L 80.524928 338.500957 
L 80.075225 336.719367 
L 79.55357 335.436622 
L 79.121855 333.512504 
L 79.193808 329.830551 
L 78.852034 328.215242 
L 78.905998 324.034444 
L 78.97795 319.212273 
L 78.870022 317.691983 
L 78.636176 316.385483 
L 78.51026 312.751039 
L 78.762093 304.175652 
L 79.679487 290.279248 
L 80.416999 284.26935 
L 80.830726 282.321478 
L 80.97463 280.896206 
L 80.848714 279.708479 
L 83.600894 273.437281 
L 84.284442 271.465655 
L 84.842074 269.684065 
L 88.097922 260.96615 
L 88.5836 259.255823 
L 89.465018 257.450478 
L 90.418388 255.953943 
L 91.137912 254.362389 
L 92.055305 252.723326 
L 94.267843 249.350181 
L 96.264523 245.83451 
L 98.495048 242.508875 
L 101.732908 239.016958 
L 103.927457 235.548796 
L 106.032066 231.866843 
L 114.27062 215.262422 
L 121.987518 201.48479 
L 123.372603 199.798218 
L 124.757687 198.301683 
L 125.854962 196.923919 
L 128.679095 192.719367 
L 129.758381 191.27034 
L 131.341335 187.92095 
L 132.060859 186.210624 
L 133.751742 182.980007 
L 136.773744 178.157836 
L 137.727114 176.376245 
L 140.335389 171.031475 
L 142.260117 167.468294 
L 143.249463 165.734213 
L 144.976321 162.05226 
L 145.821763 160.199406 
L 148.735836 154.925899 
L 149.833111 153.191818 
L 154.366114 144.545167 
L 155.193567 142.668558 
L 159.025034 135.233388 
L 160.500059 132.002771 
L 161.291536 130.910063 
L 161.831179 130.363708 
L 162.190942 130.316199 
L 162.136977 130.316199 
L 164.637324 125.589047 
L 167.425481 121.075685 
L 168.702637 118.652722 
L 169.889852 116.681095 
L 170.321567 115.730914 
L 170.321567 115.825932 
L 173.757295 109.839789 
L 173.81126 108.675817 
L 174.710665 106.110327 
L 175.753976 104.043682 
L 176.689357 101.715737 
L 178.542132 98.48512 
L 181.096444 92.950313 
L 181.726028 90.646123 
L 183.740696 86.394061 
L 185.683412 83.187199 
L 187.392282 79.814055 
L 188.147782 78.745101 
L 188.795354 78.151237 
L 189.910617 77.272319 
L 190.180439 75.799538 
L 190.989904 74.39802 
L 191.817357 72.87773 
L 192.464929 71.381194 
L 193.724096 69.124513 
L 194.533561 67.390432 
L 195.343026 66.440251 
L 196.278408 66.273969 
L 196.872015 65.846387 
L 197.951302 63.946024 
L 198.706802 61.950643 
L 199.228457 61.190498 
L 199.858041 60.501617 
L 200.721471 59.05259 
L 201.926674 56.985945 
L 202.394365 56.605873 
L 202.430341 56.677136 
L 206.135891 45.607522 
L 205.542284 45.512504 
L 203.779449 44.491059 
L 202.214484 43.493369 
L 201.225138 43.445859 
L 200.271768 43.18456 
L 199.084553 43.13705 
L 197.699468 43.612141 
L 196.566217 43.730914 
L 195.361014 43.422105 
L 192.357 41.35546 
L 191.529547 40.785351 
L 190.07251 40.975388 
L 189.155117 40.09647 
L 186.852639 36.960871 
L 186.259031 35.678126 
L 185.215721 36.295744 
L 184.262351 36.01069 
L 183.398922 35.108017 
L 182.283659 34.300363 
L 180.646741 33.4452 
L 180.286979 32.946354 
L 179.297633 32.471264 
L 178.398228 32.447509 
L 177.013143 34.656681 
L 176.509476 35.74939 
L 175.268297 39.288816 
L 174.710665 40.381524 
L 173.541438 44.18225 
L 173.199664 45.678786 
L 172.642033 47.222831 
L 169.512102 53.256483 
L 168.432815 55.275619 
L 167.965124 56.368327 
L 167.299564 57.247245 
L 166.777909 58.577499 
L 164.817205 61.238007 
L 162.784549 62.924579 
L 162.460763 63.708479 
L 161.291536 65.585087 
L 160.266214 67.580468 
L 159.600654 68.459386 
L 158.197581 69.908413 
L 157.550009 70.739822 
L 156.524687 73.994193 
L 155.553329 76.013329 
L 154.186233 79.338964 
L 149.095598 88.223161 
L 148.142229 89.26836 
L 146.595251 93.449159 
L 145.911703 95.111976 
L 145.947679 95.373276 
L 147.044954 96.299703 
L 149.041634 98.152557 
L 150.930385 99.435302 
L 152.945054 101.05061 
L 155.013686 102.190828 
L 156.290842 102.523392 
L 158.989058 103.022237 
L 161.777215 103.734873 
L 162.910466 103.924909 
L 165.158979 105.041372 
L 167.407493 106.276608 
L 169.440149 107.179281 
L 170.5734 107.654371 
L 171.616711 107.511844 
L 172.426175 107.678126 
L 173.379545 107.274299 
L 174.081081 107.274299 
L 174.278951 106.917981 
L 174.314927 105.801518 
L 174.422856 105.421445 
L 174.728653 105.255163 
L 174.710665 105.587727 
L 174.117058 107.084263 
L 173.217652 108.462026 
L 171.436829 110.908743 
L 171.041091 112.001452 
L 171.059079 112.571561 
L 171.131032 112.690333 
L 171.131032 112.690333 
L 174.980487 111.930188 
L 174.980487 112.025206 
L 174.153034 110.433652 
L 174.350903 110.172352 
L 174.278951 109.697262 
L 174.890546 109.412207 
L 175.646047 109.602243 
L 176.671369 110.219861 
L 179.981181 111.478852 
L 181.276325 111.597625 
L 182.571469 112.048961 
L 184.244363 111.882679 
L 185.593471 111.977697 
L 186.996544 112.310261 
L 188.849319 115.897196 
L 189.730736 117.156186 
L 195.846693 122.120884 
L 197.051896 122.881029 
L 198.275088 123.403629 
L 200.595554 124.710129 
L 201.926674 125.066447 
L 203.131877 125.517783 
L 205.596248 126.562983 
L 206.90938 127.109337 
L 208.186536 127.916991 
L 209.373751 128.843418 
L 210.578954 129.366018 
L 211.748181 130.031145 
L 214.122612 131.765226 
L 216.335149 133.641834 
L 218.403781 134.544507 
L 219.447092 135.185879 
L 221.425784 136.848697 
L 222.756904 136.611151 
L 225.275239 135.589706 
L 226.210621 134.520752 
L 227.092038 133.784362 
L 228.962801 132.05028 
L 230.509779 130.577499 
L 230.941493 128.843418 
L 230.869541 128.463345 
L 230.491791 128.012009 
L 230.437826 128.107027 
L 229.772266 129.389772 
L 227.811562 132.501617 
L 226.354526 135.755988 
L 226.138668 137.086242 
L 226.984109 138.582778 
L 228.261265 140.00805 
L 229.700314 140.649423 
L 231.049422 141.385813 
L 233.549769 143.262422 
L 237.830939 144.830221 
L 239.144071 145.614121 
L 241.554477 147.490729 
L 244.072813 149.177301 
L 246.555172 150.863873 
L 248.030197 151.505246 
L 250.872318 152.407918 
L 252.131485 152.621709 
L 253.282724 153.286836 
L 254.362011 154.118245 
L 256.430643 156.422435 
L 258.55324 157.895216 
L 261.88104 161.363378 
L 262.780446 162.05226 
L 264.129554 162.907423 
L 264.885054 163.57255 
L 265.892389 164.118905 
L 269.040308 165.235368 
L 269.561963 167.135731 
L 270.119594 167.943385 
L 271.324797 168.109667 
L 272.296155 167.990894 
L 272.81781 168.157176 
L 274.14893 166.898185 
L 274.778514 166.969449 
L 275.498039 167.302013 
L 276.703242 166.684395 
L 277.260873 165.829231 
L 278.825839 161.957242 
L 279.077672 160.413197 
L 279.599327 159.059188 
L 280.390804 157.918971 
L 281.308198 156.351171 
L 281.757901 155.020917 
L 284.725938 148.060838 
L 286.182975 145.875421 
L 291.435503 138.083933 
L 292.208992 137.038733 
L 292.712659 136.017288 
L 293.540112 133.808116 
L 294.421529 131.31389 
L 295.716673 127.370637 
L 296.274304 125.92161 
L 297.749329 123.546156 
L 298.468854 121.170703 
L 298.864592 120.196767 
L 299.116425 119.246585 
L 299.080449 118.415177 
L 298.59477 117.916331 
L 297.83927 117.607522 
L 296.921876 117.464995 
L 294.151707 116.419795 
L 292.173015 115.39835 
L 291.255622 114.780732 
L 289.366871 113.070406 
L 285.625344 110.481161 
L 283.089021 109.032135 
L 281.95577 107.986935 
L 280.606662 107.108017 
L 278.214243 105.373936 
L 277.045016 104.780073 
L 272.81781 103.378555 
L 269.184212 101.691983 
L 268.194866 101.05061 
L 267.223509 100.718047 
L 266.73783 100.242956 
L 266.665877 100.005411 
L 266.665877 100.005411 
" clip-path="url(#p8070d7b786)" style="fill: none; stroke: #000000; stroke-width: 3"/>
   </g>
  </g>
 </g>
 <defs>
  <clipPath id="p8070d7b786">
   <rect x="7.2" y="7.2" width="306.420238" height="554.4"/>
  </clipPath>
 </defs>
</svg>
