<?xml version="1.0" encoding="utf-8" standalone="no"?>
<!DOCTYPE svg PUBLIC "-//W3C//DTD SVG 1.1//EN"
  "http://www.w3.org/Graphics/SVG/1.1/DTD/svg11.dtd">
<svg xmlns:xlink="http://www.w3.org/1999/xlink" width="438.551195pt" height="568.8pt" viewBox="0 0 438.551195 568.8" xmlns="http://www.w3.org/2000/svg" version="1.1">
 <metadata>
  <rdf:RDF xmlns:dc="http://purl.org/dc/elements/1.1/" xmlns:cc="http://creativecommons.org/ns#" xmlns:rdf="http://www.w3.org/1999/02/22-rdf-syntax-ns#">
   <cc:Work>
    <dc:type rdf:resource="http://purl.org/dc/dcmitype/StillImage"/>
    <dc:date>2022-09-10T05:23:45.555753</dc:date>
    <dc:format>image/svg+xml</dc:format>
    <dc:creator>
     <cc:Agent>
      <dc:title>Matplotlib v3.5.3, https://matplotlib.org/</dc:title>
     </cc:Agent>
    </dc:creator>
   </cc:Work>
  </rdf:RDF>
 </metadata>
 <defs>
  <style type="text/css">*{stroke-linejoin: round; stroke-linecap: butt}</style>
 </defs>
 <g id="figure_1">
  <g id="patch_1">
   <path d="M 0 568.8 
L 438.551195 568.8 
L 438.551195 0 
L 0 0 
z
" style="fill: #ffffff"/>
  </g>
  <g id="axes_1">
   <g id="LineCollection_1">
    <path d="M 45.69942 480.860183 
L 47.210837 481.277328 
L 50.27879 481.78386 
L 51.339038 482.022229 
L 53.301625 483.06509 
L 56.662838 485.746734 
L 57.565177 486.551227 
L 60.024051 489.08389 
L 62.956652 491.169613 
L 65.708786 492.450842 
L 68.032309 493.136151 
L 70.942352 493.732072 
L 73.604252 494.059829 
L 75.611956 494.417381 
L 76.536853 494.655749 
L 78.65735 495.907183 
L 80.371794 497.396985 
L 82.379498 499.750872 
L 84.296969 502.074963 
L 86.19188 503.505173 
L 87.297246 504.041502 
L 88.380052 504.399054 
L 89.395184 504.250074 
L 90.229847 503.743541 
L 91.673589 502.343127 
L 92.84663 500.585161 
L 94.17758 497.605557 
L 94.47084 496.503104 
L 96.388311 492.301862 
L 97.854611 489.23287 
L 99.681848 483.601419 
L 100.516511 481.962637 
L 101.441409 480.264262 
L 103.403996 470.461366 
L 103.539347 468.077683 
L 103.49423 466.885841 
L 102.885151 463.727461 
L 101.238382 459.258055 
L 100.719538 458.185398 
L 96.117609 445.849837 
L 95.666439 444.836772 
L 94.989685 442.691457 
L 94.448282 441.440024 
L 93.974554 439.384097 
L 93.365475 437.268578 
L 92.756396 434.914691 
L 92.169876 431.964883 
L 92.034525 429.402424 
L 92.169876 428.359563 
L 92.057084 425.797103 
L 92.011967 423.204848 
L 92.440578 418.556666 
L 92.778955 416.024002 
L 93.342917 413.401951 
L 93.681294 412.299497 
L 93.748969 409.79663 
L 94.200139 407.472539 
L 94.854334 404.701508 
L 95.057361 403.152114 
L 95.50853 402.19864 
L 97.29065 400.023529 
L 98.080196 399.070056 
L 98.666716 398.056991 
L 99.05021 397.043926 
L 100.336043 395.256163 
L 101.531643 391.829619 
L 101.892578 390.727165 
L 102.343748 389.86308 
L 102.727242 388.790423 
L 102.997943 387.390009 
L 104.148426 384.380609 
L 105.366583 382.741827 
L 106.291481 380.775288 
L 106.923118 379.821815 
L 109.427108 377.020987 
L 111.47993 375.441797 
L 113.262049 374.130772 
L 114.074154 373.326278 
L 115.359987 371.538516 
L 116.533028 369.750754 
L 118.202355 368.082176 
L 120.819138 365.460124 
L 121.789152 364.804611 
L 124.022441 363.642566 
L 129.368799 361.646231 
L 133.903053 360.305409 
L 137.354499 359.828673 
L 139.429879 359.351936 
L 141.415025 358.517647 
L 144.911588 356.759681 
L 146.174863 356.342536 
L 147.235111 356.193556 
L 148.385593 356.193556 
L 149.603751 355.955188 
L 152.42356 354.942122 
L 156.190825 353.631097 
L 157.138281 353.213952 
L 158.78505 352.051907 
L 162.101145 349.191487 
L 164.424668 346.956784 
L 165.078864 346.152291 
L 165.484916 345.25841 
L 166.071437 343.053503 
L 167.334711 339.656754 
L 168.282167 336.408986 
L 168.620544 334.174283 
L 168.643103 331.999172 
L 168.53031 329.943246 
L 168.440076 324.371386 
L 168.327284 323.298729 
L 168.349842 322.345256 
L 168.259609 321.123618 
L 167.19936 316.415844 
L 167.131685 315.31339 
L 167.424945 308.937038 
L 168.868687 303.067218 
L 169.161948 301.905173 
L 170.109403 299.908838 
L 171.147093 297.9423 
L 173.10968 295.171268 
L 175.252735 292.012888 
L 176.200191 291.059415 
L 177.170206 290.284718 
L 178.320688 289.778185 
L 179.674196 289.36104 
L 181.862368 288.288383 
L 184.749853 286.709193 
L 186.892908 285.576944 
L 189.08108 284.62347 
L 192.081357 282.8953 
L 193.051371 282.537748 
L 194.021386 282.061011 
L 196.390026 279.558144 
L 197.630742 277.144664 
L 199.931706 274.731185 
L 200.76637 273.926692 
L 202.864308 271.334437 
L 203.428269 270.41076 
L 205.142713 266.060538 
L 205.954819 263.796039 
L 206.67669 262.008277 
L 207.398561 260.071534 
L 208.097874 257.687851 
L 208.616718 256.734378 
L 208.955096 255.751108 
L 209.135563 254.738043 
L 210.66954 250.864558 
L 212.451659 247.259237 
L 212.970504 246.275968 
L 213.33144 245.173515 
L 214.730065 241.74697 
L 215.609845 239.571859 
L 217.188939 236.532663 
L 218.091278 234.417145 
L 218.655239 233.314691 
L 220.86597 230.543659 
L 221.429932 229.530594 
L 222.377388 227.236299 
L 224.249741 224.107715 
L 224.791144 222.975466 
L 226.753732 220.08525 
L 228.129798 218.029323 
L 230.430763 215.854212 
L 233.295689 212.397872 
L 234.085236 211.742359 
L 234.942458 211.176234 
L 236.566668 209.62684 
L 237.469007 208.852143 
L 238.30367 207.868874 
L 240.356491 206.31948 
L 241.349064 205.693763 
L 243.424444 204.650902 
L 247.372177 202.565179 
L 249.605466 201.641502 
L 250.598038 201.105173 
L 251.432702 200.509252 
L 252.380158 200.092108 
L 257.997218 198.87047 
L 260.298182 198.304345 
L 262.26077 197.499852 
L 266.614555 195.831274 
L 268.712493 194.758617 
L 272.276732 192.464322 
L 274.600255 189.99125 
L 276.675634 187.071239 
L 277.32983 186.147561 
L 277.803558 185.25368 
L 278.299845 184.568371 
L 279.743587 181.082235 
L 281.976876 174.109962 
L 283.736437 169.819332 
L 285.180179 167.107892 
L 286.35322 165.141354 
L 287.593936 163.413184 
L 290.684447 159.927047 
L 292.534242 158.496837 
L 297.000819 157.334792 
L 299.008524 156.977239 
L 300.790643 156.649483 
L 305.076753 155.815194 
L 308.234939 154.831924 
L 310.535904 153.580491 
L 311.212658 153.014366 
L 312.904544 151.315992 
L 313.829441 150.869051 
L 314.934806 150.541295 
L 315.927379 150.064558 
L 316.897393 149.409045 
L 318.43137 148.127816 
L 319.175799 147.591487 
L 320.05558 147.11475 
L 320.6421 146.399645 
L 322.830272 144.641679 
L 323.732611 144.135146 
L 325.853108 142.406976 
L 326.507303 141.721667 
L 328.447332 140.142477 
L 328.943619 139.427372 
L 330.116659 138.146142 
L 330.54527 137.49063 
L 331.898779 133.974697 
L 332.598091 131.978362 
L 333.094378 129.713863 
L 333.545547 128.879574 
L 333.703457 128.104877 
L 334.064392 124.708129 
L 334.24486 123.844044 
L 334.718588 122.473426 
L 334.808822 121.847709 
L 334.741146 119.076678 
L 334.718588 117.646468 
L 334.53812 117.527283 
L 333.996717 116.663198 
L 333.387638 115.948093 
L 331.831103 112.998286 
L 330.680621 110.733787 
L 330.184335 108.558676 
L 329.981308 107.515814 
L 329.868516 106.323973 
L 329.011294 102.480284 
L 328.605241 101.288442 
L 328.289423 99.321904 
L 328.311981 97.414957 
L 328.244306 96.19332 
L 328.560124 92.170854 
L 328.537566 91.127993 
L 328.605241 88.89329 
L 328.402215 86.867159 
L 327.477318 84.036536 
L 326.394511 81.265504 
L 326.101251 80.669583 
L 325.582406 80.073662 
L 323.394234 78.43488 
L 321.521881 77.034466 
L 320.529308 76.40875 
L 317.799732 75.157316 
L 316.716926 74.531599 
L 315.498768 73.965474 
L 313.333155 73.190777 
L 308.483083 71.194443 
L 306.791197 71.045463 
L 305.798624 71.075259 
L 303.948829 70.151581 
L 303.023932 69.466273 
L 301.489956 67.648714 
L 300.136447 66.605853 
L 298.985965 64.907479 
L 297.203846 61.65971 
L 296.617325 60.318889 
L 296.008247 57.845817 
L 295.827779 54.359681 
L 296.008247 52.959267 
L 296.910586 50.396808 
L 297.248963 49.02619 
L 297.700132 45.838014 
L 298.46712 43.00739 
L 298.940848 41.815548 
L 300.632734 39.99799 
L 301.535073 39.223293 
L 303.452543 37.882471 
L 306.926548 34.485723 
L 307.941679 33.800414 
L 309.069603 33.234289 
L 310.355436 32.906533 
L 314.73178 32.4 
L 316.085288 32.578776 
L 320.822568 34.12817 
L 321.97305 34.366539 
L 323.281442 34.426131 
L 324.63495 34.843275 
L 327.251733 36.035117 
L 328.650358 36.452261 
L 329.913633 36.660834 
L 332.981585 36.601242 
L 335.846512 36.928998 
L 336.974435 37.346142 
L 340.967285 38.061247 
L 342.004975 38.001655 
L 343.764536 38.180432 
L 344.666875 38.389004 
L 346.652021 39.342477 
L 347.802503 39.878806 
L 352.404431 41.219628 
L 356.510074 42.560449 
L 357.525205 42.769022 
L 359.623143 43.513923 
L 362.127134 44.258824 
L 364.608566 45.331481 
L 366.819296 46.46373 
L 368.646533 47.774756 
L 374.489177 53.048655 
L 377.782715 55.730299 
L 382.046266 59.961336 
L 384.482581 61.689506 
L 386.535403 64.251966 
L 387.888911 65.920544 
L 390.234992 68.691576 
L 391.904319 70.419746 
L 392.355489 71.373219 
L 393.889465 75.783033 
L 394.024816 76.885486 
L 393.799231 79.179781 
L 393.460854 80.252439 
L 392.378047 86.569199 
L 391.859202 88.505941 
L 391.565942 90.62146 
L 390.731279 93.839432 
L 389.242419 97.236181 
L 387.076806 100.811706 
L 386.084233 102.867632 
L 385.700739 103.850902 
L 385.430037 104.893763 
L 384.685608 106.860302 
L 384.166763 108.737452 
L 382.993722 110.316642 
L 382.271851 111.150931 
L 380.692758 113.653798 
L 379.587393 115.024416 
L 378.391793 116.57381 
L 376.902934 118.30198 
L 375.594543 120.000355 
L 373.428929 122.264854 
L 372.864967 123.069347 
L 371.19564 124.380372 
L 369.616547 126.138339 
L 368.781884 126.793852 
L 365.691373 130.548153 
L 364.586007 132.097547 
L 362.239926 135.017558 
L 360.773625 137.63961 
L 360.435248 138.354715 
L 360.074313 140.023293 
L 359.916403 141.989832 
L 359.96152 143.777594 
L 360.11943 144.701271 
L 361.157119 147.621283 
L 361.653406 148.723736 
L 362.194809 149.647414 
L 363.458084 151.2564 
L 364.179955 151.971505 
L 367.20279 154.176411 
L 369.729339 155.040497 
L 371.534017 155.487437 
L 372.910084 155.666213 
L 373.812423 155.934378 
L 375.549426 156.172746 
L 376.51944 155.99397 
L 377.331545 155.666213 
L 378.211326 155.159681 
L 380.399498 153.103754 
L 382.407202 150.839255 
L 383.896061 148.366184 
L 385.159336 146.81679 
L 385.745856 146.012297 
L 387.189598 144.671475 
L 388.091937 144.343719 
L 390.573369 143.032693 
L 392.33293 142.07922 
L 394.272959 141.453503 
L 398.288367 140.768194 
L 400.205838 140.64901 
L 401.108177 140.64901 
L 403.138439 141.09595 
L 406.138716 142.109016 
L 407.131289 142.645344 
L 408.732941 143.80739 
L 409.34202 144.433107 
L 410.763204 147.174342 
L 411.349724 148.872717 
L 411.936244 150.869051 
L 412.00392 151.85232 
L 411.936244 152.83559 
L 412.071595 155.040497 
L 412.00392 156.083358 
L 410.96623 158.675613 
L 409.951098 160.165415 
L 409.364578 160.969908 
L 403.183556 166.45238 
L 402.348893 166.929116 
L 401.469112 167.256873 
L 399.5742 167.674017 
L 398.581628 168.03157 
L 395.130181 169.789536 
L 391.317799 172.709548 
L 390.641045 173.305469 
L 390.009408 173.633225 
L 389.219861 174.169554 
L 388.633341 175.093231 
L 387.911469 175.77854 
L 387.121923 176.344664 
L 385.09166 178.430387 
L 384.099087 179.920189 
L 383.264424 181.558971 
L 379.92577 186.803074 
L 378.346676 188.233284 
L 377.399221 188.620633 
L 374.083125 189.246349 
L 370.947497 189.067573 
L 367.924662 188.441856 
L 365.962074 188.322672 
L 364.946943 188.41206 
L 363.909253 188.620633 
L 361.878991 188.590837 
L 357.434971 188.292876 
L 356.442398 188.531244 
L 354.840747 189.454922 
L 354.141434 190.080638 
L 352.449548 192.136565 
L 350.735104 192.970854 
L 349.900441 193.477387 
L 348.479257 194.758617 
L 347.712269 195.235353 
L 345.997825 195.950458 
L 344.531524 197.023116 
L 343.764536 197.58924 
L 341.77939 199.764351 
L 340.358206 201.164765 
L 337.876774 203.101508 
L 336.117213 204.680698 
L 335.259991 205.306414 
L 334.560679 205.961927 
L 333.748573 206.46846 
L 333.049261 207.153769 
L 332.192039 207.511321 
L 330.139218 207.89867 
L 329.124086 208.166834 
L 328.154072 208.554183 
L 326.25916 209.686432 
L 324.431924 210.252557 
L 322.040726 211.921135 
L 321.183503 212.368076 
L 320.371398 212.576648 
L 317.68694 212.695832 
L 312.521049 212.666036 
L 310.423111 212.33828 
L 309.317746 212.129707 
L 305.41513 210.937866 
L 303.407426 209.9248 
L 302.45997 209.537452 
L 301.535073 209.32888 
L 297.903158 207.660302 
L 295.308934 205.723559 
L 294.677297 205.18723 
L 290.910031 201.075377 
L 290.18816 200.628436 
L 287.999988 198.304345 
L 285.338088 195.920662 
L 283.69132 195.026781 
L 281.458031 193.00065 
L 279.946613 191.779013 
L 278.322403 191.153296 
L 276.923778 191.1235 
L 276.111673 191.361868 
L 275.367243 191.719421 
L 274.622813 192.255749 
L 274.126527 192.821874 
L 272.569992 193.924328 
L 270.83299 195.026781 
L 269.998326 195.473722 
L 266.501763 197.857405 
L 265.50919 198.274549 
L 261.335872 198.989654 
L 260.546326 199.377003 
L 259.869571 199.883535 
L 258.764206 201.105173 
L 258.042335 201.492521 
L 257.117437 201.701094 
L 256.057189 201.790482 
L 255.177409 202.088442 
L 254.297628 202.565179 
L 252.515509 203.280284 
L 251.432702 203.399468 
L 247.958697 204.978658 
L 246.154019 206.408868 
L 243.289093 208.166834 
L 240.875336 210.282353 
L 239.882763 210.75909 
L 238.845074 210.997458 
L 238.055527 211.563583 
L 237.220863 211.950931 
L 236.476434 212.427668 
L 235.732004 213.053385 
L 234.040119 214.185634 
L 232.506142 215.466864 
L 231.35566 217.195034 
L 230.047269 218.267691 
L 228.783994 219.846881 
L 226.212328 223.958735 
L 225.129521 225.448537 
L 224.11439 227.176707 
L 218.722915 237.188176 
L 217.391965 241.776766 
L 216.061015 244.45841 
L 215.294027 246.275968 
L 213.760051 249.166184 
L 213.263764 249.881289 
L 212.970504 251.937215 
L 212.180957 254.320899 
L 210.015344 260.816435 
L 209.564174 261.769908 
L 209.135563 263.498079 
L 208.616718 265.256045 
L 205.706675 270.142595 
L 204.872012 272.049542 
L 204.398284 273.032811 
L 202.864308 275.505882 
L 200.60846 279.021815 
L 198.826341 281.01815 
L 197.472832 282.448359 
L 196.209558 284.17653 
L 193.840918 286.470825 
L 191.878331 287.692462 
L 188.246416 290.523086 
L 186.825233 291.863908 
L 183.982865 293.145137 
L 179.786989 296.452498 
L 178.298129 297.763523 
L 177.621375 298.657405 
L 174.034578 302.083949 
L 172.658511 303.573751 
L 171.93664 305.212533 
L 171.801289 306.046822 
L 169.590559 312.333787 
L 169.297298 315.16441 
L 169.27474 316.177476 
L 169.86126 322.196275 
L 169.838702 327.440378 
L 170.447781 331.284067 
L 170.944067 332.92285 
L 170.583131 335.217145 
L 170.425222 336.289802 
L 170.01917 337.332663 
L 169.522883 338.196748 
L 168.485193 340.908188 
L 167.988907 341.504109 
L 167.673088 342.517174 
L 167.221919 343.440851 
L 164.966071 346.092699 
L 164.108849 348.118829 
L 163.454654 348.953119 
L 161.830443 350.502513 
L 160.815312 351.187821 
L 160.138558 352.200887 
L 157.815035 354.43559 
L 154.904992 355.597635 
L 151.611455 356.253148 
L 150.686557 356.729885 
L 146.35533 357.59397 
L 145.520667 358.04091 
L 142.836208 358.756015 
L 138.07637 360.126633 
L 137.061239 360.156429 
L 136.136342 360.424594 
L 135.211444 360.990718 
L 133.406766 362.450724 
L 132.707454 363.344605 
L 130.925334 364.983388 
L 129.256007 366.234821 
L 127.58668 367.06911 
L 126.797133 367.665031 
L 125.37595 369.125037 
L 124.112675 370.853207 
L 122.646374 372.462193 
L 121.766594 372.909134 
L 120.255176 374.547916 
L 118.608407 375.79935 
L 117.796302 376.305882 
L 117.164665 377.557316 
L 114.547882 380.089979 
L 112.743204 382.712031 
L 111.998775 383.427136 
L 111.02876 383.84428 
L 110.194097 384.469997 
L 108.908264 385.989595 
L 107.825457 387.687969 
L 106.111013 390.756961 
L 103.313762 394.094118 
L 101.306058 397.997399 
L 100.448836 399.934141 
L 99.614172 402.079456 
L 98.689275 403.62885 
L 96.433427 409.49867 
L 95.892024 410.303163 
L 95.463413 411.197044 
L 95.260387 412.239905 
L 94.967127 417.424416 
L 94.493399 418.407685 
L 94.312931 419.480343 
L 94.380606 420.731777 
L 94.042229 424.605262 
L 93.88432 426.333432 
L 94.267814 428.121194 
L 94.696425 430.117529 
L 94.831776 431.190186 
L 95.102478 432.233048 
L 95.237828 434.139994 
L 95.50853 436.076737 
L 96.298077 439.115933 
L 97.177857 441.261247 
L 97.58391 442.274313 
L 98.779509 447.160863 
L 99.185561 448.144132 
L 99.839757 450.49802 
L 100.336043 452.792315 
L 101.215824 455.593142 
L 103.629581 462.773988 
L 103.877724 464.740526 
L 103.719815 467.749926 
L 103.922841 469.716465 
L 103.516788 474.722199 
L 102.930268 477.969967 
L 102.637008 479.072421 
L 101.847461 481.128348 
L 101.306058 483.392847 
L 100.945122 484.465504 
L 99.79464 486.432043 
L 98.666716 488.130417 
L 97.403442 490.96104 
L 96.83948 491.705941 
L 96.185284 492.838191 
L 95.373179 495.132486 
L 94.854334 496.264735 
L 94.222697 497.099025 
L 92.824072 498.469642 
L 91.448005 500.019036 
L 90.703575 500.704345 
L 89.959145 501.56843 
L 88.312377 502.939048 
L 83.439746 509.702749 
L 82.06368 511.162755 
L 79.943183 513.30807 
L 75.296137 516.972983 
L 74.461474 517.360331 
L 71.889808 519.177889 
L 70.942352 519.47585 
L 68.776738 519.803606 
L 66.701359 520.667691 
L 65.731344 521.20402 
L 63.994342 522.604434 
L 63.272471 523.617499 
L 61.422676 524.898729 
L 60.497778 525.464854 
L 56.437253 529.755483 
L 55.534914 530.23222 
L 54.745368 530.798345 
L 54.339315 531.602838 
L 52.715105 533.68856 
L 52.218819 533.867337 
L 51.857883 533.53958 
L 51.293921 533.182028 
L 50.414141 532.824475 
L 49.286217 532.735087 
L 43.285663 534.016317 
L 42.360765 534.463257 
L 41.571219 535.297547 
L 40.849348 535.863671 
L 39.292813 536.131836 
L 36.360211 536.370204 
L 34.059247 536.072244 
L 33.314817 536.161632 
L 32.615505 536.10204 
L 31.780841 535.833875 
L 30.968736 535.357139 
L 30.427333 534.880402 
L 29.863371 534.105705 
L 29.276851 533.09264 
L 27.697757 530.917529 
L 27.043562 529.636299 
L 26.4796 525.584038 
L 26.705185 524.958321 
L 28.645213 522.515046 
L 30.788268 520.310139 
L 32.344803 518.432988 
L 33.202025 517.658291 
L 34.939027 516.555838 
L 35.841366 515.661957 
L 36.450445 514.857464 
L 37.307667 512.801537 
L 39.947009 507.557434 
L 40.736555 506.782737 
L 41.774245 506.15702 
L 44.007534 504.994975 
L 45.067782 504.041502 
L 46.759668 502.045167 
L 48.090618 500.644753 
L 48.474112 499.959444 
L 48.992957 498.469642 
L 49.82762 497.069228 
L 50.346465 494.476973 
L 50.323907 492.24227 
L 50.165997 491.378185 
L 49.105749 488.964706 
L 48.361319 488.219805 
L 48.135735 487.743068 
L 48.135735 487.743068 
" clip-path="url(#p8ee46b78d9)" style="fill: none; stroke: #000000; stroke-width: 3"/>
   </g>
  </g>
 </g>
 <defs>
  <clipPath id="p8ee46b78d9">
   <rect x="7.2" y="7.2" width="424.151195" height="554.4"/>
  </clipPath>
 </defs>
</svg>
