<?xml version="1.0" encoding="utf-8" standalone="no"?>
<!DOCTYPE svg PUBLIC "-//W3C//DTD SVG 1.1//EN"
  "http://www.w3.org/Graphics/SVG/1.1/DTD/svg11.dtd">
<svg xmlns:xlink="http://www.w3.org/1999/xlink" width="476.4759pt" height="568.8pt" viewBox="0 0 476.4759 568.8" xmlns="http://www.w3.org/2000/svg" version="1.1">
 <metadata>
  <rdf:RDF xmlns:dc="http://purl.org/dc/elements/1.1/" xmlns:cc="http://creativecommons.org/ns#" xmlns:rdf="http://www.w3.org/1999/02/22-rdf-syntax-ns#">
   <cc:Work>
    <dc:type rdf:resource="http://purl.org/dc/dcmitype/StillImage"/>
    <dc:date>2022-09-15T05:29:02.511362</dc:date>
    <dc:format>image/svg+xml</dc:format>
    <dc:creator>
     <cc:Agent>
      <dc:title>Matplotlib v3.5.3, https://matplotlib.org/</dc:title>
     </cc:Agent>
    </dc:creator>
   </cc:Work>
  </rdf:RDF>
 </metadata>
 <defs>
  <style type="text/css">*{stroke-linejoin: round; stroke-linecap: butt}</style>
 </defs>
 <g id="figure_1">
  <g id="patch_1">
   <path d="M 0 568.8 
L 476.4759 568.8 
L 476.4759 0 
L 0 0 
z
" style="fill: #ffffff"/>
  </g>
  <g id="axes_1">
   <g id="LineCollection_1">
    <path d="M 101.198144 446.282092 
L 104.206051 446.617831 
L 105.138078 446.673787 
L 106.218382 446.925591 
L 107.23514 447.345265 
L 108.88737 448.296525 
L 109.713485 448.744177 
L 110.518418 449.611502 
L 111.238621 450.618719 
L 114.394805 453.584412 
L 118.144097 456.186388 
L 121.385011 457.837104 
L 123.079606 459.012191 
L 124.032816 459.124103 
L 125.155485 459.012191 
L 126.32052 459.096125 
L 129.70971 459.991429 
L 130.74765 460.243233 
L 132.590522 461.222471 
L 133.43782 461.837993 
L 134.22157 462.621383 
L 135.17478 463.15297 
L 136.975288 464.607838 
L 144.325595 470.846986 
L 144.918703 471.686333 
L 146.147285 475.211591 
L 147.248772 479.016632 
L 147.418231 480.331609 
L 147.481779 481.786477 
L 147.227589 485.703431 
L 147.460596 486.962451 
L 147.502961 487.969668 
L 147.269954 489.620384 
L 147.460596 490.599623 
L 148.201982 492.530121 
L 148.667995 493.481381 
L 149.875395 495.104119 
L 152.417288 497.174509 
L 155.12864 498.545442 
L 157.331614 499.21692 
L 158.454283 499.804463 
L 159.365128 500.140202 
L 162.817866 500.615832 
L 163.749894 500.755723 
L 166.05878 500.64381 
L 167.01199 500.81168 
L 167.9652 501.175397 
L 168.897227 501.706983 
L 169.829255 502.070701 
L 171.057836 502.070701 
L 172.159323 502.182614 
L 173.472635 502.126657 
L 176.544089 501.706983 
L 178.302231 501.706983 
L 180.123921 502.070701 
L 182.093888 502.434418 
L 184.148585 502.770157 
L 185.165342 502.798135 
L 186.1821 503.049939 
L 188.173249 504.113112 
L 189.994939 505.428089 
L 191.64717 506.799023 
L 193.744231 509.177173 
L 195.947205 511.359476 
L 197.768895 514.1573 
L 199.272848 517.039059 
L 199.781227 517.934362 
L 200.713255 520.648251 
L 201.751194 523.474054 
L 202.365485 524.285422 
L 203.128053 524.789031 
L 203.954168 525.180726 
L 204.949743 525.404552 
L 208.063562 525.572421 
L 209.228596 525.964117 
L 210.202988 526.411769 
L 212.194138 527.866637 
L 213.210895 528.202376 
L 214.079375 528.789919 
L 216.684816 529.965005 
L 217.68039 530.160853 
L 218.697147 530.608504 
L 221.662689 531.279982 
L 223.293737 532.231242 
L 225.115427 532.930698 
L 227.953874 534.581414 
L 229.712017 535.868413 
L 230.622862 536.204152 
L 231.533707 536.4 
L 232.465735 536.316065 
L 233.482492 536.092239 
L 235.791378 535.196936 
L 237.083507 534.609393 
L 239.392393 533.406328 
L 248.966857 529.265549 
L 250.958006 528.761941 
L 253.351622 528.482158 
L 254.410744 528.566093 
L 255.448684 528.817897 
L 257.67284 528.845875 
L 261.273855 529.181614 
L 263.731018 529.461397 
L 265.91281 530.384679 
L 268.115784 531.028178 
L 276.75822 532.259221 
L 280.168593 532.063373 
L 281.35481 531.979438 
L 284.82873 531.224026 
L 285.739575 530.664461 
L 286.692785 530.216809 
L 287.60363 529.601288 
L 288.55684 529.09768 
L 289.552415 528.705984 
L 290.442077 528.006528 
L 291.289375 527.055268 
L 293.005153 524.593183 
L 293.661808 523.949684 
L 295.92833 521.207816 
L 296.394343 520.256556 
L 297.75002 515.808016 
L 299.253973 512.926257 
L 300.313095 511.051715 
L 301.075663 509.205152 
L 302.410157 506.827001 
L 303.977657 502.770157 
L 304.443671 501.679005 
L 309.230903 493.621272 
L 310.120565 491.830665 
L 311.222052 490.151971 
L 313.425026 486.235017 
L 314.039317 485.171844 
L 315.988102 482.597846 
L 316.432933 481.758499 
L 317.407325 479.016632 
L 317.725062 478.065371 
L 318.254623 477.114111 
L 319.313745 475.939025 
L 321.516719 472.581637 
L 322.512294 470.399334 
L 324.418714 466.258554 
L 328.697567 458.984212 
L 329.968513 456.046497 
L 331.451284 453.584412 
L 333.421251 449.219807 
L 334.543921 447.513134 
L 335.031117 446.533896 
L 335.539495 445.890396 
L 336.831624 443.176507 
L 338.653314 440.546553 
L 339.839531 438.83988 
L 340.898653 436.993316 
L 341.767133 435.230687 
L 343.758283 431.565538 
L 344.753858 429.523126 
L 346.300176 426.837215 
L 350.536664 418.639591 
L 352.400719 415.785811 
L 353.09974 415.17029 
L 353.947037 414.163073 
L 355.112071 412.372466 
L 355.662815 411.561097 
L 356.700755 409.462729 
L 358.014066 406.552992 
L 358.39535 405.657688 
L 358.946093 404.762385 
L 361.424439 398.467281 
L 362.90721 395.669457 
L 363.097852 394.718197 
L 363.902785 392.92759 
L 364.389981 391.920373 
L 366.804779 388.842767 
L 367.270793 387.947463 
L 368.45701 384.366248 
L 368.817111 382.715532 
L 369.092483 380.924925 
L 369.473767 378.043166 
L 369.516132 376.112668 
L 369.558497 373.007083 
L 369.32549 370.880737 
L 369.007753 368.6145 
L 369.050118 366.460175 
L 368.795929 363.326613 
L 368.329915 360.137093 
L 368.20282 357.898834 
L 368.626469 356.639813 
L 368.795929 355.352814 
L 369.537314 354.065815 
L 370.045693 352.918708 
L 370.299882 351.659687 
L 371.041268 349.813123 
L 371.697923 347.770712 
L 372.058025 345.89617 
L 372.058025 341.727412 
L 371.592011 339.545109 
L 371.528464 338.314067 
L 370.829443 335.208482 
L 370.532889 333.054158 
L 369.622044 330.256334 
L 369.452584 329.165183 
L 368.711199 327.122771 
L 365.660927 322.310514 
L 364.135792 320.715754 
L 363.436771 319.98832 
L 363.013122 319.204929 
L 362.229372 317.358366 
L 361.699811 316.435084 
L 360.91606 314.560542 
L 360.810148 313.581303 
L 360.259405 311.594848 
L 360.195857 309.608393 
L 360.831331 306.418874 
L 361.530351 305.271766 
L 362.525926 301.914378 
L 362.99194 299.955901 
L 363.881602 297.857533 
L 365.639745 294.192384 
L 367.376705 290.191496 
L 372.121572 281.07059 
L 372.587586 279.95146 
L 372.841775 279.0002 
L 374.176269 276.202376 
L 375.913229 273.628378 
L 380.658096 266.829666 
L 381.90786 265.234906 
L 383.242354 263.640147 
L 386.483268 260.590518 
L 388.029586 259.247563 
L 389.533539 257.596847 
L 390.889215 256.002087 
L 391.503506 255.386566 
L 393.770027 252.728633 
L 395.295163 251.245787 
L 401.416889 245.286422 
L 402.920842 243.775597 
L 405.58983 241.313512 
L 407.708074 238.48771 
L 409.550946 235.745842 
L 410.504156 233.8713 
L 411.097265 232.108671 
L 411.520914 230.06626 
L 411.669191 227.156523 
L 411.605643 225.170068 
L 411.75392 223.267547 
L 411.775103 221.337049 
L 411.605643 219.462507 
L 411.287907 217.420095 
L 411.13963 215.545553 
L 410.504156 211.516687 
L 410.737163 209.530232 
L 411.351454 204.354258 
L 412.347029 200.213478 
L 412.813042 197.247785 
L 413.342603 192.995093 
L 413.872165 190.840768 
L 414.253448 188.602509 
L 414.507638 186.280315 
L 414.69828 185.133208 
L 414.931287 182.922927 
L 415.418483 179.677451 
L 415.948044 177.663018 
L 417.261355 173.718086 
L 418.193383 171.42387 
L 419.083045 169.437415 
L 422.93825 164.177506 
L 423.55254 163.282203 
L 424.272743 162.442856 
L 425.755514 161.183835 
L 432.893997 155.448296 
L 434.885147 154.329166 
L 437.956601 152.902276 
L 439.86302 151.839103 
L 443.908867 149.880626 
L 444.840894 149.265105 
L 446.387212 147.726302 
L 447.001503 146.970889 
L 447.488699 146.131542 
L 448.039443 144.42487 
L 448.27245 142.802132 
L 448.27245 141.822893 
L 448.01826 140.75972 
L 447.065051 138.633374 
L 446.387212 137.570201 
L 445.772922 136.814788 
L 445.031536 135.667681 
L 443.527583 133.93303 
L 442.659103 133.093683 
L 438.867446 130.743511 
L 437.024573 130.379793 
L 435.753627 130.323837 
L 433.889572 130.547663 
L 431.665415 131.079249 
L 428.975245 132.282314 
L 426.878184 133.653247 
L 425.988521 134.324725 
L 424.124466 135.387898 
L 421.773215 137.542223 
L 418.193383 141.291307 
L 417.38845 141.87885 
L 414.465273 143.333718 
L 412.304664 143.809348 
L 408.936656 143.893283 
L 406.585405 143.473609 
L 405.42037 143.165849 
L 402.412464 141.571089 
L 401.374524 140.899611 
L 400.421314 140.088242 
L 399.383374 139.416765 
L 398.557259 138.577418 
L 397.222765 136.562984 
L 396.714387 134.828334 
L 396.354285 132.925813 
L 396.015366 132.170401 
L 395.739995 130.743511 
L 395.888272 128.617164 
L 396.354285 126.630709 
L 396.672022 125.567536 
L 398.345435 121.734518 
L 399.976483 119.664128 
L 400.82378 118.936694 
L 402.370099 118.265216 
L 403.59868 117.425869 
L 404.530708 116.530565 
L 406.077026 114.656023 
L 407.475067 112.697546 
L 408.746014 110.850983 
L 410.779528 108.249006 
L 413.046049 104.975552 
L 414.973651 102.821228 
L 415.503213 102.233685 
L 415.884496 101.478272 
L 416.075138 100.666904 
L 418.722944 95.770712 
L 419.21014 94.67956 
L 419.739701 93.784257 
L 420.099802 92.77704 
L 421.540208 89.671456 
L 421.836763 88.664239 
L 423.63727 84.327612 
L 423.891459 83.236461 
L 424.315108 82.229244 
L 424.632845 81.166071 
L 425.035311 80.326724 
L 427.513657 71.849317 
L 427.577204 70.842101 
L 427.344197 69.023515 
L 426.602812 66.645365 
L 426.030886 64.994649 
L 425.141223 63.204041 
L 424.484568 62.280759 
L 420.502269 58.307849 
L 419.654971 57.692328 
L 418.659396 57.18872 
L 417.21899 56.097569 
L 416.477605 55.538004 
L 414.761827 53.383679 
L 414.041624 52.432419 
L 412.495306 51.173398 
L 411.012535 50.166182 
L 410.313514 49.690552 
L 409.572129 49.047052 
L 407.559797 46.86475 
L 405.039086 45.493816 
L 404.107059 44.990208 
L 403.280944 44.402665 
L 402.370099 43.955013 
L 401.628713 43.423426 
L 400.972058 42.444188 
L 400.273037 41.856645 
L 397.476955 40.094016 
L 395.761177 39.450516 
L 395.040974 38.91893 
L 392.541446 38.303408 
L 389.766546 38.219474 
L 388.15668 38.247452 
L 387.37293 37.995648 
L 385.530058 37.659909 
L 381.844313 36.904497 
L 380.975833 36.820562 
L 379.810798 36.484823 
L 373.92208 35.757389 
L 372.312214 35.72941 
L 366.741232 34.526346 
L 365.279643 33.51913 
L 364.7289 32.87563 
L 363.966332 32.427978 
L 362.716568 32.539891 
L 360.407682 33.071478 
L 357.717512 33.071478 
L 356.933761 32.87563 
L 356.298288 32.567869 
L 354.942612 32.4 
L 354.243591 32.455956 
L 350.981495 33.295304 
L 349.308082 34.330499 
L 347.274568 35.757389 
L 345.029229 37.659909 
L 344.012472 39.142756 
L 341.788316 43.087687 
L 340.644464 45.969446 
L 339.987808 48.515466 
L 339.945443 49.354813 
L 340.9622 55.789808 
L 341.745951 58.000089 
L 344.245479 61.16163 
L 345.537608 62.168846 
L 347.232203 62.672455 
L 348.799704 63.427867 
L 349.922373 63.511802 
L 351.489874 64.239236 
L 353.078557 64.630931 
L 353.88349 64.630931 
L 355.62045 65.078583 
L 359.390925 66.197713 
L 361.233797 66.337604 
L 363.288494 66.953125 
L 364.284069 67.708538 
L 366.931874 70.786144 
L 367.440253 71.597513 
L 368.605287 72.940469 
L 370.681166 76.10201 
L 371.359004 77.864639 
L 371.867383 78.703986 
L 372.502856 80.690441 
L 372.291032 82.145309 
L 371.782653 84.691329 
L 371.888565 86.202154 
L 372.248667 88.188609 
L 371.740288 92.021628 
L 371.676741 94.84743 
L 371.909748 95.910603 
L 372.651133 97.421428 
L 373.159512 99.939469 
L 374.239816 102.513467 
L 375.193026 105.619052 
L 376.167418 108.081137 
L 376.421608 109.955679 
L 376.951169 112.865416 
L 377.057081 117.929477 
L 376.929986 119.831997 
L 376.718162 121.06304 
L 372.418126 129.680338 
L 370.554071 132.170401 
L 370.10924 132.925813 
L 369.452584 133.793139 
L 365.893934 137.122549 
L 364.64417 138.801243 
L 358.416532 143.053936 
L 357.696329 143.837327 
L 356.912579 144.508804 
L 356.065281 145.040391 
L 352.294807 146.299412 
L 351.426327 146.830998 
L 350.536664 147.166737 
L 347.46521 147.782258 
L 345.474061 148.537671 
L 339.521794 150.188387 
L 338.674497 150.664017 
L 336.916354 151.447408 
L 334.565103 153.461841 
L 332.89169 154.720862 
L 328.909391 158.022294 
L 328.337465 158.805684 
L 327.532532 160.540335 
L 326.007397 165.800244 
L 325.732025 167.870634 
L 325.350741 169.52135 
L 325.160099 170.276763 
L 324.82118 171.144088 
L 323.486686 173.578195 
L 322.724118 175.56465 
L 322.173375 176.34804 
L 321.474354 177.047496 
L 320.30932 178.726191 
L 318.847731 180.237016 
L 318.085164 180.96445 
L 317.301413 181.551993 
L 315.71273 182.475275 
L 314.229959 183.594404 
L 312.641276 184.237904 
L 310.16293 185.273099 
L 308.065869 186.056489 
L 303.342184 187.511358 
L 302.388974 188.070923 
L 301.499312 188.462618 
L 298.194851 189.273987 
L 295.610593 190.113334 
L 293.132247 191.484268 
L 291.734206 192.127767 
L 289.192313 193.442745 
L 288.55684 193.66657 
L 287.624812 194.170179 
L 285.358291 196.044721 
L 283.748426 197.723415 
L 282.265655 199.23424 
L 280.952343 200.912934 
L 280.338053 201.752282 
L 278.558727 203.570867 
L 277.245416 204.689997 
L 273.98332 208.942689 
L 273.093658 210.341601 
L 271.46261 213.167403 
L 271.038961 214.00675 
L 270.594129 214.622272 
L 269.068994 218.035617 
L 267.925142 220.665571 
L 266.78129 222.707983 
L 266.209364 224.470612 
L 264.917235 226.736849 
L 264.302944 228.163739 
L 263.836931 229.42276 
L 263.434464 230.290085 
L 262.841356 232.528345 
L 261.909328 234.5148 
L 261.019666 236.025625 
L 260.27828 237.84421 
L 259.4098 240.166404 
L 258.45659 242.46062 
L 257.75757 244.307183 
L 255.872332 250.602287 
L 255.427501 251.469613 
L 254.559021 252.868524 
L 251.953581 258.072477 
L 251.466385 258.632042 
L 250.661452 259.974997 
L 249.962431 260.898279 
L 249.284593 261.569757 
L 248.755032 261.933474 
L 242.14611 267.948795 
L 240.49388 268.928034 
L 236.469216 271.166293 
L 234.901715 271.949684 
L 233.143573 272.705096 
L 232.381005 273.180726 
L 230.855869 273.712313 
L 229.182456 274.887399 
L 227.91151 276.230354 
L 226.78884 277.545331 
L 226.153367 278.216809 
L 223.293737 282.273654 
L 222.806541 283.28087 
L 222.128703 285.323282 
L 221.747419 286.330499 
L 221.196676 288.344932 
L 220.201101 292.401776 
L 219.819817 295.059709 
L 219.883364 299.843988 
L 220.434108 306.083135 
L 220.963669 314.336716 
L 220.984851 315.455845 
L 220.709479 317.4423 
L 220.37056 318.169735 
L 219.904547 319.596625 
L 217.468566 323.317731 
L 216.578903 324.884512 
L 210.774914 330.592073 
L 208.211839 332.158854 
L 204.992108 333.613723 
L 203.318695 334.341157 
L 200.628525 335.320395 
L 197.98072 336.579416 
L 197.154604 337.055046 
L 194.061968 338.25811 
L 193.21467 338.453958 
L 191.520075 339.153414 
L 189.677202 340.076696 
L 188.067337 340.860087 
L 183.915578 342.678672 
L 183.216558 343.238237 
L 182.411625 343.573976 
L 181.776152 344.021628 
L 180.018009 346.092017 
L 177.8574 347.490929 
L 176.395812 348.078472 
L 175.506149 348.162407 
L 174.807128 348.554102 
L 172.349965 351.379905 
L 169.087869 354.989097 
L 165.952868 358.094682 
L 162.373035 362.543222 
L 161.928204 363.270656 
L 161.356278 363.914156 
L 160.50898 365.508915 
L 160.127696 366.180393 
L 159.89469 367.075697 
L 158.68729 369.901499 
L 158.242459 370.824781 
L 157.924722 371.776041 
L 157.479891 372.699323 
L 155.99712 376.812124 
L 154.599079 379.302187 
L 153.624687 380.813012 
L 152.798572 382.603619 
L 151.824179 384.394227 
L 151.040429 387.136094 
L 150.214314 390.941135 
L 149.854212 394.298523 
L 149.515293 399.502476 
L 149.896577 401.237127 
L 150.447321 403.783146 
L 150.553233 408.987099 
L 151.209888 410.07825 
L 151.802997 411.840879 
L 152.099551 413.799356 
L 152.396105 418.080027 
L 152.60793 419.087243 
L 153.751781 422.052937 
L 154.747356 423.451849 
L 155.171005 424.347152 
L 156.611411 426.781259 
L 157.712898 432.041168 
L 157.90354 433.244232 
L 157.90354 434.307405 
L 158.221277 436.377795 
L 158.094182 438.056489 
L 158.157729 439.035728 
L 158.962662 443.232464 
L 158.793203 444.155746 
L 158.68729 445.778483 
L 158.263642 447.401221 
L 156.8656 450.926479 
L 155.12864 454.08802 
L 153.264585 457.10967 
L 152.374923 459.319951 
L 150.913334 462.173732 
L 149.049279 465.615055 
L 147.968975 467.629488 
L 147.248772 468.356922 
L 146.825123 469.364139 
L 146.295562 470.259443 
L 143.944311 472.217919 
L 141.868432 474.875852 
L 140.703397 476.470612 
L 140.025559 477.226024 
L 137.759038 479.04461 
L 135.661976 481.226912 
L 134.3063 482.709759 
L 132.060961 484.556323 
L 127.697378 487.494038 
L 126.722986 487.801799 
L 125.812141 488.24945 
L 123.820991 488.864972 
L 121.956937 489.592406 
L 120.177611 490.459731 
L 117.508624 492.026513 
L 116.068218 493.173621 
L 113.738149 496.475053 
L 112.869669 498.517464 
L 112.234196 499.38479 
L 111.471628 500.056267 
L 110.560783 500.196159 
L 109.75585 499.720528 
L 108.866188 499.328833 
L 107.807066 499.160964 
L 105.625274 499.160964 
L 104.587334 499.524681 
L 103.676489 500.056267 
L 102.829192 500.699767 
L 102.024259 501.539114 
L 101.028684 502.210592 
L 99.037535 503.245787 
L 97.08875 503.861308 
L 94.462127 504.336938 
L 91.327126 503.693438 
L 90.268004 503.441634 
L 89.378341 503.049939 
L 88.213307 502.406439 
L 87.238915 501.539114 
L 86.645806 500.727745 
L 86.200975 499.720528 
L 86.031516 498.797247 
L 86.07388 497.873965 
L 86.772901 495.271988 
L 86.666989 494.488598 
L 86.15861 492.670012 
L 86.07388 491.718752 
L 86.688171 489.788254 
L 87.704928 488.193494 
L 88.467496 487.354147 
L 90.140909 486.03917 
L 92.004964 485.255779 
L 92.809897 484.780149 
L 95.245878 482.513911 
L 95.838986 481.786477 
L 96.38973 480.919152 
L 98.274967 476.946242 
L 98.82571 476.302742 
L 101.261691 474.59607 
L 102.151354 473.840657 
L 105.116896 469.923704 
L 105.688821 468.860531 
L 105.921828 467.797358 
L 106.811491 465.083468 
L 107.171592 463.236905 
L 107.383417 460.439081 
L 107.256322 459.571755 
L 105.794734 455.542889 
L 105.222808 454.647585 
L 103.951861 453.108782 
L 102.617367 452.101565 
L 101.240509 451.374131 
L 100.562671 451.262218 
L 99.736555 451.010414 
L 99.037535 450.506806 
L 98.190237 450.087132 
L 97.491217 449.891285 
L 96.855743 450.003198 
L 96.432094 450.450849 
L 96.156723 451.094349 
L 96.38973 451.87774 
L 96.177905 452.856978 
L 95.838986 453.808238 
L 95.012871 457.976996 
L 93.869019 460.914711 
L 92.428613 463.404774 
L 91.814322 464.132208 
L 89.950267 465.587077 
L 89.420706 466.230576 
L 89.357159 467.349706 
L 88.425132 468.944465 
L 87.704928 469.6719 
L 86.582259 471.070812 
L 86.730536 471.994093 
L 86.751719 473.113223 
L 86.433982 474.092461 
L 86.010333 474.987765 
L 85.671414 476.078916 
L 85.141853 477.170068 
L 84.802934 478.317176 
L 83.849724 480.163739 
L 83.214251 480.695326 
L 82.494048 480.835217 
L 81.477291 480.667348 
L 80.185162 480.247674 
L 77.939823 479.240457 
L 75.186105 477.533785 
L 71.648638 476.442634 
L 70.71661 475.967003 
L 69.403299 475.799134 
L 68.471272 475.015743 
L 66.225933 474.12044 
L 63.68404 473.309071 
L 62.519005 472.917375 
L 59.765288 472.301854 
L 57.414037 471.770268 
L 55.465252 470.986877 
L 54.40613 470.679116 
L 44.132646 464.74773 
L 42.882882 463.069035 
L 42.480416 462.20171 
L 41.273016 460.886733 
L 39.04886 459.208038 
L 38.159198 458.844321 
L 36.168048 458.452626 
L 34.070986 457.725192 
L 32.164567 456.913823 
L 30.554701 456.046497 
L 28.20345 454.899389 
L 28.20345 454.899389 
" clip-path="url(#p4a49341598)" style="fill: none; stroke: #000000; stroke-width: 3"/>
   </g>
  </g>
 </g>
 <defs>
  <clipPath id="p4a49341598">
   <rect x="7.2" y="7.2" width="462.0759" height="554.4"/>
  </clipPath>
 </defs>
</svg>
