<?xml version="1.0" encoding="utf-8" standalone="no"?>
<!DOCTYPE svg PUBLIC "-//W3C//DTD SVG 1.1//EN"
  "http://www.w3.org/Graphics/SVG/1.1/DTD/svg11.dtd">
<svg xmlns:xlink="http://www.w3.org/1999/xlink" width="239.919236pt" height="568.8pt" viewBox="0 0 239.919236 568.8" xmlns="http://www.w3.org/2000/svg" version="1.1">
 <metadata>
  <rdf:RDF xmlns:dc="http://purl.org/dc/elements/1.1/" xmlns:cc="http://creativecommons.org/ns#" xmlns:rdf="http://www.w3.org/1999/02/22-rdf-syntax-ns#">
   <cc:Work>
    <dc:type rdf:resource="http://purl.org/dc/dcmitype/StillImage"/>
    <dc:date>2022-09-19T05:31:26.092857</dc:date>
    <dc:format>image/svg+xml</dc:format>
    <dc:creator>
     <cc:Agent>
      <dc:title>Matplotlib v3.6.0, https://matplotlib.org/</dc:title>
     </cc:Agent>
    </dc:creator>
   </cc:Work>
  </rdf:RDF>
 </metadata>
 <defs>
  <style type="text/css">*{stroke-linejoin: round; stroke-linecap: butt}</style>
 </defs>
 <g id="figure_1">
  <g id="patch_1">
   <path d="M 0 568.8 
L 239.919236 568.8 
L 239.919236 0 
L 0 0 
z
" style="fill: #ffffff"/>
  </g>
  <g id="axes_1">
   <g id="LineCollection_1">
    <path d="M 222.468362 52.112857 
L 222.345441 52.370604 
L 222.236981 52.523343 
L 222.193597 52.446973 
L 221.405458 52.084219 
L 221.325921 51.893295 
L 218.505972 51.626002 
L 218.397513 50.738207 
L 217.399685 49.90769 
L 216.148785 49.611758 
L 215.628179 49.726313 
L 215.085881 50.404091 
L 214.905115 50.671384 
L 214.724349 51.320524 
L 214.268819 52.208319 
L 213.921749 52.446973 
L 213.59637 52.943374 
L 213.473449 53.439776 
L 212.728693 54.52804 
L 209.163989 59.998 
L 208.737382 61.162634 
L 207.833552 62.785484 
L 207.218948 64.007394 
L 206.654958 65.086113 
L 206.495884 65.754345 
L 205.866819 66.89034 
L 204.044698 70.145587 
L 203.661474 71.281582 
L 203.068562 72.474854 
L 201.767047 74.18362 
L 201.391054 74.718206 
L 201.152443 75.3578 
L 199.98108 77.018835 
L 197.667276 81.467354 
L 195.982538 83.882537 
L 195.310088 85.581756 
L 194.999171 86.393181 
L 193.610889 88.69381 
L 193.097513 89.314312 
L 192.699828 90.030275 
L 192.099685 91.462202 
L 191.636925 92.168619 
L 191.456159 92.980044 
L 190.740326 94.077854 
L 189.178508 97.428563 
L 189.033895 98.068157 
L 188.173449 99.729192 
L 187.067162 101.323403 
L 186.806859 102.001182 
L 184.941355 105.180059 
L 184.464133 105.55236 
L 183.75553 106.621532 
L 182.05633 109.752678 
L 181.665876 110.315903 
L 181.051272 111.54736 
L 179.887139 113.361133 
L 178.751929 115.356285 
L 178.491626 116.09134 
L 177.898714 116.530464 
L 177.276879 117.857383 
L 175.122149 121.838139 
L 174.963075 122.391818 
L 174.507545 122.897765 
L 174.587082 122.773665 
L 174.804001 123.069596 
L 174.941383 122.620926 
L 174.738925 121.943147 
L 174.435239 121.5613 
L 173.676022 121.255822 
L 173.343413 120.864429 
L 172.555273 120.558951 
L 171.036839 119.871627 
L 170.429466 119.527964 
L 167.942127 117.399167 
L 165.982624 116.062702 
L 165.389712 115.537662 
L 164.023121 114.964891 
L 162.237154 113.752527 
L 161.456245 112.883825 
L 160.292112 112.043761 
L 158.231381 111.528267 
L 157.566162 111.184605 
L 156.597257 111.299159 
L 156.394799 110.993681 
L 156.423721 110.163164 
L 156.7491 109.609486 
L 156.561104 109.494931 
L 156.286339 109.676309 
L 155.136668 106.898371 
L 154.261761 104.826851 
L 155.201744 106.736086 
L 155.208974 106.716994 
L 155.693427 108.034366 
L 155.664505 108.015274 
L 155.440355 107.843443 
L 155.216205 107.242033 
L 155.216205 107.242033 
L 155.570506 107.098841 
L 155.758503 106.793363 
L 155.650043 106.869733 
L 153.032553 108.330298 
L 152.699943 109.275369 
L 152.953016 110.220441 
L 152.960246 110.850489 
L 152.352873 111.365982 
L 151.557503 111.165513 
L 150.913976 111.490083 
L 149.670306 108.979438 
L 149.475079 108.988984 
L 149.36662 109.284916 
L 149.388311 109.771771 
L 148.990626 111.251428 
L 148.679709 113.800258 
L 147.44327 117.580544 
L 147.298657 118.716539 
L 147.32758 119.365679 
L 147.175736 119.900265 
L 146.734668 123.289158 
L 147.139583 125.608879 
L 147.031124 127.814047 
L 146.684053 129.398712 
L 146.87928 131.661156 
L 146.814205 133.178998 
L 146.980509 135.336435 
L 146.734668 136.128767 
L 146.864819 138.715781 
L 146.828666 139.46993 
L 146.669592 141.130964 
L 146.792513 142.314691 
L 146.720206 143.48887 
L 146.488826 146.133162 
L 146.712976 147.221426 
L 146.691284 147.813289 
L 146.546671 148.233321 
L 146.510518 149.741617 
L 146.568363 150.266657 
L 146.344213 151.975422 
L 145.924836 152.977771 
L 146.141755 153.445534 
L 146.517748 156.834427 
L 146.257446 158.438185 
L 146.387597 159.182787 
L 146.329752 159.975119 
L 146.41652 160.691083 
L 146.228523 162.237563 
L 146.185139 163.125358 
L 146.279137 163.66949 
L 145.96822 165.053686 
L 145.997143 165.445079 
L 145.823607 166.056035 
L 146.148986 166.285143 
L 146.1996 169.168088 
L 146.459903 170.857762 
L 146.214062 172.413789 
L 146.163447 173.139298 
L 146.524979 178.236957 
L 146.474365 179.248852 
L 146.6479 181.091264 
L 146.590055 182.093613 
L 146.42375 183.029139 
L 146.315291 187.783135 
L 146.315291 189.692371 
L 146.026065 192.098007 
L 146.235754 195.009592 
L 146.365905 196.966558 
L 146.662361 197.930722 
L 146.53944 199.85905 
L 146.387597 200.727752 
L 146.040526 201.663278 
L 146.53944 202.646534 
L 146.633439 204.469854 
L 146.568363 206.149981 
L 146.271907 206.885037 
L 146.08391 208.278779 
L 146.011604 208.842003 
L 145.534382 209.586605 
L 146.30806 211.390833 
L 146.806974 214.140132 
L 146.821435 215.075657 
L 146.618977 215.925267 
L 145.989912 217.538571 
L 145.888683 218.235442 
L 146.047757 219.027775 
L 146.329752 219.867838 
L 146.676822 220.516979 
L 147.298657 221.099295 
L 148.723093 221.967998 
L 149.48954 222.244837 
L 150.176451 222.617138 
L 150.566905 223.199455 
L 150.769363 223.896325 
L 150.84167 225.223244 
L 150.754902 225.910569 
L 150.371678 227.418865 
L 150.328294 229.834048 
L 150.219835 231.514175 
L 149.930609 232.3256 
L 149.511232 233.986635 
L 149.641384 234.817153 
L 149.02678 236.478188 
L 148.932781 237.260974 
L 148.658017 238.034215 
L 148.397714 240.382574 
L 148.173564 241.795409 
L 147.906031 242.597288 
L 147.580652 243.103235 
L 147.718034 243.905114 
L 147.631267 244.76427 
L 147.696342 245.661611 
L 147.392656 247.952693 
L 146.821435 248.687749 
L 146.568363 249.441897 
L 146.691284 250.224684 
L 146.409289 250.873824 
L 145.888683 251.40841 
L 145.331924 252.811698 
L 145.093313 253.766316 
L 145.049929 254.759118 
L 144.435325 255.389166 
L 144.095485 256.181499 
L 143.726723 257.718433 
L 143.553187 258.558497 
L 143.191655 259.226729 
L 143.083196 260.076339 
L 142.613204 260.916403 
L 141.817834 263.551148 
L 141.853987 264.515312 
L 141.579223 265.345829 
L 141.029695 266.138162 
L 139.937869 268.696538 
L 139.749872 269.546147 
L 139.359418 270.300295 
L 139.120807 271.168998 
L 136.575622 274.567437 
L 136.018863 275.178392 
L 135.888712 275.951633 
L 135.245185 277.383559 
L 135.115034 278.242715 
L 134.804116 278.996863 
L 134.305202 279.703281 
L 133.582139 281.058838 
L 133.14107 281.784347 
L 132.490312 283.283097 
L 131.846786 284.820032 
L 130.624808 287.59797 
L 130.30666 287.998909 
L 129.96682 288.628957 
L 129.872822 289.402197 
L 129.410061 290.977316 
L 129.301601 291.674187 
L 128.788226 292.151496 
L 128.448386 292.628805 
L 127.963933 293.020198 
L 127.681939 293.421138 
L 127.70363 293.84117 
L 128.26762 294.04164 
L 128.809918 294.423487 
L 129.988512 294.719418 
L 130.350044 295.110811 
L 130.863419 295.282643 
L 131.138183 295.654944 
L 131.196028 296.542738 
L 131.420178 296.857762 
L 131.376794 297.430533 
L 131.094799 297.688279 
L 130.812804 298.098765 
L 130.6465 298.766997 
L 127.378252 306.633048 
L 126.756417 307.482658 
L 126.575651 308.599561 
L 125.715205 310.604258 
L 123.95093 313.859505 
L 123.741241 314.737753 
L 122.960332 315.348708 
L 122.902487 316.102856 
L 122.533725 316.780635 
L 122.150501 318.785332 
L 121.875737 319.396288 
L 120.841756 320.446367 
L 119.605317 322.880642 
L 119.07025 323.453413 
L 118.477337 323.902083 
L 117.240898 325.887688 
L 116.749215 326.030881 
L 116.626294 326.326813 
L 116.358761 326.651383 
L 116.199687 327.119145 
L 116.083996 327.854201 
L 115.729695 328.512887 
L 115.476623 329.228851 
L 114.688484 330.403031 
L 114.493256 330.908978 
L 114.131724 331.290825 
L 113.697886 331.510387 
L 113.697886 331.920873 
L 112.60606 332.350451 
L 112.548215 332.350451 
L 112.186683 332.589105 
L 111.890227 332.990045 
L 110.877938 335.701159 
L 110.379024 336.913524 
L 109.157046 337.648579 
L 108.97628 338.364543 
L 108.940127 339.175968 
L 108.419521 340.598348 
L 106.93724 342.908523 
L 106.604631 343.404925 
L 106.25033 344.645928 
L 105.924951 345.333253 
L 105.505574 345.781923 
L 102.338555 351.30916 
L 101.890256 352.006031 
L 100.755046 354.30666 
L 99.504145 355.872233 
L 99.034154 357.456898 
L 98.144786 358.841094 
L 97.682025 359.70025 
L 97.342185 360.578498 
L 96.778195 361.199 
L 96.221436 362.783665 
L 95.650216 363.404167 
L 95.411605 364.291962 
L 92.2952 370.372877 
L 90.436926 373.332192 
L 89.887398 375.766467 
L 89.207718 376.329692 
L 88.014663 378.229381 
L 87.081911 380.386817 
L 86.488998 381.007319 
L 86.127467 381.694644 
L 84.789799 383.365225 
L 84.565649 384.043003 
L 83.813663 385.360376 
L 81.977081 388.959285 
L 80.979253 390.200288 
L 80.169421 391.59403 
L 79.851273 392.338632 
L 79.634354 393.140511 
L 79.569279 394.06649 
L 79.330668 394.935192 
L 78.520836 396.243018 
L 77.805003 397.579483 
L 77.718235 398.400455 
L 77.349473 399.087779 
L 76.792714 399.622365 
L 76.373337 400.319236 
L 75.317664 401.369316 
L 74.102917 403.450383 
L 73.191857 405.665096 
L 72.302488 406.887007 
L 71.861419 407.564785 
L 71.326352 408.108917 
L 70.017607 410.915494 
L 69.504232 411.602818 
L 68.933011 412.776998 
L 67.776109 415.535844 
L 67.653188 415.354466 
L 67.515806 415.34492 
L 67.595343 415.449928 
L 67.761648 415.841321 
L 68.12318 416.977316 
L 67.768879 417.530995 
L 66.966278 417.903296 
L 66.250445 418.036942 
L 65.679225 418.66699 
L 64.001717 422.495007 
L 64.102946 423.28734 
L 64.146329 424.098765 
L 64.225866 424.70972 
L 63.842643 425.626153 
L 63.329267 425.817077 
L 62.302517 427.38265 
L 62.078367 428.069975 
L 61.376995 428.671384 
L 61.239613 429.043685 
L 60.52378 429.20597 
L 60.140556 429.711918 
L 57.833983 434.303629 
L 57.674909 434.971862 
L 57.378453 435.668732 
L 55.802174 437.577968 
L 55.122494 439.114903 
L 54.290971 440.374998 
L 53.625752 440.909584 
L 51.933783 443.172028 
L 51.709633 443.907084 
L 51.716864 444.613501 
L 51.290256 445.224456 
L 50.249045 446.150436 
L 47.761706 451.372195 
L 47.327867 451.801773 
L 46.474652 453.329161 
L 45.860048 454.245594 
L 43.394401 458.617744 
L 42.085655 460.947011 
L 41.492743 462.035275 
L 40.039385 465.166422 
L 40.024924 465.834654 
L 39.171709 467.152027 
L 38.745101 468.221199 
L 37.855733 469.404925 
L 37.096516 470.302265 
L 36.951903 470.951405 
L 36.590371 471.610092 
L 36.12038 472.784272 
L 35.78777 473.204303 
L 34.949016 473.557512 
L 34.283798 474.244837 
L 33.755961 475.294916 
L 32.967822 476.163618 
L 32.83044 476.58365 
L 32.519522 476.955951 
L 32.114607 478.025123 
L 32.013378 478.769725 
L 30.711863 481.328101 
L 27.819608 486.87443 
L 27.255618 488.067702 
L 26.416865 489.155966 
L 26.13487 489.642821 
L 25.997488 490.263323 
L 25.259963 491.275218 
L 24.392286 492.79306 
L 23.907833 493.623578 
L 23.770451 494.129525 
L 23.437842 494.435003 
L 22.881083 495.332343 
L 22.577396 497.079294 
L 22.490628 497.327495 
L 22.143558 497.53751 
L 22.100174 497.93845 
L 20.80589 500.124525 
L 19.728525 500.964588 
L 19.171766 502.176953 
L 18.260706 504.410758 
L 17.573795 505.718585 
L 17.450874 506.272263 
L 17.653332 507.217335 
L 19.200689 507.790105 
L 20.531126 508.467884 
L 20.936041 508.773362 
L 21.37711 508.830639 
L 22.642472 509.517963 
L 23.553532 509.613425 
L 24.493515 510.262565 
L 26.416865 511.770861 
L 29.113892 513.202788 
L 30.379254 513.756466 
L 31.203546 514.138314 
L 32.129068 514.415153 
L 32.562906 514.539253 
L 32.982283 514.539253 
L 35.643158 515.904356 
L 35.982998 515.904356 
L 36.134841 516.066641 
L 36.062535 516.057095 
L 35.860077 516.353027 
L 36.474681 516.74442 
L 36.366221 516.639412 
L 36.525295 516.143011 
L 36.814521 515.703887 
L 36.546987 515.44614 
L 38.253418 514.577438 
L 39.07771 513.536904 
L 39.714006 512.372271 
L 40.408147 512.076339 
L 41.210748 511.894962 
L 42.006118 512.190893 
L 42.570108 512.591833 
L 45.65759 513.680097 
L 46.951874 514.310145 
L 48.38354 514.911554 
L 50.393657 515.665702 
L 51.478253 515.932995 
L 51.78194 516.228926 
L 52.280854 516.477127 
L 52.80146 516.610774 
L 53.365449 516.629866 
L 54.225895 516.906705 
L 54.580196 516.963982 
L 55.144186 517.231275 
L 56.633697 517.641761 
L 57.009691 517.985423 
L 60.046558 519.369619 
L 60.625009 519.751466 
L 61.109462 519.846928 
L 61.572223 520.142859 
L 62.22298 520.410152 
L 63.191885 521.030654 
L 63.726952 521.336132 
L 64.319865 521.479324 
L 65.05739 521.966179 
L 65.498459 522.46258 
L 65.917836 522.748966 
L 66.915663 522.939889 
L 67.472423 523.197636 
L 67.884569 523.579483 
L 68.846244 524.075885 
L 70.653903 524.715478 
L 71.789113 525.555542 
L 72.360333 525.717827 
L 72.852017 526.013759 
L 74.724752 526.701083 
L 75.223666 527.140208 
L 76.85779 527.970725 
L 77.31332 528.505311 
L 77.385626 528.495765 
L 78.036384 529.135359 
L 78.607604 529.249913 
L 79.207747 530.089977 
L 79.80789 530.634109 
L 80.075423 530.634109 
L 80.784026 530.977771 
L 81.348015 531.970574 
L 81.528781 532.781999 
L 81.695086 533.182938 
L 81.977081 533.049292 
L 82.345843 533.240215 
L 82.287998 533.135207 
L 82.251845 532.944284 
L 82.353074 532.972922 
L 82.721836 533.373862 
L 82.598916 533.593424 
L 83.112291 533.860717 
L 83.148444 534.070733 
L 83.170136 534.25211 
L 83.090599 534.433487 
L 83.090599 534.433487 
L 83.039984 535.053989 
L 82.902602 535.120812 
L 83.032754 535.034897 
L 83.018293 534.920342 
L 82.982139 535.769952 
L 82.851988 536.314084 
L 83.047215 536.113615 
L 83.10506 536.304538 
L 83.162905 536.4 
L 83.546129 536.285446 
L 83.336441 536.065884 
L 83.061676 536.314084 
L 83.473823 536.037245 
L 83.871508 535.865414 
L 84.80426 535.082627 
L 86.105775 534.271202 
L 86.857761 533.631608 
L 87.718207 532.762906 
L 88.528038 532.075581 
L 89.077567 531.397803 
L 88.961876 531.05414 
L 90.060933 529.622214 
L 90.270622 529.154451 
L 90.661076 528.629411 
L 90.762305 528.247564 
L 91.810747 526.796545 
L 92.172279 525.880112 
L 92.613348 525.412349 
L 96.055131 519.560542 
L 96.554045 519.025957 
L 96.72035 518.806394 
L 96.134668 518.882764 
L 95.81652 518.596379 
L 94.797001 518.204985 
L 93.365334 517.823138 
L 92.034897 517.183544 
L 91.977052 517.441291 
L 91.528753 516.983074 
L 90.523694 516.314842 
L 89.699401 515.274309 
L 89.243871 514.854277 
L 88.383425 514.39606 
L 88.267735 513.956936 
L 88.274966 513.450989 
L 87.862819 513.17415 
L 87.226523 513.126419 
L 86.640842 512.954587 
L 84.775337 511.39856 
L 83.509976 510.892613 
L 82.851988 510.806697 
L 82.136155 510.520312 
L 80.812948 509.670702 
L 79.547587 509.040655 
L 78.976366 508.649261 
L 77.696544 507.436897 
L 74.92721 506.176801 
L 74.565678 505.833139 
L 74.283683 505.289007 
L 73.857075 504.83079 
L 72.374795 504.153012 
L 70.935898 503.771164 
L 69.099316 503.045655 
L 68.246101 502.100583 
L 67.711034 502.03376 
L 67.479653 501.78556 
L 67.262734 501.270066 
L 66.655361 500.745026 
L 65.353846 500.487279 
L 64.674166 499.933601 
L 64.435555 499.618577 
L 63.755875 499.494477 
L 62.541128 498.692598 
L 62.034983 498.13892 
L 61.601145 498.053004 
L 59.83687 496.630624 
L 58.441357 495.952845 
L 57.609833 495.695098 
L 54.934498 493.671308 
L 53.972823 492.831245 
L 53.618522 492.583044 
L 52.613463 493.375377 
L 52.707461 492.535313 
L 53.307604 490.96974 
L 54.356047 488.04861 
L 55.093572 486.817153 
L 55.635869 486.368482 
L 56.076938 485.805258 
L 57.190456 483.323252 
L 57.964135 481.652671 
L 58.036441 481.013077 
L 57.645987 479.733889 
L 58.419665 478.301962 
L 58.542586 477.8342 
L 59.403031 477.261429 
L 60.18394 476.306811 
L 60.682854 475.16127 
L 60.957618 474.521676 
L 61.282997 474.053913 
L 61.275766 473.614789 
L 63.401574 469.758133 
L 63.495572 469.261732 
L 63.770336 468.822608 
L 63.799259 468.746238 
L 64.421094 468.020729 
L 64.406632 467.533874 
L 64.920008 466.731995 
L 64.905546 466.350148 
L 65.643071 465.261883 
L 66.047987 464.087704 
L 66.640899 462.789423 
L 66.756589 461.510236 
L 67.269965 460.880188 
L 67.132583 459.209607 
L 67.233812 459.343253 
L 67.537498 458.856398 
L 67.631497 458.598651 
L 67.66765 458.10225 
L 67.776109 457.939965 
L 67.595343 457.796772 
L 67.8918 456.823062 
L 68.484712 455.70616 
L 69.128238 454.971104 
L 69.431925 454.78018 
L 69.872994 454.169225 
L 70.429753 453.577362 
L 70.530982 452.918676 
L 70.747901 452.651383 
L 70.769593 452.38409 
L 70.950359 452.021335 
L 71.239585 451.677673 
L 71.622808 451.20991 
L 71.97711 450.828063 
L 72.194029 450.532131 
L 72.295258 450.474854 
L 72.649559 450.589408 
L 73.444929 450.493947 
L 73.582311 450.245746 
L 74.543986 449.606152 
L 74.999516 449.472505 
L 75.136898 449.205213 
L 75.194743 448.33651 
L 74.985055 448.107402 
L 74.992285 447.744647 
L 75.180282 447.219608 
L 75.216435 446.866399 
L 75.49843 446.446367 
L 75.693657 445.396288 
L 75.520122 445.300826 
L 75.715349 445.434472 
L 75.708118 445.396288 
L 76.207032 446.551375 
L 76.279339 446.446367 
L 76.402259 446.398636 
L 76.655332 446.255444 
L 77.031325 445.224456 
L 76.908404 444.947617 
L 76.966249 444.56577 
L 77.624237 443.945269 
L 77.877309 443.649337 
L 78.217149 442.847458 
L 78.195458 442.503796 
L 79.894657 439.554027 
L 80.299573 439.191272 
L 80.4948 438.790333 
L 80.747872 437.520691 
L 81.008175 437.177029 
L 80.711719 435.487355 
L 80.458647 435.181877 
L 80.820179 434.446822 
L 80.567107 434.055428 
L 80.473108 433.492204 
L 80.596029 432.948072 
L 82.049387 430.485158 
L 82.859219 429.578271 
L 83.148444 428.95777 
L 83.32921 428.251352 
L 84.059504 427.163088 
L 84.522265 426.819426 
L 84.854874 426.418486 
L 85.057332 425.902993 
L 84.948873 425.349314 
L 85.050102 424.280142 
L 85.317635 423.984211 
L 85.910547 422.819577 
L 86.416692 422.170437 
L 86.901145 421.998606 
L 86.648072 421.521297 
L 86.73484 420.652595 
L 87.060219 420.280294 
L 87.18314 419.984362 
L 87.515749 420.118009 
L 87.580825 420.308932 
L 87.797744 420.098917 
L 88.10143 420.013001 
L 88.397887 419.7648 
L 88.766649 418.953375 
L 89.207718 417.569179 
L 89.128181 417.244609 
L 89.482482 416.96777 
L 90.176623 416.624108 
L 90.596 416.433184 
L 90.639384 416.280445 
L 90.783997 416.213622 
L 90.892456 415.898598 
L 91.297372 415.478567 
L 91.572136 415.392651 
L 91.709518 415.306735 
L 92.099973 414.762603 
L 92.005975 414.380756 
L 92.172279 413.07293 
L 92.237355 412.958376 
L 92.172279 412.614713 
L 92.215663 411.965573 
L 92.143357 411.564634 
L 92.331353 410.905947 
L 92.606117 410.695932 
L 93.177338 409.388105 
L 93.683482 408.118464 
L 93.857018 407.812986 
L 94.21855 406.581529 
L 94.428238 406.027851 
L 94.507775 405.445534 
L 95.266992 405.05414 
L 96.228667 403.288098 
L 96.727581 402.896704 
L 97.016806 401.588878 
L 96.937269 401.140208 
L 97.212033 400.51016 
L 97.371107 399.78465 
L 97.985712 399.440988 
L 99.655989 396.41485 
L 99.78614 395.842079 
L 100.097058 395.374316 
L 100.957503 394.849276 
L 101.333497 394.620168 
L 101.528724 394.410152 
L 101.637183 394.257413 
L 101.637183 394.257413 
L 102.259018 392.978226 
L 101.781796 392.033154 
L 101.297343 391.288552 
L 102.533782 388.835184 
L 104.927123 384.921252 
L 105.317578 384.463035 
L 105.585111 383.823441 
L 106.170793 383.260217 
L 106.648015 381.694644 
L 107.537383 380.262717 
L 109.08474 378.945344 
L 110.328409 378.086188 
L 111.116549 376.88337 
L 111.405774 375.900114 
L 111.897458 375.231881 
L 112.439755 374.305902 
L 113.039898 373.752224 
L 114.117263 372.406213 
L 114.493256 371.594787 
L 115.028323 370.926555 
L 115.968306 369.34189 
L 117.277052 367.814501 
L 118.253188 366.373028 
L 118.781024 365.69525 
L 119.352244 364.654716 
L 119.64147 363.881476 
L 121.217749 362.325449 
L 122.092656 361.914963 
L 123.076023 361.657216 
L 124.673993 360.817153 
L 125.143985 360.158467 
L 124.948758 359.261126 
L 125.08614 358.678809 
L 125.31752 358.230139 
L 125.664591 357.915115 
L 126.727494 355.824502 
L 127.284254 355.709948 
L 127.493942 355.509478 
L 127.551787 354.984438 
L 127.992856 353.838897 
L 128.303773 353.218395 
L 128.405002 352.454701 
L 129.467906 351.223244 
L 130.30666 349.676763 
L 131.109261 348.254383 
L 131.716634 347.719797 
L 132.085397 346.125585 
L 132.201087 345.247337 
L 132.613233 344.512281 
L 133.090455 344.13998 
L 133.921978 341.896629 
L 135.483796 339.309614 
L 135.686254 337.782226 
L 135.968249 336.980347 
L 136.337011 336.350299 
L 136.973307 336.102099 
L 137.775908 335.080658 
L 137.934982 334.269233 
L 138.36159 333.457807 
L 138.874965 332.970952 
L 139.438955 332.254989 
L 139.974022 331.920873 
L 141.130924 330.880339 
L 141.550301 330.15483 
L 142.085368 329.543875 
L 142.389055 327.749193 
L 142.967506 326.30772 
L 142.953044 325.477203 
L 144.211175 322.966558 
L 144.565476 322.393787 
L 144.883624 321.553724 
L 145.541612 320.408182 
L 145.73684 319.634942 
L 146.040526 319.033533 
L 146.828666 317.859353 
L 147.342041 316.790181 
L 147.139583 315.673278 
L 146.597285 315.291431 
L 146.886511 314.031336 
L 146.966048 313.382196 
L 147.255273 312.84761 
L 147.088969 312.628048 
L 147.125122 312.351208 
L 146.893742 311.492052 
L 147.023893 310.94792 
L 146.973279 310.441973 
L 146.445442 309.945572 
L 146.626208 309.659186 
L 147.154045 309.515994 
L 147.595113 309.458717 
L 148.072335 309.086416 
L 148.376022 308.370452 
L 149.185854 307.492204 
L 148.00726 307.119903 
L 147.392656 305.707069 
L 147.240812 304.790636 
L 146.929895 304.637897 
L 146.640669 304.074672 
L 147.182967 303.788287 
L 147.096199 303.540086 
L 146.749129 303.244155 
L 146.720206 302.289537 
L 146.944356 302.10816 
L 147.016662 301.802682 
L 148.137411 300.418486 
L 148.209718 300.370755 
L 148.795399 299.215668 
L 148.997857 298.175134 
L 149.843842 297.373256 
L 149.511232 296.829123 
L 149.590769 295.884052 
L 149.872764 295.855413 
L 150.422293 294.356663 
L 150.545213 293.650246 
L 150.798286 292.915191 
L 150.870592 290.729116 
L 151.731038 289.354466 
L 151.383967 289.201727 
L 151.919034 288.208925 
L 152.107031 286.920191 
L 152.056417 285.870111 
L 152.20826 285.278248 
L 151.167048 284.610016 
L 150.725979 284.60047 
L 150.342756 284.820032 
L 148.795399 285.306887 
L 146.112833 286.490613 
L 144.276251 286.051489 
L 144.232867 286.442882 
L 143.46642 286.452428 
L 143.141041 286.09922 
L 142.627666 285.927388 
L 166.264619 272.094977 
L 166.980452 266.901856 
L 168.882109 263.150208 
L 170.169163 262.625169 
L 171.166991 262.434245 
L 172.29497 261.355527 
L 173.075879 260.420002 
L 175.772907 258.214834 
L 176.965962 257.403409 
L 177.51549 256.639715 
L 177.790254 255.70419 
L 178.101172 255.17915 
L 178.6507 253.88087 
L 179.221921 253.346284 
L 179.981137 253.107629 
L 180.248671 252.544405 
L 182.866162 248.53501 
L 183.220463 247.647216 
L 182.099714 247.790408 
L 183.06862 247.418107 
L 184.456902 245.623426 
L 184.724435 245.022017 
L 186.011489 244.067399 
L 186.922549 243.905114 
L 187.211775 243.303705 
L 187.638382 243.093689 
L 187.746842 242.406364 
L 188.187911 242.205894 
L 188.158988 241.948148 
L 187.833609 241.279915 
L 186.886396 240.735783 
L 186.416405 240.296659 
L 185.765647 240.048458 
L 185.013661 239.94345 
L 183.249385 239.103387 
L 180.834353 237.556906 
L 180.342669 237.375528 
L 179.511146 236.707296 
L 179.048385 236.611834 
L 178.614547 236.277718 
L 177.529951 235.580847 
L 177.190112 235.275369 
L 176.091055 235.093992 
L 175.563218 234.731237 
L 175.114919 234.616683 
L 174.536468 233.948451 
L 174.753387 233.117933 
L 174.044784 233.05111 
L 172.345585 232.583347 
L 171.369449 232.354239 
L 170.36439 231.857838 
L 167.877051 229.519024 
L 167.18291 229.051261 
L 166.488768 228.402121 
L 164.854644 227.810258 
L 163.466362 227.075203 
L 162.215462 226.435609 
L 160.393341 225.490537 
L 157.486625 224.239988 
L 156.445413 223.724494 
L 156.452644 224.612289 
L 155.932038 224.373634 
L 154.71006 223.590848 
L 153.813461 223.743587 
L 153.611004 223.457201 
L 153.57485 223.142177 
L 153.206088 221.805713 
L 152.902401 220.192409 
L 151.75996 218.254534 
L 150.552444 217.395378 
L 149.359389 215.915721 
L 149.055702 215.09475 
L 148.737554 213.662823 
L 148.57848 212.937313 
L 148.195256 212.307266 
L 148.289255 211.381286 
L 148.224179 210.340753 
L 148.766477 207.753739 
L 148.600172 205.882688 
L 148.614633 204.794424 
L 148.426637 203.085658 
L 147.913261 202.379241 
L 147.78311 200.83276 
L 147.920492 199.887688 
L 147.537268 198.293477 
L 147.154045 194.112251 
L 147.146814 193.377195 
L 147.276965 192.470308 
L 147.21189 191.028836 
L 147.298657 190.131495 
L 146.792513 186.351208 
L 146.980509 185.740253 
L 146.41652 185.692522 
L 145.924836 184.776089 
L 146.011604 182.819123 
L 145.910375 182.255898 
L 146.633439 180.72851 
L 146.857588 178.475612 
L 146.770821 177.85511 
L 146.929895 177.234609 
L 146.915434 173.922085 
L 146.806974 170.275445 
L 146.886511 168.728964 
L 146.893742 167.898447 
L 147.031124 167.020198 
L 147.248043 155.832078 
L 147.21189 152.758209 
L 147.580652 149.68434 
L 147.320349 147.622365 
L 147.197428 146.973225 
L 146.250215 145.493568 
L 145.982681 145.369467 
L 145.613919 145.331283 
L 145.353616 145.149905 
L 145.129466 144.099826 
L 145.216234 143.412501 
L 144.457017 141.86602 
L 143.878566 141.636912 
L 143.835182 140.920949 
L 143.415805 140.395909 
L 143.198886 139.823138 
L 143.220578 138.477127 
L 143.032581 136.768361 
L 142.511975 136.529707 
L 142.396285 135.851928 
L 141.644299 135.288704 
L 146.373136 131.861626 
L 146.720206 126.63032 
L 146.655131 125.761618 
L 147.385425 123.107781 
L 147.761418 122.095886 
L 148.882167 119.766619 
L 150.270449 116.874127 
L 150.96459 115.51857 
L 151.174279 114.840791 
L 153.929152 109.666763 
L 154.811289 108.912615 
L 155.556045 107.595242 
L 155.606659 106.907917 
L 156.51772 105.657368 
L 157.869849 103.576301 
L 158.231381 102.764876 
L 159.229209 101.437957 
L 159.511204 100.788817 
L 161.326093 97.772225 
L 161.557474 97.132631 
L 163.936354 92.645928 
L 164.587111 91.04217 
L 164.890798 89.810713 
L 165.490941 88.655625 
L 166.098314 87.538723 
L 166.532152 86.822759 
L 166.712918 86.202258 
L 167.623978 84.426669 
L 168.66519 81.830108 
L 169.467791 79.825411 
L 171.015147 77.734798 
L 170.70423 77.916175 
L 172.237125 74.909129 
L 172.598657 73.629942 
L 172.996342 73.047625 
L 173.242184 72.350754 
L 174.102629 71.214759 
L 174.543698 70.498795 
L 174.804001 69.821017 
L 176.409203 67.234003 
L 177.501029 65.91663 
L 178.144556 64.694719 
L 179.005001 63.692371 
L 179.062847 63.272339 
L 179.337611 62.737753 
L 179.467762 62.241352 
L 179.865447 61.94542 
L 180.299285 61.334465 
L 181.82495 59.950269 
L 190.060646 46.366058 
L 191.210317 44.370907 
L 192.135839 43.110811 
L 194.746099 38.242261 
L 195.129322 36.905796 
L 195.606544 35.702977 
L 196.503143 34.251958 
L 196.503143 34.42379 
L 198.252958 34.175589 
L 198.600028 34.156497 
L 198.520491 34.080127 
L 198.021577 33.660095 
L 197.913118 33.421441 
L 196.748985 32.4 
L 197.876965 33.841473 
L 197.876965 33.841473 
" clip-path="url(#p2b9592216d)" style="fill: none; stroke: #000000; stroke-width: 3"/>
   </g>
  </g>
 </g>
 <defs>
  <clipPath id="p2b9592216d">
   <rect x="7.2" y="7.2" width="225.519236" height="554.4"/>
  </clipPath>
 </defs>
</svg>
