<?xml version="1.0" encoding="utf-8" standalone="no"?>
<!DOCTYPE svg PUBLIC "-//W3C//DTD SVG 1.1//EN"
  "http://www.w3.org/Graphics/SVG/1.1/DTD/svg11.dtd">
<svg xmlns:xlink="http://www.w3.org/1999/xlink" width="480.408809pt" height="568.8pt" viewBox="0 0 480.408809 568.8" xmlns="http://www.w3.org/2000/svg" version="1.1">
 <metadata>
  <rdf:RDF xmlns:dc="http://purl.org/dc/elements/1.1/" xmlns:cc="http://creativecommons.org/ns#" xmlns:rdf="http://www.w3.org/1999/02/22-rdf-syntax-ns#">
   <cc:Work>
    <dc:type rdf:resource="http://purl.org/dc/dcmitype/StillImage"/>
    <dc:date>2022-09-22T05:29:46.101567</dc:date>
    <dc:format>image/svg+xml</dc:format>
    <dc:creator>
     <cc:Agent>
      <dc:title>Matplotlib v3.6.0, https://matplotlib.org/</dc:title>
     </cc:Agent>
    </dc:creator>
   </cc:Work>
  </rdf:RDF>
 </metadata>
 <defs>
  <style type="text/css">*{stroke-linejoin: round; stroke-linecap: butt}</style>
 </defs>
 <g id="figure_1">
  <g id="patch_1">
   <path d="M 0 568.8 
L 480.408809 568.8 
L 480.408809 0 
L 0 0 
z
" style="fill: #ffffff"/>
  </g>
  <g id="axes_1">
   <g id="LineCollection_1">
    <path d="M 108.027022 446.706268 
L 108.492287 447.125267 
L 109.126738 447.432533 
L 109.866931 447.600133 
L 111.389615 448.158798 
L 112.277847 448.382265 
L 112.975743 448.912997 
L 113.779382 449.695128 
L 115.36551 450.840392 
L 116.317188 451.650457 
L 118.157097 453.54992 
L 119.722077 454.75105 
L 122.450218 456.594646 
L 123.296153 457.181245 
L 124.861134 458.522042 
L 129.069661 459.974572 
L 130.190526 460.002505 
L 131.163351 460.253905 
L 133.468525 460.505304 
L 136.40815 460.81257 
L 138.184614 461.482968 
L 139.093994 461.957834 
L 139.961078 462.600299 
L 142.202806 464.779094 
L 142.773812 465.617093 
L 144.994392 467.460688 
L 145.882625 468.494219 
L 149.837372 472.069678 
L 151.29661 474.30434 
L 151.994507 476.147935 
L 152.354029 477.432866 
L 152.523216 479.388195 
L 152.502068 480.561392 
L 152.840442 484.053051 
L 153.051926 487.181577 
L 153.453745 489.053106 
L 153.855564 489.946971 
L 154.341977 490.757036 
L 157.471937 493.634163 
L 160.559601 496.483356 
L 162.484104 497.377221 
L 164.112529 497.96382 
L 166.71378 498.634218 
L 168.490244 498.466619 
L 169.632257 498.718018 
L 170.37245 499.137017 
L 172.191211 499.835349 
L 173.37552 500.114682 
L 175.067391 500.980613 
L 177.055338 502.656609 
L 177.668641 502.991808 
L 178.408835 503.997406 
L 179.25477 507.209732 
L 179.889221 508.243263 
L 181.136976 509.444394 
L 182.617363 510.673458 
L 183.505595 511.260057 
L 184.964833 511.818722 
L 186.614407 512.544987 
L 187.523787 513.382985 
L 188.433167 513.969584 
L 191.859205 515.422114 
L 195.242946 517.433309 
L 195.961991 517.600909 
L 198.943913 517.880242 
L 200.4243 518.857906 
L 201.524015 520.282503 
L 203.850337 523.606562 
L 204.611679 524.025561 
L 206.30355 524.61216 
L 207.21293 524.779759 
L 208.143459 524.69596 
L 209.137433 524.416627 
L 210.216 524.388694 
L 211.209974 524.584227 
L 213.09218 525.533958 
L 214.910941 526.735088 
L 216.370179 527.461353 
L 219.944255 529.416682 
L 222.10139 530.115014 
L 223.814409 530.729546 
L 225.823505 531.260278 
L 227.621118 531.902743 
L 228.699685 532.349676 
L 234.134819 535.701668 
L 236.059322 536.288267 
L 236.926406 536.4 
L 237.878083 536.3162 
L 241.17723 535.506135 
L 243.165178 534.472604 
L 244.497526 533.662539 
L 247.669783 532.461409 
L 248.452273 532.321743 
L 251.307305 531.204412 
L 254.458414 530.394347 
L 255.410091 530.25468 
L 256.298323 530.003281 
L 257.672967 529.779815 
L 258.603496 529.751882 
L 260.020438 529.444616 
L 261.479676 529.277016 
L 262.60054 529.277016 
L 264.017482 529.388749 
L 265.60361 529.807748 
L 266.703326 529.919481 
L 268.818164 530.534013 
L 269.812138 531.008879 
L 270.827261 531.148545 
L 271.567454 531.036812 
L 274.591672 531.427878 
L 276.791104 531.902743 
L 277.76393 532.321743 
L 282.035903 532.573142 
L 284.150741 532.265876 
L 290.474107 530.282614 
L 296.268763 526.595422 
L 296.818621 526.008823 
L 297.981782 524.276961 
L 300.477291 519.975237 
L 303.924477 514.779649 
L 304.389742 513.857851 
L 305.954722 511.679056 
L 306.525728 510.924857 
L 307.646592 508.997462 
L 309.126979 505.505803 
L 311.622488 501.511345 
L 313.885365 496.818556 
L 316.084796 492.907898 
L 318.136189 489.192773 
L 318.770641 488.410641 
L 319.468537 487.349177 
L 320.441363 485.505581 
L 321.985195 482.879854 
L 323.169504 480.896591 
L 324.755633 478.270864 
L 325.70731 476.594868 
L 326.151426 475.561337 
L 327.208845 473.661874 
L 328.96416 469.77915 
L 329.408276 468.605952 
L 329.852392 467.963487 
L 332.009527 463.996963 
L 333.109243 462.0975 
L 334.166662 459.918705 
L 334.71652 459.080707 
L 335.647049 457.125378 
L 337.317771 454.220318 
L 338.586674 451.259391 
L 339.28457 450.533126 
L 342.837499 445.197872 
L 343.916066 443.382209 
L 349.901058 432.432367 
L 352.35427 427.711644 
L 353.961547 425.141784 
L 359.650462 414.471274 
L 360.496397 412.320412 
L 362.336306 408.577354 
L 362.611235 407.711423 
L 363.076499 406.761692 
L 365.381673 403.046567 
L 367.348472 398.54931 
L 368.638524 396.314648 
L 371.239774 391.817392 
L 372.973942 387.822934 
L 373.312316 387.180469 
L 373.671838 386.174871 
L 374.242845 383.074278 
L 374.454328 380.057485 
L 374.496625 377.96249 
L 374.665812 376.817226 
L 374.517774 372.347902 
L 374.010212 367.822712 
L 373.862174 366.705382 
L 373.946767 362.124325 
L 374.179399 359.973463 
L 374.412032 358.911999 
L 374.877296 357.822602 
L 375.21567 356.705271 
L 375.765528 353.437078 
L 376.928689 349.721953 
L 377.626586 345.615762 
L 377.626586 343.5487 
L 377.457399 339.079377 
L 376.294238 334.693854 
L 376.230792 333.911722 
L 374.56007 329.218933 
L 374.094806 328.269201 
L 373.756432 327.151871 
L 373.333464 326.146273 
L 372.74131 325.168608 
L 367.77144 319.302622 
L 366.100718 317.682492 
L 365.508563 316.872427 
L 364.937557 314.721565 
L 364.662628 311.146107 
L 365.064447 308.827645 
L 365.339376 307.710314 
L 365.741195 306.620917 
L 366.714021 302.12366 
L 367.094692 301.034263 
L 369.590201 296.257673 
L 370.182355 295.363809 
L 371.176329 293.296747 
L 372.952793 290.196154 
L 373.481503 289.022956 
L 375.680935 285.028499 
L 377.901515 281.117841 
L 378.514818 280.279843 
L 380.164391 278.352447 
L 382.342675 275.47532 
L 383.823061 273.603791 
L 384.795887 271.816062 
L 387.524028 268.12887 
L 388.264221 267.486405 
L 391.055808 263.910946 
L 391.521072 263.184681 
L 392.19782 262.430483 
L 392.789975 261.452818 
L 394.777923 259.022624 
L 395.560413 258.380159 
L 396.300606 257.62596 
L 399.430567 253.687369 
L 401.418514 251.564441 
L 402.074114 250.754376 
L 403.448759 249.497378 
L 406.811352 246.061586 
L 408.185996 244.581123 
L 413.684576 238.519603 
L 414.699698 236.676007 
L 416.137788 232.960882 
L 416.476162 231.033487 
L 416.729942 230.083755 
L 416.835684 225.307166 
L 416.49731 222.206573 
L 416.180085 220.223311 
L 415.651375 211.731597 
L 416.264678 205.390744 
L 416.581904 203.351616 
L 416.729942 201.116954 
L 417.533581 197.094563 
L 417.766213 196.116899 
L 418.358368 191.256509 
L 418.950522 186.843053 
L 419.733013 182.764795 
L 421.001915 177.988206 
L 422.545747 174.077548 
L 423.391682 172.178086 
L 424.850921 169.803758 
L 425.90834 168.183628 
L 427.113798 166.731098 
L 429.757345 163.965704 
L 431.851035 162.177975 
L 435.086737 159.608114 
L 436.694014 158.54665 
L 438.174401 157.122053 
L 439.866271 155.837122 
L 440.754503 155.250524 
L 441.685032 154.775658 
L 442.615561 154.468392 
L 443.567238 153.993527 
L 447.712321 151.004667 
L 449.065817 149.635936 
L 450.144385 147.932007 
L 451.476733 145.362146 
L 451.836255 144.300682 
L 452.026591 143.574417 
L 451.984294 142.652619 
L 451.138359 138.546428 
L 450.102088 136.702832 
L 448.706295 135.250302 
L 448.029547 134.440237 
L 447.20476 133.797772 
L 446.379973 133.322906 
L 445.470592 133.01564 
L 444.476619 132.875974 
L 443.67298 132.596641 
L 441.917664 132.401108 
L 439.866271 132.484908 
L 436.588272 132.931841 
L 435.552002 133.26704 
L 430.666726 135.725168 
L 426.965759 138.350895 
L 426.014082 139.105093 
L 424.322211 140.892823 
L 421.297993 144.161015 
L 420.536651 144.775547 
L 418.633297 145.613545 
L 417.597026 145.809078 
L 415.313001 145.809078 
L 414.107543 145.725279 
L 411.633183 145.082813 
L 409.645235 144.161015 
L 406.726758 142.177753 
L 405.711636 141.339755 
L 404.865701 140.362091 
L 402.814308 137.233564 
L 401.291624 133.127373 
L 401.164734 132.121776 
L 401.164734 130.948578 
L 401.291624 129.998847 
L 401.841482 128.211118 
L 402.327895 127.009987 
L 403.004643 125.92059 
L 403.871727 124.747392 
L 406.240345 120.976401 
L 409.645235 116.981943 
L 411.463996 114.104816 
L 412.754047 112.59642 
L 413.599982 112.149487 
L 415.016924 111.171823 
L 416.285826 109.412027 
L 417.618174 106.814233 
L 418.189181 106.004168 
L 418.887077 105.305836 
L 419.37349 104.495771 
L 420.092535 102.903575 
L 424.047282 95.501258 
L 424.618289 94.523594 
L 425.316185 92.791731 
L 425.760301 91.115735 
L 426.860017 88.992806 
L 427.47332 88.210674 
L 427.917436 87.456476 
L 429.799642 81.730156 
L 430.22261 80.696625 
L 430.201461 78.936829 
L 430.814764 77.0653 
L 431.174287 76.115568 
L 431.808738 72.009378 
L 430.095719 66.087524 
L 429.270932 64.383595 
L 428.636481 63.433864 
L 426.394753 61.059536 
L 423.370534 58.154475 
L 422.757231 57.51201 
L 421.234548 56.255013 
L 420.050238 54.886283 
L 418.802484 53.294086 
L 416.053194 50.752159 
L 413.599982 48.768897 
L 412.627156 48.294031 
L 410.766099 47.0929 
L 410.068202 46.478368 
L 407.657287 44.830305 
L 403.321869 42.511844 
L 402.454785 41.869379 
L 399.071044 40.221316 
L 398.140515 39.941983 
L 397.125393 39.83025 
L 396.216013 39.578851 
L 395.412374 39.215718 
L 391.753704 38.12632 
L 389.511976 37.679388 
L 385.366893 36.478257 
L 384.436364 36.338591 
L 383.590429 36.394458 
L 382.131191 36.115125 
L 379.826017 35.416793 
L 376.230792 35.919592 
L 373.65069 35.584393 
L 371.43011 35.22126 
L 370.711065 34.606728 
L 368.955749 33.712864 
L 367.982924 33.461464 
L 366.819763 33.349731 
L 366.143015 33.405598 
L 365.318228 33.210065 
L 364.662628 32.511733 
L 363.753248 32.427933 
L 361.976784 32.455867 
L 358.614191 32.4838 
L 357.895146 32.763133 
L 356.393611 33.68493 
L 354.976669 34.662595 
L 352.417715 36.617924 
L 350.641251 38.29392 
L 349.47809 39.550917 
L 348.864787 40.137516 
L 348.251484 41.031381 
L 347.405549 43.321909 
L 345.967459 46.450435 
L 345.079227 50.24936 
L 345.184969 52.903021 
L 345.56564 55.696348 
L 346.792246 58.070676 
L 347.511291 58.824874 
L 348.145742 59.746672 
L 349.097419 61.534401 
L 349.689574 62.093067 
L 350.302877 62.456199 
L 351.169961 62.763465 
L 352.861831 63.852863 
L 354.595998 63.769063 
L 355.35734 63.852863 
L 357.028062 64.299795 
L 359.333236 64.802594 
L 361.786448 65.724392 
L 363.372577 66.031658 
L 364.852963 66.47859 
L 365.67775 66.925522 
L 369.294123 68.517719 
L 370.9014 69.607116 
L 373.100832 71.757978 
L 373.671838 72.568043 
L 375.257967 75.417237 
L 377.478547 81.199424 
L 377.753476 83.545818 
L 377.816921 87.568209 
L 377.647734 88.60174 
L 377.647734 89.635271 
L 377.43625 90.361536 
L 377.415102 92.233065 
L 377.668882 95.193992 
L 377.859218 96.087857 
L 378.112998 97.959386 
L 378.832043 101.283445 
L 379.487643 103.043241 
L 382.131191 108.350563 
L 382.363823 109.384094 
L 382.871384 116.730544 
L 382.638752 119.69147 
L 382.173488 121.814399 
L 381.264107 124.13286 
L 380.777694 125.166391 
L 379.424198 127.037921 
L 378.451372 128.90945 
L 374.877296 134.077105 
L 373.587245 135.781034 
L 368.850007 140.725223 
L 367.158137 141.842554 
L 366.502537 142.512952 
L 364.070473 144.077216 
L 362.061377 145.082813 
L 361.130848 145.501812 
L 359.100604 146.144278 
L 353.517431 148.21134 
L 348.336078 150.501868 
L 344.931188 151.675065 
L 343.070131 152.513063 
L 338.671267 155.082924 
L 335.816236 158.239384 
L 335.033746 158.825982 
L 334.335849 159.552247 
L 333.384172 161.172377 
L 332.580534 163.323239 
L 331.628857 165.055102 
L 330.952108 167.317697 
L 330.571437 169.189226 
L 330.042728 170.893155 
L 329.429425 171.675287 
L 329.006457 172.569151 
L 328.900715 173.32335 
L 327.949038 176.116677 
L 326.193723 179.04967 
L 325.516974 179.943535 
L 324.100033 181.228465 
L 322.83113 182.12233 
L 322.196678 182.736862 
L 319.997247 184.301125 
L 318.305376 185.11119 
L 312.066604 187.457585 
L 310.395882 188.295583 
L 308.767456 189.217381 
L 308.006115 189.692246 
L 306.419986 190.195045 
L 305.679793 190.250912 
L 301.53471 191.731375 
L 300.709923 191.926908 
L 299.96973 192.262107 
L 296.882066 194.385036 
L 296.014983 195.111301 
L 294.280815 196.144832 
L 293.456028 196.507964 
L 289.247501 199.161625 
L 288.570752 199.915823 
L 286.159837 202.010819 
L 284.721747 203.156083 
L 283.093322 204.468946 
L 281.866716 205.837677 
L 280.640109 207.31814 
L 278.377233 210.781866 
L 277.594743 212.262329 
L 276.473878 213.882459 
L 272.455686 222.430039 
L 271.207931 224.580901 
L 270.510035 226.284831 
L 269.537209 230.083755 
L 269.071945 231.871485 
L 267.591558 235.50281 
L 266.174617 237.709538 
L 265.497869 239.525201 
L 264.842269 241.033598 
L 264.144372 242.569927 
L 262.431353 245.92192 
L 260.591444 249.860511 
L 259.745509 252.318639 
L 259.068761 253.743236 
L 258.349716 255.670631 
L 256.869329 258.352225 
L 256.46751 258.882957 
L 255.790762 260.167888 
L 255.304349 260.810353 
L 254.839084 261.704218 
L 254.268078 262.402549 
L 253.633627 262.961215 
L 252.956878 263.799213 
L 251.349602 265.30761 
L 249.107873 266.76014 
L 246.379732 269.4976 
L 244.751307 270.726664 
L 241.621346 273.408258 
L 240.860004 273.93899 
L 234.536638 277.430649 
L 231.660459 279.888777 
L 230.20122 281.117841 
L 229.29184 282.374838 
L 228.720834 283.436302 
L 228.593943 284.022901 
L 227.282744 286.564828 
L 226.859776 287.291093 
L 225.908099 290.643086 
L 225.654318 291.70455 
L 225.527428 292.738081 
L 225.590873 294.77721 
L 225.527428 295.810741 
L 225.823505 299.023067 
L 225.992692 301.006329 
L 226.28877 303.017525 
L 226.54255 306.592983 
L 226.352215 309.63771 
L 225.590873 315.838896 
L 225.273647 317.794225 
L 224.491157 320.643419 
L 223.899003 322.151815 
L 222.88388 323.827811 
L 221.741868 325.252408 
L 221.107416 326.202139 
L 219.62703 327.766402 
L 218.781094 328.325068 
L 218.104346 328.967533 
L 217.237263 329.358599 
L 214.932089 331.146328 
L 212.1828 332.961991 
L 210.660116 333.855855 
L 209.96222 334.386588 
L 207.551304 335.559785 
L 206.789962 335.755318 
L 205.140389 336.341917 
L 204.611679 336.313983 
L 203.152441 336.649183 
L 202.708325 337.235781 
L 199.493771 338.520712 
L 198.922765 338.939711 
L 197.928791 339.414576 
L 196.977113 340.001175 
L 192.239876 341.537505 
L 189.955851 342.626902 
L 186.910484 344.973297 
L 185.282059 346.565494 
L 184.816794 347.235892 
L 183.315259 348.744289 
L 181.686834 350.085086 
L 180.904344 350.671684 
L 179.593144 351.956615 
L 177.774383 353.353278 
L 175.532655 355.476207 
L 174.136862 356.509738 
L 171.345275 359.023732 
L 169.568811 361.146661 
L 168.786321 361.789126 
L 165.93129 364.833852 
L 164.218271 367.878579 
L 163.753007 368.772444 
L 163.372336 369.889774 
L 163.266594 370.895372 
L 162.737884 371.789237 
L 161.913097 373.884232 
L 160.686491 375.727828 
L 160.157782 376.621693 
L 159.290698 378.744621 
L 158.444763 380.588217 
L 158.08524 381.565882 
L 157.598828 382.459746 
L 156.900931 384.498875 
L 156.583705 386.482137 
L 155.73777 388.912332 
L 155.653177 389.722396 
L 155.716622 390.644194 
L 154.786093 399.052109 
L 154.595758 399.91804 
L 154.680351 401.817503 
L 154.849538 403.577299 
L 155.61088 406.454426 
L 155.632028 407.460023 
L 158.042944 413.49361 
L 158.698544 416.566269 
L 158.825434 417.348401 
L 159.163808 418.353999 
L 159.311847 419.974128 
L 159.861704 421.985324 
L 160.094337 423.57752 
L 160.623046 424.722784 
L 161.194052 426.873646 
L 161.786207 429.499374 
L 162.441807 432.153034 
L 163.879897 438.43802 
L 163.879897 441.203414 
L 163.245445 445.561004 
L 163.245445 446.454869 
L 162.864775 447.991199 
L 162.27262 449.695128 
L 161.786207 450.588993 
L 160.326969 454.024785 
L 158.761989 457.069512 
L 158.212131 457.963376 
L 157.83146 458.829308 
L 157.323899 459.555573 
L 156.203035 460.868437 
L 154.997577 462.991365 
L 154.236235 464.583561 
L 153.580635 466.036092 
L 152.7347 467.265155 
L 151.740726 469.248418 
L 151.444649 469.974683 
L 150.112301 471.734479 
L 146.19985 475.868603 
L 145.057838 477.376999 
L 143.387116 479.527861 
L 139.897633 482.796054 
L 138.057723 485.058649 
L 136.66193 486.17598 
L 134.145273 487.62851 
L 132.030435 489.053106 
L 131.247945 489.583839 
L 129.111958 491.399501 
L 127.462384 492.265433 
L 124.924579 493.215164 
L 124.078643 493.634163 
L 123.275005 493.885562 
L 121.477393 494.192828 
L 120.398825 494.388361 
L 119.426 494.72356 
L 117.543794 495.617425 
L 115.89422 496.455423 
L 109.655448 499.919149 
L 108.70377 500.645414 
L 107.773242 501.176146 
L 106.102519 502.349343 
L 104.579836 503.019742 
L 101.978585 503.438741 
L 98.171877 503.746007 
L 95.443735 503.718073 
L 93.857607 503.187341 
L 92.990523 502.628676 
L 91.933104 501.595145 
L 91.340949 500.840947 
L 90.896833 499.835349 
L 90.727646 499.109084 
L 90.706498 498.494552 
L 90.854537 497.656554 
L 91.214059 496.59509 
L 91.404395 495.645358 
L 91.277504 494.276628 
L 91.06602 493.243097 
L 90.791091 492.544765 
L 90.706498 491.762634 
L 90.727646 490.784969 
L 90.875685 490.030771 
L 91.615878 488.801707 
L 92.292627 488.103375 
L 93.646123 487.265377 
L 95.845555 485.477648 
L 96.81838 484.583783 
L 97.495128 483.745785 
L 99.906044 481.706656 
L 100.921166 481.036258 
L 101.492172 479.639594 
L 101.724805 478.885396 
L 103.268636 476.706601 
L 106.462042 473.214942 
L 107.244532 472.51661 
L 108.175061 471.874145 
L 109.211332 471.483079 
L 110.205305 470.812681 
L 110.67057 470.226082 
L 111.135834 469.164618 
L 111.537653 467.879687 
L 111.643395 466.985823 
L 112.045215 466.343358 
L 112.89115 463.689697 
L 112.954595 462.684099 
L 112.848853 461.287436 
L 112.193253 459.44384 
L 112.129808 458.661708 
L 111.70684 457.292978 
L 111.051241 455.728715 
L 110.226454 454.276185 
L 109.211332 453.102987 
L 107.836687 451.76219 
L 107.181087 451.343191 
L 106.187113 450.924192 
L 105.235436 450.784526 
L 103.649307 451.594591 
L 102.866817 452.264989 
L 102.528443 453.885119 
L 102.380404 455.644915 
L 101.724805 458.019243 
L 101.597914 458.857241 
L 101.196095 459.695239 
L 97.051012 465.728826 
L 96.03589 466.929956 
L 95.570626 467.935554 
L 95.443735 468.522153 
L 94.047942 471.203747 
L 93.265452 474.108807 
L 93.15971 475.030605 
L 93.413491 476.120002 
L 93.223155 478.49433 
L 92.779039 479.388195 
L 92.038846 480.11446 
L 90.68535 481.120058 
L 89.395298 481.73459 
L 88.168692 482.013922 
L 87.047828 481.790456 
L 84.213945 480.449659 
L 77.636798 477.656332 
L 75.077844 476.874201 
L 69.536968 475.701003 
L 68.268066 475.254071 
L 67.570169 474.667472 
L 66.280118 474.248473 
L 65.20155 473.689808 
L 63.446235 472.376944 
L 56.551862 469.024952 
L 52.026109 467.181356 
L 51.032135 466.62269 
L 47.521504 463.55003 
L 45.914227 462.3489 
L 43.757092 461.371235 
L 42.297853 461.091903 
L 40.563686 460.309771 
L 37.983584 458.577908 
L 35.699558 457.348844 
L 28.382219 454.164452 
L 28.382219 454.164452 
" clip-path="url(#p0bc8a578be)" style="fill: none; stroke: #000000; stroke-width: 3"/>
   </g>
  </g>
 </g>
 <defs>
  <clipPath id="p0bc8a578be">
   <rect x="7.2" y="7.2" width="466.008809" height="554.4"/>
  </clipPath>
 </defs>
</svg>
