<?xml version="1.0" encoding="utf-8" standalone="no"?>
<!DOCTYPE svg PUBLIC "-//W3C//DTD SVG 1.1//EN"
  "http://www.w3.org/Graphics/SVG/1.1/DTD/svg11.dtd">
<svg xmlns:xlink="http://www.w3.org/1999/xlink" width="410.192005pt" height="568.8pt" viewBox="0 0 410.192005 568.8" xmlns="http://www.w3.org/2000/svg" version="1.1">
 <metadata>
  <rdf:RDF xmlns:dc="http://purl.org/dc/elements/1.1/" xmlns:cc="http://creativecommons.org/ns#" xmlns:rdf="http://www.w3.org/1999/02/22-rdf-syntax-ns#">
   <cc:Work>
    <dc:type rdf:resource="http://purl.org/dc/dcmitype/StillImage"/>
    <dc:date>2022-09-30T05:29:46.054378</dc:date>
    <dc:format>image/svg+xml</dc:format>
    <dc:creator>
     <cc:Agent>
      <dc:title>Matplotlib v3.6.0, https://matplotlib.org/</dc:title>
     </cc:Agent>
    </dc:creator>
   </cc:Work>
  </rdf:RDF>
 </metadata>
 <defs>
  <style type="text/css">*{stroke-linejoin: round; stroke-linecap: butt}</style>
 </defs>
 <g id="figure_1">
  <g id="patch_1">
   <path d="M 0 568.8 
L 410.192005 568.8 
L 410.192005 0 
L 0 0 
z
" style="fill: #ffffff"/>
  </g>
  <g id="axes_1">
   <g id="LineCollection_1">
    <path d="M 41.721776 444.162354 
L 43.942701 443.774918 
L 44.906499 443.968636 
L 46.058866 444.660488 
L 48.175031 446.127213 
L 50.898808 448.009049 
L 52.847356 449.918559 
L 56.953973 454.484779 
L 58.713952 455.868482 
L 63.323421 458.276126 
L 65.334825 458.774259 
L 72.521405 459.742851 
L 73.589964 460.434702 
L 76.397549 463.451175 
L 78.408954 465.886492 
L 79.791794 467.491588 
L 81.991768 469.48412 
L 82.70414 469.733187 
L 83.416513 469.594817 
L 84.066029 469.069009 
L 86.475523 466.218581 
L 88.528832 463.063738 
L 89.387869 461.09888 
L 90.267859 459.383088 
L 91.273561 457.584274 
L 91.944029 455.342675 
L 92.949731 451.745047 
L 93.997338 449.752515 
L 95.023992 448.119745 
L 95.715412 446.127213 
L 95.883029 445.158621 
L 96.113503 442.750977 
L 96.616354 440.758445 
L 96.804923 439.651483 
L 96.783971 437.603602 
L 95.422083 432.34553 
L 94.604949 430.29765 
L 94.164955 428.969295 
L 93.850673 428.028377 
L 93.012588 426.063519 
L 92.677354 425.039578 
L 91.671651 423.07472 
L 90.707853 419.781507 
L 89.450726 418.065715 
L 88.843114 417.207819 
L 88.445024 416.266901 
L 88.298359 415.021568 
L 87.125039 410.427674 
L 86.161241 406.774698 
L 85.532678 404.671469 
L 85.134587 400.963145 
L 84.736497 398.306435 
L 85.008874 394.681133 
L 85.511725 392.550231 
L 85.993624 390.36398 
L 86.286954 384.746145 
L 86.726949 383.832901 
L 88.465976 381.120843 
L 89.115492 380.207599 
L 90.519284 376.997408 
L 92.111646 374.202328 
L 93.1383 372.099099 
L 93.683056 371.241204 
L 94.31162 370.46633 
L 95.086848 369.691456 
L 96.888732 367.283813 
L 97.5592 365.734065 
L 98.460141 363.796881 
L 99.549652 361.804349 
L 100.094407 360.891105 
L 100.743923 360.060883 
L 102.18962 358.926246 
L 102.671519 357.902306 
L 103.048658 356.656973 
L 104.473402 354.11096 
L 108.894302 348.93591 
L 109.460009 348.161037 
L 110.25619 347.330815 
L 111.219988 346.611289 
L 112.91711 345.559675 
L 113.755196 344.840149 
L 114.467568 344.037602 
L 115.452318 343.34575 
L 116.499924 342.792269 
L 118.071334 341.43624 
L 118.888467 340.965781 
L 121.654148 339.028597 
L 123.602696 337.949308 
L 125.404579 336.953042 
L 126.347425 336.454909 
L 127.164558 335.873754 
L 127.981691 335.458643 
L 128.75692 334.766791 
L 130.72642 333.742851 
L 132.654016 332.995651 
L 133.701622 332.995651 
L 134.791133 332.552866 
L 137.263484 332.331474 
L 140.552969 331.473578 
L 142.648182 330.947771 
L 144.659586 330.255919 
L 146.482421 329.03826 
L 147.886214 327.12875 
L 150.442374 325.302262 
L 151.280459 324.527389 
L 152.160448 323.890885 
L 153.438528 322.175093 
L 154.653752 320.071865 
L 155.533741 319.380013 
L 156.183257 318.466769 
L 156.853725 317.747244 
L 158.613704 314.841467 
L 159.074651 313.014979 
L 159.388933 310.856402 
L 159.347029 309.472699 
L 158.886082 306.317856 
L 158.215614 304.657413 
L 157.566098 302.858599 
L 157.105151 301.557918 
L 156.497539 298.320053 
L 156.246113 296.216824 
L 156.078496 292.757566 
L 156.099448 291.595256 
L 157.063246 286.973688 
L 157.754667 284.898133 
L 158.047997 283.708148 
L 159.26322 281.577246 
L 160.080353 280.470283 
L 161.609858 277.675203 
L 162.825082 275.904063 
L 164.333635 274.271294 
L 165.234577 273.63479 
L 166.261231 273.164331 
L 167.979306 271.476213 
L 170.200231 270.147859 
L 172.379253 269.262289 
L 173.573524 268.764156 
L 175.396359 267.657193 
L 176.339205 266.854645 
L 177.386812 266.218142 
L 178.45537 265.720009 
L 180.152493 264.253284 
L 181.807711 263.506084 
L 182.457227 263.090973 
L 183.211504 262.814232 
L 184.720057 261.596574 
L 186.040041 260.268219 
L 187.21336 258.746145 
L 188.805722 255.951065 
L 189.37143 255.342236 
L 191.759972 250.94206 
L 192.807579 248.230002 
L 195.992302 238.516407 
L 196.369441 236.883637 
L 196.767531 235.887371 
L 198.52751 229.8821 
L 201.08367 224.236591 
L 202.026516 222.327081 
L 203.618877 219.365957 
L 204.792197 216.985987 
L 205.965516 215.021129 
L 207.117883 213.083945 
L 207.788351 212.281397 
L 208.919766 210.205842 
L 209.590234 209.209576 
L 211.475926 205.777993 
L 211.957825 205.030793 
L 212.816862 203.92383 
L 217.258713 199.412958 
L 218.075846 198.33367 
L 218.725362 197.032989 
L 220.988192 194.237909 
L 221.784373 193.573732 
L 225.702421 192.13468 
L 226.77098 191.830266 
L 227.713826 191.415155 
L 228.63572 190.861674 
L 229.536661 190.059126 
L 231.610922 188.786119 
L 232.721385 188.287986 
L 233.831848 187.928223 
L 235.026119 187.679157 
L 236.136582 187.56846 
L 237.184188 187.153349 
L 241.33271 186.018713 
L 245.355519 184.358269 
L 250.237365 182.7255 
L 253.73637 180.400879 
L 254.532551 179.736701 
L 255.182067 178.823457 
L 258.26203 175.613266 
L 260.273435 172.320053 
L 261.321041 169.607995 
L 261.719131 168.722425 
L 262.410552 166.37013 
L 263.730536 162.163672 
L 264.442908 160.420206 
L 268.214291 155.355853 
L 268.821903 154.331913 
L 269.680941 152.394729 
L 270.309504 151.509159 
L 271.063781 150.789633 
L 271.94377 150.125456 
L 274.080888 149.239886 
L 275.296111 149.046167 
L 277.496085 148.437338 
L 278.606548 148.326642 
L 279.591298 148.437338 
L 280.680808 148.409664 
L 281.791271 148.24362 
L 282.650308 147.966879 
L 283.404585 147.856183 
L 285.290277 147.773161 
L 286.086458 147.275027 
L 287.09216 146.998287 
L 288.202623 146.417132 
L 289.082612 145.669932 
L 292.749235 144.203207 
L 295.577772 142.902526 
L 297.52632 140.633253 
L 299.370107 139.553964 
L 301.65389 137.727476 
L 302.156741 137.063299 
L 302.659592 136.620514 
L 305.00623 133.742412 
L 308.484284 128.179925 
L 308.924278 127.100637 
L 310.747114 120.458862 
L 310.453784 118.051219 
L 311.040443 116.473797 
L 311.417582 115.532879 
L 311.752816 113.263606 
L 311.773768 109.555282 
L 311.417582 108.58669 
L 310.830922 106.594158 
L 309.82522 105.016736 
L 308.693805 103.439315 
L 307.625246 101.778871 
L 306.619544 100.007731 
L 306.032885 98.264265 
L 305.69765 96.576148 
L 305.59289 93.753393 
L 305.739555 91.843883 
L 305.970028 89.380892 
L 305.949076 87.360685 
L 306.116693 86.502789 
L 306.011932 85.700242 
L 305.655746 85.119086 
L 305.530033 84.039798 
L 305.613842 82.047266 
L 305.509081 81.161696 
L 305.278608 80.331474 
L 304.775757 79.611948 
L 300.731996 75.626883 
L 300.208193 74.962706 
L 298.972017 73.606677 
L 298.427262 72.859477 
L 297.81965 72.389018 
L 297.295847 71.835537 
L 295.326347 70.507182 
L 293.105421 69.372546 
L 289.313086 68.819064 
L 288.223575 68.65302 
L 286.715022 68.569998 
L 286.254075 68.293257 
L 284.431239 68.016517 
L 283.467441 67.186295 
L 280.031292 64.750977 
L 279.214159 63.865407 
L 277.998936 61.789853 
L 277.370372 60.710564 
L 274.856116 58.330595 
L 274.374217 57.555722 
L 274.269457 56.448759 
L 274.646595 53.958094 
L 275.505632 50.166747 
L 275.882771 48.75537 
L 276.804664 46.237031 
L 277.936079 42.501032 
L 278.480835 41.311048 
L 280.219861 39.041775 
L 281.078899 37.934812 
L 282.021745 36.938546 
L 282.817925 35.637865 
L 285.709319 33.562311 
L 286.568357 33.230222 
L 287.657867 32.981155 
L 288.894043 32.870459 
L 290.130219 32.898133 
L 291.32449 32.510696 
L 292.518761 32.4 
L 293.671128 32.842785 
L 298.280597 34.03277 
L 299.474868 34.558577 
L 300.627235 34.779969 
L 301.842459 35.222754 
L 305.383369 36.938546 
L 307.541438 37.547375 
L 308.568092 38.045508 
L 309.489986 38.848056 
L 313.910885 39.373863 
L 314.958492 38.848056 
L 317.0118 38.59899 
L 317.807981 38.017834 
L 318.750827 37.768768 
L 319.840338 37.602723 
L 323.276487 37.796442 
L 325.3717 38.294575 
L 327.299296 38.377597 
L 328.137381 38.626664 
L 329.101179 38.709686 
L 330.023072 39.844322 
L 331.028775 39.816648 
L 332.076381 39.595256 
L 334.485876 40.176411 
L 335.575387 39.927345 
L 336.706802 39.955019 
L 337.754408 40.840589 
L 338.76011 40.895937 
L 340.855323 41.421744 
L 342.426733 42.334988 
L 347.078106 45.296112 
L 348.10476 45.96029 
L 348.984749 46.735164 
L 352.085664 50.277443 
L 352.902797 51.329058 
L 354.872298 53.127872 
L 355.878 53.875071 
L 356.946558 54.871338 
L 360.40366 59.105469 
L 361.660787 61.264046 
L 362.289351 62.17729 
L 363.316006 64.031452 
L 363.860761 64.834 
L 364.573133 65.664221 
L 365.662644 67.490709 
L 366.416921 68.348605 
L 366.731203 69.344872 
L 366.835963 70.42416 
L 367.192149 71.641819 
L 367.29691 72.776455 
L 367.255006 73.883418 
L 367.00358 74.85201 
L 366.961676 75.87595 
L 367.150245 78.228245 
L 365.851213 82.434702 
L 365.013128 84.233516 
L 364.447421 86.530463 
L 363.923617 87.609752 
L 363.316006 88.495322 
L 362.47792 90.377158 
L 361.765548 92.342016 
L 358.350351 96.188711 
L 356.506564 99.398902 
L 354.746585 101.751197 
L 353.32184 103.300944 
L 352.756133 104.131166 
L 352.022808 104.850692 
L 350.36759 106.179047 
L 348.377138 108.365298 
L 347.916191 109.029475 
L 346.512398 110.413178 
L 345.695265 111.132704 
L 342.908632 116.944257 
L 341.232462 119.185855 
L 338.802015 121.455128 
L 338.215355 122.119306 
L 335.910621 125.68926 
L 335.2192 127.4604 
L 335.11444 128.428992 
L 335.365865 132.552427 
L 335.680147 134.544959 
L 335.80586 135.541226 
L 336.706802 137.47841 
L 338.676302 140.41186 
L 339.430578 141.131386 
L 342.761967 143.040896 
L 344.102903 143.622051 
L 344.752419 143.649725 
L 345.590504 144.037162 
L 346.659063 144.203207 
L 350.07426 144.230881 
L 350.828537 144.147859 
L 351.729478 143.843444 
L 355.333244 141.657193 
L 356.716085 140.826971 
L 358.077973 139.692335 
L 359.921761 137.727476 
L 361.954117 136.094707 
L 365.683596 133.963804 
L 366.458825 133.604041 
L 367.98833 133.078234 
L 368.97308 132.497079 
L 369.85307 132.248012 
L 371.738762 132.109642 
L 374.315873 132.109642 
L 376.012996 132.275686 
L 378.820581 132.663123 
L 379.700571 132.967538 
L 380.748177 133.548693 
L 382.403395 135.043092 
L 383.576714 136.86958 
L 384.016709 137.921195 
L 384.645273 140.467208 
L 384.917651 141.574171 
L 384.980507 144.83971 
L 384.645273 146.278761 
L 383.82814 148.24362 
L 383.639571 150.125456 
L 383.304337 151.149396 
L 382.84339 151.896596 
L 382.172922 152.560773 
L 380.622464 153.612387 
L 379.763427 154.082846 
L 375.803475 155.577246 
L 372.304469 157.320712 
L 371.592097 157.763497 
L 370.733059 158.150933 
L 366.940724 160.91834 
L 365.746453 162.08065 
L 362.855059 164.488293 
L 358.559872 168.307314 
L 357.072271 170.797979 
L 354.851345 174.00817 
L 352.714228 179.404612 
L 352.295186 181.314123 
L 351.436148 185.133143 
L 351.163771 186.101735 
L 351.017106 187.181024 
L 350.933297 189.3396 
L 350.493303 193.352339 
L 349.990451 197.365078 
L 348.146664 208.766791 
L 348.377138 210.87002 
L 348.251425 212.751856 
L 348.209521 215.71298 
L 348.419042 218.591083 
L 349.173318 221.524533 
L 349.78093 225.509598 
L 350.262829 227.612827 
L 350.346638 228.664441 
L 349.655217 233.645772 
L 348.586659 236.385504 
L 347.622861 238.156644 
L 344.731467 242.114035 
L 340.541041 246.680255 
L 338.110594 248.617439 
L 337.272509 249.143246 
L 335.931573 250.443927 
L 334.674445 251.82763 
L 333.228748 253.322029 
L 332.16019 254.650384 
L 330.819253 257.27942 
L 330.232594 258.02662 
L 329.436413 258.829168 
L 328.598328 259.493345 
L 326.796445 260.600307 
L 325.225035 261.762618 
L 323.527912 263.672128 
L 317.745125 270.895058 
L 316.655614 272.417132 
L 316.02705 273.081309 
L 315.545151 273.883857 
L 314.728018 275.599649 
L 314.183263 276.402196 
L 313.512795 277.066374 
L 311.773768 279.252625 
L 310.369975 281.853986 
L 309.846172 282.545838 
L 308.987135 284.178608 
L 307.56239 286.835317 
L 306.724305 288.551109 
L 305.571938 291.041775 
L 301.989124 298.569119 
L 301.402464 300.367933 
L 301.004374 302.471162 
L 299.872959 306.124138 
L 299.663437 309.00224 
L 299.516772 310.967099 
L 299.642485 313.789853 
L 299.893911 315.394948 
L 301.339608 318.937228 
L 302.010076 319.76745 
L 303.141491 321.40022 
L 305.949076 324.721107 
L 306.703353 325.523655 
L 307.227156 326.381551 
L 308.505236 329.176631 
L 310.055693 332.276126 
L 310.789018 333.410762 
L 311.249965 337.506523 
L 311.480438 340.495322 
L 311.773768 343.650165 
L 311.857576 344.729453 
L 311.50139 350.070547 
L 311.145204 352.284472 
L 310.80997 353.280738 
L 310.244263 354.055612 
L 309.950933 354.941182 
L 309.259512 355.771403 
L 308.84047 356.76767 
L 308.672853 358.760202 
L 308.693805 360.72506 
L 307.96048 363.824555 
L 307.96048 367.034746 
L 308.128097 369.968197 
L 308.484284 370.909115 
L 308.861422 374.672787 
L 309.008087 375.641379 
L 308.987135 377.412519 
L 308.945231 378.325763 
L 309.280465 380.954799 
L 308.945231 383.196398 
L 308.25381 385.078234 
L 307.038587 388.371447 
L 306.263358 390.225609 
L 306.011932 391.304898 
L 304.587188 393.657193 
L 304.063384 394.515089 
L 302.869113 395.95414 
L 301.46532 399.63479 
L 300.417714 401.322908 
L 298.175836 405.197277 
L 297.672985 407.106787 
L 296.855852 408.933275 
L 296.394905 409.846519 
L 295.598724 411.811377 
L 294.383501 414.578783 
L 293.252086 416.239227 
L 292.099719 418.757566 
L 291.659724 419.864529 
L 288.76833 423.517505 
L 287.469298 425.897474 
L 286.421692 427.50257 
L 285.353133 428.747902 
L 284.787426 430.463694 
L 284.263622 432.290182 
L 284.096005 433.286448 
L 281.267468 437.437558 
L 280.534143 439.319394 
L 278.564643 442.418889 
L 276.218005 445.739776 
L 274.79326 448.258116 
L 273.640893 449.835537 
L 272.279005 453.267121 
L 268.046674 459.410762 
L 265.930509 462.814672 
L 264.65243 465.443707 
L 264.086722 466.163233 
L 263.646727 466.965781 
L 263.101972 468.792269 
L 261.698179 471.393631 
L 259.83344 475.876828 
L 259.393445 477.869361 
L 259.058211 478.782605 
L 258.471551 479.640501 
L 257.088711 481.162574 
L 256.58586 482.048144 
L 255.433493 484.981595 
L 254.511599 486.946453 
L 253.275423 488.662245 
L 251.976391 491.318955 
L 251.599253 492.03848 
L 250.824024 494.031013 
L 250.38403 494.861234 
L 249.881178 495.525412 
L 249.420232 496.355634 
L 249.064045 497.3519 
L 248.435482 499.565825 
L 247.93263 500.534417 
L 247.597396 501.530683 
L 246.905976 502.443927 
L 246.130747 503.052756 
L 245.56504 503.82763 
L 245.083141 504.7132 
L 244.412673 506.595036 
L 243.99363 508.559895 
L 243.239354 510.441731 
L 242.526981 512.406589 
L 240.683194 515.921195 
L 238.818454 519.214408 
L 238.106082 520.9302 
L 237.519422 521.6774 
L 237.016571 522.590644 
L 236.534672 524.223413 
L 235.92706 527.350582 
L 235.591826 528.236152 
L 235.068023 528.983352 
L 233.789943 530.284033 
L 232.784241 530.80984 
L 231.233784 532.138195 
L 229.871895 533.521898 
L 229.201427 533.992357 
L 226.414794 534.850253 
L 223.188166 535.625126 
L 219.437735 536.040237 
L 217.279666 535.763497 
L 213.005431 534.877927 
L 209.338809 533.74329 
L 205.923612 532.664002 
L 202.801744 531.806106 
L 200.413202 531.474017 
L 195.992302 530.975884 
L 192.388536 530.228684 
L 191.34093 530.173336 
L 190.46094 530.256358 
L 189.518094 530.117988 
L 188.826674 530.145662 
L 184.992435 531.003558 
L 182.939126 531.612387 
L 180.760104 532.691676 
L 179.04203 533.300505 
L 178.120136 533.74329 
L 176.129684 534.435142 
L 175.354455 534.960949 
L 173.82495 535.597452 
L 171.939258 535.874193 
L 171.122125 535.984889 
L 170.304992 536.316978 
L 169.425003 536.4 
L 168.649774 536.26163 
L 166.994556 535.182341 
L 164.836486 533.798638 
L 162.070805 532.193543 
L 157.796571 531.141928 
L 156.70706 531.003558 
L 154.800416 530.367055 
L 152.1814 529.31544 
L 149.499528 528.512893 
L 145.728145 526.797101 
L 144.890059 526.354316 
L 144.031022 525.690138 
L 142.983416 525.136657 
L 140.846298 524.334109 
L 139.149176 523.337843 
L 138.478708 522.673666 
L 137.661575 521.040896 
L 136.132069 516.945135 
L 135.671123 516.031891 
L 134.434947 514.233077 
L 132.528303 511.79776 
L 129.909287 508.476872 
L 128.568351 507.093169 
L 126.556946 505.128311 
L 125.006489 503.938326 
L 122.680803 502.66532 
L 119.286558 501.558357 
L 118.32276 501.336965 
L 114.78185 501.060224 
L 111.953312 501.530683 
L 110.94761 501.586031 
L 110.088573 501.752076 
L 108.202881 501.253942 
L 105.709578 500.119306 
L 104.410546 499.759543 
L 101.833434 499.39978 
L 98.774423 498.818625 
L 94.856375 497.877707 
L 93.305917 497.158181 
L 90.686901 495.968197 
L 89.639295 495.304019 
L 88.759305 494.584494 
L 88.067885 493.698924 
L 87.062183 491.706391 
L 86.559332 490.820821 
L 85.888864 488.800615 
L 85.344108 487.278542 
L 84.96697 482.186514 
L 84.652688 479.197716 
L 84.296502 478.312146 
L 83.877459 476.457984 
L 83.479369 475.54474 
L 82.934614 474.79754 
L 82.327002 474.188711 
L 81.782246 473.801274 
L 80.986066 473.413837 
L 80.168933 473.469185 
L 79.540369 473.828948 
L 79.079422 474.437777 
L 77.172778 477.730991 
L 76.104219 479.170042 
L 73.65282 481.217922 
L 73.024256 481.688381 
L 72.207123 482.573951 
L 69.755724 484.594158 
L 68.980496 485.147639 
L 66.948139 487.057149 
L 64.873878 488.772941 
L 64.098649 489.10503 
L 62.192006 489.575489 
L 58.357766 490.488733 
L 57.352064 490.793147 
L 56.513979 491.235932 
L 55.843511 491.817088 
L 55.235899 492.508939 
L 53.87401 493.864968 
L 52.616883 495.387042 
L 51.674037 497.019811 
L 50.898808 497.462596 
L 50.165484 497.434922 
L 48.510265 496.6047 
L 46.310292 497.019811 
L 44.215079 497.933055 
L 40.527504 498.984669 
L 37.950392 499.538151 
L 36.65136 499.731869 
L 33.424732 499.704195 
L 32.356174 499.676521 
L 30.302865 499.289084 
L 27.243854 498.209796 
L 26.280056 497.711663 
L 25.504828 497.047485 
L 25.190546 496.300286 
L 25.295306 494.169383 
L 25.881966 490.018274 
L 25.840062 489.160378 
L 26.342913 486.143905 
L 26.866716 485.230661 
L 27.641945 484.428113 
L 29.380972 483.016736 
L 30.219057 482.269537 
L 31.685706 480.664441 
L 33.466637 479.474456 
L 34.304722 478.976323 
L 34.849477 478.312146 
L 35.184711 477.647968 
L 35.624706 477.094487 
L 36.25327 476.541006 
L 37.23802 475.074281 
L 38.013249 473.275467 
L 39.291329 471.836416 
L 40.171318 471.172238 
L 41.218924 470.618757 
L 42.538909 470.148298 
L 45.199829 468.626224 
L 46.142675 466.882759 
L 46.352196 465.775796 
L 46.561717 462.842346 
L 47.211233 459.18937 
L 46.184579 455.564068 
L 44.990308 453.350143 
L 43.712228 450.361344 
L 43.712228 450.361344 
" clip-path="url(#p5247f1b634)" style="fill: none; stroke: #000000; stroke-width: 3"/>
   </g>
  </g>
 </g>
 <defs>
  <clipPath id="p5247f1b634">
   <rect x="7.2" y="7.2" width="395.792005" height="554.4"/>
  </clipPath>
 </defs>
</svg>
