<?xml version="1.0" encoding="utf-8" standalone="no"?>
<!DOCTYPE svg PUBLIC "-//W3C//DTD SVG 1.1//EN"
  "http://www.w3.org/Graphics/SVG/1.1/DTD/svg11.dtd">
<svg xmlns:xlink="http://www.w3.org/1999/xlink" width="312.651801pt" height="568.8pt" viewBox="0 0 312.651801 568.8" xmlns="http://www.w3.org/2000/svg" version="1.1">
 <metadata>
  <rdf:RDF xmlns:dc="http://purl.org/dc/elements/1.1/" xmlns:cc="http://creativecommons.org/ns#" xmlns:rdf="http://www.w3.org/1999/02/22-rdf-syntax-ns#">
   <cc:Work>
    <dc:type rdf:resource="http://purl.org/dc/dcmitype/StillImage"/>
    <dc:date>2022-10-28T05:11:52.611246</dc:date>
    <dc:format>image/svg+xml</dc:format>
    <dc:creator>
     <cc:Agent>
      <dc:title>Matplotlib v3.6.1, https://matplotlib.org/</dc:title>
     </cc:Agent>
    </dc:creator>
   </cc:Work>
  </rdf:RDF>
 </metadata>
 <defs>
  <style type="text/css">*{stroke-linejoin: round; stroke-linecap: butt}</style>
 </defs>
 <g id="figure_1">
  <g id="patch_1">
   <path d="M 0 568.8 
L 312.651801 568.8 
L 312.651801 0 
L 0 0 
z
" style="fill: #ffffff"/>
  </g>
  <g id="axes_1">
   <g id="LineCollection_1">
    <path d="M 217.28612 40.339835 
L 219.461831 41.058011 
L 223.359982 42.387967 
L 227.771842 43.704623 
L 229.866971 44.821786 
L 231.790865 46.032046 
L 235.658797 48.133376 
L 237.542399 49.263838 
L 238.589964 50.128309 
L 239.476365 51.085877 
L 240.34262 51.790754 
L 241.349894 52.322736 
L 242.387386 52.721723 
L 243.374515 53.227106 
L 244.351571 54.01178 
L 245.338699 54.543762 
L 247.101429 55.115643 
L 248.300085 55.687524 
L 256.197112 58.387334 
L 262.603375 61.033946 
L 264.356031 61.925016 
L 266.330288 63.29487 
L 267.972145 64.598227 
L 269.563638 66.393667 
L 270.178075 67.417733 
L 270.651493 68.508296 
L 271.306221 70.849018 
L 271.527822 73.389234 
L 271.89044 75.982647 
L 273.884843 83.882584 
L 275.335317 87.832552 
L 276.151209 90.00038 
L 276.826083 91.170741 
L 281.600561 93.045978 
L 283.272636 93.564661 
L 284.481365 94.109943 
L 285.428202 94.761621 
L 286.123221 95.3867 
L 286.465694 96.078277 
L 287.714714 98.046612 
L 291.240173 103.060545 
L 291.582646 104.3905 
L 291.874755 105.068778 
L 291.894901 105.880051 
L 291.562501 106.704623 
L 289.004025 111.120076 
L 288.58097 112.117543 
L 286.697367 114.89715 
L 285.518857 116.785687 
L 284.61231 118.594427 
L 281.67107 123.741355 
L 281.237943 124.858518 
L 280.804815 127.624826 
L 280.835033 128.914883 
L 280.673869 130.417733 
L 279.97885 131.774288 
L 278.679467 133.556428 
L 278.034811 134.833186 
L 277.621829 135.937049 
L 275.728154 139.009246 
L 274.700735 141.017479 
L 274.16688 141.948448 
L 273.209969 144.781254 
L 272.343714 146.350602 
L 271.04433 148.279037 
L 270.168002 148.997213 
L 269.664365 149.183407 
L 268.798109 150.234072 
L 268.2844 150.91235 
L 267.982217 151.723623 
L 266.471307 154.237239 
L 263.338685 158.812286 
L 261.525591 161.751488 
L 260.407517 163.746422 
L 258.533988 166.752122 
L 258.161296 167.869284 
L 257.194314 169.917416 
L 255.139475 173.494997 
L 254.545183 174.359468 
L 253.3566 177.178974 
L 252.51049 179.160608 
L 251.080161 182.006713 
L 248.350448 186.462065 
L 247.756157 187.379734 
L 246.416482 190.358835 
L 243.28386 196.024446 
L 242.367241 197.99278 
L 240.735457 200.99848 
L 239.415928 205.108043 
L 237.371162 208.991514 
L 236.73658 209.816086 
L 235.255887 211.318936 
L 234.792541 211.957315 
L 233.916213 213.699557 
L 233.251412 215.215706 
L 231.680064 217.064345 
L 230.894391 218.819886 
L 228.950352 221.98518 
L 227.026459 224.671691 
L 225.797585 226.20114 
L 223.027581 230.297403 
L 221.899434 230.935782 
L 220.55976 232.372134 
L 219.884887 234.114376 
L 219.330886 234.952248 
L 218.958194 235.936415 
L 217.699102 237.652058 
L 216.570955 240.750855 
L 214.425462 244.461431 
L 212.320259 249.023179 
L 212.239677 249.88765 
L 211.323058 252.068778 
L 210.66833 252.813553 
L 209.167492 253.944015 
L 208.774655 254.608993 
L 208.593346 255.433566 
L 208.613491 256.298037 
L 208.200509 257.082711 
L 207.646508 257.800887 
L 206.870907 259.729322 
L 205.551378 261.471564 
L 204.221777 264.158075 
L 201.431628 269.039012 
L 200.786973 269.943382 
L 199.215625 272.98898 
L 196.616858 278.415199 
L 196.193803 279.545662 
L 194.975002 281.899683 
L 193.212272 285.118176 
L 189.253686 293.191007 
L 188.468012 294.999747 
L 188.004666 297.00798 
L 183.602879 302.008613 
L 183.210042 302.793287 
L 182.545241 304.602027 
L 181.830077 306.237872 
L 180.581057 307.51463 
L 179.886038 308.804687 
L 179.432765 309.89525 
L 178.334836 312.422166 
L 176.612398 315.441165 
L 176.018106 316.039645 
L 175.403669 316.704623 
L 175.363378 317.223306 
L 175.363378 317.223306 
L 175.081341 317.595693 
L 173.983413 319.311336 
L 173.137303 320.893984 
L 172.039374 322.556428 
L 171.32421 323.420899 
L 171.052246 324.325269 
L 170.770209 326.080811 
L 170.286717 328.062445 
L 169.480898 329.977581 
L 168.463552 331.79962 
L 167.345477 333.049778 
L 166.489295 334.100443 
L 164.353874 337.558328 
L 163.578273 339.460165 
L 160.828415 344.4076 
L 160.40536 345.551362 
L 159.750632 346.256238 
L 155.812191 352.241039 
L 155.510009 353.344902 
L 155.499936 354.568461 
L 154.311353 356.669791 
L 153.817788 357.414566 
L 152.800442 359.382901 
L 152.155786 360.220773 
L 150.22182 363.279671 
L 149.869275 364.250538 
L 148.801564 366.099177 
L 148.247563 367.056745 
L 147.612981 368.69259 
L 147.210071 369.370868 
L 146.444543 369.90285 
L 145.47756 371.591894 
L 144.52065 373.347435 
L 143.372358 375.063078 
L 142.848575 375.861051 
L 142.344938 376.353135 
L 141.921883 377.018113 
L 139.967772 381.672958 
L 138.698606 383.202407 
L 137.137332 384.465864 
L 136.442313 385.223939 
L 136.180422 386.208106 
L 136.049476 387.258771 
L 135.263802 388.894617 
L 134.327038 390.384167 
L 133.470855 391.873718 
L 132.02038 395.4114 
L 130.992961 397.273338 
L 129.713723 399.853452 
L 129.713723 400.704623 
L 129.532414 401.728689 
L 129.048922 402.938949 
L 123.478697 412.474731 
L 122.733314 414.163775 
L 120.104329 419.337302 
L 119.882729 420.348068 
L 119.560401 421.239139 
L 117.908472 422.595693 
L 116.337125 423.207473 
L 115.027669 423.446865 
L 113.869304 424.111843 
L 111.895047 424.670424 
L 112.509484 425.947182 
L 112.257665 427.21064 
L 111.089228 427.609626 
L 112.23752 429.152375 
L 111.441773 430.149842 
L 108.661697 432.623559 
L 108.369588 434.738189 
L 107.664496 435.921849 
L 107.362314 436.733122 
L 105.206748 440.603293 
L 104.310274 442.678024 
L 104.400929 443.755288 
L 103.92751 444.752755 
L 102.728854 446.681191 
L 102.285653 447.638759 
L 100.079723 450.990247 
L 99.656668 452.054212 
L 99.817832 454.062445 
L 98.901213 455.817986 
L 98.437867 456.509563 
L 97.813357 458.158708 
L 97.380229 458.863585 
L 96.90681 459.767954 
L 96.282301 460.552628 
L 95.698082 461.443699 
L 95.315318 462.241672 
L 90.430039 465.646358 
L 89.594002 466.484231 
L 89.11051 467.4019 
L 89.11051 469.077644 
L 88.546437 470.141609 
L 88.234182 471.205573 
L 88.143527 473.4133 
L 89.140728 475.833819 
L 88.818401 477.163775 
L 88.284545 478.227739 
L 82.915775 485.848385 
L 81.596246 487.936415 
L 81.465301 488.800887 
L 80.296863 490.982014 
L 78.806098 493.602027 
L 77.647733 495.729956 
L 77.496641 496.847118 
L 76.559877 498.828752 
L 74.263292 502.672324 
L 71.75518 506.4095 
L 69.398159 510.133376 
L 68.793795 511.064345 
L 68.249867 512.128309 
L 67.615284 513.085877 
L 65.721609 517.222039 
L 65.046735 519.256871 
L 62.679642 523.858518 
L 61.591786 528.486764 
L 60.937058 529.417733 
L 59.174328 531.026979 
L 57.945454 532.782521 
L 57.542545 533.460798 
L 56.031634 533.381001 
L 55.729451 534.192274 
L 54.953851 535.455731 
L 54.702032 535.974414 
L 54.349486 536.293604 
L 53.805558 536.4 
L 53.412721 536.267004 
L 51.398173 535.096643 
L 48.40657 534.192274 
L 42.554308 532.277137 
L 41.839144 531.652058 
L 40.529688 530.202407 
L 39.774232 528.992147 
L 38.918049 528.273971 
L 37.77983 527.68879 
L 35.886155 527.170108 
L 33.035569 525.361368 
L 31.021022 524.669791 
L 29.147492 524.071311 
L 27.404908 523.632426 
L 25.984652 523.20684 
L 25.239269 522.781254 
L 24.342795 521.464598 
L 23.466467 521.265104 
L 22.167084 521.477897 
L 21.069155 519.948448 
L 20.7569 519.775554 
L 21.018791 518.605193 
L 21.220246 517.527929 
L 21.401555 516.862951 
L 22.106647 515.213806 
L 22.459193 513.338569 
L 22.690866 511.662825 
L 23.516831 511.104243 
L 23.667922 510.824953 
L 23.58734 510.492464 
L 23.204576 509.907283 
L 23.275085 509.229006 
L 24.312577 507.819253 
L 26.226398 505.318936 
L 26.901271 503.949082 
L 27.253817 501.861051 
L 27.525781 501.30247 
L 28.150291 500.3981 
L 28.724437 499.81292 
L 31.766404 494.931982 
L 32.894551 492.631159 
L 33.47877 491.899683 
L 33.921971 491.048512 
L 34.254371 490.104243 
L 34.506189 487.989614 
L 34.868808 485.901583 
L 35.342227 484.146042 
L 36.097682 482.284104 
L 36.822919 481.233439 
L 37.568302 480.634959 
L 38.243176 479.797087 
L 38.807249 478.693224 
L 39.653359 475.873718 
L 40.026051 474.90285 
L 42.806127 471.564661 
L 45.545912 467.082711 
L 46.140203 465.486764 
L 46.653913 464.662191 
L 47.369078 463.904117 
L 49.333262 460.565928 
L 49.897335 459.728056 
L 54.349486 450.338569 
L 55.497778 448.317036 
L 57.67349 444.114376 
L 59.677965 441.374668 
L 60.977349 439.645725 
L 62.08535 438.036479 
L 63.324297 436.001647 
L 64.210698 434.538695 
L 66.49721 431.160608 
L 69.670123 424.431032 
L 70.757979 423.460165 
L 74.051765 419.204307 
L 76.076385 415.50703 
L 76.519586 414.549462 
L 77.194459 413.538695 
L 77.959987 411.796453 
L 78.765807 409.269538 
L 79.118353 408.524763 
L 80.085335 407.4076 
L 80.709845 406.888917 
L 83.600722 402.859151 
L 83.822322 402.380367 
L 84.053995 401.156808 
L 84.07414 400.146042 
L 84.053995 399.786954 
L 84.053995 399.786954 
L 84.517341 399.082077 
L 85.192214 398.550095 
L 85.464178 398.058011 
L 85.867088 396.648258 
L 86.16927 395.172008 
L 86.79378 392.259405 
L 86.763562 391.288537 
L 87.01538 390.823053 
L 87.579454 390.490564 
L 87.962218 390.064978 
L 89.855893 386.221406 
L 90.641566 383.827486 
L 90.953821 383.189107 
L 91.991314 382.085244 
L 92.756842 381.406966 
L 93.884989 379.850918 
L 94.77139 378.201773 
L 96.050628 375.089677 
L 97.430593 373.906016 
L 98.659467 372.389867 
L 99.707032 370.80722 
L 100.180451 370.035845 
L 100.956052 368.160608 
L 101.570489 367.096643 
L 102.446817 366.431666 
L 102.930309 365.873084 
L 103.756273 364.902217 
L 105.10602 362.907283 
L 109.427226 356.018113 
L 110.283408 354.329069 
L 111.129519 353.078911 
L 114.564323 346.389234 
L 115.148542 345.551362 
L 116.599016 343.995313 
L 118.291236 341.601393 
L 118.875455 341.016213 
L 119.459674 340.058645 
L 119.600692 339.074478 
L 122.723242 332.783787 
L 123.549206 330.070678 
L 124.00248 327.397467 
L 123.861461 326.479797 
L 123.82117 325.043445 
L 124.717644 323.420899 
L 125.422736 322.636225 
L 127.034374 318.566561 
L 129.220159 315.800253 
L 130.630342 314.443699 
L 131.144052 313.645725 
L 131.264925 312.528562 
L 131.46638 311.743889 
L 132.02038 310.600127 
L 132.413217 307.288537 
L 132.97729 305.360101 
L 133.460782 304.588727 
L 134.246456 303.976947 
L 134.931402 303.29867 
L 135.273875 302.71349 
L 135.787585 301.144142 
L 135.938676 299.800887 
L 135.868167 296.675491 
L 136.160276 296.582394 
L 136.935877 296.675491 
L 136.905659 296.662191 
L 137.610751 296.249905 
L 137.469732 295.850918 
L 137.560387 295.079544 
L 137.338787 294.786954 
L 135.938676 293.776187 
L 133.571582 292.299937 
L 130.680706 290.664091 
L 127.971139 289.759721 
L 126.198337 289.20114 
L 125.29179 288.748955 
L 124.626989 288.283471 
L 123.881607 287.578594 
L 122.954915 287.139709 
L 122.038295 286.940215 
L 118.543055 285.557061 
L 116.740034 284.892084 
L 115.934215 284.439899 
L 115.470869 284.027612 
L 112.650502 282.60456 
L 108.903443 280.19734 
L 105.045584 278.189107 
L 101.570489 276.194174 
L 99.062377 274.997213 
L 98.075248 274.598227 
L 97.329865 274.052945 
L 95.023208 273.108676 
L 94.428916 272.829386 
L 93.92528 272.855985 
L 92.968369 273.148575 
L 92.222987 272.855985 
L 91.336585 272.204307 
L 90.702003 270.528562 
L 89.996911 266.538695 
L 89.654438 265.527929 
L 88.979564 264.463965 
L 88.214036 263.626092 
L 84.960541 261.205573 
L 84.577777 260.580494 
L 84.376323 259.902217 
L 84.064068 255.247372 
L 83.721594 251.470298 
L 83.721594 244.48803 
L 83.872686 243.357568 
L 83.96334 240.059278 
L 84.013704 237.931349 
L 83.822322 231.627359 
L 82.885557 228.089677 
L 82.89563 227.132109 
L 83.22803 226.20114 
L 83.197812 225.522863 
L 83.832395 222.517163 
L 84.094286 220.442432 
L 83.85254 218.420899 
L 83.691376 213.260671 
L 83.479849 211.478531 
L 82.905703 207.355668 
L 82.764684 204.403167 
L 82.402066 203.033312 
L 82.412138 200.187207 
L 82.60352 198.817353 
L 82.905703 196.862318 
L 83.046721 194.787587 
L 83.036648 191.741989 
L 82.905703 188.869284 
L 82.835193 185.836985 
L 83.066866 182.472198 
L 83.711522 178.18974 
L 83.469776 175.742622 
L 83.22803 170.343002 
L 83.369049 168.268271 
L 83.258248 166.299937 
L 83.40934 164.025712 
L 83.600722 161.937682 
L 83.580576 158.599493 
L 83.22803 156.218873 
L 83.187739 155.327802 
L 82.986284 154.436732 
L 82.976212 151.976314 
L 83.429485 148.79772 
L 83.570503 146.70969 
L 83.721594 143.145408 
L 84.043922 141.722356 
L 84.577777 140.153008 
L 84.879959 138.583661 
L 84.910178 137.759088 
L 84.58785 136.163141 
L 84.446832 132.346168 
L 85.071342 130.005446 
L 85.937597 128.303103 
L 86.753489 127.146042 
L 87.871563 125.69639 
L 89.835747 122.318303 
L 93.149679 115.974414 
L 94.358407 114.112476 
L 96.443464 110.135909 
L 97.591757 107.941482 
L 99.213468 105.387967 
L 100.895615 102.315769 
L 103.212345 99.083977 
L 104.904566 95.479797 
L 106.002494 93.857251 
L 107.120568 91.995313 
L 108.460243 89.747688 
L 111.673446 83.244205 
L 112.600138 80.890184 
L 114.916869 76.049145 
L 115.984579 74.346802 
L 116.498289 73.548828 
L 117.334326 71.819886 
L 118.261018 70.037745 
L 119.338801 66.965548 
L 119.802147 65.99468 
L 121.625313 63.241672 
L 122.12895 62.284104 
L 125.130626 57.748955 
L 126.722119 54.876251 
L 128.152448 51.777454 
L 130.469178 47.641292 
L 132.231908 44.781887 
L 135.717076 38.477897 
L 136.744495 36.842052 
L 138.648243 33.477264 
L 139.302971 32.665991 
L 139.70588 32.479797 
L 140.6225 32.4 
L 141.156355 32.453198 
L 141.619701 32.626092 
L 143.946504 34.182141 
L 143.946504 34.182141 
" clip-path="url(#p7b48795db1)" style="fill: none; stroke: #000000; stroke-width: 3"/>
   </g>
  </g>
 </g>
 <defs>
  <clipPath id="p7b48795db1">
   <rect x="7.2" y="7.2" width="298.251801" height="554.4"/>
  </clipPath>
 </defs>
</svg>
