<?xml version="1.0" encoding="utf-8" standalone="no"?>
<!DOCTYPE svg PUBLIC "-//W3C//DTD SVG 1.1//EN"
  "http://www.w3.org/Graphics/SVG/1.1/DTD/svg11.dtd">
<svg xmlns:xlink="http://www.w3.org/1999/xlink" width="524.316908pt" height="568.8pt" viewBox="0 0 524.316908 568.8" xmlns="http://www.w3.org/2000/svg" version="1.1">
 <metadata>
  <rdf:RDF xmlns:dc="http://purl.org/dc/elements/1.1/" xmlns:cc="http://creativecommons.org/ns#" xmlns:rdf="http://www.w3.org/1999/02/22-rdf-syntax-ns#">
   <cc:Work>
    <dc:type rdf:resource="http://purl.org/dc/dcmitype/StillImage"/>
    <dc:date>2022-10-29T05:07:05.056758</dc:date>
    <dc:format>image/svg+xml</dc:format>
    <dc:creator>
     <cc:Agent>
      <dc:title>Matplotlib v3.6.1, https://matplotlib.org/</dc:title>
     </cc:Agent>
    </dc:creator>
   </cc:Work>
  </rdf:RDF>
 </metadata>
 <defs>
  <style type="text/css">*{stroke-linejoin: round; stroke-linecap: butt}</style>
 </defs>
 <g id="figure_1">
  <g id="patch_1">
   <path d="M -0 568.8 
L 524.316908 568.8 
L 524.316908 0 
L -0 0 
z
" style="fill: #ffffff"/>
  </g>
  <g id="axes_1">
   <g id="LineCollection_1">
    <path d="M 140.506691 447.045866 
L 143.46188 447.017785 
L 144.524898 447.186271 
L 146.332029 447.15819 
L 148.20294 447.017785 
L 149.265958 447.130109 
L 152.221148 447.972543 
L 153.53929 448.534165 
L 154.368444 449.236193 
L 156.366917 450.219033 
L 158.195308 451.960062 
L 160.555207 454.65585 
L 161.214279 455.694852 
L 162.064693 456.509204 
L 163.999385 457.772855 
L 165.806516 458.839938 
L 166.486847 459.176911 
L 169.314475 459.935101 
L 171.227907 460.243994 
L 172.142102 460.440562 
L 175.352416 460.833697 
L 177.520972 461.339158 
L 178.520209 461.788456 
L 179.540706 462.434321 
L 180.986411 463.782215 
L 182.453375 465.551326 
L 182.836062 466.89922 
L 183.516393 467.741654 
L 187.959808 471.251794 
L 189.405512 473.666771 
L 191.127601 475.126989 
L 191.552808 476.278315 
L 191.744151 477.541966 
L 191.786672 478.721373 
L 191.68037 480.715133 
L 191.595329 481.669891 
L 192.360702 488.549766 
L 193.019773 490.543526 
L 193.359938 491.442122 
L 195.145808 494.109828 
L 196.655294 495.570047 
L 197.675791 496.356318 
L 201.18375 498.546646 
L 202.735756 498.939782 
L 205.095655 499.417161 
L 206.307496 499.360998 
L 207.15791 499.192512 
L 210.602088 499.697972 
L 211.622585 499.726053 
L 212.855686 499.922621 
L 215.343148 500.736973 
L 216.278603 500.877379 
L 219.488917 501.775975 
L 221.46613 502.169111 
L 223.337042 502.337598 
L 226.079628 502.39376 
L 228.163143 502.983463 
L 232.478995 504.584087 
L 233.499493 505.061466 
L 234.413688 505.65117 
L 237.198795 507.869579 
L 240.324067 510.087988 
L 241.195742 510.90234 
L 241.854813 511.800936 
L 242.365061 512.811856 
L 243.109174 514.693292 
L 244.002109 516.630889 
L 244.895044 519.439002 
L 245.213949 521.236193 
L 245.490334 522.415601 
L 245.915541 523.454602 
L 246.765955 524.212793 
L 247.722671 524.66209 
L 251.103068 525.307956 
L 252.484991 525.13947 
L 254.80237 525.673011 
L 256.077992 526.094228 
L 258.522933 527.526365 
L 261.584424 528.733853 
L 262.349797 528.733853 
L 264.497093 529.267395 
L 266.70817 529.997504 
L 267.686147 530.362559 
L 269.216892 531.289236 
L 269.68462 531.626209 
L 274.213076 533.14259 
L 275.148532 533.591888 
L 276.126508 534.378159 
L 276.934402 535.38908 
L 277.827337 536.034945 
L 278.805313 536.4 
L 279.78329 536.315757 
L 282.738479 535.080187 
L 283.525113 534.378159 
L 285.629888 533.591888 
L 289.095326 532.243994 
L 291.859173 530.727613 
L 294.346634 529.66053 
L 297.727031 527.329797 
L 298.705008 527.105148 
L 299.810546 527.048986 
L 300.979866 527.63869 
L 304.80673 528.200312 
L 305.99731 528.340718 
L 308.548553 528.986583 
L 311.291139 529.15507 
L 312.5455 529.435881 
L 315.840855 530.615289 
L 320.496874 531.710452 
L 321.198465 531.710452 
L 322.707951 531.317317 
L 323.452063 530.924181 
L 324.536341 530.783775 
L 325.684401 530.980343 
L 327.108845 530.8961 
L 331.02075 531.14883 
L 332.232591 530.980343 
L 333.338129 530.615289 
L 336.97365 527.835257 
L 339.92884 526.375039 
L 340.672952 525.729173 
L 341.14068 524.774415 
L 342.352521 523.117629 
L 342.947811 522.331357 
L 343.947047 520.449922 
L 344.202172 519.298596 
L 345.350231 516.069267 
L 345.903 515.114509 
L 346.689633 514.384399 
L 348.347941 511.632449 
L 348.85819 509.582527 
L 350.835403 505.988144 
L 351.451953 503.797816 
L 351.473214 502.758814 
L 356.405617 496.917941 
L 356.767043 496.103588 
L 358.021404 494.531045 
L 359.339546 492.761934 
L 360.062398 491.722933 
L 360.849031 490.90858 
L 363.527836 487.033385 
L 363.910523 486.022465 
L 364.442032 483.972543 
L 365.101103 483.298596 
L 367.269659 481.585647 
L 369.353174 478.917941 
L 369.608298 477.598128 
L 370.118547 476.446802 
L 370.756358 475.4078 
L 371.139044 474.424961 
L 371.755594 473.526365 
L 372.584748 471.476443 
L 372.903654 470.297036 
L 373.477683 469.089548 
L 374.221796 468.162871 
L 375.306074 466.169111 
L 376.581695 464.484243 
L 377.283287 463.697972 
L 378.388826 461.844618 
L 378.814033 460.946022 
L 380.174696 456.087988 
L 380.42982 454.768175 
L 381.067631 452.493604 
L 381.258974 451.623089 
L 382.024347 449.488924 
L 382.492075 448.618409 
L 385.511045 445.810296 
L 386.255158 444.967863 
L 387.296915 442.861778 
L 387.530779 441.457722 
L 388.019768 440.474883 
L 388.700099 439.744774 
L 389.614294 439.295476 
L 390.315886 438.64961 
L 391.208821 437.020905 
L 392.93091 433.229953 
L 393.228555 432.190952 
L 394.993165 429.382839 
L 395.482153 428.315757 
L 397.501887 425.676131 
L 398.28852 425.086427 
L 398.947591 424.356318 
L 399.436579 423.457722 
L 400.775982 420.312637 
L 401.456313 419.582527 
L 401.924041 418.768175 
L 402.646893 416.381279 
L 403.454787 414.078627 
L 404.071337 412.843058 
L 404.475284 411.579407 
L 404.687887 410.315757 
L 406.154852 406.272075 
L 407.069047 404.727613 
L 407.409213 403.744774 
L 409.365166 399.588768 
L 409.769113 398.437441 
L 410.045497 397.258034 
L 410.980953 395.40468 
L 411.725066 393.186271 
L 412.469178 390.687051 
L 413.043208 389.64805 
L 413.872362 387.626209 
L 415.381847 384.340718 
L 416.76377 382.936661 
L 418.081912 381.701092 
L 418.52838 379.9039 
L 418.698463 375.579407 
L 418.826025 374.484243 
L 418.54964 373.276755 
L 418.145693 372.069267 
L 418.060652 370.974103 
L 418.443338 370.215913 
L 418.783504 369.204992 
L 418.762244 367.913261 
L 418.188214 364.936661 
L 417.550403 362.493604 
L 417.401581 361.510764 
L 417.252758 358.955382 
L 417.040155 357.495164 
L 417.103936 356.231513 
L 417.91183 352.637129 
L 418.613421 350.418721 
L 418.974847 349.351638 
L 419.421315 345.64493 
L 419.400055 344.605928 
L 420.059126 343.342278 
L 420.229208 342.471763 
L 420.080386 341.432761 
L 419.357534 339.242434 
L 418.804765 336.237754 
L 418.592161 335.114509 
L 418.188214 333.963183 
L 417.231498 330.284555 
L 414.127486 324.275195 
L 413.829841 323.236193 
L 412.703042 321.495164 
L 411.512462 319.978783 
L 409.811634 317.451482 
L 409.110042 316.693292 
L 408.174586 314.839938 
L 407.940722 313.857098 
L 407.81316 311.63869 
L 407.919462 309.560686 
L 408.132065 308.40936 
L 408.195846 307.089548 
L 408.748616 304.618409 
L 408.854917 303.551326 
L 409.258864 301.501404 
L 409.939196 298.15975 
L 410.81087 296.081747 
L 411.916409 294.087988 
L 412.511699 293.16131 
L 413.510936 291.195632 
L 413.872362 288.247114 
L 415.233025 284.877379 
L 416.274782 282.995944 
L 417.763007 279.429641 
L 419.166191 277.744774 
L 420.9308 274.880499 
L 422.12138 273.167551 
L 422.589108 272.297036 
L 423.120617 271.566927 
L 424.715144 270.303276 
L 425.629339 269.629329 
L 427.500251 266.877379 
L 428.797132 265.136349 
L 430.646783 264.15351 
L 432.283831 262.749454 
L 433.772056 261.008424 
L 436.939849 257.89142 
L 439.087145 255.251794 
L 441.468305 253.089548 
L 444.062069 249.41092 
L 445.380211 247.922621 
L 449.058253 245.254914 
L 454.26704 237.925741 
L 457.413573 234.471763 
L 458.157685 233.853978 
L 459.284484 232.14103 
L 459.922295 230.624649 
L 460.028597 229.64181 
L 459.837254 228.265835 
L 460.028597 227.339158 
L 460.049857 225.40156 
L 458.43407 220.178471 
L 458.285248 219.055226 
L 457.179709 214.64649 
L 457.030887 212.624649 
L 457.328532 210.630889 
L 457.604916 209.507644 
L 457.81752 206.924181 
L 458.115165 203.63869 
L 457.923822 199.988144 
L 458.136425 197.180031 
L 458.561632 195.326677 
L 458.646674 192.350078 
L 459.327005 187.576287 
L 460.007337 185.807176 
L 460.772709 184.009984 
L 461.538082 180.668331 
L 462.175893 178.89922 
L 462.494798 177.298596 
L 462.57984 176.203432 
L 463.260171 173.14259 
L 463.961763 171.233073 
L 464.323189 170.446802 
L 466.215361 167.470203 
L 466.725609 166.571607 
L 468.745343 163.847738 
L 469.829621 161.629329 
L 470.148527 160.674571 
L 472.274563 158.343838 
L 473.805308 157.108268 
L 475.803782 156.041186 
L 477.738474 154.805616 
L 481.395256 151.688612 
L 482.181889 151.014665 
L 483.032303 150.621529 
L 484.541789 149.666771 
L 486.43396 148.768175 
L 489.027724 147.055226 
L 490.686032 145.258034 
L 491.089979 144.527925 
L 491.217541 143.545086 
L 491.77031 142.674571 
L 492.408121 141.8883 
L 493.301056 140.287676 
L 493.641221 139.445242 
L 493.662482 138.743214 
L 493.938866 137.844618 
L 493.683742 137.086427 
L 492.875849 135.570047 
L 491.493925 133.997504 
L 489.282848 131.722933 
L 487.60328 130.346958 
L 485.987493 129.476443 
L 485.052037 129.3922 
L 484.095321 129.448362 
L 482.096848 129.981903 
L 479.907031 130.262715 
L 478.844013 130.234633 
L 477.738474 129.981903 
L 476.654196 130.318877 
L 475.825042 130.768175 
L 471.976918 132.284555 
L 467.703586 135.541966 
L 467.087035 136.384399 
L 466.130319 138.378159 
L 463.77042 141.467083 
L 462.941266 142.14103 
L 462.048331 142.590328 
L 461.006573 142.786895 
L 458.497851 142.64649 
L 454.394602 141.944462 
L 453.501667 141.719813 
L 452.48117 141.242434 
L 451.375632 140.961622 
L 448.548004 139.726053 
L 445.847939 137.816537 
L 444.997524 136.917941 
L 444.380974 135.878939 
L 443.891986 134.081747 
L 443.466779 132.677691 
L 443.849465 130.40312 
L 443.700643 129.89766 
L 443.998288 129.167551 
L 444.168371 127.931981 
L 444.062069 126.64025 
L 444.253412 125.348518 
L 444.784921 124.534165 
L 445.635335 122.624649 
L 446.166844 122.006864 
L 446.910957 121.726053 
L 447.825152 121.613729 
L 448.611785 121.332917 
L 449.462199 121.220593 
L 450.312614 120.995944 
L 451.779578 120.265835 
L 452.417389 119.90078 
L 453.140241 119.002184 
L 454.458383 115.576287 
L 455.032413 114.39688 
L 455.755265 113.414041 
L 457.498614 110.184711 
L 459.60339 106.169111 
L 459.815993 105.073947 
L 460.262461 104.006864 
L 460.921532 102.939782 
L 462.920005 100.833697 
L 464.599574 98.306396 
L 465.471248 97.15507 
L 466.130319 95.919501 
L 466.279142 94.599688 
L 466.1941 93.279875 
L 466.279142 92.15663 
L 466.704349 91.201872 
L 467.405941 90.331357 
L 468.320136 88.169111 
L 468.851645 87.15819 
L 470.722556 84.574727 
L 472.232042 82.974103 
L 473.358841 80.306396 
L 473.826569 75.532605 
L 473.975391 74.802496 
L 474.251776 74.044306 
L 474.443119 73.14571 
L 474.336817 72.247114 
L 473.975391 70.786895 
L 473.31632 65.479563 
L 473.039935 64.496724 
L 472.635989 63.541966 
L 472.10448 62.699532 
L 468.128793 58.487363 
L 466.576787 56.858658 
L 464.790917 55.791576 
L 463.961763 55.201872 
L 463.19639 54.471763 
L 462.6011 53.629329 
L 462.02707 53.067707 
L 461.601863 52.478003 
L 457.22223 48.378159 
L 455.223756 47.254914 
L 453.352845 46.019345 
L 451.992182 45.14883 
L 451.29059 44.811856 
L 450.057489 43.913261 
L 449.355898 43.295476 
L 448.824389 42.621529 
L 448.229099 42.116069 
L 446.230625 40.936661 
L 444.933743 40.40312 
L 443.913246 39.869579 
L 442.063595 39.364119 
L 440.724193 38.718253 
L 439.38479 38.577847 
L 438.045388 38.549766 
L 436.578423 38.268955 
L 434.835074 38.240874 
L 433.198026 38.240874 
L 432.390133 38.325117 
L 431.64602 38.212793 
L 430.668044 37.679251 
L 429.583766 37.370359 
L 428.456967 36.864899 
L 427.372688 36.612168 
L 426.607316 36.64025 
L 425.948245 36.808736 
L 424.204895 36.612168 
L 422.822972 35.966303 
L 422.036339 35.601248 
L 420.505593 35.825897 
L 419.400055 35.629329 
L 418.273256 35.180031 
L 417.103936 34.927301 
L 416.019658 34.449922 
L 414.93538 33.832137 
L 414.425131 33.102028 
L 413.255811 32.596568 
L 412.469178 32.90546 
L 411.087255 32.736973 
L 410.449444 32.512324 
L 409.59903 32.4 
L 408.748616 32.512324 
L 407.175349 33.017785 
L 405.857207 33.747894 
L 404.177639 34.14103 
L 402.072864 34.365679 
L 401.201189 34.89922 
L 399.521621 35.685491 
L 398.798769 36.303276 
L 393.738804 38.40936 
L 391.676549 39.364119 
L 390.592271 39.785335 
L 389.9332 40.487363 
L 389.274129 41.357878 
L 388.827661 42.14415 
L 387.55204 45.345398 
L 387.296915 45.991264 
L 386.99927 46.440562 
L 386.722886 47.254914 
L 386.595324 49.89454 
L 386.40398 51.916381 
L 386.552803 53.882059 
L 386.637844 55.033385 
L 386.914229 55.875819 
L 387.870945 57.336037 
L 388.444975 57.869579 
L 390.719833 59.357878 
L 391.634028 60.14415 
L 392.250579 60.509204 
L 393.164774 60.761934 
L 395.078206 62.053666 
L 395.737277 62.362559 
L 398.28852 62.924181 
L 402.370509 64.047426 
L 403.731171 64.215913 
L 404.198899 64.047426 
L 405.835947 64.384399 
L 406.813923 64.693292 
L 408.854917 65.086427 
L 409.705332 65.479563 
L 411.469941 66.855538 
L 412.915646 68.4 
L 415.041681 70.478003 
L 416.253522 72.162871 
L 416.785031 73.173791 
L 418.868546 78.733853 
L 418.996108 79.632449 
L 418.911066 81.991264 
L 418.740983 83.030265 
L 418.337037 84.069267 
L 418.251995 85.108268 
L 417.614185 88.618409 
L 417.635445 91.623089 
L 417.91183 93.588768 
L 418.018131 94.65585 
L 418.251995 95.666771 
L 419.442575 98.699532 
L 421.100883 102.293916 
L 421.547351 103.304836 
L 422.185161 104.287676 
L 423.184398 106.169111 
L 423.630866 107.039626 
L 423.737167 107.938222 
L 423.737167 109.65117 
L 423.482043 110.521685 
L 423.333221 111.616849 
L 423.31196 112.740094 
L 422.886753 114.874259 
L 422.163901 116.783775 
L 421.781215 119.254914 
L 421.185925 121.417161 
L 420.994581 122.512324 
L 419.782741 125.432761 
L 419.357534 126.275195 
L 418.740983 126.921061 
L 417.103936 128.325117 
L 416.423605 129.223713 
L 415.998397 130.066147 
L 415.53067 130.683931 
L 414.701516 131.189392 
L 414.021184 131.947582 
L 413.532196 132.790016 
L 412.873125 133.520125 
L 407.558036 137.423401 
L 406.04855 138.855538 
L 402.689414 140.90546 
L 401.094887 142.309516 
L 399.45784 143.376599 
L 397.863313 144.38752 
L 396.034922 145.061466 
L 395.269549 145.454602 
L 394.419135 145.707332 
L 393.589981 146.184711 
L 392.739567 146.493604 
L 390.039501 146.858658 
L 389.061525 147.111388 
L 388.16859 147.476443 
L 381.896785 150.958502 
L 380.918808 151.4078 
L 379.281761 152.64337 
L 377.644713 154.300156 
L 376.28405 156.15351 
L 375.731281 157.080187 
L 374.987169 157.810296 
L 373.966672 159.467083 
L 373.094997 161.15195 
L 373.073737 162.38752 
L 372.924914 163.65117 
L 372.542228 164.858658 
L 371.160304 167.835257 
L 370.628795 168.705772 
L 369.69334 170.924181 
L 367.482263 174.490484 
L 367.184618 175.136349 
L 366.674369 175.89454 
L 363.676659 179.40468 
L 362.932546 180.050546 
L 360.572647 181.426521 
L 359.892315 181.819657 
L 357.277291 182.774415 
L 353.174042 184.038066 
L 352.387409 184.375039 
L 350.580279 184.90858 
L 347.625089 185.835257 
L 343.47932 188.025585 
L 341.948574 188.783775 
L 339.609935 190.131669 
L 336.293319 192.321997 
L 332.317632 195.242434 
L 331.339656 195.719813 
L 330.531762 196.253354 
L 329.490005 196.786895 
L 327.023803 198.64025 
L 323.685927 202.066147 
L 320.922081 205.014665 
L 319.646459 207.289236 
L 319.11495 208.019345 
L 316.478666 213.298596 
L 315.606991 214.618409 
L 314.990441 215.292356 
L 314.458932 216.359438 
L 313.906163 218.128549 
L 313.459695 218.886739 
L 312.885666 220.571607 
L 312.311636 221.414041 
L 311.865169 222.284555 
L 311.652565 223.239314 
L 311.33366 224.081747 
L 310.376944 225.626209 
L 309.505269 227.479563 
L 309.080062 228.265835 
L 308.803677 229.052106 
L 308.442251 229.726053 
L 307.80444 231.860218 
L 306.167393 234.977223 
L 304.721689 239.442122 
L 303.318505 243.008424 
L 302.978339 243.935101 
L 302.531872 244.805616 
L 301.936582 245.451482 
L 299.257777 250.64649 
L 297.216783 253.061466 
L 296.175025 254.802496 
L 295.792339 255.64493 
L 294.835623 257.245554 
L 294.197812 258.874259 
L 293.708824 259.66053 
L 292.475723 261.120749 
L 291.412705 262.468643 
L 290.689853 263.282995 
L 289.839439 264.013105 
L 288.542557 264.799376 
L 287.033072 266.091108 
L 285.502326 267.130109 
L 284.290486 267.354758 
L 283.142426 267.691732 
L 282.377053 268.39376 
L 280.952609 269.40468 
L 280.208497 269.91014 
L 279.188 270.303276 
L 276.976923 270.696412 
L 274.957189 272.100468 
L 271.704354 275.048986 
L 270.003526 277.548206 
L 267.558585 283.164431 
L 265.921537 289.033385 
L 265.007342 293.751014 
L 264.837259 294.761934 
L 265.198685 298.749454 
L 265.602632 299.844618 
L 265.730194 300.771295 
L 265.666413 301.501404 
L 265.772715 302.259594 
L 266.09162 303.214353 
L 266.304223 305.180031 
L 266.368005 306.050546 
L 266.70817 307.9039 
L 266.68691 310.880499 
L 266.09162 313.829017 
L 265.687673 315.598128 
L 265.092383 317.479563 
L 263.944324 320.203432 
L 261.435602 324.38752 
L 259.267045 326.914821 
L 258.799317 327.841498 
L 258.055205 328.712012 
L 257.502436 329.666771 
L 256.58824 330.228393 
L 255.525222 330.705772 
L 254.292122 330.986583 
L 253.165323 331.126989 
L 251.124329 331.885179 
L 248.870731 332.64337 
L 247.956535 333.120749 
L 247.084861 333.429641 
L 245.469074 334.272075 
L 244.448576 334.552886 
L 243.853286 335.058346 
L 241.642209 335.732293 
L 240.664233 335.872699 
L 234.817635 337.922621 
L 232.946723 338.877379 
L 229.268681 340.590328 
L 228.460788 341.180031 
L 226.717439 342.190952 
L 223.570906 344.044306 
L 222.210243 345.195632 
L 220.147988 346.40312 
L 219.233793 346.768175 
L 218.44716 347.357878 
L 217.958172 348.087988 
L 217.639266 348.874259 
L 216.810112 349.548206 
L 216.151041 350.362559 
L 215.088023 350.952262 
L 214.32265 351.991264 
L 213.578538 352.609048 
L 212.770644 353.90078 
L 212.217875 354.518565 
L 211.048555 356.14727 
L 210.453265 356.821217 
L 209.857975 357.832137 
L 209.092603 358.618409 
L 208.284709 359.685491 
L 207.434295 360.527925 
L 206.753963 361.566927 
L 206.286235 362.549766 
L 205.138176 364.178471 
L 202.884578 367.4078 
L 201.438874 370.131669 
L 200.312075 372.827457 
L 198.632507 375.15819 
L 197.845874 376.983463 
L 197.378146 378.977223 
L 197.144282 380.044306 
L 196.655294 380.886739 
L 196.44269 381.701092 
L 196.44269 382.712012 
L 196.612773 384.846178 
L 195.698578 390.097348 
L 195.188329 395.011544 
L 194.890684 397.005304 
L 194.933205 398.886739 
L 194.805643 400.768175 
L 195.273371 404.839938 
L 195.932442 406.974103 
L 196.655294 408.743214 
L 197.03798 409.697972 
L 197.229323 410.65273 
L 197.03798 412.14103 
L 197.930915 416.268955 
L 198.292341 417.3922 
L 198.781329 418.515445 
L 199.036454 419.498284 
L 199.121495 420.453042 
L 199.461661 421.379719 
L 199.950649 422.362559 
L 200.120732 423.261154 
L 200.907365 425.114509 
L 202.012904 429.017785 
L 202.119206 429.860218 
L 202.948359 432.556006 
L 203.968857 439.126989 
L 203.990117 440.306396 
L 203.692472 442.328237 
L 202.927099 445.360998 
L 200.01443 452.521685 
L 198.441164 455.301716 
L 196.910418 458.362559 
L 196.400169 459.261154 
L 195.889921 460.524805 
L 194.550518 462.350078 
L 193.211116 464.231513 
L 191.978015 466.000624 
L 191.042559 467.938222 
L 190.383488 468.836817 
L 189.830719 469.931981 
L 188.151151 471.448362 
L 185.642429 474.818097 
L 184.983358 475.4078 
L 184.154204 475.969423 
L 182.665979 477.40156 
L 182.11321 478.243994 
L 181.390357 479.030265 
L 179.455665 480.293916 
L 177.776097 480.995944 
L 176.117789 481.866459 
L 174.353179 483.130109 
L 173.566546 483.747894 
L 171.780676 484.871139 
L 170.24993 486.162871 
L 168.251457 487.258034 
L 166.784492 488.718253 
L 165.849036 489.195632 
L 163.744261 489.785335 
L 160.193781 493.267395 
L 157.70632 496.637129 
L 156.303136 499.276755 
L 155.601544 499.557566 
L 153.411728 499.052106 
L 151.136869 498.939782 
L 150.073851 499.080187 
L 149.010834 499.38908 
L 148.160419 499.950702 
L 146.502111 501.354758 
L 144.291034 502.028705 
L 142.2713 502.534165 
L 138.189312 502.449922 
L 137.445199 502.14103 
L 136.679827 501.972543 
L 135.850673 501.944462 
L 134.192365 501.186271 
L 132.874223 500.063027 
L 132.257672 499.304836 
L 131.747424 497.030265 
L 131.768684 494.587207 
L 132.10885 492.761934 
L 132.363974 492.031825 
L 132.13011 490.40312 
L 132.023808 489.841498 
L 132.661619 488.465523 
L 132.852962 487.595008 
L 133.193128 486.612168 
L 133.809678 485.545086 
L 134.723874 484.871139 
L 139.316111 482.4 
L 140.549211 480.995944 
L 141.378365 479.339158 
L 141.718531 478.552886 
L 142.2713 477.822777 
L 143.036673 476.194072 
L 144.269774 474.846178 
L 146.608413 473.189392 
L 147.416307 472.515445 
L 148.585626 470.240874 
L 149.350999 469.286115 
L 150.222674 468.527925 
L 151.094349 467.994384 
L 151.75342 467.376599 
L 152.051065 466.702652 
L 152.625094 466.169111 
L 152.816438 465.495164 
L 152.773917 464.821217 
L 152.944 463.080187 
L 152.944 462.237754 
L 153.262905 459.738534 
L 153.029041 458.053666 
L 152.901479 457.744774 
L 152.646355 457.520125 
L 151.647118 455.666771 
L 150.690402 454.262715 
L 150.137633 453.673011 
L 149.457301 453.111388 
L 148.330502 451.875819 
L 146.693455 451.117629 
L 145.885561 451.258034 
L 144.546159 451.258034 
L 143.653224 451.623089 
L 142.84533 452.212793 
L 141.697271 453.701092 
L 141.612229 455.020905 
L 141.293324 456.284555 
L 140.868117 457.379719 
L 140.230306 458.250234 
L 139.358631 458.811856 
L 138.253093 459.878939 
L 136.360921 461.872699 
L 134.298667 462.939782 
L 133.34195 463.978783 
L 130.769447 467.40468 
L 130.259199 468.471763 
L 129.408784 469.201872 
L 126.666198 472.40312 
L 126.389814 473.385959 
L 125.688222 474.031825 
L 125.00789 474.818097 
L 124.433861 475.772855 
L 123.583447 477.766615 
L 123.370843 478.609048 
L 122.924375 479.282995 
L 122.371606 479.704212 
L 121.712535 480.013105 
L 120.734559 480.181591 
L 119.671541 480.15351 
L 117.354162 480.40624 
L 116.610049 480.013105 
L 115.610813 479.788456 
L 113.824943 479.086427 
L 110.572108 477.485803 
L 109.934297 477.261154 
L 107.70196 475.66053 
L 106.851546 476.306396 
L 106.213735 476.081747 
L 105.278279 476.250234 
L 103.768794 474.930421 
L 102.153007 473.16131 
L 99.580503 470.718253 
L 98.878912 469.875819 
L 98.071018 469.173791 
L 95.562296 465.439002 
L 92.883491 462.9117 
L 91.480307 461.339158 
L 90.502331 460.749454 
L 88.844023 459.261154 
L 83.720277 455.835257 
L 82.67852 455.245554 
L 79.914673 454.431201 
L 78.979217 454.066147 
L 78.001241 453.560686 
L 77.427211 453.560686 
L 76.427975 453.223713 
L 75.747643 452.830577 
L 73.345223 452.016225 
L 69.199453 451.679251 
L 66.690731 451.258034 
L 63.990666 450.977223 
L 61.205559 450.64025 
L 59.866156 450.331357 
L 59.058263 448.702652 
L 58.101547 447.691732 
L 56.336937 446.259594 
L 56.018032 445.89454 
L 55.358961 445.529485 
L 54.784931 445.417161 
L 55.273919 445.810296 
L 54.997535 446.512324 
L 54.869973 447.354758 
L 55.31644 448.169111 
L 56.783405 449.601248 
L 57.187351 450.106708 
L 56.52828 449.376599 
L 53.466789 447.130109 
L 52.743937 446.736973 
L 51.489576 446.540406 
L 50.724203 446.933541 
L 49.98009 446.708892 
L 49.172197 447.186271 
L 48.555647 445.220593 
L 47.769013 444.041186 
L 46.705995 441.766615 
L 45.19651 439.941342 
L 43.516942 438.312637 
L 41.794853 437.666771 
L 40.583013 437.414041 
L 39.392433 437.301716 
L 38.308154 437.077067 
L 36.352202 436.206552 
L 35.438006 435.560686 
L 34.736414 434.268955 
L 33.694657 433.566927 
L 32.844243 433.426521 
L 31.993828 433.033385 
L 31.568621 434.297036 
L 30.378041 435.364119 
L 30.378041 435.364119 
" clip-path="url(#p13973f70c0)" style="fill: none; stroke: #000000; stroke-width: 3"/>
   </g>
  </g>
 </g>
 <defs>
  <clipPath id="p13973f70c0">
   <rect x="7.2" y="7.2" width="509.916908" height="554.4"/>
  </clipPath>
 </defs>
</svg>
