<?xml version="1.0" encoding="utf-8" standalone="no"?>
<!DOCTYPE svg PUBLIC "-//W3C//DTD SVG 1.1//EN"
  "http://www.w3.org/Graphics/SVG/1.1/DTD/svg11.dtd">
<svg xmlns:xlink="http://www.w3.org/1999/xlink" width="333.855478pt" height="568.8pt" viewBox="0 0 333.855478 568.8" xmlns="http://www.w3.org/2000/svg" version="1.1">
 <metadata>
  <rdf:RDF xmlns:dc="http://purl.org/dc/elements/1.1/" xmlns:cc="http://creativecommons.org/ns#" xmlns:rdf="http://www.w3.org/1999/02/22-rdf-syntax-ns#">
   <cc:Work>
    <dc:type rdf:resource="http://purl.org/dc/dcmitype/StillImage"/>
    <dc:date>2022-11-02T05:18:43.850876</dc:date>
    <dc:format>image/svg+xml</dc:format>
    <dc:creator>
     <cc:Agent>
      <dc:title>Matplotlib v3.6.1, https://matplotlib.org/</dc:title>
     </cc:Agent>
    </dc:creator>
   </cc:Work>
  </rdf:RDF>
 </metadata>
 <defs>
  <style type="text/css">*{stroke-linejoin: round; stroke-linecap: butt}</style>
 </defs>
 <g id="figure_1">
  <g id="patch_1">
   <path d="M 0 568.8 
L 333.855478 568.8 
L 333.855478 0 
L 0 0 
z
" style="fill: #ffffff"/>
  </g>
  <g id="axes_1">
   <g id="LineCollection_1">
    <path d="M 218.772551 43.613785 
L 218.817727 43.589926 
L 219.41406 43.566067 
L 220.236277 43.733081 
L 221.808427 44.03132 
L 222.883633 44.592009 
L 223.841379 45.271994 
L 225.277999 46.130922 
L 227.166387 47.395455 
L 229.569788 48.89858 
L 230.446217 49.220678 
L 230.446217 49.220678 
L 229.940238 49.483128 
L 229.895061 49.70979 
L 230.337793 50.198902 
L 230.699207 50.568718 
L 232.668912 51.737815 
L 233.707977 51.952547 
L 235.478904 51.809392 
L 237.069125 50.580648 
L 238.776805 48.528763 
L 239.490598 46.98985 
L 239.671305 46.381443 
L 239.861047 46.154781 
L 240.267637 45.963908 
L 240.854935 45.856542 
L 241.52355 45.999697 
L 242.210237 46.333725 
L 243.664927 47.27616 
L 246.203859 48.433327 
L 248.06514 49.005946 
L 249.926422 49.590494 
L 253.911009 51.153266 
L 255.555442 52.012195 
L 258.907555 54.529332 
L 261.51877 56.533497 
L 263.172238 57.440144 
L 265.647922 58.656959 
L 267.310426 59.790267 
L 272.623209 62.080742 
L 281.378459 65.456807 
L 285.317869 67.28203 
L 286.682206 68.164817 
L 289.022361 69.846885 
L 289.763259 70.491081 
L 290.55837 71.397728 
L 291.60647 73.103655 
L 291.922707 73.867146 
L 292.428686 75.94289 
L 293.521963 81.323121 
L 294.127331 83.542019 
L 294.551992 84.627608 
L 295.690446 86.607915 
L 296.910217 88.278053 
L 298.337802 89.936262 
L 299.864775 91.689907 
L 300.696027 92.346033 
L 302.783192 93.037947 
L 303.307242 93.467411 
L 305.014922 96.032267 
L 307.662278 99.921303 
L 309.857867 102.68896 
L 310.915003 103.738762 
L 311.881785 104.418746 
L 312.134774 104.907858 
L 312.062492 105.504336 
L 311.556512 106.852376 
L 310.951144 108.319712 
L 310.363847 109.918273 
L 308.095975 114.153266 
L 306.984628 115.66832 
L 303.749974 122.074493 
L 300.37979 126.560008 
L 300.027412 127.514372 
L 299.747316 128.635751 
L 299.322655 129.625904 
L 298.744393 130.592198 
L 296.395203 135.67419 
L 295.265785 137.547131 
L 293.811094 140.171634 
L 292.970807 142.843855 
L 292.528075 143.941375 
L 291.985954 144.87188 
L 290.215027 146.637455 
L 289.609658 147.436735 
L 288.61577 149.369324 
L 287.730307 151.182617 
L 286.212369 153.878697 
L 284.838996 156.169173 
L 284.28784 157.05196 
L 283.546942 157.910888 
L 281.947686 160.606968 
L 280.330359 163.577429 
L 279.110587 166.034918 
L 278.604608 167.072789 
L 276.960175 169.363265 
L 275.939181 171.081121 
L 274.909151 172.596175 
L 274.114041 174.07544 
L 272.984623 174.815073 
L 272.442502 175.43541 
L 271.692569 176.735732 
L 270.807105 178.704109 
L 269.957782 180.56512 
L 267.662804 185.277296 
L 265.747311 188.200038 
L 265.241332 188.927741 
L 264.473328 190.550161 
L 264.193232 191.38523 
L 262.846965 193.747283 
L 261.6543 197.0637 
L 260.99472 199.879076 
L 260.62427 200.869229 
L 258.979838 204.006703 
L 258.591318 204.805984 
L 258.419646 205.426321 
L 257.859455 206.165953 
L 257.380581 206.368756 
L 256.946885 208.635372 
L 256.070456 210.377088 
L 255.184993 211.904071 
L 252.519566 216.592388 
L 251.137158 218.560765 
L 249.808962 221.030184 
L 248.480766 223.201363 
L 247.54109 224.191517 
L 246.167718 226.684795 
L 244.098624 230.084719 
L 243.068594 231.814505 
L 241.532586 234.940049 
L 240.240531 236.765272 
L 239.56288 237.457186 
L 238.505745 239.127324 
L 237.412468 240.535012 
L 236.8071 241.739898 
L 236.310156 242.980572 
L 234.557299 246.308919 
L 231.991261 251.021094 
L 231.322645 251.975459 
L 230.762454 253.001401 
L 229.072844 255.697482 
L 227.744649 258.262337 
L 227.00375 260.350009 
L 225.675555 262.628555 
L 223.931733 266.422155 
L 223.498036 267.125999 
L 222.829421 267.471956 
L 221.916851 266.624957 
L 221.672897 266.899337 
L 220.868751 268.939292 
L 220.173029 270.788373 
L 219.558626 274.343382 
L 218.935187 276.29983 
L 217.037764 280.141148 
L 216.242654 281.42954 
L 215.348155 282.992312 
L 214.417514 284.101761 
L 214.019959 284.996478 
L 213.089318 286.523461 
L 211.182861 289.744442 
L 210.631705 290.448286 
L 209.764311 292.106495 
L 208.68007 294.528195 
L 206.656153 297.343571 
L 205.94236 297.403219 
L 201.704783 294.456618 
L 201.054238 293.502253 
L 200.539224 292.822269 
L 199.355593 292.034918 
L 196.202258 290.006893 
L 194.503613 288.933232 
L 191.92854 287.740276 
L 190.220859 286.690475 
L 188.088518 286.583109 
L 187.221125 286.344518 
L 184.817723 285.091914 
L 181.013842 283.32634 
L 179.36941 281.906722 
L 178.99896 281.41761 
L 177.110573 280.403598 
L 176.812407 280.057641 
L 176.089579 279.675895 
L 175.981155 279.043628 
L 175.655883 278.506798 
L 175.086656 277.958038 
L 173.659071 277.09911 
L 172.095957 276.395266 
L 168.734808 274.904071 
L 166.873527 274.486537 
L 166.114558 274.092861 
L 164.786362 273.102708 
L 162.807621 272.100625 
L 161.542673 271.384851 
L 159.609109 270.454346 
L 158.253807 269.845938 
L 156.853329 269.24946 
L 155.579345 268.259307 
L 154.359574 267.448097 
L 153.139802 266.887408 
L 151.287556 265.658663 
L 151.12492 265.396213 
L 150.98939 265.217269 
L 150.781577 265.241129 
L 150.564728 265.432002 
L 150.320774 265.813747 
L 150.022608 266.935126 
L 149.344957 268.259307 
L 148.992578 268.652982 
L 147.375252 271.516077 
L 146.824096 272.577807 
L 146.309081 273.078849 
L 145.297122 274.67741 
L 144.998956 275.250028 
L 144.46587 276.944026 
L 143.643654 278.268207 
L 143.264169 278.757319 
L 142.315458 281.346033 
L 141.556489 283.743874 
L 141.213146 284.638591 
L 141.041474 285.414012 
L 140.779449 286.082068 
L 138.674214 287.787995 
L 137.78875 288.396402 
L 137.427336 288.324825 
L 136.650297 288.18167 
L 135.900363 289.613217 
L 135.213677 293.59769 
L 134.689627 295.935883 
L 133.650562 298.118993 
L 132.358508 299.705624 
L 128.635945 305.598826 
L 127.542669 308.521568 
L 126.286755 310.239424 
L 125.329009 311.909563 
L 124.850136 311.96921 
L 124.479686 312.291308 
L 124.009848 313.138307 
L 123.558081 313.186025 
L 122.7449 313.138307 
L 122.419628 313.842151 
L 121.552235 316.693316 
L 121.091432 317.850483 
L 120.413781 318.888354 
L 119.401822 320.260254 
L 119.058479 320.880591 
L 118.597677 322.109335 
L 118.02845 323.266503 
L 117.377905 324.328233 
L 115.561801 326.332399 
L 114.278781 328.74217 
L 114.034827 328.909184 
L 113.528848 329.899337 
L 112.435571 331.307025 
L 110.700785 333.848021 
L 110.104452 335.017118 
L 109.977957 335.339216 
L 109.977957 335.339216 
L 110.520078 337.080932 
L 110.194805 337.66548 
L 109.806286 338.417042 
L 108.821433 339.442984 
L 108.387736 340.015603 
L 107.249283 341.948192 
L 105.686168 346.827381 
L 105.234401 347.698239 
L 103.698392 349.463814 
L 101.963606 351.682712 
L 101.511838 352.792161 
L 98.719917 357.754857 
L 96.560469 364.053664 
L 95.91896 365.365916 
L 95.729217 366.06976 
L 95.819571 366.367998 
L 95.593687 368.014278 
L 96.135808 370.531415 
L 96.488186 374.837985 
L 95.458157 377.68915 
L 95.096743 379.120697 
L 94.681117 380.206287 
L 93.596876 381.73327 
L 92.819836 382.401326 
L 91.789807 382.866578 
L 91.383216 385.073547 
L 88.681648 389.117667 
L 87.723901 389.8573 
L 86.75712 390.799735 
L 85.962009 391.825677 
L 84.299506 393.448097 
L 83.504395 394.16387 
L 82.754462 395.082447 
L 81.39916 396.012952 
L 80.206494 396.979246 
L 79.013829 397.69502 
L 77.685633 399.377088 
L 77.0893 400.212157 
L 75.743034 403.242265 
L 74.243166 405.496951 
L 73.872717 405.830979 
L 73.140854 407.071653 
L 72.228284 408.861087 
L 71.577739 409.409847 
L 71.216325 409.541072 
L 70.385074 410.352282 
L 69.924271 410.292634 
L 69.707423 409.970536 
L 69.409256 409.86317 
L 68.948454 412.320659 
L 68.948454 412.249082 
L 68.686429 415.422344 
L 68.695464 415.338837 
L 68.081061 416.651089 
L 68.081061 416.651089 
L 67.584117 418.309297 
L 66.156532 424.011627 
L 63.183903 428.652225 
L 62.18098 429.654308 
L 61.476223 430.238856 
L 60.780502 432.123727 
L 60.057674 433.304753 
L 59.479412 435.022609 
L 58.187357 437.790267 
L 57.609095 438.649195 
L 56.68749 440.378981 
L 55.332188 442.29964 
L 54.32023 446.928309 
L 52.88361 450.13736 
L 51.880686 452.368188 
L 51.248212 454.312706 
L 50.543455 455.434084 
L 46.893176 460.182049 
L 45.203566 462.758834 
L 39.54744 470.572695 
L 37.351851 474.091914 
L 36.312786 475.451884 
L 35.183368 478.326908 
L 34.532823 480.354933 
L 34.135268 481.213861 
L 31.343346 484.923954 
L 29.87962 486.033403 
L 27.539466 488.252301 
L 26.98831 488.980004 
L 26.482331 489.89858 
L 26.057669 490.912592 
L 25.678185 492.296421 
L 25.235453 493.191138 
L 24.738509 493.382011 
L 22.073082 495.254952 
L 21.774916 495.612838 
L 21.720704 496.137739 
L 22.27186 496.65071 
L 23.274783 497.092104 
L 24.928251 497.986821 
L 28.334576 502.042871 
L 29.265217 505.502443 
L 29.671807 505.812611 
L 30.231999 505.896118 
L 30.855438 505.681386 
L 31.4337 505.800682 
L 32.445658 506.528385 
L 33.448582 507.232229 
L 34.614141 507.780988 
L 35.174333 508.138875 
L 35.87909 508.293959 
L 36.629023 508.329748 
L 37.514487 509.331831 
L 38.625835 508.83079 
L 39.692005 508.639917 
L 40.396762 508.81886 
L 41.625569 510.500928 
L 42.782094 511.371786 
L 44.092219 513.053853 
L 45.031895 513.709979 
L 47.381084 514.437682 
L 49.115871 514.855217 
L 50.66995 515.594849 
L 52.522196 516.429919 
L 53.082387 516.513425 
L 53.615473 516.990608 
L 54.266018 517.74217 
L 54.916562 518.076198 
L 55.440612 518.624957 
L 55.982733 519.030562 
L 57.202505 519.460027 
L 58.087969 519.722477 
L 59.235458 520.366673 
L 61.060597 520.199659 
L 63.301363 520.784208 
L 64.385604 521.53577 
L 65.822224 522.633289 
L 67.078137 523.241697 
L 67.547975 524.064836 
L 67.954566 525.162356 
L 70.394109 526.868283 
L 71.939153 528.001591 
L 72.445132 528.442984 
L 73.619727 528.955955 
L 77.306148 530.435221 
L 79.483666 531.783261 
L 81.363018 532.821132 
L 82.637002 533.536906 
L 83.24237 533.513047 
L 84.028445 533.369892 
L 85.564454 533.441469 
L 87.353452 534.288468 
L 89.774925 536.221057 
L 90.280904 536.4 
L 91.229615 536.328423 
L 91.6091 536.054043 
L 91.934372 534.837228 
L 92.051832 534.014088 
L 92.395175 533.226737 
L 92.666235 532.188866 
L 93.43424 530.196629 
L 94.012502 528.144745 
L 94.337774 527.238099 
L 94.265492 524.458512 
L 94.608835 523.313274 
L 94.780506 522.203825 
L 95.214203 521.165953 
L 94.780506 519.937209 
L 96.235197 519.054422 
L 97.23812 517.372354 
L 99.777052 517.575156 
L 101.773864 515.30854 
L 103.499614 513.065783 
L 105.478355 511.037758 
L 105.74038 510.500928 
L 106.1289 510.656012 
L 106.643915 510.667942 
L 107.303495 510.17883 
L 110.221911 506.134709 
L 111.017022 505.824541 
L 111.830203 506.731187 
L 112.408465 506.504526 
L 112.390394 506.325582 
L 111.414577 506.206287 
L 110.791138 506.492596 
L 110.366477 506.969778 
L 110.041205 506.719258 
L 109.788215 506.421019 
L 109.625579 506.015414 
L 109.950851 505.633668 
L 110.167699 505.192274 
L 113.953509 501.684984 
L 114.866079 500.70676 
L 115.688295 499.478016 
L 116.519547 498.750312 
L 117.106845 497.831736 
L 119.248221 495.899148 
L 122.47384 492.033971 
L 122.47384 492.033971 
L 122.401557 491.771521 
L 122.464804 491.807309 
L 122.618405 491.568718 
L 123.92853 487.942132 
L 124.380298 486.856542 
L 124.868206 484.74501 
L 125.202514 483.742927 
L 125.699458 482.788563 
L 125.681387 481.309297 
L 125.356115 479.997046 
L 125.428398 479.400568 
L 126.539745 476.752206 
L 127.587845 474.115774 
L 128.184178 472.672297 
L 128.382956 471.908805 
L 128.410062 470.584624 
L 128.084789 470.119371 
L 127.045725 469.415527 
L 125.374186 468.866768 
L 124.344156 468.604317 
L 123.567117 468.150994 
L 122.094355 467.017686 
L 121.380563 465.955955 
L 119.139797 465.073168 
L 118.95909 465.419125 
L 119.139797 465.252111 
L 119.004267 464.798788 
L 118.669959 464.393183 
L 118.281439 464.250028 
L 117.323693 463.40303 
L 115.715401 462.687256 
L 113.772802 462.198144 
L 112.878303 461.804469 
L 109.697861 458.941375 
L 108.49616 458.070517 
L 103.761639 455.255141 
L 102.614151 454.670593 
L 101.746757 454.396213 
L 100.933576 454.372354 
L 100.138466 454.145692 
L 98.259114 453.024314 
L 97.229085 452.272751 
L 95.837642 450.972429 
L 94.319704 450.077713 
L 91.455499 447.345844 
L 89.476758 446.964098 
L 87.787149 447.154971 
L 85.907797 446.510774 
L 85.365676 446.63007 
L 84.579601 447.047605 
L 83.49536 446.498845 
L 80.260706 443.695399 
L 76.736921 441.917894 
L 76.167695 441.834387 
L 75.191877 441.822458 
L 74.405802 441.643514 
L 73.16796 442.049119 
L 72.535486 442.132626 
L 71.803623 442.084908 
L 70.267614 441.607726 
L 68.33405 440.545995 
L 67.629293 439.889869 
L 65.135538 436.764325 
L 64.195862 435.702594 
L 63.608565 435.296989 
L 61.702107 435.153835 
L 61.946061 433.304753 
L 61.90992 432.3146 
L 61.593683 431.21708 
L 61.187092 430.620602 
L 60.626901 430.059913 
L 59.163175 429.511153 
L 57.762696 428.664155 
L 55.458683 427.900663 
L 54.744891 427.483128 
L 53.94978 427.208748 
L 52.214994 427.244537 
L 51.257248 427.399621 
L 50.227218 427.149101 
L 49.314648 426.6242 
L 47.435296 425.192653 
L 43.044119 422.735164 
L 42.610422 422.365347 
L 41.833382 421.900095 
L 39.655864 420.158379 
L 36.366998 417.808256 
L 35.74356 417.223708 
L 35.264686 415.183753 
L 35.499605 414.408332 
L 35.996549 413.215376 
L 36.999473 411.855406 
L 37.234392 411.592956 
L 37.686159 411.48559 
L 38.544517 411.545238 
L 39.131814 408.873016 
L 39.863677 407.811286 
L 39.990172 406.988146 
L 40.884671 405.294149 
L 41.092484 404.781178 
L 41.399686 404.399432 
L 41.842418 404.029616 
L 42.366468 403.36156 
L 44.290996 401.930013 
L 45.736652 399.520242 
L 45.348132 399.329369 
L 46.956423 397.43257 
L 47.236519 396.919599 
L 47.751534 396.239614 
L 48.248478 395.392615 
L 48.564715 394.43825 
L 48.094877 392.589169 
L 48.230407 391.813747 
L 49.35079 390.453778 
L 50.209147 389.30854 
L 50.308536 388.556978 
L 51.139788 386.540882 
L 52.739044 384.44128 
L 53.570296 382.568339 
L 55.567107 376.269532 
L 59.343882 371.008597 
L 59.714331 370.268964 
L 60.319699 370.268964 
L 60.925067 369.899148 
L 61.394905 369.219163 
L 62.334581 367.024124 
L 61.602718 366.165196 
L 61.367799 365.282409 
L 62.18098 362.622117 
L 62.488182 361.787048 
L 63.012232 360.880401 
L 63.689883 360.176557 
L 64.873513 359.508502 
L 66.35531 356.943647 
L 68.379227 353.651089 
L 70.195331 351.861655 
L 71.98433 349.213293 
L 74.776252 344.119371 
L 75.318372 342.401515 
L 76.167695 340.003674 
L 76.718851 339.2879 
L 77.260972 338.357394 
L 78.688556 336.711115 
L 79.30296 335.172202 
L 79.519808 334.40871 
L 79.646303 332.762431 
L 80.161317 330.245294 
L 80.992569 328.944973 
L 81.751538 326.952736 
L 82.808674 325.199091 
L 83.35983 324.364022 
L 85.347606 321.906533 
L 86.187893 320.486915 
L 86.531236 320.451127 
L 86.431847 320.606211 
L 86.540271 319.246241 
L 86.603519 318.816777 
L 87.479947 317.65961 
L 88.356376 316.860329 
L 90.280904 314.116531 
L 90.723636 313.257603 
L 92.331928 309.428214 
L 92.684306 308.617004 
L 93.325816 305.992501 
L 93.687229 305.038137 
L 94.654011 304.179208 
L 96.397833 303.177126 
L 98.295256 300.457186 
L 100.391456 295.792729 
L 100.90647 294.969589 
L 101.737722 294.253816 
L 102.578009 293.263662 
L 102.749681 292.50017 
L 102.9846 291.199849 
L 103.64418 290.006893 
L 103.851993 289.303049 
L 104.231477 288.551486 
L 105.541603 287.036432 
L 106.074688 286.332589 
L 107.149894 284.459648 
L 109.490048 281.632342 
L 110.926668 279.031699 
L 111.342294 278.590305 
L 111.794062 277.576292 
L 112.01091 276.657716 
L 112.625313 275.548267 
L 113.049975 274.462678 
L 113.339106 274.021284 
L 113.817979 272.661314 
L 114.24264 271.026965 
L 114.477559 269.929445 
L 114.848008 268.831926 
L 115.435306 267.805984 
L 115.742507 267.62704 
L 116.302699 267.042492 
L 119.004267 263.511343 
L 120.730018 257.176747 
L 121.42574 255.924143 
L 122.844289 254.421019 
L 123.476763 253.812611 
L 124.226697 253.323499 
L 124.95856 253.072979 
L 126.440356 252.810528 
L 128.021542 252.273698 
L 129.684045 251.438629 
L 130.939958 250.174096 
L 131.355584 249.482181 
L 131.626645 248.766408 
L 131.680857 247.967127 
L 131.563397 247.191706 
L 130.903817 245.700511 
L 129.729222 244.579133 
L 128.437168 243.481613 
L 127.452315 244.853513 
L 127.226431 244.555274 
L 126.991512 244.030373 
L 126.783699 242.610756 
L 126.828876 241.083772 
L 126.377109 239.819239 
L 125.970518 238.996099 
L 125.527786 236.598258 
L 125.744635 235.17864 
L 125.834988 234.188487 
L 125.581999 230.716985 
L 125.338044 228.784397 
L 125.193479 226.839879 
L 125.310938 224.811854 
L 125.012772 220.684226 
L 125.039878 216.139065 
L 124.723641 215.17277 
L 123.820106 214.254194 
L 123.693611 212.440901 
L 123.413516 208.635372 
L 123.65747 207.764514 
L 123.558081 206.165953 
L 123.684576 204.185647 
L 124.100202 201.501496 
L 124.633287 198.793486 
L 124.8411 196.872827 
L 124.362227 196.073547 
L 124.759782 194.63007 
L 124.777853 193.747283 
L 124.949524 193.317819 
L 124.940489 192.888354 
L 124.588111 191.93399 
L 124.190555 189.965613 
L 124.100202 186.720773 
L 124.172485 183.941185 
L 123.856248 179.169362 
L 123.793 178.429729 
L 124.055025 176.306268 
L 123.964672 174.34982 
L 123.684576 172.441091 
L 123.250879 170.496573 
L 122.7449 167.788563 
L 123.097279 164.364779 
L 122.925607 163.446203 
L 122.600335 162.515698 
L 122.437698 159.915054 
L 122.410592 156.121454 
L 122.772006 155.405681 
L 123.350268 154.88078 
L 123.594223 154.34395 
L 123.648435 153.210642 
L 123.440622 150.586139 
L 123.576152 148.200227 
L 123.783965 145.95747 
L 124.253803 142.808067 
L 125.066984 135.984359 
L 125.130231 134.135277 
L 125.22962 133.288279 
L 125.130231 132.465139 
L 124.18152 131.463056 
L 124.669429 130.437114 
L 125.825953 128.862412 
L 126.169296 127.597879 
L 127.226431 125.498277 
L 128.49138 123.816209 
L 129.693081 121.62117 
L 130.497226 118.996667 
L 130.560474 117.982655 
L 131.039347 117.254952 
L 131.915776 115.298504 
L 132.611497 114.60659 
L 133.406608 112.471199 
L 133.894516 111.850862 
L 133.894516 111.838932 
L 136.252741 108.761106 
L 136.288883 108.975838 
L 136.153353 109.059345 
L 136.099141 109.45302 
L 136.017822 109.297936 
L 135.954575 108.963908 
L 135.755797 108.856542 
L 135.900363 108.713388 
L 135.96361 109.047415 
L 135.882292 109.023556 
L 136.162388 109.118993 
L 136.171423 109.047415 
L 137.743573 107.878319 
L 138.114023 107.460784 
L 138.511578 106.76887 
L 138.990451 106.232039 
L 139.821703 104.812422 
L 141.113757 102.354933 
L 143.273205 98.000644 
L 145.342299 95.13755 
L 146.489788 92.501117 
L 147.185509 90.246431 
L 147.655347 89.292066 
L 148.170362 88.528574 
L 149.02872 86.655633 
L 151.025531 83.315357 
L 152.435045 80.953304 
L 153.004272 80.177883 
L 155.335391 75.775876 
L 156.302173 72.972429 
L 156.943682 71.07563 
L 157.53098 70.180913 
L 158.759787 68.582352 
L 159.889205 66.959932 
L 160.837916 65.313653 
L 161.777592 63.631585 
L 162.157077 62.832304 
L 164.298453 59.742549 
L 165.102599 58.09627 
L 170.677407 48.922439 
L 171.707437 47.383526 
L 172.520618 45.546374 
L 173.957238 43.184321 
L 179.378445 34.368377 
L 180.137414 32.996478 
L 180.57111 32.555084 
L 181.194549 32.4 
L 181.917377 32.447718 
L 183.390138 32.996478 
L 187.184983 35.275024 
L 196.048657 40.941564 
L 197.4401 41.645408 
L 198.705049 42.277675 
L 200.521153 43.291687 
L 202.761919 44.281841 
L 205.391204 45.36743 
L 205.788759 45.152698 
L 205.987537 44.926037 
L 205.508664 41.215944 
L 205.508664 41.215944 
L 205.346027 41.669267 
L 205.346027 41.669267 
" clip-path="url(#paf0ee54b6e)" style="fill: none; stroke: #000000; stroke-width: 3"/>
   </g>
  </g>
 </g>
 <defs>
  <clipPath id="paf0ee54b6e">
   <rect x="7.2" y="7.2" width="319.455478" height="554.4"/>
  </clipPath>
 </defs>
</svg>
