<?xml version="1.0" encoding="utf-8" standalone="no"?>
<!DOCTYPE svg PUBLIC "-//W3C//DTD SVG 1.1//EN"
  "http://www.w3.org/Graphics/SVG/1.1/DTD/svg11.dtd">
<svg xmlns:xlink="http://www.w3.org/1999/xlink" width="406.428658pt" height="568.8pt" viewBox="0 0 406.428658 568.8" xmlns="http://www.w3.org/2000/svg" version="1.1">
 <metadata>
  <rdf:RDF xmlns:dc="http://purl.org/dc/elements/1.1/" xmlns:cc="http://creativecommons.org/ns#" xmlns:rdf="http://www.w3.org/1999/02/22-rdf-syntax-ns#">
   <cc:Work>
    <dc:type rdf:resource="http://purl.org/dc/dcmitype/StillImage"/>
    <dc:date>2022-11-02T05:18:43.334851</dc:date>
    <dc:format>image/svg+xml</dc:format>
    <dc:creator>
     <cc:Agent>
      <dc:title>Matplotlib v3.6.1, https://matplotlib.org/</dc:title>
     </cc:Agent>
    </dc:creator>
   </cc:Work>
  </rdf:RDF>
 </metadata>
 <defs>
  <style type="text/css">*{stroke-linejoin: round; stroke-linecap: butt}</style>
 </defs>
 <g id="figure_1">
  <g id="patch_1">
   <path d="M 0 568.8 
L 406.428658 568.8 
L 406.428658 0 
L 0 0 
z
" style="fill: #ffffff"/>
  </g>
  <g id="axes_1">
   <g id="LineCollection_1">
    <path d="M 247.733056 35.452451 
L 248.256421 35.826808 
L 249.019661 36.085979 
L 249.891936 36.201166 
L 250.742404 36.028385 
L 251.592872 35.740418 
L 252.661409 35.538841 
L 253.511876 35.740418 
L 256.586645 37.468221 
L 257.720603 37.900171 
L 259.90129 39.167227 
L 261.624032 40.578265 
L 263.848333 42.795612 
L 265.091325 44.609805 
L 266.923102 45.87686 
L 270.390394 47.115118 
L 272.331206 47.345492 
L 273.508777 47.431882 
L 276.867035 47.287899 
L 279.331211 47.633459 
L 280.486976 47.748646 
L 281.620933 47.97902 
L 282.624049 48.353377 
L 283.474517 48.871718 
L 284.259564 49.649229 
L 285.437135 51.377031 
L 287.072651 53.968735 
L 287.77047 54.861433 
L 290.932467 58.173055 
L 292.895085 60.908742 
L 293.527484 62.089407 
L 294.18169 65.487419 
L 293.920008 66.322523 
L 295.293841 77.495646 
L 295.642751 78.388344 
L 296.166116 79.309839 
L 296.863936 80.26013 
L 297.692597 81.152828 
L 298.521258 81.843949 
L 299.044623 82.44868 
L 299.786056 83.542955 
L 300.418456 84.694823 
L 301.377958 85.616318 
L 302.359267 86.249846 
L 303.405997 86.73939 
L 304.43092 86.940967 
L 306.175469 86.82578 
L 307.244006 86.940967 
L 311.038402 87.862461 
L 312.019711 88.208022 
L 313.110054 88.409599 
L 317.536849 88.467192 
L 320.066446 88.985533 
L 322.334361 89.676654 
L 325.082026 89.964621 
L 325.997915 90.022215 
L 326.93561 89.964621 
L 328.701967 89.705451 
L 329.79231 89.647857 
L 330.991688 89.705451 
L 333.586706 90.108605 
L 334.655243 90.454165 
L 335.767393 90.972506 
L 336.857737 91.346863 
L 339.082037 92.412341 
L 339.888892 93.218649 
L 341.240918 94.860062 
L 344.228459 97.768529 
L 345.689519 99.323552 
L 347.848399 101.944052 
L 349.549335 104.823723 
L 349.985473 105.774014 
L 351.424726 109.949537 
L 351.577374 111.015015 
L 351.511954 112.051697 
L 351.839057 113.117175 
L 352.362422 113.837093 
L 353.060242 114.326637 
L 353.954323 114.643401 
L 356.963671 114.844978 
L 358.075822 114.988961 
L 359.100745 115.766472 
L 360.103861 116.342407 
L 360.997943 117.004731 
L 362.022865 117.609462 
L 363.025982 118.070209 
L 363.876449 118.329379 
L 364.63969 118.444566 
L 365.490158 118.790127 
L 368.95745 119.452451 
L 370.440318 119.682825 
L 372.817266 120.373946 
L 373.645928 120.373946 
L 376.568048 121.410627 
L 378.247177 121.784985 
L 379.751851 122.476106 
L 380.885809 123.685567 
L 381.234719 124.232705 
L 381.278332 124.808639 
L 381.409174 124.923826 
L 380.66774 125.816524 
L 378.22537 127.60192 
L 376.393593 129.358519 
L 373.929417 132.209393 
L 370.658386 136.240932 
L 368.717575 138.659856 
L 366.166171 142.662599 
L 365.359317 143.5265 
L 364.094518 145.657456 
L 362.393582 148.997875 
L 360.147475 153.202194 
L 359.62411 154.296469 
L 357.705105 157.233733 
L 357.225354 158.500788 
L 356.636568 160.689338 
L 355.873328 162.762701 
L 355.546225 163.712993 
L 355.349963 164.893658 
L 354.67395 166.938224 
L 353.583606 169.155571 
L 351.948091 172.352005 
L 351.599181 173.44628 
L 350.552451 175.63483 
L 349.941859 176.700309 
L 348.393571 178.543298 
L 347.237807 180.731848 
L 346.758056 181.797326 
L 346.125657 182.747617 
L 345.362416 183.553925 
L 343.487025 186.347206 
L 343.094502 187.326294 
L 341.720669 189.226877 
L 339.278299 192.077751 
L 334.219105 197.491532 
L 332.58359 198.931368 
L 331.18795 200.630374 
L 328.178602 203.970792 
L 324.296979 207.915941 
L 322.465202 210.450051 
L 320.480777 212.926568 
L 320.022832 213.87686 
L 319.259592 215.748646 
L 317.187939 219.377031 
L 316.773609 221.421598 
L 315.203514 224.013301 
L 313.873295 227.123346 
L 313.175475 228.102434 
L 311.496346 232.42194 
L 311.103822 233.631402 
L 310.667685 235.675968 
L 310.449616 236.683853 
L 310.318775 238.929997 
L 309.228431 242.155228 
L 309.010363 243.2783 
L 308.68326 244.372575 
L 307.832792 246.474734 
L 307.571109 247.511416 
L 307.527495 248.605691 
L 307.614723 249.642372 
L 307.091358 251.427768 
L 305.782946 255.200137 
L 305.630298 256.294412 
L 304.300079 261.708193 
L 303.994782 263.83915 
L 301.268923 271.239904 
L 300.963627 272.276586 
L 300.680138 274.493932 
L 300.549297 276.912856 
L 300.832786 279.274186 
L 301.138082 281.491532 
L 301.57422 283.708879 
L 301.944936 284.947137 
L 302.33746 287.394858 
L 302.33746 288.661913 
L 302.184812 289.928968 
L 301.399765 292.347892 
L 300.8764 293.528557 
L 299.851477 294.219678 
L 295.817206 297.617689 
L 294.268918 299.374289 
L 291.085115 301.476448 
L 290.278261 302.196366 
L 287.617822 303.895372 
L 285.655204 304.816867 
L 284.891964 305.623174 
L 282.972959 306.97662 
L 281.381057 308.675626 
L 277.281366 311.209736 
L 276.452705 311.987247 
L 275.951146 312.851148 
L 275.253327 313.657456 
L 274.381052 314.175797 
L 272.832764 315.385259 
L 270.564849 318.5241 
L 267.577308 321.634145 
L 265.61469 324.456222 
L 265.025904 325.5217 
L 262.888831 328.084607 
L 261.733067 330.129174 
L 260.838985 331.943366 
L 260.381041 332.807268 
L 259.726835 334.851834 
L 258.85456 340.035242 
L 258.636491 342.310182 
L 258.941787 344.527528 
L 260.468268 351.265958 
L 261.253316 353.195338 
L 264.676994 359.329037 
L 265.287587 360.336921 
L 266.159862 361.258416 
L 267.206591 363.187796 
L 267.642729 364.166884 
L 267.860797 365.030785 
L 268.209707 365.95228 
L 268.907527 368.918341 
L 268.972948 371.193281 
L 268.798493 372.431539 
L 268.842107 374.677683 
L 268.776686 375.800754 
L 268.907527 376.837436 
L 268.558617 378.738019 
L 268.296935 379.68831 
L 267.293819 381.358519 
L 266.31251 383.230305 
L 264.91687 387.377031 
L 263.935561 390.400686 
L 262.888831 392.416455 
L 262.300045 393.33795 
L 260.686337 394.662599 
L 260.075745 395.5265 
L 259.225277 397.369489 
L 258.941787 398.377374 
L 258.50565 399.414056 
L 257.960478 400.306754 
L 256.499418 402.063353 
L 256.041473 403.186424 
L 254.580413 405.000617 
L 253.642718 405.547755 
L 251.941782 407.131574 
L 251.505644 408.053068 
L 250.022777 409.780871 
L 249.281344 410.500788 
L 248.430876 411.105519 
L 247.536794 411.566267 
L 245.923085 413.006102 
L 243.93866 414.589921 
L 242.761089 415.079465 
L 237.287565 418.477477 
L 236.06638 418.707851 
L 235.106878 419.024614 
L 234.212796 419.744532 
L 232.337405 421.011587 
L 230.614662 422.336236 
L 225.250172 429.074666 
L 224.683193 429.99616 
L 224.072601 430.744875 
L 223.527429 431.608776 
L 222.89503 432.299897 
L 222.066369 432.933425 
L 221.49939 433.710936 
L 220.823377 435.323552 
L 220.45266 436.360233 
L 219.994716 437.281728 
L 219.667613 439.441481 
L 219.253282 442.234762 
L 218.882566 443.156256 
L 218.620883 444.164141 
L 218.075711 445.143229 
L 216.091286 447.446966 
L 215.611535 448.454851 
L 214.826488 450.557011 
L 213.736144 452.371203 
L 212.166049 453.782242 
L 211.642685 454.559753 
L 210.094397 456.057182 
L 209.418384 456.86349 
L 207.21589 458.648886 
L 206.365422 459.541584 
L 203.617756 461.67254 
L 198.929279 464.811382 
L 197.271957 466.078437 
L 196.399682 466.539184 
L 193.412141 467.662256 
L 191.231454 467.806239 
L 190.119303 467.604662 
L 188.985346 467.748646 
L 186.804659 467.691052 
L 184.49313 468.123003 
L 183.402787 468.1518 
L 181.047645 468.036613 
L 176.533623 466.884745 
L 175.57412 466.481591 
L 173.698729 465.358519 
L 171.212746 463.400343 
L 170.340471 462.910799 
L 169.44639 462.594035 
L 167.418351 461.614947 
L 164.343582 460.808639 
L 160.505573 458.87926 
L 158.455727 458.447309 
L 157.496224 458.015358 
L 156.514915 457.842578 
L 155.489992 457.900171 
L 153.047623 458.735276 
L 149.667558 459.282413 
L 148.708056 459.800754 
L 146.941699 460.376688 
L 145.894969 460.347892 
L 145.109922 460.463079 
L 142.667552 461.298183 
L 141.860698 461.58615 
L 141.01023 462.190881 
L 139.54917 463.544326 
L 136.670663 465.87686 
L 136.256332 466.798354 
L 136.06007 468.094206 
L 135.602126 469.159685 
L 133.922997 471.837779 
L 132.483744 473.306411 
L 131.938572 474.141515 
L 128.165983 478.518615 
L 125.505545 482.003017 
L 124.611463 483.471649 
L 124.088098 484.364347 
L 121.296819 491.102777 
L 120.598999 494.155228 
L 120.228282 495.134316 
L 117.698685 499.82818 
L 117.131707 500.720878 
L 116.673762 501.728762 
L 115.517998 503.398972 
L 115.190895 504.320466 
L 114.296813 505.961879 
L 112.552264 511.20288 
L 111.941671 513.333836 
L 110.022667 516.213507 
L 109.281233 517.163798 
L 106.271885 524.103805 
L 105.704906 525.0253 
L 104.941666 525.975591 
L 104.374687 526.983476 
L 102.804593 528.740075 
L 100.754747 531.187796 
L 99.271879 532.656428 
L 97.483716 533.86589 
L 95.521098 535.161742 
L 92.337295 536.371203 
L 91.028882 536.4 
L 89.873118 536.284813 
L 88.60832 535.881659 
L 84.901152 535.248132 
L 81.172177 535.334522 
L 77.530429 535.363318 
L 75.022639 535.017758 
L 74.237592 534.700994 
L 72.885566 533.693109 
L 70.879334 532.771615 
L 69.767183 532.224477 
L 68.589612 531.792527 
L 63.857521 529.4024 
L 62.810792 529.056839 
L 61.742255 528.884059 
L 60.564684 528.192938 
L 59.517954 527.329037 
L 58.36219 526.119575 
L 57.402688 525.342064 
L 56.486799 524.881316 
L 55.614524 524.276586 
L 52.408914 521.368118 
L 50.577137 520.273843 
L 49.835703 519.611519 
L 48.985235 519.150771 
L 48.112961 518.517244 
L 46.412025 517.797326 
L 45.53975 516.818238 
L 44.732896 513.074666 
L 44.013269 512.354748 
L 43.402677 511.37566 
L 41.461865 509.071923 
L 38.648779 505.270758 
L 35.966534 502.2759 
L 34.679928 501.037641 
L 33.938495 500.231334 
L 32.586469 498.215564 
L 31.016374 495.019129 
L 29.707962 493.147343 
L 28.966528 492.254645 
L 28.334129 491.24676 
L 27.440047 489.05821 
L 25.826339 485.026671 
L 25.346588 482.290984 
L 25.019484 481.398286 
L 25.084905 480.390401 
L 25.455622 479.411313 
L 26.131635 478.518615 
L 26.589579 477.654714 
L 27.592695 475.120603 
L 27.985219 474.199109 
L 28.246901 473.076037 
L 28.704846 471.981762 
L 28.443163 470.455537 
L 28.530391 467.374289 
L 28.704846 466.337607 
L 29.053756 465.416112 
L 30.122292 463.60192 
L 31.212636 461.816524 
L 31.779614 461.067809 
L 33.175254 459.714364 
L 34.614508 457.986562 
L 35.116066 456.921083 
L 38.561551 451.305725 
L 39.215757 450.413027 
L 40.785852 447.59095 
L 41.549093 446.611862 
L 44.07869 444.365718 
L 45.583364 442.637916 
L 46.979003 440.679739 
L 48.04754 439.844635 
L 50.293648 437.857662 
L 52.256266 436.245046 
L 53.281189 435.640315 
L 54.393339 434.690024 
L 55.200194 433.624546 
L 56.20331 431.435996 
L 59.12543 428.066781 
L 62.396461 425.10072 
L 63.443191 424.409599 
L 64.533534 424.064038 
L 66.299891 422.99856 
L 67.848179 421.789098 
L 69.112977 420.781214 
L 71.18463 418.36229 
L 73.212669 416.720878 
L 74.193978 415.885773 
L 74.673729 415.367432 
L 76.570927 414.186767 
L 78.053794 412.775728 
L 78.598966 412.055811 
L 80.583391 409.924854 
L 82.109872 408.024272 
L 82.916726 406.066095 
L 84.050684 403.330408 
L 84.835731 401.545012 
L 85.228255 400.105177 
L 88.60832 393.309153 
L 89.742277 391.034213 
L 91.290565 387.319438 
L 92.075612 385.706822 
L 92.250067 384.958108 
L 92.293681 384.209393 
L 92.097419 383.201508 
L 91.246951 381.041755 
L 90.592745 379.227563 
L 90.505517 378.306068 
L 90.898041 376.549469 
L 91.443213 374.706479 
L 91.792123 373.784985 
L 92.206453 373.007473 
L 93.253183 371.740418 
L 94.060037 371.423654 
L 94.866892 371.394858 
L 97.505523 372.143572 
L 99.010197 372.085979 
L 99.032004 372.402743 
L 98.530446 373.12266 
L 98.63948 372.748303 
L 98.792128 372.201166 
L 98.98839 369.955022 
L 99.620789 366.499417 
L 99.795244 364.714021 
L 99.926086 363.734933 
L 100.602099 361.92074 
L 100.863781 359.55941 
L 101.060043 358.119575 
L 101.866897 355.931025 
L 102.084966 354.779157 
L 103.175309 351.985876 
L 103.742288 351.265958 
L 105.792134 347.695166 
L 106.271885 346.716078 
L 106.620795 345.621803 
L 106.817057 344.354748 
L 107.820173 342.108605 
L 108.496186 341.129517 
L 110.720487 339.142544 
L 111.3965 338.365033 
L 112.683105 336.63723 
L 113.424539 335.917312 
L 114.972826 333.987933 
L 115.605226 332.980048 
L 117.044479 330.100377 
L 118.701801 328.574152 
L 119.399621 327.969421 
L 121.165978 325.291327 
L 122.365356 324.456222 
L 127.729846 321.518958 
L 128.863803 321.087007 
L 129.93234 320.88543 
L 132.527357 320.71265 
L 135.776581 319.647172 
L 136.845118 319.157628 
L 139.156646 318.43771 
L 140.159762 318.26493 
L 141.293719 317.948166 
L 145.851355 315.874803 
L 149.711172 312.476791 
L 150.321764 311.756874 
L 151.521142 308.790812 
L 152.567872 307.034213 
L 152.851361 306.199109 
L 153.025816 305.335207 
L 153.091237 304.384916 
L 153.592795 301.418855 
L 153.723636 298.711964 
L 154.116159 295.86109 
L 154.552297 293.902914 
L 154.704945 291.080836 
L 155.010241 289.698594 
L 154.443263 280.368461 
L 154.268808 277.4024 
L 153.941704 275.357833 
L 153.287498 272.420569 
L 152.829554 268.360233 
L 151.957279 263.435996 
L 151.826438 261.420226 
L 151.586562 259.28927 
L 151.237653 257.619061 
L 150.932356 256.639973 
L 150.670674 254.624203 
L 150.605253 253.501131 
L 150.670674 251.514158 
L 150.496219 249.411999 
L 150.648867 247.367432 
L 151.150425 242.270415 
L 152.349803 239.649914 
L 152.655099 237.950908 
L 152.982202 237.115804 
L 154.465069 234.322523 
L 155.184696 232.594721 
L 155.795289 231.932396 
L 156.754791 230.550154 
L 157.648873 229.62866 
L 161.203392 226.748989 
L 162.075667 225.971478 
L 163.013363 225.42434 
L 163.754796 224.560439 
L 165.739222 222.775043 
L 167.134861 222.026328 
L 169.664458 220.327323 
L 174.11306 216.32458 
L 175.879416 215.172712 
L 177.122408 214.596778 
L 179.346709 212.667398 
L 180.589701 211.486733 
L 181.440169 210.910799 
L 183.38098 208.895029 
L 184.275062 208.290298 
L 184.994688 207.627974 
L 185.496247 206.821666 
L 186.23768 206.418512 
L 186.979114 206.188138 
L 189.465097 204.86349 
L 190.926157 203.999589 
L 193.194072 202.358176 
L 194.022733 202.070209 
L 194.698746 201.494275 
L 196.290648 199.132945 
L 197.293764 197.261159 
L 197.555446 196.426054 
L 198.623983 195.015015 
L 199.038313 194.266301 
L 201.655138 191.242647 
L 201.807786 190.493932 
L 202.113082 189.716421 
L 202.527413 187.643058 
L 203.050777 186.57758 
L 203.901245 185.598492 
L 204.860748 184.73459 
L 209.091281 181.653342 
L 210.050783 180.386287 
L 211.381002 177.938567 
L 212.536766 176.441138 
L 214.128668 174.626945 
L 215.066363 173.503874 
L 216.069479 172.524786 
L 217.334278 170.681796 
L 218.947986 169.184368 
L 222.066369 167.542955 
L 223.985373 166.074323 
L 227.409052 162.877888 
L 228.477589 162.100377 
L 229.502512 161.207679 
L 230.200332 160.027014 
L 230.919958 159.134316 
L 233.863886 156.744189 
L 235.433981 155.966678 
L 236.153607 155.448337 
L 236.698779 154.757216 
L 238.334294 153.634145 
L 241.910621 150.495303 
L 243.349875 149.429825 
L 243.982274 148.738704 
L 245.268879 147.586836 
L 247.253305 145.196709 
L 247.863897 144.188824 
L 250.197232 139.523757 
L 251.418417 136.96085 
L 252.901284 134.657113 
L 253.250194 133.735619 
L 253.424649 132.698937 
L 254.166083 130.798354 
L 254.405958 129.79047 
L 254.689447 125.960507 
L 255.452688 122.735276 
L 255.343654 119.798012 
L 254.405958 115.968049 
L 254.427765 114.873774 
L 254.122469 112.685225 
L 254.100662 110.784642 
L 254.384151 110.266301 
L 254.493186 107.789784 
L 254.166083 105.745218 
L 254.035241 103.527871 
L 254.078855 102.519986 
L 254.275117 101.713678 
L 254.842096 90.972506 
L 255.71437 85.385944 
L 255.278233 84.781214 
L 254.057048 84.320466 
L 253.315615 84.406856 
L 251.680099 84.867604 
L 250.088198 85.702708 
L 249.259537 86.307439 
L 248.278227 86.854577 
L 246.206575 87.459308 
L 243.93866 88.150429 
L 241.518098 88.524786 
L 240.405947 88.582379 
L 238.356101 88.121632 
L 236.655165 87.574494 
L 234.779774 86.99856 
L 233.929307 86.509016 
L 233.340521 85.875489 
L 232.795349 85.040384 
L 232.337405 84.118889 
L 232.228371 82.650257 
L 232.664508 81.152828 
L 232.686315 80.26013 
L 232.119336 77.582036 
L 232.119336 76.430168 
L 232.599087 74.500788 
L 233.253294 73.780871 
L 234.714354 72.686596 
L 236.567938 71.880288 
L 240.558595 68.62626 
L 241.169188 67.906342 
L 242.739282 64.796298 
L 244.854549 63.154885 
L 246.664519 60.735962 
L 248.212807 59.008159 
L 249.281344 58.345835 
L 250.393494 57.856291 
L 252.181657 56.704422 
L 252.683215 56.042098 
L 253.119353 55.23579 
L 253.620911 53.277614 
L 253.686331 52.212136 
L 254.122469 50.282756 
L 254.558606 44.840178 
L 254.384151 44.03387 
L 253.446456 42.392458 
L 252.617795 41.816524 
L 252.181657 41.010216 
L 251.614679 40.290298 
L 251.222155 39.570381 
L 250.69879 38.994446 
L 248.779786 38.188138 
L 242.368566 33.235105 
L 241.583518 32.4 
L 241.583518 32.4 
" clip-path="url(#p90d28ec89b)" style="fill: none; stroke: #000000; stroke-width: 3"/>
   </g>
  </g>
 </g>
 <defs>
  <clipPath id="p90d28ec89b">
   <rect x="7.2" y="7.2" width="392.028658" height="554.4"/>
  </clipPath>
 </defs>
</svg>
