<?xml version="1.0" encoding="utf-8" standalone="no"?>
<!DOCTYPE svg PUBLIC "-//W3C//DTD SVG 1.1//EN"
  "http://www.w3.org/Graphics/SVG/1.1/DTD/svg11.dtd">
<svg xmlns:xlink="http://www.w3.org/1999/xlink" width="296.804776pt" height="568.8pt" viewBox="0 0 296.804776 568.8" xmlns="http://www.w3.org/2000/svg" version="1.1">
 <metadata>
  <rdf:RDF xmlns:dc="http://purl.org/dc/elements/1.1/" xmlns:cc="http://creativecommons.org/ns#" xmlns:rdf="http://www.w3.org/1999/02/22-rdf-syntax-ns#">
   <cc:Work>
    <dc:type rdf:resource="http://purl.org/dc/dcmitype/StillImage"/>
    <dc:date>2022-11-03T05:08:32.111973</dc:date>
    <dc:format>image/svg+xml</dc:format>
    <dc:creator>
     <cc:Agent>
      <dc:title>Matplotlib v3.6.2, https://matplotlib.org/</dc:title>
     </cc:Agent>
    </dc:creator>
   </cc:Work>
  </rdf:RDF>
 </metadata>
 <defs>
  <style type="text/css">*{stroke-linejoin: round; stroke-linecap: butt}</style>
 </defs>
 <g id="figure_1">
  <g id="patch_1">
   <path d="M 0 568.8 
L 296.804776 568.8 
L 296.804776 0 
L 0 0 
z
" style="fill: #ffffff"/>
  </g>
  <g id="axes_1">
   <g id="LineCollection_1">
    <path d="M 155.993123 177.021611 
L 156.132875 177.410117 
L 156.382958 177.351841 
L 156.986097 176.701093 
L 159.383946 172.514933 
L 159.56783 172.126427 
L 159.847334 171.815621 
L 160.318077 171.679644 
L 160.832953 171.786483 
L 162.053943 172.301255 
L 164.32675 173.058843 
L 170.953933 175.215055 
L 172.60889 176.215459 
L 174.911119 177.818049 
L 177.772355 180.158802 
L 179.08161 180.527883 
L 182.994663 182.732659 
L 184.509868 183.295994 
L 189.702755 185.063699 
L 190.673663 185.520194 
L 192.571347 186.287495 
L 193.990932 186.821692 
L 196.97721 188.803076 
L 198.205556 189.609227 
L 199.558942 190.434804 
L 200.632826 191.51291 
L 201.044726 192.163658 
L 201.574312 193.610846 
L 201.949436 195.291137 
L 202.971831 200.83707 
L 203.692657 202.633913 
L 204.86216 204.294779 
L 205.627117 205.100931 
L 207.274719 206.528693 
L 210.489013 209.559045 
L 212.423474 212.433994 
L 213.534133 214.803885 
L 214.505041 216.047106 
L 216.042312 217.950789 
L 217.138262 219.184298 
L 217.535451 219.903035 
L 217.792889 221.427924 
L 216.99851 222.039822 
L 215.402396 225.196439 
L 214.894876 225.730635 
L 214.453554 226.381384 
L 213.622398 226.964144 
L 212.327854 227.673169 
L 211.879177 228.129664 
L 211.467276 228.828976 
L 210.386038 230.217887 
L 209.937361 230.965763 
L 209.378353 232.772319 
L 207.39976 236.939053 
L 206.59067 238.619344 
L 205.891911 239.542048 
L 203.582326 241.028086 
L 202.94241 241.620558 
L 202.111254 243.213436 
L 202.206873 244.340105 
L 201.94208 245.155969 
L 202.0377 246.272926 
L 201.868527 247.108215 
L 199.838446 251.488628 
L 199.073488 252.974666 
L 198.40415 254.606394 
L 196.594731 257.753298 
L 195.815062 259.307325 
L 195.322253 260.094051 
L 194.711758 260.803076 
L 194.211593 261.570376 
L 194.439609 262.842736 
L 195.116303 264.260785 
L 195.572335 265.581708 
L 195.447294 266.552975 
L 196.256384 268.116714 
L 193.623164 268.097289 
L 193.74085 269.350223 
L 191.828455 270.525455 
L 190.600109 270.748847 
L 189.783664 271.23448 
L 188.194906 273.478106 
L 187.768294 274.313395 
L 187.496146 275.226386 
L 186.532593 276.760987 
L 185.039455 278.839498 
L 184.85557 279.771914 
L 183.928795 282.12238 
L 182.737226 284.220316 
L 182.237061 284.832214 
L 180.434997 288.008256 
L 179.978964 288.581303 
L 179.758303 289.241764 
L 178.831528 290.300445 
L 178.118057 290.630676 
L 177.205992 291.73792 
L 176.073266 293.262809 
L 175.558391 293.593039 
L 175.580457 294.204937 
L 175.455416 294.680858 
L 174.866987 295.38017 
L 174.521284 295.681263 
L 173.02079 296.613679 
L 172.469138 298.837879 
L 172.226411 299.478915 
L 171.888064 300.022825 
L 171.314346 300.372481 
L 171.601205 301.275759 
L 170.821536 303.169729 
L 168.019143 308.45342 
L 165.893443 312.659004 
L 165.797823 313.55257 
L 164.996088 314.999757 
L 162.679149 318.340915 
L 161.656753 318.65172 
L 161.428737 320.516552 
L 161.230142 321.361554 
L 158.75874 325.751679 
L 157.721634 328.985998 
L 156.405024 330.763416 
L 155.82395 332.123189 
L 155.750396 333.016754 
L 155.537091 333.881182 
L 154.816265 335.376932 
L 153.639407 337.69826 
L 152.035938 339.815621 
L 151.072385 341.282234 
L 149.939659 343.564711 
L 149.571891 344.215459 
L 149.115858 345.730635 
L 148.887842 346.58535 
L 148.152306 348.081101 
L 147.03429 350.043059 
L 146.578258 350.62582 
L 145.445532 351.606799 
L 144.011236 352.539215 
L 142.709336 354.792554 
L 141.679586 355.938648 
L 140.86314 358.49308 
L 140.502727 359.211817 
L 140.017273 359.80429 
L 139.355291 361.183488 
L 139.13463 361.873088 
L 137.509094 364.738325 
L 137.21488 365.369648 
L 136.802979 365.699879 
L 136.685294 366.486605 
L 136.729426 367.292756 
L 136.302815 368.574828 
L 135.949757 369.293565 
L 135.942402 369.478106 
L 135.508435 370.031728 
L 134.99356 370.352246 
L 131.727778 374.878349 
L 131.242324 375.111453 
L 130.845135 376.073007 
L 128.388443 377.733873 
L 128.10894 378.336058 
L 128.064807 379.054796 
L 128.270758 379.773533 
L 127.579353 380.958478 
L 127.035056 381.453824 
L 126.571668 382.026872 
L 125.924396 385.280615 
L 125.232992 387.271712 
L 122.261425 391.622987 
L 121.812748 392.128045 
L 121.158121 393.079887 
L 120.518204 393.682072 
L 118.848537 394.711615 
L 117.620191 395.828571 
L 116.678704 397.071793 
L 116.28887 397.809955 
L 117.00234 398.946338 
L 117.090605 399.83019 
L 116.119697 400.840308 
L 115.317962 401.219102 
L 113.508543 401.850425 
L 112.743585 402.26807 
L 112.500858 402.88968 
L 112.456726 403.773533 
L 112.559701 404.589397 
L 112.191932 406.376528 
L 112.052181 406.920437 
L 110.470777 407.40607 
L 109.860282 407.80429 
L 108.984994 409.98964 
L 107.933177 411.796196 
L 105.88103 413.000567 
L 105.020453 414.195225 
L 104.637974 415.885229 
L 103.681777 418.099717 
L 102.813844 419.3138 
L 101.865002 420.430757 
L 101.53401 421.139781 
L 101.636986 422.159611 
L 101.482523 423.06289 
L 100.607235 424.480939 
L 98.731617 425.510482 
L 98.054923 426.073816 
L 98.07699 426.88968 
L 97.929882 427.890085 
L 97.988725 428.880777 
L 97.643023 429.609227 
L 97.532693 430.590206 
L 96.767735 430.959288 
L 91.435096 431.532335 
L 95.127489 434.310158 
L 96.620628 436.592635 
L 95.995422 437.884419 
L 93.715259 442.313395 
L 93.421044 442.769891 
L 92.942946 443.138972 
L 92.258897 443.430352 
L 91.641046 443.915985 
L 89.912536 446.95605 
L 87.889811 449.753298 
L 86.286342 451.608418 
L 85.95535 452.49227 
L 85.080062 453.978308 
L 83.92527 455.26038 
L 82.777833 457.426305 
L 82.329156 458.13533 
L 83.160312 459.747633 
L 83.300064 461.272521 
L 80.79924 465.905463 
L 80.858083 466.925293 
L 79.938663 469.149494 
L 79.313457 470.654958 
L 78.107177 472.461514 
L 77.776186 473.083124 
L 77.989491 474.132092 
L 78.408747 475.443302 
L 77.629078 477.65779 
L 76.606683 479.483772 
L 75.701973 480.406475 
L 75.488668 480.688142 
L 75.120899 481.465156 
L 74.620735 481.902226 
L 73.076108 482.514124 
L 69.427848 483.514529 
L 68.809997 484.048725 
L 69.104212 484.874302 
L 67.736114 488.098907 
L 67.478677 489.070174 
L 67.603718 490.284257 
L 67.353635 491.158397 
L 66.573967 492.576447 
L 65.286778 494.548118 
L 64.293804 495.723351 
L 63.499425 497.219102 
L 63.116946 499.054796 
L 62.756533 499.773533 
L 61.748848 501.094456 
L 60.108602 502.833023 
L 58.696372 505.756536 
L 56.953151 508.786888 
L 54.937781 513.002185 
L 53.437287 515.595467 
L 53.062164 518.062485 
L 52.459024 519.422258 
L 51.16448 521.996115 
L 51.06886 522.860542 
L 51.046794 524.63796 
L 49.332994 528.38705 
L 48.450351 529.863375 
L 46.670353 532.641198 
L 45.81713 534.039822 
L 44.426967 535.81724 
L 43.904736 536.244597 
L 42.654324 536.390287 
L 41.933498 536.4 
L 41.175896 535.846378 
L 39.881352 535.487009 
L 38.336726 534.50603 
L 37.843916 534.098098 
L 35.946232 533.146257 
L 35.026812 532.514933 
L 34.100036 532.136139 
L 32.989376 530.669527 
L 32.651029 529.659409 
L 31.989047 528.853258 
L 29.135166 526.959288 
L 28.487894 526.648482 
L 27.973018 526.24055 
L 26.604921 525.570376 
L 25.045583 524.968191 
L 23.890791 524.472845 
L 20.808894 523.336463 
L 20.374927 522.870255 
L 20.205754 522.394334 
L 20.036581 520.432376 
L 20.507324 518.431566 
L 21.154596 516.731849 
L 21.272282 516.168515 
L 21.272282 514.760178 
L 21.956331 514.138567 
L 22.463851 513.983165 
L 23.008148 513.215864 
L 23.964345 511.933792 
L 24.155584 511.292756 
L 24.36889 509.748442 
L 24.935253 508.437232 
L 25.634012 507.543667 
L 26.524012 506.941481 
L 27.347812 506.640389 
L 27.825911 506.115904 
L 29.399959 503.464346 
L 31.76103 500.356293 
L 34.122102 496.296398 
L 35.107721 494.305301 
L 35.975654 492.294779 
L 36.696479 490.381384 
L 37.277553 490.00259 
L 38.049866 489.779199 
L 38.52061 489.322703 
L 38.93251 488.759369 
L 40.661021 485.282234 
L 41.205317 484.942291 
L 43.117712 482.086766 
L 43.735563 480.668717 
L 44.353413 479.231242 
L 45.368453 477.337272 
L 45.920106 476.084338 
L 46.479113 474.909106 
L 47.21465 472.859733 
L 48.656301 470.2276 
L 49.34035 468.285067 
L 49.310928 467.148685 
L 49.597787 466.274545 
L 50.370101 466.196843 
L 50.782001 466.041441 
L 51.157125 465.750061 
L 53.121007 463.001376 
L 53.422577 462.340915 
L 54.246377 461.573614 
L 55.41588 461.010279 
L 56.754556 460.301255 
L 57.857861 459.329988 
L 60.329263 456.86297 
L 61.278105 456.67843 
L 62.337277 456.008256 
L 63.161078 454.852448 
L 63.859838 453.570376 
L 64.492399 453.269284 
L 64.992564 452.861352 
L 65.860497 451.715257 
L 66.448926 450.26807 
L 67.508098 448.315824 
L 67.662561 447.24743 
L 68.449585 445.741967 
L 69.008592 443.935411 
L 69.214542 443.002995 
L 69.501402 440.992473 
L 69.699996 440.118333 
L 69.641153 438.350627 
L 69.825038 437.495913 
L 70.17074 436.728612 
L 72.061068 434.339296 
L 72.244952 432.86297 
L 72.318506 432.270498 
L 74.054372 429.861756 
L 74.414785 429.016754 
L 74.091149 427.822096 
L 74.363297 426.899393 
L 74.355942 426.064104 
L 74.760487 423.888466 
L 75.746105 422.616107 
L 76.584617 421.955645 
L 78.813292 419.391501 
L 81.19643 415.389883 
L 81.726016 413.690166 
L 81.858413 412.17499 
L 82.079073 411.164873 
L 83.027915 409.028086 
L 83.814939 407.881991 
L 84.366592 407.308944 
L 85.183037 405.929745 
L 85.778821 404.569972 
L 86.742374 401.928126 
L 87.522043 402.258357 
L 88.941628 403.977499 
L 89.471214 403.967786 
L 89.765429 403.521004 
L 90.221461 402.355484 
L 90.868733 401.209389 
L 91.243857 400.733468 
L 91.979393 400.743181 
L 93.038565 400.306111 
L 94.892117 399.519385 
L 95.215753 399.024039 
L 95.958645 397.372885 
L 96.760379 396.362768 
L 96.96633 394.915581 
L 97.017817 394.935006 
L 97.054594 394.964144 
L 96.973685 394.87673 
L 97.032528 394.808741 
L 97.598891 394.128855 
L 98.378559 393.342129 
L 98.930212 392.701093 
L 99.584839 392.186321 
L 99.717236 390.875111 
L 99.577484 384.406475 
L 100.195334 382.308539 
L 100.599879 381.492675 
L 101.12211 381.113881 
L 101.511944 380.676811 
L 102.372522 379.171348 
L 102.578472 378.646864 
L 102.549051 377.97669 
L 102.593183 377.996115 
L 102.460786 377.86985 
L 102.460786 377.86985 
L 102.53434 377.24824 
L 102.247481 376.150708 
L 102.416654 375.490247 
L 103.034505 374.37329 
L 103.821529 373.402023 
L 104.998387 372.061675 
L 105.255825 371.430352 
L 106.712187 368.934197 
L 107.043178 368.264023 
L 107.506566 366.709996 
L 107.881689 365.233671 
L 108.381854 364.009875 
L 108.396565 362.552975 
L 108.484829 361.863375 
L 109.058548 360.552165 
L 109.058548 360.037394 
L 108.124416 358.67762 
L 107.550698 357.94917 
L 105.682436 356.521408 
L 104.15252 354.811979 
L 103.365496 353.219102 
L 103.211033 352.646054 
L 103.211033 351.315419 
L 103.556735 349.751679 
L 103.873016 348.955241 
L 104.321693 348.197653 
L 105.873675 346.342533 
L 107.462434 344.040631 
L 108.528961 342.758559 
L 109.301275 341.369648 
L 109.897059 339.932173 
L 110.794413 337.659409 
L 112.920113 332.968191 
L 115.362094 328.131283 
L 116.377134 326.101335 
L 117.311266 324.741562 
L 119.333991 322.43966 
L 120.444651 321.371267 
L 121.989277 320.157183 
L 123.15878 319.758964 
L 124.58572 319.545285 
L 126.078859 319.535573 
L 127.704395 319.729826 
L 128.52084 319.914367 
L 130.0434 320.584541 
L 132.757529 322.332821 
L 134.824387 323.323513 
L 136.082154 323.702307 
L 137.369342 323.644031 
L 138.347606 323.372076 
L 140.193802 322.556212 
L 141.532478 321.730635 
L 142.834378 320.720518 
L 144.577599 318.933387 
L 145.092474 318.272926 
L 145.828011 316.786888 
L 147.54181 312.406475 
L 147.84338 311.862566 
L 150.138254 308.78365 
L 151.278335 307.686119 
L 152.543458 306.879968 
L 153.845357 306.209794 
L 158.008493 303.130878 
L 159.008822 302.033347 
L 159.795846 300.896965 
L 160.913862 298.517361 
L 161.634687 296.720518 
L 162.164273 295.321894 
L 162.760058 293.000567 
L 162.929231 291.242574 
L 162.811545 289.426305 
L 162.576174 288.561878 
L 161.737662 286.774747 
L 161.325762 286.09486 
L 160.847663 284.958478 
L 160.296011 282.909106 
L 160.082705 280.81117 
L 160.090061 278.965763 
L 160.251879 278.091623 
L 160.604936 277.431161 
L 161.767084 275.867422 
L 164.297329 272.205747 
L 165.547741 270.981951 
L 168.644349 268.61206 
L 171.667403 266.834642 
L 173.035501 265.73711 
L 173.594509 265.144638 
L 174.02112 264.464751 
L 174.344756 263.707163 
L 174.52864 262.920437 
L 174.462442 261.249858 
L 174.079963 258.899393 
L 174.175582 257.345366 
L 174.602193 255.966168 
L 175.764341 252.896965 
L 176.065911 251.712019 
L 176.441034 250.468798 
L 176.941199 247.96293 
L 178.029793 244.359531 
L 180.994004 238.007446 
L 182.457722 235.734682 
L 185.04681 232.85002 
L 188.511186 229.411736 
L 189.342342 228.119951 
L 190.416225 226.080291 
L 191.673993 224.186321 
L 192.571347 222.331202 
L 193.225974 220.46637 
L 194.226304 218.077054 
L 195.513492 215.833428 
L 197.602416 212.49227 
L 199.367703 210.433185 
L 201.552246 208.548928 
L 202.824724 207.694213 
L 204.251664 207.072602 
L 205.796291 206.654958 
L 208.09852 206.120761 
L 209.613725 205.819668 
L 210.386038 205.809955 
L 212.622068 206.247025 
L 214.953719 206.839498 
L 216.579254 207.043464 
L 217.991484 207.111453 
L 219.719994 206.9172 
L 220.507018 206.66467 
L 221.801562 205.839093 
L 223.015197 204.722137 
L 223.964039 203.352651 
L 224.706931 201.8569 
L 225.574864 199.710401 
L 228.840645 194.154755 
L 229.907173 192.221934 
L 230.900147 190.405666 
L 232.430063 187.715257 
L 233.673119 185.28709 
L 234.945597 182.383003 
L 235.931216 180.595872 
L 238.917494 175.040227 
L 241.109392 171.495103 
L 243.801455 166.463942 
L 247.457071 159.626224 
L 249.545994 154.284257 
L 249.656325 152.671955 
L 249.450374 149.262809 
L 249.347399 147.660219 
L 249.450374 145.98964 
L 250.038803 143.299231 
L 250.443348 141.502388 
L 250.487481 139.695832 
L 250.127068 137.966977 
L 249.465085 135.39312 
L 248.692772 133.800243 
L 247.280542 131.517766 
L 247.015749 130.701902 
L 246.905419 128.914771 
L 247.243765 127.08879 
L 247.964591 125.233671 
L 250.274175 120.649292 
L 251.811446 117.997734 
L 253.628221 115.511291 
L 257.085242 111.412546 
L 259.909702 108.450182 
L 263.653582 104.370862 
L 264.477382 102.933387 
L 264.94077 101.427924 
L 264.970192 100.650911 
L 264.278788 94.891299 
L 264.742176 89.937839 
L 265.095233 87.529098 
L 265.757216 84.285067 
L 266.536884 81.905463 
L 267.228288 80.506839 
L 268.110932 79.224767 
L 269.192171 78.049535 
L 270.339607 77.029705 
L 272.41382 75.679644 
L 275.267701 73.824524 
L 275.885552 73.241764 
L 276.371006 72.600728 
L 276.650509 71.881991 
L 276.768195 71.07584 
L 276.724063 70.298826 
L 276.451915 69.541238 
L 275.422164 68.064913 
L 274.782247 67.550142 
L 274.024645 67.161635 
L 273.178778 66.899393 
L 272.303489 66.831404 
L 270.479359 67.190773 
L 269.618782 67.530716 
L 268.0668 68.647673 
L 264.999613 71.163254 
L 264.175813 71.474059 
L 263.263747 71.474059 
L 262.30755 71.26038 
L 261.395485 70.93015 
L 260.542263 70.49308 
L 259.799371 69.920032 
L 259.196231 69.240146 
L 258.887306 68.395144 
L 258.813752 67.404452 
L 258.887306 66.384622 
L 259.159454 65.461918 
L 260.100941 63.839903 
L 261.241022 62.334439 
L 265.558621 57.245002 
L 266.426554 55.632699 
L 267.581346 53.039417 
L 268.015312 52.291542 
L 268.942088 49.785674 
L 269.449608 47.328369 
L 269.464319 46.522218 
L 269.17746 45.055605 
L 268.603741 43.647268 
L 267.772585 42.384622 
L 264.73482 39.082315 
L 263.580028 38.111048 
L 262.256063 37.372885 
L 258.637224 35.527479 
L 256.798383 34.847592 
L 254.400534 34.216269 
L 252.642602 33.934601 
L 251.443678 33.8569 
L 249.067895 33.71121 
L 247.405583 33.283853 
L 245.324015 32.487414 
L 244.206 32.4 
L 243.051208 32.574828 
L 241.999391 33.050749 
L 241.153524 33.788911 
L 240.138484 35.061271 
L 239.682451 36.022825 
L 239.24113 37.508863 
L 239.057245 38.975476 
L 239.071956 39.771914 
L 239.285262 41.228814 
L 239.645675 42.141805 
L 240.167905 42.918818 
L 240.815177 43.608418 
L 242.0803 44.268879 
L 243.860298 44.997329 
L 246.22137 45.628652 
L 247.788062 46.483367 
L 249.045829 48.09567 
L 249.781366 49.455443 
L 250.105002 50.465561 
L 250.156489 51.543667 
L 250.090291 53.097693 
L 250.134423 54.777985 
L 250.656654 56.856495 
L 251.774669 61.139781 
L 251.862934 62.140186 
L 251.67905 64.043869 
L 251.443678 64.95686 
L 250.612522 66.70514 
L 249.494507 68.191178 
L 248.258805 69.47325 
L 246.780377 70.697046 
L 245.051867 71.794577 
L 242.323027 72.940672 
L 240.425343 73.571995 
L 239.432369 73.863375 
L 238.476172 74.261594 
L 236.703529 75.320275 
L 235.923861 75.961311 
L 235.232456 76.680049 
L 234.658738 77.447349 
L 233.857003 79.195629 
L 232.606592 82.58535 
L 231.620973 83.974261 
L 230.502958 85.139781 
L 229.870396 85.605989 
L 228.428745 86.149899 
L 223.47123 87.93703 
L 221.522058 88.888871 
L 219.197764 90.472036 
L 217.388344 92.385431 
L 216.18942 93.745204 
L 215.446528 94.93015 
L 212.879506 99.805909 
L 212.026284 102.311777 
L 209.834386 107.401214 
L 209.216535 108.984379 
L 208.694304 110.033347 
L 206.995215 112.578066 
L 205.538853 114.112667 
L 204.384061 115.015945 
L 200.198859 117.667503 
L 199.227951 118.706758 
L 197.903986 120.406475 
L 197.565639 121.028086 
L 197.116962 122.523837 
L 196.793326 125.117119 
L 196.866879 126.389478 
L 197.131672 128.934197 
L 197.109606 130.255119 
L 196.888945 131.624605 
L 196.432913 133.081505 
L 195.918037 134.2276 
L 195.086881 135.490247 
L 194.189527 136.500364 
L 193.078867 137.189964 
L 190.291184 138.238932 
L 186.488461 139.676406 
L 185.032099 140.540834 
L 183.612514 141.560664 
L 181.884003 143.07584 
L 179.111031 145.55257 
L 177.022108 147.980737 
L 175.595168 150.282639 
L 174.043186 153.293565 
L 173.32236 155.100121 
L 173.02079 156.799838 
L 172.638311 160.85002 
L 172.778063 162.45261 
L 173.373848 165.47325 
L 173.888723 167.687738 
L 174.050541 168.4259 
L 175.13178 171.407689 
L 175.786407 174.21465 
L 175.793762 176.234885 
L 175.484837 177.497531 
L 174.683102 179.284662 
L 172.520626 183.179442 
L 169.247489 187.404452 
L 167.430714 189.269284 
L 166.047905 190.551356 
L 162.70857 192.707568 
L 162.230472 192.96981 
L 161.619977 193.455443 
L 160.119482 195.436827 
L 159.707582 195.533954 
L 159.177996 195.116309 
L 159.126508 194.747228 
L 160.325432 189.988021 
L 160.354854 188.919628 
L 160.244523 187.171348 
L 160.148904 186.549737 
L 160.156259 185.510482 
L 159.994441 184.26726 
L 159.376591 181.848806 
L 158.788161 180.450182 
L 158.148245 179.653743 
L 156.603618 178.099717 
L 156.191718 178.031728 
L 155.52238 178.391097 
L 154.242547 179.867422 
L 153.19073 180.945528 
L 152.609656 181.868231 
L 151.388666 184.587778 
L 150.675195 186.345771 
L 148.615693 189.76463 
L 148.071397 189.900607 
L 147.218174 189.414974 
L 144.901235 187.987212 
L 140.539504 185.267665 
L 139.105208 184.053582 
L 136.957442 182.62582 
L 136.089509 181.771105 
L 133.927032 180.450182 
L 133.250339 180.411331 
L 132.639844 180.236503 
L 131.536539 179.692594 
L 130.896622 179.45949 
L 129.263732 178.517361 
L 126.726131 177.56552 
L 124.835803 176.040631 
L 123.195557 175.098503 
L 121.717128 174.127236 
L 120.297543 173.19482 
L 119.400189 172.650911 
L 118.51019 172.136139 
L 117.634902 171.611655 
L 116.634572 171.310563 
L 115.854904 170.844355 
L 114.582426 169.649696 
L 113.65565 168.950384 
L 113.081931 168.231647 
L 113.081931 168.231647 
" clip-path="url(#p0433ca2f60)" style="fill: none; stroke: #000000; stroke-width: 3"/>
   </g>
  </g>
 </g>
 <defs>
  <clipPath id="p0433ca2f60">
   <rect x="7.2" y="7.2" width="282.404776" height="554.4"/>
  </clipPath>
 </defs>
</svg>
