<?xml version="1.0" encoding="utf-8" standalone="no"?>
<!DOCTYPE svg PUBLIC "-//W3C//DTD SVG 1.1//EN"
  "http://www.w3.org/Graphics/SVG/1.1/DTD/svg11.dtd">
<svg xmlns:xlink="http://www.w3.org/1999/xlink" width="326.160412pt" height="568.8pt" viewBox="0 0 326.160412 568.8" xmlns="http://www.w3.org/2000/svg" version="1.1">
 <metadata>
  <rdf:RDF xmlns:dc="http://purl.org/dc/elements/1.1/" xmlns:cc="http://creativecommons.org/ns#" xmlns:rdf="http://www.w3.org/1999/02/22-rdf-syntax-ns#">
   <cc:Work>
    <dc:type rdf:resource="http://purl.org/dc/dcmitype/StillImage"/>
    <dc:date>2022-11-13T05:04:36.624315</dc:date>
    <dc:format>image/svg+xml</dc:format>
    <dc:creator>
     <cc:Agent>
      <dc:title>Matplotlib v3.6.2, https://matplotlib.org/</dc:title>
     </cc:Agent>
    </dc:creator>
   </cc:Work>
  </rdf:RDF>
 </metadata>
 <defs>
  <style type="text/css">*{stroke-linejoin: round; stroke-linecap: butt}</style>
 </defs>
 <g id="figure_1">
  <g id="patch_1">
   <path d="M 0 568.8 
L 326.160412 568.8 
L 326.160412 0 
L 0 0 
z
" style="fill: #ffffff"/>
  </g>
  <g id="axes_1">
   <g id="LineCollection_1">
    <path d="M 188.811139 171.757532 
L 191.195087 167.591697 
L 191.53769 167.535147 
L 192.444161 167.959271 
L 192.936654 168.392819 
L 194.88521 169.033717 
L 196.362686 169.523815 
L 198.803735 170.155288 
L 201.287608 170.84331 
L 202.829323 171.559607 
L 204.877805 173.058177 
L 206.005541 174.443647 
L 206.547996 175.159944 
L 211.273066 177.685835 
L 212.001098 177.949734 
L 212.664892 178.373857 
L 220.352053 181.050547 
L 226.162033 183.416213 
L 228.19624 184.556634 
L 229.523828 185.57453 
L 230.130521 186.168303 
L 231.136918 187.619748 
L 231.757887 189.127742 
L 233.064062 195.546143 
L 234.120422 197.930659 
L 235.669274 199.843927 
L 237.303777 201.342496 
L 238.460063 202.388668 
L 240.394344 204.603534 
L 244.826774 210.918261 
L 247.046558 213.7269 
L 247.224997 214.254698 
L 247.446262 215.479944 
L 247.367748 216.083142 
L 246.782468 217.487461 
L 245.055176 220.569425 
L 243.727589 223.16129 
L 240.929662 228.090547 
L 240.365794 228.458121 
L 240.365794 228.458121 
L 238.795529 228.70317 
L 237.767719 231.332735 
L 236.76846 233.189453 
L 236.161766 234.0377 
L 235.012618 234.857672 
L 233.442353 237.421262 
L 232.257517 240.267602 
L 231.686511 242.133745 
L 230.744352 244.065863 
L 227.275494 250.710463 
L 227.275494 250.710463 
L 226.29051 253.179804 
L 225.897943 253.886676 
L 225.897943 253.886676 
L 224.955784 255.884769 
L 224.955784 255.884769 
L 224.341954 257.147714 
L 223.613922 257.958261 
L 223.364107 258.052511 
L 223.035779 258.806508 
L 222.821652 259.53223 
L 222.821652 259.53223 
L 221.929456 260.634951 
L 220.673244 262.906367 
L 220.673244 262.906367 
L 219.424169 265.724432 
L 218.917402 266.544404 
L 216.918883 270.747938 
L 215.784009 272.87798 
L 215.013152 274.348275 
L 214.335083 275.61122 
L 211.637082 279.569705 
L 210.752024 281.285049 
L 210.102505 281.652623 
L 209.774177 281.784572 
L 207.732832 286.063506 
L 206.676472 287.448976 
L 205.691488 287.6469 
L 205.291784 288.344348 
L 204.856393 288.825021 
L 202.829323 293.914502 
L 198.946486 302.029397 
L 197.483285 305.365835 
L 197.483285 305.365835 
L 197.104993 305.874783 
L 196.112872 308.023675 
L 195.541866 309.409144 
L 195.541866 309.409144 
L 194.813834 311.426087 
L 193.721786 313.36763 
L 191.751817 316.327069 
L 191.038061 317.721964 
L 189.95315 318.947209 
L 189.674785 319.126283 
L 189.10378 320.06878 
L 188.432848 321.944348 
L 188.418573 321.727574 
L 188.411435 321.934923 
L 186.248752 325.40331 
L 185.599234 326.61913 
L 184.914027 327.373128 
L 183.11536 330.539916 
L 180.017655 337.250491 
L 177.326792 341.208976 
L 176.648723 342.594446 
L 176.191919 342.999719 
L 175.549538 344.064741 
L 174.164849 347.250379 
L 173.686632 348.023226 
L 173.686632 348.023226 
L 172.351907 350.737616 
L 169.461192 357.65554 
L 168.790261 358.861935 
L 168.212118 359.238934 
L 167.526911 359.436858 
L 166.998731 359.418008 
L 164.614783 358.287013 
L 163.97954 358.192763 
L 163.379984 358.239888 
L 163.379984 358.239888 
L 161.488528 360.002356 
L 161.203026 360.162581 
L 160.888973 360.077756 
L 160.218041 359.663058 
L 159.696999 359.672482 
L 159.061755 359.568808 
L 148.633768 355.619748 
L 142.331295 352.763983 
L 138.212919 350.586816 
L 133.559224 347.985526 
L 132.195949 347.222104 
L 132.195949 347.222104 
L 130.639959 346.515231 
L 129.22672 345.770659 
L 128.4059 345.205161 
L 127.93482 345.129762 
L 127.071175 344.705638 
L 126.29318 344.027041 
L 126.29318 344.027041 
L 125.429534 343.536942 
L 124.515925 343.122244 
L 121.732274 341.57655 
L 120.890041 341.190126 
L 120.554575 341.011052 
L 119.833681 341.42575 
L 119.141336 340.728303 
L 118.613156 341.086452 
L 118.327654 341.567125 
L 117.949363 342.208022 
L 117.92795 341.906424 
L 117.685273 342.113773 
L 117.37122 343.027994 
L 115.265637 347.938401 
L 114.030838 350.454867 
L 112.324959 355.666872 
L 111.518414 356.515119 
L 111.033059 358.993885 
L 110.683318 359.785582 
L 109.612683 361.387826 
L 108.342196 363.338794 
L 107.814016 365.280337 
L 107.607026 365.525386 
L 107.342936 366.119158 
L 106.68628 367.768527 
L 106.272301 368.673324 
L 105.951111 370.021094 
L 105.344417 371.472539 
L 103.331623 372.094586 
L 101.026188 372.688359 
L 100.369532 373.800505 
L 100.119717 374.356578 
L 99.484474 374.922076 
L 99.134733 376.071921 
L 98.26395 377.363142 
L 96.279706 385.063338 
L 95.037769 387.843703 
L 94.588102 388.333801 
L 93.681631 388.974698 
L 93.003562 389.88892 
L 92.004302 391.472314 
L 91.618874 392.876634 
L 91.19062 395.251725 
L 90.134259 397.721066 
L 89.89872 398.493913 
L 89.420503 399.078261 
L 88.649645 399.615484 
L 88.257079 400.049032 
L 87.700349 402.263899 
L 87.693211 403.244095 
L 87.529047 403.979243 
L 85.145099 407.617279 
L 84.616919 407.532454 
L 84.074464 407.881178 
L 83.639072 408.333576 
L 83.14658 408.6823 
L 81.940331 410.539018 
L 81.162336 412.047013 
L 80.983897 412.923534 
L 81.447839 417.136494 
L 80.748357 418.767013 
L 80.348654 419.681234 
L 79.235193 420.783955 
L 77.771991 422.800898 
L 76.28024 425.656662 
L 75.57362 426.891332 
L 74.331684 429.737672 
L 73.382387 431.179691 
L 71.105503 435.741374 
L 70.227582 436.448247 
L 69.677989 436.825245 
L 68.450327 438.25784 
L 67.272629 439.181487 
L 66.41612 440.039158 
L 65.502512 441.773352 
L 65.266972 442.640449 
L 63.611056 444.647966 
L 62.626072 445.958036 
L 61.569712 447.268107 
L 60.63469 448.860926 
L 60.299225 449.219074 
L 59.471267 451.170042 
L 58.664721 454.252006 
L 58.586208 454.676129 
L 57.872451 456.193548 
L 57.094456 457.10777 
L 55.809694 457.946592 
L 54.35363 460.340533 
L 53.24017 463.75237 
L 52.547826 465.23209 
L 52.24091 465.722188 
L 51.47719 466.44791 
L 51.070349 467.211332 
L 51.041799 467.409257 
L 48.165359 471.829565 
L 47.572941 473.761683 
L 46.809221 475.524151 
L 44.946315 479.124488 
L 44.753601 479.878485 
L 43.797167 481.499579 
L 42.897833 483.186648 
L 42.255452 484.08202 
L 41.049203 485.109341 
L 40.399685 486.362861 
L 39.871504 488.342104 
L 38.865107 489.859523 
L 37.80161 491.96129 
L 36.852313 493.686059 
L 36.074318 494.722805 
L 35.381974 495.853801 
L 34.361302 496.551248 
L 32.733936 499.095989 
L 31.185084 502.488976 
L 30.378539 503.629397 
L 29.065226 505.43899 
L 27.11667 508.370154 
L 26.495702 509.765049 
L 25.710569 512.30979 
L 24.589971 514.336157 
L 24.547146 514.83568 
L 24.639934 515.071304 
L 24.397257 516.796073 
L 24.411532 517.352146 
L 23.7406 518.228668 
L 23.39086 518.464292 
L 22.912643 519.359663 
L 21.370928 522.875175 
L 21.934796 523.233324 
L 22.812717 523.544348 
L 23.562161 523.101374 
L 24.290193 522.771501 
L 24.611384 522.837475 
L 24.882611 523.987321 
L 24.818373 530.273773 
L 25.189527 530.424572 
L 26.916818 530.462272 
L 28.865374 531.04662 
L 29.086639 531.291669 
L 29.193703 531.659243 
L 29.000988 531.970266 
L 29.322179 532.073941 
L 30.071623 531.979691 
L 30.721142 531.772342 
L 31.377798 531.762917 
L 31.927391 531.923142 
L 33.718921 533.958934 
L 34.910895 534.383058 
L 35.660339 535.12763 
L 36.145694 535.759102 
L 36.909414 536.183226 
L 37.823022 536.4 
L 38.09425 536.220926 
L 38.65098 535.429229 
L 39.129197 534.449032 
L 40.292621 532.422665 
L 40.813663 531.395344 
L 41.398944 530.490547 
L 41.584521 529.981599 
L 42.362516 528.841178 
L 43.690103 526.381262 
L 43.932781 525.778065 
L 44.11122 524.38317 
L 44.382448 523.666872 
L 46.980522 519.161739 
L 47.537253 517.927069 
L 49.157481 515.137279 
L 49.300232 514.684881 
L 50.15674 513.271136 
L 50.12819 512.27209 
L 50.499343 511.942216 
L 51.584254 511.367293 
L 52.219497 510.650996 
L 51.855481 510.302272 
L 52.290873 509.915849 
L 52.547826 509.755624 
L 52.669164 509.086452 
L 53.054593 508.11568 
L 55.424266 503.667097 
L 56.580552 502.036578 
L 57.793938 500.02906 
L 59.742494 495.98575 
L 60.57759 494.892454 
L 63.45403 491.424067 
L 63.661019 490.952819 
L 64.389051 490.142272 
L 65.117083 489.529649 
L 65.62385 489.058401 
L 65.659538 488.219579 
L 65.702364 487.606957 
L 66.587422 486.966059 
L 68.036348 485.184741 
L 69.82074 482.819074 
L 71.019852 481.659804 
L 71.341043 480.670182 
L 72.019111 479.614586 
L 72.740006 478.624965 
L 74.995477 475.231978 
L 76.223139 473.526059 
L 76.265965 473.14906 
L 76.922621 471.961515 
L 75.659271 471.386592 
L 75.609308 470.783394 
L 76.265965 470.085947 
L 78.442923 466.702384 
L 80.548505 462.376325 
L 82.454236 460.133184 
L 82.91104 459.473436 
L 83.010966 458.860813 
L 83.838924 457.682693 
L 85.616179 455.514951 
L 86.729639 454.120056 
L 87.536185 452.696886 
L 88.028677 451.971164 
L 88.87091 449.859972 
L 89.320577 449.049425 
L 89.45619 448.295428 
L 89.384815 447.777055 
L 89.791656 447.079607 
L 91.361921 444.930715 
L 92.225567 443.771445 
L 92.575308 443.403871 
L 92.903636 442.678149 
L 94.231224 440.274783 
L 94.695166 439.75641 
L 94.830779 439.398261 
L 95.394647 438.776213 
L 95.544536 438.210715 
L 95.887139 435.750799 
L 96.515245 434.242805 
L 98.371013 431.273941 
L 99.363135 429.520898 
L 100.498008 427.814979 
L 101.211765 426.476634 
L 101.825596 425.185414 
L 102.418014 423.460645 
L 102.410877 424.186367 
L 102.867681 424.205217 
L 103.524337 422.895147 
L 104.594973 420.623731 
L 105.258766 420.312707 
L 106.072449 420.284432 
L 106.736243 418.955512 
L 107.257285 416.834895 
L 106.71483 416.184572 
L 106.907545 415.279776 
L 106.914682 414.026255 
L 107.207323 412.244937 
L 107.385762 411.585189 
L 107.592751 410.06777 
L 115.465489 397.97554 
L 123.338227 385.88331 
L 124.680089 380.727854 
L 126.328868 376.797644 
L 126.799947 375.506424 
L 127.392365 375.204825 
L 128.241736 374.149229 
L 128.620027 372.858008 
L 128.798466 372.047461 
L 128.827016 369.851445 
L 128.93408 368.776999 
L 130.190292 367.777952 
L 131.489329 368.758149 
L 132.781229 369.380196 
L 133.252309 369.059748 
L 134.237293 368.032426 
L 135.136627 366.684656 
L 135.357891 366.015484 
L 135.686219 365.525386 
L 137.527712 361.472651 
L 139.048014 358.843086 
L 139.17649 358.183338 
L 139.14794 357.683815 
L 138.698273 356.684769 
L 137.185109 355.798822 
L 136.178712 354.82805 
L 135.707632 354.262553 
L 134.579896 352.22676 
L 133.794764 349.964769 
L 133.751938 348.428499 
L 133.880415 347.683927 
L 134.108817 347.033604 
L 134.879674 345.761234 
L 136.342876 344.027041 
L 139.055152 338.815035 
L 141.103634 333.763254 
L 141.4962 332.971557 
L 143.823047 329.003647 
L 145.122085 325.49756 
L 147.270493 320.596578 
L 149.161948 317.147041 
L 150.054144 315.997195 
L 151.517346 314.479776 
L 153.708579 312.764432 
L 154.343823 312.434558 
L 157.776993 311.539187 
L 159.097443 311.614586 
L 161.445703 311.897335 
L 162.523476 312.396858 
L 165.528392 314.781374 
L 166.320662 315.186648 
L 167.726763 315.478822 
L 169.197102 315.488247 
L 170.774505 315.016999 
L 173.044251 313.895428 
L 174.421802 312.915231 
L 175.635188 311.737111 
L 176.677273 310.530715 
L 177.483819 309.23007 
L 178.511628 307.194278 
L 179.717877 304.121739 
L 180.595798 302.736269 
L 181.573645 301.426199 
L 182.779894 300.266928 
L 186.277303 297.599663 
L 187.412176 296.949341 
L 188.953891 295.837195 
L 190.467055 294.376325 
L 191.387801 293.283029 
L 191.958807 292.029509 
L 192.551225 289.937167 
L 193.436283 286.921178 
L 193.65041 285.460309 
L 193.778887 282.774194 
L 193.743199 281.935372 
L 191.866018 277.496213 
L 191.666167 276.638541 
L 191.423489 272.227658 
L 191.601928 271.313436 
L 192.251447 269.654642 
L 193.200744 268.231473 
L 195.820231 264.895035 
L 196.405512 264.282412 
L 198.55392 262.746143 
L 201.473185 261.125049 
L 203.221889 259.673604 
L 204.242562 258.618008 
L 204.80643 257.543562 
L 204.920631 256.205217 
L 204.849255 251.643534 
L 205.170445 250.455989 
L 206.041229 248.325947 
L 206.776398 245.423058 
L 207.111864 244.395736 
L 207.525843 241.436297 
L 208.56079 238.06216 
L 209.317373 236.478766 
L 212.350839 230.324264 
L 213.243035 229.136718 
L 214.292258 228.033997 
L 216.069512 226.591978 
L 217.746841 225.168808 
L 218.760375 224.066087 
L 221.35845 219.853128 
L 223.14998 216.017167 
L 224.912959 211.841907 
L 228.074902 207.0446 
L 229.43104 205.630856 
L 231.679374 203.802412 
L 232.321755 203.387714 
L 234.577226 202.530042 
L 237.453666 201.63467 
L 239.081032 201.333072 
L 240.565646 201.417896 
L 241.957472 201.587546 
L 244.155843 201.973969 
L 246.939494 202.134194 
L 247.517637 202.134194 
L 249.080765 201.82317 
L 249.751696 201.578121 
L 251.586051 200.4377 
L 252.563898 199.551753 
L 253.82011 197.902384 
L 256.232608 193.434951 
L 257.231868 191.531108 
L 259.430239 187.770547 
L 260.843477 185.122132 
L 263.805568 179.278654 
L 265.290182 176.507714 
L 266.524981 174.528471 
L 268.073834 171.710407 
L 271.970946 164.783058 
L 273.062994 162.70014 
L 274.083666 160.570098 
L 275.946571 157.148836 
L 277.010069 154.933969 
L 277.952228 152.794502 
L 278.458995 151.248808 
L 278.715948 149.703114 
L 278.587472 146.479776 
L 278.537509 143.916185 
L 278.694535 142.125442 
L 279.636694 137.771108 
L 279.665244 136.951136 
L 279.372604 135.292342 
L 278.316244 132.832426 
L 277.559662 131.164208 
L 276.125011 128.845666 
L 275.903746 127.959719 
L 275.80382 126.187826 
L 276.075048 124.415933 
L 276.574677 122.596914 
L 277.35981 120.759046 
L 278.44472 119.043703 
L 280.172012 116.517812 
L 282.134843 113.341599 
L 283.441018 111.74878 
L 285.368161 109.807237 
L 290.764163 103.728135 
L 292.170264 101.598093 
L 292.59138 100.87237 
L 293.03391 99.4869 
L 293.169523 97.573633 
L 293.005359 92.644376 
L 293.38365 87.592595 
L 294.083132 83.294811 
L 294.668413 80.665245 
L 295.446408 79.072426 
L 296.367154 77.875456 
L 297.402101 76.791585 
L 298.565525 75.801964 
L 300.628282 74.341094 
L 303.504722 72.58805 
L 303.961526 72.163927 
L 304.496844 71.475905 
L 304.746659 70.797307 
L 304.789484 70.06216 
L 304.668146 69.327013 
L 304.339818 68.591865 
L 303.147844 67.262945 
L 302.398399 66.753997 
L 301.570441 66.424123 
L 300.649695 66.292174 
L 299.736086 66.386424 
L 298.87244 66.603198 
L 297.195112 67.470295 
L 295.153767 68.818065 
L 293.662016 70.128135 
L 292.85547 70.514558 
L 291.984687 70.655933 
L 291.092491 70.589958 
L 290.143194 70.335484 
L 289.300961 69.939635 
L 288.515829 69.374137 
L 287.887723 68.63899 
L 287.488019 67.771893 
L 287.245342 66.848247 
L 287.488019 65.114053 
L 287.86631 64.001907 
L 289.079697 61.730491 
L 291.24238 59.600449 
L 292.241639 58.243254 
L 293.333687 56.71641 
L 295.589159 53.059523 
L 297.252212 48.987938 
L 297.509165 46.386648 
L 297.444927 44.680729 
L 297.223662 43.889032 
L 296.881059 43.16331 
L 293.504989 39.817447 
L 292.370116 38.950351 
L 287.395231 35.915512 
L 286.231807 35.472539 
L 284.590166 34.746816 
L 282.827187 34.313268 
L 275.903746 33.050323 
L 274.533333 32.616774 
L 273.733925 32.447125 
L 272.720391 32.41885 
L 271.813919 32.682749 
L 270.964549 33.106872 
L 269.958152 34.068219 
L 269.537035 34.690266 
L 268.873241 36.160561 
L 268.573463 37.055933 
L 268.359336 37.82878 
L 268.180897 38.601627 
L 268.20231 39.855147 
L 268.459262 41.297167 
L 269.265808 42.475288 
L 270.650496 43.738233 
L 271.863882 44.294306 
L 273.898089 44.982328 
L 274.840248 45.368752 
L 275.653931 45.491276 
L 276.83163 46.085049 
L 277.481149 46.820196 
L 278.337657 48.57324 
L 278.587472 49.449762 
L 278.687398 51.15568 
L 278.765911 54.181094 
L 279.329779 55.952987 
L 280.150599 57.847405 
L 280.364726 59.33655 
L 280.2077 61.758766 
L 279.658107 63.219635 
L 278.244868 65.500477 
L 277.052894 66.904797 
L 274.676084 69.213913 
L 272.220761 70.627658 
L 270.693321 71.29683 
L 268.188035 72.211052 
L 267.224463 72.597475 
L 266.453606 73.040449 
L 265.211669 74.237419 
L 264.847653 75.000842 
L 263.984007 76.452286 
L 263.805568 77.036634 
L 263.684229 77.99798 
L 262.984748 79.5531 
L 261.39307 82.276914 
L 260.322435 83.285386 
L 259.351725 83.916858 
L 256.982053 84.915905 
L 255.076322 85.500252 
L 253.84866 85.933801 
L 249.416231 88.346592 
L 248.402696 89.175989 
L 245.583356 92.323927 
L 244.39852 94.472819 
L 243.34216 96.357812 
L 242.235837 98.666928 
L 241.450704 100.608471 
L 240.194492 103.992034 
L 238.659915 107.413296 
L 236.668534 110.240785 
L 234.584364 112.154053 
L 233.456628 113.068275 
L 230.444574 115.009818 
L 229.645167 115.867489 
L 228.981373 116.979635 
L 228.40323 117.997532 
L 227.982113 119.175652 
L 227.261219 122.662889 
L 227.275494 123.74676 
L 227.532447 126.866424 
L 227.439658 127.94087 
L 227.246944 129.260365 
L 226.861515 130.42906 
L 226.333335 131.588331 
L 225.605303 132.615652 
L 224.627456 133.746648 
L 223.578234 134.51007 
L 221.529752 135.320617 
L 218.567661 136.423338 
L 217.568401 136.696662 
L 214.991739 137.893633 
L 213.571363 138.751304 
L 212.357977 139.656101 
L 208.717817 143.096213 
L 207.347404 144.820982 
L 205.755726 147.450547 
L 205.013419 148.892567 
L 203.971334 151.286508 
L 203.100551 154.72662 
L 203.04345 157.32791 
L 203.229027 158.911304 
L 203.393191 159.655877 
L 204.428138 162.483366 
L 206.062642 167.893296 
L 206.39097 168.986592 
L 206.505171 170.617111 
L 206.540859 172.294755 
L 205.89134 174.500196 
L 205.09907 176.149565 
L 203.685831 178.147658 
L 202.286868 180.437924 
L 200.69519 182.539691 
L 199.852957 183.350238 
L 197.568935 185.386031 
L 196.633914 186.187153 
L 195.513316 186.8469 
L 193.307807 188.034446 
L 192.308548 188.779018 
L 191.894569 189.259691 
L 191.2736 190.428387 
L 190.866759 190.758261 
L 190.42423 190.918485 
L 190.174415 190.824236 
L 190.095902 190.522637 
L 190.317166 189.56129 
L 190.709732 188.17582 
L 191.259325 186.9977 
L 191.344976 186.158878 
L 191.459177 179.693352 
L 191.252188 178.355007 
L 190.859621 177.355961 
L 190.281478 176.338065 
L 188.754039 174.519046 
L 188.018869 174.038373 
L 187.647716 173.972398 
L 186.969647 174.170323 
L 186.056038 174.585021 
L 185.534995 175.263619 
L 184.985403 176.224965 
L 184.271646 177.930884 
L 182.537217 180.532174 
L 181.509407 182.143843 
L 180.388809 184.32101 
L 179.853491 184.688583 
L 178.847094 184.877083 
L 178.333189 184.782833 
L 176.8914 184.019411 
L 169.168552 179.646227 
L 168.090779 179.240954 
L 167.112932 179.033604 
L 166.077985 178.534081 
L 165.53553 178.128808 
L 164.343556 177.007237 
L 160.36793 174.434222 
L 158.554988 173.783899 
L 156.37803 172.370154 
L 153.658616 170.588836 
L 151.938462 169.712314 
L 149.732954 168.760393 
L 148.890721 168.402244 
L 147.741572 167.789621 
L 145.978593 166.291052 
L 145.564614 166.074278 
L 144.965058 166.074278 
L 144.386915 165.744404 
L 144.408328 165.734979 
" clip-path="url(#p3b702eb8ac)" style="fill: none; stroke: #000000; stroke-width: 3"/>
   </g>
  </g>
 </g>
 <defs>
  <clipPath id="p3b702eb8ac">
   <rect x="7.2" y="7.2" width="311.760412" height="554.4"/>
  </clipPath>
 </defs>
</svg>
