<?xml version="1.0" encoding="utf-8" standalone="no"?>
<!DOCTYPE svg PUBLIC "-//W3C//DTD SVG 1.1//EN"
  "http://www.w3.org/Graphics/SVG/1.1/DTD/svg11.dtd">
<svg xmlns:xlink="http://www.w3.org/1999/xlink" width="506.371153pt" height="568.8pt" viewBox="0 0 506.371153 568.8" xmlns="http://www.w3.org/2000/svg" version="1.1">
 <metadata>
  <rdf:RDF xmlns:dc="http://purl.org/dc/elements/1.1/" xmlns:cc="http://creativecommons.org/ns#" xmlns:rdf="http://www.w3.org/1999/02/22-rdf-syntax-ns#">
   <cc:Work>
    <dc:type rdf:resource="http://purl.org/dc/dcmitype/StillImage"/>
    <dc:date>2022-11-16T05:02:51.870548</dc:date>
    <dc:format>image/svg+xml</dc:format>
    <dc:creator>
     <cc:Agent>
      <dc:title>Matplotlib v3.6.2, https://matplotlib.org/</dc:title>
     </cc:Agent>
    </dc:creator>
   </cc:Work>
  </rdf:RDF>
 </metadata>
 <defs>
  <style type="text/css">*{stroke-linejoin: round; stroke-linecap: butt}</style>
 </defs>
 <g id="figure_1">
  <g id="patch_1">
   <path d="M 0 568.8 
L 506.371153 568.8 
L 506.371153 0 
L 0 0 
z
" style="fill: #ffffff"/>
  </g>
  <g id="axes_1">
   <g id="LineCollection_1">
    <path d="M 151.377352 451.513178 
L 153.610767 451.37533 
L 156.011166 450.879077 
L 159.413471 450.686089 
L 160.394503 450.796368 
L 161.187678 451.099633 
L 165.04919 453.580898 
L 166.781652 455.262644 
L 168.347129 456.834112 
L 168.931574 457.495783 
L 169.808242 458.129883 
L 170.810147 458.543428 
L 172.939197 458.984541 
L 176.007533 459.177529 
L 177.614756 459.78406 
L 179.618568 459.977047 
L 182.770396 459.977047 
L 183.855794 460.225174 
L 184.857699 460.776566 
L 186.110081 461.245249 
L 187.13286 461.87935 
L 188.0304 462.62373 
L 188.969687 463.616235 
L 190.493418 465.683956 
L 192.956436 467.944664 
L 193.624374 468.606334 
L 194.125326 469.378283 
L 194.855883 470.095093 
L 195.73255 470.481068 
L 196.588344 470.508637 
L 197.151916 470.012384 
L 197.673742 468.854461 
L 198.821759 467.007297 
L 199.969776 465.546108 
L 200.909062 463.754083 
L 201.389142 462.734008 
L 202.641524 460.859275 
L 203.413827 459.398085 
L 203.998272 458.460719 
L 205.02105 456.227581 
L 206.690893 453.001936 
L 207.045734 451.981861 
L 207.546687 451.209912 
L 207.880656 450.327684 
L 207.859783 449.831432 
L 207.692799 449.417887 
L 208.485974 448.066977 
L 208.966054 447.12961 
L 209.341768 446.054395 
L 209.717483 443.959105 
L 210.197563 440.926448 
L 210.281055 439.933942 
L 210.093197 438.00407 
L 210.134944 436.846146 
L 206.565655 423.309469 
L 205.563749 421.214179 
L 204.81232 420.331951 
L 203.142477 418.843192 
L 202.516286 417.878256 
L 201.869222 415.700257 
L 201.910968 414.376916 
L 201.639619 411.923221 
L 201.368269 410.765297 
L 201.243031 409.634943 
L 200.804697 407.319096 
L 200.512475 405.141097 
L 200.470729 402.935529 
L 200.261998 400.536973 
L 200.637713 395.546874 
L 200.971682 393.69971 
L 201.201285 391.769838 
L 201.99446 389.012877 
L 201.973587 387.827384 
L 202.599778 385.539106 
L 202.725016 383.443816 
L 203.017239 381.210678 
L 203.706049 377.792046 
L 204.12351 376.689262 
L 205.188034 374.373415 
L 205.793352 373.132783 
L 206.46129 372.085138 
L 207.484068 371.175341 
L 208.590339 370.51367 
L 209.613118 369.741721 
L 210.239309 369.08005 
L 210.740262 368.363241 
L 211.408199 367.72914 
L 211.992644 367.01233 
L 213.391137 362.79418 
L 215.47844 359.926941 
L 216.835188 358.327903 
L 218.838999 355.901778 
L 221.11416 353.310235 
L 221.615112 352.290159 
L 223.18059 350.553274 
L 225.434878 347.906592 
L 227.188212 346.031858 
L 228.607579 344.184694 
L 230.152183 342.475379 
L 231.947264 341.345025 
L 232.886551 340.655785 
L 236.017506 339.029178 
L 238.334413 337.016596 
L 239.294572 336.354926 
L 241.361003 335.886243 
L 243.281322 335.527838 
L 244.116243 335.086724 
L 246.036562 334.64561 
L 248.019501 333.9288 
L 250.023312 333.26713 
L 250.983471 333.074143 
L 253.843077 331.998928 
L 254.844983 331.585384 
L 257.892446 329.848498 
L 259.896257 328.966271 
L 260.856417 328.414879 
L 266.596501 324.196729 
L 267.911502 322.818248 
L 269.038646 321.27435 
L 270.395393 318.048706 
L 270.833727 316.229112 
L 271.480791 313.058607 
L 271.501664 310.549773 
L 271.355553 309.888102 
L 271.021584 309.061014 
L 270.416266 306.111066 
L 270.353647 304.126054 
L 270.040552 299.604639 
L 270.103171 293.511755 
L 270.458012 291.278617 
L 270.666743 290.093124 
L 272.190474 285.654417 
L 274.194285 281.188141 
L 274.820476 280.278344 
L 277.11651 278.100345 
L 277.909685 277.576522 
L 278.681988 276.859712 
L 279.809132 276.005054 
L 281.52072 274.157891 
L 282.376515 273.358372 
L 284.33858 272.007461 
L 286.175407 271.4285 
L 288.993267 269.746753 
L 290.809221 268.147716 
L 291.706761 267.265489 
L 295.777003 264.067414 
L 296.65367 263.516022 
L 297.300734 262.881921 
L 299.909863 259.490859 
L 301.203992 258.02967 
L 301.976294 257.285291 
L 302.49812 256.568481 
L 303.18693 255.107292 
L 306.90233 246.974257 
L 307.278044 244.934106 
L 307.445029 242.866386 
L 307.716378 241.763602 
L 308.238204 240.771096 
L 309.177491 237.931426 
L 309.553205 237.021629 
L 310.367254 235.505301 
L 310.534238 234.567934 
L 310.909952 233.41001 
L 311.703128 232.196948 
L 312.099715 231.066594 
L 314.81321 226.683026 
L 315.856862 224.863432 
L 317.380593 222.520015 
L 318.465991 220.231738 
L 322.473613 212.539817 
L 323.20417 210.747793 
L 325.333219 206.888048 
L 326.64822 204.930606 
L 327.524888 204.158657 
L 328.526793 203.745112 
L 329.424334 203.000733 
L 330.885446 201.484405 
L 332.409178 199.912937 
L 338.420611 195.887774 
L 339.005056 195.391521 
L 341.948154 193.682206 
L 345.726173 191.25608 
L 347.667366 190.870106 
L 349.441573 190.787397 
L 351.424512 190.015448 
L 353.553561 188.967803 
L 355.703484 187.616892 
L 356.747135 187.01036 
L 357.81166 186.541677 
L 361.485314 185.797298 
L 363.468252 184.694513 
L 364.386666 183.977704 
L 365.24246 183.067907 
L 367.016668 181.854844 
L 367.621986 181.689426 
L 369.103972 180.090389 
L 370.460719 178.711909 
L 370.961672 177.829681 
L 372.715007 175.706821 
L 372.819372 175.12786 
L 372.777626 174.493759 
L 373.132467 173.446113 
L 373.675166 171.075127 
L 374.781437 167.628926 
L 375.49112 166.388294 
L 375.887708 164.927105 
L 376.910486 162.307992 
L 378.100249 160.240271 
L 379.248266 158.558525 
L 381.711284 155.884273 
L 384.36216 153.733844 
L 385.134462 153.154882 
L 386.825178 151.610984 
L 387.639226 151.004453 
L 388.682878 150.453061 
L 389.643037 150.122225 
L 391.563356 149.901668 
L 392.460897 150.067086 
L 393.483676 149.901668 
L 394.485581 149.874099 
L 395.403995 149.653542 
L 398.53495 148.41291 
L 403.544478 146.510607 
L 404.400272 146.097063 
L 406.278845 144.773721 
L 407.030275 143.919064 
L 409.347181 141.989191 
L 412.519883 139.893901 
L 413.229566 139.535496 
L 413.855757 139.066813 
L 415.692584 137.13694 
L 416.193537 135.951447 
L 416.506632 135.455194 
L 418.865285 132.973929 
L 419.595841 132.008993 
L 420.013302 131.209474 
L 420.931715 130.244538 
L 421.51616 129.693146 
L 422.058859 128.976336 
L 422.559812 128.066539 
L 422.935527 127.046464 
L 423.186003 124.399781 
L 422.580685 121.201707 
L 422.601558 120.402188 
L 422.351082 119.795657 
L 422.184097 119.051277 
L 422.20497 116.487304 
L 421.850129 115.549937 
L 421.578779 114.502292 
L 421.432668 113.26166 
L 419.178381 105.569739 
L 418.698301 104.659942 
L 417.946872 103.915563 
L 418.197348 99.973109 
L 418.28084 95.837668 
L 418.197348 92.997998 
L 418.301713 90.516733 
L 418.092983 88.531721 
L 418.197348 87.566785 
L 417.905125 86.932684 
L 417.278934 83.238357 
L 416.986712 82.438838 
L 415.73433 81.060358 
L 415.04552 80.536535 
L 414.607186 79.792156 
L 412.519883 77.145473 
L 411.789326 76.787069 
L 409.451547 75.188031 
L 406.090988 74.085247 
L 405.777893 73.726842 
L 402.813922 72.899754 
L 401.77027 72.817045 
L 400.643126 72.844615 
L 398.53495 72.320792 
L 397.679155 71.989957 
L 397.011218 71.576413 
L 396.19717 71.355856 
L 392.6905 69.591401 
L 390.916292 68.433477 
L 390.102244 67.716668 
L 387.743591 64.04991 
L 387.347003 63.057404 
L 386.846051 62.175176 
L 386.512082 61.182671 
L 386.407717 60.135025 
L 386.512082 54.510825 
L 388.536766 46.763766 
L 389.810021 44.723615 
L 391.020657 43.372704 
L 393.817644 39.568098 
L 394.652565 38.355035 
L 396.447646 36.700859 
L 398.2636 35.653214 
L 399.22376 35.294809 
L 400.163046 34.633138 
L 401.958127 33.861189 
L 403.753208 33.227088 
L 404.671622 33.061671 
L 405.631781 32.592987 
L 406.571068 32.4 
L 415.421234 32.923823 
L 417.550284 33.613063 
L 418.698301 33.668202 
L 419.783699 33.943898 
L 420.869096 34.081746 
L 423.64521 35.101822 
L 425.71164 35.294809 
L 427.694578 35.92891 
L 428.612992 36.287315 
L 431.618709 36.976555 
L 433.685139 37.114403 
L 435.668078 37.748504 
L 438.423318 38.961567 
L 440.489748 39.761085 
L 442.284829 40.670882 
L 445.394911 41.580679 
L 446.41769 42.104502 
L 447.461342 42.462907 
L 448.504994 43.014299 
L 449.673883 43.979235 
L 450.968012 44.806324 
L 451.969917 45.798829 
L 453.952855 47.315158 
L 454.725158 48.114676 
L 456.040159 49.134752 
L 457.543017 51.202473 
L 458.210954 52.222548 
L 459.108495 52.939358 
L 461.905481 54.621104 
L 462.573419 55.172496 
L 463.554451 55.834167 
L 465.182548 57.350495 
L 466.351438 59.252798 
L 466.727152 60.135025 
L 467.290724 61.099962 
L 468.063027 61.89948 
L 468.897948 62.588721 
L 469.691123 63.553657 
L 470.526045 64.353175 
L 471.569696 66.062491 
L 472.467237 66.641453 
L 473.218666 67.330693 
L 475.055493 69.949806 
L 475.660811 70.914742 
L 476.349621 71.74183 
L 476.808828 72.568919 
L 475.619065 72.899754 
L 475.097239 72.375931 
L 473.469142 70.115223 
L 472.070649 68.98487 
L 471.214855 68.764313 
L 470.609537 69.067578 
L 470.192076 69.425983 
L 470.045965 70.418489 
L 470.442552 70.969881 
L 470.943505 71.466134 
L 471.465331 72.954893 
L 471.486204 73.809551 
L 471.340093 74.55393 
L 469.273662 80.122991 
L 468.730964 81.060358 
L 468.125646 81.722028 
L 467.290724 82.962661 
L 466.142707 84.120584 
L 461.655005 87.621924 
L 460.820084 87.95276 
L 459.818178 88.642 
L 459.505083 89.055544 
L 459.171114 89.276101 
L 458.774526 89.33124 
L 457.83524 89.30367 
L 456.895953 89.055544 
L 456.123651 88.61443 
L 455.601825 87.95276 
L 455.01738 87.401368 
L 454.32857 86.987823 
L 450.696662 82.935091 
L 450.007852 82.549117 
L 449.381661 82.411269 
L 445.812372 82.356129 
L 444.121656 82.190712 
L 443.453719 82.521547 
L 442.931893 83.155648 
L 441.679511 83.817319 
L 440.969828 84.506559 
L 440.15578 85.967748 
L 439.88443 86.712127 
L 439.341732 87.456507 
L 439.174747 87.980329 
L 438.318953 89.441519 
L 437.818 89.717215 
L 437.212682 89.827493 
L 435.835062 90.461594 
L 433.810377 91.233543 
L 433.288552 91.536809 
L 432.03617 91.922783 
L 429.42704 92.997998 
L 427.945055 94.211061 
L 426.296085 96.251212 
L 425.669894 96.802604 
L 425.127195 97.436705 
L 423.686956 98.704907 
L 421.829256 99.669843 
L 421.203065 100.138526 
L 420.869096 100.772627 
L 421.161319 102.426804 
L 421.161319 103.502018 
L 421.432668 104.356676 
L 422.371955 106.20384 
L 423.624337 108.381839 
L 425.085449 110.284142 
L 425.586402 111.304217 
L 425.920371 113.096242 
L 426.546562 115.026115 
L 426.609181 115.963481 
L 427.214499 117.783075 
L 427.548467 118.85829 
L 427.631959 119.850796 
L 428.153785 122.111504 
L 428.132912 122.883453 
L 427.611086 124.592768 
L 426.838784 126.081527 
L 426.149974 129.252032 
L 426.149974 130.713221 
L 425.419418 132.284689 
L 424.396639 133.911296 
L 423.332114 135.482764 
L 422.68505 136.172004 
L 420.931715 137.522915 
L 417.508538 141.079394 
L 413.918376 144.056912 
L 410.996151 146.014354 
L 409.702023 146.317619 
L 407.510354 147.392834 
L 406.237099 148.716175 
L 403.690589 150.260073 
L 402.813922 150.783896 
L 401.707651 151.142301 
L 400.455269 151.390427 
L 399.244633 151.417997 
L 398.200981 151.555845 
L 395.696217 151.473136 
L 394.903042 151.776402 
L 392.940977 152.934325 
L 391.062404 153.733844 
L 388.119306 154.588502 
L 387.347003 154.809059 
L 386.825178 155.195033 
L 385.823272 156.711362 
L 382.003507 160.708955 
L 380.792871 162.500979 
L 380.041442 164.513561 
L 378.434218 167.408369 
L 377.724535 171.019988 
L 376.826994 172.949861 
L 375.616358 175.07272 
L 375.136278 176.175505 
L 374.844056 177.360998 
L 374.927548 179.676845 
L 375.157152 180.614211 
L 375.157152 181.082895 
L 376.493026 182.433806 
L 377.077471 183.205755 
L 377.787154 183.812286 
L 379.352631 185.356184 
L 380.876363 186.817373 
L 381.794776 187.341196 
L 382.608825 187.975297 
L 383.548111 188.554259 
L 384.550017 188.885094 
L 386.365971 189.767321 
L 388.432401 191.586915 
L 389.058592 192.221016 
L 389.893514 192.6897 
L 397.032091 195.308812 
L 397.929632 195.749926 
L 400.663999 196.604584 
L 401.331936 196.935419 
L 402.145985 197.183546 
L 404.254161 197.404103 
L 405.944877 197.707368 
L 407.531227 197.707368 
L 409.305435 197.404103 
L 410.996151 196.714862 
L 414.210598 195.860205 
L 417.884252 194.536863 
L 419.282746 193.627066 
L 420.869096 192.414004 
L 423.937432 190.53927 
L 426.6718 188.140714 
L 429.072199 186.431399 
L 433.392917 182.654362 
L 434.039981 182.351097 
L 435.250617 181.468869 
L 436.732602 180.062819 
L 438.652921 178.684339 
L 439.383478 178.050238 
L 440.218399 177.719403 
L 441.512527 176.175505 
L 442.764909 175.431125 
L 443.578957 175.07272 
L 444.393006 174.934872 
L 445.353165 174.576467 
L 446.375944 174.052645 
L 447.1065 173.832088 
L 447.857929 173.72181 
L 449.65301 174.38348 
L 450.634043 174.797024 
L 452.074282 175.982517 
L 453.785871 176.726897 
L 456.415873 177.443707 
L 457.313414 177.802111 
L 458.210954 178.325934 
L 459.150241 178.684339 
L 460.778338 179.621706 
L 461.508894 180.255807 
L 462.135085 181.027756 
L 462.656911 181.937553 
L 462.990879 182.902489 
L 463.13699 183.812286 
L 463.032625 186.679525 
L 462.656911 191.752333 
L 462.385561 193.792484 
L 461.801116 196.632154 
L 461.821989 197.59709 
L 462.197704 199.775089 
L 462.197704 200.767595 
L 462.385561 201.732531 
L 462.114212 205.040884 
L 461.842862 206.860478 
L 461.696751 207.770275 
L 461.696751 208.762781 
L 461.383656 210.747793 
L 461.321036 211.574881 
L 461.091433 212.484678 
L 460.486115 214.386981 
L 460.277385 215.462196 
L 460.193893 217.033663 
L 460.110401 218.053739 
L 460.277385 218.963536 
L 460.277385 219.956042 
L 460.465242 221.775636 
L 460.089527 226.517608 
L 460.277385 227.427406 
L 460.569607 230.184366 
L 461.112306 232.279656 
L 461.174925 233.382441 
L 461.112306 234.264668 
L 460.653099 235.891275 
L 460.319131 237.600591 
L 459.00413 240.247273 
L 458.419685 241.019222 
L 457.438652 242.535551 
L 455.810555 244.71355 
L 454.495554 246.229878 
L 450.863646 249.483092 
L 449.527772 250.889142 
L 446.981262 252.653597 
L 446.041975 253.260128 
L 443.725069 255.355418 
L 441.763003 257.31286 
L 438.402445 262.440807 
L 436.502999 265.05992 
L 435.835062 265.831869 
L 435.396728 266.603818 
L 434.707918 267.100071 
L 433.121567 268.754248 
L 432.72498 269.415918 
L 431.869185 271.566348 
L 431.451725 272.338297 
L 429.844501 273.468651 
L 429.322675 274.18546 
L 429.072199 275.122827 
L 428.153785 276.777003 
L 427.277118 278.513889 
L 426.838784 279.285838 
L 426.170847 280.085356 
L 425.356799 280.774597 
L 423.37386 282.235786 
L 422.664177 283.145583 
L 421.557906 285.819835 
L 420.40989 289.348745 
L 419.888064 290.175833 
L 419.220127 290.920212 
L 418.719174 291.664592 
L 417.466792 292.905224 
L 416.610997 294.504261 
L 416.318775 295.331349 
L 415.442107 297.178513 
L 415.379488 297.922893 
L 413.354804 303.960637 
L 412.832978 305.83537 
L 411.371866 310.411925 
L 411.05877 314.051113 
L 411.497104 315.595011 
L 411.643215 316.477239 
L 411.851946 319.123921 
L 412.144168 319.92344 
L 414.210598 323.562628 
L 415.442107 324.637843 
L 415.901314 325.52007 
L 419.136634 330.317182 
L 420.159413 332.136776 
L 421.244811 333.322269 
L 422.580685 337.099305 
L 422.058859 338.725912 
L 421.641399 339.497861 
L 421.390922 340.380089 
L 421.223938 344.48796 
L 421.0987 347.603326 
L 420.702112 348.650971 
L 420.34727 350.222439 
L 419.804572 352.152311 
L 418.719174 361.498408 
L 418.740047 363.566129 
L 418.656555 365.496001 
L 418.990523 369.576303 
L 418.927904 371.588885 
L 419.094888 372.746808 
L 419.971556 374.842098 
L 420.242905 376.909819 
L 419.721079 379.473792 
L 419.700206 380.521438 
L 419.241 383.416246 
L 419.44973 386.366194 
L 419.366238 388.10308 
L 419.44973 388.930168 
L 419.387111 389.729687 
L 419.157508 390.474066 
L 415.796949 395.409026 
L 414.982901 397.035633 
L 414.064487 398.551961 
L 413.6679 399.35148 
L 413.250439 400.867808 
L 412.373771 402.714972 
L 411.705834 404.534566 
L 410.64131 406.684995 
L 409.514166 409.083551 
L 408.804483 410.048488 
L 406.758925 413.853093 
L 405.318686 417.271725 
L 404.775987 419.339445 
L 404.462891 420.194103 
L 404.31678 422.013697 
L 404.10805 422.840786 
L 402.646937 425.432329 
L 401.999873 426.369695 
L 400.60138 429.126656 
L 399.891697 429.953744 
L 396.990345 434.778426 
L 395.299629 436.515311 
L 393.608914 437.9765 
L 392.982723 438.610601 
L 392.732246 439.38255 
L 391.292007 441.091866 
L 390.916292 441.863815 
L 389.225577 444.152092 
L 386.658193 448.397812 
L 385.092716 450.768798 
L 383.19327 454.049582 
L 382.525333 454.738822 
L 380.730252 457.109808 
L 380.271045 457.936896 
L 379.269139 460.804135 
L 378.935171 461.686363 
L 377.891519 463.423248 
L 373.487309 470.867042 
L 372.339292 473.265598 
L 371.400005 476.959926 
L 371.400005 477.952431 
L 371.149529 478.917368 
L 370.627703 479.744456 
L 369.855401 480.516405 
L 368.790876 482.666834 
L 367.726351 484.321011 
L 367.121033 485.09296 
L 365.618175 486.747136 
L 364.428412 488.346174 
L 363.697856 489.255971 
L 362.842061 490.910147 
L 362.132378 492.84002 
L 361.819283 493.804956 
L 361.026107 495.59698 
L 360.379043 497.444144 
L 359.523249 501.827712 
L 359.022296 502.709939 
L 358.312613 503.537028 
L 357.415072 505.356622 
L 356.64277 507.038368 
L 355.494753 510.815404 
L 355.390388 511.752771 
L 354.597213 513.489656 
L 352.989989 515.970921 
L 352.196814 518.507325 
L 352.113322 519.472261 
L 352.468163 520.657754 
L 349.921653 525.261878 
L 349.358081 526.998764 
L 348.898875 528.901067 
L 348.105699 530.830939 
L 346.728079 532.540255 
L 345.851412 533.367343 
L 344.912125 533.973875 
L 343.179663 534.332279 
L 334.851323 535.214507 
L 332.263066 535.242076 
L 331.365526 535.131798 
L 329.173857 535.02152 
L 327.712745 534.96638 
L 326.585601 534.745824 
L 325.187108 534.607975 
L 322.744963 534.056583 
L 321.576073 533.753318 
L 319.634881 532.815951 
L 315.606385 531.933724 
L 314.33313 531.49261 
L 310.742968 530.582813 
L 309.114871 530.114129 
L 306.860584 530.389826 
L 304.439312 530.279547 
L 300.285578 529.783294 
L 293.668826 531.051496 
L 292.72954 531.382331 
L 289.389854 533.918735 
L 288.429695 534.414988 
L 283.16969 535.931317 
L 281.31199 536.4 
L 280.41445 536.317291 
L 279.600401 536.096734 
L 278.890718 535.765899 
L 278.222781 535.159368 
L 277.366987 534.635545 
L 276.114604 534.249571 
L 274.820476 534.001444 
L 273.442856 533.5879 
L 272.524443 533.146786 
L 272.106982 532.512685 
L 271.230315 531.602888 
L 270.604123 531.189344 
L 267.55666 530.417395 
L 263.924753 529.066484 
L 262.67237 529.066484 
L 260.522448 528.515092 
L 259.562288 528.156687 
L 258.435145 527.99127 
L 257.224509 527.605295 
L 256.055619 527.081473 
L 254.949348 526.778207 
L 254.260538 526.281954 
L 253.696966 525.702992 
L 252.674187 525.013752 
L 250.816487 524.572638 
L 249.877201 524.131525 
L 248.687438 522.642766 
L 248.040374 520.90588 
L 247.581167 518.893299 
L 246.266166 514.564871 
L 245.139022 512.965833 
L 244.011878 511.366796 
L 243.009972 508.857962 
L 240.943542 506.404267 
L 240.400843 505.770166 
L 238.918858 504.915508 
L 232.322979 502.323965 
L 230.465279 502.020699 
L 228.419721 501.800142 
L 225.685354 501.882851 
L 224.746067 502.020699 
L 219.46519 502.020699 
L 217.523998 501.386598 
L 215.812409 500.697358 
L 212.326612 500.256244 
L 210.59415 499.87027 
L 207.045734 499.098321 
L 205.50113 498.43665 
L 203.64343 497.857688 
L 202.47454 497.637131 
L 200.804697 496.506778 
L 199.468823 495.018019 
L 198.654775 494.2185 
L 197.047551 492.09564 
L 196.922313 491.103134 
L 196.463106 489.090553 
L 195.711677 483.411214 
L 195.502947 479.248203 
L 195.231597 477.152913 
L 195.231597 475.96742 
L 195.085486 474.947344 
L 194.501041 474.230534 
L 193.540881 473.596433 
L 192.476357 473.431016 
L 191.495324 473.734281 
L 190.785641 474.395952 
L 190.242942 475.112762 
L 189.67937 476.711799 
L 189.261909 477.538887 
L 188.635718 478.172988 
L 186.506669 479.937443 
L 185.922224 480.626683 
L 183.814047 482.30843 
L 182.645158 483.549062 
L 182.123332 484.183163 
L 179.91079 485.892479 
L 178.574916 486.940124 
L 177.051184 487.629364 
L 174.713405 488.677009 
L 171.415465 490.331185 
L 170.497052 490.74473 
L 169.056812 491.875083 
L 167.449589 493.281133 
L 164.652602 496.368929 
L 164.151649 497.168448 
L 163.67157 497.609562 
L 163.295855 497.499283 
L 162.106092 496.782474 
L 160.916329 496.644626 
L 158.119342 497.00303 
L 157.34704 497.223587 
L 155.217991 498.298802 
L 153.965609 498.932903 
L 151.064257 499.952979 
L 148.935207 500.53194 
L 146.722666 500.724928 
L 140.648613 500.256244 
L 139.542342 499.980548 
L 138.623929 499.484295 
L 137.914245 498.712346 
L 137.371547 496.506778 
L 137.434166 495.348854 
L 137.705515 494.2185 
L 137.726388 493.336273 
L 137.39242 491.461539 
L 137.434166 490.579312 
L 138.102103 488.925135 
L 138.749167 488.153186 
L 139.563215 487.408807 
L 140.606867 486.664428 
L 142.109725 485.148099 
L 142.840281 484.458859 
L 146.868777 481.56405 
L 147.536714 480.792101 
L 148.893461 478.06271 
L 149.811875 476.187977 
L 151.794813 473.789421 
L 154.633546 471.473574 
L 157.931485 468.9096 
L 158.140215 468.275499 
L 158.161089 466.621323 
L 158.453311 464.967146 
L 158.766407 463.092413 
L 158.578549 462.210185 
L 158.682914 459.75649 
L 158.202835 458.157453 
L 157.660136 457.606061 
L 156.345135 455.455632 
L 155.865055 454.766391 
L 154.5918 453.305202 
L 153.923863 452.533253 
L 152.316639 451.154773 
L 151.690448 450.741229 
L 151.043384 450.65852 
L 150.959892 451.265051 
L 148.705604 456.337859 
L 148.559493 457.220086 
L 148.601239 458.212592 
L 148.079413 460.114895 
L 147.411476 461.796641 
L 147.286238 462.706438 
L 146.827031 463.616235 
L 144.489251 466.12507 
L 143.842187 467.007297 
L 142.673297 468.22036 
L 141.838376 469.460992 
L 141.31655 470.260511 
L 140.690359 471.00489 
L 138.957897 472.273092 
L 138.540436 473.045041 
L 138.540436 474.56137 
L 137.997738 475.002483 
L 137.914245 475.581445 
L 137.684642 476.187977 
L 137.225435 476.711799 
L 136.327895 478.255697 
L 135.117259 479.551469 
L 134.261464 479.909874 
L 133.176067 479.992582 
L 131.026144 479.661747 
L 126.642807 478.889798 
L 125.97487 478.448684 
L 125.369552 477.704305 
L 124.555504 477.070204 
L 123.804074 476.325825 
L 122.969153 475.691724 
L 119.399864 474.781927 
L 113.889383 473.706712 
L 112.845731 473.568864 
L 111.071523 472.934763 
L 110.299221 472.576358 
L 105.540169 471.00489 
L 104.705248 470.453498 
L 103.181517 469.075018 
L 102.221357 468.578765 
L 101.240324 468.330638 
L 100.113181 468.19279 
L 98.693814 468.275499 
L 95.50024 468.027373 
L 94.12262 467.724107 
L 93.16246 467.255424 
L 91.805713 465.904513 
L 90.887299 465.490969 
L 89.071345 464.912007 
L 88.236424 464.305476 
L 87.484995 463.919501 
L 86.650074 463.31297 
L 85.752533 463.092413 
L 84.875866 463.147552 
L 84.020071 463.037274 
L 82.391975 462.430742 
L 81.577926 461.769072 
L 79.928957 459.839199 
L 78.78094 458.791554 
L 77.716415 458.295301 
L 76.610144 457.137378 
L 75.483 456.28272 
L 73.583554 455.097227 
L 71.997204 453.829025 
L 71.308393 453.139784 
L 69.847281 452.229987 
L 69.074979 451.844013 
L 67.342517 450.686089 
L 66.319738 450.217406 
L 65.547436 449.528166 
L 64.858626 448.618369 
L 64.148943 448.149685 
L 63.314021 447.791281 
L 62.249497 447.570724 
L 61.498067 446.826344 
L 58.659335 445.282446 
L 57.010365 443.959105 
L 56.363301 443.848827 
L 55.403141 444.28994 
L 54.004648 443.269865 
L 53.545441 442.608194 
L 52.960996 442.304929 
L 52.126075 442.111941 
L 50.080518 442.497916 
L 49.20385 442.360068 
L 48.473294 441.946524 
L 47.450515 442.415207 
L 46.636467 442.111941 
L 45.613688 442.470346 
L 44.653529 442.525485 
L 43.171543 441.615688 
L 41.543447 439.989082 
L 40.708525 439.575537 
L 39.831858 439.38255 
L 38.976064 438.996576 
L 38.203761 438.445184 
L 37.494078 438.086779 
L 36.972252 437.480247 
L 36.283442 436.956425 
L 34.279631 435.743362 
L 33.569948 435.026552 
L 31.753994 434.530299 
L 30.125897 433.703211 
L 29.562325 433.206958 
L 29.562325 433.206958 
" clip-path="url(#peea74d2955)" style="fill: none; stroke: #000000; stroke-width: 3"/>
   </g>
  </g>
 </g>
 <defs>
  <clipPath id="peea74d2955">
   <rect x="7.2" y="7.2" width="491.971153" height="554.4"/>
  </clipPath>
 </defs>
</svg>
