<?xml version="1.0" encoding="utf-8" standalone="no"?>
<!DOCTYPE svg PUBLIC "-//W3C//DTD SVG 1.1//EN"
  "http://www.w3.org/Graphics/SVG/1.1/DTD/svg11.dtd">
<svg xmlns:xlink="http://www.w3.org/1999/xlink" width="572.4pt" height="536.349043pt" viewBox="0 0 572.4 536.349043" xmlns="http://www.w3.org/2000/svg" version="1.1">
 <metadata>
  <rdf:RDF xmlns:dc="http://purl.org/dc/elements/1.1/" xmlns:cc="http://creativecommons.org/ns#" xmlns:rdf="http://www.w3.org/1999/02/22-rdf-syntax-ns#">
   <cc:Work>
    <dc:type rdf:resource="http://purl.org/dc/dcmitype/StillImage"/>
    <dc:date>2022-12-01T05:02:47.206148</dc:date>
    <dc:format>image/svg+xml</dc:format>
    <dc:creator>
     <cc:Agent>
      <dc:title>Matplotlib v3.6.2, https://matplotlib.org/</dc:title>
     </cc:Agent>
    </dc:creator>
   </cc:Work>
  </rdf:RDF>
 </metadata>
 <defs>
  <style type="text/css">*{stroke-linejoin: round; stroke-linecap: butt}</style>
 </defs>
 <g id="figure_1">
  <g id="patch_1">
   <path d="M 0 536.349043 
L 572.4 536.349043 
L 572.4 0 
L 0 0 
z
" style="fill: #ffffff"/>
  </g>
  <g id="axes_1">
   <g id="LineCollection_1">
    <path d="M 146.337071 417.408375 
L 146.908302 417.512443 
L 154.196421 417.98075 
L 154.767651 418.162869 
L 155.77223 418.709228 
L 157.781387 420.270251 
L 161.366353 423.444332 
L 162.252746 424.276878 
L 164.183112 425.785868 
L 165.187691 426.748499 
L 167.393824 429.532324 
L 168.871145 431.483604 
L 169.65905 432.081996 
L 170.427257 432.446235 
L 172.121252 432.654372 
L 174.681942 433.226747 
L 178.621465 433.512934 
L 179.566951 433.747088 
L 181.221551 434.475566 
L 183.053429 436.010572 
L 184.491355 437.701681 
L 186.283838 440.043216 
L 187.367207 441.448138 
L 187.938438 442.098564 
L 189.435457 442.983144 
L 190.696105 444.25798 
L 191.306731 445.064509 
L 192.252216 446.833669 
L 192.547681 447.640198 
L 192.902238 448.160539 
L 193.394678 450.033767 
L 193.78863 453.780224 
L 193.78863 456.538032 
L 194.025002 458.437277 
L 194.221978 459.373892 
L 194.596233 460.310506 
L 195.600811 461.897546 
L 196.487204 463.01628 
L 199.047894 465.487901 
L 199.855496 465.956208 
L 201.352515 467.074941 
L 202.160118 467.491214 
L 203.578346 468.505879 
L 205.292039 469.286391 
L 207.970915 470.066903 
L 209.724002 469.962835 
L 210.571 470.040886 
L 212.343786 469.832749 
L 214.155966 470.196988 
L 215.042359 470.821398 
L 215.790868 471.15962 
L 216.559076 471.263688 
L 218.233373 470.951483 
L 220.104647 470.951483 
L 225.068446 471.836063 
L 226.880627 472.330387 
L 229.50041 473.345053 
L 231.194405 474.203615 
L 232.750517 475.348366 
L 235.212719 477.325663 
L 237.753711 480.135505 
L 239.940147 483.387637 
L 241.102306 484.922644 
L 241.949304 486.431633 
L 242.579627 487.784521 
L 242.993277 489.189442 
L 243.426625 490.828516 
L 243.781182 491.635045 
L 244.923644 492.779796 
L 246.341872 493.560308 
L 248.193448 494.132683 
L 249.513189 494.965229 
L 250.773836 495.693707 
L 252.369343 496.031928 
L 253.255736 496.474218 
L 256.722516 497.69702 
L 258.554395 498.32143 
L 261.56813 498.919822 
L 262.612104 499.232027 
L 264.365192 500.168641 
L 265.980396 501.001187 
L 266.709208 501.131272 
L 269.033527 502.510176 
L 270.9048 504.227302 
L 271.594217 504.877729 
L 272.401819 505.320019 
L 273.327607 505.424087 
L 275.395857 504.799677 
L 276.400436 504.279336 
L 279.315683 501.937801 
L 281.679397 500.558897 
L 282.821859 500.194658 
L 284.043111 500.038556 
L 285.20527 499.726351 
L 286.997753 498.919822 
L 289.597839 497.931174 
L 290.523627 497.410833 
L 291.587298 497.020577 
L 293.419177 496.734389 
L 295.191962 496.760406 
L 296.216238 496.81244 
L 297.220817 497.072611 
L 298.186 497.514901 
L 300.273947 498.087276 
L 301.23913 498.425498 
L 302.913428 499.258044 
L 303.740728 499.492197 
L 305.651397 499.596265 
L 308.507551 500.272709 
L 309.571222 500.35076 
L 310.713684 500.584914 
L 311.994029 501.027204 
L 314.022884 501.391443 
L 315.756274 500.949153 
L 316.70176 500.454828 
L 319.833681 499.90847 
L 321.862535 498.867788 
L 324.186854 497.332781 
L 324.836875 496.682355 
L 325.54599 496.214048 
L 326.077825 495.589638 
L 326.45208 494.861161 
L 327.023311 494.054632 
L 327.515751 492.987932 
L 328.264261 492.415557 
L 329.130956 492.051318 
L 331.711344 490.230124 
L 332.32197 489.371561 
L 333.031084 487.030026 
L 333.622013 484.87061 
L 334.114453 483.960013 
L 335.197822 482.503057 
L 335.670565 481.618477 
L 336.53726 479.641181 
L 337.010003 478.652533 
L 337.77821 476.571168 
L 339.92525 472.018182 
L 340.654062 469.910801 
L 341.146502 469.026221 
L 341.501059 468.089607 
L 342.525335 466.450532 
L 343.076869 465.826122 
L 345.086026 462.39187 
L 346.760323 459.92025 
L 348.611899 453.10378 
L 349.951337 450.606143 
L 354.993927 443.867724 
L 360.016819 435.594299 
L 360.863817 433.64302 
L 361.710814 431.509621 
L 362.675998 429.714444 
L 363.188136 428.959949 
L 364.113924 427.034687 
L 365.807919 423.444332 
L 366.910985 421.727207 
L 368.073145 420.114149 
L 371.736901 413.922089 
L 372.426318 412.100895 
L 373.312711 410.201649 
L 374.140011 408.302404 
L 375.006706 406.767397 
L 378.178022 401.772122 
L 379.202298 400.497286 
L 380.187179 398.988297 
L 380.817503 398.181768 
L 381.25085 397.427273 
L 382.41301 394.175141 
L 382.944845 393.368612 
L 384.835816 389.49207 
L 385.426745 388.737575 
L 386.116162 388.113166 
L 386.943461 387.514773 
L 387.593483 386.682227 
L 389.740523 381.504833 
L 390.035987 380.490167 
L 390.92238 378.721007 
L 392.951235 374.428192 
L 394.014906 372.711067 
L 394.861903 370.889872 
L 397.245315 365.894597 
L 398.289289 362.096106 
L 398.624148 358.323633 
L 398.801427 357.387019 
L 399.037798 355.409722 
L 399.609029 349.50385 
L 399.392355 347.786724 
L 399.313565 345.080949 
L 398.328684 341.646698 
L 398.269591 339.981606 
L 398.328684 338.940923 
L 398.93931 337.067695 
L 398.998403 336.05303 
L 399.175682 335.064382 
L 399.746912 333.529375 
L 400.633305 330.823601 
L 401.066653 329.158509 
L 401.165141 328.247912 
L 401.145443 327.389349 
L 401.440908 325.568155 
L 401.559093 323.564841 
L 401.519698 319.740334 
L 401.263629 316.800406 
L 400.160562 310.816482 
L 399.924191 309.931902 
L 399.490843 308.943254 
L 398.959008 308.032657 
L 398.328684 307.174094 
L 395.787691 302.803228 
L 394.014906 300.253556 
L 393.443675 299.368976 
L 392.813351 298.640498 
L 392.005749 297.157526 
L 391.729982 296.377014 
L 391.572401 294.815991 
L 391.690587 292.474455 
L 391.946656 290.497159 
L 393.227001 285.657986 
L 394.152789 281.651358 
L 394.783113 279.830164 
L 395.55132 277.722782 
L 396.102853 277.046339 
L 396.989246 275.199128 
L 397.461989 274.652769 
L 398.505963 272.519371 
L 400.239353 268.902999 
L 402.642462 264.792304 
L 404.139481 261.878393 
L 405.597105 259.354739 
L 407.882028 256.440828 
L 408.335073 255.582265 
L 410.777578 253.136661 
L 413.889801 248.583676 
L 416.332306 245.825868 
L 416.923234 245.617731 
L 418.085394 244.759168 
L 418.735415 244.004673 
L 419.483925 243.32823 
L 420.508201 241.923309 
L 424.112865 238.957364 
L 427.441762 235.210907 
L 430.120638 232.296997 
L 430.691869 231.750638 
L 431.066123 231.152246 
L 431.991911 230.475803 
L 433.173768 229.044864 
L 435.596575 226.261039 
L 436.561758 224.726032 
L 437.684523 223.399162 
L 438.275451 222.748736 
L 441.151303 218.325836 
L 441.604348 216.842863 
L 442.195277 214.059038 
L 442.864996 212.680134 
L 443.633203 211.977673 
L 444.283224 211.639451 
L 445.149919 211.431315 
L 446.213591 211.483349 
L 447.848493 211.951656 
L 448.675793 212.315895 
L 450.724345 212.784202 
L 451.453157 212.758185 
L 453.225942 213.122424 
L 454.821449 213.694799 
L 458.623089 216.140403 
L 460.43527 217.467273 
L 461.065594 217.987614 
L 462.109567 219.288467 
L 463.192936 220.771439 
L 464.867234 222.618651 
L 466.009696 224.049589 
L 467.467319 226.026885 
L 469.949219 228.446472 
L 470.618938 229.122915 
L 472.805373 230.631905 
L 473.49479 230.840041 
L 474.262997 230.892075 
L 475.838806 230.657922 
L 476.784292 230.50182 
L 477.650987 230.215632 
L 478.399497 230.215632 
L 480.132887 229.825376 
L 480.60563 229.513171 
L 480.960187 229.096898 
L 481.629906 227.587909 
L 481.945068 226.807397 
L 484.210294 223.555265 
L 485.155779 221.499917 
L 485.411848 220.381183 
L 486.317939 218.117699 
L 487.322517 215.28184 
L 488.346793 213.850902 
L 488.918024 213.148441 
L 489.765022 210.702837 
L 489.804417 210.078428 
L 490.178672 209.011728 
L 490.592321 208.543421 
L 490.84839 208.075114 
L 491.084762 207.398671 
L 492.365107 205.265272 
L 494.590938 201.883054 
L 498.963809 193.895817 
L 501.504801 189.00461 
L 502.863937 186.35087 
L 505.877672 181.771867 
L 506.448903 181.095424 
L 508.694431 177.739223 
L 509.029291 176.906677 
L 511.471795 172.874033 
L 512.279398 170.896736 
L 513.224883 169.413764 
L 513.658231 168.763337 
L 513.9143 168.138928 
L 514.229462 167.774689 
L 514.150671 167.15028 
L 513.244581 164.444506 
L 512.633955 162.805431 
L 513.973393 157.86219 
L 514.958274 155.416586 
L 517.105314 151.540044 
L 522.916111 141.913732 
L 523.644923 140.326692 
L 525.023756 135.981843 
L 525.870753 133.510222 
L 526.067729 132.625642 
L 526.56017 131.038601 
L 526.796541 130.284107 
L 527.151098 129.63368 
L 528.195072 128.410878 
L 530.283019 124.872558 
L 530.676972 123.415603 
L 531.051227 122.791193 
L 531.740643 122.062716 
L 533.867986 118.706515 
L 534.99075 117.301594 
L 535.877143 115.766587 
L 537.590835 112.358353 
L 537.984788 110.589193 
L 538.043881 109.834698 
L 538.615111 107.259009 
L 539.678783 105.073576 
L 539.836364 104.449167 
L 539.757573 103.850774 
L 539.304528 102.627972 
L 538.752995 101.873478 
L 537.492347 100.754744 
L 535.975631 100.052283 
L 534.399821 99.740079 
L 532.627036 99.531942 
L 529.199651 99.583976 
L 528.510234 99.505925 
L 526.205613 98.569311 
L 523.920689 97.320492 
L 522.502461 96.305827 
L 520.473606 95.004974 
L 517.79473 93.44395 
L 516.218921 93.079712 
L 514.505228 92.923609 
L 513.57944 92.767507 
L 509.817196 91.700807 
L 507.748946 91.284534 
L 505.247348 91.128432 
L 503.651841 90.191818 
L 501.485104 89.20317 
L 500.736594 88.734863 
L 499.160785 87.486044 
L 498.431973 86.99172 
L 496.974349 86.263242 
L 496.206142 85.794935 
L 494.709123 84.546116 
L 493.409081 83.193229 
L 492.798455 82.516785 
L 491.301436 80.071182 
L 490.907483 79.212619 
L 489.666533 77.339391 
L 488.425584 76.038538 
L 487.87405 75.570231 
L 487.164936 75.232009 
L 486.534612 75.179975 
L 485.23457 75.518196 
L 483.205715 76.350742 
L 481.84658 76.740998 
L 481.669301 75.986503 
L 483.304203 76.63693 
L 483.914829 76.63693 
L 484.742129 76.454811 
L 487.184634 75.388111 
L 487.933143 74.945821 
L 488.583165 74.347429 
L 489.508953 72.91649 
L 490.080183 71.32945 
L 490.27716 70.522921 
L 490.35595 69.118 
L 490.139276 68.545624 
L 489.824114 68.129352 
L 487.598284 67.244772 
L 486.337636 66.750447 
L 485.864893 66.72443 
L 484.604246 67.114686 
L 483.954225 67.582993 
L 483.205715 67.843164 
L 482.535996 67.869181 
L 481.452627 67.635027 
L 475.011507 65.007304 
L 474.302392 64.565014 
L 473.475092 63.758486 
L 472.785676 62.92594 
L 471.34775 61.989326 
L 470.028009 61.442967 
L 469.338593 61.260848 
L 467.093065 61.15678 
L 465.418767 60.870592 
L 464.177817 60.71449 
L 462.405032 59.959995 
L 460.533758 58.633125 
L 460.080713 57.930664 
L 458.859461 57.254221 
L 458.28823 57.124135 
L 457.638208 57.280238 
L 457.007885 57.644477 
L 456.160887 58.711176 
L 455.235099 60.454319 
L 454.644171 60.766524 
L 453.698685 60.896609 
L 452.556223 60.922626 
L 451.571342 60.558387 
L 450.822833 60.116097 
L 449.286419 59.439654 
L 447.927283 58.32092 
L 447.513633 57.644477 
L 446.272684 56.707862 
L 445.504476 56.213538 
L 444.992338 55.589129 
L 444.637781 54.7826 
L 443.49532 53.533781 
L 441.742232 51.842672 
L 439.339122 49.162915 
L 438.551218 47.862062 
L 438.078475 47.341721 
L 436.679944 46.19697 
L 432.858606 43.126957 
L 432.070702 42.554582 
L 426.082626 39.56262 
L 424.762886 38.808126 
L 423.344657 38.339818 
L 421.729453 37.97558 
L 420.980943 37.923546 
L 419.464227 37.377187 
L 417.908115 36.882863 
L 415.780773 36.882863 
L 414.89438 36.570658 
L 412.727642 36.284471 
L 411.013949 36.310488 
L 410.166952 36.050317 
L 408.177492 34.801498 
L 407.468378 35.061669 
L 406.010755 34.69743 
L 403.666738 34.281157 
L 400.987862 34.229123 
L 400.121167 34.359208 
L 398.269591 34.25514 
L 396.083156 33.292509 
L 395.314949 33.240475 
L 394.625532 32.980304 
L 393.89672 32.902253 
L 392.143632 31.965639 
L 390.942078 31.15911 
L 389.523849 30.924957 
L 387.278321 31.15911 
L 386.332835 31.211144 
L 385.564628 31.393264 
L 384.855514 31.757502 
L 384.1464 32.251827 
L 382.353917 34.333191 
L 379.852319 36.986931 
L 379.241693 37.455238 
L 378.27651 38.67804 
L 377.86286 39.406518 
L 376.937072 40.707371 
L 376.168865 42.112292 
L 375.321868 45.286373 
L 375.124891 46.717312 
L 374.671846 49.110881 
L 374.691544 49.891393 
L 374.435475 52.180894 
L 374.573358 53.637849 
L 374.809729 55.016754 
L 375.361263 56.239555 
L 375.735517 56.655828 
L 376.523422 57.956681 
L 378.965927 61.495001 
L 380.522038 62.561701 
L 384.776724 64.148741 
L 387.199531 64.799168 
L 388.716247 64.903236 
L 391.158751 65.475611 
L 392.616375 65.735782 
L 393.384582 65.943919 
L 394.113394 66.360191 
L 396.181644 68.23342 
L 397.580175 69.794443 
L 398.308986 70.548938 
L 399.412053 72.370132 
L 400.25905 74.061241 
L 400.731793 74.763702 
L 401.756069 77.07922 
L 402.681857 81.267967 
L 402.977322 84.59815 
L 402.878834 89.46334 
L 402.997019 91.102415 
L 403.134903 93.62607 
L 403.587948 96.123708 
L 403.804622 96.826168 
L 404.257667 97.42456 
L 405.163757 99.323806 
L 406.818357 101.58729 
L 407.172914 102.393819 
L 407.586564 104.215013 
L 408.295678 107.33706 
L 408.551747 108.715964 
L 408.689631 109.418425 
L 408.807816 111.343687 
L 408.926002 112.228267 
L 408.9457 115.246246 
L 409.142676 116.521082 
L 408.847211 117.978037 
L 408.492654 118.862617 
L 407.586564 119.955334 
L 406.168336 122.869245 
L 404.336457 125.757138 
L 403.036414 127.162059 
L 399.490843 129.893851 
L 398.131708 131.012584 
L 396.851363 132.079284 
L 389.68143 137.022525 
L 388.282899 137.620917 
L 384.993397 139.233975 
L 381.782686 140.144572 
L 380.226574 140.87305 
L 377.744674 141.783647 
L 375.873401 143.006449 
L 374.297591 143.734926 
L 372.603596 144.281285 
L 370.042906 145.347984 
L 367.836773 146.987059 
L 365.945802 148.912321 
L 364.941223 150.369276 
L 364.626062 151.04572 
L 363.700274 152.580727 
L 362.754788 154.974296 
L 360.568352 158.928889 
L 360.1744 160.646015 
L 359.839541 162.597294 
L 357.042479 169.36173 
L 356.431853 170.168259 
L 355.663646 170.6886 
L 354.796951 171.000805 
L 352.196865 173.34234 
L 351.566542 173.810647 
L 347.902785 175.397688 
L 338.349441 178.623803 
L 335.572077 179.820588 
L 331.396182 182.526362 
L 330.58858 182.890601 
L 327.023311 183.931283 
L 325.368711 184.737812 
L 321.586769 187.131381 
L 314.771393 192.8031 
L 313.31377 194.858448 
L 312.821329 195.63896 
L 310.91066 197.876427 
L 310.240941 199.307365 
L 307.739344 204.146538 
L 306.143837 207.684858 
L 305.198351 209.870291 
L 303.957402 212.44598 
L 302.519476 216.062352 
L 301.120945 221.343815 
L 298.639045 226.000868 
L 297.811745 229.044864 
L 297.004143 230.788007 
L 296.669283 232.244963 
L 296.393517 233.779969 
L 295.763193 235.393027 
L 295.014684 236.928033 
L 293.379781 240.05008 
L 292.335808 241.350933 
L 290.799394 243.406281 
L 288.59326 246.606379 
L 286.36743 248.999949 
L 285.106782 250.352836 
L 284.555249 251.029279 
L 282.112744 253.318781 
L 279.118707 255.556248 
L 276.735295 257.03922 
L 275.021602 257.741681 
L 273.3867 258.340073 
L 270.451755 260.421438 
L 269.801734 260.993813 
L 268.619877 261.826359 
L 266.630418 263.517468 
L 266.157675 264.350014 
L 264.424285 268.746897 
L 262.533313 272.987678 
L 262.001478 274.600735 
L 261.627223 276.317861 
L 261.607525 278.113038 
L 261.587828 281.495256 
L 261.587828 284.175013 
L 262.39543 290.471142 
L 263.084847 293.879376 
L 263.163637 294.920059 
L 263.084847 295.934724 
L 263.143939 296.949389 
L 262.88787 299.837283 
L 262.789382 300.74788 
L 262.434825 301.788562 
L 261.095387 303.505688 
L 260.405971 304.2862 
L 259.381695 305.977309 
L 259.00744 306.835872 
L 257.746792 308.526981 
L 257.037678 309.281476 
L 251.778415 313.418188 
L 250.16321 313.964546 
L 246.991894 315.08328 
L 244.234227 316.22803 
L 243.012975 316.540235 
L 240.846237 316.800406 
L 236.788528 318.491515 
L 234.030862 319.324061 
L 229.91406 320.781016 
L 229.08676 321.301357 
L 228.298855 321.665596 
L 227.116998 322.420091 
L 226.624558 323.096534 
L 222.271384 326.374684 
L 218.17428 329.184526 
L 216.657564 330.927669 
L 214.313547 333.451324 
L 213.230178 335.298535 
L 210.511907 339.435248 
L 210.019467 340.29381 
L 209.467933 341.022288 
L 209.073981 341.880851 
L 208.069403 343.57196 
L 207.67545 344.45654 
L 205.311736 347.396468 
L 204.838994 348.229014 
L 203.164696 352.027504 
L 202.081327 353.718613 
L 201.588887 354.551159 
L 200.997958 356.424387 
L 200.190356 357.985411 
L 199.402451 359.858639 
L 198.437268 361.731867 
L 197.117528 365.452307 
L 196.585692 368.548337 
L 196.231135 374.428192 
L 196.014461 377.081933 
L 195.915973 377.966513 
L 195.975066 378.929144 
L 196.585692 381.738986 
L 199.047894 389.830292 
L 199.57973 391.70352 
L 200.879773 396.516676 
L 201.076749 397.973631 
L 202.337396 400.965593 
L 203.04651 403.333146 
L 203.598044 405.076289 
L 204.110182 406.663329 
L 204.425344 407.339773 
L 204.799598 412.647253 
L 204.996574 413.453782 
L 205.075365 414.364379 
L 204.602622 418.891347 
L 204.346553 419.853978 
L 204.267763 420.816609 
L 202.790441 426.332226 
L 201.923746 428.205454 
L 199.914589 431.405553 
L 198.279687 433.617003 
L 195.423533 438.222022 
L 194.871999 439.002534 
L 189.514248 444.622219 
L 188.352088 445.923072 
L 186.067165 448.368675 
L 184.708029 449.721563 
L 182.541291 451.594791 
L 181.871572 452.323268 
L 180.394251 453.337934 
L 179.015418 454.248531 
L 177.735073 455.367264 
L 175.745613 456.668117 
L 174.130409 457.26651 
L 172.515204 457.786851 
L 170.092397 459.139738 
L 168.555983 460.18042 
L 167.137755 461.273137 
L 165.640736 462.313819 
L 162.745186 464.603321 
L 162.095165 465.22773 
L 161.031494 466.840788 
L 160.519356 467.569265 
L 159.869334 468.193675 
L 159.219313 468.479862 
L 158.549594 468.401811 
L 157.170761 467.569265 
L 156.520739 467.022907 
L 155.949508 466.788754 
L 154.629768 466.5546 
L 153.467609 466.788754 
L 151.576637 467.751385 
L 150.769035 467.933504 
L 148.641693 468.792067 
L 147.105278 469.234357 
L 145.430981 469.260374 
L 142.968779 469.156306 
L 141.452062 468.792067 
L 140.132322 468.245709 
L 139.600486 467.933504 
L 138.615606 466.944856 
L 137.847399 465.722054 
L 137.611027 465.071628 
L 137.985282 463.01628 
L 138.142863 462.313819 
L 138.044375 461.481273 
L 137.236772 460.050335 
L 137.059494 458.879567 
L 136.980703 458.15109 
L 137.17768 457.396595 
L 137.492841 456.668117 
L 138.733791 454.638787 
L 139.442906 453.832258 
L 140.742948 452.765558 
L 142.71271 451.490723 
L 144.958238 449.74758 
L 147.144674 446.417396 
L 147.676509 445.688918 
L 148.917459 444.674253 
L 150.040223 443.425434 
L 150.788733 442.853059 
L 151.655428 442.384752 
L 153.329725 441.630257 
L 153.920654 441.109916 
L 154.747954 439.939148 
L 155.220697 438.534227 
L 156.363158 433.564969 
L 156.26467 432.420218 
L 155.732835 431.353519 
L 154.45249 427.659096 
L 153.999444 427.164772 
L 153.21154 425.94197 
L 152.226659 424.745185 
L 151.162988 423.91264 
L 150.473571 423.886622 
L 149.784154 424.120776 
L 148.602297 425.05739 
L 148.090159 425.629765 
L 146.987093 426.514345 
L 145.982514 428.205454 
L 145.411283 429.740461 
L 144.505193 431.223433 
L 144.229426 431.977928 
L 143.658196 434.579634 
L 142.732408 436.374811 
L 142.042991 437.18134 
L 141.314179 437.831766 
L 139.718672 440.095251 
L 139.088348 441.812376 
L 138.458025 442.462803 
L 138.004979 443.217298 
L 137.630725 445.923072 
L 136.823122 447.380027 
L 136.448868 449.071136 
L 136.488263 450.18987 
L 136.330682 451.022416 
L 135.700358 452.427337 
L 134.104851 452.713524 
L 129.692585 452.999712 
L 126.875826 452.505388 
L 126.048526 452.037081 
L 124.315136 451.33462 
L 123.074186 450.684194 
L 122.522653 450.137835 
L 122.069607 449.331307 
L 120.611984 448.472744 
L 119.883172 447.744266 
L 117.952805 446.65155 
L 117.42097 445.897055 
L 116.436089 445.376714 
L 116.10123 444.726287 
L 115.451208 444.101878 
L 113.107192 443.789673 
L 111.511685 443.035178 
L 110.881361 442.540854 
L 109.857085 441.318052 
L 109.384342 440.771694 
L 108.675228 440.329404 
L 104.282659 438.924483 
L 99.377953 436.218709 
L 96.777867 434.033276 
L 95.970265 433.434883 
L 93.409575 432.13403 
L 92.267113 431.093348 
L 91.538301 430.729109 
L 89.98219 429.48029 
L 85.35325 426.774516 
L 83.678952 425.967987 
L 81.807679 424.745185 
L 79.916707 423.184162 
L 77.868155 421.909326 
L 74.972605 421.727207 
L 72.352822 420.426354 
L 65.734423 415.092856 
L 56.141684 408.094267 
L 55.373477 407.469858 
L 54.546177 407.157653 
L 53.580994 407.131636 
L 52.773391 406.949517 
L 51.138489 406.273073 
L 49.602075 405.336459 
L 47.691406 404.451879 
L 45.938318 403.072975 
L 45.170111 402.240429 
L 43.003373 400.54932 
L 39.339617 398.858211 
L 38.374433 398.598041 
L 36.838019 397.375239 
L 34.5137 396.490659 
L 33.725796 396.282522 
L 33.134867 395.788198 
L 32.563636 395.580062 
L 32.563636 395.580062 
" clip-path="url(#p41ed3d90d4)" style="fill: none; stroke: #000000; stroke-width: 3"/>
   </g>
  </g>
 </g>
 <defs>
  <clipPath id="p41ed3d90d4">
   <rect x="7.2" y="7.2" width="558" height="521.949043"/>
  </clipPath>
 </defs>
</svg>
