<?xml version="1.0" encoding="utf-8" standalone="no"?>
<!DOCTYPE svg PUBLIC "-//W3C//DTD SVG 1.1//EN"
  "http://www.w3.org/Graphics/SVG/1.1/DTD/svg11.dtd">
<svg xmlns:xlink="http://www.w3.org/1999/xlink" width="207.930926pt" height="568.8pt" viewBox="0 0 207.930926 568.8" xmlns="http://www.w3.org/2000/svg" version="1.1">
 <metadata>
  <rdf:RDF xmlns:dc="http://purl.org/dc/elements/1.1/" xmlns:cc="http://creativecommons.org/ns#" xmlns:rdf="http://www.w3.org/1999/02/22-rdf-syntax-ns#">
   <cc:Work>
    <dc:type rdf:resource="http://purl.org/dc/dcmitype/StillImage"/>
    <dc:date>2022-12-07T05:02:51.252743</dc:date>
    <dc:format>image/svg+xml</dc:format>
    <dc:creator>
     <cc:Agent>
      <dc:title>Matplotlib v3.6.2, https://matplotlib.org/</dc:title>
     </cc:Agent>
    </dc:creator>
   </cc:Work>
  </rdf:RDF>
 </metadata>
 <defs>
  <style type="text/css">*{stroke-linejoin: round; stroke-linecap: butt}</style>
 </defs>
 <g id="figure_1">
  <g id="patch_1">
   <path d="M 0 568.8 
L 207.930926 568.8 
L 207.930926 0 
L 0 0 
z
" style="fill: #ffffff"/>
  </g>
  <g id="axes_1">
   <g id="LineCollection_1">
    <path d="M 36.121982 531.251916 
L 33.464496 533.992438 
L 26.704395 536.4 
L 25.734509 535.785303 
L 25.191374 534.760809 
L 24.580346 534.043663 
L 21.292434 531.277528 
L 20.526225 531.162273 
L 19.934595 530.880537 
L 19.081096 530.790893 
L 17.94633 530.726862 
L 17.26741 530.317065 
L 16.801865 530.521964 
L 16.501201 530.329871 
L 16.268428 530.317065 
L 15.99686 529.894461 
L 16.064752 528.69068 
L 16.326621 528.280882 
L 16.433309 527.807054 
L 16.889155 527.333225 
L 17.024939 526.961846 
L 17.18012 526.14225 
L 17.034638 526.039801 
L 17.121927 525.655615 
L 17.054035 525.297042 
L 17.228615 524.810408 
L 17.141325 524.29816 
L 17.422592 523.491371 
L 17.723256 522.812644 
L 17.509881 521.775343 
L 17.752353 520.71243 
L 19.711521 518.612217 
L 20.691105 517.613335 
L 21.108156 516.742514 
L 21.631894 516.319911 
L 22.233223 516.038175 
L 22.718166 515.538734 
L 23.01883 514.872812 
L 23.397086 514.334953 
L 24.240886 512.606119 
L 24.522153 511.658461 
L 24.473658 510.595548 
L 25.123482 509.763147 
L 25.55993 508.789877 
L 26.665599 507.598902 
L 27.179639 506.920175 
L 27.451206 506.190223 
L 28.168922 504.85838 
L 28.469586 504.115622 
L 30.787612 499.979226 
L 31.272555 499.351723 
L 31.999969 498.826669 
L 32.281236 498.263197 
L 32.572201 496.98258 
L 33.367507 495.689155 
L 33.668172 494.831141 
L 34.221006 494.16522 
L 36.005595 491.0149 
L 36.180175 490.413009 
L 36.480839 490.028824 
L 37.072469 488.453664 
L 39.429291 484.71426 
L 39.953029 483.920276 
L 40.234296 483.03665 
L 40.738636 482.268279 
L 40.893818 480.641895 
L 41.80551 479.041122 
L 43.590099 475.749934 
L 43.590099 475.16085 
L 43.978053 474.558959 
L 45.238904 471.728794 
L 45.791739 470.896392 
L 46.897408 469.692611 
L 47.605424 469.641386 
L 48.226151 469.231589 
L 48.866275 467.707653 
L 48.875974 467.041732 
L 49.176639 466.593516 
L 49.525797 466.273361 
L 49.67128 465.709889 
L 49.962246 465.184836 
L 51.261892 463.76335 
L 51.756534 462.905336 
L 52.115391 462.290639 
L 52.328766 461.266145 
L 52.794311 459.883078 
L 53.085277 458.60246 
L 52.910697 458.525623 
L 53.424737 457.257811 
L 54.268537 456.258929 
L 54.995951 453.710499 
L 56.024029 452.698811 
L 56.10162 452.493912 
L 55.985234 452.826873 
L 56.35379 452.609168 
L 56.69325 451.994471 
L 56.78054 451.49503 
L 57.071506 450.816302 
L 59.166458 447.537921 
L 59.389532 446.987255 
L 59.39923 446.321333 
L 61.057734 444.810204 
L 61.988824 443.388718 
L 62.987806 441.173249 
L 63.492147 439.995081 
L 64.219561 439.098648 
L 64.248657 438.714463 
L 64.462032 438.291859 
L 64.849986 438.061348 
L 65.267037 437.638744 
L 66.333911 435.090314 
L 66.828552 434.488424 
L 67.158313 433.463929 
L 67.10012 432.708365 
L 69.292061 429.532432 
L 70.14556 428.072528 
L 70.48502 427.752373 
L 71.134843 426.753491 
L 71.687678 425.65216 
L 71.813763 424.896595 
L 72.289007 424.486797 
L 72.803046 423.820876 
L 74.238477 420.952292 
L 74.946493 419.735705 
L 75.712702 418.506312 
L 75.848486 417.712328 
L 76.304332 416.675028 
L 76.75048 415.945076 
L 76.847468 415.381604 
L 78.52537 413.140522 
L 79.117 411.693424 
L 79.320676 410.604899 
L 79.679534 409.874947 
L 79.815317 408.55591 
L 80.494237 407.390548 
L 81.532015 405.969062 
L 81.619304 405.175079 
L 82.143042 404.483545 
L 82.337019 404.009716 
L 83.355399 402.319301 
L 83.665762 402.114402 
L 83.879137 401.640573 
L 83.898535 401.179551 
L 83.626967 400.180669 
L 83.559075 399.630003 
L 84.27679 398.336579 
L 84.790829 397.670658 
L 85.013903 396.902287 
L 84.936312 396.748613 
L 85.489147 395.544832 
L 86.13897 394.930135 
L 86.371743 394.456307 
L 86.720901 394.251408 
L 86.749998 394.072121 
L 86.488129 393.956866 
L 86.56572 393.854416 
L 86.459032 393.867222 
L 86.313549 393.726354 
L 86.187464 393.329363 
L 86.352345 392.368899 
L 87.845968 390.447972 
L 88.650973 389.71802 
L 89.843932 387.182397 
L 89.979716 386.73418 
L 90.629539 386.055453 
L 90.745926 385.684074 
L 91.259965 385.363919 
L 91.744908 385.274276 
L 91.366652 385.491981 
L 92.035873 384.736416 
L 93.141542 383.250899 
L 94.130826 382.456916 
L 95.411074 380.689664 
L 95.857221 378.653481 
L 95.876619 377.88511 
L 96.410056 376.809391 
L 97.331447 376.117858 
L 99.33911 373.620653 
L 99.959837 373.108405 
L 100.978216 371.622889 
L 100.997614 371.187478 
L 101.327375 370.700844 
L 101.938403 370.098953 
L 102.180874 369.612318 
L 102.268164 369.151296 
L 103.6551 367.2944 
L 103.965463 366.205875 
L 104.314622 365.629597 
L 104.896553 365.091737 
L 105.119627 364.643521 
L 106.525961 363.273259 
L 106.390177 362.722594 
L 107.010903 360.340644 
L 107.689823 359.111251 
L 108.165067 358.573392 
L 108.688805 356.447566 
L 109.231941 355.935319 
L 109.784775 355.02608 
L 110.221224 354.027198 
L 111.317194 352.272751 
L 112.131898 350.210956 
L 112.907806 348.62299 
L 113.644919 347.739364 
L 114.74089 346.689257 
L 116.399394 344.268889 
L 117.466267 343.551743 
L 117.311086 342.885822 
L 117.543858 342.476024 
L 117.592353 342.015002 
L 118.756215 339.735502 
L 119.435135 338.851875 
L 121.92774 333.947108 
L 122.490274 333.101901 
L 122.849131 332.320724 
L 123.867511 330.719951 
L 125.070169 328.350808 
L 125.535714 327.428763 
L 126.185537 326.90371 
L 126.990542 325.213294 
L 127.417291 324.726659 
L 127.465786 324.137575 
L 127.76645 323.574103 
L 128.435671 321.486696 
L 128.707239 321.192154 
L 129.803209 319.066328 
L 130.016584 318.874235 
L 131.06406 317.644842 
L 130.967072 316.927696 
L 130.617913 316.351418 
L 129.007903 314.712227 
L 127.824643 313.76457 
L 125.477521 312.62482 
L 124.575527 312.176603 
L 123.916005 311.677162 
L 122.209007 310.908792 
L 121.510689 310.434963 
L 118.387659 308.872609 
L 117.058916 307.848115 
L 114.663299 306.618721 
L 109.096157 303.07141 
L 108.650009 303.045797 
L 108.291152 302.904929 
L 102.500936 299.370424 
L 99.785257 297.526334 
L 94.033837 294.529688 
L 92.501418 293.594837 
L 90.891408 292.852078 
L 90.290079 292.467893 
L 88.699467 291.737941 
L 87.176747 290.841508 
L 85.721919 289.945076 
L 84.781131 289.599309 
L 83.77245 288.920581 
L 83.3457 288.702876 
L 83.015939 288.280272 
L 83.09353 287.575933 
L 82.870456 286.858786 
L 82.870456 285.97516 
L 82.366116 284.169489 
L 81.270146 281.364935 
L 81.250748 280.122736 
L 81.23135 278.86773 
L 81.725992 277.382214 
L 81.842378 276.703486 
L 82.133344 276.140014 
L 82.560093 275.704604 
L 83.500882 274.961846 
L 83.898535 274.231893 
L 84.27679 273.233011 
L 84.839324 272.387804 
L 85.915896 269.941823 
L 86.439635 269.275902 
L 88.136934 265.165118 
L 88.621877 264.115012 
L 89.446279 263.180161 
L 92.084367 259.338307 
L 93.403411 256.725846 
L 94.072632 255.803801 
L 94.460587 254.881756 
L 97.748498 249.426324 
L 98.640792 247.351723 
L 100.764841 243.689155 
L 101.298278 243.023234 
L 101.676534 241.883484 
L 102.161476 240.820571 
L 104.353417 236.978717 
L 104.721974 235.941417 
L 105.701558 234.238195 
L 107.263073 231.433642 
L 108.659708 229.205366 
L 109.115554 228.629088 
L 113.353953 221.086249 
L 113.897089 220.266653 
L 115.67198 216.565667 
L 116.331502 215.822909 
L 117.660245 213.415347 
L 118.242176 212.608558 
L 119.609714 209.996097 
L 120.06556 208.971603 
L 120.647491 208.241651 
L 122.470876 204.566277 
L 122.897626 203.605814 
L 123.557148 202.722187 
L 123.935403 201.67208 
L 124.565828 200.80126 
L 124.885891 200.020083 
L 125.913969 198.175993 
L 128.94971 192.733367 
L 129.269772 191.657648 
L 130.879782 189.493404 
L 131.713884 187.405997 
L 132.664371 185.395426 
L 133.256001 184.550219 
L 133.711847 183.64098 
L 135.768004 180.465047 
L 136.185055 179.427747 
L 137.348917 177.801362 
L 137.678679 176.930542 
L 138.774649 175.112064 
L 139.298387 174.318081 
L 139.579654 173.460067 
L 141.529123 170.23291 
L 141.887981 169.387702 
L 143.313713 166.762435 
L 144.244802 165.033601 
L 146.611323 161.140522 
L 151.344363 152.624413 
L 152.333646 150.895579 
L 155.175411 145.683464 
L 155.573064 144.620551 
L 156.19379 143.724118 
L 157.648618 140.932371 
L 162.110091 133.005346 
L 165.485292 126.909605 
L 167.037109 123.579998 
L 167.589943 122.83724 
L 168.879891 120.378453 
L 169.132061 119.699726 
L 169.568509 119.085029 
L 170.257128 117.778799 
L 172.565455 113.578372 
L 173.001904 113.0149 
L 173.448051 111.900762 
L 175.339327 108.519931 
L 176.212224 106.71426 
L 176.949337 105.664153 
L 177.744643 104.511597 
L 178.27808 104.06338 
L 178.675733 103.346234 
L 179.131579 102.795569 
L 179.335255 101.758268 
L 179.655317 100.733774 
L 181.507798 97.263299 
L 181.944247 96.558959 
L 182.274008 95.713751 
L 182.865638 95.060636 
L 183.137206 94.17701 
L 184.446551 91.538937 
L 186.638492 87.799532 
L 187.259219 87.236061 
L 187.404701 86.608558 
L 187.792655 85.801768 
L 187.967235 84.738856 
L 188.413382 83.91926 
L 188.733444 82.77951 
L 189.198989 81.844659 
L 189.839114 80.013375 
L 190.20767 79.19378 
L 190.721709 78.463828 
L 191.594606 76.594125 
L 191.681896 76.005041 
L 191.914668 75.428763 
L 191.934066 74.90371 
L 191.720691 74.314625 
L 191.352135 73.789572 
L 190.857493 73.366968 
L 188.966217 72.35528 
L 188.423081 71.907064 
L 187.298014 71.38201 
L 186.027464 70.523996 
L 185.377641 69.589145 
L 184.533841 68.871999 
L 184.223477 68.398171 
L 183.030518 67.501738 
L 178.258682 64.991727 
L 177.2597 64.351418 
L 176.241321 63.851977 
L 175.077458 63.698303 
L 175.096856 63.595853 
L 175.193845 63.544629 
L 175.087157 63.454985 
L 175.203543 63.698303 
L 175.058061 63.851977 
L 175.067759 63.685496 
L 174.990169 63.736721 
L 174.902879 63.685496 
L 175.028964 63.544629 
L 175.019265 63.429373 
L 174.961072 63.67269 
L 173.845704 66.92546 
L 173.79721 67.066328 
L 174.039681 67.232808 
L 174.21426 67.130359 
L 174.126971 67.258421 
L 174.417936 67.399289 
L 174.505226 67.335258 
L 173.729318 67.271227 
L 173.894198 66.400407 
L 174.146368 63.557435 
L 173.826306 63.23728 
L 173.680823 62.942738 
L 173.331665 62.63539 
L 173.108591 62.379266 
L 172.914614 62.135949 
L 172.032018 61.098648 
L 171.653763 60.637626 
L 170.528696 59.395426 
L 169.335737 59.561907 
L 168.424045 60.330277 
L 167.134097 60.816912 
L 166.920722 60.816912 
L 166.717046 61.239516 
L 164.592997 65.273463 
L 164.137151 65.836935 
L 162.323466 66.707755 
L 162.313767 66.82301 
L 162.604732 67.002297 
L 162.827806 67.399289 
L 162.847204 67.937148 
L 162.924795 68.052404 
L 162.304068 68.782356 
L 161.751233 69.140929 
L 161.547557 69.153735 
L 161.402075 69.281797 
L 160.296405 69.281797 
L 160.150922 69.448277 
L 158.240248 70.293485 
L 157.978379 70.67767 
L 157.755306 71.561297 
L 157.697113 71.958288 
L 157.910487 72.969977 
L 157.813499 72.880333 
L 157.794101 73.034008 
L 157.357653 73.66151 
L 156.513852 75.33912 
L 156.184091 75.249477 
L 155.611859 74.762842 
L 155.359689 74.583555 
L 154.835951 73.776766 
L 154.244321 73.200488 
L 153.953355 73.123651 
L 153.807872 73.136457 
L 152.547021 72.508954 
L 152.129971 72.457729 
L 151.790511 72.124769 
L 151.237676 71.932676 
L 150.898216 71.676552 
L 149.036036 71.75339 
L 148.066151 70.9466 
L 147.775185 70.831345 
L 144.85583 68.244496 
L 144.060524 67.79628 
L 143.982933 67.706637 
L 141.917078 66.951072 
L 139.511762 65.055758 
L 138.900734 64.389836 
L 138.376996 64.21055 
L 138.047235 63.723915 
L 134.904806 63.122025 
L 134.633238 62.763452 
L 134.468358 62.686614 
L 134.332574 62.481716 
L 133.721546 62.148755 
L 132.392803 61.39319 
L 131.510208 61.418803 
L 130.802191 61.367578 
L 130.200862 61.444415 
L 130.045681 61.39319 
L 129.502545 60.932168 
L 129.327966 60.996199 
L 128.619949 60.701657 
L 128.513262 60.765688 
L 128.231995 60.612013 
L 128.222296 60.637626 
L 128.115609 61.405997 
L 127.582172 62.212786 
L 127.378496 62.251204 
L 127.029337 62.520134 
L 127.106928 62.750645 
L 126.864457 63.057994 
L 126.544395 63.493404 
L 126.127344 63.711109 
L 125.923668 63.851977 
L 125.603606 64.889277 
L 125.603606 65.042952 
L 124.236067 67.143165 
L 122.975216 66.259539 
L 121.888945 65.849741 
L 121.58828 65.78571 
L 121.122735 65.593617 
L 119.677606 65.094176 
L 119.115073 64.786828 
L 118.940493 64.709991 
L 118.474948 64.722797 
L 117.398375 63.826364 
L 117.349881 63.570241 
L 117.146205 63.531822 
L 116.321803 62.96835 
L 115.594389 62.737839 
L 115.177338 62.481716 
L 113.994078 61.892631 
L 112.296778 61.009005 
L 111.899125 60.547983 
L 110.725564 60.074154 
L 110.347309 59.805224 
L 109.396821 59.48507 
L 109.15435 59.587519 
L 108.81489 59.408233 
L 108.611214 59.036853 
L 108.640311 58.639862 
L 108.504527 58.67828 
L 108.009885 58.601443 
L 107.583136 58.383738 
L 107.117591 58.447769 
L 105.730655 61.367578 
L 105.3427 61.995081 
L 104.964445 62.661002 
L 104.993542 63.160443 
L 104.547394 63.301311 
L 104.58619 63.365342 
L 104.237031 64.120907 
L 103.984861 64.505092 
L 103.99456 65.363106 
L 103.606606 66.502856 
L 103.044072 67.066328 
L 102.394249 67.540157 
L 102.171175 67.821892 
L 101.36617 69.230572 
L 101.210989 69.973331 
L 101.094602 70.600833 
L 100.512671 71.125887 
L 100.260501 71.75339 
L 99.872547 72.1888 
L 99.765859 72.547373 
L 99.84345 72.560179 
L 100.415683 72.841915 
L 100.376887 72.854721 
L 100.648455 72.995589 
L 100.958818 72.483342 
L 100.444779 72.496148 
L 100.221706 72.470536 
L 100.629057 72.598597 
L 101.249784 72.995589 
L 101.511653 72.995589 
L 101.54075 72.765078 
L 101.133398 72.265637 
L 101.317676 71.599715 
L 101.230386 71.394817 
L 101.424363 70.920988 
L 101.356471 70.523996 
L 101.899607 69.614758 
L 101.79292 68.06521 
L 101.773522 67.681024 
L 102.13238 67.220002 
L 102.530033 66.861429 
L 102.782203 66.451631 
L 103.461123 65.862547 
L 103.461123 65.209432 
L 103.354435 64.966114 
L 103.936367 63.288505 
L 104.110946 62.36646 
L 104.149741 62.238398 
L 104.557093 61.841407 
L 104.848059 61.277935 
L 105.139024 60.932168 
L 105.604569 60.202216 
L 105.779149 60.074154 
L 106.041018 59.126497 
L 106.61325 58.908792 
L 106.719938 58.767924 
L 107.136988 58.473381 
L 107.583136 57.589755 
L 107.980789 57.051896 
L 108.126271 56.654904 
L 108.106874 56.488424 
L 108.90218 55.745665 
L 109.455014 54.618721 
L 109.969054 54.196117 
L 110.318212 53.68387 
L 110.803155 53.171623 
L 110.958337 52.749019 
L 112.713829 51.583657 
L 112.830215 51.199471 
L 112.781721 50.840898 
L 113.412147 50.341457 
L 114.711793 49.66273 
L 115.225832 49.445025 
L 115.429508 49.099258 
L 116.011439 48.843134 
L 116.156922 48.318081 
L 116.137525 47.959508 
L 116.3412 47.332005 
L 116.418791 46.563635 
L 116.573973 46.153837 
L 116.593371 45.718427 
L 116.797047 44.412196 
L 117.000722 43.925562 
L 117.088012 43.438927 
L 117.010421 43.208415 
L 117.146205 43.067548 
L 117.941511 42.913873 
L 118.213079 42.82423 
L 119.13447 43.105966 
L 119.182965 43.003517 
L 119.250857 43.144385 
L 119.532123 43.105966 
L 120.055861 43.643826 
L 120.181946 44.168879 
L 120.511708 44.207297 
L 120.686287 44.732351 
L 120.618395 45.001281 
L 121.025747 45.795264 
L 121.452496 45.987356 
L 121.607678 46.012969 
L 121.995632 46.486797 
L 122.422382 46.294705 
L 122.577563 46.24348 
L 122.538768 46.230674 
L 122.887927 46.640472 
L 123.886909 47.037463 
L 124.497936 47.165525 
L 124.653118 47.152719 
L 124.876192 47.38323 
L 125.332038 47.344811 
L 126.059452 48.113182 
L 126.4959 48.407724 
L 127.009939 48.433337 
L 127.776149 49.380994 
L 128.416273 50.405488 
L 129.20188 51.122634 
L 130.356044 51.609269 
L 130.928276 51.596463 
L 131.878764 51.878199 
L 131.927258 52.518508 
L 131.888463 52.723407 
L 131.975753 52.684988 
L 132.121235 52.172741 
L 132.227923 52.287997 
L 132.712865 52.262384 
L 132.577081 52.64657 
L 132.703167 52.749019 
L 132.838951 52.672182 
L 132.76136 51.878199 
L 132.683769 51.391564 
L 132.693468 50.892123 
L 133.120217 50.443907 
L 133.372387 50.09814 
L 135.428544 47.088688 
L 135.709811 46.78134 
L 136.573009 45.872101 
L 136.718492 45.769651 
L 136.951264 45.116536 
L 136.99006 45.218986 
L 137.475003 45.283017 
L 137.542895 45.10373 
L 137.426508 45.142149 
L 137.281026 44.476227 
L 137.455605 44.181685 
L 137.193736 43.925562 
L 137.659281 42.529688 
L 137.659281 42.132696 
L 137.552593 41.223458 
L 140.956891 39.340949 
L 141.063578 39.13605 
L 141.112073 38.726253 
L 141.781294 37.087062 
L 141.926776 36.882163 
L 141.858884 36.638845 
L 141.597015 36.25466 
L 141.800691 35.307003 
L 141.694004 35.332615 
L 141.500027 35.422258 
L 141.47093 35.345421 
L 141.461231 34.961236 
L 141.490328 34.897205 
L 141.325448 34.884399 
L 141.955873 33.757455 
L 141.907379 33.065921 
L 141.820089 32.899441 
L 141.98497 33.053115 
L 142.140151 32.912247 
L 142.101356 32.912247 
L 142.285634 32.912247 
L 141.422436 32.579287 
L 143.527087 32.4 
L 143.963536 32.758573 
L 144.215706 32.681736 
L 144.322393 32.83541 
L 144.157513 33.37327 
L 144.254501 33.129952 
L 144.429081 33.360463 
L 144.448478 33.283626 
L 144.564865 33.232402 
L 144.526069 32.464031 
L 144.109019 32.707348 
L 143.876246 33.014697 
L 143.139133 32.707348 
L 142.673588 32.630511 
L 142.770577 33.155565 
L 141.868583 33.347657 
L 141.102374 33.821486 
L 141.209061 33.949548 
L 141.247857 33.885517 
L 141.267254 35.102104 
L 141.422436 35.460677 
L 142.208043 35.896087 
L 142.683287 36.216241 
L 143.129434 36.626039 
L 143.391303 36.971806 
L 143.58528 37.074256 
L 144.293297 38.137168 
L 144.642455 38.431711 
L 144.952819 38.559772 
L 145.069205 38.598191 
L 146.291261 40.211769 
L 146.621022 40.314219 
L 146.737408 40.403862 
L 147.173856 40.480699 
L 147.600606 40.698404 
L 147.949765 40.724017 
L 148.454105 40.890497 
L 150.267791 42.311983 
L 150.461768 42.38882 
L 150.86912 42.696168 
L 151.926295 43.105966 
L 152.411237 43.490151 
L 152.98347 43.925562 
L 153.128952 43.823112 
L 153.584799 44.360972 
L 154.593479 44.322553 
L 155.388785 44.156073 
L 156.504154 44.476227 
L 156.882409 44.463421 
L 157.765004 45.014087 
L 158.201453 45.052505 
L 158.550612 44.873219 
L 158.812481 45.10373 
L 160.286706 46.755727 
L 160.441888 46.78134 
L 161.169302 48.061958 
L 161.198399 48.010733 
L 161.935512 47.857059 
L 162.071296 48.100376 
L 163.661908 48.753491 
L 163.729799 48.881553 
L 164.670588 49.598699 
L 164.777276 49.713955 
L 165.436798 49.66273 
L 165.688968 49.867629 
L 165.84415 49.82921 
L 166.503672 50.392682 
L 166.872228 50.469519 
L 167.124398 50.853705 
L 167.105001 51.212278 
L 167.638438 50.904929 
L 167.638438 50.994573 
L 168.230068 51.340339 
L 168.472539 51.199471 
L 169.30664 51.391564 
L 169.403629 51.532432 
L 169.607305 51.570851 
L 169.539413 51.622075 
L 169.064169 52.10871 
L 168.055488 55.002907 
L 167.735426 55.194999 
L 167.61904 55.758471 
L 166.329092 57.051896 
L 166.222405 57.243988 
L 165.999331 57.384856 
L 165.979934 57.551337 
L 165.621076 58.153227 
L 165.553184 58.306901 
L 165.591979 58.78073 
L 165.50469 58.934404 
L 165.533786 59.164915 
L 165.339809 59.638744 
L 165.4174 59.613131 
L 165.524087 59.830836 
L 165.621076 60.035735 
L 165.941138 60.304665 
L 166.038127 60.52237 
L 166.076922 60.343084 
L 167.163194 60.599207 
L 168.065187 61.213904 
L 168.569527 61.290741 
L 169.190254 61.431609 
L 169.655799 61.777376 
L 170.082549 61.905438 
L 173.486846 63.50621 
L 174.029982 64.018457 
L 173.079494 65.747291 
L 172.371478 67.053522 
L 171.925331 67.155971 
L 172.487864 66.951072 
L 172.361779 66.963878 
L 172.701239 67.232808 
L 172.972807 67.271227 
L 173.031 66.643724 
L 172.662444 65.132595 
L 172.681841 65.849741 
L 172.497563 66.541275 
L 172.041717 66.810204 
L 172.196899 66.605305 
L 172.109609 66.938266 
L 172.264791 66.82301 
L 172.216296 66.554081 
L 172.410274 66.592499 
L 172.361779 66.49005 
L 172.400575 66.720561 
L 172.410274 66.65653 
L 172.52666 66.618112 
L 171.973825 66.861429 
L 171.973825 66.784592 
L 172.313285 66.989491 
L 172.206598 66.951072 
L 172.119308 66.65653 
L 172.070814 66.694949 
L 171.886535 66.784592 
L 171.634365 66.887041 
L 171.498581 66.951072 
L 171.692558 67.079134 
L 171.576172 67.117553 
L 172.594552 66.592499 
L 172.594552 66.592499 
" clip-path="url(#p8089dbed1a)" style="fill: none; stroke: #000000; stroke-width: 3"/>
   </g>
  </g>
 </g>
 <defs>
  <clipPath id="p8089dbed1a">
   <rect x="7.2" y="7.2" width="193.530926" height="554.4"/>
  </clipPath>
 </defs>
</svg>
