<?xml version="1.0" encoding="utf-8" standalone="no"?>
<!DOCTYPE svg PUBLIC "-//W3C//DTD SVG 1.1//EN"
  "http://www.w3.org/Graphics/SVG/1.1/DTD/svg11.dtd">
<svg xmlns:xlink="http://www.w3.org/1999/xlink" width="221.674764pt" height="568.8pt" viewBox="0 0 221.674764 568.8" xmlns="http://www.w3.org/2000/svg" version="1.1">
 <metadata>
  <rdf:RDF xmlns:dc="http://purl.org/dc/elements/1.1/" xmlns:cc="http://creativecommons.org/ns#" xmlns:rdf="http://www.w3.org/1999/02/22-rdf-syntax-ns#">
   <cc:Work>
    <dc:type rdf:resource="http://purl.org/dc/dcmitype/StillImage"/>
    <dc:date>2022-12-08T05:02:59.872783</dc:date>
    <dc:format>image/svg+xml</dc:format>
    <dc:creator>
     <cc:Agent>
      <dc:title>Matplotlib v3.6.2, https://matplotlib.org/</dc:title>
     </cc:Agent>
    </dc:creator>
   </cc:Work>
  </rdf:RDF>
 </metadata>
 <defs>
  <style type="text/css">*{stroke-linejoin: round; stroke-linecap: butt}</style>
 </defs>
 <g id="figure_1">
  <g id="patch_1">
   <path d="M 0 568.8 
L 221.674764 568.8 
L 221.674764 0 
L 0 0 
z
" style="fill: #ffffff"/>
  </g>
  <g id="axes_1">
   <g id="LineCollection_1">
    <path d="M 205.033091 36.153968 
L 205.053184 36.114173 
L 203.576353 35.928464 
L 202.320544 35.437663 
L 200.833666 34.933597 
L 200.361482 34.641769 
L 199.407068 33.355073 
L 198.995162 32.943861 
L 198.030701 32.45306 
L 197.016008 32.4 
L 196.654335 32.665298 
L 195.770245 33.991788 
L 195.3282 34.973391 
L 195.117225 35.86214 
L 194.856016 36.406001 
L 194.514436 37.440663 
L 193.861416 43.091512 
L 193.519836 43.701698 
L 193.097884 44.205764 
L 192.153516 44.975128 
L 191.460309 46.367943 
L 190.827382 47.959732 
L 190.505895 48.132175 
L 190.06385 48.689301 
L 189.651945 50.679037 
L 188.597065 52.761627 
L 188.275578 53.292223 
L 187.964137 54.035057 
L 187.190559 54.99013 
L 186.045262 56.581919 
L 184.829639 58.863482 
L 183.071506 61.012396 
L 182.408439 62.086854 
L 181.755419 63.744966 
L 180.660353 68.02953 
L 180.188169 68.70604 
L 178.580734 69.236636 
L 177.987992 69.767233 
L 176.37051 72.274299 
L 175.627071 72.619187 
L 175.154887 72.778366 
L 174.341123 73.49467 
L 172.341876 75.431346 
L 172.010342 76.041532 
L 171.397507 77.726174 
L 170.483278 79.861824 
L 170.784673 80.564864 
L 170.925323 81.400553 
L 170.90523 82.329096 
L 170.73444 83.244374 
L 169.187284 85.777971 
L 167.83101 87.276905 
L 167.0072 88.921753 
L 166.404411 90.433952 
L 165.731298 91.853296 
L 164.465443 95.275642 
L 164.033444 96.084801 
L 162.988611 97.371496 
L 160.276064 101.350967 
L 157.874958 104.269246 
L 156.428266 106.789578 
L 155.22269 109.309909 
L 147.918905 122.667667 
L 146.602818 125.081879 
L 143.40804 129.843979 
L 142.051766 132.430636 
L 141.690094 133.319384 
L 140.183123 135.852981 
L 138.435037 138.386577 
L 137.510762 140.230399 
L 136.546301 142.034426 
L 135.521561 143.838452 
L 134.35617 145.50983 
L 133.321383 147.167943 
L 131.342229 151.399447 
L 129.383167 155.11362 
L 122.943379 166.481642 
L 121.325898 169.930517 
L 120.120321 171.575365 
L 119.306557 173.260008 
L 115.076993 180.714884 
L 113.610208 183.314805 
L 112.193656 185.994315 
L 111.47031 187.811607 
L 110.817289 189.695223 
L 108.657298 193.953257 
L 108.104742 194.576707 
L 107.471814 194.987919 
L 105.261591 198.848006 
L 104.337316 200.585709 
L 103.553691 202.137702 
L 102.820299 203.490722 
L 101.795559 204.379471 
L 100.961701 205.732491 
L 100.670354 206.926332 
L 100.670354 208.292617 
L 100.931562 209.27422 
L 100.831097 209.857876 
L 100.951655 210.65377 
L 100.901423 215.813818 
L 100.800958 217.591315 
L 100.971748 221.278958 
L 100.831097 222.180971 
L 101.011934 224.183972 
L 101.3937 227.314489 
L 101.644861 232.394947 
L 102.106999 234.344887 
L 102.508858 236.08259 
L 102.910717 236.931544 
L 103.322622 239.863087 
L 103.533598 242.98034 
L 103.121693 247.503672 
L 102.890624 248.326096 
L 102.820299 249.175049 
L 103.07146 252.411686 
L 102.870531 253.141255 
L 102.55909 253.804501 
L 102.096953 254.388156 
L 101.926163 254.918752 
L 101.825698 257.147256 
L 101.725233 258.04927 
L 101.634815 260.70225 
L 101.745326 262.201184 
L 101.634815 263.023608 
L 101.082259 264.734781 
L 100.16803 267.188788 
L 99.886729 268.820371 
L 99.916869 270.239716 
L 100.248402 271.473352 
L 101.3937 273.940624 
L 102.358161 274.39163 
L 102.840391 274.431425 
L 104.287083 274.006948 
L 105.944751 274.723253 
L 106.467167 275.041611 
L 106.838887 275.519147 
L 106.99963 276.261982 
L 106.959444 277.681326 
L 106.376749 280.267983 
L 105.83424 281.435294 
L 105.703636 283.066877 
L 105.593124 284.419897 
L 105.472567 286.197394 
L 104.869779 287.45756 
L 104.216758 288.638137 
L 103.935457 289.274852 
L 103.965596 290.19013 
L 104.357409 291.277852 
L 104.146433 292.683932 
L 103.021228 297.830715 
L 101.624769 300.390841 
L 101.3937 301.2 
L 101.825698 302.407106 
L 101.795559 303.163206 
L 101.353514 305.298855 
L 100.53975 307.142677 
L 99.223662 309.45077 
L 98.902175 310.498697 
L 98.701246 312.355784 
L 98.470177 313.403711 
L 98.028132 314.531228 
L 97.053624 319.691275 
L 96.360418 321.123885 
L 95.89828 321.81366 
L 94.712797 323.286064 
L 92.984804 325.766601 
L 92.613084 326.642084 
L 91.899785 329.082827 
L 90.573651 331.629688 
L 88.905937 336.060166 
L 88.996355 336.577497 
L 89.297749 336.988709 
L 89.860351 337.333597 
L 92.291597 338.248875 
L 94.652518 339.296802 
L 95.426096 339.53557 
L 96.09921 339.960047 
L 96.41065 340.649822 
L 96.491022 342.307935 
L 96.320232 343.992578 
L 95.536607 344.987446 
L 94.863494 346.844532 
L 93.205826 350.147493 
L 92.34183 352.362732 
L 89.4384 357.297276 
L 87.35878 359.220687 
L 86.695713 360.096171 
L 85.218882 362.921595 
L 84.274514 364.818476 
L 83.440657 366.887801 
L 83.380378 367.458192 
L 81.642338 372.260087 
L 80.687924 375.311015 
L 80.637691 375.788551 
L 79.130721 379.462929 
L 77.96533 381.678168 
L 76.056501 385.843348 
L 74.187857 391.600316 
L 72.881816 393.921674 
L 72.690933 394.969601 
L 70.540988 400.885748 
L 67.657651 407.160047 
L 67.105095 408.062061 
L 66.753469 408.22124 
L 65.15608 410.25077 
L 64.653756 411.152783 
L 63.96055 413.182313 
L 62.222511 417.639321 
L 59.831451 422.083064 
L 59.339173 422.839163 
L 57.872389 424.377892 
L 57.249508 424.802369 
L 57.098811 425.890091 
L 57.018439 426.977813 
L 56.546255 427.893091 
L 56.154442 429.139992 
L 55.089516 431.421555 
L 52.989804 434.817371 
L 52.025343 436.899961 
L 51.261811 437.908093 
L 51.211579 438.995815 
L 50.920231 440.136597 
L 48.840612 443.665061 
L 47.825918 445.071141 
L 46.53997 446.198658 
L 45.816624 446.702724 
L 44.97272 447.127201 
L 44.068538 447.445559 
L 43.244727 447.326174 
L 42.58166 447.591473 
L 42.109476 448.161863 
L 39.778695 452.990288 
L 35.830432 459.238058 
L 34.715274 461.546151 
L 33.137978 465.326648 
L 32.113238 467.913304 
L 31.409985 468.603079 
L 30.807197 468.921437 
L 30.48571 469.398974 
L 29.762364 471.720332 
L 28.134836 475.288591 
L 24.618571 482.027161 
L 23.091507 486.033162 
L 22.117 488.089222 
L 21.504165 489.05756 
L 20.338774 490.583024 
L 19.474778 492.121753 
L 19.032733 492.904382 
L 18.007993 493.647217 
L 17.234415 494.376786 
L 16.722045 495.053296 
L 16.62158 496.061429 
L 16.691905 496.432846 
L 16.902881 496.68488 
L 18.580642 497.560363 
L 21.09226 498.727675 
L 27.481815 501.287801 
L 29.983386 502.680616 
L 31.85203 503.44998 
L 33.811092 504.12649 
L 38.291817 506.195815 
L 39.989671 507.150888 
L 40.843621 507.681484 
L 42.913194 508.331465 
L 44.028352 508.795736 
L 46.449552 510.613028 
L 48.087126 511.70075 
L 48.840612 512.363995 
L 50.518372 513.425188 
L 55.832955 517.749546 
L 56.978253 518.293407 
L 58.083365 518.319937 
L 58.997593 518.187288 
L 59.86159 518.54544 
L 62.262696 520.216818 
L 64.050968 520.6015 
L 64.754221 520.866798 
L 71.525542 525.098302 
L 73.072699 525.735018 
L 74.449065 526.411528 
L 75.714921 527.101303 
L 76.408127 527.393131 
L 76.930544 528.401263 
L 76.97073 528.958389 
L 76.528685 530.25835 
L 75.423573 532.500118 
L 74.177811 534.99392 
L 72.881816 536.174497 
L 71.917355 536.4 
L 71.334659 536.4 
L 68.350858 534.688827 
L 66.492261 533.932728 
L 65.306777 533.242953 
L 64.774314 532.725622 
L 61.790512 531.160363 
L 60.223263 530.019582 
L 59.419545 529.144098 
L 59.208569 528.162495 
L 59.208569 528.162495 
" clip-path="url(#pf2ba5e2d49)" style="fill: none; stroke: #000000; stroke-width: 3"/>
   </g>
  </g>
 </g>
 <defs>
  <clipPath id="pf2ba5e2d49">
   <rect x="7.2" y="7.2" width="207.274764" height="554.4"/>
  </clipPath>
 </defs>
</svg>
