<?xml version="1.0" encoding="utf-8" standalone="no"?>
<!DOCTYPE svg PUBLIC "-//W3C//DTD SVG 1.1//EN"
  "http://www.w3.org/Graphics/SVG/1.1/DTD/svg11.dtd">
<svg xmlns:xlink="http://www.w3.org/1999/xlink" width="224.934227pt" height="568.8pt" viewBox="0 0 224.934227 568.8" xmlns="http://www.w3.org/2000/svg" version="1.1">
 <metadata>
  <rdf:RDF xmlns:dc="http://purl.org/dc/elements/1.1/" xmlns:cc="http://creativecommons.org/ns#" xmlns:rdf="http://www.w3.org/1999/02/22-rdf-syntax-ns#">
   <cc:Work>
    <dc:type rdf:resource="http://purl.org/dc/dcmitype/StillImage"/>
    <dc:date>2022-12-08T05:03:00.277204</dc:date>
    <dc:format>image/svg+xml</dc:format>
    <dc:creator>
     <cc:Agent>
      <dc:title>Matplotlib v3.6.2, https://matplotlib.org/</dc:title>
     </cc:Agent>
    </dc:creator>
   </cc:Work>
  </rdf:RDF>
 </metadata>
 <defs>
  <style type="text/css">*{stroke-linejoin: round; stroke-linecap: butt}</style>
 </defs>
 <g id="figure_1">
  <g id="patch_1">
   <path d="M 0 568.8 
L 224.934227 568.8 
L 224.934227 0 
L 0 0 
z
" style="fill: #ffffff"/>
  </g>
  <g id="axes_1">
   <g id="LineCollection_1">
    <path d="M 16.769738 536.4 
L 17.740409 535.00443 
L 18.2581 534.178481 
L 18.926784 532.597785 
L 20.986764 528.211709 
L 22.043717 526.474367 
L 23.834065 524.181646 
L 25.753837 520.820886 
L 24.707669 519.581962 
L 24.125267 518.4 
L 25.074367 516.676899 
L 26.260743 515.338291 
L 27.048065 514.711709 
L 29.453172 511.350949 
L 30.423843 509.428481 
L 31.135668 508.616772 
L 31.922991 507.904747 
L 33.012299 506.59462 
L 33.486849 506.153165 
L 34.080037 504.586709 
L 33.583916 502.877848 
L 34.425165 501.154747 
L 35.38505 499.716456 
L 36.086091 498.007595 
L 35.708607 496.996519 
L 36.485144 495.430063 
L 37.477386 493.849367 
L 38.329419 492.453797 
L 39.548151 489.975949 
L 40.389399 488.509177 
L 43.150418 483.781329 
L 44.250512 482.243354 
L 45.07019 480.662658 
L 45.889868 478.441139 
L 46.504626 477.088291 
L 47.647861 476.091456 
L 48.791096 475.037658 
L 49.330357 474.339873 
L 50.624585 471.491772 
L 51.810961 469.555063 
L 52.490431 468.672152 
L 52.490431 468.672152 
L 53.083618 467.803481 
L 53.39639 467.091456 
L 53.752303 465.909494 
L 54.388632 464.68481 
L 55.165168 463.730696 
L 56.146625 463.360443 
L 57.613416 461.751266 
L 57.969329 461.195886 
L 58.842933 459.316139 
L 59.198846 458.803481 
L 59.263557 458.119937 
L 59.188061 457.393671 
L 59.41455 456.866772 
L 60.309725 455.471203 
L 61.711805 454.246519 
L 62.779543 451.854114 
L 63.566865 450.358861 
L 63.825711 449.561392 
L 63.879637 448.877848 
L 65.88569 446.314557 
L 67.622113 444.377848 
L 68.970267 443.437975 
L 69.509529 442.782911 
L 69.994864 441.800316 
L 69.940938 440.746519 
L 70.631193 438.738608 
L 72.076414 436.161076 
L 73.500065 433.75443 
L 74.557018 431.077215 
L 74.697226 430.37943 
L 76.412078 426.021835 
L 77.706306 423.62943 
L 78.504414 421.820886 
L 79.669219 419.328797 
L 81.739984 412.222785 
L 82.505735 410.485443 
L 84.986339 405.358861 
L 85.27754 404.675316 
L 85.935439 403.792405 
L 86.852184 402.525 
L 87.542439 401.229114 
L 88.146412 400.118354 
L 89.246506 398.452215 
L 89.990687 397.256013 
L 91.252559 394.237025 
L 92.147734 392.343038 
L 93.096834 391.061392 
L 94.315566 388.939557 
L 95.329378 387.273418 
L 95.868639 386.589873 
L 96.515753 385.977532 
L 99.255203 381.363608 
L 100.452364 378.857278 
L 101.725021 376.536076 
L 103.623222 373.032911 
L 104.399759 371.338291 
L 105.12237 370.384177 
L 105.985188 368.50443 
L 106.103826 367.863608 
L 106.060685 367.279747 
L 106.125396 366.596203 
L 107.376483 363.918987 
L 108.099094 363.007595 
L 108.994268 361.868354 
L 109.263899 361.384177 
L 109.727664 360.828797 
L 111.647436 359.006013 
L 113.081872 356.855696 
L 113.826053 355.915823 
L 115.864462 352.270253 
L 116.673355 350.404747 
L 116.9322 349.479114 
L 117.83816 347.67057 
L 118.959824 346.089873 
L 119.811857 344.352532 
L 120.37269 342.600949 
L 121.763985 340.792405 
L 122.562092 339.881013 
L 122.982716 339.525 
L 124.298515 337.944304 
L 124.826991 337.445886 
L 125.441749 336.320886 
L 126.16436 334.868354 
L 126.401635 333.843038 
L 126.293783 332.860443 
L 126.584984 331.820886 
L 127.501729 330.069304 
L 129.85291 326.86519 
L 132.074668 324.002848 
L 134.210144 320.513924 
L 135.267097 318.178481 
L 136.841741 315.700633 
L 137.445714 314.988608 
L 137.618278 314.604114 
L 137.585922 313.450633 
L 137.521211 312.852532 
L 137.143728 312.24019 
L 136.626036 311.656329 
L 135.202386 310.645253 
L 133.56303 309.733861 
L 130.985359 308.352532 
L 129.238151 307.327215 
L 118.744119 302.300316 
L 115.939959 301.089873 
L 114.796724 300.078797 
L 113.426999 299.423734 
L 112.758315 299.210127 
L 111.550369 298.597785 
L 109.78159 296.945886 
L 107.656899 295.849367 
L 104.410544 293.96962 
L 99.869961 292.061392 
L 96.192196 290.58038 
L 95.318592 290.195886 
L 92.546787 289.355696 
L 91.543761 289.341456 
L 90.702513 288.700633 
L 90.206392 287.532911 
L 88.879808 286.664241 
L 87.58558 285.923734 
L 84.705923 284.12943 
L 84.414721 283.730696 
L 84.220587 283.146835 
L 84.252943 282.093038 
L 83.433265 278.091456 
L 82.796936 275.68481 
L 82.656728 274.873101 
L 82.678299 274.132595 
L 82.861648 273.392089 
L 84.835346 268.778165 
L 85.806017 267.055063 
L 89.408285 258.24019 
L 90.432882 256.460127 
L 93.064479 252.686392 
L 93.388036 251.604114 
L 93.592955 250.493354 
L 93.668452 249.268671 
L 94.466559 246.933228 
L 95.976492 243.885759 
L 96.655961 242.903165 
L 97.788411 241.92057 
L 98.101183 240.937975 
L 98.295317 239.841456 
L 99.816035 235.156329 
L 100.2798 234.05981 
L 101.358323 232.222785 
L 101.822088 231.354114 
L 103.159457 229.915823 
L 104.097772 228.135759 
L 105.079229 226.270253 
L 108.206946 221.229114 
L 109.824731 218.081962 
L 113.47014 213.112025 
L 114.020187 212.328797 
L 114.85065 211.972785 
L 115.486979 211.403165 
L 115.929173 210.591456 
L 116.640999 208.854114 
L 117.298898 208.028165 
L 118.323495 206.176899 
L 120.858025 202.403165 
L 122.346387 200.680063 
L 124.276944 197.048734 
L 126.056508 194.12943 
L 127.976279 191.523418 
L 129.982333 187.778165 
L 131.470695 185.043987 
L 133.131621 182.210127 
L 137.575137 174.292405 
L 140.131237 168.225949 
L 140.918559 166.032911 
L 142.654982 162.814557 
L 144.801243 159.909494 
L 146.214109 158.542405 
L 148.015243 153.9 
L 148.56529 152.760759 
L 150.183075 150.026582 
L 151.919497 147.135759 
L 153.084302 145.412658 
L 153.720631 144.316139 
L 155.435483 140.314557 
L 157.34447 136.526582 
L 158.325926 134.604114 
L 158.832832 133.65 
L 159.533872 131.741772 
L 161.324221 128.87943 
L 162.036046 128.153165 
L 164.635287 123.638924 
L 166.414851 120.776582 
L 167.450233 119.238608 
L 174.072367 108.301899 
L 176.887313 103.631013 
L 179.928748 98.305063 
L 182.247574 93.819304 
L 183.584943 91.327215 
L 186.173399 86.699051 
L 187.553908 84.42057 
L 189.646244 80.547152 
L 190.088438 79.678481 
L 191.652297 77.585127 
L 192.860243 76.303481 
L 193.88484 75.249684 
L 195.03886 73.583544 
L 194.963364 72.543987 
L 195.707545 70.507595 
L 198.889189 63.230696 
L 201.197229 58.787658 
L 202.103188 57.135759 
L 203.009148 54.971203 
L 204.49751 52.137342 
L 205.478966 50.385759 
L 206.039798 48.534494 
L 208.164489 44.119937 
L 208.002711 43.493354 
L 207.582087 42.767089 
L 206.57906 41.983861 
L 203.915107 40.403165 
L 201.693349 39.463291 
L 200.981524 39.007595 
L 199.503947 37.854114 
L 197.832236 37.042405 
L 195.157498 35.974367 
L 193.475002 35.034494 
L 191.997425 34.165823 
L 190.573774 33.453797 
L 187.381345 32.4 
L 187.359774 32.485443 
L 187.359774 32.485443 
" clip-path="url(#pd4c68ca33f)" style="fill: none; stroke: #000000; stroke-width: 3"/>
   </g>
  </g>
 </g>
 <defs>
  <clipPath id="pd4c68ca33f">
   <rect x="7.2" y="7.2" width="210.534227" height="554.4"/>
  </clipPath>
 </defs>
</svg>
