<?xml version="1.0" encoding="utf-8" standalone="no"?>
<!DOCTYPE svg PUBLIC "-//W3C//DTD SVG 1.1//EN"
  "http://www.w3.org/Graphics/SVG/1.1/DTD/svg11.dtd">
<svg xmlns:xlink="http://www.w3.org/1999/xlink" width="477.706188pt" height="568.8pt" viewBox="0 0 477.706188 568.8" xmlns="http://www.w3.org/2000/svg" version="1.1">
 <metadata>
  <rdf:RDF xmlns:dc="http://purl.org/dc/elements/1.1/" xmlns:cc="http://creativecommons.org/ns#" xmlns:rdf="http://www.w3.org/1999/02/22-rdf-syntax-ns#">
   <cc:Work>
    <dc:type rdf:resource="http://purl.org/dc/dcmitype/StillImage"/>
    <dc:date>2022-12-10T05:02:51.993084</dc:date>
    <dc:format>image/svg+xml</dc:format>
    <dc:creator>
     <cc:Agent>
      <dc:title>Matplotlib v3.6.2, https://matplotlib.org/</dc:title>
     </cc:Agent>
    </dc:creator>
   </cc:Work>
  </rdf:RDF>
 </metadata>
 <defs>
  <style type="text/css">*{stroke-linejoin: round; stroke-linecap: butt}</style>
 </defs>
 <g id="figure_1">
  <g id="patch_1">
   <path d="M 0 568.8 
L 477.706188 568.8 
L 477.706188 0 
L 0 0 
z
" style="fill: #ffffff"/>
  </g>
  <g id="axes_1">
   <g id="LineCollection_1">
    <path d="M 230.742143 215.991572 
L 230.447051 215.742598 
L 230.004412 215.775072 
L 227.807611 215.136399 
L 227.405957 214.50855 
L 227.283001 213.956477 
L 227.283001 215.580223 
L 225.971478 218.83854 
L 225.537036 219.531339 
L 225.00423 219.996813 
L 223.250068 220.689611 
L 222.372987 221.29581 
L 221.864772 221.945308 
L 221.249995 223.460805 
L 219.913881 225.21445 
L 219.545015 226.145398 
L 218.249886 230.540338 
L 218.110537 230.810962 
L 217.118697 231.817685 
L 216.78262 232.326459 
L 216.553103 232.932657 
L 216.282601 234.751253 
L 215.348141 236.0719 
L 214.487454 237.121923 
L 213.208719 238.994643 
L 212.634928 240.282815 
L 212.38082 240.791589 
L 211.577512 241.668412 
L 210.987327 243.043184 
L 209.634819 246.626251 
L 208.962663 247.925248 
L 206.57733 250.891291 
L 204.823168 254.463532 
L 204.864153 254.972306 
L 203.511645 256.866677 
L 202.601776 258.230624 
L 200.486945 261.618841 
L 198.831147 265.364282 
L 197.945869 267.702476 
L 196.913045 270.787594 
L 196.593361 271.545342 
L 194.904775 273.385588 
L 193.667025 275.767083 
L 192.076803 278.754776 
L 190.90463 281.850718 
L 190.101322 283.387865 
L 189.298014 284.979136 
L 187.560246 287.51218 
L 184.49456 293.574166 
L 183.5601 295.468537 
L 182.658428 297.254658 
L 180.953448 300.6537 
L 180.256701 302.082596 
L 178.14187 305.211014 
L 177.018879 306.412586 
L 176.051631 307.884783 
L 170.338308 319.131932 
L 169.698941 319.878855 
L 166.297178 325.291342 
L 159.059209 337.924088 
L 158.001794 339.569484 
L 154.403303 343.531425 
L 153.280311 345.057746 
L 152.222895 346.670667 
L 151.722877 346.627367 
L 151.321223 347.601615 
L 151.034328 349.171236 
L 150.624477 350.210434 
L 150.058882 350.816633 
L 148.345705 351.660981 
L 147.132546 352.635228 
L 146.460391 353.284727 
L 146.59974 356.889444 
L 146.68171 359.444138 
L 146.140707 361.652432 
L 145.353793 363.774127 
L 144.960336 364.185476 
L 144.34556 365.527773 
L 144.189816 367.714418 
L 143.976694 369.987663 
L 143.829148 372.369157 
L 143.681601 373.365055 
L 143.435691 374.220228 
L 143.02584 374.848077 
L 142.394669 375.324376 
L 141.558573 376.374398 
L 141.050358 376.634197 
L 140.451976 376.417698 
L 139.960154 375.389325 
L 139.492924 375.432625 
L 138.558464 376.136249 
L 138.107628 376.493473 
L 137.705974 376.645022 
L 137.533837 377.326996 
L 137.52564 378.918267 
L 137.337108 380.206439 
L 136.968242 380.888413 
L 135.730492 382.468859 
L 134.861608 383.919405 
L 134.091089 384.969428 
L 133.689435 386.051926 
L 131.88609 389.299418 
L 131.107374 391.269563 
L 130.533582 392.557735 
L 129.377803 394.343856 
L 128.566298 395.437179 
L 127.738399 396.562976 
L 126.025222 398.478997 
L 123.853011 400.319242 
L 123.352993 400.503267 
L 123.074295 401.239365 
L 122.902157 402.646612 
L 122.582474 403.090436 
L 122.320169 404.540982 
L 121.738181 406.987427 
L 120.041398 410.007595 
L 116.737999 415.788131 
L 115.246141 418.2887 
L 113.696905 420.886694 
L 109.401666 428.853876 
L 105.253975 436.279808 
L 104.098195 438.866977 
L 102.704702 441.356722 
L 101.721059 443.012943 
L 100.737417 444.679989 
L 99.10621 448.068206 
L 98.565207 448.923379 
L 97.458609 451.510548 
L 96.794651 453.026044 
L 95.212626 455.591563 
L 94.327348 456.306012 
L 93.630601 456.479211 
L 92.999431 456.86891 
L 92.45023 457.442634 
L 91.745287 458.893181 
L 90.827221 462.108198 
L 89.761608 462.800997 
L 89.400939 463.320595 
L 88.130401 466.037664 
L 86.179511 469.544956 
L 84.179438 473.149672 
L 82.941688 475.260543 
L 76.015207 487.698439 
L 74.572531 489.679409 
L 72.588853 493.132576 
L 69.555956 499.476011 
L 68.785436 501.727606 
L 66.850939 504.542099 
L 64.334454 509.066939 
L 62.809809 511.307708 
L 61.629438 513.873228 
L 58.580147 519.03674 
L 56.957137 521.125961 
L 55.088216 523.085281 
L 55.301339 524.146129 
L 55.416097 524.665727 
L 54.465243 526.668348 
L 53.711117 527.93487 
L 52.07991 530.370489 
L 52.022531 530.208114 
L 51.711044 530.099865 
L 50.178202 528.833343 
L 49.579819 528.129719 
L 49.588016 528.367869 
L 49.588016 528.367869 
L 39.653229 523.085281 
L 38.325312 522.814657 
L 36.800666 522.273408 
L 33.587435 520.173363 
L 30.513552 518.950141 
L 29.169241 518.463017 
L 28.439707 517.348044 
L 28.259372 516.871746 
L 28.464298 515.778423 
L 28.620041 514.9016 
L 28.997104 513.927352 
L 29.218423 513.429404 
L 31.31686 511.426783 
L 31.710317 510.80976 
L 32.111971 510.70151 
L 31.997213 510.669035 
L 31.874258 510.344286 
L 32.267715 509.943762 
L 32.185744 509.283438 
L 31.816879 508.168466 
L 31.415225 506.999369 
L 31.054556 504.293125 
L 31.210299 503.351352 
L 31.915243 502.712679 
L 31.972622 501.879155 
L 32.202138 501.467806 
L 32.972658 498.458463 
L 32.800521 494.442398 
L 33.062826 493.652175 
L 33.472676 492.926901 
L 34.071059 492.591327 
L 35.325203 492.255753 
L 36.546559 492.136678 
L 37.66955 492.439777 
L 42.120532 493.273301 
L 49.120786 494.388273 
L 50.653629 494.832097 
L 52.85043 495.589845 
L 55.047231 496.488318 
L 55.907918 496.693993 
L 66.342724 493.64135 
L 67.400139 493.922799 
L 68.039507 494.344973 
L 68.932982 495.362521 
L 71.998667 496.206869 
L 73.195432 497.278541 
L 73.875785 497.852265 
L 74.826639 498.296089 
L 76.039798 498.988887 
L 78.334963 500.298709 
L 78.974331 500.634283 
L 80.548158 501.164707 
L 81.999031 501.792556 
L 85.113898 503.416302 
L 86.212299 504.011676 
L 87.204138 504.780249 
L 88.146795 505.613772 
L 89.630456 506.382345 
L 94.081437 509.348388 
L 95.237217 509.922112 
L 95.704447 510.214386 
L 96.155283 510.70151 
L 97.171714 511.253584 
L 98.507828 511.513383 
L 99.253757 511.556683 
L 100.114444 511.210284 
L 102.475185 511.037084 
L 103.229311 511.275234 
L 105.131019 511.470083 
L 106.057283 511.156159 
L 106.950758 511.448433 
L 107.737672 512.087107 
L 108.352448 513.137129 
L 109.016407 513.451054 
L 109.598395 514.089727 
L 110.721387 514.685101 
L 111.245996 513.992302 
L 112.524731 513.505178 
L 112.8854 513.656728 
L 113.295251 514.111377 
L 113.770678 514.9882 
L 114.172332 516.049047 
L 114.729729 516.330497 
L 115.410082 516.395447 
L 116.041252 517.813518 
L 117.024894 519.242415 
L 117.22982 519.859439 
L 117.467533 520.216663 
L 117.770823 520.433162 
L 118.352812 520.671312 
L 120.516825 524.135304 
L 120.426657 524.828102 
L 120.697159 525.575025 
L 121.10701 526.376073 
L 121.287344 526.516798 
L 121.762772 525.986374 
L 123.11528 525.066251 
L 123.721859 524.622427 
L 124.123513 524.784802 
L 124.705502 525.293576 
L 125.221914 526.105449 
L 125.705538 527.393621 
L 126.746559 534.429855 
L 128.066279 535.306678 
L 129.46797 535.685552 
L 131.066389 536.4 
L 131.976258 536.215975 
L 133.73042 535.642252 
L 134.599304 535.014403 
L 134.951776 534.581404 
L 134.263226 534.33243 
L 134.336999 534.26748 
L 134.763244 533.639631 
L 135.582946 531.604536 
L 137.246941 531.236487 
L 137.402684 530.489564 
L 137.681383 529.91584 
L 138.287963 529.082317 
L 138.550267 528.844168 
L 140.337217 525.033776 
L 141.919242 522.749707 
L 143.197977 521.21256 
L 144.501303 519.469739 
L 145.066897 517.07742 
L 145.157065 516.070697 
L 145.107883 515.128925 
L 145.558719 513.635078 
L 146.90303 510.87471 
L 147.075167 508.168466 
L 148.00143 507.605567 
L 150.337581 504.542099 
L 151.116298 503.362177 
L 152.075349 502.030705 
L 153.936072 500.450259 
L 154.772168 499.681686 
L 155.083655 499.400236 
L 155.73122 498.306914 
L 156.28042 497.386791 
L 156.813226 496.888842 
L 157.960809 496.120269 
L 158.526403 495.416646 
L 159.665789 494.713022 
L 160.296959 494.399098 
L 160.346142 493.922799 
L 161.198632 492.537202 
L 162.567534 490.090758 
L 162.977385 489.722709 
L 163.083946 489.462909 
L 162.682292 489.00826 
L 161.493724 488.986611 
L 159.887108 489.105685 
L 159.977276 489.33301 
L 159.616607 489.408785 
L 159.493652 489.571159 
L 158.477221 489.841784 
L 157.82146 489.895908 
L 157.509973 489.809309 
L 156.550922 489.170635 
L 156.313208 488.813411 
L 155.821387 488.499487 
L 155.649249 488.218037 
L 155.862372 487.536064 
L 155.657446 484.905595 
L 155.12464 483.281849 
L 155.067261 482.459151 
L 155.116443 480.71633 
L 156.575513 476.624489 
L 156.796832 475.985816 
L 156.288617 475.141468 
L 156.993561 472.943998 
L 159.018224 469.111957 
L 159.788744 467.953685 
L 160.329747 466.827887 
L 160.788781 465.583015 
L 161.444542 464.284018 
L 162.993779 461.999948 
L 164.444651 460.776726 
L 170.428475 456.598286 
L 173.723677 453.567293 
L 175.371278 452.192521 
L 179.346832 448.42543 
L 180.461627 447.407882 
L 181.355102 446.37951 
L 181.99447 445.719186 
L 183.846996 443.240267 
L 184.945396 441.432496 
L 185.633946 439.862875 
L 185.65034 439.170077 
L 188.75701 431.10547 
L 190.29805 429.0812 
L 190.437399 428.063653 
L 189.83082 426.710531 
L 189.306211 426.212582 
L 189.109482 425.508959 
L 190.257065 423.852737 
L 190.396414 423.040864 
L 189.847214 420.410395 
L 190.035745 418.775824 
L 190.248868 417.985601 
L 190.90463 417.152078 
L 191.724331 416.35103 
L 193.576858 415.052033 
L 194.355575 414.499959 
L 196.355647 412.518989 
L 198.626222 409.585421 
L 199.298377 408.026624 
L 200.741053 403.794059 
L 202.011591 401.12029 
L 205.987145 393.228884 
L 207.397032 391.074714 
L 210.446324 387.340098 
L 211.970969 385.781301 
L 213.725131 384.633854 
L 215.70881 383.789506 
L 217.864626 383.259082 
L 220.036836 382.988458 
L 220.74178 382.988458 
L 221.422132 383.118357 
L 222.053303 383.378157 
L 222.651685 383.854456 
L 223.881238 385.911201 
L 224.537 386.658124 
L 225.914099 387.491647 
L 227.373168 388.108671 
L 228.938799 388.39012 
L 230.488036 388.32517 
L 231.996287 388.011246 
L 233.340599 387.350922 
L 235.217716 386.051926 
L 237.004666 384.525604 
L 238.037491 383.269907 
L 239.086709 381.094087 
L 240.04576 378.929092 
L 240.95563 376.590898 
L 242.136 374.371778 
L 243.12784 373.029481 
L 244.390181 371.860384 
L 246.373859 370.301587 
L 247.750959 369.413939 
L 249.210028 368.591241 
L 251.939635 366.642746 
L 253.062627 365.506123 
L 254.620061 363.633403 
L 256.062736 361.154484 
L 257.169334 358.51319 
L 258.243143 354.875998 
L 258.628403 352.721828 
L 258.464463 350.567658 
L 258.325113 349.734135 
L 257.628367 347.969664 
L 256.029948 344.862897 
L 255.734855 344.029373 
L 255.439763 342.264903 
L 255.44796 341.333955 
L 255.988963 338.573586 
L 256.677513 336.90654 
L 259.120224 333.323473 
L 260.185837 331.970352 
L 261.88262 330.130106 
L 263.75154 328.54966 
L 265.743416 327.207363 
L 268.86648 325.367117 
L 269.94029 324.11142 
L 270.612445 322.844898 
L 270.833765 322.162924 
L 271.046887 320.127829 
L 270.907538 318.233459 
L 270.776386 315.981864 
L 271.432147 313.329745 
L 272.989581 308.231182 
L 273.35025 306.098662 
L 273.784692 304.864615 
L 275.432293 300.090801 
L 276.178222 298.15313 
L 279.391453 291.398346 
L 281.448905 288.789527 
L 282.055484 288.389003 
L 282.744034 288.226629 
L 283.899814 287.328156 
L 287.883565 282.695066 
L 289.867244 279.631599 
L 290.506611 278.440851 
L 293.908374 270.235521 
L 294.933002 268.351975 
L 295.523187 267.117928 
L 297.064227 264.855508 
L 298.433129 263.253412 
L 299.990563 261.781215 
L 301.220116 260.926042 
L 304.023496 259.518796 
L 305.638309 259.172396 
L 310.269625 258.079074 
L 311.79427 258.089899 
L 314.925532 258.522898 
L 319.450287 259.269821 
L 320.999523 258.869297 
L 322.565154 258.263098 
L 323.999632 257.407925 
L 325.1882 256.368728 
L 326.114463 255.015606 
L 328.13093 251.410889 
L 332.565517 243.389583 
L 334.762319 239.297743 
L 339.385438 230.865087 
L 340.106775 229.641865 
L 342.434729 225.290225 
L 344.943017 221.046835 
L 352.656412 207.136743 
L 353.992526 204.181525 
L 354.705667 201.90828 
L 354.992562 200.436083 
L 355.377822 197.221066 
L 355.394216 194.731322 
L 355.369625 193.0751 
L 355.508975 191.321454 
L 356.033584 186.82909 
L 356.189327 184.209446 
L 356.008993 181.763002 
L 355.558157 180.21503 
L 354.976168 178.753659 
L 353.328567 175.874216 
L 352.541654 174.477794 
L 352.344925 173.741695 
L 352.271152 172.117949 
L 352.517062 170.461728 
L 353.000687 168.816332 
L 353.664645 167.170936 
L 356.01719 162.397122 
L 358.754994 157.958882 
L 362.287909 153.704667 
L 363.271552 152.654645 
L 364.222406 151.539672 
L 366.607739 149.223128 
L 367.042181 148.887553 
L 367.468426 148.800954 
L 367.812701 148.974153 
L 368.173369 149.753551 
L 368.525841 151.117498 
L 369.025859 153.823742 
L 369.689818 155.599038 
L 370.304594 156.73566 
L 370.706248 157.222784 
L 373.911283 159.874903 
L 374.460483 161.23885 
L 374.698197 162.786821 
L 375.091654 168.156009 
L 375.665445 168.783857 
L 376.075296 169.043656 
L 376.198251 168.989532 
L 376.632693 167.982809 
L 378.378658 164.345617 
L 379.370498 163.587869 
L 380.419716 161.866698 
L 381.239418 160.058927 
L 382.329622 156.746485 
L 382.60832 156.172761 
L 383.018171 155.750587 
L 383.575569 155.512438 
L 384.190345 155.479963 
L 384.755939 155.674813 
L 385.608429 156.540811 
L 386.001886 157.049584 
L 387.698669 157.991357 
L 388.7151 158.651681 
L 389.641363 159.539329 
L 390.043017 160.080577 
L 393.584129 163.15487 
L 394.420225 163.382195 
L 396.313737 163.06827 
L 396.780967 162.689396 
L 397.944944 160.946575 
L 399.231876 158.879005 
L 402.535274 153.877867 
L 404.027132 151.247398 
L 404.420589 150.576249 
L 405.805885 147.426182 
L 407.379713 144.806538 
L 408.765009 142.262669 
L 410.740491 138.279078 
L 411.478222 137.099156 
L 412.215954 135.875934 
L 412.42088 135.139835 
L 415.125896 130.777371 
L 416.109538 129.456724 
L 416.773497 128.136077 
L 417.8637 126.62058 
L 419.962137 123.189063 
L 420.535929 121.305518 
L 420.609702 120.39622 
L 420.888401 119.692596 
L 422.216318 117.938951 
L 423.454068 115.665706 
L 423.781948 115.211057 
L 423.913101 114.745583 
L 423.872116 114.323409 
L 423.978677 113.93371 
L 424.888546 112.472338 
L 426.06072 110.393943 
L 426.99518 108.131523 
L 428.077187 106.053128 
L 431.167463 101.355089 
L 431.454359 100.597341 
L 431.503541 99.752993 
L 432.126514 98.324096 
L 439.339891 85.442376 
L 440.85634 83.179957 
L 441.454722 81.989209 
L 442.299015 80.982487 
L 442.971171 79.813389 
L 444.364664 76.760747 
L 446.102432 73.827178 
L 446.856558 71.986933 
L 448.118899 69.843588 
L 449.307467 67.992517 
L 449.446816 67.505393 
L 449.348452 66.466196 
L 449.143526 66.022372 
L 448.381203 65.426998 
L 441.635057 61.530007 
L 440.462883 61.086183 
L 438.733312 60.057811 
L 436.552905 58.683039 
L 434.880713 57.676316 
L 433.73313 57.037643 
L 432.610138 56.344844 
L 427.527986 53.627776 
L 425.175442 52.382903 
L 423.650796 51.484431 
L 421.872043 50.607608 
L 420.150669 49.65501 
L 418.962101 49.081286 
L 416.125932 47.34929 
L 414.412755 46.418342 
L 410.625732 44.220872 
L 409.535529 43.582199 
L 403.322188 40.378006 
L 399.41221 38.364561 
L 396.502268 37.000614 
L 395.321897 36.426891 
L 393.116899 35.160369 
L 392.559502 34.900569 
L 390.788946 34.370145 
L 389.624969 33.742297 
L 388.592144 32.973724 
L 387.47735 32.5299 
L 386.977332 32.4 
L 386.526496 32.42165 
L 386.141236 32.638149 
L 385.460883 33.460848 
L 384.346088 35.517593 
L 382.968989 37.888262 
L 382.296834 39.111484 
L 379.550832 44.599747 
L 377.337637 48.420963 
L 376.116281 50.250383 
L 373.476841 55.641221 
L 372.362046 57.297442 
L 372.091545 58.044365 
L 371.943998 58.369114 
L 371.632512 58.553139 
L 371.083311 59.278412 
L 370.402959 60.44751 
L 369.911137 61.291858 
L 369.214391 62.62333 
L 367.943853 64.831624 
L 367.747124 65.351223 
L 367.517608 66.574445 
L 367.124151 67.029094 
L 366.558557 67.375493 
L 365.935583 67.581168 
L 364.54209 67.656943 
L 362.361683 67.386318 
L 360.304231 66.88837 
L 358.254976 66.379596 
L 355.418807 66.022372 
L 353.484311 65.827522 
L 351.680966 65.210499 
L 349.312028 64.3878 
L 348.20543 64.441925 
L 347.639836 64.615125 
L 346.17257 65.524423 
L 345.443035 66.228046 
L 343.606902 69.334814 
L 343.180657 70.817835 
L 343.00852 72.246732 
L 343.033111 73.231805 
L 343.320007 74.758126 
L 343.754449 75.710724 
L 344.32824 76.446822 
L 345.057775 77.117971 
L 345.967644 77.583445 
L 348.074278 78.135518 
L 350.090745 78.438618 
L 352.566245 79.607715 
L 353.025278 79.943289 
L 353.451523 80.397938 
L 354.385983 81.945909 
L 354.86141 83.309856 
L 355.500777 86.330024 
L 355.443398 87.932121 
L 355.41061 88.549144 
L 355.79587 90.49764 
L 357.271334 95.942602 
L 357.304122 97.685423 
L 356.984438 99.439069 
L 356.386056 101.171065 
L 355.484383 102.838111 
L 354.361392 104.375257 
L 352.918716 105.728379 
L 351.385874 106.962426 
L 349.721879 108.012449 
L 347.918535 108.878447 
L 343.844616 110.318168 
L 341.85274 111.108392 
L 340.901886 111.573865 
L 340.024805 112.169239 
L 338.713282 113.836285 
L 337.287001 116.423454 
L 336.705012 118.231225 
L 336.098433 120.049821 
L 335.17217 121.489542 
L 333.93442 122.647815 
L 332.483547 123.546288 
L 330.368716 124.44476 
L 328.237491 125.159209 
L 326.163645 125.927782 
L 324.893107 126.469031 
L 322.401213 127.832978 
L 321.294616 128.7098 
L 317.999414 132.346992 
L 316.163282 135.15066 
L 314.671424 138.062579 
L 313.818934 139.837875 
L 309.720425 150.48965 
L 308.195779 152.817019 
L 306.712118 154.592315 
L 305.425186 155.663988 
L 303.351341 157.060409 
L 301.220116 158.326931 
L 298.736419 160.307902 
L 297.711791 161.509474 
L 296.941271 162.960021 
L 296.416662 164.540467 
L 296.187146 166.110088 
L 296.129767 169.184381 
L 296.310101 173.655096 
L 296.072387 175.159767 
L 295.588763 176.588664 
L 294.908411 177.876836 
L 294.064118 179.056758 
L 293.088672 180.020181 
L 291.990272 180.810404 
L 290.818098 181.459902 
L 288.358992 182.401675 
L 286.547451 182.964574 
L 283.35881 184.155321 
L 282.170243 184.815645 
L 280.424278 186.038867 
L 278.227476 187.857463 
L 277.235637 188.864185 
L 275.694597 190.466281 
L 273.194506 193.897798 
L 270.620642 198.942237 
L 269.825532 200.901557 
L 269.382893 202.936652 
L 268.850086 206.898593 
L 268.891071 208.814614 
L 269.071406 210.773934 
L 269.604212 212.67913 
L 271.587891 218.567916 
L 272.391199 221.31746 
L 272.522351 222.724706 
L 272.538745 224.868051 
L 272.391199 226.167048 
L 271.850195 228.180494 
L 271.26001 229.555265 
L 270.907538 230.172289 
L 270.350141 230.746013 
L 269.186164 232.456359 
L 266.571315 235.920351 
L 265.218807 237.360072 
L 261.931802 240.31529 
L 257.972642 242.653485 
L 256.988999 243.573608 
L 255.382384 245.695303 
L 254.792198 246.052527 
L 254.193816 246.106652 
L 252.89049 245.771078 
L 252.734746 245.457153 
L 253.185582 243.876707 
L 254.398741 240.44519 
L 254.734819 238.940518 
L 254.939744 236.017775 
L 255.095488 234.848678 
L 255.234837 233.614631 
L 255.202049 232.337284 
L 254.75941 231.124887 
L 254.095451 229.988264 
L 252.406865 227.844919 
L 251.447814 226.827372 
L 250.857629 226.480973 
L 250.218261 226.351073 
L 249.64447 226.383548 
L 249.062482 226.600047 
L 248.554266 226.946446 
L 247.824732 228.061419 
L 246.521406 231.157362 
L 245.709901 232.911008 
L 245.332838 233.463081 
L 244.44756 234.329079 
L 243.357356 236.721399 
L 242.963899 237.403372 
L 242.43929 238.020396 
L 241.840908 238.48587 
L 241.070388 238.669894 
L 240.299868 238.648244 
L 239.635909 238.42092 
L 235.611173 236.190975 
L 233.594706 234.610529 
L 232.45532 233.93938 
L 229.250286 232.272334 
L 228.725677 232.109959 
L 227.504321 231.87181 
L 225.561627 231.049112 
L 221.241798 228.245443 
L 217.96299 226.838197 
L 215.667825 225.34435 
L 214.602212 224.770627 
L 213.610373 224.034528 
L 212.618534 223.525754 
L 211.667679 222.789656 
L 207.708519 220.494761 
L 206.659301 219.931863 
L 205.052685 219.11999 
L 203.077203 217.940067 
L 200.880402 216.92252 
L 200.880402 216.92252 
" clip-path="url(#p8ca76039d3)" style="fill: none; stroke: #000000; stroke-width: 3"/>
   </g>
  </g>
 </g>
 <defs>
  <clipPath id="p8ca76039d3">
   <rect x="7.2" y="7.2" width="463.306188" height="554.4"/>
  </clipPath>
 </defs>
</svg>
