<?xml version="1.0" encoding="utf-8" standalone="no"?>
<!DOCTYPE svg PUBLIC "-//W3C//DTD SVG 1.1//EN"
  "http://www.w3.org/Graphics/SVG/1.1/DTD/svg11.dtd">
<svg xmlns:xlink="http://www.w3.org/1999/xlink" width="387.796865pt" height="568.8pt" viewBox="0 0 387.796865 568.8" xmlns="http://www.w3.org/2000/svg" version="1.1">
 <metadata>
  <rdf:RDF xmlns:dc="http://purl.org/dc/elements/1.1/" xmlns:cc="http://creativecommons.org/ns#" xmlns:rdf="http://www.w3.org/1999/02/22-rdf-syntax-ns#">
   <cc:Work>
    <dc:type rdf:resource="http://purl.org/dc/dcmitype/StillImage"/>
    <dc:date>2022-12-23T05:02:51.355949</dc:date>
    <dc:format>image/svg+xml</dc:format>
    <dc:creator>
     <cc:Agent>
      <dc:title>Matplotlib v3.6.2, https://matplotlib.org/</dc:title>
     </cc:Agent>
    </dc:creator>
   </cc:Work>
  </rdf:RDF>
 </metadata>
 <defs>
  <style type="text/css">*{stroke-linejoin: round; stroke-linecap: butt}</style>
 </defs>
 <g id="figure_1">
  <g id="patch_1">
   <path d="M 0 568.8 
L 387.796865 568.8 
L 387.796865 0 
L 0 0 
z
" style="fill: #ffffff"/>
  </g>
  <g id="axes_1">
   <g id="LineCollection_1">
    <path d="M 227.734501 171.356273 
L 227.763988 171.132386 
L 228.206289 171.258931 
L 230.896957 172.524382 
L 233.366474 173.809302 
L 234.118386 174.023455 
L 235.128308 174.597775 
L 236.175089 175.29864 
L 238.35711 176.924258 
L 240.354838 178.111836 
L 242.330452 178.744561 
L 244.048056 178.773764 
L 244.645163 178.37466 
L 246.54706 175.795087 
L 246.723981 175.006613 
L 247.048335 174.811928 
L 248.272036 175.318109 
L 249.805348 175.162361 
L 251.478722 174.938473 
L 252.319095 174.967676 
L 253.999841 175.454388 
L 255.69533 175.911897 
L 257.324474 176.661434 
L 258.09113 177.08974 
L 262.351969 180.311774 
L 263.877909 181.45068 
L 264.592963 181.742707 
L 265.919868 182.618789 
L 267.991313 183.728492 
L 273.357905 185.772682 
L 277.618744 187.096539 
L 278.916162 187.544314 
L 283.530841 189.792923 
L 285.425366 191.077843 
L 286.206765 191.730037 
L 286.774386 192.391965 
L 287.253546 193.122033 
L 287.975972 194.757386 
L 288.366671 196.49008 
L 289.103841 200.004141 
L 289.664089 201.873115 
L 290.423374 203.527936 
L 291.418552 205.221693 
L 292.030403 205.932293 
L 293.180387 206.964122 
L 293.593201 207.733127 
L 294.551521 208.745488 
L 295.996373 209.728646 
L 296.866233 210.643665 
L 297.9425 212.279017 
L 299.497927 214.67364 
L 300.566822 216.055902 
L 301.613603 217.340822 
L 301.996931 217.915142 
L 303.581845 219.6089 
L 303.898827 220.222157 
L 304.002031 220.913288 
L 303.913571 222.1106 
L 303.309092 223.356582 
L 296.269126 236.312855 
L 295.030681 238.678276 
L 294.558893 239.476483 
L 293.423652 240.907417 
L 286.767014 252.666378 
L 285.270561 254.749506 
L 284.039488 257.075989 
L 281.997529 261.105964 
L 280.486332 264.162515 
L 279.977685 264.853646 
L 279.277375 266.401391 
L 276.844716 272.086187 
L 274.537376 276.20377 
L 272.687081 280.224011 
L 271.890939 281.684147 
L 270.195449 285.071663 
L 269.347705 286.366316 
L 267.740676 289.237917 
L 266.000956 293.092676 
L 263.538811 297.132386 
L 262.558376 298.339431 
L 261.740118 299.702225 
L 261.069294 301.181829 
L 260.450072 302.272064 
L 259.558097 304.30652 
L 258.186962 306.963968 
L 254.965533 312.697435 
L 253.623885 315.666378 
L 252.503387 317.671632 
L 251.677758 318.995488 
L 250.107587 321.944963 
L 248.795426 324.067027 
L 245.10958 330.511094 
L 243.310887 333.489771 
L 241.335273 336.19589 
L 240.170546 338.259549 
L 239.44812 339.320581 
L 239.35966 339.729419 
L 239.35966 339.729419 
L 239.064792 339.972775 
L 238.556145 341.179821 
L 237.361931 343.623115 
L 235.998168 346.329234 
L 231.582524 354.213968 
L 228.707564 359.996106 
L 227.94828 361.319963 
L 223.186166 370.528554 
L 221.770802 372.202843 
L 218.460912 377.916842 
L 217.126635 379.990235 
L 216.116713 382.122033 
L 215.843961 382.813164 
L 214.384366 383.903399 
L 213.448161 385.821044 
L 210.794351 390.941255 
L 210.234103 392.050958 
L 208.634446 394.620797 
L 208.420666 395.370334 
L 208.317463 396.149073 
L 208.140542 397.40479 
L 208.413295 398.358745 
L 209.504305 401.006459 
L 208.892455 401.405562 
L 207.91202 401.493171 
L 207.373886 402.067491 
L 207.137992 402.963041 
L 206.924213 403.67364 
L 205.729999 404.656799 
L 205.08129 405.931984 
L 204.77905 406.516038 
L 204.196687 407.246106 
L 203.518491 408.715977 
L 202.309533 412.531799 
L 202.184215 412.940637 
L 201.668196 413.738844 
L 201.881975 413.806984 
L 201.845117 413.962732 
L 202.243188 414.984827 
L 202.139984 415.919314 
L 201.240638 417.895365 
L 200.872053 420.406799 
L 199.722069 421.136867 
L 199.523034 421.866934 
L 199.117591 422.489926 
L 198.402536 423.171323 
L 197.63588 423.696972 
L 196.920826 424.417305 
L 196.146798 424.787206 
L 194.893611 426.042923 
L 193.787857 426.519901 
L 192.822165 427.415451 
L 191.052959 429.751669 
L 190.094639 430.754295 
L 189.372213 431.669314 
L 188.310689 432.681675 
L 187.654609 433.586959 
L 186.70366 435.144438 
L 186.202385 436.263875 
L 185.332526 438.327534 
L 183.482231 441.315946 
L 181.838343 444.528245 
L 178.661144 449.599784 
L 178.005063 450.076761 
L 177.194177 451.137794 
L 175.882016 452.870488 
L 174.916324 454.651854 
L 174.488766 455.644747 
L 174.127553 456.550031 
L 173.63365 457.552658 
L 171.864443 461.923331 
L 170.611256 463.753368 
L 170.036264 465.262176 
L 169.881458 466.16746 
L 169.947803 466.907262 
L 169.122174 468.27979 
L 167.773154 469.769129 
L 167.139189 471.005377 
L 166.903294 471.647837 
L 166.593683 473.01063 
L 165.989205 474.188473 
L 164.463264 476.08665 
L 163.22482 478.004295 
L 160.254028 483.951916 
L 158.772318 485.830624 
L 158.049892 487.173949 
L 157.290607 489.111063 
L 156.892536 490.288906 
L 156.251199 491.320735 
L 155.794154 492.372033 
L 154.82109 493.900309 
L 154.843206 493.880841 
L 154.916922 493.861372 
L 154.784232 493.910043 
L 155.248649 494.854265 
L 155.521401 495.243634 
L 155.565631 495.866625 
L 155.12333 496.995797 
L 154.25347 498.24178 
L 153.884886 498.640884 
L 152.491636 499.195735 
L 151.76921 499.789524 
L 151.577546 500.178894 
L 151.562802 500.529326 
L 151.179474 501.220457 
L 150.258013 502.875278 
L 149.572445 504.452225 
L 148.732072 505.766347 
L 147.847469 507.820272 
L 147.655805 508.560074 
L 147.405168 511.762639 
L 147.161902 511.869716 
L 147.073442 511.859981 
L 146.881778 511.684765 
L 146.056148 511.606891 
L 145.525386 511.577689 
L 144.825075 511.801576 
L 144.227968 512.152009 
L 143.888871 512.677658 
L 143.66772 514.137794 
L 142.982152 516.61029 
L 142.849462 518.391656 
L 142.569338 519.209333 
L 142.060691 519.861527 
L 140.918078 522.041996 
L 140.601096 522.791533 
L 139.569059 523.930439 
L 138.603367 525.166687 
L 137.504985 525.458714 
L 136.922621 525.925958 
L 135.639947 527.62945 
L 135.160787 528.573671 
L 134.770087 529.362145 
L 134.069776 530.306366 
L 132.506977 531.912515 
L 129.786823 536.137176 
L 129.263433 536.4 
L 128.651582 536.205315 
L 126.992951 535.095612 
L 125.658675 534.346075 
L 124.737213 533.781489 
L 121.132456 532.155871 
L 118.611337 529.878059 
L 118.205894 529.430284 
L 117.977371 528.807293 
L 117.616159 528.320581 
L 116.731555 527.69759 
L 116.045988 527.512639 
L 114.667482 527.006459 
L 113.812365 526.636557 
L 111.718805 524.193263 
L 111.475539 524.212732 
L 110.627794 523.755222 
L 110.148634 523.132231 
L 109.610501 522.879141 
L 109.153456 522.869407 
L 107.686489 523.375587 
L 105.828822 523.073826 
L 104.450316 523.103028 
L 103.978527 522.937546 
L 103.469881 522.606582 
L 102.135604 521.272991 
L 100.771841 520.270365 
L 99.290131 519.277472 
L 97.896881 518.070426 
L 95.14724 515.520056 
L 94.343725 514.828925 
L 93.577069 513.612145 
L 93.237972 513.02809 
L 92.721953 512.327225 
L 89.913338 509.523764 
L 89.072965 509.582169 
L 88.129389 509.854728 
L 87.48068 509.883931 
L 87.031006 510.117553 
L 86.124288 510.253832 
L 85.60827 510.331706 
L 84.185533 511.548486 
L 83.934896 511.976792 
L 83.330417 513.60241 
L 82.482672 516.016502 
L 82.320495 516.81471 
L 81.332688 518.323517 
L 80.90513 519.627905 
L 80.647121 521.204852 
L 80.580776 522.664988 
L 80.455457 523.1517 
L 79.769889 524.426885 
L 79.55611 524.709178 
L 78.818941 524.319808 
L 77.757417 523.443727 
L 77.064478 522.966749 
L 76.039813 522.616316 
L 72.228648 520.65 
L 70.879628 519.034116 
L 69.567467 518.060692 
L 68.373253 517.155408 
L 66.766224 516.318263 
L 65.57201 515.977565 
L 63.898635 514.828925 
L 63.426847 514.332478 
L 62.43904 512.911279 
L 60.677206 511.383004 
L 60.04324 511.032571 
L 59.682027 510.711341 
L 58.347751 510.497188 
L 58.045512 510.876823 
L 54.190117 510.098084 
L 53.165451 509.475093 
L 51.219324 508.102565 
L 49.612295 507.362763 
L 46.707849 506.068109 
L 43.567508 503.975247 
L 42.668161 503.254913 
L 41.820417 502.437237 
L 40.522999 501.24966 
L 39.719484 500.441718 
L 38.834881 499.916069 
L 36.542285 499.06919 
L 36.505426 498.991316 
L 24.172585 471.871724 
L 26.008136 469.535507 
L 28.079582 467.462114 
L 28.846238 466.16746 
L 29.502318 464.755995 
L 29.98885 463.41267 
L 30.571214 461.9428 
L 33.925334 456.725247 
L 34.809937 455.518201 
L 36.276904 452.442182 
L 38.716934 448.217522 
L 39.763714 446.854728 
L 40.508255 445.540606 
L 41.48869 443.6911 
L 43.110463 440.770828 
L 44.002438 438.775309 
L 44.031924 438.833714 
L 43.987694 439.544314 
L 43.995066 440.069963 
L 44.356279 440.556675 
L 45.240882 441.364617 
L 48.196931 442.79555 
L 50.614846 444.177812 
L 52.067069 445.16097 
L 55.671827 447.127287 
L 56.320536 447.750278 
L 57.028218 448.353801 
L 58.99646 449.580315 
L 59.070177 449.784734 
L 58.944858 449.687392 
L 58.738451 449.444036 
L 58.738451 449.444036 
L 57.861219 447.672404 
L 56.128872 447.010476 
L 55.362216 446.640575 
L 54.63979 446.270674 
L 51.049776 444.226483 
L 49.509092 443.399073 
L 48.027382 442.308838 
L 43.825517 439.914215 
L 44.651146 437.646137 
L 45.05659 436.925803 
L 46.324521 434.511712 
L 47.032203 433.051576 
L 48.425453 431.289679 
L 48.985702 431.27021 
L 49.84819 430.686156 
L 49.973508 430.325989 
L 49.98088 429.839277 
L 50.445297 428.778245 
L 51.130864 427.357046 
L 51.735343 425.877441 
L 52.207131 425.157108 
L 52.818982 425.624351 
L 54.514471 426.334951 
L 55.16318 426.315482 
L 57.617954 425.906644 
L 58.251919 425.857973 
L 60.949959 426.889802 
L 62.30635 427.327843 
L 63.345759 427.75615 
L 64.407282 428.427812 
L 64.938044 428.641965 
L 67.083207 429.887948 
L 69.080935 431.01712 
L 70.695336 431.815328 
L 72.088586 432.087886 
L 73.304915 432.574598 
L 74.425412 433.119716 
L 79.393933 436.838195 
L 80.551289 437.256768 
L 81.008334 437.558529 
L 82.232035 437.792151 
L 84.178161 438.843449 
L 85.335517 439.193881 
L 88.077787 440.381459 
L 89.566869 441.286743 
L 91.055951 442.114153 
L 92.095359 442.338041 
L 92.677723 442.347775 
L 94.070973 443.340667 
L 94.977691 444.489308 
L 95.228329 445.053894 
L 95.471594 445.472466 
L 95.250444 445.667151 
L 94.218407 445.287515 
L 93.864565 445.336187 
L 93.871937 445.063628 
L 93.894052 445.131768 
L 94.063601 444.859209 
L 95.287302 443.798177 
L 96.798499 441.432756 
L 97.771562 440.099166 
L 99.437565 437.840822 
L 100.388513 437.042614 
L 101.037222 435.913443 
L 101.538497 435.202843 
L 102.850659 432.175494 
L 102.327268 431.406489 
L 102.459959 431.08526 
L 103.595199 430.481737 
L 104.170191 429.751669 
L 104.715697 428.242862 
L 104.863131 427.658807 
L 105.091653 427.211032 
L 105.482353 426.72432 
L 105.865681 425.682756 
L 106.064716 424.787206 
L 107.524312 422.996106 
L 107.524312 422.996106 
L 107.878153 422.188164 
L 108.43103 423.229728 
L 109.116597 423.813782 
L 111.984186 424.699598 
L 113.709162 425.380995 
L 116.901104 427.133158 
L 117.653017 427.395983 
L 118.751399 427.269438 
L 119.296904 427.503059 
L 119.717091 427.804821 
L 122.975379 428.719839 
L 124.368629 429.615389 
L 125.172143 430.209178 
L 125.629188 430.257849 
L 126.233667 429.664061 
L 127.936528 431.299413 
L 127.862811 431.630377 
L 127.560572 432.525927 
L 127.501598 433.499351 
L 127.671147 434.200216 
L 128.415688 434.53118 
L 133.664333 435.942645 
L 134.534193 435.728492 
L 136.185452 436.916069 
L 138.337986 438.629295 
L 139.303678 439.670859 
L 139.738608 440.274382 
L 140.409432 440.68322 
L 140.859105 441.374351 
L 142.244983 442.620334 
L 143.195931 442.552194 
L 144.427004 441.929203 
L 145.23789 441.822126 
L 146.93338 440.391193 
L 149.395525 439.631922 
L 150.007375 439.281489 
L 150.493907 438.522219 
L 151.430112 437.74348 
L 153.81854 436.731119 
L 154.2977 436.176267 
L 154.2977 436.176267 
L 154.098665 435.952379 
L 154.07655 436.010785 
L 153.545788 435.962114 
L 153.324637 436.487763 
L 153.472071 436.701916 
L 153.140345 436.974475 
L 153.221433 437.208096 
L 152.926566 437.470921 
L 152.322087 437.237299 
L 152.145166 437.412515 
L 151.76921 437.256768 
L 151.894529 436.176267 
L 152.174653 435.524073 
L 152.159909 435.212577 
L 152.388432 434.34623 
L 152.72753 433.655099 
L 153.33938 432.934765 
L 154.386161 430.997651 
L 159.074557 422.801422 
L 159.855956 421.078461 
L 162.008491 416.065328 
L 162.421305 415.744098 
L 163.202705 415.082169 
L 167.124445 409.300031 
L 166.940153 409.329234 
L 167.080215 408.326607 
L 167.183419 407.440791 
L 167.846871 406.477101 
L 168.208084 405.883313 
L 168.58404 405.513412 
L 171.547461 403.16746 
L 172.32886 402.125896 
L 173.088144 400.48081 
L 174.923696 396.100402 
L 179.707924 388.682911 
L 181.064316 386.288288 
L 181.322325 385.470612 
L 181.646679 384.857355 
L 182.177441 384.312237 
L 186.600457 379.338041 
L 188.05268 379.016811 
L 188.863566 378.452225 
L 188.716132 377.712423 
L 188.826708 377.975247 
L 188.730876 378.666378 
L 188.340176 379.630068 
L 189.018372 377.897373 
L 189.092089 374.509858 
L 189.187921 373.96474 
L 189.298496 370.70377 
L 189.298496 370.70377 
L 189.512275 370.255995 
L 189.53439 370.051576 
L 189.475417 370.139184 
L 189.379585 370.187855 
L 189.269009 370.06131 
L 189.062602 370.217058 
L 188.760363 370.645365 
L 189.05523 370.898455 
L 189.084717 370.528554 
L 189.460673 370.275464 
L 190.109382 369.516193 
L 190.92764 368.416224 
L 193.286582 365.281799 
L 193.832087 364.347311 
L 194.812522 361.407571 
L 194.878867 360.823517 
L 194.783035 360.161588 
L 192.623129 356.345766 
L 191.436287 355.537824 
L 188.974142 354.408653 
L 187.278652 354.155562 
L 186.762634 354.175031 
L 184.986056 354.739617 
L 185.310411 354.739617 
L 185.730597 354.759085 
L 186.453023 354.282108 
L 187.676724 352.84144 
L 187.448201 352.977719 
L 190.735976 346.669932 
L 192.770563 341.987763 
L 192.490439 341.754141 
L 193.787857 341.033807 
L 194.886239 339.953307 
L 199.471432 331.26063 
L 204.801165 324.651082 
L 206.65146 322.752905 
L 208.398551 321.526391 
L 209.688598 320.796323 
L 210.300448 320.572435 
L 211.583123 320.475093 
L 213.632453 320.338813 
L 214.259047 320.338813 
L 215.718642 320.76712 
L 217.251954 321.604265 
L 218.313478 322.373269 
L 219.780445 323.152009 
L 220.952544 323.70686 
L 222.095156 324.115698 
L 223.348344 324.154635 
L 224.72685 323.950216 
L 226.016896 323.492707 
L 228.434812 321.925494 
L 230.027097 320.728183 
L 230.882213 319.628214 
L 231.87002 317.846848 
L 232.953659 315.25754 
L 233.60974 313.125742 
L 234.405882 311.762948 
L 235.356831 310.478028 
L 236.912258 308.92055 
L 238.018012 308.122342 
L 239.322801 307.421477 
L 240.583361 306.905562 
L 242.728523 305.503832 
L 244.652535 303.780871 
L 245.758289 302.349938 
L 246.709237 300.714586 
L 247.15891 299.604883 
L 248.913373 294.221848 
L 249.119781 292.84932 
L 249.252471 291.44759 
L 249.127152 289.938782 
L 248.714338 288.488381 
L 248.095115 287.145056 
L 247.122052 285.04246 
L 246.694494 283.57259 
L 246.230077 281.32398 
L 246.348024 280.574444 
L 246.900901 279.0267 
L 247.719159 277.644438 
L 251.663015 272.456088 
L 253.410106 270.986218 
L 254.670665 270.110136 
L 258.592405 267.880995 
L 259.130539 267.36508 
L 259.956169 266.187237 
L 260.516417 264.824444 
L 260.700709 263.315637 
L 260.4427 260.444036 
L 260.324753 259.120179 
L 260.450072 257.796323 
L 260.929232 256.569808 
L 261.260958 255.985754 
L 261.998127 253.591131 
L 262.565748 251.284116 
L 263.929511 246.300185 
L 264.688795 244.353337 
L 266.959276 239.087114 
L 270.040644 234.920859 
L 270.917875 234.035043 
L 272.384842 232.681984 
L 274.242509 230.715667 
L 275.340891 229.138721 
L 276.07806 228.05822 
L 277.589257 225.868016 
L 279.292118 222.392892 
L 281.21613 217.447899 
L 282.144963 215.812546 
L 283.13277 214.196663 
L 284.164807 212.775464 
L 285.742349 210.964895 
L 287.260917 209.864926 
L 288.425645 209.2322 
L 291.064711 208.219839 
L 295.266576 206.983591 
L 296.696684 206.895983 
L 298.878705 207.022528 
L 304.459076 207.723393 
L 305.844954 207.587114 
L 307.252947 207.139339 
L 308.48402 206.389802 
L 309.545544 205.533189 
L 310.363802 204.267738 
L 312.096149 201.629759 
L 315.708279 194.737917 
L 318.41369 189.403554 
L 319.335151 187.485909 
L 320.595711 185.324907 
L 323.55176 180.087886 
L 324.156238 178.94898 
L 325.954931 175.970303 
L 330.753903 167.374969 
L 331.763825 165.467058 
L 333.193933 162.965358 
L 334.867307 159.714122 
L 335.751911 157.669932 
L 336.614399 152.423177 
L 336.407991 148.967522 
L 336.842921 144.4411 
L 337.204134 141.783653 
L 337.049328 138.989926 
L 336.680744 137.218294 
L 335.906716 135.563473 
L 334.174368 132.497188 
L 333.592005 131.027318 
L 333.260279 128.457478 
L 333.31188 127.532726 
L 334.012191 125.916842 
L 335.57499 122.918696 
L 337.815984 118.869252 
L 339.334553 116.717985 
L 340.978441 114.849011 
L 349.411657 105.572281 
L 350.170941 104.462577 
L 350.77542 103.255532 
L 350.989199 102.603337 
L 351.070288 101.133467 
L 351.018686 93.842522 
L 351.512589 88.332942 
L 352.139183 84.750742 
L 352.544626 83.36848 
L 353.488203 81.4411 
L 354.660302 79.669468 
L 355.670224 78.598702 
L 357.262509 77.167769 
L 358.515697 76.38903 
L 360.461824 75.386403 
L 361.70764 74.656335 
L 362.783907 73.731582 
L 363.218837 73.186465 
L 363.484218 72.524536 
L 363.62428 71.775 
L 363.513704 70.207787 
L 363.211465 69.487454 
L 362.739677 68.825525 
L 362.149941 68.231737 
L 361.508604 67.754759 
L 360.786178 67.501669 
L 360.004779 67.375124 
L 358.30929 67.462732 
L 357.461545 67.637948 
L 356.650659 67.929975 
L 355.876631 68.426422 
L 354.335947 69.234363 
L 351.542076 71.366162 
L 350.716446 71.697126 
L 349.876073 71.804203 
L 349.013585 71.745797 
L 348.202699 71.560847 
L 347.450787 71.239617 
L 346.794706 70.772373 
L 346.212342 70.110445 
L 345.821642 69.380377 
L 345.364598 67.842367 
L 345.371969 67.083096 
L 345.585748 66.294623 
L 346.470351 64.649536 
L 347.723539 63.062855 
L 348.917753 61.777936 
L 350.753305 60.142583 
L 351.269323 59.626669 
L 353.805185 55.3144 
L 354.881453 53.094994 
L 355.994578 50.116316 
L 356.422136 48.15 
L 356.451623 46.758004 
L 356.230472 45.385476 
L 355.743941 44.11029 
L 355.065745 42.96165 
L 354.188513 41.949289 
L 351.180863 39.213968 
L 345.607863 35.943263 
L 342.010477 34.668078 
L 341.081644 34.307911 
L 339.717881 33.879604 
L 338.619499 33.762794 
L 337.557975 33.68492 
L 336.157354 33.412361 
L 335.162175 33.266347 
L 333.724695 32.867244 
L 332.412534 32.4 
L 330.562239 32.487608 
L 329.25745 32.97432 
L 328.159067 33.791996 
L 326.846906 35.164524 
L 326.367746 35.923795 
L 325.910701 37.169778 
L 325.637949 38.036125 
L 325.55686 38.912206 
L 325.704294 41.287361 
L 326.249799 42.523609 
L 326.832163 43.273146 
L 327.753624 44.051885 
L 328.933095 44.75275 
L 329.743981 45.025309 
L 332.073436 45.32707 
L 333.378226 45.677503 
L 333.79104 45.920859 
L 335.176919 47.488072 
L 335.715052 48.334951 
L 336.120495 49.444654 
L 336.334274 50.564091 
L 336.422735 53.094994 
L 336.651257 54.817954 
L 337.174647 56.501978 
L 337.248364 57.066564 
L 337.572719 58.263875 
L 338.110852 60.337268 
L 338.221428 61.846075 
L 338.051879 63.500896 
L 337.867586 64.279635 
L 337.167276 65.798177 
L 336.341646 67.22911 
L 334.845192 69.185692 
L 333.650978 70.344067 
L 332.35356 71.395365 
L 331.586904 71.921014 
L 329.95776 72.67055 
L 323.971946 75.123578 
L 322.497608 76.184611 
L 321.85627 76.778399 
L 321.33288 77.479265 
L 320.544109 79.07568 
L 319.084514 83.183529 
L 318.096707 84.497651 
L 317.654406 84.994098 
L 316.873006 85.636557 
L 315.383924 86.386094 
L 308.742029 88.897528 
L 307.385638 89.520519 
L 305.586945 90.649691 
L 304.547536 91.554975 
L 303.640818 92.57707 
L 302.608781 94.154017 
L 300.47099 97.83356 
L 299.667476 99.313164 
L 297.64026 104.589122 
L 295.989001 109.329697 
L 295.20023 110.721693 
L 293.180387 113.291533 
L 292.229438 114.41097 
L 291.71342 114.907417 
L 286.61958 118.499351 
L 285.639145 119.482509 
L 284.7914 120.572744 
L 284.061603 121.721384 
L 283.641416 122.977101 
L 283.427637 124.894747 
L 283.35392 127.435383 
L 283.626673 131.212268 
L 283.383407 132.487454 
L 282.889504 133.684765 
L 282.248167 134.84314 
L 280.950749 136.361681 
L 279.9998 137.062546 
L 278.230594 137.967831 
L 275.392493 139.194345 
L 272.989321 140.274845 
L 271.41915 141.024382 
L 269.89321 142.07568 
L 267.696446 143.730501 
L 266.288452 145.073826 
L 263.656758 147.916224 
L 262.676323 149.191409 
L 261.40102 151.371879 
L 260.251036 153.756768 
L 259.602327 155.46026 
L 258.953618 158.07877 
L 258.806185 159.850402 
L 258.902017 162.274227 
L 259.285345 165.165297 
L 259.904567 167.112145 
L 262.064473 173.867707 
L 262.344597 175.697744 
L 262.034986 177.381768 
L 260.074116 181.674567 
L 259.078937 183.24178 
L 257.287616 185.694808 
L 253.284787 189.802658 
L 251.77359 190.970766 
L 250.144446 192.022064 
L 248.55216 193.053894 
L 247.608584 193.920241 
L 246.893529 194.971539 
L 246.54706 195.516656 
L 246.097387 195.91576 
L 245.691944 195.837886 
L 245.507651 195.565328 
L 245.537138 195.195426 
L 246.244821 193.336187 
L 246.709237 192.469839 
L 247.144167 190.805284 
L 247.195769 189.364617 
L 247.02622 188.147837 
L 246.782954 186.191255 
L 246.163732 182.677194 
L 245.54451 181.333869 
L 244.28395 179.630377 
L 243.377232 178.705624 
L 242.433656 178.218912 
L 242.020841 178.218912 
L 241.195211 178.549876 
L 240.84137 178.910043 
L 240.288493 179.91267 
L 239.109022 183.066564 
L 238.172817 184.5267 
L 237.251356 185.977101 
L 236.890143 186.862917 
L 236.57316 187.816873 
L 236.167717 188.712423 
L 235.408433 189.374351 
L 234.892414 189.471693 
L 233.395961 189.384085 
L 232.275463 188.761094 
L 229.99761 187.291224 
L 229.002432 186.327534 
L 227.911421 185.646137 
L 224.940629 184.127596 
L 224.336151 183.864771 
L 222.190988 183.378059 
L 220.945172 183.047095 
L 220.355437 182.716131 
L 219.013789 181.226792 
L 216.699077 179.766656 
L 214.966729 178.94898 
L 214.399109 178.861372 
L 212.194973 177.917151 
L 208.560729 175.843758 
L 206.658832 174.850865 
L 200.28969 171.658035 
L 198.682661 170.665142 
L 198.019208 170.207633 
L 197.901261 169.935074 
L 197.901261 169.935074 
" clip-path="url(#pca721ea31d)" style="fill: none; stroke: #000000; stroke-width: 3"/>
   </g>
  </g>
 </g>
 <defs>
  <clipPath id="pca721ea31d">
   <rect x="7.2" y="7.2" width="373.396865" height="554.4"/>
  </clipPath>
 </defs>
</svg>
