<?xml version="1.0" encoding="utf-8" standalone="no"?>
<!DOCTYPE svg PUBLIC "-//W3C//DTD SVG 1.1//EN"
  "http://www.w3.org/Graphics/SVG/1.1/DTD/svg11.dtd">
<svg xmlns:xlink="http://www.w3.org/1999/xlink" width="524.265988pt" height="568.8pt" viewBox="0 0 524.265988 568.8" xmlns="http://www.w3.org/2000/svg" version="1.1">
 <metadata>
  <rdf:RDF xmlns:dc="http://purl.org/dc/elements/1.1/" xmlns:cc="http://creativecommons.org/ns#" xmlns:rdf="http://www.w3.org/1999/02/22-rdf-syntax-ns#">
   <cc:Work>
    <dc:type rdf:resource="http://purl.org/dc/dcmitype/StillImage"/>
    <dc:date>2023-01-05T05:03:04.428084</dc:date>
    <dc:format>image/svg+xml</dc:format>
    <dc:creator>
     <cc:Agent>
      <dc:title>Matplotlib v3.6.2, https://matplotlib.org/</dc:title>
     </cc:Agent>
    </dc:creator>
   </cc:Work>
  </rdf:RDF>
 </metadata>
 <defs>
  <style type="text/css">*{stroke-linejoin: round; stroke-linecap: butt}</style>
 </defs>
 <g id="figure_1">
  <g id="patch_1">
   <path d="M 0 568.8 
L 524.265988 568.8 
L 524.265988 0 
L 0 0 
z
" style="fill: #ffffff"/>
  </g>
  <g id="axes_1">
   <g id="LineCollection_1">
    <path d="M 147.979797 445.96491 
L 149.668298 446.717606 
L 150.554761 446.940627 
L 152.707599 447.219404 
L 154.037293 447.526058 
L 156.358982 448.529653 
L 157.308763 449.170839 
L 159.904833 451.456806 
L 161.44559 453.045832 
L 162.268734 453.770651 
L 163.049665 454.60698 
L 164.37936 456.335395 
L 165.709054 457.589889 
L 167.144279 458.704995 
L 168.853886 459.847978 
L 171.534381 461.158228 
L 172.420844 461.464882 
L 176.198864 461.827291 
L 178.372809 462.106068 
L 179.385909 462.245456 
L 181.222154 462.775131 
L 182.952867 463.834482 
L 184.409199 465.339875 
L 185.759999 466.984656 
L 189.284744 471.026915 
L 192.429577 474.121334 
L 192.978339 474.846153 
L 193.717058 476.407301 
L 194.624627 479.919885 
L 195.363347 485.216638 
L 196.165384 489.677062 
L 196.439766 490.680657 
L 197.326229 492.520582 
L 197.832779 493.273278 
L 199.056942 494.695038 
L 200.386636 496.228309 
L 201.104249 496.757984 
L 202.813856 497.705824 
L 204.861163 498.988196 
L 208.491439 500.800243 
L 209.462327 501.051142 
L 211.404103 501.218408 
L 213.578047 501.218408 
L 215.456504 500.800243 
L 216.38518 500.800243 
L 217.334961 500.967509 
L 219.31895 501.636573 
L 220.247625 501.998982 
L 222.273826 502.305636 
L 224.131176 502.305636 
L 230.019822 503.030455 
L 233.882268 503.894662 
L 235.718512 504.591604 
L 237.639182 505.957608 
L 240.003082 508.271453 
L 241.417202 509.888357 
L 244.646459 513.540329 
L 247.791292 518.363162 
L 248.234523 519.227369 
L 248.76218 521.095171 
L 249.184305 522.76783 
L 249.500899 523.436894 
L 250.091874 523.799303 
L 253.2156 524.66351 
L 258.281102 528.622136 
L 261.953591 529.960263 
L 263.853154 530.266917 
L 268.074406 530.489939 
L 269.150825 530.768715 
L 272.253445 532.162597 
L 273.35097 532.692273 
L 274.427389 533.500725 
L 276.158103 534.476442 
L 278.37426 535.981835 
L 279.028554 536.260612 
L 279.682848 536.4 
L 281.434667 535.842447 
L 282.405555 535.396405 
L 289.834958 533.389214 
L 298.17193 529.904508 
L 300.134812 529.514221 
L 301.190125 529.486343 
L 302.435394 529.597854 
L 303.448494 529.904508 
L 306.318946 530.434183 
L 308.281828 531.075369 
L 309.421565 531.270513 
L 310.624622 531.270513 
L 311.658829 531.521412 
L 313.537286 531.716555 
L 315.584593 531.577167 
L 316.661012 531.605045 
L 317.737431 531.744433 
L 318.81385 532.051087 
L 319.848057 532.218353 
L 326.264359 532.580762 
L 327.171929 532.72015 
L 328.142816 532.525007 
L 333.757081 530.183284 
L 337.556208 527.730051 
L 339.054752 526.08527 
L 340.342234 524.440489 
L 341.693034 522.76783 
L 342.95941 521.011538 
L 344.014723 519.199491 
L 345.471054 516.774136 
L 345.977605 516.021439 
L 347.729424 512.257957 
L 348.320399 511.421627 
L 348.742524 510.55742 
L 350.895363 507.518757 
L 353.28037 503.783152 
L 353.744708 502.891067 
L 355.306571 500.437834 
L 356.193033 498.932441 
L 357.016178 497.231904 
L 359.190122 493.189645 
L 359.675566 492.492704 
L 360.878623 490.206737 
L 361.828404 488.645589 
L 363.60133 485.216638 
L 364.44558 483.432469 
L 365.796381 480.728337 
L 366.746163 478.860534 
L 368.856788 475.403706 
L 370.503076 472.86684 
L 371.832771 469.995442 
L 372.444852 468.852459 
L 373.816759 466.901023 
L 374.703222 464.977466 
L 375.589685 463.165418 
L 377.046016 460.405531 
L 377.890267 458.732872 
L 378.713411 457.227479 
L 383.715594 447.358792 
L 384.496526 445.574622 
L 385.82622 442.898368 
L 388.717777 437.294961 
L 390.44849 434.730217 
L 394.289829 429.098932 
L 400.811663 416.33097 
L 401.487063 414.463167 
L 403.724327 409.8076 
L 404.864065 408.302207 
L 406.425928 405.486565 
L 407.059116 404.566602 
L 409.190848 400.468588 
L 410.858242 396.342696 
L 413.306568 390.906555 
L 413.623162 390.01447 
L 414.108606 388.11879 
L 414.741794 386.557641 
L 415.121706 384.857105 
L 415.142812 383.881387 
L 416.578038 376.800465 
L 416.578038 374.430865 
L 416.303657 371.197057 
L 416.177019 368.297782 
L 415.902638 367.37782 
L 415.839319 365.175485 
L 415.691575 362.220455 
L 416.599144 353.829283 
L 417.401182 350.623353 
L 417.86552 348.476774 
L 418.245432 345.577499 
L 418.456495 341.981282 
L 418.37207 340.001969 
L 418.013264 338.078411 
L 417.591138 333.617988 
L 417.337863 332.698025 
L 417.232332 331.805941 
L 416.915738 330.774468 
L 415.396088 327.122496 
L 413.01108 323.526279 
L 410.816029 320.236717 
L 409.802929 318.42467 
L 408.89536 316.584745 
L 408.304385 314.633309 
L 408.093322 313.573959 
L 408.05111 311.455257 
L 408.241066 309.16929 
L 409.043104 304.597356 
L 409.802929 301.502937 
L 410.921561 298.464273 
L 412.968868 293.836584 
L 414.214137 291.439106 
L 415.564938 288.567708 
L 419.427383 281.068621 
L 420.503802 279.06143 
L 422.593322 275.353703 
L 426.286917 270.252094 
L 427.785461 268.663068 
L 430.655912 266.181957 
L 436.650089 259.128912 
L 438.760715 256.982333 
L 442.348779 253.302484 
L 443.594048 251.601947 
L 446.464499 248.84206 
L 447.435387 248.423895 
L 448.786188 247.002135 
L 450.706857 244.632535 
L 451.994339 243.322286 
L 453.281821 242.012036 
L 455.392447 238.750351 
L 456.764353 236.018342 
L 457.756348 233.091189 
L 458.326217 230.331302 
L 458.790554 226.67933 
L 458.748342 224.755772 
L 457.925198 214.022877 
L 458.030729 211.987809 
L 458.516173 206.077748 
L 459.740336 193.393418 
L 460.162461 190.52202 
L 460.584586 187.539112 
L 460.880074 185.559799 
L 461.259986 183.552608 
L 461.935387 180.513944 
L 462.758531 176.750462 
L 463.6661 174.018452 
L 464.489244 172.373671 
L 465.333494 170.645257 
L 466.325488 168.916843 
L 467.148632 168.080513 
L 469.512533 166.017567 
L 470.905546 164.512174 
L 472.087497 163.006781 
L 473.48051 161.83592 
L 474.303654 161.25049 
L 475.253436 160.832325 
L 476.709767 159.549953 
L 478.229418 158.239704 
L 479.917919 157.319741 
L 480.656638 156.762188 
L 482.155182 155.396183 
L 484.64572 154.169567 
L 486.334221 153.361115 
L 489.542372 151.437557 
L 491.104235 150.183063 
L 492.243973 148.733426 
L 493.067117 147.116522 
L 493.425924 146.168682 
L 493.78473 144.245124 
L 493.742518 141.178583 
L 492.581673 138.279307 
L 491.420829 136.411505 
L 490.85096 135.547298 
L 490.17556 134.738846 
L 488.571484 133.51223 
L 486.819665 132.703778 
L 485.848777 132.452879 
L 483.780364 132.257735 
L 481.711951 132.56439 
L 478.799287 133.177698 
L 476.794192 134.09766 
L 475.021267 135.073378 
L 473.121703 136.327872 
L 472.235241 137.024813 
L 470.694484 138.641717 
L 469.153727 140.14711 
L 465.671194 142.879119 
L 463.856056 143.966348 
L 462.864062 144.41239 
L 459.972505 145.165087 
L 456.848778 145.304475 
L 455.645722 145.220842 
L 454.52709 144.997821 
L 452.521996 144.189369 
L 451.572214 143.771204 
L 450.664645 143.241529 
L 449.820395 142.600343 
L 448.174106 140.983439 
L 446.696668 139.422291 
L 446.105693 138.474451 
L 445.324762 136.244239 
L 444.396086 133.066187 
L 443.931749 130.278422 
L 443.720686 128.326987 
L 443.910642 126.737961 
L 444.121705 125.929509 
L 444.987061 124.228973 
L 446.042374 122.528436 
L 448.110788 119.99157 
L 449.588226 118.318911 
L 450.158095 116.980784 
L 450.896814 116.032944 
L 453.999434 113.133669 
L 454.653728 112.297339 
L 458.368429 108.924144 
L 459.972505 107.725405 
L 462.104237 104.46372 
L 462.906275 102.651673 
L 463.222868 101.369301 
L 463.687206 100.56085 
L 464.447031 99.808153 
L 466.557657 96.769489 
L 467.908458 94.232623 
L 468.731602 92.002412 
L 469.259258 89.800077 
L 469.976871 87.960153 
L 470.905546 86.343249 
L 471.327672 85.423287 
L 471.55984 84.140915 
L 472.551835 81.130129 
L 472.741791 79.290204 
L 472.762897 78.425997 
L 473.459404 74.216472 
L 473.564935 70.871154 
L 473.31166 69.254251 
L 473.185022 68.362166 
L 472.80511 67.525837 
L 472.572941 66.689507 
L 471.264353 64.152641 
L 470.778909 63.232679 
L 469.449215 61.866674 
L 465.966682 59.078909 
L 465.270175 58.772255 
L 464.594775 58.326213 
L 463.792737 57.657149 
L 462.610787 56.207511 
L 461.829855 54.980895 
L 461.217774 54.339709 
L 459.655911 53.02946 
L 458.262898 51.858598 
L 456.764353 50.604104 
L 448.385169 43.467426 
L 446.738881 42.742607 
L 442.412098 40.958438 
L 440.639172 40.34513 
L 439.900453 40.149986 
L 438.296378 39.480923 
L 436.523452 38.867614 
L 432.661007 37.97553 
L 431.056931 37.362221 
L 429.410643 37.083445 
L 427.722142 37.02769 
L 426.075854 37.278588 
L 424.703947 37.055567 
L 424.007441 37.111323 
L 423.099872 37.334344 
L 420.123889 37.083445 
L 418.477601 36.860424 
L 413.116612 35.801073 
L 411.385898 35.076254 
L 410.436117 34.518701 
L 409.697398 33.459351 
L 408.832041 32.957553 
L 407.945578 32.595144 
L 407.206859 32.427878 
L 406.383715 32.4 
L 404.209771 32.595144 
L 402.85897 32.762409 
L 401.930295 32.985431 
L 400.199582 33.710249 
L 399.376438 33.961148 
L 398.637719 34.323558 
L 397.899 34.853233 
L 395.47178 36.135605 
L 393.065666 38.477327 
L 392.073672 39.954843 
L 391.166103 41.627502 
L 390.743978 42.463831 
L 389.815303 46.115803 
L 389.287646 47.872095 
L 389.139902 48.708424 
L 388.886627 49.433243 
L 388.907734 50.269572 
L 389.667559 53.642768 
L 389.498709 55.008773 
L 389.26654 55.98449 
L 389.245434 57.88017 
L 389.43539 58.465601 
L 390.532915 59.943116 
L 391.52491 61.309121 
L 392.010354 61.950307 
L 392.643541 62.535738 
L 393.340048 63.009658 
L 394.015448 63.316312 
L 395.915011 64.682316 
L 397.308024 65.407135 
L 399.038737 66.076199 
L 403.661008 67.637347 
L 407.628985 68.445799 
L 409.254166 68.891841 
L 411.744705 70.480867 
L 412.884443 71.595973 
L 415.016175 73.184999 
L 415.776 73.575286 
L 417.126801 74.71827 
L 417.633351 75.331578 
L 420.461589 80.098656 
L 421.073671 81.882825 
L 421.242521 82.886421 
L 420.588227 84.55908 
L 420.609333 86.482637 
L 420.883715 88.545583 
L 420.79929 89.437668 
L 420.546014 90.35763 
L 420.166102 91.249715 
L 420.313846 93.312661 
L 420.250527 95.124708 
L 420.166102 97.577941 
L 420.060571 98.107617 
L 420.166102 99.194845 
L 420.461589 99.836031 
L 421.369159 101.229913 
L 422.466684 103.766779 
L 423.458678 106.526666 
L 425.168285 109.342309 
L 425.527091 110.234393 
L 426.26581 112.659749 
L 426.730148 113.663344 
L 426.941211 115.25237 
L 427.067848 116.925029 
L 426.877892 120.604879 
L 426.624617 122.72358 
L 426.603511 123.810808 
L 426.286917 124.786526 
L 425.801473 125.371956 
L 425.273816 126.208286 
L 424.661735 126.933105 
L 423.944122 127.602168 
L 422.99434 129.274827 
L 421.727965 131.700183 
L 418.435389 136.550893 
L 417.633351 137.498733 
L 415.163919 139.840456 
L 414.488518 140.62103 
L 413.707587 141.317971 
L 412.103511 142.237934 
L 409.655185 143.492428 
L 405.328402 145.945661 
L 402.373526 146.977134 
L 398.616612 147.952851 
L 396.590412 148.20375 
L 394.79638 148.594037 
L 391.166103 149.569755 
L 390.195215 149.98792 
L 388.232333 151.158781 
L 387.282552 151.604823 
L 386.50162 152.134499 
L 383.863338 153.333237 
L 382.21705 154.531976 
L 381.351693 155.117407 
L 380.570762 155.814348 
L 379.262174 157.291863 
L 377.573673 159.856607 
L 376.813848 161.612899 
L 376.265085 162.560739 
L 374.956497 166.57512 
L 374.386628 168.247779 
L 374.006715 170.031949 
L 372.06494 175.969888 
L 371.685027 176.750462 
L 370.587502 178.255855 
L 369.97542 179.008551 
L 365.332043 183.552608 
L 363.791286 184.47257 
L 362.25053 185.476166 
L 358.915741 187.120947 
L 358.113703 187.427601 
L 356.38299 187.650622 
L 355.559846 187.622745 
L 353.95577 187.873643 
L 351.6974 188.654218 
L 350.916469 189.044505 
L 347.096236 190.131733 
L 345.492161 190.912307 
L 343.866979 191.692881 
L 343.107153 192.166801 
L 342.305116 192.529211 
L 340.595509 193.114641 
L 337.387357 194.592157 
L 335.952132 195.512119 
L 332.321856 197.798086 
L 330.422292 199.554378 
L 329.240342 200.780995 
L 324.34369 206.858322 
L 323.267271 208.447348 
L 322.190852 210.120007 
L 321.177751 211.681155 
L 318.877169 215.834924 
L 318.13845 217.619094 
L 316.850968 221.354699 
L 316.091143 223.055235 
L 314.212686 228.407744 
L 312.714142 231.557918 
L 311.806573 233.258455 
L 311.42666 235.014746 
L 311.321129 236.018342 
L 309.991434 239.224271 
L 309.231609 240.841175 
L 308.134084 242.012036 
L 307.437577 243.796206 
L 307.268727 244.57678 
L 307.31094 245.329476 
L 305.643545 250.709862 
L 304.88372 252.187378 
L 303.891726 254.278201 
L 303.575132 255.058775 
L 303.068582 255.755717 
L 302.308756 257.37262 
L 301.992163 258.32046 
L 300.725787 260.662183 
L 300.261449 261.470634 
L 299.733793 262.11182 
L 298.425205 263.226926 
L 297.116617 264.48142 
L 296.546748 265.150484 
L 295.23816 266.460733 
L 294.077316 267.938249 
L 293.444128 268.495802 
L 291.987796 269.555152 
L 289.919383 271.116301 
L 287.217782 272.649571 
L 281.877899 275.186437 
L 279.281829 276.190033 
L 277.234522 277.779059 
L 276.073678 279.256574 
L 274.76509 280.455313 
L 273.667564 282.127972 
L 272.570039 285.389657 
L 271.366982 288.874363 
L 270.818219 289.404038 
L 270.24835 291.355473 
L 270.0795 292.359069 
L 269.319675 295.341977 
L 268.981975 298.046109 
L 268.939762 302.813187 
L 269.4041 307.803286 
L 269.657375 309.587455 
L 269.699588 311.120726 
L 269.636269 312.84914 
L 269.23525 318.926467 
L 269.003081 319.930063 
L 268.201043 321.825743 
L 267.694493 322.717827 
L 267.124624 323.386891 
L 266.491436 323.888689 
L 265.96378 324.557752 
L 264.887361 326.425555 
L 264.04311 326.927352 
L 263.388816 327.568538 
L 262.903373 328.349112 
L 261.615891 329.687239 
L 260.201771 330.885978 
L 257.626808 332.447127 
L 256.761451 332.809536 
L 255.64282 333.088312 
L 254.946313 333.562232 
L 251.104974 334.287051 
L 240.12972 338.914741 
L 238.272369 339.63956 
L 236.436125 340.615277 
L 234.388818 341.563117 
L 233.502355 341.925527 
L 232.74253 342.371569 
L 232.172661 343.012755 
L 231.243985 343.765452 
L 229.555485 344.85268 
L 228.753447 345.438111 
L 227.972515 345.80052 
L 227.297115 346.385951 
L 226.347333 346.74836 
L 223.455776 348.811306 
L 222.864801 349.396737 
L 222.400463 350.093678 
L 219.297843 353.522628 
L 217.081686 356.533414 
L 215.773098 358.066685 
L 214.548935 359.488445 
L 213.979066 360.296897 
L 212.712691 361.80229 
L 211.720697 363.363438 
L 209.821133 366.931777 
L 209.230158 367.545085 
L 208.174845 370.583749 
L 206.802938 374.653886 
L 205.241075 377.525283 
L 204.776738 378.501001 
L 204.206869 379.337331 
L 203.552575 380.090027 
L 203.088237 380.926357 
L 201.948499 383.825632 
L 201.54748 385.665557 
L 201.336418 386.501886 
L 201.230886 388.620587 
L 201.104249 389.624183 
L 200.787655 390.627778 
L 200.344423 392.495581 
L 199.647917 394.223995 
L 199.690129 396.844494 
L 199.479067 402.085491 
L 199.964511 404.064804 
L 200.302211 405.932607 
L 200.597699 407.939798 
L 200.745442 408.831882 
L 200.745442 411.591769 
L 202.117349 416.135826 
L 202.813856 417.836363 
L 203.151556 419.230245 
L 204.080231 422.60344 
L 205.072225 425.697859 
L 205.684307 427.844438 
L 206.043113 429.48922 
L 206.802938 432.109718 
L 207.267276 433.838133 
L 207.351701 434.785973 
L 207.203957 435.622302 
L 207.182851 436.402876 
L 207.75272 442.229305 
L 207.604976 444.487394 
L 207.330595 446.91275 
L 206.444132 449.951413 
L 206.254176 451.17803 
L 205.599882 453.296731 
L 203.046024 457.060214 
L 202.771643 458.091686 
L 202.328412 459.095282 
L 202.096243 460.154632 
L 201.695224 461.074595 
L 199.985617 463.472073 
L 199.099154 465.200487 
L 198.529285 465.925306 
L 198.128266 466.789513 
L 196.376447 469.019725 
L 194.32914 471.026915 
L 191.310945 474.623132 
L 189.939038 476.100647 
L 189.348063 476.936977 
L 188.651556 477.60604 
L 186.182124 480.616826 
L 184.873536 481.843443 
L 184.261455 482.596139 
L 183.564948 483.153692 
L 181.960873 484.017899 
L 177.781834 486.471132 
L 177.000902 486.945052 
L 175.396826 488.338935 
L 174.447045 488.645589 
L 173.497263 489.147386 
L 170.943406 490.206737 
L 170.056943 490.569147 
L 164.653741 494.165363 
L 162.711965 496.116798 
L 161.698865 497.677947 
L 161.297846 498.542154 
L 160.326958 499.963914 
L 159.735983 500.24269 
L 159.166114 500.214813 
L 157.963057 499.378483 
L 157.161019 499.211217 
L 156.211238 499.18334 
L 155.282562 499.322728 
L 153.551849 499.824526 
L 148.127541 500.883876 
L 147.051122 500.939632 
L 143.209783 501.775961 
L 142.196682 501.859594 
L 140.592607 501.775961 
L 138.988531 502.054738 
L 137.574412 501.748083 
L 137.067862 501.218408 
L 136.497993 500.382079 
L 135.590424 498.402766 
L 134.598429 495.336224 
L 134.556217 494.667161 
L 134.725067 493.775076 
L 135.337148 492.409071 
L 135.337148 491.71213 
L 134.893917 488.729222 
L 135.020555 487.976525 
L 135.569317 486.554765 
L 136.519099 485.160883 
L 137.067862 484.686963 
L 138.481981 483.850633 
L 139.136275 483.767 
L 142.15447 482.70765 
L 142.808764 482.289485 
L 143.441952 481.704054 
L 144.286202 480.310172 
L 144.856071 478.693268 
L 145.235983 477.689673 
L 145.658109 477.159998 
L 146.692315 475.097052 
L 147.810947 473.703169 
L 148.971791 471.974755 
L 150.428123 470.302096 
L 151.863349 469.326379 
L 153.868443 467.793108 
L 154.607162 465.674407 
L 154.944862 464.085381 
L 154.965968 463.165418 
L 155.24035 461.687903 
L 155.324775 458.816505 
L 154.881543 456.781437 
L 154.438312 455.248166 
L 153.530743 454.077305 
L 152.81313 453.101587 
L 152.580961 452.627667 
L 152.13773 452.23738 
L 150.892461 451.596194 
L 150.491442 451.568317 
L 149.752723 451.958604 
L 149.520554 452.627667 
L 149.077322 453.268853 
L 148.845154 454.105183 
L 148.718516 455.471188 
L 148.106435 457.450501 
L 147.789841 458.342585 
L 146.523465 460.015244 
L 145.42594 462.663621 
L 144.792752 464.503546 
L 144.370627 465.311997 
L 142.703232 467.65372 
L 140.866988 469.131235 
L 139.663931 471.138426 
L 139.2207 471.835367 
L 139.030744 472.838962 
L 138.102068 474.595254 
L 137.827687 475.570972 
L 136.11808 478.999923 
L 135.294936 479.780497 
L 134.302942 480.365927 
L 133.099885 480.81197 
L 130.989259 481.230134 
L 128.89974 482.428873 
L 128.076596 482.81916 
L 127.169027 482.735527 
L 126.282564 482.373118 
L 122.736712 480.198661 
L 120.626086 478.999923 
L 119.697411 478.219348 
L 118.74763 477.60604 
L 117.945592 476.825466 
L 116.235985 475.515217 
L 113.787659 473.480148 
L 112.141371 472.253532 
L 111.254908 471.612346 
L 110.537295 470.859649 
L 109.693045 470.302096 
L 107.223613 469.103357 
L 106.231618 468.768826 
L 103.994355 467.458576 
L 100.089697 464.475668 
L 98.54894 463.555706 
L 97.87354 462.970275 
L 94.053308 461.046717 
L 92.74472 459.680712 
L 92.111532 459.151037 
L 91.520557 458.175319 
L 90.3175 456.86507 
L 89.620993 456.446905 
L 88.650105 456.168129 
L 86.834967 454.49547 
L 85.209785 453.65914 
L 82.086059 452.544035 
L 80.249815 452.265258 
L 79.215608 451.986482 
L 78.308039 451.596194 
L 76.239626 450.927131 
L 74.614444 449.839903 
L 73.4536 449.839903 
L 72.166118 450.035046 
L 67.776016 449.477493 
L 66.995085 449.115084 
L 66.150834 448.91994 
L 64.673396 448.222999 
L 64.14574 447.470303 
L 63.491446 446.856994 
L 62.963789 446.633973 
L 61.760733 445.769766 
L 60.093338 443.762575 
L 59.396832 443.2329 
L 57.243993 441.894773 
L 55.428855 439.803949 
L 54.732349 439.274274 
L 52.91721 437.294961 
L 52.284023 436.625897 
L 51.460879 436.040467 
L 49.64574 435.315648 
L 47.387371 434.451441 
L 46.775289 433.977521 
L 45.551126 432.500006 
L 45.002364 431.635798 
L 44.411388 431.106123 
L 41.203237 429.572852 
L 40.485624 429.461342 
L 38.881549 428.764401 
L 38.079511 428.290481 
L 35.989991 426.729332 
L 33.942684 425.446961 
L 32.61299 424.610631 
L 30.375727 423.885812 
L 30.375727 423.885812 
" clip-path="url(#pa65f6f2d63)" style="fill: none; stroke: #000000; stroke-width: 3"/>
   </g>
  </g>
 </g>
 <defs>
  <clipPath id="pa65f6f2d63">
   <rect x="7.2" y="7.2" width="509.865988" height="554.4"/>
  </clipPath>
 </defs>
</svg>
