<?xml version="1.0" encoding="utf-8" standalone="no"?>
<!DOCTYPE svg PUBLIC "-//W3C//DTD SVG 1.1//EN"
  "http://www.w3.org/Graphics/SVG/1.1/DTD/svg11.dtd">
<svg xmlns:xlink="http://www.w3.org/1999/xlink" width="527.94217pt" height="568.8pt" viewBox="0 0 527.94217 568.8" xmlns="http://www.w3.org/2000/svg" version="1.1">
 <metadata>
  <rdf:RDF xmlns:dc="http://purl.org/dc/elements/1.1/" xmlns:cc="http://creativecommons.org/ns#" xmlns:rdf="http://www.w3.org/1999/02/22-rdf-syntax-ns#">
   <cc:Work>
    <dc:type rdf:resource="http://purl.org/dc/dcmitype/StillImage"/>
    <dc:date>2023-01-11T05:02:56.723800</dc:date>
    <dc:format>image/svg+xml</dc:format>
    <dc:creator>
     <cc:Agent>
      <dc:title>Matplotlib v3.6.2, https://matplotlib.org/</dc:title>
     </cc:Agent>
    </dc:creator>
   </cc:Work>
  </rdf:RDF>
 </metadata>
 <defs>
  <style type="text/css">*{stroke-linejoin: round; stroke-linecap: butt}</style>
 </defs>
 <g id="figure_1">
  <g id="patch_1">
   <path d="M 0 568.8 
L 527.94217 568.8 
L 527.94217 0 
L 0 0 
z
" style="fill: #ffffff"/>
  </g>
  <g id="axes_1">
   <g id="LineCollection_1">
    <path d="M 149.516075 446.632059 
L 150.529512 447.496553 
L 152.556385 448.863011 
L 153.316463 449.169767 
L 155.470016 448.890898 
L 156.610132 448.612029 
L 157.834701 448.584142 
L 158.827025 448.77935 
L 159.692669 449.086106 
L 160.537199 449.50441 
L 161.44507 450.201582 
L 162.817432 452.014231 
L 166.364461 455.36066 
L 167.335671 456.057832 
L 169.151412 457.731046 
L 169.911489 458.51188 
L 172.740667 459.822564 
L 174.598634 460.603397 
L 176.646621 460.547624 
L 178.652381 459.989885 
L 179.792497 459.906225 
L 181.988277 460.352415 
L 183.888471 461.021701 
L 184.817454 461.6631 
L 185.683098 462.499707 
L 187.203253 464.368129 
L 189.25124 467.128933 
L 189.990204 467.96554 
L 191.362566 469.192563 
L 192.882722 470.75423 
L 195.289634 473.124617 
L 195.986371 474.072772 
L 196.55643 475.0767 
L 197.823226 478.283694 
L 198.139925 480.514646 
L 198.182151 481.658009 
L 198.62553 484.837116 
L 198.794436 488.267205 
L 199.47006 490.609705 
L 201.074668 494.792741 
L 202.193671 496.270746 
L 202.615937 496.884258 
L 205.825153 498.836342 
L 206.71191 499.254645 
L 208.569878 499.784496 
L 209.519974 499.868157 
L 210.448958 500.091252 
L 211.631301 499.951818 
L 212.602511 499.672949 
L 215.95952 499.533514 
L 216.93073 499.449853 
L 219.844361 499.812383 
L 220.794458 500.147026 
L 221.702328 500.64899 
L 223.306937 501.178841 
L 225.903868 501.876014 
L 229.936502 502.740508 
L 234.306948 503.995419 
L 235.573744 504.16274 
L 238.065109 505.752293 
L 239.986416 506.644674 
L 241.633251 507.704377 
L 243.95571 509.600686 
L 244.842467 510.158424 
L 246.953794 512.305716 
L 247.629418 513.225984 
L 248.410609 514.062591 
L 249.698518 515.819466 
L 250.247463 516.711846 
L 250.627502 517.57634 
L 251.556485 520.755447 
L 251.767618 521.759376 
L 252.823281 524.408632 
L 253.26666 525.161578 
L 253.836718 525.77509 
L 255.842478 526.13762 
L 256.982594 526.165507 
L 257.911578 526.528036 
L 260.592963 528.061816 
L 266.884716 530.738959 
L 267.940379 531.017828 
L 270.136159 531.408244 
L 277.356895 533.639197 
L 278.285879 534.0575 
L 280.94615 535.507619 
L 282.635212 536.260565 
L 283.627535 536.4 
L 285.802201 536.009583 
L 288.736945 535.033542 
L 290.869385 533.69497 
L 294.078601 532.161191 
L 295.134265 531.770774 
L 296.253268 531.547679 
L 298.216801 530.850506 
L 299.145785 530.54375 
L 300.032542 530.09756 
L 302.186095 529.316727 
L 304.191855 528.731102 
L 305.353085 528.396459 
L 306.345408 528.452233 
L 308.414508 528.954197 
L 309.491285 529.065744 
L 310.652514 528.982084 
L 316.331983 530.264881 
L 317.472099 530.320655 
L 318.612215 530.627411 
L 319.731218 531.101488 
L 320.807995 531.324584 
L 324.861742 531.798661 
L 325.896292 532.105417 
L 330.794569 532.133304 
L 331.6391 531.63134 
L 332.779216 531.408244 
L 334.827203 530.376429 
L 335.798413 529.986012 
L 337.677494 528.842649 
L 340.189972 527.057887 
L 341.667901 525.635655 
L 342.95581 524.659614 
L 344.644871 522.679644 
L 345.721648 521.117977 
L 346.840651 519.612084 
L 348.888638 516.377204 
L 349.268676 515.540596 
L 351.29555 511.915299 
L 351.802268 510.799823 
L 352.562346 508.652531 
L 353.934708 506.198484 
L 354.546993 505.361877 
L 355.708222 503.075151 
L 356.362733 502.210657 
L 358.389607 498.613246 
L 359.065231 497.720865 
L 359.550836 496.68905 
L 360.247574 494.625419 
L 362.168881 491.446312 
L 363.836829 489.048039 
L 364.7447 487.123842 
L 366.264855 484.865003 
L 367.067159 484.139944 
L 367.489424 483.331223 
L 367.890576 481.239706 
L 368.291728 480.235777 
L 369.66409 477.949051 
L 371.965436 474.323754 
L 372.514381 473.291938 
L 375.047973 467.128933 
L 375.765824 466.125004 
L 382.226483 454.6356 
L 384.021111 451.93057 
L 385.4357 448.890898 
L 387.504799 445.683904 
L 388.539349 444.094351 
L 389.468333 442.002833 
L 390.460657 438.963161 
L 391.410754 437.234173 
L 393.289834 433.274232 
L 396.477937 428.33825 
L 397.554714 426.916018 
L 400.552797 421.478072 
L 401.460668 419.498102 
L 402.621897 417.490245 
L 403.213069 416.709412 
L 405.514415 412.721585 
L 406.380059 410.685841 
L 407.372382 409.040513 
L 408.723631 407.227865 
L 409.9482 404.857478 
L 410.961637 403.435246 
L 411.383902 402.487091 
L 412.481792 400.674443 
L 412.904057 399.586853 
L 413.220756 398.220395 
L 414.403099 396.602955 
L 416.704445 392.224711 
L 417.485636 389.882211 
L 418.984678 384.388491 
L 419.765869 379.591944 
L 419.955888 377.528313 
L 420.272587 374.237658 
L 419.998115 371.365307 
L 419.892548 369.580546 
L 419.660302 365.648492 
L 419.44917 362.580933 
L 419.38583 360.573076 
L 419.44917 356.668909 
L 419.660302 355.553433 
L 419.723642 354.437957 
L 421.096004 349.000011 
L 421.45493 348.051856 
L 422.193894 343.924595 
L 422.193894 342.948553 
L 421.602723 339.128047 
L 421.539383 338.012571 
L 421.180457 335.893167 
L 420.948211 333.494893 
L 420.610399 330.594655 
L 420.209247 329.785935 
L 419.491396 329.256084 
L 417.760108 326.969358 
L 416.957804 324.849953 
L 416.303293 323.818138 
L 412.038414 318.742721 
L 411.763941 317.738793 
L 410.264899 314.085608 
L 410.180446 313.221114 
L 410.412692 308.536115 
L 410.644938 307.364865 
L 412.735151 300.867216 
L 417.31673 290.66061 
L 418.921338 288.039241 
L 419.892548 286.087158 
L 420.758192 284.051414 
L 421.26491 283.047485 
L 421.856082 282.182991 
L 422.42614 281.039628 
L 423.58737 279.003884 
L 424.136314 278.05573 
L 426.585453 274.792962 
L 428.422307 272.255254 
L 429.646877 270.749361 
L 430.301388 270.024301 
L 431.357051 268.072218 
L 432.7083 266.34323 
L 434.84074 264.36326 
L 436.382008 262.662159 
L 438.366655 260.068677 
L 439.929037 258.479124 
L 441.301399 256.917457 
L 442.652648 255.523112 
L 443.412726 254.770165 
L 445.038447 253.515255 
L 447.192 251.284303 
L 448.585476 249.722636 
L 452.660336 246.125225 
L 458.783183 239.069839 
L 459.986639 237.368738 
L 460.556697 236.44847 
L 461.401227 234.412726 
L 461.633473 233.548232 
L 462.013512 228.751685 
L 461.802379 224.847518 
L 461.781266 222.449245 
L 461.844606 221.13856 
L 461.570134 218.963382 
L 460.957849 215.979483 
L 460.894509 213.636983 
L 460.894509 211.796448 
L 461.000075 209.732817 
L 461.401227 206.665258 
L 461.464567 205.661329 
L 461.401227 204.685287 
L 461.570134 202.482222 
L 462.752476 196.068234 
L 463.090289 193.94883 
L 463.153628 192.108294 
L 465.412748 178.806241 
L 465.771673 176.686837 
L 466.067259 175.515587 
L 468.706417 169.966093 
L 469.9521 168.348653 
L 472.168993 165.810945 
L 472.739051 164.807016 
L 475.589342 161.851004 
L 478.650765 159.285409 
L 479.579749 158.699784 
L 481.353263 157.779516 
L 482.936758 156.468832 
L 484.689159 155.325469 
L 485.575916 154.739844 
L 488.51066 153.178177 
L 489.48187 152.536779 
L 491.466517 151.783832 
L 493.218918 150.584695 
L 495.668057 148.325856 
L 496.765947 146.987285 
L 497.124872 146.067017 
L 497.399344 143.111005 
L 497.314891 141.242583 
L 497.124872 140.238654 
L 495.710283 136.13928 
L 494.65462 134.438178 
L 494.126788 133.685232 
L 492.606633 132.318774 
L 489.967475 130.812881 
L 487.877262 130.534012 
L 486.716032 130.617673 
L 484.24578 131.231185 
L 481.902208 131.956244 
L 479.727542 132.876512 
L 477.742895 134.24297 
L 473.456902 137.477851 
L 472.675711 138.20291 
L 469.740967 141.577226 
L 467.94634 142.971571 
L 464.631557 144.42169 
L 462.393551 145.007315 
L 459.838846 144.979428 
L 457.579726 144.979428 
L 456.37627 144.728446 
L 455.299494 144.282255 
L 454.349397 143.752404 
L 450.084517 140.043446 
L 448.712155 138.649101 
L 448.205437 136.920113 
L 446.727508 134.577613 
L 446.263016 133.573685 
L 446.09411 131.203298 
L 446.833075 127.717435 
L 447.677605 125.653804 
L 449.598912 123.590173 
L 450.549009 122.697792 
L 451.309087 121.777524 
L 452.765902 120.383179 
L 453.504866 119.602346 
L 454.602756 117.901245 
L 455.954005 115.893388 
L 456.418497 114.833686 
L 458.382031 112.54696 
L 460.788943 109.925591 
L 462.393551 108.30815 
L 463.090289 107.610978 
L 464.314858 105.937764 
L 465.138275 104.180889 
L 466.869563 101.810502 
L 467.714094 100.053627 
L 468.579738 98.101544 
L 469.360928 96.456216 
L 469.88876 95.675383 
L 470.902197 94.838776 
L 471.767841 93.583865 
L 472.274559 92.496276 
L 472.844617 91.659669 
L 473.287996 89.819134 
L 473.414675 88.815205 
L 473.668034 87.811276 
L 474.132526 86.6958 
L 474.871491 83.265711 
L 475.314869 81.341515 
L 476.286079 78.720146 
L 476.792798 76.768063 
L 477.06727 73.867825 
L 476.497212 71.497438 
L 476.940591 69.852111 
L 476.856138 68.931843 
L 476.645005 67.872141 
L 475.673795 65.139224 
L 475.12485 64.27473 
L 473.203543 62.183213 
L 470.817744 60.286903 
L 470.205459 59.589731 
L 469.719854 58.78101 
L 469.065343 58.000177 
L 466.869563 55.824999 
L 465.62388 54.37488 
L 464.990483 53.789255 
L 463.575894 52.785326 
L 462.287985 51.446755 
L 460.683376 50.163957 
L 459.775506 49.634106 
L 457.790859 48.825386 
L 452.42809 45.869374 
L 450.823482 44.475029 
L 449.2611 43.582648 
L 446.643055 42.160416 
L 446.009657 41.686339 
L 442.694875 40.849732 
L 440.900247 40.431428 
L 439.253412 40.013125 
L 437.648804 39.455386 
L 436.086423 38.813988 
L 433.595057 38.479345 
L 431.525957 37.53119 
L 430.744766 37.308095 
L 428.253401 37.280208 
L 425.149751 37.726398 
L 424.220768 37.698512 
L 422.616159 37.391756 
L 421.138231 36.834018 
L 420.23036 36.248393 
L 418.309053 36.220506 
L 417.38007 36.220506 
L 416.472199 36.053184 
L 415.458763 35.997411 
L 414.656458 35.830089 
L 414.02306 35.579107 
L 413.389663 35.10503 
L 412.650698 34.37997 
L 411.890621 33.431815 
L 411.17277 32.84619 
L 410.180446 32.455774 
L 409.357029 32.4 
L 407.414609 32.567321 
L 405.577754 32.4 
L 404.796564 32.511548 
L 404.015373 32.874077 
L 403.191955 33.069286 
L 399.940513 34.7425 
L 398.652603 35.91375 
L 398.293678 36.499375 
L 395.52784 38.981309 
L 395.190028 39.539047 
L 394.113251 43.83363 
L 393.838779 45.478958 
L 392.740889 48.434969 
L 392.571983 51.056338 
L 392.635323 52.729552 
L 392.61421 54.179671 
L 392.846456 56.103868 
L 393.52208 57.804969 
L 393.881006 58.557915 
L 394.831102 59.95226 
L 396.224578 61.12351 
L 399.834946 62.964046 
L 402.115179 64.358391 
L 406.126699 66.226813 
L 408.639178 67.007647 
L 409.399255 67.453837 
L 410.180446 67.732706 
L 411.130543 67.900028 
L 413.495229 68.708748 
L 414.360873 69.099164 
L 416.746672 70.9397 
L 418.731319 72.891783 
L 420.145907 74.81598 
L 422.42614 79.305771 
L 422.700612 80.253926 
L 423.165104 81.20208 
L 423.756276 83.265711 
L 424.009635 86.333271 
L 424.157428 90.20955 
L 424.36856 92.10586 
L 424.600806 99.105472 
L 424.49524 99.997853 
L 424.4319 101.977823 
L 424.706373 103.204847 
L 425.698696 104.738627 
L 426.56434 105.240591 
L 426.881039 105.854103 
L 427.239964 106.830144 
L 428.084495 108.30815 
L 428.612327 109.005323 
L 429.351291 110.929519 
L 429.773556 113.132585 
L 430.259161 117.008864 
L 430.048029 119.016721 
L 429.921349 119.964876 
L 429.161272 122.586245 
L 429.119045 123.450739 
L 428.950139 124.398893 
L 428.337854 125.988447 
L 427.071058 128.135738 
L 425.698696 129.697405 
L 424.811939 130.478238 
L 422.172781 134.521839 
L 420.821532 136.306601 
L 420.167021 137.171095 
L 417.907901 139.234726 
L 417.021144 140.015559 
L 415.479876 140.963714 
L 408.06912 146.03913 
L 406.358945 146.792077 
L 404.500978 147.349815 
L 401.418441 148.242196 
L 400.299438 148.604725 
L 399.286001 148.74416 
L 391.410754 151.002999 
L 390.502883 151.337642 
L 389.067181 151.616511 
L 388.243764 152.090588 
L 386.786948 153.401273 
L 384.570056 155.464903 
L 383.873318 156.245737 
L 380.389629 161.683683 
L 379.650665 163.552105 
L 379.418419 164.444486 
L 379.03838 165.420528 
L 378.426095 168.655409 
L 377.898264 171.639307 
L 377.349319 173.340408 
L 376.504788 175.292492 
L 376.251429 176.547402 
L 375.786937 177.579218 
L 375.174653 178.248503 
L 371.648737 181.065081 
L 368.502861 183.714336 
L 366.834913 184.718265 
L 365.927043 185.192342 
L 364.955832 185.554872 
L 362.084428 187.116538 
L 360.142008 187.953146 
L 358.262927 188.482997 
L 357.397283 188.678205 
L 353.195744 189.040735 
L 350.493246 189.98889 
L 347.727408 191.299574 
L 347.22069 191.634217 
L 344.919344 192.805467 
L 344.032587 193.251657 
L 342.406865 194.283473 
L 341.477882 194.785437 
L 339.493235 195.622044 
L 338.606477 196.068234 
L 336.389585 197.657788 
L 335.080562 198.940585 
L 334.468277 199.52621 
L 333.433727 200.892669 
L 332.821443 201.50618 
L 329.950039 203.76502 
L 328.049845 205.940198 
L 327.099748 207.473978 
L 326.001858 208.589454 
L 325.49514 209.286626 
L 323.848305 212.49362 
L 323.214907 214.166835 
L 322.729302 215.059215 
L 321.652526 217.90368 
L 320.13237 221.222221 
L 319.245613 222.783888 
L 318.569989 224.484989 
L 318.021044 226.213977 
L 316.648682 230.397012 
L 315.656358 233.631893 
L 315.14964 235.444542 
L 314.368449 237.034095 
L 313.523918 238.651535 
L 312.616048 240.436297 
L 312.17267 241.189244 
L 311.623725 242.890345 
L 311.01144 244.368351 
L 310.462495 246.125225 
L 310.019116 247.909987 
L 309.660191 248.830255 
L 308.836774 250.252487 
L 307.97113 252.985404 
L 307.569978 253.794124 
L 306.535428 255.495225 
L 305.163065 258.088707 
L 303.685137 260.737963 
L 302.186095 262.299629 
L 300.771506 263.972843 
L 300.222561 264.976772 
L 299.589163 265.785492 
L 297.287818 267.821236 
L 291.122744 271.641742 
L 289.180324 272.060045 
L 287.237903 274.263111 
L 285.696635 275.155492 
L 284.894331 275.490134 
L 282.635212 276.800819 
L 281.832908 277.163349 
L 280.122733 278.641355 
L 278.665918 280.398229 
L 278.138086 281.234836 
L 277.779161 282.155104 
L 276.301232 284.915908 
L 275.857853 287.314181 
L 275.372248 288.234449 
L 274.759964 290.074985 
L 273.092016 293.142544 
L 273.049789 294.062812 
L 273.282035 297.297693 
L 273.450941 298.273734 
L 273.429828 299.361324 
L 272.838657 301.675936 
L 273.007563 308.731323 
L 273.556508 310.822841 
L 273.683187 311.882543 
L 274.168792 314.001948 
L 274.337698 315.06165 
L 274.316585 316.093465 
L 273.218695 319.662989 
L 271.529634 322.786322 
L 270.579537 324.15278 
L 270.093932 324.738405 
L 269.439421 325.212483 
L 268.045945 326.523167 
L 266.209091 327.331887 
L 263.527707 330.00903 
L 260.994115 331.738018 
L 259.178374 332.463078 
L 258.37607 332.992929 
L 254.005624 334.303613 
L 252.253223 334.945012 
L 249.888537 336.199923 
L 246.489302 337.231738 
L 240.78872 339.880994 
L 237.980656 340.773375 
L 236.523841 341.721529 
L 235.784876 342.307154 
L 235.003685 343.087988 
L 233.103492 345.486261 
L 232.237848 346.350755 
L 230.50656 347.549892 
L 229.450897 348.051856 
L 228.37412 348.749029 
L 225.523829 351.230963 
L 223.412503 353.127273 
L 222.715765 353.908106 
L 221.19561 355.190904 
L 219.865474 356.724683 
L 218.619792 358.342124 
L 214.270459 364.839772 
L 211.88466 369.329563 
L 210.91345 371.281647 
L 210.491185 372.146141 
L 209.94224 373.847242 
L 209.182162 375.799325 
L 208.105386 378.978432 
L 207.197515 380.846854 
L 206.120739 382.743164 
L 205.424001 384.723134 
L 204.621697 387.651259 
L 203.143768 392.782449 
L 202.953749 393.786377 
L 202.784843 396.045217 
L 202.890409 400.311913 
L 202.742616 401.232181 
L 202.890409 403.072716 
L 202.57371 403.379472 
L 202.468144 405.805633 
L 202.742616 407.395186 
L 203.6716 410.044442 
L 205.149529 413.251436 
L 205.424001 415.119858 
L 206.141852 416.960394 
L 206.585231 417.852775 
L 207.049722 420.669352 
L 207.408648 422.314679 
L 207.999819 424.155215 
L 208.189839 424.908161 
L 208.253179 426.107298 
L 208.696557 428.115155 
L 208.78101 428.840215 
L 208.654331 429.621048 
L 208.738784 430.485542 
L 209.393295 432.800155 
L 210.385618 436.955303 
L 210.596751 438.907387 
L 210.617864 440.720035 
L 210.892337 442.755779 
L 210.638977 447.97063 
L 210.047806 449.727505 
L 209.562201 450.424678 
L 208.928803 452.488309 
L 208.485424 453.269142 
L 207.87314 454.6356 
L 204.621697 459.181165 
L 203.523807 460.631284 
L 201.433594 463.782504 
L 200.56795 465.427832 
L 200.166798 466.375986 
L 199.617853 467.324141 
L 198.076585 469.387772 
L 197.485413 470.419587 
L 196.809789 471.284081 
L 196.281957 472.232236 
L 193.748365 475.43923 
L 192.376003 476.945123 
L 190.496923 479.510718 
L 189.905751 480.291551 
L 189.420146 481.128158 
L 188.765635 481.602235 
L 188.047784 481.908991 
L 186.696535 483.191789 
L 185.281946 484.028396 
L 184.310736 484.614021 
L 183.466205 485.422741 
L 182.178296 487.095955 
L 181.566011 487.904675 
L 180.763707 488.4903 
L 179.729157 488.936491 
L 178.884627 489.438455 
L 178.040096 489.689437 
L 175.612071 491.028009 
L 171.811683 492.840657 
L 169.278091 494.402324 
L 167.65237 495.796669 
L 166.258894 497.246788 
L 165.139891 498.780568 
L 164.717626 499.561401 
L 164.105341 500.258574 
L 163.45083 500.342234 
L 162.754092 500.063365 
L 161.656202 499.338306 
L 159.650442 499.003663 
L 156.546792 499.254645 
L 154.836618 499.979705 
L 151.310702 500.593216 
L 149.452735 500.760538 
L 145.166742 501.01152 
L 142.717604 501.429823 
L 141.450808 500.983633 
L 140.648504 500.509556 
L 139.297255 499.226758 
L 138.68497 498.780568 
L 138.241591 498.083395 
L 138.051572 497.414109 
L 137.946006 495.908217 
L 137.946006 494.987949 
L 138.114912 493.203187 
L 137.671533 491.251104 
L 137.58708 489.159586 
L 137.7771 488.016223 
L 138.283818 486.900747 
L 140.880749 484.223604 
L 141.640827 483.386997 
L 143.308775 482.18786 
L 144.850043 481.351253 
L 147.172503 480.263664 
L 148.143713 478.897206 
L 148.798224 477.168218 
L 149.410509 475.550777 
L 149.853887 474.937266 
L 150.402832 474.463188 
L 153.379802 472.706313 
L 155.23777 471.47929 
L 156.103414 470.670569 
L 158.320306 467.491462 
L 158.573666 466.571195 
L 158.721459 465.455718 
L 158.721459 462.973784 
L 158.531439 462.081403 
L 158.468099 461.244796 
L 158.805912 459.989885 
L 158.615892 457.563725 
L 158.510326 456.727118 
L 157.961381 454.99813 
L 157.518002 454.27307 
L 156.757925 453.882654 
L 155.638922 452.906612 
L 154.541032 451.595928 
L 153.928747 451.261285 
L 153.084217 450.926642 
L 152.155233 451.03819 
L 151.648515 451.428606 
L 150.90955 453.185481 
L 147.468088 455.667415 
L 146.89803 456.336701 
L 146.517991 458.483993 
L 146.137953 459.543695 
L 145.652347 460.547624 
L 144.322212 465.567266 
L 142.633151 467.714558 
L 142.189772 468.355956 
L 141.450808 468.77426 
L 140.62739 468.885808 
L 139.993992 469.276224 
L 139.867313 470.084944 
L 139.972879 471.423516 
L 139.508387 473.236164 
L 139.529501 474.546849 
L 138.938329 475.43923 
L 138.199365 476.164289 
L 137.882666 477.05667 
L 137.185928 477.837503 
L 136.278058 478.423128 
L 135.982472 480.263664 
L 135.539093 481.100271 
L 134.842356 481.853218 
L 134.082278 482.271521 
L 131.44312 482.1042 
L 129.331793 481.37914 
L 127.30492 480.235777 
L 122.279963 476.387384 
L 120.316429 475.662325 
L 116.874967 474.435301 
L 114.214696 471.953367 
L 113.349052 471.339855 
L 112.040029 470.810004 
L 109.90759 469.359885 
L 108.830813 468.802147 
L 106.67726 467.881879 
L 104.016989 466.43176 
L 103.320251 466.180778 
L 102.496833 466.013457 
L 99.625429 464.953754 
L 98.802012 464.284469 
L 97.915255 463.782504 
L 96.078401 463.029558 
L 93.903735 461.969856 
L 92.636939 460.519737 
L 91.792408 459.989885 
L 89.491062 458.177237 
L 88.393172 457.675273 
L 86.936357 456.782892 
L 83.832707 455.332773 
L 82.94595 455.026017 
L 82.143646 454.579826 
L 81.425795 454.049975 
L 80.517924 453.575898 
L 79.631167 452.934499 
L 79.082222 452.237326 
L 78.469938 451.707475 
L 76.949783 450.870868 
L 76.210818 450.31313 
L 75.345175 450.006374 
L 71.460334 451.233398 
L 69.834612 448.77935 
L 68.272231 447.050362 
L 67.343247 446.213755 
L 62.656102 443.28563 
L 60.861475 441.807625 
L 59.742472 441.138339 
L 56.744388 439.632446 
L 56.068763 439.018934 
L 53.640738 435.560958 
L 52.817321 434.947446 
L 47.729024 432.493399 
L 45.76549 431.04328 
L 44.013089 430.429768 
L 42.134008 429.453727 
L 41.099458 428.840215 
L 39.241491 428.031494 
L 38.270281 427.557417 
L 36.665673 425.939977 
L 36.158954 425.382239 
L 32.50636 423.290721 
L 31.514036 423.039739 
L 30.542826 422.537775 
L 30.542826 422.537775 
" clip-path="url(#pf833d8f6c4)" style="fill: none; stroke: #000000; stroke-width: 3"/>
   </g>
  </g>
 </g>
 <defs>
  <clipPath id="pf833d8f6c4">
   <rect x="7.2" y="7.2" width="513.54217" height="554.4"/>
  </clipPath>
 </defs>
</svg>
