<?xml version="1.0" encoding="utf-8" standalone="no"?>
<!DOCTYPE svg PUBLIC "-//W3C//DTD SVG 1.1//EN"
  "http://www.w3.org/Graphics/SVG/1.1/DTD/svg11.dtd">
<svg xmlns:xlink="http://www.w3.org/1999/xlink" width="408.588025pt" height="568.8pt" viewBox="0 0 408.588025 568.8" xmlns="http://www.w3.org/2000/svg" version="1.1">
 <metadata>
  <rdf:RDF xmlns:dc="http://purl.org/dc/elements/1.1/" xmlns:cc="http://creativecommons.org/ns#" xmlns:rdf="http://www.w3.org/1999/02/22-rdf-syntax-ns#">
   <cc:Work>
    <dc:type rdf:resource="http://purl.org/dc/dcmitype/StillImage"/>
    <dc:date>2023-01-17T05:03:26.563514</dc:date>
    <dc:format>image/svg+xml</dc:format>
    <dc:creator>
     <cc:Agent>
      <dc:title>Matplotlib v3.6.3, https://matplotlib.org/</dc:title>
     </cc:Agent>
    </dc:creator>
   </cc:Work>
  </rdf:RDF>
 </metadata>
 <defs>
  <style type="text/css">*{stroke-linejoin: round; stroke-linecap: butt}</style>
 </defs>
 <g id="figure_1">
  <g id="patch_1">
   <path d="M 0 568.8 
L 408.588025 568.8 
L 408.588025 0 
L 0 0 
z
" style="fill: #ffffff"/>
  </g>
  <g id="axes_1">
   <g id="LineCollection_1">
    <path d="M 172.69061 35.899617 
L 173.817439 37.277419 
L 176.133701 39.647239 
L 177.49007 40.308584 
L 178.742103 41.410826 
L 181.433974 43.312192 
L 184.897933 44.827775 
L 186.588177 45.599344 
L 188.153219 46.563805 
L 190.073003 47.252706 
L 198.169484 50.834992 
L 201.904716 52.10257 
L 202.843741 52.653691 
L 203.594961 53.232367 
L 205.493878 53.397704 
L 207.246724 53.976381 
L 207.810139 54.003937 
L 208.874367 53.866156 
L 209.813392 53.370148 
L 210.710682 52.598578 
L 212.442662 49.980755 
L 215.030197 47.583379 
L 215.948354 46.122909 
L 216.511769 44.524658 
L 217.304724 43.174412 
L 218.264616 42.017059 
L 218.765429 40.666812 
L 219.829657 39.812575 
L 221.4573 39.922799 
L 223.272748 40.6117 
L 225.192532 41.631274 
L 231.577901 43.697977 
L 236.147822 45.130891 
L 239.257038 45.90246 
L 241.948909 46.453581 
L 244.703382 47.335375 
L 250.170593 49.677638 
L 252.799863 50.972772 
L 255.262195 52.51591 
L 259.894717 55.684855 
L 264.172497 58.578239 
L 268.095534 61.664516 
L 270.82914 63.290323 
L 275.378194 66.293931 
L 280.031584 68.746419 
L 284.643239 70.923346 
L 289.35923 72.797157 
L 296.141077 75.662985 
L 302.735118 78.143029 
L 310.789864 81.725314 
L 314.963308 83.488901 
L 321.306943 86.382285 
L 325.250847 88.752105 
L 329.194751 91.369929 
L 331.135403 92.857955 
L 334.515892 96.550465 
L 335.934863 98.479388 
L 337.166029 100.601203 
L 338.105054 102.860798 
L 339.315353 107.655549 
L 341.256004 117.878841 
L 341.902888 120.386441 
L 342.695842 122.838928 
L 343.676601 125.318972 
L 344.824298 127.743904 
L 346.1598 130.086167 
L 347.641373 132.373319 
L 349.269016 134.52269 
L 354.506688 140.502351 
L 356.468206 142.569054 
L 358.742733 144.029524 
L 362.624036 147.556698 
L 364.02214 149.513177 
L 366.56794 153.591471 
L 374.22621 164.641443 
L 377.731903 169.105522 
L 381.613205 173.486933 
L 382.802637 174.892291 
L 383.470388 176.435429 
L 383.219981 178.116348 
L 382.447894 180.017715 
L 380.382039 183.765336 
L 377.043284 189.331657 
L 375.060898 193.299727 
L 373.308052 197.378021 
L 364.856828 211.872499 
L 360.892057 220.166867 
L 359.973899 222.398907 
L 358.99314 224.46561 
L 354.611024 232.181301 
L 351.293136 238.188518 
L 342.174161 256.926627 
L 337.854647 265.110771 
L 335.684456 269.437069 
L 333.242992 273.460252 
L 330.697191 277.180317 
L 324.666565 286.494259 
L 318.92808 297.158447 
L 315.610192 303.606561 
L 313.794744 307.850191 
L 311.520217 312.093822 
L 310.268184 314.243193 
L 309.162221 316.475232 
L 307.889321 318.65216 
L 305.698263 323.088682 
L 303.569807 327.773209 
L 302.442977 329.977693 
L 301.190944 332.182176 
L 299.04162 336.618699 
L 291.821562 349.266922 
L 287.168172 357.616402 
L 285.937007 359.545325 
L 284.747575 361.033352 
L 281.513156 366.627228 
L 279.572505 370.347294 
L 277.423181 374.067359 
L 275.232123 378.062985 
L 274.042692 379.90924 
L 270.474397 384.593767 
L 269.514505 385.916457 
L 268.095534 386.853362 
L 266.947837 387.900492 
L 264.944584 393.577037 
L 263.233472 397.049098 
L 258.726153 405.205686 
L 257.974933 406.803937 
L 257.578456 408.567523 
L 256.95244 414.29918 
L 255.763008 418.157026 
L 254.32317 421.573975 
L 252.653792 424.8807 
L 251.860838 426.396282 
L 251.151353 428.049645 
L 251.047017 429.455003 
L 251.443494 430.557244 
L 252.424253 431.301258 
L 253.718021 431.659486 
L 256.702033 433.175068 
L 259.748647 434.966211 
L 264.589842 437.032914 
L 267.907729 438.272936 
L 270.766538 439.70585 
L 272.143775 440.312083 
L 273.374941 441.138764 
L 274.480903 442.020558 
L 276.338086 442.874795 
L 277.569252 443.233024 
L 278.800418 445.217059 
L 278.821285 445.685511 
L 279.280364 446.512192 
L 282.285243 448.082887 
L 283.933754 449.350465 
L 295.556794 455.495462 
L 299.438097 456.90082 
L 304.550566 459.435976 
L 306.553819 459.959541 
L 308.327532 460.620886 
L 309.934308 461.364899 
L 320.701793 468.364133 
L 322.955453 466.380098 
L 325.209113 467.20678 
L 327.191498 468.639694 
L 328.923477 470.541061 
L 330.530253 472.001531 
L 332.011826 473.627337 
L 335.246245 475.914489 
L 338.668469 477.622963 
L 341.673348 479.11099 
L 344.031344 480.874576 
L 344.657361 482.224822 
L 344.615626 483.960853 
L 343.968742 485.86222 
L 342.174161 490.133406 
L 340.901261 494.569929 
L 339.524025 498.95134 
L 337.83378 501.899836 
L 336.790419 503.442974 
L 335.663589 504.903445 
L 334.745432 506.419027 
L 332.178764 511.654675 
L 331.67795 513.197813 
L 331.051934 516.146309 
L 330.133776 518.102788 
L 328.777407 518.185457 
L 327.212366 517.772116 
L 324.666565 515.925861 
L 324.040548 515.925861 
L 324.520494 515.815637 
L 326.35681 515.292072 
L 327.2541 514.410279 
L 328.589602 511.434226 
L 330.488519 508.981739 
L 330.968465 508.458174 
L 332.408303 507.741717 
L 332.408303 507.603937 
L 332.512639 507.741717 
L 332.596108 507.796829 
L 332.596108 507.796829 
L 333.242992 507.714161 
L 332.950851 508.044833 
L 332.679577 508.651066 
L 332.512639 509.698196 
L 331.865755 510.855549 
L 331.511013 511.764899 
L 330.947598 513.611154 
L 330.718058 514.878732 
L 330.864129 515.980973 
L 331.15627 517.276107 
L 331.928357 518.047676 
L 334.056813 519.232586 
L 335.893129 520.197048 
L 337.291232 520.80328 
L 344.907767 524.991799 
L 347.66224 525.983816 
L 350.458447 527.802515 
L 351.752215 528.794533 
L 353.400725 529.841662 
L 354.402352 530.668343 
L 356.050862 531.412356 
L 357.782841 531.935921 
L 358.596663 532.349262 
L 359.160078 532.817715 
L 359.556555 533.61684 
L 359.973899 536.4 
L 360.140837 536.4 
L 360.057368 536.234664 
L 360.057368 535.600875 
L 360.474712 534.471077 
L 361.163331 533.148387 
L 362.832708 530.943904 
L 363.667397 530.06211 
L 365.67065 528.491416 
L 365.67065 528.491416 
L 375.394774 528.711864 
L 375.186102 528.518972 
L 376.062525 525.6807 
L 376.3964 524.854019 
L 374.97743 523.145544 
L 374.727023 522.401531 
L 373.913201 521.216621 
L 372.72377 519.866375 
L 369.447617 517.772116 
L 366.129729 516.036085 
L 364.731625 515.016512 
L 363.479592 513.941826 
L 362.123223 512.949809 
L 360.850322 511.764899 
L 359.306148 510.745325 
L 355.779588 509.119519 
L 354.214547 508.375506 
L 349.623759 505.592346 
L 347.390966 505.151449 
L 343.843539 504.214543 
L 341.569012 503.883871 
L 340.650855 503.47053 
L 338.939743 502.230508 
L 337.812913 501.183379 
L 334.411556 499.447348 
L 333.263859 498.786003 
L 331.824021 498.17977 
L 327.316702 496.58152 
L 325.960332 495.837507 
L 324.875237 494.845489 
L 323.915345 493.633024 
L 317.05003 489.141389 
L 315.589325 488.5076 
L 314.170354 487.625806 
L 312.730516 485.366211 
L 311.26981 484.704866 
L 309.6213 484.456862 
L 308.077126 483.63018 
L 306.741624 482.30749 
L 305.760865 481.095025 
L 305.510458 480.047895 
L 305.781732 478.20164 
L 306.157342 477.237179 
L 306.99203 475.528704 
L 309.141354 471.918863 
L 311.395014 468.253909 
L 312.417507 465.966758 
L 313.502603 464.230727 
L 318.489868 454.944341 
L 320.639192 451.527392 
L 321.578216 449.681137 
L 322.767648 446.705085 
L 323.35193 445.13439 
L 324.24922 443.095243 
L 327.191498 437.308475 
L 328.652204 435.627556 
L 330.384183 432.486167 
L 330.968465 431.053253 
L 331.594482 428.407873 
L 331.490145 427.360744 
L 330.279847 426.423838 
L 329.048681 425.15626 
L 325.793395 422.345544 
L 324.437025 420.692182 
L 322.97632 419.286823 
L 317.529976 416.172991 
L 315.77713 415.401422 
L 313.940814 414.905413 
L 304.988777 410.937343 
L 303.402869 410.358666 
L 300.648396 410.000437 
L 299.375496 409.531985 
L 296.41235 407.134609 
L 295.035114 406.252816 
L 289.484434 403.524768 
L 279.405567 398.234008 
L 276.630227 396.442865 
L 271.309086 393.27392 
L 269.994451 393.053472 
L 268.658949 392.970804 
L 267.657323 392.612575 
L 266.384422 391.758338 
L 265.946211 391.785894 
L 264.923717 392.667687 
L 264.381169 393.439256 
L 263.588215 394.817059 
L 262.044041 398.4269 
L 261.042414 400.135375 
L 260.312062 401.650957 
L 259.12263 406.252816 
L 258.475746 408.236851 
L 255.888211 413.196938 
L 254.344037 415.594314 
L 253.655419 416.917004 
L 251.610431 419.617496 
L 250.504469 421.353527 
L 242.950536 434.993767 
L 239.757851 441.772553 
L 239.027498 443.508584 
L 237.024245 447.421542 
L 236.085221 449.240241 
L 232.141316 455.991471 
L 230.38847 459.463532 
L 224.649985 468.997922 
L 223.272748 472.221979 
L 220.726947 477.319847 
L 219.43318 478.807873 
L 218.16028 480.461236 
L 217.158653 481.976818 
L 215.384939 485.448879 
L 212.150521 491.979661 
L 211.461902 493.522799 
L 210.627214 494.845489 
L 209.938595 495.561946 
L 209.416915 496.333516 
L 208.936969 497.738874 
L 208.144014 497.986878 
L 206.766778 497.821542 
L 204.283579 495.727283 
L 202.718538 494.625041 
L 200.861355 493.853472 
L 196.541841 492.806342 
L 194.350783 492.420558 
L 192.055389 492.33789 
L 189.655659 492.503226 
L 184.647526 493.192127 
L 179.660261 493.440131 
L 177.030991 493.79836 
L 174.380854 493.963696 
L 169.059713 493.908584 
L 166.326108 493.577911 
L 158.605237 491.759213 
L 156.226374 490.904975 
L 151.489515 488.78316 
L 140.680296 484.870202 
L 137.884088 484.043521 
L 135.54696 483.575068 
L 133.063761 482.059486 
L 130.664031 480.736796 
L 122.56755 475.611372 
L 120.564297 474.068234 
L 118.101965 472.332203 
L 115.848305 470.541061 
L 111.278384 467.261892 
L 102.973231 460.841334 
L 101.199518 459.132859 
L 99.968352 457.699945 
L 94.584609 453.346091 
L 91.141518 450.066922 
L 86.154253 445.244615 
L 84.422274 443.866812 
L 81.083519 440.945872 
L 79.268071 439.650738 
L 74.134735 435.489776 
L 70.253432 432.348387 
L 67.060748 430.03368 
L 63.596789 427.360744 
L 60.007628 424.825588 
L 54.874292 420.802406 
L 49.761823 416.117879 
L 45.066699 411.626244 
L 38.30572 406.776381 
L 36.949351 405.371022 
L 31.836882 400.851832 
L 29.395417 398.344232 
L 27.413032 395.864188 
L 25.660185 393.356588 
L 25.180239 392.061454 
L 25.117638 390.76632 
L 25.639318 389.278294 
L 27.287828 386.136905 
L 30.584849 380.432805 
L 33.068048 375.748278 
L 35.634716 371.201531 
L 38.30572 366.296555 
L 39.140409 364.450301 
L 44.044205 355.990596 
L 45.630114 353.0421 
L 49.094072 347.145107 
L 49.720089 345.326408 
L 50.429574 343.728157 
L 51.389466 340.09076 
L 53.434454 336.784035 
L 56.147192 331.355495 
L 58.317383 328.04877 
L 59.798955 326.422963 
L 60.925785 324.769601 
L 62.803835 321.517988 
L 64.49408 318.156151 
L 65.996519 315.09743 
L 67.478092 312.231602 
L 73.028772 300.051832 
L 74.051266 298.067797 
L 75.094627 296.44199 
L 78.621187 292.556588 
L 79.372407 290.958338 
L 80.01929 289.194751 
L 82.752896 283.518207 
L 85.65344 278.006998 
L 88.929593 272.523346 
L 89.743414 270.869984 
L 91.600597 266.543685 
L 95.711439 258.965774 
L 97.547754 255.273264 
L 98.591115 253.647458 
L 99.509273 251.773647 
L 100.782173 249.817168 
L 101.345588 248.329142 
L 104.287866 243.313942 
L 106.979737 240.282777 
L 109.337733 236.755604 
L 111.549658 232.980426 
L 114.345866 227.11099 
L 115.556164 225.182067 
L 118.581911 219.45041 
L 120.334757 215.7579 
L 123.256168 211.045817 
L 128.306035 202.531001 
L 132.229072 195.449098 
L 133.335035 193.713067 
L 136.402516 188.229415 
L 141.389781 179.35637 
L 143.267831 175.80164 
L 144.311192 174.148278 
L 154.348324 156.319519 
L 155.391685 154.666156 
L 166.096568 135.046255 
L 167.80768 131.408857 
L 170.499552 126.806998 
L 178.116086 115.674358 
L 178.950775 114.241443 
L 179.639393 112.753417 
L 180.056738 111.100055 
L 180.954028 109.198688 
L 182.226929 104.872389 
L 183.6459 101.510552 
L 184.501455 100.022526 
L 186.483841 97.404702 
L 192.681405 84.536031 
L 193.077882 83.433789 
L 193.787368 82.166211 
L 194.142111 80.209732 
L 194.851596 78.749262 
L 195.728019 77.50924 
L 196.729646 75.883434 
L 200.15187 71.226463 
L 200.777886 69.903773 
L 201.612575 68.939311 
L 202.572467 68.167742 
L 204.659189 67.644177 
L 207.455396 64.971241 
L 206.015558 62.904538 
L 205.744284 61.140951 
L 205.973824 59.322253 
L 205.723417 58.247567 
L 205.306073 57.889338 
L 205.160002 56.594204 
L 204.638322 55.188846 
L 202.593334 53.535484 
L 201.236965 52.681247 
L 198.336422 51.386113 
L 196.980052 50.614543 
L 192.994414 47.941607 
L 191.617177 47.032258 
L 190.198206 45.847348 
L 189.175713 44.607326 
L 186.922053 42.568179 
L 185.649153 41.686386 
L 180.181941 38.544997 
L 177.260531 37.277419 
L 174.652128 35.816949 
L 173.254024 35.18316 
L 169.957004 33.061345 
L 169.268386 32.4 
L 168.809307 32.427556 
L 168.433697 32.67556 
L 167.932884 32.592892 
L 167.828548 32.758229 
L 167.828548 32.758229 
" clip-path="url(#p29cb935472)" style="fill: none; stroke: #000000; stroke-width: 3"/>
   </g>
  </g>
 </g>
 <defs>
  <clipPath id="p29cb935472">
   <rect x="7.2" y="7.2" width="394.188025" height="554.4"/>
  </clipPath>
 </defs>
</svg>
