<?xml version="1.0" encoding="utf-8" standalone="no"?>
<!DOCTYPE svg PUBLIC "-//W3C//DTD SVG 1.1//EN"
  "http://www.w3.org/Graphics/SVG/1.1/DTD/svg11.dtd">
<svg xmlns:xlink="http://www.w3.org/1999/xlink" width="294.753412pt" height="568.8pt" viewBox="0 0 294.753412 568.8" xmlns="http://www.w3.org/2000/svg" version="1.1">
 <metadata>
  <rdf:RDF xmlns:dc="http://purl.org/dc/elements/1.1/" xmlns:cc="http://creativecommons.org/ns#" xmlns:rdf="http://www.w3.org/1999/02/22-rdf-syntax-ns#">
   <cc:Work>
    <dc:type rdf:resource="http://purl.org/dc/dcmitype/StillImage"/>
    <dc:date>2023-01-19T05:03:12.464611</dc:date>
    <dc:format>image/svg+xml</dc:format>
    <dc:creator>
     <cc:Agent>
      <dc:title>Matplotlib v3.6.3, https://matplotlib.org/</dc:title>
     </cc:Agent>
    </dc:creator>
   </cc:Work>
  </rdf:RDF>
 </metadata>
 <defs>
  <style type="text/css">*{stroke-linejoin: round; stroke-linecap: butt}</style>
 </defs>
 <g id="figure_1">
  <g id="patch_1">
   <path d="M 0 568.8 
L 294.753412 568.8 
L 294.753412 0 
L 0 0 
z
" style="fill: #ffffff"/>
  </g>
  <g id="axes_1">
   <g id="LineCollection_1">
    <path d="M 139.977873 170.46764 
L 141.372765 171.198569 
L 142.317454 171.705347 
L 143.98542 172.69941 
L 146.398805 173.566779 
L 147.786317 173.83966 
L 149.151688 174.073557 
L 150.893458 175.048129 
L 151.351042 175.447704 
L 152.007896 176.198124 
L 152.568805 176.870579 
L 152.797597 177.007019 
L 153.424929 177.007019 
L 154.059642 176.34431 
L 155.469295 174.268471 
L 156.930611 171.900261 
L 157.336532 171.763821 
L 157.926962 171.841787 
L 161.388362 173.430339 
L 167.026974 175.52567 
L 168.776124 176.383293 
L 170.24482 177.445577 
L 172.281806 179.248535 
L 174.252368 181.051494 
L 175.662021 181.870134 
L 178.422284 183.312501 
L 180.584736 184.267582 
L 184.850597 185.826897 
L 186.223348 186.431132 
L 188.297235 187.220536 
L 191.242008 188.351039 
L 194.127737 189.793406 
L 196.157342 191.138316 
L 196.769914 191.645093 
L 197.559615 192.47348 
L 198.452641 193.876864 
L 199.02093 195.358213 
L 199.40471 197.268375 
L 200.17965 201.517509 
L 201.146481 204.012414 
L 202.113311 205.630204 
L 205.050703 208.826801 
L 205.899447 209.323833 
L 207.552652 210.600522 
L 208.703992 212.042889 
L 211.427353 215.833975 
L 213.30197 218.055999 
L 214.586157 219.4204 
L 215.139685 219.897941 
L 215.4349 220.317007 
L 215.449661 220.872513 
L 215.028979 222.090728 
L 212.859147 226.281388 
L 210.78526 229.711882 
L 208.09142 234.224152 
L 206.711289 236.874988 
L 205.37544 239.408876 
L 204.711205 241.250817 
L 203.567246 243.394876 
L 202.733263 244.749531 
L 200.35678 249.281292 
L 199.39733 249.914764 
L 198.976648 250.67493 
L 198.747856 251.435096 
L 197.980297 252.672803 
L 197.389866 253.286783 
L 196.865859 255.00203 
L 196.607546 255.781688 
L 193.323275 261.88251 
L 191.551984 265.127835 
L 189.795453 268.304941 
L 189.197642 269.78629 
L 188.983611 270.526965 
L 188.275094 272.086281 
L 187.928216 273.080344 
L 186.983527 274.620168 
L 185.935513 276.004061 
L 185.153192 277.261259 
L 183.854245 279.912095 
L 183.308097 281.19853 
L 179.020095 288.195959 
L 178.318958 289.511631 
L 177.595681 290.58366 
L 176.769078 292.47433 
L 175.45537 294.784067 
L 174.252368 296.723465 
L 173.211734 298.701847 
L 171.19689 302.52217 
L 170.635981 303.68191 
L 169.742954 305.728512 
L 169.322273 306.790796 
L 167.868337 308.681466 
L 164.547165 314.762796 
L 163.86817 316.585246 
L 162.170682 320.122943 
L 161.366221 321.175481 
L 160.672465 322.276748 
L 158.753565 326.672068 
L 154.694355 332.899584 
L 153.395408 334.410171 
L 153.269941 334.780509 
L 152.878781 335.482201 
L 152.103841 336.505501 
L 149.439523 341.076245 
L 147.077801 346.095292 
L 146.398805 347.303761 
L 143.631162 352.868568 
L 142.870983 354.077038 
L 141.704882 356.133385 
L 138.974141 360.421502 
L 137.859703 362.877424 
L 137.099524 364.543943 
L 136.228639 366.035038 
L 134.966593 368.208334 
L 133.800493 370.488833 
L 130.486701 376.268046 
L 130.08078 377.476516 
L 129.667479 378.646002 
L 128.803974 380.146843 
L 127.999513 381.608702 
L 127.224572 383.577337 
L 125.423759 384.483689 
L 125.04736 385.204873 
L 124.375745 385.604447 
L 123.70413 386.218428 
L 123.224405 387.231983 
L 122.796343 387.26122 
L 121.512157 389.687905 
L 121.335028 390.29214 
L 121.371929 392.056115 
L 121.829513 392.377724 
L 121.947599 392.93323 
L 121.349788 394.502291 
L 121.239083 395.701015 
L 121.401451 395.613304 
L 121.327647 395.856947 
L 120.685554 396.71457 
L 120.183688 397.143382 
L 118.131942 400.349724 
L 117.283198 401.801837 
L 116.530399 403.185729 
L 115.172408 408.458165 
L 114.412229 410.339089 
L 113.696332 411.859422 
L 112.973054 412.63908 
L 112.677839 412.882723 
L 110.057804 414.188649 
L 109.474753 414.724664 
L 109.496894 415.270424 
L 109.22382 415.68949 
L 108.463641 416.050082 
L 107.947014 416.6933 
L 107.467289 417.814058 
L 107.164694 419.256425 
L 106.803055 419.626762 
L 106.256907 420.240743 
L 105.636955 421.663618 
L 105.408163 422.277598 
L 104.832493 423.213188 
L 104.559419 424.05132 
L 104.456093 424.753012 
L 104.249443 425.094112 
L 103.075962 425.493687 
L 101.69583 425.971227 
L 100.876608 426.877579 
L 100.507589 427.403848 
L 100.168091 428.300454 
L 99.998343 429.070366 
L 99.548139 430.054684 
L 98.847003 431.136459 
L 97.968737 433.017384 
L 97.43735 434.313565 
L 96.647649 436.672029 
L 96.145783 438.094905 
L 94.53686 443.562255 
L 94.175221 444.078778 
L 93.629073 444.341912 
L 93.695496 444.887673 
L 94.138319 446.271565 
L 93.245293 446.836817 
L 92.315365 447.626221 
L 91.688032 448.308421 
L 90.67692 449.03935 
L 88.470186 452.996113 
L 86.322494 456.699488 
L 85.887052 457.596094 
L 85.2671 459.301595 
L 84.100999 461.738026 
L 82.078775 465.909195 
L 80.986478 467.80961 
L 79.4735 470.216804 
L 77.73173 473.744755 
L 76.071144 475.791356 
L 74.27033 479.173122 
L 73.318261 480.917606 
L 72.927101 481.619298 
L 71.893847 483.217596 
L 70.484194 486.03411 
L 69.893764 486.716311 
L 69.096682 488.051474 
L 68.543154 488.782404 
L 65.841934 493.850179 
L 65.244123 495.701866 
L 64.749637 496.306101 
L 64.02636 497.534062 
L 63.6352 498.079822 
L 62.911922 499.453969 
L 60.195941 501.656502 
L 59.59813 502.70904 
L 58.04087 506.997157 
L 57.627568 508.488253 
L 56.144112 510.827226 
L 54.918968 513.292894 
L 52.033239 518.321686 
L 51.730643 519.013632 
L 51.361624 519.578884 
L 50.874519 520.650914 
L 49.523909 523.155564 
L 48.808012 524.568694 
L 48.520177 526.108518 
L 47.531206 527.190293 
L 47.258131 527.511902 
L 46.807928 528.535203 
L 46.616038 529.139437 
L 43.966481 532.014425 
L 43.737689 532.530948 
L 43.781971 533.008489 
L 42.542067 535.006362 
L 42.01806 535.581359 
L 40.637929 536.4 
L 40.505082 535.834748 
L 39.848228 535.405936 
L 39.147091 534.889413 
L 37.523407 533.934332 
L 36.962498 533.515266 
L 36.60086 533.037726 
L 36.696804 532.511457 
L 36.556577 531.517393 
L 36.03257 529.139437 
L 35.176446 527.619105 
L 34.320321 526.819956 
L 33.191123 526.488601 
L 31.5822 525.689452 
L 30.342295 525.241149 
L 29.301662 524.412762 
L 26.792332 523.399207 
L 26.319987 523.077598 
L 25.294114 522.746244 
L 24.504413 521.664469 
L 24.290382 521.186928 
L 24.260861 520.953031 
L 24.873432 519.491173 
L 25.057942 518.477618 
L 25.006279 517.931857 
L 24.290382 517.259402 
L 22.290298 516.167882 
L 20.164748 513.37086 
L 19.943337 512.415779 
L 19.980239 512.064933 
L 20.673995 510.953921 
L 20.880645 510.466634 
L 23.360454 508.31283 
L 24.128014 507.289529 
L 25.700035 505.876399 
L 26.18714 504.638693 
L 26.024772 504.12217 
L 26.283085 503.352258 
L 27.368001 501.783196 
L 28.268408 500.808624 
L 29.139293 500.097187 
L 29.892092 499.181089 
L 31.862654 496.072203 
L 33.183743 494.356956 
L 34.453168 492.437049 
L 34.86647 491.131122 
L 35.515943 490.08833 
L 36.290883 488.792149 
L 36.667283 488.363338 
L 36.80013 488.295117 
L 36.770608 487.944271 
L 36.940357 487.505714 
L 37.353659 486.784531 
L 37.619352 485.69301 
L 37.980991 484.825641 
L 39.88513 481.590061 
L 40.66745 479.88456 
L 41.553096 478.208295 
L 42.128766 476.522286 
L 43.154639 474.28077 
L 43.826254 472.555777 
L 44.601194 470.899004 
L 46.232258 467.887576 
L 47.066241 466.727835 
L 48.940859 463.570221 
L 49.701038 462.303278 
L 50.151241 461.669806 
L 50.785954 460.188456 
L 51.309961 458.736343 
L 51.996337 457.381688 
L 55.391313 452.518573 
L 56.985475 450.11138 
L 58.557497 447.704186 
L 60.874937 442.802088 
L 60.793752 442.129634 
L 60.572341 441.418196 
L 60.793752 440.911418 
L 61.428465 440.238964 
L 61.959853 439.322866 
L 62.269829 437.510161 
L 62.306731 436.974147 
L 62.838118 435.833897 
L 63.863991 434.177125 
L 64.816061 431.623746 
L 65.303166 430.347056 
L 65.701707 429.72333 
L 65.797651 428.885198 
L 65.856695 428.290709 
L 66.188812 427.852151 
L 66.469266 427.520797 
L 66.565211 427.325882 
L 68.225797 426.780122 
L 68.86051 425.951735 
L 68.705522 425.961481 
L 68.395546 426.312327 
L 68.735044 426.117413 
L 68.373405 426.341564 
L 67.303249 427.501305 
L 67.31063 427.345374 
L 67.303249 425.87377 
L 69.126204 423.076748 
L 69.753536 421.731838 
L 70.927017 420.172522 
L 72.816395 417.765329 
L 73.443727 416.956434 
L 75.104313 413.837803 
L 76.211371 412.512385 
L 81.340736 403.419627 
L 85.820628 397.075162 
L 87.717387 394.034497 
L 90.071729 390.409088 
L 95.11253 387.348932 
L 97.385687 383.830726 
L 98.153247 381.949802 
L 98.736297 379.97142 
L 101.171823 374.981611 
L 103.555687 370.605782 
L 103.968988 369.670192 
L 104.367529 368.071894 
L 105.046524 366.493087 
L 106.773533 361.912598 
L 107.076129 360.216842 
L 107.009706 359.749048 
L 106.404514 358.725747 
L 105.3565 357.82914 
L 102.825029 356.113893 
L 101.769634 355.012627 
L 100.987314 353.765175 
L 100.485448 352.381282 
L 100.352601 351.016881 
L 100.411644 350.344426 
L 100.588773 349.671971 
L 100.898749 349.019008 
L 101.806536 347.849521 
L 105.267935 344.779619 
L 106.094538 343.463947 
L 107.386105 340.569467 
L 108.234849 338.37668 
L 111.238665 331.963995 
L 111.843856 330.521628 
L 112.677839 329.12799 
L 116.301607 324.264875 
L 117.954812 322.715305 
L 119.290662 321.808953 
L 120.788879 321.282684 
L 122.272336 320.863618 
L 123.777934 320.766161 
L 125.25401 321.000058 
L 127.37218 321.584801 
L 128.818735 322.237765 
L 131.81517 324.216146 
L 132.951749 324.654704 
L 133.579082 324.713178 
L 135.771055 324.459789 
L 137.188088 323.982249 
L 138.38371 323.348777 
L 140.11072 321.945393 
L 141.188256 320.951329 
L 142.088662 319.772097 
L 144.007562 316.458552 
L 145.52054 312.5895 
L 145.919081 311.887808 
L 148.111054 309.334429 
L 148.731006 308.778923 
L 153.720145 305.650546 
L 154.841963 304.968346 
L 155.712848 304.023011 
L 157.277489 301.859461 
L 158.030288 299.96879 
L 159.42518 296.655245 
L 159.949187 295.339573 
L 160.38463 293.838732 
L 160.620802 292.386619 
L 160.59128 290.866286 
L 160.296065 289.336208 
L 159.720395 287.893841 
L 158.251699 284.921396 
L 157.808876 283.264623 
L 157.616986 281.637088 
L 157.676029 280.828193 
L 157.845778 280.048535 
L 158.561675 278.498965 
L 159.403039 277.183293 
L 161.336699 274.785845 
L 163.543433 272.427381 
L 165.336866 270.955777 
L 166.584151 270.185865 
L 168.554713 269.133327 
L 170.311244 267.856637 
L 171.285454 266.852828 
L 171.898026 265.634613 
L 172.075155 264.45538 
L 172.097296 263.159199 
L 171.927547 261.219801 
L 171.883265 259.92362 
L 171.957069 258.549473 
L 172.503217 256.015585 
L 173.735741 251.581282 
L 174.193325 249.710103 
L 175.63988 245.431732 
L 176.717415 243.053776 
L 177.507116 241.328783 
L 178.208253 239.691501 
L 179.108659 238.05422 
L 180.333803 236.43643 
L 181.861542 234.838132 
L 185.418886 231.271198 
L 186.725214 229.624171 
L 190.098048 224.010635 
L 193.640632 216.067872 
L 194.998622 213.826356 
L 195.958072 212.598395 
L 197.980297 210.639505 
L 199.323526 209.69417 
L 200.570811 209.08019 
L 203.700093 207.959431 
L 205.7666 207.335705 
L 206.667006 207.170028 
L 208.224267 207.209011 
L 215.04374 208.07638 
L 216.490295 208.066634 
L 217.94423 207.784009 
L 218.770833 207.491637 
L 219.435068 207.111554 
L 220.556886 206.068761 
L 221.826311 204.36326 
L 223.080976 202.238693 
L 224.852268 198.847182 
L 229.310019 190.368404 
L 230.719672 187.55189 
L 232.136705 184.745122 
L 235.767853 178.624809 
L 240.675808 169.814677 
L 241.805006 167.680364 
L 243.03753 165.662999 
L 243.709145 164.249869 
L 245.509958 160.780393 
L 247.015556 157.213458 
L 247.642888 154.991434 
L 247.820018 153.393135 
L 248.019288 146.43469 
L 248.786848 141.795727 
L 248.779467 139.963531 
L 248.521154 138.131335 
L 247.923343 136.416088 
L 247.08936 134.827536 
L 245.679707 132.537291 
L 245.318068 131.767379 
L 245.081896 130.948738 
L 244.956429 129.223746 
L 245.037613 128.336885 
L 245.281166 127.479261 
L 246.078247 125.822489 
L 248.44735 121.553863 
L 250.587661 118.172097 
L 255.908916 111.408566 
L 259.687672 107.217906 
L 261.599191 104.625544 
L 262.145339 103.202668 
L 262.661966 100.902678 
L 262.72839 99.294634 
L 262.337229 96.283206 
L 262.374131 94.840839 
L 262.912899 90.523484 
L 263.481189 86.868839 
L 264.47016 82.639196 
L 265.473892 80.67056 
L 266.330016 79.501073 
L 267.828234 77.970995 
L 268.964813 77.074388 
L 270.84681 75.846428 
L 272.832133 74.696432 
L 273.444705 74.209146 
L 273.961331 73.643894 
L 274.374633 72.942202 
L 274.655087 72.230765 
L 274.795314 71.441361 
L 274.810075 70.612975 
L 274.603425 69.794334 
L 274.249166 69.034168 
L 273.710398 68.381205 
L 273.024023 67.835444 
L 272.226941 67.43587 
L 271.363437 67.172735 
L 270.470411 67.104515 
L 269.570004 67.270192 
L 267.820853 68.059596 
L 265.525554 69.677386 
L 263.997815 70.856618 
L 263.134311 71.236701 
L 262.219143 71.509581 
L 260.344526 71.704496 
L 259.429359 71.538819 
L 258.624897 71.129498 
L 258.004945 70.515518 
L 257.628545 69.677386 
L 257.259526 67.874427 
L 257.355471 66.120197 
L 257.584263 65.291811 
L 257.945902 64.492662 
L 259.488402 62.485043 
L 260.735686 61.208353 
L 261.975591 59.921918 
L 263.569753 57.865571 
L 265.06059 55.546089 
L 266.676894 52.524915 
L 267.518258 50.137214 
L 267.850375 48.538915 
L 267.902038 46.940617 
L 267.717528 45.381301 
L 267.068054 44.046137 
L 266.21931 42.915634 
L 264.374215 41.083438 
L 263.363102 40.147849 
L 259.370316 37.165658 
L 257.680208 36.191086 
L 255.849873 35.469902 
L 251.074766 34.202959 
L 247.731453 33.618215 
L 246.026585 33.433047 
L 244.890006 33.199149 
L 243.288463 32.633897 
L 241.701681 32.4 
L 240.860317 32.624152 
L 239.900867 33.238132 
L 239.022602 34.124993 
L 237.657231 36.610152 
L 237.192267 38.110993 
L 237.081561 39.192768 
L 237.133224 40.713101 
L 237.553906 42.096993 
L 237.797459 42.623262 
L 238.107435 42.954617 
L 238.911896 43.451648 
L 240.358451 44.543169 
L 241.280999 44.855032 
L 245.414013 46.053756 
L 246.292278 46.609262 
L 247.074599 47.466886 
L 247.642888 48.460949 
L 247.915963 49.581707 
L 248.093092 51.326192 
L 248.240699 54.795669 
L 248.425209 55.994392 
L 248.963977 57.943537 
L 249.679874 59.921918 
L 249.761058 61.432505 
L 249.635592 63.069786 
L 249.000879 65.554945 
L 248.63924 66.334603 
L 247.111501 68.410442 
L 245.118798 70.379078 
L 243.62796 71.509581 
L 241.989516 72.464662 
L 240.173942 73.293048 
L 236.350904 74.676941 
L 234.660796 75.61253 
L 233.229002 76.928203 
L 232.210509 78.545992 
L 231.590557 80.212511 
L 230.822997 82.541738 
L 230.453978 83.282413 
L 229.383823 84.510374 
L 228.018452 85.504438 
L 226.534995 86.27435 
L 218.874159 89.899758 
L 216.999542 91.040008 
L 215.951527 92.063309 
L 215.028979 93.076864 
L 213.191264 95.59126 
L 212.239195 97.111592 
L 210.969769 99.733192 
L 210.290774 101.380219 
L 209.545355 103.397583 
L 209.05825 105.054356 
L 208.829458 106.116639 
L 208.047138 108.114512 
L 207.353382 109.57637 
L 206.637485 111.116195 
L 204.932617 113.503896 
L 203.980547 114.439486 
L 201.227665 116.417867 
L 198.895464 117.9382 
L 196.49684 120.218699 
L 195.810464 121.573354 
L 194.777211 124.721222 
L 194.651744 125.997912 
L 194.880536 131.289839 
L 194.651744 132.615257 
L 194.112976 133.833472 
L 193.146146 135.548719 
L 192.2605 136.533037 
L 190.024245 137.897438 
L 187.072092 139.174127 
L 182.621721 141.133017 
L 181.086602 142.17581 
L 177.248803 145.440627 
L 175.817009 147.155874 
L 174.436877 149.017306 
L 172.414653 152.584241 
L 171.337117 155.049908 
L 170.857392 156.735918 
L 170.082452 160.643952 
L 170.215299 163.421483 
L 170.444091 164.746901 
L 171.01238 166.696046 
L 172.451555 171.130349 
L 173.182212 173.664237 
L 173.440526 175.564652 
L 173.32982 177.504051 
L 172.835334 179.765058 
L 172.444174 180.788359 
L 171.219031 182.805724 
L 167.440275 187.82477 
L 164.340515 190.748487 
L 161.823804 192.47348 
L 158.834749 194.744233 
L 157.668649 196.137871 
L 157.358673 196.332785 
L 156.982274 196.284057 
L 156.856807 196.001431 
L 157.085599 195.299739 
L 157.676029 193.672203 
L 158.089331 191.46967 
L 158.502632 190.153998 
L 158.591197 188.633665 
L 158.517393 187.68833 
L 157.749833 183.868007 
L 156.126149 180.486242 
L 154.819822 179.219298 
L 154.222011 178.975655 
L 153.535635 178.887944 
L 150.531819 182.562081 
L 149.941389 184.072668 
L 149.513327 185.125205 
L 148.80481 186.762487 
L 148.41365 188.526462 
L 148.686724 189.267137 
L 148.694104 189.910355 
L 146.856389 190.309929 
L 146.081449 190.397641 
L 145.52792 190.339167 
L 144.538949 189.822643 
L 140.435457 187.454433 
L 137.918746 186.226472 
L 136.63456 185.271391 
L 136.095792 184.988765 
L 135.67511 184.569699 
L 133.881677 183.322247 
L 133.202682 182.542589 
L 132.877945 182.08454 
L 132.501546 181.821406 
L 130.412898 181.032002 
L 123.836977 177.513797 
L 122.862767 176.782868 
L 120.294394 175.369738 
L 118.641188 174.619317 
L 117.571033 174.141777 
L 116.087576 173.459577 
L 115.187169 173.001528 
L 113.054239 171.929498 
L 111.711009 170.80874 
L 110.345638 169.912134 
L 110.345638 169.912134 
" clip-path="url(#p8a0bea6ece)" style="fill: none; stroke: #000000; stroke-width: 3"/>
   </g>
  </g>
 </g>
 <defs>
  <clipPath id="p8a0bea6ece">
   <rect x="7.2" y="7.2" width="280.353412" height="554.4"/>
  </clipPath>
 </defs>
</svg>
