<?xml version="1.0" encoding="utf-8" standalone="no"?>
<!DOCTYPE svg PUBLIC "-//W3C//DTD SVG 1.1//EN"
  "http://www.w3.org/Graphics/SVG/1.1/DTD/svg11.dtd">
<svg xmlns:xlink="http://www.w3.org/1999/xlink" width="386.490871pt" height="568.8pt" viewBox="0 0 386.490871 568.8" xmlns="http://www.w3.org/2000/svg" version="1.1">
 <metadata>
  <rdf:RDF xmlns:dc="http://purl.org/dc/elements/1.1/" xmlns:cc="http://creativecommons.org/ns#" xmlns:rdf="http://www.w3.org/1999/02/22-rdf-syntax-ns#">
   <cc:Work>
    <dc:type rdf:resource="http://purl.org/dc/dcmitype/StillImage"/>
    <dc:date>2023-02-11T05:02:51.348413</dc:date>
    <dc:format>image/svg+xml</dc:format>
    <dc:creator>
     <cc:Agent>
      <dc:title>Matplotlib v3.6.3, https://matplotlib.org/</dc:title>
     </cc:Agent>
    </dc:creator>
   </cc:Work>
  </rdf:RDF>
 </metadata>
 <defs>
  <style type="text/css">*{stroke-linejoin: round; stroke-linecap: butt}</style>
 </defs>
 <g id="figure_1">
  <g id="patch_1">
   <path d="M 0 568.8 
L 386.490871 568.8 
L 386.490871 0 
L 0 0 
z
" style="fill: #ffffff"/>
  </g>
  <g id="axes_1">
   <g id="LineCollection_1">
    <path d="M 251.920025 144.337251 
L 252.263398 144.599735 
L 252.293518 144.504286 
L 252.293518 144.297481 
L 251.901952 144.480424 
L 251.980266 144.369068 
L 252.136892 144.130446 
L 252.612795 144.337251 
L 252.932071 144.273619 
L 253.160986 144.520194 
L 257.287485 146.683694 
L 258.673024 147.590455 
L 260.365792 148.043836 
L 260.703141 148.361997 
L 260.823623 148.568802 
L 261.486272 148.807424 
L 261.703139 149.117631 
L 261.829645 149.610782 
L 262.106753 149.467609 
L 262.78145 149.356253 
L 263.365786 148.552894 
L 263.685063 148.576757 
L 263.962171 148.377905 
L 265.197108 146.580292 
L 265.341686 146.150773 
L 266.341685 145.729209 
L 266.727226 145.96783 
L 266.805539 146.373487 
L 267.124816 146.834821 
L 267.697104 147.264339 
L 268.889873 147.216615 
L 270.98023 147.709766 
L 271.546494 147.71772 
L 274.847693 149.077861 
L 277.974193 151.185683 
L 279.835635 152.506054 
L 280.425996 153.213964 
L 283.805507 154.939991 
L 284.377795 155.067256 
L 285.064541 155.520636 
L 288.329595 156.817145 
L 294.178982 159.251083 
L 296.064521 160.261246 
L 297.883794 161.406628 
L 299.02837 162.488378 
L 299.895839 163.88829 
L 300.462103 165.42342 
L 301.124752 168.636854 
L 301.823546 170.919664 
L 303.136796 172.916129 
L 304.178963 174.093327 
L 305.160889 175.055767 
L 305.986189 176.177287 
L 307.570523 177.084048 
L 308.064498 177.752187 
L 308.630762 179.040742 
L 309.769314 180.854264 
L 311.811479 183.320018 
L 312.654851 184.187008 
L 313.486175 184.990367 
L 313.751234 185.364207 
L 313.931957 185.913036 
L 313.913885 186.3346 
L 312.492201 188.323111 
L 311.763286 189.850287 
L 311.684973 190.359346 
L 306.654862 199.244012 
L 305.064504 201.868847 
L 304.184987 203.443747 
L 302.052461 207.898011 
L 301.925955 208.494565 
L 301.425956 209.544498 
L 301.052463 210.65011 
L 300.28138 211.73186 
L 299.727164 212.161379 
L 299.347647 212.702254 
L 298.775359 213.871498 
L 297.721144 215.947503 
L 297.570542 216.504286 
L 297.088615 216.965621 
L 296.148858 218.731418 
L 295.588618 220.624481 
L 293.197056 225.038975 
L 291.992239 227.48882 
L 290.624772 229.803447 
L 288.998269 232.889616 
L 288.480197 233.955457 
L 287.932006 235.22015 
L 287.299477 236.381441 
L 286.709116 237.471144 
L 286.088636 238.409722 
L 285.371769 239.698277 
L 284.913939 240.589129 
L 284.480205 241.360672 
L 283.751291 243.396907 
L 283.275388 243.683252 
L 282.462136 245.11498 
L 281.540451 246.856916 
L 281.45009 247.302342 
L 280.010334 249.505612 
L 279.733226 250.022625 
L 279.648889 250.515776 
L 279.395877 250.778259 
L 279.281419 251.27141 
L 279.028408 251.597525 
L 278.733228 252.909943 
L 278.395879 254.007601 
L 278.317566 254.572338 
L 277.986241 255.081396 
L 277.570579 255.439328 
L 273.715165 260.991251 
L 273.185045 262.03323 
L 272.438059 263.997879 
L 271.745289 264.801237 
L 271.588663 265.405745 
L 271.335651 265.525055 
L 269.998304 268.18966 
L 269.426016 268.778259 
L 269.130836 269.43049 
L 268.028428 271.212196 
L 267.618791 271.840566 
L 267.32361 272.620062 
L 263.697111 278.649227 
L 263.166992 279.237826 
L 262.432053 280.558197 
L 260.901936 283.342112 
L 259.721215 285.044278 
L 259.221216 286.221476 
L 258.82965 286.802121 
L 258.124832 288.631551 
L 257.715195 289.236058 
L 257.377846 289.951922 
L 257.010377 291.200707 
L 256.733269 291.789306 
L 256.55857 292.481308 
L 256.13086 292.91878 
L 254.359779 295.623155 
L 253.094721 298.40707 
L 252.57665 298.852497 
L 252.167012 299.377464 
L 251.859784 299.981971 
L 250.745328 301.405745 
L 250.606774 302.002298 
L 249.763402 303.545382 
L 249.034488 304.372603 
L 248.715211 305.637296 
L 248.32967 306.09863 
L 247.914008 306.909943 
L 247.438105 307.63376 
L 247.010395 308.071233 
L 246.257385 309.168891 
L 244.67305 311.467609 
L 244.341726 312.692532 
L 244.11281 312.939107 
L 244.016425 313.312947 
L 243.088716 314.227662 
L 241.793538 317.003624 
L 241.359803 317.433142 
L 240.088722 319.755722 
L 239.636915 320.869289 
L 239.203181 321.473796 
L 239.064627 322.054441 
L 238.81764 322.515776 
L 238.528483 323.295272 
L 237.245353 325.196288 
L 236.823667 325.665577 
L 236.84174 326.254176 
L 236.094753 327.606363 
L 235.673067 328.767654 
L 234.209214 330.525497 
L 233.87789 331.989041 
L 233.148975 333.293504 
L 232.49235 333.754839 
L 231.895966 334.932037 
L 230.287535 338.232965 
L 229.859825 338.527265 
L 229.07067 340.022625 
L 228.739345 340.531684 
L 227.98031 342.305435 
L 227.251396 343.959876 
L 226.305615 345.017764 
L 225.426098 346.704021 
L 225.233328 347.833495 
L 224.962244 348.366416 
L 224.468269 348.787981 
L 224.034535 349.670879 
L 222.98032 350.760583 
L 222.962247 351.20601 
L 222.793573 351.65939 
L 222.395983 352.192311 
L 222.02249 353.043394 
L 221.751406 354.475122 
L 221.191166 355.008042 
L 220.353819 356.248873 
L 219.781531 357.553336 
L 218.944183 358.786213 
L 216.1972 364.202916 
L 215.811658 364.719929 
L 215.305635 365.88122 
L 214.926118 366.390278 
L 214.227324 368.100398 
L 213.624916 369.261688 
L 213.299615 369.95369 
L 213.149013 370.590013 
L 212.896001 371.130888 
L 211.691184 372.841008 
L 211.323715 373.389837 
L 210.793596 373.875033 
L 210.492391 374.47954 
L 209.54661 375.243129 
L 209.058659 376.690764 
L 208.72131 377.319134 
L 207.402036 378.870172 
L 207.082759 379.506496 
L 206.251435 380.524613 
L 205.835773 381.152983 
L 205.516497 383.125586 
L 204.883968 383.698277 
L 204.727342 384.247106 
L 203.91409 385.233407 
L 203.643006 385.973133 
L 203.444212 387.388953 
L 203.136983 388.001414 
L 202.655057 388.478657 
L 201.763492 389.624039 
L 201.016505 390.339903 
L 200.239398 392.256827 
L 199.396026 393.044278 
L 198.932172 393.314715 
L 198.173137 394.428281 
L 198.076752 395.31118 
L 198.094824 395.740698 
L 197.908077 396.241803 
L 197.745427 396.225895 
L 197.612897 396.894034 
L 197.552656 397.18038 
L 197.576753 397.506496 
L 197.227356 398.26213 
L 196.890007 398.445073 
L 196.751453 398.826867 
L 195.516516 400.163146 
L 194.034591 402.676624 
L 192.841822 404.776491 
L 192.221341 405.866195 
L 191.30568 407.544498 
L 190.173152 410.893151 
L 189.582792 411.298807 
L 188.956287 411.211312 
L 188.359902 411.545382 
L 188.100867 412.213522 
L 187.757494 413.812285 
L 187.504482 414.544057 
L 187.130989 415.172426 
L 186.890026 415.880336 
L 186.293641 416.34167 
L 185.914124 416.93027 
L 185.751474 417.669996 
L 185.365932 418.187008 
L 185.088824 418.807424 
L 184.396054 419.936898 
L 184.028585 420.143703 
L 183.257502 421.511798 
L 183.010515 421.654971 
L 182.805696 422.57764 
L 183.034611 422.633319 
L 183.100876 422.609456 
L 182.769551 423.420769 
L 181.92618 423.150331 
L 180.799676 422.561732 
L 180.341845 422.140168 
L 180.209315 421.49589 
L 180.251484 421.074326 
L 180.034617 420.827751 
L 179.480401 420.477773 
L 179.173173 419.809633 
L 177.84185 420.167565 
L 177.347875 420.00053 
L 176.727394 420.056209 
L 175.932215 419.793725 
L 175.432216 419.324437 
L 174.390049 418.79947 
L 172.480414 417.208661 
L 172.173186 416.691648 
L 171.227404 416.214406 
L 170.871983 415.761025 
L 170.540659 415.792841 
L 169.396083 414.997437 
L 168.703313 415.005391 
L 166.9744 414.130446 
L 166.522594 413.740698 
L 166.305727 413.995228 
L 165.534644 414.122492 
L 163.968382 414.05886 
L 163.408142 413.263456 
L 162.721396 412.929386 
L 162.371999 412.587362 
L 160.974411 411.990809 
L 160.679231 411.537428 
L 159.661161 411.227221 
L 158.890078 410.909059 
L 158.492488 410.821564 
L 158.100923 410.885197 
L 157.173214 410.702254 
L 157.281647 410.328414 
L 157.275623 409.875033 
L 157.06478 409.556871 
L 153.986473 409.198939 
L 152.745511 408.363765 
L 151.167201 407.663809 
L 149.697324 406.74114 
L 148.859976 405.905966 
L 148.516603 405.548034 
L 148.100942 405.373045 
L 147.709376 405.365091 
L 147.462389 404.792399 
L 147.329859 404.712859 
L 147.329859 404.585594 
L 147.299738 404.649227 
L 146.733474 404.315157 
L 145.896126 403.766328 
L 145.97444 403.551569 
L 145.637091 402.732302 
L 145.341911 402.183473 
L 141.908182 400.950597 
L 141.070834 400.902872 
L 140.088908 400.163146 
L 139.185296 399.892709 
L 138.817826 399.75749 
L 136.667228 398.285992 
L 136.6853 398.015555 
L 136.185301 396.822448 
L 135.914217 396.416792 
L 135.582893 396.202033 
L 134.733497 396.082722 
L 134.143136 396.209987 
L 133.769643 396.034998 
L 133.245548 395.963411 
L 132.613019 395.303226 
L 132.667235 394.97711 
L 132.360007 395.040742 
L 131.872056 394.722581 
L 131.691334 394.555546 
L 131.341937 394.64304 
L 130.968443 394.277154 
L 130.504589 394.054441 
L 129.980493 393.768095 
L 129.2817 393.362439 
L 128.155196 392.85338 
L 126.161224 391.65232 
L 123.884119 390.737605 
L 123.510626 390.419443 
L 123.257614 390.037649 
L 122.76364 390.085373 
L 122.275689 389.958109 
L 121.902195 389.727441 
L 121.841954 389.496774 
L 121.594967 389.130888 
L 121.058823 388.971807 
L 121.046775 388.566151 
L 120.143162 387.921874 
L 119.510634 387.969598 
L 118.335937 387.754839 
L 117.727504 387.468493 
L 116.685338 387.492355 
L 116.43835 387.57985 
L 116.185339 387.905966 
L 115.962447 387.595758 
L 115.438352 387.587804 
L 115.137148 387.396907 
L 114.974497 387.158285 
L 114.607028 387.023067 
L 114.426306 386.060627 
L 114.16727 386.116306 
L 113.414259 386.346973 
L 112.974501 387.015113 
L 112.61908 388.160495 
L 111.275709 389.202475 
L 108.564871 390.86487 
L 107.570897 392.177287 
L 107.137163 392.543173 
L 107.004633 392.535219 
L 107.022705 392.519311 
L 106.980536 392.312506 
L 107.022705 392.582943 
L 106.980536 392.535219 
L 105.93837 393.505612 
L 105.076926 395.175961 
L 104.39018 396.448608 
L 103.769699 398.190544 
L 103.360061 398.238268 
L 102.781749 399.67795 
L 102.534762 400.147238 
L 101.811871 400.982413 
L 101.269704 401.944852 
L 101.070909 403.050464 
L 100.679343 404.028811 
L 99.667297 404.593548 
L 98.793805 405.834379 
L 98.637179 406.343438 
L 98.00465 407.138842 
L 97.829951 407.655855 
L 97.733566 408.355811 
L 97.763686 408.992134 
L 97.432362 409.135307 
L 97.070916 409.533009 
L 96.902242 409.98639 
L 96.131159 410.686346 
L 95.980557 411.736279 
L 95.968509 412.285108 
L 95.739594 412.762351 
L 94.034778 414.901989 
L 92.50466 417.701812 
L 92.070926 417.805214 
L 92.2396 417.852939 
L 92.468515 417.908617 
L 92.582973 418.155192 
L 91.281771 420.453911 
L 90.920326 421.734512 
L 89.179365 423.723023 
L 88.25768 423.627574 
L 87.53479 423.142377 
L 87.10708 422.999205 
L 86.631177 422.514008 
L 86.998646 422.402651 
L 86.932381 422.2038 
L 87.10708 421.965179 
L 87.119128 421.981087 
L 87.095031 421.814052 
L 73.034817 413.955457 
L 71.293856 414.384976 
L 70.84205 414.345205 
L 70.215545 413.68502 
L 68.197476 413.000972 
L 67.992658 412.507821 
L 67.203502 412.078303 
L 65.811939 411.227221 
L 65.540855 410.702254 
L 65.083024 410.415908 
L 64.558929 410.368184 
L 62.998691 409.723906 
L 61.932428 409.334158 
L 60.902309 408.689881 
L 60.577009 408.260362 
L 60.131226 407.910384 
L 59.866167 407.385418 
L 59.016771 406.685462 
L 57.625207 405.277596 
L 57.083039 405.086699 
L 56.679426 405.32532 
L 56.58304 405.635528 
L 56.540872 405.611666 
L 55.330031 405.317366 
L 52.99871 403.822006 
L 51.673411 403.145913 
L 50.884256 402.501635 
L 49.293897 401.793725 
L 48.366188 401.380115 
L 47.830045 401.25285 
L 41.781863 397.768979 
L 40.480661 396.933805 
L 40.299938 396.695183 
L 39.685481 396.408838 
L 38.456568 395.883871 
L 36.86621 395.032788 
L 36.161392 395.05665 
L 35.64332 395.708882 
L 34.938502 395.510031 
L 34.842117 395.533893 
L 34.528865 395.971365 
L 34.522841 396.130446 
L 34.619226 396.313389 
L 35.131273 396.361114 
L 35.77585 396.257711 
L 36.167416 396.225895 
L 36.414403 396.305435 
L 36.637294 396.440654 
L 36.793921 396.599735 
L 37.071029 396.536103 
L 37.071029 396.536103 
L 38.083075 396.870172 
L 38.727652 396.973575 
L 39.43247 397.124702 
L 39.637289 397.403093 
L 39.661385 397.745117 
L 39.450542 397.983738 
L 39.143314 398.858683 
L 38.432472 402.080071 
L 38.721628 402.111887 
L 44.293907 405.134423 
L 45.275832 405.866195 
L 45.769807 406.240035 
L 46.655348 406.502519 
L 48.155345 407.512682 
L 48.956548 407.997879 
L 50.089076 408.419443 
L 51.607146 409.644366 
L 52.113169 409.668228 
L 52.486662 410.06593 
L 52.938469 410.32046 
L 53.209553 410.702254 
L 54.052925 411.259037 
L 54.968585 411.656739 
L 56.55292 412.141935 
L 57.203521 412.18966 
L 58.697494 412.786213 
L 63.083028 415.061069 
L 64.336038 415.63376 
L 64.920374 416.063279 
L 65.37218 416.238268 
L 65.673385 416.516659 
L 66.179408 416.564384 
L 66.516757 417.017764 
L 66.998683 417.240477 
L 67.986633 418.322227 
L 68.576994 418.187008 
L 68.938439 418.369951 
L 69.703498 418.54494 
L 70.474581 419.50738 
L 70.84205 419.984622 
L 71.354097 420.103933 
L 72.799877 420.970924 
L 74.245658 421.567477 
L 75.179391 422.140168 
L 75.613125 422.346973 
L 75.97457 422.696951 
L 76.462521 422.784445 
L 77.408303 423.333274 
L 81.691427 425.719487 
L 82.619136 426.149006 
L 83.992628 427.015996 
L 84.516723 427.151215 
L 86.992622 428.678392 
L 87.125152 429.092002 
L 86.902261 429.545382 
L 85.926359 431.064605 
L 85.414312 432.003182 
L 84.950457 432.973575 
L 84.408289 433.47468 
L 84.317928 433.617852 
L 83.926363 433.291737 
L 83.366123 432.854264 
L 81.649258 431.995228 
L 80.179382 431.39072 
L 79.902274 430.993018 
L 78.787818 430.277154 
L 78.709505 430.18966 
L 77.564929 430.102165 
L 75.950474 429.131772 
L 74.781801 428.606805 
L 72.631203 427.517101 
L 72.342047 427.230756 
L 71.667349 426.94441 
L 71.028796 426.538754 
L 68.980607 425.242245 
L 68.643259 425.210429 
L 67.962537 425.560407 
L 67.408321 426.029695 
L 66.745672 427.994344 
L 65.9023 429.927176 
L 68.149284 431.199823 
L 69.022776 431.494123 
L 69.474582 431.573663 
L 69.793859 431.812285 
L 70.107111 431.796376 
L 71.233615 432.552011 
L 72.450481 433.164472 
L 73.215539 433.506496 
L 73.57096 433.689439 
L 74.203489 433.840566 
L 75.149271 434.389395 
L 75.342041 434.818913 
L 75.583005 435.04958 
L 75.926378 434.962086 
L 76.546858 434.126911 
L 76.625171 433.936014 
L 77.089026 433.578082 
L 78.095048 433.498542 
L 78.474566 432.575873 
L 78.703481 432.313389 
L 78.552879 431.883871 
L 78.498662 431.342996 
L 77.866133 430.531684 
L 77.046857 429.93513 
L 76.293847 429.48175 
L 75.896257 429.362439 
L 75.498668 428.948829 
L 74.649272 428.574989 
L 74.348067 428.312506 
L 73.878189 428.169333 
L 72.558914 427.501193 
L 72.131204 427.373928 
L 71.426386 426.737605 
L 70.962531 426.538754 
L 69.872172 425.719487 
L 69.016752 425.258153 
L 68.769764 425.274061 
L 68.107115 425.003624 
L 67.697477 424.820681 
L 66.637238 423.95369 
L 65.854107 423.627574 
L 65.131217 423.460539 
L 64.299893 423.16624 
L 63.323992 422.378789 
L 62.414355 421.623155 
L 62.004717 421.328856 
L 60.022793 420.70844 
L 59.727613 420.318692 
L 58.866169 419.809633 
L 57.956532 419.380115 
L 56.866172 418.4654 
L 56.107138 418.139284 
L 54.390273 417.391604 
L 53.540877 416.842775 
L 52.577024 416.198498 
L 51.679435 416.174635 
L 51.564977 415.959876 
L 51.149315 415.721255 
L 51.197508 415.665577 
L 50.528835 414.870172 
L 49.125223 414.050906 
L 48.378236 413.462307 
L 47.980647 413.327088 
L 47.354142 412.921432 
L 44.119208 411.18745 
L 43.408366 411.123818 
L 43.215595 411.235175 
L 41.721622 410.328414 
L 40.691504 410.240919 
L 40.426444 409.98639 
L 40.179456 409.890941 
L 39.565 409.175077 
L 39.03488 409.119399 
L 38.131268 408.833053 
L 37.667413 408.666019 
L 36.878258 408.037649 
L 36.769824 408.013787 
L 36.20356 408.141052 
L 35.962597 408.371719 
L 35.956573 409.222802 
L 35.968621 409.620504 
L 35.330068 411.259037 
L 35.107177 411.752187 
L 34.956575 412.094211 
L 34.872237 412.595316 
L 35.065008 412.921432 
L 36.408379 413.470261 
L 39.022832 414.456562 
L 39.733674 414.814494 
L 40.528853 415.092886 
L 41.052949 415.204242 
L 41.715598 415.59399 
L 41.974634 415.625806 
L 42.384272 415.88829 
L 43.064993 416.564384 
L 43.474631 416.5962 
L 44.781857 417.248431 
L 45.498724 417.582501 
L 46.239686 417.964295 
L 47.07101 418.05179 
L 47.709563 418.50517 
L 48.336068 419.88122 
L 49.643294 420.716394 
L 51.004737 420.955015 
L 51.420399 421.169775 
L 52.558951 421.304993 
L 53.950515 421.615201 
L 54.884248 422.004949 
L 55.926415 423.015113 
L 56.366173 423.261688 
L 57.11316 424.144587 
L 58.643277 425.44905 
L 59.510746 426.005833 
L 59.830022 426.443305 
L 60.281829 426.753513 
L 60.685442 426.86487 
L 60.884237 427.167123 
L 61.173393 427.326204 
L 61.733633 427.365974 
L 62.498692 427.875033 
L 62.90833 427.938665 
L 63.348088 428.129563 
L 63.817967 428.646575 
L 64.251701 428.909059 
L 65.113145 429.728325 
L 65.558927 430.046487 
L 66.522781 430.388511 
L 69.685425 432.297481 
L 70.01675 432.440654 
L 71.089037 433.299691 
L 72.781805 434.079187 
L 73.360117 434.254176 
L 73.757707 434.492797 
L 74.113128 434.445073 
L 74.55891 434.500751 
L 74.974572 434.71551 
L 75.613125 435.399558 
L 77.239628 436.187008 
L 78.083 436.54494 
L 79.329986 437.157402 
L 80.474562 437.451701 
L 80.902272 437.730093 
L 81.715523 438.541405 
L 83.137208 439.472028 
L 85.348047 440.665135 
L 86.257684 441.253734 
L 87.215513 441.866195 
L 87.631175 442.216173 
L 88.143222 442.40707 
L 91.697432 444.785329 
L 92.540804 445.397791 
L 93.980561 446.161379 
L 95.854051 447.219266 
L 96.390195 447.306761 
L 97.028748 447.664693 
L 97.709469 447.998763 
L 98.076939 448.332833 
L 98.191396 448.730535 
L 98.070915 449.104375 
L 97.486578 449.804331 
L 96.932362 451.005391 
L 96.625134 452.118957 
L 96.329954 452.397349 
L 96.076942 452.962086 
L 95.751642 453.129121 
L 92.956466 451.681485 
L 92.643214 451.299691 
L 90.348037 450.305435 
L 89.619123 449.820239 
L 88.805872 449.470261 
L 87.510693 449.048696 
L 87.119128 448.889616 
L 86.896237 448.60327 
L 85.643227 447.951038 
L 84.30588 447.354485 
L 83.823953 447.195404 
L 83.016726 446.726116 
L 82.582992 446.662483 
L 81.848053 446.36023 
L 80.281791 445.763677 
L 79.775768 445.254618 
L 79.522756 445.143261 
L 79.179384 445.326204 
L 78.564927 446.702254 
L 77.010713 449.247548 
L 77.040833 449.565709 
L 78.354084 450.838356 
L 80.22155 453.669996 
L 80.974561 454.361997 
L 81.73962 454.942643 
L 82.703473 455.260804 
L 83.601062 455.642598 
L 87.082983 457.472028 
L 87.926355 457.678833 
L 88.317921 457.782236 
L 88.408282 457.981087 
L 88.799848 458.092444 
L 90.69141 457.591339 
L 91.348036 457.519753 
L 91.426349 457.718604 
L 91.751649 457.949271 
L 91.980564 457.957225 
L 92.20948 458.052673 
L 92.456467 458.044719 
L 93.32996 456.939107 
L 94.74562 454.536986 
L 95.161281 453.75749 
L 95.378149 453.518869 
L 95.414293 453.224569 
L 94.80586 452.699602 
L 93.661284 452.357578 
L 93.402249 452.238268 
L 92.197432 450.838356 
L 91.697432 450.591781 
L 91.269722 450.51224 
L 89.287798 449.287318 
L 86.420334 448.038533 
L 85.908287 447.609015 
L 85.378167 447.282899 
L 85.089011 447.457888 
L 83.992628 446.718162 
L 83.516725 446.574989 
L 83.076967 446.272735 
L 82.613112 446.217057 
L 82.137209 446.02616 
L 81.221548 445.405745 
L 80.239623 445.127353 
L 78.787818 444.101281 
L 78.360108 444.005833 
L 77.336014 443.107026 
L 76.872159 442.987715 
L 76.173365 442.430932 
L 75.010717 441.667344 
L 74.137224 441.213964 
L 72.498673 439.837914 
L 70.589038 438.994786 
L 69.583016 438.589129 
L 68.721572 437.92099 
L 66.354106 436.87901 
L 65.498686 436.377905 
L 64.161339 435.813168 
L 62.998691 435.431374 
L 62.679414 435.08935 
L 61.739657 434.985948 
L 61.113152 434.254176 
L 59.860143 433.625806 
L 57.721592 432.631551 
L 56.577016 431.860009 
L 56.293884 431.494123 
L 55.504729 430.913478 
L 54.293888 429.847636 
L 53.227625 429.322669 
L 52.727626 429.171542 
L 52.366181 428.909059 
L 52.016784 428.805656 
L 49.860161 427.286434 
L 48.91438 426.833053 
L 48.468598 426.745559 
L 47.324021 425.647901 
L 47.046914 425.464958 
L 45.468603 425.297923 
L 44.679448 425.814936 
L 43.818004 427.143261 
L 42.414392 430.245338 
L 42.938487 430.714627 
L 43.293908 430.722581 
L 43.81198 430.921432 
L 42.607163 430.332833 
L 42.29391 430.348741 
L 41.8662 429.887406 
L 40.896323 429.569244 
L 39.33006 428.407954 
L 38.293918 427.668228 
L 37.504763 427.397791 
L 34.974647 425.974017 
L 31.49875 424.224127 
L 31.046943 424.200265 
L 30.360198 424.78091 
L 30.143331 425.15475 
L 30.185499 426.300133 
L 29.860199 426.443305 
L 29.715621 426.427397 
L 28.842128 425.981971 
L 28.619237 425.989925 
L 27.275866 426.554662 
L 26.697554 426.419443 
L 26.173459 426.27627 
L 25.595146 426.49103 
L 24.414426 426.586478 
L 24.131294 426.761467 
L 24.18551 426.90464 
L 24.510811 426.94441 
L 25.137316 426.65011 
L 26.215627 426.522846 
L 26.944541 426.379673 
L 28.583093 426.419443 
L 28.661406 426.467167 
L 28.769839 426.666019 
L 28.498755 427.294388 
L 27.97466 428.384092 
L 27.558998 429.131772 
L 27.420444 429.473796 
L 27.607191 429.616969 
L 28.486707 429.656739 
L 29.842126 430.277154 
L 30.962606 431.120283 
L 31.185497 431.462307 
L 32.408387 432.583827 
L 32.890313 433.267875 
L 33.34212 434.063279 
L 34.101155 436.600619 
L 34.619226 438.422095 
L 34.956575 438.644808 
L 36.179464 438.565267 
L 36.17344 438.565267 
L 36.233681 438.589129 
L 36.450548 438.422095 
L 36.986691 437.865312 
L 37.101149 437.634644 
L 37.504763 436.974459 
L 38.14934 436.099514 
L 38.354159 435.940433 
L 38.679459 435.948387 
L 39.016808 435.67795 
L 39.426446 434.906407 
L 39.552952 434.628016 
L 39.86018 434.731418 
L 40.113192 434.803005 
L 40.510781 434.540521 
L 41.522827 432.114538 
L 42.311983 430.818029 
L 42.534874 430.690764 
L 43.354149 431.168007 
L 43.673426 431.454353 
L 44.571015 431.836147 
L 47.390286 433.283783 
L 48.287875 433.776933 
L 50.348112 434.755281 
L 57.799905 439.861776 
L 57.763761 440.227662 
L 57.613159 440.641273 
L 57.233641 441.16624 
L 57.167377 441.691206 
L 56.534848 443.122934 
L 55.817981 444.316041 
L 55.396295 444.164914 
L 54.378225 443.433142 
L 53.667383 443.067256 
L 53.444492 442.852497 
L 53.245697 442.939991 
L 52.619192 442.733186 
L 52.161362 442.757048 
L 51.763772 442.152541 
L 51.414375 441.858241 
L 49.613174 440.983297 
L 49.107151 440.903756 
L 46.980649 440.116306 
L 46.028843 440.036765 
L 45.68547 439.909501 
L 44.155353 438.445957 
L 43.607161 438.406186 
L 43.197523 438.056209 
L 42.781861 437.873266 
L 42.540898 437.634644 
L 42.125236 437.459655 
L 41.842104 437.17331 
L 41.40837 437.014229 
L 40.727648 436.568802 
L 40.203553 436.361997 
L 40.191505 436.13133 
L 39.986686 436.05179 
L 39.709578 435.296156 
L 40.089095 435.327972 
L 40.324034 435.510915 
L 40.938491 435.041626 
L 40.12524 435.391604 
L 38.528857 438.589129 
L 37.173438 440.251525 
L 36.769824 440.967388 
L 36.287897 441.54008 
L 35.848139 442.057092 
L 35.890308 442.526381 
L 35.77585 443.043394 
L 35.709585 443.329739 
L 35.830067 442.820681 
L 35.727658 442.104817 
L 36.552957 441.333274 
L 36.872234 441.253734 
L 40.811985 442.70137 
L 41.595116 442.979761 
L 43.004752 443.791074 
L 43.420414 443.989925 
L 43.992702 444.562616 
L 46.052939 445.668228 
L 46.402336 445.914803 
L 47.23366 446.073884 
L 47.522816 446.304551 
L 48.378236 446.567035 
L 48.998717 446.964737 
L 49.890282 447.52152 
L 50.016787 447.81582 
L 50.5951 448.054441 
L 51.293894 448.062395 
L 53.034854 449.573663 
L 53.052926 450.186125 
L 53.185456 450.384976 
L 54.245695 450.552011 
L 54.896296 450.663367 
L 58.245688 452.532567 
L 60.920382 453.805214 
L 61.661344 454.369951 
L 65.161337 455.889174 
L 69.643257 458.116306 
L 69.890244 458.156076 
L 70.215545 458.339019 
L 70.396267 458.633319 
L 70.143256 459.118515 
L 69.781811 459.412815 
L 68.414343 462.856916 
L 67.836031 463.580734 
L 67.498683 463.771631 
L 66.992659 463.604596 
L 66.414347 463.079629 
L 65.60712 462.753513 
L 59.143276 459.802563 
L 58.763759 459.436677 
L 58.311953 459.213964 
L 57.504725 458.53787 
L 53.763768 456.183473 
L 53.396299 456.0403 
L 53.125215 455.785771 
L 52.354133 455.411931 
L 50.763774 455.149448 
L 50.432449 454.910826 
L 49.950523 454.672205 
L 48.655344 453.701812 
L 47.673418 453.518869 
L 47.558961 453.550685 
L 44.143304 451.363323 
L 43.890293 450.941759 
L 41.378249 449.692974 
L 40.601142 449.525939 
L 39.546928 448.825983 
L 39.173434 448.690764 
L 38.372231 447.93513 
L 37.655365 447.672647 
L 36.161392 446.726116 
L 35.811995 446.559081 
L 35.444526 446.77384 
L 35.324044 447.648785 
L 35.221634 447.664693 
L 35.263803 448.126027 
L 34.854165 449.27141 
L 34.763804 449.541847 
L 34.673443 451.283783 
L 34.721635 451.96783 
L 35.546935 452.381441 
L 36.390307 452.71551 
L 37.016812 453.04958 
L 37.944521 453.431374 
L 39.402349 454.290411 
L 39.926445 454.42563 
L 41.01078 454.942643 
L 41.239695 454.926734 
L 41.697526 455.101723 
L 45.68547 458.004949 
L 45.811976 458.283341 
L 46.281855 458.331065 
L 47.161371 458.863986 
L 47.558961 458.943526 
L 51.757748 461.401326 
L 52.571 461.910384 
L 53.492685 462.308087 
L 56.12521 463.684136 
L 58.107134 464.622713 
L 58.775807 465.139726 
L 59.492673 465.680601 
L 60.63725 466.332833 
L 61.323995 466.802121 
L 61.55291 467.032788 
L 63.577003 467.971365 
L 64.745676 468.615643 
L 65.50471 468.607689 
L 65.848083 468.536103 
L 66.697479 467.199823 
L 67.293864 465.609015 
L 67.564947 465.354485 
L 67.643261 465.012461 
L 68.233621 464.590897 
L 68.679403 464.447724 
L 68.86615 464.02616 
L 68.745668 463.644366 
L 68.787837 462.912594 
L 70.125184 461.019532 
L 70.44446 460.550243 
L 71.125182 460.32753 
L 72.028795 460.908175 
L 72.68542 461.051348 
L 73.589033 461.385418 
L 73.860116 461.703579 
L 75.41433 462.538754 
L 76.263726 462.825099 
L 77.179387 463.294388 
L 77.992639 463.707998 
L 79.902274 464.638621 
L 80.281791 464.805656 
L 80.576971 465.060186 
L 82.408293 465.839682 
L 83.372147 466.277154 
L 84.793831 467.048696 
L 86.890213 467.605479 
L 86.97455 468.130446 
L 87.528766 468.838356 
L 87.613103 469.069023 
L 87.763705 469.212196 
L 90.637194 470.628016 
L 91.293819 471.367742 
L 91.703457 471.558639 
L 93.715501 472.075652 
L 94.564897 472.624481 
L 95.992605 473.332391 
L 96.360074 473.634644 
L 97.263687 474.0403 
L 98.239589 474.445957 
L 101.197415 475.575431 
L 102.070907 476.076536 
L 102.607051 476.171984 
L 103.070905 476.378789 
L 104.384156 477.349183 
L 105.131142 478.176403 
L 106.113068 478.677508 
L 109.167279 480.228546 
L 110.372096 480.936456 
L 110.703421 481.047813 
L 111.390167 481.61255 
L 111.811853 481.723906 
L 113.540765 483.123818 
L 113.974499 483.179496 
L 114.884136 483.93513 
L 115.341967 484.038533 
L 115.703412 484.30897 
L 117.076903 484.921432 
L 119.390152 486.329297 
L 119.82991 486.4327 
L 120.070873 486.647459 
L 120.721475 486.830402 
L 122.492556 488.190544 
L 122.757615 488.612108 
L 123.709421 489.08935 
L 125.534719 490.202916 
L 127.3058 490.672205 
L 127.956401 490.871056 
L 128.498569 490.902872 
L 130.926275 492.414141 
L 131.360009 492.525497 
L 134.84193 494.744675 
L 135.480483 494.983297 
L 136.588915 495.786655 
L 136.896143 495.961644 
L 137.197347 496.359346 
L 137.962406 496.908175 
L 138.341924 497.361555 
L 140.070836 498.15696 
L 140.384089 498.180822 
L 140.625052 498.387627 
L 141.72746 500.073884 
L 142.58288 499.930711 
L 143.612998 500.495449 
L 143.239505 500.901105 
L 143.4383 501.943084 
L 143.60095 502.22943 
L 144.287696 502.388511 
L 144.878056 502.650994 
L 145.655163 503.152099 
L 145.980464 503.247548 
L 146.13709 503.692974 
L 146.546728 503.899779 
L 147.010582 503.915687 
L 148.390098 504.51224 
L 151.649128 505.419001 
L 152.245512 505.442863 
L 152.890089 505.609898 
L 153.299727 505.522404 
L 154.486472 505.856474 
L 155.980445 506.763235 
L 156.956347 506.906407 
L 157.408153 507.113213 
L 157.733454 507.415466 
L 159.962365 508.457446 
L 159.99851 508.473354 
L 160.004534 508.401768 
L 160.149112 508.393814 
L 160.167184 508.560848 
L 160.004534 509.006275 
L 161.299712 510.278922 
L 163.353925 511.241361 
L 163.739467 511.662925 
L 164.649103 512.354927 
L 165.745487 512.816262 
L 166.504522 513.20601 
L 169.257529 514.136633 
L 169.594877 514.200265 
L 170.721381 515.043394 
L 171.239453 515.544498 
L 172.058728 515.997879 
L 174.570772 517.095537 
L 176.076793 517.684136 
L 176.606912 517.739814 
L 178.076789 518.407954 
L 178.85992 518.932921 
L 179.251486 519.092002 
L 179.618955 519.489704 
L 180.896061 520.428281 
L 182.004493 521.422536 
L 182.902081 521.772514 
L 183.323767 521.891825 
L 183.715333 522.130446 
L 184.082802 522.202033 
L 184.871957 522.504286 
L 185.691233 522.894034 
L 186.384003 523.403093 
L 186.805689 523.466726 
L 187.594844 524.063279 
L 187.793638 524.476889 
L 188.161108 524.826867 
L 188.703275 525.065488 
L 189.582792 525.630225 
L 190.522549 525.868847 
L 191.269536 526.298365 
L 191.859896 526.87901 
L 192.347847 527.443747 
L 192.865918 527.25285 
L 193.245436 527.332391 
L 194.371939 528.159611 
L 196.757477 528.867521 
L 197.66109 529.535661 
L 198.926148 530.08449 
L 200.215302 530.808308 
L 200.540603 531.118515 
L 201.064698 531.357137 
L 201.811685 531.874149 
L 203.522525 532.669554 
L 204.462282 532.836589 
L 205.679147 533.282015 
L 206.540591 533.90243 
L 207.27553 534.228546 
L 207.721312 535.302342 
L 207.721312 535.604596 
L 208.088781 535.890941 
L 208.727334 536.121608 
L 208.95625 536.336368 
L 209.215285 536.4 
L 209.673116 536.010252 
L 209.691188 536.081838 
L 209.564682 535.334158 
L 209.81167 534.578524 
L 210.287572 533.719487 
L 210.823716 532.653646 
L 210.883957 531.905966 
L 210.950222 531.95369 
L 211.010463 532.065046 
L 211.022511 531.985506 
L 211.450221 530.251525 
L 211.600823 529.845868 
L 211.624919 529.304993 
L 211.811666 528.780027 
L 213.353832 526.481308 
L 213.209254 525.495007 
L 213.636964 525.359788 
L 214.275517 525.471144 
L 215.149009 525.320018 
L 215.353828 523.450817 
L 215.895996 521.979319 
L 216.136959 521.231639 
L 216.03455 520.802121 
L 216.076718 520.635086 
L 214.667082 519.823774 
L 214.082746 519.752187 
L 213.66106 519.434026 
L 212.853833 519.123818 
L 211.55263 518.47954 
L 211.118896 518.089792 
L 210.79962 518.018206 
L 208.709262 516.793283 
L 207.980348 516.109236 
L 207.805649 515.82289 
L 205.685171 514.884313 
L 205.486377 514.582059 
L 203.052646 513.770747 
L 202.805659 513.532125 
L 202.606864 512.991251 
L 202.215298 512.545824 
L 199.293617 510.6289 
L 198.97434 510.247106 
L 198.064704 509.849403 
L 196.96832 509.475563 
L 196.124948 509.061953 
L 195.636997 508.823332 
L 195.269528 508.79947 
L 194.558686 508.42563 
L 192.799653 507.296156 
L 191.73339 506.826867 
L 191.329776 506.5962 
L 190.890018 506.492797 
L 189.534599 505.761025 
L 189.29966 505.403093 
L 189.010504 504.894034 
L 188.432192 504.663367 
L 188.251469 504.774724 
L 187.992433 504.727 
L 187.510506 504.361114 
L 187.130989 504.329297 
L 186.474364 503.979319 
L 186.07075 503.923641 
L 185.817739 504.249757 
L 185.474366 504.202033 
L 184.733403 503.581617 
L 184.486416 503.366858 
L 183.480394 502.961202 
L 181.630999 502.316924 
L 181.293651 502.340787 
L 180.420158 502.054441 
L 179.769557 501.354485 
L 179.492449 501.227221 
L 179.209317 501.243129 
L 178.974378 500.932921 
L 178.805703 500.590897 
L 178.799679 500.256827 
L 178.679198 499.938665 
L 178.161126 499.548917 
L 176.209323 498.666019 
L 175.167156 497.910384 
L 174.378001 497.560407 
L 174.311736 497.385418 
L 173.902098 497.146796 
L 172.847883 496.955899 
L 170.606924 496.176403 
L 170.191262 495.929828 
L 169.402107 495.158285 
L 168.703313 494.004949 
L 167.841869 494.012903 
L 167.137051 493.893593 
L 163.986454 492.469819 
L 162.492481 492.445957 
L 162.064771 492.660716 
L 161.558748 492.660716 
L 160.612966 493.591339 
L 159.323812 494.100398 
L 159.137066 493.917455 
L 158.992487 494.156076 
L 158.721404 493.368626 
L 158.703331 492.565267 
L 158.896102 491.069907 
L 159.492487 490.433584 
L 160.257545 488.938224 
L 160.480437 488.095095 
L 160.896098 487.649669 
L 161.125014 487.013345 
L 160.956339 486.090676 
L 161.112965 485.454353 
L 161.884048 484.253292 
L 162.920191 483.680601 
L 163.498503 482.765886 
L 164.402116 481.739814 
L 164.365971 480.872824 
L 163.865972 479.504728 
L 164.040671 478.947945 
L 164.185249 478.391162 
L 164.83585 477.874149 
L 165.353921 477.150331 
L 165.727415 476.354927 
L 167.311749 474.756164 
L 167.468375 474.143703 
L 167.733435 473.62669 
L 168.221386 473.380115 
L 169.155119 472.401768 
L 169.408131 471.821122 
L 170.341864 470.763235 
L 170.612948 470.5962 
L 170.582827 470.190544 
L 170.420177 469.864428 
L 170.594875 469.673531 
L 170.914152 469.705347 
L 171.143067 469.426955 
L 170.878007 469.108794 
L 170.408129 468.84631 
L 170.185238 468.496332 
L 169.956322 468.400884 
L 168.847891 467.462307 
L 168.088856 466.905524 
L 168.347892 466.420327 
L 168.209338 466.674856 
L 167.781628 466.60327 
L 167.365966 466.30897 
L 167.040665 466.22943 
L 166.667172 466.404419 
L 166.010547 466.22943 
L 165.763559 466.324878 
L 164.914163 466.165798 
L 164.24549 465.664693 
L 162.076819 465.06814 
L 162.618987 465.235175 
L 161.185254 465.251083 
L 156.528637 462.483076 
L 156.040686 462.069465 
L 155.046712 461.44905 
L 153.552739 460.939991 
L 151.155153 460.009368 
L 150.504552 459.643482 
L 150.293709 459.062837 
L 149.95636 459.102607 
L 149.733469 458.792399 
L 148.992506 458.466284 
L 148.799735 458.649227 
L 148.329857 458.728767 
L 146.353957 457.861776 
L 145.119019 457.464074 
L 144.703358 457.583385 
L 144.420226 457.130004 
L 144.173238 456.493681 
L 143.697335 455.889174 
L 143.233481 455.563058 
L 143.191312 454.910826 
L 143.323842 454.847194 
L 143.57083 454.187008 
L 143.697335 452.93027 
L 144.269623 452.015555 
L 144.685285 451.403093 
L 145.534681 450.647459 
L 145.835886 449.43049 
L 146.408174 447.982855 
L 146.26962 447.672647 
L 146.926245 446.407954 
L 147.094919 445.803447 
L 147.510581 445.055767 
L 147.7154 444.427397 
L 148.155158 443.854706 
L 149.23347 440.53787 
L 149.486481 440.12426 
L 149.594915 438.923199 
L 149.914191 438.159611 
L 151.341899 436.377905 
L 151.673224 435.980203 
L 153.010571 433.116748 
L 153.450329 432.870172 
L 153.884063 432.09863 
L 154.353942 431.557755 
L 154.612978 431.048696 
L 154.739483 430.52373 
L 155.034664 430.157844 
L 155.100928 429.89536 
L 155.45635 429.807866 
L 156.028638 429.958992 
L 156.094903 429.823774 
L 155.88406 429.48175 
L 155.91418 429.298807 
L 155.88406 429.362439 
L 155.685265 429.243129 
L 155.685265 429.243129 
L 155.534663 429.123818 
L 155.05876 428.264781 
L 154.920206 427.978436 
L 155.359964 427.294388 
L 156.462372 425.854706 
L 156.811769 425.321785 
L 156.865985 424.629783 
L 157.365985 424.168449 
L 157.468394 423.707114 
L 158.799717 420.978878 
L 159.149114 420.485727 
L 159.546703 420.215289 
L 159.859956 419.13354 
L 160.221401 417.749536 
L 160.631039 416.67574 
L 161.299712 415.498542 
L 161.97441 414.711091 
L 162.305734 414.47247 
L 162.396096 413.804331 
L 162.793685 412.929386 
L 163.438262 411.943084 
L 163.763563 411.56129 
L 164.721392 410.821564 
L 165.498499 409.294388 
L 165.974402 408.658065 
L 166.341871 407.52859 
L 168.185241 405.142377 
L 168.49247 404.816262 
L 168.576807 404.299249 
L 168.980421 403.822006 
L 169.878009 401.753955 
L 170.23343 401.077861 
L 170.974393 399.964295 
L 171.299693 399.502961 
L 171.986439 397.339461 
L 172.420173 396.838356 
L 173.341858 396.074768 
L 173.817761 395.533893 
L 174.733422 393.601061 
L 175.034626 393.084048 
L 175.046674 392.336368 
L 175.426192 392.050022 
L 175.606914 391.588688 
L 175.920167 391.143261 
L 176.149082 390.522846 
L 176.528599 390.029695 
L 176.540647 389.266107 
L 176.829804 388.804772 
L 177.094863 388.152541 
L 177.540646 387.762793 
L 178.245464 386.728767 
L 178.823776 385.551569 
L 179.932207 383.865312 
L 180.57076 381.773398 
L 181.588831 380.962086 
L 182.161119 381.065488 
L 182.408106 380.818913 
L 182.594853 379.808749 
L 183.444249 378.178171 
L 183.480394 378.647459 
L 183.161117 379.55422 
L 183.462321 379.466726 
L 183.498466 377.692974 
L 183.408105 377.31118 
L 183.594851 377.27141 
L 183.432201 377.549801 
L 183.197262 376.778259 
L 183.112924 376.690764 
L 183.046659 376.460097 
L 183.149069 376.213522 
L 184.088826 374.606805 
L 183.920152 374.248873 
L 184.323765 373.747768 
L 184.7575 373.525055 
L 185.558703 372.435351 
L 185.661112 371.926293 
L 186.100871 371.361555 
L 185.926172 370.582059 
L 186.112919 370.104817 
L 187.347856 369.683252 
L 188.167132 369.524171 
L 188.594842 369.548034 
L 188.938215 369.373045 
L 189.185202 368.863986 
L 189.612912 368.370835 
L 189.618936 368.116306 
L 190.197248 366.088025 
L 191.082789 364.926734 
L 192.100859 363.844985 
L 192.118932 363.534777 
L 193.347845 361.681485 
L 193.377965 362.007601 
L 193.323749 361.538312 
L 193.510495 361.084932 
L 194.775553 359.533893 
L 194.709288 359.191869 
L 195.492419 357.958992 
L 195.691214 357.14768 
L 196.51049 356.081838 
L 196.661092 355.461423 
L 197.769523 353.846752 
L 197.588801 353.274061 
L 198.956268 350.991251 
L 199.112894 350.24357 
L 200.95024 348.072117 
L 201.540601 347.634644 
L 202.076744 347.491471 
L 202.492406 347.25285 
L 202.998429 347.181264 
L 203.221321 346.966505 
L 203.022526 347.427839 
L 202.739394 347.578966 
L 202.673129 347.364207 
L 202.534575 347.618736 
L 202.76349 347.531242 
L 202.769514 348.119841 
L 203.05867 348.6289 
L 203.155056 349.169775 
L 203.420115 349.440212 
L 203.847825 349.12205 
L 204.118909 349.225453 
L 203.75144 349.090234 
L 204.082765 349.185683 
L 204.31168 349.567477 
L 203.811681 348.6289 
L 203.655055 348.74821 
L 204.088789 348.955015 
L 204.058668 348.620946 
L 204.17915 348.939107 
L 204.389993 349.193637 
L 204.335776 349.82996 
L 204.233367 350.036765 
L 204.0165 350.012903 
L 203.974331 349.686787 
L 203.944211 349.615201 
L 203.926138 349.853822 
L 204.130957 349.567477 
L 204.14903 349.281131 
L 204.371921 349.33681 
L 204.655053 349.161821 
L 204.775534 349.360672 
L 205.215293 349.169775 
L 207.197217 346.767654 
L 207.938179 346.314273 
L 208.209263 346.473354 
L 207.883962 348.215289 
L 207.504445 348.787981 
L 207.510469 349.177729 
L 207.739384 349.41635 
L 207.323722 350.935572 
L 207.456252 351.365091 
L 207.480349 352.916129 
L 207.636975 353.361555 
L 207.805649 353.353601 
L 208.046613 353.464958 
L 208.179143 353.870614 
L 208.179143 354.483076 
L 208.02854 355.198939 
L 208.534564 356.710208 
L 208.733358 357.752187 
L 208.281552 359.255502 
L 208.42613 359.692974 
L 208.408058 360.225895 
L 208.106854 361.204242 
L 220.197192 308.516659 
L 221.371889 307.625806 
L 221.823695 306.51224 
L 222.088755 305.76456 
L 222.275502 305.446399 
L 222.691164 305.207777 
L 222.84779 304.825983 
L 222.883934 304.221476 
L 222.769477 303.624923 
L 223.456222 302.47954 
L 223.667065 301.015996 
L 221.335745 299.719487 
L 221.185142 299.337693 
L 221.685141 299.552452 
L 220.847794 299.210429 
L 220.486349 298.852497 
L 220.305626 298.454795 
L 219.624904 297.675298 
L 219.064664 297.54008 
L 218.799605 297.134423 
L 218.576714 295.941317 
L 218.486352 295.265223 
L 218.715267 293.88122 
L 218.793581 293.372161 
L 219.034544 292.735837 
L 219.48635 292.187008 
L 220.558638 291.176845 
L 221.492371 290.190544 
L 222.052611 289.721255 
L 224.004414 287.438445 
L 224.655015 286.205568 
L 226.124892 282.729651 
L 226.56465 281.751304 
L 227.148987 280.454795 
L 227.78754 279.357137 
L 229.094766 276.541405 
L 229.709223 275.435793 
L 230.389944 274.306319 
L 231.070666 273.30411 
L 232.112833 271.800795 
L 234.775478 269.168007 
L 235.630899 268.595316 
L 236.703186 268.22943 
L 238.221255 267.89536 
L 240.287516 267.974901 
L 241.203177 268.22943 
L 243.721245 269.692974 
L 244.787508 270.249757 
L 245.817626 270.51224 
L 246.233288 270.695183 
L 247.426057 270.750862 
L 248.040514 270.703137 
L 249.721234 270.09863 
L 252.624843 268.22943 
L 253.407974 267.457888 
L 254.42002 265.970482 
L 255.124838 264.522846 
L 256.257366 261.587804 
L 257.78146 259.670879 
L 259.540492 258.127795 
L 261.36579 256.91878 
L 263.106751 255.749536 
L 264.016388 255.137075 
L 264.745302 254.445073 
L 266.112769 252.80654 
L 266.853732 251.478215 
L 267.239273 250.650994 
L 267.835658 249.219266 
L 269.022402 245.759258 
L 269.154932 243.365091 
L 268.853728 242.116306 
L 267.305538 238.234733 
L 267.088671 236.460981 
L 267.154936 235.228104 
L 267.480237 234.027044 
L 268.070597 232.913478 
L 270.5224 229.397791 
L 270.913965 228.936456 
L 273.136853 227.019532 
L 277.23323 224.2038 
L 278.064554 222.931153 
L 278.341662 221.992576 
L 278.45612 221.515334 
L 278.281421 219.813168 
L 278.311542 218.453027 
L 278.534433 216.925851 
L 279.359732 214.635086 
L 279.775394 212.757932 
L 280.365755 210.634202 
L 280.540453 209.854706 
L 280.763344 208.247989 
L 281.456114 206.561732 
L 281.522379 206.211754 
L 284.335627 200.468935 
L 284.889843 199.705347 
L 286.130804 198.146354 
L 289.209112 194.980645 
L 290.23923 193.636412 
L 291.118747 192.268316 
L 292.034408 190.836589 
L 294.034404 186.851613 
L 294.630788 185.069907 
L 297.31753 180.424746 
L 298.594636 178.849845 
L 299.678972 177.879452 
L 302.703062 176.193195 
L 305.980165 174.976226 
L 306.570525 174.856916 
L 307.763294 174.912594 
L 308.203052 175.055767 
L 309.877748 175.246664 
L 311.022324 175.477331 
L 312.239189 175.596642 
L 313.425934 175.556871 
L 315.094605 175.230756 
L 315.709062 175.047813 
L 317.317493 174.141052 
L 318.082552 173.345647 
L 318.383756 172.908175 
L 318.853635 172.526381 
L 319.727127 170.967388 
L 320.275319 169.893593 
L 320.462065 169.37658 
L 324.709045 162.607689 
L 332.992162 147.566593 
L 335.040351 143.72479 
L 335.654808 142.468051 
L 336.552397 140.893151 
L 337.112637 139.779585 
L 338.642754 137.083164 
L 339.172874 135.905966 
L 340.178896 132.96297 
L 340.443956 131.053999 
L 340.383715 130.401768 
L 340.4801 129.75749 
L 340.44998 127.148564 
L 340.528293 125.788422 
L 340.702991 125.144145 
L 340.865642 123.799912 
L 341.112629 122.471586 
L 341.196966 121.198939 
L 341.082509 119.926293 
L 340.992147 119.282015 
L 340.672871 118.136633 
L 340.251185 116.983297 
L 338.709019 114.231198 
L 338.34155 113.109677 
L 338.221068 111.948387 
L 338.727091 109.411047 
L 339.829499 106.372603 
L 344.305394 99.603712 
L 346.106596 97.575431 
L 350.901767 92.317808 
L 351.793332 90.838356 
L 352.23309 89.669112 
L 352.347548 88.515776 
L 352.287307 86.129563 
L 352.094536 83.886522 
L 352.245138 82.144587 
L 353.606582 74.548475 
L 354.251159 72.862218 
L 354.799351 71.852055 
L 356.727058 69.616969 
L 357.654767 68.917013 
L 359.600546 67.700044 
L 361.55235 66.395581 
L 362.190903 65.425188 
L 362.37765 64.160495 
L 362.323433 63.516217 
L 362.070421 62.87194 
L 361.190905 61.822006 
L 360.190907 61.058418 
L 358.913801 60.851613 
L 357.696936 60.96297 
L 356.522239 61.360672 
L 355.449952 62.060627 
L 353.865617 63.24578 
L 352.6608 63.929828 
L 351.263213 64.049138 
L 350.600563 64.001414 
L 349.925866 63.667344 
L 348.962012 62.856032 
L 348.323459 61.647017 
L 348.25117 61.066372 
L 348.41382 59.849403 
L 348.97406 58.648343 
L 349.443939 58.194962 
L 350.100564 57.192753 
L 350.974057 56.166681 
L 353.010197 53.621388 
L 354.233087 51.52152 
L 354.486098 50.980645 
L 354.907784 50.455678 
L 356.196938 47.11498 
L 356.606576 44.879894 
L 356.528263 43.662925 
L 356.215011 42.549359 
L 354.992121 40.83924 
L 354.329472 39.972249 
L 353.624654 39.232523 
L 352.546343 38.325762 
L 348.696952 35.629342 
L 347.407798 35.05665 
L 344.733104 34.221476 
L 341.654797 33.473796 
L 340.937931 33.402209 
L 339.751186 33.282899 
L 338.401791 32.861335 
L 336.943962 32.423862 
L 335.829506 32.431816 
L 335.233122 32.43977 
L 334.588545 32.964737 
L 334.028305 33.314715 
L 332.769271 34.499867 
L 332.401802 35.160053 
L 331.811442 37.307645 
L 331.835538 38.373487 
L 332.040357 39.145029 
L 332.456019 40.115422 
L 332.895777 40.449492 
L 333.094572 40.743791 
L 334.690954 41.674414 
L 334.901797 41.650552 
L 335.552399 42.048255 
L 336.751192 42.533451 
L 337.775286 43.090234 
L 338.1789 43.678833 
L 338.709019 44.267433 
L 339.305404 45.436677 
L 339.75721 46.995669 
L 340.425883 50.797702 
L 340.727088 51.911268 
L 341.365641 53.422536 
L 341.57046 54.480424 
L 341.516243 56.22236 
L 341.3054 57.487053 
L 340.787329 58.584711 
L 340.130703 59.761909 
L 337.871671 62.354927 
L 336.052398 63.69916 
L 334.696978 64.415024 
L 333.263246 65.043394 
L 332.522284 65.242245 
L 331.251202 65.838798 
L 330.070481 66.705789 
L 329.55241 67.206894 
L 328.046389 69.48175 
L 326.672897 72.957667 
L 325.859646 74.015555 
L 324.931936 74.771189 
L 322.865675 75.781352 
L 321.865677 76.043836 
L 320.974113 76.50517 
L 319.480139 76.966505 
L 317.703034 77.88122 
L 316.371712 78.74821 
L 315.968098 78.970924 
L 315.227135 79.686787 
L 314.468101 80.553778 
L 313.751234 81.341228 
L 312.444008 83.091118 
L 310.431964 86.77384 
L 306.811488 95.769863 
L 305.889803 96.947061 
L 305.257274 97.702696 
L 304.082578 98.919664 
L 299.913911 101.799028 
L 299.082587 102.602386 
L 298.534395 103.501193 
L 297.697048 105.831728 
L 297.444036 107.708882 
L 297.438012 112.727883 
L 297.15488 113.793725 
L 296.685001 114.740256 
L 296.082593 115.567477 
L 294.678981 116.959434 
L 293.787416 117.492355 
L 293.30549 117.643482 
L 292.919948 117.898011 
L 291.582601 118.430932 
L 288.751281 119.655855 
L 288.275378 119.74335 
L 287.371766 120.2365 
L 284.84165 122.145471 
L 284.022374 122.972691 
L 283.094665 123.85559 
L 282.160932 124.905524 
L 280.070575 127.872382 
L 279.763346 128.588246 
L 279.305516 129.240477 
L 278.998287 130.004065 
L 278.179012 131.396023 
L 277.576603 133.647017 
L 277.245279 136.685462 
L 277.269375 138.029695 
L 277.799494 140.590897 
L 278.203108 141.807866 
L 279.624792 146.914361 
L 279.703105 148.54494 
L 279.20913 150.819797 
L 278.956119 151.670879 
L 278.552505 152.426513 
L 278.275397 152.704905 
L 277.739254 154.104817 
L 276.395883 156.204684 
L 275.763354 157.143261 
L 273.287455 159.871498 
L 271.432036 161.438445 
L 268.185055 163.864428 
L 267.522405 165.264339 
L 267.076623 165.495007 
L 266.673009 165.272293 
L 266.606744 164.858683 
L 266.817587 164.079187 
L 267.094695 162.798586 
L 267.173008 161.963411 
L 267.233249 161.319134 
L 267.227225 160.825983 
L 267.004334 160.762351 
L 266.974213 160.404419 
L 266.992286 160.2692 
L 266.883852 159.823774 
L 266.919997 158.829518 
L 266.73325 158.423862 
L 266.660961 157.485285 
L 266.691081 157.031905 
L 266.498311 156.109236 
L 265.721204 154.40707 
L 264.907952 153.134423 
L 264.124821 152.45833 
L 263.691087 152.195846 
L 263.203136 152.140168 
L 262.293499 152.521962 
L 262.498318 152.450376 
L 262.721209 152.641273 
L 262.624824 152.863986 
L 261.034466 155.043394 
L 260.956152 155.44905 
L 260.51037 155.74335 
L 260.022419 156.379673 
L 259.889889 157.127353 
L 259.546516 157.882987 
L 259.215192 158.177287 
L 259.028445 158.948829 
L 258.956156 159.290853 
L 258.600735 159.704463 
L 257.305557 159.784004 
L 257.233268 159.752187 
L 256.179053 159.688555 
L 255.96821 159.632877 
L 255.5405 159.378347 
L 254.564598 159.227221 
L 254.305562 159.346531 
L 254.094719 159.227221 
L 252.775445 158.972691 
L 251.516411 158.527265 
L 250.432076 157.779585 
L 248.980271 156.976226 
L 248.010393 156.411489 
L 247.859791 156.11719 
L 247.407985 155.679717 
L 245.992325 155.194521 
L 245.661 154.900221 
L 245.239314 154.836589 
L 244.462207 154.422978 
L 242.588717 153.635528 
L 242.293537 153.563942 
L 240.962214 152.752629 
L 240.26342 152.450376 
L 237.709208 150.644808 
L 236.769451 150.175519 
L 230.721269 146.874591 
L 230.570667 146.532567 
L 227.974286 145.323553 
L 227.173083 144.917897 
L 227.209228 144.655413 
L 227.173083 144.663367 
L 227.239348 144.575873 
L 227.293565 144.345205 
L 227.293565 144.345205 
" clip-path="url(#p92884ebdca)" style="fill: none; stroke: #000000; stroke-width: 3"/>
   </g>
  </g>
 </g>
 <defs>
  <clipPath id="p92884ebdca">
   <rect x="7.2" y="7.2" width="372.090871" height="554.4"/>
  </clipPath>
 </defs>
</svg>
