<?xml version="1.0" encoding="utf-8" standalone="no"?>
<!DOCTYPE svg PUBLIC "-//W3C//DTD SVG 1.1//EN"
  "http://www.w3.org/Graphics/SVG/1.1/DTD/svg11.dtd">
<svg xmlns:xlink="http://www.w3.org/1999/xlink" width="372.278751pt" height="568.8pt" viewBox="0 0 372.278751 568.8" xmlns="http://www.w3.org/2000/svg" version="1.1">
 <metadata>
  <rdf:RDF xmlns:dc="http://purl.org/dc/elements/1.1/" xmlns:cc="http://creativecommons.org/ns#" xmlns:rdf="http://www.w3.org/1999/02/22-rdf-syntax-ns#">
   <cc:Work>
    <dc:type rdf:resource="http://purl.org/dc/dcmitype/StillImage"/>
    <dc:date>2023-02-20T05:02:44.222558</dc:date>
    <dc:format>image/svg+xml</dc:format>
    <dc:creator>
     <cc:Agent>
      <dc:title>Matplotlib v3.7.0, https://matplotlib.org/</dc:title>
     </cc:Agent>
    </dc:creator>
   </cc:Work>
  </rdf:RDF>
 </metadata>
 <defs>
  <style type="text/css">*{stroke-linejoin: round; stroke-linecap: butt}</style>
 </defs>
 <g id="figure_1">
  <g id="patch_1">
   <path d="M 0 568.8 
L 372.278751 568.8 
L 372.278751 0 
L 0 0 
z
" style="fill: #ffffff"/>
  </g>
  <g id="axes_1">
   <g id="LineCollection_1">
    <path d="M 244.457421 138.223536 
L 244.354929 138.193464 
L 244.440339 138.276162 
L 244.588384 138.479148 
L 244.52575 138.479148 
L 244.241049 138.73476 
L 244.508668 138.441558 
L 244.719346 138.464112 
L 244.9528 138.606954 
L 245.271665 138.606954 
L 248.819033 140.832286 
L 249.957835 141.456281 
L 250.800548 141.982542 
L 252.440423 142.839595 
L 252.696653 143.080171 
L 253.590613 143.426 
L 254.103074 143.448554 
L 254.957175 143.192941 
L 255.167853 142.899739 
L 256.050425 142.486248 
L 256.244021 142.080276 
L 256.295267 141.606641 
L 256.82481 141.396137 
L 256.802034 140.74207 
L 256.915914 140.539083 
L 257.513785 140.486457 
L 259.227682 141.04279 
L 260.457588 141.493871 
L 263.69748 142.162974 
L 264.369373 142.343406 
L 267.501078 143.831972 
L 269.459817 145.094998 
L 269.642026 144.967192 
L 270.7125 145.523525 
L 274.237092 147.681195 
L 275.364505 148.34278 
L 275.82572 148.666054 
L 276.474837 148.786342 
L 278.103324 149.523107 
L 285.215142 152.522794 
L 286.131877 153.154307 
L 286.712666 153.37233 
L 288.250049 154.402297 
L 289.121233 155.364603 
L 289.85576 156.424642 
L 290.123378 156.996011 
L 290.510571 159.116091 
L 290.778189 160.424225 
L 291.125524 161.762431 
L 291.615209 162.942759 
L 292.61166 164.724528 
L 294.496378 166.558922 
L 295.697814 167.160363 
L 296.466505 167.761804 
L 296.933414 168.581268 
L 297.388934 169.130082 
L 298.607452 171.423076 
L 299.319204 172.453044 
L 300.406759 173.926574 
L 301.875814 175.603091 
L 302.234537 175.911329 
L 303.065862 177.174355 
L 302.781161 177.392378 
L 302.684363 177.790832 
L 302.724221 178.121625 
L 300.230245 182.873008 
L 299.76903 183.662399 
L 299.615292 184.203696 
L 298.328446 186.489172 
L 297.798903 187.579284 
L 296.84231 189.037778 
L 295.999596 190.50379 
L 294.422355 193.014806 
L 293.898507 194.548481 
L 293.579642 194.999561 
L 293.522702 195.42057 
L 293.209531 195.653628 
L 292.46931 197.149713 
L 292.144752 197.563204 
L 291.193852 199.547959 
L 290.89207 200.48771 
L 289.235113 202.863402 
L 288.386705 204.532401 
L 288.010901 205.494706 
L 286.479212 207.885434 
L 286.006609 209.125906 
L 285.317634 210.148355 
L 284.776703 211.75721 
L 283.717617 213.283366 
L 282.977396 215.020027 
L 282.396607 216.095103 
L 281.878452 217.207769 
L 281.297663 218.403133 
L 280.25566 220.60591 
L 279.931101 221.004365 
L 279.777363 221.485517 
L 279.21935 222.094476 
L 278.501905 223.838655 
L 277.852788 224.898695 
L 276.873418 226.567693 
L 276.469143 226.99622 
L 275.324647 229.161408 
L 274.903291 229.710222 
L 274.163069 231.289005 
L 273.394378 232.243792 
L 271.481191 235.897546 
L 270.188651 237.739459 
L 268.218523 242.062316 
L 267.717451 243.017103 
L 267.358728 243.438112 
L 266.943065 244.377864 
L 266.248396 245.708552 
L 265.434153 247.00165 
L 263.589294 250.595259 
L 262.609924 252.038718 
L 262.131627 253.098757 
L 261.288914 254.722648 
L 259.523771 257.902767 
L 258.994228 259.075577 
L 258.476073 260.075472 
L 258.043328 260.639323 
L 257.434069 261.797097 
L 257.029795 262.300804 
L 255.463942 265.195239 
L 254.757885 266.202652 
L 253.795597 267.976903 
L 252.668183 269.736118 
L 252.320849 270.269897 
L 252.104476 270.923964 
L 250.87457 273.299655 
L 250.709444 273.991313 
L 250.265311 274.434875 
L 248.756399 276.735387 
L 248.579884 277.351864 
L 248.226856 277.945787 
L 247.999095 278.554746 
L 246.922928 279.968132 
L 246.142848 281.546914 
L 245.869536 282.125801 
L 245.687328 282.802422 
L 244.690876 284.260917 
L 243.130717 286.817041 
L 242.885875 287.343302 
L 242.891569 287.816936 
L 242.754913 288.335679 
L 241.320022 289.92198 
L 241.223224 290.906839 
L 240.938524 291.553388 
L 240.841725 291.951843 
L 240.619659 291.824037 
L 240.380511 291.906735 
L 239.327119 292.996847 
L 238.86021 293.883972 
L 238.97409 293.568216 
L 238.324973 294.056886 
L 237.300051 296.23711 
L 236.964105 296.748335 
L 236.371928 297.93618 
L 235.18188 300.259246 
L 234.806075 300.762953 
L 232.369039 305.657179 
L 232.061563 305.860165 
L 231.668676 307.491574 
L 229.920615 310.288274 
L 229.379684 311.461084 
L 228.730567 312.626376 
L 228.001734 314.27282 
L 226.897096 315.302788 
L 226.726276 315.911747 
L 225.63872 317.505565 
L 225.393877 318.107006 
L 225.399571 318.768591 
L 225.040849 319.392586 
L 224.471448 319.821113 
L 224.169665 320.302266 
L 224.050091 321.49763 
L 223.133356 322.392273 
L 222.142598 324.497316 
L 221.983166 325.001023 
L 220.474253 327.73758 
L 219.956098 328.767547 
L 219.608764 329.526866 
L 219.54613 330.105753 
L 219.312675 330.639532 
L 218.959647 331.128203 
L 218.48135 331.541694 
L 217.33116 334.022638 
L 217.012295 334.518826 
L 216.49414 335.593902 
L 215.554629 336.992252 
L 214.683445 338.32294 
L 213.863508 339.766399 
L 212.662072 342.06691 
L 211.819359 343.547959 
L 210.948175 344.938791 
L 209.872007 346.780704 
L 209.444957 347.081424 
L 208.465587 349.577404 
L 208.397259 350.269061 
L 208.123946 350.960718 
L 207.936044 351.246403 
L 207.668426 351.907988 
L 207.372337 352.659789 
L 205.202919 355.802318 
L 204.821421 356.125593 
L 204.320348 356.907466 
L 203.21571 358.47873 
L 202.771577 358.779451 
L 202.731719 359.087689 
L 202.213564 360.237945 
L 201.632775 360.922084 
L 201.553059 361.328057 
L 200.824226 362.455759 
L 200.505362 363.327848 
L 199.497522 364.523212 
L 199.110329 365.410337 
L 198.051243 367.222178 
L 197.840565 367.740921 
L 197.897505 368.342362 
L 197.476148 369.470064 
L 196.747315 370.297045 
L 195.386447 373.168926 
L 194.196399 374.612384 
L 193.666856 375.491991 
L 193.165783 376.469333 
L 192.829837 376.927932 
L 192.311682 377.31135 
L 191.816303 378.386426 
L 191.332312 379.491574 
L 190.717359 380.506505 
L 189.874646 381.942445 
L 189.202753 383.431012 
L 187.984235 385.310515 
L 186.668918 387.798977 
L 186.367136 388.250057 
L 186.207704 388.761282 
L 185.581362 389.663444 
L 184.955021 390.340065 
L 184.732955 390.813699 
L 184.294516 391.174564 
L 184.10092 392.114316 
L 183.747891 392.572914 
L 183.389169 393.557774 
L 182.990588 393.926156 
L 182.853932 394.324611 
L 182.905178 394.97116 
L 182.381329 395.888358 
L 181.362101 397.519766 
L 181.117259 398.098653 
L 180.769924 398.406892 
L 180.228993 399.489485 
L 180.126501 399.978156 
L 177.25672 405.097922 
L 176.516499 406.721813 
L 176.169165 407.060123 
L 174.808296 410.32294 
L 174.193343 411.300282 
L 173.629636 412.36784 
L 171.369115 415.608103 
L 171.283704 416.134364 
L 170.885124 416.577926 
L 170.292947 417.863506 
L 169.752016 418.976172 
L 168.265879 421.427044 
L 167.582598 423.005826 
L 166.848071 424.486875 
L 166.591841 425.674721 
L 165.390405 427.817354 
L 164.997518 428.238363 
L 164.746981 428.711997 
L 164.325625 429.072862 
L 163.927044 430.020132 
L 163.596792 431.170387 
L 162.924898 432.057513 
L 161.3078 434.433205 
L 160.448004 436.590874 
L 159.14977 438.868832 
L 158.694249 439.199624 
L 158.455101 439.244732 
L 158.159012 439.146998 
L 157.817372 439.590561 
L 157.008822 441.214451 
L 155.807386 443.883346 
L 155.608096 444.364498 
L 154.987449 445.394466 
L 153.239388 448.567067 
L 151.93546 450.63452 
L 151.132605 451.476538 
L 150.648614 452.559131 
L 150.244339 453.634207 
L 149.5212 455.799394 
L 148.610158 457.626271 
L 147.585237 457.693933 
L 146.543233 457.393213 
L 145.00585 456.581268 
L 143.303341 455.784358 
L 142.3923 455.43853 
L 141.976637 455.243062 
L 140.792283 454.145432 
L 139.232125 453.777049 
L 138.395105 453.250788 
L 136.61288 452.311037 
L 135.975151 451.874992 
L 135.718921 451.717114 
L 134.750939 451.551718 
L 133.936696 451.273551 
L 133.452705 451.100637 
L 133.13384 450.551822 
L 132.740954 450.273656 
L 132.188635 450.198476 
L 131.465495 449.792503 
L 131.038445 449.702287 
L 130.947341 449.53689 
L 130.918871 449.574481 
L 130.827766 449.589517 
L 130.66264 449.371494 
L 130.86193 448.97304 
L 130.315306 448.93545 
L 129.31316 449.108364 
L 128.914579 448.890341 
L 128.208522 448.055842 
L 127.348727 447.446883 
L 126.92737 447.251415 
L 126.289641 447.529581 
L 125.925224 447.289005 
L 125.048347 447.266451 
L 124.046201 446.770262 
L 123.510964 446.582312 
L 120.937272 445.108781 
L 120.458975 444.898277 
L 120.031924 444.477268 
L 119.593486 443.748021 
L 119.035473 443.409711 
L 117.942223 442.981184 
L 117.475314 443.14658 
L 116.598437 442.860896 
L 116.103058 442.530103 
L 115.431165 441.74823 
L 115.106606 441.094163 
L 114.702331 441.034019 
L 114.804823 440.876141 
L 114.372079 439.763475 
L 113.164949 439.522899 
L 112.680958 439.462755 
L 112.265295 438.891386 
L 109.600499 437.92908 
L 107.305813 437.124653 
L 104.999739 435.733821 
L 104.003287 435.425582 
L 101.372655 434.748961 
L 100.438837 433.816728 
L 100.006093 433.696439 
L 99.989011 433.343093 
L 99.470856 431.38841 
L 99.698616 430.741861 
L 99.977623 426.937747 
L 100.171219 426.103247 
L 101.697213 423.216331 
L 103.041 420.998517 
L 103.228902 422.509638 
L 103.080858 421.848053 
L 103.422498 421.276684 
L 103.473744 420.900783 
L 103.752751 420.479774 
L 103.786915 420.201608 
L 104.766285 419.592649 
L 105.028209 419.502433 
L 105.261663 419.758045 
L 105.751348 419.329519 
L 106.508652 419.322001 
L 106.611144 419.667829 
L 108.017564 420.314378 
L 109.01971 420.412112 
L 109.714379 420.765459 
L 110.636808 421.276684 
L 111.878103 421.735282 
L 112.202661 421.990895 
L 112.78345 422.081111 
L 113.119397 422.359277 
L 114.235423 422.65248 
L 115.943625 424.080902 
L 117.435456 424.689861 
L 118.511624 424.885329 
L 118.944368 425.216122 
L 119.462523 425.155978 
L 120.384953 425.494288 
L 120.595631 425.44918 
L 120.846168 425.697275 
L 121.267524 425.900261 
L 121.802761 425.810045 
L 122.07038 425.877707 
L 122.560065 426.704688 
L 122.844765 426.742278 
L 122.941563 426.945265 
L 123.380002 427.689548 
L 123.436942 427.952678 
L 123.829829 428.689443 
L 124.194245 428.681925 
L 124.37076 428.832286 
L 125.276107 428.238363 
L 125.418457 428.426313 
L 125.589278 429.072862 
L 125.589278 429.148042 
L 125.708852 429.260812 
L 126.158679 430.25319 
L 127.086802 430.193046 
L 127.064026 430.238154 
L 127.26901 430.433622 
L 127.599263 430.538874 
L 127.325951 430.523838 
L 127.314563 430.576464 
L 127.263316 430.501284 
L 127.206376 430.471212 
L 127.24054 430.426104 
L 127.075414 430.147938 
L 127.04125 430.072758 
L 125.572196 430.147938 
L 125.185003 429.967505 
L 124.974325 429.794591 
L 124.461864 429.050308 
L 124.262573 429.057826 
L 123.949403 428.85484 
L 124.000649 428.884912 
L 123.926627 428.704479 
L 123.584986 428.539083 
L 123.653314 428.486457 
L 123.869687 428.493975 
L 123.863993 428.651853 
L 124.217021 428.787178 
L 124.701012 428.982646 
L 125.236249 429.23074 
L 125.418457 429.283366 
L 125.999246 429.208186 
L 127.06972 429.456281 
L 128.208522 429.922397 
L 128.789311 430.02765 
L 130.49182 431.065135 
L 130.497514 431.380892 
L 131.602152 431.365856 
L 133.287579 433.072444 
L 134.124598 433.132588 
L 134.494709 433.282949 
L 134.955923 433.8468 
L 135.485466 433.869354 
L 137.256303 434.816623 
L 138.731052 435.064718 
L 139.721809 435.493244 
L 139.9211 435.455654 
L 140.2058 435.673677 
L 142.244256 436.162347 
L 144.043563 437.297567 
L 144.852112 437.658432 
L 146.195898 438.545557 
L 146.799463 438.91394 
L 146.970284 439.034228 
L 147.209432 439.049264 
L 144.299793 439.688295 
L 144.419367 441.357294 
L 144.470613 442.357189 
L 144.726844 442.778198 
L 144.8635 443.590143 
L 144.960298 444.597557 
L 144.812254 445.439574 
L 144.573106 445.695186 
L 144.043563 448.206202 
L 144.897664 449.777467 
L 145.768848 451.235961 
L 145.717601 451.589308 
L 145.501229 451.897546 
L 145.529699 452.378699 
L 145.199447 453.341004 
L 144.94891 453.491365 
L 144.840724 454.649139 
L 145.131118 455.318242 
L 146.770993 455.137809 
L 147.254984 455.5513 
L 147.454274 455.927201 
L 147.385946 456.603822 
L 148.20019 457.904438 
L 147.898407 458.836671 
L 147.653565 459.302788 
L 147.385946 460.325238 
L 146.742523 461.513083 
L 145.990914 462.881362 
L 145.273469 464.227086 
L 143.132521 467.279399 
L 142.284114 468.640159 
L 141.902615 469.143866 
L 141.634997 469.843041 
L 140.621463 471.745098 
L 139.738891 473.459204 
L 138.514679 475.474032 
L 137.654884 477.14303 
L 137.279079 477.323462 
L 136.948827 477.278354 
L 136.81217 477.06785 
L 135.587958 476.616769 
L 134.847737 475.842414 
L 134.437768 475.699572 
L 134.147374 475.48155 
L 133.976554 475.661982 
L 133.623525 475.338707 
L 133.521033 475.263527 
L 133.395765 474.842519 
L 132.911774 474.526762 
L 131.015669 473.992983 
L 129.802845 473.241182 
L 129.22775 472.902871 
L 128.595715 472.354057 
L 126.642669 471.639845 
L 125.799956 471.369197 
L 125.145145 470.963224 
L 123.710254 470.264049 
L 123.465412 469.910703 
L 121.973582 469.27919 
L 121.11948 469.324298 
L 120.715205 469.271672 
L 119.177823 468.279294 
L 117.600582 467.256845 
L 117.133673 466.903498 
L 116.558578 466.625332 
L 115.926543 466.63285 
L 115.357142 466.339647 
L 114.315139 465.663026 
L 112.424727 464.430072 
L 110.819017 463.866221 
L 110.352108 463.467767 
L 107.413999 461.776214 
L 106.525734 461.099593 
L 106.110071 460.753764 
L 105.079455 460.189913 
L 104.16272 459.52081 
L 103.035306 458.919369 
L 101.936362 458.355518 
L 98.742022 456.483533 
L 98.218174 456.039971 
L 96.566911 455.280652 
L 94.312083 454.145432 
L 92.848723 453.025248 
L 92.23377 452.814744 
L 88.931244 450.995385 
L 87.8323 450.461606 
L 83.094884 447.672424 
L 82.155373 447.010838 
L 80.993795 446.537204 
L 77.127562 444.484786 
L 76.643571 444.138958 
L 76.07417 443.913418 
L 74.160983 442.417333 
L 73.74532 442.071505 
L 71.809357 441.146789 
L 71.399389 440.808479 
L 70.93248 440.567902 
L 70.402937 440.50024 
L 67.516074 438.756061 
L 66.895427 438.658327 
L 66.38866 438.425269 
L 65.853423 437.959152 
L 64.264795 437.147207 
L 62.835598 436.252563 
L 61.719572 435.726303 
L 61.195723 435.440618 
L 60.723121 434.959465 
L 59.823467 434.508385 
L 57.887504 433.297985 
L 56.464001 432.576256 
L 55.52449 431.997369 
L 52.734425 430.734343 
L 51.732279 430.080276 
L 50.684582 429.726929 
L 50.189203 429.621677 
L 49.847562 429.335992 
L 47.649675 428.170701 
L 46.949311 427.366273 
L 44.808364 426.629508 
L 44.421171 426.388932 
L 43.083079 425.810045 
L 42.394104 425.396554 
L 41.659577 424.968028 
L 40.281626 424.261334 
L 39.569875 423.810254 
L 39.643897 424.080902 
L 39.495853 425.426626 
L 39.381973 426.494184 
L 39.057414 427.997786 
L 39.120048 428.373687 
L 38.846736 429.290884 
L 38.897982 429.538979 
L 38.539259 430.042686 
L 38.334275 430.847113 
L 38.522177 431.448554 
L 38.379827 432.997264 
L 38.806878 433.395719 
L 38.687304 433.95957 
L 38.653139 433.899426 
L 38.932146 434.252772 
L 38.949228 434.102412 
L 39.068802 433.982124 
L 38.687304 433.88439 
L 38.727162 434.177592 
L 38.391215 434.177592 
L 37.679464 434.801587 
L 37.349211 435.147416 
L 36.83675 435.485726 
L 36.631766 435.891699 
L 36.643154 436.169865 
L 36.933549 436.71868 
L 37.981246 437.989224 
L 38.055268 438.282427 
L 37.924306 439.222178 
L 38.465237 440.071713 
L 38.670222 440.019087 
L 39.325033 440.192002 
L 39.700837 440.34988 
L 39.985538 440.725781 
L 40.338566 440.943803 
L 40.794087 441.612906 
L 42.109403 442.432369 
L 42.974893 442.823306 
L 43.549988 443.191688 
L 43.584152 443.898382 
L 44.233269 444.153994 
L 44.74573 444.221656 
L 45.224027 444.417124 
L 45.616913 444.447196 
L 46.37991 444.935867 
L 46.556425 445.183962 
L 47.615511 445.800439 
L 50.490985 446.81537 
L 51.407721 447.228861 
L 52.740119 447.68746 
L 54.015577 448.281382 
L 56.919522 449.807539 
L 57.249775 450.063151 
L 58.120958 450.378908 
L 58.468293 450.627002 
L 58.901038 450.604448 
L 59.812079 450.905169 
L 60.472584 451.50661 
L 61.594304 452.280965 
L 62.078295 452.348627 
L 62.317443 452.649347 
L 66.183676 455.543782 
L 69.434955 456.919578 
L 70.306139 457.122564 
L 71.07483 457.536055 
L 74.075573 459.250162 
L 74.400132 459.550882 
L 75.567404 460.272611 
L 76.244991 460.708656 
L 78.636475 461.926574 
L 79.21157 462.813699 
L 79.143242 463.30237 
L 79.889157 463.445212 
L 80.925467 464.084244 
L 81.790956 464.24964 
L 84.199522 465.587846 
L 84.615185 465.783314 
L 85.349712 466.317093 
L 88.111307 467.805659 
L 89.295661 468.264258 
L 89.580361 468.670231 
L 90.548343 469.121311 
L 91.499242 470.083617 
L 92.427366 470.534698 
L 93.366877 471.309053 
L 94.135569 471.512039 
L 94.556925 471.797724 
L 94.944118 471.782688 
L 95.644481 472.166106 
L 96.13986 472.26384 
L 97.745571 473.21111 
L 98.52565 473.647155 
L 98.935619 473.767443 
L 100.068727 474.444064 
L 101.794012 475.323671 
L 102.28939 475.391333 
L 104.253824 476.406265 
L 105.893699 477.21821 
L 106.389077 477.278354 
L 107.129299 477.676809 
L 108.074504 477.879795 
L 109.777013 478.714295 
L 111.610484 480.105127 
L 111.60479 480.54869 
L 111.001225 481.165167 
L 110.989837 481.849306 
L 109.708685 483.894205 
L 109.498007 484.55579 
L 109.281634 484.74374 
L 108.740703 485.811298 
L 108.746397 486.112018 
L 108.490167 486.457847 
L 107.761334 488.104292 
L 107.305813 489.029007 
L 107.157769 489.322209 
L 106.901538 489.570304 
L 106.081601 489.209439 
L 105.273051 488.795949 
L 104.538524 488.074219 
L 103.160574 487.104396 
L 100.8545 486.164644 
L 98.901455 484.879064 
L 97.563363 484.40543 
L 94.767604 482.984525 
L 94.465821 482.668769 
L 93.765458 482.165062 
L 93.435206 481.864342 
L 93.013849 481.789162 
L 92.672208 481.586175 
L 92.011703 481.420779 
L 90.878595 480.526136 
L 90.690693 480.285559 
L 90.337664 480.044983 
L 88.572521 479.420988 
L 87.991732 479.390916 
L 87.166101 478.962389 
L 86.39741 478.518826 
L 85.634412 478.248178 
L 85.309854 477.819651 
L 84.1255 477.03026 
L 83.641509 476.84231 
L 82.901288 476.331085 
L 81.483479 475.271045 
L 79.724031 474.060645 
L 78.010134 473.384024 
L 77.628635 473.271254 
L 76.848556 472.775065 
L 76.034312 472.587115 
L 74.707608 471.857868 
L 74.576646 471.497003 
L 73.215778 470.662504 
L 72.128222 470.188869 
L 71.251344 469.564874 
L 69.862006 468.963433 
L 68.091169 468.189078 
L 67.669812 467.925948 
L 66.622114 467.715443 
L 66.223534 467.399687 
L 65.750931 467.219254 
L 65.369432 466.911016 
L 63.644147 466.271985 
L 62.533816 465.76076 
L 61.269745 465.279607 
L 60.056921 464.745829 
L 59.504603 464.678166 
L 58.838403 464.24964 
L 57.93875 463.821113 
L 58.007078 463.700825 
L 57.944444 463.580537 
L 58.240532 463.22719 
L 58.559397 462.347583 
L 58.308861 462.497943 
L 57.471841 462.836254 
L 57.10173 462.505461 
L 56.834112 462.076934 
L 56.429837 461.806286 
L 53.212722 460.445526 
L 52.068226 459.731315 
L 50.092405 457.9721 
L 49.414818 457.408249 
L 48.56641 457.130082 
L 47.655369 456.934614 
L 45.673853 455.964791 
L 44.295903 455.152845 
L 43.658174 454.724319 
L 43.185571 454.37849 
L 42.986281 453.949963 
L 42.735744 453.784567 
L 42.058157 454.025144 
L 41.733599 453.874783 
L 41.26669 453.483847 
L 37.95847 451.867474 
L 36.899385 451.356249 
L 36.039589 451.040493 
L 35.367696 450.363872 
L 34.889399 450.048115 
L 34.13779 449.491782 
L 33.21536 449.258724 
L 32.907884 449.018148 
L 33.112868 448.604657 
L 33.175502 448.21372 
L 33.562695 447.018356 
L 34.103626 445.672632 
L 34.36555 445.514754 
L 34.559147 444.755435 
L 34.946339 444.732881 
L 35.111466 445.364394 
L 35.322144 446.867996 
L 35.014667 447.627315 
L 34.849541 447.958108 
L 34.758437 449.649661 
L 34.735661 450.160885 
L 34.923563 450.67211 
L 35.891545 451.273551 
L 36.614684 451.281069 
L 37.912918 451.784776 
L 40.851027 453.213198 
L 41.847479 453.438739 
L 42.661722 453.777049 
L 42.73005 453.754495 
L 43.140019 454.010108 
L 43.70942 453.972517 
L 43.96565 454.280756 
L 44.016896 454.619067 
L 44.341455 454.641621 
L 44.705872 454.822053 
L 45.075982 454.874679 
L 48.515164 456.927096 
L 49.044707 456.979722 
L 49.893114 457.430803 
L 50.268919 457.731523 
L 50.365717 458.137496 
L 50.878178 458.468289 
L 51.766444 458.776527 
L 52.193494 459.062212 
L 53.013432 459.44563 
L 54.624836 460.265093 
L 57.802094 462.174668 
L 57.93875 462.528015 
L 57.91028 462.941506 
L 57.409207 463.640681 
L 56.680374 464.783419 
L 56.668986 465.76076 
L 56.287487 466.647886 
L 56.281793 466.963642 
L 55.564348 468.715339 
L 54.949395 469.737788 
L 53.998495 472.857763 
L 53.736571 474.64705 
L 53.474646 475.188347 
L 52.928021 478.924799 
L 53.007738 479.293182 
L 52.945103 479.699154 
L 53.634079 480.368257 
L 54.294584 480.84941 
L 55.421998 481.202757 
L 56.133749 481.601211 
L 56.469695 481.751571 
L 56.748702 482.0974 
L 57.113119 482.345494 
L 57.898892 482.555999 
L 59.282536 483.34539 
L 64.270489 485.80378 
L 64.498249 486.1045 
L 65.426372 486.555581 
L 66.081184 486.623243 
L 66.314638 486.578135 
L 66.741689 486.051874 
L 67.33956 485.555685 
L 67.561626 485.818816 
L 68.239213 487.307382 
L 68.654876 488.254652 
L 68.80292 488.397494 
L 68.820002 488.773395 
L 68.60363 488.765877 
L 68.142415 488.307278 
L 67.36803 488.427566 
L 66.61642 488.555372 
L 65.528865 488.630552 
L 64.976546 488.878647 
L 64.617823 488.863611 
L 64.384369 489.036525 
L 64.025646 489.111705 
L 63.433469 489.532714 
L 62.68186 489.645484 
L 62.021355 489.803362 
L 61.896087 489.720664 
L 61.879005 489.833434 
L 61.822064 489.818398 
L 61.822064 489.818398 
L 61.281134 490.359695 
L 61.292522 491.216748 
L 61.320992 490.750632 
L 61.5032 490.329623 
L 61.56014 489.329727 
L 61.520282 487.953931 
L 61.457648 486.939 
L 61.605692 486.134572 
L 61.241275 485.134677 
L 60.911023 484.901618 
L 60.273294 484.728704 
L 60.108168 484.495646 
L 59.834855 484.40543 
L 59.037694 484.646006 
L 54.584978 484.412948 
L 54.049741 484.412948 
L 50.787074 484.187407 
L 50.246143 483.939313 
L 50.024077 483.969385 
L 49.63119 483.803989 
L 48.908051 483.668665 
L 48.549328 483.616038 
L 47.792025 483.698737 
L 46.966393 483.743845 
L 46.505179 484.232515 
L 46.15215 484.292659 
L 44.83114 484.044565 
L 44.005508 484.052083 
L 43.208347 484.33025 
L 42.792684 484.044565 
L 42.348552 483.969385 
L 41.870255 483.691219 
L 40.1165 483.969385 
L 39.968456 484.142299 
L 39.176988 484.292659 
L 38.897982 484.224997 
L 38.026798 484.187407 
L 37.525726 484.127263 
L 36.55205 484.495646 
L 36.062365 484.495646 
L 35.14563 484.345286 
L 34.616087 484.510682 
L 31.228151 484.570826 
L 30.812488 484.390394 
L 28.876525 484.315214 
L 28.574743 484.570826 
L 28.221714 485.412843 
L 28.460862 487.487815 
L 28.52919 487.871233 
L 28.24449 488.705732 
L 28.523496 489.209439 
L 28.745563 489.322209 
L 28.893607 489.367318 
L 29.178308 489.247029 
L 30.561952 489.254547 
L 31.290785 489.186885 
L 31.80894 489.322209 
L 32.663041 489.254547 
L 33.608247 489.389872 
L 34.416796 489.307173 
L 35.447412 489.307173 
L 36.216103 489.224475 
L 37.332129 488.983899 
L 38.106515 489.337245 
L 38.755632 489.179367 
L 39.063108 489.066597 
L 41.779151 489.059079 
L 44.028285 488.901201 
L 45.167086 488.998935 
L 45.548585 488.923755 
L 48.287404 489.044043 
L 48.822641 489.021489 
L 48.936521 488.841057 
L 49.74507 488.517782 
L 50.229061 488.728287 
L 51.174267 488.683178 
L 51.572847 488.810985 
L 51.527295 488.848575 
L 51.681033 488.728287 
L 52.005592 488.765877 
L 52.079614 488.743323 
L 54.112375 489.006453 
L 55.188543 488.983899 
L 55.83766 488.923755 
L 56.53233 488.871129 
L 56.811336 488.750841 
L 57.130201 488.968863 
L 59.3167 489.104187 
L 61.537364 489.021489 
L 62.488264 489.367318 
L 62.790046 489.344763 
L 64.424227 488.765877 
L 64.800031 488.705732 
L 66.548092 488.856093 
L 67.299702 488.765877 
L 67.578708 488.946309 
L 67.960207 489.006453 
L 68.677652 488.886165 
L 68.956658 488.923755 
L 69.195807 489.126741 
L 69.446343 489.111705 
L 70.106848 489.457534 
L 70.254893 489.69811 
L 70.755965 490.043939 
L 70.943868 490.79574 
L 71.319672 490.750632 
L 71.689783 490.931064 
L 71.940319 491.201712 
L 72.731787 491.487397 
L 73.039263 491.697901 
L 73.944611 491.885852 
L 74.69622 491.983586 
L 75.089107 492.00614 
L 76.13111 492.585027 
L 76.580937 492.660207 
L 76.85425 492.855675 
L 77.657105 493.111287 
L 78.733273 493.539814 
L 79.661396 493.990895 
L 81.027959 494.780286 
L 81.506256 494.975754 
L 81.734016 495.081007 
L 81.870672 495.456907 
L 81.295577 496.253816 
L 81.261413 496.727451 
L 80.469946 498.441558 
L 79.131854 501.260812 
L 78.966727 501.839699 
L 78.45996 503.102725 
L 78.294834 503.711684 
L 77.548919 505.245359 
L 76.973824 506.500867 
L 77.144644 507.327848 
L 78.380244 509.132171 
L 78.784519 509.763684 
L 78.961033 510.387679 
L 78.881317 510.703435 
L 78.482736 510.801169 
L 77.269912 510.906422 
L 76.592325 511.274804 
L 75.994454 511.319912 
L 75.339643 511.432682 
L 74.92398 511.545453 
L 74.929674 511.522899 
L 74.212229 511.650705 
L 73.699768 511.898799 
L 72.412922 512.049159 
L 72.048506 512.079231 
L 71.655619 511.981497 
L 71.222874 512.146894 
L 70.437101 512.19952 
L 70.09546 512.357398 
L 66.462682 513.026501 
L 64.674763 513.40992 
L 64.076892 513.582834 
L 63.74664 513.500136 
L 63.194321 513.71064 
L 62.790046 513.680568 
L 61.252663 514.214347 
L 60.46689 514.071505 
L 59.846243 514.251937 
L 58.94659 514.357189 
L 58.092488 514.672946 
L 55.057581 515.289423 
L 54.482486 515.266869 
L 54.009883 515.417229 
L 53.121618 515.845755 
L 52.370009 516.09385 
L 51.601317 516.16903 
L 49.779234 516.447196 
L 49.414818 516.078814 
L 49.386348 516.13144 
L 48.258934 516.364498 
L 47.712309 517.033601 
L 47.182766 517.15389 
L 46.106598 517.214034 
L 43.077385 517.868101 
L 42.752826 518.296627 
L 42.490902 518.349253 
L 42.103709 518.228965 
L 41.226832 518.462024 
L 40.475223 518.55224 
L 39.02325 518.597348 
L 38.653139 518.529686 
L 38.374133 518.604866 
L 37.423233 518.319181 
L 37.127145 518.454506 
L 37.013265 518.710118 
L 36.66593 518.800334 
L 36.432476 518.717636 
L 36.096529 518.717636 
L 35.680866 518.860478 
L 35.299368 519.161199 
L 34.342774 519.161199 
L 33.904335 519.386739 
L 32.0367 519.394257 
L 31.729224 519.559653 
L 30.82957 519.522063 
L 29.445926 520.048324 
L 28.227408 520.055842 
L 27.367613 520.364081 
L 27.014584 520.739981 
L 27.06583 521.31135 
L 26.917786 521.882719 
L 26.98042 522.168403 
L 26.798212 523.220925 
L 26.405325 524.882406 
L 26.450877 525.837193 
L 26.348385 526.769427 
L 26.11493 527.679106 
L 26.376855 528.859434 
L 26.05799 529.904438 
L 26.211729 531.002067 
L 26.485041 531.099802 
L 28.717093 530.686311 
L 29.474396 530.611131 
L 33.613941 529.93451 
L 33.824619 529.926992 
L 34.149178 529.678897 
L 37.280883 528.979722 
L 37.628218 528.769218 
L 38.396909 528.769218 
L 38.846736 528.791772 
L 39.302257 528.633894 
L 39.820411 528.641412 
L 40.162052 528.468497 
L 41.107258 528.348209 
L 41.819009 528.167777 
L 42.553536 528.205367 
L 43.703726 527.85202 
L 43.959956 527.85202 
L 44.768506 527.581372 
L 47.085968 527.040075 
L 48.913745 526.942341 
L 49.340795 526.791981 
L 50.308777 526.679211 
L 52.666097 525.995072 
L 53.577139 525.919891 
L 55.456162 525.468811 
L 55.740862 525.273342 
L 55.888906 525.498883 
L 56.116667 525.611653 
L 56.167913 525.386113 
L 56.515248 525.408667 
L 56.612046 525.213198 
L 57.540169 525.183126 
L 58.940896 524.82978 
L 60.472584 524.506505 
L 63.182933 523.829884 
L 63.649841 523.837402 
L 64.646293 523.378803 
L 66.889733 523.190853 
L 68.706122 522.476642 
L 68.968046 522.341318 
L 68.962352 522.363872 
L 69.081927 522.401462 
L 69.372321 522.25862 
L 69.508977 522.153367 
L 69.480507 522.070669 
L 69.72535 521.965417 
L 70.539593 521.995489 
L 73.48909 521.634625 
L 75.601568 521.115882 
L 76.079864 521.19858 
L 77.560307 520.792607 
L 78.03291 520.822679 
L 79.917627 520.446779 
L 80.384536 520.446779 
L 81.306965 520.055842 
L 82.753244 519.732568 
L 83.191682 519.664906 
L 83.624427 519.867892 
L 83.903434 520.281382 
L 84.148276 521.228652 
L 85.366794 523.416393 
L 85.264302 524.025352 
L 85.127646 524.288483 
L 84.746147 524.762118 
L 84.35326 524.739564 
L 83.573181 524.987658 
L 82.781714 525.062838 
L 81.927612 525.175608 
L 81.671382 525.416185 
L 81.648606 526.709283 
L 80.857138 527.543782 
L 80.726176 527.889611 
L 80.743258 528.265511 
L 80.612296 528.633894 
L 79.843605 529.942028 
L 79.706948 529.851812 
L 79.689866 529.739041 
L 79.160324 530.077352 
L 78.414408 529.994654 
L 77.389487 529.408249 
L 76.683429 528.806808 
L 76.393035 528.626376 
L 76.267767 528.415871 
L 75.151741 527.47612 
L 74.542482 527.415976 
L 74.274863 527.197953 
L 73.711156 527.679106 
L 73.181614 527.641516 
L 72.805809 527.453566 
L 72.259184 527.40094 
L 72.116834 527.618962 
L 71.012196 528.423389 
L 70.602227 528.506088 
L 69.95311 528.972204 
L 68.876942 529.904438 
L 67.265538 530.460771 
L 66.969449 530.663757 
L 66.269086 530.866743 
L 65.676909 531.302788 
L 65.375126 531.490738 
L 65.278328 531.498256 
L 65.101814 531.731315 
L 64.879748 531.565918 
L 64.822807 531.460666 
L 65.420678 531.1825 
L 65.796483 530.844189 
L 66.04702 530.325446 
L 66.086878 529.836776 
L 66.810017 528.415871 
L 66.724607 528.160259 
L 66.320332 528.115151 
L 65.944527 528.273029 
L 64.95377 528.385799 
L 61.930251 529.242853 
L 60.432726 529.829258 
L 59.515991 530.069834 
L 59.123104 530.114942 
L 58.696053 529.994654 
L 58.200674 530.054798 
L 57.745154 529.994654 
L 56.896746 530.38559 
L 55.575736 530.648721 
L 54.676082 530.753973 
L 53.064678 531.227608 
L 51.857548 531.250162 
L 51.396333 531.347896 
L 50.553619 531.708761 
L 48.782783 531.656134 
L 48.327262 531.505774 
L 47.609817 531.851603 
L 46.15215 532.092179 
L 45.708017 532.069625 
L 42.75852 532.791354 
L 42.47382 532.91916 
L 42.001217 532.874052 
L 40.184828 533.219881 
L 39.302257 533.573228 
L 37.992634 533.746142 
L 36.483722 534.152114 
L 35.504352 534.174668 
L 35.196876 534.490425 
L 34.724273 534.512979 
L 33.790455 534.746037 
L 28.290042 535.978991 
L 27.897155 536.114316 
L 27.504269 536.4 
L 27.174016 536.384964 
L 26.946256 536.129352 
L 26.877928 535.768487 
L 27.06583 535.159528 
L 27.253732 532.971787 
L 27.26512 532.761282 
L 27.356224 532.219985 
L 26.820988 531.415558 
L 26.519205 531.287752 
L 26.280057 531.10732 
L 26.177565 530.829153 
L 26.348385 528.310619 
L 25.904252 525.589099 
L 25.904252 525.589099 
L 24.264377 525.521437 
L 23.507074 525.483847 
L 23.467216 525.310932 
L 23.70067 524.303519 
L 23.72914 523.754704 
L 23.905655 522.627002 
L 24.264377 518.371807 
L 24.332705 516.883241 
L 24.361175 516.153994 
L 24.235907 515.357085 
L 24.383951 513.883554 
L 24.833778 511.823619 
L 25.568305 502.170492 
L 25.739126 496.531983 
L 25.289299 492.096356 
L 25.146949 490.938582 
L 24.953352 487.878751 
L 25.095703 486.653315 
L 25.727738 483.834061 
L 26.752659 481.03736 
L 26.883622 479.932213 
L 28.887913 475.767234 
L 29.303576 475.368779 
L 29.611052 474.917699 
L 29.867283 473.925321 
L 30.43099 470.512144 
L 31.165517 465.790832 
L 31.541322 464.091762 
L 32.378341 460.821426 
L 32.566243 458.453253 
L 33.756291 450.461606 
L 33.915724 449.987971 
L 33.801843 449.191062 
L 33.488673 448.672319 
L 33.426039 448.10095 
L 33.739209 447.010838 
L 33.949888 445.980871 
L 34.291528 445.409502 
L 34.285834 445.462128 
L 34.405408 445.37943 
L 34.297222 444.755435 
L 34.576229 443.289423 
L 35.020361 441.034019 
L 35.350614 439.958943 
L 35.954179 435.500762 
L 36.130693 434.192628 
L 36.301514 432.621364 
L 36.517886 430.741861 
L 36.660236 430.155456 
L 36.819668 428.884912 
L 37.041735 427.140733 
L 37.013265 426.54681 
L 38.123597 419.141568 
L 38.243171 418.051457 
L 38.271641 417.089151 
L 38.220395 416.570408 
L 37.95847 416.307278 
L 36.80828 415.856197 
L 35.453106 414.878856 
L 35.043137 413.172267 
L 34.468042 412.089673 
L 34.331386 411.503268 
L 34.33708 410.864237 
L 34.718579 409.766607 
L 34.940645 409.217793 
L 35.037443 408.653942 
L 35.003279 408.090091 
L 34.405408 405.804615 
L 34.348468 400.94798 
L 35.043137 397.722752 
L 35.823217 395.324507 
L 36.238879 393.617918 
L 36.734258 391.941401 
L 37.144227 390.272403 
L 37.639606 388.633476 
L 37.964164 387.490738 
L 38.624669 385.78415 
L 39.085884 383.934719 
L 40.623267 378.416498 
L 40.919355 377.506818 
L 40.987683 377.04822 
L 40.925049 376.672319 
L 40.515081 376.379117 
L 40.446752 376.386635 
L 40.572021 376.484369 
L 40.463835 376.371599 
L 40.418282 376.153576 
L 41.130034 375.251415 
L 41.898725 374.875514 
L 41.744987 374.860478 
L 41.631106 374.792816 
L 41.369182 375.266451 
L 41.061706 376.454297 
L 41.215444 376.672319 
L 41.426122 376.755017 
L 41.52292 376.506923 
L 41.710823 376.243792 
L 41.727905 375.740086 
L 41.653883 375.446883 
L 41.989829 375.356667 
L 42.38841 375.777676 
L 42.724356 376.386635 
L 43.134325 376.597139 
L 44.028285 376.589621 
L 44.751424 376.875305 
L 45.759263 377.521854 
L 46.260336 377.762431 
L 47.120132 378.551822 
L 46.801267 378.37139 
L 45.229721 377.409084 
L 43.914404 376.679837 
L 42.747132 375.98818 
L 41.949971 375.845338 
L 41.55139 375.785194 
L 41.329324 375.491991 
L 41.29516 375.063465 
L 41.819009 374.319181 
L 42.957811 371.672841 
L 43.754972 370.214347 
L 43.51013 369.537726 
L 42.883789 369.101681 
L 42.55923 369.049055 
L 42.314388 369.289631 
L 42.308694 369.63546 
L 42.468126 369.82341 
L 43.168489 369.763266 
L 43.498742 369.883554 
L 43.5386 370.094059 
L 43.948568 370.364707 
L 44.318679 370.364707 
L 44.779894 370.853378 
L 44.85961 370.890968 
L 45.053206 371.0714 
L 45.799121 371.545035 
L 51.219819 374.446988 
L 51.589929 374.537204 
L 56.184995 377.333904 
L 56.891052 377.581999 
L 57.414901 377.845129 
L 57.705296 377.860165 
L 58.405659 378.363872 
L 58.827015 378.860061 
L 59.994287 379.476538 
L 60.193578 379.604344 
L 60.204966 379.754704 
L 60.261906 379.747186 
L 60.455502 379.717114 
L 60.483972 379.897546 
L 60.808531 379.717114 
L 60.956575 380.100533 
L 61.161559 380.393735 
L 61.520282 380.589203 
L 61.987191 380.521541 
L 62.493958 380.040388 
L 62.556592 380.371181 
L 63.171545 380.807226 
L 65.141672 381.431221 
L 66.422824 382.175504 
L 67.134575 383.36335 
L 67.305396 383.566336 
L 67.760916 383.5513 
L 69.190113 383.979827 
L 69.560223 384.355727 
L 69.765208 384.731628 
L 70.18087 384.806808 
L 70.232117 385.227817 
L 70.397243 385.566127 
L 70.699025 385.603717 
L 71.023584 386.355518 
L 71.985872 386.483325 
L 72.526802 386.844189 
L 73.044957 386.934405 
L 74.274863 386.626167 
L 75.174517 386.16005 
L 75.464911 385.445839 
L 75.840716 385.325551 
L 76.227909 385.453357 
L 77.02507 386.08487 
L 78.380244 386.738937 
L 78.556759 387.054694 
L 78.625087 387.438112 
L 79.080607 387.678689 
L 80.58952 388.851498 
L 80.862832 388.904124 
L 81.489173 389.355205 
L 82.684915 390.061898 
L 83.06072 390.385173 
L 83.647203 390.618231 
L 84.506999 391.354996 
L 85.053623 391.588055 
L 85.412346 391.933883 
L 85.759681 392.069207 
L 85.771069 392.294748 
L 85.30416 392.602986 
L 85.213056 392.602986 
L 85.127646 392.009063 
L 85.406652 391.715861 
L 85.33263 391.452731 
L 85.395264 391.1896 
L 85.315548 390.918952 
L 85.10487 390.836254 
L 85.497756 390.565605 
L 85.452204 390.294957 
L 85.941889 389.595782 
L 86.215201 388.926679 
L 86.357552 388.595886 
L 86.852931 388.588368 
L 87.240123 388.701138 
L 87.376779 389.152219 
L 90.286418 390.761073 
L 90.673611 390.88888 
L 91.015251 391.121938 
L 92.176829 390.753555 
L 92.905663 390.505461 
L 93.61172 390.866326 
L 93.976136 390.858808 
L 95.200349 391.26478 
L 95.712809 391.437694 
L 96.230964 392.354892 
L 96.373315 393.166837 
L 96.25374 393.790832 
L 96.675097 394.166733 
L 99.413916 395.136556 
L 99.658758 395.339543 
L 99.710004 395.542529 
L 100.102891 395.940984 
L 100.159831 396.016164 
L 100.256629 395.88084 
L 100.074421 396.189078 
L 100.063033 396.06879 
L 99.909294 396.046236 
L 100.638128 396.234186 
L 101.076566 396.346956 
L 101.987608 396.452208 
L 102.966978 396.918325 
L 103.991899 397.65509 
L 104.487278 398.264049 
L 104.885859 398.467036 
L 106.628226 398.557252 
L 107.328589 398.97826 
L 107.607595 399.278981 
L 108.114362 399.294017 
L 108.888748 399.572183 
L 109.236082 399.902976 
L 109.794095 400.722439 
L 112.066005 402.601942 
L 112.401951 402.75982 
L 112.658182 403.015433 
L 113.051069 403.098131 
L 112.6411 402.323776 
L 112.994128 401.925321 
L 113.93364 400.474345 
L 114.400549 399.654881 
L 115.214792 397.700198 
L 115.983483 395.963538 
L 116.159998 395.294435 
L 117.253248 394.354683 
L 117.845425 393.039031 
L 120.128722 389.129665 
L 120.447587 389.084557 
L 121.187808 389.415349 
L 125.970776 391.896293 
L 128.430588 393.031513 
L 130.019217 394.362201 
L 130.372246 395.038822 
L 131.545212 395.309471 
L 132.433477 395.783105 
L 132.93455 395.625227 
L 133.338825 395.873321 
L 133.811427 395.933466 
L 134.221396 396.241704 
L 134.688305 396.452208 
L 136.225687 396.662713 
L 137.034237 397.226564 
L 137.751682 397.880631 
L 141.179476 399.669918 
L 141.669161 399.73758 
L 142.489098 400.120998 
L 143.479856 400.143552 
L 143.804414 400.256322 
L 144.111891 400.519453 
L 146.110488 401.203592 
L 148.724039 402.413992 
L 149.025821 402.616978 
L 149.982415 402.865073 
L 150.318361 402.902663 
L 150.961784 403.421405 
L 151.343283 403.579284 
L 151.73617 403.55673 
L 152.709845 404.135617 
L 152.852195 403.812342 
L 153.330492 403.331189 
L 154.879263 401.564457 
L 155.124105 401.384024 
L 155.124105 400.677331 
L 155.84155 399.940566 
L 156.331235 399.091031 
L 156.633018 398.128725 
L 156.832308 397.760342 
L 156.912024 397.346852 
L 157.242277 397.128829 
L 157.418791 396.354474 
L 157.709186 396.098862 
L 158.267199 394.723066 
L 159.070054 393.542738 
L 159.286426 393.174355 
L 159.593903 392.933779 
L 159.912767 392.445108 
L 160.220244 392.4 
L 160.254408 392.520288 
L 160.465086 392.580432 
L 160.52772 392.377446 
L 161.228084 391.798559 
L 161.290718 391.234708 
L 161.609582 390.836254 
L 161.552642 390.264885 
L 162.030939 388.189913 
L 162.862264 386.851707 
L 163.220987 386.535951 
L 163.494299 385.603717 
L 163.511381 385.250371 
L 163.927044 384.626376 
L 164.433811 383.258098 
L 164.775451 382.897233 
L 165.219584 382.671693 
L 165.561225 382.318346 
L 165.982582 382.100324 
L 166.19326 380.889924 
L 166.5349 380.115569 
L 167.235264 379.288587 
L 167.406084 378.74729 
L 168.305737 377.927827 
L 168.670154 377.657179 
L 169.324965 377.356458 
L 169.92853 377.363976 
L 170.685833 376.597139 
L 170.930676 376.10095 
L 171.101496 375.281487 
L 171.07872 374.62742 
L 171.488689 374.213929 
L 171.551323 373.762848 
L 172.1435 373.326804 
L 172.524999 373.582416 
L 172.923579 373.477164 
L 173.396182 373.214034 
L 173.481592 372.575003 
L 173.783375 372.341944 
L 173.789069 371.18417 
L 173.857397 370.88345 
L 174.090851 370.590247 
L 174.119321 370.094059 
L 174.409716 368.883659 
L 174.47235 368.267182 
L 174.648864 367.635669 
L 174.933565 367.192106 
L 174.893707 366.613219 
L 175.463107 366.094476 
L 175.366309 365.756166 
L 175.446025 365.184797 
L 175.280899 365.305085 
L 175.787666 365.049473 
L 175.981262 365.124653 
L 176.425395 364.951739 
L 176.795506 365.214869 
L 177.376295 365.072027 
L 177.159922 365.026919 
L 177.330743 364.763788 
L 177.347825 364.357816 
L 178.06527 363.372956 
L 179.249624 361.222805 
L 180.70729 359.57636 
L 180.826864 358.538874 
L 181.037543 357.779555 
L 183.286677 354.824977 
L 183.696645 354.058139 
L 183.679563 353.381518 
L 183.81622 352.629717 
L 184.818365 351.276475 
L 185.02335 350.629926 
L 184.915163 349.885643 
L 185.399154 349.269166 
L 185.678161 348.622617 
L 185.962861 347.246821 
L 187.448998 344.991417 
L 187.671064 344.893683 
L 188.360039 343.961449 
L 188.832642 342.540545 
L 189.12873 342.059392 
L 189.93728 341.638384 
L 189.624109 341.427879 
L 189.589945 341.036943 
L 190.204898 339.901723 
L 190.871097 338.916863 
L 191.007754 338.390602 
L 191.059 337.729017 
L 191.531602 336.646424 
L 192.004205 336.172789 
L 192.419868 336.029947 
L 193.336604 335.233037 
L 193.877534 334.721813 
L 194.042661 334.330876 
L 194.925232 332.99267 
L 195.187157 331.849932 
L 195.323813 331.361261 
L 196.314571 330.75982 
L 196.849807 330.53428 
L 197.197142 330.038091 
L 197.555865 329.820069 
L 197.977221 330.143343 
L 198.495376 329.105858 
L 199.429194 328.218732 
L 199.787916 328.256322 
L 200.078311 327.797724 
L 201.023516 327.211319 
L 202.145236 326.90308 
L 202.344527 326.482072 
L 202.777271 326.038509 
L 202.896846 325.670126 
L 202.817129 325.406996 
L 202.856988 325.151384 
L 202.333139 325.121311 
L 203.135994 324.625123 
L 203.676925 323.00875 
L 204.679071 320.956333 
L 204.997935 320.407518 
L 206.113961 319.467767 
L 206.597952 318.430281 
L 206.518236 318.05438 
L 206.324639 317.776214 
L 206.432826 317.189809 
L 207.081943 316.904124 
L 206.990838 316.31772 
L 207.241375 315.693725 
L 208.10117 314.182604 
L 208.602243 313.272925 
L 209.091928 312.94965 
L 209.291218 311.40094 
L 209.627165 310.882197 
L 210.17379 310.536368 
L 210.839989 309.122982 
L 211.40939 308.769636 
L 211.677008 308.093015 
L 211.825053 307.017939 
L 211.950321 306.59693 
L 212.229327 306.115777 
L 212.53111 305.281278 
L 212.457088 304.386635 
L 213.288413 302.574794 
L 214.125432 301.657596 
L 214.711915 300.402088 
L 215.121884 298.973666 
L 215.964598 297.78582 
L 216.687737 296.184484 
L 217.154646 294.094476 
L 217.541838 293.763684 
L 217.763905 293.154725 
L 217.769599 292.395406 
L 217.929031 291.929289 
L 218.401634 291.24515 
L 218.543984 290.906839 
L 218.504126 290.591083 
L 218.971035 290.200146 
L 219.193101 288.200355 
L 218.948259 286.809523 
L 217.137564 284.681925 
L 216.613715 284.215809 
L 216.004456 283.095625 
L 215.600181 282.569364 
L 215.121884 281.494288 
L 214.871348 280.915401 
L 214.484155 280.344033 
L 214.159597 278.908092 
L 214.341805 278.028485 
L 214.660669 277.735282 
L 215.110496 277.081215 
L 214.979534 277.013553 
L 215.042168 276.930855 
L 215.326868 276.487292 
L 216.050008 275.352073 
L 217.228668 274.284515 
L 218.339 272.886165 
L 219.978874 269.112123 
L 220.514111 268.074637 
L 224.260769 260.549107 
L 225.131953 259.286081 
L 226.060077 258.120789 
L 227.375393 256.767547 
L 229.003879 255.587219 
L 230.922761 255.01585 
L 233.200365 255.01585 
L 234.441659 255.624809 
L 237.920698 257.406578 
L 239.105052 257.707299 
L 240.380511 257.759925 
L 240.517167 257.767443 
L 241.843871 257.338916 
L 244.975576 255.278981 
L 246.979868 252.489798 
L 247.441082 251.512457 
L 247.754253 250.429863 
L 248.198386 249.490112 
L 248.779175 248.565396 
L 249.559254 247.520393 
L 252.429035 245.174773 
L 256.226939 242.693829 
L 258.077492 240.122669 
L 260.184276 235.123191 
L 260.525916 233.333904 
L 260.747983 231.98818 
L 260.685349 231.273969 
L 260.241216 229.980871 
L 259.221988 228.063778 
L 258.834796 226.530103 
L 258.743691 224.958839 
L 258.960064 223.568007 
L 259.335868 222.365125 
L 261.670412 219.042164 
L 261.960807 218.478313 
L 263.224877 217.034854 
L 264.227023 216.320643 
L 265.308884 215.749274 
L 266.903207 214.711789 
L 267.825637 213.967505 
L 268.850558 212.614263 
L 269.237751 211.170805 
L 269.357325 210.238572 
L 269.328855 208.772559 
L 269.300385 207.780182 
L 269.448429 206.870502 
L 270.114629 204.863193 
L 270.342389 204.036212 
L 270.723888 202.337141 
L 271.071222 201.216957 
L 271.788667 198.668351 
L 273.09829 194.586071 
L 273.918227 193.187721 
L 276.463449 189.225728 
L 280.944635 184.203696 
L 282.180235 182.226459 
L 283.01156 180.730375 
L 283.96246 178.760656 
L 285.158202 175.866221 
L 287.487052 172.152323 
L 289.77035 169.724005 
L 291.37606 168.844398 
L 293.56256 167.754286 
L 295.526993 167.130291 
L 296.335543 166.949859 
L 297.417404 167.235543 
L 297.559755 167.280652 
L 297.781821 167.228025 
L 299.353368 167.303206 
L 300.446618 167.536264 
L 302.553401 167.694142 
L 304.910721 167.295688 
L 305.776211 166.581476 
L 306.510738 165.792085 
L 308.441007 163.032975 
L 309.727853 161.078292 
L 309.904367 160.521959 
L 310.599037 159.574689 
L 313.51437 154.515067 
L 314.357083 152.996429 
L 316.765649 148.6435 
L 318.28595 146.102412 
L 320.779926 141.493871 
L 322.590621 138.005513 
L 325.47179 132.652689 
L 326.234787 131.013762 
L 326.895292 129.818398 
L 327.641207 127.976485 
L 327.994236 125.397807 
L 328.740151 115.864968 
L 328.586413 114.406474 
L 327.897438 112.369093 
L 327.04903 110.542216 
L 326.377137 109.361888 
L 326.086743 108.14397 
L 326.052579 107.504939 
L 326.308809 106.106589 
L 326.798494 104.693202 
L 327.692453 102.731001 
L 328.956523 100.144805 
L 330.061161 98.27282 
L 333.249807 93.912373 
L 337.190061 89.882719 
L 338.69328 87.822784 
L 339.239905 86.634938 
L 339.444889 85.432056 
L 339.365173 79.192106 
L 339.627097 77.320121 
L 340.896862 71.335784 
L 341.36377 70.268226 
L 342.303282 68.832286 
L 343.476248 67.411381 
L 343.903299 67.005409 
L 345.019324 66.411486 
L 346.289089 66.005513 
L 347.353868 65.268748 
L 347.843553 64.780077 
L 348.49267 63.667412 
L 348.743207 63.103561 
L 348.811535 62.42694 
L 348.760289 61.750318 
L 348.481282 61.103769 
L 347.632875 60.013658 
L 346.448521 59.322001 
L 345.788016 59.216748 
L 344.381595 59.382145 
L 343.037809 59.89337 
L 341.853455 60.667725 
L 340.327461 61.998413 
L 339.72959 62.254025 
L 339.040614 62.419422 
L 337.662664 62.411904 
L 337.053405 62.201399 
L 336.119588 61.276684 
L 335.521717 60.058766 
L 335.424918 59.419735 
L 335.493246 58.780704 
L 335.692537 58.179263 
L 336.353042 57.156813 
L 336.637742 56.540336 
L 339.450583 53.059497 
L 340.526751 51.503268 
L 342.348834 48.029947 
L 343.180159 45.654255 
L 343.37945 43.804824 
L 343.385144 43.165793 
L 343.049197 42.000501 
L 342.474102 41.008124 
L 341.369464 39.654881 
L 340.646325 38.782792 
L 338.943816 37.361888 
L 336.216386 35.482385 
L 334.667615 34.85839 
L 330.761525 33.850976 
L 326.075355 32.851081 
L 324.446868 32.4 
L 322.778523 32.851081 
L 320.967828 34.332129 
L 320.472449 35.00875 
L 319.931518 36.21915 
L 319.629736 38.324193 
L 319.680982 38.767756 
L 320.068175 39.466931 
L 320.563553 40.105962 
L 321.639721 41.083304 
L 322.510905 41.421614 
L 323.416252 41.729853 
L 323.655401 41.910285 
L 324.105227 42.000501 
L 324.851143 42.278668 
L 325.739408 42.850037 
L 326.826964 44.218315 
L 327.202769 45.10544 
L 327.515939 46.766921 
L 327.692453 48.420883 
L 328.335876 50.804093 
L 329.155814 53.074533 
L 329.29247 54.081946 
L 329.115956 56.232098 
L 328.791397 57.254547 
L 328.495309 57.66052 
L 328.165056 58.510055 
L 326.70739 60.276788 
L 324.708792 61.825499 
L 323.644013 62.487084 
L 320.443979 63.75011 
L 318.764246 64.674825 
L 317.403378 65.945369 
L 316.628993 66.952783 
L 316.076674 68.012822 
L 315.011894 70.583982 
L 314.345695 71.50118 
L 313.559922 72.200355 
L 311.897271 73.245359 
L 310.51932 73.824246 
L 307.364839 75.222596 
L 304.973355 76.763788 
L 302.872266 78.778615 
L 302.337029 79.4402 
L 301.329189 80.928767 
L 300.63452 82.041433 
L 299.364756 84.612593 
L 299.296428 84.950903 
L 299.057279 85.221552 
L 298.129156 87.867892 
L 296.745511 91.296105 
L 295.914186 92.927514 
L 293.739074 95.378386 
L 292.896361 96.039971 
L 290.835129 97.152637 
L 289.815902 98.077352 
L 289.087068 98.723901 
L 288.494891 99.430594 
L 287.771752 100.738728 
L 287.435806 102.362619 
L 287.287761 103.422658 
L 287.259291 104.467662 
L 287.600932 108.279294 
L 287.58385 108.677749 
L 287.208045 109.489694 
L 286.484906 110.617396 
L 285.129732 112.105962 
L 283.700535 113.196074 
L 282.721166 113.534384 
L 277.989444 115.74468 
L 277.271999 116.248387 
L 274.857739 117.932421 
L 271.885466 121.089986 
L 270.786522 123.127368 
L 269.864092 124.773812 
L 269.254833 125.863924 
L 268.748066 127.081842 
L 268.161583 130.104083 
L 268.246993 132.442184 
L 268.622798 134.562264 
L 270.575843 141.133006 
L 270.598619 143.531252 
L 270.131711 144.876976 
L 269.841316 145.651331 
L 267.63204 149.643396 
L 264.027732 153.650496 
L 259.745837 156.875723 
L 259.091026 157.822993 
L 258.487461 158.800334 
L 257.980694 159.845338 
L 257.491009 162.401462 
L 257.445457 163.717114 
L 257.587808 165.551509 
L 257.582114 167.994863 
L 257.257555 169.889402 
L 256.175693 172.024517 
L 255.44686 173.084557 
L 254.541512 173.986718 
L 251.93935 176.272194 
L 247.241792 180.850663 
L 246.91154 181.331816 
L 245.157785 183.075995 
L 244.502974 184.136034 
L 244.070229 184.624705 
L 243.392642 185.729853 
L 242.606868 186.75982 
L 240.693681 188.579179 
L 239.737088 189.541485 
L 237.186171 191.481132 
L 233.724213 194.074846 
L 232.904276 194.916863 
L 232.249465 195.886687 
L 230.632366 198.878856 
L 229.727019 200.194508 
L 228.975409 201.555268 
L 228.901387 201.818398 
L 226.196733 205.419526 
L 225.735518 205.900679 
L 225.029461 206.757732 
L 223.822331 207.502015 
L 223.070721 207.562159 
L 222.290642 207.456907 
L 221.254332 207.246403 
L 220.479947 207.268957 
L 219.864994 207.081007 
L 219.250041 206.697588 
L 218.760356 206.659998 
L 217.399488 205.983377 
L 217.035071 206.013449 
L 216.630797 205.893161 
L 215.970292 205.487188 
L 215.566017 205.321792 
L 214.877042 205.224058 
L 214.045716 204.810567 
L 213.561726 204.863193 
L 211.762418 204.201608 
L 211.289816 204.329414 
L 210.919705 204.246716 
L 210.555288 203.976068 
L 207.503299 203.013762 
L 207.053473 202.667934 
L 206.353109 202.525091 
L 206.057021 202.359695 
L 205.368046 201.201921 
L 205.180143 200.938791 
L 204.969465 200.389976 
L 204.616436 198.773603 
L 204.388676 198.563099 
L 203.802193 198.442811 
L 202.896846 198.02932 
L 200.818532 197.382771 
L 200.260519 196.931691 
L 199.190045 196.85651 
L 198.916733 196.871546 
L 198.284698 196.646006 
L 197.994303 196.322732 
L 197.755155 196.382876 
L 197.470454 196.646006 
L 196.451227 196.022011 
L 195.278261 195.097296 
L 194.572204 194.736431 
L 194.196399 194.443229 
L 193.228417 194.28535 
L 192.994963 193.864342 
L 192.157944 193.375671 
L 190.990672 192.804302 
L 190.472517 192.721604 
L 188.747232 191.706672 
L 187.69384 191.150339 
L 188.007011 190.571452 
L 188.286017 190.300804 
L 188.479613 189.917385 
L 188.337263 189.571557 
L 188.81556 187.143239 
L 189.441901 185.865177 
L 189.384961 185.489276 
L 189.447595 185.120894 
L 189.316633 184.617187 
L 189.077484 184.414201 
L 188.160749 184.136034 
L 187.858966 183.188765 
L 187.89313 180.091344 
L 188.297405 179.068894 
L 188.263241 178.565187 
L 188.086727 178.046445 
L 187.830496 177.775796 
L 187.55149 176.618022 
L 187.699534 176.610504 
L 187.69384 176.024099 
L 187.733698 175.888775 
L 187.858966 175.482803 
L 187.66537 174.700929 
L 187.477468 174.482907 
L 187.585654 174.370137 
L 187.49455 174.445317 
L 187.653982 174.475389 
L 187.631206 174.385173 
L 187.870354 174.325029 
L 190.768605 168.190331 
L 190.97359 168.122669 
L 191.491744 169.145119 
L 191.497438 168.64893 
L 191.355088 168.100115 
L 191.275372 168.182813 
L 191.133022 168.250475 
L 190.933731 168.062525 
L 190.956508 167.36335 
L 190.996366 166.844607 
L 190.865403 165.934927 
L 192.175026 162.754808 
L 192.243354 162.44657 
L 192.135167 162.311246 
L 192.226272 161.521854 
L 192.397092 161.108364 
L 192.744427 160.702391 
L 193.148701 159.642351 
L 193.456178 158.717636 
L 195.141605 155.244315 
L 195.722394 154.477477 
L 196.303182 153.304667 
L 196.855501 152.372434 
L 197.356574 151.673259 
L 197.703909 151.432682 
L 198.074019 151.40261 
L 199.024919 151.703331 
L 199.355172 151.966461 
L 199.799304 152.146894 
L 200.476892 152.665636 
L 201.450567 153.049055 
L 203.27265 154.139167 
L 205.789402 155.048846 
L 206.745996 154.793234 
L 207.378031 154.229383 
L 208.306155 152.748335 
L 208.380177 152.710744 
L 208.323237 152.61301 
L 209.148868 151.131962 
L 209.649941 150.297463 
L 211.825053 146.500867 
L 212.741788 145.027336 
L 214.233619 142.817041 
L 214.939676 141.260812 
L 215.708367 140.110557 
L 216.072784 139.163287 
L 217.166034 137.374 
L 217.393794 136.990582 
L 217.684188 136.742487 
L 218.020135 136.667307 
L 218.253589 136.787595 
L 218.418716 137.03569 
L 218.640782 137.080798 
L 219.352533 137.471734 
L 219.580294 137.795009 
L 220.963938 138.554328 
L 220.935468 138.35886 
L 220.832976 138.073175 
L 220.832976 138.125801 
" clip-path="url(#p6dd25e84ad)" style="fill: none; stroke: #000000; stroke-width: 3"/>
   </g>
  </g>
 </g>
 <defs>
  <clipPath id="p6dd25e84ad">
   <rect x="7.2" y="7.2" width="357.878751" height="554.4"/>
  </clipPath>
 </defs>
</svg>
