<?xml version="1.0" encoding="utf-8" standalone="no"?>
<!DOCTYPE svg PUBLIC "-//W3C//DTD SVG 1.1//EN"
  "http://www.w3.org/Graphics/SVG/1.1/DTD/svg11.dtd">
<svg xmlns:xlink="http://www.w3.org/1999/xlink" width="360.959435pt" height="568.8pt" viewBox="0 0 360.959435 568.8" xmlns="http://www.w3.org/2000/svg" version="1.1">
 <metadata>
  <rdf:RDF xmlns:dc="http://purl.org/dc/elements/1.1/" xmlns:cc="http://creativecommons.org/ns#" xmlns:rdf="http://www.w3.org/1999/02/22-rdf-syntax-ns#">
   <cc:Work>
    <dc:type rdf:resource="http://purl.org/dc/dcmitype/StillImage"/>
    <dc:date>2023-02-23T05:03:05.319687</dc:date>
    <dc:format>image/svg+xml</dc:format>
    <dc:creator>
     <cc:Agent>
      <dc:title>Matplotlib v3.7.0, https://matplotlib.org/</dc:title>
     </cc:Agent>
    </dc:creator>
   </cc:Work>
  </rdf:RDF>
 </metadata>
 <defs>
  <style type="text/css">*{stroke-linejoin: round; stroke-linecap: butt}</style>
 </defs>
 <g id="figure_1">
  <g id="patch_1">
   <path d="M 0 568.8 
L 360.959435 568.8 
L 360.959435 0 
L 0 0 
z
" style="fill: #ffffff"/>
  </g>
  <g id="axes_1">
   <g id="LineCollection_1">
    <path d="M 146.613549 263.363369 
L 148.89586 264.854772 
L 149.430777 265.310042 
L 150.892882 267.115425 
L 152.94934 268.967904 
L 155.350521 270.208124 
L 156.551112 271.040169 
L 158.262845 271.558236 
L 159.92703 271.887914 
L 160.937428 272.42168 
L 162.05481 273.253725 
L 162.791806 273.991577 
L 164.883925 276.440618 
L 165.478277 277.570944 
L 165.513938 278.136108 
L 165.311858 278.87396 
L 164.669958 279.815898 
L 163.873527 280.757837 
L 162.601614 282.155046 
L 161.329701 283.552255 
L 158.821536 285.640219 
L 157.252447 286.535061 
L 152.973114 289.706255 
L 151.689314 290.946474 
L 149.383228 293.552504 
L 148.456039 295.028208 
L 147.552625 297.131871 
L 147.338658 298.058111 
L 146.744306 300.412958 
L 146.76808 301.700274 
L 146.803741 302.924794 
L 146.803741 304.117917 
L 147.338658 309.220085 
L 147.302997 310.852778 
L 147.160352 311.998804 
L 147.124691 314.023972 
L 147.041482 315.609569 
L 146.720532 316.677099 
L 146.233164 317.964416 
L 145.80523 319.204635 
L 144.782945 320.884426 
L 143.713112 322.470022 
L 142.762149 323.773038 
L 141.418914 325.358634 
L 140.253984 326.740145 
L 138.898862 327.917568 
L 132.788925 333.459307 
L 131.742865 334.354149 
L 130.815676 335.201894 
L 127.439758 337.823623 
L 126.999937 338.231797 
L 125.894443 339.660404 
L 124.028178 341.701271 
L 123.207973 342.48622 
L 122.150026 343.538051 
L 120.164891 346.379566 
L 119.380347 347.352903 
L 117.002939 350.743882 
L 115.029691 353.820882 
L 114.090615 354.966908 
L 113.127765 355.84605 
L 109.573541 358.671866 
L 108.170871 359.802193 
L 106.20951 361.419188 
L 104.771178 362.61231 
L 103.487378 363.774034 
L 100.539393 366.128881 
L 99.231819 367.180713 
L 97.948019 368.232544 
L 97.151587 368.938998 
L 96.081754 370.194917 
L 95.107017 371.435136 
L 94.916824 371.843309 
L 94.310585 372.738151 
L 93.835104 373.758585 
L 93.419058 374.637727 
L 92.860367 375.485472 
L 92.753384 375.972141 
L 92.277902 377.05537 
L 91.921291 378.923548 
L 91.897517 379.473013 
L 91.647889 380.58764 
L 91.445809 382.063344 
L 91.208069 383.50765 
L 91.148634 384.496686 
L 91.303165 385.548517 
L 91.422035 386.12938 
L 91.659776 386.647446 
L 91.849969 387.762073 
L 92.456208 390.587889 
L 92.824706 392.377573 
L 93.597363 394.434139 
L 93.763782 395.438874 
L 93.680572 399.708996 
L 93.799443 403.052878 
L 93.49038 406.396761 
L 93.109995 408.202143 
L 92.420547 410.494194 
L 91.386374 412.817643 
L 90.637491 414.575928 
L 89.900495 415.533566 
L 88.949532 416.39701 
L 85.193228 418.814652 
L 81.639004 420.149066 
L 81.044652 420.290356 
L 80.117463 420.69853 
L 78.488939 421.342188 
L 77.395332 421.907351 
L 76.39682 422.37832 
L 75.3151 423.053377 
L 73.995639 424.183703 
L 71.939182 427.103713 
L 71.083315 428.595116 
L 69.169502 431.29534 
L 66.922852 435.989335 
L 65.88868 439.113431 
L 65.639052 440.165263 
L 63.309193 447.936257 
L 62.429552 450.181211 
L 62.322569 451.170247 
L 62.286907 452.127884 
L 62.203698 452.975629 
L 61.965957 454.781012 
L 61.894635 455.817144 
L 60.610835 459.459307 
L 59.58855 461.578669 
L 59.243826 462.363618 
L 57.639076 465.362123 
L 55.119024 468.109444 
L 54.346367 469.035684 
L 52.230474 471.029454 
L 51.850089 471.500424 
L 50.875352 472.253975 
L 49.746083 473.101719 
L 47.404337 475.268178 
L 46.358278 475.958933 
L 43.921435 477.952704 
L 42.043283 479.475505 
L 40.367211 481.579168 
L 38.120561 484.216596 
L 35.101254 486.901121 
L 32.569315 489.522851 
L 31.749109 490.354897 
L 29.894731 492.678345 
L 28.765463 493.902866 
L 26.756553 497.042661 
L 25.508415 499.319013 
L 24.426694 501.281385 
L 23.23799 504.970645 
L 23.047798 505.834089 
L 23.071572 506.728931 
L 22.988363 507.608074 
L 22.952702 508.675604 
L 23.00025 509.240768 
L 23.772907 511.171742 
L 24.616887 511.988089 
L 25.04482 512.317767 
L 25.841252 513.306803 
L 26.471265 514.468527 
L 27.029955 515.66165 
L 28.836785 517.890905 
L 29.633216 519.303813 
L 31.630239 522.537802 
L 33.306311 524.060603 
L 35.029931 525.583404 
L 36.361279 526.666633 
L 38.489059 527.749863 
L 39.178507 528.063843 
L 40.343437 529.225567 
L 41.068546 529.853526 
L 42.043283 530.387291 
L 44.812963 531.721704 
L 46.477148 532.176975 
L 47.451885 532.522352 
L 48.188881 533.150311 
L 48.379074 533.63698 
L 49.223054 534.641714 
L 50.114581 535.081286 
L 52.753504 535.897633 
L 53.977868 536.274408 
L 55.071476 536.4 
L 58.162106 536.133117 
L 59.208165 535.662148 
L 60.943672 534.359133 
L 61.847087 533.715475 
L 63.463724 531.925791 
L 65.211119 530.136108 
L 67.433994 527.310292 
L 67.945137 526.352654 
L 68.242313 525.222327 
L 69.383469 523.134363 
L 70.29877 521.847047 
L 70.738591 520.858011 
L 71.499361 519.146823 
L 72.236357 516.211114 
L 74.102622 512.349165 
L 75.089246 510.323997 
L 75.220004 509.758834 
L 75.445858 509.382058 
L 75.861904 508.393023 
L 77.35967 505.865487 
L 78.108554 505.064839 
L 78.893098 504.248492 
L 80.426526 502.113431 
L 81.448811 500.873212 
L 83.588478 499.271916 
L 84.907939 497.906105 
L 86.001546 496.681585 
L 86.75043 495.786743 
L 88.533485 494.829105 
L 89.496335 494.45233 
L 90.673152 494.279641 
L 92.432434 493.965662 
L 93.775669 493.934264 
L 95.166452 494.075554 
L 95.594385 494.263942 
L 97.793487 494.279641 
L 99.0654 494.515126 
L 100.02825 495.095988 
L 101.383373 495.771044 
L 102.726608 496.665886 
L 104.438341 497.639223 
L 105.793463 499.319013 
L 107.61218 499.852778 
L 108.57503 499.931273 
L 110.607713 499.711488 
L 111.66566 499.397508 
L 113.092104 498.879442 
L 113.520037 498.659656 
L 114.530436 498.329978 
L 115.766687 497.639223 
L 116.563119 497.278146 
L 118.120321 495.943733 
L 120.188665 494.389534 
L 120.937549 493.604585 
L 122.066817 492.584152 
L 124.693852 489.585647 
L 125.06235 488.628009 
L 125.216882 487.38779 
L 125.204995 486.697035 
L 125.323865 486.131871 
L 125.549719 485.676601 
L 125.739912 484.546275 
L 126.928615 481.029703 
L 127.142582 480.433142 
L 127.725047 479.428408 
L 128.27185 478.31378 
L 130.209438 476.351408 
L 133.086101 474.043658 
L 140.099452 470.464291 
L 140.598708 470.323 
L 141.418914 469.804934 
L 142.441199 469.428158 
L 143.415936 469.067082 
L 144.224254 468.533317 
L 145.48428 467.214603 
L 146.197502 466.445353 
L 148.170751 463.855021 
L 149.704178 461.56297 
L 150.560045 460.212858 
L 150.869108 459.773287 
L 151.035527 458.517369 
L 151.071188 456.617792 
L 151.522895 454.105956 
L 152.200456 451.484226 
L 152.366875 449.961425 
L 152.723486 448.97239 
L 153.401047 447.480987 
L 153.840867 446.491951 
L 153.805206 444.953451 
L 153.579352 444.576676 
L 153.401047 443.885921 
L 152.652164 442.425916 
L 152.22423 441.358385 
L 151.66554 440.416447 
L 150.952317 438.877947 
L 149.371341 436.868477 
L 148.265847 434.654922 
L 148.075654 434.105457 
L 147.93301 432.425667 
L 148.039993 432.017493 
L 148.039993 431.530825 
L 147.742817 430.008024 
L 147.707156 427.527585 
L 147.861688 426.491453 
L 148.337169 425.533815 
L 149.062278 424.481984 
L 150.108338 423.14757 
L 151.998377 420.588637 
L 154.708621 417.495938 
L 155.279199 416.349913 
L 155.814115 415.266683 
L 156.551112 414.403239 
L 158.274732 413.00603 
L 159.201921 412.425168 
L 160.616478 411.718714 
L 162.768032 410.462796 
L 163.374271 410.24301 
L 164.206364 409.567954 
L 165.121666 408.798704 
L 165.763566 408.107949 
L 166.155838 407.275903 
L 166.512449 406.86773 
L 167.320767 406.286868 
L 168.509471 405.17224 
L 168.99684 404.214603 
L 170.233091 401.749863 
L 170.613477 400.839322 
L 171.291038 399.740394 
L 171.409908 398.924047 
L 171.184054 396.993073 
L 170.803669 393.80618 
L 171.04141 391.686818 
L 171.718971 390.321007 
L 172.194453 389.708747 
L 172.408419 389.331971 
L 173.620897 388.233043 
L 174.833375 386.42766 
L 175.261308 385.077548 
L 175.546597 384.716471 
L 175.748677 384.010017 
L 176.200384 380.100972 
L 176.354916 379.755594 
L 176.723414 377.903115 
L 177.091912 376.568702 
L 177.745699 374.888911 
L 177.805134 374.009768 
L 178.565905 371.074059 
L 178.637227 370.399003 
L 179.100821 369.394269 
L 179.576303 368.326738 
L 180.051784 367.306305 
L 181.63276 365.061351 
L 182.880899 362.92629 
L 184.022055 361.2308 
L 184.830373 359.032943 
L 187.053249 355.610566 
L 187.93289 353.899377 
L 188.800643 353.098729 
L 192.057692 350.288612 
L 193.115638 349.001296 
L 193.448475 348.577423 
L 195.207756 347.274408 
L 195.968527 346.379566 
L 197.513842 343.961924 
L 197.870453 343.522352 
L 199.142366 341.434388 
L 200.045781 339.958684 
L 201.079953 335.798455 
L 201.614869 334.33845 
L 202.007142 332.046399 
L 202.185447 330.837578 
L 203.148297 328.231547 
L 203.504908 327.305308 
L 204.705499 325.390032 
L 205.335512 324.448094 
L 205.537592 323.851533 
L 207.415744 320.915824 
L 208.378594 319.079043 
L 210.114101 315.499676 
L 210.411277 314.965911 
L 211.290918 314.337952 
L 212.396412 313.976875 
L 214.702497 312.375579 
L 216.247812 311.716222 
L 219.932794 310.491702 
L 220.955079 310.240518 
L 222.203218 310.130625 
L 223.986273 309.769549 
L 225.091768 309.75385 
L 226.078392 309.345677 
L 227.718803 309.14159 
L 228.990716 308.780513 
L 232.10512 309.377075 
L 233.198727 309.832345 
L 234.827251 310.256217 
L 235.813875 311.151059 
L 236.681629 311.402243 
L 237.56127 311.512136 
L 238.345814 311.323748 
L 240.069435 311.025467 
L 241.971361 310.617294 
L 244.955007 309.59686 
L 246.393338 309.204386 
L 247.498833 308.702018 
L 249.412646 307.367605 
L 250.185303 306.629753 
L 251.290798 304.981361 
L 251.409668 304.384799 
L 252.336857 302.406728 
L 253.168949 301.245004 
L 253.810849 300.365861 
L 254.773699 299.45532 
L 255.700888 298.2308 
L 256.223918 297.335958 
L 259.112468 294.149066 
L 261.097603 292.469275 
L 262.654805 290.554 
L 263.379914 289.109693 
L 264.140685 288.010765 
L 265.16297 286.880439 
L 265.495807 286.55076 
L 266.161481 285.153551 
L 266.541866 283.772041 
L 267.231314 282.798704 
L 267.694909 282.264939 
L 268.360583 280.757837 
L 269.038144 279.533317 
L 269.787027 277.806429 
L 270.333831 276.267929 
L 270.809313 274.776526 
L 271.011392 274.274159 
L 271.035166 273.708996 
L 271.439326 272.688562 
L 271.724614 271.621032 
L 272.818222 269.124894 
L 273.674089 268.010267 
L 274.327876 266.534563 
L 274.898453 264.933267 
L 275.528466 263.50466 
L 275.932626 262.609818 
L 276.800379 261.102716 
L 277.56115 260.097982 
L 278.238711 259.234538 
L 278.500226 258.700772 
L 278.833063 257.115176 
L 278.987594 256.597109 
L 280.009879 254.634737 
L 280.461587 253.316023 
L 281.376889 252.028707 
L 284.134681 249.045901 
L 285.798866 246.926539 
L 286.880587 245.309544 
L 288.009855 243.849539 
L 288.651755 242.734912 
L 289.531396 240.646947 
L 290.363489 239.438126 
L 291.385774 238.229305 
L 291.718611 237.83683 
L 292.158431 236.7693 
L 292.110883 235.481984 
L 292.0039 234.053377 
L 292.217866 232.985846 
L 293.228265 230.944979 
L 294.167341 229.500673 
L 294.345646 228.966908 
L 294.785466 225.24625 
L 294.999433 224.194418 
L 295.023207 223.692051 
L 294.928111 223.142587 
L 294.821128 221.305806 
L 294.726031 220.866235 
L 294.868676 219.641714 
L 295.201513 218.589883 
L 295.510576 217.647944 
L 295.570011 217.129878 
L 295.474915 215.968154 
L 295.593785 214.869225 
L 296.223798 212.718465 
L 296.651731 210.238026 
L 297.590807 208.322751 
L 298.161385 207.459307 
L 298.482335 206.438874 
L 298.553657 204.303813 
L 298.161385 202.011762 
L 298.078176 201.27391 
L 297.46005 199.625517 
L 297.222309 199.170247 
L 296.794376 198.667879 
L 296.104928 197.317767 
L 295.33227 196.313033 
L 292.669574 192.890655 
L 291.171807 191.571941 
L 290.494246 190.692798 
L 289.840459 189.813656 
L 289.376865 188.887416 
L 288.520998 185.857513 
L 288.520998 184.695789 
L 288.818174 183.172988 
L 289.495735 179.373835 
L 290.066313 177.898131 
L 291.15992 175.260703 
L 291.968239 173.722203 
L 292.859766 171.602841 
L 293.121281 170.613805 
L 293.561102 169.656167 
L 295.33227 167.112933 
L 296.413991 165.700025 
L 296.972681 164.616795 
L 297.828548 163.062597 
L 298.86272 161.649689 
L 299.682926 160.111189 
L 300.693324 158.839571 
L 301.905802 157.599352 
L 304.63982 154.836332 
L 305.60267 153.925791 
L 307.575918 151.979118 
L 308.610091 150.691802 
L 310.73787 148.823623 
L 311.486754 148.211363 
L 312.86565 146.547271 
L 315.55212 142.057364 
L 315.825522 141.131124 
L 315.932505 140.330476 
L 316.336665 138.164017 
L 316.407987 136.499925 
L 316.265343 136.12315 
L 315.63533 131.994318 
L 315.944393 128.791727 
L 315.980054 127.300324 
L 316.217794 124.945477 
L 316.907243 122.700523 
L 317.656126 121.052131 
L 317.977076 119.340942 
L 318.179155 116.593621 
L 318.381235 114.207376 
L 319.058796 111.664142 
L 319.474843 110.094244 
L 320.972609 108.00628 
L 322.149426 105.494443 
L 323.088502 104.379816 
L 324.871557 102.056367 
L 325.727424 101.569698 
L 330.054306 99.984102 
L 331.575846 99.356143 
L 332.56247 98.838076 
L 333.40645 98.32001 
L 336.41387 96.9385 
L 337.210302 96.294842 
L 337.673896 95.4 
L 337.994846 93.798704 
L 337.911637 92.213107 
L 337.471817 90.972888 
L 337.37672 90.454822 
L 336.675385 89.387291 
L 335.914615 88.523847 
L 334.559493 87.456317 
L 332.300956 86.357388 
L 331.254896 86.200399 
L 330.018644 86.153302 
L 328.104831 86.498679 
L 325.90573 87.299327 
L 322.208861 88.837827 
L 320.984496 89.889659 
L 318.428783 91.914827 
L 317.275741 92.542786 
L 316.19402 92.950959 
L 314.838898 93.045153 
L 313.38868 92.919561 
L 312.057331 92.527087 
L 310.844854 91.86773 
L 310.226728 91.224072 
L 309.418409 89.811164 
L 309.204442 89.261699 
L 308.514994 88.288363 
L 307.777998 86.545776 
L 307.540257 84.112435 
L 307.754224 83.186195 
L 308.205931 82.322751 
L 309.870117 78.382308 
L 311.153917 76.875206 
L 313.139052 75.352405 
L 314.482287 74.426165 
L 316.645728 72.542288 
L 317.287628 71.58465 
L 317.858205 71.160777 
L 318.702185 70.736905 
L 319.736357 69.575181 
L 322.220748 66.827859 
L 322.363393 65.964416 
L 322.624907 63.405482 
L 322.577359 62.997309 
L 323.124163 60.0616 
L 323.064728 58.884176 
L 323.421339 57.848044 
L 323.956256 57.078794 
L 324.289093 54.598355 
L 324.598156 52.792973 
L 324.41985 51.694044 
L 323.754176 49.464789 
L 323.088502 48.350162 
L 322.61302 47.549514 
L 322.446602 47.078545 
L 321.139028 45.30456 
L 320.354483 44.598106 
L 319.855228 43.76606 
L 318.084059 41.992076 
L 315.278718 39.511637 
L 313.685855 38.475505 
L 312.818102 38.035933 
L 307.4095 35.288612 
L 306.648729 35.178719 
L 303.783954 34.330974 
L 302.963748 34.23678 
L 300.538792 34.142587 
L 298.125724 33.907102 
L 296.449652 33.62452 
L 294.024696 33.561724 
L 291.694837 32.996561 
L 290.613116 32.980862 
L 288.818174 32.792474 
L 288.509111 32.71398 
L 286.678507 32.541291 
L 284.194116 32.462796 
L 283.599765 32.4 
L 282.827107 32.996561 
L 281.792935 33.734413 
L 281.103487 34.268178 
L 279.665155 35.084525 
L 278.012857 36.638724 
L 277.703794 37.203887 
L 277.620585 38.114428 
L 277.668133 38.39701 
L 277.204539 40.767555 
L 277.323409 41.850785 
L 277.644359 42.478744 
L 277.715681 42.824122 
L 277.953422 43.091004 
L 278.333807 44.519611 
L 278.500226 44.864989 
L 278.916272 45.351657 
L 279.439302 46.120907 
L 279.558172 47.7693 
L 280.176298 48.883927 
L 281.947466 49.967157 
L 282.339739 51.223075 
L 283.469007 51.803937 
L 284.122794 52.84007 
L 284.657711 53.562223 
L 284.919226 54.425667 
L 285.359046 55.242013 
L 287.439277 57.612559 
L 288.366466 58.428906 
L 289.127237 59.779018 
L 289.87612 61.44311 
L 290.565568 62.840319 
L 290.969728 63.876452 
L 291.671063 65.28936 
L 291.730498 65.791727 
L 292.194092 66.874956 
L 292.467494 68.115176 
L 293.347135 69.669375 
L 293.691859 70.077548 
L 294.131679 70.407227 
L 294.595274 70.611313 
L 294.880563 71.003788 
L 295.914735 74.66165 
L 296.045492 76.278644 
L 295.950396 78.64919 
L 295.546237 80.328981 
L 293.882052 84.48921 
L 292.871653 85.996312 
L 291.326339 87.676103 
L 290.648778 88.445353 
L 289.959329 89.183205 
L 289.091576 89.999551 
L 288.140613 90.627511 
L 286.773603 91.647944 
L 285.775092 91.961924 
L 282.886542 93.076551 
L 281.923692 93.720209 
L 273.769185 97.158286 
L 272.818222 97.770546 
L 271.189698 99.214852 
L 270.50025 100.125392 
L 269.703818 101.554 
L 268.824177 103.70476 
L 268.443792 104.740892 
L 267.766231 108.14757 
L 267.219427 109.68607 
L 265.757322 111.83683 
L 264.128798 113.705009 
L 262.785563 114.709743 
L 261.466101 115.431896 
L 258.636987 116.45233 
L 255.700888 117.535559 
L 254.999553 117.786743 
L 253.703866 118.210615 
L 252.717242 118.587391 
L 251.231362 119.05836 
L 248.140733 120.612559 
L 246.749949 121.460304 
L 245.002555 122.465039 
L 242.220988 124.851283 
L 240.176418 127.551508 
L 237.965429 131.115176 
L 236.015955 134.867231 
L 234.946122 137.112185 
L 233.341372 140.42467 
L 232.74702 141.743384 
L 232.509279 142.512634 
L 231.368123 145.118664 
L 229.620729 150.001047 
L 227.041242 155.574184 
L 226.090279 157.442362 
L 224.045709 160.519362 
L 222.607377 162.309046 
L 221.216594 163.62776 
L 219.90902 164.271418 
L 218.494462 164.867979 
L 215.986297 165.857015 
L 215.225527 166.186693 
L 213.656438 167.065836 
L 212.229994 168.463045 
L 210.886758 170.315525 
L 209.424653 173.219836 
L 209.032381 174.412958 
L 208.545012 176.720708 
L 208.449916 177.223075 
L 208.616334 178.133616 
L 208.865962 179.044156 
L 209.079929 181.4461 
L 209.23446 183.518365 
L 209.460314 184.381809 
L 209.507862 186.768054 
L 208.67577 190.017742 
L 208.164627 191.210865 
L 206.821392 193.550012 
L 205.656462 194.680339 
L 203.754536 196.156043 
L 201.519773 197.396262 
L 200.545036 198.071318 
L 198.857077 198.919063 
L 197.870453 199.437129 
L 196.883829 199.813905 
L 194.458873 200.740145 
L 192.54506 201.525093 
L 191.712968 202.027461 
L 189.799155 202.624022 
L 188.955175 203.157787 
L 187.504956 204.052629 
L 186.744186 204.554996 
L 184.877921 205.858011 
L 183.915071 206.878445 
L 182.15579 208.605333 
L 180.919538 209.861251 
L 180.158767 210.708996 
L 178.42326 212.624271 
L 177.484184 213.660404 
L 176.69964 214.508149 
L 175.071116 216.7845 
L 174.45299 218.087516 
L 171.386134 223.173985 
L 170.137995 225.08926 
L 169.912141 225.984102 
L 168.640229 231.557239 
L 168.652116 234.995315 
L 169.044388 236.29833 
L 169.329677 237.726937 
L 169.614966 238.527585 
L 169.710062 238.998555 
L 170.577816 240.364366 
L 171.005749 241.52609 
L 171.207829 242.326738 
L 171.778406 243.504161 
L 172.360871 246.377075 
L 172.836353 247.177722 
L 172.943336 247.601595 
L 173.335608 247.994069 
L 173.763542 249.422676 
L 174.357893 254.477747 
L 174.762053 255.686569 
L 174.69073 258.496686 
L 174.500538 259.642711 
L 174.239023 260.74164 
L 174.262797 262.468527 
L 173.359382 264.854772 
L 172.598612 266.283379 
L 172.135017 267.4922 
L 171.48123 269.0307 
L 170.28064 271.071567 
L 167.867571 274.289858 
L 166.762077 275.63997 
L 165.299971 277.209868 
L 164.384669 278.340194 
L 162.114245 281.464291 
L 158.072653 285.106454 
L 156.765078 286.048393 
L 154.482767 287.508398 
L 152.996888 288.261949 
L 151.273267 289.376576 
L 149.930032 290.177224 
L 149.145488 290.867979 
L 147.481302 292.84605 
L 147.041482 292.940244 
L 146.672984 292.877448 
L 145.983536 292.532071 
L 145.603151 292.406479 
L 144.533317 292.422178 
L 142.025152 293.285622 
L 140.598708 293.897882 
L 139.790389 293.913581 
L 138.886975 293.992076 
L 138.042995 294.243259 
L 136.771082 294.274657 
L 135.867667 294.007775 
L 134.298578 292.940244 
L 133.906306 292.532071 
L 133.656678 292.092499 
L 133.537808 291.62153 
L 133.573469 291.181959 
L 133.977628 290.522602 
L 134.381788 289.910341 
L 134.381788 289.109693 
L 134.25103 288.481734 
L 134.476884 288.104959 
L 134.809721 287.853775 
L 135.237654 287.272913 
L 135.748797 286.817643 
L 138.74433 284.274408 
L 139.291134 282.892898 
L 139.647745 281.432893 
L 140.242097 279.235036 
L 140.598708 278.858261 
L 144.533317 276.079541 
L 145.769569 275.420184 
L 146.00731 274.603838 
L 146.245051 272.971144 
L 146.114293 270.710491 
L 146.042971 270.239522 
L 144.735397 267.790481 
L 144.105384 267.19392 
L 143.594241 266.707251 
L 142.964228 266.393272 
L 142.643278 266.393272 
L 142.251006 266.72295 
L 142.262893 267.445103 
L 142.001378 268.198654 
L 140.693804 271.165761 
L 139.635858 272.374583 
L 137.686384 273.787491 
L 136.188617 275.404485 
L 135.618039 277.005781 
L 134.940478 278.418689 
L 134.619528 278.842562 
L 133.989515 279.156541 
L 133.632904 279.392026 
L 133.062326 280.161276 
L 132.681941 280.86773 
L 132.063815 281.574184 
L 131.671543 281.668378 
L 127.784482 279.658909 
L 127.011825 279.454822 
L 125.90633 278.811164 
L 125.133673 278.214603 
L 125.133673 278.214603 
L 124.051952 277.02148 
L 123.588358 276.738899 
L 123.624019 276.990082 
L 122.637395 276.974383 
L 122.292671 277.476751 
L 122.019269 277.319761 
L 121.781528 277.508149 
L 121.781528 277.508149 
L 121.056419 277.256965 
L 120.224326 276.785996 
L 116.15896 275.216098 
L 112.438317 274.305557 
L 111.071308 274.132868 
L 109.930152 273.6462 
L 107.980678 271.259955 
L 105.983656 269.485971 
L 104.28381 268.355644 
L 102.369997 267.617792 
L 99.196158 266.72295 
L 98.661241 266.471767 
L 94.583987 263.614553 
L 92.444321 262.342935 
L 92.361111 262.499925 
L 91.267504 262.609818 
L 91.267504 262.609818 
L 90.375976 262.562721 
L 90.090687 262.798206 
L 90.233332 263.049389 
L 89.971817 263.096486 
L 89.520109 262.861002 
L 88.331406 262.374333 
L 87.5112 261.997558 
L 82.851482 259.077548 
L 81.817309 258.575181 
L 81.068426 258.11991 
L 80.236333 257.476252 
L 80.283882 257.617543 
L 79.36858 257.35066 
L 78.631583 257.334961 
L 78.358182 257.115176 
L 78.358182 257.115176 
" clip-path="url(#p8f13a41574)" style="fill: none; stroke: #000000; stroke-width: 3"/>
   </g>
  </g>
 </g>
 <defs>
  <clipPath id="p8f13a41574">
   <rect x="7.2" y="7.2" width="346.559435" height="554.4"/>
  </clipPath>
 </defs>
</svg>
