<?xml version="1.0" encoding="utf-8" standalone="no"?>
<!DOCTYPE svg PUBLIC "-//W3C//DTD SVG 1.1//EN"
  "http://www.w3.org/Graphics/SVG/1.1/DTD/svg11.dtd">
<svg xmlns:xlink="http://www.w3.org/1999/xlink" width="555.842868pt" height="568.8pt" viewBox="0 0 555.842868 568.8" xmlns="http://www.w3.org/2000/svg" version="1.1">
 <metadata>
  <rdf:RDF xmlns:dc="http://purl.org/dc/elements/1.1/" xmlns:cc="http://creativecommons.org/ns#" xmlns:rdf="http://www.w3.org/1999/02/22-rdf-syntax-ns#">
   <cc:Work>
    <dc:type rdf:resource="http://purl.org/dc/dcmitype/StillImage"/>
    <dc:date>2023-03-03T05:07:11.968528</dc:date>
    <dc:format>image/svg+xml</dc:format>
    <dc:creator>
     <cc:Agent>
      <dc:title>Matplotlib v3.7.0, https://matplotlib.org/</dc:title>
     </cc:Agent>
    </dc:creator>
   </cc:Work>
  </rdf:RDF>
 </metadata>
 <defs>
  <style type="text/css">*{stroke-linejoin: round; stroke-linecap: butt}</style>
 </defs>
 <g id="figure_1">
  <g id="patch_1">
   <path d="M 0 568.8 
L 555.842868 568.8 
L 555.842868 0 
L 0 0 
z
" style="fill: #ffffff"/>
  </g>
  <g id="axes_1">
   <g id="LineCollection_1">
    <path d="M 33.392356 373.152229 
L 32.098552 372.788296 
L 31.823019 373.35793 
L 31.870938 374.05415 
L 32.577738 373.911742 
L 32.553779 374.40226 
L 36.075803 375.54153 
L 36.638847 375.49406 
L 37.393567 376.126987 
L 38.00453 375.937109 
L 40.304627 376.918146 
L 40.903611 377.028909 
L 41.526554 377.487781 
L 43.083911 378.168178 
L 44.006346 378.405526 
L 44.60533 379.244154 
L 45.132435 379.244154 
L 46.773651 379.924551 
L 49.325321 381.285345 
L 49.768569 381.854979 
L 50.379532 382.392967 
L 51.409784 382.899309 
L 52.511914 383.041718 
L 54.524499 383.642999 
L 55.626629 383.247419 
L 56.764698 382.10815 
L 57.315762 381.585985 
L 57.854848 380.921412 
L 58.657486 379.560618 
L 59.148652 378.911867 
L 59.268449 378.184001 
L 60.777888 377.23461 
L 62.586818 378.263117 
L 63.664989 378.816928 
L 64.815038 379.212508 
L 65.989045 379.877082 
L 67.390667 380.114429 
L 68.624573 380.446716 
L 70.062134 380.968881 
L 71.439796 381.127113 
L 72.577865 381.696747 
L 76.626995 382.883486 
L 80.137039 384.624036 
L 82.233481 385.684189 
L 83.203835 386.459525 
L 86.186773 388.342484 
L 87.468598 389.181113 
L 88.846261 389.76657 
L 90.319761 390.795077 
L 91.481789 392.108401 
L 93.781886 393.453372 
L 95.027772 394.323647 
L 96.249698 394.73505 
L 97.363808 395.43127 
L 99.723804 396.459776 
L 100.95771 396.77624 
L 102.071819 397.47246 
L 104.407856 398.295266 
L 107.858001 399.640236 
L 112.170683 401.380786 
L 113.129057 401.887128 
L 115.297378 402.820696 
L 119.825694 404.577069 
L 120.796048 405.194173 
L 121.730462 405.937863 
L 124.773299 407.947407 
L 125.731673 408.738566 
L 126.618169 409.65631 
L 127.480705 410.732287 
L 128.103648 411.934849 
L 129.1339 414.387442 
L 131.374099 424.055406 
L 131.841306 425.447846 
L 133.746074 428.84983 
L 135.315411 430.590381 
L 137.363935 432.72651 
L 138.27439 433.612608 
L 138.693679 434.356298 
L 139.72393 435.384805 
L 141.305247 436.096848 
L 143.737121 438.945021 
L 144.743413 440.321638 
L 146.192954 442.884993 
L 150.409798 448.628808 
L 152.853652 451.445335 
L 154.411009 453.090946 
L 156.627248 455.527716 
L 158.352321 457.157503 
L 159.694045 458.201833 
L 160.412825 458.739822 
L 162.43739 459.720859 
L 164.60571 460.496195 
L 165.588044 460.891774 
L 166.618295 461.176592 
L 167.600629 461.777873 
L 168.28347 462.75891 
L 169.169966 463.265252 
L 170.068441 463.518423 
L 170.559608 463.945649 
L 171.326307 464.182996 
L 171.793514 464.483637 
L 172.500315 465.24315 
L 174.980107 465.290619 
L 175.878582 464.84757 
L 176.645281 464.088057 
L 177.220306 463.281075 
L 177.483859 462.458269 
L 178.058883 461.841165 
L 178.945379 460.527841 
L 179.963651 459.325279 
L 179.879793 458.708175 
L 179.939691 458.217657 
L 179.831874 457.679668 
L 180.251163 456.746101 
L 181.041821 456.002411 
L 181.592886 455.068843 
L 182.359585 454.578325 
L 182.91065 453.850458 
L 183.353898 452.996007 
L 184.527906 451.445335 
L 184.575825 450.812407 
L 184.923235 450.195303 
L 185.713894 449.435791 
L 186.648308 448.992741 
L 187.199373 448.359814 
L 188.04993 448.264875 
L 188.900487 448.581339 
L 189.415612 449.056034 
L 190.661498 449.720608 
L 192.733982 450.796584 
L 194.602811 451.508627 
L 195.7289 451.61939 
L 196.866969 451.57192 
L 198.807676 452.31561 
L 200.604627 453.122592 
L 201.323407 453.723873 
L 201.94635 453.834635 
L 202.784927 454.467562 
L 204.653756 455.432777 
L 206.35487 456.429637 
L 211.649885 459.467688 
L 213.758307 460.163908 
L 215.794852 461.081653 
L 216.657388 461.762049 
L 219.616367 462.679794 
L 220.538802 462.75891 
L 221.35342 463.249429 
L 222.779001 464.673515 
L 223.210269 464.989979 
L 223.617578 465.14821 
L 224.324378 465.021625 
L 225.138996 466.255833 
L 226.205187 467.521688 
L 227.94224 468.486902 
L 228.720918 468.835012 
L 229.212085 469.198945 
L 231.440304 470.179982 
L 232.626292 471.066081 
L 233.381011 471.477483 
L 237.07075 472.964862 
L 238.041104 473.676906 
L 239.095315 474.199071 
L 241.766782 476.351023 
L 243.336119 477.205475 
L 244.546066 477.616878 
L 244.617944 477.632701 
L 246.343017 478.81944 
L 247.145655 479.436544 
L 248.667073 479.626422 
L 249.769203 480.385935 
L 251.158845 480.923923 
L 252.392751 481.477735 
L 255.555385 482.363833 
L 256.489799 483.060053 
L 257.448173 483.598041 
L 258.358628 483.961974 
L 259.376901 484.499962 
L 260.13162 484.674017 
L 261.113953 485.037951 
L 261.772835 485.148713 
L 262.719229 485.43353 
L 264.564099 486.319628 
L 265.534452 486.636092 
L 266.265212 487.237373 
L 268.589269 487.759538 
L 268.972618 488.091825 
L 269.535663 488.946277 
L 270.134647 488.788045 
L 271.021142 488.645636 
L 271.799821 488.977923 
L 275.537479 492.553962 
L 276.939101 492.965365 
L 277.897474 493.028658 
L 278.831889 493.408414 
L 280.784576 494.816677 
L 281.802848 495.449604 
L 284.474315 496.509758 
L 285.432688 496.747105 
L 286.546798 497.26927 
L 287.756745 498.487655 
L 290.50009 500.006681 
L 291.398565 500.79784 
L 292.380899 501.161773 
L 295.220081 503.408665 
L 297.172768 504.785282 
L 297.687894 504.769459 
L 298.634288 506.842296 
L 298.778044 507.285345 
L 299.197332 507.965742 
L 299.64058 508.440437 
L 304.42047 511.130378 
L 305.414782 511.779128 
L 307.559144 512.823458 
L 308.505538 513.313977 
L 309.703505 513.757026 
L 311.787968 514.247545 
L 313.237509 515.291875 
L 314.66309 515.545046 
L 315.813138 516.193796 
L 317.741866 517.712822 
L 321.132113 518.64639 
L 323.096779 520.023006 
L 324.246828 520.181238 
L 325.360937 520.497702 
L 326.487027 521.415446 
L 327.708953 522.032551 
L 328.703266 522.744594 
L 329.66164 523.757277 
L 331.686204 524.754138 
L 332.393005 525.21301 
L 332.668538 526.099108 
L 334.836858 526.684566 
L 336.753606 526.589627 
L 337.915634 526.985207 
L 341.018369 529.279568 
L 343.090853 530.48213 
L 344.109125 530.798593 
L 345.151357 531.352405 
L 346.13369 531.747984 
L 346.86445 532.285973 
L 348.218153 532.507497 
L 350.027083 532.665729 
L 350.913579 532.729022 
L 352.842306 533.773352 
L 353.872558 534.279694 
L 354.90281 534.153108 
L 355.813265 533.789175 
L 356.448188 533.187894 
L 356.088798 533.108778 
L 355.873164 533.361949 
L 357.502399 536.4 
L 357.81387 535.988597 
L 358.987878 533.741705 
L 359.790516 532.254326 
L 360.113968 531.558106 
L 360.569195 529.991611 
L 361.874979 527.808012 
L 362.21041 527.206731 
L 362.821374 526.447218 
L 363.168784 525.719352 
L 363.420357 524.690845 
L 363.899544 523.86804 
L 364.139138 522.950295 
L 364.762081 522.222429 
L 365.444922 520.466056 
L 365.948068 519.833128 
L 366.223601 519.010323 
L 367.864816 516.842547 
L 368.45182 516.257089 
L 368.907047 515.46593 
L 369.661767 513.488032 
L 370.763897 511.905714 
L 371.506636 509.943639 
L 371.674352 509.041718 
L 371.135266 508.10815 
L 370.452425 507.506869 
L 367.253852 506.589125 
L 365.792332 505.987844 
L 365.109491 505.02263 
L 364.378731 504.706166 
L 363.659951 504.199824 
L 363.252642 503.740952 
L 362.102593 503.092201 
L 361.683305 502.807384 
L 360.916606 502.475097 
L 360.221785 502.316866 
L 359.491025 501.715585 
L 356.280472 500.291498 
L 354.90281 499.484516 
L 352.363119 498.693357 
L 351.081294 497.759789 
L 350.554189 497.31674 
L 349.643734 497.126862 
L 348.960892 496.731282 
L 348.122315 496.57305 
L 347.331657 496.288233 
L 346.648816 495.829361 
L 345.474808 494.310335 
L 344.839885 494.057164 
L 344.624251 493.582469 
L 344.552373 492.933718 
L 344.935722 492.237498 
L 346.552978 490.164662 
L 346.888409 488.360819 
L 347.271759 487.585483 
L 348.098356 484.911365 
L 349.05673 483.202461 
L 349.883327 482.569534 
L 350.194799 481.90496 
L 350.901599 481.20874 
L 351.668298 480.686575 
L 352.33916 480.085294 
L 352.530835 479.278312 
L 354.016314 475.844682 
L 354.591339 475.243401 
L 355.405956 473.629436 
L 355.310119 472.933216 
L 355.945042 472.062941 
L 357.430521 470.448977 
L 358.077423 469.784403 
L 358.592549 469.040713 
L 359.742598 466.63559 
L 360.545236 464.49946 
L 361.000463 463.565892 
L 361.755183 462.790556 
L 362.929191 461.192415 
L 363.420357 460.337963 
L 363.731829 459.23034 
L 363.69589 457.110034 
L 363.480256 455.986588 
L 363.528174 455.037197 
L 362.977109 451.840914 
L 362.629699 450.764938 
L 362.330207 447.584478 
L 361.863 445.717343 
L 361.659345 443.612859 
L 361.50361 442.568529 
L 361.50361 441.745724 
L 360.700972 436.033555 
L 360.413459 434.957579 
L 360.125947 431.365716 
L 360.137927 430.479618 
L 360.40148 429.419465 
L 360.173866 428.881477 
L 360.161886 428.106141 
L 359.850415 426.555469 
L 360.365541 424.450986 
L 360.581175 421.602813 
L 360.964524 421.080648 
L 361.180158 420.368605 
L 361.551528 419.688208 
L 361.898939 418.707171 
L 362.294268 418.074243 
L 362.785435 417.615371 
L 363.815686 417.203968 
L 364.486548 417.029913 
L 364.821979 416.697627 
L 365.121471 416.36534 
L 365.5168 415.858998 
L 365.289186 415.27354 
L 364.845938 414.593143 
L 360.257724 410.637348 
L 359.550923 410.305061 
L 358.340976 409.260731 
L 357.658135 407.836644 
L 360.257724 403.406153 
L 361.000463 401.855482 
L 365.349085 394.323647 
L 366.403296 392.440688 
L 367.169995 391.586236 
L 368.547657 388.564009 
L 370.6441 384.624036 
L 371.135266 383.50059 
L 372.285315 381.633455 
L 374.333839 377.598543 
L 374.66927 376.649152 
L 376.87353 373.484516 
L 377.304798 372.725003 
L 377.915761 371.949667 
L 378.670481 370.304056 
L 379.173627 369.686952 
L 380.191899 369.338842 
L 380.958598 369.702775 
L 381.96489 371.126862 
L 382.204484 371.680673 
L 382.671691 372.218661 
L 386.36143 372.993997 
L 387.451581 372.993997 
L 388.050564 373.183875 
L 388.984979 374.10162 
L 389.619901 374.465553 
L 393.872685 375.636469 
L 397.250953 377.535251 
L 398.640595 378.405526 
L 399.323436 378.880221 
L 399.886481 379.117569 
L 400.509424 379.623911 
L 399.92242 380.320131 
L 395.837351 383.025895 
L 394.902937 383.54806 
L 394.076339 384.19681 
L 390.494417 386.396233 
L 389.6798 387.124099 
L 388.757365 387.472209 
L 386.085898 388.927942 
L 379.41322 393.579957 
L 377.388656 395.826849 
L 376.933428 396.728771 
L 376.082871 397.187643 
L 375.304192 397.994625 
L 373.722876 399.402888 
L 369.985218 403.08969 
L 369.266437 403.849203 
L 366.714767 408.153108 
L 365.397003 410.289238 
L 364.750101 411.618385 
L 363.288581 411.191159 
L 362.318227 410.827226 
L 361.635386 410.320884 
L 359.706659 409.244908 
L 359.131634 408.833505 
L 358.293057 408.089815 
L 358.317017 407.409419 
L 359.862394 404.846063 
L 360.233764 404.070727 
L 361.419752 402.330177 
L 362.881272 399.387065 
L 363.791727 397.409167 
L 364.187056 396.412307 
L 364.833959 395.478739 
L 365.373044 394.450232 
L 366.487153 392.567274 
L 370.380547 384.813914 
L 370.871714 383.785408 
L 371.542575 382.836017 
L 371.913945 381.902449 
L 373.028055 379.956197 
L 373.483282 378.959337 
L 373.734855 378.009946 
L 375.783379 374.544669 
L 377.256879 372.677534 
L 378.790277 369.971769 
L 379.353322 369.87683 
L 379.173627 369.813538 
L 379.017891 369.702775 
L 379.305403 369.323019 
L 380.347635 367.962225 
L 380.8987 365.74698 
L 381.365907 365.082406 
L 381.677378 364.417832 
L 382.288342 363.61085 
L 382.408138 362.898807 
L 384.52854 358.499962 
L 384.576459 357.518925 
L 385.391077 355.810021 
L 385.822345 354.971393 
L 386.457268 354.290996 
L 389.847515 349.33834 
L 389.751678 349.100992 
L 389.811576 348.199071 
L 390.063149 347.471204 
L 390.674112 346.90157 
L 392.327307 343.958458 
L 393.645071 340.967876 
L 394.43573 340.303303 
L 394.711262 338.610222 
L 394.06436 337.834886 
L 393.201823 337.201959 
L 392.411165 336.774733 
L 391.788222 336.252568 
L 390.865787 335.71458 
L 390.01523 335.382293 
L 388.290158 334.448725 
L 386.684881 333.768329 
L 385.774426 333.467688 
L 383.270675 332.170187 
L 382.623772 331.695492 
L 379.544997 330.176466 
L 378.586623 330.018234 
L 377.125103 328.720733 
L 376.262566 328.40427 
L 375.172416 328.182745 
L 374.405717 328.198568 
L 373.830693 327.929574 
L 371.255063 326.109908 
L 370.452425 325.57192 
L 369.673746 325.382042 
L 368.895068 324.986462 
L 368.116389 324.780761 
L 365.15741 322.881979 
L 364.270914 321.853472 
L 363.851625 321.711064 
L 363.360459 321.79018 
L 362.509902 320.872435 
L 358.999858 318.530604 
L 357.538338 317.707799 
L 355.561692 316.758408 
L 355.370017 316.8217 
L 355.178342 317.153987 
L 355.513773 317.201457 
L 356.124737 317.059048 
L 356.699761 317.407158 
L 357.442501 317.992616 
L 358.18524 318.309079 
L 359.011838 318.878714 
L 359.598842 318.942007 
L 360.161886 319.195178 
L 361.180158 320.017983 
L 362.797414 320.761673 
L 363.252642 320.856612 
L 364.05528 321.489539 
L 365.385024 321.948411 
L 365.52878 321.204722 
L 364.282894 323.261736 
L 364.294873 324.22695 
L 363.923504 324.701645 
L 363.384418 325.097225 
L 362.857313 325.856737 
L 361.551528 329.385307 
L 361.12026 330.572046 
L 360.952545 331.094211 
L 360.509297 331.616376 
L 360.066049 331.663845 
L 359.718638 331.394851 
L 358.436813 330.698631 
L 357.586257 330.160643 
L 356.867476 329.923295 
L 354.004335 328.325154 
L 351.284949 327.565641 
L 348.769218 325.951677 
L 348.122315 325.508627 
L 347.379576 325.207987 
L 346.780592 324.764938 
L 346.025873 324.559236 
L 342.647605 322.565516 
L 339.580809 321.410423 
L 338.45472 320.888258 
L 337.915634 320.619264 
L 336.62183 320.176215 
L 335.16031 319.195178 
L 335.016553 318.530604 
L 335.807212 315.47673 
L 336.777565 313.73618 
L 339.568829 308.451237 
L 339.832382 307.486023 
L 340.25167 306.821449 
L 340.694918 305.68218 
L 342.048621 303.609343 
L 345.331052 298.02376 
L 346.181608 295.998393 
L 347.343637 294.289489 
L 348.601502 291.504609 
L 348.865055 290.539395 
L 349.188506 289.827352 
L 349.320283 289.178601 
L 350.1349 287.501344 
L 349.847388 286.852593 
L 349.092669 286.346251 
L 348.218153 285.998141 
L 347.607189 285.412684 
L 345.606584 284.779756 
L 344.971661 284.09936 
L 342.09654 282.137285 
L 341.521516 281.630943 
L 340.754817 281.235364 
L 338.05939 280.254326 
L 336.418175 279.415698 
L 335.555639 279.083411 
L 334.573306 278.893533 
L 333.555033 278.497953 
L 331.961737 277.421977 
L 330.176766 276.298531 
L 326.72662 274.383926 
L 325.98388 273.845937 
L 322.677491 272.91237 
L 322.030588 272.453497 
L 321.467544 271.773101 
L 319.05963 270.712947 
L 318.137195 270.111666 
L 316.915268 269.098983 
L 316.244406 268.640111 
L 315.465728 268.592641 
L 314.890703 267.975537 
L 314.65111 267.864775 
L 314.447456 266.883737 
L 314.854764 266.171694 
L 315.38187 265.55459 
L 316.759532 262.785533 
L 317.454353 261.994374 
L 317.93354 261.124099 
L 318.544504 260.317117 
L 318.772117 259.304433 
L 319.119528 258.560743 
L 319.898207 257.911993 
L 320.736784 257.516413 
L 324.031194 259.557604 
L 325.013527 259.810775 
L 325.61251 260.127238 
L 326.966213 260.554464 
L 327.732913 260.950044 
L 328.248038 261.393093 
L 329.002758 261.883612 
L 330.488237 262.37413 
L 331.758083 262.896295 
L 332.369046 263.339344 
L 333.507115 263.924802 
L 337.460407 266.424865 
L 339.18548 267.500841 
L 340.107914 267.912244 
L 341.090247 268.212885 
L 349.188506 272.675022 
L 350.075002 272.928193 
L 351.021396 273.323772 
L 351.883933 273.845937 
L 354.938749 275.190908 
L 355.202302 275.64978 
L 357.789911 277.865026 
L 358.340976 278.244782 
L 358.987878 278.513776 
L 360.916606 279.684692 
L 363.240662 280.792314 
L 364.941776 281.504358 
L 365.696495 281.91576 
L 366.055885 282.65945 
L 367.445527 283.640487 
L 369.709685 284.763933 
L 372.369173 286.551953 
L 376.070892 288.27668 
L 379.592915 290.270401 
L 381.174232 291.251438 
L 383.282654 292.438177 
L 384.19311 292.548939 
L 385.403057 293.118573 
L 385.450975 292.833756 
L 385.127524 291.472962 
L 385.343158 290.729273 
L 387.966706 286.615246 
L 389.140714 284.09936 
L 390.02721 282.770212 
L 391.081421 281.124601 
L 392.291368 278.687831 
L 392.542941 277.959965 
L 392.97421 277.295391 
L 395.190449 272.326912 
L 395.945168 272.089564 
L 396.867603 272.247796 
L 397.586384 272.801607 
L 400.257851 274.320633 
L 401.719371 275.412433 
L 403.180891 276.947281 
L 404.618451 277.770087 
L 405.696622 278.13402 
L 410.188999 280.681552 
L 411.039556 280.966369 
L 411.806255 281.504358 
L 412.596913 281.91576 
L 413.579247 282.184754 
L 416.130917 283.529725 
L 420.635274 286.061434 
L 421.653546 286.409544 
L 422.288469 286.425367 
L 422.995269 285.523446 
L 423.306741 284.779756 
L 424.43283 283.925305 
L 425.546939 282.485395 
L 426.205821 281.710059 
L 426.61313 280.887254 
L 426.9845 279.257466 
L 427.799118 277.327038 
L 427.595463 276.662464 
L 427.176175 276.108653 
L 426.505313 275.665603 
L 425.115671 274.921914 
L 424.408871 274.526334 
L 423.474456 274.225694 
L 410.009304 267.010323 
L 407.625349 265.60206 
L 402.150639 262.453246 
L 401.599574 262.105136 
L 401.348001 261.582971 
L 401.73135 260.506995 
L 402.210537 259.969007 
L 402.47409 259.272787 
L 402.665765 258.402512 
L 403.001196 257.642999 
L 403.468403 257.041718 
L 404.223122 255.680924 
L 406.211748 252.753636 
L 406.85865 252.468818 
L 407.541492 252.532111 
L 409.865548 253.623911 
L 410.548389 254.272661 
L 411.219251 254.731533 
L 411.758336 255.285345 
L 415.26838 256.899309 
L 416.047059 257.057541 
L 418.634668 258.576567 
L 419.473245 259.177848 
L 421.86918 260.427879 
L 425.89435 261.915258 
L 428.769471 262.975411 
L 429.476272 263.608339 
L 430.015357 264.731785 
L 431.237284 265.696999 
L 432.363373 266.345749 
L 433.549361 266.662213 
L 433.729056 266.64639 
L 435.537986 267.516665 
L 436.065092 267.833128 
L 436.903669 268.117945 
L 437.430775 268.624287 
L 438.664681 269.067336 
L 439.407421 269.178099 
L 440.234018 269.542032 
L 441.815335 270.538892 
L 442.665892 271.662338 
L 443.995635 272.580083 
L 444.654517 272.880723 
L 445.445176 273.070602 
L 446.068119 272.833254 
L 446.595224 271.51993 
L 447.13431 270.934472 
L 447.505679 270.190782 
L 447.948927 269.73191 
L 448.308317 269.114806 
L 448.835423 268.719226 
L 449.961512 266.931207 
L 450.572476 265.871054 
L 451.351154 264.984955 
L 451.914199 264.779254 
L 452.525162 264.85837 
L 452.98039 265.048248 
L 453.579373 265.50712 
L 454.05856 265.981816 
L 455.963328 267.041969 
L 461.01875 269.763556 
L 463.762095 271.409167 
L 464.361079 271.709808 
L 465.618944 271.377521 
L 466.972647 271.440814 
L 467.439855 271.061057 
L 468.098737 270.095843 
L 468.925334 269.447093 
L 469.680053 267.94389 
L 470.207159 267.105262 
L 470.638427 266.124225 
L 471.728577 264.209619 
L 472.651012 263.022881 
L 471.980151 262.817179 
L 471.584821 263.244405 
L 469.105029 267.912244 
L 468.577924 269.067336 
L 468.266452 269.652794 
L 467.97894 270.364837 
L 468.278432 270.77624 
L 469.356602 271.693985 
L 470.15924 272.944016 
L 470.770204 273.545297 
L 471.321269 274.178224 
L 471.896293 274.368102 
L 472.35152 274.083285 
L 473.09426 273.181364 
L 474.459943 272.390205 
L 474.675577 272.200327 
L 474.459943 272.105387 
L 474.052634 272.231973 
L 473.10624 272.975662 
L 471.572842 274.478865 
L 472.710911 273.972523 
L 474.56776 272.295266 
L 475.28654 271.013588 
L 477.275166 269.43127 
L 477.347044 269.494562 
L 477.50278 269.462916 
L 475.65791 271.155996 
L 471.321269 275.016853 
L 471.836394 274.700389 
L 472.914565 273.90923 
L 473.369793 273.323772 
L 473.681264 272.706668 
L 479.946633 266.820445 
L 482.701958 264.431144 
L 486.703168 260.823458 
L 489.446513 258.465804 
L 494.118586 254.478362 
L 494.765488 253.877082 
L 494.597772 253.766319 
L 493.974829 254.3676 
L 471.548882 273.735175 
L 473.369793 272.295266 
L 474.256288 271.788924 
L 474.495882 272.231973 
L 473.369793 272.928193 
L 471.584821 274.399749 
L 468.470106 271.203466 
L 468.170615 270.697124 
L 468.182594 270.048374 
L 469.464419 268.355293 
L 470.279037 266.155871 
L 470.878021 265.095718 
L 471.213452 264.731785 
L 471.63274 264.85837 
L 471.776496 265.333065 
L 471.524923 265.886877 
L 470.638427 266.9945 
L 469.79985 268.418586 
L 469.236806 269.462916 
L 468.793558 269.763556 
L 467.763306 270.950295 
L 466.685135 271.029411 
L 466.229908 270.82371 
L 465.127778 269.700264 
L 463.857933 269.304684 
L 463.079254 268.956574 
L 462.46829 268.893281 
L 461.222405 268.545171 
L 458.059771 267.769835 
L 457.448808 267.706543 
L 456.861804 267.801482 
L 455.328406 267.59578 
L 454.05856 267.485018 
L 453.267902 267.864775 
L 452.465264 267.722366 
L 452.213691 267.564134 
L 452.010036 266.852091 
L 451.363134 263.671631 
L 450.608415 263.307698 
L 449.889634 263.41846 
L 448.511972 262.880472 
L 448.188521 262.864649 
L 445.30142 260.522818 
L 444.223249 259.93736 
L 442.222644 258.798091 
L 443.181018 256.709431 
L 444.223249 253.71885 
L 445.876444 249.952932 
L 446.523346 248.354791 
L 446.942635 247.769333 
L 447.709334 246.281954 
L 447.84111 245.063569 
L 448.2005 243.861007 
L 450.39278 239.889388 
L 451.602727 237.357679 
L 452.549122 235.838654 
L 452.908512 235.047495 
L 454.573686 232.104383 
L 455.304446 230.727766 
L 455.999267 229.541027 
L 456.238861 228.939746 
L 456.706068 228.370112 
L 457.388909 228.116941 
L 458.047791 228.180234 
L 458.610836 228.51252 
L 459.712966 229.398619 
L 461.246364 230.474595 
L 461.905246 230.727766 
L 465.678843 232.990481 
L 471.812435 236.360819 
L 472.72289 236.693106 
L 476.149077 238.465302 
L 477.598617 239.224815 
L 479.790897 240.601432 
L 481.50399 241.582469 
L 482.426425 241.772347 
L 483.265002 241.645762 
L 483.935864 241.218536 
L 484.930177 239.968504 
L 486.140124 238.117192 
L 487.098497 236.756398 
L 487.829257 235.205726 
L 490.452806 230.680296 
L 490.943972 229.968253 
L 491.830468 228.243526 
L 494.010769 224.699133 
L 494.166504 224.256084 
L 495.148837 223.275047 
L 495.124878 223.148462 
L 496.227008 223.085169 
L 498.491166 224.509255 
L 499.006292 224.873188 
L 501.018877 225.949165 
L 502.180905 226.629562 
L 502.73197 227.040964 
L 504.660697 228.022002 
L 507.595717 229.683436 
L 508.889522 230.268894 
L 510.111449 231.154992 
L 513.274082 232.325907 
L 513.825147 232.626548 
L 514.004842 232.674017 
L 515.035094 232.547432 
L 515.17885 232.468316 
L 515.106972 232.120206 
L 514.81946 231.661334 
L 513.72931 230.822705 
L 512.279769 230.015723 
L 511.572969 229.55685 
L 496.310866 220.490167 
L 496.562439 219.888886 
L 499.06619 216.186261 
L 499.329743 215.315986 
L 502.648112 208.606957 
L 506.661303 202.119452 
L 507.032673 201.913751 
L 507.775412 202.277684 
L 508.122823 202.657441 
L 509.129115 203.195429 
L 509.752058 203.258722 
L 511.033883 204.113173 
L 511.704745 203.875826 
L 512.507383 204.334698 
L 512.675098 204.271405 
L 515.370525 205.521437 
L 517.694581 206.502474 
L 518.149809 206.818938 
L 518.640975 206.9297 
L 518.796711 207.119578 
L 519.407674 207.309456 
L 519.467573 207.799975 
L 519.299857 208.606957 
L 519.108183 208.591134 
L 518.652955 208.781012 
L 518.161789 206.961346 
L 518.08991 206.58159 
L 518.209707 206.866407 
L 517.73052 206.787291 
L 517.826358 206.58159 
L 517.454988 206.518297 
L 517.502907 207.056285 
L 517.395089 207.325279 
L 517.610724 207.293633 
L 517.586764 207.420219 
L 517.287272 207.530981 
L 517.323211 206.913877 
L 518.353463 208.654427 
L 517.922195 208.527841 
L 518.077931 208.100615 
L 517.550825 207.467688 
L 517.335191 206.597413 
L 517.227374 204.619515 
L 516.808085 205.125857 
L 516.65235 205.252443 
L 515.717935 205.632199 
L 514.963216 205.632199 
L 514.388192 205.648022 
L 507.11653 201.581464 
L 506.253994 201.644757 
L 505.882624 201.961221 
L 505.595112 202.70491 
L 504.840393 204.065704 
L 503.702324 206.739822 
L 503.414812 207.341103 
L 502.947604 207.863268 
L 502.827808 208.527841 
L 502.025169 209.777873 
L 501.941312 210.505739 
L 502.085068 211.138666 
L 502.540295 211.534246 
L 503.354913 211.771594 
L 504.049734 212.214643 
L 505.068006 213.258973 
L 505.607092 213.24315 
L 506.098258 213.306442 
L 506.601404 213.781138 
L 507.4879 214.319126 
L 508.003026 214.762175 
L 509.189014 215.727389 
L 509.847896 215.838151 
L 511.369314 216.945774 
L 512.962611 217.626171 
L 517.311232 219.619892 
L 517.970114 219.825593 
L 518.545138 220.110411 
L 519.072244 220.490167 
L 519.791024 221.471204 
L 520.282191 222.088308 
L 520.497825 222.816175 
L 520.797316 223.211754 
L 521.276503 223.449102 
L 521.863507 223.385809 
L 522.809901 223.765566 
L 523.193251 223.654803 
L 523.21721 223.464925 
L 524.031828 223.559864 
L 523.97193 223.512395 
L 523.935991 223.369986 
L 523.636499 223.164285 
L 523.396905 222.626297 
L 523.313048 222.626297 
L 522.929698 222.309833 
L 522.630206 222.341479 
L 522.462491 222.483888 
L 520.797316 221.24968 
L 519.216 220.442697 
L 518.245646 219.762301 
L 517.610724 219.081904 
L 517.203415 218.892026 
L 516.460675 218.670501 
L 513.897025 217.07236 
L 511.908399 217.499586 
L 511.560989 216.945774 
L 509.596323 215.743212 
L 507.967087 215.221047 
L 505.175823 213.828607 
L 501.426186 211.75577 
L 501.114714 211.233605 
L 500.887101 212.119704 
L 500.647507 212.135527 
L 500.491771 212.008941 
L 499.928727 212.246289 
L 498.970353 213.19568 
L 498.587003 213.971016 
L 493.771175 220.142057 
L 493.064374 219.983825 
L 490.620521 218.4648 
L 488.919408 217.958458 
L 487.314132 217.151476 
L 485.732815 216.312847 
L 480.186226 213.353912 
L 477.095471 211.423484 
L 464.061587 204.477107 
L 462.612047 203.717594 
L 460.539563 202.467562 
L 459.030124 201.644757 
L 451.602727 197.340851 
L 447.098371 194.856612 
L 445.181623 193.875575 
L 443.8399 192.862891 
L 442.330461 192.119201 
L 441.000717 191.375512 
L 438.820417 190.220419 
L 439.143868 190.188773 
L 439.778791 190.141304 
L 440.976758 188.337461 
L 442.34244 185.093708 
L 443.899798 179.429009 
L 442.905485 178.68532 
L 441.719498 177.862514 
L 438.580823 176.818184 
L 437.538592 176.59666 
L 431.596674 173.305438 
L 426.385517 169.53952 
L 424.408871 168.574306 
L 423.749989 168.368605 
L 420.479538 166.707171 
L 420.060249 166.264122 
L 419.820656 165.741957 
L 419.964412 165.203968 
L 421.893139 161.675399 
L 424.78024 157.05503 
L 425.774553 156.232224 
L 426.325618 156.469572 
L 426.924602 156.849328 
L 427.463687 157.40314 
L 428.134549 157.925305 
L 445.265481 167.561623 
L 447.325984 168.54266 
L 448.452074 169.223057 
L 449.566183 169.571167 
L 449.949533 169.412935 
L 450.081309 169.460404 
L 450.093289 169.381288 
L 453.016329 168.732538 
L 453.974703 167.624915 
L 454.825259 167.79897 
L 455.735714 168.400251 
L 456.095105 168.732538 
L 456.358657 169.19141 
L 456.658149 168.89077 
L 456.526373 168.574306 
L 454.046581 168.067964 
L 453.866886 168.004672 
L 453.279882 167.973025 
L 452.848613 168.099611 
L 451.950138 169.571167 
L 451.566788 169.998393 
L 450.488618 170.805375 
L 449.985472 171.343363 
L 448.991159 173.099736 
L 446.571265 177.909984 
L 446.427509 178.321386 
L 445.912383 179.049253 
L 445.481115 179.38154 
L 444.93005 179.349893 
L 443.049241 178.63785 
L 441.767416 177.656813 
L 440.976758 177.356172 
L 439.527217 177.182117 
L 436.065092 175.489037 
L 432.003983 173.163029 
L 431.177386 172.830742 
L 430.398707 172.356047 
L 429.691906 171.786412 
L 427.415768 170.488911 
L 423.678111 168.352782 
L 420.108168 166.343237 
L 419.593042 165.583725 
L 419.389388 164.887505 
L 419.449286 164.064699 
L 419.628981 163.226071 
L 420.599335 160.83677 
L 421.186339 160.330428 
L 424.109379 155.678413 
L 424.840139 154.270149 
L 426.074045 151.975788 
L 426.325618 151.105513 
L 426.708968 150.266884 
L 428.182467 148.067462 
L 428.46998 147.149717 
L 430.758097 142.640111 
L 432.351394 140.124225 
L 432.938397 139.348889 
L 440.341835 126.184001 
L 442.71381 122.418084 
L 443.288835 121.864272 
L 443.935737 121.437046 
L 444.007615 120.582594 
L 444.726395 118.557227 
L 445.061826 118.019239 
L 445.325379 117.370489 
L 445.385277 116.199573 
L 445.672789 115.883109 
L 445.744668 114.917895 
L 445.744668 114.917895 
L 447.733293 112.797589 
L 447.889029 112.148838 
L 448.476033 110.788045 
L 449.386488 109.680422 
L 450.740191 107.306945 
L 451.614707 105.582218 
L 451.902219 104.806882 
L 453.112166 102.86063 
L 454.154398 100.708678 
L 455.028914 99.553585 
L 456.64617 96.705413 
L 462.432351 86.19882 
L 462.516209 85.391837 
L 462.420372 84.727264 
L 461.677632 83.192415 
L 461.210425 82.860128 
L 449.769838 77.163782 
L 448.056744 76.182745 
L 445.576952 74.948537 
L 444.93005 74.632073 
L 444.307107 74.552957 
L 444.139391 74.31561 
L 443.528428 73.92003 
L 443.228936 74.600427 
L 443.192997 75.043476 
L 443.264875 75.628934 
L 442.989343 76.467562 
L 442.605993 77.132136 
L 442.138786 77.670124 
L 441.851274 78.287228 
L 440.269957 80.486651 
L 439.994425 81.119578 
L 439.682953 82.258847 
L 439.024071 83.129122 
L 438.832396 83.682934 
L 439.000112 83.983574 
L 439.383461 84.205099 
L 439.706913 84.01522 
L 440.078282 83.587994 
L 440.353815 83.097476 
L 440.797063 82.749366 
L 441.132494 81.57845 
L 441.815335 80.296773 
L 444.055534 76.00869 
L 443.899798 75.075122 
L 443.660204 74.61625 
L 443.216957 74.078262 
L 442.605993 73.666859 
L 442.090867 73.160517 
L 440.054323 72.100364 
L 438.832396 71.372498 
L 437.047425 70.264875 
L 435.7656 69.489539 
L 434.30408 68.587618 
L 432.926418 67.843928 
L 430.889873 66.641366 
L 430.111195 66.530604 
L 429.428353 66.198317 
L 427.906935 65.059048 
L 426.852724 64.615999 
L 425.822472 63.951425 
L 425.019834 63.666608 
L 424.8042 63.524199 
L 424.828159 63.223559 
L 424.504708 62.622278 
L 424.600545 62.479869 
L 435.801539 48.049127 
L 436.412503 47.606078 
L 437.083364 47.273791 
L 437.886002 46.387693 
L 438.496966 44.947783 
L 438.484986 44.441442 
L 437.897982 43.602813 
L 437.742246 43.602813 
L 437.838084 43.492051 
L 437.670368 42.748361 
L 436.304685 42.685068 
L 435.04682 42.49519 
L 434.088446 41.957202 
L 432.207637 40.707171 
L 425.199529 37.352656 
L 423.498415 36.403265 
L 419.401367 34.172196 
L 417.760152 33.14369 
L 417.161169 32.637348 
L 416.681982 32.4 
L 416.430409 32.779756 
L 416.813758 33.412684 
L 417.137209 33.650031 
L 418.93416 34.219666 
L 420.347762 35.042471 
L 423.71405 36.703906 
L 425.007854 37.368479 
L 427.36785 38.855858 
L 427.894955 39.140676 
L 428.326224 39.71031 
L 432.48317 41.529976 
L 433.393625 41.735678 
L 433.333727 42.067964 
L 433.21393 42.257843 
L 432.878499 42.574306 
L 431.824288 44.314856 
L 431.548755 45.454125 
L 431.165406 45.691473 
L 430.350788 46.02376 
L 429.572109 47.036444 
L 429.152821 48.128243 
L 428.278305 49.55233 
L 427.894955 50.786538 
L 427.044399 52.479618 
L 426.780846 53.080899 
L 426.720947 53.998644 
L 426.409476 55.406907 
L 426.505313 56.498707 
L 426.289679 57.005048 
L 426.2777 57.796207 
L 426.133943 58.239257 
L 425.582878 58.840537 
L 424.947956 59.141178 
L 424.588566 59.584227 
L 423.833846 59.900691 
L 422.95933 61.514655 
L 422.468164 62.115936 
L 422.096794 62.796333 
L 421.49781 63.492553 
L 420.886847 64.426121 
L 419.652941 65.676152 
L 419.257611 66.673013 
L 418.778424 67.385056 
L 416.909596 72.733291 
L 415.891323 74.094085 
L 415.26838 74.837775 
L 414.525641 75.549818 
L 413.878738 76.499209 
L 412.884426 79.110034 
L 411.303109 81.610097 
L 410.296816 83.398116 
L 409.601995 86.088057 
L 408.907174 87.575436 
L 407.781085 90.122969 
L 406.810731 91.784403 
L 406.247687 92.623032 
L 405.337232 94.442697 
L 404.834086 95.344619 
L 404.103325 97.243401 
L 403.288708 98.952304 
L 402.270436 100.518799 
L 401.38394 102.259349 
L 400.042216 104.759412 
L 397.298871 110.234233 
L 395.969128 113.303931 
L 393.956543 117.212257 
L 391.644466 120.693357 
L 391.021523 121.832626 
L 390.829848 122.338968 
L 390.051169 123.351651 
L 389.008938 124.807384 
L 388.2063 126.27894 
L 387.775032 126.927691 
L 387.415642 127.67138 
L 386.876556 128.383423 
L 385.798386 130.788547 
L 384.840012 132.24428 
L 384.001435 133.731659 
L 383.019102 135.298154 
L 381.581541 137.529223 
L 380.742964 139.396358 
L 380.287736 140.329926 
L 378.802257 142.402763 
L 377.867842 143.399623 
L 376.837591 144.649655 
L 376.298505 145.330051 
L 375.088558 147.529474 
L 374.777087 149.618134 
L 373.435364 152.846063 
L 372.536888 154.412558 
L 372.309274 155.187894 
L 371.446738 156.564511 
L 370.668059 158.320884 
L 369.997198 160.108904 
L 369.18258 160.805124 
L 368.966946 161.738691 
L 368.487759 162.466558 
L 368.09243 163.305186 
L 366.702788 165.077383 
L 366.127763 165.916012 
L 365.13345 168.558483 
L 364.666243 170.662966 
L 364.41467 171.738943 
L 363.911524 172.593394 
L 361.156199 176.027025 
L 360.353561 177.435288 
L 359.982191 176.94477 
L 359.574882 177.277056 
L 359.371228 175.362451 
L 359.610821 174.428884 
L 360.605134 173.004797 
L 360.784829 172.419339 
L 362.114573 169.9351 
L 362.569801 168.49519 
L 362.390105 167.340098 
L 362.713557 166.564762 
L 362.785435 165.979304 
L 362.569801 165.536255 
L 362.665638 164.998267 
L 363.492235 164.998267 
L 364.163097 165.140676 
L 365.984007 165.931835 
L 367.193954 165.805249 
L 368.260145 166.185006 
L 371.770189 167.957202 
L 372.596786 168.162903 
L 373.794754 169.064825 
L 374.465615 169.349642 
L 375.160436 169.523697 
L 376.562058 170.330679 
L 377.005306 170.536381 
L 377.280838 170.884491 
L 377.772005 170.900314 
L 379.101749 171.454125 
L 378.275151 171.121839 
L 377.400635 170.963607 
L 375.783379 169.53952 
L 375.100538 169.349642 
L 372.644705 168.020495 
L 371.961864 167.672385 
L 371.231104 167.561623 
L 369.88938 167.055281 
L 369.18258 166.817933 
L 368.954966 166.074243 
L 368.367962 165.836896 
L 367.673141 165.884365 
L 367.181974 166.169182 
L 366.367357 166.928695 
L 365.780353 168.099611 
L 365.792332 169.223057 
L 365.229288 172.150345 
L 364.642284 172.957328 
L 363.084926 174.333944 
L 362.797414 175.283335 
L 360.497317 178.194801 
L 359.982191 178.843551 
L 359.419147 179.239131 
L 358.93996 180.046113 
L 358.616509 180.868919 
L 358.18524 181.359437 
L 356.627883 184.223433 
L 356.184635 185.821575 
L 355.202302 187.293131 
L 353.728802 189.951425 
L 352.770428 190.995755 
L 352.482916 191.644506 
L 351.416725 192.847068 
L 351.009416 192.356549 
L 350.626067 192.103378 
L 349.943226 192.055909 
L 348.900994 191.549567 
L 348.134295 190.853347 
L 346.085771 189.888133 
L 345.870137 189.619139 
L 345.462828 189.666608 
L 345.510747 189.698254 
L 346.888409 191.011579 
L 348.218153 191.9135 
L 348.481706 192.103378 
L 348.757238 192.578074 
L 350.242717 193.685696 
L 350.626067 194.239508 
L 350.578148 194.777496 
L 349.631754 195.916765 
L 348.254092 198.147834 
L 347.882722 199.018109 
L 347.427494 199.761798 
L 346.301405 201.201708 
L 344.911763 203.970765 
L 344.264861 204.682808 
L 343.462223 206.091071 
L 341.821008 209.382293 
L 341.042329 210.569032 
L 340.563142 211.075374 
L 340.179792 212.008941 
L 339.89228 212.341228 
L 339.341215 212.736808 
L 337.831777 215.553334 
L 337.903655 216.455256 
L 337.891675 216.993244 
L 337.568224 217.040713 
L 337.424468 216.945774 
L 337.568224 215.98056 
L 337.244773 214.414065 
L 336.717667 213.14821 
L 336.358277 212.720985 
L 334.76498 211.929825 
L 334.333712 211.581715 
L 332.656558 210.964611 
L 331.542448 210.695617 
L 332.524782 211.866533 
L 333.890464 212.325405 
L 334.453509 212.341228 
L 335.639496 213.116564 
L 336.993199 213.733668 
L 337.508325 213.971016 
L 337.807817 214.28748 
L 338.43076 213.749491 
L 337.807817 217.467939 
L 337.316651 218.860379 
L 336.561931 219.968002 
L 336.046805 220.442697 
L 335.280106 221.629436 
L 334.489448 222.483888 
L 333.614932 223.544041 
L 333.339399 224.271908 
L 332.548741 225.585232 
L 331.973717 227.12008 
L 328.679307 233.82911 
L 328.236059 234.430391 
L 326.774539 237.373502 
L 326.558905 238.243777 
L 326.127636 238.908351 
L 325.816165 239.731157 
L 323.959316 242.500213 
L 323.408251 244.098355 
L 321.120133 246.804119 
L 317.20278 254.937235 
L 317.322577 255.364461 
L 317.837703 255.775863 
L 318.29293 256.741077 
L 318.6643 256.80437 
L 318.784097 256.709431 
L 319.095569 256.883486 
L 320.12582 257.168303 
L 323.80358 259.399372 
L 324.438503 259.905714 
L 325.971901 260.538641 
L 326.822457 260.807635 
L 328.331896 261.551325 
L 329.985091 262.833003 
L 330.631993 262.975411 
L 331.230977 263.450107 
L 332.093513 263.988095 
L 337.041118 265.823584 
L 337.819797 266.266633 
L 337.831777 266.852091 
L 337.676041 267.041969 
L 337.32863 266.693859 
L 336.789545 266.440688 
L 336.286399 265.886877 
L 335.591578 265.459651 
L 334.77696 265.143187 
L 333.255542 264.146327 
L 332.560721 263.513399 
L 331.051282 262.611478 
L 330.248644 262.136783 
L 329.434026 261.804496 
L 325.492714 259.462665 
L 322.413938 257.737938 
L 320.221658 256.424614 
L 319.646634 256.329675 
L 318.460646 255.06382 
L 317.430394 255.237875 
L 316.747553 256.693608 
L 316.148569 257.437298 
L 315.453748 258.703152 
L 315.094358 259.715836 
L 314.100045 261.044983 
L 312.961976 262.120959 
L 310.63792 265.95017 
L 309.787363 267.374256 
L 309.080562 268.956574 
L 308.852948 269.652794 
L 308.265945 270.364837 
L 307.882595 271.12435 
L 307.774778 271.662338 
L 307.271632 272.200327 
L 305.965847 274.65292 
L 305.774173 275.902951 
L 305.941888 276.931458 
L 306.468994 277.216275 
L 306.61275 276.504232 
L 307.187774 276.409293 
L 307.619042 276.567525 
L 307.71488 276.709933 
L 308.038331 276.836519 
L 308.912847 278.023258 
L 310.470204 278.260605 
L 312.794261 279.542283 
L 312.8302 279.399874 
L 312.686444 278.577069 
L 312.063501 277.849203 
L 310.170712 276.599171 
L 309.643607 276.567525 
L 309.272237 276.140299 
L 309.51183 275.602311 
L 308.589396 273.466181 
L 307.882595 273.482004 
L 307.31955 273.719352 
L 307.067977 274.209871 
L 307.163815 275.380786 
L 306.864323 276.456763 
L 305.642396 278.893533 
L 304.947575 279.763808 
L 303.941283 281.488534 
L 303.126665 283.023383 
L 302.443824 283.988597 
L 301.928698 284.937988 
L 300.515096 286.710185 
L 299.688499 288.419088 
L 299.365048 289.226071 
L 298.442613 290.286224 
L 297.220686 292.279945 
L 296.106577 293.704031 
L 295.447695 294.178727 
L 294.88465 294.321135 
L 291.769935 292.454 
L 291.075114 292.264122 
L 289.793289 291.678664 
L 288.619281 290.840035 
L 287.349436 290.31787 
L 286.690554 290.302047 
L 285.37279 289.858998 
L 284.306599 288.957076 
L 283.947209 288.260856 
L 283.491982 288.102625 
L 281.898685 287.248173 
L 281.299701 286.425367 
L 277.478186 284.542409 
L 275.034333 283.529725 
L 273.920223 282.422102 
L 273.117585 282.358809 
L 272.374845 282.168931 
L 272.039415 281.678413 
L 271.164898 281.646766 
L 270.350281 281.156248 
L 268.91272 280.586613 
L 268.16998 280.317619 
L 266.097497 279.225819 
L 265.306838 279.083411 
L 264.671916 279.289112 
L 264.15679 279.320759 
L 263.449989 279.083411 
L 262.33588 277.548562 
L 261.042075 277.026397 
L 259.233144 276.235238 
L 257.508072 276.346 
L 257.004925 276.504232 
L 256.597616 277.327038 
L 256.633556 278.102373 
L 255.974674 279.510637 
L 255.172035 280.9189 
L 254.429296 282.469572 
L 254.321479 283.561371 
L 253.866251 284.115183 
L 251.218743 287.912746 
L 251.051028 288.545674 
L 250.200471 290.143815 
L 249.984837 290.966621 
L 249.421793 291.741957 
L 248.235805 293.023634 
L 246.642509 295.966746 
L 245.971647 296.599673 
L 245.85185 297.311717 
L 245.324745 298.166169 
L 244.701802 298.941504 
L 244.090838 300.302298 
L 243.431956 301.15675 
L 242.773074 302.865654 
L 242.078253 303.435288 
L 241.443331 304.115685 
L 240.904245 305.698003 
L 239.850034 307.580962 
L 238.124961 311.030416 
L 237.609835 312.011453 
L 237.466079 312.169685 
L 236.603543 313.926058 
L 235.848824 314.464046 
L 235.094104 315.223559 
L 233.476848 318.040085 
L 232.782027 319.464172 
L 232.362739 319.95469 
L 231.823654 321.457893 
L 230.434011 323.799724 
L 229.715231 324.337712 
L 228.265691 326.837775 
L 227.223459 329.591008 
L 226.768232 330.334698 
L 226.145289 332.265126 
L 223.749354 336.442446 
L 221.784688 339.005802 
L 220.754436 340.777998 
L 220.514843 341.822328 
L 219.903879 342.866658 
L 219.616367 343.626171 
L 219.484591 344.528092 
L 219.13718 345.192666 
L 218.166827 345.904709 
L 217.543884 346.616752 
L 216.010486 349.211754 
L 215.615156 350.271908 
L 215.351604 351.300414 
L 214.273433 353.499837 
L 212.440543 356.031546 
L 210.140446 360.398744 
L 209.313849 362.645636 
L 207.253345 366.379907 
L 206.678321 367.281828 
L 203.922996 373.373754 
L 203.647464 374.228205 
L 201.239549 377.471958 
L 200.424932 378.880221 
L 199.981684 380.478362 
L 199.514476 381.095467 
L 197.54981 384.89303 
L 196.507579 386.522818 
L 195.800778 387.361447 
L 194.135603 389.956449 
L 193.704335 390.90584 
L 192.614185 392.678036 
L 190.385966 395.684441 
L 189.295816 397.51993 
L 188.816629 398.485144 
L 187.163434 401.095969 
L 186.792064 402.092829 
L 185.773792 404.213136 
L 184.707601 406.238503 
L 182.479382 410.09936 
L 182.024154 411.127866 
L 180.850147 413.121587 
L 180.335021 414.22921 
L 179.041216 416.191285 
L 178.478171 417.219792 
L 178.094822 418.422353 
L 177.040611 420.336958 
L 176.549444 421.492051 
L 175.531172 423.501595 
L 175.016046 424.498455 
L 174.620717 425.637724 
L 173.985794 426.650408 
L 173.542546 427.758031 
L 171.5659 430.843551 
L 170.559608 434.387944 
L 168.079815 439.087429 
L 167.229259 439.846942 
L 166.426621 440.78051 
L 165.767739 441.745724 
L 164.785406 443.850207 
L 164.366117 444.831245 
L 163.922869 445.543288 
L 163.587438 446.682557 
L 163.048353 446.951551 
L 162.149878 446.666734 
L 161.371199 446.112922 
L 160.436784 445.30594 
L 158.244504 444.166671 
L 152.122892 441.540023 
L 149.571221 440.543162 
L 148.325335 440.115936 
L 147.04351 439.815296 
L 143.77306 437.900691 
L 141.772454 436.350019 
L 140.861999 435.416451 
L 139.795808 434.751877 
L 137.064443 433.42273 
L 136.405561 431.935351 
L 135.003939 429.530227 
L 133.686175 427.441567 
L 132.608005 425.115559 
L 131.817346 422.694613 
L 130.044355 414.197564 
L 129.074001 411.697501 
L 128.427099 410.510762 
L 127.64842 409.434786 
L 125.83949 407.646766 
L 123.850864 406.096094 
L 122.724775 405.52646 
L 120.424678 404.213136 
L 113.428549 401.175085 
L 104.060445 397.741454 
L 102.958315 397.424991 
L 101.66451 396.760417 
L 99.280556 395.905965 
L 97.052337 394.893281 
L 94.7163 393.896421 
L 91.517728 392.171694 
L 88.247277 389.908979 
L 87.588395 389.101997 
L 85.288298 386.791812 
L 84.174188 386.016476 
L 83.01216 385.431018 
L 78.735417 382.820193 
L 76.579076 381.854979 
L 74.386796 381.142936 
L 73.48832 380.604948 
L 70.253809 379.592264 
L 68.349041 378.927691 
L 67.534423 378.405526 
L 65.354123 377.503604 
L 64.144176 376.791561 
L 63.928542 376.791561 
L 63.61707 376.918146 
L 63.101944 376.285219 
L 62.227428 376.047871 
L 60.837786 375.952932 
L 60.035148 376.301042 
L 59.5919 377.171317 
L 59.256469 378.215647 
L 58.058502 381.000527 
L 57.806929 381.902449 
L 57.75901 383.421474 
L 55.830283 385.573427 
L 55.123482 386.000653 
L 54.380743 386.000653 
L 52.032727 384.624036 
L 50.523288 383.911993 
L 49.097707 382.930956 
L 48.558622 382.234736 
L 47.732024 381.854979 
L 46.893447 381.617632 
L 45.527765 380.699887 
L 45.012639 379.987844 
L 44.353757 379.481502 
L 41.957822 378.104885 
L 41.179143 377.551074 
L 39.681684 376.712445 
L 39.034782 376.174457 
L 37.441486 375.367475 
L 36.015905 374.623785 
L 33.955401 373.531985 
L 34.075198 373.531985 
L 34.027279 373.437046 
L 33.811645 373.120583 
L 33.679868 373.278815 
L 33.524133 373.247168 
L 33.524133 373.247168 
" clip-path="url(#pafd22c60a1)" style="fill: none; stroke: #000000; stroke-width: 3"/>
   </g>
  </g>
 </g>
 <defs>
  <clipPath id="pafd22c60a1">
   <rect x="7.2" y="7.2" width="541.442868" height="554.4"/>
  </clipPath>
 </defs>
</svg>
