<?xml version="1.0" encoding="utf-8" standalone="no"?>
<!DOCTYPE svg PUBLIC "-//W3C//DTD SVG 1.1//EN"
  "http://www.w3.org/Graphics/SVG/1.1/DTD/svg11.dtd">
<svg xmlns:xlink="http://www.w3.org/1999/xlink" width="295.97515pt" height="568.8pt" viewBox="0 0 295.97515 568.8" xmlns="http://www.w3.org/2000/svg" version="1.1">
 <metadata>
  <rdf:RDF xmlns:dc="http://purl.org/dc/elements/1.1/" xmlns:cc="http://creativecommons.org/ns#" xmlns:rdf="http://www.w3.org/1999/02/22-rdf-syntax-ns#">
   <cc:Work>
    <dc:type rdf:resource="http://purl.org/dc/dcmitype/StillImage"/>
    <dc:date>2023-03-08T05:02:47.089575</dc:date>
    <dc:format>image/svg+xml</dc:format>
    <dc:creator>
     <cc:Agent>
      <dc:title>Matplotlib v3.7.1, https://matplotlib.org/</dc:title>
     </cc:Agent>
    </dc:creator>
   </cc:Work>
  </rdf:RDF>
 </metadata>
 <defs>
  <style type="text/css">*{stroke-linejoin: round; stroke-linecap: butt}</style>
 </defs>
 <g id="figure_1">
  <g id="patch_1">
   <path d="M -0 568.8 
L 295.97515 568.8 
L 295.97515 0 
L -0 0 
z
" style="fill: #ffffff"/>
  </g>
  <g id="axes_1">
   <g id="LineCollection_1">
    <path d="M 42.673918 536.046467 
L 42.770597 536.036647 
L 42.800344 536.223234 
L 42.830092 536.154491 
L 43.596091 536.233054 
L 43.581217 536.311617 
L 43.380421 536.4 
L 42.740849 535.908983 
L 41.840987 534.219882 
L 41.179105 533.149464 
L 40.108194 532.354016 
L 38.345653 531.470184 
L 36.545928 530.291742 
L 35.720435 529.584677 
L 34.894941 530.164078 
L 34.091758 530.311383 
L 32.641566 529.437372 
L 31.9425 528.857971 
L 31.146754 528.042882 
L 29.205728 525.774381 
L 28.588467 524.497736 
L 28.045575 524.537017 
L 27.428314 524.694143 
L 26.833363 524.6254 
L 26.186355 525.018214 
L 25.55422 525.126238 
L 24.557678 524.645041 
L 22.281993 522.887198 
L 21.248266 521.718577 
L 20.430209 521.502529 
L 20.184792 521.296302 
L 19.99887 520.343728 
L 20.378151 519.450076 
L 21.322635 517.58421 
L 21.939896 516.356666 
L 22.564594 514.991637 
L 22.564594 514.255111 
L 22.802574 513.518585 
L 24.141213 511.397389 
L 26.342529 508.176314 
L 28.075322 505.298952 
L 29.123922 502.834044 
L 28.856195 501.969853 
L 28.982621 501.125303 
L 29.317281 500.231651 
L 31.347549 496.254409 
L 32.106111 494.506387 
L 32.366402 493.45561 
L 33.214206 491.737048 
L 34.262806 490.303277 
L 34.991621 488.663279 
L 35.296533 487.83837 
L 36.464123 485.677893 
L 36.932646 485.078851 
L 37.505286 484.597654 
L 38.814177 483.978972 
L 39.238079 483.694182 
L 39.528117 483.301368 
L 40.160252 481.847956 
L 41.179105 480.463287 
L 43.187062 478.764366 
L 43.402732 478.626881 
L 43.610964 478.243888 
L 43.707644 476.61371 
L 43.856381 475.995027 
L 44.748807 474.168442 
L 45.447874 473.117665 
L 46.072572 472.351678 
L 46.221309 471.801738 
L 46.169251 471.624972 
L 46.169251 471.624972 
L 47.381463 471.241978 
L 48.467247 470.348326 
L 48.972955 470.18138 
L 49.72408 469.415393 
L 50.348778 468.443178 
L 51.174271 466.79336 
L 51.642795 466.272881 
L 51.858464 465.997911 
L 52.6319 465.575636 
L 53.58382 465.241744 
L 53.985412 464.947134 
L 54.535741 464.308811 
L 54.818343 464.00438 
L 54.818343 463.395518 
L 55.048886 462.442945 
L 55.32405 461.971568 
L 56.01568 459.437917 
L 56.811426 458.495164 
L 57.592299 457.797919 
L 58.678083 456.020436 
L 60.262139 452.475289 
L 61.162001 451.0808 
L 62.04699 450.059483 
L 63.497181 448.223078 
L 64.47885 444.982362 
L 64.38217 444.373501 
L 64.002889 443.735178 
L 64.107006 443.028113 
L 64.649898 441.564881 
L 65.824925 439.29638 
L 66.159585 438.45183 
L 66.747098 436.065485 
L 67.007389 435.279857 
L 68.978162 431.803453 
L 69.350006 429.77064 
L 71.633128 426.814715 
L 72.852777 425.538069 
L 73.08332 424.880106 
L 73.477474 424.320346 
L 73.79726 423.652562 
L 74.288094 422.012564 
L 74.808676 420.716278 
L 75.173083 419.518195 
L 77.062051 414.824068 
L 77.106672 414.33305 
L 77.590069 413.586704 
L 78.527116 410.562036 
L 79.003076 409.992455 
L 79.575716 408.745271 
L 79.902939 408.254254 
L 80.616879 407.576649 
L 81.955518 405.042999 
L 83.279282 403.894018 
L 84.335319 402.705756 
L 84.967454 402.568271 
L 85.324424 402.214738 
L 87.205955 398.983843 
L 87.994264 396.734983 
L 88.499972 395.968996 
L 89.556009 395.212829 
L 90.031969 394.662889 
L 90.359192 394.044207 
L 90.805405 392.44349 
L 91.10288 391.932832 
L 91.638335 391.451635 
L 92.404334 390.980258 
L 93.690914 390.440139 
L 94.687456 389.762535 
L 96.055842 387.729722 
L 96.234327 387.189603 
L 96.003784 386.413795 
L 95.9666 385.795113 
L 96.449997 384.685414 
L 97.513471 382.927571 
L 98.309217 381.837512 
L 99.119837 380.354639 
L 99.104963 379.82434 
L 99.238827 379.549371 
L 100.019699 378.056677 
L 100.73364 377.143385 
L 102.087152 376.072967 
L 103.329111 374.599914 
L 103.738139 372.920634 
L 104.630565 371.378839 
L 105.366816 370.288781 
L 106.504658 367.941717 
L 106.69058 367.067706 
L 106.839318 366.547227 
L 106.839318 365.300043 
L 106.519532 363.876092 
L 105.872524 362.393219 
L 105.389126 361.803998 
L 104.347963 360.871065 
L 103.039072 360.114898 
L 101.78224 359.191785 
L 100.897251 358.150828 
L 100.294864 356.893823 
L 99.997388 355.420771 
L 99.982515 353.888796 
L 100.071757 353.191551 
L 100.510533 351.944367 
L 100.837756 351.384607 
L 102.310258 349.78389 
L 104.563633 347.849281 
L 105.411437 346.798504 
L 106.036135 345.639702 
L 108.244888 340.405456 
L 109.159625 338.372643 
L 109.717391 336.840669 
L 113.376336 330.300316 
L 115.733827 327.236366 
L 117.615357 325.429422 
L 119.719994 324.074214 
L 121.32636 323.524274 
L 123.155833 323.278765 
L 124.397792 323.268945 
L 125.706683 323.583196 
L 127.342796 324.25098 
L 131.113294 326.293613 
L 132.273448 326.823912 
L 133.597212 327.128343 
L 134.288842 327.236366 
L 135.657228 327.04978 
L 136.980993 326.440918 
L 139.963182 324.408106 
L 141.08615 323.465352 
L 141.621606 322.944874 
L 142.714827 321.108468 
L 143.28003 319.782721 
L 144.960765 315.776018 
L 145.644958 314.450271 
L 146.492762 313.212907 
L 148.456098 311.3274 
L 149.467514 310.600694 
L 150.895395 309.883808 
L 153.379313 308.420576 
L 154.353544 307.644768 
L 155.417018 306.888601 
L 156.74822 305.513752 
L 157.603461 304.61028 
L 158.176101 303.520221 
L 158.890041 301.556151 
L 159.834525 299.611722 
L 160.221243 297.922622 
L 160.236116 297.097712 
L 160.689766 295.467534 
L 160.853377 294.681906 
L 160.875688 293.876638 
L 160.176621 290.341312 
L 159.447807 288.632571 
L 159.023905 287.856763 
L 158.406644 286.108741 
L 158.079421 284.242874 
L 158.057111 282.524313 
L 158.39177 280.903955 
L 159.135458 279.401442 
L 162.058152 275.473302 
L 163.835566 273.784202 
L 166.326921 271.937976 
L 167.665559 271.407677 
L 168.282821 271.21127 
L 171.019592 268.216063 
L 171.733533 266.664448 
L 172.276425 264.936066 
L 172.328483 263.885289 
L 172.00126 261.076669 
L 172.261551 259.495593 
L 174.07615 253.947095 
L 174.180266 252.866856 
L 174.247198 251.904462 
L 174.79009 250.068057 
L 175.608147 247.829017 
L 175.965118 246.974646 
L 177.824338 242.201956 
L 178.419288 241.249382 
L 181.089128 237.2525 
L 181.922058 236.280285 
L 185.060422 233.186875 
L 187.269175 230.898733 
L 188.35496 229.356939 
L 189.314317 227.658018 
L 190.199306 225.890355 
L 192.943515 219.104493 
L 196.074441 214.164857 
L 196.795818 213.261385 
L 198.037777 212.033841 
L 199.614396 210.973243 
L 201.436431 210.089412 
L 204.760717 208.989533 
L 207.393372 208.184264 
L 208.055255 208.086061 
L 209.959096 208.331569 
L 211.981927 208.753844 
L 214.40635 209.303784 
L 215.544193 209.411808 
L 216.637414 209.264503 
L 217.797567 208.881509 
L 220.571524 207.329894 
L 222.378686 205.434566 
L 223.308296 203.765107 
L 225.018778 200.445828 
L 226.907745 196.998885 
L 228.476927 194.249187 
L 229.696575 191.872663 
L 233.667869 184.919855 
L 239.966907 173.626453 
L 241.744321 170.346456 
L 242.495446 169.089451 
L 244.637267 164.905982 
L 246.139517 162.087541 
L 247.455845 159.308382 
L 248.184659 157.216648 
L 248.511882 155.714134 
L 248.794483 153.455454 
L 248.853978 149.40947 
L 248.906036 146.836538 
L 249.240696 144.322528 
L 249.508424 142.800374 
L 249.359686 140.404209 
L 249.099395 138.823132 
L 248.593687 137.232236 
L 247.641767 135.11104 
L 246.139517 132.606851 
L 245.968469 131.958708 
L 245.953595 130.505296 
L 246.332876 128.246615 
L 246.808836 126.753922 
L 248.504445 123.100752 
L 250.690888 119.329738 
L 252.0444 117.198722 
L 253.963115 114.655251 
L 262.203178 105.964241 
L 263.043545 104.599213 
L 263.965718 102.497658 
L 264.017777 100.955863 
L 263.757486 98.648081 
L 263.526942 97.184849 
L 263.489758 94.994911 
L 263.55669 92.687128 
L 264.226009 88.955395 
L 265.467968 83.249772 
L 266.405015 81.295522 
L 267.208198 80.136721 
L 268.197303 79.154686 
L 269.35002 78.300316 
L 271.960364 76.778161 
L 274.042691 75.678282 
L 274.637641 75.167624 
L 275.106165 74.529301 
L 275.463135 73.802595 
L 275.916785 72.182238 
L 275.97628 71.337688 
L 275.887037 70.532419 
L 275.64162 69.786072 
L 275.195407 69.118288 
L 274.548399 68.578169 
L 273.7824 68.136253 
L 272.964343 67.851463 
L 272.116539 67.674697 
L 271.261298 67.684517 
L 270.39862 67.812182 
L 268.784817 68.391583 
L 267.342062 69.137929 
L 264.553232 71.249304 
L 262.924555 72.064393 
L 262.061877 72.24116 
L 261.22151 72.221519 
L 260.262152 72.025112 
L 259.377163 71.602837 
L 258.566544 70.964514 
L 258.075709 70.178886 
L 257.941846 69.255773 
L 257.993904 67.399727 
L 258.596291 65.651705 
L 259.049941 64.836616 
L 260.574501 62.666319 
L 261.496674 61.222727 
L 262.560148 59.89698 
L 263.631059 58.698897 
L 264.493737 57.402611 
L 266.620685 53.562854 
L 267.981634 50.302498 
L 268.427846 48.741062 
L 268.598895 47.179627 
L 268.465031 45.618191 
L 268.056002 44.164779 
L 267.758527 43.526456 
L 267.356936 42.966697 
L 264.642474 40.54107 
L 261.615664 38.164545 
L 258.21701 35.925506 
L 256.751945 35.306824 
L 252.899641 34.216765 
L 250.140559 33.941795 
L 247.790504 33.706107 
L 245.499945 32.95976 
L 244.600083 32.655329 
L 243.172202 32.4 
L 242.302087 32.547305 
L 241.075002 33.382035 
L 239.952033 34.295328 
L 239.312461 34.992572 
L 238.762132 35.846943 
L 238.070502 37.486941 
L 237.698658 38.871611 
L 237.706095 40.030412 
L 238.033318 41.552566 
L 238.434909 42.406937 
L 238.992675 43.182744 
L 240.033839 44.105857 
L 241.677389 44.901305 
L 243.194513 45.461065 
L 245.990779 46.521663 
L 246.868331 47.012681 
L 247.552524 47.709926 
L 248.11029 48.515194 
L 248.816794 49.929325 
L 249.054774 50.881899 
L 249.196075 52.178185 
L 249.218385 54.269919 
L 250.266985 58.551592 
L 250.713198 59.985363 
L 250.936305 61.507517 
L 250.787567 63.127875 
L 250.378539 64.620568 
L 249.634851 66.407872 
L 249.196075 67.154218 
L 248.073106 68.479966 
L 246.846021 69.746791 
L 244.986801 71.426071 
L 242.636747 72.82056 
L 240.658537 73.596368 
L 237.274756 74.833732 
L 235.846875 75.61936 
L 235.170119 76.149659 
L 234.225635 77.553969 
L 233.35552 78.968099 
L 232.730822 80.450972 
L 231.957387 82.611449 
L 231.228573 83.966658 
L 230.239468 85.105818 
L 229.109062 86.097674 
L 227.800171 86.814559 
L 224.587439 88.189408 
L 221.478823 89.230365 
L 220.31867 89.701742 
L 219.232885 90.300783 
L 216.704346 92.225572 
L 215.402892 93.600421 
L 214.778194 94.572636 
L 212.584315 98.510596 
L 211.922432 99.993469 
L 210.09296 104.599213 
L 209.535194 107.113222 
L 208.80638 109.028191 
L 207.988323 110.560165 
L 207.021528 112.033218 
L 204.448368 115.038245 
L 202.77507 116.265789 
L 198.751718 118.779798 
L 197.413079 120.115366 
L 197.063546 120.645665 
L 196.72145 121.961592 
L 196.684265 122.639196 
L 196.037257 125.094283 
L 195.858771 127.058353 
L 195.985198 128.983142 
L 196.081878 130.927571 
L 195.918267 132.204217 
L 195.776966 132.842539 
L 194.914288 134.639663 
L 193.940056 136.171638 
L 193.159184 137.06529 
L 191.783361 138.263372 
L 190.630645 138.813312 
L 186.941952 140.217622 
L 185.952847 140.767562 
L 182.732678 142.201333 
L 180.657789 143.546721 
L 178.835753 145.20636 
L 176.537757 147.563244 
L 174.849586 149.920128 
L 174.120771 151.255695 
L 171.703785 156.470301 
L 171.16833 157.953174 
L 170.707243 160.260956 
L 170.506448 162.549098 
L 170.558506 163.953408 
L 171.034466 166.54598 
L 173.629937 174.96202 
L 173.74149 176.464534 
L 173.681995 178.084891 
L 173.414268 179.17495 
L 172.648269 181.1292 
L 171.324504 183.584287 
L 169.457848 186.45183 
L 168.431558 187.777577 
L 165.717097 190.694221 
L 163.909935 192.137812 
L 160.176621 194.710744 
L 158.124042 197.185472 
L 157.692703 197.480083 
L 157.261364 197.499723 
L 156.9862 197.254215 
L 156.911831 196.920323 
L 157.090316 196.105234 
L 157.477034 194.818768 
L 157.871189 193.885835 
L 158.414081 191.489669 
L 158.458702 190.11482 
L 158.302528 187.335661 
L 157.566276 183.761054 
L 156.919268 182.504049 
L 155.81861 181.001535 
L 154.256865 179.773992 
L 153.557798 179.253513 
L 152.732304 178.625011 
L 151.609336 177.849203 
L 149.363398 176.6413 
L 147.273635 175.639624 
L 145.503657 174.736152 
L 144.179892 174.009446 
L 143.302341 173.685375 
L 139.078193 171.426694 
L 138.803028 170.974958 
L 138.877397 170.994599 
" clip-path="url(#p108518ae2c)" style="fill: none; stroke: #000000; stroke-width: 3"/>
   </g>
  </g>
 </g>
 <defs>
  <clipPath id="p108518ae2c">
   <rect x="7.2" y="7.2" width="281.57515" height="554.4"/>
  </clipPath>
 </defs>
</svg>
