<?xml version="1.0" encoding="utf-8" standalone="no"?>
<!DOCTYPE svg PUBLIC "-//W3C//DTD SVG 1.1//EN"
  "http://www.w3.org/Graphics/SVG/1.1/DTD/svg11.dtd">
<svg xmlns:xlink="http://www.w3.org/1999/xlink" width="572.4pt" height="259.537247pt" viewBox="0 0 572.4 259.537247" xmlns="http://www.w3.org/2000/svg" version="1.1">
 <metadata>
  <rdf:RDF xmlns:dc="http://purl.org/dc/elements/1.1/" xmlns:cc="http://creativecommons.org/ns#" xmlns:rdf="http://www.w3.org/1999/02/22-rdf-syntax-ns#">
   <cc:Work>
    <dc:type rdf:resource="http://purl.org/dc/dcmitype/StillImage"/>
    <dc:date>2023-03-11T05:02:40.558716</dc:date>
    <dc:format>image/svg+xml</dc:format>
    <dc:creator>
     <cc:Agent>
      <dc:title>Matplotlib v3.7.1, https://matplotlib.org/</dc:title>
     </cc:Agent>
    </dc:creator>
   </cc:Work>
  </rdf:RDF>
 </metadata>
 <defs>
  <style type="text/css">*{stroke-linejoin: round; stroke-linecap: butt}</style>
 </defs>
 <g id="figure_1">
  <g id="patch_1">
   <path d="M 0 259.537247 
L 572.4 259.537247 
L 572.4 0 
L 0 0 
z
" style="fill: #ffffff"/>
  </g>
  <g id="axes_1">
   <g id="LineCollection_1">
    <path d="M 449.307848 59.68559 
L 447.086289 59.08545 
L 441.027493 55.751338 
L 437.998094 53.750871 
L 435.019186 51.617039 
L 432.141258 50.083348 
L 426.435891 45.08218 
L 423.406493 43.348442 
L 420.579055 41.548021 
L 418.458476 39.547554 
L 416.034958 37.94718 
L 413.409479 36.480171 
L 410.531551 35.746666 
L 407.552643 36.013395 
L 405.179614 36.7469 
L 403.210505 37.480405 
L 401.746296 38.213909 
L 400.130617 40.01433 
L 398.413958 43.148395 
L 396.899259 47.416058 
L 395.03113 51.750404 
L 392.405652 56.284796 
L 390.436543 61.886104 
L 388.972334 68.02087 
L 386.094405 73.622178 
L 382.863047 77.956524 
L 379.985119 82.157505 
L 377.81405 86.425168 
L 375.340042 90.626149 
L 372.714563 94.760448 
L 370.493005 98.494653 
L 367.564586 104.429373 
L 365.242048 112.898017 
L 362.818529 117.098998 
L 359.940601 121.366661 
L 351.508776 134.769791 
L 345.803409 143.438482 
L 343.177931 147.572781 
L 340.855392 152.173856 
L 337.422074 162.176192 
L 335.503456 166.710584 
L 333.231407 171.178294 
L 325.910361 182.847686 
L 320.305975 191.91647 
L 318.690296 195.1839 
L 316.064817 198.184601 
L 313.287869 200.051703 
L 310.460431 201.185301 
L 307.027113 201.518713 
L 302.382035 201.652077 
L 297.989408 200.451797 
L 293.243351 198.718058 
L 287.689454 197.251049 
L 282.741437 195.383947 
L 275.167942 189.582592 
L 271.886094 186.715255 
L 268.402286 184.714788 
L 264.666028 182.98105 
L 260.92977 180.980583 
L 257.496452 178.713387 
L 253.709704 176.446191 
L 250.225896 173.712219 
L 246.237189 171.244976 
L 240.683292 168.044229 
L 236.846054 165.443621 
L 233.059307 163.376472 
L 228.767659 161.776098 
L 224.072092 160.175724 
L 219.729955 157.641799 
L 215.741247 154.97451 
L 203.573164 147.83951 
L 199.634947 145.372267 
L 195.444279 142.504931 
L 191.607041 140.371099 
L 187.971764 138.770726 
L 184.487956 136.770258 
L 181.206108 134.569745 
L 179.842878 131.835773 
L 177.41936 130.302081 
L 175.096821 129.168483 
L 172.824773 128.76839 
L 170.502234 129.501894 
L 168.482635 129.301848 
L 166.463036 128.635025 
L 164.090008 127.301381 
L 161.716979 125.834371 
L 159.646891 123.70054 
L 157.425332 120.633157 
L 154.648384 117.899185 
L 151.618985 115.698671 
L 148.539097 113.764886 
L 142.631771 110.497456 
L 139.602372 108.630354 
L 136.371014 106.829933 
L 129.605358 103.429139 
L 126.8789 101.628719 
L 124.455382 99.494887 
L 121.678433 97.694466 
L 118.295605 96.494186 
L 115.064247 95.093859 
L 112.186319 93.293439 
L 109.257901 91.693065 
L 103.350574 88.759046 
L 97.746187 86.225121 
L 94.31287 85.958392 
L 91.384451 85.091523 
L 88.809463 83.224421 
L 83.861446 78.756711 
L 82.548707 78.023206 
L 82.548707 78.023206 
L 82.397237 77.356384 
L 81.841847 76.089421 
L 80.630088 74.822459 
L 78.963919 73.68886 
L 77.14628 73.022038 
L 74.874231 72.621945 
L 73.006102 71.821758 
L 71.188463 70.488113 
L 69.168865 69.22115 
L 66.997796 68.02087 
L 64.826727 66.687225 
L 62.857618 65.086852 
L 58.818421 62.552927 
L 55.536573 61.285964 
L 53.466484 60.619142 
L 51.143945 59.752273 
L 46.549358 57.618441 
L 44.226819 56.351478 
L 41.904281 55.484609 
L 35.946464 52.884002 
L 33.876376 51.283628 
L 33.220006 50.683488 
L 33.068536 50.283395 
L 33.068536 50.283395 
L 32.614126 49.883301 
L 32.614126 49.883301 
L 32.563636 50.016666 
L 32.563636 50.016666 
L 74.520801 18.342602 
L 76.89383 20.343069 
L 79.418328 21.876761 
L 81.993317 23.810546 
L 84.063406 25.210873 
L 85.982024 25.277555 
L 87.749173 25.744331 
L 90.425142 27.478069 
L 92.596211 29.145125 
L 94.565319 30.145358 
L 98.049127 31.479003 
L 100.826076 33.079377 
L 101.987345 33.279424 
L 102.290285 33.212741 
L 102.189305 32.87933 
L 102.340775 32.212508 
L 102.694205 31.412321 
L 103.804984 30.612134 
L 105.572133 30.545452 
L 107.440262 31.67905 
L 109.055941 33.612835 
L 111.832889 38.480638 
L 113.701018 40.481105 
L 116.427476 42.481573 
L 119.860794 44.348675 
L 123.243622 46.015731 
L 126.62645 48.016198 
L 130.059768 50.216712 
L 133.543576 52.283862 
L 136.825424 54.61774 
L 140.359722 56.284796 
L 143.94451 57.28503 
L 147.226358 58.818721 
L 150.457716 60.485777 
L 153.739564 62.619609 
L 156.869942 64.820123 
L 160.00032 66.82059 
L 163.282168 68.687693 
L 166.816466 70.488113 
L 170.502234 72.221851 
L 174.036532 73.755543 
L 181.004148 77.756477 
L 184.386976 79.423533 
L 187.315394 81.223953 
L 189.940872 83.024374 
L 192.869291 84.424701 
L 196.151139 85.424935 
L 199.584457 86.625215 
L 202.916795 88.358953 
L 208.420201 92.759981 
L 214.529488 96.694233 
L 217.861826 98.761382 
L 221.446614 100.428438 
L 225.283851 101.762083 
L 229.020109 103.495821 
L 232.705877 105.496288 
L 239.320063 109.763952 
L 242.551421 111.964466 
L 245.883759 113.964933 
L 252.750395 118.432643 
L 256.335183 120.233063 
L 259.919971 121.433344 
L 263.201819 123.367128 
L 266.180727 125.967736 
L 269.210125 128.234932 
L 272.592953 130.035352 
L 275.975781 131.969137 
L 279.510079 133.769558 
L 289.911013 139.570913 
L 293.243351 141.57138 
L 299.807047 145.839043 
L 306.370743 149.573248 
L 309.400141 151.10694 
L 315.509428 153.5075 
L 318.286376 153.974276 
L 323.133413 157.108341 
L 325.455952 158.241939 
L 327.52604 159.042126 
L 328.939759 159.908995 
L 330.050539 160.442453 
L 331.363278 160.6425 
L 333.079937 161.042593 
L 335.049046 161.909463 
L 337.422074 163.176425 
L 340.300003 164.51007 
L 346.661739 168.577686 
L 349.489177 170.844883 
L 352.417595 173.045396 
L 358.678352 176.512873 
L 361.55628 178.446658 
L 366.958707 182.314228 
L 369.836635 184.581424 
L 373.067993 186.448527 
L 379.581199 189.315863 
L 382.560107 191.182965 
L 385.791466 192.449928 
L 392.203692 195.250582 
L 401.695806 198.45133 
L 407.249703 201.785441 
L 413.611439 204.71946 
L 420.023665 208.053572 
L 422.851103 209.78731 
L 425.577562 211.321002 
L 428.35451 212.654646 
L 430.979989 214.655114 
L 433.554977 217.189039 
L 436.331925 219.522917 
L 439.159364 222.056842 
L 441.936312 223.923945 
L 444.71326 225.457636 
L 450.014707 228.991795 
L 452.943125 230.258757 
L 455.871544 231.192309 
L 461.98083 233.392823 
L 464.353859 236.59357 
L 466.524927 239.727635 
L 468.595016 240.661187 
L 471.170005 238.994131 
L 472.230294 239.194178 
L 473.088623 239.194178 
L 474.047933 240.061047 
L 474.754792 240.727869 
L 475.764592 241.06128 
L 477.582231 241.194645 
L 479.803789 240.994598 
L 482.075838 239.660953 
L 484.448867 237.860533 
L 486.670425 235.326608 
L 488.841494 232.059178 
L 490.911583 228.191608 
L 492.577752 224.123992 
L 494.344901 220.189739 
L 496.46548 216.455534 
L 497.576259 212.187871 
L 498.939488 207.920207 
L 500.908597 203.785909 
L 505.553674 195.78404 
L 507.674253 191.516377 
L 509.340422 187.44876 
L 511.360021 183.981284 
L 513.07668 180.447125 
L 516.358528 172.645303 
L 519.993805 164.176659 
L 524.840843 151.507033 
L 525.901132 147.706146 
L 527.718771 143.638529 
L 529.73837 139.637595 
L 532.717278 131.769091 
L 534.332957 128.368296 
L 536.554516 124.967502 
L 537.968235 121.366661 
L 538.978034 117.565774 
L 539.836364 115.298578 
L 539.533424 112.564606 
L 538.422644 110.030681 
L 536.504026 107.896849 
L 533.979527 106.229793 
L 515.449708 97.027644 
L 508.986992 93.160074 
L 505.654654 91.226289 
L 502.221336 88.759046 
L 498.434588 86.225121 
L 495.91009 84.824794 
L 492.527262 83.091056 
L 488.891984 81.357318 
L 484.398377 79.090122 
L 480.561139 77.489748 
L 477.380271 76.022739 
L 473.341073 74.289001 
L 466.322968 70.488113 
L 457.133793 65.953721 
L 455.114194 64.75344 
L 453.094595 63.953254 
L 451.731366 63.619842 
L 449.913727 64.553394 
L 448.853438 64.553394 
L 448.146578 64.1533 
L 448.197068 64.1533 
L 448.146578 63.886571 
L 447.692169 63.55316 
L 447.086289 63.753207 
L 447.086289 63.753207 
" clip-path="url(#paa6e7a6821)" style="fill: none; stroke: #000000; stroke-width: 3"/>
   </g>
  </g>
 </g>
 <defs>
  <clipPath id="paa6e7a6821">
   <rect x="7.2" y="7.2" width="558" height="245.137247"/>
  </clipPath>
 </defs>
</svg>
