<?xml version="1.0" encoding="utf-8" standalone="no"?>
<!DOCTYPE svg PUBLIC "-//W3C//DTD SVG 1.1//EN"
  "http://www.w3.org/Graphics/SVG/1.1/DTD/svg11.dtd">
<svg xmlns:xlink="http://www.w3.org/1999/xlink" width="572.4pt" height="433.654581pt" viewBox="0 0 572.4 433.654581" xmlns="http://www.w3.org/2000/svg" version="1.1">
 <metadata>
  <rdf:RDF xmlns:dc="http://purl.org/dc/elements/1.1/" xmlns:cc="http://creativecommons.org/ns#" xmlns:rdf="http://www.w3.org/1999/02/22-rdf-syntax-ns#">
   <cc:Work>
    <dc:type rdf:resource="http://purl.org/dc/dcmitype/StillImage"/>
    <dc:date>2023-03-15T05:03:14.875394</dc:date>
    <dc:format>image/svg+xml</dc:format>
    <dc:creator>
     <cc:Agent>
      <dc:title>Matplotlib v3.7.1, https://matplotlib.org/</dc:title>
     </cc:Agent>
    </dc:creator>
   </cc:Work>
  </rdf:RDF>
 </metadata>
 <defs>
  <style type="text/css">*{stroke-linejoin: round; stroke-linecap: butt}</style>
 </defs>
 <g id="figure_1">
  <g id="patch_1">
   <path d="M 0 433.654581 
L 572.4 433.654581 
L 572.4 -0 
L 0 -0 
z
" style="fill: #ffffff"/>
  </g>
  <g id="axes_1">
   <g id="LineCollection_1">
    <path d="M 126.483258 264.066959 
L 128.199207 266.68579 
L 128.961851 267.64267 
L 129.953289 268.649912 
L 131.821767 271.067294 
L 132.317485 272.024174 
L 133.461452 274.794091 
L 137.312804 279.931027 
L 138.990621 281.693702 
L 140.363381 282.751306 
L 141.774272 283.355652 
L 143.299561 283.5571 
L 144.901113 283.506738 
L 148.027954 282.298047 
L 149.248185 281.542615 
L 150.926002 280.182838 
L 151.841175 279.125233 
L 152.832612 277.765456 
L 153.633388 276.355317 
L 154.739222 272.981055 
L 157.713534 268.146291 
L 158.323649 266.534703 
L 159.20069 264.620943 
L 160.916639 261.69994 
L 162.327531 258.980385 
L 162.975779 257.167349 
L 163.890951 255.203226 
L 165.378107 253.138379 
L 165.835694 251.98005 
L 165.75943 249.915204 
L 165.950091 248.555426 
L 166.255148 243.771025 
L 166.712735 241.907626 
L 167.132189 240.79966 
L 167.017792 239.036985 
L 166.331413 237.274311 
L 165.683165 233.950411 
L 165.111182 230.626511 
L 164.653596 228.863837 
L 163.890951 226.950077 
L 163.547762 225.086678 
L 163.318968 218.942499 
L 162.213134 211.337819 
L 162.098738 209.675869 
L 161.1073 202.876983 
L 160.764111 197.186063 
L 159.429483 189.531021 
L 159.048161 187.717985 
L 158.781236 185.804224 
L 158.704972 184.192636 
L 158.018592 179.911856 
L 157.866063 177.947733 
L 157.827931 172.256814 
L 157.751666 170.343053 
L 158.018592 166.666618 
L 157.98046 162.839097 
L 158.171121 155.838762 
L 158.285517 154.176812 
L 160.001467 147.176478 
L 162.098738 141.28411 
L 164.462935 134.938482 
L 165.225579 131.463496 
L 165.835694 129.952632 
L 168.543081 124.563886 
L 169.381989 122.650125 
L 170.030237 120.786727 
L 170.220898 118.520431 
L 170.792881 116.35486 
L 171.441128 114.541824 
L 172.203772 112.930236 
L 172.661359 110.865389 
L 173.309606 108.951628 
L 174.377308 105.224831 
L 175.902596 101.800207 
L 176.894033 99.936809 
L 178.038 98.425945 
L 180.097139 97.620151 
L 181.698691 96.361098 
L 184.978061 94.145165 
L 187.876109 91.778145 
L 190.125909 89.411125 
L 191.19361 88.000986 
L 193.748468 85.281432 
L 194.930567 83.82093 
L 196.188929 82.763326 
L 197.714218 81.756083 
L 199.048845 80.698479 
L 200.383472 79.187615 
L 201.870628 78.331459 
L 203.586577 77.525665 
L 205.226262 76.568785 
L 208.925086 75.108283 
L 210.679167 74.655024 
L 211.670605 73.345609 
L 213.157761 72.590177 
L 214.988107 71.985832 
L 216.742188 71.2304 
L 222.538283 67.856138 
L 223.796646 67.050344 
L 227.076016 65.841653 
L 228.944494 65.338032 
L 232.795846 65.136583 
L 236.609067 64.330789 
L 238.401281 63.827168 
L 240.079098 62.870288 
L 241.718783 62.719202 
L 243.472864 62.971012 
L 247.171688 64.078979 
L 249.002034 64.381152 
L 254.454939 64.632962 
L 256.285285 65.086221 
L 260.022241 65.186946 
L 261.928851 65.186946 
L 265.894601 64.381152 
L 267.877475 64.330789 
L 269.974747 64.935135 
L 271.805092 65.237308 
L 279.317137 65.791291 
L 282.443978 66.496361 
L 285.494554 67.151068 
L 286.98171 67.402879 
L 288.545131 67.503603 
L 295.942778 69.115191 
L 297.887521 68.309397 
L 302.043931 67.604327 
L 303.950542 66.798533 
L 306.162209 66.395636 
L 308.106952 65.791291 
L 310.166091 65.338032 
L 317.563739 62.92065 
L 324.465668 59.848561 
L 326.105353 59.042767 
L 327.668773 58.136249 
L 334.341909 55.567781 
L 335.90533 54.812349 
L 340.709987 51.085552 
L 343.264845 48.617808 
L 345.819703 46.150064 
L 347.878842 43.833406 
L 352.302178 40.005885 
L 358.975314 35.775467 
L 360.614999 34.667501 
L 362.407212 33.760982 
L 369.537935 30.638531 
L 372.588511 29.026943 
L 374.418857 28.372235 
L 376.211071 27.969338 
L 377.850755 27.717528 
L 379.528573 27.163545 
L 381.282654 26.861372 
L 383.189264 26.81101 
L 387.002485 27.06282 
L 390.815705 27.113182 
L 392.302861 27.06282 
L 393.866282 27.314631 
L 395.544099 27.465717 
L 397.260048 27.818252 
L 400.57755 28.72477 
L 402.179102 29.077305 
L 403.628126 29.732013 
L 404.962753 30.487445 
L 408.242123 31.79686 
L 413.123045 34.818587 
L 414.686466 35.825829 
L 421.168941 39.149729 
L 424.410178 40.207334 
L 425.973599 40.862041 
L 431.35024 42.423267 
L 433.104321 42.675078 
L 434.896535 43.178699 
L 436.72688 43.480872 
L 441.91286 43.783044 
L 445.344759 44.185941 
L 447.060708 44.236303 
L 450.607003 43.631958 
L 453.962637 43.279423 
L 455.640454 42.826164 
L 460.368848 41.214576 
L 461.817872 40.459144 
L 466.660662 38.948281 
L 469.74937 37.437417 
L 474.515896 34.365328 
L 475.96492 33.156637 
L 478.9011 31.041428 
L 480.502652 30.235634 
L 482.066073 29.832737 
L 483.515096 29.631288 
L 489.730646 29.178029 
L 502.42867 26.659923 
L 505.936833 26.307389 
L 507.61465 26.257026 
L 511.008416 26.81101 
L 512.80063 27.364993 
L 516.270661 29.026943 
L 518.062874 30.034185 
L 519.778824 30.688893 
L 521.571037 31.545049 
L 523.248854 32.703378 
L 527.977248 36.78271 
L 529.350007 38.44466 
L 530.646502 40.207334 
L 531.714204 41.919646 
L 533.582682 45.243546 
L 535.641821 48.66817 
L 536.518862 50.380482 
L 537.70096 53.905831 
L 539.07372 61.560873 
L 539.760099 69.417364 
L 539.836364 71.331124 
L 539.721967 73.244885 
L 538.997455 76.92132 
L 537.929753 80.547392 
L 535.985011 85.684329 
L 535.603689 87.346279 
L 535.031706 89.058591 
L 534.345326 90.619816 
L 532.896302 96.008563 
L 532.362451 97.569789 
L 531.485411 100.742603 
L 530.570238 104.267951 
L 529.998255 110.210681 
L 529.006817 116.153411 
L 529.006817 117.916086 
L 529.235611 119.980933 
L 529.235611 121.642883 
L 529.121214 123.153746 
L 529.235611 124.815696 
L 529.197478 127.787061 
L 529.388139 134.384499 
L 529.350007 135.895363 
L 529.426272 137.557313 
L 529.388139 139.370349 
L 528.511099 144.809458 
L 528.663627 145.413803 
L 528.587363 147.22684 
L 528.587363 149.946394 
L 528.739892 152.917759 
L 527.900983 158.407231 
L 527.748455 160.421715 
L 527.290868 162.18439 
L 523.897102 168.681103 
L 519.168708 179.710408 
L 517.338363 183.185394 
L 513.410745 189.228848 
L 512.152383 192.60311 
L 511.275342 194.214698 
L 509.330599 197.085339 
L 507.729047 200.006342 
L 506.92827 201.718654 
L 503.877694 206.200883 
L 501.780423 210.380939 
L 501.20844 211.690354 
L 500.712721 213.201218 
L 500.026341 214.812806 
L 498.234128 217.784171 
L 497.471484 219.446121 
L 496.518178 221.108071 
L 495.488609 222.669296 
L 494.115849 224.532695 
L 492.628693 226.144283 
L 490.49329 229.619269 
L 489.883175 231.230857 
L 489.425588 232.993531 
L 489.273059 234.806567 
L 488.92987 236.619604 
L 487.328317 239.792417 
L 484.201476 244.325008 
L 483.248171 245.78551 
L 481.036503 250.167014 
L 478.9011 255.102502 
L 477.757133 256.563003 
L 476.460638 258.023505 
L 474.668425 261.095594 
L 472.914343 264.369132 
L 470.588279 269.354982 
L 469.711238 270.916208 
L 467.308909 275.902058 
L 463.610085 282.348409 
L 462.542383 283.808911 
L 461.665343 285.269412 
L 460.483244 288.442226 
L 458.347841 293.025179 
L 453.848241 302.644344 
L 453.047464 304.205569 
L 450.03502 308.48635 
L 449.005451 309.795765 
L 447.327634 312.565681 
L 442.294182 321.832312 
L 441.340877 322.99064 
L 440.463837 324.40078 
L 438.290301 329.034095 
L 435.468518 333.365237 
L 433.561907 336.03443 
L 431.922223 339.459054 
L 428.719117 343.89092 
L 427.72768 345.401784 
L 426.888771 346.96301 
L 425.058426 349.632202 
L 423.533137 352.653929 
L 422.846758 354.416604 
L 421.893453 355.927467 
L 420.863883 357.337607 
L 419.872446 358.898832 
L 417.927703 363.330699 
L 417.431985 364.992649 
L 415.372845 369.52524 
L 414.800862 369.928137 
L 413.5425 370.532482 
L 413.123045 371.388638 
L 413.084913 372.295156 
L 411.674022 374.7629 
L 409.881808 379.799112 
L 408.928503 381.4107 
L 404.543299 387.35343 
L 403.399333 389.166467 
L 402.026574 390.979503 
L 400.539418 392.591091 
L 397.603238 395.058835 
L 396.306743 396.217164 
L 394.819587 397.174044 
L 393.332431 397.979838 
L 391.654614 398.634545 
L 389.976797 399.591426 
L 384.981478 401.3541 
L 383.341793 402.109532 
L 376.172938 403.570033 
L 374.228196 404.174379 
L 372.512247 404.577276 
L 370.872562 405.131259 
L 368.927819 405.63488 
L 363.093592 406.289588 
L 361.453907 406.33995 
L 359.623561 406.541398 
L 356.267927 407.246468 
L 354.628242 407.397554 
L 353.141086 407.29683 
L 350.014246 406.642123 
L 348.450825 406.390312 
L 345.133323 405.483794 
L 343.417374 404.829086 
L 340.176137 403.821844 
L 338.650848 403.318223 
L 335.485875 401.857721 
L 334.113116 401.303738 
L 332.62596 400.900841 
L 331.176936 400.246133 
L 327.325583 399.389977 
L 325.800295 398.835994 
L 320.728712 395.763904 
L 318.97463 394.555214 
L 317.601871 393.195436 
L 312.263362 386.749085 
L 311.310057 385.137497 
L 309.022125 381.914321 
L 307.72563 380.302733 
L 306.657928 378.741508 
L 304.713186 375.266521 
L 303.988674 373.654934 
L 302.806575 370.48212 
L 301.319419 366.906409 
L 299.984792 363.280337 
L 299.222148 361.568025 
L 298.726429 359.906075 
L 298.459504 358.193763 
L 298.078182 353.056826 
L 297.620595 351.596325 
L 296.896084 350.135823 
L 295.599589 345.149973 
L 294.989473 343.538386 
L 293.54045 341.070642 
L 292.968466 339.912313 
L 291.710104 336.840223 
L 290.985592 335.077549 
L 289.269643 331.804011 
L 286.295331 327.170696 
L 284.541249 323.997883 
L 282.443978 321.177604 
L 277.181733 315.839219 
L 274.893801 313.72401 
L 273.902364 312.968578 
L 272.910926 312.414595 
L 270.356069 311.709525 
L 268.983309 311.10518 
L 264.33118 309.896489 
L 259.945977 307.982728 
L 258.535085 307.579831 
L 257.391119 307.378383 
L 254.721865 306.572589 
L 251.938214 305.565347 
L 249.002034 304.407018 
L 245.875193 303.097603 
L 244.082979 302.593982 
L 242.443294 301.989636 
L 240.651081 301.536377 
L 235.27444 299.773703 
L 233.711019 299.169357 
L 231.99507 298.665736 
L 228.868229 297.205235 
L 227.15228 296.349079 
L 225.512595 295.795095 
L 223.911043 295.090026 
L 218.953856 292.320109 
L 217.352303 291.413591 
L 215.90328 290.355986 
L 214.377991 288.996209 
L 211.518076 286.881 
L 204.387354 281.391529 
L 201.146116 279.377044 
L 199.697092 278.470526 
L 194.206055 274.441556 
L 192.680766 273.736487 
L 191.422404 272.930693 
L 190.202173 271.873088 
L 188.905678 270.513311 
L 187.837976 269.707517 
L 186.617746 269.052809 
L 185.168722 268.498826 
L 183.643434 267.793756 
L 180.211535 266.736152 
L 178.609983 266.534703 
L 177.122827 266.081444 
L 175.368745 265.779271 
L 173.462135 265.628185 
L 171.898715 265.678547 
L 168.695609 266.131806 
L 166.255148 266.68579 
L 164.767992 267.088687 
L 163.433365 267.793756 
L 161.031036 269.354982 
L 160.077731 270.211138 
L 158.323649 272.326347 
L 156.6077 274.743729 
L 155.959453 276.103506 
L 155.158676 277.463283 
L 152.375025 280.93827 
L 149.133788 286.478103 
L 147.341574 289.550192 
L 146.388269 291.061056 
L 145.587493 292.723006 
L 144.67232 294.334594 
L 141.126025 299.572254 
L 135.787516 306.371141 
L 133.385187 309.090695 
L 130.830329 312.06206 
L 127.169638 316.141392 
L 124.919838 319.012033 
L 120.954088 323.443899 
L 117.979776 325.861281 
L 112.488739 330.947855 
L 109.628823 333.365237 
L 95.596172 342.329695 
L 92.62186 344.142731 
L 91.325365 345.200336 
L 86.673236 350.387634 
L 85.109815 351.294152 
L 83.47013 351.94886 
L 79.771307 352.90574 
L 77.864696 353.207913 
L 74.165872 353.510085 
L 72.259262 353.711534 
L 66.615696 354.869863 
L 65.014143 355.423846 
L 59.027387 358.647022 
L 57.34957 359.251367 
L 54.0702 359.906075 
L 50.943359 360.812593 
L 49.151146 360.862955 
L 44.232091 359.956437 
L 42.516142 359.452816 
L 40.190077 358.647022 
L 38.054674 357.639779 
L 35.957403 356.48145 
L 34.127057 354.970587 
L 33.211884 353.510085 
L 32.944958 351.848135 
L 33.135619 348.927132 
L 33.097487 346.96301 
L 33.66947 345.049249 
L 33.66947 342.984402 
L 32.563636 339.861951 
L 32.563636 339.861951 
" clip-path="url(#p22f2e58bb4)" style="fill: none; stroke: #000000; stroke-width: 3"/>
   </g>
  </g>
 </g>
 <defs>
  <clipPath id="p22f2e58bb4">
   <rect x="7.2" y="7.2" width="558" height="419.254581"/>
  </clipPath>
 </defs>
</svg>
