<?xml version="1.0" encoding="utf-8" standalone="no"?>
<!DOCTYPE svg PUBLIC "-//W3C//DTD SVG 1.1//EN"
  "http://www.w3.org/Graphics/SVG/1.1/DTD/svg11.dtd">
<svg xmlns:xlink="http://www.w3.org/1999/xlink" width="572.4pt" height="203.609924pt" viewBox="0 0 572.4 203.609924" xmlns="http://www.w3.org/2000/svg" version="1.1">
 <metadata>
  <rdf:RDF xmlns:dc="http://purl.org/dc/elements/1.1/" xmlns:cc="http://creativecommons.org/ns#" xmlns:rdf="http://www.w3.org/1999/02/22-rdf-syntax-ns#">
   <cc:Work>
    <dc:type rdf:resource="http://purl.org/dc/dcmitype/StillImage"/>
    <dc:date>2023-03-16T14:00:34.561285</dc:date>
    <dc:format>image/svg+xml</dc:format>
    <dc:creator>
     <cc:Agent>
      <dc:title>Matplotlib v3.7.1, https://matplotlib.org/</dc:title>
     </cc:Agent>
    </dc:creator>
   </cc:Work>
  </rdf:RDF>
 </metadata>
 <defs>
  <style type="text/css">*{stroke-linejoin: round; stroke-linecap: butt}</style>
 </defs>
 <g id="figure_1">
  <g id="patch_1">
   <path d="M 0 203.609924 
L 572.4 203.609924 
L 572.4 0 
L 0 0 
z
" style="fill: #ffffff"/>
  </g>
  <g id="axes_1">
   <g id="LineCollection_1">
    <path d="M 32.563636 175.556776 
L 37.975338 172.964859 
L 40.23517 171.472543 
L 44.338548 171.708172 
L 47.193073 172.650687 
L 47.43095 173.357573 
L 48.144581 174.143003 
L 49.631312 175.164061 
L 52.18849 176.342205 
L 54.329383 178.070149 
L 54.626729 178.541407 
L 56.291868 178.934122 
L 58.254354 179.562465 
L 60.514185 180.50498 
L 64.974379 183.17544 
L 67.769434 184.039412 
L 67.769434 184.039412 
L 63.725525 187.259672 
L 58.670638 187.809473 
L 58.670638 187.809473 
L 218.761867 148.459464 
L 226.017116 154.193098 
L 222.567899 153.014954 
L 208.94944 139.50557 
L 215.193712 143.432716 
L 219.832314 145.789004 
L 224.292508 147.124234 
L 227.741724 146.417348 
L 231.428818 144.453774 
L 238.386721 137.777625 
L 242.727976 135.028622 
L 246.712416 131.965448 
L 256.227497 117.120834 
L 261.341852 111.3872 
L 264.791069 106.988796 
L 268.834978 102.904563 
L 273.711457 99.762846 
L 277.576958 96.071328 
L 279.83679 91.280209 
L 281.085644 85.232403 
L 279.896259 78.477711 
L 279.301567 71.958648 
L 280.847767 66.539185 
L 284.951146 56.328604 
L 289.887094 45.803851 
L 292.979495 40.305846 
L 296.131365 34.964927 
L 299.640051 30.173808 
L 306.1222 21.612628 
L 309.333539 18.156739 
L 312.604348 15.800451 
L 317.064542 15.878994 
L 321.346328 16.742966 
L 324.498199 19.099254 
L 328.839454 21.455542 
L 332.764425 24.126002 
L 336.927273 25.853946 
L 345.371907 30.330894 
L 349.296877 32.137381 
L 353.340787 33.865326 
L 357.741511 36.064528 
L 362.023297 38.342273 
L 371.181562 43.526106 
L 375.701226 45.725308 
L 384.978429 51.066228 
L 389.260215 53.658145 
L 393.601471 56.48569 
L 397.823788 58.999064 
L 401.986635 61.198266 
L 410.669146 65.282499 
L 415.12934 67.246072 
L 429.401961 75.100365 
L 434.337909 77.221024 
L 439.452265 79.26314 
L 444.031397 81.855057 
L 446.826452 85.546575 
L 449.859384 88.766835 
L 452.951785 91.515838 
L 460.147565 96.3855 
L 464.072535 98.741788 
L 474.598593 104.16125 
L 476.144794 106.360452 
L 476.977363 107.931311 
L 477.334179 109.030912 
L 477.572056 109.266541 
L 477.572056 109.266541 
L 481.318619 110.60177 
L 483.63792 111.308657 
L 486.195098 112.486801 
L 488.811745 114.686003 
L 491.368923 117.670634 
L 496.126463 123.71844 
L 498.148417 125.917642 
L 500.467718 127.567044 
L 503.619589 128.666645 
L 507.187744 128.509559 
L 518.784248 133.536307 
L 523.303911 135.185708 
L 527.585698 136.520938 
L 531.39173 137.463453 
L 534.484131 138.405969 
L 539.36061 140.369542 
L 539.836364 141.704772 
L 539.063263 142.568744 
L 538.646979 142.72583 
L 538.646979 142.72583 
L 538.290163 143.354173 
L 538.290163 143.589802 
L 538.230694 142.254572 
L 538.230694 142.254572 
" clip-path="url(#p705009a8e1)" style="fill: none; stroke: #000000; stroke-width: 3"/>
   </g>
  </g>
 </g>
 <defs>
  <clipPath id="p705009a8e1">
   <rect x="7.2" y="7.2" width="558" height="189.209924"/>
  </clipPath>
 </defs>
</svg>
