<?xml version="1.0" encoding="utf-8" standalone="no"?>
<!DOCTYPE svg PUBLIC "-//W3C//DTD SVG 1.1//EN"
  "http://www.w3.org/Graphics/SVG/1.1/DTD/svg11.dtd">
<svg xmlns:xlink="http://www.w3.org/1999/xlink" width="329.797153pt" height="568.8pt" viewBox="0 0 329.797153 568.8" xmlns="http://www.w3.org/2000/svg" version="1.1">
 <metadata>
  <rdf:RDF xmlns:dc="http://purl.org/dc/elements/1.1/" xmlns:cc="http://creativecommons.org/ns#" xmlns:rdf="http://www.w3.org/1999/02/22-rdf-syntax-ns#">
   <cc:Work>
    <dc:type rdf:resource="http://purl.org/dc/dcmitype/StillImage"/>
    <dc:date>2023-03-18T05:02:43.957631</dc:date>
    <dc:format>image/svg+xml</dc:format>
    <dc:creator>
     <cc:Agent>
      <dc:title>Matplotlib v3.7.1, https://matplotlib.org/</dc:title>
     </cc:Agent>
    </dc:creator>
   </cc:Work>
  </rdf:RDF>
 </metadata>
 <defs>
  <style type="text/css">*{stroke-linejoin: round; stroke-linecap: butt}</style>
 </defs>
 <g id="figure_1">
  <g id="patch_1">
   <path d="M 0 568.8 
L 329.797153 568.8 
L 329.797153 0 
L 0 0 
z
" style="fill: #ffffff"/>
  </g>
  <g id="axes_1">
   <g id="LineCollection_1">
    <path d="M 52.390033 532.929051 
L 52.892283 531.059611 
L 51.74955 530.950002 
L 51.210437 531.0657 
L 50.381034 531.498046 
L 49.376535 531.309275 
L 49.141537 531.16922 
L 47.722336 530.462851 
L 45.616574 529.09274 
L 44.561388 528.569053 
L 41.593968 527.192852 
L 36.51157 524.775367 
L 35.92638 524.373468 
L 35.848047 524.093356 
L 36.557648 522.266541 
L 37.313326 520.853804 
L 37.548324 520.445815 
L 37.999888 520.10481 
L 38.105867 519.855145 
L 38.202631 519.087883 
L 38.889192 518.162297 
L 40.810643 514.557382 
L 41.879651 513.156823 
L 42.391117 511.871963 
L 43.49238 509.527551 
L 43.704339 509.083026 
L 43.966983 508.790735 
L 44.644329 508.126993 
L 45.413831 507.207496 
L 46.035883 506.330625 
L 46.584211 505.38677 
L 47.058814 504.619508 
L 47.570279 503.864424 
L 47.745375 503.425989 
L 47.846747 502.451687 
L 47.961942 502.019341 
L 48.818992 500.533531 
L 49.284379 499.650571 
L 50.017018 498.444873 
L 51.767981 494.407612 
L 54.385209 490.041524 
L 54.79991 489.231636 
L 56.039407 487.270854 
L 56.592343 486.247838 
L 57.615273 484.402755 
L 61.495037 477.223372 
L 62.840513 475.000747 
L 65.135196 470.482424 
L 67.102724 467.041923 
L 67.86301 465.750973 
L 68.457416 464.228627 
L 71.023958 459.399746 
L 73.714911 454.808351 
L 73.830106 454.376005 
L 75.34607 451.879358 
L 76.018809 450.521425 
L 77.004877 448.767683 
L 77.696046 447.41584 
L 78.677507 445.662097 
L 80.087492 443.080199 
L 80.94915 441.728356 
L 81.460615 441.009808 
L 82.543447 438.902882 
L 85.151459 434.914335 
L 87.289476 430.499532 
L 88.717893 427.887187 
L 89.731608 426.084729 
L 91.75443 423.058306 
L 93.984603 418.862721 
L 95.104298 416.88976 
L 98.495635 410.745573 
L 98.96563 409.97831 
L 101.269528 405.593954 
L 102.790101 403.085128 
L 103.458231 401.970771 
L 104.637827 399.644626 
L 105.545562 398.262336 
L 105.941833 397.324571 
L 106.333495 396.478147 
L 107.591424 394.547813 
L 108.729549 392.483512 
L 109.135035 391.582283 
L 110.50355 389.292675 
L 110.844527 388.385356 
L 111.849027 386.820385 
L 115.820946 379.452231 
L 116.770152 377.741114 
L 117.470537 376.462344 
L 117.880631 375.31145 
L 118.84366 373.740389 
L 119.797474 371.944021 
L 121.221283 369.831005 
L 122.138234 367.766704 
L 122.834011 367.042067 
L 123.31783 366.220001 
L 123.898412 365.04475 
L 130.059035 353.992519 
L 130.598147 352.683301 
L 131.058926 351.660285 
L 132.501166 349.395034 
L 133.150865 348.207604 
L 133.533312 347.653471 
L 133.842035 347.050622 
L 134.634575 345.595259 
L 135.321137 344.292131 
L 135.869465 343.202131 
L 137.353175 340.54716 
L 137.772484 340.114814 
L 139.164038 337.67906 
L 139.947364 336.144536 
L 141.799698 332.259509 
L 142.532337 331.16951 
L 145.393778 326.042249 
L 146.190927 324.708674 
L 152.572723 313.181471 
L 153.434381 311.372924 
L 154.332901 309.984545 
L 159.806962 299.95533 
L 160.590288 297.757063 
L 161.4842 296.234717 
L 162.244486 295.187343 
L 164.506914 291.247512 
L 165.718764 288.830026 
L 166.290131 288.074943 
L 167.902859 284.993715 
L 170.824202 279.836007 
L 172.275657 276.882656 
L 172.819377 275.628243 
L 173.579663 274.392098 
L 174.432105 273.241205 
L 178.87402 265.39199 
L 180.297829 262.944057 
L 183.269857 257.427076 
L 184.361905 255.581993 
L 186.67041 251.234173 
L 187.661086 249.267302 
L 188.278531 248.037247 
L 188.914407 246.825459 
L 189.849789 245.193505 
L 190.269099 244.310544 
L 192.070747 241.472891 
L 193.618966 238.543898 
L 194.494447 237.009373 
L 195.05199 235.980267 
L 198.424897 230.292783 
L 199.387926 228.045801 
L 199.44322 227.747421 
L 201.972899 223.685802 
L 203.912781 220.117424 
L 206.142954 216.250665 
L 206.54844 215.452956 
L 206.990789 214.752677 
L 208.147345 212.438711 
L 209.548115 210.045583 
L 210.483498 208.163964 
L 211.584761 206.483294 
L 214.068363 201.727486 
L 215.178841 199.571844 
L 216.713237 196.910783 
L 217.123331 196.314024 
L 217.64862 195.516314 
L 218.054106 194.584639 
L 219.063213 192.885701 
L 220.878684 189.566987 
L 222.104358 187.16777 
L 225.113248 181.991794 
L 225.730693 180.853079 
L 226.587743 179.06889 
L 229.674966 173.265707 
L 230.919071 170.988278 
L 231.144853 170.318446 
L 231.720827 169.630345 
L 232.255332 168.716938 
L 235.416279 162.46923 
L 236.946067 159.856885 
L 238.024292 157.877835 
L 238.826048 156.379847 
L 240.236033 154.011077 
L 241.738175 152.153815 
L 241.986996 151.222139 
L 246.313716 143.677393 
L 248.654476 138.501417 
L 250.064461 135.700301 
L 250.382399 134.957396 
L 251.115039 134.037899 
L 251.94905 132.74695 
L 253.308349 130.347733 
L 255.119213 127.528348 
L 255.529307 126.785443 
L 255.953224 126.12779 
L 259.95279 119.155446 
L 260.800625 117.760977 
L 262.100023 115.447011 
L 263.519224 113.072152 
L 269.790434 101.417072 
L 270.177489 100.144391 
L 270.398663 98.810816 
L 270.380232 97.58076 
L 270.122195 96.381152 
L 269.656808 95.242437 
L 268.12702 92.356069 
L 267.491144 91.680148 
L 266.80919 91.138193 
L 266.224 90.943332 
L 266.090374 90.943332 
L 266.090374 90.943332 
L 265.592732 90.553612 
L 265.099698 90.358752 
L 264.168923 90.334394 
L 263.625204 90.590148 
L 263.265795 91.083388 
L 262.915603 91.56445 
L 262.182964 92.008975 
L 261.436501 92.106405 
L 260.91582 91.972438 
L 260.703861 92.337801 
L 260.077201 93.756628 
L 259.072702 95.291152 
L 258.003693 96.241096 
L 256.750373 97.19104 
L 256.312632 97.48333 
L 254.41422 98.341933 
L 253.359035 98.926514 
L 253.206978 98.725565 
L 253.82903 97.343274 
L 254.312849 96.971822 
L 255.570777 95.863554 
L 256.344887 95.303331 
L 257.008409 94.536069 
L 259.095741 91.150372 
L 259.464364 90.017746 
L 259.925144 87.764674 
L 260.376708 86.735569 
L 261.031015 85.846519 
L 262.450216 84.701714 
L 264.007651 83.605625 
L 264.975288 82.722665 
L 266.297725 81.169872 
L 267.076442 80.025068 
L 267.716926 78.849817 
L 268.661524 76.511494 
L 269.099265 74.489818 
L 269.182205 72.833506 
L 269.196028 71.755685 
L 269.2974 71.506021 
L 269.481712 71.402501 
L 270.066902 71.365965 
L 270.601406 71.01278 
L 272.780893 69.490435 
L 274.587149 68.467418 
L 277.139868 67.279988 
L 277.867899 67.012056 
L 284.728907 63.498481 
L 288.281517 61.860437 
L 292.755687 59.479488 
L 292.751079 59.56474 
L 292.562159 59.997086 
L 288.788375 66.068201 
L 288.645533 66.579709 
L 288.737689 66.683229 
L 288.889746 66.652782 
L 289.995617 65.0939 
L 290.253654 65.081721 
L 291.976969 66.086469 
L 293.165781 66.537084 
L 293.497542 66.604067 
L 294.704784 67.35915 
L 297.644558 68.94239 
L 298.096122 69.332111 
L 299.621302 70.12373 
L 300.386196 70.52563 
L 301.971278 70.836188 
L 302.312255 71.055406 
L 302.395195 71.51211 
L 302.233922 71.786132 
L 301.985101 71.853115 
L 301.141875 71.323339 
L 300.146591 70.446468 
L 298.510823 69.581775 
L 298.174454 69.624401 
L 297.819654 69.916691 
L 296.916526 71.536467 
L 296.349767 72.650825 
L 296.340552 73.180601 
L 296.704568 73.539875 
L 297.404953 73.966131 
L 297.893379 74.459371 
L 300.395412 75.208366 
L 300.552077 75.56155 
L 300.363157 75.841662 
L 300.068258 75.835572 
L 299.791791 75.579818 
L 299.377089 75.050042 
L 298.575333 74.605517 
L 297.925633 74.270601 
L 293.211859 71.420769 
L 289.06945 69.088535 
L 288.290733 68.656189 
L 287.770052 68.680547 
L 287.442899 69.088535 
L 285.959188 72.285462 
L 286.369282 72.681272 
L 286.954472 72.985741 
L 287.258587 73.131886 
L 288.834453 74.100098 
L 294.423709 77.120432 
L 295.262328 77.528421 
L 297.008682 78.551437 
L 297.91181 78.953336 
L 298.30808 79.209091 
L 298.340335 79.160376 
L 298.37259 78.935068 
L 298.570725 79.026409 
L 298.621411 79.361325 
L 298.561509 79.732778 
L 298.598372 79.744956 
L 298.635234 79.732778 
L 298.635234 79.732778 
L 298.400236 79.087303 
L 298.160631 79.056856 
L 297.842693 79.154286 
L 296.676921 78.52099 
L 294.018223 77.126521 
L 293.663423 77.644119 
L 292.635884 79.80585 
L 292.253437 80.183392 
L 291.769619 80.414789 
L 291.235114 80.329537 
L 289.594739 79.361325 
L 288.599455 78.813281 
L 286.641142 77.753728 
L 285.484586 77.14479 
L 284.678221 76.572388 
L 283.586174 75.805125 
L 283.664506 75.518924 
L 284.489302 74.215796 
L 285.217333 72.736076 
L 285.636643 72.328087 
L 285.636643 72.328087 
L 286.120461 72.49859 
L 287.424467 73.247584 
L 291.479327 75.427583 
L 293.23029 76.389706 
L 293.787833 76.602834 
L 294.336161 76.541941 
L 294.792332 76.097416 
L 295.810655 74.197528 
L 300.450705 65.629765 
L 300.621194 65.447084 
L 300.833152 65.434905 
L 301.690202 65.964682 
L 302.183237 66.293508 
L 303.123227 66.847642 
L 303.971061 67.614904 
L 304.279783 67.65753 
L 304.229098 67.487027 
L 300.584331 65.58105 
L 300.271001 65.343564 
L 297.520147 63.991721 
L 296.759861 63.486303 
L 292.133634 60.934851 
L 292.064518 60.484236 
L 292.944606 59.016695 
L 293.492934 58.27988 
L 294.285475 57.38474 
L 294.815371 57.555243 
L 296.147024 58.261612 
L 296.755253 58.578259 
L 298.234356 59.479488 
L 298.529255 59.473399 
L 299.66738 60.319823 
L 301.625693 61.379376 
L 304.247529 62.82256 
L 307.786316 64.850324 
L 308.002882 65.221777 
L 308.260919 65.282671 
L 308.081215 65.142615 
L 307.353183 64.527587 
L 304.837327 63.133118 
L 303.754495 62.566806 
L 302.367548 61.939599 
L 302.058826 62.280605 
L 301.303148 63.687252 
L 300.67188 65.033006 
L 299.893162 66.202168 
L 298.695135 68.674457 
L 298.939348 68.668368 
L 299.75032 67.06686 
L 302.003532 62.652057 
L 302.938915 61.04446 
L 304.095472 58.943622 
L 304.095472 58.943622 
L 304.593114 57.543064 
L 304.782033 56.921947 
L 305.076932 56.39826 
L 306.83711 54.047758 
L 307.29789 53.371837 
L 306.556034 54.614071 
L 305.952413 55.588372 
L 305.298106 56.465243 
L 304.846542 57.080271 
L 304.574682 57.049824 
L 301.763927 55.448316 
L 300.215708 54.674965 
L 295.718499 52.190496 
L 294.677138 51.404966 
L 294.677138 51.404966 
L 294.340769 50.838653 
L 293.912244 50.826474 
L 292.995292 51.240552 
L 290.207576 52.616753 
L 288.369066 53.743289 
L 285.530663 55.01597 
L 285.530663 55.01597 
L 285.157432 54.997702 
L 284.452439 55.472674 
L 279.545137 57.804908 
L 278.904653 58.194628 
L 278.301032 58.57217 
L 275.043321 60.064069 
L 272.720992 61.263678 
L 269.467888 62.82256 
L 266.638702 64.223118 
L 266.316156 63.943006 
L 265.081267 61.062728 
L 263.712752 58.164181 
L 263.440892 57.859712 
L 263.242756 57.841444 
L 261.035622 59.339432 
L 260.473471 59.936192 
L 258.630353 60.752169 
L 257.791734 61.251499 
L 256.621354 61.641219 
L 255.713619 62.091834 
L 253.570994 63.139208 
L 252.723159 63.632448 
L 248.33193 65.727196 
L 247.309 66.208257 
L 246.792926 66.232614 
L 246.272246 66.043844 
L 245.710095 65.471442 
L 245.548822 64.923397 
L 245.415196 63.12094 
L 245.143336 60.045801 
L 245.221668 59.765689 
L 245.470489 59.497756 
L 246.046464 59.46122 
L 249.235058 59.796136 
L 250.907688 59.175019 
L 251.663366 58.657421 
L 252.727767 58.018036 
L 253.248448 57.494349 
L 253.179331 57.183791 
L 251.787777 54.851557 
L 251.285527 54.059937 
L 250.377791 52.494965 
L 250.142794 52.111334 
L 249.972305 52.178317 
L 250.059853 52.427982 
L 250.727984 53.201334 
L 251.092 53.773736 
L 251.930618 55.497031 
L 255.151468 61.622951 
L 255.317348 61.92742 
L 255.317348 61.92742 
L 255.603032 62.085744 
L 255.89793 62.950437 
L 256.427827 64.49714 
L 257.61203 66.908536 
L 258.215652 67.773228 
L 258.363101 68.309094 
L 258.837704 69.386915 
L 259.422894 70.629149 
L 260.081809 72.121048 
L 260.966505 73.844344 
L 261.35356 74.160992 
L 262.012475 74.17317 
L 263.021582 73.777361 
L 265.016758 72.644735 
L 265.141168 72.407249 
L 265.039797 71.81049 
L 264.643526 70.976244 
L 260.14171 62.189264 
L 259.800733 61.397644 
L 258.648784 59.449041 
L 257.178898 56.185132 
L 256.667432 55.21083 
L 256.377141 54.577535 
L 255.916362 53.767647 
L 255.091566 52.239211 
L 254.10089 50.284519 
L 253.856677 49.937424 
L 253.824422 49.724296 
L 254.114714 49.377201 
L 255.386465 48.49424 
L 256.879391 47.21547 
L 257.353994 46.381224 
L 257.464581 45.863627 
L 257.201937 45.498264 
L 256.390965 44.737091 
L 254.990195 43.275639 
L 253.271487 41.540165 
L 251.25788 39.250556 
L 250.783277 38.976534 
L 250.479163 39.165305 
L 249.304175 40.340556 
L 248.75124 40.657204 
L 248.410263 40.845975 
L 248.124579 41.38793 
L 247.373509 41.893349 
L 246.474989 42.922455 
L 246.018817 43.476588 
L 245.516567 43.287818 
L 244.940593 42.800667 
L 243.032965 40.657204 
L 243.263355 40.243126 
L 246.640869 37.204524 
L 247.908013 35.901395 
L 247.696054 35.475139 
L 246.663908 34.354692 
L 245.71931 33.118547 
L 244.82079 32.4 
L 244.668733 32.454804 
L 244.618047 32.60095 
L 244.710203 33.276871 
L 242.198954 35.85268 
L 241.166808 37.381116 
L 240.991712 37.679495 
L 240.595441 37.776926 
L 239.383591 37.618602 
L 238.300759 37.618602 
L 237.678707 37.691674 
L 236.849304 37.959607 
L 236.406955 38.42849 
L 236.545189 39.585472 
L 235.941568 39.226199 
L 235.411671 38.440668 
L 236.227251 38.008322 
L 237.190281 37.776926 
L 239.563295 37.502903 
L 240.816616 38.172736 
L 241.963957 39.439327 
L 243.258747 40.614578 
L 243.687272 41.406198 
L 244.120405 42.246533 
L 244.839221 43.226924 
L 245.276962 43.604466 
L 245.922053 43.902845 
L 247.170766 44.621393 
L 248.253598 44.94413 
L 248.926336 45.388655 
L 249.654367 45.559158 
L 254.077851 45.997593 
L 254.515592 46.381224 
L 254.990195 47.099772 
L 255.045488 47.325079 
L 254.83353 47.800051 
L 254.83353 47.800051 
L 255.027057 48.153235 
L 255.381857 48.043626 
L 256.736549 47.105861 
L 257.275661 46.984073 
L 257.635069 47.276364 
L 258.340062 48.159324 
L 258.856135 48.871782 
L 259.487403 50.181 
L 259.763871 50.850832 
L 260.736116 52.494965 
L 263.385598 58.438204 
L 263.523832 59.053231 
L 265.219501 62.639878 
L 265.754005 63.71161 
L 266.279294 64.740716 
L 266.601839 65.599319 
L 268.279077 68.966748 
L 268.808973 70.111552 
L 268.716818 70.671775 
L 268.726033 70.884903 
L 269.131519 71.128479 
L 269.578475 71.980992 
L 270.228175 73.150154 
L 271.172773 74.715126 
L 271.965313 76.176578 
L 274.315289 80.359984 
L 276.31968 84.677357 
L 277.642118 87.265345 
L 277.540746 87.588082 
L 276.798891 88.446685 
L 276.540854 92.995455 
L 276.494776 92.806684 
L 276.480953 92.228192 
L 276.448698 91.527913 
L 276.439483 90.395288 
L 276.536247 89.207858 
L 276.997026 88.665903 
L 276.992418 88.239646 
L 276.63301 87.100932 
L 276.490169 87.143557 
L 276.421052 87.387133 
L 276.485561 87.655065 
L 276.642226 87.892551 
L 276.702127 88.763333 
L 276.720558 89.177411 
L 276.55007 90.042104 
L 276.522423 91.600986 
L 276.577717 92.526572 
L 276.444091 95.291152 
L 276.121545 96.703889 
L 276.080075 97.58685 
L 276.135368 98.780369 
L 276.080075 99.206626 
L 274.352152 102.507072 
L 273.472063 103.743216 
L 273.273927 104.851484 
L 273.905195 106.994947 
L 273.794608 107.804835 
L 273.407553 107.969249 
L 272.642659 108.200645 
L 272.269428 108.620813 
L 271.813256 109.576846 
L 271.398555 110.484164 
L 268.997893 113.340085 
L 268.007217 115.483548 
L 267.246931 116.482207 
L 266.45439 117.401704 
L 265.293225 119.740027 
L 265.251755 120.148016 
L 264.058336 121.987009 
L 263.855593 122.565501 
L 263.302658 123.582428 
L 262.348844 125.464047 
L 261.846594 126.146058 
L 261.464147 127.004661 
L 261.233758 128.076393 
L 261.164641 130.37209 
L 260.740724 131.401196 
L 260.132495 132.363319 
L 258.97133 136.431027 
L 258.621138 137.058233 
L 258.15575 137.697619 
L 257.588991 138.629294 
L 257.17429 139.427004 
L 256.082242 141.168567 
L 255.520091 142.100243 
L 253.750698 144.134097 
L 252.511201 144.864823 
L 252.055029 145.18756 
L 251.479055 145.887839 
L 250.995236 146.843873 
L 250.516025 148.530632 
L 250.267204 149.888564 
L 249.483879 150.814151 
L 248.921728 151.557055 
L 248.359577 152.860183 
L 248.092325 154.157222 
L 248.281244 154.565211 
L 248.424086 155.472529 
L 248.313499 155.892696 
L 248.087717 156.178897 
L 248.087717 156.178897 
L 247.917229 155.874428 
L 247.93566 154.845322 
L 247.93566 154.845322 
L 247.806641 154.796607 
L 247.806641 154.796607 
L 248.483987 152.531357 
L 248.898689 151.849346 
L 249.728092 150.546218 
L 250.069069 150.138229 
L 250.308674 149.255268 
L 250.764846 146.405437 
L 250.967589 145.954823 
L 251.294743 145.796499 
L 251.962873 144.20717 
L 251.962873 144.20717 
L 251.723268 143.853985 
L 251.686405 143.890522 
L 251.57121 144.054935 
L 251.234841 144.213259 
L 251.234841 144.213259 
L 250.727984 144.225438 
L 250.253381 144.688231 
L 249.33643 146.0827 
L 248.078501 148.908174 
L 247.299784 150.272195 
L 246.516459 151.727558 
L 246.018817 152.111189 
L 245.438235 152.056385 
L 242.64591 150.509681 
L 242.549147 150.266106 
L 242.572186 150.022531 
L 242.797968 149.517112 
L 242.738066 149.279626 
L 241.669058 148.226163 
L 239.309867 146.892588 
L 238.452817 146.527225 
L 236.181173 145.425046 
L 234.9555 144.633426 
L 233.375026 143.835717 
L 230.771621 142.295103 
L 230.306234 142.240299 
L 229.647319 142.355997 
L 228.582919 144.280242 
L 227.753515 145.668622 
L 227.11764 146.429794 
L 225.472657 149.224821 
L 225.233051 149.772866 
L 223.712479 152.525267 
L 223.588068 153.012418 
L 223.694047 153.475211 
L 224.104141 153.907557 
L 225.785987 154.96711 
L 226.813525 155.472529 
L 228.232726 156.15454 
L 228.753407 156.793925 
L 229.029875 157.104484 
L 229.522909 157.317612 
L 229.536732 157.268897 
L 230.278587 157.512472 
L 231.061913 157.902193 
L 232.107882 158.407612 
L 233.351987 158.943477 
L 233.683748 158.943477 
L 234.596092 159.381913 
L 235.471573 159.917779 
L 236.102841 160.344036 
L 236.135095 160.782471 
L 235.872451 161.367052 
L 236.047547 161.275711 
L 236.683423 160.715488 
L 237.351553 160.270963 
L 237.554296 159.881243 
L 237.554296 159.881243 
L 237.545081 159.862974 
L 237.512826 159.936047 
L 236.826265 161.446214 
L 236.52215 161.957722 
L 236.342446 162.310907 
L 236.079802 162.524035 
L 235.775687 162.450962 
L 235.651277 162.030795 
L 235.890882 160.855544 
L 235.637453 160.313589 
L 233.808159 159.150517 
L 232.651602 158.486774 
L 231.531908 157.883925 
L 230.605741 157.287165 
L 230.048197 156.866998 
L 229.278696 156.124093 
L 226.65686 154.77225 
L 226.403431 154.212027 
L 225.564812 153.797948 
L 224.749233 153.298619 
L 224.16865 153.036776 
L 222.164259 152.165994 
L 221.316425 151.946776 
L 220.551531 151.191692 
L 220.228985 150.479234 
L 219.141545 150.205212 
L 217.367544 149.413592 
L 217.238526 149.261358 
L 216.24785 148.634151 
L 215.842364 148.171358 
L 215.137371 147.793816 
L 214.897766 147.574599 
L 212.381909 146.898677 
L 210.474282 146.356722 
L 209.114982 145.772141 
L 206.06923 145.845214 
L 204.98179 145.97918 
L 203.857488 145.565102 
L 203.834449 145.674711 
L 203.645529 145.954823 
L 203.484256 146.040074 
L 203.170926 149.230911 
L 203.364454 149.200464 
L 203.62249 149.413592 
L 204.511795 149.578006 
L 205.327374 149.858117 
L 207.041474 150.138229 
L 208.115091 150.113871 
L 208.727928 150.655827 
L 209.253216 150.942028 
L 210.865945 151.435268 
L 213.248175 152.610519 
L 213.879443 153.061133 
L 215.856187 154.029345 
L 216.16491 154.187669 
L 216.87451 154.352082 
L 217.782246 154.942753 
L 218.335181 155.277669 
L 219.178408 155.630853 
L 219.911047 156.093646 
L 220.703588 156.666048 
L 220.851038 156.726942 
L 220.901723 156.3494 
L 221.11829 156.836551 
L 221.325641 157.025322 
L 221.542207 156.915713 
L 221.579069 156.489456 
L 221.205838 156.592975 
L 220.353396 157.457668 
L 219.196839 159.296662 
L 218.081753 161.799398 
L 217.855971 162.7737 
L 216.575003 165.245989 
L 212.584652 171.901685 
L 212.036325 172.114814 
L 210.465067 171.737272 
L 210.179383 171.639842 
L 209.280863 171.055261 
L 208.5344 170.464591 
L 207.847839 169.910457 
L 207.069121 169.575541 
L 206.050798 169.161463 
L 205.737468 169.100569 
L 205.041691 169.277161 
L 205.041691 169.277161 
L 204.806694 169.612077 
L 204.493363 170.622915 
L 204.345914 171.688557 
L 204.295228 172.486266 
L 203.921997 174.660176 
L 203.912781 176.127718 
L 203.954251 177.88146 
L 204.299836 178.252912 
L 206.336482 179.604756 
L 207.262649 180.091906 
L 207.889309 180.359839 
L 207.612841 181.23671 
L 207.069121 182.454587 
L 204.539441 187.46615 
L 204.650029 187.892406 
L 205.64992 188.811903 
L 206.907848 189.469557 
L 207.815584 189.938439 
L 208.640379 190.474305 
L 209.727819 190.997992 
L 209.962817 191.192852 
L 210.133305 191.728718 
L 209.690957 192.715198 
L 209.207138 193.652963 
L 208.386951 195.004806 
L 205.83884 199.839777 
L 204.401208 202.214636 
L 202.558089 206.063127 
L 202.645637 206.361506 
L 202.843773 206.562456 
L 205.092377 207.670724 
L 208.654203 209.820276 
L 208.543616 210.490108 
L 208.087444 211.841952 
L 205.041691 217.005749 
L 204.470325 218.089659 
L 203.041908 220.659379 
L 202.129564 222.589713 
L 201.82545 222.906361 
L 197.093244 231.376694 
L 193.231911 238.763116 
L 192.365646 240.681272 
L 191.656045 241.594679 
L 191.485557 241.807807 
L 190.693016 243.476299 
L 190.190766 244.468868 
L 187.601185 248.883671 
L 186.094436 251.806575 
L 186.020711 252.165849 
L 184.804253 253.998753 
L 184.025536 255.466295 
L 183.223779 256.836406 
L 182.454277 258.133444 
L 182.113301 258.864171 
L 181.680168 259.929813 
L 180.813902 261.257298 
L 180.187242 262.268136 
L 179.473034 263.778303 
L 174.38142 273.009808 
L 170.579988 279.963884 
L 169.695292 281.169582 
L 168.805987 282.892878 
L 168.529519 283.507905 
L 167.460511 285.018072 
L 166.465227 286.741368 
L 164.543776 290.504607 
L 163.806529 291.533713 
L 163.101536 293.062148 
L 162.230663 294.748907 
L 161.627042 295.784102 
L 156.30043 305.131306 
L 156.000923 305.764602 
L 155.581614 306.945942 
L 154.005748 309.783595 
L 153.111836 311.665214 
L 151.190385 314.916945 
L 150.568332 315.891247 
L 149.854124 316.889905 
L 149.407168 317.6389 
L 148.517863 319.429178 
L 147.812871 320.628787 
L 147.135525 321.944094 
L 146.227789 323.600406 
L 145.402994 324.891355 
L 137.938365 338.440233 
L 137.058276 339.834702 
L 133.063317 347.074979 
L 128.759636 355.423524 
L 128.174446 356.64749 
L 127.409552 357.609613 
L 126.916518 358.212461 
L 125.695452 360.471623 
L 122.281076 366.640168 
L 119.751396 370.981899 
L 118.350626 373.93525 
L 117.963571 374.635529 
L 117.802298 375.067875 
L 116.991326 376.316198 
L 116.5029 376.979941 
L 116.258687 377.534075 
L 115.424676 379.056421 
L 113.664498 382.436029 
L 111.973437 386.942173 
L 111.835203 387.447591 
L 110.936683 388.957759 
L 110.466688 389.402284 
L 109.936791 390.291334 
L 109.52209 391.070775 
L 108.356318 393.195969 
L 107.987694 393.969321 
L 105.338212 398.067476 
L 104.637827 398.986973 
L 104.144792 399.949096 
L 103.619504 400.984291 
L 101.730308 404.229932 
L 101.421585 404.869317 
L 99.818072 407.865294 
L 99.500135 408.69345 
L 99.288176 409.472891 
L 97.587899 412.864678 
L 96.205561 415.166465 
L 95.376158 416.274733 
L 94.155092 418.393838 
L 93.920094 418.807916 
L 93.357943 419.496017 
L 91.173848 422.839088 
L 90.754539 423.862104 
L 89.386023 426.18216 
L 88.998969 426.803277 
L 88.681031 426.96769 
L 88.026724 426.833724 
L 86.98997 426.18216 
L 82.644819 423.41149 
L 81.824631 423.088753 
L 80.345529 422.077915 
L 79.741907 421.554228 
L 77.700654 420.245011 
L 77.087817 419.964899 
L 76.875859 419.934452 
L 76.244591 420.677357 
L 76.097141 420.634731 
L 75.871359 420.458139 
L 75.539598 420.756519 
L 74.120397 422.936518 
L 73.876184 423.594172 
L 73.90383 423.673334 
L 73.954516 423.655065 
L 74.014418 423.636797 
L 73.516776 423.947356 
L 71.56307 427.667969 
L 70.761314 430.012382 
L 70.49867 430.9197 
L 70.318965 433.105789 
L 70.194555 436.765508 
L 70.26828 437.685005 
L 70.54014 438.214781 
L 70.636903 438.531429 
L 70.526316 440.053775 
L 70.365043 441.886679 
L 69.830539 444.858299 
L 69.296035 446.374555 
L 67.881442 449.851593 
L 67.517426 450.497068 
L 67.015176 451.635782 
L 62.877376 459.137903 
L 62.264539 460.380137 
L 60.034366 464.119018 
L 59.251041 465.263823 
L 54.689323 473.253094 
L 52.413072 477.23555 
L 49.339672 482.655102 
L 48.32135 484.84119 
L 47.809884 485.82767 
L 47.08646 487.106441 
L 44.7457 491.417724 
L 44.16051 492.800014 
L 43.298853 493.950908 
L 41.815142 496.819008 
L 39.147229 501.361688 
L 36.806469 506.038334 
L 35.225995 508.809004 
L 34.037183 511.250846 
L 33.332191 512.560064 
L 32.981998 513.424756 
L 32.258574 514.57565 
L 31.198781 516.158889 
L 30.47075 516.786096 
L 29.595269 517.796934 
L 26.369812 523.033803 
L 26.314518 523.441792 
L 25.498938 524.385646 
L 24.641888 525.786205 
L 23.512979 528.081902 
L 23.416215 528.374193 
L 21.596136 531.820784 
L 21.54545 532.411454 
L 21.904858 533.294414 
L 22.411715 533.495364 
L 23.586703 534.664526 
L 24.545125 535.011621 
L 25.125707 535.224749 
L 26.273048 535.815419 
L 27.802836 536.4 
L 28.466359 535.864134 
L 29.125273 535.620559 
L 29.73811 535.084693 
L 30.926922 533.081286 
L 31.258683 532.935141 
L 33.567188 533.787655 
L 33.857479 533.799833 
L 34.161594 534.092124 
L 34.203064 534.268716 
L 34.281397 534.146928 
" clip-path="url(#pd3a3b89a46)" style="fill: none; stroke: #000000; stroke-width: 3"/>
   </g>
  </g>
 </g>
 <defs>
  <clipPath id="pd3a3b89a46">
   <rect x="7.2" y="7.2" width="315.397153" height="554.4"/>
  </clipPath>
 </defs>
</svg>
