<?xml version="1.0" encoding="utf-8" standalone="no"?>
<!DOCTYPE svg PUBLIC "-//W3C//DTD SVG 1.1//EN"
  "http://www.w3.org/Graphics/SVG/1.1/DTD/svg11.dtd">
<svg xmlns:xlink="http://www.w3.org/1999/xlink" width="262.609478pt" height="568.8pt" viewBox="0 0 262.609478 568.8" xmlns="http://www.w3.org/2000/svg" version="1.1">
 <metadata>
  <rdf:RDF xmlns:dc="http://purl.org/dc/elements/1.1/" xmlns:cc="http://creativecommons.org/ns#" xmlns:rdf="http://www.w3.org/1999/02/22-rdf-syntax-ns#">
   <cc:Work>
    <dc:type rdf:resource="http://purl.org/dc/dcmitype/StillImage"/>
    <dc:date>2023-03-19T05:02:57.293407</dc:date>
    <dc:format>image/svg+xml</dc:format>
    <dc:creator>
     <cc:Agent>
      <dc:title>Matplotlib v3.7.1, https://matplotlib.org/</dc:title>
     </cc:Agent>
    </dc:creator>
   </cc:Work>
  </rdf:RDF>
 </metadata>
 <defs>
  <style type="text/css">*{stroke-linejoin: round; stroke-linecap: butt}</style>
 </defs>
 <g id="figure_1">
  <g id="patch_1">
   <path d="M 0 568.8 
L 262.609478 568.8 
L 262.609478 0 
L 0 0 
z
" style="fill: #ffffff"/>
  </g>
  <g id="axes_1">
   <g id="LineCollection_1">
    <path d="M 177.298135 32.4 
L 176.697394 34.391503 
L 175.96983 36.233202 
L 175.856356 36.779544 
L 175.576011 37.105586 
L 175.716184 37.343509 
L 176.603945 37.184894 
L 176.931015 37.220142 
L 177.912225 37.546184 
L 178.205921 37.599056 
L 179.173781 37.61668 
L 179.29393 37.669552 
L 179.994794 37.061526 
L 180.401963 37.017467 
L 181.229651 37.387569 
L 182.097387 37.643116 
L 182.59133 37.942722 
L 183.045223 38.039654 
L 183.412343 38.004406 
L 183.959684 38.47144 
L 184.653874 38.198269 
L 186.302574 38.938474 
L 187.063513 39.669866 
L 188.078098 40.392447 
L 189.479826 39.934225 
L 189.89367 39.555311 
L 189.780197 38.295201 
L 189.900345 37.836979 
L 190.307514 37.431629 
L 190.427662 37.21133 
L 190.975004 37.017467 
L 192.730503 38.259953 
L 193.391318 38.453816 
L 194.752997 39.088277 
L 196.915665 39.934225 
L 197.569805 40.04878 
L 198.944834 40.533438 
L 200.406637 41.009284 
L 202.469181 42.049095 
L 205.51961 44.36664 
L 205.813306 44.481196 
L 207.488705 45.529819 
L 208.21627 45.899921 
L 210.445686 47.600629 
L 213.048897 48.957671 
L 213.776461 48.957671 
L 214.971268 49.301338 
L 215.959153 49.777183 
L 217.48103 50.147286 
L 217.981648 50.43808 
L 219.016257 50.799371 
L 220.050867 51.389772 
L 220.83183 51.927301 
L 221.412546 52.041857 
L 222.560629 52.64107 
L 223.107971 52.755625 
L 225.197214 53.777813 
L 227.199684 55.20535 
L 227.79375 55.760504 
L 228.287693 56.4214 
L 229.035281 57.963493 
L 229.595973 59.752321 
L 230.183364 62.404721 
L 230.850854 64.731078 
L 231.571743 66.114555 
L 232.45283 67.427537 
L 233.053571 68.11487 
L 233.654312 68.537844 
L 234.595473 69.410228 
L 234.915868 69.436664 
L 235.149489 69.621715 
L 236.097325 70.027065 
L 236.838239 71.040441 
L 238.707211 74.318489 
L 239.601647 75.710779 
L 241.77099 78.574666 
L 243.886933 80.856963 
L 244.120554 81.394493 
L 244.127229 81.905586 
L 243.933657 83.104013 
L 243.913633 83.22738 
L 243.680011 83.280252 
L 243.633287 83.650354 
L 242.531928 86.382061 
L 242.231558 86.7786 
L 241.797689 87.90653 
L 241.056775 88.981589 
L 239.681746 92.030527 
L 239.314627 92.515185 
L 238.600412 94.277577 
L 238.166544 94.744611 
L 236.44442 97.9786 
L 235.476559 99.987726 
L 234.702271 101.459323 
L 233.300542 104.587569 
L 231.631817 107.759874 
L 231.204624 108.887805 
L 230.183364 110.791188 
L 229.509199 110.940991 
L 229.515874 111.178914 
L 229.235528 111.760504 
L 228.594738 112.430212 
L 228.401166 113.064673 
L 227.773725 114.016365 
L 226.679042 116.166483 
L 224.803395 119.039182 
L 224.195979 120.431471 
L 223.601913 121.444847 
L 222.82095 123.445161 
L 222.16681 124.484972 
L 221.058776 126.282612 
L 220.965328 126.793706 
L 220.538134 127.313611 
L 220.45136 127.877577 
L 219.783871 129.067191 
L 219.363352 129.349174 
L 218.902784 130.618096 
L 218.408841 131.305429 
L 217.147285 133.808025 
L 216.933688 134.433674 
L 215.718857 136.671912 
L 214.263729 139.024705 
L 213.903284 139.641542 
L 213.52949 139.99402 
L 212.962123 140.98096 
L 212.688452 141.315814 
L 211.667193 143.201574 
L 211.139876 144.003462 
L 210.405637 145.228324 
L 209.651373 146.382691 
L 209.451126 146.893784 
L 208.837035 148.092211 
L 208.556689 148.691424 
L 208.136171 149.290637 
L 207.989323 149.845791 
L 207.368557 150.912038 
L 206.093651 152.524626 
L 205.659783 153.811172 
L 205.259289 154.322266 
L 204.658548 155.432573 
L 204.505025 156.031786 
L 202.722827 158.97498 
L 201.988588 160.058851 
L 201.614794 160.587569 
L 201.134201 161.565696 
L 200.186365 163.01967 
L 199.966094 163.310464 
L 199.732472 163.847994 
L 199.605649 164.429583 
L 198.53099 166.200787 
L 197.543105 168.500708 
L 197.155961 168.976554 
L 196.281549 171.02974 
L 195.607384 172.448466 
L 195.24694 172.994807 
L 194.786372 173.461841 
L 194.412577 174.025806 
L 193.598239 176.043745 
L 190.921605 180.714083 
L 190.507761 181.304485 
L 190.060543 182.864201 
L 188.92581 184.79402 
L 187.924575 186.847207 
L 187.490706 187.53454 
L 186.342624 188.759402 
L 183.979709 192.989142 
L 183.832861 193.746971 
L 183.345594 194.354996 
L 182.991824 195.059953 
L 182.571305 195.518175 
L 182.144112 196.364123 
L 181.216301 197.809284 
L 180.568835 199.360189 
L 180.148317 200.021086 
L 179.447452 201.527931 
L 178.993559 202.003777 
L 178.653139 202.788041 
L 178.292695 203.316758 
L 178.112472 203.995279 
L 177.63188 204.726672 
L 177.037814 206.189457 
L 176.684044 206.753423 
L 176.343624 207.511251 
L 175.936455 208.084028 
L 175.429163 209.194335 
L 175.135467 209.573249 
L 174.868471 210.163651 
L 174.221006 211.044847 
L 173.880586 211.908419 
L 173.159697 212.657435 
L 172.886026 213.150905 
L 172.63238 213.917545 
L 171.864766 215.098348 
L 171.711244 215.530134 
L 171.110503 216.631629 
L 170.716684 216.957671 
L 170.389614 217.495201 
L 169.902346 217.838867 
L 169.495177 218.499764 
L 169.181457 219.504327 
L 166.891966 223.690008 
L 166.404699 224.253973 
L 165.30334 226.30716 
L 165.022994 227.003304 
L 164.569101 227.681825 
L 164.32213 228.386782 
L 162.720154 230.730763 
L 162.466508 231.559087 
L 162.159462 232.167113 
L 161.645495 233.612274 
L 161.378499 234.176239 
L 160.564161 235.462785 
L 159.302605 238.776082 
L 158.922136 240.291739 
L 157.713979 242.582848 
L 157.086539 244.195437 
L 156.859592 245.314555 
L 157.166638 246.319119 
L 156.732769 246.839024 
L 156.819543 247.156255 
L 156.632646 247.420614 
L 156.539197 247.817152 
L 156.672695 249.086074 
L 156.098654 250.117073 
L 155.67146 250.566483 
L 155.224242 251.597482 
L 155.084069 252.046892 
L 153.588891 252.787097 
L 153.0282 253.166011 
L 152.694455 253.694729 
L 152.367385 254.866719 
L 152.133763 255.386625 
L 151.099154 256.567427 
L 150.99903 256.93753 
L 149.357005 257.994965 
L 148.689515 258.990716 
L 148.082099 260.6738 
L 147.981976 261.228954 
L 147.568132 262.092526 
L 147.621531 262.453816 
L 146.934017 262.674115 
L 146.466774 262.771046 
L 146.253177 263.088277 
L 146.019555 263.705114 
L 146.032905 264.515814 
L 145.592362 265.115028 
L 145.218567 266.234146 
L 145.038345 267.970102 
L 144.864798 268.472384 
L 144.357505 268.807238 
L 144.130559 269.424076 
L 143.269497 270.428639 
L 142.935752 270.957356 
L 142.668756 271.591817 
L 142.02129 272.6845 
L 141.847743 273.318961 
L 140.619562 274.323525 
L 139.631676 276.094729 
L 139.030935 276.570574 
L 138.603742 277.099292 
L 137.809429 278.465146 
L 137.368885 279.037923 
L 136.74812 280.350905 
L 136.494474 281.170417 
L 135.76691 282.58033 
L 134.799049 285.126987 
L 134.471979 285.620456 
L 133.964687 286.016994 
L 133.310546 287.127301 
L 133.150349 287.920378 
L 133.250472 288.457907 
L 133.310546 289.391975 
L 132.849978 290.070496 
L 132.589657 290.8107 
L 132.182488 291.198426 
L 131.441575 291.427537 
L 130.994356 291.903383 
L 129.832924 293.753895 
L 129.305607 294.141621 
L 127.937252 296.106688 
L 126.468774 298.829583 
L 125.78126 301.499607 
L 125.44084 302.178127 
L 124.533054 303.094571 
L 124.125885 304.460425 
L 123.972362 305.385681 
L 123.391646 306.575295 
L 123.204749 307.130448 
L 122.557283 308.046892 
L 122.07669 308.408183 
L 121.883118 308.98096 
L 121.515999 309.492054 
L 120.548138 311.86247 
L 120.261118 312.267821 
L 117.624532 314.743981 
L 117.344187 315.299135 
L 117.097215 316.462313 
L 116.676697 317.66074 
L 116.569898 318.330448 
L 116.289553 318.87679 
L 115.902408 319.352636 
L 115.45519 319.661054 
L 113.212424 322.595437 
L 112.584983 323.837923 
L 112.231214 324.058222 
L 111.897469 324.675059 
L 111.83072 324.824862 
L 111.563724 324.965854 
L 110.709336 326.552006 
L 110.50909 326.825177 
L 109.594628 329.565696 
L 109.17411 329.98867 
L 108.82034 330.067978 
L 108.386471 331.098977 
L 108.1395 333.00236 
L 108.212924 333.760189 
L 107.83913 333.954052 
L 108.006002 334.412274 
L 107.732331 334.993863 
L 107.765706 335.117231 
L 107.358537 335.346341 
L 107.15829 335.593076 
L 106.570899 337.311408 
L 106.17708 337.875374 
L 106.157055 338.483399 
L 105.689812 339.496774 
L 105.189195 340.933124 
L 104.748651 341.752636 
L 103.787466 342.519276 
L 103.694017 343.233045 
L 103.82084 345.814949 
L 102.913054 347.127931 
L 101.84507 348.220614 
L 101.304403 349.983006 
L 99.989448 352.353423 
L 98.454221 354.256806 
L 97.846805 356.098505 
L 97.326163 356.644847 
L 96.445076 357.940205 
L 95.163495 359.165067 
L 93.601569 362.319748 
L 93.307873 363.218568 
L 92.52691 364.778285 
L 91.265354 365.79166 
L 89.937049 367.90653 
L 87.327163 371.898348 
L 85.291319 376.295515 
L 84.764002 376.797797 
L 83.53582 378.613061 
L 81.640149 381.961605 
L 81.279704 382.737057 
L 80.86586 383.353895 
L 80.585515 384.102911 
L 78.643119 387.239969 
L 77.58181 388.226908 
L 77.328164 388.843745 
L 76.740773 389.724941 
L 74.91185 392.659323 
L 73.94399 394.694886 
L 72.722483 396.668765 
L 71.994919 397.937687 
L 70.626565 400.20236 
L 70.526441 400.678206 
L 70.099247 401.277419 
L 69.805552 401.964752 
L 69.378358 402.563965 
L 69.164762 403.101495 
L 69.017914 403.859323 
L 68.383798 404.775767 
L 68.176876 405.269237 
L 67.763033 405.86845 
L 67.135592 407.912825 
L 66.761798 408.326987 
L 66.294555 409.076003 
L 66.30123 409.842644 
L 65.94746 410.529976 
L 64.96625 411.44642 
L 64.225336 412.063257 
L 63.798142 412.34524 
L 62.62336 413.852085 
L 61.635475 415.112195 
L 60.113598 417.11251 
L 59.499507 419.615106 
L 59.512857 420.364123 
L 58.998889 420.540362 
L 58.217926 422.399685 
L 57.804082 422.549489 
L 57.243391 422.805035 
L 54.233011 427.669237 
L 54.086163 428.171518 
L 53.558846 429.114398 
L 53.231776 430.321637 
L 52.724484 430.841542 
L 51.169232 434.198899 
L 49.30026 439.124784 
L 49.133388 439.794493 
L 47.110893 442.746499 
L 46.797173 443.389772 
L 45.889387 444.834933 
L 45.495568 445.716129 
L 44.627831 447.037923 
L 43.426349 449.258537 
L 43.553172 450.298348 
L 43.412999 451.258851 
L 42.291616 452.580645 
L 41.851072 453.171046 
L 41.390504 455.717703 
L 41.110159 456.501967 
L 40.723014 457.180488 
L 40.222397 457.735641 
L 39.047615 459.79764 
L 38.433524 461.145869 
L 37.926231 462.617467 
L 36.69805 463.630842 
L 36.264181 464.062628 
L 35.736864 465.428482 
L 35.616716 466.688592 
L 34.809053 467.481668 
L 33.774444 468.715342 
L 33.647621 469.340991 
L 33.427349 469.834461 
L 33.200403 470.935956 
L 32.993481 471.394178 
L 32.926732 471.940519 
L 32.566287 472.522109 
L 32.159118 472.821715 
L 31.878772 472.874587 
L 30.930937 472.21369 
L 30.617216 471.526357 
L 29.976426 470.883084 
L 29.762829 470.609913 
L 28.37445 469.975452 
L 28.100779 469.896145 
L 28.267652 470.09882 
L 28.094104 469.984264 
L 27.927232 469.931393 
L 27.666911 469.940205 
L 27.500038 469.931393 
L 27.373215 469.596538 
L 27.373215 469.596538 
L 26.832548 469.076633 
L 25.697815 467.957514 
L 25.477544 468.107317 
L 25.003626 467.825334 
L 24.74998 467.252557 
L 24.316111 466.95295 
L 23.695346 466.900079 
L 23.521798 466.521164 
L 23.168029 466.159874 
L 22.03997 465.82502 
L 21.459254 465.622345 
L 20.765065 465.384422 
L 20.858513 465.402046 
L 20.204373 465.675216 
L 20.150974 465.807396 
L 19.863953 466.080566 
L 19.677056 466.344925 
L 19.850603 466.27443 
L 20.992011 466.168686 
L 20.851838 466.09819 
L 20.124274 465.728088 
L 18.482249 465.216994 
L 18.795969 465.181747 
L 19.076315 465.172935 
L 20.144299 465.860268 
L 20.578167 466.292054 
L 22.173468 467.102754 
L 23.461724 467.878206 
L 26.011536 468.521479 
L 26.325256 468.724154 
L 27.032795 468.618411 
L 29.315611 470.565854 
L 30.71734 471.984579 
L 31.291381 472.116758 
L 32.339341 472.865775 
L 33.380625 473.632415 
L 33.954666 473.817467 
L 34.502008 474.196381 
L 36.317581 475.033517 
L 36.818198 475.438867 
L 38.947491 476.602046 
L 39.421409 477.042644 
L 40.128948 477.218883 
L 42.892357 478.593548 
L 45.34872 480.329504 
L 46.830548 481.263572 
L 47.718309 481.827537 
L 51.469603 483.316758 
L 51.863422 483.554681 
L 52.424113 484.065775 
L 52.824607 484.453501 
L 52.891356 484.321322 
L 52.938081 484.259638 
L 52.911381 484.109835 
L 53.251801 484.347758 
L 53.665645 484.823603 
L 54.032764 484.964595 
L 54.306435 484.973407 
L 54.346484 485.017467 
L 54.346484 485.017467 
L 54.466633 484.964595 
L 56.061934 485.475688 
L 56.215456 485.722423 
L 56.248831 486.674115 
L 56.836222 486.912038 
L 58.865391 487.114713 
L 59.345984 487.3262 
L 60.200371 487.960661 
L 62.656734 489.379386 
L 63.137327 489.855232 
L 64.392208 490.498505 
L 67.075518 491.459009 
L 67.783057 491.564752 
L 68.457222 491.873171 
L 69.772177 492.075846 
L 70.272795 492.516444 
L 70.833486 492.789614 
L 71.307404 492.895358 
L 71.667849 493.291896 
L 71.981569 493.917545 
L 72.308639 494.129032 
L 72.615685 495.239339 
L 73.169701 495.970732 
L 73.777117 496.067663 
L 74.24436 496.473013 
L 74.9252 496.834304 
L 77.388238 497.812431 
L 79.784527 498.940362 
L 80.398618 499.134225 
L 81.446577 499.777498 
L 82.534585 500.041857 
L 83.515796 500.517703 
L 85.638414 501.40771 
L 86.125681 501.566326 
L 87.387237 502.429898 
L 87.674258 502.879308 
L 88.635444 503.275846 
L 89.51653 504.051298 
L 94.596129 507.16192 
L 96.318253 508.043116 
L 96.885619 508.192919 
L 97.459661 508.474902 
L 98.073752 508.651141 
L 98.601069 508.924312 
L 99.168435 509.082927 
L 106.357302 513.982376 
L 108.293023 515.013375 
L 109.294258 515.498033 
L 109.821575 515.612589 
L 111.877444 516.52022 
L 113.312547 517.216365 
L 115.895733 518.917073 
L 116.836894 519.287175 
L 117.304137 519.639654 
L 117.704631 519.736585 
L 118.058401 520.089064 
L 118.46557 519.974508 
L 118.77929 519.701338 
L 119.219833 518.76727 
L 120.14097 517.736271 
L 120.608213 516.881511 
L 121.816369 516.167742 
L 122.897703 515.982691 
L 123.138 515.639024 
L 123.505119 515.550905 
L 124.526379 515.586153 
L 124.900173 515.436349 
L 126.034906 515.471597 
L 128.157524 515.030999 
L 129.178784 515.427537 
L 130.233418 515.79764 
L 131.975567 516.846263 
L 132.75653 518.185681 
L 133.450719 518.67915 
L 134.018086 519.701338 
L 134.178283 520.124312 
L 134.238358 520.670653 
L 135.012646 522.151062 
L 135.313016 523.067506 
L 135.192868 523.472856 
L 135.306341 523.746027 
L 135.172843 524.777026 
L 134.245032 527.781904 
L 134.498679 528.196066 
L 135.76691 529.315185 
L 137.148614 529.949646 
L 138.0564 530.46074 
L 146.907317 535.527616 
L 147.601506 535.99465 
L 148.956511 536.4 
L 149.383705 536.144453 
L 150.104594 534.910779 
L 151.33945 532.020456 
L 152.587656 530.231629 
L 152.941426 529.209441 
L 153.488768 528.425177 
L 153.909287 527.526357 
L 154.610151 526.46011 
L 154.656875 526.001888 
L 154.34983 525.711094 
L 153.515467 525.323367 
L 152.107064 524.821086 
L 150.451689 523.904642 
L 149.617326 523.375924 
L 148.749589 522.847207 
L 147.888527 522.27443 
L 146.873942 521.24343 
L 146.593597 520.344611 
L 146.593597 520.02738 
L 146.820543 518.952321 
L 147.00744 517.753895 
L 147.581482 516.326357 
L 148.275671 515.453973 
L 149.477153 513.391975 
L 150.03117 513.092368 
L 150.338215 512.634146 
L 150.732034 512.24642 
L 152.881352 512.043745 
L 153.642291 512.043745 
L 154.02276 512.123053 
L 154.329805 512.493155 
L 155.04402 513.039496 
L 155.504588 513.242172 
L 156.145378 513.286231 
L 157.386909 514.04406 
L 157.780728 514.079308 
L 159.042284 514.819512 
L 159.315955 515.224862 
L 159.489503 515.780016 
L 159.442778 517.577655 
L 158.948836 519.040441 
L 156.3523 524.715342 
L 156.36565 524.979701 
L 156.832893 524.732966 
L 159.00891 520.415106 
L 159.302605 519.489851 
L 159.389379 518.952321 
L 159.6497 518.529347 
L 159.763174 517.648151 
L 159.709774 517.225177 
L 159.936721 516.52022 
L 159.923371 515.75358 
L 159.789873 514.53753 
L 159.462803 513.95594 
L 159.522877 513.374351 
L 159.242531 512.78395 
L 159.269231 512.131865 
L 158.922136 510.563336 
L 158.701864 509.347286 
L 158.581716 509.056491 
L 158.621766 508.730448 
L 158.408169 508.254603 
L 158.127823 506.800629 
L 158.001 506.518647 
L 157.827453 505.381904 
L 157.540432 504.289221 
L 156.799518 501.90118 
L 156.525847 501.698505 
L 155.764909 501.522266 
L 153.729064 500.605822 
L 152.100389 499.566011 
L 151.406199 499.3369 
L 150.892232 498.667191 
L 150.812133 498.270653 
L 151.045755 497.909363 
L 151.059104 497.58332 
L 150.958981 497.733124 
L 150.845508 497.618568 
L 150.832158 497.697876 
L 150.578512 497.909363 
L 150.398289 498.129662 
L 150.311516 498.605507 
L 149.710775 499.927301 
L 148.909787 501.504642 
L 148.035375 502.200787 
L 147.681605 502.341778 
L 147.468008 502.623761 
L 147.027465 502.967427 
L 146.573572 503.16129 
L 144.838098 503.425649 
L 142.782229 503.892683 
L 142.261587 503.830999 
L 141.867768 504.024862 
L 141.39385 503.795751 
L 141.06678 503.892683 
L 140.285817 503.222974 
L 138.72389 502.236035 
L 137.72933 501.293155 
L 137.302136 500.59701 
L 135.993856 498.957986 
L 135.813634 498.614319 
L 135.259617 498.006294 
L 134.992621 497.697876 
L 134.231683 495.389142 
L 134.258382 493.961605 
L 134.338481 492.463572 
L 134.558753 492.296145 
L 134.845773 491.379701 
L 135.212893 490.604249 
L 135.41314 490.375138 
L 136.107329 490.401574 
L 136.801519 491.000787 
L 138.096449 491.564752 
L 138.543668 491.626436 
L 139.03761 491.846735 
L 139.371355 492.208025 
L 139.918697 492.4107 
L 141.460599 493.67081 
L 141.934517 493.75893 
L 142.381735 494.023289 
L 144.02376 494.305271 
L 145.338716 495.098348 
L 145.772584 495.406766 
L 146.740444 495.812116 
L 147.474683 496.376082 
L 147.941926 496.41133 
L 148.322396 496.622817 
L 149.029935 497.160346 
L 149.797548 497.7155 
L 150.071219 497.971046 
L 150.645261 497.944611 
L 150.992355 498.297089 
L 151.292726 498.217781 
L 151.019055 497.785995 
L 150.798783 497.504013 
L 148.022025 496.799056 
L 147.634881 496.649253 
L 146.813868 496.173407 
L 146.313251 496.023603 
L 145.906082 495.776869 
L 145.512263 495.688749 
L 144.891497 495.371518 
L 144.711275 495.292211 
L 146.133029 495.91786 
L 146.3533 495.803304 
L 146.727095 495.8738 
L 147.027465 496.464201 
L 147.608181 496.569945 
L 148.108799 496.508261 
L 149.37703 497.636192 
L 150.244767 497.724312 
L 150.278141 497.53926 
L 149.997795 497.283714 
L 147.294461 495.820928 
L 146.119679 495.160031 
L 145.225242 494.763493 
L 144.484328 494.217152 
L 144.030435 494.076161 
L 143.169373 493.485759 
L 142.40176 492.763179 
L 141.941192 492.613375 
L 140.719685 491.837923 
L 140.245767 491.679308 
L 139.811899 491.414949 
L 139.284582 491.282769 
L 137.041815 489.89048 
L 136.314251 489.476318 
L 136.033906 489.256019 
L 135.313016 489.476318 
L 135.119444 490.181275 
L 134.585452 490.163651 
L 133.444044 489.018096 
L 132.983476 488.974036 
L 132.249237 488.357199 
L 131.468274 487.678678 
L 130.940957 487.493627 
L 129.626002 486.78867 
L 128.77829 486.409756 
L 127.550108 485.4845 
L 126.4354 484.726672 
L 125.627737 484.259638 
L 125.12712 484.012903 
L 124.80005 484.012903 
L 121.956542 482.391503 
L 121.622797 482.356255 
L 121.295727 482.594178 
L 121.13553 482.911408 
L 120.881883 483.766168 
L 120.254443 484.753108 
L 120.120945 485.21133 
L 119.807225 485.546184 
L 119.326632 486.815106 
L 118.585718 488.039969 
L 117.417611 490.357514 
L 117.337512 490.7893 
L 116.516499 492.084658 
L 115.875709 493.071597 
L 115.528614 493.450511 
L 114.547404 495.591817 
L 114.273733 495.891424 
L 114.086836 496.358458 
L 113.773115 496.552321 
L 113.372621 497.160346 
L 113.272498 497.618568 
L 112.297963 499.345712 
L 111.944193 499.530763 
L 111.743946 500.570574 
L 111.189929 501.213847 
L 110.936283 501.566326 
L 110.45569 502.71188 
L 109.8416 503.593076 
L 109.087336 505.240913 
L 108.399821 506.730134 
L 108.119475 507.038552 
L 107.82578 507.752321 
L 107.47201 508.413218 
L 106.917994 509.655704 
L 106.577574 510.395909 
L 106.337277 510.669079 
L 105.883384 511.409284 
L 105.316018 512.052557 
L 105.12912 512.69583 
L 105.436166 513.083556 
L 105.923434 513.356727 
L 107.545434 513.832573 
L 107.298463 513.700393 
L 106.971393 513.427223 
L 106.270528 512.898505 
L 105.502915 512.422659 
L 105.255944 512.114241 
L 105.229244 511.594335 
L 105.416141 511.144925 
L 105.643088 510.951062 
L 106.871269 508.977183 
L 107.178315 508.677577 
L 107.451986 507.796381 
L 108.086101 507.020928 
L 107.45866 506.809441 
L 106.964718 507.294099 
L 106.664347 507.258851 
L 105.242594 506.095673 
L 103.613918 505.170417 
L 102.759531 504.562392 
L 102.445811 504.201101 
L 101.578074 503.778127 
L 100.436666 502.932179 
L 98.260649 501.487018 
L 97.239389 500.834933 
L 94.148911 499.566011 
L 93.381297 499.134225 
L 91.425552 498.270653 
L 90.644588 497.62738 
L 89.930374 497.098662 
L 89.082662 496.746184 
L 88.1949 496.32321 
L 87.320488 495.768057 
L 85.591689 494.842801 
L 85.191195 494.737057 
L 83.689343 493.970417 
L 83.2488 493.838238 
L 81.766972 493.142093 
L 80.959309 492.736743 
L 80.598864 492.4107 
L 80.091572 492.349017 
L 77.808756 490.974351 
L 76.166731 490.313454 
L 76.6006 489.84642 
L 76.947694 488.903541 
L 77.26809 488.49819 
L 77.521736 487.423131 
L 78.382798 485.387569 
L 78.943489 484.585681 
L 79.25721 484.400629 
L 80.405292 484.876475 
L 81.152881 485.317073 
L 81.520001 485.458065 
L 83.54917 486.735799 
L 84.824076 487.493627 
L 85.598364 487.916601 
L 86.292554 488.286703 
L 86.586249 488.603934 
L 87.460661 489.026908 
L 88.261649 489.115028 
L 88.254974 489.458694 
L 87.741007 490.454445 
L 87.640884 490.736428 
L 86.452751 492.384264 
L 86.753122 492.490008 
L 87.320488 491.256334 
L 86.940019 491.926042 
L 86.646324 492.190401 
L 85.718512 494.12022 
L 85.925434 494.604878 
L 86.259179 494.851613 
L 87.260414 495.098348 
L 87.574135 495.309835 
L 87.834456 495.715185 
L 89.51653 496.957671 
L 89.716777 497.195594 
L 89.950399 497.257278 
L 90.244094 497.098662 
L 90.310843 496.763808 
L 90.330868 496.534697 
L 90.651263 496.270338 
L 90.397617 496.614005 
L 90.157321 497.186782 
L 90.010473 497.468765 
L 90.17067 497.327773 
L 91.412202 497.724312 
L 92.473511 497.98867 
L 93.127651 498.552636 
L 94.349158 499.116601 
L 94.896499 499.707002 
L 95.236919 499.768686 
L 95.86436 500.174036 
L 96.17808 500.27978 
L 96.478451 499.87443 
L 96.318253 499.645319 
L 96.685372 499.002046 
L 97.346188 497.909363 
L 97.686607 497.653816 
L 97.953603 496.86074 
L 98.794641 496.085287 
L 99.215159 495.10716 
L 99.20181 494.640126 
L 99.602304 493.80299 
L 99.588954 493.380016 
L 100.283143 493.159717 
L 100.48339 492.833674 
L 100.883884 491.652872 
L 101.331103 491.318017 
L 101.324428 491.071282 
L 100.276468 490.278206 
L 99.809225 489.740677 
L 99.8693 489.749489 
L 101.638148 490.480881 
L 101.50465 490.516129 
L 100.470041 491.978914 
L 100.229744 492.683871 
L 99.849275 493.644375 
L 99.18846 494.737057 
L 99.16176 495.071912 
L 99.608978 495.574194 
L 101.497975 496.428954 
L 101.724922 496.746184 
L 103.587219 497.504013 
L 105.422816 498.138474 
L 105.589689 498.43808 
L 106.130355 498.623131 
L 106.4641 498.869866 
L 108.019352 499.160661 
L 108.980538 499.795122 
L 109.100686 500.165224 
L 109.340982 500.517703 
L 109.294258 500.68513 
L 109.401056 500.808497 
L 109.975098 500.958301 
L 110.649262 501.160976 
L 112.918728 502.826436 
L 115.381766 504.483084 
L 118.739241 505.831314 
L 119.426755 505.831314 
L 120.594863 503.637136 
L 121.342452 502.764752 
L 122.45716 501.363651 
L 122.590658 500.350275 
L 122.824279 499.918489 
L 122.804255 499.42502 
L 123.41167 497.662628 
L 123.46507 497.001731 
L 123.191399 496.790244 
L 122.510559 496.649253 
L 120.79511 495.15122 
L 119.513529 493.829426 
L 119.046286 493.635563 
L 118.245298 493.150905 
L 117.397586 492.648623 
L 116.930343 492.445948 
L 116.609948 492.146341 
L 116.276203 492.084658 
L 116.029231 492.216837 
L 114.614153 494.684186 
L 114.600803 495.124784 
L 114.453955 495.679937 
L 114.240358 495.891424 
L 114.153585 496.23509 
L 113.966687 496.464201 
L 112.364712 496.102911 
L 112.311312 495.759245 
L 111.670522 495.55657 
L 111.236654 495.230527 
L 110.802785 495.168843 
L 110.028497 494.65775 
L 108.620093 493.626751 
L 108.45322 493.150905 
L 107.685607 492.560504 
L 106.857919 492.13753 
L 106.103656 491.64406 
L 103.934313 490.771676 
L 101.798346 490.190087 
L 101.411201 489.93454 
L 100.937284 489.819984 
L 100.249769 489.256019 
L 99.669053 488.744925 
L 99.168435 488.454131 
L 98.681167 488.313139 
L 97.473011 487.608183 
L 97.439636 487.678678 
L 97.366212 487.625806 
L 97.286113 487.484815 
L 96.144706 486.726987 
L 95.744212 486.709363 
L 95.009973 486.259953 
L 94.622829 486.083714 
L 93.715042 485.519748 
L 92.159791 484.709048 
L 91.53235 484.365382 
L 91.272029 484.277262 
L 91.045082 484.427065 
L 91.171905 484.6738 
L 90.998358 485.378757 
L 90.898235 485.784107 
L 90.404292 486.321637 
L 90.21072 486.533124 
L 89.316283 487.934225 
L 88.815666 488.515814 
L 88.448546 488.63037 
L 87.400587 488.075216 
L 86.012208 487.317388 
L 83.689343 486.33926 
L 83.2488 486.259953 
L 81.313079 485.317073 
L 80.925935 485.308261 
L 79.851276 484.902911 
L 79.764502 485.026279 
L 79.844601 485.246577 
L 81.920495 486.445004 
L 84.697253 487.863729 
L 85.057697 488.163336 
L 86.098982 488.551062 
L 86.846571 489.115028 
L 87.340513 489.317703 
L 87.86783 489.379386 
L 88.388472 489.229583 
L 89.089337 488.63037 
L 89.376357 488.242644 
L 89.690078 488.084028 
L 90.18402 487.28214 
L 90.304168 486.850354 
L 90.691313 486.224705 
L 90.944959 485.466876 
L 91.098482 484.867663 
L 91.125181 484.532809 
L 90.163996 483.598741 
L 89.289584 483.307946 
L 88.935814 483.166955 
L 88.341748 482.585366 
L 87.507386 481.862785 
L 86.639649 481.378127 
L 85.177846 480.285445 
L 79.951399 477.694729 
L 79.524206 477.368686 
L 79.030263 477.192447 
L 77.655234 476.381747 
L 75.659439 475.430055 
L 74.878476 474.645791 
L 73.910615 474.117073 
L 72.542261 473.738159 
L 72.008269 473.288749 
L 71.567725 472.997954 
L 65.660439 469.984264 
L 65.226571 469.904957 
L 64.846101 469.684658 
L 64.178612 469.578914 
L 63.431023 469.28812 
L 63.057228 469.006137 
L 62.182817 468.741778 
L 61.174907 468.036821 
L 60.874536 467.596223 
L 61.95587 465.543037 
L 62.463162 464.089064 
L 62.810257 463.295987 
L 63.64462 462.397168 
L 63.91829 462.502911 
L 64.118537 462.820142 
L 64.532381 463.110936 
L 65.440168 463.295987 
L 66.735098 464.124312 
L 67.729658 464.423918 
L 68.090103 464.644217 
L 68.497272 464.661841 
L 68.884416 465.058379 
L 73.069578 466.811959 
L 76.667349 468.979701 
L 79.21716 470.900708 
L 81.279704 472.002203 
L 81.766972 472.407553 
L 82.915055 472.821715 
L 83.849541 473.412116 
L 84.296759 473.570732 
L 84.810726 473.887962 
L 85.418142 473.976082 
L 88.795641 475.800157 
L 89.249534 476.205507 
L 89.85695 476.434618 
L 90.911584 477.095515 
L 94.789701 479.148702 
L 97.072517 480.179701 
L 99.061637 481.519119 
L 99.482155 481.527931 
L 101.918494 483.061212 
L 103.173375 483.563493 
L 104.281408 484.391817 
L 106.457425 485.810543 
L 107.478685 486.453816 
L 109.107361 487.246892 
L 110.802785 488.163336 
L 113.713041 489.837608 
L 114.534054 490.146027 
L 114.974597 489.943352 
L 115.288318 489.643745 
L 116.483125 487.661054 
L 117.097215 486.506688 
L 117.631207 485.687175 
L 117.577808 485.176082 
L 117.257413 484.71786 
L 114.560754 483.343194 
L 113.512794 482.832101 
L 110.983007 481.395751 
L 109.314282 480.532179 
L 107.47201 479.395437 
L 106.764471 478.681668 
L 105.349392 478.091267 
L 104.875474 477.782848 
L 103.006502 477.095515 
L 102.646058 476.672541 
L 101.377827 476.011644 
L 100.490065 475.500551 
L 99.902674 475.403619 
L 99.008238 474.813218 
L 98.48092 474.672227 
L 97.813431 474.249253 
L 96.318253 473.482612 
L 93.314548 471.535169 
L 92.306638 470.46011 
L 91.305403 470.037136 
L 89.776851 469.517231 
L 89.075987 469.208812 
L 88.682168 469.067821 
L 88.648793 468.600787 
L 88.962514 467.666719 
L 89.062637 467.217309 
L 89.262884 466.908891 
L 89.463131 466.459481 
L 89.523205 466.380173 
L 89.316283 466.265618 
L 89.289584 466.380173 
L 89.269559 466.371361 
L 89.035938 466.477105 
L 88.942489 466.785523 
L 88.388472 467.102754 
L 88.021353 467.261369 
L 87.941254 467.701967 
L 87.727657 467.878206 
L 87.020118 467.842958 
L 86.673023 467.842958 
L 85.257944 467.111566 
L 84.350158 466.820771 
L 83.869565 466.653344 
L 83.368948 466.292054 
L 82.100717 465.763336 
L 80.445342 464.820456 
L 79.8713 464.626593 
L 78.983539 464.02738 
L 78.322724 463.525098 
L 77.575135 463.21668 
L 77.25474 462.908261 
L 76.981069 462.837766 
L 76.553875 462.555783 
L 76.353628 462.212116 
L 74.237685 461.55122 
L 72.141767 460.211802 
L 71.707898 459.780016 
L 71.127182 459.594965 
L 70.653264 459.718332 
L 69.825577 459.445161 
L 67.289115 458.290795 
L 67.062168 458.070496 
L 66.821872 457.673958 
L 66.788497 457.23336 
L 66.948695 456.678206 
L 67.375888 456.167113 
L 67.969954 454.501652 
L 68.457222 453.532337 
L 68.343749 452.386782 
L 68.57737 452.043116 
L 69.031264 451.664201 
L 69.545231 451.602518 
L 70.012474 451.849253 
L 72.034968 453.523525 
L 73.356598 454.387097 
L 73.750418 454.62502 
L 74.297759 454.748387 
L 75.479217 455.47978 
L 76.453752 455.858694 
L 76.94102 456.316916 
L 78.336074 456.969001 
L 79.263885 457.515342 
L 80.358568 458.193863 
L 82.481186 459.057435 
L 83.375623 459.6214 
L 83.882915 459.815264 
L 84.657203 460.511408 
L 88.048052 462.379544 
L 89.222835 462.828954 
L 94.135561 465.428482 
L 94.582779 465.816208 
L 95.21022 466.054131 
L 96.284879 466.63572 
L 97.399587 467.208497 
L 97.679933 467.622659 
L 98.868065 468.812274 
L 100.797111 469.808025 
L 101.691547 470.292683 
L 103.266823 471.173879 
L 104.027762 471.737844 
L 104.388207 471.693784 
L 105.015647 471.200315 
L 105.18252 471.041699 
L 105.342717 471.024076 
L 105.643088 471.279622 
L 105.963483 472.090323 
L 106.537524 472.6631 
L 107.225039 472.830527 
L 110.776085 474.584107 
L 111.236654 475.007081 
L 112.217864 475.394807 
L 114.113535 476.760661 
L 114.700926 476.919276 
L 117.511059 478.637608 
L 118.378796 478.990087 
L 119.052961 479.571676 
L 122.74418 481.439811 
L 124.780025 482.761605 
L 125.607712 483.77498 
L 127.576808 484.488749 
L 128.064075 484.946971 
L 130.066545 486.259953 
L 130.667286 486.374508 
L 131.835394 486.96491 
L 132.396085 487.414319 
L 133.42402 487.978285 
L 134.71895 489.018096 
L 136.461099 490.066719 
L 137.041815 490.445633 
L 137.495709 490.956727 
L 139.41808 492.040598 
L 140.639586 492.683871 
L 142.989151 493.926357 
L 143.603242 494.102596 
L 144.637851 494.710622 
L 145.759234 495.283399 
L 148.289021 496.781432 
L 149.477153 497.204406 
L 151.085804 498.067978 
L 151.486298 498.43808 
L 153.809163 499.680566 
L 154.283081 499.847994 
L 155.130793 500.403147 
L 156.579246 501.116916 
L 156.919666 501.037608 
L 157.453658 500.085917 
L 157.493708 499.451456 
L 157.33351 498.667191 
L 157.066514 498.067978 
L 156.859592 496.631629 
L 156.612621 495.909048 
L 154.903847 493.829426 
L 154.116208 492.111094 
L 153.849212 491.273958 
L 153.388644 490.674744 
L 153.108299 490.101967 
L 152.207187 489.000472 
L 149.917697 484.920535 
L 149.577277 483.90716 
L 149.063309 483.078836 
L 148.762939 482.180016 
L 148.362445 480.89347 
L 148.929811 480.408812 
L 149.216832 480.303068 
L 149.590627 479.941778 
L 149.583952 479.580488 
L 149.537227 479.245633 
L 149.02326 478.417309 
L 148.923137 478.15295 
L 147.581482 477.095515 
L 147.054165 476.822345 
L 145.392115 475.403619 
L 144.03711 473.949646 
L 142.495208 472.522109 
L 141.807694 471.825964 
L 140.652936 470.962392 
L 139.751825 470.275059 
L 137.395585 468.785838 
L 135.826984 467.834146 
L 135.079395 467.252557 
L 132.976801 466.062943 
L 131.955542 465.296302 
L 130.493739 464.282927 
L 129.786199 463.763021 
L 128.731565 463.146184 
L 127.583483 462.546971 
L 125.240593 461.454288 
L 123.999062 461.084186 
L 122.357036 460.238238 
L 121.182254 459.762392 
L 120.054196 459.286546 
L 117.390911 458.246735 
L 116.362976 457.568214 
L 112.638382 455.779386 
L 112.15779 455.3476 
L 111.156555 454.633832 
L 110.749386 454.369473 
L 110.208719 454.166798 
L 109.701427 453.708576 
L 108.633443 453.197482 
L 105.863359 452.025492 
L 105.302668 451.743509 
L 104.354832 451.003304 
L 102.893029 450.148544 
L 100.703662 448.650511 
L 100.14297 448.403777 
L 100.056197 448.157042 
L 99.862625 447.998426 
L 99.48883 447.892683 
L 99.602304 447.637136 
L 96.511825 445.557514 
L 95.016648 444.72919 
L 92.319988 443.539575 
L 91.692548 443.451456 
L 89.776851 442.499764 
L 89.383032 442.191345 
L 88.982538 442.147286 
L 88.735567 441.918175 
L 89.743477 439.891424 
L 90.17067 438.675374 
L 90.704662 437.600315 
L 91.385502 436.401888 
L 91.612449 436.595751 
L 91.966218 436.657435 
L 93.20775 437.283084 
L 93.448046 437.679622 
L 96.371652 438.61369 
L 96.81887 438.878049 
L 98.427521 439.274587 
L 98.868065 439.547758 
L 99.642353 440.199843 
L 100.149645 440.296774 
L 101.80502 440.957671 
L 102.265589 441.045791 
L 103.133325 441.318961 
L 104.047787 442.253029 
L 104.942223 442.799371 
L 106.657672 443.839182 
L 107.151615 443.997797 
L 107.47201 444.350275 
L 108.920463 444.923053 
L 110.382266 445.636821 
L 112.317987 446.597325 
L 113.359272 447.046735 
L 114.073486 447.645948 
L 115.054696 448.342093 
L 116.209454 448.800315 
L 116.302902 448.765067 
L 116.469775 448.923682 
L 116.957043 448.888434 
L 117.050491 449.020614 
L 118.091775 450.571518 
L 118.205249 450.765382 
L 118.926138 451.382219 
L 119.299932 451.47915 
L 119.653702 451.752321 
L 120.10092 451.919748 
L 120.387941 452.228167 
L 120.861859 452.351534 
L 121.242328 452.659953 
L 122.043316 452.87144 
L 122.650732 453.23273 
L 123.43837 453.400157 
L 123.431695 453.68214 
L 123.77879 453.805507 
L 124.472979 453.699764 
L 124.212658 453.876003 
L 124.639852 454.069866 
L 125.060371 454.202046 
L 125.360741 454.44878 
L 125.507589 454.739575 
L 126.155054 454.995122 
L 126.515499 454.889378 
L 127.07619 455.100865 
L 127.636882 455.206609 
L 127.957277 455.3476 
L 128.237623 455.400472 
L 128.671491 456.017309 
L 128.831689 456.281668 
L 129.485829 456.554839 
L 129.859623 456.73989 
L 130.200043 456.757514 
L 130.607212 457.039496 
L 131.42155 457.303855 
L 131.855418 457.268607 
L 132.336011 457.083556 
L 132.749855 456.731078 
L 132.863328 456.308104 
L 134.124884 454.545712 
L 134.438605 454.096302 
L 135.04602 453.576397 
L 135.299667 452.950747 
L 136.09398 452.518961 
L 136.70807 452.563021 
L 137.295462 452.959559 
L 137.976301 453.717388 
L 138.783964 454.290165 
L 143.796814 456.836821 
L 144.397555 457.030685 
L 144.958246 457.480094 
L 147.514733 458.599213 
L 149.183458 459.735956 
L 150.798783 460.56428 
L 154.403229 462.846577 
L 154.082834 463.542722 
L 153.715714 464.512038 
L 153.108299 466.864831 
L 152.747854 469.526042 
L 152.721154 470.424862 
L 152.667755 470.812589 
L 152.734504 471.729032 
L 152.741179 472.134382 
L 153.188397 472.627852 
L 153.401994 472.795279 
L 153.842538 472.804091 
L 155.090744 472.416365 
L 155.551312 472.240126 
L 156.178752 471.570417 
L 156.452423 470.398426 
L 156.806193 468.186625 
L 157.300136 466.018883 
L 157.653905 465.446105 
L 157.9743 464.300551 
L 158.434868 463.868765 
L 158.528317 463.683714 
L 158.408169 463.586782 
L 158.401494 463.154996 
L 158.227947 463.110936 
L 158.181222 462.917073 
L 158.761939 461.974194 
L 159.075659 461.242801 
L 160.517437 458.273171 
L 162.139438 454.801259 
L 162.279611 454.290165 
L 163.01385 452.968371 
L 163.65464 451.664201 
L 164.609151 450.130921 
L 164.836097 449.778442 
L 165.33004 448.377341 
L 165.783933 447.716444 
L 166.351299 446.905744 
L 166.725094 446.526829 
L 166.771818 446.095043 
L 167.265761 445.019984 
L 167.506057 444.905429 
L 167.712979 445.019984 
L 167.64623 445.460582 
L 167.31916 446.200787 
L 167.312485 446.553265 
L 166.62497 447.549017 
L 165.98418 449.214477 
L 165.817307 450.985681 
L 165.403464 451.778757 
L 164.882821 452.46609 
L 162.913726 454.316601 
L 161.572071 456.017309 
L 161.271701 456.422659 
L 161.118178 456.863257 
L 160.517437 457.524154 
L 160.350565 457.973564 
L 159.302605 459.524469 
L 157.426959 463.595594 
L 157.326835 463.992132 
L 156.886292 465.031943 
L 156.078629 467.331865 
L 155.925106 468.70653 
L 155.64476 470.847836 
L 155.537962 471.455862 
L 155.290991 471.984579 
L 155.210892 472.240126 
L 154.790373 472.160818 
L 154.082834 471.958143 
L 153.789138 472.310622 
L 153.689015 472.909835 
L 153.69569 473.509048 
L 153.648965 474.222817 
L 153.628941 474.575295 
L 153.428694 475.112825 
L 153.435369 475.571046 
L 152.460833 475.861841 
L 149.644026 474.73391 
L 146.840568 473.06845 
L 145.592362 472.513297 
L 145.158493 471.817152 
L 145.278641 471.341306 
L 146.560222 470.239811 
L 147.34786 469.147128 
L 147.608181 468.43336 
L 148.182223 467.798899 
L 149.083334 466.485917 
L 149.750824 465.208183 
L 150.478388 464.168371 
L 150.845508 463.428167 
L 151.800018 461.947758 
L 151.70657 461.295673 
L 151.526347 460.952006 
L 150.725359 460.414477 
L 150.117944 460.352793 
L 150.084569 460.670024 
L 150.264791 460.934382 
L 150.531787 461.031314 
L 150.465038 460.916758 
L 149.36368 459.603777 
L 145.872707 457.700393 
L 145.265292 457.515342 
L 144.497678 456.924941 
L 142.922402 456.158301 
L 142.221537 456.017309 
L 141.867768 455.673643 
L 140.39929 454.827695 
L 138.803989 454.078678 
L 137.268762 453.329662 
L 137.195338 453.003619 
L 137.248737 452.624705 
L 137.909552 451.329347 
L 139.518203 448.086546 
L 139.891997 447.875059 
L 140.219068 447.830999 
L 140.913257 448.095358 
L 141.574072 448.394965 
L 142.768879 449.329032 
L 143.196073 449.417152 
L 145.38544 450.465775 
L 146.38 450.906373 
L 146.753794 451.179544 
L 147.214362 451.320535 
L 148.095449 451.831629 
L 149.543902 452.413218 
L 150.511763 452.721637 
L 150.905582 453.030055 
L 152.200512 453.558773 
L 155.824983 455.356412 
L 156.212127 455.426908 
L 156.612621 455.285917 
L 156.986415 455.303541 
L 158.454893 454.907002 
L 158.868737 454.457592 
L 159.683075 453.065303 
L 159.743149 452.659953 
L 159.643025 452.281039 
L 158.528317 451.734697 
L 157.854152 451.646577 
L 155.631411 450.122109 
L 155.437839 449.85775 
L 154.369855 449.267349 
L 154.149583 449.311408 
L 154.189632 449.417152 
L 154.436604 449.514083 
L 154.556752 449.875374 
L 155.210892 450.589142 
L 156.639321 451.796381 
L 157.36021 452.140047 
L 157.607181 452.369158 
L 157.880852 452.360346 
L 158.368119 452.615893 
L 159.369354 452.518961 
L 159.763174 452.307474 
L 161.605446 450.227852 
L 164.262056 446.465146 
L 164.435603 446.112667 
L 164.388879 445.619197 
L 165.116443 443.275216 
L 165.510262 442.825806 
L 165.930781 441.724312 
L 166.050929 440.640441 
L 166.411373 438.52557 
L 166.711744 438.093784 
L 166.438073 437.150905 
L 166.111003 436.163965 
L 166.364649 434.163651 
L 166.95204 431.925413 
L 167.365884 430.885602 
L 167.753028 427.404878 
L 167.686279 426.409127 
L 167.753028 425.439811 
L 168.140172 422.875531 
L 168.393819 422.752164 
L 168.934486 421.518489 
L 169.007909 419.808969 
L 168.854387 418.954209 
L 168.961185 417.782219 
L 168.961185 416.715972 
L 169.328305 415.614477 
L 169.561926 415.094571 
L 169.601975 414.627537 
L 170.98368 410.5476 
L 171.664519 409.490165 
L 171.864766 409.261054 
L 172.145112 408.512038 
L 172.525582 408.512038 
L 172.912726 408.362234 
L 173.246471 408.43273 
L 173.099623 408.52085 
L 173.213096 408.617781 
L 173.460067 408.441542 
L 173.920636 407.595594 
L 174.354504 406.802518 
L 174.548076 406.881825 
L 174.588125 407.031629 
L 174.447953 407.243116 
L 174.447953 407.163808 
L 174.241031 407.181432 
L 174.441278 406.696774 
L 174.668224 405.991817 
L 174.461302 405.859638 
L 174.6482 405.50716 
L 174.6482 405.771518 
L 174.694924 406.141621 
L 174.97527 406.291424 
L 174.808397 406.828954 
L 173.913961 407.066876 
L 173.873911 406.696774 
L 173.680339 407.022817 
L 173.453393 407.207868 
L 173.186397 407.102124 
L 173.213096 407.040441 
L 173.466742 407.710149 
L 173.733738 407.948072 
L 172.732503 409.305114 
L 172.425458 410.5476 
L 172.311985 411.305429 
L 171.237326 414.14288 
L 170.930281 414.777341 
L 170.896906 415.535169 
L 170.396289 415.984579 
L 170.049194 417.218253 
L 169.495177 418.936585 
L 169.134733 419.394807 
L 168.600741 419.844217 
L 168.65414 420.364123 
L 168.280345 421.615421 
L 167.906551 423.333753 
L 167.746353 423.642172 
L 167.372559 423.985838 
L 167.519407 424.629111 
L 167.359209 425.307632 
L 167.372559 426.047836 
L 167.252411 426.805665 
L 167.345859 427.431314 
L 166.551546 429.12321 
L 166.264526 430.101338 
L 166.351299 431.23808 
L 166.197777 432.744925 
L 165.750558 434.613061 
L 165.63041 435.476633 
L 165.650435 436.075846 
L 165.31669 438.014477 
L 165.363414 438.393391 
L 165.209892 439.195279 
L 165.209892 440.552321 
L 164.869472 442.094414 
L 164.796048 443.028482 
L 164.268731 444.385523 
L 164.141908 444.711566 
L 164.248706 445.125728 
L 164.068484 446.086231 
L 163.868237 446.253659 
L 163.961685 446.641385 
L 163.828187 447.090795 
L 163.908286 447.090795 
L 164.108533 446.870496 
L 164.081834 446.526829 
L 164.33548 446.227223 
L 164.021759 445.460582 
L 163.033874 445.055232 
L 162.67343 444.967113 
L 162.025964 444.649882 
L 161.204952 444.165224 
L 160.544137 443.530763 
L 160.891232 443.610071 
L 161.198277 443.821558 
L 162.526582 444.1476 
L 162.813603 444.359087 
L 163.65464 445.45177 
L 163.360944 446.412274 
L 162.706804 447.751692 
L 162.34636 448.712195 
L 161.985915 449.566955 
L 161.184927 451.197168 
L 160.390614 452.880252 
L 159.589626 454.739575 
L 158.948836 455.550275 
L 158.481593 455.717703 
L 158.127823 455.973249 
L 157.146613 456.219984 
L 156.125353 456.255232 
L 155.651435 456.184736 
L 154.356505 455.515028 
L 153.989385 455.197797 
L 152.654405 454.572148 
L 151.699895 454.04343 
L 149.483828 452.87144 
L 149.103359 452.607081 
L 148.435869 451.840441 
L 147.72833 451.426279 
L 145.792609 449.866562 
L 144.898172 449.399528 
L 144.417579 449.099921 
L 143.389645 448.782691 
L 142.40176 448.209913 
L 142.001266 447.875059 
L 140.452689 447.240598 
L 140.265792 447.099607 
L 140.259117 447.231786 
L 139.645026 447.046735 
L 137.802754 446.341778 
L 136.901642 445.795437 
L 134.678901 444.526515 
L 133.771115 444.262156 
L 133.370621 443.839182 
L 132.956777 443.724626 
L 132.549608 443.407396 
L 132.149114 443.24878 
L 131.73527 442.861054 
L 131.288052 442.605507 
L 130.213393 442.253029 
L 127.576808 441.13391 
L 126.348626 440.719748 
L 124.366181 439.697561 
L 123.76544 439.574194 
L 123.76544 439.51251 
L 123.75209 439.565382 
L 123.651967 439.336271 
L 123.458395 438.922109 
L 122.904378 438.455075 
L 122.44381 438.340519 
L 122.056666 438.12022 
L 121.616122 438.014477 
L 120.915258 437.459323 
L 118.832689 436.181589 
L 117.244063 435.000787 
L 116.523174 434.507317 
L 116.049256 434.419197 
L 114.694252 433.687805 
L 113.47942 433.070968 
L 111.850744 432.057592 
L 109.294258 430.559559 
L 109.227509 430.665303 
L 109.14741 430.612431 
L 109.060636 430.189457 
L 109.467805 429.537372 
L 109.861624 428.620928 
L 111.343452 425.730606 
L 111.623798 425.413375 
L 111.970893 425.237136 
L 112.164465 425.378127 
L 112.605008 425.501495 
L 114.14691 426.699921 
L 114.634177 426.735169 
L 115.635412 427.589929 
L 118.325397 428.656176 
L 119.540229 429.378757 
L 120.040846 429.52856 
L 120.481389 429.854603 
L 121.863094 430.286389 
L 122.537259 430.938474 
L 124.613152 432.163336 
L 125.107095 432.885917 
L 124.893498 433.723053 
L 124.07916 435.273958 
L 124.145909 436.252085 
L 124.012411 436.824862 
L 123.338247 438.014477 
L 123.391646 438.270024 
L 123.725391 438.692998 
L 127.977302 441.045791 
L 128.564693 441.204406 
L 131.147879 442.878678 
L 132.449484 443.24878 
L 132.643057 443.098977 
L 132.696456 442.270653 
L 133.183723 441.125098 
L 133.257147 440.72856 
L 133.530818 440.305586 
L 133.924637 440.050039 
L 134.184958 439.706373 
L 134.251707 439.212903 
L 135.025996 437.494571 
L 136.848243 434.859795 
L 137.662581 433.300079 
L 137.869503 432.982848 
L 138.236622 432.850669 
L 138.904112 433.256019 
L 139.157759 433.52919 
L 139.451454 433.511566 
L 140.859858 434.225334 
L 141.160228 434.216522 
L 141.607447 434.331078 
L 142.935752 435.335641 
L 143.556517 435.494256 
L 144.464304 435.467821 
L 146.38 436.216837 
L 146.513498 436.13753 
L 146.773819 436.199213 
L 147.36121 436.710307 
L 148.936486 437.635563 
L 151.219302 438.789929 
L 151.446249 439.027852 
L 152.407434 439.230527 
L 153.38197 439.882612 
L 153.648965 439.82974 
L 154.016085 439.891424 
L 154.136233 439.768057 
L 154.03611 439.723997 
L 153.155023 439.212903 
L 152.313986 438.807553 
L 147.641556 436.701495 
L 145.765909 435.661684 
L 145.178518 435.591188 
L 144.257382 435.723367 
L 143.957011 435.705744 
L 143.583217 435.159402 
L 143.436369 434.947915 
L 142.508558 434.665932 
L 140.806459 433.916916 
L 140.35924 433.687805 
L 139.538228 433.467506 
L 138.096449 432.762549 
L 137.949602 432.551062 
L 137.322161 432.163336 
L 137.455659 432.242644 
L 137.382235 432.066404 
L 136.854918 432.057592 
L 136.73477 432.022345 
L 136.581247 431.405507 
L 136.587922 431.299764 
L 136.06728 430.744611 
L 133.41067 429.431629 
L 131.788669 428.894099 
L 131.788669 428.894099 
L 129.926372 427.968843 
L 129.959747 427.545869 
L 130.914258 425.889221 
L 131.214628 425.501495 
L 131.708571 424.223761 
L 131.975567 423.783163 
L 132.202513 423.05177 
L 132.536258 422.373249 
L 132.362711 422.135327 
L 131.968892 421.844532 
L 131.428225 421.650669 
L 130.533788 421.051456 
L 127.943927 419.623918 
L 126.321927 419.095201 
L 124.693251 418.231629 
L 124.239358 418.090637 
L 121.035406 416.248938 
L 120.581513 415.817152 
L 120.167669 415.614477 
L 119.733801 415.535169 
L 118.899438 415.068135 
L 118.352097 414.794965 
L 118.038376 414.46011 
L 117.851479 414.407238 
L 117.197339 413.56129 
L 116.202779 413.191188 
L 115.161495 412.83871 
L 114.340482 412.186625 
L 112.304637 411.226121 
L 110.008472 409.921951 
L 109.507855 409.604721 
L 108.286348 409.146499 
L 106.590923 408.212431 
L 101.017382 405.092998 
L 100.036172 404.370417 
L 99.008238 403.903383 
L 98.647793 403.515657 
L 97.639883 403.251298 
L 96.638648 402.872384 
L 95.777586 402.202675 
L 95.477216 402.308419 
L 95.543965 402.625649 
L 95.250269 402.969315 
L 95.130121 403.418725 
L 95.216895 403.894571 
L 95.096746 404.978442 
L 94.696252 405.295673 
L 94.289084 406.494099 
L 93.474746 406.908261 
L 93.755092 407.648466 
L 94.229009 408.07144 
L 96.251504 409.164123 
L 98.440871 409.966011 
L 98.841365 410.415421 
L 100.283143 411.226121 
L 101.618123 411.763651 
L 101.985243 412.186625 
L 103.380297 412.926829 
L 103.747416 413.006137 
L 103.814165 413.261684 
L 105.202544 414.354367 
L 106.4641 415.006452 
L 107.925903 415.455862 
L 109.214159 416.504485 
L 110.081896 417.341621 
L 111.81737 418.610543 
L 113.960013 419.297876 
L 115.975832 420.654917 
L 116.456425 420.910464 
L 116.836894 421.280566 
L 117.264088 421.421558 
L 117.677932 421.289378 
L 118.191899 421.606609 
L 119.80055 421.967899 
L 121.716246 423.078206 
L 124.165934 424.576239 
L 126.382001 425.536743 
L 126.962717 426.083084 
L 127.957277 426.426751 
L 128.291022 426.735169 
L 128.891763 426.717545 
L 129.178784 426.532494 
L 129.132059 426.321007 
L 129.352331 425.994965 
L 129.859623 425.175452 
L 131.348126 423.413061 
L 131.581747 423.113454 
L 132.015616 422.937215 
L 132.295962 422.382061 
L 132.269262 422.029583 
L 132.008941 421.765224 
L 130.240093 420.989772 
L 129.038611 420.311251 
L 127.336511 419.491739 
L 126.054931 418.980645 
L 124.846774 418.240441 
L 124.279407 418.143509 
L 123.498444 417.658851 
L 122.303637 416.812903 
L 121.582748 416.407553 
L 120.654937 416.266562 
L 120.254443 416.011015 
L 118.859389 415.693784 
L 118.325397 415.253186 
L 117.731331 414.962392 
L 117.751356 414.812589 
L 116.336277 413.526042 
L 111.250003 410.644532 
L 109.347657 409.551849 
L 107.83913 408.626593 
L 107.291788 408.379858 
L 106.784496 407.921637 
L 105.222569 406.987569 
L 104.121211 406.538159 
L 102.359037 405.427852 
L 101.244329 404.92557 
L 100.656938 404.440913 
L 99.962748 404.132494 
L 99.328633 404.000315 
L 98.767941 403.762392 
L 97.025792 402.634461 
L 96.451751 402.299607 
L 95.917759 401.797325 
L 94.889824 401.286231 
L 92.166465 399.84107 
L 90.504415 398.977498 
L 90.117271 398.475216 
L 89.650028 398.069866 
L 88.481921 397.779072 
L 86.552875 397.408969 
L 86.098982 397.038867 
L 85.504916 395.910936 
L 83.57587 394.615578 
L 82.701458 393.998741 
L 80.819136 392.606452 
L 79.984774 391.584264 
L 75.359068 389.504642 
L 74.851776 389.13454 
L 73.056228 388.456019 
L 72.375388 388.041857 
L 71.327429 387.143037 
L 70.860186 386.949174 
L 70.312844 387.010858 
L 69.872301 386.816994 
L 69.358334 387.054917 
L 68.370448 386.464516 
L 67.275765 385.785995 
L 66.027559 385.13391 
L 65.486892 384.658065 
L 65.012974 384.666876 
L 63.624595 384.199843 
L 63.651294 384.252714 
L 63.584545 383.926672 
L 63.244126 383.644689 
L 62.917056 382.455075 
L 63.063903 382.16428 
L 63.437698 382.102596 
L 63.798142 382.437451 
L 64.085163 382.481511 
L 64.559081 382.314083 
L 64.745978 381.186153 
L 64.085163 380.613375 
L 64.071813 380.675059 
L 64.679229 380.851298 
L 65.667114 381.485759 
L 65.840662 381.432887 
L 66.741773 381.547443 
L 67.188991 381.512195 
L 66.781822 381.168529 
L 66.788497 381.071597 
L 66.514826 380.877734 
L 65.440168 380.445948 
L 65.059698 379.970102 
L 63.711369 379.053659 
L 63.404323 378.648308 
L 62.870331 377.864044 
L 62.930405 377.899292 
L 63.030529 377.608497 
L 63.090603 377.696617 
L 63.818167 377.864044 
L 64.93955 378.83336 
L 65.373419 379.06247 
L 66.007534 379.247522 
L 66.962045 379.291581 
L 68.130152 379.68812 
L 69.678729 379.908419 
L 70.039173 380.727931 
L 70.439667 380.824862 
L 70.493067 381.159717 
L 71.033733 381.679622 
L 72.515561 382.12022 
L 74.044113 382.049725 
L 74.518031 382.217152 
L 76.019883 383.221715 
L 76.694048 383.248151 
L 77.094542 383.503698 
L 77.428287 383.882612 
L 78.20925 384.085287 
L 79.771177 385.257278 
L 79.891325 385.856491 
L 80.692313 386.147286 
L 82.040643 386.173721 
L 83.275499 386.88749 
L 83.635944 387.178285 
L 84.063137 387.257592 
L 84.757327 386.896302 
L 85.438167 386.905114 
L 86.639649 387.618883 
L 87.20034 388.429583 
L 87.961279 388.817309 
L 88.949164 389.099292 
L 89.583279 389.363651 
L 89.977098 389.883556 
L 91.211955 390.84406 
L 93.688343 392.086546 
L 94.475981 393.099921 
L 95.924434 394.007553 
L 96.732097 394.62439 
L 97.039142 394.633202 
L 97.232714 395.258851 
L 97.613184 395.558458 
L 97.820105 395.364595 
L 97.686607 395.16192 
L 97.786731 395.188356 
L 97.946929 395.346971 
L 100.216394 396.889064 
L 100.957308 397.047679 
L 102.092041 397.68214 
L 102.806255 397.805507 
L 103.366947 398.140362 
L 103.900939 398.607396 
L 105.369417 399.497404 
L 105.79661 399.832258 
L 107.605508 400.343352 
L 108.052726 400.687018 
L 108.720216 400.880881 
L 111.47695 402.49347 
L 113.145675 403.39229 
L 116.80352 405.322109 
L 119.046286 406.599843 
L 123.171374 409.084815 
L 123.918963 409.895515 
L 124.993622 410.336113 
L 125.327367 410.353737 
L 127.696956 411.508104 
L 129.332306 412.873958 
L 130.720685 413.552478 
L 131.174579 413.640598 
L 132.115739 414.186939 
L 132.596332 414.380803 
L 133.197073 414.750905 
L 133.544168 414.988828 
L 133.937987 415.561605 
L 134.06481 415.605665 
L 134.278407 415.799528 
L 134.325131 415.861212 
L 134.325131 415.861212 
L 134.592127 415.993391 
L 135.499914 416.698348 
L 136.013881 416.830527 
L 136.627972 417.368057 
L 137.509058 418.090637 
L 138.476919 418.575295 
L 139.758499 419.385995 
L 140.185693 419.667978 
L 141.727595 420.302439 
L 142.108064 420.646105 
L 143.523143 421.395122 
L 146.046255 422.884343 
L 147.247737 423.959402 
L 148.782964 424.347128 
L 150.04452 424.611487 
L 150.765409 425.290008 
L 151.359475 425.369315 
L 152.901377 426.003777 
L 153.288521 426.338631 
L 154.37653 426.708733 
L 157.527082 428.286074 
L 159.736474 429.554996 
L 160.764408 430.092526 
L 163.461068 431.387884 
L 165.069719 431.766798 
L 165.443513 432.004721 
L 165.710509 431.951849 
L 165.65711 431.68749 
L 165.844007 431.308576 
L 166.104328 431.061841 
L 167.045489 428.946971 
L 167.00544 428.559245 
L 167.372559 427.211015 
L 167.212361 425.492683 
L 167.385909 424.452872 
L 167.452658 423.518804 
L 167.552781 423.069394 
L 168.093448 421.915028 
L 168.333745 421.809284 
L 168.607415 421.403934 
L 168.62744 420.795909 
L 168.780963 420.267191 
L 168.407168 417.15657 
L 168.907786 414.46011 
L 169.108033 414.178127 
L 169.381704 412.609599 
L 171.010379 408.106688 
L 170.930281 407.674902 
L 170.663285 407.53391 
L 170.075893 407.542722 
L 168.347094 406.776082 
L 167.325835 406.81133 
L 166.811867 406.784894 
L 163.354269 404.599528 
L 163.127323 404.449725 
L 162.733504 404.167742 
L 162.339685 403.39229 
L 161.385174 402.590401 
L 159.856622 401.753265 
L 159.34933 401.436035 
L 158.30137 401.1893 
L 156.946366 400.528403 
L 155.925106 399.955625 
L 154.162933 399.329976 
L 153.762439 398.783635 
L 152.807928 397.964123 
L 151.933516 397.479465 
L 151.472948 397.400157 
L 150.104594 396.721637 
L 149.357005 396.474902 
L 148.322396 395.963808 
L 148.268996 395.346971 
L 148.262322 395.355783 
L 146.994091 397.911251 
L 146.853918 398.422345 
L 146.36665 399.100865 
L 145.72586 400.237608 
L 145.278641 401.039496 
L 144.524378 402.079308 
L 143.916962 403.136743 
L 143.923637 403.471597 
L 144.097184 403.876947 
L 143.256147 405.10181 
L 143.022525 406.018253 
L 142.481858 406.820142 
L 141.360475 409.428482 
L 140.959981 410.309677 
L 137.42896 417.15657 
L 136.995091 416.927459 
L 136.768144 416.627852 
L 136.634646 416.178442 
L 136.834893 414.95358 
L 137.682606 412.812274 
L 138.183223 411.746027 
L 138.216598 411.120378 
L 137.882853 410.697404 
L 137.308811 410.318489 
L 135.353066 409.64878 
L 134.839098 409.490165 
L 134.365181 409.120063 
L 133.430695 408.714713 
L 132.943427 408.326987 
L 131.968892 407.948072 
L 131.548373 407.965696 
L 130.620562 407.648466 
L 130.173344 407.225492 
L 129.846274 407.102124 
L 129.359006 406.63509 
L 128.357771 406.097561 
L 127.536758 405.542408 
L 127.236388 405.604091 
L 124.219333 403.639024 
L 124.212658 403.586153 
L 123.638617 402.995751 
L 123.011176 402.431786 
L 122.590658 402.299607 
L 120.488064 400.995437 
L 119.573603 400.440283 
L 118.525644 399.700079 
L 117.671257 398.854131 
L 116.302902 398.246105 
L 113.906613 396.73926 
L 112.611683 395.831629 
L 111.630473 395.47915 
L 111.13653 394.985681 
L 109.381031 394.289536 
L 109.114035 394.042801 
L 106.917994 392.888434 
L 106.550874 392.888434 
L 105.716512 392.571204 
L 105.583014 392.359717 
L 104.895499 392.218725 
L 102.265589 390.773564 
L 101.945193 390.412274 
L 98.741242 388.376711 
L 97.993653 387.645319 
L 94.8698 385.856491 
L 94.462631 385.442329 
L 92.593659 385.001731 
L 92.333338 384.799056 
L 91.892795 384.631629 
L 91.585749 384.332022 
L 91.50565 384.076475 
L 91.645823 383.415578 
L 92.059667 382.913297 
L 92.273264 382.225964 
L 92.273264 381.512195 
L 93.100951 379.529504 
L 93.341248 379.185838 
L 94.676228 379.529504 
L 96.251504 380.507632 
L 97.733332 381.732494 
L 97.84013 381.996853 
L 98.213924 382.340519 
L 98.53432 382.472699 
L 98.921464 382.842801 
L 99.362007 383.0631 
L 100.062872 383.283399 
L 100.85051 383.362707 
L 101.244329 383.283399 
L 101.724922 383.486074 
L 102.132091 383.838552 
L 102.759531 384.102911 
L 102.973128 384.420142 
L 103.874239 384.737372 
L 105.135795 385.512825 
L 107.425286 386.208969 
L 108.006002 386.561448 
L 108.693517 386.587884 
L 109.427756 386.949174 
L 111.363477 388.544138 
L 113.232449 389.53989 
L 113.659642 389.742565 
L 113.77979 390.03336 
L 113.866564 389.918804 
L 115.655437 391.064359 
L 116.202779 391.416837 
L 116.322927 391.645948 
L 118.538994 393.020614 
L 119.667052 393.822502 
L 120.194369 393.954681 
L 121.202279 394.527459 
L 122.170139 394.897561 
L 123.485094 395.743509 
L 123.999062 396.245791 
L 124.232683 396.316286 
L 124.960247 396.228167 
L 126.215128 396.82738 
L 126.956042 397.285602 
L 128.104125 398.105114 
L 129.098685 398.58096 
L 129.659376 398.862943 
L 130.814134 399.250669 
L 132.396085 400.008497 
L 133.290522 400.625334 
L 134.471979 401.347915 
L 135.913757 402.140991 
L 136.387675 402.49347 
L 138.169873 403.339418 
L 139.484829 404.308733 
L 139.805224 404.502596 
L 140.419315 404.440913 
L 140.419315 404.440913 
L 140.859858 404.625964 
L 141.901142 404.079622 
L 142.281612 403.462785 
L 142.915727 402.281983 
L 143.516468 401.797325 
L 143.583217 401.206924 
L 143.082599 400.616522 
L 142.608682 400.264044 
L 140.245767 398.766011 
L 138.817339 397.946499 
L 136.574572 396.474902 
L 135.733535 396.104799 
L 133.317221 394.791817 
L 132.669756 394.553895 
L 131.494974 393.778442 
L 130.787434 393.566955 
L 130.11327 393.496459 
L 129.539228 393.117545 
L 128.618092 392.298033 
L 127.630207 391.637136 
L 125.854684 391.064359 
L 123.718716 389.874744 
L 122.09004 388.676318 
L 121.74962 388.464831 
L 120.895233 388.165224 
L 120.234418 387.83037 
L 119.647027 387.583635 
L 118.859389 386.816994 
L 118.572368 386.728875 
L 118.158524 385.759559 
L 118.025026 385.468765 
L 117.477685 385.001731 
L 116.843569 384.763808 
L 115.448515 384.913611 
L 114.494005 384.120535 
L 114.006737 383.55657 
L 113.706366 383.415578 
L 113.305872 382.754681 
L 112.571633 382.358143 
L 111.416876 382.358143 
L 110.929608 381.538631 
L 110.856184 381.406452 
L 110.849509 381.450511 
L 110.268793 381.71487 
L 108.993887 380.084658 
L 108.887089 380.04941 
L 108.673492 379.740991 
L 107.972628 379.318017 
L 105.783261 377.740677 
L 104.568429 377.899292 
L 103.974363 377.925728 
L 103.48042 378.110779 
L 102.819605 378.013847 
L 102.152115 377.740677 
L 101.678197 377.819984 
L 101.16423 376.956412 
L 99.655703 375.960661 
L 98.100451 375.476003 
L 96.21813 374.973721 
L 96.458426 374.894414 
L 96.665348 374.47144 
L 96.912319 374.621243 
L 97.039142 375.105901 
L 96.838895 374.912038 
L 95.757561 375.070653 
L 95.116771 374.665303 
L 94.322458 374.392132 
L 93.394647 373.537372 
L 93.241124 373.273013 
L 92.079692 372.391817 
L 91.579074 371.933596 
L 91.619124 371.986467 
L 91.812696 372.021715 
L 90.911584 371.836664 
L 88.662143 370.303383 
L 88.381797 370.426751 
L 88.281674 370.788041 
L 87.861155 370.752793 
L 87.640884 370.929032 
L 87.22704 370.973092 
L 86.506151 371.660425 
L 86.412702 371.343194 
L 86.606274 370.946656 
L 86.492801 370.303383 
L 86.566225 369.79229 
L 86.185755 368.188513 
L 86.406027 367.818411 
L 86.733097 367.836035 
L 86.492801 367.571676 
L 86.412702 367.430685 
L 87.273764 367.536428 
L 87.680933 367.254445 
L 88.008003 367.90653 
L 87.887855 368.48812 
L 87.594159 369.149017 
L 87.313813 369.237136 
L 86.993418 369.060897 
L 86.5195 369.871597 
L 89.21616 371.766168 
L 89.483156 372.056963 
L 73.59022 356.34524 
L 86.579575 364.046892 
L 86.826546 363.738474 
L 87.060167 363.667978 
L 87.287114 362.954209 
L 87.56746 360.918647 
L 87.694283 360.275374 
L 87.994653 359.711408 
L 87.453986 357.261684 
L 86.88662 355.182061 
L 86.806521 354.344925 
L 87.113566 354.168686 
L 86.846571 353.305114 
L 87.313813 353.199371 
L 89.22951 353.463729 
L 89.396382 353.190559 
L 89.423082 352.318175 
L 89.363008 352.185995 
L 90.083897 351.595594 
L 90.697988 351.481039 
L 90.985008 350.643902 
L 90.904909 349.533596 
L 89.015913 341.312038 
L 89.062637 340.501338 
L 89.22951 339.681825 
L 88.86239 338.853501 
L 88.475246 337.196853 
L 87.333838 334.39465 
L 87.260414 333.619197 
L 86.078957 329.680252 
L 86.279204 328.81668 
L 86.185755 327.089536 
L 86.279204 326.12022 
L 86.512826 325.212589 
L 86.419377 324.375452 
L 85.86536 323.661684 
L 85.685138 322.595437 
L 85.711838 321.80236 
L 85.985508 321.308891 
L 86.673023 320.480566 
L 87.834456 317.625492 
L 88.061402 316.101023 
L 88.989213 314.902596 
L 89.342983 314.329819 
L 89.55658 313.651298 
L 90.077222 313.078521 
L 90.597864 311.703855 
L 90.597864 310.681668 
L 90.804786 309.959087 
L 91.452251 308.654917 
L 91.458926 307.800157 
L 91.752622 307.086389 
L 92.139766 306.557671 
L 92.653733 306.055389 
L 92.800581 305.51786 
L 94.142236 302.794965 
L 94.729627 302.283871 
L 96.011208 300.010386 
L 95.85101 299.102754 
L 95.997858 298.574036 
L 96.318253 298.089378 
L 96.685372 297.895515 
L 97.119241 297.128875 
L 97.406262 296.353423 
L 97.820105 295.824705 
L 97.773381 295.075688 
L 98.000328 294.40598 
L 98.427521 294.000629 
L 98.547669 293.612903 
L 98.714542 292.379229 
L 99.18846 291.691896 
L 99.50218 290.978127 
L 99.008238 290.678521 
L 99.061637 289.691581 
L 99.535555 288.748702 
L 99.835925 288.24642 
L 100.002798 287.717703 
L 100.369917 287.012746 
L 100.516765 286.413533 
L 100.53679 285.761448 
L 101.50465 284.518961 
L 101.611448 284.104799 
L 101.611448 283.646577 
L 102.138765 283.047364 
L 102.065342 282.650826 
L 102.278938 282.342408 
L 102.252239 281.602203 
L 101.718247 281.470024 
L 101.50465 281.179229 
L 101.624798 280.703383 
L 101.965218 280.439024 
L 102.232214 280.377341 
L 105.336042 277.354839 
L 105.376092 277.240283 
L 105.349392 276.720378 
L 105.663112 275.927301 
L 105.723187 275.187097 
L 106.090306 274.649567 
L 106.590923 273.239654 
L 106.777821 272.384894 
L 107.425286 271.706373 
L 107.705632 270.966168 
L 108.106126 270.270024 
L 108.927138 269.291896 
L 109.073986 268.921794 
L 109.334307 268.771991 
L 109.274233 268.622187 
L 99.682402 275.839182 
L 99.228509 274.834618 
L 98.447546 275.724626 
L 98.227274 275.530763 
L 97.88018 274.799371 
L 96.852245 274.16491 
L 96.371652 273.697876 
L 95.350393 273.504013 
L 95.036672 273.662628 
L 94.596129 273.407081 
L 93.948664 273.274902 
L 93.528145 273.310149 
L 93.254474 273.019355 
L 92.660408 273.195594 
L 92.099716 273.063415 
L 92.88068 272.428954 
L 93.414672 271.785681 
L 92.987478 271.8738 
L 92.299963 271.82974 
L 92.800581 271.195279 
L 91.906144 271.776869 
L 112.438135 253.218883 
L 115.014647 250.028954 
L 115.148145 249.623603 
L 115.828984 248.936271 
L 116.810195 247.376554 
L 118.051726 246.160504 
L 118.392146 245.640598 
L 118.619092 245.816837 
L 118.852714 245.755153 
L 118.085101 244.43336 
L 118.09845 244.036821 
L 118.625767 243.323053 
L 118.725891 242.935327 
L 111.864094 237.983006 
L 111.83072 238.582219 
L 111.877444 239.005193 
L 112.11774 239.498662 
L 111.670522 238.72321 
L 112.431461 237.91251 
L 112.77188 237.295673 
L 113.506119 236.687648 
L 114.113535 235.965067 
L 114.847774 235.321794 
L 113.632943 235.145555 
L 114.126885 234.396538 
L 115.048021 233.779701 
L 115.48189 233.109992 
L 115.755561 232.264044 
L 116.683372 231.065618 
L 117.864829 229.708576 
L 117.77138 229.27679 
L 118.826014 227.100236 
L 118.559018 226.738946 
L 119.566928 226.042801 
L 120.08757 225.417152 
L 120.982007 224.676947 
L 121.742946 223.478521 
L 122.383736 222.835248 
L 122.730831 222.191975 
L 123.999062 221.231471 
L 124.946897 220.297404 
L 128.417845 218.023918 
L 129.332306 217.204406 
L 131.73527 215.530134 
L 132.482859 215.706373 
L 132.983476 214.789929 
L 132.623032 213.089221 
L 132.910052 212.067034 
L 131.802019 211.934854 
L 131.334776 212.128718 
L 131.201278 211.362077 
L 131.615122 210.965539 
L 131.581747 210.242958 
L 132.015616 209.520378 
L 132.295962 208.612746 
L 133.050225 208.022345 
L 133.530818 207.246892 
L 133.650966 206.550747 
L 133.504119 206.163021 
L 133.036876 205.925098 
L 132.342686 205.03509 
L 131.875443 204.576869 
L 130.540463 203.845476 
L 130.233418 203.422502 
L 129.318957 202.884972 
L 128.324396 202.400315 
L 126.862593 201.104957 
L 126.361976 200.770102 
L 124.940222 199.448308 
L 124.526379 199.131078 
L 124.065811 198.972463 
L 123.611917 198.496617 
L 123.338247 198.390873 
L 123.178049 198.117703 
L 122.830954 197.888592 
L 122.250238 197.765224 
L 121.562723 197.395122 
L 120.995357 196.954524 
L 120.548138 196.831157 
L 120.047521 196.425806 
L 118.926138 195.905901 
L 117.79808 195.280252 
L 116.830219 195.148072 
L 114.467305 193.905586 
L 113.906613 193.403304 
L 112.217864 192.319434 
L 111.530349 191.182691 
L 111.209954 189.622974 
L 110.629238 188.213061 
L 109.774851 187.049882 
L 108.766941 186.177498 
L 107.859154 185.181747 
L 107.338512 184.080252 
L 107.198339 182.969945 
L 107.078191 181.859638 
L 106.691047 181.348544 
L 106.564224 180.097246 
L 106.724421 178.722581 
L 106.964718 178.026436 
L 107.325162 178.08812 
L 107.652232 177.920692 
L 107.098216 177.55059 
L 107.18499 177.05712 
L 106.998092 176.581275 
L 107.091541 175.88513 
L 106.877944 174.651456 
L 106.891294 171.505586 
L 107.058166 171.082612 
L 106.998092 170.086861 
L 107.118241 169.602203 
L 106.964718 169.188041 
L 106.964718 168.782691 
L 106.056931 166.077419 
L 105.990182 164.738002 
L 106.230479 164.138788 
L 106.16373 163.521951 
L 106.350627 162.48214 
L 106.390676 159.970732 
L 106.337277 156.727931 
L 106.023557 154.65712 
L 106.243829 153.194335 
L 105.643088 152.18096 
L 105.890059 150.867978 
L 106.323927 148.832415 
L 106.650998 146.726357 
L 106.744446 146.347443 
L 106.584249 145.801101 
L 106.243829 145.430999 
L 106.257178 144.972777 
L 106.063606 144.391188 
L 106.070281 143.236821 
L 106.143705 142.214634 
L 106.263853 141.34225 
L 106.350627 140.839969 
L 106.110331 139.526987 
L 105.910084 138.980645 
L 106.157055 137.147758 
L 106.010207 136.522109 
L 106.203779 135.896459 
L 106.103656 133.191188 
L 105.903409 132.530291 
L 105.829985 131.842958 
L 105.963483 131.155625 
L 105.996857 128.908576 
L 106.237154 126.802518 
L 106.197104 124.828639 
L 106.117006 122.704957 
L 106.096981 121.973564 
L 106.203779 121.136428 
L 106.110331 120.546027 
L 106.13703 119.876318 
L 105.976833 118.651456 
L 106.16373 117.030055 
L 106.217129 116.351534 
L 105.896734 114.342408 
L 105.82331 113.672699 
L 105.923434 112.941306 
L 105.890059 111.540205 
L 106.010207 110.75594 
L 105.863359 110.112667 
L 106.5175 105.865303 
L 106.610948 104.428954 
L 106.938018 103.55657 
L 107.058166 102.816365 
L 107.038142 102.155468 
L 106.877944 101.485759 
L 107.13159 100.199213 
L 108.092776 98.216522 
L 107.872504 97.80236 
L 109.107361 96.09284 
L 109.401056 95.467191 
L 110.16867 93.352321 
L 110.79611 92.048151 
L 111.10983 91.440126 
L 111.483625 91.131707 
L 112.217864 90.259323 
L 112.524909 89.668922 
L 113.43937 88.620299 
L 113.786465 88.012274 
L 113.913288 87.518804 
L 114.333807 86.523053 
L 114.547404 85.536113 
L 115.488565 84.813533 
L 116.022557 82.927773 
L 116.583248 81.905586 
L 117.037141 79.887648 
L 118.045051 78.41605 
L 119.299932 75.992762 
L 122.236888 71.392919 
L 122.697456 69.965382 
L 123.631942 68.370417 
L 124.13256 67.815264 
L 124.493004 67.075059 
L 124.906848 66.555153 
L 125.207218 65.95594 
L 125.714511 65.515342 
L 126.522174 64.325728 
L 126.949367 63.735327 
L 127.149614 63.056806 
L 128.76494 60.474902 
L 129.145409 59.893312 
L 129.679401 58.21904 
L 129.986446 57.707946 
L 130.507089 57.152793 
L 130.934282 56.518332 
L 131.10783 55.910307 
L 131.448249 55.16129 
L 132.656406 53.478206 
L 133.43737 52.103541 
L 136.134029 47.55657 
L 137.295462 45.80299 
L 137.455659 45.203777 
L 138.864063 42.780488 
L 139.725125 41.423446 
L 142.615356 36.338946 
L 143.289521 35.307946 
L 143.663316 34.444375 
L 143.970361 34.10952 
L 144.284081 33.950905 
L 145.69916 34.294571 
L 146.03958 34.135956 
L 146.266527 34.400315 
L 146.70707 34.691109 
L 147.281111 34.444375 
L 147.281111 34.444375 
" clip-path="url(#p605e5cb13e)" style="fill: none; stroke: #000000; stroke-width: 3"/>
   </g>
  </g>
 </g>
 <defs>
  <clipPath id="p605e5cb13e">
   <rect x="7.2" y="7.2" width="248.209478" height="554.4"/>
  </clipPath>
 </defs>
</svg>
