<?xml version="1.0" encoding="utf-8" standalone="no"?>
<!DOCTYPE svg PUBLIC "-//W3C//DTD SVG 1.1//EN"
  "http://www.w3.org/Graphics/SVG/1.1/DTD/svg11.dtd">
<svg xmlns:xlink="http://www.w3.org/1999/xlink" width="312.367139pt" height="568.8pt" viewBox="0 0 312.367139 568.8" xmlns="http://www.w3.org/2000/svg" version="1.1">
 <metadata>
  <rdf:RDF xmlns:dc="http://purl.org/dc/elements/1.1/" xmlns:cc="http://creativecommons.org/ns#" xmlns:rdf="http://www.w3.org/1999/02/22-rdf-syntax-ns#">
   <cc:Work>
    <dc:type rdf:resource="http://purl.org/dc/dcmitype/StillImage"/>
    <dc:date>2023-03-21T05:03:06.980539</dc:date>
    <dc:format>image/svg+xml</dc:format>
    <dc:creator>
     <cc:Agent>
      <dc:title>Matplotlib v3.7.1, https://matplotlib.org/</dc:title>
     </cc:Agent>
    </dc:creator>
   </cc:Work>
  </rdf:RDF>
 </metadata>
 <defs>
  <style type="text/css">*{stroke-linejoin: round; stroke-linecap: butt}</style>
 </defs>
 <g id="figure_1">
  <g id="patch_1">
   <path d="M 0 568.8 
L 312.367139 568.8 
L 312.367139 0 
L 0 0 
z
" style="fill: #ffffff"/>
  </g>
  <g id="axes_1">
   <g id="LineCollection_1">
    <path d="M 31.885351 535.248246 
L 24.367414 530.360178 
L 23.646059 530.073617 
L 23.158207 529.583157 
L 22.98725 529.318639 
L 21.027499 528.029115 
L 20.814845 527.792152 
L 20.743961 527.478037 
L 20.8899 526.783678 
L 21.811399 524.904499 
L 24.133912 521.168186 
L 24.459147 520.798963 
L 24.780213 520.016432 
L 25.593301 518.484433 
L 27.282022 514.345832 
L 29.391881 511.298368 
L 29.875564 510.692181 
L 31.547607 507.104659 
L 31.614322 506.685839 
L 32.886075 504.431928 
L 33.590751 503.428964 
L 33.795065 502.530706 
L 34.166167 501.704088 
L 35.417072 498.976249 
L 35.521314 498.546408 
L 37.068266 496.033489 
L 37.618664 494.865202 
L 38.135704 493.851218 
L 40.112133 491.376874 
L 40.487405 490.638429 
L 40.566629 490.203077 
L 42.38878 487.28236 
L 43.685551 485.144175 
L 44.469451 484.008953 
L 47.425756 478.283246 
L 49.031083 475.390083 
L 50.944967 471.995438 
L 53.580206 466.953069 
L 55.248079 463.993776 
L 56.644922 461.442282 
L 58.788139 457.887825 
L 61.53179 452.994246 
L 62.319859 451.82596 
L 63.695854 449.257933 
L 67.006582 443.394456 
L 67.140012 442.99768 
L 67.481926 442.639479 
L 69.049726 439.922661 
L 71.180434 436.34065 
L 72.781591 433.408911 
L 74.578724 430.152036 
L 77.489162 424.795552 
L 80.653951 418.711644 
L 81.341948 417.851961 
L 82.413557 415.923186 
L 82.918088 414.810007 
L 83.272511 414.225864 
L 83.622764 413.377202 
L 84.344119 412.534052 
L 85.978635 409.541695 
L 90.290086 401.666781 
L 91.324167 399.589215 
L 93.092112 396.470109 
L 94.117854 394.034342 
L 94.468107 393.626544 
L 95.101899 393.141594 
L 96.598815 390.689294 
L 96.953238 389.846144 
L 97.97481 387.796132 
L 98.333402 386.837255 
L 100.147214 384.263717 
L 100.660085 383.354438 
L 101.031187 382.6711 
L 101.614942 381.541389 
L 102.578139 379.695275 
L 103.562183 377.893248 
L 103.74148 377.231954 
L 104.112581 376.521062 
L 105.526104 374.39941 
L 107.827768 370.348981 
L 108.815983 368.464293 
L 112.943968 360.352415 
L 117.10531 353.160838 
L 117.559806 352.207472 
L 118.064337 351.292682 
L 118.794032 350.008669 
L 120.799649 346.349506 
L 121.475137 345.258371 
L 121.862917 344.586055 
L 122.730211 343.020991 
L 123.630863 341.32918 
L 124.990179 338.661959 
L 125.490541 337.361414 
L 126.799821 335.476725 
L 129.472587 330.599679 
L 129.922913 329.563651 
L 130.961163 328.048184 
L 131.574107 327.006646 
L 133.900789 322.190218 
L 134.955719 320.603112 
L 135.176712 320.228378 
L 135.622868 319.368696 
L 136.369241 318.13979 
L 136.852924 317.15887 
L 139.071195 313.339895 
L 146.589131 299.584972 
L 152.806127 288.348479 
L 153.865226 286.392149 
L 154.499018 285.317546 
L 155.65819 283.52103 
L 159.19825 276.852978 
L 161.095455 273.722851 
L 162.442262 271.309127 
L 164.4312 267.578324 
L 166.320066 264.139593 
L 168.200593 260.921294 
L 168.801027 259.653813 
L 169.743375 258.01711 
L 170.806644 255.840349 
L 173.7421 250.434267 
L 174.355043 249.243938 
L 177.770013 243.529252 
L 178.46635 242.25075 
L 179.091802 240.928161 
L 180.217616 239.071026 
L 180.580378 238.894681 
L 181.835453 236.16133 
L 182.719425 234.640353 
L 183.31569 233.499621 
L 183.995348 231.984154 
L 185.212895 229.92312 
L 186.859919 227.277943 
L 189.203281 222.902378 
L 192.22213 217.397102 
L 194.740618 212.911322 
L 195.420276 211.820187 
L 196.604466 209.560764 
L 199.364796 204.567992 
L 200.269617 202.958842 
L 201.545539 200.649822 
L 201.808229 199.988528 
L 201.841587 199.029651 
L 202.145973 198.434486 
L 202.400324 197.927494 
L 202.337779 197.646444 
L 201.920811 197.20007 
L 201.299528 196.941063 
L 200.332162 196.478157 
L 197.188222 194.554892 
L 197.063131 194.32895 
L 197.08398 194.075454 
L 199.631655 189.253516 
L 200.273786 188.278107 
L 200.74496 187.242079 
L 200.953444 186.630381 
L 202.275234 184.734671 
L 202.892347 183.941118 
L 203.284297 182.965708 
L 204.197457 181.312473 
L 204.831249 180.237869 
L 206.64506 177.014059 
L 209.542989 171.76779 
L 211.035735 168.836052 
L 212.274131 166.923809 
L 212.278301 166.92932 
L 212.374203 166.896255 
L 212.482615 166.64827 
L 212.787002 165.562645 
L 213.483339 164.421912 
L 213.871119 163.562229 
L 214.492402 162.371899 
L 215.413901 160.850922 
L 216.160274 159.671614 
L 216.794066 158.371068 
L 218.428581 155.461373 
L 218.978979 154.651287 
L 219.76288 153.097246 
L 220.171508 152.127347 
L 221.614218 149.9065 
L 223.907543 145.547468 
L 224.161894 144.842088 
L 224.195252 144.048534 
L 224.053482 143.238449 
L 223.68655 142.488982 
L 223.269582 142.015054 
L 222.38561 141.441932 
L 221.113857 140.857789 
L 220.467556 140.929429 
L 219.591923 141.337227 
L 217.865674 142.240996 
L 217.736414 142.141802 
L 217.915711 141.772579 
L 218.286812 141.160882 
L 218.562011 140.631847 
L 220.342465 138.9731 
L 221.560013 137.457634 
L 222.856784 135.53988 
L 223.598987 131.671308 
L 223.970089 131.136762 
L 224.766498 130.199928 
L 226.117475 128.971022 
L 228.310728 127.113887 
L 230.041146 124.573415 
L 230.991833 122.336036 
L 231.383783 121.294497 
L 231.696509 120.589116 
L 231.942521 119.448383 
L 232.046763 118.544614 
L 232.259416 117.470011 
L 231.863297 116.792184 
L 231.379614 116.588285 
L 230.762501 116.83076 
L 229.023743 117.888831 
L 229.311451 118.037622 
L 229.98277 117.943939 
L 230.157897 118.037622 
L 230.195424 118.362758 
L 229.799304 119.227952 
L 227.718633 122.848539 
L 225.729694 124.193171 
L 224.562184 124.920594 
L 223.724077 125.532292 
L 223.144492 126.066838 
L 222.794238 126.474636 
L 222.364761 127.284722 
L 219.687825 131.693351 
L 219.141597 132.161768 
L 217.853165 133.076558 
L 216.160274 133.776428 
L 214.876012 133.991349 
L 213.049692 133.754385 
L 212.244943 133.352098 
L 210.7105 132.45384 
L 209.79317 132.1783 
L 208.387987 131.26902 
L 207.82508 130.739985 
L 207.17461 130.486489 
L 205.231538 129.907856 
L 205.231538 129.907856 
L 205.244047 129.522101 
L 205.565113 129.274116 
L 206.015438 129.213497 
L 206.920259 129.224519 
L 207.56656 128.987555 
L 210.522864 127.565772 
L 211.911369 126.865902 
L 212.862056 126.309313 
L 214.137979 125.59291 
L 215.155381 124.964681 
L 217.077604 124.193171 
L 220.367484 122.446251 
L 221.434922 121.933748 
L 223.81998 120.660756 
L 224.920776 120.181318 
L 225.721355 119.790052 
L 226.384335 119.310614 
L 226.513595 118.891794 
L 226.409353 119.095693 
L 225.412799 119.723923 
L 221.918605 121.66372 
L 221.86023 121.801489 
L 222.060374 122.077029 
L 222.498191 122.732812 
L 222.860953 123.443704 
L 223.29877 124.215214 
L 223.999276 125.438608 
L 224.095179 125.488205 
L 223.995107 125.333903 
L 223.669872 124.859976 
L 223.273752 124.055401 
L 222.473173 122.253374 
L 221.801854 121.45982 
L 221.284814 120.864656 
L 219.867122 118.208456 
L 218.57452 115.662473 
L 215.939281 110.912175 
L 215.56818 110.912175 
L 215.105345 111.143628 
L 214.108791 111.78839 
L 213.116407 112.322936 
L 212.01978 113.028317 
L 211.944726 113.496734 
L 212.249113 114.229669 
L 213.133085 115.844329 
L 215.376374 120.385217 
L 215.088666 120.848123 
L 211.844654 122.418697 
L 210.310211 122.953244 
L 209.722286 122.826496 
L 208.713223 122.402165 
L 207.937662 122.01641 
L 207.629105 121.807 
L 208.955064 122.523402 
L 209.984975 122.848539 
L 210.793894 122.815474 
L 211.798787 122.275417 
L 212.607705 121.740871 
L 213.404115 121.222857 
L 215.021951 120.352152 
L 215.188739 120.429303 
L 219.329233 128.95449 
L 219.683656 129.830705 
L 220.254902 130.734474 
L 220.509253 130.811625 
L 220.54678 130.662834 
L 220.142321 130.530575 
L 219.800407 129.990518 
L 219.120749 128.656908 
L 218.833041 128.160937 
L 218.662084 127.979081 
L 218.4536 127.951527 
L 217.611324 128.453009 
L 216.61477 128.877339 
L 215.864227 129.290648 
L 214.655019 129.836216 
L 213.691823 130.210949 
L 211.469382 131.483941 
L 210.785554 131.858675 
L 209.651401 132.238919 
L 208.821634 131.985423 
L 208.192012 131.47292 
L 207.741687 131.147783 
L 206.098832 130.249525 
L 205.277405 129.748043 
L 205.277405 129.748043 
L 205.456701 129.334734 
L 205.635997 129.202475 
L 207.320549 128.855296 
L 208.041904 128.441987 
L 208.800786 128.023167 
L 210.389435 127.312276 
L 222.189635 121.415734 
L 223.55729 120.644224 
L 225.671319 119.740455 
L 227.606051 118.814643 
L 235.082291 115.546747 
L 237.338089 114.356417 
L 239.406251 113.491223 
L 240.110927 113.298346 
L 241.699576 112.157613 
L 241.716255 111.849009 
L 241.449395 110.983815 
L 239.518833 107.324653 
L 239.135222 106.641316 
L 238.651539 105.704482 
L 237.792584 104.227591 
L 236.383232 100.595983 
L 234.30673 96.810072 
L 233.631242 95.107239 
L 233.151728 94.225514 
L 232.442882 92.880882 
L 231.408801 90.814337 
L 230.662428 89.061907 
L 229.469899 86.819017 
L 228.836108 85.523982 
L 227.593542 83.176387 
L 227.109859 82.586733 
L 226.463559 82.724502 
L 225.825597 83.242516 
L 224.987491 83.892789 
L 224.637238 83.567653 
L 222.936008 81.512129 
L 222.556567 81.462532 
L 222.168786 81.627856 
L 220.046418 83.672358 
L 219.199973 84.427335 
L 217.582136 86.07506 
L 216.577243 87.116599 
L 216.193632 87.4748 
L 215.672422 87.733807 
L 215.17206 87.502354 
L 214.008719 86.42224 
L 209.643062 81.65541 
L 207.729178 79.451095 
L 206.11968 77.913586 
L 205.102278 76.943687 
L 203.534478 75.036955 
L 203.230091 74.419747 
L 202.600469 73.984395 
L 202.471209 74.028481 
L 202.442021 74.29851 
L 202.241876 74.204826 
L 201.220304 73.438827 
L 200.528137 73.086137 
L 200.378028 72.777533 
L 200.436404 72.160325 
L 200.252938 72.953878 
L 200.21958 72.953878 
L 200.461422 73.03654 
L 201.299528 73.339633 
L 202.925704 74.337085 
L 203.888901 74.397704 
L 204.168269 74.199316 
L 204.364244 73.361676 
L 204.918812 71.317174 
L 206.103002 68.236645 
L 207.191289 64.373583 
L 209.826528 55.897994 
L 211.973914 50.26597 
L 212.228264 49.516503 
L 212.194907 49.037064 
L 211.903029 48.276576 
L 211.994762 47.753051 
L 212.832868 45.317284 
L 212.566009 45.019701 
L 212.178228 44.909485 
L 211.786278 45.058277 
L 211.598642 45.399945 
L 211.331783 46.050218 
L 210.406113 47.576706 
L 209.359523 49.725913 
L 209.284469 50.370675 
L 209.643062 50.436804 
L 210.439471 50.343121 
L 211.265068 50.100646 
L 212.128192 49.400776 
L 212.607705 48.822144 
L 212.953789 48.833165 
L 212.949619 48.844187 
L 212.949619 49.070129 
L 213.041352 49.07564 
L 213.016334 49.00951 
L 213.095558 48.893784 
L 213.254006 48.93787 
L 214.90937 49.588143 
L 215.351356 49.466906 
L 215.555671 49.235453 
L 215.69744 48.992978 
L 215.876736 48.822144 
L 215.997657 48.612734 
L 216.314553 48.012058 
L 216.277026 48.006547 
L 216.172783 47.791627 
L 216.885799 46.62334 
L 218.787174 43.305846 
L 219.650298 42.121027 
L 219.958855 41.36605 
L 220.27992 40.324511 
L 221.534994 37.458902 
L 222.035356 36.902313 
L 222.723354 36.577176 
L 223.240394 36.610241 
L 223.724077 36.836183 
L 224.620559 37.409305 
L 225.637961 37.943851 
L 227.910438 37.315622 
L 228.189807 37.194384 
L 228.752714 36.852715 
L 229.770116 36.1804 
L 231.838279 35.188458 
L 233.510321 34.598804 
L 234.135773 34.394905 
L 234.661153 33.854848 
L 234.615287 33.904445 
L 233.301837 34.36184 
L 232.246907 35.309695 
L 231.471347 35.678918 
L 231.446328 35.497062 
L 232.847342 34.808214 
L 233.668769 34.488588 
L 235.265757 33.672992 
L 236.812709 33.502157 
L 238.409697 34.086301 
L 238.614012 34.323264 
L 238.739102 34.179984 
L 238.868362 33.832804 
L 238.576485 33.177021 
L 238.009408 32.4 
L 238.130329 32.444086 
L 240.027534 33.331323 
L 240.773907 34.097322 
L 241.149178 35.122329 
L 241.211724 36.108759 
L 241.195045 36.979464 
L 241.274269 38.390225 
L 240.753058 39.696281 
L 239.472966 42.942135 
L 238.918398 43.636494 
L 238.563975 44.093889 
L 238.368 44.644968 
L 238.155347 45.917959 
L 237.680003 46.480059 
L 236.921121 47.39485 
L 235.995451 48.904806 
L 235.636859 49.70938 
L 235.536786 50.497423 
L 235.75361 51.208314 
L 237.529894 53.715722 
L 238.10531 54.525808 
L 238.605672 54.933606 
L 239.389573 55.297318 
L 240.949034 55.886972 
L 242.028981 56.07985 
L 242.921293 55.909015 
L 244.080465 55.402023 
L 244.760123 54.839923 
L 245.281333 54.068412 
L 245.802543 53.109536 
L 246.219512 53.093003 
L 246.799097 53.285881 
L 247.68724 53.759808 
L 248.662945 54.101477 
L 249.613633 54.145563 
L 250.501775 53.952686 
L 251.314863 53.467737 
L 251.710983 53.093003 
L 252.332265 52.134126 
L 252.932699 50.822559 
L 253.016093 50.183308 
L 253.137014 48.981957 
L 253.362177 48.392302 
L 253.341328 47.984504 
L 253.091147 47.637325 
L 252.353114 47.086246 
L 250.756125 46.265139 
L 250.535132 45.951024 
L 250.580999 45.543226 
L 250.806162 45.262176 
L 251.185603 45.113384 
L 251.519177 45.207068 
L 251.656777 45.554247 
L 251.502499 46.110837 
L 251.189772 46.298204 
L 250.856198 46.248606 
L 250.635205 46.006132 
L 250.535132 45.680995 
L 250.69358 45.262176 
L 250.993797 45.069298 
L 251.398256 45.218089 
L 251.61925 45.774679 
L 251.706813 46.353311 
L 252.00703 46.810707 
L 253.032772 47.483023 
L 254.183604 49.114215 
L 254.642269 49.91879 
L 256.07247 51.95227 
L 256.752128 52.574989 
L 263.344395 56.129447 
L 263.552879 56.08536 
L 264.099108 56.487648 
L 267.564113 58.620322 
L 275.257177 62.825052 
L 276.091113 63.282447 
L 276.207864 63.249383 
L 276.791619 62.593599 
L 279.093284 60.097213 
L 279.752094 59.694925 
L 281.803577 57.512654 
L 283.221269 55.947591 
L 285.393673 53.473248 
L 285.768945 52.905637 
L 286.452773 51.985335 
L 287.14077 50.894199 
L 287.461836 50.183308 
L 287.862125 49.968387 
L 288.245736 49.665294 
L 290.272201 47.692433 
L 290.564079 47.262591 
L 291.623178 46.391887 
L 291.07695 46.992563 
L 289.725973 48.612734 
L 287.186637 51.268933 
L 286.140046 52.839507 
L 285.889865 53.473248 
L 285.610497 53.726744 
L 284.801578 54.89503 
L 284.13026 55.418555 
L 283.34219 56.07985 
L 282.16217 57.452035 
L 281.082222 58.934437 
L 279.564458 60.097213 
L 278.000827 61.866175 
L 277.266963 62.433786 
L 276.78328 63.188764 
L 276.570626 63.392663 
L 276.92088 63.662692 
L 277.884076 64.368072 
L 281.361591 66.10397 
L 282.658362 66.814862 
L 284.65147 67.834357 
L 285.026741 67.779249 
L 285.343637 67.426559 
L 286.390227 65.426143 
L 287.149109 64.114576 
L 288.433371 61.728406 
L 288.900376 60.951385 
L 289.429925 59.397343 
L 289.200593 58.499085 
L 288.354147 56.774209 
L 287.695338 55.771246 
L 286.869741 54.75175 
L 286.22344 54.167607 
L 286.244288 54.272312 
L 286.331852 55.143016 
L 285.623006 55.605922 
L 284.663979 56.443561 
L 284.213653 56.911978 
L 283.296323 57.738596 
L 281.624281 56.796252 
L 281.603432 56.85136 
L 281.695165 56.950554 
L 282.353975 57.424481 
L 284.276199 58.631344 
L 286.256797 59.810652 
L 288.283263 60.940363 
L 288.433371 61.204881 
L 288.262414 61.904751 
L 287.774562 62.643196 
L 286.636239 64.401137 
L 286.177573 64.35154 
L 285.080947 63.778418 
L 282.700059 62.466851 
L 280.907096 61.370205 
L 279.885523 60.923831 
L 279.293429 60.879745 
L 278.780558 61.276521 
L 277.946621 61.855154 
L 277.025122 62.918736 
L 276.774941 63.073038 
L 276.116131 63.01793 
L 273.268238 61.447356 
L 272.434302 61.237946 
L 272.288363 61.326118 
L 270.603811 63.657181 
L 269.5739 64.814446 
L 267.722561 66.489725 
L 267.08877 66.914056 
L 266.100555 67.961105 
L 265.362521 68.600356 
L 262.447914 70.947951 
L 262.039285 71.515563 
L 261.326269 71.895807 
L 260.071195 72.661806 
L 259.433234 72.904281 
L 259.162204 72.83264 
L 259.21224 72.457907 
L 259.541645 72.176857 
L 259.971123 72.149303 
L 260.146249 72.226454 
L 260.150419 72.529547 
L 259.679245 72.986942 
L 259.333161 72.942856 
L 259.095489 72.705892 
L 259.062132 72.380756 
L 259.366519 72.050109 
L 259.896068 72.022555 
L 260.442297 72.171346 
L 260.967677 72.050109 
L 264.399325 69.476572 
L 264.428513 69.201032 
L 264.190841 68.688529 
L 262.639719 66.864459 
L 261.84331 65.96069 
L 261.105276 65.106518 
L 260.867604 64.941194 
L 260.767532 64.720763 
L 260.821738 64.538907 
L 261.255385 64.136619 
L 262.060133 63.673713 
L 264.599469 61.601658 
L 264.85799 61.535528 
L 265.462594 61.816578 
L 268.285468 63.453282 
L 269.323719 64.081512 
L 269.936662 64.505842 
L 270.090941 64.483799 
L 269.736518 64.544418 
L 267.664186 63.750864 
L 265.204073 61.811067 
L 264.616148 61.695341 
L 264.707881 61.348161 
L 265.158207 61.111198 
L 267.222199 58.725027 
L 266.838589 58.025157 
L 266.354906 57.733085 
L 265.500121 57.435503 
L 264.149144 56.702568 
L 263.54871 56.730122 
L 263.085875 56.967086 
L 260.150419 59.970465 
L 258.570109 61.364694 
L 256.19756 63.513901 
L 254.984183 64.379094 
L 254.813226 64.252346 
L 254.5005 63.469814 
L 253.591509 60.77504 
L 253.212068 58.548682 
L 253.416383 58.218035 
L 254.179434 57.639402 
L 255.292739 56.515202 
L 255.926531 56.123936 
L 258.703539 53.528355 
L 258.95789 53.258327 
L 258.937041 52.955234 
L 258.891175 53.043406 
L 258.515904 53.473248 
L 257.460974 54.454168 
L 256.72711 55.31385 
L 255.889004 56.261706 
L 255.059237 57.077302 
L 253.991799 58.212524 
L 253.408043 58.702984 
L 253.508116 59.198955 
L 253.704091 59.887803 
L 253.612358 59.783098 
L 253.403873 59.457962 
L 253.203729 58.763603 
L 253.399704 58.096797 
L 254.029326 57.771661 
L 254.375409 57.738596 
L 254.779869 57.997603 
L 258.161481 61.766981 
L 259.253937 62.990376 
L 260.584066 64.456245 
L 260.479824 64.753827 
L 260.075365 65.172647 
L 259.504118 65.519827 
L 259.070471 66.649538 
L 258.56177 67.035293 
L 257.840415 67.57535 
L 256.823013 68.468098 
L 255.776423 69.333291 
L 255.067577 69.708025 
L 253.595679 70.110312 
L 253.06196 70.396873 
L 252.465695 71.041635 
L 252.248872 71.730483 
L 252.219684 72.474439 
L 252.315587 73.918265 
L 252.123781 74.563027 
L 251.74017 75.00389 
L 250.972949 75.499861 
L 247.253593 77.356996 
L 245.32303 78.183614 
L 241.495262 80.211584 
L 239.935801 80.900432 
L 238.163686 81.572748 
L 236.40408 82.471006 
L 235.474241 83.077193 
L 233.927289 83.683379 
L 232.4679 84.333652 
L 230.63741 84.983925 
L 229.966091 85.463363 
L 229.094628 85.876672 
L 228.865295 85.57909 
L 228.427479 84.493465 
L 227.977153 83.633782 
L 227.335022 82.944934 
L 226.830491 82.856761 
L 226.05493 83.501523 
L 225.450326 84.080156 
L 225.212654 84.162817 
L 224.991661 84.102199 
L 224.687274 83.755019 
L 224.057652 82.840229 
L 223.081946 81.506618 
L 223.236225 80.872878 
L 223.607326 80.443037 
L 224.253627 79.891958 
L 225.52121 78.558348 
L 226.630346 78.4316 
L 227.564355 78.007269 
L 228.331576 77.847456 
L 229.369827 77.555384 
L 232.163514 76.827961 
L 235.632689 75.968278 
L 236.241463 76.017875 
L 236.941969 76.315458 
L 237.642476 77.020838 
L 238.534788 76.827961 
L 243.87615 74.44179 
L 245.156243 73.692323 
L 251.710983 67.889465 
L 253.274613 66.412574 
L 256.030773 63.706778 
L 256.089149 63.546965 
L 255.980737 63.591052 
L 255.609635 63.872102 
L 254.308694 65.227755 
L 253.257935 66.214186 
L 252.415659 67.01325 
L 251.394087 67.983148 
L 248.537855 70.688945 
L 248.504497 71.240023 
L 248.888108 72.05562 
L 251.018815 76.084005 
L 251.319033 76.844493 
L 252.411489 78.900016 
L 253.020263 79.980131 
L 253.503946 80.217094 
L 253.941762 80.101368 
L 254.671457 79.792764 
L 253.97512 80.206073 
L 253.774975 80.261181 
L 253.462249 80.294245 
L 253.082808 80.310778 
L 252.248872 80.613871 
L 249.505221 82.046675 
L 248.984011 82.206488 
L 248.312692 82.344258 
L 245.089528 83.600717 
L 242.879596 84.724918 
L 240.690513 85.72237 
L 240.140115 85.992399 
L 239.718977 86.289981 
L 239.089355 86.295492 
L 238.814156 86.317535 
L 238.484752 86.449794 
L 231.938351 89.938122 
L 230.720804 90.55533 
L 229.58665 91.073344 
L 228.027189 91.833832 
L 227.264137 92.247141 
L 225.162618 93.22255 
L 221.20559 95.046621 
L 218.97481 96.58413 
L 216.527206 98.281452 
L 214.313105 100.022861 
L 213.274855 101.257277 
L 212.374203 102.596398 
L 211.752921 103.693045 
L 210.339398 106.944409 
L 210.251835 108.173314 
L 210.364417 109.275472 
L 210.685482 111.01688 
L 210.351908 114.565827 
L 209.864055 116.086804 
L 208.47972 118.754024 
L 206.027947 124.022336 
L 205.381647 126.237672 
L 205.006375 127.246146 
L 203.863882 131.517006 
L 202.779765 134.366082 
L 202.663014 134.972269 
L 200.503119 140.174451 
L 200.048623 141.403357 
L 199.535753 142.461428 
L 198.860264 144.362649 
L 198.51835 145.271929 
L 198.076364 146.506345 
L 197.563493 147.724229 
L 196.546091 150.562284 
L 196.304249 151.58729 
L 196.066577 152.265117 
L 195.716324 153.499533 
L 195.095041 156.243905 
L 194.7156 157.246868 
L 194.544643 157.61058 
L 194.181881 159.148089 
L 191.112995 166.775018 
L 190.775251 167.811046 
L 189.807885 170.22477 
L 189.34088 171.442654 
L 188.252593 174.435011 
L 187.823116 175.597787 
L 187.443675 176.545642 
L 187.072573 177.537584 
L 186.376236 179.273482 
L 186.413764 179.620661 
L 186.793205 179.973351 
L 188.636204 180.844056 
L 189.320032 181.108573 
L 190.324925 181.747825 
L 192.072022 182.62955 
L 193.468865 183.340442 
L 194.45708 183.874988 
L 194.45291 184.260743 
L 193.489714 186.217073 
L 191.57583 189.804595 
L 191.071298 190.702853 
L 190.329095 191.766434 
L 189.586891 193.331498 
L 189.353389 193.761339 
L 189.190772 194.191181 
L 188.853027 194.896561 
L 188.581998 195.38151 
L 188.173369 196.511222 
L 186.926634 198.616342 
L 186.267825 199.740543 
L 184.520728 202.821072 
L 183.71181 204.20428 
L 182.611014 206.122033 
L 177.011131 215.98083 
L 176.164685 217.413635 
L 174.79703 219.915532 
L 173.687894 221.849818 
L 173.095799 222.373343 
L 171.91161 222.98504 
L 171.711465 223.442435 
L 171.302836 225.068117 
L 170.919225 225.933311 
L 170.577312 227.002403 
L 170.260416 228.24233 
L 169.322237 229.719221 
L 168.342362 231.245709 
L 166.186636 235.241029 
L 164.752266 237.533516 
L 161.716737 243.363928 
L 159.748648 246.852256 
L 153.752645 257.576247 
L 153.277301 258.353268 
L 150.2793 263.941205 
L 149.799786 264.762312 
L 149.036735 265.963664 
L 147.65657 268.570266 
L 146.989421 269.545675 
L 143.845481 275.376087 
L 143.303422 276.334964 
L 142.477825 277.558359 
L 140.659844 280.886874 
L 140.126124 281.906369 
L 139.809229 282.655836 
L 138.3415 285.295503 
L 137.603467 286.651156 
L 136.285847 288.982219 
L 134.142631 292.861813 
L 133.583893 293.848243 
L 132.633206 296.025004 
L 131.724215 297.584557 
L 131.069575 298.896124 
L 128.405148 303.326796 
L 117.826665 322.564952 
L 117.222061 323.507296 
L 116.604949 324.609454 
L 114.390847 328.665392 
L 113.260864 330.836642 
L 111.271925 334.60602 
L 110.317068 336.314364 
L 109.883421 337.223644 
L 108.440711 339.527153 
L 100.59754 353.458421 
L 100.076329 354.477916 
L 99.329956 355.690289 
L 94.009442 364.843706 
L 93.137979 366.188338 
L 92.495848 367.626653 
L 91.470106 369.946694 
L 91.099004 370.630032 
L 90.273407 372.454102 
L 88.459595 375.749552 
L 88.109342 376.680875 
L 87.679865 377.551579 
L 87.112788 378.631694 
L 86.649954 379.463822 
L 85.695096 380.703749 
L 85.240601 381.475259 
L 84.298253 383.222179 
L 81.629656 387.884304 
L 81.041731 388.936864 
L 80.061856 390.496417 
L 75.320928 399.41838 
L 74.933147 400.090696 
L 74.295186 401.490436 
L 73.965781 402.829557 
L 73.803163 403.264909 
L 73.477928 403.744348 
L 72.493883 405.066936 
L 71.468142 406.731194 
L 70.263104 408.913465 
L 69.274889 410.963478 
L 68.390916 412.644268 
L 67.786312 413.630699 
L 67.194218 414.859604 
L 64.754954 418.579385 
L 61.164858 425.043537 
L 61.027258 425.721364 
L 61.185706 426.316529 
L 61.519281 426.895162 
L 62.115545 427.30296 
L 66.914849 429.738727 
L 67.782143 429.870986 
L 68.87043 430.311849 
L 69.854475 430.862928 
L 70.484097 431.132956 
L 71.972673 431.772208 
L 72.814949 432.224092 
L 72.710707 432.587804 
L 72.40632 433.171947 
L 70.996968 435.822636 
L 69.712706 438.401684 
L 69.204004 439.040935 
L 69.074744 439.261367 
L 69.091423 439.49833 
L 69.475034 439.972258 
L 74.11589 442.413536 
L 77.101382 444.336801 
L 78.427341 445.014628 
L 80.754023 445.791649 
L 80.703987 446.072699 
L 80.191116 447.290582 
L 79.694924 448.761962 
L 78.731728 450.878104 
L 77.318205 453.132016 
L 76.000586 455.644935 
L 74.032496 459.149795 
L 73.361177 460.499938 
L 72.706537 461.828037 
L 70.650884 465.2833 
L 65.884937 473.957278 
L 65.034322 475.36804 
L 62.17809 480.498582 
L 60.064062 483.84914 
L 58.696406 486.907627 
L 56.161239 491.872845 
L 54.801923 494.611706 
L 54.297391 495.802036 
L 53.555188 498.055948 
L 52.642028 498.717242 
L 51.799752 500.590909 
L 51.382784 501.318333 
L 50.615562 502.370893 
L 48.880975 505.699408 
L 48.555739 506.255998 
L 48.259692 506.878717 
L 47.592543 507.898212 
L 46.650195 509.551448 
L 45.79124 510.587476 
L 44.87808 512.042324 
L 44.269306 512.913028 
L 43.864847 513.91048 
L 40.720907 519.344116 
L 40.174679 519.977856 
L 37.677039 525.075334 
L 33.99521 531.688278 
L 33.511527 532.851054 
L 32.873566 534.245282 
L 32.735966 534.807383 
L 33.152934 535.182116 
L 34.562287 535.738706 
L 35.738137 536.4 
L 35.738137 536.4 
" clip-path="url(#pa4b74136ff)" style="fill: none; stroke: #000000; stroke-width: 3"/>
   </g>
  </g>
 </g>
 <defs>
  <clipPath id="pa4b74136ff">
   <rect x="7.2" y="7.2" width="297.967139" height="554.4"/>
  </clipPath>
 </defs>
</svg>
