<?xml version="1.0" encoding="utf-8" standalone="no"?>
<!DOCTYPE svg PUBLIC "-//W3C//DTD SVG 1.1//EN"
  "http://www.w3.org/Graphics/SVG/1.1/DTD/svg11.dtd">
<svg xmlns:xlink="http://www.w3.org/1999/xlink" width="320.125884pt" height="568.8pt" viewBox="0 0 320.125884 568.8" xmlns="http://www.w3.org/2000/svg" version="1.1">
 <metadata>
  <rdf:RDF xmlns:dc="http://purl.org/dc/elements/1.1/" xmlns:cc="http://creativecommons.org/ns#" xmlns:rdf="http://www.w3.org/1999/02/22-rdf-syntax-ns#">
   <cc:Work>
    <dc:type rdf:resource="http://purl.org/dc/dcmitype/StillImage"/>
    <dc:date>2023-03-23T05:03:02.264720</dc:date>
    <dc:format>image/svg+xml</dc:format>
    <dc:creator>
     <cc:Agent>
      <dc:title>Matplotlib v3.7.1, https://matplotlib.org/</dc:title>
     </cc:Agent>
    </dc:creator>
   </cc:Work>
  </rdf:RDF>
 </metadata>
 <defs>
  <style type="text/css">*{stroke-linejoin: round; stroke-linecap: butt}</style>
 </defs>
 <g id="figure_1">
  <g id="patch_1">
   <path d="M 0 568.8 
L 320.125884 568.8 
L 320.125884 0 
L 0 0 
z
" style="fill: #ffffff"/>
  </g>
  <g id="axes_1">
   <g id="LineCollection_1">
    <path d="M 35.574042 536.4 
L 34.663269 535.977856 
L 32.677697 534.580217 
L 32.116557 534.28928 
L 31.28348 533.88425 
L 30.5022 533.325194 
L 29.397186 532.817481 
L 28.451881 532.418155 
L 28.214476 532.235607 
L 27.07493 531.391319 
L 26.638967 531.003402 
L 21.144112 527.569204 
L 21.131163 526.781962 
L 21.295188 525.954788 
L 21.860645 525.053454 
L 22.538329 524.289031 
L 24.096572 520.90047 
L 25.223168 518.681361 
L 26.207321 517.175334 
L 28.533894 512.697185 
L 30.761188 509.223054 
L 31.175568 507.962327 
L 31.300745 507.648571 
L 31.784189 506.924081 
L 33.683432 503.27881 
L 38.599881 494.853044 
L 39.178287 493.495338 
L 41.068897 489.912818 
L 41.850177 488.560817 
L 42.726418 487.277271 
L 46.257284 481.669601 
L 46.848639 480.380351 
L 47.44431 478.668956 
L 48.014083 477.955875 
L 51.393872 471.161639 
L 52.563633 468.617365 
L 53.487356 467.014359 
L 58.352008 459.159058 
L 59.405224 457.613098 
L 61.930354 453.385953 
L 62.305886 452.553075 
L 64.140382 449.421223 
L 65.038206 447.852444 
L 66.393575 445.370922 
L 68.914388 440.927001 
L 72.078355 435.981071 
L 72.933014 434.440815 
L 75.298435 430.299241 
L 77.866729 425.381833 
L 78.423553 424.263722 
L 79.399073 422.404007 
L 80.154453 420.977845 
L 81.173138 419.118129 
L 81.501189 418.416457 
L 86.076638 410.213173 
L 86.646411 408.530301 
L 87.034893 408.336343 
L 87.561501 407.634672 
L 88.765794 405.324289 
L 90.518277 402.272302 
L 92.020405 399.482729 
L 93.298078 396.909932 
L 94.079357 395.711956 
L 97.04045 390.982802 
L 97.752666 389.853282 
L 98.313806 388.638192 
L 98.745452 387.320418 
L 99.280693 386.0711 
L 100.74829 383.543941 
L 101.51662 382.311736 
L 102.310849 381.461744 
L 103.083495 380.029877 
L 103.838876 378.43828 
L 103.938155 378.061773 
L 104.270522 377.685266 
L 104.671953 376.955071 
L 106.13955 373.846038 
L 106.62731 373.498054 
L 108.271882 370.149426 
L 109.061794 368.871584 
L 109.605668 367.987364 
L 110.253138 366.686704 
L 111.746633 363.857198 
L 112.191229 362.77902 
L 112.683305 362.248487 
L 113.408471 360.930713 
L 113.753788 360.132063 
L 114.103421 359.430391 
L 114.358092 358.996838 
L 115.415625 357.433764 
L 118.130679 352.265352 
L 118.760883 351.352608 
L 119.494681 350.017721 
L 120.06877 348.8882 
L 120.638543 347.718747 
L 121.083139 346.880164 
L 122.17952 345.0832 
L 122.749293 343.919451 
L 123.470142 342.624496 
L 124.290269 341.278199 
L 125.490246 339.201707 
L 127.087336 336.115492 
L 127.337691 335.522209 
L 131.105962 328.899111 
L 143.282699 307.033193 
L 145.143094 303.844295 
L 147.029387 300.216138 
L 149.567466 295.504099 
L 156.262298 283.341788 
L 156.879552 282.280723 
L 157.617666 280.763287 
L 159.244972 277.791165 
L 160.237758 276.00561 
L 161.593127 273.598248 
L 162.054989 272.59423 
L 162.836268 270.808675 
L 163.583016 269.576471 
L 165.888006 265.708719 
L 167.364236 263.107399 
L 167.921059 262.143313 
L 168.628959 260.751379 
L 169.280745 259.51347 
L 170.450506 257.260134 
L 170.99438 256.450074 
L 173.566991 252.017562 
L 173.566991 252.017562 
L 173.549725 251.56119 
L 173.748282 251.144751 
L 174.110865 250.739721 
L 175.854715 247.950148 
L 176.951096 245.942111 
L 177.456122 244.943798 
L 178.215819 243.483408 
L 181.125114 238.320701 
L 183.067522 234.886502 
L 193.025598 216.99102 
L 194.890309 213.779303 
L 195.222677 212.992061 
L 195.956475 211.503148 
L 196.461501 210.578995 
L 198.179453 208.006198 
L 198.693111 207.082045 
L 199.508923 205.593132 
L 200.989469 202.769331 
L 205.474272 194.651616 
L 206.790793 192.033182 
L 207.213806 191.006345 
L 208.081415 190.247627 
L 209.238226 187.555033 
L 209.51448 186.916112 
L 210.140367 185.934913 
L 214.012232 178.952423 
L 214.55179 178.022565 
L 215.294221 176.710496 
L 216.416501 174.742392 
L 219.330113 169.186064 
L 219.830822 168.085067 
L 221.276837 165.563612 
L 221.911356 164.667983 
L 222.54156 163.595509 
L 224.086853 161.188147 
L 224.609145 159.995875 
L 225.101221 159.140178 
L 225.459487 158.603941 
L 225.649412 158.147569 
L 227.665199 154.741894 
L 228.075263 153.686534 
L 230.000405 150.457703 
L 231.606128 147.445649 
L 232.080939 146.795319 
L 232.352876 146.738272 
L 232.590281 146.926525 
L 233.367244 147.976181 
L 233.850688 149.208385 
L 234.562904 151.661384 
L 234.50679 152.585537 
L 234.230537 153.184525 
L 234.001764 153.578146 
L 234.217587 153.059023 
L 234.51974 152.334532 
L 234.696714 152.026481 
L 234.873689 151.273468 
L 234.739879 151.866751 
L 234.316866 151.838228 
L 234.191689 151.427493 
L 234.023347 150.754345 
L 232.784522 147.713767 
L 232.378775 147.10337 
L 232.620497 146.915116 
L 233.134156 147.211758 
L 233.319763 147.49699 
L 233.380194 148.084569 
L 233.393143 148.078865 
L 234.036296 148.358392 
L 234.049245 148.329869 
L 234.2996 148.078865 
L 234.692398 147.58256 
L 234.865056 147.297328 
L 235.279437 146.435926 
L 235.469361 146.333242 
L 235.469361 146.333242 
L 235.642019 146.144989 
L 235.642019 146.144989 
L 236.155678 145.762777 
L 236.781565 144.832919 
L 236.967173 144.570506 
L 237.696655 143.070183 
L 237.679389 142.899044 
L 237.774351 142.938976 
L 238.063554 142.802065 
L 238.145567 142.699381 
L 238.866416 141.159126 
L 239.134037 140.788324 
L 241.09371 139.242364 
L 241.296584 139.253773 
L 241.426078 139.048406 
L 241.50809 138.763173 
L 242.043331 138.523578 
L 242.755548 137.650767 
L 242.906624 136.983323 
L 243.04475 136.903458 
L 243.277839 136.412858 
L 243.480713 136.104807 
L 243.653371 135.557161 
L 243.493662 135.129312 
L 243.32532 134.855489 
L 243.187194 134.729987 
L 243.152662 134.51321 
L 243.32532 134.216568 
L 243.321004 134.091066 
L 243.32532 133.549124 
L 243.333953 133.37228 
L 243.182877 133.201141 
L 243.277839 132.607857 
L 243.364169 132.15719 
L 243.329637 131.849139 
L 243.251941 131.820616 
L 243.243308 131.843435 
L 243.144029 132.008869 
L 243.148346 132.459537 
L 243.290789 132.550811 
L 243.346903 132.425309 
L 243.532511 131.917595 
L 243.636106 131.757865 
L 243.610207 131.746456 
L 243.674954 131.59243 
L 243.933941 131.341425 
L 244.145448 131.033374 
L 244.300841 130.919281 
L 244.615942 130.86794 
L 244.775651 130.37734 
L 244.792917 129.892445 
L 245.138234 129.721305 
L 245.367007 129.578689 
L 245.58283 129.447482 
L 245.703691 129.282047 
L 245.897931 128.99111 
L 245.841817 128.18105 
L 245.733906 127.639109 
L 245.651893 126.920323 
L 245.677792 125.922009 
L 245.686425 125.699528 
L 245.833184 125.43141 
L 245.755488 123.828403 
L 245.794336 123.30928 
L 245.712323 123.06398 
L 245.664842 122.875727 
L 245.703691 122.539153 
L 245.457652 121.786139 
L 245.630311 120.730779 
L 245.725273 120.668028 
L 245.630311 119.669714 
L 245.600096 119.355959 
L 245.587146 118.745561 
L 245.56988 118.734152 
L 245.604412 118.283485 
L 245.587146 117.655973 
L 245.4965 117.365036 
L 245.444703 117.290876 
L 245.306576 116.754639 
L 244.87493 115.311363 
L 244.620259 115.066063 
L 244.223144 113.839564 
L 243.787182 112.932524 
L 243.623156 112.869773 
L 243.41165 112.675815 
L 243.41165 112.704338 
L 243.597257 113.474466 
L 243.731068 114.079159 
L 243.817397 114.598282 
L 243.536827 115.003312 
L 243.195827 114.820763 
L 243.161295 114.649624 
L 243.092232 114.786535 
L 243.005902 115.334181 
L 243.243308 116.189879 
L 243.536827 116.343904 
L 243.636106 116.509339 
L 243.808764 117.268057 
L 243.726751 117.46772 
L 243.523878 117.54188 
L 243.26489 117.410674 
L 242.574256 116.960006 
L 242.487927 116.97712 
L 242.492243 117.022757 
L 242.582889 117.62745 
L 242.272104 117.610336 
L 242.017433 117.268057 
L 241.771394 116.726116 
L 241.439027 116.891551 
L 241.44766 116.885846 
L 241.490824 117.017053 
L 241.965635 117.547585 
L 241.918154 117.827113 
L 241.693698 117.95832 
L 241.676432 117.952615 
L 241.818875 118.083822 
L 242.237572 119.070726 
L 242.116711 119.73817 
L 242.090813 120.006289 
L 242.103762 120.006289 
L 242.436129 120.217361 
L 242.677851 120.736484 
L 243.463447 123.035457 
L 243.415966 123.23512 
L 243.230358 123.280757 
L 242.582889 123.257938 
L 242.043331 123.537466 
L 241.482191 123.48042 
L 240.81314 122.567676 
L 240.018911 121.928755 
L 239.742658 121.76332 
L 239.738341 121.84889 
L 240.053443 122.345195 
L 239.975747 122.527743 
L 239.975747 122.527743 
L 239.237632 122.733111 
L 237.886579 121.483793 
L 237.09235 121.272721 
L 236.561426 121.158628 
L 235.788779 121.016011 
L 234.86074 121.067353 
L 233.772992 121.386814 
L 232.404674 122.191169 
L 232.098205 122.544857 
L 231.43347 123.794175 
L 231.070887 124.495847 
L 229.767316 126.058921 
L 228.636403 126.960255 
L 225.105538 128.711582 
L 225.058057 128.546148 
L 225.472437 126.920323 
L 226.197602 126.036102 
L 227.773111 124.621349 
L 229.029201 122.887136 
L 230.125582 120.280112 
L 230.768735 117.827113 
L 231.731306 116.400951 
L 233.125523 115.260021 
L 234.968652 113.748289 
L 236.077982 112.613064 
L 237.66644 110.0802 
L 238.56858 107.96948 
L 238.844834 107.102374 
L 239.319644 106.206744 
L 239.285113 105.579232 
L 238.780087 103.348715 
L 239.077923 103.114824 
L 239.798772 102.909457 
L 240.182937 102.812478 
L 241.003064 102.321878 
L 247.771275 99.252777 
L 247.995731 99.229958 
L 248.80291 98.693721 
L 250.097848 97.524269 
L 251.479116 96.343406 
L 252.031623 96.11522 
L 254.578335 95.470595 
L 255.454576 95.122611 
L 257.332237 94.341075 
L 258.100567 94.26121 
L 258.458833 94.552147 
L 259.136518 96.086697 
L 259.563848 97.107829 
L 259.796936 97.153466 
L 259.973911 96.982327 
L 259.736506 96.571592 
L 258.027187 93.536719 
L 257.431516 92.355857 
L 256.827211 91.32902 
L 256.106362 89.857221 
L 253.417207 84.437805 
L 248.759745 74.397623 
L 246.036058 68.801363 
L 243.023168 62.891347 
L 242.285053 63.0796 
L 239.932582 64.152074 
L 238.767137 64.848041 
L 235.913957 66.142997 
L 235.257854 66.627892 
L 231.524115 70.541281 
L 231.217647 71.037585 
L 231.256495 71.493957 
L 231.429153 71.830531 
L 232.12842 72.743275 
L 233.867954 75.259025 
L 234.80031 76.462706 
L 234.6406 76.964715 
L 234.282334 77.272766 
L 232.141369 78.362354 
L 231.541381 78.57913 
L 229.223442 79.845562 
L 228.619137 80.147909 
L 227.678149 80.222069 
L 224.963094 79.640195 
L 224.622094 79.31503 
L 224.553031 79.098254 
L 224.63936 78.499265 
L 225.368842 77.073103 
L 225.653728 76.514048 
L 225.658045 76.057676 
L 225.325677 75.470097 
L 223.115649 72.903005 
L 222.036534 71.653687 
L 213.779143 62.743026 
L 212.630965 61.442366 
L 212.333129 60.96888 
L 211.96623 59.896406 
L 211.828103 59.713858 
L 211.59933 59.109165 
L 211.305811 58.681316 
L 210.766253 58.190716 
L 209.997923 57.506159 
L 209.618075 57.300791 
L 209.51448 57.340724 
L 209.251176 58.259172 
L 209.074201 58.230649 
L 208.370617 57.705821 
L 207.287186 57.032673 
L 207.028198 56.815896 
L 206.91597 56.901466 
L 207.075679 56.895761 
L 207.032515 56.912875 
L 207.131793 57.118242 
L 207.705882 57.352133 
L 209.328872 58.333333 
L 209.717353 57.437703 
L 210.041088 57.591728 
L 210.619494 58.116556 
L 212.298597 60.272913 
L 212.466939 60.672239 
L 213.019446 61.14002 
L 213.632384 61.955784 
L 214.085612 62.406452 
L 214.297119 63.039668 
L 214.128777 63.062486 
L 213.114408 62.144038 
L 212.652547 61.750417 
L 212.350395 61.408138 
L 212.03961 60.917538 
L 211.327393 60.250095 
L 210.748988 59.137688 
L 210.468418 58.909502 
L 210.222379 59.0293 
L 210.231012 59.320237 
L 210.502949 59.514195 
L 211.033874 59.66822 
L 211.297178 60.039023 
L 211.564799 60.529622 
L 212.540319 61.476594 
L 212.911535 61.767531 
L 214.228055 62.925575 
L 215.130196 63.963821 
L 215.609323 64.882269 
L 216.312906 65.749376 
L 217.094186 66.297022 
L 217.616477 67.010103 
L 222.196243 71.904692 
L 223.327156 73.114077 
L 224.108435 74.061049 
L 225.74869 76.012039 
L 225.567399 76.462706 
L 224.768854 77.877459 
L 224.496917 78.624768 
L 224.509866 78.864363 
L 224.833601 79.218051 
L 225.640779 79.440532 
L 228.632086 79.885495 
L 229.128479 80.113681 
L 229.525594 80.575758 
L 230.224861 81.733801 
L 232.365825 86.502887 
L 235.037715 90.855534 
L 235.512526 90.83842 
L 238.357074 89.326688 
L 243.601574 86.799529 
L 244.628892 86.29752 
L 246.743958 85.105249 
L 259.65881 78.852954 
L 260.345127 78.436514 
L 260.798355 78.139873 
L 267.97663 74.682855 
L 271.365053 72.99428 
L 272.996675 72.08724 
L 273.285878 71.602345 
L 273.251346 71.357045 
L 272.293092 70.752353 
L 270.324785 69.634241 
L 269.547822 69.115118 
L 269.025531 68.732907 
L 267.009743 67.700366 
L 266.146451 67.198357 
L 265.95221 67.266812 
L 264.411233 66.200043 
L 263.017017 65.327232 
L 262.529256 64.973544 
L 262.188256 65.099046 
L 261.968116 65.35005 
L 261.959484 65.492667 
L 262.404079 66.17152 
L 263.642903 68.841295 
L 263.690384 69.537262 
L 263.237156 69.90236 
L 262.369547 70.278867 
L 261.264533 70.95772 
L 260.207 71.476843 
L 258.929328 72.520794 
L 258.67034 72.754684 
L 258.38977 72.509384 
L 258.053086 72.674819 
L 258.117833 72.743275 
L 258.618543 72.669115 
L 259.205581 72.395291 
L 260.465988 71.722143 
L 262.460193 70.95772 
L 266.616945 68.710088 
L 266.850034 68.396333 
L 267.765124 67.979893 
L 266.556515 68.567472 
L 265.542146 69.320486 
L 264.238575 70.170478 
L 264.229942 70.38155 
L 266.038539 73.222465 
L 267.113338 76.263043 
L 267.877352 77.734842 
L 268.352163 78.67611 
L 268.697479 79.098254 
L 268.598201 79.548921 
L 267.993896 80.587167 
L 267.497503 81.482797 
L 266.910465 82.047557 
L 265.943577 82.532452 
L 265.762286 82.914663 
L 264.864462 83.553584 
L 264.62274 83.639154 
L 264.173828 83.890158 
L 263.452979 84.038479 
L 263.224207 84.266665 
L 263.271688 84.50626 
L 263.655853 84.414986 
L 264.100448 84.129754 
L 264.493246 83.770361 
L 266.858667 82.578089 
L 266.815502 82.903254 
L 265.978109 84.728742 
L 265.978109 84.717332 
L 265.779552 84.814311 
L 265.61121 84.99686 
L 264.557993 86.713959 
L 264.087499 88.00321 
L 263.763764 88.995819 
L 263.099029 90.193795 
L 262.373864 91.271974 
L 261.912002 91.625662 
L 261.618483 91.990759 
L 258.864581 93.941749 
L 258.307757 93.451149 
L 257.871795 92.806524 
L 257.712086 92.738068 
L 255.631551 88.277033 
L 255.631551 87.666636 
L 255.890539 87.375699 
L 259.615645 85.555916 
L 262.37818 84.27237 
L 263.051548 83.947205 
L 265.188197 82.737819 
L 266.228464 82.338494 
L 266.975211 82.190173 
L 267.273047 81.773734 
L 268.378061 80.005293 
L 268.999632 78.716042 
L 269.919038 77.318403 
L 270.85571 76.228815 
L 273.72184 71.094632 
L 274.352044 70.090613 
L 275.008146 68.487607 
L 275.025412 67.728889 
L 274.658512 67.403724 
L 271.952091 65.800718 
L 270.752115 65.355755 
L 269.431278 64.62556 
L 267.471604 63.273558 
L 267.359377 63.113828 
L 267.41549 62.874233 
L 267.588149 62.668866 
L 269.448544 61.562164 
L 270.359317 60.900424 
L 272.280142 59.810837 
L 274.110322 58.852456 
L 274.939082 58.287695 
L 275.254184 58.253467 
L 276.328983 58.692725 
L 279.026771 60.250095 
L 279.354822 60.506804 
L 279.324607 60.843378 
L 278.897277 62.012831 
L 277.364934 63.404765 
L 277.084364 63.404765 
L 276.324666 62.925575 
L 275.836906 62.583296 
L 275.254184 62.320882 
L 274.179385 61.932966 
L 273.143435 61.470889 
L 271.455698 60.324255 
L 271.153546 60.324255 
L 271.166495 60.398415 
L 275.396627 62.737321 
L 275.914603 62.91987 
L 276.652718 63.336309 
L 277.002351 63.581609 
L 276.998034 63.587314 
L 276.989401 63.610133 
L 277.036883 63.610133 
L 277.248389 63.564495 
L 277.554858 63.159465 
L 278.789366 61.539345 
L 279.527481 60.198753 
L 280.326026 58.692725 
L 280.891482 57.403475 
L 280.977812 56.998445 
L 280.218114 56.553482 
L 279.091518 56.000131 
L 278.780733 55.61792 
L 278.776416 55.332687 
L 279.134683 54.631016 
L 281.547585 52.041105 
L 281.836787 51.972649 
L 283.377764 52.674321 
L 283.731714 52.94244 
L 284.405082 53.467267 
L 286.757553 54.773632 
L 287.534516 55.121615 
L 290.685533 57.055491 
L 292.62794 57.97394 
L 293.379005 58.407493 
L 294.639411 59.092051 
L 296.940085 60.358483 
L 297.341516 60.541032 
L 297.6782 60.706466 
L 297.734314 60.620897 
L 297.630719 60.512508 
L 291.566091 57.306496 
L 291.941623 56.912875 
L 292.114282 56.456503 
L 294.186183 52.309224 
L 295.718527 50.004546 
L 295.796223 49.639448 
L 295.688311 49.799178 
L 295.36026 50.597829 
L 294.712791 51.527687 
L 293.875398 52.873984 
L 293.115701 54.488399 
L 292.735852 55.435371 
L 290.210722 59.702448 
L 289.174772 61.105792 
L 289.364696 61.396729 
L 290.340216 61.853101 
L 291.484078 62.383633 
L 295.908451 64.38026 
L 295.869603 64.209121 
L 294.5315 63.866842 
L 293.625043 63.399061 
L 288.415074 60.598078 
L 281.823838 56.75885 
L 281.677078 56.485026 
L 281.353344 56.199794 
L 280.878533 56.057178 
L 279.618126 55.389734 
L 279.212379 54.870611 
L 279.583595 54.106188 
L 281.538952 52.052514 
L 282.302965 51.419298 
L 283.213739 50.443804 
L 285.708653 48.184763 
L 286.312958 47.551547 
L 286.619426 47.540137 
L 287.228047 47.157926 
L 288.99348 45.292506 
L 289.304265 44.653585 
L 289.602101 43.506951 
L 290.076912 43.033465 
L 290.905672 42.023742 
L 291.156027 41.624417 
L 291.410698 41.207977 
L 291.777598 40.608989 
L 292.865346 39.319739 
L 293.227929 38.743569 
L 294.065322 37.825121 
L 294.345892 37.448614 
L 294.635095 36.980833 
L 295.140121 36.421777 
L 296.590452 34.59629 
L 297.19044 33.957369 
L 298.718467 32.622481 
L 299.029252 32.439933 
L 299.02062 32.55973 
L 298.675303 33.010397 
L 297.669567 34.516425 
L 296.003413 36.513052 
L 295.701261 36.986537 
L 295.027893 37.471433 
L 294.544449 37.876463 
L 293.012106 39.679132 
L 292.187661 40.221073 
L 291.125812 41.287843 
L 287.353225 45.532101 
L 286.230945 46.404912 
L 286.256844 46.644508 
L 286.567629 46.296524 
L 287.31006 45.497873 
L 288.009327 44.585129 
L 288.531619 43.991846 
L 290.227988 41.601598 
L 290.953154 41.179454 
L 291.242356 40.785833 
L 292.204927 39.707655 
L 294.94588 36.530166 
L 295.43364 35.862722 
L 295.899818 35.48051 
L 296.14154 35.49192 
L 296.706996 35.007024 
L 297.052313 34.67045 
L 297.613453 33.814753 
L 298.286821 33.21006 
L 298.66667 33.021807 
L 298.718467 33.175832 
L 297.462377 34.852999 
L 296.439376 36.199296 
L 295.37321 37.716733 
L 294.548766 38.492565 
L 292.239459 40.75731 
L 291.501344 41.33348 
L 289.040961 44.25426 
L 284.44393 49.154553 
L 283.813727 49.833406 
L 282.100092 51.385071 
L 282.652599 50.83172 
L 283.278485 50.16998 
L 285.600742 47.950872 
L 285.71297 47.928054 
L 285.63959 47.990805 
L 285.164779 48.521337 
L 284.478462 48.989118 
L 283.753296 49.491127 
L 282.311598 51.014268 
L 281.167736 52.229359 
L 279.911646 53.621293 
L 279.471367 53.883707 
L 279.385037 54.094779 
L 278.910227 54.551151 
L 273.367891 58.801114 
L 268.114757 62.218198 
L 267.765124 62.258131 
L 266.897515 62.651752 
L 266.250046 63.00544 
L 262.986801 64.534286 
L 262.343649 64.808109 
L 261.907686 64.950725 
L 261.46309 65.093341 
L 261.324964 65.230253 
L 261.747977 65.76649 
L 262.542206 66.57655 
L 263.470245 67.922847 
L 264.113398 69.17787 
L 264.985323 70.866446 
L 265.904729 72.583545 
L 266.431337 73.3879 
L 266.72054 74.260711 
L 265.140715 75.167751 
L 264.855829 75.327481 
L 264.359436 76.023448 
L 263.44003 76.445592 
L 261.894737 77.255652 
L 260.845837 77.791889 
L 260.608431 77.757661 
L 259.917797 78.065712 
L 258.916378 78.721747 
L 257.254541 79.623081 
L 253.645979 81.67105 
L 252.65751 82.435473 
L 252.752472 82.943187 
L 253.028725 83.547879 
L 253.512169 84.688809 
L 254.759626 86.54282 
L 256.123628 90.102521 
L 256.658869 90.981037 
L 257.271807 92.144785 
L 257.776833 92.71525 
L 257.742301 92.835047 
L 257.090515 93.160212 
L 255.799893 93.987386 
L 255.299184 94.472282 
L 254.738044 94.677649 
L 253.041675 96.828301 
L 251.198546 97.843729 
L 250.477697 97.626952 
L 249.946772 97.729636 
L 249.333834 98.157485 
L 248.686365 98.402784 
L 247.978466 98.636675 
L 246.532451 99.326937 
L 246.13102 99.680626 
L 242.099445 101.323564 
L 241.538305 101.871211 
L 241.098026 102.025236 
L 240.81314 101.779936 
L 240.580051 101.831278 
L 240.433291 101.945371 
L 240.282215 101.996713 
L 239.734025 102.259127 
L 239.531151 102.293355 
L 239.759923 102.624224 
L 240.346962 103.228917 
L 240.791558 103.902066 
L 241.02033 104.364142 
L 240.510988 103.160461 
L 240.208835 102.350401 
L 239.772873 101.283632 
L 239.738341 101.340678 
L 239.734025 101.608797 
L 239.772873 102.601406 
L 239.513885 104.72924 
L 239.332594 106.714457 
L 236.833363 111.934211 
L 236.285172 112.692929 
L 235.706766 113.388896 
L 235.08088 114.113387 
L 233.794574 115.322772 
L 233.211852 115.653642 
L 232.719775 116.052967 
L 232.40899 116.281153 
L 230.87233 117.964024 
L 230.673773 118.426101 
L 230.052202 121.68916 
L 229.637822 122.847204 
L 229.339986 123.30928 
L 228.977403 123.645855 
L 227.755845 125.294498 
L 227.043629 125.853554 
L 226.551552 126.4012 
L 226.23645 126.640795 
L 225.947248 126.8918 
L 225.515601 127.119986 
L 224.790436 128.249506 
L 224.660942 128.608899 
L 224.272461 130.137745 
L 223.396219 131.946118 
L 222.817813 132.972955 
L 222.524294 133.817243 
L 219.170403 140.012491 
L 218.82077 140.320542 
L 218.022225 141.701067 
L 217.245262 143.195685 
L 216.256792 145.072515 
L 216.01507 145.768482 
L 215.803564 146.555723 
L 215.52731 147.42283 
L 215.630905 147.679539 
L 217.111451 148.597988 
L 219.925784 149.710394 
L 220.361747 149.921466 
L 221.242305 150.161061 
L 221.721432 150.383543 
L 222.619256 150.874142 
L 224.90698 152.271781 
L 226.547236 153.446939 
L 227.022046 153.857674 
L 227.004781 154.331159 
L 226.370261 155.62041 
L 224.557347 159.493866 
L 224.07822 160.326745 
L 223.573194 161.028417 
L 222.131496 163.521348 
L 220.676848 165.962938 
L 220.409228 166.276694 
L 219.981898 166.927024 
L 219.222201 168.153523 
L 218.017908 170.178673 
L 212.561901 180.481269 
L 209.890012 185.678203 
L 209.833898 186.009073 
L 208.215225 188.32516 
L 206.605185 191.103324 
L 203.605244 196.671061 
L 202.318939 198.884465 
L 200.156392 202.843491 
L 197.432705 207.869287 
L 196.405387 209.500816 
L 195.533462 211.417578 
L 194.536359 213.083335 
L 192.658699 216.443373 
L 192.192521 217.453096 
L 191.385343 218.845031 
L 190.146518 220.950046 
L 187.543692 225.650676 
L 187.280388 225.867453 
L 186.507741 227.675827 
L 185.687614 229.084875 
L 184.681878 230.887544 
L 183.002775 233.945235 
L 181.245975 236.900243 
L 174.900777 248.72598 
L 173.09218 251.949106 
L 172.276369 253.534999 
L 171.54257 254.989684 
L 171.486456 255.525921 
L 171.197253 256.142023 
L 170.718126 256.815172 
L 169.660593 258.783275 
L 169.064922 259.427901 
L 163.751358 269.336875 
L 162.469369 271.647258 
L 161.437735 273.062011 
L 161.010405 273.096239 
L 160.90681 273.278788 
L 160.721202 274.225759 
L 159.65072 276.268023 
L 156.629197 281.801533 
L 155.299727 284.174666 
L 154.557295 285.49244 
L 153.348686 287.637388 
L 152.351584 289.360192 
L 149.822138 294.038004 
L 149.442289 294.733971 
L 148.963162 295.378596 
L 148.419288 296.542345 
L 145.98912 300.769489 
L 143.68413 304.97952 
L 141.271228 309.269416 
L 140.930227 309.760015 
L 140.412252 310.969401 
L 139.087098 313.154281 
L 137.874173 315.44755 
L 136.717361 317.478405 
L 133.18218 324.112911 
L 132.983622 324.620625 
L 132.275723 325.875648 
L 131.805228 326.714231 
L 131.42538 327.381675 
L 127.044172 335.00879 
L 125.908942 337.096692 
L 125.140612 338.50574 
L 124.018332 340.816122 
L 122.770875 343.103687 
L 121.648595 344.963402 
L 121.238531 345.442592 
L 119.382453 348.990884 
L 118.53211 350.599595 
L 117.254438 352.79018 
L 115.722094 355.836462 
L 115.074625 356.823366 
L 114.332193 358.500533 
L 113.844433 359.630054 
L 112.29914 362.271306 
L 109.450276 367.439717 
L 108.410009 368.985677 
L 107.171184 371.199081 
L 106.027322 373.361143 
L 104.982738 375.249381 
L 104.507928 376.116488 
L 103.636002 378.061773 
L 100.459087 383.446961 
L 99.837517 384.582187 
L 99.379972 385.118424 
L 98.685021 386.807 
L 98.167046 387.520081 
L 97.398716 388.917719 
L 97.079298 389.356977 
L 96.336867 390.748912 
L 95.767094 391.969707 
L 95.529688 392.483125 
L 94.44194 394.382773 
L 92.503849 398.501529 
L 91.998823 399.539775 
L 91.541278 400.155877 
L 90.479429 401.696132 
L 89.853542 402.757197 
L 89.339883 403.835376 
L 86.737057 408.364867 
L 85.614777 410.327266 
L 84.893928 411.656449 
L 84.725586 411.833293 
L 83.383166 414.263473 
L 82.981736 414.79971 
L 81.91557 416.916135 
L 79.027857 422.461053 
L 78.199097 423.97849 
L 77.409184 425.307673 
L 76.666753 426.522763 
L 74.396294 430.573064 
L 73.08409 432.946197 
L 71.767569 435.627382 
L 71.668291 436.317645 
L 71.849582 436.985089 
L 72.337342 437.481393 
L 73.675445 438.325681 
L 76.334385 439.677683 
L 82.74433 442.855172 
L 83.478129 443.163223 
L 83.581724 443.46557 
L 83.335685 444.355495 
L 82.597571 445.730315 
L 80.663796 449.118876 
L 79.424972 451.440668 
L 78.708439 452.604417 
L 77.637957 454.703727 
L 76.576107 456.723173 
L 75.747347 458.674163 
L 72.37619 464.926458 
L 69.587756 470.060641 
L 66.548968 475.343146 
L 63.570609 480.676992 
L 61.213822 485.240711 
L 58.705958 489.844363 
L 57.406703 492.314476 
L 54.847041 497.026515 
L 54.285901 498.133217 
L 53.608217 499.182872 
L 51.639911 502.708345 
L 50.927695 504.083166 
L 50.401086 504.927454 
L 49.930592 505.452281 
L 48.816945 507.523069 
L 48.484578 508.019373 
L 47.815526 509.257282 
L 47.215538 510.483781 
L 46.680297 511.339479 
L 44.181066 516.131383 
L 42.33362 519.913566 
L 41.427163 521.62496 
L 40.520707 523.41622 
L 39.368211 524.933656 
L 38.34521 526.605118 
L 37.943779 527.044376 
L 37.205664 528.156783 
L 36.208562 529.73697 
L 35.733751 530.221866 
L 35.05175 530.107773 
L 32.608633 529.029594 
L 31.896417 528.710134 
L 30.761188 527.820208 
L 29.984225 527.780276 
L 29.267692 527.483634 
L 28.115197 526.565186 
L 23.185798 523.752794 
L 22.689405 523.644406 
L 22.292291 523.923933 
L 21.640505 525.264526 
L 21.631872 525.230298 
L 21.81748 526.188679 
L 21.81748 526.188679 
L 22.067835 525.789354 
L 22.546962 525.583986 
L 22.555595 525.481303 
L 22.167113 525.264526 
L 21.687986 525.429961 
L 21.342669 525.332982 
L 21.359935 525.28164 
L 21.523961 525.070568 
L 21.808847 524.933656 
L 22.09805 524.802449 
L 23.021773 524.808154 
L 25.003028 525.578282 
L 27.856209 526.935988 
L 28.792881 527.175583 
L 32.751076 529.006775 
L 34.227306 529.708447 
L 35.254624 530.444347 
L 35.388434 531.157428 
L 35.034484 531.927555 
L 34.335218 533.473515 
L 33.920837 534.642968 
L 34.071913 535.173501 
L 35.241674 535.772489 
L 36.351005 535.966447 
L 36.635891 536.063426 
L 36.635891 536.063426 
" clip-path="url(#p89d5df0a78)" style="fill: none; stroke: #000000; stroke-width: 3"/>
   </g>
  </g>
 </g>
 <defs>
  <clipPath id="p89d5df0a78">
   <rect x="7.2" y="7.2" width="305.725884" height="554.4"/>
  </clipPath>
 </defs>
</svg>
