<?xml version="1.0" encoding="utf-8" standalone="no"?>
<!DOCTYPE svg PUBLIC "-//W3C//DTD SVG 1.1//EN"
  "http://www.w3.org/Graphics/SVG/1.1/DTD/svg11.dtd">
<svg xmlns:xlink="http://www.w3.org/1999/xlink" width="392.779213pt" height="568.8pt" viewBox="0 0 392.779213 568.8" xmlns="http://www.w3.org/2000/svg" version="1.1">
 <metadata>
  <rdf:RDF xmlns:dc="http://purl.org/dc/elements/1.1/" xmlns:cc="http://creativecommons.org/ns#" xmlns:rdf="http://www.w3.org/1999/02/22-rdf-syntax-ns#">
   <cc:Work>
    <dc:type rdf:resource="http://purl.org/dc/dcmitype/StillImage"/>
    <dc:date>2023-03-31T05:02:40.237242</dc:date>
    <dc:format>image/svg+xml</dc:format>
    <dc:creator>
     <cc:Agent>
      <dc:title>Matplotlib v3.7.1, https://matplotlib.org/</dc:title>
     </cc:Agent>
    </dc:creator>
   </cc:Work>
  </rdf:RDF>
 </metadata>
 <defs>
  <style type="text/css">*{stroke-linejoin: round; stroke-linecap: butt}</style>
 </defs>
 <g id="figure_1">
  <g id="patch_1">
   <path d="M 0 568.8 
L 392.779213 568.8 
L 392.779213 0 
L 0 0 
z
" style="fill: #ffffff"/>
  </g>
  <g id="axes_1">
   <g id="LineCollection_1">
    <path d="M 367.604826 155.144207 
L 368.380158 153.288325 
L 368.186325 153.480312 
L 368.089408 152.904349 
L 367.362534 152.328385 
L 367.532138 150.504501 
L 367.629055 150.440505 
L 367.919804 150.504501 
L 367.629055 149.992534 
L 365.49689 148.232646 
L 364.430808 147.592686 
L 361.935207 146.952727 
L 359.512293 146.152778 
L 357.961628 145.832798 
L 356.871317 145.064847 
L 349.844866 140.489137 
L 349.844866 140.617129 
L 349.820637 140.745121 
L 349.820637 140.745121 
L 349.747949 140.393143 
L 349.820637 140.585131 
L 349.941782 140.553133 
L 349.869095 140.489137 
L 349.747949 140.329147 
L 349.747949 140.329147 
L 349.360283 139.913174 
L 349.190679 139.465202 
L 348.584951 139.017231 
L 348.003451 137.833306 
L 347.155431 137.417332 
L 346.646619 137.513326 
L 345.362475 137.481328 
L 344.223705 137.225344 
L 342.212687 136.489391 
L 340.637793 135.529452 
L 339.59594 134.313529 
L 338.117962 133.769564 
L 336.034256 133.161602 
L 334.023237 132.137667 
L 332.084906 131.753692 
L 330.582699 130.377779 
L 329.104722 130.185791 
L 327.19062 130.153793 
L 325.397663 129.641826 
L 319.509982 125.002121 
L 317.765484 124.042181 
L 313.840364 121.482344 
L 308.170745 119.242486 
L 305.069415 117.162618 
L 303.761041 116.330671 
L 302.283064 114.986756 
L 299.787462 113.83483 
L 298.285256 113.67484 
L 296.952653 113.002882 
L 295.208155 111.722964 
L 293.124449 110.411047 
L 291.234576 109.611098 
L 289.683911 109.131128 
L 288.399766 108.427173 
L 287.115622 108.331179 
L 285.177291 107.243248 
L 283.069356 106.443299 
L 281.494461 104.939394 
L 280.13763 103.819465 
L 278.271986 102.539547 
L 276.648633 101.739597 
L 274.371094 99.65973 
L 272.020868 99.17976 
L 270.882098 97.899841 
L 269.69487 97.13189 
L 268.749934 95.979963 
L 267.150811 94.732042 
L 264.534063 93.484122 
L 263.031857 92.332195 
L 260.318193 90.924284 
L 257.822592 89.836353 
L 255.811573 88.716424 
L 253.703638 86.604558 
L 250.917287 85.388636 
L 248.397456 83.372764 
L 246.580271 82.124843 
L 244.472335 81.38889 
L 242.267484 80.780928 
L 239.868799 79.692997 
L 236.961302 78.189093 
L 234.48993 76.781182 
L 231.94587 76.077227 
L 229.910622 75.24528 
L 227.269646 73.3574 
L 226.03396 71.245534 
L 224.168316 69.197664 
L 223.102234 69.069672 
L 222.93263 68.109733 
L 222.496505 67.565767 
L 221.696944 67.181792 
L 220.38857 66.861812 
L 219.492092 66.765818 
L 218.329093 66.477836 
L 216.536137 65.549895 
L 216.14847 65.421903 
L 215.058159 64.84594 
L 214.573576 64.429966 
L 214.549347 63.886001 
L 214.937013 62.542086 
L 215.058159 62.286102 
L 214.791639 62.062117 
L 214.74318 61.774135 
L 214.622035 61.742137 
L 214.597805 61.838131 
L 214.767409 62.158111 
L 214.549347 61.870129 
L 214.113223 61.742137 
L 213.677098 61.966123 
L 213.265203 61.934125 
L 214.791639 62.254105 
L 213.119828 61.582147 
L 212.174891 61.326163 
L 208.54052 59.630271 
L 203.500859 58.062371 
L 200.351071 56.398476 
L 197.928157 54.702584 
L 194.414932 53.006692 
L 191.798185 52.366732 
L 187.70346 50.318862 
L 186.128566 49.230931 
L 184.747505 48.62297 
L 183.632964 47.407047 
L 179.974364 44.591226 
L 177.357617 43.759279 
L 175.152765 43.695283 
L 173.868621 43.055323 
L 172.996372 42.031388 
L 172.124123 41.295435 
L 171.203415 40.175506 
L 170.040417 39.247565 
L 168.053627 38.38362 
L 166.721025 37.551673 
L 165.000756 37.103701 
L 163.74084 36.239756 
L 162.359779 34.831846 
L 160.494135 33.391937 
L 158.337742 32.4 
L 156.908223 32.71998 
L 156.035974 32.655984 
L 155.599849 33.647921 
L 155.357558 33.903905 
L 152.692352 33.455933 
L 150.414813 32.943965 
L 149.009523 32.431998 
L 148.428024 34.383874 
L 148.185732 35.791785 
L 147.628462 36.65573 
L 147.773837 37.519675 
L 148.282649 38.351622 
L 148.016128 38.22363 
L 147.846524 37.903651 
L 147.386171 37.743661 
L 145.980881 37.519675 
L 145.811277 37.679665 
L 145.980881 38.06364 
L 145.447839 38.671602 
L 146.102026 40.239502 
L 146.198943 41.199441 
L 146.441234 43.343305 
L 146.659296 43.471297 
L 146.610838 43.439299 
L 146.174714 43.599289 
L 146.126255 43.407301 
L 146.126255 43.407301 
L 145.617443 43.823275 
L 145.617443 43.823275 
L 145.350923 43.887271 
L 145.350923 43.887271 
L 145.011715 44.175252 
L 145.229777 44.335242 
L 145.060173 44.623224 
L 145.035944 45.455171 
L 144.890569 45.871145 
L 145.011715 47.151063 
L 144.720965 48.814958 
L 144.59982 51.086814 
L 145.350923 54.4466 
L 145.108631 57.006438 
L 144.551361 58.894318 
L 144.091008 60.046245 
L 143.46105 60.398222 
L 142.007302 58.990312 
L 140.383949 58.86232 
L 137.985264 58.286356 
L 136.483058 57.390413 
L 134.060144 57.902381 
L 131.516084 59.150302 
L 128.778191 60.686204 
L 126.621798 62.95806 
L 124.465404 65.581893 
L 122.745135 67.341781 
L 121.339845 69.453647 
L 119.764951 71.085544 
L 119.207681 71.725503 
L 117.899307 72.461456 
L 116.712079 72.87743 
L 115.161414 73.165412 
L 114.071103 73.165412 
L 113.053479 72.525452 
L 112.544667 71.533515 
L 112.011626 72.301467 
L 111.987397 72.781436 
L 112.690042 73.293404 
L 114.870665 72.749438 
L 116.3971 72.525452 
L 117.24512 71.693505 
L 118.359661 70.957552 
L 119.207681 70.317593 
L 119.78918 69.549641 
L 121.291387 66.797816 
L 121.606366 66.445838 
L 122.938968 64.237979 
L 123.883905 63.086052 
L 125.022674 62.47809 
L 125.240737 61.582147 
L 125.119591 61.326163 
L 124.635008 61.198172 
L 124.223113 61.262167 
L 123.568926 61.934125 
L 123.253947 62.350098 
L 123.035885 62.894064 
L 122.842052 62.926062 
L 122.866281 62.926062 
L 123.108572 62.63808 
L 123.108572 62.63808 
L 122.914739 62.414094 
L 122.914739 62.414094 
L 122.672448 62.446092 
L 123.035885 62.510088 
L 123.035885 62.734074 
L 123.229718 62.574084 
L 123.035885 63.917999 
L 122.866281 64.045991 
L 122.89051 64.173983 
L 122.623989 64.813942 
L 122.04249 65.485899 
L 120.443367 67.437775 
L 120.201075 67.629763 
L 119.983013 68.973678 
L 119.353055 70.029611 
L 117.632787 71.053546 
L 116.663621 71.405523 
L 115.621768 71.245534 
L 115.28256 71.021548 
L 115.258331 69.997613 
L 116.106351 67.981741 
L 116.469788 67.757755 
L 116.712079 66.669824 
L 116.736308 66.221853 
L 116.033663 65.293911 
L 115.112956 64.941934 
L 114.604144 65.00593 
L 113.731895 65.805879 
L 113.441145 66.253851 
L 113.538062 67.725757 
L 114.579915 68.653698 
L 115.452164 68.237725 
L 115.742914 67.917745 
L 116.106351 66.669824 
L 115.888288 65.645889 
L 115.137185 64.141985 
L 114.628373 64.109987 
L 113.562291 64.749946 
L 113.150396 64.877938 
L 113.198854 65.389905 
L 113.053479 67.0538 
L 113.87727 68.269723 
L 114.410311 68.397714 
L 114.822206 67.981741 
L 115.621768 67.789753 
L 115.985205 67.405777 
L 116.057892 66.957806 
L 115.524851 65.357907 
L 115.767143 65.293911 
L 116.348642 65.645889 
L 116.372871 66.637826 
L 115.815601 67.469773 
L 114.701061 68.237725 
L 114.361853 68.237725 
L 112.932333 67.693759 
L 112.617355 66.73382 
L 112.786958 65.805879 
L 113.077708 65.645889 
L 113.949957 65.581893 
L 114.482998 65.933871 
L 115.234102 67.629763 
L 115.427935 68.493708 
L 115.137185 69.677633 
L 114.386082 70.701568 
L 114.482998 71.085544 
L 114.168019 71.789499 
L 114.361853 72.077481 
L 113.828812 71.981487 
L 113.29577 71.373525 
L 112.47198 71.053546 
L 112.253917 72.237471 
L 112.423521 72.685442 
L 113.368458 72.589448 
L 114.046874 72.141477 
L 113.804582 71.981487 
L 113.562291 71.565513 
L 112.132772 71.565513 
L 111.018231 71.949489 
L 110.800169 72.237471 
L 111.163606 73.03742 
L 111.06669 73.069418 
L 111.33321 73.165412 
L 114.095332 72.909428 
L 114.361853 72.941426 
L 114.919123 73.229408 
L 116.057892 72.269469 
L 116.857454 71.725503 
L 117.099745 71.629509 
L 117.705474 71.565513 
L 117.632787 71.629509 
L 117.632787 71.693505 
L 117.82662 71.597511 
L 117.802391 71.597511 
L 118.044682 71.14954 
L 118.214286 71.053546 
L 118.456577 70.893556 
L 119.207681 70.381588 
L 120.491825 68.717694 
L 121.557907 66.89381 
L 121.848657 66.637826 
L 122.551302 65.773881 
L 123.811217 63.438029 
L 124.707695 62.990058 
L 125.14382 62.286102 
L 125.43457 62.094115 
L 125.386111 61.774135 
L 124.756154 61.870129 
L 124.101967 62.95806 
L 122.914739 64.84594 
L 122.527073 65.965869 
L 121.800199 67.405777 
L 121.146012 68.301721 
L 120.709887 69.293658 
L 120.128388 69.965615 
L 118.480806 71.245534 
L 117.366266 71.789499 
L 116.494017 71.725503 
L 112.7385 72.173475 
L 111.817793 71.725503 
L 111.163606 70.82956 
L 110.267128 68.749692 
L 110.073295 68.557704 
L 109.685629 68.429712 
L 109.225275 66.925808 
L 108.692234 64.973932 
L 109.031442 63.214044 
L 110.145982 60.302228 
L 110.242899 59.822259 
L 110.824398 58.990312 
L 111.163606 57.422411 
L 111.696647 55.886509 
L 111.842022 55.502533 
L 112.593125 54.350606 
L 112.762729 53.774643 
L 112.714271 53.806641 
L 112.496209 53.422665 
L 112.302376 52.782706 
L 111.696647 52.526722 
L 111.357439 52.814704 
L 112.423521 52.942696 
L 111.018231 52.942696 
L 109.007213 53.03869 
L 106.463153 51.214805 
L 103.676802 50.318862 
L 101.980762 49.454917 
L 99.703223 48.558974 
L 97.837579 48.015009 
L 96.40806 48.654968 
L 95.00277 49.102939 
L 94.15475 50.062879 
L 93.064438 50.542848 
L 92.16796 51.214805 
L 91.756065 51.982757 
L 91.004961 52.846702 
L 90.568837 53.774643 
L 89.090859 56.078497 
L 88.630506 56.366478 
L 88.363985 57.102432 
L 88.654735 57.230423 
L 89.042401 56.174491 
L 88.969714 55.758517 
L 89.139318 54.510596 
L 89.430067 54.062625 
L 90.302316 53.134684 
L 91.756065 51.214805 
L 92.337564 50.478852 
L 92.604085 50.35086 
L 93.040209 49.934887 
L 93.476334 49.678903 
L 96.093081 47.695029 
L 96.989559 47.279055 
L 97.982954 47.631033 
L 97.692204 48.654968 
L 97.207621 49.006946 
L 96.141539 50.062879 
L 95.026999 50.798832 
L 93.427875 52.366732 
L 92.604085 53.230677 
L 91.852981 53.806641 
L 90.908045 54.28661 
L 90.375004 55.054562 
L 90.689983 55.982503 
L 91.344169 56.49447 
L 91.586461 55.854511 
L 91.416857 54.574592 
L 90.956503 53.03869 
L 90.544608 51.950759 
L 91.077649 50.862828 
L 92.797918 49.518913 
L 93.597479 49.006946 
L 94.833166 48.430982 
L 95.996164 47.759025 
L 97.377225 47.887017 
L 97.134934 48.910952 
L 96.844184 49.294927 
L 94.106291 52.014755 
L 93.767083 52.8787 
L 93.549021 53.102686 
L 93.791313 52.974694 
L 93.791313 52.974694 
L 93.912458 53.390667 
L 93.694396 53.03869 
L 93.427875 53.742645 
L 91.925669 55.214551 
L 91.198795 55.310545 
L 90.956503 54.60659 
L 91.247253 54.254612 
L 91.150336 54.062625 
L 91.31994 53.614653 
L 91.247253 53.390667 
L 90.980732 53.03869 
L 90.399233 52.910698 
L 89.06663 53.934633 
L 88.267069 56.206488 
L 87.152528 58.22236 
L 87.031382 58.606336 
L 87.322132 58.766326 
L 88.049006 57.742391 
L 88.291298 56.878446 
L 89.042401 55.502533 
L 89.599671 54.798578 
L 90.084254 53.998629 
L 91.05342 52.910698 
L 91.683377 51.726773 
L 92.676772 50.702838 
L 96.141539 48.430982 
L 96.262685 48.430982 
L 96.044623 48.111002 
L 96.068852 48.270992 
L 95.26929 49.454917 
L 94.833166 49.614907 
L 94.397041 49.998883 
L 94.178979 49.902889 
L 93.694396 49.806895 
L 93.839771 49.742899 
L 94.106291 50.062879 
L 94.106291 50.062879 
L 94.082062 50.35086 
L 94.203208 49.998883 
L 94.372812 49.806895 
L 94.493958 49.166935 
L 95.463123 47.727027 
L 96.262685 47.471043 
L 96.504976 47.695029 
L 96.286914 48.079005 
L 95.463123 49.102939 
L 95.293519 49.198933 
L 94.930082 49.678903 
L 94.469729 50.542848 
L 93.427875 51.758771 
L 92.797918 52.750708 
L 91.852981 53.518659 
L 91.344169 53.486661 
L 91.198795 53.326671 
L 90.835357 53.294673 
L 90.641524 52.302736 
L 90.811128 51.310799 
L 91.368399 50.478852 
L 91.562232 50.414856 
L 91.731836 50.51085 
L 91.683377 51.150809 
L 91.126107 52.046753 
L 91.198795 52.078751 
L 91.198795 52.142746 
L 91.247253 52.206742 
L 91.61069 52.142746 
L 91.925669 52.302736 
L 93.040209 52.23874 
L 93.185584 52.110749 
L 93.258272 51.790769 
L 93.403646 51.918761 
L 93.30673 51.982757 
L 93.112897 51.342797 
L 93.088668 51.374795 
L 92.579856 51.374795 
L 92.507168 51.502787 
L 92.604085 51.534785 
L 92.943293 51.406793 
L 93.209813 51.470789 
L 96.11731 49.838893 
L 96.11731 49.806895 
L 96.383831 49.550911 
L 96.262685 49.422919 
L 96.383831 49.070942 
L 96.286914 48.910952 
L 96.456518 48.174998 
L 95.85079 47.759025 
L 95.123915 47.663031 
L 94.15475 47.887017 
L 91.465315 50.574846 
L 90.593066 52.046753 
L 89.938879 53.486661 
L 88.170152 56.49447 
L 87.37059 58.094369 
L 86.716404 59.694267 
L 81.240618 69.709631 
L 79.156912 72.845432 
L 77.557789 76.333211 
L 75.692145 79.916983 
L 73.535751 83.372764 
L 70.846317 88.396445 
L 69.586402 91.660237 
L 68.835298 93.004152 
L 67.672299 94.732042 
L 66.727363 96.875906 
L 65.806656 98.667793 
L 64.813261 100.331687 
L 63.044534 103.755469 
L 62.244972 105.579354 
L 58.63483 111.78696 
L 57.907956 113.578846 
L 57.253769 114.698775 
L 56.018083 117.578592 
L 55.363896 118.538531 
L 54.879313 119.754454 
L 54.12821 120.714393 
L 53.764773 121.770326 
L 53.134815 123.082242 
L 52.989441 124.138175 
L 53.885919 124.842131 
L 54.249356 124.874129 
L 54.467418 124.618145 
L 54.031294 123.722202 
L 53.183274 122.378287 
L 53.352878 121.450346 
L 54.152439 119.81845 
L 54.830855 118.730519 
L 56.284604 116.842639 
L 57.641435 114.058815 
L 58.731747 113.258866 
L 59.555538 111.850955 
L 60.137037 110.635033 
L 60.452016 109.5791 
L 61.590785 108.779151 
L 62.705326 108.331179 
L 63.747179 108.843146 
L 64.498282 109.803086 
L 64.425595 110.795023 
L 64.764803 111.62697 
L 65.491677 112.906888 
L 66.630446 113.994819 
L 67.042342 114.186807 
L 67.38155 114.474789 
L 67.139258 114.410793 
L 65.97626 113.962821 
L 65.540135 113.386858 
L 65.249385 113.226868 
L 64.28022 113.898825 
L 64.062158 114.474789 
L 63.844095 116.234677 
L 63.504887 117.4506 
L 62.923388 118.378541 
L 61.324265 120.234423 
L 60.766995 121.290356 
L 59.313246 123.27423 
L 58.392539 124.042181 
L 56.987249 124.746137 
L 56.67227 125.002121 
L 56.260374 124.714139 
L 56.260374 124.746137 
L 56.042312 124.714139 
L 55.5335 125.034118 
L 54.41896 125.994058 
L 53.885919 127.04999 
L 52.844066 129.09786 
L 53.28019 129.641826 
L 53.546711 130.0578 
L 54.952001 131.113732 
L 55.436584 131.273722 
L 56.260374 131.881684 
L 57.399144 133.961552 
L 58.707518 136.137413 
L 59.725142 137.417332 
L 61.154661 139.209218 
L 61.711931 140.13716 
L 61.663473 140.041166 
L 61.929993 140.041166 
L 63.335283 138.601257 
L 64.57097 138.505263 
L 67.720758 136.361399 
L 67.914591 136.073418 
L 68.520319 136.009422 
L 68.883757 135.785436 
L 69.92561 136.617383 
L 70.337505 137.065355 
L 70.894775 138.409269 
L 71.088608 139.561196 
L 70.894775 140.873113 
L 70.700942 140.937109 
L 70.361734 141.193093 
L 70.822088 141.70506 
L 71.088608 142.121034 
L 72.300065 142.952981 
L 74.286855 143.880922 
L 75.207562 144.584877 
L 77.048977 145.192839 
L 78.478496 145.192839 
L 81.046785 144.168904 
L 82.573221 143.816926 
L 85.214197 142.856987 
L 86.81332 141.993042 
L 88.751651 141.641064 
L 90.302316 141.097099 
L 91.465315 140.521135 
L 93.282501 140.233153 
L 94.930082 140.425141 
L 95.778102 140.105162 
L 98.879432 140.393143 
L 99.630535 141.961044 
L 100.187806 142.760993 
L 100.987367 144.232899 
L 101.641554 145.160841 
L 102.731865 147.208711 
L 103.386052 148.840607 
L 104.040239 149.864542 
L 104.040239 153.864288 
L 104.01601 155.656174 
L 103.846406 156.872097 
L 103.676802 157.832036 
L 103.919093 158.855971 
L 103.870635 161.095829 
L 103.72526 161.575798 
L 101.980762 164.967583 
L 100.139347 167.239439 
L 96.141539 172.231122 
L 95.82656 173.127065 
L 94.71202 174.055006 
L 94.808936 174.278992 
L 94.930082 174.214996 
L 95.438894 174.886953 
L 95.075457 175.590909 
L 94.469729 176.294864 
L 94.106291 177.158809 
L 93.161355 178.022754 
L 92.846376 178.470726 
L 92.216418 180.166618 
L 92.16796 181.414539 
L 92.410252 182.34248 
L 92.289106 182.374478 
L 92.434481 182.598464 
L 92.071044 183.430411 
L 91.707607 184.966313 
L 91.174565 186.470218 
L 86.764862 191.173919 
L 85.165739 194.021738 
L 84.584239 195.397651 
L 83.082033 196.869557 
L 81.991721 198.469456 
L 78.817704 202.437204 
L 74.504917 207.300895 
L 73.608439 208.708806 
L 72.639273 209.668745 
L 71.670108 210.884668 
L 70.846317 212.676554 
L 68.568778 215.556371 
L 67.430008 217.124271 
L 66.218551 218.596178 
L 63.650262 223.459869 
L 61.905764 227.171634 
L 60.742765 230.8514 
L 60.015891 232.483296 
L 58.247164 238.498914 
L 57.762581 240.546784 
L 57.423373 242.81864 
L 55.896937 248.834258 
L 55.703104 250.594146 
L 55.26698 252.482027 
L 54.079752 256.449775 
L 53.740544 258.433649 
L 53.231732 260.513517 
L 45.890302 259.073608 
L 50.251548 266.433141 
L 48.555508 269.28096 
L 46.011448 270.528881 
L 45.478407 273.248708 
L 45.308803 275.936537 
L 44.509241 278.400381 
L 43.782367 283.29607 
L 42.934347 285.087956 
L 41.650203 286.975836 
L 39.954163 290.047641 
L 39.081914 290.783595 
L 38.35504 294.975329 
L 37.21627 298.847083 
L 36.489396 303.870764 
L 35.059877 304.414729 
L 32.927712 303.550784 
L 31.740485 303.262802 
L 30.577486 303.486788 
L 29.995987 303.710774 
L 29.60832 304.030754 
L 28.711842 303.61478 
L 28.49378 303.326798 
L 27.427698 302.590845 
L 27.112719 301.918888 
L 25.94972 301.182934 
L 25.6832 301.214932 
L 25.634741 301.118938 
L 25.6832 301.278928 
L 25.901262 301.278928 
L 26.264699 301.662904 
L 26.50699 301.7269 
L 26.846198 301.854892 
L 26.967344 301.7269 
L 27.08849 301.7269 
L 26.967344 301.662904 
L 26.967344 301.598908 
L 26.725053 301.534912 
L 26.773511 301.502914 
L 26.50699 301.662904 
L 26.50699 301.598908 
L 26.022408 301.694902 
L 26.216241 301.214932 
L 25.247075 301.374922 
L 25.077471 301.24693 
L 24.592888 300.574973 
L 24.423284 300.414983 
L 24.471743 299.99901 
L 24.665576 299.903016 
L 24.883638 299.99901 
L 25.125929 300.446981 
L 26.119324 300.990947 
L 26.458532 300.894953 
L 26.846198 300.862955 
L 28.251488 301.150936 
L 28.808759 301.598908 
L 28.009197 302.014882 
L 27.64576 301.982884 
L 27.330781 301.790896 
L 27.451927 301.630906 
L 27.258094 301.7269 
L 27.161177 301.56691 
L 27.427698 300.798959 
L 27.548843 300.958949 
L 27.694218 301.470916 
L 27.548843 301.470916 
L 27.209635 301.694902 
L 27.209635 301.630906 
L 27.64576 301.918888 
L 27.185406 300.830957 
L 27.306552 300.734963 
L 27.040031 300.638969 
L 27.136948 300.670967 
L 27.112719 300.382985 
L 27.282323 300.798959 
L 27.573073 301.150936 
L 27.718447 301.598908 
L 27.863822 301.7269 
L 27.863822 301.950886 
L 28.057655 302.366859 
L 27.791135 302.494851 
L 27.742676 302.206869 
L 27.548843 301.854892 
L 27.573073 300.574973 
L 27.524614 300.638969 
L 27.282323 302.878827 
L 27.282323 303.262802 
L 27.93651 304.222741 
L 28.081884 304.382731 
L 28.372634 304.478725 
L 29.196425 305.214678 
L 30.092903 306.686585 
L 30.771319 308.094496 
L 30.965152 308.190489 
L 30.868236 308.286483 
L 30.868236 308.574465 
L 31.498193 309.246422 
L 31.667797 309.470408 
L 31.30436 309.246422 
L 31.619339 308.958441 
L 31.837401 308.958441 
L 31.692026 308.990439 
L 32.200838 308.670459 
L 32.612734 308.254485 
L 32.467359 308.478471 
L 32.418901 308.254485 
L 32.733879 308.254485 
L 32.806567 308.0305 
L 32.418901 307.774516 
L 32.758109 306.686585 
L 33.121546 303.006819 
L 33.170004 302.430855 
L 33.26692 302.302863 
L 33.484983 302.782833 
L 33.969566 303.102813 
L 34.357232 303.710774 
L 34.744898 303.998756 
L 35.350627 304.798705 
L 36.004813 305.534658 
L 36.634771 306.910571 
L 37.046666 307.902508 
L 37.361645 308.254485 
L 37.337416 308.190489 
L 37.385874 308.510469 
L 37.555478 308.670459 
L 37.725082 309.27842 
L 37.773541 309.75839 
L 37.773541 310.07837 
L 38.040061 310.142366 
L 38.161207 310.430347 
L 37.725082 310.558339 
L 37.361645 310.526341 
L 37.192041 310.686331 
L 37.095125 310.494343 
L 36.586313 310.462345 
L 36.731687 310.878319 
L 36.319792 310.334353 
L 34.284544 311.230296 
L 34.042253 310.846321 
L 33.339608 310.590337 
L 32.879254 311.614272 
L 32.879254 311.614272 
L 32.661192 311.358288 
L 32.44313 311.294292 
L 32.879254 311.038309 
L 32.636963 311.230296 
L 32.612734 311.390286 
L 32.636963 311.358288 
L 32.782338 311.838258 
L 32.636963 312.318227 
L 32.273526 311.96625 
L 32.031234 311.998248 
L 31.158985 311.998248 
L 30.771319 311.774262 
L 30.18982 311.262294 
L 30.553257 311.294292 
L 30.868236 311.166301 
L 30.892465 310.814323 
L 30.625944 310.910317 
L 30.965152 310.558339 
L 30.989381 310.014374 
L 31.134756 309.91838 
L 31.837401 310.462345 
L 32.297755 310.814323 
L 35.447543 311.710266 
L 36.513625 312.638207 
L 38.136978 313.086179 
L 40.147996 314.750073 
L 41.74712 315.166047 
L 44.26695 316.957933 
L 45.526865 317.533896 
L 45.987219 319.101797 
L 47.295593 321.213663 
L 48.991632 321.533642 
L 52.020275 322.557577 
L 52.868295 322.909555 
L 55.654646 323.261533 
L 56.454208 324.445457 
L 57.52029 325.213409 
L 58.828663 325.82137 
L 59.991662 327.165285 
L 62.148056 328.381208 
L 63.698721 329.085163 
L 64.958636 329.43714 
L 65.927801 330.429078 
L 68.907986 332.412952 
L 69.949839 333.788864 
L 70.967463 334.844797 
L 72.857335 335.644746 
L 74.480688 336.988661 
L 77.848538 339.388509 
L 83.324324 339.644492 
L 85.359572 340.188458 
L 88.969714 343.004279 
L 90.811128 343.708234 
L 92.192189 344.028214 
L 95.463123 345.852098 
L 97.231851 346.588052 
L 98.976349 348.02796 
L 100.648159 349.115891 
L 105.639362 351.483741 
L 107.795756 351.995708 
L 109.322191 352.059704 
L 110.533648 351.451743 
L 111.963168 351.387747 
L 114.555686 353.307625 
L 115.476393 353.467615 
L 116.905912 354.17157 
L 118.020453 353.531611 
L 118.65041 354.427554 
L 118.626181 356.315434 
L 119.207681 358.075322 
L 120.07993 359.707219 
L 120.734116 362.36305 
L 121.364074 367.130747 
L 121.170241 369.914571 
L 120.419138 371.96244 
L 120.394909 374.234296 
L 120.176846 376.762136 
L 118.408119 378.778008 
L 116.300184 380.025929 
L 116.324413 382.489772 
L 116.833225 384.985614 
L 117.196662 387.737439 
L 117.269349 393.401079 
L 116.639392 396.408888 
L 116.469788 399.320703 
L 116.615163 401.464567 
L 114.797977 402.904476 
L 112.496209 404.344384 
L 110.121753 405.336322 
L 108.643776 407.224202 
L 107.67461 407.992153 
L 106.947736 409.336068 
L 106.293549 410.967964 
L 106.342007 415.511675 
L 105.71205 417.719535 
L 104.088697 418.807466 
L 102.61072 419.607415 
L 100.551243 424.087131 
L 99.267098 424.983074 
L 99.194411 426.646968 
L 98.564453 427.670903 
L 97.764892 428.598845 
L 97.25608 429.526786 
L 96.601893 430.390731 
L 95.729644 430.838702 
L 94.808936 430.550721 
L 93.282501 429.238804 
L 92.289106 428.886826 
L 91.247253 428.054879 
L 90.253858 427.606907 
L 89.333151 427.734899 
L 88.267069 427.25493 
L 86.692175 425.815021 
L 85.844155 425.36705 
L 84.535781 423.831147 
L 83.978511 423.47917 
L 84.075427 422.775214 
L 83.736219 422.103257 
L 82.767054 421.655285 
L 82.960887 420.79134 
L 82.767054 420.407365 
L 82.452075 420.375367 
L 81.773659 420.759342 
L 81.264847 419.863399 
L 80.998327 419.575417 
L 81.507139 418.871462 
L 81.095243 418.711472 
L 79.980703 417.623541 
L 77.582018 417.33556 
L 76.007124 416.919586 
L 74.916812 416.791594 
L 72.905794 416.215631 
L 71.233983 415.863653 
L 68.811069 414.80772 
L 68.423403 415.799657 
L 68.593007 416.663602 
L 68.520319 417.591543 
L 68.253799 417.463552 
L 67.623841 416.727598 
L 67.720758 418.263501 
L 68.326486 417.527547 
L 68.641465 416.85559 
L 69.174506 416.375621 
L 70.652484 417.111574 
L 71.112837 417.815529 
L 71.863941 418.071513 
L 73.00271 419.22344 
L 73.971876 419.831401 
L 74.868354 421.367304 
L 75.789061 421.783277 
L 76.031353 422.199251 
L 76.322103 422.231249 
L 76.540165 422.807212 
L 76.588623 422.9992 
L 76.976289 423.863145 
L 77.291268 425.239058 
L 77.872768 426.007009 
L 77.363956 427.41492 
L 78.502725 427.318926 
L 78.187746 427.862891 
L 78.09083 428.374859 
L 77.53356 428.886826 
L 77.048977 429.14281 
L 76.95206 429.398794 
L 78.018142 429.494788 
L 79.568807 429.366796 
L 80.780264 428.886826 
L 86.449883 426.966948 
L 87.273674 426.294991 
L 89.381609 426.646968 
L 89.212005 426.966948 
L 89.6239 427.734899 
L 89.06663 428.246867 
L 88.872797 428.150873 
L 89.115089 427.862891 
L 89.187776 427.926887 
L 88.654735 427.350924 
L 87.637111 426.646968 
L 86.522571 425.559038 
L 85.14151 424.855082 
L 84.269261 425.175062 
L 83.881594 424.759088 
L 82.912429 424.151127 
L 82.258242 424.087131 
L 81.264847 423.703155 
L 80.731806 422.743216 
L 79.956474 422.103257 
L 79.593036 420.919332 
L 79.011537 420.055387 
L 77.485101 418.647476 
L 76.637081 417.559545 
L 75.377166 417.111574 
L 72.421211 415.735661 
L 70.919004 415.927649 
L 69.780235 415.831655 
L 67.987278 416.183633 
L 67.478466 414.551736 
L 68.447632 415.063704 
L 68.932215 415.607669 
L 69.295652 417.207568 
L 70.725171 418.487487 
L 69.537943 418.58348 
L 69.998297 419.447426 
L 68.520319 417.943521 
L 68.447632 418.295499 
L 68.665694 418.455489 
L 68.956444 418.487487 
L 68.665694 418.199505 
L 69.222964 418.231503 
L 69.101819 417.911523 
L 69.271423 417.33556 
L 68.568778 416.279627 
L 68.471861 415.575671 
L 69.029131 414.935712 
L 70.070984 415.44768 
L 71.403587 415.863653 
L 71.3309 415.319688 
L 71.621649 416.055641 
L 72.15469 416.215631 
L 72.833106 417.01558 
L 72.808877 417.463552 
L 73.559981 417.879525 
L 73.899189 418.135509 
L 73.923418 418.58348 
L 74.408 418.839464 
L 74.553375 418.711472 
L 75.159104 418.775468 
L 75.449853 419.351432 
L 77.048977 419.959393 
L 76.855144 420.439363 
L 77.048977 420.695346 
L 77.363956 420.855336 
L 77.218581 421.143318 
L 77.50933 421.11132 
L 77.727393 421.27131 
L 78.793475 422.519231 
L 79.084225 422.935204 
L 79.350745 423.799149 
L 79.980703 423.863145 
L 80.077619 423.47917 
L 80.247223 423.639159 
L 81.046785 423.255184 
L 81.434451 423.991137 
L 81.700972 423.831147 
L 82.452075 423.767151 
L 82.718596 424.407111 
L 82.985116 424.343115 
L 83.106262 424.599098 
L 82.960887 425.015072 
L 82.815512 425.687029 
L 83.130491 425.52704 
L 83.275866 426.039007 
L 82.3067 426.742962 
L 81.385993 426.77496 
L 81.143701 427.126938 
L 81.264847 427.510914 
L 81.822117 427.382922 
L 82.209784 427.57491 
L 82.718596 427.57491 
L 82.59745 428.246867 
L 83.300095 427.798895 
L 85.11728 427.382922 
L 85.868384 427.158936 
L 86.789091 427.57491 
L 87.588653 427.030944 
L 88.654735 427.062942 
L 88.485131 427.158936 
L 88.485131 427.382922 
L 88.170152 427.638905 
L 89.35738 429.046816 
L 88.897026 429.14281 
L 88.21861 427.350924 
L 87.467507 427.926887 
L 87.10407 427.990883 
L 85.650321 427.542912 
L 84.438864 427.958885 
L 82.59745 427.638905 
L 82.330929 427.734899 
L 82.234013 426.870954 
L 81.289076 426.742962 
L 80.683348 426.77496 
L 79.665724 426.071005 
L 79.108454 425.36705 
L 78.696558 425.143064 
L 79.641495 423.991137 
L 80.101848 423.799149 
L 81.19216 423.895143 
L 81.45868 425.111066 
L 82.379388 425.655031 
L 82.791283 427.190934 
L 81.676743 426.486979 
L 80.780264 426.071005 
L 80.780264 425.719027 
L 81.531368 426.358987 
L 80.537973 425.719027 
L 80.150307 425.335052 
L 79.447662 423.735153 
L 79.253828 423.383176 
L 73.317689 422.807212 
L 72.300065 422.583226 
L 70.919004 421.943267 
L 69.562172 420.887334 
L 68.350715 420.79134 
L 68.253799 421.015326 
L 68.156882 421.815275 
L 67.308862 422.039261 
L 65.758197 421.399302 
L 64.086387 420.439363 
L 66.267009 417.431554 
L 67.066571 417.143572 
L 67.841903 417.943521 
L 67.890362 416.951584 
L 68.471861 417.047578 
L 69.05336 416.951584 
L 69.126048 417.271564 
L 69.465256 417.143572 
L 69.877151 417.687537 
L 70.289047 418.519484 
L 70.531338 418.391493 
L 70.967463 418.327497 
L 70.967463 418.327497 
L 69.319881 417.943521 
L 69.537943 417.943521 
L 70.604025 417.879525 
L 70.7494 417.879525 
L 71.355129 418.679474 
L 71.306671 417.655539 
L 72.009316 417.239566 
L 72.227378 417.655539 
L 72.857335 417.399556 
L 73.535751 417.495549 
L 74.044563 418.359495 
L 74.311084 419.543419 
L 74.262626 420.055387 
L 75.619457 420.471361 
L 76.467477 421.335306 
L 76.855144 422.455235 
L 78.745017 422.711218 
L 82.112867 424.343115 
L 82.476304 424.599098 
L 84.729614 425.079068 
L 86.81332 425.655031 
L 88.582047 425.719027 
L 89.64813 425.623033 
L 90.738441 425.879017 
L 91.489544 426.454981 
L 92.313335 426.678966 
L 93.427875 427.318926 
L 92.943293 426.454981 
L 91.513773 426.742962 
L 90.544608 426.710964 
L 92.046815 427.318926 
L 92.482939 427.702901 
L 94.178979 428.246867 
L 95.778102 428.886826 
L 97.571058 430.134747 
L 99.436702 430.390731 
L 102.150366 431.798641 
L 103.967551 432.278611 
L 105.930112 433.750517 
L 107.553464 435.158428 
L 109.273733 437.270294 
L 108.571088 439.318164 
L 108.692234 442.645953 
L 108.643776 445.749756 
L 108.474172 448.949552 
L 109.225275 455.509136 
L 109.176817 458.484947 
L 110.097524 461.652746 
L 110.557878 463.9566 
L 110.606336 466.292451 
L 110.824398 468.724297 
L 111.430127 471.860098 
L 110.727482 475.539864 
L 111.551272 482.291435 
L 111.478585 485.779214 
L 110.969773 487.475106 
L 112.302376 490.066942 
L 112.835417 491.98682 
L 113.053479 493.650714 
L 112.762729 496.050562 
L 113.005021 499.282357 
L 112.980792 502.034182 
L 112.835417 504.242042 
L 113.150396 506.641889 
L 112.859646 508.657761 
L 113.198854 510.57764 
L 114.507227 514.545388 
L 115.379476 518.417142 
L 115.161414 519.505073 
L 115.28256 519.953044 
L 115.742914 520.17703 
L 115.767143 520.944981 
L 115.161414 521.488947 
L 115.234102 521.680935 
L 114.967581 522.06491 
L 115.040269 522.352892 
L 114.264936 522.576878 
L 113.949957 522.960853 
L 113.780353 523.888794 
L 113.925728 524.336766 
L 113.974186 525.040721 
L 113.756124 525.232709 
L 113.489604 526.128652 
L 112.617355 527.728551 
L 112.7385 527.760549 
L 113.756124 528.016532 
L 115.597539 529.424443 
L 115.912518 529.488439 
L 115.912518 529.424443 
L 116.106351 528.944473 
L 115.742914 528.36851 
L 115.306789 527.280579 
L 114.531457 525.84067 
L 114.482998 525.808672 
L 114.846435 525.712679 
L 114.361853 524.400762 
L 114.046874 523.760802 
L 114.119561 524.144778 
L 113.974186 524.624748 
L 113.513833 524.560752 
L 113.489604 524.400762 
L 113.562291 524.080782 
L 113.610749 523.152841 
L 114.240707 522.2249 
L 114.531457 521.168967 
L 114.555686 520.113034 
L 114.095332 519.505073 
L 112.762729 519.601067 
L 113.077708 519.793054 
L 113.077708 520.01704 
L 112.786958 520.17703 
L 112.665813 520.816989 
L 112.423521 520.944981 
L 112.229688 520.848987 
L 111.987397 521.392953 
L 111.06669 521.808926 
L 110.654794 523.312831 
L 110.800169 524.208774 
L 111.720876 524.656746 
L 112.253917 527.024595 
L 111.381668 526.544626 
L 111.090919 524.816735 
L 109.758316 523.408825 
L 108.910296 522.640874 
L 107.844214 522.54488 
L 106.850819 521.872922 
L 106.947736 521.776928 
L 106.463153 521.776928 
L 106.511611 521.552943 
L 106.875048 521.392953 
L 106.875048 521.392953 
L 107.359631 520.433014 
L 107.262715 520.33702 
L 107.286944 520.784991 
L 108.086505 520.529008 
L 108.377255 520.33702 
L 108.910296 520.784991 
L 108.81338 521.424951 
L 108.934525 521.392953 
L 109.201046 521.968916 
L 109.297962 522.160904 
L 109.419108 522.032912 
L 109.516025 521.488947 
L 110.073295 520.209028 
L 110.582107 519.473075 
L 110.897086 519.665063 
L 111.090919 520.049038 
L 111.06669 520.465012 
L 111.648189 521.488947 
L 113.659208 520.976979 
L 114.119561 520.944981 
L 114.119561 520.944981 
L 114.531457 520.688998 
L 114.555686 520.752993 
L 114.289165 522.352892 
L 114.289165 522.256898 
L 114.313394 522.640874 
L 114.822206 522.608876 
L 114.822206 522.736868 
L 115.185643 523.088845 
L 115.040269 523.760802 
L 115.452164 524.27277 
L 115.888288 524.496756 
L 115.645997 525.392699 
L 115.694455 525.648683 
L 115.54908 526.00066 
L 116.590933 525.936664 
L 116.590933 526.064656 
L 117.172433 527.120589 
L 117.729703 527.408571 
L 118.117369 527.792547 
L 119.49843 528.080528 
L 119.353055 527.792547 
L 119.280368 527.312577 
L 119.619576 527.216583 
L 119.595347 527.216583 
L 119.910326 527.408571 
L 120.055701 527.280579 
L 120.443367 526.800609 
L 120.685658 526.736614 
L 120.879491 526.960599 
L 121.049095 526.384636 
L 121.533678 526.832607 
L 121.509449 526.768612 
L 121.339845 527.056593 
L 120.952179 526.736614 
L 121.242928 526.288642 
L 120.976408 526.288642 
L 121.000637 526.16065 
L 120.516054 525.552689 
L 120.806804 525.232709 
L 120.588742 524.816735 
L 120.758346 525.008723 
L 121.049095 524.944727 
L 121.121783 524.784737 
L 120.92795 522.960853 
L 120.734116 522.800863 
L 119.304597 522.38489 
L 118.892702 522.320894 
L 118.626181 521.776928 
L 119.159222 521.328957 
L 119.086535 521.584941 
L 118.626181 521.168967 
L 118.044682 521.104971 
L 118.020453 520.784991 
L 117.53587 520.209028 
L 116.033663 519.313085 
L 115.500622 519.281087 
L 114.797977 518.513136 
L 114.822206 518.321148 
L 114.72529 518.033166 
L 115.064498 517.489201 
L 115.016039 517.329211 
L 115.331018 517.041229 
L 116.518246 516.177284 
L 117.196662 515.825306 
L 117.947765 515.153349 
L 118.141598 514.225408 
L 118.141598 513.841432 
L 117.657016 513.745438 
L 117.051287 514.321402 
L 117.148204 515.185347 
L 117.414724 516.433268 
L 117.657016 518.993105 
L 118.165828 519.729058 
L 117.148204 520.593004 
L 116.372871 520.880985 
L 114.870665 521.936918 
L 114.604144 523.248835 
L 116.68785 524.368764 
L 118.408119 525.072719 
L 119.619576 525.872668 
L 120.055701 526.960599 
L 119.861867 528.080528 
L 120.419138 529.072465 
L 121.533678 529.93641 
L 122.478615 531.440315 
L 124.02928 530.800356 
L 124.974216 530.640366 
L 126.355277 530.000406 
L 127.154839 530.352384 
L 127.590963 530.288388 
L 127.905942 529.904412 
L 127.833255 529.872414 
L 128.560129 529.616431 
L 128.5359 529.552435 
L 128.5359 529.552435 
L 128.826649 529.392445 
L 129.214316 529.232455 
L 129.553523 528.784484 
L 128.947795 527.920538 
L 128.51167 527.632557 
L 125.507257 526.608622 
L 124.00505 525.872668 
L 122.793593 525.040721 
L 121.509449 524.43276 
L 120.128388 523.152841 
L 118.480806 522.54488 
L 115.258331 521.840924 
L 113.731895 520.593004 
L 112.375063 519.921046 
L 111.236294 518.44914 
L 108.23188 515.441331 
L 107.020423 515.985296 
L 105.4213 516.465266 
L 104.524822 515.633319 
L 104.355218 515.057355 
L 104.306759 515.121351 
L 106.245091 515.185347 
L 107.650381 515.729312 
L 108.304568 516.913237 
L 108.861838 518.481138 
L 109.564483 519.825052 
L 109.734087 520.625002 
L 110.097524 520.305022 
L 110.460961 520.752993 
L 110.19444 521.584941 
L 110.533648 521.776928 
L 110.630565 522.320894 
L 110.751711 523.95279 
L 109.879462 525.232709 
L 108.982983 525.168713 
L 109.055671 524.848733 
L 108.886067 526.064656 
L 109.37065 526.864605 
L 110.412503 527.664555 
L 110.994002 528.592496 
L 111.139377 529.488439 
L 112.908104 529.424443 
L 114.192249 530.192394 
L 115.694455 530.57637 
L 116.469788 531.344321 
L 117.414724 530.544372 
L 117.293579 530.41638 
L 116.348642 530.288388 
L 115.234102 529.264453 
L 114.919123 528.144524 
L 114.313394 527.216583 
L 114.337623 526.256644 
L 113.828812 526.192648 
L 114.216478 525.552689 
L 113.441145 524.848733 
L 110.921315 523.376827 
L 110.024837 522.54488 
L 108.861838 521.968916 
L 108.256109 519.729058 
L 108.062276 518.481138 
L 108.619546 517.233217 
L 108.837609 516.145286 
L 109.467566 516.049292 
L 109.806774 515.665316 
L 109.831003 515.025357 
L 110.436732 513.553451 
L 110.267128 514.289404 
L 110.267128 515.441331 
L 110.48519 517.361209 
L 111.769335 519.761056 
L 111.018231 520.848987 
L 110.339815 521.424951 
L 109.63717 522.960853 
L 109.297962 524.75274 
L 111.381668 527.600559 
L 112.375063 529.712425 
L 113.58652 527.440569 
L 113.925728 528.464504 
L 114.797977 529.616431 
L 116.881683 531.376319 
L 118.311202 533.296197 
L 119.256139 534.288134 
L 119.619576 536.4 
L 118.141598 535.440061 
L 117.681245 533.200203 
L 117.317808 532.30426 
L 116.760537 529.776421 
L 117.172433 529.904412 
L 116.905912 529.584433 
L 116.494017 528.68849 
L 116.009434 528.36851 
L 115.670226 528.432506 
L 115.791372 527.88854 
L 115.137185 526.832607 
L 115.137185 526.928601 
L 114.919123 526.960599 
L 114.99181 526.992597 
L 114.894894 526.768612 
L 114.99181 526.64062 
L 114.72529 524.43276 
L 114.870665 523.280833 
L 114.192249 522.640874 
L 113.29577 523.216837 
L 114.071103 522.70487 
L 114.119561 521.776928 
L 114.822206 521.104971 
L 115.985205 520.401016 
L 116.251726 520.145032 
L 116.227496 519.121097 
L 116.494017 518.513136 
L 115.742914 518.385144 
L 115.379476 518.577132 
L 115.112956 518.545134 
L 115.258331 518.225154 
L 115.355247 518.353146 
L 114.943352 518.993105 
L 115.57331 519.121097 
L 115.815601 519.281087 
L 115.209873 521.200965 
L 114.99181 521.90492 
L 114.701061 523.920792 
L 114.240707 525.360701 
L 114.240707 526.48063 
L 114.046874 527.632557 
L 114.749519 528.432506 
L 116.057892 529.168459 
L 117.172433 529.456441 
L 118.868473 529.488439 
L 119.086535 529.072465 
L 119.401514 528.848479 
L 119.401514 528.848479 
L 119.958784 528.976471 
L 120.709887 529.040467 
L 121.218699 529.200457 
L 121.218699 529.424443 
L 121.436762 529.584433 
L 121.557907 529.968408 
L 121.848657 530.000406 
L 122.260552 529.680427 
L 122.769364 529.584433 
L 123.302405 529.296451 
L 122.89051 528.68849 
L 121.945573 528.432506 
L 121.654824 528.592496 
L 120.661429 526.128652 
L 118.601952 525.776674 
L 118.190057 525.488693 
L 117.123975 525.456695 
L 117.027058 524.624748 
L 117.438953 524.336766 
L 117.051287 523.280833 
L 117.099745 522.128906 
L 117.463183 521.424951 
L 116.9786 521.328957 
L 116.68785 522.288896 
L 116.275955 522.416888 
L 116.275955 522.38489 
L 116.542475 522.096908 
L 115.83983 522.896857 
L 115.83983 522.896857 
L 115.476393 523.152841 
L 115.54908 523.536817 
L 115.524851 523.280833 
L 115.403706 523.376827 
L 115.185643 523.280833 
L 115.064498 523.440823 
L 114.943352 522.896857 
L 114.410311 522.960853 
L 114.046874 522.288896 
L 114.022645 521.360955 
L 113.731895 519.85705 
L 113.998415 518.513136 
L 114.967581 517.393207 
L 115.57331 515.473329 
L 115.83983 513.937426 
L 115.83983 512.721503 
L 115.500622 511.121605 
L 115.645997 509.681696 
L 116.42133 507.665824 
L 116.3971 505.68195 
L 115.476393 504.338036 
L 115.137185 502.834131 
L 114.482998 501.170237 
L 113.223083 496.370542 
L 111.938939 494.418665 
L 110.945544 492.210806 
L 111.405898 489.330989 
L 111.212064 487.155127 
L 111.139377 484.531293 
L 111.260523 482.06745 
L 111.817793 479.283626 
L 113.538062 477.779722 
L 113.150396 476.403809 
L 111.817793 473.87597 
L 111.478585 471.028151 
L 112.786958 468.468313 
L 113.077708 465.716488 
L 110.872856 463.764612 
L 109.903691 459.092908 
L 110.388274 457.17303 
L 111.793564 454.357209 
L 112.593125 451.765374 
L 112.350834 449.525516 
L 112.762729 444.597829 
L 112.399292 441.909999 
L 112.399292 439.638144 
L 111.62396 437.1743 
L 111.938939 434.902444 
L 112.011626 432.214615 
L 111.502814 429.494788 
L 111.551272 426.77496 
L 111.745105 424.471107 
L 111.212064 421.815275 
L 111.405898 419.095448 
L 111.163606 413.975773 
L 111.817793 408.376128 
L 110.364044 404.536372 
L 110.436732 401.752549 
L 111.672418 399.608685 
L 112.47198 397.368827 
L 113.344229 392.505136 
L 113.683437 389.945299 
L 114.628373 387.993423 
L 115.694455 385.433585 
L 117.220891 383.065736 
L 119.134993 380.569894 
L 120.6372 378.394032 
L 121.848657 376.026182 
L 123.278176 373.594337 
L 124.925758 371.802451 
L 126.185673 369.882573 
L 127.905942 367.738709 
L 128.996253 365.306863 
L 129.65044 363.482979 
L 130.983043 361.051133 
L 132.606395 358.843273 
L 134.011685 356.283436 
L 135.683496 353.85159 
L 139.850908 346.812037 
L 140.747386 344.41219 
L 141.886156 342.36432 
L 143.703341 339.932474 
L 145.15709 337.692616 
L 145.908193 335.292769 
L 147.555775 333.020913 
L 150.002918 330.973043 
L 151.820103 328.989169 
L 154.582225 324.25347 
L 156.108661 322.013612 
L 157.344347 317.117923 
L 158.11968 314.590083 
L 160.63951 309.822386 
L 162.06903 307.518532 
L 163.18357 305.150682 
L 164.419256 302.974821 
L 165.485338 300.510977 
L 167.447899 298.047134 
L 170.621916 293.567418 
L 174.401662 289.311688 
L 174.401662 286.847845 
L 175.613119 284.639985 
L 176.897263 282.656111 
L 178.254095 280.288261 
L 180.677009 278.208393 
L 182.082299 276.032531 
L 183.899485 272.160777 
L 184.117547 270.976852 
L 184.699047 270.816862 
L 184.941338 270.624875 
L 185.862045 270.368891 
L 185.958962 268.385017 
L 188.914917 264.833242 
L 189.762937 262.97736 
L 190.998623 261.153476 
L 193.494224 253.473964 
L 194.17264 251.778071 
L 195.093348 247.714329 
L 195.723305 246.082433 
L 196.958991 243.874573 
L 200.036092 239.394857 
L 200.520675 237.762961 
L 201.029487 235.555101 
L 201.853278 233.955203 
L 203.161651 232.067323 
L 204.712316 231.075386 
L 205.754169 230.275436 
L 204.736545 230.147445 
L 204.760775 230.051451 
L 204.88192 229.539483 
L 205.099983 229.219504 
L 206.529502 229.379493 
L 206.674877 228.80353 
L 206.892939 228.80353 
L 206.650648 228.355558 
L 206.674877 227.427617 
L 206.214523 226.499676 
L 205.802628 225.667729 
L 205.027295 226.467678 
L 204.155046 225.827719 
L 206.941397 225.859717 
L 206.86871 225.699727 
L 207.086772 225.603733 
L 207.159459 224.739788 
L 207.789417 223.971837 
L 211.738767 217.124271 
L 215.494284 209.284769 
L 222.08461 196.229598 
L 223.804879 192.805816 
L 225.282856 189.414031 
L 234.029576 176.486852 
L 236.71901 173.191061 
L 239.311528 168.519358 
L 240.741048 166.11951 
L 240.062632 165.575544 
L 241.225631 163.239693 
L 244.230044 158.535991 
L 245.611105 156.712107 
L 246.967937 154.696235 
L 247.646353 152.328385 
L 249.487767 148.648619 
L 252.734472 144.776865 
L 254.890866 144.872859 
L 256.635364 145.576814 
L 257.919508 146.664745 
L 259.227882 147.400698 
L 260.221276 148.104654 
L 261.335817 148.104654 
L 262.353441 147.84867 
L 263.928335 147.880668 
L 265.164021 148.232646 
L 266.302791 147.84867 
L 266.496624 148.104654 
L 267.296185 148.264644 
L 267.296185 148.264644 
L 268.313809 148.296641 
L 268.28958 148.296641 
L 268.483413 148.552625 
L 268.677246 148.456631 
L 269.573725 148.328639 
L 270.009849 148.776611 
L 270.445974 148.360637 
L 271.003244 148.200648 
L 271.269764 148.296641 
L 271.12439 148.040658 
L 271.366681 148.392635 
L 271.269764 148.328639 
L 271.245535 148.520627 
L 271.245535 148.520627 
" clip-path="url(#p12b91d1e8f)" style="fill: none; stroke: #000000; stroke-width: 3"/>
   </g>
  </g>
 </g>
 <defs>
  <clipPath id="p12b91d1e8f">
   <rect x="7.2" y="7.2" width="378.379213" height="554.4"/>
  </clipPath>
 </defs>
</svg>
