<?xml version="1.0" encoding="utf-8" standalone="no"?>
<!DOCTYPE svg PUBLIC "-//W3C//DTD SVG 1.1//EN"
  "http://www.w3.org/Graphics/SVG/1.1/DTD/svg11.dtd">
<svg xmlns:xlink="http://www.w3.org/1999/xlink" width="298.971662pt" height="568.8pt" viewBox="0 0 298.971662 568.8" xmlns="http://www.w3.org/2000/svg" version="1.1">
 <metadata>
  <rdf:RDF xmlns:dc="http://purl.org/dc/elements/1.1/" xmlns:cc="http://creativecommons.org/ns#" xmlns:rdf="http://www.w3.org/1999/02/22-rdf-syntax-ns#">
   <cc:Work>
    <dc:type rdf:resource="http://purl.org/dc/dcmitype/StillImage"/>
    <dc:date>2023-04-09T05:02:59.183851</dc:date>
    <dc:format>image/svg+xml</dc:format>
    <dc:creator>
     <cc:Agent>
      <dc:title>Matplotlib v3.7.1, https://matplotlib.org/</dc:title>
     </cc:Agent>
    </dc:creator>
   </cc:Work>
  </rdf:RDF>
 </metadata>
 <defs>
  <style type="text/css">*{stroke-linejoin: round; stroke-linecap: butt}</style>
 </defs>
 <g id="figure_1">
  <g id="patch_1">
   <path d="M -0 568.8 
L 298.971662 568.8 
L 298.971662 0 
L -0 0 
z
" style="fill: #ffffff"/>
  </g>
  <g id="axes_1">
   <g id="LineCollection_1">
    <path d="M 162.908016 172.423233 
L 163.279802 171.623204 
L 164.353852 170.768628 
L 165.606911 169.468581 
L 167.341915 166.823031 
L 167.761896 165.7139 
L 168.078603 165.386616 
L 168.567434 165.241156 
L 169.159539 165.350251 
L 170.157854 166.223009 
L 170.770614 166.568476 
L 172.932484 167.323049 
L 176.072015 168.186717 
L 178.660752 168.523092 
L 181.669469 169.395851 
L 184.423444 171.068639 
L 189.063892 173.905105 
L 191.941795 174.759681 
L 193.484021 174.923323 
L 195.714741 175.114239 
L 197.050419 175.441524 
L 197.532364 175.386976 
L 199.322448 176.532472 
L 200.74763 177.150676 
L 202.943925 177.550691 
L 205.367423 179.241661 
L 207.012923 180.796262 
L 207.901079 182.296317 
L 208.555148 183.878192 
L 208.96136 185.505523 
L 209.649853 189.932956 
L 210.290153 192.733057 
L 211.033726 194.542213 
L 212.975278 198.024157 
L 218.669121 201.433371 
L 220.259542 204.206198 
L 221.361131 205.497154 
L 222.476491 206.742653 
L 223.254489 207.997244 
L 223.543656 208.679087 
L 223.626276 209.251834 
L 223.536772 209.960951 
L 223.309569 210.706432 
L 222.063395 213.024698 
L 221.574564 213.815635 
L 220.920495 214.552026 
L 219.688092 216.688466 
L 218.848129 218.33398 
L 217.037391 221.234085 
L 215.784332 223.506894 
L 214.613893 225.906981 
L 212.899544 228.697991 
L 212.307439 230.116224 
L 210.854717 232.961781 
L 209.47773 235.16186 
L 207.26078 239.28019 
L 204.837282 242.834864 
L 202.461979 247.053198 
L 199.639155 252.026105 
L 198.04185 255.062578 
L 197.752682 255.798968 
L 197.573674 256.571723 
L 196.878295 258.135416 
L 195.652776 260.280948 
L 194.234479 262.681035 
L 192.141458 266.872095 
L 188.609486 273.481424 
L 187.914107 275.008752 
L 185.263406 278.981623 
L 183.73495 281.490804 
L 180.974091 286.136426 
L 178.543708 291.700263 
L 178.130612 292.354832 
L 177.538507 292.900307 
L 174.743222 297.373195 
L 172.333495 300.34603 
L 169.331662 305.382575 
L 168.064834 307.719023 
L 161.86839 319.283077 
L 161.228091 320.346751 
L 161.448409 320.546759 
L 161.214321 320.446755 
L 160.856304 320.519485 
L 160.450093 320.774039 
L 159.975032 321.4377 
L 158.611815 324.08325 
L 157.854472 326.056048 
L 155.864725 330.065284 
L 153.565156 334.210888 
L 149.179451 342.983932 
L 148.966018 343.78396 
L 147.11397 347.220448 
L 145.633709 349.138699 
L 143.051857 353.938872 
L 142.638761 356.075313 
L 142.397788 357.475363 
L 141.957152 358.11175 
L 142.115506 358.266301 
L 141.922727 357.957199 
L 141.461437 357.502637 
L 141.206694 357.89356 
L 140.408041 359.65726 
L 139.836592 360.511837 
L 139.574964 360.857304 
L 139.40284 360.957307 
L 139.072364 360.930034 
L 138.810736 361.202771 
L 137.998313 361.71188 
L 136.524937 369.775807 
L 136.201345 370.184913 
L 136.20823 370.184913 
L 135.774479 370.203095 
L 135.746939 370.139457 
L 135.843328 369.984906 
L 134.996481 371.521325 
L 134.349297 372.794098 
L 131.932684 374.085054 
L 130.776014 375.248732 
L 127.719102 380.521649 
L 126.954874 381.803514 
L 125.571002 383.739947 
L 124.813659 384.594524 
L 124.028776 385.958209 
L 123.677644 386.92188 
L 123.512406 387.831004 
L 123.181929 389.112868 
L 123.285203 388.376478 
L 123.119964 387.994646 
L 123.140619 387.994646 
L 122.603594 388.394661 
L 122.50032 388.512847 
L 121.667243 388.476482 
L 120.9099 391.149306 
L 119.408983 394.076684 
L 118.754914 395.313092 
L 118.245429 395.176724 
L 117.784138 395.794928 
L 117.742828 395.640377 
L 117.756598 395.649468 
L 118.155925 395.704015 
L 118.183464 395.867658 
L 116.696318 399.41324 
L 115.092128 403.322472 
L 114.321015 404.440694 
L 113.481052 406.386219 
L 112.937142 408.604481 
L 111.931942 410.886381 
L 111.291642 412.704629 
L 110.610034 414.413781 
L 110.369061 415.295631 
L 108.668481 418.313922 
L 108.028182 419.259411 
L 106.761354 421.568585 
L 106.382682 422.641351 
L 102.499578 429.196133 
L 101.687155 430.950741 
L 100.840308 432.178058 
L 97.755856 435.514542 
L 93.087869 440.560179 
L 92.075783 442.251149 
L 91.421714 443.996667 
L 90.898459 446.324023 
L 89.135915 450.48781 
L 87.201248 454.587958 
L 86.271781 456.888041 
L 85.707216 457.706252 
L 84.041061 460.833638 
L 83.242409 462.179141 
L 82.553915 463.288272 
L 82.319827 463.761016 
L 81.748377 466.206559 
L 80.908415 468.270269 
L 80.082223 469.897601 
L 79.641587 470.033969 
L 79.373074 470.215794 
L 79.276685 469.943057 
L 79.304225 470.070334 
L 77.768884 472.043133 
L 76.701719 471.95222 
L 76.488285 471.615845 
L 77.252514 470.670356 
L 77.472831 470.988549 
L 77.128585 471.770396 
L 76.667294 472.415874 
L 76.061419 474.125026 
L 75.538164 474.534132 
L 75.40735 474.979602 
L 75.510624 475.334161 
L 75.730942 475.525077 
L 74.422804 477.01604 
L 74.470999 477.01604 
L 74.023478 477.6797 
L 73.493338 478.152444 
L 72.983853 479.088842 
L 71.999307 481.816213 
L 71.248848 482.807158 
L 69.610233 484.452671 
L 67.682451 487.225499 
L 66.553321 489.252845 
L 65.802863 491.025636 
L 64.164248 493.99847 
L 63.000694 495.553072 
L 59.000545 502.644237 
L 58.284512 504.144291 
L 57.685522 505.380699 
L 57.485859 506.744385 
L 57.272426 508.208074 
L 56.205261 511.544558 
L 56.012483 512.353678 
L 55.461688 513.771911 
L 54.394522 515.399242 
L 53.623409 517.244764 
L 52.590669 519.826675 
L 51.674972 521.363094 
L 50.057012 524.990497 
L 47.55778 529.990678 
L 45.795236 532.28167 
L 44.342514 534.309015 
L 43.743525 535.090862 
L 43.76418 536.090898 
L 43.991382 536.4 
L 44.115311 535.836343 
L 44.177276 535.281778 
L 43.247809 533.808997 
L 42.325228 533.16352 
L 39.84665 532.790779 
L 37.326763 532.808961 
L 36.617615 532.772596 
L 35.894696 532.58168 
L 35.047849 531.836199 
L 33.87741 530.599791 
L 32.321414 528.845182 
L 31.192284 528.772452 
L 28.617318 529.363383 
L 27.35049 529.136102 
L 24.727329 528.090609 
L 23.109368 527.663321 
L 21.381249 526.381457 
L 20.444898 525.15414 
L 20.21081 524.890494 
L 20.135076 524.608666 
L 20.493092 523.83591 
L 21.704841 521.735835 
L 21.918274 521.253999 
L 22.262521 520.081229 
L 24.507011 515.099232 
L 25.987272 513.553721 
L 26.379713 512.199127 
L 27.088862 510.580887 
L 27.832435 508.880825 
L 27.736046 508.626271 
L 27.83932 508.071705 
L 28.878946 505.126145 
L 29.202538 503.707912 
L 29.319582 503.398809 
L 29.684483 503.25335 
L 29.822182 502.08058 
L 30.228393 501.216913 
L 30.765418 499.353209 
L 31.268019 498.125892 
L 31.295559 497.634965 
L 32.589927 493.643912 
L 32.989253 494.153021 
L 34.579674 493.889376 
L 35.688148 494.234843 
L 36.411067 493.716642 
L 36.590075 492.752971 
L 37.732975 490.089238 
L 38.139186 488.389177 
L 38.435238 487.843703 
L 38.751945 487.38005 
L 40.218437 482.479873 
L 40.624648 481.743483 
L 41.106594 481.143461 
L 41.946556 479.070659 
L 42.641935 477.6797 
L 45.3546 473.93411 
L 46.194562 473.243176 
L 48.59052 470.252159 
L 49.437368 468.93393 
L 49.871119 468.279361 
L 51.041558 465.815635 
L 51.413345 465.233796 
L 52.211997 463.333728 
L 54.924663 458.49719 
L 55.21383 457.878986 
L 55.193175 457.506245 
L 55.17252 458.015354 
L 55.220715 457.888077 
L 55.447918 457.10623 
L 56.962604 454.442498 
L 58.539255 451.824222 
L 58.959236 451.269656 
L 59.213978 451.269656 
L 59.468721 450.778729 
L 59.868047 449.642325 
L 61.203725 447.333151 
L 62.126307 445.78764 
L 63.048888 444.542141 
L 63.716727 442.76935 
L 64.480955 441.478394 
L 65.672049 439.178311 
L 66.766754 436.996414 
L 67.310664 436.178203 
L 71.062955 427.70517 
L 71.476051 427.477889 
L 72.763535 425.032346 
L 73.100896 423.632296 
L 73.465798 422.777719 
L 74.340185 419.741246 
L 75.359156 416.886598 
L 77.06662 413.704665 
L 77.844618 411.631863 
L 78.333449 409.413601 
L 78.801624 407.977185 
L 79.28357 406.695321 
L 79.435039 405.167993 
L 79.455693 404.231596 
L 79.627817 404.077045 
L 80.130417 401.604228 
L 80.185497 401.076936 
L 80.364505 400.786017 
L 80.488434 399.41324 
L 80.756946 399.476879 
L 80.763831 399.649612 
L 81.114963 399.5587 
L 81.837882 399.113229 
L 82.388677 398.204105 
L 83.022091 397.204069 
L 83.586656 396.76769 
L 84.867254 396.004026 
L 86.574718 394.613067 
L 87.263212 392.667542 
L 87.648768 390.894751 
L 87.937936 390.112905 
L 87.338946 387.540084 
L 87.579919 386.730964 
L 87.882856 381.03985 
L 87.848432 380.003449 
L 88.110059 379.076143 
L 88.468076 378.32157 
L 89.438852 377.967012 
L 89.851948 377.185165 
L 92.351181 373.675948 
L 94.602555 366.921159 
L 95.511367 365.684751 
L 96.681806 363.930142 
L 99.304967 359.693625 
L 99.724948 359.302702 
L 100.282628 359.693625 
L 100.571795 359.548166 
L 101.301599 358.457217 
L 103.408389 354.602533 
L 104.200157 353.538858 
L 104.551289 352.884289 
L 105.157163 350.656936 
L 105.48764 349.393254 
L 106.313833 347.629554 
L 107.181335 346.156773 
L 107.911138 345.256741 
L 108.943879 345.429474 
L 109.026498 345.611299 
L 109.026498 345.611299 
L 109.735647 345.484022 
L 109.728762 345.493113 
L 110.341521 345.220376 
L 111.05067 344.66581 
L 111.443111 344.202157 
L 111.876862 343.229395 
L 112.145375 342.047534 
L 112.200454 341.474786 
L 112.131605 340.847491 
L 118.197234 337.765562 
L 118.018226 337.365547 
L 116.861557 336.94735 
L 116.262567 336.80189 
L 114.761651 332.747199 
L 114.623952 331.665341 
L 114.679031 330.601667 
L 115.780621 327.783383 
L 116.937291 326.574249 
L 117.983801 325.683307 
L 119.526027 324.319622 
L 119.987318 323.783239 
L 120.999404 321.892262 
L 121.853136 320.001284 
L 122.789487 318.110307 
L 123.911732 315.319297 
L 124.627766 314.228349 
L 126.238841 310.846409 
L 128.338747 307.564472 
L 130.562581 305.300754 
L 132.35955 303.827974 
L 134.700428 302.10973 
L 135.354497 301.882449 
L 136.621326 301.74608 
L 137.874384 301.74608 
L 139.154983 301.882449 
L 140.284112 302.282463 
L 141.254889 303.146131 
L 142.1637 304.01889 
L 143.32037 304.764371 
L 148.043437 305.891684 
L 148.766355 305.809863 
L 149.454849 305.509852 
L 150.659713 304.573455 
L 154.735595 300.946051 
L 155.403434 299.755099 
L 156.112583 297.855031 
L 156.821731 295.773138 
L 157.455145 294.363996 
L 158.191834 293.282139 
L 159.13507 292.018457 
L 159.66521 291.409344 
L 162.040514 289.663826 
L 163.272917 288.827432 
L 164.443357 288.172863 
L 166.742926 286.545532 
L 167.796321 285.618226 
L 168.622513 284.572734 
L 169.607059 282.836307 
L 170.419482 281.045334 
L 171.534842 277.736123 
L 171.830894 276.24516 
L 171.982363 274.736015 
L 171.810239 273.22687 
L 171.059781 271.081338 
L 169.868687 268.144868 
L 169.55198 266.553902 
L 169.469361 264.962935 
L 169.57952 263.208326 
L 169.772298 262.399206 
L 170.10966 261.608269 
L 171.465992 259.726383 
L 173.94457 256.826278 
L 175.101239 255.780786 
L 177.655551 253.780714 
L 178.998114 252.980685 
L 179.693492 252.717039 
L 180.967206 251.935192 
L 181.958637 250.953339 
L 182.351078 250.398773 
L 182.612706 249.807843 
L 182.853678 248.471431 
L 182.750404 247.025924 
L 182.578281 245.81679 
L 182.681555 244.353101 
L 182.915643 243.062145 
L 183.583482 241.352993 
L 184.044772 240.16204 
L 184.815885 236.889195 
L 185.662733 232.925416 
L 186.055174 231.761737 
L 186.592199 229.888943 
L 187.948532 226.743375 
L 189.18782 224.925127 
L 191.411655 221.634099 
L 195.983253 217.233941 
L 196.87141 216.19754 
L 198.399866 213.842909 
L 199.873243 210.560973 
L 200.589276 208.5609 
L 201.27777 206.051719 
L 202.179697 204.333475 
L 205.704785 199.269656 
L 206.565402 198.469627 
L 207.219471 198.133252 
L 207.687646 198.042339 
L 208.33483 197.75142 
L 209.849517 196.851387 
L 212.527757 195.84226 
L 213.890975 195.40588 
L 215.935801 194.88768 
L 217.374753 195.096778 
L 221.643414 196.005902 
L 223.750205 196.124088 
L 225.120307 195.942263 
L 225.698642 195.814986 
L 226.910391 195.260421 
L 228.500811 194.160381 
L 228.982757 193.569451 
L 230.600717 190.505704 
L 231.247901 189.242022 
L 232.184253 187.651055 
L 233.747133 184.632765 
L 237.705972 177.359775 
L 238.635439 175.568801 
L 240.549451 171.768664 
L 240.783539 170.732263 
L 241.375644 169.668588 
L 242.800825 167.532148 
L 245.141704 163.268357 
L 247.351769 159.804596 
L 249.004154 156.631754 
L 249.747727 155.468076 
L 252.584321 149.749688 
L 253.066267 148.476915 
L 253.396744 147.213233 
L 253.658371 145.113157 
L 253.555097 142.913078 
L 253.355434 139.33113 
L 253.658371 137.203781 
L 254.257361 134.140034 
L 254.39506 132.530885 
L 254.133432 130.849006 
L 253.555097 129.276222 
L 252.839064 127.912537 
L 251.682394 126.267023 
L 251.117829 124.866972 
L 250.938821 123.366918 
L 251.069635 121.785043 
L 251.475846 120.166803 
L 252.439737 117.903085 
L 255.104208 112.821083 
L 258.078501 108.730026 
L 259.682691 106.911779 
L 262.52617 104.220773 
L 264.192325 102.466164 
L 265.665702 100.684282 
L 266.553858 99.438782 
L 267.125308 98.056914 
L 267.290547 97.36598 
L 267.380051 95.229539 
L 267.276777 93.793124 
L 266.925645 90.874837 
L 266.898105 89.474786 
L 267.917076 84.101865 
L 268.488526 81.210852 
L 268.853427 79.819892 
L 269.672735 77.928915 
L 270.285494 76.837967 
L 271.091032 75.810657 
L 271.992959 74.892442 
L 274.650544 72.9651 
L 277.025848 71.474137 
L 277.542218 71.110487 
L 278.389065 70.074086 
L 278.671348 69.474065 
L 278.836586 68.828587 
L 278.809046 68.155835 
L 278.630038 67.446719 
L 277.872695 66.101216 
L 276.8193 64.88299 
L 276.185885 64.519341 
L 275.483622 64.282968 
L 274.746934 64.155691 
L 273.982706 64.1466 
L 272.481789 64.482976 
L 271.221846 65.10118 
L 269.342258 66.492139 
L 268.633109 67.128526 
L 267.855112 68.364934 
L 267.125308 68.728583 
L 265.555543 68.964955 
L 264.72935 68.937682 
L 263.978892 68.692218 
L 263.331708 68.274021 
L 262.367817 66.964883 
L 262.05111 65.446647 
L 262.195693 63.992049 
L 262.815338 62.664728 
L 264.357563 60.782842 
L 267.083999 57.53727 
L 269.032436 54.882629 
L 269.920593 53.300754 
L 271.187421 50.155186 
L 271.524783 48.427851 
L 271.80018 46.036856 
L 271.758871 44.436798 
L 271.634942 43.782229 
L 271.159881 42.954926 
L 270.79498 42.473091 
L 269.989442 41.691244 
L 269.087515 40.700299 
L 268.626224 40.55484 
L 267.256122 39.282066 
L 266.257806 38.336578 
L 262.932381 35.85467 
L 258.498482 34.209156 
L 256.391691 33.809142 
L 252.859719 33.736412 
L 251.56535 33.218211 
L 250.270982 32.954565 
L 249.410365 32.61819 
L 248.109112 32.4 
L 247.248495 32.600007 
L 246.12625 33.172755 
L 245.238093 33.981875 
L 244.528945 34.97282 
L 243.771602 36.418327 
L 243.234577 38.900234 
L 243.303426 39.718446 
L 243.757832 41.80943 
L 243.998805 42.145806 
L 244.287972 42.354905 
L 245.258748 43.554948 
L 245.658074 43.873141 
L 246.621966 44.173152 
L 247.895679 44.627714 
L 248.308775 44.854995 
L 249.196932 44.973181 
L 250.863087 45.600476 
L 251.6342 46.21868 
L 252.391543 47.39145 
L 253.031842 48.627858 
L 253.203965 51.164313 
L 252.983647 53.437123 
L 253.190196 54.737169 
L 253.988848 57.419084 
L 254.388175 58.728223 
L 254.567183 60.073726 
L 254.539643 60.791933 
L 254.202281 62.219258 
L 253.761645 63.382936 
L 253.162656 64.59207 
L 252.129915 66.083033 
L 250.883742 67.764912 
L 249.761497 68.592215 
L 246.876708 70.146816 
L 242.676897 71.528684 
L 241.898899 71.965064 
L 240.542566 73.137833 
L 239.399667 74.528793 
L 238.545934 76.156124 
L 237.9676 77.801638 
L 237.430575 79.238053 
L 236.721426 80.292637 
L 235.69557 81.410859 
L 235.069041 81.938151 
L 234.463167 82.238162 
L 232.590464 82.73818 
L 226.469755 85.210996 
L 224.418043 86.683776 
L 223.047941 88.311108 
L 221.698493 90.511187 
L 220.844761 92.120336 
L 218.972058 95.993203 
L 218.145866 98.002367 
L 217.505567 99.575151 
L 217.292134 100.166081 
L 216.638065 101.447945 
L 216.03219 103.202554 
L 214.9306 105.44809 
L 213.767046 107.06633 
L 211.942538 109.075493 
L 210.407197 110.202807 
L 207.825345 111.839229 
L 206.475897 113.112003 
L 205.759864 114.057491 
L 204.974981 115.566637 
L 204.176328 117.803081 
L 204.079939 118.839482 
L 204.148789 120.484996 
L 204.320912 122.094145 
L 204.389762 124.048761 
L 204.059285 125.812461 
L 203.542914 126.957957 
L 202.86819 128.067088 
L 201.711521 129.294405 
L 200.355188 130.467174 
L 199.308678 130.985375 
L 196.788791 131.949046 
L 192.595864 133.894571 
L 191.817866 134.47641 
L 190.131057 135.267347 
L 189.015697 136.09465 
L 188.217044 136.949226 
L 185.628308 140.158433 
L 183.555942 143.058537 
L 182.323538 145.222252 
L 181.683239 146.74958 
L 181.08425 149.004207 
L 180.863932 150.522443 
L 180.843277 151.977041 
L 181.173754 154.868054 
L 181.827823 156.713576 
L 182.254689 157.968166 
L 182.771059 160.068242 
L 183.383819 162.231956 
L 183.920844 163.868379 
L 184.127392 165.604805 
L 184.29263 165.995729 
L 184.313285 166.786666 
L 184.203126 167.713972 
L 183.466438 169.514037 
L 182.619591 171.141369 
L 181.208178 173.405087 
L 178.571248 176.923396 
L 177.338844 178.259807 
L 176.016936 179.387121 
L 174.116693 180.841719 
L 173.139032 181.596291 
L 170.116545 184.750951 
L 169.200848 185.687348 
L 168.718903 185.869173 
L 168.50547 185.550979 
L 168.615628 184.641856 
L 169.951306 178.587092 
L 169.786068 176.714297 
L 169.634599 175.468798 
L 169.490016 174.514218 
L 168.767097 172.159587 
L 168.064834 170.704989 
L 167.396995 169.895869 
L 166.570802 169.232209 
L 166.102626 168.977654 
L 165.613796 168.886742 
L 165.11808 169.004928 
L 164.677444 169.286756 
L 163.961411 170.12315 
L 163.045714 172.132314 
L 162.749662 173.159623 
L 162.281486 174.096021 
L 161.207436 175.568801 
L 159.65144 177.887067 
L 158.956062 179.259843 
L 158.542966 179.632584 
L 158.00594 179.714405 
L 154.666746 178.387085 
L 153.620236 177.677968 
L 150.769872 176.141549 
L 149.654512 175.423341 
L 145.310116 173.095985 
L 143.678386 172.259591 
L 141.509631 171.123186 
L 134.500765 167.023038 
L 132.807071 165.904816 
L 131.485163 165.295703 
L 130.273414 164.495674 
L 126.507353 162.486511 
L 125.474613 161.959219 
L 124.434987 161.113734 
L 124.448757 160.877362 
L 124.476297 160.795541 
L 124.400563 160.877362 
L 124.400563 160.877362 
" clip-path="url(#peaf5a51e39)" style="fill: none; stroke: #000000; stroke-width: 3"/>
   </g>
  </g>
 </g>
 <defs>
  <clipPath id="peaf5a51e39">
   <rect x="7.2" y="7.2" width="284.571662" height="554.4"/>
  </clipPath>
 </defs>
</svg>
