<?xml version="1.0" encoding="utf-8" standalone="no"?>
<!DOCTYPE svg PUBLIC "-//W3C//DTD SVG 1.1//EN"
  "http://www.w3.org/Graphics/SVG/1.1/DTD/svg11.dtd">
<svg xmlns:xlink="http://www.w3.org/1999/xlink" width="572.4pt" height="556.003578pt" viewBox="0 0 572.4 556.003578" xmlns="http://www.w3.org/2000/svg" version="1.1">
 <metadata>
  <rdf:RDF xmlns:dc="http://purl.org/dc/elements/1.1/" xmlns:cc="http://creativecommons.org/ns#" xmlns:rdf="http://www.w3.org/1999/02/22-rdf-syntax-ns#">
   <cc:Work>
    <dc:type rdf:resource="http://purl.org/dc/dcmitype/StillImage"/>
    <dc:date>2023-04-27T05:03:10.360890</dc:date>
    <dc:format>image/svg+xml</dc:format>
    <dc:creator>
     <cc:Agent>
      <dc:title>Matplotlib v3.7.1, https://matplotlib.org/</dc:title>
     </cc:Agent>
    </dc:creator>
   </cc:Work>
  </rdf:RDF>
 </metadata>
 <defs>
  <style type="text/css">*{stroke-linejoin: round; stroke-linecap: butt}</style>
 </defs>
 <g id="figure_1">
  <g id="patch_1">
   <path d="M 0 556.003578 
L 572.4 556.003578 
L 572.4 0 
L 0 0 
z
" style="fill: #ffffff"/>
  </g>
  <g id="axes_1">
   <g id="LineCollection_1">
    <path d="M 146.010353 36.794898 
L 146.332493 36.582225 
L 146.214375 36.397908 
L 146.171423 35.944205 
L 146.117733 35.830779 
L 146.332493 35.377077 
L 147.105627 34.824126 
L 147.51367 34.809948 
L 148.458612 35.121869 
L 149.167318 34.980087 
L 152.796754 35.830779 
L 154.632948 36.497156 
L 155.384607 36.610581 
L 155.996671 37.220245 
L 158.12279 37.844086 
L 158.799283 38.52464 
L 159.271754 38.751492 
L 160.538835 39.942462 
L 161.09721 40.424521 
L 161.193852 40.878224 
L 163.942774 42.055016 
L 164.501148 41.502066 
L 165.800443 42.111729 
L 166.702433 41.828165 
L 168.710435 40.892402 
L 169.590949 40.311096 
L 169.79497 40.339452 
L 170.986886 37.872442 
L 171.588212 37.631413 
L 172.178801 38.014225 
L 172.908984 38.638066 
L 176.388088 39.871571 
L 181.295343 40.934937 
L 187.14754 42.749749 
L 189.144803 43.699689 
L 190.207863 44.351887 
L 191.227971 45.117511 
L 192.248078 45.642105 
L 193.289662 46.308481 
L 194.245342 46.648758 
L 195.823824 47.42856 
L 197.477473 48.109114 
L 199.582116 49.853035 
L 203.179338 51.710381 
L 204.242398 52.476004 
L 206.432945 53.723687 
L 208.569802 54.546024 
L 209.69729 54.97137 
L 210.835515 55.155687 
L 213.219346 56.133984 
L 214.357571 56.757826 
L 216.634022 57.651053 
L 224.075439 60.841152 
L 226.996169 62.528359 
L 229.841733 64.768517 
L 230.657819 65.718458 
L 231.989328 67.618339 
L 232.902056 70.241308 
L 233.127553 71.347209 
L 233.492644 72.566536 
L 234.373159 76.309585 
L 235.962379 80.818257 
L 236.574444 82.122653 
L 238.099236 83.965821 
L 241.395795 87.666335 
L 241.728672 87.382771 
L 243.027967 87.978256 
L 244.112503 89.155048 
L 244.810471 90.72883 
L 245.895007 91.67877 
L 246.635927 93.124948 
L 248.117768 95.308393 
L 249.470753 97.534373 
L 252.305579 101.2916 
L 253.712253 102.950452 
L 255.065238 104.339917 
L 255.645089 105.048827 
L 256.020918 105.701025 
L 256.246416 106.523362 
L 256.343058 107.402411 
L 255.827635 109.472431 
L 254.131034 112.378965 
L 252.72436 115.384747 
L 251.210305 118.390528 
L 250.555288 119.283756 
L 249.556657 121.410488 
L 248.998282 122.332072 
L 248.525811 123.523042 
L 247.011756 126.202725 
L 246.539285 127.209378 
L 244.091027 130.966605 
L 242.974277 133.036625 
L 242.340737 133.986565 
L 239.913954 138.679555 
L 238.818681 140.863 
L 238.356948 141.940544 
L 237.701931 142.862128 
L 236.467064 146.293256 
L 235.994593 147.143949 
L 234.802678 148.8028 
L 234.083233 151.184741 
L 231.409477 155.494918 
L 227.114287 162.938481 
L 226.373366 164.086917 
L 225.857944 165.136105 
L 225.321045 165.830837 
L 224.880788 166.809134 
L 224.365365 167.347906 
L 223.259353 169.120183 
L 222.95869 170.410401 
L 221.594967 172.608024 
L 220.478217 174.366123 
L 219.254088 176.251826 
L 218.051435 178.860617 
L 217.825937 180.420221 
L 216.258193 182.376815 
L 213.895838 187.268299 
L 213.208608 188.345843 
L 212.628757 189.636061 
L 210.781825 192.684377 
L 208.355043 197.334832 
L 207.420839 199.560812 
L 206.679918 200.553287 
L 206.132281 201.474871 
L 205.584645 202.680019 
L 204.725607 203.544891 
L 204.306826 204.438118 
L 203.608857 205.203742 
L 203.179338 206.139504 
L 202.620963 207.684929 
L 200.226395 210.86085 
L 199.786138 211.881681 
L 198.787506 213.710671 
L 197.788874 216.106789 
L 197.316403 217.269403 
L 195.652017 220.23265 
L 194.567481 221.948214 
L 193.944679 223.068293 
L 193.031951 224.68461 
L 192.860143 225.336808 
L 192.742025 226.612847 
L 191.958153 227.676213 
L 191.002473 229.788767 
L 189.842772 231.532688 
L 189.477681 232.652767 
L 187.652225 235.72944 
L 187.018684 236.764449 
L 186.610641 237.657677 
L 185.483154 239.217281 
L 183.249654 242.591696 
L 182.74497 244.023696 
L 180.597374 247.610784 
L 179.942358 248.475655 
L 178.28871 251.793358 
L 177.676645 252.714942 
L 177.129008 254.090229 
L 176.355874 255.437159 
L 174.949199 257.251971 
L 173.091529 260.881594 
L 172.511678 262.313594 
L 171.083528 264.780603 
L 169.730543 267.148365 
L 168.356082 269.643731 
L 167.497044 270.721276 
L 165.897085 273.797948 
L 165.113213 275.003097 
L 164.511886 276.505987 
L 162.879714 278.887928 
L 161.548205 281.595967 
L 159.561679 284.942026 
L 159.13216 286.147174 
L 157.263752 289.691728 
L 156.179217 291.137906 
L 154.471879 292.796757 
L 153.77391 293.860123 
L 153.129632 295.07945 
L 152.700113 296.185351 
L 152.463877 297.30543 
L 151.733695 298.01434 
L 150.788753 299.44634 
L 149.757907 301.700676 
L 149.349864 303.090141 
L 148.211639 305.24523 
L 148.039831 306.535448 
L 147.717692 307.683883 
L 147.245221 308.733071 
L 146.912343 309.796437 
L 145.258695 312.433585 
L 144.603679 313.922298 
L 144.056042 314.588674 
L 143.05741 316.44602 
L 142.552725 317.225822 
L 141.951399 317.863842 
L 141.189002 319.054812 
L 140.695055 320.203248 
L 138.76222 323.251564 
L 137.956871 324.031366 
L 137.623994 324.967128 
L 136.453555 326.470019 
L 135.20795 328.738533 
L 133.994558 331.602533 
L 134.016034 331.233899 
L 134.0912 331.262256 
L 134.209318 331.474929 
L 134.166366 331.94281 
L 133.726109 332.353978 
L 133.103306 333.800156 
L 131.857701 335.558255 
L 131.116781 336.39477 
L 130.204053 338.323007 
L 129.441656 339.315482 
L 128.94771 340.492274 
L 127.390703 342.647363 
L 126.392071 344.674848 
L 125.586723 346.659798 
L 125.12499 347.708986 
L 124.931706 348.644748 
L 122.247212 352.699717 
L 121.699576 353.706371 
L 121.495554 354.698846 
L 120.862014 355.733856 
L 120.271425 357.931479 
L 118.86475 359.788825 
L 117.812428 360.951439 
L 116.921176 363.631122 
L 115.675571 365.587715 
L 115.235314 366.693616 
L 115.160148 367.998012 
L 115.568191 369.699398 
L 115.2031 371.344071 
L 114.011185 373.484981 
L 113.034029 373.726011 
L 111.358905 375.625892 
L 110.886434 376.83104 
L 109.909278 378.81599 
L 109.146882 379.539079 
L 108.341533 380.659158 
L 105.936227 385.862564 
L 106.1832 386.769969 
L 106.032869 387.748266 
L 105.313424 388.598959 
L 104.153723 389.577256 
L 102.52155 392.398721 
L 101.179303 394.114285 
L 100.642405 395.291077 
L 99.600821 396.467869 
L 98.731045 397.148423 
L 98.06529 397.942403 
L 97.506916 398.849809 
L 97.141824 399.657967 
L 96.519022 400.707155 
L 95.68146 401.642917 
L 95.305631 402.252581 
L 94.45733 404.677055 
L 93.200987 406.690362 
L 92.900324 407.909689 
L 92.266783 408.746203 
L 91.729884 409.653609 
L 91.214462 411.808698 
L 91.074868 414.771945 
L 91.633243 415.027153 
L 93.533864 416.501687 
L 94.951277 417.082994 
L 96.014337 418.089647 
L 97.571343 419.4224 
L 99.106874 420.117132 
L 101.651774 421.478241 
L 102.059817 421.478241 
L 102.360481 421.705092 
L 103.981915 422.087904 
L 105.614088 424.398953 
L 105.946965 425.22129 
L 107.203308 426.100339 
L 107.729469 426.483151 
L 108.921384 426.157052 
L 109.769684 426.284656 
L 110.381749 426.56822 
L 110.993814 427.305487 
L 111.509236 427.674121 
L 111.981707 427.390557 
L 112.787056 427.305487 
L 112.636724 426.96521 
L 112.883697 427.433091 
L 113.774949 426.681646 
L 114.580298 426.483151 
L 115.117196 425.703349 
L 115.761475 425.660814 
L 115.954758 426.327191 
L 116.169518 425.448141 
L 116.287636 425.036973 
L 116.867486 425.589923 
L 116.84601 426.936854 
L 116.781583 427.234596 
L 117.200364 427.177883 
L 117.297005 426.96521 
L 117.705049 426.681646 
L 119.143937 427.05028 
L 119.949286 427.75919 
L 120.926441 428.255428 
L 121.925073 428.326319 
L 123.471342 428.212893 
L 124.029716 428.326319 
L 125.393439 428.368854 
L 123.965289 424.852656 
L 124.405546 424.753409 
L 124.867279 425.164577 
L 125.264584 425.292181 
L 126.284691 425.816775 
L 127.261847 426.454794 
L 129.162469 427.433091 
L 129.881913 427.532339 
L 130.633572 427.348022 
L 131.159733 427.376378 
L 131.975819 427.163705 
L 132.974451 427.418913 
L 133.908654 428.071111 
L 134.03751 428.751665 
L 134.681789 429.021051 
L 135.132784 429.644893 
L 135.712634 430.183665 
L 137.419973 432.7641 
L 139.234691 436.705644 
L 139.599782 435.188575 
L 140.168895 429.970992 
L 141.296382 431.388813 
L 142.337966 431.927586 
L 143.948662 438.718951 
L 143.927186 439.20101 
L 144.990246 440.533762 
L 146.998247 440.533762 
L 147.62105 440.930752 
L 148.157949 440.78897 
L 148.662634 440.448693 
L 148.898869 440.888218 
L 149.392816 440.491228 
L 150.11226 439.739782 
L 150.412924 439.059228 
L 151.12163 438.293604 
L 152.173952 437.400377 
L 153.065204 437.201882 
L 154.214167 437.230238 
L 156.039623 437.045921 
L 156.061099 437.797367 
L 156.157741 438.265248 
L 156.436928 438.690594 
L 155.996671 438.889089 
L 153.118894 439.257723 
L 153.473247 439.541287 
L 154.364499 439.725604 
L 155.953719 440.207663 
L 157.317442 440.774792 
L 157.424822 440.987465 
L 157.789913 440.647188 
L 157.886555 440.590475 
L 159.4543 439.20101 
L 159.98046 438.123466 
L 160.270386 437.556337 
L 160.742857 437.0601 
L 161.064996 436.535506 
L 162.149532 435.528852 
L 163.341447 435.86913 
L 163.942774 435.996733 
L 164.189747 436.195229 
L 164.823288 436.337011 
L 167.164166 437.357842 
L 168.055418 438.265248 
L 169.129216 438.506278 
L 170.503677 439.04505 
L 171.545261 439.924099 
L 172.522416 441.03 
L 173.682118 441.894871 
L 176.935725 443.227623 
L 177.998784 443.553722 
L 179.040368 444.064138 
L 180.039 444.418593 
L 181.059107 444.574554 
L 181.7356 444.829762 
L 182.004049 445.453603 
L 182.648328 445.652098 
L 183.389248 446.091623 
L 184.344928 446.318474 
L 185.300608 446.743821 
L 186.406619 447.736296 
L 187.373037 448.374316 
L 188.04953 448.969801 
L 188.930044 449.281721 
L 189.885724 450.600295 
L 189.767606 451.394276 
L 188.822664 452.372572 
L 186.696545 455.463423 
L 186.331454 456.328295 
L 186.13817 457.178987 
L 184.989207 458.752769 
L 183.088585 462.155541 
L 182.723494 463.048769 
L 181.263129 464.977006 
L 181.209439 466.253045 
L 179.362507 468.493203 
L 179.308817 469.173758 
L 178.696753 469.499857 
L 178.299448 471.031104 
L 177.129008 472.108648 
L 176.892773 473.086945 
L 175.614953 474.646549 
L 174.841819 474.533123 
L 173.821711 474.16449 
L 173.166695 473.498113 
L 172.329133 472.902628 
L 170.900982 472.236252 
L 170.031206 472.09447 
L 168.25944 471.484807 
L 165.574946 470.10952 
L 164.952143 469.514035 
L 164.329341 469.187936 
L 163.072997 468.011144 
L 161.913296 467.018669 
L 160.001936 465.189679 
L 159.432824 464.94865 
L 156.039623 464.324808 
L 155.610104 463.956174 
L 153.902766 464.083778 
L 153.602103 463.686788 
L 153.709482 463.587541 
L 153.548413 463.601719 
L 152.195428 463.644254 
L 151.894764 463.204729 
L 151.368604 462.680135 
L 149.596837 461.630947 
L 148.673372 461.04964 
L 146.235851 459.078868 
L 145.366075 458.781126 
L 144.549989 458.157284 
L 143.755379 457.278235 
L 142.778223 457.023027 
L 141.865495 456.52679 
L 139.771589 456.299938 
L 139.030669 455.718631 
L 137.881706 455.88877 
L 137.087095 455.435067 
L 136.238795 455.194037 
L 135.723372 454.556018 
L 135.175736 453.478473 
L 134.080462 453.521008 
L 133.124782 452.968057 
L 132.405338 452.216612 
L 131.524824 451.606949 
L 129.312801 451.139068 
L 127.820222 450.104058 
L 126.971922 449.948098 
L 125.790745 450.316731 
L 124.996134 450.217484 
L 124.641781 449.962276 
L 123.911599 448.969801 
L 123.15994 448.856375 
L 122.354592 449.05487 
L 120.8298 449.139939 
L 120.206997 448.799662 
L 118.306375 448.544454 
L 117.576193 446.658752 
L 116.996342 446.403544 
L 116.706417 445.836415 
L 116.803059 445.411069 
L 117.27553 445.652098 
L 117.415123 445.48196 
L 117.264792 445.24093 
L 117.11446 444.744692 
L 114.086351 441.58295 
L 113.34543 441.341921 
L 112.991077 440.335267 
L 111.380381 439.498753 
L 111.122669 438.378674 
L 110.575032 437.442911 
L 109.200572 436.57804 
L 108.78179 435.642278 
L 107.718731 434.59309 
L 106.913383 434.663981 
L 106.29058 434.536377 
L 105.721467 434.224457 
L 105.087927 434.43713 
L 104.185937 435.585565 
L 102.940331 436.776535 
L 102.263839 436.067625 
L 102.081293 435.656456 
L 102.081293 435.302001 
L 102.661144 433.898358 
L 103.155091 430.14113 
L 103.573872 429.205368 
L 103.981915 428.39721 
L 104.454386 427.915151 
L 105.130879 426.851784 
L 105.184568 426.582398 
L 105.248996 425.589923 
L 105.785895 424.8243 
L 105.721467 424.271349 
L 105.839585 423.505726 
L 106.838217 421.648379 
L 107.128142 421.095429 
L 108.116036 420.37234 
L 108.642197 419.323152 
L 109.146882 418.756023 
L 109.329427 418.089647 
L 110.274369 416.416618 
L 110.918648 415.580103 
L 111.584402 414.913727 
L 113.474286 411.766163 
L 115.052768 410.277451 
L 115.213838 410.263272 
L 116.180256 409.001411 
L 116.556085 408.051471 
L 116.770845 407.1866 
L 117.243316 406.30755 
L 117.393647 405.428501 
L 118.488921 403.117452 
L 118.725156 401.501135 
L 118.907702 400.650442 
L 119.111723 400.253452 
L 119.573456 400.040779 
L 120.572088 397.134245 
L 121.764004 395.532106 
L 122.075405 394.936621 
L 122.912967 394.142641 
L 124.480711 389.506365 
L 125.114252 387.918405 
L 125.876648 387.010999 
L 126.392071 386.160306 
L 128.067195 384.600702 
L 127.873912 384.090287 
L 128.657784 383.310485 
L 129.248373 382.828425 
L 129.269849 381.736703 
L 130.708738 379.950248 
L 131.073829 379.127911 
L 132.469766 377.128783 
L 133.038878 376.745971 
L 133.98382 374.718486 
L 134.241532 373.243952 
L 135.10057 371.585101 
L 135.272377 370.932903 
L 135.981084 370.592625 
L 136.453555 370.138923 
L 136.818646 369.557616 
L 137.355545 368.962131 
L 137.666946 368.324111 
L 137.548828 367.388349 
L 137.087095 365.772032 
L 137.280379 364.921339 
L 138.246797 364.892983 
L 138.891075 365.275795 
L 139.739375 366.523478 
L 140.061515 367.501774 
L 141.350072 369.458368 
L 142.380918 370.408309 
L 143.261432 370.691873 
L 144.023828 371.372427 
L 145.60231 372.46415 
L 146.547252 372.46415 
L 147.266697 373.002922 
L 148.211639 373.201417 
L 149.854549 374.094645 
L 150.337758 374.831912 
L 151.680005 375.611714 
L 152.81823 375.796031 
L 153.763172 376.27809 
L 154.364499 376.348981 
L 154.611472 376.646723 
L 155.212799 375.526644 
L 155.491986 374.916981 
L 156.104051 374.066288 
L 156.791281 373.669298 
L 158.605999 374.831912 
L 160.98983 375.526644 
L 161.687799 376.079595 
L 162.278387 376.774327 
L 163.738752 377.653377 
L 166.187011 378.674208 
L 166.884979 379.113733 
L 167.561471 379.680862 
L 168.538627 379.524901 
L 169.483569 379.666683 
L 170.557367 379.60997 
L 171.566737 379.723396 
L 172.382823 379.964426 
L 173.263337 380.432307 
L 173.982781 381.254643 
L 174.841819 381.566564 
L 175.378718 382.105336 
L 175.915617 382.927673 
L 176.839083 383.395554 
L 177.558527 384.217891 
L 178.396089 384.69995 
L 179.147748 385.408861 
L 179.93162 385.89092 
L 181.198701 387.521415 
L 182.787922 388.754919 
L 183.4322 389.676503 
L 185.053634 390.966721 
L 185.912673 391.491315 
L 186.707283 392.115157 
L 188.425359 393.164344 
L 189.316611 393.561335 
L 190.132697 394.114285 
L 190.895093 394.440384 
L 191.313875 394.922443 
L 192.333982 394.539631 
L 193.955417 394.766483 
L 194.395674 395.10676 
L 195.995632 395.74478 
L 196.672125 396.170126 
L 199.786138 396.652186 
L 200.902887 397.928225 
L 201.869305 398.466997 
L 202.631701 399.190086 
L 203.555167 399.884819 
L 204.639703 400.012423 
L 205.391361 400.678799 
L 206.486635 400.891472 
L 207.367149 401.274284 
L 208.097331 401.983195 
L 209.160391 402.607036 
L 210.116071 403.37266 
L 210.964371 404.194996 
L 211.920051 404.620343 
L 212.553591 405.187471 
L 213.19787 405.272541 
L 213.315987 405.414323 
L 213.348201 405.7546 
L 213.337463 405.641174 
L 213.133442 405.385966 
L 213.219346 405.385966 
L 213.820672 405.059867 
L 213.820672 405.059867 
L 214.035432 404.620343 
L 214.540117 404.847194 
L 214.754876 404.988976 
L 215.646128 405.017333 
L 217.160183 405.584461 
L 219.533276 406.888857 
L 220.403052 407.399273 
L 221.305042 408.193253 
L 222.16408 408.788738 
L 223.044594 409.199906 
L 223.882156 409.781213 
L 224.70898 410.20656 
L 228.692769 413.028024 
L 229.669925 413.425014 
L 230.314204 414.034678 
L 231.87121 414.97044 
L 233.438955 415.60846 
L 234.555704 416.79943 
L 234.695298 417.324024 
L 235.253673 418.316499 
L 235.930165 418.798558 
L 237.218722 419.394043 
L 237.712669 419.748499 
L 237.927429 420.13131 
L 238.313996 420.230558 
L 238.711301 420.457409 
L 238.829419 421.137964 
L 238.163664 421.520775 
L 237.433482 423.278874 
L 236.681823 424.597448 
L 236.531492 425.391428 
L 235.876475 426.525686 
L 235.3181 426.56822 
L 235.049651 427.05028 
L 233.181243 426.795072 
L 232.236301 426.894319 
L 231.538333 426.142874 
L 229.143764 425.348894 
L 227.157239 424.42731 
L 225.117023 424.044498 
L 224.76267 423.165448 
L 223.710348 421.605845 
L 223.194925 420.755152 
L 222.024486 418.557528 
L 221.509063 417.791905 
L 220.843309 417.423271 
L 218.523906 417.026281 
L 215.00185 416.686004 
L 214.400523 416.303192 
L 213.713293 416.345727 
L 213.552223 416.742717 
L 213.004586 416.515865 
L 212.521377 416.459153 
L 212.424735 415.977093 
L 212.038168 416.374083 
L 211.554959 416.16141 
L 211.243558 415.835311 
L 211.168392 415.452499 
L 210.652969 415.353252 
L 210.320092 415.098044 
L 209.997953 414.374955 
L 209.6436 414.162282 
L 208.569802 413.751113 
L 208.279877 413.368302 
L 207.496004 412.815351 
L 206.143019 412.432539 
L 205.498741 411.993015 
L 204.532323 411.028896 
L 203.855831 410.702797 
L 203.082696 410.51848 
L 202.127016 409.681966 
L 201.504214 409.384223 
L 200.881411 409.256619 
L 200.237133 409.299154 
L 199.39957 409.043946 
L 198.755292 408.703669 
L 197.992896 408.547708 
L 197.251975 408.278322 
L 195.405043 407.824619 
L 194.717813 407.597768 
L 193.912465 407.172421 
L 192.634646 405.953095 
L 191.6038 406.023986 
L 189.091113 405.669531 
L 187.684439 405.187471 
L 186.599903 404.932263 
L 186.170384 404.96062 
L 185.998576 404.535273 
L 185.719389 404.124105 
L 185.687175 403.159986 
L 185.891197 402.777175 
L 186.395881 402.139155 
L 186.718021 401.033254 
L 186.803925 400.210918 
L 187.394513 398.424462 
L 187.845508 397.914047 
L 188.092482 397.318562 
L 189.660226 395.191829 
L 190.175649 394.341136 
L 190.530002 393.5188 
L 191.582324 392.526325 
L 192.022581 391.462959 
L 192.688335 388.995949 
L 192.946047 388.088543 
L 193.783609 386.614009 
L 194.384936 385.49393 
L 194.546005 384.232069 
L 194.835931 383.097811 
L 194.707075 383.055277 
L 194.427888 383.66494 
L 193.525898 384.161178 
L 193.3004 384.260425 
L 192.935309 384.586524 
L 192.409148 385.749138 
L 192.022581 386.004346 
L 191.850773 386.486405 
L 191.797083 386.996821 
L 191.872249 387.663197 
L 191.797083 388.131078 
L 191.44273 388.584781 
L 191.270923 389.010127 
L 191.217233 389.293692 
L 190.207863 391.363711 
L 188.672332 393.27777 
L 188.15691 395.120938 
L 188.167648 397.403631 
L 187.856246 398.140898 
L 187.25492 398.381928 
L 187.609273 398.778918 
L 187.319347 399.601254 
L 186.87909 399.799749 
L 186.503261 400.182561 
L 186.492523 400.366878 
L 186.127432 400.806403 
L 185.923411 400.551195 
L 185.440202 400.395234 
L 185.569057 400.083314 
L 186.020052 400.196739 
L 186.127432 400.50866 
L 185.966362 401.132502 
L 186.19186 401.572026 
L 186.696545 401.472779 
L 187.018684 401.033254 
L 187.276396 400.466125 
L 188.479049 396.964106 
L 190.283029 393.547156 
L 190.572954 392.583038 
L 191.646752 390.754048 
L 192.50579 389.038484 
L 193.740657 385.564821 
L 193.848037 384.94098 
L 193.826561 384.288782 
L 194.213128 383.920148 
L 194.546005 383.367198 
L 195.125856 382.828425 
L 196.768766 381.807594 
L 197.166071 381.43896 
L 197.477473 380.588267 
L 198.980789 377.965297 
L 199.421046 377.483238 
L 199.421046 376.845218 
L 200.033111 376.363159 
L 199.861303 375.895278 
L 200.065325 375.370684 
L 200.151229 374.831912 
L 200.956577 374.037932 
L 201.375358 374.222249 
L 202.642439 375.271437 
L 203.512215 375.909456 
L 205.445051 376.590011 
L 206.207447 377.270565 
L 206.99132 377.780981 
L 207.861096 378.007832 
L 208.709396 378.404822 
L 209.407364 378.90106 
L 210.244926 379.241337 
L 211.12544 379.439832 
L 212.553591 380.432307 
L 214.980374 382.658287 
L 215.646128 382.998564 
L 217.289039 383.26795 
L 218.062173 383.636584 
L 219.329254 384.69995 
L 219.866153 385.224544 
L 220.435266 385.49393 
L 220.929212 385.862564 
L 221.358732 385.763316 
L 221.94932 385.933455 
L 222.271459 386.500583 
L 223.334519 385.607356 
L 223.721086 385.479752 
L 223.91437 385.73496 
L 224.086177 385.706603 
L 224.54791 385.054405 
L 224.666028 384.997692 
L 224.676766 385.139475 
L 224.666028 385.139475 
L 225.031119 385.224544 
L 224.998905 385.224544 
L 224.837836 385.2529 
L 225.106285 385.139475 
L 225.106285 385.139475 
L 225.106285 384.813376 
L 225.149237 384.94098 
L 226.072703 385.295435 
L 226.62034 385.394682 
L 227.243142 385.834207 
L 227.780041 386.500583 
L 228.649817 387.053534 
L 229.412214 387.705732 
L 231.527595 388.896702 
L 232.225563 389.421296 
L 234.340945 390.470484 
L 236.43485 391.987553 
L 237.165032 392.356186 
L 239.495173 392.994206 
L 242.770256 395.035869 
L 244.348738 395.305255 
L 245.23999 395.74478 
L 245.873531 395.929097 
L 246.528547 396.425334 
L 246.968804 397.205136 
L 249.524443 399.402759 
L 250.093555 399.402759 
L 251.425065 398.750561 
L 251.919011 398.098363 
L 252.230413 397.361096 
L 252.294841 396.864859 
L 252.370006 397.148423 
L 253.271996 396.425334 
L 252.949857 397.176779 
L 253.314948 397.361096 
L 253.422328 396.028344 
L 252.885429 393.632226 
L 252.080081 393.12181 
L 249.986176 391.108503 
L 249.255993 390.612266 
L 248.600977 389.94589 
L 247.194302 388.995949 
L 246.603713 388.287038 
L 245.658771 388.017652 
L 242.609186 386.614009 
L 242.254833 386.117771 
L 241.696458 385.564821 
L 242.877636 386.585653 
L 244.176931 387.535593 
L 245.605081 388.074365 
L 247.04397 388.343751 
L 247.731201 388.598959 
L 248.278838 388.556424 
L 249.502967 388.783276 
L 250.233149 389.109375 
L 252.659932 390.853295 
L 254.453174 391.661454 
L 255.194094 392.143513 
L 256.622245 392.256939 
L 258.050396 393.575513 
L 259.961755 394.454562 
L 260.380537 394.55381 
L 261.110719 394.964978 
L 261.894591 395.546285 
L 262.248944 396.070879 
L 262.989865 396.567116 
L 263.881117 396.93575 
L 265.341481 397.984938 
L 265.738787 398.424462 
L 267.886382 400.154205 
L 268.53066 401.089967 
L 269.507816 401.557848 
L 270.28095 402.082442 
L 272.203048 404.109927 
L 272.450022 404.988976 
L 272.976182 405.485214 
L 273.287584 406.449332 
L 273.437915 407.611946 
L 274.21105 407.753728 
L 275.177468 408.065649 
L 275.982816 407.796263 
L 276.841854 407.838798 
L 277.690154 407.668659 
L 281.308852 409.129015 
L 281.888703 408.916342 
L 282.726265 409.455114 
L 284.272533 409.625253 
L 285.163785 409.908817 
L 285.754374 410.263272 
L 286.259059 410.702797 
L 295.031985 415.452499 
L 295.676264 415.977093 
L 296.38497 416.260658 
L 298.360758 417.409093 
L 299.101678 417.763548 
L 299.703005 418.288142 
L 302.419713 419.762677 
L 304.406238 421.137964 
L 306.994091 422.541607 
L 308.196744 423.137092 
L 309.624895 424.115389 
L 311.020832 424.909369 
L 311.66511 425.278003 
L 312.255699 425.760062 
L 312.824812 426.043626 
L 314.338866 426.41226 
L 315.788493 427.503982 
L 316.379082 427.900972 
L 317.29181 428.326319 
L 318.000516 428.780022 
L 318.82734 429.134477 
L 321.136005 430.963467 
L 322.70375 431.204497 
L 324.421826 431.870873 
L 325.130532 432.182794 
L 328.233807 434.224457 
L 330.725018 435.514674 
L 331.627008 436.209407 
L 333.323608 437.130991 
L 334.193384 437.45709 
L 338.295291 440.321089 
L 340.185175 441.214317 
L 341.688491 442.150079 
L 343.438781 442.788099 
L 344.08306 443.525366 
L 344.834718 444.149207 
L 346.746078 445.155861 
L 347.562164 445.666276 
L 348.507106 445.978197 
L 349.527214 446.488613 
L 352.909676 448.870553 
L 356.345829 450.770434 
L 357.215605 451.43681 
L 358.933681 452.372572 
L 359.685339 452.925523 
L 365.827462 456.143978 
L 374.396366 461.021284 
L 376.135919 461.744373 
L 377.682187 462.779383 
L 383.308887 466.05455 
L 384.253828 466.508253 
L 385.048439 467.188808 
L 391.995909 471.371381 
L 392.73683 472.108648 
L 393.735461 472.604886 
L 394.648189 473.186193 
L 395.560917 473.512292 
L 396.430693 474.192846 
L 397.493753 474.589836 
L 399.254781 475.695737 
L 400.231937 476.121083 
L 401.015809 476.744925 
L 402.035917 477.042667 
L 402.948645 477.510548 
L 403.775469 478.063499 
L 404.763363 478.517202 
L 406.545867 479.665637 
L 408.446489 480.629756 
L 411.19541 482.246072 
L 413.042342 483.210191 
L 415.834216 484.72726 
L 416.76842 485.280211 
L 417.745576 485.634666 
L 419.613984 486.768923 
L 421.493129 487.931537 
L 422.373643 488.555378 
L 423.340061 489.065794 
L 424.242051 489.406071 
L 436.719579 496.821278 
L 442.5503 500.479258 
L 443.527456 501.060564 
L 444.611992 501.542624 
L 445.503244 502.166465 
L 447.371652 503.116406 
L 449.261536 504.364089 
L 451.172895 505.299851 
L 454.974139 507.384048 
L 456.906974 508.263098 
L 458.700216 509.170504 
L 459.7418 509.680919 
L 460.654528 510.290583 
L 462.243749 511.680048 
L 463.070573 512.133751 
L 463.918873 512.85684 
L 466.571153 514.288839 
L 467.988566 515.720839 
L 469.71738 516.770027 
L 470.662322 517.450581 
L 471.62874 517.62072 
L 472.906559 518.01771 
L 473.991094 518.542304 
L 475.097106 519.506423 
L 476.976252 521.377947 
L 477.964146 522.086858 
L 478.941301 523.178581 
L 479.886243 523.873313 
L 480.798971 524.185234 
L 483.000256 523.476323 
L 483.601583 523.703175 
L 484.2566 523.433788 
L 484.933092 522.568917 
L 485.437777 521.647333 
L 486.844452 520.229512 
L 488.315554 517.819215 
L 488.777287 517.22373 
L 489.29271 516.770027 
L 489.539684 514.756721 
L 489.894037 513.920206 
L 490.957097 512.445671 
L 491.354402 512.06286 
L 493.16912 509.085434 
L 493.888564 507.908642 
L 495.069741 506.717672 
L 496.143539 506.136366 
L 497.485786 504.817791 
L 499.311242 502.60599 
L 500.610537 500.606861 
L 502.103116 498.565198 
L 502.511159 497.629436 
L 503.069534 496.934704 
L 503.488315 496.183258 
L 507.364724 491.00821 
L 507.815719 490.455259 
L 508.18081 489.746348 
L 509.587485 487.974071 
L 509.523057 487.35023 
L 508.588853 486.088369 
L 507.880147 485.663022 
L 506.172809 485.081716 
L 503.788978 483.29526 
L 502.554111 482.18936 
L 501.952784 481.79237 
L 501.340719 481.636409 
L 500.159542 480.629756 
L 498.870985 479.339538 
L 497.990471 478.956726 
L 497.238813 478.503024 
L 495.971731 477.283697 
L 495.241549 476.759103 
L 494.489891 476.404648 
L 493.491259 475.35546 
L 493.383879 474.575658 
L 493.845612 473.597361 
L 499.912569 465.983659 
L 502.521897 462.226432 
L 502.940678 461.404096 
L 506.967419 456.257403 
L 509.018372 453.038949 
L 510.156598 451.479345 
L 511.820984 449.253365 
L 517.855727 440.448693 
L 518.31746 439.810673 
L 519.122808 438.25107 
L 519.638231 437.556337 
L 520.70129 436.379545 
L 522.655602 433.387942 
L 524.169657 431.232853 
L 524.5777 430.38216 
L 525.995112 428.297962 
L 526.585701 427.75919 
L 528.464847 425.207112 
L 529.839308 422.981132 
L 530.988271 421.591667 
L 531.450004 420.726795 
L 535.766671 414.956262 
L 537.012276 412.829529 
L 537.463271 412.078084 
L 538.408213 410.929649 
L 539.149133 409.667787 
L 539.836364 408.051471 
L 539.771936 407.200778 
L 538.558544 405.882204 
L 536.153238 404.450204 
L 535.272724 404.039036 
L 533.039225 402.564501 
L 529.968164 400.636264 
L 527.702451 399.260977 
L 525.275668 397.984938 
L 523.750875 396.680542 
L 520.357675 394.55381 
L 519.638231 393.944146 
L 518.15639 393.150166 
L 517.447684 392.512147 
L 514.108173 390.683157 
L 512.368621 389.648147 
L 510.7794 388.655672 
L 509.770031 388.442999 
L 508.953944 388.060187 
L 508.051954 387.776623 
L 502.833298 385.352148 
L 500.556847 384.06193 
L 498.3663 383.126168 
L 497.797187 382.828425 
L 496.240181 382.31801 
L 492.95436 380.715871 
L 491.31145 379.907713 
L 489.840347 379.227159 
L 489.088689 378.830169 
L 488.186699 378.574961 
L 487.724966 378.390644 
L 485.759916 377.128783 
L 482.377454 375.767674 
L 480.047313 374.746843 
L 478.382927 373.967041 
L 474.399137 372.350724 
L 472.895821 371.811952 
L 471.618002 370.989615 
L 467.881186 369.075556 
L 467.108052 368.664388 
L 463.961825 367.473418 
L 461.610208 366.324983 
L 460.117629 365.772032 
L 457.057306 364.084825 
L 443.323435 357.165855 
L 439.26448 354.613777 
L 438.126254 353.663836 
L 436.794745 352.926569 
L 432.585459 349.963322 
L 431.30764 348.800708 
L 430.266056 348.432075 
L 429.50366 347.893302 
L 428.805691 347.765698 
L 428.451338 347.226926 
L 427.946653 346.815758 
L 426.872855 346.518016 
L 426.088983 345.837461 
L 424.628618 344.844986 
L 423.329323 343.909224 
L 421.589771 342.98764 
L 421.031396 342.477224 
L 419.979075 341.839204 
L 419.538818 341.881739 
L 418.905277 341.00269 
L 417.627458 340.180353 
L 413.84769 337.614096 
L 411.012865 335.671681 
L 410.121613 335.544077 
L 409.262575 335.841819 
L 408.135087 336.664156 
L 406.932434 337.98273 
L 405.407641 340.336314 
L 405.25731 341.201185 
L 405.375427 342.122769 
L 405.794208 342.973462 
L 406.556605 343.739085 
L 407.576712 344.277857 
L 408.822318 344.150254 
L 410.035709 343.611481 
L 411.023603 342.860036 
L 411.689357 341.697422 
L 411.925593 340.548987 
L 411.925593 339.57069 
L 411.46386 338.918492 
L 411.163196 338.961027 
L 411.109507 339.499799 
L 411.216886 338.77671 
L 410.218255 334.154612 
L 410.765891 331.659246 
L 411.324266 330.340672 
L 411.678619 330.028751 
L 411.828951 329.489979 
L 411.485336 329.149702 
L 410.733677 327.788593 
L 410.894747 327.136395 
L 410.45449 326.342415 
L 409.44512 326.14392 
L 406.835792 324.669385 
L 406.266679 324.059722 
L 406.406273 323.36499 
L 407.297525 322.372515 
L 407.877376 321.805386 
L 408.371323 320.855445 
L 409.262575 319.763723 
L 412.226256 314.418536 
L 412.967176 313.496952 
L 413.815477 312.206734 
L 415.061082 311.68214 
L 415.673146 311.200081 
L 416.242259 310.023289 
L 416.55366 309.810616 
L 416.628826 310.193427 
L 416.446281 310.7322 
L 416.972442 310.987408 
L 417.61672 311.44111 
L 419.173727 311.724675 
L 417.466388 315.056555 
L 417.262367 315.73711 
L 415.952334 317.87802 
L 415.393959 318.388436 
L 415.028868 319.097347 
L 414.889274 319.919683 
L 414.481231 320.472634 
L 413.965808 320.571881 
L 412.494705 322.159841 
L 411.646405 323.492594 
L 410.143089 324.924593 
L 410.024971 325.236514 
L 410.379324 325.250692 
L 410.755153 325.038019 
L 411.002127 324.201504 
L 411.045079 323.591841 
L 410.486704 323.435881 
L 410.411538 322.911287 
L 410.905485 322.230732 
L 411.667881 321.536 
L 412.065186 320.89798 
L 412.709465 320.217426 
L 413.117508 319.480159 
L 413.557765 318.927208 
L 414.191306 317.509387 
L 414.900012 316.828832 
L 415.372483 316.219169 
L 415.909382 315.850535 
L 416.338901 315.311763 
L 417.391223 314.333466 
L 417.842218 313.652912 
L 418.62609 312.901467 
L 419.012657 312.050774 
L 420.37638 310.49117 
L 421.632723 310.023289 
L 422.491761 309.399447 
L 423.286371 308.577111 
L 423.791056 307.570458 
L 424.349431 306.733943 
L 424.897068 306.12428 
L 425.745368 304.366181 
L 426.926545 303.118498 
L 427.925177 301.799924 
L 428.365434 301.005944 
L 430.169414 299.120241 
L 431.447233 298.085231 
L 435.753162 297.362142 
L 437.782639 296.809192 
L 439.683261 296.242063 
L 440.370491 296.086103 
L 440.939604 296.511449 
L 441.229529 297.192004 
L 441.240267 297.872558 
L 440.971818 299.347093 
L 440.724845 299.857508 
L 440.327539 300.311211 
L 439.651047 300.353746 
L 438.920865 300.268677 
L 437.052457 299.68737 
L 436.6122 299.219489 
L 435.806852 297.801667 
L 435.882017 297.177826 
L 436.39744 296.894261 
L 438.598725 296.724123 
L 441.766428 295.575687 
L 442.475135 294.980202 
L 443.688526 293.49149 
L 444.644206 291.790104 
L 448.413235 286.941154 
L 450.313857 284.573392 
L 454.147315 278.703611 
L 456.638525 275.130701 
L 458.141842 273.500206 
L 461.867919 269.771335 
L 462.641054 269.161672 
L 464.19806 267.758028 
L 465.679901 266.39692 
L 467.870448 264.369435 
L 469.330813 263.150108 
L 472.251542 259.548842 
L 474.399137 256.273674 
L 475.097106 255.890862 
L 475.891716 255.734902 
L 476.535995 255.451337 
L 477.105107 254.940922 
L 477.599054 254.31708 
L 477.867504 253.622348 
L 477.792338 252.998506 
L 477.373557 252.317952 
L 476.611161 251.991853 
L 475.87024 252.161991 
L 475.311865 252.417199 
L 474.903822 252.97015 
L 474.646111 253.565635 
L 474.098474 255.437159 
L 473.883715 256.032644 
L 474.098474 256.486347 
L 474.742753 256.755733 
L 475.429983 256.500525 
L 476.009834 256.131892 
L 477.910456 253.622348 
L 482.302288 246.972765 
L 483.08616 245.427339 
L 483.461989 244.576646 
L 483.977412 243.711775 
L 484.428407 242.010389 
L 484.814974 239.387419 
L 484.772022 237.700212 
L 484.535787 235.374984 
L 483.82708 233.645242 
L 482.001625 230.653639 
L 481.797603 229.916371 
L 481.743913 229.065678 
L 481.829817 228.073203 
L 482.194908 227.321758 
L 483.150588 225.804689 
L 483.698225 224.415224 
L 483.837818 223.592887 
L 483.762653 222.657125 
L 483.902246 221.778076 
L 484.127744 221.140056 
L 484.181434 220.431145 
L 484.127744 219.665522 
L 484.342503 218.190987 
L 485.201541 215.894116 
L 485.523681 215.326988 
L 486.157221 213.88081 
L 486.490099 213.313681 
L 486.737072 212.647305 
L 486.844452 211.952572 
L 486.522312 211.272018 
L 485.920986 210.846671 
L 485.15859 210.733246 
L 484.546525 211.087701 
L 484.20291 211.626473 
L 484.031102 212.236137 
L 484.052578 212.789087 
L 484.417669 213.767384 
L 484.772022 214.121839 
L 485.244493 214.306156 
L 485.73844 214.221087 
L 486.157221 213.894988 
L 486.543788 212.945047 
L 486.629692 212.108533 
L 486.189435 210.903384 
L 485.910248 210.61982 
L 485.351873 210.478038 
L 484.439145 211.65483 
L 484.299551 212.221958 
L 484.278075 212.803265 
L 484.052578 213.285325 
L 483.676749 213.583067 
L 483.129112 213.809919 
L 482.645903 214.19273 
L 482.07679 215.128493 
L 481.432512 216.191859 
L 480.551998 216.971661 
L 479.757388 217.581324 
L 479.445986 218.049205 
L 478.930563 218.48873 
L 478.350713 218.743938 
L 476.267545 219.126749 
L 472.788441 219.608809 
L 472.047521 219.849838 
L 471.274386 220.246828 
L 469.910664 221.395264 
L 468.65432 221.82061 
L 467.204694 222.359382 
L 466.034254 222.969046 
L 465.465141 223.181719 
L 464.949719 223.536174 
L 462.802123 225.946471 
L 461.975299 227.449362 
L 460.740432 228.923896 
L 459.247853 230.043975 
L 458.689479 230.710351 
L 457.980772 232.241599 
L 457.164686 233.701955 
L 456.574097 234.425044 
L 455.145946 236.693558 
L 454.018459 238.182271 
L 452.225217 240.209756 
L 451.097729 241.52833 
L 450.700424 242.180528 
L 449.916552 243.173003 
L 449.454819 243.782666 
L 447.597149 245.484052 
L 447.092464 246.178784 
L 444.042879 249.184566 
L 441.487241 250.885952 
L 440.606727 251.920962 
L 440.252374 252.672407 
L 438.953079 254.203654 
L 437.396072 255.74908 
L 434.776006 260.711455 
L 434.53977 261.477079 
L 433.444497 263.575455 
L 432.73579 265.191771 
L 431.597565 269.657909 
L 431.447233 270.579493 
L 432.510293 270.905592 
L 433.444497 271.019018 
L 433.594828 271.1608 
L 434.035085 271.132444 
L 433.390807 270.579493 
L 431.608303 270.622028 
L 430.523767 270.380998 
L 429.911703 270.508602 
L 429.160044 271.245869 
L 428.762739 271.274226 
L 428.215102 270.806345 
L 427.656728 270.139969 
L 427.48492 270.225038 
L 427.624514 270.480246 
L 428.107723 270.678741 
L 429.063403 270.962305 
L 429.321114 271.416008 
L 429.149306 271.983137 
L 428.4406 272.83383 
L 427.839273 273.996443 
L 426.915807 275.938859 
L 426.79769 277.767849 
L 426.335957 278.476759 
L 425.165517 278.972997 
L 424.510501 279.199848 
L 423.146778 279.922937 
L 422.717259 280.575135 
L 422.148146 281.9646 
L 421.761579 282.460838 
L 420.666305 284.601748 
L 419.839481 286.047926 
L 417.380485 290.485708 
L 416.908014 290.925233 
L 415.114772 293.576559 
L 414.620825 294.115331 
L 414.191306 294.852598 
L 413.718835 295.433905 
L 413.418171 296.242063 
L 412.086662 298.056875 
L 410.980651 300.297033 
L 410.433014 300.849983 
L 409.466596 302.437944 
L 408.639772 303.65727 
L 406.492177 307.655527 
L 405.708305 309.073348 
L 404.924432 310.632952 
L 401.574184 315.751288 
L 401.230569 316.162456 
L 400.199723 318.033981 
L 399.437327 319.834614 
L 398.599764 321.238257 
L 397.429325 323.492594 
L 394.497858 328.313187 
L 393.499226 329.745187 
L 392.221407 331.829384 
L 390.020122 335.090374 
L 389.461747 335.132908 
L 388.516805 334.395641 
L 388.044334 334.438176 
L 384.651134 338.620749 
L 383.652502 339.797541 
L 383.212245 340.577343 
L 380.806938 343.242848 
L 379.980114 343.951759 
L 379.572071 344.5756 
L 378.970744 345.199441 
L 377.381524 347.553025 
L 377.274144 348.006728 
L 376.146657 350.175995 
L 375.749351 350.417025 
L 375.760089 350.643876 
L 375.888945 350.601342 
L 376.071491 350.175995 
L 376.737245 349.467084 
L 376.479534 350.147639 
L 376.296988 350.601342 
L 374.739982 352.586292 
L 373.172237 355.195083 
L 372.560173 356.598727 
L 370.305198 359.774647 
L 368.146864 363.616943 
L 366.826093 365.587715 
L 366.278457 366.140666 
L 364.56038 369.061378 
L 363.529535 371.344071 
L 363.046326 372.06716 
L 361.414153 376.590011 
L 360.651757 377.483238 
L 360.297404 378.121258 
L 360.039692 378.858525 
L 359.169916 380.375594 
L 358.310878 381.935198 
L 357.301509 383.480623 
L 356.689444 384.274603 
L 356.109593 384.841732 
L 353.543217 388.414642 
L 352.426467 389.917533 
L 351.331194 391.349533 
L 350.278872 392.682285 
L 348.131277 395.602998 
L 347.078955 396.69472 
L 346.04811 397.460344 
L 345.156858 398.410284 
L 344.426675 399.416938 
L 343.642803 400.310165 
L 343.331402 400.778046 
L 343.191808 401.274284 
L 343.191808 401.685452 
L 343.492471 402.09662 
L 344.007894 402.33765 
L 344.276344 402.280937 
L 344.534055 402.621214 
L 344.426675 403.074917 
L 344.072322 403.670402 
L 343.653541 404.039036 
L 342.311294 405.981451 
L 341.613325 407.300025 
L 340.238865 408.505174 
L 338.359719 409.582718 
L 336.609429 411.425886 
L 333.108848 416.388261 
L 332.62564 417.210598 
L 331.100847 419.266439 
L 329.790814 421.279746 
L 329.125059 423.009488 
L 328.308973 424.639983 
L 327.503625 425.646636 
L 327.278127 426.071983 
L 327.353293 426.56822 
L 327.16001 427.248775 
L 326.784181 427.702477 
L 326.118426 428.751665 
L 324.840607 429.871744 
L 324.829869 430.821685 
L 324.464778 431.360457 
L 323.949355 432.891704 
L 323.841975 433.586437 
L 323.509098 434.054318 
L 323.090317 435.160219 
L 322.005781 436.450436 
L 320.609844 437.882436 
L 319.825972 438.534634 
L 317.957564 441.398634 
L 317.302548 442.079188 
L 316.518675 443.057485 
L 314.993883 444.347702 
L 313.52278 447.183346 
L 313.028833 447.750474 
L 312.51341 448.870553 
L 311.493303 450.529404 
L 310.462457 452.287503 
L 308.937664 454.896295 
L 308.368552 455.633562 
L 307.863867 456.555146 
L 307.230326 457.2357 
L 306.607524 458.128928 
L 306.210218 459.093047 
L 305.61963 459.901205 
L 304.953875 460.510868 
L 302.709638 463.587541 
L 299.456031 468.152926 
L 292.605203 479.949202 
L 291.595833 481.508805 
L 290.522035 482.98334 
L 288.041563 485.535418 
L 287.644258 486.116725 
L 287.483188 486.853992 
L 287.859017 487.662151 
L 288.438868 488.342705 
L 289.813329 489.264289 
L 295.042723 492.99316 
L 297.050725 494.269199 
L 298.382234 494.992288 
L 300.143262 496.211615 
L 300.250642 496.778743 
L 299.960716 497.445119 
L 299.520459 498.054783 
L 298.285592 499.18904 
L 297.039987 500.521792 
L 292.014614 505.54088 
L 291.327384 505.923692 
L 291.08041 506.278148 
L 291.681737 506.235613 
L 291.939448 506.079653 
L 292.637417 505.072999 
L 293.346123 503.130584 
L 292.959556 502.719416 
L 292.401181 502.577633 
L 292.422657 502.549277 
L 292.766272 502.166465 
L 292.766272 502.166465 
L 292.852176 502.166465 
L 293.142102 501.854544 
L 293.142102 501.868723 
L 293.346123 501.96797 
L 293.442765 502.038861 
L 293.453503 502.038861 
L 293.614572 502.123931 
L 294.022616 502.76195 
L 293.861546 503.598465 
L 293.313909 504.208128 
L 292.540775 504.661831 
L 291.799855 505.328207 
L 288.943553 507.483296 
L 287.697948 508.475771 
L 287.085883 508.972009 
L 286.656364 509.610028 
L 286.087251 510.077909 
L 285.496663 510.205513 
L 284.852384 510.106266 
L 284.422865 509.709276 
L 284.068512 508.64591 
L 282.930286 507.525831 
L 282.339698 507.298979 
L 281.813537 507.525831 
L 281.255162 508.092959 
L 280.47129 508.447415 
L 279.698155 508.64591 
L 278.989449 508.461593 
L 278.259267 508.135494 
L 277.636464 508.00789 
L 276.86333 508.24892 
L 274.339905 511.921077 
L 272.632567 513.764245 
L 272.40707 513.764245 
L 272.020503 514.189592 
L 272.063455 514.118701 
L 272.009765 513.750067 
L 272.160096 513.636642 
L 273.158728 512.984444 
L 273.899648 512.232998 
L 274.232526 512.034503 
L 275.231157 510.148801 
L 277.013661 508.319811 
L 277.614988 508.206385 
L 279.751845 508.745157 
L 280.460552 508.688444 
L 281.663205 507.837751 
L 284.787956 504.917039 
L 285.475187 504.520049 
L 286.108727 504.009633 
L 287.719424 502.038861 
L 288.342226 501.627693 
L 290.296538 499.43007 
L 290.640153 498.834585 
L 291.273694 497.36005 
L 292.615941 495.502704 
L 293.270957 495.247496 
L 294.054829 495.119892 
L 295.504456 495.176605 
L 296.084307 495.3751 
L 296.621206 495.687021 
L 297.23327 496.183258 
L 297.780907 496.96306 
L 298.13526 498.423416 
L 298.811753 498.55102 
L 299.563411 497.927179 
L 299.971454 497.005595 
L 300.519091 496.452644 
L 301.410343 496.084011 
L 302.570045 495.871338 
L 303.278751 495.318387 
L 305.501512 491.362665 
L 306.124315 490.809715 
L 308.293386 488.044963 
L 311.117473 484.528765 
L 313.103999 481.622231 
L 313.146951 480.941677 
L 312.717432 480.417083 
L 312.255699 480.36037 
L 312.126843 480.204409 
L 312.298651 479.821598 
L 311.643634 478.956726 
L 310.827548 477.879182 
L 310.312125 477.184449 
L 309.388659 476.191974 
L 308.658477 475.383816 
L 308.16453 474.759975 
L 307.906819 474.207024 
L 307.455824 473.909282 
L 306.19948 473.611539 
L 305.802175 473.512292 
L 305.125683 473.512292 
L 304.266645 473.710787 
L 302.96735 473.639896 
L 300.529829 473.597361 
L 297.823859 472.789203 
L 297.695003 473.172015 
L 297.984929 473.441401 
L 298.435924 473.52647 
L 299.703005 473.427222 
L 300.658685 473.583183 
L 301.893552 473.597361 
L 304.588784 473.781678 
L 305.576678 474.065242 
L 305.898817 474.448054 
L 305.845127 475.27039 
L 305.501512 476.092727 
L 304.739116 477.822469 
L 303.901554 479.835776 
L 303.783436 480.36037 
L 303.482772 480.799894 
L 301.324439 486.683854 
L 299.917764 491.32013 
L 299.649315 491.844724 
L 299.574149 492.298427 
L 298.897657 494.113239 
L 299.327176 494.127417 
L 299.724481 493.404328 
L 299.874813 492.369318 
L 300.132524 492.057398 
L 300.733851 490.100804 
L 301.16337 489.136685 
L 301.464033 487.74722 
L 301.872076 486.79728 
L 302.441189 484.131775 
L 302.344547 483.663894 
L 302.000932 483.196013 
L 301.10968 482.884092 
L 299.327176 483.550468 
L 295.912499 484.216844 
L 292.948818 485.081716 
L 291.692475 485.705557 
L 290.790485 485.904052 
L 289.824067 486.031656 
L 289.845543 486.428646 
L 289.985137 486.542072 
L 290.522035 486.612963 
L 291.692475 486.116725 
L 292.744796 485.634666 
L 293.89376 485.322745 
L 295.107151 485.053359 
L 296.395708 484.216844 
L 298.843967 483.791498 
L 299.960716 483.507934 
L 301.088204 483.181835 
L 302.086836 482.728132 
L 302.935136 482.019221 
L 303.740484 480.36037 
L 305.254539 476.659856 
L 305.727009 475.823341 
L 306.263908 474.901757 
L 310.12958 468.989441 
L 311.450351 466.876887 
L 311.87987 466.45154 
L 311.751014 465.969481 
L 310.956404 465.89859 
L 310.516147 466.409006 
L 310.376553 467.146273 
L 310.537623 468.847659 
L 309.646371 470.279659 
L 307.649107 473.172015 
L 307.552465 473.7675 
L 307.745749 474.334628 
L 308.11084 474.674905 
L 310.054414 477.709043 
L 311.095998 478.985083 
L 310.913452 479.08433 
L 311.450351 480.062627 
L 312.223485 480.927498 
L 312.470458 481.31031 
L 312.910715 481.522983 
L 313.479828 481.423736 
L 314.145583 480.842429 
L 314.746909 480.11934 
L 317.066312 476.333757 
L 318.118634 474.915935 
L 319.009886 473.356331 
L 320.072945 471.910153 
L 321.157481 470.463975 
L 322.75744 468.067857 
L 324.475516 465.912768 
L 325.012414 465.118788 
L 326.021784 463.346511 
L 327.095582 461.857799 
L 328.147903 459.249007 
L 330.961253 456.781997 
L 331.841767 456.455898 
L 332.335714 456.030552 
L 333.763865 455.25075 
L 334.032314 454.6978 
L 334.010838 454.513483 
L 334.171908 454.229919 
L 333.742389 453.719503 
L 333.1518 453.194909 
L 331.068633 452.273325 
L 330.510258 451.706196 
L 329.747862 451.365919 
L 327.643219 450.08988 
L 326.848608 449.806315 
L 325.828501 448.913088 
L 325.152008 448.842197 
L 324.711751 449.154117 
L 323.519836 448.048217 
L 323.025889 447.140811 
L 322.370872 446.446078 
L 320.620582 446.219227 
L 316.550889 444.418593 
L 315.949563 444.475306 
L 315.820707 444.84394 
L 316.368344 444.758871 
L 316.980408 444.815584 
L 317.517307 444.475306 
L 318.687747 444.815584 
L 319.417929 445.170039 
L 320.717224 446.27594 
L 321.587 446.658752 
L 322.456776 447.197524 
L 323.047365 447.906435 
L 324.325184 448.913088 
L 325.044628 449.182474 
L 326.666063 450.203305 
L 328.126428 450.699543 
L 330.950515 451.139068 
L 331.788077 451.720374 
L 332.142431 452.244968 
L 332.57195 452.457642 
L 332.539736 453.10984 
L 332.958517 453.450117 
L 333.677961 453.435939 
L 333.742389 454.116493 
L 334.086004 454.683622 
L 334.633641 454.924651 
L 336.233599 453.932176 
L 338.220125 451.536058 
L 338.692596 450.855503 
L 339.143591 450.444335 
L 340.571742 448.189999 
L 340.711335 447.750474 
L 341.205282 447.013207 
L 341.495208 446.261762 
L 342.569005 445.198395 
L 343.116642 444.758871 
L 342.783765 444.276811 
L 343.92199 442.334396 
L 347.358143 437.953327 
L 347.701758 436.875783 
L 348.37825 436.634753 
L 348.75408 436.960852 
L 348.904411 437.21606 
L 348.335298 437.258595 
L 347.787662 437.896614 
L 347.293715 438.945802 
L 345.94073 439.328614 
L 345.253499 439.598 
L 344.523317 439.612178 
L 343.92199 439.810673 
L 343.428043 440.136772 
L 341.398566 443.454475 
L 341.108641 444.461128 
L 340.31403 445.467781 
L 340.013367 446.077445 
L 339.830821 446.772177 
L 338.971783 448.586989 
L 338.531526 448.983979 
L 338.83219 449.338434 
L 339.293923 449.565286 
L 339.594586 449.933919 
L 340.432148 449.480216 
L 340.722073 449.196652 
L 341.076427 448.41685 
L 341.140855 447.821365 
L 341.398566 447.509444 
L 341.516684 446.82889 
L 341.720705 446.800534 
L 342.27908 446.020732 
L 342.869669 445.028257 
L 343.095166 444.503663 
L 343.954204 443.440297 
L 344.512579 443.057485 
L 346.305821 441.18596 
L 346.821244 440.150951 
L 347.52995 439.172654 
L 347.905779 438.01004 
L 347.809138 437.286951 
L 347.58364 436.705644 
L 346.756816 435.698991 
L 343.653541 433.770754 
L 341.43078 432.721566 
L 341.097903 432.438001 
L 339.089901 431.473883 
L 338.338243 431.034358 
L 337.522157 430.396338 
L 337.038948 430.013527 
L 336.791974 429.503111 
L 336.86714 428.694953 
L 337.468467 428.383032 
L 338.134221 427.886794 
L 341.527422 426.398082 
L 342.085796 426.086161 
L 342.837455 425.916022 
L 344.02937 423.888537 
L 344.555531 423.264696 
L 345.221285 422.810993 
L 349.183599 418.685132 
L 349.527214 417.621766 
L 349.580904 417.082994 
L 350.39699 416.133054 
L 353.704287 411.70945 
L 356.796824 408.675312 
L 357.033059 408.164896 
L 357.516268 407.58359 
L 358.267926 406.222481 
L 359.234344 405.074046 
L 361.822196 401.245927 
L 362.348357 400.721333 
L 362.713448 399.984066 
L 363.153705 399.346046 
L 363.465107 398.637136 
L 364.356359 397.33274 
L 364.61407 395.886562 
L 364.463739 395.234364 
L 364.173813 394.780661 
L 364.195289 394.525453 
L 363.561749 393.065097 
L 363.014112 392.186048 
L 363.014112 390.73987 
L 363.422155 390.10185 
L 363.894626 389.081018 
L 364.946947 387.663197 
L 364.50669 387.549771 
L 363.851674 388.244504 
L 363.733556 388.357929 
L 360.587329 389.619791 
L 359.846409 389.662325 
L 357.698814 390.286167 
L 355.519004 391.108503 
L 354.294875 392.044265 
L 351.846617 394.766483 
L 350.719129 395.914918 
L 349.537952 397.190958 
L 348.346036 398.481175 
L 347.701758 399.005769 
L 347.240025 399.615433 
L 346.563532 400.196739 
L 346.037372 400.834759 
L 345.811874 401.642917 
L 343.879038 403.542798 
L 343.503209 404.152461 
L 343.062952 405.144937 
L 343.256236 404.96062 
L 343.857562 404.436026 
L 344.641435 402.692105 
L 346.273607 400.579551 
L 351.234552 395.26272 
L 351.685547 394.86573 
L 352.265398 394.142641 
L 352.94189 393.660582 
L 354.649228 391.732345 
L 355.282769 391.13686 
L 356.700182 390.286167 
L 358.096119 389.676503 
L 360.683971 389.392939 
L 362.01548 389.804107 
L 362.584593 390.371236 
L 363.239609 390.371236 
L 363.969792 390.002602 
L 364.291931 389.364583 
L 364.377835 388.556424 
L 364.646284 387.563949 
L 365.108017 386.713256 
L 365.720082 386.103593 
L 368.340148 384.033574 
L 368.962951 383.438089 
L 369.564277 382.672465 
L 370.98169 381.52403 
L 371.454161 380.545733 
L 371.980322 379.780109 
L 372.689028 377.809337 
L 372.914526 376.91611 
L 373.719874 375.498288 
L 373.84873 374.491635 
L 374.299725 373.584229 
L 375.019169 371.485853 
L 375.416474 370.890368 
L 376.050015 369.245695 
L 376.586914 367.728626 
L 378.433845 366.566012 
L 378.766723 366.013062 
L 379.325097 365.644428 
L 380.506275 365.304151 
L 380.914318 365.162369 
L 381.869998 364.453458 
L 382.363945 364.297498 
L 382.610918 363.857973 
L 383.480694 363.191597 
L 384.114235 362.482686 
L 384.758513 362.326726 
L 386.111498 360.838013 
L 387.389317 357.378529 
L 387.625553 356.272628 
L 388.452377 355.507004 
L 388.978538 354.571242 
L 389.569127 354.160074 
L 390.492593 353.989935 
L 391.212037 353.295203 
L 392.017385 352.954925 
L 392.672402 352.373619 
L 393.080445 351.607995 
L 393.681771 350.728946 
L 394.21867 349.679758 
L 394.884425 348.956669 
L 395.464275 347.368708 
L 396.02265 346.588907 
L 397.837368 344.844986 
L 398.470909 344.292036 
L 399.007808 343.597303 
L 399.297733 342.930927 
L 399.695038 342.604828 
L 400.929905 340.265422 
L 402.068131 338.861779 
L 402.358056 338.195403 
L 404.183512 335.246334 
L 404.14056 335.005305 
L 404.237202 335.11873 
L 405.106978 335.586611 
L 405.547235 334.622493 
L 406.127086 333.261384 
L 407.243835 331.659246 
L 407.96328 330.879444 
L 408.510916 330.000394 
L 409.155195 329.206414 
L 409.541762 328.171405 
L 411.292052 325.477544 
L 412.140352 324.71192 
L 412.849059 323.861227 
L 413.772525 321.862099 
L 414.481231 321.082297 
L 415.157724 320.671129 
L 416.285211 318.998099 
L 416.908014 318.246654 
L 417.197939 317.197466 
L 420.236786 311.185903 
L 421.06361 310.448635 
L 421.235418 310.49117 
L 420.848851 310.150893 
L 420.805899 309.498695 
L 420.838113 308.874853 
L 421.944124 308.591289 
L 422.481023 307.825665 
L 423.254158 307.145111 
L 427.774845 301.048478 
L 429.514398 299.588122 
L 430.180152 298.581469 
L 431.8338 297.447212 
L 432.929074 297.050222 
L 435.259215 297.163647 
L 437.288692 296.894261 
L 441.01477 295.958499 
L 441.852332 295.363014 
L 443.087199 293.902658 
L 444.547564 291.464005 
L 445.202581 290.740916 
L 447.747481 287.21054 
L 449.809172 284.686818 
L 452.235955 281.01466 
L 454.426502 277.640245 
L 454.974139 276.789552 
L 457.336494 273.996443 
L 458.571361 272.777117 
L 458.646527 272.054028 
L 458.410291 271.203335 
L 457.282804 269.941474 
L 456.176792 268.977355 
L 454.38355 266.467811 
L 453.728534 266.014108 
L 453.073517 266.198425 
L 452.461452 266.666306 
L 451.988981 267.176722 
L 451.795698 267.800563 
L 451.913816 268.282622 
L 453.030565 269.062424 
L 453.717796 269.133315 
L 454.308384 269.048246 
L 455.521776 269.190028 
L 455.854653 268.793038 
L 455.747273 268.169197 
L 454.770117 267.120009 
L 454.523144 266.652128 
L 454.061411 266.184247 
L 453.610416 265.51787 
L 452.021195 264.582108 
L 450.593045 263.504564 
L 449.207846 262.653871 
L 448.466925 262.327772 
L 447.983716 261.959138 
L 446.587779 260.697277 
L 445.138153 260.20104 
L 444.46166 259.818228 
L 443.656312 259.520485 
L 442.421445 258.641436 
L 440.821486 257.97506 
L 439.983924 257.606426 
L 439.275218 257.025119 
L 438.845699 256.14607 
L 439.038982 255.082704 
L 439.758427 254.345437 
L 442.110043 252.743298 
L 442.700632 252.034387 
L 448.12331 247.837636 
L 449.068252 247.454824 
L 449.991718 247.242151 
L 450.958136 247.199616 
L 452.826544 247.298864 
L 453.75001 247.185438 
L 454.555358 246.802626 
L 455.328492 246.249676 
L 456.434504 244.732607 
L 457.30428 243.187181 
L 457.733799 242.577518 
L 457.841178 241.712647 
L 457.626419 240.989558 
L 456.939188 240.181399 
L 456.219744 239.585914 
L 455.414396 239.14639 
L 454.512406 239.132211 
L 453.674844 239.444132 
L 452.826544 240.138865 
L 451.89234 241.811894 
L 448.670947 246.037002 
L 448.595781 246.788448 
L 449.100466 247.284685 
L 449.8736 247.412289 
L 450.496403 247.142903 
L 451.441345 247.270507 
L 452.300383 247.412289 
L 452.547356 247.015299 
L 452.160789 246.6892 
L 450.947398 246.391458 
L 450.603783 245.881042 
L 450.507141 245.34227 
L 450.88297 244.30726 
L 450.689686 243.966983 
L 450.507141 243.952805 
L 450.023932 244.30726 
L 449.046776 245.73926 
L 448.466925 246.547418 
L 445.653576 249.326348 
L 442.335541 252.048566 
L 441.777166 252.757476 
L 439.844331 254.473041 
L 439.275218 255.19613 
L 439.135624 255.99011 
L 439.651047 257.067654 
L 440.477871 257.762387 
L 442.110043 258.598901 
L 447.22132 262.10092 
L 447.908551 262.909079 
L 448.617257 263.518742 
L 450.303119 263.958267 
L 451.795698 264.908207 
L 452.47219 265.475336 
L 452.976875 266.184247 
L 454.319122 267.219256 
L 454.941925 267.928167 
L 455.382182 268.665434 
L 456.02646 269.41688 
L 457.132472 271.614503 
L 457.862654 272.096562 
L 458.94719 272.19581 
L 460.321651 271.685394 
L 460.439769 272.295057 
L 460.987405 272.153275 
L 461.416924 271.79882 
L 462.437032 270.636206 
L 464.380606 268.77886 
L 464.906767 268.438583 
L 465.89466 267.219256 
L 469.524096 264.3269 
L 474.141426 261.434544 
L 474.667587 260.924129 
L 475.193748 260.215218 
L 477.94267 254.090229 
L 479.252703 251.438902 
L 478.887611 251.424724 
L 478.608424 251.722467 
L 478.264809 252.275417 
L 477.330605 255.238664 
L 477.062156 255.74908 
L 476.589685 257.067654 
L 476.267545 257.691495 
L 475.730647 259.080961 
L 474.96825 260.399535 
L 474.603159 260.881594 
L 473.37903 261.817356 
L 471.478408 263.022504 
L 470.093209 263.731415 
L 467.644951 265.461158 
L 467.140266 266.028286 
L 464.402082 268.424405 
L 462.973931 270.040721 
L 462.44777 270.295929 
L 460.278699 272.181632 
L 458.861286 273.755414 
L 458.238484 274.138225 
L 456.756643 275.513512 
L 456.08015 276.576879 
L 455.489562 277.158185 
L 454.566096 278.561829 
L 453.771485 279.880403 
L 453.599678 280.518422 
L 453.159421 280.943769 
L 452.354073 282.106383 
L 451.537986 282.75858 
L 451.226585 283.24064 
L 451.033302 283.850303 
L 450.077622 285.154699 
L 448.660209 287.182184 
L 445.428078 292.158737 
L 444.966345 292.569906 
L 444.751586 293.066143 
L 444.687158 293.860123 
L 444.397232 294.526499 
L 443.001295 296.709945 
L 442.561038 297.404677 
L 441.573145 298.609825 
L 440.950342 299.970934 
L 440.0054 301.147726 
L 438.437656 303.784874 
L 437.267216 305.911606 
L 432.714314 311.994061 
L 432.145202 312.575368 
L 431.468709 313.709625 
L 430.470077 315.014021 
L 429.041927 316.942258 
L 427.957391 318.884674 
L 427.141305 320.104 
L 425.884962 322.17402 
L 424.639356 323.974653 
L 424.14541 325.151445 
L 423.125302 326.427484 
L 422.856852 327.051326 
L 422.373643 327.590098 
L 421.793793 328.781068 
L 421.267632 329.348197 
L 420.934755 330.000394 
L 418.948229 332.467404 
L 418.089191 333.885226 
L 416.76842 336.139562 
L 415.404697 338.152868 
L 414.878536 338.620749 
L 414.309423 339.32966 
L 414.094664 340.251244 
L 413.547027 340.931799 
L 409.820949 347.042609 
L 408.790104 348.588035 
L 407.834424 350.048391 
L 406.513653 352.288549 
L 406.1593 352.926569 
L 404.14056 355.606252 
L 403.260046 357.024073 
L 402.508388 358.427717 
L 401.219831 360.058211 
L 400.768836 359.958964 
L 400.296365 358.909776 
L 399.319209 358.668746 
L 398.202459 357.562845 
L 397.300469 357.066608 
L 396.774309 356.995717 
L 396.570287 356.754687 
L 395.453537 356.343519 
L 394.358264 355.365222 
L 393.842841 355.010767 
L 393.305942 354.783915 
L 392.811995 354.812272 
L 391.491224 354.060826 
L 390.857684 354.259321 
L 390.707352 354.03247 
L 390.793256 354.03247 
L 390.71809 353.366094 
L 390.997277 353.649658 
L 390.997277 354.287678 
L 390.889898 353.833975 
L 391.233513 353.621301 
L 391.297941 353.167599 
L 392.264359 352.742252 
L 393.134135 353.167599 
L 394.025387 354.046648 
L 394.959591 355.180905 
L 395.560917 355.521182 
L 396.162244 356.130846 
L 397.9877 357.250925 
L 398.631978 357.704628 
L 399.018546 358.342647 
L 400.597028 359.902251 
L 401.531232 360.455201 
L 401.842633 360.511914 
L 401.950013 360.880548 
L 401.821157 361.135756 
L 400.350055 362.511043 
L 399.319209 364.552706 
L 397.558181 366.835398 
L 396.656191 367.85623 
L 396.387741 368.508428 
L 395.926008 368.976309 
L 395.593131 369.515081 
L 394.766307 370.195635 
L 394.626713 370.706051 
L 394.626713 371.244823 
L 394.422692 371.939556 
L 393.885793 372.62011 
L 393.295204 373.144704 
L 392.221407 374.931159 
L 391.630818 375.838565 
L 390.567758 377.242208 
L 388.91411 378.971951 
L 388.795992 379.978604 
L 388.430901 380.744228 
L 386.541017 383.140346 
L 385.488696 384.090287 
L 384.758513 385.465573 
L 384.071283 386.04688 
L 383.512908 386.769969 
L 382.793464 387.23785 
L 381.80557 388.428821 
L 381.322361 388.783276 
L 378.723771 391.84577 
L 374.825885 396.340265 
L 372.914526 399.31769 
L 372.366889 400.919828 
L 369.295828 405.244184 
L 366.729451 408.53353 
L 365.387204 410.75951 
L 363.755032 411.936302 
L 362.681235 412.999668 
L 362.004742 414.119747 
L 360.329618 416.31737 
L 359.159178 418.600063 
L 356.743134 422.484894 
L 355.70155 425.859309 
L 355.54048 427.773369 
L 355.54048 428.383032 
L 355.347197 428.978517 
L 352.297612 434.649803 
L 351.105696 436.251941 
L 350.590273 436.464615 
L 350.021161 436.351189 
L 349.484262 436.039268 
L 349.022529 435.996733 
L 346.73534 434.947546 
L 346.123275 434.35206 
L 345.371617 433.898358 
L 343.8683 433.444655 
L 342.773027 432.877526 
L 341.817347 432.395467 
L 340.281816 431.530596 
L 339.981153 431.119427 
L 340.024105 429.630715 
L 341.183806 427.192062 
L 344.254868 423.193805 
L 345.554163 421.775983 
L 346.445415 421.265568 
L 349.688283 418.670954 
L 350.944627 415.835311 
L 351.395622 414.998796 
L 351.975472 414.275707 
L 353.135174 413.183985 
L 353.715025 412.631034 
L 355.959262 409.611074 
L 356.786086 408.703669 
L 359.438366 405.286719 
L 361.027586 403.415194 
L 361.500057 402.124977 
L 362.455737 401.486957 
L 364.141599 398.566245 
L 364.66776 397.474522 
L 364.410049 396.085057 
L 364.356359 394.085928 
L 364.195289 393.12181 
L 363.336251 389.874998 
L 364.216765 388.542246 
L 364.710712 387.563949 
L 365.376467 386.642365 
L 366.826093 385.125296 
L 368.27572 383.750009 
L 370.799144 382.190406 
L 371.121284 381.197931 
L 371.572279 380.531554 
L 371.754824 380.021139 
L 372.710504 378.234684 
L 372.989692 376.873575 
L 373.548066 375.654248 
L 374.192345 374.803555 
L 374.739982 372.166407 
L 375.287618 371.145576 
L 376.254036 370.592625 
L 376.866101 369.926249 
L 377.757353 369.359121 
L 380.141184 366.707794 
L 380.828414 366.013062 
L 381.397527 365.275795 
L 381.977378 364.751201 
L 383.480694 364.410923 
L 383.673978 363.687834 
L 384.124973 362.936389 
L 384.67261 362.284191 
L 385.896739 361.305894 
L 386.15445 360.526092 
L 386.863157 359.98732 
L 387.21751 359.079914 
L 387.861788 357.747162 
L 388.344997 356.25845 
L 388.871158 355.152549 
L 390.234881 353.522054 
L 390.900636 352.302727 
L 392.532808 350.516272 
L 393.091183 349.438728 
L 393.875055 348.743995 
L 394.54081 347.822411 
L 395.034756 346.815758 
L 395.636083 346.050134 
L 396.108554 345.114372 
L 396.720619 344.33457 
L 397.708512 343.809976 
L 399.233305 342.562293 
L 400.597028 341.016868 
L 401.3809 340.407205 
L 403.206356 337.770057 
L 403.517757 336.976076 
L 404.215726 335.91271 
L 404.860005 334.835166 
L 406.137824 333.119602 
L 406.621033 333.091245 
L 407.233097 333.431523 
L 407.286787 333.658374 
L 406.825054 333.700909 
L 406.406273 333.28974 
L 405.386165 333.431523 
L 405.461331 333.28974 
L 405.386165 333.360632 
L 405.117716 333.459879 
L 405.09624 333.700909 
L 404.613031 334.027008 
L 404.591555 334.480711 
L 405.278786 335.728394 
L 405.182144 336.224631 
L 405.139192 336.735047 
L 404.280154 337.812591 
L 403.947277 339.428908 
L 404.419747 340.251244 
L 404.537865 340.860908 
L 404.419747 342.321264 
L 404.473437 341.442214 
L 405.010336 340.052749 
L 405.568711 339.72665 
L 407.136455 337.869304 
L 406.921696 336.70669 
L 406.771364 336.054492 
L 406.95391 335.529899 
L 407.716306 334.608315 
L 409.144457 333.474057 
L 409.649142 333.28974 
L 409.681356 332.765146 
L 409.49881 332.538295 
L 408.994125 332.524117 
L 408.457226 332.991998 
L 407.69483 333.998651 
L 407.297525 334.480711 
L 406.642509 335.643324 
L 406.352583 335.926889 
L 406.191514 336.338057 
L 406.524391 336.649978 
L 407.533761 337.273819 
L 410.755153 338.464789 
L 413.181936 338.890136 
L 413.783263 338.875957 
L 414.577873 338.975205 
L 415.222151 339.202056 
L 415.855692 339.556512 
L 417.273105 340.634056 
L 417.949597 341.016868 
L 418.142881 341.569818 
L 421.718627 343.809976 
L 422.824638 344.660669 
L 423.93065 345.270333 
L 424.897068 346.149382 
L 428.580194 348.375362 
L 429.611039 349.396193 
L 430.319746 349.764827 
L 432.778742 351.395322 
L 433.63778 351.863203 
L 439.37186 355.833103 
L 442.893916 357.931479 
L 446.748849 360.029855 
L 451.924554 362.440152 
L 459.183425 366.66526 
L 458.73243 368.40918 
L 458.335125 369.103913 
L 454.523144 377.951119 
L 453.309753 380.517376 
L 452.536618 382.204584 
L 451.774222 383.792544 
L 451.462821 385.167831 
L 451.83865 385.791672 
L 453.384918 386.117771 
L 454.415764 386.316266 
L 455.897605 387.010999 
L 458.463981 388.131078 
L 459.774014 388.740741 
L 460.386079 389.392939 
L 460.708218 390.130206 
L 460.278699 390.924186 
L 459.806228 391.462959 
L 459.161949 392.639751 
L 458.979404 393.235236 
L 458.20627 395.10676 
L 457.239852 396.595473 
L 454.813069 401.231749 
L 454.351336 402.011551 
L 452.719164 406.406798 
L 451.795698 409.32751 
L 450.614521 410.688619 
L 446.695159 416.856143 
L 444.955607 418.982875 
L 443.924761 420.202201 
L 443.344911 420.826043 
L 442.292589 422.470716 
L 441.97045 423.15127 
L 440.628203 425.292181 
L 440.134256 426.582398 
L 439.726213 427.220418 
L 438.652415 429.559824 
L 438.222896 430.169487 
L 437.063195 431.190318 
L 436.483344 431.686556 
L 435.65652 431.899229 
L 435.227001 432.182794 
L 435.237739 432.891704 
L 436.225633 434.139387 
L 438.136992 436.379545 
L 439.919496 438.095109 
L 440.370491 438.917446 
L 440.069828 439.527109 
L 439.350384 440.150951 
L 437.900757 442.206792 
L 437.19205 442.802277 
L 436.644414 443.525366 
L 436.279322 444.305168 
L 435.785376 444.985722 
L 435.001503 446.474435 
L 434.400177 447.183346 
L 433.895492 447.977326 
L 432.649887 449.253365 
L 432.016346 449.777959 
L 430.792217 452.188256 
L 429.890227 452.599424 
L 429.095616 453.124018 
L 428.687573 453.932176 
L 428.4406 454.768691 
L 427.978867 455.123146 
L 427.527872 455.761166 
L 427.356064 456.399186 
L 427.603038 457.051383 
L 428.193626 457.519265 
L 430.276794 458.738591 
L 437.890019 463.658432 
L 439.683261 465.274748 
L 440.359753 465.643382 
L 442.453659 467.132095 
L 450.700424 472.193718 
L 451.205109 472.718312 
L 451.860126 473.172015 
L 454.093625 474.221202 
L 454.684213 474.830866 
L 455.371444 475.199499 
L 456.3486 475.483064 
L 456.971402 476.248687 
L 457.604943 476.333757 
L 458.474719 476.858351 
L 459.269329 477.255341 
L 459.892132 477.964251 
L 459.967298 478.630627 
L 458.94719 480.417083 
L 458.002248 481.79237 
L 457.078782 483.167656 
L 456.584835 483.890745 
L 456.273434 484.911577 
L 454.748641 487.307695 
L 452.515142 490.200051 
L 451.5702 492.071576 
L 450.689686 493.106585 
L 450.292381 494.056526 
L 449.98098 494.453516 
L 449.615889 495.105714 
L 449.154156 495.204961 
L 448.660209 495.92805 
L 447.876337 496.8071 
L 447.049512 498.933832 
L 447.285748 499.316644 
L 448.595781 500.266584 
L 454.27617 503.258188 
L 455.006353 503.570109 
L 456.992878 504.803613 
L 457.583467 504.931217 
L 458.635789 505.923692 
L 459.323019 506.065474 
L 460.074677 506.490821 
L 460.5901 507.341514 
L 461.427662 507.880286 
L 467.226169 512.998622 
L 467.601999 513.097869 
L 468.02078 513.423968 
L 468.890556 513.920206 
L 470.307969 514.090344 
L 471.177745 514.515691 
L 472.273018 514.855968 
L 474.978988 516.344681 
L 477.298391 517.308799 
L 478.501044 518.499769 
L 478.329237 518.910938 
L 477.996359 518.457235 
L 477.352081 518.102779 
L 476.417877 518.25874 
L 475.698433 517.875928 
L 475.225962 518.003532 
L 474.624635 517.677433 
L 473.991094 517.493116 
L 472.852869 516.741671 
L 472.756227 516.557354 
L 471.950879 516.146186 
L 471.424718 516.004404 
L 470.522728 515.338027 
L 469.996567 515.23878 
L 468.257015 514.303018 
L 465.712115 513.764245 
L 465.185954 513.395612 
L 463.736327 512.573275 
L 461.54578 511.82183 
L 460.890764 511.396483 
L 460.192795 510.673394 
L 458.431767 509.83688 
L 457.476087 509.610028 
L 456.627787 508.872761 
L 454.931187 507.979534 
L 453.245325 506.81692 
L 452.354073 506.547534 
L 450.754114 505.753554 
L 449.905814 505.370742 
L 449.261536 504.732722 
L 446.856229 503.626821 
L 442.808012 500.890426 
L 442.281851 500.309119 
L 441.594621 499.997198 
L 440.402705 498.976367 
L 436.891387 496.991417 
L 436.257847 496.750387 
L 434.894124 495.729555 
L 434.110251 495.3751 
L 432.606935 494.368447 
L 431.082142 493.702071 
L 428.741263 492.128289 
L 427.903701 491.816368 
L 427.087615 491.206705 
L 424.113196 489.505319 
L 417.036869 485.336923 
L 416.371115 485.095894 
L 415.050344 484.160132 
L 414.320161 483.947458 
L 412.398064 482.628884 
L 411.775261 482.373676 
L 411.002127 481.834904 
L 410.304158 481.537162 
L 409.616928 481.012568 
L 407.58745 480.005914 
L 406.835792 479.665637 
L 405.622401 478.800766 
L 404.93517 478.559736 
L 403.97949 477.879182 
L 403.496282 477.765756 
L 400.929905 476.06437 
L 400.221199 475.880054 
L 399.52323 475.553955 
L 397.676299 474.377163 
L 395.958222 473.342153 
L 394.025387 472.278787 
L 393.509964 472.151183 
L 391.942219 471.30049 
L 391.501962 470.790074 
L 390.750304 470.407262 
L 390.213405 470.308015 
L 388.903372 469.514035 
L 387.722195 468.91855 
L 387.185296 468.379778 
L 386.175926 467.770114 
L 384.124973 466.69257 
L 383.459218 466.423184 
L 382.997485 465.926946 
L 381.665976 465.402352 
L 380.635131 464.622551 
L 379.335835 463.998709 
L 378.906316 463.51665 
L 377.531855 462.6376 
L 376.887577 462.08465 
L 375.298356 461.219779 
L 373.655446 460.000452 
L 371.808514 458.993799 
L 369.725347 457.746116 
L 368.189816 457.07974 
L 367.567014 456.597681 
L 363.787246 454.61273 
L 363.100016 454.144849 
L 362.434261 453.946354 
L 361.32825 453.180731 
L 356.517636 450.628652 
L 354.348565 449.310078 
L 353.682811 449.040692 
L 352.480157 448.10493 
L 350.976841 447.381841 
L 346.531319 444.659623 
L 345.99442 444.475306 
L 344.759552 443.738039 
L 344.061584 443.355227 
L 340.850929 441.313564 
L 339.948939 440.959109 
L 339.293923 440.377802 
L 336.856402 438.988337 
L 335.22423 438.137644 
L 333.108848 436.932496 
L 332.314238 436.152694 
L 331.584056 435.940021 
L 330.177381 435.046793 
L 329.296867 434.635625 
L 327.933144 433.572259 
L 324.153376 431.6582 
L 322.950723 430.764972 
L 321.53331 429.815032 
L 319.278335 428.496457 
L 318.494463 427.915151 
L 316.937456 427.149527 
L 315.27307 426.270478 
L 314.306652 425.9302 
L 311.160425 424.001963 
L 309.496039 423.080379 
L 308.701429 422.555785 
L 307.788701 422.172973 
L 306.875973 421.577488 
L 305.834389 421.279746 
L 303.65458 419.847746 
L 299.230534 417.74937 
L 298.532566 417.281489 
L 297.716479 416.927034 
L 296.739324 416.274836 
L 295.794382 415.892024 
L 294.827964 415.225648 
L 292.046828 413.807826 
L 291.005244 413.113094 
L 289.942185 412.673569 
L 288.965029 412.148975 
L 288.084515 411.326639 
L 287.021455 410.943827 
L 286.033561 410.291629 
L 285.292641 409.526005 
L 282.511505 408.108184 
L 281.759847 407.370916 
L 280.804167 406.973926 
L 279.827011 406.39262 
L 278.882069 405.655352 
L 278.055245 405.159115 
L 277.314325 404.577808 
L 275.274109 403.656224 
L 274.329167 403.174165 
L 273.835221 402.777175 
L 273.083562 402.479432 
L 271.633935 401.387709 
L 270.688994 400.90565 
L 269.80848 400.26763 
L 268.8528 400.012423 
L 267.821954 399.544541 
L 267.091772 398.9207 
L 265.910594 398.537888 
L 265.062294 397.772265 
L 264.063662 397.049176 
L 262.173779 396.226839 
L 260.928173 395.999988 
L 258.941648 395.035869 
L 257.545711 393.944146 
L 256.622245 393.632226 
L 256.096084 392.568859 
L 253.980703 391.377889 
L 251.629086 390.34288 
L 250.437171 389.378761 
L 249.084186 389.208622 
L 248.364741 388.754919 
L 246.378216 387.776623 
L 243.54339 384.955158 
L 243.253465 384.45892 
L 243.156823 384.388029 
L 243.178299 383.948504 
L 243.124609 383.083633 
L 244.058813 381.169574 
L 244.176931 381.467317 
L 243.983647 381.538208 
L 243.919219 381.04197 
L 244.971541 379.652505 
L 245.529916 378.02201 
L 245.529916 377.582486 
L 245.23999 376.788506 
L 244.488332 376.03706 
L 243.360844 375.285615 
L 242.662876 374.264783 
L 241.943432 373.839437 
L 240.644137 372.605932 
L 239.215986 371.882843 
L 238.668349 371.159754 
L 238.260306 370.365774 
L 238.356948 369.84118 
L 238.271044 370.039675 
L 237.863001 370.493378 
L 237.863001 370.493378 
L 237.755621 370.450843 
L 237.777097 370.408309 
L 237.626765 370.606804 
L 236.660347 370.323239 
L 235.983855 370.422487 
L 235.715406 370.904546 
L 235.124817 372.804427 
L 234.706036 373.428269 
L 234.040281 373.867793 
L 233.51412 374.973694 
L 231.87121 376.065417 
L 230.496749 375.200545 
L 226.534436 373.229774 
L 225.675398 372.648467 
L 225.235141 371.953734 
L 224.161343 371.528388 
L 221.84194 371.159754 
L 219.952057 370.209814 
L 217.310515 368.465893 
L 216.440738 368.01219 
L 215.495797 367.359992 
L 214.851518 367.118963 
L 211.297248 364.907161 
L 209.439578 364.651953 
L 208.344305 363.914686 
L 206.271875 362.950567 
L 205.434313 362.298369 
L 204.553799 361.958092 
L 203.705499 361.362607 
L 201.096171 360.100746 
L 200.269347 359.845538 
L 198.733816 358.853063 
L 197.992896 358.200865 
L 196.446627 357.307638 
L 193.998369 356.187558 
L 190.465574 354.911519 
L 189.520633 354.330212 
L 188.84414 353.692193 
L 188.414621 352.926569 
L 187.813294 352.118411 
L 186.288502 351.211005 
L 184.817399 350.289421 
L 184.17312 350.062569 
L 183.303344 349.892431 
L 182.014787 349.155164 
L 177.805501 346.985897 
L 176.839083 346.886649 
L 175.024365 346.362055 
L 172.87677 346.305342 
L 170.729174 343.611481 
L 169.623163 343.030175 
L 168.903718 342.363798 
L 166.691695 340.974333 
L 164.919929 340.350492 
L 162.836762 339.131165 
L 161.741488 337.656631 
L 160.667691 337.302175 
L 159.894557 336.735047 
L 159.261016 336.564908 
L 158.605999 336.011958 
L 158.326812 336.026136 
L 158.33755 335.841819 
L 158.39124 336.111205 
L 158.584523 336.508195 
L 157.929507 337.117859 
L 157.843603 337.543205 
L 156.050361 337.670809 
L 155.148371 337.557383 
L 153.569889 336.323879 
L 152.861182 335.373938 
L 151.518935 333.800156 
L 149.360602 331.801028 
L 148.694848 331.70178 
L 148.007617 331.375681 
L 147.137841 331.588355 
L 145.741904 331.673424 
L 144.163422 330.9078 
L 142.756747 329.745187 
L 139.191739 327.462494 
L 137.91392 327.136395 
L 136.410603 326.455841 
L 134.960976 325.987959 
L 132.738215 325.945425 
L 131.159733 326.526732 
L 130.451026 326.484197 
L 129.68863 326.838652 
L 129.259111 327.547563 
L 128.217527 328.454969 
L 127.626938 328.68182 
L 126.864542 328.540038 
L 125.103514 327.505029 
L 123.943813 326.512553 
L 122.891491 325.817821 
L 119.487553 324.102257 
L 118.574825 323.506772 
L 116.427229 322.599366 
L 115.482288 322.074772 
L 114.526608 321.734495 
L 111.981707 319.976396 
L 110.274369 319.111525 
L 109.383117 318.870495 
L 107.514709 317.495208 
L 105.581874 316.488555 
L 103.74568 315.722931 
L 103.090663 315.169981 
L 101.683988 314.503605 
L 100.255837 313.440239 
L 99.81558 313.426061 
L 98.806211 312.986536 
L 98.033076 312.334338 
L 97.034445 311.880635 
L 96.26131 311.200081 
L 95.35932 310.944873 
L 94.553972 310.420279 
L 93.759362 310.080002 
L 92.739254 309.796437 
L 91.053392 308.860675 
L 90.172878 308.492042 
L 88.669561 307.457032 
L 87.842737 307.343606 
L 87.187721 307.031685 
L 86.50049 306.407844 
L 83.880424 305.075092 
L 81.947588 304.522141 
L 80.422796 303.444597 
L 79.477854 303.316993 
L 78.640292 303.005072 
L 77.813468 302.267805 
L 77.008119 301.757389 
L 76.213509 301.417112 
L 74.882 300.63731 
L 74.14108 300.339568 
L 73.271304 299.857508 
L 72.498169 299.176954 
L 70.039173 297.844202 
L 69.180135 297.70242 
L 68.890209 297.078578 
L 68.063385 296.525628 
L 67.139919 296.256242 
L 66.334571 295.660757 
L 65.529223 295.306301 
L 63.188344 293.718341 
L 61.24477 292.669153 
L 57.658286 290.698381 
L 56.852938 290.003649 
L 56.069066 289.564124 
L 54.383204 289.252203 
L 52.879887 288.40151 
L 51.247715 287.536639 
L 50.539008 287.139649 
L 49.830302 286.529986 
L 49.057168 286.615055 
L 48.369937 285.962857 
L 45.867989 284.516679 
L 45.062641 284.048798 
L 44.686811 283.453313 
L 44.665335 282.418303 
L 43.817035 279.937116 
L 43.774083 278.958819 
L 43.430468 277.980522 
L 42.947259 277.115651 
L 42.249291 276.194067 
L 41.336563 275.655294 
L 40.337931 275.329196 
L 38.501737 274.379255 
L 37.835983 273.755414 
L 37.524581 273.046503 
L 37.460153 268.424405 
L 37.739341 267.361038 
L 38.050742 266.765553 
L 38.340667 266.524524 
L 40.337931 265.631296 
L 41.229183 264.752247 
L 41.411729 264.72389 
L 41.293611 264.284366 
L 40.885568 264.128405 
L 40.499001 261.377831 
L 40.885568 258.925 
L 40.98221 257.776565 
L 40.584904 256.486347 
L 40.445311 255.380446 
L 40.531215 254.529753 
L 40.262765 253.76413 
L 40.638594 254.175298 
L 40.756712 254.501397 
L 40.252027 253.948447 
L 39.736604 252.828368 
L 39.392989 251.212051 
L 37.1058 247.142903 
L 36.568901 246.022824 
L 36.923255 245.49823 
L 37.395726 244.505755 
L 37.309822 243.442389 
L 37.911148 242.194706 
L 37.030634 238.806112 
L 36.493736 237.331578 
L 36.901779 235.786153 
L 36.805137 233.985519 
L 36.805137 230.710351 
L 36.590377 228.073203 
L 36.676281 224.585362 
L 36.407832 223.40857 
L 36.343404 222.06164 
L 36.182334 221.182591 
L 36.31119 218.843185 
L 36.085693 217.765641 
L 36.579639 216.8157 
L 36.493736 215.993364 
L 36.772923 215.497126 
L 37.009158 215.369522 
L 37.470891 215.284453 
L 37.599747 214.688968 
L 37.438677 213.653958 
L 37.760817 212.023463 
L 37.492367 207.713286 
L 37.631961 207.04691 
L 37.653437 203.686673 
L 37.513843 203.247148 
L 37.062848 203.020297 
L 35.935361 202.977762 
L 35.398462 202.75091 
L 34.61459 202.623306 
L 34.528686 202.495703 
L 34.024001 202.042 
L 33.626696 200.978634 
L 33.401198 200.142119 
L 33.261605 198.213881 
L 32.563636 197.292297 
L 32.896514 196.15804 
L 33.046845 194.17309 
L 32.960941 193.265684 
L 33.240129 192.202318 
L 33.390461 190.146477 
L 33.809242 186.474319 
L 34.646804 181.767152 
L 34.732708 180.788855 
L 34.61459 178.066637 
L 34.496472 176.889845 
L 34.539424 173.75646 
L 34.904515 173.35947 
L 34.442782 171.034242 
L 34.904515 169.744025 
L 34.754183 168.638124 
L 35.258868 167.333728 
L 35.473628 166.355431 
L 35.430676 165.107748 
L 35.817243 163.718283 
L 35.946099 162.725808 
L 35.860195 160.287155 
L 35.398462 158.202957 
L 35.817243 156.884383 
L 35.989051 154.44573 
L 35.752815 153.509968 
L 35.838719 152.758523 
L 35.387724 151.978721 
L 35.548794 150.036305 
L 35.666911 148.604305 
L 35.913885 147.61183 
L 35.935361 146.534286 
L 36.31119 145.314959 
L 36.708495 143.287475 
L 36.246762 138.594485 
L 37.975576 135.673773 
L 38.093694 134.58205 
L 38.437309 133.589575 
L 40.02653 131.122566 
L 40.466787 129.080903 
L 40.971472 128.343636 
L 41.433205 127.181022 
L 42.227815 126.259438 
L 43.398254 124.57223 
L 44.794191 121.268706 
L 45.771347 119.921776 
L 46.447839 118.886766 
L 46.974 117.8234 
L 47.650493 116.930172 
L 48.047798 115.980232 
L 49.164547 114.448984 
L 49.465211 113.655004 
L 51.194025 111.131282 
L 52.589962 109.755995 
L 53.663759 108.196391 
L 54.08254 107.260629 
L 54.007375 106.310689 
L 54.45837 105.601778 
L 54.780509 104.850332 
L 55.628809 104.410808 
L 57.239505 102.128115 
L 58.549538 100.483442 
L 60.353518 97.307522 
L 60.772299 96.471007 
L 61.287722 95.691205 
L 61.56691 94.585304 
L 61.985691 93.521938 
L 62.511852 92.742136 
L 63.907788 91.182533 
L 64.85273 89.45279 
L 65.690293 87.992434 
L 66.237929 86.106732 
L 67.408369 84.277742 
L 67.77346 83.157663 
L 69.319728 80.449624 
L 71.617655 77.004317 
L 71.961271 75.997664 
L 72.530383 75.005189 
L 72.906212 74.111961 
L 75.225615 70.652477 
L 75.612182 69.759249 
L 76.890002 68.284715 
L 78.565126 64.073785 
L 79.896635 62.400755 
L 80.379844 61.479171 
L 80.948957 60.713548 
L 81.185192 60.203132 
L 81.689877 59.650181 
L 82.763674 57.452558 
L 83.515333 55.410895 
L 84.202563 54.446776 
L 85.448168 52.249153 
L 86.919271 50.292559 
L 88.036021 48.052401 
L 88.615871 47.017391 
L 89.04539 45.868956 
L 91.482911 41.686382 
L 92.696302 39.644719 
L 93.007704 38.482106 
L 93.512389 37.390383 
L 95.434486 34.79577 
L 95.756626 33.902542 
L 96.733781 32.399651 
L 97.37806 31.818344 
L 98.96728 32.357117 
L 99.536393 32.470542 
L 100.309527 32.995136 
L 100.567239 32.81082 
L 101.372587 33.321235 
L 101.479967 33.108562 
L 101.845058 33.264522 
L 102.360481 33.590621 
L 102.328267 33.151097 
L 102.747048 32.711572 
L 102.671882 32.782463 
L 102.79 32.824998 
L 102.918856 32.754107 
L 102.994021 32.910067 
L 103.026235 32.881711 
L 103.112139 32.626503 
L 103.155091 32.654859 
L 103.198043 32.555612 
L 103.240995 32.555612 
L 103.369851 32.442186 
L 103.326899 32.399651 
" clip-path="url(#p385cfea409)" style="fill: none; stroke: #000000; stroke-width: 3"/>
   </g>
  </g>
 </g>
 <defs>
  <clipPath id="p385cfea409">
   <rect x="7.2" y="7.2" width="558" height="541.603578"/>
  </clipPath>
 </defs>
</svg>
