<?xml version="1.0" encoding="utf-8" standalone="no"?>
<!DOCTYPE svg PUBLIC "-//W3C//DTD SVG 1.1//EN"
  "http://www.w3.org/Graphics/SVG/1.1/DTD/svg11.dtd">
<svg xmlns:xlink="http://www.w3.org/1999/xlink" width="254.967286pt" height="568.8pt" viewBox="0 0 254.967286 568.8" xmlns="http://www.w3.org/2000/svg" version="1.1">
 <metadata>
  <rdf:RDF xmlns:dc="http://purl.org/dc/elements/1.1/" xmlns:cc="http://creativecommons.org/ns#" xmlns:rdf="http://www.w3.org/1999/02/22-rdf-syntax-ns#">
   <cc:Work>
    <dc:type rdf:resource="http://purl.org/dc/dcmitype/StillImage"/>
    <dc:date>2023-04-29T05:02:58.099205</dc:date>
    <dc:format>image/svg+xml</dc:format>
    <dc:creator>
     <cc:Agent>
      <dc:title>Matplotlib v3.7.1, https://matplotlib.org/</dc:title>
     </cc:Agent>
    </dc:creator>
   </cc:Work>
  </rdf:RDF>
 </metadata>
 <defs>
  <style type="text/css">*{stroke-linejoin: round; stroke-linecap: butt}</style>
 </defs>
 <g id="figure_1">
  <g id="patch_1">
   <path d="M -0 568.8 
L 254.967286 568.8 
L 254.967286 0 
L -0 0 
z
" style="fill: #ffffff"/>
  </g>
  <g id="axes_1">
   <g id="LineCollection_1">
    <path d="M 121.455218 32.53353 
L 121.443982 32.4 
L 121.758606 32.474183 
L 122.635059 32.785752 
L 124.17447 33.58693 
L 126.567862 34.951899 
L 128.185929 35.842096 
L 130.107384 37.058699 
L 135.849276 40.293082 
L 138.75955 42.325699 
L 140.815843 43.15655 
L 141.737243 43.260406 
L 142.771008 41.628378 
L 144.681227 39.625434 
L 145.13069 38.957786 
L 145.434077 37.993406 
L 145.894777 36.940006 
L 146.445369 34.892552 
L 147.175747 34.239741 
L 148.366824 34.224904 
L 153.580597 36.865823 
L 154.816621 37.310921 
L 159.816898 38.557198 
L 162.446258 39.684781 
L 163.715991 40.322755 
L 166.300404 41.939947 
L 168.289279 43.453282 
L 169.424173 44.239623 
L 175.593055 49.462114 
L 176.683003 50.055578 
L 178.907845 51.657933 
L 179.64946 51.8063 
L 184.009252 53.705387 
L 190.68378 56.168266 
L 197.751588 58.942714 
L 200.807937 60.263173 
L 203.85305 61.821019 
L 206.695905 63.631086 
L 208.538704 65.010892 
L 209.358974 65.826906 
L 210.75231 67.815013 
L 211.314139 69.001943 
L 211.763602 70.307565 
L 212.685001 74.19476 
L 213.179411 76.687312 
L 214.258122 80.440977 
L 216.954901 85.055166 
L 217.707752 86.108566 
L 218.572968 87.087783 
L 221.842813 89.906741 
L 227.135241 95.900736 
L 228.483631 98.096556 
L 230.517452 101.241919 
L 234.821061 106.657286 
L 236.259343 108.126111 
L 236.742516 109.075655 
L 236.832409 110.173565 
L 236.73128 111.419841 
L 236.450365 112.606771 
L 235.888536 113.645334 
L 234.472727 115.648278 
L 233.326596 117.799588 
L 232.270358 120.039918 
L 231.157937 122.206064 
L 230.618581 123.259464 
L 228.61847 126.226788 
L 227.719544 127.206005 
L 226.461047 129.431498 
L 224.955345 132.28013 
L 223.326041 135.840918 
L 222.033835 138.051575 
L 219.247163 144.00106 
L 218.112269 146.093023 
L 217.595386 147.220606 
L 216.438019 149.371916 
L 214.303069 153.748719 
L 212.920969 157.116632 
L 212.280484 158.140359 
L 211.370321 159.030556 
L 208.864564 162.962261 
L 204.190148 171.374625 
L 203.122673 173.614954 
L 201.942832 175.795938 
L 200.43713 179.34189 
L 199.875301 180.52882 
L 197.223469 185.039152 
L 196.616694 186.226082 
L 195.908789 187.323992 
L 191.683836 195.780865 
L 189.773617 199.282308 
L 185.155383 207.650162 
L 184.694684 208.837092 
L 183.076616 211.641213 
L 182.469841 212.561083 
L 181.503495 214.564027 
L 180.8293 215.409714 
L 180.065213 216.166382 
L 176.975154 220.810244 
L 176.334669 221.700442 
L 175.829023 222.649985 
L 175.267194 223.37698 
L 174.401977 225.498616 
L 170.356809 232.234442 
L 168.615139 236.1068 
L 168.289279 237.33824 
L 167.311696 239.370857 
L 166.244221 241.269944 
L 165.480134 242.071122 
L 164.468842 243.70315 
L 161.333836 249.667471 
L 159.243833 253.984928 
L 155.31103 261.447748 
L 154.85033 262.664351 
L 154.243555 263.777097 
L 153.367102 264.934354 
L 152.086132 267.530762 
L 150.333226 271.432794 
L 148.805051 273.762143 
L 147.299349 276.165676 
L 145.546443 278.272476 
L 144.894722 279.548425 
L 144.153107 280.750191 
L 143.186762 281.773918 
L 142.332782 282.842155 
L 141.624877 284.088431 
L 139.928154 286.55131 
L 139.231486 287.945952 
L 137.613419 290.542361 
L 136.141427 293.198116 
L 128.927543 307.604475 
L 127.489261 309.948661 
L 126.545388 312.36703 
L 125.500387 314.711216 
L 124.590224 316.936709 
L 123.365437 318.895143 
L 121.556347 321.93665 
L 119.994463 324.992994 
L 119.601183 325.927701 
L 118.544944 327.262997 
L 118.050535 327.782278 
L 117.207792 329.39947 
L 116.16279 331.59529 
L 114.926766 332.930586 
L 114.275044 333.494377 
L 113.151387 334.132352 
L 112.207514 335.007713 
L 111.409717 336.328172 
L 111.184985 336.966147 
L 111.03891 337.752487 
L 110.061327 339.592228 
L 108.735411 341.550662 
L 107.016215 344.428967 
L 106.533042 346.417074 
L 105.791427 347.084722 
L 105.443094 347.648513 
L 104.128414 351.936297 
L 102.319325 357.23297 
L 102.229432 358.048984 
L 101.67884 358.894672 
L 100.161902 360.452517 
L 98.049425 362.618664 
L 97.34152 362.72252 
L 96.566196 363.301148 
L 95.453775 363.894613 
L 94.903183 365.111216 
L 95.105441 366.387165 
L 94.914419 367.084486 
L 94.45372 367.559258 
L 94.217751 368.197233 
L 93.948073 368.716515 
L 93.127803 370.689785 
L 92.004145 372.841095 
L 90.801831 375.111098 
L 89.116345 378.375155 
L 87.880321 380.437445 
L 87.12747 381.446335 
L 86.048759 383.716338 
L 85.262198 387.48484 
L 84.588003 389.50262 
L 84.352035 390.526347 
L 83.464346 392.262231 
L 83.239614 393.89426 
L 83.048592 395.348248 
L 82.599129 396.698381 
L 81.733912 398.078187 
L 78.789929 401.416426 
L 78.048315 402.900088 
L 77.722454 404.265057 
L 76.756108 405.733883 
L 75.767289 406.386694 
L 72.901961 407.514277 
L 72.081691 408.597351 
L 71.160292 411.030556 
L 70.755775 412.380689 
L 70.272602 413.463762 
L 69.946741 414.517162 
L 69.508515 415.540889 
L 68.710718 417.766382 
L 67.620769 419.932529 
L 66.676897 420.956256 
L 66.261143 422.276715 
L 64.721732 425.614954 
L 63.957645 426.772211 
L 61.328285 429.976921 
L 60.710274 431.015484 
L 60.092262 433.003591 
L 59.687745 433.908625 
L 59.092206 435.778039 
L 58.22699 437.691963 
L 57.586505 438.656344 
L 57.013439 439.724581 
L 54.77736 445.332823 
L 54.339133 445.852105 
L 53.822251 446.757139 
L 52.934561 447.662173 
L 51.923269 448.32982 
L 50.990633 449.56126 
L 50.08047 451.564204 
L 48.788263 453.285252 
L 47.866864 455.110156 
L 47.428637 456.044863 
L 46.821862 456.89055 
L 45.170085 460.124934 
L 44.49589 461.37121 
L 43.765513 462.068531 
L 43.203684 462.810362 
L 42.113736 465.184221 
L 41.619326 465.851869 
L 40.506905 467.884486 
L 40.270937 468.774684 
L 39.83271 469.590698 
L 37.66405 472.691551 
L 37.079748 474.649985 
L 36.349371 476.267177 
L 34.439152 479.946659 
L 32.933451 483.71516 
L 31.877212 485.317515 
L 30.753555 486.786341 
L 29.843392 487.394642 
L 29.180434 488.700265 
L 28.854573 489.427259 
L 26.944354 492.557786 
L 25.607201 494.857462 
L 25.157738 495.539947 
L 24.674565 497.409361 
L 24.191393 499.115573 
L 21.921604 502.928584 
L 21.415958 503.536885 
L 20.472085 503.551722 
L 19.752944 504.041331 
L 19.40461 504.768325 
L 18.55063 505.940418 
L 18.19106 506.919635 
L 18.134877 507.438917 
L 18.393318 508.091728 
L 18.887727 508.789049 
L 20.393429 509.723756 
L 24.281285 511.251928 
L 25.517309 511.608007 
L 28.528712 513.863173 
L 31.045706 516.266706 
L 32.337912 517.156903 
L 35.641466 518.432853 
L 36.922436 520.020371 
L 37.66405 520.791875 
L 40.372066 522.809656 
L 42.214865 523.744363 
L 43.068845 523.818546 
L 43.810459 525.035149 
L 44.900407 525.940183 
L 47.406164 526.919399 
L 49.001758 527.305152 
L 49.080415 527.498028 
L 49.125361 527.230969 
L 49.29391 527.067766 
L 49.597297 527.052929 
L 49.990577 527.468354 
L 50.990633 528.284369 
L 51.496279 528.952016 
L 52.361496 529.723521 
L 55.799889 531.637445 
L 59.328174 534.20418 
L 60.72151 535.272417 
L 62.980062 536.385163 
L 63.328396 536.4 
L 63.631784 536.26647 
L 63.665494 535.969738 
L 63.35087 535.005358 
L 63.508182 534.575096 
L 63.508182 534.575096 
" clip-path="url(#p7d698e3ad2)" style="fill: none; stroke: #000000; stroke-width: 3"/>
   </g>
  </g>
 </g>
 <defs>
  <clipPath id="p7d698e3ad2">
   <rect x="7.2" y="7.2" width="240.567286" height="554.4"/>
  </clipPath>
 </defs>
</svg>
