<?xml version="1.0" encoding="utf-8" standalone="no"?>
<!DOCTYPE svg PUBLIC "-//W3C//DTD SVG 1.1//EN"
  "http://www.w3.org/Graphics/SVG/1.1/DTD/svg11.dtd">
<svg xmlns:xlink="http://www.w3.org/1999/xlink" width="309.836455pt" height="568.8pt" viewBox="0 0 309.836455 568.8" xmlns="http://www.w3.org/2000/svg" version="1.1">
 <metadata>
  <rdf:RDF xmlns:dc="http://purl.org/dc/elements/1.1/" xmlns:cc="http://creativecommons.org/ns#" xmlns:rdf="http://www.w3.org/1999/02/22-rdf-syntax-ns#">
   <cc:Work>
    <dc:type rdf:resource="http://purl.org/dc/dcmitype/StillImage"/>
    <dc:date>2023-05-07T05:03:08.146208</dc:date>
    <dc:format>image/svg+xml</dc:format>
    <dc:creator>
     <cc:Agent>
      <dc:title>Matplotlib v3.7.1, https://matplotlib.org/</dc:title>
     </cc:Agent>
    </dc:creator>
   </cc:Work>
  </rdf:RDF>
 </metadata>
 <defs>
  <style type="text/css">*{stroke-linejoin: round; stroke-linecap: butt}</style>
 </defs>
 <g id="figure_1">
  <g id="patch_1">
   <path d="M 0 568.8 
L 309.836455 568.8 
L 309.836455 0 
L 0 0 
z
" style="fill: #ffffff"/>
  </g>
  <g id="axes_1">
   <g id="LineCollection_1">
    <path d="M 243.813361 35.10166 
L 245.359117 36.062528 
L 246.096541 37.098268 
L 246.734697 37.553744 
L 248.138641 38.265036 
L 248.360813 38.589485 
L 249.084057 38.626921 
L 249.339319 38.53333 
L 249.816755 38.308712 
L 249.906569 38.333669 
L 250.228011 38.059136 
L 250.771625 37.18562 
L 251.717041 35.301321 
L 252.047937 35.132857 
L 252.879903 35.132857 
L 253.749686 35.488503 
L 255.980869 36.805016 
L 258.226233 37.578702 
L 259.280372 38.109051 
L 261.303563 39.444282 
L 262.140256 40.118138 
L 264.53216 42.145943 
L 264.981232 42.551504 
L 266.408811 43.231598 
L 269.755585 44.360929 
L 272.875459 45.465303 
L 274.756837 46.201552 
L 276.562582 47.143702 
L 277.394549 47.736445 
L 278.127246 48.491412 
L 278.661407 49.315013 
L 279.105752 50.438105 
L 279.41774 52.122743 
L 279.810087 54.33773 
L 280.750777 56.540238 
L 281.469293 57.45119 
L 283.085955 58.730267 
L 284.716798 60.040541 
L 285.113873 60.446102 
L 288.125024 65.100695 
L 289.056259 66.304899 
L 289.207526 66.984993 
L 289.108257 67.739961 
L 288.328288 69.536908 
L 282.679426 80.262436 
L 281.89473 81.928356 
L 280.415154 85.122929 
L 279.961354 86.052599 
L 279.313744 87.369112 
L 278.746494 88.211431 
L 277.791623 89.484269 
L 275.31936 93.702103 
L 274.615025 95.261953 
L 273.352894 97.420786 
L 272.554017 98.837129 
L 271.750413 100.372022 
L 270.067572 102.874021 
L 267.288048 108.28982 
L 266.399357 109.512742 
L 265.193951 111.503111 
L 264.15872 113.162791 
L 261.019938 118.491239 
L 259.511999 122.091373 
L 258.301866 124.19405 
L 257.606985 125.566718 
L 256.330673 127.918972 
L 254.888913 130.190114 
L 253.683507 131.768682 
L 249.868752 138.900316 
L 249.065149 140.385293 
L 245.983091 145.963316 
L 242.329057 153.537948 
L 241.378914 155.378571 
L 240.806937 156.801154 
L 240.537493 157.755782 
L 238.868834 160.488639 
L 238.041594 161.692843 
L 237.625611 162.503965 
L 236.751101 163.832957 
L 235.48897 166.110338 
L 234.411196 167.932243 
L 233.872308 169.392263 
L 231.882207 173.129663 
L 231.272413 173.491548 
L 230.326997 174.439937 
L 229.745566 175.350889 
L 229.18777 176.392869 
L 228.677246 177.353737 
L 228.270717 178.270929 
L 227.504929 179.381542 
L 226.559513 180.673098 
L 225.599915 182.782015 
L 225.500647 183.437152 
L 225.169751 184.38554 
L 224.871945 185.396323 
L 224.484324 186.644203 
L 223.822533 187.92328 
L 223.278918 188.946542 
L 222.867662 189.876212 
L 222.456406 190.849559 
L 221.997879 191.829144 
L 221.326634 192.964715 
L 220.10232 195.248336 
L 220.073957 195.61646 
L 220.021959 195.61646 
L 219.780878 195.610221 
L 219.024545 196.608525 
L 218.556564 197.600589 
L 217.83332 198.804793 
L 217.33225 199.584718 
L 216.930448 200.171222 
L 216.73191 200.539347 
L 216.339563 200.882514 
L 215.294878 201.400384 
L 214.940346 202.055521 
L 214.812715 202.941516 
L 214.179286 203.927341 
L 213.422953 205.318727 
L 212.988062 206.32327 
L 212.619349 206.760028 
L 211.881925 207.689699 
L 211.437579 208.644327 
L 210.983779 209.723743 
L 209.5562 212.313094 
L 208.643874 214.858769 
L 206.289787 218.065821 
L 205.835987 219.21387 
L 205.83126 220.898508 
L 206.247243 222.764089 
L 205.921075 223.724956 
L 205.027656 224.579754 
L 204.205144 225.97114 
L 203.585896 226.738586 
L 203.472446 227.21902 
L 202.90047 227.555948 
L 200.938731 230.538381 
L 200.55111 231.948485 
L 199.832594 232.372765 
L 199.019536 233.221323 
L 197.695953 234.987073 
L 196.991618 235.798195 
L 195.256779 237.857197 
L 194.689529 238.630883 
L 194.557171 239.117556 
L 194.594987 240.159536 
L 194.457902 240.639969 
L 193.989921 241.525964 
L 193.621208 242.848717 
L 193.578665 244.296258 
L 191.962003 246.586117 
L 190.879501 248.545289 
L 189.721366 250.760276 
L 189.239204 251.221991 
L 189.31011 250.910021 
L 189.622097 250.454545 
L 189.863178 250.566854 
L 190.222437 250.7166 
L 189.362108 250.959937 
L 188.32215 251.521483 
L 187.64145 252.164141 
L 186.946569 253.555527 
L 186.213871 255.202728 
L 185.807342 256.101202 
L 184.464851 257.611137 
L 184.148137 258.584483 
L 183.604522 260.880582 
L 183.448529 261.304862 
L 183.127087 261.716662 
L 182.649652 262.097265 
L 181.855502 262.409235 
L 181.250436 263.207878 
L 180.016667 266.190312 
L 179.085432 267.918625 
L 178.612724 269.079154 
L 178.116381 270.376949 
L 177.341139 272.042869 
L 175.544848 275.231202 
L 175.062686 275.817706 
L 174.53798 276.597631 
L 173.928186 276.940798 
L 173.313666 276.535237 
L 172.992224 276.273182 
L 172.566787 275.318554 
L 171.437014 274.532389 
L 169.489457 273.727507 
L 167.986245 273.059891 
L 166.969922 272.454669 
L 166.327039 272.074066 
L 164.724558 271.531238 
L 163.840594 270.869861 
L 162.441378 270.302076 
L 160.52691 269.160266 
L 159.817848 268.692311 
L 159.4255 268.580002 
L 158.617169 268.629917 
L 158.092463 268.18068 
L 156.749972 266.758097 
L 151.706176 262.615135 
L 151.276011 262.665051 
L 150.803303 262.833514 
L 149.994972 262.552741 
L 148.931379 261.891365 
L 148.458671 261.367256 
L 148.113594 261.410931 
L 147.239084 260.955455 
L 146.723832 260.543655 
L 146.118765 260.768273 
L 145.872957 260.911779 
L 145.352978 262.390517 
L 144.771547 263.576003 
L 143.963216 264.767728 
L 143.939581 265.104656 
L 143.258881 266.190312 
L 142.3371 267.076306 
L 141.812394 267.45691 
L 141.609129 268.055892 
L 141.490952 268.417777 
L 141.022971 268.916929 
L 140.800798 269.927712 
L 140.139007 271.868165 
L 139.581211 272.417233 
L 138.739791 273.69631 
L 138.564889 274.432559 
L 138.470347 275.618045 
L 138.257629 276.248224 
L 137.676198 276.516518 
L 137.269668 276.884643 
L 136.915137 276.996952 
L 136.565333 277.43371 
L 136.319525 278.188677 
L 136.248619 278.625435 
L 135.567919 279.810921 
L 134.948671 280.821704 
L 134.70759 281.620347 
L 133.804718 283.15524 
L 133.057839 284.633977 
L 132.556768 285.582366 
L 131.842979 286.873922 
L 131.478994 287.859747 
L 130.22159 289.39464 
L 129.715792 290.037298 
L 127.735145 293.23187 
L 126.841726 294.928987 
L 125.792314 296.557471 
L 124.378917 299.184258 
L 120.223812 306.840001 
L 118.498427 309.379437 
L 117.614463 311.195103 
L 112.825929 320.217275 
L 112.126321 321.552506 
L 111.648886 322.03294 
L 111.492892 322.220122 
L 110.935097 322.925174 
L 110.637291 323.648945 
L 110.145674 324.297842 
L 108.3872 327.598485 
L 107.162886 330.412454 
L 106.63818 331.217337 
L 105.910209 332.00974 
L 105.385503 333.107875 
L 104.676441 334.230967 
L 103.910654 335.266707 
L 103.281952 336.420996 
L 102.648523 338.211704 
L 101.731469 339.933778 
L 101.225671 340.807294 
L 99.401018 344.650764 
L 97.098929 350.297421 
L 96.474954 351.670089 
L 95.118282 355.039365 
L 92.844556 360.074561 
L 91.681693 362.433054 
L 91.081354 363.768286 
L 90.42429 365.315657 
L 88.514549 369.433661 
L 83.229672 381.201169 
L 82.057355 384.327108 
L 81.967541 386.036704 
L 82.024266 386.779192 
L 81.688643 388.900588 
L 81.490106 389.493331 
L 81.007943 392.769016 
L 81.050487 393.567659 
L 80.979581 394.840497 
L 80.927583 396.300516 
L 80.970127 398.571658 
L 80.847222 399.307907 
L 80.502145 400.980066 
L 80.5116 401.722555 
L 80.44542 402.0782 
L 80.095616 402.889322 
L 79.537821 404.555242 
L 79.689087 404.823536 
L 79.63709 404.848494 
L 79.320375 406.058938 
L 79.173836 406.189965 
L 78.412775 406.327232 
L 77.037195 406.046459 
L 75.770337 406.55809 
L 74.371121 406.533132 
L 74.205673 406.564329 
L 74.09695 406.788947 
L 73.368979 407.244424 
L 73.316981 407.369212 
L 72.971904 407.338015 
L 72.503923 407.051002 
L 71.903584 406.608005 
L 71.487601 406.526893 
L 70.79272 406.526893 
L 70.395645 406.620484 
L 69.213875 406.458259 
L 67.167048 405.965347 
L 66.448532 405.809362 
L 65.67329 405.553546 
L 63.664281 405.229097 
L 59.679351 404.324384 
L 58.629939 404.074808 
L 57.54271 404.05609 
L 55.996954 403.706684 
L 55.198078 403.831472 
L 55.084628 404.087287 
L 55.202805 404.430454 
L 55.883504 405.104309 
L 56.356213 405.347646 
L 56.644565 405.297731 
L 57.731793 405.328928 
L 58.989197 405.322688 
L 62.179977 405.378843 
L 64.236258 405.391322 
L 65.616565 405.628419 
L 67.60194 405.921671 
L 68.348819 406.333471 
L 69.908756 406.589287 
L 70.159291 406.857581 
L 70.329466 407.893321 
L 70.315285 408.361276 
L 70.390918 406.402105 
L 69.696037 406.24612 
L 66.940148 405.915431 
L 66.61398 405.566025 
L 66.595071 405.51611 
L 66.722703 405.909192 
L 67.096142 406.464499 
L 67.096142 407.537675 
L 66.982692 409.378298 
L 67.096142 412.416886 
L 66.80779 414.120242 
L 66.595071 414.288706 
L 66.335082 414.881449 
L 66.027822 414.7629 
L 65.158039 414.095285 
L 63.030852 412.410647 
L 59.806982 409.646592 
L 58.478672 408.517261 
L 56.833648 407.07596 
L 55.202805 406.165007 
L 54.630828 406.158768 
L 54.233753 406.427062 
L 53.983218 408.548458 
L 54.077759 409.122483 
L 54.517378 409.840014 
L 54.749005 410.070872 
L 55.500611 410.432757 
L 57.471804 410.676093 
L 59.788074 411.056697 
L 60.497136 411.349949 
L 60.99348 411.64944 
L 61.499277 411.830382 
L 62.203613 412.597829 
L 62.681048 413.408951 
L 62.926856 413.552457 
L 62.941037 413.51502 
L 63.021398 413.483823 
L 63.130121 412.928517 
L 62.733046 411.524652 
L 62.567598 411.480976 
L 62.458875 411.699355 
L 62.430512 411.930213 
L 63.040306 414.220073 
L 63.328658 414.269988 
L 63.35702 414.151439 
L 63.513014 414.163918 
L 67.105596 417.707897 
L 67.351404 418.0885 
L 69.502227 419.242789 
L 70.48546 420.085108 
L 70.617818 420.877512 
L 71.501782 421.782225 
L 73.170442 423.485581 
L 74.007135 424.321661 
L 76.800841 426.8299 
L 77.694259 427.665979 
L 78.790942 428.28368 
L 79.3771 428.583171 
L 80.525781 429.693784 
L 80.93231 430.024472 
L 81.111939 430.074388 
L 81.338839 429.993275 
L 81.461743 429.456687 
L 81.575193 428.551974 
L 83.24858 424.558758 
L 83.527478 424.165676 
L 83.886736 424.165676 
L 85.007054 425.032952 
L 85.659391 425.550823 
L 84.279084 424.440209 
L 84.000186 424.165676 
L 83.943461 424.02217 
L 83.759105 423.972254 
L 83.78274 424.097042 
L 83.915098 424.3279 
L 83.697653 424.128239 
L 83.626746 424.065845 
L 83.607838 423.460624 
L 83.551113 423.18609 
L 83.697653 422.998908 
L 83.697653 423.005148 
L 83.759105 423.173611 
L 83.730742 423.179851 
L 83.541659 423.535496 
L 83.522751 423.716439 
L 83.432936 423.60413 
L 83.518024 422.25018 
L 83.66929 421.339228 
L 83.830011 420.783921 
L 83.796921 420.284769 
L 83.36203 419.392535 
L 83.13513 419.398774 
L 81.934451 419.205353 
L 80.185431 418.675004 
L 79.277831 418.437907 
L 78.894938 418.375513 
L 78.890211 418.082261 
L 79.06984 418.09474 
L 80.076708 418.419189 
L 80.667593 418.568934 
L 82.270074 419.486126 
L 82.860959 419.523562 
L 83.593657 419.405014 
L 83.626746 418.912101 
L 84.227086 417.739094 
L 84.274357 417.539433 
L 84.562709 417.171309 
L 84.600525 416.977887 
L 85.772841 416.959169 
L 86.354272 416.559847 
L 87.063335 415.667613 
L 86.930976 415.979583 
L 86.618989 416.790705 
L 85.37104 418.980735 
L 85.115777 419.604675 
L 84.765973 420.503148 
L 84.699794 421.326749 
L 84.609979 421.601283 
L 84.420896 422.175307 
L 84.141998 422.967711 
L 83.697653 423.816269 
L 83.579476 424.271746 
L 83.390392 424.477646 
L 83.986005 424.85201 
L 84.704521 425.032952 
L 84.756519 425.132783 
L 84.643069 425.769202 
L 84.340536 426.449296 
L 84.151452 427.204264 
L 83.480207 428.333595 
L 82.619878 429.706263 
L 82.161351 430.086866 
L 82.076264 430.217894 
L 82.345707 431.933729 
L 83.187128 432.694935 
L 83.995459 433.574691 
L 85.493944 434.697783 
L 87.876393 437.156106 
L 88.618545 437.84868 
L 89.719955 439.027926 
L 89.686865 439.483402 
L 89.51669 439.982554 
L 87.517135 443.751152 
L 87.039699 444.662104 
L 86.680441 445.142538 
L 86.458268 445.211171 
L 85.631029 444.892962 
L 84.297992 444.006967 
L 82.950774 443.626364 
L 81.442835 442.796524 
L 80.038891 441.760783 
L 78.975298 441.105646 
L 77.911705 440.325721 
L 76.592849 439.520839 
L 75.860151 439.29622 
L 75.661614 439.158954 
L 75.524529 439.427248 
L 75.099091 441.192998 
L 75.014004 442.490793 
L 75.014004 443.276958 
L 74.763468 445.055187 
L 74.494025 448.642841 
L 73.997681 452.043314 
L 73.888958 453.328631 
L 73.652604 454.195907 
L 72.451925 456.317303 
L 72.002853 456.816455 
L 71.478147 456.841413 
L 71.029074 456.442091 
L 70.405099 455.9367 
L 68.344092 454.732496 
L 67.56885 453.615643 
L 66.982692 453.272476 
L 66.415442 453.191364 
L 65.871828 453.0229 
L 65.611838 453.4347 
L 65.517297 454.096077 
L 64.723147 455.487463 
L 64.482066 456.510725 
L 64.519883 457.359283 
L 64.552972 457.733647 
L 64.170078 459.149991 
L 63.914816 460.067182 
L 63.92427 460.859586 
L 63.947906 462.232254 
L 63.787185 464.328693 
L 63.569739 465.91974 
L 63.35702 466.069485 
L 63.026125 466.094443 
L 62.14216 465.695121 
L 59.476086 463.966807 
L 58.242318 463.199361 
L 55.703875 462.119945 
L 55.491157 462.263451 
L 55.443886 463.723471 
L 55.169715 465.333236 
L 55.406069 465.838627 
L 56.015863 466.287864 
L 57.750702 467.354801 
L 61.522913 469.55731 
L 62.378515 469.962871 
L 62.657412 470.143813 
L 65.186401 471.722381 
L 68.282639 473.251034 
L 68.991702 473.768905 
L 69.46441 474.224381 
L 69.870939 474.498914 
L 70.660362 474.798405 
L 72.258115 475.859103 
L 74.527114 477.381517 
L 74.834375 477.924345 
L 75.122727 478.348624 
L 75.949966 479.297013 
L 75.987783 479.802404 
L 75.713612 480.445062 
L 74.806012 481.898842 
L 74.933643 482.572698 
L 75.363808 482.778598 
L 75.666341 483.003216 
L 76.200501 483.034413 
L 76.715753 483.533565 
L 77.013559 483.882972 
L 77.59499 484.201181 
L 78.270963 484.862557 
L 78.767307 485.361709 
L 79.703269 485.892058 
L 80.090889 486.066762 
L 80.483237 486.328816 
L 81.381383 486.647026 
L 81.943905 486.896602 
L 82.463884 487.202332 
L 82.752236 487.377036 
L 83.111495 487.246008 
L 83.593657 487.177375 
L 83.735469 487.058826 
L 83.905644 486.378732 
L 84.562709 484.138787 
L 84.458713 483.58972 
L 84.080546 483.227835 
L 83.66929 482.878428 
L 83.674017 482.410473 
L 84.212905 481.19379 
L 85.196137 479.596504 
L 85.186683 479.596504 
L 85.635756 479.683856 
L 87.710945 480.15805 
L 88.245105 480.345232 
L 88.717813 480.519935 
L 89.195249 481.056524 
L 89.786134 482.004912 
L 90.339202 482.054827 
L 90.466833 482.223291 
L 90.329748 482.23577 
L 90.202117 482.635092 
L 90.031942 482.360558 
L 90.150119 482.073546 
L 90.95845 481.069002 
L 91.516246 479.590265 
L 91.695875 479.42804 
L 92.02677 479.484195 
L 92.419118 479.833601 
L 92.839828 480.388908 
L 92.679108 480.151811 
L 91.771508 479.63394 
L 91.676966 479.821122 
L 91.658058 480.526175 
L 91.364979 481.162593 
L 90.73155 481.905082 
L 90.069759 482.553979 
L 89.795588 483.06561 
L 89.351242 484.725291 
L 89.043982 485.180767 
L 88.509822 485.442822 
L 88.178926 485.492737 
L 86.89316 484.93743 
L 85.493944 484.151266 
L 84.43035 483.452453 
L 84.23654 482.822274 
L 84.425623 481.730379 
L 85.262317 479.927192 
L 85.810658 479.839841 
L 85.489217 479.452998 
L 84.728156 479.203422 
L 83.924553 478.860255 
L 82.927138 478.279991 
L 82.194441 477.986739 
L 81.88718 477.581178 
L 80.615595 476.096201 
L 80.0578 475.559612 
L 78.568769 474.810884 
L 74.361666 472.67701 
L 71.993399 471.229469 
L 71.24652 470.655444 
L 70.433462 470.199968 
L 69.77167 469.931674 
L 68.679714 469.738252 
L 66.164907 468.128487 
L 65.191128 467.598138 
L 64.311891 466.911804 
L 64.028266 466.138119 
L 63.848637 465.439306 
L 63.886454 462.300888 
L 64.051901 462.06379 
L 64.26462 461.957721 
L 64.71842 462.101227 
L 66.287811 463.224319 
L 66.656523 463.255516 
L 66.566709 463.068334 
L 66.145999 462.949785 
L 62.269792 460.547616 
L 61.296013 459.961113 
L 60.511317 459.47444 
L 60.308053 459.281018 
L 59.230278 458.819303 
L 57.670341 458.469896 
L 56.58784 458.108011 
L 56.261671 458.201602 
L 56.677654 458.170405 
L 61.305467 459.112554 
L 62.123252 459.493158 
L 62.955219 459.555552 
L 63.442108 459.430764 
L 63.773004 458.694515 
L 63.971541 458.001941 
L 64.018812 457.197059 
L 64.160624 456.24243 
L 63.891181 455.275323 
L 63.267206 454.888481 
L 61.433098 454.99455 
L 60.84694 455.075663 
L 60.175695 455.643448 
L 59.51863 456.005333 
L 59.149918 455.755757 
L 58.90411 455.774475 
L 58.365222 455.543618 
L 57.509621 455.493702 
L 57.533256 455.506181 
L 56.918735 457.920829 
L 56.654019 459.430764 
L 56.025317 462.232254 
L 55.651877 465.364433 
L 55.273711 466.163076 
L 54.923907 465.9135 
L 53.486874 464.784169 
L 49.506671 462.163621 
L 48.301266 461.583357 
L 41.834618 457.309368 
L 41.456451 457.134665 
L 40.45431 456.161318 
L 39.475804 455.275323 
L 38.005682 454.601468 
L 37.192624 454.320695 
L 36.105395 453.896416 
L 35.486147 453.95881 
L 35.178887 454.133513 
L 34.328012 454.907199 
L 33.141515 456.005333 
L 31.477582 458.11425 
L 31.014328 459.174948 
L 30.683432 460.566334 
L 30.451805 461.44609 
L 29.89401 463.286713 
L 29.288943 466.412652 
L 30.28163 466.824453 
L 31.047418 467.230013 
L 31.652484 467.654293 
L 32.200826 467.99122 
L 32.635717 468.247036 
L 32.687715 468.384302 
L 32.716077 468.209599 
L 32.77753 468.022417 
L 32.805892 468.228317 
L 32.782257 468.565245 
L 32.659352 468.789863 
L 32.51754 468.746188 
L 32.555357 467.666771 
L 32.5979 467.510786 
L 32.678261 467.554462 
L 33.132061 468.116008 
L 33.368415 468.321908 
L 34.488733 468.977045 
L 35.334881 469.488676 
L 36.771913 470.137574 
L 38.459482 470.667923 
L 40.643393 471.360496 
L 41.144464 471.504002 
L 41.404453 471.822212 
L 41.243733 471.472805 
L 41.097193 470.649205 
L 40.808841 469.76321 
L 39.943785 469.445 
L 38.47839 469.207903 
L 37.698421 469.045679 
L 37.310801 468.571484 
L 36.866455 468.240796 
L 34.337466 468.059854 
L 33.65204 467.822756 
L 33.552771 468.016178 
L 33.581133 468.434218 
L 34.053842 468.833539 
L 36.351203 469.813125 
L 37.06972 470.025265 
L 36.937361 469.900477 
L 35.249793 468.240796 
L 34.909443 468.153445 
L 34.583275 467.691729 
L 34.502914 467.217535 
L 34.52655 467.024113 
L 34.937806 466.712143 
L 35.107981 466.100682 
L 36.459926 462.737646 
L 37.178443 461.75806 
L 38.970006 458.551008 
L 39.991056 456.198755 
L 39.943785 455.986615 
L 39.707431 455.712081 
L 39.220542 455.41883 
L 38.955825 454.913438 
L 38.738379 454.408047 
L 37.972592 453.902655 
L 35.528691 452.667254 
L 35.334881 452.6111 
L 35.405787 452.517509 
L 35.523964 452.411439 
L 35.656322 452.448875 
L 35.51451 452.679733 
L 34.238198 452.579903 
L 34.091658 452.062033 
L 34.592729 452.024596 
L 36.360657 452.224257 
L 38.095496 452.074511 
L 39.27254 452.39896 
L 39.712158 452.511269 
L 41.210643 452.773324 
L 43.162928 453.072815 
L 45.205027 453.54077 
L 45.195573 453.253758 
L 45.00649 453.153927 
L 45.00649 453.153927 
L 44.949765 453.066576 
L 44.845769 453.016661 
L 43.706542 452.935548 
L 43.063659 452.860676 
L 42.482228 452.792042 
L 41.905524 452.623578 
L 40.128141 452.367763 
L 38.8991 452.08699 
L 38.393302 452.005878 
L 37.504611 452.161863 
L 36.658464 452.436396 
L 33.576406 452.024596 
L 30.182362 451.25715 
L 29.430756 451.069968 
L 27.984269 451.013813 
L 27.936998 451.225953 
L 27.880273 451.912287 
L 27.837729 452.71093 
L 27.369748 455.799433 
L 26.911221 458.713233 
L 26.845042 460.747277 
L 26.67014 461.801736 
L 26.395969 462.257212 
L 26.287246 463.049616 
L 26.230521 463.93561 
L 26.10289 464.815366 
L 25.431645 467.947544 
L 25.318195 469.126791 
L 25.062932 470.443304 
L 24.509864 475.441064 
L 24.339689 476.464325 
L 24.368051 478.847776 
L 24.462593 479.32821 
L 24.174241 480.351471 
L 23.876435 481.150115 
L 23.909524 481.643027 
L 24.197876 481.917561 
L 25.166928 482.242009 
L 26.32979 482.65381 
L 27.223209 482.691246 
L 27.180665 482.472867 
L 26.953765 482.048588 
L 27.081396 481.780294 
L 27.209027 481.761576 
L 27.80464 482.210812 
L 28.981683 482.766119 
L 29.482754 483.096807 
L 29.832558 483.521086 
L 30.191816 483.858014 
L 30.31472 484.538109 
L 30.215451 485.798467 
L 30.172908 486.179071 
L 29.851466 486.871644 
L 29.615112 487.033869 
L 29.161312 487.208572 
L 28.674423 487.620372 
L 28.669696 487.270966 
L 28.835143 487.083784 
L 29.038408 487.252248 
L 29.123495 487.657809 
L 28.764237 490.609045 
L 28.579881 491.4888 
L 28.617698 492.081543 
L 28.523156 492.293683 
L 28.187533 492.299922 
L 24.935301 490.977169 
L 23.096466 490.86486 
L 22.23141 490.746311 
L 22.165231 491.757094 
L 21.999783 492.468386 
L 22.065963 493.504126 
L 21.824881 495.725353 
L 21.692523 496.162111 
L 21.626344 496.704938 
L 20.922009 500.42986 
L 20.728199 501.509276 
L 20.62893 501.727655 
L 21.281267 500.629521 
L 21.772884 500.966448 
L 22.136869 501.26594 
L 22.614304 501.515516 
L 22.9452 501.403206 
L 23.238279 501.403206 
L 22.661575 501.384488 
L 22.307044 501.209785 
L 22.34486 501.172349 
L 22.505581 501.197306 
L 22.907383 501.334573 
L 23.233552 501.203546 
L 24.070245 501.621585 
L 27.232663 502.376553 
L 28.768964 503.555799 
L 29.426029 503.711784 
L 30.229633 503.86153 
L 30.532166 504.054951 
L 32.791711 504.448033 
L 34.086931 504.922228 
L 34.086931 504.947185 
L 34.110567 504.891031 
L 34.157837 504.89727 
L 34.488733 504.828637 
L 34.91417 504.522906 
L 35.282883 504.360682 
L 35.434149 504.398118 
L 36.691553 506.195065 
L 37.301347 507.330636 
L 37.863869 508.035688 
L 38.223128 508.291504 
L 38.710017 507.742437 
L 39.726339 507.243285 
L 40.052508 506.694217 
L 40.307771 506.207544 
L 40.359768 505.071973 
L 39.655433 503.462208 
L 39.022004 502.638608 
L 37.320255 501.066279 
L 36.918453 501.166109 
L 37.126445 501.2597 
L 37.953684 501.490558 
L 38.847102 501.927316 
L 39.419079 502.020907 
L 40.440129 502.688523 
L 40.695391 503.218872 
L 40.671756 503.980078 
L 40.407039 504.27957 
L 40.321952 504.597779 
L 40.350314 504.828637 
L 40.482673 504.466752 
L 40.501581 504.59154 
L 40.288862 505.851898 
L 39.825608 506.900118 
L 39.532529 507.193369 
L 39.31981 507.180891 
L 38.993642 507.024906 
L 38.936917 507.093539 
L 38.970006 507.2932 
L 39.026731 507.143454 
L 39.764156 506.513275 
L 39.759429 506.681739 
L 39.650706 510.300591 
L 39.206361 513.00849 
L 38.308215 515.941008 
L 38.076588 516.814524 
L 39.01255 520.271151 
L 39.083456 521.263216 
L 39.149636 521.169625 
L 38.525661 521.494074 
L 38.048226 521.618862 
L 34.999258 519.678408 
L 34.318558 519.984139 
L 34.323285 520.614318 
L 34.020752 520.795261 
L 33.647313 520.633037 
L 33.58586 520.296109 
L 34.030206 519.55362 
L 34.209835 517.981292 
L 34.559639 515.672714 
L 34.80072 514.137821 
L 34.994531 514.200215 
L 39.059821 515.635277 
L 39.163817 515.597841 
L 39.66016 515.791262 
L 39.896514 515.978444 
L 40.071416 516.190584 
L 40.723754 516.602384 
L 40.79466 516.564948 
L 41.276822 516.764609 
L 42.208057 517.057861 
L 42.477501 517.132733 
L 43.503278 516.677257 
L 44.188705 516.121951 
L 45.153029 514.973901 
L 45.498106 514.899028 
L 46.103173 514.36244 
L 47.001318 513.607472 
L 47.157312 513.120799 
L 47.365303 512.914899 
L 47.866374 512.746435 
L 47.852193 512.677802 
L 48.173634 512.621647 
L 48.183088 512.453183 
L 46.476612 510.556406 
L 46.230804 510.381703 
L 45.157756 509.177499 
L 44.831588 508.902965 
L 44.557417 508.896726 
L 43.786903 509.202456 
L 43.805811 509.202456 
L 43.214926 509.15878 
L 42.652403 509.015274 
L 41.891343 508.871768 
L 41.593537 508.778177 
L 41.13501 508.940401 
L 41.319366 509.16502 
L 42.297872 509.58306 
L 43.427644 509.670411 
L 45.587921 509.408356 
L 46.259166 509.645454 
L 46.878414 509.545623 
L 46.850051 509.439553 
L 46.854779 509.452032 
L 47.214037 509.389638 
L 47.20931 509.27109 
L 47.303851 509.308526 
L 47.507116 509.657932 
L 47.786014 510.456576 
L 48.131091 510.681194 
L 48.755065 510.706152 
L 51.284054 510.600082 
L 51.884393 510.805982 
L 52.295649 511.105473 
L 53.160705 510.543927 
L 53.198522 510.631279 
L 53.55778 511.061797 
L 53.827224 511.03684 
L 54.030488 511.698216 
L 54.895544 511.685737 
L 55.098809 511.598386 
L 55.122444 510.756067 
L 55.297346 510.525209 
L 55.694421 510.581364 
L 55.87405 509.820157 
L 56.256944 509.813917 
L 56.394029 509.657932 
L 56.540569 509.88879 
L 56.791104 510.444097 
L 57.561618 510.955727 
L 57.783791 511.361288 
L 57.949239 511.486076 
L 59.154645 511.941553 
L 59.145191 512.403268 
L 59.055376 512.503099 
L 59.045922 512.621647 
L 58.369949 513.002251 
L 58.029599 513.195672 
L 57.641979 513.151996 
L 57.424533 512.864984 
L 57.244904 512.833787 
L 56.951825 513.11456 
L 56.597294 513.045926 
L 56.375121 513.033448 
L 56.030044 513.314221 
L 55.538427 513.189433 
L 55.013721 512.889941 
L 54.181755 512.334635 
L 53.501055 511.960271 
L 53.326153 511.773089 
L 52.475279 511.810525 
L 52.394918 512.409508 
L 52.210562 512.397029 
L 52.626545 512.69652 
L 52.48946 512.621647 
L 53.869768 513.501403 
L 54.077759 513.882006 
L 55.183896 514.125343 
L 55.713329 514.293806 
L 56.32785 514.855352 
L 56.904554 516.053317 
L 57.131454 516.477596 
L 59.093193 517.681801 
L 60.298599 518.293262 
L 60.676765 518.318219 
L 60.955663 517.532055 
L 61.485096 517.544534 
L 62.889039 517.68804 
L 62.889039 517.68804 
L 62.879585 517.544534 
L 62.889039 517.550773 
L 63.030852 517.58197 
L 63.026125 517.58197 
L 63.290841 517.943855 
L 63.872272 518.280783 
L 63.763549 518.41805 
L 63.47047 518.31198 
L 63.409018 518.330698 
L 63.030852 517.981292 
L 62.364333 516.596145 
L 61.07384 514.886549 
L 60.601132 514.699367 
L 59.537539 514.749283 
L 58.705572 514.655692 
L 57.982329 514.250131 
L 57.62307 513.950639 
L 57.504893 513.226869 
L 57.774337 512.702759 
L 58.393585 511.673258 
L 58.502308 509.358441 
L 58.885201 509.757763 
L 59.21137 509.108865 
L 59.873161 508.965359 
L 60.360051 509.377159 
L 60.922573 509.37092 
L 61.825446 510.980685 
L 62.473056 511.691977 
L 63.541377 512.103777 
L 64.500974 512.771393 
L 64.165351 512.721478 
L 62.699956 512.577971 
L 62.411604 512.615408 
L 62.610142 512.652844 
L 62.922129 512.758914 
L 63.078123 512.646605 
L 63.224662 511.935313 
L 64.590789 512.49062 
L 65.002045 512.69652 
L 65.432209 512.365832 
L 65.498388 512.153692 
L 65.904917 513.495163 
L 66.713248 516.384005 
L 65.498388 515.242195 
L 65.455845 515.323307 
L 65.257307 515.40442 
L 65.063497 515.410659 
L 65.05877 515.448095 
L 65.129676 516.789566 
L 65.290397 517.238803 
L 65.332941 518.667626 
L 65.030407 518.555316 
L 63.825002 517.425985 
L 63.465743 518.542838 
L 63.626464 518.811132 
L 64.014085 519.060708 
L 64.042447 519.927984 
L 63.980995 520.015336 
L 63.825002 519.990378 
L 63.943179 520.059012 
L 55.666059 500.367466 
L 55.547882 499.681132 
L 55.075173 499.18198 
L 54.862455 498.295985 
L 54.673372 495.906295 
L 56.55475 495.057737 
L 57.755429 494.689612 
L 58.634666 494.071912 
L 58.653574 494.134306 
L 58.956107 494.552345 
L 59.06483 494.50243 
L 59.627353 494.727049 
L 59.726622 494.564824 
L 60.459319 494.752006 
L 61.877444 495.43834 
L 62.818133 495.506974 
L 63.598102 496.06852 
L 63.432654 496.105956 
L 62.912675 497.023148 
L 62.657412 498.670349 
L 63.413745 502.108259 
L 64.463158 503.387336 
L 64.94532 504.098627 
L 65.200582 503.474687 
L 67.06778 504.029994 
L 70.731268 506.332332 
L 71.63414 506.269938 
L 71.813769 506.594387 
L 71.870494 507.043624 
L 72.295932 507.611409 
L 72.967177 509.339723 
L 73.246075 509.558102 
L 73.770781 510.256915 
L 74.51766 511.298894 
L 74.63111 511.798046 
L 75.16527 512.684041 
L 75.987783 513.906964 
L 76.725207 514.243891 
L 77.28773 514.574579 
L 77.802982 515.161083 
L 78.228419 516.171866 
L 78.786215 517.126494 
L 79.481096 517.931377 
L 79.901806 518.218389 
L 80.246883 518.611471 
L 80.927583 518.92968 
L 81.329385 518.904723 
L 83.58893 517.775392 
L 84.359444 518.09984 
L 84.680886 518.081122 
L 85.876837 518.661386 
L 86.600081 518.979596 
L 87.261872 519.210453 
L 87.290235 519.210453 
L 87.219328 519.173017 
L 87.224056 519.110623 
L 87.011337 518.705062 
L 86.529175 518.09984 
L 86.094283 517.27624 
L 84.113636 514.368679 
L 84.132544 514.406116 
L 84.354717 514.56834 
L 85.059052 515.71015 
L 85.597939 516.702215 
L 85.772841 517.188888 
L 87.635312 519.87183 
L 88.041841 520.239954 
L 88.287649 520.851416 
L 88.717813 521.905874 
L 88.873807 522.242802 
L 88.75563 522.461181 
L 88.396372 522.548532 
L 88.249832 522.386308 
L 88.230924 522.298956 
L 88.297103 522.323914 
L 88.679997 522.348872 
L 89.251974 521.905874 
L 89.242519 521.699974 
L 89.001438 521.437919 
L 89.100707 521.281934 
L 89.374878 520.988682 
L 89.51669 520.508249 
L 89.753044 520.464573 
L 90.362838 520.682952 
L 90.358111 520.689191 
L 89.757771 521.150907 
L 89.847586 520.945007 
L 89.994125 520.789022 
L 90.528286 520.639276 
L 90.977358 520.302348 
L 90.835546 520.314827 
L 90.575556 520.49577 
L 89.77668 521.575186 
L 89.74359 521.519031 
L 89.658503 521.350568 
L 90.348656 520.28987 
L 91.355525 519.154299 
L 91.60606 518.299501 
L 91.171169 517.619407 
L 91.251529 517.351112 
L 91.530427 517.669322 
L 91.951137 518.056165 
L 92.660199 518.960877 
L 92.816193 519.472508 
L 93.411805 520.676712 
L 93.662341 521.169625 
L 93.837243 521.587665 
L 94.135049 521.968268 
L 94.234318 522.411266 
L 94.418674 522.935375 
L 95.572082 524.576337 
L 95.81789 524.732322 
L 96.54586 525.518487 
L 97.297466 526.379524 
L 97.184016 526.392003 
L 96.895664 526.298412 
L 96.739671 526.516791 
L 96.418229 527.14697 
L 95.888796 527.883219 
L 94.371403 529.399393 
L 94.125595 529.7488 
L 93.941238 530.042052 
L 92.783103 531.146425 
L 92.759468 531.477114 
L 93.123453 531.970026 
L 93.369262 532.294475 
L 93.312537 532.281996 
L 93.062001 532.163448 
L 92.773649 531.695493 
L 92.783103 531.371044 
L 93.000549 531.246256 
L 93.359807 531.221298 
L 93.685976 531.046595 
L 93.804153 530.828216 
L 93.525255 530.37274 
L 93.057274 529.517942 
L 92.830374 529.480506 
L 92.958005 529.655209 
L 93.340899 530.104446 
L 93.539437 530.491288 
L 93.993236 530.672231 
L 93.860878 530.516246 
L 93.633978 530.659752 
L 93.071455 530.846934 
L 93.019458 530.984201 
L 93.24163 531.289932 
L 93.147089 531.314889 
L 92.991095 531.215059 
L 92.679108 530.665992 
L 92.679108 530.665992 
L 92.461662 530.572401 
L 92.296214 530.073249 
L 92.674381 529.667688 
L 93.303082 529.237169 
L 93.293628 529.361957 
L 93.72852 530.210515 
L 93.832516 530.510007 
L 95.146644 532.157208 
L 95.751711 532.587727 
L 96.522225 533.211667 
L 96.753852 533.186709 
L 96.734944 533.224145 
L 96.994933 533.879282 
L 97.8269 535.033571 
L 99.34902 536.175382 
L 99.911543 536.244015 
L 100.33698 536.069312 
L 100.620605 535.701187 
L 100.138442 536.4 
L 99.765003 536.29393 
L 99.382109 535.782299 
L 98.559597 534.640489 
L 97.807991 533.916719 
L 97.22656 533.467482 
L 97.089475 532.974569 
L 96.971298 532.8685 
L 96.583677 532.893457 
L 96.290598 532.949612 
L 95.822617 532.675078 
L 95.524811 532.381827 
L 95.132463 531.739168 
L 94.565213 531.065313 
L 94.026326 530.260431 
L 93.440168 529.705124 
L 92.338758 528.744256 
L 92.239489 528.457244 
L 92.617656 528.120316 
L 95.236459 526.398242 
L 95.732802 525.917808 
L 95.850979 525.630796 
L 95.732802 525.006856 
L 94.168138 522.798108 
L 93.960147 522.46742 
L 93.988509 522.249041 
L 94.532124 521.63758 
L 96.318961 520.539446 
L 96.857848 520.302348 
L 97.363646 520.121406 
L 97.524366 520.271151 
L 98.564324 519.609775 
L 98.833768 519.55362 
L 99.12212 519.079426 
L 99.330112 518.361895 
L 99.490832 518.580274 
L 99.471924 518.892244 
L 99.367928 519.166778 
L 99.731913 519.778239 
L 100.266074 520.70167 
L 100.908957 521.556468 
L 101.116948 521.556468 
L 101.840192 520.888852 
L 101.759831 520.439615 
L 100.615878 519.091905 
L 99.651553 518.112319 
L 98.578506 516.564948 
L 97.165108 515.129886 
L 96.72549 514.524664 
L 95.983338 513.726021 
L 95.382998 512.877463 
L 95.13719 512.708999 
L 95.198642 512.671562 
L 95.387725 512.733956 
L 97.070566 514.768001 
L 97.472368 515.173562 
L 97.651998 515.479292 
L 97.590545 515.797502 
L 97.954531 516.240499 
L 98.583233 517.213846 
L 99.164664 517.987531 
L 99.665734 517.950095 
L 102.705248 516.446399 
L 103.305587 516.165626 
L 104.416451 515.423138 
L 104.799345 514.98014 
L 105.267326 515.71015 
L 105.787305 516.552469 
L 106.501094 517.58821 
L 107.039982 517.89394 
L 106.992711 517.975052 
L 107.347242 518.636429 
L 107.7065 519.235411 
L 107.701773 519.672169 
L 107.474873 519.790718 
L 107.432329 519.703366 
L 107.517417 519.678408 
L 107.659229 519.672169 
L 107.574142 519.597296 
L 107.503236 519.360199 
L 107.465419 519.385157 
L 107.115615 519.329002 
L 106.586182 519.060708 
L 105.929117 518.467965 
L 104.534628 515.535447 
L 102.823425 512.933617 
L 102.416896 512.752675 
L 102.090727 512.852505 
L 101.740923 513.176954 
L 101.376938 513.713542 
L 101.287123 513.707303 
L 99.840636 515.067492 
L 99.08903 515.797502 
L 98.625776 516.121951 
L 98.162522 516.508793 
L 97.708723 516.608624 
L 97.311648 516.614863 
L 96.214965 517.220085 
L 94.707026 518.293262 
L 93.771064 518.873526 
L 92.608201 519.297805 
L 92.28676 519.297805 
L 92.02677 519.116862 
L 91.766781 518.492922 
L 91.123898 516.970509 
L 90.73155 516.845721 
L 90.31084 517.132733 
L 89.469419 517.912658 
L 88.670542 519.04199 
L 87.937845 520.071491 
L 87.332778 520.296109 
L 87.138968 520.296109 
L 86.713531 519.528663 
L 86.340091 518.711301 
L 85.886291 517.769152 
L 85.408856 516.695975 
L 83.489661 513.601233 
L 81.367201 510.968206 
L 79.599273 509.813917 
L 79.29674 509.501947 
L 78.110242 509.127583 
L 76.677936 508.154237 
L 76.342314 507.686282 
L 76.375403 507.436706 
L 76.956834 506.569429 
L 77.283003 506.288656 
L 77.680078 505.845659 
L 77.859707 504.760003 
L 78.252055 504.554103 
L 78.50259 504.048712 
L 79.008388 502.576214 
L 79.504731 502.020907 
L 79.485823 501.590388 
L 78.970571 500.804224 
L 77.864434 499.481471 
L 77.873888 499.069671 
L 78.16224 498.35214 
L 77.675351 497.778115 
L 77.117555 497.541018 
L 76.550305 497.753157 
L 76.417947 497.902903 
L 76.280862 498.857531 
L 75.028185 499.28181 
L 75.108545 500.155326 
L 75.188906 500.52969 
L 75.089637 500.929012 
L 74.706743 501.141152 
L 74.238762 500.63576 
L 74.144221 500.454818 
L 73.893685 500.211481 
L 73.704602 500.267636 
L 73.605333 500.579606 
L 73.10899 500.966448 
L 72.617373 501.359531 
L 71.757044 501.88988 
L 71.426149 501.78381 
L 71.203976 501.796289 
L 70.22547 502.888184 
L 69.620404 503.474687 
L 68.807346 504.154782 
L 68.627716 504.385639 
L 68.02265 506.070277 
L 67.895019 506.294896 
L 67.838294 506.850202 
L 66.249994 508.95912 
L 65.843465 509.308526 
L 65.408574 510.912052 
L 65.635474 511.492316 
L 65.758378 511.486076 
L 65.67329 511.404964 
L 65.588203 511.261458 
L 65.588203 511.261458 
L 51.884393 499.344204 
L 53.108708 498.096324 
L 52.749449 499.450274 
L 52.234197 500.280114 
L 52.650181 499.275571 
L 52.71636 499.39412 
L 53.085072 498.364619 
L 53.113435 498.102564 
L 53.964309 499.481471 
L 54.697007 500.348748 
L 55.330436 500.63576 
L 55.741692 500.95397 
L 55.840961 501.297137 
L 56.616202 502.045865 
L 56.833648 502.838268 
L 57.410352 505.140607 
L 57.750702 506.101474 
L 56.512206 504.254612 
L 56.337304 503.85529 
L 55.250075 502.002189 
L 55.22644 501.116194 
L 55.37298 501.440643 
L 56.290033 500.972688 
L 56.876192 500.598324 
L 57.207087 500.186523 
L 57.571073 499.325486 
L 56.743833 498.863771 
L 56.242763 498.427013 
L 56.304215 496.860923 
L 56.672927 496.499038 
L 57.419806 496.293138 
L 57.637252 496.105956 
L 57.835789 496.105956 
L 57.8027 495.54441 
L 57.703431 495.157567 
L 57.703431 495.157567 
L 57.920877 495.107652 
L 58.232864 495.425861 
L 58.639393 495.201243 
L 58.592122 493.766181 
L 58.365222 493.316944 
L 58.752843 491.80077 
L 58.473945 491.420167 
L 57.722339 491.395209 
L 55.510065 490.65272 
L 53.482147 489.978865 
L 53.13707 489.317489 
L 52.872353 489.698092 
L 52.664362 489.317489 
L 52.900716 488.762182 
L 51.383323 487.894906 
L 49.175776 487.114981 
L 48.367445 486.50352 
L 47.757651 485.748552 
L 47.54966 485.093415 
L 47.74347 484.644178 
L 47.880555 484.045196 
L 48.490349 483.602199 
L 48.419443 483.38382 
L 48.296538 483.38382 
L 48.296538 483.48365 
L 48.287084 483.708268 
L 47.975097 484.188702 
L 47.927826 484.637939 
L 48.149999 485.917016 
L 47.942007 485.798467 
L 46.883141 484.619221 
L 45.479198 483.726987 
L 45.001763 483.340144 
L 42.529499 482.940822 
L 42.141878 482.44167 
L 42.018974 481.905082 
L 42.094607 481.680463 
L 40.359768 481.112678 
L 38.303488 480.220444 
L 38.071861 480.214205 
L 37.774055 480.076938 
L 37.310801 479.646419 
L 36.370112 479.078634 
L 35.003985 478.055372 
L 33.363688 476.93228 
L 32.508086 476.370734 
L 30.829972 475.216445 
L 29.875101 474.299254 
L 29.865647 474.174466 
L 30.442351 473.144965 
L 30.678705 472.57094 
L 30.484895 472.25273 
L 29.137677 471.672466 
L 27.549377 470.574332 
L 27.681736 470.087659 
L 28.22535 468.733709 
L 28.480612 467.903869 
L 28.802054 467.036592 
L 29.005318 466.044528 
L 29.539479 466.025809 
L 31.175049 466.85565 
L 33.136788 468.190881 
L 35.02762 469.195424 
L 35.831224 469.794407 
L 37.778782 470.848865 
L 39.263085 471.304342 
L 39.943785 471.566396 
L 40.581941 471.909563 
L 42.751672 472.215294 
L 43.285832 472.271449 
L 44.283246 472.608376 
L 45.413019 472.77684 
L 48.915786 473.338386 
L 49.308134 473.063852 
L 51.180058 473.456935 
L 51.544044 473.600441 
L 53.17016 473.687792 
L 53.245793 474.386605 
L 52.91017 475.653203 
L 52.621818 476.639028 
L 52.749449 477.393996 
L 52.744722 477.712205 
L 52.692724 477.924345 
L 52.754176 477.899387 
L 54.550467 477.886908 
L 55.396615 478.030415 
L 56.02059 478.230075 
L 56.464935 478.242554 
L 56.767469 478.38606 
L 57.344173 478.978803 
L 57.949239 479.390604 
L 59.055376 480.507456 
L 59.584809 480.875581 
L 60.823305 482.173376 
L 61.905806 483.240313 
L 62.529781 483.602199 
L 63.725733 483.982802 
L 64.222076 484.375884 
L 64.954774 484.856318 
L 65.711107 485.280597 
L 66.108182 485.798467 
L 67.058325 485.935734 
L 67.493217 486.347535 
L 68.207006 486.659505 
L 68.859343 486.983953 
L 69.095698 487.295923 
L 69.213875 487.682766 
L 69.119333 488.550043 
L 68.618262 490.109893 
L 68.679714 490.97093 
L 68.225915 491.314097 
L 67.753206 491.251703 
L 66.897605 490.590326 
L 66.212178 489.467234 
L 65.470026 487.788836 
L 64.83187 487.408233 
L 64.472612 487.74516 
L 62.997762 487.12122 
L 61.745086 486.91532 
L 61.296013 486.759335 
L 61.036023 486.216507 
L 60.65313 485.985649 
L 57.424533 484.962388 
L 55.391888 483.608438 
L 54.12503 482.95954 
L 53.548326 482.497825 
L 52.94326 481.774054 
L 51.539316 481.331057 
L 51.085517 481.61183 
L 50.645898 481.50576 
L 50.267731 480.99413 
L 50.385909 480.788229 
L 50.570265 480.588569 
L 50.792438 480.195486 
L 51.35496 477.331602 
L 51.454229 476.926041 
L 51.676402 476.545437 
L 52.045114 476.146116 
L 52.404372 474.910715 
L 52.739995 473.40078 
L 53.354516 471.298102 
L 53.70432 470.973653 
L 54.096668 470.349713 
L 54.35193 470.243644 
L 55.500611 470.586811 
L 58.814295 472.227773 
L 59.343728 472.627094 
L 60.081153 472.764361 
L 60.317507 472.689488 
L 60.487682 472.764361 
L 60.941482 473.126246 
L 62.865404 474.399084 
L 64.231531 475.047981 
L 64.472612 475.185248 
L 64.467885 475.110375 
L 64.463158 475.035503 
L 64.519883 475.110375 
L 65.47948 475.871582 
L 65.881282 476.270904 
L 66.278357 476.420649 
L 66.703794 476.439368 
L 67.204865 476.027567 
L 68.334637 474.823363 
L 68.882979 474.305493 
L 69.639312 473.120007 
L 70.863626 471.167075 
L 75.042366 464.316214 
L 77.041922 460.734798 
L 77.542992 459.892479 
L 78.228419 457.739886 
L 78.866575 456.24243 
L 79.745812 454.37685 
L 80.733772 453.64684 
L 80.970127 453.33487 
L 81.206481 452.180581 
L 81.962814 450.882786 
L 83.139857 449.722258 
L 83.560567 449.541315 
L 84.09 449.204387 
L 85.498671 446.440333 
L 86.065921 445.84759 
L 86.117918 445.691605 
L 86.023377 445.722802 
L 85.848475 445.504423 
L 85.891018 445.367156 
L 86.595354 444.861765 
L 87.001883 444.262783 
L 87.625857 442.883875 
L 87.900028 442.42216 
L 88.60909 441.623517 
L 88.973076 441.055731 
L 89.753044 439.458445 
L 90.386473 439.084081 
L 91.440612 438.67852 
L 91.747873 438.47262 
L 91.856595 438.428944 
L 94.03578 435.515144 
L 95.331 434.691543 
L 96.210238 433.237763 
L 96.716035 432.532711 
L 97.075294 432.039798 
L 96.749125 431.702871 
L 96.394594 431.578083 
L 96.214965 431.29731 
L 96.314233 431.178761 
L 96.697127 431.197479 
L 98.375241 429.019929 
L 98.843222 428.246243 
L 100.105353 427.098194 
L 100.034447 426.056214 
L 99.930451 425.756723 
L 100.14317 425.519626 
L 100.497701 425.507147 
L 101.296577 424.939361 
L 101.490388 424.720982 
L 102.010367 423.529257 
L 103.182683 422.169068 
L 103.400129 421.332988 
L 103.570304 420.746485 
L 104.884432 420.003996 
L 104.993155 419.716984 
L 105.612403 418.999453 
L 105.929117 418.256964 
L 106.387644 417.233703 
L 106.557819 416.74079 
L 106.623998 416.516172 
L 106.704359 416.578566 
L 107.0258 415.948386 
L 108.056304 414.326142 
L 108.349383 413.820751 
L 108.911906 412.535435 
L 109.975499 411.568328 
L 112.102686 407.475281 
L 113.416815 406.227401 
L 114.381139 405.597222 
L 114.697854 405.590983 
L 115.907987 406.14005 
L 117.23157 406.751511 
L 118.815142 407.256902 
L 121.277951 408.73564 
L 122.317909 408.716922 
L 126.624281 409.515565 
L 128.43948 409.846253 
L 128.808192 409.708986 
L 129.228903 409.384538 
L 130.538304 407.986912 
L 131.389179 406.807666 
L 132.013154 406.083895 
L 132.637129 404.767382 
L 134.201793 401.722555 
L 134.868311 400.580745 
L 135.549011 399.295428 
L 137.435116 395.932392 
L 139.401582 393.137141 
L 139.959378 392.132597 
L 141.779304 389.368543 
L 143.2447 386.747995 
L 145.315161 383.603338 
L 147.073636 381.350914 
L 147.626704 380.720735 
L 147.863058 380.340131 
L 150.056424 378.17506 
L 151.663632 375.180148 
L 152.018163 372.933964 
L 152.155248 371.991815 
L 152.268698 370.425725 
L 152.523961 369.389985 
L 152.774496 368.959466 
L 152.916309 367.942444 
L 153.275567 365.920878 
L 154.027173 361.896466 
L 154.22571 360.935598 
L 154.457337 360.049603 
L 154.603877 358.265135 
L 154.556606 355.950318 
L 154.641693 354.565171 
L 154.556606 353.32977 
L 154.353341 352.830618 
L 154.003537 349.667242 
L 154.235164 347.371143 
L 154.807141 346.341642 
L 155.502022 345.624111 
L 156.319807 343.795967 
L 157.066686 342.242356 
L 157.454307 341.693289 
L 158.702257 339.409669 
L 158.938611 338.823165 
L 158.886613 338.586068 
L 158.480084 338.398886 
L 157.307767 338.330252 
L 155.899097 337.787425 
L 155.029314 337.431779 
L 152.746134 335.96552 
L 151.072747 335.054568 
L 147.938692 333.213945 
L 147.220175 332.908214 
L 145.934409 332.240598 
L 145.088261 331.878713 
L 143.395966 331.148703 
L 143.447964 331.055112 
L 143.135977 330.749382 
L 142.408006 330.262708 
L 140.365907 329.31432 
L 139.411036 329.033547 
L 138.673612 328.596789 
L 136.882048 327.411303 
L 134.461782 326.29445 
L 133.729084 326.163423 
L 132.892391 325.614356 
L 132.589858 325.25247 
L 131.389179 324.491264 
L 128.292941 323.093638 
L 128.089676 322.688077 
L 128.40639 321.764646 
L 128.902734 320.810018 
L 129.545617 320.154881 
L 130.060869 319.468547 
L 130.273588 319.131619 
L 130.212136 318.751016 
L 130.098686 318.470243 
L 130.349221 318.114597 
L 130.798294 317.602966 
L 131.431723 316.355086 
L 131.805162 315.637555 
L 132.216418 314.932503 
L 134.017436 311.176384 
L 135.218115 308.911482 
L 135.601009 307.79463 
L 136.352615 306.178625 
L 136.692965 305.036815 
L 136.886775 304.550142 
L 138.418349 302.49114 
L 140.47463 298.872288 
L 141.060788 298.042448 
L 143.377058 293.643671 
L 144.322474 291.709457 
L 145.584605 289.375921 
L 147.65034 285.794506 
L 148.023779 284.958426 
L 148.898289 283.623195 
L 149.111008 283.167719 
L 149.224458 282.125739 
L 150.519678 279.704852 
L 150.902572 279.224418 
L 151.791263 278.488169 
L 152.415238 277.196613 
L 153.88536 274.532389 
L 154.376977 273.752464 
L 155.275122 272.080305 
L 155.913278 271.032086 
L 157.799384 267.363319 
L 158.239003 265.840905 
L 159.368775 263.39506 
L 159.515315 262.914627 
L 159.76585 262.477869 
L 161.089433 260.974173 
L 161.486508 260.169291 
L 162.039576 259.077396 
L 162.290111 258.659356 
L 162.904632 257.935586 
L 163.37734 257.068309 
L 163.443519 256.594115 
L 165.438348 253.018939 
L 165.830696 252.189098 
L 166.431035 251.253188 
L 166.780839 250.473263 
L 167.073918 250.117618 
L 168.057151 249.431284 
L 168.596038 248.53281 
L 168.69058 248.102291 
L 168.624401 247.840237 
L 168.827665 247.166382 
L 169.37128 246.049529 
L 169.673813 244.938916 
L 169.976346 244.726776 
L 170.4396 244.577031 
L 170.732679 244.277539 
L 170.935944 243.953091 
L 171.583554 242.268453 
L 172.032627 241.519725 
L 172.935499 241.132882 
L 173.162399 240.926982 
L 175.459761 236.652993 
L 176.220821 235.174255 
L 176.617896 234.431766 
L 176.915702 233.66432 
L 177.936752 232.091992 
L 178.414187 230.713084 
L 179.165793 228.760152 
L 179.13743 228.285958 
L 179.647955 227.399963 
L 179.562868 226.963205 
L 180.15848 225.1413 
L 180.739911 224.430009 
L 181.070807 224.061884 
L 181.633329 223.150932 
L 182.257304 222.75161 
L 183.405985 220.67389 
L 183.760516 219.613192 
L 183.921237 219.120279 
L 183.869239 218.614888 
L 184.252133 217.622823 
L 184.460124 217.067517 
L 185.093553 216.09417 
L 185.670257 214.397054 
L 188.199246 210.104347 
L 188.605775 208.943818 
L 189.839543 207.346532 
L 190.63842 204.944363 
L 191.371118 203.93982 
L 191.858007 203.634089 
L 192.198357 203.228528 
L 193.52194 200.40208 
L 194.127006 199.541043 
L 194.793525 198.63009 
L 197.355603 194.324904 
L 197.582503 193.85071 
L 197.885036 192.81497 
L 198.258475 192.409409 
L 200.347845 188.466108 
L 200.759102 187.798492 
L 201.491799 186.145051 
L 202.148864 184.778623 
L 202.456124 184.004937 
L 202.758657 183.443391 
L 203.552807 182.713381 
L 204.252415 181.602768 
L 204.413136 181.17225 
L 205.065473 180.535831 
L 205.112744 180.0242 
L 204.900025 179.450175 
L 205.727264 177.934001 
L 206.516687 177.079203 
L 207.003576 176.792191 
L 207.570826 175.86252 
L 208.104986 175.251059 
L 208.596603 174.61464 
L 209.603471 173.154621 
L 209.759465 172.33102 
L 210.581977 170.677579 
L 210.695427 169.660557 
L 211.243769 168.38148 
L 213.073149 165.430244 
L 213.919297 164.962289 
L 214.496001 164.382025 
L 215.829038 161.586773 
L 216.34429 160.463681 
L 217.611148 158.036555 
L 217.83332 157.556121 
L 218.674741 156.682605 
L 218.693649 156.258326 
L 218.462022 155.890201 
L 217.63951 155.409768 
L 215.379965 154.267957 
L 214.945074 154.143169 
L 214.519636 154.199324 
L 208.851865 152.327504 
L 208.468972 152.452292 
L 206.403237 151.591255 
L 205.902166 150.898682 
L 205.21674 150.062602 
L 200.24385 147.123845 
L 199.156621 146.518623 
L 197.58723 145.844768 
L 195.001516 144.553212 
L 194.599714 143.885596 
L 194.188458 142.537886 
L 193.616481 141.564539 
L 192.236173 139.736395 
L 191.62638 137.70859 
L 191.54602 136.722765 
L 191.583836 135.069324 
L 191.437297 133.927514 
L 191.31912 131.837315 
L 191.484567 128.817446 
L 190.888955 124.181571 
L 190.430428 123.507716 
L 190.836957 121.249054 
L 190.907864 116.332407 
L 190.997678 114.385714 
L 190.931499 105.126444 
L 191.115855 100.446895 
L 191.385299 96.497354 
L 191.120582 95.698711 
L 191.437297 92.49166 
L 191.659469 90.245476 
L 191.796555 89.010075 
L 191.905278 88.348698 
L 191.872188 87.281761 
L 191.82019 86.264739 
L 192.032909 83.369657 
L 192.08018 82.177932 
L 192.179448 81.198346 
L 192.543434 79.794481 
L 193.224134 77.83531 
L 194.245183 75.85118 
L 196.11238 72.856268 
L 196.892349 71.327616 
L 197.804676 69.667935 
L 200.915095 63.603239 
L 204.42259 57.070587 
L 205.221467 55.58561 
L 208.757324 49.333731 
L 209.258394 48.422779 
L 209.664923 47.518066 
L 211.71175 43.843059 
L 212.751708 42.133464 
L 213.451316 41.160117 
L 215.535959 37.435196 
L 216.188296 36.14364 
L 218.499839 32.493591 
L 219.208901 32.4 
L 219.766697 32.668294 
L 220.527757 33.061376 
L 220.91065 33.261037 
L 221.274636 33.772668 
L 221.331361 33.810104 
L 221.345542 33.704035 
" clip-path="url(#p1c593e662f)" style="fill: none; stroke: #000000; stroke-width: 3"/>
   </g>
  </g>
 </g>
 <defs>
  <clipPath id="p1c593e662f">
   <rect x="7.2" y="7.2" width="295.436455" height="554.4"/>
  </clipPath>
 </defs>
</svg>
