<?xml version="1.0" encoding="utf-8" standalone="no"?>
<!DOCTYPE svg PUBLIC "-//W3C//DTD SVG 1.1//EN"
  "http://www.w3.org/Graphics/SVG/1.1/DTD/svg11.dtd">
<svg xmlns:xlink="http://www.w3.org/1999/xlink" width="293.271544pt" height="568.8pt" viewBox="0 0 293.271544 568.8" xmlns="http://www.w3.org/2000/svg" version="1.1">
 <metadata>
  <rdf:RDF xmlns:dc="http://purl.org/dc/elements/1.1/" xmlns:cc="http://creativecommons.org/ns#" xmlns:rdf="http://www.w3.org/1999/02/22-rdf-syntax-ns#">
   <cc:Work>
    <dc:type rdf:resource="http://purl.org/dc/dcmitype/StillImage"/>
    <dc:date>2023-05-07T05:03:06.655116</dc:date>
    <dc:format>image/svg+xml</dc:format>
    <dc:creator>
     <cc:Agent>
      <dc:title>Matplotlib v3.7.1, https://matplotlib.org/</dc:title>
     </cc:Agent>
    </dc:creator>
   </cc:Work>
  </rdf:RDF>
 </metadata>
 <defs>
  <style type="text/css">*{stroke-linejoin: round; stroke-linecap: butt}</style>
 </defs>
 <g id="figure_1">
  <g id="patch_1">
   <path d="M 0 568.8 
L 293.271544 568.8 
L 293.271544 0 
L 0 0 
z
" style="fill: #ffffff"/>
  </g>
  <g id="axes_1">
   <g id="LineCollection_1">
    <path d="M 227.309526 45.061354 
L 227.45527 44.950596 
L 228.12216 45.306187 
L 228.961292 45.760876 
L 230.785301 46.460399 
L 231.71718 47.270679 
L 233.779679 48.267498 
L 235.987923 49.106925 
L 236.447237 48.850433 
L 237.03463 48.127593 
L 238.222665 46.285518 
L 238.783559 46.285518 
L 239.463698 46.576986 
L 240.293997 46.944235 
L 242.184254 47.288167 
L 243.548948 47.608781 
L 244.410163 47.970201 
L 246.106094 48.932044 
L 248.614658 50.989806 
L 250.68599 52.202311 
L 253.936525 53.426475 
L 254.334008 53.770407 
L 255.681037 54.417465 
L 257.774452 55.041206 
L 260.154938 56.08466 
L 262.058444 57.273848 
L 263.052153 58.264838 
L 263.507051 59.05763 
L 263.944283 60.450845 
L 265.291312 65.98873 
L 265.861039 66.874792 
L 266.196692 67.172089 
L 266.081863 67.626778 
L 268.815668 69.31729 
L 269.398645 70.331598 
L 269.818211 71.293441 
L 270.714758 72.255284 
L 271.341899 72.902342 
L 272.485769 74.266411 
L 273.338151 75.3565 
L 273.395565 75.671285 
L 273.104077 76.405783 
L 270.078783 82.392528 
L 269.469308 83.628351 
L 269.098323 84.526071 
L 267.05349 88.134441 
L 266.439598 89.562632 
L 266.055364 90.57111 
L 265.225065 91.92352 
L 264.213689 93.753937 
L 263.467303 94.779903 
L 263.05657 95.508572 
L 261.166313 98.936231 
L 260.671667 99.833951 
L 259.881116 101.425365 
L 259.253975 102.381378 
L 258.503172 104.106867 
L 257.058981 107.254717 
L 255.809115 109.324137 
L 255.027397 110.641571 
L 253.910026 112.944165 
L 251.648784 116.797368 
L 250.655075 118.703566 
L 249.70553 120.528153 
L 247.797608 124.334721 
L 247.554701 125.319881 
L 247.400124 126.281724 
L 244.330666 130.09995 
L 243.990597 130.951036 
L 243.562197 131.796292 
L 242.661234 132.973821 
L 241.897182 134.197985 
L 241.45995 135.107364 
L 240.492739 136.809535 
L 239.870014 138.109481 
L 238.916053 139.788334 
L 238.456739 140.301317 
L 236.778474 143.320922 
L 235.418196 145.86252 
L 234.715975 146.334697 
L 234.428903 146.754411 
L 233.598603 148.847148 
L 232.847801 150.467708 
L 232.074915 151.575285 
L 230.802967 154.122712 
L 229.840173 155.784078 
L 229.261613 157.072365 
L 229.10262 157.509566 
L 228.418064 158.238235 
L 228.073579 158.605485 
L 227.23003 160.301826 
L 225.688676 163.292284 
L 224.005994 166.131179 
L 223.38327 167.448613 
L 221.395851 170.817978 
L 219.761751 174.58374 
L 219.443764 175.714635 
L 218.573716 176.699795 
L 217.774332 177.620833 
L 217.451928 178.075523 
L 216.793872 179.614472 
L 216.568631 180.459728 
L 215.826661 181.52067 
L 215.385012 183.152889 
L 215.097941 183.7708 
L 214.793203 184.511128 
L 214.245559 185.735292 
L 213.737663 186.714623 
L 213.004526 187.956275 
L 212.077064 188.568357 
L 211.564751 189.401955 
L 211.388092 189.879962 
L 211.613333 190.637777 
L 211.472005 191.086638 
L 210.86253 191.733696 
L 209.352091 194.881546 
L 208.583623 195.470311 
L 208.106642 196.927649 
L 207.307258 198.367499 
L 207.152681 198.53655 
L 206.521123 198.734748 
L 206.075058 199.679103 
L 205.21826 201.795158 
L 203.959561 204.138558 
L 203.385418 204.75647 
L 202.793609 205.916511 
L 202.042806 206.207978 
L 201.817565 206.347883 
L 201.221339 206.132197 
L 200.88127 205.683337 
L 200.426372 205.438504 
L 200.187882 205.152866 
L 199.790398 204.878886 
L 197.056592 203.841261 
L 195.559403 203.170886 
L 192.357451 201.194735 
L 191.014839 200.33782 
L 190.635021 200.197916 
L 188.983255 199.020387 
L 186.443775 197.598024 
L 184.52702 196.385519 
L 182.248113 195.079744 
L 181.541475 194.473491 
L 179.006411 193.31928 
L 178.480849 192.905396 
L 176.643591 192.176727 
L 176.307938 192.030993 
L 175.906038 191.448057 
L 175.106654 190.929245 
L 174.841664 191.144931 
L 174.563426 191.144931 
L 171.184813 189.588494 
L 168.623251 188.142815 
L 166.375259 186.994432 
L 164.065437 185.869367 
L 163.67237 185.875196 
L 162.868569 187.186801 
L 162.60358 187.221777 
L 162.108933 187.035238 
L 162.007354 186.819551 
L 162.122183 186.219128 
L 162.833237 184.843401 
L 163.230721 184.138049 
L 163.491294 183.461844 
L 163.716534 182.476684 
L 163.654704 182.191045 
L 163.133558 181.823796 
L 162.510834 181.380765 
L 161.866026 181.001858 
L 160.801653 180.552997 
L 159.110139 179.124806 
L 158.84515 178.874144 
L 158.332837 177.789884 
L 157.710113 176.915481 
L 157.025557 176.507427 
L 156.575075 176.21013 
L 155.899353 175.702976 
L 154.693652 174.869379 
L 151.213461 172.590102 
L 150.021009 171.948873 
L 148.859473 171.266839 
L 144.222162 169.057514 
L 141.413277 167.174633 
L 139.562769 165.979616 
L 139.452357 165.740612 
L 139.567185 165.13436 
L 140.454899 163.338919 
L 141.064374 161.88741 
L 141.656183 160.35429 
L 142.473233 158.792024 
L 142.822136 157.964256 
L 143.988088 156.297061 
L 144.836054 154.664842 
L 145.184956 153.802098 
L 146.174249 150.922398 
L 146.788141 150.222876 
L 147.477113 149.045346 
L 149.433616 145.745933 
L 150.193252 143.851393 
L 150.294831 143.454997 
L 149.990094 143.140212 
L 149.398285 142.79628 
L 147.764184 142.219174 
L 146.933885 141.869413 
L 146.041755 141.473017 
L 138.887046 137.584839 
L 138.931211 137.532375 
L 139.050456 137.509057 
L 139.191784 137.701426 
L 138.789884 137.363324 
L 137.663679 136.751242 
L 134.713466 135.0549 
L 134.395479 134.839214 
L 133.746256 134.15135 
L 130.734212 132.845575 
L 127.576424 131.481507 
L 127.589673 131.481507 
L 127.611756 131.347432 
L 127.925326 131.312456 
L 127.916493 131.27165 
L 128.185899 130.828619 
L 128.914619 129.149766 
L 129.789084 127.634134 
L 130.076155 127.523376 
L 131.038949 127.564182 
L 130.875539 127.500059 
L 129.903912 127.115322 
L 128.525968 126.695608 
L 128.24773 126.829683 
L 128.022489 127.331008 
L 127.633838 129.004032 
L 127.426263 130.263172 
L 127.293769 130.607104 
L 127.042029 130.647909 
L 126.706376 130.636251 
L 126.463469 130.91023 
L 126.070402 132.379227 
L 125.770081 134.617699 
L 125.580172 134.751774 
L 125.346098 134.920825 
L 125.076692 135.544566 
L 124.780788 136.255747 
L 124.493716 136.593849 
L 124.365638 136.803706 
L 124.612961 136.325699 
L 125.019278 134.110545 
L 124.983946 134.122204 
L 124.900033 134.203815 
L 124.113898 136.512238 
L 123.800328 137.479911 
L 123.963738 138.447583 
L 121.026774 144.317741 
L 120.514462 145.471953 
L 120.231806 145.874179 
L 120.006566 146.188964 
L 119.710661 146.999244 
L 115.996396 153.714658 
L 115.974313 154.198494 
L 114.684699 156.250426 
L 114.530122 156.879996 
L 114.649367 157.171464 
L 115.117515 157.538713 
L 116.486626 158.214918 
L 116.022895 158.086672 
L 114.653784 160.54083 
L 113.880899 162.009827 
L 113.76607 162.091438 
L 112.701697 161.333622 
L 112.379293 161.07713 
L 112.070139 161.024666 
L 111.646156 161.467697 
L 110.515536 163.566264 
L 108.04672 167.891643 
L 107.529991 168.46292 
L 106.97793 169.500545 
L 106.076967 171.34262 
L 105.387995 172.496832 
L 104.283873 173.837583 
L 100.485694 177.125338 
L 99.9513 177.754908 
L 98.317199 179.060683 
L 97.195412 180.203236 
L 96.541772 181.106786 
L 95.671724 182.156069 
L 94.748678 183.613408 
L 91.926543 188.45177 
L 91.586474 188.941436 
L 91.219905 188.912289 
L 90.380773 188.026227 
L 89.029328 187.093531 
L 89.766881 187.723101 
L 90.177614 188.201108 
L 90.959333 188.480917 
L 91.559975 188.556699 
L 91.626222 188.766555 
L 91.471645 189.769204 
L 90.804756 191.06915 
L 88.90125 194.39771 
L 87.2539 197.230775 
L 86.481015 198.571526 
L 82.289769 206.347883 
L 81.331392 207.881003 
L 79.798871 211.087147 
L 79.922532 211.180416 
L 79.971114 211.390273 
L 79.73704 212.008184 
L 77.886532 215.185181 
L 73.26247 223.859258 
L 71.332466 227.216965 
L 70.519832 229.140652 
L 69.981021 230.254058 
L 64.919727 249.082867 
L 64.866729 250.487741 
L 65.074304 253.297489 
L 65.317211 254.673216 
L 65.211215 255.576766 
L 64.963892 256.853394 
L 65.237714 257.710309 
L 66.386001 260.13532 
L 67.702114 261.021381 
L 67.808109 261.295361 
L 67.825775 262.601136 
L 67.538704 264.402406 
L 67.211884 266.897369 
L 66.915979 269.176646 
L 66.288838 274.096619 
L 66.028265 279.261426 
L 66.121011 279.249767 
L 67.203051 279.651992 
L 67.54312 279.278914 
L 68.139346 279.535405 
L 68.704656 280.065876 
L 69.212552 280.293221 
L 69.583537 280.707105 
L 70.210678 281.616484 
L 71.288301 282.64828 
L 72.229013 282.992211 
L 72.71041 283.732539 
L 73.028397 283.924908 
L 74.061855 283.948225 
L 74.428423 283.773345 
L 75.139477 283.924908 
L 75.991859 284.128935 
L 77.4493 284.816799 
L 78.853743 285.382246 
L 79.626628 285.632908 
L 81.777457 286.60641 
L 86.913831 289.299571 
L 87.081657 289.672649 
L 87.024243 290.407148 
L 86.507514 291.520554 
L 84.842499 294.516842 
L 82.744667 298.422508 
L 80.660086 303.202577 
L 79.97553 307.697008 
L 79.631044 310.186141 
L 79.507383 311.981582 
L 78.840493 315.759003 
L 77.648042 326.391742 
L 77.829118 327.336097 
L 78.244267 327.84908 
L 79.17173 328.787606 
L 79.617795 329.696985 
L 79.891617 330.711292 
L 79.97553 331.329203 
L 79.949031 332.075361 
L 79.957864 332.955593 
L 79.882784 333.643456 
L 78.90674 333.78919 
L 75.232224 334.465395 
L 73.606956 334.855962 
L 69.760196 335.32231 
L 68.439667 335.607948 
L 67.777194 335.730365 
L 67.074973 335.916904 
L 66.770235 335.724535 
L 66.280005 335.876098 
L 65.732361 336.552303 
L 65.498287 338.062106 
L 65.5822 338.814092 
L 65.869272 340.743608 
L 65.816274 342.88881 
L 65.520369 345.366285 
L 65.321627 349.73247 
L 65.250964 351.178149 
L 65.264213 351.953453 
L 65.264213 351.953453 
L 65.259797 352.099187 
L 65.069888 352.227433 
L 65.10522 353.340839 
L 64.826981 354.460075 
L 64.288169 356.93755 
L 64.394165 357.246505 
L 64.120343 359.269291 
L 64.120343 360.400185 
L 63.895102 361.583544 
L 63.665445 362.230602 
L 62.848395 365.325988 
L 63.05597 365.926411 
L 63.179631 366.975695 
L 62.843978 368.479668 
L 62.47741 369.622221 
L 62.587822 369.948665 
L 62.530408 370.957143 
L 62.291917 372.449457 
L 62.035761 374.268215 
L 61.103883 380.196667 
L 59.412368 388.322784 
L 58.564403 389.576095 
L 58.427492 389.832587 
L 58.436325 391.575563 
L 58.171335 394.466922 
L 58.246416 395.854308 
L 58.811726 396.740369 
L 59.226876 397.09596 
L 59.792186 397.375769 
L 60.573904 398.022827 
L 61.028802 398.44254 
L 61.284959 398.500834 
L 61.457202 398.419223 
L 61.655943 397.783824 
L 61.629444 397.259182 
L 61.580863 397.177571 
L 61.598529 397.340793 
L 61.523449 397.597284 
L 61.298208 398.081121 
L 61.342373 398.337612 
L 61.298208 397.585626 
L 61.377705 397.917899 
L 61.519032 398.477517 
L 61.708941 400.179687 
L 61.625028 401.765271 
L 61.589696 402.190814 
L 61.602946 402.243278 
L 61.638277 402.021763 
L 61.907683 398.390076 
L 61.885601 396.950226 
L 61.788438 397.020178 
L 61.452785 398.040315 
L 61.108299 398.914718 
L 61.090633 398.699032 
L 60.860976 397.958704 
L 60.732898 397.853776 
L 61.028802 398.226854 
L 61.077384 398.873912 
L 62.102009 400.138882 
L 62.066677 400.78594 
L 61.801687 401.281435 
L 61.479284 402.109203 
L 61.139214 402.260766 
L 60.50324 402.336548 
L 59.019301 402.132521 
L 58.635067 402.056739 
L 57.941678 402.249108 
L 56.621149 402.004275 
L 54.567482 401.275606 
L 54.006588 401.549585 
L 54.006588 401.549585 
L 53.776931 401.817736 
L 53.428029 401.905176 
L 53.017295 401.916835 
L 51.979421 401.899347 
L 51.599603 403.782227 
L 51.038709 406.953395 
L 50.725139 409.232672 
L 50.570562 409.535798 
L 49.625434 409.308454 
L 49.148453 409.314283 
L 48.914379 409.465846 
L 48.82605 410.14788 
L 48.759802 411.23214 
L 49.276531 411.546925 
L 49.484106 411.494461 
L 49.647516 411.074748 
L 49.79326 409.990488 
L 49.559186 409.798119 
L 49.921338 410.14788 
L 49.766761 410.107075 
L 49.727013 410.299444 
L 49.616601 411.185505 
L 49.439941 411.756782 
L 49.965503 412.625355 
L 49.841842 413.57554 
L 49.700514 414.234257 
L 49.576852 415.773206 
L 48.680306 421.573412 
L 48.23424 421.730804 
L 47.624765 421.555924 
L 46.017164 421.025453 
L 45.094118 420.9555 
L 44.246153 421.002135 
L 42.974205 420.873889 
L 41.892165 420.547446 
L 39.57351 420.203514 
L 38.451722 419.912046 
L 35.576589 419.463186 
L 32.599877 418.97352 
L 31.667999 418.647077 
L 31.535504 418.43722 
L 31.38976 418.536319 
L 31.354428 418.845275 
L 31.398593 418.839445 
L 31.491339 418.769493 
L 31.588502 418.34395 
L 32.078732 418.291486 
L 34.00432 417.679404 
L 35.059861 417.889261 
L 36.711627 418.034995 
L 38.411974 418.361438 
L 40.209484 418.577124 
L 41.013285 419.387404 
L 42.731298 419.434039 
L 44.705467 419.387404 
L 44.996956 419.527309 
L 45.010205 419.661384 
L 44.780548 420.308442 
L 44.948374 420.640715 
L 45.350275 420.815596 
L 46.410231 420.932183 
L 48.437399 421.602558 
L 48.357902 422.680989 
L 48.004583 425.379979 
L 47.836757 426.959734 
L 47.492271 428.586123 
L 47.116869 431.156867 
L 46.741468 433.692636 
L 45.147116 441.894535 
L 44.961624 442.081074 
L 44.440478 442.104392 
L 43.027203 441.171695 
L 42.311732 440.757811 
L 41.945163 440.751982 
L 41.185528 442.873866 
L 41.304773 444.815041 
L 41.441684 445.08902 
L 41.560929 446.091669 
L 41.764087 446.558017 
L 42.523723 446.418113 
L 43.844253 446.750386 
L 44.016496 446.872802 
L 44.113658 447.129294 
L 44.047411 447.875451 
L 43.879584 449.035492 
L 43.769172 450.39956 
L 43.203862 452.451493 
L 42.695966 453.448312 
L 42.541389 454.853186 
L 42.665051 455.529391 
L 42.324981 457.342319 
L 42.03791 458.385774 
L 40.783627 461.288791 
L 39.984243 463.043426 
L 39.312937 464.034416 
L 39.087696 464.582375 
L 38.076321 469.957039 
L 37.86433 471.740821 
L 37.387349 476.089518 
L 37.356434 476.958091 
L 37.201857 477.214583 
L 36.786707 477.220412 
L 36.225813 476.952262 
L 35.011279 476.165299 
L 33.85416 475.821367 
L 33.452259 475.360848 
L 33.059192 474.71379 
L 32.233309 473.612043 
L 32.321639 473.559579 
L 32.573379 473.536261 
L 33.284433 473.390527 
L 34.211895 473.402186 
L 34.772789 473.308916 
L 34.551965 473.792753 
L 34.225145 474.404835 
L 33.686333 475.459947 
L 32.62196 479.517177 
L 32.047817 480.811293 
L 31.398593 482.10541 
L 30.846532 482.274461 
L 28.496961 482.064604 
L 26.527208 482.111239 
L 25.299425 481.545792 
L 25.136015 481.639061 
L 25.189013 481.691525 
L 26.430046 482.233655 
L 26.39913 482.437683 
L 26.103226 482.595075 
L 25.118349 482.262802 
L 25.118349 482.262802 
L 25.01677 482.309437 
L 25.047685 482.245314 
L 25.16693 482.09958 
L 25.480501 482.309437 
L 25.502583 482.525123 
L 25.237594 482.758297 
L 25.047685 482.752468 
L 24.884275 482.542611 
L 24.950522 482.426024 
L 25.317091 482.402706 
L 25.573247 482.595075 
L 25.564414 482.612563 
L 25.692492 482.758297 
L 25.913317 482.700003 
L 25.882401 482.676686 
L 25.635078 482.437683 
L 25.361256 482.006311 
L 24.990271 481.994652 
L 24.879859 482.157874 
L 24.946106 482.303607 
L 25.26851 482.350242 
L 25.65716 482.414365 
L 25.480501 482.437683 
L 25.100683 482.583416 
L 24.985854 482.472659 
L 24.990271 482.262802 
L 25.197846 482.309437 
L 25.193429 482.338584 
L 25.250844 482.303607 
L 25.242011 482.19285 
L 24.924024 482.052945 
L 24.641368 481.778966 
L 24.283633 481.854747 
L 23.94798 481.889723 
L 23.263425 481.586597 
L 22.755529 482.134556 
L 22.702531 481.697355 
L 22.914522 480.677218 
L 22.768778 480.473191 
L 22.649533 480.607266 
L 22.543537 481.475839 
L 22.353628 482.245314 
L 22.229967 482.571758 
L 22.234383 483.795922 
L 22.265299 483.976632 
L 22.742279 484.565396 
L 22.358045 484.973451 
L 22.309463 485.387335 
L 21.942895 485.987758 
L 21.74857 486.833014 
L 21.682322 487.515049 
L 21.872231 488.016373 
L 21.942895 488.453575 
L 21.82365 488.791677 
L 21.691155 489.223049 
L 21.501246 489.619445 
L 21.399667 490.097452 
L 21.17001 490.633752 
L 20.1763 494.242122 
L 20.083554 494.760934 
L 19.875979 495.466286 
L 20.096804 495.79273 
L 20.326461 496.066709 
L 20.525203 496.41647 
L 21.072847 496.568033 
L 21.691155 496.725426 
L 22.2388 496.847842 
L 23.488665 497.156798 
L 23.952397 497.40746 
L 24.407295 497.745563 
L 24.486791 497.733904 
L 24.36313 497.652293 
L 24.045143 496.917795 
L 25.802904 493.781603 
L 25.533499 493.157862 
L 24.999104 492.592415 
L 24.332214 492.196019 
L 22.653949 491.566449 
L 22.327129 491.782135 
L 22.340379 492.108579 
L 23.554913 492.254312 
L 26.142974 493.699992 
L 27.057187 494.556907 
L 29.225682 495.623678 
L 30.17081 495.845194 
L 30.709621 496.072538 
L 32.674958 497.617317 
L 32.246559 497.209262 
L 31.610584 496.288224 
L 31.160103 495.775241 
L 30.524129 495.507091 
L 29.477421 494.982449 
L 28.457213 494.271268 
L 27.710827 493.950654 
L 26.783364 493.542599 
L 26.734783 493.146203 
L 27.847738 490.878585 
L 28.408632 490.324797 
L 28.881196 490.254844 
L 32.13173 491.274981 
L 32.339305 491.152565 
L 32.538047 490.65124 
L 32.62196 490.085793 
L 32.326055 489.75935 
L 29.066688 488.756701 
L 26.876111 488.150448 
L 24.809195 487.41012 
L 23.62116 487.427608 
L 24.994687 487.450926 
L 25.537915 487.561684 
L 28.267304 488.692578 
L 28.563209 488.336987 
L 29.543669 486.500741 
L 29.720328 485.410652 
L 29.927903 483.970802 
L 30.016233 483.265451 
L 30.0074 482.91569 
L 30.510879 482.047116 
L 30.744953 480.852099 
L 30.740537 481.044467 
L 30.873031 481.627403 
L 30.042732 484.215635 
L 29.782159 484.856864 
L 29.733578 485.194966 
L 29.804241 486.180127 
L 29.715912 486.774721 
L 29.243348 487.520878 
L 28.055313 490.050817 
L 26.920276 492.073603 
L 24.760614 496.970259 
L 24.822444 497.250068 
L 24.495624 497.978737 
L 24.663451 498.182764 
L 25.930983 498.952239 
L 26.363798 499.412757 
L 27.211764 499.65759 
L 29.936736 501.19071 
L 30.131061 501.528813 
L 30.184059 502.012649 
L 30.15756 502.315775 
L 29.59225 503.627379 
L 28.867946 504.169509 
L 27.878653 503.3534 
L 26.372631 502.117577 
L 26.14739 502.059284 
L 25.674826 502.140895 
L 25.025603 501.983502 
L 24.729698 501.756157 
L 24.031893 501.068294 
L 23.629993 500.905072 
L 23.320839 500.905072 
L 22.861524 500.864266 
L 22.56562 500.870096 
L 22.499372 501.109099 
L 22.684865 501.254833 
L 23.077932 501.406396 
L 23.541663 501.826109 
L 23.864067 502.123406 
L 24.809195 502.770465 
L 25.00352 503.411693 
L 26.47421 504.396854 
L 27.057187 504.571735 
L 27.626913 504.641687 
L 28.245222 504.968131 
L 28.629456 505.32955 
L 28.973942 505.364527 
L 28.960692 505.32955 
L 28.307052 504.361878 
L 27.807989 503.907188 
L 26.469794 503.050274 
L 25.953065 502.90454 
L 25.520249 502.916198 
L 25.01677 503.096908 
L 24.76503 503.283448 
L 24.477958 504.134533 
L 23.908232 506.617837 
L 23.735989 508.518206 
L 23.841984 510.255353 
L 24.548622 512.243163 
L 25.078601 513.035955 
L 25.749907 513.741306 
L 26.553707 514.166849 
L 28.064146 514.679832 
L 28.187807 515.163668 
L 27.891903 515.577552 
L 27.37959 515.979778 
L 27.21618 516.277075 
L 26.973273 516.189634 
L 26.854028 515.670822 
L 26.898193 515.321061 
L 27.008605 514.831395 
L 26.703868 514.545757 
L 25.215512 513.420692 
L 24.561872 512.522972 
L 23.682991 510.564309 
L 23.466583 508.798015 
L 23.365004 508.261715 
L 23.387086 507.859489 
L 23.254592 508.384131 
L 22.901273 509.124459 
L 22.768778 509.182753 
L 22.755529 509.136118 
L 22.826192 508.949578 
L 22.865941 508.803845 
L 22.901273 508.949578 
L 22.958687 509.783176 
L 23.153012 510.395258 
L 24.283633 512.697852 
L 25.153681 513.700501 
L 25.714575 514.073579 
L 26.7392 514.400023 
L 27.834488 514.813907 
L 28.678037 515.192815 
L 29.50392 515.321061 
L 31.999235 515.251109 
L 33.372763 514.848883 
L 34.021986 514.405852 
L 34.662377 512.342262 
L 35.095192 511.199709 
L 35.470594 509.468391 
L 35.713501 508.366643 
L 35.943158 507.433947 
L 36.004989 506.250588 
L 36.12865 505.69097 
L 35.810663 504.799079 
L 35.572173 504.460977 
L 33.558255 505.043912 
L 33.244685 505.591871 
L 32.109647 505.247939 
L 31.610584 504.991448 
L 31.456007 505.323721 
L 31.027608 506.880158 
L 30.797951 507.22409 
L 30.49763 508.290862 
L 30.135478 509.002043 
L 29.539252 510.249524 
L 29.132935 510.628432 
L 28.377716 514.120214 
L 28.3733 514.691491 
L 28.669204 515.134522 
L 29.764493 515.373525 
L 30.669873 515.361866 
L 32.440884 515.082057 
L 33.271183 515.087887 
L 36.605631 515.577552 
L 38.946369 516.393662 
L 39.237857 516.871669 
L 39.463098 517.361334 
L 39.454265 517.775218 
L 39.32177 518.177444 
L 39.255523 519.127628 
L 38.818291 520.01369 
L 38.637215 520.241034 
L 38.469388 520.672407 
L 38.51797 521.336953 
L 38.615132 522.462018 
L 38.51797 523.989308 
L 38.1779 524.659684 
L 38.040989 525.330059 
L 38.142568 526.157827 
L 38.208816 526.67081 
L 38.434056 527.160476 
L 39.176026 528.087343 
L 41.035367 529.748709 
L 41.424018 529.946907 
L 41.60951 530.285009 
L 41.755254 531.398415 
L 41.441684 532.08045 
L 41.490265 532.879071 
L 41.636009 534.662853 
L 41.556512 534.919344 
L 41.030951 535.583891 
L 41.013285 535.991945 
L 41.287107 536.300901 
L 41.77292 536.4 
L 42.161571 536.166826 
L 42.09974 535.706307 
L 41.304773 533.724327 
L 41.167862 532.016327 
L 41.20761 531.26434 
L 41.490265 530.879603 
L 41.764087 530.337473 
L 41.856834 529.567999 
L 41.750838 529.10748 
L 41.613927 528.670278 
L 40.514222 527.102183 
L 40.178569 526.606688 
L 39.635341 525.219302 
L 39.591176 524.595561 
L 39.785501 524.502291 
L 40.099072 524.543097 
L 42.470725 525.026933 
L 43.212695 525.131861 
L 43.437936 525.475793 
L 43.354023 525.673991 
L 43.115532 525.755602 
L 42.417727 525.627356 
L 42.033493 525.289254 
L 40.695298 524.922005 
L 38.292729 524.60722 
L 38.319228 524.595561 
L 38.323644 524.659684 
L 38.248564 524.455656 
L 38.067488 524.455656 
L 38.107236 524.315752 
L 38.067488 524.292435 
L 38.063071 524.350728 
L 37.961492 524.659684 
L 37.842247 524.455656 
L 37.895245 524.51395 
L 37.908494 524.478974 
L 37.899661 524.636366 
L 37.965909 524.636366 
L 38.199983 524.956981 
L 38.345727 525.405841 
L 38.411974 525.376694 
L 38.68138 525.23679 
L 38.782959 525.131861 
L 38.964035 525.091056 
L 39.441015 524.939493 
L 41.242942 525.201814 
L 42.695966 525.423329 
L 44.126908 525.312571 
L 49.987586 524.42651 
L 48.009 524.793759 
L 48.035498 524.910346 
L 48.000167 525.714797 
L 48.393234 525.971288 
L 48.927629 526.082046 
L 50.058249 526.058728 
L 50.385069 526.163657 
L 50.473399 526.443466 
L 50.407152 526.565882 
L 50.429234 527.411138 
L 50.46015 527.830852 
L 51.489191 530.209227 
L 52.262076 531.182729 
L 52.712558 531.707371 
L 52.756723 531.316804 
L 52.686059 530.605623 
L 52.942215 528.524545 
L 52.955465 527.603507 
L 52.328324 525.545745 
L 52.33274 524.443998 
L 52.443152 524.199165 
L 54.002172 523.97182 
L 53.679768 522.024816 
L 53.065877 521.162072 
L 52.840636 521.010509 
L 52.186996 521.430222 
L 52.253243 521.640079 
L 52.858302 521.739178 
L 53.776931 521.686714 
L 54.006588 521.779984 
L 54.342241 521.954864 
L 54.47032 521.844106 
L 55.344784 522.048134 
L 55.786433 521.785813 
L 55.848263 521.348611 
L 55.782016 520.858946 
L 55.896845 521.191219 
L 56.122086 521.745007 
L 56.038172 522.339601 
L 55.782016 522.80012 
L 55.017964 523.085759 
L 54.156749 523.126564 
L 52.641894 522.80012 
L 52.222328 521.261171 
L 52.195829 519.73971 
L 51.820428 519.360802 
L 51.798345 518.976065 
L 52.072167 518.492229 
L 51.952922 517.845171 
L 51.807178 517.437116 
L 50.910631 516.609348 
L 50.747221 516.282904 
L 50.636809 515.181156 
L 50.592644 514.365047 
L 50.265824 512.942685 
L 50.420401 512.703682 
L 50.981295 512.773634 
L 50.919464 512.604583 
L 50.77372 512.009989 
L 50.923881 512.313115 
L 51.573104 513.432351 
L 51.414111 514.06775 
L 51.42736 514.644856 
L 51.537772 515.14618 
L 51.789512 515.705798 
L 51.802762 515.606699 
L 51.895508 515.659163 
L 51.926423 515.315231 
L 51.559855 514.918836 
L 51.299282 513.747136 
L 51.290449 513.030125 
L 51.250701 512.622071 
L 51.18887 512.190698 
L 51.648185 511.980842 
L 52.769972 511.403736 
L 53.392697 511.322125 
L 54.479153 511.479517 
L 55.053296 512.522972 
L 56.387075 513.018467 
L 56.665313 512.995149 
L 57.058381 512.814439 
L 59.231292 513.251641 
L 59.836351 513.228323 
L 63.13105 513.572255 
L 63.338625 513.426521 
L 63.413705 513.1642 
L 63.400456 512.72117 
L 62.084343 510.243695 
L 61.753106 509.876445 
L 62.031345 510.319476 
L 61.960681 510.37777 
L 61.943015 510.342794 
L 62.296334 510.750848 
L 63.700777 511.438712 
L 64.027597 511.759326 
L 64.738651 512.068282 
L 65.59545 512.505484 
L 65.957601 512.307286 
L 66.359502 512.091599 
L 66.690738 511.572787 
L 66.47433 510.698384 
L 66.337419 509.905592 
L 66.571493 509.660759 
L 66.80115 509.310998 
L 67.207467 509.445073 
L 67.366461 509.048677 
L 68.982895 509.538343 
L 69.141888 509.38678 
L 66.48758 504.565905 
L 66.924812 504.478465 
L 71.363381 504.688322 
L 71.517958 504.624199 
L 71.637203 504.041263 
L 72.012605 503.324253 
L 72.299676 503.201837 
L 73.182974 503.26013 
L 73.553959 503.318424 
L 74.026523 503.778943 
L 73.942609 502.962833 
L 73.412631 501.184881 
L 73.134392 499.849959 
L 73.001898 499.226218 
L 73.032813 499.004703 
L 74.154601 499.267024 
L 74.905403 499.849959 
L 77.162228 500.153085 
L 77.497881 499.826642 
L 77.70104 499.721713 
L 77.988111 499.721713 
L 78.155938 499.558491 
L 78.306098 499.03385 
L 78.703582 498.934751 
L 81.649379 499.622614 
L 81.9497 499.791665 
L 82.550342 499.8383 
L 83.044988 499.628444 
L 84.710004 498.643283 
L 84.378767 497.081016 
L 83.50872 495.413822 
L 82.665171 494.370367 
L 80.867661 492.283459 
L 80.244936 491.479009 
L 79.666376 490.855268 
L 79.330723 490.633752 
L 78.853743 490.686217 
L 78.628502 491.065125 
L 78.310515 491.304128 
L 78.080857 491.449862 
L 77.727538 492.032797 
L 77.073898 492.802272 
L 76.252432 493.338572 
L 76.354011 493.979801 
L 75.912362 494.055582 
L 75.775451 494.475296 
L 75.678289 494.679323 
L 75.647373 494.970791 
L 75.536961 495.466286 
L 74.878905 501.674546 
L 74.600666 502.368239 
L 74.923069 500.327966 
L 74.923069 500.333795 
L 74.552085 500.671898 
L 74.569751 501.966014 
L 74.591833 502.076772 
L 74.375425 501.295638 
L 74.097186 501.079952 
L 73.721785 500.975024 
L 73.730618 500.992512 
L 73.443546 500.800143 
L 73.235972 500.322137 
L 73.372883 500.129768 
L 73.487711 500.141427 
L 73.483295 500.007351 
L 73.624622 500.001522 
L 73.995607 500.456212 
L 74.145768 500.671898 
L 74.039772 501.039147 
L 74.247347 501.511324 
L 74.083937 501.954355 
L 74.000024 501.919379 
L 73.341967 501.587106 
L 72.944483 500.992512 
L 71.040978 498.829822 
L 70.117932 497.174286 
L 69.83086 497.028552 
L 69.225802 496.352347 
L 67.538704 494.970791 
L 67.971519 495.384675 
L 70.131181 497.477412 
L 73.019564 500.013181 
L 74.945152 501.249004 
L 75.338219 501.254833 
L 75.673872 501.004171 
L 79.251226 502.589755 
L 82.647505 503.848895 
L 81.711209 502.339093 
L 77.550879 498.590819 
L 76.080189 497.034382 
L 75.373551 496.398982 
L 74.265013 495.227282 
L 73.867529 495.256429 
L 73.977941 495.7869 
L 73.995607 496.935283 
L 73.558375 496.713767 
L 73.478878 496.86533 
L 73.664371 497.220921 
L 73.500961 497.081016 
L 73.474462 497.115993 
L 73.196223 497.086846 
L 72.820822 497.121822 
L 72.392423 497.314191 
L 71.593038 497.448266 
L 71.473793 497.430778 
L 70.418253 496.626327 
L 71.712284 497.529877 
L 73.576041 498.684088 
L 76.14202 499.733372 
L 76.627833 499.342805 
L 76.588085 498.625795 
L 76.636666 498.67243 
L 76.932571 499.173754 
L 77.568545 499.587638 
L 78.663834 499.03385 
L 78.911157 498.689918 
L 78.964155 498.095324 
L 78.26635 496.789549 
L 77.383053 495.367187 
L 77.37422 494.766763 
L 77.868866 494.626859 
L 78.337014 495.198136 
L 78.337014 495.087378 
L 78.359096 494.737617 
L 80.094775 495.029084 
L 80.638003 494.848374 
L 81.053153 494.644347 
L 82.082194 494.626859 
L 82.69167 495.43131 
L 83.318811 496.189125 
L 83.848789 496.393153 
L 84.263939 496.906136 
L 84.851332 498.22357 
L 84.930828 498.643283 
L 85.491722 499.377781 
L 85.95987 499.511856 
L 86.401518 499.261194 
L 86.710672 498.969727 
L 86.547262 499.057167 
L 85.681631 499.237877 
L 83.385058 501.01 
L 82.130776 501.686205 
L 81.874619 501.925208 
L 81.44622 502.531461 
L 80.925075 502.933686 
L 80.072693 504.186997 
L 79.847452 504.437659 
L 79.600129 505.183817 
L 79.49855 505.562725 
L 79.472051 506.390493 
L 79.445552 507.159967 
L 79.370472 507.078356 
L 78.597586 506.075708 
L 78.098523 504.670834 
L 77.811452 504.426001 
L 77.811452 504.437659 
L 77.440467 504.874861 
L 77.144562 505.218793 
L 78.001361 506.367175 
L 78.602003 507.066698 
L 79.0834 507.900295 
L 78.624085 508.022711 
L 78.712415 508.098493 
L 78.884658 508.354984 
L 79.419053 509.211899 
L 79.427886 509.054507 
L 79.538298 509.031189 
L 80.346515 510.267012 
L 81.251895 510.937388 
L 82.020364 511.164732 
L 82.258854 511.246343 
L 82.983158 511.153074 
L 84.078446 509.777346 
L 85.085405 508.926261 
L 85.310646 508.541524 
L 85.186985 508.261715 
L 84.175609 507.329018 
L 82.744667 506.081537 
L 82.594507 505.708458 
L 82.629839 505.06723 
L 82.899244 504.43183 
L 82.757917 504.43183 
L 84.533344 506.349687 
L 85.147236 506.512909 
L 85.014742 506.402151 
L 84.339019 505.807557 
L 84.007783 505.382015 
L 83.557301 504.834055 
L 83.120069 504.764103 
L 82.802082 504.769933 
L 82.077778 505.282916 
L 81.583131 505.6968 
L 80.708667 506.203953 
L 79.366055 507.253237 
L 79.295391 507.538875 
L 79.374888 507.608827 
L 79.370472 507.527216 
L 79.401387 507.119162 
L 79.405803 507.037551 
L 79.480884 507.090015 
L 80.125691 507.066698 
L 80.885326 507.159967 
L 81.388806 507.486411 
L 81.362307 507.923612 
L 81.150316 508.465742 
L 80.562923 509.38678 
L 77.996944 508.867967 
L 77.979278 508.75721 
L 78.235434 509.241046 
L 77.52438 508.652281 
L 77.625959 508.93209 
L 77.484632 508.850479 
L 77.095981 508.582329 
L 76.331929 508.39579 
L 75.974193 508.442425 
L 75.448631 508.354984 
L 75.205725 508.547353 
L 74.600666 508.378302 
L 74.379842 508.454083 
L 74.927486 510.46521 
L 74.106019 510.366111 
L 71.782947 509.952227 
L 71.659286 510.115449 
L 71.204388 509.829811 
L 71.354548 511.18805 
L 71.747616 512.680364 
L 72.374757 514.009457 
L 72.123017 513.595572 
L 71.46496 512.814439 
L 71.292717 512.966002 
L 71.005646 512.72117 
L 71.235303 512.977661 
L 71.721117 513.717989 
L 72.343841 514.230972 
L 72.887069 514.685661 
L 73.536293 515.05874 
L 74.026523 515.717457 
L 75.192475 517.460433 
L 76.009525 518.21242 
L 76.442341 518.340666 
L 76.495339 518.381471 
L 76.208267 518.48057 
L 75.974193 518.311519 
L 75.391217 517.775218 
L 73.536293 516.446126 
L 72.917984 516.043901 
L 72.882653 516.008924 
L 72.864987 516.102194 
L 72.781073 516.143 
L 72.436587 516.125512 
L 72.251095 516.277075 
L 72.030271 516.486931 
L 71.659286 516.504419 
L 71.3148 516.352856 
L 71.164639 516.247928 
L 70.563997 516.475273 
L 70.510999 516.889157 
L 70.678826 517.57702 
L 70.948231 517.851 
L 71.248553 518.078345 
L 72.136266 519.314167 
L 72.162765 520.264352 
L 72.149516 520.258523 
L 71.222054 519.698905 
L 71.376631 519.879615 
L 71.79178 520.695724 
L 71.703451 520.81814 
L 71.919858 519.792174 
L 71.663702 519.623123 
L 71.442878 519.477389 
L 70.533082 519.040188 
L 70.188596 518.847819 
L 69.481958 518.678768 
L 68.951979 518.492229 
L 68.497081 518.544693 
L 66.862981 519.075164 
L 66.681905 519.687246 
L 66.469914 520.264352 
L 66.200508 520.573308 
L 66.14751 520.853117 
L 66.527328 521.132925 
L 66.469914 521.033826 
L 66.438998 520.713212 
L 66.076847 520.37511 
L 64.464829 518.999382 
L 63.921601 518.876966 
L 63.484369 518.853649 
L 63.550616 518.906113 
L 66.178426 521.855765 
L 67.653532 522.969172 
L 67.680031 522.870073 
L 68.10843 522.654386 
L 68.12168 522.415383 
L 67.574036 521.943205 
L 67.278131 521.832448 
L 66.97781 521.675055 
L 66.032682 520.993021 
L 64.080595 518.463082 
L 63.881853 518.055027 
L 63.53295 517.775218 
L 63.117801 517.378822 
L 61.598529 516.294563 
L 60.472325 515.198644 
L 60.370746 513.962822 
L 60.414911 513.490644 
L 59.995344 512.791122 
L 59.968845 512.487995 
L 60.202919 512.383067 
L 60.163171 511.945866 
L 60.247084 510.045497 
L 60.472325 508.430766 
L 60.414911 507.935271 
L 60.565071 507.76622 
L 60.84331 507.807025 
L 60.913974 507.189114 
L 60.909557 506.512909 
L 61.17013 507.025892 
L 61.594113 507.742902 
L 62.053427 507.952759 
L 63.038304 508.372473 
L 62.923475 508.279203 
L 63.025054 508.232568 
L 63.665445 508.506548 
L 64.796065 508.961237 
L 66.116595 508.990384 
L 68.947563 508.972896 
L 69.186053 508.704746 
L 69.689533 508.897114 
L 70.263676 508.640623 
L 70.382921 507.58551 
L 70.714158 507.515558 
L 71.469377 506.402151 
L 71.482626 505.87751 
L 71.177889 505.247939 
L 69.729281 503.458328 
L 68.302756 502.00099 
L 68.03335 502.018478 
L 67.790443 501.831939 
L 67.282547 501.015829 
L 66.818816 501.301468 
L 66.191675 501.383079 
L 65.904604 501.342273 
L 65.286295 500.83512 
L 64.054096 499.313658 
L 64.213089 498.340157 
L 64.508994 497.902955 
L 65.312794 497.104334 
L 65.727944 496.32903 
L 66.023849 496.037562 
L 66.253506 495.938463 
L 66.434582 496.008416 
L 65.736777 495.722777 
L 65.538035 495.017426 
L 65.683779 495.040743 
L 65.957601 495.145671 
L 67.30463 495.402163 
L 68.081932 495.203965 
L 68.43525 495.180647 
L 69.897108 495.996757 
L 70.347589 495.722777 
L 70.851069 495.005767 
L 71.897776 495.221453 
L 71.95519 494.807569 
L 72.997481 494.393685 
L 74.424006 493.105398 
L 74.67133 492.866394 
L 75.32497 492.609903 
L 75.695955 492.510804 
L 75.8152 492.201848 
L 75.846115 491.7355 
L 75.629707 490.960196 
L 75.188059 488.383622 
L 75.205725 488.383622 
L 74.883321 487.281875 
L 75.360302 486.885479 
L 75.404466 486.483253 
L 75.32497 485.865342 
L 75.938861 485.88283 
L 75.969777 485.451458 
L 76.066939 485.095867 
L 76.278931 484.862693 
L 76.407009 484.308905 
L 76.327512 485.224113 
L 76.623417 486.104345 
L 76.936987 486.372496 
L 78.054359 486.477424 
L 79.538298 487.456755 
L 79.785621 487.654953 
L 80.386263 487.579172 
L 80.748415 487.106994 
L 81.340225 486.722257 
L 82.877162 484.97928 
L 83.548468 484.326393 
L 85.703713 481.429205 
L 85.752295 480.916222 
L 86.538429 480.1176 
L 87.567471 479.202392 
L 87.41731 478.508699 
L 87.59397 478.339648 
L 87.761796 478.462064 
L 90.491185 481.598256 
L 90.186447 481.341764 
L 89.62997 481.155225 
L 88.711341 480.665559 
L 88.031202 480.228358 
L 87.677883 479.814474 
L 87.059575 479.196563 
L 86.648842 479.301491 
L 86.43685 479.627935 
L 86.017284 480.846269 
L 85.328312 482.233655 
L 84.573093 483.45199 
L 84.392017 483.626871 
L 83.605882 483.352891 
L 82.947826 482.630051 
L 82.197023 481.639061 
L 81.273977 479.948549 
L 80.607088 478.899266 
L 78.911157 476.940603 
L 77.321222 475.698951 
L 76.928154 474.847865 
L 76.760328 474.760425 
L 75.620874 472.836739 
L 75.695955 473.122377 
L 75.678289 473.349722 
L 75.634124 473.472138 
L 72.193681 474.742937 
L 71.668119 474.766255 
L 70.488917 475.104357 
L 68.907815 475.553217 
L 68.470582 475.465777 
L 68.148179 475.739756 
L 67.485706 476.15947 
L 67.339962 476.299374 
L 67.370877 476.870651 
L 67.410626 476.858992 
L 67.525454 476.689941 
L 68.333671 476.293545 
L 69.371546 475.757244 
L 70.581663 475.261749 
L 71.222054 474.888671 
L 71.442878 474.608862 
L 71.319216 474.503934 
L 70.276925 475.040234 
L 68.558912 475.518241 
L 68.27184 475.331702 
L 67.733029 474.795401 
L 67.534287 474.748766 
L 66.960144 475.145162 
L 65.162634 477.406951 
L 65.175883 477.715907 
L 65.414374 478.129791 
L 65.785358 478.561163 
L 65.873688 479.138269 
L 65.979684 479.453054 
L 65.785358 478.68358 
L 65.900187 478.875948 
L 66.204925 478.345477 
L 66.151927 478.67775 
L 66.394834 479.190733 
L 66.394834 479.190733 
L 66.960144 479.079975 
L 67.339962 478.386283 
L 67.203051 477.879129 
L 67.203051 477.879129 
L 67.344378 477.750883 
L 67.158886 477.7742 
L 66.942478 477.68676 
L 66.942478 477.68676 
L 66.907146 476.806528 
L 66.642157 476.392644 
L 66.280005 475.838855 
L 66.059181 474.935306 
L 65.847189 473.775265 
L 65.454122 472.691005 
L 65.295128 472.317926 
L 64.968308 472.597735 
L 64.411831 472.597735 
L 63.002972 472.008971 
L 62.817479 472.312097 
L 62.053427 472.201339 
L 61.143631 472.090582 
L 60.542989 472.178022 
L 59.553696 472.131387 
L 58.975136 471.950677 
L 58.445158 472.224657 
L 58.118338 472.760957 
L 57.623691 474.393176 
L 57.301288 474.818719 
L 56.855222 474.871183 
L 56.890554 474.970282 
L 57.204125 475.920466 
L 57.093713 476.147811 
L 57.15996 476.386815 
L 56.448906 476.054541 
L 53.922675 474.194978 
L 53.688601 474.136684 
L 52.469651 473.606213 
L 51.171204 472.959155 
L 50.742805 472.580247 
L 50.451317 472.64437 
L 50.067082 472.860056 
L 49.475273 472.521954 
L 48.393234 471.874896 
L 48.07083 471.775797 
L 47.108036 471.315278 
L 46.507394 471.064616 
L 45.354691 470.895564 
L 45.005789 470.411728 
L 44.687802 470.236848 
L 43.305441 469.747182 
L 42.960955 469.455714 
L 42.978621 469.409079 
L 42.877042 469.391591 
L 42.779879 469.210881 
L 42.634135 468.674581 
L 42.978621 467.182267 
L 43.645511 465.550048 
L 43.981164 463.859536 
L 44.926292 459.580791 
L 44.974873 459.032832 
L 44.789381 457.592982 
L 45.995082 450.201362 
L 46.127576 445.432952 
L 46.573641 442.646521 
L 46.971125 441.573921 
L 47.350943 438.904077 
L 47.66893 436.968732 
L 49.294197 428.656075 
L 51.01221 419.299964 
L 51.303699 417.522012 
L 51.511273 417.137274 
L 51.820428 416.880783 
L 52.624228 416.740878 
L 54.342241 416.717561 
L 55.759934 416.799172 
L 57.544194 417.049834 
L 58.268498 417.393766 
L 59.279874 417.527841 
L 61.64711 417.609452 
L 62.22567 417.434571 
L 62.62757 417.376278 
L 63.192881 417.271349 
L 64.464829 417.113957 
L 65.26863 417.965042 
L 65.719111 418.104947 
L 66.518495 418.151582 
L 66.717237 417.417083 
L 66.893897 415.709083 
L 67.2163 412.159007 
L 67.295797 411.914174 
L 67.63145 411.750952 
L 71.447294 411.920004 
L 71.703451 411.704318 
L 71.632787 411.482802 
L 70.228344 411.529437 
L 69.614452 411.313751 
L 69.084474 411.389533 
L 68.073099 411.302092 
L 67.861107 411.278775 
L 67.728613 411.1447 
L 67.644699 410.596741 
L 67.953853 407.384767 
L 68.051016 406.597805 
L 67.967103 406.323825 
L 68.011268 405.82833 
L 68.042183 405.501886 
L 68.214426 405.297859 
L 68.68699 405.321177 
L 69.234635 405.519375 
L 69.50404 406.108139 
L 69.671867 406.947566 
L 69.936856 407.308986 
L 69.738114 408.643908 
L 69.693949 409.390065 
L 69.618869 409.827266 
L 69.852943 410.281956 
L 70.197429 410.631717 
L 70.656743 410.78328 
L 73.288969 411.1447 
L 73.920527 412.386352 
L 74.684579 412.736113 
L 75.316137 413.254925 
L 77.10923 414.788045 
L 78.390011 415.697424 
L 78.575504 415.656619 
L 78.699166 415.324346 
L 78.858159 412.806065 
L 79.829786 410.299444 
L 80.099192 409.156891 
L 80.39068 409.051962 
L 81.278394 409.221013 
L 83.358559 410.369396 
L 84.31252 411.121382 
L 85.580052 411.669342 
L 86.207193 411.750952 
L 86.701839 412.083226 
L 87.708798 412.718625 
L 88.980747 413.365683 
L 90.389606 414.29255 
L 90.9505 414.904632 
L 92.08112 415.744059 
L 93.392817 416.595145 
L 94.479273 417.096469 
L 95.128496 417.53367 
L 95.477399 417.609452 
L 96.033876 417.277179 
L 96.647767 416.665097 
L 98.012462 414.770557 
L 98.471776 414.135158 
L 98.992922 413.30739 
L 99.116584 413.249096 
L 99.271161 413.336536 
L 99.262328 413.313219 
L 99.633312 412.67782 
L 100.238371 411.86754 
L 100.565191 411.733464 
L 101.285079 411.1447 
L 101.66048 410.841573 
L 101.775309 410.894038 
L 101.982883 410.491812 
L 102.163959 409.978829 
L 102.64094 409.360918 
L 102.72927 409.151061 
L 102.720437 408.62059 
L 104.098381 407.221545 
L 104.548862 406.63861 
L 104.994927 406.790173 
L 105.348246 406.895102 
L 105.754563 406.953395 
L 106.699691 407.285668 
L 107.644819 407.349791 
L 108.183631 407.215716 
L 108.183631 407.763675 
L 108.223379 408.206706 
L 108.082052 408.422392 
L 109.155258 408.661396 
L 109.795648 409.180208 
L 110.042972 409.168549 
L 110.312377 409.285136 
L 110.559701 409.599921 
L 111.116178 409.634897 
L 111.504829 409.390065 
L 111.818399 409.215184 
L 113.258174 408.265 
L 113.540829 408.230023 
L 113.911814 407.752017 
L 114.18122 406.918419 
L 114.24305 406.545341 
L 114.547788 406.195579 
L 115.038018 405.29203 
L 115.395753 405.035538 
L 115.771155 404.66246 
L 115.934565 404.405968 
L 115.855068 403.927961 
L 116.256968 403.257586 
L 116.703034 402.797067 
L 117.299259 401.782759 
L 117.656995 401.333899 
L 117.771823 400.704329 
L 117.917567 400.622718 
L 118.173724 399.62007 
L 118.588873 399.311114 
L 118.66837 399.334431 
L 118.761116 399.241162 
L 118.915693 398.640738 
L 119.370592 397.842117 
L 120.033065 396.938567 
L 120.271555 396.693735 
L 120.487963 396.291509 
L 121.070939 395.895113 
L 121.790826 395.102321 
L 121.77316 395.218908 
L 121.914488 395.265543 
L 122.086731 395.073175 
L 122.501881 394.793366 
L 123.844493 393.056219 
L 124.520215 392.187645 
L 124.4893 391.78542 
L 124.723373 391.593051 
L 125.354931 391.400682 
L 125.478593 390.951822 
L 125.438844 390.858553 
L 125.549256 390.911017 
L 126.428137 391.214143 
L 126.595964 391.301583 
L 126.838871 391.266607 
L 127.364432 390.858553 
L 127.753083 390.194006 
L 128.17265 388.934866 
L 129.047114 387.856436 
L 129.524094 386.702224 
L 130.725379 384.819343 
L 130.897622 384.533705 
L 131.065448 384.044039 
L 131.520346 383.601009 
L 131.811835 382.965609 
L 133.419436 380.499793 
L 134.068659 379.398045 
L 134.978455 378.016489 
L 135.640929 376.9264 
L 136.488894 375.369963 
L 137.164616 374.268215 
L 138.803133 371.849034 
L 139.222699 371.231122 
L 139.620183 370.572405 
L 140.406318 369.528951 
L 141.91234 367.348773 
L 142.398153 367.47119 
L 142.959047 367.010671 
L 143.745182 365.617456 
L 144.487151 364.189264 
L 144.716809 363.41396 
L 144.880219 362.626998 
L 145.233538 361.61852 
L 145.25562 360.610042 
L 144.995047 359.718151 
L 145.396948 359.222656 
L 145.661937 359.018628 
L 146.081503 357.893563 
L 146.015256 356.890915 
L 146.227247 355.783338 
L 147.008965 351.691132 
L 147.119377 350.344552 
L 147.212124 348.642381 
L 147.472696 347.12092 
L 147.088462 342.358339 
L 146.823473 341.5364 
L 146.699811 340.568727 
L 146.452488 340.09655 
L 146.328826 339.595225 
L 146.439238 338.691676 
L 146.942718 337.764809 
L 147.658189 335.269846 
L 150.422909 330.309067 
L 150.369912 329.778596 
L 149.884098 329.393858 
L 146.227247 327.341926 
L 145.860679 326.968848 
L 144.562232 326.199373 
L 143.122457 325.260847 
L 142.429069 324.957721 
L 138.811966 322.89996 
L 138.321736 322.404465 
L 137.535601 321.833188 
L 135.923584 320.061065 
L 135.508434 319.763768 
L 134.258568 319.29159 
L 133.737423 318.836901 
L 133.242776 318.504628 
L 132.589136 318.329747 
L 131.471765 317.974157 
L 130.875539 317.519467 
L 128.830706 316.715016 
L 127.355599 316.283644 
L 124.882367 315.012845 
L 123.424926 314.051002 
L 123.398427 313.374797 
L 123.482341 313.013377 
L 124.078566 312.045705 
L 126.02182 308.501458 
L 126.419304 307.94767 
L 127.068528 306.50782 
L 127.92091 305.097117 
L 128.406723 304.461717 
L 128.609882 303.529021 
L 129.016198 303.284188 
L 129.519678 302.479737 
L 129.824416 301.791874 
L 130.204233 301.325525 
L 130.804876 300.357853 
L 131.330437 299.716624 
L 131.957579 298.31175 
L 132.182819 298.031941 
L 132.924789 296.323941 
L 134.837128 292.523203 
L 135.530516 290.960936 
L 136.232738 290.29639 
L 136.718551 289.567721 
L 137.416356 287.445837 
L 137.90217 286.629727 
L 138.948877 284.630259 
L 140.388652 281.83217 
L 140.454899 281.342505 
L 140.335654 280.707105 
L 140.401901 280.089194 
L 141.104123 279.22062 
L 141.607602 278.853371 
L 142.309823 278.060579 
L 142.645476 277.250299 
L 143.073876 276.300115 
L 142.95463 275.705521 
L 143.678934 274.906899 
L 144.632895 273.356291 
L 145.308618 272.213738 
L 146.032922 271.047868 
L 146.523152 270.266735 
L 147.004549 268.826884 
L 148.470822 266.43102 
L 149.548445 264.105109 
L 150.175586 263.259853 
L 151.504949 260.741572 
L 152.6974 258.975278 
L 153.165548 257.9668 
L 154.172507 256.462827 
L 155.48862 253.763837 
L 156.725236 251.659441 
L 157.696863 249.467604 
L 158.699406 247.170839 
L 159.962521 245.602743 
L 162.175181 242.21589 
L 162.921567 241.39978 
L 166.671164 235.605404 
L 167.121646 234.130577 
L 168.035858 232.370113 
L 168.587919 231.006044 
L 168.579086 230.930263 
L 169.519798 229.96259 
L 169.983529 228.79672 
L 170.28385 228.132174 
L 170.615087 227.689143 
L 171.056735 226.779764 
L 172.174106 224.687026 
L 172.562757 223.713524 
L 172.712918 223.048978 
L 173.441638 221.67908 
L 174.912328 219.667954 
L 175.300979 218.472936 
L 175.857456 217.324554 
L 176.444849 215.639871 
L 176.701005 214.56727 
L 177.253066 213.30813 
L 177.460641 212.67856 
L 177.915539 212.328799 
L 179.867626 209.507392 
L 180.181197 208.382327 
L 180.773006 207.379678 
L 181.015913 207.09404 
L 181.135158 206.726791 
L 181.797631 205.998122 
L 182.089119 204.832251 
L 182.809006 203.200032 
L 183.312486 201.229711 
L 183.820382 200.314503 
L 184.182534 199.370148 
L 186.691098 195.511116 
L 187.022335 195.138038 
L 187.428651 194.636713 
L 187.918881 193.459184 
L 188.188287 192.87042 
L 188.629936 192.118433 
L 188.978838 191.96687 
L 189.128999 191.652085 
L 190.113875 190.865122 
L 191.195915 189.005559 
L 191.800973 188.341013 
L 192.158709 187.589026 
L 192.348618 186.941968 
L 192.560609 185.991783 
L 193.068505 185.233968 
L 193.457156 184.184684 
L 194.084297 182.896397 
L 194.592193 181.782991 
L 195.347412 180.448069 
L 196.133547 179.229734 
L 198.151881 177.160314 
L 198.443369 176.460792 
L 199.490077 175.03843 
L 199.702068 174.13488 
L 200.921018 172.432709 
L 202.170884 169.99021 
L 202.718528 169.133296 
L 203.553244 168.480408 
L 203.787318 168.025719 
L 204.2378 166.56838 
L 205.05485 164.802087 
L 206.039726 163.42053 
L 206.565288 162.178878 
L 206.931857 161.432721 
L 207.642911 160.365949 
L 207.74449 159.357471 
L 207.572247 158.972734 
L 206.883275 158.453922 
L 205.059266 157.608665 
L 204.078806 157.212269 
L 203.756403 157.095682 
L 203.045348 157.014071 
L 202.347544 156.716774 
L 201.998641 156.775068 
L 200.170216 155.778249 
L 198.699526 155.084556 
L 197.206753 154.274276 
L 196.54428 154.151859 
L 192.834431 152.286466 
L 192.454613 152.222344 
L 190.741016 151.272159 
L 190.153624 150.805811 
L 189.751723 150.625101 
L 189.41607 150.298657 
L 188.797762 150.00136 
L 186.686682 148.841319 
L 185.476564 147.710425 
L 185.123245 147.063366 
L 185.01725 146.439626 
L 184.456356 145.291243 
L 183.904295 144.69082 
L 182.248113 143.221823 
L 182.071453 142.866233 
L 182.044954 142.108417 
L 182.093536 139.356962 
L 181.947791 138.057017 
L 182.177449 137.281713 
L 182.287861 136.028402 
L 182.376191 134.78675 
L 182.385024 133.673343 
L 182.261362 131.842927 
L 181.89921 129.097302 
L 181.819713 128.082994 
L 182.009622 127.4884 
L 182.022872 125.453956 
L 181.877128 122.434352 
L 181.947791 119.333136 
L 181.934542 118.062337 
L 181.983123 117.158787 
L 181.91246 116.261067 
L 182.159783 114.553067 
L 182.115618 113.019947 
L 182.049371 112.90336 
L 182.097952 112.716821 
L 182.07587 112.028957 
L 182.181865 111.434363 
L 182.199531 109.510677 
L 182.168616 108.286513 
L 182.252529 105.453447 
L 182.168616 104.415823 
L 181.802047 103.384027 
L 181.700468 101.903372 
L 181.740217 100.003003 
L 181.855045 98.534006 
L 181.881544 96.417951 
L 181.788798 91.929349 
L 181.855045 91.084093 
L 182.036121 90.646892 
L 181.969874 89.49268 
L 182.208364 88.05283 
L 182.601432 86.630468 
L 183.29482 85.25474 
L 183.86013 83.873184 
L 184.747844 82.118549 
L 185.719471 80.328937 
L 186.368695 78.988186 
L 186.911923 78.195394 
L 188.117623 76.842985 
L 188.378196 76.213414 
L 188.603437 75.595503 
L 189.482318 74.085701 
L 190.15804 73.275421 
L 190.688019 71.92884 
L 191.637563 70.389891 
L 192.194041 69.58544 
L 192.671021 68.308812 
L 193.095004 67.626778 
L 194.459698 65.959583 
L 194.99851 64.921958 
L 196.230709 62.840879 
L 198.160714 58.923555 
L 198.929183 57.920906 
L 200.810606 54.114339 
L 203.314754 49.853082 
L 204.167136 48.314133 
L 204.622034 47.702051 
L 206.697783 43.854678 
L 207.086434 43.248425 
L 208.203805 41.161517 
L 209.162182 39.366076 
L 209.656829 38.153571 
L 210.924361 35.798513 
L 211.193766 34.906622 
L 211.825324 33.635823 
L 211.84299 33.647481 
L 212.916196 33.583359 
L 212.902947 33.670799 
L 212.849949 33.775727 
L 213.044274 33.525065 
L 213.614001 33.058717 
L 214.161645 32.4 
L 214.687207 32.557393 
L 215.367346 32.866348 
L 216.09165 33.064546 
L 224.270983 37.71054 
L 224.655218 37.937885 
L 225.074784 38.054472 
L 225.551765 38.684042 
L 225.587097 39.389394 
L 225.397188 40.304602 
L 224.558055 42.12919 
L 224.164988 43.032739 
L 224.094324 43.155156 
L 224.814211 43.522405 
L 225.476684 43.551552 
L 227.269778 44.204439 
L 227.764424 44.571688 
L 227.936667 44.682446 
L 227.980832 44.997231 
L 227.826255 45.084671 
L 227.689344 45.049695 
L 227.689344 45.049695 
" clip-path="url(#p40ea86719c)" style="fill: none; stroke: #000000; stroke-width: 3"/>
   </g>
  </g>
 </g>
 <defs>
  <clipPath id="p40ea86719c">
   <rect x="7.2" y="7.2" width="278.871544" height="554.4"/>
  </clipPath>
 </defs>
</svg>
