<?xml version="1.0" encoding="utf-8" standalone="no"?>
<!DOCTYPE svg PUBLIC "-//W3C//DTD SVG 1.1//EN"
  "http://www.w3.org/Graphics/SVG/1.1/DTD/svg11.dtd">
<svg xmlns:xlink="http://www.w3.org/1999/xlink" width="336.735148pt" height="568.8pt" viewBox="0 0 336.735148 568.8" xmlns="http://www.w3.org/2000/svg" version="1.1">
 <metadata>
  <rdf:RDF xmlns:dc="http://purl.org/dc/elements/1.1/" xmlns:cc="http://creativecommons.org/ns#" xmlns:rdf="http://www.w3.org/1999/02/22-rdf-syntax-ns#">
   <cc:Work>
    <dc:type rdf:resource="http://purl.org/dc/dcmitype/StillImage"/>
    <dc:date>2023-05-21T05:02:51.947816</dc:date>
    <dc:format>image/svg+xml</dc:format>
    <dc:creator>
     <cc:Agent>
      <dc:title>Matplotlib v3.7.1, https://matplotlib.org/</dc:title>
     </cc:Agent>
    </dc:creator>
   </cc:Work>
  </rdf:RDF>
 </metadata>
 <defs>
  <style type="text/css">*{stroke-linejoin: round; stroke-linecap: butt}</style>
 </defs>
 <g id="figure_1">
  <g id="patch_1">
   <path d="M -0 568.8 
L 336.735148 568.8 
L 336.735148 0 
L -0 0 
z
" style="fill: #ffffff"/>
  </g>
  <g id="axes_1">
   <g id="LineCollection_1">
    <path d="M 49.823289 534.749695 
L 49.661649 534.749695 
L 49.66569 534.813784 
L 49.637403 534.963327 
L 49.584871 534.653561 
L 49.447477 534.391862 
L 49.067625 534.172889 
L 48.332166 533.985961 
L 47.69369 533.70824 
L 46.740018 533.403815 
L 46.618788 532.880417 
L 45.826756 532.778942 
L 40.084517 529.617192 
L 39.761239 529.707986 
L 39.328853 529.355493 
L 38.759075 528.986979 
L 38.641886 528.800051 
L 38.476206 528.757325 
L 38.128681 528.468922 
L 37.902386 528.442218 
L 37.114394 527.801322 
L 36.395099 527.427467 
L 35.962714 527.374059 
L 35.70005 527.026907 
L 35.239378 526.882706 
L 35.190886 526.279196 
L 35.805115 524.805137 
L 36.128394 524.372533 
L 36.682009 522.850407 
L 37.478083 521.349644 
L 37.946837 520.350916 
L 38.94496 518.615158 
L 39.757198 517.504273 
L 41.349345 514.182299 
L 42.016108 513.258342 
L 42.096927 512.825738 
L 42.480821 512.206205 
L 42.880878 511.111343 
L 43.284977 510.582604 
L 44.12146 508.889573 
L 44.432616 508.718667 
L 44.618501 508.440946 
L 44.921575 507.570397 
L 46.053051 505.049542 
L 46.190444 505.124313 
L 46.352083 505.209766 
L 46.364206 505.140336 
L 46.42078 504.926704 
L 47.285551 503.415259 
L 50.421354 497.300051 
L 50.716346 496.648474 
L 51.823576 494.747152 
L 51.9246 494.357274 
L 53.755166 491.596083 
L 53.993584 491.008596 
L 56.005994 487.6706 
L 57.573896 484.77589 
L 57.965871 484.065565 
L 58.515445 482.874568 
L 59.776232 480.764954 
L 60.285396 479.435097 
L 60.539978 479.11999 
L 60.661208 478.751475 
L 61.16229 477.945015 
L 61.356257 477.475025 
L 61.86138 476.775381 
L 62.762519 475.183825 
L 64.831503 471.279705 
L 65.728602 469.928484 
L 68.492635 464.58235 
L 69.563495 462.702391 
L 70.460594 461.190946 
L 71.377897 459.209512 
L 72.424512 457.388301 
L 73.248873 455.871516 
L 73.834815 454.781994 
L 75.980578 451.059461 
L 76.950414 449.564039 
L 77.213078 448.90178 
L 77.601012 448.324975 
L 78.550644 446.557172 
L 79.148709 445.638555 
L 79.64575 444.613123 
L 80.033685 443.876094 
L 81.282349 442.129654 
L 81.767267 441.451373 
L 83.973644 437.408393 
L 84.567669 436.099898 
L 85.355661 434.641862 
L 86.507341 432.719176 
L 86.632612 432.361343 
L 87.060956 431.752492 
L 87.52971 430.582859 
L 88.115653 429.594812 
L 89.279456 427.533266 
L 89.534038 427.271567 
L 89.998751 426.347609 
L 90.564489 425.482401 
L 90.85544 424.793438 
L 91.441383 423.500966 
L 94.83985 417.706205 
L 96.128924 415.083876 
L 97.793809 412.231892 
L 98.856588 409.833876 
L 99.769851 407.900509 
L 100.230523 407.307681 
L 100.545719 406.581333 
L 101.119539 405.817599 
L 101.850957 404.487742 
L 104.065417 400.717141 
L 104.728138 400.065565 
L 105.702015 398.185605 
L 105.997007 397.485961 
L 106.073786 396.919837 
L 106.089949 396.508596 
L 107.504294 394.308189 
L 108.162974 393.261394 
L 108.684261 392.641862 
L 109.080278 391.952899 
L 110.227917 390.014191 
L 110.518868 389.250458 
L 110.789614 388.9941 
L 111.658425 387.220956 
L 112.656548 385.602696 
L 112.652507 385.410427 
L 112.82627 384.790895 
L 112.854557 384.545219 
L 113.189958 384.037843 
L 114.034524 382.595829 
L 114.349721 382.104476 
L 114.571975 381.533011 
L 114.907377 380.758596 
L 116.616713 377.869227 
L 117.109713 376.955951 
L 117.465319 376.389827 
L 117.841131 375.540641 
L 118.16441 374.985198 
L 118.261393 374.723499 
L 118.592754 374.216124 
L 119.780803 372.127874 
L 120.079836 371.70061 
L 120.50818 370.744608 
L 125.021959 363.363632 
L 125.199763 362.861597 
L 125.603861 362.177976 
L 126.618148 360.180519 
L 126.828279 359.726551 
L 127.212173 359.037589 
L 127.684968 358.145677 
L 129.273075 355.090743 
L 129.721624 354.310987 
L 130.40455 352.762157 
L 132.421001 349.269278 
L 132.772567 348.574975 
L 133.758567 346.737742 
L 133.944452 346.540132 
L 134.296018 345.963327 
L 137.500518 340.302085 
L 138.2481 339.073703 
L 138.975477 337.492828 
L 139.306838 336.916022 
L 140.446395 334.453917 
L 141.052543 333.567345 
L 141.61424 332.563276 
L 141.929436 331.810224 
L 142.365863 331.24944 
L 142.450723 330.91297 
L 143.01242 330.03708 
L 143.772125 328.717904 
L 146.899847 323.248932 
L 147.44942 322.202136 
L 148.439461 320.573194 
L 149.348683 318.837436 
L 150.60947 316.450102 
L 151.656085 314.538098 
L 152.411749 313.256307 
L 152.694618 312.5353 
L 153.454323 311.216124 
L 154.569634 309.106511 
L 155.026265 308.465615 
L 160.000717 299.327518 
L 160.942266 297.778688 
L 164.175053 291.845066 
L 164.651889 290.985198 
L 165.605561 289.185351 
L 165.924799 288.400254 
L 166.373348 287.727314 
L 166.963332 286.563021 
L 169.743529 281.97528 
L 170.042562 281.280977 
L 170.430496 280.69883 
L 171.169996 279.326246 
L 171.246775 278.81353 
L 171.351841 278.300814 
L 171.929701 277.729349 
L 173.016726 275.822686 
L 173.93807 274.332604 
L 174.402784 273.355239 
L 177.38503 268.078535 
L 177.63153 267.330824 
L 178.092202 266.641862 
L 178.593284 265.514954 
L 179.292374 264.361343 
L 179.740923 263.538861 
L 180.892604 261.413225 
L 181.793743 259.677467 
L 184.274907 255.575738 
L 185.135637 253.882706 
L 185.511448 253.273856 
L 186.166088 251.879908 
L 186.416629 251.564802 
L 186.812645 250.779705 
L 197.969802 230.639573 
L 198.361777 229.688911 
L 200.782327 225.693998 
L 201.796614 223.6912 
L 203.800942 220.283774 
L 204.815229 218.275636 
L 205.380967 217.29293 
L 205.966909 216.331587 
L 206.645795 215.017752 
L 208.961278 210.777162 
L 209.021893 210.371261 
L 208.965319 209.992065 
L 209.822008 208.726297 
L 210.28268 208.160173 
L 211.749557 205.633978 
L 213.8145 201.761902 
L 214.311541 200.752492 
L 214.477222 200.341251 
L 215.083369 199.577518 
L 216.283541 197.222228 
L 217.176599 195.529196 
L 217.956509 194.268769 
L 218.279787 193.750712 
L 219.19305 192.159156 
L 220.021452 190.209766 
L 223.157255 184.746134 
L 223.541149 184.318871 
L 223.904837 183.800814 
L 225.452534 180.724517 
L 225.375755 180.281231 
L 224.850427 179.608291 
L 223.593681 179.004781 
L 223.359304 178.93001 
L 223.209788 178.705697 
L 222.846099 178.508087 
L 222.623845 178.326501 
L 222.106599 178.176958 
L 221.439837 177.653561 
L 217.370566 175.308952 
L 217.14023 175.111343 
L 216.578533 174.849644 
L 215.095492 174.075229 
L 214.731804 173.551831 
L 215.055082 172.820142 
L 215.265213 172.296745 
L 215.596574 171.581078 
L 216.473468 170.058952 
L 217.111943 168.942726 
L 217.50796 168.216378 
L 217.802951 167.666277 
L 218.029246 167.367192 
L 219.374894 164.947813 
L 219.64564 164.499186 
L 219.803238 163.965107 
L 220.805402 161.914242 
L 221.011493 161.727314 
L 222.365222 159.27589 
L 223.153214 157.908647 
L 224.438247 155.537335 
L 224.769608 154.351679 
L 225.113091 153.459766 
L 225.501026 152.482401 
L 225.836427 151.542421 
L 226.268813 150.92823 
L 227.064887 150.356765 
L 227.335633 150.335402 
L 227.925616 149.897457 
L 228.976272 148.695778 
L 229.251059 148.001475 
L 229.537969 147.659664 
L 229.659198 147.248423 
L 230.11987 146.527416 
L 231.073543 142.943744 
L 231.34833 142.479095 
L 232.609117 141.245371 
L 235.688346 138.783266 
L 236.961256 136.855239 
L 237.579527 135.792421 
L 238.068486 134.665514 
L 238.622101 132.571923 
L 238.816068 131.129908 
L 238.977707 129.789369 
L 239.155511 129.356765 
L 239.56365 129.18586 
L 239.717207 128.98825 
L 240.319314 128.609054 
L 241.244699 127.823957 
L 243.2167 126.670346 
L 244.74015 125.911953 
L 245.617044 125.644914 
L 246.138331 125.345829 
L 247.03947 125.078789 
L 248.914487 124.20824 
L 249.896446 123.690183 
L 251.092577 123.027925 
L 253.751545 121.569888 
L 254.256668 121.425687 
L 256.984332 119.935605 
L 257.752119 119.519023 
L 258.49566 119.097101 
L 260.01507 118.247915 
L 260.710119 117.185097 
L 261.538521 115.72706 
L 261.631463 115.508087 
L 262.015357 115.022075 
L 262.294185 114.24766 
L 262.52048 113.97528 
L 264.157078 110.984435 
L 264.383374 110.493082 
L 265.098628 109.376857 
L 267.927317 103.833113 
L 268.55771 103.021312 
L 269.224472 101.824975 
L 268.383948 104.030722 
L 269.236595 102.070651 
L 269.733636 101.093286 
L 271.495505 98.016989 
L 271.669268 97.942218 
L 271.907686 97.563021 
L 272.566366 97.194507 
L 273.374563 96.249186 
L 274.51412 94.572177 
L 274.59494 94.214344 
L 276.785153 90.117955 
L 277.30644 88.932299 
L 277.342809 88.312767 
L 277.67417 87.265972 
L 278.021694 86.171109 
L 278.490449 85.364649 
L 278.753113 84.665005 
L 278.967285 84.259105 
L 279.322891 83.692981 
L 279.431998 83.110834 
L 280.009859 82.283011 
L 280.567514 81.193489 
L 281.787892 79.660682 
L 281.880834 79.393642 
L 282.636498 78.539115 
L 284.61658 75.975534 
L 285.610662 74.73647 
L 286.572417 73.588199 
L 288.851532 70.891099 
L 289.922392 69.769532 
L 291.482212 67.964344 
L 292.379311 66.757325 
L 292.95313 65.977569 
L 293.017786 66.137792 
L 293.389557 65.892116 
L 293.539073 65.609054 
L 294.686712 64.337945 
L 297.422459 61.646185 
L 298.998442 60.562004 
L 300.17841 59.520549 
L 300.432992 59.451119 
L 300.925992 59.680773 
L 300.934074 59.611343 
L 301.071467 59.354985 
L 301.063385 59.349644 
L 300.978524 59.152035 
L 301.148246 59.32294 
L 301.172492 59.312258 
L 301.115918 59.419074 
L 301.168451 59.429756 
L 301.265434 59.440437 
L 300.934074 59.381689 
L 300.841131 59.472482 
L 300.845172 59.488505 
L 300.998729 59.643388 
L 301.374541 59.910427 
L 303.38291 61.453917 
L 303.892074 61.838454 
L 304.284049 62.212309 
L 305.342787 63.253764 
L 305.613533 63.419329 
L 307.391566 63.745117 
L 311.691173 64.77589 
L 312.00637 65.04293 
L 312.329648 64.973499 
L 312.669091 64.63703 
L 312.964083 63.921363 
L 313.105517 63.104222 
L 313.432837 62.137538 
L 313.541944 61.170855 
L 313.81673 60.209512 
L 313.845017 59.819634 
L 314.119804 59.11999 
L 314.859304 56.454934 
L 314.721911 55.098372 
L 314.612804 53.442726 
L 314.455206 50.868464 
L 314.366304 49.250203 
L 314.273362 48.61999 
L 313.905632 47.94705 
L 312.867099 47.402289 
L 312.309443 47.055137 
L 311.388099 45.201882 
L 310.955714 44.288606 
L 310.470796 43.482146 
L 309.759583 42.09354 
L 309.226173 41.28174 
L 307.767377 39.124059 
L 307.440058 38.541913 
L 307.355197 38.52589 
L 307.084451 38.274873 
L 306.361115 37.735453 
L 305.924689 37.308189 
L 304.874033 36.416277 
L 303.17682 34.899491 
L 301.439197 33.131689 
L 300.562303 32.506816 
L 300.364295 32.4 
L 300.146082 32.437386 
L 299.645 33.035554 
L 297.446704 35.043693 
L 296.759737 35.647202 
L 296.509196 35.876857 
L 296.420294 36.117192 
L 295.668671 36.661953 
L 294.949376 37.238759 
L 292.641974 39.460529 
L 291.676179 40.54471 
L 291.405433 41.607528 
L 290.738671 42.344557 
L 290.463884 43.188403 
L 290.52854 43.204425 
L 290.969007 42.681027 
L 290.969007 42.29115 
L 290.641687 41.853204 
L 290.209302 41.580824 
L 289.688015 41.201628 
L 289.316245 40.795727 
L 286.188523 38.403052 
L 285.679359 38.803611 
L 284.16399 40.117447 
L 283.34367 40.6088 
L 282.579924 41.233672 
L 282.135416 41.730366 
L 281.016064 42.803866 
L 280.430121 43.407375 
L 280.276564 43.904069 
L 280.353342 44.155086 
L 280.555391 44.374059 
L 280.818055 44.438149 
L 281.379752 44.203154 
L 281.521187 43.984181 
L 281.496941 43.663733 
L 281.117088 42.729095 
L 281.513105 42.243082 
L 283.303261 40.582096 
L 283.800302 40.266989 
L 284.337752 40.015972 
L 285.036843 39.492574 
L 285.950105 38.691455 
L 286.224892 38.622024 
L 286.564335 38.776907 
L 286.923982 39.220193 
L 287.877654 39.946541 
L 288.528253 40.560732 
L 290.459843 42.371261 
L 290.754835 42.435351 
L 291.255917 42.22706 
L 291.623647 41.725025 
L 292.201507 40.635504 
L 293.749204 38.840997 
L 295.442376 37.2441 
L 295.797983 36.800814 
L 296.432417 36.277416 
L 297.935663 34.963581 
L 298.974196 34.130417 
L 300.319844 32.934079 
L 300.586549 32.886012 
L 300.845172 33.019532 
L 301.309885 33.585656 
L 301.507893 33.713835 
L 303.108123 35.828789 
L 304.744721 37.158647 
L 305.201353 37.51648 
L 306.102492 38.280214 
L 306.445976 38.686114 
L 306.724804 39.343032 
L 306.344951 39.818362 
L 306.009549 40.245626 
L 302.93032 44.267243 
L 302.691902 44.213835 
L 301.261393 43.124313 
L 299.527811 41.682299 
L 299.091385 41.474008 
L 298.052852 41.068108 
L 296.44454 40.902543 
L 295.115057 41.068108 
L 294.355352 41.372533 
L 293.676466 41.703662 
L 291.983294 43.423398 
L 291.138728 44.304629 
L 290.168892 45.319379 
L 289.837532 45.751984 
L 289.494048 46.168566 
L 288.3949 47.135249 
L 287.025007 48.384995 
L 286.192564 49.287589 
L 285.840998 49.848372 
L 285.23081 50.537335 
L 285.073212 50.820397 
L 284.434736 51.317091 
L 284.438777 51.536063 
L 284.802466 51.797762 
L 285.044925 51.776399 
L 284.883285 51.183571 
L 284.794384 50.916531 
L 285.133826 50.526653 
L 286.119826 49.581333 
L 287.445269 48.08591 
L 287.659441 48.267497 
L 287.32404 49.255544 
L 287.247261 49.981892 
L 287.663482 51.883215 
L 287.837245 52.9941 
L 288.6414 55.333367 
L 289.643564 55.995626 
L 290.544704 56.369481 
L 291.603442 56.83413 
L 292.516704 57.175941 
L 297.268901 59.467141 
L 297.410336 59.600661 
L 297.38609 59.435097 
L 297.515401 59.531231 
L 297.543688 59.467141 
L 297.652795 59.248169 
L 298.57818 58.949084 
L 299.661164 57.768769 
L 299.960196 57.597864 
L 300.954279 56.492319 
L 302.764639 54.847355 
L 303.528385 54.211801 
L 303.920361 53.795219 
L 304.393156 53.410682 
L 304.853828 52.689674 
L 305.201353 52.278433 
L 305.484222 51.455951 
L 305.407443 50.825738 
L 305.213476 48.28352 
L 305.136697 47.776144 
L 305.152861 47.455697 
L 303.928443 45.623805 
L 303.003057 44.635758 
L 302.869705 44.384741 
L 302.202943 44.016226 
L 299.463155 41.714344 
L 299.014606 41.559461 
L 298.481196 41.746389 
L 298.069016 42.29115 
L 297.034524 43.498169 
L 296.808229 43.658393 
L 296.703163 43.77589 
L 296.990073 44.133723 
L 298.549893 45.906867 
L 298.533729 46.083113 
L 296.848639 47.808189 
L 295.563606 48.182045 
L 295.321147 48.336928 
L 295.284778 48.518515 
L 294.79986 49.073957 
L 293.409761 50.403815 
L 292.973335 50.921872 
L 293.126893 52.219685 
L 293.227917 52.331841 
L 293.328942 52.823194 
L 293.587565 52.972737 
L 293.935089 52.983418 
L 294.335147 53.06353 
L 294.630139 53.13296 
L 295.042319 53.015463 
L 295.329229 52.705697 
L 296.351598 51.525381 
L 297.103221 51.231638 
L 298.149836 51.028688 
L 299.374254 50.515972 
L 300.315803 50.158138 
L 301.225024 49.784283 
L 301.297762 50.280977 
L 301.132082 50.868464 
L 301.225024 51.226297 
L 301.487688 51.653561 
L 301.398787 52.038098 
L 300.663328 52.732401 
L 299.77027 53.207731 
L 299.305557 53.784537 
L 297.620467 55.306663 
L 296.590016 56.620498 
L 296.262696 56.956968 
L 295.098893 57.945015 
L 295.074647 57.934334 
L 295.074647 57.955697 
L 294.779655 58.131943 
L 294.618016 58.121261 
L 294.18563 57.838199 
L 293.575442 57.667294 
L 293.231958 57.464344 
L 292.290409 57.207986 
L 291.231671 56.791404 
L 290.702302 56.198576 
L 291.090237 55.514954 
L 292.169179 53.853967 
L 292.359106 53.693744 
L 293.070319 52.759105 
L 293.191548 52.636267 
L 293.187507 52.438657 
L 293.029909 52.438657 
L 292.82786 52.897965 
L 291.898433 54.574975 
L 291.740835 54.761902 
L 291.106401 55.114395 
L 290.722507 55.611089 
L 290.330532 56.059715 
L 290.027458 56.198576 
L 289.360695 55.867447 
L 288.782835 55.365412 
L 288.128195 54.34532 
L 287.998884 52.871261 
L 288.132236 52.65763 
L 288.568663 52.347864 
L 290.079991 50.734944 
L 290.989212 49.720193 
L 292.528827 48.21409 
L 293.122852 47.562513 
L 293.878516 46.809461 
L 293.991663 46.60117 
L 294.484663 46.147202 
L 294.848352 45.623805 
L 296.545565 44.016226 
L 296.711245 44.160427 
L 297.571975 44.85473 
L 298.311475 45.735961 
L 299.584385 46.809461 
L 300.849213 48.075229 
L 301.091672 48.203408 
L 301.20886 48.475788 
L 301.301803 51.007325 
L 301.346254 51.338454 
L 301.665492 51.637538 
L 301.556385 51.434588 
L 301.427074 50.825738 
L 301.479606 50.686877 
L 301.3705 50.243591 
L 301.423033 49.76826 
L 301.520016 49.116684 
L 301.018934 47.220702 
L 301.229065 46.73469 
L 301.418992 46.350153 
L 302.31609 45.271312 
L 302.497934 44.892116 
L 303.059631 44.860071 
L 304.300213 46.408901 
L 304.692189 47.044456 
L 305.593328 51.642879 
L 305.726681 52.443998 
L 305.678189 52.32116 
L 305.936812 52.102187 
L 306.599533 51.183571 
L 306.99555 50.77767 
L 307.387525 50.355748 
L 307.844156 50.056663 
L 308.219968 49.746897 
L 309.205968 48.89237 
L 310.204091 48.427721 
L 310.870853 47.979095 
L 310.975919 47.776144 
L 310.891058 47.808189 
L 310.28491 48.101933 
L 309.70705 48.427721 
L 309.367607 48.764191 
L 308.878648 49.218159 
L 308.345238 49.597355 
L 307.872443 50.019278 
L 307.670394 50.029959 
L 307.431976 49.923143 
L 307.181435 50.307681 
L 307.112738 50.382452 
L 307.092533 50.569379 
L 306.825828 50.825738 
L 306.777336 50.97528 
L 306.441935 51.162208 
L 306.122697 51.386521 
L 305.451894 51.744354 
L 305.169025 52.171617 
L 303.997139 53.309207 
L 304.191107 53.19705 
L 304.441648 52.764446 
L 305.702435 51.621516 
L 305.783254 51.776399 
L 306.138861 52.369227 
L 306.292418 52.780468 
L 306.437894 52.903306 
L 306.959181 52.614903 
L 308.021959 51.423906 
L 308.717009 50.783011 
L 309.799992 49.773601 
L 310.798115 49.106002 
L 312.107394 48.101933 
L 312.49937 47.845575 
L 312.527657 47.578535 
L 311.873017 47.776144 
L 311.456796 48.224771 
L 310.935509 48.331587 
L 308.769542 49.581333 
L 308.244214 49.896439 
L 307.274377 50.70824 
L 306.91473 51.258342 
L 306.126738 51.9206 
L 303.879951 54.046236 
L 303.104082 55.08235 
L 300.938115 57.475025 
L 300.67141 57.77411 
L 300.655246 57.880926 
L 300.089508 58.431027 
L 298.760024 59.461801 
L 298.521606 59.702136 
L 297.911418 59.755544 
L 296.949663 59.114649 
L 296.505155 58.938403 
L 295.818188 58.628637 
L 297.216368 59.376348 
L 297.418418 59.552594 
L 297.244655 59.579298 
L 297.050688 59.787589 
L 296.509196 60.310987 
L 296.189958 60.545982 
L 294.913007 62.14822 
L 292.908679 64.177721 
L 292.50054 64.866684 
L 291.874188 66.030977 
L 291.288245 66.730621 
L 290.770999 67.259359 
L 290.092114 67.585148 
L 280.571555 77.930264 
L 279.124883 79.65 
L 278.70058 80.216124 
L 278.450039 80.333622 
L 278.300522 80.627365 
L 276.680088 82.224262 
L 275.871891 83.116175 
L 275.423342 83.602187 
L 274.817194 84.002747 
L 274.174678 84.376602 
L 274.312071 84.371261 
L 274.287825 84.456714 
L 271.838989 86.673143 
L 267.268636 89.690692 
L 267.066587 89.712055 
L 261.41325 92.4412 
L 260.447455 92.799034 
L 260.172668 92.943235 
L 259.534193 93.04471 
L 257.436922 94.038098 
L 254.749668 94.988759 
L 254.18393 95.234435 
L 253.593946 95.448067 
L 242.153921 100.879654 
L 241.802355 100.927721 
L 240.921421 101.467141 
L 239.870765 101.873042 
L 236.686469 103.41119 
L 235.207469 104.142879 
L 234.6781 104.335148 
L 230.507805 106.466124 
L 230.030969 106.823957 
L 228.572174 107.625076 
L 227.691239 108.068362 
L 223.815935 110.893642 
L 221.20546 113.029959 
L 220.368976 114.066073 
L 219.936591 114.546745 
L 218.316156 117.623042 
L 218.053492 119.476297 
L 218.380812 123.764954 
L 217.697886 127.279196 
L 214.234762 135.167548 
L 213.604369 137.282503 
L 212.658779 140.155849 
L 212.505221 141.117192 
L 212.060713 142.575229 
L 210.997934 145.347101 
L 210.28268 146.655595 
L 208.395541 151.87355 
L 207.668164 153.454425 
L 206.981196 154.837691 
L 206.981196 155.200865 
L 206.758942 155.403815 
L 206.015401 157.620244 
L 205.348639 159.564293 
L 202.734122 168.702391 
L 201.909761 170.886775 
L 201.663261 171.543693 
L 200.450966 174.673398 
L 199.634687 177.023347 
L 199.460925 177.5147 
L 199.190179 178.214344 
L 198.543622 180.179756 
L 198.115277 181.21587 
L 196.603949 185.130671 
L 196.325122 185.969176 
L 195.718974 187.539369 
L 194.910777 188.703662 
L 194.947146 188.933316 
L 194.029843 190.610326 
L 192.567006 192.046999 
L 191.277933 193.569125 
L 190.894039 194.113886 
L 190.287891 194.87762 
L 187.685498 197.809715 
L 187.144006 198.306409 
L 186.901547 198.957986 
L 186.784358 199.641607 
L 186.121637 201.510885 
L 185.786235 202.664496 
L 185.507407 203.588454 
L 184.94167 206.627365 
L 184.432506 208.624822 
L 184.20217 209.842523 
L 183.575817 212.352696 
L 182.650432 216.331587 
L 182.35544 217.704171 
L 182.092776 218.50529 
L 182.173596 218.97528 
L 181.708883 221.202391 
L 181.797784 221.46409 
L 181.652309 221.928739 
L 181.559366 222.564293 
L 181.28862 223.739268 
L 181.199719 224.417548 
L 180.989587 225.010376 
L 180.706718 226.158647 
L 180.823907 226.842269 
L 180.87644 227.136012 
L 180.706718 228.054629 
L 180.585489 230.506053 
L 180.625899 232.284537 
L 180.609735 233.026907 
L 179.773251 235.003001 
L 178.520546 237.246134 
L 178.407399 237.587945 
L 177.96289 238.191455 
L 176.823333 240.322431 
L 176.431357 241.032757 
L 175.643366 242.490793 
L 174.831128 244.023601 
L 174.366415 244.6912 
L 174.01889 245.481638 
L 173.594587 246.202645 
L 173.146037 246.91297 
L 172.038808 249.182808 
L 170.345636 252.734435 
L 168.915127 255.319379 
L 168.373635 256.33413 
L 167.379553 258.064547 
L 165.496455 261.156867 
L 163.843692 264.377365 
L 162.506127 266.705951 
L 161.079659 268.965107 
L 160.582618 270.033266 
L 160.029004 270.999949 
L 157.875159 274.818616 
L 157.394282 275.635758 
L 156.093085 278.033774 
L 154.824216 280.244863 
L 154.056429 281.473245 
L 153.797806 281.959257 
L 153.466446 282.455951 
L 152.2097 284.950102 
L 151.264109 286.627111 
L 151.06206 287.171872 
L 150.726658 287.754018 
L 146.225002 295.791913 
L 145.602691 296.982909 
L 145.142019 297.741302 
L 141.876904 303.541404 
L 140.923231 304.9941 
L 139.884698 307.087691 
L 139.500805 307.787335 
L 136.166993 314.265717 
L 135.74269 314.986724 
L 135.08805 316.076246 
L 133.718157 318.500966 
L 133.11605 319.846846 
L 132.37655 321.112614 
L 132.008821 321.75885 
L 126.597943 331.612614 
L 126.327197 331.927721 
L 125.838238 333.070651 
L 125.555369 333.369736 
L 125.06641 334.427213 
L 124.351156 335.719685 
L 123.619738 336.841251 
L 122.690312 338.406104 
L 122.043754 339.714598 
L 121.692189 340.291404 
L 121.526508 340.675941 
L 121.073918 341.113886 
L 120.738516 341.754781 
L 120.564754 341.931027 
L 119.893951 343.618718 
L 118.3705 346.016734 
L 118.107836 346.780468 
L 114.794229 352.51648 
L 111.937253 357.857274 
L 110.902761 359.646439 
L 110.389556 360.511648 
L 109.66622 361.846846 
L 108.470089 363.988505 
L 106.065704 368.261139 
L 105.451474 368.944761 
L 103.641113 371.866175 
L 103.435023 371.994354 
L 103.273384 372.688657 
L 103.01072 373.212055 
L 102.489433 374.493845 
L 102.214646 374.771567 
L 101.907531 374.921109 
L 101.648908 375.588708 
L 101.463023 376.293693 
L 100.59017 377.837182 
L 100.05676 378.648983 
L 99.264728 379.90941 
L 98.913162 380.705188 
L 98.743441 380.892116 
L 98.387834 381.730621 
L 97.963531 382.521058 
L 97.67258 383.044456 
L 96.173375 386.270295 
L 95.542981 387.520041 
L 94.847932 388.577518 
L 93.312358 391.434842 
L 92.20917 393.410936 
L 92.152596 393.608545 
L 91.845481 394.014446 
L 87.768128 401.507579 
L 87.226636 402.351424 
L 86.947808 402.768006 
L 86.636653 403.724008 
L 86.030505 404.599898 
L 85.982013 404.925687 
L 85.678939 405.304883 
L 85.226349 406.079298 
L 84.123161 407.948576 
L 83.254349 409.748423 
L 80.894414 414.191963 
L 80.554972 414.886267 
L 79.93266 415.863632 
L 78.86584 418.144151 
L 78.813308 418.453917 
L 78.049562 419.596846 
L 75.123889 424.579807 
L 75.010742 425.017752 
L 74.457127 426.144659 
L 73.293324 428.09939 
L 71.927471 430.385249 
L 71.830487 430.839217 
L 71.333446 431.565565 
L 70.925307 432.313276 
L 70.759627 432.788606 
L 68.989676 435.742065 
L 68.326954 437.007833 
L 67.583413 438.230875 
L 66.136741 440.917294 
L 64.758765 444.730621 
L 64.661782 447.368973 
L 64.750683 447.721465 
L 64.49206 449.425178 
L 64.229397 449.943235 
L 64.395077 450.151526 
L 64.479938 450.995371 
L 64.144536 453.986216 
L 64.140495 455.22528 
L 63.695987 457.121261 
L 63.497978 457.617955 
L 63.324216 458.232146 
L 62.6817 459.73825 
L 62.02706 461.82116 
L 61.808847 462.173652 
L 61.530019 463.012157 
L 60.883462 464.17645 
L 60.337929 464.929502 
L 59.206453 467.076501 
L 58.070937 469.132706 
L 56.115101 472.668311 
L 55.472584 473.795219 
L 54.737125 474.852696 
L 54.615896 475.295982 
L 54.357273 475.669837 
L 54.009748 476.49766 
L 52.781289 478.404323 
L 52.061994 479.889064 
L 51.556871 480.529959 
L 50.942641 482.14822 
L 50.679977 482.399237 
L 50.36074 483.02411 
L 49.932395 483.702391 
L 49.512133 484.418057 
L 49.374739 484.615666 
L 49.41919 484.856002 
L 49.112075 484.904069 
L 48.26751 486.778688 
L 47.944231 487.019023 
L 47.2411 488.017752 
L 46.87337 488.754781 
L 46.154075 490.218159 
L 45.652993 490.933825 
L 44.856919 492.301068 
L 42.76369 496.440183 
L 42.646501 496.792675 
L 42.080763 497.332096 
L 41.628173 498.03174 
L 40.872509 500.007833 
L 40.436083 500.563276 
L 40.068353 501.156104 
L 39.761239 501.642116 
L 39.680419 501.930519 
L 39.454124 502.186877 
L 39.490493 502.731638 
L 38.936878 503.383215 
L 38.569148 504.002747 
L 36.835566 507.474262 
L 36.419345 508.115158 
L 36.047574 508.675941 
L 35.914222 509.306155 
L 35.623271 509.941709 
L 34.419058 511.859054 
L 33.962427 512.756307 
L 32.507672 514.951373 
L 32.378361 515.346592 
L 31.994467 515.971465 
L 31.586328 516.697813 
L 30.644779 518.075738 
L 30.159861 518.823449 
L 30.006303 519.23469 
L 29.234475 520.388301 
L 27.836295 522.540641 
L 27.07659 523.619481 
L 25.266229 526.466124 
L 22.720409 531.107274 
L 22.199122 532.250203 
L 21.960704 532.490539 
L 21.851598 532.789624 
L 21.896048 533.115412 
L 22.102139 533.323703 
L 22.748696 533.467904 
L 24.429745 534.220956 
L 24.878295 534.274364 
L 26.05018 535.198321 
L 26.975565 535.66297 
L 27.436237 536.036826 
L 28.903115 536.4 
L 29.319336 535.988759 
L 30.656902 533.729603 
L 30.85491 533.633469 
L 31.372156 533.815056 
L 33.089574 535.011394 
L 33.057246 534.974008 
L 33.226968 534.797762 
L 33.202722 534.760376 
L 33.206763 534.589471 
L 33.489631 534.279705 
L 33.457304 534.402543 
L 33.509836 534.407884 
L 33.493672 534.407884 
" clip-path="url(#p2dc2e02941)" style="fill: none; stroke: #000000; stroke-width: 3"/>
   </g>
  </g>
 </g>
 <defs>
  <clipPath id="p2dc2e02941">
   <rect x="7.2" y="7.2" width="322.335148" height="554.4"/>
  </clipPath>
 </defs>
</svg>
