<?xml version="1.0" encoding="utf-8" standalone="no"?>
<!DOCTYPE svg PUBLIC "-//W3C//DTD SVG 1.1//EN"
  "http://www.w3.org/Graphics/SVG/1.1/DTD/svg11.dtd">
<svg xmlns:xlink="http://www.w3.org/1999/xlink" width="284.702943pt" height="568.8pt" viewBox="0 0 284.702943 568.8" xmlns="http://www.w3.org/2000/svg" version="1.1">
 <metadata>
  <rdf:RDF xmlns:dc="http://purl.org/dc/elements/1.1/" xmlns:cc="http://creativecommons.org/ns#" xmlns:rdf="http://www.w3.org/1999/02/22-rdf-syntax-ns#">
   <cc:Work>
    <dc:type rdf:resource="http://purl.org/dc/dcmitype/StillImage"/>
    <dc:date>2023-05-22T05:03:01.934659</dc:date>
    <dc:format>image/svg+xml</dc:format>
    <dc:creator>
     <cc:Agent>
      <dc:title>Matplotlib v3.7.1, https://matplotlib.org/</dc:title>
     </cc:Agent>
    </dc:creator>
   </cc:Work>
  </rdf:RDF>
 </metadata>
 <defs>
  <style type="text/css">*{stroke-linejoin: round; stroke-linecap: butt}</style>
 </defs>
 <g id="figure_1">
  <g id="patch_1">
   <path d="M 0 568.8 
L 284.702943 568.8 
L 284.702943 0 
L 0 0 
z
" style="fill: #ffffff"/>
  </g>
  <g id="axes_1">
   <g id="LineCollection_1">
    <path d="M 225.731072 32.4 
L 226.813949 32.594197 
L 226.896957 32.653949 
L 229.145718 33.734479 
L 229.145718 33.883861 
L 229.858831 34.406698 
L 229.817328 34.800071 
L 231.647276 35.596775 
L 231.971761 35.681425 
L 232.662236 35.586816 
L 233.054638 35.546981 
L 233.050865 35.546981 
L 233.198015 35.571878 
L 233.194242 35.571878 
L 233.379123 35.681425 
L 233.413081 35.696363 
L 233.141419 35.482249 
L 233.356485 35.22332 
L 234.077145 34.790112 
L 234.960047 33.196704 
L 235.18266 32.887981 
L 235.401499 32.907899 
L 235.601473 33.166828 
L 236.876776 33.659788 
L 238.631263 34.157728 
L 239.5934 34.376822 
L 241.800657 35.417517 
L 243.55137 36.423356 
L 244.355038 36.607594 
L 244.834221 36.856564 
L 245.094564 37.195163 
L 245.471873 37.46903 
L 245.834089 37.927135 
L 246.95847 38.574457 
L 248.041346 38.977788 
L 248.80351 39.425934 
L 250.735331 39.908936 
L 253.312351 40.979507 
L 255.768632 42.468348 
L 256.100663 42.742215 
L 256.738315 44.056777 
L 257.040163 45.396236 
L 257.425018 47.183841 
L 257.945704 48.51832 
L 258.745599 49.758191 
L 259.198369 50.131646 
L 260.202011 51.252011 
L 261.462223 52.442088 
L 262.001774 53.522618 
L 262.662065 54.344219 
L 263.567606 55.439687 
L 264.737264 56.66462 
L 265.19758 57.282065 
L 265.205127 57.74515 
L 264.925918 58.019017 
L 262.616788 63.531213 
L 262.511141 63.9694 
L 261.25093 66.145399 
L 260.564227 67.659136 
L 259.085177 70.328095 
L 257.534437 73.734005 
L 256.960928 74.85437 
L 256.46288 75.511651 
L 255.134753 77.981434 
L 254.66689 78.524189 
L 253.010504 81.511829 
L 252.006862 83.055443 
L 252.010635 83.394043 
L 251.395622 84.668769 
L 250.603273 85.833949 
L 247.505567 91.052361 
L 246.966016 91.779353 
L 246.758496 92.506346 
L 244.815355 95.782791 
L 244.63802 96.53966 
L 244.400315 96.773692 
L 244.060737 97.480767 
L 243.657017 98.083275 
L 243.374035 98.685782 
L 243.042003 99.243475 
L 241.993085 101.688361 
L 239.729232 105.632046 
L 239.487754 106.324183 
L 237.85778 109.177379 
L 233.816802 116.362654 
L 233.352712 117.049812 
L 232.262289 118.588447 
L 232.081181 119.06149 
L 231.685006 119.599265 
L 231.541629 119.942844 
L 231.281286 120.231649 
L 230.383291 122.059089 
L 229.862605 122.686493 
L 229.360784 123.921385 
L 229.243818 124.37949 
L 228.813686 125.071626 
L 227.960968 126.605282 
L 227.711944 127.521491 
L 227.285585 128.372969 
L 226.817722 129.104941 
L 226.330994 129.797078 
L 225.848038 130.379667 
L 225.225479 131.430321 
L 224.535003 132.331593 
L 223.572866 134.159033 
L 222.610728 135.5931 
L 221.607086 137.739222 
L 220.875107 138.784896 
L 217.969829 144.570959 
L 217.54347 145.795892 
L 217.052968 146.47309 
L 216.683206 147.593456 
L 216.075738 148.46983 
L 215.732387 149.659907 
L 215.766345 149.998506 
L 215.47959 150.591055 
L 214.992862 150.87986 
L 214.807981 151.233398 
L 214.630645 151.621791 
L 214.532545 151.990266 
L 214.121278 152.662486 
L 213.774154 153.36956 
L 213.261014 153.95713 
L 212.51017 154.733916 
L 212.185684 155.421074 
L 211.993256 156.148066 
L 211.37447 157.024441 
L 211.16695 157.263452 
L 210.759456 158.080074 
L 210.423652 158.553117 
L 210.057662 159.210397 
L 209.842596 159.309985 
L 209.801092 159.648585 
L 208.529561 162.108409 
L 208.506922 162.566514 
L 208.33336 162.601369 
L 208.378637 163.203877 
L 208.114521 163.622146 
L 207.740985 163.881075 
L 207.778716 164.189798 
L 207.608927 164.498521 
L 207.05051 164.936708 
L 206.688294 165.643783 
L 206.337396 166.08197 
L 205.526182 167.406491 
L 205.073412 168.038875 
L 204.503675 169.378334 
L 204.503675 169.761748 
L 203.986762 170.165079 
L 203.809427 171.275485 
L 203.673596 171.594167 
L 202.873701 172.455603 
L 202.285099 173.386751 
L 201.4437 175.39345 
L 200.640033 175.801761 
L 200.72304 176.200113 
L 200.492882 176.55365 
L 200.028792 176.942043 
L 199.44019 178.186894 
L 199.093066 178.908907 
L 198.417683 179.864952 
L 198.349768 180.70647 
L 198.013963 181.358772 
L 197.206522 181.976217 
L 197.017867 182.718148 
L 196.836759 182.996995 
L 196.523593 183.723987 
L 195.991587 184.739785 
L 194.893618 186.44274 
L 194.448394 187.204588 
L 194.301243 187.428661 
L 193.550399 187.777219 
L 193.007074 188.215407 
L 192.86747 188.593841 
L 192.886335 188.982234 
L 192.682588 189.813794 
L 192.331691 190.461116 
L 191.992113 191.227944 
L 191.290319 192.263659 
L 190.75454 193.329251 
L 190.154619 194.509369 
L 189.203801 196.07788 
L 188.901954 196.501129 
L 188.947231 196.715243 
L 188.411452 197.038905 
L 187.781346 198.781695 
L 187.800212 199.145191 
L 186.407942 202.048182 
L 185.947625 203.113773 
L 185.56277 203.661507 
L 185.509947 203.965251 
L 185.25715 204.184345 
L 185.106226 204.478129 
L 184.84211 204.652408 
L 184.272374 205.877341 
L 183.804511 206.420095 
L 183.480025 206.484828 
L 183.197043 207.042521 
L 182.763138 207.650007 
L 182.506568 208.202721 
L 181.933059 209.626829 
L 181.759497 210.189502 
L 181.272768 211.255094 
L 180.287992 213.231916 
L 179.767306 213.650185 
L 179.450366 214.760592 
L 178.590102 215.816225 
L 178.378809 215.786348 
L 178.069416 216.453588 
L 177.778888 216.702558 
L 177.522318 217.479344 
L 176.895985 218.878556 
L 176.729969 218.998062 
L 176.541315 219.615507 
L 176.292291 220.058674 
L 175.107541 222.543395 
L 174.179361 223.892812 
L 173.760549 224.515238 
L 173.500205 224.818981 
L 173.285139 225.794944 
L 173.009704 226.591648 
L 171.523107 228.98176 
L 171.281629 229.225751 
L 170.323265 231.018335 
L 169.323396 232.561949 
L 169.10833 233.269024 
L 168.576325 234.483998 
L 168.259385 234.693133 
L 168.006588 235.235887 
L 167.097274 236.714769 
L 166.901073 237.357112 
L 166.614319 238.074146 
L 166.135136 238.756324 
L 163.810914 243.008732 
L 162.086612 245.503411 
L 160.645292 248.227144 
L 160.290622 248.884425 
L 159.754843 249.402282 
L 159.381307 250.218904 
L 159.060595 250.487792 
L 158.958722 250.691947 
L 158.464447 251.174949 
L 158.038088 252.111076 
L 157.60041 253.042224 
L 156.657137 254.785014 
L 155.974208 256.378423 
L 155.936477 256.806651 
L 155.578034 257.050642 
L 155.27996 257.668087 
L 154.6574 259.316269 
L 154.306503 259.714621 
L 153.989564 260.073138 
L 152.585975 262.846664 
L 152.118112 263.240037 
L 151.748349 264.733857 
L 151.129562 265.859202 
L 150.148559 268.045158 
L 149.544865 268.358861 
L 149.303388 268.508243 
L 148.684601 269.932351 
L 148.322384 270.953128 
L 148.205419 271.296707 
L 147.088584 272.113329 
L 146.805603 272.905053 
L 146.447159 274.42875 
L 146.13022 274.612988 
L 145.730273 274.67772 
L 145.171855 275.668621 
L 144.088979 277.969104 
L 143.745628 278.108527 
L 143.496604 278.382394 
L 142.462778 280.762548 
L 142.285443 280.931847 
L 142.2213 281.300323 
L 140.934677 283.73525 
L 140.663014 284.477181 
L 140.353621 285.293802 
L 139.70465 286.205033 
L 139.187737 287.31046 
L 138.014306 289.615922 
L 137.757736 289.974439 
L 137.414385 290.845834 
L 136.727683 291.88155 
L 136.233408 293.071626 
L 135.871192 293.823516 
L 135.456152 294.500714 
L 135.052431 295.20281 
L 134.897735 295.561327 
L 134.45251 296.079184 
L 134.426099 296.577124 
L 133.509238 297.637737 
L 132.320715 300.256902 
L 131.864172 300.819574 
L 131.811348 301.521669 
L 131.554778 301.68101 
L 131.426493 301.93496 
L 130.902034 302.293476 
L 130.441717 302.223765 
L 129.970081 301.925001 
L 129.702192 302.2636 
L 129.336202 302.328332 
L 129.075859 302.866107 
L 128.898524 304.330051 
L 128.913616 304.389804 
L 128.079764 305.520128 
L 127.728866 305.604778 
L 126.84219 306.316832 
L 126.562982 306.869546 
L 126.374327 307.058763 
L 125.92533 307.969993 
L 125.498971 308.507768 
L 125.144301 309.189946 
L 124.661345 309.727722 
L 124.480237 310.444755 
L 124.261398 310.693725 
L 123.982189 311.4008 
L 123.231345 312.760177 
L 122.820078 313.631572 
L 122.563508 314.089677 
L 121.846621 314.966051 
L 121.597597 315.563579 
L 121.031634 315.897199 
L 120.548678 316.893079 
L 120.307201 317.639989 
L 120.065723 317.819248 
L 119.662003 318.864922 
L 118.71873 320.587795 
L 117.469838 321.653386 
L 116.752951 322.499884 
L 116.651078 322.883298 
L 115.587067 324.471727 
L 115.48142 324.870079 
L 115.198439 325.497484 
L 108.689861 335.864596 
L 108.331417 336.088669 
L 108.206905 336.023937 
L 107.361733 337.497839 
L 106.226034 339.439806 
L 105.705348 340.042313 
L 104.713025 341.640701 
L 104.641336 342.039053 
L 104.305532 342.72621 
L 103.437721 343.707152 
L 103.290571 344.075628 
L 103.030228 344.105504 
L 103.04532 344.334556 
L 102.592549 344.71797 
L 102.396349 345.499736 
L 102.158644 345.783562 
L 101.807747 345.957841 
L 101.539858 346.21677 
L 101.181414 346.764504 
L 101.000306 346.983598 
L 100.517351 347.103103 
L 100.166453 347.003515 
L 100.147588 347.147918 
L 100.313604 347.431744 
L 100.207957 348.263304 
L 99.85706 348.975358 
L 100.257007 349.418525 
L 101.55495 350.464199 
L 101.487034 350.797819 
L 101.837932 351.171274 
L 102.807615 351.903246 
L 103.249067 352.127319 
L 103.403763 352.306577 
L 103.626376 352.391227 
L 103.981046 352.764682 
L 104.267801 352.839373 
L 104.380993 353.078384 
L 104.769622 353.546448 
L 105.199754 353.979656 
L 106.656166 355.448579 
L 109.331286 357.624577 
L 110.519809 358.869427 
L 111.017856 359.2628 
L 112.164875 360.393124 
L 112.172422 360.58732 
L 111.180099 361.852088 
L 110.821656 362.479493 
L 110.504716 363.485332 
L 109.995349 364.272077 
L 107.98052 368.096257 
L 107.214583 369.590077 
L 106.64862 370.162708 
L 106.59957 370.341966 
L 106.131707 370.864803 
L 105.844952 371.437434 
L 105.452551 372.025004 
L 105.180888 372.582697 
L 104.452682 373.508865 
L 104.075373 374.041661 
L 103.690518 374.584416 
L 103.39999 374.733798 
L 103.294344 375.037541 
L 103.298117 375.430914 
L 102.588776 376.556258 
L 101.883209 377.347983 
L 100.173999 380.460108 
L 99.74764 381.401215 
L 99.132627 382.163064 
L 99.02698 382.511622 
L 98.038431 383.910833 
L 97.891281 384.279309 
L 97.461149 384.488444 
L 97.076294 385.623747 
L 96.849908 386.335801 
L 96.687665 386.659462 
L 96.438642 386.893494 
L 96.317903 387.311764 
L 94.66529 389.761629 
L 94.363443 389.906032 
L 94.133284 390.369116 
L 93.635237 391.638863 
L 93.01645 392.629764 
L 92.582545 393.132683 
L 92.382571 393.381653 
L 92.095817 393.560912 
L 91.850566 394.15844 
L 90.895974 395.029835 
L 90.360196 395.766786 
L 89.971568 396.513696 
L 89.552755 397.076369 
L 89.356554 397.614144 
L 89.099984 397.773485 
L 88.613256 398.72953 
L 87.447371 400.183515 
L 86.866316 400.497217 
L 86.255075 401.488118 
L 86.115471 401.861573 
L 85.843809 402.13046 
L 85.583465 402.892309 
L 85.25898 403.539631 
L 84.63642 404.784481 
L 84.459085 405.571226 
L 83.855391 406.049249 
L 82.881934 407.393687 
L 82.289559 407.9464 
L 81.8632 408.588743 
L 81.376472 409.101621 
L 80.961432 410.062646 
L 80.621854 411.10334 
L 79.154122 413.035348 
L 79.267315 413.538267 
L 79.165442 413.837031 
L 78.946602 414.031228 
L 78.867368 414.34991 
L 78.62589 414.588921 
L 78.290085 415.171511 
L 78.120296 415.42546 
L 78.082565 415.798915 
L 77.429821 416.530887 
L 77.112881 417.043765 
L 75.954543 418.726803 
L 75.690427 419.433878 
L 74.984859 420.340129 
L 74.615097 421.445556 
L 74.256653 422.620694 
L 73.562405 423.81575 
L 73.241692 424.0697 
L 72.917207 424.89628 
L 72.362563 425.538623 
L 71.996573 426.280554 
L 71.694726 427.047381 
L 70.864646 428.272314 
L 70.468472 428.431655 
L 70.177944 428.725439 
L 69.857232 430.363662 
L 69.615754 431.922215 
L 69.155437 432.952951 
L 68.932825 433.231797 
L 68.917733 433.665005 
L 68.676255 433.948831 
L 68.627205 434.342203 
L 68.223484 434.86504 
L 67.593378 435.736436 
L 67.57074 436.119849 
L 66.917996 436.966348 
L 65.850211 440.422052 
L 65.963404 441.492623 
L 66.201109 442.463606 
L 66.548233 443.26031 
L 66.585964 444.156602 
L 66.450133 444.101829 
L 66.306755 444.09187 
L 66.329394 444.071952 
L 65.986043 444.266149 
L 66.012454 444.231293 
L 65.959631 444.216355 
L 66.023774 444.315943 
L 66.310528 444.594789 
L 66.570871 444.66948 
L 67.250027 444.704336 
L 67.589605 444.848739 
L 68.344223 444.853718 
L 69.332772 444.83878 
L 69.981744 444.649563 
L 70.19681 444.649563 
L 70.479791 444.480263 
L 70.476018 444.699357 
L 70.408103 444.739192 
L 70.370372 445.147503 
L 70.449607 445.361617 
L 70.223221 445.496061 
L 70.306229 445.515979 
L 70.668446 445.695237 
L 71.441929 446.203136 
L 71.819238 446.287786 
L 71.955069 446.526797 
L 72.230504 446.571611 
L 72.24937 446.701076 
L 72.290874 446.631364 
L 72.483301 446.701076 
L 72.81156 446.770788 
L 73.313381 446.994861 
L 74.079318 446.551694 
L 73.958579 446.422229 
L 74.520769 446.387374 
L 74.679239 446.352518 
L 75.464042 446.506879 
L 76.241298 446.820582 
L 76.777076 445.849598 
L 76.686522 445.83466 
L 76.229979 446.25293 
L 75.622511 447.373295 
L 75.558369 447.243831 
L 75.467815 447.179098 
L 75.354622 446.800664 
L 75.399899 446.611447 
L 75.411218 446.561653 
L 75.516865 446.58655 
L 75.988501 446.516838 
L 76.04887 446.526797 
L 76.139424 446.686138 
L 75.905493 448.697816 
L 75.856443 449.031435 
L 76.041324 449.678758 
L 76.229979 450.23645 
L 76.969504 451.097887 
L 77.369451 452.118664 
L 77.452459 452.517016 
L 77.327947 452.661419 
L 77.467552 453.363514 
L 77.501509 453.487999 
L 77.49019 453.622443 
L 77.592064 454.170177 
L 77.667525 454.508776 
L 77.825995 454.991778 
L 77.818449 454.902149 
L 77.927868 454.842396 
L 77.84486 454.787623 
L 77.663752 454.787623 
L 77.565652 454.732849 
L 77.399636 454.513756 
L 77.467552 454.503797 
L 77.765626 454.439065 
L 77.825995 454.404209 
L 77.792037 454.379312 
L 77.716575 454.274744 
L 77.727895 454.274744 
L 62.89211 490.928113 
L 62.643086 490.813587 
L 62.752506 490.94803 
L 62.914748 491.11733 
L 62.975118 490.962969 
L 63.14868 491.162145 
L 62.831741 490.808607 
L 62.756279 490.878319 
L 62.707229 490.913175 
L 62.692136 491.211939 
L 62.578944 491.426053 
L 62.654405 491.485806 
L 62.556305 491.510703 
L 61.813007 492.332304 
L 61.635671 492.899956 
L 61.518706 492.785429 
L 60.960289 492.456789 
L 60.394325 492.402015 
L 59.360499 492.19786 
L 58.998282 492.262592 
L 55.711922 491.665064 
L 55.772292 490.997824 
L 55.621368 490.544699 
L 55.266698 490.255894 
L 54.632819 490.250914 
L 53.527304 490.360461 
L 52.855694 490.385358 
L 50.316405 490.709019 
L 49.976827 490.763793 
L 49.282579 490.803628 
L 48.460046 490.664205 
L 46.928172 490.649266 
L 46.158462 490.69906 
L 46.765929 490.758813 
L 46.814979 490.833504 
L 46.965902 490.848442 
L 47.014953 490.634328 
L 46.452762 490.599472 
L 45.56986 490.95301 
L 45.211416 491.396177 
L 44.966165 492.008643 
L 44.671865 493.27839 
L 44.520941 493.741474 
L 44.109674 495.309985 
L 43.671996 496.544877 
L 43.464476 496.958167 
L 43.026798 497.466066 
L 39.778168 501.852918 
L 39.080147 502.470364 
L 38.344395 503.725173 
L 37.793524 504.392412 
L 35.042942 507.748528 
L 34.586398 508.465562 
L 32.930012 510.39757 
L 31.292492 512.419206 
L 27.636369 516.970378 
L 26.783651 517.981197 
L 25.380062 519.763822 
L 24.414151 520.635217 
L 24.063254 521.163034 
L 23.625576 521.745624 
L 23.504837 522.114099 
L 22.772858 522.885907 
L 20.384493 525.793877 
L 20.203384 526.197208 
L 19.984545 526.754901 
L 19.731748 526.839551 
L 19.667606 527.387285 
L 19.497817 528.00473 
L 19.505363 528.472794 
L 19.754387 529.468674 
L 20.052461 530.907721 
L 20.335442 531.58492 
L 20.841036 532.386603 
L 22.42196 534.378363 
L 23.052066 534.916139 
L 24.497159 535.608275 
L 26.768559 536.260577 
L 29.319167 536.4 
L 31.383046 535.887122 
L 32.481015 535.130253 
L 32.990382 534.891242 
L 33.688403 534.562601 
L 34.669406 533.970052 
L 35.657956 533.422318 
L 37.23888 532.416479 
L 37.680331 532.107757 
L 39.797034 530.842989 
L 40.762945 530.225543 
L 41.264765 529.976573 
L 42.472154 529.179869 
L 42.940017 528.906002 
L 44.69073 528.00473 
L 47.52432 526.256961 
L 48.403449 525.793877 
L 52.757594 523.18965 
L 54.251737 522.27842 
L 56.202424 521.172993 
L 56.46654 521.133157 
L 57.892767 520.266742 
L 58.575696 519.923163 
L 60.035882 519.818596 
L 63.805197 519.908225 
L 65.820027 518.513993 
L 67.095331 517.607742 
L 67.419816 517.333875 
L 68.163115 516.681573 
L 68.555516 516.532191 
L 68.940371 516.188613 
L 69.777997 515.695652 
L 70.121348 515.446682 
L 70.90615 514.122161 
L 71.392879 513.459901 
L 72.60404 511.617523 
L 72.90966 511.000077 
L 73.249238 510.273085 
L 73.053038 509.73033 
L 72.611586 509.172637 
L 72.785149 508.689635 
L 72.770056 507.917828 
L 72.86061 506.90203 
L 72.177681 501.554154 
L 71.826784 500.891894 
L 71.008024 499.403053 
L 67.608471 495.499203 
L 66.193563 493.841062 
L 65.514407 493.681721 
L 64.171187 493.35806 
L 63.084537 493.104111 
L 61.514933 492.894976 
L 61.284774 493.318225 
L 61.197993 493.641886 
L 61.077254 493.821145 
L 60.941423 494.129868 
L 60.42451 494.219497 
L 57.617332 493.60703 
L 56.41749 493.567195 
L 54.04799 493.592092 
L 53.863109 493.482545 
L 52.418016 493.377978 
L 50.474875 493.173823 
L 49.712711 493.099132 
L 49.071286 493.074235 
L 48.712843 493.099132 
L 48.588331 492.70078 
L 48.652473 492.337283 
L 48.53928 492.148066 
L 48.618515 491.704899 
L 48.433634 490.982886 
L 48.535507 490.723957 
L 48.85622 490.833504 
L 48.53928 491.445971 
L 48.429861 491.819426 
L 48.50155 493.308266 
L 48.524188 494.050197 
L 48.388357 494.652705 
L 48.543054 496.644465 
L 48.814716 497.495942 
L 50.550337 497.401334 
L 50.686168 496.086772 
L 50.889915 494.259332 
L 50.882369 493.910774 
L 50.980469 493.348102 
L 50.81068 493.392916 
L 50.727672 493.572175 
L 50.844638 494.174682 
L 50.757857 495.056036 
L 50.799361 496.066854 
L 50.546564 496.340721 
L 48.23366 496.051916 
L 48.02614 496.315824 
L 48.195929 497.127467 
L 48.324214 497.401334 
L 48.146879 498.700957 
L 48.052552 499.313424 
L 47.995956 499.801405 
L 47.87899 500.110128 
L 46.271654 501.354978 
L 45.943395 501.628845 
L 45.456667 501.733412 
L 41.743948 498.780628 
L 41.623209 498.954907 
L 41.66094 499.139145 
L 43.400334 500.279427 
L 43.336191 500.583171 
L 42.358961 501.768268 
L 41.283631 502.83386 
L 40.498828 503.386573 
L 40.17057 503.725173 
L 39.819672 503.720193 
L 39.170701 502.689457 
L 38.865081 502.520158 
L 38.600965 502.694437 
L 38.736796 502.973283 
L 39.155609 503.047974 
L 39.483868 503.197356 
L 42.06466 506.219852 
L 42.445742 507.295403 
L 42.706085 507.718652 
L 42.996613 507.683796 
L 43.019252 507.504538 
L 42.634397 507.225691 
L 42.287272 506.81738 
L 42.079753 506.15512 
L 41.679805 505.57253 
L 41.668486 505.418169 
L 43.573896 503.954225 
L 44.049305 503.705255 
L 44.562445 503.257109 
L 45.456667 502.530116 
L 45.656641 502.146703 
L 45.781153 502.291105 
L 45.728329 502.475343 
L 46.105638 503.092789 
L 46.641417 503.560852 
L 47.354531 504.307763 
L 47.614874 504.770847 
L 48.418542 505.711954 
L 48.569465 505.831459 
L 48.814716 506.105326 
L 49.610838 506.842277 
L 50.191893 507.64894 
L 50.840865 508.296262 
L 54.945985 513.146199 
L 55.606276 513.808459 
L 56.300524 514.704751 
L 56.666514 515.481538 
L 56.960814 515.645858 
L 57.572055 515.371991 
L 57.911633 515.481538 
L 58.960551 516.46248 
L 59.179391 516.696511 
L 60.277359 517.483257 
L 60.37546 518.060867 
L 60.518837 518.220208 
L 61.35269 518.334734 
L 61.654537 518.329755 
L 62.133719 518.384528 
L 63.303377 518.100702 
L 63.873113 518.240126 
L 65.280475 518.573746 
L 65.563457 518.409425 
L 65.631372 518.434322 
L 65.525726 518.62354 
L 65.272929 518.653416 
L 65.125778 517.926423 
L 64.420211 516.95544 
L 64.352295 516.920584 
L 64.329657 516.721408 
L 64.801293 516.323056 
L 65.816254 515.531332 
L 66.208655 515.237547 
L 66.555779 514.869071 
L 66.978365 514.515534 
L 67.227389 514.231708 
L 67.819764 513.758665 
L 68.298946 514.037511 
L 68.453643 514.480678 
L 68.683801 514.79936 
L 69.057337 515.357053 
L 69.079975 516.133839 
L 68.864909 516.467459 
L 68.668709 516.447541 
L 68.721532 516.198571 
L 69.087522 515.87989 
L 69.970424 515.38195 
L 70.272271 514.96368 
L 70.725042 514.176935 
L 70.845781 513.574427 
L 71.041982 513.519654 
L 71.098578 513.788541 
L 70.060978 514.784422 
L 69.547838 514.784422 
L 69.049791 514.620101 
L 67.993326 513.80348 
L 68.683801 513.121302 
L 69.057337 512.71797 
L 70.445834 510.427446 
L 71.143855 509.531154 
L 71.257048 509.446504 
L 71.294778 508.410789 
L 71.389106 506.513637 
L 71.279686 505.786645 
L 71.441929 505.368375 
L 71.506071 503.685337 
L 71.43061 503.486161 
L 71.358921 503.277027 
L 71.219317 503.038015 
L 71.219317 503.038015 
L 71.136309 502.898592 
L 70.770319 502.764148 
L 70.457153 502.599828 
L 70.581665 502.545055 
L 71.158947 502.654601 
L 71.415517 502.878675 
L 71.506071 502.460405 
L 71.438156 501.190658 
L 71.366467 500.00556 
L 71.502298 499.915931 
L 71.856969 499.955766 
L 72.136177 500.369057 
L 72.29842 501.081111 
L 72.177681 501.464525 
L 71.849423 501.469504 
L 70.204356 501.195637 
L 69.400688 501.150822 
L 67.959368 500.966585 
L 67.578286 500.8421 
L 65.612507 500.742512 
L 64.390026 500.374036 
L 64.114591 499.930869 
L 63.680685 499.950787 
L 63.363746 500.194778 
L 63.29583 500.468645 
L 63.397704 500.807244 
L 63.654274 501.00642 
L 63.956121 501.00144 
L 64.427757 500.677779 
L 64.59 500.518439 
L 64.7862 500.493542 
L 64.7862 500.528397 
L 64.827704 500.578191 
L 64.89562 500.518439 
L 65.095594 500.314283 
L 65.023905 499.955766 
L 64.59 498.193058 
L 64.552269 496.315824 
L 64.046675 495.797967 
L 62.677044 494.951469 
L 61.247043 494.43859 
L 61.952611 494.582993 
L 62.246912 494.702499 
L 62.812875 495.075954 
L 64.057994 495.887596 
L 64.250422 496.191339 
L 64.295699 498.143264 
L 64.888074 500.140004 
L 65.208786 500.5035 
L 65.669103 500.652882 
L 65.936993 500.762429 
L 66.076597 501.026337 
L 66.001135 502.808963 
L 65.601188 507.698734 
L 65.623826 508.057251 
L 65.586095 508.102066 
L 65.106913 507.98256 
L 64.280607 507.887952 
L 63.805197 507.977581 
L 63.75992 508.161819 
L 63.458073 508.186716 
L 63.254326 507.947704 
L 63.337334 507.444785 
L 63.367519 506.827339 
L 63.56372 506.941865 
L 63.344881 508.968482 
L 63.193957 511.408388 
L 63.088311 513.116322 
L 63.484485 515.157877 
L 63.876886 516.153757 
L 63.812744 516.108942 
L 62.865698 515.501455 
L 61.405513 515.949601 
L 60.209444 516.696511 
L 59.405776 516.522232 
L 58.98319 516.12886 
L 58.57947 515.914746 
L 57.473955 515.172815 
L 56.953268 513.061549 
L 56.82121 512.827517 
L 56.455221 512.877311 
L 55.730788 513.46986 
L 54.813927 513.913026 
L 54.534718 514.137099 
L 54.006486 514.475699 
L 53.829151 514.839195 
L 53.033029 515.431744 
L 52.474612 515.96454 
L 51.897329 516.392768 
L 51.829414 516.567047 
L 51.599255 516.726388 
L 51.640759 516.980337 
L 51.93506 517.20939 
L 52.282184 517.921444 
L 52.768913 518.469178 
L 53.16886 518.185352 
L 53.934797 517.53803 
L 54.289468 517.423504 
L 55.195009 516.581985 
L 56.734429 515.252485 
L 57.013638 515.391908 
L 57.12683 515.506435 
L 56.975907 515.521373 
L 56.474086 515.466599 
L 55.998677 515.929684 
L 55.040312 516.641738 
L 54.8177 516.920584 
L 54.089494 517.54301 
L 53.37638 518.170414 
L 53.010391 518.210249 
L 52.719863 518.03597 
L 52.463293 517.752144 
L 52.082211 517.348813 
L 51.47097 516.761244 
L 51.437013 516.930543 
L 51.640759 517.109802 
L 51.901103 517.274122 
L 52.874559 518.713169 
L 54.346064 520.341433 
L 54.674323 520.381268 
L 55.37989 519.748884 
L 56.202424 519.051768 
L 56.745748 518.842633 
L 58.11538 518.509013 
L 58.786989 519.972957 
L 58.749259 520.162174 
L 58.583243 520.411144 
L 57.183427 520.749744 
L 55.564772 521.845212 
L 55.311975 521.566365 
L 55.078043 521.118219 
L 54.112133 520.037689 
L 53.165087 519.016912 
L 48.788304 513.913026 
L 47.935586 512.867352 
L 47.709201 512.344515 
L 47.252657 510.472261 
L 46.822525 509.824938 
L 46.475401 509.546092 
L 45.207643 508.81412 
L 42.947563 507.873013 
L 42.657035 507.15598 
L 43.030571 506.862195 
L 43.404107 506.598287 
L 44.709595 505.214013 
L 45.124635 505.149281 
L 45.305743 505.169199 
L 45.886799 505.692036 
L 46.271654 505.9908 
L 46.403712 506.284585 
L 46.720652 506.56841 
L 47.735613 507.98256 
L 48.275164 509.003337 
L 48.935455 509.516216 
L 49.437276 509.919547 
L 49.942869 510.820819 
L 49.867408 511.458182 
L 49.403318 512.349495 
L 49.090151 512.688094 
L 48.467592 513.071508 
L 48.365718 513.474839 
L 48.301576 514.729648 
L 47.845032 515.436723 
L 47.384715 515.820137 
L 46.554636 516.064128 
L 45.977353 516.233427 
L 45.792472 516.29318 
L 45.849068 515.979478 
L 46.430124 515.576146 
L 46.713106 515.108083 
L 47.546958 513.350354 
L 47.894082 512.952002 
L 46.85271 514.410967 
L 46.456536 515.312238 
L 45.947169 515.919725 
L 44.981258 516.631779 
L 44.694503 516.701491 
L 44.577537 516.437583 
L 45.147274 515.167835 
L 45.098224 514.261585 
L 45.241601 514.351214 
L 45.328382 514.306399 
L 45.652868 513.05159 
L 45.747195 512.737888 
L 47.192288 510.955262 
L 47.633739 511.024974 
L 47.754478 510.666457 
L 47.72052 510.163538 
L 47.546958 510.253167 
L 47.290388 510.362714 
L 46.85271 510.049012 
L 46.686694 509.81498 
L 46.788567 509.795062 
L 47.030045 510.014156 
L 47.297934 510.915427 
L 47.546958 510.751107 
L 47.965771 509.73033 
L 48.082737 509.466422 
L 48.022367 508.968482 
L 47.754478 508.117004 
L 47.441312 507.992519 
L 47.094188 507.698734 
L 45.849068 507.23565 
L 45.343474 507.195815 
L 43.321099 507.330259 
L 42.909832 507.56927 
L 42.792866 507.375073 
L 43.143764 507.325279 
L 43.60408 507.325279 
L 43.954978 507.185856 
L 45.018989 506.419028 
L 45.547221 506.419028 
L 46.271654 506.802442 
L 46.735744 506.752648 
L 46.841391 506.862195 
L 46.931945 506.82236 
L 46.679148 506.603266 
L 46.158462 506.56841 
L 45.822657 506.862195 
L 45.471759 507.185856 
L 42.73627 507.285444 
L 42.58912 507.15598 
L 42.351415 507.185856 
L 41.694898 507.778405 
L 41.747721 507.952684 
L 42.049568 507.917828 
L 42.63817 507.882972 
L 43.192814 507.798322 
L 42.958882 507.678817 
L 41.853367 507.863055 
L 41.457193 508.022395 
L 40.483736 508.918688 
L 39.778168 510.452343 
L 39.434817 511.512955 
L 38.446268 512.38933 
L 37.635054 512.683114 
L 34.726003 513.708871 
L 33.416741 514.669895 
L 32.29236 515.606023 
L 31.586793 516.04421 
L 30.345447 516.477418 
L 28.941858 516.223468 
L 28.172148 515.914746 
L 28.130644 516.064128 
L 28.130644 516.064128 
L 28.051409 516.467459 
L 27.523176 517.089884 
L 26.659139 518.932262 
L 26.919482 519.400326 
L 27.462807 519.694111 
L 29.32294 520.436041 
L 31.564154 520.585423 
L 31.99806 520.480856 
L 33.322414 520.45098 
L 33.922335 520.406165 
L 34.537348 520.137277 
L 35.33347 519.793699 
L 36.446531 519.390367 
L 37.027587 518.967118 
L 37.431307 518.504034 
L 37.774658 518.28494 
L 38.951862 516.616841 
L 39.381994 515.491496 
L 39.532918 514.30142 
L 39.672522 511.413367 
L 39.940411 511.119583 
L 40.596929 510.696334 
L 41.498697 510.347776 
L 42.592893 510.30794 
L 44.422841 510.55691 
L 45.147274 511.079747 
L 45.332155 511.129541 
L 44.675638 510.736169 
L 44.049305 510.457322 
L 43.562576 510.377652 
L 42.411784 510.332837 
L 42.045795 510.278064 
L 41.155346 510.492178 
L 40.310174 510.840736 
L 39.778168 511.338676 
L 39.566876 512.010895 
L 39.612153 514.615122 
L 40.385636 516.21351 
L 40.461098 516.168695 
L 40.996876 514.341255 
L 41.000649 514.346234 
L 41.408143 514.455781 
L 41.336454 514.306399 
L 41.159119 514.251626 
L 40.725214 515.2973 
L 39.914 518.628519 
L 39.532918 519.106541 
L 39.197113 519.275841 
L 38.506638 519.435182 
L 37.989724 519.574605 
L 37.453946 519.594523 
L 38.593419 519.475017 
L 39.136743 519.211109 
L 40.272443 518.996995 
L 40.872364 519.260903 
L 41.200623 519.644317 
L 41.396824 520.291639 
L 41.287404 521.412004 
L 40.600702 523.26932 
L 39.944184 524.240304 
L 39.265028 524.797996 
L 38.608511 525.007131 
L 38.185925 524.907543 
L 37.842574 524.613759 
L 37.608642 524.205448 
L 37.582231 523.68759 
L 37.574685 523.055206 
L 37.846347 521.287519 
L 38.589646 519.928143 
L 38.895266 519.644317 
L 39.419725 519.290779 
L 40.023419 519.141397 
L 40.442232 519.12148 
L 40.84218 519.325635 
L 41.083657 519.69909 
L 41.166665 519.878348 
L 41.35532 520.017772 
L 41.61189 519.913204 
L 42.079753 518.95218 
L 42.400465 518.708189 
L 43.166402 517.652556 
L 43.905928 517.079925 
L 45.46044 516.412686 
L 47.554504 516.218489 
L 48.331761 516.328036 
L 49.456141 516.686553 
L 49.99192 516.890708 
L 51.037065 517.483257 
L 51.32382 517.801938 
L 52.734955 518.802798 
L 52.919836 518.842633 
L 52.946248 518.772922 
L 52.689678 518.489096 
L 52.410469 518.274981 
L 52.176538 518.030991 
L 51.452105 517.687412 
L 50.942738 517.408566 
L 50.550337 517.249225 
L 49.935323 516.691532 
L 47.958225 516.064128 
L 46.799887 516.034251 
L 45.05672 516.442562 
L 44.339833 516.840914 
L 42.664581 518.055888 
L 42.245769 518.553828 
L 41.60057 519.709049 
L 41.39305 520.540609 
L 40.959145 522.303317 
L 40.404501 523.722446 
L 40.076243 524.066024 
L 39.495187 524.743223 
L 38.944316 525.106719 
L 38.076505 525.35071 
L 37.038906 525.664412 
L 35.707006 526.461116 
L 35.220277 526.954077 
L 34.24682 527.461976 
L 32.533838 527.461976 
L 31.881094 527.25782 
L 30.715209 526.401363 
L 29.545552 525.091781 
L 28.987135 524.93742 
L 28.458902 525.076843 
L 28.160828 525.320833 
L 27.470353 526.361528 
L 27.213783 526.650333 
L 26.704416 526.869427 
L 25.583809 528.144154 
L 22.697396 531.719363 
L 21.682435 533.093678 
L 21.542831 533.148451 
L 21.157976 532.964214 
L 20.905179 532.550923 
L 20.086419 530.544225 
L 19.882672 529.593159 
L 19.788345 528.666991 
L 19.85626 528.00971 
L 20.169426 526.909262 
L 20.124149 526.326672 
L 20.459954 526.26692 
L 21.825812 526.590581 
L 22.097475 526.421281 
L 22.097475 526.386425 
L 22.044652 526.490993 
L 21.512646 526.650333 
L 21.037237 526.580622 
L 20.433543 526.495972 
L 20.195838 526.769839 
L 20.226023 527.471935 
L 21.463596 527.700987 
L 23.991565 527.277738 
L 25.217819 527.362388 
L 26.153545 527.59642 
L 26.572358 527.352429 
L 27.089271 526.819633 
L 26.640274 527.118397 
L 25.802648 527.486873 
L 22.878504 527.302635 
L 20.856129 527.666131 
L 20.618424 527.661152 
L 20.252434 527.34247 
L 20.203384 526.849509 
L 20.920271 525.529968 
L 21.640931 524.374747 
L 22.610615 523.334053 
L 22.953966 523.423682 
L 24.27832 524.090921 
L 25.776236 524.558985 
L 26.244099 524.524129 
L 26.987398 524.344871 
L 27.587319 524.056066 
L 28.447583 523.931581 
L 29.077689 523.93656 
L 32.024471 524.529109 
L 32.564023 524.922481 
L 32.903601 525.09676 
L 34.027981 525.370627 
L 34.741095 525.216266 
L 35.288193 525.116678 
L 35.940937 525.136596 
L 37.457719 525.549886 
L 38.072732 525.475195 
L 38.416083 525.276019 
L 38.272706 524.802976 
L 37.884078 524.484294 
L 37.665239 523.822034 
L 37.050225 522.094182 
L 36.46917 521.257642 
L 35.952257 520.784599 
L 35.163681 520.446 
L 34.409063 520.291639 
L 33.677084 520.246824 
L 33.12244 520.261762 
L 31.379273 520.545588 
L 30.81331 520.645176 
L 29.122966 520.495794 
L 28.824892 520.470897 
L 28.300433 520.251804 
L 27.753335 519.918184 
L 26.776105 518.573746 
L 26.64782 518.757983 
L 26.711962 519.186212 
L 26.896844 519.524811 
L 27.330749 519.733946 
L 28.55323 520.316536 
L 29.398401 520.744764 
L 30.085104 521.421963 
L 31.83959 523.961457 
L 32.050883 524.419562 
L 33.111121 525.276019 
L 34.031754 525.520009 
L 35.782468 524.977255 
L 37.604869 525.609639 
L 37.487904 525.793877 
L 37.084183 525.654453 
L 36.684236 525.196348 
L 36.16355 524.773099 
L 35.359882 523.667672 
L 35.122177 523.105 
L 34.767507 522.472616 
L 34.458113 521.790438 
L 33.937427 521.262622 
L 33.148852 520.635217 
L 32.730039 520.490815 
L 31.982967 520.431062 
L 31.160434 520.500774 
L 30.86236 520.590403 
L 30.907637 520.625259 
L 35.390066 519.853451 
L 36.186188 519.549708 
L 37.589777 518.588684 
L 38.178379 517.95132 
L 38.797165 516.880749 
L 39.385767 515.287341 
L 39.612153 514.196852 
L 39.698934 511.517935 
L 40.083789 510.1486 
L 40.487509 509.521195 
L 41.268539 508.4805 
L 41.985425 507.967622 
L 42.947563 507.922807 
L 43.317326 508.072189 
L 43.392787 508.032354 
L 43.173948 507.693755 
L 42.502339 507.245609 
L 42.268407 506.887092 
L 41.936375 506.055532 
L 41.657167 505.726892 
L 40.89123 504.735991 
L 41.049699 504.99492 
L 41.547747 505.303643 
L 42.057114 505.278746 
L 42.340096 504.965043 
L 42.547616 504.676238 
L 43.630492 503.715214 
L 46.79234 501.106008 
L 47.724293 500.349139 
L 48.022367 499.935849 
L 47.916721 499.661982 
L 47.490362 499.582311 
L 46.758383 499.721734 
L 46.415032 499.681899 
L 46.335797 499.378156 
L 46.498039 497.759851 
L 46.520678 497.784748 
L 46.667828 497.779768 
L 46.54709 498.586431 
L 46.565955 498.780628 
L 46.562182 498.860298 
L 46.045269 499.183959 
L 46.320704 499.42297 
L 46.577274 499.243712 
L 46.403712 499.129186 
L 46.528224 498.895154 
L 46.716879 498.636225 
L 46.781021 498.357379 
L 46.894214 498.207997 
L 47.513 497.959027 
L 47.961998 497.964006 
L 48.124241 497.774789 
L 48.195929 497.34656 
L 48.49023 497.18722 
L 48.716616 496.783888 
L 48.584558 496.76895 
L 48.39213 496.893435 
L 48.275164 497.570633 
L 48.799624 497.610469 
L 48.848674 497.749892 
L 48.761893 498.26277 
L 48.897724 499.751611 
L 48.935455 500.154942 
L 48.80717 500.33918 
L 48.169518 500.388974 
L 48.112921 500.374036 
L 47.935586 500.035437 
L 47.679016 500.075272 
L 47.67147 500.478603 
L 48.150652 500.403912 
L 48.527961 500.398933 
L 49.026009 501.026337 
L 49.214663 501.75333 
L 49.765534 502.883654 
L 49.984373 503.092789 
L 51.003107 506.419028 
L 50.648437 507.185856 
L 50.486194 507.315321 
L 49.924004 507.718652 
L 50.391867 507.424867 
L 50.765403 507.429847 
L 51.478517 507.131083 
L 51.648306 507.290424 
L 52.682132 510.108764 
L 53.334876 510.990118 
L 54.564903 512.63332 
L 56.700471 515.426764 
L 56.843849 515.96454 
L 56.994772 516.034251 
L 57.356989 515.830096 
L 57.519232 515.257465 
L 57.473955 514.888989 
L 57.07778 513.818418 
L 57.017411 513.494757 
L 56.432582 511.826658 
L 55.621368 509.844856 
L 55.210101 508.639841 
L 54.772423 508.047292 
L 54.553584 507.479641 
L 54.214006 506.667998 
L 53.972528 505.901171 
L 53.727277 505.477922 
L 53.757462 505.502819 
L 53.27828 504.153401 
L 53.078306 503.75007 
L 52.795325 502.978263 
L 52.71609 502.564972 
L 52.734955 501.857897 
L 52.621762 501.414731 
L 51.916195 499.990622 
L 51.546432 499.044536 
L 51.150258 498.536637 
L 50.531471 497.869397 
L 49.693846 497.630386 
L 48.675112 497.51586 
L 48.478911 497.167302 
L 48.331761 497.112529 
L 48.267618 497.162323 
L 48.248753 497.43619 
L 48.361945 497.59553 
L 48.229887 498.51672 
L 47.92804 499.990622 
L 47.388488 500.608068 
L 45.860387 502.181558 
L 46.147142 502.674519 
L 46.381074 502.99818 
L 47.343211 504.033895 
L 47.743159 504.447186 
L 47.931813 504.477062 
L 47.731839 504.372495 
L 47.739386 504.526856 
L 47.814847 504.621465 
L 48.241206 505.044714 
L 48.890178 505.806562 
L 49.244848 506.025656 
L 49.67498 506.618204 
L 49.969281 506.65804 
L 49.969281 506.65804 
L 50.218305 506.548493 
L 50.327725 506.493719 
L 50.606933 506.40409 
L 50.606933 506.40409 
" clip-path="url(#p5e1939499b)" style="fill: none; stroke: #000000; stroke-width: 3"/>
   </g>
  </g>
 </g>
 <defs>
  <clipPath id="p5e1939499b">
   <rect x="7.2" y="7.2" width="270.302943" height="554.4"/>
  </clipPath>
 </defs>
</svg>
