<?xml version="1.0" encoding="utf-8" standalone="no"?>
<!DOCTYPE svg PUBLIC "-//W3C//DTD SVG 1.1//EN"
  "http://www.w3.org/Graphics/SVG/1.1/DTD/svg11.dtd">
<svg xmlns:xlink="http://www.w3.org/1999/xlink" width="530.006747pt" height="568.8pt" viewBox="0 0 530.006747 568.8" xmlns="http://www.w3.org/2000/svg" version="1.1">
 <metadata>
  <rdf:RDF xmlns:dc="http://purl.org/dc/elements/1.1/" xmlns:cc="http://creativecommons.org/ns#" xmlns:rdf="http://www.w3.org/1999/02/22-rdf-syntax-ns#">
   <cc:Work>
    <dc:type rdf:resource="http://purl.org/dc/dcmitype/StillImage"/>
    <dc:date>2023-05-26T05:03:11.112010</dc:date>
    <dc:format>image/svg+xml</dc:format>
    <dc:creator>
     <cc:Agent>
      <dc:title>Matplotlib v3.7.1, https://matplotlib.org/</dc:title>
     </cc:Agent>
    </dc:creator>
   </cc:Work>
  </rdf:RDF>
 </metadata>
 <defs>
  <style type="text/css">*{stroke-linejoin: round; stroke-linecap: butt}</style>
 </defs>
 <g id="figure_1">
  <g id="patch_1">
   <path d="M 0 568.8 
L 530.006747 568.8 
L 530.006747 0 
L 0 0 
z
" style="fill: #ffffff"/>
  </g>
  <g id="axes_1">
   <g id="LineCollection_1">
    <path d="M 82.233215 185.186721 
L 84.804191 186.487812 
L 86.443764 187.168852 
L 88.137221 187.687256 
L 89.592054 188.083682 
L 91.962894 189.039171 
L 100.730381 194.751774 
L 105.741473 197.445439 
L 107.958361 198.380598 
L 112.569182 200.200093 
L 116.317879 201.734974 
L 117.68804 202.34486 
L 120.651589 204.13386 
L 122.083329 205.28248 
L 122.706829 205.994014 
L 123.645928 207.701696 
L 124.261731 209.521191 
L 125.239317 213.719242 
L 125.701169 215.284618 
L 126.062953 216.036811 
L 127.787199 218.242567 
L 133.421791 224.595551 
L 135.238409 227.512841 
L 136.254483 228.834262 
L 138.840853 232.127649 
L 139.241124 232.585063 
L 140.757538 233.682859 
L 141.065439 234.130109 
L 141.142414 234.577359 
L 140.980766 235.288893 
L 140.357266 236.396854 
L 139.864624 237.819922 
L 139.056384 239.039695 
L 138.72539 239.751229 
L 138.094192 241.73336 
L 137.255162 243.552855 
L 136.077439 245.900918 
L 134.961298 248.442111 
L 132.236372 253.636311 
L 131.15102 255.222016 
L 130.111853 256.817885 
L 127.41002 262.774443 
L 125.608798 265.895029 
L 124.561934 268.273586 
L 124.000014 269.747478 
L 123.776786 270.591154 
L 123.353422 271.099393 
L 122.221885 272.156529 
L 120.89791 274.230143 
L 120.158947 275.704036 
L 119.189058 277.025456 
L 118.711811 277.31007 
L 117.818898 278.387536 
L 117.380138 278.987258 
L 116.579595 280.705105 
L 115.217132 284.710026 
L 113.492886 288.216873 
L 113.115707 288.80643 
L 109.890442 295.820124 
L 108.997528 297.100885 
L 108.30475 298.493459 
L 107.665855 299.692903 
L 106.18793 301.62421 
L 105.356596 302.98629 
L 104.786979 303.443704 
L 104.271245 304.043426 
L 100.791961 310.996132 
L 99.652726 313.435678 
L 98.775208 314.807922 
L 97.220307 317.765871 
L 96.696875 318.263945 
L 93.671745 323.376827 
L 93.309961 325.115003 
L 92.432443 326.61939 
L 91.339394 328.398225 
L 88.006363 334.700385 
L 87.228913 336.51988 
L 86.651598 337.20092 
L 86.05119 337.282238 
L 84.611752 339.925079 
L 80.054814 348.42283 
L 79.646845 349.022552 
L 79.03874 350.23216 
L 78.215105 351.665393 
L 77.237518 354.206587 
L 77.360679 354.653837 
L 77.214426 354.785979 
L 77.214426 354.785979 
L 77.122055 354.613178 
L 77.068173 354.674167 
L 76.029006 355.924434 
L 73.250198 360.437594 
L 72.203334 361.921651 
L 70.763895 364.716963 
L 69.824797 366.597447 
L 68.570099 369.15897 
L 67.646396 370.907311 
L 65.976032 374.160039 
L 65.591155 374.363334 
L 64.705939 375.542448 
L 61.86555 381.519335 
L 60.818686 384.273989 
L 59.725637 386.25612 
L 59.386946 386.48991 
L 58.778841 386.591558 
L 57.293217 388.919291 
L 56.377211 391.287683 
L 54.575989 393.971184 
L 53.475243 396.461553 
L 52.289823 398.585991 
L 53.35978 400.22252 
L 53.867817 400.639276 
L 58.347779 403.383765 
L 59.987353 405.345566 
L 60.225977 406.036771 
L 61.904038 407.124402 
L 62.342797 407.683464 
L 62.650699 409.269169 
L 62.781557 410.580425 
L 63.043273 411.393607 
L 63.751445 412.715027 
L 64.167112 413.172442 
L 65.63734 413.640022 
L 66.830457 413.589198 
L 68.277593 413.863647 
L 68.639377 414.107601 
L 68.939581 414.453204 
L 69.31676 415.95759 
L 69.386037 416.821596 
L 70.009537 419.769381 
L 70.086513 420.196301 
L 70.140395 420.135313 
L 70.609945 419.55592 
L 72.180241 417.878733 
L 72.318797 417.797414 
L 72.534327 416.933409 
L 73.427241 415.906766 
L 73.819815 415.642482 
L 74.143111 415.683141 
L 74.535685 416.049073 
L 75.367018 416.506488 
L 77.068173 416.597971 
L 79.03874 417.573789 
L 79.66224 417.76692 
L 80.216463 418.102358 
L 80.986216 419.291636 
L 81.617413 421.141625 
L 83.865092 421.416074 
L 84.596357 421.660029 
L 86.058888 420.358938 
L 87.244308 420.409761 
L 90.400295 421.822665 
L 91.208536 422.51387 
L 91.878221 422.544364 
L 95.43448 423.672654 
L 97.889992 424.180893 
L 98.775208 424.08941 
L 99.629634 424.150398 
L 101.507831 424.699296 
L 103.147405 425.400666 
L 103.932553 425.746268 
L 104.786979 425.919069 
L 107.211701 426.813569 
L 107.935269 427.301478 
L 108.620349 427.911365 
L 109.305429 428.704217 
L 111.614688 430.909973 
L 114.639818 432.617655 
L 117.072237 433.380013 
L 117.072237 433.54265 
L 117.464811 433.319025 
L 117.457114 433.400343 
L 117.349348 433.634133 
L 117.387836 433.573144 
L 117.611064 433.491826 
L 118.257657 434.000065 
L 119.419984 435.006377 
L 121.113441 435.951701 
L 123.037823 437.049497 
L 124.538842 438.442071 
L 125.023786 438.868991 
L 129.372891 441.003594 
L 130.542915 441.339032 
L 133.7066 443.056878 
L 135.538612 443.534623 
L 135.992767 443.453305 
L 136.608569 443.178856 
L 137.216674 442.629958 
L 137.609248 442.091225 
L 135.838816 436.69373 
L 135.353872 436.581917 
L 134.722674 435.789065 
L 134.022199 435.443462 
L 132.613551 434.508303 
L 131.435829 434.000065 
L 130.897002 433.888252 
L 129.449866 433.898417 
L 130.065668 434.569292 
L 132.505785 436.500599 
L 132.998427 436.388786 
L 134.307007 436.836037 
L 135.654075 436.561588 
L 135.831118 436.683565 
L 135.969674 436.917355 
L 137.124304 437.506912 
L 137.824779 437.781361 
L 142.728106 439.051957 
L 143.705692 439.59069 
L 145.530007 441.196725 
L 147.292741 442.690946 
L 149.840623 444.195333 
L 150.171617 444.591759 
L 150.448728 445.343953 
L 150.587284 446.492572 
L 151.880469 449.176072 
L 152.834963 449.542004 
L 156.283456 449.846948 
L 157.007024 449.796124 
L 159.462536 450.365351 
L 160.001363 450.324692 
L 161.371524 451.727431 
L 162.449178 452.123857 
L 162.926425 452.327152 
L 163.326696 452.68292 
L 163.819338 452.89638 
L 164.258098 453.262312 
L 164.796925 453.384289 
L 166.767492 454.624391 
L 167.791264 455.335926 
L 168.76885 455.661198 
L 169.83111 456.484545 
L 172.409782 458.446347 
L 175.203986 460.265841 
L 176.235455 460.804574 
L 177.259226 461.505944 
L 180.900158 463.406756 
L 181.95472 464.199609 
L 183.717454 464.982296 
L 185.84967 466.324047 
L 187.520034 467.086405 
L 190.606744 468.956723 
L 191.145571 469.33282 
L 191.715188 469.586939 
L 192.23862 469.983365 
L 192.885213 470.074848 
L 193.531805 470.288308 
L 195.918039 472.219616 
L 197.996373 473.236093 
L 198.65836 473.561366 
L 199.93615 474.435536 
L 206.779255 478.33881 
L 208.264878 479.263804 
L 210.435581 480.524236 
L 213.8071 482.81131 
L 214.49218 483.238231 
L 215.154168 483.339879 
L 218.133112 485.169538 
L 223.228877 487.690402 
L 225.807549 489.143965 
L 226.446444 489.387919 
L 227.570284 490.24176 
L 234.397993 493.870585 
L 235.121561 494.236517 
L 236.476326 495.181841 
L 239.409085 496.767545 
L 244.366295 499.430716 
L 244.989795 499.989779 
L 245.644085 500.894444 
L 246.929572 501.870262 
L 248.461381 502.703773 
L 250.20872 503.638933 
L 252.864368 505.346615 
L 257.121102 507.867479 
L 277.796669 519.678946 
L 280.306063 520.888555 
L 284.670563 523.155299 
L 285.401828 523.500902 
L 289.450729 526.418192 
L 291.067211 527.963237 
L 292.599019 528.786584 
L 293.322587 529.020374 
L 296.547852 530.687397 
L 298.041173 531.581897 
L 299.534494 532.181619 
L 300.827679 532.618704 
L 301.435784 532.771176 
L 303.09845 532.964306 
L 304.722629 533.746994 
L 306.292925 534.793966 
L 307.486043 535.312369 
L 308.494419 536.044233 
L 308.987061 536.37967 
L 308.987061 536.328847 
L 309.010154 534.763471 
L 309.587468 534.224738 
L 309.879975 534.062102 
L 312.42016 530.514596 
L 312.943592 529.335482 
L 313.459326 528.237686 
L 314.028943 527.424504 
L 314.898764 526.001436 
L 315.553054 525.259407 
L 316.738474 524.375072 
L 317.100258 524.2226 
L 317.677573 523.450078 
L 319.640443 520.898719 
L 320.333221 520.014384 
L 320.910535 519.30285 
L 322.603992 517.036105 
L 324.420609 515.053974 
L 325.97551 513.010855 
L 326.514337 512.248496 
L 327.407251 511.252349 
L 328.815899 509.625985 
L 329.054522 509.219394 
L 329.978226 508.27407 
L 331.471547 506.25128 
L 331.756355 505.875183 
L 332.172022 505.560075 
L 332.826312 504.67574 
L 333.511392 503.710086 
L 333.773108 502.968058 
L 334.973923 501.250211 
L 336.336386 499.48154 
L 338.838083 495.771397 
L 340.977997 493.19971 
L 341.178132 492.630482 
L 342.794614 490.251925 
L 345.134663 487.009362 
L 346.420151 484.986572 
L 351.769934 476.895412 
L 351.893095 476.437997 
L 351.90849 475.86877 
L 351.608286 475.065752 
L 351.2542 474.618502 
L 348.860268 472.951479 
L 347.882681 472.097638 
L 348.10591 471.579235 
L 348.613947 470.715229 
L 349.291329 469.800399 
L 350.030292 468.692439 
L 354.379397 463.183131 
L 356.103644 460.733421 
L 358.813174 457.246903 
L 364.386186 449.51151 
L 366.133525 446.665373 
L 368.096396 443.859896 
L 368.134883 443.504128 
L 368.01942 443.250009 
L 367.164995 443.016219 
L 365.956482 442.568969 
L 363.362415 441.176395 
L 360.652884 439.051957 
L 353.794385 434.8844 
L 349.183564 432.170405 
L 348.513879 431.652002 
L 346.404756 430.686348 
L 345.727373 430.279757 
L 344.557348 429.253115 
L 344.141682 428.541581 
L 342.517503 427.535268 
L 341.886305 427.331973 
L 341.701565 427.230325 
L 341.801632 427.382797 
L 341.832423 427.443785 
L 341.786237 427.331973 
L 340.977997 426.77291 
L 339.87725 426.34599 
L 336.836725 424.760285 
L 334.281145 423.083097 
L 331.125158 421.009483 
L 328.076936 418.905375 
L 325.590634 417.411153 
L 323.612368 416.679289 
L 321.626406 415.937261 
L 319.863671 415.113914 
L 317.900801 414.270238 
L 316.099579 413.284255 
L 311.442573 411.048004 
L 306.83945 408.791424 
L 304.645654 407.713958 
L 302.182444 406.412867 
L 301.959216 405.924958 
L 302.244025 404.979634 
L 302.936802 403.444753 
L 303.50642 402.448605 
L 308.856203 391.511308 
L 309.795302 389.580001 
L 310.164783 388.614348 
L 310.04932 388.207757 
L 309.741419 387.83166 
L 306.677802 386.083319 
L 305.122901 385.432773 
L 304.31466 384.985523 
L 304.337753 384.975358 
L 304.368543 384.965194 
L 304.245382 384.904205 
L 303.837413 384.690745 
L 302.782852 384.345142 
L 299.218895 382.525648 
L 298.256704 382.129222 
L 297.871827 381.864938 
L 296.901939 380.858625 
L 296.540155 380.543517 
L 296.263044 380.126761 
L 295.755007 378.927318 
L 295.4625 378.37842 
L 295.354735 377.026505 
L 295.393223 376.508102 
L 295.839679 375.572942 
L 296.501667 374.637783 
L 298.441445 371.141101 
L 298.256704 370.897146 
L 297.063587 370.307589 
L 297.325303 369.799351 
L 299.903975 367.481782 
L 301.72829 365.824924 
L 302.390278 365.896077 
L 302.890617 366.028219 
L 303.206216 365.702947 
L 304.306963 363.263401 
L 305.069018 362.470548 
L 305.969629 362.043628 
L 306.6855 361.06781 
L 307.131956 360.793361 
L 309.217987 359.93952 
L 309.980042 359.6854 
L 310.618937 358.902713 
L 310.949931 358.780735 
L 311.250135 358.841724 
L 311.865937 359.360127 
L 312.081468 359.441446 
L 313.205308 360.447758 
L 314.236777 361.037315 
L 315.399104 359.766718 
L 315.930233 359.00436 
L 316.007209 358.435133 
L 316.476758 357.8964 
L 317.65448 356.686792 
L 318.054752 355.934599 
L 319.809789 353.860985 
L 320.109992 353.779666 
L 320.440986 353.860985 
L 321.049091 354.369223 
L 322.750245 355.934599 
L 324.836276 357.713434 
L 327.330276 358.841724 
L 329.678022 360.620559 
L 330.40159 361.403247 
L 331.109763 361.769179 
L 332.441436 362.684009 
L 333.211189 362.775492 
L 334.011732 362.582361 
L 335.57433 361.799673 
L 336.01309 361.616707 
L 336.428756 361.26094 
L 336.921398 360.437594 
L 337.198509 358.902713 
L 337.506411 354.216752 
L 337.94517 349.266507 
L 338.160701 348.707444 
L 338.999731 347.650308 
L 339.831065 346.877785 
L 341.516824 345.027796 
L 343.487392 342.710227 
L 344.865249 341.165182 
L 345.542632 340.311341 
L 346.112249 339.366017 
L 346.751144 338.430857 
L 347.898076 336.347079 
L 348.282953 335.188294 
L 349.399095 330.390521 
L 349.914829 328.357566 
L 350.253521 326.609225 
L 350.653792 325.02352 
L 350.368984 324.240833 
L 350.06878 324.017208 
L 348.529274 323.722429 
L 346.989768 323.46831 
L 346.127644 323.163366 
L 346.304688 322.228207 
L 346.143039 321.811452 
L 345.688885 321.435355 
L 344.464978 321.079588 
L 341.670774 319.981792 
L 335.582028 317.674388 
L 333.880874 317.074667 
L 330.201454 315.377149 
L 326.229529 313.811774 
L 325.005621 312.978263 
L 325.074899 312.88678 
L 325.044109 312.663155 
L 324.782393 311.849973 
L 324.335936 310.335421 
L 323.827899 307.895876 
L 323.543091 306.442313 
L 323.181307 304.582159 
L 322.542412 300.119823 
L 322.650177 297.446488 
L 322.819523 295.596499 
L 323.273677 293.390743 
L 323.666251 291.998169 
L 323.504603 291.876191 
L 323.758622 291.988004 
L 325.683004 292.648714 
L 328.277072 293.604203 
L 330.186059 294.458044 
L 330.555541 294.64101 
L 330.832652 294.630845 
L 331.132856 294.366561 
L 331.640893 293.258601 
L 332.17972 291.245975 
L 332.98796 289.589117 
L 333.572973 288.389674 
L 335.535843 283.703713 
L 335.951509 283.266628 
L 336.451849 283.14465 
L 337.521806 283.429264 
L 338.06833 283.622395 
L 339.207565 284.201787 
L 343.702922 286.194083 
L 345.481052 286.915782 
L 347.220694 287.810282 
L 350.946298 289.274009 
L 353.286348 290.188839 
L 357.412224 291.977839 
L 360.829927 293.289095 
L 361.999952 293.655027 
L 363.123791 293.939641 
L 364.71718 294.600351 
L 365.717859 295.047601 
L 366.241291 295.159414 
L 368.481272 296.409681 
L 370.459537 296.907755 
L 372.245365 297.700607 
L 374.770154 298.930545 
L 374.993383 298.798403 
L 375.53221 297.670113 
L 376.848488 294.376726 
L 378.572734 289.263844 
L 379.242419 288.003412 
L 382.837166 278.743303 
L 383.052697 277.554025 
L 383.052697 277.554025 
L 383.060394 277.462542 
L 383.13737 277.411718 
L 383.437573 277.625178 
L 383.460666 278.184241 
L 383.345203 278.41803 
L 383.606919 277.940286 
L 384.238117 277.676002 
L 384.615296 277.503201 
L 385.338863 276.933973 
L 389.102956 275.378763 
L 393.190344 273.803223 
L 393.475153 273.793058 
L 394.652875 273.203501 
L 395.892177 271.678785 
L 396.438702 271.129887 
L 396.854369 270.814779 
L 397.323918 271.180711 
L 398.055183 271.810927 
L 398.309202 271.983728 
L 398.56322 272.014223 
L 399.109745 271.617796 
L 400.041146 270.611484 
L 401.064918 269.279898 
L 407.138269 262.571147 
L 408.323689 261.249727 
L 412.549633 256.858544 
L 413.68117 256.258823 
L 419.654453 254.185209 
L 422.671885 253.514334 
L 423.287687 253.321203 
L 425.050422 252.325055 
L 425.935638 251.725333 
L 426.813156 250.820668 
L 431.670298 245.453668 
L 434.09502 243.156429 
L 435.826964 241.174298 
L 436.642902 240.350951 
L 437.358773 239.415792 
L 438.574983 238.074042 
L 440.191464 236.193558 
L 446.84213 229.037557 
L 447.650371 228.295529 
L 449.228364 226.486199 
L 453.462006 221.739249 
L 454.131691 221.149692 
L 455.093882 220.387334 
L 455.979098 219.757118 
L 456.571808 218.527181 
L 457.326166 217.632681 
L 461.790734 212.936555 
L 462.8299 211.279697 
L 465.23153 208.890975 
L 466.424647 207.681367 
L 467.78711 206.15665 
L 467.91027 205.72973 
L 467.502301 205.882202 
L 467.240585 205.882202 
L 467.078937 205.72973 
L 467.13282 205.556929 
L 467.91027 204.753912 
L 472.621159 200.505036 
L 474.753375 199.244604 
L 476.315973 198.899002 
L 477.91706 198.665212 
L 479.31801 198.116314 
L 480.426454 197.526757 
L 482.181491 196.012206 
L 483.613232 194.639961 
L 484.544633 193.80645 
L 485.914793 192.058109 
L 486.522898 190.462239 
L 486.561386 189.954 
L 486.222695 188.063352 
L 486.453621 187.25017 
L 487.169491 186.335341 
L 490.433244 183.43838 
L 491.079836 182.869153 
L 491.557083 182.055971 
L 492.242163 180.663397 
L 493.412188 179.006539 
L 494.605305 177.746107 
L 495.013274 177.573305 
L 496.283367 177.451328 
L 496.560478 177.309021 
L 496.699033 177.044737 
L 496.691336 176.810947 
L 496.414225 176.719464 
L 494.389774 177.532646 
L 492.850268 179.453789 
L 490.648775 183.367227 
L 489.871324 184.160079 
L 487.207979 186.436988 
L 486.576781 187.219676 
L 486.199602 188.165 
L 486.091837 189.242466 
L 486.099534 191.275421 
L 485.70696 192.342722 
L 485.168133 193.206728 
L 483.813368 194.690785 
L 482.781899 195.788581 
L 479.802954 198.350104 
L 478.60214 198.868507 
L 475.784844 199.254769 
L 474.414683 199.478394 
L 473.283146 199.915479 
L 472.413325 200.525366 
L 470.104066 202.36519 
L 469.334313 203.198701 
L 468.118104 204.255838 
L 465.508641 207.600048 
L 461.852314 211.289861 
L 461.706061 211.56431 
L 461.274999 213.658254 
L 460.713079 214.471436 
L 459.920234 215.315112 
L 458.596259 216.514555 
L 457.988154 217.195595 
L 457.356956 217.815646 
L 456.725759 218.405203 
L 455.940611 219.289539 
L 455.086185 220.011238 
L 454.231759 220.682113 
L 453.092525 221.25134 
L 452.753833 221.647766 
L 452.037963 222.786221 
L 451.591506 223.365613 
L 452.345864 222.277982 
L 452.861599 221.596943 
L 453.207987 221.393647 
L 452.923179 221.678261 
L 452.130333 222.491443 
L 451.722364 223.091164 
L 447.627278 227.868608 
L 446.595809 228.864756 
L 445.302624 230.531779 
L 444.22497 231.609245 
L 441.292211 235.126257 
L 438.975254 237.769098 
L 437.98997 238.988871 
L 431.393187 246.043224 
L 431.185353 246.368497 
L 430.82357 247.6086 
L 429.73052 248.838537 
L 428.675959 250.180288 
L 427.921601 251.735498 
L 427.498237 252.690987 
L 427.305798 253.727794 
L 427.290403 254.815425 
L 427.444354 257.265135 
L 427.629095 257.905516 
L 428.876094 260.223085 
L 429.845983 261.351374 
L 430.954428 262.256039 
L 431.354699 262.591477 
L 431.978199 263.618119 
L 432.239915 264.136523 
L 432.416958 265.163165 
L 432.447748 267.135131 
L 432.22452 268.100785 
L 431.323909 269.239239 
L 430.469483 270.215058 
L 429.999934 270.855438 
L 428.498915 272.034552 
L 428.822212 271.963399 
L 429.145508 271.882081 
L 429.514989 271.963399 
L 429.76131 272.146365 
L 430.369415 273.091689 
L 431.177656 275.256786 
L 433.309872 279.343025 
L 433.841001 280.389997 
L 434.287458 281.660593 
L 435.157279 283.16498 
L 435.880847 284.557554 
L 435.99631 285.258923 
L 436.204143 285.970458 
L 437.628186 288.470992 
L 441.584717 294.610516 
L 443.424427 296.755283 
L 444.917747 297.802255 
L 446.90371 299.764056 
L 447.742741 300.617897 
L 449.035926 301.990142 
L 451.95329 305.120892 
L 451.95329 305.120892 
L 452.184216 305.608801 
L 453.777605 306.960716 
L 455.19395 308.292302 
L 457.972759 310.772507 
L 459.435289 312.287058 
L 462.291073 315.112865 
L 462.429629 315.57028 
L 463.276357 316.25132 
L 463.414913 316.515604 
L 463.345635 316.91203 
L 463.322542 316.881536 
L 462.991548 316.576593 
L 462.660555 316.413956 
L 462.629764 316.25132 
L 461.52132 315.407644 
L 458.226777 312.571672 
L 457.995851 312.226069 
L 450.467667 304.958256 
L 449.443895 304.063756 
L 448.173803 302.782994 
L 446.018494 300.831358 
L 441.10747 295.240732 
L 439.360131 292.872339 
L 438.58268 291.428941 
L 436.912316 288.979231 
L 434.84168 285.350406 
L 430.592644 277.716661 
L 430.461786 277.320235 
L 430.454088 276.740843 
L 427.875415 272.359825 
L 426.528348 270.428518 
L 425.920243 269.64583 
L 423.849607 266.28129 
L 422.856626 264.654926 
L 421.147774 261.696977 
L 420.709015 260.843136 
L 419.092533 258.139306 
L 418.715355 257.06184 
L 417.645398 255.659101 
L 416.113589 253.097578 
L 415.151398 251.88797 
L 414.635663 250.922316 
L 413.989071 249.946498 
L 412.865232 247.720412 
L 410.59446 244.152576 
L 408.770145 240.666059 
L 406.391609 236.701797 
L 404.821312 234.119944 
L 403.735961 231.822705 
L 400.626158 226.282903 
L 400.102726 225.439227 
L 399.633177 224.432915 
L 398.778751 223.030176 
L 397.78577 221.200516 
L 394.906894 216.97197 
L 394.037073 215.823351 
L 392.228153 212.611282 
L 391.058128 211.188214 
L 389.857314 209.30773 
L 390.026659 208.118452 
L 389.43395 206.339616 
L 387.909839 203.605292 
L 387.455684 202.853099 
L 386.147104 200.332235 
L 385.408141 198.29928 
L 384.938592 196.764399 
L 384.492135 194.528149 
L 383.591524 188.286977 
L 383.753172 185.745784 
L 383.830148 184.414198 
L 384.653783 180.378783 
L 385.438931 177.471658 
L 388.125369 172.816191 
L 389.55711 171.159333 
L 390.750227 169.197531 
L 392.897838 165.131622 
L 393.113369 164.31844 
L 394.675968 161.726422 
L 396.415609 159.3377 
L 396.915949 158.666825 
L 399.102047 156.369586 
L 401.049523 154.245149 
L 402.18106 152.628949 
L 403.48964 150.392699 
L 403.812936 149.69133 
L 403.751356 149.406716 
L 404.036164 149.172926 
L 404.636572 149.518529 
L 405.4833 149.914955 
L 405.614158 149.823472 
L 405.529485 149.803142 
L 405.398627 149.711659 
L 404.613479 149.731989 
L 404.14393 149.518529 
L 403.782146 149.274574 
L 403.735961 149.45754 
L 404.644269 149.955614 
L 405.406325 150.077591 
L 405.406325 150.077591 
L 405.267769 149.711659 
L 405.567973 149.020455 
L 409.362855 143.114721 
L 411.679812 140.055124 
L 412.449565 139.08947 
L 413.996768 137.290305 
L 415.459299 135.582623 
L 421.34791 127.206849 
L 422.579515 125.560156 
L 424.873379 122.154956 
L 428.114039 117.174217 
L 431.239236 112.508586 
L 432.709464 110.099534 
L 433.694748 108.94075 
L 434.241273 108.47317 
L 435.649921 107.649824 
L 436.812248 107.294056 
L 437.458841 107.161914 
L 440.737989 107.497352 
L 442.200519 106.785818 
L 443.793908 105.637198 
L 444.37892 105.657528 
L 444.871562 105.860823 
L 445.733686 106.68417 
L 448.320056 108.47317 
L 449.289945 108.778113 
L 450.929519 108.798443 
L 451.98408 108.330863 
L 453.939253 107.385539 
L 455.617314 106.531698 
L 456.725759 105.982801 
L 457.218401 105.657528 
L 457.541697 105.159454 
L 458.473098 104.224295 
L 459.02732 103.441607 
L 459.881746 102.231999 
L 460.651499 100.961402 
L 461.244209 99.639981 
L 461.5829 98.765811 
L 462.483511 97.454555 
L 462.760623 97.373237 
L 463.291752 97.627356 
L 463.961437 98.084771 
L 464.79277 98.450703 
L 467.402233 99.375697 
L 468.726208 99.812783 
L 470.458153 100.666624 
L 470.766054 101.052885 
L 471.389554 101.672936 
L 474.89193 105.992965 
L 476.254393 106.89763 
L 478.263448 107.761636 
L 479.22564 108.371522 
L 480.00309 109.144045 
L 480.703565 110.180852 
L 481.357856 111.705568 
L 482.235374 114.012972 
L 483.236053 115.66983 
L 484.051991 116.594825 
L 485.283596 117.489325 
L 486.284275 118.078882 
L 488.624324 118.902229 
L 490.702657 119.237666 
L 491.487805 119.878047 
L 491.864984 119.552774 
L 492.403811 118.973382 
L 493.620021 118.139871 
L 494.58991 117.05224 
L 495.821515 115.558018 
L 496.999237 114.368739 
L 497.630434 113.555557 
L 498.277027 112.30529 
L 498.761971 110.973705 
L 498.915922 109.591295 
L 498.754274 107.690483 
L 498.838947 107.36521 
L 499.370076 106.755323 
L 499.316194 106.623181 
L 499.169941 106.724829 
L 498.885132 107.395704 
L 498.892829 108.249545 
L 498.9852 109.743767 
L 498.962107 110.719585 
L 498.569533 112.030841 
L 497.876755 113.250614 
L 496.137114 115.283569 
L 495.367361 116.178069 
L 495.413546 116.523671 
L 495.713749 116.716802 
L 495.852305 116.81845 
L 495.205712 116.381365 
L 494.805441 116.625319 
L 494.420564 116.970921 
L 493.720089 117.702785 
L 492.865663 118.39399 
L 492.1267 118.749757 
L 491.018256 118.993712 
L 488.655114 118.963217 
L 487.338837 118.587121 
L 486.138022 117.743444 
L 482.504788 115.22258 
L 480.849819 113.474239 
L 480.080066 111.62425 
L 479.356498 110.180852 
L 478.440492 109.093221 
L 477.216584 108.137733 
L 474.614819 106.674005 
L 473.267751 105.505056 
L 472.051542 102.831721 
L 471.428042 101.74409 
L 470.812239 100.991896 
L 470.080974 100.321021 
L 468.849369 99.48751 
L 467.97185 99.213061 
L 465.808844 98.532021 
L 463.884462 97.688345 
L 462.968456 96.895492 
L 462.106332 95.685884 
L 461.559808 94.598253 
L 461.159536 92.95156 
L 460.83624 89.881798 
L 461.036376 88.865321 
L 461.421252 87.879338 
L 461.936987 87.055991 
L 463.006943 85.815889 
L 463.284055 85.358474 
L 463.045431 84.931553 
L 462.090937 83.904911 
L 462.17561 83.26453 
L 463.253264 82.044757 
L 463.845974 81.536519 
L 465.439363 79.625541 
L 465.9474 79.300268 
L 465.85503 78.731041 
L 465.608709 78.385439 
L 465.23153 78.141484 
L 464.500264 78.121154 
L 463.768999 78.476922 
L 462.244888 79.330763 
L 461.421252 79.483234 
L 460.766962 79.483234 
L 460.043394 79.818672 
L 459.412197 80.530206 
L 459.173573 80.81482 
L 459.381407 80.682678 
L 459.46608 80.77416 
L 459.319826 80.530206 
L 459.427592 80.459052 
L 459.435289 80.011802 
L 459.258246 79.107138 
L 458.988833 78.710711 
L 457.988154 77.836541 
L 457.68795 77.562092 
L 457.364654 77.42995 
L 457.464722 77.399455 
L 457.557092 77.277478 
L 458.057432 77.19616 
L 458.580864 77.277478 
L 458.84258 77.165666 
L 458.142104 77.338467 
L 457.680253 77.348632 
L 457.56479 77.501103 
L 457.772623 77.826376 
L 458.958043 78.710711 
L 459.673913 79.574717 
L 459.781678 80.174439 
L 459.874049 81.617837 
L 460.128067 81.94311 
L 460.551431 82.126075 
L 460.659197 81.953274 
L 460.83624 81.668661 
L 461.113351 81.038445 
L 461.359672 80.5607 
L 462.137123 79.269774 
L 462.460419 78.731041 
L 462.598974 78.476922 
L 462.398839 78.446427 
L 462.437326 78.55824 
L 462.329561 78.731041 
L 462.067845 78.863183 
L 461.613691 78.670052 
L 461.359672 78.365109 
L 461.228814 76.992864 
L 461.436647 76.687921 
L 461.659876 76.606603 
L 461.575203 76.708251 
L 461.305789 76.901382 
L 460.936308 77.21649 
L 460.874728 77.562092 
L 461.267302 78.568404 
L 461.675271 79.23928 
L 461.444345 79.625541 
L 461.105654 80.408229 
L 460.974795 81.02828 
L 460.566826 81.506024 
L 460.466759 81.424706 
L 460.097277 81.668661 
L 460.174252 81.739814 
L 460.18195 81.780473 
L 460.143462 81.749979 
L 459.943326 81.699155 
L 459.835561 81.424706 
L 459.58924 80.377734 
L 459.535357 79.808507 
L 459.666215 80.418393 
L 460.104975 82.176899 
L 460.682289 81.719485 
L 461.413555 80.916467 
L 462.198703 79.818672 
L 464.969814 76.474461 
L 465.962795 75.356336 
L 468.918647 71.697017 
L 470.242622 68.505278 
L 470.458153 67.27534 
L 470.242622 65.323704 
L 469.911628 64.093766 
L 469.311221 63.0163 
L 468.487585 62.081141 
L 467.987246 61.776197 
L 467.502301 61.623726 
L 467.055844 61.67455 
L 466.593993 61.989658 
L 466.378462 62.640203 
L 466.840314 64.225908 
L 467.117425 65.354198 
L 467.309863 67.153363 
L 467.279073 68.362971 
L 466.932684 70.202795 
L 466.517017 71.331085 
L 465.35469 73.374205 
L 464.569542 74.329694 
L 463.153197 75.518972 
L 461.444345 76.413472 
L 459.65082 77.043688 
L 456.825827 77.745058 
L 456.825827 77.673904 
L 456.964382 77.307972 
L 457.518604 76.830228 
L 458.28066 76.342319 
L 460.012604 75.874739 
L 460.782357 75.691773 
L 462.23719 74.756614 
L 461.744549 75.203864 
L 461.159536 75.579961 
L 460.366691 75.905234 
L 454.647426 77.368961 
L 454.070111 77.450279 
L 453.030944 78.050001 
L 451.730062 79.493399 
L 450.883333 80.570865 
L 447.673463 85.460121 
L 443.024155 92.107884 
L 442.239007 93.39881 
L 440.745686 95.63506 
L 440.168371 95.848521 
L 439.560266 95.848521 
L 438.967557 95.63506 
L 437.728254 94.801549 
L 436.481254 94.100179 
L 436.080983 93.032878 
L 435.572946 92.97189 
L 435.442088 92.433157 
L 435.118791 92.046895 
L 434.926353 91.406514 
L 434.972538 90.278224 
L 435.680711 88.113127 
L 435.703804 87.289781 
L 435.388205 85.724406 
L 435.034119 85.134849 
L 433.456125 83.427167 
L 432.717162 82.81728 
L 427.159545 79.23928 
L 425.512274 77.85687 
L 418.800027 71.849489 
L 416.013521 68.332477 
L 414.681849 66.675619 
L 413.781238 65.557493 
L 412.657398 63.809152 
L 411.433491 61.684715 
L 410.248071 59.062203 
L 409.324368 56.622657 
L 409.270485 54.569373 
L 409.447528 53.268281 
L 409.793917 51.997685 
L 410.409719 50.87956 
L 411.587442 49.486985 
L 413.373269 47.860622 
L 413.642682 47.484525 
L 413.796633 47.037275 
L 413.596497 46.57986 
L 412.926812 45.888655 
L 412.064688 45.136462 
L 411.525861 44.262292 
L 410.809991 42.666422 
L 410.709923 41.599121 
L 410.848479 40.531819 
L 411.202565 39.474683 
L 412.180151 37.990626 
L 412.534238 37.451893 
L 413.519522 36.496404 
L 414.974355 35.408773 
L 416.667811 34.676909 
L 419.662151 33.568949 
L 425.019632 32.572801 
L 426.305119 32.603295 
L 432.008989 33.08104 
L 433.910279 33.436807 
L 434.81089 33.680762 
L 439.837377 36.120307 
L 442.600791 37.817825 
L 444.301945 39.037598 
L 445.764476 40.155723 
L 445.818358 40.348853 
L 445.749081 40.541984 
L 445.441179 40.49116 
L 444.933142 40.176052 
L 444.448198 40.25737 
L 443.809303 40.806268 
L 443.639957 41.060388 
L 443.72463 41.40599 
L 443.893976 41.324672 
L 444.271155 40.613138 
L 444.563661 39.942262 
L 444.963933 39.718637 
L 445.079396 39.85078 
L 444.84847 40.094734 
L 443.555285 41.080717 
L 443.455217 40.989234 
L 443.60147 40.877422 
L 443.763118 41.141706 
L 443.893976 41.395825 
L 443.970951 41.345001 
L 444.617544 40.196382 
L 444.948538 39.759297 
L 444.863865 39.464518 
L 444.394315 39.007103 
L 444.001741 38.783478 
L 444.609846 39.057927 
L 445.087093 39.434024 
L 445.279531 39.708473 
L 445.133278 39.932098 
L 443.963254 41.223024 
L 444.094112 41.487308 
L 444.471291 41.395825 
L 444.740704 41.090882 
L 445.025513 40.663961 
L 445.125581 40.094734 
L 445.102488 39.820285 
L 444.963933 39.535672 
L 444.25576 38.93595 
L 442.308285 37.523046 
L 440.214556 36.303273 
L 438.682748 35.479927 
L 432.9096 33.162358 
L 429.869076 32.4 
L 429.399526 32.4 
L 428.260292 32.745602 
L 426.382095 32.562636 
L 424.757916 32.572801 
L 423.634076 32.694778 
L 422.163848 32.918403 
L 421.016916 33.152193 
L 418.361268 33.894222 
L 415.7672 34.920864 
L 414.227694 35.845858 
L 413.319386 36.618381 
L 411.772182 38.437876 
L 411.21796 39.464518 
L 410.794596 40.572478 
L 410.756108 41.507638 
L 410.948547 42.727411 
L 411.348818 43.794712 
L 411.956923 44.679047 
L 412.665096 45.380417 
L 413.688867 46.173269 
L 414.143022 46.864474 
L 414.042954 47.189746 
L 413.373269 47.850457 
L 412.095479 48.775451 
L 410.856176 50.290003 
L 410.171096 51.509776 
L 409.639966 52.790537 
L 409.355158 54.233935 
L 409.385948 55.60618 
L 409.670756 56.958095 
L 410.763806 59.478959 
L 410.771503 59.997362 
L 410.455905 60.383623 
L 409.393645 60.739391 
L 407.138269 61.298453 
L 405.975942 61.755868 
L 405.637251 62.10147 
L 405.460207 62.497896 
L 405.467905 62.904487 
L 406.206868 64.734147 
L 407.169059 67.559954 
L 407.692491 69.460767 
L 408.00809 71.564875 
L 408.085065 72.876131 
L 407.469263 79.178291 
L 407.076689 82.288712 
L 406.714905 83.854087 
L 405.42172 87.523571 
L 402.627516 94.161168 
L 402.527448 94.954021 
L 402.712189 95.757038 
L 403.081671 96.468572 
L 404.105442 97.820487 
L 404.690454 99.345203 
L 406.799578 105.596539 
L 407.623213 107.060267 
L 409.116534 109.072892 
L 410.317349 110.323159 
L 412.749769 112.51875 
L 415.089818 114.34841 
L 417.068083 115.486864 
L 418.830817 116.472848 
L 422.610305 118.810746 
L 423.126039 119.095359 
L 424.965749 120.691229 
L 424.981144 121.179138 
L 424.734823 121.707706 
L 423.526311 123.384894 
L 419.639058 129.097497 
L 417.722373 131.577702 
L 414.550991 135.897731 
L 407.961905 144.080374 
L 405.290862 148.105625 
L 397.947418 159.114075 
L 397.085295 160.476155 
L 392.389801 167.489849 
L 389.002888 172.826356 
L 388.163857 174.595027 
L 387.74819 174.981288 
L 387.278641 175.174419 
L 386.785999 175.174419 
L 386.324147 175.062606 
L 383.576129 173.720856 
L 381.628654 173.009322 
L 380.243098 172.114822 
L 378.303321 170.661259 
L 374.824037 168.526656 
L 374.331395 168.292867 
L 373.800266 168.231878 
L 373.284531 168.374185 
L 372.114506 169.350003 
L 371.552587 170.224174 
L 369.697482 173.476901 
L 369.043192 174.605191 
L 367.842377 176.92276 
L 367.27276 178.010391 
L 367.21118 178.589783 
L 367.318945 179.209834 
L 367.588359 179.789226 
L 367.973235 180.266971 
L 369.689784 181.293613 
L 372.091414 182.584539 
L 376.625259 184.647988 
L 376.971648 184.973261 
L 377.217969 185.369687 
L 377.533568 186.274352 
L 377.856864 186.538636 
L 378.588129 186.477648 
L 378.942216 186.193034 
L 379.119259 185.857596 
L 379.165444 185.4815 
L 378.926821 184.790295 
L 378.411086 184.363375 
L 377.841469 184.109255 
L 377.972327 184.078761 
L 378.334111 184.190573 
L 378.726685 184.536176 
L 379.073074 184.983426 
L 378.957611 185.308699 
L 378.726685 185.369687 
L 378.695895 185.156227 
L 378.888333 184.942767 
L 379.180839 184.769966 
L 379.350185 184.556505 
L 379.804339 185.125733 
L 379.98908 185.562818 
L 379.942895 185.257875 
L 379.95829 185.166392 
L 379.935197 185.176556 
L 378.665105 185.278204 
L 377.795284 184.292221 
L 377.849167 184.11942 
L 378.495759 184.109255 
L 378.880636 184.190573 
L 379.288605 184.485352 
L 379.558018 184.769966 
L 379.542623 184.790295 
L 379.634994 184.881778 
L 379.804339 185.156227 
L 379.804339 185.156227 
L 379.48874 185.135897 
L 379.096166 184.688647 
L 378.341808 184.414198 
L 378.049302 184.068596 
L 378.464969 184.424363 
L 378.464969 184.424363 
L 378.565037 184.597164 
L 378.588129 184.881778 
L 378.380296 185.318863 
L 378.449574 185.379852 
L 378.418784 185.654301 
L 376.886975 186.436988 
L 376.794605 185.684795 
L 376.663747 185.562818 
L 377.148691 186.233693 
L 377.179481 186.558966 
L 378.172463 187.982034 
L 378.341808 188.449614 
L 378.511154 188.734227 
L 378.74208 191.194103 
L 378.949913 193.166069 
L 379.481043 195.463308 
L 379.812037 196.174842 
L 379.704271 196.459456 
L 379.126957 196.764399 
L 377.987722 197.242143 
L 377.140994 197.902854 
L 376.348148 198.797354 
L 375.793926 199.986633 
L 375.024173 202.55832 
L 374.616204 203.828917 
L 373.730988 205.638247 
L 372.399315 207.183293 
L 371.298568 207.996475 
L 370.159334 208.626691 
L 368.950822 208.941799 
L 366.957161 209.165424 
L 365.602396 209.236577 
L 364.21684 209.124765 
L 361.368754 208.636855 
L 357.61236 207.081645 
L 355.3031 205.739895 
L 353.193977 204.357485 
L 350.977088 203.219031 
L 346.989768 201.521513 
L 345.380984 200.484706 
L 343.964638 199.488559 
L 342.817706 198.167138 
L 341.855515 196.672916 
L 341.016484 195.077047 
L 340.608515 193.887768 
L 340.516145 192.617171 
L 340.662398 191.417728 
L 341.085762 190.279273 
L 342.37125 188.175165 
L 343.125608 187.016381 
L 343.21028 186.213363 
L 343.08712 185.471335 
L 342.702243 184.963096 
L 342.686848 184.983426 
L 342.132626 184.556505 
L 340.59312 183.865301 
L 337.991355 182.401573 
L 336.85212 181.86284 
L 334.973923 180.714221 
L 333.880874 180.012851 
L 333.01875 179.596095 
L 332.118139 179.17934 
L 326.953097 175.804635 
L 324.928646 174.574697 
L 319.794393 171.403287 
L 317.254209 169.980219 
L 316.461363 169.461816 
L 316.114974 169.390662 
L 315.830165 169.532969 
L 315.222061 170.36648 
L 313.343863 173.426077 
L 313.066752 173.497231 
L 312.57411 173.253276 
L 311.835147 172.806026 
L 310.834468 172.348611 
L 310.595845 172.013174 
L 310.857561 171.464276 
L 311.573431 170.549446 
L 312.54332 169.390662 
L 312.712666 169.339838 
L 312.874314 169.563463 
L 312.412462 170.224174 
L 311.042302 172.816191 
L 310.865258 173.3041 
L 309.42582 175.550515 
L 309.133314 175.79447 
L 308.779228 175.79447 
L 306.131277 174.554367 
L 304.599469 173.964811 
L 299.880883 171.433782 
L 299.23429 171.362628 
L 297.048192 170.274997 
L 296.401599 170.092032 
L 295.33934 169.47198 
L 293.799834 168.496162 
L 292.575927 168.008253 
L 291.575248 167.500014 
L 291.090303 167.296719 
L 290.636149 167.327213 
L 289.750933 167.693145 
L 289.065853 168.567315 
L 287.195353 172.033503 
L 286.848964 172.338447 
L 286.4256 172.379106 
L 284.131736 171.037356 
L 278.658792 168.109901 
L 276.595854 167.164577 
L 274.786934 166.015957 
L 273.047292 165.101127 
L 270.684151 163.840695 
L 269.945188 163.495093 
L 269.606496 163.393445 
L 269.267805 163.474764 
L 268.713583 164.29811 
L 267.497373 166.615679 
L 266.81999 167.825287 
L 266.458207 168.384349 
L 265.611478 170.295327 
L 262.509374 175.042277 
L 261.216188 176.729629 
L 260.161627 178.701595 
L 258.098689 183.214755 
L 256.782411 185.532324 
L 255.804825 187.646597 
L 255.635479 187.636432 
L 254.680985 189.537245 
L 252.202381 194.121558 
L 251.848294 194.507819 
L 251.001566 194.822927 
L 250.401158 195.697098 
L 245.536319 204.8149 
L 244.042998 208.86048 
L 243.219363 210.314043 
L 241.91848 212.540129 
L 240.810036 214.176657 
L 239.909425 215.86401 
L 239.116579 217.297243 
L 237.015153 221.048045 
L 236.314678 222.481278 
L 231.903993 229.322171 
L 231.242006 230.735075 
L 230.141259 232.808688 
L 227.062247 239.344638 
L 226.477234 240.60507 
L 224.375809 243.898457 
L 222.536099 247.090196 
L 221.827926 248.279475 
L 220.31921 251.278083 
L 219.595642 252.213242 
L 219.210766 252.508021 
L 218.85668 252.629998 
L 218.556476 252.609669 
L 217.201711 252.009947 
L 214.115001 250.393748 
L 212.452334 249.722873 
L 211.420865 249.306117 
L 210.404791 248.858867 
L 210.00452 248.543759 
L 209.265557 247.700083 
L 208.88068 247.476458 
L 208.187903 247.262997 
L 205.462977 245.534986 
L 203.754125 244.660815 
L 202.599496 244.43719 
L 202.106854 244.183071 
L 200.921434 243.227582 
L 200.220959 242.831156 
L 199.828385 242.251764 
L 199.420416 241.601218 
L 198.950866 241.357264 
L 198.766126 240.940508 
L 198.373552 240.350951 
L 197.673076 239.741064 
L 195.748694 238.714422 
L 193.570293 237.809757 
L 188.805522 235.908945 
L 183.394158 233.062808 
L 181.531355 231.670234 
L 179.953362 230.989194 
L 179.021961 230.663921 
L 177.043695 229.433983 
L 174.103239 227.817784 
L 173.048677 227.157074 
L 170.954949 225.622193 
L 167.39869 223.72138 
L 166.067017 223.27413 
L 165.682141 223.284295 
L 165.312659 222.928528 
L 165.312659 222.928528 
L 165.158709 222.959022 
L 164.604486 222.837045 
L 164.304283 222.664244 
L 163.642295 221.71892 
L 162.872542 221.129363 
L 160.170709 219.767283 
L 159.601092 219.401351 
L 158.415672 218.99476 
L 157.314925 218.456027 
L 156.260364 218.10026 
L 154.967179 217.195595 
L 154.143543 216.585709 
L 153.035099 216.168953 
L 152.565549 216.118129 
L 151.657241 216.677192 
L 151.041438 218.12059 
L 150.310173 219.44201 
L 149.140148 221.515624 
L 148.039401 224.524397 
L 145.961068 228.671625 
L 144.998877 229.728762 
L 144.421562 230.033705 
L 143.036007 229.454313 
L 140.74984 228.275199 
L 136.16981 226.018619 
L 135.092156 225.307085 
L 134.561026 224.900494 
L 133.306329 224.412585 
L 129.349798 221.413977 
L 128.118193 220.651618 
L 125.824329 217.551362 
L 125.339385 216.687357 
L 124.469564 214.329129 
L 124.184755 212.651941 
L 123.45349 208.047298 
L 122.552879 206.237969 
L 121.251996 204.611605 
L 120.220527 203.717105 
L 118.473188 202.670133 
L 116.671966 201.867116 
L 114.66291 201.013275 
L 110.952701 199.600371 
L 109.513263 199.061638 
L 108.081522 198.563564 
L 105.110275 197.414945 
L 103.7863 196.967695 
L 100.999794 195.798746 
L 97.474325 194.070734 
L 95.365202 192.352887 
L 91.72427 189.333949 
L 91.170048 188.978182 
L 90.500363 188.82571 
L 89.091715 188.225989 
L 86.859431 187.585608 
L 83.180012 186.213363 
L 81.771364 185.400182 
L 80.585944 184.80046 
L 80.278043 184.80046 
L 79.908561 185.268039 
L 77.57621 189.150983 
L 75.23616 193.501507 
L 74.474105 195.066882 
L 73.542704 196.642422 
L 72.965389 197.61824 
L 72.349587 198.899002 
L 70.648432 201.856951 
L 69.278272 203.076724 
L 68.78563 203.381667 
L 68.262198 203.523974 
L 67.638698 203.483315 
L 67.030593 203.330843 
L 63.597495 201.612996 
L 61.973316 200.616849 
L 59.533199 199.529218 
L 56.192471 196.835553 
L 55.168699 196.073194 
L 52.851743 194.833092 
L 50.473206 193.450683 
L 48.34099 192.271569 
L 48.040786 192.01745 
L 46.678323 191.590529 
L 45.662249 191.021302 
L 44.546107 190.350427 
L 42.76028 189.618563 
L 36.394423 185.918585 
L 35.355256 185.339193 
L 30.63667 182.533715 
L 30.744436 182.625198 
" clip-path="url(#p4dcfcbb13b)" style="fill: none; stroke: #000000; stroke-width: 3"/>
   </g>
  </g>
 </g>
 <defs>
  <clipPath id="p4dcfcbb13b">
   <rect x="7.2" y="7.2" width="515.606747" height="554.4"/>
  </clipPath>
 </defs>
</svg>
