<?xml version="1.0" encoding="utf-8" standalone="no"?>
<!DOCTYPE svg PUBLIC "-//W3C//DTD SVG 1.1//EN"
  "http://www.w3.org/Graphics/SVG/1.1/DTD/svg11.dtd">
<svg xmlns:xlink="http://www.w3.org/1999/xlink" width="362.211154pt" height="568.8pt" viewBox="0 0 362.211154 568.8" xmlns="http://www.w3.org/2000/svg" version="1.1">
 <metadata>
  <rdf:RDF xmlns:dc="http://purl.org/dc/elements/1.1/" xmlns:cc="http://creativecommons.org/ns#" xmlns:rdf="http://www.w3.org/1999/02/22-rdf-syntax-ns#">
   <cc:Work>
    <dc:type rdf:resource="http://purl.org/dc/dcmitype/StillImage"/>
    <dc:date>2023-05-27T05:02:49.753932</dc:date>
    <dc:format>image/svg+xml</dc:format>
    <dc:creator>
     <cc:Agent>
      <dc:title>Matplotlib v3.7.1, https://matplotlib.org/</dc:title>
     </cc:Agent>
    </dc:creator>
   </cc:Work>
  </rdf:RDF>
 </metadata>
 <defs>
  <style type="text/css">*{stroke-linejoin: round; stroke-linecap: butt}</style>
 </defs>
 <g id="figure_1">
  <g id="patch_1">
   <path d="M 0 568.8 
L 362.211154 568.8 
L 362.211154 0 
L 0 0 
z
" style="fill: #ffffff"/>
  </g>
  <g id="axes_1">
   <g id="LineCollection_1">
    <path d="M 90.511648 535.506107 
L 90.494001 535.397286 
L 90.42341 535.537199 
L 90.452823 535.770389 
L 90.299877 535.886983 
L 89.717507 535.723751 
L 89.688094 535.583837 
L 89.093958 535.063048 
L 88.641003 534.744355 
L 86.835066 534.448982 
L 86.087985 534.20802 
L 85.476201 533.749414 
L 84.687942 533.469587 
L 83.787915 532.762246 
L 82.9173 532.474645 
L 82.646704 532.163726 
L 82.281987 531.961629 
L 79.934857 529.754102 
L 79.405429 529.653054 
L 78.864236 529.404318 
L 77.80538 528.588155 
L 77.334778 528.401604 
L 77.099476 527.942998 
L 77.117124 527.958544 
L 76.228862 527.546576 
L 76.240627 527.523257 
L 76.346512 527.235657 
L 76.393573 527.282295 
L 76.558283 527.367798 
L 76.499458 527.406663 
L 76.087681 527.445527 
L 74.811172 526.660457 
L 74.57587 526.644911 
L 74.181741 526.466132 
L 74.199388 526.551635 
L 74.117033 526.660457 
L 74.081738 526.567181 
L 74.052325 526.481678 
L 74.052325 526.458359 
L 74.034677 526.419494 
L 74.028795 526.598273 
L 73.981735 526.598273 
L 73.799376 526.613819 
L 72.016969 525.160271 
L 69.963965 524.180876 
L 68.758046 523.566811 
L 68.446272 523.248118 
L 68.387447 522.867242 
L 69.422773 520.838495 
L 70.087499 519.10512 
L 70.287505 518.755336 
L 70.187502 518.685379 
L 70.205149 518.646514 
L 70.863993 518.180136 
L 71.063999 517.752622 
L 71.387538 517.371746 
L 73.022882 513.772856 
L 74.781759 510.850216 
L 74.99353 510.189513 
L 75.375895 509.746453 
L 76.511223 507.849846 
L 77.117124 506.854904 
L 77.793615 505.385811 
L 78.499519 503.629118 
L 78.6407 503.147193 
L 81.181953 499.291795 
L 81.676086 498.366811 
L 84.429111 493.314374 
L 84.970304 492.311659 
L 85.846801 490.718199 
L 86.152693 490.275139 
L 86.864479 488.689451 
L 91.929339 480.022579 
L 92.617595 479.050956 
L 92.999959 478.467983 
L 93.758806 476.563603 
L 95.435327 473.672054 
L 98.053054 469.187045 
L 98.758958 468.036644 
L 101.429627 463.644911 
L 102.812022 460.551265 
L 103.029676 460.007156 
L 103.812053 458.981123 
L 104.629724 457.216656 
L 105.053267 456.70364 
L 108.45337 450.252067 
L 109.418105 448.580876 
L 109.759292 448.130043 
L 115.800652 436.245157 
L 116.335962 435.102529 
L 117.612472 433.003825 
L 121.294937 426.637754 
L 122.124374 424.919926 
L 123.477356 422.720173 
L 124.036196 421.585318 
L 125.383296 419.354473 
L 126.483329 417.255768 
L 127.106878 416.291919 
L 127.94808 414.714004 
L 128.548098 413.711289 
L 129.401065 412.164466 
L 130.330505 410.780876 
L 130.959936 409.715978 
L 131.418773 408.542258 
L 133.360009 405.440839 
L 133.860024 404.368168 
L 134.52475 403.326589 
L 135.43066 401.787539 
L 136.077739 400.784824 
L 138.007209 397.527946 
L 139.10136 395.133868 
L 139.995505 393.26058 
L 140.877884 392.125725 
L 141.242601 391.154102 
L 142.195571 389.537323 
L 142.524993 389.16422 
L 143.189719 387.858359 
L 145.248605 384.119556 
L 146.542762 381.297964 
L 146.854537 380.271931 
L 147.548675 379.40913 
L 148.254579 378.064405 
L 149.195784 376.92955 
L 149.695799 375.615916 
L 150.248757 374.807526 
L 151.342908 372.724368 
L 151.437029 372.281308 
L 152.142932 371.371869 
L 152.419411 371.177545 
L 152.766481 370.454658 
L 152.984134 370.128192 
L 153.272379 369.902776 
L 153.778276 368.907835 
L 154.43712 366.956817 
L 154.966548 365.752005 
L 155.166554 364.873658 
L 155.225379 364.228501 
L 155.154789 364.010857 
L 154.784189 363.52116 
L 156.41365 362.324121 
L 157.378386 361.61678 
L 158.001934 360.816163 
L 158.637247 359.277113 
L 160.360829 356.043553 
L 160.560835 355.445034 
L 162.819727 351.667366 
L 163.190327 350.625787 
L 163.578574 350.252684 
L 164.643312 348.666996 
L 165.537457 346.809254 
L 166.884557 344.454041 
L 167.119858 343.847748 
L 168.114006 342.122147 
L 169.055211 340.404318 
L 170.543491 338.049105 
L 171.443519 336.455645 
L 171.72588 335.997039 
L 171.831766 335.60839 
L 172.884739 333.750648 
L 174.808327 329.778655 
L 176.178957 327.454534 
L 176.973099 326.381863 
L 177.67312 325.340284 
L 178.014307 324.796175 
L 178.214313 324.135472 
L 179.426114 322.04454 
L 179.802596 321.617027 
L 181.014398 319.681555 
L 181.502648 319.417273 
L 181.626181 319.152992 
L 181.755597 318.165824 
L 182.202669 317.085379 
L 183.302703 315.15768 
L 183.855661 314.333745 
L 185.638068 310.493893 
L 186.361619 309.23467 
L 186.767514 308.379642 
L 187.055758 308.084269 
L 188.279324 305.962246 
L 188.949933 304.757434 
L 189.402888 303.956817 
L 189.661719 303.630352 
L 189.808783 303.171746 
L 190.067614 302.8686 
L 193.07947 297.264281 
L 193.403009 296.55694 
L 193.850082 295.841826 
L 196.203094 291.543368 
L 196.620754 290.882665 
L 197.067827 290.245281 
L 197.461956 289.506848 
L 197.809026 288.768415 
L 197.950206 288.387539 
L 198.361984 287.711289 
L 200.079683 284.92079 
L 200.485577 284.159038 
L 201.562081 282.41789 
L 201.879737 281.648365 
L 202.391518 280.560148 
L 202.462108 280.132634 
L 203.67391 278.002838 
L 204.126865 277.311043 
L 204.715118 276.183961 
L 205.226898 275.1657 
L 207.150486 271.64454 
L 207.244606 271.294756 
L 207.626971 270.742875 
L 207.703444 270.431956 
L 208.109338 269.802344 
L 208.709357 268.784084 
L 214.92131 257.692042 
L 215.33897 256.938063 
L 215.986048 255.733251 
L 216.680187 254.466255 
L 217.433151 253.129303 
L 218.17435 252.002221 
L 218.744956 250.960642 
L 222.215649 244.889944 
L 222.698017 244.003825 
L 223.668635 242.192721 
L 224.127472 241.283282 
L 224.933379 239.728686 
L 225.256918 239.332264 
L 225.492219 238.795928 
L 225.874584 238.298458 
L 226.633431 236.728316 
L 228.409955 233.572486 
L 229.462928 231.753609 
L 231.086507 228.830969 
L 231.957122 227.32301 
L 232.686556 225.309809 
L 233.633643 223.630845 
L 234.286604 222.565947 
L 234.633674 222.084022 
L 235.204279 220.925848 
L 237.057277 217.51351 
L 237.439641 217.023812 
L 239.704416 212.787539 
L 239.998542 212.157927 
L 240.704446 211.077483 
L 241.522118 209.616163 
L 246.492857 200.498458 
L 247.039933 199.425787 
L 249.804723 194.971869 
L 251.351829 192.018137 
L 254.369567 186.499321 
L 254.44604 186.126218 
L 255.975498 183.514497 
L 261.163891 174.241333 
L 262.052154 172.399136 
L 264.534582 168.497101 
L 265.04048 167.548797 
L 265.740501 166.118569 
L 266.258164 165.232449 
L 267.375845 163.125972 
L 267.681736 162.822825 
L 268.034688 162.675139 
L 268.681767 162.776188 
L 269.028836 163.079334 
L 269.775918 163.545713 
L 271.240668 164.408513 
L 272.334819 164.672795 
L 272.534825 164.913757 
L 273.934868 165.815423 
L 274.740774 166.211845 
L 275.081961 166.546083 
L 276.546712 167.292289 
L 276.929076 167.579889 
L 277.387914 167.774213 
L 278.787956 167.735349 
L 279.364444 167.393337 
L 279.382092 167.447748 
L 279.329149 167.548797 
L 279.42327 167.494386 
L 279.523273 167.47884 
L 279.352679 167.55657 
L 279.523273 167.471067 
L 279.670336 167.455521 
L 279.640923 167.432202 
L 279.793869 167.587662 
L 279.787987 167.797532 
L 279.687983 167.688711 
L 279.529155 167.509932 
L 279.870342 167.160148 
L 280.529185 166.600494 
L 281.105674 166.359531 
L 282.217472 165.224676 
L 282.682192 164.859346 
L 283.217502 164.221962 
L 283.917524 163.522394 
L 285.129325 162.061073 
L 285.805816 161.509192 
L 286.370539 160.724121 
L 287.017618 159.830228 
L 287.705874 159.247255 
L 288.635314 158.166811 
L 289.117682 157.715978 
L 289.594167 157.234053 
L 290.705965 155.959284 
L 291.364809 155.205305 
L 291.794234 154.7467 
L 292.029535 154.560148 
L 292.43543 153.953856 
L 293.964888 151.886243 
L 295.776708 148.248489 
L 296.012009 147.463418 
L 296.329665 146.802714 
L 296.447316 146.398519 
L 296.676735 145.916595 
L 296.864976 144.797286 
L 297.288518 143.911166 
L 297.676765 142.923998 
L 298.141485 141.936829 
L 299.582705 137.412955 
L 300.088603 136.5657 
L 301.170989 135.91277 
L 301.75336 135.454164 
L 302.118077 135.39198 
L 302.741625 134.52918 
L 302.782803 134.358174 
L 302.765155 134.412585 
L 302.700447 134.124985 
L 302.929866 133.782973 
L 303.300465 133.005676 
L 303.26517 132.453794 
L 303.335761 132.018507 
L 303.223993 131.87082 
L 302.812215 131.50549 
L 302.700447 131.132387 
L 302.72986 130.64269 
L 302.623974 130.27736 
L 302.665152 130.316225 
L 302.759273 130.230722 
L 303.053399 130.184084 
L 303.347526 129.663294 
L 303.488706 129.375694 
L 303.235758 128.87045 
L 302.835745 128.170882 
L 303.400469 126.670697 
L 303.500472 125.753486 
L 303.988722 124.812955 
L 303.982839 124.587539 
L 303.665182 124.393214 
L 303.341643 124.781863 
L 302.976926 125.450339 
L 302.759273 125.893399 
L 302.606327 126.23541 
L 301.829833 127.144849 
L 301.453351 127.385811 
L 301.076869 127.69673 
L 300.994513 127.69673 
L 300.606266 126.927205 
L 300.694504 126.460827 
L 300.794507 126.227637 
L 300.806272 125.916718 
L 301.482763 125.100555 
L 302.6828 123.895743 
L 302.494559 123.779149 
L 302.059251 124.020111 
L 301.418055 124.665268 
L 301.218049 124.77409 
L 300.829802 124.595312 
L 300.735682 124.48649 
L 300.788624 124.004565 
L 301.965131 123.001851 
L 303.000456 121.991363 
L 304.694625 120.265762 
L 305.371117 119.231956 
L 305.853484 118.299198 
L 306.312322 116.799013 
L 306.547623 114.692535 
L 306.418207 113.005799 
L 306.318204 111.676619 
L 305.171111 109.010487 
L 304.871101 108.753979 
L 304.553445 107.976681 
L 303.953426 106.048982 
L 303.718125 105.271684 
L 303.188697 104.307835 
L 302.912218 103.343985 
L 302.482794 102.022579 
L 302.482794 101.284146 
L 302.529854 100.90327 
L 302.482794 100.281431 
L 302.77692 99.270944 
L 304.000487 96.814682 
L 304.459324 95.850833 
L 304.959339 95.042443 
L 305.318174 94.07082 
L 305.953487 93.114744 
L 307.42412 90.013325 
L 307.953548 89.072795 
L 308.35356 88.684146 
L 309.171232 87.300555 
L 309.565362 86.313387 
L 309.965374 85.963603 
L 311.336004 82.753362 
L 311.824254 81.742875 
L 312.541923 80.390376 
L 313.34783 79.263294 
L 313.618426 79.037878 
L 314.130206 78.128439 
L 314.894935 76.729303 
L 315.653782 75.33794 
L 316.118502 74.45182 
L 316.589104 73.581246 
L 316.847936 72.679581 
L 317.195005 71.824553 
L 318.277391 70.557557 
L 318.55387 70.417643 
L 318.783289 69.997903 
L 318.930352 69.889081 
L 321.530431 65.256385 
L 322.977534 62.574707 
L 323.371663 61.40876 
L 325.971742 56.900432 
L 327.877683 53.247131 
L 328.354168 51.987909 
L 329.124779 50.580999 
L 329.360081 49.69488 
L 329.860096 48.909809 
L 330.095397 48.762122 
L 330.360111 48.902036 
L 330.713063 49.32955 
L 330.907186 49.430598 
L 331.254256 49.391733 
L 332.218991 50.130167 
L 333.077841 50.682048 
L 333.671976 51.07847 
L 334.489648 51.428254 
L 334.448471 51.568168 
L 334.35435 51.350524 
L 334.160226 51.265022 
L 333.407262 50.891919 
L 333.130783 50.705367 
L 331.05425 49.53942 
L 330.471879 49.632696 
L 330.136575 49.321777 
L 330.113045 48.979766 
L 330.365994 48.699938 
L 330.695415 48.552252 
L 331.042485 48.59889 
L 332.042515 49.267366 
L 334.148461 51.218384 
L 333.895513 51.280568 
L 333.460205 51.117335 
L 333.407262 51.148427 
L 333.636681 51.490438 
L 333.577856 51.910179 
L 333.119018 52.430969 
L 333.407262 52.69525 
L 333.677859 52.741888 
L 334.554356 52.578655 
L 334.8426 53.114991 
L 334.707302 53.184948 
L 334.924956 54.257619 
L 335.230847 55.198149 
L 335.289673 55.555706 
L 335.613212 56.822702 
L 335.560269 57.44454 
L 335.019076 59.21678 
L 334.789657 59.286737 
L 334.524943 59.317829 
L 334.136696 59.488834 
L 333.766097 59.325601 
L 333.442558 59.255645 
L 333.166079 59.411104 
L 333.201374 59.675386 
L 333.277847 59.737569 
L 333.47197 59.799753 
L 333.589621 59.893029 
L 333.719037 60.623689 
L 333.836687 61.517582 
L 334.089636 62.201604 
L 334.407293 63.165453 
L 334.489648 63.118816 
L 334.560239 63.087724 
L 334.536708 63.165453 
L 334.40141 63.818384 
L 334.148461 64.479087 
L 334.013163 64.77446 
L 333.983751 65.58285 
L 333.648446 65.769402 
L 333.924925 66.033683 
L 333.807275 66.445651 
L 333.91316 67.005305 
L 334.319055 68.132387 
L 334.160226 68.388896 
L 332.842539 68.793091 
L 332.507235 68.909685 
L 332.636651 69.243924 
L 332.901365 69.127329 
L 332.742536 68.971869 
L 332.866069 68.777545 
L 333.248434 68.692042 
L 333.207256 69.010734 
L 333.142548 69.135102 
L 331.930747 69.430475 
L 331.701328 69.702529 
L 331.442497 69.803578 
L 330.960129 71.148304 
L 330.877774 71.536952 
L 330.513057 72.283159 
L 330.389524 72.656262 
L 330.624825 74.156447 
L 330.766006 74.622825 
L 330.513057 75.62554 
L 330.489527 76.667119 
L 330.018924 78.462677 
L 329.260078 79.519803 
L 327.77768 82.582357 
L 327.736502 83.196422 
L 327.84827 83.841579 
L 327.84827 85.637138 
L 327.983568 86.476619 
L 328.401228 87.168415 
L 329.760093 87.906848 
L 329.760093 87.86021 
L 329.783623 87.914621 
L 329.813036 87.899075 
L 329.995394 87.743615 
L 330.065984 87.525972 
L 330.213048 87.456015 
L 330.360111 87.183961 
L 330.401289 87.012955 
L 330.577765 86.678717 
L 330.830714 86.212338 
L 330.695415 86.157927 
L 330.642473 86.220111 
L 330.260108 86.904133 
L 330.14834 87.036274 
L 330.177753 87.33942 
L 330.21893 87.292782 
L 330.448349 87.26169 
L 330.789536 87.33942 
L 330.942482 87.588155 
L 330.760123 87.99235 
L 330.113045 88.831832 
L 329.589499 89.943368 
L 329.530674 89.927822 
L 329.495379 89.173843 
L 329.695385 88.287724 
L 329.401258 87.86021 
L 328.642412 87.557064 
L 328.518879 87.518199 
L 328.271812 87.059593 
L 328.136514 86.150154 
L 328.342403 83.515114 
L 328.807123 82.263664 
L 329.007129 81.742875 
L 329.360081 81.167674 
L 329.577734 80.483652 
L 330.377759 78.897964 
L 330.530704 77.801974 
L 330.442466 77.592104 
L 330.583647 76.87699 
L 330.701298 76.698211 
L 330.68365 76.309562 
L 330.730711 75.944232 
L 330.595412 75.47008 
L 330.165987 75.291302 
L 329.865978 75.540037 
L 329.065954 76.705984 
L 328.28946 77.428871 
L 328.236517 77.669833 
L 328.295342 77.630969 
L 328.465936 77.638742 
L 328.636529 77.568785 
L 328.512996 77.537693 
L 328.377698 77.475509 
L 328.630647 77.475509 
L 329.148309 77.52992 
L 329.095367 77.553239 
L 329.107132 77.592104 
L 329.077719 77.537693 
L 329.142427 77.561012 
L 329.371846 77.52992 
L 328.77771 77.584331 
L 328.918891 77.669833 
L 328.977716 77.693152 
L 328.924773 77.677606 
L 329.077719 77.226774 
L 329.136544 77.149044 
L 328.989481 76.814806 
L 329.342433 76.558297 
L 329.571852 76.418384 
L 329.507144 76.371746 
L 329.601264 76.348427 
L 329.748328 76.286243 
L 329.595382 76.20074 
L 329.665972 76.045281 
L 330.018924 75.205799 
L 330.071867 75.081431 
L 330.136575 75.112523 
L 330.58953 74.840469 
L 330.554235 74.902653 
L 330.689533 74.933745 
L 330.736593 74.350771 
L 330.807183 73.666749 
L 331.577795 71.886737 
L 331.760154 71.762369 
L 332.213108 70.573103 
L 332.995485 69.9124 
L 333.148431 69.648118 
L 333.466088 68.350031 
L 333.789627 67.759284 
L 334.177874 67.417273 
L 334.613181 66.981986 
L 334.872013 66.406786 
L 334.872013 66.080321 
L 335.33085 64.859963 
L 335.742627 64.346946 
L 336.254408 62.901172 
L 336.754423 62.621345 
L 337.377971 62.683529 
L 337.648568 62.621345 
L 337.789748 62.364837 
L 337.813279 62.108328 
L 338.107405 61.85182 
L 338.360354 61.719679 
L 338.472122 61.727452 
L 338.483887 61.750771 
L 338.860369 62.077236 
L 338.854487 61.952869 
L 338.707423 61.727452 
L 338.725071 61.820728 
L 338.648598 61.921777 
L 338.58389 62.714621 
L 338.701541 62.761258 
L 338.601538 62.613572 
L 338.783896 62.465885 
L 338.813309 62.489204 
L 338.830957 62.411474 
L 338.866252 62.263788 
L 338.878017 62.287107 
L 338.801544 62.131647 
L 338.772131 62.201604 
L 338.660363 62.333745 
L 338.725071 62.310426 
L 338.778014 62.465885 
L 338.819192 62.333745 
L 339.02508 62.053917 
L 339.04861 62.123874 
L 339.189791 62.489204 
L 339.201556 62.528069 
L 339.089788 62.419247 
L 338.848604 62.186058 
L 338.866252 61.805182 
L 338.648598 61.673041 
L 338.654481 61.735225 
L 338.401532 61.890685 
L 337.58386 61.882912 
L 337.330911 61.983961 
L 337.007372 61.976188 
L 336.813248 61.828501 
L 336.825013 61.540901 
L 337.042667 61.354349 
L 337.63092 60.048489 
L 337.930929 59.434423 
L 337.925047 59.442196 
L 337.895634 59.34892 
L 337.842691 59.465515 
L 337.760336 59.519926 
L 336.248525 62.955583 
L 336.172052 63.398643 
L 335.889691 63.569648 
L 335.066136 63.180999 
L 334.942603 63.243183 
L 335.166139 63.23541 
L 336.077932 63.15768 
L 336.177935 62.978902 
L 336.23676 62.916718 
L 336.1897 62.551388 
L 336.289703 61.92955 
L 336.989724 61.222209 
L 337.060315 60.615916 
L 337.313263 60.421592 
L 338.1427 58.789266 
L 338.066227 58.12079 
L 338.089758 57.498951 
L 337.883869 56.488464 
L 337.895634 55.703393 
L 337.777983 55.353609 
L 337.389736 54.957187 
L 337.183848 55.143738 
L 337.113257 55.244787 
L 336.636772 55.547933 
L 336.389706 55.648982 
L 335.860278 55.633436 
L 335.689685 55.470204 
L 335.860278 55.135965 
L 336.477944 54.475262 
L 336.201465 54.397532 
L 335.454383 54.358667 
L 335.2132 54.187662 
L 335.048489 53.9467 
L 334.983781 53.542505 
L 334.683772 53.239358 
L 334.530826 53.262677 
L 334.136696 53.58137 
L 333.630799 53.550278 
L 333.301377 53.410364 
L 333.360202 52.757434 
L 333.677859 52.314374 
L 333.724919 51.840222 
L 333.507265 51.288341 
L 332.895482 50.689821 
L 330.754241 49.244047 
L 330.330698 49.09636 
L 330.21893 49.119679 
L 328.554174 47.907094 
L 327.80121 47.549537 
L 326.936478 46.772239 
L 326.042333 46.609007 
L 325.589378 46.438001 
L 324.871709 45.893893 
L 323.718733 45.342011 
L 323.195187 44.766811 
L 322.812823 44.704627 
L 321.959856 43.375447 
L 321.995151 42.971252 
L 318.106798 41.144602 
L 317.018529 40.406169 
L 315.900848 39.955336 
L 315.200827 39.504503 
L 313.965495 39.07699 
L 313.736077 38.804935 
L 313.653721 38.494016 
L 312.794872 37.864405 
L 312.265444 37.778902 
L 311.353651 37.328069 
L 310.265383 36.550771 
L 309.553597 36.278717 
L 309.459476 36.014436 
L 309.077112 35.905614 
L 308.394738 35.742381 
L 307.924135 35.532511 
L 307.535888 35.229365 
L 306.153493 34.553115 
L 305.941722 34.22665 
L 305.265231 33.962369 
L 304.865219 33.814682 
L 304.047547 33.014065 
L 303.023986 32.60987 
L 302.376908 32.4 
L 301.976896 32.516595 
L 301.318052 33.161752 
L 300.682739 33.923504 
L 300.45332 34.296607 
L 299.417995 35.32264 
L 298.200311 36.659593 
L 297.717943 36.892782 
L 296.488494 38.820481 
L 296.094364 39.667736 
L 294.859033 41.237878 
L 294.506081 41.455521 
L 293.123686 42.800247 
L 292.406017 43.942875 
L 291.453047 45.054411 
L 291.08833 45.295373 
L 290.853029 45.660703 
L 289.682405 46.69451 
L 289.600049 46.492412 
L 289.629462 46.500185 
L 289.841233 46.492412 
L 290.823616 46.430228 
L 291.170685 46.197039 
L 291.441282 45.823936 
L 291.776586 45.606292 
L 293.070743 44.090561 
L 293.570758 43.523134 
L 294.376665 42.2095 
L 294.353135 41.945219 
L 293.788412 41.820851 
L 292.864854 41.719803 
L 291.541285 41.152375 
L 291.11186 41.097964 
L 290.200068 40.616039 
L 289.288275 40.514991 
L 288.952971 40.30512 
L 288.329422 40.281801 
L 288.058826 40.165207 
L 287.411748 39.683282 
L 285.517572 39.356817 
L 284.994027 39.380136 
L 284.717548 39.1314 
L 284.14106 39.007033 
L 284.011644 38.657249 
L 283.952819 38.501789 
L 283.464569 38.276373 
L 282.652779 38.11314 
L 282.523364 38.027637 
L 282.393948 38.136459 
L 282.040996 38.812708 
L 282.152764 39.302406 
L 282.252767 39.698828 
L 281.846873 41.494386 
L 281.829225 42.092906 
L 281.923345 42.644787 
L 282.011583 43.103393 
L 281.758635 43.818507 
L 281.258619 44.797903 
L 281.364505 44.914497 
L 281.246854 45.427514 
L 281.993936 43.406539 
L 282.358653 43.188896 
L 282.482186 43.118939 
L 282.929258 42.396052 
L 282.805725 41.929673 
L 282.070409 43.025663 
L 281.835108 42.80802 
L 281.993936 41.945219 
L 281.529216 41.307835 
L 280.764487 40.367304 
L 279.735044 39.512276 
L 278.352649 38.626157 
L 277.905576 38.587292 
L 277.370266 37.708945 
L 277.517329 37.048242 
L 277.640862 36.737323 
L 277.511447 36.169895 
L 278.046757 35.003948 
L 278.034992 34.646391 
L 278.382061 33.822455 
L 278.58795 32.9752 
L 278.746778 32.656508 
L 279.082083 32.501049 
L 281.170381 32.881925 
L 282.629249 32.990746 
L 282.823373 33.441579 
L 284.511659 33.884639 
L 284.435187 34.397656 
L 284.088117 34.700802 
L 283.693988 35.4781 
L 283.693988 35.874522 
L 283.388096 37.071561 
L 282.970436 39.185811 
L 282.946906 39.154719 
L 282.535129 39.714374 
L 281.91158 40.46058 
L 282.605719 40.771499 
L 282.417478 40.880321 
L 281.682162 41.121283 
L 281.070378 41.758667 
L 280.723309 41.836397 
L 280.146821 41.603208 
L 278.287941 41.587662 
L 278.287941 41.929673 
L 278.07617 41.781986 
L 277.846751 41.99963 
L 277.182025 42.217273 
L 276.129052 42.333868 
L 276.176112 42.015176 
L 275.911398 42.054041 
L 275.817278 42.279457 
L 275.834925 42.28723 
L 275.681979 42.318322 
L 275.617272 42.411598 
L 275.587859 42.372733 
L 275.587859 42.155089 
L 275.511386 42.217273 
L 275.187847 42.123998 
L 275.33491 42.559284 
L 275.31138 42.535965 
L 275.005488 42.909068 
L 274.746657 42.683652 
L 273.411322 42.458236 
L 273.346614 42.349414 
L 273.834864 42.458236 
L 274.070166 42.644787 
L 275.105491 42.932387 
L 275.605507 43.227761 
L 276.811425 43.243307 
L 277.164377 43.212215 
L 276.605537 43.204442 
L 276.28788 43.258853 
L 273.770157 42.248365 
L 273.411322 42.310549 
L 273.128961 42.116225 
L 270.970072 41.719803 
L 270.675945 41.813078 
L 267.169956 40.413942 
L 266.50523 40.204072 
L 266.328754 40.103023 
L 267.134661 40.38285 
L 267.834682 40.476126 
L 268.534703 40.600494 
L 269.152369 40.833683 
L 269.699445 40.934732 
L 269.940629 41.167921 
L 269.917098 42.054041 
L 270.040632 42.155089 
L 270.19946 41.968538 
L 270.117104 41.743122 
L 269.870038 41.696484 
L 269.75827 41.960765 
L 269.281785 43.631956 
L 269.099427 44.277113 
L 268.811182 45.722887 
L 268.558234 46.080444 
L 267.705267 47.285256 
L 267.028775 47.083159 
L 266.646411 46.896607 
L 265.752266 46.849969 
L 265.034597 46.888834 
L 264.846356 47.19198 
L 264.734588 47.774954 
L 264.334576 47.930413 
L 264.146335 49.648242 
L 264.287516 49.959161 
L 264.222808 51.303886 
L 264.311046 51.723627 
L 264.269868 51.342751 
L 264.816943 49.142998 
L 265.08754 48.59889 
L 262.034506 52.32992 
L 261.258012 51.614806 
L 261.240364 51.552622 
L 261.305072 50.899692 
L 261.269777 50.511043 
L 261.334485 49.360642 
L 261.293307 48.668846 
L 261.363897 48.171376 
L 261.328602 47.852684 
L 261.258012 48.140284 
L 261.205069 48.474522 
L 261.193304 49.17409 
L 260.993298 50.044664 
L 260.840352 50.744232 
L 260.734467 51.241703 
L 260.540343 51.342751 
L 260.446222 51.342751 
L 259.899147 51.062924 
L 259.963855 50.604318 
L 259.787379 49.32955 
L 259.875617 48.956447 
L 259.316776 47.261937 
L 259.393249 46.570142 
L 259.410897 46.305861 
L 259.175596 45.88612 
L 258.99912 45.956076 
L 257.669668 45.567428 
L 257.904969 45.497471 
L 257.934381 45.466379 
L 257.928499 45.5752 
L 258.175565 45.629611 
L 258.369689 45.668476 
L 257.434366 45.544109 
L 257.457896 45.582973 
L 257.528487 45.707341 
L 257.487309 45.621838 
L 257.687315 45.668476 
L 257.657902 45.722887 
L 257.769671 45.893893 
L 258.004972 45.870574 
L 257.922616 45.855028 
L 257.922616 45.621838 
L 257.922616 45.505244 
L 257.993207 45.536336 
L 258.063797 45.396422 
L 258.334394 43.67082 
L 258.128505 43.080074 
L 258.322629 42.341641 
L 258.404984 41.851943 
L 258.404984 41.315608 
L 257.999089 40.530537 
L 258.104975 40.522764 
L 258.175565 40.553856 
L 258.104975 40.468353 
L 258.234391 40.064158 
L 258.304981 39.869833 
L 258.222626 38.960395 
L 257.899086 39.108081 
L 256.263742 38.641703 
L 256.028441 38.307465 
L 255.993146 38.361875 
L 255.963733 38.377421 
L 255.963733 38.253054 
L 255.76961 38.144232 
L 255.528426 38.105367 
L 255.581369 38.043183 
L 256.122562 37.879951 
L 256.516691 37.755583 
L 256.581399 37.662307 
L 256.463749 37.677853 
L 256.199035 37.833313 
L 256.128444 37.887724 
L 255.393128 37.755583 
L 254.734284 37.491302 
L 253.946025 37.46021 
L 252.187148 37.024923 
L 250.792988 36.099938 
L 250.022376 35.32264 
L 249.898843 35.019494 
L 249.563539 34.887353 
L 249.340003 34.949537 
L 248.939991 35.1905 
L 248.922343 35.089451 
L 248.928226 34.848489 
L 249.034111 34.638618 
L 248.8694 34.172239 
L 248.563509 34.716348 
L 248.434093 35.314867 
L 248.375268 35.516965 
L 248.728219 35.944479 
L 249.422358 36.480814 
L 250.175322 36.403085 
L 250.351798 36.558544 
L 251.616542 36.41863 
L 251.63419 36.356447 
L 251.63419 36.356447 
L 252.128323 35.835657 
L 252.093028 35.858976 
L 252.357741 35.143862 
L 252.357741 35.143862 
L 252.175383 35.11277 
L 252.293034 35.244911 
L 252.322446 35.276002 
L 252.269503 35.299321 
L 252.140088 35.299321 
L 252.304799 35.377051 
L 252.46951 35.501419 
L 252.910699 35.664651 
L 253.134236 35.734608 
L 253.234239 35.750154 
L 253.216591 35.804565 
L 253.157766 36.255398 
L 254.275447 36.566317 
L 254.898995 36.815052 
L 255.25783 36.916101 
L 256.657872 37.071561 
L 256.69905 37.328069 
L 256.387276 37.949907 
L 256.181387 38.043183 
L 255.269595 39.558914 
L 254.998998 39.768785 
L 254.987233 40.126342 
L 255.116649 40.211845 
L 254.640164 41.502159 
L 254.298977 41.455521 
L 254.087206 41.727576 
L 253.610721 42.030722 
L 253.504835 42.44269 
L 253.551895 42.80802 
L 253.428362 43.546453 
L 253.404832 44.199383 
L 253.146001 44.727946 
L 251.910669 46.25145 
L 251.434184 47.26971 
L 251.398889 47.479581 
L 251.081232 48.0781 
L 250.840048 48.723257 
L 249.898843 50.332264 
L 249.651777 51.179519 
L 249.628247 52.640839 
L 249.834135 53.169402 
L 249.716485 53.736829 
L 249.157644 54.980506 
L 248.898813 56.022085 
L 248.75175 57.289081 
L 250.334151 60.810241 
L 251.004759 61.268846 
L 252.045967 61.175571 
L 252.58716 60.903516 
L 252.734223 60.685873 
L 253.187178 60.499321 
L 253.657781 60.413819 
L 253.651898 60.413819 
L 253.675429 60.328316 
L 253.746019 60.421592 
L 253.822492 60.359408 
L 253.763667 60.242813 
L 253.581308 60.219494 
L 253.281299 60.530413 
L 252.998937 60.810241 
L 252.640103 60.88797 
L 251.816549 60.779149 
L 251.498892 60.584824 
L 250.792988 59.58211 
L 250.70475 59.341147 
L 250.151792 59.084639 
L 249.504714 58.33066 
L 249.069406 57.320173 
L 249.228235 56.449599 
L 249.987081 54.2343 
L 250.128262 54.358667 
L 250.228265 54.762862 
L 250.075319 55.097101 
L 250.022376 56.053177 
L 249.887078 57.646638 
L 249.545891 60.771376 
L 249.151762 61.12116 
L 248.522331 61.307711 
L 247.434062 61.315484 
L 247.116406 61.33103 
L 245.904604 60.926835 
L 245.469297 60.180629 
L 245.351646 59.900802 
L 245.251643 59.162369 
L 245.063402 58.423936 
L 245.039872 57.996422 
L 244.381029 56.208637 
L 244.339851 55.897717 
L 244.057489 55.610117 
L 243.392763 55.69562 
L 242.38685 55.921036 
L 241.475058 55.959901 
L 241.110341 55.98322 
L 241.116224 55.913263 
L 240.827979 55.874399 
L 240.357377 55.827761 
L 240.363259 55.77335 
L 240.204431 55.268106 
L 239.916187 55.159284 
L 239.657356 54.980506 
L 239.145575 54.420851 
L 238.639678 53.845651 
L 238.492614 53.767921 
L 237.404346 55.48575 
L 237.280813 55.959901 
L 237.445524 56.737199 
L 237.657295 57.149167 
L 237.886714 57.428994 
L 238.533792 57.701049 
L 239.069102 57.693276 
L 239.627943 57.491178 
L 239.55147 57.848735 
L 239.210283 58.089698 
L 239.245578 58.019741 
L 238.857331 58.182973 
L 238.851449 58.151882 
L 238.557322 58.198519 
L 238.392611 58.245157 
L 237.939656 58.035287 
L 237.810241 57.848735 
L 237.757298 58.159655 
L 237.892596 58.338433 
L 237.827888 58.276249 
L 237.710238 58.369525 
L 237.73965 58.237384 
L 237.745533 58.182973 
L 238.274961 58.066379 
L 238.580852 58.097471 
L 238.780858 58.144109 
L 238.857331 58.268476 
L 238.769093 58.548304 
L 238.827919 58.758174 
L 239.374994 59.014682 
L 241.092693 59.247872 
L 241.239757 59.317829 
L 241.322112 59.473288 
L 241.392702 60.794695 
L 241.492706 63.83393 
L 241.416233 64.69673 
L 241.345642 65.839358 
L 241.439763 73.192597 
L 241.639769 75.75768 
L 241.533883 76.247378 
L 241.569178 76.768168 
L 241.333877 78.882418 
L 241.045633 82.551265 
L 241.33976 89.422579 
L 240.316199 93.029241 
L 239.9456 94.109685 
L 239.610295 95.221221 
L 239.233813 96.270574 
L 239.057337 97.09451 
L 237.574939 100.90327 
L 237.216105 101.525108 
L 237.104337 101.99926 
L 236.727855 102.535595 
L 236.416081 103.507218 
L 236.20431 103.833683 
L 235.845475 104.642073 
L 232.474785 111.832079 
L 231.286513 113.752005 
L 230.751203 115.244417 
L 228.827615 119.177545 
L 228.639374 120.149167 
L 228.192301 121.587168 
L 227.674639 123.126218 
L 227.415807 123.592597 
L 226.739316 124.292165 
L 226.527545 124.470944 
L 225.745168 125.318199 
L 225.398099 125.667983 
L 224.851024 127.059346 
L 224.274535 130.704874 
L 222.962731 133.751882 
L 222.927436 134.987785 
L 222.89214 135.562986 
L 221.303857 139.612708 
L 219.650866 147.238001 
L 219.292031 148.131894 
L 218.874371 150.41715 
L 217.727278 155.827144 
L 215.750747 159.340531 
L 214.45659 161.55583 
L 213.927162 162.815052 
L 213.533033 163.996545 
L 213.380087 164.672795 
L 213.303614 166.654904 
L 213.044783 167.362246 
L 211.221198 170.005059 
L 210.215285 171.52079 
L 209.932923 172.09599 
L 209.844685 172.624553 
L 209.844685 173.876002 
L 209.3682 174.940901 
L 208.262284 176.79087 
L 207.85639 177.669217 
L 207.291667 178.500925 
L 203.985684 185.21678 
L 202.473873 187.921777 
L 201.662084 189.538556 
L 201.126773 190.339173 
L 200.438517 191.847131 
L 197.685492 197.187168 
L 196.626637 199.581246 
L 196.273685 201.446761 
L 196.344275 202.542751 
L 196.626637 204.143985 
L 198.161977 206.903393 
L 199.432604 207.41641 
L 199.897324 208.092659 
L 199.967915 208.698951 
L 199.679671 210.113634 
L 199.214951 211.170759 
L 197.803143 213.930167 
L 197.561959 214.629735 
L 193.320654 221.695373 
L 192.4971 222.806909 
L 191.191177 224.252684 
L 190.120557 225.807279 
L 189.261707 226.856632 
L 186.008667 231.388279 
L 185.190995 232.523134 
L 183.496826 234.707341 
L 178.726093 241.438742 
L 178.09078 242.363726 
L 176.420141 244.54016 
L 174.561261 246.638865 
L 174.355372 247.190746 
L 173.820062 247.657125 
L 172.767088 249.110672 
L 172.431784 249.538186 
L 172.161188 250.315484 
L 170.867031 252.336459 
L 170.490549 253.160395 
L 170.337603 253.455768 
L 169.661112 253.813325 
L 169.419928 254.108698 
L 169.019916 254.21752 
L 168.47284 254.42739 
L 168.019885 254.396299 
L 167.578695 254.722764 
L 167.396337 255.430105 
L 166.396307 256.495003 
L 163.760932 259.938433 
L 162.82561 260.956693 
L 161.319682 263.055398 
L 158.037229 268.473165 
L 157.548979 269.234917 
L 155.560683 272.235287 
L 154.713599 273.510056 
L 154.595948 273.85984 
L 154.048873 274.403948 
L 153.078255 275.880814 
L 151.71939 277.785194 
L 150.613474 279.215423 
L 149.119311 281.181986 
L 147.342787 283.202961 
L 143.183837 288.434176 
L 137.148359 297.038865 
L 133.189416 304.011228 
L 131.583484 307.299198 
L 130.477568 309.483405 
L 128.689279 313.719679 
L 128.212794 314.256015 
L 127.224528 316.541271 
L 127.083348 317.225293 
L 126.306853 318.305737 
L 125.836251 318.772116 
L 124.442091 320.917458 
L 123.147934 323.156076 
L 122.44203 324.718445 
L 121.55965 326.723874 
L 120.647858 328.488341 
L 119.318406 330.680321 
L 111.341693 347.1124 
L 111.118157 347.703146 
L 110.176952 349.110056 
L 109.418105 351.193214 
L 108.87103 352.351388 
L 104.417953 360.373103 
L 103.376745 362.549537 
L 101.241386 366.109562 
L 101.011967 366.80913 
L 100.329594 367.718569 
L 99.417801 368.993337 
L 98.606012 370.703393 
L 97.547156 372.063664 
L 96.88243 373.237384 
L 95.805927 375.437138 
L 94.894135 376.991733 
L 93.594095 379.160395 
L 92.729363 380.940407 
L 90.717537 384.655891 
L 90.476353 385.098951 
L 90.30576 385.658606 
L 88.417467 388.441333 
L 85.599735 393.416039 
L 84.352638 395.553609 
L 80.646643 402.533745 
L 80.093685 403.6686 
L 79.252483 405.277606 
L 78.446576 407.010981 
L 77.85244 408.013695 
L 77.028886 409.630475 
L 74.975882 413.439235 
L 74.158211 415.188155 
L 72.305213 418.421715 
L 70.728695 421.585318 
L 70.052203 422.937816 
L 68.95217 424.842196 
L 68.381564 425.813819 
L 67.752134 426.668846 
L 67.240353 427.531647 
L 66.769751 428.495497 
L 66.246205 429.327205 
L 65.716778 430.073411 
L 64.963814 431.79124 
L 63.922605 433.85108 
L 63.352 434.682788 
L 60.893102 439.346576 
L 60.334261 440.761258 
L 59.381291 442.292535 
L 55.098808 450.31425 
L 53.586997 452.925972 
L 52.739913 454.667119 
L 49.169216 461.289698 
L 48.416252 462.758791 
L 47.563285 464.235657 
L 47.03974 465.253917 
L 45.751465 467.562492 
L 45.457339 467.982233 
L 45.010266 468.961629 
L 43.686697 471.34016 
L 42.41607 473.819741 
L 41.457217 475.700802 
L 35.762927 484.966194 
L 31.827513 492.785811 
L 31.545151 493.415423 
L 31.180434 494.729056 
L 27.115605 502.276619 
L 26.262638 504.033313 
L 24.36258 507.639975 
L 23.027246 510.446021 
L 23.609616 510.663664 
L 26.697945 511.301049 
L 26.992072 511.285503 
L 27.486204 510.99013 
L 28.062693 509.73868 
L 29.833335 505.805552 
L 32.245173 502.097841 
L 32.709893 501.514867 
L 33.115787 501.009624 
L 33.621685 501.009624 
L 33.815809 501.273905 
L 32.404001 505.85219 
L 30.133344 510.376064 
L 29.880395 510.655891 
L 29.215669 512.591363 
L 29.545091 512.910056 
L 30.368645 513.119926 
L 31.068666 513.158791 
L 31.839278 512.980012 
L 32.645185 513.119926 
L 32.786365 513.31425 
L 33.156965 513.438618 
L 33.627568 513.189883 
L 34.398179 512.482542 
L 34.58642 512.37372 
L 35.121731 512.365947 
L 35.821752 512.599136 
L 37.262972 512.45145 
L 37.986523 512.972239 
L 38.763018 513.213202 
L 39.768931 513.586305 
L 41.698401 514.526835 
L 45.016149 516.26021 
L 46.127947 516.928686 
L 47.127978 517.402838 
L 49.116273 518.794201 
L 49.533933 519.167304 
L 49.975123 519.299445 
L 50.210424 519.62591 
L 52.081069 520.791857 
L 52.645792 520.993954 
L 52.992862 521.328192 
L 53.169338 522.198766 
L 53.17522 522.657372 
L 53.045804 522.944972 
L 52.59285 523.286983 
L 52.334018 523.667859 
L 52.016361 524.351882 
L 51.834003 524.655028 
L 51.028096 527.632079 
L 49.704526 531.448612 
L 50.122186 531.992721 
L 50.551611 532.552375 
L 51.775178 533.213078 
L 51.963419 533.438495 
L 52.17519 533.485133 
L 52.751678 533.967057 
L 52.922271 534.106971 
L 54.551733 534.309068 
L 54.639971 534.301295 
L 55.775299 534.666626 
L 56.534146 535.350648 
L 58.340083 536.376681 
L 58.716565 536.4 
L 59.228345 536.221221 
L 59.593062 535.871437 
L 60.110725 534.666626 
L 61.604888 533.368538 
L 61.946075 533.24417 
L 62.281379 533.345219 
L 62.687274 533.632819 
L 62.722569 533.578408 
L 62.963753 533.803825 
L 64.587332 534.635534 
L 64.922636 534.612215 
L 65.734425 535.01641 
L 66.16385 534.884269 
L 66.275618 534.892042 
L 66.257971 534.876496 
L 66.563862 534.627761 
L 66.805046 534.65108 
L 67.152115 534.829858 
L 67.387417 535.241826 
L 68.040378 535.265145 
L 68.110968 535.38174 
L 68.205088 535.436151 
L 68.39333 535.420605 
L 68.46392 535.646021 
L 68.522745 535.59161 
L 68.769812 535.59161 
L 68.828637 535.66934 
L 68.793342 535.66934 
L 68.816872 535.902529 
L 68.693339 536.081308 
L 68.910992 536.011351 
L 68.910992 536.011351 
" clip-path="url(#p1234945ee0)" style="fill: none; stroke: #000000; stroke-width: 3"/>
   </g>
  </g>
 </g>
 <defs>
  <clipPath id="p1234945ee0">
   <rect x="7.2" y="7.2" width="347.811154" height="554.4"/>
  </clipPath>
 </defs>
</svg>
