<?xml version="1.0" encoding="utf-8" standalone="no"?>
<!DOCTYPE svg PUBLIC "-//W3C//DTD SVG 1.1//EN"
  "http://www.w3.org/Graphics/SVG/1.1/DTD/svg11.dtd">
<svg xmlns:xlink="http://www.w3.org/1999/xlink" width="336.636259pt" height="568.8pt" viewBox="0 0 336.636259 568.8" xmlns="http://www.w3.org/2000/svg" version="1.1">
 <metadata>
  <rdf:RDF xmlns:dc="http://purl.org/dc/elements/1.1/" xmlns:cc="http://creativecommons.org/ns#" xmlns:rdf="http://www.w3.org/1999/02/22-rdf-syntax-ns#">
   <cc:Work>
    <dc:type rdf:resource="http://purl.org/dc/dcmitype/StillImage"/>
    <dc:date>2023-05-29T05:02:58.471003</dc:date>
    <dc:format>image/svg+xml</dc:format>
    <dc:creator>
     <cc:Agent>
      <dc:title>Matplotlib v3.7.1, https://matplotlib.org/</dc:title>
     </cc:Agent>
    </dc:creator>
   </cc:Work>
  </rdf:RDF>
 </metadata>
 <defs>
  <style type="text/css">*{stroke-linejoin: round; stroke-linecap: butt}</style>
 </defs>
 <g id="figure_1">
  <g id="patch_1">
   <path d="M 0 568.8 
L 336.636259 568.8 
L 336.636259 0 
L 0 0 
z
" style="fill: #ffffff"/>
  </g>
  <g id="axes_1">
   <g id="LineCollection_1">
    <path d="M 178.204989 169.919275 
L 179.091371 170.172875 
L 180.022073 170.484998 
L 180.583448 170.59229 
L 181.816998 171.314073 
L 183.737493 172.543056 
L 185.185251 173.216071 
L 186.160272 173.752531 
L 187.896105 174.581607 
L 189.011469 175.449698 
L 189.506366 176.01542 
L 190.163767 176.308035 
L 190.769462 176.805481 
L 191.463795 177.000557 
L 192.172901 176.688435 
L 193.221787 175.791082 
L 193.790549 174.718161 
L 194.588293 172.757641 
L 195.08319 172.455272 
L 195.858775 171.343335 
L 196.228101 171.294566 
L 196.78209 171.528658 
L 198.089504 172.34798 
L 198.879862 172.660102 
L 200.637854 173.606224 
L 203.732807 174.76693 
L 206.030015 175.439944 
L 207.647663 176.259266 
L 209.169286 177.293172 
L 210.513633 178.288063 
L 211.067622 179.078124 
L 218.092204 183.145471 
L 219.18541 183.516117 
L 220.559303 184.198885 
L 222.797419 185.223038 
L 224.178698 185.681468 
L 226.771367 186.881189 
L 227.923664 187.339619 
L 230.84134 188.636879 
L 233.012978 189.553739 
L 235.066431 190.733953 
L 236.418164 191.728843 
L 237.068178 192.314073 
L 238.109677 193.738133 
L 238.84833 195.38653 
L 239.225042 197.151974 
L 239.771645 200.741384 
L 240.606322 203.160334 
L 241.537023 205.091593 
L 242.622842 206.700975 
L 243.295016 207.100882 
L 249.854247 213.567673 
L 250.386076 214.786902 
L 251.302005 216.191454 
L 253.07477 218.698189 
L 254.41173 220.307571 
L 255.187315 221.204923 
L 255.482776 222.014491 
L 255.386751 222.667998 
L 255.165155 223.292243 
L 254.492982 224.569995 
L 253.577053 226.784115 
L 252.683284 229.115281 
L 251.412803 230.929494 
L 250.69631 232.197492 
L 248.842293 235.640595 
L 248.650244 236.440409 
L 248.354783 237.152438 
L 247.911591 237.718161 
L 247.268964 238.303391 
L 246.050188 239.688435 
L 245.555291 240.10785 
L 244.94221 240.43948 
L 243.213764 244.350766 
L 242.556363 245.872364 
L 241.906349 247.189131 
L 241.241563 248.45713 
L 240.643254 249.530051 
L 239.594368 251.373525 
L 238.818784 253.080446 
L 238.789237 253.724199 
L 238.323887 254.67032 
L 237.725578 255.665211 
L 236.580668 257.459916 
L 235.347118 259.488713 
L 234.364711 260.785973 
L 232.577173 263.692615 
L 230.989071 266.40418 
L 230.69361 267.174733 
L 228.691863 270.588574 
L 227.421381 273.592754 
L 226.527612 275.055829 
L 225.308836 277.533302 
L 224.378134 279.025639 
L 224.053127 279.796191 
L 222.753099 281.766465 
L 220.249069 284.760892 
L 219.798491 284.965722 
L 218.838243 286.262982 
L 217.131957 289.94993 
L 216.651833 290.691222 
L 215.876248 292.329865 
L 215.337032 292.944357 
L 214.842135 293.685648 
L 214.073937 295.285276 
L 213.571653 296.845889 
L 210.609658 302.122712 
L 209.885779 303.458987 
L 209.545999 304.161263 
L 208.703936 305.556061 
L 204.958969 313.388388 
L 203.141885 316.480353 
L 201.797538 318.694473 
L 200.888996 319.777148 
L 198.052572 327.141291 
L 197.276987 327.677752 
L 196.013892 329.462703 
L 195.755364 330.135718 
L 194.093396 332.78876 
L 193.509861 333.315467 
L 192.586546 334.846818 
L 191.966078 335.412541 
L 190.762075 337.509614 
L 187.881332 342.903484 
L 184.712514 349.204459 
L 182.415306 353.632699 
L 181.491991 355.047004 
L 178.042485 361.357733 
L 175.169128 365.815235 
L 173.817395 367.044217 
L 172.967945 367.863539 
L 172.340091 368.741384 
L 172.118495 369.131537 
L 172.096335 369.589967 
L 170.678123 370.955504 
L 169.828673 372.486856 
L 169.577532 373.023316 
L 169.533212 373.842638 
L 169.230365 375.110636 
L 168.196252 377.110172 
L 167.420667 378.163586 
L 166.460419 380.00706 
L 165.478012 382.230934 
L 164.901863 383.908593 
L 164.030254 385.898374 
L 163.505811 386.366558 
L 162.833637 387.576033 
L 162.715453 388.005202 
L 162.759772 388.766001 
L 162.730226 388.639201 
L 162.604655 388.60994 
L 162.427379 388.707478 
L 162.21317 388.970831 
L 161.053486 392.053042 
L 160.381312 393.477102 
L 159.590955 394.8719 
L 158.785824 396.461774 
L 158.446044 397.398142 
L 157.190335 399.407431 
L 156.215314 400.636414 
L 154.752783 402.996842 
L 153.777762 403.913702 
L 152.943085 405.045146 
L 150.424281 408.537018 
L 149.567445 410.907199 
L 148.732768 413.014027 
L 146.649769 417.227682 
L 146.199191 418.661496 
L 142.86787 425.177055 
L 141.759892 428.151974 
L 140.770098 429.478495 
L 140.430318 430.249048 
L 139.447911 431.907199 
L 137.106383 437.281561 
L 136.722284 437.974083 
L 136.397277 439.066512 
L 135.739877 440.58811 
L 135.112022 441.992661 
L 133.996658 443.943428 
L 133.213686 445.162657 
L 132.50458 446.537947 
L 131.876726 447.815699 
L 130.458514 450.51751 
L 129.8085 452.234185 
L 129.387468 452.916953 
L 128.840866 453.268091 
L 128.242558 453.326614 
L 127.400494 454.653135 
L 126.77264 456.155225 
L 126.484565 456.935532 
L 126.115239 458.808268 
L 125.805005 459.520297 
L 125.184538 462.056294 
L 124.807825 462.700046 
L 124.623162 463.54863 
L 124.231676 463.968045 
L 123.500411 465.431119 
L 123.441319 466.260195 
L 122.089585 468.913237 
L 121.86799 469.517975 
L 119.740671 470.122712 
L 119.349186 470.785973 
L 118.034385 471.693079 
L 117.59858 472.327078 
L 117.000272 472.775755 
L 116.202528 473.98523 
L 114.348511 477.535625 
L 113.683724 478.3647 
L 112.738249 480.227682 
L 112.509267 480.588574 
L 112.568359 480.793405 
L 112.413242 481.398142 
L 112.413242 481.710265 
L 112.324604 481.681003 
L 112.243352 481.807803 
L 112.139941 482.432048 
L 111.608111 484.070692 
L 111.260945 485.680074 
L 110.278537 486.96758 
L 109.850119 487.835671 
L 109.000669 490.205852 
L 108.44668 491.444589 
L 108.143833 492.137111 
L 107.250064 493.219786 
L 106.806872 493.405109 
L 106.334135 493.912308 
L 104.886377 496.711658 
L 104.598302 497.218857 
L 104.192044 497.696795 
L 103.785785 499.550023 
L 103.054519 501.393497 
L 102.574396 502.398142 
L 101.422098 503.783186 
L 101.052772 503.861217 
L 100.6539 504.241616 
L 99.989113 505.363307 
L 99.324326 506.387459 
L 98.666926 507.694473 
L 98.44533 508.289457 
L 96.657792 511.254621 
L 94.626498 515.048862 
L 94.242399 515.448769 
L 93.555453 516.872829 
L 91.893486 520.452485 
L 90.689483 522.266698 
L 88.916717 524.812448 
L 88.480913 525.183093 
L 87.675782 525.075801 
L 87.476346 525.309893 
L 84.927996 529.582072 
L 83.354667 531.708407 
L 82.32794 534.000557 
L 81.759178 535.512401 
L 80.828476 536.4 
L 79.306853 535.834278 
L 76.76589 534.800372 
L 75.91644 534.137111 
L 75.391997 533.98105 
L 74.734596 533.571389 
L 74.224926 532.81059 
L 72.991377 531.542592 
L 72.430002 530.976869 
L 71.765215 530.576962 
L 69.342436 528.821273 
L 68.625943 528.567673 
L 65.878157 528.538412 
L 64.844044 528.031212 
L 64.341761 527.914166 
L 62.923548 527.280167 
L 63.233782 527.758105 
L 63.130371 528.333581 
L 62.871843 528.606688 
L 61.394538 528.606688 
L 60.855322 528.216535 
L 60.847936 528.011705 
L 61.335446 527.250906 
L 62.066712 525.309893 
L 62.162737 524.705156 
L 62.133191 524.100418 
L 61.83773 523.339619 
L 61.83773 523.339619 
L 61.431471 522.871435 
L 60.973507 522.178913 
L 60.655886 521.476637 
L 60.641113 520.042824 
L 60.537702 519.603902 
L 60.744525 518.921133 
L 60.929188 518.472457 
L 61.032599 517.975012 
L 61.335446 517.370274 
L 61.955914 514.94157 
L 62.288308 514.35634 
L 62.436038 513.751602 
L 62.303081 511.742313 
L 62.066712 510.571853 
L 61.978074 510.796191 
L 61.911595 511.488713 
L 61.749092 511.547236 
L 61.47579 511.771575 
L 60.759298 511.547236 
L 60.168376 511.22536 
L 60.249628 511.332652 
L 60.146216 511.537483 
L 59.850756 511.791082 
L 59.259834 511.830098 
L 58.683685 511.68379 
L 58.43993 511.215606 
L 57.967193 510.591361 
L 57.391044 510.015885 
L 56.777963 509.752531 
L 55.418843 508.816163 
L 52.922198 507.353089 
L 49.635196 505.88026 
L 47.988002 504.787831 
L 45.927163 503.851463 
L 45.129418 503.724663 
L 45.129418 503.724663 
L 45.01862 503.236972 
L 44.560656 502.602973 
L 44.420312 501.998235 
L 43.637341 500.213284 
L 43.423132 500.398607 
L 43.135057 500.486391 
L 42.743572 500.447376 
L 41.421385 499.335439 
L 40.638413 498.681932 
L 38.149156 496.223967 
L 36.723557 495.355876 
L 36.05877 494.897445 
L 35.438302 494.234185 
L 34.655331 493.60994 
L 33.089388 492.946679 
L 31.456967 492.215142 
L 29.26317 490.995913 
L 25.244903 489.279238 
L 23.479524 488.576962 
L 22.275521 488.001486 
L 21.943127 487.650348 
L 21.847103 487.279703 
L 22.63746 484.938783 
L 23.390886 483.63177 
L 24.21079 481.866326 
L 24.432385 480.949466 
L 25.385246 479.798514 
L 26.264243 478.764608 
L 27.305742 477.32104 
L 27.889277 476.765072 
L 28.760887 475.584858 
L 29.233624 475.194705 
L 29.809773 474.277845 
L 31.15412 471.293172 
L 31.708109 469.791082 
L 32.099594 469.157083 
L 33.333144 468.571853 
L 33.901906 468.084162 
L 34.478054 467.34287 
L 35.35705 465.567673 
L 35.593419 464.650813 
L 35.925813 463.909522 
L 36.110476 463.158477 
L 36.694011 461.627125 
L 37.129816 460.03725 
L 37.550847 458.252299 
L 37.846308 457.3647 
L 38.673599 455.98941 
L 39.537822 454.799443 
L 40.291247 453.707013 
L 40.653186 453.19006 
L 41.908895 450.585787 
L 42.226515 449.883511 
L 42.477657 448.459452 
L 44.102692 447.464561 
L 44.568043 447.132931 
L 44.627135 446.255086 
L 44.560656 445.738133 
L 44.789638 444.831026 
L 44.900436 443.650813 
L 45.808978 441.592754 
L 46.614109 440.500325 
L 47.530038 439.837065 
L 48.933477 438.871435 
L 49.43576 438.354482 
L 50.728402 435.018672 
L 51.105114 434.501719 
L 51.555692 434.248119 
L 51.732968 433.81895 
L 51.422735 432.219322 
L 51.740355 431.478031 
L 52.656284 430.171017 
L 53.838127 428.376312 
L 55.581346 426.171946 
L 56.947853 423.655458 
L 57.560934 422.455736 
L 57.93026 421.538876 
L 58.277426 421.012169 
L 59.001306 419.305248 
L 59.77689 417.569066 
L 61.195102 414.867255 
L 62.376946 412.565351 
L 62.85707 411.073014 
L 63.19685 410.458523 
L 63.632654 409.132002 
L 65.952022 406.215606 
L 66.927043 405.328007 
L 67.806039 403.777148 
L 68.190138 402.84078 
L 70.516892 399.212355 
L 72.910125 394.03307 
L 73.567526 393.077195 
L 74.956192 391.896981 
L 75.362451 390.911844 
L 75.495408 390.180307 
L 76.588613 388.385601 
L 77.194308 386.903019 
L 79.299466 382.689364 
L 82.68988 378.787831 
L 84.351847 376.105527 
L 85.23823 374.866791 
L 86.420073 372.769717 
L 86.678601 371.852856 
L 86.76724 370.789689 
L 86.966676 369.853321 
L 87.76442 368.546307 
L 88.61387 367.317325 
L 89.300817 367.005202 
L 91.952578 361.894194 
L 94.05035 356.831955 
L 95.195261 354.881189 
L 95.57936 354.227682 
L 95.837888 353.369345 
L 96.702111 351.916024 
L 97.558947 350.696795 
L 98.903294 348.326614 
L 99.449897 347.673107 
L 100.070365 346.717232 
L 100.528329 346.180771 
L 101.037999 345.819879 
L 101.702786 344.893265 
L 102.168137 344.551881 
L 102.766445 344.434835 
L 103.416459 344.425081 
L 104.007381 343.976405 
L 104.605689 343.752067 
L 106.275043 342.796191 
L 107.235291 342.357269 
L 107.397794 342.220715 
L 107.973943 342.367023 
L 108.7643 342.864468 
L 109.739321 343.517975 
L 110.278537 343.859359 
L 110.876846 344.005667 
L 111.475154 344.298281 
L 111.977437 344.707942 
L 116.076957 346.951324 
L 117.273573 347.556061 
L 120.117384 348.746029 
L 122.414592 349.906735 
L 123.470865 351.018672 
L 124.445886 351.077195 
L 125.169765 350.745564 
L 125.132832 350.687041 
L 125.177151 350.023781 
L 125.24363 349.721412 
L 126.802186 347.243939 
L 126.890824 346.678216 
L 127.592544 344.551881 
L 128.043121 344.239758 
L 129.261898 344.532373 
L 132.770495 346.063725 
L 135.710331 347.585323 
L 138.701872 348.57046 
L 140.201336 348.64849 
L 141.722959 348.336368 
L 142.395133 348.063261 
L 143.458792 347.009847 
L 144.478132 345.712587 
L 146.479879 342.142685 
L 147.654336 339.079981 
L 149.094708 335.880725 
L 151.620898 330.399071 
L 154.870967 325.522155 
L 155.860761 324.56628 
L 158.771051 322.030283 
L 159.967667 321.396284 
L 161.334174 321.035392 
L 163.431946 321.064654 
L 164.768906 321.288992 
L 166.032001 321.747422 
L 170.227545 323.971296 
L 171.527573 324.527264 
L 173.632732 324.907664 
L 175.065717 324.946679 
L 175.752663 324.77111 
L 177.000986 324.068834 
L 180.546516 321.562099 
L 181.499377 320.537947 
L 182.570423 318.63595 
L 184.808539 313.739526 
L 185.694921 312.364236 
L 186.625623 311.037715 
L 187.733601 309.90627 
L 189.011469 309.086948 
L 191.064922 307.906735 
L 192.350177 306.980121 
L 193.672364 306.102276 
L 194.876367 305.06837 
L 195.836615 303.858895 
L 198.769064 299.216071 
L 198.9685 297.811519 
L 199.175323 296.416721 
L 199.877042 293.978263 
L 200.002613 293.197956 
L 200.017386 290.544914 
L 199.795791 289.715838 
L 198.924181 288.282025 
L 197.698019 285.707013 
L 197.232668 283.707478 
L 197.180962 282.010311 
L 197.387785 280.186345 
L 197.594607 279.3085 
L 198.362806 277.67961 
L 199.803177 275.621551 
L 201.354347 273.680539 
L 203.016314 272.119926 
L 204.212931 271.193312 
L 209.198833 267.808732 
L 210.077829 266.804087 
L 210.705683 265.604366 
L 211.185807 264.346122 
L 211.318764 263.058616 
L 211.333537 259.654529 
L 211.636385 258.210961 
L 212.131282 256.923456 
L 212.596632 255.587181 
L 216.474556 242.253693 
L 217.767197 239.85425 
L 218.897335 237.962007 
L 220.33032 236.167301 
L 221.268409 234.948072 
L 222.354227 233.884905 
L 223.550844 232.890014 
L 225.61907 230.558848 
L 228.581065 225.867255 
L 229.319717 224.462703 
L 231.476581 219.020065 
L 233.323212 216.210961 
L 234.682332 213.860288 
L 235.324959 212.660567 
L 236.285207 211.597399 
L 237.681259 210.387924 
L 238.567642 210.027032 
L 239.003447 209.900232 
L 240.488137 209.12968 
L 241.950669 208.437157 
L 245.001302 207.520297 
L 246.522925 207.198421 
L 247.985457 207.227682 
L 251.028703 207.920204 
L 253.370231 208.398142 
L 254.854922 208.339619 
L 256.28052 208.095773 
L 257.698732 207.559313 
L 259.028306 206.759498 
L 260.232309 205.774361 
L 261.20733 204.545379 
L 265.580151 197.025174 
L 267.094388 194.225824 
L 267.951224 192.879796 
L 268.675103 191.397213 
L 272.294499 184.101347 
L 273.047924 183.11621 
L 274.2667 180.716767 
L 276.948007 176.025174 
L 278.070758 174.113423 
L 279.333854 171.977334 
L 279.769658 171.323827 
L 280.55263 169.821737 
L 283.499852 164.847283 
L 284.851585 161.882118 
L 286.432301 157.795262 
L 286.897652 156.18588 
L 287.141407 154.498467 
L 287.311297 151.09438 
L 287.237432 149.358198 
L 287.252205 146.695402 
L 287.399935 144.910451 
L 287.525506 143.135253 
L 287.909605 140.540734 
L 287.806194 138.794798 
L 287.311297 137.1464 
L 286.30673 134.785973 
L 284.94761 132.503576 
L 284.563511 131.694008 
L 284.186798 130.065118 
L 284.135093 129.25555 
L 284.482259 127.636414 
L 285.294776 126.056294 
L 287.163566 122.671714 
L 288.426662 119.921133 
L 289.608505 118.136182 
L 294.09951 112.47896 
L 297.504696 108.909057 
L 300.126911 105.992661 
L 301.116705 104.451556 
L 301.751946 102.842174 
L 302.099113 101.105992 
L 302.150818 99.252764 
L 301.737173 95.809661 
L 301.840584 93.263911 
L 302.032634 91.586252 
L 303.111066 86.036321 
L 304.041768 82.203065 
L 304.743487 80.769252 
L 305.7776 79.442731 
L 306.863419 78.418579 
L 307.66855 77.813841 
L 309.308358 77.121319 
L 310.807821 76.399536 
L 313.415264 74.614584 
L 314.094824 73.863539 
L 314.515855 73.132002 
L 314.737451 72.341941 
L 314.789157 71.629912 
L 314.552788 70.830098 
L 313.466969 69.201208 
L 312.839115 68.430655 
L 311.9158 67.777148 
L 311.022031 67.34798 
L 310.02485 67.406503 
L 309.094149 67.728379 
L 306.996376 68.742778 
L 305.29009 70.09856 
L 304.4628 70.800836 
L 303.694601 71.26902 
L 302.682648 71.707942 
L 301.692854 71.971296 
L 300.70306 72.039573 
L 299.521217 71.85425 
L 298.775178 71.561635 
L 297.970047 70.966651 
L 297.371739 70.274129 
L 296.751271 69.171946 
L 296.522289 68.420901 
L 296.47797 67.211426 
L 297.512083 64.714445 
L 299.092798 62.636879 
L 301.537737 60.091129 
L 301.988315 59.262053 
L 305.083267 55.194705 
L 306.324203 52.746493 
L 307.262291 50.249512 
L 307.528206 49.342406 
L 307.712869 47.59647 
L 307.727642 46.640595 
L 307.579912 45.76275 
L 307.173653 44.758105 
L 306.715689 43.987552 
L 306.132153 43.226753 
L 304.595757 41.929494 
L 301.271822 39.022852 
L 298.405852 37.169624 
L 296.123417 35.891872 
L 293.855755 35.043288 
L 288.419275 34.243474 
L 286.218092 33.892336 
L 281.335601 32.458523 
L 280.744679 32.4 
L 280.183304 32.556061 
L 279.296921 33.102276 
L 277.98212 34.389782 
L 277.273014 35.345657 
L 276.64516 36.486856 
L 275.9656 38.047469 
L 275.928667 39.091129 
L 276.017306 39.70562 
L 276.371859 41.188203 
L 276.64516 42.231863 
L 277.287787 43.060938 
L 279.141804 44.563028 
L 279.577609 44.787366 
L 280.840704 44.865397 
L 281.815725 45.323827 
L 282.258916 45.596935 
L 283.123139 45.723734 
L 283.558944 45.821273 
L 284.386234 46.308964 
L 285.782287 47.59647 
L 286.314116 48.474315 
L 286.927198 50.834742 
L 287.097088 51.907664 
L 287.459027 56.452949 
L 287.806194 57.70144 
L 288.315864 59.018207 
L 288.928945 61.222573 
L 289.047129 61.973618 
L 288.943718 63.602508 
L 288.338023 65.367952 
L 287.599371 67.22118 
L 286.631737 68.742778 
L 285.560691 70.157083 
L 284.969769 70.771575 
L 282.827678 72.341941 
L 281.195257 73.249048 
L 279.370786 74.156154 
L 275.684912 75.541198 
L 274.008172 76.458059 
L 273.291679 77.082304 
L 272.161541 78.57464 
L 271.282545 80.047469 
L 270.632531 81.627589 
L 270.122861 83.285741 
L 269.738762 84.04654 
L 268.675103 85.275523 
L 267.544965 86.21189 
L 266.939271 86.553275 
L 262.972709 87.655458 
L 260.476064 88.894194 
L 257.912941 90.142685 
L 255.239021 91.995913 
L 254.77367 92.464097 
L 253.673078 94.278309 
L 252.934426 95.360985 
L 250.84404 99.330794 
L 250.075842 100.823131 
L 248.406488 104.393033 
L 246.655883 109.34798 
L 243.265469 114.400464 
L 242.260903 115.405109 
L 240.52507 116.60483 
L 237.97672 118.058151 
L 236.876128 118.975012 
L 235.945427 119.969902 
L 235.236321 121.111101 
L 234.697105 122.310822 
L 234.298232 123.559313 
L 234.076637 125.480817 
L 234.039704 126.641523 
L 234.364711 129.557919 
L 234.453349 131.420901 
L 234.039704 133.205852 
L 233.596513 134.39582 
L 232.924339 135.429726 
L 231.735109 136.873293 
L 230.915206 137.60483 
L 229.910639 138.268091 
L 228.285604 138.970367 
L 223.026401 141.086948 
L 220.559303 142.432977 
L 218.808697 143.66196 
L 217.058091 145.066512 
L 215.713744 146.471064 
L 214.723951 147.729308 
L 213.054597 150.411612 
L 210.882959 154.859359 
L 210.380676 156.576033 
L 209.863619 159.063261 
L 209.678956 161.540734 
L 209.642024 163.081839 
L 210.048283 166.134789 
L 210.853413 168.992661 
L 211.318764 170.328936 
L 212.013097 172.162657 
L 212.478448 174.006131 
L 212.596632 175.888621 
L 212.5597 177.166373 
L 211.865367 179.546307 
L 208.955077 184.647562 
L 206.074334 188.568602 
L 205.158405 189.50497 
L 203.681101 190.694937 
L 202.779945 191.533767 
L 200.770812 192.850534 
L 197.380398 195.51333 
L 196.626973 196.400929 
L 196.287193 196.635021 
L 196.095144 196.625267 
L 196.198555 196.22536 
L 196.900274 193.80641 
L 197.6537 190.353553 
L 197.6537 186.929958 
L 197.373012 184.686577 
L 196.841182 182.872364 
L 194.942846 180.033999 
L 193.642818 179.224431 
L 193.04451 179.312216 
L 192.084262 178.853785 
L 191.722323 179.1464 
L 190.799008 180.64849 
L 189.033629 183.867255 
L 187.96997 185.798514 
L 186.869378 187.74928 
L 185.680148 189.543985 
L 185.096613 189.924385 
L 184.468759 190.051184 
L 183.176118 189.651277 
L 181.949955 189.017278 
L 177.311219 186.032606 
L 175.479362 184.979192 
L 174.090696 184.150116 
L 172.458275 183.311287 
L 169.30423 181.69215 
L 168.691149 181.175197 
L 164.754133 178.863539 
L 164.22969 178.239294 
L 161.910322 177.117603 
L 159.103444 175.449698 
L 153.268092 172.601579 
L 151.990224 171.752996 
L 148.47424 170.114352 
L 148.378215 169.597399 
L 148.407761 169.607153 
" clip-path="url(#pe5f9edba31)" style="fill: none; stroke: #000000; stroke-width: 3"/>
   </g>
  </g>
 </g>
 <defs>
  <clipPath id="pe5f9edba31">
   <rect x="7.2" y="7.2" width="322.236259" height="554.4"/>
  </clipPath>
 </defs>
</svg>
