<?xml version="1.0" encoding="utf-8" standalone="no"?>
<!DOCTYPE svg PUBLIC "-//W3C//DTD SVG 1.1//EN"
  "http://www.w3.org/Graphics/SVG/1.1/DTD/svg11.dtd">
<svg xmlns:xlink="http://www.w3.org/1999/xlink" width="332.697438pt" height="568.8pt" viewBox="0 0 332.697438 568.8" xmlns="http://www.w3.org/2000/svg" version="1.1">
 <metadata>
  <rdf:RDF xmlns:dc="http://purl.org/dc/elements/1.1/" xmlns:cc="http://creativecommons.org/ns#" xmlns:rdf="http://www.w3.org/1999/02/22-rdf-syntax-ns#">
   <cc:Work>
    <dc:type rdf:resource="http://purl.org/dc/dcmitype/StillImage"/>
    <dc:date>2023-06-05T05:03:12.460469</dc:date>
    <dc:format>image/svg+xml</dc:format>
    <dc:creator>
     <cc:Agent>
      <dc:title>Matplotlib v3.7.1, https://matplotlib.org/</dc:title>
     </cc:Agent>
    </dc:creator>
   </cc:Work>
  </rdf:RDF>
 </metadata>
 <defs>
  <style type="text/css">*{stroke-linejoin: round; stroke-linecap: butt}</style>
 </defs>
 <g id="figure_1">
  <g id="patch_1">
   <path d="M 0 568.8 
L 332.697438 568.8 
L 332.697438 0 
L 0 0 
z
" style="fill: #ffffff"/>
  </g>
  <g id="axes_1">
   <g id="LineCollection_1">
    <path d="M 51.394199 493.503969 
L 51.394199 493.350459 
L 51.525529 493.270367 
L 50.974952 494.805467 
L 51.136589 494.438377 
L 51.464915 494.605236 
L 51.586144 494.645282 
L 51.646758 494.531818 
L 52.055902 494.705351 
L 53.455076 494.772095 
L 53.611663 494.912256 
L 54.081421 494.945628 
L 54.399645 495.28602 
L 54.778483 495.239299 
L 55.384623 495.726527 
L 55.642233 495.739875 
L 56.404959 495.986826 
L 57.026253 496.233777 
L 58.233483 497.081419 
L 58.607269 497.421811 
L 59.026516 497.48188 
L 59.592247 497.98913 
L 60.112518 498.029176 
L 60.309514 498.176012 
L 60.147876 498.569799 
L 60.577226 498.676588 
L 61.102547 498.529752 
L 61.698585 498.062548 
L 62.79974 496.400636 
L 63.021992 495.579691 
L 63.087657 495.399484 
L 63.405881 495.245974 
L 64.623213 495.860014 
L 65.577884 496.367264 
L 66.59822 496.567494 
L 70.8311 497.83562 
L 71.78072 498.389591 
L 72.705084 498.996957 
L 73.583988 499.704438 
L 74.882138 500.5988 
L 76.412643 501.593278 
L 77.927994 502.307433 
L 79.428191 503.108355 
L 80.387913 503.402026 
L 80.862723 503.682349 
L 81.852752 504.036089 
L 83.43882 504.550014 
L 85.439083 505.437702 
L 87.944463 506.358762 
L 90.697351 508.107441 
L 91.121649 508.541274 
L 91.798506 509.649215 
L 92.283418 510.850598 
L 92.778432 514.054285 
L 93.041093 515.182249 
L 94.152351 517.344738 
L 94.879719 518.312518 
L 95.839441 519.11344 
L 96.61227 519.981105 
L 97.011313 520.394915 
L 98.092263 521.069024 
L 100.02181 523.945668 
L 101.582621 525.927949 
L 103.431349 527.930253 
L 103.835443 527.91023 
L 104.03749 528.083763 
L 104.335509 528.63106 
L 104.64363 528.891359 
L 107.280341 530.05937 
L 107.613718 530.119439 
L 109.6948 531.360868 
L 110.078689 531.327496 
L 111.452607 532.021628 
L 111.523323 532.288602 
L 111.487965 532.482158 
L 111.609193 533.049478 
L 113.215465 533.630146 
L 114.094369 533.730261 
L 114.18529 533.750284 
L 114.367132 534.110699 
L 114.761123 534.277558 
L 114.801532 534.237511 
L 114.862146 534.324278 
L 115.195524 534.604601 
L 115.316752 534.464439 
L 116.220911 534.931644 
L 117.266503 535.365476 
L 118.665677 535.73924 
L 119.711269 536.366628 
L 120.287103 536.346605 
L 120.564917 535.819332 
L 121.277132 534.66467 
L 121.863068 533.683541 
L 122.484361 533.449938 
L 122.691459 532.909316 
L 123.267293 531.754654 
L 123.812819 530.833594 
L 124.237117 529.999301 
L 124.691723 529.358563 
L 125.206942 528.991474 
L 127.05567 526.408502 
L 128.106313 524.466267 
L 128.242695 523.959016 
L 130.167191 521.102396 
L 129.985348 520.508379 
L 130.429851 520.167987 
L 130.707666 519.126789 
L 131.192578 518.219078 
L 132.23817 516.490422 
L 132.93018 514.955322 
L 133.127176 514.421374 
L 133.738368 513.486965 
L 135.253718 510.403417 
L 135.622454 509.402265 
L 135.895217 508.975106 
L 136.258901 508.014 
L 137.562103 506.372111 
L 139.021891 503.749092 
L 139.567417 503.081657 
L 140.304888 501.686719 
L 140.299837 501.312955 
L 140.61301 500.592126 
L 140.971643 500.325152 
L 141.638397 498.903516 
L 143.63866 495.346089 
L 144.320568 494.431703 
L 146.088477 491.49499 
L 146.937074 489.592801 
L 147.467447 488.658393 
L 147.836182 487.784053 
L 148.492834 486.923062 
L 148.497885 486.943085 
L 148.619113 487.283477 
L 148.684779 487.136641 
L 149.07877 486.008677 
L 149.326277 485.608216 
L 149.402045 485.181058 
L 155.226043 474.782424 
L 155.923105 473.59439 
L 156.913134 471.872409 
L 159.105342 467.901172 
L 162.661365 461.747424 
L 163.383683 460.539367 
L 164.439377 458.76399 
L 165.277871 457.168821 
L 165.692067 456.801732 
L 166.35377 455.400119 
L 167.212469 453.844996 
L 167.86407 452.843844 
L 168.333829 451.795972 
L 168.667206 451.368813 
L 168.889458 450.828191 
L 170.106789 448.812538 
L 172.016132 445.181693 
L 172.809165 444.153844 
L 173.319333 442.885718 
L 174.102265 441.550848 
L 174.637689 440.729903 
L 175.208471 439.69538 
L 175.753997 438.327138 
L 176.733924 436.598482 
L 176.981431 436.21137 
L 177.521907 435.684097 
L 177.66839 435.390425 
L 177.638083 434.929896 
L 177.814874 434.402622 
L 178.168456 434.028859 
L 182.042703 427.127583 
L 182.148778 426.60031 
L 182.992323 425.338858 
L 183.361059 424.484542 
L 183.780306 423.169695 
L 185.487601 420.373144 
L 185.846234 419.959334 
L 186.240225 419.038274 
L 192.160196 408.365993 
L 192.761286 407.311446 
L 193.872543 405.269095 
L 194.418069 404.207874 
L 194.675679 403.880831 
L 194.690832 403.560462 
L 194.963596 403.28014 
L 195.41315 402.232267 
L 195.827346 401.564833 
L 196.463793 400.430193 
L 196.675942 400.00971 
L 197.069933 399.582551 
L 197.761944 398.220984 
L 197.933683 397.767129 
L 198.246856 397.480132 
L 198.635796 396.5257 
L 199.499546 395.204179 
L 199.837974 394.863788 
L 200.89872 393.088411 
L 201.97967 391.446522 
L 202.651476 390.071606 
L 203.191951 388.730062 
L 204.111264 386.927989 
L 204.6972 386.113718 
L 205.065935 385.132589 
L 205.959992 383.757674 
L 206.29842 383.343864 
L 206.768179 382.356061 
L 207.581417 381.054563 
L 208.404758 379.272512 
L 208.662368 378.898749 
L 208.733084 378.438219 
L 210.763654 374.753979 
L 211.440511 373.672734 
L 216.208815 365.610123 
L 216.284583 365.223011 
L 216.663421 365.009431 
L 217.0069 364.789178 
L 217.547375 364.462135 
L 218.022185 363.874792 
L 218.229283 363.761329 
L 218.254539 363.354193 
L 218.163618 362.793548 
L 218.64853 361.805745 
L 219.103136 361.144984 
L 219.178903 360.971451 
L 219.204159 360.57099 
L 219.835555 359.60321 
L 220.067909 358.602058 
L 220.512412 358.128179 
L 221.244831 356.866728 
L 221.861074 355.61195 
L 222.729875 354.110222 
L 223.108713 353.72311 
L 223.9169 352.074546 
L 225.129181 349.11781 
L 225.720168 348.263494 
L 225.917163 347.856359 
L 226.260643 347.576036 
L 226.472792 347.168901 
L 226.669788 346.347956 
L 227.185007 345.533686 
L 228.139678 343.371197 
L 228.311418 343.004108 
L 228.654897 342.73046 
L 228.771074 342.490183 
L 228.690256 342.256581 
L 228.816535 342.096397 
L 229.048889 341.562449 
L 231.023896 338.105137 
L 232.402865 335.86923 
L 232.620066 335.442072 
L 233.594941 334.254038 
L 233.645453 333.733439 
L 233.231257 333.51986 
L 232.473582 332.785682 
L 232.024028 332.625498 
L 231.266352 332.131596 
L 230.180351 331.717786 
L 228.473055 330.669914 
L 225.795935 329.114791 
L 225.533275 328.774399 
L 225.508019 328.413984 
L 226.371769 325.984522 
L 226.977909 325.13688 
L 226.907193 325.110182 
L 226.856681 325.110182 
L 226.972858 325.043439 
L 227.321389 324.008915 
L 228.503362 322.787509 
L 229.084247 321.058853 
L 230.407653 318.869667 
L 230.599598 318.295674 
L 231.55932 316.987501 
L 231.912902 316.860689 
L 232.266484 316.900735 
L 234.100058 318.108792 
L 234.852683 318.342394 
L 235.777047 318.816273 
L 236.277112 319.10327 
L 237.070146 319.517079 
L 237.272193 319.470359 
L 237.736901 318.862993 
L 237.620724 317.975305 
L 237.868231 316.373462 
L 237.817719 316.246649 
L 237.600519 316.613738 
L 237.590417 317.207755 
L 237.514649 317.46138 
L 237.282295 317.715005 
L 237.221681 318.002002 
L 237.454035 318.482555 
L 237.479291 318.889691 
L 237.570212 319.156664 
L 237.555058 319.50373 
L 237.21663 319.663915 
L 236.883253 320.618347 
L 236.812536 321.14562 
L 236.832741 321.692916 
L 236.974174 321.632847 
L 237.120658 320.918692 
L 237.135811 320.431465 
L 237.307551 319.950912 
L 237.246937 319.630543 
L 237.529803 318.963108 
L 237.358063 318.369091 
L 236.423596 317.701657 
L 234.564766 316.747225 
L 232.574605 315.859537 
L 232.630168 315.886234 
L 232.670577 315.839514 
L 232.650373 315.966326 
L 232.615014 315.812816 
L 232.513991 315.759422 
L 232.544298 315.499122 
L 233.367639 313.943999 
L 233.665658 313.109706 
L 234.115212 312.028461 
L 234.241491 311.661372 
L 234.685994 310.993937 
L 234.948655 310.279782 
L 235.40326 309.392094 
L 235.564898 309.098423 
L 235.852814 308.864821 
L 238.433962 304.486449 
L 239.878596 302.804513 
L 240.808012 302.470796 
L 243.192164 302.424075 
L 248.763604 302.771141 
L 249.485921 302.671026 
L 250.794174 302.884605 
L 253.19348 304.232823 
L 254.047128 304.813492 
L 254.239072 304.960327 
L 254.415863 304.913607 
L 254.5775 304.51982 
L 254.572449 304.2128 
L 254.254225 303.825688 
L 251.07704 301.850081 
L 250.182983 301.723269 
L 248.632274 301.756641 
L 246.399657 301.696571 
L 242.712303 301.623154 
L 239.63614 302.030289 
L 239.060307 302.243868 
L 238.322836 302.831211 
L 234.170775 310.50671 
L 233.251462 312.936173 
L 233.276718 313.263216 
L 233.120131 313.363331 
L 233.221155 313.176449 
L 233.877807 311.914997 
L 234.62538 310.686917 
L 235.342646 309.325351 
L 236.176089 307.883692 
L 236.878202 306.255151 
L 236.716564 306.328569 
L 236.514517 306.575519 
L 236.105373 307.509928 
L 233.796988 310.833753 
L 233.367639 311.814882 
L 231.715906 315.11201 
L 231.478501 315.232148 
L 231.210789 315.091987 
L 230.604649 314.584736 
L 230.235914 314.364483 
L 229.766155 314.264368 
L 227.078932 312.76264 
L 225.997982 312.275412 
L 225.311023 311.894974 
L 224.225022 311.361027 
L 223.962361 311.114076 
L 223.982565 310.673569 
L 224.502836 309.946065 
L 225.114027 308.844798 
L 225.225153 307.997155 
L 225.553479 307.576672 
L 226.366718 306.802447 
L 226.37682 306.51545 
L 226.270745 306.16171 
L 226.371769 305.861364 
L 227.104188 305.340765 
L 227.695175 304.132708 
L 228.452851 302.537539 
L 229.210526 301.416249 
L 229.629773 300.682071 
L 230.91277 298.599674 
L 231.665395 297.351571 
L 232.3372 296.163537 
L 233.261564 294.328092 
L 233.104978 293.947654 
L 232.412968 293.427055 
L 228.508413 291.491494 
L 228.230599 291.184474 
L 227.821454 291.117731 
L 224.826111 289.682746 
L 222.987485 288.861801 
L 222.628852 288.694943 
L 222.305577 288.41462 
L 220.85084 287.627047 
L 219.820402 286.87952 
L 218.729349 286.325549 
L 218.118157 286.172039 
L 217.87065 286.031878 
L 217.582733 286.011855 
L 217.188742 285.865019 
L 216.996798 285.084121 
L 217.623143 283.775949 
L 218.178771 283.061793 
L 220.093165 279.978245 
L 222.315679 275.926916 
L 222.997587 274.785602 
L 223.290555 273.984681 
L 223.780519 273.07697 
L 224.467478 272.135887 
L 224.714985 271.308267 
L 225.639349 269.23922 
L 226.189927 268.545088 
L 226.513201 268.231393 
L 228.058859 265.688467 
L 228.230599 265.167868 
L 228.730665 264.427015 
L 229.27114 263.312399 
L 230.30663 261.630464 
L 231.180482 260.762798 
L 231.407785 260.789496 
L 231.55932 261.049795 
L 232.710987 261.757276 
L 233.322178 261.930809 
L 234.685994 262.598244 
L 236.357931 263.40584 
L 236.762025 263.66614 
L 237.923794 264.306877 
L 239.519963 265.428167 
L 240.767602 265.968789 
L 241.515175 266.462691 
L 242.363772 266.716316 
L 243.762946 266.923221 
L 246.722931 266.669596 
L 247.162383 266.749688 
L 249.339437 266.743014 
L 252.006455 267.023336 
L 253.269247 267.183521 
L 255.032106 267.370402 
L 255.688758 267.377077 
L 258.093114 267.744166 
L 258.886148 267.637376 
L 259.169014 267.684097 
L 259.396316 267.977768 
L 259.396316 268.21137 
L 259.401367 267.784212 
L 259.320549 267.770863 
L 258.578027 267.630702 
L 258.320417 267.624028 
L 257.749635 267.824258 
L 255.062413 267.176846 
L 252.405497 266.82978 
L 250.779021 266.602852 
L 247.586681 266.542783 
L 247.000746 266.729665 
L 245.5056 266.689619 
L 243.666974 266.776386 
L 241.303026 266.382599 
L 240.631221 266.06223 
L 231.417887 260.882937 
L 231.099664 260.896285 
L 230.776389 261.029772 
L 230.569291 260.74945 
L 230.69557 260.522522 
L 230.963282 260.575917 
L 230.897617 260.422407 
L 230.99864 260.142084 
L 231.847237 258.560264 
L 232.170512 257.105256 
L 232.928187 255.363251 
L 233.438355 254.435517 
L 233.948523 253.607898 
L 234.847631 251.191784 
L 234.827427 250.838044 
L 234.504152 250.524349 
L 232.852419 249.750125 
L 232.377609 249.396385 
L 230.857207 248.628835 
L 229.028684 247.487521 
L 228.432646 247.380732 
L 227.073881 246.586484 
L 226.114159 246.266116 
L 224.831162 245.718819 
L 224.043179 245.345056 
L 222.194451 244.397298 
L 221.775204 244.083604 
L 221.618618 243.229288 
L 221.951995 242.655294 
L 222.724824 241.106845 
L 222.825848 240.599595 
L 223.300658 239.785324 
L 226.109108 235.440324 
L 226.917295 234.012014 
L 227.462821 233.057582 
L 229.932843 228.67921 
L 230.69557 227.077367 
L 230.897617 226.603488 
L 231.332017 225.875984 
L 233.695965 221.737889 
L 234.059649 221.043757 
L 235.352748 219.121545 
L 235.514386 218.821199 
L 235.413362 218.19381 
L 235.23152 218.026952 
L 234.574868 217.893465 
L 234.251593 217.399563 
L 234.004086 217.065846 
L 233.97883 217.22603 
L 233.877807 217.499678 
L 234.120263 217.846744 
L 235.342646 218.714409 
L 235.554795 218.841222 
L 235.590153 219.295078 
L 235.413362 219.461936 
L 235.494181 219.261706 
L 235.312339 219.208311 
L 234.978962 220.055953 
L 234.736506 220.95699 
L 234.044495 222.552159 
L 233.670709 222.945946 
L 233.463611 222.985992 
L 233.094876 222.425347 
L 233.094876 222.051583 
L 234.691045 219.168265 
L 236.110424 216.665385 
L 236.746871 215.070216 
L 237.327756 214.202551 
L 237.544956 212.614056 
L 237.464137 211.098979 
L 237.413626 210.258011 
L 237.459086 209.850876 
L 237.337858 208.956513 
L 237.332807 207.76848 
L 237.191374 207.561575 
L 237.065095 207.628318 
L 237.095402 207.528203 
L 237.039839 207.40139 
L 236.953969 207.454785 
L 236.938816 207.514854 
L 236.721615 207.234532 
L 236.883253 207.214509 
L 237.418677 207.668364 
L 237.600519 208.095523 
L 237.438882 208.62947 
L 237.90864 211.659624 
L 237.969254 212.240292 
L 238.181403 213.001168 
L 238.065227 214.082412 
L 237.656082 214.943403 
L 237.272193 215.390584 
L 236.721615 216.632013 
L 235.979093 217.439609 
L 235.580051 217.873442 
L 235.378004 218.821199 
L 235.251725 219.321775 
L 233.958626 220.75676 
L 233.76163 221.090477 
L 232.872624 222.044909 
L 232.76655 222.578857 
L 232.882726 222.772413 
L 233.110029 222.9059 
L 233.665658 222.638926 
L 233.852551 222.305208 
L 234.069751 221.504287 
L 234.49405 220.75676 
L 235.150702 219.855723 
L 235.569949 218.921314 
L 235.48913 218.627643 
L 236.100322 217.48633 
L 236.277112 215.597489 
L 236.070015 214.736498 
L 236.0094 212.647428 
L 236.256908 211.873203 
L 237.120658 210.504962 
L 237.666184 210.017735 
L 238.545088 209.557205 
L 239.014846 209.450415 
L 239.196689 209.236836 
L 240.479686 209.15007 
L 243.313392 208.969862 
L 244.465059 208.702888 
L 248.253436 208.289079 
L 252.087274 207.741782 
L 253.082354 207.795177 
L 254.077435 207.76848 
L 254.61791 207.901967 
L 255.203845 208.022105 
L 256.956601 207.634993 
L 261.108663 206.240054 
L 264.437384 204.805069 
L 266.079014 203.783894 
L 267.942895 202.415653 
L 268.720775 201.761567 
L 271.377691 199.265361 
L 273.862866 196.155115 
L 274.241704 195.761329 
L 274.605388 194.993779 
L 274.575081 194.633364 
L 274.201295 194.112765 
L 273.1456 193.899186 
L 272.509153 193.899186 
L 270.928137 194.426459 
L 269.933056 194.907012 
L 266.094167 195.7947 
L 265.088984 195.888141 
L 262.634116 196.25523 
L 260.441908 196.475484 
L 259.078093 197.036129 
L 256.380768 198.290906 
L 256.077698 198.844877 
L 255.799883 198.97169 
L 255.168487 198.731413 
L 254.355249 198.070653 
L 254.037025 197.28308 
L 253.829927 197.082849 
L 253.658187 196.522204 
L 253.693546 196.215184 
L 253.552113 196.095046 
L 252.834847 192.78457 
L 252.713619 191.529792 
L 252.562084 191.069262 
L 252.819693 186.223686 
L 252.966177 185.3093 
L 253.587471 183.006651 
L 254.673473 179.255667 
L 254.96644 178.681673 
L 255.421046 176.545882 
L 255.628144 175.137595 
L 255.890804 173.649215 
L 256.012033 172.908363 
L 256.406024 171.820444 
L 256.471689 170.959453 
L 256.815169 170.031719 
L 257.027318 168.863708 
L 257.396053 167.20847 
L 257.350592 166.861404 
L 257.724379 165.353001 
L 257.860761 164.638846 
L 258.163831 162.656565 
L 258.320417 160.487402 
L 258.522464 159.759898 
L 258.668948 158.979 
L 260.214606 151.643892 
L 261.568319 146.638131 
L 261.891594 145.37668 
L 262.204767 144.288761 
L 263.432201 140.898192 
L 264.750556 138.101641 
L 265.260724 137.334091 
L 265.573897 137.007048 
L 266.750819 134.871257 
L 268.144942 132.74214 
L 268.543985 131.827754 
L 268.877362 131.420619 
L 269.069306 130.43949 
L 269.816879 128.176886 
L 269.847186 127.729705 
L 270.140154 126.868714 
L 271.37264 122.930849 
L 271.741375 121.963069 
L 271.751477 121.589305 
L 272.286901 120.915196 
L 272.125264 120.841778 
L 272.115162 120.741663 
L 272.125264 120.574804 
L 271.76158 120.241087 
L 270.114898 119.640396 
L 269.185483 119.38677 
L 268.917771 119.420142 
L 267.998458 120.314505 
L 267.730746 121.22889 
L 267.735797 121.48919 
L 267.766104 121.702769 
L 267.291294 122.523714 
L 267.457983 122.730619 
L 267.806514 122.416924 
L 267.836821 121.609328 
L 268.291426 120.207715 
L 268.473268 119.526932 
L 267.857025 118.125319 
L 267.503444 117.698161 
L 266.71041 117.304374 
L 265.705227 117.130841 
L 264.841477 117.357769 
L 264.306053 117.751555 
L 263.588787 118.665941 
L 263.290768 119.346724 
L 262.487632 121.462493 
L 262.179511 122.169973 
L 261.947157 122.937523 
L 261.457193 123.965373 
L 261.219788 124.75962 
L 260.583341 126.147884 
L 260.553034 126.508299 
L 260.674262 126.835342 
L 260.977332 127.035573 
L 261.320812 127.095642 
L 261.704701 127.035573 
L 262.012822 126.70853 
L 262.098692 125.981026 
L 262.487632 124.332462 
L 262.851316 123.151102 
L 263.124079 122.557086 
L 263.710015 120.608176 
L 264.03329 119.627047 
L 264.235337 119.306678 
L 264.841477 116.750403 
L 264.952603 116.056271 
L 265.119291 115.415534 
L 265.427413 114.033944 
L 266.291163 112.285265 
L 266.705359 111.637853 
L 267.190271 110.663398 
L 267.857025 109.528759 
L 268.710673 107.853498 
L 269.251148 106.785602 
L 269.397632 106.151539 
L 269.725958 105.544174 
L 273.458773 96.253482 
L 273.529489 95.245656 
L 273.478977 95.272353 
L 273.23147 95.479258 
L 273.191061 95.539327 
L 272.478846 95.445886 
L 272.559664 95.60607 
L 272.428334 95.579373 
L 272.261645 95.659465 
L 272.302055 95.692837 
L 272.312157 96.086623 
L 271.963626 96.260157 
L 271.711068 96.3269 
L 271.84745 96.393643 
L 271.993933 96.560502 
L 272.438436 96.52713 
L 272.807172 96.580525 
L 272.978912 96.52713 
L 273.468875 96.63392 
L 273.751741 96.533805 
L 274.165936 95.899742 
L 274.463955 94.705034 
L 274.852896 93.156585 
L 274.868049 92.90296 
L 275.115556 92.389035 
L 275.226682 91.955202 
L 275.570162 91.294442 
L 275.948999 90.426777 
L 275.974255 88.484542 
L 276.110637 87.877176 
L 275.984358 87.777061 
L 276.050023 87.436669 
L 276.575344 86.849327 
L 278.171514 84.600072 
L 279.540381 82.230678 
L 280.520308 79.988097 
L 281.641668 78.319511 
L 282.51552 76.971292 
L 288.026346 69.028819 
L 289.915484 66.812936 
L 290.051865 66.532613 
L 290.582238 65.971968 
L 290.971178 65.444694 
L 291.344965 64.8707 
L 292.223868 63.342275 
L 292.890623 62.160915 
L 294.335257 60.305447 
L 295.118188 59.277597 
L 295.759687 58.009471 
L 296.022348 57.635708 
L 296.022348 57.40878 
L 295.749585 56.881506 
L 294.618123 56.033864 
L 293.623042 55.072758 
L 293.57253 54.825807 
L 293.05226 54.612228 
L 292.723934 54.438695 
L 292.769394 54.165047 
L 293.128027 53.844678 
L 293.325023 54.018211 
L 293.016902 54.351929 
L 292.855264 54.458718 
L 292.925981 54.432021 
L 293.027004 54.472067 
L 293.006799 54.405324 
L 293.027004 54.298534 
L 292.986595 54.318557 
L 292.819906 54.398649 
L 292.986595 54.438695 
L 293.047209 54.478741 
L 293.047209 54.478741 
L 293.229051 54.311883 
L 293.128027 54.285185 
L 293.122976 54.104978 
L 294.072596 52.983688 
L 295.087881 51.688864 
L 295.810199 50.594271 
L 296.345623 49.012451 
L 298.012509 45.361583 
L 298.194351 45.248119 
L 298.568137 44.413825 
L 298.744928 43.799785 
L 299.078305 42.965492 
L 300.027925 41.376997 
L 300.300688 40.949839 
L 301.462457 38.767327 
L 301.99283 37.939708 
L 303.604153 35.256621 
L 303.866814 35.063065 
L 304.422443 35.16318 
L 304.675001 35.236598 
L 304.922509 35.156506 
L 305.225579 34.629232 
L 306.038817 33.701498 
L 306.453013 33.374455 
L 307.104614 32.540161 
L 307.342019 32.413349 
L 307.609731 32.4 
L 307.847136 32.540161 
L 308.12495 33.054086 
L 308.215871 33.52129 
L 309.013956 34.996321 
L 309.210952 34.976298 
L 309.882757 34.422327 
L 309.640301 34.489071 
L 309.498868 34.635906 
L 309.887809 35.36341 
L 310.2818 35.51692 
L 311.029373 36.411283 
L 310.882889 36.885161 
L 310.579819 37.779524 
L 310.579819 37.859616 
L 310.19593 38.146613 
L 309.508971 38.907489 
L 308.261332 39.488157 
L 307.665294 39.374693 
L 307.443042 39.207834 
L 307.660243 38.947535 
L 308.523993 38.12659 
L 309.266515 38.373541 
L 309.317026 38.774002 
L 308.998803 39.141091 
L 307.958262 41.777458 
L 307.023795 43.452719 
L 306.235813 44.627405 
L 305.947896 44.947773 
L 305.569058 45.38828 
L 305.422575 45.742021 
L 305.846873 46.175853 
L 306.937925 46.903357 
L 308.29669 47.904509 
L 308.59976 48.211529 
L 308.695733 48.391737 
L 308.594709 48.632013 
L 308.604811 48.939033 
L 308.286588 49.493004 
L 308.084541 49.57977 
L 306.235813 52.423042 
L 305.604417 53.444218 
L 305.175067 54.084955 
L 303.609205 57.30199 
L 303.356646 57.669079 
L 303.321288 58.089563 
L 300.69468 62.16759 
L 300.371405 62.387843 
L 299.982465 63.028581 
L 299.174278 64.083127 
L 298.96718 64.430193 
L 297.896332 65.651599 
L 297.108349 66.539287 
L 296.719409 67.293489 
L 296.603232 67.747344 
L 296.057706 68.361384 
L 294.597918 70.877613 
L 293.769526 72.339295 
L 293.456354 72.666338 
L 292.739087 74.221461 
L 291.213634 76.370601 
L 290.410498 77.772214 
L 288.369826 83.07832 
L 288.112216 84.25968 
L 287.788941 84.560025 
L 286.566558 87.556807 
L 286.642326 88.284311 
L 286.430176 88.384427 
L 286.672633 88.60468 
L 286.839321 88.991792 
L 286.334204 89.278789 
L 285.510864 90.34001 
L 284.601653 92.28892 
L 284.702676 92.542545 
L 284.727932 93.069818 
L 283.798517 94.411362 
L 282.853948 95.719534 
L 282.540776 96.567177 
L 282.379138 97.261309 
L 282.293268 97.868674 
L 281.692179 99.270287 
L 280.631434 101.713098 
L 280.176828 102.680879 
L 279.439358 104.189281 
L 278.959496 104.976854 
L 278.792808 105.283874 
L 278.36851 107.159366 
L 277.16128 109.755687 
L 274.191192 114.254197 
L 274.307369 114.200803 
L 274.302318 114.587915 
L 274.620542 114.854889 
L 275.155966 115.095165 
L 275.282245 115.248675 
L 275.272143 115.508975 
L 274.91351 116.383314 
L 274.676105 117.2977 
L 274.463955 117.631417 
L 274.469007 117.564674 
L 274.948868 117.811624 
L 274.898356 117.744881 
L 275.352961 117.557999 
L 275.504496 116.970657 
L 275.671185 116.897239 
L 275.863129 116.857193 
L 276.145995 116.997354 
L 276.1662 117.557999 
L 276.651112 117.551325 
L 276.605651 117.49793 
L 276.706675 117.357769 
L 276.736982 117.057423 
L 276.792545 117.057423 
L 276.918824 117.084121 
L 277.181485 117.0374 
L 277.282508 117.437861 
L 277.358276 117.678138 
L 277.863393 117.671463 
L 277.858341 117.311048 
L 277.812881 117.34442 
L 277.641141 117.45121 
L 277.701755 117.724858 
L 277.97957 117.844996 
L 278.403868 117.664789 
L 278.636222 117.124167 
L 278.706938 116.957308 
L 278.520045 115.969505 
L 278.28264 115.996202 
L 278.287691 116.216455 
L 278.504891 116.149712 
L 278.772603 115.769274 
L 279.10598 115.595741 
L 279.31813 115.208629 
L 279.989935 114.794819 
L 280.14147 114.694704 
L 279.787888 114.968352 
L 279.302976 115.649136 
L 279.272669 115.7626 
L 278.833217 115.836018 
L 278.449328 115.7626 
L 277.55022 115.702531 
L 276.605651 115.842692 
L 275.868181 115.65581 
L 273.721433 115.522323 
L 272.751609 115.395511 
L 272.327311 115.382162 
L 269.564321 115.235326 
L 269.574423 115.115188 
L 269.609781 114.641309 
L 267.296346 114.487799 
L 266.776075 114.461102 
L 263.735271 114.167431 
L 262.810907 114.087339 
L 260.654057 113.820365 
L 259.941843 113.706901 
L 257.143495 113.453276 
L 255.78473 113.266394 
L 255.30992 113.35316 
L 254.789649 113.219673 
L 254.112793 112.979397 
L 253.819825 112.899305 
L 253.678392 112.512193 
L 252.945973 112.311962 
L 252.698465 112.372031 
L 252.46106 112.966048 
L 252.097376 114.100687 
L 251.385161 114.84154 
L 244.899459 121.956394 
L 244.485263 122.343506 
L 243.576053 124.138906 
L 243.338648 125.133384 
L 242.752712 126.508299 
L 242.449642 128.043399 
L 242.085958 129.004505 
L 241.525278 130.379421 
L 240.474635 132.02131 
L 240.156411 132.268261 
L 238.585497 134.931326 
L 237.832873 135.852386 
L 234.089956 141.619022 
L 233.817193 142.253085 
L 232.806959 143.247563 
L 232.513991 143.247563 
L 232.054335 142.753661 
L 232.003823 142.413269 
L 232.256381 141.665742 
L 233.872756 139.943761 
L 233.8475 139.863669 
L 233.615146 139.963784 
L 232.741294 140.798077 
L 232.195767 140.577824 
L 232.029079 140.691288 
L 231.483552 141.265281 
L 231.210789 141.312002 
L 230.569291 142.119598 
L 230.150044 142.847102 
L 229.816666 143.634675 
L 229.367112 144.882778 
L 229.048889 145.763792 
L 228.604386 146.457924 
L 228.195241 147.786119 
L 227.765892 149.227778 
L 227.437566 150.115466 
L 226.977909 151.744007 
L 226.89709 152.164491 
L 226.457639 152.871972 
L 224.351301 159.446204 
L 224.129049 160.434007 
L 221.052887 168.336435 
L 220.33057 169.15738 
L 218.330307 171.626888 
L 217.628194 172.42781 
L 216.451271 173.382241 
L 215.991615 173.842771 
L 215.319809 174.73046 
L 214.54698 175.59145 
L 214.28432 176.198816 
L 213.971147 176.612626 
L 213.036681 178.761766 
L 212.703303 179.782941 
L 212.107265 180.623908 
L 211.440511 181.972127 
L 211.09198 182.359239 
L 210.218128 184.281451 
L 210.197923 184.84877 
L 209.803932 185.643018 
L 209.591783 186.083525 
L 209.49076 186.570752 
L 209.516015 187.638648 
L 209.53622 188.619777 
L 209.702909 190.315061 
L 209.672602 191.34291 
L 209.819086 192.711152 
L 209.748369 192.958103 
L 209.803932 194.726805 
L 209.516015 195.734631 
L 209.046257 197.069501 
L 208.041074 198.571229 
L 207.793567 199.051782 
L 207.642031 199.332104 
L 207.546059 199.665822 
L 207.576366 200.273187 
L 207.111659 201.941774 
L 206.495416 202.562489 
L 206.16709 203.403456 
L 204.616381 206.914163 
L 203.944575 207.741782 
L 203.560686 208.656168 
L 203.080825 209.483787 
L 202.974751 209.950991 
L 201.570525 212.46722 
L 201.429093 212.867681 
L 200.1663 214.536268 
L 198.26706 214.809916 
L 197.999348 215.070216 
L 197.14065 216.858941 
L 197.024473 217.366191 
L 196.559765 218.207159 
L 195.019158 222.859179 
L 193.301761 225.689103 
L 193.094663 226.142958 
L 192.286476 227.330992 
L 189.134546 233.658273 
L 188.594071 234.4058 
L 188.533456 234.946422 
L 188.149568 235.713972 
L 188.144516 236.114433 
L 187.90206 236.514894 
L 187.401994 238.056668 
L 186.912031 239.097867 
L 186.780701 239.711907 
L 185.694699 242.408343 
L 185.164326 244.477391 
L 184.79054 245.585332 
L 184.431907 246.739994 
L 184.002557 247.921354 
L 182.128573 252.833674 
L 181.992192 253.414342 
L 181.370898 254.642422 
L 181.123391 255.443344 
L 180.683939 256.29766 
L 180.012133 258.4468 
L 179.6535 259.608136 
L 177.966409 264.820802 
L 177.66839 265.935418 
L 177.380474 266.415971 
L 177.27945 267.023336 
L 176.173244 269.779842 
L 175.445876 270.66753 
L 175.082192 271.802169 
L 174.117418 274.538652 
L 172.824319 277.675595 
L 172.44043 278.743491 
L 171.980773 279.717945 
L 171.369582 281.379858 
L 171.016 282.354313 
L 170.475525 283.836018 
L 170.041124 284.757078 
L 168.626797 289.716118 
L 168.303522 290.743967 
L 167.151855 293.720726 
L 167.096292 294.281371 
L 166.722506 295.209106 
L 166.581073 295.716356 
L 166.101212 296.730857 
L 165.692067 297.758706 
L 164.070642 300.775512 
L 163.616036 301.769989 
L 163.095766 302.797839 
L 162.524984 304.01257 
L 161.959253 305.053768 
L 161.575364 305.427532 
L 160.029706 307.970458 
L 159.751892 308.46436 
L 158.261796 310.266434 
L 157.97388 310.840427 
L 157.226307 311.73479 
L 155.645291 314.010743 
L 155.337169 314.444575 
L 154.837103 315.378984 
L 153.877381 317.141011 
L 153.079296 317.7684 
L 151.710429 319.236757 
L 151.099238 319.737333 
L 150.447637 320.718462 
L 149.72532 321.899821 
L 149.25051 322.560582 
L 148.790853 323.668523 
L 148.497885 323.988892 
L 148.34635 324.442748 
L 147.815978 325.090159 
L 147.477549 325.457248 
L 147.235093 326.151381 
L 146.563287 327.306043 
L 145.588412 329.448508 
L 145.23483 329.83562 
L 143.749786 332.518708 
L 142.249588 334.601104 
L 142.158667 335.028263 
L 141.092871 336.736896 
L 140.405912 338.065091 
L 139.592673 339.279822 
L 137.314596 343.785007 
L 137.097395 344.192142 
L 136.854939 344.932994 
L 135.597198 346.728394 
L 134.243485 350.305844 
L 133.768675 351.013325 
L 132.869566 353.00228 
L 132.551343 353.896643 
L 131.894691 354.824377 
L 131.37442 355.672019 
L 130.333879 357.76109 
L 130.192446 358.268341 
L 128.111365 361.852465 
L 127.87396 362.433133 
L 127.434508 362.993779 
L 127.267819 363.354193 
L 126.949595 363.601144 
L 126.242432 364.889293 
L 125.964617 365.162941 
L 125.32817 366.444416 
L 123.923945 368.953971 
L 123.595619 369.287688 
L 123.029888 370.669278 
L 121.52969 373.285622 
L 120.630582 375.067673 
L 120.150721 375.995407 
L 119.170794 377.603925 
L 118.786905 378.444893 
L 117.347322 380.914401 
L 117.205889 381.414978 
L 116.670465 382.182528 
L 116.276474 382.970101 
L 116.054222 383.570792 
L 115.069244 385.199333 
L 114.690407 385.880116 
L 114.276211 386.714409 
L 114.023652 387.028104 
L 113.816554 387.602098 
L 113.493279 387.949164 
L 112.922497 388.03593 
L 112.427483 387.768956 
L 111.750626 387.635469 
L 110.659573 387.094847 
L 109.846335 386.707735 
L 109.093711 386.374018 
L 108.679515 386.340646 
L 107.739997 385.820047 
L 106.078162 384.845592 
L 105.770041 384.45848 
L 103.906159 383.58414 
L 101.183579 382.549617 
L 100.84515 382.329363 
L 100.673411 381.968948 
L 97.577044 380.667451 
L 97.147694 380.553987 
L 96.536503 380.120154 
L 96.288995 380.100131 
L 95.107022 379.339255 
L 92.869353 377.757435 
L 91.717687 376.829701 
L 91.60151 376.569401 
L 91.303491 376.375845 
L 90.43469 376.055477 
L 90.040698 375.781828 
L 89.151693 375.361344 
L 88.247533 374.774002 
L 87.808081 374.640515 
L 87.41409 374.69391 
L 86.600852 374.046498 
L 85.757307 373.692758 
L 82.514456 372.23775 
L 81.519375 372.057542 
L 80.706137 371.423479 
L 79.89795 371.023019 
L 78.55939 370.041889 
L 78.160347 369.961797 
L 77.821919 370.095284 
L 77.857277 370.148679 
L 77.892635 370.195399 
L 77.771407 370.195399 
L 77.670384 370.202074 
L 77.483491 369.921751 
L 77.554207 369.47457 
L 77.246086 369.301037 
L 77.069295 369.094132 
L 76.311619 369.06076 
L 75.907526 369.9351 
L 75.134697 371.67043 
L 74.260844 372.731652 
L 73.210201 374.426936 
L 72.391912 376.055477 
L 72.295939 376.676191 
L 71.967613 376.903119 
L 71.558469 377.850876 
L 71.310961 378.818656 
L 70.689667 380.480569 
L 70.866458 381.127981 
L 70.760384 381.435001 
L 70.725026 382.869985 
L 70.6139 384.251575 
L 70.65936 384.825569 
L 70.533081 385.633165 
L 70.502774 388.443065 
L 70.260318 390.024886 
L 70.09868 390.532136 
L 70.204755 392.954924 
L 69.760252 394.696929 
L 69.300596 395.617989 
L 68.866195 397.306599 
L 67.992343 399.615923 
L 67.497328 400.690493 
L 66.825523 402.465869 
L 65.987028 404.054364 
L 65.492014 404.388082 
L 64.56765 406.130086 
L 64.325194 406.757475 
L 63.724104 407.805347 
L 62.042065 411.189242 
L 61.58746 411.629749 
L 60.961114 412.824457 
L 60.471151 414.012491 
L 59.248768 416.054841 
L 58.359762 417.409733 
L 58.041538 417.823543 
L 56.596904 420.940463 
L 56.086736 421.741385 
L 56.036224 422.121823 
L 53.242927 427.247722 
L 53.152006 427.768321 
L 51.879111 429.857391 
L 51.505325 430.63829 
L 50.949696 431.612745 
L 50.767854 431.959811 
L 50.116253 432.607223 
L 49.964718 433.474888 
L 49.015098 435.263613 
L 48.525135 436.491693 
L 48.110939 437.292615 
L 47.575515 438.547392 
L 47.216882 438.981224 
L 47.100705 439.415057 
L 46.807737 439.755449 
L 46.363234 440.029097 
L 46.075317 440.429558 
L 44.913548 443.025879 
L 44.150822 444.093775 
L 43.58004 445.408621 
L 43.10523 446.149474 
L 42.342503 447.277438 
L 42.15561 447.737968 
L 41.827284 448.131755 
L 41.599981 448.672377 
L 41.211041 449.079512 
L 40.246268 451.088491 
L 39.821969 451.842692 
L 39.22088 452.570196 
L 39.145113 453.384466 
L 38.685456 454.11197 
L 37.932832 455.046379 
L 37.756041 455.807254 
L 37.422664 456.020833 
L 36.104308 459.010941 
L 35.215303 459.998745 
L 34.437422 462.061118 
L 33.816129 462.715204 
L 32.740229 464.343745 
L 32.411903 464.670788 
L 31.790609 466.02568 
L 31.457232 466.419467 
L 31.032934 467.300481 
L 29.71963 469.543061 
L 29.532737 470.103707 
L 28.653833 471.498645 
L 28.446735 471.90578 
L 27.391041 473.047094 
L 25.607978 476.35757 
L 25.244294 476.717985 
L 24.461362 477.932716 
L 23.829966 478.893822 
L 22.986421 480.201994 
L 22.708606 480.515689 
L 22.46615 481.00959 
L 22.102466 481.236518 
L 21.849907 481.650328 
L 21.668065 482.164253 
L 21.698372 482.491296 
L 21.865061 482.871733 
L 22.728811 483.305566 
L 23.577408 483.759422 
L 23.936041 483.866211 
L 25.118014 484.900735 
L 25.890843 485.448031 
L 26.411114 485.715005 
L 26.7849 486.175535 
L 28.729601 487.470359 
L 29.987342 487.510405 
L 32.477569 488.631695 
L 32.942276 488.678416 
L 34.988 489.592801 
L 36.720551 490.827556 
L 38.074265 491.595105 
L 38.417744 492.06231 
L 39.104703 492.622955 
L 39.660332 492.889929 
L 40.77664 493.110182 
L 41.584828 493.523992 
L 42.696085 494.097986 
L 43.701268 494.41168 
L 44.322561 494.037917 
L 44.544813 493.64413 
L 45.848015 491.721918 
L 45.994499 491.60178 
L 46.787532 491.481642 
L 47.090602 491.535036 
L 48.28773 492.282563 
L 48.318037 492.182448 
L 48.474623 492.329284 
L 48.833256 492.41605 
L 49.146429 492.376004 
L 49.525266 492.703047 
L 51.237613 493.297064 
L 51.26792 493.564038 
L 51.358841 493.457248 
L 51.434608 493.323761 
L 51.505325 493.1836 
L 51.424506 493.363808 
L 51.500274 493.210298 
" clip-path="url(#pf4c7efc7ea)" style="fill: none; stroke: #000000; stroke-width: 3"/>
   </g>
  </g>
 </g>
 <defs>
  <clipPath id="pf4c7efc7ea">
   <rect x="7.2" y="7.2" width="318.297438" height="554.4"/>
  </clipPath>
 </defs>
</svg>
