<?xml version="1.0" encoding="utf-8" standalone="no"?>
<!DOCTYPE svg PUBLIC "-//W3C//DTD SVG 1.1//EN"
  "http://www.w3.org/Graphics/SVG/1.1/DTD/svg11.dtd">
<svg xmlns:xlink="http://www.w3.org/1999/xlink" width="307.664097pt" height="568.8pt" viewBox="0 0 307.664097 568.8" xmlns="http://www.w3.org/2000/svg" version="1.1">
 <metadata>
  <rdf:RDF xmlns:dc="http://purl.org/dc/elements/1.1/" xmlns:cc="http://creativecommons.org/ns#" xmlns:rdf="http://www.w3.org/1999/02/22-rdf-syntax-ns#">
   <cc:Work>
    <dc:type rdf:resource="http://purl.org/dc/dcmitype/StillImage"/>
    <dc:date>2023-06-09T05:02:52.512422</dc:date>
    <dc:format>image/svg+xml</dc:format>
    <dc:creator>
     <cc:Agent>
      <dc:title>Matplotlib v3.7.1, https://matplotlib.org/</dc:title>
     </cc:Agent>
    </dc:creator>
   </cc:Work>
  </rdf:RDF>
 </metadata>
 <defs>
  <style type="text/css">*{stroke-linejoin: round; stroke-linecap: butt}</style>
 </defs>
 <g id="figure_1">
  <g id="patch_1">
   <path d="M 0 568.8 
L 307.664097 568.8 
L 307.664097 0 
L 0 0 
z
" style="fill: #ffffff"/>
  </g>
  <g id="axes_1">
   <g id="LineCollection_1">
    <path d="M 183.414188 35.90705 
L 183.394217 35.867497 
L 183.36426 35.999341 
L 183.334303 36.276213 
L 183.374245 36.276213 
L 185.910571 37.449625 
L 187.707966 38.372533 
L 190.234306 39.915107 
L 191.562382 40.745724 
L 193.289879 41.418129 
L 195.027362 42.103717 
L 195.786262 42.683831 
L 197.743426 43.659476 
L 198.142848 44.107746 
L 198.352544 44.701044 
L 198.791907 45.373448 
L 199.450952 45.914008 
L 200.179896 46.30954 
L 201.068609 46.283172 
L 201.967306 46.111774 
L 202.806091 45.755796 
L 204.134167 44.806519 
L 205.562098 42.960703 
L 206.500738 41.840029 
L 207.049942 41.484051 
L 207.219696 40.61388 
L 207.768901 39.981029 
L 208.447917 39.664604 
L 209.276716 39.875554 
L 212.791623 41.853214 
L 213.67035 42.288299 
L 216.566155 43.013441 
L 219.681641 43.949533 
L 223.665868 45.492108 
L 224.574551 46.006299 
L 229.577303 49.48698 
L 234.600026 52.440286 
L 235.548651 52.743527 
L 237.395975 53.930123 
L 239.113486 55.499066 
L 240.811027 56.224208 
L 246.253142 58.373265 
L 254.461249 61.155173 
L 256.168775 62.012159 
L 260.742149 64.873173 
L 262.329849 66.099322 
L 263.797722 67.747372 
L 264.476738 68.894415 
L 265.235639 71.201685 
L 265.844756 74.840579 
L 266.373989 77.292877 
L 267.562268 80.760374 
L 268.670662 83.120381 
L 270.028694 85.66497 
L 274.562126 91.321077 
L 276.249681 91.927559 
L 277.038538 92.468119 
L 278.326671 93.6679 
L 279.744617 96.120198 
L 280.713213 97.992382 
L 281.871535 99.561326 
L 283.149683 101.01161 
L 285.096862 103.015638 
L 286.315097 104.241787 
L 286.794403 104.901007 
L 287.083983 105.692071 
L 287.133911 106.812745 
L 286.84433 107.682915 
L 285.286587 110.267057 
L 284.447802 112.679802 
L 283.64896 114.683831 
L 282.820161 117.637136 
L 282.420739 118.388647 
L 281.322331 119.707087 
L 280.553445 121.368321 
L 279.594834 122.317598 
L 278.875876 123.820619 
L 277.507858 126.457499 
L 276.459377 128.316499 
L 276.13984 129.344882 
L 275.231156 131.164329 
L 274.741865 132.034499 
L 274.162704 132.825563 
L 273.23405 134.85596 
L 271.346784 138.732174 
L 270.537956 140.419777 
L 269.719142 142.331514 
L 268.261255 144.572862 
L 267.991645 146.220912 
L 267.642152 147.367955 
L 264.736362 152.641714 
L 260.85199 158.258268 
L 258.834912 161.158835 
L 257.836359 163.294708 
L 256.15879 166.366673 
L 255.110309 168.528914 
L 253.922031 170.519758 
L 252.853579 172.576524 
L 251.884982 174.712397 
L 250.047644 177.784362 
L 248.64967 180.223476 
L 247.171811 183.994214 
L 246.313055 186.235561 
L 243.926513 190.533675 
L 238.514354 199.024428 
L 236.397421 202.847903 
L 235.089317 204.271818 
L 234.430272 204.390478 
L 233.042283 206.842776 
L 230.915364 211.035415 
L 229.447491 214.015089 
L 227.490327 218.102252 
L 226.691484 219.35477 
L 226.351976 220.159018 
L 225.67296 222.176231 
L 225.183669 223.481487 
L 224.265 224.799927 
L 222.966881 226.579821 
L 221.868472 227.819154 
L 220.570353 230.179161 
L 217.944158 234.688226 
L 216.885692 236.599963 
L 215.268035 239.751035 
L 213.450668 242.809815 
L 212.64184 245.314851 
L 209.865862 250.786376 
L 209.26673 251.643362 
L 208.767454 252.592639 
L 208.457902 253.634206 
L 205.701895 257.840029 
L 199.171357 269.244534 
L 197.943137 271.077165 
L 195.736334 275.296173 
L 193.000299 280.596301 
L 191.822006 282.521223 
L 189.55529 286.727046 
L 188.806375 287.359897 
L 187.178733 290.761472 
L 186.190166 292.897345 
L 184.582495 295.903388 
L 183.294361 296.654898 
L 180.009121 302.456034 
L 179.250221 303.326204 
L 177.972073 305.119282 
L 177.003476 307.004651 
L 175.954995 308.67907 
L 173.478583 314.770262 
L 173.009263 315.745907 
L 172.589871 316.932503 
L 171.491462 318.962901 
L 170.552822 320.993298 
L 169.704052 322.984142 
L 168.375976 326.280242 
L 167.077857 327.704157 
L 166.678436 328.561143 
L 165.420259 332.621937 
L 165.010852 333.307526 
L 162.764107 335.759824 
L 162.304773 336.748654 
L 161.935308 337.645193 
L 159.678578 341.600513 
L 159.189286 342.286101 
L 158.739938 343.182641 
L 158.230675 343.736385 
L 157.182194 344.487896 
L 156.393337 344.540634 
L 155.215045 344.421974 
L 154.66584 343.881414 
L 154.126622 343.775938 
L 152.259327 344.158286 
L 151.300716 347.876286 
L 150.392033 349.748471 
L 149.433421 351.211939 
L 148.56468 353.809266 
L 148.175244 355.114521 
L 147.15672 357.408606 
L 146.717357 358.85889 
L 146.268008 360.796997 
L 145.778717 361.82538 
L 144.959903 364.435891 
L 144.410699 365.490643 
L 142.783057 368.035232 
L 141.135444 371.001721 
L 137.750349 377.633474 
L 136.961492 380.151694 
L 136.27249 382.063432 
L 135.853098 382.959971 
L 134.784646 384.449808 
L 134.315326 385.649588 
L 133.756136 386.572496 
L 132.42806 388.128255 
L 131.679145 388.734737 
L 130.780447 389.156638 
L 130.121402 389.591723 
L 129.761923 390.330049 
L 129.472343 391.187035 
L 129.172777 392.769163 
L 129.032979 394.417213 
L 129.23269 396.170738 
L 128.993037 397.581469 
L 127.854686 400.996228 
L 124.599403 408.128987 
L 124.26988 409.262846 
L 121.573787 414.127889 
L 120.685074 415.84186 
L 119.606637 418.254605 
L 118.897664 419.124776 
L 118.608084 419.625783 
L 118.598098 419.546676 
L 118.458301 419.388464 
L 118.428344 419.493939 
L 118.128778 419.929024 
L 117.839198 420.377294 
L 117.579574 421.036513 
L 117.210109 421.432045 
L 116.810688 422.183556 
L 116.441223 423.198755 
L 115.53254 424.385351 
L 114.863509 424.780883 
L 113.884927 425.716975 
L 112.936301 426.112507 
L 112.307213 427.048599 
L 112.207357 427.325472 
L 111.668139 427.02223 
L 111.468428 427.180443 
L 111.488399 427.206812 
L 111.468428 427.641897 
L 111.248746 427.945138 
L 110.869296 428.142904 
L 110.459889 428.024245 
L 110.080439 428.222011 
L 109.131814 429.474528 
L 108.153231 431.148947 
L 107.833694 432.137777 
L 107.683911 433.232082 
L 107.10475 434.089068 
L 106.785213 434.616444 
L 106.136154 434.15499 
L 105.537022 434.537337 
L 105.017774 435.011976 
L 103.979279 437.622487 
L 103.380147 440.351657 
L 103.100552 441.670097 
L 102.401565 442.869877 
L 100.833836 444.544296 
L 99.785355 446.152793 
L 99.006484 447.893133 
L 98.527178 449.686211 
L 98.517193 450.134481 
L 98.36741 450.411353 
L 97.728336 450.91236 
L 96.819652 451.597949 
L 96.470159 453.641531 
L 95.46162 454.248013 
L 94.862488 454.722652 
L 94.123559 454.841311 
L 93.144976 456.739864 
L 92.715599 457.702326 
L 91.217769 462.395971 
L 90.169288 464.268156 
L 89.060894 465.942575 
L 86.983903 469.568284 
L 86.584482 471.005384 
L 85.486073 472.864384 
L 84.277824 474.697015 
L 82.32066 478.665519 
L 81.811397 479.680718 
L 81.072468 483.662406 
L 78.516172 489.028456 
L 77.577532 488.61974 
L 77.248009 488.817506 
L 75.999818 490.610584 
L 74.192436 493.366123 
L 73.543377 493.998975 
L 73.004158 494.157187 
L 72.524852 494.486797 
L 71.995619 495.277861 
L 71.466386 496.345797 
L 70.60763 500.274748 
L 70.04844 501.751401 
L 68.900104 503.280791 
L 67.70184 506.840579 
L 66.673331 508.976451 
L 65.674777 511.19143 
L 63.707627 515.515913 
L 61.990116 518.469218 
L 61.021519 520.5128 
L 57.955961 526.142538 
L 57.406757 526.986339 
L 56.34829 528.18612 
L 55.369708 529.794616 
L 52.993151 534.488262 
L 51.27564 536.4 
L 50.007477 536.215418 
L 48.110226 535.279326 
L 46.742208 534.606922 
L 44.944812 533.749936 
L 44.036129 533.064347 
L 43.007619 532.616078 
L 42.368545 531.996411 
L 42.278675 531.376744 
L 41.399949 530.453836 
L 40.910657 529.781432 
L 40.541193 529.043106 
L 39.792278 528.594836 
L 39.3629 528.080645 
L 37.39575 526.379857 
L 35.548427 524.072587 
L 33.291696 522.200403 
L 32.293143 521.71258 
L 31.304575 521.38297 
L 28.578525 519.800842 
L 26.561448 518.337374 
L 24.983734 517.493573 
L 23.066511 516.742062 
L 22.077944 516.570665 
L 21.109347 516.280608 
L 20.659998 515.726863 
L 20.530186 515.067643 
L 20.630042 514.421608 
L 21.508768 512.101154 
L 22.547264 511.099139 
L 23.216294 510.110309 
L 22.986627 507.776671 
L 23.196323 507.183373 
L 23.296179 506.616444 
L 23.535831 505.930855 
L 23.915282 505.232082 
L 25.602837 503.597217 
L 26.092128 502.845706 
L 26.910941 501.039443 
L 27.520059 498.758542 
L 27.969408 497.690606 
L 29.756818 495.277861 
L 30.26608 494.631826 
L 30.625559 493.98579 
L 30.91514 493.11562 
L 31.344518 492.285003 
L 31.953635 491.34891 
L 32.682579 490.544662 
L 34.410076 489.186669 
L 36.357255 487.195825 
L 36.946401 486.470683 
L 37.335837 485.626882 
L 38.094737 482.47581 
L 40.790831 477.742611 
L 42.887793 475.118916 
L 43.247272 474.565171 
L 43.796476 473.404944 
L 45.324263 470.87354 
L 45.633814 469.752866 
L 47.690834 465.481121 
L 48.070284 464.413184 
L 49.158707 462.343234 
L 50.197202 459.69317 
L 50.956103 457.860538 
L 52.004584 456.159751 
L 52.513846 455.487347 
L 53.642211 453.601978 
L 54.38114 451.677055 
L 55.40965 449.791687 
L 56.597929 447.998608 
L 57.726294 445.717707 
L 58.455238 445.071672 
L 59.693444 443.344516 
L 60.731939 441.551437 
L 61.410955 439.6397 
L 63.907338 435.407508 
L 65.025718 433.508954 
L 65.934401 431.544479 
L 67.002853 429.725032 
L 67.681869 428.815309 
L 69.139757 427.272734 
L 69.718918 426.455301 
L 71.116892 423.014173 
L 71.366531 422.236294 
L 71.446415 420.509138 
L 71.526299 419.612598 
L 72.245258 417.740414 
L 72.704592 416.698846 
L 74.392147 415.512251 
L 77.098226 412.849002 
L 77.497647 412.189782 
L 78.176664 411.359165 
L 78.895622 410.515363 
L 81.531802 408.669548 
L 82.280717 407.707087 
L 82.500399 407.074235 
L 82.770008 406.744626 
L 82.829922 406.283172 
L 83.019647 405.689874 
L 83.069574 403.699029 
L 83.658721 402.011426 
L 84.447578 400.495221 
L 84.966826 399.809632 
L 85.42616 398.992199 
L 86.494612 397.845157 
L 88.561617 395.709284 
L 91.187812 393.837099 
L 93.304745 391.74078 
L 93.993747 390.659659 
L 94.483038 389.169822 
L 95.142083 388.536971 
L 95.890998 388.154624 
L 96.530072 387.653617 
L 96.95945 387.469035 
L 97.24903 386.58568 
L 98.067844 384.753049 
L 98.397366 383.816957 
L 98.876672 383.104999 
L 100.374502 378.543197 
L 102.062057 376.525984 
L 103.380147 374.98341 
L 104.488541 370.711665 
L 104.528483 369.327303 
L 104.129062 368.378026 
L 103.499973 367.507856 
L 101.812418 365.859806 
L 101.173344 365.503827 
L 100.923706 363.842593 
L 100.384487 363.222926 
L 99.435862 362.616444 
L 98.826744 361.482586 
L 97.908075 360.665153 
L 97.638466 359.676323 
L 99.336006 358.476543 
L 100.374502 357.514082 
L 102.022115 356.525252 
L 103.010682 355.721003 
L 103.989264 354.494854 
L 105.367268 353.229152 
L 106.066255 352.003003 
L 106.615459 350.354953 
L 111.398529 345.753598 
L 113.136012 343.868229 
L 113.85497 342.602527 
L 114.41416 341.125874 
L 114.943393 340.150229 
L 115.662352 339.280059 
L 116.9405 337.974803 
L 117.849183 336.775023 
L 119.327042 335.140157 
L 120.285653 333.874455 
L 121.593758 333.043838 
L 123.451067 331.646292 
L 124.189996 330.80249 
L 125.138622 329.945504 
L 125.787681 329.167625 
L 126.906061 327.348178 
L 129.422415 322.720454 
L 130.790433 317.354404 
L 131.709102 314.954843 
L 133.326758 312.357517 
L 134.235441 309.628346 
L 135.004327 307.822084 
L 136.312432 305.05336 
L 136.582042 303.97224 
L 137.001434 303.444864 
L 137.620537 302.904303 
L 138.109828 302.311005 
L 139.517788 299.792785 
L 139.437904 298.078813 
L 139.26815 297.590991 
L 139.168294 296.997693 
L 138.908671 296.83948 
L 138.589134 296.351657 
L 138.189712 296.167076 
L 137.700421 295.784728 
L 136.192606 295.033217 
L 133.816049 293.503827 
L 133.007221 293.016004 
L 132.108523 292.607288 
L 130.041518 292.211756 
L 129.05295 291.631643 
L 124.998824 289.82538 
L 121.54383 287.135763 
L 120.774944 286.278777 
L 119.976101 285.830507 
L 117.289993 285.013075 
L 115.213003 283.813294 
L 114.32429 283.734188 
L 112.856417 282.784911 
L 112.107502 282.283904 
L 111.318645 282.046585 
L 109.780873 281.16323 
L 109.011987 280.50401 
L 108.123275 279.96345 
L 105.656848 278.829592 
L 104.019221 278.038528 
L 101.442954 277.155173 
L 93.943819 273.186669 
L 89.999534 270.602527 
L 87.822688 269.270903 
L 87.083758 267.926094 
L 86.404742 266.620839 
L 85.036724 263.100604 
L 84.437592 262.30954 
L 82.809951 261.307526 
L 81.691571 260.661491 
L 80.792873 259.936349 
L 79.464797 258.420143 
L 79.05539 257.589526 
L 78.536143 255.756894 
L 78.246562 252.988171 
L 78.226591 250.074419 
L 78.685926 247.042007 
L 78.725868 244.813844 
L 78.805752 242.625233 
L 78.67594 241.491375 
L 78.306476 240.304779 
L 78.106765 239.131368 
L 78.306476 236.916389 
L 78.29649 234.661857 
L 78.076808 231.431679 
L 77.697358 225.933785 
L 77.617474 223.652884 
L 77.457705 221.582934 
L 77.028327 220.290862 
L 77.248009 219.209742 
L 77.188096 217.179344 
L 77.417763 216.190515 
L 77.847141 211.088152 
L 78.176664 208.675407 
L 78.29649 205.471599 
L 78.226591 203.441201 
L 78.126736 202.228237 
L 77.757271 200.646109 
L 78.086794 199.459513 
L 78.47623 198.075151 
L 78.795767 177.612965 
L 79.075362 174.567369 
L 79.255101 172.800659 
L 79.364942 171.864567 
L 79.215159 169.610035 
L 78.885636 165.404212 
L 78.975506 163.650687 
L 78.805752 161.013807 
L 78.905608 158.943856 
L 78.935564 158.20553 
L 79.584624 155.120381 
L 79.654522 153.485515 
L 79.295043 150.743161 
L 79.165231 149.965281 
L 79.574638 148.514997 
L 79.964074 147.315217 
L 79.774349 146.220912 
L 79.584624 144.862919 
L 79.674493 143.373082 
L 80.113857 141.144919 
L 79.694465 135.976634 
L 79.954088 134.249478 
L 80.403437 132.561875 
L 81.212265 130.280974 
L 81.411976 129.569017 
L 81.981151 128.118733 
L 82.210819 127.274931 
L 83.309227 125.613697 
L 83.698663 125.178612 
L 84.068128 124.532576 
L 85.04671 123.214137 
L 85.695769 122.357151 
L 86.814149 120.537704 
L 87.912558 119.008313 
L 88.951053 117.281157 
L 90.908217 113.93232 
L 92.166394 112.310639 
L 94.43311 110.003369 
L 95.671316 108.249844 
L 98.377395 103.345248 
L 99.316035 101.367588 
L 100.504314 98.770262 
L 101.422983 97.333162 
L 103.090567 95.223659 
L 104.139047 92.138509 
L 104.967847 90.437722 
L 107.414302 86.86475 
L 108.852219 83.89826 
L 112.077546 78.426735 
L 112.856417 76.238125 
L 113.106055 75.288848 
L 113.974797 72.942025 
L 114.673784 70.898444 
L 115.542525 69.210841 
L 116.191585 68.156089 
L 118.228633 63.027358 
L 119.347013 61.432045 
L 124.279866 52.967662 
L 126.686379 49.579271 
L 133.516483 37.475993 
L 135.793184 33.375645 
L 136.951506 32.426369 
L 137.261058 32.4 
L 137.999987 32.72961 
L 139.82734 34.417213 
L 140.49637 35.181908 
L 141.075531 35.300568 
L 141.125459 35.300568 
L 141.075531 35.261014 
L 141.285227 35.181908 
L 141.285227 35.181908 
" clip-path="url(#p24ce1cd324)" style="fill: none; stroke: #000000; stroke-width: 3"/>
   </g>
  </g>
 </g>
 <defs>
  <clipPath id="p24ce1cd324">
   <rect x="7.2" y="7.2" width="293.264097" height="554.4"/>
  </clipPath>
 </defs>
</svg>
