<?xml version="1.0" encoding="utf-8" standalone="no"?>
<!DOCTYPE svg PUBLIC "-//W3C//DTD SVG 1.1//EN"
  "http://www.w3.org/Graphics/SVG/1.1/DTD/svg11.dtd">
<svg xmlns:xlink="http://www.w3.org/1999/xlink" width="360.566356pt" height="568.8pt" viewBox="0 0 360.566356 568.8" xmlns="http://www.w3.org/2000/svg" version="1.1">
 <metadata>
  <rdf:RDF xmlns:dc="http://purl.org/dc/elements/1.1/" xmlns:cc="http://creativecommons.org/ns#" xmlns:rdf="http://www.w3.org/1999/02/22-rdf-syntax-ns#">
   <cc:Work>
    <dc:type rdf:resource="http://purl.org/dc/dcmitype/StillImage"/>
    <dc:date>2023-06-10T05:02:53.093754</dc:date>
    <dc:format>image/svg+xml</dc:format>
    <dc:creator>
     <cc:Agent>
      <dc:title>Matplotlib v3.7.1, https://matplotlib.org/</dc:title>
     </cc:Agent>
    </dc:creator>
   </cc:Work>
  </rdf:RDF>
 </metadata>
 <defs>
  <style type="text/css">*{stroke-linejoin: round; stroke-linecap: butt}</style>
 </defs>
 <g id="figure_1">
  <g id="patch_1">
   <path d="M 0 568.8 
L 360.566356 568.8 
L 360.566356 0 
L 0 0 
z
" style="fill: #ffffff"/>
  </g>
  <g id="axes_1">
   <g id="LineCollection_1">
    <path d="M 106.96912 256.474662 
L 107.371425 256.209004 
L 107.501582 256.193377 
L 107.430587 256.146496 
L 107.986714 256.302766 
L 108.353521 257.052859 
L 108.850485 258.740568 
L 108.152369 258.084237 
L 108.708495 258.287387 
L 109.004307 258.459283 
L 109.418444 258.896837 
L 109.950906 259.03748 
L 112.30557 260.647054 
L 112.849864 261.147116 
L 113.618975 261.350267 
L 114.210599 261.897209 
L 115.417512 262.350391 
L 116.020969 262.444152 
L 116.577096 262.928587 
L 117.358039 263.241126 
L 118.115318 263.866204 
L 118.766105 264.460027 
L 119.192074 264.616297 
L 121.960875 266.460275 
L 122.363179 266.304006 
L 124.422031 266.960337 
L 125.143812 267.413519 
L 125.865594 267.632296 
L 126.291563 268.038596 
L 128.18476 269.023093 
L 128.598897 269.085601 
L 129.095861 269.273124 
L 129.924135 269.820067 
L 132.456286 271.179611 
L 133.00058 272.039092 
L 133.746027 272.5079 
L 135.260584 272.586035 
L 136.029696 272.570408 
L 137.165614 271.867196 
L 138.10038 271.117103 
L 139.295461 269.726305 
L 140.585201 267.819819 
L 141.815779 265.428897 
L 142.809708 264.944462 
L 143.24751 264.975716 
L 143.649814 265.288255 
L 144.58458 265.725809 
L 146.028143 267.210368 
L 146.868249 268.007342 
L 148.643121 270.132606 
L 149.151918 271.179611 
L 149.30574 271.773434 
L 149.838202 272.820439 
L 150.358831 274.492521 
L 150.891293 276.305246 
L 150.985953 277.961702 
L 151.080613 278.649287 
L 151.009618 279.274364 
L 151.175272 279.852561 
L 151.06878 280.415131 
L 151.139775 280.93082 
L 151.009618 282.040332 
L 151.092445 282.649783 
L 150.891293 283.321741 
L 150.701973 285.478259 
L 150.500821 286.962818 
L 150.252339 287.775419 
L 150.134014 288.619273 
L 149.554222 290.260102 
L 148.915268 291.916557 
L 148.560294 293.885551 
L 148.453802 296.729654 
L 147.956837 299.120575 
L 147.82668 300.214461 
L 148.098827 303.808657 
L 148.11066 312.012799 
L 147.471706 316.29458 
L 146.797254 318.18544 
L 145.992645 319.732507 
L 145.779661 320.357584 
L 144.288768 322.295324 
L 143.839134 322.842267 
L 143.413164 323.170433 
L 142.324576 324.576857 
L 141.957769 324.905023 
L 141.20049 325.983282 
L 140.206562 326.608359 
L 138.076715 328.483592 
L 137.425929 328.936773 
L 136.917132 329.436835 
L 136.704147 329.858762 
L 135.698386 330.499467 
L 134.633463 331.608979 
L 133.568539 332.437207 
L 132.669271 333.265435 
L 131.273038 334.249932 
L 130.823404 334.906263 
L 130.350104 335.312564 
L 129.99513 335.843879 
L 129.450836 336.422076 
L 128.965704 336.718988 
L 126.634705 339.219298 
L 124.445696 341.547712 
L 122.422342 345.4857 
L 122.020037 346.157658 
L 120.635637 347.673471 
L 119.689038 348.923626 
L 118.067988 351.080144 
L 116.69542 352.439687 
L 116.127461 353.221034 
L 110.021901 358.14352 
L 105.750375 361.315788 
L 102.886914 363.941114 
L 102.43728 364.394295 
L 99.964291 366.066377 
L 99.33717 367.097755 
L 98.544393 367.957237 
L 96.923343 369.285526 
L 96.698526 369.973112 
L 96.083237 371.176386 
L 95.467948 371.942106 
L 95.006481 373.020365 
L 94.627842 373.364157 
L 94.533182 373.786085 
L 94.012553 375.067493 
L 93.657578 376.848964 
L 93.113284 381.521419 
L 93.278939 382.599678 
L 93.314436 386.240754 
L 93.113284 387.444028 
L 93.196111 390.928835 
L 93.409096 391.803944 
L 93.527421 395.820067 
L 93.835065 396.116979 
L 93.917893 398.539154 
L 94.00072 400.930076 
L 94.107213 403.633536 
L 94.14271 404.086717 
L 93.917893 405.39938 
L 92.296843 409.931192 
L 91.255584 412.103336 
L 91.007102 412.978445 
L 90.261656 413.791046 
L 89.918514 414.681781 
L 89.587205 415.072454 
L 88.581444 415.775667 
L 87.362698 416.635148 
L 87.161546 416.744537 
L 85.209186 417.400868 
L 84.960704 417.650899 
L 83.872116 417.838422 
L 82.949182 418.494754 
L 82.097244 418.729158 
L 81.671274 419.010443 
L 80.93766 419.760536 
L 80.381534 419.901178 
L 79.920067 420.276225 
L 79.4586 420.901302 
L 78.251687 421.260722 
L 76.867287 422.104576 
L 73.861836 424.43299 
L 72.560263 425.901922 
L 71.566335 427.29272 
L 70.051777 430.074315 
L 68.915859 431.746397 
L 68.217742 432.965298 
L 67.933763 433.637257 
L 67.460463 435.184323 
L 66.502032 437.481483 
L 64.644333 442.982165 
L 63.792394 446.513853 
L 62.585481 451.514474 
L 62.041187 453.01466 
L 61.840035 453.82726 
L 61.165583 455.421208 
L 60.136157 457.999653 
L 59.81668 458.859134 
L 58.952909 460.390574 
L 58.57427 461.156294 
L 57.521179 462.468957 
L 56.941387 463.031527 
L 56.444423 463.672231 
L 55.698977 465.141163 
L 55.119185 466.500707 
L 54.847038 467.032023 
L 54.444733 467.532085 
L 52.989338 468.188416 
L 52.575201 468.547836 
L 52.208394 469.141659 
L 52.030907 469.672975 
L 52.1374 470.063649 
L 52.149232 470.016768 
L 52.279389 470.15741 
L 52.764521 469.95426 
L 53.545465 469.079152 
L 53.486302 468.829121 
L 53.261485 468.688478 
L 52.338552 469.34481 
L 51.85342 470.001141 
L 50.658339 471.0794 
L 49.534254 472.142032 
L 48.978127 472.720228 
L 44.919586 475.829989 
L 41.476333 478.908496 
L 41.014867 479.455438 
L 40.683557 480.033635 
L 39.914446 480.799355 
L 38.399888 482.893365 
L 37.536117 483.721592 
L 36.660513 484.440432 
L 36.435696 484.862359 
L 35.938732 485.503063 
L 35.69025 486.221903 
L 35.051296 486.862607 
L 34.850144 487.503311 
L 33.039774 490.206772 
L 32.791292 490.706834 
L 32.44815 491.144388 
L 31.963018 491.519434 
L 30.767937 492.957113 
L 29.182385 494.488553 
L 28.73275 494.660449 
L 28.247619 495.488677 
L 27.797984 495.863723 
L 27.1117 496.863847 
L 26.307092 498.004614 
L 25.798295 498.801587 
L 25.49065 499.332903 
L 25.088346 499.739204 
L 24.189077 501.23939 
L 24.023423 502.00511 
L 23.538291 503.286519 
L 23.337139 504.30227 
L 23.384469 505.911844 
L 23.301641 506.333772 
L 23.088657 506.286891 
L 22.993997 506.708818 
L 22.934834 506.84946 
L 23.100489 508.130869 
L 23.017662 508.755947 
L 23.183316 509.256009 
L 23.254311 510.209252 
L 25.029184 514.022225 
L 25.431488 514.991095 
L 27.218193 517.428897 
L 29.01673 519.8667 
L 29.454532 520.210492 
L 29.845004 520.679301 
L 30.77977 521.460647 
L 31.335896 522.16386 
L 32.045845 522.679549 
L 32.672967 523.242118 
L 33.702393 524.007838 
L 34.045535 524.445393 
L 34.648991 524.898574 
L 35.015798 525.336128 
L 38.115909 527.789557 
L 39.157167 528.180231 
L 40.103765 528.727174 
L 41.641988 529.899194 
L 44.292464 531.696292 
L 47.475402 533.774674 
L 53.107663 535.821803 
L 56.95322 536.321865 
L 57.462016 536.306238 
L 58.05364 536.4 
L 59.532701 536.321865 
L 62.810298 534.837306 
L 63.401922 534.66541 
L 64.951977 533.524643 
L 66.809677 530.821183 
L 68.146747 527.477018 
L 68.336067 526.883195 
L 68.750204 526.117475 
L 68.915859 525.523651 
L 69.838792 523.789061 
L 69.96895 523.070222 
L 71.223193 521.851321 
L 71.412512 520.726181 
L 71.483507 519.444772 
L 72.146126 517.522659 
L 74.536288 513.553417 
L 74.619115 512.959593 
L 75.269901 511.693811 
L 75.755033 510.599926 
L 76.630637 509.052859 
L 78.310849 505.802456 
L 79.482265 504.099119 
L 81.955254 500.989359 
L 83.552639 499.223515 
L 86.759241 496.098127 
L 88.380291 495.348034 
L 90.75862 494.363537 
L 91.859041 494.269776 
L 92.024696 494.34791 
L 92.781975 494.050998 
L 93.302604 494.050998 
L 94.627842 493.73846 
L 95.195801 493.894729 
L 95.633603 493.754087 
L 96.663029 493.754087 
L 97.136328 493.754087 
L 99.561987 494.785464 
L 100.165443 495.176138 
L 100.828062 495.519931 
L 101.502514 496.176262 
L 102.10597 496.285651 
L 107.312262 498.94223 
L 109.06347 499.30165 
L 110.187555 499.536054 
L 110.40054 499.598561 
L 111.512793 499.34853 
L 114.021279 498.989111 
L 117.133222 498.504676 
L 117.784009 498.17651 
L 119.144744 497.129505 
L 119.973018 496.863847 
L 120.304327 496.598189 
L 121.061606 496.285651 
L 122.114697 495.426169 
L 122.422342 494.847972 
L 122.942971 494.50418 
L 123.546427 493.629071 
L 124.220879 492.488305 
L 124.777005 492.00387 
L 125.13198 491.300657 
L 125.439624 490.956865 
L 126.433553 489.050378 
L 126.528213 488.487809 
L 127.368319 486.628203 
L 127.616801 485.721841 
L 127.936278 485.393675 
L 128.18476 484.815478 
L 128.539735 484.315416 
L 128.740887 483.830981 
L 130.302775 481.549448 
L 130.586754 480.924371 
L 131.47419 480.11177 
L 132.266966 479.502319 
L 133.249062 478.17403 
L 134.739955 476.580082 
L 135.260584 476.048766 
L 135.603726 475.673719 
L 136.443833 475.048642 
L 137.650746 474.064145 
L 139.685933 472.626467 
L 141.212323 471.4857 
L 142.525728 470.51683 
L 143.590652 469.657348 
L 146.146468 467.219546 
L 146.48961 466.735111 
L 147.388878 466.063153 
L 148.264482 464.938013 
L 149.909197 462.187672 
L 151.861556 458.187176 
L 152.015379 457.733995 
L 152.358521 457.265187 
L 152.760825 456.155674 
L 153.02114 455.51497 
L 153.305119 454.280442 
L 154.559362 450.967531 
L 154.713185 449.482972 
L 155.068159 447.873397 
L 155.150986 447.029542 
L 154.843342 444.99804 
L 154.725017 444.02917 
L 153.565434 441.450726 
L 153.163129 439.528612 
L 152.87915 438.606623 
L 151.198937 435.403101 
L 150.843963 434.574873 
L 150.725638 433.606003 
L 150.761136 432.590252 
L 151.02145 430.652511 
L 150.903125 428.699144 
L 151.139775 427.683393 
L 152.015379 425.917549 
L 157.730467 417.244599 
L 159.623664 415.306858 
L 160.215289 414.947439 
L 160.960735 414.181719 
L 161.292044 413.837926 
L 162.41613 413.384745 
L 163.930688 412.665906 
L 166.427342 411.181347 
L 169.716771 408.227856 
L 170.107243 407.759048 
L 170.320228 407.368374 
L 171.657299 405.524395 
L 171.882116 404.774302 
L 172.18976 403.852313 
L 172.438242 402.820935 
L 172.509237 400.367506 
L 172.296253 396.835818 
L 172.47374 395.585663 
L 172.899709 393.8667 
L 173.100861 392.819695 
L 173.538663 391.585167 
L 173.798978 390.866328 
L 173.893638 390.225623 
L 173.81081 389.928711 
L 174.248612 388.084733 
L 174.520759 387.725313 
L 174.958561 386.115739 
L 175.242541 383.552921 
L 177.490712 376.177006 
L 177.762859 374.848716 
L 179.017102 372.082748 
L 179.916371 370.410666 
L 180.448833 369.348034 
L 181.170614 367.394667 
L 182.685172 365.425673 
L 184.483709 362.17527 
L 185.962769 359.737467 
L 186.578058 359.018628 
L 187.702144 357.455935 
L 189.003717 356.158899 
L 190.30529 354.51807 
L 195.618074 348.736103 
L 199.096824 344.048022 
L 199.98426 342.235297 
L 201.69997 338.812998 
L 203.001543 335.796999 
L 204.480603 331.718368 
L 205.285212 330.155674 
L 206.137151 328.608607 
L 208.515479 324.295572 
L 210.633494 321.076423 
L 213.011823 318.372963 
L 213.993919 317.466601 
L 215.638633 316.060176 
L 216.963871 315.294456 
L 221.720529 313.294208 
L 224.702315 312.169069 
L 225.932893 311.70026 
L 228.145567 311.403349 
L 230.677718 311.512737 
L 232.488088 311.778395 
L 233.695001 311.778395 
L 238.510821 312.809773 
L 239.847891 312.809773 
L 240.581505 313.02855 
L 243.965595 312.340965 
L 245.669472 312.012799 
L 247.37335 311.387722 
L 249.479532 309.981297 
L 250.745607 308.684261 
L 251.95252 307.090314 
L 252.579642 306.027682 
L 252.993779 305.543247 
L 254.141529 303.152325 
L 255.537762 301.386481 
L 256.76834 298.917425 
L 257.951589 297.135954 
L 258.91002 295.385737 
L 259.395151 294.698152 
L 260.602064 292.416619 
L 261.761648 290.57264 
L 262.507094 289.369366 
L 263.134216 288.02545 
L 263.619347 287.46288 
L 264.341129 285.57202 
L 266.186996 282.087213 
L 266.719458 281.462136 
L 268.790142 277.649163 
L 269.630248 276.273992 
L 269.819568 275.680169 
L 270.352029 274.898822 
L 271.476115 272.882947 
L 273.511302 269.913829 
L 274.990362 266.085229 
L 275.096855 265.632048 
L 277.569843 261.115863 
L 277.865655 260.693935 
L 278.244295 259.60005 
L 278.646599 258.865584 
L 279.392046 257.537294 
L 279.5577 256.849709 
L 279.69969 256.209004 
L 280.137492 255.958973 
L 280.942101 254.708818 
L 281.687547 253.724321 
L 282.361999 252.724197 
L 282.953623 250.864591 
L 283.580744 249.755079 
L 283.888389 248.67682 
L 284.42085 247.676696 
L 284.728495 247.035992 
L 286.432372 244.64507 
L 287.603788 242.254149 
L 287.769443 241.644698 
L 288.834366 239.691331 
L 290.467249 236.128389 
L 292.360446 232.956121 
L 292.703588 232.331043 
L 292.987567 231.534069 
L 293.011232 229.674464 
L 293.117725 228.986878 
L 293.058562 228.393055 
L 293.283379 226.37718 
L 293.200552 225.705221 
L 292.940237 225.298921 
L 293.283379 223.658093 
L 293.200552 221.767233 
L 293.401704 221.189036 
L 293.366207 220.063897 
L 293.543694 218.079276 
L 294.786104 213.016148 
L 296.170505 207.906139 
L 296.182337 207.046658 
L 296.075845 206.312191 
L 295.91019 203.421208 
L 294.454795 197.811137 
L 293.709349 195.998413 
L 292.928405 194.920154 
L 291.18903 192.169813 
L 290.597406 190.85715 
L 290.360756 189.419472 
L 290.561908 187.044177 
L 291.449345 182.856158 
L 292.064634 181.090314 
L 293.827673 177.43361 
L 297.069773 170.979685 
L 299.15229 167.854297 
L 302.015751 163.150589 
L 304.855547 160.290859 
L 305.92047 159.150093 
L 306.500261 158.571896 
L 307.943824 156.884187 
L 308.440789 156.556021 
L 310.49964 154.227608 
L 311.043935 153.774426 
L 311.576396 153.477515 
L 316.297556 147.789309 
L 318.119759 143.757559 
L 318.285413 143.148109 
L 318.261748 142.616793 
L 318.545728 141.163488 
L 318.415571 139.022597 
L 317.729287 133.896961 
L 317.670124 132.428029 
L 317.622794 131.756071 
L 317.942271 129.052611 
L 318.107926 127.630559 
L 318.368241 125.7397 
L 320.498087 114.597693 
L 321.740498 110.690959 
L 322.284792 109.503311 
L 323.030239 108.48756 
L 323.89401 107.003001 
L 324.852441 106.34667 
L 326.414328 105.17465 
L 327.680404 103.690091 
L 329.218627 103.174402 
L 329.786586 102.67434 
L 330.768682 101.424185 
L 332.105752 100.595957 
L 333.750467 100.002133 
L 335.809319 98.564455 
L 336.365446 97.92375 
L 336.850577 96.236041 
L 337.572359 92.51683 
L 337.631521 91.579214 
L 337.359374 89.61022 
L 336.95707 88.735111 
L 336.187958 87.953764 
L 334.365756 87.219298 
L 333.43099 86.828625 
L 331.466798 86.54734 
L 329.419779 86.531713 
L 327.337262 86.984894 
L 326.355166 87.375567 
L 324.556629 88.672603 
L 322.852751 90.125908 
L 322.095473 91.032271 
L 321.231701 91.797991 
L 319.362169 92.938757 
L 317.066668 93.579462 
L 315.847922 93.673223 
L 314.605512 93.532581 
L 313.516923 93.110654 
L 312.475665 92.423068 
L 311.529066 91.54796 
L 310.759955 90.641597 
L 309.848854 88.516334 
L 309.813356 86.422324 
L 309.848854 85.453454 
L 310.144666 84.515838 
L 310.511473 83.734491 
L 313.008126 80.265311 
L 314.037552 79.374575 
L 314.676506 78.765125 
L 316.912845 75.98353 
L 318.084261 74.670867 
L 319.918296 71.826764 
L 320.154946 70.936029 
L 320.640077 70.201563 
L 321.444686 69.623366 
L 322.190132 69.2952 
L 322.568772 68.842019 
L 323.326051 67.248071 
L 324.355477 65.122808 
L 324.485634 64.560238 
L 325.219248 63.200695 
L 325.775374 61.419224 
L 326.603648 56.168572 
L 326.615481 55.434106 
L 326.8048 53.980801 
L 326.721973 52.699392 
L 326.012024 50.652263 
L 325.32574 49.511497 
L 325.029928 48.886419 
L 324.166157 47.933176 
L 322.249295 45.839167 
L 321.586676 44.745281 
L 321.279031 44.182711 
L 320.864894 43.745157 
L 320.521752 43.151333 
L 318.912535 41.276101 
L 315.907085 38.760164 
L 314.806664 36.666154 
L 314.380694 34.947191 
L 313.611583 34.13459 
L 312.771477 33.447005 
L 311.824878 33.056331 
L 310.961107 32.462508 
L 310.937442 32.540642 
L 310.890112 32.556269 
L 311.055767 32.60315 
L 311.067599 32.650031 
L 311.079432 32.509389 
L 311.126762 32.4 
L 311.126762 32.4 
" clip-path="url(#p7ab7369be0)" style="fill: none; stroke: #000000; stroke-width: 3"/>
   </g>
  </g>
 </g>
 <defs>
  <clipPath id="p7ab7369be0">
   <rect x="7.2" y="7.2" width="346.166356" height="554.4"/>
  </clipPath>
 </defs>
</svg>
