<?xml version="1.0" encoding="utf-8" standalone="no"?>
<!DOCTYPE svg PUBLIC "-//W3C//DTD SVG 1.1//EN"
  "http://www.w3.org/Graphics/SVG/1.1/DTD/svg11.dtd">
<svg xmlns:xlink="http://www.w3.org/1999/xlink" width="572.4pt" height="361.2264pt" viewBox="0 0 572.4 361.2264" xmlns="http://www.w3.org/2000/svg" version="1.1">
 <metadata>
  <rdf:RDF xmlns:dc="http://purl.org/dc/elements/1.1/" xmlns:cc="http://creativecommons.org/ns#" xmlns:rdf="http://www.w3.org/1999/02/22-rdf-syntax-ns#">
   <cc:Work>
    <dc:type rdf:resource="http://purl.org/dc/dcmitype/StillImage"/>
    <dc:date>2023-07-04T05:03:19.191171</dc:date>
    <dc:format>image/svg+xml</dc:format>
    <dc:creator>
     <cc:Agent>
      <dc:title>Matplotlib v3.7.1, https://matplotlib.org/</dc:title>
     </cc:Agent>
    </dc:creator>
   </cc:Work>
  </rdf:RDF>
 </metadata>
 <defs>
  <style type="text/css">*{stroke-linejoin: round; stroke-linecap: butt}</style>
 </defs>
 <g id="figure_1">
  <g id="patch_1">
   <path d="M 0 361.2264 
L 572.4 361.2264 
L 572.4 0 
L 0 0 
z
" style="fill: #ffffff"/>
  </g>
  <g id="axes_1">
   <g id="LineCollection_1">
    <path d="M 32.563636 69.108294 
L 33.643726 70.93375 
L 35.604942 73.739543 
L 37.16823 76.714359 
L 37.679851 77.931329 
L 38.276743 79.046885 
L 40.067419 83.610524 
L 41.289625 86.247293 
L 43.876156 91.08137 
L 44.387778 93.075849 
L 45.382598 94.968914 
L 47.770165 97.538073 
L 48.054399 98.484606 
L 48.082822 99.363529 
L 47.628047 100.884742 
L 47.286966 101.324203 
L 46.746922 101.66225 
L 44.870976 102.169321 
L 43.847733 102.439759 
L 42.90976 102.811611 
L 42.398139 103.318682 
L 42.199175 103.893363 
L 42.227598 104.738481 
L 44.274084 112.107912 
L 44.814129 113.08825 
L 46.093183 116.570137 
L 46.832192 118.598421 
L 47.286966 119.612563 
L 48.622867 124.480444 
L 49.759804 126.745361 
L 50.7262 128.942668 
L 51.80629 131.106171 
L 54.506514 136.379709 
L 56.183496 138.81365 
L 58.428946 141.349005 
L 60.020657 142.701194 
L 61.86818 144.019579 
L 63.545161 144.830892 
L 66.728584 145.777425 
L 70.196241 146.588738 
L 73.408087 146.791566 
L 74.43133 146.723957 
L 76.420969 146.419714 
L 77.273672 146.284495 
L 79.689662 146.081667 
L 81.821418 145.74362 
L 82.816238 145.642206 
L 83.725787 145.304158 
L 87.079751 145.03372 
L 91.542227 144.357626 
L 92.821281 144.425235 
L 96.402631 143.985774 
L 98.619658 143.546312 
L 100.865108 143.444898 
L 104.219071 142.701194 
L 106.350827 141.923685 
L 108.511007 141.619443 
L 109.676367 141.720857 
L 112.603979 141.247591 
L 115.588438 140.537691 
L 116.526411 140.233449 
L 120.278302 139.895401 
L 121.216275 139.692573 
L 122.239518 139.624963 
L 123.149067 139.692573 
L 124.456544 139.523549 
L 126.531454 138.881259 
L 126.929382 138.137555 
L 127.924201 137.698094 
L 129.174832 137.630484 
L 129.970687 137.021999 
L 130.709696 136.143076 
L 131.533975 135.534591 
L 136.593343 133.438698 
L 137.872397 133.10065 
L 141.652712 131.613242 
L 142.647531 131.309 
L 144.864558 131.309 
L 146.058341 131.376609 
L 147.110008 131.309 
L 148.218521 131.376609 
L 149.184917 131.24139 
L 150.719782 130.768124 
L 151.487214 130.396272 
L 152.169376 129.889201 
L 152.965232 129.517349 
L 154.471673 129.618763 
L 154.556943 130.5991 
L 154.244286 131.613242 
L 154.215862 132.999236 
L 154.500096 134.486644 
L 154.898024 135.872638 
L 155.096988 137.123413 
L 155.466492 138.475603 
L 155.60861 139.624963 
L 156.006537 140.774324 
L 156.233925 142.261732 
L 156.546582 143.546312 
L 157.484555 146.3183 
L 157.740366 147.569075 
L 157.825636 148.752241 
L 157.711942 149.766383 
L 157.967753 151.96369 
L 158.877303 154.837092 
L 159.445771 156.493524 
L 159.531041 157.778104 
L 159.417347 158.724637 
L 159.474194 161.023358 
L 159.474194 161.834672 
L 159.786852 163.626323 
L 159.758428 164.302417 
L 160.014239 165.451778 
L 160.525861 166.634944 
L 160.895365 167.851914 
L 161.151176 169.846393 
L 161.605951 173.666328 
L 161.321716 175.627002 
L 161.463833 176.607339 
L 161.236446 177.520067 
L 160.980635 180.393469 
L 161.151176 182.489363 
L 161.009059 183.40209 
L 160.753248 184.213404 
L 160.753248 185.802226 
L 160.44059 187.83051 
L 160.611131 190.061622 
L 161.833338 193.4759 
L 161.748068 194.253409 
L 161.804915 195.166137 
L 161.691221 196.450716 
L 161.151176 197.228225 
L 160.298473 197.600077 
L 158.0246 197.228225 
L 156.006537 198.073344 
L 153.732664 198.039539 
L 151.629331 198.242367 
L 149.724962 198.512805 
L 147.763746 198.276172 
L 146.88262 198.512805 
L 144.978252 198.749438 
L 142.533838 199.966409 
L 139.407262 200.000213 
L 137.55974 200.439675 
L 136.621767 200.473479 
L 135.712217 200.642503 
L 134.688974 200.642503 
L 133.637308 200.507284 
L 132.784606 200.608698 
L 130.169651 201.589036 
L 128.720057 202.839811 
L 127.952625 203.515905 
L 127.071499 204.12439 
L 125.621904 205.645603 
L 125.2524 206.592136 
L 124.712355 209.600757 
L 124.712355 210.716313 
L 124.968166 211.967088 
L 125.394517 213.048839 
L 126.531454 214.739076 
L 127.952625 216.158875 
L 131.818209 219.742176 
L 133.353074 221.12817 
L 139.265145 227.314436 
L 141.908522 229.545548 
L 145.575143 232.48656 
L 147.252125 233.973968 
L 149.810232 235.664205 
L 154.102168 238.13195 
L 155.637033 238.841849 
L 156.404465 239.112287 
L 168.228607 245.399967 
L 170.900408 246.684547 
L 172.74793 247.766298 
L 175.817659 249.388925 
L 177.380947 250.234044 
L 184.259414 254.324416 
L 189.148242 257.130209 
L 190.540989 257.671085 
L 193.099097 259.023274 
L 200.887113 262.910818 
L 204.042113 264.533445 
L 205.719094 265.479977 
L 207.197112 266.189877 
L 209.954183 267.778699 
L 211.659588 268.590013 
L 213.563957 269.739374 
L 215.240939 270.753515 
L 218.935983 272.545166 
L 220.186613 273.153651 
L 222.801568 274.742474 
L 225.615486 276.50032 
L 227.349315 277.277829 
L 229.509494 278.765237 
L 231.897061 279.64416 
L 234.654133 280.827325 
L 236.245844 281.672444 
L 240.338816 284.07258 
L 242.072645 284.951503 
L 244.517059 286.202278 
L 245.511878 286.641739 
L 246.449851 286.878372 
L 247.245707 286.878372 
L 247.927869 286.50652 
L 248.52476 285.830426 
L 249.235346 285.22194 
L 250.883904 284.106384 
L 251.963994 283.024633 
L 252.333498 282.517562 
L 252.390345 282.179515 
L 253.328318 281.706248 
L 253.328318 281.50342 
L 253.442012 281.368201 
L 253.498858 281.030154 
L 253.896786 280.624497 
L 255.317957 279.745574 
L 255.943272 278.596213 
L 256.597011 277.683485 
L 257.961335 273.525503 
L 258.330839 272.680385 
L 258.899308 272.038095 
L 259.58147 271.531024 
L 260.149938 270.956344 
L 260.888947 269.266107 
L 261.144758 268.387184 
L 261.485839 265.953244 
L 262.423811 264.56725 
L 263.105974 264.127788 
L 263.844982 264.026374 
L 266.260973 264.533445 
L 267.881108 265.378563 
L 269.89917 266.257486 
L 273.651061 268.28577 
L 277.545069 270.922539 
L 284.480383 274.742474 
L 285.475203 274.776278 
L 287.720653 275.418568 
L 290.420877 276.872172 
L 291.785201 277.852509 
L 292.495787 278.122947 
L 293.945381 278.866651 
L 295.480246 279.441331 
L 296.446642 279.914598 
L 297.697272 280.658302 
L 299.317407 281.131568 
L 301.392317 281.50342 
L 304.462046 283.058438 
L 306.08218 283.633118 
L 307.929702 284.748674 
L 308.611864 284.748674 
L 309.151909 284.478236 
L 309.862495 284.275408 
L 310.48781 283.802142 
L 310.914161 283.159852 
L 311.397359 282.990828 
L 312.704837 283.193657 
L 315.604025 284.343017 
L 319.412763 286.438911 
L 321.118168 287.047396 
L 321.8856 287.21642 
L 323.704699 287.858709 
L 324.528978 287.960124 
L 325.267987 287.926319 
L 326.120689 288.061538 
L 327.911365 287.926319 
L 328.849338 287.7911 
L 329.901004 287.892514 
L 331.350598 288.162952 
L 332.544382 288.230561 
L 335.102489 288.872851 
L 337.404786 289.210899 
L 342.350461 289.751774 
L 343.885325 289.548946 
L 345.022262 289.548946 
L 345.676001 289.71797 
L 346.75609 290.765916 
L 347.040325 290.630697 
L 347.523523 290.630697 
L 352.526044 290.191236 
L 358.295998 291.239183 
L 359.1487 291.50962 
L 360.001403 291.57723 
L 363.383789 290.630697 
L 366.510365 290.901135 
L 367.448338 291.171573 
L 370.233833 292.692786 
L 371.143382 292.726591 
L 373.644643 292.185715 
L 374.468922 292.287129 
L 377.993426 293.470295 
L 379.983065 293.335076 
L 381.631623 293.402685 
L 382.427479 293.301271 
L 384.303425 293.368881 
L 385.212974 293.43649 
L 386.975226 293.301271 
L 390.442883 294.044975 
L 391.267162 294.044975 
L 392.83045 293.774537 
L 394.706395 293.842147 
L 396.127566 293.537904 
L 396.894998 293.402685 
L 397.776124 293.402685 
L 398.600403 293.706928 
L 399.140448 293.706928 
L 400.845853 293.166052 
L 402.892339 292.320934 
L 403.801889 292.320934 
L 406.985312 293.199857 
L 408.065401 293.673123 
L 409.003374 293.943561 
L 410.794049 294.180194 
L 412.868959 294.619656 
L 420.571705 295.228141 
L 421.566525 295.092922 
L 422.760308 295.126727 
L 423.925668 295.025312 
L 425.204722 295.092922 
L 426.057424 294.957703 
L 426.966974 294.991508 
L 428.672379 295.397164 
L 429.240847 295.36336 
L 430.036703 295.566188 
L 430.718865 295.430969 
L 434.214945 295.93804 
L 435.152918 296.309892 
L 437.739449 296.816963 
L 438.705845 296.985987 
L 439.785935 297.357839 
L 444.390529 298.033934 
L 445.186384 298.43959 
L 445.555889 299.284709 
L 445.840123 300.29885 
L 445.98224 302.563767 
L 446.010663 305.504779 
L 446.266474 307.668282 
L 446.266474 309.764175 
L 446.15278 311.420607 
L 446.692825 313.178453 
L 448.341384 316.119465 
L 448.284537 318.891453 
L 448.568771 320.784518 
L 448.369807 325.483375 
L 448.909852 327.241221 
L 449.165663 327.748292 
L 449.165663 328.052535 
L 448.966699 328.187754 
L 449.194086 328.762434 
L 448.853005 329.607552 
L 448.909852 329.810381 
L 449.47832 329.539943 
L 452.093275 329.168091 
L 454.05449 329.404724 
L 457.351607 330.216038 
L 458.403273 330.283647 
L 462.723633 331.128765 
L 466.475524 331.297789 
L 468.465163 331.602032 
L 471.307505 331.771055 
L 473.26872 332.075298 
L 476.167909 332.413345 
L 478.271242 332.616173 
L 481.909439 333.190854 
L 483.984349 333.461292 
L 484.837051 333.697925 
L 494.188356 334.914895 
L 495.211599 335.185333 
L 502.061642 336.16567 
L 504.335516 336.706546 
L 506.239884 336.774155 
L 508.570605 336.976984 
L 510.702361 337.146007 
L 513.374162 337.179812 
L 514.170018 337.281226 
L 515.761729 337.315031 
L 516.671279 337.551664 
L 519.769431 337.348836 
L 521.929611 337.382641 
L 527.841682 338.02493 
L 529.007042 338.261564 
L 530.058708 338.227759 
L 530.882987 337.788297 
L 532.361005 336.537522 
L 533.810599 333.697925 
L 534.663302 331.061156 
L 535.345464 328.120144 
L 535.658121 327.106002 
L 535.714968 325.889032 
L 536.027626 324.908695 
L 536.539247 324.164991 
L 537.704607 321.528222 
L 538.756274 320.311251 
L 539.836364 315.916636 
L 539.779517 315.44337 
L 500.583624 306.789359 
L 498.366598 306.485116 
L 495.069482 306.924578 
L 492.937725 306.349897 
L 491.431284 306.620335 
L 489.754302 306.147069 
L 488.81633 305.978045 
L 487.054078 305.978045 
L 484.382277 305.200537 
L 483.671691 304.896294 
L 482.961106 304.896294 
L 478.868134 304.186395 
L 477.844891 304.118785 
L 476.906918 304.186395 
L 475.826828 304.08498 
L 470.795883 302.698986 
L 468.948361 302.766596 
L 467.896695 302.732791 
L 465.963902 303.138448 
L 464.997506 302.93562 
L 463.434218 302.056697 
L 461.757237 302.022892 
L 459.994985 302.428549 
L 458.801201 302.428549 
L 457.721111 302.158111 
L 456.726292 301.786259 
L 455.13458 301.515821 
L 453.486022 301.482016 
L 451.752194 301.312992 
L 450.757374 301.414407 
L 449.535167 300.839726 
L 447.943456 300.434069 
L 447.23287 299.656561 
L 446.920213 298.777638 
L 446.891789 296.276087 
L 446.692825 294.01117 
L 446.06751 290.93494 
L 446.294898 290.36026 
L 446.607555 287.385443 
L 446.806519 283.295071 
L 446.579132 280.117426 
L 446.635979 279.035675 
L 446.607555 276.804562 
L 446.891789 275.21574 
L 445.953817 264.364421 
L 445.527465 262.944623 
L 445.300078 261.558629 
L 445.555889 261.051558 
L 446.891789 260.105025 
L 446.97706 259.665564 
L 446.692825 256.893576 
L 446.437015 255.270949 
L 445.953817 254.087783 
L 445.470618 253.20886 
L 444.276835 248.679026 
L 443.65152 245.805624 
L 443.225168 243.574512 
L 443.111475 241.005352 
L 442.201925 236.610737 
L 441.121836 233.027436 
L 440.979719 231.675246 
L 439.984899 228.565211 
L 439.473277 227.584874 
L 439.388007 227.314436 
L 439.558548 227.145412 
L 439.615394 226.503122 
L 439.388007 225.455176 
L 438.336341 223.122649 
L 437.99526 221.973288 
L 437.881566 221.12817 
L 437.881566 220.046419 
L 437.341521 216.665946 
L 436.943593 216.192679 
L 436.602512 215.246147 
L 436.431972 214.26581 
L 436.659359 212.541768 
L 436.233008 208.011935 
L 435.664539 206.11887 
L 435.266612 202.873615 
L 435.550846 199.459338 
L 435.181341 196.653545 
L 434.868684 195.537989 
L 434.186522 194.050581 
L 433.873864 192.461758 
L 433.788594 191.278593 
L 433.987558 191.075764 
L 434.357062 190.872936 
L 434.612873 190.501084 
L 434.66972 189.520747 
L 434.499179 188.337581 
L 434.527603 187.019196 
L 434.186522 184.619061 
L 433.873864 181.475221 
L 433.134855 176.336901 
L 433.021162 175.25515 
L 432.736928 174.274813 
L 432.395847 172.516967 
L 431.884225 170.961949 
L 431.42945 169.677369 
L 430.804135 166.026458 
L 431.116793 165.079926 
L 430.775712 164.708074 
L 428.814496 164.167198 
L 427.279631 164.167198 
L 426.455352 164.336222 
L 424.977335 163.592518 
L 424.209902 163.423494 
L 422.703461 163.761541 
L 421.054903 163.761541 
L 420.372741 163.89676 
L 419.662156 164.336222 
L 419.03684 165.012317 
L 418.326255 165.485583 
L 417.530399 165.586997 
L 414.943868 165.18134 
L 413.21004 164.843293 
L 400.419502 171.097168 
L 399.879457 171.232387 
L 398.600403 170.590097 
L 397.634007 170.083026 
L 395.928602 171.333801 
L 395.388557 172.009896 
L 395.0759 172.990233 
L 394.876936 175.32276 
L 393.228378 176.945387 
L 391.238738 177.7567 
L 390.556576 177.722895 
L 389.845991 177.553872 
L 388.851171 176.810168 
L 387.088919 175.965049 
L 384.360271 176.066464 
L 382.59802 176.370706 
L 381.631623 176.303097 
L 380.778921 176.641144 
L 379.897795 177.148215 
L 378.590318 178.229966 
L 377.766039 178.4666 
L 375.719553 178.737037 
L 373.843607 178.737037 
L 373.047751 178.939866 
L 372.223472 179.582156 
L 371.37077 180.021617 
L 369.864329 181.509025 
L 368.983203 183.300676 
L 368.443158 183.841552 
L 365.458699 184.281013 
L 363.412213 184.247209 
L 362.47424 184.247209 
L 361.450997 184.517646 
L 356.761133 184.68667 
L 354.686224 184.990913 
L 353.549287 184.990913 
L 351.417531 185.464179 
L 347.807757 186.410711 
L 344.226406 185.768421 
L 343.004199 185.396569 
L 341.725146 184.75428 
L 340.531362 184.450037 
L 339.621813 184.585256 
L 337.546903 184.382427 
L 336.495237 184.247209 
L 334.335057 183.807747 
L 333.738165 183.571114 
L 333.02758 183.097848 
L 331.208481 182.354144 
L 330.355779 182.218925 
L 327.28605 183.064043 
L 326.234383 183.571114 
L 324.074203 184.247209 
L 322.96569 184.348623 
L 321.743483 184.281013 
L 319.64015 185.126132 
L 317.13889 185.599398 
L 316.428304 185.937445 
L 315.348214 185.90364 
L 314.666052 186.478321 
L 314.211278 187.222025 
L 313.98389 187.89812 
L 313.500692 188.743238 
L 312.676413 189.419332 
L 312.107945 190.095427 
L 311.823711 190.872936 
L 311.454206 191.481421 
L 310.999432 191.887078 
L 310.345693 191.887078 
L 309.691954 192.022297 
L 308.839252 191.954687 
L 306.821189 191.346202 
L 304.774703 190.501084 
L 304.462046 191.04196 
L 304.206235 191.785664 
L 303.268262 192.732196 
L 302.642947 193.002634 
L 301.051236 193.205462 
L 300.141686 193.137853 
L 298.322587 193.577314 
L 297.413038 193.4759 
L 296.617182 193.509705 
L 294.115922 194.11819 
L 293.064255 194.253409 
L 291.842048 194.219604 
L 290.506148 194.050581 
L 288.971283 193.644924 
L 286.214212 193.780143 
L 285.162545 194.11819 
L 283.059212 194.253409 
L 239.713501 192.056101 
L 238.661835 189.824989 
L 238.064943 188.506605 
L 237.695439 187.357244 
L 237.723862 186.410711 
L 237.553321 185.497984 
L 237.098547 184.483842 
L 236.473232 183.368286 
L 236.245844 182.354144 
L 236.331114 180.25825 
L 236.473232 177.215824 
L 236.245844 176.235487 
L 235.847916 175.25515 
L 235.677376 174.308618 
L 235.677376 172.652186 
L 235.87634 171.266192 
L 235.87634 170.454878 
L 235.251025 166.736358 
L 235.393142 166.195482 
L 235.648952 165.688411 
L 235.762646 165.18134 
L 236.245844 164.336222 
L 237.013276 163.727737 
L 237.155394 163.119252 
L 236.814313 160.75292 
L 235.96161 156.189282 
L 235.563682 154.735678 
L 234.625709 152.200323 
L 232.72134 145.439377 
L 231.953908 140.74052 
L 231.726521 139.861597 
L 231.726521 138.74604 
L 231.47071 138.036141 
L 231.413863 137.427656 
L 231.527557 137.021999 
L 231.442287 136.176881 
L 230.618008 132.593579 
L 230.021116 131.511828 
L 229.31053 130.768124 
L 228.088323 130.328662 
L 227.832513 129.855396 
L 227.747242 128.09755 
L 227.917783 126.474923 
L 227.804089 125.967852 
L 227.292468 125.528391 
L 225.786027 124.886101 
L 224.990171 124.886101 
L 222.204676 125.291757 
L 221.721478 125.156539 
L 219.788686 115.184143 
L 219.277064 114.203806 
L 217.429542 111.668451 
L 217.031614 110.823333 
L 215.240939 104.907505 
L 214.41666 103.115854 
L 212.853372 100.580499 
L 212.370174 99.769185 
L 211.631165 97.94373 
L 209.357292 93.718139 
L 207.992967 90.134837 
L 206.315986 85.807832 
L 204.582157 82.494968 
L 203.757878 80.601903 
L 199.608059 71.880282 
L 198.78378 69.851998 
L 197.44788 66.268697 
L 195.714051 63.057247 
L 194.719232 61.50223 
L 194.264457 60.623307 
L 193.298061 59.135899 
L 191.649503 55.924449 
L 189.574593 50.819935 
L 188.295539 49.400136 
L 186.931215 48.149361 
L 185.510044 47.202829 
L 183.804639 46.323906 
L 181.957117 45.78303 
L 180.194865 45.614006 
L 178.375767 45.512592 
L 176.528245 45.918249 
L 174.595452 46.526734 
L 173.657479 46.594343 
L 171.753111 46.391515 
L 170.786714 46.42532 
L 170.076129 46.661953 
L 168.455994 47.574681 
L 167.830679 48.014142 
L 167.262211 48.622627 
L 166.977976 49.332527 
L 166.352661 49.974817 
L 164.704103 51.022763 
L 162.799734 51.597444 
L 156.717123 53.186266 
L 155.125411 54.132798 
L 153.476853 55.011721 
L 152.652574 55.248355 
L 151.345097 55.180745 
L 150.435548 54.57226 
L 150.12289 54.200408 
L 149.639692 52.746804 
L 148.104827 47.912728 
L 147.593206 46.932391 
L 146.456269 45.208349 
L 145.63199 43.518113 
L 145.091945 42.706799 
L 144.210819 42.199728 
L 142.13591 41.523634 
L 140.515775 40.77993 
L 140.117847 40.408078 
L 139.97573 39.596764 
L 139.094604 37.56848 
L 138.89564 35.033125 
L 138.554559 34.390835 
L 137.73028 31.92309 
L 137.64501 30.739925 
L 137.64501 30.097635 
L 137.275505 28.813055 
L 137.161812 28.711641 
L 136.593343 27.528475 
L 136.110145 27.021404 
L 134.063659 23.607126 
L 133.523614 23.167665 
L 132.813029 22.964836 
L 132.017173 23.13386 
L 130.340192 24.317026 
L 128.66321 25.026925 
L 126.815688 25.398777 
L 126.019832 25.736824 
L 123.888076 27.460866 
L 122.466905 28.035546 
L 121.557356 28.441203 
L 119.454023 28.441203 
L 117.322267 28.677836 
L 115.702132 29.387735 
L 114.906276 29.861002 
L 114.167267 30.537096 
L 111.950241 32.125918 
L 111.381772 32.632989 
L 110.045872 33.173865 
L 109.164746 33.410498 
L 105.327584 34.830297 
L 104.418035 35.13454 
L 103.622179 35.168344 
L 102.513666 35.506392 
L 99.017586 37.63609 
L 97.14164 38.582622 
L 92.537047 40.982758 
L 90.717948 41.726462 
L 88.785156 42.368752 
L 87.875606 42.774409 
L 87.051327 43.28148 
L 85.431192 44.701278 
L 84.550066 45.242154 
L 82.901508 46.661953 
L 81.878265 47.270438 
L 80.798175 47.574681 
L 77.330518 47.777509 
L 76.079888 47.980337 
L 73.834438 48.757846 
L 72.782772 49.095894 
L 69.514079 49.839598 
L 67.467593 50.819935 
L 65.591647 51.969296 
L 65.591647 51.969296 
" clip-path="url(#p192eef0f5f)" style="fill: none; stroke: #000000; stroke-width: 3"/>
   </g>
  </g>
 </g>
 <defs>
  <clipPath id="p192eef0f5f">
   <rect x="7.2" y="7.2" width="558" height="346.8264"/>
  </clipPath>
 </defs>
</svg>
