<?xml version="1.0" encoding="utf-8" standalone="no"?>
<!DOCTYPE svg PUBLIC "-//W3C//DTD SVG 1.1//EN"
  "http://www.w3.org/Graphics/SVG/1.1/DTD/svg11.dtd">
<svg xmlns:xlink="http://www.w3.org/1999/xlink" width="294.265708pt" height="568.8pt" viewBox="0 0 294.265708 568.8" xmlns="http://www.w3.org/2000/svg" version="1.1">
 <metadata>
  <rdf:RDF xmlns:dc="http://purl.org/dc/elements/1.1/" xmlns:cc="http://creativecommons.org/ns#" xmlns:rdf="http://www.w3.org/1999/02/22-rdf-syntax-ns#">
   <cc:Work>
    <dc:type rdf:resource="http://purl.org/dc/dcmitype/StillImage"/>
    <dc:date>2023-07-07T05:03:23.295975</dc:date>
    <dc:format>image/svg+xml</dc:format>
    <dc:creator>
     <cc:Agent>
      <dc:title>Matplotlib v3.7.2, https://matplotlib.org/</dc:title>
     </cc:Agent>
    </dc:creator>
   </cc:Work>
  </rdf:RDF>
 </metadata>
 <defs>
  <style type="text/css">*{stroke-linejoin: round; stroke-linecap: butt}</style>
 </defs>
 <g id="figure_1">
  <g id="patch_1">
   <path d="M 0 568.8 
L 294.265708 568.8 
L 294.265708 0 
L 0 0 
z
" style="fill: #ffffff"/>
  </g>
  <g id="axes_1">
   <g id="LineCollection_1">
    <path d="M 139.976125 173.1202 
L 139.144032 172.715389 
L 137.968883 172.040703 
L 137.282771 171.741914 
L 136.640454 171.693722 
L 132.246419 169.505812 
L 131.23185 169.033532 
L 130.436252 168.387761 
L 128.421711 167.395009 
L 127.480132 166.604662 
L 127.071385 166.450448 
L 126.115208 165.66974 
L 125.034947 165.332398 
L 122.618958 163.886642 
L 121.837958 163.491469 
L 120.560622 163.038466 
L 120.224865 162.614377 
L 117.458521 161.052961 
L 116.947587 160.301168 
L 116.239578 159.848165 
L 115.276102 159.472269 
L 114.414813 159.04818 
L 113.655711 158.951797 
L 113.166673 159.038542 
L 113.173973 158.980712 
L 112.947702 158.768668 
L 112.889309 158.537347 
L 113.03529 158.142174 
L 113.568122 157.265082 
L 114.312626 155.992817 
L 115.268803 154.02659 
L 115.181214 153.207328 
L 114.933046 152.735048 
L 114.991439 152.291683 
L 115.261504 151.867595 
L 115.254205 151.626636 
L 115.560765 151.154355 
L 115.735943 150.923035 
L 115.728644 150.624245 
L 116.006008 150.151965 
L 115.933018 150.06522 
L 116.14469 149.814622 
L 116.531541 149.602578 
L 116.699419 149.776069 
L 116.473148 150.094135 
L 116.400158 150.151965 
L 116.524242 150.113411 
L 116.363662 150.06522 
L 116.049803 150.007389 
L 115.823532 150.055581 
L 115.867326 150.06522 
L 115.889223 150.113411 
L 115.801635 150.151965 
L 114.787065 149.978474 
L 115.020635 149.496556 
L 113.757897 149.361619 
L 113.079085 149.342342 
L 112.772524 149.265235 
L 112.721431 149.274873 
L 112.626543 149.477279 
L 112.633842 149.448364 
L 112.517057 149.313427 
L 112.385674 149.342342 
L 111.940431 149.091744 
L 112.079113 149.776069 
L 112.071814 151.578444 
L 113.874682 150.498946 
L 114.801663 149.988113 
L 113.889281 150.460393 
L 114.889252 150.373647 
L 115.319896 150.209795 
L 115.385588 150.894119 
L 116.239578 150.923035 
L 116.093597 150.739906 
L 116.020606 150.65316 
L 116.334466 150.884481 
L 116.465849 150.845928 
L 116.465849 150.845928 
L 116.568036 150.65316 
L 116.641027 150.691714 
L 117.407428 151.000142 
L 117.057073 150.961588 
L 116.940288 151.000142 
L 117.013279 150.855566 
L 117.144662 150.604968 
L 117.071671 149.872452 
L 117.217652 149.968836 
L 117.429325 150.219434 
L 117.451222 150.161603 
L 117.801577 149.496556 
L 119.64824 146.450831 
L 120.546024 144.38822 
L 121.837958 141.795498 
L 122.224808 141.207558 
L 123.100696 139.1835 
L 124.888966 136.10886 
L 126.611544 133.516139 
L 126.859712 132.831814 
L 128.42901 130.229454 
L 128.954543 129.660791 
L 129.728243 128.369249 
L 130.078598 127.578903 
L 130.304869 126.778918 
L 132.47269 122.86574 
L 133.166101 121.313962 
L 134.815689 118.441728 
L 135.757267 117.005611 
L 138.187855 112.39847 
L 139.012649 111.058737 
L 140.158601 108.928657 
L 142.107451 105.36246 
L 142.589189 104.610667 
L 143.304497 103.049251 
L 146.260616 97.79634 
L 147.041616 96.234924 
L 148.275157 93.95063 
L 149.18754 92.466321 
L 150.81523 89.343489 
L 151.311567 88.707357 
L 152.428323 86.32668 
L 154.180098 83.213486 
L 155.457433 80.890639 
L 156.34062 79.377415 
L 157.216507 77.922021 
L 158.12889 76.350967 
L 164.50097 64.572879 
L 165.676119 62.278947 
L 166.449819 60.794638 
L 171.194209 51.975529 
L 172.318264 50.067132 
L 173.252544 48.24548 
L 173.230647 47.580433 
L 170.055555 45.758781 
L 168.457061 44.804582 
L 167.427893 44.313025 
L 166.668791 43.908214 
L 165.829399 43.291358 
L 163.698073 42.481735 
L 161.486458 40.73719 
L 160.982822 40.554061 
L 158.975581 39.204689 
L 154.223892 37.508336 
L 153.012248 36.708351 
L 151.880893 35.686684 
L 149.399213 33.980693 
L 149.647381 33.730095 
L 149.720371 33.624073 
L 149.57439 33.64335 
L 149.545194 33.527689 
L 148.837185 33.036132 
L 148.523325 32.939749 
L 148.669306 33.084324 
L 148.742297 33.219261 
L 148.669306 33.257815 
L 148.662007 33.383114 
L 148.734998 33.325284 
L 148.508727 32.824088 
L 148.391942 32.910834 
L 148.384643 33.267453 
L 148.121877 33.431306 
L 147.800718 33.460221 
L 147.610943 33.306007 
L 147.523354 33.315645 
L 147.450363 33.142154 
L 147.55255 33.132516 
L 147.698531 32.621683 
L 147.267887 33.103601 
L 147.348176 33.045771 
L 146.77885 34.298759 
L 147.275186 33.392752 
L 147.829914 32.689151 
L 147.391971 32.891557 
L 147.727728 32.592767 
L 147.391971 33.132516 
L 147.581746 33.190346 
L 148.377344 32.409638 
L 149.10725 32.428915 
L 149.311624 32.920472 
L 149.151044 32.75662 
L 149.019661 32.75662 
L 148.983166 32.891557 
L 148.939372 32.640959 
L 148.888278 32.4 
L 148.859082 32.573491 
L 148.501428 32.631321 
L 148.683905 32.592767 
L 148.742297 32.939749 
L 149.450306 33.595158 
L 150.406483 34.58791 
L 151.099894 35.011998 
L 151.953884 35.195127 
L 151.275071 35.995112 
L 150.778735 36.804735 
L 150.720343 37.354122 
L 149.311624 40.833574 
L 148.902876 41.50826 
L 147.662036 44.380494 
L 146.435794 47.194898 
L 146.319009 48.091266 
L 146.041644 48.833421 
L 145.494215 49.537022 
L 145.121963 50.973139 
L 144.406655 52.341787 
L 144.049001 53.045388 
L 143.90302 53.777904 
L 143.231506 55.22366 
L 142.581889 55.628471 
L 142.304525 56.303157 
L 141.530825 57.613976 
L 141.268059 58.41396 
L 140.881208 59.040454 
L 140.706031 59.801886 
L 140.377573 60.225974 
L 139.69876 60.312719 
L 138.822873 61.353663 
L 138.487116 61.893412 
L 138.078369 62.327139 
L 137.52364 63.194592 
L 136.874024 64.890945 
L 136.027333 66.490914 
L 135.58209 67.1656 
L 134.866782 68.871592 
L 133.786521 72.48598 
L 133.144204 73.179943 
L 132.531082 74.076311 
L 132.144232 74.895573 
L 131.85227 75.994347 
L 131.027476 77.806361 
L 130.100495 79.435245 
L 128.713673 80.562934 
L 127.793992 82.153265 
L 127.502029 82.885781 
L 127.034889 83.695405 
L 126.691834 84.591773 
L 126.312282 85.179714 
L 125.494788 86.818236 
L 124.998451 87.521837 
L 124.6189 88.360376 
L 123.253976 90.567562 
L 122.52407 91.897657 
L 122.12992 92.456683 
L 121.706575 92.813302 
L 120.283258 96.148178 
L 119.633642 97.256591 
L 119.348978 97.960192 
L 118.830745 98.490302 
L 118.56068 99.068605 
L 118.370904 99.762567 
L 117.400129 101.81554 
L 114.991439 104.59139 
L 114.451308 105.738357 
L 114.327224 106.66364 
L 113.130178 108.620229 
L 112.641141 109.179255 
L 112.305384 109.921409 
L 111.809048 110.557541 
L 111.56088 111.261142 
L 110.823675 112.533407 
L 108.962414 116.841759 
L 107.743471 119.164606 
L 105.072015 123.415127 
L 104.305613 125.410269 
L 103.685193 126.52832 
L 103.108567 127.588541 
L 102.495446 127.954799 
L 102.028306 128.446356 
L 101.758241 128.995743 
L 101.342195 129.4873 
L 100.247335 131.925808 
L 99.553925 133.236626 
L 98.948103 134.528167 
L 98.517458 135.10647 
L 97.634272 137.014867 
L 96.546711 138.894349 
L 96.313141 139.347352 
L 95.773011 139.993123 
L 95.524843 140.725639 
L 96.751085 141.438879 
L 97.575879 141.997904 
L 97.904337 142.238863 
L 98.670738 143.067763 
L 98.721832 142.894272 
L 98.897009 143.2027 
L 99.181672 143.877386 
L 99.875083 144.127984 
L 100.561195 144.147261 
L 101.2984 144.33039 
L 101.955316 144.648456 
L 103.042876 144.580987 
L 103.70709 144.889415 
L 104.298314 145.438802 
L 105.531856 146.325532 
L 105.940603 146.711067 
L 106.422341 147.009856 
L 106.845687 147.086963 
L 107.298228 147.318284 
L 108.283602 148.041162 
L 109.509844 148.638741 
L 110.122965 148.860423 
L 111.064544 149.564024 
L 113.166673 150.47967 
L 114.940345 151.53989 
L 115.37099 151.915787 
L 115.918419 152.166384 
L 116.392858 152.571196 
L 117.597204 152.860347 
L 119.195698 153.7278 
L 120.049688 154.575977 
L 120.407342 154.816936 
L 121.662781 156.185585 
L 122.823331 156.715695 
L 123.728415 157.563871 
L 124.049573 158.04579 
L 124.575106 158.267472 
L 125.093339 158.624092 
L 125.750255 158.87469 
L 126.808619 159.597567 
L 127.896179 159.684313 
L 129.100524 160.185508 
L 130.158888 160.715618 
L 130.793906 160.985493 
L 131.611401 161.679455 
L 131.954457 162.093905 
L 133.151503 162.633654 
L 135.005464 162.999912 
L 135.669679 163.038466 
L 135.852155 163.211956 
L 136.100323 163.472192 
L 137.012706 164.011941 
L 138.209752 164.696265 
L 143.2753 167.32754 
L 146.428495 169.486535 
L 146.895635 169.978092 
L 150.070726 171.192526 
L 150.42838 171.472039 
L 150.720343 171.867212 
L 151.800604 172.667197 
L 152.304239 172.840688 
L 152.793276 173.149116 
L 154.31878 173.785248 
L 154.654536 174.122591 
L 154.720228 174.450295 
L 155.041387 174.739447 
L 156.245732 174.122591 
L 156.72747 174.199698 
L 156.72747 174.199698 
L 156.975638 174.604509 
L 158.895291 176.214117 
L 159.347833 176.49363 
L 167.741753 179.076713 
L 169.86578 180.194764 
L 174.128431 183.799514 
L 174.792646 184.088665 
L 175.544449 184.638052 
L 178.434877 186.199468 
L 183.719398 188.43557 
L 184.434706 188.551231 
L 187.084265 189.563259 
L 189.52945 190.729502 
L 190.164468 190.883716 
L 195.813942 193.871611 
L 197.485427 195.317366 
L 198.31752 196.705292 
L 198.886846 198.237792 
L 199.594855 201.495561 
L 200.806499 205.399101 
L 201.164153 206.121979 
L 202.025443 207.326775 
L 202.470685 208.06893 
L 203.142199 208.676147 
L 204.463329 209.649622 
L 204.937768 210.083349 
L 205.4633 210.362862 
L 206.47787 211.153208 
L 208.171252 213.765206 
L 208.996046 215.297707 
L 211.91567 219.2398 
L 213.368184 220.95543 
L 214.842594 222.352994 
L 215.119958 222.940934 
L 214.601725 224.232476 
L 214.025099 224.887885 
L 213.178408 226.960135 
L 212.251427 229.042023 
L 212.010558 229.803454 
L 210.850007 231.499807 
L 208.96685 235.066004 
L 208.353729 236.723803 
L 207.784402 237.167168 
L 206.799029 239.721336 
L 205.966936 241.292391 
L 205.558188 241.9478 
L 204.784488 243.518854 
L 204.353843 244.106795 
L 201.149555 250.188606 
L 200.806499 250.737993 
L 200.587528 251.489786 
L 200.273668 252.125918 
L 199.835724 252.742774 
L 199.47807 253.639142 
L 199.368584 254.265637 
L 196.719025 258.178815 
L 196.354072 258.824585 
L 195.806643 260.048658 
L 193.018401 265.060611 
L 192.79943 265.523253 
L 192.310392 266.082278 
L 190.872477 268.838852 
L 190.456431 269.523176 
L 189.726525 271.0364 
L 189.317777 271.614702 
L 186.50034 277.388086 
L 186.332461 277.985665 
L 185.208406 280.048276 
L 184.836154 280.713324 
L 183.887276 281.802459 
L 181.828941 285.599977 
L 181.493184 286.399962 
L 179.953082 288.8963 
L 179.566232 289.696284 
L 179.091793 290.342055 
L 178.544363 291.604681 
L 178.288896 292.260091 
L 177.887448 292.761286 
L 177.121046 294.168488 
L 175.858309 296.182907 
L 175.135702 297.387703 
L 173.872964 299.59489 
L 173.201451 301.098476 
L 172.792703 301.628586 
L 171.756237 303.373131 
L 171.427779 303.941795 
L 170.296424 306.717645 
L 168.734425 308.992301 
L 168.530052 309.609156 
L 166.727183 312.905479 
L 165.960782 314.090998 
L 165.27467 315.633138 
L 164.96811 316.143971 
L 164.194409 317.743941 
L 162.493728 320.654728 
L 161.720028 322.322166 
L 160.311309 325.126932 
L 159.355132 326.717263 
L 158.442749 328.471446 
L 156.997535 330.890677 
L 156.501199 331.623193 
L 155.625312 333.47376 
L 154.377172 334.967708 
L 153.245818 337.194171 
L 151.574333 340.124236 
L 151.28237 340.326641 
L 150.997707 340.663984 
L 150.669249 340.876028 
L 149.640082 342.504913 
L 149.209437 343.671156 
L 149.085353 344.220543 
L 148.428437 345.444616 
L 147.574447 347.439758 
L 146.625569 348.528894 
L 145.924859 350.099948 
L 144.238776 353.261334 
L 143.837328 353.849274 
L 142.757067 355.969716 
L 142.465105 356.490188 
L 141.545423 359.381699 
L 141.005292 360.817816 
L 140.742526 361.232266 
L 140.275386 361.569609 
L 139.224321 363.294877 
L 138.414126 364.470758 
L 137.830201 366.003259 
L 136.603958 368.191169 
L 135.684277 369.742946 
L 133.764624 372.191092 
L 132.275615 375.005496 
L 131.837672 375.853673 
L 131.793877 376.431975 
L 131.370532 377.945199 
L 129.166215 381.19333 
L 127.757497 383.43907 
L 126.976497 385.087231 
L 126.450965 385.636618 
L 126.159002 386.359496 
L 126.027619 387.207672 
L 125.640769 387.747421 
L 125.100638 389.347391 
L 124.940059 390.17629 
L 124.100667 392.325647 
L 124.093368 392.903949 
L 123.713817 394.262959 
L 122.52407 396.180995 
L 121.319725 397.308684 
L 120.779594 397.780964 
L 119.575249 399.535148 
L 119.173801 401.164032 
L 119.108109 401.694142 
L 118.816147 402.214614 
L 118.217624 402.985684 
L 117.6264 403.36158 
L 117.224951 404.325417 
L 117.122765 404.951911 
L 116.443952 406.67718 
L 115.487775 408.614492 
L 115.064429 409.000027 
L 114.706775 409.655436 
L 114.020664 410.098801 
L 112.816319 411.901176 
L 112.400272 413.327655 
L 112.064515 413.934872 
L 111.998824 414.542089 
L 110.998852 416.055314 
L 110.276245 416.932405 
L 109.670423 417.414324 
L 109.15219 418.050456 
L 108.867527 418.156478 
L 108.2982 418.532375 
L 107.969742 419.39019 
L 107.663181 419.814278 
L 107.123051 420.932329 
L 106.823789 421.240757 
L 106.12308 421.260033 
L 105.794622 421.674483 
L 105.385874 422.435914 
L 104.575679 424.816592 
L 104.612174 425.067189 
L 104.444296 425.086466 
L 103.604903 426.031026 
L 103.08667 426.455115 
L 102.458951 426.503306 
L 101.115924 428.238213 
L 100.816662 428.84543 
L 100.393317 428.806877 
L 99.875083 429.346626 
L 100.254634 430.03095 
L 99.7437 431.38996 
L 98.73643 431.50562 
L 98.670738 432.411627 
L 98.495561 433.22125 
L 98.386075 434.088704 
L 97.977327 435.129648 
L 97.480991 437.385026 
L 96.838674 437.722369 
L 95.955488 438.772951 
L 96.583207 439.678958 
L 96.648898 439.640405 
L 96.349637 439.84281 
L 95.575936 440.72954 
L 94.955516 441.250012 
L 94.3059 442.666853 
L 93.984741 443.245155 
L 89.393632 450.271527 
L 88.911894 451.379939 
L 89.065174 452.594374 
L 88.291473 453.963022 
L 87.897324 455.707567 
L 87.941118 456.440083 
L 87.838932 456.893087 
L 87.576165 456.970194 
L 87.247708 457.490666 
L 86.963044 457.972584 
L 86.773269 458.695462 
L 86.68568 459.562915 
L 85.641914 462.348404 
L 85.094485 463.061643 
L 84.065317 463.697776 
L 83.313514 464.565229 
L 82.350038 466.406158 
L 81.693122 467.842275 
L 80.912123 469.451883 
L 80.167618 470.030185 
L 79.45231 471.514494 
L 79.335525 472.516884 
L 78.722404 474.733709 
L 77.685938 476.044528 
L 76.919536 476.449339 
L 75.583808 478.598696 
L 74.737117 480.921543 
L 74.613033 481.731166 
L 73.634959 482.463682 
L 73.109426 483.745585 
L 71.861287 485.576876 
L 71.153278 486.694926 
L 70.423372 487.947915 
L 69.474494 488.834645 
L 68.788382 490.299677 
L 68.489121 491.041831 
L 67.64243 492.391203 
L 67.445355 492.99842 
L 67.423458 493.673106 
L 66.576767 494.877903 
L 66.292103 495.639334 
L 65.876057 496.265828 
L 65.525702 497.104366 
L 65.430814 497.933266 
L 65.255637 498.482653 
L 62.934535 502.752451 
L 62.722863 503.889778 
L 62.474694 504.660848 
L 61.394433 506.810204 
L 60.401761 508.169215 
L 58.93465 511.320962 
L 58.058763 512.496843 
L 57.350754 512.776355 
L 56.83252 513.171529 
L 56.197502 514.34741 
L 55.89824 514.954627 
L 55.394605 516.419659 
L 55.066148 516.940131 
L 54.869073 517.470242 
L 54.825278 517.42205 
L 54.693895 517.287113 
L 54.591709 517.460603 
L 54.153765 517.730478 
L 53.285177 518.809975 
L 52.934822 519.513576 
L 51.891056 519.793089 
L 51.591794 519.860557 
L 51.343626 520.400306 
L 51.31443 520.265369 
L 51.277935 520.361753 
L 50.7743 520.631627 
L 49.533459 521.103907 
L 49.270693 521.508719 
L 49.000628 521.865338 
L 48.956833 522.164128 
L 49.080917 522.848452 
L 49.110114 523.542415 
L 49.102815 523.532776 
L 48.847347 523.465308 
L 48.351011 523.802651 
L 47.854675 524.63155 
L 47.307246 524.853233 
L 47.132068 525.768878 
L 46.927694 526.684523 
L 46.526246 527.166442 
L 46.445956 527.224272 
L 46.504349 528.00498 
L 46.33647 528.3616 
L 46.402162 528.737496 
L 46.34377 528.737496 
L 46.161293 528.641112 
L 46.402162 528.650751 
L 46.409461 528.602559 
L 46.49705 528.718219 
L 46.781713 528.756773 
L 46.694124 528.670027 
L 46.971489 528.660389 
L 47.095573 528.718219 
L 47.000685 528.737496 
L 47.183162 528.872433 
L 47.475124 528.804965 
L 47.088274 528.968817 
L 46.840106 528.843518 
L 46.934993 528.631474 
L 46.716022 528.59292 
L 46.394863 528.41943 
L 46.467854 528.708581 
L 46.467854 528.708581 
L 46.139396 529.132669 
L 46.153994 529.132669 
L 46.022611 528.824241 
L 45.351097 529.855547 
L 45.533574 530.472403 
L 45.424088 530.597701 
L 45.431387 530.684447 
L 44.679584 532.159117 
L 44.526303 532.188032 
L 44.591995 532.091649 
L 44.5555 532.053095 
L 44.62849 532.101287 
L 44.599294 532.08201 
L 38.738148 535.966273 
L 38.227214 535.773506 
L 38.227214 535.773506 
L 41.759959 534.356666 
L 41.759959 534.356666 
L 43.081089 532.467545 
L 43.07379 532.467545 
L 44.94235 531.301302 
L 46.219686 536.053019 
L 46.088302 533.585596 
L 46.278078 533.2097 
L 46.854704 532.718143 
L 47.453227 531.927796 
L 47.314545 532.004903 
L 47.161264 531.918158 
L 47.015283 531.484431 
L 47.088274 531.185642 
L 46.920395 530.838661 
L 46.993386 530.433849 
L 47.256152 530.414572 
L 47.453227 530.096506 
L 47.570012 530.404934 
L 47.416732 530.221805 
L 46.241583 529.527842 
L 46.299975 529.460374 
L 46.168592 529.470012 
L 46.081003 529.055562 
L 46.081003 529.055562 
L 46.234284 529.171223 
L 46.256181 529.412182 
L 45.445985 530.443487 
L 45.117527 531.118173 
L 44.818266 532.371161 
L 44.387621 532.824165 
L 44.256238 533.595234 
L 43.949678 534.21209 
L 43.650416 535.378333 
L 43.285463 535.889166 
L 43.117585 535.92772 
L 43.066491 536.149402 
L 42.949706 535.975912 
L 42.986201 536.130126 
L 42.613949 536.303616 
L 42.511762 536.207233 
L 41.891342 535.98555 
L 39.752717 535.031351 
L 37.920653 533.489212 
L 37.526504 533.016932 
L 36.891485 532.544652 
L 35.716337 532.284416 
L 34.205431 532.197671 
L 33.234656 531.619369 
L 29.884387 530.279635 
L 28.935509 530.048314 
L 28.059622 529.672418 
L 25.687427 528.139917 
L 24.848035 528.091725 
L 23.337129 526.298988 
L 22.796999 526.125498 
L 22.154681 526.192966 
L 21.760532 526.433926 
L 21.315289 526.395372 
L 20.526991 525.556834 
L 19.972262 524.57372 
L 19.98686 523.340009 
L 21.162009 522.434002 
L 21.526962 521.942445 
L 22.001401 521.055715 
L 22.541531 520.429221 
L 22.702111 519.937664 
L 23.227643 519.147318 
L 23.191148 518.819613 
L 23.395522 518.279865 
L 23.17655 518.164204 
L 22.687513 518.077459 
L 22.286064 517.903968 
L 21.658345 517.730478 
L 21.366383 517.344943 
L 21.446672 517.046153 
L 21.359084 516.747364 
L 22.103588 515.658228 
L 22.680214 515.099203 
L 23.154653 514.376325 
L 23.395522 513.798023 
L 24.096231 512.63178 
L 24.643661 511.369153 
L 24.913726 510.810128 
L 26.13267 509.383649 
L 26.570613 507.966809 
L 28.14721 506.231902 
L 28.950107 503.870502 
L 30.526704 502.068126 
L 30.891657 501.431994 
L 31.49018 501.017544 
L 32.212787 499.957323 
L 32.373367 499.465767 
L 32.256582 498.897103 
L 33.387936 497.393517 
L 33.811282 497.065812 
L 34.241926 496.506787 
L 34.957234 495.263437 
L 35.344085 494.752604 
L 35.672542 493.942981 
L 36.460841 492.82493 
L 37.022869 491.620133 
L 37.906055 490.473167 
L 37.964447 489.952695 
L 38.146924 489.412947 
L 39.161493 487.552741 
L 39.292877 487.311782 
L 39.146895 486.984078 
L 39.73082 486.039517 
L 40.146867 485.702174 
L 40.526418 484.420271 
L 40.832978 483.726309 
L 41.781856 482.35766 
L 42.161408 480.776967 
L 43.504435 479.234828 
L 45.066434 477.480645 
L 45.343798 476.613192 
L 45.971517 475.890314 
L 46.314573 475.215628 
L 46.57734 474.444558 
L 46.993386 473.760234 
L 47.212358 472.902419 
L 47.694096 472.256648 
L 47.876572 471.485579 
L 48.153937 470.859085 
L 48.964132 467.996489 
L 49.307188 467.379633 
L 50.000599 467.04229 
L 50.387449 466.676032 
L 50.496935 466.280859 
L 51.226841 465.307384 
L 51.599094 464.26644 
L 51.599094 463.765244 
L 52.102729 463.292964 
L 51.832663 463.13875 
L 51.927551 462.859238 
L 51.657486 462.521895 
L 51.693981 462.155637 
L 51.876458 461.943593 
L 51.883757 461.644803 
L 51.584495 460.565306 
L 51.78157 459.601469 
L 51.737776 459.408701 
L 51.971346 458.213543 
L 51.679383 458.040053 
L 51.825364 457.779817 
L 51.504206 457.191876 
L 51.847262 456.555744 
L 52.058934 456.40153 
L 52.818037 455.428055 
L 53.029709 454.473856 
L 53.547943 453.673871 
L 53.708522 453.018462 
L 54.044279 452.266669 
L 53.657429 451.379939 
L 54.613606 450.493209 
L 60.211986 444.016225 
L 60.868901 442.531916 
L 61.248452 442.021082 
L 61.175462 441.423503 
L 61.350639 440.247622 
L 61.722891 440.016301 
L 62.241125 440.08377 
L 61.825078 439.389807 
L 61.96376 439.129571 
L 62.007555 438.551269 
L 61.562312 438.493439 
L 61.350639 438.040435 
L 61.379835 437.346473 
L 62.409003 434.647729 
L 63.795825 432.941738 
L 64.284862 432.238137 
L 65.014768 431.495982 
L 65.77387 431.129724 
L 66.649757 428.180383 
L 68.518317 425.115381 
L 68.788382 424.276843 
L 69.518288 422.975663 
L 69.620475 422.262424 
L 69.919737 421.539546 
L 70.270092 421.038351 
L 70.722633 420.855222 
L 71.189773 419.419105 
L 71.423343 418.657673 
L 71.890483 417.992626 
L 72.45981 417.501069 
L 72.766371 416.884213 
L 73.248109 416.199889 
L 76.094742 413.722828 
L 76.145836 412.855375 
L 76.415901 412.238519 
L 77.868414 410.16627 
L 77.90491 409.722905 
L 79.153049 408.942197 
L 80.007039 408.412086 
L 80.554469 406.841032 
L 77.82462 408.363894 
L 77.547256 407.62174 
L 77.685938 407.255482 
L 79.342825 405.376 
L 80.218712 403.727838 
L 80.050833 403.313389 
L 81.204085 400.739944 
L 82.109169 399.911044 
L 83.89014 397.993008 
L 84.758728 396.055696 
L 84.568952 395.014752 
L 84.926606 394.07983 
L 86.109054 392.267817 
L 87.736745 391.014829 
L 88.488548 390.137737 
L 89.006781 389.357029 
L 89.539613 387.747421 
L 90.977528 386.369134 
L 92.298658 384.133032 
L 93.167246 382.513786 
L 93.488405 380.77888 
L 93.831461 379.94998 
L 96.021179 377.569303 
L 96.721889 376.094632 
L 98.101411 373.993467 
L 98.670738 373.260951 
L 99.225467 372.807948 
L 100.115952 371.593513 
L 100.422513 371.015211 
L 101.06483 370.379079 
L 101.663353 369.665839 
L 101.692549 369.183921 
L 102.042904 368.451405 
L 102.531942 368.114062 
L 102.999081 367.786357 
L 103.210754 367.497206 
L 103.466221 366.340602 
L 104.181529 365.010507 
L 104.56108 364.1045 
L 104.466193 363.15994 
L 104.261819 362.456339 
L 102.685222 361.184074 
L 100.05756 358.976887 
L 99.714504 358.36967 
L 99.729102 354.485407 
L 99.838588 353.93602 
L 101.590363 351.728833 
L 102.159689 351.237276 
L 102.93339 350.736081 
L 104.086642 349.550561 
L 105.239893 348.413234 
L 106.714303 345.984364 
L 107.619387 344.29765 
L 108.239807 342.803702 
L 108.539069 342.042271 
L 110.144862 339.237505 
L 110.736086 337.897772 
L 111.517086 336.509847 
L 113.385645 332.615945 
L 114.298028 330.69791 
L 116.568036 327.873867 
L 119.122707 325.040187 
L 120.918276 323.922136 
L 122.159117 323.411302 
L 123.45105 323.151066 
L 124.217452 323.083598 
L 125.494788 323.266727 
L 126.684535 323.314918 
L 127.983767 323.83539 
L 128.983739 324.481161 
L 129.560365 324.751036 
L 130.093196 325.126932 
L 131.866868 325.917278 
L 134.18067 326.630518 
L 134.888679 326.514857 
L 136.319295 326.418474 
L 137.589332 325.955832 
L 138.22435 325.724511 
L 139.968826 324.616098 
L 141.633012 323.353472 
L 142.618385 322.36072 
L 144.428552 319.565593 
L 144.99058 317.753579 
L 146.31171 315.218688 
L 148.187568 312.799457 
L 148.742297 312.25007 
L 152.056071 309.898308 
L 152.676491 309.609156 
L 155.756695 307.151372 
L 156.10705 306.708007 
L 157.03403 305.840554 
L 157.355189 305.406827 
L 159.924459 300.221384 
L 161.033916 296.732294 
L 161.23099 295.99014 
L 161.325878 293.754038 
L 161.223691 292.905861 
L 160.749252 291.431191 
L 159.150758 287.864994 
L 158.931786 286.332493 
L 159.05587 283.180746 
L 159.559505 281.715714 
L 159.90986 281.041028 
L 160.778449 279.865147 
L 161.114205 279.209738 
L 163.055756 276.59774 
L 164.048428 275.498965 
L 166.464417 273.590568 
L 168.354874 272.347218 
L 170.646779 270.67978 
L 171.559162 269.860519 
L 171.997106 268.568977 
L 172.471544 267.306351 
L 172.566432 266.159385 
L 172.770806 265.590721 
L 172.734311 264.925674 
L 172.478844 263.566663 
L 172.464245 262.959446 
L 173.486114 259.161928 
L 174.661263 255.884883 
L 174.99702 255.219835 
L 175.237889 253.793356 
L 175.486057 252.4729 
L 175.756122 251.046421 
L 175.916701 250.419927 
L 176.186767 249.831986 
L 176.807187 247.470586 
L 177.814457 245.600742 
L 178.850924 243.181511 
L 180.675689 239.827358 
L 181.726754 238.555094 
L 183.595314 236.704527 
L 184.215734 236.116586 
L 185.310593 234.844321 
L 187.660891 232.463644 
L 188.551376 231.162464 
L 189.354273 229.70707 
L 193.376055 221.109644 
L 195.996418 216.57961 
L 197.259156 214.835065 
L 198.441604 213.890505 
L 199.828425 213.051967 
L 202.083835 211.885724 
L 203.711526 211.326699 
L 205.251628 210.835142 
L 207.470542 210.31467 
L 208.996046 210.391777 
L 213.390081 211.162846 
L 215.565201 211.230315 
L 217.499452 210.815865 
L 218.981162 210.083349 
L 219.586984 209.639984 
L 221.0176 208.06893 
L 221.973777 206.893049 
L 222.630692 205.46657 
L 223.470084 204.088283 
L 224.404364 202.681081 
L 226.046653 199.799208 
L 227.499166 197.032996 
L 228.448044 195.616156 
L 229.542903 193.669205 
L 230.586669 191.674062 
L 231.331173 190.401798 
L 232.915069 187.49101 
L 232.995359 187.009091 
L 233.542788 186.180192 
L 234.221601 185.707911 
L 236.148553 182.054969 
L 236.389422 181.418837 
L 240.199532 175.13462 
L 240.703167 174.392465 
L 240.885644 173.698503 
L 241.783428 172.281662 
L 242.403848 170.672054 
L 242.85639 169.881708 
L 243.695782 167.539584 
L 245.921996 163.973387 
L 246.98036 161.70837 
L 247.454799 160.166231 
L 247.659172 159.337331 
L 247.593481 157.621702 
L 247.615378 155.906072 
L 247.724864 151.356761 
L 248.228499 148.667656 
L 248.586153 146.865281 
L 248.958405 143.434021 
L 248.432873 141.814775 
L 248.002228 141.034067 
L 247.688369 140.156975 
L 245.454856 136.291989 
L 245.213987 135.453451 
L 245.19209 133.747459 
L 245.630033 131.819785 
L 246.228556 130.055964 
L 247.710266 126.682534 
L 248.600751 124.957266 
L 250.586096 121.815157 
L 252.177291 119.820015 
L 256.199074 115.11649 
L 258.549371 112.677983 
L 261.250024 109.487682 
L 261.666071 108.755166 
L 262.206201 107.155197 
L 262.36678 105.526312 
L 262.344883 103.907066 
L 262.089416 101.410728 
L 262.096715 99.733652 
L 262.242696 98.095129 
L 263.972574 88.553143 
L 264.461611 87.107388 
L 265.220713 85.844761 
L 266.527245 84.129131 
L 267.505319 83.059272 
L 268.695066 82.162904 
L 271.293532 80.842447 
L 272.446784 79.849695 
L 273.56354 78.596707 
L 274.286147 77.131675 
L 274.34454 76.283498 
L 274.220456 75.367853 
L 273.972287 74.538953 
L 273.56354 73.738968 
L 272.892026 73.131751 
L 272.103728 72.649833 
L 271.293532 72.379958 
L 270.395748 72.225744 
L 269.512561 72.245021 
L 267.870272 72.717301 
L 266.286376 73.536563 
L 264.928751 74.567868 
L 263.447041 75.608812 
L 262.673341 75.984709 
L 260.979959 76.312413 
L 260.082174 76.254583 
L 259.344969 75.984709 
L 258.688054 75.541344 
L 258.089531 74.905211 
L 257.622391 74.240164 
L 257.272036 73.546201 
L 257.169849 72.72694 
L 257.31583 71.213716 
L 257.563998 70.481199 
L 258.374194 69.276403 
L 260.403333 66.75115 
L 264.308331 61.209088 
L 265.118526 59.744055 
L 266.819208 55.801962 
L 267.359338 53.556222 
L 267.417731 51.956253 
L 267.315544 51.214098 
L 266.483451 49.228594 
L 265.592965 48.014159 
L 264.147751 46.308168 
L 261.410603 43.908214 
L 258.549371 41.932348 
L 256.892485 41.084171 
L 253.016683 39.85046 
L 249.69561 39.137221 
L 248.681041 39.060114 
L 246.608108 38.645664 
L 245.133697 38.337236 
L 242.652016 37.874594 
L 241.593653 38.048085 
L 240.659373 38.452896 
L 238.403963 40.129973 
L 237.294506 41.893794 
L 237.031739 42.809439 
L 236.849263 44.255195 
L 236.914955 45.219032 
L 237.447786 46.982854 
L 238.075505 47.493687 
L 238.462355 47.667178 
L 239.506121 48.611738 
L 240.148439 48.920166 
L 241.586354 49.238232 
L 242.367353 49.643044 
L 243.819866 50.153877 
L 244.155623 50.414113 
L 245.089903 50.867117 
L 245.381865 51.358674 
L 245.761416 51.705655 
L 246.148267 52.303234 
L 246.732192 53.970672 
L 247.462098 59.522373 
L 248.848919 64.274089 
L 248.951106 66.625851 
L 248.60805 68.187267 
L 248.418275 68.967975 
L 247.702967 70.558306 
L 246.827079 71.975147 
L 245.783314 73.25705 
L 241.776129 76.302775 
L 236.768973 78.153342 
L 235.23617 79.068987 
L 233.958835 80.418359 
L 232.433331 82.741206 
L 231.922397 84.389367 
L 231.696126 85.218267 
L 231.010014 86.654384 
L 230.134127 88.003756 
L 229.601295 88.601335 
L 228.265567 89.497703 
L 226.988231 90.162751 
L 224.995588 90.895267 
L 223.491981 91.492846 
L 222.229244 91.994041 
L 220.93731 92.659089 
L 219.652675 93.372328 
L 218.470227 94.297611 
L 216.411892 96.13854 
L 214.973977 97.671041 
L 214.192977 98.818007 
L 213.032427 100.495083 
L 212.375511 101.81554 
L 210.901101 104.764881 
L 210.44126 105.960039 
L 209.777046 107.116643 
L 209.295307 108.774443 
L 208.791672 109.969601 
L 208.280738 111.078013 
L 207.56543 112.938219 
L 205.601983 116.234541 
L 204.346544 117.689935 
L 202.835638 118.991115 
L 201.26634 119.993506 
L 200.813799 120.20555 
L 199.726238 120.513978 
L 197.091277 123.33802 
L 196.288381 125.11148 
L 195.667961 127.039154 
L 195.332204 132.224597 
L 195.587671 133.86312 
L 195.470886 135.684772 
L 194.777475 137.323295 
L 193.894289 138.817242 
L 193.522037 139.164223 
L 192.646149 139.848548 
L 191.660776 140.725639 
L 187.916358 142.537653 
L 185.982106 143.279807 
L 182.996791 144.773755 
L 182.201193 145.361695 
L 180.551605 146.344809 
L 178.894718 147.742372 
L 177.537093 149.245958 
L 175.318178 152.214576 
L 171.953311 158.508432 
L 171.471573 160.889109 
L 171.2599 162.498717 
L 171.216106 165.55408 
L 171.551863 168.281739 
L 172.887591 173.264776 
L 173.74888 176.011711 
L 173.989749 178.353835 
L 173.90216 180.165849 
L 173.581002 181.274261 
L 172.872993 182.980253 
L 172.456946 183.973005 
L 171.274498 186.257299 
L 169.960667 188.522316 
L 169.595714 188.859658 
L 168.603042 190.382521 
L 167.68336 191.211421 
L 166.741782 192.127066 
L 165.187082 193.553545 
L 164.668848 193.861972 
L 163.588587 194.835448 
L 160.858738 196.888421 
L 159.36973 198.613689 
L 158.187282 200.512448 
L 157.530367 202.642527 
L 157.2676 204.203943 
L 157.282198 212.271259 
L 156.88075 213.80376 
L 156.245732 215.259154 
L 155.829685 216.059138 
L 154.304182 218.141026 
L 153.654565 218.613306 
L 153.180126 219.172332 
L 150.048829 221.765053 
L 145.070869 226.661345 
L 144.158487 227.846865 
L 142.669478 229.803454 
L 142.173142 230.295011 
L 138.954256 234.747938 
L 137.713416 236.097309 
L 135.173343 238.641839 
L 132.421597 240.781557 
L 130.545738 242.304419 
L 129.83043 242.709231 
L 129.304897 243.200788 
L 128.034861 244.19354 
L 126.859712 245.147739 
L 125.465591 246.921199 
L 124.334237 248.656105 
L 123.414555 250.333182 
L 123.107995 251.027144 
L 121.013164 254.275275 
L 120.57522 255.692115 
L 120.516828 256.125842 
L 119.947501 256.887273 
L 119.560651 257.639066 
L 118.502287 259.431803 
L 117.604503 260.347448 
L 117.39283 260.790813 
L 115.225009 262.593188 
L 113.721402 263.007638 
L 112.34188 263.036553 
L 110.838273 262.467889 
L 109.969685 261.841395 
L 108.429583 261.195624 
L 107.188742 260.540215 
L 104.539183 259.479995 
L 103.597604 258.766755 
L 102.181587 258.583626 
L 101.305699 258.188453 
L 100.13055 258.092069 
L 99.12328 257.639066 
L 98.028421 257.031849 
L 96.94816 256.260779 
L 95.78031 255.518625 
L 95.189086 255.335496 
L 93.700078 254.574064 
L 92.079686 253.880102 
L 91.26949 253.070479 
L 89.320641 252.511453 
L 88.685623 252.077727 
L 88.276875 251.489786 
L 88.072502 250.8151 
L 86.510503 249.542835 
L 84.109111 248.704297 
L 83.240523 247.952504 
L 82.663897 247.692268 
L 81.8683 247.79829 
L 80.729646 247.306733 
L 79.196843 246.506749 
L 78.160377 246.08266 
L 77.518059 245.687487 
L 76.948733 245.060993 
L 73.853931 242.930914 
L 73.284604 242.555017 
L 69.240924 240.926133 
L 68.700794 240.723727 
L 67.992785 239.779167 
L 68.33584 239.056289 
L 68.788382 238.429795 
L 68.978158 237.649087 
L 69.89054 235.750328 
L 71.313857 233.784101 
L 73.452482 230.719099 
L 74.350267 229.090214 
L 74.299173 228.839617 
L 74.087501 228.560104 
L 74.036407 228.299868 
L 73.963417 228.415528 
L 73.613062 228.338422 
L 73.277305 228.116739 
L 73.277305 228.116739 
L 72.985342 227.99144 
L 73.021838 227.923972 
L 73.16052 227.923972 
L 73.051034 227.981802 
L 73.051034 227.981802 
L 73.08023 228.222761 
L 73.014539 228.213123 
L 72.707978 227.952887 
L 72.875856 227.81795 
L 72.912352 227.789034 
L 72.934249 227.557714 
L 72.868557 227.943248 
L 72.700679 228.801063 
L 72.700679 228.801063 
L 72.919651 228.916724 
L 72.124053 228.396252 
L 72.160548 228.328783 
L 72.153249 228.550466 
L 72.270034 228.579381 
L 72.262735 228.579381 
L 72.284633 228.222761 
L 72.423315 228.280591 
L 72.364922 228.299868 
L 72.437913 228.608296 
L 72.532801 228.791425 
L 72.532801 228.791425 
L 72.686081 228.839617 
L 72.686081 228.839617 
L 72.802866 228.685403 
L 72.729875 228.637211 
L 72.583894 228.550466 
L 72.561997 228.637211 
L 72.744473 228.868532 
L 72.678782 228.656488 
L 72.69338 228.492635 
L 72.788268 228.723956 
L 73.036436 228.646849 
L 73.218912 228.46372 
L 73.175118 228.454082 
L 73.255408 228.367337 
L 73.021838 228.328783 
L 73.167819 228.232399 
L 73.408688 228.174569 
L 73.496277 227.99144 
L 74.452454 226.998688 
L 75.269948 225.63004 
L 75.598406 225.27342 
L 75.904967 224.762586 
L 76.072845 224.213199 
L 77.094714 222.526484 
L 77.423172 222.237333 
L 77.525358 221.803607 
L 78.700507 220.36749 
L 79.094656 219.750634 
L 79.547198 218.468731 
L 80.174918 217.514532 
L 80.642057 217.148274 
L 81.145693 215.095301 
L 81.131095 214.420615 
L 81.371964 213.610992 
L 82.700393 211.78934 
L 82.868271 211.124293 
L 82.897467 210.3725 
L 83.043449 209.717091 
L 85.255064 205.244887 
L 85.758699 204.840076 
L 85.787895 204.358157 
L 85.963073 203.885877 
L 86.335325 203.22083 
L 87.503175 201.929288 
L 87.787838 201.196772 
L 88.32067 200.6763 
L 89.291445 198.951032 
L 89.802379 197.996833 
L 90.225725 196.763122 
L 90.619874 196.35831 
L 90.955631 195.336643 
L 92.349751 193.466799 
L 93.284031 192.474047 
L 93.386218 191.683701 
L 93.575994 191.211421 
L 94.510273 190.604203 
L 94.422685 190.334329 
L 94.787638 189.73675 
L 94.970114 189.177725 
L 96.568609 186.613918 
L 97.123337 185.438037 
L 97.378804 184.811543 
L 99.35685 182.074246 
L 99.89698 180.81162 
L 101.772839 176.946633 
L 102.291072 176.445438 
L 104.203426 173.332245 
L 104.816548 172.223832 
L 105.203398 171.70336 
L 105.772725 171.500954 
L 107.349322 171.809382 
L 108.349293 172.031065 
L 108.692349 171.973234 
L 110.444124 172.840688 
L 110.684993 172.802134 
L 110.663096 172.831049 
L 110.677694 172.879241 
L 110.539011 172.435876 
L 110.648497 172.47443 
L 110.78718 172.512983 
L 110.655796 172.53226 
" clip-path="url(#pceff004e59)" style="fill: none; stroke: #000000; stroke-width: 3"/>
   </g>
  </g>
 </g>
 <defs>
  <clipPath id="pceff004e59">
   <rect x="7.2" y="7.2" width="279.865708" height="554.4"/>
  </clipPath>
 </defs>
</svg>
