<?xml version="1.0" encoding="utf-8" standalone="no"?>
<!DOCTYPE svg PUBLIC "-//W3C//DTD SVG 1.1//EN"
  "http://www.w3.org/Graphics/SVG/1.1/DTD/svg11.dtd">
<svg xmlns:xlink="http://www.w3.org/1999/xlink" width="503.368322pt" height="568.8pt" viewBox="0 0 503.368322 568.8" xmlns="http://www.w3.org/2000/svg" version="1.1">
 <metadata>
  <rdf:RDF xmlns:dc="http://purl.org/dc/elements/1.1/" xmlns:cc="http://creativecommons.org/ns#" xmlns:rdf="http://www.w3.org/1999/02/22-rdf-syntax-ns#">
   <cc:Work>
    <dc:type rdf:resource="http://purl.org/dc/dcmitype/StillImage"/>
    <dc:date>2023-07-08T05:02:57.008326</dc:date>
    <dc:format>image/svg+xml</dc:format>
    <dc:creator>
     <cc:Agent>
      <dc:title>Matplotlib v3.7.2, https://matplotlib.org/</dc:title>
     </cc:Agent>
    </dc:creator>
   </cc:Work>
  </rdf:RDF>
 </metadata>
 <defs>
  <style type="text/css">*{stroke-linejoin: round; stroke-linecap: butt}</style>
 </defs>
 <g id="figure_1">
  <g id="patch_1">
   <path d="M 0 568.8 
L 503.368322 568.8 
L 503.368322 0 
L 0 0 
z
" style="fill: #ffffff"/>
  </g>
  <g id="axes_1">
   <g id="LineCollection_1">
    <path d="M 131.855259 445.583093 
L 132.408599 446.178613 
L 133.105398 446.611719 
L 133.843185 446.855341 
L 136.917297 447.423793 
L 137.98299 447.20724 
L 140.052892 447.234309 
L 141.159572 447.748622 
L 142.163782 448.398281 
L 143.147498 448.723111 
L 144.930484 449.778807 
L 145.791235 450.563811 
L 146.672481 451.132263 
L 148.332501 452.621065 
L 150.812285 455.652806 
L 152.431318 457.331092 
L 155.034066 459.604898 
L 155.9563 460.17335 
L 158.620531 460.47111 
L 162.78083 461.0937 
L 163.805534 461.472668 
L 164.850732 461.526806 
L 165.875436 461.445599 
L 169.748818 462.717847 
L 171.634274 463.963027 
L 173.130342 465.560105 
L 174.749374 467.698566 
L 175.343703 468.294087 
L 177.762004 470.161856 
L 178.274356 470.6491 
L 180.118824 473.410151 
L 181.000069 475.169644 
L 181.901809 476.441893 
L 182.10675 477.253966 
L 182.10675 478.905183 
L 181.717362 481.530888 
L 181.819833 483.155035 
L 182.024774 485.15815 
L 182.250208 486.376261 
L 183.766771 490.978012 
L 184.279123 491.844224 
L 184.914439 492.629228 
L 188.213987 495.606832 
L 189.03375 496.067007 
L 190.673276 497.312186 
L 192.374285 498.313744 
L 193.317013 498.638574 
L 195.345927 499.558924 
L 196.432114 499.99203 
L 197.477312 500.262721 
L 201.637611 500.614619 
L 202.764785 500.695827 
L 203.748501 501.020656 
L 205.592969 502.022214 
L 206.617673 502.401182 
L 208.708069 502.807218 
L 210.695995 503.050841 
L 218.85264 503.754638 
L 220.75859 504.268951 
L 227.193732 507.787937 
L 229.509563 509.655707 
L 230.718714 511.171577 
L 232.194288 513.445384 
L 233.546898 516.314711 
L 234.202708 518.209549 
L 235.329883 522.134572 
L 235.678282 522.8113 
L 236.190634 523.352683 
L 237.010398 523.866996 
L 238.97783 524.435448 
L 239.941052 524.922692 
L 240.965756 525.139245 
L 241.785519 525.193383 
L 242.605282 525.518213 
L 245.167043 525.978388 
L 246.888546 526.628047 
L 249.778211 528.06271 
L 250.597975 528.739438 
L 251.438232 529.037199 
L 254.184439 529.443235 
L 255.127167 529.443235 
L 256.008413 529.578581 
L 256.766694 529.93048 
L 257.565963 530.147033 
L 259.594877 531.256867 
L 263.22233 534.261539 
L 265.169268 535.127751 
L 265.989031 535.317235 
L 267.976957 536.318793 
L 268.919685 536.4 
L 269.841918 535.939825 
L 271.645398 535.398442 
L 272.690596 535.073613 
L 274.780992 534.017917 
L 275.867179 533.638949 
L 276.850895 533.097567 
L 277.957575 532.664461 
L 280.170936 532.177217 
L 281.380087 532.339632 
L 282.240839 532.339632 
L 283.20406 532.014802 
L 285.622362 530.336516 
L 286.421631 529.93048 
L 288.942404 529.822203 
L 291.217247 530.092894 
L 292.344421 530.471862 
L 294.619265 531.067383 
L 298.000788 531.960664 
L 299.927232 532.096009 
L 300.992924 532.447908 
L 302.181581 532.718599 
L 306.075457 534.072055 
L 308.083877 534.017917 
L 312.756528 532.935152 
L 313.658268 532.664461 
L 315.338782 531.852387 
L 316.957815 530.471862 
L 319.232658 529.280821 
L 321.036137 528.306332 
L 323.700368 526.384425 
L 325.237424 525.112176 
L 325.872741 524.67907 
L 326.487563 524.05648 
L 328.188572 520.997669 
L 329.23377 518.913347 
L 331.385649 513.770213 
L 332.369365 510.17002 
L 333.660492 506.651034 
L 334.234327 504.052398 
L 334.418773 502.969633 
L 334.746679 501.751523 
L 335.791877 499.99203 
L 336.468182 499.261163 
L 336.980534 498.286675 
L 338.189685 496.716666 
L 338.804507 495.904592 
L 339.255377 495.065449 
L 340.853915 491.32991 
L 341.735161 489.435072 
L 344.153463 484.752113 
L 345.157673 482.911413 
L 346.571765 480.366916 
L 347.616963 478.878114 
L 349.031054 476.360685 
L 350.076253 474.330501 
L 350.691075 473.383082 
L 351.387874 472.543939 
L 351.879732 471.542381 
L 352.453566 470.6491 
L 353.109377 469.918234 
L 355.138291 466.64287 
L 356.265466 464.666824 
L 357.126217 462.582502 
L 359.585507 457.547645 
L 362.413691 452.485719 
L 362.844066 452.025544 
L 363.581853 450.726226 
L 364.627052 449.426908 
L 366.246084 446.90948 
L 367.373259 444.987572 
L 368.500433 443.173941 
L 369.730078 441.468586 
L 370.939229 438.680466 
L 372.763202 434.890789 
L 373.60346 433.239572 
L 375.017551 430.559729 
L 375.468421 429.666448 
L 376.984983 427.365573 
L 377.989194 425.741425 
L 380.53046 418.947076 
L 381.739611 415.509297 
L 382.743821 413.831011 
L 384.567794 411.503067 
L 386.043368 409.148053 
L 386.822143 407.280284 
L 387.498448 405.520791 
L 388.441176 403.788367 
L 391.248865 397.129362 
L 392.253075 395.017971 
L 394.015566 391.120017 
L 395.183729 388.196552 
L 395.634599 386.274644 
L 396.597821 383.378248 
L 396.741279 382.322552 
L 396.782267 381.023234 
L 397.540549 376.52976 
L 397.581537 374.012331 
L 397.315114 371.386627 
L 397.151161 370.628691 
L 397.192149 369.979032 
L 397.110173 369.058682 
L 397.786478 362.670369 
L 398.093889 361.533466 
L 398.544759 360.261217 
L 399.651439 356.552747 
L 400.102309 354.576701 
L 400.901578 351.111853 
L 401.188495 348.810978 
L 401.127013 345.075439 
L 400.922072 342.828702 
L 399.753909 338.55178 
L 399.344028 336.873495 
L 398.729205 335.249347 
L 397.786478 333.679338 
L 396.433868 332.136398 
L 394.9378 330.620527 
L 393.544202 328.07603 
L 392.294063 326.857919 
L 391.556276 326.668435 
L 390.777501 325.964638 
L 389.46588 324.232214 
L 389.11748 323.555486 
L 388.953528 322.716344 
L 389.219951 320.496675 
L 389.650327 318.141662 
L 391.802205 308.911091 
L 392.642463 306.853837 
L 393.359756 304.823653 
L 393.626179 303.822096 
L 395.982998 298.651893 
L 397.602031 295.620151 
L 403.565809 284.305258 
L 405.77917 281.246447 
L 408.320436 278.241775 
L 410.738738 274.614512 
L 411.312572 274.07313 
L 412.480735 273.423471 
L 413.648898 271.799323 
L 414.960519 270.256383 
L 416.27214 268.578098 
L 426.765111 257.506826 
L 428.814519 255.55785 
L 430.228611 254.01491 
L 436.110412 247.464182 
L 438.200809 244.026403 
L 439.553418 240.913454 
L 440.024782 238.856201 
L 440.229723 236.71774 
L 440.147747 234.741694 
L 439.717371 231.249777 
L 439.041066 228.542865 
L 438.036856 219.799538 
L 438.098338 217.471594 
L 438.200809 215.41434 
L 438.180315 214.385714 
L 437.934386 212.409668 
L 437.995868 209.486202 
L 438.364762 207.726709 
L 440.209229 200.932359 
L 440.803557 195.518535 
L 441.254427 194.381632 
L 443.098895 189.400913 
L 444.820398 183.662259 
L 446.828818 179.62896 
L 447.915004 178.08602 
L 448.939708 176.434803 
L 450.702199 174.431688 
L 452.095797 173.024094 
L 453.71483 171.399946 
L 454.514099 170.723218 
L 458.510445 168.259928 
L 459.248232 167.5832 
L 460.764794 166.879403 
L 462.445309 165.931983 
L 467.015489 163.766454 
L 470.212566 161.492647 
L 471.790611 160.193329 
L 472.343951 159.624878 
L 472.794821 158.975219 
L 473.471125 157.351071 
L 473.737548 156.538998 
L 473.942489 154.860712 
L 473.860513 153.047081 
L 473.676066 151.991385 
L 472.979267 149.934132 
L 472.548892 149.013782 
L 471.462705 147.416703 
L 470.13059 146.333938 
L 469.556756 145.603072 
L 468.839463 145.007551 
L 468.060688 144.628584 
L 464.556199 144.005994 
L 462.465803 143.681164 
L 461.441099 143.491681 
L 459.28922 143.410473 
L 455.559297 143.924787 
L 454.801016 144.303754 
L 453.222972 145.35945 
L 452.36222 145.738418 
L 450.661211 146.875321 
L 449.083167 148.012224 
L 447.669075 149.419818 
L 446.808324 149.879994 
L 446.091031 150.475514 
L 445.496702 150.773275 
L 444.840892 151.23345 
L 444.246563 151.260519 
L 443.570259 151.585348 
L 443.016918 152.180869 
L 441.049486 153.588463 
L 439.184525 154.238122 
L 438.118833 154.427606 
L 437.032646 154.102777 
L 436.069424 153.453118 
L 435.085708 153.101219 
L 434.163475 152.505698 
L 433.446182 151.612417 
L 431.888631 148.526537 
L 431.13035 147.443772 
L 430.413057 146.063247 
L 429.777741 144.033063 
L 428.404637 141.461496 
L 428.056238 141.02839 
L 427.830803 140.351662 
L 427.502898 138.619238 
L 427.441415 137.834234 
L 427.523392 136.995091 
L 427.461909 135.560428 
L 427.584874 134.667146 
L 427.810309 134.017488 
L 428.281673 133.31369 
L 429.285883 132.339202 
L 430.310587 131.608336 
L 430.822939 131.391783 
L 433.200253 128.874354 
L 434.962744 126.708824 
L 436.356341 125.220023 
L 438.098338 123.000354 
L 439.389466 120.997239 
L 440.06577 120.131027 
L 441.008498 118.317396 
L 442.094685 116.503765 
L 443.221859 114.771341 
L 446.480418 107.7063 
L 446.972276 106.488189 
L 447.361664 105.8656 
L 447.730557 105.649047 
L 448.201921 105.161802 
L 449.390578 103.212826 
L 449.779966 102.752651 
L 450.087377 101.940577 
L 450.415282 101.426263 
L 450.968622 99.883323 
L 451.542457 98.313314 
L 453.304948 94.090531 
L 453.837794 92.168623 
L 454.145205 91.95207 
L 454.493605 91.897932 
L 454.780522 91.518964 
L 455.046945 90.788098 
L 455.005957 89.678264 
L 454.637063 88.054117 
L 454.350146 87.377389 
L 454.001747 87.296181 
L 453.489395 87.566873 
L 453.100007 87.296181 
L 452.218761 85.590827 
L 450.435776 84.480993 
L 449.90293 84.210301 
L 449.329096 83.614781 
L 448.919214 82.829776 
L 447.89451 81.449251 
L 447.279688 81.016145 
L 446.521406 80.312348 
L 445.209785 79.364928 
L 444.000634 78.011472 
L 442.750495 76.306117 
L 434.778297 68.889178 
L 433.220747 68.943316 
L 432.441972 69.241076 
L 431.58122 68.835039 
L 430.802445 68.21245 
L 428.630072 65.938643 
L 427.584874 63.746044 
L 426.478193 62.230173 
L 425.924853 62.01362 
L 424.162362 60.281197 
L 423.445069 60.037575 
L 419.776628 57.466008 
L 418.321549 56.112552 
L 417.665738 55.706515 
L 417.091904 54.515473 
L 416.497575 53.784607 
L 415.7188 53.216156 
L 414.981013 53.7034 
L 414.181744 53.622192 
L 413.382475 53.405639 
L 411.906901 53.838745 
L 410.328856 54.217713 
L 408.504883 53.568054 
L 407.500673 52.864257 
L 406.639921 51.998045 
L 405.861146 51.53787 
L 405.123359 50.91528 
L 404.42656 50.563381 
L 403.012469 49.399409 
L 402.31567 48.424921 
L 400.594167 46.638359 
L 399.057111 45.718008 
L 398.155371 45.176626 
L 397.29462 44.797658 
L 396.536338 44.256276 
L 395.532128 43.877308 
L 394.609895 43.850239 
L 393.646673 43.417133 
L 392.642463 42.442645 
L 391.740723 41.9554 
L 390.92096 41.278672 
L 390.039714 40.845566 
L 387.211531 38.652967 
L 386.45325 38.544691 
L 385.592498 38.138654 
L 384.813723 37.624341 
L 384.178407 36.839336 
L 383.727537 35.891917 
L 382.866785 33.293281 
L 382.374927 32.670691 
L 381.780599 32.4 
L 381.206765 33.32035 
L 380.571448 34.078286 
L 379.505756 36.189677 
L 376.411149 43.769032 
L 375.878303 45.36611 
L 374.382235 51.862699 
L 373.337037 60.49775 
L 373.460001 63.042247 
L 374.300259 65.261915 
L 374.628164 66.804855 
L 375.181504 68.022966 
L 375.980773 69.376422 
L 376.226702 70.67574 
L 376.636584 71.650228 
L 377.845735 72.191611 
L 378.419569 72.787131 
L 379.034392 72.814201 
L 379.62872 73.111961 
L 380.899353 74.05938 
L 383.09222 75.223352 
L 383.830007 75.331629 
L 386.863131 76.739223 
L 387.723883 76.901638 
L 390.224161 77.76785 
L 391.843193 78.606993 
L 393.175309 79.229583 
L 394.220507 79.906311 
L 394.691871 80.041656 
L 395.327188 80.420624 
L 396.04448 81.232698 
L 396.823256 81.801149 
L 398.114383 83.479435 
L 398.524264 84.426854 
L 398.872664 86.863075 
L 400.122803 90.354992 
L 400.532685 93.359665 
L 400.430214 94.74019 
L 400.368732 96.337268 
L 400.450708 98.177969 
L 400.184285 99.856254 
L 399.85638 101.317987 
L 399.815392 101.967646 
L 400.040827 104.241452 
L 400.061321 105.188872 
L 400.225273 106.028014 
L 400.102309 106.78595 
L 400.040827 107.922853 
L 400.020333 109.384586 
L 400.389226 111.929083 
L 401.004049 112.849433 
L 401.434424 113.472023 
L 402.192705 115.610484 
L 402.582093 118.615157 
L 402.725551 121.186723 
L 402.541105 122.188281 
L 401.76233 124.868124 
L 401.31146 126.51934 
L 401.249978 127.520898 
L 400.696637 130.471432 
L 400.594167 131.554197 
L 400.163791 132.555755 
L 399.385016 135.370944 
L 398.995628 137.617681 
L 397.315114 139.918556 
L 396.433868 141.596842 
L 395.470646 142.950298 
L 394.999282 143.599957 
L 394.445942 144.033063 
L 393.749143 144.357892 
L 392.437522 145.386519 
L 391.802205 146.063247 
L 391.146395 146.550491 
L 390.039714 147.849809 
L 389.588844 148.661883 
L 388.051788 150.340169 
L 385.776945 150.989828 
L 384.424336 151.991385 
L 383.911983 152.505698 
L 382.53888 153.561394 
L 381.862575 154.238122 
L 381.391211 155.023127 
L 380.858365 155.564509 
L 380.059096 155.699855 
L 379.259827 155.564509 
L 378.52204 154.752436 
L 377.640794 154.725367 
L 376.800537 154.860712 
L 376.001267 154.292261 
L 375.079034 154.048638 
L 374.341247 153.9945 
L 371.820475 155.456233 
L 369.955513 156.647274 
L 368.23401 158.054869 
L 365.610767 161.032472 
L 364.852486 162.223514 
L 364.258158 163.468693 
L 362.249738 169.857006 
L 360.733176 174.648241 
L 358.642779 178.519126 
L 358.39685 179.601891 
L 357.474617 181.550867 
L 356.982759 182.444148 
L 356.490901 183.581052 
L 355.794102 184.474333 
L 355.076809 185.17813 
L 352.863448 186.883485 
L 350.055759 190.591954 
L 348.580185 192.053687 
L 347.104611 192.974037 
L 346.264353 193.434212 
L 344.747791 194.489908 
L 343.846052 194.895945 
L 341.161327 197.007337 
L 340.280081 197.467512 
L 338.558578 197.981825 
L 336.652628 198.306654 
L 333.988398 199.199936 
L 332.799741 199.308212 
L 330.258475 199.822525 
L 328.454995 200.093217 
L 327.594244 200.336839 
L 326.22114 201.121843 
L 324.930013 201.771502 
L 322.921593 203.07082 
L 321.405031 203.909963 
L 320.708232 204.370138 
L 319.908963 204.749106 
L 319.048211 205.019797 
L 317.408685 205.85894 
L 315.933111 206.941705 
L 311.301448 209.432064 
L 310.645637 210.081723 
L 309.579945 211.516386 
L 308.473265 212.896912 
L 305.604093 217.336248 
L 303.534191 220.422128 
L 301.279841 225.186294 
L 300.951936 226.133713 
L 300.583043 226.783372 
L 300.091185 227.405962 
L 299.291915 228.813556 
L 298.800057 229.436146 
L 297.734365 231.520468 
L 296.463732 234.714625 
L 295.889898 236.284634 
L 295.602981 236.961362 
L 295.111123 239.370514 
L 294.352841 241.779666 
L 293.553572 243.078984 
L 293.225667 243.755712 
L 292.241951 247.031076 
L 291.545152 248.790569 
L 290.540942 250.252301 
L 289.393273 251.389205 
L 288.491534 252.742661 
L 288.204617 253.500596 
L 287.917699 255.341297 
L 287.01596 256.803029 
L 286.380643 257.371481 
L 285.253469 258.806144 
L 284.864081 259.807702 
L 283.265543 262.974789 
L 282.896649 263.86807 
L 281.667004 266.196015 
L 280.970205 267.90137 
L 280.027478 269.227757 
L 278.777339 270.066899 
L 277.486211 270.202245 
L 276.031131 271.041388 
L 274.514569 272.042945 
L 272.178244 273.342263 
L 270.620694 274.560374 
L 269.964883 275.155895 
L 269.329566 275.886761 
L 268.571285 276.455212 
L 266.193972 276.942457 
L 265.415197 277.348493 
L 262.382072 280.677996 
L 261.111439 282.491627 
L 260.373652 284.440604 
L 259.963771 286.660272 
L 259.738336 287.715968 
L 259.389936 288.582179 
L 257.975844 293.50876 
L 256.561753 296.838262 
L 256.274836 297.677405 
L 255.39359 301.791911 
L 254.901732 303.253644 
L 254.655803 304.769515 
L 254.471356 306.177109 
L 254.819756 309.831441 
L 255.537049 314.081293 
L 255.475566 318.49356 
L 255.024697 322.256168 
L 254.28691 323.853247 
L 252.975288 326.127053 
L 251.540702 329.700177 
L 250.597975 331.026564 
L 249.040424 332.894334 
L 248.487084 333.219163 
L 247.236945 334.653827 
L 244.44975 335.141071 
L 242.400342 336.115559 
L 241.847001 336.71108 
L 238.465478 338.87661 
L 237.543244 339.201439 
L 230.759702 342.639218 
L 227.972507 344.777679 
L 227.193732 345.264923 
L 226.476439 345.914582 
L 223.340845 347.755282 
L 221.598847 348.648563 
L 218.565723 349.758397 
L 217.684478 350.29978 
L 216.782738 350.705817 
L 212.478981 353.412729 
L 210.941924 354.576701 
L 209.671291 355.767743 
L 208.421152 356.823438 
L 206.45372 358.718277 
L 205.982356 359.503282 
L 205.674945 360.450701 
L 205.531487 361.39812 
L 205.224075 362.31847 
L 204.691229 363.076406 
L 202.908244 364.862968 
L 201.309705 366.676599 
L 200.797353 367.326258 
L 198.665969 369.058682 
L 198.112629 369.789548 
L 197.436324 370.330931 
L 197.149407 371.197143 
L 196.432114 372.685944 
L 195.61235 375.446995 
L 195.345927 377.368903 
L 195.018022 378.099769 
L 194.157271 379.344949 
L 192.845649 381.483409 
L 190.345371 387.140856 
L 190.078948 388.088275 
L 189.710055 388.954487 
L 188.890291 391.688469 
L 188.213987 393.393824 
L 188.050034 394.287105 
L 187.394223 403.463537 
L 187.312247 404.356818 
L 187.394223 405.358376 
L 187.353235 406.278726 
L 188.050034 411.340652 
L 188.357445 412.829454 
L 188.787821 413.803942 
L 189.054244 414.697223 
L 189.279679 418.4869 
L 191.431558 428.881444 
L 192.702191 431.967324 
L 193.808871 436.839766 
L 193.665413 439.113572 
L 193.460472 445.231194 
L 193.296519 446.178613 
L 193.153061 449.318632 
L 192.722685 450.861572 
L 191.14464 453.866244 
L 190.345371 455.030216 
L 189.13622 456.16712 
L 188.644362 456.897986 
L 187.968058 457.439368 
L 187.148294 457.899543 
L 186.308037 458.224373 
L 184.996416 459.280069 
L 183.766771 461.689221 
L 183.131454 463.502852 
L 182.537126 465.343552 
L 181.75835 466.805285 
L 181.041058 468.564778 
L 179.770424 470.188925 
L 178.397321 471.840142 
L 177.106194 474.628261 
L 176.020007 476.089994 
L 175.384691 476.739653 
L 174.011587 477.930694 
L 172.26959 479.690187 
L 170.322652 481.233127 
L 168.25275 484.048316 
L 167.658421 484.725044 
L 165.486049 486.322123 
L 164.748262 486.863505 
L 163.969487 487.269542 
L 162.575889 488.298169 
L 159.829682 490.138869 
L 156.837546 492.304399 
L 156.017782 492.954058 
L 155.034066 493.441302 
L 153.169105 494.226306 
L 152.410824 494.794758 
L 151.017226 496.256491 
L 149.869558 497.880638 
L 149.234241 498.638574 
L 148.434972 498.990472 
L 147.697185 498.963403 
L 146.426552 498.665643 
L 143.721333 497.366325 
L 143.167993 495.95873 
L 142.327735 495.742177 
L 141.180066 496.28356 
L 139.806963 496.716666 
L 139.151152 497.014426 
L 136.261487 497.745292 
L 135.687652 498.070122 
L 134.314549 498.232537 
L 132.019211 498.151329 
L 130.543637 497.745292 
L 128.453241 496.202352 
L 127.776936 495.579763 
L 127.24409 494.930104 
L 126.506303 493.739062 
L 125.993951 491.411118 
L 125.829998 491.492325 
L 125.748022 492.737505 
L 125.952963 492.710436 
L 127.858913 489.597486 
L 129.068064 488.216961 
L 129.682886 487.64851 
L 130.953519 485.916086 
L 132.183164 484.887459 
L 133.597256 483.236243 
L 134.662948 481.287266 
L 136.466427 478.06604 
L 137.53212 476.414824 
L 138.884729 475.088437 
L 139.622516 474.655331 
L 140.975126 473.112391 
L 141.630936 472.679285 
L 143.331945 470.892722 
L 143.680345 470.378409 
L 144.192697 469.052022 
L 144.274673 468.348225 
L 144.889495 466.318041 
L 145.258389 463.827681 
L 145.278883 463.150953 
L 144.991966 461.662152 
L 144.233685 459.84852 
L 143.864791 459.198861 
L 143.10651 458.576272 
L 142.040818 457.439368 
L 140.913643 457.628852 
L 140.401291 457.358161 
L 140.114374 457.547645 
L 139.806963 457.547645 
L 139.19214 458.143166 
L 137.675578 459.84852 
L 136.466427 460.79594 
L 135.974569 461.472668 
L 135.400735 462.041119 
L 134.744924 462.961469 
L 134.130102 463.584059 
L 133.72022 464.396133 
L 132.736504 465.695451 
L 132.244646 466.236833 
L 131.670812 466.64287 
L 128.617194 467.833912 
L 126.588279 468.375294 
L 126.034939 468.862538 
L 125.68654 469.620474 
L 125.317646 471.461174 
L 125.379129 473.599635 
L 125.563575 474.736538 
L 125.379129 475.683957 
L 124.907765 476.496031 
L 124.313436 477.253966 
L 123.657626 477.903625 
L 122.940333 478.309662 
L 122.32551 478.878114 
L 121.936123 480.610538 
L 121.813158 482.776067 
L 121.362288 483.452796 
L 120.788454 483.804694 
L 119.968691 484.129524 
L 118.964481 484.048316 
L 117.488907 483.642279 
L 116.710132 483.669349 
L 115.255052 483.479865 
L 109.967578 482.99262 
L 108.041135 483.046759 
L 108.041135 483.046759 
L 105.868762 483.290381 
L 104.885046 483.127966 
L 101.769945 483.127966 
L 100.642771 484.156593 
L 99.597572 482.126409 
L 98.757315 481.666233 
L 97.814587 481.016574 
L 96.97433 479.175874 
L 96.216049 478.147247 
L 95.457768 476.387754 
L 92.588596 470.784446 
L 91.707351 469.999441 
L 91.031046 470.188925 
L 90.457211 469.837027 
L 89.760413 468.618916 
L 88.018416 466.940631 
L 87.219146 466.101488 
L 86.399383 465.587174 
L 85.57962 465.208207 
L 84.780351 465.126999 
L 84.022069 464.071304 
L 83.386753 463.529921 
L 82.648966 463.394575 
L 81.952167 463.692336 
L 81.152898 463.448714 
L 80.230664 462.555433 
L 79.410901 461.932843 
L 77.853351 461.147838 
L 77.136058 459.767313 
L 76.398271 458.846963 
L 74.676768 457.276954 
L 73.816016 457.006262 
L 72.955265 457.060401 
L 71.397714 456.708502 
L 70.495975 456.356603 
L 69.3688 456.221258 
L 68.385084 455.84229 
L 66.540617 454.62418 
L 65.679865 454.29935 
L 64.655161 454.759525 
L 62.667235 454.678318 
L 61.724507 454.272281 
L 60.822768 454.028659 
L 59.900534 453.487276 
L 58.87583 453.216585 
L 58.138043 453.162447 
L 57.256797 452.918825 
L 56.355058 452.918825 
L 54.674543 453.297793 
L 53.793297 453.05417 
L 52.973534 453.568484 
L 52.092288 452.837617 
L 51.129067 452.350373 
L 49.571516 451.83606 
L 48.956694 451.592438 
L 47.358155 452.404512 
L 45.636652 451.917267 
L 44.816889 450.834502 
L 44.099596 450.455535 
L 43.443785 450.266051 
L 42.767481 450.266051 
L 42.152658 449.941221 
L 40.861531 450.076567 
L 38.709652 448.641903 
L 37.725936 448.019314 
L 37.09062 447.477931 
L 35.615046 444.852226 
L 35.041212 443.634116 
L 34.446883 442.903249 
L 33.811567 442.551351 
L 33.258226 441.982899 
L 32.561427 441.65807 
L 31.844135 441.197895 
L 31.208818 441.685139 
L 30.61449 441.576862 
L 30.225102 440.927203 
L 29.425833 440.196337 
L 29.425833 440.196337 
" clip-path="url(#p3d145d3f70)" style="fill: none; stroke: #000000; stroke-width: 3"/>
   </g>
  </g>
 </g>
 <defs>
  <clipPath id="p3d145d3f70">
   <rect x="7.2" y="7.2" width="488.968322" height="554.4"/>
  </clipPath>
 </defs>
</svg>
