<?xml version="1.0" encoding="utf-8" standalone="no"?>
<!DOCTYPE svg PUBLIC "-//W3C//DTD SVG 1.1//EN"
  "http://www.w3.org/Graphics/SVG/1.1/DTD/svg11.dtd">
<svg xmlns:xlink="http://www.w3.org/1999/xlink" width="316.093069pt" height="568.8pt" viewBox="0 0 316.093069 568.8" xmlns="http://www.w3.org/2000/svg" version="1.1">
 <metadata>
  <rdf:RDF xmlns:dc="http://purl.org/dc/elements/1.1/" xmlns:cc="http://creativecommons.org/ns#" xmlns:rdf="http://www.w3.org/1999/02/22-rdf-syntax-ns#">
   <cc:Work>
    <dc:type rdf:resource="http://purl.org/dc/dcmitype/StillImage"/>
    <dc:date>2023-07-22T05:03:06.518045</dc:date>
    <dc:format>image/svg+xml</dc:format>
    <dc:creator>
     <cc:Agent>
      <dc:title>Matplotlib v3.7.2, https://matplotlib.org/</dc:title>
     </cc:Agent>
    </dc:creator>
   </cc:Work>
  </rdf:RDF>
 </metadata>
 <defs>
  <style type="text/css">*{stroke-linejoin: round; stroke-linecap: butt}</style>
 </defs>
 <g id="figure_1">
  <g id="patch_1">
   <path d="M 0 568.8 
L 316.093069 568.8 
L 316.093069 0 
L 0 0 
z
" style="fill: #ffffff"/>
  </g>
  <g id="axes_1">
   <g id="LineCollection_1">
    <path d="M 160.125037 170.490072 
L 160.494221 170.568072 
L 167.213361 174.702097 
L 168.387364 175.638103 
L 173.194133 177.948866 
L 173.843896 177.519864 
L 175.128655 175.959855 
L 176.671842 173.756341 
L 176.885969 172.839836 
L 177.321605 172.537584 
L 177.853229 172.635085 
L 179.411184 173.47359 
L 181.522913 174.224344 
L 183.848769 174.780098 
L 187.038515 175.852604 
L 187.821184 176.184106 
L 189.881228 177.490614 
L 191.121684 178.51437 
L 192.33999 179.450375 
L 192.974986 179.879378 
L 193.418006 180.444881 
L 195.714327 181.780639 
L 199.398779 183.6429 
L 208.584064 187.03592 
L 211.33079 188.098677 
L 213.331764 189.054182 
L 216.68395 191.189445 
L 217.872721 192.466703 
L 218.648007 194.104713 
L 218.972888 195.021218 
L 219.666953 199.359994 
L 220.013986 201.076004 
L 220.6859 202.723764 
L 221.579324 204.244773 
L 222.73856 205.52203 
L 223.476927 206.058284 
L 227.441958 210.007057 
L 228.497823 211.391565 
L 230.602169 214.921086 
L 232.034601 216.793098 
L 233.570404 218.538358 
L 234.14633 219.016111 
L 234.803477 219.298862 
L 235.246497 219.825366 
L 235.342485 220.49812 
L 235.128358 221.180624 
L 234.751791 221.785127 
L 234.434293 222.506632 
L 234.072493 224.193392 
L 233.053547 226.377405 
L 232.101054 228.181165 
L 231.22978 230.140927 
L 227.508411 235.854461 
L 226.053828 238.057974 
L 223.934714 241.704496 
L 221.394732 246.735526 
L 220.449622 248.900039 
L 219.792475 250.382048 
L 218.8769 251.844556 
L 217.392783 254.067569 
L 214.003678 260.044355 
L 213.154556 261.643365 
L 211.840263 263.963878 
L 209.964811 267.5714 
L 209.706382 268.312404 
L 209.027084 269.570162 
L 208.761272 270.252666 
L 208.643134 270.90592 
L 208.768656 271.442173 
L 209.093538 271.910176 
L 210.001729 272.60243 
L 213.088103 274.35744 
L 216.336918 276.531703 
L 218.367427 277.516459 
L 219.305153 277.66271 
L 219.696488 277.838211 
L 220.434855 278.501215 
L 227.48626 282.566989 
L 229.369096 283.434744 
L 229.789965 283.883247 
L 229.952406 284.946003 
L 229.945022 285.550507 
L 229.605373 286.905765 
L 228.06957 290.415786 
L 226.895566 292.434048 
L 226.688823 293.106802 
L 226.009526 294.569311 
L 225.160404 295.856318 
L 224.547559 296.382821 
L 220.501308 302.89586 
L 218.249288 307.439387 
L 214.727278 313.464923 
L 213.96676 314.66418 
L 213.331764 316.077939 
L 211.397243 319.236957 
L 207.816163 325.974247 
L 206.332045 327.768258 
L 205.807804 328.977265 
L 204.97345 330.673775 
L 204.264617 332.233785 
L 203.592703 333.05279 
L 203.193985 333.442792 
L 201.850157 337.089314 
L 201.288998 338.395821 
L 200.912431 338.941825 
L 200.366039 340.326333 
L 197.715302 343.777853 
L 192.716557 353.30366 
L 191.040464 356.170177 
L 189.748322 358.26644 
L 187.282176 362.653966 
L 185.775907 365.666734 
L 183.922606 369.557007 
L 183.073484 371.068266 
L 180.976522 375.251041 
L 179.086302 378.46856 
L 178.207645 380.17482 
L 176.302659 383.168088 
L 173.474713 388.51112 
L 172.802799 391.202136 
L 172.396697 393.015647 
L 171.680481 394.526906 
L 171.207926 395.033909 
L 170.476943 395.35566 
L 169.664739 395.511661 
L 169.251254 395.969914 
L 168.926372 396.545168 
L 167.648997 398.124677 
L 166.836794 399.167933 
L 166.068892 400.191689 
L 165.876916 400.601192 
L 165.603721 401.010694 
L 165.980288 401.819949 
L 166.031973 402.170951 
L 165.995055 402.482953 
L 164.348497 404.549965 
L 163.226179 406.139225 
L 162.605951 407.201981 
L 162.310604 408.75224 
L 162.465661 409.395744 
L 162.450893 410.000248 
L 162.295836 410.653502 
L 162.310604 411.511507 
L 162.192465 412.340262 
L 161.697759 413.978271 
L 160.83387 415.206779 
L 159.091324 416.367036 
L 157.25279 418.76555 
L 156.484888 419.701555 
L 156.160007 420.198808 
L 155.702219 420.608311 
L 155.096758 421.758818 
L 154.439611 423.104326 
L 151.345854 427.423601 
L 150.009409 429.568614 
L 149.595924 429.997617 
L 149.293193 430.51437 
L 149.101218 431.109123 
L 147.491578 433.663638 
L 146.804897 435.009146 
L 145.734264 436.949408 
L 145.20264 438.070665 
L 144.124624 440.66418 
L 143.319804 441.873187 
L 142.581437 443.189445 
L 142.101499 443.774449 
L 140.51401 446.611716 
L 138.786231 448.863979 
L 138.62379 449.468483 
L 138.380129 454.08026 
L 138.476117 454.899265 
L 137.870656 456.888277 
L 137.339031 457.36603 
L 136.984615 457.980283 
L 136.135493 460.944301 
L 136.216714 462.592061 
L 135.522649 465.76083 
L 135.035326 467.44759 
L 133.152491 471.376863 
L 132.982666 471.844866 
L 132.532262 472.108117 
L 131.336108 472.420119 
L 122.593842 475.159885 
L 121.980998 475.120885 
L 121.574896 475.315886 
L 119.77328 477.724151 
L 118.38515 479.800913 
L 117.890444 480.317666 
L 115.623658 484.461441 
L 114.700699 485.98245 
L 114.213377 486.440703 
L 113.630067 487.503459 
L 113.223965 488.078712 
L 112.603737 489.35597 
L 112.286239 489.979974 
L 112.330541 490.672228 
L 112.67019 491.422982 
L 113.150128 491.929985 
L 114.567793 492.75874 
L 115.151103 493.060992 
L 115.571972 493.411994 
L 115.697494 493.723996 
L 115.601507 494.055498 
L 115.151103 494.718502 
L 114.752385 496.13226 
L 114.479189 496.766014 
L 113.711287 497.955521 
L 112.160716 500.773288 
L 111.658627 501.12429 
L 109.08911 504.819562 
L 108.719926 506.262571 
L 105.633552 510.152844 
L 104.577687 511.829854 
L 104.046063 512.80486 
L 103.603043 512.85361 
L 103.233859 512.590358 
L 102.052472 511.361851 
L 101.20335 510.640347 
L 100.273008 510.055343 
L 97.600119 509.031587 
L 95.015834 507.79333 
L 93.228986 507.003575 
L 92.579223 506.545322 
L 88.038266 503.366803 
L 82.99522 500.188284 
L 81.119767 499.301029 
L 74.496615 495.264505 
L 73.285693 494.708752 
L 72.599012 494.513751 
L 71.225649 493.996998 
L 70.590654 493.723996 
L 69.800601 493.558245 
L 68.61183 492.895241 
L 67.44521 492.251737 
L 66.182603 491.676484 
L 64.521277 490.750228 
L 63.088845 489.921473 
L 58.961373 487.279208 
L 58.444516 487.191457 
L 57.853823 487.123207 
L 57.336966 486.937956 
L 56.820109 486.635704 
L 55.660873 485.670448 
L 54.331812 484.734442 
L 52.323454 483.535185 
L 50.647361 482.287178 
L 48.860513 481.253672 
L 47.730811 480.727169 
L 46.446053 480.590668 
L 45.980881 480.424917 
L 45.146527 479.683912 
L 42.207826 478.474905 
L 41.085508 477.782651 
L 38.848256 475.96914 
L 37.290302 475.276886 
L 36.802979 475.432887 
L 36.426412 476.056891 
L 35.916939 477.733901 
L 35.281943 479.22566 
L 33.480328 482.462679 
L 32.262022 485.007444 
L 29.973085 488.624716 
L 27.551241 493.275493 
L 27.16729 493.782496 
L 26.251715 495.771508 
L 24.760213 499.086528 
L 23.549292 499.827532 
L 23.032435 500.851288 
L 22.796157 501.719044 
L 22.803541 502.187046 
L 22.633716 502.7623 
L 21.961802 503.932307 
L 20.913321 505.160814 
L 21.060995 505.346065 
L 21.03146 505.619067 
L 21.363725 505.775068 
L 21.548317 505.794568 
L 22.013488 506.048069 
L 23.22441 506.516072 
L 24.295042 507.003575 
L 26.318168 508.056581 
L 27.602926 508.797586 
L 28.99844 509.694591 
L 32.188186 512.015105 
L 33.436026 513.448363 
L 36.404261 515.369125 
L 38.235411 515.963878 
L 39.032848 515.905378 
L 39.675227 515.973628 
L 40.125631 516.27588 
L 40.265921 516.743883 
L 40.199468 517.153385 
L 40.302839 517.358137 
L 40.819696 517.621388 
L 41.838642 518.177142 
L 43.90607 519.493399 
L 45.678151 520.575656 
L 48.166448 522.272166 
L 49.776088 522.91567 
L 52.37514 524.329428 
L 54.634543 525.986938 
L 55.646105 526.883943 
L 56.76104 527.761449 
L 57.831672 528.560953 
L 59.655438 530.276964 
L 60.142761 530.608466 
L 62.239723 531.154469 
L 62.527686 531.212969 
L 63.576167 529.964962 
L 63.812445 530.062462 
L 63.945351 530.452465 
L 63.797677 531.34947 
L 63.413726 532.392726 
L 62.786114 533.640734 
L 62.512919 534.410988 
L 61.257695 536.185499 
L 60.689152 536.4 
L 60.135377 536.33175 
L 59.182883 535.853997 
L 56.354938 533.903985 
L 55.838081 533.455482 
L 52.434209 531.554221 
L 51.363577 530.959468 
L 50.514455 530.042962 
L 49.281382 529.496959 
L 48.550398 529.535959 
L 47.826799 529.321458 
L 47.354244 529.457959 
L 46.933375 529.467709 
L 45.995649 528.814455 
L 45.286816 528.648704 
L 43.891303 527.897949 
L 43.10125 527.351946 
L 42.695148 527.195945 
L 42.207826 526.747443 
L 41.498994 526.36719 
L 41.011671 525.986938 
L 40.413594 525.635936 
L 39.645692 524.992432 
L 38.013901 524.105177 
L 37.91053 523.715174 
L 38.324015 522.652418 
L 38.959011 521.384911 
L 40.649871 517.91389 
L 41.986316 515.798127 
L 42.458871 515.174124 
L 43.138168 514.715871 
L 43.655025 514.140618 
L 44.230951 511.868854 
L 44.747808 510.289345 
L 45.855359 508.310083 
L 46.645412 507.149826 
L 47.221338 506.11632 
L 47.590521 504.44906 
L 48.314121 503.532554 
L 48.639003 502.967051 
L 49.879459 501.572793 
L 50.750732 500.324785 
L 51.046079 500.090784 
L 51.666307 498.881777 
L 52.205315 497.81902 
L 53.467923 495.264505 
L 54.066 493.187743 
L 54.029082 492.963491 
L 54.974191 491.539983 
L 56.709354 489.238969 
L 57.004701 488.351714 
L 57.159758 487.571709 
L 57.388652 487.396208 
L 57.898125 487.425458 
L 58.0901 486.333452 
L 58.858002 485.455947 
L 60.113226 483.086683 
L 60.34212 482.413929 
L 60.755605 481.789925 
L 60.910662 480.873419 
L 62.75658 478.357905 
L 63.413726 477.217148 
L 64.22593 475.598638 
L 64.94953 474.25313 
L 66.684692 471.532864 
L 67.112945 469.290351 
L 69.689846 465.331827 
L 70.620188 463.430566 
L 71.08536 462.075308 
L 71.461927 461.441554 
L 72.436571 460.495798 
L 73.44075 457.46353 
L 74.437546 455.971771 
L 76.852006 453.183255 
L 77.265492 452.247249 
L 78.114614 449.634234 
L 80.787502 445.62696 
L 80.979478 444.710454 
L 82.160865 443.013944 
L 83.21673 441.717186 
L 83.896027 441.141933 
L 84.287362 440.508179 
L 84.501488 439.747675 
L 84.722998 437.856163 
L 84.966659 437.21266 
L 85.985606 435.935402 
L 86.37694 435.233398 
L 86.620602 434.443643 
L 87.735536 431.976878 
L 89.29349 430.163368 
L 91.338767 426.409595 
L 91.368301 425.688091 
L 91.604579 425.034837 
L 93.258521 422.646073 
L 94.336537 420.052557 
L 95.894491 417.09829 
L 96.824834 414.680275 
L 97.489364 413.003265 
L 99.89644 411.482256 
L 100.280391 410.916753 
L 100.634807 410.195249 
L 101.12213 408.459738 
L 101.447011 407.699234 
L 102.052472 407.10448 
L 103.713798 404.218463 
L 104.075598 402.609704 
L 104.046063 401.897949 
L 104.304491 401.361696 
L 104.983789 400.649942 
L 105.537564 399.421435 
L 106.696801 397.247172 
L 107.0586 396.125915 
L 108.498416 393.717651 
L 109.133412 392.362393 
L 110.322183 390.012629 
L 111.437117 388.969372 
L 111.917055 388.715871 
L 112.869549 387.097361 
L 113.342104 386.473358 
L 114.176458 385.18635 
L 115.22494 383.694591 
L 115.512903 382.953587 
L 115.512903 382.446584 
L 116.007609 380.486822 
L 117.011788 378.371059 
L 118.200559 376.625799 
L 118.16364 375.923795 
L 118.267012 375.582543 
L 118.584509 375.309541 
L 119.300725 374.276035 
L 120.105545 372.472274 
L 121.316467 370.13226 
L 121.648732 369.030504 
L 122.534773 367.918997 
L 124.395458 365.393732 
L 126.359514 363.209719 
L 126.625326 362.566215 
L 126.824685 361.259707 
L 126.861604 360.118951 
L 126.603175 359.563197 
L 125.569461 358.841693 
L 124.823711 357.925188 
L 122.815352 355.936176 
L 121.774255 354.629668 
L 121.752104 354.678418 
L 121.286933 354.327416 
L 120.836529 353.36216 
L 120.629786 352.767407 
L 120.5781 351.392649 
L 120.666704 350.719895 
L 121.124492 349.325636 
L 121.478908 348.740633 
L 122.490471 347.736377 
L 123.63494 346.849122 
L 124.860629 345.922866 
L 125.835273 344.762609 
L 126.544106 343.456102 
L 128.079909 339.926581 
L 128.840427 338.14232 
L 129.903676 336.163058 
L 132.591332 330.322773 
L 133.817021 328.392262 
L 135.153465 326.578751 
L 137.649146 324.033986 
L 138.579488 323.08823 
L 139.923316 321.869473 
L 142.537135 321.118719 
L 143.910498 321.011468 
L 145.34293 321.177219 
L 147.31437 321.830473 
L 147.912447 322.171725 
L 148.990463 322.96148 
L 150.784695 324.180237 
L 151.441841 324.462988 
L 152.756135 324.66774 
L 154.830946 324.862741 
L 155.561929 324.79449 
L 156.957443 324.326488 
L 158.227434 323.624483 
L 159.467891 322.727478 
L 160.700964 321.888973 
L 161.660841 320.816467 
L 162.532114 319.578209 
L 163.861174 317.062694 
L 165.21977 313.591674 
L 165.950753 312.285166 
L 166.918014 311.095659 
L 168.483352 309.55515 
L 169.561368 308.833645 
L 171.746934 307.84889 
L 173.083378 307.078635 
L 173.85128 307.419887 
L 175.46092 308.238892 
L 175.424002 308.082891 
L 175.468304 308.073141 
L 175.121271 307.88789 
L 174.43459 307.800139 
L 173.71099 307.488137 
L 173.437795 307.215136 
L 173.400876 306.873884 
L 173.651921 306.493632 
L 174.545345 305.733127 
L 175.51999 304.836122 
L 176.812132 303.237112 
L 177.57265 302.028105 
L 179.248743 298.537584 
L 179.964959 296.792324 
L 180.540885 294.988563 
L 180.762395 293.682055 
L 180.799314 291.829544 
L 180.887918 291.12754 
L 180.65164 289.655281 
L 180.142167 288.114772 
L 178.783572 284.955753 
L 178.488225 284.087998 
L 178.333168 282.401238 
L 178.525143 280.714478 
L 179.034617 279.164219 
L 179.861588 277.808961 
L 180.895301 276.512203 
L 182.748603 273.655436 
L 183.612492 272.787681 
L 186.905609 270.320916 
L 188.788445 269.21916 
L 190.582677 267.795651 
L 191.490868 266.557394 
L 191.992958 265.104635 
L 192.081562 263.720127 
L 192.015109 261.672615 
L 192.42121 258.250344 
L 193.041439 256.329583 
L 193.469692 255.159576 
L 195.042413 249.20229 
L 195.544503 247.593531 
L 196.349323 245.175517 
L 197.08769 243.488756 
L 198.689946 240.134737 
L 199.317558 238.97448 
L 200.80906 236.731966 
L 201.687716 235.64971 
L 207.698024 229.273172 
L 209.270746 226.621156 
L 210.311843 224.593144 
L 211.13143 222.613882 
L 212.652466 218.752859 
L 213.582809 217.007599 
L 215.952967 213.253827 
L 216.971913 212.15207 
L 218.891668 210.51406 
L 220.279798 209.470804 
L 221.918972 208.681049 
L 224.451571 207.784044 
L 226.024293 207.325791 
L 227.678235 207.16004 
L 231.598964 207.647543 
L 233.92482 208.066796 
L 235.39417 208.096046 
L 236.870904 207.862044 
L 238.377173 207.325791 
L 239.728385 206.604287 
L 240.895005 205.668281 
L 241.463547 205.063778 
L 242.386506 203.552519 
L 243.147024 202.01201 
L 244.055215 200.549501 
L 245.399043 198.355738 
L 247.377867 194.640966 
L 248.485417 192.261952 
L 250.597147 188.527679 
L 255.152872 180.474131 
L 257.028324 176.574108 
L 258.85209 173.47359 
L 260.720159 170.490072 
L 262.957411 166.580299 
L 266.531107 159.628507 
L 267.468833 157.307994 
L 267.970923 155.699234 
L 268.332723 153.934473 
L 268.42871 152.130713 
L 268.26627 149.381196 
L 268.509931 145.763925 
L 269.026788 141.220398 
L 268.827429 139.280136 
L 268.34749 137.369125 
L 267.616507 135.614114 
L 265.866577 132.211344 
L 265.608148 130.310083 
L 265.637683 129.325327 
L 266.01425 127.355815 
L 266.760001 125.396054 
L 269.240914 120.599025 
L 271.323109 116.972003 
L 275.487499 112.048224 
L 277.78382 109.63021 
L 278.928289 108.421203 
L 280.161362 107.251196 
L 281.224611 105.915438 
L 282.073733 104.501679 
L 282.804716 102.97092 
L 283.004075 102.132415 
L 283.011459 100.426155 
L 282.819483 97.93989 
L 282.597973 96.350631 
L 282.4503 95.599876 
L 282.583206 94.088617 
L 283.011459 91.114849 
L 283.39541 88.784586 
L 284.569413 83.500054 
L 285.174874 82.086296 
L 286.001845 80.760288 
L 286.983873 79.658531 
L 288.150493 78.683525 
L 290.107166 77.211267 
L 291.539598 76.460512 
L 294.50045 73.671996 
L 294.950853 72.960241 
L 295.157596 72.170487 
L 295.179747 71.273481 
L 295.02469 70.337476 
L 294.618588 69.42097 
L 294.072197 68.621466 
L 293.311679 67.948712 
L 292.46994 67.578209 
L 291.532214 67.373458 
L 289.664146 67.480709 
L 288.719036 67.73421 
L 287.869914 68.124213 
L 283.085296 71.253981 
L 282.154953 71.478233 
L 281.20246 71.565983 
L 280.235199 71.429482 
L 279.393461 71.01998 
L 278.625559 70.454477 
L 278.093935 69.693972 
L 277.761669 68.816467 
L 277.584461 67.929211 
L 277.613996 67.032206 
L 277.828122 66.144951 
L 278.175155 65.267446 
L 279.186718 63.707436 
L 280.33857 62.342428 
L 281.962978 60.509417 
L 285.322548 55.702639 
L 286.481784 53.382125 
L 287.677938 50.067105 
L 287.9216 48.321845 
L 288.017587 46.644835 
L 287.869914 45.006825 
L 287.618869 44.18782 
L 287.183232 43.505316 
L 284.458658 40.609549 
L 282.804716 39.03979 
L 281.56426 38.064784 
L 279.747877 36.875277 
L 277.916727 35.871021 
L 275.450581 34.944765 
L 272.135313 34.233011 
L 266.723083 33.375006 
L 263.363513 32.4 
L 262.27073 32.4585 
L 260.764461 32.760752 
L 259.885804 33.297005 
L 258.68965 34.759514 
L 257.943899 36.085522 
L 257.648552 36.963027 
L 256.865883 40.326797 
L 256.917569 40.921551 
L 257.153846 41.448054 
L 258.955462 43.524816 
L 259.7972 44.15857 
L 264.293855 45.84533 
L 265.135594 46.293833 
L 265.873961 46.800836 
L 267.394997 48.858098 
L 267.697727 49.745353 
L 267.941388 51.198112 
L 268.04476 54.093879 
L 268.288421 55.790389 
L 268.642837 57.009146 
L 269.388588 58.998158 
L 269.624865 60.470417 
L 269.691318 61.884176 
L 269.410739 63.366184 
L 268.413943 65.637948 
L 267.047964 67.74396 
L 265.925646 69.040718 
L 264.677806 70.161975 
L 263.267525 71.185731 
L 261.709571 72.072986 
L 260.040861 72.68724 
L 257.427042 73.554995 
L 255.832169 74.3545 
L 254.444039 75.485506 
L 253.336489 76.860265 
L 252.502134 78.342273 
L 251.992661 79.863283 
L 251.520106 81.335541 
L 251.232143 82.037545 
L 250.412555 83.324553 
L 249.364074 84.387309 
L 248.123618 85.284315 
L 246.809324 85.781568 
L 241.899184 87.721829 
L 237.432063 90.559096 
L 235.992248 91.933854 
L 233.540869 95.112373 
L 232.868955 96.23363 
L 231.687568 97.87164 
L 231.111642 99.119647 
L 227.249982 109.552209 
L 226.688823 110.780717 
L 225.965224 111.804473 
L 225.020114 112.740478 
L 221.837752 115.441244 
L 218.8769 117.128004 
L 217.016216 118.961015 
L 215.989885 120.550275 
L 215.443494 121.759282 
L 215.081694 123.06579 
L 214.845417 125.103552 
L 215.140763 131.090087 
L 214.778963 132.289345 
L 213.892923 134.063855 
L 213.184091 135.068111 
L 212.246365 135.935866 
L 211.256953 136.60862 
L 209.152607 137.827378 
L 208.13366 138.441631 
L 206.398498 139.250886 
L 203.422879 140.401393 
L 201.709867 141.327648 
L 199.841799 142.780407 
L 196.253335 146.348928 
L 194.680613 148.25994 
L 193.196496 150.346452 
L 192.236619 152.023462 
L 191.099533 154.714478 
L 190.353783 157.337244 
L 190.132273 160.03801 
L 190.250411 161.69552 
L 191.926505 168.198808 
L 193.107892 171.82583 
L 193.50661 173.132338 
L 193.669051 174.555846 
L 193.513994 175.881854 
L 193.203879 177.168862 
L 191.926505 180.981134 
L 190.774652 182.862896 
L 188.603853 185.826913 
L 186.20416 188.478929 
L 185.163063 189.414935 
L 183.634643 190.896943 
L 179.972343 193.63671 
L 177.786776 195.888973 
L 177.365907 196.551977 
L 176.723528 198.111986 
L 176.236206 199.808496 
L 176.12545 201.573257 
L 176.339577 204.313023 
L 176.62754 206.994289 
L 176.516785 208.75905 
L 176.169753 210.53356 
L 175.3797 212.278821 
L 173.71099 214.677335 
L 172.485301 216.130094 
L 170.329269 218.109355 
L 164.850586 222.994134 
L 162.332755 225.724151 
L 159.622948 229.360922 
L 156.772851 233.299946 
L 155.451174 234.752704 
L 152.704449 237.141469 
L 150.622254 238.652728 
L 148.503141 240.076236 
L 144.560261 243.537507 
L 143.504396 244.824514 
L 141.459119 248.471036 
L 139.938083 251.074302 
L 138.579488 253.326565 
L 137.590076 255.140076 
L 136.630199 256.651335 
L 135.507881 258.250344 
L 134.843351 259.20585 
L 133.469988 260.609858 
L 132.982666 260.86336 
L 131.948952 261.058361 
L 130.937389 261.009611 
L 129.977512 260.619608 
L 129.519725 260.366107 
L 128.183281 259.1961 
L 124.572666 257.382589 
L 123.553719 256.768336 
L 121.648732 255.179076 
L 119.780664 254.23332 
L 114.936976 251.405804 
L 113.851577 250.7233 
L 112.766177 250.216297 
L 111.621708 249.719044 
L 110.691366 249.17304 
L 108.254755 248.568537 
L 108.077547 248.071284 
L 107.730514 247.47653 
L 106.778021 247.50578 
L 105.581866 247.164528 
L 101.742358 245.136516 
L 98.220347 242.572251 
L 91.48644 239.00373 
L 90.334588 238.360226 
L 89.389478 237.667972 
L 88.333613 236.985468 
L 87.750303 236.770966 
L 87.388503 236.351714 
L 87.166993 235.854461 
L 87.107924 235.298708 
L 87.24083 234.752704 
L 88.067801 233.338946 
L 88.946458 231.964188 
L 89.684825 231.135433 
L 90.733306 228.91242 
L 92.313411 227.19641 
L 92.557072 226.650406 
L 93.361892 226.094653 
L 92.601374 225.5584 
L 93.827064 223.87164 
L 94.676186 222.457881 
L 95.938793 220.390869 
L 96.773148 218.655359 
L 97.98407 216.490846 
L 100.679109 211.381815 
L 101.919566 208.076546 
L 102.95328 206.175284 
L 103.647345 205.063778 
L 104.78443 203.591519 
L 108.535334 197.595233 
L 112.97292 189.414935 
L 114.471805 185.778163 
L 115.638425 184.188904 
L 116.930567 181.770889 
L 119.381946 177.432113 
L 119.957872 176.593608 
L 120.112929 176.242606 
L 120.009558 175.911104 
L 120.031709 175.550352 
L 120.452578 174.906848 
L 121.013737 174.214594 
L 121.286933 173.756341 
L 121.74472 172.615585 
L 123.19192 170.441322 
L 124.484062 167.945307 
L 124.88278 167.808806 
L 125.6876 167.857556 
L 126.987126 168.49131 
L 129.113623 169.895318 
L 129.290831 170.070819 
L 129.194843 170.23657 
L 129.216994 170.14882 
" clip-path="url(#p1ba5222667)" style="fill: none; stroke: #000000; stroke-width: 3"/>
   </g>
  </g>
 </g>
 <defs>
  <clipPath id="p1ba5222667">
   <rect x="7.2" y="7.2" width="301.693069" height="554.4"/>
  </clipPath>
 </defs>
</svg>
