<?xml version="1.0" encoding="utf-8" standalone="no"?>
<!DOCTYPE svg PUBLIC "-//W3C//DTD SVG 1.1//EN"
  "http://www.w3.org/Graphics/SVG/1.1/DTD/svg11.dtd">
<svg xmlns:xlink="http://www.w3.org/1999/xlink" width="444.769725pt" height="568.8pt" viewBox="0 0 444.769725 568.8" xmlns="http://www.w3.org/2000/svg" version="1.1">
 <metadata>
  <rdf:RDF xmlns:dc="http://purl.org/dc/elements/1.1/" xmlns:cc="http://creativecommons.org/ns#" xmlns:rdf="http://www.w3.org/1999/02/22-rdf-syntax-ns#">
   <cc:Work>
    <dc:type rdf:resource="http://purl.org/dc/dcmitype/StillImage"/>
    <dc:date>2023-07-31T05:02:56.014410</dc:date>
    <dc:format>image/svg+xml</dc:format>
    <dc:creator>
     <cc:Agent>
      <dc:title>Matplotlib v3.7.2, https://matplotlib.org/</dc:title>
     </cc:Agent>
    </dc:creator>
   </cc:Work>
  </rdf:RDF>
 </metadata>
 <defs>
  <style type="text/css">*{stroke-linejoin: round; stroke-linecap: butt}</style>
 </defs>
 <g id="figure_1">
  <g id="patch_1">
   <path d="M 0 568.8 
L 444.769725 568.8 
L 444.769725 0 
L 0 0 
z
" style="fill: #ffffff"/>
  </g>
  <g id="axes_1">
   <g id="LineCollection_1">
    <path d="M 418.007465 115.530837 
L 417.990141 117.680871 
L 417.123941 118.46998 
L 416.838095 119.133288 
L 417.080631 119.945269 
L 416.110487 121.420558 
L 413.962311 123.959428 
L 412.723645 125.20599 
L 411.164485 127.298843 
L 410.298285 128.71695 
L 409.293493 130.478148 
L 408.427293 131.290129 
L 407.535107 133.897617 
L 406.694893 135.36147 
L 405.222353 137.614432 
L 404.295519 138.99823 
L 400.259027 146.511913 
L 399.297545 148.113002 
L 398.440007 149.714091 
L 397.409229 151.177944 
L 396.742255 152.53887 
L 395.919365 154.563104 
L 392.25534 160.727297 
L 390.704842 163.197549 
L 389.881952 164.913002 
L 389.024414 166.6742 
L 387.681804 168.927161 
L 386.555744 171.317359 
L 383.50672 176.909735 
L 382.579886 178.373587 
L 380.310442 182.925255 
L 377.729166 187.45405 
L 377.31339 188.243159 
L 376.31726 189.695575 
L 372.341402 196.694622 
L 372.237458 197.403676 
L 372.783164 198.593057 
L 373.54542 199.622328 
L 374.593522 200.468618 
L 379.106424 202.996052 
L 379.5222 203.31627 
L 379.799384 203.727978 
L 379.860018 204.048196 
L 379.210368 204.048196 
L 379.236354 204.093941 
L 379.548186 204.677195 
L 381.16798 205.306195 
L 383.532706 205.797958 
L 383.965806 205.672158 
L 384.658766 205.878012 
L 384.961936 206.221103 
L 384.901302 206.209666 
L 385.013908 206.70143 
L 385.204472 206.975902 
L 385.403698 206.930157 
L 385.646234 206.66712 
L 386.157292 206.621375 
L 387.820396 207.158884 
L 391.2159 208.817155 
L 395.061828 210.89857 
L 395.694153 211.070116 
L 397.149369 211.962151 
L 397.651765 212.362423 
L 397.989583 212.865623 
L 398.110851 213.506059 
L 397.721061 214.729748 
L 396.993453 215.930565 
L 396.906833 215.770456 
L 398.093527 217.463036 
L 397.539159 218.400817 
L 396.707607 219.807488 
L 395.373659 220.71096 
L 395.009856 221.134105 
L 394.542108 221.454323 
L 393.875134 222.40354 
L 392.73175 224.290538 
L 391.744282 226.154663 
L 391.449774 226.680735 
L 390.427658 227.744316 
L 389.942586 228.933696 
L 389.336246 230.23744 
L 388.556666 231.518312 
L 387.569198 232.959292 
L 386.347856 235.383799 
L 385.490318 237.076378 
L 383.437424 240.335739 
L 382.389322 242.93179 
L 381.401854 244.578625 
L 380.587626 246.156841 
L 379.834032 247.837985 
L 378.933184 249.507692 
L 377.44332 251.863581 
L 368.876602 267.165419 
L 367.594626 269.76147 
L 366.217368 272.288904 
L 365.368492 274.061538 
L 363.636092 277.515317 
L 362.518694 279.07066 
L 361.219394 281.529476 
L 360.318547 283.222056 
L 359.426361 285.154799 
L 357.979807 289.00885 
L 356.637197 291.822192 
L 356.030857 292.657046 
L 355.225291 293.194554 
L 354.696909 293.995099 
L 353.510215 296.945677 
L 352.817255 298.603948 
L 352.210915 299.267257 
L 351.777815 299.97631 
L 351.110841 300.490946 
L 350.686403 301.119946 
L 349.759569 303.533016 
L 348.607523 306.243431 
L 347.905901 307.524302 
L 347.342871 307.489993 
L 346.545967 308.633628 
L 345.627795 311.595643 
L 345.047441 312.441933 
L 344.735609 313.425459 
L 344.631665 314.374677 
L 344.146593 315.129476 
L 342.881941 318.114364 
L 342.570109 318.97209 
L 341.885811 321.728251 
L 341.366091 322.517359 
L 338.239109 324.884683 
L 337.892629 325.479374 
L 336.931147 326.817427 
L 336.359455 328.258407 
L 334.072687 331.757931 
L 332.695429 334.445473 
L 331.681975 336.36678 
L 331.621341 337.007216 
L 332.296977 337.052961 
L 332.314301 337.007216 
L 332.296977 337.030088 
L 332.210357 336.915725 
L 332.227681 336.938598 
L 331.595355 337.784888 
L 331.759933 337.944997 
L 332.149723 338.002178 
L 332.626133 337.842069 
L 336.238187 340.049285 
L 336.697273 340.438121 
L 336.939809 340.84983 
L 338.732843 342.302246 
L 339.798269 342.633901 
L 339.590381 342.519537 
L 337.390233 341.078557 
L 336.090933 340.460994 
L 333.284445 338.711232 
L 331.699299 338.162287 
L 331.127607 337.739142 
L 330.486619 337.418924 
L 329.880279 337.601906 
L 329.629081 338.070796 
L 329.438517 338.722668 
L 328.373091 340.861266 
L 327.862033 342.588155 
L 327.394285 343.503063 
L 327.333651 343.159973 
L 327.013157 345.264261 
L 326.831255 345.458679 
L 323.591668 351.954527 
L 323.12392 352.251872 
L 321.937226 351.782982 
L 319.451232 350.364874 
L 317.718832 349.015385 
L 315.553332 347.082641 
L 314.366638 346.282097 
L 312.660224 345.149898 
L 311.854658 344.543771 
L 310.962472 344.269299 
L 310.60733 344.223553 
L 310.17423 344.029135 
L 310.17423 343.949081 
L 310.269512 344.029135 
L 310.30416 343.468754 
L 309.905708 343.240027 
L 309.126128 342.999864 
L 304.431324 340.209394 
L 302.967446 339.534649 
L 301.59885 338.745541 
L 298.82701 337.533288 
L 297.622992 336.812798 
L 296.505594 336.103744 
L 295.890592 335.852144 
L 295.422844 336.160926 
L 293.88967 339.065759 
L 293.447908 339.774813 
L 292.651004 341.718993 
L 292.313186 342.656773 
L 291.291071 343.708918 
L 290.459519 344.95548 
L 289.134233 346.728114 
L 288.623175 348.34064 
L 287.947539 349.587202 
L 288.138103 349.918856 
L 288.475921 350.067529 
L 288.614513 350.03322 
L 288.761767 350.147583 
L 288.718457 350.364874 
L 288.415287 350.582165 
L 287.748313 352.057454 
L 286.474999 354.73356 
L 286.163167 355.45405 
L 285.704081 355.980123 
L 284.959149 356.540504 
L 284.396119 357.192376 
L 283.148791 360.131518 
L 281.918787 362.373043 
L 280.342303 365.575221 
L 277.466519 370.172634 
L 277.016095 370.996052 
L 275.699471 372.814432 
L 275.500245 373.900885 
L 275.119117 375.010211 
L 273.577281 377.937917 
L 272.676433 378.715589 
L 271.420443 380.259496 
L 269.159661 383.942001 
L 268.024939 385.394418 
L 267.002823 386.89258 
L 266.690991 387.73887 
L 265.313733 390.140504 
L 264.612111 391.707284 
L 264.204997 392.496392 
L 263.641967 393.06821 
L 263.148233 393.777263 
L 261.701679 397.013751 
L 260.679563 399.495439 
L 260.281111 400.010075 
L 259.293643 400.959292 
L 258.436105 402 
L 257.855751 403.452417 
L 256.019408 406.460177 
L 254.754756 408.701702 
L 252.892426 411.617971 
L 252.208128 413.184752 
L 251.601788 414.660041 
L 251.099392 416.341184 
L 250.05129 418.948673 
L 249.150442 421.544724 
L 248.639384 422.288087 
L 247.946424 422.756978 
L 247.166844 422.642614 
L 245.269866 420.767052 
L 244.741484 420.195235 
L 243.658734 419.406127 
L 239.076536 417.644929 
L 236.573218 416.203948 
L 234.918776 415.071749 
L 232.354824 413.459224 
L 229.556998 410.966099 
L 226.36072 409.570865 
L 225.823676 409.284956 
L 224.62832 408.793193 
L 223.952684 408.541593 
L 223.337683 408.164193 
L 220.643801 407.946903 
L 220.132743 407.889721 
L 219.543727 408.118448 
L 218.937387 406.940504 
L 218.235765 406.128523 
L 217.750693 405.579578 
L 214.103991 404.092852 
L 212.189689 403.44098 
L 207.503547 401.27951 
L 207.503547 401.336692 
L 207.312983 401.634037 
L 207.451575 400.639074 
L 207.096433 400.330293 
L 206.576713 400.193057 
L 206.091641 400.387474 
L 205.849105 400.719129 
L 205.606569 401.645473 
L 205.788471 402.914908 
L 206.108965 405.419469 
L 205.996359 405.888359 
L 205.797133 406.220014 
L 205.086849 406.791831 
L 205.147483 407.123485 
L 205.571921 407.512321 
L 205.519949 407.649558 
L 205.294737 407.809666 
L 204.697059 407.443703 
L 204.307269 407.249285 
L 203.570999 406.940504 
L 203.900155 405.522396 
L 204.108043 405.282233 
L 204.047409 405.316542 
L 203.926141 406.071341 
L 204.186001 406.894758 
L 203.952127 408.278557 
L 204.030085 408.17563 
L 204.419875 407.741048 
L 204.541143 407.500885 
L 203.986775 406.940504 
L 203.917479 406.677468 
L 205.684527 404.081416 
L 206.204247 402.080054 
L 206.247557 401.371001 
L 205.667203 398.786385 
L 205.398681 398.328931 
L 205.580583 397.551259 
L 205.935725 397.162423 
L 206.472769 396.590606 
L 206.741291 395.138189 
L 207.053123 396.258952 
L 207.338969 397.070933 
L 207.243687 397.860041 
L 205.476639 399.849966 
L 205.511287 400.170184 
L 205.485301 400.570456 
L 203.926141 403.967052 
L 203.501703 406.711777 
L 203.406421 409.685228 
L 203.345787 410.302791 
L 202.522897 413.37917 
L 202.211065 415.597822 
L 201.925219 416.672839 
L 202.020501 417.210347 
L 201.691345 417.770728 
L 200.859793 420.218108 
L 200.781835 421.373179 
L 200.903103 422.413887 
L 201.396837 424.117903 
L 201.362189 425.215793 
L 201.041695 426.599592 
L 200.582609 429.836079 
L 200.210143 432.34064 
L 200.418031 432.569367 
L 201.266907 433.072566 
L 203.033955 434.113274 
L 203.917479 434.570728 
L 204.263959 434.513547 
L 204.939595 433.918856 
L 205.805795 432.992512 
L 206.758615 431.711641 
L 207.286997 431.185568 
L 207.650801 430.590878 
L 207.841365 430.007624 
L 208.335099 429.367189 
L 208.846157 429.001225 
L 209.409187 428.95548 
L 211.141587 429.492988 
L 211.756589 429.824643 
L 216.252167 431.11695 
L 219.639009 432.752349 
L 220.713097 433.381348 
L 224.507052 435.782982 
L 225.035434 436.240436 
L 226.300086 436.82369 
L 226.897764 436.960926 
L 227.928542 437.578489 
L 228.881362 438.207488 
L 229.357772 438.539142 
L 231.228764 439.23676 
L 232.865882 440.174541 
L 234.537648 441.592648 
L 235.421172 442.701974 
L 235.71568 443.308101 
L 235.67237 444.040027 
L 235.143988 445.641116 
L 234.901452 446.613206 
L 234.511662 447.413751 
L 233.099756 449.300749 
L 233.013136 449.941184 
L 233.11708 450.467257 
L 231.497286 453.074745 
L 230.925594 454.698707 
L 229.747562 456.963104 
L 228.188402 458.827229 
L 227.045018 459.833628 
L 226.109522 461.183118 
L 224.914166 463.596188 
L 224.23853 464.339551 
L 223.363669 466.009258 
L 222.878597 467.930565 
L 222.315567 470.858271 
L 221.527325 472.493669 
L 220.834365 473.202723 
L 220.037461 473.671613 
L 219.535065 474.437849 
L 218.305061 477.216882 
L 215.524559 480.79646 
L 213.714201 483.895711 
L 212.553493 486.583254 
L 212.224337 487.486726 
L 209.209961 493.159156 
L 208.932777 494.005446 
L 208.066577 495.595099 
L 206.914531 498.179714 
L 205.450653 500.535602 
L 204.393889 502.113819 
L 203.536351 503.840708 
L 202.722123 505.80776 
L 201.596063 507.363104 
L 200.929089 508.049285 
L 199.283309 510.450919 
L 197.109147 513.984752 
L 196.017735 515.654459 
L 195.515339 516.409258 
L 194.458575 518.730837 
L 193.107303 521.155344 
L 192.336385 522.630633 
L 191.011099 524.895031 
L 186.368268 534.432948 
L 186.143056 535.610892 
L 185.891858 535.610892 
L 185.805238 535.565146 
L 185.580026 536.011164 
L 184.800446 536.4 
L 184.176782 536.194146 
L 182.842834 535.324983 
L 179.334724 533.415112 
L 178.130706 532.808986 
L 177.099928 532.16855 
L 172.664984 529.846971 
L 172.032658 529.824098 
L 171.486952 529.915589 
L 170.430188 530.441661 
L 169.927792 530.395916 
L 169.538002 530.47597 
L 169.512016 530.647515 
L 170.153004 529.366644 
L 171.227092 527.422464 
L 170.776668 526.221647 
L 170.404202 525.672703 
L 169.806524 525.478285 
L 168.256026 525.352485 
L 167.58039 525.215248 
L 167.337854 524.963649 
L 164.167562 523.934377 
L 161.984738 523.065214 
L 159.897196 522.676378 
L 158.857756 522.287543 
L 158.086838 521.715725 
L 157.09937 520.148945 
L 157.108032 520.171818 
L 157.14268 520.160381 
L 157.108032 520.171818 
L 156.519016 521.361198 
L 156.085916 521.223962 
L 154.994504 520.32049 
L 153.643233 519.371273 
L 152.274637 518.170456 
L 150.065827 516.740912 
L 146.834901 514.945405 
L 145.267079 514.293533 
L 143.855173 513.710279 
L 139.169031 510.382301 
L 137.064165 509.433084 
L 134.872679 508.460994 
L 130.264495 506.013615 
L 127.934417 504.584071 
L 122.035595 500.958747 
L 121.091437 500.501293 
L 120.138618 500.272566 
L 119.575588 500.203948 
L 118.873966 499.998094 
L 112.39479 496.658679 
L 111.147462 495.892444 
L 109.389076 495.034717 
L 108.739426 494.382845 
L 108.661468 494.5887 
L 108.124424 493.605174 
L 106.625898 493.02192 
L 106.132164 492.598775 
L 104.77223 491.821103 
L 103.230394 491.180667 
L 101.65391 490.437304 
L 96.11023 487.120762 
L 94.239238 485.977127 
L 92.922614 485.165146 
L 91.536694 484.501838 
L 88.608938 482.763513 
L 83.290471 480.167461 
L 82.086453 479.241116 
L 79.704403 477.994554 
L 78.058623 477.056773 
L 75.641925 475.764466 
L 72.540929 473.968958 
L 69.145425 472.390742 
L 67.577603 471.567325 
L 65.992457 470.778216 
L 64.545903 469.760381 
L 62.458361 468.628182 
L 60.483425 467.656093 
L 58.395883 466.878421 
L 57.425739 466.260858 
L 54.281433 464.84275 
L 49.344094 461.023009 
L 48.079442 460.188155 
L 46.823452 459.101702 
L 45.368236 458.232539 
L 42.535762 457.363376 
L 33.154816 452.411436 
L 32.47918 452.445745 
L 32.253968 452.582982 
L 31.87284 452.502927 
L 31.101922 452.239891 
L 30.18375 452.514364 
L 29.516776 452.388564 
L 29.170296 452.194146 
L 28.6679 451.530837 
L 27.602474 450.101293 
L 27.082754 449.666712 
L 26.89219 449.312185 
L 26.952824 448.660313 
L 26.857542 448.683186 
L 26.76226 449.117767 
L 27.013458 449.39224 
L 28.53797 450.513002 
L 28.763182 451.439346 
L 29.092338 452.159837 
L 29.638044 452.457182 
L 30.287694 452.480054 
L 31.708262 452.251327 
L 31.413754 452.788836 
L 31.413754 452.7774 
L 30.44361 452.377127 
L 29.196282 452.194146 
L 28.806492 451.816746 
L 27.992264 450.272839 
L 27.394586 449.655276 
L 27.126064 449.449421 
L 27.074092 449.495167 
L 27.134726 449.518039 
L 27.342614 449.632403 
L 27.576488 449.838257 
L 28.425364 450.044112 
L 28.789168 450.432948 
L 29.161634 450.810347 
L 29.499452 450.856093 
L 30.547554 451.462219 
L 31.379106 451.942546 
L 31.595656 452.331382 
L 31.760234 452.765963 
L 31.751572 452.754527 
L 31.82953 452.194146 
L 32.401222 452.468618 
L 32.617772 452.720218 
L 32.60911 452.99469 
L 32.427208 453.223417 
L 32.331926 453.566508 
L 32.461856 453.738053 
L 33.068196 453.96678 
L 33.90841 454.104016 
L 35.190386 454.93887 
L 36.862152 455.53356 
L 37.399196 455.613615 
L 41.305758 457.294758 
L 41.981394 457.317631 
L 44.146894 458.598502 
L 45.90528 459.399047 
L 47.672328 460.039483 
L 48.859022 460.279646 
L 49.551982 460.14241 
L 51.206424 460.725664 
L 52.055299 460.897209 
L 53.969601 461.880735 
L 54.324743 462.441116 
L 56.377637 464.145133 
L 56.949329 464.808441 
L 57.070597 465.162968 
L 57.053273 465.68904 
L 57.200527 465.734786 
L 57.339119 465.711913 
L 57.598979 465.791967 
L 58.066727 465.700477 
L 58.404545 465.483186 
L 59.868423 463.504697 
L 60.907863 461.697754 
L 61.843359 460.279646 
L 62.415051 458.79292 
L 63.073363 457.340504 
L 63.904915 455.899523 
L 66.018443 452.308509 
L 67.508307 449.072022 
L 69.102115 446.075698 
L 70.418739 443.9371 
L 73.008677 439.774268 
L 76.949887 432.077604 
L 77.833411 430.64806 
L 79.150035 427.743227 
L 79.990249 426.256501 
L 80.986379 424.72403 
L 81.584057 424.014976 
L 84.018079 420.275289 
L 84.702377 419.577672 
L 85.577239 418.262491 
L 87.23168 415.254731 
L 87.699428 414.477059 
L 88.565628 411.892444 
L 89.068024 411.023281 
L 89.414504 410.154118 
L 90.540564 405.76256 
L 90.817748 405.042069 
L 91.276834 404.172907 
L 91.831202 402.697617 
L 93.502968 400.501838 
L 94.273886 399.781348 
L 96.352766 396.968005 
L 97.45284 395.69857 
L 99.107282 394.269027 
L 99.237212 393.011028 
L 99.860876 391.112594 
L 100.978274 388.527978 
L 101.679896 387.212798 
L 102.667364 385.360109 
L 104.29582 382.581076 
L 104.893498 381.128659 
L 105.699064 379.573315 
L 106.11484 379.092988 
L 108.185058 375.63921 
L 109.70957 373.454867 
L 110.177318 373.111777 
L 110.497812 372.734377 
L 111.805774 369.829544 
L 112.585354 368.2742 
L 113.78071 365.906875 
L 114.092542 364.76324 
L 114.066556 364.157114 
L 114.64691 362.750442 
L 115.175292 362.052825 
L 117.210862 360.074336 
L 118.0684 358.942138 
L 118.666078 357.729884 
L 119.480306 355.842886 
L 119.93073 354.459088 
L 120.606365 353.315453 
L 121.845031 351.622873 
L 122.841161 349.735875 
L 123.326233 348.580803 
L 124.123137 347.345677 
L 124.920041 345.939006 
L 125.673635 344.566644 
L 126.868991 342.519537 
L 128.124981 340.758339 
L 128.748645 340.095031 
L 129.025829 339.534649 
L 129.155759 338.962832 
L 129.432943 338.619741 
L 129.883367 338.345269 
L 130.359777 337.71627 
L 131.953585 334.411164 
L 132.637883 333.622056 
L 133.573379 331.986658 
L 134.838031 327.881007 
L 135.712893 325.913955 
L 137.263391 323.214976 
L 137.956351 321.728251 
L 141.057347 316.924983 
L 141.343193 316.090129 
L 141.048685 315.266712 
L 140.606923 314.580531 
L 140.043893 314.14595 
L 138.848537 313.528387 
L 138.389451 313.116678 
L 137.939027 312.556297 
L 136.648389 311.973043 
L 135.149863 311.344044 
L 132.897743 310.303336 
L 131.070061 309.445609 
L 128.878575 308.416338 
L 127.925755 307.958884 
L 126.435891 307.101157 
L 125.942157 306.735194 
L 123.438839 305.591559 
L 121.299325 304.196324 
L 120.40714 303.555888 
L 119.922068 303.258543 
L 118.752698 302.915453 
L 118.129034 302.286453 
L 117.531356 301.657454 
L 117.228186 301.440163 
L 116.85572 301.520218 
L 116.699804 302.206399 
L 116.665156 302.721035 
L 116.760438 303.26998 
L 116.734452 303.818924 
L 116.847058 304.596596 
L 116.587198 306.003268 
L 116.457268 305.934649 
L 118.449528 304.745269 
L 118.63143 304.379306 
L 118.960586 304.013342 
L 119.090516 303.464398 
L 118.995234 302.915453 
L 117.479384 301.657454 
L 116.561212 301.005582 
L 114.439022 298.947039 
L 113.26099 298.180803 
L 111.476618 297.426004 
L 110.255276 297.105786 
L 107.379492 295.733424 
L 106.617236 295.298843 
L 105.612444 294.761334 
L 104.763568 294.189517 
L 103.845396 293.652008 
L 102.061024 292.291082 
L 99.4451 291.124575 
L 98.163124 291.010211 
L 96.837838 290.770048 
L 95.625158 290.91872 
L 94.880226 291.158884 
L 94.221914 291.536283 
L 88.894784 295.710551 
L 87.05844 296.877059 
L 85.923719 297.849149 
L 83.576317 300.273656 
L 83.576317 300.273656 
L 83.463711 300.582437 
L 83.134555 300.753982 
L 81.965185 301.966236 
L 81.696663 302.457999 
L 81.298211 302.869707 
L 79.964263 302.629544 
L 78.942147 303.418652 
L 78.387779 304.047651 
L 77.339677 306.02614 
L 76.560097 307.307012 
L 75.763193 308.382029 
L 75.286783 309.06821 
L 74.385935 309.605718 
L 73.970159 310.166099 
L 73.701637 311.687134 
L 73.389805 312.316133 
L 71.969237 313.562696 
L 71.726701 314.054459 
L 71.718039 315.20953 
L 71.596771 315.701293 
L 71.120361 316.30742 
L 70.808529 316.43322 
L 70.219513 316.376038 
L 69.465919 315.987202 
L 69.214721 316.170184 
L 69.327327 316.387474 
L 70.002963 316.444656 
L 70.687261 316.353165 
L 71.284939 315.827093 
L 71.873955 315.987202 
L 72.835437 316.639074 
L 73.597693 316.982165 
L 72.636211 316.478965 
L 72.592901 316.284547 
L 72.679521 315.769912 
L 72.367689 315.369639 
L 72.116491 315.484003 
L 72.003885 315.758475 
L 72.272407 316.30742 
L 72.653535 316.55902 
L 75.165515 317.668346 
L 75.477347 317.908509 
L 75.971081 318.045745 
L 76.490801 318.022873 
L 77.045169 317.782709 
L 77.478269 317.40531 
L 78.638977 315.861402 
L 80.128841 313.036624 
L 80.631237 312.041661 
L 81.644691 310.577808 
L 82.606173 308.919537 
L 84.044065 306.860994 
L 84.780335 305.774541 
L 85.074843 305.17985 
L 85.481957 304.745269 
L 85.941043 304.653778 
L 89.596406 306.712321 
L 92.671416 308.713683 
L 93.693532 309.342682 
L 95.685792 310.680735 
L 96.170864 311.046698 
L 96.75988 311.149626 
L 97.2796 311.389789 
L 98.18911 312.018788 
L 98.500942 311.973043 
L 99.540382 311.344044 
L 102.797294 312.865078 
L 103.455606 313.128114 
L 105.014766 313.574132 
L 106.270756 313.962968 
L 107.336182 314.729204 
L 108.375622 316.627638 
L 108.791398 317.085092 
L 109.380414 317.290946 
L 110.082036 317.348128 
L 112.95782 318.274472 
L 113.668104 318.331654 
L 115.16663 319.143635 
L 115.894238 319.681144 
L 117.384102 321.247924 
L 118.648754 322.35725 
L 119.982702 323.260722 
L 122.312779 324.472975 
L 123.785319 325.159156 
L 126.635117 326.623009 
L 128.445475 327.926753 
L 130.697595 329.070388 
L 131.364569 329.34486 
L 132.386685 330.122532 
L 133.218237 331.026004 
L 133.616689 331.437713 
L 134.049789 331.552076 
L 134.456903 331.369095 
L 134.760073 330.957386 
L 135.461695 328.692988 
L 137.029517 325.650919 
L 138.727269 323.352212 
L 139.359595 320.91627 
L 140.191147 319.406671 
L 142.261365 316.513274 
L 143.110241 314.168822 
L 143.413411 313.471205 
L 148.290117 305.362832 
L 148.870471 304.733833 
L 149.762657 303.201361 
L 153.591261 295.721988 
L 154.899222 293.469027 
L 156.952116 288.985977 
L 164.011646 276.211572 
L 167.259896 270.676378 
L 168.767084 267.943091 
L 170.456174 265.152621 
L 171.504276 263.24275 
L 173.158718 260.429408 
L 174.648582 257.57032 
L 176.121122 254.871341 
L 178.096058 251.417563 
L 181.933324 244.144044 
L 182.167198 243.43499 
L 184.765798 239.20354 
L 186.143056 236.687543 
L 188.949544 230.546222 
L 189.347995 230.214568 
L 189.174755 230.043022 
L 189.010178 230.088768 
L 188.914896 229.940095 
L 189.036164 229.597005 
L 189.937011 228.20177 
L 191.227649 226.154663 
L 192.518287 224.084683 
L 194.008151 221.442886 
L 194.441251 220.093397 
L 195.125549 218.732471 
L 196.658723 216.090674 
L 197.663515 214.992784 
L 198.200559 214.455276 
L 198.616335 213.803404 
L 199.447887 211.721988 
L 200.539299 209.800681 
L 201.596063 207.582029 
L 201.760641 207.593465 
L 202.055149 207.604901 
L 202.349657 207.490538 
L 202.522897 207.158884 
L 202.670151 206.083867 
L 203.224519 204.928795 
L 204.177339 203.670796 
L 204.757693 202.435671 
L 205.234103 201.269163 
L 205.979035 200.4 
L 206.542065 200.056909 
L 206.888545 199.405037 
L 207.174391 198.467257 
L 207.798055 196.534513 
L 208.248479 195.287951 
L 208.620945 194.270116 
L 209.253271 193.389517 
L 210.145457 191.536828 
L 211.635321 187.968686 
L 212.648775 186.253233 
L 213.514975 184.526344 
L 214.008709 183.336964 
L 215.377305 180.775221 
L 217.161677 177.80177 
L 217.941257 176.200681 
L 220.080771 172.563921 
L 223.606204 166.5484 
L 224.1086 165.862219 
L 225.511844 162.888768 
L 227.5734 159.43499 
L 229.3058 156.39292 
L 229.981436 154.974813 
L 231.713836 152.607488 
L 232.372148 151.864125 
L 233.480884 149.176583 
L 233.818702 148.398911 
L 234.693564 147.232403 
L 237.092938 145.356841 
L 237.5347 144.133152 
L 238.002448 142.806535 
L 238.279632 142.188972 
L 239.414354 140.301974 
L 239.925412 138.895303 
L 240.081328 138.174813 
L 240.167948 136.733833 
L 240.453794 136.013342 
L 241.138092 134.76678 
L 241.727108 133.634581 
L 242.463378 132.433764 
L 244.109158 129.197277 
L 244.81078 128.019333 
L 246.49987 125.400408 
L 248.353538 123.467665 
L 248.353538 122.850102 
L 248.760652 121.489176 
L 248.682694 121.00885 
L 248.466144 120.437032 
L 248.007058 119.956705 
L 247.348746 119.636487 
L 245.7636 119.133288 
L 245.079302 118.881688 
L 240.990838 116.365691 
L 239.821468 115.107692 
L 239.293086 114.753165 
L 238.09773 114.169912 
L 236.720472 113.300749 
L 232.874544 111.276515 
L 231.150806 110.441661 
L 229.686928 109.732607 
L 226.733186 107.925664 
L 223.528246 106.427502 
L 222.939231 105.970048 
L 220.305983 104.917903 
L 219.024007 104.20885 
L 212.882649 100.640708 
L 211.912505 100.091763 
L 210.994333 99.439891 
L 210.491937 98.936692 
L 208.690241 98.090402 
L 206.879883 96.706603 
L 205.710513 96.123349 
L 204.956919 95.860313 
L 203.553675 95.197005 
L 202.964659 95.048332 
L 202.592193 94.808169 
L 202.479587 94.362151 
L 203.042617 93.435807 
L 203.960789 92.074881 
L 204.688397 91.194282 
L 205.589245 90.508101 
L 206.888545 89.673247 
L 207.581505 89.467393 
L 208.343761 89.513138 
L 209.894259 89.94772 
L 214.259907 92.292172 
L 215.533221 92.932607 
L 217.282945 93.778897 
L 217.707383 94.076242 
L 217.949919 94.39646 
L 218.010553 94.888223 
L 218.183793 95.254187 
L 218.218441 95.139823 
L 217.681397 94.568005 
L 217.880623 94.304969 
L 218.261751 93.138462 
L 219.257881 92.326481 
L 219.491755 91.971954 
L 219.786263 91.068482 
L 219.976827 91.297209 
L 220.193377 91.823281 
L 220.158729 93.115589 
L 219.621685 94.019061 
L 219.699643 94.442206 
L 220.409927 95.437168 
L 222.150989 96.569367 
L 225.139378 98.467801 
L 226.845792 99.485636 
L 227.590724 99.554255 
L 228.517558 100.057454 
L 235.3692 104.20885 
L 240.860908 107.067937 
L 244.37768 109.195099 
L 246.439236 110.35017 
L 247.851142 110.876242 
L 249.713472 111.768278 
L 251.636436 112.408713 
L 252.225452 112.671749 
L 252.892426 112.728931 
L 253.5594 112.54595 
L 254.20905 112.214295 
L 255.707576 109.869843 
L 256.876946 108.566099 
L 258.167583 106.610483 
L 258.600683 105.489721 
L 259.683433 103.202451 
L 260.792169 101.223962 
L 260.870127 100.800817 
L 259.891321 98.719401 
L 262.126117 97.461402 
L 262.697809 96.546494 
L 263.416755 95.36855 
L 265.097183 92.806807 
L 265.824791 91.331518 
L 266.725639 90.279374 
L 267.756417 88.335194 
L 268.622617 86.208033 
L 270.346355 83.371818 
L 270.623539 82.582709 
L 271.013329 80.970184 
L 271.740937 79.346222 
L 272.771715 77.733696 
L 274.408833 75.926753 
L 275.976655 73.044792 
L 279.008355 67.029272 
L 279.943851 64.844929 
L 281.000615 63.666984 
L 281.918787 62.923622 
L 282.958227 62.603404 
L 283.027523 62.374677 
L 282.759001 61.848604 
L 283.581891 59.687134 
L 285.574151 56.416338 
L 285.989927 55.432811 
L 287.098663 53.614432 
L 287.566411 51.99047 
L 288.423949 50.972634 
L 289.983109 47.850511 
L 290.381561 47.347311 
L 291.100507 46.089312 
L 294.331432 41.1145 
L 295.180308 39.662083 
L 298.688418 32.937509 
L 299.04356 32.445745 
L 299.467998 32.4 
L 299.918422 32.605854 
L 300.90589 33.486453 
L 302.620966 34.996052 
L 303.391884 35.510688 
L 304.084844 36.071069 
L 304.206112 36.116814 
L 304.128154 36.265487 
L 304.128154 36.265487 
" clip-path="url(#p4cb36b2ede)" style="fill: none; stroke: #000000; stroke-width: 3"/>
   </g>
  </g>
 </g>
 <defs>
  <clipPath id="p4cb36b2ede">
   <rect x="7.2" y="7.2" width="430.369725" height="554.4"/>
  </clipPath>
 </defs>
</svg>
