<?xml version="1.0" encoding="utf-8" standalone="no"?>
<!DOCTYPE svg PUBLIC "-//W3C//DTD SVG 1.1//EN"
  "http://www.w3.org/Graphics/SVG/1.1/DTD/svg11.dtd">
<svg xmlns:xlink="http://www.w3.org/1999/xlink" width="260.011584pt" height="568.8pt" viewBox="0 0 260.011584 568.8" xmlns="http://www.w3.org/2000/svg" version="1.1">
 <metadata>
  <rdf:RDF xmlns:dc="http://purl.org/dc/elements/1.1/" xmlns:cc="http://creativecommons.org/ns#" xmlns:rdf="http://www.w3.org/1999/02/22-rdf-syntax-ns#">
   <cc:Work>
    <dc:type rdf:resource="http://purl.org/dc/dcmitype/StillImage"/>
    <dc:date>2023-07-31T05:02:54.862881</dc:date>
    <dc:format>image/svg+xml</dc:format>
    <dc:creator>
     <cc:Agent>
      <dc:title>Matplotlib v3.7.2, https://matplotlib.org/</dc:title>
     </cc:Agent>
    </dc:creator>
   </cc:Work>
  </rdf:RDF>
 </metadata>
 <defs>
  <style type="text/css">*{stroke-linejoin: round; stroke-linecap: butt}</style>
 </defs>
 <g id="figure_1">
  <g id="patch_1">
   <path d="M 0 568.8 
L 260.011584 568.8 
L 260.011584 0 
L 0 0 
z
" style="fill: #ffffff"/>
  </g>
  <g id="axes_1">
   <g id="LineCollection_1">
    <path d="M 48.81085 533.673478 
L 47.913894 535.353637 
L 47.664739 535.503118 
L 46.355545 535.879808 
L 45.725864 536.226603 
L 44.489151 536.4 
L 43.32492 536.09506 
L 43.152777 535.861871 
L 42.840201 534.893238 
L 42.332832 534.098002 
L 41.979485 532.053111 
L 41.816402 531.688378 
L 41.413225 531.150249 
L 40.878675 531.108395 
L 38.708765 531.216021 
L 38.210456 531.168187 
L 38.033783 530.570265 
L 36.167389 527.939411 
L 35.814042 527.168092 
L 35.261372 525.272681 
L 35.234192 524.51332 
L 35.863873 520.800228 
L 36.22175 517.960101 
L 35.977125 517.182803 
L 35.410865 516.578902 
L 34.713232 516.303858 
L 34.319115 516.220149 
L 33.268136 516.034793 
L 33.023511 515.8315 
L 32.93744 515.568415 
L 33.073342 514.904722 
L 33.775505 513.296313 
L 34.223983 511.855322 
L 34.409717 511.131837 
L 34.908026 509.654971 
L 35.084699 509.134779 
L 35.320263 508.034604 
L 35.496937 507.663892 
L 36.045077 507.125763 
L 37.730267 505.786419 
L 38.269347 504.979225 
L 38.9851 503.502358 
L 39.52871 502.689185 
L 39.777865 502.061368 
L 41.911534 498.69507 
L 42.586516 497.971584 
L 44.226406 498.336317 
L 46.04297 498.910321 
L 46.464267 499.364742 
L 46.527689 499.747411 
L 46.255884 500.841608 
L 45.893477 501.618906 
L 45.295506 503.203398 
L 44.625054 504.315532 
L 44.289828 504.608513 
L 44.040673 504.459033 
L 43.86853 504.166051 
L 43.845879 504.064405 
L 43.238848 503.891007 
L 41.662379 503.771423 
L 41.336213 503.867091 
L 40.783543 503.430608 
L 39.922828 502.127139 
L 40.149332 501.403654 
L 40.421137 500.793774 
L 40.733712 500.638314 
L 41.752981 499.191344 
L 41.725801 498.611361 
L 41.567248 498.210753 
L 40.511738 497.792208 
L 39.415458 497.499226 
L 39.293146 497.612832 
L 38.930739 498.892384 
L 38.663465 500.046372 
L 38.319178 501.212319 
L 37.390511 502.784853 
L 37.974892 503.065876 
L 38.369009 503.209377 
L 38.93527 503.382774 
L 39.419988 503.113709 
L 40.199163 501.756428 
L 41.082529 499.60391 
L 41.857173 498.222712 
L 41.059878 499.579993 
L 41.055348 500.076268 
L 40.008899 502.282599 
L 39.329387 503.203398 
L 39.125533 503.281128 
L 38.237637 502.844645 
L 37.399571 502.390224 
L 37.200248 501.905908 
L 37.028105 502.300536 
L 36.855961 503.813278 
L 36.76083 504.219864 
L 36.416543 504.423158 
L 36.425604 504.399241 
L 36.77442 504.285636 
L 36.828781 503.902966 
L 36.923913 503.33494 
L 37.30444 502.240744 
L 38.237637 501.337883 
L 38.654404 500.889441 
L 39.419988 498.300441 
L 39.474349 498.091169 
L 39.415458 497.517164 
L 39.651023 496.476781 
L 39.814106 496.207716 
L 40.131211 494.952081 
L 41.105179 494.019323 
L 41.222961 493.499132 
L 41.13689 492.721834 
L 40.62499 492.034224 
L 39.990779 491.687429 
L 39.107413 491.370531 
L 38.074554 490.736734 
L 37.485643 490.318189 
L 36.434664 490.049124 
L 35.025808 489.463161 
L 34.477668 488.978845 
L 33.852516 488.673905 
L 33.49464 488.584217 
L 33.186594 487.992274 
L 33.272666 487.286727 
L 33.340617 486.939933 
L 33.245485 486.694785 
L 33.077872 486.593138 
L 32.855898 486.599117 
L 32.004243 486.300157 
L 27.845626 484.590101 
L 25.557935 484.189494 
L 24.280451 483.902491 
L 22.56808 483.418175 
L 21.603172 483.262715 
L 21.095803 483.101277 
L 20.325689 482.431604 
L 20.176196 482.030997 
L 19.455913 482.455521 
L 18.848882 482.335937 
L 19.623526 482.628919 
L 18.789991 482.437584 
L 18.364163 482.282124 
L 19.088976 482.54521 
L 19.614466 482.587064 
L 19.587285 482.54521 
L 19.451383 482.08481 
L 19.705067 482.030997 
L 20.067474 482.042955 
L 20.253207 482.08481 
L 20.307568 482.359854 
L 20.298508 482.587064 
L 20.629204 482.951796 
L 21.344957 483.101277 
L 22.078831 483.358383 
L 24.493365 483.878574 
L 25.059625 484.034034 
L 28.656511 484.960812 
L 29.381325 485.43915 
L 30.898902 485.89357 
L 31.88646 486.12078 
L 31.84116 486.114801 
L 32.93744 486.419741 
L 33.553531 486.413762 
L 33.947648 486.007175 
L 34.300995 485.13421 
L 34.61357 482.939838 
L 34.686052 481.720078 
L 34.735883 481.038447 
L 35.14359 480.17744 
L 35.433515 479.453955 
L 35.66002 478.204299 
L 35.986186 475.579424 
L 36.556976 472.117458 
L 36.946563 470.802031 
L 36.874082 470.132359 
L 37.254609 468.308698 
L 37.490173 467.136772 
L 38.151565 465.02013 
L 38.44149 463.698723 
L 38.699705 463.405742 
L 39.062112 463.316054 
L 39.569481 463.704703 
L 41.376984 466.096389 
L 41.920594 466.496996 
L 42.962513 466.550809 
L 43.193547 466.329578 
L 43.805109 464.589627 
L 43.959131 463.919954 
L 44.063323 463.339971 
L 44.018023 463.11874 
L 43.719037 462.891529 
L 43.936481 462.819779 
L 44.027083 462.969259 
L 44.203756 462.999155 
L 44.162985 463.196469 
L 44.788137 463.57316 
L 45.127893 463.310075 
L 45.245675 463.232345 
L 45.925187 463.579139 
L 46.002199 463.519347 
L 45.975018 463.49543 
L 45.820996 463.333991 
L 45.793815 463.4177 
L 45.798345 463.357908 
L 45.635262 463.202449 
L 45.52201 463.166573 
L 45.358927 463.304095 
L 45.177724 463.256262 
L 44.919509 463.357908 
L 44.797197 464.063456 
L 44.760956 463.919954 
L 44.665824 463.674807 
L 44.842498 463.519347 
L 45.259265 463.322033 
L 45.576371 463.172553 
L 45.472179 462.945342 
L 45.268325 462.891529 
L 45.064472 463.029051 
L 44.665824 463.866142 
L 43.913831 464.517876 
L 43.805109 464.607564 
L 43.836819 465.032088 
L 43.777928 465.223423 
L 43.845879 465.809386 
L 43.664676 465.988763 
L 43.682796 466.000721 
L 44.208286 466.401329 
L 44.810787 466.628539 
L 45.834586 467.011209 
L 47.809702 467.597172 
L 47.932014 467.908091 
L 48.104157 468.290761 
L 48.919572 469.103934 
L 49.671566 469.319186 
L 51.343167 470.090504 
L 53.494956 471.746747 
L 54.192589 472.320752 
L 54.600296 472.249001 
L 54.645597 472.278897 
L 55.089545 473.044237 
L 55.796238 473.355156 
L 58.133761 474.580895 
L 58.863104 474.987482 
L 62.247076 477.684108 
L 63.207454 478.628824 
L 64.471347 479.705082 
L 65.612928 480.452484 
L 66.478174 481.235761 
L 66.944772 481.415138 
L 67.520093 481.594514 
L 68.485001 482.288103 
L 69.00143 482.730565 
L 69.599401 483.298591 
L 69.608461 483.155089 
L 69.477089 482.736544 
L 69.02861 482.38975 
L 67.723947 481.690182 
L 67.298119 481.385242 
L 67.37513 481.199886 
L 67.791898 480.739487 
L 68.385339 479.699103 
L 70.994666 477.737921 
L 71.225701 477.81565 
L 72.317451 479.107161 
L 72.779519 479.693124 
L 73.218937 480.267129 
L 74.306157 481.433075 
L 75.461328 482.808295 
L 77.975524 486.258302 
L 78.224679 486.461595 
L 78.342461 486.760556 
L 78.120487 487.370436 
L 77.119339 488.63803 
L 76.65274 489.104408 
L 76.322044 489.612642 
L 76.004938 490.288293 
L 77.046857 491.388469 
L 77.219 491.621658 
L 77.286952 492.416894 
L 77.74449 493.397485 
L 78.138607 493.96551 
L 78.768289 494.748788 
L 79.098985 495.358667 
L 81.336846 499.22722 
L 81.966527 499.90885 
L 81.826095 500.387187 
L 81.413857 500.913358 
L 81.5407 501.12861 
L 81.998238 501.254174 
L 82.519197 501.194381 
L 83.805741 500.488834 
L 84.530554 499.956684 
L 86.025482 498.934238 
L 86.319937 499.292991 
L 86.741235 500.046372 
L 88.430956 502.336412 
L 89.907763 504.136155 
L 89.975714 504.32749 
L 89.898703 504.572638 
L 89.635958 504.86562 
L 88.503437 505.660855 
L 87.438868 506.545779 
L 85.015273 508.465107 
L 83.887283 509.565283 
L 82.618859 510.396393 
L 81.667542 511.10792 
L 81.046921 511.669966 
L 80.46254 512.279846 
L 80.127314 512.399431 
L 79.438741 513.075082 
L 79.597294 513.46971 
L 80.104663 514.109486 
L 79.828328 514.294842 
L 79.561053 514.408447 
L 79.203177 513.816505 
L 78.881541 513.643107 
L 79.053684 513.810525 
L 79.311899 514.151341 
L 78.31075 513.834442 
L 77.907573 514.408447 
L 77.137459 514.779158 
L 75.375257 516.309837 
L 73.028674 518.426479 
L 68.113534 522.091738 
L 67.782838 521.85257 
L 67.719417 521.732985 
L 67.633345 521.810715 
L 68.099943 521.912362 
L 68.407989 522.097717 
L 68.824757 522.103697 
L 68.888178 521.936279 
L 68.783986 521.990092 
L 68.45329 522.169468 
L 68.317387 522.38472 
L 68.272087 522.599972 
L 68.417049 523.173976 
L 68.335508 523.012537 
L 67.34342 523.329436 
L 67.302649 523.102226 
L 67.184867 523.215831 
L 67.289059 523.042433 
L 68.045582 523.383249 
L 67.760187 523.162018 
L 67.733007 522.773369 
L 67.864379 522.474408 
L 68.090883 522.474408 
L 68.308327 522.492346 
L 67.420431 522.898932 
L 66.600486 523.138101 
L 65.920974 523.688189 
L 66.152008 523.771898 
L 63.982098 525.607517 
L 64.131591 525.643392 
L 65.17804 524.913928 
L 65.680879 525.147117 
L 65.988925 525.398244 
L 66.346801 525.96627 
L 66.224489 525.828748 
L 65.934564 525.637413 
L 65.1871 525.254743 
L 65.051198 525.35639 
L 64.321854 525.212889 
L 63.855256 524.752489 
L 63.347886 524.023025 
L 61.495083 521.308461 
L 60.987713 520.549101 
L 60.620777 520.291994 
L 60.566416 519.843553 
L 60.838221 519.550572 
L 62.138354 518.599877 
L 63.642342 517.493722 
L 63.909617 517.009405 
L 64.199542 516.465297 
L 65.323003 515.347184 
L 65.961744 514.46226 
L 66.872291 513.92413 
L 67.33889 513.583315 
L 69.458968 511.341109 
L 69.703593 511.048128 
L 69.680942 511.03019 
L 69.730773 510.749167 
L 70.555248 510.234955 
L 72.2948 508.991278 
L 73.91204 507.400807 
L 75.366197 505.840232 
L 76.684451 504.728098 
L 77.708249 503.430608 
L 78.383232 502.922375 
L 79.597294 501.624885 
L 79.864569 501.146548 
L 80.811356 500.243686 
L 81.228124 500.082247 
L 81.993708 499.956684 
L 82.63698 499.597931 
L 83.438804 498.892384 
L 84.172678 497.965605 
L 85.549823 496.10009 
L 86.596272 494.946102 
L 87.900936 493.487173 
L 89.047047 492.2136 
L 90.501204 490.898173 
L 93.346096 487.926503 
L 93.771923 487.292706 
L 95.411814 484.948854 
L 95.615667 484.996688 
L 96.83879 486.802411 
L 100.426615 491.101466 
L 101.513835 493.271921 
L 101.948723 494.180762 
L 102.360961 494.838476 
L 102.909101 494.832497 
L 103.452711 494.671058 
L 104.322487 494.258492 
L 105.03371 493.726342 
L 105.640741 493.337693 
L 105.971437 492.697917 
L 106.030328 492.548436 
L 108.263659 491.37651 
L 109.387119 491.089508 
L 110.728024 490.724776 
L 110.592121 490.605191 
L 110.161764 490.886215 
L 109.708755 491.179196 
L 106.949935 492.428852 
L 106.220591 492.829459 
L 105.436887 493.014815 
L 105.468598 493.20615 
L 105.645271 493.176254 
L 106.12093 492.626166 
L 106.918224 492.315247 
L 107.366702 491.920619 
L 108.114166 491.567845 
L 109.459601 491.173217 
L 109.98509 491.053633 
L 110.718964 490.832402 
L 115.865138 489.935519 
L 116.875346 489.792018 
L 117.844784 489.588725 
L 118.469936 489.47512 
L 118.660199 489.212034 
L 118.651139 488.536383 
L 118.279672 486.646951 
L 118.755331 486.258302 
L 119.982983 485.875632 
L 122.50624 485.313586 
L 124.209551 485.062459 
L 126.972901 484.279182 
L 127.122394 483.705177 
L 127.208466 482.144602 
L 126.637675 476.302909 
L 126.501773 475.202733 
L 126.35681 474.036786 
L 125.953633 472.249001 
L 125.849441 470.676468 
L 125.731659 468.972391 
L 125.400963 467.256356 
L 125.364722 466.604622 
L 125.455324 465.420737 
L 125.441733 464.930442 
L 125.468914 464.673336 
L 124.997785 463.322033 
L 124.612728 462.138148 
L 123.733892 460.529739 
L 123.883385 460.14707 
L 124.259382 460.033465 
L 126.655796 459.166478 
L 126.560664 458.861538 
L 126.37946 458.514744 
L 126.32963 457.892906 
L 126.202787 457.199317 
L 125.410023 455.1903 
L 125.382842 454.323314 
L 125.844911 453.336744 
L 126.488182 452.021316 
L 126.320569 451.76421 
L 125.80414 451.489166 
L 125.047616 451.417416 
L 124.540247 451.124434 
L 124.318273 451.208143 
L 124.18237 451.405457 
L 124.137069 452.272443 
L 124.209551 453.13943 
L 124.436055 454.347231 
L 124.522126 454.96309 
L 125.129158 456.667167 
L 125.201639 457.223234 
L 125.604816 457.910843 
L 125.885681 458.401139 
L 126.288859 460.117174 
L 126.574254 461.008077 
L 126.782638 461.839188 
L 128.100892 465.139714 
L 128.490479 465.301153 
L 129.564109 467.674902 
L 130.130369 468.715285 
L 129.949166 468.248906 
L 129.396496 466.245869 
L 128.907247 464.828795 
L 128.721513 463.913975 
L 127.774726 461.259204 
L 127.312658 460.302529 
L 127.412319 460.75695 
L 127.593523 461.701666 
L 127.543692 461.833208 
L 127.643354 461.504352 
L 127.344368 460.547677 
L 125.559515 456.810668 
L 124.812052 455.525136 
L 124.504006 454.676088 
L 124.345453 453.575912 
L 124.17331 452.553467 
L 124.19143 452.248527 
L 124.359043 452.099046 
L 124.567427 452.152859 
L 124.499476 452.511612 
L 124.467765 452.499654 
L 124.472296 452.505633 
L 124.6988 453.049741 
L 124.72598 453.468286 
L 124.558367 452.140901 
L 124.354513 452.051212 
L 124.200491 452.14688 
L 124.100829 452.6013 
L 124.15519 453.354681 
L 124.309213 454.006416 
L 124.340923 453.833019 
L 124.408874 453.492203 
L 124.214081 452.702947 
L 124.241261 451.30979 
L 124.436055 451.202164 
L 124.870943 451.411436 
L 125.423613 451.572875 
L 125.749779 451.447312 
L 125.885681 451.255977 
L 125.79961 450.783619 
L 125.509685 450.646097 
L 124.70786 450.149822 
L 123.670471 449.70736 
L 123.185752 449.767152 
L 122.52889 449.593755 
L 122.184604 449.390462 
L 121.97169 449.336649 
L 121.804077 449.456233 
L 121.867498 449.599734 
L 122.891297 449.982404 
L 123.326185 450.227552 
L 125.070266 450.783619 
L 126.320569 451.632667 
L 129.210762 452.744801 
L 130.320633 452.505633 
L 131.086217 451.285873 
L 131.856331 449.157272 
L 132.857479 447.27382 
L 133.025092 446.12581 
L 133.296897 445.641494 
L 134.325226 443.142182 
L 135.489457 440.977706 
L 135.684251 440.230304 
L 135.6163 439.674237 
L 135.765792 439.04044 
L 136.082898 439.201879 
L 138.633335 440.475452 
L 139.376268 440.810288 
L 139.779446 441.145124 
L 139.860987 441.25275 
L 143.788569 442.520344 
L 144.508852 442.759512 
L 146.54286 443.530831 
L 146.882616 443.506914 
L 147.226902 443.638457 
L 147.575719 443.620519 
L 148.667469 444.194524 
L 149.83623 445.109344 
L 150.425141 445.432221 
L 151.050292 445.796953 
L 152.02426 446.233436 
L 152.690182 446.574251 
L 156.237237 447.943492 
L 159.240682 449.145314 
L 160.459274 449.70736 
L 163.562381 450.867328 
L 166.606597 452.06915 
L 168.513762 452.643155 
L 170.475288 453.653642 
L 171.589688 454.191771 
L 173.972512 455.052778 
L 176.305505 456.02739 
L 178.652087 456.79273 
L 180.903539 457.289005 
L 182.026999 457.713529 
L 182.724632 458.030428 
L 184.563846 458.801746 
L 186.706575 459.7644 
L 187.390617 459.895943 
L 188.64545 460.475927 
L 198.181275 464.290666 
L 198.910618 464.673336 
L 201.402164 465.821345 
L 201.279852 466.204015 
L 201.075998 466.807915 
L 201.279852 467.142751 
L 199.948007 470.413382 
L 199.214134 471.11295 
L 198.593513 471.34016 
L 197.578774 471.453765 
L 196.663697 471.489641 
L 196.192569 471.567371 
L 195.531177 471.615204 
L 195.630838 471.848394 
L 195.644429 471.836435 
L 196.26958 471.537474 
L 197.488172 471.459745 
L 199.322856 471.214597 
L 199.676202 471.316244 
L 199.775864 471.148826 
L 199.662612 471.124909 
L 198.362478 471.364077 
L 197.252608 471.382015 
L 192.99433 471.836435 
L 192.831247 472.039729 
L 193.116642 473.761743 
L 194.07249 473.755763 
L 195.214071 473.70195 
L 195.390744 473.863389 
L 195.304672 473.636179 
L 195.340913 472.631671 
L 195.653489 472.452294 
L 196.419073 472.380544 
L 195.70785 472.512087 
L 195.544767 473.09207 
L 195.585538 473.432886 
L 195.807512 473.749784 
L 195.766741 474.102558 
L 195.621778 474.156371 
L 195.408864 474.078641 
L 195.20048 473.594324 
L 195.300142 472.667546 
L 196.047606 472.344669 
L 196.215219 472.290856 
L 195.753151 472.476211 
L 195.132529 473.450823 
L 194.951326 473.678034 
L 194.792773 473.743805 
L 194.140441 473.70793 
L 193.125702 473.755763 
L 192.939969 473.486699 
L 192.717995 471.87829 
L 192.43713 471.872311 
L 191.671546 471.95004 
L 190.199269 471.489641 
L 188.63639 471.57335 
L 188.332875 471.615204 
L 188.08372 471.501599 
L 187.925167 471.26841 
L 187.5084 466.592664 
L 187.367967 464.697252 
L 187.159583 463.656869 
L 187.046331 460.188924 
L 186.97838 459.788317 
L 186.783586 459.45946 
L 186.140315 459.052873 
L 185.533283 458.789788 
L 184.998734 458.454952 
L 185.016854 458.496806 
L 185.034974 458.460931 
L 184.26486 458.359284 
L 183.6986 458.263617 
L 183.059858 458.209804 
L 181.682713 457.623841 
L 181.062092 457.336839 
L 178.661148 456.242642 
L 176.024639 455.160404 
L 171.213691 453.324785 
L 169.560211 452.696968 
L 167.562444 452.081109 
L 166.638308 451.405457 
L 163.127493 449.946529 
L 161.120667 449.163252 
L 160.989294 448.965937 
L 161.931551 446.89115 
L 162.189766 446.753628 
L 162.41627 446.496522 
L 162.701665 444.642965 
L 162.760557 444.092877 
L 163.236215 442.897034 
L 163.766235 441.988193 
L 164.418567 440.738537 
L 164.636011 439.183942 
L 164.839865 438.795293 
L 165.084489 438.603958 
L 165.369884 437.916348 
L 165.623569 437.449969 
L 165.745881 437.29451 
L 165.297403 437.665221 
L 165.15697 437.790784 
L 165.179621 437.778826 
L 164.826274 438.328914 
L 164.6043 438.50829 
L 164.531819 439.369297 
L 164.269074 440.021032 
L 164.545409 440.242263 
L 165.365354 440.630912 
L 165.542027 440.977706 
L 165.714171 441.031519 
L 165.863663 440.786371 
L 165.6734 440.595036 
L 164.830804 440.349888 
L 164.414037 440.068865 
L 163.829656 439.757946 
L 163.041422 439.183942 
L 161.261099 438.43654 
L 160.998354 438.424581 
L 161.002884 438.227267 
L 161.079896 438.149537 
L 161.057245 438.191392 
L 161.102546 437.940265 
L 161.483073 437.802743 
L 161.727698 437.790784 
L 164.445747 439.010544 
L 164.241894 438.938794 
L 163.929318 438.687667 
L 163.698284 438.514269 
L 163.014241 438.143558 
L 162.94629 438.340872 
L 163.335877 438.556124 
L 164.164882 438.920856 
L 164.223773 439.100233 
L 164.001799 439.506819 
L 163.779825 439.626403 
L 161.709577 439.106212 
L 161.474013 438.902918 
L 160.889632 438.597978 
L 160.545346 438.155517 
L 160.259951 437.910369 
L 158.837505 436.977611 
L 157.587202 436.182376 
L 157.324457 436.110625 
L 157.50566 435.512703 
L 158.959817 431.375087 
L 159.507957 430.549955 
L 161.528374 424.87568 
L 162.031213 423.643961 
L 162.647304 421.581132 
L 163.036892 421.13867 
L 164.636011 416.971157 
L 164.903286 415.912836 
L 165.736821 414.148968 
L 166.352912 414.142989 
L 168.39598 414.944203 
L 169.999629 415.470374 
L 171.417545 416.002525 
L 173.447022 416.815698 
L 197.827929 426.735216 
L 202.348951 429.252465 
L 203.196077 429.694927 
L 204.500741 430.137389 
L 206.675181 430.699435 
L 212.210942 432.283927 
L 212.962936 432.57093 
L 213.787411 432.57093 
L 214.149817 432.487221 
L 214.417092 432.200218 
L 214.439743 431.817549 
L 214.235889 431.536525 
L 213.511076 431.363128 
L 212.795323 431.470754 
L 211.667332 431.50065 
L 211.658272 431.721881 
L 212.414796 432.200218 
L 213.094308 432.457325 
L 213.72399 432.529075 
L 214.022975 432.487221 
L 214.29025 432.319803 
L 214.398972 432.056717 
L 214.362731 431.775694 
L 213.982204 431.470754 
L 213.026357 431.225606 
L 211.341166 431.040251 
L 210.330957 430.878812 
L 209.261858 430.789124 
L 207.798641 430.304807 
L 205.057941 429.228548 
L 203.137186 428.391458 
L 199.381747 426.274816 
L 197.506293 425.300204 
L 196.487024 424.857742 
L 195.390744 424.34353 
L 193.705553 423.721691 
L 192.518671 423.243354 
L 191.078105 422.430181 
L 190.697578 421.736592 
L 189.510696 421.013107 
L 188.160732 420.30158 
L 186.484601 419.099758 
L 186.475541 418.890485 
L 187.091632 417.622892 
L 187.907047 416.433028 
L 188.360055 415.572021 
L 188.396296 415.27306 
L 188.994267 414.280511 
L 190.507315 411.536051 
L 190.78818 410.758753 
L 191.852749 408.761695 
L 193.279725 406.615157 
L 195.594598 402.513415 
L 197.239018 399.314535 
L 198.47573 396.922849 
L 201.261731 391.744849 
L 201.655849 390.836008 
L 202.675117 389.646144 
L 204.210815 387.098999 
L 204.518861 386.40541 
L 205.479239 384.749167 
L 206.480387 382.770047 
L 207.042117 381.723684 
L 207.893773 379.900024 
L 208.256179 379.230352 
L 208.2743 378.901495 
L 207.816761 378.506867 
L 207.069298 378.183989 
L 205.442998 377.293086 
L 203.775927 376.4261 
L 203.241378 376.414141 
L 202.865381 376.467954 
L 200.237933 374.429042 
L 197.538003 372.84455 
L 196.695408 372.300441 
L 192.776886 370.141945 
L 191.798388 369.591857 
L 188.822124 367.792113 
L 186.620503 366.847397 
L 183.875273 365.364552 
L 183.019087 364.569316 
L 182.135721 363.989332 
L 180.002052 362.518445 
L 177.569398 361.406311 
L 177.1481 361.286727 
L 175.5218 360.401803 
L 173.999692 359.594609 
L 173.179747 359.122251 
L 169.981509 357.663323 
L 167.807069 356.658815 
L 167.023365 356.150581 
L 166.316672 355.636369 
L 163.195445 353.920334 
L 156.246297 349.573445 
L 156.39126 349.657154 
L 156.740076 349.1549 
L 156.826148 348.861918 
L 156.731016 348.485228 
L 156.780847 348.096579 
L 156.92128 347.773701 
L 157.039062 347.648137 
L 156.576993 348.054724 
L 156.563403 348.036786 
L 156.91675 347.438865 
L 157.156844 346.846923 
L 157.256506 346.673525 
L 157.039062 346.392502 
L 156.717426 345.997874 
L 157.310867 345.41789 
L 158.198763 345.03522 
L 159.630269 343.582271 
L 160.21918 342.900641 
L 160.400383 342.571784 
L 160.595177 341.794486 
L 161.170497 340.748123 
L 162.561233 338.362416 
L 162.737906 337.65089 
L 164.667721 334.260675 
L 165.795712 332.62237 
L 167.458253 329.770284 
L 169.329177 326.176776 
L 169.967918 324.957016 
L 170.457167 324.155801 
L 172.178599 320.819399 
L 172.844521 319.503972 
L 173.524034 318.266274 
L 174.330388 317.148161 
L 178.987314 308.544071 
L 179.938631 306.594846 
L 181.50151 303.987909 
L 183.068918 301.147782 
L 183.662359 299.975855 
L 184.319221 298.666407 
L 188.033889 292.220813 
L 188.985207 290.959199 
L 189.510696 289.793252 
L 190.036186 288.59143 
L 191.118876 286.558497 
L 193.678373 281.996356 
L 195.454165 279.419314 
L 196.419073 277.583695 
L 196.853961 276.561249 
L 197.93212 274.378835 
L 198.371539 273.619475 
L 198.665994 273.290618 
L 200.029549 271.150059 
L 201.211901 269.386191 
L 201.809871 268.064784 
L 202.108857 267.17986 
L 203.585664 264.309837 
L 204.133804 263.155849 
L 205.085121 261.571357 
L 205.637792 260.369534 
L 205.918657 259.394922 
L 206.992286 257.750638 
L 207.250501 257.595179 
L 207.318452 257.338072 
L 207.223321 257.015195 
L 207.277682 256.770047 
L 207.440765 256.578712 
L 207.930014 256.333564 
L 208.980993 255.095867 
L 209.248268 254.832781 
L 209.3887 254.485987 
L 209.714866 254.270735 
L 209.93684 253.439624 
L 209.950431 252.949329 
L 210.267536 252.369345 
L 210.783966 251.777402 
L 211.381937 251.065876 
L 212.342314 250.079305 
L 212.419326 249.858074 
L 212.287953 249.176444 
L 212.858744 247.866996 
L 215.613034 244.189778 
L 216.324257 243.627732 
L 216.641363 243.011873 
L 216.713844 242.174783 
L 216.505461 241.05069 
L 216.596062 240.74575 
L 218.489637 239.191155 
L 219.309582 238.246439 
L 219.531556 237.720268 
L 219.522496 237.540891 
L 219.893963 236.428757 
L 220.804509 234.336032 
L 221.243927 233.122251 
L 222.213365 230.760461 
L 222.571242 229.70214 
L 223.463668 228.877008 
L 223.898556 228.578048 
L 224.211132 228.195378 
L 224.67773 227.920334 
L 225.017486 227.57354 
L 225.77401 226.054819 
L 226.530534 224.631766 
L 227.703826 223.166858 
L 228.233845 221.55247 
L 229.316535 219.979936 
L 229.941687 218.150297 
L 230.494357 216.930537 
L 231.182929 214.945437 
L 231.377723 214.485038 
L 232.994962 212.404271 
L 233.515922 211.076885 
L 234.566901 209.235287 
L 234.630322 208.691178 
L 235.731133 206.574536 
L 237.139988 204.822626 
L 237.810441 203.274009 
L 238.3314 202.544545 
L 238.84783 201.928686 
L 239.214766 201.259014 
L 239.531872 200.858406 
L 240.048302 199.91967 
L 240.904487 198.717847 
L 241.362026 197.910653 
L 241.647421 197.103459 
L 241.520578 196.541413 
L 241.217063 196.11091 
L 239.9577 195.34557 
L 239.445801 194.897129 
L 240.229505 195.076505 
L 240.469599 195.184131 
L 241.117401 196.242452 
L 240.134373 197.94055 
L 239.876158 198.69991 
L 239.898809 198.897224 
L 239.649654 199.542979 
L 239.047153 199.566896 
L 238.34499 199.220102 
L 237.24418 198.550429 
L 234.816056 197.366545 
L 234.272446 196.852332 
L 233.343779 196.266369 
L 233.008553 195.991325 
L 231.876032 195.57278 
L 230.974545 195.279799 
L 229.792194 194.73569 
L 227.268938 192.947905 
L 226.131887 192.487505 
L 225.044667 192.021127 
L 223.943857 191.38733 
L 219.373003 188.684725 
L 218.879224 188.451535 
L 218.367325 188.128658 
L 217.55644 187.763925 
L 216.591532 187.357339 
L 215.427301 186.74148 
L 214.186058 186.161496 
L 212.772672 185.629346 
L 209.742047 183.578475 
L 209.782817 183.434974 
L 209.347929 183.010449 
L 208.197288 182.69953 
L 204.514331 181.061225 
L 202.122447 179.65013 
L 201.012577 179.153856 
L 200.591279 178.902729 
L 199.880056 178.328724 
L 197.33415 176.672481 
L 197.057814 176.295791 
L 196.314881 175.775599 
L 195.295612 175.261387 
L 195.870933 174.597694 
L 196.092907 174.113377 
L 196.423603 173.48556 
L 197.080465 172.881659 
L 197.125766 172.475072 
L 199.612781 169.162587 
L 199.635432 168.325497 
L 199.485939 168.008599 
L 199.721503 167.578095 
L 200.233403 167.057903 
L 201.098648 165.975666 
L 201.615078 165.228264 
L 201.959364 164.199839 
L 202.82461 162.244635 
L 203.268558 160.564476 
L 203.640025 160.062222 
L 204.237996 159.195236 
L 205.125892 157.843933 
L 205.615141 157.186219 
L 206.747662 154.112903 
L 207.689919 152.893143 
L 207.853002 152.671912 
L 208.002495 152.038115 
L 207.916423 151.685341 
L 207.703509 151.338547 
L 207.377343 151.069482 
L 204.47809 149.807868 
L 203.644555 149.514886 
L 199.685263 147.326494 
L 198.43949 146.59105 
L 195.617248 144.970683 
L 194.593449 144.342865 
L 193.705553 143.990092 
L 192.731585 143.368253 
L 188.05654 140.95863 
L 185.555934 139.302387 
L 184.119898 136.785137 
L 183.354314 136.23505 
L 182.679331 135.655066 
L 182.262564 134.889726 
L 182.162902 134.064595 
L 182.0723 126.064405 
L 182.271624 124.886499 
L 182.258034 123.242215 
L 182.298804 120.9163 
L 181.755194 118.464822 
L 181.646472 117.711441 
L 181.54681 108.796431 
L 181.438088 107.146168 
L 181.474329 104.987671 
L 181.406378 103.672244 
L 181.370137 102.769383 
L 181.732544 99.175874 
L 181.329367 98.536098 
L 181.338427 98.225179 
L 181.782375 97.878385 
L 181.963578 97.196754 
L 182.06777 95.618241 
L 182.08136 94.763214 
L 181.632882 94.189209 
L 182.335045 87.594135 
L 182.325985 81.99161 
L 182.538899 80.759892 
L 182.412056 78.63727 
L 182.701982 77.357718 
L 184.699748 73.375561 
L 185.252418 72.209614 
L 187.716783 68.532397 
L 187.612592 67.958392 
L 187.417798 67.276762 
L 188.002179 66.314108 
L 189.247951 64.31705 
L 190.072427 62.541223 
L 190.588856 62.050928 
L 191.88446 60.418602 
L 192.899198 57.913311 
L 193.229894 57.118075 
L 194.321644 55.509666 
L 195.050988 54.361657 
L 195.630838 52.998396 
L 196.663697 51.384008 
L 197.864169 48.980363 
L 198.280937 47.706791 
L 198.842667 46.899597 
L 200.337595 44.543786 
L 201.098648 43.240317 
L 201.791751 41.84716 
L 202.394252 40.346377 
L 203.227787 39.228264 
L 203.821228 37.936753 
L 205.103242 36.047321 
L 206.783903 32.62721 
L 206.942455 32.4 
L 207.377343 32.489688 
L 209.578964 34.032326 
L 209.578964 33.954596 
L 209.610674 33.9247 
L 209.624265 34.020367 
L 209.624265 34.020367 
" clip-path="url(#paf53106441)" style="fill: none; stroke: #000000; stroke-width: 3"/>
   </g>
  </g>
 </g>
 <defs>
  <clipPath id="paf53106441">
   <rect x="7.2" y="7.2" width="245.611584" height="554.4"/>
  </clipPath>
 </defs>
</svg>
