<?xml version="1.0" encoding="utf-8" standalone="no"?>
<!DOCTYPE svg PUBLIC "-//W3C//DTD SVG 1.1//EN"
  "http://www.w3.org/Graphics/SVG/1.1/DTD/svg11.dtd">
<svg xmlns:xlink="http://www.w3.org/1999/xlink" width="427.599771pt" height="568.8pt" viewBox="0 0 427.599771 568.8" xmlns="http://www.w3.org/2000/svg" version="1.1">
 <metadata>
  <rdf:RDF xmlns:dc="http://purl.org/dc/elements/1.1/" xmlns:cc="http://creativecommons.org/ns#" xmlns:rdf="http://www.w3.org/1999/02/22-rdf-syntax-ns#">
   <cc:Work>
    <dc:type rdf:resource="http://purl.org/dc/dcmitype/StillImage"/>
    <dc:date>2023-08-03T05:03:04.944042</dc:date>
    <dc:format>image/svg+xml</dc:format>
    <dc:creator>
     <cc:Agent>
      <dc:title>Matplotlib v3.7.2, https://matplotlib.org/</dc:title>
     </cc:Agent>
    </dc:creator>
   </cc:Work>
  </rdf:RDF>
 </metadata>
 <defs>
  <style type="text/css">*{stroke-linejoin: round; stroke-linecap: butt}</style>
 </defs>
 <g id="figure_1">
  <g id="patch_1">
   <path d="M 0 568.8 
L 427.599771 568.8 
L 427.599771 0 
L 0 0 
z
" style="fill: #ffffff"/>
  </g>
  <g id="axes_1">
   <g id="LineCollection_1">
    <path d="M 251.885803 187.740522 
L 253.208088 188.286189 
L 254.183272 188.700896 
L 255.174986 189.03921 
L 256.993126 189.923191 
L 257.819554 190.370638 
L 260.893865 192.771573 
L 262.513663 194.157568 
L 264.753282 195.445342 
L 264.695432 195.379862 
L 265.364838 195.488996 
L 265.794581 195.325296 
L 266.538366 194.495882 
L 267.207772 193.448201 
L 269.422598 189.36661 
L 269.819283 189.017383 
L 270.389518 189.07195 
L 273.133258 190.468858 
L 277.810839 191.789372 
L 280.513257 192.59696 
L 282.223962 193.339067 
L 283.761118 194.299441 
L 286.41395 196.372976 
L 290.190725 199.275926 
L 292.397286 200.541873 
L 294.777398 201.524074 
L 299.529357 203.270209 
L 303.537531 204.885384 
L 305.049894 205.529271 
L 307.388684 206.391425 
L 309.760531 207.450019 
L 312.033207 208.694141 
L 313.520777 209.687255 
L 314.239769 210.276575 
L 315.405032 211.706223 
L 316.272781 213.386878 
L 316.752109 215.209406 
L 317.107473 217.097415 
L 317.462837 218.985423 
L 318.826442 223.61268 
L 319.867741 225.249682 
L 323.156923 228.840171 
L 324.181694 229.353099 
L 325.636206 230.76092 
L 326.784941 232.092348 
L 330.479072 237.505366 
L 331.611278 238.913187 
L 333.338512 240.801195 
L 334.528568 242.067143 
L 334.801289 242.94021 
L 334.759967 243.824191 
L 334.032711 245.461193 
L 331.355085 250.132103 
L 328.50391 255.566948 
L 326.925433 258.164324 
L 325.851077 259.965025 
L 323.082545 265.257997 
L 322.355288 267.080525 
L 320.710697 270.605535 
L 319.611549 272.177056 
L 317.867786 274.719865 
L 316.743845 276.53148 
L 313.810027 281.922671 
L 313.421606 282.773912 
L 312.884428 283.603326 
L 312.281136 284.312693 
L 309.66136 288.525244 
L 306.421764 294.232922 
L 305.587072 296.02271 
L 303.240017 300.857321 
L 300.760734 305.309965 
L 300.364049 306.193946 
L 299.835135 306.92514 
L 296.099682 313.767806 
L 294.669962 316.125088 
L 293.422057 318.471456 
L 289.537847 326.307237 
L 289.322976 326.918384 
L 287.975899 328.151592 
L 287.711442 328.850045 
L 285.554466 332.658802 
L 284.885059 334.263064 
L 284.07516 335.681798 
L 282.926426 337.820813 
L 281.405799 340.221749 
L 281.025642 340.778329 
L 280.901678 341.46587 
L 281.149606 342.033364 
L 281.075228 342.611771 
L 280.438878 343.484838 
L 279.686829 344.608913 
L 278.587681 345.798467 
L 277.835631 347.260855 
L 277.587703 347.992049 
L 276.405912 350.000104 
L 275.496841 351.320618 
L 274.480335 352.979447 
L 272.488645 356.329843 
L 270.587861 359.833026 
L 265.108646 370.058828 
L 262.216149 375.340886 
L 256.951805 384.355307 
L 254.117158 389.691932 
L 253.472545 391.35076 
L 252.464303 394.024529 
L 251.142019 396.872912 
L 249.951963 398.346213 
L 248.49745 400.496141 
L 247.885894 401.183682 
L 247.29913 402.100403 
L 245.282647 407.076887 
L 244.489276 408.419228 
L 244.183498 409.041289 
L 242.786835 411.027517 
L 240.580273 415.425594 
L 240.439781 416.091308 
L 240.100945 416.636975 
L 239.109232 417.040769 
L 238.927418 417.76105 
L 237.894384 420.838612 
L 237.456377 422.410134 
L 236.811763 423.610602 
L 236.043186 424.123529 
L 235.679557 424.079875 
L 235.233287 424.854723 
L 234.85313 426.317111 
L 232.729211 431.239028 
L 232.481282 431.468208 
L 231.704441 431.992049 
L 230.91107 433.672704 
L 230.167285 435.287878 
L 229.076401 436.66296 
L 227.638417 438.278134 
L 226.357454 440.166143 
L 225.985561 441.23565 
L 225.332683 442.185111 
L 224.704598 442.883565 
L 224.159156 445.05532 
L 222.34928 448.733117 
L 221.696402 449.300611 
L 221.415416 449.780798 
L 221.489795 449.889931 
L 220.853446 451.450539 
L 220.903031 451.799766 
L 220.588989 453.054801 
L 221.630288 454.113395 
L 223.729414 455.79405 
L 224.217006 456.372457 
L 224.853355 456.950864 
L 225.745897 457.103651 
L 228.05163 458.227725 
L 228.564015 457.965805 
L 229.002022 457.976718 
L 229.679693 458.336859 
L 230.588763 459.199013 
L 231.035034 459.755593 
L 231.621798 460.1703 
L 231.927576 460.115733 
L 233.382089 461.370768 
L 235.101058 462.069222 
L 235.886164 462.549409 
L 236.96052 463.56435 
L 237.415056 464.491984 
L 237.820005 464.993998 
L 238.125783 465.605145 
L 239.795167 467.089359 
L 244.200026 468.715448 
L 247.439623 469.697648 
L 249.737092 470.450669 
L 250.472612 470.679849 
L 252.38166 471.771184 
L 259.042667 476.212914 
L 259.174895 476.736755 
L 258.695567 477.467949 
L 258.513753 477.926309 
L 259.505466 478.995817 
L 260.026116 480.818345 
L 259.827773 481.484059 
L 259.224481 482.324386 
L 258.993081 481.724152 
L 258.522017 481.473145 
L 257.92699 481.516799 
L 257.108826 481.353099 
L 256.158434 480.992958 
L 255.687371 481.091178 
L 254.431201 480.861998 
L 254.389879 481.222138 
L 252.976688 482.204339 
L 252.522153 482.335299 
L 251.24119 482.40078 
L 250.04287 482.193426 
L 248.761907 481.582279 
L 248.075972 481.254879 
L 246.910709 480.414551 
L 244.514069 478.242796 
L 244.142176 477.708042 
L 242.819892 476.474834 
L 242.257921 476.114694 
L 242.241393 476.529401 
L 242.373621 476.649448 
L 242.307507 476.529401 
L 242.753778 476.365701 
L 243.224842 475.852774 
L 243.249635 475.459893 
L 243.332277 475.394413 
L 243.018235 474.82692 
L 242.423207 474.335819 
L 240.026567 472.873431 
L 238.150576 471.82575 
L 235.7622 470.450669 
L 233.324239 469.151981 
L 232.778796 468.759101 
L 232.208561 468.595401 
L 231.671383 468.311654 
L 230.704463 467.536807 
L 229.8863 467.6132 
L 229.24995 467.35128 
L 228.886322 467.012966 
L 228.357409 467.31854 
L 227.878081 467.274886 
L 227.638417 466.598259 
L 227.307845 466.216292 
L 225.473176 465.201351 
L 224.63022 464.808471 
L 222.936043 464.25189 
L 222.274901 463.98997 
L 221.679873 463.62983 
L 219.952639 461.938262 
L 218.531184 461.163414 
L 218.010534 461.010628 
L 217.283278 460.59592 
L 216.795686 459.755593 
L 215.48993 458.893439 
L 215.407287 458.980746 
L 215.613894 458.991659 
L 214.572595 459.373626 
L 214.448631 459.144446 
L 214.184175 458.969832 
L 212.68834 458.009458 
L 210.820614 457.223698 
L 210.266907 457.103651 
L 209.795844 456.721684 
L 208.176046 454.735455 
L 206.233941 453.927868 
L 205.820727 453.698688 
L 205.32487 453.283981 
L 205.126528 452.618267 
L 204.886864 452.443653 
L 204.440593 452.410913 
L 204.027379 452.2363 
L 202.399316 451.854333 
L 200.696875 451.275926 
L 200.06879 450.872132 
L 200.829104 448.493023 
L 200.76299 446.997895 
L 200.498533 446.506795 
L 199.688634 445.557334 
L 193.870583 441.868624 
L 193.11027 441.443004 
L 192.854077 440.984643 
L 191.705343 440.089749 
L 191.226015 439.642302 
L 190.895444 439.020242 
L 190.36653 438.660101 
L 189.796295 437.907081 
L 187.953361 436.313733 
L 186.697191 435.604365 
L 186.333563 435.156918 
L 184.565008 433.509004 
L 183.79643 433.345303 
L 181.978289 432.057529 
L 181.862589 431.500948 
L 178.928771 429.143666 
L 173.499142 426.382591 
L 173.300799 426.15341 
L 173.424763 426.109757 
L 173.416499 425.98971 
L 172.986757 426.524464 
L 172.325614 426.197064 
L 170.234753 425.23669 
L 169.590139 424.876549 
L 169.12734 424.996596 
L 168.350498 425.804183 
L 167.482749 427.528492 
L 167.011685 428.270599 
L 166.606735 429.831207 
L 165.788572 431.544602 
L 165.028258 432.886943 
L 164.581987 433.33439 
L 164.119188 434.196544 
L 162.73079 438.081694 
L 161.863041 439.685956 
L 160.796949 441.541224 
L 159.739122 443.036352 
L 158.491216 444.837053 
L 157.317689 446.048434 
L 156.317711 447.881876 
L 155.805326 448.569417 
L 155.449962 449.344264 
L 155.127655 450.555645 
L 154.772291 450.664778 
L 153.5905 451.963466 
L 153.350836 452.574613 
L 153.218607 452.356347 
L 152.954151 452.49822 
L 152.425237 452.989321 
L 152.383916 453.534988 
L 151.706245 455.270209 
L 151.540959 456.503417 
L 151.202124 456.656204 
L 151.317824 456.765337 
L 151.375674 457.245524 
L 151.970702 457.180044 
L 152.590522 457.780278 
L 152.16078 458.795219 
L 151.954173 458.227725 
L 150.400489 460.726881 
L 149.507947 462.014655 
L 149.119526 462.320229 
L 146.532808 467.078446 
L 146.193972 467.896947 
L 144.764253 470.286969 
L 142.607277 474.052072 
L 142.408934 473.997506 
L 141.846963 474.630479 
L 141.747792 475.830947 
L 141.491599 476.420268 
L 141.235407 476.693101 
L 141.119707 477.358815 
L 140.731286 477.915396 
L 140.896571 478.199143 
L 140.7974 478.81029 
L 140.119729 480.458204 
L 137.483425 485.019982 
L 134.128129 489.920073 
L 132.648823 492.561102 
L 131.467032 494.721944 
L 131.136461 494.41637 
L 131.48356 494.28541 
L 131.029025 495.016604 
L 130.425733 496.533559 
L 129.508398 498.257867 
L 128.343135 499.338288 
L 127.483651 499.993088 
L 126.51673 500.342315 
L 125.83906 500.418709 
L 125.210975 500.604235 
L 124.285376 501.280863 
L 123.938276 502.568637 
L 122.525085 505.100533 
L 122.095342 505.9736 
L 121.690393 507.239548 
L 121.054044 508.560062 
L 120.649094 508.079875 
L 120.070595 507.741562 
L 118.740046 506.628401 
L 117.66569 506.912148 
L 115.748378 506.661141 
L 115.120293 506.33374 
L 114.674022 505.87538 
L 113.814537 505.537066 
L 113.665781 505.329713 
L 113.417852 505.198753 
L 113.012903 505.209666 
L 110.004706 504.063765 
L 110.178256 503.550838 
L 109.1039 505.264233 
L 108.831179 505.44976 
L 109.136957 505.635286 
L 109.1039 505.9736 
L 109.360093 506.508354 
L 110.004706 506.835754 
L 110.351806 507.414161 
L 110.021235 507.479641 
L 109.880742 507.839782 
L 111.632769 514.442354 
L 111.922018 515.544602 
L 112.285646 515.402728 
L 112.938524 514.780668 
L 113.95503 514.267741 
L 114.500472 514.420527 
L 114.897158 514.344134 
L 115.748378 513.340107 
L 116.23597 514.202261 
L 116.178121 514.682448 
L 116.368199 514.726101 
L 116.599599 514.900715 
L 116.376463 515.097155 
L 115.963249 515.664649 
L 114.624437 518.960478 
L 116.359935 521.48146 
L 117.89709 522.376354 
L 119.459038 523.194855 
L 119.930102 523.511342 
L 120.285466 523.904222 
L 121.335029 524.526283 
L 122.153192 524.951903 
L 122.153192 525.126517 
L 122.508556 525.39935 
L 122.698635 525.759491 
L 122.682106 526.086891 
L 122.483763 526.370638 
L 121.971378 530.179395 
L 121.905264 533.628011 
L 122.739956 531.838223 
L 123.905219 529.546421 
L 124.227526 527.418319 
L 124.285376 526.796258 
L 124.12009 526.305158 
L 124.202733 525.628531 
L 124.095297 524.930077 
L 124.277111 524.668156 
L 124.095297 524.831857 
L 123.144906 525.737664 
L 122.905242 526.632558 
L 121.566429 527.483799 
L 121.558164 527.461972 
L 121.458993 527.483799 
L 121.930057 526.839912 
L 122.384592 526.708952 
L 123.053999 526.545251 
L 122.872184 526.654385 
L 122.483763 526.905392 
L 121.359822 527.418319 
L 121.384615 527.210965 
L 122.004435 527.047265 
L 122.475499 525.519397 
L 122.475499 525.803144 
L 122.92177 527.287359 
L 122.723427 529.262674 
L 121.855678 530.168481 
L 121.640807 530.746888 
L 121.574693 531.150682 
L 121.731714 531.521736 
L 121.632543 534.697519 
L 121.301972 535.87616 
L 120.657358 536.4 
L 120.500337 536.225387 
L 120.260673 534.359205 
L 119.938366 533.813538 
L 118.111961 532.176536 
L 116.682241 530.932415 
L 115.930192 530.495882 
L 113.905445 529.688294 
L 112.798031 529.044407 
L 112.798031 528.717007 
L 112.781503 528.542393 
L 112.764974 528.706093 
L 112.707124 529.142627 
L 113.087281 528.85888 
L 112.946788 528.92436 
L 112.69886 528.738833 
L 111.169969 528.116773 
L 102.203229 522.692841 
L 100.798302 521.38324 
L 100.145424 520.684786 
L 99.343789 520.401039 
L 97.955391 519.549799 
L 96.748807 518.556684 
L 95.51743 517.476263 
L 94.988516 516.77781 
L 94.608359 516.024789 
L 93.500946 514.900715 
L 92.897654 514.464181 
L 92.046433 514.256827 
L 91.377027 513.885774 
L 90.501014 513.656593 
L 89.91425 513.209146 
L 88.277923 512.827179 
L 86.195326 511.288398 
L 84.914363 510.164324 
L 83.294565 509.313083 
L 81.873109 508.516409 
L 77.426928 505.657113 
L 74.95591 504.587606 
L 73.46834 503.747278 
L 71.757635 503.212524 
L 70.055194 502.972431 
L 67.617232 502.175757 
L 66.881712 502.099363 
L 66.212305 501.771963 
L 65.361085 501.848357 
L 64.534657 501.72831 
L 63.253694 500.942549 
L 61.93141 499.873041 
L 57.741422 497.592153 
L 56.435666 496.773652 
L 55.518332 496.173418 
L 53.989441 495.180304 
L 52.262207 494.165363 
L 49.526731 492.692062 
L 43.402902 489.341666 
L 43.138446 489.243445 
L 43.278938 488.719605 
L 45.130136 484.998155 
L 45.741693 483.699467 
L 45.956564 483.131973 
L 45.989621 482.62996 
L 45.865657 482.313473 
L 46.196228 481.451319 
L 46.91522 480.239938 
L 47.865612 479.094037 
L 48.890382 477.326075 
L 49.187896 475.558114 
L 48.692039 474.85966 
L 47.981312 474.193946 
L 45.386329 472.447811 
L 44.543373 471.76027 
L 43.345053 471.389217 
L 42.088883 470.952683 
L 41.60129 470.679849 
L 40.568256 470.319709 
L 40.022813 470.057789 
L 38.088973 468.617227 
L 36.617932 467.700507 
L 35.08904 466.718306 
L 33.345278 465.637885 
L 27.345413 462.167442 
L 27.295828 462.211095 
L 27.345413 462.091048 
L 26.676007 462.123788 
L 25.981808 461.523555 
L 26.279322 460.574094 
L 26.775178 459.460933 
L 27.378471 458.522385 
L 27.742099 457.551098 
L 28.080934 456.459764 
L 28.469355 455.597609 
L 28.461091 455.226556 
L 29.089176 454.309835 
L 29.461068 453.993348 
L 29.866018 453.218501 
L 31.279209 450.566558 
L 31.708951 449.955411 
L 32.345301 448.558503 
L 32.717193 447.860049 
L 33.444449 446.561362 
L 34.345256 445.819254 
L 35.254326 445.524594 
L 35.60969 445.339067 
L 36.055961 445.273587 
L 37.419566 444.651527 
L 38.014594 444.553306 
L 38.708793 443.712979 
L 38.948457 442.687125 
L 38.85755 442.196024 
L 38.609622 441.661271 
L 38.171615 441.050123 
L 37.865837 441.20291 
L 37.54353 441.115603 
L 37.295602 441.279304 
L 37.088995 441.945018 
L 37.155109 442.250591 
L 37.130317 442.730778 
L 37.824516 444.66244 
L 38.245994 444.575133 
L 38.725322 443.320099 
L 38.766643 442.774432 
L 38.708793 442.545251 
L 38.047651 441.322957 
L 37.799723 440.351669 
L 37.89063 440.340756 
L 37.874102 440.44989 
L 37.667495 441.410264 
L 37.783195 441.213824 
L 37.94848 441.028297 
L 37.750137 440.569936 
L 37.336924 440.166143 
L 37.155109 439.369469 
L 37.874102 438.932935 
L 38.130294 438.605535 
L 39.560014 437.61242 
L 39.4939 437.328674 
L 40.816184 436.237339 
L 40.80792 435.877199 
L 40.667427 435.833546 
L 40.650898 435.920852 
L 40.617841 436.608393 
L 40.667427 437.295933 
L 40.559991 437.830687 
L 40.312063 438.310874 
L 39.874056 438.900195 
L 38.394751 440.286189 
L 38.312108 440.428063 
L 38.270787 440.38441 
L 38.675736 440.90825 
L 38.807965 441.17017 
L 38.766643 441.36661 
L 39.287293 442.337898 
L 40.948412 443.527452 
L 45.402857 446.048434 
L 48.220976 447.074289 
L 50.865544 448.667637 
L 52.204357 449.704404 
L 53.088634 450.326465 
L 55.741467 452.050773 
L 56.73318 452.509133 
L 58.691814 453.229414 
L 60.055419 453.502248 
L 61.592575 453.589554 
L 62.055374 453.709601 
L 62.584288 453.993348 
L 63.270223 454.691802 
L 65.58422 456.590724 
L 66.741219 457.212784 
L 67.782518 457.802105 
L 70.360972 458.729739 
L 77.724442 462.811329 
L 79.261598 464.000883 
L 80.162404 464.339197 
L 81.823523 465.506925 
L 86.170533 467.340366 
L 88.054788 468.409874 
L 89.211787 469.184721 
L 90.178707 469.992309 
L 92.170398 470.843549 
L 93.905896 471.89123 
L 96.847978 473.430012 
L 97.360363 473.790152 
L 98.186791 474.674133 
L 99.773532 475.67816 
L 101.616466 476.649448 
L 103.004864 477.020501 
L 103.542042 477.304248 
L 104.781683 478.264623 
L 106.641146 479.20317 
L 107.880787 479.49783 
L 108.203094 479.814317 
L 108.574986 480.381811 
L 109.021257 480.578251 
L 109.459264 480.916565 
L 110.021235 481.069352 
L 111.244348 481.724152 
L 112.541839 482.346213 
L 114.690551 483.38298 
L 117.442555 484.758062 
L 119.03756 485.773002 
L 119.706967 486.405976 
L 120.533394 487.028037 
L 120.880494 487.693751 
L 121.343293 487.977498 
L 122.095342 489.079745 
L 122.417649 489.690893 
L 123.301927 490.62944 
L 124.06224 491.240587 
L 124.574625 491.589814 
L 129.02907 493.477823 
L 129.805912 493.783396 
L 131.384389 493.685176 
L 132.00421 493.947096 
L 132.764523 494.078056 
L 133.409137 494.339977 
L 136.06197 495.889671 
L 136.698319 496.118852 
L 138.483403 497.559413 
L 140.260222 498.454307 
L 142.003984 499.676601 
L 143.896504 500.429622 
L 145.053502 501.204469 
L 146.466694 501.92475 
L 147.764185 502.557724 
L 148.50797 503.234351 
L 150.755853 504.707652 
L 153.524386 506.213694 
L 154.871463 506.792101 
L 155.210298 505.67894 
L 155.854912 505.220579 
L 156.730925 504.325685 
L 157.135874 503.649058 
L 157.631731 501.968403 
L 157.995359 501.160816 
L 159.160622 499.338288 
L 159.747386 498.115993 
L 161.722548 494.798337 
L 161.987005 494.034403 
L 162.606825 493.488736 
L 162.829961 492.943069 
L 164.631573 490.967754 
L 166.127407 487.922931 
L 166.028236 487.508224 
L 166.102614 485.685696 
L 166.44145 484.136001 
L 166.672849 481.560452 
L 166.953835 480.207198 
L 167.457956 478.61385 
L 167.251349 478.461063 
L 167.193499 478.210056 
L 167.358784 478.330103 
L 167.243084 477.959049 
L 167.590184 477.631649 
L 168.185212 476.376614 
L 168.449669 476.060127 
L 168.854618 474.816006 
L 168.755447 474.335819 
L 168.846354 473.670105 
L 169.590139 472.240457 
L 171.242994 471.149123 
L 171.862815 470.516149 
L 173.565256 468.311654 
L 174.606555 466.510952 
L 175.317283 465.430531 
L 175.763553 465.048564 
L 176.077596 464.993998 
L 176.474281 464.775731 
L 176.474281 464.917604 
L 176.350317 464.917604 
L 176.077596 464.633857 
L 175.507361 464.31737 
L 175.631325 464.164584 
L 175.515625 463.520696 
L 175.920575 463.389736 
L 176.408167 463.378823 
L 177.160216 462.593062 
L 177.350295 460.846927 
L 177.755244 459.799246 
L 178.88745 457.856671 
L 178.573407 458.544212 
L 178.664314 458.882526 
L 179.565121 457.747538 
L 179.945277 456.08871 
L 180.895669 453.906041 
L 181.259297 452.552787 
L 181.788211 451.057659 
L 184.498894 446.430401 
L 186.548434 442.763518 
L 187.069084 441.988671 
L 188.664089 440.77729 
L 189.705388 440.002443 
L 191.2756 438.583708 
L 192.688792 436.652046 
L 194.068926 433.07247 
L 194.977996 432.068442 
L 195.903595 430.889801 
L 196.47383 430.595141 
L 197.531658 429.110926 
L 198.217592 428.346992 
L 200.804311 423.686995 
L 202.605923 420.314772 
L 206.283526 414.508874 
L 207.085161 413.111966 
L 207.862003 411.474964 
L 208.448767 410.74377 
L 212.250334 404.424945 
L 213.275104 402.722463 
L 214.109796 401.183682 
L 214.40731 400.125088 
L 213.961039 400.561621 
L 214.46516 399.939561 
L 214.481688 400.015954 
L 214.332931 399.557594 
L 214.151117 399.1538 
L 213.985832 398.127946 
L 213.44039 396.960218 
L 213.018912 396.370898 
L 212.572641 396.010757 
L 212.002406 395.727011 
L 210.746236 395.443264 
L 210.341286 395.290477 
L 209.457008 395.541484 
L 209.283459 395.606964 
L 208.490088 394.963077 
L 207.713246 394.068182 
L 207.04384 392.955021 
L 206.46534 391.590854 
L 206.258733 390.073899 
L 206.547983 388.524204 
L 207.019047 387.00725 
L 207.738039 385.752215 
L 208.258688 385.250201 
L 210.258643 383.90786 
L 211.597456 382.598259 
L 212.729662 381.179524 
L 213.217254 380.448331 
L 213.795754 378.920463 
L 215.010602 375.90838 
L 218.283256 368.716487 
L 219.25844 367.210446 
L 220.646839 364.94047 
L 222.580679 362.103001 
L 223.564128 360.59696 
L 225.382269 358.457945 
L 226.902896 357.00647 
L 227.795438 356.428063 
L 228.721037 355.980616 
L 229.704486 355.664129 
L 230.696199 355.489515 
L 232.778796 355.424035 
L 233.753981 355.478602 
L 234.712637 355.653216 
L 235.563858 355.947876 
L 237.208449 356.831857 
L 240.332345 358.818085 
L 241.819915 359.636586 
L 242.638078 359.854853 
L 244.373576 359.898506 
L 245.266118 359.789372 
L 246.943766 359.167312 
L 249.315614 357.923191 
L 250.150305 357.475744 
L 251.555232 356.308016 
L 253.538659 354.441834 
L 253.98493 353.64516 
L 254.654336 351.866286 
L 255.646049 349.127037 
L 256.389834 347.391815 
L 257.414604 345.569287 
L 258.034425 344.696219 
L 260.042644 342.491724 
L 260.753372 341.847837 
L 261.505421 341.323996 
L 263.059105 340.461842 
L 263.786362 339.948915 
L 265.480538 339.152241 
L 267.059015 338.17004 
L 268.406092 336.915006 
L 269.480448 335.529011 
L 270.877111 333.204469 
L 271.984524 330.781707 
L 272.678723 329.101052 
L 273.232429 327.333091 
L 274.042329 323.709861 
L 274.108443 322.782227 
L 273.868779 320.926959 
L 273.397715 318.97347 
L 271.439081 314.171599 
L 271.232475 312.098064 
L 271.315117 310.057269 
L 271.538253 309.064155 
L 271.91841 308.125607 
L 272.397738 307.263453 
L 275.083627 303.487437 
L 276.149719 302.025049 
L 277.50506 300.846408 
L 279.786001 299.15484 
L 282.248755 297.517838 
L 285.711487 294.396622 
L 286.091644 293.599948 
L 286.4718 291.886553 
L 286.595764 285.862388 
L 287.042035 284.33452 
L 288.281677 280.700377 
L 289.934532 274.130544 
L 291.653502 269.361414 
L 292.265058 268.117292 
L 292.98405 266.916825 
L 295.066648 262.442354 
L 296.083154 261.18732 
L 297.09966 259.975939 
L 303.165639 253.526153 
L 304.653208 251.496271 
L 305.496165 250.077537 
L 308.11594 244.653605 
L 309.818381 240.310095 
L 310.909266 238.345693 
L 312.917485 235.16991 
L 313.702591 234.045836 
L 314.74389 233.019982 
L 315.760396 231.764947 
L 316.752109 230.848227 
L 317.793408 230.553566 
L 320.099141 229.505885 
L 324.396565 228.130804 
L 325.313899 227.901624 
L 326.239498 227.912537 
L 328.958445 228.218111 
L 331.710449 228.534598 
L 333.495533 228.796518 
L 335.272352 228.851085 
L 336.958265 228.578251 
L 338.462363 228.021671 
L 339.941669 227.181343 
L 340.561489 226.657503 
L 342.371366 224.485748 
L 343.371343 222.903313 
L 350.412507 209.796388 
L 357.817299 196.84225 
L 358.742897 195.336209 
L 359.924689 192.89162 
L 361.197388 190.425205 
L 362.164308 188.919163 
L 363.428742 186.496401 
L 364.858462 184.051812 
L 367.684845 179.064415 
L 368.957543 176.587086 
L 370.792213 172.167182 
L 371.221955 170.257347 
L 371.420298 168.303859 
L 371.569054 165.193556 
L 371.593847 163.043627 
L 371.767397 160.926439 
L 372.651675 154.476653 
L 372.552503 152.414031 
L 372.056647 150.395063 
L 371.288069 148.496141 
L 369.891406 145.778719 
L 368.9906 143.934364 
L 368.775729 142.97399 
L 368.841843 140.944108 
L 368.982336 139.8746 
L 369.560835 137.801065 
L 370.775684 134.734416 
L 372.312839 131.558633 
L 374.07313 128.491984 
L 375.38715 126.691282 
L 380.99033 120.143277 
L 386.593509 113.824451 
L 387.188537 112.97321 
L 387.618279 112.05649 
L 387.924058 111.085202 
L 388.29595 108.978927 
L 388.213307 101.08858 
L 388.957092 94.540574 
L 389.37857 91.823152 
L 389.981862 89.094816 
L 390.717383 87.435988 
L 392.23801 85.3188 
L 392.841302 84.685826 
L 394.262758 83.616318 
L 396.494112 82.077537 
L 398.130439 81.226296 
L 398.956867 80.811589 
L 400.370058 79.534728 
L 400.948557 78.748967 
L 401.32045 77.886813 
L 401.551849 76.915526 
L 401.617964 75.900585 
L 401.477471 74.852904 
L 400.634515 72.986722 
L 399.923787 72.255528 
L 399.064302 71.753514 
L 398.122175 71.426114 
L 397.105669 71.273327 
L 396.06437 71.316981 
L 395.031335 71.502507 
L 394.114001 71.829908 
L 392.312388 72.833935 
L 390.651269 74.110796 
L 389.023206 75.376744 
L 388.056286 75.802365 
L 387.03978 76.009718 
L 385.998481 76.031545 
L 384.981975 75.878758 
L 384.089433 75.453138 
L 383.345648 74.787424 
L 382.734092 73.968923 
L 382.353935 73.041289 
L 382.163857 72.124568 
L 382.139064 71.164194 
L 382.279557 70.280213 
L 382.626656 69.418059 
L 383.791919 67.824711 
L 388.841392 61.331272 
L 390.948783 57.839002 
L 392.279331 55.132493 
L 392.97353 53.309965 
L 393.461123 51.552917 
L 393.684258 49.828609 
L 393.709051 48.060647 
L 393.593351 47.274886 
L 393.064437 45.801585 
L 392.229746 44.437417 
L 390.320698 42.101962 
L 388.329007 39.831986 
L 386.477809 38.631519 
L 382.039893 35.914096 
L 379.998616 35.139249 
L 376.213578 34.462622 
L 374.040073 33.993348 
L 369.3377 33.283981 
L 367.759223 32.82562 
L 366.70966 32.509133 
L 365.065069 32.43274 
L 364.106413 32.69466 
L 363.189078 33.294894 
L 361.982494 34.342575 
L 360.527981 35.968663 
L 359.800725 37.529271 
L 359.470154 38.598779 
L 359.296604 40.26852 
L 359.519739 41.719995 
L 359.825518 42.691282 
L 360.296581 43.640743 
L 361.007309 44.513811 
L 361.775887 45.266831 
L 362.6519 45.823412 
L 363.577499 46.227205 
L 365.585718 46.783786 
L 368.031944 47.591373 
L 369.3377 48.693621 
L 370.42032 50.134182 
L 371.114519 51.749357 
L 371.279805 52.262284 
L 371.428562 54.204859 
L 371.453355 57.249682 
L 371.833511 58.548369 
L 373.22191 62.870053 
L 373.370667 64.605275 
L 373.33761 65.478342 
L 372.957453 67.289957 
L 372.296311 69.068832 
L 371.44509 70.69492 
L 370.354206 72.059088 
L 369.122829 73.357776 
L 366.850153 75.169391 
L 365.122919 76.227985 
L 363.403949 77.057399 
L 358.792483 78.934494 
L 357.924734 79.469248 
L 356.445429 80.767936 
L 355.164466 82.230324 
L 354.14796 83.769105 
L 353.751275 84.653086 
L 353.214097 86.421047 
L 352.528162 88.068962 
L 351.586034 89.454956 
L 350.462093 90.688164 
L 349.999293 91.222918 
L 349.404265 91.593972 
L 347.34646 92.325166 
L 345.247334 92.849006 
L 341.577995 94.333221 
L 336.983058 97.345303 
L 334.72691 99.495232 
L 333.826104 100.652046 
L 332.751748 102.616448 
L 327.925411 112.35115 
L 326.685769 115.679719 
L 326.189913 117.022061 
L 325.578356 118.211615 
L 324.627964 119.575783 
L 324.165165 120.929037 
L 322.884202 122.609692 
L 321.801582 123.71194 
L 319.966913 125.163414 
L 316.124024 127.76079 
L 313.710855 130.030765 
L 312.876163 131.4495 
L 312.595178 132.246174 
L 312.305928 133.926829 
L 312.148907 136.458724 
L 312.206757 139.012446 
L 312.355514 141.424295 
L 312.198493 143.083123 
L 311.834865 144.665558 
L 311.553879 145.429492 
L 310.727452 146.848227 
L 309.71921 148.092348 
L 307.88454 149.281902 
L 304.719323 150.820683 
L 301.430141 152.184851 
L 297.769066 154.247473 
L 294.00882 157.052202 
L 292.438608 158.61281 
L 287.438721 165.346343 
L 286.4718 167.092478 
L 285.67843 168.936833 
L 284.868531 171.708822 
L 284.562752 173.66231 
L 284.455317 175.604885 
L 284.670188 177.405587 
L 285.67843 182.382071 
L 286.364365 184.652046 
L 287.223849 187.467689 
L 287.744499 189.530311 
L 287.884992 191.167312 
L 287.90152 192.66244 
L 287.413928 195.532649 
L 286.909807 196.885904 
L 285.628844 199.395972 
L 281.405799 205.267351 
L 278.149674 208.508614 
L 276.348062 209.927348 
L 275.067099 210.876809 
L 273.786136 211.902663 
L 272.397738 213.004911 
L 270.744882 214.871093 
L 270.331668 215.35128 
L 269.819283 215.274886 
L 269.720112 214.860179 
L 270.777939 211.149643 
L 271.215946 208.257607 
L 271.22421 206.467819 
L 271.067189 203.706743 
L 270.984546 200.5637 
L 270.802732 199.985293 
L 270.505218 199.461453 
L 269.182934 198.184591 
L 267.910235 197.016864 
L 267.182979 196.503937 
L 266.530101 195.980096 
L 266.19953 195.860049 
L 266.265644 195.761829 
L 264.596261 195.019722 
L 263.80289 194.452228 
L 261.422778 193.262674 
L 260.455858 192.684267 
L 259.331917 192.20408 
L 258.769946 191.920333 
L 257.827818 191.123659 
L 256.03447 190.414291 
L 253.191559 188.94099 
L 252.654381 188.624503 
L 249.943699 187.293075 
L 249.613127 187.063895 
L 249.447842 186.703755 
L 249.423049 186.889282 
" clip-path="url(#pa4926efcd3)" style="fill: none; stroke: #000000; stroke-width: 3"/>
   </g>
  </g>
 </g>
 <defs>
  <clipPath id="pa4926efcd3">
   <rect x="7.2" y="7.2" width="413.199771" height="554.4"/>
  </clipPath>
 </defs>
</svg>
