<?xml version="1.0" encoding="utf-8" standalone="no"?>
<!DOCTYPE svg PUBLIC "-//W3C//DTD SVG 1.1//EN"
  "http://www.w3.org/Graphics/SVG/1.1/DTD/svg11.dtd">
<svg xmlns:xlink="http://www.w3.org/1999/xlink" width="394.290574pt" height="568.8pt" viewBox="0 0 394.290574 568.8" xmlns="http://www.w3.org/2000/svg" version="1.1">
 <metadata>
  <rdf:RDF xmlns:dc="http://purl.org/dc/elements/1.1/" xmlns:cc="http://creativecommons.org/ns#" xmlns:rdf="http://www.w3.org/1999/02/22-rdf-syntax-ns#">
   <cc:Work>
    <dc:type rdf:resource="http://purl.org/dc/dcmitype/StillImage"/>
    <dc:date>2023-08-12T05:02:53.217083</dc:date>
    <dc:format>image/svg+xml</dc:format>
    <dc:creator>
     <cc:Agent>
      <dc:title>Matplotlib v3.7.2, https://matplotlib.org/</dc:title>
     </cc:Agent>
    </dc:creator>
   </cc:Work>
  </rdf:RDF>
 </metadata>
 <defs>
  <style type="text/css">*{stroke-linejoin: round; stroke-linecap: butt}</style>
 </defs>
 <g id="figure_1">
  <g id="patch_1">
   <path d="M 0 568.8 
L 394.290574 568.8 
L 394.290574 0 
L 0 0 
z
" style="fill: #ffffff"/>
  </g>
  <g id="axes_1">
   <g id="LineCollection_1">
    <path d="M 53.010937 34.774042 
L 53.307716 35.569231 
L 53.578309 35.707525 
L 53.683055 35.569231 
L 53.752885 35.649903 
L 53.840173 35.59228 
L 53.220428 35.569231 
L 52.836361 35.361791 
L 52.906192 34.958434 
L 53.971105 33.529399 
L 55.149494 32.964699 
L 57.279322 33.06842 
L 58.955252 33.61007 
L 60.482792 32.4 
L 62.167451 32.711161 
L 63.075246 32.953175 
L 63.92194 33.494825 
L 65.615328 34.186294 
L 66.444564 34.336112 
L 67.230156 34.727945 
L 69.010832 35.258071 
L 70.590745 36.226127 
L 71.35888 36.813875 
L 74.239385 38.461875 
L 75.993874 39.314687 
L 76.910398 39.844813 
L 78.13243 41.112505 
L 78.918023 41.342995 
L 79.537768 41.711778 
L 80.751071 42.553065 
L 82.156408 43.302156 
L 84.015643 44.051247 
L 84.888524 44.224115 
L 86.328776 44.950157 
L 89.383857 46.102604 
L 90.693177 46.747975 
L 91.365295 46.840171 
L 95.502747 48.891528 
L 96.314526 49.156591 
L 97.178677 49.675193 
L 97.780965 50.18227 
L 98.374523 50.38971 
L 99.998081 51.39234 
L 100.521809 51.634354 
L 102.127908 52.729179 
L 103.594347 54.054494 
L 104.44977 55.817739 
L 105.10443 57.765376 
L 106.073327 62.882245 
L 106.509767 64.760734 
L 107.339003 66.52398 
L 107.731799 67.515085 
L 108.316629 68.40247 
L 110.725779 70.811085 
L 112.672302 73.023785 
L 113.309504 73.876597 
L 113.929249 74.164709 
L 115.229841 74.3491 
L 115.989247 75.132765 
L 118.826107 79.926948 
L 121.104325 83.096179 
L 122.291442 84.594361 
L 123.085763 85.216683 
L 124.543473 87.556152 
L 124.604574 88.455061 
L 124.072118 90.402698 
L 123.513474 91.105691 
L 122.867543 92.938083 
L 122.361272 93.698699 
L 121.523307 95.427371 
L 119.445852 98.504406 
L 119.24509 99.403316 
L 118.930853 100.267651 
L 118.171447 101.546868 
L 118.066701 102.019372 
L 117.813566 102.411204 
L 117.804837 102.641694 
L 117.080347 103.229442 
L 116.731195 103.955484 
L 115.648823 105.476716 
L 114.121283 108.830339 
L 113.553911 109.660101 
L 112.305692 111.158283 
L 111.790693 111.941948 
L 111.057473 113.705193 
L 110.551203 114.442759 
L 110.376627 116.206005 
L 109.573577 117.888578 
L 109.390272 118.775963 
L 108.325358 121.092383 
L 108.063494 121.841474 
L 107.661969 122.509894 
L 107.478664 123.201363 
L 106.858919 123.673866 
L 106.422479 124.157894 
L 105.340108 126.428217 
L 103.21028 129.159518 
L 102.25884 131.014959 
L 101.700197 131.625756 
L 101.202655 132.547715 
L 98.269778 136.846345 
L 93.80936 145.12092 
L 93.058683 146.791969 
L 92.107243 148.889424 
L 91.408939 149.592418 
L 90.117076 152.07018 
L 89.008518 154.51337 
L 88.449875 155.354657 
L 87.585723 157.244671 
L 85.551913 160.667441 
L 85.159116 161.508728 
L 84.26005 163.099106 
L 81.152596 168.089205 
L 80.253529 169.806352 
L 79.965479 170.670688 
L 79.354463 171.511975 
L 77.888024 174.450717 
L 77.390482 174.980843 
L 77.338109 175.614689 
L 76.482687 177.400983 
L 74.990062 179.463865 
L 74.160825 181.146439 
L 73.261759 182.852061 
L 72.781675 183.64725 
L 70.608203 188.683447 
L 68.583121 192.140791 
L 66.828631 194.445686 
L 66.505666 195.45984 
L 65.912107 196.185883 
L 64.899566 197.891505 
L 64.183804 199.539506 
L 63.372026 201.291226 
L 62.324569 202.916178 
L 61.364401 204.552654 
L 61.102537 206.096934 
L 60.299487 206.661633 
L 60.194742 207.353102 
L 59.1822 208.920431 
L 58.265676 210.798921 
L 57.811779 211.59411 
L 57.453898 212.493019 
L 56.877797 213.34583 
L 56.380255 214.429131 
L 55.193138 216.33067 
L 54.713054 217.298726 
L 54.102037 218.255258 
L 53.202971 220.283566 
L 50.977126 223.982924 
L 50.479584 225.008602 
L 49.161535 226.760323 
L 47.153911 230.275289 
L 46.158827 231.969387 
L 44.858236 234.746786 
L 40.633495 242.375991 
L 40.284343 243.251851 
L 37.796635 247.308467 
L 37.072144 249.198482 
L 36.085789 250.858007 
L 35.780281 251.630147 
L 34.252741 253.727602 
L 33.650453 254.465168 
L 33.117997 255.31798 
L 32.829946 256.159266 
L 32.236387 256.793113 
L 31.599185 258.602456 
L 30.543 260.238932 
L 29.37334 261.633394 
L 28.832155 262.543827 
L 28.395714 263.431212 
L 28.421901 264.180303 
L 28.177494 264.998541 
L 27.374445 266.277758 
L 26.728513 267.049898 
L 25.637413 269.11278 
L 24.886736 270.415046 
L 24.476482 270.910598 
L 24.467753 271.625116 
L 24.747075 272.086095 
L 26.152412 272.823662 
L 27.828342 273.261592 
L 28.526646 273.664949 
L 29.399527 273.780193 
L 30.036729 274.483187 
L 31.503168 274.598431 
L 31.991981 276.211858 
L 32.131642 276.799607 
L 32.690285 277.329733 
L 33.039437 278.343887 
L 34.226554 280.095607 
L 35.038333 280.475915 
L 36.574602 280.706405 
L 37.46494 280.291524 
L 37.648245 280.913845 
L 38.014855 281.582265 
L 39.481293 282.999776 
L 41.515104 284.140699 
L 42.257053 283.34551 
L 43.417983 283.518377 
L 44.151203 284.221371 
L 44.622558 285.131804 
L 46.115183 286.088336 
L 46.86586 286.480168 
L 47.52052 286.491693 
L 47.948232 287.10249 
L 48.533062 287.137064 
L 48.576706 287.644141 
L 49.536874 287.66719 
L 50.357381 287.920728 
L 51.099329 287.955301 
L 51.614329 288.347134 
L 52.426107 288.450854 
L 53.534665 289.326714 
L 55.839069 291.020813 
L 56.607204 291.40112 
L 56.947627 291.850575 
L 60.962876 293.475526 
L 61.949231 293.625345 
L 65.301091 295.296394 
L 65.955751 296.080059 
L 67.282529 296.817625 
L 68.417273 297.820255 
L 68.975917 298.223611 
L 69.770238 299.24929 
L 70.163034 299.537402 
L 70.686762 299.214717 
L 72.607099 298.857458 
L 73.191928 299.180143 
L 73.628368 299.122521 
L 74.387774 299.422157 
L 74.867858 299.825514 
L 76.482687 300.805095 
L 77.250821 300.805095 
L 78.42921 301.208451 
L 80.358275 302.602913 
L 81.257342 302.787305 
L 82.182595 303.271333 
L 82.880899 304.089571 
L 83.587932 304.619697 
L 84.635388 304.262438 
L 85.709031 304.412256 
L 86.564454 304.88476 
L 89.968687 305.910438 
L 91.417668 307.132033 
L 92.264362 307.581488 
L 92.945208 308.180761 
L 93.704614 308.549544 
L 95.668595 310.128397 
L 96.13995 310.716146 
L 97.388169 311.373041 
L 97.44927 312.110608 
L 97.588931 312.329573 
L 97.693677 312.202803 
L 98.199947 313.136286 
L 98.156303 313.240006 
L 98.32215 312.779027 
L 98.269778 312.813601 
L 98.653845 313.263055 
L 98.933167 313.297629 
L 99.247403 313.193908 
L 99.85842 313.332202 
L 103.140449 316.121126 
L 105.287735 318.068763 
L 106.640699 318.552791 
L 108.142053 319.532371 
L 109.049849 319.716763 
L 111.44154 320.949882 
L 112.131116 321.376288 
L 114.374418 322.194526 
L 115.116366 322.667029 
L 115.805942 322.77075 
L 117.097804 323.842526 
L 118.80865 324.925827 
L 119.515683 324.948876 
L 119.987038 324.545519 
L 120.231444 324.073016 
L 120.659156 322.782274 
L 121.174155 322.033183 
L 121.034494 322.425015 
L 120.99085 322.20605 
L 121.191613 322.159952 
L 120.720257 319.359504 
L 120.467122 318.840903 
L 119.908479 318.518217 
L 118.983226 317.215951 
L 118.520599 316.731923 
L 116.172551 315.072398 
L 115.430603 314.957154 
L 114.933061 314.749713 
L 114.147469 314.300258 
L 113.92052 314.265685 
L 113.449165 314.012146 
L 113.003996 314.265685 
L 113.876876 315.083923 
L 115.631366 315.683196 
L 115.849586 315.648622 
L 116.233653 315.809965 
L 117.246194 315.959783 
L 117.865939 316.247895 
L 119.856106 317.619308 
L 121.235257 318.126385 
L 121.654239 318.414497 
L 121.863731 319.267308 
L 122.343815 319.543896 
L 123.417457 319.589994 
L 123.897541 319.88963 
L 125.311607 320.431281 
L 125.739319 320.730917 
L 129.143552 321.883365 
L 129.597449 322.33282 
L 131.028973 322.747701 
L 131.901853 323.220204 
L 133.272275 323.773379 
L 134.284816 323.796428 
L 135.698882 324.119114 
L 136.397187 324.08454 
L 136.929643 324.441799 
L 137.558117 324.464848 
L 138.081845 324.695338 
L 138.649218 324.729911 
L 139.050742 324.914303 
L 139.460996 324.960401 
L 141.119469 325.548149 
L 142.332772 325.997604 
L 142.891415 325.939981 
L 143.799211 326.608401 
L 145.134718 327.161576 
L 145.195819 327.587982 
L 146.470224 328.360122 
L 147.151071 328.590611 
L 148.46912 329.247506 
L 149.062679 329.3858 
L 150.747338 330.469101 
L 151.175049 330.653493 
L 151.847167 331.079898 
L 152.658945 332.082528 
L 153.200131 332.393689 
L 154.675299 333.742053 
L 155.199027 334.041689 
L 155.504535 334.664011 
L 156.045721 335.044319 
L 157.075719 335.516823 
L 157.494702 336.000851 
L 158.751649 336.865186 
L 159.685631 337.741047 
L 161.178257 338.835872 
L 161.492493 339.262278 
L 161.972578 339.412096 
L 162.409018 339.953747 
L 162.557407 340.437775 
L 162.871644 340.898754 
L 163.325542 341.129243 
L 164.966557 342.546754 
L 171.582989 346.83386 
L 172.202734 347.06435 
L 173.442224 348.055455 
L 174.088155 348.447287 
L 174.751544 348.666252 
L 175.371289 349.092658 
L 175.991034 349.357721 
L 176.60205 349.472965 
L 178.13832 350.683036 
L 179.403996 351.051819 
L 180.128487 351.708714 
L 180.896621 352.065973 
L 181.402892 352.434756 
L 181.970264 352.688295 
L 183.681109 352.918784 
L 186.256106 354.34782 
L 187.032969 354.428491 
L 187.75746 354.797274 
L 188.333561 355.304351 
L 189.616695 355.880575 
L 191.441014 357.298086 
L 191.9822 358.001079 
L 192.619403 358.427485 
L 193.090758 359.026758 
L 193.885079 359.130478 
L 194.565926 359.453164 
L 195.229315 359.533835 
L 195.604653 360.006338 
L 197.027448 360.882199 
L 197.882871 361.227933 
L 198.633548 361.953975 
L 200.021427 362.668493 
L 202.194899 364.339542 
L 206.367267 366.978648 
L 207.065571 367.255235 
L 209.710398 368.960858 
L 211.796582 370.067208 
L 213.77802 371.300327 
L 214.607256 371.657586 
L 215.183357 372.164663 
L 215.82056 372.487348 
L 216.492677 372.67174 
L 217.068778 373.155768 
L 219.984198 374.930538 
L 223.449533 376.693783 
L 225.998343 378.272636 
L 233.147232 382.409924 
L 235.949178 384.161645 
L 236.760956 384.887687 
L 239.344682 386.443491 
L 240.165189 387.054289 
L 241.029341 387.503743 
L 242.626712 388.633142 
L 247.767976 391.617982 
L 249.531194 392.562989 
L 251.233311 393.461898 
L 253.686104 394.948556 
L 264.780412 401.436837 
L 266.84041 402.520138 
L 268.874221 403.68411 
L 270.934218 404.801985 
L 274.032943 406.277118 
L 275.045484 406.864866 
L 276.066754 407.302797 
L 277.873616 408.512867 
L 278.79014 408.996895 
L 280.588273 410.172392 
L 281.55717 410.518126 
L 283.346575 411.474658 
L 284.298014 411.820392 
L 285.389115 411.785818 
L 286.29691 412.016308 
L 288.810805 413.491441 
L 289.613855 414.18291 
L 291.359616 415.266211 
L 293.568003 417.029456 
L 295.497068 418.769652 
L 296.806388 419.760757 
L 299.119521 420.878632 
L 303.562481 423.909569 
L 306.381884 424.796954 
L 307.123833 424.820003 
L 307.769764 425.073542 
L 307.699934 425.407752 
L 307.857052 425.32708 
L 308.040357 425.188786 
L 308.564085 424.854577 
L 308.502983 425.015919 
L 308.651373 425.096591 
L 309.192559 425.730437 
L 311.331115 427.355388 
L 312.116708 427.701123 
L 312.97213 427.862465 
L 314.709162 428.64613 
L 317.161955 429.706382 
L 319.422715 430.662914 
L 320.051189 431.204564 
L 321.552543 431.83841 
L 323.123727 432.483781 
L 324.249743 433.7169 
L 324.913132 434.200928 
L 325.751097 434.339222 
L 327.121519 434.82325 
L 327.723806 435.111362 
L 328.430839 435.676062 
L 329.207703 436.03332 
L 329.565584 436.517348 
L 330.447193 436.724789 
L 332.096936 437.842663 
L 332.271512 438.176873 
L 332.096936 438.488034 
L 332.096936 438.488034 
L 331.966004 438.730048 
L 331.974733 438.718524 
L 332.062021 438.81072 
L 332.428631 439.940118 
L 332.769054 440.239755 
L 333.004732 440.746832 
L 332.786512 440.22823 
L 332.856342 440.251279 
L 333.022189 440.56244 
L 333.414985 441.369154 
L 334.951255 443.282217 
L 335.178204 443.512707 
L 335.667016 444.457714 
L 335.745576 445.033938 
L 335.972525 445.310525 
L 336.182016 446.612791 
L 336.531168 447.039197 
L 337.412777 447.719141 
L 337.823031 447.892008 
L 338.2682 448.318414 
L 338.844301 448.710246 
L 339.612435 449.643729 
L 340.205994 449.966414 
L 340.476587 450.796177 
L 340.459129 450.980568 
L 340.860654 451.741184 
L 340.799552 452.766863 
L 340.398027 453.781017 
L 340.747179 454.795171 
L 341.139976 455.244625 
L 341.707348 456.120486 
L 342.49294 456.881101 
L 342.754804 457.307507 
L 343.549125 458.079647 
L 344.544209 459.185997 
L 346.630392 461.352599 
L 346.970816 461.882725 
L 347.88734 462.608767 
L 348.332509 463.41548 
L 349.571999 464.809942 
L 350.28776 465.651229 
L 351.710555 467.356852 
L 355.106059 472.012741 
L 355.944024 473.361105 
L 356.363007 473.649217 
L 356.511397 474.133245 
L 358.484106 476.553385 
L 358.702326 476.853022 
L 359.173681 476.783875 
L 359.243512 477.129609 
L 360.579019 479.238589 
L 361.355882 479.803288 
L 361.73122 479.930057 
L 362.228762 480.748295 
L 363.092914 481.727876 
L 365.790114 486.084129 
L 366.584435 486.948465 
L 367.090705 487.202003 
L 367.614433 487.225052 
L 367.876297 487.835849 
L 368.888838 489.172689 
L 369.185618 489.414703 
L 369.421295 489.449276 
L 369.412567 489.576046 
L 369.560956 489.599095 
L 369.360194 489.529948 
L 369.482397 489.69129 
L 369.464939 489.702815 
L 369.508583 490.474955 
L 369.01977 490.325137 
L 369.09833 490.763067 
L 369.456211 490.705444 
L 369.82282 490.935934 
L 369.674431 491.46606 
L 369.656973 491.708074 
L 368.792822 492.146004 
L 368.609517 492.169053 
L 368.216721 492.664606 
L 367.780281 493.194732 
L 367.029603 494.162788 
L 367.020875 494.485473 
L 366.654265 497.147628 
L 366.83757 497.251348 
L 367.404942 497.274397 
L 367.684264 497.677754 
L 367.49223 499.003069 
L 367.230366 499.62539 
L 367.090705 500.328384 
L 366.820112 500.973754 
L 366.828841 501.780468 
L 366.532062 502.50651 
L 366.479689 505.041895 
L 366.741553 508.522288 
L 366.820112 509.202232 
L 366.785197 509.928274 
L 366.366215 511.783715 
L 365.606809 512.140974 
L 364.925962 515.448499 
L 364.891047 516.73924 
L 364.515708 519.816276 
L 364.559352 520.438598 
L 363.957065 523.642403 
L 363.136558 528.851467 
L 362.743762 530.776055 
L 362.630287 531.905454 
L 362.446982 532.401006 
L 362.158932 536.157986 
L 361.687576 536.365427 
L 361.425712 536.261706 
L 361.390797 536.319329 
L 361.504272 536.273231 
L 361.486814 536.4 
L 361.495543 536.342378 
" clip-path="url(#p1dbd50735e)" style="fill: none; stroke: #000000; stroke-width: 3"/>
   </g>
  </g>
 </g>
 <defs>
  <clipPath id="p1dbd50735e">
   <rect x="7.2" y="7.2" width="379.890574" height="554.4"/>
  </clipPath>
 </defs>
</svg>
