<?xml version="1.0" encoding="utf-8" standalone="no"?>
<!DOCTYPE svg PUBLIC "-//W3C//DTD SVG 1.1//EN"
  "http://www.w3.org/Graphics/SVG/1.1/DTD/svg11.dtd">
<svg xmlns:xlink="http://www.w3.org/1999/xlink" width="572.4pt" height="262.820414pt" viewBox="0 0 572.4 262.820414" xmlns="http://www.w3.org/2000/svg" version="1.1">
 <metadata>
  <rdf:RDF xmlns:dc="http://purl.org/dc/elements/1.1/" xmlns:cc="http://creativecommons.org/ns#" xmlns:rdf="http://www.w3.org/1999/02/22-rdf-syntax-ns#">
   <cc:Work>
    <dc:type rdf:resource="http://purl.org/dc/dcmitype/StillImage"/>
    <dc:date>2023-08-31T05:03:12.059448</dc:date>
    <dc:format>image/svg+xml</dc:format>
    <dc:creator>
     <cc:Agent>
      <dc:title>Matplotlib v3.7.2, https://matplotlib.org/</dc:title>
     </cc:Agent>
    </dc:creator>
   </cc:Work>
  </rdf:RDF>
 </metadata>
 <defs>
  <style type="text/css">*{stroke-linejoin: round; stroke-linecap: butt}</style>
 </defs>
 <g id="figure_1">
  <g id="patch_1">
   <path d="M 0 262.820414 
L 572.4 262.820414 
L 572.4 0 
L 0 0 
z
" style="fill: #ffffff"/>
  </g>
  <g id="axes_1">
   <g id="LineCollection_1">
    <path d="M 57.866471 46.894802 
L 59.64375 47.437534 
L 64.835274 48.040569 
L 71.804077 47.497837 
L 73.674896 47.075713 
L 75.592487 46.894802 
L 77.510077 46.834499 
L 79.614749 47.015409 
L 85.086896 48.764212 
L 89.249469 49.24664 
L 91.494453 50.09089 
L 93.692666 51.29696 
L 97.481076 52.442727 
L 98.790649 52.14121 
L 99.8196 52.382424 
L 101.175944 52.864852 
L 102.71937 53.045763 
L 104.63696 52.985459 
L 106.741632 53.226673 
L 108.659223 53.769405 
L 110.576813 55.035779 
L 112.587944 55.578511 
L 115.394173 55.276994 
L 117.96655 54.673958 
L 119.88414 54.010619 
L 123.579009 53.950316 
L 125.262746 53.950316 
L 127.180336 54.070923 
L 128.770533 54.432744 
L 130.126877 55.096083 
L 131.576762 56.302154 
L 133.120188 58.231867 
L 134.897467 59.076116 
L 137.04891 59.377634 
L 143.269385 58.593688 
L 147.057794 58.533384 
L 148.928614 58.11126 
L 152.623482 57.930349 
L 154.587843 57.689135 
L 156.22481 57.146403 
L 157.768236 56.784582 
L 159.779367 56.663975 
L 161.97758 56.905189 
L 163.708088 56.844885 
L 167.496498 57.628831 
L 171.284908 59.860062 
L 172.641252 60.523401 
L 176.102268 61.669168 
L 177.786006 61.729472 
L 179.516514 62.392811 
L 181.434104 62.995846 
L 184.988661 63.116453 
L 186.532087 62.754632 
L 188.636759 62.392811 
L 190.414038 62.2119 
L 192.144546 62.2119 
L 193.875054 62.453114 
L 197.710234 63.598881 
L 199.487513 64.382827 
L 201.545414 64.985863 
L 203.790398 65.769809 
L 205.520906 66.191933 
L 208.981922 66.674362 
L 210.805971 67.036183 
L 212.63002 67.699522 
L 214.407299 68.00104 
L 216.371659 68.121647 
L 218.289249 68.362861 
L 220.440692 68.242254 
L 222.451823 68.423164 
L 224.275872 68.362861 
L 225.819298 68.784985 
L 233.489659 71.920769 
L 237.090986 72.584108 
L 238.634412 72.523805 
L 239.990757 72.10168 
L 241.721265 72.10168 
L 246.585396 72.885626 
L 248.97069 74.152 
L 251.215674 74.694732 
L 253.086494 74.815339 
L 255.004084 74.755035 
L 257.015215 74.935946 
L 258.979575 74.815339 
L 260.710083 74.453518 
L 262.814755 74.453518 
L 264.685575 74.815339 
L 266.603165 74.935946 
L 268.614296 74.634428 
L 270.718968 74.935946 
L 277.360378 76.684749 
L 279.371509 76.925963 
L 281.055246 76.503838 
L 284.983967 76.20232 
L 287.088639 76.503838 
L 291.157672 77.709909 
L 293.168803 77.890819 
L 295.226704 78.614462 
L 299.061885 79.277801 
L 302.756753 79.94114 
L 308.603064 80.182354 
L 310.427113 80.483871 
L 314.168753 81.870853 
L 318.237785 82.775406 
L 320.061834 83.01662 
L 321.932654 83.137227 
L 323.850244 82.775406 
L 325.814604 82.654799 
L 329.977178 82.835709 
L 331.988309 83.076923 
L 334.046211 83.438745 
L 336.384735 84.04178 
L 340.360227 84.644815 
L 344.335718 84.946333 
L 346.44039 85.308154 
L 348.545062 85.790582 
L 350.743275 85.971493 
L 352.894718 85.790582 
L 359.068422 85.730279 
L 363.090684 86.333314 
L 368.656373 87.177564 
L 370.527192 87.298171 
L 374.455913 87.298171 
L 381.284405 87.780599 
L 384.137405 88.202724 
L 385.493749 87.901206 
L 385.914683 87.599688 
L 386.242077 87.599688 
L 386.242077 87.479081 
L 394.005978 85.730279 
L 395.502634 84.946333 
L 396.765437 83.619655 
L 397.420224 81.810549 
L 397.794388 79.880836 
L 397.233142 71.558948 
L 397.326683 69.508628 
L 397.700847 67.578915 
L 398.542715 66.252237 
L 399.524896 65.528595 
L 400.553846 65.468291 
L 401.536027 65.830112 
L 402.705289 66.493451 
L 404.155174 66.915576 
L 405.511518 67.699522 
L 406.727551 68.845289 
L 408.598371 71.197127 
L 410.609502 73.006233 
L 411.264288 74.091697 
L 412.246469 76.503838 
L 413.181879 78.132033 
L 413.976977 80.302961 
L 414.210829 81.931156 
L 414.631764 83.378441 
L 415.23978 84.222691 
L 415.754255 85.609672 
L 416.689665 87.659992 
L 417.297682 89.16758 
L 417.718616 89.830919 
L 418.513714 92.484275 
L 418.466944 93.268221 
L 418.279862 93.93156 
L 418.279862 94.413988 
L 418.560485 96.102487 
L 418.654026 96.946736 
L 419.542665 98.394021 
L 420.05714 99.117664 
L 421.179632 100.022217 
L 421.974731 100.203127 
L 424.126173 100.444342 
L 426.137304 100.263431 
L 427.493648 100.92677 
L 428.429058 101.469502 
L 429.878943 101.710716 
L 431.656222 102.374055 
L 432.311009 102.012233 
L 432.919025 101.409198 
L 433.667353 101.047377 
L 434.555992 100.92677 
L 437.22191 101.831323 
L 437.736385 101.529805 
L 438.625025 101.590109 
L 439.747516 101.288591 
L 440.449074 100.384038 
L 441.337713 100.203127 
L 442.132811 100.504645 
L 443.769779 100.625252 
L 444.237483 100.08252 
L 447.043713 100.022217 
L 448.025893 99.90161 
L 449.475778 100.203127 
L 450.738581 100.866466 
L 451.253057 101.529805 
L 452.141696 102.132841 
L 453.077106 102.374055 
L 453.544811 101.710716 
L 454.106057 101.409198 
L 455.602712 101.409198 
L 456.865516 101.710716 
L 457.941237 102.374055 
L 459.812056 104.062554 
L 460.420073 104.303768 
L 460.934548 104.665589 
L 461.168401 105.208321 
L 461.636105 105.570142 
L 462.431204 106.715909 
L 462.945679 107.138034 
L 463.366614 107.258641 
L 464.582646 107.017427 
L 465.284204 107.379248 
L 465.798679 107.318945 
L 466.8744 107.741069 
L 468.558138 108.94714 
L 469.400007 109.670782 
L 470.101564 109.911997 
L 470.616039 109.851693 
L 471.224056 110.032604 
L 471.832072 110.092907 
L 472.62717 110.394425 
L 473.328728 110.334121 
L 473.936744 110.575335 
L 474.49799 111.118067 
L 475.059236 111.902013 
L 476.275269 113.952333 
L 477.725154 115.399618 
L 478.520252 115.882047 
L 479.175039 116.123261 
L 479.783055 116.183564 
L 480.578154 116.424778 
L 481.373252 116.545385 
L 482.636055 117.570546 
L 483.337613 117.691153 
L 484.03917 118.113277 
L 484.553645 118.595706 
L 485.442285 119.922383 
L 486.658317 121.249061 
L 487.359875 122.093311 
L 488.388825 124.384845 
L 489.230694 125.952737 
L 490.166104 126.977897 
L 490.820891 127.339718 
L 491.335366 127.460325 
L 491.803071 128.183968 
L 492.457858 128.847307 
L 493.299727 129.390038 
L 494.094825 130.716716 
L 494.422218 131.741876 
L 494.983464 132.405215 
L 495.591481 132.82734 
L 496.293038 133.128858 
L 497.555841 132.82734 
L 498.023546 132.465519 
L 498.35094 132.465519 
L 498.771874 132.344912 
L 499.286349 132.706733 
L 501.952267 133.550982 
L 502.887677 133.671589 
L 503.495693 133.973107 
L 505.600365 136.144034 
L 506.489005 137.048587 
L 507.845349 138.676783 
L 508.780759 139.521032 
L 510.230644 141.088924 
L 510.651578 142.234692 
L 511.119283 143.139245 
L 512.101463 144.104101 
L 512.662709 144.646833 
L 514.720611 145.973511 
L 515.749562 146.998671 
L 516.310808 147.119278 
L 517.012365 147.420796 
L 517.667152 147.903224 
L 519.350889 148.325349 
L 520.052447 148.68717 
L 520.566922 149.290205 
L 520.894315 150.496276 
L 521.31525 151.280222 
L 521.876496 151.581739 
L 522.484512 152.305382 
L 523.139299 152.727507 
L 523.747315 153.330542 
L 524.308561 154.174792 
L 524.776266 155.079345 
L 525.103659 156.586933 
L 527.208332 159.541806 
L 528.564676 161.350912 
L 529.079151 162.195162 
L 530.435495 163.220322 
L 531.932151 163.642447 
L 532.072462 163.943964 
L 532.680479 164.547 
L 533.335266 164.848517 
L 534.972233 165.089731 
L 536.562429 164.969124 
L 538.292937 167.019445 
L 538.713872 168.225515 
L 539.275118 169.009461 
L 539.742823 170.818567 
L 539.742823 171.662817 
L 539.602511 172.868887 
L 539.789593 177.391653 
L 539.50897 178.296206 
L 539.50897 181.251079 
L 539.275118 183.48231 
L 539.368659 185.472326 
L 539.228347 186.256272 
L 539.134806 190.779037 
L 538.433249 191.743894 
L 538.246167 191.864501 
L 537.263987 191.985108 
L 536.65597 193.130875 
L 535.065774 196.929998 
L 534.972233 198.618497 
L 534.504528 199.764264 
L 534.598069 200.608514 
L 534.504528 200.789424 
L 534.223905 201.030638 
L 534.036823 200.970335 
L 533.70943 201.39246 
L 532.306315 201.874888 
L 531.324135 202.116102 
L 530.154872 201.995495 
L 529.219463 202.236709 
L 527.114791 201.693977 
L 525.898758 200.910031 
L 524.635955 200.065782 
L 524.074709 199.824568 
L 523.794086 199.462747 
L 523.560233 198.678801 
L 523.139299 197.231516 
L 522.157119 196.146052 
L 520.707234 193.130875 
L 520.426611 192.467536 
L 519.865365 189.63327 
L 519.912135 188.849324 
L 519.537971 188.005075 
L 518.836414 187.281432 
L 518.275168 186.195969 
L 517.52684 185.291416 
L 517.339758 184.205952 
L 516.264037 182.215935 
L 519.491201 181.673204 
L 519.39766 181.673204 
L 519.023496 181.492293 
L 515.656021 176.788617 
L 514.393217 174.195565 
L 513.738431 172.386459 
L 512.335316 171.481906 
L 511.633759 169.793407 
L 510.978972 167.984301 
L 509.108152 165.632463 
L 508.733988 163.280625 
L 508.313054 162.617286 
L 507.705037 162.255465 
L 506.95671 161.953948 
L 505.693906 160.868484 
L 503.776316 159.963931 
L 502.887677 159.240288 
L 501.110398 157.310575 
L 500.128218 156.345719 
L 498.39771 154.174792 
L 497.088136 153.451149 
L 496.199497 153.209935 
L 495.685022 153.209935 
L 493.62712 151.883257 
L 492.130465 150.616883 
L 491.195055 149.89324 
L 489.137153 147.360492 
L 488.529137 147.119278 
L 487.734039 146.395635 
L 487.032481 145.551386 
L 486.330924 144.888047 
L 485.395514 144.405619 
L 484.740727 143.92319 
L 484.179481 143.681976 
L 483.150531 142.656816 
L 482.869908 142.114084 
L 482.12158 141.209531 
L 481.420022 140.727103 
L 480.858777 140.6668 
L 480.157219 140.365282 
L 479.175039 139.762247 
L 478.192859 139.340122 
L 477.39776 138.556176 
L 476.555892 137.229498 
L 476.41558 136.686766 
L 475.339859 136.083731 
L 473.702892 135.842517 
L 471.925613 136.204338 
L 470.896662 135.540999 
L 470.195105 135.239481 
L 469.306466 134.998267 
L 468.604908 134.576143 
L 467.903351 133.550982 
L 467.342105 133.189161 
L 466.500236 132.887644 
L 466.453466 133.189161 
L 465.658368 133.249465 
L 464.629417 132.947947 
L 463.927859 132.586126 
L 463.319843 132.706733 
L 461.729646 133.370072 
L 461.168401 133.973107 
L 460.466843 135.360088 
L 460.092679 135.72191 
L 459.391122 135.661606 
L 458.315401 136.144034 
L 457.239679 136.023427 
L 456.584893 136.566159 
L 455.36886 136.74707 
L 453.310958 137.651623 
L 452.282008 137.591319 
L 451.253057 137.289802 
L 449.990254 137.229498 
L 447.885582 137.711926 
L 447.090483 137.77223 
L 445.500287 137.289802 
L 444.518106 137.531016 
L 444.097172 137.77223 
L 443.582697 138.616479 
L 442.553746 138.857694 
L 442.366664 139.82255 
L 442.03927 140.244675 
L 441.571566 141.330138 
L 441.665107 142.777423 
L 441.150631 143.380459 
L 441.01032 144.526226 
L 440.636156 144.827744 
L 440.308762 144.827744 
L 440.12168 144.043798 
L 440.402303 143.259852 
L 441.384484 143.862887 
L 442.881139 146.033814 
L 443.208533 146.697153 
L 443.255303 147.601706 
L 443.489156 148.023831 
L 443.489156 148.626866 
L 443.816549 149.652026 
L 443.816549 150.435972 
L 443.629467 151.159615 
L 443.208533 151.883257 
L 443.208533 152.305382 
L 443.021451 152.908417 
L 443.489156 153.81297 
L 443.535926 156.164808 
L 443.442385 157.370879 
L 442.834369 158.516646 
L 442.319893 159.179985 
L 441.758648 159.541806 
L 441.805418 160.205145 
L 441.431254 160.868484 
L 441.103861 160.325752 
L 440.729697 160.566966 
L 456.30427 188.849324 
L 456.538122 188.969931 
L 457.192909 189.934788 
L 457.660614 191.442376 
L 457.894466 192.648447 
L 457.33322 194.457553 
L 454.152827 196.206356 
L 452.094926 197.774248 
L 450.64504 199.764264 
L 446.155074 204.528244 
L 445.219664 204.709154 
L 444.471336 205.372493 
L 443.816549 206.156439 
L 441.898959 207.603724 
L 441.103861 208.025849 
L 439.420123 208.447973 
L 438.625025 208.508277 
L 435.491402 209.59374 
L 433.994746 210.498294 
L 433.38673 211.101329 
L 432.919025 211.824971 
L 432.45132 212.126489 
L 432.170697 212.608917 
L 431.422369 213.211953 
L 429.083845 214.53863 
L 428.195206 214.719541 
L 427.353337 215.201969 
L 426.324386 215.503487 
L 424.687419 215.624094 
L 412.994797 213.634077 
L 385.961454 209.051009 
L 385.774372 206.880081 
L 385.774372 204.769458 
L 385.119585 200.668817 
L 384.792192 198.739104 
L 385.072814 194.819374 
L 385.259896 193.130875 
L 385.213126 191.261466 
L 384.838962 188.246289 
L 384.511569 187.341736 
L 384.277716 184.808987 
L 384.230946 184.808987 
L 384.184175 184.68838 
L 384.324487 183.904434 
L 374.596225 177.813777 
L 372.725405 177.451956 
L 360.518308 176.788617 
L 352.473783 177.632867 
L 348.778915 177.994688 
L 346.721013 178.054991 
L 344.756653 178.296206 
L 337.226604 179.924401 
L 331.333522 181.431989 
L 329.977178 182.035025 
L 319.219965 187.462343 
L 315.338015 188.366896 
L 307.807966 191.080555 
L 304.019556 191.804198 
L 300.55854 193.130875 
L 295.413786 196.146052 
L 291.718918 197.713944 
L 290.128721 198.739104 
L 288.585295 199.462747 
L 283.159918 201.151246 
L 281.148787 201.693977 
L 278.716722 202.176406 
L 276.61205 203.020655 
L 274.647689 203.683994 
L 272.77687 204.166422 
L 268.473985 204.950368 
L 262.767985 207.000688 
L 260.616542 207.54342 
L 255.565329 209.714348 
L 250.233494 211.221936 
L 248.362674 211.764668 
L 242.890527 212.970738 
L 239.38274 214.237113 
L 238.073166 214.779845 
L 236.249117 215.322576 
L 232.554249 216.830165 
L 228.578757 218.217146 
L 227.082101 218.337753 
L 225.07097 218.820181 
L 223.200151 219.121699 
L 221.376102 219.845341 
L 219.364971 220.50868 
L 215.202397 221.714751 
L 213.51866 222.559001 
L 208.420676 224.609321 
L 206.596627 225.513874 
L 204.819349 226.237516 
L 203.04207 227.262676 
L 201.077709 228.106926 
L 197.476382 230.036639 
L 195.699103 230.941192 
L 192.238087 233.112119 
L 190.133415 234.438797 
L 188.402907 235.34335 
L 185.456366 237.333367 
L 179.750366 242.459167 
L 178.16017 243.36372 
L 176.195809 244.20797 
L 174.745924 244.328577 
L 173.202498 243.906452 
L 171.846154 242.278257 
L 170.770432 240.167633 
L 169.881793 237.815795 
L 168.852842 235.644868 
L 165.532138 226.961159 
L 164.737039 224.669624 
L 164.175793 222.076572 
L 163.614547 220.026252 
L 163.053302 217.252289 
L 163.100072 213.453167 
L 163.006531 211.282239 
L 163.240384 206.880081 
L 164.78381 197.955158 
L 165.204744 191.804198 
L 165.064433 189.874484 
L 165.251515 185.71354 
L 164.924121 183.422006 
L 164.83058 181.492293 
L 164.970892 179.261062 
L 165.204744 177.753474 
L 165.298285 175.944368 
L 165.578908 174.014655 
L 166.374006 170.215532 
L 166.561088 168.285819 
L 166.374006 166.717927 
L 166.514318 162.798197 
L 166.841711 160.747877 
L 167.449728 159.179985 
L 168.151285 156.225112 
L 168.385137 154.65722 
L 168.852842 153.209935 
L 169.367318 150.315365 
L 169.460859 148.68717 
L 169.227006 145.611689 
L 169.180236 143.983494 
L 169.273777 141.812567 
L 168.385137 139.340122 
L 168.338367 137.108891 
L 168.104514 135.480696 
L 167.777121 130.294592 
L 167.122334 127.339718 
L 167.075564 125.651219 
L 167.356187 124.686363 
L 167.63681 122.877257 
L 168.198055 121.309365 
L 169.273777 119.922383 
L 170.302727 116.545385 
L 170.396268 114.856886 
L 169.273777 110.876853 
L 168.525449 109.188354 
L 165.578908 103.821339 
L 165.064433 102.072537 
L 164.970892 100.263431 
L 165.017662 98.394021 
L 165.298285 96.645219 
L 165.578908 91.459115 
L 166.093383 88.14242 
L 166.467547 86.634832 
L 166.982023 81.448728 
L 167.215875 79.880836 
L 167.543269 73.066536 
L 167.356187 71.378037 
L 167.075564 69.930753 
L 166.374006 68.483468 
L 165.391826 67.217094 
L 164.175793 66.071326 
L 161.650187 64.201917 
L 159.171351 63.23706 
L 157.721466 63.176757 
L 154.400761 62.272204 
L 152.576712 62.03099 
L 150.846204 62.2119 
L 145.841762 62.03099 
L 142.567827 62.272204 
L 140.837319 62.272204 
L 139.153582 62.453114 
L 135.926418 62.272204 
L 132.27832 61.789775 
L 130.36073 61.608865 
L 128.48991 61.247044 
L 126.57232 61.005829 
L 124.467648 60.945526 
L 120.585697 60.463098 
L 118.761648 60.824919 
L 117.124681 60.583705 
L 115.534484 60.824919 
L 111.605763 61.005829 
L 109.734944 60.644008 
L 107.864124 60.764615 
L 106.040075 60.704312 
L 103.280616 61.126436 
L 101.175944 61.005829 
L 96.452125 60.282187 
L 94.628076 59.679152 
L 92.429863 59.076116 
L 88.594683 59.015813 
L 86.302929 58.653992 
L 84.57242 58.11126 
L 83.356388 57.568528 
L 80.035683 57.508224 
L 76.621437 56.724278 
L 74.98447 56.181547 
L 71.008979 55.276994 
L 68.951077 54.915172 
L 66.893176 55.035779 
L 65.069126 54.854869 
L 61.233946 54.19153 
L 59.082504 54.251833 
L 57.539078 54.131226 
L 55.481176 53.769405 
L 53.98452 53.648798 
L 49.775176 52.864852 
L 46.26739 52.442727 
L 44.490111 52.563334 
L 42.291898 52.503031 
L 40.748472 52.32212 
L 38.830882 51.658781 
L 35.369866 49.427551 
L 34.200603 47.799355 
L 33.452276 46.231463 
L 33.452276 42.733858 
L 34.107063 38.452307 
L 33.732899 33.628024 
L 33.686128 31.095276 
L 33.311964 29.587687 
L 33.078112 27.356457 
L 32.703948 25.788565 
L 32.563636 23.919155 
L 32.657177 22.049746 
L 33.078112 20.300943 
L 33.218423 18.491837 
L 33.218423 18.491837 
" clip-path="url(#pfa983bf758)" style="fill: none; stroke: #000000; stroke-width: 3"/>
   </g>
  </g>
 </g>
 <defs>
  <clipPath id="pfa983bf758">
   <rect x="7.2" y="7.2" width="558" height="248.420414"/>
  </clipPath>
 </defs>
</svg>
