<svg xmlns="http://www.w3.org/2000/svg" xmlns:xlink="http://www.w3.org/1999/xlink" height="460.373" viewBox="0 0 558 345.28" width="744" stroke-linecap="butt" stroke-linejoin="round" xmlns:v="https://vecta.io/nano"><style><![CDATA[.B{clip-path:url(#R)}.C{fill:#fff}.D{stroke-linecap:butt}.E{stroke-linejoin:round}.F{stroke-width:1.5}]]></style><path d="M0 345.28h558V0H0z" fill="#111"/><g fill="none" stroke="#999"><path d="M494.084 186.248l20.669-45.541" class="B"/><path d="M494.084 186.248l.033-.335-.26-2.642-.749-2.306-1.237-1.887-1.237-1.761-3.483-2.935-1.725-1.552-1.269-2.139-.976-1.887-1.497-1.761-2.962-4.613-1.269-1.929-1.497-3.648-.944-2.097-.781-2.097-1.237-2.097-.976-1.929-2.246-3.858-5.208-9.771m29.52 51.244l-.488 4.194-1.725 9.771-.488 2.264-.488 4.529-.26 2.055-1.497 9.771-.488 6.039-.26 4.319m-74.474-5.65l.976 14.623v2.055l-.228 2.264-.521 2.097-.749 2.223-.749 2.055-1.237 1.845-8.202 13.545-1.985 4.11-.749 2.264-.488 2.055-.488 2.223-.26 2.264-3.971 61.477" class="B"/><path d="M413.916 223.54l-3.811.679-19.005 5.217-6.402 1.355-4.251.616-2.497.151-5.748.281-9.472.243-9.82.067-6.337-.319m67.343-8.29l2.213-.302 2.194-.176 2.158.138 1.517.067 1.846.218 1.953.294 2.331.541 3.756.801 3.125.587 12.662 2.642 4.459.545 2.246.629 2.506.042 2.213.294 4.72.126 2.246-.126 2.213-.294 8.691-.503 1.497-.168 4.492.126 2.213-.084 3.222.252m-.001 0l.26-4.319.488-6.039 1.497-9.771.26-2.055.488-4.529.488-2.264 1.725-9.771.488-4.194m-5.694 42.942l2.246-.126 2.213.252 2.278.084 2.213.252 2.246.084 2.213.252 2.734.252 6.217.755 2.246.084 4.459.503 2.246.084 2.213.419 15.135 1.594" class="B"/><path d="M488.388 229.189l-3.222-.252-2.213.084-4.492-.126-1.497.168-8.691.503-2.213.294-2.246.126-4.72-.126-2.213-.294-2.506-.042-2.246-.629-4.459-.545-12.662-2.642-3.125-.587-3.756-.801-2.331-.541-1.953-.294-1.846-.218-1.517-.067-2.158-.138-2.194.176-2.213.302m123.134 10.136l10.22-100.183m-10.22 100.183l-15.135-1.594-2.213-.419-2.246-.084-4.459-.503-2.246-.084-6.217-.755-2.734-.252-2.213-.252-2.246-.084-2.213-.252-2.278-.084-2.213-.252-2.246.126M395.265 338.64l3.971-61.477.26-2.264.488-2.223.488-2.055.749-2.264 1.985-4.11 8.202-13.545 1.237-1.845.749-2.055.749-2.223.521-2.097.228-2.264v-2.055l-.976-14.623" class="B"/><path d="M547.269 133.493l-10.22 100.183m-72.487-98.673l5.208 9.771 2.246 3.858.976 1.929 1.237 2.097.781 2.097.944 2.097 1.497 3.648 1.269 1.929 2.962 4.613 1.497 1.761.976 1.887 1.269 2.139 1.725 1.552 3.483 2.935 1.237 1.761 1.237 1.887.749 2.306.26 2.642-.033.335m20.671-45.541l-20.669 45.541M142.099 325.64l-32.809-1.426m32.809 1.426l44.299 2.181 21.613.923M156.225 43.04l6.673-23.945" class="B"/><path d="M162.898 19.095l-6.673 23.945m6.673-23.945L119.803 6.934" class="B"/><path d="M162.898 19.095l36.016 9.809 4.215 3.275M10.731 250.366l115.159 6.164 2.767-.042 20.376-4.235 2.571-.126 8.658.294" class="B"/><path d="M10.731 250.366l4.039-56.608 1.113-15.407.293-3.46M27.738 54.84l5.257.528 37.041 3.984M27.738 54.84l-5.192 55.086-6.37 64.966m144.085 77.529l-1.302 29.774m1.302-29.774l38.896 2.348 2.702.797 2.506 1.3 2.213 1.761 1.269 1.51 1.432 2.642.911 2.852.228 3.019-2.213 51.328-.195 8.764m-47.749-76.321l-8.658-.294-2.571.126-20.376 4.235-2.767.042-115.159-6.164" class="B"/><path d="M208.011 328.743l.195-8.764 2.213-51.328-.228-3.019-.911-2.852-1.432-2.642-1.269-1.51-2.213-1.761-2.506-1.3-2.702-.797-38.896-2.348m47.749 76.321l28.773 1.468 13.898.419 5.696-.503 3.385-.671 7.714-2.139m-59.466 1.426l-21.613-.923-44.299-2.181m202.943-18.744l-38.961 10.232" class="B"/><path d="M345.042 306.895l-6.152-24.322-.521-4.445.195-7.213.618-4.403 7.389-34.68m.001-.001l-38.587-17.013" class="B"/><path d="M346.572 231.831l-7.389 34.68-.618 4.403-.195 7.213.521 4.445 6.152 24.322m1.529-75.063l6.337.319 9.82-.067 9.472-.243 5.748-.281 2.497-.151 4.251-.616 6.402-1.355 19.005-5.217 3.811-.679M70.035 59.352l39.905 4.235m-39.905-4.235L75.601 6.64" class="B"/><path d="M70.035 59.352l-37.041-3.984-5.257-.528m42.298 4.512l-3.483 33.129-.195 5.871.423 7.045 1.823 12.203m41.337-54.012l-39.905-4.235m39.905 4.235l6.9.797 4.752 1.3 3.418 1.468 19.269 10.19 4.394 1.594 4.557 1.09 4.687.503h4.687l5.794-.839 4.524-1.258 4.329-1.803 4.069-2.306 2.864-2.055 4.671-3.699 2.783-4.269" class="B"/><path d="M109.94 63.588l3.678-33.674.846-3.858 5.338-19.122m-9.862 56.654l-3.418 32.332-.163 3.481.293 3.523.716 3.439 1.595 4.403 2.278 4.068 2.148 2.768 3.353 3.229 3.841 2.684 4.264 1.971 3.32 1.006 4.622.671 76.946-1.51" class="B"/><path d="M191.638 64.301l-2.783 4.269-4.671 3.699-2.864 2.055-4.069 2.306-4.329 1.803-4.524 1.258-5.794.839h-4.687l-4.687-.503-4.557-1.09-4.394-1.594-19.269-10.19-3.418-1.468-4.752-1.3-6.9-.797m196.141 253.539l38.961-10.232m-38.961 10.232l-38.603 10.19m38.603-10.19l-3.548-14.384-5.696-21.009-.195-8.303" class="B"/><path d="M296.642 273.431l.195 8.303 5.696 21.009 3.548 14.384m-38.603 10.19l38.603-10.19m-38.603 10.19l-9.179-35.016-.944-5.326-.456-5.032.228-5.787 1.4-17.655-1.335-5.493m10.286 74.309l-7.714 2.139-3.385.671-5.696.503-13.898-.419-28.773-1.468" class="B"/><path d="M257.192 253.008l1.335 5.493-1.4 17.655-.228 5.787.456 5.032.944 5.326 9.179 35.016m-57.742-201.665l-76.946 1.51-4.622-.671-3.32-1.006-4.264-1.971-3.841-2.684-3.353-3.229-2.148-2.768-2.278-4.068-1.595-4.403-.716-3.439-.293-3.523.163-3.481 3.418-32.332m9.862-56.653l43.095 12.161M119.803 6.934l-5.338 19.122-.846 3.858-3.678 33.674m106.304 130.25l1.335-10.903.879-2.474 1.432-2.181 1.367-1.384 17.967-15.558 1.758-2.432.976-2.432.358-2.181 2.972-38.509 2.138-5.565m-31.182 83.619l53.543 6.458 6.998 1.677 6.868 2.097 4.231 1.887" class="B"/><path d="M216.245 193.838l-24.249-2.935-4.547-.478-19.702-2.08-43.388-4.194-108.183-9.259m231.251-64.673l-2.138 5.565-2.972 38.509-.358 2.181-.976 2.432-1.758 2.432-17.967 15.558-1.367 1.384-1.432 2.181-.879 2.474-1.335 10.903M68.603 117.6l-1.823-12.203-.423-7.045.195-5.871 3.483-33.129M75.601 6.64l-5.566 52.712m39.254 264.862l32.809 1.426m16.861-43.445l1.302-29.774m127.625-46.464l3.157-7.422 1.009-3.439.716-4.739.065-3.606-.553-4.781-1.269-4.613-2.995-7.632-1.953-6.668-1.4-7.968-.423-5.745.033-5.829.684-6.877 1.335-6.835 7.291-23.316 1.172-5.703.456-4.655-.065-5.829-.781-5.787-1.465-5.661-1.66-4.361-2.083-4.194-2.441-3.942-3.431-4.491-2.884-1.631m7.485 145.724l20.099 8.861" class="B"/><path d="M287.886 205.957l-4.231-1.887-6.868-2.097-6.998-1.677-53.543-6.458M280.4 60.233l2.884 1.631 3.431 4.491 2.441 3.942 2.083 4.194 1.66 4.361 1.465 5.661.781 5.787.065 5.829-.456 4.655-1.172 5.703-7.291 23.316-1.335 6.835-.684 6.877-.033 5.829.423 5.745 1.4 7.968 1.953 6.668 2.995 7.632 1.269 4.613.553 4.781-.065 3.606-.716 4.739-1.009 3.439-3.157 7.422M203.128 32.178l-4.215-3.275-36.016-9.809m145.088 195.724l38.587 17.013" class="B"/><path d="M307.985 214.818l5.208-10.169 2.272-2.793 2.968-1.744 2.617-2.097 2.184-3.753 1.66-4.802 1.221-5.762 2.968-19.73 3.144-14.493m-24.242 65.343l-20.099-8.861" class="B"/><path d="M332.227 149.475l-3.144 14.493-2.968 19.73-1.221 5.762-1.66 4.802-2.184 3.753-2.617 2.097-2.968 1.744-2.272 2.793-5.208 10.169M16.176 174.892l3.75.323 104.434 8.936 44.104 4.269 23.533 2.483 17.59 2.13 6.66.805" class="B"/><path d="M16.176 174.892l.251-2.998 6.119-61.967 5.192-55.086M16.176 174.892l-.293 3.46L12.944 219l-2.213 31.367" class="B"/></g><defs><path d="M0 1.936c.514 0 1.006-.204 1.369-.567S1.936.514 1.936 0s-.204-1.006-.567-1.369S.514-1.936 0-1.936s-1.006.204-1.369.567-.567.856-.567 1.369.204 1.006.567 1.369.856.567 1.369.567z" id="A" class="D E"/></defs><g class="B C"><use x="494.084" xlink:href="#A" y="186.248"/></g><g class="B C"><use x="413.916" xlink:href="#A" y="223.54"/></g><g class="B C"><use x="488.388" xlink:href="#A" y="229.189"/></g><g class="B C"><use x="537.049" xlink:href="#A" y="233.676"/></g><g class="B C"><use x="395.265" xlink:href="#A" y="338.64"/></g><g class="B C"><use x="547.269" xlink:href="#A" y="133.493"/></g><g class="B C"><use x="464.562" xlink:href="#A" y="135.003"/></g><g class="B C"><use x="514.753" xlink:href="#A" y="140.706"/></g><g class="B C"><use x="142.099" xlink:href="#A" y="325.64"/></g><g class="B C"><use x="156.225" xlink:href="#A" y="43.04"/></g><g class="B C"><use x="162.898" xlink:href="#A" y="19.095"/></g><g class="B C"><use x="10.731" xlink:href="#A" y="250.366"/></g><g class="B C"><use x="27.738" xlink:href="#A" y="54.84"/></g><g class="B C"><use x="160.261" xlink:href="#A" y="252.421"/></g><g class="B C"><use x="208.011" xlink:href="#A" y="328.743"/></g><g class="B C"><use x="345.042" xlink:href="#A" y="306.895"/></g><g class="B C"><use x="346.572" xlink:href="#A" y="231.831"/></g><g class="B C"><use x="70.035" xlink:href="#A" y="59.352"/></g><g class="B C"><use x="109.94" xlink:href="#A" y="63.588"/></g><g class="B C"><use x="191.638" xlink:href="#A" y="64.301"/></g><g class="B C"><use x="306.081" xlink:href="#A" y="317.127"/></g><g class="B C"><use x="296.642" xlink:href="#A" y="273.431"/></g><g class="B C"><use x="267.478" xlink:href="#A" y="327.317"/></g><g class="B C"><use x="257.192" xlink:href="#A" y="253.008"/></g><g class="B C"><use x="209.736" xlink:href="#A" y="125.652"/></g><g class="B C"><use x="119.803" xlink:href="#A" y="6.934"/></g><g class="B C"><use x="216.245" xlink:href="#A" y="193.838"/></g><g class="B C"><use x="247.427" xlink:href="#A" y="110.219"/></g><g class="B C"><use x="68.603" xlink:href="#A" y="117.6"/></g><g class="B C"><use x="75.601" xlink:href="#A" y="6.64"/></g><g class="B C"><use x="109.289" xlink:href="#A" y="324.214"/></g><g class="B C"><use x="158.959" xlink:href="#A" y="282.195"/></g><g class="B C"><use x="287.886" xlink:href="#A" y="205.957"/></g><g class="B C"><use x="280.4" xlink:href="#A" y="60.233"/></g><g class="B C"><use x="203.128" xlink:href="#A" y="32.178"/></g><g class="B C"><use x="307.985" xlink:href="#A" y="214.818"/></g><g class="B C"><use x="332.227" xlink:href="#A" y="149.475"/></g><g class="B C"><use x="16.176" xlink:href="#A" y="174.892"/></g><defs><path d="M-5 5L5-5M-5-5L5 5" id="B" stroke="#0f0" class="D E F"/></defs><g class="B F"><use x="390.839" xlink:href="#B" y="211.576" fill="#0f0" stroke="#0f0"/></g><defs><path d="M-5 5L5-5M-5-5L5 5" id="C" stroke="red" class="D E F"/></defs><g class="B F"><use x="81.623" xlink:href="#C" y="173.835" fill="red" stroke="red"/></g><path d="M346.572 231.831l-62.917-27.761-6.868-2.097-6.998-1.677-53.543-6.458m174.853 35.599l-6.402 1.355-4.251.616-2.497.151-5.748.281-9.472.243-9.82.067-6.337-.319m-130.327-37.993l-24.249-2.935-4.547-.478-19.702-2.08-43.388-4.194-34.613-2.961" class="B" fill="none" stroke-linecap="square" stroke="#ff8c00" stroke-width="2"/><path d="M455.597 66.713H551q2 0 2-2V7q0-2-2-2h-95.403q-2 0-2 2v57.713q0 2 2 2z" stroke-linejoin="miter" opacity=".8" stroke="#ccc" class="C"/><path d="M467.597 18.973a5 5 0 0 0 5-5 5 5 0 0 0-5-5 5 5 0 0 0-5 5 5 5 0 0 0 5 5z" fill="#0f0"/><g transform="matrix(.1 0 0 -.1 485.596875 16.598437)"><defs><path d="M30.609 48.391q-7.219 0-11.422-5.641-4.203-5.641-4.203-15.453 0-9.812 4.172-15.453 4.188-5.641 11.453-5.641 7.188 0 11.375 5.656 4.203 5.672 4.203 15.438 0 9.719-4.203 15.406-4.187 5.688-11.375 5.688zm0 7.609q11.719 0 18.406-7.625 6.703-7.609 6.703-21.078 0-13.422-6.703-21.078-6.687-7.641-18.406-7.641-11.766 0-18.437 7.641-6.656 7.656-6.656 21.078 0 13.469 6.656 21.078Q18.844 56 30.609 56z" id="D" class="D E"/><path d="M41.109 46.297q-1.516.875-3.297 1.281-1.781.422-3.922.422-7.625 0-11.703-4.953-4.078-4.953-4.078-14.234V0H9.078v54.688h9.031v-8.5q2.844 4.984 7.375 7.391Q30.031 56 36.531 56q.922 0 2.047-.125 1.125-.109 2.484-.359z" id="E" class="D E"/><path d="M9.422 54.688h8.984V0H9.422zm0 21.297h8.984V64.594H9.422z" id="F" class="D E"/><path d="M45.406 27.984q0 9.766-4.031 15.125-4.016 5.375-11.297 5.375-7.219 0-11.25-5.375-4.031-5.359-4.031-15.125 0-9.719 4.031-15.094 4.031-5.375 11.25-5.375 7.281 0 11.297 5.375 4.031 5.375 4.031 15.094zm8.984-21.203q0-13.953-6.203-20.766Q42-20.797 29.203-20.797q-4.734 0-8.937.703-4.203.703-8.156 2.172v8.734q3.953-2.141 7.813-3.156 3.859-1.031 7.859-1.031 8.844 0 13.234 4.609 4.391 4.609 4.391 13.938v4.453q-2.781-4.844-7.125-7.234Q33.938 0 27.875 0 17.828 0 11.672 7.656q-6.156 7.672-6.156 20.328 0 12.688 6.156 20.344Q17.828 56 27.875 56q6.063 0 10.406-2.391 4.344-2.391 7.125-7.219v8.297h8.984z" id="G" class="D E"/><path d="M31 75.875q-6.531-11.219-9.719-22.219-3.172-10.984-3.172-22.266 0-11.266 3.203-22.328Q24.516-2 31-13.187h-7.812Q15.875-1.703 12.234 9.375 8.594 20.453 8.594 31.391q0 10.891 3.609 21.922 3.625 11.047 10.984 22.563z" id="H" class="D E"/><path d="M8.5 21.578v33.109h8.984V21.922q0-7.766 3.016-11.656 3.031-3.875 9.094-3.875 7.266 0 11.484 4.641 4.234 4.641 4.234 12.656v31h8.984V0h-8.984v8.406Q42.047 3.422 37.719 1q-4.312-2.422-10.031-2.422-9.422 0-14.312 5.859Q8.5 10.297 8.5 21.578zM31.109 56z" id="I" class="D E"/><path d="M18.313 70.219V54.688h18.5v-6.984h-18.5V18.016q0-6.687 1.828-8.594 1.828-1.906 7.453-1.906h9.219V0h-9.219Q17.188 0 13.234 3.875 9.281 7.766 9.281 18.016v29.688H2.688v6.984h6.594v15.531z" id="J" class="D E"/><path d="M56.203 29.594v-4.391H14.891q.594-9.281 5.594-14.141 5-4.859 13.938-4.859 5.172 0 10.031 1.266 4.859 1.266 9.656 3.813v-8.5Q49.266.734 44.188-.344q-5.078-1.078-10.297-1.078-13.094 0-20.734 7.609-7.641 7.625-7.641 20.625 0 13.422 7.25 21.297Q20.016 56 32.328 56q11.031 0 17.453-7.109 6.422-7.094 6.422-19.297zm-8.984 2.641q-.094 7.359-4.125 11.75-4.031 4.406-10.672 4.406-7.516 0-12.031-4.25-4.516-4.25-5.203-11.969z" id="K" class="D E"/><path d="M8.016 75.875h7.813q7.313-11.516 10.953-22.562 3.641-11.031 3.641-21.922 0-10.937-3.641-22.016-3.641-11.078-10.953-22.562H8.016Q14.5-2 17.703 9.063q3.203 11.063 3.203 22.328 0 11.281-3.203 22.266-3.203 11-9.687 22.219z" id="L" class="D E"/></defs><use xlink:href="#D"/><use x="61.182" xlink:href="#E"/><use x="102.295" xlink:href="#F"/><use x="130.078" xlink:href="#G"/><use x="193.555" xlink:href="#V"/><use x="225.342" xlink:href="#H"/><use x="264.355" xlink:href="#E"/><use x="303.219" xlink:href="#D"/><use x="364.4" xlink:href="#I"/><use x="427.779" xlink:href="#J"/><use x="466.988" xlink:href="#K"/><use x="528.512" xlink:href="#L"/></g><path d="M467.597 33.652a5 5 0 0 0 5-5 5 5 0 0 0-5-5 5 5 0 0 0-5 5 5 5 0 0 0 5 5z" fill="red"/><g transform="matrix(.1 0 0 -.1 485.596875 31.276562)"><use xlink:href="#D"/><use x="61.182" xlink:href="#E"/><use x="102.295" xlink:href="#F"/><use x="130.078" xlink:href="#G"/><use x="193.555" xlink:href="#V"/><use x="225.342" xlink:href="#H"/><use x="264.355" xlink:href="#E"/><use x="303.219" xlink:href="#D"/><use x="364.4" xlink:href="#I"/><use x="427.779" xlink:href="#J"/><use x="466.988" xlink:href="#K"/><use x="528.512" xlink:href="#L"/></g><use x="467.597" xlink:href="#B" y="43.33" fill="#0f0" stroke="#0f0" class="F"/><g transform="matrix(.1 0 0 -.1 485.596875 45.954687)"><defs><path d="M34.281 27.484q-10.891 0-15.094-2.484-4.203-2.484-4.203-8.5 0-4.781 3.156-7.594 3.156-2.797 8.563-2.797 7.484 0 12 5.297 4.516 5.297 4.516 14.078v2zm17.922 3.719V0h-8.984v8.297Q40.141 3.328 35.547.953q-4.594-2.375-11.234-2.375-8.391 0-13.359 4.719Q6 8.016 6 15.922q0 9.219 6.172 13.906 6.188 4.688 18.438 4.688h12.609v.891q0 6.203-4.078 9.594-4.078 3.391-11.453 3.391-4.687 0-9.141-1.125-4.437-1.125-8.531-3.375v8.313q4.922 1.906 9.563 2.844 4.641.953 9.031.953 11.875 0 17.734-6.156 5.859-6.141 5.859-18.641z" id="M" class="D E"/><path d="M48.781 52.594v-8.406q-3.812 2.109-7.641 3.156-3.828 1.047-7.734 1.047-8.75 0-13.594-5.547-4.828-5.531-4.828-15.547 0-10.016 4.828-15.562 4.844-5.531 13.594-5.531 3.906 0 7.734 1.047 3.828 1.047 7.641 3.156V2.094Q45.016.344 40.984-.531q-4.016-.891-8.562-.891-12.359 0-19.641 7.766-7.266 7.766-7.266 20.953 0 13.375 7.344 21.031Q20.219 56 33.016 56q4.141 0 8.094-.859 3.953-.844 7.672-2.547z" id="N" class="D E"/><path d="M9.422 75.984h8.984V0H9.422z" id="O" class="D E"/></defs><use xlink:href="#D"/><use x="61.182" xlink:href="#E"/><use x="102.295" xlink:href="#F"/><use x="130.078" xlink:href="#G"/><use x="193.555" xlink:href="#V"/><use x="225.342" xlink:href="#H"/><use x="264.355" xlink:href="#M"/><use x="325.635" xlink:href="#N"/><use x="380.615" xlink:href="#J"/><use x="419.824" xlink:href="#I"/><use x="483.203" xlink:href="#M"/><use x="544.482" xlink:href="#O"/><use x="572.266" xlink:href="#L"/></g><use x="467.597" xlink:href="#C" y="58.008" fill="red" stroke="red" class="F"/><g transform="matrix(.1 0 0 -.1 485.596875 60.632812)"><defs><path d="M45.406 46.391v29.594h8.984V0h-8.984v8.203Q42.578 3.328 38.25.953q-4.312-2.375-10.375-2.375-9.906 0-16.141 7.906-6.219 7.922-6.219 20.813 0 12.891 6.219 20.797Q17.969 56 27.875 56q6.063 0 10.375-2.375 4.328-2.359 7.156-7.234zM14.797 27.297q0-9.906 4.078-15.547 4.078-5.641 11.203-5.641 7.125 0 11.219 5.641 4.109 5.641 4.109 15.547 0 9.906-4.109 15.547-4.094 5.641-11.219 5.641-7.125 0-11.203-5.641-4.078-5.641-4.078-15.547z" id="P" class="D E"/><path d="M44.281 53.078v-8.5q-3.797 1.953-7.906 2.922-4.094.984-8.5.984-6.687 0-10.031-2.047-3.344-2.047-3.344-6.156 0-3.125 2.391-4.906 2.391-1.781 9.625-3.391l3.078-.687q9.563-2.047 13.594-5.781 4.031-3.734 4.031-10.422 0-7.625-6.031-12.078-6.031-4.437-16.578-4.437-4.391 0-9.156.859Q10.688.297 5.422 2v9.281q4.984-2.594 9.813-3.891 4.828-1.281 9.578-1.281 6.344 0 9.75 2.172 3.422 2.172 3.422 6.125 0 3.656-2.469 5.609-2.453 1.953-10.812 3.766l-3.125.734q-8.344 1.75-12.062 5.391-3.703 3.641-3.703 9.984 0 7.719 5.469 11.906Q16.75 56 26.813 56q4.969 0 9.359-.734 4.406-.719 8.109-2.187z" id="Q" class="D E"/></defs><use xlink:href="#P"/><use x="63.477" xlink:href="#K"/><use x="125" xlink:href="#Q"/><use x="177.1" xlink:href="#J"/><use x="216.309" xlink:href="#V"/><use x="248.096" xlink:href="#H"/><use x="287.109" xlink:href="#M"/><use x="348.389" xlink:href="#N"/><use x="403.369" xlink:href="#J"/><use x="442.578" xlink:href="#I"/><use x="505.957" xlink:href="#M"/><use x="567.236" xlink:href="#O"/><use x="595.02" xlink:href="#L"/></g><path d="M391.099 234.437a5 5 0 0 0 5-5 5 5 0 0 0-5-5 5 5 0 0 0-5 5 5 5 0 0 0 5 5z" fill="#0f0" class="B"/><path d="M89.747 186.19a5 5 0 0 0 5-5 5 5 0 0 0-5-5 5 5 0 0 0-5 5 5 5 0 0 0 5 5z" fill="red" class="B"/><defs><clipPath id="R"><path d="M0 0h558v345.28H0z" class="D E"/></clipPath></defs></svg>