<?xml version="1.0" encoding="utf-8" standalone="no"?>
<!DOCTYPE svg PUBLIC "-//W3C//DTD SVG 1.1//EN"
  "http://www.w3.org/Graphics/SVG/1.1/DTD/svg11.dtd">
<svg xmlns:xlink="http://www.w3.org/1999/xlink" width="592.952812pt" height="336.115768pt" viewBox="0 0 592.952812 336.115768" xmlns="http://www.w3.org/2000/svg" version="1.1">
 <metadata>
  <rdf:RDF xmlns:dc="http://purl.org/dc/elements/1.1/" xmlns:cc="http://creativecommons.org/ns#" xmlns:rdf="http://www.w3.org/1999/02/22-rdf-syntax-ns#">
   <cc:Work>
    <dc:type rdf:resource="http://purl.org/dc/dcmitype/StillImage"/>
    <dc:date>2026-01-28T18:55:09.383444</dc:date>
    <dc:format>image/svg+xml</dc:format>
    <dc:creator>
     <cc:Agent>
      <dc:title>Matplotlib v3.10.0, https://matplotlib.org/</dc:title>
     </cc:Agent>
    </dc:creator>
   </cc:Work>
  </rdf:RDF>
 </metadata>
 <defs>
  <style type="text/css">*{stroke-linejoin: round; stroke-linecap: butt}</style>
 </defs>
 <g id="figure_1">
  <g id="patch_1">
   <path d="M 0 336.115768 
L 592.952812 336.115768 
L 592.952812 0 
L 0 0 
z
" style="fill: #ffffff"/>
  </g>
  <g id="axes_1">
   <g id="patch_2">
    <path d="M 55.652813 286.402018 
L 585.752813 286.402018 
L 585.752813 9.202018 
L 55.652813 9.202018 
L 55.652813 286.402018 
z
" style="fill: none"/>
   </g>
   <g id="FillBetweenPolyCollection_1">
    <path d="M 65.847043 273.802018 
L 65.847043 273.802018 
L 67.894078 273.802018 
L 69.941112 273.802018 
L 71.988146 273.802018 
L 74.03518 273.802018 
L 76.082215 272.597713 
L 78.129249 272.380398 
L 80.176283 272.178309 
L 82.223318 271.022792 
L 84.270352 270.612617 
L 86.317386 270.217947 
L 88.36442 269.583191 
L 90.411455 269.232861 
L 92.458489 268.294823 
L 94.505523 268.012389 
L 96.552558 267.798419 
L 98.599592 267.224847 
L 100.646626 265.738064 
L 102.693661 265.502965 
L 104.740695 265.431245 
L 106.787729 263.916128 
L 108.834763 263.502723 
L 110.881798 263.244683 
L 112.928832 262.576125 
L 114.975866 262.471447 
L 117.022901 261.086658 
L 119.069935 259.92154 
L 121.116969 259.614327 
L 123.164003 258.492331 
L 125.211038 258.221599 
L 127.258072 257.729658 
L 129.305106 257.18452 
L 131.352141 256.212313 
L 133.399175 255.424468 
L 135.446209 255.219061 
L 137.493243 254.974013 
L 139.540278 253.551144 
L 141.587312 253.480116 
L 143.634346 252.551695 
L 145.681381 251.9382 
L 147.728415 251.649728 
L 149.775449 250.988239 
L 151.822483 250.119411 
L 153.869518 249.847454 
L 155.916552 248.501746 
L 157.963586 247.796859 
L 160.010621 247.363803 
L 162.057655 246.207176 
L 164.104689 246.04437 
L 166.151724 245.16695 
L 168.198758 244.606478 
L 170.245792 244.012749 
L 172.292826 243.229926 
L 174.339861 242.289458 
L 176.386895 241.983419 
L 178.433929 240.772561 
L 180.480964 240.321994 
L 182.527998 239.638805 
L 184.575032 239.004334 
L 186.622066 238.433092 
L 188.669101 238.077664 
L 190.716135 237.301827 
L 192.763169 236.951938 
L 194.810204 236.409624 
L 196.857238 236.085381 
L 198.904272 234.612792 
L 200.951306 233.988599 
L 202.998341 233.078059 
L 205.045375 231.041962 
L 207.092409 230.797319 
L 209.139444 230.572027 
L 211.186478 229.531464 
L 213.233512 228.687899 
L 215.280547 228.151527 
L 217.327581 227.698197 
L 219.374615 227.084611 
L 221.421649 226.734725 
L 223.468684 225.126289 
L 225.515718 224.128429 
L 227.562752 223.875206 
L 229.609787 223.173397 
L 231.656821 222.158084 
L 233.703855 221.048674 
L 235.750889 220.321436 
L 237.797924 219.727683 
L 239.844958 218.813847 
L 241.891992 218.113296 
L 243.939027 217.502073 
L 245.986061 216.109482 
L 248.033095 216.109482 
L 250.080129 215.572679 
L 252.127164 213.894427 
L 254.174198 213.77714 
L 256.221232 213.157268 
L 258.268267 211.687149 
L 260.315301 211.072835 
L 262.362335 210.273044 
L 264.409369 209.454136 
L 266.456404 209.08672 
L 268.503438 207.621923 
L 270.550472 206.612903 
L 272.597507 205.481088 
L 274.644541 205.455324 
L 276.691575 205.140473 
L 278.73861 203.54912 
L 280.785644 202.032222 
L 282.832678 201.942426 
L 284.879712 201.942426 
L 286.926747 200.444154 
L 288.973781 199.387539 
L 291.020815 199.222209 
L 293.06785 198.389676 
L 295.114884 197.516077 
L 297.161918 196.952146 
L 299.208952 196.033628 
L 301.255987 195.938822 
L 303.303021 194.31187 
L 305.350055 193.37907 
L 307.39709 192.784298 
L 309.444124 192.183581 
L 311.491158 191.332958 
L 313.538192 190.576223 
L 315.585227 189.564959 
L 317.632261 188.696019 
L 319.679295 187.895144 
L 321.72633 186.887933 
L 323.773364 185.629482 
L 325.820398 183.953468 
L 327.867433 183.150521 
L 329.914467 182.679127 
L 331.961501 182.366751 
L 334.008535 180.55228 
L 336.05557 179.251422 
L 338.102604 178.010045 
L 340.149638 177.568615 
L 342.196673 176.74951 
L 344.243707 176.354693 
L 346.290741 175.333468 
L 348.337775 173.751821 
L 350.38481 173.355529 
L 352.431844 173.345193 
L 354.478878 172.021638 
L 356.525913 172.002312 
L 358.572947 170.271525 
L 360.619981 169.772283 
L 362.667015 168.026409 
L 364.71405 166.925796 
L 366.761084 166.18448 
L 368.808118 165.754392 
L 370.855153 164.91747 
L 372.902187 164.649221 
L 374.949221 164.546809 
L 376.996256 162.846377 
L 379.04329 162.246446 
L 381.090324 161.718198 
L 383.137358 160.88136 
L 385.184393 159.831588 
L 387.231427 158.810148 
L 389.278461 158.213626 
L 391.325496 157.332573 
L 393.37253 156.745827 
L 395.419564 155.328116 
L 397.466598 154.229306 
L 399.513633 152.925059 
L 401.560667 152.09024 
L 403.607701 151.62084 
L 405.654736 150.103862 
L 407.70177 148.910075 
L 409.748804 148.167567 
L 411.795838 147.612319 
L 413.842873 147.20864 
L 415.889907 146.457801 
L 417.936941 145.06752 
L 419.983976 144.100234 
L 422.03101 142.939483 
L 424.078044 142.605604 
L 426.125078 141.091643 
L 428.172113 140.198551 
L 430.219147 139.55824 
L 432.266181 137.485407 
L 434.313216 137.279584 
L 436.36025 135.826509 
L 438.407284 135.113394 
L 440.454319 134.73501 
L 442.501353 133.864773 
L 444.548387 131.275706 
L 446.595421 129.673469 
L 448.642456 129.387855 
L 450.68949 129.387855 
L 452.736524 126.116619 
L 454.783559 125.845328 
L 456.830593 123.460366 
L 458.877627 122.548322 
L 460.924661 122.548322 
L 462.971696 119.323529 
L 465.01873 119.323529 
L 467.065764 119.323529 
L 469.112799 117.291164 
L 471.159833 116.623022 
L 473.206867 115.406422 
L 475.253901 114.560568 
L 477.300936 114.397151 
L 479.34797 112.799319 
L 481.395004 112.624919 
L 483.442039 111.342673 
L 485.489073 111.269058 
L 487.536107 110.636228 
L 489.583142 109.043364 
L 491.630176 107.570138 
L 493.67721 107.570138 
L 495.724244 105.110287 
L 497.771279 105.02339 
L 499.818313 103.355064 
L 501.865347 103.355064 
L 503.912382 100.650911 
L 505.959416 100.171342 
L 508.00645 99.471388 
L 510.053484 97.647053 
L 512.100519 97.173366 
L 514.147553 95.675326 
L 516.194587 94.565705 
L 518.241622 93.608293 
L 520.288656 91.714468 
L 522.33569 90.415312 
L 524.382724 89.47436 
L 526.429759 88.620411 
L 528.476793 86.778848 
L 530.523827 84.637346 
L 532.570862 84.384579 
L 534.617896 80.917068 
L 536.66493 78.491604 
L 538.711964 78.491604 
L 540.758999 77.287184 
L 542.806033 76.493365 
L 544.853067 76.346033 
L 546.900102 73.793795 
L 548.947136 73.172291 
L 550.99417 72.534007 
L 553.041205 70.171278 
L 555.088239 69.828206 
L 557.135273 68.651618 
L 559.182307 66.885349 
L 561.229342 65.909844 
L 563.276376 64.800918 
L 565.32341 63.633714 
L 567.370445 62.549921 
L 569.417479 61.829952 
L 571.464513 60.018077 
L 573.511547 57.508844 
L 575.558582 57.508844 
L 575.558582 21.802018 
L 575.558582 21.802018 
L 573.511547 21.802018 
L 571.464513 24.534192 
L 569.417479 24.77468 
L 567.370445 25.639976 
L 565.32341 26.534512 
L 563.276376 28.59231 
L 561.229342 29.705032 
L 559.182307 31.756209 
L 557.135273 33.520768 
L 555.088239 34.234676 
L 553.041205 35.305022 
L 550.99417 35.305022 
L 548.947136 37.189481 
L 546.900102 39.060287 
L 544.853067 39.920271 
L 542.806033 40.28121 
L 540.758999 42.741884 
L 538.711964 44.137802 
L 536.66493 44.28709 
L 534.617896 45.670635 
L 532.570862 47.41733 
L 530.523827 48.664206 
L 528.476793 50.233425 
L 526.429759 52.436706 
L 524.382724 52.508194 
L 522.33569 54.161745 
L 520.288656 54.316555 
L 518.241622 57.026194 
L 516.194587 57.026194 
L 514.147553 60.925308 
L 512.100519 61.338612 
L 510.053484 62.413571 
L 508.00645 62.413571 
L 505.959416 65.215723 
L 503.912382 65.221028 
L 501.865347 68.205294 
L 499.818313 70.984693 
L 497.771279 71.246487 
L 495.724244 72.629181 
L 493.67721 75.637831 
L 491.630176 75.880077 
L 489.583142 75.880077 
L 487.536107 78.88328 
L 485.489073 80.575754 
L 483.442039 80.575754 
L 481.395004 82.8355 
L 479.34797 82.8355 
L 477.300936 84.457089 
L 475.253901 84.678425 
L 473.206867 86.554576 
L 471.159833 86.939183 
L 469.112799 89.425744 
L 467.065764 89.425744 
L 465.01873 90.961332 
L 462.971696 90.961332 
L 460.924661 93.033659 
L 458.877627 93.033659 
L 456.830593 94.633068 
L 454.783559 96.425874 
L 452.736524 97.063813 
L 450.68949 99.812243 
L 448.642456 100.036271 
L 446.595421 100.610517 
L 444.548387 102.487702 
L 442.501353 102.89784 
L 440.454319 104.640628 
L 438.407284 106.716016 
L 436.36025 107.649555 
L 434.313216 108.941053 
L 432.266181 110.093246 
L 430.219147 111.696667 
L 428.172113 112.421775 
L 426.125078 114.169934 
L 424.078044 115.066524 
L 422.03101 115.950654 
L 419.983976 115.950654 
L 417.936941 118.425325 
L 415.889907 119.186829 
L 413.842873 120.477858 
L 411.795838 120.954357 
L 409.748804 121.965756 
L 407.70177 124.185822 
L 405.654736 124.251506 
L 403.607701 125.781014 
L 401.560667 129.538431 
L 399.513633 129.894384 
L 397.466598 130.731599 
L 395.419564 132.259729 
L 393.37253 132.259729 
L 391.325496 133.776214 
L 389.278461 134.176624 
L 387.231427 135.837501 
L 385.184393 136.064744 
L 383.137358 137.927425 
L 381.090324 137.927425 
L 379.04329 139.144271 
L 376.996256 140.954105 
L 374.949221 142.400702 
L 372.902187 142.718853 
L 370.855153 142.776723 
L 368.808118 145.031697 
L 366.761084 145.031829 
L 364.71405 145.085071 
L 362.667015 147.079141 
L 360.619981 148.998848 
L 358.572947 149.525169 
L 356.525913 150.30211 
L 354.478878 152.539231 
L 352.431844 153.542881 
L 350.38481 153.657124 
L 348.337775 153.91472 
L 346.290741 155.231732 
L 344.243707 155.783877 
L 342.196673 157.468275 
L 340.149638 158.410361 
L 338.102604 158.468385 
L 336.05557 160.209171 
L 334.008535 161.492981 
L 331.961501 162.34581 
L 329.914467 163.43445 
L 327.867433 165.375771 
L 325.820398 165.717531 
L 323.773364 166.827794 
L 321.72633 167.802105 
L 319.679295 168.341078 
L 317.632261 168.981196 
L 315.585227 170.489056 
L 313.538192 172.134389 
L 311.491158 172.469628 
L 309.444124 173.210101 
L 307.39709 174.383572 
L 305.350055 175.256344 
L 303.303021 175.55479 
L 301.255987 176.328929 
L 299.208952 177.024646 
L 297.161918 178.660348 
L 295.114884 179.269083 
L 293.06785 180.044414 
L 291.020815 181.218866 
L 288.973781 181.824193 
L 286.926747 182.686456 
L 284.879712 183.927082 
L 282.832678 184.249842 
L 280.785644 186.605261 
L 278.73861 187.077481 
L 276.691575 187.930199 
L 274.644541 188.812524 
L 272.597507 190.277355 
L 270.550472 190.277355 
L 268.503438 191.243288 
L 266.456404 192.67278 
L 264.409369 193.137797 
L 262.362335 193.864357 
L 260.315301 195.708198 
L 258.268267 196.42573 
L 256.221232 197.721657 
L 254.174198 197.978952 
L 252.127164 198.448126 
L 250.080129 200.183596 
L 248.033095 200.706062 
L 245.986061 200.8096 
L 243.939027 202.097558 
L 241.891992 203.060293 
L 239.844958 203.61171 
L 237.797924 204.785497 
L 235.750889 205.225402 
L 233.703855 206.404276 
L 231.656821 207.112711 
L 229.609787 208.506026 
L 227.562752 209.850671 
L 225.515718 210.452182 
L 223.468684 211.354755 
L 221.421649 212.097519 
L 219.374615 212.795882 
L 217.327581 213.533957 
L 215.280547 214.758635 
L 213.233512 215.800735 
L 211.186478 216.35449 
L 209.139444 217.94814 
L 207.092409 218.069002 
L 205.045375 219.403848 
L 202.998341 219.603981 
L 200.951306 221.558819 
L 198.904272 222.012145 
L 196.857238 222.513554 
L 194.810204 223.160419 
L 192.763169 224.304112 
L 190.716135 224.788525 
L 188.669101 225.837605 
L 186.622066 226.744905 
L 184.575032 227.12658 
L 182.527998 228.085291 
L 180.480964 229.249043 
L 178.433929 229.583654 
L 176.386895 230.429107 
L 174.339861 230.842249 
L 172.292826 232.027175 
L 170.245792 232.869475 
L 168.198758 234.208466 
L 166.151724 234.927896 
L 164.104689 235.829676 
L 162.057655 236.406246 
L 160.010621 237.650741 
L 157.963586 237.82585 
L 155.916552 238.664368 
L 153.869518 239.525587 
L 151.822483 240.630873 
L 149.775449 241.075236 
L 147.728415 241.772615 
L 145.681381 243.254767 
L 143.634346 243.5203 
L 141.587312 244.421932 
L 139.540278 244.733466 
L 137.493243 246.124576 
L 135.446209 246.855645 
L 133.399175 248.043182 
L 131.352141 248.637196 
L 129.305106 249.765086 
L 127.258072 250.29973 
L 125.211038 251.258441 
L 123.164003 251.823106 
L 121.116969 252.718974 
L 119.069935 252.880429 
L 117.022901 254.500872 
L 114.975866 254.890748 
L 112.928832 255.053728 
L 110.881798 256.491708 
L 108.834763 257.65583 
L 106.787729 258.015366 
L 104.740695 258.4728 
L 102.693661 259.467053 
L 100.646626 259.775455 
L 98.599592 260.917557 
L 96.552558 261.758093 
L 94.505523 262.496372 
L 92.458489 263.948193 
L 90.411455 264.417301 
L 88.36442 265.066541 
L 86.317386 265.460179 
L 84.270352 266.635856 
L 82.223318 266.895946 
L 80.176283 267.997455 
L 78.129249 269.097255 
L 76.082215 269.987094 
L 74.03518 270.353349 
L 71.988146 272.086771 
L 69.941112 273.802018 
L 67.894078 273.802018 
L 65.847043 273.802018 
z
" clip-path="url(#pce07901176)" style="fill: #bcbd22; fill-opacity: 0.25"/>
   </g>
   <g id="FillBetweenPolyCollection_2">
    <path d="M 65.847043 273.802018 
L 65.847043 273.802018 
L 67.894078 273.802018 
L 69.941112 273.802018 
L 71.988146 273.802018 
L 74.03518 273.802018 
L 76.082215 273.706136 
L 78.129249 273.673049 
L 80.176283 273.572643 
L 82.223318 273.530488 
L 84.270352 273.395588 
L 86.317386 273.301567 
L 88.36442 273.231934 
L 90.411455 273.10238 
L 92.458489 273.025193 
L 94.505523 272.835779 
L 96.552558 272.80405 
L 98.599592 272.66791 
L 100.646626 272.604932 
L 102.693661 272.479252 
L 104.740695 272.316098 
L 106.787729 272.188995 
L 108.834763 272.076651 
L 110.881798 272.02331 
L 112.928832 271.870343 
L 114.975866 271.870343 
L 117.022901 271.72232 
L 119.069935 271.630968 
L 121.116969 271.610308 
L 123.164003 271.324581 
L 125.211038 271.207402 
L 127.258072 271.139048 
L 129.305106 271.068439 
L 131.352141 270.861967 
L 133.399175 270.690602 
L 135.446209 270.670925 
L 137.493243 270.608813 
L 139.540278 270.302113 
L 141.587312 270.07287 
L 143.634346 269.925197 
L 145.681381 269.8382 
L 147.728415 269.718687 
L 149.775449 269.424598 
L 151.822483 269.360229 
L 153.869518 269.240277 
L 155.916552 269.039445 
L 157.963586 269.029457 
L 160.010621 269.029457 
L 162.057655 268.766416 
L 164.104689 268.650031 
L 166.151724 268.631526 
L 168.198758 268.550774 
L 170.245792 268.255154 
L 172.292826 268.031982 
L 174.339861 267.853069 
L 176.386895 267.840513 
L 178.433929 267.595471 
L 180.480964 267.45984 
L 182.527998 267.45984 
L 184.575032 267.45984 
L 186.622066 267.45984 
L 188.669101 267.080034 
L 190.716135 267.080034 
L 192.763169 266.68938 
L 194.810204 266.600288 
L 196.857238 266.375926 
L 198.904272 266.374316 
L 200.951306 266.196344 
L 202.998341 266.037751 
L 205.045375 265.858808 
L 207.092409 265.829912 
L 209.139444 265.829912 
L 211.186478 265.187283 
L 213.233512 265.187283 
L 215.280547 265.080727 
L 217.327581 265.080727 
L 219.374615 264.288864 
L 221.421649 264.114266 
L 223.468684 264.045012 
L 225.515718 263.921134 
L 227.562752 263.863744 
L 229.609787 263.863744 
L 231.656821 263.665557 
L 233.703855 263.665557 
L 235.750889 263.57014 
L 237.797924 263.304377 
L 239.844958 263.304377 
L 241.891992 263.304377 
L 243.939027 263.173113 
L 245.986061 263.043467 
L 248.033095 263.043467 
L 250.080129 262.689971 
L 252.127164 262.468399 
L 254.174198 262.252769 
L 256.221232 262.117252 
L 258.268267 262.1134 
L 260.315301 261.919516 
L 262.362335 261.915625 
L 264.409369 261.656595 
L 266.456404 261.281228 
L 268.503438 261.102371 
L 270.550472 260.943426 
L 272.597507 260.943426 
L 274.644541 260.833968 
L 276.691575 260.380581 
L 278.73861 260.045841 
L 280.785644 259.834469 
L 282.832678 259.352293 
L 284.879712 258.76681 
L 286.926747 258.638306 
L 288.973781 257.971457 
L 291.020815 257.971457 
L 293.06785 257.779326 
L 295.114884 257.487933 
L 297.161918 257.401281 
L 299.208952 256.770047 
L 301.255987 256.647517 
L 303.303021 256.570005 
L 305.350055 256.409555 
L 307.39709 256.145092 
L 309.444124 255.516948 
L 311.491158 254.989768 
L 313.538192 254.677 
L 315.585227 254.677 
L 317.632261 254.208087 
L 319.679295 254.199926 
L 321.72633 253.446785 
L 323.773364 253.446785 
L 325.820398 253.113937 
L 327.867433 253.020234 
L 329.914467 252.732019 
L 331.961501 252.55405 
L 334.008535 252.114018 
L 336.05557 252.019061 
L 338.102604 251.494779 
L 340.149638 251.467107 
L 342.196673 250.958505 
L 344.243707 250.924811 
L 346.290741 250.36017 
L 348.337775 250.257703 
L 350.38481 249.663931 
L 352.431844 249.199123 
L 354.478878 249.076619 
L 356.525913 248.714068 
L 358.572947 248.514657 
L 360.619981 248.514657 
L 362.667015 248.514657 
L 364.71405 247.693154 
L 366.761084 247.693154 
L 368.808118 247.693154 
L 370.855153 246.706138 
L 372.902187 246.706138 
L 374.949221 246.387863 
L 376.996256 246.387863 
L 379.04329 245.549903 
L 381.090324 245.549903 
L 383.137358 244.847647 
L 385.184393 244.760525 
L 387.231427 244.176625 
L 389.278461 243.606189 
L 391.325496 243.606189 
L 393.37253 242.833749 
L 395.419564 242.222127 
L 397.466598 242.036638 
L 399.513633 242.036638 
L 401.560667 241.371988 
L 403.607701 240.820198 
L 405.654736 240.345832 
L 407.70177 240.33016 
L 409.748804 239.955315 
L 411.795838 239.356414 
L 413.842873 239.356414 
L 415.889907 239.088878 
L 417.936941 238.229858 
L 419.983976 238.165864 
L 422.03101 237.552074 
L 424.078044 237.552074 
L 426.125078 237.205915 
L 428.172113 236.725718 
L 430.219147 236.62067 
L 432.266181 236.19018 
L 434.313216 235.790849 
L 436.36025 235.60842 
L 438.407284 234.977766 
L 440.454319 234.905194 
L 442.501353 234.642061 
L 444.548387 234.024698 
L 446.595421 233.919926 
L 448.642456 233.919926 
L 450.68949 233.430761 
L 452.736524 233.353941 
L 454.783559 233.228708 
L 456.830593 232.10106 
L 458.877627 231.891259 
L 460.924661 231.819795 
L 462.971696 231.819795 
L 465.01873 231.819795 
L 467.065764 231.329191 
L 469.112799 231.329191 
L 471.159833 230.85971 
L 473.206867 230.85971 
L 475.253901 229.833714 
L 477.300936 229.193042 
L 479.34797 228.979519 
L 481.395004 228.979519 
L 483.442039 228.142162 
L 485.489073 227.611553 
L 487.536107 226.476671 
L 489.583142 226.395157 
L 491.630176 225.68314 
L 493.67721 225.514871 
L 495.724244 225.514871 
L 497.771279 225.514871 
L 499.818313 224.483733 
L 501.865347 224.483733 
L 503.912382 223.539331 
L 505.959416 223.539331 
L 508.00645 222.510047 
L 510.053484 222.399743 
L 512.100519 222.399743 
L 514.147553 222.399743 
L 516.194587 222.372173 
L 518.241622 221.821891 
L 520.288656 220.844292 
L 522.33569 220.844292 
L 524.382724 220.56867 
L 526.429759 220.414809 
L 528.476793 218.63493 
L 530.523827 218.465262 
L 532.570862 218.465262 
L 534.617896 218.381783 
L 536.66493 216.692314 
L 538.711964 216.043009 
L 540.758999 216.043009 
L 542.806033 215.498412 
L 544.853067 214.97159 
L 546.900102 214.965766 
L 548.947136 214.965766 
L 550.99417 214.856354 
L 553.041205 213.579256 
L 555.088239 213.429912 
L 557.135273 213.176557 
L 559.182307 212.356402 
L 561.229342 211.542953 
L 563.276376 211.135533 
L 565.32341 210.818397 
L 567.370445 210.562895 
L 569.417479 210.109271 
L 571.464513 209.595502 
L 573.511547 209.00912 
L 575.558582 209.00912 
L 575.558582 186.458867 
L 575.558582 186.458867 
L 573.511547 186.458867 
L 571.464513 186.783093 
L 569.417479 187.119873 
L 567.370445 187.401603 
L 565.32341 187.635322 
L 563.276376 188.21645 
L 561.229342 188.306416 
L 559.182307 189.506355 
L 557.135273 189.506355 
L 555.088239 189.795035 
L 553.041205 190.490553 
L 550.99417 190.92989 
L 548.947136 191.19053 
L 546.900102 192.027153 
L 544.853067 192.027153 
L 542.806033 192.567833 
L 540.758999 193.113373 
L 538.711964 193.479675 
L 536.66493 193.950402 
L 534.617896 194.209891 
L 532.570862 194.255617 
L 530.523827 194.679159 
L 528.476793 195.439227 
L 526.429759 195.668001 
L 524.382724 196.365862 
L 522.33569 197.095123 
L 520.288656 197.639954 
L 518.241622 197.865257 
L 516.194587 197.961822 
L 514.147553 198.450936 
L 512.100519 198.59681 
L 510.053484 199.246571 
L 508.00645 199.435025 
L 505.959416 199.703702 
L 503.912382 200.30701 
L 501.865347 200.488198 
L 499.818313 200.663201 
L 497.771279 200.852677 
L 495.724244 201.563063 
L 493.67721 202.032241 
L 491.630176 202.278694 
L 489.583142 203.164749 
L 487.536107 203.236348 
L 485.489073 203.731045 
L 483.442039 203.91 
L 481.395004 204.011323 
L 479.34797 204.835421 
L 477.300936 205.457275 
L 475.253901 205.503814 
L 473.206867 206.126723 
L 471.159833 206.586209 
L 469.112799 206.965813 
L 467.065764 206.965813 
L 465.01873 207.937746 
L 462.971696 208.020335 
L 460.924661 208.441023 
L 458.877627 209.035103 
L 456.830593 209.493661 
L 454.783559 209.666625 
L 452.736524 209.725316 
L 450.68949 210.671442 
L 448.642456 210.931863 
L 446.595421 210.931863 
L 444.548387 211.722826 
L 442.501353 212.482485 
L 440.454319 212.992046 
L 438.407284 213.161984 
L 436.36025 213.356549 
L 434.313216 213.442841 
L 432.266181 214.586409 
L 430.219147 214.627804 
L 428.172113 214.627804 
L 426.125078 215.148558 
L 424.078044 216.470299 
L 422.03101 216.52333 
L 419.983976 216.679503 
L 417.936941 216.700644 
L 415.889907 217.625644 
L 413.842873 218.24147 
L 411.795838 218.245733 
L 409.748804 218.573602 
L 407.70177 219.580977 
L 405.654736 219.930459 
L 403.607701 219.937231 
L 401.560667 220.635435 
L 399.513633 220.635435 
L 397.466598 221.314279 
L 395.419564 222.027529 
L 393.37253 222.027529 
L 391.325496 222.200429 
L 389.278461 222.270929 
L 387.231427 222.868413 
L 385.184393 223.613212 
L 383.137358 223.613212 
L 381.090324 224.106783 
L 379.04329 224.453615 
L 376.996256 224.774823 
L 374.949221 224.814161 
L 372.902187 225.942064 
L 370.855153 226.119952 
L 368.808118 226.119952 
L 366.761084 226.90984 
L 364.71405 227.031264 
L 362.667015 227.602742 
L 360.619981 227.602742 
L 358.572947 228.207604 
L 356.525913 228.456942 
L 354.478878 228.907894 
L 352.431844 229.520088 
L 350.38481 230.240948 
L 348.337775 230.312581 
L 346.290741 230.312581 
L 344.243707 230.998013 
L 342.196673 231.594105 
L 340.149638 231.625335 
L 338.102604 232.342131 
L 336.05557 233.090842 
L 334.008535 233.22886 
L 331.961501 233.574457 
L 329.914467 233.574457 
L 327.867433 234.630079 
L 325.820398 234.889064 
L 323.773364 235.049942 
L 321.72633 235.526562 
L 319.679295 235.526562 
L 317.632261 236.690259 
L 315.585227 236.690259 
L 313.538192 237.030906 
L 311.491158 237.639627 
L 309.444124 237.729351 
L 307.39709 237.817703 
L 305.350055 237.817703 
L 303.303021 238.281599 
L 301.255987 239.029743 
L 299.208952 239.029743 
L 297.161918 240.16978 
L 295.114884 240.339952 
L 293.06785 240.533156 
L 291.020815 240.533156 
L 288.973781 240.533156 
L 286.926747 241.499169 
L 284.879712 241.792214 
L 282.832678 241.792214 
L 280.785644 242.215488 
L 278.73861 242.589058 
L 276.691575 243.036201 
L 274.644541 243.363862 
L 272.597507 243.723127 
L 270.550472 244.18784 
L 268.503438 244.18784 
L 266.456404 244.535688 
L 264.409369 244.63359 
L 262.362335 245.168682 
L 260.315301 245.168682 
L 258.268267 245.548217 
L 256.221232 245.59725 
L 254.174198 246.104189 
L 252.127164 246.229133 
L 250.080129 246.612943 
L 248.033095 247.721499 
L 245.986061 248.102696 
L 243.939027 248.102696 
L 241.891992 248.338108 
L 239.844958 249.191212 
L 237.797924 249.385397 
L 235.750889 249.423783 
L 233.703855 249.558075 
L 231.656821 249.558075 
L 229.609787 250.658833 
L 227.562752 250.747251 
L 225.515718 251.357701 
L 223.468684 251.478887 
L 221.421649 252.214193 
L 219.374615 252.258187 
L 217.327581 252.958776 
L 215.280547 253.387173 
L 213.233512 254.012324 
L 211.186478 254.012324 
L 209.139444 254.699913 
L 207.092409 255.032304 
L 205.045375 255.032304 
L 202.998341 255.589429 
L 200.951306 255.698341 
L 198.904272 255.920525 
L 196.857238 256.482414 
L 194.810204 256.516622 
L 192.763169 256.789191 
L 190.716135 257.154902 
L 188.669101 257.380512 
L 186.622066 257.477421 
L 184.575032 258.148833 
L 182.527998 258.275266 
L 180.480964 258.438126 
L 178.433929 258.728998 
L 176.386895 258.728998 
L 174.339861 259.479878 
L 172.292826 259.793712 
L 170.245792 260.19963 
L 168.198758 260.485073 
L 166.151724 260.485073 
L 164.104689 261.63103 
L 162.057655 261.978468 
L 160.010621 261.990389 
L 157.963586 262.208059 
L 155.916552 262.403047 
L 153.869518 262.885957 
L 151.822483 263.189965 
L 149.775449 263.470463 
L 147.728415 263.714119 
L 145.681381 264.113192 
L 143.634346 264.162719 
L 141.587312 264.515811 
L 139.540278 265.323138 
L 137.493243 265.477986 
L 135.446209 265.477986 
L 133.399175 265.872957 
L 131.352141 266.506424 
L 129.305106 266.506424 
L 127.258072 267.062891 
L 125.211038 267.292475 
L 123.164003 267.493977 
L 121.116969 267.648614 
L 119.069935 267.792728 
L 117.022901 268.406678 
L 114.975866 268.673812 
L 112.928832 268.676031 
L 110.881798 269.067193 
L 108.834763 269.089087 
L 106.787729 269.389365 
L 104.740695 269.389365 
L 102.693661 270.001251 
L 100.646626 270.259575 
L 98.599592 270.43173 
L 96.552558 270.565703 
L 94.505523 270.993378 
L 92.458489 271.295453 
L 90.411455 271.540273 
L 88.36442 271.672323 
L 86.317386 271.934699 
L 84.270352 272.152793 
L 82.223318 272.454956 
L 80.176283 272.698098 
L 78.129249 272.915175 
L 76.082215 273.068733 
L 74.03518 273.227644 
L 71.988146 273.558374 
L 69.941112 273.802018 
L 67.894078 273.802018 
L 65.847043 273.802018 
z
" clip-path="url(#pce07901176)" style="fill: #2ca02c; fill-opacity: 0.25"/>
   </g>
   <g id="FillBetweenPolyCollection_3">
    <path d="M 65.847043 273.802018 
L 65.847043 273.802018 
L 67.894078 273.802018 
L 69.941112 273.802018 
L 71.988146 273.802018 
L 74.03518 273.802018 
L 76.082215 273.739154 
L 78.129249 273.713374 
L 80.176283 273.657597 
L 82.223318 273.595894 
L 84.270352 273.509974 
L 86.317386 273.494565 
L 88.36442 273.446455 
L 90.411455 273.396478 
L 92.458489 273.317193 
L 94.505523 273.260339 
L 96.552558 273.229193 
L 98.599592 273.179748 
L 100.646626 273.104886 
L 102.693661 273.062988 
L 104.740695 272.977369 
L 106.787729 272.956584 
L 108.834763 272.848426 
L 110.881798 272.815814 
L 112.928832 272.747912 
L 114.975866 272.661154 
L 117.022901 272.61285 
L 119.069935 272.538198 
L 121.116969 272.476941 
L 123.164003 272.372996 
L 125.211038 272.313041 
L 127.258072 272.264597 
L 129.305106 272.262752 
L 131.352141 272.196217 
L 133.399175 272.105979 
L 135.446209 272.045615 
L 137.493243 271.950048 
L 139.540278 271.845253 
L 141.587312 271.806394 
L 143.634346 271.69264 
L 145.681381 271.686223 
L 147.728415 271.633258 
L 149.775449 271.557686 
L 151.822483 271.458715 
L 153.869518 271.383814 
L 155.916552 271.351645 
L 157.963586 271.276075 
L 160.010621 271.169125 
L 162.057655 271.116778 
L 164.104689 270.975991 
L 166.151724 270.935451 
L 168.198758 270.82476 
L 170.245792 270.764673 
L 172.292826 270.700206 
L 174.339861 270.593317 
L 176.386895 270.531466 
L 178.433929 270.484453 
L 180.480964 270.437103 
L 182.527998 270.353655 
L 184.575032 270.351312 
L 186.622066 270.241461 
L 188.669101 270.237461 
L 190.716135 270.117566 
L 192.763169 270.006155 
L 194.810204 269.951804 
L 196.857238 269.870764 
L 198.904272 269.760856 
L 200.951306 269.700998 
L 202.998341 269.634729 
L 205.045375 269.458738 
L 207.092409 269.310404 
L 209.139444 269.284975 
L 211.186478 269.241379 
L 213.233512 269.135568 
L 215.280547 269.113057 
L 217.327581 269.03239 
L 219.374615 268.936283 
L 221.421649 268.831203 
L 223.468684 268.80539 
L 225.515718 268.720979 
L 227.562752 268.556433 
L 229.609787 268.462888 
L 231.656821 268.371218 
L 233.703855 268.275395 
L 235.750889 268.263501 
L 237.797924 268.162009 
L 239.844958 268.136892 
L 241.891992 268.101351 
L 243.939027 268.067107 
L 245.986061 268.050861 
L 248.033095 267.875127 
L 250.080129 267.760005 
L 252.127164 267.732978 
L 254.174198 267.62655 
L 256.221232 267.519903 
L 258.268267 267.417491 
L 260.315301 267.373088 
L 262.362335 267.361744 
L 264.409369 267.259772 
L 266.456404 267.191885 
L 268.503438 267.07843 
L 270.550472 267.037831 
L 272.597507 266.931601 
L 274.644541 266.846319 
L 276.691575 266.831032 
L 278.73861 266.74252 
L 280.785644 266.636545 
L 282.832678 266.470525 
L 284.879712 266.43327 
L 286.926747 266.399785 
L 288.973781 266.289598 
L 291.020815 266.184573 
L 293.06785 266.184573 
L 295.114884 266.120461 
L 297.161918 265.984699 
L 299.208952 265.708252 
L 301.255987 265.674827 
L 303.303021 265.674827 
L 305.350055 265.416709 
L 307.39709 265.400536 
L 309.444124 265.387785 
L 311.491158 265.28093 
L 313.538192 265.270871 
L 315.585227 265.075031 
L 317.632261 265.074671 
L 319.679295 264.834973 
L 321.72633 264.790512 
L 323.773364 264.593051 
L 325.820398 264.430481 
L 327.867433 264.430481 
L 329.914467 264.231606 
L 331.961501 264.115992 
L 334.008535 264.001512 
L 336.05557 263.983671 
L 338.102604 263.954696 
L 340.149638 263.778598 
L 342.196673 263.69955 
L 344.243707 263.668811 
L 346.290741 263.650468 
L 348.337775 263.407867 
L 350.38481 263.340115 
L 352.431844 263.220575 
L 354.478878 263.074921 
L 356.525913 263.003121 
L 358.572947 262.968327 
L 360.619981 262.825037 
L 362.667015 262.625665 
L 364.71405 262.485897 
L 366.761084 262.485897 
L 368.808118 262.452895 
L 370.855153 262.249887 
L 372.902187 262.166119 
L 374.949221 262.148354 
L 376.996256 262.08618 
L 379.04329 261.895509 
L 381.090324 261.895509 
L 383.137358 261.598991 
L 385.184393 261.598991 
L 387.231427 261.370248 
L 389.278461 261.370248 
L 391.325496 261.356553 
L 393.37253 261.124867 
L 395.419564 261.056136 
L 397.466598 260.907369 
L 399.513633 260.880117 
L 401.560667 260.684951 
L 403.607701 260.497797 
L 405.654736 260.473835 
L 407.70177 260.167132 
L 409.748804 260.107257 
L 411.795838 260.054957 
L 413.842873 260.016755 
L 415.889907 259.902075 
L 417.936941 259.831203 
L 419.983976 259.662467 
L 422.03101 259.620136 
L 424.078044 259.523902 
L 426.125078 259.399553 
L 428.172113 259.399553 
L 430.219147 259.209767 
L 432.266181 259.025831 
L 434.313216 258.9999 
L 436.36025 258.995464 
L 438.407284 258.862731 
L 440.454319 258.636195 
L 442.501353 258.568205 
L 444.548387 258.440161 
L 446.595421 258.246006 
L 448.642456 258.239567 
L 450.68949 258.01084 
L 452.736524 257.842433 
L 454.783559 257.75271 
L 456.830593 257.615046 
L 458.877627 257.529933 
L 460.924661 257.40305 
L 462.971696 257.369043 
L 465.01873 257.133044 
L 467.065764 257.010067 
L 469.112799 256.904916 
L 471.159833 256.760429 
L 473.206867 256.580125 
L 475.253901 256.580125 
L 477.300936 256.537072 
L 479.34797 256.341468 
L 481.395004 256.288731 
L 483.442039 256.089418 
L 485.489073 255.971256 
L 487.536107 255.657444 
L 489.583142 255.643485 
L 491.630176 255.643485 
L 493.67721 255.43555 
L 495.724244 255.351379 
L 497.771279 255.265042 
L 499.818313 255.240999 
L 501.865347 254.987867 
L 503.912382 254.987867 
L 505.959416 254.762896 
L 508.00645 254.635757 
L 510.053484 254.538781 
L 512.100519 254.405903 
L 514.147553 254.367003 
L 516.194587 253.954912 
L 518.241622 253.954912 
L 520.288656 253.563229 
L 522.33569 253.553971 
L 524.382724 253.387327 
L 526.429759 253.326805 
L 528.476793 252.989431 
L 530.523827 252.735334 
L 532.570862 252.178349 
L 534.617896 252.030809 
L 536.66493 251.668663 
L 538.711964 251.396681 
L 540.758999 251.275059 
L 542.806033 250.787326 
L 544.853067 250.772015 
L 546.900102 250.772015 
L 548.947136 250.208682 
L 550.99417 250.132746 
L 553.041205 249.967785 
L 555.088239 249.654607 
L 557.135273 249.654607 
L 559.182307 249.376933 
L 561.229342 249.19408 
L 563.276376 249.191876 
L 565.32341 248.244741 
L 567.370445 248.193089 
L 569.417479 247.872204 
L 571.464513 247.38498 
L 573.511547 246.69899 
L 575.558582 246.69899 
L 575.558582 240.551374 
L 575.558582 240.551374 
L 573.511547 240.551374 
L 571.464513 240.651838 
L 569.417479 240.94458 
L 567.370445 241.921709 
L 565.32341 242.26457 
L 563.276376 242.314469 
L 561.229342 243.002197 
L 559.182307 243.136686 
L 557.135273 243.491212 
L 555.088239 243.796644 
L 553.041205 243.823694 
L 550.99417 243.823694 
L 548.947136 244.241864 
L 546.900102 244.287984 
L 544.853067 244.93162 
L 542.806033 245.179763 
L 540.758999 245.25237 
L 538.711964 245.883236 
L 536.66493 245.883236 
L 534.617896 245.944552 
L 532.570862 246.130243 
L 530.523827 246.475361 
L 528.476793 247.092307 
L 526.429759 247.092307 
L 524.382724 247.20609 
L 522.33569 247.393901 
L 520.288656 247.578706 
L 518.241622 247.830598 
L 516.194587 248.149433 
L 514.147553 248.239063 
L 512.100519 248.239063 
L 510.053484 248.758938 
L 508.00645 249.1923 
L 505.959416 249.433291 
L 503.912382 249.508188 
L 501.865347 249.821805 
L 499.818313 249.946658 
L 497.771279 250.117319 
L 495.724244 250.357522 
L 493.67721 250.370871 
L 491.630176 250.475154 
L 489.583142 250.522055 
L 487.536107 250.764332 
L 485.489073 250.793555 
L 483.442039 250.905399 
L 481.395004 251.00037 
L 479.34797 251.213227 
L 477.300936 251.307994 
L 475.253901 251.307994 
L 473.206867 251.307994 
L 471.159833 251.569988 
L 469.112799 251.746079 
L 467.065764 251.783893 
L 465.01873 251.825965 
L 462.971696 252.176756 
L 460.924661 252.300009 
L 458.877627 252.310115 
L 456.830593 252.799434 
L 454.783559 252.858243 
L 452.736524 253.010115 
L 450.68949 253.165966 
L 448.642456 253.204271 
L 446.595421 253.535753 
L 444.548387 253.599541 
L 442.501353 253.748261 
L 440.454319 253.883086 
L 438.407284 254.129265 
L 436.36025 254.217769 
L 434.313216 254.489388 
L 432.266181 254.615346 
L 430.219147 254.663182 
L 428.172113 254.910862 
L 426.125078 255.015913 
L 424.078044 255.015913 
L 422.03101 255.033089 
L 419.983976 255.290397 
L 417.936941 255.480872 
L 415.889907 255.534352 
L 413.842873 255.76989 
L 411.795838 255.76989 
L 409.748804 255.810678 
L 407.70177 255.998357 
L 405.654736 256.008636 
L 403.607701 256.18714 
L 401.560667 256.428112 
L 399.513633 256.428112 
L 397.466598 256.676094 
L 395.419564 256.676094 
L 393.37253 256.698984 
L 391.325496 256.70954 
L 389.278461 257.162759 
L 387.231427 257.345758 
L 385.184393 257.345758 
L 383.137358 257.355745 
L 381.090324 257.551661 
L 379.04329 257.551661 
L 376.996256 258.036721 
L 374.949221 258.1675 
L 372.902187 258.18337 
L 370.855153 258.467702 
L 368.808118 258.813954 
L 366.761084 258.978212 
L 364.71405 259.068558 
L 362.667015 259.095849 
L 360.619981 259.17398 
L 358.572947 259.433632 
L 356.525913 259.433632 
L 354.478878 259.690704 
L 352.431844 260.021363 
L 350.38481 260.021363 
L 348.337775 260.190053 
L 346.290741 260.32483 
L 344.243707 260.380922 
L 342.196673 260.49018 
L 340.149638 260.675975 
L 338.102604 260.731042 
L 336.05557 260.899614 
L 334.008535 260.928543 
L 331.961501 261.109814 
L 329.914467 261.109814 
L 327.867433 261.128044 
L 325.820398 261.284998 
L 323.773364 261.313811 
L 321.72633 261.62122 
L 319.679295 261.650639 
L 317.632261 261.744655 
L 315.585227 261.745972 
L 313.538192 262.069966 
L 311.491158 262.142544 
L 309.444124 262.347301 
L 307.39709 262.395604 
L 305.350055 262.426862 
L 303.303021 262.444597 
L 301.255987 262.634163 
L 299.208952 262.704719 
L 297.161918 262.766524 
L 295.114884 262.769862 
L 293.06785 262.916355 
L 291.020815 263.080379 
L 288.973781 263.107915 
L 286.926747 263.107915 
L 284.879712 263.175095 
L 282.832678 263.532158 
L 280.785644 263.621756 
L 278.73861 263.771956 
L 276.691575 263.797958 
L 274.644541 263.936986 
L 272.597507 264.000594 
L 270.550472 264.027096 
L 268.503438 264.199237 
L 266.456404 264.22785 
L 264.409369 264.300585 
L 262.362335 264.360622 
L 260.315301 264.458032 
L 258.268267 264.49081 
L 256.221232 264.643362 
L 254.174198 264.723037 
L 252.127164 264.738198 
L 250.080129 265.00179 
L 248.033095 265.082498 
L 245.986061 265.129737 
L 243.939027 265.200614 
L 241.891992 265.311051 
L 239.844958 265.333029 
L 237.797924 265.420884 
L 235.750889 265.467208 
L 233.703855 265.615511 
L 231.656821 265.721653 
L 229.609787 265.839693 
L 227.562752 266.046802 
L 225.515718 266.046802 
L 223.468684 266.166998 
L 221.421649 266.282423 
L 219.374615 266.282423 
L 217.327581 266.503689 
L 215.280547 266.514757 
L 213.233512 266.716811 
L 211.186478 266.890477 
L 209.139444 266.946797 
L 207.092409 267.108417 
L 205.045375 267.249869 
L 202.998341 267.423382 
L 200.951306 267.445877 
L 198.904272 267.477495 
L 196.857238 267.646296 
L 194.810204 267.724933 
L 192.763169 267.729672 
L 190.716135 267.829667 
L 188.669101 267.868289 
L 186.622066 268.104008 
L 184.575032 268.206219 
L 182.527998 268.366692 
L 180.480964 268.423702 
L 178.433929 268.600543 
L 176.386895 268.836319 
L 174.339861 268.879728 
L 172.292826 268.994728 
L 170.245792 268.994728 
L 168.198758 269.057082 
L 166.151724 269.214056 
L 164.104689 269.30172 
L 162.057655 269.362273 
L 160.010621 269.401462 
L 157.963586 269.584644 
L 155.916552 269.613212 
L 153.869518 269.853205 
L 151.822483 269.970176 
L 149.775449 270.002804 
L 147.728415 270.054144 
L 145.681381 270.140322 
L 143.634346 270.229899 
L 141.587312 270.354618 
L 139.540278 270.391858 
L 137.493243 270.660399 
L 135.446209 270.660399 
L 133.399175 270.830205 
L 131.352141 270.991888 
L 129.305106 271.038314 
L 127.258072 271.046562 
L 125.211038 271.1507 
L 123.164003 271.174146 
L 121.116969 271.321986 
L 119.069935 271.369779 
L 117.022901 271.431978 
L 114.975866 271.484747 
L 112.928832 271.621221 
L 110.881798 271.741143 
L 108.834763 271.957451 
L 106.787729 271.967174 
L 104.740695 272.005185 
L 102.693661 272.067314 
L 100.646626 272.21388 
L 98.599592 272.36598 
L 96.552558 272.474382 
L 94.505523 272.624759 
L 92.458489 272.704339 
L 90.411455 272.766596 
L 88.36442 272.840767 
L 86.317386 272.960378 
L 84.270352 273.010399 
L 82.223318 273.13721 
L 80.176283 273.265183 
L 78.129249 273.318139 
L 76.082215 273.441241 
L 74.03518 273.541953 
L 71.988146 273.699115 
L 69.941112 273.802018 
L 67.894078 273.802018 
L 65.847043 273.802018 
z
" clip-path="url(#pce07901176)" style="fill: #17becf; fill-opacity: 0.25"/>
   </g>
   <g id="FillBetweenPolyCollection_4">
    <path d="M 65.847043 273.802018 
L 65.847043 273.802018 
L 67.894078 273.802018 
L 69.941112 273.802018 
L 71.988146 273.802018 
L 74.03518 273.802018 
L 76.082215 273.728565 
L 78.129249 273.673627 
L 80.176283 273.623964 
L 82.223318 273.530673 
L 84.270352 273.485441 
L 86.317386 273.429976 
L 88.36442 273.36534 
L 90.411455 273.286016 
L 92.458489 273.125874 
L 94.505523 273.090413 
L 96.552558 273.041221 
L 98.599592 272.951146 
L 100.646626 272.89607 
L 102.693661 272.805449 
L 104.740695 272.770299 
L 106.787729 272.681315 
L 108.834763 272.571045 
L 110.881798 272.513186 
L 112.928832 272.400599 
L 114.975866 272.3725 
L 117.022901 272.238743 
L 119.069935 272.136776 
L 121.116969 272.118806 
L 123.164003 271.93751 
L 125.211038 271.896573 
L 127.258072 271.847508 
L 129.305106 271.791289 
L 131.352141 271.651162 
L 133.399175 271.563052 
L 135.446209 271.461496 
L 137.493243 271.42918 
L 139.540278 271.428702 
L 141.587312 271.204497 
L 143.634346 271.099079 
L 145.681381 271.042361 
L 147.728415 270.902821 
L 149.775449 270.810042 
L 151.822483 270.777525 
L 153.869518 270.707552 
L 155.916552 270.65975 
L 157.963586 270.545171 
L 160.010621 270.521764 
L 162.057655 270.458442 
L 164.104689 270.277774 
L 166.151724 270.176644 
L 168.198758 270.086015 
L 170.245792 270.066338 
L 172.292826 270.045565 
L 174.339861 269.983171 
L 176.386895 269.830389 
L 178.433929 269.684226 
L 180.480964 269.664482 
L 182.527998 269.660928 
L 184.575032 269.660928 
L 186.622066 269.367845 
L 188.669101 269.286794 
L 190.716135 269.199652 
L 192.763169 269.125189 
L 194.810204 269.035282 
L 196.857238 268.908049 
L 198.904272 268.832997 
L 200.951306 268.826684 
L 202.998341 268.64706 
L 205.045375 268.550936 
L 207.092409 268.518002 
L 209.139444 268.415263 
L 211.186478 268.213109 
L 213.233512 268.150571 
L 215.280547 268.10774 
L 217.327581 267.914339 
L 219.374615 267.800648 
L 221.421649 267.800648 
L 223.468684 267.779811 
L 225.515718 267.677684 
L 227.562752 267.480868 
L 229.609787 267.320879 
L 231.656821 267.289331 
L 233.703855 267.213583 
L 235.750889 267.131251 
L 237.797924 267.131251 
L 239.844958 267.000701 
L 241.891992 266.730906 
L 243.939027 266.693768 
L 245.986061 266.642371 
L 248.033095 266.614072 
L 250.080129 266.520502 
L 252.127164 266.424903 
L 254.174198 266.411602 
L 256.221232 266.239474 
L 258.268267 266.234075 
L 260.315301 266.172115 
L 262.362335 266.067657 
L 264.409369 265.875103 
L 266.456404 265.789394 
L 268.503438 265.733142 
L 270.550472 265.661709 
L 272.597507 265.533333 
L 274.644541 265.46994 
L 276.691575 265.39411 
L 278.73861 265.28516 
L 280.785644 265.256755 
L 282.832678 265.174151 
L 284.879712 265.048235 
L 286.926747 264.876974 
L 288.973781 264.756147 
L 291.020815 264.623747 
L 293.06785 264.563536 
L 295.114884 264.350152 
L 297.161918 264.271126 
L 299.208952 264.25037 
L 301.255987 264.15372 
L 303.303021 264.043901 
L 305.350055 264.031222 
L 307.39709 263.8666 
L 309.444124 263.853215 
L 311.491158 263.577664 
L 313.538192 263.553376 
L 315.585227 263.493346 
L 317.632261 263.434416 
L 319.679295 263.323304 
L 321.72633 263.312667 
L 323.773364 263.14147 
L 325.820398 263.05199 
L 327.867433 262.988796 
L 329.914467 262.829961 
L 331.961501 262.599002 
L 334.008535 262.599002 
L 336.05557 262.453251 
L 338.102604 262.348156 
L 340.149638 262.345897 
L 342.196673 262.191464 
L 344.243707 262.167478 
L 346.290741 261.908959 
L 348.337775 261.899702 
L 350.38481 261.752635 
L 352.431844 261.672976 
L 354.478878 261.58204 
L 356.525913 261.451816 
L 358.572947 261.358774 
L 360.619981 261.223258 
L 362.667015 261.128739 
L 364.71405 261.087422 
L 366.761084 260.998518 
L 368.808118 260.909525 
L 370.855153 260.806209 
L 372.902187 260.747495 
L 374.949221 260.539709 
L 376.996256 260.450793 
L 379.04329 260.450793 
L 381.090324 260.393507 
L 383.137358 260.257875 
L 385.184393 260.257875 
L 387.231427 260.110222 
L 389.278461 260.015034 
L 391.325496 259.941864 
L 393.37253 259.777221 
L 395.419564 259.750418 
L 397.466598 259.661896 
L 399.513633 259.59893 
L 401.560667 259.525862 
L 403.607701 259.464293 
L 405.654736 259.350162 
L 407.70177 259.327805 
L 409.748804 259.200767 
L 411.795838 259.192933 
L 413.842873 259.116569 
L 415.889907 258.821993 
L 417.936941 258.692563 
L 419.983976 258.66335 
L 422.03101 258.325556 
L 424.078044 258.301023 
L 426.125078 258.166278 
L 428.172113 258.166278 
L 430.219147 258.166278 
L 432.266181 258.071344 
L 434.313216 258.010949 
L 436.36025 257.91508 
L 438.407284 257.896192 
L 440.454319 257.782817 
L 442.501353 257.616152 
L 444.548387 257.491422 
L 446.595421 257.490155 
L 448.642456 257.345079 
L 450.68949 257.210559 
L 452.736524 257.198811 
L 454.783559 256.952425 
L 456.830593 256.701486 
L 458.877627 256.606496 
L 460.924661 256.508257 
L 462.971696 256.423624 
L 465.01873 256.409194 
L 467.065764 256.306297 
L 469.112799 256.265985 
L 471.159833 256.085384 
L 473.206867 255.977821 
L 475.253901 255.894152 
L 477.300936 255.740764 
L 479.34797 255.678687 
L 481.395004 255.600545 
L 483.442039 255.486416 
L 485.489073 255.306657 
L 487.536107 255.223322 
L 489.583142 255.218937 
L 491.630176 255.119515 
L 493.67721 254.979194 
L 495.724244 254.889127 
L 497.771279 254.889097 
L 499.818313 254.818938 
L 501.865347 254.644918 
L 503.912382 254.644918 
L 505.959416 254.407998 
L 508.00645 254.359606 
L 510.053484 254.351715 
L 512.100519 254.0622 
L 514.147553 254.012083 
L 516.194587 253.987738 
L 518.241622 253.841546 
L 520.288656 253.758018 
L 522.33569 253.637859 
L 524.382724 253.61447 
L 526.429759 253.550541 
L 528.476793 253.533194 
L 530.523827 253.423377 
L 532.570862 253.369073 
L 534.617896 253.364355 
L 536.66493 253.325436 
L 538.711964 253.122359 
L 540.758999 253.048476 
L 542.806033 252.787128 
L 544.853067 252.695377 
L 546.900102 252.695377 
L 548.947136 252.494582 
L 550.99417 252.433073 
L 553.041205 252.356984 
L 555.088239 252.230106 
L 557.135273 252.015632 
L 559.182307 251.924919 
L 561.229342 251.842824 
L 563.276376 251.721448 
L 565.32341 251.648527 
L 567.370445 251.647189 
L 569.417479 251.348008 
L 571.464513 251.348008 
L 573.511547 251.125531 
L 575.558582 251.125531 
L 575.558582 246.83084 
L 575.558582 246.83084 
L 573.511547 246.83084 
L 571.464513 247.056391 
L 569.417479 247.056391 
L 567.370445 247.197583 
L 565.32341 247.197583 
L 563.276376 247.415405 
L 561.229342 247.438531 
L 559.182307 247.567406 
L 557.135273 247.582215 
L 555.088239 247.917188 
L 553.041205 247.917188 
L 550.99417 247.925847 
L 548.947136 248.085445 
L 546.900102 248.316414 
L 544.853067 248.316414 
L 542.806033 248.496363 
L 540.758999 248.498149 
L 538.711964 248.807578 
L 536.66493 248.916394 
L 534.617896 249.018918 
L 532.570862 249.108193 
L 530.523827 249.157886 
L 528.476793 249.257604 
L 526.429759 249.288169 
L 524.382724 249.35943 
L 522.33569 249.414615 
L 520.288656 249.467695 
L 518.241622 249.51539 
L 516.194587 249.614478 
L 514.147553 249.880489 
L 512.100519 249.968082 
L 510.053484 249.968082 
L 508.00645 250.165172 
L 505.959416 250.372578 
L 503.912382 250.501113 
L 501.865347 250.571305 
L 499.818313 250.740434 
L 497.771279 250.804509 
L 495.724244 250.823046 
L 493.67721 250.918214 
L 491.630176 251.003554 
L 489.583142 251.190939 
L 487.536107 251.329751 
L 485.489073 251.377658 
L 483.442039 251.458916 
L 481.395004 251.586048 
L 479.34797 251.586048 
L 477.300936 251.687549 
L 475.253901 251.707852 
L 473.206867 251.84888 
L 471.159833 251.84888 
L 469.112799 251.986535 
L 467.065764 251.986535 
L 465.01873 252.404263 
L 462.971696 252.420247 
L 460.924661 252.691211 
L 458.877627 252.691211 
L 456.830593 252.741988 
L 454.783559 252.779813 
L 452.736524 253.030037 
L 450.68949 253.297539 
L 448.642456 253.488061 
L 446.595421 253.580973 
L 444.548387 253.585971 
L 442.501353 253.585971 
L 440.454319 253.970404 
L 438.407284 254.059878 
L 436.36025 254.30482 
L 434.313216 254.320519 
L 432.266181 254.320519 
L 430.219147 254.676155 
L 428.172113 254.685395 
L 426.125078 254.766237 
L 424.078044 254.766237 
L 422.03101 254.88517 
L 419.983976 254.952341 
L 417.936941 255.055341 
L 415.889907 255.069156 
L 413.842873 255.069156 
L 411.795838 255.203073 
L 409.748804 255.470393 
L 407.70177 255.512191 
L 405.654736 255.608736 
L 403.607701 255.608736 
L 401.560667 255.839288 
L 399.513633 255.975532 
L 397.466598 256.049975 
L 395.419564 256.074326 
L 393.37253 256.084851 
L 391.325496 256.293093 
L 389.278461 256.293093 
L 387.231427 256.48749 
L 385.184393 256.492348 
L 383.137358 256.55328 
L 381.090324 256.718272 
L 379.04329 256.810202 
L 376.996256 257.040205 
L 374.949221 257.124017 
L 372.902187 257.139179 
L 370.855153 257.363294 
L 368.808118 257.386943 
L 366.761084 257.451527 
L 364.71405 257.46906 
L 362.667015 257.662285 
L 360.619981 257.662285 
L 358.572947 257.768301 
L 356.525913 257.950696 
L 354.478878 258.049538 
L 352.431844 258.218154 
L 350.38481 258.218154 
L 348.337775 258.344336 
L 346.290741 258.435083 
L 344.243707 258.435083 
L 342.196673 258.435083 
L 340.149638 258.696367 
L 338.102604 258.862526 
L 336.05557 259.102132 
L 334.008535 259.157549 
L 331.961501 259.269728 
L 329.914467 259.365173 
L 327.867433 259.365173 
L 325.820398 259.509583 
L 323.773364 259.673658 
L 321.72633 259.719713 
L 319.679295 259.821983 
L 317.632261 259.908844 
L 315.585227 260.141535 
L 313.538192 260.141535 
L 311.491158 260.284637 
L 309.444124 260.43165 
L 307.39709 260.43165 
L 305.350055 260.558136 
L 303.303021 260.644207 
L 301.255987 260.64533 
L 299.208952 260.823371 
L 297.161918 260.992284 
L 295.114884 261.066959 
L 293.06785 261.143264 
L 291.020815 261.312251 
L 288.973781 261.317025 
L 286.926747 261.418771 
L 284.879712 261.680777 
L 282.832678 261.680777 
L 280.785644 261.928591 
L 278.73861 261.928591 
L 276.691575 262.052381 
L 274.644541 262.069928 
L 272.597507 262.071227 
L 270.550472 262.431449 
L 268.503438 262.58257 
L 266.456404 262.697275 
L 264.409369 262.697275 
L 262.362335 262.981225 
L 260.315301 263.162235 
L 258.268267 263.396634 
L 256.221232 263.440535 
L 254.174198 263.448918 
L 252.127164 263.448918 
L 250.080129 263.723328 
L 248.033095 263.747845 
L 245.986061 264.011599 
L 243.939027 264.04517 
L 241.891992 264.106379 
L 239.844958 264.158167 
L 237.797924 264.362785 
L 235.750889 264.425796 
L 233.703855 264.623349 
L 231.656821 264.623349 
L 229.609787 264.690664 
L 227.562752 264.851868 
L 225.515718 265.160902 
L 223.468684 265.180575 
L 221.421649 265.24606 
L 219.374615 265.261475 
L 217.327581 265.407057 
L 215.280547 265.569649 
L 213.233512 265.569649 
L 211.186478 265.656776 
L 209.139444 265.726675 
L 207.092409 265.861737 
L 205.045375 265.924004 
L 202.998341 266.045971 
L 200.951306 266.076564 
L 198.904272 266.287007 
L 196.857238 266.287007 
L 194.810204 266.385513 
L 192.763169 266.577596 
L 190.716135 266.682575 
L 188.669101 266.746088 
L 186.622066 267.004909 
L 184.575032 267.098373 
L 182.527998 267.284059 
L 180.480964 267.285687 
L 178.433929 267.356707 
L 176.386895 267.642746 
L 174.339861 267.708252 
L 172.292826 267.756494 
L 170.245792 267.884743 
L 168.198758 267.884743 
L 166.151724 268.117056 
L 164.104689 268.281486 
L 162.057655 268.363451 
L 160.010621 268.451257 
L 157.963586 268.481219 
L 155.916552 268.617222 
L 153.869518 268.767238 
L 151.822483 268.789898 
L 149.775449 268.990281 
L 147.728415 269.086546 
L 145.681381 269.282297 
L 143.634346 269.330404 
L 141.587312 269.46597 
L 139.540278 269.475961 
L 137.493243 269.547234 
L 135.446209 269.681453 
L 133.399175 269.788357 
L 131.352141 269.910762 
L 129.305106 269.929027 
L 127.258072 270.125041 
L 125.211038 270.329694 
L 123.164003 270.335027 
L 121.116969 270.670087 
L 119.069935 270.727787 
L 117.022901 270.798986 
L 114.975866 270.922814 
L 112.928832 271.056522 
L 110.881798 271.193638 
L 108.834763 271.25124 
L 106.787729 271.257823 
L 104.740695 271.465677 
L 102.693661 271.648389 
L 100.646626 271.668543 
L 98.599592 271.966965 
L 96.552558 272.064734 
L 94.505523 272.256563 
L 92.458489 272.289553 
L 90.411455 272.425364 
L 88.36442 272.55813 
L 86.317386 272.698282 
L 84.270352 272.73546 
L 82.223318 272.832781 
L 80.176283 273.103646 
L 78.129249 273.151161 
L 76.082215 273.341616 
L 74.03518 273.446437 
L 71.988146 273.651153 
L 69.941112 273.802018 
L 67.894078 273.802018 
L 65.847043 273.802018 
z
" clip-path="url(#pce07901176)" style="fill: #d62728; fill-opacity: 0.25"/>
   </g>
   <g id="matplotlib.axis_1">
    <g id="xtick_1">
     <g id="line2d_1">
      <defs>
       <path id="me72fc1c11b" d="M 0 0 
L 0 3.5 
" style="stroke: #000000; stroke-width: 0.8"/>
      </defs>
      <g>
       <use xlink:href="#me72fc1c11b" x="65.847043" y="286.402018" style="stroke: #000000; stroke-width: 0.8"/>
      </g>
     </g>
     <g id="text_1">
      <!-- 0 -->
      <g transform="translate(62.697043 300.702018) scale(0.1 -0.1)">
       <defs>
        <path id="Colfax-Regular-30" d="M 3161 329 
Q 2739 -90 2016 -90 
Q 1293 -90 870 329 
Q 448 749 448 1402 
L 448 3078 
Q 448 3731 870 4150 
Q 1293 4570 2016 4570 
Q 2739 4570 3161 4150 
Q 3584 3731 3584 3078 
L 3584 1402 
Q 3584 749 3161 329 
z
M 1222 605 
Q 1504 314 2016 314 
Q 2528 314 2809 605 
Q 3091 896 3091 1382 
L 3091 3098 
Q 3091 3584 2809 3875 
Q 2528 4166 2016 4166 
Q 1504 4166 1222 3875 
Q 941 3584 941 3098 
L 941 1382 
Q 941 896 1222 605 
z
" transform="scale(0.015625)"/>
       </defs>
       <use xlink:href="#Colfax-Regular-30"/>
      </g>
     </g>
    </g>
    <g id="xtick_2">
     <g id="line2d_2">
      <g>
       <use xlink:href="#me72fc1c11b" x="167.789351" y="286.402018" style="stroke: #000000; stroke-width: 0.8"/>
      </g>
     </g>
     <g id="text_2">
      <!-- 20 -->
      <g transform="translate(161.654195 300.702018) scale(0.1 -0.1)">
       <defs>
        <path id="Colfax-Regular-32" d="M 448 0 
L 448 384 
L 2342 2374 
Q 2842 2893 2842 3341 
Q 2842 3712 2582 3939 
Q 2323 4166 1926 4166 
Q 1491 4166 1238 3929 
Q 986 3693 986 3264 
L 986 3162 
L 518 3162 
L 518 3283 
Q 518 3885 905 4227 
Q 1293 4570 1926 4570 
Q 2547 4570 2940 4234 
Q 3334 3898 3334 3341 
Q 3334 2976 3139 2672 
Q 2944 2368 2598 2016 
L 1018 403 
L 3341 403 
L 3341 0 
L 448 0 
z
" transform="scale(0.015625)"/>
       </defs>
       <use xlink:href="#Colfax-Regular-32"/>
       <use xlink:href="#Colfax-Regular-30" transform="translate(59.699997 0)"/>
      </g>
     </g>
    </g>
    <g id="xtick_3">
     <g id="line2d_3">
      <g>
       <use xlink:href="#me72fc1c11b" x="269.731659" y="286.402018" style="stroke: #000000; stroke-width: 0.8"/>
      </g>
     </g>
     <g id="text_3">
      <!-- 40 -->
      <g transform="translate(263.521502 300.702018) scale(0.1 -0.1)">
       <defs>
        <path id="Colfax-Regular-34" d="M 2515 0 
L 2515 1069 
L 390 1069 
L 390 1434 
L 1882 4480 
L 2330 4480 
L 870 1440 
L 2515 1440 
L 2515 2502 
L 2970 2502 
L 2970 1440 
L 3590 1440 
L 3590 1069 
L 2970 1069 
L 2970 0 
L 2515 0 
z
" transform="scale(0.015625)"/>
       </defs>
       <use xlink:href="#Colfax-Regular-34"/>
       <use xlink:href="#Colfax-Regular-30" transform="translate(61.199997 0)"/>
      </g>
     </g>
    </g>
    <g id="xtick_4">
     <g id="line2d_4">
      <g>
       <use xlink:href="#me72fc1c11b" x="371.673966" y="286.402018" style="stroke: #000000; stroke-width: 0.8"/>
      </g>
     </g>
     <g id="text_4">
      <!-- 60 -->
      <g transform="translate(365.523966 300.702018) scale(0.1 -0.1)">
       <defs>
        <path id="Colfax-Regular-36" d="M 1965 4480 
L 2490 4480 
L 1190 2502 
L 1190 2496 
Q 1517 2893 2093 2893 
Q 2701 2893 3101 2477 
Q 3501 2061 3501 1421 
Q 3501 806 3056 358 
Q 2611 -90 1939 -90 
Q 1254 -90 816 332 
Q 378 755 378 1402 
Q 378 1971 851 2720 
L 1965 4480 
z
M 1171 2195 
Q 858 1875 858 1395 
Q 858 915 1152 608 
Q 1446 301 1932 301 
Q 2419 301 2720 614 
Q 3021 928 3021 1408 
Q 3021 1888 2733 2201 
Q 2445 2515 1958 2515 
Q 1485 2515 1171 2195 
z
" transform="scale(0.015625)"/>
       </defs>
       <use xlink:href="#Colfax-Regular-36"/>
       <use xlink:href="#Colfax-Regular-30" transform="translate(59.999985 0)"/>
      </g>
     </g>
    </g>
    <g id="xtick_5">
     <g id="line2d_5">
      <g>
       <use xlink:href="#me72fc1c11b" x="473.616274" y="286.402018" style="stroke: #000000; stroke-width: 0.8"/>
      </g>
     </g>
     <g id="text_5">
      <!-- 80 -->
      <g transform="translate(467.316274 300.702018) scale(0.1 -0.1)">
       <defs>
        <path id="Colfax-Regular-38" d="M 3136 265 
Q 2701 -90 2016 -90 
Q 1331 -90 896 265 
Q 461 621 461 1190 
Q 461 1664 729 1955 
Q 998 2246 1363 2330 
Q 646 2650 646 3373 
Q 646 3923 1027 4246 
Q 1408 4570 2016 4570 
Q 2624 4570 3005 4246 
Q 3386 3923 3386 3373 
Q 3386 2650 2669 2330 
Q 3034 2246 3302 1955 
Q 3571 1664 3571 1190 
Q 3571 621 3136 265 
z
M 1241 534 
Q 1549 282 2016 282 
Q 2483 282 2790 534 
Q 3098 787 3098 1190 
Q 3098 1619 2800 1868 
Q 2502 2118 2016 2118 
Q 1530 2118 1232 1868 
Q 934 1619 934 1190 
Q 934 787 1241 534 
z
M 1107 3341 
Q 1107 2989 1366 2739 
Q 1626 2490 2016 2490 
Q 2406 2490 2665 2739 
Q 2925 2989 2925 3341 
Q 2925 3731 2678 3964 
Q 2432 4198 2016 4198 
Q 1600 4198 1353 3964 
Q 1107 3731 1107 3341 
z
" transform="scale(0.015625)"/>
       </defs>
       <use xlink:href="#Colfax-Regular-38"/>
       <use xlink:href="#Colfax-Regular-30" transform="translate(62.999985 0)"/>
      </g>
     </g>
    </g>
    <g id="xtick_6">
     <g id="line2d_6">
      <g>
       <use xlink:href="#me72fc1c11b" x="575.558582" y="286.402018" style="stroke: #000000; stroke-width: 0.8"/>
      </g>
     </g>
     <g id="text_6">
      <!-- 100 -->
      <g transform="translate(567.508582 300.702018) scale(0.1 -0.1)">
       <defs>
        <path id="Colfax-Regular-31" d="M 1133 0 
L 1133 3974 
L 198 3533 
L 198 3981 
L 1216 4480 
L 1626 4480 
L 1626 0 
L 1133 0 
z
" transform="scale(0.015625)"/>
       </defs>
       <use xlink:href="#Colfax-Regular-31"/>
       <use xlink:href="#Colfax-Regular-30" transform="translate(34.999985 0)"/>
       <use xlink:href="#Colfax-Regular-30" transform="translate(97.999969 0)"/>
      </g>
     </g>
    </g>
    <g id="text_7">
     <!-- Normalized print (pen down) distance (%) -->
     <g transform="translate(207.274688 326.827018) scale(0.12 -0.12)">
      <defs>
       <path id="Colfax-Regular-4e" d="M 582 0 
L 582 4480 
L 1050 4480 
L 3514 800 
L 3514 4480 
L 4000 4480 
L 4000 0 
L 3533 0 
L 1069 3680 
L 1069 0 
L 582 0 
z
" transform="scale(0.015625)"/>
       <path id="Colfax-Regular-6f" d="M 2892 332 
Q 2502 -77 1824 -77 
Q 1146 -77 752 332 
Q 358 742 358 1370 
L 358 1907 
Q 358 2534 752 2944 
Q 1146 3354 1824 3354 
Q 2502 3354 2892 2944 
Q 3283 2534 3283 1907 
L 3283 1370 
Q 3283 742 2892 332 
z
M 2816 1901 
Q 2816 2381 2557 2672 
Q 2298 2963 1824 2963 
Q 1350 2963 1091 2672 
Q 832 2381 832 1901 
L 832 1376 
Q 832 896 1091 605 
Q 1350 314 1824 314 
Q 2298 314 2557 605 
Q 2816 896 2816 1376 
L 2816 1901 
z
" transform="scale(0.015625)"/>
       <path id="Colfax-Regular-72" d="M 518 0 
L 518 3277 
L 973 3277 
L 973 2522 
Q 1158 3296 2042 3296 
L 2118 3296 
L 2118 2842 
L 2022 2842 
Q 1549 2842 1277 2528 
Q 1005 2214 1005 1606 
L 1005 0 
L 518 0 
z
" transform="scale(0.015625)"/>
       <path id="Colfax-Regular-6d" d="M 518 0 
L 518 3277 
L 979 3277 
L 979 2720 
Q 1242 3354 2061 3354 
Q 2419 3354 2691 3184 
Q 2963 3014 3104 2714 
Q 3475 3354 4294 3354 
Q 4832 3354 5152 3002 
Q 5472 2650 5472 2067 
L 5472 0 
L 4986 0 
L 4986 1997 
Q 4986 2426 4778 2678 
Q 4570 2931 4173 2931 
Q 3750 2931 3494 2675 
Q 3238 2419 3238 1926 
L 3238 0 
L 2752 0 
L 2752 1997 
Q 2752 2426 2544 2678 
Q 2336 2931 1939 2931 
Q 1517 2931 1261 2675 
Q 1005 2419 1005 1926 
L 1005 0 
L 518 0 
z
" transform="scale(0.015625)"/>
       <path id="Colfax-Regular-61" d="M 3206 0 
L 2739 0 
L 2739 410 
Q 2624 218 2310 70 
Q 1997 -77 1613 -77 
Q 1043 -77 707 211 
Q 371 499 371 954 
Q 371 1427 726 1702 
Q 1082 1978 1670 1978 
Q 2323 1978 2720 1568 
L 2720 2176 
Q 2720 2522 2502 2746 
Q 2285 2970 1901 2970 
Q 1299 2970 1082 2477 
L 634 2477 
Q 762 2886 1094 3120 
Q 1427 3354 1907 3354 
Q 2502 3354 2854 3014 
Q 3206 2675 3206 2176 
L 3206 0 
z
M 1715 237 
Q 2112 237 2416 445 
Q 2720 653 2720 960 
Q 2720 1254 2422 1456 
Q 2125 1658 1741 1658 
Q 1325 1658 1078 1469 
Q 832 1280 832 947 
Q 832 614 1078 425 
Q 1325 237 1715 237 
z
" transform="scale(0.015625)"/>
       <path id="Colfax-Regular-6c" d="M 550 0 
L 550 4672 
L 1037 4672 
L 1037 0 
L 550 0 
z
" transform="scale(0.015625)"/>
       <path id="Colfax-Regular-69" d="M 550 0 
L 550 3277 
L 1037 3277 
L 1037 0 
L 550 0 
z
M 569 3929 
Q 486 4013 486 4141 
Q 486 4269 569 4352 
Q 653 4435 793 4435 
Q 934 4435 1017 4352 
Q 1101 4269 1101 4141 
Q 1101 4013 1017 3929 
Q 934 3846 793 3846 
Q 653 3846 569 3929 
z
" transform="scale(0.015625)"/>
       <path id="Colfax-Regular-7a" d="M 365 0 
L 365 365 
L 2298 2893 
L 442 2893 
L 442 3277 
L 2835 3277 
L 2835 2912 
L 902 384 
L 2861 384 
L 2861 0 
L 365 0 
z
" transform="scale(0.015625)"/>
       <path id="Colfax-Regular-65" d="M 1805 -77 
Q 1158 -77 758 310 
Q 358 698 358 1350 
L 358 1875 
Q 358 2554 732 2954 
Q 1107 3354 1786 3354 
Q 2458 3354 2816 2957 
Q 3174 2560 3174 1926 
L 3174 1440 
L 826 1440 
L 826 1325 
Q 826 870 1072 582 
Q 1318 294 1805 294 
Q 2163 294 2393 467 
Q 2624 640 2707 928 
L 3142 928 
Q 3059 486 2688 204 
Q 2317 -77 1805 -77 
z
M 826 1914 
L 826 1811 
L 2720 1811 
L 2720 1965 
Q 2720 2426 2483 2704 
Q 2246 2982 1786 2982 
Q 1286 2982 1056 2691 
Q 826 2400 826 1914 
z
" transform="scale(0.015625)"/>
       <path id="Colfax-Regular-64" d="M 2810 4672 
L 3296 4672 
L 3296 0 
L 2835 0 
L 2835 512 
Q 2720 269 2419 96 
Q 2118 -77 1728 -77 
Q 1094 -77 726 339 
Q 358 755 358 1389 
L 358 1888 
Q 358 2534 729 2944 
Q 1101 3354 1715 3354 
Q 2086 3354 2371 3200 
Q 2656 3046 2810 2790 
L 2810 4672 
z
M 845 1869 
L 845 1408 
Q 845 928 1085 624 
Q 1325 320 1811 320 
Q 2278 320 2544 637 
Q 2810 954 2810 1446 
L 2810 1869 
Q 2810 2362 2518 2659 
Q 2227 2957 1805 2957 
Q 1357 2957 1101 2646 
Q 845 2336 845 1869 
z
" transform="scale(0.015625)"/>
       <path id="Colfax-Regular-20" transform="scale(0.015625)"/>
       <path id="Colfax-Regular-70" d="M 1005 -1114 
L 518 -1114 
L 518 3277 
L 979 3277 
L 979 2765 
Q 1094 3008 1395 3181 
Q 1696 3354 2086 3354 
Q 2726 3354 3091 2944 
Q 3456 2534 3456 1888 
L 3456 1389 
Q 3456 742 3085 332 
Q 2714 -77 2099 -77 
Q 1728 -77 1443 76 
Q 1158 230 1005 486 
L 1005 -1114 
z
M 2970 1408 
L 2970 1869 
Q 2970 2349 2730 2653 
Q 2490 2957 2003 2957 
Q 1536 2957 1270 2640 
Q 1005 2323 1005 1830 
L 1005 1408 
Q 1005 915 1296 617 
Q 1587 320 2010 320 
Q 2458 320 2714 630 
Q 2970 941 2970 1408 
z
" transform="scale(0.015625)"/>
       <path id="Colfax-Regular-6e" d="M 518 0 
L 518 3277 
L 979 3277 
L 979 2720 
Q 1101 3008 1382 3181 
Q 1664 3354 2074 3354 
Q 2624 3354 2950 3005 
Q 3277 2656 3277 2067 
L 3277 0 
L 2790 0 
L 2790 1997 
Q 2790 2432 2585 2681 
Q 2381 2931 1952 2931 
Q 1530 2931 1267 2675 
Q 1005 2419 1005 1926 
L 1005 0 
L 518 0 
z
" transform="scale(0.015625)"/>
       <path id="Colfax-Regular-74" d="M 2086 0 
L 1677 0 
Q 787 0 787 870 
L 787 2880 
L 230 2880 
L 230 3277 
L 787 3277 
L 787 4218 
L 1274 4218 
L 1274 3277 
L 2112 3277 
L 2112 2880 
L 1274 2880 
L 1274 870 
Q 1274 614 1382 505 
Q 1491 397 1760 397 
L 2086 397 
L 2086 0 
z
" transform="scale(0.015625)"/>
       <path id="Colfax-Regular-28" d="M 1261 5005 
L 1734 5005 
Q 1331 4166 1152 3475 
Q 973 2784 973 2073 
Q 973 1363 1152 672 
Q 1331 -19 1734 -858 
L 1261 -858 
Q 486 627 486 2073 
Q 486 3520 1261 5005 
z
" transform="scale(0.015625)"/>
       <path id="Colfax-Regular-77" d="M 4659 3277 
L 3763 0 
L 3302 0 
L 2432 2765 
L 1562 0 
L 1101 0 
L 205 3277 
L 666 3277 
L 1357 582 
L 2202 3277 
L 2662 3277 
L 3507 582 
L 4198 3277 
L 4659 3277 
z
" transform="scale(0.015625)"/>
       <path id="Colfax-Regular-29" d="M 243 5005 
L 717 5005 
Q 1491 3520 1491 2073 
Q 1491 627 717 -858 
L 243 -858 
Q 646 -19 825 672 
Q 1005 1363 1005 2073 
Q 1005 2784 825 3475 
Q 646 4166 243 5005 
z
" transform="scale(0.015625)"/>
       <path id="Colfax-Regular-73" d="M 1722 -77 
Q 1120 -77 742 204 
Q 365 486 365 954 
L 365 986 
L 806 986 
L 806 966 
Q 806 659 1062 473 
Q 1318 288 1728 288 
Q 2125 288 2361 445 
Q 2598 602 2598 909 
Q 2598 1274 2189 1363 
L 1216 1587 
Q 851 1670 649 1884 
Q 448 2099 448 2419 
Q 448 2867 790 3110 
Q 1133 3354 1690 3354 
Q 2208 3354 2557 3066 
Q 2906 2778 2906 2330 
L 2906 2298 
L 2464 2298 
L 2464 2317 
Q 2464 2624 2256 2806 
Q 2048 2989 1683 2989 
Q 1331 2989 1113 2845 
Q 896 2701 896 2432 
Q 896 2093 1242 2010 
L 2246 1773 
Q 3053 1581 3053 928 
Q 3053 493 2675 208 
Q 2298 -77 1722 -77 
z
" transform="scale(0.015625)"/>
       <path id="Colfax-Regular-63" d="M 1811 -77 
Q 1146 -77 752 326 
Q 358 730 358 1363 
L 358 1914 
Q 358 2547 752 2950 
Q 1146 3354 1811 3354 
Q 2419 3354 2800 3005 
Q 3181 2656 3213 2125 
L 2778 2125 
Q 2726 2490 2489 2730 
Q 2253 2970 1818 2970 
Q 1331 2970 1081 2685 
Q 832 2400 832 1920 
L 832 1357 
Q 832 877 1081 592 
Q 1331 307 1818 307 
Q 2253 307 2489 547 
Q 2726 787 2778 1152 
L 3213 1152 
Q 3181 621 2800 272 
Q 2419 -77 1811 -77 
z
" transform="scale(0.015625)"/>
       <path id="Colfax-Regular-25" d="M 2060 2320 
Q 1798 2054 1356 2054 
Q 915 2054 652 2320 
Q 390 2586 390 3014 
L 390 3571 
Q 390 4000 652 4265 
Q 915 4531 1356 4531 
Q 1798 4531 2060 4265 
Q 2323 4000 2323 3571 
L 2323 3014 
Q 2323 2586 2060 2320 
z
M 912 2531 
Q 1069 2362 1357 2362 
Q 1645 2362 1801 2531 
Q 1958 2701 1958 2989 
L 1958 3597 
Q 1958 3885 1801 4054 
Q 1645 4224 1357 4224 
Q 1069 4224 912 4054 
Q 755 3885 755 3597 
L 755 2989 
Q 755 2701 912 2531 
z
M 4812 214 
Q 4550 -51 4108 -51 
Q 3667 -51 3404 214 
Q 3142 480 3142 909 
L 3142 1466 
Q 3142 1894 3404 2160 
Q 3667 2426 4108 2426 
Q 4550 2426 4812 2160 
Q 5075 1894 5075 1466 
L 5075 909 
Q 5075 480 4812 214 
z
M 3664 425 
Q 3821 256 4109 256 
Q 4397 256 4553 425 
Q 4710 595 4710 883 
L 4710 1491 
Q 4710 1779 4553 1948 
Q 4397 2118 4109 2118 
Q 3821 2118 3664 1948 
Q 3507 1779 3507 1491 
L 3507 883 
Q 3507 595 3664 425 
z
M 1389 0 
L 3712 4480 
L 4083 4480 
L 1760 0 
L 1389 0 
z
" transform="scale(0.015625)"/>
      </defs>
      <use xlink:href="#Colfax-Regular-4e"/>
      <use xlink:href="#Colfax-Regular-6f" transform="translate(71.599991 0)"/>
      <use xlink:href="#Colfax-Regular-72" transform="translate(128.499985 0)"/>
      <use xlink:href="#Colfax-Regular-6d" transform="translate(163.799973 0)"/>
      <use xlink:href="#Colfax-Regular-61" transform="translate(256.899963 0)"/>
      <use xlink:href="#Colfax-Regular-6c" transform="translate(314.499954 0)"/>
      <use xlink:href="#Colfax-Regular-69" transform="translate(339.299942 0)"/>
      <use xlink:href="#Colfax-Regular-7a" transform="translate(364.09993 0)"/>
      <use xlink:href="#Colfax-Regular-65" transform="translate(413.999924 0)"/>
      <use xlink:href="#Colfax-Regular-64" transform="translate(469.399918 0)"/>
      <use xlink:href="#Colfax-Regular-20" transform="translate(528.999908 0)"/>
      <use xlink:href="#Colfax-Regular-70" transform="translate(550.999893 0)"/>
      <use xlink:href="#Colfax-Regular-72" transform="translate(610.599884 0)"/>
      <use xlink:href="#Colfax-Regular-69" transform="translate(645.899872 0)"/>
      <use xlink:href="#Colfax-Regular-6e" transform="translate(670.69986 0)"/>
      <use xlink:href="#Colfax-Regular-74" transform="translate(729.499847 0)"/>
      <use xlink:href="#Colfax-Regular-20" transform="translate(766.799835 0)"/>
      <use xlink:href="#Colfax-Regular-28" transform="translate(788.79982 0)"/>
      <use xlink:href="#Colfax-Regular-70" transform="translate(819.699814 0)"/>
      <use xlink:href="#Colfax-Regular-65" transform="translate(879.299805 0)"/>
      <use xlink:href="#Colfax-Regular-6e" transform="translate(934.699799 0)"/>
      <use xlink:href="#Colfax-Regular-20" transform="translate(993.499786 0)"/>
      <use xlink:href="#Colfax-Regular-64" transform="translate(1015.499771 0)"/>
      <use xlink:href="#Colfax-Regular-6f" transform="translate(1075.099762 0)"/>
      <use xlink:href="#Colfax-Regular-77" transform="translate(1131.999756 0)"/>
      <use xlink:href="#Colfax-Regular-6e" transform="translate(1207.999741 0)"/>
      <use xlink:href="#Colfax-Regular-29" transform="translate(1266.799728 0)"/>
      <use xlink:href="#Colfax-Regular-20" transform="translate(1297.699722 0)"/>
      <use xlink:href="#Colfax-Regular-64" transform="translate(1319.699707 0)"/>
      <use xlink:href="#Colfax-Regular-69" transform="translate(1379.299698 0)"/>
      <use xlink:href="#Colfax-Regular-73" transform="translate(1404.099686 0)"/>
      <use xlink:href="#Colfax-Regular-74" transform="translate(1456.699677 0)"/>
      <use xlink:href="#Colfax-Regular-61" transform="translate(1493.999664 0)"/>
      <use xlink:href="#Colfax-Regular-6e" transform="translate(1551.599655 0)"/>
      <use xlink:href="#Colfax-Regular-63" transform="translate(1610.399643 0)"/>
      <use xlink:href="#Colfax-Regular-65" transform="translate(1666.399628 0)"/>
      <use xlink:href="#Colfax-Regular-20" transform="translate(1721.799622 0)"/>
      <use xlink:href="#Colfax-Regular-28" transform="translate(1743.799606 0)"/>
      <use xlink:href="#Colfax-Regular-25" transform="translate(1774.6996 0)"/>
      <use xlink:href="#Colfax-Regular-29" transform="translate(1859.599594 0)"/>
     </g>
    </g>
   </g>
   <g id="matplotlib.axis_2">
    <g id="ytick_1">
     <g id="line2d_7">
      <defs>
       <path id="m891ac4857a" d="M 0 0 
L -3.5 0 
" style="stroke: #000000; stroke-width: 0.8"/>
      </defs>
      <g>
       <use xlink:href="#m891ac4857a" x="55.652813" y="273.802018" style="stroke: #000000; stroke-width: 0.8"/>
      </g>
     </g>
     <g id="text_8">
      <!-- 0.0 -->
      <g transform="translate(33.673125 277.452018) scale(0.1 -0.1)">
       <defs>
        <path id="Colfax-Regular-2e" d="M 528 48 
Q 435 134 435 275 
Q 435 416 524 502 
Q 614 589 761 589 
Q 909 589 998 502 
Q 1088 416 1088 275 
Q 1088 134 995 48 
Q 902 -38 761 -38 
Q 621 -38 528 48 
z
" transform="scale(0.015625)"/>
       </defs>
       <use xlink:href="#Colfax-Regular-30"/>
       <use xlink:href="#Colfax-Regular-2e" transform="translate(62.999985 0)"/>
       <use xlink:href="#Colfax-Regular-30" transform="translate(86.799973 0)"/>
      </g>
     </g>
    </g>
    <g id="ytick_2">
     <g id="line2d_8">
      <g>
       <use xlink:href="#m891ac4857a" x="55.652813" y="229.976681" style="stroke: #000000; stroke-width: 0.8"/>
      </g>
     </g>
     <g id="text_9">
      <!-- 0.5 -->
      <g transform="translate(33.7325 233.626681) scale(0.1 -0.1)">
       <defs>
        <path id="Colfax-Regular-35" d="M 1984 -90 
Q 1414 -90 992 227 
Q 570 544 467 1101 
L 934 1101 
Q 1037 742 1305 528 
Q 1574 314 1984 314 
Q 2496 314 2806 624 
Q 3117 934 3117 1414 
Q 3117 1875 2816 2188 
Q 2515 2502 2048 2502 
Q 1414 2502 1030 1978 
L 563 1978 
L 986 4480 
L 3219 4480 
L 3219 4077 
L 1376 4077 
L 1094 2470 
Q 1254 2662 1536 2784 
Q 1818 2906 2144 2906 
Q 2771 2906 3184 2480 
Q 3597 2054 3597 1427 
Q 3597 781 3139 345 
Q 2682 -90 1984 -90 
z
" transform="scale(0.015625)"/>
       </defs>
       <use xlink:href="#Colfax-Regular-30"/>
       <use xlink:href="#Colfax-Regular-2e" transform="translate(62.999985 0)"/>
       <use xlink:href="#Colfax-Regular-35" transform="translate(86.799973 0)"/>
      </g>
     </g>
    </g>
    <g id="ytick_3">
     <g id="line2d_9">
      <g>
       <use xlink:href="#m891ac4857a" x="55.652813" y="186.151345" style="stroke: #000000; stroke-width: 0.8"/>
      </g>
     </g>
     <g id="text_10">
      <!-- 1.0 -->
      <g transform="translate(36.473125 189.801345) scale(0.1 -0.1)">
       <use xlink:href="#Colfax-Regular-31"/>
       <use xlink:href="#Colfax-Regular-2e" transform="translate(34.999985 0)"/>
       <use xlink:href="#Colfax-Regular-30" transform="translate(58.799973 0)"/>
      </g>
     </g>
    </g>
    <g id="ytick_4">
     <g id="line2d_10">
      <g>
       <use xlink:href="#m891ac4857a" x="55.652813" y="142.326009" style="stroke: #000000; stroke-width: 0.8"/>
      </g>
     </g>
     <g id="text_11">
      <!-- 1.5 -->
      <g transform="translate(36.5325 145.976009) scale(0.1 -0.1)">
       <use xlink:href="#Colfax-Regular-31"/>
       <use xlink:href="#Colfax-Regular-2e" transform="translate(34.999985 0)"/>
       <use xlink:href="#Colfax-Regular-35" transform="translate(58.799973 0)"/>
      </g>
     </g>
    </g>
    <g id="ytick_5">
     <g id="line2d_11">
      <g>
       <use xlink:href="#m891ac4857a" x="55.652813" y="98.500673" style="stroke: #000000; stroke-width: 0.8"/>
      </g>
     </g>
     <g id="text_12">
      <!-- 2.0 -->
      <g transform="translate(34.002813 102.150673) scale(0.1 -0.1)">
       <use xlink:href="#Colfax-Regular-32"/>
       <use xlink:href="#Colfax-Regular-2e" transform="translate(59.699997 0)"/>
       <use xlink:href="#Colfax-Regular-30" transform="translate(83.499985 0)"/>
      </g>
     </g>
    </g>
    <g id="ytick_6">
     <g id="line2d_12">
      <g>
       <use xlink:href="#m891ac4857a" x="55.652813" y="54.675336" style="stroke: #000000; stroke-width: 0.8"/>
      </g>
     </g>
     <g id="text_13">
      <!-- 2.5 -->
      <g transform="translate(34.062188 58.325336) scale(0.1 -0.1)">
       <use xlink:href="#Colfax-Regular-32"/>
       <use xlink:href="#Colfax-Regular-2e" transform="translate(59.699997 0)"/>
       <use xlink:href="#Colfax-Regular-35" transform="translate(83.499985 0)"/>
      </g>
     </g>
    </g>
    <g id="ytick_7">
     <g id="line2d_13">
      <g>
       <use xlink:href="#m891ac4857a" x="55.652813" y="10.85" style="stroke: #000000; stroke-width: 0.8"/>
      </g>
     </g>
     <g id="text_14">
      <!-- 3.0 -->
      <g transform="translate(33.893438 14.5) scale(0.1 -0.1)">
       <defs>
        <path id="Colfax-Regular-33" d="M 704 4083 
L 704 4480 
L 3315 4480 
L 3315 4077 
L 1882 2509 
L 2054 2509 
Q 2675 2509 3068 2163 
Q 3462 1818 3462 1248 
Q 3462 672 3008 291 
Q 2554 -90 1907 -90 
Q 1299 -90 860 262 
Q 422 614 397 1222 
L 851 1222 
Q 883 800 1174 553 
Q 1466 307 1914 307 
Q 2394 307 2688 569 
Q 2982 832 2982 1235 
Q 2982 1645 2700 1894 
Q 2419 2144 1946 2144 
L 1338 2144 
L 1338 2528 
L 2720 4083 
L 704 4083 
z
" transform="scale(0.015625)"/>
       </defs>
       <use xlink:href="#Colfax-Regular-33"/>
       <use xlink:href="#Colfax-Regular-2e" transform="translate(60.799988 0)"/>
       <use xlink:href="#Colfax-Regular-30" transform="translate(84.599976 0)"/>
      </g>
     </g>
    </g>
    <g id="text_15">
     <!-- Travel (pen up) distance / print distance -->
     <g transform="translate(16.584375 257.471705) rotate(-90) scale(0.12 -0.12)">
      <defs>
       <path id="Colfax-Regular-54" d="M 1549 0 
L 1549 4064 
L 179 4064 
L 179 4480 
L 3418 4480 
L 3418 4064 
L 2048 4064 
L 2048 0 
L 1549 0 
z
" transform="scale(0.015625)"/>
       <path id="Colfax-Regular-76" d="M 3085 3277 
L 1882 0 
L 1370 0 
L 166 3277 
L 646 3277 
L 1626 486 
L 2605 3277 
L 3085 3277 
z
" transform="scale(0.015625)"/>
       <path id="Colfax-Regular-75" d="M 3213 3277 
L 3213 0 
L 2752 0 
L 2752 557 
Q 2630 269 2348 96 
Q 2067 -77 1658 -77 
Q 1120 -77 803 272 
Q 486 621 486 1210 
L 486 3277 
L 973 3277 
L 973 1280 
Q 973 845 1171 589 
Q 1370 333 1779 333 
Q 2202 333 2464 595 
Q 2726 858 2726 1350 
L 2726 3277 
L 3213 3277 
z
" transform="scale(0.015625)"/>
       <path id="Colfax-Regular-2f" d="M 224 -672 
L 2029 4800 
L 2483 4800 
L 678 -672 
L 224 -672 
z
" transform="scale(0.015625)"/>
      </defs>
      <use xlink:href="#Colfax-Regular-54"/>
      <use xlink:href="#Colfax-Regular-72" transform="translate(56.199997 0)"/>
      <use xlink:href="#Colfax-Regular-61" transform="translate(91.499985 0)"/>
      <use xlink:href="#Colfax-Regular-76" transform="translate(149.099976 0)"/>
      <use xlink:href="#Colfax-Regular-65" transform="translate(199.899963 0)"/>
      <use xlink:href="#Colfax-Regular-6c" transform="translate(255.299957 0)"/>
      <use xlink:href="#Colfax-Regular-20" transform="translate(280.099945 0)"/>
      <use xlink:href="#Colfax-Regular-28" transform="translate(302.09993 0)"/>
      <use xlink:href="#Colfax-Regular-70" transform="translate(332.999924 0)"/>
      <use xlink:href="#Colfax-Regular-65" transform="translate(392.599915 0)"/>
      <use xlink:href="#Colfax-Regular-6e" transform="translate(447.999908 0)"/>
      <use xlink:href="#Colfax-Regular-20" transform="translate(506.799896 0)"/>
      <use xlink:href="#Colfax-Regular-75" transform="translate(528.799881 0)"/>
      <use xlink:href="#Colfax-Regular-70" transform="translate(587.099869 0)"/>
      <use xlink:href="#Colfax-Regular-29" transform="translate(646.69986 0)"/>
      <use xlink:href="#Colfax-Regular-20" transform="translate(677.599854 0)"/>
      <use xlink:href="#Colfax-Regular-64" transform="translate(699.599838 0)"/>
      <use xlink:href="#Colfax-Regular-69" transform="translate(759.199829 0)"/>
      <use xlink:href="#Colfax-Regular-73" transform="translate(783.999817 0)"/>
      <use xlink:href="#Colfax-Regular-74" transform="translate(836.599808 0)"/>
      <use xlink:href="#Colfax-Regular-61" transform="translate(873.899796 0)"/>
      <use xlink:href="#Colfax-Regular-6e" transform="translate(931.499786 0)"/>
      <use xlink:href="#Colfax-Regular-63" transform="translate(990.299774 0)"/>
      <use xlink:href="#Colfax-Regular-65" transform="translate(1046.299759 0)"/>
      <use xlink:href="#Colfax-Regular-20" transform="translate(1101.699753 0)"/>
      <use xlink:href="#Colfax-Regular-2f" transform="translate(1123.699738 0)"/>
      <use xlink:href="#Colfax-Regular-20" transform="translate(1165.999725 0)"/>
      <use xlink:href="#Colfax-Regular-70" transform="translate(1187.99971 0)"/>
      <use xlink:href="#Colfax-Regular-72" transform="translate(1247.599701 0)"/>
      <use xlink:href="#Colfax-Regular-69" transform="translate(1282.899689 0)"/>
      <use xlink:href="#Colfax-Regular-6e" transform="translate(1307.699677 0)"/>
      <use xlink:href="#Colfax-Regular-74" transform="translate(1366.499664 0)"/>
      <use xlink:href="#Colfax-Regular-20" transform="translate(1403.799652 0)"/>
      <use xlink:href="#Colfax-Regular-64" transform="translate(1425.799637 0)"/>
      <use xlink:href="#Colfax-Regular-69" transform="translate(1485.399628 0)"/>
      <use xlink:href="#Colfax-Regular-73" transform="translate(1510.199615 0)"/>
      <use xlink:href="#Colfax-Regular-74" transform="translate(1562.799606 0)"/>
      <use xlink:href="#Colfax-Regular-61" transform="translate(1600.099594 0)"/>
      <use xlink:href="#Colfax-Regular-6e" transform="translate(1657.699585 0)"/>
      <use xlink:href="#Colfax-Regular-63" transform="translate(1716.499573 0)"/>
      <use xlink:href="#Colfax-Regular-65" transform="translate(1772.499557 0)"/>
     </g>
    </g>
   </g>
   <g id="line2d_14">
    <path d="M 65.847043 273.802018 
L 67.894078 273.802018 
L 69.941112 273.668311 
L 71.988146 273.230262 
L 74.03518 271.872285 
L 80.176283 269.94675 
L 84.270352 268.587971 
L 88.36442 267.334669 
L 98.599592 263.893062 
L 100.646626 263.059 
L 112.928832 258.971939 
L 114.975866 258.441617 
L 121.116969 256.023238 
L 123.164003 255.516062 
L 129.305106 253.23245 
L 131.352141 252.645637 
L 137.493243 250.265997 
L 139.540278 249.290104 
L 141.587312 248.713375 
L 143.634346 247.962321 
L 145.681381 247.337486 
L 147.728415 246.356874 
L 151.822483 245.065589 
L 153.869518 244.317337 
L 155.916552 243.424357 
L 160.010621 242.04398 
L 162.057655 241.125774 
L 164.104689 240.543117 
L 180.480964 234.545164 
L 182.527998 233.537747 
L 188.669101 231.511031 
L 190.716135 230.686208 
L 192.763169 230.018735 
L 194.810204 229.216932 
L 196.857238 228.569266 
L 209.139444 223.647509 
L 211.186478 222.690741 
L 213.233512 221.99393 
L 215.280547 220.928537 
L 217.327581 220.214746 
L 219.374615 219.309833 
L 221.421649 218.567791 
L 223.468684 217.593037 
L 225.515718 216.832319 
L 227.562752 215.924606 
L 229.609787 215.230029 
L 231.656821 214.148871 
L 233.703855 213.436916 
L 241.891992 210.008487 
L 243.939027 209.091942 
L 254.174198 205.259896 
L 258.268267 203.886888 
L 266.456404 199.998302 
L 270.550472 198.137338 
L 274.644541 196.420513 
L 276.691575 195.80857 
L 282.832678 192.9233 
L 284.879712 192.207225 
L 286.926747 191.224236 
L 293.06785 188.806959 
L 295.114884 187.790082 
L 297.161918 187.152575 
L 301.255987 184.992892 
L 303.303021 184.282466 
L 311.491158 180.687179 
L 315.585227 179.15036 
L 323.773364 175.51422 
L 325.820398 174.344114 
L 327.867433 173.630434 
L 336.05557 169.576339 
L 338.102604 168.478049 
L 340.149638 167.691639 
L 342.196673 166.686579 
L 344.243707 165.914574 
L 346.290741 164.861452 
L 350.38481 163.35721 
L 354.478878 161.406175 
L 364.71405 156.356303 
L 366.761084 155.59635 
L 376.996256 150.923309 
L 381.090324 148.968211 
L 383.137358 148.264452 
L 385.184393 147.189624 
L 391.325496 144.431277 
L 393.37253 143.598312 
L 399.513633 140.529546 
L 401.560667 139.686643 
L 403.607701 138.442658 
L 405.654736 137.364074 
L 407.70177 136.57332 
L 424.078044 127.941314 
L 432.266181 123.947005 
L 434.313216 122.677427 
L 438.407284 120.773989 
L 442.501353 118.638458 
L 448.642456 115.144637 
L 460.924661 109.072725 
L 465.01873 106.726427 
L 467.065764 105.843067 
L 473.206867 102.707231 
L 475.253901 101.81277 
L 477.300936 100.743573 
L 479.34797 99.457199 
L 481.395004 98.701055 
L 483.442039 97.184646 
L 487.536107 95.018076 
L 489.583142 93.616632 
L 491.630176 92.574704 
L 495.724244 90.052342 
L 501.865347 86.274337 
L 503.912382 84.863796 
L 508.00645 82.586787 
L 510.053484 81.168294 
L 514.147553 78.827012 
L 516.194587 77.586067 
L 518.241622 76.16796 
L 520.288656 75.143276 
L 522.33569 73.562501 
L 524.382724 72.63007 
L 526.429759 71.229959 
L 528.476793 69.684067 
L 538.711964 63.303489 
L 540.758999 62.304682 
L 546.900102 58.562889 
L 550.99417 55.474531 
L 553.041205 54.159586 
L 555.088239 53.001768 
L 561.229342 48.860251 
L 563.276376 47.634773 
L 565.32341 46.2786 
L 567.370445 44.776405 
L 571.464513 42.278136 
L 573.511547 40.637341 
L 575.558582 40.630722 
L 575.558582 40.630722 
" clip-path="url(#pce07901176)" style="fill: none; stroke: #bcbd22; stroke-width: 1.5; stroke-linecap: square"/>
   </g>
   <g id="line2d_15">
    <path d="M 65.847043 273.802018 
L 71.988146 273.718453 
L 76.082215 273.41269 
L 82.223318 272.996829 
L 88.36442 272.467696 
L 92.458489 272.141421 
L 123.164003 269.448968 
L 127.258072 269.089202 
L 143.634346 267.473854 
L 147.728415 267.107409 
L 162.057655 265.581845 
L 170.245792 264.707424 
L 172.292826 264.406006 
L 176.386895 263.993326 
L 190.716135 262.46658 
L 194.810204 261.879525 
L 196.857238 261.750137 
L 200.951306 261.225734 
L 209.139444 260.220507 
L 217.327581 259.085297 
L 225.515718 258.077081 
L 235.750889 256.794768 
L 245.986061 255.37726 
L 264.409369 252.765002 
L 272.597507 251.614998 
L 288.973781 249.204169 
L 313.538192 245.458734 
L 315.585227 245.211123 
L 321.72633 244.143936 
L 323.773364 243.884244 
L 329.914467 242.778662 
L 331.961501 242.563038 
L 381.090324 234.291658 
L 383.137358 233.911383 
L 385.184393 233.658514 
L 393.37253 232.178049 
L 397.466598 231.553777 
L 401.560667 230.791427 
L 417.936941 228.046926 
L 428.172113 226.1936 
L 432.266181 225.49081 
L 434.313216 224.983017 
L 462.971696 219.739576 
L 465.01873 219.453767 
L 471.159833 218.17877 
L 477.300936 217.060169 
L 485.489073 215.633014 
L 489.583142 214.786206 
L 493.67721 214.085795 
L 497.771279 213.232683 
L 516.194587 209.608218 
L 548.947136 202.715481 
L 559.182307 200.424204 
L 563.276376 199.452076 
L 565.32341 199.079236 
L 567.370445 198.521686 
L 573.511547 197.188377 
L 575.558582 197.188377 
L 575.558582 197.188377 
" clip-path="url(#pce07901176)" style="fill: none; stroke: #2ca02c; stroke-width: 1.5; stroke-linecap: square"/>
   </g>
   <g id="line2d_16">
    <path d="M 65.847043 273.802018 
L 71.988146 273.753255 
L 86.317386 273.231654 
L 104.740695 272.545465 
L 131.352141 271.509662 
L 141.587312 271.100146 
L 151.822483 270.666025 
L 213.233512 268.076303 
L 256.221232 266.125811 
L 288.973781 264.605902 
L 327.867433 262.678578 
L 344.243707 261.92054 
L 370.855153 260.43871 
L 381.090324 259.944557 
L 387.231427 259.551088 
L 401.560667 258.75339 
L 407.70177 258.377071 
L 419.983976 257.713123 
L 432.266181 256.950545 
L 505.959416 251.997643 
L 510.053484 251.569063 
L 518.241622 250.816277 
L 524.382724 250.242507 
L 544.853067 247.969027 
L 546.900102 247.60293 
L 555.088239 246.757099 
L 565.32341 245.321927 
L 571.464513 244.220571 
L 573.511547 243.600513 
L 575.558582 243.599371 
L 575.558582 243.599371 
" clip-path="url(#pce07901176)" style="fill: none; stroke: #17becf; stroke-width: 1.5; stroke-linecap: square"/>
   </g>
   <g id="line2d_17">
    <path d="M 65.847043 273.802018 
L 71.988146 273.746802 
L 86.317386 273.027922 
L 104.740695 272.142007 
L 110.881798 271.790648 
L 121.116969 271.346946 
L 127.258072 270.988921 
L 147.728415 270.034164 
L 293.06785 262.924751 
L 299.208952 262.620245 
L 313.538192 261.920702 
L 319.679295 261.62944 
L 352.431844 259.937943 
L 372.902187 258.899781 
L 385.184393 258.296386 
L 399.513633 257.690981 
L 411.795838 257.081961 
L 430.219147 256.225677 
L 456.830593 254.868332 
L 471.159833 254.169384 
L 522.33569 251.666866 
L 528.476793 251.36147 
L 557.135273 249.916808 
L 571.464513 249.152721 
L 573.511547 248.961953 
L 575.558582 248.96081 
L 575.558582 248.96081 
" clip-path="url(#pce07901176)" style="fill: none; stroke: #d62728; stroke-width: 1.5; stroke-linecap: square"/>
   </g>
   <g id="patch_3">
    <path d="M 55.652813 286.402018 
L 55.652813 9.202018 
" style="fill: none; stroke: #000000; stroke-width: 0.8; stroke-linejoin: miter; stroke-linecap: square"/>
   </g>
   <g id="patch_4">
    <path d="M 55.652813 286.402018 
L 585.752813 286.402018 
" style="fill: none; stroke: #000000; stroke-width: 0.8; stroke-linejoin: miter; stroke-linecap: square"/>
   </g>
   <g id="legend_1">
    <g id="patch_5">
     <path d="M 64.052813 86.624518 
L 289.384688 86.624518 
Q 291.784688 86.624518 291.784688 84.224518 
L 291.784688 17.602018 
Q 291.784688 15.202018 289.384688 15.202018 
L 64.052813 15.202018 
Q 61.652813 15.202018 61.652813 17.602018 
L 61.652813 84.224518 
Q 61.652813 86.624518 64.052813 86.624518 
L 64.052813 86.624518 
z
" style="fill: none; opacity: 0.8"/>
    </g>
    <g id="line2d_18">
     <path d="M 66.452813 24.562018 
L 78.452813 24.562018 
L 90.452813 24.562018 
" style="fill: none; stroke: #bcbd22; stroke-width: 1.5; stroke-linecap: square"/>
    </g>
    <g id="text_16">
     <!-- random -->
     <g transform="translate(100.052813 28.762018) scale(0.12 -0.12)">
      <use xlink:href="#Colfax-Regular-72"/>
      <use xlink:href="#Colfax-Regular-61" transform="translate(35.299988 0)"/>
      <use xlink:href="#Colfax-Regular-6e" transform="translate(92.899979 0)"/>
      <use xlink:href="#Colfax-Regular-64" transform="translate(151.699966 0)"/>
      <use xlink:href="#Colfax-Regular-6f" transform="translate(211.299957 0)"/>
      <use xlink:href="#Colfax-Regular-6d" transform="translate(268.199951 0)"/>
     </g>
    </g>
    <g id="line2d_19">
     <path d="M 66.452813 41.410768 
L 78.452813 41.410768 
L 90.452813 41.410768 
" style="fill: none; stroke: #2ca02c; stroke-width: 1.5; stroke-linecap: square"/>
    </g>
    <g id="text_17">
     <!-- greedy -->
     <g transform="translate(100.052813 45.610768) scale(0.12 -0.12)">
      <defs>
       <path id="Colfax-Regular-67" d="M 1837 -1190 
Q 1331 -1190 937 -966 
Q 544 -742 416 -352 
L 896 -352 
Q 1158 -806 1837 -806 
Q 2266 -806 2531 -582 
Q 2797 -358 2797 13 
L 2797 755 
Q 2714 512 2400 323 
Q 2086 134 1696 134 
Q 1082 134 720 518 
Q 358 902 358 1472 
L 358 2016 
Q 358 2592 716 2973 
Q 1075 3354 1702 3354 
Q 2125 3354 2413 3168 
Q 2701 2982 2816 2733 
L 2816 3277 
L 3283 3277 
L 3283 0 
Q 3283 -512 2870 -851 
Q 2458 -1190 1837 -1190 
z
M 1792 531 
Q 2221 531 2509 800 
Q 2797 1069 2797 1523 
L 2797 1946 
Q 2797 2368 2512 2662 
Q 2227 2957 1811 2957 
Q 1331 2957 1084 2704 
Q 838 2451 838 1978 
L 838 1510 
Q 838 1043 1081 787 
Q 1325 531 1792 531 
z
" transform="scale(0.015625)"/>
       <path id="Colfax-Regular-79" d="M 1446 -1114 
L 973 -1114 
L 1389 0 
L 166 3277 
L 646 3277 
L 1645 493 
L 2605 3277 
L 3085 3277 
L 1875 0 
L 1446 -1114 
z
" transform="scale(0.015625)"/>
      </defs>
      <use xlink:href="#Colfax-Regular-67"/>
      <use xlink:href="#Colfax-Regular-72" transform="translate(59.399994 0)"/>
      <use xlink:href="#Colfax-Regular-65" transform="translate(94.699982 0)"/>
      <use xlink:href="#Colfax-Regular-65" transform="translate(150.099976 0)"/>
      <use xlink:href="#Colfax-Regular-64" transform="translate(205.499969 0)"/>
      <use xlink:href="#Colfax-Regular-79" transform="translate(265.09996 0)"/>
     </g>
    </g>
    <g id="line2d_20">
     <path d="M 66.452813 58.402018 
L 78.452813 58.402018 
L 90.452813 58.402018 
" style="fill: none; stroke: #17becf; stroke-width: 1.5; stroke-linecap: square"/>
    </g>
    <g id="text_18">
     <!-- greedy + direction flipping -->
     <g transform="translate(100.052813 62.602018) scale(0.12 -0.12)">
      <defs>
       <path id="Colfax-Regular-2b" d="M 1722 806 
L 1722 2112 
L 512 2112 
L 512 2496 
L 1722 2496 
L 1722 3802 
L 2157 3802 
L 2157 2496 
L 3366 2496 
L 3366 2112 
L 2157 2112 
L 2157 806 
L 1722 806 
z
" transform="scale(0.015625)"/>
       <path id="Colfax-Regular-66" d="M 749 0 
L 749 2880 
L 269 2880 
L 269 3277 
L 749 3277 
L 749 3712 
Q 749 4192 976 4432 
Q 1203 4672 1696 4672 
L 2157 4672 
L 2157 4275 
L 1734 4275 
Q 1472 4275 1353 4150 
Q 1235 4026 1235 3750 
L 1235 3277 
L 2042 3277 
L 2042 2880 
L 1235 2880 
L 1235 0 
L 749 0 
z
" transform="scale(0.015625)"/>
      </defs>
      <use xlink:href="#Colfax-Regular-67"/>
      <use xlink:href="#Colfax-Regular-72" transform="translate(59.399994 0)"/>
      <use xlink:href="#Colfax-Regular-65" transform="translate(94.699982 0)"/>
      <use xlink:href="#Colfax-Regular-65" transform="translate(150.099976 0)"/>
      <use xlink:href="#Colfax-Regular-64" transform="translate(205.499969 0)"/>
      <use xlink:href="#Colfax-Regular-79" transform="translate(265.09996 0)"/>
      <use xlink:href="#Colfax-Regular-20" transform="translate(315.899948 0)"/>
      <use xlink:href="#Colfax-Regular-2b" transform="translate(337.899933 0)"/>
      <use xlink:href="#Colfax-Regular-20" transform="translate(398.499924 0)"/>
      <use xlink:href="#Colfax-Regular-64" transform="translate(420.499908 0)"/>
      <use xlink:href="#Colfax-Regular-69" transform="translate(480.099899 0)"/>
      <use xlink:href="#Colfax-Regular-72" transform="translate(504.899887 0)"/>
      <use xlink:href="#Colfax-Regular-65" transform="translate(540.199875 0)"/>
      <use xlink:href="#Colfax-Regular-63" transform="translate(595.599869 0)"/>
      <use xlink:href="#Colfax-Regular-74" transform="translate(651.599854 0)"/>
      <use xlink:href="#Colfax-Regular-69" transform="translate(688.899841 0)"/>
      <use xlink:href="#Colfax-Regular-6f" transform="translate(713.699829 0)"/>
      <use xlink:href="#Colfax-Regular-6e" transform="translate(770.599823 0)"/>
      <use xlink:href="#Colfax-Regular-20" transform="translate(829.399811 0)"/>
      <use xlink:href="#Colfax-Regular-66" transform="translate(851.399796 0)"/>
      <use xlink:href="#Colfax-Regular-6c" transform="translate(886.599792 0)"/>
      <use xlink:href="#Colfax-Regular-69" transform="translate(911.39978 0)"/>
      <use xlink:href="#Colfax-Regular-70" transform="translate(936.199768 0)"/>
      <use xlink:href="#Colfax-Regular-70" transform="translate(995.799759 0)"/>
      <use xlink:href="#Colfax-Regular-69" transform="translate(1055.39975 0)"/>
      <use xlink:href="#Colfax-Regular-6e" transform="translate(1080.199738 0)"/>
      <use xlink:href="#Colfax-Regular-67" transform="translate(1138.999725 0)"/>
     </g>
    </g>
    <g id="line2d_21">
     <path d="M 66.452813 75.393268 
L 78.452813 75.393268 
L 90.452813 75.393268 
" style="fill: none; stroke: #d62728; stroke-width: 1.5; stroke-linecap: square"/>
    </g>
    <g id="text_19">
     <!-- greedy + direction flipping + 2-opt -->
     <g transform="translate(100.052813 79.593268) scale(0.12 -0.12)">
      <defs>
       <path id="Colfax-Regular-2d" d="M 429 1786 
L 429 2214 
L 2214 2214 
L 2214 1786 
L 429 1786 
z
" transform="scale(0.015625)"/>
      </defs>
      <use xlink:href="#Colfax-Regular-67"/>
      <use xlink:href="#Colfax-Regular-72" transform="translate(59.399994 0)"/>
      <use xlink:href="#Colfax-Regular-65" transform="translate(94.699982 0)"/>
      <use xlink:href="#Colfax-Regular-65" transform="translate(150.099976 0)"/>
      <use xlink:href="#Colfax-Regular-64" transform="translate(205.499969 0)"/>
      <use xlink:href="#Colfax-Regular-79" transform="translate(265.09996 0)"/>
      <use xlink:href="#Colfax-Regular-20" transform="translate(315.899948 0)"/>
      <use xlink:href="#Colfax-Regular-2b" transform="translate(337.899933 0)"/>
      <use xlink:href="#Colfax-Regular-20" transform="translate(398.499924 0)"/>
      <use xlink:href="#Colfax-Regular-64" transform="translate(420.499908 0)"/>
      <use xlink:href="#Colfax-Regular-69" transform="translate(480.099899 0)"/>
      <use xlink:href="#Colfax-Regular-72" transform="translate(504.899887 0)"/>
      <use xlink:href="#Colfax-Regular-65" transform="translate(540.199875 0)"/>
      <use xlink:href="#Colfax-Regular-63" transform="translate(595.599869 0)"/>
      <use xlink:href="#Colfax-Regular-74" transform="translate(651.599854 0)"/>
      <use xlink:href="#Colfax-Regular-69" transform="translate(688.899841 0)"/>
      <use xlink:href="#Colfax-Regular-6f" transform="translate(713.699829 0)"/>
      <use xlink:href="#Colfax-Regular-6e" transform="translate(770.599823 0)"/>
      <use xlink:href="#Colfax-Regular-20" transform="translate(829.399811 0)"/>
      <use xlink:href="#Colfax-Regular-66" transform="translate(851.399796 0)"/>
      <use xlink:href="#Colfax-Regular-6c" transform="translate(886.599792 0)"/>
      <use xlink:href="#Colfax-Regular-69" transform="translate(911.39978 0)"/>
      <use xlink:href="#Colfax-Regular-70" transform="translate(936.199768 0)"/>
      <use xlink:href="#Colfax-Regular-70" transform="translate(995.799759 0)"/>
      <use xlink:href="#Colfax-Regular-69" transform="translate(1055.39975 0)"/>
      <use xlink:href="#Colfax-Regular-6e" transform="translate(1080.199738 0)"/>
      <use xlink:href="#Colfax-Regular-67" transform="translate(1138.999725 0)"/>
      <use xlink:href="#Colfax-Regular-20" transform="translate(1198.399719 0)"/>
      <use xlink:href="#Colfax-Regular-2b" transform="translate(1220.399704 0)"/>
      <use xlink:href="#Colfax-Regular-20" transform="translate(1280.999695 0)"/>
      <use xlink:href="#Colfax-Regular-32" transform="translate(1302.99968 0)"/>
      <use xlink:href="#Colfax-Regular-2d" transform="translate(1362.699677 0)"/>
      <use xlink:href="#Colfax-Regular-6f" transform="translate(1403.999664 0)"/>
      <use xlink:href="#Colfax-Regular-70" transform="translate(1460.899658 0)"/>
      <use xlink:href="#Colfax-Regular-74" transform="translate(1520.499649 0)"/>
     </g>
    </g>
   </g>
  </g>
 </g>
 <defs>
  <clipPath id="pce07901176">
   <rect x="55.652813" y="9.202018" width="530.1" height="277.2"/>
  </clipPath>
 </defs>
</svg>
