<svg xmlns="http://www.w3.org/2000/svg" xmlns:xlink="http://www.w3.org/1999/xlink" height="460.373" viewBox="0 0 558 345.28" width="744" stroke-linecap="butt" stroke-linejoin="round" xmlns:v="https://vecta.io/nano"><style><![CDATA[.B{clip-path:url(#R)}.C{fill:#fff}.D{stroke-linecap:butt}.E{stroke-linejoin:round}.F{stroke-width:1.5}]]></style><path d="M0 345.28h558V0H0z" fill="#111"/><g fill="none" stroke="#999"><path d="M494.084 186.248l20.669-45.541" class="B"/><path d="M494.084 186.248l.033-.335-.26-2.642-.749-2.306-1.237-1.887-1.237-1.761-3.483-2.935-1.725-1.552-1.269-2.139-.976-1.887-1.497-1.761-2.962-4.613-1.269-1.929-1.497-3.648-.944-2.097-.781-2.097-1.237-2.097-.976-1.929-2.246-3.858-5.208-9.771m29.52 51.244l-.488 4.194-1.725 9.771-.488 2.264-.488 4.529-.26 2.055-1.497 9.771-.488 6.039-.26 4.319m-74.474-5.65l.976 14.623v2.055l-.228 2.264-.521 2.097-.749 2.223-.749 2.055-1.237 1.845-8.202 13.545-1.985 4.11-.749 2.264-.488 2.055-.488 2.223-.26 2.264-3.971 61.477" class="B"/><path d="M413.916 223.54l-3.811.679-19.005 5.217-6.402 1.355-4.251.616-2.497.151-5.748.281-9.472.243-9.82.067-6.337-.319m67.343-8.29l2.213-.302 2.194-.176 2.158.138 1.517.067 1.846.218 1.953.294 2.331.541 3.756.801 1.335.252 1.79.335 12.662 2.642 4.459.545 2.246.629 2.506.042 2.213.294 4.72.126 2.246-.126 2.213-.294 8.691-.503 1.497-.168 4.492.126 2.213-.084 3.222.252m-.001 0l.26-4.319.488-6.039 1.497-9.771.26-2.055.488-4.529.488-2.264 1.725-9.771.488-4.194m-5.694 42.942l2.246-.126 2.213.252 2.278.084 2.213.252 2.246.084 2.213.252 2.734.252 6.217.755 2.246.084 4.459.503 2.246.084.488.092 1.725.327 15.135 1.594" class="B"/><path d="M488.388 229.189l-3.222-.252-2.213.084-4.492-.126-1.497.168-8.691.503-2.213.294-2.246.126-4.72-.126-2.213-.294-2.506-.042-2.246-.629-4.459-.545-12.662-2.642-1.79-.335-1.335-.252-3.756-.801-2.331-.541-1.953-.294-1.846-.218-1.517-.067-2.158-.138-2.194.176-2.213.302m123.134 10.136l10.22-100.183m-10.22 100.183l-15.135-1.594-1.725-.327-.488-.092-2.246-.084-4.459-.503-2.246-.084-6.217-.755-2.734-.252-2.213-.252-2.246-.084-2.213-.252-2.278-.084-2.213-.252-2.246.126M395.265 338.64l3.971-61.477.26-2.264.488-2.223.488-2.055.749-2.264 1.985-4.11 8.202-13.545 1.237-1.845.749-2.055.749-2.223.521-2.097.228-2.264v-2.055l-.976-14.623" class="B"/><path d="M547.269 133.493l-10.22 100.183m-72.487-98.673l5.208 9.771 2.246 3.858.976 1.929 1.237 2.097.781 2.097.944 2.097 1.497 3.648 1.269 1.929 2.962 4.613 1.497 1.761.976 1.887 1.269 2.139 1.725 1.552 3.483 2.935 1.237 1.761 1.237 1.887.749 2.306.26 2.642-.033.335m20.671-45.541l-20.669 45.541M142.099 325.64l-32.809-1.426m32.809 1.426l44.299 2.181 21.613.923M156.225 43.04l6.673-23.945" class="B"/><path d="M162.898 19.095l-6.673 23.945m6.673-23.945L119.803 6.934" class="B"/><path d="M162.898 19.095l36.016 9.809 4.215 3.275M10.731 250.366l115.159 6.164 2.767-.042 20.376-4.235 2.571-.126 8.658.294" class="B"/><path d="M10.731 250.366l2.213-31.367.413-5.728.169-2.323.745-10.316.498-6.873.107-1.505.684-9.435.322-4.466.293-3.46M27.738 54.84l5.257.528 37.041 3.984M27.738 54.84l-4.856 51.513-.335 3.573-1.263 12.861-.576 5.871-.993 10.077-.124 1.241-.15 1.514-1.536 15.499-.101 1.023-1.377 13.88-.251 2.998m144.085 77.531l-1.302 29.774m1.302-29.774l38.896 2.348 2.702.797 2.506 1.3 2.213 1.761 1.269 1.51 1.432 2.642.911 2.852.228 3.019-2.213 51.328-.195 8.764m-47.749-76.321l-8.658-.294-2.571.126-20.376 4.235-2.767.042-115.159-6.164" class="B"/><path d="M208.011 328.743l.195-8.764 2.213-51.328-.228-3.019-.911-2.852-1.432-2.642-1.269-1.51-2.213-1.761-2.506-1.3-2.702-.797-38.896-2.348m47.749 76.321l28.773 1.468 13.898.419 5.696-.503 3.385-.671 7.714-2.139m-59.466 1.426l-21.613-.923-44.299-2.181m202.943-18.744l-38.961 10.232" class="B"/><path d="M345.042 306.895l-6.152-24.322-.521-4.445.195-7.213.618-4.403 7.389-34.68" class="B"/><path d="M346.572 231.831l-3.847 18.053-3.541 16.627-.618 4.403-.195 7.213.521 4.445 6.152 24.322m1.528-75.063l6.337.319 9.82-.067 9.472-.243 5.748-.281 2.497-.151 4.251-.616 6.402-1.355 19.005-5.217 3.811-.679m-67.343 8.29l-38.587-17.013M70.035 59.352l39.905 4.235" class="B"/><path d="M70.035 59.352L75.601 6.64m-5.566 52.712l-37.041-3.984-5.257-.528m42.298 4.512l-3.483 33.129-.195 5.871.423 7.045 1.823 12.203m41.337-54.012l-39.905-4.235m39.905 4.235l6.9.797 4.752 1.3 3.418 1.468 19.269 10.19 4.394 1.594 4.557 1.09 4.687.503h4.687l5.794-.839 4.524-1.258 4.329-1.803 4.069-2.306 2.864-2.055 4.671-3.699 2.783-4.269m-81.698-.713l3.678-33.674.846-3.858 5.338-19.122" class="B"/><path d="M109.94 63.588l-3.418 32.332-.163 3.481.293 3.523.716 3.439 1.595 4.403 2.278 4.068 2.148 2.768 3.353 3.229 3.841 2.684 4.264 1.971 3.32 1.006 4.622.671 76.946-1.51" class="B"/><path d="M191.638 64.301l-2.783 4.269-4.671 3.699-2.864 2.055-4.069 2.306-4.329 1.803-4.524 1.258-5.794.839h-4.687l-4.687-.503-4.557-1.09-4.394-1.594-19.269-10.19-3.418-1.468-4.752-1.3-6.9-.797m196.141 253.539l38.961-10.232m-38.961 10.232l-38.603 10.19m38.603-10.19l-3.548-14.384-5.696-21.009-.195-8.303" class="B"/><path d="M296.642 273.431l.195 8.303 5.696 21.009 3.548 14.384m-38.603 10.19l38.603-10.19m-38.603 10.19l-9.179-35.016-.944-5.326-.456-5.032.228-5.787 1.4-17.655-1.335-5.493m10.286 74.309l-7.714 2.139-3.385.671-5.696.503-13.898-.419-28.773-1.468" class="B"/><path d="M257.192 253.008l1.335 5.493-1.4 17.655-.228 5.787.456 5.032.944 5.326 9.179 35.016m-57.742-201.665l-76.946 1.51-4.622-.671-3.32-1.006-4.264-1.971-3.841-2.684-3.353-3.229-2.148-2.768-2.278-4.068-1.595-4.403-.716-3.439-.293-3.523.163-3.481 3.418-32.332m9.862-56.653l43.095 12.161M119.803 6.934l-5.338 19.122-.846 3.858-3.678 33.674m106.304 130.25l1.335-10.903.879-2.474.27-.411 1.162-1.77 1.367-1.384 17.967-15.558 1.758-2.432.976-2.432.358-2.181 2.972-38.509 2.138-5.565m-31.182 83.619l4.69.566 48.853 5.892 6.998 1.677 6.868 2.097 4.231 1.887" class="B"/><path d="M216.245 193.838l-6.66-.805-17.59-2.13-4.547-.478-18.986-2.004-.716-.075-7.245-.7-29.922-2.894-6.22-.6-34.613-2.961-42.913-3.674-11.086-.952-8.772-.751-7.05-.6-3.75-.323m231.252-64.672l-2.138 5.565-2.972 38.509-.358 2.181-.976 2.432-1.758 2.432-17.967 15.558-1.367 1.384-1.162 1.77-.27.411-.879 2.474-1.335 10.903M68.603 117.6l-1.823-12.203-.423-7.045.195-5.871 3.483-33.129M75.601 6.64l-5.566 52.712m39.254 264.862l32.809 1.426m16.861-43.445l1.302-29.774m127.625-46.464l3.157-7.422 1.009-3.439.716-4.739.065-3.606-.553-4.781-1.269-4.613-2.995-7.632-1.953-6.668-1.4-7.968-.423-5.745.033-5.829.684-6.877 1.335-6.835 7.291-23.316 1.172-5.703.456-4.655-.065-5.829-.781-5.787-1.465-5.661-1.66-4.361-2.083-4.194-2.441-3.942-3.431-4.491-2.884-1.631m7.485 145.724l20.099 8.861" class="B"/><path d="M287.886 205.957l-4.231-1.887-6.868-2.097-6.998-1.677-53.543-6.458M280.4 60.233l2.884 1.631 3.431 4.491 2.441 3.942 2.083 4.194 1.66 4.361 1.465 5.661.781 5.787.065 5.829-.456 4.655-1.172 5.703-7.291 23.316-1.335 6.835-.684 6.877-.033 5.829.423 5.745 1.4 7.968 1.953 6.668 2.995 7.632 1.269 4.613.553 4.781-.065 3.606-.716 4.739-1.009 3.439-3.157 7.422M203.128 32.178l-4.215-3.275-36.016-9.809m145.088 195.724l5.208-10.169 2.272-2.793 2.968-1.744 2.617-2.097 2.184-3.753 1.66-4.802 1.221-5.762 2.968-19.73 3.144-14.493" class="B"/><path d="M307.985 214.818l38.587 17.013m-38.587-17.013l-20.099-8.861" class="B"/><path d="M332.227 149.475l-3.144 14.493-2.968 19.73-1.221 5.762-1.66 4.802-2.184 3.753-2.617 2.097-2.968 1.744-2.272 2.793-5.208 10.169M16.176 174.892l3.75.323 7.05.6 8.772.751 11.086.952 42.913 3.674 34.613 2.961 6.22.6 29.922 2.894 7.245.7.716.075 18.986 2.004 4.547.478 17.59 2.13 6.66.805" class="B"/><path d="M16.176 174.892l.251-2.998 1.377-13.88.101-1.023 1.536-15.499.15-1.514.124-1.241.993-10.077.576-5.871 1.263-12.861 5.192-55.086m-11.563 120.05l-.293 3.46-.322 4.466-.684 9.435-.107 1.505-.498 6.873-.745 10.316-.169 2.323-.413 5.728-2.213 31.367" class="B"/></g><defs><path d="M0 1.936c.514 0 1.006-.204 1.369-.567S1.936.514 1.936 0s-.204-1.006-.567-1.369S.514-1.936 0-1.936s-1.006.204-1.369.567-.567.856-.567 1.369.204 1.006.567 1.369.856.567 1.369.567z" id="A" class="D E"/></defs><g class="B C"><use x="494.084" xlink:href="#A" y="186.248"/></g><g class="B C"><use x="413.916" xlink:href="#A" y="223.54"/></g><g class="B C"><use x="488.388" xlink:href="#A" y="229.189"/></g><g class="B C"><use x="537.049" xlink:href="#A" y="233.676"/></g><g class="B C"><use x="395.265" xlink:href="#A" y="338.64"/></g><g class="B C"><use x="547.269" xlink:href="#A" y="133.493"/></g><g class="B C"><use x="464.562" xlink:href="#A" y="135.003"/></g><g class="B C"><use x="514.753" xlink:href="#A" y="140.706"/></g><g class="B C"><use x="142.099" xlink:href="#A" y="325.64"/></g><g class="B C"><use x="156.225" xlink:href="#A" y="43.04"/></g><g class="B C"><use x="162.898" xlink:href="#A" y="19.095"/></g><g class="B C"><use x="10.731" xlink:href="#A" y="250.366"/></g><g class="B C"><use x="27.738" xlink:href="#A" y="54.84"/></g><g class="B C"><use x="160.261" xlink:href="#A" y="252.421"/></g><g class="B C"><use x="208.011" xlink:href="#A" y="328.743"/></g><g class="B C"><use x="345.042" xlink:href="#A" y="306.895"/></g><g class="B C"><use x="346.572" xlink:href="#A" y="231.831"/></g><g class="B C"><use x="70.035" xlink:href="#A" y="59.352"/></g><g class="B C"><use x="109.94" xlink:href="#A" y="63.588"/></g><g class="B C"><use x="191.638" xlink:href="#A" y="64.301"/></g><g class="B C"><use x="306.081" xlink:href="#A" y="317.127"/></g><g class="B C"><use x="296.642" xlink:href="#A" y="273.431"/></g><g class="B C"><use x="267.478" xlink:href="#A" y="327.317"/></g><g class="B C"><use x="257.192" xlink:href="#A" y="253.008"/></g><g class="B C"><use x="209.736" xlink:href="#A" y="125.652"/></g><g class="B C"><use x="119.803" xlink:href="#A" y="6.934"/></g><g class="B C"><use x="216.245" xlink:href="#A" y="193.838"/></g><g class="B C"><use x="247.427" xlink:href="#A" y="110.219"/></g><g class="B C"><use x="68.603" xlink:href="#A" y="117.6"/></g><g class="B C"><use x="75.601" xlink:href="#A" y="6.64"/></g><g class="B C"><use x="109.289" xlink:href="#A" y="324.214"/></g><g class="B C"><use x="158.959" xlink:href="#A" y="282.195"/></g><g class="B C"><use x="287.886" xlink:href="#A" y="205.957"/></g><g class="B C"><use x="280.4" xlink:href="#A" y="60.233"/></g><g class="B C"><use x="203.128" xlink:href="#A" y="32.178"/></g><g class="B C"><use x="307.985" xlink:href="#A" y="214.818"/></g><g class="B C"><use x="332.227" xlink:href="#A" y="149.475"/></g><g class="B C"><use x="16.176" xlink:href="#A" y="174.892"/></g><defs><path d="M-5 5L5-5M-5-5L5 5" id="B" stroke="#0f0" class="D E F"/></defs><g class="B F"><use x="390.839" xlink:href="#B" y="211.576" fill="#0f0" stroke="#0f0"/></g><defs><path d="M-5 5L5-5M-5-5L5 5" id="C" stroke="red" class="D E F"/></defs><g class="B F"><use x="81.623" xlink:href="#C" y="173.835" fill="red" stroke="red"/></g><path d="M346.572 231.831l-34.766-15.327-3.821-1.686h0l-8.323-3.669-11.776-5.192h0l-4.231-1.887-6.868-2.097-6.998-1.677-53.543-6.458m177.429 34.891l-2.576.707-6.402 1.355-4.251.616-2.497.151-5.748.281-9.472.243-9.82.067-6.337-.319m-130.327-37.992l-6.66-.805-17.59-2.13-4.547-.478-18.986-2.004-.716-.075-7.245-.7-29.922-2.894-6.22-.6-43.079-3.685" class="B" fill="none" stroke-linecap="square" stroke="#ff8c00" stroke-width="2"/><path d="M455.597 66.713H551q2 0 2-2V7q0-2-2-2h-95.403q-2 0-2 2v57.713q0 2 2 2z" stroke-linejoin="miter" opacity=".8" stroke="#ccc" class="C"/><path d="M467.597 18.973a5 5 0 0 0 5-5 5 5 0 0 0-5-5 5 5 0 0 0-5 5 5 5 0 0 0 5 5z" fill="#0f0"/><g transform="matrix(.1 0 0 -.1 485.596875 16.598437)"><defs><path d="M1959 3097q-462 0-731-361-269-361-269-989 0-628 267-989 268-361 733-361 460 0 728 362 269 363 269 988 0 622-269 986-268 364-728 364zm0 487q750 0 1178-488 429-487 429-1349 0-859-429-1349Q2709-91 1959-91q-753 0-1180 489-426 490-426 1349 0 862 426 1349 427 488 1180 488z" id="D" transform="scale(.015625)" class="D E"/><path d="M2631 2963q-97 56-211 82-114 27-251 27-488 0-749-317-261-317-261-911V0H581v3500h578v-544q182 319 472 473 291 155 707 155 59 0 131-8 72-7 159-23l3-590z" id="E" transform="scale(.015625)" class="D E"/><path d="M603 3500h575V0H603v3500zm0 1363h575v-729H603v729z" id="F" transform="scale(.015625)" class="D E"/><path d="M2906 1791q0 625-258 968-257 344-723 344-462 0-720-344-258-343-258-968 0-622 258-966 258-344 720-344 466 0 723 344 258 344 258 966zm575-1357q0-893-397-1329-396-436-1215-436-303 0-572 45-269 45-522 139v559q253-137 500-202 247-66 503-66 566 0 847 295 281 295 281 892v285q-178-310-456-463Q2172 0 1784 0 1141 0 747 490 353 981 353 1791q0 812 394 1302 394 491 1037 491 388 0 666-153 278-153 456-462v531h575V434z" id="G" transform="scale(.015625)" class="D E"/><path d="M1984 4856q-418-718-622-1422-203-703-203-1425 0-721 205-1429 205-708 620-1424h-500Q1016-109 783 600q-233 709-233 1409 0 697 231 1403 232 707 703 1444h500z" id="H" transform="scale(.015625)" class="D E"/><path d="M544 1381v2119h575V1403q0-497 193-746 194-248 582-248 465 0 735 297 271 297 271 810v1984h575V0h-575v538q-209-319-486-474-276-155-642-155-603 0-916 375-312 375-312 1097zm1447 2203h0z" id="I" transform="scale(.015625)" class="D E"/><path d="M1172 4494v-994h1184v-447H1172V1153q0-428 117-550 117-122 477-122h590V0h-590q-666 0-919 248-253 249-253 905v1900H172v447h422v994h578z" id="J" transform="scale(.015625)" class="D E"/><path d="M3597 1894v-281H953q38-594 358-905 320-311 892-311 331 0 642 81 311 81 618 244V178Q3153 47 2828-22q-325-69-659-69-838 0-1327 487-489 488-489 1320 0 859 464 1363 464 505 1252 505 706 0 1117-455 411-454 411-1235zm-575 169q-6 471-264 752-258 282-683 282-481 0-770-272-289-272-333-766l2050 4z" id="K" transform="scale(.015625)" class="D E"/><path d="M513 4856h500q468-737 701-1444 233-706 233-1403 0-700-233-1409-233-709-701-1444H513q415 716 620 1424 205 708 205 1429 0 722-205 1425-205 704-620 1422z" id="L" transform="scale(.015625)" class="D E"/></defs><use xlink:href="#D"/><use x="61.182" xlink:href="#E"/><use x="102.295" xlink:href="#F"/><use x="130.078" xlink:href="#G"/><use x="193.555" xlink:href="#V"/><use x="225.342" xlink:href="#H"/><use x="264.355" xlink:href="#E"/><use x="303.219" xlink:href="#D"/><use x="364.4" xlink:href="#I"/><use x="427.779" xlink:href="#J"/><use x="466.988" xlink:href="#K"/><use x="528.512" xlink:href="#L"/></g><path d="M467.597 33.652a5 5 0 0 0 5-5 5 5 0 0 0-5-5 5 5 0 0 0-5 5 5 5 0 0 0 5 5z" fill="red"/><g transform="matrix(.1 0 0 -.1 485.596875 31.276562)"><defs><path d="M2906 2969v1894h575V0h-575v525q-181-312-458-464-276-152-664-152-634 0-1033 506-398 507-398 1332 0 825 398 1331 399 506 1033 506 388 0 664-152 277-151 458-463zM947 1747q0-634 261-995 261-361 717-361 456 0 718 361 263 361 263 995 0 634-263 995-262 361-718 361-456 0-717-361-261-361-261-995z" id="M" transform="scale(.015625)" class="D E"/><path d="M2834 3397v-544q-243 125-506 187-262 63-544 63-428 0-642-131-214-131-214-394 0-200 153-314 153-114 616-217l197-44q612-131 870-370 258-239 258-667 0-488-386-773Q2250-91 1575-91q-281 0-586 55-305 55-642 164v594q319-166 628-249 309-82 613-82 406 0 624 139 219 139 219 392 0 234-158 359-157 125-692 241l-200 47q-534 112-772 345-237 233-237 639 0 494 350 762 350 269 994 269 318 0 599-47 282-46 519-140z" id="N" transform="scale(.015625)" class="D E"/></defs><use xlink:href="#M"/><use x="63.477" xlink:href="#K"/><use x="125" xlink:href="#N"/><use x="177.1" xlink:href="#J"/><use x="216.309" xlink:href="#V"/><use x="248.096" xlink:href="#H"/><use x="287.109" xlink:href="#E"/><use x="325.973" xlink:href="#D"/><use x="387.154" xlink:href="#I"/><use x="450.533" xlink:href="#J"/><use x="489.742" xlink:href="#K"/><use x="551.266" xlink:href="#L"/></g><use x="467.597" xlink:href="#B" y="43.33" fill="#0f0" stroke="#0f0" class="F"/><g transform="matrix(.1 0 0 -.1 485.596875 45.954687)"><defs><path d="M2194 1759q-697 0-966-159-269-159-269-544 0-306 202-486 202-179 548-179 479 0 768 339 289 339 289 901v128h-572zm1147 238V0h-575v531q-197-318-491-470-294-152-719-152-537 0-855 302-317 302-317 808 0 590 395 890 396 300 1180 300h807v57q0 397-261 614-261 217-733 217-300 0-585-72-284-72-546-216v532q315 122 612 182 297 61 578 61 760 0 1135-394 375-393 375-1193z" id="O" transform="scale(.015625)" class="D E"/><path d="M3122 3366v-538q-244 135-489 202-245 67-495 67-560 0-870-355-309-354-309-995 0-641 309-996 310-354 870-354 250 0 495 67 245 67 489 202V134Q2881 22 2623-34q-257-57-548-57-791 0-1257 497-465 497-465 1341 0 856 470 1346 471 491 1290 491 265 0 518-55 253-54 491-163z" id="P" transform="scale(.015625)" class="D E"/><path d="M603 4863h575V0H603v4863z" id="Q" transform="scale(.015625)" class="D E"/></defs><use xlink:href="#D"/><use x="61.182" xlink:href="#E"/><use x="102.295" xlink:href="#F"/><use x="130.078" xlink:href="#G"/><use x="193.555" xlink:href="#V"/><use x="225.342" xlink:href="#H"/><use x="264.355" xlink:href="#O"/><use x="325.635" xlink:href="#P"/><use x="380.615" xlink:href="#J"/><use x="419.824" xlink:href="#I"/><use x="483.203" xlink:href="#O"/><use x="544.482" xlink:href="#Q"/><use x="572.266" xlink:href="#L"/></g><use x="467.597" xlink:href="#C" y="58.008" fill="red" stroke="red" class="F"/><g transform="matrix(.1 0 0 -.1 485.596875 60.632812)"><use xlink:href="#M"/><use x="63.477" xlink:href="#K"/><use x="125" xlink:href="#N"/><use x="177.1" xlink:href="#J"/><use x="216.309" xlink:href="#V"/><use x="248.096" xlink:href="#H"/><use x="287.109" xlink:href="#O"/><use x="348.389" xlink:href="#P"/><use x="403.369" xlink:href="#J"/><use x="442.578" xlink:href="#I"/><use x="505.957" xlink:href="#O"/><use x="567.236" xlink:href="#Q"/><use x="595.02" xlink:href="#L"/></g><path d="M393.675 233.729a5 5 0 0 0 5-5 5 5 0 0 0-5-5 5 5 0 0 0-5 5 5 5 0 0 0 5 5z" fill="#0f0" class="B"/><path d="M81.281 185.466a5 5 0 0 0 5-5 5 5 0 0 0-5-5 5 5 0 0 0-5 5 5 5 0 0 0 5 5z" fill="red" class="B"/><defs><clipPath id="R"><path d="M0 0h558v345.28H0z" class="D E"/></clipPath></defs></svg>